<?xml version="1.0" encoding="utf-8" standalone="no"?>
<!DOCTYPE svg PUBLIC "-//W3C//DTD SVG 1.1//EN"
  "http://www.w3.org/Graphics/SVG/1.1/DTD/svg11.dtd">
<!-- Created with matplotlib (https://matplotlib.org/) -->
<svg height="325.986375pt" version="1.1" viewBox="0 0 404.923125 325.986375" width="404.923125pt" xmlns="http://www.w3.org/2000/svg" xmlns:xlink="http://www.w3.org/1999/xlink">
 <defs>
  <style type="text/css">
*{stroke-linecap:butt;stroke-linejoin:round;}
  </style>
 </defs>
 <g id="figure_1">
  <g id="patch_1">
   <path d="M 0 325.986375 
L 404.923125 325.986375 
L 404.923125 0 
L 0 0 
z
" style="fill:#ffffff;"/>
  </g>
  <g id="axes_1">
   <g id="patch_2">
    <path d="M 40.603125 288.430125 
L 397.723125 288.430125 
L 397.723125 22.318125 
L 40.603125 22.318125 
z
" style="fill:#ffffff;"/>
   </g>
   <g id="matplotlib.axis_1">
    <g id="xtick_1">
     <g id="line2d_1">
      <path clip-path="url(#p2460ea59ef)" d="M 56.835852 288.430125 
L 56.835852 22.318125 
" style="fill:none;stroke:#b0b0b0;stroke-dasharray:2.96,1.28;stroke-dashoffset:0;stroke-width:0.8;"/>
     </g>
     <g id="line2d_2">
      <defs>
       <path d="M 0 0 
L 0 3.5 
" id="ma0d926eb9e" style="stroke:#000000;stroke-width:0.8;"/>
      </defs>
      <g>
       <use style="stroke:#000000;stroke-width:0.8;" x="56.835852" xlink:href="#ma0d926eb9e" y="288.430125"/>
      </g>
     </g>
     <g id="text_1">
      <!-- 0 -->
      <defs>
       <path d="M 31.78125 66.40625 
Q 24.171875 66.40625 20.328125 58.90625 
Q 16.5 51.421875 16.5 36.375 
Q 16.5 21.390625 20.328125 13.890625 
Q 24.171875 6.390625 31.78125 6.390625 
Q 39.453125 6.390625 43.28125 13.890625 
Q 47.125 21.390625 47.125 36.375 
Q 47.125 51.421875 43.28125 58.90625 
Q 39.453125 66.40625 31.78125 66.40625 
z
M 31.78125 74.21875 
Q 44.046875 74.21875 50.515625 64.515625 
Q 56.984375 54.828125 56.984375 36.375 
Q 56.984375 17.96875 50.515625 8.265625 
Q 44.046875 -1.421875 31.78125 -1.421875 
Q 19.53125 -1.421875 13.0625 8.265625 
Q 6.59375 17.96875 6.59375 36.375 
Q 6.59375 54.828125 13.0625 64.515625 
Q 19.53125 74.21875 31.78125 74.21875 
z
" id="DejaVuSans-48"/>
      </defs>
      <g transform="translate(53.654602 303.028562)scale(0.1 -0.1)">
       <use xlink:href="#DejaVuSans-48"/>
      </g>
     </g>
    </g>
    <g id="xtick_2">
     <g id="line2d_3">
      <path clip-path="url(#p2460ea59ef)" d="M 105.766454 288.430125 
L 105.766454 22.318125 
" style="fill:none;stroke:#b0b0b0;stroke-dasharray:2.96,1.28;stroke-dashoffset:0;stroke-width:0.8;"/>
     </g>
     <g id="line2d_4">
      <g>
       <use style="stroke:#000000;stroke-width:0.8;" x="105.766454" xlink:href="#ma0d926eb9e" y="288.430125"/>
      </g>
     </g>
     <g id="text_2">
      <!-- 200 -->
      <defs>
       <path d="M 19.1875 8.296875 
L 53.609375 8.296875 
L 53.609375 0 
L 7.328125 0 
L 7.328125 8.296875 
Q 12.9375 14.109375 22.625 23.890625 
Q 32.328125 33.6875 34.8125 36.53125 
Q 39.546875 41.84375 41.421875 45.53125 
Q 43.3125 49.21875 43.3125 52.78125 
Q 43.3125 58.59375 39.234375 62.25 
Q 35.15625 65.921875 28.609375 65.921875 
Q 23.96875 65.921875 18.8125 64.3125 
Q 13.671875 62.703125 7.8125 59.421875 
L 7.8125 69.390625 
Q 13.765625 71.78125 18.9375 73 
Q 24.125 74.21875 28.421875 74.21875 
Q 39.75 74.21875 46.484375 68.546875 
Q 53.21875 62.890625 53.21875 53.421875 
Q 53.21875 48.921875 51.53125 44.890625 
Q 49.859375 40.875 45.40625 35.40625 
Q 44.1875 33.984375 37.640625 27.21875 
Q 31.109375 20.453125 19.1875 8.296875 
z
" id="DejaVuSans-50"/>
      </defs>
      <g transform="translate(96.222704 303.028562)scale(0.1 -0.1)">
       <use xlink:href="#DejaVuSans-50"/>
       <use x="63.623047" xlink:href="#DejaVuSans-48"/>
       <use x="127.246094" xlink:href="#DejaVuSans-48"/>
      </g>
     </g>
    </g>
    <g id="xtick_3">
     <g id="line2d_5">
      <path clip-path="url(#p2460ea59ef)" d="M 154.697057 288.430125 
L 154.697057 22.318125 
" style="fill:none;stroke:#b0b0b0;stroke-dasharray:2.96,1.28;stroke-dashoffset:0;stroke-width:0.8;"/>
     </g>
     <g id="line2d_6">
      <g>
       <use style="stroke:#000000;stroke-width:0.8;" x="154.697057" xlink:href="#ma0d926eb9e" y="288.430125"/>
      </g>
     </g>
     <g id="text_3">
      <!-- 400 -->
      <defs>
       <path d="M 37.796875 64.3125 
L 12.890625 25.390625 
L 37.796875 25.390625 
z
M 35.203125 72.90625 
L 47.609375 72.90625 
L 47.609375 25.390625 
L 58.015625 25.390625 
L 58.015625 17.1875 
L 47.609375 17.1875 
L 47.609375 0 
L 37.796875 0 
L 37.796875 17.1875 
L 4.890625 17.1875 
L 4.890625 26.703125 
z
" id="DejaVuSans-52"/>
      </defs>
      <g transform="translate(145.153307 303.028562)scale(0.1 -0.1)">
       <use xlink:href="#DejaVuSans-52"/>
       <use x="63.623047" xlink:href="#DejaVuSans-48"/>
       <use x="127.246094" xlink:href="#DejaVuSans-48"/>
      </g>
     </g>
    </g>
    <g id="xtick_4">
     <g id="line2d_7">
      <path clip-path="url(#p2460ea59ef)" d="M 203.627659 288.430125 
L 203.627659 22.318125 
" style="fill:none;stroke:#b0b0b0;stroke-dasharray:2.96,1.28;stroke-dashoffset:0;stroke-width:0.8;"/>
     </g>
     <g id="line2d_8">
      <g>
       <use style="stroke:#000000;stroke-width:0.8;" x="203.627659" xlink:href="#ma0d926eb9e" y="288.430125"/>
      </g>
     </g>
     <g id="text_4">
      <!-- 600 -->
      <defs>
       <path d="M 33.015625 40.375 
Q 26.375 40.375 22.484375 35.828125 
Q 18.609375 31.296875 18.609375 23.390625 
Q 18.609375 15.53125 22.484375 10.953125 
Q 26.375 6.390625 33.015625 6.390625 
Q 39.65625 6.390625 43.53125 10.953125 
Q 47.40625 15.53125 47.40625 23.390625 
Q 47.40625 31.296875 43.53125 35.828125 
Q 39.65625 40.375 33.015625 40.375 
z
M 52.59375 71.296875 
L 52.59375 62.3125 
Q 48.875 64.0625 45.09375 64.984375 
Q 41.3125 65.921875 37.59375 65.921875 
Q 27.828125 65.921875 22.671875 59.328125 
Q 17.53125 52.734375 16.796875 39.40625 
Q 19.671875 43.65625 24.015625 45.921875 
Q 28.375 48.1875 33.59375 48.1875 
Q 44.578125 48.1875 50.953125 41.515625 
Q 57.328125 34.859375 57.328125 23.390625 
Q 57.328125 12.15625 50.6875 5.359375 
Q 44.046875 -1.421875 33.015625 -1.421875 
Q 20.359375 -1.421875 13.671875 8.265625 
Q 6.984375 17.96875 6.984375 36.375 
Q 6.984375 53.65625 15.1875 63.9375 
Q 23.390625 74.21875 37.203125 74.21875 
Q 40.921875 74.21875 44.703125 73.484375 
Q 48.484375 72.75 52.59375 71.296875 
z
" id="DejaVuSans-54"/>
      </defs>
      <g transform="translate(194.083909 303.028562)scale(0.1 -0.1)">
       <use xlink:href="#DejaVuSans-54"/>
       <use x="63.623047" xlink:href="#DejaVuSans-48"/>
       <use x="127.246094" xlink:href="#DejaVuSans-48"/>
      </g>
     </g>
    </g>
    <g id="xtick_5">
     <g id="line2d_9">
      <path clip-path="url(#p2460ea59ef)" d="M 252.558261 288.430125 
L 252.558261 22.318125 
" style="fill:none;stroke:#b0b0b0;stroke-dasharray:2.96,1.28;stroke-dashoffset:0;stroke-width:0.8;"/>
     </g>
     <g id="line2d_10">
      <g>
       <use style="stroke:#000000;stroke-width:0.8;" x="252.558261" xlink:href="#ma0d926eb9e" y="288.430125"/>
      </g>
     </g>
     <g id="text_5">
      <!-- 800 -->
      <defs>
       <path d="M 31.78125 34.625 
Q 24.75 34.625 20.71875 30.859375 
Q 16.703125 27.09375 16.703125 20.515625 
Q 16.703125 13.921875 20.71875 10.15625 
Q 24.75 6.390625 31.78125 6.390625 
Q 38.8125 6.390625 42.859375 10.171875 
Q 46.921875 13.96875 46.921875 20.515625 
Q 46.921875 27.09375 42.890625 30.859375 
Q 38.875 34.625 31.78125 34.625 
z
M 21.921875 38.8125 
Q 15.578125 40.375 12.03125 44.71875 
Q 8.5 49.078125 8.5 55.328125 
Q 8.5 64.0625 14.71875 69.140625 
Q 20.953125 74.21875 31.78125 74.21875 
Q 42.671875 74.21875 48.875 69.140625 
Q 55.078125 64.0625 55.078125 55.328125 
Q 55.078125 49.078125 51.53125 44.71875 
Q 48 40.375 41.703125 38.8125 
Q 48.828125 37.15625 52.796875 32.3125 
Q 56.78125 27.484375 56.78125 20.515625 
Q 56.78125 9.90625 50.3125 4.234375 
Q 43.84375 -1.421875 31.78125 -1.421875 
Q 19.734375 -1.421875 13.25 4.234375 
Q 6.78125 9.90625 6.78125 20.515625 
Q 6.78125 27.484375 10.78125 32.3125 
Q 14.796875 37.15625 21.921875 38.8125 
z
M 18.3125 54.390625 
Q 18.3125 48.734375 21.84375 45.5625 
Q 25.390625 42.390625 31.78125 42.390625 
Q 38.140625 42.390625 41.71875 45.5625 
Q 45.3125 48.734375 45.3125 54.390625 
Q 45.3125 60.0625 41.71875 63.234375 
Q 38.140625 66.40625 31.78125 66.40625 
Q 25.390625 66.40625 21.84375 63.234375 
Q 18.3125 60.0625 18.3125 54.390625 
z
" id="DejaVuSans-56"/>
      </defs>
      <g transform="translate(243.014511 303.028562)scale(0.1 -0.1)">
       <use xlink:href="#DejaVuSans-56"/>
       <use x="63.623047" xlink:href="#DejaVuSans-48"/>
       <use x="127.246094" xlink:href="#DejaVuSans-48"/>
      </g>
     </g>
    </g>
    <g id="xtick_6">
     <g id="line2d_11">
      <path clip-path="url(#p2460ea59ef)" d="M 301.488863 288.430125 
L 301.488863 22.318125 
" style="fill:none;stroke:#b0b0b0;stroke-dasharray:2.96,1.28;stroke-dashoffset:0;stroke-width:0.8;"/>
     </g>
     <g id="line2d_12">
      <g>
       <use style="stroke:#000000;stroke-width:0.8;" x="301.488863" xlink:href="#ma0d926eb9e" y="288.430125"/>
      </g>
     </g>
     <g id="text_6">
      <!-- 1000 -->
      <defs>
       <path d="M 12.40625 8.296875 
L 28.515625 8.296875 
L 28.515625 63.921875 
L 10.984375 60.40625 
L 10.984375 69.390625 
L 28.421875 72.90625 
L 38.28125 72.90625 
L 38.28125 8.296875 
L 54.390625 8.296875 
L 54.390625 0 
L 12.40625 0 
z
" id="DejaVuSans-49"/>
      </defs>
      <g transform="translate(288.763863 303.028562)scale(0.1 -0.1)">
       <use xlink:href="#DejaVuSans-49"/>
       <use x="63.623047" xlink:href="#DejaVuSans-48"/>
       <use x="127.246094" xlink:href="#DejaVuSans-48"/>
       <use x="190.869141" xlink:href="#DejaVuSans-48"/>
      </g>
     </g>
    </g>
    <g id="xtick_7">
     <g id="line2d_13">
      <path clip-path="url(#p2460ea59ef)" d="M 350.419465 288.430125 
L 350.419465 22.318125 
" style="fill:none;stroke:#b0b0b0;stroke-dasharray:2.96,1.28;stroke-dashoffset:0;stroke-width:0.8;"/>
     </g>
     <g id="line2d_14">
      <g>
       <use style="stroke:#000000;stroke-width:0.8;" x="350.419465" xlink:href="#ma0d926eb9e" y="288.430125"/>
      </g>
     </g>
     <g id="text_7">
      <!-- 1200 -->
      <g transform="translate(337.694465 303.028562)scale(0.1 -0.1)">
       <use xlink:href="#DejaVuSans-49"/>
       <use x="63.623047" xlink:href="#DejaVuSans-50"/>
       <use x="127.246094" xlink:href="#DejaVuSans-48"/>
       <use x="190.869141" xlink:href="#DejaVuSans-48"/>
      </g>
     </g>
    </g>
    <g id="text_8">
     <!-- Day -->
     <defs>
      <path d="M 19.671875 64.796875 
L 19.671875 8.109375 
L 31.59375 8.109375 
Q 46.6875 8.109375 53.6875 14.9375 
Q 60.6875 21.78125 60.6875 36.53125 
Q 60.6875 51.171875 53.6875 57.984375 
Q 46.6875 64.796875 31.59375 64.796875 
z
M 9.8125 72.90625 
L 30.078125 72.90625 
Q 51.265625 72.90625 61.171875 64.09375 
Q 71.09375 55.28125 71.09375 36.53125 
Q 71.09375 17.671875 61.125 8.828125 
Q 51.171875 0 30.078125 0 
L 9.8125 0 
z
" id="DejaVuSans-68"/>
      <path d="M 34.28125 27.484375 
Q 23.390625 27.484375 19.1875 25 
Q 14.984375 22.515625 14.984375 16.5 
Q 14.984375 11.71875 18.140625 8.90625 
Q 21.296875 6.109375 26.703125 6.109375 
Q 34.1875 6.109375 38.703125 11.40625 
Q 43.21875 16.703125 43.21875 25.484375 
L 43.21875 27.484375 
z
M 52.203125 31.203125 
L 52.203125 0 
L 43.21875 0 
L 43.21875 8.296875 
Q 40.140625 3.328125 35.546875 0.953125 
Q 30.953125 -1.421875 24.3125 -1.421875 
Q 15.921875 -1.421875 10.953125 3.296875 
Q 6 8.015625 6 15.921875 
Q 6 25.140625 12.171875 29.828125 
Q 18.359375 34.515625 30.609375 34.515625 
L 43.21875 34.515625 
L 43.21875 35.40625 
Q 43.21875 41.609375 39.140625 45 
Q 35.0625 48.390625 27.6875 48.390625 
Q 23 48.390625 18.546875 47.265625 
Q 14.109375 46.140625 10.015625 43.890625 
L 10.015625 52.203125 
Q 14.9375 54.109375 19.578125 55.046875 
Q 24.21875 56 28.609375 56 
Q 40.484375 56 46.34375 49.84375 
Q 52.203125 43.703125 52.203125 31.203125 
z
" id="DejaVuSans-97"/>
      <path d="M 32.171875 -5.078125 
Q 28.375 -14.84375 24.75 -17.8125 
Q 21.140625 -20.796875 15.09375 -20.796875 
L 7.90625 -20.796875 
L 7.90625 -13.28125 
L 13.1875 -13.28125 
Q 16.890625 -13.28125 18.9375 -11.515625 
Q 21 -9.765625 23.484375 -3.21875 
L 25.09375 0.875 
L 2.984375 54.6875 
L 12.5 54.6875 
L 29.59375 11.921875 
L 46.6875 54.6875 
L 56.203125 54.6875 
z
" id="DejaVuSans-121"/>
     </defs>
     <g transform="translate(209.289688 316.706687)scale(0.1 -0.1)">
      <use xlink:href="#DejaVuSans-68"/>
      <use x="77.001953" xlink:href="#DejaVuSans-97"/>
      <use x="138.28125" xlink:href="#DejaVuSans-121"/>
     </g>
    </g>
   </g>
   <g id="matplotlib.axis_2">
    <g id="ytick_1">
     <g id="line2d_15">
      <path clip-path="url(#p2460ea59ef)" d="M 40.603125 262.967337 
L 397.723125 262.967337 
" style="fill:none;stroke:#b0b0b0;stroke-dasharray:2.96,1.28;stroke-dashoffset:0;stroke-width:0.8;"/>
     </g>
     <g id="line2d_16">
      <defs>
       <path d="M 0 0 
L -3.5 0 
" id="mce3107acad" style="stroke:#000000;stroke-width:0.8;"/>
      </defs>
      <g>
       <use style="stroke:#000000;stroke-width:0.8;" x="40.603125" xlink:href="#mce3107acad" y="262.967337"/>
      </g>
     </g>
     <g id="text_9">
      <!-- 24 -->
      <g transform="translate(20.878125 266.766556)scale(0.1 -0.1)">
       <use xlink:href="#DejaVuSans-50"/>
       <use x="63.623047" xlink:href="#DejaVuSans-52"/>
      </g>
     </g>
    </g>
    <g id="ytick_2">
     <g id="line2d_17">
      <path clip-path="url(#p2460ea59ef)" d="M 40.603125 228.684626 
L 397.723125 228.684626 
" style="fill:none;stroke:#b0b0b0;stroke-dasharray:2.96,1.28;stroke-dashoffset:0;stroke-width:0.8;"/>
     </g>
     <g id="line2d_18">
      <g>
       <use style="stroke:#000000;stroke-width:0.8;" x="40.603125" xlink:href="#mce3107acad" y="228.684626"/>
      </g>
     </g>
     <g id="text_10">
      <!-- 26 -->
      <g transform="translate(20.878125 232.483845)scale(0.1 -0.1)">
       <use xlink:href="#DejaVuSans-50"/>
       <use x="63.623047" xlink:href="#DejaVuSans-54"/>
      </g>
     </g>
    </g>
    <g id="ytick_3">
     <g id="line2d_19">
      <path clip-path="url(#p2460ea59ef)" d="M 40.603125 194.401916 
L 397.723125 194.401916 
" style="fill:none;stroke:#b0b0b0;stroke-dasharray:2.96,1.28;stroke-dashoffset:0;stroke-width:0.8;"/>
     </g>
     <g id="line2d_20">
      <g>
       <use style="stroke:#000000;stroke-width:0.8;" x="40.603125" xlink:href="#mce3107acad" y="194.401916"/>
      </g>
     </g>
     <g id="text_11">
      <!-- 28 -->
      <g transform="translate(20.878125 198.201135)scale(0.1 -0.1)">
       <use xlink:href="#DejaVuSans-50"/>
       <use x="63.623047" xlink:href="#DejaVuSans-56"/>
      </g>
     </g>
    </g>
    <g id="ytick_4">
     <g id="line2d_21">
      <path clip-path="url(#p2460ea59ef)" d="M 40.603125 160.119205 
L 397.723125 160.119205 
" style="fill:none;stroke:#b0b0b0;stroke-dasharray:2.96,1.28;stroke-dashoffset:0;stroke-width:0.8;"/>
     </g>
     <g id="line2d_22">
      <g>
       <use style="stroke:#000000;stroke-width:0.8;" x="40.603125" xlink:href="#mce3107acad" y="160.119205"/>
      </g>
     </g>
     <g id="text_12">
      <!-- 30 -->
      <defs>
       <path d="M 40.578125 39.3125 
Q 47.65625 37.796875 51.625 33 
Q 55.609375 28.21875 55.609375 21.1875 
Q 55.609375 10.40625 48.1875 4.484375 
Q 40.765625 -1.421875 27.09375 -1.421875 
Q 22.515625 -1.421875 17.65625 -0.515625 
Q 12.796875 0.390625 7.625 2.203125 
L 7.625 11.71875 
Q 11.71875 9.328125 16.59375 8.109375 
Q 21.484375 6.890625 26.8125 6.890625 
Q 36.078125 6.890625 40.9375 10.546875 
Q 45.796875 14.203125 45.796875 21.1875 
Q 45.796875 27.640625 41.28125 31.265625 
Q 36.765625 34.90625 28.71875 34.90625 
L 20.21875 34.90625 
L 20.21875 43.015625 
L 29.109375 43.015625 
Q 36.375 43.015625 40.234375 45.921875 
Q 44.09375 48.828125 44.09375 54.296875 
Q 44.09375 59.90625 40.109375 62.90625 
Q 36.140625 65.921875 28.71875 65.921875 
Q 24.65625 65.921875 20.015625 65.03125 
Q 15.375 64.15625 9.8125 62.3125 
L 9.8125 71.09375 
Q 15.4375 72.65625 20.34375 73.4375 
Q 25.25 74.21875 29.59375 74.21875 
Q 40.828125 74.21875 47.359375 69.109375 
Q 53.90625 64.015625 53.90625 55.328125 
Q 53.90625 49.265625 50.4375 45.09375 
Q 46.96875 40.921875 40.578125 39.3125 
z
" id="DejaVuSans-51"/>
      </defs>
      <g transform="translate(20.878125 163.918424)scale(0.1 -0.1)">
       <use xlink:href="#DejaVuSans-51"/>
       <use x="63.623047" xlink:href="#DejaVuSans-48"/>
      </g>
     </g>
    </g>
    <g id="ytick_5">
     <g id="line2d_23">
      <path clip-path="url(#p2460ea59ef)" d="M 40.603125 125.836495 
L 397.723125 125.836495 
" style="fill:none;stroke:#b0b0b0;stroke-dasharray:2.96,1.28;stroke-dashoffset:0;stroke-width:0.8;"/>
     </g>
     <g id="line2d_24">
      <g>
       <use style="stroke:#000000;stroke-width:0.8;" x="40.603125" xlink:href="#mce3107acad" y="125.836495"/>
      </g>
     </g>
     <g id="text_13">
      <!-- 32 -->
      <g transform="translate(20.878125 129.635714)scale(0.1 -0.1)">
       <use xlink:href="#DejaVuSans-51"/>
       <use x="63.623047" xlink:href="#DejaVuSans-50"/>
      </g>
     </g>
    </g>
    <g id="ytick_6">
     <g id="line2d_25">
      <path clip-path="url(#p2460ea59ef)" d="M 40.603125 91.553785 
L 397.723125 91.553785 
" style="fill:none;stroke:#b0b0b0;stroke-dasharray:2.96,1.28;stroke-dashoffset:0;stroke-width:0.8;"/>
     </g>
     <g id="line2d_26">
      <g>
       <use style="stroke:#000000;stroke-width:0.8;" x="40.603125" xlink:href="#mce3107acad" y="91.553785"/>
      </g>
     </g>
     <g id="text_14">
      <!-- 34 -->
      <g transform="translate(20.878125 95.353003)scale(0.1 -0.1)">
       <use xlink:href="#DejaVuSans-51"/>
       <use x="63.623047" xlink:href="#DejaVuSans-52"/>
      </g>
     </g>
    </g>
    <g id="ytick_7">
     <g id="line2d_27">
      <path clip-path="url(#p2460ea59ef)" d="M 40.603125 57.271074 
L 397.723125 57.271074 
" style="fill:none;stroke:#b0b0b0;stroke-dasharray:2.96,1.28;stroke-dashoffset:0;stroke-width:0.8;"/>
     </g>
     <g id="line2d_28">
      <g>
       <use style="stroke:#000000;stroke-width:0.8;" x="40.603125" xlink:href="#mce3107acad" y="57.271074"/>
      </g>
     </g>
     <g id="text_15">
      <!-- 36 -->
      <g transform="translate(20.878125 61.070293)scale(0.1 -0.1)">
       <use xlink:href="#DejaVuSans-51"/>
       <use x="63.623047" xlink:href="#DejaVuSans-54"/>
      </g>
     </g>
    </g>
    <g id="ytick_8">
     <g id="line2d_29">
      <path clip-path="url(#p2460ea59ef)" d="M 40.603125 22.988364 
L 397.723125 22.988364 
" style="fill:none;stroke:#b0b0b0;stroke-dasharray:2.96,1.28;stroke-dashoffset:0;stroke-width:0.8;"/>
     </g>
     <g id="line2d_30">
      <g>
       <use style="stroke:#000000;stroke-width:0.8;" x="40.603125" xlink:href="#mce3107acad" y="22.988364"/>
      </g>
     </g>
     <g id="text_16">
      <!-- 38 -->
      <g transform="translate(20.878125 26.787583)scale(0.1 -0.1)">
       <use xlink:href="#DejaVuSans-51"/>
       <use x="63.623047" xlink:href="#DejaVuSans-56"/>
      </g>
     </g>
    </g>
    <g id="text_17">
     <!-- Price $ -->
     <defs>
      <path d="M 19.671875 64.796875 
L 19.671875 37.40625 
L 32.078125 37.40625 
Q 38.96875 37.40625 42.71875 40.96875 
Q 46.484375 44.53125 46.484375 51.125 
Q 46.484375 57.671875 42.71875 61.234375 
Q 38.96875 64.796875 32.078125 64.796875 
z
M 9.8125 72.90625 
L 32.078125 72.90625 
Q 44.34375 72.90625 50.609375 67.359375 
Q 56.890625 61.8125 56.890625 51.125 
Q 56.890625 40.328125 50.609375 34.8125 
Q 44.34375 29.296875 32.078125 29.296875 
L 19.671875 29.296875 
L 19.671875 0 
L 9.8125 0 
z
" id="DejaVuSans-80"/>
      <path d="M 41.109375 46.296875 
Q 39.59375 47.171875 37.8125 47.578125 
Q 36.03125 48 33.890625 48 
Q 26.265625 48 22.1875 43.046875 
Q 18.109375 38.09375 18.109375 28.8125 
L 18.109375 0 
L 9.078125 0 
L 9.078125 54.6875 
L 18.109375 54.6875 
L 18.109375 46.1875 
Q 20.953125 51.171875 25.484375 53.578125 
Q 30.03125 56 36.53125 56 
Q 37.453125 56 38.578125 55.875 
Q 39.703125 55.765625 41.0625 55.515625 
z
" id="DejaVuSans-114"/>
      <path d="M 9.421875 54.6875 
L 18.40625 54.6875 
L 18.40625 0 
L 9.421875 0 
z
M 9.421875 75.984375 
L 18.40625 75.984375 
L 18.40625 64.59375 
L 9.421875 64.59375 
z
" id="DejaVuSans-105"/>
      <path d="M 48.78125 52.59375 
L 48.78125 44.1875 
Q 44.96875 46.296875 41.140625 47.34375 
Q 37.3125 48.390625 33.40625 48.390625 
Q 24.65625 48.390625 19.8125 42.84375 
Q 14.984375 37.3125 14.984375 27.296875 
Q 14.984375 17.28125 19.8125 11.734375 
Q 24.65625 6.203125 33.40625 6.203125 
Q 37.3125 6.203125 41.140625 7.25 
Q 44.96875 8.296875 48.78125 10.40625 
L 48.78125 2.09375 
Q 45.015625 0.34375 40.984375 -0.53125 
Q 36.96875 -1.421875 32.421875 -1.421875 
Q 20.0625 -1.421875 12.78125 6.34375 
Q 5.515625 14.109375 5.515625 27.296875 
Q 5.515625 40.671875 12.859375 48.328125 
Q 20.21875 56 33.015625 56 
Q 37.15625 56 41.109375 55.140625 
Q 45.0625 54.296875 48.78125 52.59375 
z
" id="DejaVuSans-99"/>
      <path d="M 56.203125 29.59375 
L 56.203125 25.203125 
L 14.890625 25.203125 
Q 15.484375 15.921875 20.484375 11.0625 
Q 25.484375 6.203125 34.421875 6.203125 
Q 39.59375 6.203125 44.453125 7.46875 
Q 49.3125 8.734375 54.109375 11.28125 
L 54.109375 2.78125 
Q 49.265625 0.734375 44.1875 -0.34375 
Q 39.109375 -1.421875 33.890625 -1.421875 
Q 20.796875 -1.421875 13.15625 6.1875 
Q 5.515625 13.8125 5.515625 26.8125 
Q 5.515625 40.234375 12.765625 48.109375 
Q 20.015625 56 32.328125 56 
Q 43.359375 56 49.78125 48.890625 
Q 56.203125 41.796875 56.203125 29.59375 
z
M 47.21875 32.234375 
Q 47.125 39.59375 43.09375 43.984375 
Q 39.0625 48.390625 32.421875 48.390625 
Q 24.90625 48.390625 20.390625 44.140625 
Q 15.875 39.890625 15.1875 32.171875 
z
" id="DejaVuSans-101"/>
      <path id="DejaVuSans-32"/>
      <path d="M 33.796875 -14.703125 
L 28.90625 -14.703125 
L 28.859375 0 
Q 23.734375 0.09375 18.609375 1.1875 
Q 13.484375 2.296875 8.296875 4.5 
L 8.296875 13.28125 
Q 13.28125 10.15625 18.375 8.5625 
Q 23.484375 6.984375 28.90625 6.9375 
L 28.90625 29.203125 
Q 18.109375 30.953125 13.203125 35.15625 
Q 8.296875 39.359375 8.296875 46.6875 
Q 8.296875 54.640625 13.625 59.21875 
Q 18.953125 63.8125 28.90625 64.5 
L 28.90625 75.984375 
L 33.796875 75.984375 
L 33.796875 64.65625 
Q 38.328125 64.453125 42.578125 63.6875 
Q 46.828125 62.9375 50.875 61.625 
L 50.875 53.078125 
Q 46.828125 55.125 42.546875 56.25 
Q 38.28125 57.375 33.796875 57.5625 
L 33.796875 36.71875 
Q 44.875 35.015625 50.09375 30.609375 
Q 55.328125 26.21875 55.328125 18.609375 
Q 55.328125 10.359375 49.78125 5.59375 
Q 44.234375 0.828125 33.796875 0.09375 
z
M 28.90625 37.59375 
L 28.90625 57.625 
Q 23.25 56.984375 20.265625 54.390625 
Q 17.28125 51.8125 17.28125 47.515625 
Q 17.28125 43.3125 20.03125 40.96875 
Q 22.796875 38.625 28.90625 37.59375 
z
M 33.796875 28.21875 
L 33.796875 7.078125 
Q 39.984375 7.90625 43.140625 10.59375 
Q 46.296875 13.28125 46.296875 17.671875 
Q 46.296875 21.96875 43.28125 24.5 
Q 40.28125 27.046875 33.796875 28.21875 
z
" id="DejaVuSans-36"/>
     </defs>
     <g transform="translate(14.798438 172.342094)rotate(-90)scale(0.1 -0.1)">
      <use xlink:href="#DejaVuSans-80"/>
      <use x="58.552734" xlink:href="#DejaVuSans-114"/>
      <use x="99.666016" xlink:href="#DejaVuSans-105"/>
      <use x="127.449219" xlink:href="#DejaVuSans-99"/>
      <use x="182.429688" xlink:href="#DejaVuSans-101"/>
      <use x="243.953125" xlink:href="#DejaVuSans-32"/>
      <use x="275.740234" xlink:href="#DejaVuSans-36"/>
     </g>
    </g>
   </g>
   <g id="line2d_31">
    <path clip-path="url(#p2460ea59ef)" d="M 56.835852 276.334125 
L 57.080505 262.261877 
L 57.325158 261.292619 
L 57.569811 255.326344 
L 58.059117 259.663431 
L 58.30377 254.428915 
L 58.548423 255.678395 
L 58.793076 265.667872 
L 59.037729 264.530112 
L 59.282382 264.103667 
L 59.527035 263.001715 
L 59.771688 267.094093 
L 60.016341 262.598023 
L 60.260994 261.645488 
L 60.505647 262.082949 
L 60.7503 266.330663 
L 60.994953 264.259276 
L 61.239606 268.28298 
L 61.484259 268.126919 
L 61.728912 267.435129 
L 61.973566 262.619438 
L 62.218219 264.79547 
L 62.462872 265.573035 
L 62.707525 263.635731 
L 62.952178 265.786484 
L 63.196831 265.453146 
L 63.441484 267.035964 
L 63.686137 264.310459 
L 63.93079 256.834782 
L 64.420096 261.204164 
L 64.664749 259.966749 
L 64.909402 261.762351 
L 65.154055 258.485762 
L 65.398708 266.522907 
L 65.643361 262.544424 
L 65.888014 262.694265 
L 66.132667 260.070337 
L 66.37732 255.576901 
L 66.621973 253.70203 
L 66.866626 249.67647 
L 67.111279 248.248029 
L 67.355932 248.501511 
L 67.600585 246.230377 
L 67.845238 248.207381 
L 68.089891 244.850894 
L 68.334544 243.504048 
L 68.579197 239.940321 
L 68.82385 239.471105 
L 69.068503 236.506142 
L 69.802462 242.945085 
L 70.047115 243.663208 
L 70.291768 243.617166 
L 70.536421 235.608296 
L 70.781074 231.611229 
L 71.025727 230.966528 
L 71.27038 227.469279 
L 72.004339 242.528748 
L 72.248992 240.432677 
L 72.493645 235.076674 
L 72.738298 238.272572 
L 73.227604 253.838592 
L 73.472257 253.749263 
L 73.71691 253.041513 
L 73.961563 250.67126 
L 74.206216 260.187652 
L 74.450869 260.296374 
L 74.695522 260.046558 
L 75.184828 262.096239 
L 75.674134 268.962465 
L 76.408093 257.769758 
L 76.652746 256.60572 
L 76.897399 253.499011 
L 77.142052 254.454396 
L 77.386705 258.640925 
L 77.631358 251.166774 
L 78.120664 245.082638 
L 78.60997 242.798918 
L 78.854623 234.360726 
L 79.343929 235.856499 
L 79.588582 238.591646 
L 79.833235 234.5849 
L 80.322541 240.122677 
L 80.567194 242.722012 
L 80.811847 239.462996 
L 81.0565 234.449627 
L 81.301153 239.66801 
L 81.545806 238.198258 
L 81.790459 244.445966 
L 82.035112 244.390058 
L 82.279765 241.492674 
L 82.524418 243.176491 
L 82.769071 247.648887 
L 83.013724 244.183652 
L 83.258377 229.551722 
L 83.50303 230.710159 
L 83.747683 228.890598 
L 83.992336 228.630574 
L 84.236989 228.069351 
L 84.726296 215.136381 
L 84.970949 219.490781 
L 85.215602 215.676634 
L 85.460255 217.753568 
L 85.704908 217.916856 
L 85.949561 214.092972 
L 86.194214 219.156927 
L 86.438867 216.671136 
L 86.68352 217.202416 
L 87.172826 211.180122 
L 87.417479 214.069476 
L 87.662132 198.995696 
L 88.151438 206.517749 
L 88.396091 200.427531 
L 88.640744 208.49344 
L 88.885397 202.506214 
L 89.13005 205.828177 
L 89.374703 212.157815 
L 89.619356 213.477677 
L 89.864009 208.856041 
L 90.108662 211.490818 
L 90.353315 211.300464 
L 90.597968 210.200397 
L 90.842621 206.215158 
L 91.087274 198.888715 
L 91.57658 204.236136 
L 91.821233 204.751704 
L 92.065886 214.27928 
L 92.310539 210.852542 
L 92.555192 204.145547 
L 92.799845 204.930873 
L 93.044498 204.536735 
L 93.533804 192.740266 
L 93.778457 191.945618 
L 94.02311 189.418886 
L 94.267763 190.866923 
L 94.512416 189.82705 
L 94.757069 195.269556 
L 95.246375 192.196305 
L 95.491028 193.727604 
L 95.735681 193.402843 
L 95.980334 194.332023 
L 96.224987 189.128504 
L 96.46964 192.290416 
L 96.714293 187.55745 
L 96.958946 191.456131 
L 97.203599 183.785396 
L 97.448252 183.096846 
L 97.692905 179.31069 
L 97.937558 179.669401 
L 98.182211 172.969337 
L 98.426864 176.525436 
L 98.671517 174.333676 
L 98.91617 175.318719 
L 99.160823 174.179327 
L 99.405476 175.112383 
L 99.894782 148.828959 
L 100.139435 148.444059 
L 100.384088 152.383287 
L 100.628741 143.852085 
L 100.873394 145.003922 
L 101.118047 149.875619 
L 101.3627 141.719265 
L 101.607353 143.992577 
L 101.852006 141.382567 
L 102.341312 155.556463 
L 102.585965 158.191343 
L 102.830618 152.420357 
L 103.075271 176.0494 
L 103.319924 179.018177 
L 103.564577 172.426035 
L 104.053883 181.948838 
L 104.298536 176.525414 
L 104.543189 181.708558 
L 104.787842 183.897928 
L 105.032495 181.766439 
L 105.277148 170.450492 
L 105.521801 170.043651 
L 105.766454 167.319552 
L 106.500413 182.271643 
L 106.745066 180.716067 
L 106.98972 171.972785 
L 107.234373 175.176431 
L 107.723679 176.915191 
L 107.968332 189.569043 
L 108.212985 189.961438 
L 108.457638 207.801909 
L 108.702291 198.417075 
L 108.946944 199.964014 
L 109.191597 203.145608 
L 109.43625 192.036604 
L 109.925556 187.744675 
L 110.170209 186.861397 
L 110.414862 186.859869 
L 110.659515 175.490016 
L 110.904168 175.429176 
L 111.148821 174.269879 
L 111.393474 170.090915 
L 111.638127 175.456782 
L 111.88278 183.434222 
L 112.127433 186.584172 
L 112.372086 199.516666 
L 112.616739 194.434395 
L 113.106045 191.175648 
L 113.840004 199.439456 
L 114.084657 200.148552 
L 114.32931 194.584557 
L 115.063269 186.539273 
L 115.307922 180.879618 
L 115.552575 180.141145 
L 115.797228 180.51335 
L 116.041881 182.500607 
L 116.286534 182.537086 
L 116.531187 185.837247 
L 116.77584 175.339865 
L 117.020493 170.857446 
L 117.265146 169.727143 
L 117.754452 173.674336 
L 118.243758 167.727978 
L 118.488411 165.720601 
L 118.733064 173.324481 
L 118.977717 175.318297 
L 119.22237 170.658344 
L 119.467023 173.772171 
L 119.711676 171.151636 
L 119.956329 172.559638 
L 120.200982 174.796319 
L 120.445635 173.362591 
L 120.690288 173.683333 
L 120.934941 172.326965 
L 121.424247 180.529926 
L 121.6689 187.923246 
L 122.158206 185.029297 
L 122.402859 190.080626 
L 122.647512 191.415724 
L 122.892165 188.196011 
L 123.136818 193.818367 
L 123.381471 194.127961 
L 123.626124 190.450793 
L 123.870777 192.431818 
L 124.11543 190.484028 
L 124.360083 194.013348 
L 124.604736 187.7225 
L 124.849389 189.49353 
L 125.094042 189.328004 
L 125.338695 188.928285 
L 125.583348 186.322416 
L 125.828001 182.525771 
L 126.072654 188.887313 
L 126.56196 181.926194 
L 126.806613 183.162036 
L 127.051266 176.240645 
L 127.295919 179.750472 
L 127.540572 177.518861 
L 127.785225 180.457332 
L 128.029878 181.99906 
L 128.274531 185.839856 
L 128.519184 185.246084 
L 128.763837 178.929566 
L 129.00849 181.536257 
L 129.497797 176.651616 
L 129.74245 180.914202 
L 129.987103 176.896359 
L 130.476409 190.195437 
L 130.721062 189.21978 
L 130.965715 180.818343 
L 131.210368 181.780961 
L 131.455021 170.813169 
L 131.699674 174.203609 
L 132.18898 155.288135 
L 132.433633 151.129377 
L 132.678286 153.134105 
L 132.922939 148.337249 
L 133.167592 149.74559 
L 133.656898 149.477239 
L 133.901551 147.183185 
L 134.146204 138.443999 
L 134.63551 148.357776 
L 134.880163 139.856922 
L 135.124816 138.348315 
L 135.369469 138.677399 
L 135.614122 143.361883 
L 135.858775 144.408282 
L 136.103428 137.251357 
L 136.348081 138.649412 
L 136.592734 136.283743 
L 136.837387 127.847742 
L 137.08204 125.73349 
L 137.326693 122.261308 
L 137.571346 125.5418 
L 137.815999 131.549266 
L 138.060652 127.047608 
L 138.305305 126.181989 
L 138.549958 123.563631 
L 138.794611 123.320952 
L 139.039264 127.611387 
L 139.283917 127.720352 
L 139.52857 130.265622 
L 139.773223 128.467739 
L 140.017876 138.939786 
L 140.262529 137.970939 
L 140.507182 138.287676 
L 140.751835 133.327701 
L 140.996488 132.673538 
L 141.241141 136.779485 
L 141.730447 155.507038 
L 141.9751 155.370252 
L 142.219753 155.395349 
L 142.464406 157.23234 
L 142.709059 146.323467 
L 142.953712 147.51859 
L 143.198365 155.577676 
L 143.443018 153.745023 
L 143.687671 154.734016 
L 143.932324 150.198679 
L 144.42163 147.793362 
L 144.666283 148.860282 
L 144.910936 151.759614 
L 145.155589 150.765461 
L 145.400242 150.322705 
L 145.889548 143.398876 
L 146.134201 143.753075 
L 146.623507 150.539322 
L 146.86816 142.54627 
L 147.112813 139.490777 
L 147.357466 139.746551 
L 147.602119 141.118884 
L 147.846772 138.708682 
L 148.091425 138.004715 
L 148.336078 142.469099 
L 148.580731 158.382627 
L 148.825384 165.707267 
L 149.070037 152.583739 
L 149.31469 157.913446 
L 149.559343 145.637143 
L 149.803996 152.91408 
L 150.048649 149.801125 
L 150.293302 135.393426 
L 150.537955 148.960162 
L 150.782608 145.538096 
L 151.516567 127.665736 
L 151.76122 132.405532 
L 152.005874 130.799364 
L 152.250527 126.664365 
L 152.49518 127.70867 
L 152.739833 134.589426 
L 152.984486 133.272263 
L 153.229139 134.839534 
L 153.473792 125.737753 
L 153.718445 127.428604 
L 153.963098 125.70415 
L 154.207751 121.591217 
L 154.697057 125.863467 
L 154.94171 113.798779 
L 155.186363 112.851661 
L 155.431016 117.877265 
L 155.920322 118.921792 
L 156.164975 118.377135 
L 156.409628 125.943 
L 156.654281 140.663506 
L 156.898934 138.583981 
L 157.143587 135.315961 
L 157.38824 126.624819 
L 157.632893 130.499356 
L 158.122199 122.539862 
L 158.366852 134.365177 
L 158.856158 122.523217 
L 159.100811 123.936492 
L 159.345464 127.772349 
L 159.590117 123.543008 
L 159.83477 126.433278 
L 160.079423 120.552613 
L 160.324076 118.689712 
L 160.568729 122.894353 
L 160.813382 139.215637 
L 161.058035 144.810883 
L 161.302688 138.441047 
L 161.791994 162.138435 
L 162.2813 161.427688 
L 162.770606 155.286596 
L 163.015259 144.849548 
L 163.259912 142.581672 
L 163.504565 144.000624 
L 163.749218 147.514453 
L 163.993871 146.787514 
L 164.238524 124.852811 
L 164.483177 129.715786 
L 164.72783 138.042227 
L 164.972483 140.17968 
L 165.217136 146.917623 
L 165.706442 169.469596 
L 165.951095 176.44861 
L 166.195748 173.79015 
L 166.440401 176.154479 
L 166.929707 173.31076 
L 167.17436 175.038519 
L 167.419013 175.715767 
L 167.663666 174.769536 
L 167.908319 172.096668 
L 168.152972 172.620455 
L 168.397625 167.088961 
L 168.642278 165.544212 
L 168.886931 168.451179 
L 169.131584 166.454577 
L 169.376237 166.439243 
L 169.62089 166.58217 
L 169.865543 166.028035 
L 170.110196 164.628034 
L 170.354849 166.735098 
L 170.599502 165.845365 
L 170.844155 163.735902 
L 171.088808 169.717372 
L 171.333461 170.855603 
L 171.578114 168.20935 
L 171.822767 169.457072 
L 172.06742 169.131508 
L 172.556726 166.357479 
L 172.801379 168.647074 
L 173.046032 164.630701 
L 173.290685 166.754211 
L 173.535338 163.51902 
L 173.779991 169.28724 
L 174.024644 171.849419 
L 174.269298 163.099754 
L 174.513951 166.792457 
L 174.758604 165.408134 
L 175.003257 165.28079 
L 175.492563 153.401561 
L 175.737216 150.725542 
L 175.981869 151.464567 
L 176.226522 157.354525 
L 176.471175 159.016141 
L 176.715828 159.759268 
L 176.960481 158.540655 
L 177.449787 152.805144 
L 177.69444 143.335022 
L 177.939093 150.633527 
L 178.183746 147.396791 
L 178.428399 153.941807 
L 178.673052 151.520201 
L 178.917705 153.249546 
L 179.162358 154.092196 
L 179.651664 158.052984 
L 180.14097 172.567501 
L 180.385623 182.264514 
L 180.630276 179.363991 
L 180.874929 181.200596 
L 181.119582 187.054598 
L 181.364235 189.203255 
L 181.608888 193.393118 
L 181.853541 188.067706 
L 182.098194 189.731673 
L 182.342847 192.704037 
L 182.5875 190.456618 
L 182.832153 181.355461 
L 183.076806 183.001689 
L 183.321459 179.573772 
L 183.566112 177.856446 
L 184.055418 179.990605 
L 184.300071 178.246606 
L 184.544724 178.460041 
L 185.03403 168.45872 
L 185.278683 170.446501 
L 185.523336 170.250075 
L 185.767989 172.476747 
L 186.012642 170.047001 
L 186.257295 170.590351 
L 186.501948 165.686976 
L 186.991254 173.012042 
L 187.48056 166.05103 
L 187.725213 169.567743 
L 187.969866 161.071143 
L 188.214519 158.893758 
L 188.703825 149.928144 
L 189.437784 158.99433 
L 189.682437 154.529895 
L 190.171743 164.732039 
L 190.416396 163.788418 
L 190.661049 167.312407 
L 190.905702 174.49434 
L 191.150355 175.987599 
L 191.395008 173.165116 
L 191.639661 174.062038 
L 191.884314 180.665993 
L 192.128967 170.302539 
L 192.37362 177.204508 
L 192.618273 174.825321 
L 192.862926 186.362983 
L 193.107579 186.433954 
L 193.352232 190.864451 
L 193.596885 199.326425 
L 194.086191 195.171911 
L 194.330844 189.16699 
L 194.575497 188.858895 
L 194.82015 183.791311 
L 195.064803 174.988167 
L 195.309456 176.447373 
L 195.554109 175.439481 
L 196.043415 162.497624 
L 196.288068 160.711226 
L 196.532721 156.542129 
L 196.777375 154.972258 
L 197.022028 159.225296 
L 197.266681 159.231896 
L 197.511334 161.273112 
L 197.755987 156.39139 
L 198.245293 152.651174 
L 198.489946 152.697122 
L 198.734599 154.094196 
L 198.979252 154.345631 
L 199.223905 149.721034 
L 199.468558 152.317832 
L 199.957864 152.200721 
L 200.202517 156.218173 
L 200.44717 151.873937 
L 200.691823 141.025679 
L 200.936476 140.357957 
L 201.181129 138.432492 
L 201.670435 129.956506 
L 201.915088 131.327548 
L 202.159741 125.86703 
L 202.649047 126.477023 
L 202.8937 128.085418 
L 203.138353 131.997812 
L 203.383006 143.793579 
L 203.627659 145.176654 
L 203.872312 148.545899 
L 204.116965 140.681776 
L 204.361618 126.156292 
L 204.606271 126.743767 
L 204.850924 124.158577 
L 205.095577 135.207079 
L 205.34023 135.690629 
L 205.584883 131.692637 
L 205.829536 136.140843 
L 206.074189 136.238415 
L 206.318842 140.251522 
L 206.563495 137.173728 
L 206.808148 140.009174 
L 207.052801 135.581796 
L 207.297454 128.178927 
L 207.542107 117.173246 
L 208.031413 112.574241 
L 208.276066 118.292713 
L 208.520719 117.464913 
L 208.765372 118.812225 
L 209.254678 106.736452 
L 209.499331 114.798275 
L 209.743984 111.683571 
L 209.988637 117.920004 
L 210.23329 111.835741 
L 210.477943 115.412948 
L 210.722596 126.620602 
L 210.967249 128.445427 
L 211.211902 138.368323 
L 211.701208 125.095295 
L 211.945861 124.342785 
L 212.190514 108.851697 
L 212.435167 105.853377 
L 212.67982 107.570513 
L 212.924473 89.197472 
L 213.169126 87.532432 
L 213.413779 76.952994 
L 213.658432 80.801689 
L 213.903085 81.695834 
L 214.392391 84.243384 
L 214.637044 81.622012 
L 214.881697 84.476849 
L 215.12635 85.285871 
L 215.371003 79.8822 
L 215.615656 81.140067 
L 215.860309 85.773389 
L 216.104962 78.063937 
L 216.349615 81.712492 
L 216.594268 80.307175 
L 216.838921 83.235287 
L 217.083574 91.66496 
L 217.328227 90.544984 
L 217.817533 97.422596 
L 218.062186 91.103781 
L 218.306839 91.065542 
L 218.551492 83.671073 
L 218.796145 88.235357 
L 219.040798 84.626937 
L 219.285452 88.555024 
L 219.530105 86.835033 
L 219.774758 73.421915 
L 220.019411 82.403873 
L 220.508717 88.308432 
L 220.998023 74.078081 
L 221.242676 77.676915 
L 221.487329 85.411448 
L 221.731982 84.492013 
L 222.465941 80.095374 
L 222.955247 66.546068 
L 223.1999 72.538924 
L 223.444553 73.489009 
L 223.689206 70.433617 
L 223.933859 70.667284 
L 224.178512 73.084463 
L 224.423165 73.612317 
L 224.667818 75.698928 
L 224.912471 74.957851 
L 225.157124 67.65895 
L 225.401777 69.201495 
L 225.64643 80.802219 
L 225.891083 82.571761 
L 226.135736 85.683355 
L 226.380389 91.779007 
L 226.625042 89.253565 
L 226.869695 85.28077 
L 227.114348 88.753814 
L 227.359001 99.909975 
L 227.603654 97.830294 
L 227.848307 90.442641 
L 228.09296 91.562778 
L 228.582266 98.789826 
L 228.826919 91.794676 
L 229.071572 90.968165 
L 229.316225 91.128617 
L 229.560878 87.229606 
L 230.050184 84.700692 
L 230.294837 86.038816 
L 230.53949 88.865456 
L 231.273449 78.055779 
L 231.518102 81.323902 
L 232.007408 83.77301 
L 232.496714 89.121056 
L 232.741367 90.975662 
L 232.98602 90.468847 
L 233.230673 85.436511 
L 233.475326 82.956634 
L 233.964632 90.023868 
L 234.209285 89.989311 
L 234.453938 91.047008 
L 234.698591 84.488297 
L 234.943244 87.788206 
L 235.187897 85.592461 
L 235.43255 82.345845 
L 235.921856 90.432339 
L 236.166509 92.128236 
L 236.411162 97.730483 
L 236.655815 98.689106 
L 236.900468 95.969815 
L 237.145121 101.673245 
L 237.389774 103.622294 
L 237.634427 95.406178 
L 237.87908 100.221787 
L 238.857692 72.737243 
L 239.102345 74.394654 
L 239.346998 72.295867 
L 239.591651 72.666922 
L 239.836304 69.765518 
L 240.080957 71.396348 
L 240.32561 75.768345 
L 240.570263 77.409603 
L 240.814916 86.199287 
L 241.059569 84.743983 
L 241.304222 67.830371 
L 241.548875 61.195832 
L 241.793529 61.726138 
L 242.038182 56.237031 
L 242.282835 54.60737 
L 242.527488 55.148116 
L 242.772141 59.974004 
L 243.016794 70.907116 
L 243.261447 70.383415 
L 243.5061 67.514869 
L 243.750753 71.553043 
L 243.995406 67.328349 
L 244.240059 67.597504 
L 244.484712 68.316072 
L 244.729365 65.250811 
L 244.974018 64.945143 
L 245.218671 69.142686 
L 245.707977 98.441059 
L 246.197283 135.952728 
L 246.686589 103.551245 
L 247.420548 136.089061 
L 247.665201 125.50249 
L 247.909854 127.036471 
L 248.154507 135.85371 
L 248.39916 116.039919 
L 248.643813 126.090193 
L 248.888466 114.695673 
L 249.133119 108.673139 
L 249.377772 113.163767 
L 249.622425 105.309548 
L 249.867078 105.052114 
L 250.111731 100.060178 
L 250.601037 118.116152 
L 250.84569 120.564604 
L 251.090343 114.425963 
L 251.334996 113.067274 
L 251.824302 145.48245 
L 252.068955 141.910897 
L 252.558261 127.856246 
L 252.802914 106.802473 
L 253.047567 100.388659 
L 253.29222 112.294867 
L 253.536873 103.643537 
L 253.781526 106.957386 
L 254.026179 104.446525 
L 254.270832 104.735531 
L 254.515485 108.897565 
L 254.760138 107.879844 
L 255.004791 90.076867 
L 255.249444 84.565144 
L 255.494097 83.026936 
L 255.983403 100.735039 
L 256.228056 102.779368 
L 256.472709 90.56739 
L 256.717362 88.770806 
L 257.206668 67.306226 
L 257.695974 94.745623 
L 257.940627 73.547529 
L 258.18528 74.974546 
L 258.429933 89.085934 
L 258.674586 88.733531 
L 259.163892 97.042841 
L 259.408545 94.719144 
L 259.653198 95.696905 
L 259.897851 101.613067 
L 260.387157 105.438273 
L 260.63181 110.453844 
L 260.876463 102.897228 
L 261.121116 120.264926 
L 261.365769 122.10186 
L 261.610422 136.447466 
L 262.099728 110.335702 
L 262.344381 111.838495 
L 262.589034 112.174872 
L 262.833687 97.722305 
L 263.322993 118.776859 
L 263.567646 111.594201 
L 264.056952 116.095131 
L 264.301606 120.191661 
L 264.546259 119.031928 
L 264.790912 124.08557 
L 265.280218 120.797142 
L 265.524871 115.281456 
L 266.014177 125.482509 
L 266.25883 117.349657 
L 266.992789 114.691128 
L 267.237442 118.100355 
L 267.482095 111.081226 
L 267.726748 112.453301 
L 268.216054 125.914759 
L 268.460707 121.985204 
L 268.70536 131.736991 
L 268.950013 135.351355 
L 269.194666 142.293707 
L 269.439319 140.98684 
L 269.683972 142.312719 
L 269.928625 153.286864 
L 270.173278 140.499328 
L 270.417931 145.512793 
L 270.662584 147.718654 
L 270.907237 148.211437 
L 271.15189 149.645687 
L 271.396543 147.536614 
L 271.641196 151.139975 
L 271.885849 148.104932 
L 272.130502 150.756772 
L 272.375155 156.217605 
L 272.619808 151.123055 
L 272.864461 156.655027 
L 273.109114 157.128706 
L 273.59842 176.862743 
L 273.843073 176.318039 
L 274.087726 184.390724 
L 274.577032 168.375155 
L 274.821685 174.596 
L 275.066338 170.580236 
L 275.310991 162.856322 
L 275.555644 166.152364 
L 276.04495 168.565249 
L 276.289603 158.867794 
L 276.534256 160.564056 
L 276.778909 159.418721 
L 277.023562 149.621896 
L 277.268215 156.017559 
L 277.512868 165.676692 
L 277.757521 159.151449 
L 278.246827 161.691391 
L 278.49148 164.817103 
L 278.736133 163.347466 
L 278.980786 170.876709 
L 279.225439 164.281499 
L 279.470092 166.953197 
L 279.714745 151.211441 
L 280.204051 167.868587 
L 280.448704 176.485835 
L 280.693357 171.17056 
L 280.93801 169.276737 
L 281.182663 158.558569 
L 281.427316 153.316984 
L 281.671969 156.753339 
L 281.916622 158.61594 
L 282.161275 163.826865 
L 282.405928 159.070781 
L 282.650581 158.72256 
L 282.895234 166.189532 
L 283.139887 159.153414 
L 283.629193 136.635999 
L 283.873846 109.894362 
L 284.363152 117.482854 
L 284.607805 127.907427 
L 284.852458 126.528085 
L 285.097111 116.507926 
L 285.341764 114.637478 
L 285.586417 117.230618 
L 285.83107 115.338135 
L 286.320376 104.819581 
L 286.56503 104.660443 
L 286.809683 104.126412 
L 287.054336 105.048246 
L 287.298989 107.763792 
L 287.543642 108.573548 
L 287.788295 110.080456 
L 288.032948 113.430141 
L 288.277601 111.874635 
L 288.522254 96.7226 
L 288.766907 101.935211 
L 289.01156 98.964653 
L 289.256213 98.662041 
L 289.500866 94.577452 
L 289.745519 94.855557 
L 289.990172 105.72408 
L 290.234825 105.081575 
L 290.479478 105.10903 
L 290.724131 101.781712 
L 290.968784 107.799908 
L 291.213437 105.417528 
L 291.45809 101.802587 
L 291.702743 95.7698 
L 291.947396 97.018215 
L 292.436702 85.423491 
L 292.681355 84.078063 
L 292.926008 80.97248 
L 293.170661 79.351837 
L 293.415314 78.488781 
L 293.659967 76.375926 
L 293.90462 79.367706 
L 294.149273 75.260659 
L 294.393926 76.77587 
L 294.638579 69.808316 
L 294.883232 68.831757 
L 295.127885 69.121109 
L 295.372538 78.398386 
L 295.617191 74.052332 
L 295.861844 77.496452 
L 296.106497 78.077913 
L 296.35115 87.130166 
L 296.840456 78.202161 
L 297.085109 83.041705 
L 297.329762 80.958245 
L 297.574415 91.42149 
L 297.819068 94.196965 
L 298.308374 73.882642 
L 298.553027 70.568522 
L 299.042333 60.431193 
L 299.286986 59.473583 
L 299.531639 60.926822 
L 299.776292 54.957737 
L 300.020945 54.435666 
L 300.510251 51.598262 
L 300.754904 41.30027 
L 301.24421 45.999405 
L 301.488863 45.904326 
L 302.712128 42.461304 
L 302.956781 42.105029 
L 303.201434 45.126862 
L 303.446087 41.414373 
L 303.69074 34.414125 
L 304.180046 68.187554 
L 304.424699 70.528897 
L 304.669352 65.667314 
L 304.914005 74.347352 
L 305.158658 71.924622 
L 305.403311 71.132223 
L 305.647964 70.894889 
L 305.892617 73.761541 
L 306.13727 71.592223 
L 306.381923 77.030715 
L 306.626576 71.07196 
L 306.871229 70.282678 
L 307.360535 76.206544 
L 307.605188 71.964371 
L 307.849841 76.59155 
L 308.094494 77.414247 
L 308.339147 76.533996 
L 308.5838 71.601018 
L 308.828453 75.529248 
L 309.073107 76.818874 
L 309.31776 78.857949 
L 309.562413 77.306106 
L 309.807066 77.365401 
L 310.051719 76.152881 
L 310.296372 78.17016 
L 310.541025 88.691524 
L 310.785678 79.311092 
L 311.030331 89.709454 
L 311.274984 91.4748 
L 311.519637 88.052675 
L 312.008943 96.51234 
L 312.253596 93.790096 
L 312.498249 85.855238 
L 312.742902 88.188052 
L 312.987555 86.311224 
L 313.232208 96.789686 
L 313.721514 90.782203 
L 313.966167 102.317223 
L 314.21082 92.930662 
L 314.455473 96.117403 
L 314.700126 95.490569 
L 314.944779 92.455149 
L 315.189432 96.691333 
L 315.434085 98.297393 
L 315.678738 97.451969 
L 315.923391 105.588971 
L 316.168044 106.550627 
L 316.412697 111.74367 
L 316.65735 113.497021 
L 316.902003 116.236123 
L 317.146656 113.055392 
L 317.635962 115.682173 
L 317.880615 121.82069 
L 318.125268 122.659454 
L 318.614574 118.071633 
L 318.859227 116.819421 
L 319.10388 126.284933 
L 319.348533 129.969662 
L 320.082492 161.077412 
L 320.327145 159.117119 
L 320.571798 152.538676 
L 320.816451 159.1988 
L 321.305757 100.390875 
L 321.55041 115.780424 
L 322.773675 134.238074 
L 323.018328 132.59843 
L 323.262981 136.793506 
L 323.507634 135.071575 
L 323.752287 130.548161 
L 323.99694 133.228872 
L 324.486246 123.038255 
L 324.730899 134.829174 
L 324.975552 131.771692 
L 325.464858 132.912956 
L 325.954164 143.37207 
L 326.44347 118.618494 
L 326.688123 111.430314 
L 326.932776 111.75557 
L 327.177429 112.880557 
L 327.422082 111.241223 
L 327.666735 111.368504 
L 327.911388 110.931131 
L 328.156041 118.665593 
L 328.400694 119.552754 
L 328.645347 117.160937 
L 328.89 116.363007 
L 329.134653 119.486567 
L 329.379306 117.066784 
L 329.623959 117.208165 
L 330.113265 103.474065 
L 330.357918 98.054746 
L 330.602571 100.312681 
L 330.847224 100.458298 
L 331.091877 100.924675 
L 331.33653 111.286985 
L 331.581184 115.001458 
L 331.825837 116.372072 
L 332.07049 124.192963 
L 332.315143 124.730185 
L 332.559796 130.399646 
L 332.804449 129.249698 
L 333.293755 139.813515 
L 333.538408 137.410281 
L 333.783061 137.599895 
L 334.027714 135.206951 
L 334.272367 137.089371 
L 334.51702 129.86325 
L 334.761673 130.88226 
L 335.006326 129.840817 
L 335.250979 123.80933 
L 335.495632 121.43375 
L 335.740285 124.047426 
L 335.984938 122.993576 
L 336.229591 118.903007 
L 336.474244 119.385225 
L 336.96355 112.507523 
L 337.208203 99.604135 
L 337.452856 97.853122 
L 337.942162 97.858528 
L 338.186815 98.27934 
L 338.431468 90.271727 
L 338.676121 86.910231 
L 338.920774 86.596531 
L 339.165427 89.236799 
L 339.41008 84.126264 
L 339.654733 82.653099 
L 339.899386 82.435498 
L 340.144039 85.229592 
L 340.388692 91.258056 
L 340.633345 92.58655 
L 340.877998 90.198488 
L 341.122651 89.259649 
L 341.367304 89.236579 
L 341.611957 87.390429 
L 341.85661 80.472271 
L 342.345916 85.756003 
L 342.590569 84.68668 
L 342.835222 86.896124 
L 343.079875 83.065262 
L 343.324528 86.146091 
L 343.569181 91.019296 
L 343.813834 87.882968 
L 344.058487 88.219069 
L 344.30314 85.362407 
L 344.547793 85.016942 
L 344.792446 87.391837 
L 345.037099 86.843411 
L 345.281752 85.132962 
L 345.526405 87.720624 
L 345.771058 89.046516 
L 346.015711 89.172488 
L 346.260364 90.169045 
L 346.505017 91.987982 
L 346.74967 92.122714 
L 346.994323 92.828816 
L 347.238976 90.787497 
L 347.483629 93.469379 
L 347.728282 97.424169 
L 347.972935 95.193036 
L 348.217588 96.87975 
L 348.462241 95.281086 
L 348.706894 94.96511 
L 348.951547 93.461379 
L 349.1962 93.273976 
L 349.440853 92.196718 
L 350.174812 99.726355 
L 350.419465 100.092362 
L 350.664118 99.561213 
L 350.908771 100.14014 
L 351.153424 101.381457 
L 351.398077 107.254235 
L 351.64273 107.066003 
L 351.887383 107.576194 
L 352.132036 105.712656 
L 352.621342 120.900034 
L 352.865995 121.049809 
L 353.110648 116.94797 
L 353.355301 122.880529 
L 353.599954 122.536149 
L 353.844607 124.09857 
L 354.089261 122.193547 
L 354.578567 122.776781 
L 354.82322 113.928392 
L 355.067873 112.976107 
L 355.557179 119.135836 
L 355.801832 123.894919 
L 356.046485 125.029072 
L 356.291138 129.320039 
L 356.535791 111.862261 
L 357.025097 115.363299 
L 357.759056 108.718496 
L 358.248362 98.701188 
L 358.737668 90.3669 
L 358.982321 88.396704 
L 359.226974 90.547619 
L 359.471627 95.099743 
L 359.71628 95.372804 
L 359.960933 97.3525 
L 360.205586 98.040329 
L 360.450239 94.127125 
L 360.694892 97.248494 
L 360.939545 104.412838 
L 361.184198 102.094204 
L 361.428851 101.110847 
L 361.673504 105.2403 
L 362.16281 103.355136 
L 362.407463 100.832165 
L 362.652116 103.908281 
L 362.896769 101.969381 
L 363.141422 97.567756 
L 363.630728 99.940707 
L 364.120034 106.375374 
L 364.364687 109.891596 
L 364.853993 105.381238 
L 365.098646 105.329938 
L 365.343299 106.675201 
L 365.587952 109.333331 
L 365.832605 100.767863 
L 366.077258 97.3348 
L 366.321911 102.920772 
L 366.566564 103.370599 
L 366.811217 100.385928 
L 367.05587 100.888732 
L 367.300523 103.824072 
L 367.789829 101.571127 
L 368.034482 101.908716 
L 368.523788 113.644616 
L 368.768441 112.002824 
L 369.013094 105.395221 
L 369.257747 103.964171 
L 369.5024 104.1961 
L 369.747053 101.513035 
L 369.991706 100.158617 
L 370.236359 99.575297 
L 370.481012 100.375266 
L 370.725665 92.415581 
L 370.970318 91.792961 
L 371.214971 94.543523 
L 371.459624 91.272625 
L 371.704277 91.221121 
L 371.94893 89.322844 
L 372.193583 85.559707 
L 372.438236 67.953387 
L 372.682889 73.269894 
L 372.927542 61.886252 
L 373.172195 68.111404 
L 373.416848 64.750542 
L 373.661501 66.401189 
L 373.906154 57.343598 
L 374.150807 57.645684 
L 374.39546 57.730317 
L 374.640113 65.288994 
L 374.884766 68.746526 
L 375.618725 61.903707 
L 375.863378 55.702206 
L 376.108031 54.556652 
L 376.352684 57.639169 
L 376.841991 55.992737 
L 377.086644 54.41753 
L 377.331297 50.052543 
L 377.57595 49.175983 
L 377.820603 50.870378 
L 378.065256 50.975412 
L 378.309909 57.017871 
L 378.554562 53.212637 
L 378.799215 59.485556 
L 379.043868 52.55843 
L 379.288521 49.511226 
L 379.533174 49.950733 
L 380.02248 53.858586 
L 380.267133 60.920902 
L 380.511786 63.176335 
L 380.756439 70.738057 
L 381.001092 72.178427 
L 381.490398 65.687897 
L 381.490398 65.687897 
" style="fill:none;stroke:#1f77b4;stroke-linecap:square;stroke-width:1.5;"/>
   </g>
   <g id="line2d_32">
    <path clip-path="url(#p2460ea59ef)" d="M 56.835852 266.052781 
L 57.080505 267.93833 
L 57.325158 262.281683 
L 57.569811 263.995818 
L 57.814464 264.338645 
L 58.059117 258.167757 
L 58.30377 258.510584 
L 58.548423 267.424089 
L 58.793076 265.881367 
L 59.037729 265.195713 
L 59.282382 263.995818 
L 59.527035 267.766916 
L 59.771688 263.310164 
L 60.016341 262.281683 
L 60.260994 262.62451 
L 60.505647 266.567021 
L 60.7503 264.510059 
L 60.994953 268.281157 
L 61.239606 268.109743 
L 61.484259 267.424089 
L 61.728912 262.795923 
L 61.973566 264.852886 
L 62.218219 265.53854 
L 62.462872 263.652991 
L 62.707525 265.709954 
L 62.952178 265.367127 
L 63.196831 266.909848 
L 63.441484 264.338645 
L 63.686137 257.139276 
L 64.175443 261.253201 
L 64.420096 260.053306 
L 64.664749 261.767442 
L 64.909402 258.681998 
L 65.154055 266.395608 
L 65.398708 262.62451 
L 65.643361 262.795923 
L 65.888014 260.22472 
L 66.132667 255.939381 
L 66.37732 254.053832 
L 66.621973 250.11132 
L 66.866626 248.568598 
L 67.111279 248.740012 
L 67.355932 246.511636 
L 67.600585 248.397185 
L 67.845238 245.140327 
L 68.089891 243.769019 
L 68.334544 240.340748 
L 68.579197 239.826507 
L 68.82385 236.912477 
L 69.557809 243.083365 
L 69.802462 243.769019 
L 70.047115 243.769019 
L 70.291768 236.055409 
L 70.536421 232.112897 
L 70.781074 231.427243 
L 71.025727 227.998972 
L 71.759686 242.569124 
L 72.004339 240.512161 
L 72.248992 235.369755 
L 72.493645 238.455199 
L 72.982951 253.539591 
L 73.227604 253.539591 
L 73.472257 253.025351 
L 73.71691 250.796975 
L 73.961563 260.053306 
L 74.206216 260.22472 
L 74.450869 260.053306 
L 74.940175 262.110269 
L 75.429481 268.795398 
L 76.16344 258.167757 
L 76.408093 256.967862 
L 76.652746 253.882419 
L 76.897399 254.739486 
L 77.142052 258.681998 
L 77.386705 251.482629 
L 77.876011 245.483154 
L 78.365317 243.083365 
L 78.60997 234.855514 
L 78.854623 235.369755 
L 79.099276 236.226823 
L 79.343929 238.798026 
L 79.588582 234.855514 
L 80.077888 240.169334 
L 80.322541 242.740538 
L 80.567194 239.655094 
L 80.811847 234.855514 
L 81.0565 239.826507 
L 81.301153 238.455199 
L 81.545806 244.454673 
L 81.790459 244.454673 
L 82.035112 241.712056 
L 82.279765 243.426192 
L 82.524418 247.711531 
L 82.769071 244.454673 
L 83.013724 230.227348 
L 83.258377 231.25583 
L 83.50303 229.370281 
L 83.747683 229.027453 
L 83.992336 228.341799 
L 84.481643 215.657196 
L 84.726296 219.771122 
L 84.970949 216.000023 
L 85.215602 218.056986 
L 85.460255 218.2284 
L 85.704908 214.457302 
L 85.949561 219.428295 
L 86.194214 217.028505 
L 86.438867 217.542745 
L 86.928173 211.543271 
L 87.172826 214.285888 
L 87.417479 199.544322 
L 87.906785 206.743692 
L 88.151438 200.744217 
L 88.396091 208.629241 
L 88.640744 202.80118 
L 88.885397 206.058037 
L 89.13005 212.228925 
L 89.374703 213.600234 
L 89.619356 209.143481 
L 89.864009 211.714685 
L 90.108662 211.543271 
L 90.353315 210.51479 
L 90.597968 206.572278 
L 90.842621 199.372909 
L 91.331927 204.515315 
L 91.57658 205.029556 
L 91.821233 214.285888 
L 92.065886 211.02903 
L 92.310539 204.515315 
L 92.555192 205.20097 
L 92.799845 204.858143 
L 93.289151 193.202021 
L 93.533804 192.344953 
L 93.778457 189.77375 
L 94.02311 191.145058 
L 94.267763 190.116577 
L 94.512416 195.430397 
L 95.001722 192.516367 
L 95.246375 194.059089 
L 95.491028 193.716262 
L 95.735681 194.573329 
L 95.980334 189.430923 
L 96.224987 192.516367 
L 96.46964 187.888201 
L 96.714293 191.659299 
L 96.958946 184.117103 
L 97.203599 183.431449 
L 97.448252 179.66035 
L 97.692905 180.003178 
L 97.937558 173.318049 
L 98.182211 176.74632 
L 98.426864 174.517944 
L 98.671517 175.546425 
L 98.91617 174.517944 
L 99.160823 175.375012 
L 99.650129 149.148738 
L 99.894782 148.634497 
L 100.139435 152.405596 
L 100.384088 144.006332 
L 100.628741 145.206226 
L 100.873394 150.005806 
L 101.118047 141.949369 
L 101.3627 144.177745 
L 101.607353 141.606542 
L 102.096659 155.662453 
L 102.341312 158.576484 
L 102.585965 152.748423 
L 102.830618 176.060666 
L 103.075271 178.974696 
L 103.319924 172.632395 
L 103.80923 182.06014 
L 104.053883 176.74632 
L 104.298536 181.888727 
L 104.543189 184.117103 
L 104.787842 182.06014 
L 105.032495 170.918259 
L 105.277148 170.404019 
L 105.521801 167.661402 
L 106.25576 182.402967 
L 106.500413 181.031659 
L 106.745066 172.118154 
L 106.98972 175.375012 
L 107.234373 176.574906 
L 107.479026 177.089147 
L 107.723679 189.602336 
L 107.968332 190.116577 
L 108.212985 207.600759 
L 108.457638 198.687255 
L 108.702291 200.229977 
L 108.946944 203.315421 
L 109.191597 192.516367 
L 109.680903 188.059614 
L 109.925556 187.202547 
L 110.170209 187.031133 
L 110.414862 175.889252 
L 110.659515 175.717839 
L 110.904168 174.517944 
L 111.148821 170.404019 
L 111.393474 175.546425 
L 111.638127 183.431449 
L 111.88278 186.516893 
L 112.127433 199.372909 
L 112.372086 194.573329 
L 112.861392 191.316472 
L 113.595351 199.544322 
L 113.840004 200.40139 
L 114.084657 194.916157 
L 114.818616 186.85972 
L 115.063269 181.203072 
L 115.307922 180.517418 
L 115.552575 180.860245 
L 115.797228 182.745794 
L 116.041881 182.745794 
L 116.286534 186.002652 
L 116.531187 175.717839 
L 116.77584 171.261086 
L 117.020493 170.061192 
L 117.509799 174.003703 
L 118.243758 165.775853 
L 118.488411 173.318049 
L 118.733064 175.375012 
L 118.977717 170.918259 
L 119.22237 174.003703 
L 119.467023 171.4325 
L 119.711676 172.803808 
L 119.956329 175.032185 
L 120.200982 173.660876 
L 120.445635 174.003703 
L 120.690288 172.632395 
L 121.179594 180.688832 
L 121.424247 188.059614 
L 121.913553 185.316998 
L 122.158206 190.287991 
L 122.402859 191.659299 
L 122.647512 188.573855 
L 122.892165 194.059089 
L 123.136818 194.401916 
L 123.381471 190.802231 
L 123.626124 192.68778 
L 123.870777 190.802231 
L 124.11543 194.230502 
L 124.360083 188.059614 
L 124.604736 189.77375 
L 124.849389 189.602336 
L 125.094042 189.259509 
L 125.338695 186.688306 
L 125.583348 182.917208 
L 125.828001 189.088096 
L 126.317307 182.231554 
L 126.56196 183.431449 
L 126.806613 176.574906 
L 127.051266 180.003178 
L 127.295919 177.774801 
L 127.540572 180.688832 
L 127.785225 182.231554 
L 128.029878 186.002652 
L 128.274531 185.488411 
L 128.519184 179.317523 
L 128.763837 181.888727 
L 129.253143 177.089147 
L 129.497797 181.203072 
L 129.74245 177.260561 
L 130.231756 190.287991 
L 130.476409 189.430923 
L 130.721062 181.203072 
L 130.965715 182.06014 
L 131.210368 171.261086 
L 131.455021 174.517944 
L 131.944327 155.662453 
L 132.18898 151.377114 
L 132.433633 153.262663 
L 132.678286 148.463084 
L 132.922939 149.834392 
L 133.167592 149.662979 
L 133.412245 149.662979 
L 133.656898 147.434603 
L 133.901551 138.692511 
L 134.390857 148.463084 
L 134.63551 140.06382 
L 134.880163 138.521098 
L 135.124816 138.863925 
L 135.369469 143.492091 
L 135.614122 144.520572 
L 135.858775 137.492617 
L 136.103428 138.863925 
L 136.348081 136.464135 
L 136.592734 128.064871 
L 136.837387 125.836495 
L 137.08204 122.408224 
L 137.326693 125.665081 
L 137.571346 131.664556 
L 137.815999 127.207803 
L 138.060652 126.350736 
L 138.305305 123.779532 
L 138.549958 123.436705 
L 138.794611 127.722044 
L 139.039264 127.893458 
L 139.283917 130.464661 
L 139.52857 128.750525 
L 139.773223 139.206752 
L 140.017876 138.349684 
L 140.262529 138.692511 
L 140.507182 133.721518 
L 140.751835 133.035864 
L 140.996488 137.149789 
L 141.485794 155.833867 
L 141.9751 155.833867 
L 142.219753 157.719416 
L 142.464406 146.920362 
L 142.709059 147.948843 
L 142.953712 155.833867 
L 143.198365 154.119731 
L 143.443018 155.148212 
L 143.687671 150.69146 
L 144.176977 148.29167 
L 144.42163 149.320152 
L 144.666283 152.234182 
L 144.910936 151.205701 
L 145.155589 150.69146 
L 145.644895 143.834918 
L 145.889548 144.177745 
L 146.378854 150.862874 
L 146.623507 142.97785 
L 146.86816 139.892406 
L 147.112813 140.06382 
L 147.357466 141.435128 
L 147.602119 139.035339 
L 147.846772 138.349684 
L 148.091425 142.806437 
L 148.336078 158.576484 
L 148.580731 165.947266 
L 148.825384 152.919836 
L 149.070037 158.233656 
L 149.31469 146.063294 
L 149.559343 153.262663 
L 149.803996 149.834392 
L 150.048649 135.435654 
L 150.293302 148.977325 
L 150.537955 145.720467 
L 151.271914 127.893458 
L 151.516567 132.521624 
L 151.76122 130.978902 
L 152.005874 126.864976 
L 152.250527 127.893458 
L 152.49518 134.75 
L 152.739833 133.550105 
L 152.984486 135.092827 
L 153.229139 126.007909 
L 153.473792 127.722044 
L 153.718445 126.007909 
L 153.963098 121.893983 
L 154.452404 126.179322 
L 154.697057 114.00896 
L 154.94171 112.980479 
L 155.186363 117.951472 
L 155.675669 119.151367 
L 155.920322 118.637126 
L 156.164975 126.179322 
L 156.409628 140.920888 
L 156.654281 139.035339 
L 156.898934 135.778481 
L 157.143587 127.03639 
L 157.38824 130.807488 
L 157.877546 122.751051 
L 158.122199 134.578586 
L 158.611505 122.751051 
L 158.856158 124.12236 
L 159.100811 127.893458 
L 159.345464 123.779532 
L 159.590117 126.693563 
L 159.83477 120.865502 
L 160.079423 118.979953 
L 160.324076 123.093878 
L 160.568729 139.549579 
L 160.813382 145.206226 
L 161.058035 139.035339 
L 161.547341 162.518995 
L 161.791994 162.347582 
L 162.036647 162.004755 
L 162.525953 155.833867 
L 162.770606 145.37764 
L 163.015259 142.97785 
L 163.259912 144.349159 
L 163.504565 147.948843 
L 163.749218 147.263189 
L 163.993871 125.150841 
L 164.238524 129.95042 
L 164.483177 138.178271 
L 164.72783 140.406647 
L 164.972483 147.263189 
L 165.461789 169.889778 
L 165.706442 176.917734 
L 165.951095 174.34653 
L 166.195748 176.74632 
L 166.685054 173.83229 
L 166.929707 175.546425 
L 167.17436 176.232079 
L 167.419013 175.203598 
L 167.663666 172.460981 
L 167.908319 172.975222 
L 168.152972 167.489988 
L 168.397625 165.947266 
L 168.642278 168.861297 
L 168.886931 166.804334 
L 169.131584 166.804334 
L 169.376237 166.975748 
L 169.62089 166.461507 
L 169.865543 165.090198 
L 170.110196 167.147161 
L 170.354849 166.290093 
L 170.599502 164.233131 
L 170.844155 170.061192 
L 171.088808 171.261086 
L 171.333461 168.689883 
L 171.578114 169.889778 
L 171.822767 169.546951 
L 172.312073 166.804334 
L 172.556726 169.03271 
L 172.801379 165.090198 
L 173.046032 167.147161 
L 173.290685 163.890304 
L 173.535338 169.546951 
L 173.779991 172.118154 
L 174.024644 163.547477 
L 174.269298 167.147161 
L 174.513951 165.775853 
L 174.758604 165.604439 
L 175.24791 153.776904 
L 175.492563 151.034287 
L 175.737216 151.719941 
L 175.981869 157.548002 
L 176.226522 159.262138 
L 176.471175 160.119205 
L 176.715828 158.919311 
L 177.205134 153.09125 
L 177.449787 143.663504 
L 177.69444 150.69146 
L 177.939093 147.606016 
L 178.183746 154.119731 
L 178.428399 151.719941 
L 178.673052 153.434077 
L 178.917705 154.291145 
L 179.407011 158.40507 
L 179.896317 172.803808 
L 180.14097 182.402967 
L 180.385623 179.66035 
L 180.630276 181.5459 
L 180.874929 187.37396 
L 181.119582 189.602336 
L 181.364235 193.716262 
L 181.608888 188.573855 
L 181.853541 190.116577 
L 182.098194 193.030607 
L 182.342847 190.802231 
L 182.5875 181.888727 
L 182.832153 183.431449 
L 183.076806 180.003178 
L 183.321459 178.289042 
L 183.810765 180.346005 
L 184.055418 178.631869 
L 184.300071 178.803283 
L 184.789377 168.861297 
L 185.03403 170.746846 
L 185.278683 170.575432 
L 185.523336 172.803808 
L 185.767989 170.404019 
L 186.012642 170.918259 
L 186.257295 166.11868 
L 186.746601 173.318049 
L 187.235907 166.461507 
L 187.48056 169.889778 
L 187.725213 161.490514 
L 187.969866 159.262138 
L 188.459172 150.177219 
L 189.193131 159.262138 
L 189.437784 154.805385 
L 189.92709 164.918785 
L 190.171743 164.061717 
L 190.416396 167.489988 
L 190.661049 174.689357 
L 190.905702 176.232079 
L 191.150355 173.489463 
L 191.395008 174.34653 
L 191.639661 180.860245 
L 191.884314 170.746846 
L 192.128967 177.431974 
L 192.37362 175.032185 
L 192.618273 186.345479 
L 192.862926 186.516893 
L 193.107579 191.145058 
L 193.352232 199.544322 
L 193.841538 195.601811 
L 194.086191 189.602336 
L 194.330844 189.259509 
L 194.575497 184.117103 
L 194.82015 175.375012 
L 195.064803 176.74632 
L 195.309456 175.717839 
L 195.798762 162.861822 
L 196.043415 160.976273 
L 196.288068 156.862348 
L 196.532721 155.319626 
L 196.777375 159.433551 
L 197.022028 159.433551 
L 197.266681 161.490514 
L 197.511334 156.690934 
L 198.00064 152.919836 
L 198.245293 152.919836 
L 198.489946 154.291145 
L 198.734599 154.633972 
L 198.979252 150.005806 
L 199.223905 152.577009 
L 199.468558 152.577009 
L 199.713211 152.405596 
L 199.957864 156.348107 
L 200.202517 152.062769 
L 200.44717 141.263715 
L 200.691823 140.406647 
L 200.936476 138.521098 
L 201.425782 130.121834 
L 201.670435 131.493142 
L 201.915088 126.007909 
L 202.404394 126.693563 
L 202.649047 128.236285 
L 202.8937 131.835969 
L 203.138353 143.834918 
L 203.383006 145.37764 
L 203.627659 148.634497 
L 203.872312 140.920888 
L 204.116965 126.350736 
L 204.361618 126.864976 
L 204.606271 124.293773 
L 204.850924 135.26424 
L 205.095577 135.778481 
L 205.34023 131.835969 
L 205.584883 136.292722 
L 205.829536 136.464135 
L 206.074189 140.406647 
L 206.318842 137.321203 
L 206.563495 140.235233 
L 206.808148 135.778481 
L 207.052801 128.407698 
L 207.297454 117.265817 
L 207.78676 112.637652 
L 208.031413 118.294299 
L 208.276066 117.608645 
L 208.520719 118.979953 
L 209.010025 106.981004 
L 209.254678 114.866028 
L 209.499331 111.951997 
L 209.743984 118.122885 
L 209.988637 112.123411 
L 210.23329 115.551682 
L 210.477943 126.693563 
L 210.722596 128.750525 
L 210.967249 138.692511 
L 211.456555 125.493668 
L 211.701208 124.6366 
L 211.945861 108.866553 
L 212.190514 105.781109 
L 212.435167 107.495245 
L 212.67982 88.982581 
L 212.924473 87.268446 
L 213.169126 76.640806 
L 213.413779 80.583317 
L 213.658432 81.611799 
L 214.147738 84.525829 
L 214.392391 81.954626 
L 214.637044 84.868656 
L 214.881697 85.725724 
L 215.12635 80.24049 
L 215.371003 81.440385 
L 215.615656 86.068551 
L 215.860309 78.354941 
L 216.104962 81.954626 
L 216.349615 80.583317 
L 216.594268 83.497348 
L 216.838921 92.068025 
L 217.083574 91.039544 
L 217.57288 97.896086 
L 217.817533 91.553785 
L 218.062186 91.553785 
L 218.306839 84.011588 
L 218.551492 88.639754 
L 218.796145 85.04007 
L 219.040798 88.982581 
L 219.285452 87.268446 
L 219.530105 73.555362 
L 219.774758 82.64028 
L 220.264064 88.811168 
L 220.75337 74.412429 
L 220.998023 78.012114 
L 221.242676 85.897137 
L 221.487329 85.04007 
L 222.221288 80.583317 
L 222.710594 66.870233 
L 222.955247 72.869707 
L 223.1999 73.898189 
L 223.444553 70.812745 
L 223.689206 71.155572 
L 223.933859 73.726775 
L 224.178512 74.241016 
L 224.423165 76.297978 
L 224.667818 75.612324 
L 224.912471 68.241542 
L 225.157124 69.784263 
L 225.401777 81.440385 
L 225.64643 83.325934 
L 225.891083 86.582792 
L 226.135736 92.753679 
L 226.380389 90.182476 
L 226.625042 86.068551 
L 226.869695 89.496822 
L 227.114348 100.810116 
L 227.359001 98.753154 
L 227.603654 91.210958 
L 227.848307 92.239439 
L 228.337613 99.610222 
L 228.582266 92.582266 
L 228.826919 91.725198 
L 229.071572 91.896612 
L 229.316225 87.9541 
L 229.805531 85.382897 
L 230.050184 86.754205 
L 230.294837 89.668236 
L 231.028796 78.697768 
L 231.273449 81.954626 
L 231.762755 84.525829 
L 232.252061 90.011063 
L 232.496714 91.896612 
L 232.741367 91.382371 
L 232.98602 86.239965 
L 233.230673 83.668761 
L 233.719979 90.86813 
L 233.964632 90.86813 
L 234.209285 91.896612 
L 234.453938 85.211483 
L 234.698591 88.468341 
L 234.943244 86.239965 
L 235.187897 82.983107 
L 235.677203 91.210958 
L 235.921856 92.925093 
L 236.166509 98.58174 
L 236.411162 99.610222 
L 236.655815 96.867605 
L 236.900468 102.352838 
L 237.145121 104.409801 
L 237.389774 96.181951 
L 237.634427 100.98153 
L 238.613039 73.041121 
L 238.857692 74.755257 
L 239.102345 72.698294 
L 239.346998 73.212535 
L 239.591651 70.298504 
L 239.836304 72.01264 
L 240.080957 76.469392 
L 240.32561 78.183528 
L 240.570263 87.097032 
L 240.814916 85.725724 
L 241.059569 68.412955 
L 241.304222 61.384999 
L 241.548875 61.89924 
L 241.793529 56.242593 
L 242.038182 54.699871 
L 242.282835 55.385525 
L 242.527488 60.356518 
L 242.772141 71.498399 
L 243.016794 71.155572 
L 243.261447 68.241542 
L 243.5061 72.355467 
L 243.750753 68.070128 
L 243.995406 68.241542 
L 244.240059 68.927196 
L 244.484712 65.841752 
L 244.729365 65.498925 
L 244.974018 69.784263 
L 245.463324 99.438808 
L 245.95263 137.149789 
L 246.441936 104.238387 
L 247.175895 136.806962 
L 247.420548 126.350736 
L 247.665201 127.722044 
L 247.909854 136.635549 
L 248.154507 116.751577 
L 248.39916 126.522149 
L 248.643813 115.208855 
L 248.888466 109.20938 
L 249.133119 113.666133 
L 249.377772 105.781109 
L 249.622425 105.609696 
L 249.867078 100.467289 
L 250.356384 118.637126 
L 250.601037 121.379743 
L 250.84569 115.208855 
L 251.090343 113.837546 
L 251.579649 146.063294 
L 251.824302 142.635023 
L 252.313608 128.579112 
L 252.558261 107.323831 
L 252.802914 100.467289 
L 253.047567 112.294824 
L 253.29222 103.724147 
L 253.536873 107.152418 
L 253.781526 104.581215 
L 254.026179 104.924042 
L 254.270832 109.037967 
L 254.515485 108.009486 
L 254.760138 90.182476 
L 255.004791 84.525829 
L 255.249444 82.983107 
L 255.73875 100.810116 
L 255.983403 103.038493 
L 256.228056 90.696717 
L 256.472709 88.811168 
L 256.962015 66.69882 
L 257.451321 94.639229 
L 257.695974 73.383948 
L 257.940627 74.92667 
L 258.18528 89.153995 
L 258.429933 88.982581 
L 258.919239 97.553259 
L 259.163892 95.153469 
L 259.408545 96.010537 
L 259.653198 102.010011 
L 260.142504 105.952523 
L 260.387157 110.923516 
L 260.63181 103.38132 
L 260.876463 120.865502 
L 261.121116 122.751051 
L 261.365769 137.321203 
L 261.855075 110.923516 
L 262.099728 112.294824 
L 262.344381 112.637652 
L 262.589034 98.0675 
L 263.07834 119.151367 
L 263.322993 112.123411 
L 263.812299 116.751577 
L 264.056952 120.865502 
L 264.301606 119.665607 
L 264.546259 124.808014 
L 265.035565 121.379743 
L 265.280218 115.894509 
L 265.769524 126.007909 
L 266.014177 117.951472 
L 266.748136 115.208855 
L 266.992789 118.637126 
L 267.237442 111.60917 
L 267.482095 112.980479 
L 267.971401 126.693563 
L 268.216054 122.751051 
L 268.460707 132.521624 
L 268.70536 136.121308 
L 268.950013 142.97785 
L 269.194666 141.777955 
L 269.439319 142.97785 
L 269.683972 153.776904 
L 269.928625 141.092301 
L 270.173278 146.234708 
L 270.417931 148.29167 
L 270.662584 148.805911 
L 270.907237 150.177219 
L 271.15189 147.948843 
L 271.396543 151.548528 
L 271.641196 148.634497 
L 271.885849 151.205701 
L 272.130502 156.690934 
L 272.375155 151.719941 
L 272.619808 157.205175 
L 272.864461 157.719416 
L 273.353767 177.260561 
L 273.59842 176.74632 
L 273.843073 184.802757 
L 274.332379 168.861297 
L 274.577032 175.032185 
L 274.821685 171.089673 
L 275.066338 163.376063 
L 275.310991 166.461507 
L 275.800297 168.861297 
L 276.04495 159.262138 
L 276.289603 160.80486 
L 276.534256 159.776378 
L 276.778909 150.005806 
L 277.023562 156.176694 
L 277.268215 165.775853 
L 277.512868 159.433551 
L 277.757521 160.462033 
L 278.002174 162.004755 
L 278.246827 165.090198 
L 278.49148 163.71889 
L 278.736133 171.089673 
L 278.980786 164.575958 
L 279.225439 167.147161 
L 279.470092 151.548528 
L 279.959398 168.004229 
L 280.204051 176.574906 
L 280.448704 171.4325 
L 280.693357 169.546951 
L 280.93801 158.919311 
L 281.182663 153.605491 
L 281.916622 163.890304 
L 282.161275 159.262138 
L 282.405928 158.919311 
L 282.650581 166.290093 
L 282.895234 159.433551 
L 283.38454 136.806962 
L 283.629193 109.895035 
L 283.873846 112.809065 
L 284.118499 117.265817 
L 284.363152 127.722044 
L 284.607805 126.522149 
L 284.852458 116.580163 
L 285.097111 114.694614 
L 285.341764 117.265817 
L 285.586417 115.380268 
L 286.075723 104.752628 
L 286.320376 104.581215 
L 286.56503 104.066974 
L 286.809683 105.095455 
L 287.054336 107.838072 
L 287.298989 108.69514 
L 287.543642 110.237862 
L 287.788295 113.666133 
L 288.032948 112.123411 
L 288.277601 96.696191 
L 288.522254 101.838598 
L 288.766907 98.924567 
L 289.01156 98.753154 
L 289.256213 94.639229 
L 289.500866 94.982056 
L 289.745519 105.952523 
L 289.990172 105.438282 
L 290.234825 105.438282 
L 290.479478 102.181425 
L 290.724131 108.180899 
L 290.968784 105.781109 
L 291.213437 102.181425 
L 291.45809 96.010537 
L 291.702743 97.210432 
L 292.192049 85.55431 
L 292.436702 84.183002 
L 292.681355 81.097558 
L 293.415314 76.640806 
L 293.659967 79.72625 
L 293.90462 75.612324 
L 294.149273 77.155046 
L 294.393926 70.127091 
L 294.638579 69.098609 
L 294.883232 69.441436 
L 295.127885 78.869182 
L 295.372538 74.583843 
L 295.617191 78.012114 
L 295.861844 78.697768 
L 296.106497 87.782686 
L 296.595803 78.697768 
L 296.840456 83.497348 
L 297.085109 81.440385 
L 297.329762 92.068025 
L 297.574415 94.982056 
L 298.063721 74.241016 
L 298.308374 70.812745 
L 298.79768 60.527932 
L 299.042333 59.670864 
L 299.286986 61.213586 
L 299.531639 55.214112 
L 299.776292 54.699871 
L 300.265598 51.957254 
L 300.510251 41.501027 
L 300.999557 46.300607 
L 301.24421 46.300607 
L 301.733516 45.100712 
L 302.222822 43.900817 
L 302.467475 43.043749 
L 302.712128 42.700922 
L 302.956781 45.786366 
L 303.201434 42.015268 
L 303.446087 34.815899 
L 303.935393 69.441436 
L 304.180046 71.841226 
L 304.424699 66.870233 
L 304.669352 75.612324 
L 304.914005 73.041121 
L 305.158658 72.184053 
L 305.403311 71.841226 
L 305.647964 74.755257 
L 305.892617 72.52688 
L 306.13727 78.012114 
L 306.381923 72.01264 
L 306.626576 71.155572 
L 307.115882 77.155046 
L 307.360535 72.869707 
L 307.605188 77.497873 
L 307.849841 78.354941 
L 308.094494 77.497873 
L 308.339147 72.52688 
L 308.5838 76.469392 
L 308.828453 77.8407 
L 309.073107 79.897663 
L 309.31776 78.354941 
L 309.562413 78.354941 
L 309.807066 77.155046 
L 310.051719 79.212009 
L 310.296372 89.839649 
L 310.541025 80.411904 
L 310.785678 90.86813 
L 311.030331 92.582266 
L 311.274984 89.153995 
L 311.76429 97.553259 
L 312.008943 94.810642 
L 312.253596 86.754205 
L 312.498249 88.982581 
L 312.742902 87.097032 
L 312.987555 97.724672 
L 313.476861 91.725198 
L 313.721514 103.209906 
L 313.966167 93.782161 
L 314.21082 97.039018 
L 314.455473 96.353364 
L 314.700126 93.26792 
L 314.944779 97.553259 
L 315.189432 99.095981 
L 315.434085 98.238913 
L 315.678738 106.466764 
L 315.923391 107.495245 
L 316.168044 112.809065 
L 316.412697 114.523201 
L 316.65735 117.265817 
L 316.902003 114.00896 
L 317.391309 116.580163 
L 317.635962 122.751051 
L 317.880615 123.608119 
L 318.369921 118.979953 
L 318.614574 117.608645 
L 318.859227 127.03639 
L 319.10388 130.807488 
L 319.837839 162.004755 
L 320.082492 160.119205 
L 320.327145 153.605491 
L 320.571798 160.119205 
L 321.061104 100.295876 
L 321.305757 115.723095 
L 322.529022 134.75 
L 322.773675 133.207278 
L 323.018328 137.321203 
L 323.262981 135.778481 
L 323.507634 131.150315 
L 323.752287 133.721518 
L 324.241593 123.436705 
L 324.486246 135.092827 
L 324.730899 132.178796 
L 325.220205 133.378691 
L 325.709511 144.006332 
L 326.198817 118.979953 
L 326.44347 111.60917 
L 326.688123 111.780584 
L 326.932776 112.980479 
L 327.177429 111.437757 
L 327.422082 111.60917 
L 327.666735 111.266343 
L 327.911388 118.979953 
L 328.156041 120.008434 
L 328.400694 117.608645 
L 328.645347 116.751577 
L 328.89 119.837021 
L 329.134653 117.437231 
L 329.379306 117.608645 
L 329.868612 103.724147 
L 330.113265 98.238913 
L 330.357918 100.467289 
L 330.602571 100.638703 
L 330.847224 101.152944 
L 331.091877 111.60917 
L 331.33653 115.551682 
L 331.581184 116.92299 
L 331.825837 124.808014 
L 332.07049 125.322254 
L 332.315143 130.978902 
L 332.559796 129.779007 
L 333.049102 140.406647 
L 333.293755 138.006857 
L 333.538408 138.178271 
L 333.783061 135.778481 
L 334.027714 137.66403 
L 334.272367 130.464661 
L 334.51702 131.493142 
L 334.761673 130.464661 
L 335.006326 124.293773 
L 335.250979 121.893983 
L 335.495632 124.465187 
L 335.740285 123.436705 
L 335.984938 119.32278 
L 336.229591 119.837021 
L 336.474244 115.380268 
L 336.718897 112.980479 
L 336.96355 99.953049 
L 337.208203 98.0675 
L 337.697509 98.0675 
L 337.942162 98.58174 
L 338.186815 90.525303 
L 338.431468 87.097032 
L 338.676121 86.754205 
L 338.920774 89.496822 
L 339.165427 84.354415 
L 339.41008 82.811693 
L 339.654733 82.64028 
L 339.899386 85.55431 
L 340.144039 91.725198 
L 340.388692 93.096507 
L 340.633345 90.696717 
L 340.877998 89.668236 
L 341.122651 89.668236 
L 341.367304 87.782686 
L 341.611957 80.754731 
L 342.101263 86.068551 
L 342.345916 85.04007 
L 342.590569 87.268446 
L 342.835222 83.497348 
L 343.079875 86.582792 
L 343.324528 91.553785 
L 343.569181 88.468341 
L 343.813834 88.811168 
L 344.058487 85.897137 
L 344.30314 85.55431 
L 344.547793 87.9541 
L 344.792446 87.439859 
L 345.037099 85.725724 
L 345.281752 88.296927 
L 345.526405 89.668236 
L 345.771058 89.839649 
L 346.015711 90.86813 
L 346.260364 92.753679 
L 346.505017 92.925093 
L 346.74967 93.610747 
L 346.994323 91.553785 
L 347.483629 98.238913 
L 347.728282 96.010537 
L 347.972935 97.724672 
L 348.217588 96.010537 
L 348.462241 95.66771 
L 348.706894 94.124988 
L 348.951547 93.953574 
L 349.1962 92.925093 
L 349.930159 100.638703 
L 350.174812 100.98153 
L 350.419465 100.467289 
L 350.664118 100.98153 
L 350.908771 102.181425 
L 351.153424 108.180899 
L 351.398077 108.009486 
L 351.64273 108.523726 
L 351.887383 106.638177 
L 352.376689 121.893983 
L 352.621342 122.065397 
L 352.865995 117.951472 
L 353.110648 123.779532 
L 353.355301 123.436705 
L 353.599954 124.979427 
L 353.844607 123.093878 
L 354.333914 123.608119 
L 354.578567 114.694614 
L 354.82322 113.666133 
L 355.312526 119.837021 
L 355.557179 124.6366 
L 355.801832 125.836495 
L 356.046485 130.121834 
L 356.291138 112.637652 
L 356.535791 113.837546 
L 356.780444 115.894509 
L 357.26975 111.951997 
L 357.514403 109.20938 
L 358.003709 99.095981 
L 358.493015 90.525303 
L 358.737668 88.639754 
L 358.982321 90.86813 
L 359.226974 95.496296 
L 359.471627 95.839123 
L 359.71628 97.896086 
L 359.960933 98.58174 
L 360.205586 94.639229 
L 360.450239 97.724672 
L 360.694892 104.924042 
L 360.939545 102.695666 
L 361.184198 101.667184 
L 361.428851 105.781109 
L 361.918157 103.89556 
L 362.16281 101.324357 
L 362.407463 104.409801 
L 362.652116 102.524252 
L 362.896769 98.0675 
L 363.386075 100.467289 
L 363.875381 106.981004 
L 364.120034 110.580689 
L 364.60934 106.123937 
L 364.853993 105.952523 
L 365.098646 107.323831 
L 365.343299 110.066448 
L 365.587952 101.324357 
L 365.832605 97.724672 
L 366.077258 103.38132 
L 366.321911 103.89556 
L 366.566564 100.98153 
L 366.811217 101.495771 
L 367.05587 104.409801 
L 367.545176 102.181425 
L 367.789829 102.524252 
L 368.279135 114.351787 
L 368.523788 112.809065 
L 368.768441 106.123937 
L 369.013094 104.581215 
L 369.257747 104.752628 
L 369.5024 102.010011 
L 369.747053 100.638703 
L 369.991706 100.124462 
L 370.236359 100.98153 
L 370.481012 92.925093 
L 370.725665 92.239439 
L 370.970318 94.982056 
L 371.214971 91.725198 
L 371.459624 91.725198 
L 371.704277 89.839649 
L 371.94893 86.068551 
L 372.193583 68.070128 
L 372.438236 73.383948 
L 372.682889 61.89924 
L 372.927542 68.241542 
L 373.172195 64.984684 
L 373.416848 66.69882 
L 373.661501 57.442488 
L 374.150807 57.956728 
L 374.39546 65.670338 
L 374.640113 69.270023 
L 375.374072 62.413481 
L 375.618725 56.071179 
L 375.863378 54.871284 
L 376.108031 57.956728 
L 376.597338 56.414006 
L 376.841991 54.871284 
L 377.086644 50.414532 
L 377.331297 49.557464 
L 377.57595 51.2716 
L 377.820603 51.443013 
L 378.065256 57.613901 
L 378.309909 53.842803 
L 378.554562 60.185105 
L 378.799215 53.157149 
L 379.043868 50.071705 
L 379.288521 50.414532 
L 379.777827 54.528457 
L 380.02248 61.727827 
L 380.267133 64.127616 
L 380.511786 71.841226 
L 380.756439 73.383948 
L 381.245745 66.527406 
L 381.490398 64.984684 
L 381.490398 64.984684 
" style="fill:none;stroke:#ff7f0e;stroke-linecap:square;stroke-width:1.5;"/>
   </g>
   <g id="patch_3">
    <path d="M 40.603125 288.430125 
L 40.603125 22.318125 
" style="fill:none;stroke:#000000;stroke-linecap:square;stroke-linejoin:miter;stroke-width:0.8;"/>
   </g>
   <g id="patch_4">
    <path d="M 397.723125 288.430125 
L 397.723125 22.318125 
" style="fill:none;stroke:#000000;stroke-linecap:square;stroke-linejoin:miter;stroke-width:0.8;"/>
   </g>
   <g id="patch_5">
    <path d="M 40.603125 288.430125 
L 397.723125 288.430125 
" style="fill:none;stroke:#000000;stroke-linecap:square;stroke-linejoin:miter;stroke-width:0.8;"/>
   </g>
   <g id="patch_6">
    <path d="M 40.603125 22.318125 
L 397.723125 22.318125 
" style="fill:none;stroke:#000000;stroke-linecap:square;stroke-linejoin:miter;stroke-width:0.8;"/>
   </g>
   <g id="text_18">
    <!-- Training: PFE -->
    <defs>
     <path d="M -0.296875 72.90625 
L 61.375 72.90625 
L 61.375 64.59375 
L 35.5 64.59375 
L 35.5 0 
L 25.59375 0 
L 25.59375 64.59375 
L -0.296875 64.59375 
z
" id="DejaVuSans-84"/>
     <path d="M 54.890625 33.015625 
L 54.890625 0 
L 45.90625 0 
L 45.90625 32.71875 
Q 45.90625 40.484375 42.875 44.328125 
Q 39.84375 48.1875 33.796875 48.1875 
Q 26.515625 48.1875 22.3125 43.546875 
Q 18.109375 38.921875 18.109375 30.90625 
L 18.109375 0 
L 9.078125 0 
L 9.078125 54.6875 
L 18.109375 54.6875 
L 18.109375 46.1875 
Q 21.34375 51.125 25.703125 53.5625 
Q 30.078125 56 35.796875 56 
Q 45.21875 56 50.046875 50.171875 
Q 54.890625 44.34375 54.890625 33.015625 
z
" id="DejaVuSans-110"/>
     <path d="M 45.40625 27.984375 
Q 45.40625 37.75 41.375 43.109375 
Q 37.359375 48.484375 30.078125 48.484375 
Q 22.859375 48.484375 18.828125 43.109375 
Q 14.796875 37.75 14.796875 27.984375 
Q 14.796875 18.265625 18.828125 12.890625 
Q 22.859375 7.515625 30.078125 7.515625 
Q 37.359375 7.515625 41.375 12.890625 
Q 45.40625 18.265625 45.40625 27.984375 
z
M 54.390625 6.78125 
Q 54.390625 -7.171875 48.1875 -13.984375 
Q 42 -20.796875 29.203125 -20.796875 
Q 24.46875 -20.796875 20.265625 -20.09375 
Q 16.0625 -19.390625 12.109375 -17.921875 
L 12.109375 -9.1875 
Q 16.0625 -11.328125 19.921875 -12.34375 
Q 23.78125 -13.375 27.78125 -13.375 
Q 36.625 -13.375 41.015625 -8.765625 
Q 45.40625 -4.15625 45.40625 5.171875 
L 45.40625 9.625 
Q 42.625 4.78125 38.28125 2.390625 
Q 33.9375 0 27.875 0 
Q 17.828125 0 11.671875 7.65625 
Q 5.515625 15.328125 5.515625 27.984375 
Q 5.515625 40.671875 11.671875 48.328125 
Q 17.828125 56 27.875 56 
Q 33.9375 56 38.28125 53.609375 
Q 42.625 51.21875 45.40625 46.390625 
L 45.40625 54.6875 
L 54.390625 54.6875 
z
" id="DejaVuSans-103"/>
     <path d="M 11.71875 12.40625 
L 22.015625 12.40625 
L 22.015625 0 
L 11.71875 0 
z
M 11.71875 51.703125 
L 22.015625 51.703125 
L 22.015625 39.3125 
L 11.71875 39.3125 
z
" id="DejaVuSans-58"/>
     <path d="M 9.8125 72.90625 
L 51.703125 72.90625 
L 51.703125 64.59375 
L 19.671875 64.59375 
L 19.671875 43.109375 
L 48.578125 43.109375 
L 48.578125 34.8125 
L 19.671875 34.8125 
L 19.671875 0 
L 9.8125 0 
z
" id="DejaVuSans-70"/>
     <path d="M 9.8125 72.90625 
L 55.90625 72.90625 
L 55.90625 64.59375 
L 19.671875 64.59375 
L 19.671875 43.015625 
L 54.390625 43.015625 
L 54.390625 34.71875 
L 19.671875 34.71875 
L 19.671875 8.296875 
L 56.78125 8.296875 
L 56.78125 0 
L 9.8125 0 
z
" id="DejaVuSans-69"/>
    </defs>
    <g transform="translate(180.704063 16.318125)scale(0.12 -0.12)">
     <use xlink:href="#DejaVuSans-84"/>
     <use x="46.333984" xlink:href="#DejaVuSans-114"/>
     <use x="87.447266" xlink:href="#DejaVuSans-97"/>
     <use x="148.726562" xlink:href="#DejaVuSans-105"/>
     <use x="176.509766" xlink:href="#DejaVuSans-110"/>
     <use x="239.888672" xlink:href="#DejaVuSans-105"/>
     <use x="267.671875" xlink:href="#DejaVuSans-110"/>
     <use x="331.050781" xlink:href="#DejaVuSans-103"/>
     <use x="394.527344" xlink:href="#DejaVuSans-58"/>
     <use x="428.21875" xlink:href="#DejaVuSans-32"/>
     <use x="460.005859" xlink:href="#DejaVuSans-80"/>
     <use x="520.308594" xlink:href="#DejaVuSans-70"/>
     <use x="577.828125" xlink:href="#DejaVuSans-69"/>
    </g>
   </g>
   <g id="legend_1">
    <g id="patch_7">
     <path d="M 47.603125 59.674375 
L 131.33125 59.674375 
Q 133.33125 59.674375 133.33125 57.674375 
L 133.33125 29.318125 
Q 133.33125 27.318125 131.33125 27.318125 
L 47.603125 27.318125 
Q 45.603125 27.318125 45.603125 29.318125 
L 45.603125 57.674375 
Q 45.603125 59.674375 47.603125 59.674375 
z
" style="fill:#ffffff;opacity:0.8;stroke:#cccccc;stroke-linejoin:miter;"/>
    </g>
    <g id="line2d_33">
     <path d="M 49.603125 35.416562 
L 69.603125 35.416562 
" style="fill:none;stroke:#1f77b4;stroke-linecap:square;stroke-width:1.5;"/>
    </g>
    <g id="line2d_34"/>
    <g id="text_19">
     <!-- Predicted -->
     <defs>
      <path d="M 45.40625 46.390625 
L 45.40625 75.984375 
L 54.390625 75.984375 
L 54.390625 0 
L 45.40625 0 
L 45.40625 8.203125 
Q 42.578125 3.328125 38.25 0.953125 
Q 33.9375 -1.421875 27.875 -1.421875 
Q 17.96875 -1.421875 11.734375 6.484375 
Q 5.515625 14.40625 5.515625 27.296875 
Q 5.515625 40.1875 11.734375 48.09375 
Q 17.96875 56 27.875 56 
Q 33.9375 56 38.25 53.625 
Q 42.578125 51.265625 45.40625 46.390625 
z
M 14.796875 27.296875 
Q 14.796875 17.390625 18.875 11.75 
Q 22.953125 6.109375 30.078125 6.109375 
Q 37.203125 6.109375 41.296875 11.75 
Q 45.40625 17.390625 45.40625 27.296875 
Q 45.40625 37.203125 41.296875 42.84375 
Q 37.203125 48.484375 30.078125 48.484375 
Q 22.953125 48.484375 18.875 42.84375 
Q 14.796875 37.203125 14.796875 27.296875 
z
" id="DejaVuSans-100"/>
      <path d="M 18.3125 70.21875 
L 18.3125 54.6875 
L 36.8125 54.6875 
L 36.8125 47.703125 
L 18.3125 47.703125 
L 18.3125 18.015625 
Q 18.3125 11.328125 20.140625 9.421875 
Q 21.96875 7.515625 27.59375 7.515625 
L 36.8125 7.515625 
L 36.8125 0 
L 27.59375 0 
Q 17.1875 0 13.234375 3.875 
Q 9.28125 7.765625 9.28125 18.015625 
L 9.28125 47.703125 
L 2.6875 47.703125 
L 2.6875 54.6875 
L 9.28125 54.6875 
L 9.28125 70.21875 
z
" id="DejaVuSans-116"/>
     </defs>
     <g transform="translate(77.603125 38.916562)scale(0.1 -0.1)">
      <use xlink:href="#DejaVuSans-80"/>
      <use x="58.552734" xlink:href="#DejaVuSans-114"/>
      <use x="97.416016" xlink:href="#DejaVuSans-101"/>
      <use x="158.939453" xlink:href="#DejaVuSans-100"/>
      <use x="222.416016" xlink:href="#DejaVuSans-105"/>
      <use x="250.199219" xlink:href="#DejaVuSans-99"/>
      <use x="305.179688" xlink:href="#DejaVuSans-116"/>
      <use x="344.388672" xlink:href="#DejaVuSans-101"/>
      <use x="405.912109" xlink:href="#DejaVuSans-100"/>
     </g>
    </g>
    <g id="line2d_35">
     <path d="M 49.603125 50.094687 
L 69.603125 50.094687 
" style="fill:none;stroke:#ff7f0e;stroke-linecap:square;stroke-width:1.5;"/>
    </g>
    <g id="line2d_36"/>
    <g id="text_20">
     <!-- True value -->
     <defs>
      <path d="M 8.5 21.578125 
L 8.5 54.6875 
L 17.484375 54.6875 
L 17.484375 21.921875 
Q 17.484375 14.15625 20.5 10.265625 
Q 23.53125 6.390625 29.59375 6.390625 
Q 36.859375 6.390625 41.078125 11.03125 
Q 45.3125 15.671875 45.3125 23.6875 
L 45.3125 54.6875 
L 54.296875 54.6875 
L 54.296875 0 
L 45.3125 0 
L 45.3125 8.40625 
Q 42.046875 3.421875 37.71875 1 
Q 33.40625 -1.421875 27.6875 -1.421875 
Q 18.265625 -1.421875 13.375 4.4375 
Q 8.5 10.296875 8.5 21.578125 
z
M 31.109375 56 
z
" id="DejaVuSans-117"/>
      <path d="M 2.984375 54.6875 
L 12.5 54.6875 
L 29.59375 8.796875 
L 46.6875 54.6875 
L 56.203125 54.6875 
L 35.6875 0 
L 23.484375 0 
z
" id="DejaVuSans-118"/>
      <path d="M 9.421875 75.984375 
L 18.40625 75.984375 
L 18.40625 0 
L 9.421875 0 
z
" id="DejaVuSans-108"/>
     </defs>
     <g transform="translate(77.603125 53.594687)scale(0.1 -0.1)">
      <use xlink:href="#DejaVuSans-84"/>
      <use x="46.333984" xlink:href="#DejaVuSans-114"/>
      <use x="87.447266" xlink:href="#DejaVuSans-117"/>
      <use x="150.826172" xlink:href="#DejaVuSans-101"/>
      <use x="212.349609" xlink:href="#DejaVuSans-32"/>
      <use x="244.136719" xlink:href="#DejaVuSans-118"/>
      <use x="303.316406" xlink:href="#DejaVuSans-97"/>
      <use x="364.595703" xlink:href="#DejaVuSans-108"/>
      <use x="392.378906" xlink:href="#DejaVuSans-117"/>
      <use x="455.757812" xlink:href="#DejaVuSans-101"/>
     </g>
    </g>
   </g>
  </g>
 </g>
 <defs>
  <clipPath id="p2460ea59ef">
   <rect height="266.112" width="357.12" x="40.603125" y="22.318125"/>
  </clipPath>
 </defs>
</svg>
