<?xml version="1.0" encoding="utf-8" standalone="no"?>
<!DOCTYPE svg PUBLIC "-//W3C//DTD SVG 1.1//EN"
  "http://www.w3.org/Graphics/SVG/1.1/DTD/svg11.dtd">
<!-- Created with matplotlib (https://matplotlib.org/) -->
<svg height="325.986375pt" version="1.1" viewBox="0 0 413.302812 325.986375" width="413.302812pt" xmlns="http://www.w3.org/2000/svg" xmlns:xlink="http://www.w3.org/1999/xlink">
 <defs>
  <style type="text/css">
*{stroke-linecap:butt;stroke-linejoin:round;}
  </style>
 </defs>
 <g id="figure_1">
  <g id="patch_1">
   <path d="M 0 325.986375 
L 413.302812 325.986375 
L 413.302812 0 
L 0 0 
z
" style="fill:#ffffff;"/>
  </g>
  <g id="axes_1">
   <g id="patch_2">
    <path d="M 48.982813 288.430125 
L 406.102813 288.430125 
L 406.102813 22.318125 
L 48.982813 22.318125 
z
" style="fill:#ffffff;"/>
   </g>
   <g id="matplotlib.axis_1">
    <g id="xtick_1">
     <g id="line2d_1">
      <path clip-path="url(#pb1b474e3ff)" d="M 65.21554 288.430125 
L 65.21554 22.318125 
" style="fill:none;stroke:#b0b0b0;stroke-dasharray:2.96,1.28;stroke-dashoffset:0;stroke-width:0.8;"/>
     </g>
     <g id="line2d_2">
      <defs>
       <path d="M 0 0 
L 0 3.5 
" id="mf72f90c0a6" style="stroke:#000000;stroke-width:0.8;"/>
      </defs>
      <g>
       <use style="stroke:#000000;stroke-width:0.8;" x="65.21554" xlink:href="#mf72f90c0a6" y="288.430125"/>
      </g>
     </g>
     <g id="text_1">
      <!-- 0 -->
      <defs>
       <path d="M 31.78125 66.40625 
Q 24.171875 66.40625 20.328125 58.90625 
Q 16.5 51.421875 16.5 36.375 
Q 16.5 21.390625 20.328125 13.890625 
Q 24.171875 6.390625 31.78125 6.390625 
Q 39.453125 6.390625 43.28125 13.890625 
Q 47.125 21.390625 47.125 36.375 
Q 47.125 51.421875 43.28125 58.90625 
Q 39.453125 66.40625 31.78125 66.40625 
z
M 31.78125 74.21875 
Q 44.046875 74.21875 50.515625 64.515625 
Q 56.984375 54.828125 56.984375 36.375 
Q 56.984375 17.96875 50.515625 8.265625 
Q 44.046875 -1.421875 31.78125 -1.421875 
Q 19.53125 -1.421875 13.0625 8.265625 
Q 6.59375 17.96875 6.59375 36.375 
Q 6.59375 54.828125 13.0625 64.515625 
Q 19.53125 74.21875 31.78125 74.21875 
z
" id="DejaVuSans-48"/>
      </defs>
      <g transform="translate(62.03429 303.028562)scale(0.1 -0.1)">
       <use xlink:href="#DejaVuSans-48"/>
      </g>
     </g>
    </g>
    <g id="xtick_2">
     <g id="line2d_3">
      <path clip-path="url(#pb1b474e3ff)" d="M 114.146142 288.430125 
L 114.146142 22.318125 
" style="fill:none;stroke:#b0b0b0;stroke-dasharray:2.96,1.28;stroke-dashoffset:0;stroke-width:0.8;"/>
     </g>
     <g id="line2d_4">
      <g>
       <use style="stroke:#000000;stroke-width:0.8;" x="114.146142" xlink:href="#mf72f90c0a6" y="288.430125"/>
      </g>
     </g>
     <g id="text_2">
      <!-- 200 -->
      <defs>
       <path d="M 19.1875 8.296875 
L 53.609375 8.296875 
L 53.609375 0 
L 7.328125 0 
L 7.328125 8.296875 
Q 12.9375 14.109375 22.625 23.890625 
Q 32.328125 33.6875 34.8125 36.53125 
Q 39.546875 41.84375 41.421875 45.53125 
Q 43.3125 49.21875 43.3125 52.78125 
Q 43.3125 58.59375 39.234375 62.25 
Q 35.15625 65.921875 28.609375 65.921875 
Q 23.96875 65.921875 18.8125 64.3125 
Q 13.671875 62.703125 7.8125 59.421875 
L 7.8125 69.390625 
Q 13.765625 71.78125 18.9375 73 
Q 24.125 74.21875 28.421875 74.21875 
Q 39.75 74.21875 46.484375 68.546875 
Q 53.21875 62.890625 53.21875 53.421875 
Q 53.21875 48.921875 51.53125 44.890625 
Q 49.859375 40.875 45.40625 35.40625 
Q 44.1875 33.984375 37.640625 27.21875 
Q 31.109375 20.453125 19.1875 8.296875 
z
" id="DejaVuSans-50"/>
      </defs>
      <g transform="translate(104.602392 303.028562)scale(0.1 -0.1)">
       <use xlink:href="#DejaVuSans-50"/>
       <use x="63.623047" xlink:href="#DejaVuSans-48"/>
       <use x="127.246094" xlink:href="#DejaVuSans-48"/>
      </g>
     </g>
    </g>
    <g id="xtick_3">
     <g id="line2d_5">
      <path clip-path="url(#pb1b474e3ff)" d="M 163.076744 288.430125 
L 163.076744 22.318125 
" style="fill:none;stroke:#b0b0b0;stroke-dasharray:2.96,1.28;stroke-dashoffset:0;stroke-width:0.8;"/>
     </g>
     <g id="line2d_6">
      <g>
       <use style="stroke:#000000;stroke-width:0.8;" x="163.076744" xlink:href="#mf72f90c0a6" y="288.430125"/>
      </g>
     </g>
     <g id="text_3">
      <!-- 400 -->
      <defs>
       <path d="M 37.796875 64.3125 
L 12.890625 25.390625 
L 37.796875 25.390625 
z
M 35.203125 72.90625 
L 47.609375 72.90625 
L 47.609375 25.390625 
L 58.015625 25.390625 
L 58.015625 17.1875 
L 47.609375 17.1875 
L 47.609375 0 
L 37.796875 0 
L 37.796875 17.1875 
L 4.890625 17.1875 
L 4.890625 26.703125 
z
" id="DejaVuSans-52"/>
      </defs>
      <g transform="translate(153.532994 303.028562)scale(0.1 -0.1)">
       <use xlink:href="#DejaVuSans-52"/>
       <use x="63.623047" xlink:href="#DejaVuSans-48"/>
       <use x="127.246094" xlink:href="#DejaVuSans-48"/>
      </g>
     </g>
    </g>
    <g id="xtick_4">
     <g id="line2d_7">
      <path clip-path="url(#pb1b474e3ff)" d="M 212.007346 288.430125 
L 212.007346 22.318125 
" style="fill:none;stroke:#b0b0b0;stroke-dasharray:2.96,1.28;stroke-dashoffset:0;stroke-width:0.8;"/>
     </g>
     <g id="line2d_8">
      <g>
       <use style="stroke:#000000;stroke-width:0.8;" x="212.007346" xlink:href="#mf72f90c0a6" y="288.430125"/>
      </g>
     </g>
     <g id="text_4">
      <!-- 600 -->
      <defs>
       <path d="M 33.015625 40.375 
Q 26.375 40.375 22.484375 35.828125 
Q 18.609375 31.296875 18.609375 23.390625 
Q 18.609375 15.53125 22.484375 10.953125 
Q 26.375 6.390625 33.015625 6.390625 
Q 39.65625 6.390625 43.53125 10.953125 
Q 47.40625 15.53125 47.40625 23.390625 
Q 47.40625 31.296875 43.53125 35.828125 
Q 39.65625 40.375 33.015625 40.375 
z
M 52.59375 71.296875 
L 52.59375 62.3125 
Q 48.875 64.0625 45.09375 64.984375 
Q 41.3125 65.921875 37.59375 65.921875 
Q 27.828125 65.921875 22.671875 59.328125 
Q 17.53125 52.734375 16.796875 39.40625 
Q 19.671875 43.65625 24.015625 45.921875 
Q 28.375 48.1875 33.59375 48.1875 
Q 44.578125 48.1875 50.953125 41.515625 
Q 57.328125 34.859375 57.328125 23.390625 
Q 57.328125 12.15625 50.6875 5.359375 
Q 44.046875 -1.421875 33.015625 -1.421875 
Q 20.359375 -1.421875 13.671875 8.265625 
Q 6.984375 17.96875 6.984375 36.375 
Q 6.984375 53.65625 15.1875 63.9375 
Q 23.390625 74.21875 37.203125 74.21875 
Q 40.921875 74.21875 44.703125 73.484375 
Q 48.484375 72.75 52.59375 71.296875 
z
" id="DejaVuSans-54"/>
      </defs>
      <g transform="translate(202.463596 303.028562)scale(0.1 -0.1)">
       <use xlink:href="#DejaVuSans-54"/>
       <use x="63.623047" xlink:href="#DejaVuSans-48"/>
       <use x="127.246094" xlink:href="#DejaVuSans-48"/>
      </g>
     </g>
    </g>
    <g id="xtick_5">
     <g id="line2d_9">
      <path clip-path="url(#pb1b474e3ff)" d="M 260.937948 288.430125 
L 260.937948 22.318125 
" style="fill:none;stroke:#b0b0b0;stroke-dasharray:2.96,1.28;stroke-dashoffset:0;stroke-width:0.8;"/>
     </g>
     <g id="line2d_10">
      <g>
       <use style="stroke:#000000;stroke-width:0.8;" x="260.937948" xlink:href="#mf72f90c0a6" y="288.430125"/>
      </g>
     </g>
     <g id="text_5">
      <!-- 800 -->
      <defs>
       <path d="M 31.78125 34.625 
Q 24.75 34.625 20.71875 30.859375 
Q 16.703125 27.09375 16.703125 20.515625 
Q 16.703125 13.921875 20.71875 10.15625 
Q 24.75 6.390625 31.78125 6.390625 
Q 38.8125 6.390625 42.859375 10.171875 
Q 46.921875 13.96875 46.921875 20.515625 
Q 46.921875 27.09375 42.890625 30.859375 
Q 38.875 34.625 31.78125 34.625 
z
M 21.921875 38.8125 
Q 15.578125 40.375 12.03125 44.71875 
Q 8.5 49.078125 8.5 55.328125 
Q 8.5 64.0625 14.71875 69.140625 
Q 20.953125 74.21875 31.78125 74.21875 
Q 42.671875 74.21875 48.875 69.140625 
Q 55.078125 64.0625 55.078125 55.328125 
Q 55.078125 49.078125 51.53125 44.71875 
Q 48 40.375 41.703125 38.8125 
Q 48.828125 37.15625 52.796875 32.3125 
Q 56.78125 27.484375 56.78125 20.515625 
Q 56.78125 9.90625 50.3125 4.234375 
Q 43.84375 -1.421875 31.78125 -1.421875 
Q 19.734375 -1.421875 13.25 4.234375 
Q 6.78125 9.90625 6.78125 20.515625 
Q 6.78125 27.484375 10.78125 32.3125 
Q 14.796875 37.15625 21.921875 38.8125 
z
M 18.3125 54.390625 
Q 18.3125 48.734375 21.84375 45.5625 
Q 25.390625 42.390625 31.78125 42.390625 
Q 38.140625 42.390625 41.71875 45.5625 
Q 45.3125 48.734375 45.3125 54.390625 
Q 45.3125 60.0625 41.71875 63.234375 
Q 38.140625 66.40625 31.78125 66.40625 
Q 25.390625 66.40625 21.84375 63.234375 
Q 18.3125 60.0625 18.3125 54.390625 
z
" id="DejaVuSans-56"/>
      </defs>
      <g transform="translate(251.394198 303.028562)scale(0.1 -0.1)">
       <use xlink:href="#DejaVuSans-56"/>
       <use x="63.623047" xlink:href="#DejaVuSans-48"/>
       <use x="127.246094" xlink:href="#DejaVuSans-48"/>
      </g>
     </g>
    </g>
    <g id="xtick_6">
     <g id="line2d_11">
      <path clip-path="url(#pb1b474e3ff)" d="M 309.868551 288.430125 
L 309.868551 22.318125 
" style="fill:none;stroke:#b0b0b0;stroke-dasharray:2.96,1.28;stroke-dashoffset:0;stroke-width:0.8;"/>
     </g>
     <g id="line2d_12">
      <g>
       <use style="stroke:#000000;stroke-width:0.8;" x="309.868551" xlink:href="#mf72f90c0a6" y="288.430125"/>
      </g>
     </g>
     <g id="text_6">
      <!-- 1000 -->
      <defs>
       <path d="M 12.40625 8.296875 
L 28.515625 8.296875 
L 28.515625 63.921875 
L 10.984375 60.40625 
L 10.984375 69.390625 
L 28.421875 72.90625 
L 38.28125 72.90625 
L 38.28125 8.296875 
L 54.390625 8.296875 
L 54.390625 0 
L 12.40625 0 
z
" id="DejaVuSans-49"/>
      </defs>
      <g transform="translate(297.143551 303.028562)scale(0.1 -0.1)">
       <use xlink:href="#DejaVuSans-49"/>
       <use x="63.623047" xlink:href="#DejaVuSans-48"/>
       <use x="127.246094" xlink:href="#DejaVuSans-48"/>
       <use x="190.869141" xlink:href="#DejaVuSans-48"/>
      </g>
     </g>
    </g>
    <g id="xtick_7">
     <g id="line2d_13">
      <path clip-path="url(#pb1b474e3ff)" d="M 358.799153 288.430125 
L 358.799153 22.318125 
" style="fill:none;stroke:#b0b0b0;stroke-dasharray:2.96,1.28;stroke-dashoffset:0;stroke-width:0.8;"/>
     </g>
     <g id="line2d_14">
      <g>
       <use style="stroke:#000000;stroke-width:0.8;" x="358.799153" xlink:href="#mf72f90c0a6" y="288.430125"/>
      </g>
     </g>
     <g id="text_7">
      <!-- 1200 -->
      <g transform="translate(346.074153 303.028562)scale(0.1 -0.1)">
       <use xlink:href="#DejaVuSans-49"/>
       <use x="63.623047" xlink:href="#DejaVuSans-50"/>
       <use x="127.246094" xlink:href="#DejaVuSans-48"/>
       <use x="190.869141" xlink:href="#DejaVuSans-48"/>
      </g>
     </g>
    </g>
    <g id="text_8">
     <!-- Day -->
     <defs>
      <path d="M 19.671875 64.796875 
L 19.671875 8.109375 
L 31.59375 8.109375 
Q 46.6875 8.109375 53.6875 14.9375 
Q 60.6875 21.78125 60.6875 36.53125 
Q 60.6875 51.171875 53.6875 57.984375 
Q 46.6875 64.796875 31.59375 64.796875 
z
M 9.8125 72.90625 
L 30.078125 72.90625 
Q 51.265625 72.90625 61.171875 64.09375 
Q 71.09375 55.28125 71.09375 36.53125 
Q 71.09375 17.671875 61.125 8.828125 
Q 51.171875 0 30.078125 0 
L 9.8125 0 
z
" id="DejaVuSans-68"/>
      <path d="M 34.28125 27.484375 
Q 23.390625 27.484375 19.1875 25 
Q 14.984375 22.515625 14.984375 16.5 
Q 14.984375 11.71875 18.140625 8.90625 
Q 21.296875 6.109375 26.703125 6.109375 
Q 34.1875 6.109375 38.703125 11.40625 
Q 43.21875 16.703125 43.21875 25.484375 
L 43.21875 27.484375 
z
M 52.203125 31.203125 
L 52.203125 0 
L 43.21875 0 
L 43.21875 8.296875 
Q 40.140625 3.328125 35.546875 0.953125 
Q 30.953125 -1.421875 24.3125 -1.421875 
Q 15.921875 -1.421875 10.953125 3.296875 
Q 6 8.015625 6 15.921875 
Q 6 25.140625 12.171875 29.828125 
Q 18.359375 34.515625 30.609375 34.515625 
L 43.21875 34.515625 
L 43.21875 35.40625 
Q 43.21875 41.609375 39.140625 45 
Q 35.0625 48.390625 27.6875 48.390625 
Q 23 48.390625 18.546875 47.265625 
Q 14.109375 46.140625 10.015625 43.890625 
L 10.015625 52.203125 
Q 14.9375 54.109375 19.578125 55.046875 
Q 24.21875 56 28.609375 56 
Q 40.484375 56 46.34375 49.84375 
Q 52.203125 43.703125 52.203125 31.203125 
z
" id="DejaVuSans-97"/>
      <path d="M 32.171875 -5.078125 
Q 28.375 -14.84375 24.75 -17.8125 
Q 21.140625 -20.796875 15.09375 -20.796875 
L 7.90625 -20.796875 
L 7.90625 -13.28125 
L 13.1875 -13.28125 
Q 16.890625 -13.28125 18.9375 -11.515625 
Q 21 -9.765625 23.484375 -3.21875 
L 25.09375 0.875 
L 2.984375 54.6875 
L 12.5 54.6875 
L 29.59375 11.921875 
L 46.6875 54.6875 
L 56.203125 54.6875 
z
" id="DejaVuSans-121"/>
     </defs>
     <g transform="translate(217.669375 316.706687)scale(0.1 -0.1)">
      <use xlink:href="#DejaVuSans-68"/>
      <use x="77.001953" xlink:href="#DejaVuSans-97"/>
      <use x="138.28125" xlink:href="#DejaVuSans-121"/>
     </g>
    </g>
   </g>
   <g id="matplotlib.axis_2">
    <g id="ytick_1">
     <g id="line2d_15">
      <path clip-path="url(#pb1b474e3ff)" d="M 48.982813 278.590969 
L 406.102813 278.590969 
" style="fill:none;stroke:#b0b0b0;stroke-dasharray:2.96,1.28;stroke-dashoffset:0;stroke-width:0.8;"/>
     </g>
     <g id="line2d_16">
      <defs>
       <path d="M 0 0 
L -3.5 0 
" id="mc3b8bed44a" style="stroke:#000000;stroke-width:0.8;"/>
      </defs>
      <g>
       <use style="stroke:#000000;stroke-width:0.8;" x="48.982813" xlink:href="#mc3b8bed44a" y="278.590969"/>
      </g>
     </g>
     <g id="text_9">
      <!-- −50 -->
      <defs>
       <path d="M 10.59375 35.5 
L 73.1875 35.5 
L 73.1875 27.203125 
L 10.59375 27.203125 
z
" id="DejaVuSans-8722"/>
       <path d="M 10.796875 72.90625 
L 49.515625 72.90625 
L 49.515625 64.59375 
L 19.828125 64.59375 
L 19.828125 46.734375 
Q 21.96875 47.46875 24.109375 47.828125 
Q 26.265625 48.1875 28.421875 48.1875 
Q 40.625 48.1875 47.75 41.5 
Q 54.890625 34.8125 54.890625 23.390625 
Q 54.890625 11.625 47.5625 5.09375 
Q 40.234375 -1.421875 26.90625 -1.421875 
Q 22.3125 -1.421875 17.546875 -0.640625 
Q 12.796875 0.140625 7.71875 1.703125 
L 7.71875 11.625 
Q 12.109375 9.234375 16.796875 8.0625 
Q 21.484375 6.890625 26.703125 6.890625 
Q 35.15625 6.890625 40.078125 11.328125 
Q 45.015625 15.765625 45.015625 23.390625 
Q 45.015625 31 40.078125 35.4375 
Q 35.15625 39.890625 26.703125 39.890625 
Q 22.75 39.890625 18.8125 39.015625 
Q 14.890625 38.140625 10.796875 36.28125 
z
" id="DejaVuSans-53"/>
      </defs>
      <g transform="translate(20.878125 282.390188)scale(0.1 -0.1)">
       <use xlink:href="#DejaVuSans-8722"/>
       <use x="83.789062" xlink:href="#DejaVuSans-53"/>
       <use x="147.412109" xlink:href="#DejaVuSans-48"/>
      </g>
     </g>
    </g>
    <g id="ytick_2">
     <g id="line2d_17">
      <path clip-path="url(#pb1b474e3ff)" d="M 48.982813 244.396363 
L 406.102813 244.396363 
" style="fill:none;stroke:#b0b0b0;stroke-dasharray:2.96,1.28;stroke-dashoffset:0;stroke-width:0.8;"/>
     </g>
     <g id="line2d_18">
      <g>
       <use style="stroke:#000000;stroke-width:0.8;" x="48.982813" xlink:href="#mc3b8bed44a" y="244.396363"/>
      </g>
     </g>
     <g id="text_10">
      <!-- −25 -->
      <g transform="translate(20.878125 248.195582)scale(0.1 -0.1)">
       <use xlink:href="#DejaVuSans-8722"/>
       <use x="83.789062" xlink:href="#DejaVuSans-50"/>
       <use x="147.412109" xlink:href="#DejaVuSans-53"/>
      </g>
     </g>
    </g>
    <g id="ytick_3">
     <g id="line2d_19">
      <path clip-path="url(#pb1b474e3ff)" d="M 48.982813 210.201757 
L 406.102813 210.201757 
" style="fill:none;stroke:#b0b0b0;stroke-dasharray:2.96,1.28;stroke-dashoffset:0;stroke-width:0.8;"/>
     </g>
     <g id="line2d_20">
      <g>
       <use style="stroke:#000000;stroke-width:0.8;" x="48.982813" xlink:href="#mc3b8bed44a" y="210.201757"/>
      </g>
     </g>
     <g id="text_11">
      <!-- 0 -->
      <g transform="translate(35.620313 214.000975)scale(0.1 -0.1)">
       <use xlink:href="#DejaVuSans-48"/>
      </g>
     </g>
    </g>
    <g id="ytick_4">
     <g id="line2d_21">
      <path clip-path="url(#pb1b474e3ff)" d="M 48.982813 176.00715 
L 406.102813 176.00715 
" style="fill:none;stroke:#b0b0b0;stroke-dasharray:2.96,1.28;stroke-dashoffset:0;stroke-width:0.8;"/>
     </g>
     <g id="line2d_22">
      <g>
       <use style="stroke:#000000;stroke-width:0.8;" x="48.982813" xlink:href="#mc3b8bed44a" y="176.00715"/>
      </g>
     </g>
     <g id="text_12">
      <!-- 25 -->
      <g transform="translate(29.257813 179.806369)scale(0.1 -0.1)">
       <use xlink:href="#DejaVuSans-50"/>
       <use x="63.623047" xlink:href="#DejaVuSans-53"/>
      </g>
     </g>
    </g>
    <g id="ytick_5">
     <g id="line2d_23">
      <path clip-path="url(#pb1b474e3ff)" d="M 48.982813 141.812544 
L 406.102813 141.812544 
" style="fill:none;stroke:#b0b0b0;stroke-dasharray:2.96,1.28;stroke-dashoffset:0;stroke-width:0.8;"/>
     </g>
     <g id="line2d_24">
      <g>
       <use style="stroke:#000000;stroke-width:0.8;" x="48.982813" xlink:href="#mc3b8bed44a" y="141.812544"/>
      </g>
     </g>
     <g id="text_13">
      <!-- 50 -->
      <g transform="translate(29.257813 145.611763)scale(0.1 -0.1)">
       <use xlink:href="#DejaVuSans-53"/>
       <use x="63.623047" xlink:href="#DejaVuSans-48"/>
      </g>
     </g>
    </g>
    <g id="ytick_6">
     <g id="line2d_25">
      <path clip-path="url(#pb1b474e3ff)" d="M 48.982813 107.617938 
L 406.102813 107.617938 
" style="fill:none;stroke:#b0b0b0;stroke-dasharray:2.96,1.28;stroke-dashoffset:0;stroke-width:0.8;"/>
     </g>
     <g id="line2d_26">
      <g>
       <use style="stroke:#000000;stroke-width:0.8;" x="48.982813" xlink:href="#mc3b8bed44a" y="107.617938"/>
      </g>
     </g>
     <g id="text_14">
      <!-- 75 -->
      <defs>
       <path d="M 8.203125 72.90625 
L 55.078125 72.90625 
L 55.078125 68.703125 
L 28.609375 0 
L 18.3125 0 
L 43.21875 64.59375 
L 8.203125 64.59375 
z
" id="DejaVuSans-55"/>
      </defs>
      <g transform="translate(29.257813 111.417157)scale(0.1 -0.1)">
       <use xlink:href="#DejaVuSans-55"/>
       <use x="63.623047" xlink:href="#DejaVuSans-53"/>
      </g>
     </g>
    </g>
    <g id="ytick_7">
     <g id="line2d_27">
      <path clip-path="url(#pb1b474e3ff)" d="M 48.982813 73.423332 
L 406.102813 73.423332 
" style="fill:none;stroke:#b0b0b0;stroke-dasharray:2.96,1.28;stroke-dashoffset:0;stroke-width:0.8;"/>
     </g>
     <g id="line2d_28">
      <g>
       <use style="stroke:#000000;stroke-width:0.8;" x="48.982813" xlink:href="#mc3b8bed44a" y="73.423332"/>
      </g>
     </g>
     <g id="text_15">
      <!-- 100 -->
      <g transform="translate(22.895313 77.222551)scale(0.1 -0.1)">
       <use xlink:href="#DejaVuSans-49"/>
       <use x="63.623047" xlink:href="#DejaVuSans-48"/>
       <use x="127.246094" xlink:href="#DejaVuSans-48"/>
      </g>
     </g>
    </g>
    <g id="ytick_8">
     <g id="line2d_29">
      <path clip-path="url(#pb1b474e3ff)" d="M 48.982813 39.228726 
L 406.102813 39.228726 
" style="fill:none;stroke:#b0b0b0;stroke-dasharray:2.96,1.28;stroke-dashoffset:0;stroke-width:0.8;"/>
     </g>
     <g id="line2d_30">
      <g>
       <use style="stroke:#000000;stroke-width:0.8;" x="48.982813" xlink:href="#mc3b8bed44a" y="39.228726"/>
      </g>
     </g>
     <g id="text_16">
      <!-- 125 -->
      <g transform="translate(22.895313 43.027944)scale(0.1 -0.1)">
       <use xlink:href="#DejaVuSans-49"/>
       <use x="63.623047" xlink:href="#DejaVuSans-50"/>
       <use x="127.246094" xlink:href="#DejaVuSans-53"/>
      </g>
     </g>
    </g>
    <g id="text_17">
     <!-- Change $ -->
     <defs>
      <path d="M 64.40625 67.28125 
L 64.40625 56.890625 
Q 59.421875 61.53125 53.78125 63.8125 
Q 48.140625 66.109375 41.796875 66.109375 
Q 29.296875 66.109375 22.65625 58.46875 
Q 16.015625 50.828125 16.015625 36.375 
Q 16.015625 21.96875 22.65625 14.328125 
Q 29.296875 6.6875 41.796875 6.6875 
Q 48.140625 6.6875 53.78125 8.984375 
Q 59.421875 11.28125 64.40625 15.921875 
L 64.40625 5.609375 
Q 59.234375 2.09375 53.4375 0.328125 
Q 47.65625 -1.421875 41.21875 -1.421875 
Q 24.65625 -1.421875 15.125 8.703125 
Q 5.609375 18.84375 5.609375 36.375 
Q 5.609375 53.953125 15.125 64.078125 
Q 24.65625 74.21875 41.21875 74.21875 
Q 47.75 74.21875 53.53125 72.484375 
Q 59.328125 70.75 64.40625 67.28125 
z
" id="DejaVuSans-67"/>
      <path d="M 54.890625 33.015625 
L 54.890625 0 
L 45.90625 0 
L 45.90625 32.71875 
Q 45.90625 40.484375 42.875 44.328125 
Q 39.84375 48.1875 33.796875 48.1875 
Q 26.515625 48.1875 22.3125 43.546875 
Q 18.109375 38.921875 18.109375 30.90625 
L 18.109375 0 
L 9.078125 0 
L 9.078125 75.984375 
L 18.109375 75.984375 
L 18.109375 46.1875 
Q 21.34375 51.125 25.703125 53.5625 
Q 30.078125 56 35.796875 56 
Q 45.21875 56 50.046875 50.171875 
Q 54.890625 44.34375 54.890625 33.015625 
z
" id="DejaVuSans-104"/>
      <path d="M 54.890625 33.015625 
L 54.890625 0 
L 45.90625 0 
L 45.90625 32.71875 
Q 45.90625 40.484375 42.875 44.328125 
Q 39.84375 48.1875 33.796875 48.1875 
Q 26.515625 48.1875 22.3125 43.546875 
Q 18.109375 38.921875 18.109375 30.90625 
L 18.109375 0 
L 9.078125 0 
L 9.078125 54.6875 
L 18.109375 54.6875 
L 18.109375 46.1875 
Q 21.34375 51.125 25.703125 53.5625 
Q 30.078125 56 35.796875 56 
Q 45.21875 56 50.046875 50.171875 
Q 54.890625 44.34375 54.890625 33.015625 
z
" id="DejaVuSans-110"/>
      <path d="M 45.40625 27.984375 
Q 45.40625 37.75 41.375 43.109375 
Q 37.359375 48.484375 30.078125 48.484375 
Q 22.859375 48.484375 18.828125 43.109375 
Q 14.796875 37.75 14.796875 27.984375 
Q 14.796875 18.265625 18.828125 12.890625 
Q 22.859375 7.515625 30.078125 7.515625 
Q 37.359375 7.515625 41.375 12.890625 
Q 45.40625 18.265625 45.40625 27.984375 
z
M 54.390625 6.78125 
Q 54.390625 -7.171875 48.1875 -13.984375 
Q 42 -20.796875 29.203125 -20.796875 
Q 24.46875 -20.796875 20.265625 -20.09375 
Q 16.0625 -19.390625 12.109375 -17.921875 
L 12.109375 -9.1875 
Q 16.0625 -11.328125 19.921875 -12.34375 
Q 23.78125 -13.375 27.78125 -13.375 
Q 36.625 -13.375 41.015625 -8.765625 
Q 45.40625 -4.15625 45.40625 5.171875 
L 45.40625 9.625 
Q 42.625 4.78125 38.28125 2.390625 
Q 33.9375 0 27.875 0 
Q 17.828125 0 11.671875 7.65625 
Q 5.515625 15.328125 5.515625 27.984375 
Q 5.515625 40.671875 11.671875 48.328125 
Q 17.828125 56 27.875 56 
Q 33.9375 56 38.28125 53.609375 
Q 42.625 51.21875 45.40625 46.390625 
L 45.40625 54.6875 
L 54.390625 54.6875 
z
" id="DejaVuSans-103"/>
      <path d="M 56.203125 29.59375 
L 56.203125 25.203125 
L 14.890625 25.203125 
Q 15.484375 15.921875 20.484375 11.0625 
Q 25.484375 6.203125 34.421875 6.203125 
Q 39.59375 6.203125 44.453125 7.46875 
Q 49.3125 8.734375 54.109375 11.28125 
L 54.109375 2.78125 
Q 49.265625 0.734375 44.1875 -0.34375 
Q 39.109375 -1.421875 33.890625 -1.421875 
Q 20.796875 -1.421875 13.15625 6.1875 
Q 5.515625 13.8125 5.515625 26.8125 
Q 5.515625 40.234375 12.765625 48.109375 
Q 20.015625 56 32.328125 56 
Q 43.359375 56 49.78125 48.890625 
Q 56.203125 41.796875 56.203125 29.59375 
z
M 47.21875 32.234375 
Q 47.125 39.59375 43.09375 43.984375 
Q 39.0625 48.390625 32.421875 48.390625 
Q 24.90625 48.390625 20.390625 44.140625 
Q 15.875 39.890625 15.1875 32.171875 
z
" id="DejaVuSans-101"/>
      <path id="DejaVuSans-32"/>
      <path d="M 33.796875 -14.703125 
L 28.90625 -14.703125 
L 28.859375 0 
Q 23.734375 0.09375 18.609375 1.1875 
Q 13.484375 2.296875 8.296875 4.5 
L 8.296875 13.28125 
Q 13.28125 10.15625 18.375 8.5625 
Q 23.484375 6.984375 28.90625 6.9375 
L 28.90625 29.203125 
Q 18.109375 30.953125 13.203125 35.15625 
Q 8.296875 39.359375 8.296875 46.6875 
Q 8.296875 54.640625 13.625 59.21875 
Q 18.953125 63.8125 28.90625 64.5 
L 28.90625 75.984375 
L 33.796875 75.984375 
L 33.796875 64.65625 
Q 38.328125 64.453125 42.578125 63.6875 
Q 46.828125 62.9375 50.875 61.625 
L 50.875 53.078125 
Q 46.828125 55.125 42.546875 56.25 
Q 38.28125 57.375 33.796875 57.5625 
L 33.796875 36.71875 
Q 44.875 35.015625 50.09375 30.609375 
Q 55.328125 26.21875 55.328125 18.609375 
Q 55.328125 10.359375 49.78125 5.59375 
Q 44.234375 0.828125 33.796875 0.09375 
z
M 28.90625 37.59375 
L 28.90625 57.625 
Q 23.25 56.984375 20.265625 54.390625 
Q 17.28125 51.8125 17.28125 47.515625 
Q 17.28125 43.3125 20.03125 40.96875 
Q 22.796875 38.625 28.90625 37.59375 
z
M 33.796875 28.21875 
L 33.796875 7.078125 
Q 39.984375 7.90625 43.140625 10.59375 
Q 46.296875 13.28125 46.296875 17.671875 
Q 46.296875 21.96875 43.28125 24.5 
Q 40.28125 27.046875 33.796875 28.21875 
z
" id="DejaVuSans-36"/>
     </defs>
     <g transform="translate(14.798438 179.288187)rotate(-90)scale(0.1 -0.1)">
      <use xlink:href="#DejaVuSans-67"/>
      <use x="69.824219" xlink:href="#DejaVuSans-104"/>
      <use x="133.203125" xlink:href="#DejaVuSans-97"/>
      <use x="194.482422" xlink:href="#DejaVuSans-110"/>
      <use x="257.861328" xlink:href="#DejaVuSans-103"/>
      <use x="321.337891" xlink:href="#DejaVuSans-101"/>
      <use x="382.861328" xlink:href="#DejaVuSans-32"/>
      <use x="414.648438" xlink:href="#DejaVuSans-36"/>
     </g>
    </g>
   </g>
   <g id="line2d_31">
    <path clip-path="url(#pb1b474e3ff)" d="M 65.21554 155.991008 
L 65.460193 182.136548 
L 65.704846 195.845391 
L 65.949499 202.723909 
L 66.194152 205.90828 
L 66.438805 204.256671 
L 66.683458 208.037205 
L 66.928111 206.07479 
L 67.172764 208.493829 
L 67.417417 208.516806 
L 67.906723 208.253794 
L 68.151376 208.113996 
L 68.640682 209.71859 
L 68.885335 209.440826 
L 69.129988 208.051156 
L 69.374641 207.992281 
L 69.619294 208.277319 
L 69.863947 208.110442 
L 70.1086 208.127853 
L 70.597906 207.16653 
L 70.842559 206.678529 
L 71.087212 206.889069 
L 71.331865 206.802883 
L 71.821171 206.048661 
L 72.065824 206.991888 
L 72.310477 206.796085 
L 72.55513 206.181725 
L 72.799783 205.887364 
L 73.044436 206.061596 
L 73.289089 206.948405 
L 73.533742 207.267792 
L 73.778395 207.282363 
L 74.023048 207.05661 
L 74.757007 207.182608 
L 75.00166 206.766005 
L 75.980272 207.313711 
L 76.469578 207.100611 
L 76.714231 207.526839 
L 77.203537 207.570732 
L 77.44819 207.057684 
L 77.692843 208.059851 
L 77.937496 208.29972 
L 78.182149 207.88037 
L 78.426802 207.822851 
L 78.671455 208.525537 
L 78.916108 208.304183 
L 79.160761 208.253931 
L 79.405414 208.630303 
L 79.650067 207.910219 
L 79.89472 207.853326 
L 80.384026 208.822904 
L 80.628679 208.916509 
L 80.873332 209.133956 
L 81.362638 207.030734 
L 81.607292 207.479319 
L 81.851945 207.214922 
L 82.096598 207.174692 
L 82.341251 208.118214 
L 82.830557 207.789275 
L 83.319863 208.001696 
L 83.564516 208.522437 
L 83.809169 208.087493 
L 84.053822 208.053621 
L 85.032434 206.050161 
L 85.277087 206.541507 
L 85.52174 206.635112 
L 85.766393 206.344096 
L 86.255699 206.957497 
L 86.500352 206.762833 
L 86.745005 206.739243 
L 86.989658 206.516857 
L 87.234311 206.815198 
L 87.478964 206.466944 
L 87.96827 207.605851 
L 88.212923 207.248253 
L 88.457576 207.278621 
L 88.702229 206.960612 
L 88.946882 206.88873 
L 89.191535 207.541691 
L 89.436188 207.255441 
L 89.680841 206.745198 
L 89.925494 207.35286 
L 90.170147 206.696085 
L 90.4148 207.878323 
L 90.904106 207.508634 
L 91.148759 208.084104 
L 91.393412 207.658259 
L 91.638065 207.633262 
L 91.882718 207.229854 
L 92.127371 207.354237 
L 92.372024 207.190885 
L 92.616677 206.40897 
L 92.86133 206.575127 
L 93.105983 207.244028 
L 93.350636 207.469391 
L 93.839942 206.668436 
L 94.573901 207.580948 
L 94.818554 207.108448 
L 95.063207 207.462823 
L 95.30786 207.518771 
L 95.552513 207.890551 
L 95.797166 208.974786 
L 96.041819 209.138498 
L 96.286472 208.356987 
L 96.531125 206.947771 
L 97.265084 208.000363 
L 97.509737 207.976498 
L 97.999043 208.298523 
L 98.243696 207.969541 
L 98.488349 207.98285 
L 98.977655 206.681824 
L 99.222308 206.617715 
L 99.466961 206.766683 
L 99.956267 206.253412 
L 100.20092 206.778493 
L 100.445573 206.869358 
L 100.934879 207.620624 
L 101.179532 207.90368 
L 101.424185 207.484121 
L 101.668838 207.357856 
L 101.913491 206.965716 
L 102.158144 206.873453 
L 102.402797 206.970835 
L 102.892103 207.856895 
L 103.136756 207.508735 
L 103.381409 208.715688 
L 103.870715 207.823319 
L 104.115369 207.770003 
L 104.604675 208.361702 
L 105.583287 207.415931 
L 105.82794 207.342059 
L 106.072593 207.627956 
L 106.317246 207.547762 
L 107.051205 208.055936 
L 107.295858 207.969649 
L 107.785164 207.508115 
L 108.27447 207.075067 
L 108.519123 207.381129 
L 108.763776 206.88811 
L 109.008429 206.985651 
L 109.253082 207.775309 
L 109.497735 208.138264 
L 109.987041 207.216011 
L 110.231694 207.000064 
L 110.476347 207.687314 
L 110.721 211.141194 
L 110.965653 208.047558 
L 111.210306 206.676099 
L 111.454959 207.364215 
L 111.699612 207.558237 
L 111.944265 207.056141 
L 112.188918 207.4134 
L 112.922877 207.426378 
L 113.16753 207.248657 
L 113.656836 206.570238 
L 113.901489 206.665407 
L 114.146142 206.611132 
L 114.390795 206.818247 
L 114.635448 206.696482 
L 114.880101 206.919913 
L 115.124754 207.465916 
L 115.61406 206.878637 
L 115.858713 207.546536 
L 116.348019 207.32601 
L 116.592672 208.088272 
L 116.837325 208.088466 
L 117.081978 207.231519 
L 117.326631 208.078798 
L 117.571284 208.28711 
L 117.815937 208.348782 
L 118.06059 207.713659 
L 118.305243 207.718201 
L 118.549896 207.473905 
L 118.794549 207.805468 
L 119.039202 207.578757 
L 119.283855 207.767213 
L 119.528508 207.309889 
L 119.773161 207.545519 
L 120.017814 207.451612 
L 120.262467 207.063539 
L 120.50712 206.979639 
L 120.751773 207.258498 
L 120.996426 207.297186 
L 121.241079 207.169313 
L 121.485732 207.291245 
L 121.730385 207.222572 
L 121.975038 207.491698 
L 122.464344 206.711514 
L 122.95365 207.088319 
L 123.198303 206.829603 
L 123.442956 206.810396 
L 123.687609 206.954822 
L 123.932262 206.442676 
L 124.176915 206.55623 
L 124.421568 206.304457 
L 124.910874 207.114331 
L 125.155527 206.747188 
L 125.40018 206.652848 
L 125.644833 206.684759 
L 126.134139 209.629722 
L 126.623446 206.886877 
L 126.868099 206.840237 
L 127.112752 207.805821 
L 127.357405 207.754019 
L 127.846711 207.255218 
L 128.091364 207.632231 
L 128.336017 207.792945 
L 128.58067 208.543526 
L 128.825323 208.337074 
L 129.314629 207.680068 
L 129.559282 208.201487 
L 129.803935 208.205668 
L 130.048588 209.13268 
L 130.293241 209.236313 
L 130.537894 209.003452 
L 130.782547 208.018899 
L 131.271853 208.386453 
L 131.516506 208.219598 
L 131.761159 208.640043 
L 132.005812 208.45716 
L 132.250465 208.434701 
L 132.984424 207.525873 
L 133.229077 207.497711 
L 133.47373 206.951693 
L 134.207689 206.47202 
L 134.452342 206.573411 
L 134.941648 207.349853 
L 135.186301 207.052645 
L 135.430954 207.10573 
L 135.675607 208.113628 
L 136.409566 206.776712 
L 136.654219 206.942991 
L 136.898872 206.739344 
L 137.143525 206.904181 
L 137.388178 207.252154 
L 137.632831 206.882508 
L 137.877484 207.015002 
L 138.122137 207.369615 
L 138.36679 207.98249 
L 138.611443 208.252604 
L 139.100749 208.246901 
L 139.345402 208.244486 
L 139.834708 207.341973 
L 140.324014 208.442812 
L 140.568667 208.349583 
L 140.81332 207.390639 
L 141.057973 207.061686 
L 141.302626 207.109934 
L 141.547279 208.019735 
L 141.791932 208.154515 
L 142.036585 207.641842 
L 142.281238 206.264673 
L 142.525891 205.904408 
L 142.770544 206.635184 
L 143.25985 206.199713 
L 143.504503 206.822242 
L 143.749156 206.753756 
L 143.993809 207.524604 
L 144.483115 207.313739 
L 144.727768 207.575072 
L 144.972421 207.247763 
L 145.217074 207.19679 
L 145.461727 207.953434 
L 145.70638 207.34255 
L 145.951033 206.400181 
L 146.195686 206.534305 
L 146.440339 207.528807 
L 146.684992 207.941452 
L 146.929645 208.08422 
L 147.174298 207.744372 
L 147.663604 206.640152 
L 147.908257 206.526223 
L 148.15291 206.64049 
L 148.397563 207.348498 
L 148.642216 206.747779 
L 148.886869 207.269673 
L 149.131523 207.014404 
L 149.376176 207.552008 
L 149.620829 207.39162 
L 149.865482 206.786416 
L 150.110135 207.674163 
L 150.354788 207.97709 
L 150.599441 207.46942 
L 150.844094 207.491727 
L 151.088747 206.806596 
L 151.3334 207.643248 
L 151.578053 207.944545 
L 151.822706 207.404647 
L 152.067359 207.358418 
L 152.556665 207.518814 
L 152.801318 208.148949 
L 153.290624 207.160373 
L 153.535277 207.106819 
L 153.77993 207.94856 
L 154.024583 208.364745 
L 154.269236 207.864754 
L 154.513889 207.035961 
L 154.758542 207.251534 
L 155.003195 208.202085 
L 155.247848 207.810601 
L 155.492501 207.149868 
L 155.737154 208.525948 
L 155.981807 208.557988 
L 156.471113 207.176675 
L 156.715766 207.864386 
L 156.960419 207.6319 
L 157.449725 208.583194 
L 157.694378 209.799498 
L 157.939031 214.372292 
L 158.183684 209.476853 
L 158.428337 207.884768 
L 158.67299 208.485364 
L 158.917643 208.477938 
L 159.406949 208.648911 
L 159.651602 208.503547 
L 159.896255 209.335102 
L 160.385561 208.223541 
L 160.630214 208.330772 
L 160.874867 207.677235 
L 161.11952 207.898604 
L 161.364173 207.611806 
L 161.608826 207.805367 
L 161.853479 207.460401 
L 162.098132 207.769484 
L 162.342785 207.796297 
L 162.587438 207.961091 
L 163.076744 207.088059 
L 163.321397 207.048723 
L 163.56605 206.741535 
L 163.810703 206.058034 
L 164.055356 206.056426 
L 164.300009 206.295142 
L 164.544662 207.559326 
L 164.789315 209.601611 
L 165.033968 209.664581 
L 165.278621 208.293303 
L 165.523274 207.703529 
L 165.767927 207.898705 
L 166.01258 207.483991 
L 166.501886 208.236144 
L 166.991192 209.464207 
L 167.235845 208.866286 
L 167.480498 207.711279 
L 167.725151 207.418699 
L 167.969804 208.034977 
L 168.703763 207.839376 
L 168.948416 205.736406 
L 169.193069 205.893529 
L 169.437722 206.91736 
L 169.682375 208.512156 
L 169.927028 207.730753 
L 170.171681 207.474135 
L 170.416334 208.377412 
L 170.660987 208.200802 
L 170.90564 208.24543 
L 171.150293 207.520804 
L 171.394947 207.158873 
L 171.6396 207.142551 
L 171.884253 208.310275 
L 172.128906 211.750449 
L 172.373559 207.861502 
L 172.618212 205.774156 
L 172.862865 205.667271 
L 173.352171 207.381511 
L 173.596824 207.198917 
L 173.841477 208.533677 
L 174.08613 208.462322 
L 174.330783 207.854523 
L 174.575436 207.970493 
L 174.820089 207.298303 
L 175.064742 207.357193 
L 175.309395 207.736225 
L 175.554048 207.152269 
L 175.798701 207.447488 
L 176.043354 206.951881 
L 176.288007 207.489031 
L 176.53266 207.409161 
L 177.021966 206.541356 
L 177.266619 206.444896 
L 177.511272 205.971019 
L 177.755925 206.381068 
L 178.000578 206.44941 
L 178.245231 206.286462 
L 178.489884 206.324616 
L 178.734537 206.498263 
L 178.97919 207.974927 
L 179.223843 207.709217 
L 179.468496 206.698053 
L 179.713149 206.516605 
L 180.202455 208.086635 
L 180.691761 207.729542 
L 180.936414 207.826816 
L 181.181067 208.311104 
L 181.42572 208.511183 
L 181.670373 207.543205 
L 182.159679 207.130842 
L 182.404332 207.450214 
L 182.648985 207.232875 
L 182.893638 206.811737 
L 183.138291 207.597055 
L 183.627597 207.781618 
L 183.87225 207.10219 
L 184.116903 206.89757 
L 184.606209 207.724264 
L 184.850862 207.287575 
L 185.095515 207.721662 
L 185.340168 207.588583 
L 185.584821 206.444406 
L 185.829474 206.504961 
L 186.074127 206.431061 
L 186.31878 206.800634 
L 186.563433 206.679423 
L 186.808086 207.199702 
L 187.052739 207.043596 
L 187.297392 208.395869 
L 187.542045 213.192189 
L 187.786698 208.661737 
L 188.031351 206.854736 
L 188.520657 209.095744 
L 188.76531 208.805471 
L 189.009963 207.965828 
L 189.254616 207.650501 
L 189.743922 207.855857 
L 190.477881 207.699506 
L 190.722534 208.130413 
L 190.967187 207.710883 
L 191.456493 207.315477 
L 191.701146 206.888579 
L 191.945799 206.861059 
L 192.190452 207.014995 
L 192.435105 206.862566 
L 192.679758 207.413501 
L 192.924411 207.346357 
L 193.169064 207.577639 
L 193.413717 207.143841 
L 193.65837 206.341047 
L 193.903024 206.949711 
L 194.147677 206.887022 
L 194.39233 207.423292 
L 194.881636 207.452802 
L 195.370942 208.436907 
L 195.615595 207.990694 
L 196.104901 208.907454 
L 196.83886 208.35455 
L 197.083513 209.454488 
L 197.328166 209.386688 
L 197.572819 207.909808 
L 198.062125 208.365639 
L 198.306778 208.983221 
L 198.551431 208.278372 
L 199.040737 208.509048 
L 199.28539 208.890056 
L 199.530043 208.549164 
L 200.019349 207.518238 
L 200.264002 208.143066 
L 200.508655 208.318328 
L 200.753308 207.88223 
L 200.997961 207.741755 
L 201.242614 208.296721 
L 201.487267 208.40344 
L 201.73192 207.577617 
L 202.221226 207.992381 
L 202.710532 207.286429 
L 202.955185 209.200452 
L 203.199838 213.405043 
L 203.444491 209.032673 
L 203.689144 207.047706 
L 203.933797 207.90417 
L 204.17845 207.960507 
L 204.423103 207.567531 
L 204.667756 207.899447 
L 205.401715 208.319885 
L 205.646368 207.661056 
L 206.62498 206.424788 
L 206.869633 207.864177 
L 207.114286 207.314302 
L 207.358939 206.446338 
L 207.603592 206.297276 
L 208.092898 207.132399 
L 208.337551 206.883294 
L 208.826857 206.148668 
L 209.07151 206.687145 
L 209.316163 207.75368 
L 209.560816 207.881488 
L 209.805469 208.426828 
L 210.294775 207.990961 
L 210.539428 207.990521 
L 210.784081 208.326237 
L 211.273387 208.530317 
L 211.51804 208.220629 
L 211.762693 207.508591 
L 212.007346 208.125337 
L 212.251999 208.322553 
L 212.496652 208.27623 
L 212.741305 208.909343 
L 213.230611 206.848536 
L 213.475264 206.822494 
L 213.719917 207.484626 
L 213.96457 207.760241 
L 214.209223 207.498497 
L 214.698529 207.355282 
L 214.943182 207.546997 
L 215.677141 208.580173 
L 215.921794 208.521875 
L 216.166447 208.079685 
L 216.411101 208.570368 
L 216.655754 208.604463 
L 216.900407 207.854704 
L 217.14506 207.855028 
L 217.389713 207.644149 
L 217.634366 209.659643 
L 218.123672 207.356111 
L 218.612978 206.851694 
L 218.857631 207.010691 
L 219.346937 210.910553 
L 219.59159 209.829036 
L 219.836243 206.45941 
L 220.325549 206.944311 
L 220.570202 207.803255 
L 220.814855 207.749852 
L 221.304161 207.113928 
L 221.548814 207.38273 
L 221.793467 207.345665 
L 222.03812 207.565058 
L 222.282773 206.578869 
L 222.772079 206.778305 
L 223.016732 206.652877 
L 223.261385 205.899996 
L 223.506038 206.655941 
L 223.995344 206.003716 
L 224.239997 206.698125 
L 224.729303 206.138084 
L 224.973956 207.185002 
L 225.218609 207.68611 
L 225.463262 207.018499 
L 225.707915 207.479161 
L 225.952568 207.654791 
L 226.197221 208.598702 
L 226.686527 208.750778 
L 226.93118 208.283887 
L 227.175833 208.667801 
L 227.420486 208.163354 
L 227.665139 208.638572 
L 227.909792 208.35685 
L 228.154445 207.535656 
L 228.399098 207.555714 
L 228.643751 207.69283 
L 228.888404 208.724952 
L 229.133057 208.602206 
L 229.37771 208.261854 
L 229.622363 207.236184 
L 230.111669 208.466684 
L 230.600975 207.592527 
L 230.845628 207.756953 
L 231.090281 207.324396 
L 231.334934 206.513879 
L 231.579587 207.526255 
L 231.82424 207.185312 
L 232.313546 208.255373 
L 232.558199 208.235113 
L 232.802852 208.566748 
L 233.047505 207.849671 
L 233.292158 209.074136 
L 233.536811 208.433476 
L 233.781464 209.000272 
L 234.026117 207.211159 
L 234.27077 208.174789 
L 234.515423 208.185431 
L 234.760076 208.684333 
L 235.249382 208.065986 
L 235.494035 207.173394 
L 235.983341 207.279889 
L 236.227994 206.952602 
L 236.472647 205.987991 
L 236.7173 205.939736 
L 236.961953 207.125341 
L 237.206606 207.37485 
L 237.451259 206.364385 
L 237.695912 206.082223 
L 238.185218 208.674116 
L 238.429871 208.175488 
L 238.674524 206.903575 
L 238.919178 207.750962 
L 239.163831 207.78947 
L 239.408484 208.742717 
L 239.653137 209.138671 
L 239.89779 209.191439 
L 240.387096 208.868326 
L 240.631749 208.023621 
L 240.876402 207.900961 
L 241.121055 209.278959 
L 241.365708 209.189414 
L 241.610361 209.515353 
L 242.099667 207.899599 
L 242.588973 209.066458 
L 242.833626 208.8978 
L 243.567585 207.71717 
L 243.812238 207.688799 
L 244.056891 206.866373 
L 244.301544 206.563699 
L 244.546197 207.168816 
L 244.79085 208.289381 
L 245.280156 208.53726 
L 245.524809 207.899693 
L 245.769462 208.510144 
L 246.503421 208.172273 
L 246.992727 208.582466 
L 247.482033 207.419759 
L 247.726686 207.795497 
L 247.971339 208.473129 
L 248.215992 207.735403 
L 248.460645 207.841034 
L 248.705298 207.562462 
L 248.949951 207.719225 
L 249.194604 211.460876 
L 249.439257 208.686957 
L 249.68391 208.434889 
L 249.928563 208.010802 
L 250.173216 208.026707 
L 250.662522 206.634103 
L 250.907175 207.121938 
L 251.151828 207.051441 
L 251.396481 206.431494 
L 251.641134 206.782797 
L 251.885787 207.408743 
L 252.13044 207.387337 
L 252.375093 207.024368 
L 252.619746 207.28958 
L 252.864399 207.947573 
L 253.353705 206.522286 
L 254.087664 209.877125 
L 254.57697 208.257759 
L 254.821623 208.837973 
L 255.066276 208.544694 
L 255.310929 207.601114 
L 255.800235 209.17614 
L 256.289541 208.370938 
L 256.534194 208.260124 
L 256.778847 207.787004 
L 257.0235 208.312957 
L 257.268153 208.047882 
L 257.512806 208.090103 
L 257.757459 208.394312 
L 258.002112 208.266865 
L 258.246765 208.628053 
L 258.491418 210.156699 
L 258.980724 209.037641 
L 259.47003 207.73306 
L 259.714683 208.018366 
L 259.959336 208.848211 
L 260.203989 208.109793 
L 260.448642 207.865086 
L 260.937948 209.125492 
L 261.182601 208.031293 
L 261.427255 207.783925 
L 261.671908 208.034991 
L 261.916561 207.963838 
L 262.161214 208.378739 
L 262.895173 206.988939 
L 263.629132 208.855103 
L 263.873785 208.944425 
L 264.118438 207.614366 
L 264.363091 208.407052 
L 264.607744 208.588774 
L 264.852397 209.779808 
L 265.09705 208.403339 
L 265.586356 208.493576 
L 265.831009 208.039238 
L 266.075662 208.349381 
L 266.320315 207.504719 
L 266.564968 208.137738 
L 266.809621 207.827386 
L 267.054274 208.444312 
L 267.298927 207.915475 
L 267.54358 207.718915 
L 267.788233 207.204461 
L 268.032886 207.871942 
L 268.277539 207.405419 
L 268.522192 208.173116 
L 269.256151 206.332691 
L 269.500804 207.095781 
L 269.745457 207.164569 
L 269.99011 207.757747 
L 270.234763 207.421857 
L 270.479416 206.599005 
L 270.724069 206.489662 
L 270.968722 207.660955 
L 271.213375 207.037965 
L 271.458028 206.796027 
L 271.702681 207.688424 
L 271.947334 207.121159 
L 272.191987 207.878719 
L 272.43664 207.710731 
L 272.681293 206.896106 
L 272.925946 206.888788 
L 273.415252 208.625941 
L 273.659905 209.160762 
L 274.149211 207.485058 
L 274.393864 209.039277 
L 274.638517 208.185654 
L 274.88317 209.260992 
L 275.127823 208.662595 
L 275.617129 209.823831 
L 275.861782 209.761733 
L 276.106435 208.675955 
L 276.351088 209.400018 
L 276.840394 206.229728 
L 277.085047 206.390636 
L 277.3297 205.291714 
L 277.819006 208.41535 
L 278.063659 211.463781 
L 278.308312 210.349359 
L 278.552965 210.612732 
L 278.797618 209.940485 
L 279.042271 209.71957 
L 279.286924 210.322791 
L 279.531577 209.679433 
L 279.77623 211.236053 
L 280.020883 211.436247 
L 280.265536 212.129698 
L 280.510189 211.139435 
L 280.754842 215.221727 
L 281.244148 209.763362 
L 281.488801 208.875954 
L 281.733454 209.279983 
L 281.978107 210.396907 
L 282.467413 206.291054 
L 282.712066 206.520895 
L 282.956719 208.544239 
L 283.201372 209.451302 
L 283.446025 208.91904 
L 283.690678 208.8494 
L 283.935332 209.001181 
L 284.179985 209.512138 
L 284.424638 208.425595 
L 284.669291 208.613309 
L 284.913944 209.790853 
L 285.158597 209.86073 
L 285.647903 210.399503 
L 285.892556 209.782461 
L 286.137209 208.449871 
L 286.381862 208.59367 
L 286.626515 208.587873 
L 286.871168 207.279543 
L 287.115821 207.256342 
L 287.360474 206.704153 
L 287.84978 205.001434 
L 288.583739 208.037522 
L 289.073045 206.523469 
L 289.317698 205.869729 
L 289.562351 207.592801 
L 289.807004 208.273166 
L 290.051657 208.47132 
L 290.29631 208.814015 
L 290.785616 208.400678 
L 291.274922 209.150697 
L 291.519575 209.332557 
L 291.764228 208.684837 
L 292.008881 208.564874 
L 292.253534 208.758737 
L 292.498187 208.456359 
L 292.74284 208.990986 
L 292.987493 208.911542 
L 293.232146 209.044519 
L 293.476799 208.830035 
L 293.721452 209.134064 
L 293.966105 208.824793 
L 294.210758 208.944548 
L 294.455411 209.295159 
L 294.700064 209.318346 
L 294.944717 208.413223 
L 295.18937 208.477953 
L 295.434023 209.277366 
L 295.678676 208.553043 
L 295.923329 208.336619 
L 296.412635 205.104584 
L 296.657288 207.395289 
L 296.901941 207.226141 
L 297.146594 205.736103 
L 297.391247 205.045154 
L 297.6359 206.394868 
L 298.125206 206.426346 
L 298.369859 207.96143 
L 298.614512 208.4223 
L 298.859165 207.769859 
L 299.348471 208.671427 
L 299.593124 209.432549 
L 299.837777 209.226904 
L 300.08243 209.410148 
L 300.327083 209.772418 
L 300.571736 209.57438 
L 300.816389 209.662685 
L 301.061042 210.249986 
L 301.305695 209.643139 
L 301.550348 209.667984 
L 301.795001 209.113523 
L 302.039654 209.653529 
L 302.284307 208.473353 
L 302.52896 209.236623 
L 302.773613 208.075107 
L 303.018266 208.65385 
L 303.262919 208.451976 
L 303.507572 208.659026 
L 303.752225 207.368346 
L 303.996878 207.924977 
L 304.241531 207.54539 
L 304.486184 208.803625 
L 304.730837 208.502192 
L 304.97549 208.960813 
L 305.220143 208.669517 
L 305.464796 208.799653 
L 305.709449 208.762436 
L 305.954102 210.024378 
L 306.443409 208.30791 
L 306.688062 208.811181 
L 306.932715 209.979 
L 307.177368 209.878978 
L 307.422021 209.937197 
L 307.666674 210.130326 
L 308.15598 209.960319 
L 308.400633 210.08251 
L 308.645286 210.34447 
L 308.889939 210.070174 
L 309.134592 209.013235 
L 309.379245 208.541327 
L 309.623898 209.942583 
L 310.357857 207.87838 
L 310.60251 207.91616 
L 311.091816 207.024562 
L 311.581122 209.354705 
L 311.825775 211.154201 
L 312.070428 210.533186 
L 312.559734 208.594477 
L 312.804387 209.650652 
L 313.04904 209.738186 
L 313.293693 210.39168 
L 313.538346 210.172258 
L 314.027652 210.27636 
L 314.272305 210.601852 
L 314.761611 209.957255 
L 315.006264 210.856004 
L 315.49557 209.996411 
L 315.740223 210.795255 
L 315.984876 210.136944 
L 316.718835 209.285433 
L 316.963488 209.869209 
L 317.208141 209.095542 
L 317.697447 209.231317 
L 317.9421 210.053058 
L 318.186753 210.330628 
L 318.431406 210.227665 
L 318.676059 209.321316 
L 318.920712 209.72523 
L 319.165365 211.495411 
L 319.410018 210.276374 
L 319.654671 210.949904 
L 319.899324 210.297729 
L 320.143977 210.970135 
L 320.38863 210.851412 
L 320.633283 209.522779 
L 320.877936 209.284467 
L 321.367242 210.487412 
L 321.611895 209.856938 
L 322.101201 209.93652 
L 322.345854 211.496679 
L 322.590507 211.529325 
L 322.83516 210.884699 
L 323.079813 209.484171 
L 323.324466 210.169626 
L 323.813772 209.179176 
L 324.058425 209.5081 
L 324.303078 208.418659 
L 324.547731 208.992925 
L 324.792384 207.196444 
L 325.28169 205.745483 
L 325.526343 206.944613 
L 326.015649 207.397907 
L 326.260302 207.264749 
L 326.504955 206.999393 
L 326.749608 207.700667 
L 326.994261 207.358231 
L 327.238914 206.278495 
L 327.483567 207.13653 
L 327.72822 207.331713 
L 327.972873 206.413101 
L 328.217526 207.067533 
L 328.462179 208.080413 
L 328.951486 208.296151 
L 329.440792 210.145776 
L 329.685445 209.311691 
L 330.174751 206.066015 
L 330.664057 208.971044 
L 330.90871 209.346017 
L 331.153363 210.035978 
L 331.398016 210.188191 
L 331.887322 211.323666 
L 332.131975 210.932486 
L 332.376628 210.301298 
L 332.621281 210.734159 
L 332.865934 209.78045 
L 333.110587 209.402124 
L 333.35524 208.563915 
L 333.599893 209.03728 
L 333.844546 209.10051 
L 334.089199 209.508655 
L 334.333852 208.221256 
L 334.578505 207.933442 
L 334.823158 207.418361 
L 335.067811 208.462106 
L 335.557117 207.834761 
L 335.80177 206.601154 
L 336.046423 208.43274 
L 336.535729 208.241314 
L 336.780382 207.313242 
L 337.025035 207.211346 
L 337.269688 208.625248 
L 337.514341 209.178361 
L 337.758994 209.238253 
L 338.003647 208.166144 
L 338.2483 208.868838 
L 338.492953 209.0894 
L 338.737606 209.606896 
L 338.982259 210.646257 
L 339.226912 210.905211 
L 339.471565 209.989937 
L 339.960871 210.381291 
L 340.205524 211.894421 
L 340.450177 211.65616 
L 340.69483 210.856026 
L 340.939483 211.043855 
L 341.184136 210.254745 
L 341.428789 211.196724 
L 341.673442 210.009966 
L 342.162748 210.26274 
L 342.407401 209.426659 
L 342.652054 208.124832 
L 342.896707 207.56469 
L 343.630666 210.834685 
L 343.875319 207.821027 
L 344.119972 206.195683 
L 344.609278 208.054407 
L 344.853931 208.269511 
L 345.343237 209.368771 
L 345.58789 209.511395 
L 345.832543 209.810832 
L 346.077196 210.932039 
L 346.321849 211.053653 
L 346.566502 210.90113 
L 346.811155 210.092582 
L 347.055808 210.072035 
L 347.300461 211.484949 
L 347.545114 209.981653 
L 347.789767 210.485833 
L 348.03442 209.043718 
L 348.279073 209.607747 
L 348.523726 207.98373 
L 348.768379 207.269947 
L 349.013032 207.968106 
L 349.257685 208.037558 
L 349.502338 207.392204 
L 349.746991 207.831964 
L 349.991644 206.723994 
L 350.236297 208.190564 
L 350.48095 208.327773 
L 350.725603 208.026166 
L 350.970256 208.959645 
L 351.21491 208.594715 
L 351.459563 210.346612 
L 351.704216 208.871073 
L 351.948869 208.857144 
L 352.193522 210.701484 
L 352.438175 210.479892 
L 352.682828 210.978015 
L 352.927481 211.11516 
L 353.172134 210.702299 
L 353.416787 211.092045 
L 353.66144 211.202895 
L 354.150746 214.083786 
L 354.395399 212.779176 
L 354.884705 211.802972 
L 355.129358 212.015452 
L 355.374011 211.011296 
L 355.618664 211.629794 
L 355.863317 210.386633 
L 356.352623 209.411943 
L 356.597276 207.431237 
L 356.841929 207.905619 
L 357.086582 207.95347 
L 357.331235 208.448594 
L 357.575888 208.395112 
L 358.065194 211.583572 
L 358.5545 209.864883 
L 358.799153 210.156432 
L 359.043806 210.257138 
L 359.288459 211.834695 
L 359.777765 210.811686 
L 360.022418 209.271482 
L 360.267071 209.31508 
L 360.511724 207.990637 
L 360.756377 209.121469 
L 361.00103 207.344165 
L 361.245683 208.154666 
L 361.490336 206.68124 
L 361.734989 207.392326 
L 361.979642 207.038196 
L 362.224295 207.428634 
L 362.468948 208.111732 
L 362.713601 210.319928 
L 363.202907 211.134922 
L 363.44756 212.280015 
L 363.692213 211.9322 
L 363.936866 213.720954 
L 364.181519 213.523579 
L 364.426172 214.310166 
L 364.670825 213.375598 
L 364.915478 215.429635 
L 365.160131 213.246932 
L 365.404784 212.98813 
L 365.649437 211.480544 
L 365.89409 211.194849 
L 366.138743 209.836621 
L 366.383396 212.765759 
L 366.628049 211.089031 
L 366.872702 210.545695 
L 367.117355 208.389323 
L 367.362008 209.493241 
L 367.606661 207.888496 
L 368.095967 208.608428 
L 368.34062 207.238426 
L 368.585273 206.824578 
L 368.829926 205.913572 
L 369.074579 207.139818 
L 369.319232 206.231804 
L 369.563885 207.332536 
L 369.808538 206.294623 
L 370.297844 207.303451 
L 370.542497 206.523252 
L 370.78715 208.190398 
L 371.031803 207.389074 
L 371.276456 209.020431 
L 371.521109 209.122247 
L 372.499721 210.781095 
L 372.744374 211.481777 
L 372.989027 210.84046 
L 373.23368 214.566517 
L 373.478333 210.956674 
L 373.722987 211.924976 
L 373.96764 210.466763 
L 374.212293 210.528983 
L 374.456946 211.078138 
L 374.701599 210.365487 
L 374.946252 210.141133 
L 375.435558 208.334572 
L 375.680211 209.754639 
L 375.924864 207.923045 
L 376.169517 208.087118 
L 376.658823 207.010359 
L 377.148129 206.134645 
L 377.392782 207.629434 
L 377.637435 206.207738 
L 378.126741 204.789632 
L 378.371394 206.321653 
L 379.105353 206.390109 
L 379.594659 206.783201 
L 379.839312 208.628428 
L 380.083965 208.457138 
L 380.573271 210.31336 
L 380.817924 209.908618 
L 381.062577 211.083566 
L 381.551883 210.873473 
L 382.041189 210.606805 
L 382.285842 211.840283 
L 382.530495 210.210095 
L 382.775148 209.61399 
L 383.264454 207.038131 
L 383.509107 207.689405 
L 383.75376 207.542297 
L 383.998413 207.589824 
L 384.487719 205.864026 
L 384.732372 207.267532 
L 384.977025 207.168535 
L 385.221678 208.77036 
L 385.466331 209.109277 
L 385.710984 208.756567 
L 385.955637 209.472924 
L 386.20029 209.429997 
L 386.444943 211.296637 
L 386.689596 211.007503 
L 386.934249 211.248339 
L 387.178902 212.087103 
L 387.668208 211.511943 
L 387.912861 211.734516 
L 388.157514 213.588409 
L 388.402167 211.512433 
L 388.64682 210.4215 
L 388.891473 207.935467 
L 389.136126 215.720975 
L 389.870085 207.9059 
L 389.870085 207.9059 
" style="fill:none;stroke:#1f77b4;stroke-linecap:square;stroke-width:1.5;"/>
   </g>
   <g id="line2d_32">
    <path clip-path="url(#pb1b474e3ff)" d="M 65.21554 211.884131 
L 65.460193 214.017875 
L 65.704846 211.856776 
L 65.949499 211.95252 
L 66.194152 204.511774 
L 66.438805 211.542185 
L 66.683458 206.686551 
L 66.928111 213.183526 
L 67.172764 210.639448 
L 67.417417 211.993554 
L 67.906723 209.175918 
L 68.151376 204.416029 
L 68.396029 204.552808 
L 68.640682 210.721515 
L 68.885335 211.32334 
L 69.129988 211.432762 
L 69.374641 205.209344 
L 69.619294 212.800547 
L 69.863947 203.992016 
L 70.1086 212.691124 
L 70.353253 207.206309 
L 70.597906 208.820295 
L 70.842559 211.432762 
L 71.087212 207.397799 
L 71.331865 210.735192 
L 71.576518 212.472278 
L 71.821171 203.14399 
L 72.065824 199.587751 
L 72.310477 213.005714 
L 72.55513 212.14401 
L 72.799783 210.256468 
L 73.044436 203.896271 
L 73.533742 214.674411 
L 73.778395 209.175918 
L 74.023048 206.194149 
L 74.512354 214.770156 
L 74.757007 213.840063 
L 75.00166 213.41605 
L 75.246313 214.017875 
L 75.490966 200.73669 
L 75.735619 213.306627 
L 75.980272 213.361338 
L 76.224925 212.130332 
L 76.469578 202.925144 
L 76.714231 203.978338 
L 76.958884 212.882614 
L 77.203537 209.449475 
L 77.44819 221.280809 
L 77.692843 218.367429 
L 77.937496 211.25495 
L 78.182149 212.745835 
L 78.426802 207.712389 
L 78.671455 210.530025 
L 78.916108 205.346123 
L 79.160761 213.812707 
L 79.650067 218.709375 
L 79.89472 209.476831 
L 80.139373 218.162261 
L 80.384026 217.820315 
L 80.628679 189.247302 
L 80.873332 217.519402 
L 81.117985 211.227595 
L 81.362638 209.818777 
L 81.851945 205.783813 
L 82.096598 217.72457 
L 82.341251 216.64402 
L 82.585904 211.624252 
L 82.830557 209.982911 
L 83.07521 210.023945 
L 83.319863 215.194169 
L 83.564516 213.41605 
L 83.809169 203.868916 
L 84.053822 204.074083 
L 84.298475 204.634875 
L 84.543128 204.388674 
L 84.787781 207.671356 
L 85.032434 205.086244 
L 85.277087 210.502669 
L 85.52174 205.127277 
L 85.766393 204.511774 
L 86.255699 212.554346 
L 86.500352 207.247343 
L 86.745005 208.191114 
L 86.989658 211.008749 
L 87.234311 210.338535 
L 87.478964 217.72457 
L 87.723617 206.207827 
L 88.457576 213.019392 
L 88.702229 203.814204 
L 88.946882 201.256448 
L 89.191535 213.498117 
L 89.436188 205.400834 
L 89.680841 216.466208 
L 89.925494 207.876523 
L 90.170147 223.865921 
L 90.4148 210.639448 
L 90.659453 214.482921 
L 90.904106 202.419064 
L 91.148759 201.393226 
L 91.393412 208.601449 
L 91.638065 209.285341 
L 91.882718 197.467685 
L 92.127371 213.046748 
L 92.372024 210.24279 
L 92.616677 211.583219 
L 93.105983 203.65007 
L 93.350636 211.337018 
L 93.595289 214.264076 
L 93.839942 208.081691 
L 94.084595 207.95859 
L 94.329248 212.84158 
L 94.573901 213.046748 
L 95.063207 196.017834 
L 95.30786 221.075641 
L 95.552513 231.662291 
L 95.797166 193.227554 
L 96.041819 220.13187 
L 96.286472 210.885649 
L 96.531125 217.068034 
L 96.775778 200.750367 
L 97.020431 216.589309 
L 97.509737 207.849168 
L 97.75439 216.685054 
L 97.999043 208.163758 
L 98.243696 195.47072 
L 98.488349 210.516347 
L 98.733002 215.878061 
L 98.977655 203.827882 
L 99.222308 214.770156 
L 99.466961 210.844615 
L 99.711614 210.913004 
L 99.956267 217.792959 
L 100.445573 204.881076 
L 100.690226 208.806617 
L 100.934879 208.191114 
L 101.179532 200.121187 
L 101.668838 212.663768 
L 101.913491 210.078656 
L 102.158144 209.777743 
L 102.402797 214.23672 
L 102.64745 206.24886 
L 102.892103 208.875006 
L 103.136756 223.004217 
L 103.381409 215.563471 
L 103.626062 215.577149 
L 104.115369 209.011784 
L 104.360022 215.522437 
L 104.604675 204.238217 
L 104.849328 212.568023 
L 105.093981 204.333962 
L 105.338634 203.376513 
L 105.583287 208.574093 
L 105.82794 216.876544 
L 106.072593 207.862846 
L 106.317246 216.069551 
L 106.561899 210.133367 
L 106.806552 215.12578 
L 107.051205 205.455545 
L 107.295858 207.206309 
L 107.785164 203.253413 
L 108.029817 206.071048 
L 108.27447 217.245845 
L 108.519123 203.882593 
L 108.763776 216.958611 
L 109.008429 221.116675 
L 109.253082 208.970751 
L 109.742388 202.884111 
L 109.987041 210.365891 
L 110.231694 202.104474 
L 110.476347 237.406985 
L 110.965653 204.634875 
L 111.210306 217.833993 
L 111.454959 204.292929 
L 111.699612 202.678943 
L 111.944265 213.388694 
L 112.188918 207.45251 
L 112.433571 208.902362 
L 112.678224 208.177436 
L 112.922877 205.455545 
L 113.16753 208.998106 
L 113.412183 204.976821 
L 113.656836 212.622735 
L 113.901489 213.53915 
L 114.146142 202.295964 
L 114.390795 213.306627 
L 114.635448 208.519382 
L 114.880101 218.271684 
L 115.124754 211.788386 
L 115.369407 210.283824 
L 115.61406 202.610554 
L 115.858713 212.609057 
L 116.103366 208.423637 
L 116.348019 206.960108 
L 116.592672 213.375016 
L 116.837325 211.815742 
L 117.081978 208.191114 
L 117.326631 209.299019 
L 117.571284 197.836987 
L 117.815937 204.457063 
L 118.06059 218.80512 
L 118.305243 214.455566 
L 118.549896 204.566485 
L 118.794549 212.663768 
L 119.039202 204.634875 
L 119.283855 205.140955 
L 119.528508 215.12578 
L 119.773161 216.657698 
L 120.017814 210.311179 
L 120.262467 213.963163 
L 120.751773 202.706299 
L 120.996426 210.229112 
L 121.241079 210.010267 
L 121.485732 204.169828 
L 121.730385 207.972268 
L 121.975038 209.791421 
L 122.219691 207.671356 
L 122.464344 203.759493 
L 122.708997 208.916039 
L 122.95365 209.107529 
L 123.198303 200.175898 
L 123.442956 199.409939 
L 123.687609 211.542185 
L 124.176915 207.712389 
L 124.421568 216.466208 
L 124.666221 208.669838 
L 124.910874 212.595379 
L 125.155527 213.511794 
L 125.40018 213.101459 
L 125.889486 198.425134 
L 126.134139 218.285362 
L 126.623446 211.82942 
L 126.868099 204.251895 
L 127.112752 212.061943 
L 127.357405 214.606022 
L 127.602058 210.530025 
L 127.846711 215.454048 
L 128.336017 208.122725 
L 128.825323 213.92213 
L 129.069976 213.799029 
L 129.314629 216.862866 
L 129.803935 209.175918 
L 130.048588 208.122725 
L 130.293241 213.648573 
L 130.537894 203.14399 
L 131.0272 215.399337 
L 131.271853 217.423657 
L 131.516506 209.312697 
L 131.761159 206.919074 
L 132.005812 214.305109 
L 132.250465 199.505684 
L 132.495118 203.581681 
L 132.739771 209.572576 
L 132.984424 207.794456 
L 133.229077 204.935787 
L 133.47373 209.312697 
L 133.718383 211.186561 
L 133.963036 211.268628 
L 134.207689 211.487474 
L 134.452342 212.745835 
L 134.696995 199.109026 
L 134.941648 199.450972 
L 135.186301 210.160723 
L 135.430954 204.34764 
L 135.675607 216.83551 
L 135.92026 206.590806 
L 136.164913 212.226077 
L 136.409566 202.719977 
L 136.654219 213.087781 
L 136.898872 214.81119 
L 137.143525 198.835469 
L 137.632831 218.066516 
L 137.877484 204.34764 
L 138.122137 222.525493 
L 138.611443 217.040678 
L 138.856096 200.709334 
L 139.100749 202.378031 
L 139.590055 216.083229 
L 139.834708 204.607519 
L 140.079361 209.818777 
L 140.324014 185.362795 
L 140.568667 213.607539 
L 140.81332 201.858273 
L 141.057973 218.10755 
L 141.302626 202.747332 
L 141.547279 167.554244 
L 141.791932 217.355268 
L 142.036585 203.992016 
L 142.281238 212.417567 
L 142.525891 206.166793 
L 142.770544 217.081711 
L 143.015197 210.55738 
L 143.25985 209.996589 
L 143.504503 213.908452 
L 143.749156 227.463194 
L 143.993809 200.969213 
L 144.238462 204.634875 
L 144.483115 216.83551 
L 144.727768 201.05128 
L 144.972421 194.909929 
L 145.217074 207.780778 
L 145.461727 214.291431 
L 145.70638 211.897809 
L 145.951033 213.443405 
L 146.195686 201.516327 
L 146.440339 205.564968 
L 146.684992 204.279251 
L 146.929645 203.732137 
L 147.174298 202.897789 
L 147.418951 200.750367 
L 147.908257 220.651628 
L 148.15291 208.423637 
L 148.397563 212.212399 
L 148.642216 206.837007 
L 148.886869 213.019392 
L 149.131523 206.24886 
L 149.376176 217.847671 
L 149.865482 206.112082 
L 150.110135 203.732137 
L 150.354788 212.007232 
L 150.599441 198.835469 
L 150.844094 211.25495 
L 151.088747 200.613589 
L 151.578053 215.289914 
L 151.822706 203.102956 
L 152.067359 218.832475 
L 152.312012 216.64402 
L 152.556665 202.788366 
L 152.801318 211.32334 
L 153.045971 212.294466 
L 153.290624 214.04523 
L 153.535277 204.183506 
L 153.77993 204.881076 
L 154.024583 211.44644 
L 154.513889 219.338555 
L 154.758542 201.229092 
L 155.003195 212.485956 
L 155.247848 210.297501 
L 155.737154 200.025442 
L 155.981807 213.634895 
L 156.22646 216.589309 
L 156.471113 226.984469 
L 156.960419 199.054315 
L 157.205072 224.194189 
L 157.449725 184.473735 
L 157.694378 270.821954 
L 157.939031 227.353771 
L 158.183684 207.739745 
L 158.428337 212.253433 
L 158.67299 199.067993 
L 158.917643 201.324837 
L 159.162296 210.488991 
L 159.406949 208.943395 
L 159.651602 227.353771 
L 159.896255 199.327872 
L 160.140908 209.996589 
L 160.630214 218.777764 
L 160.874867 206.891719 
L 161.11952 214.359821 
L 161.364173 203.33548 
L 161.608826 201.256448 
L 161.853479 208.177436 
L 162.098132 209.750388 
L 162.342785 207.507222 
L 162.587438 213.375016 
L 163.076744 198.616624 
L 163.321397 210.488991 
L 163.56605 210.338535 
L 163.810703 212.294466 
L 164.055356 212.540668 
L 164.300009 207.712389 
L 164.544662 209.011784 
L 164.789315 207.151598 
L 165.033968 208.423637 
L 165.278621 205.099921 
L 165.523274 217.779281 
L 165.767927 216.028517 
L 166.01258 221.622755 
L 166.257233 222.197224 
L 166.501886 206.289894 
L 166.746539 225.657719 
L 167.235845 210.447958 
L 167.480498 212.827902 
L 167.725151 201.147025 
L 168.214457 221.609077 
L 168.45911 224.727625 
L 168.703763 217.368946 
L 168.948416 197.467685 
L 169.193069 203.718459 
L 169.437722 230.308185 
L 169.927028 204.484418 
L 170.171681 209.969233 
L 170.416334 199.806596 
L 170.660987 208.519382 
L 170.90564 202.049762 
L 171.150293 212.321822 
L 171.394947 216.685054 
L 171.6396 193.008709 
L 171.884253 255.776328 
L 172.128906 220.118192 
L 172.373559 205.004176 
L 172.862865 205.058888 
L 173.107518 210.037622 
L 173.352171 207.411477 
L 173.596824 227.531583 
L 173.841477 216.589309 
L 174.08613 216.206329 
L 174.575436 195.675888 
L 175.064742 219.803602 
L 175.554048 206.768618 
L 175.798701 211.501152 
L 176.043354 204.128795 
L 176.288007 204.976821 
L 176.53266 210.338535 
L 176.777313 200.175898 
L 177.021966 212.14401 
L 177.266619 211.104494 
L 177.511272 205.250378 
L 177.755925 211.884131 
L 178.000578 215.276236 
L 178.489884 210.762548 
L 178.734537 187.236659 
L 179.223843 213.169848 
L 179.468496 203.485936 
L 179.713149 206.385639 
L 179.957802 222.908472 
L 180.202455 209.709354 
L 180.447108 208.355248 
L 180.691761 212.937325 
L 180.936414 198.219967 
L 181.181067 220.296004 
L 181.670373 206.043692 
L 181.915026 214.414532 
L 182.159679 205.715424 
L 182.404332 212.595379 
L 182.648985 211.733675 
L 182.893638 209.914522 
L 183.138291 199.792918 
L 183.382944 209.572576 
L 183.627597 203.855238 
L 184.116903 223.523975 
L 184.361556 201.776206 
L 184.606209 213.005714 
L 184.850862 185.198661 
L 185.340168 211.405407 
L 185.584821 208.204792 
L 185.829474 214.920612 
L 186.074127 201.707816 
L 186.31878 208.697194 
L 186.563433 208.72455 
L 186.808086 213.894774 
L 187.052739 209.558898 
L 187.297392 257.527092 
L 187.542045 215.12578 
L 188.031351 206.768618 
L 188.276004 223.223063 
L 188.520657 218.312717 
L 188.76531 201.188058 
L 189.009963 212.02091 
L 189.254616 208.054335 
L 189.499269 213.53915 
L 189.743922 202.884111 
L 189.988575 208.109047 
L 190.233228 208.84765 
L 190.477881 200.681978 
L 190.722534 200.723012 
L 190.967187 209.627287 
L 191.21184 208.970751 
L 191.456493 209.381086 
L 191.701146 209.312697 
L 191.945799 214.127297 
L 192.190452 212.007232 
L 192.679758 199.519362 
L 193.169064 214.523955 
L 193.413717 211.542185 
L 193.65837 205.633357 
L 193.903024 214.824867 
L 194.147677 200.695656 
L 194.881636 227.42216 
L 195.126289 208.040657 
L 195.370942 211.309662 
L 195.615595 209.285341 
L 195.860248 220.186582 
L 196.104901 204.908432 
L 196.349554 215.344625 
L 196.83886 201.55736 
L 197.083513 219.530045 
L 197.572819 203.937305 
L 197.817472 218.791442 
L 198.062125 208.450993 
L 198.306778 212.102977 
L 198.551431 209.35373 
L 198.796084 217.013322 
L 199.28539 204.279251 
L 199.774696 217.34159 
L 200.019349 202.378031 
L 200.264002 220.227615 
L 200.508655 215.645538 
L 200.753308 216.958611 
L 200.997961 207.657678 
L 201.242614 213.402372 
L 201.487267 214.455566 
L 201.73192 209.134885 
L 201.976573 206.686551 
L 202.221226 197.727564 
L 202.465879 213.429727 
L 202.710532 209.914522 
L 202.955185 245.928281 
L 203.199838 206.221504 
L 203.444491 202.514809 
L 203.689144 212.212399 
L 203.933797 203.431225 
L 204.17845 201.461615 
L 204.423103 209.846133 
L 204.912409 218.80512 
L 205.157062 210.037622 
L 205.646368 203.020889 
L 205.891021 200.764045 
L 206.135674 210.885649 
L 206.62498 194.691083 
L 206.869633 216.726087 
L 207.114286 207.630322 
L 207.358939 207.999624 
L 207.603592 204.73062 
L 207.848245 207.343088 
L 208.092898 206.084726 
L 208.337551 211.022427 
L 208.582204 212.212399 
L 208.826857 203.26709 
L 209.07151 227.490549 
L 209.316163 209.777743 
L 209.560816 223.61972 
L 209.805469 209.613609 
L 210.050122 216.083229 
L 210.294775 218.394784 
L 210.539428 202.186541 
L 210.784081 219.3112 
L 211.028734 208.122725 
L 211.51804 211.911487 
L 211.762693 225.261061 
L 212.007346 204.976821 
L 212.251999 211.774708 
L 212.741305 201.119669 
L 212.985958 210.543703 
L 213.230611 214.660733 
L 213.475264 201.912984 
L 213.719917 206.166793 
L 213.96457 212.581701 
L 214.209223 210.133367 
L 214.453876 212.704802 
L 214.698529 218.859831 
L 214.943182 219.639468 
L 215.187835 205.920592 
L 215.432488 207.411477 
L 215.677141 215.030035 
L 215.921794 217.751926 
L 216.166447 205.647035 
L 216.655754 218.846153 
L 216.900407 205.017854 
L 217.14506 211.979876 
L 217.634366 192.324816 
L 217.879019 207.370443 
L 218.123672 213.935808 
L 218.368325 214.182009 
L 218.612978 214.086264 
L 218.857631 199.437295 
L 219.102284 151.72898 
L 219.346937 196.605981 
L 219.59159 211.460118 
L 219.836243 208.560415 
L 220.080896 197.700209 
L 220.325549 209.668321 
L 220.570202 215.289914 
L 220.814855 206.864363 
L 221.059508 207.274698 
L 221.304161 207.425155 
L 221.548814 203.827882 
L 221.793467 218.955576 
L 222.03812 213.019392 
L 222.282773 202.501131 
L 222.527426 203.827882 
L 222.772079 215.016357 
L 223.016732 212.321822 
L 223.261385 200.928179 
L 223.750691 216.548276 
L 223.995344 202.692621 
L 224.239997 211.624252 
L 224.48465 212.786869 
L 224.729303 203.212379 
L 224.973956 220.788407 
L 225.218609 212.294466 
L 225.463262 222.580204 
L 225.707915 214.496599 
L 225.952568 199.437295 
L 226.197221 215.207847 
L 226.441874 206.412994 
L 226.686527 212.157688 
L 226.93118 205.811169 
L 227.175833 212.786869 
L 227.420486 203.020889 
L 227.665139 214.824867 
L 227.909792 211.596897 
L 228.154445 214.482921 
L 228.399098 215.139458 
L 228.643751 205.811169 
L 228.888404 204.689586 
L 229.133057 213.607539 
L 229.37771 212.732157 
L 229.867016 203.65007 
L 230.111669 213.799029 
L 230.356322 200.914502 
L 230.845628 211.419085 
L 231.090281 210.598414 
L 231.334934 206.44035 
L 231.579587 212.472278 
L 231.82424 206.659195 
L 232.068893 224.536136 
L 232.313546 191.121166 
L 232.558199 207.917557 
L 232.802852 212.089299 
L 233.047505 209.941878 
L 233.292158 134.823167 
L 233.536811 219.147066 
L 233.781464 222.853761 
L 234.026117 210.11969 
L 234.27077 220.583239 
L 234.515423 208.710872 
L 234.760076 209.969233 
L 235.004729 212.732157 
L 235.249382 213.060426 
L 235.494035 199.560395 
L 235.738688 200.887146 
L 235.983341 211.350695 
L 236.227994 212.704802 
L 236.472647 215.878061 
L 236.7173 202.802044 
L 236.961953 218.791442 
L 237.206606 211.241273 
L 237.451259 215.030035 
L 237.940565 199.574073 
L 238.185218 215.672894 
L 238.429871 213.156171 
L 238.674524 202.06344 
L 238.919178 216.83551 
L 239.163831 206.56345 
L 239.408484 207.890201 
L 239.653137 210.106012 
L 239.89779 202.542165 
L 240.142443 218.148583 
L 240.387096 215.44037 
L 240.631749 214.920612 
L 241.121055 202.966178 
L 241.365708 207.192631 
L 241.855014 218.750408 
L 242.099667 205.291411 
L 242.34432 209.449475 
L 242.588973 194.362815 
L 242.833626 216.315752 
L 243.322932 196.934249 
L 243.567585 217.245845 
L 243.812238 211.213917 
L 244.056891 212.937325 
L 244.301544 221.472299 
L 244.546197 204.416029 
L 244.79085 205.688069 
L 245.280156 212.485956 
L 245.524809 209.271663 
L 245.769462 219.803602 
L 246.014115 203.786848 
L 246.503421 193.706279 
L 246.748074 196.523914 
L 246.992727 216.192652 
L 247.23738 190.65612 
L 247.482033 199.902341 
L 247.726686 203.239735 
L 247.971339 210.338535 
L 248.215992 209.832455 
L 248.460645 218.531563 
L 248.705298 145.587629 
L 248.949951 207.479866 
L 249.194604 217.560436 
L 249.68391 199.587751 
L 249.928563 211.036105 
L 250.173216 211.733675 
L 250.417869 214.482921 
L 250.662522 203.212379 
L 250.907175 220.528528 
L 251.151828 219.557401 
L 251.396481 208.314214 
L 251.641134 205.469223 
L 251.885787 212.321822 
L 252.13044 205.072566 
L 252.375093 207.657678 
L 252.619746 205.140955 
L 252.864399 210.475313 
L 253.109052 213.074104 
L 253.353705 233.645579 
L 253.598358 239.349239 
L 253.843011 252.739847 
L 254.332317 163.149978 
L 254.821623 210.694159 
L 255.066276 217.204812 
L 255.310929 232.565029 
L 255.555582 191.039099 
L 255.800235 218.175939 
L 256.044888 218.025482 
L 256.289541 184.843037 
L 256.534194 211.090816 
L 256.778847 202.884111 
L 257.0235 200.35371 
L 257.268153 221.226098 
L 257.512806 208.84765 
L 257.757459 203.33548 
L 258.002112 194.499593 
L 258.246765 208.300536 
L 258.491418 199.081671 
L 258.736071 223.865921 
L 258.980724 213.388694 
L 259.225377 213.375016 
L 259.47003 223.195707 
L 259.714683 237.817321 
L 259.959336 221.130353 
L 260.203989 188.56341 
L 260.448642 198.124222 
L 260.693295 194.034547 
L 260.937948 194.96464 
L 261.182601 218.682019 
L 261.427255 204.101439 
L 261.671908 222.210902 
L 261.916561 201.119669 
L 262.161214 195.990478 
L 262.405867 211.966198 
L 262.65052 215.768638 
L 262.895173 186.115076 
L 263.629132 226.984469 
L 263.873785 217.191134 
L 264.118438 199.067993 
L 264.363091 162.165174 
L 264.607744 197.098383 
L 264.852397 206.919074 
L 265.341703 197.276195 
L 265.586356 211.090816 
L 265.831009 206.850685 
L 266.075662 214.359821 
L 266.320315 188.809611 
L 266.564968 190.095328 
L 267.054274 215.508759 
L 267.54358 191.640924 
L 268.032886 242.00274 
L 268.277539 202.733655 
L 268.522192 216.370464 
L 268.766845 182.517803 
L 269.011498 213.306627 
L 269.256151 200.381066 
L 269.500804 195.785311 
L 269.745457 220.925185 
L 269.99011 204.470741 
L 270.479416 221.773211 
L 270.724069 190.697153 
L 270.968722 214.373499 
L 271.213375 223.551331 
L 271.458028 201.461615 
L 271.702681 214.04523 
L 271.947334 199.943375 
L 272.191987 227.353771 
L 272.43664 213.580184 
L 272.681293 240.525533 
L 272.925946 185.909908 
L 273.170599 209.203274 
L 273.415252 186.771612 
L 273.659905 217.204812 
L 273.904558 219.106032 
L 274.149211 209.695676 
L 274.393864 212.061943 
L 274.638517 209.449475 
L 274.88317 211.44644 
L 275.127823 193.227554 
L 275.372476 184.528446 
L 275.617129 216.903899 
L 275.861782 228.229153 
L 276.106435 263.408564 
L 276.351088 214.578666 
L 276.595741 211.761031 
L 276.840394 243.999705 
L 277.085047 211.419085 
L 277.3297 195.580143 
L 277.574353 209.996589 
L 277.819006 259.551412 
L 278.063659 194.896251 
L 278.308312 241.414593 
L 278.552965 204.320284 
L 278.797618 213.908452 
L 279.042271 205.756458 
L 279.286924 180.985885 
L 279.531577 209.996589 
L 279.77623 203.745815 
L 280.020883 234.685095 
L 280.265536 139.076976 
L 280.510189 276.334125 
L 280.754842 226.875047 
L 280.999495 241.264137 
L 281.244148 238.966259 
L 281.488801 203.102956 
L 281.733454 256.884233 
L 281.978107 229.39177 
L 282.22276 218.449496 
L 282.467413 198.698691 
L 282.712066 191.955515 
L 282.956719 205.74278 
L 283.201372 191.025421 
L 283.446025 192.420561 
L 283.690678 222.648593 
L 284.179985 176.554264 
L 284.424638 219.174421 
L 284.669291 208.697194 
L 284.913944 208.683516 
L 285.158597 210.092334 
L 285.40325 210.023945 
L 285.647903 214.086264 
L 285.892556 173.928118 
L 286.137209 208.601449 
L 286.381862 213.92213 
L 286.626515 213.41605 
L 286.871168 227.080214 
L 287.115821 213.675929 
L 287.360474 211.282306 
L 287.605127 210.94036 
L 287.84978 195.593821 
L 288.094433 205.058888 
L 288.339086 205.209344 
L 288.583739 213.963163 
L 288.828392 230.485997 
L 289.562351 201.311159 
L 289.807004 197.686531 
L 290.051657 191.98287 
L 290.29631 214.414532 
L 290.540963 191.066455 
L 291.030269 217.109067 
L 291.274922 203.554325 
L 291.519575 217.464691 
L 291.764228 219.844636 
L 292.008881 188.399276 
L 292.253534 224.768659 
L 292.498187 205.865881 
L 292.74284 208.382604 
L 293.232146 194.26707 
L 293.476799 202.090796 
L 293.721452 203.171346 
L 293.966105 197.262518 
L 294.210758 220.391749 
L 294.455411 203.239735 
L 294.944717 224.563491 
L 295.18937 202.405386 
L 295.434023 222.949506 
L 295.678676 224.303612 
L 295.923329 216.452531 
L 296.167982 131.431062 
L 296.657288 227.340093 
L 296.901941 210.776226 
L 297.146594 226.355289 
L 297.391247 189.876483 
L 297.6359 202.268608 
L 297.880553 178.305028 
L 298.125206 196.305069 
L 298.369859 203.773171 
L 298.614512 221.157708 
L 298.859165 209.189596 
L 299.103818 231.251956 
L 299.348471 207.219987 
L 299.593124 208.738227 
L 299.837777 204.34764 
L 300.08243 218.476851 
L 300.327083 200.011764 
L 300.571736 204.525452 
L 300.816389 201.229092 
L 301.061042 213.853741 
L 301.305695 195.771633 
L 301.550348 214.783834 
L 301.795001 198.165255 
L 302.039654 213.894774 
L 302.284307 208.574093 
L 302.52896 214.291431 
L 302.773613 206.235182 
L 303.018266 208.820295 
L 303.262919 223.523975 
L 303.752225 204.648553 
L 303.996878 217.095389 
L 304.241531 205.756458 
L 304.486184 225.411517 
L 304.730837 199.779241 
L 305.220143 217.34159 
L 305.464796 194.499593 
L 305.709449 241.824928 
L 305.954102 220.596917 
L 306.198756 187.510216 
L 306.688062 210.174401 
L 306.932715 196.441847 
L 307.177368 206.891719 
L 307.422021 197.194128 
L 307.666674 211.624252 
L 307.911327 197.56343 
L 308.15598 199.300516 
L 308.400633 217.820315 
L 308.645286 217.833993 
L 308.889939 212.157688 
L 309.134592 218.080194 
L 309.379245 209.340053 
L 309.868551 202.309641 
L 310.113204 211.966198 
L 310.357857 209.613609 
L 310.60251 217.382624 
L 310.847163 215.700249 
L 311.091816 208.72455 
L 311.336469 188.399276 
L 311.581122 201.721494 
L 311.825775 197.987443 
L 312.070428 219.995092 
L 312.315081 218.326395 
L 312.559734 201.817239 
L 312.804387 203.075601 
L 313.04904 209.408442 
L 313.293693 207.808134 
L 313.538346 209.859811 
L 313.782999 206.536095 
L 314.027652 208.396281 
L 314.272305 215.768638 
L 314.516958 216.288396 
L 314.761611 209.394764 
L 315.006264 210.43428 
L 315.250917 219.981414 
L 315.49557 207.233665 
L 315.740223 206.139437 
L 315.984876 217.314235 
L 316.474182 196.824827 
L 316.963488 215.276236 
L 317.208141 208.040657 
L 317.452794 208.204792 
L 317.697447 207.712389 
L 317.9421 187.729061 
L 318.186753 216.206329 
L 318.431406 210.776226 
L 318.676059 242.919156 
L 318.920712 194.677405 
L 319.165365 224.536136 
L 319.654671 198.438812 
L 319.899324 198.124222 
L 320.143977 214.879579 
L 320.38863 203.198701 
L 320.877936 189.739704 
L 321.367242 219.215455 
L 321.611895 187.017814 
L 321.856548 192.953997 
L 322.101201 209.750388 
L 322.345854 198.903859 
L 322.590507 210.981394 
L 322.83516 213.908452 
L 323.079813 196.072545 
L 323.324466 213.894774 
L 323.569119 213.251915 
L 323.813772 207.083209 
L 324.058425 224.850726 
L 324.303078 205.975303 
L 324.547731 216.780799 
L 324.792384 218.846153 
L 325.037037 223.893277 
L 325.28169 203.773171 
L 325.526343 210.147045 
L 325.770996 220.282327 
L 326.260302 184.077077 
L 326.504955 214.182009 
L 326.749608 227.42216 
L 326.994261 215.987484 
L 327.238914 267.703406 
L 327.483567 191.736669 
L 327.972873 237.352274 
L 328.217526 208.191114 
L 328.462179 226.587812 
L 328.706833 169.332363 
L 329.196139 231.908493 
L 329.440792 250.551392 
L 329.685445 214.81119 
L 329.930098 237.475375 
L 330.174751 177.142411 
L 330.419404 205.756458 
L 330.664057 196.647015 
L 330.90871 205.058888 
L 331.153363 183.064917 
L 331.642669 217.327913 
L 331.887322 209.859811 
L 332.131975 228.803622 
L 332.376628 216.01484 
L 332.621281 226.546778 
L 333.110587 214.729122 
L 333.35524 184.1865 
L 333.599893 202.870433 
L 333.844546 202.405386 
L 334.089199 214.42821 
L 334.333852 208.382604 
L 334.578505 221.882634 
L 334.823158 190.751865 
L 335.067811 217.751926 
L 335.312464 220.897829 
L 335.557117 214.6197 
L 335.80177 198.944892 
L 336.046423 203.061923 
L 336.535729 216.028517 
L 336.780382 218.066516 
L 337.025035 195.416009 
L 337.758994 231.1015 
L 338.003647 205.004176 
L 338.2483 205.400834 
L 338.492953 178.373417 
L 338.737606 188.946389 
L 338.982259 208.929717 
L 339.226912 211.596897 
L 339.471565 205.93427 
L 339.716218 190.204751 
L 340.205524 220.350716 
L 340.69483 208.068013 
L 340.939483 211.172883 
L 341.184136 197.139417 
L 341.428789 203.96466 
L 341.673442 190.943354 
L 341.918095 206.604484 
L 342.162748 214.824867 
L 342.652054 219.639468 
L 342.896707 198.06951 
L 343.14136 199.806596 
L 343.386013 250.893338 
L 343.630666 213.703284 
L 343.875319 203.554325 
L 344.119972 200.340032 
L 344.364625 207.944913 
L 344.853931 197.795953 
L 345.098584 210.393246 
L 345.343237 201.571038 
L 345.58789 208.232147 
L 345.832543 208.929717 
L 346.077196 194.65005 
L 346.321849 211.337018 
L 346.811155 219.707857 
L 347.055808 205.55129 
L 347.300461 215.12578 
L 347.545114 199.204771 
L 347.789767 215.905417 
L 348.03442 208.875006 
L 348.279073 214.674411 
L 348.523726 211.008749 
L 348.768379 204.074083 
L 349.013032 206.782296 
L 349.257685 210.94036 
L 349.502338 207.288376 
L 349.746991 213.019392 
L 349.991644 209.599932 
L 350.236297 209.586254 
L 350.48095 211.719997 
L 350.725603 203.827882 
L 350.970256 229.036146 
L 351.21491 203.554325 
L 351.459563 211.13185 
L 351.704216 212.622735 
L 351.948869 208.546738 
L 352.438175 185.143949 
L 352.682828 207.438832 
L 352.927481 196.250357 
L 353.172134 203.403869 
L 353.416787 189.247302 
L 353.906093 225.247383 
L 354.150746 214.852223 
L 354.395399 193.5695 
L 354.640052 216.602987 
L 354.884705 218.586274 
L 355.129358 226.013343 
L 355.374011 186.511733 
L 355.618664 207.753423 
L 355.863317 216.466208 
L 356.10797 206.289894 
L 356.352623 215.030035 
L 356.597276 198.055832 
L 356.841929 209.914522 
L 357.086582 207.917557 
L 357.331235 197.768598 
L 357.575888 201.160703 
L 357.820541 178.414451 
L 358.065194 211.966198 
L 358.309847 218.285362 
L 358.5545 214.989001 
L 358.799153 214.824867 
L 359.043806 189.835449 
L 359.533112 215.495082 
L 359.777765 212.02091 
L 360.022418 191.422079 
L 360.267071 214.824867 
L 360.511724 199.122704 
L 360.756377 239.349239 
L 361.00103 191.422079 
L 361.245683 208.355248 
L 361.490336 195.388653 
L 361.734989 209.011784 
L 361.979642 198.151577 
L 362.224295 192.379528 
L 362.468948 206.919074 
L 362.713601 208.943395 
L 362.958254 213.046748 
L 363.202907 208.382604 
L 363.44756 195.457042 
L 363.692213 203.896271 
L 363.936866 221.609077 
L 364.181519 200.531522 
L 364.426172 209.9282 
L 364.670825 253.916141 
L 364.915478 228.530066 
L 365.160131 188.481343 
L 365.404784 216.110585 
L 365.649437 227.025503 
L 365.89409 178.004115 
L 366.383396 213.73064 
L 366.628049 197.016316 
L 366.872702 211.473796 
L 367.117355 206.864363 
L 367.606661 233.727646 
L 367.851314 191.66828 
L 368.095967 229.89785 
L 368.34062 221.048286 
L 368.585273 229.815783 
L 368.829926 185.937264 
L 369.074579 218.764086 
L 369.319232 191.572535 
L 369.563885 185.978298 
L 369.808538 213.402372 
L 370.053191 193.268588 
L 370.297844 218.244328 
L 371.031803 190.491986 
L 371.276456 206.891719 
L 371.521109 207.698711 
L 371.765762 214.346143 
L 372.010415 192.037582 
L 372.255068 208.943395 
L 372.499721 192.516306 
L 372.989027 245.709436 
L 373.23368 254.326476 
L 373.478333 198.698691 
L 373.96764 222.470781 
L 374.212293 209.299019 
L 374.456946 203.786848 
L 374.946252 220.911507 
L 375.190905 244.519463 
L 375.435558 195.060385 
L 375.680211 189.26098 
L 375.924864 210.967716 
L 376.169517 216.438853 
L 376.41417 234.288437 
L 376.658823 213.074104 
L 376.903476 217.286879 
L 377.148129 191.586213 
L 377.392782 222.375036 
L 377.637435 217.792959 
L 377.882088 220.036125 
L 378.616047 191.695636 
L 378.8607 192.406884 
L 379.350006 227.955596 
L 379.839312 194.239714 
L 380.083965 228.762589 
L 380.328618 193.706279 
L 380.573271 203.882593 
L 380.817924 186.922069 
L 381.062577 220.309682 
L 381.30723 217.615147 
L 381.551883 227.435838 
L 382.041189 205.619679 
L 382.285842 221.90999 
L 382.530495 223.264096 
L 382.775148 231.142533 
L 383.264454 193.419044 
L 383.509107 202.63791 
L 383.75376 203.431225 
L 383.998413 213.156171 
L 384.243066 213.060426 
L 384.732372 189.137879 
L 385.466331 215.385659 
L 385.710984 199.533039 
L 385.955637 202.090796 
L 386.20029 207.45251 
L 386.444943 205.55129 
L 386.689596 206.385639 
L 386.934249 226.79298 
L 387.178902 224.413035 
L 387.423555 215.262558 
L 387.668208 232.920653 
L 387.912861 197.071028 
L 388.157514 214.291431 
L 388.402167 210.858293 
L 388.64682 34.414125 
L 388.891473 196.660693 
L 389.136126 217.820315 
L 389.380779 212.390211 
L 389.625432 223.140996 
L 389.870085 186.429666 
L 389.870085 186.429666 
" style="fill:none;stroke:#ff7f0e;stroke-linecap:square;stroke-width:1.5;"/>
   </g>
   <g id="patch_3">
    <path d="M 48.982813 288.430125 
L 48.982813 22.318125 
" style="fill:none;stroke:#000000;stroke-linecap:square;stroke-linejoin:miter;stroke-width:0.8;"/>
   </g>
   <g id="patch_4">
    <path d="M 406.102813 288.430125 
L 406.102813 22.318125 
" style="fill:none;stroke:#000000;stroke-linecap:square;stroke-linejoin:miter;stroke-width:0.8;"/>
   </g>
   <g id="patch_5">
    <path d="M 48.982813 288.430125 
L 406.102813 288.430125 
" style="fill:none;stroke:#000000;stroke-linecap:square;stroke-linejoin:miter;stroke-width:0.8;"/>
   </g>
   <g id="patch_6">
    <path d="M 48.982813 22.318125 
L 406.102813 22.318125 
" style="fill:none;stroke:#000000;stroke-linecap:square;stroke-linejoin:miter;stroke-width:0.8;"/>
   </g>
   <g id="text_18">
    <!-- Training: AMZN -->
    <defs>
     <path d="M -0.296875 72.90625 
L 61.375 72.90625 
L 61.375 64.59375 
L 35.5 64.59375 
L 35.5 0 
L 25.59375 0 
L 25.59375 64.59375 
L -0.296875 64.59375 
z
" id="DejaVuSans-84"/>
     <path d="M 41.109375 46.296875 
Q 39.59375 47.171875 37.8125 47.578125 
Q 36.03125 48 33.890625 48 
Q 26.265625 48 22.1875 43.046875 
Q 18.109375 38.09375 18.109375 28.8125 
L 18.109375 0 
L 9.078125 0 
L 9.078125 54.6875 
L 18.109375 54.6875 
L 18.109375 46.1875 
Q 20.953125 51.171875 25.484375 53.578125 
Q 30.03125 56 36.53125 56 
Q 37.453125 56 38.578125 55.875 
Q 39.703125 55.765625 41.0625 55.515625 
z
" id="DejaVuSans-114"/>
     <path d="M 9.421875 54.6875 
L 18.40625 54.6875 
L 18.40625 0 
L 9.421875 0 
z
M 9.421875 75.984375 
L 18.40625 75.984375 
L 18.40625 64.59375 
L 9.421875 64.59375 
z
" id="DejaVuSans-105"/>
     <path d="M 11.71875 12.40625 
L 22.015625 12.40625 
L 22.015625 0 
L 11.71875 0 
z
M 11.71875 51.703125 
L 22.015625 51.703125 
L 22.015625 39.3125 
L 11.71875 39.3125 
z
" id="DejaVuSans-58"/>
     <path d="M 34.1875 63.1875 
L 20.796875 26.90625 
L 47.609375 26.90625 
z
M 28.609375 72.90625 
L 39.796875 72.90625 
L 67.578125 0 
L 57.328125 0 
L 50.6875 18.703125 
L 17.828125 18.703125 
L 11.1875 0 
L 0.78125 0 
z
" id="DejaVuSans-65"/>
     <path d="M 9.8125 72.90625 
L 24.515625 72.90625 
L 43.109375 23.296875 
L 61.8125 72.90625 
L 76.515625 72.90625 
L 76.515625 0 
L 66.890625 0 
L 66.890625 64.015625 
L 48.09375 14.015625 
L 38.1875 14.015625 
L 19.390625 64.015625 
L 19.390625 0 
L 9.8125 0 
z
" id="DejaVuSans-77"/>
     <path d="M 5.609375 72.90625 
L 62.890625 72.90625 
L 62.890625 65.375 
L 16.796875 8.296875 
L 64.015625 8.296875 
L 64.015625 0 
L 4.5 0 
L 4.5 7.515625 
L 50.59375 64.59375 
L 5.609375 64.59375 
z
" id="DejaVuSans-90"/>
     <path d="M 9.8125 72.90625 
L 23.09375 72.90625 
L 55.421875 11.921875 
L 55.421875 72.90625 
L 64.984375 72.90625 
L 64.984375 0 
L 51.703125 0 
L 19.390625 60.984375 
L 19.390625 0 
L 9.8125 0 
z
" id="DejaVuSans-78"/>
    </defs>
    <g transform="translate(182.06375 16.318125)scale(0.12 -0.12)">
     <use xlink:href="#DejaVuSans-84"/>
     <use x="46.333984" xlink:href="#DejaVuSans-114"/>
     <use x="87.447266" xlink:href="#DejaVuSans-97"/>
     <use x="148.726562" xlink:href="#DejaVuSans-105"/>
     <use x="176.509766" xlink:href="#DejaVuSans-110"/>
     <use x="239.888672" xlink:href="#DejaVuSans-105"/>
     <use x="267.671875" xlink:href="#DejaVuSans-110"/>
     <use x="331.050781" xlink:href="#DejaVuSans-103"/>
     <use x="394.527344" xlink:href="#DejaVuSans-58"/>
     <use x="428.21875" xlink:href="#DejaVuSans-32"/>
     <use x="460.005859" xlink:href="#DejaVuSans-65"/>
     <use x="528.414062" xlink:href="#DejaVuSans-77"/>
     <use x="614.693359" xlink:href="#DejaVuSans-90"/>
     <use x="683.199219" xlink:href="#DejaVuSans-78"/>
    </g>
   </g>
   <g id="legend_1">
    <g id="patch_7">
     <path d="M 55.982813 59.674375 
L 139.710938 59.674375 
Q 141.710938 59.674375 141.710938 57.674375 
L 141.710938 29.318125 
Q 141.710938 27.318125 139.710938 27.318125 
L 55.982813 27.318125 
Q 53.982813 27.318125 53.982813 29.318125 
L 53.982813 57.674375 
Q 53.982813 59.674375 55.982813 59.674375 
z
" style="fill:#ffffff;opacity:0.8;stroke:#cccccc;stroke-linejoin:miter;"/>
    </g>
    <g id="line2d_33">
     <path d="M 57.982813 35.416562 
L 77.982813 35.416562 
" style="fill:none;stroke:#1f77b4;stroke-linecap:square;stroke-width:1.5;"/>
    </g>
    <g id="line2d_34"/>
    <g id="text_19">
     <!-- Predicted -->
     <defs>
      <path d="M 19.671875 64.796875 
L 19.671875 37.40625 
L 32.078125 37.40625 
Q 38.96875 37.40625 42.71875 40.96875 
Q 46.484375 44.53125 46.484375 51.125 
Q 46.484375 57.671875 42.71875 61.234375 
Q 38.96875 64.796875 32.078125 64.796875 
z
M 9.8125 72.90625 
L 32.078125 72.90625 
Q 44.34375 72.90625 50.609375 67.359375 
Q 56.890625 61.8125 56.890625 51.125 
Q 56.890625 40.328125 50.609375 34.8125 
Q 44.34375 29.296875 32.078125 29.296875 
L 19.671875 29.296875 
L 19.671875 0 
L 9.8125 0 
z
" id="DejaVuSans-80"/>
      <path d="M 45.40625 46.390625 
L 45.40625 75.984375 
L 54.390625 75.984375 
L 54.390625 0 
L 45.40625 0 
L 45.40625 8.203125 
Q 42.578125 3.328125 38.25 0.953125 
Q 33.9375 -1.421875 27.875 -1.421875 
Q 17.96875 -1.421875 11.734375 6.484375 
Q 5.515625 14.40625 5.515625 27.296875 
Q 5.515625 40.1875 11.734375 48.09375 
Q 17.96875 56 27.875 56 
Q 33.9375 56 38.25 53.625 
Q 42.578125 51.265625 45.40625 46.390625 
z
M 14.796875 27.296875 
Q 14.796875 17.390625 18.875 11.75 
Q 22.953125 6.109375 30.078125 6.109375 
Q 37.203125 6.109375 41.296875 11.75 
Q 45.40625 17.390625 45.40625 27.296875 
Q 45.40625 37.203125 41.296875 42.84375 
Q 37.203125 48.484375 30.078125 48.484375 
Q 22.953125 48.484375 18.875 42.84375 
Q 14.796875 37.203125 14.796875 27.296875 
z
" id="DejaVuSans-100"/>
      <path d="M 48.78125 52.59375 
L 48.78125 44.1875 
Q 44.96875 46.296875 41.140625 47.34375 
Q 37.3125 48.390625 33.40625 48.390625 
Q 24.65625 48.390625 19.8125 42.84375 
Q 14.984375 37.3125 14.984375 27.296875 
Q 14.984375 17.28125 19.8125 11.734375 
Q 24.65625 6.203125 33.40625 6.203125 
Q 37.3125 6.203125 41.140625 7.25 
Q 44.96875 8.296875 48.78125 10.40625 
L 48.78125 2.09375 
Q 45.015625 0.34375 40.984375 -0.53125 
Q 36.96875 -1.421875 32.421875 -1.421875 
Q 20.0625 -1.421875 12.78125 6.34375 
Q 5.515625 14.109375 5.515625 27.296875 
Q 5.515625 40.671875 12.859375 48.328125 
Q 20.21875 56 33.015625 56 
Q 37.15625 56 41.109375 55.140625 
Q 45.0625 54.296875 48.78125 52.59375 
z
" id="DejaVuSans-99"/>
      <path d="M 18.3125 70.21875 
L 18.3125 54.6875 
L 36.8125 54.6875 
L 36.8125 47.703125 
L 18.3125 47.703125 
L 18.3125 18.015625 
Q 18.3125 11.328125 20.140625 9.421875 
Q 21.96875 7.515625 27.59375 7.515625 
L 36.8125 7.515625 
L 36.8125 0 
L 27.59375 0 
Q 17.1875 0 13.234375 3.875 
Q 9.28125 7.765625 9.28125 18.015625 
L 9.28125 47.703125 
L 2.6875 47.703125 
L 2.6875 54.6875 
L 9.28125 54.6875 
L 9.28125 70.21875 
z
" id="DejaVuSans-116"/>
     </defs>
     <g transform="translate(85.982813 38.916562)scale(0.1 -0.1)">
      <use xlink:href="#DejaVuSans-80"/>
      <use x="58.552734" xlink:href="#DejaVuSans-114"/>
      <use x="97.416016" xlink:href="#DejaVuSans-101"/>
      <use x="158.939453" xlink:href="#DejaVuSans-100"/>
      <use x="222.416016" xlink:href="#DejaVuSans-105"/>
      <use x="250.199219" xlink:href="#DejaVuSans-99"/>
      <use x="305.179688" xlink:href="#DejaVuSans-116"/>
      <use x="344.388672" xlink:href="#DejaVuSans-101"/>
      <use x="405.912109" xlink:href="#DejaVuSans-100"/>
     </g>
    </g>
    <g id="line2d_35">
     <path d="M 57.982813 50.094687 
L 77.982813 50.094687 
" style="fill:none;stroke:#ff7f0e;stroke-linecap:square;stroke-width:1.5;"/>
    </g>
    <g id="line2d_36"/>
    <g id="text_20">
     <!-- True value -->
     <defs>
      <path d="M 8.5 21.578125 
L 8.5 54.6875 
L 17.484375 54.6875 
L 17.484375 21.921875 
Q 17.484375 14.15625 20.5 10.265625 
Q 23.53125 6.390625 29.59375 6.390625 
Q 36.859375 6.390625 41.078125 11.03125 
Q 45.3125 15.671875 45.3125 23.6875 
L 45.3125 54.6875 
L 54.296875 54.6875 
L 54.296875 0 
L 45.3125 0 
L 45.3125 8.40625 
Q 42.046875 3.421875 37.71875 1 
Q 33.40625 -1.421875 27.6875 -1.421875 
Q 18.265625 -1.421875 13.375 4.4375 
Q 8.5 10.296875 8.5 21.578125 
z
M 31.109375 56 
z
" id="DejaVuSans-117"/>
      <path d="M 2.984375 54.6875 
L 12.5 54.6875 
L 29.59375 8.796875 
L 46.6875 54.6875 
L 56.203125 54.6875 
L 35.6875 0 
L 23.484375 0 
z
" id="DejaVuSans-118"/>
      <path d="M 9.421875 75.984375 
L 18.40625 75.984375 
L 18.40625 0 
L 9.421875 0 
z
" id="DejaVuSans-108"/>
     </defs>
     <g transform="translate(85.982813 53.594687)scale(0.1 -0.1)">
      <use xlink:href="#DejaVuSans-84"/>
      <use x="46.333984" xlink:href="#DejaVuSans-114"/>
      <use x="87.447266" xlink:href="#DejaVuSans-117"/>
      <use x="150.826172" xlink:href="#DejaVuSans-101"/>
      <use x="212.349609" xlink:href="#DejaVuSans-32"/>
      <use x="244.136719" xlink:href="#DejaVuSans-118"/>
      <use x="303.316406" xlink:href="#DejaVuSans-97"/>
      <use x="364.595703" xlink:href="#DejaVuSans-108"/>
      <use x="392.378906" xlink:href="#DejaVuSans-117"/>
      <use x="455.757812" xlink:href="#DejaVuSans-101"/>
     </g>
    </g>
   </g>
  </g>
 </g>
 <defs>
  <clipPath id="pb1b474e3ff">
   <rect height="266.112" width="357.12" x="48.982813" y="22.318125"/>
  </clipPath>
 </defs>
</svg>
