<?xml version="1.0" encoding="utf-8" standalone="no"?>
<!DOCTYPE svg PUBLIC "-//W3C//DTD SVG 1.1//EN"
  "http://www.w3.org/Graphics/SVG/1.1/DTD/svg11.dtd">
<!-- Created with matplotlib (https://matplotlib.org/) -->
<svg height="325.986375pt" version="1.1" viewBox="0 0 417.648125 325.986375" width="417.648125pt" xmlns="http://www.w3.org/2000/svg" xmlns:xlink="http://www.w3.org/1999/xlink">
 <defs>
  <style type="text/css">
*{stroke-linecap:butt;stroke-linejoin:round;}
  </style>
 </defs>
 <g id="figure_1">
  <g id="patch_1">
   <path d="M 0 325.986375 
L 417.648125 325.986375 
L 417.648125 0 
L 0 0 
z
" style="fill:#ffffff;"/>
  </g>
  <g id="axes_1">
   <g id="patch_2">
    <path d="M 53.328125 288.430125 
L 410.448125 288.430125 
L 410.448125 22.318125 
L 53.328125 22.318125 
z
" style="fill:#ffffff;"/>
   </g>
   <g id="matplotlib.axis_1">
    <g id="xtick_1">
     <g id="line2d_1">
      <path clip-path="url(#p867c044bd2)" d="M 69.560852 288.430125 
L 69.560852 22.318125 
" style="fill:none;stroke:#b0b0b0;stroke-dasharray:2.96,1.28;stroke-dashoffset:0;stroke-width:0.8;"/>
     </g>
     <g id="line2d_2">
      <defs>
       <path d="M 0 0 
L 0 3.5 
" id="m6bdfbe4a95" style="stroke:#000000;stroke-width:0.8;"/>
      </defs>
      <g>
       <use style="stroke:#000000;stroke-width:0.8;" x="69.560852" xlink:href="#m6bdfbe4a95" y="288.430125"/>
      </g>
     </g>
     <g id="text_1">
      <!-- 0 -->
      <defs>
       <path d="M 31.78125 66.40625 
Q 24.171875 66.40625 20.328125 58.90625 
Q 16.5 51.421875 16.5 36.375 
Q 16.5 21.390625 20.328125 13.890625 
Q 24.171875 6.390625 31.78125 6.390625 
Q 39.453125 6.390625 43.28125 13.890625 
Q 47.125 21.390625 47.125 36.375 
Q 47.125 51.421875 43.28125 58.90625 
Q 39.453125 66.40625 31.78125 66.40625 
z
M 31.78125 74.21875 
Q 44.046875 74.21875 50.515625 64.515625 
Q 56.984375 54.828125 56.984375 36.375 
Q 56.984375 17.96875 50.515625 8.265625 
Q 44.046875 -1.421875 31.78125 -1.421875 
Q 19.53125 -1.421875 13.0625 8.265625 
Q 6.59375 17.96875 6.59375 36.375 
Q 6.59375 54.828125 13.0625 64.515625 
Q 19.53125 74.21875 31.78125 74.21875 
z
" id="DejaVuSans-48"/>
      </defs>
      <g transform="translate(66.379602 303.028562)scale(0.1 -0.1)">
       <use xlink:href="#DejaVuSans-48"/>
      </g>
     </g>
    </g>
    <g id="xtick_2">
     <g id="line2d_3">
      <path clip-path="url(#p867c044bd2)" d="M 118.491454 288.430125 
L 118.491454 22.318125 
" style="fill:none;stroke:#b0b0b0;stroke-dasharray:2.96,1.28;stroke-dashoffset:0;stroke-width:0.8;"/>
     </g>
     <g id="line2d_4">
      <g>
       <use style="stroke:#000000;stroke-width:0.8;" x="118.491454" xlink:href="#m6bdfbe4a95" y="288.430125"/>
      </g>
     </g>
     <g id="text_2">
      <!-- 200 -->
      <defs>
       <path d="M 19.1875 8.296875 
L 53.609375 8.296875 
L 53.609375 0 
L 7.328125 0 
L 7.328125 8.296875 
Q 12.9375 14.109375 22.625 23.890625 
Q 32.328125 33.6875 34.8125 36.53125 
Q 39.546875 41.84375 41.421875 45.53125 
Q 43.3125 49.21875 43.3125 52.78125 
Q 43.3125 58.59375 39.234375 62.25 
Q 35.15625 65.921875 28.609375 65.921875 
Q 23.96875 65.921875 18.8125 64.3125 
Q 13.671875 62.703125 7.8125 59.421875 
L 7.8125 69.390625 
Q 13.765625 71.78125 18.9375 73 
Q 24.125 74.21875 28.421875 74.21875 
Q 39.75 74.21875 46.484375 68.546875 
Q 53.21875 62.890625 53.21875 53.421875 
Q 53.21875 48.921875 51.53125 44.890625 
Q 49.859375 40.875 45.40625 35.40625 
Q 44.1875 33.984375 37.640625 27.21875 
Q 31.109375 20.453125 19.1875 8.296875 
z
" id="DejaVuSans-50"/>
      </defs>
      <g transform="translate(108.947704 303.028562)scale(0.1 -0.1)">
       <use xlink:href="#DejaVuSans-50"/>
       <use x="63.623047" xlink:href="#DejaVuSans-48"/>
       <use x="127.246094" xlink:href="#DejaVuSans-48"/>
      </g>
     </g>
    </g>
    <g id="xtick_3">
     <g id="line2d_5">
      <path clip-path="url(#p867c044bd2)" d="M 167.422057 288.430125 
L 167.422057 22.318125 
" style="fill:none;stroke:#b0b0b0;stroke-dasharray:2.96,1.28;stroke-dashoffset:0;stroke-width:0.8;"/>
     </g>
     <g id="line2d_6">
      <g>
       <use style="stroke:#000000;stroke-width:0.8;" x="167.422057" xlink:href="#m6bdfbe4a95" y="288.430125"/>
      </g>
     </g>
     <g id="text_3">
      <!-- 400 -->
      <defs>
       <path d="M 37.796875 64.3125 
L 12.890625 25.390625 
L 37.796875 25.390625 
z
M 35.203125 72.90625 
L 47.609375 72.90625 
L 47.609375 25.390625 
L 58.015625 25.390625 
L 58.015625 17.1875 
L 47.609375 17.1875 
L 47.609375 0 
L 37.796875 0 
L 37.796875 17.1875 
L 4.890625 17.1875 
L 4.890625 26.703125 
z
" id="DejaVuSans-52"/>
      </defs>
      <g transform="translate(157.878307 303.028562)scale(0.1 -0.1)">
       <use xlink:href="#DejaVuSans-52"/>
       <use x="63.623047" xlink:href="#DejaVuSans-48"/>
       <use x="127.246094" xlink:href="#DejaVuSans-48"/>
      </g>
     </g>
    </g>
    <g id="xtick_4">
     <g id="line2d_7">
      <path clip-path="url(#p867c044bd2)" d="M 216.352659 288.430125 
L 216.352659 22.318125 
" style="fill:none;stroke:#b0b0b0;stroke-dasharray:2.96,1.28;stroke-dashoffset:0;stroke-width:0.8;"/>
     </g>
     <g id="line2d_8">
      <g>
       <use style="stroke:#000000;stroke-width:0.8;" x="216.352659" xlink:href="#m6bdfbe4a95" y="288.430125"/>
      </g>
     </g>
     <g id="text_4">
      <!-- 600 -->
      <defs>
       <path d="M 33.015625 40.375 
Q 26.375 40.375 22.484375 35.828125 
Q 18.609375 31.296875 18.609375 23.390625 
Q 18.609375 15.53125 22.484375 10.953125 
Q 26.375 6.390625 33.015625 6.390625 
Q 39.65625 6.390625 43.53125 10.953125 
Q 47.40625 15.53125 47.40625 23.390625 
Q 47.40625 31.296875 43.53125 35.828125 
Q 39.65625 40.375 33.015625 40.375 
z
M 52.59375 71.296875 
L 52.59375 62.3125 
Q 48.875 64.0625 45.09375 64.984375 
Q 41.3125 65.921875 37.59375 65.921875 
Q 27.828125 65.921875 22.671875 59.328125 
Q 17.53125 52.734375 16.796875 39.40625 
Q 19.671875 43.65625 24.015625 45.921875 
Q 28.375 48.1875 33.59375 48.1875 
Q 44.578125 48.1875 50.953125 41.515625 
Q 57.328125 34.859375 57.328125 23.390625 
Q 57.328125 12.15625 50.6875 5.359375 
Q 44.046875 -1.421875 33.015625 -1.421875 
Q 20.359375 -1.421875 13.671875 8.265625 
Q 6.984375 17.96875 6.984375 36.375 
Q 6.984375 53.65625 15.1875 63.9375 
Q 23.390625 74.21875 37.203125 74.21875 
Q 40.921875 74.21875 44.703125 73.484375 
Q 48.484375 72.75 52.59375 71.296875 
z
" id="DejaVuSans-54"/>
      </defs>
      <g transform="translate(206.808909 303.028562)scale(0.1 -0.1)">
       <use xlink:href="#DejaVuSans-54"/>
       <use x="63.623047" xlink:href="#DejaVuSans-48"/>
       <use x="127.246094" xlink:href="#DejaVuSans-48"/>
      </g>
     </g>
    </g>
    <g id="xtick_5">
     <g id="line2d_9">
      <path clip-path="url(#p867c044bd2)" d="M 265.283261 288.430125 
L 265.283261 22.318125 
" style="fill:none;stroke:#b0b0b0;stroke-dasharray:2.96,1.28;stroke-dashoffset:0;stroke-width:0.8;"/>
     </g>
     <g id="line2d_10">
      <g>
       <use style="stroke:#000000;stroke-width:0.8;" x="265.283261" xlink:href="#m6bdfbe4a95" y="288.430125"/>
      </g>
     </g>
     <g id="text_5">
      <!-- 800 -->
      <defs>
       <path d="M 31.78125 34.625 
Q 24.75 34.625 20.71875 30.859375 
Q 16.703125 27.09375 16.703125 20.515625 
Q 16.703125 13.921875 20.71875 10.15625 
Q 24.75 6.390625 31.78125 6.390625 
Q 38.8125 6.390625 42.859375 10.171875 
Q 46.921875 13.96875 46.921875 20.515625 
Q 46.921875 27.09375 42.890625 30.859375 
Q 38.875 34.625 31.78125 34.625 
z
M 21.921875 38.8125 
Q 15.578125 40.375 12.03125 44.71875 
Q 8.5 49.078125 8.5 55.328125 
Q 8.5 64.0625 14.71875 69.140625 
Q 20.953125 74.21875 31.78125 74.21875 
Q 42.671875 74.21875 48.875 69.140625 
Q 55.078125 64.0625 55.078125 55.328125 
Q 55.078125 49.078125 51.53125 44.71875 
Q 48 40.375 41.703125 38.8125 
Q 48.828125 37.15625 52.796875 32.3125 
Q 56.78125 27.484375 56.78125 20.515625 
Q 56.78125 9.90625 50.3125 4.234375 
Q 43.84375 -1.421875 31.78125 -1.421875 
Q 19.734375 -1.421875 13.25 4.234375 
Q 6.78125 9.90625 6.78125 20.515625 
Q 6.78125 27.484375 10.78125 32.3125 
Q 14.796875 37.15625 21.921875 38.8125 
z
M 18.3125 54.390625 
Q 18.3125 48.734375 21.84375 45.5625 
Q 25.390625 42.390625 31.78125 42.390625 
Q 38.140625 42.390625 41.71875 45.5625 
Q 45.3125 48.734375 45.3125 54.390625 
Q 45.3125 60.0625 41.71875 63.234375 
Q 38.140625 66.40625 31.78125 66.40625 
Q 25.390625 66.40625 21.84375 63.234375 
Q 18.3125 60.0625 18.3125 54.390625 
z
" id="DejaVuSans-56"/>
      </defs>
      <g transform="translate(255.739511 303.028562)scale(0.1 -0.1)">
       <use xlink:href="#DejaVuSans-56"/>
       <use x="63.623047" xlink:href="#DejaVuSans-48"/>
       <use x="127.246094" xlink:href="#DejaVuSans-48"/>
      </g>
     </g>
    </g>
    <g id="xtick_6">
     <g id="line2d_11">
      <path clip-path="url(#p867c044bd2)" d="M 314.213863 288.430125 
L 314.213863 22.318125 
" style="fill:none;stroke:#b0b0b0;stroke-dasharray:2.96,1.28;stroke-dashoffset:0;stroke-width:0.8;"/>
     </g>
     <g id="line2d_12">
      <g>
       <use style="stroke:#000000;stroke-width:0.8;" x="314.213863" xlink:href="#m6bdfbe4a95" y="288.430125"/>
      </g>
     </g>
     <g id="text_6">
      <!-- 1000 -->
      <defs>
       <path d="M 12.40625 8.296875 
L 28.515625 8.296875 
L 28.515625 63.921875 
L 10.984375 60.40625 
L 10.984375 69.390625 
L 28.421875 72.90625 
L 38.28125 72.90625 
L 38.28125 8.296875 
L 54.390625 8.296875 
L 54.390625 0 
L 12.40625 0 
z
" id="DejaVuSans-49"/>
      </defs>
      <g transform="translate(301.488863 303.028562)scale(0.1 -0.1)">
       <use xlink:href="#DejaVuSans-49"/>
       <use x="63.623047" xlink:href="#DejaVuSans-48"/>
       <use x="127.246094" xlink:href="#DejaVuSans-48"/>
       <use x="190.869141" xlink:href="#DejaVuSans-48"/>
      </g>
     </g>
    </g>
    <g id="xtick_7">
     <g id="line2d_13">
      <path clip-path="url(#p867c044bd2)" d="M 363.144465 288.430125 
L 363.144465 22.318125 
" style="fill:none;stroke:#b0b0b0;stroke-dasharray:2.96,1.28;stroke-dashoffset:0;stroke-width:0.8;"/>
     </g>
     <g id="line2d_14">
      <g>
       <use style="stroke:#000000;stroke-width:0.8;" x="363.144465" xlink:href="#m6bdfbe4a95" y="288.430125"/>
      </g>
     </g>
     <g id="text_7">
      <!-- 1200 -->
      <g transform="translate(350.419465 303.028562)scale(0.1 -0.1)">
       <use xlink:href="#DejaVuSans-49"/>
       <use x="63.623047" xlink:href="#DejaVuSans-50"/>
       <use x="127.246094" xlink:href="#DejaVuSans-48"/>
       <use x="190.869141" xlink:href="#DejaVuSans-48"/>
      </g>
     </g>
    </g>
    <g id="text_8">
     <!-- Day -->
     <defs>
      <path d="M 19.671875 64.796875 
L 19.671875 8.109375 
L 31.59375 8.109375 
Q 46.6875 8.109375 53.6875 14.9375 
Q 60.6875 21.78125 60.6875 36.53125 
Q 60.6875 51.171875 53.6875 57.984375 
Q 46.6875 64.796875 31.59375 64.796875 
z
M 9.8125 72.90625 
L 30.078125 72.90625 
Q 51.265625 72.90625 61.171875 64.09375 
Q 71.09375 55.28125 71.09375 36.53125 
Q 71.09375 17.671875 61.125 8.828125 
Q 51.171875 0 30.078125 0 
L 9.8125 0 
z
" id="DejaVuSans-68"/>
      <path d="M 34.28125 27.484375 
Q 23.390625 27.484375 19.1875 25 
Q 14.984375 22.515625 14.984375 16.5 
Q 14.984375 11.71875 18.140625 8.90625 
Q 21.296875 6.109375 26.703125 6.109375 
Q 34.1875 6.109375 38.703125 11.40625 
Q 43.21875 16.703125 43.21875 25.484375 
L 43.21875 27.484375 
z
M 52.203125 31.203125 
L 52.203125 0 
L 43.21875 0 
L 43.21875 8.296875 
Q 40.140625 3.328125 35.546875 0.953125 
Q 30.953125 -1.421875 24.3125 -1.421875 
Q 15.921875 -1.421875 10.953125 3.296875 
Q 6 8.015625 6 15.921875 
Q 6 25.140625 12.171875 29.828125 
Q 18.359375 34.515625 30.609375 34.515625 
L 43.21875 34.515625 
L 43.21875 35.40625 
Q 43.21875 41.609375 39.140625 45 
Q 35.0625 48.390625 27.6875 48.390625 
Q 23 48.390625 18.546875 47.265625 
Q 14.109375 46.140625 10.015625 43.890625 
L 10.015625 52.203125 
Q 14.9375 54.109375 19.578125 55.046875 
Q 24.21875 56 28.609375 56 
Q 40.484375 56 46.34375 49.84375 
Q 52.203125 43.703125 52.203125 31.203125 
z
" id="DejaVuSans-97"/>
      <path d="M 32.171875 -5.078125 
Q 28.375 -14.84375 24.75 -17.8125 
Q 21.140625 -20.796875 15.09375 -20.796875 
L 7.90625 -20.796875 
L 7.90625 -13.28125 
L 13.1875 -13.28125 
Q 16.890625 -13.28125 18.9375 -11.515625 
Q 21 -9.765625 23.484375 -3.21875 
L 25.09375 0.875 
L 2.984375 54.6875 
L 12.5 54.6875 
L 29.59375 11.921875 
L 46.6875 54.6875 
L 56.203125 54.6875 
z
" id="DejaVuSans-121"/>
     </defs>
     <g transform="translate(222.014688 316.706687)scale(0.1 -0.1)">
      <use xlink:href="#DejaVuSans-68"/>
      <use x="77.001953" xlink:href="#DejaVuSans-97"/>
      <use x="138.28125" xlink:href="#DejaVuSans-121"/>
     </g>
    </g>
   </g>
   <g id="matplotlib.axis_2">
    <g id="ytick_1">
     <g id="line2d_15">
      <path clip-path="url(#p867c044bd2)" d="M 53.328125 282.06705 
L 410.448125 282.06705 
" style="fill:none;stroke:#b0b0b0;stroke-dasharray:2.96,1.28;stroke-dashoffset:0;stroke-width:0.8;"/>
     </g>
     <g id="line2d_16">
      <defs>
       <path d="M 0 0 
L -3.5 0 
" id="m7424b85f9b" style="stroke:#000000;stroke-width:0.8;"/>
      </defs>
      <g>
       <use style="stroke:#000000;stroke-width:0.8;" x="53.328125" xlink:href="#m7424b85f9b" y="282.06705"/>
      </g>
     </g>
     <g id="text_9">
      <!-- 200 -->
      <g transform="translate(27.240625 285.866269)scale(0.1 -0.1)">
       <use xlink:href="#DejaVuSans-50"/>
       <use x="63.623047" xlink:href="#DejaVuSans-48"/>
       <use x="127.246094" xlink:href="#DejaVuSans-48"/>
      </g>
     </g>
    </g>
    <g id="ytick_2">
     <g id="line2d_17">
      <path clip-path="url(#p867c044bd2)" d="M 53.328125 227.597422 
L 410.448125 227.597422 
" style="fill:none;stroke:#b0b0b0;stroke-dasharray:2.96,1.28;stroke-dashoffset:0;stroke-width:0.8;"/>
     </g>
     <g id="line2d_18">
      <g>
       <use style="stroke:#000000;stroke-width:0.8;" x="53.328125" xlink:href="#m7424b85f9b" y="227.597422"/>
      </g>
     </g>
     <g id="text_10">
      <!-- 400 -->
      <g transform="translate(27.240625 231.396641)scale(0.1 -0.1)">
       <use xlink:href="#DejaVuSans-52"/>
       <use x="63.623047" xlink:href="#DejaVuSans-48"/>
       <use x="127.246094" xlink:href="#DejaVuSans-48"/>
      </g>
     </g>
    </g>
    <g id="ytick_3">
     <g id="line2d_19">
      <path clip-path="url(#p867c044bd2)" d="M 53.328125 173.127794 
L 410.448125 173.127794 
" style="fill:none;stroke:#b0b0b0;stroke-dasharray:2.96,1.28;stroke-dashoffset:0;stroke-width:0.8;"/>
     </g>
     <g id="line2d_20">
      <g>
       <use style="stroke:#000000;stroke-width:0.8;" x="53.328125" xlink:href="#m7424b85f9b" y="173.127794"/>
      </g>
     </g>
     <g id="text_11">
      <!-- 600 -->
      <g transform="translate(27.240625 176.927013)scale(0.1 -0.1)">
       <use xlink:href="#DejaVuSans-54"/>
       <use x="63.623047" xlink:href="#DejaVuSans-48"/>
       <use x="127.246094" xlink:href="#DejaVuSans-48"/>
      </g>
     </g>
    </g>
    <g id="ytick_4">
     <g id="line2d_21">
      <path clip-path="url(#p867c044bd2)" d="M 53.328125 118.658167 
L 410.448125 118.658167 
" style="fill:none;stroke:#b0b0b0;stroke-dasharray:2.96,1.28;stroke-dashoffset:0;stroke-width:0.8;"/>
     </g>
     <g id="line2d_22">
      <g>
       <use style="stroke:#000000;stroke-width:0.8;" x="53.328125" xlink:href="#m7424b85f9b" y="118.658167"/>
      </g>
     </g>
     <g id="text_12">
      <!-- 800 -->
      <g transform="translate(27.240625 122.457385)scale(0.1 -0.1)">
       <use xlink:href="#DejaVuSans-56"/>
       <use x="63.623047" xlink:href="#DejaVuSans-48"/>
       <use x="127.246094" xlink:href="#DejaVuSans-48"/>
      </g>
     </g>
    </g>
    <g id="ytick_5">
     <g id="line2d_23">
      <path clip-path="url(#p867c044bd2)" d="M 53.328125 64.188539 
L 410.448125 64.188539 
" style="fill:none;stroke:#b0b0b0;stroke-dasharray:2.96,1.28;stroke-dashoffset:0;stroke-width:0.8;"/>
     </g>
     <g id="line2d_24">
      <g>
       <use style="stroke:#000000;stroke-width:0.8;" x="53.328125" xlink:href="#m7424b85f9b" y="64.188539"/>
      </g>
     </g>
     <g id="text_13">
      <!-- 1000 -->
      <g transform="translate(20.878125 67.987758)scale(0.1 -0.1)">
       <use xlink:href="#DejaVuSans-49"/>
       <use x="63.623047" xlink:href="#DejaVuSans-48"/>
       <use x="127.246094" xlink:href="#DejaVuSans-48"/>
       <use x="190.869141" xlink:href="#DejaVuSans-48"/>
      </g>
     </g>
    </g>
    <g id="text_14">
     <!-- Price $ -->
     <defs>
      <path d="M 19.671875 64.796875 
L 19.671875 37.40625 
L 32.078125 37.40625 
Q 38.96875 37.40625 42.71875 40.96875 
Q 46.484375 44.53125 46.484375 51.125 
Q 46.484375 57.671875 42.71875 61.234375 
Q 38.96875 64.796875 32.078125 64.796875 
z
M 9.8125 72.90625 
L 32.078125 72.90625 
Q 44.34375 72.90625 50.609375 67.359375 
Q 56.890625 61.8125 56.890625 51.125 
Q 56.890625 40.328125 50.609375 34.8125 
Q 44.34375 29.296875 32.078125 29.296875 
L 19.671875 29.296875 
L 19.671875 0 
L 9.8125 0 
z
" id="DejaVuSans-80"/>
      <path d="M 41.109375 46.296875 
Q 39.59375 47.171875 37.8125 47.578125 
Q 36.03125 48 33.890625 48 
Q 26.265625 48 22.1875 43.046875 
Q 18.109375 38.09375 18.109375 28.8125 
L 18.109375 0 
L 9.078125 0 
L 9.078125 54.6875 
L 18.109375 54.6875 
L 18.109375 46.1875 
Q 20.953125 51.171875 25.484375 53.578125 
Q 30.03125 56 36.53125 56 
Q 37.453125 56 38.578125 55.875 
Q 39.703125 55.765625 41.0625 55.515625 
z
" id="DejaVuSans-114"/>
      <path d="M 9.421875 54.6875 
L 18.40625 54.6875 
L 18.40625 0 
L 9.421875 0 
z
M 9.421875 75.984375 
L 18.40625 75.984375 
L 18.40625 64.59375 
L 9.421875 64.59375 
z
" id="DejaVuSans-105"/>
      <path d="M 48.78125 52.59375 
L 48.78125 44.1875 
Q 44.96875 46.296875 41.140625 47.34375 
Q 37.3125 48.390625 33.40625 48.390625 
Q 24.65625 48.390625 19.8125 42.84375 
Q 14.984375 37.3125 14.984375 27.296875 
Q 14.984375 17.28125 19.8125 11.734375 
Q 24.65625 6.203125 33.40625 6.203125 
Q 37.3125 6.203125 41.140625 7.25 
Q 44.96875 8.296875 48.78125 10.40625 
L 48.78125 2.09375 
Q 45.015625 0.34375 40.984375 -0.53125 
Q 36.96875 -1.421875 32.421875 -1.421875 
Q 20.0625 -1.421875 12.78125 6.34375 
Q 5.515625 14.109375 5.515625 27.296875 
Q 5.515625 40.671875 12.859375 48.328125 
Q 20.21875 56 33.015625 56 
Q 37.15625 56 41.109375 55.140625 
Q 45.0625 54.296875 48.78125 52.59375 
z
" id="DejaVuSans-99"/>
      <path d="M 56.203125 29.59375 
L 56.203125 25.203125 
L 14.890625 25.203125 
Q 15.484375 15.921875 20.484375 11.0625 
Q 25.484375 6.203125 34.421875 6.203125 
Q 39.59375 6.203125 44.453125 7.46875 
Q 49.3125 8.734375 54.109375 11.28125 
L 54.109375 2.78125 
Q 49.265625 0.734375 44.1875 -0.34375 
Q 39.109375 -1.421875 33.890625 -1.421875 
Q 20.796875 -1.421875 13.15625 6.1875 
Q 5.515625 13.8125 5.515625 26.8125 
Q 5.515625 40.234375 12.765625 48.109375 
Q 20.015625 56 32.328125 56 
Q 43.359375 56 49.78125 48.890625 
Q 56.203125 41.796875 56.203125 29.59375 
z
M 47.21875 32.234375 
Q 47.125 39.59375 43.09375 43.984375 
Q 39.0625 48.390625 32.421875 48.390625 
Q 24.90625 48.390625 20.390625 44.140625 
Q 15.875 39.890625 15.1875 32.171875 
z
" id="DejaVuSans-101"/>
      <path id="DejaVuSans-32"/>
      <path d="M 33.796875 -14.703125 
L 28.90625 -14.703125 
L 28.859375 0 
Q 23.734375 0.09375 18.609375 1.1875 
Q 13.484375 2.296875 8.296875 4.5 
L 8.296875 13.28125 
Q 13.28125 10.15625 18.375 8.5625 
Q 23.484375 6.984375 28.90625 6.9375 
L 28.90625 29.203125 
Q 18.109375 30.953125 13.203125 35.15625 
Q 8.296875 39.359375 8.296875 46.6875 
Q 8.296875 54.640625 13.625 59.21875 
Q 18.953125 63.8125 28.90625 64.5 
L 28.90625 75.984375 
L 33.796875 75.984375 
L 33.796875 64.65625 
Q 38.328125 64.453125 42.578125 63.6875 
Q 46.828125 62.9375 50.875 61.625 
L 50.875 53.078125 
Q 46.828125 55.125 42.546875 56.25 
Q 38.28125 57.375 33.796875 57.5625 
L 33.796875 36.71875 
Q 44.875 35.015625 50.09375 30.609375 
Q 55.328125 26.21875 55.328125 18.609375 
Q 55.328125 10.359375 49.78125 5.59375 
Q 44.234375 0.828125 33.796875 0.09375 
z
M 28.90625 37.59375 
L 28.90625 57.625 
Q 23.25 56.984375 20.265625 54.390625 
Q 17.28125 51.8125 17.28125 47.515625 
Q 17.28125 43.3125 20.03125 40.96875 
Q 22.796875 38.625 28.90625 37.59375 
z
M 33.796875 28.21875 
L 33.796875 7.078125 
Q 39.984375 7.90625 43.140625 10.59375 
Q 46.296875 13.28125 46.296875 17.671875 
Q 46.296875 21.96875 43.28125 24.5 
Q 40.28125 27.046875 33.796875 28.21875 
z
" id="DejaVuSans-36"/>
     </defs>
     <g transform="translate(14.798438 172.342094)rotate(-90)scale(0.1 -0.1)">
      <use xlink:href="#DejaVuSans-80"/>
      <use x="58.552734" xlink:href="#DejaVuSans-114"/>
      <use x="99.666016" xlink:href="#DejaVuSans-105"/>
      <use x="127.449219" xlink:href="#DejaVuSans-99"/>
      <use x="182.429688" xlink:href="#DejaVuSans-101"/>
      <use x="243.953125" xlink:href="#DejaVuSans-32"/>
      <use x="275.740234" xlink:href="#DejaVuSans-36"/>
     </g>
    </g>
   </g>
   <g id="line2d_25">
    <path clip-path="url(#p867c044bd2)" d="M 69.560852 270.613306 
L 70.050158 273.138452 
L 70.539464 273.309152 
L 70.784117 272.255884 
L 71.02877 272.475185 
L 71.273423 271.951741 
L 71.518076 272.569058 
L 71.762729 272.739812 
L 72.007382 273.112687 
L 72.252035 273.20747 
L 72.496688 272.998874 
L 72.985994 270.709976 
L 73.4753 271.007283 
L 73.719953 271.240925 
L 73.964606 270.242584 
L 74.209259 270.770553 
L 74.453912 269.525567 
L 74.698566 270.03757 
L 74.943219 269.429525 
L 75.187872 269.162354 
L 75.432525 269.405496 
L 75.677178 268.841946 
L 75.921831 268.95225 
L 76.166484 269.396021 
L 76.411137 267.990268 
L 76.65579 265.897975 
L 77.145096 266.83002 
L 77.389749 266.83438 
L 77.634402 265.585832 
L 77.879055 265.316542 
L 78.123708 266.197776 
L 78.368361 265.985153 
L 78.613014 265.19596 
L 78.857667 265.435246 
L 79.346973 267.04376 
L 79.836279 268.430215 
L 80.080932 266.563278 
L 80.814891 268.17577 
L 81.304197 265.516698 
L 81.54885 266.047605 
L 81.793503 265.888758 
L 82.282809 269.67681 
L 82.527462 269.888954 
L 82.772115 270.401726 
L 83.016768 269.914936 
L 83.261421 269.985312 
L 83.506074 269.024098 
L 83.750727 269.739573 
L 84.240033 272.713843 
L 84.484686 272.572266 
L 84.973992 275.656812 
L 85.218645 271.528558 
L 85.463298 273.002465 
L 85.707951 273.180213 
L 85.952604 273.108581 
L 86.197257 272.594578 
L 86.44191 271.726086 
L 86.931216 274.48485 
L 87.175869 274.76949 
L 87.665175 274.709623 
L 88.154481 276.334125 
L 89.133093 271.639914 
L 89.377746 271.142119 
L 89.622399 270.12644 
L 89.867052 270.193418 
L 90.356358 268.066932 
L 90.601011 267.863697 
L 90.845664 268.327449 
L 91.33497 267.344621 
L 91.579623 267.504765 
L 91.824276 267.526977 
L 92.068929 269.012001 
L 92.313582 268.211156 
L 92.558235 267.930076 
L 92.802888 268.06497 
L 93.047541 268.615767 
L 93.536847 265.583987 
L 93.7815 266.23831 
L 94.026153 265.272625 
L 94.270806 266.513385 
L 94.515459 266.0401 
L 94.760112 268.742674 
L 95.004765 268.815382 
L 95.249418 269.669633 
L 95.738724 266.403599 
L 96.22803 265.89475 
L 96.472683 263.368075 
L 96.717336 263.942243 
L 96.961989 263.933267 
L 97.206643 264.204169 
L 97.451296 263.498954 
L 97.695949 262.209224 
L 97.940602 262.440605 
L 98.185255 263.234984 
L 98.674561 262.366193 
L 99.163867 263.440932 
L 99.40852 261.947689 
L 99.653173 259.150535 
L 99.897826 261.309913 
L 100.142479 265.512583 
L 100.387132 262.147802 
L 100.631785 264.132591 
L 100.876438 264.253671 
L 101.121091 265.609494 
L 101.365744 263.742287 
L 101.610397 265.010433 
L 101.85505 265.534301 
L 102.099703 265.068397 
L 102.344356 266.348869 
L 102.589009 265.940754 
L 102.833662 263.03812 
L 103.078315 263.113604 
L 103.322968 264.222695 
L 103.567621 262.952704 
L 103.812274 263.865122 
L 104.30158 264.128568 
L 104.546233 265.629666 
L 104.790886 265.76279 
L 105.035539 264.719102 
L 105.524845 264.051787 
L 105.769498 262.057657 
L 106.014151 261.394623 
L 106.258804 261.876003 
L 106.74811 261.757864 
L 106.992763 262.557098 
L 107.237416 261.773216 
L 107.482069 261.519784 
L 107.726722 264.047474 
L 108.216028 266.152886 
L 108.460681 266.555607 
L 108.705334 266.326303 
L 108.949987 267.377825 
L 109.19464 266.197767 
L 109.439293 266.669456 
L 109.928599 264.160683 
L 110.173252 263.841185 
L 110.417905 265.155708 
L 110.662558 264.684177 
L 110.907211 265.852179 
L 111.151864 265.836163 
L 111.396517 266.816664 
L 112.619782 262.133208 
L 112.864435 263.52413 
L 113.109088 262.258793 
L 113.353741 263.607003 
L 113.598394 265.752218 
L 113.843047 265.504696 
L 114.0877 264.645687 
L 114.332353 263.208437 
L 114.577006 263.245523 
L 114.821659 261.635703 
L 115.066312 267.011068 
L 115.310965 268.342031 
L 115.555618 267.259462 
L 115.800271 268.780711 
L 116.289577 266.13987 
L 116.53423 266.770274 
L 116.778883 266.215105 
L 117.268189 265.558138 
L 117.512842 264.6218 
L 117.757495 264.389713 
L 118.002148 263.355932 
L 118.491454 264.495675 
L 118.736107 262.930446 
L 118.98076 263.55917 
L 119.225413 263.218669 
L 119.470066 264.816046 
L 119.71472 265.118847 
L 119.959373 265.138844 
L 120.204026 263.642825 
L 120.448679 264.126299 
L 120.693332 263.765094 
L 120.937985 263.123877 
L 121.182638 263.750541 
L 121.427291 264.061354 
L 121.671944 263.66342 
L 121.916597 263.488939 
L 122.16125 261.045934 
L 122.405903 259.922989 
L 122.650556 261.621441 
L 122.895209 262.440538 
L 123.139862 261.324732 
L 123.384515 261.822112 
L 123.873821 259.725061 
L 124.363127 261.959557 
L 124.60778 261.973437 
L 124.852433 262.718771 
L 125.097086 262.318012 
L 125.341739 260.842687 
L 125.831045 260.806109 
L 126.075698 259.609308 
L 126.320351 259.171347 
L 126.565004 259.086562 
L 126.809657 258.582459 
L 127.05431 257.309974 
L 127.543616 256.840962 
L 128.032922 252.731005 
L 128.277575 253.00445 
L 128.522228 252.908046 
L 128.766881 252.408921 
L 129.011534 253.646548 
L 129.256187 253.332759 
L 129.745493 254.455912 
L 129.990146 255.021786 
L 130.234799 253.815302 
L 130.479452 251.494226 
L 130.968758 254.062883 
L 131.213411 254.371817 
L 131.458064 253.198471 
L 131.702717 253.569659 
L 131.94737 254.431959 
L 132.192023 254.489706 
L 132.436676 255.522731 
L 132.681329 255.834359 
L 132.925982 255.425321 
L 133.170635 255.580603 
L 133.659941 257.013839 
L 133.904594 258.32281 
L 134.149247 258.766324 
L 134.3939 258.568645 
L 134.638553 258.163788 
L 134.883206 258.844418 
L 135.127859 257.449888 
L 135.372512 257.379466 
L 135.861818 259.818797 
L 136.106471 259.642977 
L 136.351124 259.005493 
L 136.595777 259.82311 
L 137.085083 256.41644 
L 137.329736 256.294819 
L 137.574389 255.812758 
L 137.819042 254.771937 
L 138.063695 254.602492 
L 138.797654 255.261354 
L 139.042307 255.765158 
L 139.531613 251.465568 
L 139.776266 251.465435 
L 140.020919 250.295156 
L 140.265572 251.60515 
L 140.510225 250.876497 
L 140.754878 251.280058 
L 140.999531 249.801575 
L 141.244184 250.379268 
L 141.488837 251.280482 
L 141.73349 249.029878 
L 141.978143 249.158638 
L 142.222797 250.701808 
L 142.46745 249.532842 
L 142.956756 253.782398 
L 143.201409 255.124299 
L 143.690715 251.732489 
L 143.935368 251.783255 
L 144.180021 252.928933 
L 144.424674 251.813891 
L 144.669327 251.739346 
L 144.91398 246.836913 
L 145.158633 247.533559 
L 145.403286 245.867986 
L 145.647939 247.430414 
L 145.892592 245.943553 
L 146.137245 237.512946 
L 146.381898 239.00983 
L 146.626551 237.743587 
L 146.871204 238.170702 
L 147.115857 237.363108 
L 147.36051 238.726211 
L 147.849816 238.742211 
L 148.094469 239.47226 
L 148.339122 242.858351 
L 148.828428 239.931872 
L 149.073081 241.236788 
L 149.317734 239.420006 
L 149.562387 236.399542 
L 149.80704 235.923813 
L 150.051693 236.715516 
L 150.296346 237.028773 
L 150.540999 237.658562 
L 150.785652 235.94834 
L 151.274958 233.87969 
L 151.764264 231.156325 
L 152.008917 229.288419 
L 152.25357 229.645294 
L 152.498223 231.691147 
L 152.742876 231.318929 
L 152.987529 231.714377 
L 153.232182 231.05623 
L 153.476835 231.609712 
L 153.721488 230.82524 
L 153.966141 232.320794 
L 154.210794 232.562049 
L 154.455447 231.748263 
L 154.7001 230.47587 
L 154.944753 230.829262 
L 155.189406 228.583155 
L 155.434059 228.786311 
L 155.678712 226.892457 
L 155.923365 226.694695 
L 156.168018 227.693635 
L 156.412671 226.283281 
L 156.901977 229.247253 
L 157.14663 227.781071 
L 157.391283 228.008454 
L 157.635936 228.421324 
L 157.880589 229.165527 
L 158.369895 226.927182 
L 158.614548 227.17261 
L 158.859201 228.063626 
L 159.103854 229.846613 
L 159.348507 228.078786 
L 159.59316 228.532813 
L 159.837813 228.557215 
L 160.082466 227.526077 
L 160.327119 225.524433 
L 160.571772 226.204007 
L 160.816425 227.450917 
L 161.061078 230.732825 
L 161.305731 231.082228 
L 161.550384 228.900966 
L 161.795037 231.665631 
L 162.03969 226.611615 
L 162.284343 238.502252 
L 162.528996 241.851084 
L 162.773649 241.371674 
L 163.018302 241.811621 
L 163.507608 237.910447 
L 163.752261 237.957756 
L 163.996914 237.696096 
L 164.241567 241.055508 
L 164.48622 238.918803 
L 164.730874 238.89101 
L 164.975527 239.906198 
L 165.22018 241.596688 
L 165.464833 240.951715 
L 165.709486 241.783637 
L 166.443445 238.304383 
L 166.688098 238.214603 
L 166.932751 237.680321 
L 167.177404 238.310525 
L 167.422057 237.200877 
L 167.66671 234.926885 
L 168.156016 235.029415 
L 168.645322 235.897541 
L 168.889975 235.408531 
L 169.134628 235.181447 
L 169.868587 233.229546 
L 170.602546 238.094412 
L 170.847199 240.449257 
L 171.091852 239.688847 
L 171.336505 242.729508 
L 171.581158 244.062192 
L 171.825811 244.112875 
L 172.070464 244.633942 
L 172.315117 242.861202 
L 172.55977 243.135337 
L 173.293729 249.627077 
L 173.538382 247.146738 
L 173.783035 245.889064 
L 174.027688 249.849989 
L 174.272341 251.286183 
L 174.516994 250.168898 
L 174.761647 250.140298 
L 175.0063 248.104344 
L 175.250953 247.782892 
L 175.495606 246.175949 
L 175.740259 246.601019 
L 175.984912 247.877443 
L 176.229565 244.481236 
L 176.474218 253.494515 
L 176.718871 255.409447 
L 177.45283 252.436448 
L 177.697483 252.405372 
L 177.942136 251.848458 
L 178.186789 255.257689 
L 178.676095 257.693246 
L 178.920748 256.655418 
L 179.165401 253.811737 
L 179.410054 253.348168 
L 179.654707 255.23893 
L 179.89936 255.880936 
L 180.144013 255.208327 
L 180.388666 255.479063 
L 180.877972 253.269343 
L 181.122625 253.304492 
L 181.367278 251.322379 
L 181.611931 251.720205 
L 181.856584 251.893198 
L 182.101237 250.914439 
L 182.34589 251.257484 
L 182.590543 252.258792 
L 182.835196 252.700435 
L 183.079849 252.814243 
L 183.324502 248.286348 
L 183.569155 246.665191 
L 183.813808 247.251478 
L 184.303114 245.149781 
L 184.547767 247.661313 
L 184.79242 247.544704 
L 185.037073 247.185469 
L 185.281726 247.733631 
L 185.526379 245.369526 
L 185.771032 247.367887 
L 186.015685 248.104378 
L 186.260338 247.276071 
L 186.504991 248.108309 
L 186.749644 247.22021 
L 187.238951 247.986696 
L 187.483604 247.92476 
L 187.728257 245.873197 
L 187.97291 245.754286 
L 188.217563 244.497352 
L 188.462216 245.557356 
L 188.706869 248.169797 
L 188.951522 246.500426 
L 189.196175 247.064031 
L 189.440828 242.138866 
L 189.685481 239.694922 
L 189.930134 239.938172 
L 190.174787 239.519751 
L 190.41944 240.440439 
L 190.664093 238.754994 
L 191.153399 238.182255 
L 191.398052 238.907134 
L 191.642705 238.7715 
L 191.887358 248.068813 
L 192.132011 249.017369 
L 192.376664 249.137951 
L 192.621317 248.49139 
L 193.110623 252.630395 
L 193.355276 250.861595 
L 193.599929 251.213824 
L 193.844582 250.788529 
L 194.089235 251.43908 
L 194.333888 249.998547 
L 194.823194 249.328199 
L 195.3125 245.595131 
L 195.557153 245.494297 
L 196.046459 245.08826 
L 196.291112 244.917361 
L 196.535765 245.69791 
L 196.780418 246.053081 
L 197.025071 245.399796 
L 197.269724 243.299646 
L 197.514377 242.947508 
L 197.75903 243.794972 
L 198.003683 244.044522 
L 198.248336 243.139227 
L 198.492989 244.056233 
L 198.737642 242.17778 
L 198.982295 242.069042 
L 199.226948 243.155742 
L 199.471601 246.532383 
L 199.716254 246.097107 
L 199.960907 246.322961 
L 200.20556 246.151563 
L 200.450213 248.114152 
L 200.694866 247.068801 
L 200.939519 248.079668 
L 201.184172 247.809231 
L 201.428825 246.107105 
L 201.673478 247.946345 
L 201.918131 248.171567 
L 202.162784 246.937232 
L 202.407437 248.636349 
L 202.65209 248.288658 
L 202.896743 248.666428 
L 203.141396 248.503483 
L 203.386049 249.847429 
L 203.630702 249.590324 
L 203.875355 248.428672 
L 204.120008 248.581843 
L 204.364661 249.986121 
L 204.609314 248.438646 
L 204.853967 250.42257 
L 205.343273 252.819305 
L 205.587926 252.325483 
L 206.077232 253.805902 
L 206.321885 253.59687 
L 206.566538 252.909218 
L 206.811191 250.454926 
L 207.055844 251.100814 
L 207.300497 251.034472 
L 207.54515 258.066013 
L 207.789803 257.270079 
L 208.034456 255.781748 
L 208.279109 256.200892 
L 208.768415 253.150515 
L 209.013068 253.083334 
L 209.257721 253.86099 
L 209.502375 255.550258 
L 209.747028 255.515184 
L 209.991681 254.658868 
L 210.480987 251.403199 
L 210.72564 251.547186 
L 210.970293 250.195527 
L 211.214946 247.133165 
L 211.459599 248.445868 
L 211.948905 247.484139 
L 212.193558 246.409001 
L 212.682864 245.041126 
L 212.927517 245.204271 
L 213.17217 245.594192 
L 213.416823 244.218505 
L 213.661476 247.63268 
L 213.906129 247.528439 
L 214.150782 250.167618 
L 214.395435 250.051582 
L 214.884741 252.820635 
L 215.129394 251.245424 
L 215.374047 253.035343 
L 215.6187 252.621469 
L 215.863353 252.628949 
L 216.108006 252.963832 
L 216.352659 255.921039 
L 216.597312 254.893508 
L 216.841965 255.211984 
L 217.086618 254.634217 
L 217.331271 252.849309 
L 217.575924 252.922716 
L 217.820577 253.796859 
L 218.06523 252.156238 
L 218.309883 251.371043 
L 218.554536 251.846671 
L 218.799189 251.829525 
L 219.043842 252.32594 
L 219.533148 255.891226 
L 220.022454 254.515547 
L 220.267107 255.472638 
L 220.51176 256.95344 
L 220.756413 256.052492 
L 221.001066 256.45567 
L 221.245719 258.157472 
L 221.490372 257.133797 
L 221.735025 257.493573 
L 221.979678 255.389084 
L 222.224331 251.869045 
L 222.468984 251.326136 
L 223.202943 253.592133 
L 223.447596 251.470937 
L 223.692249 239.909099 
L 223.936902 237.322864 
L 224.181555 237.575431 
L 224.426208 237.20667 
L 224.670861 234.713049 
L 224.915514 234.638562 
L 225.160167 235.647642 
L 225.894126 233.851464 
L 226.138779 232.586543 
L 226.383432 234.306173 
L 226.628085 234.833498 
L 227.117391 232.04198 
L 227.362044 232.98387 
L 227.606697 233.379617 
L 227.85135 231.5382 
L 228.096003 231.687648 
L 228.340656 232.926687 
L 228.585309 231.433834 
L 228.829962 231.707404 
L 229.074615 232.211275 
L 229.319268 230.825356 
L 229.563921 232.901088 
L 229.808574 233.302587 
L 230.053227 235.720176 
L 230.29788 236.562179 
L 230.542533 234.44981 
L 230.787186 235.435219 
L 231.031839 234.687791 
L 231.276492 235.058613 
L 231.521145 234.189348 
L 231.765798 234.691215 
L 232.010452 233.275259 
L 232.255105 234.183488 
L 232.499758 234.454781 
L 232.989064 236.262761 
L 233.47837 234.323012 
L 233.967676 235.489534 
L 234.212329 234.944189 
L 234.456982 233.656595 
L 234.701635 234.370079 
L 234.946288 232.536741 
L 235.190941 231.908989 
L 235.435594 232.151973 
L 235.680247 232.22316 
L 235.9249 231.479597 
L 236.169553 231.931795 
L 236.414206 231.233837 
L 236.658859 234.055708 
L 236.903512 230.293102 
L 237.148165 229.854451 
L 237.392818 230.234124 
L 237.637471 230.167209 
L 237.882124 215.272115 
L 238.37143 219.636193 
L 238.616083 219.533389 
L 238.860736 221.578926 
L 239.105389 221.28919 
L 239.350042 221.254498 
L 239.839348 222.319929 
L 240.328654 218.379915 
L 240.573307 218.603442 
L 240.81796 219.073793 
L 241.062613 220.166178 
L 241.307266 218.70052 
L 241.551919 220.387893 
L 241.796572 220.590641 
L 242.041225 221.526963 
L 242.285878 220.950334 
L 242.530531 218.86098 
L 242.775184 219.93729 
L 243.019837 220.507627 
L 243.26449 218.891699 
L 243.509143 220.194403 
L 243.998449 219.015563 
L 244.243102 219.000162 
L 244.487755 217.490778 
L 244.977061 220.074054 
L 245.221714 220.988168 
L 245.466367 220.45893 
L 245.71102 219.04329 
L 245.955673 218.458358 
L 246.200326 219.27522 
L 246.444979 220.940485 
L 246.689632 219.965125 
L 246.934285 219.819443 
L 247.178938 216.715241 
L 247.423591 217.924143 
L 247.668244 217.549315 
L 247.912897 214.923584 
L 248.15755 216.323424 
L 248.402203 216.517512 
L 248.646856 217.042535 
L 248.891509 219.259802 
L 249.380815 217.238843 
L 249.625468 217.165104 
L 249.870121 217.607844 
L 250.114774 217.414014 
L 250.359427 219.293281 
L 250.60408 218.029864 
L 251.338039 209.662681 
L 251.582692 210.847995 
L 251.827345 206.96848 
L 252.316651 203.59902 
L 252.805957 203.544214 
L 253.05061 205.180049 
L 253.295263 192.413314 
L 253.539916 191.985858 
L 253.784569 193.465987 
L 254.029222 192.565828 
L 254.273875 190.451407 
L 254.763182 190.942095 
L 255.007835 191.762664 
L 255.252488 190.370088 
L 255.741794 194.217305 
L 255.986447 193.81332 
L 256.2311 192.87744 
L 256.475753 193.292644 
L 256.720406 192.27084 
L 256.965059 191.74895 
L 257.209712 190.745348 
L 257.454365 190.78368 
L 257.699018 191.334826 
L 258.188324 201.595107 
L 258.432977 209.877555 
L 258.67763 209.146443 
L 258.922283 199.991039 
L 259.166936 195.275529 
L 259.411589 195.377643 
L 259.656242 196.687887 
L 259.900895 201.015536 
L 260.145548 197.241875 
L 260.634854 200.403625 
L 260.879507 195.413366 
L 261.12416 195.611975 
L 261.613466 192.233937 
L 261.858119 194.414318 
L 262.102772 194.129387 
L 262.347425 192.765634 
L 262.592078 189.697595 
L 262.836731 189.349298 
L 263.081384 187.156433 
L 263.326037 189.842546 
L 263.815343 191.04529 
L 264.059996 193.608261 
L 264.304649 199.013085 
L 264.549302 201.139733 
L 265.038608 194.570539 
L 265.527914 188.396595 
L 265.772567 190.05078 
L 266.01722 188.819113 
L 266.261873 191.162132 
L 266.506526 189.384937 
L 266.751179 186.598505 
L 266.995832 186.988859 
L 267.240485 188.08229 
L 267.485138 183.314652 
L 267.729791 181.096953 
L 267.974444 180.485666 
L 268.219097 183.767491 
L 268.46375 185.092295 
L 268.708403 182.880797 
L 268.953056 173.450709 
L 269.197709 170.951935 
L 269.442362 170.326984 
L 269.687015 168.609216 
L 269.931668 166.035938 
L 270.176321 166.23862 
L 270.420974 165.567457 
L 270.665627 166.37378 
L 271.154933 158.198831 
L 271.399586 157.242005 
L 271.644239 158.257908 
L 271.888892 157.057808 
L 272.133545 153.376022 
L 272.378198 155.480669 
L 272.622851 161.701041 
L 272.867504 160.126379 
L 273.112157 161.333494 
L 273.35681 155.939026 
L 273.601463 156.551544 
L 273.846116 154.611196 
L 274.090769 151.715369 
L 274.335422 153.829725 
L 274.580075 152.66006 
L 274.824728 153.187037 
L 275.069381 155.469631 
L 275.314034 151.607155 
L 275.558687 152.446175 
L 275.80334 155.082503 
L 276.047993 153.301352 
L 276.292646 154.051706 
L 276.537299 152.048507 
L 276.781952 155.406298 
L 277.026606 156.042304 
L 277.271259 161.946793 
L 277.515912 157.186552 
L 277.760565 156.995672 
L 278.005218 152.452375 
L 278.494524 155.5382 
L 278.739177 155.375945 
L 278.98383 155.745221 
L 279.228483 155.617608 
L 279.473136 155.867698 
L 279.717789 152.533245 
L 279.962442 147.497913 
L 280.207095 148.873218 
L 280.451748 152.38359 
L 280.696401 162.744322 
L 280.941054 163.532144 
L 281.185707 163.860494 
L 281.43036 170.561565 
L 281.675013 170.811223 
L 281.919666 167.936241 
L 282.164319 167.930141 
L 282.408972 177.560466 
L 282.653625 174.560614 
L 282.898278 180.602474 
L 283.142931 179.566225 
L 283.387584 180.270716 
L 283.632237 179.458974 
L 283.87689 173.749005 
L 284.121543 173.726216 
L 284.366196 172.476197 
L 284.610849 177.262769 
L 284.855502 163.25559 
L 285.100155 176.404051 
L 285.344808 179.634412 
L 285.834114 191.302578 
L 286.078767 189.973534 
L 286.32342 199.105018 
L 286.568073 202.915623 
L 286.812726 204.520539 
L 287.057379 202.342967 
L 287.302032 198.795584 
L 287.546685 197.917875 
L 288.035991 190.649002 
L 288.280644 193.121612 
L 288.525297 190.455064 
L 288.76995 183.836891 
L 289.014603 185.722017 
L 289.503909 185.121136 
L 289.993215 185.122466 
L 290.237868 185.902425 
L 290.482521 178.748499 
L 290.727174 178.503728 
L 291.21648 179.828732 
L 291.461133 183.133547 
L 291.705786 183.796564 
L 292.195092 184.177176 
L 292.439745 181.314612 
L 292.929051 179.330763 
L 293.173704 180.047405 
L 293.418357 184.009469 
L 293.66301 185.955053 
L 293.907663 185.440909 
L 294.396969 181.297823 
L 294.641622 177.724417 
L 294.886275 178.553829 
L 295.130928 174.765557 
L 295.375581 173.454765 
L 295.620234 174.838747 
L 295.864887 173.499564 
L 296.354193 176.832204 
L 296.598846 172.524819 
L 296.843499 175.42259 
L 297.088152 174.570555 
L 297.332805 174.17292 
L 297.577458 172.237028 
L 297.822111 169.101999 
L 298.311417 166.127164 
L 298.55607 163.557078 
L 298.800723 165.573674 
L 299.045376 164.17282 
L 299.29003 164.695574 
L 299.534683 167.533637 
L 299.779336 165.967469 
L 300.513295 172.430351 
L 300.757948 156.964288 
L 301.002601 150.495371 
L 301.247254 153.990916 
L 301.491907 153.925239 
L 301.73656 157.021437 
L 301.981213 153.006181 
L 302.225866 151.496896 
L 302.470519 145.255246 
L 302.715172 142.551679 
L 302.959825 141.295526 
L 303.204478 143.410563 
L 303.449131 143.13012 
L 303.693784 147.261636 
L 303.938437 146.633859 
L 304.18309 146.336926 
L 304.427743 145.211578 
L 304.672396 146.826102 
L 305.161702 143.640357 
L 305.406355 141.879785 
L 305.651008 142.580304 
L 305.895661 139.7071 
L 306.140314 140.605962 
L 306.384967 138.226856 
L 306.62962 138.944662 
L 306.874273 138.618074 
L 307.118926 139.397634 
L 307.363579 138.60569 
L 307.608232 138.330881 
L 307.852885 140.954426 
L 308.097538 141.628182 
L 308.342191 140.512326 
L 308.586844 141.89044 
L 308.831497 141.005093 
L 309.07615 143.975406 
L 309.320803 141.906864 
L 309.565456 141.41541 
L 309.810109 142.845421 
L 310.054762 139.725169 
L 310.299415 145.952224 
L 310.544068 147.951982 
L 310.788721 143.452419 
L 311.033374 141.478793 
L 311.278027 141.523176 
L 311.52268 138.769374 
L 311.767333 138.11294 
L 312.011986 135.553326 
L 312.256639 135.843111 
L 312.745945 131.196886 
L 313.235251 134.201725 
L 313.479904 134.53975 
L 313.724557 136.100466 
L 313.96921 135.924264 
L 314.213863 134.877991 
L 314.458516 133.339317 
L 314.703169 133.691189 
L 314.947822 133.545706 
L 315.437128 135.993265 
L 315.681781 135.686874 
L 315.926434 131.41024 
L 316.171087 129.793854 
L 316.41574 127.398158 
L 316.905046 130.861953 
L 317.394352 127.798203 
L 317.639005 127.682126 
L 317.883658 127.191985 
L 318.128311 127.106644 
L 318.372964 126.373212 
L 318.617617 126.014459 
L 319.106923 128.278336 
L 319.351576 128.092443 
L 319.596229 128.145719 
L 319.840882 130.078021 
L 320.330188 128.662107 
L 320.574841 130.083922 
L 320.819494 129.527091 
L 321.064147 126.883782 
L 321.3088 126.306322 
L 321.553453 127.307181 
L 322.287413 125.966253 
L 322.532066 121.535492 
L 322.776719 122.779793 
L 323.021372 122.863355 
L 323.266025 129.266795 
L 323.510678 126.122823 
L 323.755331 128.993749 
L 323.999984 129.004121 
L 324.48929 124.320893 
L 324.733943 125.265202 
L 324.978596 123.835241 
L 325.223249 121.250128 
L 325.467902 117.248685 
L 325.712555 117.015633 
L 325.957208 118.771833 
L 326.446514 110.766321 
L 326.691167 110.759539 
L 326.93582 108.457578 
L 327.180473 108.607982 
L 327.425126 109.322846 
L 327.669779 106.471086 
L 328.159085 107.828189 
L 328.403738 107.150643 
L 328.648391 110.049961 
L 328.893044 109.150301 
L 329.38235 112.145765 
L 329.627003 114.796787 
L 329.871656 113.49808 
L 330.116309 113.517795 
L 330.360962 115.521675 
L 330.605615 113.142784 
L 330.850268 108.016725 
L 331.094921 108.888691 
L 331.339574 112.239534 
L 331.584227 113.266175 
L 331.82888 124.582005 
L 332.073533 120.866341 
L 332.318186 122.125968 
L 332.562839 127.567811 
L 332.807492 127.093711 
L 333.052145 130.308796 
L 333.296798 122.326139 
L 333.541451 121.62986 
L 333.786104 125.941318 
L 334.030757 133.740359 
L 334.27541 134.561127 
L 334.520063 139.968444 
L 334.764716 133.568679 
L 335.009369 132.769138 
L 335.254022 130.170993 
L 335.498675 129.128227 
L 335.743328 123.768384 
L 335.987981 122.388143 
L 336.232634 123.825617 
L 336.477287 123.692717 
L 336.72194 127.379956 
L 336.966593 128.497175 
L 337.455899 133.5923 
L 337.700552 134.47926 
L 337.945205 129.378101 
L 338.434511 126.484369 
L 338.679164 127.278308 
L 338.923817 126.882552 
L 339.16847 129.18408 
L 339.413123 125.332807 
L 340.147082 129.821033 
L 340.636388 126.25898 
L 340.881041 126.45626 
L 341.370347 129.091657 
L 341.615 126.159958 
L 341.859653 126.016985 
L 342.104306 127.920946 
L 342.348959 131.981981 
L 342.838265 129.997716 
L 343.327571 119.654405 
L 343.572224 119.446321 
L 343.816877 119.650149 
L 344.06153 118.748611 
L 344.306184 114.805115 
L 344.550837 113.941394 
L 344.79549 115.961697 
L 345.040143 116.479681 
L 345.284796 116.031513 
L 345.529449 116.249538 
L 345.774102 113.661815 
L 346.018755 112.453985 
L 346.263408 108.643488 
L 346.508061 107.951331 
L 346.752714 108.839853 
L 347.24202 112.04252 
L 347.731326 107.623861 
L 347.975979 115.703628 
L 348.220632 116.213267 
L 349.199244 110.946113 
L 349.443897 108.484009 
L 349.68855 108.542155 
L 349.933203 106.809028 
L 350.422509 106.172092 
L 350.667162 103.080099 
L 350.911815 103.357683 
L 351.156468 104.264923 
L 351.401121 106.08547 
L 351.645774 105.124389 
L 351.890427 106.125381 
L 352.13508 103.943056 
L 352.379733 105.09101 
L 352.624386 104.796421 
L 352.869039 105.649936 
L 353.113692 105.792643 
L 353.358345 104.57203 
L 353.602998 103.92108 
L 353.847651 104.071816 
L 354.092304 103.470635 
L 354.336957 104.024491 
L 354.826263 103.765125 
L 355.070916 104.071018 
L 355.315569 102.801783 
L 355.560222 106.54303 
L 355.804875 105.157402 
L 356.049528 105.357773 
L 356.294181 105.868609 
L 356.538834 105.518017 
L 356.783487 103.040221 
L 357.02814 98.127814 
L 357.272793 97.661844 
L 357.517446 94.855165 
L 357.762099 93.502451 
L 358.006752 89.34846 
L 358.251405 88.749175 
L 358.496058 91.721134 
L 358.740711 92.504766 
L 358.985364 89.177561 
L 359.47467 92.176333 
L 359.719323 95.214085 
L 359.963976 90.456337 
L 360.208629 90.091915 
L 360.453282 91.34215 
L 360.697935 90.463917 
L 360.942588 91.419081 
L 361.187241 88.999664 
L 361.431894 88.984952 
L 361.676547 88.529338 
L 362.165853 84.297852 
L 362.410506 78.008561 
L 362.655159 78.471606 
L 362.899812 80.002999 
L 363.389118 81.728331 
L 363.633771 77.685879 
L 363.878424 76.772855 
L 364.123077 77.821388 
L 364.36773 78.076316 
L 364.612383 74.313044 
L 364.857036 75.331158 
L 365.101689 73.071354 
L 365.346342 78.862807 
L 365.590995 74.967518 
L 365.835648 74.700522 
L 366.080301 71.811128 
L 366.324954 71.594034 
L 367.058914 65.063214 
L 367.303567 64.768874 
L 367.54822 65.285794 
L 367.792873 64.891335 
L 368.037526 61.967332 
L 368.282179 60.796288 
L 368.526832 63.06108 
L 368.771485 61.005919 
L 369.016138 60.999752 
L 369.260791 69.678106 
L 369.505444 73.014769 
L 369.750097 68.700984 
L 369.99475 70.099843 
L 370.239403 73.401798 
L 370.484056 66.920099 
L 370.728709 65.074169 
L 370.973362 65.827182 
L 371.218015 63.116683 
L 371.462668 63.429757 
L 371.707321 62.769283 
L 371.951974 65.423647 
L 372.196627 70.017693 
L 372.44128 66.244731 
L 372.685933 70.312549 
L 372.930586 72.378083 
L 373.175239 76.176694 
L 373.419892 71.350527 
L 373.664545 73.204236 
L 374.153851 64.74522 
L 374.398504 65.50711 
L 374.643157 62.058658 
L 374.88781 63.721837 
L 375.132463 63.342571 
L 375.377116 61.101683 
L 375.621769 57.272651 
L 376.111075 56.170493 
L 376.355728 56.947975 
L 376.600381 53.270178 
L 376.845034 53.136597 
L 377.089687 49.570804 
L 377.33434 51.489442 
L 377.823646 66.887136 
L 378.068299 64.414858 
L 378.312952 64.717643 
L 378.557605 67.206227 
L 378.802258 66.920996 
L 379.046911 65.668933 
L 379.291564 66.38516 
L 379.536217 68.482211 
L 379.78087 75.203113 
L 380.270176 68.145616 
L 380.514829 68.478637 
L 380.759482 69.669046 
L 381.004135 74.369645 
L 381.248788 74.843761 
L 381.493441 76.300783 
L 381.738094 72.666172 
L 382.2274 76.63058 
L 382.472053 78.519629 
L 382.716706 78.305976 
L 382.961359 76.176428 
L 383.450665 69.155185 
L 383.695318 69.857998 
L 383.939971 73.303691 
L 384.184624 72.467314 
L 384.429277 69.358167 
L 384.67393 73.194811 
L 384.918583 69.735654 
L 385.163236 68.572955 
L 385.407889 63.968685 
L 386.386501 71.817761 
L 386.631154 70.905202 
L 387.12046 75.797179 
L 387.365113 79.859894 
L 387.609766 80.09986 
L 387.854419 76.829987 
L 388.343725 74.141214 
L 388.833031 75.248277 
L 389.077684 72.969273 
L 389.566991 66.632956 
L 389.811644 66.273754 
L 390.056297 67.254417 
L 390.545603 63.524923 
L 390.790256 63.02057 
L 391.279562 61.290052 
L 391.768868 67.267748 
L 392.013521 68.18822 
L 392.258174 72.7188 
L 392.502827 70.014601 
L 392.74748 70.936203 
L 392.992133 71.065728 
L 393.236786 36.142731 
L 393.481439 34.414125 
L 393.726092 35.752561 
L 393.970745 35.679653 
L 394.215398 38.266761 
L 394.215398 38.266761 
" style="fill:none;stroke:#1f77b4;stroke-linecap:square;stroke-width:1.5;"/>
   </g>
   <g id="line2d_26">
    <path clip-path="url(#p867c044bd2)" d="M 69.560852 271.990169 
L 70.294811 273.744091 
L 70.539464 272.799043 
L 70.784117 272.38235 
L 71.02877 272.771808 
L 71.273423 272.455884 
L 71.762729 273.057774 
L 72.007382 273.289269 
L 72.252035 272.613846 
L 72.496688 273.281099 
L 72.741341 271.794078 
L 72.985994 271.009716 
L 73.230647 270.800007 
L 73.4753 270.933458 
L 73.719953 271.336533 
L 73.964606 270.590299 
L 74.209259 270.71558 
L 74.453912 269.596229 
L 74.698566 270.091902 
L 74.943219 269.326604 
L 75.187872 269.269411 
L 75.432525 268.975275 
L 75.677178 268.920805 
L 75.921831 269.100555 
L 76.166484 268.931699 
L 76.65579 265.99851 
L 77.389749 267.104243 
L 77.634402 265.344874 
L 77.879055 265.385726 
L 78.123708 266.140131 
L 78.857667 265.252276 
L 79.10232 267.027986 
L 79.346973 266.725679 
L 79.591626 267.796008 
L 79.836279 268.302575 
L 80.080932 266.777425 
L 80.325585 266.978963 
L 80.814891 268.120102 
L 81.304197 265.399344 
L 81.54885 266.360733 
L 81.793503 266.088385 
L 82.282809 268.994339 
L 82.527462 270.307057 
L 82.772115 270.396932 
L 83.016768 269.846789 
L 83.261421 270.255311 
L 83.506074 269.056979 
L 83.750727 269.767808 
L 84.240033 273.61064 
L 84.484686 272.295199 
L 84.729339 273.646046 
L 84.973992 274.277893 
L 85.218645 272.175366 
L 85.463298 272.744573 
L 85.707951 272.80449 
L 85.952604 273.341016 
L 86.197257 272.423202 
L 86.44191 272.357839 
L 86.686563 273.291993 
L 86.931216 274.915188 
L 87.175869 274.825313 
L 87.420522 275.225665 
L 87.665175 274.849824 
L 87.909828 275.993687 
L 88.154481 276.263311 
L 88.399134 274.354151 
L 88.643787 273.896606 
L 88.88844 272.850789 
L 89.133093 271.203083 
L 89.377746 271.066909 
L 89.622399 270.296163 
L 89.867052 270.505871 
L 90.111705 268.980722 
L 90.601011 267.757879 
L 90.845664 268.465984 
L 91.090317 267.785114 
L 91.33497 267.632599 
L 91.579623 267.322122 
L 91.824276 267.605364 
L 92.068929 268.858165 
L 92.313582 268.158231 
L 92.558235 268.147337 
L 92.802888 268.419685 
L 93.047541 268.501389 
L 93.536847 265.372109 
L 93.7815 266.172813 
L 94.515459 266.502354 
L 94.760112 268.918082 
L 95.249418 270.151819 
L 95.494071 266.793766 
L 95.738724 266.469672 
L 95.983377 266.385244 
L 96.472683 263.80066 
L 96.717336 263.501077 
L 96.961989 263.400309 
L 97.206643 264.337186 
L 97.695949 262.817484 
L 97.940602 262.858336 
L 98.185255 262.594158 
L 98.429908 262.776631 
L 98.674561 262.561476 
L 99.163867 263.17426 
L 99.40852 261.64094 
L 99.653173 259.249723 
L 99.897826 261.545618 
L 100.142479 259.462154 
L 100.387132 262.719438 
L 100.631785 263.294093 
L 100.876438 264.969034 
L 101.121091 265.181465 
L 101.365744 264.320845 
L 101.610397 264.609534 
L 101.85505 265.344874 
L 102.099703 264.854648 
L 102.344356 265.946764 
L 102.589009 265.309469 
L 102.833662 263.718956 
L 103.078315 263.648145 
L 103.322968 264.116584 
L 103.567621 262.948211 
L 103.812274 264.331739 
L 104.056927 263.923217 
L 104.30158 263.836066 
L 104.546233 265.483772 
L 104.790886 265.889571 
L 105.280192 264.835583 
L 105.524845 264.266376 
L 105.769498 261.913288 
L 106.014151 261.433955 
L 106.258804 261.886053 
L 106.503457 261.64094 
L 106.74811 262.068526 
L 106.992763 262.730332 
L 107.237416 261.575576 
L 107.971375 265.916805 
L 108.705334 266.785596 
L 108.949987 267.210459 
L 109.19464 266.112896 
L 109.439293 266.529589 
L 109.683946 266.066597 
L 109.928599 264.141095 
L 110.173252 263.825172 
L 110.417905 265.072526 
L 110.662558 265.148784 
L 111.151864 266.891812 
L 111.396517 266.837342 
L 112.130476 264.435231 
L 112.375129 262.969998 
L 112.619782 262.708544 
L 112.864435 263.1906 
L 113.109088 262.784802 
L 113.353741 263.871471 
L 113.598394 266.227282 
L 113.843047 265.903188 
L 114.332353 263.138854 
L 114.577006 262.585988 
L 114.821659 263.010851 
L 115.066312 267.115137 
L 115.310965 268.621222 
L 115.555618 267.387485 
L 115.800271 268.738332 
L 116.044924 266.777425 
L 116.289577 266.246347 
L 116.53423 266.731126 
L 116.778883 266.578611 
L 118.002148 263.80066 
L 118.246801 264.102967 
L 118.491454 264.138372 
L 118.736107 263.275028 
L 118.98076 263.345839 
L 119.225413 263.713509 
L 119.470066 265.592711 
L 119.71472 265.767014 
L 119.959373 263.961346 
L 120.204026 264.239141 
L 120.693332 264.092073 
L 120.937985 263.285922 
L 121.427291 264.143819 
L 121.916597 263.073491 
L 122.16125 261.183395 
L 122.405903 261.368591 
L 122.650556 261.205183 
L 122.895209 262.594158 
L 123.139862 261.64094 
L 123.384515 261.27327 
L 123.873821 259.93604 
L 124.118474 261.602811 
L 124.363127 261.758049 
L 124.60778 262.651351 
L 124.852433 262.37628 
L 125.097086 261.918735 
L 125.341739 260.502524 
L 125.586392 261.316845 
L 126.075698 259.995957 
L 126.320351 259.734503 
L 126.565004 258.917458 
L 126.809657 258.530724 
L 127.05431 257.283369 
L 127.298963 257.171707 
L 127.788269 255.189012 
L 128.032922 252.852265 
L 128.522228 252.93397 
L 128.766881 253.124613 
L 129.011534 253.636628 
L 129.256187 252.313016 
L 129.50084 253.971616 
L 129.745493 254.009745 
L 129.990146 255.104584 
L 130.234799 254.954793 
L 130.479452 251.817342 
L 130.968758 253.767355 
L 131.213411 253.993404 
L 131.458064 253.571264 
L 131.702717 253.906252 
L 131.94737 254.693339 
L 132.192023 254.791384 
L 132.436676 255.235311 
L 132.681329 256.00878 
L 133.170635 255.95431 
L 133.415288 256.387344 
L 133.659941 257.885259 
L 134.149247 258.865712 
L 134.3939 258.677792 
L 134.883206 258.971928 
L 135.127859 257.226176 
L 135.372512 257.438608 
L 135.617165 259.225212 
L 135.861818 260.181154 
L 136.106471 259.884294 
L 136.351124 259.029121 
L 136.595777 258.990992 
L 136.84043 258.010539 
L 137.085083 256.567094 
L 137.574389 255.589364 
L 137.819042 254.682445 
L 138.063695 255.129096 
L 138.553001 254.794107 
L 138.797654 254.881259 
L 139.042307 255.477701 
L 139.28696 253.726503 
L 139.531613 251.082002 
L 139.776266 251.41699 
L 140.020919 251.016639 
L 140.265572 251.446949 
L 140.510225 250.875018 
L 140.754878 251.046597 
L 140.999531 250.224106 
L 141.244184 251.180048 
L 141.488837 250.959446 
L 141.978143 249.279058 
L 142.222797 250.711609 
L 142.46745 250.68165 
L 142.712103 251.700232 
L 142.956756 253.900805 
L 143.201409 253.571264 
L 143.446062 253.533135 
L 143.690715 252.321186 
L 143.935368 252.14416 
L 144.424674 252.906735 
L 144.91398 246.69175 
L 145.158633 247.282746 
L 145.403286 246.433019 
L 145.647939 246.762561 
L 145.892592 238.872635 
L 146.137245 238.513136 
L 146.381898 238.77459 
L 146.626551 237.777796 
L 146.871204 238.020185 
L 147.115857 236.958028 
L 147.605163 239.368309 
L 147.849816 238.368791 
L 148.094469 239.618869 
L 148.339122 242.317839 
L 148.583775 241.054144 
L 148.828428 240.400508 
L 149.073081 241.922934 
L 149.562387 236.413331 
L 149.80704 235.691609 
L 150.051693 236.906282 
L 150.296346 236.432396 
L 150.540999 237.388338 
L 151.030305 234.727496 
L 151.274958 233.695297 
L 151.764264 230.566017 
L 152.008917 227.86977 
L 152.498223 232.091166 
L 152.987529 230.770278 
L 153.232182 230.835642 
L 153.476835 232.025803 
L 153.721488 231.04535 
L 153.966141 232.701226 
L 154.210794 231.595493 
L 154.455447 231.674474 
L 154.7001 230.143877 
L 154.944753 230.530612 
L 155.189406 229.157977 
L 155.434059 228.537023 
L 155.678712 226.592458 
L 156.168018 227.109919 
L 156.412671 226.331003 
L 156.901977 229.073549 
L 157.14663 227.92424 
L 157.391283 228.063138 
L 157.635936 228.727667 
L 157.880589 228.948269 
L 158.125242 228.014115 
L 158.369895 226.587011 
L 158.614548 226.908381 
L 159.103854 229.740802 
L 159.348507 227.886111 
L 159.59316 229.318662 
L 159.837813 229.160701 
L 160.327119 225.418637 
L 160.571772 227.325074 
L 160.816425 228.098543 
L 161.061078 230.18473 
L 161.305731 231.029009 
L 161.550384 229.732632 
L 161.795037 229.294151 
L 162.284343 238.769143 
L 162.528996 241.326492 
L 162.773649 242.304222 
L 163.018302 241.922934 
L 163.262955 238.769143 
L 163.507608 238.052867 
L 163.752261 237.990227 
L 163.996914 239.463631 
L 164.241567 241.84123 
L 164.48622 238.671098 
L 165.22018 241.541647 
L 165.464833 240.5503 
L 165.709486 242.524824 
L 166.198792 238.529476 
L 166.443445 239.248476 
L 166.688098 238.327939 
L 166.932751 238.834506 
L 167.177404 237.42919 
L 167.422057 237.36655 
L 167.66671 234.664856 
L 167.911363 234.520512 
L 168.400669 235.498242 
L 168.645322 236.74832 
L 168.889975 233.964922 
L 169.134628 235.005292 
L 169.623934 233.774278 
L 169.868587 233.379373 
L 170.11324 235.593564 
L 170.357893 235.495518 
L 170.847199 240.117266 
L 171.091852 239.272987 
L 171.336505 243.080414 
L 171.581158 243.924693 
L 171.825811 243.284675 
L 172.070464 244.458495 
L 172.315117 242.306945 
L 172.55977 243.442637 
L 172.804423 245.259199 
L 173.049076 249.115649 
L 173.293729 248.873259 
L 173.538382 247.078485 
L 173.783035 246.498383 
L 174.027688 251.019362 
L 174.272341 250.019844 
L 174.516994 250.284022 
L 174.761647 249.066626 
L 175.0063 249.450637 
L 175.250953 248.304051 
L 175.495606 246.117096 
L 175.740259 245.828407 
L 175.984912 246.751667 
L 176.474218 253.742844 
L 176.718871 255.801795 
L 176.963524 255.349698 
L 177.45283 251.994368 
L 177.697483 253.097378 
L 177.942136 252.236758 
L 178.186789 256.041462 
L 178.431442 257.332392 
L 178.676095 257.400479 
L 178.920748 256.38462 
L 179.165401 254.124131 
L 179.410054 254.151366 
L 179.89936 256.793143 
L 180.144013 255.986992 
L 180.388666 255.622046 
L 180.877972 253.456878 
L 181.122625 253.345215 
L 181.367278 250.907699 
L 181.611931 252.244929 
L 181.856584 251.994368 
L 182.101237 250.902252 
L 182.34589 251.403373 
L 182.590543 253.266234 
L 183.079849 252.626216 
L 183.324502 248.023533 
L 183.569155 246.234205 
L 183.813808 247.30181 
L 184.058461 245.027703 
L 184.303114 245.15026 
L 184.547767 247.465219 
L 184.79242 248.061661 
L 185.037073 247.331768 
L 185.281726 247.206488 
L 185.526379 245.231964 
L 186.015685 248.478354 
L 186.260338 247.331768 
L 186.504991 248.206006 
L 186.749644 247.073038 
L 186.994298 247.783866 
L 187.238951 248.02898 
L 187.483604 247.789313 
L 187.728257 245.790278 
L 187.97291 245.34635 
L 188.217563 244.619181 
L 188.462216 245.817513 
L 188.706869 248.102514 
L 188.951522 248.203282 
L 189.685481 240.201694 
L 189.930134 239.684233 
L 190.174787 240.277952 
L 190.41944 240.016497 
L 190.664093 239.008809 
L 190.908746 239.785001 
L 191.153399 238.750078 
L 191.398052 238.496795 
L 191.642705 250.120613 
L 191.887358 248.227794 
L 192.132011 248.846024 
L 192.376664 248.990369 
L 192.621317 249.38255 
L 193.110623 252.424679 
L 193.355276 251.210006 
L 193.599929 251.882706 
L 193.844582 250.689821 
L 194.089235 251.580399 
L 194.333888 249.799242 
L 194.578541 249.68758 
L 194.823194 247.315427 
L 195.067847 247.260958 
L 195.3125 245.572399 
L 195.557153 245.169324 
L 196.046459 245.387203 
L 196.291112 244.896976 
L 196.535765 245.847471 
L 196.780418 245.787554 
L 197.269724 243.369103 
L 197.514377 243.938311 
L 197.75903 243.458978 
L 198.003683 243.943757 
L 198.248336 243.246546 
L 198.492989 242.933346 
L 198.737642 242.222517 
L 198.982295 242.70185 
L 199.226948 243.49983 
L 199.716254 246.678133 
L 199.960907 246.781625 
L 200.20556 246.413955 
L 200.450213 249.093861 
L 200.694866 247.271852 
L 200.939519 247.903699 
L 201.184172 247.315427 
L 201.428825 247.073038 
L 201.673478 248.715297 
L 201.918131 248.249582 
L 202.162784 247.209212 
L 202.407437 249.221864 
L 202.65209 249.249099 
L 203.141396 248.829683 
L 203.386049 250.224106 
L 203.875355 248.432055 
L 204.364661 250.316704 
L 204.609314 248.979475 
L 205.09862 252.14416 
L 205.343273 252.653451 
L 205.587926 253.647522 
L 205.832579 256.512624 
L 206.077232 252.884947 
L 206.321885 254.028809 
L 206.811191 250.629904 
L 207.055844 251.182771 
L 207.300497 259.080867 
L 207.54515 258.726814 
L 207.789803 257.621081 
L 208.034456 255.074626 
L 208.279109 256.471772 
L 208.523762 253.429643 
L 208.768415 253.132784 
L 209.013068 253.745567 
L 209.257721 254.012468 
L 209.502375 255.733708 
L 209.747028 255.425955 
L 209.991681 254.832236 
L 210.480987 251.904494 
L 210.72564 251.564058 
L 210.970293 250.169636 
L 211.214946 247.631351 
L 211.459599 248.298604 
L 211.704252 247.410749 
L 211.948905 248.295881 
L 212.193558 245.185665 
L 212.438211 245.359968 
L 212.682864 245.226517 
L 212.927517 245.632316 
L 213.416823 244.450325 
L 213.661476 247.342662 
L 213.906129 247.824718 
L 214.150782 250.602669 
L 214.395435 250.256787 
L 214.640088 251.681168 
L 214.884741 254.017915 
L 215.129394 251.564058 
L 215.6187 253.745567 
L 215.863353 252.416508 
L 216.108006 253.647522 
L 216.352659 255.82086 
L 216.597312 253.74012 
L 216.841965 255.673792 
L 217.331271 252.931246 
L 217.575924 253.094655 
L 217.820577 253.470495 
L 218.309883 252.133266 
L 218.799189 251.406097 
L 219.533148 255.513106 
L 219.777801 254.745085 
L 220.022454 254.429161 
L 220.267107 255.496766 
L 220.51176 255.518553 
L 220.756413 257.030086 
L 221.001066 256.466325 
L 221.245719 258.568853 
L 221.490372 256.850336 
L 221.735025 257.653763 
L 222.224331 252.631663 
L 222.468984 251.613081 
L 222.713637 253.116443 
L 222.95829 252.160501 
L 223.202943 253.544029 
L 223.447596 242.21707 
L 223.692249 241.201212 
L 223.936902 238.412367 
L 224.181555 238.932552 
L 224.670861 234.441531 
L 224.915514 235.495518 
L 225.40482 235.432878 
L 225.894126 233.477419 
L 226.138779 233.665339 
L 226.383432 234.73839 
L 226.628085 234.817371 
L 227.117391 232.107507 
L 227.362044 233.412055 
L 227.606697 233.787895 
L 227.85135 231.935928 
L 228.096003 231.954992 
L 228.340656 232.812889 
L 228.829962 231.489277 
L 229.319268 231.541023 
L 229.563921 233.480142 
L 229.808574 233.738873 
L 230.053227 235.601734 
L 230.29788 236.089237 
L 230.542533 235.353897 
L 230.787186 235.664374 
L 231.031839 235.46556 
L 231.276492 235.776037 
L 231.765798 234.054797 
L 232.010452 233.570017 
L 232.255105 234.681197 
L 232.499758 234.359826 
L 232.744411 235.879529 
L 232.989064 236.554952 
L 233.233717 235.258575 
L 233.47837 234.885458 
L 234.212329 235.740632 
L 234.456982 234.092925 
L 234.701635 234.498724 
L 235.190941 231.870564 
L 235.435594 232.082996 
L 235.680247 232.088443 
L 235.9249 231.777966 
L 236.414206 232.328109 
L 236.658859 233.43929 
L 236.903512 229.964128 
L 237.148165 229.800719 
L 237.392818 230.26371 
L 237.637471 216.975845 
L 237.882124 215.652233 
L 238.126777 217.109295 
L 238.37143 220.312109 
L 238.616083 220.214064 
L 238.860736 221.11009 
L 239.105389 220.843188 
L 239.594695 221.761002 
L 239.839348 221.020215 
L 240.084001 219.222717 
L 240.328654 218.743384 
L 240.81796 219.432425 
L 241.062613 219.576769 
L 241.796572 220.824124 
L 242.041225 221.987051 
L 242.285878 219.971674 
L 242.530531 219.004838 
L 242.775184 220.461901 
L 243.019837 220.121466 
L 243.26449 219.505959 
L 243.509143 220.181382 
L 243.753796 219.318039 
L 243.998449 219.407914 
L 244.243102 218.228646 
L 244.487755 218.228646 
L 244.977061 220.619863 
L 245.221714 221.344309 
L 245.466367 220.39109 
L 245.71102 218.803301 
L 245.955673 219.086543 
L 246.444979 221.020215 
L 246.689632 219.873629 
L 246.934285 219.345274 
L 247.178938 216.632686 
L 247.423591 217.520541 
L 247.668244 217.904552 
L 247.912897 215.349926 
L 248.15755 217.229129 
L 248.402203 216.224164 
L 248.646856 218.070684 
L 248.891509 218.283116 
L 249.136162 216.880523 
L 249.625468 218.002597 
L 249.870121 217.880041 
L 250.114774 218.242264 
L 250.359427 218.092472 
L 250.848733 214.445731 
L 251.093386 210.624686 
L 251.338039 210.428596 
L 251.582692 209.758619 
L 252.071998 202.386155 
L 252.316651 203.658021 
L 252.561304 204.178206 
L 252.805957 202.633992 
L 253.05061 178.849829 
L 253.295263 192.804947 
L 253.539916 190.558075 
L 254.029222 192.832182 
L 254.273875 189.71652 
L 254.518529 190.16317 
L 254.763182 192.276592 
L 255.007835 189.7955 
L 255.252488 189.659326 
L 255.497141 192.420937 
L 255.741794 192.595239 
L 255.986447 193.921575 
L 256.2311 193.89434 
L 256.475753 192.90844 
L 256.720406 192.668773 
L 257.209712 190.819529 
L 257.454365 191.173582 
L 257.699018 192.085948 
L 257.943671 198.358126 
L 258.188324 210.281528 
L 258.432977 203.769684 
L 258.67763 204.714732 
L 258.922283 196.628715 
L 259.166936 195.596516 
L 259.411589 195.885205 
L 259.656242 200.596828 
L 259.900895 198.976356 
L 260.145548 196.41356 
L 260.390201 201.002626 
L 260.879507 193.826253 
L 261.12416 196.236534 
L 261.613466 192.344679 
L 261.858119 194.030514 
L 262.102772 194.376396 
L 262.347425 193.014655 
L 262.836731 188.289415 
L 263.081384 189.547664 
L 263.326037 189.931675 
L 263.57069 192.042373 
L 263.815343 188.768748 
L 264.304649 198.728519 
L 264.549302 198.881034 
L 264.793955 197.366779 
L 265.038608 196.824806 
L 265.283261 190.288451 
L 265.527914 187.970768 
L 266.261873 190.972044 
L 266.995832 186.380255 
L 267.240485 187.357985 
L 267.485138 182.586445 
L 267.729791 181.091254 
L 267.974444 180.753542 
L 268.219097 182.967733 
L 268.46375 183.28638 
L 268.708403 168.312679 
L 268.953056 172.501394 
L 269.442362 169.777912 
L 269.687015 168.307232 
L 269.931668 166.044019 
L 270.176321 165.738989 
L 270.420974 165.085354 
L 270.665627 165.56741 
L 270.91028 160.300197 
L 271.154933 158.148647 
L 271.399586 157.154576 
L 271.644239 159.235316 
L 272.133545 153.24638 
L 272.378198 155.814623 
L 272.622851 161.983309 
L 272.867504 159.333361 
L 273.112157 160.460882 
L 273.35681 155.427889 
L 274.090769 152.935903 
L 274.335422 152.701684 
L 274.580075 151.122065 
L 274.824728 152.456571 
L 275.069381 153.042119 
L 275.314034 151.067595 
L 275.558687 151.492458 
L 275.80334 155.152817 
L 276.047993 152.772494 
L 276.292646 155.934456 
L 276.537299 151.88464 
L 277.271259 161.75726 
L 277.515912 155.416995 
L 277.760565 155.817347 
L 278.005218 151.339943 
L 278.249871 154.431095 
L 278.494524 154.471947 
L 278.739177 154.926768 
L 278.98383 155.016643 
L 279.228483 155.87454 
L 279.473136 155.27265 
L 279.962442 148.101724 
L 280.207095 149.684067 
L 280.451748 157.797318 
L 280.696401 160.365561 
L 280.941054 167.136135 
L 281.185707 167.190605 
L 281.43036 167.77343 
L 281.675013 169.72889 
L 281.919666 166.251004 
L 282.164319 167.441165 
L 282.408972 178.50667 
L 282.653625 180.688179 
L 282.898278 179.36729 
L 283.142931 182.834282 
L 283.387584 180.323232 
L 283.87689 173.675214 
L 284.121543 172.188193 
L 284.366196 172.585822 
L 284.610849 170.84824 
L 284.855502 180.758989 
L 285.100155 179.078601 
L 285.344808 181.298239 
L 285.589461 185.791983 
L 285.834114 193.553905 
L 286.078767 192.388255 
L 286.32342 204.047479 
L 286.568073 206.351544 
L 286.812726 202.606757 
L 287.057379 202.767442 
L 287.302032 197.448483 
L 287.791338 192.535323 
L 288.035991 189.144588 
L 288.280644 194.722278 
L 288.76995 185.233669 
L 289.014603 187.902681 
L 289.259256 185.24184 
L 289.503909 183.989038 
L 289.748562 185.309927 
L 289.993215 185.655809 
L 290.237868 185.032132 
L 290.482521 178.098148 
L 290.727174 179.130347 
L 290.971827 178.283345 
L 291.21648 180.334126 
L 291.461133 184.601821 
L 291.705786 184.141553 
L 291.950439 182.186093 
L 292.439745 182.115283 
L 292.929051 179.489847 
L 293.418357 183.765713 
L 293.66301 187.042061 
L 293.907663 188.076984 
L 294.152316 183.749372 
L 294.396969 182.085325 
L 294.641622 177.376425 
L 294.886275 178.533905 
L 295.130928 174.02382 
L 295.375581 173.323885 
L 295.620234 175.717825 
L 295.864887 173.400143 
L 296.10954 175.641568 
L 296.354193 176.526699 
L 296.598846 173.465506 
L 296.843499 174.674732 
L 297.332805 173.563551 
L 297.822111 169.023508 
L 298.066764 167.157923 
L 298.311417 166.223769 
L 298.55607 163.012784 
L 298.800723 164.95735 
L 299.045376 164.685002 
L 299.534683 168.604092 
L 299.779336 166.000444 
L 300.023989 169.914086 
L 300.268642 168.895504 
L 300.513295 155.152817 
L 300.757948 155.719301 
L 301.002601 152.058942 
L 301.247254 156.081524 
L 301.491907 153.161952 
L 301.73656 157.862681 
L 302.470519 144.316085 
L 302.715172 141.15957 
L 302.959825 141.905804 
L 303.204478 143.134094 
L 303.449131 143.196734 
L 303.693784 148.736295 
L 303.938437 148.104447 
L 304.18309 145.607015 
L 304.427743 144.735501 
L 304.672396 146.434953 
L 304.917049 143.714195 
L 305.161702 143.62432 
L 305.406355 141.807758 
L 305.651008 142.534928 
L 305.895661 140.200904 
L 306.140314 140.18184 
L 306.384967 138.610391 
L 306.62962 138.675755 
L 306.874273 137.752495 
L 307.363579 139.601738 
L 307.608232 139.806 
L 307.852885 142.077383 
L 308.097538 142.534928 
L 308.342191 139.901321 
L 308.586844 142.611185 
L 308.831497 140.938968 
L 309.07615 142.216281 
L 309.320803 141.611668 
L 309.565456 141.377448 
L 309.810109 141.671584 
L 310.054762 147.799417 
L 310.299415 148.069042 
L 310.544068 145.89298 
L 310.788721 141.603497 
L 311.033374 141.208592 
L 311.278027 141.175911 
L 311.52268 139.683443 
L 311.767333 138.89091 
L 312.011986 135.181528 
L 312.256639 134.960926 
L 312.745945 130.407265 
L 312.990598 133.157981 
L 313.235251 132.58605 
L 313.479904 133.215175 
L 313.724557 136.227345 
L 313.96921 137.041666 
L 314.213863 133.909662 
L 314.458516 132.956444 
L 314.703169 132.877463 
L 314.947822 133.215175 
L 315.437128 135.551922 
L 315.681781 133.370413 
L 315.926434 128.190351 
L 316.171087 129.587497 
L 316.41574 128.514446 
L 316.660393 130.352796 
L 316.905046 131.267885 
L 317.149699 128.242098 
L 317.394352 127.697401 
L 317.639005 127.539439 
L 317.883658 126.88308 
L 318.128311 126.844952 
L 318.372964 127.248027 
L 318.617617 126.311149 
L 319.106923 128.351037 
L 319.351576 128.4627 
L 319.596229 129.034631 
L 319.840882 130.232962 
L 320.085535 128.65062 
L 320.330188 128.735048 
L 320.574841 130.641485 
L 320.819494 129.538475 
L 321.064147 127.177216 
L 321.3088 126.542645 
L 321.553453 127.754594 
L 322.04276 125.70926 
L 322.287413 125.728324 
L 322.532066 121.509652 
L 323.021372 124.279432 
L 323.266025 130.273815 
L 323.510678 127.163599 
L 323.755331 128.952926 
L 323.999984 129.007396 
L 324.48929 124.1133 
L 324.733943 125.194522 
L 324.978596 123.219998 
L 325.467902 117.805717 
L 325.712555 118.16794 
L 325.957208 118.154323 
L 326.446514 110.961608 
L 327.180473 107.516404 
L 327.425126 108.308937 
L 327.669779 106.756553 
L 327.914432 106.187345 
L 328.403738 107.486446 
L 328.893044 110.760071 
L 329.137697 109.104194 
L 329.38235 112.802682 
L 329.627003 112.636549 
L 329.871656 113.102265 
L 330.360962 116.108988 
L 330.850268 107.954885 
L 331.094921 109.736042 
L 331.339574 110.150011 
L 331.584227 123.560433 
L 331.82888 123.824611 
L 332.073533 118.930515 
L 332.562839 128.176734 
L 332.807492 128.792241 
L 333.052145 126.38196 
L 333.296798 122.751559 
L 333.541451 128.4627 
L 333.786104 124.429224 
L 334.030757 136.161981 
L 334.27541 133.498417 
L 334.520063 137.722536 
L 335.498675 127.918003 
L 335.743328 121.880045 
L 335.987981 123.633967 
L 336.232634 122.334866 
L 337.211246 131.619215 
L 337.455899 134.073071 
L 337.700552 133.637314 
L 337.945205 128.465423 
L 338.189858 128.312908 
L 338.434511 126.31932 
L 338.679164 126.828611 
L 338.923817 127.809064 
L 339.16847 128.201245 
L 339.413123 124.581739 
L 339.657776 127.841746 
L 339.902429 128.190351 
L 340.147082 129.854399 
L 340.391735 127.196281 
L 340.636388 126.828611 
L 340.881041 127.340625 
L 341.125694 128.312908 
L 341.370347 128.626108 
L 341.615 125.126435 
L 341.859653 126.174975 
L 342.348959 130.118576 
L 342.593612 129.990573 
L 342.838265 129.129953 
L 343.327571 119.202863 
L 343.572224 119.58415 
L 343.816877 120.384854 
L 344.06153 118.573739 
L 344.306184 114.758141 
L 344.550837 114.382301 
L 344.79549 116.070859 
L 345.040143 115.934685 
L 345.284796 114.496687 
L 345.529449 116.806199 
L 345.774102 112.666508 
L 346.018755 111.634308 
L 346.263408 108.981637 
L 346.508061 108.036589 
L 346.752714 109.670678 
L 346.997367 112.189898 
L 347.486673 108.692948 
L 347.731326 116.827987 
L 347.975979 115.989155 
L 348.220632 116.122605 
L 348.465285 115.202069 
L 348.709938 112.775447 
L 348.954591 112.170834 
L 349.443897 108.581285 
L 349.68855 109.39833 
L 349.933203 107.26312 
L 350.177856 107.219545 
L 350.667162 103.14794 
L 350.911815 102.979084 
L 351.156468 106.486928 
L 351.401121 107.116052 
L 351.645774 104.645855 
L 351.890427 104.210098 
L 352.13508 104.201927 
L 352.379733 105.803334 
L 352.624386 106.33986 
L 352.869039 106.271773 
L 353.358345 104.768411 
L 353.602998 103.134323 
L 353.847651 104.558703 
L 354.092304 104.073924 
L 354.58161 103.597314 
L 355.070916 104.629514 
L 355.315569 102.633202 
L 355.560222 107.647131 
L 355.804875 105.530986 
L 356.049528 104.583215 
L 356.294181 108.289873 
L 356.538834 104.56415 
L 356.783487 102.576009 
L 357.02814 98.245674 
L 357.272793 97.68736 
L 357.517446 94.69153 
L 357.762099 93.738312 
L 358.006752 88.476546 
L 358.251405 87.664948 
L 358.496058 91.518675 
L 358.740711 91.524121 
L 358.985364 89.506022 
L 359.230017 90.581797 
L 359.47467 93.751929 
L 359.719323 94.827704 
L 359.963976 91.153728 
L 360.208629 89.288143 
L 360.453282 91.505057 
L 360.697935 90.696183 
L 360.942588 89.059371 
L 361.187241 89.506022 
L 361.676547 87.504263 
L 361.9212 78.124593 
L 362.165853 83.852074 
L 362.410506 78.721035 
L 362.655159 78.895338 
L 362.899812 79.235773 
L 363.144465 80.387806 
L 363.389118 80.270696 
L 363.633771 77.043371 
L 363.878424 76.852727 
L 364.123077 79.137728 
L 364.36773 76.580379 
L 364.857036 74.810116 
L 365.101689 76.525909 
L 365.346342 79.222156 
L 365.590995 74.308996 
L 365.835648 73.993072 
L 366.080301 70.991795 
L 366.324954 70.724894 
L 366.814261 65.550279 
L 367.058914 65.139034 
L 367.303567 64.188539 
L 367.54822 64.57255 
L 367.792873 64.46361 
L 368.282179 60.920361 
L 368.526832 62.568067 
L 368.771485 60.90402 
L 369.016138 60.784187 
L 369.260791 73.176027 
L 369.750097 67.296031 
L 369.99475 75.436517 
L 370.484056 59.55862 
L 370.728709 64.733235 
L 370.973362 64.542591 
L 371.218015 63.581202 
L 371.462668 63.496774 
L 371.707321 61.87358 
L 372.196627 70.030406 
L 372.44128 69.90785 
L 372.685933 69.60282 
L 372.930586 71.599132 
L 373.175239 74.665772 
L 373.419892 73.813322 
L 373.664545 72.48154 
L 373.909198 68.273761 
L 374.398504 64.011512 
L 374.643157 62.93029 
L 374.88781 63.534903 
L 375.377116 62.55445 
L 375.621769 57.379835 
L 375.866422 55.585061 
L 376.111075 58.39297 
L 376.845034 52.423099 
L 377.089687 45.246726 
L 377.33434 60.882232 
L 377.578993 59.000307 
L 377.823646 65.247973 
L 378.068299 63.706483 
L 378.312952 64.332883 
L 378.557605 66.999172 
L 378.802258 66.734994 
L 379.046911 65.727306 
L 379.291564 68.927396 
L 379.536217 70.645913 
L 379.78087 75.082464 
L 380.270176 67.211603 
L 380.514829 69.186127 
L 380.759482 70.223774 
L 381.004135 74.701177 
L 381.493441 76.302584 
L 381.738094 75.25132 
L 382.2274 76.171857 
L 382.716706 80.529427 
L 383.206012 71.078947 
L 383.450665 68.491639 
L 383.939971 72.816528 
L 384.429277 69.880615 
L 384.67393 71.14431 
L 384.918583 68.744923 
L 385.163236 68.554279 
L 385.407889 65.060053 
L 385.897195 66.803081 
L 386.141848 70.384459 
L 386.386501 71.87148 
L 386.631154 72.002207 
L 387.12046 77.993866 
L 387.365113 79.034236 
L 387.609766 78.350642 
L 387.854419 77.299378 
L 388.099072 75.052506 
L 388.343725 73.993072 
L 388.833031 76.65936 
L 389.077684 72.358983 
L 389.322338 70.822939 
L 389.566991 66.029612 
L 389.811644 65.095458 
L 390.056297 66.566138 
L 390.30095 65.057329 
L 390.545603 62.282102 
L 390.790256 61.88992 
L 391.034909 62.666113 
L 391.279562 61.663872 
L 391.524215 66.91202 
L 391.768868 65.950631 
L 392.013521 67.802599 
L 392.258174 72.631331 
L 392.502827 70.180198 
L 392.74748 69.545627 
L 392.992133 48.354218 
L 393.236786 38.312742 
L 393.481439 34.502592 
L 393.726092 35.483045 
L 394.215398 39.364006 
L 394.215398 39.364006 
" style="fill:none;stroke:#ff7f0e;stroke-linecap:square;stroke-width:1.5;"/>
   </g>
   <g id="patch_3">
    <path d="M 53.328125 288.430125 
L 53.328125 22.318125 
" style="fill:none;stroke:#000000;stroke-linecap:square;stroke-linejoin:miter;stroke-width:0.8;"/>
   </g>
   <g id="patch_4">
    <path d="M 410.448125 288.430125 
L 410.448125 22.318125 
" style="fill:none;stroke:#000000;stroke-linecap:square;stroke-linejoin:miter;stroke-width:0.8;"/>
   </g>
   <g id="patch_5">
    <path d="M 53.328125 288.430125 
L 410.448125 288.430125 
" style="fill:none;stroke:#000000;stroke-linecap:square;stroke-linejoin:miter;stroke-width:0.8;"/>
   </g>
   <g id="patch_6">
    <path d="M 53.328125 22.318125 
L 410.448125 22.318125 
" style="fill:none;stroke:#000000;stroke-linecap:square;stroke-linejoin:miter;stroke-width:0.8;"/>
   </g>
   <g id="text_15">
    <!-- Training: AMZN -->
    <defs>
     <path d="M -0.296875 72.90625 
L 61.375 72.90625 
L 61.375 64.59375 
L 35.5 64.59375 
L 35.5 0 
L 25.59375 0 
L 25.59375 64.59375 
L -0.296875 64.59375 
z
" id="DejaVuSans-84"/>
     <path d="M 54.890625 33.015625 
L 54.890625 0 
L 45.90625 0 
L 45.90625 32.71875 
Q 45.90625 40.484375 42.875 44.328125 
Q 39.84375 48.1875 33.796875 48.1875 
Q 26.515625 48.1875 22.3125 43.546875 
Q 18.109375 38.921875 18.109375 30.90625 
L 18.109375 0 
L 9.078125 0 
L 9.078125 54.6875 
L 18.109375 54.6875 
L 18.109375 46.1875 
Q 21.34375 51.125 25.703125 53.5625 
Q 30.078125 56 35.796875 56 
Q 45.21875 56 50.046875 50.171875 
Q 54.890625 44.34375 54.890625 33.015625 
z
" id="DejaVuSans-110"/>
     <path d="M 45.40625 27.984375 
Q 45.40625 37.75 41.375 43.109375 
Q 37.359375 48.484375 30.078125 48.484375 
Q 22.859375 48.484375 18.828125 43.109375 
Q 14.796875 37.75 14.796875 27.984375 
Q 14.796875 18.265625 18.828125 12.890625 
Q 22.859375 7.515625 30.078125 7.515625 
Q 37.359375 7.515625 41.375 12.890625 
Q 45.40625 18.265625 45.40625 27.984375 
z
M 54.390625 6.78125 
Q 54.390625 -7.171875 48.1875 -13.984375 
Q 42 -20.796875 29.203125 -20.796875 
Q 24.46875 -20.796875 20.265625 -20.09375 
Q 16.0625 -19.390625 12.109375 -17.921875 
L 12.109375 -9.1875 
Q 16.0625 -11.328125 19.921875 -12.34375 
Q 23.78125 -13.375 27.78125 -13.375 
Q 36.625 -13.375 41.015625 -8.765625 
Q 45.40625 -4.15625 45.40625 5.171875 
L 45.40625 9.625 
Q 42.625 4.78125 38.28125 2.390625 
Q 33.9375 0 27.875 0 
Q 17.828125 0 11.671875 7.65625 
Q 5.515625 15.328125 5.515625 27.984375 
Q 5.515625 40.671875 11.671875 48.328125 
Q 17.828125 56 27.875 56 
Q 33.9375 56 38.28125 53.609375 
Q 42.625 51.21875 45.40625 46.390625 
L 45.40625 54.6875 
L 54.390625 54.6875 
z
" id="DejaVuSans-103"/>
     <path d="M 11.71875 12.40625 
L 22.015625 12.40625 
L 22.015625 0 
L 11.71875 0 
z
M 11.71875 51.703125 
L 22.015625 51.703125 
L 22.015625 39.3125 
L 11.71875 39.3125 
z
" id="DejaVuSans-58"/>
     <path d="M 34.1875 63.1875 
L 20.796875 26.90625 
L 47.609375 26.90625 
z
M 28.609375 72.90625 
L 39.796875 72.90625 
L 67.578125 0 
L 57.328125 0 
L 50.6875 18.703125 
L 17.828125 18.703125 
L 11.1875 0 
L 0.78125 0 
z
" id="DejaVuSans-65"/>
     <path d="M 9.8125 72.90625 
L 24.515625 72.90625 
L 43.109375 23.296875 
L 61.8125 72.90625 
L 76.515625 72.90625 
L 76.515625 0 
L 66.890625 0 
L 66.890625 64.015625 
L 48.09375 14.015625 
L 38.1875 14.015625 
L 19.390625 64.015625 
L 19.390625 0 
L 9.8125 0 
z
" id="DejaVuSans-77"/>
     <path d="M 5.609375 72.90625 
L 62.890625 72.90625 
L 62.890625 65.375 
L 16.796875 8.296875 
L 64.015625 8.296875 
L 64.015625 0 
L 4.5 0 
L 4.5 7.515625 
L 50.59375 64.59375 
L 5.609375 64.59375 
z
" id="DejaVuSans-90"/>
     <path d="M 9.8125 72.90625 
L 23.09375 72.90625 
L 55.421875 11.921875 
L 55.421875 72.90625 
L 64.984375 72.90625 
L 64.984375 0 
L 51.703125 0 
L 19.390625 60.984375 
L 19.390625 0 
L 9.8125 0 
z
" id="DejaVuSans-78"/>
    </defs>
    <g transform="translate(186.409063 16.318125)scale(0.12 -0.12)">
     <use xlink:href="#DejaVuSans-84"/>
     <use x="46.333984" xlink:href="#DejaVuSans-114"/>
     <use x="87.447266" xlink:href="#DejaVuSans-97"/>
     <use x="148.726562" xlink:href="#DejaVuSans-105"/>
     <use x="176.509766" xlink:href="#DejaVuSans-110"/>
     <use x="239.888672" xlink:href="#DejaVuSans-105"/>
     <use x="267.671875" xlink:href="#DejaVuSans-110"/>
     <use x="331.050781" xlink:href="#DejaVuSans-103"/>
     <use x="394.527344" xlink:href="#DejaVuSans-58"/>
     <use x="428.21875" xlink:href="#DejaVuSans-32"/>
     <use x="460.005859" xlink:href="#DejaVuSans-65"/>
     <use x="528.414062" xlink:href="#DejaVuSans-77"/>
     <use x="614.693359" xlink:href="#DejaVuSans-90"/>
     <use x="683.199219" xlink:href="#DejaVuSans-78"/>
    </g>
   </g>
   <g id="legend_1">
    <g id="patch_7">
     <path d="M 60.328125 59.674375 
L 144.05625 59.674375 
Q 146.05625 59.674375 146.05625 57.674375 
L 146.05625 29.318125 
Q 146.05625 27.318125 144.05625 27.318125 
L 60.328125 27.318125 
Q 58.328125 27.318125 58.328125 29.318125 
L 58.328125 57.674375 
Q 58.328125 59.674375 60.328125 59.674375 
z
" style="fill:#ffffff;opacity:0.8;stroke:#cccccc;stroke-linejoin:miter;"/>
    </g>
    <g id="line2d_27">
     <path d="M 62.328125 35.416562 
L 82.328125 35.416562 
" style="fill:none;stroke:#1f77b4;stroke-linecap:square;stroke-width:1.5;"/>
    </g>
    <g id="line2d_28"/>
    <g id="text_16">
     <!-- Predicted -->
     <defs>
      <path d="M 45.40625 46.390625 
L 45.40625 75.984375 
L 54.390625 75.984375 
L 54.390625 0 
L 45.40625 0 
L 45.40625 8.203125 
Q 42.578125 3.328125 38.25 0.953125 
Q 33.9375 -1.421875 27.875 -1.421875 
Q 17.96875 -1.421875 11.734375 6.484375 
Q 5.515625 14.40625 5.515625 27.296875 
Q 5.515625 40.1875 11.734375 48.09375 
Q 17.96875 56 27.875 56 
Q 33.9375 56 38.25 53.625 
Q 42.578125 51.265625 45.40625 46.390625 
z
M 14.796875 27.296875 
Q 14.796875 17.390625 18.875 11.75 
Q 22.953125 6.109375 30.078125 6.109375 
Q 37.203125 6.109375 41.296875 11.75 
Q 45.40625 17.390625 45.40625 27.296875 
Q 45.40625 37.203125 41.296875 42.84375 
Q 37.203125 48.484375 30.078125 48.484375 
Q 22.953125 48.484375 18.875 42.84375 
Q 14.796875 37.203125 14.796875 27.296875 
z
" id="DejaVuSans-100"/>
      <path d="M 18.3125 70.21875 
L 18.3125 54.6875 
L 36.8125 54.6875 
L 36.8125 47.703125 
L 18.3125 47.703125 
L 18.3125 18.015625 
Q 18.3125 11.328125 20.140625 9.421875 
Q 21.96875 7.515625 27.59375 7.515625 
L 36.8125 7.515625 
L 36.8125 0 
L 27.59375 0 
Q 17.1875 0 13.234375 3.875 
Q 9.28125 7.765625 9.28125 18.015625 
L 9.28125 47.703125 
L 2.6875 47.703125 
L 2.6875 54.6875 
L 9.28125 54.6875 
L 9.28125 70.21875 
z
" id="DejaVuSans-116"/>
     </defs>
     <g transform="translate(90.328125 38.916562)scale(0.1 -0.1)">
      <use xlink:href="#DejaVuSans-80"/>
      <use x="58.552734" xlink:href="#DejaVuSans-114"/>
      <use x="97.416016" xlink:href="#DejaVuSans-101"/>
      <use x="158.939453" xlink:href="#DejaVuSans-100"/>
      <use x="222.416016" xlink:href="#DejaVuSans-105"/>
      <use x="250.199219" xlink:href="#DejaVuSans-99"/>
      <use x="305.179688" xlink:href="#DejaVuSans-116"/>
      <use x="344.388672" xlink:href="#DejaVuSans-101"/>
      <use x="405.912109" xlink:href="#DejaVuSans-100"/>
     </g>
    </g>
    <g id="line2d_29">
     <path d="M 62.328125 50.094687 
L 82.328125 50.094687 
" style="fill:none;stroke:#ff7f0e;stroke-linecap:square;stroke-width:1.5;"/>
    </g>
    <g id="line2d_30"/>
    <g id="text_17">
     <!-- True value -->
     <defs>
      <path d="M 8.5 21.578125 
L 8.5 54.6875 
L 17.484375 54.6875 
L 17.484375 21.921875 
Q 17.484375 14.15625 20.5 10.265625 
Q 23.53125 6.390625 29.59375 6.390625 
Q 36.859375 6.390625 41.078125 11.03125 
Q 45.3125 15.671875 45.3125 23.6875 
L 45.3125 54.6875 
L 54.296875 54.6875 
L 54.296875 0 
L 45.3125 0 
L 45.3125 8.40625 
Q 42.046875 3.421875 37.71875 1 
Q 33.40625 -1.421875 27.6875 -1.421875 
Q 18.265625 -1.421875 13.375 4.4375 
Q 8.5 10.296875 8.5 21.578125 
z
M 31.109375 56 
z
" id="DejaVuSans-117"/>
      <path d="M 2.984375 54.6875 
L 12.5 54.6875 
L 29.59375 8.796875 
L 46.6875 54.6875 
L 56.203125 54.6875 
L 35.6875 0 
L 23.484375 0 
z
" id="DejaVuSans-118"/>
      <path d="M 9.421875 75.984375 
L 18.40625 75.984375 
L 18.40625 0 
L 9.421875 0 
z
" id="DejaVuSans-108"/>
     </defs>
     <g transform="translate(90.328125 53.594687)scale(0.1 -0.1)">
      <use xlink:href="#DejaVuSans-84"/>
      <use x="46.333984" xlink:href="#DejaVuSans-114"/>
      <use x="87.447266" xlink:href="#DejaVuSans-117"/>
      <use x="150.826172" xlink:href="#DejaVuSans-101"/>
      <use x="212.349609" xlink:href="#DejaVuSans-32"/>
      <use x="244.136719" xlink:href="#DejaVuSans-118"/>
      <use x="303.316406" xlink:href="#DejaVuSans-97"/>
      <use x="364.595703" xlink:href="#DejaVuSans-108"/>
      <use x="392.378906" xlink:href="#DejaVuSans-117"/>
      <use x="455.757812" xlink:href="#DejaVuSans-101"/>
     </g>
    </g>
   </g>
  </g>
 </g>
 <defs>
  <clipPath id="p867c044bd2">
   <rect height="266.112" width="357.12" x="53.328125" y="22.318125"/>
  </clipPath>
 </defs>
</svg>
