<?xml version="1.0" encoding="utf-8" standalone="no"?>
<!DOCTYPE svg PUBLIC "-//W3C//DTD SVG 1.1//EN"
  "http://www.w3.org/Graphics/SVG/1.1/DTD/svg11.dtd">
<!-- Created with matplotlib (https://matplotlib.org/) -->
<svg height="325.986375pt" version="1.1" viewBox="0 0 404.923125 325.986375" width="404.923125pt" xmlns="http://www.w3.org/2000/svg" xmlns:xlink="http://www.w3.org/1999/xlink">
 <defs>
  <style type="text/css">
*{stroke-linecap:butt;stroke-linejoin:round;}
  </style>
 </defs>
 <g id="figure_1">
  <g id="patch_1">
   <path d="M 0 325.986375 
L 404.923125 325.986375 
L 404.923125 0 
L 0 0 
z
" style="fill:#ffffff;"/>
  </g>
  <g id="axes_1">
   <g id="patch_2">
    <path d="M 40.603125 288.430125 
L 397.723125 288.430125 
L 397.723125 22.318125 
L 40.603125 22.318125 
z
" style="fill:#ffffff;"/>
   </g>
   <g id="matplotlib.axis_1">
    <g id="xtick_1">
     <g id="line2d_1">
      <path clip-path="url(#pffcb059956)" d="M 56.835852 288.430125 
L 56.835852 22.318125 
" style="fill:none;stroke:#b0b0b0;stroke-dasharray:2.96,1.28;stroke-dashoffset:0;stroke-width:0.8;"/>
     </g>
     <g id="line2d_2">
      <defs>
       <path d="M 0 0 
L 0 3.5 
" id="m89872f8344" style="stroke:#000000;stroke-width:0.8;"/>
      </defs>
      <g>
       <use style="stroke:#000000;stroke-width:0.8;" x="56.835852" xlink:href="#m89872f8344" y="288.430125"/>
      </g>
     </g>
     <g id="text_1">
      <!-- 0 -->
      <defs>
       <path d="M 31.78125 66.40625 
Q 24.171875 66.40625 20.328125 58.90625 
Q 16.5 51.421875 16.5 36.375 
Q 16.5 21.390625 20.328125 13.890625 
Q 24.171875 6.390625 31.78125 6.390625 
Q 39.453125 6.390625 43.28125 13.890625 
Q 47.125 21.390625 47.125 36.375 
Q 47.125 51.421875 43.28125 58.90625 
Q 39.453125 66.40625 31.78125 66.40625 
z
M 31.78125 74.21875 
Q 44.046875 74.21875 50.515625 64.515625 
Q 56.984375 54.828125 56.984375 36.375 
Q 56.984375 17.96875 50.515625 8.265625 
Q 44.046875 -1.421875 31.78125 -1.421875 
Q 19.53125 -1.421875 13.0625 8.265625 
Q 6.59375 17.96875 6.59375 36.375 
Q 6.59375 54.828125 13.0625 64.515625 
Q 19.53125 74.21875 31.78125 74.21875 
z
" id="DejaVuSans-48"/>
      </defs>
      <g transform="translate(53.654602 303.028562)scale(0.1 -0.1)">
       <use xlink:href="#DejaVuSans-48"/>
      </g>
     </g>
    </g>
    <g id="xtick_2">
     <g id="line2d_3">
      <path clip-path="url(#pffcb059956)" d="M 105.766454 288.430125 
L 105.766454 22.318125 
" style="fill:none;stroke:#b0b0b0;stroke-dasharray:2.96,1.28;stroke-dashoffset:0;stroke-width:0.8;"/>
     </g>
     <g id="line2d_4">
      <g>
       <use style="stroke:#000000;stroke-width:0.8;" x="105.766454" xlink:href="#m89872f8344" y="288.430125"/>
      </g>
     </g>
     <g id="text_2">
      <!-- 200 -->
      <defs>
       <path d="M 19.1875 8.296875 
L 53.609375 8.296875 
L 53.609375 0 
L 7.328125 0 
L 7.328125 8.296875 
Q 12.9375 14.109375 22.625 23.890625 
Q 32.328125 33.6875 34.8125 36.53125 
Q 39.546875 41.84375 41.421875 45.53125 
Q 43.3125 49.21875 43.3125 52.78125 
Q 43.3125 58.59375 39.234375 62.25 
Q 35.15625 65.921875 28.609375 65.921875 
Q 23.96875 65.921875 18.8125 64.3125 
Q 13.671875 62.703125 7.8125 59.421875 
L 7.8125 69.390625 
Q 13.765625 71.78125 18.9375 73 
Q 24.125 74.21875 28.421875 74.21875 
Q 39.75 74.21875 46.484375 68.546875 
Q 53.21875 62.890625 53.21875 53.421875 
Q 53.21875 48.921875 51.53125 44.890625 
Q 49.859375 40.875 45.40625 35.40625 
Q 44.1875 33.984375 37.640625 27.21875 
Q 31.109375 20.453125 19.1875 8.296875 
z
" id="DejaVuSans-50"/>
      </defs>
      <g transform="translate(96.222704 303.028562)scale(0.1 -0.1)">
       <use xlink:href="#DejaVuSans-50"/>
       <use x="63.623047" xlink:href="#DejaVuSans-48"/>
       <use x="127.246094" xlink:href="#DejaVuSans-48"/>
      </g>
     </g>
    </g>
    <g id="xtick_3">
     <g id="line2d_5">
      <path clip-path="url(#pffcb059956)" d="M 154.697057 288.430125 
L 154.697057 22.318125 
" style="fill:none;stroke:#b0b0b0;stroke-dasharray:2.96,1.28;stroke-dashoffset:0;stroke-width:0.8;"/>
     </g>
     <g id="line2d_6">
      <g>
       <use style="stroke:#000000;stroke-width:0.8;" x="154.697057" xlink:href="#m89872f8344" y="288.430125"/>
      </g>
     </g>
     <g id="text_3">
      <!-- 400 -->
      <defs>
       <path d="M 37.796875 64.3125 
L 12.890625 25.390625 
L 37.796875 25.390625 
z
M 35.203125 72.90625 
L 47.609375 72.90625 
L 47.609375 25.390625 
L 58.015625 25.390625 
L 58.015625 17.1875 
L 47.609375 17.1875 
L 47.609375 0 
L 37.796875 0 
L 37.796875 17.1875 
L 4.890625 17.1875 
L 4.890625 26.703125 
z
" id="DejaVuSans-52"/>
      </defs>
      <g transform="translate(145.153307 303.028562)scale(0.1 -0.1)">
       <use xlink:href="#DejaVuSans-52"/>
       <use x="63.623047" xlink:href="#DejaVuSans-48"/>
       <use x="127.246094" xlink:href="#DejaVuSans-48"/>
      </g>
     </g>
    </g>
    <g id="xtick_4">
     <g id="line2d_7">
      <path clip-path="url(#pffcb059956)" d="M 203.627659 288.430125 
L 203.627659 22.318125 
" style="fill:none;stroke:#b0b0b0;stroke-dasharray:2.96,1.28;stroke-dashoffset:0;stroke-width:0.8;"/>
     </g>
     <g id="line2d_8">
      <g>
       <use style="stroke:#000000;stroke-width:0.8;" x="203.627659" xlink:href="#m89872f8344" y="288.430125"/>
      </g>
     </g>
     <g id="text_4">
      <!-- 600 -->
      <defs>
       <path d="M 33.015625 40.375 
Q 26.375 40.375 22.484375 35.828125 
Q 18.609375 31.296875 18.609375 23.390625 
Q 18.609375 15.53125 22.484375 10.953125 
Q 26.375 6.390625 33.015625 6.390625 
Q 39.65625 6.390625 43.53125 10.953125 
Q 47.40625 15.53125 47.40625 23.390625 
Q 47.40625 31.296875 43.53125 35.828125 
Q 39.65625 40.375 33.015625 40.375 
z
M 52.59375 71.296875 
L 52.59375 62.3125 
Q 48.875 64.0625 45.09375 64.984375 
Q 41.3125 65.921875 37.59375 65.921875 
Q 27.828125 65.921875 22.671875 59.328125 
Q 17.53125 52.734375 16.796875 39.40625 
Q 19.671875 43.65625 24.015625 45.921875 
Q 28.375 48.1875 33.59375 48.1875 
Q 44.578125 48.1875 50.953125 41.515625 
Q 57.328125 34.859375 57.328125 23.390625 
Q 57.328125 12.15625 50.6875 5.359375 
Q 44.046875 -1.421875 33.015625 -1.421875 
Q 20.359375 -1.421875 13.671875 8.265625 
Q 6.984375 17.96875 6.984375 36.375 
Q 6.984375 53.65625 15.1875 63.9375 
Q 23.390625 74.21875 37.203125 74.21875 
Q 40.921875 74.21875 44.703125 73.484375 
Q 48.484375 72.75 52.59375 71.296875 
z
" id="DejaVuSans-54"/>
      </defs>
      <g transform="translate(194.083909 303.028562)scale(0.1 -0.1)">
       <use xlink:href="#DejaVuSans-54"/>
       <use x="63.623047" xlink:href="#DejaVuSans-48"/>
       <use x="127.246094" xlink:href="#DejaVuSans-48"/>
      </g>
     </g>
    </g>
    <g id="xtick_5">
     <g id="line2d_9">
      <path clip-path="url(#pffcb059956)" d="M 252.558261 288.430125 
L 252.558261 22.318125 
" style="fill:none;stroke:#b0b0b0;stroke-dasharray:2.96,1.28;stroke-dashoffset:0;stroke-width:0.8;"/>
     </g>
     <g id="line2d_10">
      <g>
       <use style="stroke:#000000;stroke-width:0.8;" x="252.558261" xlink:href="#m89872f8344" y="288.430125"/>
      </g>
     </g>
     <g id="text_5">
      <!-- 800 -->
      <defs>
       <path d="M 31.78125 34.625 
Q 24.75 34.625 20.71875 30.859375 
Q 16.703125 27.09375 16.703125 20.515625 
Q 16.703125 13.921875 20.71875 10.15625 
Q 24.75 6.390625 31.78125 6.390625 
Q 38.8125 6.390625 42.859375 10.171875 
Q 46.921875 13.96875 46.921875 20.515625 
Q 46.921875 27.09375 42.890625 30.859375 
Q 38.875 34.625 31.78125 34.625 
z
M 21.921875 38.8125 
Q 15.578125 40.375 12.03125 44.71875 
Q 8.5 49.078125 8.5 55.328125 
Q 8.5 64.0625 14.71875 69.140625 
Q 20.953125 74.21875 31.78125 74.21875 
Q 42.671875 74.21875 48.875 69.140625 
Q 55.078125 64.0625 55.078125 55.328125 
Q 55.078125 49.078125 51.53125 44.71875 
Q 48 40.375 41.703125 38.8125 
Q 48.828125 37.15625 52.796875 32.3125 
Q 56.78125 27.484375 56.78125 20.515625 
Q 56.78125 9.90625 50.3125 4.234375 
Q 43.84375 -1.421875 31.78125 -1.421875 
Q 19.734375 -1.421875 13.25 4.234375 
Q 6.78125 9.90625 6.78125 20.515625 
Q 6.78125 27.484375 10.78125 32.3125 
Q 14.796875 37.15625 21.921875 38.8125 
z
M 18.3125 54.390625 
Q 18.3125 48.734375 21.84375 45.5625 
Q 25.390625 42.390625 31.78125 42.390625 
Q 38.140625 42.390625 41.71875 45.5625 
Q 45.3125 48.734375 45.3125 54.390625 
Q 45.3125 60.0625 41.71875 63.234375 
Q 38.140625 66.40625 31.78125 66.40625 
Q 25.390625 66.40625 21.84375 63.234375 
Q 18.3125 60.0625 18.3125 54.390625 
z
" id="DejaVuSans-56"/>
      </defs>
      <g transform="translate(243.014511 303.028562)scale(0.1 -0.1)">
       <use xlink:href="#DejaVuSans-56"/>
       <use x="63.623047" xlink:href="#DejaVuSans-48"/>
       <use x="127.246094" xlink:href="#DejaVuSans-48"/>
      </g>
     </g>
    </g>
    <g id="xtick_6">
     <g id="line2d_11">
      <path clip-path="url(#pffcb059956)" d="M 301.488863 288.430125 
L 301.488863 22.318125 
" style="fill:none;stroke:#b0b0b0;stroke-dasharray:2.96,1.28;stroke-dashoffset:0;stroke-width:0.8;"/>
     </g>
     <g id="line2d_12">
      <g>
       <use style="stroke:#000000;stroke-width:0.8;" x="301.488863" xlink:href="#m89872f8344" y="288.430125"/>
      </g>
     </g>
     <g id="text_6">
      <!-- 1000 -->
      <defs>
       <path d="M 12.40625 8.296875 
L 28.515625 8.296875 
L 28.515625 63.921875 
L 10.984375 60.40625 
L 10.984375 69.390625 
L 28.421875 72.90625 
L 38.28125 72.90625 
L 38.28125 8.296875 
L 54.390625 8.296875 
L 54.390625 0 
L 12.40625 0 
z
" id="DejaVuSans-49"/>
      </defs>
      <g transform="translate(288.763863 303.028562)scale(0.1 -0.1)">
       <use xlink:href="#DejaVuSans-49"/>
       <use x="63.623047" xlink:href="#DejaVuSans-48"/>
       <use x="127.246094" xlink:href="#DejaVuSans-48"/>
       <use x="190.869141" xlink:href="#DejaVuSans-48"/>
      </g>
     </g>
    </g>
    <g id="xtick_7">
     <g id="line2d_13">
      <path clip-path="url(#pffcb059956)" d="M 350.419465 288.430125 
L 350.419465 22.318125 
" style="fill:none;stroke:#b0b0b0;stroke-dasharray:2.96,1.28;stroke-dashoffset:0;stroke-width:0.8;"/>
     </g>
     <g id="line2d_14">
      <g>
       <use style="stroke:#000000;stroke-width:0.8;" x="350.419465" xlink:href="#m89872f8344" y="288.430125"/>
      </g>
     </g>
     <g id="text_7">
      <!-- 1200 -->
      <g transform="translate(337.694465 303.028562)scale(0.1 -0.1)">
       <use xlink:href="#DejaVuSans-49"/>
       <use x="63.623047" xlink:href="#DejaVuSans-50"/>
       <use x="127.246094" xlink:href="#DejaVuSans-48"/>
       <use x="190.869141" xlink:href="#DejaVuSans-48"/>
      </g>
     </g>
    </g>
    <g id="text_8">
     <!-- Day -->
     <defs>
      <path d="M 19.671875 64.796875 
L 19.671875 8.109375 
L 31.59375 8.109375 
Q 46.6875 8.109375 53.6875 14.9375 
Q 60.6875 21.78125 60.6875 36.53125 
Q 60.6875 51.171875 53.6875 57.984375 
Q 46.6875 64.796875 31.59375 64.796875 
z
M 9.8125 72.90625 
L 30.078125 72.90625 
Q 51.265625 72.90625 61.171875 64.09375 
Q 71.09375 55.28125 71.09375 36.53125 
Q 71.09375 17.671875 61.125 8.828125 
Q 51.171875 0 30.078125 0 
L 9.8125 0 
z
" id="DejaVuSans-68"/>
      <path d="M 34.28125 27.484375 
Q 23.390625 27.484375 19.1875 25 
Q 14.984375 22.515625 14.984375 16.5 
Q 14.984375 11.71875 18.140625 8.90625 
Q 21.296875 6.109375 26.703125 6.109375 
Q 34.1875 6.109375 38.703125 11.40625 
Q 43.21875 16.703125 43.21875 25.484375 
L 43.21875 27.484375 
z
M 52.203125 31.203125 
L 52.203125 0 
L 43.21875 0 
L 43.21875 8.296875 
Q 40.140625 3.328125 35.546875 0.953125 
Q 30.953125 -1.421875 24.3125 -1.421875 
Q 15.921875 -1.421875 10.953125 3.296875 
Q 6 8.015625 6 15.921875 
Q 6 25.140625 12.171875 29.828125 
Q 18.359375 34.515625 30.609375 34.515625 
L 43.21875 34.515625 
L 43.21875 35.40625 
Q 43.21875 41.609375 39.140625 45 
Q 35.0625 48.390625 27.6875 48.390625 
Q 23 48.390625 18.546875 47.265625 
Q 14.109375 46.140625 10.015625 43.890625 
L 10.015625 52.203125 
Q 14.9375 54.109375 19.578125 55.046875 
Q 24.21875 56 28.609375 56 
Q 40.484375 56 46.34375 49.84375 
Q 52.203125 43.703125 52.203125 31.203125 
z
" id="DejaVuSans-97"/>
      <path d="M 32.171875 -5.078125 
Q 28.375 -14.84375 24.75 -17.8125 
Q 21.140625 -20.796875 15.09375 -20.796875 
L 7.90625 -20.796875 
L 7.90625 -13.28125 
L 13.1875 -13.28125 
Q 16.890625 -13.28125 18.9375 -11.515625 
Q 21 -9.765625 23.484375 -3.21875 
L 25.09375 0.875 
L 2.984375 54.6875 
L 12.5 54.6875 
L 29.59375 11.921875 
L 46.6875 54.6875 
L 56.203125 54.6875 
z
" id="DejaVuSans-121"/>
     </defs>
     <g transform="translate(209.289688 316.706687)scale(0.1 -0.1)">
      <use xlink:href="#DejaVuSans-68"/>
      <use x="77.001953" xlink:href="#DejaVuSans-97"/>
      <use x="138.28125" xlink:href="#DejaVuSans-121"/>
     </g>
    </g>
   </g>
   <g id="matplotlib.axis_2">
    <g id="ytick_1">
     <g id="line2d_15">
      <path clip-path="url(#pffcb059956)" d="M 40.603125 286.092921 
L 397.723125 286.092921 
" style="fill:none;stroke:#b0b0b0;stroke-dasharray:2.96,1.28;stroke-dashoffset:0;stroke-width:0.8;"/>
     </g>
     <g id="line2d_16">
      <defs>
       <path d="M 0 0 
L -3.5 0 
" id="m9e407b9cc8" style="stroke:#000000;stroke-width:0.8;"/>
      </defs>
      <g>
       <use style="stroke:#000000;stroke-width:0.8;" x="40.603125" xlink:href="#m9e407b9cc8" y="286.092921"/>
      </g>
     </g>
     <g id="text_9">
      <!-- 55 -->
      <defs>
       <path d="M 10.796875 72.90625 
L 49.515625 72.90625 
L 49.515625 64.59375 
L 19.828125 64.59375 
L 19.828125 46.734375 
Q 21.96875 47.46875 24.109375 47.828125 
Q 26.265625 48.1875 28.421875 48.1875 
Q 40.625 48.1875 47.75 41.5 
Q 54.890625 34.8125 54.890625 23.390625 
Q 54.890625 11.625 47.5625 5.09375 
Q 40.234375 -1.421875 26.90625 -1.421875 
Q 22.3125 -1.421875 17.546875 -0.640625 
Q 12.796875 0.140625 7.71875 1.703125 
L 7.71875 11.625 
Q 12.109375 9.234375 16.796875 8.0625 
Q 21.484375 6.890625 26.703125 6.890625 
Q 35.15625 6.890625 40.078125 11.328125 
Q 45.015625 15.765625 45.015625 23.390625 
Q 45.015625 31 40.078125 35.4375 
Q 35.15625 39.890625 26.703125 39.890625 
Q 22.75 39.890625 18.8125 39.015625 
Q 14.890625 38.140625 10.796875 36.28125 
z
" id="DejaVuSans-53"/>
      </defs>
      <g transform="translate(20.878125 289.892139)scale(0.1 -0.1)">
       <use xlink:href="#DejaVuSans-53"/>
       <use x="63.623047" xlink:href="#DejaVuSans-53"/>
      </g>
     </g>
    </g>
    <g id="ytick_2">
     <g id="line2d_17">
      <path clip-path="url(#pffcb059956)" d="M 40.603125 250.989339 
L 397.723125 250.989339 
" style="fill:none;stroke:#b0b0b0;stroke-dasharray:2.96,1.28;stroke-dashoffset:0;stroke-width:0.8;"/>
     </g>
     <g id="line2d_18">
      <g>
       <use style="stroke:#000000;stroke-width:0.8;" x="40.603125" xlink:href="#m9e407b9cc8" y="250.989339"/>
      </g>
     </g>
     <g id="text_10">
      <!-- 60 -->
      <g transform="translate(20.878125 254.788558)scale(0.1 -0.1)">
       <use xlink:href="#DejaVuSans-54"/>
       <use x="63.623047" xlink:href="#DejaVuSans-48"/>
      </g>
     </g>
    </g>
    <g id="ytick_3">
     <g id="line2d_19">
      <path clip-path="url(#pffcb059956)" d="M 40.603125 215.885758 
L 397.723125 215.885758 
" style="fill:none;stroke:#b0b0b0;stroke-dasharray:2.96,1.28;stroke-dashoffset:0;stroke-width:0.8;"/>
     </g>
     <g id="line2d_20">
      <g>
       <use style="stroke:#000000;stroke-width:0.8;" x="40.603125" xlink:href="#m9e407b9cc8" y="215.885758"/>
      </g>
     </g>
     <g id="text_11">
      <!-- 65 -->
      <g transform="translate(20.878125 219.684976)scale(0.1 -0.1)">
       <use xlink:href="#DejaVuSans-54"/>
       <use x="63.623047" xlink:href="#DejaVuSans-53"/>
      </g>
     </g>
    </g>
    <g id="ytick_4">
     <g id="line2d_21">
      <path clip-path="url(#pffcb059956)" d="M 40.603125 180.782176 
L 397.723125 180.782176 
" style="fill:none;stroke:#b0b0b0;stroke-dasharray:2.96,1.28;stroke-dashoffset:0;stroke-width:0.8;"/>
     </g>
     <g id="line2d_22">
      <g>
       <use style="stroke:#000000;stroke-width:0.8;" x="40.603125" xlink:href="#m9e407b9cc8" y="180.782176"/>
      </g>
     </g>
     <g id="text_12">
      <!-- 70 -->
      <defs>
       <path d="M 8.203125 72.90625 
L 55.078125 72.90625 
L 55.078125 68.703125 
L 28.609375 0 
L 18.3125 0 
L 43.21875 64.59375 
L 8.203125 64.59375 
z
" id="DejaVuSans-55"/>
      </defs>
      <g transform="translate(20.878125 184.581395)scale(0.1 -0.1)">
       <use xlink:href="#DejaVuSans-55"/>
       <use x="63.623047" xlink:href="#DejaVuSans-48"/>
      </g>
     </g>
    </g>
    <g id="ytick_5">
     <g id="line2d_23">
      <path clip-path="url(#pffcb059956)" d="M 40.603125 145.678595 
L 397.723125 145.678595 
" style="fill:none;stroke:#b0b0b0;stroke-dasharray:2.96,1.28;stroke-dashoffset:0;stroke-width:0.8;"/>
     </g>
     <g id="line2d_24">
      <g>
       <use style="stroke:#000000;stroke-width:0.8;" x="40.603125" xlink:href="#m9e407b9cc8" y="145.678595"/>
      </g>
     </g>
     <g id="text_13">
      <!-- 75 -->
      <g transform="translate(20.878125 149.477813)scale(0.1 -0.1)">
       <use xlink:href="#DejaVuSans-55"/>
       <use x="63.623047" xlink:href="#DejaVuSans-53"/>
      </g>
     </g>
    </g>
    <g id="ytick_6">
     <g id="line2d_25">
      <path clip-path="url(#pffcb059956)" d="M 40.603125 110.575013 
L 397.723125 110.575013 
" style="fill:none;stroke:#b0b0b0;stroke-dasharray:2.96,1.28;stroke-dashoffset:0;stroke-width:0.8;"/>
     </g>
     <g id="line2d_26">
      <g>
       <use style="stroke:#000000;stroke-width:0.8;" x="40.603125" xlink:href="#m9e407b9cc8" y="110.575013"/>
      </g>
     </g>
     <g id="text_14">
      <!-- 80 -->
      <g transform="translate(20.878125 114.374232)scale(0.1 -0.1)">
       <use xlink:href="#DejaVuSans-56"/>
       <use x="63.623047" xlink:href="#DejaVuSans-48"/>
      </g>
     </g>
    </g>
    <g id="ytick_7">
     <g id="line2d_27">
      <path clip-path="url(#pffcb059956)" d="M 40.603125 75.471432 
L 397.723125 75.471432 
" style="fill:none;stroke:#b0b0b0;stroke-dasharray:2.96,1.28;stroke-dashoffset:0;stroke-width:0.8;"/>
     </g>
     <g id="line2d_28">
      <g>
       <use style="stroke:#000000;stroke-width:0.8;" x="40.603125" xlink:href="#m9e407b9cc8" y="75.471432"/>
      </g>
     </g>
     <g id="text_15">
      <!-- 85 -->
      <g transform="translate(20.878125 79.27065)scale(0.1 -0.1)">
       <use xlink:href="#DejaVuSans-56"/>
       <use x="63.623047" xlink:href="#DejaVuSans-53"/>
      </g>
     </g>
    </g>
    <g id="ytick_8">
     <g id="line2d_29">
      <path clip-path="url(#pffcb059956)" d="M 40.603125 40.36785 
L 397.723125 40.36785 
" style="fill:none;stroke:#b0b0b0;stroke-dasharray:2.96,1.28;stroke-dashoffset:0;stroke-width:0.8;"/>
     </g>
     <g id="line2d_30">
      <g>
       <use style="stroke:#000000;stroke-width:0.8;" x="40.603125" xlink:href="#m9e407b9cc8" y="40.36785"/>
      </g>
     </g>
     <g id="text_16">
      <!-- 90 -->
      <defs>
       <path d="M 10.984375 1.515625 
L 10.984375 10.5 
Q 14.703125 8.734375 18.5 7.8125 
Q 22.3125 6.890625 25.984375 6.890625 
Q 35.75 6.890625 40.890625 13.453125 
Q 46.046875 20.015625 46.78125 33.40625 
Q 43.953125 29.203125 39.59375 26.953125 
Q 35.25 24.703125 29.984375 24.703125 
Q 19.046875 24.703125 12.671875 31.3125 
Q 6.296875 37.9375 6.296875 49.421875 
Q 6.296875 60.640625 12.9375 67.421875 
Q 19.578125 74.21875 30.609375 74.21875 
Q 43.265625 74.21875 49.921875 64.515625 
Q 56.59375 54.828125 56.59375 36.375 
Q 56.59375 19.140625 48.40625 8.859375 
Q 40.234375 -1.421875 26.421875 -1.421875 
Q 22.703125 -1.421875 18.890625 -0.6875 
Q 15.09375 0.046875 10.984375 1.515625 
z
M 30.609375 32.421875 
Q 37.25 32.421875 41.125 36.953125 
Q 45.015625 41.5 45.015625 49.421875 
Q 45.015625 57.28125 41.125 61.84375 
Q 37.25 66.40625 30.609375 66.40625 
Q 23.96875 66.40625 20.09375 61.84375 
Q 16.21875 57.28125 16.21875 49.421875 
Q 16.21875 41.5 20.09375 36.953125 
Q 23.96875 32.421875 30.609375 32.421875 
z
" id="DejaVuSans-57"/>
      </defs>
      <g transform="translate(20.878125 44.167069)scale(0.1 -0.1)">
       <use xlink:href="#DejaVuSans-57"/>
       <use x="63.623047" xlink:href="#DejaVuSans-48"/>
      </g>
     </g>
    </g>
    <g id="text_17">
     <!-- Price $ -->
     <defs>
      <path d="M 19.671875 64.796875 
L 19.671875 37.40625 
L 32.078125 37.40625 
Q 38.96875 37.40625 42.71875 40.96875 
Q 46.484375 44.53125 46.484375 51.125 
Q 46.484375 57.671875 42.71875 61.234375 
Q 38.96875 64.796875 32.078125 64.796875 
z
M 9.8125 72.90625 
L 32.078125 72.90625 
Q 44.34375 72.90625 50.609375 67.359375 
Q 56.890625 61.8125 56.890625 51.125 
Q 56.890625 40.328125 50.609375 34.8125 
Q 44.34375 29.296875 32.078125 29.296875 
L 19.671875 29.296875 
L 19.671875 0 
L 9.8125 0 
z
" id="DejaVuSans-80"/>
      <path d="M 41.109375 46.296875 
Q 39.59375 47.171875 37.8125 47.578125 
Q 36.03125 48 33.890625 48 
Q 26.265625 48 22.1875 43.046875 
Q 18.109375 38.09375 18.109375 28.8125 
L 18.109375 0 
L 9.078125 0 
L 9.078125 54.6875 
L 18.109375 54.6875 
L 18.109375 46.1875 
Q 20.953125 51.171875 25.484375 53.578125 
Q 30.03125 56 36.53125 56 
Q 37.453125 56 38.578125 55.875 
Q 39.703125 55.765625 41.0625 55.515625 
z
" id="DejaVuSans-114"/>
      <path d="M 9.421875 54.6875 
L 18.40625 54.6875 
L 18.40625 0 
L 9.421875 0 
z
M 9.421875 75.984375 
L 18.40625 75.984375 
L 18.40625 64.59375 
L 9.421875 64.59375 
z
" id="DejaVuSans-105"/>
      <path d="M 48.78125 52.59375 
L 48.78125 44.1875 
Q 44.96875 46.296875 41.140625 47.34375 
Q 37.3125 48.390625 33.40625 48.390625 
Q 24.65625 48.390625 19.8125 42.84375 
Q 14.984375 37.3125 14.984375 27.296875 
Q 14.984375 17.28125 19.8125 11.734375 
Q 24.65625 6.203125 33.40625 6.203125 
Q 37.3125 6.203125 41.140625 7.25 
Q 44.96875 8.296875 48.78125 10.40625 
L 48.78125 2.09375 
Q 45.015625 0.34375 40.984375 -0.53125 
Q 36.96875 -1.421875 32.421875 -1.421875 
Q 20.0625 -1.421875 12.78125 6.34375 
Q 5.515625 14.109375 5.515625 27.296875 
Q 5.515625 40.671875 12.859375 48.328125 
Q 20.21875 56 33.015625 56 
Q 37.15625 56 41.109375 55.140625 
Q 45.0625 54.296875 48.78125 52.59375 
z
" id="DejaVuSans-99"/>
      <path d="M 56.203125 29.59375 
L 56.203125 25.203125 
L 14.890625 25.203125 
Q 15.484375 15.921875 20.484375 11.0625 
Q 25.484375 6.203125 34.421875 6.203125 
Q 39.59375 6.203125 44.453125 7.46875 
Q 49.3125 8.734375 54.109375 11.28125 
L 54.109375 2.78125 
Q 49.265625 0.734375 44.1875 -0.34375 
Q 39.109375 -1.421875 33.890625 -1.421875 
Q 20.796875 -1.421875 13.15625 6.1875 
Q 5.515625 13.8125 5.515625 26.8125 
Q 5.515625 40.234375 12.765625 48.109375 
Q 20.015625 56 32.328125 56 
Q 43.359375 56 49.78125 48.890625 
Q 56.203125 41.796875 56.203125 29.59375 
z
M 47.21875 32.234375 
Q 47.125 39.59375 43.09375 43.984375 
Q 39.0625 48.390625 32.421875 48.390625 
Q 24.90625 48.390625 20.390625 44.140625 
Q 15.875 39.890625 15.1875 32.171875 
z
" id="DejaVuSans-101"/>
      <path id="DejaVuSans-32"/>
      <path d="M 33.796875 -14.703125 
L 28.90625 -14.703125 
L 28.859375 0 
Q 23.734375 0.09375 18.609375 1.1875 
Q 13.484375 2.296875 8.296875 4.5 
L 8.296875 13.28125 
Q 13.28125 10.15625 18.375 8.5625 
Q 23.484375 6.984375 28.90625 6.9375 
L 28.90625 29.203125 
Q 18.109375 30.953125 13.203125 35.15625 
Q 8.296875 39.359375 8.296875 46.6875 
Q 8.296875 54.640625 13.625 59.21875 
Q 18.953125 63.8125 28.90625 64.5 
L 28.90625 75.984375 
L 33.796875 75.984375 
L 33.796875 64.65625 
Q 38.328125 64.453125 42.578125 63.6875 
Q 46.828125 62.9375 50.875 61.625 
L 50.875 53.078125 
Q 46.828125 55.125 42.546875 56.25 
Q 38.28125 57.375 33.796875 57.5625 
L 33.796875 36.71875 
Q 44.875 35.015625 50.09375 30.609375 
Q 55.328125 26.21875 55.328125 18.609375 
Q 55.328125 10.359375 49.78125 5.59375 
Q 44.234375 0.828125 33.796875 0.09375 
z
M 28.90625 37.59375 
L 28.90625 57.625 
Q 23.25 56.984375 20.265625 54.390625 
Q 17.28125 51.8125 17.28125 47.515625 
Q 17.28125 43.3125 20.03125 40.96875 
Q 22.796875 38.625 28.90625 37.59375 
z
M 33.796875 28.21875 
L 33.796875 7.078125 
Q 39.984375 7.90625 43.140625 10.59375 
Q 46.296875 13.28125 46.296875 17.671875 
Q 46.296875 21.96875 43.28125 24.5 
Q 40.28125 27.046875 33.796875 28.21875 
z
" id="DejaVuSans-36"/>
     </defs>
     <g transform="translate(14.798438 172.342094)rotate(-90)scale(0.1 -0.1)">
      <use xlink:href="#DejaVuSans-80"/>
      <use x="58.552734" xlink:href="#DejaVuSans-114"/>
      <use x="99.666016" xlink:href="#DejaVuSans-105"/>
      <use x="127.449219" xlink:href="#DejaVuSans-99"/>
      <use x="182.429688" xlink:href="#DejaVuSans-101"/>
      <use x="243.953125" xlink:href="#DejaVuSans-32"/>
      <use x="275.740234" xlink:href="#DejaVuSans-36"/>
     </g>
    </g>
   </g>
   <g id="line2d_31">
    <path clip-path="url(#pffcb059956)" d="M 56.835852 170.723963 
L 57.080505 147.018493 
L 57.325158 145.565736 
L 57.814464 153.974451 
L 58.30377 147.617498 
L 58.793076 152.332399 
L 59.037729 150.207951 
L 59.282382 153.492966 
L 59.527035 154.722738 
L 59.771688 156.590829 
L 60.260994 149.093823 
L 60.505647 165.162111 
L 60.7503 166.131777 
L 60.994953 163.80325 
L 61.239606 169.920184 
L 61.484259 167.572643 
L 61.728912 168.917202 
L 62.218219 162.284716 
L 62.462872 162.885756 
L 62.707525 160.308104 
L 62.952178 163.897791 
L 63.196831 161.425231 
L 63.441484 154.999341 
L 63.686137 154.78289 
L 63.93079 145.88503 
L 64.175443 152.912816 
L 64.420096 154.995752 
L 64.664749 150.994857 
L 64.909402 151.013229 
L 65.154055 143.488959 
L 65.643361 151.573721 
L 65.888014 151.717379 
L 66.37732 146.155205 
L 66.621973 148.29042 
L 66.866626 146.181291 
L 67.111279 149.528654 
L 67.355932 149.993213 
L 67.845238 152.70681 
L 68.089891 150.946007 
L 68.334544 153.062688 
L 69.068503 143.392812 
L 69.313156 142.546397 
L 69.557809 150.329808 
L 69.802462 141.217211 
L 70.047115 144.173237 
L 70.291768 138.59553 
L 70.536421 129.108414 
L 70.781074 130.970828 
L 71.025727 130.033729 
L 71.27038 133.266359 
L 71.515033 139.852673 
L 71.759686 139.541521 
L 72.004339 145.830287 
L 72.248992 145.415757 
L 72.493645 141.898114 
L 72.738298 143.429236 
L 72.982951 144.027919 
L 73.227604 154.941492 
L 73.472257 159.627094 
L 73.71691 157.046657 
L 73.961563 152.815544 
L 74.450869 161.785341 
L 74.695522 162.914359 
L 74.940175 161.757488 
L 75.429481 169.996138 
L 75.674134 187.963048 
L 75.918787 192.880796 
L 76.16344 186.119489 
L 76.408093 186.312854 
L 76.652746 187.155949 
L 76.897399 177.990216 
L 77.142052 179.972773 
L 77.386705 182.871593 
L 77.631358 175.386372 
L 77.876011 173.544634 
L 78.120664 165.238279 
L 78.365317 170.143385 
L 78.60997 164.583514 
L 78.854623 167.952678 
L 79.099276 168.397633 
L 79.343929 163.430286 
L 79.588582 164.533861 
L 79.833235 173.431989 
L 80.077888 186.957227 
L 80.322541 186.193407 
L 80.567194 188.269487 
L 81.0565 183.146215 
L 81.301153 189.973887 
L 81.545806 186.60467 
L 81.790459 188.99367 
L 82.035112 189.609868 
L 82.279765 193.648633 
L 82.524418 192.291915 
L 82.769071 196.34841 
L 83.013724 192.081409 
L 83.258377 185.001076 
L 83.50303 188.151004 
L 83.747683 186.313711 
L 83.992336 190.910826 
L 84.236989 189.589031 
L 84.481643 189.738099 
L 84.726296 191.264079 
L 84.970949 189.375687 
L 85.215602 191.706945 
L 85.460255 186.942015 
L 85.704908 185.336225 
L 85.949561 187.903271 
L 86.438867 182.727293 
L 86.68352 183.408731 
L 86.928173 181.290068 
L 87.172826 186.84951 
L 87.417479 184.363185 
L 87.662132 180.562404 
L 87.906785 181.619646 
L 88.151438 180.202455 
L 88.396091 176.376767 
L 88.640744 182.459902 
L 88.885397 174.39512 
L 89.13005 170.600391 
L 89.374703 171.259708 
L 89.619356 169.443252 
L 89.864009 169.984033 
L 90.353315 170.040757 
L 90.597968 174.051294 
L 90.842621 184.663303 
L 91.087274 188.383953 
L 91.331927 185.262521 
L 91.57658 177.988073 
L 91.821233 177.028799 
L 92.065886 176.721664 
L 92.555192 168.059056 
L 92.799845 174.283439 
L 93.044498 167.467765 
L 93.289151 156.745414 
L 93.533804 153.684992 
L 93.778457 156.131037 
L 94.02311 156.427352 
L 94.267763 158.432514 
L 94.512416 158.783946 
L 94.757069 154.414317 
L 95.001722 154.127322 
L 95.246375 157.158231 
L 95.491028 162.123971 
L 95.735681 163.798376 
L 95.980334 162.387987 
L 96.224987 158.636592 
L 96.46964 157.674854 
L 96.714293 149.570434 
L 96.958946 145.555505 
L 97.203599 146.149474 
L 97.448252 145.994568 
L 97.692905 145.593482 
L 98.182211 137.263291 
L 98.426864 137.469886 
L 98.91617 134.625487 
L 99.405476 122.451878 
L 99.650129 127.85486 
L 99.894782 124.679597 
L 100.139435 119.187378 
L 100.384088 119.965285 
L 100.628741 118.413113 
L 100.873394 119.556165 
L 101.118047 129.04312 
L 101.3627 120.893225 
L 101.607353 123.245373 
L 101.852006 115.397524 
L 102.096659 122.873211 
L 102.585965 115.566357 
L 103.075271 124.829844 
L 103.564577 119.589482 
L 103.80923 114.103744 
L 104.053883 117.095283 
L 104.298536 116.99244 
L 104.543189 120.997889 
L 104.787842 119.907008 
L 105.032495 116.47346 
L 105.277148 119.30554 
L 105.521801 117.274347 
L 105.766454 109.629023 
L 106.011107 119.364032 
L 106.500413 126.757499 
L 106.745066 126.897032 
L 106.98972 129.482986 
L 107.234373 134.392806 
L 107.479026 127.492233 
L 107.723679 127.476861 
L 107.968332 135.165946 
L 108.457638 144.710322 
L 108.702291 138.848298 
L 108.946944 137.176571 
L 109.191597 142.092497 
L 109.43625 139.350994 
L 109.680903 134.428051 
L 110.170209 142.079481 
L 110.414862 144.888046 
L 110.659515 143.795934 
L 110.904168 144.778776 
L 111.148821 144.257172 
L 111.393474 138.776415 
L 111.88278 157.707153 
L 112.861392 143.962571 
L 113.106045 142.194215 
L 113.350698 147.632817 
L 113.840004 145.993228 
L 114.084657 145.72857 
L 114.32931 142.583785 
L 114.573963 132.027964 
L 114.818616 129.923709 
L 115.063269 131.785748 
L 115.307922 125.539886 
L 115.552575 125.63989 
L 115.797228 129.926012 
L 116.041881 127.377339 
L 116.286534 128.630036 
L 116.531187 127.662191 
L 116.77584 122.415348 
L 117.020493 123.982732 
L 117.265146 119.110193 
L 117.754452 122.881996 
L 118.243758 122.947986 
L 118.488411 123.664135 
L 118.733064 123.293634 
L 118.977717 121.31354 
L 119.22237 117.595515 
L 119.467023 117.485281 
L 119.711676 123.791617 
L 119.956329 127.162441 
L 120.200982 127.960435 
L 120.445635 130.479648 
L 120.690288 129.241413 
L 120.934941 130.794925 
L 121.179594 134.018234 
L 121.424247 147.867105 
L 121.6689 149.913671 
L 122.158206 156.20758 
L 122.402859 154.032782 
L 122.647512 154.67303 
L 122.892165 154.838382 
L 123.136818 157.676836 
L 123.381471 158.873451 
L 123.626124 162.236616 
L 123.870777 161.936176 
L 124.11543 158.126825 
L 124.360083 160.296802 
L 124.604736 158.704939 
L 124.849389 160.383736 
L 125.094042 160.971278 
L 125.338695 154.506768 
L 125.583348 151.426153 
L 125.828001 150.865447 
L 126.072654 151.82847 
L 126.806613 143.161952 
L 127.051266 134.182782 
L 127.295919 135.83394 
L 127.540572 138.475065 
L 127.785225 134.150269 
L 128.029878 138.998276 
L 128.274531 146.709537 
L 128.519184 146.768458 
L 128.763837 148.6328 
L 129.253143 154.056511 
L 129.497797 153.130178 
L 130.231756 166.015061 
L 130.476409 158.888395 
L 130.721062 158.18371 
L 130.965715 145.726159 
L 131.210368 145.513243 
L 131.455021 146.514994 
L 131.699674 148.586574 
L 131.944327 139.890542 
L 132.18898 138.759917 
L 132.433633 139.336478 
L 132.678286 143.22339 
L 132.922939 134.879273 
L 133.167592 137.985438 
L 133.412245 134.300462 
L 133.656898 136.676767 
L 133.901551 129.150033 
L 134.146204 129.790924 
L 134.63551 131.869629 
L 135.124816 127.778264 
L 135.369469 127.171654 
L 135.614122 121.913187 
L 135.858775 126.550153 
L 136.103428 123.269905 
L 136.348081 115.825499 
L 136.592734 118.104371 
L 137.326693 114.357101 
L 137.571346 114.350298 
L 137.815999 114.106797 
L 138.060652 116.554449 
L 138.305305 116.776578 
L 138.794611 105.778695 
L 139.283917 102.208292 
L 140.017876 100.122356 
L 140.507182 112.460138 
L 140.751835 108.846134 
L 140.996488 108.906715 
L 141.241141 115.068964 
L 141.485794 114.850905 
L 141.9751 121.920633 
L 142.219753 124.273584 
L 142.464406 127.720737 
L 142.709059 122.917723 
L 142.953712 127.863966 
L 143.198365 126.542386 
L 143.443018 123.422294 
L 143.687671 122.515405 
L 143.932324 119.855855 
L 144.176977 119.301951 
L 144.42163 118.181182 
L 144.666283 117.763009 
L 144.910936 116.222514 
L 145.155589 118.092855 
L 145.400242 121.170953 
L 145.644895 119.412293 
L 145.889548 123.847162 
L 146.134201 121.970554 
L 146.378854 122.337466 
L 146.623507 126.241786 
L 146.86816 122.849965 
L 147.112813 125.008586 
L 147.602119 135.232687 
L 148.091425 141.163915 
L 148.825384 149.625926 
L 149.070037 146.03083 
L 149.31469 150.06124 
L 149.559343 145.542489 
L 149.803996 146.024563 
L 150.048649 160.207244 
L 150.293302 159.648359 
L 150.537955 158.683942 
L 150.782608 159.198691 
L 151.027261 152.728932 
L 151.271914 152.691758 
L 151.516567 145.394064 
L 151.76122 144.297612 
L 152.250527 138.464941 
L 152.739833 145.137547 
L 152.984486 154.459686 
L 153.229139 157.199046 
L 153.473792 155.614843 
L 153.718445 155.723631 
L 153.963098 145.709019 
L 154.207751 147.31047 
L 154.452404 146.292864 
L 154.697057 150.283851 
L 154.94171 143.137474 
L 155.186363 145.544578 
L 155.431016 145.015742 
L 155.675669 147.087323 
L 155.920322 148.14644 
L 156.409628 140.459658 
L 156.898934 149.245677 
L 157.143587 146.33984 
L 157.38824 145.764886 
L 157.632893 148.566756 
L 158.122199 136.459512 
L 158.366852 131.884627 
L 158.611505 131.107255 
L 158.856158 135.587226 
L 159.100811 136.100313 
L 159.345464 137.00581 
L 160.079423 128.885321 
L 160.324076 126.903139 
L 160.568729 127.947258 
L 160.813382 127.880892 
L 161.058035 121.69845 
L 161.302688 123.283671 
L 161.547341 130.872967 
L 161.791994 133.423783 
L 162.036647 127.209149 
L 162.2813 130.873288 
L 162.770606 125.308651 
L 163.259912 126.014461 
L 163.504565 122.579789 
L 163.993871 118.551147 
L 164.238524 110.477634 
L 164.483177 111.226456 
L 164.72783 110.888201 
L 164.972483 110.865972 
L 165.706442 122.653439 
L 165.951095 122.98441 
L 166.440401 114.374241 
L 166.685054 114.747259 
L 166.929707 114.719781 
L 167.17436 117.471194 
L 167.419013 130.846399 
L 167.663666 129.440456 
L 167.908319 132.2968 
L 168.152972 138.859921 
L 168.397625 139.043859 
L 168.642278 140.938143 
L 168.886931 139.461657 
L 169.131584 139.60419 
L 169.376237 140.038753 
L 169.62089 136.877203 
L 169.865543 131.355684 
L 170.110196 131.497735 
L 170.354849 131.842526 
L 170.599502 128.837435 
L 170.844155 127.558652 
L 171.088808 128.38932 
L 171.333461 129.77973 
L 172.312073 141.887348 
L 172.556726 141.467193 
L 172.801379 143.951215 
L 173.046032 138.975619 
L 173.290685 137.806803 
L 173.535338 139.170538 
L 173.779991 138.334889 
L 174.024644 137.063123 
L 174.269298 139.566749 
L 174.513951 144.540899 
L 174.758604 141.477638 
L 175.003257 143.438342 
L 175.24791 142.014294 
L 175.492563 139.619349 
L 175.737216 138.746312 
L 175.981869 136.493579 
L 176.471175 128.498483 
L 176.715828 129.609343 
L 177.205134 133.097847 
L 177.449787 131.041211 
L 177.69444 130.961829 
L 177.939093 132.751611 
L 178.183746 129.315064 
L 178.428399 131.606309 
L 178.673052 132.496808 
L 178.917705 129.976577 
L 179.407011 137.146468 
L 179.896317 140.832891 
L 180.14097 145.468624 
L 180.385623 153.833632 
L 180.630276 154.111628 
L 180.874929 154.147034 
L 181.119582 155.622342 
L 181.364235 149.636693 
L 181.608888 151.375053 
L 181.853541 146.350178 
L 182.098194 148.49798 
L 182.5875 150.799456 
L 182.832153 148.300436 
L 183.076806 151.803456 
L 183.566112 144.943378 
L 183.810765 144.453965 
L 184.055418 140.269453 
L 184.300071 139.027844 
L 184.544724 139.330586 
L 184.789377 140.494528 
L 185.03403 138.13547 
L 185.278683 137.827961 
L 185.523336 140.675841 
L 186.012642 137.027985 
L 186.257295 133.193459 
L 186.501948 126.507302 
L 186.746601 133.520144 
L 186.991254 131.862719 
L 187.235907 133.431711 
L 187.725213 138.645077 
L 187.969866 138.350743 
L 188.214519 134.79432 
L 188.459172 135.404626 
L 188.703825 135.524502 
L 188.948478 131.108648 
L 189.437784 139.820856 
L 189.682437 129.328508 
L 189.92709 136.215422 
L 190.171743 133.600169 
L 190.416396 136.404127 
L 190.661049 133.688495 
L 190.905702 136.157787 
L 191.150355 135.38379 
L 191.395008 127.688813 
L 191.639661 127.581899 
L 191.884314 127.929475 
L 192.128967 121.193879 
L 192.37362 123.975501 
L 192.618273 120.888618 
L 192.862926 126.03744 
L 193.107579 123.001015 
L 193.352232 142.600871 
L 193.596885 152.028853 
L 193.841538 150.029315 
L 194.330844 136.929803 
L 194.575497 136.849457 
L 195.064803 134.209457 
L 195.309456 132.735488 
L 195.554109 134.447709 
L 196.043415 133.751861 
L 196.288068 135.063211 
L 196.532721 134.990418 
L 196.777375 128.082507 
L 197.022028 125.078166 
L 197.266681 124.345948 
L 197.755987 112.797269 
L 198.00064 115.941304 
L 198.245293 114.433965 
L 198.489946 87.765934 
L 198.734599 88.330872 
L 198.979252 83.843081 
L 199.223905 82.073815 
L 199.468558 73.443291 
L 199.713211 76.639712 
L 199.957864 75.905995 
L 200.202517 70.422399 
L 200.44717 73.824023 
L 200.691823 73.387049 
L 200.936476 55.008287 
L 201.181129 65.020382 
L 201.425782 63.168359 
L 201.670435 73.388656 
L 201.915088 74.424205 
L 202.159741 78.962025 
L 202.404394 78.21481 
L 202.8937 86.975868 
L 203.138353 80.964936 
L 203.383006 81.226863 
L 203.627659 80.338722 
L 203.872312 87.149093 
L 204.361618 66.238423 
L 204.606271 72.045972 
L 204.850924 63.135685 
L 205.095577 61.235723 
L 205.34023 62.961603 
L 205.584883 59.389753 
L 205.829536 61.40552 
L 206.074189 60.264825 
L 206.318842 66.727192 
L 206.563495 66.367404 
L 206.808148 68.1574 
L 207.052801 63.482457 
L 207.542107 34.414125 
L 207.78676 42.688984 
L 208.031413 37.192587 
L 208.276066 42.393419 
L 208.520719 61.488009 
L 208.765372 55.305405 
L 209.010025 60.056998 
L 209.254678 60.669125 
L 209.499331 60.942086 
L 209.743984 49.255265 
L 210.23329 47.136388 
L 210.722596 59.583065 
L 210.967249 53.204043 
L 211.211902 72.829825 
L 211.701208 64.075944 
L 211.945861 61.121364 
L 212.190514 56.692333 
L 212.435167 56.389805 
L 212.67982 66.373082 
L 212.924473 56.371379 
L 213.169126 63.417699 
L 213.413779 66.48412 
L 213.658432 66.934538 
L 213.903085 65.973925 
L 214.147738 63.728422 
L 214.392391 83.29523 
L 214.637044 77.30551 
L 214.881697 75.418403 
L 215.12635 75.860841 
L 215.371003 82.823387 
L 215.615656 81.028463 
L 215.860309 80.210062 
L 216.104962 80.10272 
L 216.594268 89.733333 
L 216.838921 82.678068 
L 217.083574 89.861136 
L 217.328227 87.658217 
L 217.57288 93.425647 
L 217.817533 103.058296 
L 218.062186 94.337946 
L 218.306839 94.661525 
L 218.551492 84.866043 
L 218.796145 89.842657 
L 219.040798 90.251938 
L 219.285452 97.371908 
L 219.530105 84.974831 
L 219.774758 84.954584 
L 220.019411 86.800071 
L 220.264064 98.934579 
L 220.508717 94.430397 
L 220.75337 98.527654 
L 220.998023 90.092103 
L 221.242676 92.32234 
L 221.487329 103.149515 
L 221.731982 102.56583 
L 221.976635 100.82672 
L 222.221288 104.46981 
L 222.465941 100.606841 
L 222.955247 103.375501 
L 223.1999 105.8682 
L 223.444553 106.830581 
L 223.933859 113.27854 
L 224.178512 122.834538 
L 224.423165 120.906241 
L 224.667818 121.806809 
L 224.912471 119.101515 
L 225.401777 109.29216 
L 225.64643 112.685052 
L 225.891083 114.474566 
L 226.135736 123.049972 
L 226.380389 121.768511 
L 226.869695 114.094209 
L 227.114348 121.596411 
L 227.359001 124.788171 
L 227.848307 118.657632 
L 228.09296 121.807506 
L 228.337613 115.657791 
L 228.582266 121.393457 
L 229.316225 109.037625 
L 229.560878 133.785392 
L 229.805531 136.987116 
L 230.050184 135.505809 
L 230.294837 137.56523 
L 230.53949 144.333607 
L 230.784143 142.262884 
L 231.028796 144.716053 
L 231.273449 148.751229 
L 231.518102 145.530759 
L 231.762755 146.962144 
L 232.007408 144.504315 
L 232.252061 149.693792 
L 232.496714 157.322297 
L 232.741367 160.443139 
L 232.98602 161.489133 
L 233.230673 158.385645 
L 233.475326 158.380664 
L 233.964632 165.450659 
L 234.453938 159.904662 
L 234.698591 158.22715 
L 234.943244 159.934497 
L 235.187897 159.566728 
L 235.677203 162.486652 
L 235.921856 166.153738 
L 236.166509 164.338406 
L 236.655815 172.742462 
L 236.900468 166.072106 
L 237.145121 166.281273 
L 237.389774 161.622775 
L 237.634427 152.730003 
L 237.87908 157.993933 
L 238.123733 159.882808 
L 238.368386 157.396429 
L 238.613039 152.120179 
L 239.102345 153.865181 
L 239.346998 152.540441 
L 239.836304 157.687388 
L 240.080957 160.186247 
L 240.32561 157.242754 
L 241.059569 169.673309 
L 241.304222 164.664342 
L 241.548875 163.808928 
L 241.793529 164.323355 
L 242.038182 165.534058 
L 242.282835 164.109368 
L 242.527488 163.626758 
L 242.772141 154.803565 
L 243.016794 159.932301 
L 243.261447 170.713197 
L 243.5061 168.970552 
L 243.995406 161.4165 
L 244.240059 164.755454 
L 244.484712 162.811034 
L 244.729365 166.066964 
L 244.974018 183.056549 
L 245.218671 189.336532 
L 245.463324 190.344817 
L 246.197283 227.665083 
L 246.686589 207.221704 
L 246.931242 215.030933 
L 247.175895 216.525256 
L 247.420548 222.768654 
L 247.909854 215.64472 
L 248.154507 222.485302 
L 248.39916 205.097577 
L 248.888466 221.047328 
L 249.133119 217.268722 
L 249.377772 219.940324 
L 249.622425 219.7333 
L 249.867078 217.156666 
L 250.111731 218.752118 
L 250.356384 226.696007 
L 250.601037 224.011924 
L 250.84569 224.949853 
L 251.334996 223.330673 
L 251.579649 223.698763 
L 251.824302 224.548499 
L 252.068955 223.712181 
L 252.313608 216.269382 
L 252.558261 220.353623 
L 253.047567 209.060496 
L 253.29222 210.500612 
L 253.781526 202.025799 
L 254.026179 203.443044 
L 254.270832 201.719575 
L 254.515485 203.144533 
L 254.760138 249.878024 
L 255.249444 257.987478 
L 255.73875 259.327672 
L 255.983403 260.093607 
L 256.228056 258.27766 
L 256.472709 262.362999 
L 256.717362 264.338593 
L 256.962015 268.116181 
L 257.206668 267.075222 
L 257.451321 264.870589 
L 257.695974 269.936655 
L 258.674586 260.451789 
L 258.919239 259.280375 
L 259.163892 261.368882 
L 259.408545 260.020546 
L 259.897851 272.257655 
L 260.142504 276.026164 
L 260.876463 244.328143 
L 261.121116 246.041703 
L 261.365769 250.443765 
L 261.610422 249.006005 
L 261.855075 251.474145 
L 262.099728 249.205316 
L 262.344381 251.741107 
L 262.589034 259.133985 
L 262.833687 258.045916 
L 263.07834 262.572809 
L 263.812299 247.45169 
L 264.056952 253.745947 
L 264.301606 257.041461 
L 264.546259 254.001232 
L 264.790912 255.438644 
L 265.035565 248.181685 
L 265.280218 253.518435 
L 265.524871 248.816952 
L 265.769524 258.135877 
L 266.014177 259.009422 
L 266.748136 243.293879 
L 266.992789 245.138269 
L 267.237442 245.649402 
L 267.482095 239.542645 
L 267.726748 239.106582 
L 267.971401 241.794441 
L 268.216054 240.62458 
L 268.460707 230.297557 
L 268.70536 225.93765 
L 268.950013 215.441821 
L 269.194666 226.178473 
L 269.439319 221.139082 
L 269.683972 225.399039 
L 269.928625 237.350251 
L 270.173278 229.289593 
L 270.417931 237.239187 
L 270.662584 232.855631 
L 270.907237 244.831697 
L 271.396543 231.877047 
L 271.885849 222.638441 
L 272.130502 222.966144 
L 272.375155 221.01926 
L 272.619808 205.857272 
L 272.864461 197.915794 
L 273.353767 206.667211 
L 273.59842 205.49111 
L 273.843073 201.422831 
L 274.087726 202.216326 
L 274.332379 209.889128 
L 274.577032 209.930051 
L 274.821685 213.191444 
L 275.066338 207.182281 
L 275.310991 209.128361 
L 275.555644 207.64684 
L 275.800297 221.482587 
L 276.04495 217.743511 
L 276.534256 204.981718 
L 277.023562 193.969641 
L 277.268215 204.757768 
L 277.512868 205.844524 
L 277.757521 204.939831 
L 278.002174 206.762447 
L 278.246827 207.279767 
L 278.49148 202.785227 
L 278.736133 194.985425 
L 278.980786 193.968837 
L 279.225439 197.540955 
L 279.470092 198.293205 
L 279.714745 199.945541 
L 279.959398 198.622729 
L 280.204051 193.504761 
L 280.448704 194.247048 
L 280.93801 201.470396 
L 281.182663 194.292684 
L 281.427316 195.022866 
L 281.671969 197.926775 
L 281.916622 194.07875 
L 282.161275 193.226496 
L 282.405928 193.879011 
L 282.650581 188.439713 
L 282.895234 190.632294 
L 283.139887 186.61699 
L 283.38454 186.319389 
L 283.629193 189.571462 
L 283.873846 186.713887 
L 284.118499 192.474621 
L 284.363152 193.592819 
L 284.607805 198.176114 
L 284.852458 188.406075 
L 285.097111 185.949156 
L 285.341764 188.454282 
L 285.586417 186.5465 
L 285.83107 180.880412 
L 286.075723 181.561048 
L 286.56503 190.62217 
L 286.809683 188.844387 
L 287.054336 183.609489 
L 287.298989 184.86797 
L 287.543642 184.016627 
L 287.788295 187.544393 
L 288.032948 201.76955 
L 288.277601 196.755334 
L 288.522254 200.828059 
L 288.766907 199.628069 
L 289.01156 199.452969 
L 289.500866 187.253703 
L 289.745519 188.393487 
L 289.990172 205.013482 
L 290.234825 201.889533 
L 290.479478 215.149577 
L 290.724131 207.856917 
L 290.968784 214.19282 
L 291.213437 227.823123 
L 291.45809 185.769878 
L 291.702743 180.893589 
L 291.947396 183.634878 
L 292.192049 178.144319 
L 292.436702 176.451381 
L 292.681355 173.905439 
L 292.926008 174.683507 
L 293.170661 174.486607 
L 293.415314 176.482287 
L 293.659967 173.285545 
L 293.90462 173.893388 
L 294.149273 172.621461 
L 294.393926 172.733624 
L 294.638579 170.947538 
L 294.883232 172.268261 
L 295.127885 171.883995 
L 295.372538 176.132837 
L 295.617191 173.156832 
L 296.106497 170.719571 
L 296.35115 173.150029 
L 296.595803 172.062523 
L 297.329762 165.041967 
L 297.574415 166.017471 
L 297.819068 169.220052 
L 298.063721 169.100337 
L 298.553027 158.54698 
L 298.79768 160.075048 
L 299.042333 157.674479 
L 299.286986 152.842969 
L 299.531639 154.952901 
L 300.020945 151.144514 
L 300.265598 156.745521 
L 300.510251 154.196741 
L 300.754904 153.621358 
L 300.999557 153.879268 
L 301.24421 152.650621 
L 301.488863 153.896944 
L 301.733516 152.955882 
L 301.978169 154.828258 
L 302.222822 154.60013 
L 302.467475 153.17469 
L 302.712128 153.328472 
L 302.956781 156.195475 
L 303.201434 156.714133 
L 303.446087 158.587367 
L 303.69074 152.921976 
L 303.935393 157.505646 
L 304.180046 158.82985 
L 304.669352 153.043726 
L 304.914005 156.032748 
L 305.158658 154.588882 
L 305.403311 151.67501 
L 305.647964 152.7773 
L 305.892617 152.132284 
L 306.381923 159.107257 
L 306.626576 158.79964 
L 306.871229 149.214235 
L 307.115882 159.783554 
L 307.360535 160.47367 
L 307.605188 165.466675 
L 307.849841 163.710478 
L 308.094494 170.779187 
L 308.339147 171.376692 
L 308.5838 169.537632 
L 308.828453 170.211947 
L 309.073107 169.316306 
L 309.31776 159.489167 
L 309.562413 161.916465 
L 309.807066 158.400215 
L 310.051719 164.966335 
L 310.296372 166.556805 
L 310.541025 177.246375 
L 310.785678 165.811572 
L 311.030331 169.221712 
L 311.274984 168.901079 
L 311.519637 162.636256 
L 311.76429 159.370309 
L 312.008943 164.902273 
L 312.253596 165.647238 
L 312.498249 164.057304 
L 312.987555 163.034663 
L 313.232208 168.164363 
L 313.476861 163.140612 
L 313.721514 166.951571 
L 313.966167 174.402029 
L 314.21082 164.602262 
L 314.455473 165.412361 
L 314.700126 167.315215 
L 314.944779 167.790916 
L 315.189432 183.918659 
L 315.923391 197.746854 
L 316.168044 197.355945 
L 316.412697 192.036416 
L 316.65735 190.474066 
L 316.902003 192.066197 
L 317.146656 187.494579 
L 317.391309 187.328638 
L 317.635962 188.486849 
L 317.880615 191.218014 
L 318.125268 185.271788 
L 318.614574 182.584384 
L 319.10388 179.7883 
L 319.348533 179.595363 
L 319.593186 184.675301 
L 320.082492 182.321439 
L 320.327145 185.681551 
L 320.571798 181.307691 
L 320.816451 181.245503 
L 321.061104 172.0449 
L 321.305757 170.044774 
L 321.55041 171.204216 
L 321.795063 176.342057 
L 322.039716 169.717445 
L 322.284369 169.99812 
L 322.529022 185.517271 
L 322.773675 189.916574 
L 323.507634 174.031529 
L 323.752287 171.192325 
L 323.99694 171.430256 
L 324.241593 170.106908 
L 324.486246 176.694936 
L 324.975552 173.503122 
L 325.220205 180.170424 
L 325.709511 175.500302 
L 326.198817 179.171352 
L 326.44347 167.980317 
L 326.688123 167.112851 
L 326.932776 170.393474 
L 327.177429 172.107516 
L 327.422082 172.769244 
L 327.666735 168.578304 
L 327.911388 166.943161 
L 328.156041 171.054987 
L 328.400694 182.549139 
L 328.645347 182.827403 
L 328.89 181.714615 
L 329.134653 184.525055 
L 329.379306 184.888592 
L 329.623959 185.834476 
L 329.868612 189.041181 
L 330.113265 186.254416 
L 330.357918 185.190853 
L 330.602571 191.849478 
L 330.847224 188.710103 
L 331.091877 192.033416 
L 331.33653 190.002598 
L 331.581184 193.904668 
L 331.825837 199.798348 
L 332.07049 190.800324 
L 332.315143 192.973033 
L 333.049102 203.195472 
L 333.293755 197.99239 
L 333.538408 201.580791 
L 333.783061 202.741733 
L 334.027714 210.184693 
L 334.272367 204.920227 
L 334.51702 202.671243 
L 334.761673 206.302334 
L 335.006326 202.998518 
L 335.250979 204.387428 
L 335.495632 205.116485 
L 335.740285 201.673992 
L 336.229591 186.324692 
L 336.474244 193.926254 
L 336.718897 195.578216 
L 336.96355 189.228547 
L 337.208203 189.135453 
L 337.452856 187.915216 
L 337.697509 184.372344 
L 337.942162 169.673309 
L 338.186815 168.042558 
L 338.431468 170.909347 
L 338.676121 163.076711 
L 339.41008 176.731198 
L 339.654733 174.542045 
L 339.899386 179.719524 
L 340.144039 180.760001 
L 340.388692 180.777463 
L 340.633345 181.267839 
L 340.877998 180.831776 
L 341.122651 179.12684 
L 341.367304 180.155372 
L 341.611957 174.751158 
L 342.101263 176.703399 
L 342.345916 180.509643 
L 342.590569 179.871913 
L 342.835222 180.43669 
L 343.079875 178.021658 
L 343.569181 182.503931 
L 343.813834 182.120093 
L 344.792446 165.169931 
L 345.037099 166.954302 
L 345.281752 165.620885 
L 345.771058 169.691842 
L 346.015711 159.312942 
L 346.260364 158.309746 
L 346.505017 155.736433 
L 346.74967 155.605791 
L 346.994323 157.623593 
L 347.728282 151.139747 
L 347.972935 145.972446 
L 348.217588 145.009583 
L 348.462241 146.129066 
L 348.951547 141.453267 
L 349.1962 141.4207 
L 349.440853 143.228211 
L 349.685506 142.806985 
L 350.174812 139.078836 
L 350.419465 134.989507 
L 350.664118 133.867774 
L 350.908771 136.524271 
L 351.153424 132.195297 
L 351.398077 132.354328 
L 351.887383 139.236475 
L 352.132036 135.110615 
L 352.376689 143.460142 
L 352.621342 143.341177 
L 352.865995 126.28769 
L 353.110648 117.7809 
L 353.355301 119.475123 
L 353.599954 119.668435 
L 353.844607 121.939112 
L 354.089261 120.775545 
L 354.333914 122.089091 
L 354.578567 121.955931 
L 354.82322 118.760742 
L 355.067873 110.24265 
L 355.312526 111.711477 
L 355.557179 107.064762 
L 355.801832 116.453535 
L 356.046485 114.682929 
L 356.291138 116.217104 
L 356.535791 112.827104 
L 356.780444 114.127044 
L 357.26975 109.399769 
L 357.514403 116.409023 
L 357.759056 141.974496 
L 358.003709 139.910093 
L 358.248362 139.722834 
L 358.493015 135.148109 
L 358.982321 144.848945 
L 359.471627 136.647896 
L 359.71628 133.22233 
L 359.960933 137.292858 
L 360.450239 141.210676 
L 360.694892 141.541486 
L 360.939545 140.538557 
L 361.184198 141.578874 
L 361.428851 156.313636 
L 361.673504 154.527551 
L 361.918157 151.25282 
L 362.407463 134.601919 
L 362.652116 134.465064 
L 362.896769 135.593867 
L 363.141422 137.821319 
L 363.630728 135.881934 
L 363.875381 130.71415 
L 364.120034 119.244531 
L 364.364687 116.767151 
L 364.60934 110.481759 
L 364.853993 110.294607 
L 365.098646 108.959421 
L 365.343299 105.286122 
L 365.587952 105.165925 
L 365.832605 102.714095 
L 366.077258 105.496574 
L 366.321911 99.694381 
L 366.566564 97.583056 
L 366.811217 97.473304 
L 367.05587 104.104611 
L 367.300523 105.718918 
L 367.545176 103.562331 
L 367.789829 103.17169 
L 368.034482 101.694668 
L 368.279135 110.677106 
L 368.523788 113.23992 
L 369.013094 108.342634 
L 369.257747 108.813728 
L 369.5024 120.119924 
L 369.747053 117.942662 
L 369.991706 122.163009 
L 370.236359 117.09855 
L 370.481012 118.735942 
L 370.725665 122.054542 
L 370.970318 119.872513 
L 371.214971 109.853294 
L 371.459624 108.035178 
L 371.704277 107.763823 
L 371.94893 116.426003 
L 372.193583 114.829212 
L 372.438236 111.142575 
L 372.682889 109.554087 
L 372.927542 110.848028 
L 373.172195 105.806602 
L 373.416848 108.56953 
L 373.661501 108.144234 
L 373.906154 104.907694 
L 374.640113 114.347459 
L 374.884766 112.6497 
L 375.129419 113.426536 
L 375.374072 115.829088 
L 375.618725 121.461698 
L 375.863378 119.210625 
L 376.108031 113.85644 
L 376.352684 114.902594 
L 376.597338 112.603046 
L 376.841991 115.466354 
L 377.086644 104.624395 
L 377.331297 79.213239 
L 377.57595 68.356711 
L 377.820603 65.872368 
L 378.065256 61.829264 
L 378.309909 68.180057 
L 378.799215 64.46696 
L 379.043868 63.286253 
L 379.533174 47.265423 
L 379.777827 52.249429 
L 380.02248 48.17424 
L 380.267133 47.190434 
L 380.511786 50.421725 
L 380.756439 58.893538 
L 381.001092 56.041854 
L 381.490398 45.867461 
L 381.490398 45.867461 
" style="fill:none;stroke:#1f77b4;stroke-linecap:square;stroke-width:1.5;"/>
   </g>
   <g id="line2d_32">
    <path clip-path="url(#pffcb059956)" d="M 56.835852 153.822626 
L 57.080505 149.469781 
L 57.325158 147.363567 
L 57.569811 147.78481 
L 57.814464 159.368991 
L 58.059117 147.503981 
L 58.30377 146.240252 
L 58.548423 149.820817 
L 58.793076 155.156562 
L 59.037729 150.73351 
L 59.527035 156.841534 
L 59.771688 153.822626 
L 60.016341 153.331175 
L 60.260994 162.668728 
L 60.505647 163.86225 
L 60.7503 166.670536 
L 60.994953 164.634529 
L 61.239606 171.304209 
L 61.484259 168.144887 
L 61.728912 171.02338 
L 61.973566 165.547222 
L 62.218219 165.477015 
L 62.462872 162.458107 
L 62.707525 162.317692 
L 62.952178 162.598521 
L 63.196831 161.334792 
L 63.441484 153.682211 
L 63.686137 152.839725 
L 63.93079 147.78481 
L 64.175443 153.47159 
L 64.420096 154.665111 
L 64.664749 152.278068 
L 64.909402 153.050347 
L 65.154055 146.801909 
L 65.643361 153.752418 
L 65.888014 150.944132 
L 66.132667 150.452682 
L 66.37732 145.959423 
L 66.621973 151.295168 
L 66.866626 146.310459 
L 67.111279 151.575996 
L 67.355932 150.101646 
L 67.600585 153.682211 
L 67.845238 154.103454 
L 68.089891 152.839725 
L 68.334544 152.488689 
L 68.82385 146.099838 
L 69.068503 144.55528 
L 69.313156 144.55528 
L 69.557809 148.135845 
L 69.802462 134.445449 
L 70.047115 142.729894 
L 70.291768 139.570571 
L 70.536421 127.424732 
L 71.025727 131.496748 
L 71.27038 134.585863 
L 71.759686 145.327559 
L 72.004339 146.170045 
L 72.248992 143.57238 
L 72.493645 144.274451 
L 72.738298 143.923416 
L 72.982951 144.765902 
L 73.227604 156.490498 
L 73.472257 162.107071 
L 73.71691 158.526505 
L 73.961563 156.771326 
L 74.206216 159.64982 
L 74.450869 165.82805 
L 74.695522 164.84515 
L 74.940175 166.951365 
L 75.184828 167.723644 
L 75.429481 183.16922 
L 75.674134 190.681386 
L 75.918787 193.770501 
L 76.16344 186.117921 
L 76.408093 188.785793 
L 76.652746 185.415849 
L 76.897399 179.869483 
L 77.142052 181.484248 
L 77.386705 184.573363 
L 77.631358 177.412232 
L 77.876011 173.972081 
L 78.120664 165.968465 
L 78.365317 170.461723 
L 78.60997 167.161987 
L 78.854623 169.05758 
L 79.343929 166.179086 
L 79.588582 164.985564 
L 80.077888 187.522064 
L 80.322541 187.451857 
L 80.567194 188.083721 
L 80.811847 187.030614 
L 81.0565 184.783984 
L 81.301153 192.506772 
L 81.545806 188.715586 
L 81.790459 191.243043 
L 82.035112 190.892008 
L 82.279765 194.612987 
L 82.524418 195.455473 
L 82.769071 198.404174 
L 83.013724 188.294343 
L 83.258377 186.047713 
L 83.50303 189.698486 
L 83.747683 188.996414 
L 83.992336 192.857808 
L 84.236989 190.189936 
L 84.481643 190.189936 
L 84.726296 190.611179 
L 84.970949 191.383458 
L 85.215602 193.489673 
L 85.460255 188.224135 
L 85.704908 185.696678 
L 85.949561 188.856 
L 86.194214 187.451857 
L 86.68352 183.239427 
L 86.928173 181.414041 
L 87.172826 187.241235 
L 87.417479 186.328542 
L 87.662132 179.93969 
L 87.906785 182.958598 
L 88.151438 180.009897 
L 88.396091 184.713777 
L 88.885397 177.412232 
L 89.13005 170.672345 
L 89.374703 172.357317 
L 89.619356 172.006281 
L 89.864009 170.321309 
L 90.353315 173.059388 
L 90.597968 184.011706 
L 91.087274 189.768693 
L 91.331927 180.782176 
L 92.310539 174.323117 
L 92.555192 169.619237 
L 92.799845 175.306017 
L 93.044498 170.110687 
L 93.289151 156.420291 
L 93.533804 154.45449 
L 94.02311 157.613812 
L 94.512416 160.071063 
L 94.757069 153.47159 
L 95.001722 153.612004 
L 95.491028 164.704736 
L 95.735681 163.792043 
L 95.980334 161.053963 
L 96.224987 160.63272 
L 96.46964 157.262777 
L 96.958946 146.170045 
L 97.203599 150.522889 
L 97.448252 146.801909 
L 97.692905 145.678595 
L 98.182211 136.481456 
L 98.671517 141.817201 
L 98.91617 137.955807 
L 99.405476 122.650645 
L 99.650129 129.109704 
L 99.894782 127.214111 
L 100.139435 121.527331 
L 100.384088 123.001681 
L 100.873394 119.280701 
L 101.118047 128.126804 
L 101.3627 122.580438 
L 101.607353 123.844167 
L 101.852006 115.980965 
L 102.096659 123.352717 
L 102.585965 117.034072 
L 102.830618 122.650645 
L 103.075271 125.669553 
L 103.319924 125.24831 
L 103.564577 118.157387 
L 103.80923 116.893658 
L 104.053883 116.893658 
L 104.298536 120.684845 
L 104.543189 122.440024 
L 104.787842 121.316709 
L 105.032495 118.999873 
L 105.277148 124.75686 
L 105.521801 118.999873 
L 105.766454 123.914374 
L 106.011107 122.510231 
L 106.745066 130.303226 
L 107.234373 136.411249 
L 107.479026 127.98639 
L 107.968332 135.217727 
L 108.212985 143.151137 
L 108.457638 145.257352 
L 108.702291 140.272643 
L 108.946944 140.623679 
L 109.191597 143.783001 
L 109.43625 135.990006 
L 109.680903 136.692078 
L 109.925556 142.729894 
L 110.170209 142.378858 
L 110.414862 147.223152 
L 110.659515 146.801909 
L 110.904168 145.678595 
L 111.148821 145.678595 
L 111.393474 140.483265 
L 111.88278 156.069255 
L 112.127433 159.368991 
L 112.372086 150.803718 
L 112.616739 148.346467 
L 112.861392 142.308651 
L 113.106045 144.906316 
L 113.350698 145.748802 
L 113.595351 150.522889 
L 113.840004 149.820817 
L 114.573963 131.917991 
L 114.818616 131.917991 
L 115.063269 128.47784 
L 115.307922 127.354525 
L 115.797228 131.777576 
L 116.041881 127.284318 
L 116.286534 130.092604 
L 116.531187 128.47784 
L 116.77584 125.388725 
L 117.020493 124.897274 
L 117.265146 119.842359 
L 117.509799 124.26541 
L 117.999105 125.809968 
L 118.243758 123.142095 
L 118.488411 125.178103 
L 118.733064 121.667745 
L 118.977717 122.861267 
L 119.22237 120.263602 
L 119.467023 120.684845 
L 119.711676 130.513847 
L 119.956329 128.056597 
L 120.200982 130.162812 
L 120.445635 134.726277 
L 120.690288 130.44364 
L 120.934941 132.971098 
L 121.179594 149.469781 
L 122.158206 158.596713 
L 122.402859 154.033247 
L 122.647512 155.156562 
L 122.892165 155.226769 
L 123.136818 161.966656 
L 123.381471 162.107071 
L 123.626124 164.283493 
L 123.870777 162.247485 
L 124.11543 156.350083 
L 124.360083 161.826242 
L 124.604736 160.843342 
L 124.849389 161.826242 
L 125.094042 160.773135 
L 125.338695 155.086354 
L 125.583348 152.699311 
L 125.828001 151.435582 
L 126.072654 151.786618 
L 126.317307 146.380666 
L 126.56196 146.801909 
L 126.806613 144.55528 
L 127.051266 135.14752 
L 127.295919 136.411249 
L 127.540572 142.940515 
L 127.785225 135.849592 
L 128.029878 139.289743 
L 128.274531 147.223152 
L 128.519184 150.031439 
L 128.763837 150.73351 
L 129.253143 156.981948 
L 129.497797 155.999048 
L 130.231756 167.793851 
L 130.965715 148.416674 
L 131.210368 150.312267 
L 131.455021 149.680403 
L 131.699674 147.012531 
L 131.944327 142.238444 
L 132.18898 140.062022 
L 132.433633 140.623679 
L 132.678286 142.659687 
L 132.922939 137.394149 
L 133.167592 138.447257 
L 133.412245 136.060213 
L 133.656898 137.534564 
L 133.901551 129.881983 
L 134.146204 129.741569 
L 134.390857 132.479648 
L 134.63551 131.847784 
L 134.880163 130.092604 
L 135.124816 132.971098 
L 135.614122 123.28251 
L 135.858775 128.197011 
L 136.103428 125.599346 
L 136.348081 118.648837 
L 136.592734 121.667745 
L 136.837387 126.371625 
L 137.08204 118.08718 
L 137.326693 115.980965 
L 137.571346 115.489515 
L 137.815999 115.419307 
L 138.060652 119.421116 
L 138.305305 118.508423 
L 138.549958 110.15377 
L 138.794611 107.485898 
L 139.039264 106.713619 
L 139.283917 102.360775 
L 139.52857 104.326576 
L 139.773223 102.079946 
L 140.017876 106.081755 
L 140.262529 112.540814 
L 140.507182 112.611021 
L 140.751835 108.890041 
L 141.241141 116.893658 
L 141.485794 116.823451 
L 141.9751 122.861267 
L 142.464406 129.671361 
L 142.709059 126.933282 
L 142.953712 129.671361 
L 143.198365 126.512039 
L 143.443018 124.967482 
L 143.687671 124.195203 
L 143.932324 120.404016 
L 144.176977 120.333809 
L 144.666283 119.56153 
L 145.155589 118.57863 
L 145.400242 123.422924 
L 145.644895 121.106088 
L 146.134201 122.440024 
L 146.378854 127.424732 
L 146.623507 128.407633 
L 146.86816 124.897274 
L 147.602119 136.902699 
L 147.846772 138.096221 
L 148.091425 146.801909 
L 148.336078 147.574188 
L 148.580731 151.786618 
L 148.825384 150.873925 
L 149.070037 143.642587 
L 149.559343 153.260968 
L 149.803996 151.365375 
L 150.048649 162.036864 
L 150.293302 164.84515 
L 150.537955 159.930649 
L 150.782608 159.368991 
L 151.271914 153.401383 
L 151.76122 147.925224 
L 152.005874 142.870308 
L 152.250527 142.238444 
L 152.49518 145.608387 
L 152.739833 159.368991 
L 152.984486 158.386091 
L 153.229139 158.035055 
L 153.473792 158.456298 
L 153.963098 147.223152 
L 154.207751 149.329367 
L 154.452404 149.25916 
L 154.697057 147.293359 
L 154.94171 143.431965 
L 155.186363 146.661495 
L 155.431016 145.959423 
L 155.675669 149.048538 
L 156.164975 146.801909 
L 156.409628 140.693886 
L 156.654281 147.995431 
L 156.898934 150.593096 
L 157.143587 148.065638 
L 157.38824 148.76771 
L 157.632893 152.558897 
L 157.877546 139.430157 
L 158.122199 137.183528 
L 158.366852 132.479648 
L 158.611505 131.075505 
L 158.856158 135.990006 
L 159.100811 136.832492 
L 159.345464 136.200628 
L 159.590117 133.322134 
L 159.83477 134.585863 
L 160.324076 127.565147 
L 160.568729 130.022397 
L 160.813382 131.005298 
L 161.058035 123.212302 
L 161.302688 124.967482 
L 161.547341 133.18172 
L 162.2813 129.46074 
L 162.525953 131.075505 
L 162.770606 128.758668 
L 163.015259 127.98639 
L 163.749218 122.440024 
L 163.993871 118.57863 
L 164.238524 111.698328 
L 164.483177 113.453507 
L 164.72783 112.470607 
L 164.972483 113.3833 
L 165.461789 122.299609 
L 165.706442 125.669553 
L 165.951095 124.616446 
L 166.440401 117.946765 
L 166.685054 116.402208 
L 166.929707 117.244694 
L 167.17436 136.692078 
L 167.419013 131.637162 
L 167.663666 130.864883 
L 168.152972 139.079121 
L 168.397625 140.132229 
L 168.642278 141.746994 
L 168.886931 140.693886 
L 169.131584 143.010722 
L 169.62089 138.236635 
L 169.865543 134.585863 
L 170.110196 133.462548 
L 170.354849 134.445449 
L 170.844155 128.407633 
L 171.333461 132.971098 
L 171.578114 134.796484 
L 172.312073 144.906316 
L 172.556726 143.642587 
L 172.801379 145.397766 
L 173.046032 139.500364 
L 173.290685 137.534564 
L 173.535338 141.746994 
L 173.779991 138.447257 
L 174.269298 142.027822 
L 174.513951 147.082738 
L 174.758604 142.940515 
L 175.003257 143.783001 
L 175.24791 143.853208 
L 175.492563 141.395958 
L 175.737216 140.8343 
L 175.981869 138.026014 
L 176.226522 133.251927 
L 176.471175 132.269026 
L 176.715828 132.549855 
L 176.960481 130.724469 
L 177.205134 134.726277 
L 177.449787 132.339234 
L 177.69444 134.585863 
L 177.939093 134.305034 
L 178.428399 132.760477 
L 178.673052 134.234827 
L 178.917705 133.883791 
L 179.162358 137.323942 
L 179.407011 142.659687 
L 179.651664 144.204244 
L 179.896317 139.500364 
L 180.14097 152.769518 
L 180.385623 157.473398 
L 180.630276 157.052155 
L 180.874929 157.543605 
L 181.119582 158.386091 
L 181.364235 150.312267 
L 181.608888 152.278068 
L 181.853541 150.663303 
L 182.098194 150.522889 
L 182.342847 150.803718 
L 182.5875 153.47159 
L 182.832153 148.135845 
L 183.076806 151.646203 
L 183.321459 147.012531 
L 183.566112 146.872116 
L 183.810765 145.257352 
L 184.055418 140.202436 
L 184.300071 139.149328 
L 184.544724 139.8514 
L 184.789377 142.098029 
L 185.03403 142.378858 
L 185.278683 140.413057 
L 185.523336 142.729894 
L 185.767989 139.008914 
L 186.012642 137.534564 
L 186.257295 135.007106 
L 186.501948 130.724469 
L 186.746601 134.726277 
L 186.991254 133.111512 
L 187.48056 138.8685 
L 187.969866 141.185336 
L 188.214519 136.13042 
L 188.459172 136.481456 
L 188.703825 135.498556 
L 188.948478 133.111512 
L 189.193131 138.657878 
L 189.437784 140.553472 
L 189.682437 132.128612 
L 189.92709 136.902699 
L 190.171743 138.236635 
L 190.416396 138.37705 
L 190.661049 135.077313 
L 190.905702 137.183528 
L 191.395008 131.286126 
L 191.639661 131.426541 
L 191.884314 128.758668 
L 192.128967 123.844167 
L 192.37362 125.107896 
L 192.618273 124.405824 
L 193.107579 127.565147 
L 193.352232 158.105262 
L 193.596885 151.435582 
L 193.841538 151.716411 
L 194.330844 135.358142 
L 194.575497 136.060213 
L 194.82015 137.745185 
L 195.064803 136.341042 
L 195.309456 134.234827 
L 195.554109 134.796484 
L 195.798762 137.464357 
L 196.043415 132.409441 
L 196.288068 136.200628 
L 196.532721 135.217727 
L 196.777375 125.529139 
L 197.022028 123.563338 
L 197.266681 125.73976 
L 197.755987 114.787443 
L 198.00064 118.789251 
L 198.489946 92.461565 
L 198.734599 92.461565 
L 198.979252 86.002506 
L 199.223905 82.772977 
L 199.713211 73.084388 
L 199.957864 76.524539 
L 200.202517 71.961073 
L 200.44717 76.173503 
L 200.691823 67.186986 
L 200.936476 63.3958 
L 201.425782 68.801751 
L 201.670435 81.579455 
L 201.915088 76.805368 
L 202.404394 84.949399 
L 202.649047 82.983598 
L 202.8937 88.108721 
L 203.138353 85.862092 
L 203.383006 80.666762 
L 203.627659 85.16002 
L 203.872312 87.547064 
L 204.361618 66.625329 
L 204.606271 73.224802 
L 204.850924 63.606421 
L 205.095577 61.640621 
L 205.34023 67.186986 
L 205.584883 65.221186 
L 205.829536 64.799943 
L 206.074189 60.868342 
L 206.563495 70.416516 
L 206.808148 68.59113 
L 207.052801 62.974557 
L 207.297454 45.914216 
L 207.542107 38.121221 
L 207.78676 44.861109 
L 208.031413 34.751277 
L 208.276066 56.866533 
L 208.520719 61.429999 
L 208.765372 60.025856 
L 209.010025 62.693728 
L 209.254678 67.748644 
L 209.743984 51.460582 
L 209.988637 52.232861 
L 210.23329 52.443482 
L 210.477943 54.268868 
L 210.722596 60.938549 
L 210.967249 62.974557 
L 211.211902 76.945782 
L 211.456555 69.644237 
L 211.701208 67.678437 
L 211.945861 60.65772 
L 212.190514 59.604613 
L 212.67982 64.097871 
L 212.924473 64.027664 
L 213.169126 64.519114 
L 213.658432 72.452524 
L 213.903085 68.59113 
L 214.392391 91.408458 
L 214.637044 79.754069 
L 215.12635 78.069097 
L 215.371003 83.545255 
L 215.615656 84.457948 
L 215.860309 83.264427 
L 216.104962 84.879191 
L 216.349615 88.038514 
L 216.594268 88.459757 
L 217.57288 97.797309 
L 217.817533 104.888233 
L 218.062186 96.884616 
L 218.551492 89.653279 
L 218.796145 96.673995 
L 219.040798 94.216744 
L 219.285452 97.727102 
L 219.530105 88.249135 
L 219.774758 88.178928 
L 220.019411 88.881 
L 220.264064 104.045747 
L 220.508717 97.586688 
L 220.75337 98.639795 
L 220.998023 93.795501 
L 221.242676 94.56778 
L 221.487329 105.44989 
L 221.731982 107.345484 
L 221.976635 102.922432 
L 222.221288 107.836934 
L 222.465941 104.677611 
L 222.710594 104.537197 
L 222.955247 107.766727 
L 223.1999 108.539005 
L 223.444553 106.502998 
L 223.689206 114.085371 
L 224.178512 121.878366 
L 224.423165 120.333809 
L 224.667818 126.512039 
L 224.912471 121.948574 
L 225.157124 114.927857 
L 225.401777 112.189778 
L 225.64643 114.3662 
L 226.135736 125.809968 
L 226.380389 123.212302 
L 226.625042 117.736144 
L 226.869695 117.525522 
L 227.114348 125.178103 
L 227.359001 126.512039 
L 227.603654 120.404016 
L 228.09296 124.476031 
L 228.337613 116.332 
L 228.582266 122.018781 
L 228.826919 119.631737 
L 229.071572 114.998064 
L 229.805531 140.062022 
L 230.050184 137.253735 
L 230.294837 140.272643 
L 230.53949 145.608387 
L 230.784143 145.187144 
L 231.028796 146.942324 
L 231.518102 148.908124 
L 231.762755 147.78481 
L 232.252061 151.505789 
L 232.741367 161.826242 
L 232.98602 161.756035 
L 233.230673 158.105262 
L 233.719979 165.3366 
L 233.964632 165.196186 
L 234.209285 162.317692 
L 234.943244 159.860442 
L 235.187897 160.492306 
L 235.43255 162.809142 
L 235.677203 163.581421 
L 235.921856 167.021572 
L 236.166509 168.144887 
L 236.411162 168.07468 
L 236.655815 169.54903 
L 236.900468 166.600329 
L 237.145121 171.093588 
L 237.389774 162.107071 
L 237.87908 155.016147 
L 238.123733 159.15837 
L 238.613039 152.839725 
L 238.857692 155.577805 
L 239.102345 152.909932 
L 239.346998 154.524697 
L 239.836304 159.017956 
L 240.080957 161.264585 
L 240.32561 159.228577 
L 240.570263 163.019764 
L 240.814916 171.093588 
L 241.059569 170.04048 
L 241.304222 164.985564 
L 241.548875 166.530122 
L 241.793529 163.651628 
L 242.038182 167.864058 
L 242.282835 163.792043 
L 242.527488 164.002664 
L 242.772141 157.262777 
L 243.016794 161.756035 
L 243.261447 170.251102 
L 243.5061 172.006281 
L 243.750753 170.04048 
L 243.995406 163.932457 
L 244.240059 164.634529 
L 244.484712 167.934265 
L 244.974018 188.715586 
L 245.218671 194.261951 
L 245.463324 195.455473 
L 245.707977 224.73186 
L 245.95263 212.726435 
L 246.197283 221.291709 
L 246.686589 208.233177 
L 247.175895 224.310617 
L 247.420548 218.764251 
L 247.665201 217.851558 
L 247.909854 222.415024 
L 248.39916 202.827225 
L 248.643813 222.415024 
L 248.888466 221.642745 
L 249.133119 218.343008 
L 249.377772 219.53653 
L 249.867078 217.991973 
L 250.111731 224.661653 
L 250.356384 224.661653 
L 250.601037 228.312425 
L 250.84569 224.872275 
L 251.090343 227.399732 
L 251.334996 222.415024 
L 251.579649 225.71476 
L 251.824302 224.661653 
L 252.068955 219.887566 
L 252.313608 217.57073 
L 252.558261 224.591446 
L 252.802914 214.411407 
L 253.536873 207.250277 
L 253.781526 202.265568 
L 254.026179 204.161161 
L 254.270832 204.512197 
L 254.515485 204.582404 
L 254.760138 253.095554 
L 255.004791 254.710319 
L 255.249444 259.484406 
L 255.494097 258.992956 
L 255.73875 259.414199 
L 255.983403 258.431298 
L 256.228056 256.676119 
L 256.472709 262.222485 
L 256.962015 267.417815 
L 257.206668 266.996572 
L 257.451321 266.926365 
L 257.695974 270.01548 
L 257.940627 268.04968 
L 258.18528 260.958756 
L 258.429933 261.450206 
L 258.674586 258.571713 
L 258.919239 261.520414 
L 259.163892 262.85435 
L 259.408545 261.520414 
L 259.897851 273.876874 
L 260.142504 276.334125 
L 260.387157 255.623012 
L 260.63181 250.708511 
L 260.876463 243.126137 
L 261.121116 244.109037 
L 261.365769 248.953331 
L 261.610422 251.340375 
L 261.855075 250.989339 
L 262.099728 247.900224 
L 262.833687 260.748135 
L 263.07834 260.186478 
L 263.567646 254.008247 
L 263.812299 250.497889 
L 264.056952 256.184669 
L 264.546259 257.65902 
L 264.790912 255.903841 
L 265.035565 246.496081 
L 265.280218 250.21706 
L 265.524871 248.672503 
L 265.769524 258.501506 
L 266.014177 259.273784 
L 266.503483 243.968623 
L 266.992789 246.917324 
L 267.237442 243.968623 
L 267.482095 239.33495 
L 267.726748 241.651786 
L 267.971401 247.478981 
L 268.216054 236.737285 
L 268.70536 230.137812 
L 268.950013 215.3241 
L 269.194666 224.591446 
L 269.439319 220.238602 
L 269.683972 224.802067 
L 269.928625 236.947907 
L 270.173278 240.107229 
L 270.417931 235.192727 
L 270.662584 238.35205 
L 270.907237 244.109037 
L 271.15189 233.858791 
L 271.396543 231.471748 
L 271.885849 222.204402 
L 272.130502 222.695852 
L 272.375155 217.640937 
L 272.864461 199.73811 
L 273.109114 199.667903 
L 273.353767 210.550013 
L 273.59842 202.827225 
L 273.843073 205.354683 
L 274.087726 212.445607 
L 274.332379 207.531105 
L 274.577032 215.745343 
L 274.821685 212.234985 
L 275.066338 204.582404 
L 275.310991 208.16297 
L 275.555644 224.73186 
L 275.800297 223.678753 
L 276.289603 209.988356 
L 276.534256 207.531105 
L 276.778909 198.685003 
L 277.023562 194.261951 
L 277.268215 204.44199 
L 277.512868 204.301576 
L 278.002174 209.216077 
L 278.246827 207.882141 
L 278.49148 204.512197 
L 278.736133 196.719202 
L 278.980786 196.297959 
L 279.225439 197.982931 
L 279.470092 196.438373 
L 279.714745 200.791218 
L 279.959398 201.844325 
L 280.204051 195.244852 
L 280.448704 196.087338 
L 280.93801 201.633704 
L 281.182663 194.823609 
L 281.427316 194.753402 
L 281.671969 198.825417 
L 281.916622 195.315059 
L 282.405928 192.506772 
L 282.650581 189.558072 
L 282.895234 194.683194 
L 283.139887 187.802892 
L 283.38454 187.592271 
L 283.629193 189.909107 
L 283.873846 188.996414 
L 284.363152 194.753402 
L 284.607805 197.842517 
L 284.852458 187.732685 
L 285.097111 186.749785 
L 285.341764 188.224135 
L 285.586417 187.451857 
L 285.83107 182.256527 
L 286.075723 182.467148 
L 286.320376 184.503156 
L 286.56503 189.066621 
L 286.809683 190.962215 
L 287.054336 182.888391 
L 287.298989 184.362741 
L 287.788295 189.698486 
L 288.032948 204.512197 
L 288.277601 202.827225 
L 288.522254 202.897432 
L 288.766907 202.054947 
L 289.01156 202.47619 
L 289.256213 193.06843 
L 289.500866 188.36455 
L 289.990172 205.003647 
L 290.234825 205.495098 
L 290.479478 216.868658 
L 290.724131 208.443798 
L 290.968784 229.786776 
L 291.213437 194.121537 
L 291.45809 185.486056 
L 291.702743 183.590463 
L 291.947396 183.239427 
L 292.436702 175.937882 
L 292.681355 174.74436 
L 292.926008 176.710161 
L 293.170661 177.271818 
L 293.415314 177.271818 
L 293.659967 176.780368 
L 293.90462 170.110687 
L 294.393926 174.814567 
L 294.638579 171.234002 
L 294.883232 173.76146 
L 295.127885 173.76146 
L 295.372538 176.148503 
L 295.617191 172.357317 
L 295.861844 173.76146 
L 296.106497 173.410424 
L 296.35115 171.585038 
L 296.595803 174.112496 
L 297.085109 165.3366 
L 297.329762 176.920782 
L 297.574415 169.268201 
L 297.819068 168.425715 
L 298.063721 169.338409 
L 298.553027 158.807334 
L 298.79768 161.475206 
L 299.286986 154.594904 
L 299.531639 153.96304 
L 300.020945 155.788426 
L 300.265598 157.964848 
L 300.510251 154.173661 
L 300.754904 152.839725 
L 300.999557 155.226769 
L 301.24421 155.226769 
L 301.488863 153.541797 
L 301.733516 156.701119 
L 301.978169 154.384283 
L 302.222822 155.858633 
L 302.467475 154.735319 
L 302.712128 155.086354 
L 302.956781 158.737127 
L 303.201434 158.526505 
L 303.446087 161.053963 
L 303.69074 154.805526 
L 303.935393 159.720027 
L 304.180046 161.12417 
L 304.669352 152.699311 
L 304.914005 157.192569 
L 305.158658 155.718219 
L 305.403311 149.188953 
L 305.647964 154.103454 
L 305.892617 154.033247 
L 306.13727 162.598521 
L 306.381923 166.810951 
L 306.626576 146.099838 
L 307.115882 159.298784 
L 307.360535 160.492306 
L 307.605188 166.951365 
L 307.849841 164.143079 
L 308.094494 170.882966 
L 308.339147 172.77856 
L 308.5838 168.425715 
L 308.828453 170.53193 
L 309.073107 169.759652 
L 309.31776 159.790234 
L 309.562413 161.404999 
L 309.807066 159.720027 
L 310.051719 167.513022 
L 310.541025 175.23581 
L 310.785678 167.864058 
L 311.274984 170.391516 
L 311.519637 164.494114 
L 311.76429 162.247485 
L 312.008943 165.687636 
L 312.253596 165.477015 
L 312.742902 162.528314 
L 313.232208 167.232194 
L 313.476861 165.196186 
L 313.721514 169.759652 
L 313.966167 170.251102 
L 314.21082 167.934265 
L 314.455473 166.740744 
L 314.700126 167.653437 
L 315.189432 185.977506 
L 315.434085 189.558072 
L 315.678738 195.174645 
L 315.923391 196.648995 
L 316.168044 200.510389 
L 316.412697 191.874908 
L 316.65735 190.260143 
L 316.902003 190.8218 
L 317.146656 186.258335 
L 317.391309 187.943307 
L 317.635962 192.436565 
L 318.369921 185.696678 
L 318.859227 182.186319 
L 319.10388 180.360933 
L 319.348533 180.92259 
L 319.593186 186.398749 
L 319.837839 183.379841 
L 320.082492 182.818184 
L 320.327145 183.450048 
L 320.571798 182.818184 
L 320.816451 185.696678 
L 321.061104 172.006281 
L 321.305757 172.989181 
L 321.55041 172.638145 
L 321.795063 175.23581 
L 322.039716 168.495923 
L 322.284369 187.241235 
L 322.529022 188.294343 
L 322.773675 190.540972 
L 323.018328 182.67777 
L 323.262981 179.237619 
L 323.507634 172.989181 
L 323.752287 174.25291 
L 323.99694 171.093588 
L 324.241593 174.323117 
L 324.486246 179.026997 
L 324.975552 174.463531 
L 325.220205 180.711969 
L 325.464858 181.273626 
L 325.709511 177.412232 
L 326.198817 180.290726 
L 326.44347 169.05758 
L 326.688123 167.442815 
L 326.932776 172.216902 
L 327.177429 173.27001 
L 327.422082 174.884774 
L 327.666735 168.636337 
L 327.911388 169.127787 
L 328.156041 172.076488 
L 328.400694 184.783984 
L 328.645347 185.696678 
L 328.89 181.203419 
L 329.134653 186.328542 
L 329.379306 186.960406 
L 329.623959 186.117921 
L 329.868612 190.189936 
L 330.113265 191.804701 
L 330.357918 191.945115 
L 330.602571 192.506772 
L 330.847224 190.33035 
L 331.091877 193.419465 
L 331.33653 192.296151 
L 331.581184 194.964023 
L 331.825837 194.191744 
L 332.07049 195.666095 
L 332.315143 193.910916 
L 332.559796 196.648995 
L 332.804449 201.774118 
L 333.049102 202.616604 
L 333.293755 198.193553 
L 333.783061 202.827225 
L 334.027714 211.462706 
L 334.272367 207.390691 
L 334.51702 205.635512 
L 334.761673 206.477998 
L 335.006326 203.108054 
L 335.250979 206.267376 
L 335.495632 204.93344 
L 335.740285 202.616604 
L 335.984938 196.227752 
L 336.229591 193.06843 
L 336.474244 192.57698 
L 336.718897 195.666095 
L 336.96355 196.508581 
L 337.208203 190.119729 
L 337.452856 188.996414 
L 337.697509 172.287109 
L 337.942162 164.985564 
L 338.186815 166.740744 
L 338.431468 171.374416 
L 338.676121 164.774943 
L 338.920774 174.674153 
L 339.165427 173.972081 
L 339.41008 177.833475 
L 339.654733 175.095396 
L 339.899386 180.782176 
L 340.144039 181.484248 
L 340.388692 182.958598 
L 340.633345 182.537355 
L 340.877998 180.782176 
L 341.122651 180.852383 
L 341.367304 175.025189 
L 341.85661 180.009897 
L 342.101263 176.710161 
L 342.345916 179.799276 
L 342.590569 179.588654 
L 342.835222 180.571555 
L 343.079875 179.378033 
L 343.324528 180.852383 
L 343.569181 184.15212 
L 343.813834 185.486056 
L 344.058487 178.324925 
L 344.30314 175.937882 
L 344.792446 166.179086 
L 345.037099 168.56613 
L 345.281752 169.268201 
L 345.526405 168.846958 
L 345.771058 166.038672 
L 346.015711 159.790234 
L 346.260364 159.720027 
L 346.505017 155.858633 
L 346.994323 158.596713 
L 347.238976 155.92884 
L 347.483629 151.997239 
L 347.728282 151.716411 
L 348.217588 145.116937 
L 348.462241 145.889216 
L 348.951547 141.887408 
L 349.1962 143.993623 
L 349.440853 145.04673 
L 349.685506 143.57238 
L 349.930159 142.870308 
L 350.419465 135.709177 
L 350.664118 135.14752 
L 350.908771 135.568763 
L 351.153424 136.341042 
L 351.398077 136.200628 
L 351.64273 139.008914 
L 351.887383 140.062022 
L 352.132036 137.323942 
L 352.376689 145.327559 
L 352.865995 124.827067 
L 353.110648 120.05298 
L 353.355301 120.54443 
L 353.599954 120.684845 
L 353.844607 122.088988 
L 354.089261 122.018781 
L 354.333914 124.616446 
L 354.82322 120.123187 
L 355.067873 111.979156 
L 355.557179 114.576821 
L 355.801832 117.034072 
L 356.046485 113.523714 
L 356.291138 117.385108 
L 356.535791 114.787443 
L 356.780444 116.121379 
L 357.025097 113.944957 
L 357.26975 116.332 
L 357.514403 153.050347 
L 357.759056 143.010722 
L 358.003709 139.500364 
L 358.248362 141.466165 
L 358.493015 138.447257 
L 358.737668 141.466165 
L 358.982321 146.02963 
L 359.471627 136.902699 
L 359.71628 136.902699 
L 360.205586 139.781193 
L 360.694892 143.221344 
L 360.939545 141.115129 
L 361.184198 144.625487 
L 361.428851 157.052155 
L 361.673504 155.086354 
L 361.918157 147.995431 
L 362.16281 136.762285 
L 362.407463 136.621871 
L 362.652116 136.902699 
L 363.141422 138.798293 
L 363.386075 139.781193 
L 363.630728 138.447257 
L 364.120034 120.755052 
L 364.364687 119.56153 
L 364.60934 111.979156 
L 364.853993 111.838742 
L 365.098646 108.819834 
L 365.343299 108.18797 
L 365.587952 101.167253 
L 365.832605 103.133054 
L 366.077258 106.573205 
L 366.321911 102.360775 
L 366.811217 103.062847 
L 367.05587 105.44989 
L 367.300523 106.432791 
L 367.545176 104.747819 
L 367.789829 101.658703 
L 368.034482 118.648837 
L 368.279135 113.242885 
L 368.523788 116.753243 
L 369.013094 108.117762 
L 369.257747 106.292376 
L 369.5024 121.106088 
L 369.747053 121.737952 
L 369.991706 126.933282 
L 370.236359 118.859458 
L 370.725665 122.440024 
L 370.970318 124.967482 
L 371.214971 111.417499 
L 371.459624 108.328384 
L 371.94893 116.542622 
L 372.193583 115.489515 
L 372.682889 112.049364 
L 372.927542 111.908949 
L 373.172195 109.100663 
L 373.661501 109.381491 
L 373.906154 106.573205 
L 374.39546 118.157387 
L 374.640113 117.314901 
L 374.884766 114.647029 
L 375.129419 117.595729 
L 375.374072 118.648837 
L 375.618725 125.318517 
L 375.863378 118.789251 
L 376.108031 115.700136 
L 376.352684 116.402208 
L 376.597338 119.140287 
L 376.841991 114.085371 
L 377.331297 78.420132 
L 377.57595 70.55693 
L 378.065256 64.3787 
L 378.309909 71.961073 
L 378.554562 67.397608 
L 378.799215 67.397608 
L 379.043868 64.238286 
L 379.288521 59.042955 
L 379.533174 49.564988 
L 379.777827 55.46239 
L 380.02248 49.77561 
L 380.267133 53.426382 
L 380.511786 54.830526 
L 380.756439 62.412899 
L 381.001092 60.938549 
L 381.490398 47.248152 
L 381.490398 47.248152 
" style="fill:none;stroke:#ff7f0e;stroke-linecap:square;stroke-width:1.5;"/>
   </g>
   <g id="patch_3">
    <path d="M 40.603125 288.430125 
L 40.603125 22.318125 
" style="fill:none;stroke:#000000;stroke-linecap:square;stroke-linejoin:miter;stroke-width:0.8;"/>
   </g>
   <g id="patch_4">
    <path d="M 397.723125 288.430125 
L 397.723125 22.318125 
" style="fill:none;stroke:#000000;stroke-linecap:square;stroke-linejoin:miter;stroke-width:0.8;"/>
   </g>
   <g id="patch_5">
    <path d="M 40.603125 288.430125 
L 397.723125 288.430125 
" style="fill:none;stroke:#000000;stroke-linecap:square;stroke-linejoin:miter;stroke-width:0.8;"/>
   </g>
   <g id="patch_6">
    <path d="M 40.603125 22.318125 
L 397.723125 22.318125 
" style="fill:none;stroke:#000000;stroke-linecap:square;stroke-linejoin:miter;stroke-width:0.8;"/>
   </g>
   <g id="text_18">
    <!-- Training: WMT -->
    <defs>
     <path d="M -0.296875 72.90625 
L 61.375 72.90625 
L 61.375 64.59375 
L 35.5 64.59375 
L 35.5 0 
L 25.59375 0 
L 25.59375 64.59375 
L -0.296875 64.59375 
z
" id="DejaVuSans-84"/>
     <path d="M 54.890625 33.015625 
L 54.890625 0 
L 45.90625 0 
L 45.90625 32.71875 
Q 45.90625 40.484375 42.875 44.328125 
Q 39.84375 48.1875 33.796875 48.1875 
Q 26.515625 48.1875 22.3125 43.546875 
Q 18.109375 38.921875 18.109375 30.90625 
L 18.109375 0 
L 9.078125 0 
L 9.078125 54.6875 
L 18.109375 54.6875 
L 18.109375 46.1875 
Q 21.34375 51.125 25.703125 53.5625 
Q 30.078125 56 35.796875 56 
Q 45.21875 56 50.046875 50.171875 
Q 54.890625 44.34375 54.890625 33.015625 
z
" id="DejaVuSans-110"/>
     <path d="M 45.40625 27.984375 
Q 45.40625 37.75 41.375 43.109375 
Q 37.359375 48.484375 30.078125 48.484375 
Q 22.859375 48.484375 18.828125 43.109375 
Q 14.796875 37.75 14.796875 27.984375 
Q 14.796875 18.265625 18.828125 12.890625 
Q 22.859375 7.515625 30.078125 7.515625 
Q 37.359375 7.515625 41.375 12.890625 
Q 45.40625 18.265625 45.40625 27.984375 
z
M 54.390625 6.78125 
Q 54.390625 -7.171875 48.1875 -13.984375 
Q 42 -20.796875 29.203125 -20.796875 
Q 24.46875 -20.796875 20.265625 -20.09375 
Q 16.0625 -19.390625 12.109375 -17.921875 
L 12.109375 -9.1875 
Q 16.0625 -11.328125 19.921875 -12.34375 
Q 23.78125 -13.375 27.78125 -13.375 
Q 36.625 -13.375 41.015625 -8.765625 
Q 45.40625 -4.15625 45.40625 5.171875 
L 45.40625 9.625 
Q 42.625 4.78125 38.28125 2.390625 
Q 33.9375 0 27.875 0 
Q 17.828125 0 11.671875 7.65625 
Q 5.515625 15.328125 5.515625 27.984375 
Q 5.515625 40.671875 11.671875 48.328125 
Q 17.828125 56 27.875 56 
Q 33.9375 56 38.28125 53.609375 
Q 42.625 51.21875 45.40625 46.390625 
L 45.40625 54.6875 
L 54.390625 54.6875 
z
" id="DejaVuSans-103"/>
     <path d="M 11.71875 12.40625 
L 22.015625 12.40625 
L 22.015625 0 
L 11.71875 0 
z
M 11.71875 51.703125 
L 22.015625 51.703125 
L 22.015625 39.3125 
L 11.71875 39.3125 
z
" id="DejaVuSans-58"/>
     <path d="M 3.328125 72.90625 
L 13.28125 72.90625 
L 28.609375 11.28125 
L 43.890625 72.90625 
L 54.984375 72.90625 
L 70.3125 11.28125 
L 85.59375 72.90625 
L 95.609375 72.90625 
L 77.296875 0 
L 64.890625 0 
L 49.515625 63.28125 
L 33.984375 0 
L 21.578125 0 
z
" id="DejaVuSans-87"/>
     <path d="M 9.8125 72.90625 
L 24.515625 72.90625 
L 43.109375 23.296875 
L 61.8125 72.90625 
L 76.515625 72.90625 
L 76.515625 0 
L 66.890625 0 
L 66.890625 64.015625 
L 48.09375 14.015625 
L 38.1875 14.015625 
L 19.390625 64.015625 
L 19.390625 0 
L 9.8125 0 
z
" id="DejaVuSans-77"/>
    </defs>
    <g transform="translate(176.79 16.318125)scale(0.12 -0.12)">
     <use xlink:href="#DejaVuSans-84"/>
     <use x="46.333984" xlink:href="#DejaVuSans-114"/>
     <use x="87.447266" xlink:href="#DejaVuSans-97"/>
     <use x="148.726562" xlink:href="#DejaVuSans-105"/>
     <use x="176.509766" xlink:href="#DejaVuSans-110"/>
     <use x="239.888672" xlink:href="#DejaVuSans-105"/>
     <use x="267.671875" xlink:href="#DejaVuSans-110"/>
     <use x="331.050781" xlink:href="#DejaVuSans-103"/>
     <use x="394.527344" xlink:href="#DejaVuSans-58"/>
     <use x="428.21875" xlink:href="#DejaVuSans-32"/>
     <use x="460.005859" xlink:href="#DejaVuSans-87"/>
     <use x="558.882812" xlink:href="#DejaVuSans-77"/>
     <use x="645.162109" xlink:href="#DejaVuSans-84"/>
    </g>
   </g>
   <g id="legend_1">
    <g id="patch_7">
     <path d="M 47.603125 59.674375 
L 131.33125 59.674375 
Q 133.33125 59.674375 133.33125 57.674375 
L 133.33125 29.318125 
Q 133.33125 27.318125 131.33125 27.318125 
L 47.603125 27.318125 
Q 45.603125 27.318125 45.603125 29.318125 
L 45.603125 57.674375 
Q 45.603125 59.674375 47.603125 59.674375 
z
" style="fill:#ffffff;opacity:0.8;stroke:#cccccc;stroke-linejoin:miter;"/>
    </g>
    <g id="line2d_33">
     <path d="M 49.603125 35.416562 
L 69.603125 35.416562 
" style="fill:none;stroke:#1f77b4;stroke-linecap:square;stroke-width:1.5;"/>
    </g>
    <g id="line2d_34"/>
    <g id="text_19">
     <!-- Predicted -->
     <defs>
      <path d="M 45.40625 46.390625 
L 45.40625 75.984375 
L 54.390625 75.984375 
L 54.390625 0 
L 45.40625 0 
L 45.40625 8.203125 
Q 42.578125 3.328125 38.25 0.953125 
Q 33.9375 -1.421875 27.875 -1.421875 
Q 17.96875 -1.421875 11.734375 6.484375 
Q 5.515625 14.40625 5.515625 27.296875 
Q 5.515625 40.1875 11.734375 48.09375 
Q 17.96875 56 27.875 56 
Q 33.9375 56 38.25 53.625 
Q 42.578125 51.265625 45.40625 46.390625 
z
M 14.796875 27.296875 
Q 14.796875 17.390625 18.875 11.75 
Q 22.953125 6.109375 30.078125 6.109375 
Q 37.203125 6.109375 41.296875 11.75 
Q 45.40625 17.390625 45.40625 27.296875 
Q 45.40625 37.203125 41.296875 42.84375 
Q 37.203125 48.484375 30.078125 48.484375 
Q 22.953125 48.484375 18.875 42.84375 
Q 14.796875 37.203125 14.796875 27.296875 
z
" id="DejaVuSans-100"/>
      <path d="M 18.3125 70.21875 
L 18.3125 54.6875 
L 36.8125 54.6875 
L 36.8125 47.703125 
L 18.3125 47.703125 
L 18.3125 18.015625 
Q 18.3125 11.328125 20.140625 9.421875 
Q 21.96875 7.515625 27.59375 7.515625 
L 36.8125 7.515625 
L 36.8125 0 
L 27.59375 0 
Q 17.1875 0 13.234375 3.875 
Q 9.28125 7.765625 9.28125 18.015625 
L 9.28125 47.703125 
L 2.6875 47.703125 
L 2.6875 54.6875 
L 9.28125 54.6875 
L 9.28125 70.21875 
z
" id="DejaVuSans-116"/>
     </defs>
     <g transform="translate(77.603125 38.916562)scale(0.1 -0.1)">
      <use xlink:href="#DejaVuSans-80"/>
      <use x="58.552734" xlink:href="#DejaVuSans-114"/>
      <use x="97.416016" xlink:href="#DejaVuSans-101"/>
      <use x="158.939453" xlink:href="#DejaVuSans-100"/>
      <use x="222.416016" xlink:href="#DejaVuSans-105"/>
      <use x="250.199219" xlink:href="#DejaVuSans-99"/>
      <use x="305.179688" xlink:href="#DejaVuSans-116"/>
      <use x="344.388672" xlink:href="#DejaVuSans-101"/>
      <use x="405.912109" xlink:href="#DejaVuSans-100"/>
     </g>
    </g>
    <g id="line2d_35">
     <path d="M 49.603125 50.094687 
L 69.603125 50.094687 
" style="fill:none;stroke:#ff7f0e;stroke-linecap:square;stroke-width:1.5;"/>
    </g>
    <g id="line2d_36"/>
    <g id="text_20">
     <!-- True value -->
     <defs>
      <path d="M 8.5 21.578125 
L 8.5 54.6875 
L 17.484375 54.6875 
L 17.484375 21.921875 
Q 17.484375 14.15625 20.5 10.265625 
Q 23.53125 6.390625 29.59375 6.390625 
Q 36.859375 6.390625 41.078125 11.03125 
Q 45.3125 15.671875 45.3125 23.6875 
L 45.3125 54.6875 
L 54.296875 54.6875 
L 54.296875 0 
L 45.3125 0 
L 45.3125 8.40625 
Q 42.046875 3.421875 37.71875 1 
Q 33.40625 -1.421875 27.6875 -1.421875 
Q 18.265625 -1.421875 13.375 4.4375 
Q 8.5 10.296875 8.5 21.578125 
z
M 31.109375 56 
z
" id="DejaVuSans-117"/>
      <path d="M 2.984375 54.6875 
L 12.5 54.6875 
L 29.59375 8.796875 
L 46.6875 54.6875 
L 56.203125 54.6875 
L 35.6875 0 
L 23.484375 0 
z
" id="DejaVuSans-118"/>
      <path d="M 9.421875 75.984375 
L 18.40625 75.984375 
L 18.40625 0 
L 9.421875 0 
z
" id="DejaVuSans-108"/>
     </defs>
     <g transform="translate(77.603125 53.594687)scale(0.1 -0.1)">
      <use xlink:href="#DejaVuSans-84"/>
      <use x="46.333984" xlink:href="#DejaVuSans-114"/>
      <use x="87.447266" xlink:href="#DejaVuSans-117"/>
      <use x="150.826172" xlink:href="#DejaVuSans-101"/>
      <use x="212.349609" xlink:href="#DejaVuSans-32"/>
      <use x="244.136719" xlink:href="#DejaVuSans-118"/>
      <use x="303.316406" xlink:href="#DejaVuSans-97"/>
      <use x="364.595703" xlink:href="#DejaVuSans-108"/>
      <use x="392.378906" xlink:href="#DejaVuSans-117"/>
      <use x="455.757812" xlink:href="#DejaVuSans-101"/>
     </g>
    </g>
   </g>
  </g>
 </g>
 <defs>
  <clipPath id="pffcb059956">
   <rect height="266.112" width="357.12" x="40.603125" y="22.318125"/>
  </clipPath>
 </defs>
</svg>
