<?xml version="1.0" encoding="utf-8" standalone="no"?>
<!DOCTYPE svg PUBLIC "-//W3C//DTD SVG 1.1//EN"
  "http://www.w3.org/Graphics/SVG/1.1/DTD/svg11.dtd">
<!-- Created with matplotlib (https://matplotlib.org/) -->
<svg height="325.986375pt" version="1.1" viewBox="0 0 411.285625 325.986375" width="411.285625pt" xmlns="http://www.w3.org/2000/svg" xmlns:xlink="http://www.w3.org/1999/xlink">
 <defs>
  <style type="text/css">
*{stroke-linecap:butt;stroke-linejoin:round;}
  </style>
 </defs>
 <g id="figure_1">
  <g id="patch_1">
   <path d="M 0 325.986375 
L 411.285625 325.986375 
L 411.285625 0 
L 0 0 
z
" style="fill:#ffffff;"/>
  </g>
  <g id="axes_1">
   <g id="patch_2">
    <path d="M 46.965625 288.430125 
L 404.085625 288.430125 
L 404.085625 22.318125 
L 46.965625 22.318125 
z
" style="fill:#ffffff;"/>
   </g>
   <g id="matplotlib.axis_1">
    <g id="xtick_1">
     <g id="line2d_1">
      <path clip-path="url(#p56e22b284f)" d="M 63.198352 288.430125 
L 63.198352 22.318125 
" style="fill:none;stroke:#b0b0b0;stroke-dasharray:2.96,1.28;stroke-dashoffset:0;stroke-width:0.8;"/>
     </g>
     <g id="line2d_2">
      <defs>
       <path d="M 0 0 
L 0 3.5 
" id="mc17f74a20a" style="stroke:#000000;stroke-width:0.8;"/>
      </defs>
      <g>
       <use style="stroke:#000000;stroke-width:0.8;" x="63.198352" xlink:href="#mc17f74a20a" y="288.430125"/>
      </g>
     </g>
     <g id="text_1">
      <!-- 0 -->
      <defs>
       <path d="M 31.78125 66.40625 
Q 24.171875 66.40625 20.328125 58.90625 
Q 16.5 51.421875 16.5 36.375 
Q 16.5 21.390625 20.328125 13.890625 
Q 24.171875 6.390625 31.78125 6.390625 
Q 39.453125 6.390625 43.28125 13.890625 
Q 47.125 21.390625 47.125 36.375 
Q 47.125 51.421875 43.28125 58.90625 
Q 39.453125 66.40625 31.78125 66.40625 
z
M 31.78125 74.21875 
Q 44.046875 74.21875 50.515625 64.515625 
Q 56.984375 54.828125 56.984375 36.375 
Q 56.984375 17.96875 50.515625 8.265625 
Q 44.046875 -1.421875 31.78125 -1.421875 
Q 19.53125 -1.421875 13.0625 8.265625 
Q 6.59375 17.96875 6.59375 36.375 
Q 6.59375 54.828125 13.0625 64.515625 
Q 19.53125 74.21875 31.78125 74.21875 
z
" id="DejaVuSans-48"/>
      </defs>
      <g transform="translate(60.017102 303.028562)scale(0.1 -0.1)">
       <use xlink:href="#DejaVuSans-48"/>
      </g>
     </g>
    </g>
    <g id="xtick_2">
     <g id="line2d_3">
      <path clip-path="url(#p56e22b284f)" d="M 112.128954 288.430125 
L 112.128954 22.318125 
" style="fill:none;stroke:#b0b0b0;stroke-dasharray:2.96,1.28;stroke-dashoffset:0;stroke-width:0.8;"/>
     </g>
     <g id="line2d_4">
      <g>
       <use style="stroke:#000000;stroke-width:0.8;" x="112.128954" xlink:href="#mc17f74a20a" y="288.430125"/>
      </g>
     </g>
     <g id="text_2">
      <!-- 200 -->
      <defs>
       <path d="M 19.1875 8.296875 
L 53.609375 8.296875 
L 53.609375 0 
L 7.328125 0 
L 7.328125 8.296875 
Q 12.9375 14.109375 22.625 23.890625 
Q 32.328125 33.6875 34.8125 36.53125 
Q 39.546875 41.84375 41.421875 45.53125 
Q 43.3125 49.21875 43.3125 52.78125 
Q 43.3125 58.59375 39.234375 62.25 
Q 35.15625 65.921875 28.609375 65.921875 
Q 23.96875 65.921875 18.8125 64.3125 
Q 13.671875 62.703125 7.8125 59.421875 
L 7.8125 69.390625 
Q 13.765625 71.78125 18.9375 73 
Q 24.125 74.21875 28.421875 74.21875 
Q 39.75 74.21875 46.484375 68.546875 
Q 53.21875 62.890625 53.21875 53.421875 
Q 53.21875 48.921875 51.53125 44.890625 
Q 49.859375 40.875 45.40625 35.40625 
Q 44.1875 33.984375 37.640625 27.21875 
Q 31.109375 20.453125 19.1875 8.296875 
z
" id="DejaVuSans-50"/>
      </defs>
      <g transform="translate(102.585204 303.028562)scale(0.1 -0.1)">
       <use xlink:href="#DejaVuSans-50"/>
       <use x="63.623047" xlink:href="#DejaVuSans-48"/>
       <use x="127.246094" xlink:href="#DejaVuSans-48"/>
      </g>
     </g>
    </g>
    <g id="xtick_3">
     <g id="line2d_5">
      <path clip-path="url(#p56e22b284f)" d="M 161.059557 288.430125 
L 161.059557 22.318125 
" style="fill:none;stroke:#b0b0b0;stroke-dasharray:2.96,1.28;stroke-dashoffset:0;stroke-width:0.8;"/>
     </g>
     <g id="line2d_6">
      <g>
       <use style="stroke:#000000;stroke-width:0.8;" x="161.059557" xlink:href="#mc17f74a20a" y="288.430125"/>
      </g>
     </g>
     <g id="text_3">
      <!-- 400 -->
      <defs>
       <path d="M 37.796875 64.3125 
L 12.890625 25.390625 
L 37.796875 25.390625 
z
M 35.203125 72.90625 
L 47.609375 72.90625 
L 47.609375 25.390625 
L 58.015625 25.390625 
L 58.015625 17.1875 
L 47.609375 17.1875 
L 47.609375 0 
L 37.796875 0 
L 37.796875 17.1875 
L 4.890625 17.1875 
L 4.890625 26.703125 
z
" id="DejaVuSans-52"/>
      </defs>
      <g transform="translate(151.515807 303.028562)scale(0.1 -0.1)">
       <use xlink:href="#DejaVuSans-52"/>
       <use x="63.623047" xlink:href="#DejaVuSans-48"/>
       <use x="127.246094" xlink:href="#DejaVuSans-48"/>
      </g>
     </g>
    </g>
    <g id="xtick_4">
     <g id="line2d_7">
      <path clip-path="url(#p56e22b284f)" d="M 209.990159 288.430125 
L 209.990159 22.318125 
" style="fill:none;stroke:#b0b0b0;stroke-dasharray:2.96,1.28;stroke-dashoffset:0;stroke-width:0.8;"/>
     </g>
     <g id="line2d_8">
      <g>
       <use style="stroke:#000000;stroke-width:0.8;" x="209.990159" xlink:href="#mc17f74a20a" y="288.430125"/>
      </g>
     </g>
     <g id="text_4">
      <!-- 600 -->
      <defs>
       <path d="M 33.015625 40.375 
Q 26.375 40.375 22.484375 35.828125 
Q 18.609375 31.296875 18.609375 23.390625 
Q 18.609375 15.53125 22.484375 10.953125 
Q 26.375 6.390625 33.015625 6.390625 
Q 39.65625 6.390625 43.53125 10.953125 
Q 47.40625 15.53125 47.40625 23.390625 
Q 47.40625 31.296875 43.53125 35.828125 
Q 39.65625 40.375 33.015625 40.375 
z
M 52.59375 71.296875 
L 52.59375 62.3125 
Q 48.875 64.0625 45.09375 64.984375 
Q 41.3125 65.921875 37.59375 65.921875 
Q 27.828125 65.921875 22.671875 59.328125 
Q 17.53125 52.734375 16.796875 39.40625 
Q 19.671875 43.65625 24.015625 45.921875 
Q 28.375 48.1875 33.59375 48.1875 
Q 44.578125 48.1875 50.953125 41.515625 
Q 57.328125 34.859375 57.328125 23.390625 
Q 57.328125 12.15625 50.6875 5.359375 
Q 44.046875 -1.421875 33.015625 -1.421875 
Q 20.359375 -1.421875 13.671875 8.265625 
Q 6.984375 17.96875 6.984375 36.375 
Q 6.984375 53.65625 15.1875 63.9375 
Q 23.390625 74.21875 37.203125 74.21875 
Q 40.921875 74.21875 44.703125 73.484375 
Q 48.484375 72.75 52.59375 71.296875 
z
" id="DejaVuSans-54"/>
      </defs>
      <g transform="translate(200.446409 303.028562)scale(0.1 -0.1)">
       <use xlink:href="#DejaVuSans-54"/>
       <use x="63.623047" xlink:href="#DejaVuSans-48"/>
       <use x="127.246094" xlink:href="#DejaVuSans-48"/>
      </g>
     </g>
    </g>
    <g id="xtick_5">
     <g id="line2d_9">
      <path clip-path="url(#p56e22b284f)" d="M 258.920761 288.430125 
L 258.920761 22.318125 
" style="fill:none;stroke:#b0b0b0;stroke-dasharray:2.96,1.28;stroke-dashoffset:0;stroke-width:0.8;"/>
     </g>
     <g id="line2d_10">
      <g>
       <use style="stroke:#000000;stroke-width:0.8;" x="258.920761" xlink:href="#mc17f74a20a" y="288.430125"/>
      </g>
     </g>
     <g id="text_5">
      <!-- 800 -->
      <defs>
       <path d="M 31.78125 34.625 
Q 24.75 34.625 20.71875 30.859375 
Q 16.703125 27.09375 16.703125 20.515625 
Q 16.703125 13.921875 20.71875 10.15625 
Q 24.75 6.390625 31.78125 6.390625 
Q 38.8125 6.390625 42.859375 10.171875 
Q 46.921875 13.96875 46.921875 20.515625 
Q 46.921875 27.09375 42.890625 30.859375 
Q 38.875 34.625 31.78125 34.625 
z
M 21.921875 38.8125 
Q 15.578125 40.375 12.03125 44.71875 
Q 8.5 49.078125 8.5 55.328125 
Q 8.5 64.0625 14.71875 69.140625 
Q 20.953125 74.21875 31.78125 74.21875 
Q 42.671875 74.21875 48.875 69.140625 
Q 55.078125 64.0625 55.078125 55.328125 
Q 55.078125 49.078125 51.53125 44.71875 
Q 48 40.375 41.703125 38.8125 
Q 48.828125 37.15625 52.796875 32.3125 
Q 56.78125 27.484375 56.78125 20.515625 
Q 56.78125 9.90625 50.3125 4.234375 
Q 43.84375 -1.421875 31.78125 -1.421875 
Q 19.734375 -1.421875 13.25 4.234375 
Q 6.78125 9.90625 6.78125 20.515625 
Q 6.78125 27.484375 10.78125 32.3125 
Q 14.796875 37.15625 21.921875 38.8125 
z
M 18.3125 54.390625 
Q 18.3125 48.734375 21.84375 45.5625 
Q 25.390625 42.390625 31.78125 42.390625 
Q 38.140625 42.390625 41.71875 45.5625 
Q 45.3125 48.734375 45.3125 54.390625 
Q 45.3125 60.0625 41.71875 63.234375 
Q 38.140625 66.40625 31.78125 66.40625 
Q 25.390625 66.40625 21.84375 63.234375 
Q 18.3125 60.0625 18.3125 54.390625 
z
" id="DejaVuSans-56"/>
      </defs>
      <g transform="translate(249.377011 303.028562)scale(0.1 -0.1)">
       <use xlink:href="#DejaVuSans-56"/>
       <use x="63.623047" xlink:href="#DejaVuSans-48"/>
       <use x="127.246094" xlink:href="#DejaVuSans-48"/>
      </g>
     </g>
    </g>
    <g id="xtick_6">
     <g id="line2d_11">
      <path clip-path="url(#p56e22b284f)" d="M 307.851363 288.430125 
L 307.851363 22.318125 
" style="fill:none;stroke:#b0b0b0;stroke-dasharray:2.96,1.28;stroke-dashoffset:0;stroke-width:0.8;"/>
     </g>
     <g id="line2d_12">
      <g>
       <use style="stroke:#000000;stroke-width:0.8;" x="307.851363" xlink:href="#mc17f74a20a" y="288.430125"/>
      </g>
     </g>
     <g id="text_6">
      <!-- 1000 -->
      <defs>
       <path d="M 12.40625 8.296875 
L 28.515625 8.296875 
L 28.515625 63.921875 
L 10.984375 60.40625 
L 10.984375 69.390625 
L 28.421875 72.90625 
L 38.28125 72.90625 
L 38.28125 8.296875 
L 54.390625 8.296875 
L 54.390625 0 
L 12.40625 0 
z
" id="DejaVuSans-49"/>
      </defs>
      <g transform="translate(295.126363 303.028562)scale(0.1 -0.1)">
       <use xlink:href="#DejaVuSans-49"/>
       <use x="63.623047" xlink:href="#DejaVuSans-48"/>
       <use x="127.246094" xlink:href="#DejaVuSans-48"/>
       <use x="190.869141" xlink:href="#DejaVuSans-48"/>
      </g>
     </g>
    </g>
    <g id="xtick_7">
     <g id="line2d_13">
      <path clip-path="url(#p56e22b284f)" d="M 356.781965 288.430125 
L 356.781965 22.318125 
" style="fill:none;stroke:#b0b0b0;stroke-dasharray:2.96,1.28;stroke-dashoffset:0;stroke-width:0.8;"/>
     </g>
     <g id="line2d_14">
      <g>
       <use style="stroke:#000000;stroke-width:0.8;" x="356.781965" xlink:href="#mc17f74a20a" y="288.430125"/>
      </g>
     </g>
     <g id="text_7">
      <!-- 1200 -->
      <g transform="translate(344.056965 303.028562)scale(0.1 -0.1)">
       <use xlink:href="#DejaVuSans-49"/>
       <use x="63.623047" xlink:href="#DejaVuSans-50"/>
       <use x="127.246094" xlink:href="#DejaVuSans-48"/>
       <use x="190.869141" xlink:href="#DejaVuSans-48"/>
      </g>
     </g>
    </g>
    <g id="text_8">
     <!-- Day -->
     <defs>
      <path d="M 19.671875 64.796875 
L 19.671875 8.109375 
L 31.59375 8.109375 
Q 46.6875 8.109375 53.6875 14.9375 
Q 60.6875 21.78125 60.6875 36.53125 
Q 60.6875 51.171875 53.6875 57.984375 
Q 46.6875 64.796875 31.59375 64.796875 
z
M 9.8125 72.90625 
L 30.078125 72.90625 
Q 51.265625 72.90625 61.171875 64.09375 
Q 71.09375 55.28125 71.09375 36.53125 
Q 71.09375 17.671875 61.125 8.828125 
Q 51.171875 0 30.078125 0 
L 9.8125 0 
z
" id="DejaVuSans-68"/>
      <path d="M 34.28125 27.484375 
Q 23.390625 27.484375 19.1875 25 
Q 14.984375 22.515625 14.984375 16.5 
Q 14.984375 11.71875 18.140625 8.90625 
Q 21.296875 6.109375 26.703125 6.109375 
Q 34.1875 6.109375 38.703125 11.40625 
Q 43.21875 16.703125 43.21875 25.484375 
L 43.21875 27.484375 
z
M 52.203125 31.203125 
L 52.203125 0 
L 43.21875 0 
L 43.21875 8.296875 
Q 40.140625 3.328125 35.546875 0.953125 
Q 30.953125 -1.421875 24.3125 -1.421875 
Q 15.921875 -1.421875 10.953125 3.296875 
Q 6 8.015625 6 15.921875 
Q 6 25.140625 12.171875 29.828125 
Q 18.359375 34.515625 30.609375 34.515625 
L 43.21875 34.515625 
L 43.21875 35.40625 
Q 43.21875 41.609375 39.140625 45 
Q 35.0625 48.390625 27.6875 48.390625 
Q 23 48.390625 18.546875 47.265625 
Q 14.109375 46.140625 10.015625 43.890625 
L 10.015625 52.203125 
Q 14.9375 54.109375 19.578125 55.046875 
Q 24.21875 56 28.609375 56 
Q 40.484375 56 46.34375 49.84375 
Q 52.203125 43.703125 52.203125 31.203125 
z
" id="DejaVuSans-97"/>
      <path d="M 32.171875 -5.078125 
Q 28.375 -14.84375 24.75 -17.8125 
Q 21.140625 -20.796875 15.09375 -20.796875 
L 7.90625 -20.796875 
L 7.90625 -13.28125 
L 13.1875 -13.28125 
Q 16.890625 -13.28125 18.9375 -11.515625 
Q 21 -9.765625 23.484375 -3.21875 
L 25.09375 0.875 
L 2.984375 54.6875 
L 12.5 54.6875 
L 29.59375 11.921875 
L 46.6875 54.6875 
L 56.203125 54.6875 
z
" id="DejaVuSans-121"/>
     </defs>
     <g transform="translate(215.652188 316.706687)scale(0.1 -0.1)">
      <use xlink:href="#DejaVuSans-68"/>
      <use x="77.001953" xlink:href="#DejaVuSans-97"/>
      <use x="138.28125" xlink:href="#DejaVuSans-121"/>
     </g>
    </g>
   </g>
   <g id="matplotlib.axis_2">
    <g id="ytick_1">
     <g id="line2d_15">
      <path clip-path="url(#p56e22b284f)" d="M 46.965625 259.725057 
L 404.085625 259.725057 
" style="fill:none;stroke:#b0b0b0;stroke-dasharray:2.96,1.28;stroke-dashoffset:0;stroke-width:0.8;"/>
     </g>
     <g id="line2d_16">
      <defs>
       <path d="M 0 0 
L -3.5 0 
" id="mb14119f3a6" style="stroke:#000000;stroke-width:0.8;"/>
      </defs>
      <g>
       <use style="stroke:#000000;stroke-width:0.8;" x="46.965625" xlink:href="#mb14119f3a6" y="259.725057"/>
      </g>
     </g>
     <g id="text_9">
      <!-- 50 -->
      <defs>
       <path d="M 10.796875 72.90625 
L 49.515625 72.90625 
L 49.515625 64.59375 
L 19.828125 64.59375 
L 19.828125 46.734375 
Q 21.96875 47.46875 24.109375 47.828125 
Q 26.265625 48.1875 28.421875 48.1875 
Q 40.625 48.1875 47.75 41.5 
Q 54.890625 34.8125 54.890625 23.390625 
Q 54.890625 11.625 47.5625 5.09375 
Q 40.234375 -1.421875 26.90625 -1.421875 
Q 22.3125 -1.421875 17.546875 -0.640625 
Q 12.796875 0.140625 7.71875 1.703125 
L 7.71875 11.625 
Q 12.109375 9.234375 16.796875 8.0625 
Q 21.484375 6.890625 26.703125 6.890625 
Q 35.15625 6.890625 40.078125 11.328125 
Q 45.015625 15.765625 45.015625 23.390625 
Q 45.015625 31 40.078125 35.4375 
Q 35.15625 39.890625 26.703125 39.890625 
Q 22.75 39.890625 18.8125 39.015625 
Q 14.890625 38.140625 10.796875 36.28125 
z
" id="DejaVuSans-53"/>
      </defs>
      <g transform="translate(27.240625 263.524275)scale(0.1 -0.1)">
       <use xlink:href="#DejaVuSans-53"/>
       <use x="63.623047" xlink:href="#DejaVuSans-48"/>
      </g>
     </g>
    </g>
    <g id="ytick_2">
     <g id="line2d_17">
      <path clip-path="url(#p56e22b284f)" d="M 46.965625 226.096559 
L 404.085625 226.096559 
" style="fill:none;stroke:#b0b0b0;stroke-dasharray:2.96,1.28;stroke-dashoffset:0;stroke-width:0.8;"/>
     </g>
     <g id="line2d_18">
      <g>
       <use style="stroke:#000000;stroke-width:0.8;" x="46.965625" xlink:href="#mb14119f3a6" y="226.096559"/>
      </g>
     </g>
     <g id="text_10">
      <!-- 100 -->
      <g transform="translate(20.878125 229.895778)scale(0.1 -0.1)">
       <use xlink:href="#DejaVuSans-49"/>
       <use x="63.623047" xlink:href="#DejaVuSans-48"/>
       <use x="127.246094" xlink:href="#DejaVuSans-48"/>
      </g>
     </g>
    </g>
    <g id="ytick_3">
     <g id="line2d_19">
      <path clip-path="url(#p56e22b284f)" d="M 46.965625 192.468062 
L 404.085625 192.468062 
" style="fill:none;stroke:#b0b0b0;stroke-dasharray:2.96,1.28;stroke-dashoffset:0;stroke-width:0.8;"/>
     </g>
     <g id="line2d_20">
      <g>
       <use style="stroke:#000000;stroke-width:0.8;" x="46.965625" xlink:href="#mb14119f3a6" y="192.468062"/>
      </g>
     </g>
     <g id="text_11">
      <!-- 150 -->
      <g transform="translate(20.878125 196.267281)scale(0.1 -0.1)">
       <use xlink:href="#DejaVuSans-49"/>
       <use x="63.623047" xlink:href="#DejaVuSans-53"/>
       <use x="127.246094" xlink:href="#DejaVuSans-48"/>
      </g>
     </g>
    </g>
    <g id="ytick_4">
     <g id="line2d_21">
      <path clip-path="url(#p56e22b284f)" d="M 46.965625 158.839565 
L 404.085625 158.839565 
" style="fill:none;stroke:#b0b0b0;stroke-dasharray:2.96,1.28;stroke-dashoffset:0;stroke-width:0.8;"/>
     </g>
     <g id="line2d_22">
      <g>
       <use style="stroke:#000000;stroke-width:0.8;" x="46.965625" xlink:href="#mb14119f3a6" y="158.839565"/>
      </g>
     </g>
     <g id="text_12">
      <!-- 200 -->
      <g transform="translate(20.878125 162.638784)scale(0.1 -0.1)">
       <use xlink:href="#DejaVuSans-50"/>
       <use x="63.623047" xlink:href="#DejaVuSans-48"/>
       <use x="127.246094" xlink:href="#DejaVuSans-48"/>
      </g>
     </g>
    </g>
    <g id="ytick_5">
     <g id="line2d_23">
      <path clip-path="url(#p56e22b284f)" d="M 46.965625 125.211068 
L 404.085625 125.211068 
" style="fill:none;stroke:#b0b0b0;stroke-dasharray:2.96,1.28;stroke-dashoffset:0;stroke-width:0.8;"/>
     </g>
     <g id="line2d_24">
      <g>
       <use style="stroke:#000000;stroke-width:0.8;" x="46.965625" xlink:href="#mb14119f3a6" y="125.211068"/>
      </g>
     </g>
     <g id="text_13">
      <!-- 250 -->
      <g transform="translate(20.878125 129.010286)scale(0.1 -0.1)">
       <use xlink:href="#DejaVuSans-50"/>
       <use x="63.623047" xlink:href="#DejaVuSans-53"/>
       <use x="127.246094" xlink:href="#DejaVuSans-48"/>
      </g>
     </g>
    </g>
    <g id="ytick_6">
     <g id="line2d_25">
      <path clip-path="url(#p56e22b284f)" d="M 46.965625 91.58257 
L 404.085625 91.58257 
" style="fill:none;stroke:#b0b0b0;stroke-dasharray:2.96,1.28;stroke-dashoffset:0;stroke-width:0.8;"/>
     </g>
     <g id="line2d_26">
      <g>
       <use style="stroke:#000000;stroke-width:0.8;" x="46.965625" xlink:href="#mb14119f3a6" y="91.58257"/>
      </g>
     </g>
     <g id="text_14">
      <!-- 300 -->
      <defs>
       <path d="M 40.578125 39.3125 
Q 47.65625 37.796875 51.625 33 
Q 55.609375 28.21875 55.609375 21.1875 
Q 55.609375 10.40625 48.1875 4.484375 
Q 40.765625 -1.421875 27.09375 -1.421875 
Q 22.515625 -1.421875 17.65625 -0.515625 
Q 12.796875 0.390625 7.625 2.203125 
L 7.625 11.71875 
Q 11.71875 9.328125 16.59375 8.109375 
Q 21.484375 6.890625 26.8125 6.890625 
Q 36.078125 6.890625 40.9375 10.546875 
Q 45.796875 14.203125 45.796875 21.1875 
Q 45.796875 27.640625 41.28125 31.265625 
Q 36.765625 34.90625 28.71875 34.90625 
L 20.21875 34.90625 
L 20.21875 43.015625 
L 29.109375 43.015625 
Q 36.375 43.015625 40.234375 45.921875 
Q 44.09375 48.828125 44.09375 54.296875 
Q 44.09375 59.90625 40.109375 62.90625 
Q 36.140625 65.921875 28.71875 65.921875 
Q 24.65625 65.921875 20.015625 65.03125 
Q 15.375 64.15625 9.8125 62.3125 
L 9.8125 71.09375 
Q 15.4375 72.65625 20.34375 73.4375 
Q 25.25 74.21875 29.59375 74.21875 
Q 40.828125 74.21875 47.359375 69.109375 
Q 53.90625 64.015625 53.90625 55.328125 
Q 53.90625 49.265625 50.4375 45.09375 
Q 46.96875 40.921875 40.578125 39.3125 
z
" id="DejaVuSans-51"/>
      </defs>
      <g transform="translate(20.878125 95.381789)scale(0.1 -0.1)">
       <use xlink:href="#DejaVuSans-51"/>
       <use x="63.623047" xlink:href="#DejaVuSans-48"/>
       <use x="127.246094" xlink:href="#DejaVuSans-48"/>
      </g>
     </g>
    </g>
    <g id="ytick_7">
     <g id="line2d_27">
      <path clip-path="url(#p56e22b284f)" d="M 46.965625 57.954073 
L 404.085625 57.954073 
" style="fill:none;stroke:#b0b0b0;stroke-dasharray:2.96,1.28;stroke-dashoffset:0;stroke-width:0.8;"/>
     </g>
     <g id="line2d_28">
      <g>
       <use style="stroke:#000000;stroke-width:0.8;" x="46.965625" xlink:href="#mb14119f3a6" y="57.954073"/>
      </g>
     </g>
     <g id="text_15">
      <!-- 350 -->
      <g transform="translate(20.878125 61.753292)scale(0.1 -0.1)">
       <use xlink:href="#DejaVuSans-51"/>
       <use x="63.623047" xlink:href="#DejaVuSans-53"/>
       <use x="127.246094" xlink:href="#DejaVuSans-48"/>
      </g>
     </g>
    </g>
    <g id="ytick_8">
     <g id="line2d_29">
      <path clip-path="url(#p56e22b284f)" d="M 46.965625 24.325576 
L 404.085625 24.325576 
" style="fill:none;stroke:#b0b0b0;stroke-dasharray:2.96,1.28;stroke-dashoffset:0;stroke-width:0.8;"/>
     </g>
     <g id="line2d_30">
      <g>
       <use style="stroke:#000000;stroke-width:0.8;" x="46.965625" xlink:href="#mb14119f3a6" y="24.325576"/>
      </g>
     </g>
     <g id="text_16">
      <!-- 400 -->
      <g transform="translate(20.878125 28.124795)scale(0.1 -0.1)">
       <use xlink:href="#DejaVuSans-52"/>
       <use x="63.623047" xlink:href="#DejaVuSans-48"/>
       <use x="127.246094" xlink:href="#DejaVuSans-48"/>
      </g>
     </g>
    </g>
    <g id="text_17">
     <!-- Price $ -->
     <defs>
      <path d="M 19.671875 64.796875 
L 19.671875 37.40625 
L 32.078125 37.40625 
Q 38.96875 37.40625 42.71875 40.96875 
Q 46.484375 44.53125 46.484375 51.125 
Q 46.484375 57.671875 42.71875 61.234375 
Q 38.96875 64.796875 32.078125 64.796875 
z
M 9.8125 72.90625 
L 32.078125 72.90625 
Q 44.34375 72.90625 50.609375 67.359375 
Q 56.890625 61.8125 56.890625 51.125 
Q 56.890625 40.328125 50.609375 34.8125 
Q 44.34375 29.296875 32.078125 29.296875 
L 19.671875 29.296875 
L 19.671875 0 
L 9.8125 0 
z
" id="DejaVuSans-80"/>
      <path d="M 41.109375 46.296875 
Q 39.59375 47.171875 37.8125 47.578125 
Q 36.03125 48 33.890625 48 
Q 26.265625 48 22.1875 43.046875 
Q 18.109375 38.09375 18.109375 28.8125 
L 18.109375 0 
L 9.078125 0 
L 9.078125 54.6875 
L 18.109375 54.6875 
L 18.109375 46.1875 
Q 20.953125 51.171875 25.484375 53.578125 
Q 30.03125 56 36.53125 56 
Q 37.453125 56 38.578125 55.875 
Q 39.703125 55.765625 41.0625 55.515625 
z
" id="DejaVuSans-114"/>
      <path d="M 9.421875 54.6875 
L 18.40625 54.6875 
L 18.40625 0 
L 9.421875 0 
z
M 9.421875 75.984375 
L 18.40625 75.984375 
L 18.40625 64.59375 
L 9.421875 64.59375 
z
" id="DejaVuSans-105"/>
      <path d="M 48.78125 52.59375 
L 48.78125 44.1875 
Q 44.96875 46.296875 41.140625 47.34375 
Q 37.3125 48.390625 33.40625 48.390625 
Q 24.65625 48.390625 19.8125 42.84375 
Q 14.984375 37.3125 14.984375 27.296875 
Q 14.984375 17.28125 19.8125 11.734375 
Q 24.65625 6.203125 33.40625 6.203125 
Q 37.3125 6.203125 41.140625 7.25 
Q 44.96875 8.296875 48.78125 10.40625 
L 48.78125 2.09375 
Q 45.015625 0.34375 40.984375 -0.53125 
Q 36.96875 -1.421875 32.421875 -1.421875 
Q 20.0625 -1.421875 12.78125 6.34375 
Q 5.515625 14.109375 5.515625 27.296875 
Q 5.515625 40.671875 12.859375 48.328125 
Q 20.21875 56 33.015625 56 
Q 37.15625 56 41.109375 55.140625 
Q 45.0625 54.296875 48.78125 52.59375 
z
" id="DejaVuSans-99"/>
      <path d="M 56.203125 29.59375 
L 56.203125 25.203125 
L 14.890625 25.203125 
Q 15.484375 15.921875 20.484375 11.0625 
Q 25.484375 6.203125 34.421875 6.203125 
Q 39.59375 6.203125 44.453125 7.46875 
Q 49.3125 8.734375 54.109375 11.28125 
L 54.109375 2.78125 
Q 49.265625 0.734375 44.1875 -0.34375 
Q 39.109375 -1.421875 33.890625 -1.421875 
Q 20.796875 -1.421875 13.15625 6.1875 
Q 5.515625 13.8125 5.515625 26.8125 
Q 5.515625 40.234375 12.765625 48.109375 
Q 20.015625 56 32.328125 56 
Q 43.359375 56 49.78125 48.890625 
Q 56.203125 41.796875 56.203125 29.59375 
z
M 47.21875 32.234375 
Q 47.125 39.59375 43.09375 43.984375 
Q 39.0625 48.390625 32.421875 48.390625 
Q 24.90625 48.390625 20.390625 44.140625 
Q 15.875 39.890625 15.1875 32.171875 
z
" id="DejaVuSans-101"/>
      <path id="DejaVuSans-32"/>
      <path d="M 33.796875 -14.703125 
L 28.90625 -14.703125 
L 28.859375 0 
Q 23.734375 0.09375 18.609375 1.1875 
Q 13.484375 2.296875 8.296875 4.5 
L 8.296875 13.28125 
Q 13.28125 10.15625 18.375 8.5625 
Q 23.484375 6.984375 28.90625 6.9375 
L 28.90625 29.203125 
Q 18.109375 30.953125 13.203125 35.15625 
Q 8.296875 39.359375 8.296875 46.6875 
Q 8.296875 54.640625 13.625 59.21875 
Q 18.953125 63.8125 28.90625 64.5 
L 28.90625 75.984375 
L 33.796875 75.984375 
L 33.796875 64.65625 
Q 38.328125 64.453125 42.578125 63.6875 
Q 46.828125 62.9375 50.875 61.625 
L 50.875 53.078125 
Q 46.828125 55.125 42.546875 56.25 
Q 38.28125 57.375 33.796875 57.5625 
L 33.796875 36.71875 
Q 44.875 35.015625 50.09375 30.609375 
Q 55.328125 26.21875 55.328125 18.609375 
Q 55.328125 10.359375 49.78125 5.59375 
Q 44.234375 0.828125 33.796875 0.09375 
z
M 28.90625 37.59375 
L 28.90625 57.625 
Q 23.25 56.984375 20.265625 54.390625 
Q 17.28125 51.8125 17.28125 47.515625 
Q 17.28125 43.3125 20.03125 40.96875 
Q 22.796875 38.625 28.90625 37.59375 
z
M 33.796875 28.21875 
L 33.796875 7.078125 
Q 39.984375 7.90625 43.140625 10.59375 
Q 46.296875 13.28125 46.296875 17.671875 
Q 46.296875 21.96875 43.28125 24.5 
Q 40.28125 27.046875 33.796875 28.21875 
z
" id="DejaVuSans-36"/>
     </defs>
     <g transform="translate(14.798438 172.342094)rotate(-90)scale(0.1 -0.1)">
      <use xlink:href="#DejaVuSans-80"/>
      <use x="58.552734" xlink:href="#DejaVuSans-114"/>
      <use x="99.666016" xlink:href="#DejaVuSans-105"/>
      <use x="127.449219" xlink:href="#DejaVuSans-99"/>
      <use x="182.429688" xlink:href="#DejaVuSans-101"/>
      <use x="243.953125" xlink:href="#DejaVuSans-32"/>
      <use x="275.740234" xlink:href="#DejaVuSans-36"/>
     </g>
    </g>
   </g>
   <g id="line2d_31">
    <path clip-path="url(#p56e22b284f)" d="M 63.198352 273.438358 
L 63.443005 275.011406 
L 63.687658 275.449821 
L 63.932311 276.334125 
L 65.155576 273.133594 
L 65.400229 273.783514 
L 65.644882 273.525435 
L 65.889535 273.04611 
L 66.134188 273.060682 
L 66.378841 273.552386 
L 66.868147 273.228583 
L 67.1128 273.331334 
L 67.602106 274.037135 
L 68.091412 273.369915 
L 68.580719 274.452102 
L 69.070025 274.347366 
L 69.314678 274.436638 
L 69.559331 274.290605 
L 69.803984 274.410584 
L 70.048637 274.758599 
L 70.29329 274.411784 
L 70.537943 273.612653 
L 70.782596 274.657075 
L 71.027249 274.783647 
L 71.761208 272.949747 
L 72.005861 271.782232 
L 72.250514 272.52453 
L 72.495167 272.854368 
L 72.73982 272.769414 
L 72.984473 273.184428 
L 73.229126 272.813789 
L 73.473779 274.653388 
L 73.718432 274.585515 
L 74.207738 273.549563 
L 74.452391 273.548633 
L 74.697044 273.424361 
L 74.941697 273.610034 
L 75.18635 273.409905 
L 75.431003 273.653891 
L 75.675656 273.716249 
L 75.920309 274.060323 
L 76.164962 274.12256 
L 76.409615 273.676793 
L 76.898921 274.581502 
L 77.143574 274.097119 
L 77.388227 273.275399 
L 77.877533 274.472671 
L 78.122186 274.544859 
L 78.366839 273.931984 
L 78.611492 274.383966 
L 78.856145 274.555794 
L 79.100798 274.389248 
L 79.345451 274.473333 
L 79.590104 273.574278 
L 79.834757 273.638441 
L 80.07941 272.249043 
L 80.324063 272.373962 
L 80.568716 272.192131 
L 80.813369 272.191185 
L 81.058022 272.905098 
L 81.547328 271.86588 
L 81.791981 272.002738 
L 82.036634 272.400676 
L 82.52594 271.080132 
L 82.770593 271.168644 
L 83.259899 271.893932 
L 83.749205 271.578109 
L 84.238511 270.350707 
L 84.727817 270.032956 
L 85.217123 270.937456 
L 85.461776 270.908377 
L 85.706429 270.659095 
L 86.195735 269.774754 
L 86.440388 269.880723 
L 86.685041 271.069718 
L 86.929694 270.831363 
L 87.174347 270.223202 
L 87.419 270.060765 
L 87.908306 270.294996 
L 88.152959 271.088888 
L 88.397612 270.677158 
L 88.642265 270.684128 
L 88.886918 270.970642 
L 89.131571 270.973103 
L 89.376224 270.645074 
L 89.620877 269.506649 
L 90.599489 270.677945 
L 90.844143 270.541986 
L 91.088796 270.638996 
L 91.333449 271.126893 
L 91.578102 270.882997 
L 91.822755 270.205809 
L 92.312061 270.114192 
L 92.556714 270.021526 
L 92.801367 269.710315 
L 93.04602 269.191641 
L 93.290673 268.234145 
L 93.535326 268.191042 
L 93.779979 267.903876 
L 94.024632 267.910262 
L 94.269285 268.265287 
L 94.513938 268.041721 
L 94.758591 267.285308 
L 95.003244 267.709752 
L 95.247897 267.627741 
L 95.49255 267.026137 
L 95.737203 267.080539 
L 95.981856 267.40721 
L 96.226509 268.188559 
L 96.471162 268.363867 
L 96.715815 267.7989 
L 96.960468 267.60601 
L 97.205121 268.534308 
L 97.449774 267.109556 
L 97.694427 267.613737 
L 97.93908 270.297385 
L 98.183733 269.257352 
L 98.428386 270.212038 
L 98.673039 270.321269 
L 98.917692 269.812133 
L 99.406998 270.459113 
L 100.38561 267.743729 
L 100.630263 267.578942 
L 100.874916 267.188673 
L 101.119569 267.054392 
L 101.364222 267.279687 
L 101.853528 269.693872 
L 102.342834 269.301751 
L 102.587487 268.718778 
L 103.076793 268.333536 
L 103.321446 267.774368 
L 103.566099 267.736124 
L 103.810752 267.511301 
L 104.055405 267.746038 
L 104.300058 263.938312 
L 104.544711 263.558408 
L 104.789364 265.886569 
L 105.034017 265.346954 
L 105.27867 265.801074 
L 105.523323 265.480678 
L 105.767976 266.305633 
L 106.257282 264.213085 
L 106.501935 264.159622 
L 106.746588 264.630073 
L 106.991241 262.995225 
L 107.235894 262.714576 
L 107.480547 261.709877 
L 107.7252 261.406389 
L 108.214506 259.376872 
L 108.459159 260.105153 
L 108.703812 258.888757 
L 108.948465 259.235633 
L 109.193118 257.130632 
L 109.682424 257.936906 
L 110.17173 256.400979 
L 110.416383 253.58947 
L 110.661036 256.479021 
L 110.905689 256.058829 
L 111.150342 245.819897 
L 111.394995 241.925942 
L 111.639648 235.046293 
L 111.884301 237.405932 
L 112.128954 237.114223 
L 112.373607 231.010483 
L 112.61826 233.042469 
L 113.107566 234.335161 
L 113.35222 232.905853 
L 113.841526 226.37211 
L 114.086179 217.881782 
L 114.330832 222.549321 
L 114.575485 222.21981 
L 115.064791 230.046425 
L 115.309444 229.104713 
L 115.79875 228.584938 
L 116.043403 225.151538 
L 116.288056 226.332753 
L 116.532709 229.152752 
L 116.777362 227.225394 
L 117.022015 227.16172 
L 117.511321 224.312139 
L 117.755974 224.148866 
L 118.000627 223.341266 
L 118.24528 225.612123 
L 118.489933 226.012955 
L 118.979239 224.023621 
L 119.468545 219.823887 
L 119.713198 221.127058 
L 119.957851 214.696737 
L 120.202504 213.672755 
L 120.447157 215.605352 
L 120.69181 212.353862 
L 121.181116 210.096843 
L 121.425769 211.264009 
L 121.915075 206.503824 
L 122.159728 207.797014 
L 122.404381 219.873343 
L 122.649034 213.3912 
L 122.893687 213.791468 
L 123.13834 212.851726 
L 123.382993 210.934975 
L 123.627646 210.838378 
L 123.872299 211.843215 
L 124.116952 210.452176 
L 124.606258 203.917586 
L 124.850911 205.632262 
L 125.095564 203.837086 
L 125.58487 201.69756 
L 125.829523 196.99034 
L 126.074176 198.708618 
L 126.318829 203.460962 
L 126.563482 189.299319 
L 126.808135 190.795956 
L 127.052788 194.595654 
L 127.297441 195.565993 
L 127.542094 199.610526 
L 127.786747 199.803596 
L 128.276053 196.630943 
L 128.520706 193.72752 
L 128.765359 194.982 
L 129.010012 188.899416 
L 129.499318 183.58113 
L 129.743971 182.700825 
L 130.233277 182.677713 
L 130.47793 180.54224 
L 130.722583 180.461022 
L 130.967236 179.574056 
L 131.211889 180.334987 
L 131.456542 181.930473 
L 131.701195 186.210214 
L 131.945848 182.471281 
L 132.190501 184.170553 
L 132.435154 183.063526 
L 132.679807 182.845394 
L 132.92446 181.894861 
L 133.169113 182.587762 
L 133.413766 182.27351 
L 133.658419 174.420177 
L 133.903072 170.566292 
L 134.147725 172.265964 
L 134.392378 171.363727 
L 135.37099 164.822796 
L 135.615643 164.961813 
L 136.10495 177.710552 
L 136.349603 172.482628 
L 136.594256 170.883427 
L 137.083562 179.940636 
L 137.572868 174.698273 
L 137.817521 174.279559 
L 138.062174 170.424053 
L 138.306827 170.825012 
L 138.55148 170.767993 
L 138.796133 170.307141 
L 139.040786 176.565122 
L 139.285439 178.060332 
L 139.530092 182.372965 
L 139.774745 177.590521 
L 140.019398 179.160555 
L 140.264051 182.947486 
L 140.508704 183.462218 
L 140.753357 185.832048 
L 140.99801 186.266546 
L 141.242663 184.587912 
L 141.487316 177.076498 
L 141.731969 175.099243 
L 141.976622 192.634829 
L 142.221275 198.509708 
L 142.465928 199.928123 
L 142.710581 196.262044 
L 142.955234 200.050699 
L 143.199887 199.474156 
L 143.689193 202.174647 
L 143.933846 209.517206 
L 144.178499 207.722385 
L 144.423152 210.923044 
L 144.667805 210.902283 
L 144.912458 212.060828 
L 145.157111 211.706214 
L 145.401764 212.50991 
L 145.646417 208.701391 
L 145.89107 207.783304 
L 146.135723 209.735548 
L 146.380376 197.570567 
L 146.625029 200.1246 
L 146.869682 198.448481 
L 147.114335 200.336266 
L 147.358988 198.818551 
L 147.603641 198.205309 
L 147.848294 199.761006 
L 148.092947 195.221991 
L 148.3376 194.303488 
L 148.582253 194.009813 
L 148.826906 191.605593 
L 149.071559 194.206639 
L 149.316212 198.425431 
L 149.560865 196.998252 
L 149.805518 196.684381 
L 150.050171 191.311477 
L 150.294824 188.758152 
L 150.539477 191.604823 
L 150.78413 190.880694 
L 151.028783 192.097757 
L 151.273436 192.705303 
L 151.518089 192.903248 
L 151.762742 194.250348 
L 152.252048 191.636771 
L 152.986007 199.048823 
L 153.23066 186.869915 
L 153.719966 178.341671 
L 153.964619 179.165953 
L 154.209272 174.826781 
L 154.698578 172.72108 
L 155.187884 179.639542 
L 155.432537 174.467457 
L 155.67719 176.681983 
L 155.921843 171.038249 
L 156.166496 172.431654 
L 156.411149 174.470833 
L 156.655802 173.14005 
L 156.900455 176.418696 
L 157.145108 173.647331 
L 157.879067 161.405903 
L 158.12372 162.844576 
L 158.368374 159.687235 
L 158.613027 160.469471 
L 158.85768 156.207043 
L 159.102333 163.162358 
L 159.346986 150.946012 
L 159.591639 152.182635 
L 159.836292 148.249975 
L 160.080945 126.665987 
L 160.325598 123.651193 
L 160.570251 122.699275 
L 160.814904 127.647625 
L 161.059557 126.518882 
L 161.30421 122.994479 
L 161.548863 124.664912 
L 161.793516 124.942423 
L 162.527475 136.104133 
L 162.772128 132.73296 
L 163.016781 134.750691 
L 163.261434 138.904725 
L 163.506087 136.798675 
L 163.75074 133.449105 
L 163.995393 135.714513 
L 164.240046 136.315933 
L 164.484699 139.437745 
L 164.729352 145.501137 
L 164.974005 144.925281 
L 165.463311 153.802761 
L 165.707964 150.178687 
L 165.952617 152.732321 
L 166.19727 148.168675 
L 166.441923 140.131886 
L 166.686576 142.500013 
L 166.931229 149.645997 
L 167.175882 153.260003 
L 167.420535 148.738731 
L 167.665188 148.114498 
L 167.909841 155.763432 
L 168.154494 157.086353 
L 168.399147 159.568312 
L 168.6438 163.286895 
L 168.888453 160.026045 
L 169.133106 160.650801 
L 169.377759 157.122385 
L 169.622412 148.093152 
L 169.867065 154.052882 
L 170.111718 153.931444 
L 170.356371 159.08989 
L 170.601024 160.152973 
L 170.845677 155.361251 
L 171.334983 154.149607 
L 171.579636 152.024375 
L 171.824289 148.474911 
L 172.313595 158.057 
L 172.558248 173.263479 
L 172.802901 169.997559 
L 173.047554 168.738533 
L 173.292207 166.041931 
L 173.53686 165.720127 
L 173.781513 166.824239 
L 174.026166 165.038813 
L 174.270819 162.12719 
L 174.515472 162.334792 
L 174.760125 160.072288 
L 175.004778 156.174921 
L 175.249431 154.881679 
L 175.494084 151.50829 
L 175.738737 152.435013 
L 175.98339 152.615142 
L 176.228043 153.456388 
L 176.472696 155.77822 
L 176.717349 155.819537 
L 176.962002 156.517086 
L 177.206655 154.413622 
L 177.451308 153.498075 
L 177.940614 157.176921 
L 178.185267 156.406189 
L 178.42992 156.3957 
L 178.674573 154.594665 
L 178.919226 143.450289 
L 179.163879 138.072038 
L 179.408532 141.087427 
L 179.653185 139.479821 
L 179.897838 139.201089 
L 180.142491 134.659846 
L 180.387144 136.782512 
L 180.631798 135.039624 
L 180.876451 135.217383 
L 181.365757 132.238713 
L 181.61041 132.876319 
L 181.855063 138.699473 
L 182.099716 139.834907 
L 182.589022 146.646997 
L 182.833675 144.183008 
L 183.078328 147.078848 
L 183.322981 147.427458 
L 183.567634 142.188112 
L 183.812287 146.219601 
L 184.301593 148.599314 
L 184.546246 146.065652 
L 184.790899 145.738778 
L 185.035552 146.053059 
L 185.280205 144.254313 
L 186.258817 142.1298 
L 186.50347 140.183374 
L 186.748123 143.273043 
L 186.992776 136.759318 
L 187.237429 133.855556 
L 187.482082 133.629132 
L 187.726735 126.980412 
L 187.971388 123.994549 
L 188.216041 126.995693 
L 188.460694 118.952276 
L 188.705347 119.567046 
L 189.194653 118.012816 
L 189.439306 118.137979 
L 189.683959 118.509034 
L 189.928612 121.283939 
L 190.173265 122.029507 
L 190.417918 122.362867 
L 190.662571 121.550469 
L 190.907224 117.312927 
L 191.151877 117.359273 
L 191.641183 116.946121 
L 191.885836 112.307527 
L 192.130489 103.563585 
L 192.375142 103.662106 
L 192.619795 101.60041 
L 192.864448 107.287349 
L 193.109101 104.940107 
L 193.353754 106.206554 
L 193.598407 105.815692 
L 193.84306 105.698657 
L 194.087713 106.881258 
L 194.332366 122.244529 
L 194.577019 118.579333 
L 194.821672 118.302673 
L 195.066325 116.946265 
L 195.310978 120.375062 
L 195.555631 126.218948 
L 195.800284 126.285398 
L 196.044937 125.446399 
L 196.28959 128.149897 
L 196.534243 128.415268 
L 196.778896 131.053413 
L 197.023549 130.709473 
L 197.268202 132.480829 
L 197.512855 124.870585 
L 197.757508 122.772642 
L 198.002161 119.128587 
L 198.246814 120.178082 
L 198.491467 120.460365 
L 198.73612 121.331198 
L 198.980773 134.755114 
L 199.225426 141.098952 
L 199.470079 139.660628 
L 199.714732 139.529359 
L 199.959385 142.057849 
L 200.204038 139.858634 
L 200.448691 138.665822 
L 200.693344 135.787193 
L 200.937997 138.019022 
L 201.18265 135.347512 
L 201.427303 135.851735 
L 201.671956 144.071156 
L 201.916609 130.970841 
L 202.161262 133.557612 
L 202.405915 133.485158 
L 202.650568 130.617848 
L 202.895221 130.408152 
L 203.139875 133.212542 
L 203.384528 137.822965 
L 203.629181 131.494172 
L 203.873834 132.257114 
L 204.118487 131.457442 
L 204.36314 125.644858 
L 204.607793 126.992748 
L 204.852446 124.507145 
L 205.097099 120.822224 
L 205.341752 123.533696 
L 205.586405 120.825652 
L 205.831058 127.925311 
L 206.075711 126.732437 
L 206.320364 129.580709 
L 206.80967 127.362489 
L 207.054323 127.128276 
L 207.298976 129.711239 
L 207.543629 137.846631 
L 207.788282 137.900684 
L 208.032935 139.696167 
L 208.277588 139.962061 
L 208.522241 142.583212 
L 208.766894 148.841091 
L 209.011547 148.079185 
L 209.2562 152.602006 
L 209.500853 152.609416 
L 209.990159 155.590486 
L 210.234812 160.187732 
L 210.479465 155.630285 
L 210.724118 146.542678 
L 210.968771 146.406904 
L 211.213424 144.265252 
L 211.458077 145.231949 
L 211.70273 144.601476 
L 211.947383 140.90541 
L 212.436689 144.618594 
L 212.681342 144.026072 
L 212.925995 146.913661 
L 213.170648 153.150552 
L 213.415301 152.181034 
L 213.659954 151.666611 
L 213.904607 151.68885 
L 214.393913 158.057565 
L 214.638566 155.738032 
L 214.883219 166.039509 
L 215.372525 163.342559 
L 215.617178 164.142529 
L 216.106484 158.042468 
L 216.351137 158.550467 
L 216.59579 154.848541 
L 216.840443 155.395497 
L 217.085096 159.466723 
L 217.329749 155.995541 
L 217.574402 156.636974 
L 218.063708 146.861209 
L 218.308361 146.716506 
L 218.553014 144.538289 
L 218.797667 146.925319 
L 219.04232 147.498003 
L 219.286973 148.374922 
L 219.531626 151.703464 
L 219.776279 159.730277 
L 220.020932 156.92052 
L 220.265585 156.126533 
L 220.510238 156.190797 
L 220.999544 148.452384 
L 221.244197 154.45885 
L 221.48885 156.498788 
L 221.733503 156.433282 
L 221.978156 153.76635 
L 222.222809 156.502996 
L 222.467462 160.949505 
L 222.956768 157.76076 
L 223.201421 158.851182 
L 223.446074 163.282461 
L 223.690727 165.091943 
L 223.93538 165.54362 
L 224.180033 162.755128 
L 224.669339 166.701796 
L 224.913992 161.941591 
L 225.158645 162.391595 
L 225.403298 159.131125 
L 225.647952 161.816787 
L 226.381911 158.11366 
L 226.626564 163.493676 
L 226.871217 165.59871 
L 227.11587 169.517033 
L 227.360523 165.880562 
L 227.849829 167.023662 
L 228.094482 164.840878 
L 228.339135 156.214555 
L 228.583788 156.983532 
L 228.828441 153.56823 
L 229.073094 152.43879 
L 229.317747 152.052259 
L 229.5624 152.732998 
L 229.807053 154.46042 
L 230.051706 153.91762 
L 230.296359 154.716164 
L 230.541012 155.130958 
L 230.785665 156.109702 
L 231.030318 153.316458 
L 231.274971 146.720283 
L 231.519624 147.553473 
L 231.764277 146.397134 
L 232.00893 137.5203 
L 232.253583 138.873373 
L 232.498236 136.987025 
L 232.742889 141.794592 
L 232.987542 141.712173 
L 233.232195 137.875725 
L 233.476848 136.299071 
L 233.721501 138.906645 
L 233.966154 135.886894 
L 234.210807 135.668619 
L 234.700113 129.278414 
L 234.944766 130.353114 
L 235.189419 129.430249 
L 235.434072 126.599403 
L 235.923378 127.991751 
L 236.168031 129.903089 
L 236.657337 127.335129 
L 236.90199 127.86549 
L 237.146643 127.793518 
L 237.391296 124.956524 
L 237.635949 125.103033 
L 238.125255 127.599124 
L 238.369908 126.316986 
L 238.614561 128.350182 
L 238.859214 126.291761 
L 239.103867 121.123842 
L 239.34852 122.06988 
L 239.593173 125.621541 
L 239.837826 124.016993 
L 240.327132 125.828199 
L 240.571785 123.609999 
L 240.816438 118.953055 
L 241.305744 117.540531 
L 241.550397 119.713925 
L 241.79505 114.306293 
L 242.039703 116.13359 
L 242.284356 112.869939 
L 242.529009 114.946371 
L 242.773662 118.473484 
L 243.018315 113.631383 
L 243.262968 112.390429 
L 243.507621 105.083209 
L 243.752274 106.610449 
L 244.24158 123.439876 
L 244.486233 119.549826 
L 244.730886 118.779617 
L 244.975539 117.498496 
L 245.220192 115.516684 
L 245.464845 117.008949 
L 245.709498 114.488495 
L 246.198804 104.756017 
L 246.443457 115.688439 
L 246.68811 114.783237 
L 246.932763 114.773918 
L 247.177416 115.361001 
L 247.422069 123.344136 
L 247.666722 115.744473 
L 247.911375 116.632291 
L 248.156029 114.795182 
L 248.400682 114.985061 
L 248.645335 118.934275 
L 248.889988 114.817268 
L 249.134641 112.904585 
L 249.379294 130.994003 
L 249.623947 131.375064 
L 249.8686 132.124993 
L 250.113253 134.459438 
L 250.357906 133.621917 
L 250.602559 130.09151 
L 250.847212 129.522254 
L 251.091865 121.464448 
L 251.336518 118.447314 
L 251.581171 122.129146 
L 252.31513 148.267842 
L 252.559783 143.981666 
L 252.804436 141.691186 
L 253.049089 129.809843 
L 253.293742 126.794721 
L 253.538395 126.336013 
L 253.783048 133.178224 
L 254.027701 126.350319 
L 254.517007 131.616748 
L 254.76166 126.791673 
L 255.006313 125.62151 
L 255.250966 126.664981 
L 255.495619 125.788123 
L 255.740272 123.687369 
L 255.984925 123.597273 
L 256.229578 118.169177 
L 256.474231 118.021519 
L 256.718884 118.982694 
L 256.963537 115.648272 
L 257.20819 119.001844 
L 257.697496 117.60808 
L 257.942149 120.487787 
L 258.186802 126.163376 
L 258.431455 127.010338 
L 258.676108 126.055269 
L 258.920761 131.998219 
L 259.165414 127.767184 
L 259.410067 128.197988 
L 259.65472 132.262995 
L 259.899373 138.313866 
L 260.633332 147.592573 
L 260.877985 145.931745 
L 261.122638 147.283443 
L 261.367291 145.213281 
L 261.611944 140.742912 
L 261.856597 140.860808 
L 262.10125 151.402503 
L 262.345903 152.583913 
L 262.590556 150.772831 
L 262.835209 152.225728 
L 263.079862 148.745823 
L 263.324515 151.894441 
L 263.569168 150.801566 
L 263.813821 151.458116 
L 264.058474 154.86411 
L 264.303127 150.37616 
L 264.54778 153.679908 
L 264.792433 136.986573 
L 265.037086 137.685087 
L 265.281739 137.502792 
L 265.771045 147.997094 
L 266.015698 146.907719 
L 266.505004 154.162794 
L 266.749657 150.18465 
L 266.99431 149.848652 
L 267.238963 145.783399 
L 267.483616 144.303594 
L 267.972922 147.783468 
L 268.217575 147.197442 
L 268.462228 139.591519 
L 268.706881 138.391421 
L 268.951534 138.966209 
L 269.196187 134.156937 
L 269.44084 137.51404 
L 269.685493 136.432608 
L 269.930146 138.939762 
L 270.174799 138.77322 
L 270.419452 141.736157 
L 270.664106 143.319359 
L 270.908759 141.172289 
L 271.153412 147.208146 
L 271.398065 146.681038 
L 271.642718 144.819741 
L 271.887371 136.490284 
L 272.132024 137.037835 
L 272.376677 138.73959 
L 272.62133 137.112957 
L 273.110636 138.854562 
L 273.355289 138.646888 
L 273.599942 139.607683 
L 273.844595 134.936167 
L 274.333901 132.405419 
L 274.578554 144.789302 
L 274.823207 143.838421 
L 275.312513 148.899167 
L 275.801819 153.090229 
L 276.046472 152.104927 
L 276.291125 158.046645 
L 276.535778 155.128443 
L 276.780431 156.782087 
L 277.025084 156.137534 
L 277.269737 160.744222 
L 277.759043 157.339008 
L 278.003696 161.550637 
L 278.248349 163.546015 
L 278.493002 167.00715 
L 278.982308 164.757084 
L 279.226961 161.964507 
L 279.716267 176.407673 
L 279.96092 175.85025 
L 280.450226 192.956665 
L 280.694879 192.252363 
L 280.939532 194.708255 
L 281.184185 189.271826 
L 281.428838 189.965865 
L 281.673491 186.874071 
L 281.918144 179.63322 
L 282.40745 181.536563 
L 282.652103 173.997009 
L 282.896756 174.613247 
L 283.141409 174.41953 
L 283.386062 168.642639 
L 283.630715 165.948419 
L 283.875368 165.899969 
L 284.120021 163.963292 
L 284.364674 167.847647 
L 284.609327 167.313386 
L 285.098633 158.280571 
L 285.343286 155.883124 
L 285.587939 156.990039 
L 285.832592 153.344382 
L 286.077245 155.166641 
L 286.321898 154.184079 
L 286.566551 148.680255 
L 286.811204 147.321722 
L 287.30051 141.873943 
L 287.789816 133.367435 
L 288.034469 136.162117 
L 288.279122 142.815701 
L 288.523775 141.695825 
L 288.768428 139.424844 
L 289.013081 139.717749 
L 289.257734 140.667071 
L 289.502387 138.409894 
L 289.991693 126.164935 
L 290.236346 122.962973 
L 290.480999 115.757404 
L 290.970305 124.731229 
L 291.214958 125.008094 
L 291.459611 126.801556 
L 291.704264 123.173089 
L 291.948917 124.774332 
L 292.19357 123.766391 
L 292.438223 123.984163 
L 292.682876 128.303128 
L 292.92753 126.660219 
L 293.172183 127.407121 
L 293.416836 124.070564 
L 293.661489 124.793985 
L 293.906142 124.134716 
L 294.150795 125.122388 
L 294.395448 127.32501 
L 294.640101 131.643041 
L 294.884754 131.700091 
L 295.618713 149.908637 
L 295.863366 148.279706 
L 296.108019 152.067335 
L 296.352672 153.02304 
L 296.597325 152.859998 
L 296.841978 154.150643 
L 297.086631 153.982531 
L 297.331284 153.455064 
L 297.575937 155.977356 
L 297.82059 151.555559 
L 298.065243 149.472815 
L 298.309896 145.976736 
L 298.554549 148.549243 
L 298.799202 147.860232 
L 299.043855 146.136443 
L 299.288508 143.221392 
L 299.533161 144.081716 
L 299.777814 144.295537 
L 300.022467 146.532436 
L 300.26712 146.885582 
L 300.511773 146.358557 
L 300.756426 145.486574 
L 301.001079 137.839036 
L 301.245732 135.154278 
L 301.490385 139.254147 
L 301.735038 145.889391 
L 301.979691 146.526607 
L 302.224344 148.072463 
L 302.468997 146.071347 
L 302.71365 146.943925 
L 302.958303 148.389269 
L 303.202956 145.361032 
L 303.447609 145.705619 
L 303.692262 162.7271 
L 303.936915 161.609708 
L 304.181568 163.867419 
L 305.16018 151.404237 
L 305.404833 149.315828 
L 305.649486 151.17222 
L 305.894139 150.577174 
L 306.383445 148.018379 
L 306.628098 142.665969 
L 306.872751 143.084037 
L 307.117404 144.237882 
L 307.362057 144.717464 
L 307.60671 145.628608 
L 307.851363 142.381316 
L 308.096016 142.36507 
L 308.340669 140.390586 
L 308.585322 145.513093 
L 308.829975 144.153677 
L 309.074628 139.488175 
L 309.563934 139.930883 
L 309.808587 138.714734 
L 310.05324 136.014489 
L 310.542546 140.85735 
L 310.787199 141.778665 
L 311.031852 139.254393 
L 311.276505 139.111968 
L 311.521158 141.763825 
L 311.765811 139.941228 
L 312.010464 141.995062 
L 312.255117 142.594685 
L 312.744423 141.935867 
L 312.989076 143.400526 
L 313.233729 143.455841 
L 313.478382 143.1455 
L 313.723035 142.338438 
L 313.967688 143.870563 
L 314.212341 142.471278 
L 314.9463 145.664281 
L 315.435607 151.179281 
L 315.68026 150.996042 
L 315.924913 159.117066 
L 316.169566 160.353566 
L 316.414219 156.555253 
L 316.658872 157.362479 
L 316.903525 160.872207 
L 317.148178 162.301151 
L 317.392831 160.046816 
L 317.637484 161.964579 
L 317.882137 161.804287 
L 318.616096 154.769396 
L 318.860749 156.069801 
L 319.105402 155.756104 
L 319.839361 152.979393 
L 320.084014 154.961963 
L 320.328667 154.654773 
L 320.57332 158.273285 
L 320.817973 156.083409 
L 321.062626 149.175036 
L 321.307279 151.868764 
L 321.551932 153.090455 
L 321.796585 158.603792 
L 322.041238 161.047277 
L 322.285891 157.648805 
L 322.530544 158.623157 
L 322.775197 157.578476 
L 323.01985 158.68307 
L 323.509156 162.513454 
L 323.998462 156.559317 
L 324.243115 160.122442 
L 324.487768 159.023748 
L 324.732421 156.566409 
L 325.221727 158.224045 
L 325.46638 155.120757 
L 326.444992 166.793113 
L 326.689645 167.009633 
L 327.178951 163.523027 
L 327.423604 162.726967 
L 327.668257 167.156809 
L 327.91291 169.362078 
L 328.157563 167.195366 
L 328.402216 171.558234 
L 328.646869 169.73339 
L 328.891522 169.95147 
L 329.136175 167.00873 
L 329.380828 168.648037 
L 329.625481 169.041485 
L 329.870134 165.190289 
L 330.114787 163.776944 
L 330.35944 161.600318 
L 330.604093 161.651559 
L 330.848746 165.815456 
L 331.093399 165.959051 
L 331.338052 170.82177 
L 331.582705 171.010735 
L 331.827358 167.670955 
L 332.072011 168.834355 
L 332.316664 164.161669 
L 332.561317 164.9781 
L 332.80597 164.436655 
L 333.050623 164.242702 
L 333.295276 160.36352 
L 333.539929 160.034922 
L 333.784582 160.65347 
L 334.029235 157.350882 
L 334.273888 157.214728 
L 334.518541 153.576081 
L 334.763194 154.002112 
L 335.007847 153.137868 
L 335.2525 150.41758 
L 335.497153 146.317044 
L 335.741806 146.166092 
L 335.986459 149.211191 
L 336.231112 149.562695 
L 336.475765 147.231299 
L 336.720418 141.705061 
L 336.965071 142.291672 
L 337.454377 138.430039 
L 337.69903 139.45084 
L 337.943684 139.74514 
L 338.188337 139.821135 
L 338.43299 134.73191 
L 338.677643 135.831332 
L 338.922296 133.751955 
L 339.166949 129.233731 
L 339.411602 129.247493 
L 339.900908 122.839452 
L 340.145561 122.705946 
L 340.390214 123.862798 
L 340.634867 124.043224 
L 340.87952 125.325742 
L 341.124173 124.836421 
L 341.368826 126.167511 
L 341.613479 125.02943 
L 341.858132 125.175292 
L 342.102785 121.35783 
L 342.347438 120.968138 
L 342.592091 117.896254 
L 342.836744 112.61752 
L 343.081397 113.136192 
L 343.32605 105.485442 
L 343.570703 104.523631 
L 343.815356 106.046519 
L 344.060009 112.203588 
L 344.304662 111.367165 
L 344.549315 107.179674 
L 344.793968 108.883492 
L 345.038621 120.453469 
L 345.283274 120.976225 
L 345.527927 128.342598 
L 345.77258 126.692146 
L 346.017233 125.987002 
L 346.261886 125.959304 
L 346.506539 125.372806 
L 346.751192 125.480256 
L 347.240498 127.743827 
L 347.729804 129.606469 
L 347.974457 128.31453 
L 348.21911 121.011528 
L 348.463763 122.029866 
L 348.708416 116.945547 
L 348.953069 116.726974 
L 349.197722 117.336798 
L 349.442375 123.56938 
L 349.687028 122.033909 
L 349.931681 121.719227 
L 350.66564 107.111674 
L 350.910293 107.579485 
L 351.399599 106.648154 
L 351.644252 92.811024 
L 351.888905 90.379054 
L 352.133558 95.151247 
L 352.622864 91.378488 
L 352.867517 83.898344 
L 353.11217 85.947642 
L 353.356823 93.710028 
L 353.601476 89.885608 
L 353.846129 91.732876 
L 354.090782 92.661724 
L 354.335435 89.124164 
L 354.580088 89.62777 
L 354.824741 88.97825 
L 355.314047 83.790463 
L 355.5587 85.536727 
L 355.803353 86.35948 
L 356.048006 83.28191 
L 356.292659 77.009202 
L 356.537312 79.410508 
L 356.781965 84.183665 
L 357.026618 93.70461 
L 357.271271 86.817315 
L 357.515924 86.949149 
L 357.760577 78.989392 
L 358.00523 77.225168 
L 358.249883 78.118672 
L 358.494536 76.497365 
L 358.739189 82.198672 
L 358.983842 80.90815 
L 359.228495 88.021098 
L 359.473148 84.166937 
L 359.962454 85.395083 
L 360.207107 89.088984 
L 360.941067 76.174647 
L 361.430373 65.179212 
L 361.675026 65.365109 
L 361.919679 66.212739 
L 362.898291 47.049914 
L 363.142944 52.340265 
L 363.387597 52.49677 
L 363.63225 41.630972 
L 363.876903 37.830402 
L 364.121556 42.508466 
L 364.366209 44.168052 
L 364.610862 44.552017 
L 364.855515 42.592065 
L 365.100168 42.301448 
L 365.344821 37.742698 
L 365.589474 36.902991 
L 365.834127 39.94456 
L 366.07878 48.415928 
L 366.323433 45.17391 
L 366.568086 50.588747 
L 366.812739 50.340843 
L 367.057392 53.973681 
L 367.546698 82.030057 
L 367.791351 80.699039 
L 368.036004 81.422039 
L 368.280657 75.76716 
L 368.52531 73.370986 
L 368.769963 75.94692 
L 369.014616 74.427809 
L 369.259269 78.309946 
L 369.503922 74.7409 
L 369.748575 74.952104 
L 369.993228 72.831748 
L 370.237881 73.207216 
L 370.482534 64.934634 
L 370.727187 65.365335 
L 370.97184 63.900307 
L 371.216493 68.357315 
L 371.461146 68.307151 
L 371.705799 74.332592 
L 371.950452 77.491319 
L 372.195105 74.879917 
L 372.439758 59.132343 
L 372.684411 55.396673 
L 372.929064 55.676863 
L 373.173717 48.729594 
L 373.41837 49.678146 
L 373.663023 54.017462 
L 373.907676 52.91103 
L 374.152329 48.580212 
L 374.396982 50.916267 
L 374.641635 50.111207 
L 374.886288 57.049076 
L 375.130941 59.971126 
L 375.375594 66.728804 
L 375.620247 63.98249 
L 375.8649 57.586918 
L 376.109553 56.300029 
L 376.354206 59.671007 
L 376.598859 61.482171 
L 376.843512 60.586964 
L 377.088165 56.067109 
L 377.332818 54.237492 
L 377.577471 55.51184 
L 378.066777 61.87644 
L 378.31143 58.004114 
L 378.556083 62.790612 
L 378.800736 49.786888 
L 379.045389 50.61038 
L 379.290042 48.138222 
L 379.534695 40.978106 
L 379.779348 40.032633 
L 380.024001 35.58125 
L 380.268654 42.328254 
L 380.513307 43.040151 
L 380.75796 46.807367 
L 381.002613 55.865367 
L 381.247266 60.439491 
L 381.491919 60.582613 
L 381.981225 65.737539 
L 382.225878 63.835735 
L 382.470531 63.992527 
L 382.715184 61.369755 
L 382.959838 56.044634 
L 383.204491 55.607611 
L 383.449144 54.319182 
L 383.693797 62.256156 
L 383.93845 55.310611 
L 384.183103 56.551114 
L 384.427756 55.316009 
L 384.672409 55.680865 
L 384.917062 58.788813 
L 385.406368 52.461117 
L 385.895674 62.292814 
L 386.140327 66.370064 
L 386.38498 65.965451 
L 386.629633 73.586172 
L 386.874286 73.500562 
L 387.118939 78.064403 
L 387.363592 78.082527 
L 387.608245 71.178463 
L 387.852898 77.194442 
L 387.852898 77.194442 
" style="fill:none;stroke:#1f77b4;stroke-linecap:square;stroke-width:1.5;"/>
   </g>
   <g id="line2d_32">
    <path clip-path="url(#p56e22b284f)" d="M 63.198352 273.506015 
L 63.443005 274.958766 
L 63.687658 274.911686 
L 63.932311 275.698593 
L 64.176964 275.799478 
L 64.66627 274.340001 
L 64.910923 273.008313 
L 65.155576 273.788494 
L 65.644882 273.21681 
L 65.889535 272.389549 
L 66.134188 273.566546 
L 66.378841 273.579997 
L 66.623494 272.974685 
L 67.1128 273.506015 
L 67.357453 273.775043 
L 67.846759 272.685479 
L 68.336066 274.306373 
L 68.580719 274.057522 
L 68.825372 274.245842 
L 69.314678 274.171859 
L 69.803984 274.56195 
L 70.29329 273.613626 
L 70.537943 274.945314 
L 71.027249 274.333276 
L 71.516555 272.914153 
L 71.761208 271.468128 
L 72.005861 272.275212 
L 72.495167 272.571143 
L 72.73982 273.163004 
L 72.984473 272.732559 
L 73.229126 274.750269 
L 73.473779 274.830978 
L 73.963085 273.660706 
L 74.207738 273.741414 
L 74.452391 273.310969 
L 74.697044 273.647254 
L 74.941697 273.579997 
L 75.18635 273.923008 
L 75.431003 273.680883 
L 75.675656 274.272745 
L 76.164962 274.306373 
L 76.409615 274.763721 
L 76.654268 274.972217 
L 77.143574 273.970088 
L 77.388227 274.494693 
L 77.63288 274.696464 
L 77.877533 274.622481 
L 78.122186 274.259293 
L 78.366839 274.911686 
L 78.611492 274.844429 
L 78.856145 274.938589 
L 79.345451 273.680883 
L 79.590104 273.902831 
L 79.834757 272.167601 
L 80.07941 272.403 
L 80.324063 272.140698 
L 80.568716 272.295389 
L 80.813369 272.961233 
L 81.302675 272.093618 
L 81.547328 272.248309 
L 81.791981 272.624948 
L 82.281287 271.212551 
L 82.52594 271.158746 
L 83.015246 271.743882 
L 83.259899 271.649722 
L 83.504552 271.73043 
L 83.749205 271.004055 
L 83.993858 270.694672 
L 84.238511 270.607238 
L 84.483164 270.069182 
L 84.727817 270.553433 
L 84.97247 270.681221 
L 85.461776 270.371839 
L 85.706429 270.102811 
L 85.951082 269.625286 
L 86.195735 269.638738 
L 86.440388 270.748478 
L 86.685041 270.613964 
L 86.929694 270.217148 
L 87.419 270.075908 
L 87.663653 270.196971 
L 87.908306 270.486176 
L 88.152959 270.297856 
L 88.397612 270.761929 
L 88.642265 270.694672 
L 88.886918 271.01078 
L 89.131571 270.57361 
L 89.376224 269.571481 
L 89.86553 270.217148 
L 90.110183 270.257502 
L 90.354836 270.701398 
L 90.844143 270.802284 
L 91.088796 271.219277 
L 91.333449 270.983877 
L 91.578102 270.553433 
L 92.312061 270.136439 
L 92.801367 269.141036 
L 93.04602 268.475192 
L 93.290673 268.481917 
L 93.535326 267.775719 
L 93.779979 267.829524 
L 94.024632 268.11873 
L 94.269285 268.125455 
L 94.513938 267.594125 
L 94.758591 267.970764 
L 95.003244 267.708462 
L 95.247897 267.008989 
L 95.49255 266.800492 
L 95.737203 266.961909 
L 96.226509 267.869879 
L 96.471162 267.493239 
L 96.715815 267.594125 
L 96.960468 268.441563 
L 97.205121 266.935006 
L 97.449774 267.432708 
L 97.694427 269.705995 
L 97.93908 269.067053 
L 98.183733 270.230599 
L 98.428386 270.196971 
L 98.673039 269.746349 
L 99.162345 270.049005 
L 100.140957 267.641205 
L 100.38561 267.479788 
L 100.630263 267.056069 
L 101.119569 267.136777 
L 101.608875 269.61856 
L 102.098181 269.7598 
L 102.342834 269.174664 
L 102.587487 269.13431 
L 103.566099 267.688285 
L 103.810752 267.869879 
L 104.055405 263.807556 
L 104.300058 263.531802 
L 104.544711 265.710929 
L 104.789364 265.09889 
L 105.034017 265.529335 
L 105.27867 265.219953 
L 105.523323 266.114471 
L 106.012629 264.03623 
L 106.257282 263.928619 
L 106.501935 264.231275 
L 106.746588 262.69109 
L 106.991241 262.78525 
L 107.969853 259.045761 
L 108.214506 259.435852 
L 108.459159 258.379917 
L 108.703812 258.917973 
L 108.948465 256.402561 
L 109.437771 257.519027 
L 109.927077 256.664863 
L 110.17173 253.335642 
L 110.416383 256.019196 
L 110.661036 255.830877 
L 110.905689 246.6772 
L 111.150342 241.727085 
L 111.394995 234.301913 
L 111.639648 237.368832 
L 111.884301 236.29272 
L 112.128954 231.308976 
L 112.373607 231.813404 
L 112.61826 232.862613 
L 112.862913 234.443152 
L 113.107566 234.678552 
L 113.596873 228.060464 
L 113.841526 219.148912 
L 114.086179 222.98256 
L 114.330832 222.767338 
L 114.820138 231.080303 
L 115.064791 229.56702 
L 115.309444 229.210558 
L 115.554097 227.87887 
L 115.79875 224.724517 
L 116.043403 226.062931 
L 116.288056 229.815871 
L 116.532709 227.623293 
L 116.777362 227.320637 
L 117.266668 224.616905 
L 117.755974 222.948932 
L 118.000627 225.659389 
L 118.24528 226.399216 
L 118.489933 225.09443 
L 118.734586 224.482391 
L 119.223892 219.875287 
L 119.468545 221.146445 
L 119.713198 214.541808 
L 119.957851 214.111363 
L 120.202504 215.846593 
L 120.447157 212.584629 
L 120.936463 210.324794 
L 121.181116 211.118427 
L 121.670422 205.986718 
L 121.915075 207.762303 
L 122.159728 220.009801 
L 122.404381 212.477018 
L 122.649034 213.297553 
L 122.893687 212.860383 
L 123.13834 211.010815 
L 123.382993 210.802319 
L 123.627646 211.501792 
L 123.872299 209.907801 
L 124.361605 202.812188 
L 124.606258 204.749189 
L 124.850911 203.040862 
L 125.095564 202.186698 
L 125.340217 200.538901 
L 125.58487 196.046134 
L 125.829523 197.747736 
L 126.074176 203.07449 
L 126.318829 190.127519 
L 126.563482 190.450352 
L 126.808135 194.230195 
L 127.052788 195.541707 
L 127.297441 199.624206 
L 127.542094 199.41571 
L 128.0314 195.898169 
L 128.276053 192.750541 
L 128.520706 193.907362 
L 128.765359 187.692815 
L 129.010012 184.504834 
L 129.499318 181.027647 
L 129.988624 181.666589 
L 130.233277 179.689233 
L 130.47793 179.729587 
L 130.722583 178.59967 
L 130.967236 179.063743 
L 131.211889 181.05455 
L 131.456542 185.271564 
L 131.701195 181.458092 
L 131.945848 183.374916 
L 132.190501 182.426593 
L 132.435154 182.016325 
L 132.679807 181.316852 
L 132.92446 181.552252 
L 133.169113 181.558978 
L 133.413766 173.689909 
L 133.658419 170.010952 
L 133.903072 171.544411 
L 134.147725 170.723876 
L 135.126337 163.298704 
L 135.37099 163.547554 
L 135.860297 176.790457 
L 136.10495 171.631845 
L 136.349603 170.226174 
L 136.838909 179.837199 
L 137.817521 169.641038 
L 138.062174 169.896615 
L 138.306827 170.407768 
L 138.55148 170.004226 
L 138.796133 177.267981 
L 139.040786 177.980905 
L 139.285439 182.715798 
L 139.530092 176.898068 
L 139.774745 179.245337 
L 140.019398 183.818813 
L 140.264051 182.735975 
L 140.508704 186.266967 
L 140.753357 185.782717 
L 140.99801 184.282886 
L 141.242663 175.519299 
L 141.487316 174.436462 
L 141.731969 191.687881 
L 141.976622 199.348453 
L 142.221275 200.57253 
L 142.465928 196.032683 
L 142.710581 200.673415 
L 142.955234 200.068102 
L 143.199887 200.807929 
L 143.44454 202.253955 
L 143.689193 211.5825 
L 143.933846 208.549209 
L 144.178499 211.898608 
L 144.423152 211.232764 
L 144.912458 212.080202 
L 145.157111 212.308875 
L 145.401764 207.977525 
L 145.646417 207.748851 
L 145.89107 209.840544 
L 146.135723 196.032683 
L 146.380376 199.89996 
L 146.625029 198.870928 
L 146.869682 200.969346 
L 147.114335 198.11765 
L 147.358988 197.720833 
L 147.603641 199.429161 
L 147.848294 194.169664 
L 148.3376 193.853556 
L 148.582253 190.81354 
L 148.826906 193.826653 
L 149.071559 198.709511 
L 149.316212 197.014635 
L 149.560865 196.806138 
L 149.805518 191.519738 
L 150.050171 188.768927 
L 150.294824 191.714784 
L 150.539477 190.826991 
L 150.78413 192.178857 
L 151.273436 192.763993 
L 151.518089 194.485772 
L 152.007395 191.607173 
L 152.252048 194.12931 
L 152.496701 195.346661 
L 152.741354 199.637658 
L 152.986007 184.888199 
L 153.23066 182.964649 
L 153.475313 178.36427 
L 153.719966 179.009937 
L 153.964619 174.523896 
L 154.209272 173.259464 
L 154.453925 171.282109 
L 154.943231 179.27224 
L 155.187884 173.380527 
L 155.432537 175.499122 
L 155.67719 170.380865 
L 155.921843 171.34264 
L 156.166496 174.234691 
L 156.411149 173.145128 
L 156.655802 176.043904 
L 156.900455 173.380527 
L 157.389761 161.153205 
L 157.634414 161.112851 
L 157.879067 161.987192 
L 158.12372 159.088416 
L 158.368374 160.030014 
L 158.613027 156.351056 
L 158.85768 163.11711 
L 159.102333 152.134042 
L 159.346986 152.382893 
L 159.591639 146.968705 
L 159.836292 126.556207 
L 160.080945 123.193358 
L 160.325598 123.50274 
L 160.570251 128.701706 
L 161.059557 121.955829 
L 161.30421 123.422032 
L 161.548863 123.233712 
L 162.282822 135.696433 
L 162.527475 130.934638 
L 162.772128 133.423147 
L 163.016781 138.010074 
L 163.261434 135.985638 
L 163.506087 131.909864 
L 163.75074 134.734658 
L 163.995393 135.360148 
L 164.484699 145.273829 
L 164.729352 145.092235 
L 165.218658 153.916353 
L 165.463311 150.519875 
L 165.707964 153.156349 
L 165.952617 147.426053 
L 166.19727 138.467421 
L 166.441923 141.756288 
L 166.686576 150.62076 
L 166.931229 153.781839 
L 167.175882 148.441633 
L 167.420535 147.452956 
L 167.665188 156.021497 
L 167.909841 156.29725 
L 168.399147 162.935516 
L 168.6438 159.438152 
L 168.888453 160.103996 
L 169.133106 155.893708 
L 169.377759 146.302861 
L 169.622412 153.465731 
L 169.867065 153.553165 
L 170.111718 158.94045 
L 170.356371 159.841694 
L 170.601024 154.185381 
L 170.845677 153.532988 
L 171.09033 153.640599 
L 171.334983 151.501827 
L 171.579636 147.668178 
L 172.068942 157.931595 
L 172.313595 173.239287 
L 173.047554 165.457653 
L 173.292207 165.148271 
L 173.53686 166.513588 
L 173.781513 164.516055 
L 174.026166 161.469313 
L 174.270819 162.000644 
L 175.249431 151.064656 
L 175.494084 151.952449 
L 175.738737 151.952449 
L 176.228043 155.678486 
L 176.472696 155.517069 
L 176.717349 156.156011 
L 176.962002 154.198832 
L 177.206655 153.344668 
L 177.695961 157.292654 
L 177.940614 155.833177 
L 178.185267 156.472119 
L 178.42992 154.521666 
L 178.674573 142.287618 
L 178.919226 137.539275 
L 179.163879 140.599468 
L 179.408532 140.148846 
L 179.653185 138.93822 
L 179.897838 133.806511 
L 180.142491 136.981042 
L 180.387144 134.02846 
L 180.631798 134.896075 
L 180.876451 132.568983 
L 181.121104 131.896413 
L 181.365757 132.125087 
L 181.61041 139.045831 
L 181.855063 139.166894 
L 182.099716 143.59913 
L 182.344369 146.013656 
L 182.589022 143.330102 
L 182.833675 145.751354 
L 183.078328 146.645872 
L 183.322981 140.881947 
L 183.567634 145.670645 
L 184.05694 148.481988 
L 184.301593 145.374715 
L 184.546246 145.024978 
L 184.790899 145.670645 
L 185.035552 143.713467 
L 185.280205 143.007268 
L 185.524858 142.987091 
L 185.769511 142.146379 
L 186.014164 142.018591 
L 186.258817 139.388842 
L 186.50347 143.168685 
L 186.748123 136.463163 
L 186.992776 132.932171 
L 187.237429 132.952348 
L 187.482082 125.930717 
L 187.726735 123.603625 
L 187.971388 126.468773 
L 188.216041 118.942716 
L 189.194653 117.133503 
L 189.439306 118.525722 
L 189.683959 120.664495 
L 190.173265 122.292114 
L 190.417918 120.651043 
L 190.662571 116.770315 
L 190.907224 117.315096 
L 191.151877 116.299516 
L 191.39653 115.889248 
L 191.641183 111.96144 
L 191.885836 102.262981 
L 192.130489 104.233611 
L 192.375142 100.971647 
L 192.619795 106.789377 
L 192.864448 103.614847 
L 193.109101 106.056276 
L 193.353754 104.294142 
L 193.84306 105.572025 
L 194.087713 122.614948 
L 194.332366 117.987666 
L 194.577019 117.557222 
L 194.821672 115.916151 
L 195.066325 118.942716 
L 195.310978 125.19089 
L 195.555631 124.935314 
L 195.800284 123.771768 
L 196.044937 127.262406 
L 196.28959 127.497805 
L 196.534243 128.399049 
L 197.023549 131.77535 
L 197.268202 124.256018 
L 197.757508 118.068375 
L 198.002161 118.774573 
L 198.246814 118.969618 
L 198.491467 120.496352 
L 198.980773 142.30107 
L 199.470079 138.864237 
L 199.714732 141.117347 
L 199.959385 140.357343 
L 200.204038 138.346359 
L 200.448691 135.070943 
L 200.693344 137.92264 
L 200.937997 135.104571 
L 201.18265 135.1382 
L 201.427303 144.264974 
L 201.671956 130.073748 
L 201.916609 133.21465 
L 202.161262 132.838011 
L 202.405915 130.793398 
L 202.650568 130.194811 
L 202.895221 132.656417 
L 203.139875 138.010074 
L 203.384528 131.116232 
L 203.629181 131.802253 
L 203.873834 130.638707 
L 204.118487 124.484692 
L 204.36314 125.816381 
L 204.607793 124.067699 
L 204.852446 119.37316 
L 205.097099 122.534239 
L 205.341752 120.032279 
L 205.586405 126.731076 
L 205.831058 126.078683 
L 206.075711 130.067023 
L 206.320364 127.417097 
L 206.565017 126.495676 
L 206.80967 126.260277 
L 207.054323 128.896751 
L 207.298976 137.559452 
L 207.543629 137.700691 
L 207.788282 139.133265 
L 208.032935 139.819287 
L 208.277588 142.892931 
L 208.522241 149.18146 
L 208.766894 147.479858 
L 209.011547 152.221477 
L 209.2562 152.867144 
L 209.500853 154.131575 
L 209.745506 156.122382 
L 209.990159 160.312493 
L 210.234812 154.925208 
L 210.479465 146.558438 
L 210.724118 145.865691 
L 210.968771 143.639484 
L 211.213424 144.735773 
L 211.458077 143.868158 
L 211.70273 140.128669 
L 211.947383 141.547792 
L 212.192036 143.888335 
L 212.436689 143.767272 
L 212.681342 145.852239 
L 212.925995 152.053334 
L 213.170648 151.252976 
L 213.659954 151.696872 
L 214.14926 157.353185 
L 214.393913 155.981143 
L 214.638566 163.756051 
L 214.883219 164.307558 
L 215.127872 163.500475 
L 215.372525 164.267204 
L 215.861831 157.750002 
L 216.106484 157.97195 
L 216.351137 154.434232 
L 216.59579 154.817597 
L 216.840443 159.263284 
L 217.085096 155.342201 
L 217.329749 156.418313 
L 217.819055 146.491181 
L 218.063708 146.363392 
L 218.308361 144.722322 
L 218.553014 147.163751 
L 218.797667 147.083042 
L 219.04232 147.8834 
L 219.286973 150.23067 
L 219.531626 156.902563 
L 220.020932 155.913886 
L 220.265585 155.839903 
L 220.754891 147.331893 
L 220.999544 153.902901 
L 221.244197 156.075302 
L 221.48885 156.310702 
L 221.733503 154.003787 
L 221.978156 156.593181 
L 222.222809 160.642052 
L 222.712115 157.198494 
L 222.956768 158.415846 
L 223.201421 162.955693 
L 223.446074 164.973403 
L 223.690727 165.350042 
L 223.93538 163.049853 
L 224.424686 166.453057 
L 224.669339 161.731616 
L 224.913992 162.384008 
L 225.158645 158.36204 
L 225.403298 161.765244 
L 225.892605 159.088416 
L 226.137258 157.682745 
L 226.381911 162.673214 
L 226.871217 168.928114 
L 227.11587 165.181899 
L 227.605176 167.186158 
L 227.849829 164.892694 
L 228.094482 156.754598 
L 228.339135 156.653713 
L 228.828441 152.053334 
L 229.073094 151.508552 
L 229.317747 152.261831 
L 229.5624 153.822193 
L 229.807053 153.573342 
L 230.051706 154.333346 
L 230.296359 154.272815 
L 230.541012 155.295121 
L 230.785665 152.510682 
L 231.030318 145.764805 
L 231.274971 146.329764 
L 231.519624 146.444101 
L 231.764277 137.619983 
L 232.00893 138.339633 
L 232.253583 137.01467 
L 232.498236 141.319118 
L 232.742889 141.332569 
L 233.232195 136.678385 
L 233.476848 138.373261 
L 233.721501 134.088991 
L 233.966154 134.216779 
L 234.210807 132.279778 
L 234.45546 128.748785 
L 234.700113 129.797995 
L 234.944766 129.17923 
L 235.189419 125.991249 
L 235.434072 126.05178 
L 235.678725 127.134618 
L 235.923378 129.011088 
L 236.168031 128.156924 
L 236.412684 126.737801 
L 236.657337 126.919395 
L 236.90199 126.939572 
L 237.146643 124.235841 
L 237.391296 124.673012 
L 237.880602 126.320808 
L 238.125255 125.890363 
L 238.369908 127.955153 
L 238.614561 125.789478 
L 238.859214 120.980603 
L 239.103867 121.175648 
L 239.34852 124.740269 
L 239.593173 124.262744 
L 239.837826 124.746994 
L 240.082479 124.955491 
L 240.327132 123.112649 
L 240.571785 118.209614 
L 240.816438 117.214211 
L 241.061091 116.797218 
L 241.305744 118.626608 
L 241.550397 113.326757 
L 241.79505 115.008182 
L 242.039703 112.573478 
L 242.284356 113.716847 
L 242.529009 117.126777 
L 242.773662 112.92994 
L 243.018315 112.331353 
L 243.262968 105.020518 
L 243.507621 105.222289 
L 243.996927 121.875121 
L 244.24158 119.884314 
L 244.486233 119.057053 
L 244.975539 114.685348 
L 245.220192 116.373499 
L 245.464845 113.992601 
L 245.954151 103.513961 
L 246.198804 113.93207 
L 246.443457 113.192243 
L 246.68811 113.642865 
L 246.932763 114.846765 
L 247.177416 123.186632 
L 247.422069 115.243581 
L 247.666722 115.916151 
L 247.911375 113.918618 
L 248.156029 114.349063 
L 248.400682 118.492094 
L 248.889988 111.672235 
L 249.134641 127.813913 
L 249.379294 130.248616 
L 249.623947 131.170037 
L 249.8686 133.705626 
L 250.113253 133.16757 
L 250.357906 130.248616 
L 250.602559 129.818172 
L 250.847212 121.854944 
L 251.091865 118.001118 
L 251.336518 121.680075 
L 252.070477 146.14817 
L 252.31513 145.367989 
L 252.559783 142.132927 
L 252.804436 129.925783 
L 253.049089 126.233374 
L 253.293742 125.843283 
L 253.538395 132.858188 
L 253.783048 126.764704 
L 254.027701 128.190552 
L 254.272354 130.638707 
L 254.517007 126.441871 
L 254.76166 125.944169 
L 255.006313 126.233374 
L 255.250966 125.049651 
L 255.495619 123.065569 
L 255.740272 122.809993 
L 255.984925 116.972086 
L 256.229578 117.093148 
L 256.474231 118.068375 
L 256.718884 115.660574 
L 256.963537 117.853152 
L 257.20819 117.772444 
L 257.452843 116.38695 
L 258.186802 127.464177 
L 258.431455 126.287179 
L 258.676108 132.017475 
L 258.920761 126.845413 
L 259.165414 127.800462 
L 259.410067 130.954815 
L 259.899373 140.868496 
L 260.388679 148.360925 
L 260.633332 145.892593 
L 260.877985 147.486584 
L 261.367291 140.673451 
L 261.611944 139.940349 
L 261.856597 150.075978 
L 262.10125 152.053334 
L 262.345903 150.957045 
L 262.590556 152.725904 
L 262.835209 148.576147 
L 263.079862 151.878466 
L 263.324515 150.123058 
L 263.569168 151.017576 
L 263.813821 154.178655 
L 264.058474 149.564825 
L 264.303127 153.223606 
L 264.54778 137.566177 
L 264.792433 137.472018 
L 265.037086 137.075201 
L 265.526392 147.742161 
L 265.771045 146.00693 
L 266.260351 154.003787 
L 266.505004 149.215089 
L 266.749657 149.423586 
L 266.99431 144.668516 
L 267.238963 144.17754 
L 267.728269 146.901448 
L 267.972922 146.565163 
L 268.217575 138.904592 
L 268.462228 137.579629 
L 268.706881 138.487598 
L 268.951534 133.826689 
L 269.196187 137.324052 
L 269.44084 136.839802 
L 269.685493 138.40689 
L 269.930146 137.902462 
L 270.174799 140.868496 
L 270.419452 142.34815 
L 270.664106 140.633096 
L 270.908759 147.392424 
L 271.153412 146.343215 
L 271.398065 144.655065 
L 271.642718 135.629176 
L 271.887371 136.382454 
L 272.132024 138.353084 
L 272.376677 136.940687 
L 272.62133 138.696095 
L 272.865983 138.864237 
L 273.110636 138.279102 
L 273.355289 139.368665 
L 273.599942 133.826689 
L 273.844595 133.221376 
L 274.089248 131.930041 
L 274.333901 143.094702 
L 274.578554 143.081251 
L 275.557166 153.559891 
L 275.801819 152.134042 
L 276.046472 158.631068 
L 276.291125 154.683083 
L 276.535778 155.483441 
L 276.780431 155.665035 
L 277.025084 159.713906 
L 277.269737 158.859742 
L 277.51439 157.124511 
L 277.759043 161.274268 
L 278.003696 163.170915 
L 278.248349 166.863324 
L 278.737655 164.75818 
L 278.982308 160.897629 
L 279.471614 176.67612 
L 279.716267 175.431865 
L 280.205573 193.819928 
L 280.450226 193.645059 
L 280.694879 196.72543 
L 280.939532 192.151954 
L 281.184185 191.768589 
L 281.428838 188.990875 
L 281.673491 179.904456 
L 281.918144 181.189064 
L 282.162797 181.316852 
L 282.40745 173.810972 
L 282.652103 174.167434 
L 282.896756 172.963534 
L 283.141409 167.293769 
L 283.386062 165.336591 
L 283.630715 165.329865 
L 283.875368 164.267204 
L 284.120021 168.020145 
L 284.364674 166.68173 
L 284.85398 158.140092 
L 285.098633 155.28167 
L 285.343286 157.090883 
L 285.587939 152.974755 
L 285.832592 155.355653 
L 286.077245 153.79529 
L 286.321898 148.65013 
L 286.811204 144.090106 
L 287.30051 136.819625 
L 287.545163 133.066685 
L 287.789816 135.81077 
L 288.034469 143.652935 
L 288.279122 140.175749 
L 288.523775 138.487598 
L 288.768428 138.575032 
L 289.013081 140.754159 
L 289.257734 138.817158 
L 289.991693 121.53211 
L 290.236346 114.840039 
L 290.725652 125.163988 
L 290.970305 125.264873 
L 291.214958 126.67727 
L 291.459611 122.164326 
L 291.704264 123.960087 
L 291.948917 122.177777 
L 292.19357 122.601496 
L 292.438223 126.979927 
L 292.682876 125.231245 
L 292.92753 126.361162 
L 293.172183 122.68893 
L 293.416836 123.98699 
L 293.661489 122.695656 
L 293.906142 124.22239 
L 294.150795 126.751253 
L 294.395448 131.425614 
L 294.640101 130.726141 
L 295.37406 151.084833 
L 295.618713 148.798096 
L 295.863366 152.840241 
L 296.108019 152.994932 
L 296.352672 152.813338 
L 296.597325 153.943256 
L 296.841978 153.721308 
L 297.086631 153.26396 
L 297.331284 155.705389 
L 297.82059 148.609776 
L 298.065243 145.199846 
L 298.309896 147.93048 
L 298.799202 145.670645 
L 299.043855 141.944608 
L 299.288508 143.343553 
L 299.533161 143.215765 
L 299.777814 145.684097 
L 300.022467 146.087639 
L 300.26712 146.067462 
L 300.511773 144.930818 
L 300.756426 137.088653 
L 301.001079 134.94988 
L 301.245732 139.092911 
L 301.490385 146.201976 
L 301.735038 146.82074 
L 301.979691 148.777918 
L 302.224344 146.935077 
L 302.468997 146.780386 
L 302.71365 148.434908 
L 302.958303 145.589937 
L 303.202956 145.650468 
L 303.447609 161.085948 
L 303.692262 161.260817 
L 303.936915 163.446669 
L 304.670874 151.986077 
L 304.915527 150.580406 
L 305.16018 147.742161 
L 305.404833 149.437037 
L 305.649486 149.127655 
L 306.138792 147.553841 
L 306.383445 142.173282 
L 306.628098 142.260716 
L 306.872751 143.686564 
L 307.362057 145.119138 
L 307.60671 141.184604 
L 307.851363 141.850448 
L 308.096016 139.765481 
L 308.340669 145.051881 
L 308.585322 143.861432 
L 308.829975 138.655741 
L 309.074628 138.992026 
L 309.319281 139.678047 
L 309.563934 138.252199 
L 309.808587 135.440856 
L 310.297893 140.545662 
L 310.542546 141.493986 
L 310.787199 138.252199 
L 311.031852 138.642289 
L 311.276505 141.245135 
L 311.521158 139.281231 
L 311.765811 141.588146 
L 312.010464 142.085848 
L 312.255117 141.615049 
L 312.49977 141.6285 
L 312.744423 142.960188 
L 312.989076 143.209039 
L 313.233729 143.027445 
L 313.478382 142.025316 
L 313.723035 143.417536 
L 313.967688 142.132927 
L 314.456994 144.742499 
L 314.701647 145.394892 
L 315.190953 151.212622 
L 315.435607 150.762 
L 315.68026 158.321686 
L 315.924913 160.33267 
L 316.169566 156.936192 
L 316.414219 157.68947 
L 316.903525 162.558877 
L 317.148178 159.982934 
L 317.392831 161.496216 
L 317.637484 161.254091 
L 318.12679 155.207687 
L 318.371443 154.575471 
L 318.616096 155.71884 
L 318.860749 155.32875 
L 319.594708 152.793161 
L 319.839361 154.931933 
L 320.084014 154.622551 
L 320.328667 158.368766 
L 320.57332 156.129108 
L 320.817973 149.625357 
L 321.307279 153.149623 
L 321.796585 161.119577 
L 322.041238 158.200623 
L 322.285891 158.772308 
L 322.530544 157.823984 
L 322.775197 158.678148 
L 323.264503 162.901887 
L 323.753809 156.445216 
L 323.998462 159.444878 
L 324.243115 158.779034 
L 324.487768 156.983272 
L 324.732421 157.265751 
L 324.977074 157.333008 
L 325.221727 156.142559 
L 326.200339 166.896953 
L 326.444992 167.300495 
L 326.934298 163.406315 
L 327.178951 162.242769 
L 327.668257 168.692715 
L 327.91291 166.533765 
L 328.157563 171.315737 
L 328.402216 169.755375 
L 328.646869 169.647764 
L 328.891522 166.466508 
L 329.136175 168.914663 
L 329.380828 169.250948 
L 329.625481 164.778357 
L 329.870134 163.453395 
L 330.114787 161.092674 
L 330.35944 161.449136 
L 330.604093 165.854469 
L 330.848746 165.968806 
L 331.093399 171.026532 
L 331.338052 171.302286 
L 331.582705 167.717488 
L 331.827358 168.35643 
L 332.072011 163.446669 
L 332.316664 164.025079 
L 332.561317 164.099062 
L 332.80597 163.930919 
L 333.050623 160.083819 
L 333.295276 159.720631 
L 333.539929 160.467184 
L 333.784582 157.164866 
L 334.029235 157.003449 
L 334.273888 152.927675 
L 334.518541 153.660776 
L 334.763194 153.156349 
L 335.2525 145.704274 
L 335.497153 145.563034 
L 335.741806 148.966238 
L 335.986459 149.632082 
L 336.231112 147.412601 
L 336.475765 140.686902 
L 336.720418 140.848319 
L 337.209724 137.801577 
L 337.454377 138.749901 
L 337.943684 138.93822 
L 338.188337 133.450049 
L 338.43299 134.909526 
L 338.677643 133.039782 
L 338.922296 129.407904 
L 339.166949 128.755511 
L 339.656255 122.11052 
L 339.900908 122.20468 
L 340.145561 123.522917 
L 340.390214 123.226986 
L 340.634867 124.787349 
L 340.87952 123.913008 
L 341.124173 125.722221 
L 341.368826 124.168584 
L 341.613479 124.31655 
L 341.858132 119.985199 
L 342.102785 120.180244 
L 342.347438 117.086423 
L 342.592091 112.297725 
L 342.836744 112.277548 
L 343.081397 104.630427 
L 343.32605 104.374851 
L 343.570703 105.195386 
L 343.815356 112.465867 
L 344.060009 110.259838 
L 344.304662 106.789377 
L 344.549315 109.398948 
L 344.793968 121.182374 
L 345.038621 120.503078 
L 345.283274 127.746656 
L 345.527927 125.217793 
L 345.77258 125.197616 
L 346.017233 124.888234 
L 346.261886 124.155133 
L 346.506539 124.397258 
L 346.995845 127.316212 
L 347.485151 129.454984 
L 347.729804 127.78701 
L 347.974457 119.830508 
L 348.21911 121.357242 
L 348.463763 117.1066 
L 348.708416 117.476513 
L 348.953069 117.194034 
L 349.197722 124.75372 
L 349.442375 121.841492 
L 349.687028 121.996183 
L 350.420987 106.749023 
L 350.66564 106.796102 
L 351.154946 106.177338 
L 351.399599 92.577974 
L 351.644252 89.094062 
L 351.888905 94.94542 
L 352.378211 89.874243 
L 352.622864 83.249429 
L 352.867517 85.724486 
L 353.11217 93.707891 
L 353.356823 88.892291 
L 353.601476 90.61407 
L 353.846129 91.414428 
L 354.090782 87.869984 
L 354.335435 89.89442 
L 354.824741 86.181834 
L 355.069394 82.307831 
L 355.314047 84.742534 
L 355.5587 85.778292 
L 355.803353 82.119511 
L 356.048006 76.227798 
L 356.292659 78.877724 
L 356.537312 84.17085 
L 356.781965 94.636038 
L 357.026618 85.966611 
L 357.271271 86.746792 
L 357.515924 77.283733 
L 357.760577 74.620356 
L 358.00523 76.046205 
L 358.249883 74.89611 
L 358.494536 80.90216 
L 358.739189 80.142156 
L 358.983842 87.473168 
L 359.228495 82.798807 
L 359.473148 84.298638 
L 359.717801 84.621471 
L 359.962454 88.98645 
L 360.696414 74.674162 
L 361.18572 64.000477 
L 361.675026 64.780658 
L 362.653638 44.502674 
L 362.898291 53.030861 
L 363.142944 51.894218 
L 363.387597 40.500883 
L 363.63225 37.333079 
L 364.121556 43.561076 
L 364.366209 44.637188 
L 364.610862 42.996117 
L 364.855515 40.198227 
L 365.100168 36.021567 
L 365.344821 35.456608 
L 365.589474 39.465125 
L 365.834127 49.634383 
L 366.07878 43.668687 
L 366.323433 50.723946 
L 366.568086 50.145536 
L 366.812739 56.19194 
L 367.302045 85.643778 
L 367.791351 80.787823 
L 368.036004 73.275216 
L 368.280657 71.728306 
L 368.52531 75.837708 
L 368.769963 72.898577 
L 369.014616 78.420377 
L 369.259269 72.589195 
L 369.503922 74.593454 
L 369.748575 71.459278 
L 369.993228 72.481584 
L 370.237881 62.984896 
L 370.482534 64.948801 
L 370.727187 62.090378 
L 370.97184 68.40581 
L 371.216493 67.995542 
L 371.461146 75.797354 
L 371.705799 78.420377 
L 371.950452 74.169734 
L 372.195105 59.911252 
L 372.439758 53.306615 
L 372.684411 54.476886 
L 372.929064 47.717559 
L 373.173717 48.854202 
L 373.41837 54.322195 
L 373.663023 52.660948 
L 373.907676 48.672608 
L 374.152329 49.661286 
L 374.396982 49.271195 
L 374.641635 56.662739 
L 374.886288 59.662401 
L 375.130941 66.119072 
L 375.375594 63.771803 
L 375.620247 56.091054 
L 375.8649 55.983443 
L 376.109553 59.265584 
L 376.354206 60.873027 
L 376.598859 59.729658 
L 376.843512 55.815301 
L 377.088165 53.98591 
L 377.332818 54.322195 
L 377.822124 61.633031 
L 378.066777 57.543805 
L 378.31143 62.393035 
L 378.556083 48.746591 
L 378.800736 49.378806 
L 379.045389 47.038263 
L 379.290042 39.36424 
L 379.534695 37.904763 
L 379.779348 34.414125 
L 380.024001 41.072567 
L 380.268654 41.872926 
L 380.513307 46.87012 
L 380.75796 57.220972 
L 381.002613 61.323649 
L 381.247266 61.14878 
L 381.491919 64.02738 
L 381.736572 64.948801 
L 381.981225 63.939946 
L 382.225878 63.650741 
L 382.715184 54.584498 
L 382.959838 54.369275 
L 383.204491 53.326792 
L 383.449144 62.702417 
L 383.693797 54.194407 
L 383.93845 54.860251 
L 384.183103 54.133876 
L 384.427756 54.207858 
L 384.672409 57.550531 
L 385.161715 51.463773 
L 385.895674 66.684031 
L 386.140327 66.468809 
L 386.38498 74.203363 
L 386.629633 73.981415 
L 386.874286 77.546036 
L 387.118939 78.077366 
L 387.363592 70.37644 
L 387.608245 77.404796 
L 387.852898 92.080272 
L 387.852898 92.080272 
" style="fill:none;stroke:#ff7f0e;stroke-linecap:square;stroke-width:1.5;"/>
   </g>
   <g id="patch_3">
    <path d="M 46.965625 288.430125 
L 46.965625 22.318125 
" style="fill:none;stroke:#000000;stroke-linecap:square;stroke-linejoin:miter;stroke-width:0.8;"/>
   </g>
   <g id="patch_4">
    <path d="M 404.085625 288.430125 
L 404.085625 22.318125 
" style="fill:none;stroke:#000000;stroke-linecap:square;stroke-linejoin:miter;stroke-width:0.8;"/>
   </g>
   <g id="patch_5">
    <path d="M 46.965625 288.430125 
L 404.085625 288.430125 
" style="fill:none;stroke:#000000;stroke-linecap:square;stroke-linejoin:miter;stroke-width:0.8;"/>
   </g>
   <g id="patch_6">
    <path d="M 46.965625 22.318125 
L 404.085625 22.318125 
" style="fill:none;stroke:#000000;stroke-linecap:square;stroke-linejoin:miter;stroke-width:0.8;"/>
   </g>
   <g id="text_18">
    <!-- Training: TSLA -->
    <defs>
     <path d="M -0.296875 72.90625 
L 61.375 72.90625 
L 61.375 64.59375 
L 35.5 64.59375 
L 35.5 0 
L 25.59375 0 
L 25.59375 64.59375 
L -0.296875 64.59375 
z
" id="DejaVuSans-84"/>
     <path d="M 54.890625 33.015625 
L 54.890625 0 
L 45.90625 0 
L 45.90625 32.71875 
Q 45.90625 40.484375 42.875 44.328125 
Q 39.84375 48.1875 33.796875 48.1875 
Q 26.515625 48.1875 22.3125 43.546875 
Q 18.109375 38.921875 18.109375 30.90625 
L 18.109375 0 
L 9.078125 0 
L 9.078125 54.6875 
L 18.109375 54.6875 
L 18.109375 46.1875 
Q 21.34375 51.125 25.703125 53.5625 
Q 30.078125 56 35.796875 56 
Q 45.21875 56 50.046875 50.171875 
Q 54.890625 44.34375 54.890625 33.015625 
z
" id="DejaVuSans-110"/>
     <path d="M 45.40625 27.984375 
Q 45.40625 37.75 41.375 43.109375 
Q 37.359375 48.484375 30.078125 48.484375 
Q 22.859375 48.484375 18.828125 43.109375 
Q 14.796875 37.75 14.796875 27.984375 
Q 14.796875 18.265625 18.828125 12.890625 
Q 22.859375 7.515625 30.078125 7.515625 
Q 37.359375 7.515625 41.375 12.890625 
Q 45.40625 18.265625 45.40625 27.984375 
z
M 54.390625 6.78125 
Q 54.390625 -7.171875 48.1875 -13.984375 
Q 42 -20.796875 29.203125 -20.796875 
Q 24.46875 -20.796875 20.265625 -20.09375 
Q 16.0625 -19.390625 12.109375 -17.921875 
L 12.109375 -9.1875 
Q 16.0625 -11.328125 19.921875 -12.34375 
Q 23.78125 -13.375 27.78125 -13.375 
Q 36.625 -13.375 41.015625 -8.765625 
Q 45.40625 -4.15625 45.40625 5.171875 
L 45.40625 9.625 
Q 42.625 4.78125 38.28125 2.390625 
Q 33.9375 0 27.875 0 
Q 17.828125 0 11.671875 7.65625 
Q 5.515625 15.328125 5.515625 27.984375 
Q 5.515625 40.671875 11.671875 48.328125 
Q 17.828125 56 27.875 56 
Q 33.9375 56 38.28125 53.609375 
Q 42.625 51.21875 45.40625 46.390625 
L 45.40625 54.6875 
L 54.390625 54.6875 
z
" id="DejaVuSans-103"/>
     <path d="M 11.71875 12.40625 
L 22.015625 12.40625 
L 22.015625 0 
L 11.71875 0 
z
M 11.71875 51.703125 
L 22.015625 51.703125 
L 22.015625 39.3125 
L 11.71875 39.3125 
z
" id="DejaVuSans-58"/>
     <path d="M 53.515625 70.515625 
L 53.515625 60.890625 
Q 47.90625 63.578125 42.921875 64.890625 
Q 37.9375 66.21875 33.296875 66.21875 
Q 25.25 66.21875 20.875 63.09375 
Q 16.5 59.96875 16.5 54.203125 
Q 16.5 49.359375 19.40625 46.890625 
Q 22.3125 44.4375 30.421875 42.921875 
L 36.375 41.703125 
Q 47.40625 39.59375 52.65625 34.296875 
Q 57.90625 29 57.90625 20.125 
Q 57.90625 9.515625 50.796875 4.046875 
Q 43.703125 -1.421875 29.984375 -1.421875 
Q 24.8125 -1.421875 18.96875 -0.25 
Q 13.140625 0.921875 6.890625 3.21875 
L 6.890625 13.375 
Q 12.890625 10.015625 18.65625 8.296875 
Q 24.421875 6.59375 29.984375 6.59375 
Q 38.421875 6.59375 43.015625 9.90625 
Q 47.609375 13.234375 47.609375 19.390625 
Q 47.609375 24.75 44.3125 27.78125 
Q 41.015625 30.8125 33.5 32.328125 
L 27.484375 33.5 
Q 16.453125 35.6875 11.515625 40.375 
Q 6.59375 45.0625 6.59375 53.421875 
Q 6.59375 63.09375 13.40625 68.65625 
Q 20.21875 74.21875 32.171875 74.21875 
Q 37.3125 74.21875 42.625 73.28125 
Q 47.953125 72.359375 53.515625 70.515625 
z
" id="DejaVuSans-83"/>
     <path d="M 9.8125 72.90625 
L 19.671875 72.90625 
L 19.671875 8.296875 
L 55.171875 8.296875 
L 55.171875 0 
L 9.8125 0 
z
" id="DejaVuSans-76"/>
     <path d="M 34.1875 63.1875 
L 20.796875 26.90625 
L 47.609375 26.90625 
z
M 28.609375 72.90625 
L 39.796875 72.90625 
L 67.578125 0 
L 57.328125 0 
L 50.6875 18.703125 
L 17.828125 18.703125 
L 11.1875 0 
L 0.78125 0 
z
" id="DejaVuSans-65"/>
    </defs>
    <g transform="translate(182.870313 16.318125)scale(0.12 -0.12)">
     <use xlink:href="#DejaVuSans-84"/>
     <use x="46.333984" xlink:href="#DejaVuSans-114"/>
     <use x="87.447266" xlink:href="#DejaVuSans-97"/>
     <use x="148.726562" xlink:href="#DejaVuSans-105"/>
     <use x="176.509766" xlink:href="#DejaVuSans-110"/>
     <use x="239.888672" xlink:href="#DejaVuSans-105"/>
     <use x="267.671875" xlink:href="#DejaVuSans-110"/>
     <use x="331.050781" xlink:href="#DejaVuSans-103"/>
     <use x="394.527344" xlink:href="#DejaVuSans-58"/>
     <use x="428.21875" xlink:href="#DejaVuSans-32"/>
     <use x="460.005859" xlink:href="#DejaVuSans-84"/>
     <use x="521.089844" xlink:href="#DejaVuSans-83"/>
     <use x="584.566406" xlink:href="#DejaVuSans-76"/>
     <use x="642.529297" xlink:href="#DejaVuSans-65"/>
    </g>
   </g>
   <g id="legend_1">
    <g id="patch_7">
     <path d="M 53.965625 59.674375 
L 137.69375 59.674375 
Q 139.69375 59.674375 139.69375 57.674375 
L 139.69375 29.318125 
Q 139.69375 27.318125 137.69375 27.318125 
L 53.965625 27.318125 
Q 51.965625 27.318125 51.965625 29.318125 
L 51.965625 57.674375 
Q 51.965625 59.674375 53.965625 59.674375 
z
" style="fill:#ffffff;opacity:0.8;stroke:#cccccc;stroke-linejoin:miter;"/>
    </g>
    <g id="line2d_33">
     <path d="M 55.965625 35.416562 
L 75.965625 35.416562 
" style="fill:none;stroke:#1f77b4;stroke-linecap:square;stroke-width:1.5;"/>
    </g>
    <g id="line2d_34"/>
    <g id="text_19">
     <!-- Predicted -->
     <defs>
      <path d="M 45.40625 46.390625 
L 45.40625 75.984375 
L 54.390625 75.984375 
L 54.390625 0 
L 45.40625 0 
L 45.40625 8.203125 
Q 42.578125 3.328125 38.25 0.953125 
Q 33.9375 -1.421875 27.875 -1.421875 
Q 17.96875 -1.421875 11.734375 6.484375 
Q 5.515625 14.40625 5.515625 27.296875 
Q 5.515625 40.1875 11.734375 48.09375 
Q 17.96875 56 27.875 56 
Q 33.9375 56 38.25 53.625 
Q 42.578125 51.265625 45.40625 46.390625 
z
M 14.796875 27.296875 
Q 14.796875 17.390625 18.875 11.75 
Q 22.953125 6.109375 30.078125 6.109375 
Q 37.203125 6.109375 41.296875 11.75 
Q 45.40625 17.390625 45.40625 27.296875 
Q 45.40625 37.203125 41.296875 42.84375 
Q 37.203125 48.484375 30.078125 48.484375 
Q 22.953125 48.484375 18.875 42.84375 
Q 14.796875 37.203125 14.796875 27.296875 
z
" id="DejaVuSans-100"/>
      <path d="M 18.3125 70.21875 
L 18.3125 54.6875 
L 36.8125 54.6875 
L 36.8125 47.703125 
L 18.3125 47.703125 
L 18.3125 18.015625 
Q 18.3125 11.328125 20.140625 9.421875 
Q 21.96875 7.515625 27.59375 7.515625 
L 36.8125 7.515625 
L 36.8125 0 
L 27.59375 0 
Q 17.1875 0 13.234375 3.875 
Q 9.28125 7.765625 9.28125 18.015625 
L 9.28125 47.703125 
L 2.6875 47.703125 
L 2.6875 54.6875 
L 9.28125 54.6875 
L 9.28125 70.21875 
z
" id="DejaVuSans-116"/>
     </defs>
     <g transform="translate(83.965625 38.916562)scale(0.1 -0.1)">
      <use xlink:href="#DejaVuSans-80"/>
      <use x="58.552734" xlink:href="#DejaVuSans-114"/>
      <use x="97.416016" xlink:href="#DejaVuSans-101"/>
      <use x="158.939453" xlink:href="#DejaVuSans-100"/>
      <use x="222.416016" xlink:href="#DejaVuSans-105"/>
      <use x="250.199219" xlink:href="#DejaVuSans-99"/>
      <use x="305.179688" xlink:href="#DejaVuSans-116"/>
      <use x="344.388672" xlink:href="#DejaVuSans-101"/>
      <use x="405.912109" xlink:href="#DejaVuSans-100"/>
     </g>
    </g>
    <g id="line2d_35">
     <path d="M 55.965625 50.094687 
L 75.965625 50.094687 
" style="fill:none;stroke:#ff7f0e;stroke-linecap:square;stroke-width:1.5;"/>
    </g>
    <g id="line2d_36"/>
    <g id="text_20">
     <!-- True value -->
     <defs>
      <path d="M 8.5 21.578125 
L 8.5 54.6875 
L 17.484375 54.6875 
L 17.484375 21.921875 
Q 17.484375 14.15625 20.5 10.265625 
Q 23.53125 6.390625 29.59375 6.390625 
Q 36.859375 6.390625 41.078125 11.03125 
Q 45.3125 15.671875 45.3125 23.6875 
L 45.3125 54.6875 
L 54.296875 54.6875 
L 54.296875 0 
L 45.3125 0 
L 45.3125 8.40625 
Q 42.046875 3.421875 37.71875 1 
Q 33.40625 -1.421875 27.6875 -1.421875 
Q 18.265625 -1.421875 13.375 4.4375 
Q 8.5 10.296875 8.5 21.578125 
z
M 31.109375 56 
z
" id="DejaVuSans-117"/>
      <path d="M 2.984375 54.6875 
L 12.5 54.6875 
L 29.59375 8.796875 
L 46.6875 54.6875 
L 56.203125 54.6875 
L 35.6875 0 
L 23.484375 0 
z
" id="DejaVuSans-118"/>
      <path d="M 9.421875 75.984375 
L 18.40625 75.984375 
L 18.40625 0 
L 9.421875 0 
z
" id="DejaVuSans-108"/>
     </defs>
     <g transform="translate(83.965625 53.594687)scale(0.1 -0.1)">
      <use xlink:href="#DejaVuSans-84"/>
      <use x="46.333984" xlink:href="#DejaVuSans-114"/>
      <use x="87.447266" xlink:href="#DejaVuSans-117"/>
      <use x="150.826172" xlink:href="#DejaVuSans-101"/>
      <use x="212.349609" xlink:href="#DejaVuSans-32"/>
      <use x="244.136719" xlink:href="#DejaVuSans-118"/>
      <use x="303.316406" xlink:href="#DejaVuSans-97"/>
      <use x="364.595703" xlink:href="#DejaVuSans-108"/>
      <use x="392.378906" xlink:href="#DejaVuSans-117"/>
      <use x="455.757812" xlink:href="#DejaVuSans-101"/>
     </g>
    </g>
   </g>
  </g>
 </g>
 <defs>
  <clipPath id="p56e22b284f">
   <rect height="266.112" width="357.12" x="46.965625" y="22.318125"/>
  </clipPath>
 </defs>
</svg>
