<?xml version="1.0" encoding="utf-8" standalone="no"?>
<!DOCTYPE svg PUBLIC "-//W3C//DTD SVG 1.1//EN"
  "http://www.w3.org/Graphics/SVG/1.1/DTD/svg11.dtd">
<!-- Created with matplotlib (https://matplotlib.org/) -->
<svg height="325.986375pt" version="1.1" viewBox="0 0 411.285625 325.986375" width="411.285625pt" xmlns="http://www.w3.org/2000/svg" xmlns:xlink="http://www.w3.org/1999/xlink">
 <defs>
  <style type="text/css">
*{stroke-linecap:butt;stroke-linejoin:round;}
  </style>
 </defs>
 <g id="figure_1">
  <g id="patch_1">
   <path d="M 0 325.986375 
L 411.285625 325.986375 
L 411.285625 0 
L 0 0 
z
" style="fill:#ffffff;"/>
  </g>
  <g id="axes_1">
   <g id="patch_2">
    <path d="M 46.965625 288.430125 
L 404.085625 288.430125 
L 404.085625 22.318125 
L 46.965625 22.318125 
z
" style="fill:#ffffff;"/>
   </g>
   <g id="matplotlib.axis_1">
    <g id="xtick_1">
     <g id="line2d_1">
      <path clip-path="url(#pbe95e29c46)" d="M 63.198352 288.430125 
L 63.198352 22.318125 
" style="fill:none;stroke:#b0b0b0;stroke-dasharray:2.96,1.28;stroke-dashoffset:0;stroke-width:0.8;"/>
     </g>
     <g id="line2d_2">
      <defs>
       <path d="M 0 0 
L 0 3.5 
" id="me27a37e1b5" style="stroke:#000000;stroke-width:0.8;"/>
      </defs>
      <g>
       <use style="stroke:#000000;stroke-width:0.8;" x="63.198352" xlink:href="#me27a37e1b5" y="288.430125"/>
      </g>
     </g>
     <g id="text_1">
      <!-- 0 -->
      <defs>
       <path d="M 31.78125 66.40625 
Q 24.171875 66.40625 20.328125 58.90625 
Q 16.5 51.421875 16.5 36.375 
Q 16.5 21.390625 20.328125 13.890625 
Q 24.171875 6.390625 31.78125 6.390625 
Q 39.453125 6.390625 43.28125 13.890625 
Q 47.125 21.390625 47.125 36.375 
Q 47.125 51.421875 43.28125 58.90625 
Q 39.453125 66.40625 31.78125 66.40625 
z
M 31.78125 74.21875 
Q 44.046875 74.21875 50.515625 64.515625 
Q 56.984375 54.828125 56.984375 36.375 
Q 56.984375 17.96875 50.515625 8.265625 
Q 44.046875 -1.421875 31.78125 -1.421875 
Q 19.53125 -1.421875 13.0625 8.265625 
Q 6.59375 17.96875 6.59375 36.375 
Q 6.59375 54.828125 13.0625 64.515625 
Q 19.53125 74.21875 31.78125 74.21875 
z
" id="DejaVuSans-48"/>
      </defs>
      <g transform="translate(60.017102 303.028562)scale(0.1 -0.1)">
       <use xlink:href="#DejaVuSans-48"/>
      </g>
     </g>
    </g>
    <g id="xtick_2">
     <g id="line2d_3">
      <path clip-path="url(#pbe95e29c46)" d="M 112.128954 288.430125 
L 112.128954 22.318125 
" style="fill:none;stroke:#b0b0b0;stroke-dasharray:2.96,1.28;stroke-dashoffset:0;stroke-width:0.8;"/>
     </g>
     <g id="line2d_4">
      <g>
       <use style="stroke:#000000;stroke-width:0.8;" x="112.128954" xlink:href="#me27a37e1b5" y="288.430125"/>
      </g>
     </g>
     <g id="text_2">
      <!-- 200 -->
      <defs>
       <path d="M 19.1875 8.296875 
L 53.609375 8.296875 
L 53.609375 0 
L 7.328125 0 
L 7.328125 8.296875 
Q 12.9375 14.109375 22.625 23.890625 
Q 32.328125 33.6875 34.8125 36.53125 
Q 39.546875 41.84375 41.421875 45.53125 
Q 43.3125 49.21875 43.3125 52.78125 
Q 43.3125 58.59375 39.234375 62.25 
Q 35.15625 65.921875 28.609375 65.921875 
Q 23.96875 65.921875 18.8125 64.3125 
Q 13.671875 62.703125 7.8125 59.421875 
L 7.8125 69.390625 
Q 13.765625 71.78125 18.9375 73 
Q 24.125 74.21875 28.421875 74.21875 
Q 39.75 74.21875 46.484375 68.546875 
Q 53.21875 62.890625 53.21875 53.421875 
Q 53.21875 48.921875 51.53125 44.890625 
Q 49.859375 40.875 45.40625 35.40625 
Q 44.1875 33.984375 37.640625 27.21875 
Q 31.109375 20.453125 19.1875 8.296875 
z
" id="DejaVuSans-50"/>
      </defs>
      <g transform="translate(102.585204 303.028562)scale(0.1 -0.1)">
       <use xlink:href="#DejaVuSans-50"/>
       <use x="63.623047" xlink:href="#DejaVuSans-48"/>
       <use x="127.246094" xlink:href="#DejaVuSans-48"/>
      </g>
     </g>
    </g>
    <g id="xtick_3">
     <g id="line2d_5">
      <path clip-path="url(#pbe95e29c46)" d="M 161.059557 288.430125 
L 161.059557 22.318125 
" style="fill:none;stroke:#b0b0b0;stroke-dasharray:2.96,1.28;stroke-dashoffset:0;stroke-width:0.8;"/>
     </g>
     <g id="line2d_6">
      <g>
       <use style="stroke:#000000;stroke-width:0.8;" x="161.059557" xlink:href="#me27a37e1b5" y="288.430125"/>
      </g>
     </g>
     <g id="text_3">
      <!-- 400 -->
      <defs>
       <path d="M 37.796875 64.3125 
L 12.890625 25.390625 
L 37.796875 25.390625 
z
M 35.203125 72.90625 
L 47.609375 72.90625 
L 47.609375 25.390625 
L 58.015625 25.390625 
L 58.015625 17.1875 
L 47.609375 17.1875 
L 47.609375 0 
L 37.796875 0 
L 37.796875 17.1875 
L 4.890625 17.1875 
L 4.890625 26.703125 
z
" id="DejaVuSans-52"/>
      </defs>
      <g transform="translate(151.515807 303.028562)scale(0.1 -0.1)">
       <use xlink:href="#DejaVuSans-52"/>
       <use x="63.623047" xlink:href="#DejaVuSans-48"/>
       <use x="127.246094" xlink:href="#DejaVuSans-48"/>
      </g>
     </g>
    </g>
    <g id="xtick_4">
     <g id="line2d_7">
      <path clip-path="url(#pbe95e29c46)" d="M 209.990159 288.430125 
L 209.990159 22.318125 
" style="fill:none;stroke:#b0b0b0;stroke-dasharray:2.96,1.28;stroke-dashoffset:0;stroke-width:0.8;"/>
     </g>
     <g id="line2d_8">
      <g>
       <use style="stroke:#000000;stroke-width:0.8;" x="209.990159" xlink:href="#me27a37e1b5" y="288.430125"/>
      </g>
     </g>
     <g id="text_4">
      <!-- 600 -->
      <defs>
       <path d="M 33.015625 40.375 
Q 26.375 40.375 22.484375 35.828125 
Q 18.609375 31.296875 18.609375 23.390625 
Q 18.609375 15.53125 22.484375 10.953125 
Q 26.375 6.390625 33.015625 6.390625 
Q 39.65625 6.390625 43.53125 10.953125 
Q 47.40625 15.53125 47.40625 23.390625 
Q 47.40625 31.296875 43.53125 35.828125 
Q 39.65625 40.375 33.015625 40.375 
z
M 52.59375 71.296875 
L 52.59375 62.3125 
Q 48.875 64.0625 45.09375 64.984375 
Q 41.3125 65.921875 37.59375 65.921875 
Q 27.828125 65.921875 22.671875 59.328125 
Q 17.53125 52.734375 16.796875 39.40625 
Q 19.671875 43.65625 24.015625 45.921875 
Q 28.375 48.1875 33.59375 48.1875 
Q 44.578125 48.1875 50.953125 41.515625 
Q 57.328125 34.859375 57.328125 23.390625 
Q 57.328125 12.15625 50.6875 5.359375 
Q 44.046875 -1.421875 33.015625 -1.421875 
Q 20.359375 -1.421875 13.671875 8.265625 
Q 6.984375 17.96875 6.984375 36.375 
Q 6.984375 53.65625 15.1875 63.9375 
Q 23.390625 74.21875 37.203125 74.21875 
Q 40.921875 74.21875 44.703125 73.484375 
Q 48.484375 72.75 52.59375 71.296875 
z
" id="DejaVuSans-54"/>
      </defs>
      <g transform="translate(200.446409 303.028562)scale(0.1 -0.1)">
       <use xlink:href="#DejaVuSans-54"/>
       <use x="63.623047" xlink:href="#DejaVuSans-48"/>
       <use x="127.246094" xlink:href="#DejaVuSans-48"/>
      </g>
     </g>
    </g>
    <g id="xtick_5">
     <g id="line2d_9">
      <path clip-path="url(#pbe95e29c46)" d="M 258.920761 288.430125 
L 258.920761 22.318125 
" style="fill:none;stroke:#b0b0b0;stroke-dasharray:2.96,1.28;stroke-dashoffset:0;stroke-width:0.8;"/>
     </g>
     <g id="line2d_10">
      <g>
       <use style="stroke:#000000;stroke-width:0.8;" x="258.920761" xlink:href="#me27a37e1b5" y="288.430125"/>
      </g>
     </g>
     <g id="text_5">
      <!-- 800 -->
      <defs>
       <path d="M 31.78125 34.625 
Q 24.75 34.625 20.71875 30.859375 
Q 16.703125 27.09375 16.703125 20.515625 
Q 16.703125 13.921875 20.71875 10.15625 
Q 24.75 6.390625 31.78125 6.390625 
Q 38.8125 6.390625 42.859375 10.171875 
Q 46.921875 13.96875 46.921875 20.515625 
Q 46.921875 27.09375 42.890625 30.859375 
Q 38.875 34.625 31.78125 34.625 
z
M 21.921875 38.8125 
Q 15.578125 40.375 12.03125 44.71875 
Q 8.5 49.078125 8.5 55.328125 
Q 8.5 64.0625 14.71875 69.140625 
Q 20.953125 74.21875 31.78125 74.21875 
Q 42.671875 74.21875 48.875 69.140625 
Q 55.078125 64.0625 55.078125 55.328125 
Q 55.078125 49.078125 51.53125 44.71875 
Q 48 40.375 41.703125 38.8125 
Q 48.828125 37.15625 52.796875 32.3125 
Q 56.78125 27.484375 56.78125 20.515625 
Q 56.78125 9.90625 50.3125 4.234375 
Q 43.84375 -1.421875 31.78125 -1.421875 
Q 19.734375 -1.421875 13.25 4.234375 
Q 6.78125 9.90625 6.78125 20.515625 
Q 6.78125 27.484375 10.78125 32.3125 
Q 14.796875 37.15625 21.921875 38.8125 
z
M 18.3125 54.390625 
Q 18.3125 48.734375 21.84375 45.5625 
Q 25.390625 42.390625 31.78125 42.390625 
Q 38.140625 42.390625 41.71875 45.5625 
Q 45.3125 48.734375 45.3125 54.390625 
Q 45.3125 60.0625 41.71875 63.234375 
Q 38.140625 66.40625 31.78125 66.40625 
Q 25.390625 66.40625 21.84375 63.234375 
Q 18.3125 60.0625 18.3125 54.390625 
z
" id="DejaVuSans-56"/>
      </defs>
      <g transform="translate(249.377011 303.028562)scale(0.1 -0.1)">
       <use xlink:href="#DejaVuSans-56"/>
       <use x="63.623047" xlink:href="#DejaVuSans-48"/>
       <use x="127.246094" xlink:href="#DejaVuSans-48"/>
      </g>
     </g>
    </g>
    <g id="xtick_6">
     <g id="line2d_11">
      <path clip-path="url(#pbe95e29c46)" d="M 307.851363 288.430125 
L 307.851363 22.318125 
" style="fill:none;stroke:#b0b0b0;stroke-dasharray:2.96,1.28;stroke-dashoffset:0;stroke-width:0.8;"/>
     </g>
     <g id="line2d_12">
      <g>
       <use style="stroke:#000000;stroke-width:0.8;" x="307.851363" xlink:href="#me27a37e1b5" y="288.430125"/>
      </g>
     </g>
     <g id="text_6">
      <!-- 1000 -->
      <defs>
       <path d="M 12.40625 8.296875 
L 28.515625 8.296875 
L 28.515625 63.921875 
L 10.984375 60.40625 
L 10.984375 69.390625 
L 28.421875 72.90625 
L 38.28125 72.90625 
L 38.28125 8.296875 
L 54.390625 8.296875 
L 54.390625 0 
L 12.40625 0 
z
" id="DejaVuSans-49"/>
      </defs>
      <g transform="translate(295.126363 303.028562)scale(0.1 -0.1)">
       <use xlink:href="#DejaVuSans-49"/>
       <use x="63.623047" xlink:href="#DejaVuSans-48"/>
       <use x="127.246094" xlink:href="#DejaVuSans-48"/>
       <use x="190.869141" xlink:href="#DejaVuSans-48"/>
      </g>
     </g>
    </g>
    <g id="xtick_7">
     <g id="line2d_13">
      <path clip-path="url(#pbe95e29c46)" d="M 356.781965 288.430125 
L 356.781965 22.318125 
" style="fill:none;stroke:#b0b0b0;stroke-dasharray:2.96,1.28;stroke-dashoffset:0;stroke-width:0.8;"/>
     </g>
     <g id="line2d_14">
      <g>
       <use style="stroke:#000000;stroke-width:0.8;" x="356.781965" xlink:href="#me27a37e1b5" y="288.430125"/>
      </g>
     </g>
     <g id="text_7">
      <!-- 1200 -->
      <g transform="translate(344.056965 303.028562)scale(0.1 -0.1)">
       <use xlink:href="#DejaVuSans-49"/>
       <use x="63.623047" xlink:href="#DejaVuSans-50"/>
       <use x="127.246094" xlink:href="#DejaVuSans-48"/>
       <use x="190.869141" xlink:href="#DejaVuSans-48"/>
      </g>
     </g>
    </g>
    <g id="text_8">
     <!-- Day -->
     <defs>
      <path d="M 19.671875 64.796875 
L 19.671875 8.109375 
L 31.59375 8.109375 
Q 46.6875 8.109375 53.6875 14.9375 
Q 60.6875 21.78125 60.6875 36.53125 
Q 60.6875 51.171875 53.6875 57.984375 
Q 46.6875 64.796875 31.59375 64.796875 
z
M 9.8125 72.90625 
L 30.078125 72.90625 
Q 51.265625 72.90625 61.171875 64.09375 
Q 71.09375 55.28125 71.09375 36.53125 
Q 71.09375 17.671875 61.125 8.828125 
Q 51.171875 0 30.078125 0 
L 9.8125 0 
z
" id="DejaVuSans-68"/>
      <path d="M 34.28125 27.484375 
Q 23.390625 27.484375 19.1875 25 
Q 14.984375 22.515625 14.984375 16.5 
Q 14.984375 11.71875 18.140625 8.90625 
Q 21.296875 6.109375 26.703125 6.109375 
Q 34.1875 6.109375 38.703125 11.40625 
Q 43.21875 16.703125 43.21875 25.484375 
L 43.21875 27.484375 
z
M 52.203125 31.203125 
L 52.203125 0 
L 43.21875 0 
L 43.21875 8.296875 
Q 40.140625 3.328125 35.546875 0.953125 
Q 30.953125 -1.421875 24.3125 -1.421875 
Q 15.921875 -1.421875 10.953125 3.296875 
Q 6 8.015625 6 15.921875 
Q 6 25.140625 12.171875 29.828125 
Q 18.359375 34.515625 30.609375 34.515625 
L 43.21875 34.515625 
L 43.21875 35.40625 
Q 43.21875 41.609375 39.140625 45 
Q 35.0625 48.390625 27.6875 48.390625 
Q 23 48.390625 18.546875 47.265625 
Q 14.109375 46.140625 10.015625 43.890625 
L 10.015625 52.203125 
Q 14.9375 54.109375 19.578125 55.046875 
Q 24.21875 56 28.609375 56 
Q 40.484375 56 46.34375 49.84375 
Q 52.203125 43.703125 52.203125 31.203125 
z
" id="DejaVuSans-97"/>
      <path d="M 32.171875 -5.078125 
Q 28.375 -14.84375 24.75 -17.8125 
Q 21.140625 -20.796875 15.09375 -20.796875 
L 7.90625 -20.796875 
L 7.90625 -13.28125 
L 13.1875 -13.28125 
Q 16.890625 -13.28125 18.9375 -11.515625 
Q 21 -9.765625 23.484375 -3.21875 
L 25.09375 0.875 
L 2.984375 54.6875 
L 12.5 54.6875 
L 29.59375 11.921875 
L 46.6875 54.6875 
L 56.203125 54.6875 
z
" id="DejaVuSans-121"/>
     </defs>
     <g transform="translate(215.652188 316.706687)scale(0.1 -0.1)">
      <use xlink:href="#DejaVuSans-68"/>
      <use x="77.001953" xlink:href="#DejaVuSans-97"/>
      <use x="138.28125" xlink:href="#DejaVuSans-121"/>
     </g>
    </g>
   </g>
   <g id="matplotlib.axis_2">
    <g id="ytick_1">
     <g id="line2d_15">
      <path clip-path="url(#pbe95e29c46)" d="M 46.965625 259.636874 
L 404.085625 259.636874 
" style="fill:none;stroke:#b0b0b0;stroke-dasharray:2.96,1.28;stroke-dashoffset:0;stroke-width:0.8;"/>
     </g>
     <g id="line2d_16">
      <defs>
       <path d="M 0 0 
L -3.5 0 
" id="mf5c33222ce" style="stroke:#000000;stroke-width:0.8;"/>
      </defs>
      <g>
       <use style="stroke:#000000;stroke-width:0.8;" x="46.965625" xlink:href="#mf5c33222ce" y="259.636874"/>
      </g>
     </g>
     <g id="text_9">
      <!-- 25 -->
      <defs>
       <path d="M 10.796875 72.90625 
L 49.515625 72.90625 
L 49.515625 64.59375 
L 19.828125 64.59375 
L 19.828125 46.734375 
Q 21.96875 47.46875 24.109375 47.828125 
Q 26.265625 48.1875 28.421875 48.1875 
Q 40.625 48.1875 47.75 41.5 
Q 54.890625 34.8125 54.890625 23.390625 
Q 54.890625 11.625 47.5625 5.09375 
Q 40.234375 -1.421875 26.90625 -1.421875 
Q 22.3125 -1.421875 17.546875 -0.640625 
Q 12.796875 0.140625 7.71875 1.703125 
L 7.71875 11.625 
Q 12.109375 9.234375 16.796875 8.0625 
Q 21.484375 6.890625 26.703125 6.890625 
Q 35.15625 6.890625 40.078125 11.328125 
Q 45.015625 15.765625 45.015625 23.390625 
Q 45.015625 31 40.078125 35.4375 
Q 35.15625 39.890625 26.703125 39.890625 
Q 22.75 39.890625 18.8125 39.015625 
Q 14.890625 38.140625 10.796875 36.28125 
z
" id="DejaVuSans-53"/>
      </defs>
      <g transform="translate(27.240625 263.436093)scale(0.1 -0.1)">
       <use xlink:href="#DejaVuSans-50"/>
       <use x="63.623047" xlink:href="#DejaVuSans-53"/>
      </g>
     </g>
    </g>
    <g id="ytick_2">
     <g id="line2d_17">
      <path clip-path="url(#pbe95e29c46)" d="M 46.965625 228.98847 
L 404.085625 228.98847 
" style="fill:none;stroke:#b0b0b0;stroke-dasharray:2.96,1.28;stroke-dashoffset:0;stroke-width:0.8;"/>
     </g>
     <g id="line2d_18">
      <g>
       <use style="stroke:#000000;stroke-width:0.8;" x="46.965625" xlink:href="#mf5c33222ce" y="228.98847"/>
      </g>
     </g>
     <g id="text_10">
      <!-- 50 -->
      <g transform="translate(27.240625 232.787688)scale(0.1 -0.1)">
       <use xlink:href="#DejaVuSans-53"/>
       <use x="63.623047" xlink:href="#DejaVuSans-48"/>
      </g>
     </g>
    </g>
    <g id="ytick_3">
     <g id="line2d_19">
      <path clip-path="url(#pbe95e29c46)" d="M 46.965625 198.340065 
L 404.085625 198.340065 
" style="fill:none;stroke:#b0b0b0;stroke-dasharray:2.96,1.28;stroke-dashoffset:0;stroke-width:0.8;"/>
     </g>
     <g id="line2d_20">
      <g>
       <use style="stroke:#000000;stroke-width:0.8;" x="46.965625" xlink:href="#mf5c33222ce" y="198.340065"/>
      </g>
     </g>
     <g id="text_11">
      <!-- 75 -->
      <defs>
       <path d="M 8.203125 72.90625 
L 55.078125 72.90625 
L 55.078125 68.703125 
L 28.609375 0 
L 18.3125 0 
L 43.21875 64.59375 
L 8.203125 64.59375 
z
" id="DejaVuSans-55"/>
      </defs>
      <g transform="translate(27.240625 202.139284)scale(0.1 -0.1)">
       <use xlink:href="#DejaVuSans-55"/>
       <use x="63.623047" xlink:href="#DejaVuSans-53"/>
      </g>
     </g>
    </g>
    <g id="ytick_4">
     <g id="line2d_21">
      <path clip-path="url(#pbe95e29c46)" d="M 46.965625 167.69166 
L 404.085625 167.69166 
" style="fill:none;stroke:#b0b0b0;stroke-dasharray:2.96,1.28;stroke-dashoffset:0;stroke-width:0.8;"/>
     </g>
     <g id="line2d_22">
      <g>
       <use style="stroke:#000000;stroke-width:0.8;" x="46.965625" xlink:href="#mf5c33222ce" y="167.69166"/>
      </g>
     </g>
     <g id="text_12">
      <!-- 100 -->
      <g transform="translate(20.878125 171.490879)scale(0.1 -0.1)">
       <use xlink:href="#DejaVuSans-49"/>
       <use x="63.623047" xlink:href="#DejaVuSans-48"/>
       <use x="127.246094" xlink:href="#DejaVuSans-48"/>
      </g>
     </g>
    </g>
    <g id="ytick_5">
     <g id="line2d_23">
      <path clip-path="url(#pbe95e29c46)" d="M 46.965625 137.043256 
L 404.085625 137.043256 
" style="fill:none;stroke:#b0b0b0;stroke-dasharray:2.96,1.28;stroke-dashoffset:0;stroke-width:0.8;"/>
     </g>
     <g id="line2d_24">
      <g>
       <use style="stroke:#000000;stroke-width:0.8;" x="46.965625" xlink:href="#mf5c33222ce" y="137.043256"/>
      </g>
     </g>
     <g id="text_13">
      <!-- 125 -->
      <g transform="translate(20.878125 140.842475)scale(0.1 -0.1)">
       <use xlink:href="#DejaVuSans-49"/>
       <use x="63.623047" xlink:href="#DejaVuSans-50"/>
       <use x="127.246094" xlink:href="#DejaVuSans-53"/>
      </g>
     </g>
    </g>
    <g id="ytick_6">
     <g id="line2d_25">
      <path clip-path="url(#pbe95e29c46)" d="M 46.965625 106.394851 
L 404.085625 106.394851 
" style="fill:none;stroke:#b0b0b0;stroke-dasharray:2.96,1.28;stroke-dashoffset:0;stroke-width:0.8;"/>
     </g>
     <g id="line2d_26">
      <g>
       <use style="stroke:#000000;stroke-width:0.8;" x="46.965625" xlink:href="#mf5c33222ce" y="106.394851"/>
      </g>
     </g>
     <g id="text_14">
      <!-- 150 -->
      <g transform="translate(20.878125 110.19407)scale(0.1 -0.1)">
       <use xlink:href="#DejaVuSans-49"/>
       <use x="63.623047" xlink:href="#DejaVuSans-53"/>
       <use x="127.246094" xlink:href="#DejaVuSans-48"/>
      </g>
     </g>
    </g>
    <g id="ytick_7">
     <g id="line2d_27">
      <path clip-path="url(#pbe95e29c46)" d="M 46.965625 75.746447 
L 404.085625 75.746447 
" style="fill:none;stroke:#b0b0b0;stroke-dasharray:2.96,1.28;stroke-dashoffset:0;stroke-width:0.8;"/>
     </g>
     <g id="line2d_28">
      <g>
       <use style="stroke:#000000;stroke-width:0.8;" x="46.965625" xlink:href="#mf5c33222ce" y="75.746447"/>
      </g>
     </g>
     <g id="text_15">
      <!-- 175 -->
      <g transform="translate(20.878125 79.545665)scale(0.1 -0.1)">
       <use xlink:href="#DejaVuSans-49"/>
       <use x="63.623047" xlink:href="#DejaVuSans-55"/>
       <use x="127.246094" xlink:href="#DejaVuSans-53"/>
      </g>
     </g>
    </g>
    <g id="ytick_8">
     <g id="line2d_29">
      <path clip-path="url(#pbe95e29c46)" d="M 46.965625 45.098042 
L 404.085625 45.098042 
" style="fill:none;stroke:#b0b0b0;stroke-dasharray:2.96,1.28;stroke-dashoffset:0;stroke-width:0.8;"/>
     </g>
     <g id="line2d_30">
      <g>
       <use style="stroke:#000000;stroke-width:0.8;" x="46.965625" xlink:href="#mf5c33222ce" y="45.098042"/>
      </g>
     </g>
     <g id="text_16">
      <!-- 200 -->
      <g transform="translate(20.878125 48.897261)scale(0.1 -0.1)">
       <use xlink:href="#DejaVuSans-50"/>
       <use x="63.623047" xlink:href="#DejaVuSans-48"/>
       <use x="127.246094" xlink:href="#DejaVuSans-48"/>
      </g>
     </g>
    </g>
    <g id="text_17">
     <!-- Price $ -->
     <defs>
      <path d="M 19.671875 64.796875 
L 19.671875 37.40625 
L 32.078125 37.40625 
Q 38.96875 37.40625 42.71875 40.96875 
Q 46.484375 44.53125 46.484375 51.125 
Q 46.484375 57.671875 42.71875 61.234375 
Q 38.96875 64.796875 32.078125 64.796875 
z
M 9.8125 72.90625 
L 32.078125 72.90625 
Q 44.34375 72.90625 50.609375 67.359375 
Q 56.890625 61.8125 56.890625 51.125 
Q 56.890625 40.328125 50.609375 34.8125 
Q 44.34375 29.296875 32.078125 29.296875 
L 19.671875 29.296875 
L 19.671875 0 
L 9.8125 0 
z
" id="DejaVuSans-80"/>
      <path d="M 41.109375 46.296875 
Q 39.59375 47.171875 37.8125 47.578125 
Q 36.03125 48 33.890625 48 
Q 26.265625 48 22.1875 43.046875 
Q 18.109375 38.09375 18.109375 28.8125 
L 18.109375 0 
L 9.078125 0 
L 9.078125 54.6875 
L 18.109375 54.6875 
L 18.109375 46.1875 
Q 20.953125 51.171875 25.484375 53.578125 
Q 30.03125 56 36.53125 56 
Q 37.453125 56 38.578125 55.875 
Q 39.703125 55.765625 41.0625 55.515625 
z
" id="DejaVuSans-114"/>
      <path d="M 9.421875 54.6875 
L 18.40625 54.6875 
L 18.40625 0 
L 9.421875 0 
z
M 9.421875 75.984375 
L 18.40625 75.984375 
L 18.40625 64.59375 
L 9.421875 64.59375 
z
" id="DejaVuSans-105"/>
      <path d="M 48.78125 52.59375 
L 48.78125 44.1875 
Q 44.96875 46.296875 41.140625 47.34375 
Q 37.3125 48.390625 33.40625 48.390625 
Q 24.65625 48.390625 19.8125 42.84375 
Q 14.984375 37.3125 14.984375 27.296875 
Q 14.984375 17.28125 19.8125 11.734375 
Q 24.65625 6.203125 33.40625 6.203125 
Q 37.3125 6.203125 41.140625 7.25 
Q 44.96875 8.296875 48.78125 10.40625 
L 48.78125 2.09375 
Q 45.015625 0.34375 40.984375 -0.53125 
Q 36.96875 -1.421875 32.421875 -1.421875 
Q 20.0625 -1.421875 12.78125 6.34375 
Q 5.515625 14.109375 5.515625 27.296875 
Q 5.515625 40.671875 12.859375 48.328125 
Q 20.21875 56 33.015625 56 
Q 37.15625 56 41.109375 55.140625 
Q 45.0625 54.296875 48.78125 52.59375 
z
" id="DejaVuSans-99"/>
      <path d="M 56.203125 29.59375 
L 56.203125 25.203125 
L 14.890625 25.203125 
Q 15.484375 15.921875 20.484375 11.0625 
Q 25.484375 6.203125 34.421875 6.203125 
Q 39.59375 6.203125 44.453125 7.46875 
Q 49.3125 8.734375 54.109375 11.28125 
L 54.109375 2.78125 
Q 49.265625 0.734375 44.1875 -0.34375 
Q 39.109375 -1.421875 33.890625 -1.421875 
Q 20.796875 -1.421875 13.15625 6.1875 
Q 5.515625 13.8125 5.515625 26.8125 
Q 5.515625 40.234375 12.765625 48.109375 
Q 20.015625 56 32.328125 56 
Q 43.359375 56 49.78125 48.890625 
Q 56.203125 41.796875 56.203125 29.59375 
z
M 47.21875 32.234375 
Q 47.125 39.59375 43.09375 43.984375 
Q 39.0625 48.390625 32.421875 48.390625 
Q 24.90625 48.390625 20.390625 44.140625 
Q 15.875 39.890625 15.1875 32.171875 
z
" id="DejaVuSans-101"/>
      <path id="DejaVuSans-32"/>
      <path d="M 33.796875 -14.703125 
L 28.90625 -14.703125 
L 28.859375 0 
Q 23.734375 0.09375 18.609375 1.1875 
Q 13.484375 2.296875 8.296875 4.5 
L 8.296875 13.28125 
Q 13.28125 10.15625 18.375 8.5625 
Q 23.484375 6.984375 28.90625 6.9375 
L 28.90625 29.203125 
Q 18.109375 30.953125 13.203125 35.15625 
Q 8.296875 39.359375 8.296875 46.6875 
Q 8.296875 54.640625 13.625 59.21875 
Q 18.953125 63.8125 28.90625 64.5 
L 28.90625 75.984375 
L 33.796875 75.984375 
L 33.796875 64.65625 
Q 38.328125 64.453125 42.578125 63.6875 
Q 46.828125 62.9375 50.875 61.625 
L 50.875 53.078125 
Q 46.828125 55.125 42.546875 56.25 
Q 38.28125 57.375 33.796875 57.5625 
L 33.796875 36.71875 
Q 44.875 35.015625 50.09375 30.609375 
Q 55.328125 26.21875 55.328125 18.609375 
Q 55.328125 10.359375 49.78125 5.59375 
Q 44.234375 0.828125 33.796875 0.09375 
z
M 28.90625 37.59375 
L 28.90625 57.625 
Q 23.25 56.984375 20.265625 54.390625 
Q 17.28125 51.8125 17.28125 47.515625 
Q 17.28125 43.3125 20.03125 40.96875 
Q 22.796875 38.625 28.90625 37.59375 
z
M 33.796875 28.21875 
L 33.796875 7.078125 
Q 39.984375 7.90625 43.140625 10.59375 
Q 46.296875 13.28125 46.296875 17.671875 
Q 46.296875 21.96875 43.28125 24.5 
Q 40.28125 27.046875 33.796875 28.21875 
z
" id="DejaVuSans-36"/>
     </defs>
     <g transform="translate(14.798438 172.342094)rotate(-90)scale(0.1 -0.1)">
      <use xlink:href="#DejaVuSans-80"/>
      <use x="58.552734" xlink:href="#DejaVuSans-114"/>
      <use x="99.666016" xlink:href="#DejaVuSans-105"/>
      <use x="127.449219" xlink:href="#DejaVuSans-99"/>
      <use x="182.429688" xlink:href="#DejaVuSans-101"/>
      <use x="243.953125" xlink:href="#DejaVuSans-32"/>
      <use x="275.740234" xlink:href="#DejaVuSans-36"/>
     </g>
    </g>
   </g>
   <g id="line2d_31">
    <path clip-path="url(#pbe95e29c46)" d="M 63.198352 273.939717 
L 63.443005 273.431531 
L 63.687658 273.698453 
L 63.932311 273.62394 
L 64.421617 273.053817 
L 64.66627 272.768519 
L 65.155576 272.672129 
L 65.400229 272.214002 
L 65.644882 272.232545 
L 65.889535 272.041993 
L 66.378841 272.403822 
L 66.623494 272.108848 
L 67.357453 272.343163 
L 67.602106 272.339159 
L 67.846759 272.723556 
L 68.091412 272.451775 
L 68.580719 272.773065 
L 68.825372 272.736634 
L 69.070025 273.009511 
L 69.314678 273.0514 
L 69.559331 273.856732 
L 69.803984 273.903849 
L 70.048637 273.428593 
L 70.537943 273.879719 
L 71.516555 273.205976 
L 71.761208 273.601426 
L 72.005861 273.562826 
L 72.250514 273.375971 
L 72.495167 273.461545 
L 72.984473 273.421549 
L 73.473779 273.987726 
L 73.963085 273.825685 
L 74.207738 274.054419 
L 74.452391 274.030757 
L 74.697044 274.162772 
L 74.941697 273.539864 
L 75.920309 274.590285 
L 76.164962 274.539162 
L 76.409615 274.642374 
L 76.654268 274.478524 
L 76.898921 274.046372 
L 77.143574 274.098814 
L 77.388227 274.334058 
L 77.63288 275.188079 
L 77.877533 275.451194 
L 78.122186 275.07155 
L 79.100798 275.451951 
L 79.345451 274.828044 
L 79.590104 274.806205 
L 79.834757 274.236495 
L 80.07941 274.174901 
L 80.324063 274.619337 
L 80.568716 274.608024 
L 81.058022 275.512937 
L 81.302675 275.641881 
L 81.547328 275.967703 
L 81.791981 275.953956 
L 82.036634 276.175002 
L 82.281287 275.853787 
L 82.52594 276.034662 
L 82.770593 275.703845 
L 83.749205 275.128969 
L 84.483164 275.719692 
L 84.727817 275.367383 
L 85.217123 275.465302 
L 85.461776 275.486671 
L 85.951082 274.671276 
L 86.440388 274.784018 
L 86.929694 274.763537 
L 87.663653 274.644932 
L 88.152959 275.118934 
L 88.642265 275.229356 
L 88.886918 275.305562 
L 89.131571 275.13874 
L 89.376224 274.609435 
L 89.620877 274.529551 
L 89.86553 274.07054 
L 90.599489 275.146321 
L 91.333449 275.188904 
L 91.578102 275.432174 
L 92.312061 275.213068 
L 92.801367 275.279806 
L 93.04602 275.210082 
L 93.535326 274.707255 
L 93.779979 274.975264 
L 94.269285 275.110805 
L 94.513938 274.996723 
L 94.758591 275.209516 
L 95.003244 274.934084 
L 95.49255 275.071209 
L 96.226509 274.892115 
L 96.471162 274.970873 
L 96.715815 274.586061 
L 96.960468 274.53132 
L 97.694427 275.070058 
L 97.93908 274.828717 
L 98.183733 275.033284 
L 98.428386 274.989623 
L 98.917692 274.626836 
L 99.162345 274.563992 
L 99.406998 274.624682 
L 99.651651 274.47004 
L 100.38561 274.433013 
L 100.630263 274.555913 
L 101.364222 274.512064 
L 102.098181 274.846946 
L 102.342834 274.69271 
L 102.587487 274.888088 
L 103.566099 274.652377 
L 103.810752 274.432392 
L 104.055405 274.867646 
L 104.544711 275.259467 
L 104.789364 275.15713 
L 105.034017 274.897011 
L 105.27867 274.896435 
L 105.767976 274.436873 
L 106.012629 274.473429 
L 106.257282 274.133403 
L 106.501935 274.383515 
L 106.746588 274.271033 
L 107.480547 274.741026 
L 107.7252 274.712354 
L 108.459159 273.628057 
L 108.703812 273.682099 
L 109.193118 273.276689 
L 109.437771 273.378258 
L 109.927077 273.134404 
L 110.17173 273.169489 
L 110.416383 273.374477 
L 110.661036 273.126893 
L 110.905689 273.077419 
L 111.150342 272.382613 
L 111.394995 272.621028 
L 112.373607 271.92139 
L 112.862913 271.837928 
L 113.107566 272.399371 
L 113.35222 272.222753 
L 114.086179 272.407034 
L 114.330832 272.210747 
L 114.820138 272.402473 
L 115.064791 272.383639 
L 115.309444 272.719762 
L 115.554097 272.665728 
L 115.79875 272.431337 
L 116.043403 272.410791 
L 116.532709 272.884256 
L 116.777362 272.549151 
L 117.022015 272.52085 
L 117.266668 272.369967 
L 117.511321 272.45127 
L 117.755974 271.981851 
L 118.000627 272.357556 
L 118.24528 272.450284 
L 118.489933 272.775022 
L 118.734586 272.704479 
L 119.468545 272.914471 
L 120.447157 272.674851 
L 120.69181 272.746575 
L 120.936463 272.671185 
L 121.425769 272.203568 
L 122.159728 272.118228 
L 122.649034 272.272257 
L 122.893687 272.622125 
L 123.627646 272.69922 
L 123.872299 272.643664 
L 124.361605 272.743932 
L 124.606258 272.484396 
L 124.850911 272.415241 
L 125.340217 272.032723 
L 125.58487 271.939904 
L 125.829523 272.173975 
L 126.074176 272.218924 
L 126.318829 272.110198 
L 126.808135 272.487618 
L 127.052788 272.450451 
L 127.297441 271.770156 
L 127.786747 271.493288 
L 128.0314 271.752555 
L 128.765359 271.783708 
L 129.254665 271.738627 
L 129.499318 271.944086 
L 130.47793 272.019511 
L 130.967236 271.799021 
L 131.211889 271.859838 
L 131.701195 271.208074 
L 131.945848 270.874463 
L 132.679807 270.724 
L 133.413766 270.563887 
L 133.903072 270.915085 
L 134.637031 270.885815 
L 135.126337 271.026669 
L 135.615643 271.050019 
L 135.860297 271.226953 
L 136.10495 271.0189 
L 136.349603 270.987607 
L 136.594256 271.130531 
L 136.838909 271.415402 
L 137.083562 271.274164 
L 137.328215 271.380756 
L 137.572868 271.143927 
L 137.817521 271.199516 
L 138.55148 270.74177 
L 138.796133 270.67306 
L 139.040786 270.756571 
L 139.530092 271.238105 
L 140.019398 271.457613 
L 140.99801 271.4062 
L 141.242663 271.879419 
L 141.487316 271.96523 
L 141.731969 271.856401 
L 141.976622 272.233986 
L 142.221275 271.164835 
L 142.465928 270.872891 
L 142.710581 270.834612 
L 142.955234 270.356649 
L 143.199887 270.218384 
L 143.44454 270.26511 
L 144.178499 271.437396 
L 144.423152 271.333843 
L 144.667805 271.477315 
L 145.157111 270.943718 
L 145.401764 270.858753 
L 145.646417 270.962329 
L 145.89107 270.812483 
L 146.135723 270.800931 
L 146.380376 270.559706 
L 147.114335 271.428629 
L 147.358988 271.078497 
L 147.603641 271.189415 
L 147.848294 271.541109 
L 148.092947 271.686266 
L 148.582253 271.591648 
L 149.560865 270.763364 
L 149.805518 270.708461 
L 150.050171 270.870785 
L 150.294824 270.79474 
L 150.539477 270.550102 
L 150.78413 270.463981 
L 151.273436 270.869537 
L 151.762742 270.345748 
L 152.007395 270.064524 
L 152.252048 270.707116 
L 152.496701 270.820492 
L 152.741354 271.228898 
L 153.23066 270.488262 
L 153.475313 270.4084 
L 153.719966 270.483256 
L 154.209272 270.442602 
L 154.453925 270.510714 
L 154.698578 270.971073 
L 154.943231 271.140493 
L 155.187884 270.987711 
L 155.432537 271.127449 
L 155.67719 270.862972 
L 155.921843 270.848288 
L 156.166496 271.082734 
L 156.411149 271.015788 
L 156.655802 271.155607 
L 157.634414 270.216188 
L 158.368374 268.189627 
L 158.613027 268.129762 
L 158.85768 267.873549 
L 159.102333 267.136668 
L 159.346986 267.201144 
L 159.591639 266.927136 
L 160.814904 267.645093 
L 161.30421 267.237635 
L 161.548863 267.501263 
L 161.793516 267.561135 
L 162.038169 267.860796 
L 162.527475 267.613968 
L 162.772128 268.246417 
L 163.261434 268.229095 
L 163.75074 267.360907 
L 164.240046 267.334515 
L 164.729352 267.453209 
L 165.218658 268.239234 
L 165.707964 268.118389 
L 165.952617 267.298255 
L 166.19727 267.326909 
L 166.441923 267.126772 
L 166.686576 267.743009 
L 166.931229 267.757754 
L 167.175882 267.02779 
L 167.420535 266.953559 
L 167.909841 267.825873 
L 168.6438 267.397207 
L 169.133106 267.143065 
L 169.867065 266.463917 
L 170.111718 267.028234 
L 170.356371 267.193692 
L 170.601024 267.159001 
L 170.845677 267.391918 
L 171.09033 267.311969 
L 171.334983 267.452369 
L 171.579636 267.250503 
L 171.824289 267.641719 
L 172.068942 267.673078 
L 172.313595 267.415132 
L 172.558248 267.87668 
L 172.802901 267.356069 
L 173.53686 267.991363 
L 173.781513 268.047117 
L 174.026166 267.410203 
L 174.270819 267.658906 
L 174.515472 267.704837 
L 175.004778 267.418637 
L 175.494084 266.808255 
L 176.962002 266.827703 
L 177.695961 266.594213 
L 178.185267 266.136353 
L 179.163879 266.033501 
L 179.653185 266.829725 
L 180.142491 267.446077 
L 180.387144 267.273895 
L 180.631798 267.520343 
L 180.876451 267.532552 
L 181.365757 267.09687 
L 181.61041 267.145362 
L 181.855063 266.970083 
L 182.344369 267.301152 
L 182.589022 266.704307 
L 183.078328 266.70882 
L 183.567634 266.318877 
L 184.05694 266.390876 
L 184.301593 267.348334 
L 184.790899 267.412936 
L 185.035552 267.848501 
L 185.280205 267.870161 
L 185.524858 268.216894 
L 185.769511 268.336191 
L 186.014164 268.277549 
L 186.258817 267.934959 
L 186.50347 268.532216 
L 186.748123 268.407492 
L 187.482082 268.438689 
L 187.726735 268.641608 
L 187.971388 266.968407 
L 188.216041 266.860867 
L 188.460694 266.883076 
L 188.705347 266.773595 
L 188.95 266.990459 
L 189.683959 266.318461 
L 190.417918 266.675925 
L 190.662571 266.637846 
L 190.907224 266.255115 
L 191.151877 266.45006 
L 191.641183 266.217426 
L 191.885836 266.152354 
L 192.130489 265.946928 
L 192.375142 265.535406 
L 192.619795 265.554514 
L 193.109101 266.069405 
L 193.353754 266.025298 
L 193.84306 266.58081 
L 194.087713 266.90846 
L 194.332366 266.632605 
L 194.577019 266.578439 
L 194.821672 266.255963 
L 195.310978 266.877714 
L 195.555631 266.992185 
L 195.800284 266.8777 
L 196.044937 267.313028 
L 196.778896 267.433083 
L 197.268202 267.75528 
L 197.512855 267.720889 
L 198.002161 268.059683 
L 198.246814 267.722177 
L 198.491467 268.060287 
L 198.73612 269.290881 
L 198.980773 269.498942 
L 199.470079 268.71648 
L 200.204038 268.550245 
L 200.448691 267.700843 
L 200.693344 268.069168 
L 201.18265 267.432283 
L 201.427303 267.394403 
L 201.671956 266.911032 
L 202.161262 267.137947 
L 202.405915 266.216638 
L 202.895221 265.400599 
L 203.384528 265.276427 
L 203.629181 265.739789 
L 203.873834 265.544025 
L 204.36314 265.960369 
L 204.607793 266.079091 
L 204.852446 265.823534 
L 205.097099 265.887225 
L 205.341752 265.379971 
L 205.586405 265.492346 
L 206.075711 264.985532 
L 206.320364 264.827211 
L 206.565017 264.823084 
L 206.80967 264.450139 
L 207.054323 264.337962 
L 207.298976 264.763853 
L 207.543629 264.787285 
L 207.788282 264.194244 
L 208.032935 264.328583 
L 208.277588 264.224749 
L 208.522241 264.509702 
L 208.766894 264.62295 
L 209.011547 265.139246 
L 209.2562 265.210206 
L 209.500853 265.904348 
L 209.990159 266.312386 
L 210.234812 265.454459 
L 210.724118 265.023534 
L 210.968771 264.603666 
L 211.70273 264.799645 
L 211.947383 264.82918 
L 212.192036 265.043746 
L 212.436689 265.425058 
L 212.681342 265.380116 
L 212.925995 265.742015 
L 213.170648 266.450607 
L 213.415301 266.587399 
L 213.659954 265.791687 
L 213.904607 265.597459 
L 214.14926 265.866529 
L 214.393913 265.94065 
L 214.638566 265.855483 
L 214.883219 265.996156 
L 215.127872 265.617522 
L 215.372525 265.501898 
L 216.106484 264.652218 
L 216.351137 264.758921 
L 216.59579 265.860122 
L 216.840443 266.349238 
L 217.085096 265.866587 
L 217.329749 266.433351 
L 217.574402 266.050302 
L 217.819055 265.450856 
L 218.063708 265.326082 
L 218.308361 264.969795 
L 218.797667 265.05222 
L 219.04232 264.424998 
L 219.286973 264.500812 
L 219.531626 262.873315 
L 220.020932 262.592881 
L 220.265585 262.881849 
L 220.510238 262.850659 
L 220.754891 262.661576 
L 220.999544 262.837034 
L 221.244197 262.696164 
L 221.48885 262.864041 
L 221.733503 262.819272 
L 221.978156 262.964592 
L 222.222809 262.393379 
L 222.467462 262.774248 
L 222.712115 262.553846 
L 222.956768 262.042813 
L 223.201421 262.326953 
L 223.446074 262.305931 
L 223.690727 261.865973 
L 223.93538 261.944797 
L 224.180033 262.196787 
L 224.424686 262.19403 
L 224.913992 261.539537 
L 225.158645 261.925852 
L 225.647952 261.267753 
L 226.626564 264.335932 
L 226.871217 263.869444 
L 227.11587 263.703138 
L 227.360523 264.292159 
L 227.849829 264.212529 
L 228.094482 263.536114 
L 228.828441 262.463789 
L 229.073094 262.133228 
L 229.5624 262.583393 
L 229.807053 262.310334 
L 230.051706 262.426524 
L 230.541012 262.929983 
L 230.785665 262.986081 
L 231.030318 262.699182 
L 231.274971 262.761601 
L 231.519624 262.985045 
L 232.00893 262.685489 
L 232.253583 262.848176 
L 232.498236 262.804842 
L 232.742889 262.186536 
L 232.987542 262.267109 
L 233.232195 262.933911 
L 233.476848 262.938289 
L 233.721501 262.491804 
L 233.966154 264.287132 
L 234.210807 264.728545 
L 234.700113 264.353364 
L 234.944766 263.960256 
L 235.434072 263.942658 
L 235.678725 264.203562 
L 235.923378 264.234334 
L 236.657337 264.599775 
L 236.90199 263.388163 
L 237.146643 262.90374 
L 237.391296 262.880989 
L 237.635949 262.615109 
L 238.125255 263.397856 
L 238.614561 262.747926 
L 238.859214 263.291375 
L 239.103867 263.242839 
L 239.34852 263.657784 
L 239.593173 263.451657 
L 239.837826 264.070939 
L 240.082479 264.194141 
L 240.571785 263.591791 
L 240.816438 263.159797 
L 241.305744 263.317419 
L 241.550397 263.942665 
L 241.79505 264.249301 
L 242.039703 264.096782 
L 242.284356 264.547133 
L 242.529009 265.293641 
L 242.773662 265.390145 
L 243.018315 265.064466 
L 243.262968 264.997754 
L 243.507621 265.273777 
L 243.752274 265.73181 
L 244.24158 266.218338 
L 244.730886 265.679416 
L 244.975539 265.652077 
L 245.220192 265.810019 
L 245.464845 265.344648 
L 245.709498 265.415653 
L 245.954151 265.843309 
L 246.198804 265.797963 
L 246.443457 266.203296 
L 246.68811 265.98854 
L 247.177416 266.361088 
L 247.666722 265.586315 
L 247.911375 265.49888 
L 248.156029 265.573796 
L 248.400682 265.209505 
L 248.889988 264.83113 
L 249.134641 264.949279 
L 249.379294 262.166979 
L 249.623947 260.934381 
L 250.602559 261.166086 
L 250.847212 261.326596 
L 251.091865 261.689617 
L 251.336518 261.830352 
L 252.31513 265.127849 
L 252.804436 262.353184 
L 253.049089 262.138049 
L 253.293742 262.418424 
L 253.538395 263.478917 
L 253.783048 262.880367 
L 254.027701 262.716958 
L 254.272354 263.285494 
L 254.517007 262.333009 
L 254.76166 262.706899 
L 255.006313 262.383174 
L 255.740272 261.925132 
L 256.229578 261.459651 
L 256.474231 261.455176 
L 256.718884 261.192577 
L 256.963537 261.870802 
L 257.20819 261.834418 
L 257.697496 261.074383 
L 257.942149 261.398741 
L 258.186802 260.988617 
L 258.431455 259.887148 
L 258.676108 260.294873 
L 259.410067 258.44709 
L 259.899373 257.914498 
L 260.144026 258.009498 
L 260.388679 257.712096 
L 260.633332 257.619124 
L 260.877985 256.543355 
L 261.122638 256.342814 
L 261.367291 255.860876 
L 261.856597 255.918111 
L 262.10125 256.323794 
L 262.345903 255.26195 
L 262.590556 254.919075 
L 263.079862 255.09023 
L 263.324515 254.834041 
L 263.569168 255.9067 
L 264.058474 254.797802 
L 264.303127 254.978972 
L 264.792433 255.951917 
L 265.037086 251.693573 
L 265.281739 251.363573 
L 265.771045 252.51054 
L 266.015698 252.660046 
L 266.260351 253.333861 
L 266.505004 252.733706 
L 266.749657 252.655898 
L 266.99431 251.953855 
L 267.483616 251.467818 
L 267.728269 251.961227 
L 267.972922 251.737271 
L 268.217575 251.745291 
L 268.706881 251.055372 
L 268.951534 249.862163 
L 269.44084 250.139236 
L 269.685493 248.666905 
L 269.930146 249.222632 
L 270.174799 248.803433 
L 270.419452 249.703678 
L 270.664106 249.501192 
L 270.908759 250.01179 
L 271.153412 249.978544 
L 271.642718 249.242554 
L 272.132024 250.439547 
L 272.376677 249.644319 
L 273.110636 249.232439 
L 273.355289 249.252857 
L 273.599942 248.650673 
L 273.844595 248.911915 
L 274.333901 250.147158 
L 274.578554 249.628283 
L 275.312513 253.524265 
L 275.557166 253.530789 
L 275.801819 252.954492 
L 276.291125 254.70327 
L 276.535778 256.51508 
L 276.780431 256.455381 
L 277.025084 256.244926 
L 277.269737 255.86567 
L 277.51439 255.106954 
L 277.759043 255.066293 
L 278.003696 254.766401 
L 278.493002 255.507079 
L 278.737655 254.160777 
L 278.982308 253.991289 
L 279.226961 255.386636 
L 279.716267 255.355893 
L 280.205573 258.910946 
L 280.450226 258.752655 
L 280.694879 258.764691 
L 280.939532 258.913039 
L 281.184185 258.454587 
L 281.673491 256.08642 
L 281.918144 253.355399 
L 282.162797 252.619949 
L 282.40745 251.384704 
L 283.141409 250.831799 
L 283.386062 251.061281 
L 283.630715 251.11158 
L 283.875368 251.448909 
L 284.120021 249.924562 
L 284.364674 249.537983 
L 284.85398 249.998279 
L 285.098633 250.237725 
L 285.343286 250.916385 
L 285.832592 251.056212 
L 286.077245 250.454175 
L 286.321898 250.299694 
L 286.566551 250.474766 
L 286.811204 249.420287 
L 287.055857 249.617223 
L 287.30051 248.546712 
L 287.545163 248.318645 
L 287.789816 248.38183 
L 288.034469 247.742608 
L 288.279122 247.617224 
L 288.523775 247.222147 
L 289.013081 246.074216 
L 289.257734 246.182128 
L 289.502387 245.6145 
L 289.74704 245.944825 
L 289.991693 246.041695 
L 290.236346 245.986582 
L 290.480999 246.392247 
L 290.970305 245.89399 
L 291.214958 245.912089 
L 291.459611 244.903903 
L 291.948917 244.353503 
L 292.19357 244.502976 
L 292.438223 245.265468 
L 292.92753 245.2021 
L 293.172183 245.364233 
L 293.661489 245.124596 
L 293.906142 244.186362 
L 294.395448 246.231625 
L 294.640101 245.77001 
L 294.884754 246.188362 
L 295.129407 247.153261 
L 295.37406 247.011121 
L 295.618713 246.573127 
L 295.863366 246.587138 
L 296.108019 245.833045 
L 296.352672 245.643298 
L 296.597325 246.188778 
L 296.841978 240.14574 
L 297.086631 238.163125 
L 297.331284 237.978297 
L 297.575937 236.773396 
L 297.82059 236.435289 
L 298.065243 235.530372 
L 298.309896 235.370255 
L 298.554549 234.277929 
L 298.799202 234.394441 
L 300.022467 231.99279 
L 300.26712 232.705767 
L 300.511773 233.039838 
L 300.756426 232.948991 
L 301.001079 233.104211 
L 301.245732 231.753167 
L 301.490385 232.978435 
L 301.735038 232.435297 
L 301.979691 232.262479 
L 302.224344 231.708871 
L 302.468997 231.449176 
L 302.71365 232.383112 
L 302.958303 231.509911 
L 303.202956 231.749085 
L 303.447609 231.831687 
L 303.692262 230.398714 
L 303.936915 233.422167 
L 304.181568 234.26324 
L 304.915527 232.125853 
L 305.16018 232.500957 
L 305.649486 231.329596 
L 305.894139 229.887644 
L 306.383445 226.01833 
L 306.628098 225.035033 
L 306.872751 224.993248 
L 307.117404 224.37478 
L 307.362057 225.028191 
L 307.60671 224.77459 
L 308.096016 223.256326 
L 308.340669 224.345103 
L 309.074628 220.289969 
L 309.319281 220.870893 
L 309.563934 220.782469 
L 309.808587 219.697625 
L 310.05324 220.04227 
L 310.297893 220.878549 
L 310.542546 220.75902 
L 311.276505 217.648667 
L 311.521158 217.439433 
L 311.765811 217.863837 
L 312.010464 216.515468 
L 312.255117 212.552533 
L 312.49977 212.375193 
L 312.744423 212.854079 
L 312.989076 214.545699 
L 313.233729 213.535661 
L 313.723035 212.960583 
L 313.967688 212.492346 
L 314.212341 213.582507 
L 314.456994 214.124742 
L 314.701647 213.556388 
L 314.9463 213.556692 
L 315.435607 214.343301 
L 315.68026 212.261253 
L 315.924913 212.839394 
L 316.169566 212.223157 
L 316.414219 213.245115 
L 316.658872 212.794887 
L 316.903525 216.362773 
L 317.148178 215.183944 
L 317.392831 216.07557 
L 317.637484 215.555119 
L 317.882137 212.863161 
L 318.12679 212.521902 
L 318.371443 211.572304 
L 318.616096 212.173777 
L 318.860749 210.16227 
L 319.105402 209.835808 
L 319.350055 209.925981 
L 319.594708 210.638009 
L 319.839361 208.119037 
L 320.084014 207.675146 
L 320.328667 206.961668 
L 320.57332 205.608127 
L 320.817973 205.606416 
L 321.307279 205.863833 
L 321.796585 207.519687 
L 322.041238 207.249428 
L 322.285891 208.35771 
L 322.530544 208.079305 
L 322.775197 209.302603 
L 323.01985 208.636313 
L 323.264503 209.022645 
L 323.509156 207.897302 
L 323.753809 207.989767 
L 323.998462 206.546585 
L 324.243115 206.680391 
L 324.487768 203.014265 
L 324.732421 201.449099 
L 324.977074 201.070502 
L 325.221727 202.781025 
L 325.46638 202.998972 
L 325.711033 202.281389 
L 325.955686 204.714967 
L 326.200339 205.19758 
L 326.689645 206.625778 
L 326.934298 202.328716 
L 327.178951 202.217096 
L 327.423604 203.661157 
L 327.668257 206.266748 
L 327.91291 182.728917 
L 328.157563 186.665967 
L 328.402216 184.056672 
L 328.646869 177.351847 
L 329.136175 175.053189 
L 329.380828 175.434358 
L 329.870134 174.196449 
L 330.114787 173.949405 
L 330.35944 173.977539 
L 330.848746 176.215383 
L 331.093399 181.645701 
L 331.338052 180.800971 
L 331.582705 176.656599 
L 332.072011 172.785517 
L 332.561317 176.614033 
L 332.80597 179.293253 
L 333.050623 177.491434 
L 333.295276 171.173268 
L 333.784582 166.333686 
L 334.029235 164.788358 
L 334.273888 160.477126 
L 334.518541 159.606526 
L 334.763194 158.060412 
L 335.007847 154.7842 
L 335.2525 145.6235 
L 335.497153 155.354602 
L 335.741806 152.694276 
L 336.231112 164.0068 
L 336.475765 161.121876 
L 336.720418 164.301976 
L 336.965071 162.749783 
L 337.209724 157.642467 
L 337.454377 158.579204 
L 337.943684 162.182842 
L 338.188337 162.208928 
L 338.43299 165.034215 
L 338.922296 160.225938 
L 339.166949 161.63832 
L 339.411602 160.355947 
L 339.656255 157.609123 
L 339.900908 157.052152 
L 340.390214 152.2156 
L 340.634867 154.324923 
L 340.87952 155.332762 
L 341.124173 149.513896 
L 341.368826 147.768551 
L 341.613479 149.019601 
L 342.102785 143.122626 
L 342.347438 143.76487 
L 342.836744 149.720834 
L 343.081397 156.054929 
L 343.570703 155.312691 
L 343.815356 157.501683 
L 344.060009 157.527255 
L 344.304662 152.855178 
L 344.549315 153.23255 
L 344.793968 165.68295 
L 345.038621 164.539097 
L 345.283274 160.922925 
L 345.527927 164.600266 
L 345.77258 163.126098 
L 346.017233 167.630799 
L 346.506539 169.314965 
L 346.751192 168.098691 
L 346.995845 168.329068 
L 347.240498 168.387058 
L 347.485151 167.687508 
L 347.729804 164.401764 
L 347.974457 164.449353 
L 348.21911 163.538328 
L 348.463763 161.977839 
L 348.708416 159.232531 
L 348.953069 155.124842 
L 349.197722 159.356151 
L 349.442375 156.748717 
L 349.687028 157.836507 
L 349.931681 157.413296 
L 350.176334 156.436958 
L 350.66564 157.506697 
L 350.910293 154.986303 
L 351.399599 156.20052 
L 351.644252 165.350651 
L 351.888905 166.305411 
L 352.133558 165.402224 
L 352.378211 166.016015 
L 352.622864 169.150574 
L 352.867517 168.766253 
L 353.11217 169.720714 
L 353.356823 171.963983 
L 353.601476 167.537446 
L 353.846129 167.408035 
L 354.090782 167.008927 
L 354.335435 165.090559 
L 354.580088 164.563995 
L 355.069394 160.87775 
L 355.314047 161.728484 
L 355.5587 159.782533 
L 355.803353 161.349186 
L 356.048006 158.544821 
L 356.292659 162.300046 
L 356.537312 161.409056 
L 356.781965 161.824822 
L 357.026618 161.832594 
L 357.271271 163.127183 
L 357.515924 162.918439 
L 357.760577 140.757514 
L 358.00523 134.316981 
L 358.249883 132.64576 
L 358.494536 124.573336 
L 358.739189 121.480829 
L 358.983842 132.704273 
L 359.228495 125.818053 
L 359.717801 118.92089 
L 359.962454 121.212188 
L 360.207107 119.113565 
L 360.451761 119.452018 
L 360.941067 111.316292 
L 361.18572 112.031771 
L 361.430373 111.899461 
L 361.675026 112.727664 
L 361.919679 107.266677 
L 362.164332 108.301641 
L 362.408985 106.032716 
L 362.653638 92.562177 
L 362.898291 106.019341 
L 363.142944 104.868903 
L 363.387597 103.012995 
L 363.63225 102.867984 
L 363.876903 102.077343 
L 364.121556 103.002576 
L 364.366209 95.801155 
L 364.610862 96.384305 
L 364.855515 93.330838 
L 365.100168 94.751825 
L 365.344821 100.352996 
L 365.589474 102.156565 
L 365.834127 109.091121 
L 366.07878 102.402347 
L 366.323433 109.079636 
L 366.568086 111.477559 
L 366.812739 117.815741 
L 367.057392 113.022887 
L 367.302045 112.738345 
L 367.546698 108.757008 
L 367.791351 100.215879 
L 368.036004 97.793207 
L 368.280657 89.526444 
L 368.52531 92.146149 
L 368.769963 86.537139 
L 369.014616 87.641148 
L 369.259269 85.441418 
L 369.503922 86.583213 
L 369.748575 83.458568 
L 369.993228 82.813762 
L 370.237881 85.243861 
L 370.482534 86.003336 
L 370.727187 83.495289 
L 370.97184 90.591899 
L 371.216493 86.79783 
L 371.461146 89.348023 
L 371.705799 86.755666 
L 371.950452 86.975073 
L 372.195105 84.325942 
L 372.439758 83.518616 
L 372.684411 77.072967 
L 372.929064 80.003907 
L 373.173717 77.504521 
L 373.663023 97.511621 
L 373.907676 81.299188 
L 374.641635 90.693885 
L 374.886288 90.430127 
L 375.130941 93.497099 
L 375.620247 85.320463 
L 375.8649 86.305424 
L 376.109553 87.903167 
L 376.354206 86.301459 
L 376.598859 86.76863 
L 376.843512 85.541085 
L 377.088165 80.855736 
L 377.332818 79.81937 
L 377.577471 85.563439 
L 377.822124 85.260359 
L 378.066777 84.317225 
L 378.31143 88.096347 
L 378.556083 81.164166 
L 378.800736 80.76806 
L 379.045389 79.800701 
L 379.290042 80.962942 
L 379.779348 58.715425 
L 380.024001 59.400487 
L 380.268654 61.00025 
L 380.513307 67.241009 
L 380.75796 69.075798 
L 381.002613 79.219683 
L 381.247266 77.376476 
L 381.491919 72.782527 
L 381.736572 73.212734 
L 381.981225 69.144675 
L 382.225878 68.996951 
L 382.470531 68.494088 
L 382.715184 66.588515 
L 382.959838 66.869764 
L 383.204491 66.192278 
L 383.693797 56.904431 
L 383.93845 54.585186 
L 384.183103 54.525476 
L 384.672409 45.947533 
L 384.917062 46.435056 
L 385.161715 46.487397 
L 385.406368 46.115048 
L 385.651021 47.273566 
L 385.895674 47.492112 
L 386.140327 44.78097 
L 386.38498 51.396585 
L 386.629633 48.167428 
L 386.874286 40.501717 
L 387.118939 38.595002 
L 387.363592 34.769638 
L 387.608245 34.414125 
L 387.852898 35.990505 
L 387.852898 35.990505 
" style="fill:none;stroke:#1f77b4;stroke-linecap:square;stroke-width:1.5;"/>
   </g>
   <g id="line2d_32">
    <path clip-path="url(#pbe95e29c46)" d="M 63.198352 273.943549 
L 63.443005 273.686103 
L 63.687658 273.869993 
L 63.932311 273.808696 
L 64.66627 272.938282 
L 64.910923 272.840207 
L 65.155576 272.251758 
L 65.400229 272.362092 
L 65.644882 272.129164 
L 66.134188 272.533723 
L 66.378841 272.165942 
L 66.623494 272.325314 
L 67.357453 272.337573 
L 67.602106 272.754391 
L 67.846759 272.38661 
L 68.091412 272.693095 
L 68.580719 272.729873 
L 68.825372 273.060875 
L 69.070025 273.085394 
L 69.314678 274.004846 
L 69.559331 273.955809 
L 69.803984 273.453175 
L 70.048637 273.857734 
L 70.29329 274.004846 
L 71.271902 273.318322 
L 71.516555 273.784178 
L 72.005861 273.477694 
L 72.250514 273.600287 
L 72.73982 273.538991 
L 73.229126 274.12744 
L 73.718432 273.93129 
L 73.963085 274.200996 
L 74.207738 274.139699 
L 74.452391 274.299071 
L 74.697044 273.588028 
L 74.941697 273.980328 
L 75.18635 274.139699 
L 75.675656 274.752667 
L 75.920309 274.666852 
L 76.164962 274.801705 
L 76.409615 274.605555 
L 76.654268 274.151959 
L 77.143574 274.519739 
L 77.388227 275.439192 
L 77.63288 275.610823 
L 77.877533 275.169486 
L 78.122186 275.365635 
L 78.366839 275.353376 
L 78.856145 275.610823 
L 79.100798 274.89978 
L 79.345451 274.973336 
L 79.590104 274.32359 
L 79.834757 274.335849 
L 80.07941 274.826223 
L 80.324063 274.740408 
L 80.813369 275.684379 
L 81.058022 275.782454 
L 81.302675 276.137975 
L 81.547328 276.076678 
L 81.791981 276.334125 
L 82.036634 275.941825 
L 82.281287 276.199272 
L 82.52594 275.794713 
L 82.770593 275.696638 
L 83.015246 275.439192 
L 83.504552 275.255301 
L 83.749205 275.525007 
L 83.993858 275.610823 
L 84.238511 275.880529 
L 84.483164 275.451451 
L 84.727817 275.623082 
L 85.217123 275.623082 
L 85.706429 274.777186 
L 85.951082 274.936558 
L 87.419 274.789445 
L 87.663653 275.144967 
L 88.152959 275.27982 
L 88.642265 275.451451 
L 88.886918 275.255301 
L 89.131571 274.691371 
L 89.376224 274.679111 
L 89.620877 274.164218 
L 90.110183 274.973336 
L 90.354836 275.316598 
L 91.088796 275.328857 
L 91.333449 275.598563 
L 91.822755 275.267561 
L 92.312061 275.439192 
L 92.801367 275.341117 
L 93.290673 274.826223 
L 93.535326 275.157226 
L 94.269285 275.120448 
L 94.513938 275.377895 
L 94.758591 275.034633 
L 95.247897 275.218523 
L 95.737203 274.948817 
L 96.226509 275.120448 
L 96.471162 274.679111 
L 96.715815 274.679111 
L 97.449774 275.218523 
L 97.694427 274.936558 
L 97.93908 275.206264 
L 98.183733 275.120448 
L 98.428386 274.838483 
L 98.917692 274.70363 
L 99.162345 274.777186 
L 99.406998 274.593296 
L 101.364222 274.789445 
L 101.853528 274.997855 
L 102.098181 274.813964 
L 102.342834 275.059151 
L 102.587487 274.985595 
L 102.83214 275.071411 
L 103.321446 274.777186 
L 103.566099 274.556518 
L 103.810752 275.071411 
L 104.300058 275.414673 
L 104.544711 275.27982 
L 104.789364 275.010114 
L 105.034017 275.046892 
L 105.523323 274.556518 
L 105.767976 274.630074 
L 106.012629 274.237774 
L 106.257282 274.568777 
L 106.501935 274.397146 
L 106.991241 274.912039 
L 107.480547 274.850742 
L 108.214506 273.771918 
L 108.459159 273.845475 
L 108.948465 273.404138 
L 109.193118 273.55125 
L 109.682424 273.281544 
L 109.927077 273.330581 
L 110.17173 273.55125 
L 110.416383 273.244766 
L 110.661036 273.232506 
L 110.905689 272.460167 
L 111.150342 272.827948 
L 111.639648 272.264017 
L 111.884301 272.349832 
L 112.128954 272.055608 
L 112.373607 272.092386 
L 112.61826 271.994311 
L 112.862913 272.631798 
L 113.107566 272.349832 
L 113.841526 272.58276 
L 114.086179 272.349832 
L 114.330832 272.545982 
L 114.820138 272.545982 
L 115.064791 272.926022 
L 115.309444 272.815688 
L 115.554097 272.570501 
L 115.79875 272.58276 
L 116.288056 273.060875 
L 116.532709 272.668576 
L 116.777362 272.693095 
L 117.022015 272.521463 
L 117.266668 272.631798 
L 117.511321 272.092386 
L 117.755974 272.58276 
L 118.000627 272.619538 
L 118.24528 272.97506 
L 118.489933 272.852466 
L 119.223892 273.073135 
L 120.202504 272.827948 
L 120.447157 272.926022 
L 120.69181 272.827948 
L 121.181116 272.349832 
L 122.159728 272.374351 
L 122.404381 272.447907 
L 122.649034 272.827948 
L 124.116952 272.913763 
L 124.361605 272.619538 
L 124.606258 272.58276 
L 125.095564 272.190461 
L 125.340217 272.104645 
L 125.58487 272.374351 
L 125.829523 272.38661 
L 126.074176 272.264017 
L 126.563482 272.668576 
L 126.808135 272.607279 
L 127.052788 271.859458 
L 127.542094 271.663308 
L 127.786747 271.957533 
L 129.010012 271.908495 
L 129.254665 272.141423 
L 130.233277 272.190461 
L 130.722583 271.969792 
L 130.967236 272.043348 
L 131.945848 271.038081 
L 132.435154 270.903228 
L 133.169113 270.756115 
L 133.658419 271.111637 
L 134.147725 271.013562 
L 135.615643 271.43038 
L 135.860297 271.172934 
L 136.10495 271.172934 
L 136.349603 271.332305 
L 136.594256 271.62653 
L 136.838909 271.43038 
L 137.083562 271.577493 
L 137.328215 271.295527 
L 137.572868 271.393602 
L 137.817521 271.160674 
L 138.062174 271.123896 
L 138.306827 270.903228 
L 138.55148 270.85419 
L 138.796133 270.952265 
L 139.285439 271.43038 
L 139.774745 271.638789 
L 140.753357 271.577493 
L 140.99801 272.116905 
L 141.242663 272.141423 
L 141.487316 272.01883 
L 141.731969 272.460167 
L 141.976622 271.209712 
L 142.221275 271.05034 
L 142.465928 271.025821 
L 142.710581 270.486409 
L 142.955234 270.400594 
L 143.199887 270.461891 
L 143.689193 271.356824 
L 143.933846 271.638789 
L 144.178499 271.491677 
L 144.423152 271.675568 
L 144.667805 271.271009 
L 145.157111 271.038081 
L 145.401764 271.160674 
L 145.646417 270.976784 
L 145.89107 270.989043 
L 146.135723 270.719337 
L 146.869682 271.638789 
L 147.114335 271.209712 
L 147.358988 271.393602 
L 147.603641 271.761383 
L 147.848294 271.871717 
L 148.3376 271.761383 
L 148.582253 271.503936 
L 148.826906 271.43038 
L 149.071559 271.05034 
L 149.560865 270.890968 
L 149.805518 271.074859 
L 150.050171 270.964525 
L 150.294824 270.707078 
L 150.539477 270.645781 
L 151.028783 271.074859 
L 151.762742 270.228963 
L 152.007395 270.976784 
L 152.252048 271.001303 
L 152.496701 271.454899 
L 152.741354 270.86645 
L 152.986007 270.65804 
L 153.23066 270.596744 
L 153.475313 270.682559 
L 153.964619 270.633522 
L 154.209272 270.707078 
L 154.453925 271.209712 
L 154.698578 271.332305 
L 154.943231 271.148415 
L 155.187884 271.332305 
L 155.432537 271.013562 
L 155.67719 271.038081 
L 155.921843 271.295527 
L 156.166496 271.185193 
L 156.411149 271.356824 
L 157.389761 270.363816 
L 158.12372 268.328762 
L 158.368374 268.341021 
L 158.613027 268.046796 
L 158.85768 267.262197 
L 159.102333 267.433828 
L 159.346986 267.102826 
L 159.591639 267.311235 
L 159.836292 267.348013 
L 160.325598 267.752572 
L 160.570251 267.862906 
L 161.059557 267.433828 
L 161.30421 267.752572 
L 161.548863 267.77709 
L 161.793516 268.108093 
L 162.038169 267.887425 
L 162.282822 267.826128 
L 162.527475 268.537171 
L 163.016781 268.439096 
L 163.506087 267.544163 
L 163.995393 267.556422 
L 164.484699 267.666756 
L 164.974005 268.475874 
L 165.463311 268.328762 
L 165.707964 267.421569 
L 165.952617 267.568681 
L 166.19727 267.323494 
L 166.441923 268.034537 
L 166.686576 267.960981 
L 166.931229 267.164122 
L 167.175882 267.188641 
L 167.665188 268.071315 
L 168.154494 267.666756 
L 168.6438 267.531903 
L 169.622412 266.673748 
L 169.867065 267.323494 
L 170.111718 267.421569 
L 170.356371 267.372532 
L 170.601024 267.642237 
L 170.845677 267.519644 
L 171.09033 267.691275 
L 171.334983 267.446088 
L 171.579636 267.911943 
L 171.824289 267.887425 
L 172.068942 267.605459 
L 172.313595 268.157131 
L 172.558248 267.507384 
L 173.047554 268.095834 
L 173.53686 268.267465 
L 173.781513 267.556422 
L 174.026166 267.924203 
L 174.515472 267.826128 
L 174.760125 267.617719 
L 175.249431 267.01701 
L 176.472696 267.139604 
L 177.451308 266.808601 
L 177.940614 266.355004 
L 178.919226 266.269189 
L 179.163879 266.82086 
L 179.897838 267.703534 
L 180.142491 267.470606 
L 180.387144 267.77709 
L 180.631798 267.752572 
L 181.121104 267.298975 
L 181.365757 267.384791 
L 181.61041 267.176382 
L 182.099716 267.544163 
L 182.344369 266.857638 
L 182.589022 266.992491 
L 182.833675 266.931194 
L 183.078328 266.63697 
L 183.322981 266.538895 
L 183.812287 266.62471 
L 184.05694 267.679016 
L 184.301593 267.544163 
L 184.546246 267.642237 
L 184.790899 268.120353 
L 185.035552 268.083574 
L 185.280205 268.475874 
L 185.524858 268.56169 
L 185.769511 268.488133 
L 186.014164 268.120353 
L 186.258817 268.831396 
L 186.50347 268.598468 
L 187.482082 268.880433 
L 187.726735 266.992491 
L 188.216041 267.115085 
L 188.460694 266.980232 
L 188.705347 267.237679 
L 189.194653 266.62471 
L 189.439306 266.538895 
L 190.173265 266.894416 
L 190.417918 266.857638 
L 190.662571 266.44082 
L 190.907224 266.710526 
L 191.39653 266.44082 
L 191.641183 266.379523 
L 191.885836 266.158855 
L 192.130489 265.729777 
L 192.375142 265.803333 
L 192.864448 266.330486 
L 193.109101 266.24467 
L 193.598407 266.845379 
L 193.84306 267.164122 
L 194.087713 266.82086 
L 194.332366 266.808601 
L 194.577019 266.453079 
L 195.066325 267.127344 
L 195.310978 267.225419 
L 195.555631 267.090566 
L 195.800284 267.5932 
L 196.28959 267.580941 
L 196.534243 267.666756 
L 197.023549 267.9855 
L 197.268202 267.936462 
L 197.757508 268.304243 
L 198.002161 267.899684 
L 198.246814 268.328762 
L 198.491467 269.640513 
L 198.73612 269.70181 
L 199.225426 268.904952 
L 199.714732 268.92947 
L 199.959385 268.74558 
L 200.204038 267.826128 
L 200.448691 268.35328 
L 200.693344 267.862906 
L 200.937997 267.629978 
L 201.18265 267.617719 
L 201.427303 267.078307 
L 201.916609 267.372532 
L 202.161262 266.330486 
L 202.650568 265.607183 
L 203.139875 265.496849 
L 203.384528 266.024002 
L 203.629181 265.742036 
L 204.118487 266.207892 
L 204.36314 266.318226 
L 204.607793 266.024002 
L 204.852446 266.134336 
L 205.097099 265.558146 
L 205.341752 265.754296 
L 205.586405 265.349737 
L 206.320364 265.067771 
L 206.565017 264.650953 
L 206.80967 264.577397 
L 207.054323 265.055512 
L 207.298976 265.018734 
L 207.543629 264.368988 
L 207.788282 264.601916 
L 208.032935 264.454803 
L 208.277588 264.785806 
L 208.522241 264.871622 
L 208.766894 265.435552 
L 209.011547 265.447812 
L 209.2562 266.220151 
L 209.500853 266.293708 
L 209.745506 266.575673 
L 209.990159 265.594924 
L 210.234812 265.496849 
L 210.479465 265.251662 
L 210.724118 264.810325 
L 211.213424 265.067771 
L 211.70273 265.080031 
L 211.947383 265.312959 
L 212.192036 265.705258 
L 212.436689 265.607183 
L 212.681342 266.024002 
L 212.925995 266.759563 
L 213.170648 266.82086 
L 213.415301 265.938186 
L 213.659954 265.840111 
L 213.904607 266.146595 
L 214.14926 266.183373 
L 214.393913 266.085299 
L 214.638566 266.25693 
L 214.883219 265.815593 
L 215.127872 265.742036 
L 215.861831 264.89614 
L 216.106484 265.018734 
L 216.351137 266.220151 
L 216.59579 266.612451 
L 216.840443 266.036261 
L 217.085096 266.747304 
L 217.574402 265.631702 
L 217.819055 265.570405 
L 218.063708 265.178106 
L 218.553014 265.300699 
L 218.797667 264.601916 
L 219.04232 264.773547 
L 219.286973 262.946902 
L 219.776279 262.848827 
L 220.020932 263.16757 
L 220.265585 263.094014 
L 220.510238 262.897864 
L 220.754891 263.118533 
L 220.999544 262.934643 
L 221.244197 263.143052 
L 221.48885 263.069495 
L 221.733503 263.241127 
L 221.978156 262.59138 
L 222.222809 263.094014 
L 222.467462 262.78753 
L 222.712115 262.260378 
L 222.956768 262.640418 
L 223.201421 262.566862 
L 223.446074 262.088747 
L 224.180033 262.456527 
L 224.669339 261.782263 
L 224.913992 262.248118 
L 225.403298 261.512557 
L 225.647952 262.444268 
L 225.892605 262.824308 
L 226.137258 264.491581 
L 226.381911 264.589656 
L 226.626564 264.074763 
L 226.871217 263.964429 
L 227.11587 264.626434 
L 227.605176 264.467063 
L 227.849829 263.731501 
L 228.339135 263.290164 
L 228.583788 262.677196 
L 228.828441 262.382971 
L 229.317747 262.873346 
L 229.5624 262.542343 
L 229.807053 262.713974 
L 230.051706 263.069495 
L 230.541012 263.253386 
L 230.785665 262.934643 
L 231.030318 263.044977 
L 231.274971 263.277905 
L 231.764277 262.946902 
L 232.00893 263.143052 
L 232.253583 263.069495 
L 232.498236 262.395231 
L 232.742889 262.566862 
L 232.987542 263.277905 
L 233.232195 263.192089 
L 233.476848 262.713974 
L 233.721501 264.761287 
L 233.966154 264.994215 
L 234.700113 264.185097 
L 235.189419 264.209616 
L 235.434072 264.491581 
L 235.678725 264.491581 
L 235.923378 264.675472 
L 236.168031 264.71225 
L 236.412684 264.871622 
L 236.657337 263.510833 
L 236.90199 263.143052 
L 237.146643 263.155311 
L 237.391296 262.848827 
L 237.880602 263.682464 
L 238.125255 263.204348 
L 238.369908 262.995939 
L 238.614561 263.621167 
L 238.859214 263.486314 
L 239.103867 263.964429 
L 239.34852 263.682464 
L 239.593173 264.405766 
L 239.837826 264.454803 
L 240.571785 263.388239 
L 241.061091 263.596648 
L 241.305744 264.270913 
L 241.550397 264.52836 
L 241.79505 264.33221 
L 242.284356 265.619443 
L 242.529009 265.631702 
L 242.773662 265.276181 
L 243.018315 265.251662 
L 243.996927 266.489857 
L 244.24158 266.073039 
L 244.486233 265.913667 
L 244.730886 265.901408 
L 244.975539 266.073039 
L 245.220192 265.533627 
L 245.464845 265.68074 
L 245.709498 266.134336 
L 245.954151 266.024002 
L 246.198804 266.489857 
L 246.443457 266.195633 
L 246.932763 266.612451 
L 247.422069 265.803333 
L 247.666722 265.742036 
L 247.911375 265.827852 
L 248.156029 265.411034 
L 248.400682 265.312959 
L 248.645335 265.055512 
L 248.889988 265.214884 
L 249.134641 262.113265 
L 249.379294 261.132516 
L 249.623947 261.279629 
L 249.8686 261.206072 
L 250.113253 261.45126 
L 250.357906 261.426741 
L 250.602559 261.610631 
L 250.847212 261.990672 
L 251.091865 262.101006 
L 251.825824 264.89614 
L 252.070477 265.423293 
L 252.31513 263.547611 
L 252.559783 262.542343 
L 252.804436 262.419749 
L 253.049089 262.726233 
L 253.293742 263.854095 
L 253.538395 263.057236 
L 253.783048 262.98368 
L 254.027701 263.621167 
L 254.272354 262.481046 
L 254.517007 263.032717 
L 254.76166 262.60364 
L 255.250966 262.468787 
L 255.984925 261.708706 
L 256.229578 261.733225 
L 256.474231 261.439 
L 256.718884 262.2236 
L 256.963537 262.088747 
L 257.20819 261.549335 
L 257.452843 261.340925 
L 257.697496 261.720966 
L 257.942149 261.218332 
L 258.186802 260.065952 
L 258.431455 260.654401 
L 258.920761 259.121981 
L 259.410067 258.386419 
L 259.65472 258.202529 
L 259.899373 258.325122 
L 260.144026 257.98186 
L 260.388679 257.920564 
L 260.633332 256.743665 
L 260.877985 256.657849 
L 261.122638 256.130697 
L 261.611944 256.241031 
L 261.856597 256.682368 
L 262.10125 255.468691 
L 262.345903 255.235763 
L 262.590556 255.395135 
L 262.835209 255.419654 
L 263.079862 255.137688 
L 263.324515 256.351365 
L 263.569168 255.505469 
L 263.813821 255.10091 
L 264.058474 255.346098 
L 264.54778 256.314587 
L 264.792433 251.606992 
L 265.037086 251.778623 
L 265.281739 252.514185 
L 265.526392 252.881966 
L 265.771045 253.016819 
L 266.015698 253.752381 
L 266.260351 253.016819 
L 266.505004 253.016819 
L 266.749657 252.244479 
L 266.99431 252.134145 
L 267.238963 251.803142 
L 267.483616 252.379332 
L 267.728269 252.072848 
L 267.972922 252.121885 
L 268.462228 251.398583 
L 268.706881 250.135869 
L 268.951534 250.442353 
L 269.196187 250.528168 
L 269.44084 248.909933 
L 269.685493 249.694532 
L 269.930146 249.14286 
L 270.174799 250.184906 
L 270.419452 249.853903 
L 270.664106 250.454612 
L 270.908759 250.356537 
L 271.398065 249.620976 
L 271.887371 250.88369 
L 272.132024 249.951978 
L 272.62133 249.768088 
L 272.865983 249.620976 
L 273.110636 249.657754 
L 273.355289 248.995748 
L 273.844595 249.878422 
L 274.089248 250.601725 
L 274.333901 249.964238 
L 274.823207 253.163931 
L 275.06786 253.96079 
L 275.312513 253.899493 
L 275.557166 253.286525 
L 276.291125 257.050149 
L 277.025084 256.204253 
L 277.269737 255.407394 
L 277.51439 255.444172 
L 277.759043 255.10091 
L 278.248349 255.897769 
L 278.493002 254.377608 
L 278.737655 254.365349 
L 278.982308 255.885509 
L 279.226961 255.713878 
L 279.471614 255.701619 
L 279.96092 259.367168 
L 280.205573 259.036165 
L 280.694879 259.269093 
L 280.939532 258.741941 
L 281.184185 257.197261 
L 281.428838 256.375884 
L 281.673491 253.458156 
L 281.918144 252.967781 
L 282.162797 251.64377 
L 282.40745 251.545695 
L 282.652103 251.275989 
L 282.896756 251.190174 
L 283.141409 251.44762 
L 283.386062 251.472139 
L 283.630715 251.83992 
L 283.875368 250.135869 
L 284.120021 249.902941 
L 284.364674 250.258462 
L 284.609327 250.381056 
L 284.85398 250.638503 
L 285.098633 251.361805 
L 285.587939 251.44762 
L 285.832592 250.785615 
L 286.077245 250.68754 
L 286.321898 250.88369 
L 286.566551 249.706791 
L 286.811204 250.050053 
L 287.055857 248.836376 
L 287.30051 248.713783 
L 287.545163 248.787339 
L 287.789816 248.076296 
L 288.034469 248.014999 
L 288.279122 247.585922 
L 288.768428 246.445801 
L 289.013081 246.605173 
L 289.257734 245.967686 
L 289.502387 246.396763 
L 289.74704 246.45806 
L 289.991693 246.396763 
L 290.236346 246.85036 
L 290.725652 246.298689 
L 290.970305 246.347726 
L 291.214958 245.244383 
L 291.459611 245.12179 
L 291.704264 244.766268 
L 291.948917 244.962418 
L 292.19357 245.771536 
L 292.438223 245.599905 
L 292.682876 245.648942 
L 292.92753 245.820573 
L 293.172183 245.599905 
L 293.416836 245.563127 
L 293.661489 244.5456 
L 294.150795 246.727766 
L 294.395448 246.151576 
L 294.640101 246.678729 
L 294.884754 247.671737 
L 295.129407 247.41429 
L 295.37406 246.972953 
L 295.618713 247.03425 
L 295.863366 246.200614 
L 296.108019 246.07802 
L 296.352672 246.678729 
L 296.597325 240.046414 
L 296.841978 238.563031 
L 297.086631 238.452697 
L 297.331284 237.128686 
L 297.575937 236.895758 
L 297.82059 235.939528 
L 298.065243 235.853712 
L 298.309896 234.676813 
L 298.554549 234.909741 
L 299.288508 233.00954 
L 299.533161 232.899206 
L 299.777814 232.494647 
L 300.022467 233.303765 
L 300.26712 233.59799 
L 300.511773 233.487655 
L 300.756426 233.671546 
L 301.001079 232.200422 
L 301.245732 233.647027 
L 301.490385 232.923725 
L 301.735038 232.81339 
L 301.979691 232.224941 
L 302.224344 231.992013 
L 302.468997 233.00954 
L 302.71365 231.979754 
L 302.958303 232.335275 
L 303.202956 232.384313 
L 303.447609 230.839633 
L 303.692262 234.223217 
L 303.936915 234.823926 
L 304.670874 232.654019 
L 304.915527 233.083096 
L 305.16018 232.2372 
L 305.404833 231.86942 
L 305.649486 230.349259 
L 306.138792 226.512079 
L 306.383445 225.555848 
L 306.628098 225.580367 
L 306.872751 224.918361 
L 307.117404 225.678442 
L 307.362057 225.347439 
L 307.851363 223.815019 
L 308.096016 225.040955 
L 308.585322 222.025152 
L 308.829975 220.860513 
L 309.074628 221.559296 
L 309.319281 221.412184 
L 309.563934 220.284323 
L 309.808587 220.737919 
L 310.05324 221.583815 
L 310.297893 221.399925 
L 310.787199 218.935793 
L 311.031852 218.273787 
L 311.276505 218.089897 
L 311.521158 218.555753 
L 311.765811 217.096889 
L 312.010464 213.002262 
L 312.255117 213.075818 
L 312.49977 213.541674 
L 312.744423 215.319281 
L 312.989076 214.154642 
L 313.478382 213.639749 
L 313.723035 213.161633 
L 313.967688 214.350792 
L 314.212341 214.853425 
L 314.456994 214.240457 
L 314.701647 214.289495 
L 315.190953 215.086353 
L 315.435607 212.867409 
L 315.68026 213.627489 
L 315.924913 212.904187 
L 316.169566 214.044308 
L 316.414219 213.492636 
L 316.658872 217.317557 
L 316.903525 215.809656 
L 317.148178 216.888479 
L 317.392831 216.238733 
L 317.637484 213.431339 
L 317.882137 213.247449 
L 318.12679 212.229922 
L 318.371443 212.940965 
L 318.616096 210.771058 
L 318.860749 210.574908 
L 319.105402 210.660724 
L 319.350055 211.408545 
L 319.594708 208.711485 
L 319.839361 208.41726 
L 320.084014 207.65718 
L 320.328667 206.284131 
L 321.062626 206.639653 
L 321.551932 208.331445 
L 321.796585 208.024961 
L 322.041238 209.214119 
L 322.285891 208.846338 
L 322.530544 210.170349 
L 322.775197 209.38575 
L 323.01985 209.851606 
L 323.264503 208.62567 
L 323.509156 208.797301 
L 323.753809 207.252621 
L 323.998462 207.485549 
L 324.243115 203.599331 
L 324.487768 202.177245 
L 324.732421 201.821724 
L 324.977074 203.636109 
L 325.221727 203.783222 
L 325.46638 203.04766 
L 325.711033 205.634385 
L 325.955686 205.989907 
L 326.200339 206.970656 
L 326.444992 207.448771 
L 326.689645 202.912807 
L 326.934298 203.04766 
L 327.178951 204.518783 
L 327.423604 207.203584 
L 327.668257 182.439673 
L 327.91291 187.747976 
L 328.157563 184.621839 
L 328.402216 177.952746 
L 328.891522 175.831877 
L 329.136175 176.297732 
L 329.380828 175.476355 
L 329.870134 174.851128 
L 330.114787 174.912425 
L 330.604093 177.253963 
L 330.848746 182.844232 
L 331.093399 181.851223 
L 331.338052 177.646262 
L 331.827358 173.735526 
L 332.561317 180.453656 
L 332.80597 178.516677 
L 333.050623 172.043734 
L 333.539929 167.189027 
L 333.784582 165.693384 
L 334.029235 161.35357 
L 334.273888 160.544452 
L 334.518541 158.975254 
L 334.763194 155.702005 
L 335.007847 146.458446 
L 335.2525 156.351751 
L 335.497153 153.67921 
L 335.986459 165.227529 
L 336.231112 162.309801 
L 336.475765 165.558531 
L 336.720418 163.891258 
L 336.965071 158.766845 
L 337.209724 159.759853 
L 337.69903 163.47444 
L 337.943684 163.486699 
L 338.188337 166.330871 
L 338.677643 161.36583 
L 338.922296 162.775656 
L 339.166949 161.451645 
L 339.411602 158.705548 
L 339.656255 158.141618 
L 340.145561 153.262392 
L 340.390214 155.40778 
L 340.634867 156.437566 
L 340.87952 150.589851 
L 341.124173 148.824503 
L 341.368826 150.062698 
L 341.858132 144.239501 
L 342.102785 144.876988 
L 342.592091 150.99441 
L 342.836744 157.418315 
L 343.32605 156.658235 
L 343.570703 158.803623 
L 343.815356 158.828142 
L 344.060009 154.120547 
L 344.304662 154.500587 
L 344.549315 167.090952 
L 344.793968 165.901794 
L 345.038621 162.285282 
L 345.283274 165.877275 
L 345.527927 164.271298 
L 345.77258 168.917597 
L 346.261886 170.548092 
L 346.506539 169.23634 
L 346.751192 169.457009 
L 346.995845 169.481527 
L 347.240498 168.770484 
L 347.485151 165.423678 
L 347.729804 165.509494 
L 347.974457 164.565523 
L 348.21911 163.020844 
L 348.463763 160.250228 
L 348.708416 156.106564 
L 348.953069 160.446378 
L 349.197722 157.798355 
L 349.442375 158.999773 
L 349.687028 158.533917 
L 349.931681 157.577687 
L 350.420987 158.693289 
L 350.66564 156.16786 
L 351.154946 157.418315 
L 351.399599 166.73543 
L 351.644252 167.654882 
L 351.888905 166.759949 
L 352.133558 167.287101 
L 352.378211 170.425498 
L 352.622864 169.99642 
L 352.867517 170.989429 
L 353.11217 173.220633 
L 353.356823 168.635631 
L 353.601476 168.562075 
L 353.846129 168.08396 
L 354.090782 166.146981 
L 354.335435 165.632088 
L 354.824741 161.880723 
L 355.069394 162.763397 
L 355.314047 160.77738 
L 355.5587 162.420135 
L 355.803353 159.551444 
L 356.048006 163.425403 
L 356.292659 162.481432 
L 356.537312 162.971806 
L 356.781965 162.959547 
L 357.026618 164.295817 
L 357.271271 164.087408 
L 357.515924 141.591479 
L 357.760577 135.204352 
L 358.00523 133.5003 
L 358.249883 125.62979 
L 358.494536 122.56495 
L 358.739189 133.708709 
L 359.228495 123.557958 
L 359.473148 120.002743 
L 359.717801 122.295244 
L 359.962454 120.407302 
L 360.207107 120.787342 
L 360.696414 112.683904 
L 360.941067 113.321391 
L 361.18572 113.309131 
L 361.430373 114.191805 
L 361.675026 108.834464 
L 361.919679 109.655842 
L 362.164332 107.473675 
L 362.408985 94.209046 
L 362.653638 106.885226 
L 362.898291 106.431629 
L 363.142944 104.678541 
L 363.387597 104.286241 
L 363.63225 103.489383 
L 363.876903 104.408835 
L 364.121556 97.420998 
L 364.366209 97.702964 
L 364.610862 94.785236 
L 364.855515 96.133765 
L 365.100168 101.699516 
L 365.344821 103.759088 
L 365.589474 110.587553 
L 365.834127 104.249463 
L 366.07878 110.464959 
L 366.323433 113.063944 
L 366.568086 119.47559 
L 366.812739 114.915108 
L 367.057392 114.387955 
L 367.302045 110.366885 
L 367.546698 101.858887 
L 367.791351 99.186347 
L 368.036004 91.05839 
L 368.280657 93.36315 
L 368.52531 88.067105 
L 368.769963 88.925261 
L 369.014616 86.82891 
L 369.259269 87.883215 
L 369.503922 84.940968 
L 369.748575 84.205406 
L 369.993228 86.595982 
L 370.237881 87.576731 
L 370.482534 85.235193 
L 370.727187 92.00236 
L 370.97184 88.75363 
L 371.216493 91.05839 
L 371.461146 88.631036 
L 371.705799 88.75363 
L 371.950452 86.191423 
L 372.195105 85.29649 
L 372.439758 78.995178 
L 372.684411 81.508347 
L 372.929064 79.289402 
L 373.41837 99.088272 
L 373.663023 83.837626 
L 374.152329 87.821918 
L 374.396982 92.333363 
L 374.641635 92.296585 
L 374.886288 95.177535 
L 375.375594 87.02506 
L 375.620247 87.772881 
L 375.8649 89.464673 
L 376.109553 88.042587 
L 376.354206 88.373589 
L 376.598859 87.172172 
L 376.843512 82.562652 
L 377.088165 81.312197 
L 377.332818 86.890207 
L 377.577471 87.0128 
L 377.822124 86.068829 
L 378.066777 89.611785 
L 378.31143 83.102064 
L 378.800736 81.422531 
L 379.045389 82.611689 
L 379.534695 60.360948 
L 379.779348 60.606135 
L 380.024001 62.457298 
L 380.268654 68.685054 
L 380.513307 70.842702 
L 380.75796 80.650191 
L 381.002613 79.473293 
L 381.247266 74.851513 
L 381.491919 74.91281 
L 381.736572 71.124667 
L 381.981225 70.842702 
L 382.225878 70.389106 
L 382.470531 68.550201 
L 382.715184 68.672795 
L 382.959838 68.023049 
L 383.449144 58.669156 
L 383.693797 56.205024 
L 383.93845 56.09469 
L 384.427756 47.63573 
L 384.917062 48.064808 
L 385.161715 47.795102 
L 385.406368 48.898444 
L 385.651021 49.241706 
L 385.895674 46.716278 
L 386.140327 52.870478 
L 386.38498 50.381827 
L 386.629633 42.817801 
L 386.874286 40.390447 
L 387.118939 36.749417 
L 387.363592 36.271302 
L 387.608245 37.815981 
L 387.852898 34.444657 
L 387.852898 34.444657 
" style="fill:none;stroke:#ff7f0e;stroke-linecap:square;stroke-width:1.5;"/>
   </g>
   <g id="patch_3">
    <path d="M 46.965625 288.430125 
L 46.965625 22.318125 
" style="fill:none;stroke:#000000;stroke-linecap:square;stroke-linejoin:miter;stroke-width:0.8;"/>
   </g>
   <g id="patch_4">
    <path d="M 404.085625 288.430125 
L 404.085625 22.318125 
" style="fill:none;stroke:#000000;stroke-linecap:square;stroke-linejoin:miter;stroke-width:0.8;"/>
   </g>
   <g id="patch_5">
    <path d="M 46.965625 288.430125 
L 404.085625 288.430125 
" style="fill:none;stroke:#000000;stroke-linecap:square;stroke-linejoin:miter;stroke-width:0.8;"/>
   </g>
   <g id="patch_6">
    <path d="M 46.965625 22.318125 
L 404.085625 22.318125 
" style="fill:none;stroke:#000000;stroke-linecap:square;stroke-linejoin:miter;stroke-width:0.8;"/>
   </g>
   <g id="text_18">
    <!-- Training: NVDA -->
    <defs>
     <path d="M -0.296875 72.90625 
L 61.375 72.90625 
L 61.375 64.59375 
L 35.5 64.59375 
L 35.5 0 
L 25.59375 0 
L 25.59375 64.59375 
L -0.296875 64.59375 
z
" id="DejaVuSans-84"/>
     <path d="M 54.890625 33.015625 
L 54.890625 0 
L 45.90625 0 
L 45.90625 32.71875 
Q 45.90625 40.484375 42.875 44.328125 
Q 39.84375 48.1875 33.796875 48.1875 
Q 26.515625 48.1875 22.3125 43.546875 
Q 18.109375 38.921875 18.109375 30.90625 
L 18.109375 0 
L 9.078125 0 
L 9.078125 54.6875 
L 18.109375 54.6875 
L 18.109375 46.1875 
Q 21.34375 51.125 25.703125 53.5625 
Q 30.078125 56 35.796875 56 
Q 45.21875 56 50.046875 50.171875 
Q 54.890625 44.34375 54.890625 33.015625 
z
" id="DejaVuSans-110"/>
     <path d="M 45.40625 27.984375 
Q 45.40625 37.75 41.375 43.109375 
Q 37.359375 48.484375 30.078125 48.484375 
Q 22.859375 48.484375 18.828125 43.109375 
Q 14.796875 37.75 14.796875 27.984375 
Q 14.796875 18.265625 18.828125 12.890625 
Q 22.859375 7.515625 30.078125 7.515625 
Q 37.359375 7.515625 41.375 12.890625 
Q 45.40625 18.265625 45.40625 27.984375 
z
M 54.390625 6.78125 
Q 54.390625 -7.171875 48.1875 -13.984375 
Q 42 -20.796875 29.203125 -20.796875 
Q 24.46875 -20.796875 20.265625 -20.09375 
Q 16.0625 -19.390625 12.109375 -17.921875 
L 12.109375 -9.1875 
Q 16.0625 -11.328125 19.921875 -12.34375 
Q 23.78125 -13.375 27.78125 -13.375 
Q 36.625 -13.375 41.015625 -8.765625 
Q 45.40625 -4.15625 45.40625 5.171875 
L 45.40625 9.625 
Q 42.625 4.78125 38.28125 2.390625 
Q 33.9375 0 27.875 0 
Q 17.828125 0 11.671875 7.65625 
Q 5.515625 15.328125 5.515625 27.984375 
Q 5.515625 40.671875 11.671875 48.328125 
Q 17.828125 56 27.875 56 
Q 33.9375 56 38.28125 53.609375 
Q 42.625 51.21875 45.40625 46.390625 
L 45.40625 54.6875 
L 54.390625 54.6875 
z
" id="DejaVuSans-103"/>
     <path d="M 11.71875 12.40625 
L 22.015625 12.40625 
L 22.015625 0 
L 11.71875 0 
z
M 11.71875 51.703125 
L 22.015625 51.703125 
L 22.015625 39.3125 
L 11.71875 39.3125 
z
" id="DejaVuSans-58"/>
     <path d="M 9.8125 72.90625 
L 23.09375 72.90625 
L 55.421875 11.921875 
L 55.421875 72.90625 
L 64.984375 72.90625 
L 64.984375 0 
L 51.703125 0 
L 19.390625 60.984375 
L 19.390625 0 
L 9.8125 0 
z
" id="DejaVuSans-78"/>
     <path d="M 28.609375 0 
L 0.78125 72.90625 
L 11.078125 72.90625 
L 34.1875 11.53125 
L 57.328125 72.90625 
L 67.578125 72.90625 
L 39.796875 0 
z
" id="DejaVuSans-86"/>
     <path d="M 34.1875 63.1875 
L 20.796875 26.90625 
L 47.609375 26.90625 
z
M 28.609375 72.90625 
L 39.796875 72.90625 
L 67.578125 0 
L 57.328125 0 
L 50.6875 18.703125 
L 17.828125 18.703125 
L 11.1875 0 
L 0.78125 0 
z
" id="DejaVuSans-65"/>
    </defs>
    <g transform="translate(180.714063 16.318125)scale(0.12 -0.12)">
     <use xlink:href="#DejaVuSans-84"/>
     <use x="46.333984" xlink:href="#DejaVuSans-114"/>
     <use x="87.447266" xlink:href="#DejaVuSans-97"/>
     <use x="148.726562" xlink:href="#DejaVuSans-105"/>
     <use x="176.509766" xlink:href="#DejaVuSans-110"/>
     <use x="239.888672" xlink:href="#DejaVuSans-105"/>
     <use x="267.671875" xlink:href="#DejaVuSans-110"/>
     <use x="331.050781" xlink:href="#DejaVuSans-103"/>
     <use x="394.527344" xlink:href="#DejaVuSans-58"/>
     <use x="428.21875" xlink:href="#DejaVuSans-32"/>
     <use x="460.005859" xlink:href="#DejaVuSans-78"/>
     <use x="534.810547" xlink:href="#DejaVuSans-86"/>
     <use x="603.21875" xlink:href="#DejaVuSans-68"/>
     <use x="678.470703" xlink:href="#DejaVuSans-65"/>
    </g>
   </g>
   <g id="legend_1">
    <g id="patch_7">
     <path d="M 53.965625 59.674375 
L 137.69375 59.674375 
Q 139.69375 59.674375 139.69375 57.674375 
L 139.69375 29.318125 
Q 139.69375 27.318125 137.69375 27.318125 
L 53.965625 27.318125 
Q 51.965625 27.318125 51.965625 29.318125 
L 51.965625 57.674375 
Q 51.965625 59.674375 53.965625 59.674375 
z
" style="fill:#ffffff;opacity:0.8;stroke:#cccccc;stroke-linejoin:miter;"/>
    </g>
    <g id="line2d_33">
     <path d="M 55.965625 35.416562 
L 75.965625 35.416562 
" style="fill:none;stroke:#1f77b4;stroke-linecap:square;stroke-width:1.5;"/>
    </g>
    <g id="line2d_34"/>
    <g id="text_19">
     <!-- Predicted -->
     <defs>
      <path d="M 45.40625 46.390625 
L 45.40625 75.984375 
L 54.390625 75.984375 
L 54.390625 0 
L 45.40625 0 
L 45.40625 8.203125 
Q 42.578125 3.328125 38.25 0.953125 
Q 33.9375 -1.421875 27.875 -1.421875 
Q 17.96875 -1.421875 11.734375 6.484375 
Q 5.515625 14.40625 5.515625 27.296875 
Q 5.515625 40.1875 11.734375 48.09375 
Q 17.96875 56 27.875 56 
Q 33.9375 56 38.25 53.625 
Q 42.578125 51.265625 45.40625 46.390625 
z
M 14.796875 27.296875 
Q 14.796875 17.390625 18.875 11.75 
Q 22.953125 6.109375 30.078125 6.109375 
Q 37.203125 6.109375 41.296875 11.75 
Q 45.40625 17.390625 45.40625 27.296875 
Q 45.40625 37.203125 41.296875 42.84375 
Q 37.203125 48.484375 30.078125 48.484375 
Q 22.953125 48.484375 18.875 42.84375 
Q 14.796875 37.203125 14.796875 27.296875 
z
" id="DejaVuSans-100"/>
      <path d="M 18.3125 70.21875 
L 18.3125 54.6875 
L 36.8125 54.6875 
L 36.8125 47.703125 
L 18.3125 47.703125 
L 18.3125 18.015625 
Q 18.3125 11.328125 20.140625 9.421875 
Q 21.96875 7.515625 27.59375 7.515625 
L 36.8125 7.515625 
L 36.8125 0 
L 27.59375 0 
Q 17.1875 0 13.234375 3.875 
Q 9.28125 7.765625 9.28125 18.015625 
L 9.28125 47.703125 
L 2.6875 47.703125 
L 2.6875 54.6875 
L 9.28125 54.6875 
L 9.28125 70.21875 
z
" id="DejaVuSans-116"/>
     </defs>
     <g transform="translate(83.965625 38.916562)scale(0.1 -0.1)">
      <use xlink:href="#DejaVuSans-80"/>
      <use x="58.552734" xlink:href="#DejaVuSans-114"/>
      <use x="97.416016" xlink:href="#DejaVuSans-101"/>
      <use x="158.939453" xlink:href="#DejaVuSans-100"/>
      <use x="222.416016" xlink:href="#DejaVuSans-105"/>
      <use x="250.199219" xlink:href="#DejaVuSans-99"/>
      <use x="305.179688" xlink:href="#DejaVuSans-116"/>
      <use x="344.388672" xlink:href="#DejaVuSans-101"/>
      <use x="405.912109" xlink:href="#DejaVuSans-100"/>
     </g>
    </g>
    <g id="line2d_35">
     <path d="M 55.965625 50.094687 
L 75.965625 50.094687 
" style="fill:none;stroke:#ff7f0e;stroke-linecap:square;stroke-width:1.5;"/>
    </g>
    <g id="line2d_36"/>
    <g id="text_20">
     <!-- True value -->
     <defs>
      <path d="M 8.5 21.578125 
L 8.5 54.6875 
L 17.484375 54.6875 
L 17.484375 21.921875 
Q 17.484375 14.15625 20.5 10.265625 
Q 23.53125 6.390625 29.59375 6.390625 
Q 36.859375 6.390625 41.078125 11.03125 
Q 45.3125 15.671875 45.3125 23.6875 
L 45.3125 54.6875 
L 54.296875 54.6875 
L 54.296875 0 
L 45.3125 0 
L 45.3125 8.40625 
Q 42.046875 3.421875 37.71875 1 
Q 33.40625 -1.421875 27.6875 -1.421875 
Q 18.265625 -1.421875 13.375 4.4375 
Q 8.5 10.296875 8.5 21.578125 
z
M 31.109375 56 
z
" id="DejaVuSans-117"/>
      <path d="M 2.984375 54.6875 
L 12.5 54.6875 
L 29.59375 8.796875 
L 46.6875 54.6875 
L 56.203125 54.6875 
L 35.6875 0 
L 23.484375 0 
z
" id="DejaVuSans-118"/>
      <path d="M 9.421875 75.984375 
L 18.40625 75.984375 
L 18.40625 0 
L 9.421875 0 
z
" id="DejaVuSans-108"/>
     </defs>
     <g transform="translate(83.965625 53.594687)scale(0.1 -0.1)">
      <use xlink:href="#DejaVuSans-84"/>
      <use x="46.333984" xlink:href="#DejaVuSans-114"/>
      <use x="87.447266" xlink:href="#DejaVuSans-117"/>
      <use x="150.826172" xlink:href="#DejaVuSans-101"/>
      <use x="212.349609" xlink:href="#DejaVuSans-32"/>
      <use x="244.136719" xlink:href="#DejaVuSans-118"/>
      <use x="303.316406" xlink:href="#DejaVuSans-97"/>
      <use x="364.595703" xlink:href="#DejaVuSans-108"/>
      <use x="392.378906" xlink:href="#DejaVuSans-117"/>
      <use x="455.757812" xlink:href="#DejaVuSans-101"/>
     </g>
    </g>
   </g>
  </g>
 </g>
 <defs>
  <clipPath id="pbe95e29c46">
   <rect height="266.112" width="357.12" x="46.965625" y="22.318125"/>
  </clipPath>
 </defs>
</svg>
