<?xml version="1.0" encoding="utf-8" standalone="no"?>
<!DOCTYPE svg PUBLIC "-//W3C//DTD SVG 1.1//EN"
  "http://www.w3.org/Graphics/SVG/1.1/DTD/svg11.dtd">
<!-- Created with matplotlib (https://matplotlib.org/) -->
<svg height="325.986375pt" version="1.1" viewBox="0 0 411.285625 325.986375" width="411.285625pt" xmlns="http://www.w3.org/2000/svg" xmlns:xlink="http://www.w3.org/1999/xlink">
 <defs>
  <style type="text/css">
*{stroke-linecap:butt;stroke-linejoin:round;}
  </style>
 </defs>
 <g id="figure_1">
  <g id="patch_1">
   <path d="M 0 325.986375 
L 411.285625 325.986375 
L 411.285625 0 
L 0 0 
z
" style="fill:#ffffff;"/>
  </g>
  <g id="axes_1">
   <g id="patch_2">
    <path d="M 46.965625 288.430125 
L 404.085625 288.430125 
L 404.085625 22.318125 
L 46.965625 22.318125 
z
" style="fill:#ffffff;"/>
   </g>
   <g id="matplotlib.axis_1">
    <g id="xtick_1">
     <g id="line2d_1">
      <path clip-path="url(#pec8b50a61f)" d="M 63.198352 288.430125 
L 63.198352 22.318125 
" style="fill:none;stroke:#b0b0b0;stroke-dasharray:2.96,1.28;stroke-dashoffset:0;stroke-width:0.8;"/>
     </g>
     <g id="line2d_2">
      <defs>
       <path d="M 0 0 
L 0 3.5 
" id="mcc97db62e9" style="stroke:#000000;stroke-width:0.8;"/>
      </defs>
      <g>
       <use style="stroke:#000000;stroke-width:0.8;" x="63.198352" xlink:href="#mcc97db62e9" y="288.430125"/>
      </g>
     </g>
     <g id="text_1">
      <!-- 0 -->
      <defs>
       <path d="M 31.78125 66.40625 
Q 24.171875 66.40625 20.328125 58.90625 
Q 16.5 51.421875 16.5 36.375 
Q 16.5 21.390625 20.328125 13.890625 
Q 24.171875 6.390625 31.78125 6.390625 
Q 39.453125 6.390625 43.28125 13.890625 
Q 47.125 21.390625 47.125 36.375 
Q 47.125 51.421875 43.28125 58.90625 
Q 39.453125 66.40625 31.78125 66.40625 
z
M 31.78125 74.21875 
Q 44.046875 74.21875 50.515625 64.515625 
Q 56.984375 54.828125 56.984375 36.375 
Q 56.984375 17.96875 50.515625 8.265625 
Q 44.046875 -1.421875 31.78125 -1.421875 
Q 19.53125 -1.421875 13.0625 8.265625 
Q 6.59375 17.96875 6.59375 36.375 
Q 6.59375 54.828125 13.0625 64.515625 
Q 19.53125 74.21875 31.78125 74.21875 
z
" id="DejaVuSans-48"/>
      </defs>
      <g transform="translate(60.017102 303.028562)scale(0.1 -0.1)">
       <use xlink:href="#DejaVuSans-48"/>
      </g>
     </g>
    </g>
    <g id="xtick_2">
     <g id="line2d_3">
      <path clip-path="url(#pec8b50a61f)" d="M 112.128954 288.430125 
L 112.128954 22.318125 
" style="fill:none;stroke:#b0b0b0;stroke-dasharray:2.96,1.28;stroke-dashoffset:0;stroke-width:0.8;"/>
     </g>
     <g id="line2d_4">
      <g>
       <use style="stroke:#000000;stroke-width:0.8;" x="112.128954" xlink:href="#mcc97db62e9" y="288.430125"/>
      </g>
     </g>
     <g id="text_2">
      <!-- 200 -->
      <defs>
       <path d="M 19.1875 8.296875 
L 53.609375 8.296875 
L 53.609375 0 
L 7.328125 0 
L 7.328125 8.296875 
Q 12.9375 14.109375 22.625 23.890625 
Q 32.328125 33.6875 34.8125 36.53125 
Q 39.546875 41.84375 41.421875 45.53125 
Q 43.3125 49.21875 43.3125 52.78125 
Q 43.3125 58.59375 39.234375 62.25 
Q 35.15625 65.921875 28.609375 65.921875 
Q 23.96875 65.921875 18.8125 64.3125 
Q 13.671875 62.703125 7.8125 59.421875 
L 7.8125 69.390625 
Q 13.765625 71.78125 18.9375 73 
Q 24.125 74.21875 28.421875 74.21875 
Q 39.75 74.21875 46.484375 68.546875 
Q 53.21875 62.890625 53.21875 53.421875 
Q 53.21875 48.921875 51.53125 44.890625 
Q 49.859375 40.875 45.40625 35.40625 
Q 44.1875 33.984375 37.640625 27.21875 
Q 31.109375 20.453125 19.1875 8.296875 
z
" id="DejaVuSans-50"/>
      </defs>
      <g transform="translate(102.585204 303.028562)scale(0.1 -0.1)">
       <use xlink:href="#DejaVuSans-50"/>
       <use x="63.623047" xlink:href="#DejaVuSans-48"/>
       <use x="127.246094" xlink:href="#DejaVuSans-48"/>
      </g>
     </g>
    </g>
    <g id="xtick_3">
     <g id="line2d_5">
      <path clip-path="url(#pec8b50a61f)" d="M 161.059557 288.430125 
L 161.059557 22.318125 
" style="fill:none;stroke:#b0b0b0;stroke-dasharray:2.96,1.28;stroke-dashoffset:0;stroke-width:0.8;"/>
     </g>
     <g id="line2d_6">
      <g>
       <use style="stroke:#000000;stroke-width:0.8;" x="161.059557" xlink:href="#mcc97db62e9" y="288.430125"/>
      </g>
     </g>
     <g id="text_3">
      <!-- 400 -->
      <defs>
       <path d="M 37.796875 64.3125 
L 12.890625 25.390625 
L 37.796875 25.390625 
z
M 35.203125 72.90625 
L 47.609375 72.90625 
L 47.609375 25.390625 
L 58.015625 25.390625 
L 58.015625 17.1875 
L 47.609375 17.1875 
L 47.609375 0 
L 37.796875 0 
L 37.796875 17.1875 
L 4.890625 17.1875 
L 4.890625 26.703125 
z
" id="DejaVuSans-52"/>
      </defs>
      <g transform="translate(151.515807 303.028562)scale(0.1 -0.1)">
       <use xlink:href="#DejaVuSans-52"/>
       <use x="63.623047" xlink:href="#DejaVuSans-48"/>
       <use x="127.246094" xlink:href="#DejaVuSans-48"/>
      </g>
     </g>
    </g>
    <g id="xtick_4">
     <g id="line2d_7">
      <path clip-path="url(#pec8b50a61f)" d="M 209.990159 288.430125 
L 209.990159 22.318125 
" style="fill:none;stroke:#b0b0b0;stroke-dasharray:2.96,1.28;stroke-dashoffset:0;stroke-width:0.8;"/>
     </g>
     <g id="line2d_8">
      <g>
       <use style="stroke:#000000;stroke-width:0.8;" x="209.990159" xlink:href="#mcc97db62e9" y="288.430125"/>
      </g>
     </g>
     <g id="text_4">
      <!-- 600 -->
      <defs>
       <path d="M 33.015625 40.375 
Q 26.375 40.375 22.484375 35.828125 
Q 18.609375 31.296875 18.609375 23.390625 
Q 18.609375 15.53125 22.484375 10.953125 
Q 26.375 6.390625 33.015625 6.390625 
Q 39.65625 6.390625 43.53125 10.953125 
Q 47.40625 15.53125 47.40625 23.390625 
Q 47.40625 31.296875 43.53125 35.828125 
Q 39.65625 40.375 33.015625 40.375 
z
M 52.59375 71.296875 
L 52.59375 62.3125 
Q 48.875 64.0625 45.09375 64.984375 
Q 41.3125 65.921875 37.59375 65.921875 
Q 27.828125 65.921875 22.671875 59.328125 
Q 17.53125 52.734375 16.796875 39.40625 
Q 19.671875 43.65625 24.015625 45.921875 
Q 28.375 48.1875 33.59375 48.1875 
Q 44.578125 48.1875 50.953125 41.515625 
Q 57.328125 34.859375 57.328125 23.390625 
Q 57.328125 12.15625 50.6875 5.359375 
Q 44.046875 -1.421875 33.015625 -1.421875 
Q 20.359375 -1.421875 13.671875 8.265625 
Q 6.984375 17.96875 6.984375 36.375 
Q 6.984375 53.65625 15.1875 63.9375 
Q 23.390625 74.21875 37.203125 74.21875 
Q 40.921875 74.21875 44.703125 73.484375 
Q 48.484375 72.75 52.59375 71.296875 
z
" id="DejaVuSans-54"/>
      </defs>
      <g transform="translate(200.446409 303.028562)scale(0.1 -0.1)">
       <use xlink:href="#DejaVuSans-54"/>
       <use x="63.623047" xlink:href="#DejaVuSans-48"/>
       <use x="127.246094" xlink:href="#DejaVuSans-48"/>
      </g>
     </g>
    </g>
    <g id="xtick_5">
     <g id="line2d_9">
      <path clip-path="url(#pec8b50a61f)" d="M 258.920761 288.430125 
L 258.920761 22.318125 
" style="fill:none;stroke:#b0b0b0;stroke-dasharray:2.96,1.28;stroke-dashoffset:0;stroke-width:0.8;"/>
     </g>
     <g id="line2d_10">
      <g>
       <use style="stroke:#000000;stroke-width:0.8;" x="258.920761" xlink:href="#mcc97db62e9" y="288.430125"/>
      </g>
     </g>
     <g id="text_5">
      <!-- 800 -->
      <defs>
       <path d="M 31.78125 34.625 
Q 24.75 34.625 20.71875 30.859375 
Q 16.703125 27.09375 16.703125 20.515625 
Q 16.703125 13.921875 20.71875 10.15625 
Q 24.75 6.390625 31.78125 6.390625 
Q 38.8125 6.390625 42.859375 10.171875 
Q 46.921875 13.96875 46.921875 20.515625 
Q 46.921875 27.09375 42.890625 30.859375 
Q 38.875 34.625 31.78125 34.625 
z
M 21.921875 38.8125 
Q 15.578125 40.375 12.03125 44.71875 
Q 8.5 49.078125 8.5 55.328125 
Q 8.5 64.0625 14.71875 69.140625 
Q 20.953125 74.21875 31.78125 74.21875 
Q 42.671875 74.21875 48.875 69.140625 
Q 55.078125 64.0625 55.078125 55.328125 
Q 55.078125 49.078125 51.53125 44.71875 
Q 48 40.375 41.703125 38.8125 
Q 48.828125 37.15625 52.796875 32.3125 
Q 56.78125 27.484375 56.78125 20.515625 
Q 56.78125 9.90625 50.3125 4.234375 
Q 43.84375 -1.421875 31.78125 -1.421875 
Q 19.734375 -1.421875 13.25 4.234375 
Q 6.78125 9.90625 6.78125 20.515625 
Q 6.78125 27.484375 10.78125 32.3125 
Q 14.796875 37.15625 21.921875 38.8125 
z
M 18.3125 54.390625 
Q 18.3125 48.734375 21.84375 45.5625 
Q 25.390625 42.390625 31.78125 42.390625 
Q 38.140625 42.390625 41.71875 45.5625 
Q 45.3125 48.734375 45.3125 54.390625 
Q 45.3125 60.0625 41.71875 63.234375 
Q 38.140625 66.40625 31.78125 66.40625 
Q 25.390625 66.40625 21.84375 63.234375 
Q 18.3125 60.0625 18.3125 54.390625 
z
" id="DejaVuSans-56"/>
      </defs>
      <g transform="translate(249.377011 303.028562)scale(0.1 -0.1)">
       <use xlink:href="#DejaVuSans-56"/>
       <use x="63.623047" xlink:href="#DejaVuSans-48"/>
       <use x="127.246094" xlink:href="#DejaVuSans-48"/>
      </g>
     </g>
    </g>
    <g id="xtick_6">
     <g id="line2d_11">
      <path clip-path="url(#pec8b50a61f)" d="M 307.851363 288.430125 
L 307.851363 22.318125 
" style="fill:none;stroke:#b0b0b0;stroke-dasharray:2.96,1.28;stroke-dashoffset:0;stroke-width:0.8;"/>
     </g>
     <g id="line2d_12">
      <g>
       <use style="stroke:#000000;stroke-width:0.8;" x="307.851363" xlink:href="#mcc97db62e9" y="288.430125"/>
      </g>
     </g>
     <g id="text_6">
      <!-- 1000 -->
      <defs>
       <path d="M 12.40625 8.296875 
L 28.515625 8.296875 
L 28.515625 63.921875 
L 10.984375 60.40625 
L 10.984375 69.390625 
L 28.421875 72.90625 
L 38.28125 72.90625 
L 38.28125 8.296875 
L 54.390625 8.296875 
L 54.390625 0 
L 12.40625 0 
z
" id="DejaVuSans-49"/>
      </defs>
      <g transform="translate(295.126363 303.028562)scale(0.1 -0.1)">
       <use xlink:href="#DejaVuSans-49"/>
       <use x="63.623047" xlink:href="#DejaVuSans-48"/>
       <use x="127.246094" xlink:href="#DejaVuSans-48"/>
       <use x="190.869141" xlink:href="#DejaVuSans-48"/>
      </g>
     </g>
    </g>
    <g id="xtick_7">
     <g id="line2d_13">
      <path clip-path="url(#pec8b50a61f)" d="M 356.781965 288.430125 
L 356.781965 22.318125 
" style="fill:none;stroke:#b0b0b0;stroke-dasharray:2.96,1.28;stroke-dashoffset:0;stroke-width:0.8;"/>
     </g>
     <g id="line2d_14">
      <g>
       <use style="stroke:#000000;stroke-width:0.8;" x="356.781965" xlink:href="#mcc97db62e9" y="288.430125"/>
      </g>
     </g>
     <g id="text_7">
      <!-- 1200 -->
      <g transform="translate(344.056965 303.028562)scale(0.1 -0.1)">
       <use xlink:href="#DejaVuSans-49"/>
       <use x="63.623047" xlink:href="#DejaVuSans-50"/>
       <use x="127.246094" xlink:href="#DejaVuSans-48"/>
       <use x="190.869141" xlink:href="#DejaVuSans-48"/>
      </g>
     </g>
    </g>
    <g id="text_8">
     <!-- Day -->
     <defs>
      <path d="M 19.671875 64.796875 
L 19.671875 8.109375 
L 31.59375 8.109375 
Q 46.6875 8.109375 53.6875 14.9375 
Q 60.6875 21.78125 60.6875 36.53125 
Q 60.6875 51.171875 53.6875 57.984375 
Q 46.6875 64.796875 31.59375 64.796875 
z
M 9.8125 72.90625 
L 30.078125 72.90625 
Q 51.265625 72.90625 61.171875 64.09375 
Q 71.09375 55.28125 71.09375 36.53125 
Q 71.09375 17.671875 61.125 8.828125 
Q 51.171875 0 30.078125 0 
L 9.8125 0 
z
" id="DejaVuSans-68"/>
      <path d="M 34.28125 27.484375 
Q 23.390625 27.484375 19.1875 25 
Q 14.984375 22.515625 14.984375 16.5 
Q 14.984375 11.71875 18.140625 8.90625 
Q 21.296875 6.109375 26.703125 6.109375 
Q 34.1875 6.109375 38.703125 11.40625 
Q 43.21875 16.703125 43.21875 25.484375 
L 43.21875 27.484375 
z
M 52.203125 31.203125 
L 52.203125 0 
L 43.21875 0 
L 43.21875 8.296875 
Q 40.140625 3.328125 35.546875 0.953125 
Q 30.953125 -1.421875 24.3125 -1.421875 
Q 15.921875 -1.421875 10.953125 3.296875 
Q 6 8.015625 6 15.921875 
Q 6 25.140625 12.171875 29.828125 
Q 18.359375 34.515625 30.609375 34.515625 
L 43.21875 34.515625 
L 43.21875 35.40625 
Q 43.21875 41.609375 39.140625 45 
Q 35.0625 48.390625 27.6875 48.390625 
Q 23 48.390625 18.546875 47.265625 
Q 14.109375 46.140625 10.015625 43.890625 
L 10.015625 52.203125 
Q 14.9375 54.109375 19.578125 55.046875 
Q 24.21875 56 28.609375 56 
Q 40.484375 56 46.34375 49.84375 
Q 52.203125 43.703125 52.203125 31.203125 
z
" id="DejaVuSans-97"/>
      <path d="M 32.171875 -5.078125 
Q 28.375 -14.84375 24.75 -17.8125 
Q 21.140625 -20.796875 15.09375 -20.796875 
L 7.90625 -20.796875 
L 7.90625 -13.28125 
L 13.1875 -13.28125 
Q 16.890625 -13.28125 18.9375 -11.515625 
Q 21 -9.765625 23.484375 -3.21875 
L 25.09375 0.875 
L 2.984375 54.6875 
L 12.5 54.6875 
L 29.59375 11.921875 
L 46.6875 54.6875 
L 56.203125 54.6875 
z
" id="DejaVuSans-121"/>
     </defs>
     <g transform="translate(215.652188 316.706687)scale(0.1 -0.1)">
      <use xlink:href="#DejaVuSans-68"/>
      <use x="77.001953" xlink:href="#DejaVuSans-97"/>
      <use x="138.28125" xlink:href="#DejaVuSans-121"/>
     </g>
    </g>
   </g>
   <g id="matplotlib.axis_2">
    <g id="ytick_1">
     <g id="line2d_15">
      <path clip-path="url(#pec8b50a61f)" d="M 46.965625 258.452341 
L 404.085625 258.452341 
" style="fill:none;stroke:#b0b0b0;stroke-dasharray:2.96,1.28;stroke-dashoffset:0;stroke-width:0.8;"/>
     </g>
     <g id="line2d_16">
      <defs>
       <path d="M 0 0 
L -3.5 0 
" id="mcab6342be4" style="stroke:#000000;stroke-width:0.8;"/>
      </defs>
      <g>
       <use style="stroke:#000000;stroke-width:0.8;" x="46.965625" xlink:href="#mcab6342be4" y="258.452341"/>
      </g>
     </g>
     <g id="text_9">
      <!-- 60 -->
      <g transform="translate(27.240625 262.25156)scale(0.1 -0.1)">
       <use xlink:href="#DejaVuSans-54"/>
       <use x="63.623047" xlink:href="#DejaVuSans-48"/>
      </g>
     </g>
    </g>
    <g id="ytick_2">
     <g id="line2d_17">
      <path clip-path="url(#pec8b50a61f)" d="M 46.965625 216.915097 
L 404.085625 216.915097 
" style="fill:none;stroke:#b0b0b0;stroke-dasharray:2.96,1.28;stroke-dashoffset:0;stroke-width:0.8;"/>
     </g>
     <g id="line2d_18">
      <g>
       <use style="stroke:#000000;stroke-width:0.8;" x="46.965625" xlink:href="#mcab6342be4" y="216.915097"/>
      </g>
     </g>
     <g id="text_10">
      <!-- 80 -->
      <g transform="translate(27.240625 220.714316)scale(0.1 -0.1)">
       <use xlink:href="#DejaVuSans-56"/>
       <use x="63.623047" xlink:href="#DejaVuSans-48"/>
      </g>
     </g>
    </g>
    <g id="ytick_3">
     <g id="line2d_19">
      <path clip-path="url(#pec8b50a61f)" d="M 46.965625 175.377852 
L 404.085625 175.377852 
" style="fill:none;stroke:#b0b0b0;stroke-dasharray:2.96,1.28;stroke-dashoffset:0;stroke-width:0.8;"/>
     </g>
     <g id="line2d_20">
      <g>
       <use style="stroke:#000000;stroke-width:0.8;" x="46.965625" xlink:href="#mcab6342be4" y="175.377852"/>
      </g>
     </g>
     <g id="text_11">
      <!-- 100 -->
      <g transform="translate(20.878125 179.177071)scale(0.1 -0.1)">
       <use xlink:href="#DejaVuSans-49"/>
       <use x="63.623047" xlink:href="#DejaVuSans-48"/>
       <use x="127.246094" xlink:href="#DejaVuSans-48"/>
      </g>
     </g>
    </g>
    <g id="ytick_4">
     <g id="line2d_21">
      <path clip-path="url(#pec8b50a61f)" d="M 46.965625 133.840608 
L 404.085625 133.840608 
" style="fill:none;stroke:#b0b0b0;stroke-dasharray:2.96,1.28;stroke-dashoffset:0;stroke-width:0.8;"/>
     </g>
     <g id="line2d_22">
      <g>
       <use style="stroke:#000000;stroke-width:0.8;" x="46.965625" xlink:href="#mcab6342be4" y="133.840608"/>
      </g>
     </g>
     <g id="text_12">
      <!-- 120 -->
      <g transform="translate(20.878125 137.639827)scale(0.1 -0.1)">
       <use xlink:href="#DejaVuSans-49"/>
       <use x="63.623047" xlink:href="#DejaVuSans-50"/>
       <use x="127.246094" xlink:href="#DejaVuSans-48"/>
      </g>
     </g>
    </g>
    <g id="ytick_5">
     <g id="line2d_23">
      <path clip-path="url(#pec8b50a61f)" d="M 46.965625 92.303364 
L 404.085625 92.303364 
" style="fill:none;stroke:#b0b0b0;stroke-dasharray:2.96,1.28;stroke-dashoffset:0;stroke-width:0.8;"/>
     </g>
     <g id="line2d_24">
      <g>
       <use style="stroke:#000000;stroke-width:0.8;" x="46.965625" xlink:href="#mcab6342be4" y="92.303364"/>
      </g>
     </g>
     <g id="text_13">
      <!-- 140 -->
      <g transform="translate(20.878125 96.102582)scale(0.1 -0.1)">
       <use xlink:href="#DejaVuSans-49"/>
       <use x="63.623047" xlink:href="#DejaVuSans-52"/>
       <use x="127.246094" xlink:href="#DejaVuSans-48"/>
      </g>
     </g>
    </g>
    <g id="ytick_6">
     <g id="line2d_25">
      <path clip-path="url(#pec8b50a61f)" d="M 46.965625 50.766119 
L 404.085625 50.766119 
" style="fill:none;stroke:#b0b0b0;stroke-dasharray:2.96,1.28;stroke-dashoffset:0;stroke-width:0.8;"/>
     </g>
     <g id="line2d_26">
      <g>
       <use style="stroke:#000000;stroke-width:0.8;" x="46.965625" xlink:href="#mcab6342be4" y="50.766119"/>
      </g>
     </g>
     <g id="text_14">
      <!-- 160 -->
      <g transform="translate(20.878125 54.565338)scale(0.1 -0.1)">
       <use xlink:href="#DejaVuSans-49"/>
       <use x="63.623047" xlink:href="#DejaVuSans-54"/>
       <use x="127.246094" xlink:href="#DejaVuSans-48"/>
      </g>
     </g>
    </g>
    <g id="text_15">
     <!-- Price $ -->
     <defs>
      <path d="M 19.671875 64.796875 
L 19.671875 37.40625 
L 32.078125 37.40625 
Q 38.96875 37.40625 42.71875 40.96875 
Q 46.484375 44.53125 46.484375 51.125 
Q 46.484375 57.671875 42.71875 61.234375 
Q 38.96875 64.796875 32.078125 64.796875 
z
M 9.8125 72.90625 
L 32.078125 72.90625 
Q 44.34375 72.90625 50.609375 67.359375 
Q 56.890625 61.8125 56.890625 51.125 
Q 56.890625 40.328125 50.609375 34.8125 
Q 44.34375 29.296875 32.078125 29.296875 
L 19.671875 29.296875 
L 19.671875 0 
L 9.8125 0 
z
" id="DejaVuSans-80"/>
      <path d="M 41.109375 46.296875 
Q 39.59375 47.171875 37.8125 47.578125 
Q 36.03125 48 33.890625 48 
Q 26.265625 48 22.1875 43.046875 
Q 18.109375 38.09375 18.109375 28.8125 
L 18.109375 0 
L 9.078125 0 
L 9.078125 54.6875 
L 18.109375 54.6875 
L 18.109375 46.1875 
Q 20.953125 51.171875 25.484375 53.578125 
Q 30.03125 56 36.53125 56 
Q 37.453125 56 38.578125 55.875 
Q 39.703125 55.765625 41.0625 55.515625 
z
" id="DejaVuSans-114"/>
      <path d="M 9.421875 54.6875 
L 18.40625 54.6875 
L 18.40625 0 
L 9.421875 0 
z
M 9.421875 75.984375 
L 18.40625 75.984375 
L 18.40625 64.59375 
L 9.421875 64.59375 
z
" id="DejaVuSans-105"/>
      <path d="M 48.78125 52.59375 
L 48.78125 44.1875 
Q 44.96875 46.296875 41.140625 47.34375 
Q 37.3125 48.390625 33.40625 48.390625 
Q 24.65625 48.390625 19.8125 42.84375 
Q 14.984375 37.3125 14.984375 27.296875 
Q 14.984375 17.28125 19.8125 11.734375 
Q 24.65625 6.203125 33.40625 6.203125 
Q 37.3125 6.203125 41.140625 7.25 
Q 44.96875 8.296875 48.78125 10.40625 
L 48.78125 2.09375 
Q 45.015625 0.34375 40.984375 -0.53125 
Q 36.96875 -1.421875 32.421875 -1.421875 
Q 20.0625 -1.421875 12.78125 6.34375 
Q 5.515625 14.109375 5.515625 27.296875 
Q 5.515625 40.671875 12.859375 48.328125 
Q 20.21875 56 33.015625 56 
Q 37.15625 56 41.109375 55.140625 
Q 45.0625 54.296875 48.78125 52.59375 
z
" id="DejaVuSans-99"/>
      <path d="M 56.203125 29.59375 
L 56.203125 25.203125 
L 14.890625 25.203125 
Q 15.484375 15.921875 20.484375 11.0625 
Q 25.484375 6.203125 34.421875 6.203125 
Q 39.59375 6.203125 44.453125 7.46875 
Q 49.3125 8.734375 54.109375 11.28125 
L 54.109375 2.78125 
Q 49.265625 0.734375 44.1875 -0.34375 
Q 39.109375 -1.421875 33.890625 -1.421875 
Q 20.796875 -1.421875 13.15625 6.1875 
Q 5.515625 13.8125 5.515625 26.8125 
Q 5.515625 40.234375 12.765625 48.109375 
Q 20.015625 56 32.328125 56 
Q 43.359375 56 49.78125 48.890625 
Q 56.203125 41.796875 56.203125 29.59375 
z
M 47.21875 32.234375 
Q 47.125 39.59375 43.09375 43.984375 
Q 39.0625 48.390625 32.421875 48.390625 
Q 24.90625 48.390625 20.390625 44.140625 
Q 15.875 39.890625 15.1875 32.171875 
z
" id="DejaVuSans-101"/>
      <path id="DejaVuSans-32"/>
      <path d="M 33.796875 -14.703125 
L 28.90625 -14.703125 
L 28.859375 0 
Q 23.734375 0.09375 18.609375 1.1875 
Q 13.484375 2.296875 8.296875 4.5 
L 8.296875 13.28125 
Q 13.28125 10.15625 18.375 8.5625 
Q 23.484375 6.984375 28.90625 6.9375 
L 28.90625 29.203125 
Q 18.109375 30.953125 13.203125 35.15625 
Q 8.296875 39.359375 8.296875 46.6875 
Q 8.296875 54.640625 13.625 59.21875 
Q 18.953125 63.8125 28.90625 64.5 
L 28.90625 75.984375 
L 33.796875 75.984375 
L 33.796875 64.65625 
Q 38.328125 64.453125 42.578125 63.6875 
Q 46.828125 62.9375 50.875 61.625 
L 50.875 53.078125 
Q 46.828125 55.125 42.546875 56.25 
Q 38.28125 57.375 33.796875 57.5625 
L 33.796875 36.71875 
Q 44.875 35.015625 50.09375 30.609375 
Q 55.328125 26.21875 55.328125 18.609375 
Q 55.328125 10.359375 49.78125 5.59375 
Q 44.234375 0.828125 33.796875 0.09375 
z
M 28.90625 37.59375 
L 28.90625 57.625 
Q 23.25 56.984375 20.265625 54.390625 
Q 17.28125 51.8125 17.28125 47.515625 
Q 17.28125 43.3125 20.03125 40.96875 
Q 22.796875 38.625 28.90625 37.59375 
z
M 33.796875 28.21875 
L 33.796875 7.078125 
Q 39.984375 7.90625 43.140625 10.59375 
Q 46.296875 13.28125 46.296875 17.671875 
Q 46.296875 21.96875 43.28125 24.5 
Q 40.28125 27.046875 33.796875 28.21875 
z
" id="DejaVuSans-36"/>
     </defs>
     <g transform="translate(14.798438 172.342094)rotate(-90)scale(0.1 -0.1)">
      <use xlink:href="#DejaVuSans-80"/>
      <use x="58.552734" xlink:href="#DejaVuSans-114"/>
      <use x="99.666016" xlink:href="#DejaVuSans-105"/>
      <use x="127.449219" xlink:href="#DejaVuSans-99"/>
      <use x="182.429688" xlink:href="#DejaVuSans-101"/>
      <use x="243.953125" xlink:href="#DejaVuSans-32"/>
      <use x="275.740234" xlink:href="#DejaVuSans-36"/>
     </g>
    </g>
   </g>
   <g id="line2d_27">
    <path clip-path="url(#pec8b50a61f)" d="M 63.198352 271.019796 
L 63.443005 272.356569 
L 63.687658 272.85662 
L 64.176964 275.439673 
L 64.421617 275.782634 
L 64.66627 274.636757 
L 64.910923 274.857567 
L 65.644882 272.883857 
L 65.889535 273.164143 
L 66.134188 273.154335 
L 66.378841 269.760039 
L 66.623494 268.858503 
L 66.868147 266.32884 
L 67.1128 265.045759 
L 67.357453 266.158124 
L 67.602106 266.249915 
L 67.846759 265.636619 
L 68.336066 265.063973 
L 68.580719 265.770606 
L 68.825372 266.02348 
L 69.070025 265.200686 
L 69.314678 265.577516 
L 69.559331 265.507948 
L 69.803984 265.262886 
L 70.048637 265.492824 
L 70.29329 263.360796 
L 70.537943 264.109569 
L 70.782596 264.146758 
L 71.027249 265.2189 
L 71.271902 264.740969 
L 71.761208 259.078377 
L 72.005861 260.916183 
L 72.250514 260.617018 
L 72.495167 259.838622 
L 72.73982 259.56946 
L 73.229126 259.695595 
L 73.473779 259.281267 
L 73.718432 259.770599 
L 73.963085 259.029574 
L 74.207738 257.629405 
L 74.452391 257.22498 
L 74.697044 257.773628 
L 74.941697 254.943477 
L 75.18635 254.63936 
L 75.431003 252.153398 
L 76.164962 259.025621 
L 76.409615 260.418628 
L 77.63288 254.433871 
L 77.877533 254.797622 
L 78.122186 254.466425 
L 78.366839 254.825058 
L 78.611492 255.815834 
L 79.100798 258.307738 
L 79.345451 255.205018 
L 79.590104 253.835208 
L 79.834757 253.984628 
L 80.07941 253.21223 
L 80.324063 253.239183 
L 80.568716 254.337446 
L 80.813369 256.306877 
L 81.058022 256.281002 
L 81.302675 255.808775 
L 81.547328 250.980259 
L 81.791981 255.070944 
L 82.036634 255.376091 
L 82.281287 254.05689 
L 82.52594 250.741654 
L 82.770593 250.334512 
L 83.015246 249.585034 
L 83.259899 247.921621 
L 83.504552 248.602964 
L 83.749205 249.664323 
L 83.993858 248.114599 
L 84.238511 249.307236 
L 84.483164 247.564533 
L 84.727817 247.373709 
L 84.97247 249.44566 
L 85.217123 249.786696 
L 85.706429 249.070001 
L 85.951082 251.731591 
L 86.195735 252.217492 
L 86.440388 252.031961 
L 86.929694 254.067681 
L 87.174347 251.568687 
L 87.419 251.791803 
L 87.663653 254.406586 
L 87.908306 254.611837 
L 88.152959 255.270585 
L 88.397612 254.91204 
L 88.642265 255.980339 
L 88.886918 255.966031 
L 89.131571 256.635673 
L 89.376224 254.414113 
L 89.620877 251.122383 
L 89.86553 250.927915 
L 90.110183 251.681893 
L 90.354836 252.039289 
L 90.599489 251.154921 
L 90.844143 251.441291 
L 91.088796 250.626856 
L 91.333449 250.362463 
L 91.578102 250.965246 
L 91.822755 249.961167 
L 92.067408 250.034705 
L 92.312061 247.356026 
L 92.556714 246.341442 
L 92.801367 246.103431 
L 93.04602 244.773734 
L 93.290673 242.81045 
L 93.535326 241.88547 
L 94.024632 243.224311 
L 94.269285 243.065415 
L 94.513938 243.49032 
L 94.758591 242.899896 
L 95.003244 245.170799 
L 95.247897 245.093823 
L 95.49255 244.198379 
L 95.737203 245.092206 
L 95.981856 243.667834 
L 96.226509 244.9348 
L 96.471162 243.163798 
L 96.715815 242.982006 
L 96.960468 243.127972 
L 97.449774 242.661695 
L 97.694427 244.773654 
L 97.93908 249.079524 
L 98.183733 246.868834 
L 98.428386 250.068344 
L 98.673039 242.572201 
L 98.917692 241.325992 
L 99.162345 240.672409 
L 99.406998 239.494334 
L 99.651651 236.949928 
L 99.896304 236.227799 
L 100.140957 236.259457 
L 100.38561 236.705595 
L 100.630263 233.967813 
L 100.874916 234.466826 
L 101.119569 235.546598 
L 101.364222 235.560018 
L 101.608875 236.750595 
L 101.853528 239.075768 
L 102.098181 238.45397 
L 102.342834 239.581372 
L 102.83214 239.127138 
L 103.076793 237.877157 
L 103.321446 238.139395 
L 103.566099 237.208759 
L 103.810752 237.822206 
L 104.055405 237.775827 
L 104.300058 237.971468 
L 104.544711 235.250688 
L 104.789364 236.365699 
L 105.034017 235.906727 
L 105.27867 237.191694 
L 105.523323 235.026051 
L 105.767976 234.831535 
L 106.012629 233.861175 
L 106.257282 233.56552 
L 106.501935 229.926035 
L 106.746588 233.066126 
L 107.235894 231.618382 
L 107.480547 232.132511 
L 107.7252 229.151633 
L 107.969853 229.309134 
L 108.214506 230.292234 
L 108.459159 230.46398 
L 108.703812 230.245427 
L 108.948465 230.246869 
L 109.193118 229.490879 
L 109.682424 231.523073 
L 110.17173 228.938182 
L 110.416383 226.295614 
L 110.661036 226.722278 
L 111.394995 224.786581 
L 112.128954 220.982053 
L 112.373607 223.325527 
L 112.61826 223.015626 
L 112.862913 223.225607 
L 113.107566 219.116645 
L 113.35222 217.181296 
L 113.596873 218.820641 
L 113.841526 218.666071 
L 114.086179 216.957578 
L 114.330832 217.57413 
L 114.575485 217.737368 
L 114.820138 219.259315 
L 115.064791 218.365361 
L 115.554097 226.490938 
L 116.043403 219.269393 
L 116.288056 221.083415 
L 116.532709 221.490731 
L 116.777362 223.990597 
L 117.266668 223.678288 
L 117.511321 224.473036 
L 117.755974 222.466019 
L 118.000627 224.879133 
L 118.24528 229.074166 
L 118.489933 229.349397 
L 118.734586 229.971717 
L 118.979239 228.73999 
L 119.223892 225.356137 
L 119.468545 224.1426 
L 119.713198 221.884104 
L 119.957851 223.107069 
L 120.69181 220.166152 
L 121.181116 217.122843 
L 121.425769 217.74079 
L 121.670422 216.825762 
L 121.915075 215.394132 
L 122.404381 216.004125 
L 122.649034 215.486557 
L 122.893687 216.411552 
L 123.13834 216.709141 
L 123.382993 216.508255 
L 123.872299 215.886981 
L 124.116952 218.490554 
L 124.361605 219.031604 
L 124.850911 219.37695 
L 125.095564 218.418078 
L 125.340217 219.238495 
L 125.58487 216.293616 
L 125.829523 217.217915 
L 126.074176 216.479972 
L 126.318829 218.814936 
L 126.563482 216.609253 
L 126.808135 218.600836 
L 127.297441 217.768202 
L 127.786747 226.513343 
L 128.0314 226.171705 
L 128.276053 226.542879 
L 128.765359 229.417705 
L 129.010012 229.05344 
L 129.254665 229.31769 
L 129.499318 226.179279 
L 129.743971 228.782519 
L 129.988624 226.9366 
L 130.233277 226.868672 
L 130.722583 229.11728 
L 130.967236 228.616746 
L 131.211889 230.961202 
L 131.456542 231.562369 
L 132.190501 226.696451 
L 132.435154 225.907138 
L 132.679807 226.718713 
L 132.92446 225.742506 
L 133.169113 225.225921 
L 133.658419 219.601619 
L 134.147725 224.947996 
L 134.392378 224.702966 
L 134.637031 225.763358 
L 134.881684 224.645971 
L 135.37099 225.140483 
L 135.615643 224.387266 
L 135.860297 224.254784 
L 136.10495 225.101108 
L 136.349603 225.355851 
L 137.083562 228.709631 
L 137.572868 224.254135 
L 137.817521 224.209483 
L 138.062174 226.611092 
L 138.306827 227.13587 
L 138.55148 225.574515 
L 138.796133 227.580438 
L 139.040786 227.739794 
L 139.530092 226.766027 
L 139.774745 223.3061 
L 140.019398 224.430222 
L 140.264051 224.767313 
L 140.508704 221.857405 
L 140.753357 221.083573 
L 140.99801 221.003222 
L 141.242663 222.817149 
L 141.487316 222.808181 
L 141.976622 223.995683 
L 142.221275 225.440908 
L 142.465928 225.967619 
L 142.710581 226.206089 
L 142.955234 224.581132 
L 143.689193 216.666803 
L 143.933846 217.37624 
L 144.178499 215.745816 
L 144.423152 217.070269 
L 144.667805 216.806668 
L 144.912458 218.324749 
L 145.646417 215.149292 
L 145.89107 215.277273 
L 146.625029 219.858692 
L 146.869682 219.494648 
L 147.114335 217.015967 
L 147.358988 217.438305 
L 147.603641 219.348365 
L 147.848294 218.737358 
L 148.092947 219.576378 
L 148.3376 218.655661 
L 148.582253 218.407255 
L 148.826906 219.349696 
L 149.071559 216.647107 
L 149.316212 216.730928 
L 149.560865 216.558057 
L 149.805518 215.576716 
L 150.050171 215.359177 
L 150.294824 213.518409 
L 150.539477 213.271398 
L 151.028783 211.795401 
L 151.518089 212.696502 
L 151.762742 214.246115 
L 152.252048 212.53355 
L 152.496701 213.402929 
L 152.741354 212.550441 
L 152.986007 214.597673 
L 153.475313 214.259695 
L 153.719966 213.829862 
L 153.964619 214.426671 
L 154.453925 216.016199 
L 154.698578 215.971167 
L 154.943231 218.066061 
L 155.432537 219.461532 
L 155.67719 223.102569 
L 155.921843 222.849046 
L 156.166496 222.977027 
L 156.411149 226.393221 
L 156.655802 226.882394 
L 156.900455 226.366379 
L 157.145108 224.683159 
L 157.389761 223.828881 
L 157.634414 223.881899 
L 157.879067 223.412754 
L 158.368374 221.585438 
L 158.613027 220.875494 
L 158.85768 221.61369 
L 159.102333 223.896128 
L 159.346986 221.760132 
L 159.836292 220.930413 
L 160.080945 214.49151 
L 160.325598 212.951119 
L 160.570251 212.381325 
L 160.814904 212.208232 
L 161.059557 212.216171 
L 161.30421 210.350097 
L 161.548863 210.312924 
L 161.793516 211.406798 
L 162.038169 211.122582 
L 162.282822 211.842525 
L 162.772128 214.952669 
L 163.016781 218.590838 
L 163.75074 216.64126 
L 163.995393 216.86295 
L 164.484699 215.59001 
L 164.729352 217.11481 
L 164.974005 217.532537 
L 165.218658 218.674833 
L 165.463311 219.188962 
L 165.707964 219.107629 
L 166.441923 216.727965 
L 166.931229 219.126263 
L 167.175882 222.367336 
L 167.420535 222.485129 
L 167.665188 221.160232 
L 168.154494 225.353934 
L 168.399147 224.786723 
L 168.6438 224.961591 
L 169.377759 220.726296 
L 169.622412 217.080711 
L 169.867065 219.514217 
L 170.111718 216.854457 
L 170.356371 217.753245 
L 170.601024 216.094347 
L 170.845677 217.326169 
L 171.09033 217.30885 
L 171.334983 217.733565 
L 171.579636 217.634738 
L 171.824289 219.106821 
L 172.068942 221.664807 
L 172.313595 222.407788 
L 172.558248 222.533552 
L 173.047554 220.030533 
L 173.53686 224.094035 
L 173.781513 224.305473 
L 174.026166 221.931244 
L 174.270819 223.688794 
L 174.515472 220.654184 
L 174.760125 220.513257 
L 175.249431 218.258675 
L 175.494084 217.167337 
L 175.738737 217.170807 
L 176.228043 216.043627 
L 176.472696 214.724038 
L 177.206655 215.693654 
L 177.451308 215.200503 
L 177.695961 215.203783 
L 177.940614 214.840675 
L 178.674573 220.278589 
L 178.919226 218.922129 
L 179.408532 214.932086 
L 179.897838 216.113837 
L 180.142491 215.197208 
L 180.387144 215.532017 
L 180.631798 215.384942 
L 180.876451 214.939279 
L 181.121104 214.106329 
L 181.365757 214.477883 
L 181.61041 212.69636 
L 181.855063 212.433092 
L 182.099716 212.353501 
L 182.589022 214.789273 
L 182.833675 215.031736 
L 183.078328 217.657682 
L 183.322981 217.285843 
L 183.567634 217.629335 
L 183.812287 216.858419 
L 184.301593 217.442821 
L 184.546246 216.484377 
L 184.790899 217.161521 
L 185.280205 214.522059 
L 185.524858 214.129637 
L 185.769511 214.453672 
L 186.014164 214.330808 
L 186.258817 214.546873 
L 186.50347 212.884537 
L 186.992776 216.887764 
L 187.237429 216.435035 
L 187.482082 216.429901 
L 187.726735 215.423461 
L 187.971388 215.56892 
L 188.216041 211.510029 
L 188.460694 210.568175 
L 188.705347 210.415253 
L 188.95 209.950957 
L 189.194653 208.4848 
L 189.439306 208.807725 
L 189.683959 208.861599 
L 189.928612 199.004363 
L 190.173265 194.129301 
L 190.417918 193.337136 
L 190.662571 193.440114 
L 190.907224 193.131783 
L 191.641183 190.582004 
L 191.885836 188.55919 
L 192.375142 197.733324 
L 192.619795 195.686821 
L 192.864448 192.483429 
L 193.109101 194.066285 
L 193.353754 197.834511 
L 193.598407 197.40574 
L 193.84306 197.403173 
L 194.087713 198.145854 
L 194.332366 197.176698 
L 195.066325 191.642223 
L 195.310978 191.060419 
L 195.800284 192.757392 
L 196.044937 189.698761 
L 196.28959 191.929639 
L 196.534243 189.964707 
L 196.778896 189.909265 
L 197.268202 193.808262 
L 197.757508 188.46236 
L 198.002161 188.981053 
L 198.246814 190.711998 
L 198.491467 187.216325 
L 198.73612 189.478687 
L 198.980773 190.379519 
L 199.225426 194.477294 
L 199.470079 195.257242 
L 199.714732 200.06363 
L 200.448691 191.987917 
L 200.693344 187.274857 
L 200.937997 188.930776 
L 201.18265 185.962891 
L 201.671956 184.404341 
L 201.916609 182.122394 
L 202.161262 182.30867 
L 202.405915 180.140001 
L 202.650568 180.066574 
L 202.895221 182.864266 
L 203.384528 183.672118 
L 203.629181 180.827318 
L 204.118487 178.873858 
L 204.36314 178.877012 
L 204.607793 178.163851 
L 204.852446 177.09815 
L 205.097099 178.571469 
L 205.341752 179.186183 
L 205.586405 183.367526 
L 206.320364 178.500355 
L 206.565017 178.419925 
L 206.80967 181.31741 
L 207.054323 179.734205 
L 207.298976 176.226173 
L 207.788282 178.776426 
L 208.277588 177.078359 
L 208.766894 174.19176 
L 209.2562 177.148665 
L 209.500853 174.439706 
L 209.745506 175.421015 
L 209.990159 174.678097 
L 210.234812 180.914958 
L 210.724118 173.659377 
L 211.213424 167.834253 
L 211.458077 167.277342 
L 211.70273 167.596211 
L 211.947383 167.194915 
L 212.192036 165.619411 
L 212.436689 166.082582 
L 212.681342 164.669333 
L 213.415301 172.899314 
L 213.904607 161.315934 
L 214.14926 164.827832 
L 214.393913 165.63345 
L 214.638566 167.070895 
L 214.883219 169.34034 
L 215.127872 172.826775 
L 215.372525 166.405174 
L 215.617178 168.196015 
L 215.861831 167.637377 
L 216.106484 162.593516 
L 216.351137 163.799114 
L 216.59579 161.869074 
L 216.840443 164.147566 
L 217.085096 165.062024 
L 217.329749 159.168687 
L 217.574402 165.786023 
L 217.819055 165.550278 
L 218.063708 160.049601 
L 218.308361 157.615493 
L 218.553014 156.29497 
L 218.797667 156.178048 
L 219.04232 157.66466 
L 219.286973 152.75596 
L 219.531626 153.636985 
L 219.776279 149.503589 
L 220.020932 150.341864 
L 220.265585 149.759141 
L 220.510238 150.050724 
L 220.754891 152.14134 
L 220.999544 149.535153 
L 221.244197 149.52853 
L 221.48885 139.73713 
L 222.222809 144.132605 
L 222.467462 141.493175 
L 222.712115 141.664129 
L 222.956768 144.052254 
L 223.201421 141.972666 
L 223.446074 144.648287 
L 223.690727 143.359533 
L 223.93538 148.255685 
L 224.180033 147.78673 
L 224.424686 141.712916 
L 224.669339 144.043634 
L 224.913992 140.83655 
L 225.158645 142.439688 
L 225.403298 141.703583 
L 225.647952 143.30501 
L 225.892605 138.779462 
L 226.137258 141.538682 
L 226.381911 141.511048 
L 226.871217 149.312877 
L 227.11587 146.195761 
L 227.360523 144.718259 
L 227.849829 147.921224 
L 228.094482 144.765589 
L 228.339135 143.866105 
L 228.583788 145.429757 
L 228.828441 142.651506 
L 229.073094 144.681039 
L 229.317747 143.435495 
L 229.807053 145.889299 
L 230.051706 146.864318 
L 230.296359 147.284216 
L 230.541012 149.63661 
L 230.785665 148.191496 
L 231.030318 147.636993 
L 231.274971 148.026896 
L 231.519624 146.085082 
L 231.764277 146.38462 
L 232.00893 151.035868 
L 232.253583 152.709612 
L 232.742889 160.283428 
L 232.987542 155.091986 
L 233.232195 154.050497 
L 233.476848 157.953582 
L 233.721501 157.644505 
L 234.210807 149.221767 
L 234.45546 150.26923 
L 234.700113 149.031292 
L 234.944766 151.558459 
L 235.189419 150.159898 
L 235.678725 145.257012 
L 235.923378 149.233286 
L 236.168031 149.787599 
L 236.412684 149.910779 
L 236.657337 149.620353 
L 236.90199 152.033323 
L 237.146643 149.74618 
L 237.391296 149.49169 
L 237.635949 151.182737 
L 237.880602 150.512644 
L 238.125255 150.723401 
L 238.369908 147.578255 
L 238.859214 153.208308 
L 239.34852 154.93637 
L 239.593173 152.080859 
L 239.837826 151.382276 
L 240.327132 153.934589 
L 240.571785 153.654319 
L 240.816438 152.965829 
L 241.061091 150.274617 
L 241.550397 147.803146 
L 241.79505 147.761869 
L 242.039703 149.017142 
L 242.284356 149.457813 
L 242.529009 148.674521 
L 242.773662 153.018895 
L 243.262968 149.7686 
L 243.507621 151.044298 
L 243.752274 151.358936 
L 243.996927 149.144712 
L 244.24158 151.890051 
L 244.486233 151.266289 
L 244.975539 143.88851 
L 245.220192 143.082797 
L 245.464845 142.678998 
L 245.709498 144.311719 
L 245.954151 144.669139 
L 246.198804 147.003343 
L 246.443457 146.020941 
L 246.68811 143.999854 
L 246.932763 144.687219 
L 247.422069 147.68239 
L 247.911375 140.921068 
L 248.156029 140.915364 
L 248.400682 139.700132 
L 248.645335 139.868091 
L 249.134641 137.667937 
L 249.379294 140.50651 
L 249.623947 139.800479 
L 249.8686 138.497148 
L 250.357906 138.295597 
L 250.847212 133.9774 
L 251.091865 134.182341 
L 251.336518 127.783067 
L 251.581171 127.71338 
L 251.825824 132.501657 
L 252.31513 149.222575 
L 252.559783 151.281706 
L 252.804436 141.946046 
L 253.049089 138.529045 
L 253.293742 138.947295 
L 253.538395 140.733904 
L 253.783048 147.404972 
L 254.027701 140.835662 
L 254.272354 140.271732 
L 254.517007 144.836005 
L 254.76166 140.793261 
L 255.006313 145.672679 
L 255.250966 144.699784 
L 255.495619 142.794462 
L 255.740272 144.329973 
L 256.229578 137.990498 
L 256.474231 137.881974 
L 256.718884 143.377866 
L 256.963537 140.506827 
L 257.20819 142.155219 
L 257.452843 141.334913 
L 257.697496 141.222317 
L 257.942149 140.021678 
L 258.186802 145.716159 
L 258.431455 147.815299 
L 258.920761 139.792129 
L 259.165414 138.141931 
L 259.410067 135.096261 
L 259.65472 136.231459 
L 260.144026 131.365334 
L 260.388679 130.801799 
L 260.633332 129.54274 
L 260.877985 130.13459 
L 261.122638 132.759221 
L 261.611944 127.723489 
L 261.856597 127.082392 
L 262.10125 127.630636 
L 262.345903 126.488435 
L 262.590556 124.365685 
L 262.835209 123.935519 
L 263.079862 122.929254 
L 263.569168 125.396542 
L 263.813821 125.789218 
L 264.058474 125.970867 
L 264.303127 124.323346 
L 264.54778 121.692647 
L 264.792433 122.301166 
L 265.281739 120.948524 
L 265.526392 124.032048 
L 265.771045 122.442521 
L 266.015698 123.344351 
L 266.260351 125.474199 
L 266.505004 132.903301 
L 266.749657 131.539156 
L 266.99431 120.67716 
L 267.483616 119.335546 
L 267.972922 107.772368 
L 268.462228 103.30906 
L 268.706881 103.110044 
L 268.951534 104.918711 
L 269.196187 103.574943 
L 269.44084 104.80266 
L 269.685493 110.567937 
L 269.930146 103.524206 
L 270.419452 104.721977 
L 270.664106 108.336235 
L 270.908759 107.205458 
L 271.153412 111.159977 
L 271.398065 108.412578 
L 271.642718 109.576693 
L 271.887371 106.536062 
L 272.376677 111.829088 
L 272.62133 109.634496 
L 272.865983 108.571156 
L 273.110636 106.171179 
L 273.355289 106.660257 
L 273.599942 106.887952 
L 273.844595 104.940229 
L 274.089248 105.792732 
L 275.06786 114.439585 
L 275.312513 121.996082 
L 275.557166 124.735496 
L 276.046472 118.128063 
L 276.291125 130.440735 
L 276.535778 133.388687 
L 276.780431 134.734008 
L 277.025084 133.641149 
L 277.269737 140.477418 
L 277.759043 128.016847 
L 278.003696 130.089193 
L 278.248349 129.110182 
L 278.493002 130.053478 
L 278.737655 128.751731 
L 278.982308 121.775596 
L 279.226961 120.17428 
L 279.716267 125.346978 
L 279.96092 130.737325 
L 280.450226 149.369444 
L 280.694879 146.019768 
L 280.939532 144.857951 
L 281.184185 147.073173 
L 281.918144 131.04065 
L 282.162797 133.376359 
L 282.896756 124.183227 
L 283.386062 119.344087 
L 283.630715 120.636089 
L 283.875368 124.674571 
L 284.120021 121.694659 
L 284.364674 121.781079 
L 284.609327 119.174274 
L 284.85398 121.913941 
L 285.343286 119.439475 
L 285.587939 120.759713 
L 285.832592 120.874131 
L 286.077245 115.759807 
L 286.321898 114.895578 
L 287.055857 110.726643 
L 287.30051 109.765061 
L 288.034469 111.985607 
L 288.279122 111.526223 
L 288.523775 110.257054 
L 289.013081 105.495127 
L 289.257734 105.440366 
L 289.502387 102.666696 
L 289.74704 102.558505 
L 289.991693 103.087386 
L 290.236346 101.423766 
L 290.480999 104.47289 
L 290.725652 105.116332 
L 290.970305 106.220869 
L 291.214958 103.468495 
L 291.459611 104.599842 
L 291.948917 102.132015 
L 292.19357 98.538133 
L 292.438223 101.272698 
L 292.682876 101.881312 
L 292.92753 102.871542 
L 293.172183 100.833754 
L 293.416836 100.849473 
L 293.661489 101.488383 
L 293.906142 100.539921 
L 294.150795 106.466597 
L 294.395448 104.391509 
L 294.640101 99.909092 
L 294.884754 102.693791 
L 295.129407 101.793688 
L 295.37406 102.406771 
L 296.108019 96.993511 
L 296.352672 103.225176 
L 296.597325 103.886618 
L 296.841978 105.797169 
L 297.086631 101.350086 
L 297.331284 108.938131 
L 297.575937 108.299791 
L 297.82059 108.790517 
L 298.065243 108.624586 
L 298.309896 109.61358 
L 298.554549 105.601861 
L 298.799202 105.87069 
L 299.043855 104.18324 
L 299.288508 104.222694 
L 299.533161 107.861703 
L 299.777814 108.625917 
L 300.022467 107.336593 
L 300.26712 108.932427 
L 300.511773 113.965528 
L 300.756426 112.41666 
L 301.490385 114.817715 
L 301.735038 116.715685 
L 301.979691 122.48722 
L 302.224344 119.216153 
L 302.468997 117.858884 
L 302.71365 118.431451 
L 302.958303 117.443867 
L 303.202956 117.1539 
L 303.447609 117.423728 
L 303.692262 116.056778 
L 304.181568 123.291364 
L 304.426221 117.469409 
L 304.670874 118.066061 
L 304.915527 117.460362 
L 305.16018 113.470398 
L 305.404833 113.935486 
L 305.649486 109.50596 
L 305.894139 110.244853 
L 306.138792 103.845484 
L 306.383445 101.997553 
L 306.628098 102.754795 
L 306.872751 105.289995 
L 307.117404 103.104245 
L 307.362057 102.676646 
L 307.60671 99.51705 
L 308.096016 97.228528 
L 308.340669 99.895909 
L 308.585322 98.950933 
L 308.829975 98.844485 
L 309.074628 98.518042 
L 309.319281 99.428792 
L 309.563934 95.889101 
L 309.808587 95.53813 
L 310.05324 94.345145 
L 310.297893 97.447191 
L 310.542546 97.9421 
L 310.787199 99.83557 
L 311.031852 98.130848 
L 311.276505 99.555744 
L 311.521158 99.763316 
L 311.765811 100.784064 
L 312.010464 97.915322 
L 312.255117 98.799769 
L 312.49977 97.900586 
L 312.744423 99.663872 
L 312.989076 99.600744 
L 313.233729 102.457602 
L 313.478382 101.261702 
L 313.723035 101.361622 
L 313.967688 99.623371 
L 314.212341 101.828041 
L 314.456994 101.208525 
L 314.701647 103.200077 
L 314.9463 101.599965 
L 315.190953 103.714856 
L 315.435607 103.903033 
L 315.68026 103.572122 
L 315.924913 101.764755 
L 316.414219 106.74506 
L 316.658872 109.539013 
L 316.903525 116.847897 
L 317.148178 115.215556 
L 317.392831 121.05567 
L 317.882137 118.595369 
L 318.12679 120.689852 
L 318.616096 119.035185 
L 318.860749 116.531405 
L 319.105402 115.224208 
L 319.350055 117.079649 
L 319.594708 121.828789 
L 320.084014 116.14117 
L 320.328667 116.850844 
L 320.57332 115.320135 
L 320.817973 115.62151 
L 321.062626 116.190607 
L 321.307279 117.555354 
L 321.551932 112.14127 
L 321.796585 116.19067 
L 322.041238 117.993299 
L 322.285891 121.075175 
L 322.530544 119.373131 
L 322.775197 120.026936 
L 323.01985 120.008302 
L 323.264503 122.554578 
L 323.509156 121.238333 
L 323.753809 120.901528 
L 324.243115 119.492034 
L 324.487768 117.176083 
L 324.732421 126.006154 
L 324.977074 127.551267 
L 325.221727 128.305927 
L 325.46638 125.748638 
L 325.711033 128.935552 
L 325.955686 133.696322 
L 326.200339 132.169256 
L 326.444992 133.013203 
L 326.689645 131.444687 
L 326.934298 125.72609 
L 327.178951 124.611983 
L 327.423604 121.131568 
L 327.668257 114.665728 
L 327.91291 113.236015 
L 328.157563 117.710383 
L 328.402216 124.468219 
L 328.646869 121.870224 
L 328.891522 114.977435 
L 329.136175 116.446475 
L 329.380828 116.445746 
L 329.625481 110.771484 
L 330.114787 109.528238 
L 330.604093 113.173522 
L 330.848746 113.763724 
L 331.093399 113.58705 
L 331.338052 112.747508 
L 331.582705 113.135335 
L 331.827358 115.033875 
L 332.072011 107.70604 
L 332.316664 107.262089 
L 332.561317 105.754323 
L 332.80597 103.166168 
L 333.050623 99.22141 
L 333.295276 100.387585 
L 333.539929 100.764194 
L 333.784582 102.035138 
L 334.029235 101.420439 
L 334.273888 97.980668 
L 334.518541 98.523999 
L 334.763194 101.331421 
L 335.007847 101.987158 
L 335.2525 101.568084 
L 335.497153 101.920513 
L 335.741806 101.889679 
L 335.986459 103.897773 
L 336.231112 103.477653 
L 336.475765 101.043672 
L 336.720418 104.184286 
L 336.965071 104.963806 
L 337.209724 103.424477 
L 337.454377 99.838105 
L 337.69903 100.55865 
L 337.943684 102.102068 
L 338.188337 101.918992 
L 338.43299 100.215411 
L 338.677643 99.880602 
L 338.922296 101.310473 
L 339.166949 100.835212 
L 339.411602 95.968992 
L 339.656255 95.804488 
L 339.900908 97.340933 
L 340.145561 95.022273 
L 340.390214 95.286381 
L 340.634867 95.134679 
L 340.87952 96.970536 
L 341.124173 97.029353 
L 341.368826 97.992488 
L 341.613479 95.984648 
L 341.858132 98.537183 
L 342.102785 98.561394 
L 342.592091 94.308606 
L 342.836744 92.061439 
L 343.081397 91.927008 
L 343.570703 87.207072 
L 343.815356 88.675256 
L 344.304662 81.504289 
L 344.549315 81.091363 
L 344.793968 82.19853 
L 345.038621 79.655787 
L 345.527927 81.65935 
L 346.017233 75.29842 
L 346.261886 75.808636 
L 346.506539 77.1094 
L 346.751192 79.247298 
L 346.995845 77.332215 
L 347.240498 77.79049 
L 347.485151 77.408716 
L 347.729804 76.162618 
L 347.974457 76.599375 
L 348.708416 71.720701 
L 349.197722 77.750338 
L 349.687028 74.890692 
L 349.931681 75.513408 
L 350.176334 77.255968 
L 350.420987 76.586255 
L 351.399599 77.658626 
L 351.644252 78.249716 
L 351.888905 77.71719 
L 352.133558 76.523381 
L 352.378211 76.706583 
L 352.622864 74.719659 
L 352.867517 74.565897 
L 353.11217 78.060334 
L 353.356823 79.283647 
L 353.601476 76.351049 
L 353.846129 75.41615 
L 354.090782 76.57285 
L 355.5587 58.559898 
L 355.803353 58.736129 
L 356.048006 62.430881 
L 356.292659 60.820755 
L 356.537312 60.41084 
L 356.781965 60.670067 
L 357.760577 53.993692 
L 358.00523 57.728374 
L 358.739189 53.813183 
L 358.983842 58.189184 
L 359.228495 58.709509 
L 359.473148 57.650035 
L 359.717801 58.138543 
L 359.962454 60.376139 
L 360.207107 60.097422 
L 360.451761 57.087974 
L 360.941067 62.471064 
L 361.18572 63.053851 
L 361.430373 59.798676 
L 361.675026 59.357356 
L 362.164332 62.133879 
L 362.408985 60.358487 
L 362.653638 63.543499 
L 362.898291 64.588269 
L 363.142944 66.435312 
L 363.63225 56.881638 
L 364.121556 57.525238 
L 364.366209 52.892735 
L 365.100168 59.451793 
L 365.344821 68.024966 
L 365.589474 67.4675 
L 366.07878 64.043162 
L 366.323433 65.731943 
L 366.812739 61.876077 
L 367.302045 65.914829 
L 367.546698 65.676485 
L 368.036004 69.069735 
L 368.280657 65.153435 
L 368.52531 63.659043 
L 368.769963 64.667843 
L 369.014616 62.686654 
L 369.259269 65.9739 
L 369.503922 63.998066 
L 369.748575 77.481667 
L 369.993228 77.669306 
L 370.237881 81.452221 
L 370.482534 77.01097 
L 370.727187 77.576105 
L 370.97184 75.857217 
L 371.216493 74.945674 
L 371.461146 71.790641 
L 371.705799 71.254345 
L 372.195105 69.231641 
L 372.439758 65.314708 
L 372.684411 63.891111 
L 372.929064 63.903819 
L 373.173717 60.045196 
L 373.41837 62.513339 
L 373.663023 60.854315 
L 373.907676 61.81108 
L 374.152329 71.548622 
L 374.396982 65.413138 
L 374.886288 75.948137 
L 375.130941 72.01577 
L 375.375594 70.717129 
L 375.8649 74.12521 
L 376.354206 67.738073 
L 376.598859 70.971698 
L 377.088165 70.866106 
L 377.332818 69.273219 
L 377.577471 64.700484 
L 377.822124 57.355346 
L 378.31143 51.508752 
L 378.556083 54.508692 
L 378.800736 50.699252 
L 379.290042 52.533778 
L 379.779348 55.141074 
L 380.024001 55.223121 
L 380.513307 51.8171 
L 380.75796 50.313802 
L 381.002613 48.004586 
L 381.247266 47.199206 
L 381.491919 48.011526 
L 381.981225 42.686334 
L 382.225878 41.926367 
L 382.470531 39.772497 
L 382.715184 39.413064 
L 382.959838 37.950742 
L 383.449144 38.472176 
L 383.693797 39.300341 
L 383.93845 39.139418 
L 384.183103 40.393312 
L 384.672409 41.019736 
L 384.917062 42.708898 
L 385.161715 42.538847 
L 385.406368 42.714158 
L 385.651021 42.491977 
L 386.140327 37.456625 
L 386.38498 37.516299 
L 386.629633 34.414125 
L 386.874286 34.936763 
L 387.118939 38.984198 
L 387.363592 37.934168 
L 387.608245 38.435257 
L 387.852898 43.880809 
L 387.852898 43.880809 
" style="fill:none;stroke:#1f77b4;stroke-linecap:square;stroke-width:1.5;"/>
   </g>
   <g id="line2d_28">
    <path clip-path="url(#pec8b50a61f)" d="M 63.198352 271.515805 
L 63.443005 272.471161 
L 63.687658 274.693404 
L 64.176964 276.334125 
L 64.421617 274.464949 
L 64.66627 275.067239 
L 65.400229 272.678847 
L 65.644882 272.865765 
L 65.889535 273.364212 
L 66.134188 269.438942 
L 66.378841 268.836652 
L 66.623494 266.115963 
L 66.868147 265.243681 
L 67.357453 266.095194 
L 67.602106 265.430598 
L 67.846759 265.617516 
L 68.091412 264.766002 
L 68.336066 265.368292 
L 68.580719 265.659053 
L 68.825372 265.015226 
L 69.070025 265.472136 
L 69.314678 265.202143 
L 69.559331 265.119069 
L 69.803984 265.638285 
L 70.048637 263.332967 
L 70.29329 264.142944 
L 70.537943 264.059869 
L 70.782596 265.264449 
L 71.027249 264.579085 
L 71.516555 259.573847 
L 71.761208 260.716121 
L 72.005861 260.819964 
L 72.250514 259.553078 
L 72.495167 259.947682 
L 72.73982 259.656921 
L 72.984473 259.719227 
L 73.229126 259.033863 
L 73.473779 260.176137 
L 73.963085 257.683902 
L 74.207738 257.26853 
L 74.452391 257.766977 
L 74.697044 254.776295 
L 74.941697 254.838601 
L 75.18635 251.806382 
L 75.920309 258.992325 
L 76.164962 260.508435 
L 76.409615 259.366161 
L 76.654268 257.102381 
L 76.898921 256.66624 
L 77.388227 254.713989 
L 77.877533 254.215542 
L 78.122186 254.817832 
L 78.366839 255.793958 
L 78.856145 258.369267 
L 79.345451 253.758633 
L 79.590104 254.25708 
L 80.07941 253.010962 
L 80.324063 254.319385 
L 80.568716 256.66624 
L 80.813369 256.458554 
L 81.058022 256.043181 
L 81.302675 251.432547 
L 81.547328 255.399354 
L 81.791981 255.856264 
L 82.52594 250.518728 
L 82.770593 249.957975 
L 83.015246 248.441865 
L 83.259899 248.753395 
L 83.504552 249.812594 
L 83.749205 248.421097 
L 83.993858 249.646445 
L 84.238511 247.92265 
L 84.483164 248.109567 
L 84.727817 249.646445 
L 84.97247 250.103355 
L 85.217123 249.438759 
L 85.461776 249.210304 
L 85.706429 252.13868 
L 85.951082 252.450209 
L 86.195735 252.367135 
L 86.685041 254.174005 
L 86.929694 251.577927 
L 87.174347 252.221755 
L 87.419 254.776295 
L 87.663653 254.360923 
L 87.908306 255.710883 
L 88.152959 255.191668 
L 88.397612 256.084718 
L 88.642265 256.230099 
L 88.886918 257.102381 
L 89.376224 251.224861 
L 89.86553 251.847919 
L 90.110183 252.554053 
L 90.354836 251.764845 
L 90.599489 251.868688 
L 90.844143 250.9341 
L 91.088796 250.767951 
L 91.333449 251.224861 
L 91.578102 250.248736 
L 91.822755 250.435653 
L 92.067408 247.964187 
L 92.801367 245.035811 
L 93.04602 243.187404 
L 93.290673 242.211279 
L 93.535326 242.709726 
L 93.779979 243.498933 
L 94.024632 243.415859 
L 94.269285 244.080455 
L 94.513938 243.291247 
L 94.758591 245.243498 
L 95.003244 245.181192 
L 95.247897 244.59967 
L 95.49255 245.347341 
L 95.737203 243.893537 
L 95.981856 245.20196 
L 96.226509 243.24971 
L 96.471162 242.979718 
L 96.715815 243.208173 
L 96.960468 242.834337 
L 97.205121 242.772032 
L 97.449774 245.077349 
L 97.694427 249.355685 
L 97.93908 246.86345 
L 98.183733 250.311041 
L 98.428386 242.751263 
L 99.162345 239.698275 
L 99.406998 237.081429 
L 99.651651 236.707594 
L 99.896304 236.686825 
L 100.140957 237.164504 
L 100.38561 234.838418 
L 100.630263 234.942261 
L 100.874916 236.126072 
L 101.119569 236.105304 
L 101.364222 237.185272 
L 101.608875 239.656738 
L 101.853528 239.03368 
L 102.098181 240.196722 
L 102.587487 239.864424 
L 102.83214 238.597538 
L 103.076793 238.784456 
L 103.321446 237.579876 
L 103.566099 238.410621 
L 103.810752 238.140629 
L 104.055405 238.369084 
L 104.300058 235.56532 
L 104.544711 236.936049 
L 104.789364 236.250684 
L 105.034017 237.559107 
L 105.27867 235.149947 
L 105.523323 235.191484 
L 105.767976 234.173822 
L 106.012629 233.737681 
L 106.257282 230.165478 
L 106.501935 233.052316 
L 106.991241 231.868505 
L 107.235894 232.533101 
L 107.480547 229.37627 
L 107.7252 229.667031 
L 107.969853 230.663925 
L 108.214506 230.871611 
L 108.459159 230.684693 
L 108.703812 230.726231 
L 108.948465 230.061635 
L 109.193118 230.726231 
L 109.437771 231.951579 
L 109.927077 229.459345 
L 110.17173 226.759424 
L 110.416383 227.154028 
L 111.150342 225.201777 
L 111.884301 221.318045 
L 112.128954 223.664899 
L 112.373607 223.436444 
L 112.61826 223.64413 
L 112.862913 219.594249 
L 113.107566 217.558924 
L 113.35222 219.178877 
L 113.596873 219.012728 
L 113.841526 217.288932 
L 114.086179 217.974297 
L 114.330832 218.07814 
L 114.575485 219.698092 
L 114.820138 218.82581 
L 115.309444 227.091722 
L 115.79875 219.531943 
L 116.043403 221.629574 
L 116.288056 221.878798 
L 116.532709 224.391801 
L 117.022015 223.997197 
L 117.266668 224.931785 
L 117.511321 222.75108 
L 117.755974 225.367926 
L 118.000627 229.646262 
L 118.24528 229.750105 
L 118.489933 230.393933 
L 118.734586 229.085509 
L 118.979239 225.90791 
L 119.223892 224.661793 
L 119.468545 222.169558 
L 119.713198 223.415676 
L 120.447157 220.466531 
L 120.69181 218.535049 
L 120.936463 217.538156 
L 121.181116 218.161214 
L 121.425769 217.205858 
L 121.670422 215.793591 
L 122.159728 216.458187 
L 122.404381 216.001277 
L 122.649034 216.87356 
L 122.893687 217.143552 
L 123.13834 216.915097 
L 123.382993 216.520493 
L 123.627646 216.354344 
L 123.872299 219.012728 
L 124.116952 219.531943 
L 124.606258 219.822704 
L 124.850911 218.929653 
L 125.095564 219.739629 
L 125.340217 216.437419 
L 125.58487 217.62123 
L 125.829523 216.811254 
L 126.074176 219.345026 
L 126.318829 216.832022 
L 126.563482 219.054265 
L 127.052788 218.07814 
L 127.542094 227.008647 
L 127.786747 226.5102 
L 128.0314 226.863267 
L 128.520706 229.937023 
L 128.765359 229.37627 
L 129.010012 229.604725 
L 129.254665 226.406357 
L 129.499318 229.127047 
L 129.743971 227.237102 
L 129.988624 227.195565 
L 130.47793 229.583956 
L 130.722583 229.085509 
L 130.967236 231.473901 
L 131.211889 232.076191 
L 131.945848 227.216333 
L 132.190501 226.468663 
L 132.435154 227.070953 
L 132.92446 225.637918 
L 133.413766 220.009622 
L 133.903072 225.409463 
L 134.147725 225.139471 
L 134.392378 226.21944 
L 134.637031 225.077165 
L 135.126337 225.534075 
L 135.37099 224.682562 
L 135.615643 224.55795 
L 135.860297 225.471769 
L 136.10495 225.679455 
L 136.594256 228.815517 
L 136.838909 229.085509 
L 137.328215 224.55795 
L 137.572868 224.495644 
L 137.817521 226.925573 
L 138.062174 227.42402 
L 138.306827 225.76253 
L 138.55148 227.943235 
L 138.796133 228.088616 
L 139.285439 227.133259 
L 139.530092 223.602593 
L 139.774745 224.70333 
L 140.019398 225.097934 
L 140.264051 222.107252 
L 140.508704 221.318045 
L 140.753357 221.297276 
L 140.99801 223.166452 
L 141.242663 223.145684 
L 141.731969 224.350264 
L 141.976622 225.866373 
L 142.465928 226.530969 
L 142.710581 224.848711 
L 143.44454 216.852791 
L 143.689193 217.600461 
L 143.933846 216.125889 
L 144.178499 217.434312 
L 144.423152 217.268163 
L 144.667805 218.618124 
L 145.401764 215.544368 
L 145.646417 215.523599 
L 146.135723 219.594249 
L 146.380376 220.238076 
L 146.625029 219.947316 
L 146.869682 217.247395 
L 147.114335 217.745842 
L 147.358988 219.801935 
L 147.603641 218.991959 
L 147.848294 219.968084 
L 148.092947 218.97119 
L 148.3376 218.784273 
L 148.582253 219.781167 
L 148.826906 216.811254 
L 149.071559 217.01894 
L 149.316212 216.832022 
L 149.560865 215.752054 
L 149.805518 215.585905 
L 150.050171 213.69596 
L 150.294824 213.509043 
L 150.78413 212.055239 
L 151.028783 212.719835 
L 151.273436 212.989827 
L 151.518089 214.630548 
L 152.007395 212.906753 
L 152.252048 213.654423 
L 152.496701 212.740604 
L 152.741354 214.900541 
L 153.23066 214.692854 
L 153.475313 214.29825 
L 153.719966 214.838235 
L 153.964619 215.95974 
L 154.209272 216.499724 
L 154.453925 216.41665 
L 154.698578 218.659661 
L 154.943231 219.116571 
L 155.187884 219.947316 
L 155.432537 223.810279 
L 155.67719 223.291064 
L 155.921843 223.457213 
L 156.166496 227.11249 
L 156.411149 227.361714 
L 156.655802 226.759424 
L 156.900455 224.890248 
L 157.145108 224.287958 
L 157.389761 224.371032 
L 157.634414 223.768742 
L 157.879067 222.564162 
L 158.368374 221.214202 
L 158.613027 221.961872 
L 158.85768 224.287958 
L 159.102333 222.14879 
L 159.346986 221.608805 
L 159.591639 221.338813 
L 159.836292 214.879772 
L 160.080945 213.384431 
L 160.325598 212.823678 
L 160.570251 212.699067 
L 160.814904 212.761372 
L 161.059557 210.954502 
L 161.30421 210.871428 
L 161.548863 211.909859 
L 161.793516 211.619098 
L 162.038169 212.387537 
L 162.527475 215.752054 
L 162.772128 219.407332 
L 163.016781 218.202751 
L 163.506087 217.288932 
L 163.75074 217.434312 
L 164.240046 216.042815 
L 164.484699 217.62123 
L 164.729352 218.015834 
L 164.974005 219.261951 
L 165.218658 219.656555 
L 165.463311 219.573481 
L 166.19727 217.01894 
L 166.686576 219.573481 
L 166.931229 222.875691 
L 167.175882 222.917229 
L 167.420535 221.567268 
L 167.909841 225.845604 
L 168.154494 225.284852 
L 168.399147 225.451001 
L 169.133106 221.151896 
L 169.377759 217.600461 
L 169.622412 219.988853 
L 169.867065 217.392775 
L 170.111718 218.202751 
L 170.356371 216.56203 
L 170.601024 217.911991 
L 170.845677 217.932759 
L 171.09033 218.306595 
L 171.334983 218.161214 
L 171.579636 219.635786 
L 171.824289 222.273401 
L 172.068942 222.979535 
L 172.313595 223.04184 
L 172.802901 220.508069 
L 173.292207 224.578718 
L 173.53686 224.724099 
L 173.781513 222.398013 
L 174.026166 224.184115 
L 174.270819 221.151896 
L 174.515472 220.902672 
L 175.004778 218.618124 
L 175.249431 217.558924 
L 175.494084 217.579693 
L 175.98339 216.437419 
L 176.228043 215.170533 
L 176.962002 216.125889 
L 177.206655 215.585905 
L 177.451308 215.648211 
L 177.695961 215.378219 
L 177.940614 217.309701 
L 178.185267 220.175771 
L 178.42992 220.923441 
L 179.163879 215.440525 
L 179.653185 216.56203 
L 179.897838 215.585905 
L 180.142491 216.022046 
L 180.387144 215.81436 
L 180.631798 215.35745 
L 180.876451 214.568243 
L 181.121104 214.921309 
L 181.365757 213.135208 
L 181.855063 212.657529 
L 182.344369 215.336682 
L 182.589022 215.398987 
L 182.833675 218.161214 
L 183.078328 217.725073 
L 183.322981 218.036602 
L 183.567634 217.205858 
L 184.05694 217.849685 
L 184.301593 216.748948 
L 184.546246 217.517387 
L 185.035552 214.796697 
L 185.280205 214.422862 
L 185.524858 214.775929 
L 185.769511 214.692854 
L 186.014164 214.879772 
L 186.258817 213.259819 
L 186.748123 217.434312 
L 186.992776 216.852791 
L 187.237429 216.852791 
L 187.482082 215.835129 
L 187.726735 215.938972 
L 187.971388 211.868322 
L 188.216041 210.933734 
L 188.460694 210.850659 
L 188.705347 210.435287 
L 188.95 208.898409 
L 189.439306 209.459161 
L 189.683959 199.822521 
L 189.928612 194.588828 
L 190.173265 193.758083 
L 190.417918 194.007307 
L 190.662571 193.65424 
L 191.39653 190.93355 
L 191.641183 188.877457 
L 192.130489 198.223337 
L 192.375142 196.291855 
L 192.619795 192.802726 
L 192.864448 194.443448 
L 193.109101 198.368717 
L 193.353754 197.704121 
L 193.598407 197.766427 
L 193.84306 198.555635 
L 194.087713 197.434129 
L 194.821672 191.805833 
L 195.066325 191.286617 
L 195.555631 193.05195 
L 195.800284 189.874351 
L 196.044937 192.200436 
L 196.28959 190.248186 
L 196.534243 190.165111 
L 197.023549 194.028075 
L 197.512855 188.794382 
L 197.757508 189.375904 
L 198.002161 191.016625 
L 198.246814 187.652108 
L 198.491467 189.770508 
L 198.73612 190.850476 
L 198.980773 194.900357 
L 199.225426 195.938788 
L 199.470079 200.611728 
L 199.959385 195.648028 
L 200.204038 192.30428 
L 200.448691 187.423653 
L 200.693344 189.209755 
L 200.937997 186.177536 
L 201.18265 185.782932 
L 201.427303 184.786038 
L 201.671956 182.459953 
L 201.916609 182.813019 
L 202.161262 180.528471 
L 202.405915 180.528471 
L 202.650568 183.498384 
L 203.139875 184.142211 
L 203.384528 181.006149 
L 203.873834 179.199279 
L 204.118487 179.240816 
L 204.607793 177.454715 
L 204.852446 179.03313 
L 205.097099 179.469271 
L 205.341752 183.726839 
L 206.075711 178.950055 
L 206.320364 178.700832 
L 206.565017 181.58767 
L 206.80967 180.154636 
L 207.054323 176.62397 
L 207.543629 179.199279 
L 208.277588 176.125523 
L 208.522241 174.484802 
L 209.011547 177.579326 
L 209.2562 174.8171 
L 209.500853 175.834762 
L 209.745506 175.274009 
L 209.990159 181.483827 
L 210.724118 171.369508 
L 210.968771 168.108835 
L 211.213424 167.56885 
L 211.458077 167.984223 
L 211.70273 167.589619 
L 211.947383 165.969667 
L 212.192036 166.509651 
L 212.436689 165.055847 
L 213.170648 173.404833 
L 213.659954 161.421338 
L 213.904607 165.221996 
L 214.393913 167.631156 
L 214.638566 169.894936 
L 214.883219 173.280222 
L 215.127872 166.82118 
L 215.372525 168.62805 
L 215.617178 168.046529 
L 215.861831 162.771299 
L 216.106484 164.225102 
L 216.351137 162.169009 
L 216.59579 164.661243 
L 216.840443 165.533526 
L 217.085096 159.552162 
L 217.329749 166.198121 
L 217.574402 166.177353 
L 217.819055 160.34137 
L 218.063708 157.911441 
L 218.308361 156.706861 
L 218.553014 156.603018 
L 218.797667 158.056822 
L 219.04232 153.217733 
L 219.286973 153.965403 
L 219.531626 150.123208 
L 219.776279 150.683961 
L 220.020932 150.455506 
L 220.265585 150.476274 
L 220.510238 152.65698 
L 220.754891 149.957059 
L 220.999544 149.873984 
L 221.244197 140.59041 
L 221.48885 141.50423 
L 221.978156 144.744135 
L 222.222809 141.898833 
L 222.467462 142.002677 
L 222.712115 144.723366 
L 222.956768 142.334975 
L 223.201421 145.367193 
L 223.446074 143.705704 
L 223.690727 149.292463 
L 223.93538 148.233263 
L 224.180033 141.940371 
L 224.424686 144.598754 
L 224.669339 141.109626 
L 224.913992 143.020339 
L 225.158645 141.981908 
L 225.403298 143.892621 
L 225.647952 139.053532 
L 225.892605 142.002677 
L 226.137258 141.836528 
L 226.381911 146.966377 
L 226.626564 149.687067 
L 226.871217 146.592542 
L 227.11587 144.993358 
L 227.360523 147.111758 
L 227.605176 148.108651 
L 227.849829 145.180276 
L 228.094482 144.328762 
L 228.339135 145.678723 
L 228.583788 142.99957 
L 228.828441 145.11797 
L 229.073094 143.726472 
L 229.317747 145.387962 
L 229.5624 146.197938 
L 229.807053 147.444056 
L 230.051706 147.610205 
L 230.296359 150.24782 
L 230.541012 148.669404 
L 230.785665 148.025577 
L 231.030318 148.399412 
L 231.274971 146.384856 
L 231.519624 146.92484 
L 231.764277 151.722392 
L 232.00893 153.40465 
L 232.498236 160.881354 
L 232.742889 155.543818 
L 232.987542 154.484618 
L 233.232195 158.638343 
L 233.476848 158.119127 
L 233.966154 149.479381 
L 234.210807 150.663192 
L 234.45546 149.375537 
L 234.700113 152.137764 
L 234.944766 150.580118 
L 235.434072 145.616417 
L 235.678725 149.749373 
L 235.923378 150.24782 
L 236.168031 150.434737 
L 236.412684 150.123208 
L 236.657337 152.677748 
L 236.90199 150.123208 
L 237.146643 150.060902 
L 237.391296 151.660086 
L 237.635949 151.14087 
L 237.880602 151.307019 
L 238.125255 148.046346 
L 238.614561 153.840791 
L 239.103867 155.585355 
L 239.34852 152.573905 
L 239.593173 151.930078 
L 240.082479 154.588462 
L 240.571785 153.633105 
L 240.816438 150.767035 
L 241.305744 148.233263 
L 241.550397 148.004808 
L 241.79505 149.728604 
L 242.039703 149.957059 
L 242.284356 149.209388 
L 242.529009 153.487725 
L 242.773662 152.262376 
L 243.018315 150.310125 
L 243.262968 151.514706 
L 243.507621 151.867772 
L 243.752274 149.624761 
L 243.996927 152.532368 
L 244.24158 151.74316 
L 244.730886 144.432605 
L 244.975539 143.477249 
L 245.220192 143.020339 
L 245.464845 144.785672 
L 245.709498 145.325656 
L 245.954151 147.52713 
L 246.198804 146.592542 
L 246.443457 144.432605 
L 246.68811 145.076433 
L 246.932763 147.153295 
L 247.177416 148.233263 
L 247.666722 141.379618 
L 247.911375 141.1927 
L 248.156029 140.008889 
L 248.400682 140.29965 
L 248.889988 137.994332 
L 249.134641 140.985014 
L 249.379294 140.216575 
L 249.623947 138.825077 
L 249.8686 138.63816 
L 250.113253 138.63816 
L 250.602559 134.359824 
L 250.847212 134.463667 
L 251.091865 128.025394 
L 251.336518 128.108468 
L 251.581171 132.719102 
L 252.070477 149.334 
L 252.31513 152.594674 
L 252.559783 142.293437 
L 252.804436 138.700466 
L 253.049089 138.991226 
L 253.293742 141.1927 
L 253.538395 148.233263 
L 253.783048 141.151163 
L 254.027701 140.90194 
L 254.272354 145.429499 
L 254.517007 141.255006 
L 254.76166 146.364087 
L 255.006313 145.284119 
L 255.250966 143.3111 
L 255.495619 144.785672 
L 255.984925 138.368168 
L 256.229578 138.18125 
L 256.474231 143.975696 
L 256.718884 140.943477 
L 256.963537 142.563429 
L 257.20819 141.79499 
L 257.452843 141.441924 
L 257.697496 140.611179 
L 257.942149 146.094095 
L 258.186802 148.565561 
L 258.676108 140.008889 
L 258.920761 138.388936 
L 259.165414 135.502098 
L 259.410067 136.582066 
L 260.144026 131.078381 
L 260.388679 129.89457 
L 260.633332 130.49686 
L 260.877985 133.279855 
L 261.367291 128.150006 
L 261.611944 127.402335 
L 261.856597 127.921551 
L 262.10125 126.986963 
L 262.345903 124.785489 
L 262.590556 124.266273 
L 262.835209 123.435528 
L 263.569168 126.301598 
L 263.813821 126.28083 
L 264.058474 124.681646 
L 264.303127 122.085568 
L 264.54778 122.667089 
L 265.037086 121.420972 
L 265.281739 124.494728 
L 265.526392 122.916313 
L 265.771045 124.058587 
L 266.015698 125.927763 
L 266.260351 133.840608 
L 266.505004 132.096044 
L 266.749657 121.005599 
L 267.238963 119.593333 
L 267.728269 107.87983 
L 268.217575 103.414576 
L 268.462228 103.227659 
L 268.706881 105.01376 
L 268.951534 103.871486 
L 269.196187 105.159141 
L 269.44084 111.140504 
L 269.685493 103.6638 
L 269.930146 104.909917 
L 270.174799 105.096835 
L 270.419452 109.125948 
L 270.664106 107.796756 
L 270.908759 112.158166 
L 271.153412 108.897493 
L 271.398065 110.392834 
L 271.642718 107.049085 
L 272.132024 112.469696 
L 272.865983 106.612944 
L 273.355289 107.505995 
L 273.599942 105.387596 
L 273.844595 106.114497 
L 274.823207 114.982699 
L 275.06786 122.625552 
L 275.312513 125.740845 
L 275.801819 118.28491 
L 276.046472 130.933001 
L 276.291125 134.629816 
L 276.535778 135.439792 
L 276.780431 134.339055 
L 277.025084 141.1927 
L 277.51439 128.108468 
L 277.759043 130.289174 
L 278.003696 129.271511 
L 278.248349 130.579934 
L 278.493002 129.105362 
L 278.737655 121.877882 
L 278.982308 120.320235 
L 279.471614 125.9693 
L 279.716267 131.535291 
L 280.205573 150.767035 
L 280.450226 146.592542 
L 280.694879 145.616417 
L 280.939532 147.817891 
L 281.673491 131.327605 
L 281.918144 133.902914 
L 282.652103 124.432422 
L 283.141409 119.593333 
L 283.386062 120.839451 
L 283.630715 125.283936 
L 283.875368 122.002493 
L 284.120021 122.230948 
L 284.364674 119.717945 
L 284.609327 122.293254 
L 285.098633 119.884094 
L 285.343286 121.317129 
L 285.587939 121.60789 
L 285.832592 116.270354 
L 286.077245 115.481146 
L 286.566551 112.137398 
L 287.055857 110.268222 
L 287.789816 112.615076 
L 288.034469 112.116629 
L 288.279122 110.828975 
L 288.768428 105.969117 
L 289.013081 105.948348 
L 289.257734 102.999204 
L 289.502387 102.999204 
L 289.74704 103.559957 
L 289.991693 101.773855 
L 290.236346 105.034529 
L 290.480999 105.553745 
L 290.725652 106.820631 
L 290.970305 103.975329 
L 291.214958 105.096835 
L 291.704264 102.666906 
L 291.948917 98.949323 
L 292.19357 101.773855 
L 292.438223 102.293071 
L 292.682876 103.51842 
L 292.92753 101.316946 
L 293.172183 101.337714 
L 293.416836 101.981542 
L 293.661489 101.130028 
L 293.906142 107.402152 
L 294.150795 104.992992 
L 294.395448 100.506969 
L 294.640101 103.643031 
L 294.884754 102.355377 
L 295.129407 103.373039 
L 295.37406 101.233871 
L 295.618713 100.112366 
L 295.863366 97.474751 
L 296.108019 104.141478 
L 296.352672 104.369933 
L 296.597325 106.571407 
L 296.841978 101.981542 
L 297.086631 108.918261 
L 297.331284 109.39594 
L 297.575937 109.479014 
L 297.82059 109.229791 
L 298.065243 110.122841 
L 298.309896 106.093729 
L 298.554549 106.426027 
L 298.799202 104.660694 
L 299.043855 104.889149 
L 299.288508 108.669038 
L 299.533161 109.271328 
L 299.777814 108.066748 
L 300.022467 109.458246 
L 300.26712 114.754244 
L 300.511773 113.238135 
L 301.245732 115.501915 
L 301.490385 117.578777 
L 301.735038 122.95785 
L 302.224344 118.554902 
L 302.468997 119.011812 
L 302.71365 118.014918 
L 302.958303 117.765694 
L 303.202956 118.056455 
L 303.447609 116.62342 
L 303.936915 124.141661 
L 304.181568 118.201836 
L 304.426221 118.534133 
L 304.670874 117.869538 
L 304.915527 113.861193 
L 305.16018 114.421946 
L 305.404833 109.811312 
L 305.649486 110.662826 
L 305.894139 104.058404 
L 306.138792 102.376145 
L 306.383445 103.019973 
L 306.628098 105.678356 
L 306.872751 103.643031 
L 307.117404 103.144584 
L 307.362057 99.904679 
L 307.851363 97.682437 
L 308.096016 100.465432 
L 308.340669 99.530844 
L 308.585322 99.572381 
L 308.829975 99.053166 
L 309.074628 99.966985 
L 309.319281 96.540163 
L 309.563934 95.958641 
L 309.808587 94.857904 
L 310.05324 98.077041 
L 310.297893 98.409339 
L 310.542546 100.506969 
L 310.787199 98.720868 
L 311.031852 100.174671 
L 311.276505 100.382358 
L 311.521158 101.441557 
L 311.765811 98.450876 
L 312.010464 99.427001 
L 312.255117 98.409339 
L 312.49977 100.133134 
L 312.744423 100.299283 
L 312.989076 103.103047 
L 313.233729 101.732318 
L 313.478382 101.981542 
L 313.723035 100.153903 
L 313.967688 102.563063 
L 314.212341 101.794624 
L 314.456994 104.016867 
L 314.701647 102.189228 
L 314.9463 104.556851 
L 315.190953 104.515313 
L 315.435607 104.286859 
L 315.68026 102.376145 
L 316.169566 107.27754 
L 316.414219 110.455139 
L 316.658872 117.765694 
L 316.903525 116.000362 
L 317.148178 121.960956 
L 317.637484 119.385647 
L 317.882137 121.15098 
L 318.12679 120.777145 
L 318.371443 119.655639 
L 318.616096 116.997255 
L 318.860749 115.668064 
L 319.105402 117.661851 
L 319.350055 122.521709 
L 319.839361 116.664957 
L 320.084014 117.371091 
L 320.328667 115.813444 
L 320.57332 116.187279 
L 320.817973 116.810338 
L 321.062626 118.097992 
L 321.307279 112.677382 
L 321.796585 118.783357 
L 322.041238 121.690964 
L 322.285891 119.9464 
L 322.530544 120.777145 
L 322.775197 120.507153 
L 323.01985 123.165536 
L 323.264503 121.919419 
L 323.509156 121.60789 
L 323.998462 120.133317 
L 324.243115 117.68262 
L 324.487768 126.903888 
L 324.977074 129.146899 
L 325.221727 126.405441 
L 325.711033 134.069063 
L 325.955686 133.238318 
L 326.200339 133.466773 
L 326.444992 131.950663 
L 326.689645 126.052375 
L 326.934298 125.013944 
L 327.178951 121.337897 
L 327.423604 115.086542 
L 327.668257 113.383515 
L 327.91291 117.911075 
L 328.157563 124.702414 
L 328.402216 122.770932 
L 328.646869 115.294228 
L 328.891522 116.540346 
L 329.136175 116.768801 
L 329.380828 111.036661 
L 329.625481 110.558983 
L 329.870134 109.811312 
L 330.35944 113.861193 
L 330.604093 114.318103 
L 330.848746 114.172723 
L 331.093399 113.341978 
L 331.338052 113.736582 
L 331.582705 115.688832 
L 331.827358 107.962905 
L 332.072011 107.817524 
L 332.561317 103.559957 
L 332.80597 99.489307 
L 333.050623 100.65235 
L 333.295276 100.94311 
L 333.539929 102.45922 
L 333.784582 101.773855 
L 334.029235 98.305495 
L 334.273888 98.887017 
L 334.518541 101.794624 
L 334.763194 102.583832 
L 335.007847 102.147691 
L 335.2525 102.542294 
L 335.497153 102.479988 
L 335.741806 104.598388 
L 335.986459 104.12071 
L 336.231112 101.649244 
L 336.475765 104.972223 
L 336.720418 105.740662 
L 336.965071 104.12071 
L 337.209724 100.403126 
L 337.454377 101.233871 
L 337.69903 102.542294 
L 337.943684 102.6046 
L 338.188337 100.756193 
L 338.43299 100.278515 
L 338.677643 101.877698 
L 338.922296 101.441557 
L 339.166949 96.311708 
L 339.411602 96.332476 
L 339.656255 97.537056 
L 339.900908 95.501731 
L 340.145561 95.771724 
L 340.390214 95.480963 
L 340.634867 97.32937 
L 340.87952 97.620131 
L 341.124173 98.637793 
L 341.368826 96.498625 
L 341.613479 99.59315 
L 341.858132 99.260852 
L 342.592091 92.614893 
L 342.836744 92.573356 
L 343.32605 87.755035 
L 343.570703 89.104996 
L 344.060009 81.877515 
L 344.304662 81.399837 
L 344.549315 82.521343 
L 344.793968 79.946033 
L 345.283274 82.10597 
L 345.77258 75.792309 
L 346.017233 76.08307 
L 346.261886 77.495336 
L 346.506539 79.800653 
L 346.751192 77.931477 
L 346.995845 78.554536 
L 347.240498 78.076857 
L 347.485151 76.872277 
L 347.729804 77.43303 
L 348.463763 72.365486 
L 348.953069 78.575304 
L 349.442375 75.709234 
L 349.687028 76.290756 
L 349.931681 78.03532 
L 350.176334 77.349956 
L 350.66564 77.869171 
L 350.910293 78.118395 
L 351.399599 79.136057 
L 351.644252 78.512998 
L 351.888905 77.266881 
L 352.133558 77.495336 
L 352.378211 75.252325 
L 352.622864 75.273093 
L 352.867517 78.720685 
L 353.11217 80.029108 
L 353.356823 77.121501 
L 353.601476 76.186913 
L 353.846129 77.308418 
L 355.314047 58.824345 
L 355.5587 58.865882 
L 355.803353 62.791151 
L 356.048006 61.254273 
L 356.292659 61.15043 
L 356.537312 61.441191 
L 357.515924 54.649852 
L 357.760577 58.658196 
L 358.494536 54.379859 
L 358.739189 58.88665 
L 358.983842 59.696627 
L 359.228495 58.450509 
L 359.473148 59.156643 
L 359.717801 61.503497 
L 359.962454 61.15043 
L 360.207107 58.118211 
L 360.696414 63.476516 
L 360.941067 64.244955 
L 361.18572 60.838901 
L 361.430373 60.423529 
L 361.919679 62.81192 
L 362.164332 61.233505 
L 362.408985 64.265724 
L 362.898291 67.007182 
L 363.142944 63.248061 
L 363.387597 57.495153 
L 363.63225 57.474384 
L 363.876903 57.744376 
L 364.121556 53.237585 
L 364.855515 60.153536 
L 365.100168 68.814052 
L 365.344821 68.585597 
L 365.834127 64.826476 
L 366.07878 67.048719 
L 366.323433 64.47341 
L 366.568086 63.206524 
L 366.812739 65.947982 
L 367.057392 67.277174 
L 367.302045 66.903339 
L 367.791351 70.288624 
L 368.036004 66.155668 
L 368.280657 64.701865 
L 368.52531 65.553378 
L 368.769963 63.455747 
L 369.014616 67.02795 
L 369.259269 64.681096 
L 369.503922 77.703022 
L 369.748575 78.49223 
L 369.993228 82.791335 
L 370.237881 77.827634 
L 370.482534 78.409155 
L 370.727187 76.249219 
L 370.97184 75.522317 
L 371.216493 72.365486 
L 371.461146 71.846271 
L 371.705799 70.49631 
L 371.950452 69.89402 
L 372.195105 65.82337 
L 372.439758 64.577253 
L 372.684411 64.577253 
L 372.929064 60.610446 
L 373.173717 63.476516 
L 373.41837 61.399654 
L 373.663023 62.687308 
L 373.907676 71.181675 
L 374.152329 66.861801 
L 374.641635 76.747666 
L 374.886288 73.196231 
L 375.130941 71.721659 
L 375.620247 75.16925 
L 376.109553 68.647903 
L 376.354206 71.867039 
L 376.598859 71.534741 
L 376.843512 71.804733 
L 377.088165 69.914789 
L 377.332818 65.449535 
L 377.577471 57.910525 
L 378.066777 51.472252 
L 378.31143 54.151405 
L 378.556083 50.953037 
L 378.800736 50.724582 
L 379.045389 52.053774 
L 379.534695 55.314447 
L 379.779348 55.625977 
L 380.024001 53.507577 
L 380.268654 52.448378 
L 381.002613 48.149273 
L 381.247266 48.855406 
L 381.736572 43.37249 
L 381.981225 42.417133 
L 382.225878 40.028742 
L 382.470531 39.779518 
L 382.715184 38.055722 
L 383.204491 38.907236 
L 383.449144 40.04951 
L 383.693797 39.862593 
L 383.93845 41.233322 
L 384.183103 41.482545 
L 384.427756 42.001761 
L 384.672409 43.808631 
L 384.917062 43.600945 
L 385.161715 44.037086 
L 385.406368 43.642482 
L 385.895674 38.24264 
L 386.140327 38.159566 
L 386.38498 34.878123 
L 386.629633 35.52195 
L 386.874286 39.737981 
L 387.118939 38.761856 
L 387.363592 39.5926 
L 387.608245 45.137823 
L 387.852898 41.648694 
L 387.852898 41.648694 
" style="fill:none;stroke:#ff7f0e;stroke-linecap:square;stroke-width:1.5;"/>
   </g>
   <g id="patch_3">
    <path d="M 46.965625 288.430125 
L 46.965625 22.318125 
" style="fill:none;stroke:#000000;stroke-linecap:square;stroke-linejoin:miter;stroke-width:0.8;"/>
   </g>
   <g id="patch_4">
    <path d="M 404.085625 288.430125 
L 404.085625 22.318125 
" style="fill:none;stroke:#000000;stroke-linecap:square;stroke-linejoin:miter;stroke-width:0.8;"/>
   </g>
   <g id="patch_5">
    <path d="M 46.965625 288.430125 
L 404.085625 288.430125 
" style="fill:none;stroke:#000000;stroke-linecap:square;stroke-linejoin:miter;stroke-width:0.8;"/>
   </g>
   <g id="patch_6">
    <path d="M 46.965625 22.318125 
L 404.085625 22.318125 
" style="fill:none;stroke:#000000;stroke-linecap:square;stroke-linejoin:miter;stroke-width:0.8;"/>
   </g>
   <g id="text_16">
    <!-- Training: HD -->
    <defs>
     <path d="M -0.296875 72.90625 
L 61.375 72.90625 
L 61.375 64.59375 
L 35.5 64.59375 
L 35.5 0 
L 25.59375 0 
L 25.59375 64.59375 
L -0.296875 64.59375 
z
" id="DejaVuSans-84"/>
     <path d="M 54.890625 33.015625 
L 54.890625 0 
L 45.90625 0 
L 45.90625 32.71875 
Q 45.90625 40.484375 42.875 44.328125 
Q 39.84375 48.1875 33.796875 48.1875 
Q 26.515625 48.1875 22.3125 43.546875 
Q 18.109375 38.921875 18.109375 30.90625 
L 18.109375 0 
L 9.078125 0 
L 9.078125 54.6875 
L 18.109375 54.6875 
L 18.109375 46.1875 
Q 21.34375 51.125 25.703125 53.5625 
Q 30.078125 56 35.796875 56 
Q 45.21875 56 50.046875 50.171875 
Q 54.890625 44.34375 54.890625 33.015625 
z
" id="DejaVuSans-110"/>
     <path d="M 45.40625 27.984375 
Q 45.40625 37.75 41.375 43.109375 
Q 37.359375 48.484375 30.078125 48.484375 
Q 22.859375 48.484375 18.828125 43.109375 
Q 14.796875 37.75 14.796875 27.984375 
Q 14.796875 18.265625 18.828125 12.890625 
Q 22.859375 7.515625 30.078125 7.515625 
Q 37.359375 7.515625 41.375 12.890625 
Q 45.40625 18.265625 45.40625 27.984375 
z
M 54.390625 6.78125 
Q 54.390625 -7.171875 48.1875 -13.984375 
Q 42 -20.796875 29.203125 -20.796875 
Q 24.46875 -20.796875 20.265625 -20.09375 
Q 16.0625 -19.390625 12.109375 -17.921875 
L 12.109375 -9.1875 
Q 16.0625 -11.328125 19.921875 -12.34375 
Q 23.78125 -13.375 27.78125 -13.375 
Q 36.625 -13.375 41.015625 -8.765625 
Q 45.40625 -4.15625 45.40625 5.171875 
L 45.40625 9.625 
Q 42.625 4.78125 38.28125 2.390625 
Q 33.9375 0 27.875 0 
Q 17.828125 0 11.671875 7.65625 
Q 5.515625 15.328125 5.515625 27.984375 
Q 5.515625 40.671875 11.671875 48.328125 
Q 17.828125 56 27.875 56 
Q 33.9375 56 38.28125 53.609375 
Q 42.625 51.21875 45.40625 46.390625 
L 45.40625 54.6875 
L 54.390625 54.6875 
z
" id="DejaVuSans-103"/>
     <path d="M 11.71875 12.40625 
L 22.015625 12.40625 
L 22.015625 0 
L 11.71875 0 
z
M 11.71875 51.703125 
L 22.015625 51.703125 
L 22.015625 39.3125 
L 11.71875 39.3125 
z
" id="DejaVuSans-58"/>
     <path d="M 9.8125 72.90625 
L 19.671875 72.90625 
L 19.671875 43.015625 
L 55.515625 43.015625 
L 55.515625 72.90625 
L 65.375 72.90625 
L 65.375 0 
L 55.515625 0 
L 55.515625 34.71875 
L 19.671875 34.71875 
L 19.671875 0 
L 9.8125 0 
z
" id="DejaVuSans-72"/>
    </defs>
    <g transform="translate(188.794375 16.318125)scale(0.12 -0.12)">
     <use xlink:href="#DejaVuSans-84"/>
     <use x="46.333984" xlink:href="#DejaVuSans-114"/>
     <use x="87.447266" xlink:href="#DejaVuSans-97"/>
     <use x="148.726562" xlink:href="#DejaVuSans-105"/>
     <use x="176.509766" xlink:href="#DejaVuSans-110"/>
     <use x="239.888672" xlink:href="#DejaVuSans-105"/>
     <use x="267.671875" xlink:href="#DejaVuSans-110"/>
     <use x="331.050781" xlink:href="#DejaVuSans-103"/>
     <use x="394.527344" xlink:href="#DejaVuSans-58"/>
     <use x="428.21875" xlink:href="#DejaVuSans-32"/>
     <use x="460.005859" xlink:href="#DejaVuSans-72"/>
     <use x="535.201172" xlink:href="#DejaVuSans-68"/>
    </g>
   </g>
   <g id="legend_1">
    <g id="patch_7">
     <path d="M 53.965625 59.674375 
L 137.69375 59.674375 
Q 139.69375 59.674375 139.69375 57.674375 
L 139.69375 29.318125 
Q 139.69375 27.318125 137.69375 27.318125 
L 53.965625 27.318125 
Q 51.965625 27.318125 51.965625 29.318125 
L 51.965625 57.674375 
Q 51.965625 59.674375 53.965625 59.674375 
z
" style="fill:#ffffff;opacity:0.8;stroke:#cccccc;stroke-linejoin:miter;"/>
    </g>
    <g id="line2d_29">
     <path d="M 55.965625 35.416562 
L 75.965625 35.416562 
" style="fill:none;stroke:#1f77b4;stroke-linecap:square;stroke-width:1.5;"/>
    </g>
    <g id="line2d_30"/>
    <g id="text_17">
     <!-- Predicted -->
     <defs>
      <path d="M 45.40625 46.390625 
L 45.40625 75.984375 
L 54.390625 75.984375 
L 54.390625 0 
L 45.40625 0 
L 45.40625 8.203125 
Q 42.578125 3.328125 38.25 0.953125 
Q 33.9375 -1.421875 27.875 -1.421875 
Q 17.96875 -1.421875 11.734375 6.484375 
Q 5.515625 14.40625 5.515625 27.296875 
Q 5.515625 40.1875 11.734375 48.09375 
Q 17.96875 56 27.875 56 
Q 33.9375 56 38.25 53.625 
Q 42.578125 51.265625 45.40625 46.390625 
z
M 14.796875 27.296875 
Q 14.796875 17.390625 18.875 11.75 
Q 22.953125 6.109375 30.078125 6.109375 
Q 37.203125 6.109375 41.296875 11.75 
Q 45.40625 17.390625 45.40625 27.296875 
Q 45.40625 37.203125 41.296875 42.84375 
Q 37.203125 48.484375 30.078125 48.484375 
Q 22.953125 48.484375 18.875 42.84375 
Q 14.796875 37.203125 14.796875 27.296875 
z
" id="DejaVuSans-100"/>
      <path d="M 18.3125 70.21875 
L 18.3125 54.6875 
L 36.8125 54.6875 
L 36.8125 47.703125 
L 18.3125 47.703125 
L 18.3125 18.015625 
Q 18.3125 11.328125 20.140625 9.421875 
Q 21.96875 7.515625 27.59375 7.515625 
L 36.8125 7.515625 
L 36.8125 0 
L 27.59375 0 
Q 17.1875 0 13.234375 3.875 
Q 9.28125 7.765625 9.28125 18.015625 
L 9.28125 47.703125 
L 2.6875 47.703125 
L 2.6875 54.6875 
L 9.28125 54.6875 
L 9.28125 70.21875 
z
" id="DejaVuSans-116"/>
     </defs>
     <g transform="translate(83.965625 38.916562)scale(0.1 -0.1)">
      <use xlink:href="#DejaVuSans-80"/>
      <use x="58.552734" xlink:href="#DejaVuSans-114"/>
      <use x="97.416016" xlink:href="#DejaVuSans-101"/>
      <use x="158.939453" xlink:href="#DejaVuSans-100"/>
      <use x="222.416016" xlink:href="#DejaVuSans-105"/>
      <use x="250.199219" xlink:href="#DejaVuSans-99"/>
      <use x="305.179688" xlink:href="#DejaVuSans-116"/>
      <use x="344.388672" xlink:href="#DejaVuSans-101"/>
      <use x="405.912109" xlink:href="#DejaVuSans-100"/>
     </g>
    </g>
    <g id="line2d_31">
     <path d="M 55.965625 50.094687 
L 75.965625 50.094687 
" style="fill:none;stroke:#ff7f0e;stroke-linecap:square;stroke-width:1.5;"/>
    </g>
    <g id="line2d_32"/>
    <g id="text_18">
     <!-- True value -->
     <defs>
      <path d="M 8.5 21.578125 
L 8.5 54.6875 
L 17.484375 54.6875 
L 17.484375 21.921875 
Q 17.484375 14.15625 20.5 10.265625 
Q 23.53125 6.390625 29.59375 6.390625 
Q 36.859375 6.390625 41.078125 11.03125 
Q 45.3125 15.671875 45.3125 23.6875 
L 45.3125 54.6875 
L 54.296875 54.6875 
L 54.296875 0 
L 45.3125 0 
L 45.3125 8.40625 
Q 42.046875 3.421875 37.71875 1 
Q 33.40625 -1.421875 27.6875 -1.421875 
Q 18.265625 -1.421875 13.375 4.4375 
Q 8.5 10.296875 8.5 21.578125 
z
M 31.109375 56 
z
" id="DejaVuSans-117"/>
      <path d="M 2.984375 54.6875 
L 12.5 54.6875 
L 29.59375 8.796875 
L 46.6875 54.6875 
L 56.203125 54.6875 
L 35.6875 0 
L 23.484375 0 
z
" id="DejaVuSans-118"/>
      <path d="M 9.421875 75.984375 
L 18.40625 75.984375 
L 18.40625 0 
L 9.421875 0 
z
" id="DejaVuSans-108"/>
     </defs>
     <g transform="translate(83.965625 53.594687)scale(0.1 -0.1)">
      <use xlink:href="#DejaVuSans-84"/>
      <use x="46.333984" xlink:href="#DejaVuSans-114"/>
      <use x="87.447266" xlink:href="#DejaVuSans-117"/>
      <use x="150.826172" xlink:href="#DejaVuSans-101"/>
      <use x="212.349609" xlink:href="#DejaVuSans-32"/>
      <use x="244.136719" xlink:href="#DejaVuSans-118"/>
      <use x="303.316406" xlink:href="#DejaVuSans-97"/>
      <use x="364.595703" xlink:href="#DejaVuSans-108"/>
      <use x="392.378906" xlink:href="#DejaVuSans-117"/>
      <use x="455.757812" xlink:href="#DejaVuSans-101"/>
     </g>
    </g>
   </g>
  </g>
 </g>
 <defs>
  <clipPath id="pec8b50a61f">
   <rect height="266.112" width="357.12" x="46.965625" y="22.318125"/>
  </clipPath>
 </defs>
</svg>
