<?xml version="1.0" encoding="utf-8" standalone="no"?>
<!DOCTYPE svg PUBLIC "-//W3C//DTD SVG 1.1//EN"
  "http://www.w3.org/Graphics/SVG/1.1/DTD/svg11.dtd">
<!-- Created with matplotlib (https://matplotlib.org/) -->
<svg height="325.986375pt" version="1.1" viewBox="0 0 404.923125 325.986375" width="404.923125pt" xmlns="http://www.w3.org/2000/svg" xmlns:xlink="http://www.w3.org/1999/xlink">
 <defs>
  <style type="text/css">
*{stroke-linecap:butt;stroke-linejoin:round;}
  </style>
 </defs>
 <g id="figure_1">
  <g id="patch_1">
   <path d="M 0 325.986375 
L 404.923125 325.986375 
L 404.923125 0 
L 0 0 
z
" style="fill:#ffffff;"/>
  </g>
  <g id="axes_1">
   <g id="patch_2">
    <path d="M 40.603125 288.430125 
L 397.723125 288.430125 
L 397.723125 22.318125 
L 40.603125 22.318125 
z
" style="fill:#ffffff;"/>
   </g>
   <g id="matplotlib.axis_1">
    <g id="xtick_1">
     <g id="line2d_1">
      <path clip-path="url(#ped4f37b174)" d="M 56.835852 288.430125 
L 56.835852 22.318125 
" style="fill:none;stroke:#b0b0b0;stroke-dasharray:2.96,1.28;stroke-dashoffset:0;stroke-width:0.8;"/>
     </g>
     <g id="line2d_2">
      <defs>
       <path d="M 0 0 
L 0 3.5 
" id="m1b981ac5c3" style="stroke:#000000;stroke-width:0.8;"/>
      </defs>
      <g>
       <use style="stroke:#000000;stroke-width:0.8;" x="56.835852" xlink:href="#m1b981ac5c3" y="288.430125"/>
      </g>
     </g>
     <g id="text_1">
      <!-- 0 -->
      <defs>
       <path d="M 31.78125 66.40625 
Q 24.171875 66.40625 20.328125 58.90625 
Q 16.5 51.421875 16.5 36.375 
Q 16.5 21.390625 20.328125 13.890625 
Q 24.171875 6.390625 31.78125 6.390625 
Q 39.453125 6.390625 43.28125 13.890625 
Q 47.125 21.390625 47.125 36.375 
Q 47.125 51.421875 43.28125 58.90625 
Q 39.453125 66.40625 31.78125 66.40625 
z
M 31.78125 74.21875 
Q 44.046875 74.21875 50.515625 64.515625 
Q 56.984375 54.828125 56.984375 36.375 
Q 56.984375 17.96875 50.515625 8.265625 
Q 44.046875 -1.421875 31.78125 -1.421875 
Q 19.53125 -1.421875 13.0625 8.265625 
Q 6.59375 17.96875 6.59375 36.375 
Q 6.59375 54.828125 13.0625 64.515625 
Q 19.53125 74.21875 31.78125 74.21875 
z
" id="DejaVuSans-48"/>
      </defs>
      <g transform="translate(53.654602 303.028562)scale(0.1 -0.1)">
       <use xlink:href="#DejaVuSans-48"/>
      </g>
     </g>
    </g>
    <g id="xtick_2">
     <g id="line2d_3">
      <path clip-path="url(#ped4f37b174)" d="M 105.766454 288.430125 
L 105.766454 22.318125 
" style="fill:none;stroke:#b0b0b0;stroke-dasharray:2.96,1.28;stroke-dashoffset:0;stroke-width:0.8;"/>
     </g>
     <g id="line2d_4">
      <g>
       <use style="stroke:#000000;stroke-width:0.8;" x="105.766454" xlink:href="#m1b981ac5c3" y="288.430125"/>
      </g>
     </g>
     <g id="text_2">
      <!-- 200 -->
      <defs>
       <path d="M 19.1875 8.296875 
L 53.609375 8.296875 
L 53.609375 0 
L 7.328125 0 
L 7.328125 8.296875 
Q 12.9375 14.109375 22.625 23.890625 
Q 32.328125 33.6875 34.8125 36.53125 
Q 39.546875 41.84375 41.421875 45.53125 
Q 43.3125 49.21875 43.3125 52.78125 
Q 43.3125 58.59375 39.234375 62.25 
Q 35.15625 65.921875 28.609375 65.921875 
Q 23.96875 65.921875 18.8125 64.3125 
Q 13.671875 62.703125 7.8125 59.421875 
L 7.8125 69.390625 
Q 13.765625 71.78125 18.9375 73 
Q 24.125 74.21875 28.421875 74.21875 
Q 39.75 74.21875 46.484375 68.546875 
Q 53.21875 62.890625 53.21875 53.421875 
Q 53.21875 48.921875 51.53125 44.890625 
Q 49.859375 40.875 45.40625 35.40625 
Q 44.1875 33.984375 37.640625 27.21875 
Q 31.109375 20.453125 19.1875 8.296875 
z
" id="DejaVuSans-50"/>
      </defs>
      <g transform="translate(96.222704 303.028562)scale(0.1 -0.1)">
       <use xlink:href="#DejaVuSans-50"/>
       <use x="63.623047" xlink:href="#DejaVuSans-48"/>
       <use x="127.246094" xlink:href="#DejaVuSans-48"/>
      </g>
     </g>
    </g>
    <g id="xtick_3">
     <g id="line2d_5">
      <path clip-path="url(#ped4f37b174)" d="M 154.697057 288.430125 
L 154.697057 22.318125 
" style="fill:none;stroke:#b0b0b0;stroke-dasharray:2.96,1.28;stroke-dashoffset:0;stroke-width:0.8;"/>
     </g>
     <g id="line2d_6">
      <g>
       <use style="stroke:#000000;stroke-width:0.8;" x="154.697057" xlink:href="#m1b981ac5c3" y="288.430125"/>
      </g>
     </g>
     <g id="text_3">
      <!-- 400 -->
      <defs>
       <path d="M 37.796875 64.3125 
L 12.890625 25.390625 
L 37.796875 25.390625 
z
M 35.203125 72.90625 
L 47.609375 72.90625 
L 47.609375 25.390625 
L 58.015625 25.390625 
L 58.015625 17.1875 
L 47.609375 17.1875 
L 47.609375 0 
L 37.796875 0 
L 37.796875 17.1875 
L 4.890625 17.1875 
L 4.890625 26.703125 
z
" id="DejaVuSans-52"/>
      </defs>
      <g transform="translate(145.153307 303.028562)scale(0.1 -0.1)">
       <use xlink:href="#DejaVuSans-52"/>
       <use x="63.623047" xlink:href="#DejaVuSans-48"/>
       <use x="127.246094" xlink:href="#DejaVuSans-48"/>
      </g>
     </g>
    </g>
    <g id="xtick_4">
     <g id="line2d_7">
      <path clip-path="url(#ped4f37b174)" d="M 203.627659 288.430125 
L 203.627659 22.318125 
" style="fill:none;stroke:#b0b0b0;stroke-dasharray:2.96,1.28;stroke-dashoffset:0;stroke-width:0.8;"/>
     </g>
     <g id="line2d_8">
      <g>
       <use style="stroke:#000000;stroke-width:0.8;" x="203.627659" xlink:href="#m1b981ac5c3" y="288.430125"/>
      </g>
     </g>
     <g id="text_4">
      <!-- 600 -->
      <defs>
       <path d="M 33.015625 40.375 
Q 26.375 40.375 22.484375 35.828125 
Q 18.609375 31.296875 18.609375 23.390625 
Q 18.609375 15.53125 22.484375 10.953125 
Q 26.375 6.390625 33.015625 6.390625 
Q 39.65625 6.390625 43.53125 10.953125 
Q 47.40625 15.53125 47.40625 23.390625 
Q 47.40625 31.296875 43.53125 35.828125 
Q 39.65625 40.375 33.015625 40.375 
z
M 52.59375 71.296875 
L 52.59375 62.3125 
Q 48.875 64.0625 45.09375 64.984375 
Q 41.3125 65.921875 37.59375 65.921875 
Q 27.828125 65.921875 22.671875 59.328125 
Q 17.53125 52.734375 16.796875 39.40625 
Q 19.671875 43.65625 24.015625 45.921875 
Q 28.375 48.1875 33.59375 48.1875 
Q 44.578125 48.1875 50.953125 41.515625 
Q 57.328125 34.859375 57.328125 23.390625 
Q 57.328125 12.15625 50.6875 5.359375 
Q 44.046875 -1.421875 33.015625 -1.421875 
Q 20.359375 -1.421875 13.671875 8.265625 
Q 6.984375 17.96875 6.984375 36.375 
Q 6.984375 53.65625 15.1875 63.9375 
Q 23.390625 74.21875 37.203125 74.21875 
Q 40.921875 74.21875 44.703125 73.484375 
Q 48.484375 72.75 52.59375 71.296875 
z
" id="DejaVuSans-54"/>
      </defs>
      <g transform="translate(194.083909 303.028562)scale(0.1 -0.1)">
       <use xlink:href="#DejaVuSans-54"/>
       <use x="63.623047" xlink:href="#DejaVuSans-48"/>
       <use x="127.246094" xlink:href="#DejaVuSans-48"/>
      </g>
     </g>
    </g>
    <g id="xtick_5">
     <g id="line2d_9">
      <path clip-path="url(#ped4f37b174)" d="M 252.558261 288.430125 
L 252.558261 22.318125 
" style="fill:none;stroke:#b0b0b0;stroke-dasharray:2.96,1.28;stroke-dashoffset:0;stroke-width:0.8;"/>
     </g>
     <g id="line2d_10">
      <g>
       <use style="stroke:#000000;stroke-width:0.8;" x="252.558261" xlink:href="#m1b981ac5c3" y="288.430125"/>
      </g>
     </g>
     <g id="text_5">
      <!-- 800 -->
      <defs>
       <path d="M 31.78125 34.625 
Q 24.75 34.625 20.71875 30.859375 
Q 16.703125 27.09375 16.703125 20.515625 
Q 16.703125 13.921875 20.71875 10.15625 
Q 24.75 6.390625 31.78125 6.390625 
Q 38.8125 6.390625 42.859375 10.171875 
Q 46.921875 13.96875 46.921875 20.515625 
Q 46.921875 27.09375 42.890625 30.859375 
Q 38.875 34.625 31.78125 34.625 
z
M 21.921875 38.8125 
Q 15.578125 40.375 12.03125 44.71875 
Q 8.5 49.078125 8.5 55.328125 
Q 8.5 64.0625 14.71875 69.140625 
Q 20.953125 74.21875 31.78125 74.21875 
Q 42.671875 74.21875 48.875 69.140625 
Q 55.078125 64.0625 55.078125 55.328125 
Q 55.078125 49.078125 51.53125 44.71875 
Q 48 40.375 41.703125 38.8125 
Q 48.828125 37.15625 52.796875 32.3125 
Q 56.78125 27.484375 56.78125 20.515625 
Q 56.78125 9.90625 50.3125 4.234375 
Q 43.84375 -1.421875 31.78125 -1.421875 
Q 19.734375 -1.421875 13.25 4.234375 
Q 6.78125 9.90625 6.78125 20.515625 
Q 6.78125 27.484375 10.78125 32.3125 
Q 14.796875 37.15625 21.921875 38.8125 
z
M 18.3125 54.390625 
Q 18.3125 48.734375 21.84375 45.5625 
Q 25.390625 42.390625 31.78125 42.390625 
Q 38.140625 42.390625 41.71875 45.5625 
Q 45.3125 48.734375 45.3125 54.390625 
Q 45.3125 60.0625 41.71875 63.234375 
Q 38.140625 66.40625 31.78125 66.40625 
Q 25.390625 66.40625 21.84375 63.234375 
Q 18.3125 60.0625 18.3125 54.390625 
z
" id="DejaVuSans-56"/>
      </defs>
      <g transform="translate(243.014511 303.028562)scale(0.1 -0.1)">
       <use xlink:href="#DejaVuSans-56"/>
       <use x="63.623047" xlink:href="#DejaVuSans-48"/>
       <use x="127.246094" xlink:href="#DejaVuSans-48"/>
      </g>
     </g>
    </g>
    <g id="xtick_6">
     <g id="line2d_11">
      <path clip-path="url(#ped4f37b174)" d="M 301.488863 288.430125 
L 301.488863 22.318125 
" style="fill:none;stroke:#b0b0b0;stroke-dasharray:2.96,1.28;stroke-dashoffset:0;stroke-width:0.8;"/>
     </g>
     <g id="line2d_12">
      <g>
       <use style="stroke:#000000;stroke-width:0.8;" x="301.488863" xlink:href="#m1b981ac5c3" y="288.430125"/>
      </g>
     </g>
     <g id="text_6">
      <!-- 1000 -->
      <defs>
       <path d="M 12.40625 8.296875 
L 28.515625 8.296875 
L 28.515625 63.921875 
L 10.984375 60.40625 
L 10.984375 69.390625 
L 28.421875 72.90625 
L 38.28125 72.90625 
L 38.28125 8.296875 
L 54.390625 8.296875 
L 54.390625 0 
L 12.40625 0 
z
" id="DejaVuSans-49"/>
      </defs>
      <g transform="translate(288.763863 303.028562)scale(0.1 -0.1)">
       <use xlink:href="#DejaVuSans-49"/>
       <use x="63.623047" xlink:href="#DejaVuSans-48"/>
       <use x="127.246094" xlink:href="#DejaVuSans-48"/>
       <use x="190.869141" xlink:href="#DejaVuSans-48"/>
      </g>
     </g>
    </g>
    <g id="xtick_7">
     <g id="line2d_13">
      <path clip-path="url(#ped4f37b174)" d="M 350.419465 288.430125 
L 350.419465 22.318125 
" style="fill:none;stroke:#b0b0b0;stroke-dasharray:2.96,1.28;stroke-dashoffset:0;stroke-width:0.8;"/>
     </g>
     <g id="line2d_14">
      <g>
       <use style="stroke:#000000;stroke-width:0.8;" x="350.419465" xlink:href="#m1b981ac5c3" y="288.430125"/>
      </g>
     </g>
     <g id="text_7">
      <!-- 1200 -->
      <g transform="translate(337.694465 303.028562)scale(0.1 -0.1)">
       <use xlink:href="#DejaVuSans-49"/>
       <use x="63.623047" xlink:href="#DejaVuSans-50"/>
       <use x="127.246094" xlink:href="#DejaVuSans-48"/>
       <use x="190.869141" xlink:href="#DejaVuSans-48"/>
      </g>
     </g>
    </g>
    <g id="text_8">
     <!-- Day -->
     <defs>
      <path d="M 19.671875 64.796875 
L 19.671875 8.109375 
L 31.59375 8.109375 
Q 46.6875 8.109375 53.6875 14.9375 
Q 60.6875 21.78125 60.6875 36.53125 
Q 60.6875 51.171875 53.6875 57.984375 
Q 46.6875 64.796875 31.59375 64.796875 
z
M 9.8125 72.90625 
L 30.078125 72.90625 
Q 51.265625 72.90625 61.171875 64.09375 
Q 71.09375 55.28125 71.09375 36.53125 
Q 71.09375 17.671875 61.125 8.828125 
Q 51.171875 0 30.078125 0 
L 9.8125 0 
z
" id="DejaVuSans-68"/>
      <path d="M 34.28125 27.484375 
Q 23.390625 27.484375 19.1875 25 
Q 14.984375 22.515625 14.984375 16.5 
Q 14.984375 11.71875 18.140625 8.90625 
Q 21.296875 6.109375 26.703125 6.109375 
Q 34.1875 6.109375 38.703125 11.40625 
Q 43.21875 16.703125 43.21875 25.484375 
L 43.21875 27.484375 
z
M 52.203125 31.203125 
L 52.203125 0 
L 43.21875 0 
L 43.21875 8.296875 
Q 40.140625 3.328125 35.546875 0.953125 
Q 30.953125 -1.421875 24.3125 -1.421875 
Q 15.921875 -1.421875 10.953125 3.296875 
Q 6 8.015625 6 15.921875 
Q 6 25.140625 12.171875 29.828125 
Q 18.359375 34.515625 30.609375 34.515625 
L 43.21875 34.515625 
L 43.21875 35.40625 
Q 43.21875 41.609375 39.140625 45 
Q 35.0625 48.390625 27.6875 48.390625 
Q 23 48.390625 18.546875 47.265625 
Q 14.109375 46.140625 10.015625 43.890625 
L 10.015625 52.203125 
Q 14.9375 54.109375 19.578125 55.046875 
Q 24.21875 56 28.609375 56 
Q 40.484375 56 46.34375 49.84375 
Q 52.203125 43.703125 52.203125 31.203125 
z
" id="DejaVuSans-97"/>
      <path d="M 32.171875 -5.078125 
Q 28.375 -14.84375 24.75 -17.8125 
Q 21.140625 -20.796875 15.09375 -20.796875 
L 7.90625 -20.796875 
L 7.90625 -13.28125 
L 13.1875 -13.28125 
Q 16.890625 -13.28125 18.9375 -11.515625 
Q 21 -9.765625 23.484375 -3.21875 
L 25.09375 0.875 
L 2.984375 54.6875 
L 12.5 54.6875 
L 29.59375 11.921875 
L 46.6875 54.6875 
L 56.203125 54.6875 
z
" id="DejaVuSans-121"/>
     </defs>
     <g transform="translate(209.289688 316.706687)scale(0.1 -0.1)">
      <use xlink:href="#DejaVuSans-68"/>
      <use x="77.001953" xlink:href="#DejaVuSans-97"/>
      <use x="138.28125" xlink:href="#DejaVuSans-121"/>
     </g>
    </g>
   </g>
   <g id="matplotlib.axis_2">
    <g id="ytick_1">
     <g id="line2d_15">
      <path clip-path="url(#ped4f37b174)" d="M 40.603125 286.10654 
L 397.723125 286.10654 
" style="fill:none;stroke:#b0b0b0;stroke-dasharray:2.96,1.28;stroke-dashoffset:0;stroke-width:0.8;"/>
     </g>
     <g id="line2d_16">
      <defs>
       <path d="M 0 0 
L -3.5 0 
" id="m6ea8650fa0" style="stroke:#000000;stroke-width:0.8;"/>
      </defs>
      <g>
       <use style="stroke:#000000;stroke-width:0.8;" x="40.603125" xlink:href="#m6ea8650fa0" y="286.10654"/>
      </g>
     </g>
     <g id="text_9">
      <!-- 55 -->
      <defs>
       <path d="M 10.796875 72.90625 
L 49.515625 72.90625 
L 49.515625 64.59375 
L 19.828125 64.59375 
L 19.828125 46.734375 
Q 21.96875 47.46875 24.109375 47.828125 
Q 26.265625 48.1875 28.421875 48.1875 
Q 40.625 48.1875 47.75 41.5 
Q 54.890625 34.8125 54.890625 23.390625 
Q 54.890625 11.625 47.5625 5.09375 
Q 40.234375 -1.421875 26.90625 -1.421875 
Q 22.3125 -1.421875 17.546875 -0.640625 
Q 12.796875 0.140625 7.71875 1.703125 
L 7.71875 11.625 
Q 12.109375 9.234375 16.796875 8.0625 
Q 21.484375 6.890625 26.703125 6.890625 
Q 35.15625 6.890625 40.078125 11.328125 
Q 45.015625 15.765625 45.015625 23.390625 
Q 45.015625 31 40.078125 35.4375 
Q 35.15625 39.890625 26.703125 39.890625 
Q 22.75 39.890625 18.8125 39.015625 
Q 14.890625 38.140625 10.796875 36.28125 
z
" id="DejaVuSans-53"/>
      </defs>
      <g transform="translate(20.878125 289.905759)scale(0.1 -0.1)">
       <use xlink:href="#DejaVuSans-53"/>
       <use x="63.623047" xlink:href="#DejaVuSans-53"/>
      </g>
     </g>
    </g>
    <g id="ytick_2">
     <g id="line2d_17">
      <path clip-path="url(#ped4f37b174)" d="M 40.603125 250.953968 
L 397.723125 250.953968 
" style="fill:none;stroke:#b0b0b0;stroke-dasharray:2.96,1.28;stroke-dashoffset:0;stroke-width:0.8;"/>
     </g>
     <g id="line2d_18">
      <g>
       <use style="stroke:#000000;stroke-width:0.8;" x="40.603125" xlink:href="#m6ea8650fa0" y="250.953968"/>
      </g>
     </g>
     <g id="text_10">
      <!-- 60 -->
      <g transform="translate(20.878125 254.753187)scale(0.1 -0.1)">
       <use xlink:href="#DejaVuSans-54"/>
       <use x="63.623047" xlink:href="#DejaVuSans-48"/>
      </g>
     </g>
    </g>
    <g id="ytick_3">
     <g id="line2d_19">
      <path clip-path="url(#ped4f37b174)" d="M 40.603125 215.801396 
L 397.723125 215.801396 
" style="fill:none;stroke:#b0b0b0;stroke-dasharray:2.96,1.28;stroke-dashoffset:0;stroke-width:0.8;"/>
     </g>
     <g id="line2d_20">
      <g>
       <use style="stroke:#000000;stroke-width:0.8;" x="40.603125" xlink:href="#m6ea8650fa0" y="215.801396"/>
      </g>
     </g>
     <g id="text_11">
      <!-- 65 -->
      <g transform="translate(20.878125 219.600615)scale(0.1 -0.1)">
       <use xlink:href="#DejaVuSans-54"/>
       <use x="63.623047" xlink:href="#DejaVuSans-53"/>
      </g>
     </g>
    </g>
    <g id="ytick_4">
     <g id="line2d_21">
      <path clip-path="url(#ped4f37b174)" d="M 40.603125 180.648824 
L 397.723125 180.648824 
" style="fill:none;stroke:#b0b0b0;stroke-dasharray:2.96,1.28;stroke-dashoffset:0;stroke-width:0.8;"/>
     </g>
     <g id="line2d_22">
      <g>
       <use style="stroke:#000000;stroke-width:0.8;" x="40.603125" xlink:href="#m6ea8650fa0" y="180.648824"/>
      </g>
     </g>
     <g id="text_12">
      <!-- 70 -->
      <defs>
       <path d="M 8.203125 72.90625 
L 55.078125 72.90625 
L 55.078125 68.703125 
L 28.609375 0 
L 18.3125 0 
L 43.21875 64.59375 
L 8.203125 64.59375 
z
" id="DejaVuSans-55"/>
      </defs>
      <g transform="translate(20.878125 184.448043)scale(0.1 -0.1)">
       <use xlink:href="#DejaVuSans-55"/>
       <use x="63.623047" xlink:href="#DejaVuSans-48"/>
      </g>
     </g>
    </g>
    <g id="ytick_5">
     <g id="line2d_23">
      <path clip-path="url(#ped4f37b174)" d="M 40.603125 145.496252 
L 397.723125 145.496252 
" style="fill:none;stroke:#b0b0b0;stroke-dasharray:2.96,1.28;stroke-dashoffset:0;stroke-width:0.8;"/>
     </g>
     <g id="line2d_24">
      <g>
       <use style="stroke:#000000;stroke-width:0.8;" x="40.603125" xlink:href="#m6ea8650fa0" y="145.496252"/>
      </g>
     </g>
     <g id="text_13">
      <!-- 75 -->
      <g transform="translate(20.878125 149.295471)scale(0.1 -0.1)">
       <use xlink:href="#DejaVuSans-55"/>
       <use x="63.623047" xlink:href="#DejaVuSans-53"/>
      </g>
     </g>
    </g>
    <g id="ytick_6">
     <g id="line2d_25">
      <path clip-path="url(#ped4f37b174)" d="M 40.603125 110.34368 
L 397.723125 110.34368 
" style="fill:none;stroke:#b0b0b0;stroke-dasharray:2.96,1.28;stroke-dashoffset:0;stroke-width:0.8;"/>
     </g>
     <g id="line2d_26">
      <g>
       <use style="stroke:#000000;stroke-width:0.8;" x="40.603125" xlink:href="#m6ea8650fa0" y="110.34368"/>
      </g>
     </g>
     <g id="text_14">
      <!-- 80 -->
      <g transform="translate(20.878125 114.142899)scale(0.1 -0.1)">
       <use xlink:href="#DejaVuSans-56"/>
       <use x="63.623047" xlink:href="#DejaVuSans-48"/>
      </g>
     </g>
    </g>
    <g id="ytick_7">
     <g id="line2d_27">
      <path clip-path="url(#ped4f37b174)" d="M 40.603125 75.191108 
L 397.723125 75.191108 
" style="fill:none;stroke:#b0b0b0;stroke-dasharray:2.96,1.28;stroke-dashoffset:0;stroke-width:0.8;"/>
     </g>
     <g id="line2d_28">
      <g>
       <use style="stroke:#000000;stroke-width:0.8;" x="40.603125" xlink:href="#m6ea8650fa0" y="75.191108"/>
      </g>
     </g>
     <g id="text_15">
      <!-- 85 -->
      <g transform="translate(20.878125 78.990327)scale(0.1 -0.1)">
       <use xlink:href="#DejaVuSans-56"/>
       <use x="63.623047" xlink:href="#DejaVuSans-53"/>
      </g>
     </g>
    </g>
    <g id="ytick_8">
     <g id="line2d_29">
      <path clip-path="url(#ped4f37b174)" d="M 40.603125 40.038537 
L 397.723125 40.038537 
" style="fill:none;stroke:#b0b0b0;stroke-dasharray:2.96,1.28;stroke-dashoffset:0;stroke-width:0.8;"/>
     </g>
     <g id="line2d_30">
      <g>
       <use style="stroke:#000000;stroke-width:0.8;" x="40.603125" xlink:href="#m6ea8650fa0" y="40.038537"/>
      </g>
     </g>
     <g id="text_16">
      <!-- 90 -->
      <defs>
       <path d="M 10.984375 1.515625 
L 10.984375 10.5 
Q 14.703125 8.734375 18.5 7.8125 
Q 22.3125 6.890625 25.984375 6.890625 
Q 35.75 6.890625 40.890625 13.453125 
Q 46.046875 20.015625 46.78125 33.40625 
Q 43.953125 29.203125 39.59375 26.953125 
Q 35.25 24.703125 29.984375 24.703125 
Q 19.046875 24.703125 12.671875 31.3125 
Q 6.296875 37.9375 6.296875 49.421875 
Q 6.296875 60.640625 12.9375 67.421875 
Q 19.578125 74.21875 30.609375 74.21875 
Q 43.265625 74.21875 49.921875 64.515625 
Q 56.59375 54.828125 56.59375 36.375 
Q 56.59375 19.140625 48.40625 8.859375 
Q 40.234375 -1.421875 26.421875 -1.421875 
Q 22.703125 -1.421875 18.890625 -0.6875 
Q 15.09375 0.046875 10.984375 1.515625 
z
M 30.609375 32.421875 
Q 37.25 32.421875 41.125 36.953125 
Q 45.015625 41.5 45.015625 49.421875 
Q 45.015625 57.28125 41.125 61.84375 
Q 37.25 66.40625 30.609375 66.40625 
Q 23.96875 66.40625 20.09375 61.84375 
Q 16.21875 57.28125 16.21875 49.421875 
Q 16.21875 41.5 20.09375 36.953125 
Q 23.96875 32.421875 30.609375 32.421875 
z
" id="DejaVuSans-57"/>
      </defs>
      <g transform="translate(20.878125 43.837755)scale(0.1 -0.1)">
       <use xlink:href="#DejaVuSans-57"/>
       <use x="63.623047" xlink:href="#DejaVuSans-48"/>
      </g>
     </g>
    </g>
    <g id="text_17">
     <!-- Price $ -->
     <defs>
      <path d="M 19.671875 64.796875 
L 19.671875 37.40625 
L 32.078125 37.40625 
Q 38.96875 37.40625 42.71875 40.96875 
Q 46.484375 44.53125 46.484375 51.125 
Q 46.484375 57.671875 42.71875 61.234375 
Q 38.96875 64.796875 32.078125 64.796875 
z
M 9.8125 72.90625 
L 32.078125 72.90625 
Q 44.34375 72.90625 50.609375 67.359375 
Q 56.890625 61.8125 56.890625 51.125 
Q 56.890625 40.328125 50.609375 34.8125 
Q 44.34375 29.296875 32.078125 29.296875 
L 19.671875 29.296875 
L 19.671875 0 
L 9.8125 0 
z
" id="DejaVuSans-80"/>
      <path d="M 41.109375 46.296875 
Q 39.59375 47.171875 37.8125 47.578125 
Q 36.03125 48 33.890625 48 
Q 26.265625 48 22.1875 43.046875 
Q 18.109375 38.09375 18.109375 28.8125 
L 18.109375 0 
L 9.078125 0 
L 9.078125 54.6875 
L 18.109375 54.6875 
L 18.109375 46.1875 
Q 20.953125 51.171875 25.484375 53.578125 
Q 30.03125 56 36.53125 56 
Q 37.453125 56 38.578125 55.875 
Q 39.703125 55.765625 41.0625 55.515625 
z
" id="DejaVuSans-114"/>
      <path d="M 9.421875 54.6875 
L 18.40625 54.6875 
L 18.40625 0 
L 9.421875 0 
z
M 9.421875 75.984375 
L 18.40625 75.984375 
L 18.40625 64.59375 
L 9.421875 64.59375 
z
" id="DejaVuSans-105"/>
      <path d="M 48.78125 52.59375 
L 48.78125 44.1875 
Q 44.96875 46.296875 41.140625 47.34375 
Q 37.3125 48.390625 33.40625 48.390625 
Q 24.65625 48.390625 19.8125 42.84375 
Q 14.984375 37.3125 14.984375 27.296875 
Q 14.984375 17.28125 19.8125 11.734375 
Q 24.65625 6.203125 33.40625 6.203125 
Q 37.3125 6.203125 41.140625 7.25 
Q 44.96875 8.296875 48.78125 10.40625 
L 48.78125 2.09375 
Q 45.015625 0.34375 40.984375 -0.53125 
Q 36.96875 -1.421875 32.421875 -1.421875 
Q 20.0625 -1.421875 12.78125 6.34375 
Q 5.515625 14.109375 5.515625 27.296875 
Q 5.515625 40.671875 12.859375 48.328125 
Q 20.21875 56 33.015625 56 
Q 37.15625 56 41.109375 55.140625 
Q 45.0625 54.296875 48.78125 52.59375 
z
" id="DejaVuSans-99"/>
      <path d="M 56.203125 29.59375 
L 56.203125 25.203125 
L 14.890625 25.203125 
Q 15.484375 15.921875 20.484375 11.0625 
Q 25.484375 6.203125 34.421875 6.203125 
Q 39.59375 6.203125 44.453125 7.46875 
Q 49.3125 8.734375 54.109375 11.28125 
L 54.109375 2.78125 
Q 49.265625 0.734375 44.1875 -0.34375 
Q 39.109375 -1.421875 33.890625 -1.421875 
Q 20.796875 -1.421875 13.15625 6.1875 
Q 5.515625 13.8125 5.515625 26.8125 
Q 5.515625 40.234375 12.765625 48.109375 
Q 20.015625 56 32.328125 56 
Q 43.359375 56 49.78125 48.890625 
Q 56.203125 41.796875 56.203125 29.59375 
z
M 47.21875 32.234375 
Q 47.125 39.59375 43.09375 43.984375 
Q 39.0625 48.390625 32.421875 48.390625 
Q 24.90625 48.390625 20.390625 44.140625 
Q 15.875 39.890625 15.1875 32.171875 
z
" id="DejaVuSans-101"/>
      <path id="DejaVuSans-32"/>
      <path d="M 33.796875 -14.703125 
L 28.90625 -14.703125 
L 28.859375 0 
Q 23.734375 0.09375 18.609375 1.1875 
Q 13.484375 2.296875 8.296875 4.5 
L 8.296875 13.28125 
Q 13.28125 10.15625 18.375 8.5625 
Q 23.484375 6.984375 28.90625 6.9375 
L 28.90625 29.203125 
Q 18.109375 30.953125 13.203125 35.15625 
Q 8.296875 39.359375 8.296875 46.6875 
Q 8.296875 54.640625 13.625 59.21875 
Q 18.953125 63.8125 28.90625 64.5 
L 28.90625 75.984375 
L 33.796875 75.984375 
L 33.796875 64.65625 
Q 38.328125 64.453125 42.578125 63.6875 
Q 46.828125 62.9375 50.875 61.625 
L 50.875 53.078125 
Q 46.828125 55.125 42.546875 56.25 
Q 38.28125 57.375 33.796875 57.5625 
L 33.796875 36.71875 
Q 44.875 35.015625 50.09375 30.609375 
Q 55.328125 26.21875 55.328125 18.609375 
Q 55.328125 10.359375 49.78125 5.59375 
Q 44.234375 0.828125 33.796875 0.09375 
z
M 28.90625 37.59375 
L 28.90625 57.625 
Q 23.25 56.984375 20.265625 54.390625 
Q 17.28125 51.8125 17.28125 47.515625 
Q 17.28125 43.3125 20.03125 40.96875 
Q 22.796875 38.625 28.90625 37.59375 
z
M 33.796875 28.21875 
L 33.796875 7.078125 
Q 39.984375 7.90625 43.140625 10.59375 
Q 46.296875 13.28125 46.296875 17.671875 
Q 46.296875 21.96875 43.28125 24.5 
Q 40.28125 27.046875 33.796875 28.21875 
z
" id="DejaVuSans-36"/>
     </defs>
     <g transform="translate(14.798438 172.342094)rotate(-90)scale(0.1 -0.1)">
      <use xlink:href="#DejaVuSans-80"/>
      <use x="58.552734" xlink:href="#DejaVuSans-114"/>
      <use x="99.666016" xlink:href="#DejaVuSans-105"/>
      <use x="127.449219" xlink:href="#DejaVuSans-99"/>
      <use x="182.429688" xlink:href="#DejaVuSans-101"/>
      <use x="243.953125" xlink:href="#DejaVuSans-32"/>
      <use x="275.740234" xlink:href="#DejaVuSans-36"/>
     </g>
    </g>
   </g>
   <g id="line2d_31">
    <path clip-path="url(#ped4f37b174)" d="M 56.835852 162.942465 
L 57.080505 148.094075 
L 57.325158 143.916596 
L 57.569811 146.903246 
L 57.814464 152.871984 
L 58.059117 151.024029 
L 58.30377 147.599367 
L 58.793076 152.236689 
L 59.037729 150.741568 
L 59.282382 153.507977 
L 59.527035 154.783395 
L 59.771688 156.930869 
L 60.260994 149.469797 
L 60.505647 165.979695 
L 60.7503 166.393838 
L 60.994953 164.58064 
L 61.239606 170.330963 
L 61.484259 168.133069 
L 61.728912 169.647018 
L 62.218219 162.79233 
L 62.462872 163.429235 
L 62.707525 161.06372 
L 62.952178 164.595552 
L 63.196831 162.193724 
L 63.441484 155.832994 
L 63.686137 155.526933 
L 63.93079 146.832067 
L 64.175443 153.591117 
L 64.420096 155.394499 
L 64.664749 151.946129 
L 64.909402 151.999339 
L 65.154055 144.486989 
L 65.643361 152.193242 
L 65.888014 152.818882 
L 66.37732 147.303443 
L 66.621973 149.340421 
L 66.866626 147.296416 
L 67.111279 150.36996 
L 67.355932 150.609402 
L 67.845238 154.096553 
L 68.089891 151.825979 
L 68.334544 153.930327 
L 69.068503 144.028326 
L 69.313156 143.35661 
L 69.557809 150.979509 
L 69.802462 140.930645 
L 70.047115 144.641039 
L 70.291768 139.124312 
L 70.536421 130.188878 
L 70.781074 131.558485 
L 71.025727 131.039103 
L 71.27038 134.168538 
L 71.515033 140.415339 
L 71.759686 140.797246 
L 72.004339 146.711917 
L 72.248992 146.340255 
L 72.493645 142.936405 
L 72.738298 144.682984 
L 72.982951 145.267591 
L 73.227604 155.693534 
L 73.472257 160.186998 
L 73.71691 157.723057 
L 73.961563 153.113143 
L 74.450869 161.495028 
L 74.695522 163.574971 
L 74.940175 162.717987 
L 75.429481 170.658534 
L 75.674134 189.398079 
L 75.918787 193.512801 
L 76.16344 187.046028 
L 76.652746 187.936053 
L 76.897399 179.238881 
L 77.386705 183.365779 
L 77.631358 176.385738 
L 77.876011 174.428628 
L 78.120664 166.051088 
L 78.365317 170.298243 
L 78.60997 165.09895 
L 78.854623 168.836217 
L 79.099276 169.356243 
L 79.343929 164.355036 
L 79.588582 165.600095 
L 79.833235 173.656447 
L 80.077888 187.495787 
L 80.322541 186.606996 
L 80.567194 189.150108 
L 80.811847 185.836371 
L 81.0565 184.204042 
L 81.301153 190.60779 
L 81.545806 187.65209 
L 81.790459 189.890642 
L 82.035112 190.376286 
L 82.279765 194.436672 
L 82.524418 193.257321 
L 82.769071 196.818546 
L 83.013724 193.054513 
L 83.258377 186.050764 
L 83.50303 188.990855 
L 83.747683 187.423858 
L 83.992336 191.554779 
L 84.236989 190.307843 
L 84.481643 190.704071 
L 84.726296 192.12957 
L 84.970949 190.392377 
L 85.215602 192.368422 
L 85.460255 187.745743 
L 85.704908 186.017562 
L 85.949561 188.54764 
L 86.438867 183.716843 
L 86.68352 184.246417 
L 86.928173 182.305934 
L 87.172826 187.307892 
L 87.417479 185.377815 
L 87.662132 181.274411 
L 87.906785 182.439977 
L 88.151438 180.715121 
L 88.396091 177.357723 
L 88.640744 183.374629 
L 88.885397 175.223015 
L 89.13005 171.845126 
L 89.374703 172.017038 
L 89.619356 170.512851 
L 89.864009 171.469871 
L 90.353315 170.946573 
L 90.597968 174.98325 
L 90.842621 186.494355 
L 91.087274 189.256956 
L 91.331927 185.972345 
L 91.57658 177.839826 
L 91.821233 178.21256 
L 92.065886 176.849122 
L 92.555192 169.23266 
L 92.799845 174.695211 
L 93.044498 168.581541 
L 93.289151 158.154311 
L 93.533804 154.801578 
L 93.778457 156.677426 
L 94.02311 157.402137 
L 94.267763 159.776019 
L 94.512416 160.215534 
L 94.757069 155.837715 
L 95.001722 155.094445 
L 95.246375 158.129101 
L 95.491028 162.855463 
L 95.735681 164.7879 
L 95.980334 163.312303 
L 96.224987 159.326796 
L 96.46964 158.519214 
L 96.714293 150.614391 
L 96.958946 146.466628 
L 97.203599 147.150144 
L 97.448252 147.243636 
L 97.692905 147.009933 
L 98.182211 138.694936 
L 98.426864 138.622845 
L 98.671517 137.14934 
L 98.91617 136.433641 
L 99.405476 123.849496 
L 99.650129 128.913084 
L 99.894782 125.814063 
L 100.139435 120.741839 
L 100.384088 120.844771 
L 100.628741 120.20379 
L 100.873394 121.134795 
L 101.118047 130.530985 
L 101.3627 122.16487 
L 101.607353 125.126148 
L 101.852006 116.754026 
L 102.096659 124.100525 
L 102.585965 116.86141 
L 103.075271 126.402478 
L 103.564577 121.106366 
L 103.80923 115.232085 
L 104.053883 118.606755 
L 104.298536 118.519325 
L 104.543189 122.978406 
L 104.787842 121.238961 
L 105.032495 118.137418 
L 105.277148 121.271198 
L 105.521801 119.097066 
L 105.766454 111.201683 
L 106.011107 121.518525 
L 106.500413 128.483815 
L 106.745066 128.489125 
L 106.98972 131.194011 
L 107.234373 136.19865 
L 107.479026 129.227514 
L 107.723679 128.698262 
L 107.968332 136.844405 
L 108.212985 140.656283 
L 108.457638 146.214955 
L 108.702291 140.619273 
L 108.946944 138.410651 
L 109.191597 143.498591 
L 109.43625 141.081423 
L 109.680903 135.327238 
L 110.170209 143.312894 
L 110.414862 146.220212 
L 110.659515 145.295751 
L 110.904168 146.055059 
L 111.148821 145.67857 
L 111.393474 140.203252 
L 111.88278 158.495559 
L 112.372086 150.574269 
L 112.616739 149.506111 
L 112.861392 144.990816 
L 113.106045 142.747276 
L 113.350698 148.376161 
L 113.595351 148.019679 
L 113.840004 146.580073 
L 114.084657 146.980271 
L 114.32931 144.330418 
L 114.573963 133.373829 
L 114.818616 131.11763 
L 115.063269 132.84211 
L 115.307922 126.879539 
L 115.552575 127.421664 
L 115.797228 131.577151 
L 116.041881 128.938295 
L 116.286534 130.123653 
L 116.531187 129.223115 
L 116.77584 123.963907 
L 117.020493 125.275746 
L 117.265146 120.751279 
L 117.509799 123.172739 
L 117.999105 125.112953 
L 118.243758 124.378158 
L 118.488411 125.295431 
L 118.733064 124.619585 
L 119.467023 118.632663 
L 119.711676 125.299079 
L 119.956329 128.848879 
L 120.200982 129.297244 
L 120.445635 131.983249 
L 120.690288 130.736635 
L 121.179594 135.146637 
L 121.424247 149.377003 
L 121.6689 151.473412 
L 122.158206 157.775998 
L 122.402859 155.306317 
L 122.647512 156.11347 
L 122.892165 156.475638 
L 123.626124 163.569017 
L 123.870777 163.081442 
L 124.11543 159.29869 
L 124.360083 161.461343 
L 124.604736 160.020396 
L 125.094042 161.99864 
L 125.583348 152.36982 
L 125.828001 152.071268 
L 126.072654 152.657752 
L 126.806613 144.119028 
L 127.051266 135.594573 
L 127.540572 139.146089 
L 127.785225 135.889102 
L 128.029878 139.712781 
L 128.274531 148.331426 
L 128.519184 147.866165 
L 129.00849 152.630289 
L 129.253143 155.481876 
L 129.497797 154.604671 
L 129.74245 158.375677 
L 129.987103 160.372748 
L 130.231756 167.422143 
L 130.476409 159.682849 
L 130.721062 159.065844 
L 130.965715 146.588977 
L 131.455021 147.900333 
L 131.699674 149.00754 
L 131.944327 141.348757 
L 132.18898 142.734134 
L 132.433633 139.722329 
L 132.678286 144.213218 
L 132.922939 136.196987 
L 133.167592 138.931321 
L 133.412245 135.649338 
L 133.656898 137.746552 
L 133.901551 130.403861 
L 134.146204 130.788396 
L 134.63551 132.978191 
L 135.124816 128.642371 
L 135.369469 128.348056 
L 135.614122 123.084718 
L 135.858775 127.799655 
L 136.103428 125.106355 
L 136.348081 117.091198 
L 136.592734 119.534274 
L 137.326693 115.760264 
L 137.571346 116.134393 
L 137.815999 116.126401 
L 138.060652 118.740101 
L 138.305305 118.570013 
L 138.794611 107.745911 
L 139.52857 103.375011 
L 139.773223 103.079731 
L 140.017876 102.251712 
L 140.507182 114.664267 
L 140.751835 110.639604 
L 140.996488 111.044415 
L 141.241141 117.10627 
L 141.485794 116.235072 
L 141.9751 123.825305 
L 142.219753 126.117335 
L 142.464406 129.495009 
L 142.709059 124.928061 
L 142.953712 129.345679 
L 143.198365 127.615621 
L 143.443018 124.969577 
L 143.687671 123.936552 
L 143.932324 121.212946 
L 144.176977 120.564885 
L 144.42163 119.580081 
L 144.666283 119.42823 
L 144.910936 117.532697 
L 145.155589 119.631949 
L 145.400242 122.986774 
L 145.644895 121.136618 
L 145.889548 125.764876 
L 146.134201 123.961333 
L 146.378854 124.224591 
L 146.623507 127.764468 
L 146.86816 124.685132 
L 147.112813 126.641223 
L 147.602119 136.955812 
L 148.825384 151.351224 
L 149.070037 146.900188 
L 149.31469 151.123045 
L 149.559343 146.529599 
L 149.803996 147.365074 
L 150.048649 160.883387 
L 150.293302 160.826477 
L 150.537955 159.811742 
L 150.782608 160.55646 
L 151.027261 154.472881 
L 151.271914 154.538696 
L 151.516567 146.841186 
L 151.76122 145.619675 
L 152.250527 140.001893 
L 152.739833 146.655328 
L 152.984486 156.06718 
L 153.229139 158.967418 
L 153.473792 157.169721 
L 153.718445 157.429707 
L 153.963098 147.246747 
L 154.207751 149.407684 
L 154.452404 147.945711 
L 154.697057 152.008243 
L 154.94171 144.584558 
L 155.186363 147.278126 
L 155.431016 146.837699 
L 155.920322 150.013263 
L 156.164975 146.801976 
L 156.409628 141.853443 
L 156.898934 150.186409 
L 157.143587 147.995327 
L 157.38824 147.142098 
L 157.632893 149.825207 
L 158.122199 137.132015 
L 158.366852 133.175205 
L 158.611505 132.685217 
L 158.856158 136.217263 
L 159.100811 137.00001 
L 159.345464 138.349825 
L 160.324076 128.241261 
L 160.568729 129.076092 
L 160.813382 129.154136 
L 161.058035 123.401507 
L 161.302688 125.117995 
L 161.547341 131.993547 
L 161.791994 134.652572 
L 162.036647 128.682117 
L 162.2813 132.597571 
L 162.770606 126.742868 
L 163.015259 127.339865 
L 163.259912 127.355796 
L 163.749218 122.401416 
L 163.993871 119.983765 
L 164.238524 111.63578 
L 164.483177 112.609373 
L 164.72783 112.42196 
L 164.972483 112.951373 
L 165.706442 124.494607 
L 165.951095 125.082486 
L 166.440401 115.877947 
L 166.685054 116.513618 
L 166.929707 116.263876 
L 167.17436 119.784444 
L 167.419013 132.422602 
L 167.663666 130.920508 
L 167.908319 134.125788 
L 168.152972 140.695118 
L 168.397625 141.15834 
L 168.642278 142.7469 
L 168.886931 141.224638 
L 169.131584 141.509029 
L 169.376237 141.439567 
L 169.62089 138.459409 
L 169.865543 132.758809 
L 170.110196 132.703239 
L 170.354849 133.334941 
L 170.599502 130.504004 
L 170.844155 129.072015 
L 171.088808 129.761432 
L 171.333461 130.945825 
L 172.312073 143.557325 
L 172.556726 143.054786 
L 172.801379 145.476781 
L 173.046032 140.281564 
L 173.290685 138.80881 
L 173.535338 141.000107 
L 174.024644 138.399977 
L 174.269298 141.185481 
L 174.513951 145.869523 
L 174.758604 143.109604 
L 175.003257 144.725144 
L 175.24791 143.644166 
L 175.492563 140.828624 
L 175.737216 139.977487 
L 175.981869 137.950539 
L 176.471175 129.985588 
L 176.715828 130.679456 
L 177.205134 134.607891 
L 177.449787 132.848278 
L 177.69444 132.622781 
L 177.939093 134.205763 
L 178.183746 131.036957 
L 178.428399 133.391637 
L 178.673052 134.230115 
L 178.917705 131.839122 
L 179.407011 138.726743 
L 179.896317 142.176508 
L 180.14097 146.928724 
L 180.385623 155.214381 
L 180.874929 155.776084 
L 181.119582 157.526257 
L 181.364235 151.01314 
L 181.608888 152.403505 
L 181.853541 147.914923 
L 182.342847 150.942712 
L 182.5875 152.633293 
L 182.832153 150.196546 
L 183.076806 153.394156 
L 183.321459 148.958515 
L 183.566112 146.745655 
L 183.810765 145.93877 
L 184.055418 141.318022 
L 184.300071 139.974323 
L 184.789377 141.440587 
L 185.03403 139.807721 
L 185.278683 139.351686 
L 185.523336 142.101038 
L 186.012642 138.251237 
L 186.257295 134.651768 
L 186.501948 127.904197 
L 186.746601 134.658043 
L 186.991254 133.382304 
L 187.235907 134.805871 
L 187.725213 140.315571 
L 187.969866 140.188394 
L 188.214519 136.239255 
L 188.459172 136.999259 
L 188.703825 137.057779 
L 188.948478 132.594514 
L 189.437784 141.020918 
L 189.682437 130.679295 
L 189.92709 137.243798 
L 190.171743 135.170506 
L 190.416396 138.038882 
L 190.661049 135.139128 
L 190.905702 137.36014 
L 191.150355 136.39368 
L 191.395008 128.837293 
L 191.639661 128.51514 
L 191.884314 129.221345 
L 192.128967 122.872792 
L 192.37362 124.694733 
L 192.618273 121.297802 
L 192.862926 126.923898 
L 193.107579 123.776977 
L 193.352232 144.448101 
L 193.596885 153.460882 
L 193.841538 151.56433 
L 194.330844 138.42154 
L 194.575497 138.059694 
L 194.82015 136.776552 
L 195.064803 136.204175 
L 195.309456 133.922015 
L 195.554109 136.197846 
L 195.798762 136.064125 
L 196.043415 135.605354 
L 196.532721 137.144191 
L 196.777375 129.808151 
L 197.022028 126.536091 
L 197.266681 126.231317 
L 197.755987 113.890692 
L 198.00064 117.185226 
L 198.245293 115.962267 
L 198.489946 89.254765 
L 198.734599 90.277814 
L 198.979252 85.013296 
L 199.223905 83.622287 
L 199.468558 74.65247 
L 199.713211 78.33111 
L 199.957864 77.385838 
L 200.202517 72.313292 
L 200.44717 76.178755 
L 200.691823 75.384046 
L 200.936476 56.538511 
L 201.181129 66.930769 
L 201.425782 64.469939 
L 201.670435 75.297635 
L 201.915088 76.309526 
L 202.159741 81.064103 
L 202.404394 79.581372 
L 202.649047 85.026384 
L 202.8937 87.86794 
L 203.138353 81.585469 
L 203.627659 81.57501 
L 203.872312 87.103966 
L 204.116965 78.976007 
L 204.361618 67.123171 
L 204.606271 72.400455 
L 204.850924 63.94294 
L 205.095577 61.858384 
L 205.34023 63.473978 
L 205.584883 60.394641 
L 205.829536 61.937555 
L 206.074189 61.106908 
L 206.318842 67.241068 
L 206.563495 66.963488 
L 206.808148 68.718489 
L 207.052801 64.037612 
L 207.542107 34.84171 
L 207.78676 42.931318 
L 208.031413 37.702255 
L 208.276066 42.917694 
L 208.520719 61.039752 
L 208.765372 55.290073 
L 209.010025 61.201365 
L 209.254678 61.331385 
L 209.499331 61.782164 
L 209.743984 50.107247 
L 210.23329 47.431594 
L 210.722596 59.979425 
L 210.967249 54.748109 
L 211.211902 73.147747 
L 211.701208 64.470529 
L 212.435167 57.39646 
L 212.67982 67.425263 
L 212.924473 57.316807 
L 213.169126 64.775518 
L 213.413779 67.85008 
L 213.658432 68.354927 
L 213.903085 68.047685 
L 214.147738 65.344194 
L 214.392391 84.939596 
L 214.637044 78.849849 
L 214.881697 77.059125 
L 215.12635 78.140747 
L 215.371003 84.774282 
L 215.615656 83.857599 
L 215.860309 82.495233 
L 216.104962 82.833156 
L 216.349615 86.496617 
L 216.594268 92.37476 
L 216.838921 84.895345 
L 217.083574 92.197914 
L 217.328227 89.735743 
L 217.57288 95.635502 
L 217.817533 105.47185 
L 218.062186 96.570047 
L 218.306839 97.203787 
L 218.551492 86.752312 
L 218.796145 92.334638 
L 219.040798 92.943007 
L 219.285452 99.531003 
L 219.530105 87.12156 
L 219.774758 86.736274 
L 220.019411 88.469229 
L 220.264064 100.795586 
L 220.508717 96.670941 
L 220.75337 100.368999 
L 220.998023 92.324554 
L 221.242676 93.880931 
L 221.487329 105.416281 
L 221.731982 104.531083 
L 221.976635 103.013702 
L 222.221288 106.412027 
L 222.465941 102.873008 
L 222.955247 105.593985 
L 223.933859 115.37884 
L 224.178512 125.104478 
L 224.423165 122.40045 
L 224.667818 123.679033 
L 224.912471 121.017863 
L 225.401777 110.053013 
L 225.64643 114.249587 
L 225.891083 116.460086 
L 226.135736 124.902314 
L 226.380389 123.617402 
L 226.869695 115.944673 
L 227.114348 123.416794 
L 227.359001 126.843601 
L 227.603654 124.129436 
L 227.848307 119.898265 
L 228.09296 123.501972 
L 228.337613 117.146499 
L 228.582266 122.82103 
L 229.316225 110.770965 
L 229.560878 135.605676 
L 229.805531 138.449378 
L 230.050184 137.379396 
L 230.294837 139.452634 
L 230.53949 146.234855 
L 230.784143 143.912305 
L 231.273449 150.623402 
L 231.518102 147.241329 
L 231.762755 148.520556 
L 232.007408 146.093679 
L 232.252061 151.083299 
L 232.496714 158.691501 
L 232.741367 161.811764 
L 232.98602 162.957215 
L 233.230673 159.67196 
L 233.475326 159.263342 
L 233.964632 166.73911 
L 234.698591 159.004804 
L 234.943244 160.91423 
L 235.187897 160.746824 
L 235.677203 163.768821 
L 235.921856 167.179536 
L 236.166509 165.469485 
L 236.655815 173.794566 
L 236.900468 167.948284 
L 237.145121 166.854433 
L 237.389774 162.52167 
L 237.634427 153.975276 
L 237.87908 158.373585 
L 238.123733 160.330749 
L 238.368386 158.065646 
L 238.613039 152.810783 
L 239.102345 154.855861 
L 239.346998 153.545899 
L 240.080957 161.170568 
L 240.32561 157.684866 
L 241.059569 170.608918 
L 241.304222 165.375886 
L 241.548875 164.244058 
L 241.793529 165.012484 
L 242.038182 166.283236 
L 242.282835 164.869001 
L 242.527488 164.206297 
L 242.772141 155.480643 
L 243.016794 160.450256 
L 243.261447 170.822292 
L 243.5061 169.534484 
L 243.995406 162.446469 
L 244.240059 165.135799 
L 244.484712 163.613859 
L 244.729365 166.763033 
L 244.974018 183.578348 
L 245.218671 190.326992 
L 245.463324 190.714209 
L 246.197283 226.800655 
L 246.686589 207.916312 
L 246.931242 215.681621 
L 247.175895 217.151479 
L 247.420548 223.289045 
L 247.909854 216.406225 
L 248.154507 223.143712 
L 248.39916 205.786485 
L 248.888466 221.116656 
L 249.133119 218.22897 
L 249.377772 220.735769 
L 249.622425 220.377302 
L 249.867078 218.249836 
L 250.111731 219.025932 
L 250.356384 226.550029 
L 250.601037 224.737501 
L 250.84569 225.747274 
L 251.334996 224.056667 
L 251.579649 223.969397 
L 251.824302 224.936527 
L 252.068955 224.611075 
L 252.313608 217.28225 
L 252.558261 220.729171 
L 252.802914 216.704455 
L 253.047567 209.76223 
L 253.29222 211.000637 
L 253.781526 202.905397 
L 254.026179 203.920507 
L 254.270832 202.721202 
L 254.515485 204.00016 
L 254.760138 248.570941 
L 255.249444 258.211347 
L 255.494097 258.589284 
L 255.983403 260.00663 
L 256.228056 257.308583 
L 256.472709 261.936894 
L 256.717362 264.137014 
L 256.962015 267.850975 
L 257.206668 267.265618 
L 257.451321 265.071586 
L 257.695974 269.480113 
L 257.940627 268.160926 
L 258.18528 264.24523 
L 258.674586 260.615347 
L 258.919239 259.718403 
L 259.163892 261.76348 
L 259.408545 260.771221 
L 259.897851 271.880626 
L 260.142504 275.688723 
L 260.387157 266.821785 
L 260.63181 251.061084 
L 260.876463 245.09559 
L 261.121116 245.608053 
L 261.365769 249.36683 
L 261.610422 249.132644 
L 261.855075 251.148032 
L 262.099728 249.330785 
L 262.344381 251.388709 
L 262.589034 258.470904 
L 262.833687 258.350458 
L 263.07834 262.003164 
L 263.812299 247.848402 
L 264.301606 256.499284 
L 264.546259 254.06463 
L 264.790912 255.820274 
L 265.035565 249.219029 
L 265.280218 253.039409 
L 265.524871 249.39263 
L 265.769524 257.457484 
L 266.014177 258.985539 
L 266.25883 254.891227 
L 266.503483 247.827751 
L 266.748136 244.162118 
L 267.237442 246.041909 
L 267.482095 240.418039 
L 267.726748 239.694696 
L 267.971401 242.08939 
L 268.216054 241.870089 
L 268.460707 231.306938 
L 268.70536 226.599644 
L 268.950013 216.617668 
L 269.194666 225.394064 
L 269.439319 221.819858 
L 269.683972 225.265358 
L 269.928625 236.757877 
L 270.173278 229.830966 
L 270.417931 237.509354 
L 270.662584 233.49558 
L 270.907237 244.977666 
L 271.396543 232.22507 
L 271.885849 223.154386 
L 272.375155 222.027547 
L 272.619808 206.679729 
L 272.864461 198.564428 
L 273.353767 207.338303 
L 273.59842 206.82643 
L 273.843073 202.289787 
L 274.087726 203.793544 
L 274.332379 210.492841 
L 274.577032 210.159155 
L 274.821685 213.800409 
L 275.066338 208.588618 
L 275.310991 209.887422 
L 275.555644 208.353627 
L 275.800297 223.28175 
L 276.04495 219.035534 
L 276.534256 206.440822 
L 276.778909 201.926547 
L 277.023562 194.997088 
L 277.268215 205.061828 
L 277.512868 206.470484 
L 277.757521 206.257003 
L 278.246827 209.145225 
L 278.980786 194.733829 
L 279.225439 198.387742 
L 279.714745 200.747571 
L 279.959398 199.649643 
L 280.204051 194.488272 
L 280.448704 195.382534 
L 280.693357 197.9633 
L 280.93801 201.882188 
L 281.182663 195.055714 
L 281.427316 195.178225 
L 281.671969 198.449534 
L 281.916622 195.279012 
L 282.161275 193.905704 
L 282.405928 195.290383 
L 282.650581 189.43863 
L 282.895234 191.123203 
L 283.139887 187.888583 
L 283.38454 187.175726 
L 283.629193 190.589767 
L 283.873846 188.068916 
L 284.118499 193.452136 
L 284.363152 194.657019 
L 284.607805 198.755757 
L 284.852458 189.62835 
L 285.097111 186.721515 
L 285.341764 189.706233 
L 285.586417 187.199649 
L 285.83107 182.09492 
L 286.075723 182.305773 
L 286.56503 191.185102 
L 286.809683 189.953131 
L 287.054336 184.973756 
L 287.298989 185.454304 
L 287.543642 184.947205 
L 287.788295 187.911647 
L 288.032948 202.099907 
L 288.277601 197.508284 
L 288.522254 201.216479 
L 288.766907 200.414797 
L 289.01156 200.552005 
L 289.500866 188.09139 
L 289.745519 189.109718 
L 289.990172 205.853856 
L 290.234825 202.858624 
L 290.479478 215.720831 
L 290.724131 208.738323 
L 290.968784 214.671768 
L 291.213437 228.213173 
L 291.45809 186.223749 
L 291.702743 182.204021 
L 291.947396 183.393402 
L 292.192049 178.907877 
L 292.681355 174.143592 
L 292.926008 175.417133 
L 293.170661 175.40367 
L 293.415314 177.056488 
L 293.659967 174.713985 
L 293.90462 174.798519 
L 294.149273 173.55566 
L 294.393926 173.729395 
L 294.638579 172.042838 
L 294.883232 173.135831 
L 295.127885 172.990953 
L 295.372538 176.832386 
L 295.861844 172.506811 
L 296.106497 171.71575 
L 296.35115 174.34758 
L 296.840456 170.322863 
L 297.329762 166.132297 
L 297.574415 166.920301 
L 297.819068 170.198583 
L 298.063721 170.689429 
L 298.308374 163.550565 
L 298.553027 159.730534 
L 298.79768 161.286964 
L 299.042333 158.559175 
L 299.286986 153.96884 
L 299.531639 156.110413 
L 300.020945 152.348794 
L 300.265598 157.989908 
L 300.510251 155.789386 
L 300.754904 154.735335 
L 300.999557 155.353197 
L 301.24421 153.958165 
L 301.488863 155.111717 
L 301.733516 154.342057 
L 301.978169 156.421892 
L 302.222822 155.932601 
L 302.467475 154.607031 
L 302.712128 154.674026 
L 302.956781 157.415922 
L 303.446087 159.96177 
L 303.69074 154.198359 
L 303.935393 158.856922 
L 304.180046 159.892576 
L 304.424699 157.486135 
L 304.669352 153.859631 
L 304.914005 157.168434 
L 305.158658 155.684255 
L 305.403311 152.400072 
L 305.647964 153.532704 
L 305.892617 153.161686 
L 306.381923 160.13706 
L 306.626576 160.091736 
L 306.871229 149.916821 
L 307.115882 160.633003 
L 307.360535 161.264758 
L 307.605188 166.187437 
L 307.849841 164.499431 
L 308.094494 171.636472 
L 308.339147 172.154191 
L 308.5838 170.291914 
L 308.828453 171.192559 
L 309.073107 170.240689 
L 309.31776 160.417375 
L 309.562413 162.34005 
L 309.807066 159.561465 
L 310.051719 165.410107 
L 310.296372 166.994215 
L 310.541025 177.624199 
L 310.785678 166.328775 
L 311.030331 170.094363 
L 311.274984 169.281793 
L 311.76429 160.122363 
L 312.008943 165.263298 
L 312.253596 166.022177 
L 312.987555 163.684286 
L 313.232208 169.020626 
L 313.476861 164.221047 
L 313.721514 168.00911 
L 313.966167 174.89759 
L 314.21082 165.229774 
L 314.944779 168.221197 
L 315.189432 184.714306 
L 315.923391 198.193571 
L 316.168044 197.603117 
L 316.412697 192.566831 
L 316.65735 190.808988 
L 316.902003 192.894402 
L 317.146656 188.283148 
L 317.391309 187.835051 
L 317.635962 188.989622 
L 317.880615 191.817822 
L 318.125268 186.155789 
L 318.859227 181.628747 
L 319.10388 180.416998 
L 319.348533 180.397259 
L 319.593186 185.277886 
L 320.082492 183.017235 
L 320.327145 186.148494 
L 320.571798 182.459072 
L 320.816451 182.137026 
L 321.061104 172.974969 
L 321.305757 170.290841 
L 321.55041 172.195386 
L 321.795063 176.844616 
L 322.039716 171.102768 
L 322.284369 170.538973 
L 322.529022 186.92813 
L 322.773675 190.321521 
L 323.752287 171.927837 
L 323.99694 172.316019 
L 324.241593 171.097297 
L 324.486246 177.651716 
L 324.975552 174.816595 
L 325.220205 181.139724 
L 325.709511 176.878945 
L 325.954164 178.158064 
L 326.198817 180.438454 
L 326.44347 169.514155 
L 326.688123 167.909021 
L 327.177429 172.583407 
L 327.422082 173.764904 
L 327.666735 169.757191 
L 327.911388 168.078787 
L 328.156041 171.756569 
L 328.400694 183.490756 
L 328.645347 183.866012 
L 328.89 182.905399 
L 329.134653 185.446419 
L 329.379306 185.854608 
L 329.623959 186.926146 
L 329.868612 190.422898 
L 330.113265 186.769843 
L 330.357918 186.369324 
L 330.602571 192.827622 
L 330.847224 189.678609 
L 331.091877 192.388322 
L 331.33653 191.02011 
L 331.581184 194.618453 
L 331.825837 200.474444 
L 332.07049 191.006539 
L 333.049102 203.905166 
L 333.293755 199.057473 
L 333.538408 202.122649 
L 333.783061 203.362827 
L 334.027714 210.690767 
L 334.272367 205.616237 
L 334.51702 203.514195 
L 334.761673 206.795373 
L 335.006326 203.358911 
L 335.250979 204.811497 
L 335.495632 205.35963 
L 335.740285 202.515445 
L 336.229591 187.246368 
L 336.474244 194.234615 
L 336.718897 195.915273 
L 336.96355 190.408898 
L 337.208203 190.230496 
L 337.452856 188.487189 
L 337.697509 185.17549 
L 337.942162 169.949432 
L 338.186815 168.778126 
L 338.431468 170.832644 
L 338.676121 163.581086 
L 339.41008 177.518531 
L 339.654733 175.620155 
L 339.899386 180.448967 
L 340.144039 181.274035 
L 340.388692 181.478076 
L 340.633345 182.221507 
L 340.877998 181.845554 
L 341.122651 179.877877 
L 341.367304 180.871478 
L 341.611957 175.082428 
L 341.85661 176.89155 
L 342.101263 177.388297 
L 342.345916 181.11312 
L 342.590569 180.730569 
L 342.835222 181.159249 
L 343.079875 179.03661 
L 343.569181 183.099839 
L 343.813834 182.850795 
L 344.792446 165.73108 
L 345.037099 167.113614 
L 345.281752 166.767431 
L 345.771058 170.173963 
L 346.015711 160.638742 
L 346.260364 159.223703 
L 346.505017 156.790443 
L 346.74967 156.489691 
L 346.994323 158.350842 
L 347.728282 152.208797 
L 347.972935 146.99014 
L 348.217588 146.225951 
L 348.462241 147.297489 
L 348.706894 145.412737 
L 348.951547 142.615539 
L 349.1962 142.922406 
L 349.440853 144.627307 
L 349.685506 143.825411 
L 350.174812 140.63987 
L 350.419465 136.43761 
L 350.664118 135.490353 
L 350.908771 138.047786 
L 351.153424 133.609677 
L 351.398077 134.20764 
L 351.887383 140.856677 
L 352.132036 136.599652 
L 352.376689 144.828291 
L 352.621342 144.158345 
L 353.110648 118.60284 
L 353.355301 120.33558 
L 353.599954 120.480511 
L 353.844607 123.351677 
L 354.089261 122.19067 
L 354.333914 123.715024 
L 354.578567 123.258453 
L 354.82322 119.902073 
L 355.067873 111.595765 
L 355.312526 113.218118 
L 355.557179 108.478346 
L 355.801832 118.362271 
L 356.046485 115.939256 
L 356.291138 117.987444 
L 356.535791 114.304084 
L 356.780444 115.32606 
L 357.025097 113.797951 
L 357.26975 111.056001 
L 357.514403 118.956747 
L 357.759056 145.512612 
L 358.003709 140.973019 
L 358.248362 142.083606 
L 358.493015 137.085349 
L 358.982321 147.1436 
L 359.471627 138.627834 
L 359.71628 135.016832 
L 359.960933 139.671801 
L 360.205586 140.759538 
L 360.450239 143.088202 
L 360.694892 143.316274 
L 360.939545 142.221618 
L 361.184198 143.392601 
L 361.428851 157.688406 
L 361.918157 152.459933 
L 362.407463 135.83423 
L 362.652116 135.541041 
L 362.896769 136.728224 
L 363.141422 139.201337 
L 363.630728 137.657458 
L 363.875381 132.036512 
L 364.120034 120.525943 
L 364.364687 118.509133 
L 364.60934 112.056896 
L 364.853993 111.783286 
L 365.098646 110.350171 
L 365.343299 106.99776 
L 365.587952 106.550254 
L 365.832605 104.106266 
L 366.077258 107.264558 
L 366.321911 101.412054 
L 366.566564 99.711068 
L 366.811217 99.26163 
L 367.05587 105.851504 
L 367.300523 107.176216 
L 367.545176 105.285188 
L 367.789829 104.845191 
L 368.034482 103.551321 
L 368.279135 113.585166 
L 368.523788 114.289923 
L 369.013094 110.208189 
L 369.257747 110.809907 
L 369.5024 122.199789 
L 369.747053 119.089824 
L 369.991706 124.350749 
L 370.236359 118.884496 
L 370.481012 120.310799 
L 370.725665 123.743292 
L 370.970318 121.772557 
L 371.214971 111.63283 
L 371.459624 109.270641 
L 371.704277 108.904987 
L 371.94893 118.885354 
L 372.682889 110.665136 
L 372.927542 113.0557 
L 373.172195 107.828729 
L 373.416848 109.697604 
L 373.661501 110.010585 
L 373.906154 107.037614 
L 374.39546 113.746618 
L 374.640113 115.868238 
L 374.884766 114.739683 
L 375.129419 115.850108 
L 375.374072 118.451579 
L 375.618725 123.440931 
L 375.863378 121.231988 
L 376.108031 115.074119 
L 376.352684 116.280397 
L 376.597338 114.222232 
L 376.841991 117.678004 
L 377.086644 105.593395 
L 377.331297 79.721583 
L 377.57595 69.737836 
L 377.820603 67.129339 
L 378.065256 62.657062 
L 378.309909 69.936674 
L 378.554562 67.432075 
L 379.043868 65.302356 
L 379.533174 49.204027 
L 379.777827 53.959622 
L 380.02248 50.400811 
L 380.267133 49.398896 
L 380.511786 53.062946 
L 380.756439 60.893641 
L 381.001092 57.893689 
L 381.490398 47.45498 
L 381.490398 47.45498 
" style="fill:none;stroke:#1f77b4;stroke-linecap:square;stroke-width:1.5;"/>
   </g>
   <g id="line2d_32">
    <path clip-path="url(#ped4f37b174)" d="M 56.835852 153.651649 
L 57.080505 149.29273 
L 57.325158 147.183576 
L 57.569811 147.605407 
L 57.814464 159.205755 
L 58.059117 147.324186 
L 58.30377 146.058693 
L 58.548423 149.644256 
L 58.793076 154.987447 
L 59.037729 150.558223 
L 59.527035 156.67477 
L 59.771688 153.651649 
L 60.016341 153.159513 
L 60.260994 162.510097 
L 60.505647 163.705285 
L 60.7503 166.51749 
L 60.994953 164.478641 
L 61.239606 171.15763 
L 61.484259 167.993898 
L 61.728912 170.876409 
L 61.973566 165.392608 
L 62.218219 165.322303 
L 62.462872 162.299182 
L 62.707525 162.158571 
L 62.952178 162.439792 
L 63.196831 161.174299 
L 63.441484 153.511039 
L 63.686137 152.667377 
L 63.93079 147.605407 
L 64.175443 153.300123 
L 64.420096 154.495311 
L 64.664749 152.104936 
L 64.909402 152.878292 
L 65.154055 146.621135 
L 65.643361 153.581344 
L 65.888014 150.769138 
L 66.132667 150.277002 
L 66.37732 145.777473 
L 66.621973 151.120664 
L 66.866626 146.128999 
L 67.111279 151.401884 
L 67.355932 149.925476 
L 67.600585 153.511039 
L 67.845238 153.93287 
L 68.089891 152.667377 
L 68.334544 152.315851 
L 68.82385 145.918083 
L 69.068503 144.37137 
L 69.313156 144.37137 
L 69.557809 147.956932 
L 69.802462 134.247429 
L 70.047115 142.543436 
L 70.291768 139.379705 
L 70.536421 127.216915 
L 71.025727 131.294613 
L 71.27038 134.38804 
L 71.759686 145.144727 
L 72.004339 145.988388 
L 72.248992 143.387098 
L 72.493645 144.090149 
L 72.738298 143.738624 
L 72.982951 144.582285 
L 73.227604 156.323244 
L 73.472257 161.947656 
L 73.71691 158.362094 
L 73.961563 156.604465 
L 74.206216 159.486976 
L 74.450869 165.673829 
L 74.695522 164.689557 
L 74.940175 166.798711 
L 75.184828 167.572067 
L 75.429481 183.039199 
L 75.674134 190.561849 
L 75.918787 193.655276 
L 76.16344 185.992015 
L 76.408093 188.663611 
L 76.652746 185.288964 
L 76.897399 179.734857 
L 77.142052 181.351876 
L 77.386705 184.445302 
L 77.631358 177.274177 
L 77.876011 173.829225 
L 78.120664 165.814439 
L 78.365317 170.313968 
L 78.60997 167.009626 
L 78.854623 168.907865 
L 79.343929 166.025354 
L 79.588582 164.830167 
L 80.077888 187.398118 
L 80.322541 187.327813 
L 80.567194 187.960559 
L 80.811847 186.905982 
L 81.0565 184.656217 
L 81.301153 192.389783 
L 81.545806 188.593305 
L 81.790459 191.124291 
L 82.035112 190.772765 
L 82.279765 194.498938 
L 82.524418 195.342599 
L 82.769071 198.295415 
L 83.013724 188.171475 
L 83.258377 185.92171 
L 83.50303 189.577577 
L 83.747683 188.874526 
L 83.992336 192.741309 
L 84.236989 190.069713 
L 84.481643 190.069713 
L 84.726296 190.491544 
L 84.970949 191.264901 
L 85.215602 193.374055 
L 85.460255 188.101169 
L 85.704908 185.570184 
L 85.949561 188.733916 
L 86.194214 187.327813 
L 86.68352 183.109504 
L 86.928173 181.281571 
L 87.172826 187.116897 
L 87.417479 186.202931 
L 87.662132 179.805162 
L 87.906785 182.828284 
L 88.151438 179.875468 
L 88.396091 184.585912 
L 88.885397 177.274177 
L 89.13005 170.524884 
L 89.374703 172.212207 
L 89.619356 171.860681 
L 89.864009 170.173358 
L 90.353315 172.915258 
L 90.597968 183.882861 
L 91.087274 189.647883 
L 91.331927 180.648824 
L 92.310539 174.180751 
L 92.555192 169.470306 
L 92.799845 175.165023 
L 93.044498 169.962442 
L 93.289151 156.252939 
L 93.533804 154.284395 
L 94.02311 157.448127 
L 94.512416 159.908807 
L 94.757069 153.300123 
L 95.001722 153.440734 
L 95.491028 164.548946 
L 95.735681 163.634979 
L 95.980334 160.893079 
L 96.224987 160.471248 
L 96.46964 157.096601 
L 96.958946 145.988388 
L 97.203599 150.347307 
L 97.448252 146.621135 
L 97.692905 145.496252 
L 98.182211 136.286278 
L 98.671517 141.629469 
L 98.91617 137.762686 
L 99.405476 122.436165 
L 99.650129 128.904238 
L 99.894782 127.005999 
L 100.139435 121.311283 
L 100.384088 122.787691 
L 100.873394 119.061518 
L 101.118047 127.919966 
L 101.3627 122.36586 
L 101.607353 123.631353 
L 101.852006 115.757176 
L 102.096659 123.139217 
L 102.585965 116.811754 
L 102.830618 122.436165 
L 103.075271 125.459286 
L 103.319924 125.037455 
L 103.564577 117.936636 
L 103.80923 116.671143 
L 104.053883 116.671143 
L 104.298536 120.467621 
L 104.543189 122.22525 
L 104.787842 121.100367 
L 105.032495 118.780298 
L 105.277148 124.545319 
L 105.521801 118.780298 
L 105.766454 123.701658 
L 106.011107 122.295555 
L 106.745066 130.099426 
L 107.234373 136.215973 
L 107.479026 127.779356 
L 107.968332 135.020786 
L 108.212985 142.965267 
L 108.457638 145.074421 
L 108.702291 140.082756 
L 108.946944 140.434282 
L 109.191597 143.598013 
L 109.43625 135.794142 
L 109.680903 136.497194 
L 109.925556 142.543436 
L 110.170209 142.191911 
L 110.414862 147.042965 
L 110.659515 146.621135 
L 110.904168 145.496252 
L 111.148821 145.496252 
L 111.393474 140.293672 
L 111.88278 155.901414 
L 112.127433 159.205755 
L 112.372086 150.628528 
L 112.616739 148.167848 
L 112.861392 142.121605 
L 113.106045 144.722896 
L 113.350698 145.566557 
L 113.595351 150.347307 
L 113.840004 149.644256 
L 114.573963 131.716444 
L 114.818616 131.716444 
L 115.063269 128.271492 
L 115.307922 127.14661 
L 115.797228 131.575834 
L 116.041881 127.076305 
L 116.286534 129.88851 
L 116.531187 128.271492 
L 116.77584 125.178066 
L 117.020493 124.68593 
L 117.265146 119.623959 
L 117.509799 124.053183 
L 117.999105 125.599897 
L 118.243758 122.928301 
L 118.488411 124.96715 
L 118.733064 121.451893 
L 118.977717 122.647081 
L 119.22237 120.04579 
L 119.467023 120.467621 
L 119.711676 130.310341 
L 119.956329 127.849661 
L 120.200982 129.958815 
L 120.445635 134.52865 
L 120.690288 130.240036 
L 120.934941 132.771021 
L 121.179594 149.29273 
L 122.158206 158.432399 
L 122.402859 153.862564 
L 122.647512 154.987447 
L 122.892165 155.057752 
L 123.136818 161.807046 
L 123.381471 161.947656 
L 123.626124 164.127115 
L 123.870777 162.088266 
L 124.11543 156.182634 
L 124.360083 161.666435 
L 124.604736 160.682163 
L 124.849389 161.666435 
L 125.094042 160.611858 
L 125.338695 154.917142 
L 125.583348 152.526767 
L 125.828001 151.261274 
L 126.072654 151.6128 
L 126.317307 146.199304 
L 126.56196 146.621135 
L 126.806613 144.37137 
L 127.051266 134.950481 
L 127.295919 136.215973 
L 127.540572 142.754352 
L 127.785225 135.653532 
L 128.029878 139.098484 
L 128.274531 147.042965 
L 128.519184 149.855171 
L 128.763837 150.558223 
L 129.253143 156.81538 
L 129.497797 155.831108 
L 130.231756 167.642373 
L 130.965715 148.238153 
L 131.210368 150.136392 
L 131.455021 149.503645 
L 131.699674 146.83205 
L 131.944327 142.0513 
L 132.18898 139.871841 
L 132.433633 140.434282 
L 132.678286 142.473131 
L 132.922939 137.200245 
L 133.167592 138.254822 
L 133.412245 135.864448 
L 133.656898 137.340856 
L 133.901551 129.677595 
L 134.146204 129.536985 
L 134.390857 132.278885 
L 134.63551 131.646139 
L 134.880163 129.88851 
L 135.124816 132.771021 
L 135.614122 123.068911 
L 135.858775 127.990271 
L 136.103428 125.388981 
L 136.348081 118.428772 
L 136.592734 121.451893 
L 136.837387 126.162338 
L 137.08204 117.866331 
L 137.326693 115.757176 
L 137.571346 115.26504 
L 137.815999 115.194735 
L 138.060652 119.202128 
L 138.305305 118.288162 
L 138.549958 109.921849 
L 138.794611 107.250254 
L 139.039264 106.476897 
L 139.283917 102.117979 
L 139.52857 104.086523 
L 139.773223 101.836758 
L 140.017876 105.844151 
L 140.262529 112.312224 
L 140.507182 112.38253 
L 140.751835 108.656357 
L 141.241141 116.671143 
L 141.485794 116.600838 
L 141.9751 122.647081 
L 142.464406 129.466679 
L 142.709059 126.724779 
L 142.953712 129.466679 
L 143.198365 126.302948 
L 143.443018 124.756235 
L 143.687671 123.982878 
L 143.932324 120.186401 
L 144.176977 120.116095 
L 144.666283 119.342739 
L 145.155589 118.358467 
L 145.400242 123.209522 
L 145.644895 120.889452 
L 146.134201 122.22525 
L 146.378854 127.216915 
L 146.623507 128.201187 
L 146.86816 124.68593 
L 147.602119 136.708109 
L 147.846772 137.903297 
L 148.091425 146.621135 
L 148.336078 147.394491 
L 148.580731 151.6128 
L 148.825384 150.698833 
L 149.070037 143.457403 
L 149.559343 153.089208 
L 149.803996 151.190969 
L 150.048649 161.877351 
L 150.293302 164.689557 
L 150.537955 159.768196 
L 150.782608 159.205755 
L 151.271914 153.229818 
L 151.76122 147.746017 
L 152.005874 142.684047 
L 152.250527 142.0513 
L 152.49518 145.425947 
L 152.739833 159.205755 
L 152.984486 158.221483 
L 153.229139 157.869958 
L 153.473792 158.291788 
L 153.963098 147.042965 
L 154.207751 149.15212 
L 154.452404 149.081815 
L 154.697057 147.113271 
L 154.94171 143.246488 
L 155.186363 146.480524 
L 155.431016 145.777473 
L 155.675669 148.870899 
L 156.164975 146.621135 
L 156.409628 140.504587 
L 156.654281 147.816322 
L 156.898934 150.417612 
L 157.143587 147.886627 
L 157.38824 148.589679 
L 157.632893 152.386156 
L 157.877546 139.239094 
L 158.122199 136.98933 
L 158.366852 132.278885 
L 158.611505 130.872782 
L 158.856158 135.794142 
L 159.100811 136.637804 
L 159.345464 136.005058 
L 159.590117 133.122547 
L 159.83477 134.38804 
L 160.324076 127.357525 
L 160.568729 129.818205 
L 160.813382 130.802477 
L 161.058035 122.998606 
L 161.302688 124.756235 
L 161.547341 132.981937 
L 162.2813 129.255764 
L 162.525953 130.872782 
L 162.770606 128.552713 
L 163.015259 127.779356 
L 163.749218 122.22525 
L 163.993871 118.358467 
L 164.238524 111.468563 
L 164.483177 113.226191 
L 164.72783 112.241919 
L 164.972483 113.155886 
L 165.461789 122.084639 
L 165.706442 125.459286 
L 165.951095 124.404709 
L 166.440401 117.72572 
L 166.685054 116.179007 
L 166.929707 117.022669 
L 167.17436 136.497194 
L 167.419013 131.435224 
L 167.663666 130.661867 
L 168.152972 138.887569 
L 168.397625 139.942146 
L 168.642278 141.559164 
L 168.886931 140.504587 
L 169.131584 142.824657 
L 169.62089 138.043907 
L 169.865543 134.38804 
L 170.110196 133.263157 
L 170.354849 134.247429 
L 170.844155 128.201187 
L 171.333461 132.771021 
L 171.578114 134.598955 
L 172.312073 144.722896 
L 172.556726 143.457403 
L 172.801379 145.215032 
L 173.046032 139.3094 
L 173.290685 137.340856 
L 173.535338 141.559164 
L 173.779991 138.254822 
L 174.269298 141.840385 
L 174.513951 146.902355 
L 174.758604 142.754352 
L 175.003257 143.598013 
L 175.24791 143.668319 
L 175.492563 141.207639 
L 175.737216 140.645197 
L 175.981869 137.832992 
L 176.226522 133.052242 
L 176.471175 132.06797 
L 176.715828 132.34919 
L 176.960481 130.521257 
L 177.205134 134.52865 
L 177.449787 132.138275 
L 177.69444 134.38804 
L 177.939093 134.106819 
L 178.428399 132.560106 
L 178.673052 134.036514 
L 178.917705 133.684988 
L 179.162358 137.12994 
L 179.407011 142.473131 
L 179.651664 144.019844 
L 179.896317 139.3094 
L 180.14097 152.597072 
L 180.385623 157.307516 
L 180.630276 156.885686 
L 180.874929 157.377822 
L 181.119582 158.221483 
L 181.364235 150.136392 
L 181.608888 152.104936 
L 181.853541 150.487918 
L 182.098194 150.347307 
L 182.342847 150.628528 
L 182.5875 153.300123 
L 182.832153 147.956932 
L 183.076806 151.47219 
L 183.321459 146.83205 
L 183.566112 146.69144 
L 183.810765 145.074421 
L 184.055418 140.012451 
L 184.300071 138.957874 
L 184.544724 139.660925 
L 184.789377 141.91069 
L 185.03403 142.191911 
L 185.278683 140.223366 
L 185.523336 142.543436 
L 185.767989 138.817264 
L 186.012642 137.340856 
L 186.257295 134.80987 
L 186.501948 130.521257 
L 186.746601 134.52865 
L 186.991254 132.911632 
L 187.48056 138.676653 
L 187.969866 140.996723 
L 188.214519 135.934753 
L 188.459172 136.286278 
L 188.703825 135.302006 
L 188.948478 132.911632 
L 189.193131 138.465738 
L 189.437784 140.363977 
L 189.682437 131.92736 
L 189.92709 136.708109 
L 190.171743 138.043907 
L 190.416396 138.184517 
L 190.661049 134.880176 
L 190.905702 136.98933 
L 191.395008 131.083698 
L 191.639661 131.224308 
L 191.884314 128.552713 
L 192.128967 123.631353 
L 192.37362 124.896845 
L 192.618273 124.193794 
L 193.107579 127.357525 
L 193.352232 157.940263 
L 193.596885 151.261274 
L 193.841538 151.542495 
L 194.330844 135.161396 
L 194.575497 135.864448 
L 194.82015 137.551771 
L 195.064803 136.145668 
L 195.309456 134.036514 
L 195.554109 134.598955 
L 195.798762 137.27055 
L 196.043415 132.20858 
L 196.288068 136.005058 
L 196.532721 135.020786 
L 196.777375 125.318676 
L 197.022028 123.350132 
L 197.266681 125.529591 
L 197.755987 114.561989 
L 198.00064 118.569382 
L 198.489946 92.204953 
L 198.734599 92.204953 
L 198.979252 85.73688 
L 199.223905 82.502843 
L 199.713211 72.800734 
L 199.957864 76.245686 
L 200.202517 71.675851 
L 200.44717 75.89416 
L 200.691823 66.895101 
L 200.936476 63.098624 
L 201.425782 68.51212 
L 201.670435 81.307656 
L 201.915088 76.526906 
L 202.404394 84.682303 
L 202.649047 82.713759 
L 202.8937 87.846034 
L 203.138353 85.59627 
L 203.383006 80.393689 
L 203.627659 84.893218 
L 203.872312 87.283593 
L 204.361618 66.33266 
L 204.606271 72.941344 
L 204.850924 63.309539 
L 205.095577 61.340995 
L 205.34023 66.895101 
L 205.584883 64.926557 
L 205.829536 64.504727 
L 206.074189 60.567639 
L 206.563495 70.129138 
L 206.808148 68.301204 
L 207.052801 62.676793 
L 207.297454 45.592643 
L 207.542107 37.788772 
L 207.78676 44.538066 
L 208.031413 34.414125 
L 208.276066 56.560245 
L 208.520719 61.13008 
L 208.765372 59.723977 
L 209.010025 62.395572 
L 209.254678 67.457543 
L 209.743984 51.146749 
L 209.988637 51.920106 
L 210.23329 52.131021 
L 210.477943 53.958955 
L 210.722596 60.637944 
L 210.967249 62.676793 
L 211.211902 76.667516 
L 211.456555 69.355781 
L 211.701208 67.387237 
L 211.945861 60.356723 
L 212.190514 59.302146 
L 212.67982 63.801675 
L 212.924473 63.73137 
L 213.169126 64.223506 
L 213.658432 72.167987 
L 213.903085 68.301204 
L 214.392391 91.150376 
L 214.637044 79.479722 
L 215.12635 77.792399 
L 215.371003 83.2762 
L 215.615656 84.190167 
L 215.860309 82.994979 
L 216.104962 84.611998 
L 216.349615 87.775729 
L 216.594268 88.19756 
L 217.57288 97.548144 
L 217.817533 104.648964 
L 218.062186 96.634177 
L 218.551492 89.392747 
L 218.796145 96.423262 
L 219.040798 93.962582 
L 219.285452 97.477839 
L 219.530105 87.986645 
L 219.774758 87.916339 
L 220.019411 88.619391 
L 220.264064 103.805302 
L 220.508717 97.337229 
L 220.75337 98.391806 
L 220.998023 93.540751 
L 221.242676 94.314108 
L 221.487329 105.211405 
L 221.731982 107.109644 
L 221.976635 102.68042 
L 222.221288 107.60178 
L 222.465941 104.438048 
L 222.710594 104.297438 
L 222.955247 107.531475 
L 223.1999 108.304831 
L 223.444553 106.265982 
L 223.689206 113.858938 
L 224.178512 121.662809 
L 224.423165 120.116095 
L 224.667818 126.302948 
L 224.912471 121.733114 
L 225.157124 114.702599 
L 225.401777 111.960699 
L 225.64643 114.140158 
L 226.135736 125.599897 
L 226.380389 122.998606 
L 226.625042 117.514805 
L 226.869695 117.30389 
L 227.114348 124.96715 
L 227.359001 126.302948 
L 227.603654 120.186401 
L 228.09296 124.264099 
L 228.337613 116.108702 
L 228.582266 121.803419 
L 228.826919 119.413044 
L 229.071572 114.772904 
L 229.805531 139.871841 
L 230.050184 137.059635 
L 230.294837 140.082756 
L 230.53949 145.425947 
L 230.784143 145.004116 
L 231.028796 146.761745 
L 231.518102 148.730289 
L 231.762755 147.605407 
L 232.252061 151.331579 
L 232.741367 161.666435 
L 232.98602 161.59613 
L 233.230673 157.940263 
L 233.719979 165.181693 
L 233.964632 165.041082 
L 234.209285 162.158571 
L 234.943244 159.697891 
L 235.187897 160.330638 
L 235.43255 162.650707 
L 235.677203 163.424064 
L 235.921856 166.869016 
L 236.166509 167.993898 
L 236.411162 167.923593 
L 236.655815 169.400001 
L 236.900468 166.447185 
L 237.145121 170.946714 
L 237.389774 161.947656 
L 237.87908 154.846836 
L 238.123733 158.99484 
L 238.613039 152.667377 
L 238.857692 155.409278 
L 239.102345 152.737682 
L 239.346998 154.3547 
L 239.836304 158.85423 
L 240.080957 161.103994 
L 240.32561 159.065145 
L 240.570263 162.861623 
L 240.814916 170.946714 
L 241.059569 169.892137 
L 241.304222 164.830167 
L 241.548875 166.37688 
L 241.793529 163.494369 
L 242.038182 167.712678 
L 242.282835 163.634979 
L 242.527488 163.845895 
L 242.772141 157.096601 
L 243.016794 161.59613 
L 243.261447 170.103053 
L 243.5061 171.860681 
L 243.750753 169.892137 
L 243.995406 163.77559 
L 244.240059 164.478641 
L 244.484712 167.782983 
L 244.974018 188.593305 
L 245.218671 194.147412 
L 245.463324 195.342599 
L 245.707977 224.659844 
L 245.95263 212.637665 
L 246.197283 221.214892 
L 246.686589 208.138135 
L 247.175895 224.238013 
L 247.420548 218.683907 
L 247.665201 217.76994 
L 247.909854 222.339775 
L 248.39916 202.724639 
L 248.643813 222.339775 
L 248.888466 221.566418 
L 249.133119 218.262076 
L 249.377772 219.457264 
L 249.867078 217.91055 
L 250.111731 224.589539 
L 250.356384 224.589539 
L 250.601037 228.245407 
L 250.84569 224.800455 
L 251.090343 227.33144 
L 251.334996 222.339775 
L 251.579649 225.644116 
L 251.824302 224.589539 
L 252.068955 219.808789 
L 252.313608 217.48872 
L 252.558261 224.519234 
L 252.802914 214.324988 
L 253.536873 207.153863 
L 253.781526 202.162198 
L 254.026179 204.060437 
L 254.270832 204.411963 
L 254.515485 204.482268 
L 254.760138 253.063122 
L 255.004791 254.680141 
L 255.249444 259.46089 
L 255.494097 258.968754 
L 255.73875 259.390585 
L 255.983403 258.406313 
L 256.228056 256.648685 
L 256.472709 262.202791 
L 256.962015 267.405372 
L 257.206668 266.983541 
L 257.451321 266.913236 
L 257.695974 270.006662 
L 257.940627 268.038118 
L 258.18528 260.937298 
L 258.429933 261.429435 
L 258.674586 258.546924 
L 258.919239 261.49974 
L 259.163892 262.835537 
L 259.408545 261.49974 
L 259.897851 273.873445 
L 260.142504 276.334125 
L 260.387157 255.594108 
L 260.63181 250.672747 
L 260.876463 243.079792 
L 261.121116 244.064064 
L 261.365769 248.915119 
L 261.610422 251.305494 
L 261.855075 250.953968 
L 262.099728 247.860542 
L 262.833687 260.726383 
L 263.07834 260.163942 
L 263.567646 253.977089 
L 263.812299 250.461832 
L 264.056952 256.156549 
L 264.546259 257.632957 
L 264.790912 255.875328 
L 265.035565 246.454439 
L 265.280218 250.180611 
L 265.524871 248.633898 
L 265.769524 258.476618 
L 266.014177 259.249975 
L 266.503483 243.923454 
L 266.992789 246.87627 
L 267.237442 243.923454 
L 267.482095 239.283314 
L 267.726748 241.603384 
L 267.971401 247.438711 
L 268.216054 236.682024 
L 268.70536 230.07334 
L 268.950013 215.238955 
L 269.194666 224.519234 
L 269.439319 220.160315 
L 269.683972 224.730149 
L 269.928625 236.892939 
L 270.173278 240.056671 
L 270.417931 235.135311 
L 270.662584 238.299042 
L 270.907237 244.064064 
L 271.15189 233.799513 
L 271.396543 231.409138 
L 271.885849 222.128859 
L 272.130502 222.620995 
L 272.375155 217.559025 
L 272.864461 199.631213 
L 273.109114 199.560908 
L 273.353767 210.458205 
L 273.59842 202.724639 
L 273.843073 205.255625 
L 274.087726 212.356444 
L 274.332379 207.435084 
L 274.577032 215.660786 
L 274.821685 212.145529 
L 275.066338 204.482268 
L 275.310991 208.06783 
L 275.555644 224.659844 
L 275.800297 223.605267 
L 276.289603 209.895764 
L 276.534256 207.435084 
L 276.778909 198.576636 
L 277.023562 194.147412 
L 277.268215 204.341658 
L 277.512868 204.201047 
L 278.002174 209.122407 
L 278.246827 207.78661 
L 278.49148 204.411963 
L 278.736133 196.608092 
L 278.980786 196.186261 
L 279.225439 197.873584 
L 279.470092 196.326871 
L 279.714745 200.68579 
L 279.959398 201.740367 
L 280.204051 195.131684 
L 280.448704 195.975346 
L 280.93801 201.529452 
L 281.182663 194.709853 
L 281.427316 194.639548 
L 281.671969 198.717246 
L 281.916622 195.201989 
L 282.405928 192.389783 
L 282.650581 189.436967 
L 282.895234 194.569243 
L 283.139887 187.679339 
L 283.38454 187.468423 
L 283.629193 189.788493 
L 283.873846 188.874526 
L 284.363152 194.639548 
L 284.607805 197.732974 
L 284.852458 187.609033 
L 285.097111 186.624761 
L 285.341764 188.101169 
L 285.586417 187.327813 
L 285.83107 182.125232 
L 286.075723 182.336148 
L 286.320376 184.374997 
L 286.56503 188.944831 
L 286.809683 190.84307 
L 287.054336 182.757979 
L 287.298989 184.234387 
L 287.788295 189.577577 
L 288.032948 204.411963 
L 288.277601 202.724639 
L 288.522254 202.794945 
L 288.766907 201.951283 
L 289.01156 202.373114 
L 289.256213 192.952224 
L 289.500866 188.24178 
L 289.990172 204.904099 
L 290.234825 205.396235 
L 290.479478 216.785668 
L 290.724131 208.349051 
L 290.968784 229.721815 
L 291.213437 194.006802 
L 291.45809 185.359269 
L 291.702743 183.46103 
L 291.947396 183.109504 
L 292.436702 175.797769 
L 292.681355 174.602582 
L 292.926008 176.571126 
L 293.170661 177.133567 
L 293.415314 177.133567 
L 293.659967 176.641431 
L 293.90462 169.962442 
L 294.393926 174.672887 
L 294.638579 171.087325 
L 294.883232 173.61831 
L 295.127885 173.61831 
L 295.372538 176.008685 
L 295.617191 172.212207 
L 295.861844 173.61831 
L 296.106497 173.266784 
L 296.35115 171.43885 
L 296.595803 173.969836 
L 297.085109 165.181693 
L 297.329762 176.782041 
L 297.574415 169.118781 
L 297.819068 168.275119 
L 298.063721 169.189086 
L 298.553027 158.643314 
L 298.79768 161.31491 
L 299.286986 154.425006 
L 299.531639 153.792259 
L 300.020945 155.620193 
L 300.265598 157.799652 
L 300.510251 154.003175 
L 300.754904 152.667377 
L 300.999557 155.057752 
L 301.24421 155.057752 
L 301.488863 153.370428 
L 301.733516 156.53416 
L 301.978169 154.21409 
L 302.222822 155.690498 
L 302.467475 154.565616 
L 302.712128 154.917142 
L 302.956781 158.573009 
L 303.201434 158.362094 
L 303.446087 160.893079 
L 303.69074 154.635921 
L 303.935393 159.557281 
L 304.180046 160.963384 
L 304.669352 152.526767 
L 304.914005 157.026296 
L 305.158658 155.549888 
L 305.403311 149.011509 
L 305.647964 153.93287 
L 305.892617 153.862564 
L 306.13727 162.439792 
L 306.381923 166.658101 
L 306.626576 145.918083 
L 307.115882 159.13545 
L 307.360535 160.330638 
L 307.605188 166.798711 
L 307.849841 163.986505 
L 308.094494 170.735799 
L 308.339147 172.634038 
L 308.5838 168.275119 
L 308.828453 170.384273 
L 309.073107 169.610917 
L 309.31776 159.627586 
L 309.562413 161.244605 
L 309.807066 159.557281 
L 310.051719 167.361152 
L 310.541025 175.094718 
L 310.785678 167.712678 
L 311.274984 170.243663 
L 311.519637 164.338031 
L 311.76429 162.088266 
L 312.008943 165.533218 
L 312.253596 165.322303 
L 312.742902 162.369487 
L 313.232208 167.079931 
L 313.476861 165.041082 
L 313.721514 169.610917 
L 313.966167 170.103053 
L 314.21082 167.782983 
L 314.455473 166.587795 
L 314.700126 167.501762 
L 315.189432 185.851405 
L 315.434085 189.436967 
L 315.678738 195.061379 
L 315.923391 196.537787 
L 316.168044 200.40457 
L 316.412697 191.757037 
L 316.65735 190.140019 
L 316.902003 190.70246 
L 317.146656 186.132625 
L 317.391309 187.819949 
L 317.635962 192.319478 
L 318.369921 185.570184 
L 318.859227 182.054927 
L 319.10388 180.226993 
L 319.348533 180.789435 
L 319.593186 186.273236 
L 319.837839 183.250115 
L 320.082492 182.687673 
L 320.327145 183.32042 
L 320.571798 182.687673 
L 320.816451 185.570184 
L 321.061104 171.860681 
L 321.305757 172.844953 
L 321.55041 172.493428 
L 321.795063 175.094718 
L 322.039716 168.345424 
L 322.284369 187.116897 
L 322.529022 188.171475 
L 322.773675 190.421239 
L 323.018328 182.547063 
L 323.262981 179.102111 
L 323.507634 172.844953 
L 323.752287 174.110446 
L 323.99694 170.946714 
L 324.241593 174.180751 
L 324.486246 178.891196 
L 324.975552 174.321361 
L 325.220205 180.578519 
L 325.464858 181.14096 
L 325.709511 177.274177 
L 326.198817 180.156688 
L 326.44347 168.907865 
L 326.688123 167.290847 
L 326.932776 172.071597 
L 327.177429 173.126174 
L 327.422082 174.743192 
L 327.666735 168.486034 
L 327.911388 168.97817 
L 328.156041 171.930986 
L 328.400694 184.656217 
L 328.645347 185.570184 
L 328.89 181.070655 
L 329.134653 186.202931 
L 329.379306 186.835677 
L 329.623959 185.992015 
L 329.868612 190.069713 
L 330.113265 191.686732 
L 330.357918 191.827342 
L 330.602571 192.389783 
L 330.847224 190.210324 
L 331.091877 193.30375 
L 331.33653 192.178868 
L 331.581184 194.850463 
L 331.825837 194.077107 
L 332.07049 195.553515 
L 332.315143 193.795886 
L 332.559796 196.537787 
L 332.804449 201.670062 
L 333.049102 202.513724 
L 333.293755 198.0845 
L 333.783061 202.724639 
L 334.027714 211.372172 
L 334.272367 207.294474 
L 334.51702 205.536845 
L 334.761673 206.380507 
L 335.006326 203.00586 
L 335.250979 206.169591 
L 335.495632 204.833794 
L 335.740285 202.513724 
L 335.984938 196.115956 
L 336.229591 192.952224 
L 336.474244 192.460088 
L 336.718897 195.553515 
L 336.96355 196.397176 
L 337.208203 189.999408 
L 337.452856 188.874526 
L 337.697509 172.141902 
L 337.942162 164.830167 
L 338.186815 166.587795 
L 338.431468 171.227935 
L 338.676121 164.619251 
L 338.920774 174.532277 
L 339.165427 173.829225 
L 339.41008 177.696008 
L 339.654733 174.954108 
L 339.899386 180.648824 
L 340.144039 181.351876 
L 340.388692 182.828284 
L 340.633345 182.406453 
L 340.877998 180.648824 
L 341.122651 180.719129 
L 341.367304 174.883802 
L 341.85661 179.875468 
L 342.101263 176.571126 
L 342.345916 179.664552 
L 342.590569 179.453637 
L 342.835222 180.437909 
L 343.079875 179.242721 
L 343.324528 180.719129 
L 343.569181 184.023471 
L 343.813834 185.359269 
L 344.058487 178.188144 
L 344.30314 175.797769 
L 344.792446 166.025354 
L 345.037099 168.415729 
L 345.281752 169.118781 
L 345.526405 168.69695 
L 345.771058 165.884744 
L 346.015711 159.627586 
L 346.260364 159.557281 
L 346.505017 155.690498 
L 346.994323 158.432399 
L 347.238976 155.760803 
L 347.483629 151.823715 
L 347.728282 151.542495 
L 348.217588 144.933811 
L 348.462241 145.707168 
L 348.951547 141.699775 
L 349.1962 143.808929 
L 349.440853 144.863506 
L 349.685506 143.387098 
L 349.930159 142.684047 
L 350.419465 135.512922 
L 350.664118 134.950481 
L 350.908771 135.372312 
L 351.153424 136.145668 
L 351.398077 136.005058 
L 351.64273 138.817264 
L 351.887383 139.871841 
L 352.132036 137.12994 
L 352.376689 145.144727 
L 352.865995 124.615625 
L 353.110648 119.834875 
L 353.355301 120.327011 
L 353.599954 120.467621 
L 353.844607 121.873724 
L 354.089261 121.803419 
L 354.333914 124.404709 
L 354.82322 119.90518 
L 355.067873 111.749783 
L 355.557179 114.351074 
L 355.801832 116.811754 
L 356.046485 113.296496 
L 356.291138 117.163279 
L 356.535791 114.561989 
L 356.780444 115.897787 
L 357.025097 113.718327 
L 357.26975 116.108702 
L 357.514403 152.878292 
L 357.759056 142.824657 
L 358.003709 139.3094 
L 358.248362 141.277944 
L 358.493015 138.254822 
L 358.737668 141.277944 
L 358.982321 145.847778 
L 359.471627 136.708109 
L 359.71628 136.708109 
L 360.205586 139.59062 
L 360.694892 143.035572 
L 360.939545 140.926418 
L 361.184198 144.441675 
L 361.428851 156.885686 
L 361.673504 154.917142 
L 361.918157 147.816322 
L 362.16281 136.567499 
L 362.407463 136.426889 
L 362.652116 136.708109 
L 363.141422 138.606348 
L 363.386075 139.59062 
L 363.630728 138.254822 
L 364.120034 120.537926 
L 364.364687 119.342739 
L 364.60934 111.749783 
L 364.853993 111.609173 
L 365.098646 108.586052 
L 365.343299 107.953305 
L 365.587952 100.922791 
L 365.832605 102.891335 
L 366.077258 106.336287 
L 366.321911 102.117979 
L 366.811217 102.82103 
L 367.05587 105.211405 
L 367.300523 106.195677 
L 367.545176 104.508353 
L 367.789829 101.414927 
L 368.034482 118.428772 
L 368.279135 113.015276 
L 368.523788 116.530533 
L 369.013094 107.883 
L 369.257747 106.055067 
L 369.5024 120.889452 
L 369.747053 121.522198 
L 369.991706 126.724779 
L 370.236359 118.639687 
L 370.725665 122.22525 
L 370.970318 124.756235 
L 371.214971 111.187342 
L 371.459624 108.093916 
L 371.94893 116.319618 
L 372.193583 115.26504 
L 372.682889 111.820088 
L 372.927542 111.679478 
L 373.172195 108.867272 
L 373.661501 109.148493 
L 373.906154 106.336287 
L 374.39546 117.936636 
L 374.640113 117.092974 
L 374.884766 114.421379 
L 375.129419 117.374195 
L 375.374072 118.428772 
L 375.618725 125.107761 
L 375.863378 118.569382 
L 376.108031 115.475956 
L 376.352684 116.179007 
L 376.597338 118.920908 
L 376.841991 113.858938 
L 377.331297 78.143924 
L 377.57595 70.269748 
L 378.065256 64.082896 
L 378.309909 71.675851 
L 378.554562 67.106017 
L 378.799215 67.106017 
L 379.043868 63.942285 
L 379.288521 58.739705 
L 379.533174 49.24851 
L 379.777827 55.154142 
L 380.02248 49.459426 
L 380.267133 53.115293 
L 380.511786 54.521396 
L 380.756439 62.114352 
L 381.001092 60.637944 
L 381.490398 46.928441 
L 381.490398 46.928441 
" style="fill:none;stroke:#ff7f0e;stroke-linecap:square;stroke-width:1.5;"/>
   </g>
   <g id="patch_3">
    <path d="M 40.603125 288.430125 
L 40.603125 22.318125 
" style="fill:none;stroke:#000000;stroke-linecap:square;stroke-linejoin:miter;stroke-width:0.8;"/>
   </g>
   <g id="patch_4">
    <path d="M 397.723125 288.430125 
L 397.723125 22.318125 
" style="fill:none;stroke:#000000;stroke-linecap:square;stroke-linejoin:miter;stroke-width:0.8;"/>
   </g>
   <g id="patch_5">
    <path d="M 40.603125 288.430125 
L 397.723125 288.430125 
" style="fill:none;stroke:#000000;stroke-linecap:square;stroke-linejoin:miter;stroke-width:0.8;"/>
   </g>
   <g id="patch_6">
    <path d="M 40.603125 22.318125 
L 397.723125 22.318125 
" style="fill:none;stroke:#000000;stroke-linecap:square;stroke-linejoin:miter;stroke-width:0.8;"/>
   </g>
   <g id="text_18">
    <!-- Training: WMT -->
    <defs>
     <path d="M -0.296875 72.90625 
L 61.375 72.90625 
L 61.375 64.59375 
L 35.5 64.59375 
L 35.5 0 
L 25.59375 0 
L 25.59375 64.59375 
L -0.296875 64.59375 
z
" id="DejaVuSans-84"/>
     <path d="M 54.890625 33.015625 
L 54.890625 0 
L 45.90625 0 
L 45.90625 32.71875 
Q 45.90625 40.484375 42.875 44.328125 
Q 39.84375 48.1875 33.796875 48.1875 
Q 26.515625 48.1875 22.3125 43.546875 
Q 18.109375 38.921875 18.109375 30.90625 
L 18.109375 0 
L 9.078125 0 
L 9.078125 54.6875 
L 18.109375 54.6875 
L 18.109375 46.1875 
Q 21.34375 51.125 25.703125 53.5625 
Q 30.078125 56 35.796875 56 
Q 45.21875 56 50.046875 50.171875 
Q 54.890625 44.34375 54.890625 33.015625 
z
" id="DejaVuSans-110"/>
     <path d="M 45.40625 27.984375 
Q 45.40625 37.75 41.375 43.109375 
Q 37.359375 48.484375 30.078125 48.484375 
Q 22.859375 48.484375 18.828125 43.109375 
Q 14.796875 37.75 14.796875 27.984375 
Q 14.796875 18.265625 18.828125 12.890625 
Q 22.859375 7.515625 30.078125 7.515625 
Q 37.359375 7.515625 41.375 12.890625 
Q 45.40625 18.265625 45.40625 27.984375 
z
M 54.390625 6.78125 
Q 54.390625 -7.171875 48.1875 -13.984375 
Q 42 -20.796875 29.203125 -20.796875 
Q 24.46875 -20.796875 20.265625 -20.09375 
Q 16.0625 -19.390625 12.109375 -17.921875 
L 12.109375 -9.1875 
Q 16.0625 -11.328125 19.921875 -12.34375 
Q 23.78125 -13.375 27.78125 -13.375 
Q 36.625 -13.375 41.015625 -8.765625 
Q 45.40625 -4.15625 45.40625 5.171875 
L 45.40625 9.625 
Q 42.625 4.78125 38.28125 2.390625 
Q 33.9375 0 27.875 0 
Q 17.828125 0 11.671875 7.65625 
Q 5.515625 15.328125 5.515625 27.984375 
Q 5.515625 40.671875 11.671875 48.328125 
Q 17.828125 56 27.875 56 
Q 33.9375 56 38.28125 53.609375 
Q 42.625 51.21875 45.40625 46.390625 
L 45.40625 54.6875 
L 54.390625 54.6875 
z
" id="DejaVuSans-103"/>
     <path d="M 11.71875 12.40625 
L 22.015625 12.40625 
L 22.015625 0 
L 11.71875 0 
z
M 11.71875 51.703125 
L 22.015625 51.703125 
L 22.015625 39.3125 
L 11.71875 39.3125 
z
" id="DejaVuSans-58"/>
     <path d="M 3.328125 72.90625 
L 13.28125 72.90625 
L 28.609375 11.28125 
L 43.890625 72.90625 
L 54.984375 72.90625 
L 70.3125 11.28125 
L 85.59375 72.90625 
L 95.609375 72.90625 
L 77.296875 0 
L 64.890625 0 
L 49.515625 63.28125 
L 33.984375 0 
L 21.578125 0 
z
" id="DejaVuSans-87"/>
     <path d="M 9.8125 72.90625 
L 24.515625 72.90625 
L 43.109375 23.296875 
L 61.8125 72.90625 
L 76.515625 72.90625 
L 76.515625 0 
L 66.890625 0 
L 66.890625 64.015625 
L 48.09375 14.015625 
L 38.1875 14.015625 
L 19.390625 64.015625 
L 19.390625 0 
L 9.8125 0 
z
" id="DejaVuSans-77"/>
    </defs>
    <g transform="translate(176.79 16.318125)scale(0.12 -0.12)">
     <use xlink:href="#DejaVuSans-84"/>
     <use x="46.333984" xlink:href="#DejaVuSans-114"/>
     <use x="87.447266" xlink:href="#DejaVuSans-97"/>
     <use x="148.726562" xlink:href="#DejaVuSans-105"/>
     <use x="176.509766" xlink:href="#DejaVuSans-110"/>
     <use x="239.888672" xlink:href="#DejaVuSans-105"/>
     <use x="267.671875" xlink:href="#DejaVuSans-110"/>
     <use x="331.050781" xlink:href="#DejaVuSans-103"/>
     <use x="394.527344" xlink:href="#DejaVuSans-58"/>
     <use x="428.21875" xlink:href="#DejaVuSans-32"/>
     <use x="460.005859" xlink:href="#DejaVuSans-87"/>
     <use x="558.882812" xlink:href="#DejaVuSans-77"/>
     <use x="645.162109" xlink:href="#DejaVuSans-84"/>
    </g>
   </g>
   <g id="legend_1">
    <g id="patch_7">
     <path d="M 47.603125 59.674375 
L 131.33125 59.674375 
Q 133.33125 59.674375 133.33125 57.674375 
L 133.33125 29.318125 
Q 133.33125 27.318125 131.33125 27.318125 
L 47.603125 27.318125 
Q 45.603125 27.318125 45.603125 29.318125 
L 45.603125 57.674375 
Q 45.603125 59.674375 47.603125 59.674375 
z
" style="fill:#ffffff;opacity:0.8;stroke:#cccccc;stroke-linejoin:miter;"/>
    </g>
    <g id="line2d_33">
     <path d="M 49.603125 35.416562 
L 69.603125 35.416562 
" style="fill:none;stroke:#1f77b4;stroke-linecap:square;stroke-width:1.5;"/>
    </g>
    <g id="line2d_34"/>
    <g id="text_19">
     <!-- Predicted -->
     <defs>
      <path d="M 45.40625 46.390625 
L 45.40625 75.984375 
L 54.390625 75.984375 
L 54.390625 0 
L 45.40625 0 
L 45.40625 8.203125 
Q 42.578125 3.328125 38.25 0.953125 
Q 33.9375 -1.421875 27.875 -1.421875 
Q 17.96875 -1.421875 11.734375 6.484375 
Q 5.515625 14.40625 5.515625 27.296875 
Q 5.515625 40.1875 11.734375 48.09375 
Q 17.96875 56 27.875 56 
Q 33.9375 56 38.25 53.625 
Q 42.578125 51.265625 45.40625 46.390625 
z
M 14.796875 27.296875 
Q 14.796875 17.390625 18.875 11.75 
Q 22.953125 6.109375 30.078125 6.109375 
Q 37.203125 6.109375 41.296875 11.75 
Q 45.40625 17.390625 45.40625 27.296875 
Q 45.40625 37.203125 41.296875 42.84375 
Q 37.203125 48.484375 30.078125 48.484375 
Q 22.953125 48.484375 18.875 42.84375 
Q 14.796875 37.203125 14.796875 27.296875 
z
" id="DejaVuSans-100"/>
      <path d="M 18.3125 70.21875 
L 18.3125 54.6875 
L 36.8125 54.6875 
L 36.8125 47.703125 
L 18.3125 47.703125 
L 18.3125 18.015625 
Q 18.3125 11.328125 20.140625 9.421875 
Q 21.96875 7.515625 27.59375 7.515625 
L 36.8125 7.515625 
L 36.8125 0 
L 27.59375 0 
Q 17.1875 0 13.234375 3.875 
Q 9.28125 7.765625 9.28125 18.015625 
L 9.28125 47.703125 
L 2.6875 47.703125 
L 2.6875 54.6875 
L 9.28125 54.6875 
L 9.28125 70.21875 
z
" id="DejaVuSans-116"/>
     </defs>
     <g transform="translate(77.603125 38.916562)scale(0.1 -0.1)">
      <use xlink:href="#DejaVuSans-80"/>
      <use x="58.552734" xlink:href="#DejaVuSans-114"/>
      <use x="97.416016" xlink:href="#DejaVuSans-101"/>
      <use x="158.939453" xlink:href="#DejaVuSans-100"/>
      <use x="222.416016" xlink:href="#DejaVuSans-105"/>
      <use x="250.199219" xlink:href="#DejaVuSans-99"/>
      <use x="305.179688" xlink:href="#DejaVuSans-116"/>
      <use x="344.388672" xlink:href="#DejaVuSans-101"/>
      <use x="405.912109" xlink:href="#DejaVuSans-100"/>
     </g>
    </g>
    <g id="line2d_35">
     <path d="M 49.603125 50.094687 
L 69.603125 50.094687 
" style="fill:none;stroke:#ff7f0e;stroke-linecap:square;stroke-width:1.5;"/>
    </g>
    <g id="line2d_36"/>
    <g id="text_20">
     <!-- True value -->
     <defs>
      <path d="M 8.5 21.578125 
L 8.5 54.6875 
L 17.484375 54.6875 
L 17.484375 21.921875 
Q 17.484375 14.15625 20.5 10.265625 
Q 23.53125 6.390625 29.59375 6.390625 
Q 36.859375 6.390625 41.078125 11.03125 
Q 45.3125 15.671875 45.3125 23.6875 
L 45.3125 54.6875 
L 54.296875 54.6875 
L 54.296875 0 
L 45.3125 0 
L 45.3125 8.40625 
Q 42.046875 3.421875 37.71875 1 
Q 33.40625 -1.421875 27.6875 -1.421875 
Q 18.265625 -1.421875 13.375 4.4375 
Q 8.5 10.296875 8.5 21.578125 
z
M 31.109375 56 
z
" id="DejaVuSans-117"/>
      <path d="M 2.984375 54.6875 
L 12.5 54.6875 
L 29.59375 8.796875 
L 46.6875 54.6875 
L 56.203125 54.6875 
L 35.6875 0 
L 23.484375 0 
z
" id="DejaVuSans-118"/>
      <path d="M 9.421875 75.984375 
L 18.40625 75.984375 
L 18.40625 0 
L 9.421875 0 
z
" id="DejaVuSans-108"/>
     </defs>
     <g transform="translate(77.603125 53.594687)scale(0.1 -0.1)">
      <use xlink:href="#DejaVuSans-84"/>
      <use x="46.333984" xlink:href="#DejaVuSans-114"/>
      <use x="87.447266" xlink:href="#DejaVuSans-117"/>
      <use x="150.826172" xlink:href="#DejaVuSans-101"/>
      <use x="212.349609" xlink:href="#DejaVuSans-32"/>
      <use x="244.136719" xlink:href="#DejaVuSans-118"/>
      <use x="303.316406" xlink:href="#DejaVuSans-97"/>
      <use x="364.595703" xlink:href="#DejaVuSans-108"/>
      <use x="392.378906" xlink:href="#DejaVuSans-117"/>
      <use x="455.757812" xlink:href="#DejaVuSans-101"/>
     </g>
    </g>
   </g>
  </g>
 </g>
 <defs>
  <clipPath id="ped4f37b174">
   <rect height="266.112" width="357.12" x="40.603125" y="22.318125"/>
  </clipPath>
 </defs>
</svg>
