<?xml version="1.0" encoding="utf-8" standalone="no"?>
<!DOCTYPE svg PUBLIC "-//W3C//DTD SVG 1.1//EN"
  "http://www.w3.org/Graphics/SVG/1.1/DTD/svg11.dtd">
<!-- Created with matplotlib (https://matplotlib.org/) -->
<svg height="325.986375pt" version="1.1" viewBox="0 0 422.843437 325.986375" width="422.843437pt" xmlns="http://www.w3.org/2000/svg" xmlns:xlink="http://www.w3.org/1999/xlink">
 <defs>
  <style type="text/css">
*{stroke-linecap:butt;stroke-linejoin:round;}
  </style>
 </defs>
 <g id="figure_1">
  <g id="patch_1">
   <path d="M 0 325.986375 
L 422.843437 325.986375 
L 422.843437 0 
L 0 0 
z
" style="fill:#ffffff;"/>
  </g>
  <g id="axes_1">
   <g id="patch_2">
    <path d="M 58.523438 288.430125 
L 415.643438 288.430125 
L 415.643438 22.318125 
L 58.523438 22.318125 
z
" style="fill:#ffffff;"/>
   </g>
   <g id="matplotlib.axis_1">
    <g id="xtick_1">
     <g id="line2d_1">
      <path clip-path="url(#paba0a469d2)" d="M 74.756165 288.430125 
L 74.756165 22.318125 
" style="fill:none;stroke:#b0b0b0;stroke-dasharray:2.96,1.28;stroke-dashoffset:0;stroke-width:0.8;"/>
     </g>
     <g id="line2d_2">
      <defs>
       <path d="M 0 0 
L 0 3.5 
" id="m8159da0111" style="stroke:#000000;stroke-width:0.8;"/>
      </defs>
      <g>
       <use style="stroke:#000000;stroke-width:0.8;" x="74.756165" xlink:href="#m8159da0111" y="288.430125"/>
      </g>
     </g>
     <g id="text_1">
      <!-- 0 -->
      <defs>
       <path d="M 31.78125 66.40625 
Q 24.171875 66.40625 20.328125 58.90625 
Q 16.5 51.421875 16.5 36.375 
Q 16.5 21.390625 20.328125 13.890625 
Q 24.171875 6.390625 31.78125 6.390625 
Q 39.453125 6.390625 43.28125 13.890625 
Q 47.125 21.390625 47.125 36.375 
Q 47.125 51.421875 43.28125 58.90625 
Q 39.453125 66.40625 31.78125 66.40625 
z
M 31.78125 74.21875 
Q 44.046875 74.21875 50.515625 64.515625 
Q 56.984375 54.828125 56.984375 36.375 
Q 56.984375 17.96875 50.515625 8.265625 
Q 44.046875 -1.421875 31.78125 -1.421875 
Q 19.53125 -1.421875 13.0625 8.265625 
Q 6.59375 17.96875 6.59375 36.375 
Q 6.59375 54.828125 13.0625 64.515625 
Q 19.53125 74.21875 31.78125 74.21875 
z
" id="DejaVuSans-48"/>
      </defs>
      <g transform="translate(71.574915 303.028562)scale(0.1 -0.1)">
       <use xlink:href="#DejaVuSans-48"/>
      </g>
     </g>
    </g>
    <g id="xtick_2">
     <g id="line2d_3">
      <path clip-path="url(#paba0a469d2)" d="M 123.686767 288.430125 
L 123.686767 22.318125 
" style="fill:none;stroke:#b0b0b0;stroke-dasharray:2.96,1.28;stroke-dashoffset:0;stroke-width:0.8;"/>
     </g>
     <g id="line2d_4">
      <g>
       <use style="stroke:#000000;stroke-width:0.8;" x="123.686767" xlink:href="#m8159da0111" y="288.430125"/>
      </g>
     </g>
     <g id="text_2">
      <!-- 200 -->
      <defs>
       <path d="M 19.1875 8.296875 
L 53.609375 8.296875 
L 53.609375 0 
L 7.328125 0 
L 7.328125 8.296875 
Q 12.9375 14.109375 22.625 23.890625 
Q 32.328125 33.6875 34.8125 36.53125 
Q 39.546875 41.84375 41.421875 45.53125 
Q 43.3125 49.21875 43.3125 52.78125 
Q 43.3125 58.59375 39.234375 62.25 
Q 35.15625 65.921875 28.609375 65.921875 
Q 23.96875 65.921875 18.8125 64.3125 
Q 13.671875 62.703125 7.8125 59.421875 
L 7.8125 69.390625 
Q 13.765625 71.78125 18.9375 73 
Q 24.125 74.21875 28.421875 74.21875 
Q 39.75 74.21875 46.484375 68.546875 
Q 53.21875 62.890625 53.21875 53.421875 
Q 53.21875 48.921875 51.53125 44.890625 
Q 49.859375 40.875 45.40625 35.40625 
Q 44.1875 33.984375 37.640625 27.21875 
Q 31.109375 20.453125 19.1875 8.296875 
z
" id="DejaVuSans-50"/>
      </defs>
      <g transform="translate(114.143017 303.028562)scale(0.1 -0.1)">
       <use xlink:href="#DejaVuSans-50"/>
       <use x="63.623047" xlink:href="#DejaVuSans-48"/>
       <use x="127.246094" xlink:href="#DejaVuSans-48"/>
      </g>
     </g>
    </g>
    <g id="xtick_3">
     <g id="line2d_5">
      <path clip-path="url(#paba0a469d2)" d="M 172.617369 288.430125 
L 172.617369 22.318125 
" style="fill:none;stroke:#b0b0b0;stroke-dasharray:2.96,1.28;stroke-dashoffset:0;stroke-width:0.8;"/>
     </g>
     <g id="line2d_6">
      <g>
       <use style="stroke:#000000;stroke-width:0.8;" x="172.617369" xlink:href="#m8159da0111" y="288.430125"/>
      </g>
     </g>
     <g id="text_3">
      <!-- 400 -->
      <defs>
       <path d="M 37.796875 64.3125 
L 12.890625 25.390625 
L 37.796875 25.390625 
z
M 35.203125 72.90625 
L 47.609375 72.90625 
L 47.609375 25.390625 
L 58.015625 25.390625 
L 58.015625 17.1875 
L 47.609375 17.1875 
L 47.609375 0 
L 37.796875 0 
L 37.796875 17.1875 
L 4.890625 17.1875 
L 4.890625 26.703125 
z
" id="DejaVuSans-52"/>
      </defs>
      <g transform="translate(163.073619 303.028562)scale(0.1 -0.1)">
       <use xlink:href="#DejaVuSans-52"/>
       <use x="63.623047" xlink:href="#DejaVuSans-48"/>
       <use x="127.246094" xlink:href="#DejaVuSans-48"/>
      </g>
     </g>
    </g>
    <g id="xtick_4">
     <g id="line2d_7">
      <path clip-path="url(#paba0a469d2)" d="M 221.547971 288.430125 
L 221.547971 22.318125 
" style="fill:none;stroke:#b0b0b0;stroke-dasharray:2.96,1.28;stroke-dashoffset:0;stroke-width:0.8;"/>
     </g>
     <g id="line2d_8">
      <g>
       <use style="stroke:#000000;stroke-width:0.8;" x="221.547971" xlink:href="#m8159da0111" y="288.430125"/>
      </g>
     </g>
     <g id="text_4">
      <!-- 600 -->
      <defs>
       <path d="M 33.015625 40.375 
Q 26.375 40.375 22.484375 35.828125 
Q 18.609375 31.296875 18.609375 23.390625 
Q 18.609375 15.53125 22.484375 10.953125 
Q 26.375 6.390625 33.015625 6.390625 
Q 39.65625 6.390625 43.53125 10.953125 
Q 47.40625 15.53125 47.40625 23.390625 
Q 47.40625 31.296875 43.53125 35.828125 
Q 39.65625 40.375 33.015625 40.375 
z
M 52.59375 71.296875 
L 52.59375 62.3125 
Q 48.875 64.0625 45.09375 64.984375 
Q 41.3125 65.921875 37.59375 65.921875 
Q 27.828125 65.921875 22.671875 59.328125 
Q 17.53125 52.734375 16.796875 39.40625 
Q 19.671875 43.65625 24.015625 45.921875 
Q 28.375 48.1875 33.59375 48.1875 
Q 44.578125 48.1875 50.953125 41.515625 
Q 57.328125 34.859375 57.328125 23.390625 
Q 57.328125 12.15625 50.6875 5.359375 
Q 44.046875 -1.421875 33.015625 -1.421875 
Q 20.359375 -1.421875 13.671875 8.265625 
Q 6.984375 17.96875 6.984375 36.375 
Q 6.984375 53.65625 15.1875 63.9375 
Q 23.390625 74.21875 37.203125 74.21875 
Q 40.921875 74.21875 44.703125 73.484375 
Q 48.484375 72.75 52.59375 71.296875 
z
" id="DejaVuSans-54"/>
      </defs>
      <g transform="translate(212.004221 303.028562)scale(0.1 -0.1)">
       <use xlink:href="#DejaVuSans-54"/>
       <use x="63.623047" xlink:href="#DejaVuSans-48"/>
       <use x="127.246094" xlink:href="#DejaVuSans-48"/>
      </g>
     </g>
    </g>
    <g id="xtick_5">
     <g id="line2d_9">
      <path clip-path="url(#paba0a469d2)" d="M 270.478573 288.430125 
L 270.478573 22.318125 
" style="fill:none;stroke:#b0b0b0;stroke-dasharray:2.96,1.28;stroke-dashoffset:0;stroke-width:0.8;"/>
     </g>
     <g id="line2d_10">
      <g>
       <use style="stroke:#000000;stroke-width:0.8;" x="270.478573" xlink:href="#m8159da0111" y="288.430125"/>
      </g>
     </g>
     <g id="text_5">
      <!-- 800 -->
      <defs>
       <path d="M 31.78125 34.625 
Q 24.75 34.625 20.71875 30.859375 
Q 16.703125 27.09375 16.703125 20.515625 
Q 16.703125 13.921875 20.71875 10.15625 
Q 24.75 6.390625 31.78125 6.390625 
Q 38.8125 6.390625 42.859375 10.171875 
Q 46.921875 13.96875 46.921875 20.515625 
Q 46.921875 27.09375 42.890625 30.859375 
Q 38.875 34.625 31.78125 34.625 
z
M 21.921875 38.8125 
Q 15.578125 40.375 12.03125 44.71875 
Q 8.5 49.078125 8.5 55.328125 
Q 8.5 64.0625 14.71875 69.140625 
Q 20.953125 74.21875 31.78125 74.21875 
Q 42.671875 74.21875 48.875 69.140625 
Q 55.078125 64.0625 55.078125 55.328125 
Q 55.078125 49.078125 51.53125 44.71875 
Q 48 40.375 41.703125 38.8125 
Q 48.828125 37.15625 52.796875 32.3125 
Q 56.78125 27.484375 56.78125 20.515625 
Q 56.78125 9.90625 50.3125 4.234375 
Q 43.84375 -1.421875 31.78125 -1.421875 
Q 19.734375 -1.421875 13.25 4.234375 
Q 6.78125 9.90625 6.78125 20.515625 
Q 6.78125 27.484375 10.78125 32.3125 
Q 14.796875 37.15625 21.921875 38.8125 
z
M 18.3125 54.390625 
Q 18.3125 48.734375 21.84375 45.5625 
Q 25.390625 42.390625 31.78125 42.390625 
Q 38.140625 42.390625 41.71875 45.5625 
Q 45.3125 48.734375 45.3125 54.390625 
Q 45.3125 60.0625 41.71875 63.234375 
Q 38.140625 66.40625 31.78125 66.40625 
Q 25.390625 66.40625 21.84375 63.234375 
Q 18.3125 60.0625 18.3125 54.390625 
z
" id="DejaVuSans-56"/>
      </defs>
      <g transform="translate(260.934823 303.028562)scale(0.1 -0.1)">
       <use xlink:href="#DejaVuSans-56"/>
       <use x="63.623047" xlink:href="#DejaVuSans-48"/>
       <use x="127.246094" xlink:href="#DejaVuSans-48"/>
      </g>
     </g>
    </g>
    <g id="xtick_6">
     <g id="line2d_11">
      <path clip-path="url(#paba0a469d2)" d="M 319.409176 288.430125 
L 319.409176 22.318125 
" style="fill:none;stroke:#b0b0b0;stroke-dasharray:2.96,1.28;stroke-dashoffset:0;stroke-width:0.8;"/>
     </g>
     <g id="line2d_12">
      <g>
       <use style="stroke:#000000;stroke-width:0.8;" x="319.409176" xlink:href="#m8159da0111" y="288.430125"/>
      </g>
     </g>
     <g id="text_6">
      <!-- 1000 -->
      <defs>
       <path d="M 12.40625 8.296875 
L 28.515625 8.296875 
L 28.515625 63.921875 
L 10.984375 60.40625 
L 10.984375 69.390625 
L 28.421875 72.90625 
L 38.28125 72.90625 
L 38.28125 8.296875 
L 54.390625 8.296875 
L 54.390625 0 
L 12.40625 0 
z
" id="DejaVuSans-49"/>
      </defs>
      <g transform="translate(306.684176 303.028562)scale(0.1 -0.1)">
       <use xlink:href="#DejaVuSans-49"/>
       <use x="63.623047" xlink:href="#DejaVuSans-48"/>
       <use x="127.246094" xlink:href="#DejaVuSans-48"/>
       <use x="190.869141" xlink:href="#DejaVuSans-48"/>
      </g>
     </g>
    </g>
    <g id="xtick_7">
     <g id="line2d_13">
      <path clip-path="url(#paba0a469d2)" d="M 368.339778 288.430125 
L 368.339778 22.318125 
" style="fill:none;stroke:#b0b0b0;stroke-dasharray:2.96,1.28;stroke-dashoffset:0;stroke-width:0.8;"/>
     </g>
     <g id="line2d_14">
      <g>
       <use style="stroke:#000000;stroke-width:0.8;" x="368.339778" xlink:href="#m8159da0111" y="288.430125"/>
      </g>
     </g>
     <g id="text_7">
      <!-- 1200 -->
      <g transform="translate(355.614778 303.028562)scale(0.1 -0.1)">
       <use xlink:href="#DejaVuSans-49"/>
       <use x="63.623047" xlink:href="#DejaVuSans-50"/>
       <use x="127.246094" xlink:href="#DejaVuSans-48"/>
       <use x="190.869141" xlink:href="#DejaVuSans-48"/>
      </g>
     </g>
    </g>
    <g id="text_8">
     <!-- Day -->
     <defs>
      <path d="M 19.671875 64.796875 
L 19.671875 8.109375 
L 31.59375 8.109375 
Q 46.6875 8.109375 53.6875 14.9375 
Q 60.6875 21.78125 60.6875 36.53125 
Q 60.6875 51.171875 53.6875 57.984375 
Q 46.6875 64.796875 31.59375 64.796875 
z
M 9.8125 72.90625 
L 30.078125 72.90625 
Q 51.265625 72.90625 61.171875 64.09375 
Q 71.09375 55.28125 71.09375 36.53125 
Q 71.09375 17.671875 61.125 8.828125 
Q 51.171875 0 30.078125 0 
L 9.8125 0 
z
" id="DejaVuSans-68"/>
      <path d="M 34.28125 27.484375 
Q 23.390625 27.484375 19.1875 25 
Q 14.984375 22.515625 14.984375 16.5 
Q 14.984375 11.71875 18.140625 8.90625 
Q 21.296875 6.109375 26.703125 6.109375 
Q 34.1875 6.109375 38.703125 11.40625 
Q 43.21875 16.703125 43.21875 25.484375 
L 43.21875 27.484375 
z
M 52.203125 31.203125 
L 52.203125 0 
L 43.21875 0 
L 43.21875 8.296875 
Q 40.140625 3.328125 35.546875 0.953125 
Q 30.953125 -1.421875 24.3125 -1.421875 
Q 15.921875 -1.421875 10.953125 3.296875 
Q 6 8.015625 6 15.921875 
Q 6 25.140625 12.171875 29.828125 
Q 18.359375 34.515625 30.609375 34.515625 
L 43.21875 34.515625 
L 43.21875 35.40625 
Q 43.21875 41.609375 39.140625 45 
Q 35.0625 48.390625 27.6875 48.390625 
Q 23 48.390625 18.546875 47.265625 
Q 14.109375 46.140625 10.015625 43.890625 
L 10.015625 52.203125 
Q 14.9375 54.109375 19.578125 55.046875 
Q 24.21875 56 28.609375 56 
Q 40.484375 56 46.34375 49.84375 
Q 52.203125 43.703125 52.203125 31.203125 
z
" id="DejaVuSans-97"/>
      <path d="M 32.171875 -5.078125 
Q 28.375 -14.84375 24.75 -17.8125 
Q 21.140625 -20.796875 15.09375 -20.796875 
L 7.90625 -20.796875 
L 7.90625 -13.28125 
L 13.1875 -13.28125 
Q 16.890625 -13.28125 18.9375 -11.515625 
Q 21 -9.765625 23.484375 -3.21875 
L 25.09375 0.875 
L 2.984375 54.6875 
L 12.5 54.6875 
L 29.59375 11.921875 
L 46.6875 54.6875 
L 56.203125 54.6875 
z
" id="DejaVuSans-121"/>
     </defs>
     <g transform="translate(227.21 316.706687)scale(0.1 -0.1)">
      <use xlink:href="#DejaVuSans-68"/>
      <use x="77.001953" xlink:href="#DejaVuSans-97"/>
      <use x="138.28125" xlink:href="#DejaVuSans-121"/>
     </g>
    </g>
   </g>
   <g id="matplotlib.axis_2">
    <g id="ytick_1">
     <g id="line2d_15">
      <path clip-path="url(#paba0a469d2)" d="M 58.523438 261.032751 
L 415.643438 261.032751 
" style="fill:none;stroke:#b0b0b0;stroke-dasharray:2.96,1.28;stroke-dashoffset:0;stroke-width:0.8;"/>
     </g>
     <g id="line2d_16">
      <defs>
       <path d="M 0 0 
L -3.5 0 
" id="m0d8298cb80" style="stroke:#000000;stroke-width:0.8;"/>
      </defs>
      <g>
       <use style="stroke:#000000;stroke-width:0.8;" x="58.523438" xlink:href="#m0d8298cb80" y="261.032751"/>
      </g>
     </g>
     <g id="text_9">
      <!-- −10.0 -->
      <defs>
       <path d="M 10.59375 35.5 
L 73.1875 35.5 
L 73.1875 27.203125 
L 10.59375 27.203125 
z
" id="DejaVuSans-8722"/>
       <path d="M 10.6875 12.40625 
L 21 12.40625 
L 21 0 
L 10.6875 0 
z
" id="DejaVuSans-46"/>
      </defs>
      <g transform="translate(20.878125 264.83197)scale(0.1 -0.1)">
       <use xlink:href="#DejaVuSans-8722"/>
       <use x="83.789062" xlink:href="#DejaVuSans-49"/>
       <use x="147.412109" xlink:href="#DejaVuSans-48"/>
       <use x="211.035156" xlink:href="#DejaVuSans-46"/>
       <use x="242.822266" xlink:href="#DejaVuSans-48"/>
      </g>
     </g>
    </g>
    <g id="ytick_2">
     <g id="line2d_17">
      <path clip-path="url(#paba0a469d2)" d="M 58.523438 228.055652 
L 415.643438 228.055652 
" style="fill:none;stroke:#b0b0b0;stroke-dasharray:2.96,1.28;stroke-dashoffset:0;stroke-width:0.8;"/>
     </g>
     <g id="line2d_18">
      <g>
       <use style="stroke:#000000;stroke-width:0.8;" x="58.523438" xlink:href="#m0d8298cb80" y="228.055652"/>
      </g>
     </g>
     <g id="text_10">
      <!-- −7.5 -->
      <defs>
       <path d="M 8.203125 72.90625 
L 55.078125 72.90625 
L 55.078125 68.703125 
L 28.609375 0 
L 18.3125 0 
L 43.21875 64.59375 
L 8.203125 64.59375 
z
" id="DejaVuSans-55"/>
       <path d="M 10.796875 72.90625 
L 49.515625 72.90625 
L 49.515625 64.59375 
L 19.828125 64.59375 
L 19.828125 46.734375 
Q 21.96875 47.46875 24.109375 47.828125 
Q 26.265625 48.1875 28.421875 48.1875 
Q 40.625 48.1875 47.75 41.5 
Q 54.890625 34.8125 54.890625 23.390625 
Q 54.890625 11.625 47.5625 5.09375 
Q 40.234375 -1.421875 26.90625 -1.421875 
Q 22.3125 -1.421875 17.546875 -0.640625 
Q 12.796875 0.140625 7.71875 1.703125 
L 7.71875 11.625 
Q 12.109375 9.234375 16.796875 8.0625 
Q 21.484375 6.890625 26.703125 6.890625 
Q 35.15625 6.890625 40.078125 11.328125 
Q 45.015625 15.765625 45.015625 23.390625 
Q 45.015625 31 40.078125 35.4375 
Q 35.15625 39.890625 26.703125 39.890625 
Q 22.75 39.890625 18.8125 39.015625 
Q 14.890625 38.140625 10.796875 36.28125 
z
" id="DejaVuSans-53"/>
      </defs>
      <g transform="translate(27.240625 231.85487)scale(0.1 -0.1)">
       <use xlink:href="#DejaVuSans-8722"/>
       <use x="83.789062" xlink:href="#DejaVuSans-55"/>
       <use x="147.412109" xlink:href="#DejaVuSans-46"/>
       <use x="179.199219" xlink:href="#DejaVuSans-53"/>
      </g>
     </g>
    </g>
    <g id="ytick_3">
     <g id="line2d_19">
      <path clip-path="url(#paba0a469d2)" d="M 58.523438 195.078552 
L 415.643438 195.078552 
" style="fill:none;stroke:#b0b0b0;stroke-dasharray:2.96,1.28;stroke-dashoffset:0;stroke-width:0.8;"/>
     </g>
     <g id="line2d_20">
      <g>
       <use style="stroke:#000000;stroke-width:0.8;" x="58.523438" xlink:href="#m0d8298cb80" y="195.078552"/>
      </g>
     </g>
     <g id="text_11">
      <!-- −5.0 -->
      <g transform="translate(27.240625 198.877771)scale(0.1 -0.1)">
       <use xlink:href="#DejaVuSans-8722"/>
       <use x="83.789062" xlink:href="#DejaVuSans-53"/>
       <use x="147.412109" xlink:href="#DejaVuSans-46"/>
       <use x="179.199219" xlink:href="#DejaVuSans-48"/>
      </g>
     </g>
    </g>
    <g id="ytick_4">
     <g id="line2d_21">
      <path clip-path="url(#paba0a469d2)" d="M 58.523438 162.101453 
L 415.643438 162.101453 
" style="fill:none;stroke:#b0b0b0;stroke-dasharray:2.96,1.28;stroke-dashoffset:0;stroke-width:0.8;"/>
     </g>
     <g id="line2d_22">
      <g>
       <use style="stroke:#000000;stroke-width:0.8;" x="58.523438" xlink:href="#m0d8298cb80" y="162.101453"/>
      </g>
     </g>
     <g id="text_12">
      <!-- −2.5 -->
      <g transform="translate(27.240625 165.900672)scale(0.1 -0.1)">
       <use xlink:href="#DejaVuSans-8722"/>
       <use x="83.789062" xlink:href="#DejaVuSans-50"/>
       <use x="147.412109" xlink:href="#DejaVuSans-46"/>
       <use x="179.199219" xlink:href="#DejaVuSans-53"/>
      </g>
     </g>
    </g>
    <g id="ytick_5">
     <g id="line2d_23">
      <path clip-path="url(#paba0a469d2)" d="M 58.523438 129.124354 
L 415.643438 129.124354 
" style="fill:none;stroke:#b0b0b0;stroke-dasharray:2.96,1.28;stroke-dashoffset:0;stroke-width:0.8;"/>
     </g>
     <g id="line2d_24">
      <g>
       <use style="stroke:#000000;stroke-width:0.8;" x="58.523438" xlink:href="#m0d8298cb80" y="129.124354"/>
      </g>
     </g>
     <g id="text_13">
      <!-- 0.0 -->
      <g transform="translate(35.620313 132.923573)scale(0.1 -0.1)">
       <use xlink:href="#DejaVuSans-48"/>
       <use x="63.623047" xlink:href="#DejaVuSans-46"/>
       <use x="95.410156" xlink:href="#DejaVuSans-48"/>
      </g>
     </g>
    </g>
    <g id="ytick_6">
     <g id="line2d_25">
      <path clip-path="url(#paba0a469d2)" d="M 58.523438 96.147255 
L 415.643438 96.147255 
" style="fill:none;stroke:#b0b0b0;stroke-dasharray:2.96,1.28;stroke-dashoffset:0;stroke-width:0.8;"/>
     </g>
     <g id="line2d_26">
      <g>
       <use style="stroke:#000000;stroke-width:0.8;" x="58.523438" xlink:href="#m0d8298cb80" y="96.147255"/>
      </g>
     </g>
     <g id="text_14">
      <!-- 2.5 -->
      <g transform="translate(35.620313 99.946474)scale(0.1 -0.1)">
       <use xlink:href="#DejaVuSans-50"/>
       <use x="63.623047" xlink:href="#DejaVuSans-46"/>
       <use x="95.410156" xlink:href="#DejaVuSans-53"/>
      </g>
     </g>
    </g>
    <g id="ytick_7">
     <g id="line2d_27">
      <path clip-path="url(#paba0a469d2)" d="M 58.523438 63.170156 
L 415.643438 63.170156 
" style="fill:none;stroke:#b0b0b0;stroke-dasharray:2.96,1.28;stroke-dashoffset:0;stroke-width:0.8;"/>
     </g>
     <g id="line2d_28">
      <g>
       <use style="stroke:#000000;stroke-width:0.8;" x="58.523438" xlink:href="#m0d8298cb80" y="63.170156"/>
      </g>
     </g>
     <g id="text_15">
      <!-- 5.0 -->
      <g transform="translate(35.620313 66.969374)scale(0.1 -0.1)">
       <use xlink:href="#DejaVuSans-53"/>
       <use x="63.623047" xlink:href="#DejaVuSans-46"/>
       <use x="95.410156" xlink:href="#DejaVuSans-48"/>
      </g>
     </g>
    </g>
    <g id="ytick_8">
     <g id="line2d_29">
      <path clip-path="url(#paba0a469d2)" d="M 58.523438 30.193056 
L 415.643438 30.193056 
" style="fill:none;stroke:#b0b0b0;stroke-dasharray:2.96,1.28;stroke-dashoffset:0;stroke-width:0.8;"/>
     </g>
     <g id="line2d_30">
      <g>
       <use style="stroke:#000000;stroke-width:0.8;" x="58.523438" xlink:href="#m0d8298cb80" y="30.193056"/>
      </g>
     </g>
     <g id="text_16">
      <!-- 7.5 -->
      <g transform="translate(35.620313 33.992275)scale(0.1 -0.1)">
       <use xlink:href="#DejaVuSans-55"/>
       <use x="63.623047" xlink:href="#DejaVuSans-46"/>
       <use x="95.410156" xlink:href="#DejaVuSans-53"/>
      </g>
     </g>
    </g>
    <g id="text_17">
     <!-- Change $ -->
     <defs>
      <path d="M 64.40625 67.28125 
L 64.40625 56.890625 
Q 59.421875 61.53125 53.78125 63.8125 
Q 48.140625 66.109375 41.796875 66.109375 
Q 29.296875 66.109375 22.65625 58.46875 
Q 16.015625 50.828125 16.015625 36.375 
Q 16.015625 21.96875 22.65625 14.328125 
Q 29.296875 6.6875 41.796875 6.6875 
Q 48.140625 6.6875 53.78125 8.984375 
Q 59.421875 11.28125 64.40625 15.921875 
L 64.40625 5.609375 
Q 59.234375 2.09375 53.4375 0.328125 
Q 47.65625 -1.421875 41.21875 -1.421875 
Q 24.65625 -1.421875 15.125 8.703125 
Q 5.609375 18.84375 5.609375 36.375 
Q 5.609375 53.953125 15.125 64.078125 
Q 24.65625 74.21875 41.21875 74.21875 
Q 47.75 74.21875 53.53125 72.484375 
Q 59.328125 70.75 64.40625 67.28125 
z
" id="DejaVuSans-67"/>
      <path d="M 54.890625 33.015625 
L 54.890625 0 
L 45.90625 0 
L 45.90625 32.71875 
Q 45.90625 40.484375 42.875 44.328125 
Q 39.84375 48.1875 33.796875 48.1875 
Q 26.515625 48.1875 22.3125 43.546875 
Q 18.109375 38.921875 18.109375 30.90625 
L 18.109375 0 
L 9.078125 0 
L 9.078125 75.984375 
L 18.109375 75.984375 
L 18.109375 46.1875 
Q 21.34375 51.125 25.703125 53.5625 
Q 30.078125 56 35.796875 56 
Q 45.21875 56 50.046875 50.171875 
Q 54.890625 44.34375 54.890625 33.015625 
z
" id="DejaVuSans-104"/>
      <path d="M 54.890625 33.015625 
L 54.890625 0 
L 45.90625 0 
L 45.90625 32.71875 
Q 45.90625 40.484375 42.875 44.328125 
Q 39.84375 48.1875 33.796875 48.1875 
Q 26.515625 48.1875 22.3125 43.546875 
Q 18.109375 38.921875 18.109375 30.90625 
L 18.109375 0 
L 9.078125 0 
L 9.078125 54.6875 
L 18.109375 54.6875 
L 18.109375 46.1875 
Q 21.34375 51.125 25.703125 53.5625 
Q 30.078125 56 35.796875 56 
Q 45.21875 56 50.046875 50.171875 
Q 54.890625 44.34375 54.890625 33.015625 
z
" id="DejaVuSans-110"/>
      <path d="M 45.40625 27.984375 
Q 45.40625 37.75 41.375 43.109375 
Q 37.359375 48.484375 30.078125 48.484375 
Q 22.859375 48.484375 18.828125 43.109375 
Q 14.796875 37.75 14.796875 27.984375 
Q 14.796875 18.265625 18.828125 12.890625 
Q 22.859375 7.515625 30.078125 7.515625 
Q 37.359375 7.515625 41.375 12.890625 
Q 45.40625 18.265625 45.40625 27.984375 
z
M 54.390625 6.78125 
Q 54.390625 -7.171875 48.1875 -13.984375 
Q 42 -20.796875 29.203125 -20.796875 
Q 24.46875 -20.796875 20.265625 -20.09375 
Q 16.0625 -19.390625 12.109375 -17.921875 
L 12.109375 -9.1875 
Q 16.0625 -11.328125 19.921875 -12.34375 
Q 23.78125 -13.375 27.78125 -13.375 
Q 36.625 -13.375 41.015625 -8.765625 
Q 45.40625 -4.15625 45.40625 5.171875 
L 45.40625 9.625 
Q 42.625 4.78125 38.28125 2.390625 
Q 33.9375 0 27.875 0 
Q 17.828125 0 11.671875 7.65625 
Q 5.515625 15.328125 5.515625 27.984375 
Q 5.515625 40.671875 11.671875 48.328125 
Q 17.828125 56 27.875 56 
Q 33.9375 56 38.28125 53.609375 
Q 42.625 51.21875 45.40625 46.390625 
L 45.40625 54.6875 
L 54.390625 54.6875 
z
" id="DejaVuSans-103"/>
      <path d="M 56.203125 29.59375 
L 56.203125 25.203125 
L 14.890625 25.203125 
Q 15.484375 15.921875 20.484375 11.0625 
Q 25.484375 6.203125 34.421875 6.203125 
Q 39.59375 6.203125 44.453125 7.46875 
Q 49.3125 8.734375 54.109375 11.28125 
L 54.109375 2.78125 
Q 49.265625 0.734375 44.1875 -0.34375 
Q 39.109375 -1.421875 33.890625 -1.421875 
Q 20.796875 -1.421875 13.15625 6.1875 
Q 5.515625 13.8125 5.515625 26.8125 
Q 5.515625 40.234375 12.765625 48.109375 
Q 20.015625 56 32.328125 56 
Q 43.359375 56 49.78125 48.890625 
Q 56.203125 41.796875 56.203125 29.59375 
z
M 47.21875 32.234375 
Q 47.125 39.59375 43.09375 43.984375 
Q 39.0625 48.390625 32.421875 48.390625 
Q 24.90625 48.390625 20.390625 44.140625 
Q 15.875 39.890625 15.1875 32.171875 
z
" id="DejaVuSans-101"/>
      <path id="DejaVuSans-32"/>
      <path d="M 33.796875 -14.703125 
L 28.90625 -14.703125 
L 28.859375 0 
Q 23.734375 0.09375 18.609375 1.1875 
Q 13.484375 2.296875 8.296875 4.5 
L 8.296875 13.28125 
Q 13.28125 10.15625 18.375 8.5625 
Q 23.484375 6.984375 28.90625 6.9375 
L 28.90625 29.203125 
Q 18.109375 30.953125 13.203125 35.15625 
Q 8.296875 39.359375 8.296875 46.6875 
Q 8.296875 54.640625 13.625 59.21875 
Q 18.953125 63.8125 28.90625 64.5 
L 28.90625 75.984375 
L 33.796875 75.984375 
L 33.796875 64.65625 
Q 38.328125 64.453125 42.578125 63.6875 
Q 46.828125 62.9375 50.875 61.625 
L 50.875 53.078125 
Q 46.828125 55.125 42.546875 56.25 
Q 38.28125 57.375 33.796875 57.5625 
L 33.796875 36.71875 
Q 44.875 35.015625 50.09375 30.609375 
Q 55.328125 26.21875 55.328125 18.609375 
Q 55.328125 10.359375 49.78125 5.59375 
Q 44.234375 0.828125 33.796875 0.09375 
z
M 28.90625 37.59375 
L 28.90625 57.625 
Q 23.25 56.984375 20.265625 54.390625 
Q 17.28125 51.8125 17.28125 47.515625 
Q 17.28125 43.3125 20.03125 40.96875 
Q 22.796875 38.625 28.90625 37.59375 
z
M 33.796875 28.21875 
L 33.796875 7.078125 
Q 39.984375 7.90625 43.140625 10.59375 
Q 46.296875 13.28125 46.296875 17.671875 
Q 46.296875 21.96875 43.28125 24.5 
Q 40.28125 27.046875 33.796875 28.21875 
z
" id="DejaVuSans-36"/>
     </defs>
     <g transform="translate(14.798438 179.288187)rotate(-90)scale(0.1 -0.1)">
      <use xlink:href="#DejaVuSans-67"/>
      <use x="69.824219" xlink:href="#DejaVuSans-104"/>
      <use x="133.203125" xlink:href="#DejaVuSans-97"/>
      <use x="194.482422" xlink:href="#DejaVuSans-110"/>
      <use x="257.861328" xlink:href="#DejaVuSans-103"/>
      <use x="321.337891" xlink:href="#DejaVuSans-101"/>
      <use x="382.861328" xlink:href="#DejaVuSans-32"/>
      <use x="414.648438" xlink:href="#DejaVuSans-36"/>
     </g>
    </g>
   </g>
   <g id="line2d_31">
    <path clip-path="url(#paba0a469d2)" d="M 74.756165 111.15118 
L 75.000818 125.843149 
L 75.245471 130.897405 
L 75.490124 132.420298 
L 75.734777 132.769712 
L 76.224083 131.869254 
L 76.713389 130.312562 
L 76.958042 130.165916 
L 77.447348 129.364722 
L 77.692001 129.042863 
L 77.936654 129.100656 
L 78.181307 128.868675 
L 78.42596 128.929323 
L 78.915266 128.725056 
L 79.159919 128.175873 
L 79.649225 128.291589 
L 80.138531 127.87511 
L 80.627837 127.691722 
L 81.117143 126.949634 
L 81.361796 126.917233 
L 81.606449 126.670183 
L 81.851102 126.201057 
L 82.095755 125.448486 
L 82.340408 125.083209 
L 82.585061 124.930434 
L 83.074367 125.60935 
L 83.808326 125.205011 
L 84.052979 125.258364 
L 84.297632 125.453316 
L 84.542285 125.230592 
L 84.786938 126.097712 
L 85.031591 126.399816 
L 85.276244 126.423089 
L 85.76555 126.876036 
L 86.010203 126.616701 
L 86.499509 126.847659 
L 86.744162 127.041212 
L 87.233468 127.587886 
L 87.478121 127.491232 
L 87.722774 127.838455 
L 87.967427 127.801368 
L 88.456733 128.574069 
L 88.701386 128.608373 
L 88.946039 128.530219 
L 89.190692 128.042549 
L 89.435345 128.11296 
L 89.924651 127.596134 
L 90.169304 127.978642 
L 90.413957 127.877748 
L 90.65861 127.996176 
L 90.903263 127.90503 
L 91.637223 129.019287 
L 92.126529 129.181478 
L 92.615835 128.336535 
L 92.860488 129.299863 
L 93.105141 129.397497 
L 93.8391 129.002099 
L 94.083753 128.126341 
L 94.328406 128.08526 
L 94.573059 127.713293 
L 94.817712 127.657893 
L 95.307018 126.879108 
L 96.040977 127.025884 
L 96.28563 126.766087 
L 96.530283 126.969345 
L 96.774936 127.672111 
L 97.019589 127.913307 
L 97.264242 127.723113 
L 97.508895 128.216146 
L 97.998201 128.511372 
L 98.242854 128.483384 
L 98.487507 128.164135 
L 98.976813 128.070696 
L 99.466119 127.409834 
L 99.710772 127.354492 
L 99.955425 127.579797 
L 100.444731 127.472069 
L 100.934037 127.763863 
L 101.17869 128.001151 
L 101.423343 127.705319 
L 101.667996 128.076911 
L 101.912649 127.965895 
L 102.157302 128.361178 
L 102.401955 128.296261 
L 102.646608 128.966151 
L 102.891261 129.210332 
L 103.135914 128.753304 
L 103.380567 129.155033 
L 104.114526 128.340198 
L 104.359179 127.676293 
L 104.603832 127.852154 
L 104.848485 127.538629 
L 105.093138 128.096536 
L 105.337791 128.064265 
L 105.582444 127.606242 
L 106.07175 127.425219 
L 106.316403 128.04539 
L 106.805709 127.960963 
L 107.050362 128.377645 
L 107.295015 129.014081 
L 107.539668 128.176002 
L 107.784321 128.582288 
L 108.273627 128.852193 
L 108.51828 128.910765 
L 108.762933 128.190999 
L 109.496892 128.386312 
L 109.741545 128.217834 
L 109.986198 128.661307 
L 110.230851 128.413204 
L 110.475504 128.660802 
L 110.720157 128.418078 
L 110.96481 128.523831 
L 111.454116 128.000877 
L 111.698769 127.833336 
L 111.943422 127.346676 
L 112.188075 127.126576 
L 112.432728 127.261817 
L 112.677381 127.590554 
L 112.922034 127.584253 
L 113.166687 128.239549 
L 113.41134 128.420471 
L 113.655994 128.070105 
L 114.1453 128.384653 
L 114.389953 128.746325 
L 114.634606 128.571228 
L 114.879259 129.023094 
L 115.123912 128.774558 
L 115.368565 129.138724 
L 115.613218 128.522576 
L 115.857871 128.97088 
L 116.102524 128.405994 
L 116.347177 128.636635 
L 116.59183 128.223947 
L 116.836483 128.750131 
L 117.081136 128.953015 
L 117.325789 128.729137 
L 117.570442 128.94194 
L 117.815095 128.772698 
L 118.059748 128.939676 
L 118.549054 129.793848 
L 119.03836 128.44559 
L 119.283013 128.496866 
L 119.527666 128.237084 
L 120.016972 128.485331 
L 120.261625 128.404653 
L 120.506278 129.041089 
L 120.750931 128.483398 
L 120.995584 128.590579 
L 121.240237 128.000617 
L 121.48489 128.563787 
L 121.974196 128.540413 
L 122.218849 128.940772 
L 122.463502 128.90269 
L 122.708155 128.243659 
L 123.686767 129.77565 
L 123.93142 129.958331 
L 124.176073 129.861288 
L 124.420726 130.226406 
L 124.910032 129.118407 
L 125.399338 128.297963 
L 125.643991 128.80458 
L 125.888644 128.522403 
L 126.133297 128.023876 
L 126.622603 129.32266 
L 126.867256 129.657669 
L 127.111909 129.726018 
L 127.356562 129.566552 
L 127.601215 130.184257 
L 127.845868 129.415969 
L 128.090521 129.247808 
L 128.335174 128.773606 
L 128.579827 128.985992 
L 128.82448 128.983613 
L 129.069133 128.620283 
L 129.313786 129.225544 
L 129.803092 129.213792 
L 130.047745 130.186406 
L 130.292398 130.544155 
L 130.537051 129.830805 
L 130.781704 130.540103 
L 131.27101 130.321099 
L 131.515663 129.854756 
L 131.760316 130.08792 
L 132.004969 129.613315 
L 132.249622 129.974308 
L 132.494275 130.103436 
L 132.738928 129.86087 
L 132.983581 130.025916 
L 133.228234 129.214917 
L 133.472887 128.966944 
L 133.962193 129.16951 
L 134.206846 129.407 
L 134.451499 129.970156 
L 134.696152 130.093255 
L 134.940805 129.714353 
L 135.185458 129.710906 
L 135.430111 130.324588 
L 135.674764 130.416758 
L 135.919417 129.498924 
L 136.164071 129.778376 
L 136.408724 129.135999 
L 136.653377 128.995278 
L 136.89803 129.46103 
L 137.142683 129.429018 
L 137.631989 128.707853 
L 137.876642 128.93649 
L 138.121295 128.677414 
L 138.365948 128.594155 
L 138.610601 128.9792 
L 138.855254 129.09734 
L 139.099907 129.931944 
L 139.34456 129.090923 
L 139.589213 129.535045 
L 140.078519 128.925689 
L 140.323172 129.666436 
L 140.567825 129.201031 
L 140.812478 129.649623 
L 141.057131 129.856703 
L 141.301784 129.297281 
L 141.546437 129.218781 
L 141.79109 129.807489 
L 142.035743 129.900221 
L 142.280396 129.2747 
L 142.525049 129.995635 
L 143.503661 130.471538 
L 143.992967 129.463582 
L 144.482273 128.9561 
L 144.971579 129.830747 
L 145.216232 130.148915 
L 145.460885 130.115144 
L 145.705538 129.893573 
L 146.194844 129.081824 
L 146.439497 129.590604 
L 146.68415 129.248226 
L 146.928803 128.335584 
L 147.173456 128.177863 
L 147.662762 128.934139 
L 147.907415 128.652785 
L 148.152068 128.603946 
L 148.396721 128.273695 
L 148.641374 128.288388 
L 149.13068 127.964828 
L 149.619986 128.431113 
L 149.864639 128.165476 
L 150.109292 128.093724 
L 150.353945 129.057686 
L 150.598598 129.199762 
L 150.843251 129.507346 
L 151.332557 129.196546 
L 151.821863 129.953112 
L 152.311169 129.130043 
L 152.555822 129.069352 
L 152.800475 129.894006 
L 153.045128 130.03774 
L 153.289781 129.436286 
L 153.534434 130.146132 
L 154.02374 130.747225 
L 154.268393 130.576383 
L 154.513046 129.763855 
L 154.757699 129.586394 
L 155.002352 129.547677 
L 155.247005 129.328183 
L 155.491658 128.55564 
L 155.980964 128.531978 
L 156.225617 129.47059 
L 156.47027 129.512724 
L 156.714923 129.82746 
L 156.959576 129.362559 
L 157.204229 129.390129 
L 157.448882 128.855365 
L 157.693535 128.744825 
L 157.938188 129.499963 
L 158.182841 129.195696 
L 158.427494 130.094625 
L 158.672148 130.411192 
L 158.916801 130.095173 
L 159.161454 129.377685 
L 159.406107 129.845542 
L 160.140066 129.159892 
L 160.629372 129.821908 
L 160.874025 129.358276 
L 161.118678 129.426928 
L 161.363331 129.058768 
L 161.607984 129.481217 
L 162.09729 129.748008 
L 162.341943 129.114326 
L 162.586596 129.01137 
L 162.831249 129.453907 
L 163.075902 128.803253 
L 163.565208 128.524278 
L 163.809861 129.326654 
L 164.299167 128.870275 
L 164.54382 129.603971 
L 165.033126 130.188871 
L 165.522432 128.796894 
L 165.767085 128.442447 
L 166.011738 129.28602 
L 166.256391 129.150188 
L 166.501044 128.552367 
L 166.745697 129.369451 
L 166.99035 129.194903 
L 167.235003 129.835246 
L 167.724309 129.60338 
L 167.968962 128.923815 
L 168.213615 130.034625 
L 168.458268 130.359512 
L 168.702921 130.399628 
L 168.947574 129.185314 
L 169.192227 129.602529 
L 169.43688 129.509191 
L 169.681533 129.808037 
L 169.926186 130.354004 
L 170.170839 129.454671 
L 170.415492 129.644677 
L 170.660145 130.084892 
L 170.904798 129.639328 
L 171.149451 130.421387 
L 171.394104 130.360565 
L 171.638757 130.624356 
L 172.128063 129.464159 
L 172.617369 130.460521 
L 173.106675 129.936342 
L 173.351328 129.949146 
L 173.595981 130.129794 
L 174.32994 129.382948 
L 174.574593 130.142181 
L 174.819246 129.9811 
L 175.063899 130.881342 
L 175.308552 130.589375 
L 175.553205 130.698343 
L 175.797858 130.463679 
L 176.042511 131.150166 
L 176.287164 130.385482 
L 176.531817 130.231452 
L 176.77647 131.159221 
L 177.265776 129.814468 
L 177.510429 130.525799 
L 177.755082 130.390125 
L 177.999735 130.025022 
L 178.489041 131.056525 
L 178.733694 130.881024 
L 178.978347 130.952142 
L 179.223 131.591418 
L 179.467653 131.484382 
L 179.712306 132.176852 
L 179.956959 131.648419 
L 180.201612 132.090825 
L 180.446265 132.242389 
L 181.180225 130.686649 
L 181.424878 131.355716 
L 181.914184 132.030494 
L 182.40349 131.186258 
L 182.648143 131.505247 
L 182.892796 131.393957 
L 183.137449 131.65834 
L 183.382102 131.617244 
L 183.626755 131.443113 
L 183.871408 130.496902 
L 184.116061 130.380522 
L 184.85002 131.338643 
L 185.094673 130.487947 
L 185.339326 130.500752 
L 185.583979 130.216759 
L 185.828632 131.005076 
L 186.073285 131.071882 
L 186.317938 131.498946 
L 186.562591 131.286632 
L 186.807244 131.587612 
L 187.051897 131.36594 
L 187.29655 131.550337 
L 187.541203 130.48652 
L 187.785856 131.142509 
L 188.030509 130.076702 
L 188.275162 130.975328 
L 188.519815 130.141835 
L 188.764468 130.92995 
L 189.009121 131.134347 
L 189.253774 130.178662 
L 189.498427 130.722034 
L 189.74308 130.082296 
L 189.987733 129.788354 
L 190.232386 130.024416 
L 190.477039 131.074232 
L 190.721692 131.234895 
L 190.966345 130.138331 
L 191.210998 130.87269 
L 191.455651 131.193266 
L 192.18961 129.48214 
L 192.678916 130.161604 
L 192.923569 130.277408 
L 193.412875 131.090137 
L 193.657528 130.049478 
L 193.902181 130.888104 
L 194.146834 129.885138 
L 194.391487 129.675031 
L 194.63614 130.027401 
L 194.880793 129.12517 
L 195.125446 130.359109 
L 195.370099 129.485413 
L 195.614752 129.192437 
L 195.859405 129.11424 
L 196.104058 128.840614 
L 196.348711 129.67555 
L 196.593364 128.594746 
L 196.838017 129.580813 
L 197.08267 128.627608 
L 197.327323 129.473301 
L 197.571976 128.687897 
L 197.816629 129.443842 
L 198.061282 128.987593 
L 198.305935 129.693242 
L 198.795241 129.165703 
L 199.039894 129.444173 
L 199.284547 128.562562 
L 199.5292 128.179939 
L 199.773853 128.419087 
L 200.263159 129.528167 
L 200.507812 128.689295 
L 200.752465 129.808988 
L 200.997118 129.929218 
L 201.486424 130.65706 
L 201.731077 131.22966 
L 201.97573 130.190933 
L 202.465036 131.494346 
L 202.709689 130.466592 
L 202.954342 130.005267 
L 203.198995 130.911262 
L 203.443649 129.827662 
L 203.688302 129.423525 
L 204.177608 130.680319 
L 204.422261 130.010862 
L 204.666914 130.744933 
L 204.911567 129.759529 
L 205.15622 129.711656 
L 205.400873 129.158017 
L 205.645526 130.139686 
L 205.890179 129.208587 
L 206.134832 130.253745 
L 207.113444 132.429858 
L 207.358097 131.804395 
L 207.60275 131.502479 
L 207.847403 131.872974 
L 208.092056 131.290093 
L 208.336709 131.921871 
L 208.826015 132.551544 
L 209.315321 131.401902 
L 209.559974 131.627467 
L 209.804627 132.083572 
L 210.04928 131.55909 
L 210.293933 131.923703 
L 210.538586 131.980213 
L 210.783239 132.630491 
L 211.027892 132.611198 
L 211.272545 133.490733 
L 211.761851 131.736566 
L 212.006504 131.632528 
L 212.49581 130.557291 
L 212.740463 129.707345 
L 212.985116 130.451697 
L 213.229769 130.705913 
L 213.474422 129.716227 
L 213.719075 130.097639 
L 213.963728 129.237109 
L 214.208381 130.099009 
L 214.453034 130.303536 
L 214.697687 130.822337 
L 214.94234 130.531148 
L 215.186993 131.414548 
L 215.431646 131.485896 
L 215.920952 130.480406 
L 216.165605 131.538095 
L 216.410258 130.313557 
L 216.654911 131.109027 
L 216.899564 131.434418 
L 217.38887 129.68149 
L 217.633523 129.133677 
L 217.878176 128.895207 
L 218.122829 130.217494 
L 218.367482 130.001792 
L 218.612135 130.11549 
L 219.346094 131.613206 
L 219.590747 131.782189 
L 219.8354 130.722928 
L 220.080053 131.778772 
L 220.324706 132.113796 
L 220.569359 132.701147 
L 220.814012 131.700315 
L 221.058665 131.500157 
L 221.303318 132.53228 
L 221.547971 131.31452 
L 222.037277 130.534638 
L 222.28193 130.933065 
L 222.526583 130.725495 
L 222.771236 131.05951 
L 223.015889 131.041024 
L 223.260542 131.450554 
L 223.505195 130.374783 
L 223.749848 131.168046 
L 223.994501 131.474461 
L 224.239154 130.645697 
L 224.72846 129.862571 
L 224.973113 129.807546 
L 225.217766 129.495334 
L 225.462419 130.302123 
L 225.707072 130.462944 
L 226.441032 131.789096 
L 226.685685 130.819179 
L 226.930338 131.94611 
L 227.174991 131.994661 
L 227.419644 130.814752 
L 227.664297 130.258503 
L 227.90895 130.959712 
L 228.153603 129.968555 
L 228.398256 131.012992 
L 228.642909 130.215331 
L 228.887562 130.300435 
L 229.132215 131.159754 
L 229.376868 130.942913 
L 229.621521 131.581022 
L 229.866174 130.942956 
L 230.110827 128.263846 
L 230.35548 128.531416 
L 230.600133 128.066327 
L 230.844786 127.86927 
L 231.089439 129.392782 
L 231.334092 128.299246 
L 231.823398 129.580568 
L 232.068051 128.432887 
L 232.312704 127.936421 
L 232.557357 129.384203 
L 233.046663 130.514047 
L 233.291316 129.356286 
L 233.535969 130.27311 
L 233.780622 129.487576 
L 234.025275 129.113692 
L 234.514581 130.220969 
L 234.759234 129.26292 
L 235.003887 128.923642 
L 235.24854 128.837298 
L 235.493193 129.68511 
L 235.982499 128.904464 
L 236.471805 127.209806 
L 236.716458 128.513045 
L 236.961111 127.566574 
L 237.205764 128.788055 
L 237.450417 127.976839 
L 237.69507 129.112033 
L 237.939723 128.028822 
L 238.184376 128.01756 
L 238.429029 128.473074 
L 238.673682 129.964388 
L 239.162988 131.222494 
L 239.407641 130.225627 
L 239.652294 131.247051 
L 239.896947 131.612745 
L 240.1416 130.257941 
L 240.386253 129.538607 
L 240.875559 131.049402 
L 241.120212 131.731331 
L 241.364865 130.587082 
L 241.609518 131.85022 
L 241.854171 132.442994 
L 242.098824 132.524551 
L 242.343477 131.564829 
L 242.58813 132.185792 
L 242.832783 131.086806 
L 243.077436 132.29466 
L 243.322089 132.473188 
L 243.811395 133.435521 
L 244.300701 130.893771 
L 244.545354 130.451206 
L 245.03466 131.592197 
L 245.279313 130.149939 
L 245.523966 129.883076 
L 245.768619 129.174686 
L 246.013272 130.342872 
L 246.257925 129.491585 
L 246.502578 130.584227 
L 246.747231 129.095739 
L 246.991884 130.117956 
L 247.48119 131.371837 
L 247.725843 131.987624 
L 247.970496 130.518243 
L 248.215149 131.694662 
L 248.459803 130.198057 
L 248.704456 129.692219 
L 249.193762 131.441022 
L 249.438415 129.939846 
L 249.683068 131.156726 
L 249.927721 129.794626 
L 250.172374 131.14222 
L 250.417027 130.050328 
L 250.66168 131.577878 
L 251.150986 129.919081 
L 251.640292 131.201658 
L 251.884945 130.007646 
L 252.129598 131.241758 
L 252.618904 132.173002 
L 252.863557 132.045072 
L 253.10821 130.664472 
L 253.352863 131.815239 
L 253.597516 132.201106 
L 253.842169 130.958818 
L 254.086822 132.106485 
L 254.331475 132.520139 
L 254.576128 131.847063 
L 254.820781 132.750188 
L 255.065434 132.927952 
L 255.310087 131.231117 
L 255.55474 132.081986 
L 255.799393 132.060919 
L 256.044046 131.274145 
L 256.288699 132.69238 
L 256.533352 133.080295 
L 256.778005 132.976373 
L 257.022658 131.231708 
L 257.267311 132.333117 
L 257.511964 132.640124 
L 257.756617 130.919395 
L 258.00127 131.92911 
L 258.245923 130.410298 
L 258.490576 131.866529 
L 258.735229 130.526116 
L 258.979882 131.977387 
L 259.224535 130.501516 
L 259.469188 131.819622 
L 259.713841 131.896248 
L 259.958494 132.531227 
L 260.203147 130.763837 
L 260.4478 131.642449 
L 260.692453 132.070551 
L 260.937106 133.975332 
L 261.181759 133.569868 
L 261.426412 135.545333 
L 261.671065 135.410236 
L 261.915718 134.390629 
L 262.160371 132.681782 
L 262.405024 133.379934 
L 262.649677 131.216971 
L 262.89433 131.084369 
L 263.383636 128.793909 
L 263.628289 129.873126 
L 263.872942 129.068184 
L 264.117595 129.424375 
L 264.362248 131.341455 
L 264.851554 129.386726 
L 265.096207 129.896976 
L 265.34086 128.515453 
L 265.585513 128.454963 
L 265.830166 128.733506 
L 266.074819 129.579126 
L 266.319472 128.568805 
L 266.564125 128.59192 
L 266.808778 128.355281 
L 267.053431 129.497007 
L 267.298084 129.358045 
L 267.78739 127.779508 
L 268.276696 130.107242 
L 268.521349 129.300526 
L 268.766002 130.635344 
L 269.010655 129.534469 
L 269.255308 129.309697 
L 269.744614 128.380717 
L 269.989267 128.558669 
L 270.23392 129.519328 
L 270.478573 128.940455 
L 271.212533 130.666808 
L 271.457186 129.487519 
L 271.701839 129.021565 
L 272.191145 130.4182 
L 272.680451 131.702117 
L 272.925104 130.818775 
L 273.169757 131.140375 
L 273.41441 131.749269 
L 273.659063 131.932383 
L 274.148369 133.325197 
L 274.393022 132.456837 
L 274.637675 131.036035 
L 275.126981 132.837441 
L 275.616287 133.636558 
L 275.86094 132.560874 
L 276.350246 133.570084 
L 276.839552 131.65919 
L 277.084205 131.811115 
L 277.328858 132.244956 
L 277.573511 132.447594 
L 278.062817 130.023364 
L 278.30747 129.566264 
L 278.796776 131.244642 
L 279.041429 131.015819 
L 279.286082 131.463185 
L 279.530735 131.49622 
L 279.775388 130.158778 
L 280.020041 129.601087 
L 280.264694 131.015775 
L 280.754 130.226002 
L 280.998653 131.02274 
L 281.243306 129.911828 
L 281.487959 129.777179 
L 281.732612 130.146911 
L 281.977265 128.536174 
L 282.711224 127.100491 
L 282.955877 127.263244 
L 283.20053 128.4081 
L 283.445183 127.994215 
L 283.689836 128.179896 
L 283.934489 127.608593 
L 284.179142 128.266384 
L 284.423795 128.067264 
L 284.668448 129.995635 
L 284.913101 128.779648 
L 285.157754 130.230198 
L 285.402407 130.153284 
L 285.64706 128.428864 
L 286.136366 127.530511 
L 286.381019 127.303504 
L 286.625672 127.321427 
L 287.114978 126.360148 
L 287.359631 125.985239 
L 287.604284 127.312833 
L 288.09359 127.712082 
L 288.827549 131.528232 
L 289.072202 130.411726 
L 289.316855 131.006129 
L 289.806161 129.531527 
L 290.050814 130.28107 
L 290.54012 129.666811 
L 290.784773 129.736299 
L 291.029426 128.701552 
L 291.518732 129.394642 
L 291.763385 130.144849 
L 292.008038 129.776299 
L 292.252691 129.75578 
L 292.497344 130.858617 
L 292.741997 130.764082 
L 293.231303 132.169325 
L 293.475957 132.029254 
L 293.72061 131.361282 
L 294.209916 129.526091 
L 294.454569 130.193976 
L 294.699222 129.513575 
L 295.188528 131.309848 
L 295.433181 130.265583 
L 295.677834 131.352847 
L 295.922487 130.847095 
L 296.16714 129.911728 
L 296.411793 130.236932 
L 296.656446 129.250014 
L 296.901099 130.212202 
L 297.635058 129.142127 
L 297.879711 130.138504 
L 298.124364 130.418359 
L 298.369017 129.349898 
L 298.61367 130.62228 
L 298.858323 130.758271 
L 299.102976 129.647287 
L 299.592282 129.102805 
L 299.836935 128.942762 
L 300.081588 130.109492 
L 300.326241 130.395273 
L 300.570894 131.017765 
L 300.815547 131.315399 
L 301.0602 131.797892 
L 301.304853 130.442281 
L 301.549506 129.877596 
L 301.794159 129.691267 
L 302.038812 130.888422 
L 302.283465 130.24319 
L 302.528118 131.435485 
L 302.772771 130.204012 
L 303.017424 130.817997 
L 303.262077 130.347804 
L 303.751383 128.824291 
L 303.996036 128.784868 
L 304.240689 129.182098 
L 304.485342 129.887113 
L 304.729995 129.039979 
L 304.974648 130.136773 
L 305.219301 130.581631 
L 305.708607 131.930956 
L 306.197913 130.633095 
L 306.442566 131.387785 
L 306.931872 129.41359 
L 307.421178 130.563708 
L 307.665831 129.379574 
L 307.910484 130.01601 
L 308.644443 129.724547 
L 309.133749 128.225159 
L 309.623055 127.170339 
L 309.867708 127.929745 
L 310.112361 126.906981 
L 310.357014 128.306903 
L 310.601667 128.988501 
L 310.84632 127.754245 
L 311.090973 128.952236 
L 311.335626 127.972283 
L 311.580279 127.711462 
L 311.824932 129.192278 
L 312.314238 130.844168 
L 312.558891 129.757741 
L 313.29285 128.138685 
L 313.537503 129.545255 
L 313.782156 129.972636 
L 314.026809 128.857615 
L 314.271462 130.180825 
L 314.760768 131.346488 
L 315.250074 129.777381 
L 315.494727 130.993512 
L 315.984034 130.863 
L 316.228687 131.367627 
L 316.717993 131.532803 
L 316.962646 132.008807 
L 317.207299 130.680175 
L 317.451952 131.342306 
L 317.696605 129.951511 
L 318.430564 131.885693 
L 318.675217 130.795617 
L 318.91987 132.017487 
L 319.164523 130.759554 
L 319.409176 131.836089 
L 319.653829 130.717218 
L 320.877094 128.269225 
L 321.3664 127.272531 
L 321.611053 128.66347 
L 321.855706 127.601513 
L 322.100359 127.26845 
L 322.345012 128.164135 
L 322.589665 127.317376 
L 322.834318 128.623614 
L 323.078971 127.469617 
L 323.323624 128.323024 
L 323.568277 128.571199 
L 323.81293 127.733207 
L 324.057583 127.720806 
L 324.302236 129.28739 
L 324.791542 127.523229 
L 325.280848 126.590284 
L 325.525501 126.391078 
L 325.770154 127.951375 
L 326.014807 126.850009 
L 327.482725 125.251673 
L 327.727378 126.969475 
L 327.972031 126.172102 
L 328.216684 125.952348 
L 328.461337 127.362509 
L 328.70599 127.090455 
L 328.950643 128.106731 
L 329.195296 127.512443 
L 329.439949 127.377246 
L 329.929255 129.483928 
L 330.418561 131.024975 
L 330.663214 129.908959 
L 330.907867 130.688451 
L 331.15252 129.521361 
L 331.397173 129.353013 
L 331.641826 128.837298 
L 331.886479 129.93128 
L 332.131132 129.016244 
L 332.375785 129.843076 
L 332.620438 128.808963 
L 332.865091 130.107026 
L 333.109744 129.049049 
L 333.354397 130.168165 
L 333.59905 129.151125 
L 333.843703 130.529995 
L 334.088356 129.549725 
L 334.577662 128.623456 
L 334.822315 129.933458 
L 335.066968 128.966381 
L 335.311621 130.156298 
L 335.556274 130.354394 
L 335.800927 130.939871 
L 336.04558 131.049604 
L 336.290233 131.673192 
L 336.534886 130.775603 
L 337.024192 131.891086 
L 337.268845 130.711032 
L 337.513498 130.506534 
L 338.002804 129.577511 
L 338.247458 130.10358 
L 338.492111 129.372898 
L 338.736764 129.680178 
L 338.981417 128.496722 
L 339.470723 130.225295 
L 339.715376 129.795102 
L 339.960029 130.634436 
L 340.204682 129.661361 
L 340.693988 130.867672 
L 341.183294 129.576343 
L 341.427947 130.851493 
L 342.406559 132.021813 
L 342.895865 129.880697 
L 343.140518 129.274816 
L 343.629824 130.170833 
L 344.11913 130.320709 
L 344.363783 130.537796 
L 344.853089 129.027232 
L 345.342395 131.001039 
L 345.587048 129.722125 
L 346.321007 131.736436 
L 346.56566 130.183392 
L 346.810313 129.361275 
L 347.054966 130.627586 
L 347.299619 129.590287 
L 347.544272 130.748393 
L 347.788925 129.414022 
L 348.033578 129.915145 
L 348.278231 129.977755 
L 348.522884 128.620139 
L 348.767537 129.328269 
L 349.01219 128.348806 
L 349.256843 129.888743 
L 349.501496 130.321041 
L 349.746149 129.851886 
L 349.990802 131.089849 
L 350.235455 129.66883 
L 350.480108 130.900275 
L 350.724761 129.88172 
L 350.969414 131.079221 
L 351.214067 129.770401 
L 351.703373 131.403027 
L 351.948026 132.104927 
L 352.192679 132.129945 
L 352.437332 131.859954 
L 352.681985 130.368049 
L 352.926638 131.452731 
L 353.415944 129.663711 
L 353.90525 128.466802 
L 354.149903 130.031136 
L 354.394556 130.736166 
L 354.639209 129.19832 
L 354.883862 130.389217 
L 355.128515 130.762467 
L 355.373168 129.145963 
L 355.617821 130.257162 
L 356.107127 128.203919 
L 356.35178 129.665312 
L 356.596433 128.450551 
L 356.841086 129.704634 
L 357.085739 128.332238 
L 357.330392 127.653683 
L 357.575045 128.826079 
L 357.819698 127.73374 
L 358.064351 129.055119 
L 358.309004 127.942348 
L 358.553657 129.505759 
L 358.79831 128.161698 
L 359.042963 129.733012 
L 359.287616 128.422865 
L 359.532269 129.696631 
L 359.776922 130.1981 
L 360.021575 128.993086 
L 360.266228 128.380847 
L 360.510881 129.842571 
L 360.755535 130.361387 
L 361.000188 129.421549 
L 361.244841 130.831032 
L 361.489494 131.524641 
L 361.734147 130.056485 
L 361.9788 131.325132 
L 362.223453 131.717272 
L 362.468106 130.388856 
L 362.957412 132.099506 
L 363.202065 130.57706 
L 363.691371 129.010952 
L 363.936024 130.536123 
L 364.42533 128.660427 
L 364.669983 129.984705 
L 364.914636 128.514444 
L 365.159289 130.019355 
L 365.648595 131.223777 
L 365.893248 129.952982 
L 366.137901 130.937203 
L 366.382554 129.478031 
L 366.627207 129.040772 
L 367.361166 131.477086 
L 367.605819 129.984835 
L 368.095125 128.714904 
L 368.339778 129.013404 
L 368.584431 128.302029 
L 368.829084 129.710301 
L 369.073737 128.466845 
L 369.31839 129.579876 
L 369.563043 128.528561 
L 369.807696 127.993552 
L 370.052349 129.680092 
L 370.297002 128.42373 
L 370.786308 127.599783 
L 371.030961 129.240641 
L 371.275614 129.682803 
L 371.520267 130.447976 
L 371.76492 129.089943 
L 372.009573 130.212923 
L 372.254226 128.807175 
L 372.498879 129.766883 
L 372.743532 128.370032 
L 372.988185 127.672587 
L 373.232838 129.222833 
L 373.477491 128.296146 
L 373.966797 127.711188 
L 374.21145 129.273143 
L 374.456103 128.442144 
L 374.700756 129.392782 
L 374.945409 129.553964 
L 375.190062 128.441524 
L 376.168674 126.438114 
L 376.413327 126.534812 
L 376.65798 127.856249 
L 376.902633 126.871782 
L 377.147286 128.082982 
L 377.391939 128.721047 
L 377.636592 127.574087 
L 377.881245 128.488517 
L 378.125898 127.825809 
L 378.370551 129.307274 
L 378.615204 129.771065 
L 378.859857 129.347144 
L 379.10451 129.612998 
L 379.349163 128.966093 
L 379.593816 130.336282 
L 380.083122 131.346704 
L 380.327775 129.895751 
L 380.572428 130.825235 
L 380.817081 129.55082 
L 381.061734 130.414552 
L 381.306387 130.689129 
L 381.55104 131.263633 
L 382.040346 129.364794 
L 382.284999 129.041406 
L 382.529652 130.366073 
L 382.774305 129.644764 
L 383.263612 127.78454 
L 383.508265 129.172004 
L 383.752918 128.734155 
L 383.997571 130.225598 
L 384.242224 129.449884 
L 384.486877 129.363885 
L 384.73153 130.490918 
L 384.976183 129.864662 
L 385.220836 130.098245 
L 385.465489 131.312068 
L 385.710142 129.956702 
L 385.954795 131.13566 
L 386.199448 131.343748 
L 386.688754 129.328053 
L 386.933407 130.306939 
L 387.17806 130.088237 
L 387.422713 129.28974 
L 387.667366 130.637781 
L 387.912019 130.889143 
L 388.645978 132.603642 
L 388.890631 131.92177 
L 389.135284 132.972624 
L 389.379937 133.507763 
L 389.62459 131.917055 
L 390.358549 134.774377 
L 390.603202 134.648638 
L 390.847855 134.319714 
L 391.092508 132.80543 
L 391.337161 133.147779 
L 391.581814 131.734273 
L 391.826467 132.577182 
L 392.07112 132.572525 
L 392.560426 130.142282 
L 392.805079 130.718473 
L 393.049732 129.80374 
L 393.294385 130.726 
L 393.539038 129.922081 
L 393.783691 130.891306 
L 394.272997 131.166575 
L 394.51765 129.897914 
L 395.251609 128.469585 
L 395.496262 129.868599 
L 395.740915 129.092423 
L 395.985568 129.08478 
L 396.230221 130.368424 
L 396.719527 131.24372 
L 396.96418 129.83216 
L 397.453486 131.173093 
L 397.698139 130.147458 
L 398.187445 129.183338 
L 398.432098 130.207891 
L 398.676751 128.906137 
L 399.166057 128.021165 
L 399.41071 128.936187 
L 399.41071 128.936187 
" style="fill:none;stroke:#1f77b4;stroke-linecap:square;stroke-width:1.5;"/>
   </g>
   <g id="line2d_32">
    <path clip-path="url(#paba0a469d2)" d="M 74.756165 110.52527 
L 75.000818 126.090461 
L 75.490124 137.830308 
L 75.97943 127.01382 
L 76.224083 118.703591 
L 76.468736 130.707255 
L 76.713389 127.01382 
L 76.958042 120.154583 
L 77.202695 136.115499 
L 77.447348 133.213514 
L 77.692001 126.354278 
L 77.936654 131.366797 
L 78.181307 126.486186 
L 78.42596 124.375652 
L 78.670613 126.354278 
L 78.915266 129.256262 
L 79.159919 139.808934 
L 79.404572 128.860537 
L 79.649225 135.587865 
L 79.893878 123.979927 
L 80.138531 128.200995 
L 80.383184 129.124354 
L 80.627837 123.71611 
L 80.87249 137.302675 
L 81.117143 128.464812 
L 81.361796 126.618094 
L 81.606449 114.218705 
L 81.851102 115.010156 
L 82.095755 130.707255 
L 82.340408 132.026339 
L 82.585061 128.59672 
L 82.829714 127.277636 
L 83.074367 117.252598 
L 83.31902 132.422064 
L 83.563673 131.762522 
L 83.808326 132.422064 
L 84.052979 118.571682 
L 84.297632 129.651988 
L 84.786938 126.750003 
L 85.031591 134.136873 
L 85.276244 137.038858 
L 85.520897 120.682217 
L 85.76555 133.081606 
L 86.010203 131.89443 
L 86.254856 134.796415 
L 86.499509 118.175957 
L 86.744162 127.01382 
L 86.988815 124.639469 
L 87.233468 137.566491 
L 87.478121 139.940843 
L 87.722774 133.081606 
L 87.967427 140.600385 
L 88.21208 125.826644 
L 88.456733 126.486186 
L 88.701386 123.188476 
L 88.946039 115.273972 
L 89.435345 135.983591 
L 89.679998 130.575346 
L 89.924651 142.710919 
L 90.169304 130.575346 
L 90.413957 134.268781 
L 90.65861 131.498705 
L 90.903263 141.78756 
L 91.147917 120.4184 
L 91.39257 128.069087 
L 91.637223 123.056568 
L 91.881876 127.145728 
L 92.126529 134.268781 
L 92.371182 129.651988 
L 92.615835 168.433056 
L 92.860488 123.979927 
L 93.105141 122.397026 
L 93.349794 139.545117 
L 93.594447 125.167102 
L 93.8391 129.783896 
L 94.083753 122.660843 
L 94.328406 122.133209 
L 94.573059 125.958552 
L 94.817712 121.473667 
L 95.062365 132.158247 
L 95.307018 134.796415 
L 95.551671 121.20985 
L 95.796324 122.265117 
L 96.040977 129.915804 
L 96.28563 134.004965 
L 96.774936 125.29901 
L 97.019589 136.115499 
L 97.264242 126.750003 
L 97.508895 128.332904 
L 97.753548 126.750003 
L 97.998201 127.01382 
L 98.242854 136.115499 
L 98.487507 134.928323 
L 98.73216 121.077942 
L 98.976813 116.724965 
L 99.221466 132.817789 
L 99.466119 116.065423 
L 99.710772 141.391835 
L 99.955425 130.707255 
L 100.200078 129.520079 
L 100.444731 133.345423 
L 100.689384 134.136873 
L 101.17869 111.844354 
L 101.423343 127.673362 
L 101.667996 116.197331 
L 101.912649 145.217178 
L 102.157302 131.89443 
L 102.401955 128.860537 
L 102.646608 128.992446 
L 102.891261 131.89443 
L 103.135914 128.992446 
L 103.380567 122.528934 
L 103.62522 123.320385 
L 103.869873 117.516415 
L 104.114526 130.047713 
L 104.359179 123.979927 
L 104.603832 113.03153 
L 104.848485 129.124354 
L 105.093138 123.452293 
L 105.582444 134.004965 
L 105.827097 131.762522 
L 106.07175 127.937178 
L 106.316403 119.758858 
L 106.561056 138.226033 
L 106.805709 123.979927 
L 107.050362 126.090461 
L 107.295015 131.234888 
L 107.539668 125.167102 
L 107.784321 127.937178 
L 108.028974 126.486186 
L 108.273627 128.992446 
L 108.51828 130.179621 
L 108.762933 119.495041 
L 109.007586 127.541453 
L 109.252239 144.030003 
L 109.741545 128.069087 
L 109.986198 137.830308 
L 110.230851 125.035194 
L 110.475504 121.473667 
L 110.720157 127.673362 
L 110.96481 119.363133 
L 111.209463 122.924659 
L 111.454116 120.154583 
L 111.698769 130.707255 
L 111.943422 129.651988 
L 112.188075 115.010156 
L 112.677381 136.379316 
L 112.922034 126.090461 
L 113.166687 123.71611 
L 113.655994 139.017484 
L 113.900647 135.983591 
L 114.1453 120.814125 
L 114.389953 137.434583 
L 114.634606 122.924659 
L 114.879259 136.643133 
L 115.123912 123.584201 
L 115.368565 131.234888 
L 115.613218 124.771377 
L 115.857871 130.575346 
L 116.102524 118.967407 
L 116.347177 131.89443 
L 116.59183 124.639469 
L 116.836483 127.673362 
L 117.081136 114.350614 
L 117.325789 124.903285 
L 117.570442 116.32924 
L 118.059748 129.124354 
L 118.304401 151.153056 
L 118.549054 104.457484 
L 118.793707 130.047713 
L 119.03836 138.226033 
L 119.283013 108.414736 
L 119.527666 123.188476 
L 119.772319 121.473667 
L 120.016972 137.6984 
L 120.261625 128.332904 
L 120.506278 130.839163 
L 120.750931 114.218705 
L 120.995584 131.234888 
L 121.48489 120.286491 
L 121.729543 116.988781 
L 121.974196 125.694736 
L 122.218849 115.801606 
L 122.463502 130.179621 
L 122.708155 120.154583 
L 122.952808 122.133209 
L 123.197461 127.541453 
L 123.442114 127.145728 
L 123.686767 126.486186 
L 123.93142 144.953362 
L 124.176073 127.673362 
L 124.420726 135.19214 
L 124.665379 132.949698 
L 124.910032 132.553972 
L 125.154685 133.60924 
L 125.399338 125.694736 
L 125.643991 113.295346 
L 126.133297 150.361606 
L 126.37795 149.833972 
L 126.622603 119.626949 
L 126.867256 121.869392 
L 127.111909 145.349087 
L 127.601215 106.568018 
L 127.845868 142.57901 
L 128.090521 129.520079 
L 128.335174 139.808934 
L 128.579827 111.844354 
L 128.82448 135.719774 
L 129.069133 120.022675 
L 129.313786 118.571682 
L 129.803092 160.122827 
L 130.047745 119.231224 
L 130.292398 132.949698 
L 130.781704 120.682217 
L 131.026357 122.397026 
L 131.27101 136.643133 
L 131.515663 118.835499 
L 131.760316 137.962217 
L 132.004969 124.50756 
L 132.249622 126.354278 
L 132.494275 117.384507 
L 132.738928 126.090461 
L 132.983581 129.520079 
L 133.228234 107.095652 
L 133.71754 142.974736 
L 133.962193 140.99611 
L 134.206846 124.771377 
L 134.451499 123.056568 
L 134.696152 137.830308 
L 134.940805 139.149392 
L 135.185458 128.464812 
L 135.430111 126.618094 
L 135.674764 130.31153 
L 135.919417 123.452293 
L 136.164071 134.004965 
L 136.408724 134.796415 
L 136.653377 122.924659 
L 136.89803 119.758858 
L 137.142683 113.954888 
L 137.387336 135.587865 
L 137.631989 115.537789 
L 137.876642 144.161911 
L 138.121295 131.234888 
L 138.365948 142.57901 
L 138.610601 139.677026 
L 138.855254 128.464812 
L 139.099907 129.388171 
L 139.34456 149.965881 
L 139.589213 131.89443 
L 139.833866 133.60924 
L 140.078519 128.464812 
L 140.323172 138.885575 
L 140.567825 122.528934 
L 141.301784 137.830308 
L 141.546437 127.541453 
L 141.79109 125.562827 
L 142.035743 132.422064 
L 142.280396 127.80527 
L 142.525049 126.750003 
L 142.769702 126.618094 
L 143.014355 127.937178 
L 143.259008 126.486186 
L 143.503661 112.767713 
L 143.748314 114.482522 
L 143.992967 108.678552 
L 144.23762 113.295346 
L 144.482273 125.826644 
L 144.726926 128.59672 
L 144.971579 127.409545 
L 145.216232 147.459621 
L 145.705538 132.553972 
L 145.950191 134.796415 
L 146.439497 118.703591 
L 146.928803 138.357942 
L 147.173456 124.639469 
L 147.418109 128.464812 
L 147.662762 140.468476 
L 147.907415 112.240079 
L 148.152068 138.48985 
L 148.396721 136.906949 
L 148.641374 134.532598 
L 148.886027 102.874583 
L 149.13068 120.814125 
L 149.375333 120.946033 
L 149.619986 134.268781 
L 149.864639 130.31153 
L 150.109292 128.200995 
L 150.353945 119.495041 
L 150.598598 123.056568 
L 150.843251 110.789087 
L 151.087904 140.732293 
L 151.332557 116.856873 
L 151.821863 132.553972 
L 152.066516 130.179621 
L 152.311169 135.060232 
L 152.555822 127.541453 
L 152.800475 123.584201 
L 153.045128 131.762522 
L 153.289781 128.59672 
L 153.534434 127.145728 
L 153.779087 153.527407 
L 154.02374 110.261453 
L 154.268393 132.290156 
L 154.513046 136.643133 
L 154.757699 113.295346 
L 155.002352 115.273972 
L 155.247005 129.388171 
L 155.491658 135.719774 
L 155.736311 134.136873 
L 156.225617 119.758858 
L 156.47027 125.694736 
L 156.714923 135.19214 
L 156.959576 110.129545 
L 157.204229 134.532598 
L 157.448882 132.158247 
L 157.693535 124.243743 
L 157.938188 142.447102 
L 158.182841 128.200995 
L 158.427494 125.694736 
L 158.672148 112.899621 
L 158.916801 133.741148 
L 159.161454 123.056568 
L 159.406107 142.974736 
L 159.65076 140.864201 
L 160.140066 117.384507 
L 160.384719 127.145728 
L 160.629372 108.810461 
L 160.874025 118.967407 
L 161.118678 136.643133 
L 161.363331 117.516415 
L 161.607984 121.605575 
L 161.852637 118.967407 
L 162.09729 132.685881 
L 162.341943 104.325575 
L 162.586596 126.881911 
L 162.831249 130.839163 
L 163.075902 131.234888 
L 163.320555 132.949698 
L 163.565208 122.265117 
L 163.809861 143.898094 
L 164.299167 122.660843 
L 164.54382 157.088934 
L 164.788473 113.559163 
L 165.033126 131.366797 
L 165.277779 130.047713 
L 165.522432 132.158247 
L 165.767085 126.222369 
L 166.011738 114.482522 
L 166.501044 156.429392 
L 166.99035 120.814125 
L 167.235003 149.570156 
L 167.479656 104.193667 
L 167.968962 163.684354 
L 168.213615 115.142064 
L 168.458268 119.758858 
L 168.702921 78.999163 
L 168.947574 127.673362 
L 169.192227 110.789087 
L 169.681533 127.541453 
L 169.926186 129.256262 
L 170.170839 111.580537 
L 170.660145 138.48985 
L 171.149451 116.724965 
L 171.394104 121.20985 
L 171.638757 135.983591 
L 172.128063 123.848018 
L 172.372716 124.771377 
L 172.617369 146.931988 
L 172.862022 99.444965 
L 173.106675 116.32924 
L 173.351328 120.4184 
L 173.595981 144.030003 
L 173.840634 132.290156 
L 174.085287 141.259927 
L 174.32994 124.771377 
L 174.574593 148.251072 
L 175.063899 111.712446 
L 175.308552 121.20985 
L 175.553205 148.514888 
L 175.797858 125.29901 
L 176.042511 135.19214 
L 176.287164 140.468476 
L 176.531817 128.332904 
L 176.77647 141.391835 
L 177.265776 122.397026 
L 177.755082 109.338094 
L 177.999735 127.80527 
L 178.244388 128.860537 
L 178.489041 145.744812 
L 178.733694 146.272446 
L 178.978347 123.320385 
L 179.223 117.252598 
L 179.467653 168.16924 
L 179.712306 135.719774 
L 179.956959 121.077942 
L 180.201612 128.59672 
L 180.446265 112.108171 
L 180.690918 115.405881 
L 180.935572 140.732293 
L 181.180225 124.639469 
L 181.424878 128.200995 
L 181.669531 128.200995 
L 181.914184 147.063896 
L 182.40349 117.780232 
L 182.648143 119.890766 
L 182.892796 126.222369 
L 183.137449 119.231224 
L 183.382102 117.12069 
L 183.626755 131.630614 
L 183.871408 138.885575 
L 184.116061 111.844354 
L 184.360714 124.50756 
L 184.605367 122.924659 
L 185.094673 144.425728 
L 185.339326 139.281301 
L 185.583979 125.958552 
L 185.828632 120.4184 
L 186.073285 128.59672 
L 186.317938 114.61443 
L 186.562591 127.01382 
L 186.807244 116.32924 
L 187.29655 130.971072 
L 187.541203 123.452293 
L 187.785856 129.388171 
L 188.030509 125.694736 
L 188.275162 134.268781 
L 188.519815 124.375652 
L 188.764468 122.001301 
L 189.009121 131.366797 
L 189.253774 117.648323 
L 189.498427 138.753667 
L 189.74308 134.928323 
L 189.987733 149.042522 
L 190.232386 129.124354 
L 190.477039 122.528934 
L 190.721692 130.971072 
L 190.966345 123.584201 
L 191.210998 126.618094 
L 191.455651 141.655652 
L 191.700304 129.915804 
L 191.944957 130.179621 
L 192.18961 113.03153 
L 192.434263 121.869392 
L 192.678916 117.91214 
L 192.923569 123.320385 
L 193.168222 119.495041 
L 193.412875 129.520079 
L 193.657528 123.848018 
L 194.146834 138.753667 
L 194.391487 111.184812 
L 194.63614 133.873056 
L 194.880793 128.728629 
L 195.125446 130.839163 
L 195.370099 137.170766 
L 195.614752 139.677026 
L 195.859405 133.345423 
L 196.104058 118.835499 
L 196.348711 130.047713 
L 196.593364 122.924659 
L 196.838017 131.366797 
L 197.08267 119.099316 
L 197.327323 136.643133 
L 197.571976 116.988781 
L 197.816629 141.655652 
L 198.061282 115.801606 
L 198.305935 146.668171 
L 198.550588 135.719774 
L 198.795241 104.589392 
L 199.039894 135.587865 
L 199.284547 131.234888 
L 199.5292 143.370461 
L 199.773853 111.448629 
L 200.263159 132.949698 
L 200.752465 115.801606 
L 200.997118 120.286491 
L 201.241771 120.022675 
L 201.731077 132.422064 
L 201.97573 122.001301 
L 202.220383 127.673362 
L 202.709689 133.873056 
L 202.954342 124.50756 
L 203.198995 130.971072 
L 203.443649 133.741148 
L 203.688302 116.988781 
L 204.177608 139.677026 
L 204.422261 118.571682 
L 204.666914 134.136873 
L 204.911567 141.78756 
L 205.400873 123.188476 
L 205.645526 133.081606 
L 205.890179 123.71611 
L 206.379485 128.332904 
L 206.624138 128.992446 
L 206.868791 127.145728 
L 207.113444 144.953362 
L 207.358097 142.051377 
L 207.60275 114.086797 
L 207.847403 147.327713 
L 208.092056 120.286491 
L 208.336709 127.937178 
L 208.581362 126.486186 
L 208.826015 149.438247 
L 209.070668 138.357942 
L 209.315321 107.22756 
L 209.804627 148.251072 
L 210.04928 115.933514 
L 210.293933 160.782369 
L 210.538586 121.737484 
L 210.783239 160.254736 
L 211.027892 126.090461 
L 211.272545 156.297484 
L 211.761851 101.555499 
L 212.006504 106.831835 
L 212.251157 102.478858 
L 212.49581 134.928323 
L 212.740463 117.384507 
L 212.985116 120.946033 
L 213.229769 131.234888 
L 213.474422 109.601911 
L 213.719075 134.40069 
L 213.963728 120.022675 
L 214.208381 113.82298 
L 214.453034 124.771377 
L 214.697687 147.063896 
L 214.94234 120.550308 
L 215.186993 115.933514 
L 215.431646 155.506033 
L 215.676299 132.026339 
L 215.920952 126.486186 
L 216.165605 130.179621 
L 216.410258 121.341759 
L 216.654911 125.035194 
L 216.899564 134.268781 
L 217.144217 130.839163 
L 217.633523 141.259927 
L 217.878176 128.332904 
L 218.122829 107.755194 
L 218.367482 115.010156 
L 218.612135 125.562827 
L 218.856788 121.341759 
L 219.101441 126.618094 
L 219.346094 118.967407 
L 219.590747 133.873056 
L 220.080053 122.133209 
L 220.324706 128.59672 
L 220.569359 140.468476 
L 220.814012 146.404354 
L 221.058665 127.541453 
L 221.547971 136.906949 
L 221.792624 138.753667 
L 222.037277 113.163438 
L 222.28193 112.899621 
L 222.526583 125.430919 
L 222.771236 111.844354 
L 223.260542 132.685881 
L 223.505195 121.077942 
L 223.749848 122.924659 
L 223.994501 139.677026 
L 224.239154 135.851682 
L 224.483807 134.928323 
L 224.72846 147.195804 
L 224.973113 135.587865 
L 225.217766 116.724965 
L 225.462419 116.461148 
L 225.707072 123.056568 
L 225.951726 126.354278 
L 226.196379 119.495041 
L 226.441032 141.78756 
L 226.930338 118.175957 
L 227.174991 134.928323 
L 227.419644 136.643133 
L 227.664297 116.197331 
L 227.90895 134.796415 
L 228.153603 125.826644 
L 228.398256 142.315194 
L 228.642909 146.272446 
L 228.887562 121.869392 
L 229.132215 158.935652 
L 229.376868 116.32924 
L 229.621521 100.500232 
L 229.866174 34.414125 
L 230.110827 111.184812 
L 230.35548 137.302675 
L 230.844786 126.618094 
L 231.089439 129.783896 
L 231.334092 106.568018 
L 231.823398 129.783896 
L 232.068051 132.553972 
L 232.312704 128.728629 
L 232.557357 120.4184 
L 232.80201 123.320385 
L 233.046663 133.345423 
L 233.291316 117.252598 
L 233.535969 142.447102 
L 233.780622 135.455957 
L 234.025275 105.248934 
L 234.514581 139.413209 
L 234.759234 136.247407 
L 235.003887 145.08527 
L 235.24854 110.129545 
L 235.493193 157.748476 
L 235.737846 131.762522 
L 235.982499 72.66756 
L 236.227152 138.753667 
L 236.471805 116.856873 
L 236.716458 134.532598 
L 236.961111 115.801606 
L 237.205764 137.038858 
L 237.450417 115.142064 
L 237.939723 143.766186 
L 238.184376 156.957026 
L 238.429029 125.958552 
L 238.673682 125.958552 
L 238.918335 120.682217 
L 239.162988 145.349087 
L 239.407641 121.869392 
L 239.652294 121.737484 
L 239.896947 134.004965 
L 240.1416 131.762522 
L 240.386253 116.856873 
L 240.630906 123.71611 
L 240.875559 126.750003 
L 241.120212 134.928323 
L 241.364865 127.145728 
L 241.609518 124.903285 
L 241.854171 114.350614 
L 242.098824 147.723438 
L 242.343477 108.942369 
L 242.58813 136.247407 
L 243.077436 115.142064 
L 243.322089 122.133209 
L 243.566742 120.814125 
L 243.811395 132.290156 
L 244.056048 130.575346 
L 244.300701 143.502369 
L 244.545354 105.380843 
L 245.03466 132.026339 
L 245.279313 143.502369 
L 245.523966 135.19214 
L 245.768619 117.91214 
L 246.013272 149.042522 
L 246.257925 120.682217 
L 246.502578 129.783896 
L 246.747231 119.363133 
L 247.236537 128.728629 
L 247.48119 126.090461 
L 247.725843 133.873056 
L 247.970496 126.618094 
L 248.215149 130.839163 
L 248.459803 139.940843 
L 248.704456 116.856873 
L 248.949109 127.01382 
L 249.193762 131.234888 
L 249.438415 121.341759 
L 249.683068 131.89443 
L 249.927721 123.584201 
L 250.172374 140.600385 
L 250.417027 129.124354 
L 250.66168 142.447102 
L 250.906333 139.281301 
L 251.150986 109.601911 
L 251.395639 120.946033 
L 251.640292 137.962217 
L 252.129598 117.516415 
L 252.374251 123.452293 
L 252.618904 106.304201 
L 252.863557 137.038858 
L 253.10821 117.12069 
L 253.352863 117.516415 
L 253.597516 137.566491 
L 253.842169 120.154583 
L 254.086822 122.001301 
L 254.331475 154.714583 
L 254.576128 114.746339 
L 254.820781 116.065423 
L 255.065434 131.234888 
L 255.55474 110.657178 
L 255.799393 154.318858 
L 256.044046 123.71611 
L 256.288699 118.044049 
L 256.533352 107.887102 
L 256.778005 131.762522 
L 257.022658 123.188476 
L 257.267311 118.967407 
L 257.511964 131.89443 
L 257.756617 119.626949 
L 258.00127 132.685881 
L 258.245923 128.860537 
L 258.490576 136.115499 
L 258.735229 127.673362 
L 258.979882 137.830308 
L 259.469188 110.920995 
L 259.713841 126.618094 
L 259.958494 129.520079 
L 260.203147 114.350614 
L 260.4478 121.605575 
L 260.692453 276.334125 
L 260.937106 155.242217 
L 261.181759 118.571682 
L 261.426412 107.359469 
L 261.671065 168.696873 
L 262.160371 122.133209 
L 262.405024 133.873056 
L 262.649677 104.193667 
L 262.89433 156.957026 
L 263.138983 135.587865 
L 263.383636 213.941453 
L 263.628289 144.689545 
L 263.872942 175.028476 
L 264.362248 85.066949 
L 264.606901 90.343285 
L 264.851554 125.035194 
L 265.096207 137.038858 
L 265.34086 160.386644 
L 265.585513 97.730156 
L 265.830166 127.80527 
L 266.074819 142.57901 
L 266.319472 89.024201 
L 266.564125 156.825117 
L 266.808778 120.022675 
L 267.053431 104.325575 
L 267.298084 137.830308 
L 267.542737 134.268781 
L 267.78739 122.133209 
L 268.032043 125.958552 
L 268.276696 147.063896 
L 268.521349 121.605575 
L 268.766002 141.259927 
L 269.010655 141.259927 
L 269.255308 141.655652 
L 269.499961 133.345423 
L 269.744614 152.999774 
L 270.23392 92.45382 
L 270.478573 122.924659 
L 270.723226 124.771377 
L 270.96788 117.91214 
L 271.212533 130.179621 
L 271.457186 134.136873 
L 271.701839 113.03153 
L 272.191145 118.703591 
L 272.435798 125.958552 
L 272.680451 140.468476 
L 272.925104 100.63214 
L 273.169757 124.50756 
L 273.41441 112.899621 
L 273.659063 124.243743 
L 273.903716 125.826644 
L 274.148369 87.441301 
L 274.393022 131.234888 
L 274.637675 123.452293 
L 274.882328 125.826644 
L 275.126981 121.605575 
L 275.371634 119.890766 
L 275.616287 146.272446 
L 275.86094 111.976262 
L 276.105593 122.528934 
L 276.350246 159.331377 
L 276.839552 93.904812 
L 277.084205 119.231224 
L 277.328858 115.933514 
L 277.573511 140.99611 
L 277.818164 133.213514 
L 278.062817 147.195804 
L 278.30747 114.878247 
L 278.552123 126.354278 
L 278.796776 102.610766 
L 279.041429 121.605575 
L 279.286082 111.184812 
L 279.530735 137.6984 
L 279.775388 148.514888 
L 280.020041 119.626949 
L 280.264694 175.819927 
L 280.509347 151.021148 
L 280.754 103.797942 
L 280.998653 147.459621 
L 281.243306 156.957026 
L 281.487959 98.125881 
L 281.732612 134.532598 
L 281.977265 146.931988 
L 282.466571 138.48985 
L 282.711224 165.003438 
L 282.955877 111.844354 
L 283.20053 92.058094 
L 283.445183 107.623285 
L 283.934489 185.713056 
L 284.179142 144.030003 
L 284.423795 127.145728 
L 284.668448 144.689545 
L 285.157754 110.789087 
L 285.402407 131.366797 
L 286.136366 156.825117 
L 286.381019 156.561301 
L 286.625672 136.247407 
L 286.870325 140.468476 
L 287.114978 132.422064 
L 287.604284 108.810461 
L 287.848937 168.433056 
L 288.09359 120.814125 
L 288.338243 197.848629 
L 288.582896 128.200995 
L 288.827549 147.987255 
L 289.072202 109.601911 
L 289.316855 91.134736 
L 289.561508 150.361606 
L 289.806161 116.197331 
L 290.050814 154.846491 
L 290.295467 139.545117 
L 290.54012 98.917331 
L 290.784773 137.962217 
L 291.029426 155.901759 
L 291.274079 102.478858 
L 291.763385 149.306339 
L 292.008038 152.604049 
L 292.252691 126.486186 
L 292.497344 174.896568 
L 292.741997 109.865728 
L 292.98665 118.044049 
L 293.475957 94.960079 
L 293.72061 133.477331 
L 293.965263 131.234888 
L 294.209916 111.184812 
L 294.454569 142.183285 
L 294.699222 128.464812 
L 294.943875 126.222369 
L 295.188528 133.60924 
L 295.433181 126.354278 
L 295.677834 101.027865 
L 295.922487 137.6984 
L 296.16714 105.117026 
L 296.411793 133.60924 
L 296.656446 117.12069 
L 296.901099 149.833972 
L 297.145752 131.234888 
L 297.390405 137.302675 
L 297.635058 117.252598 
L 297.879711 117.648323 
L 298.124364 136.643133 
L 298.61367 113.82298 
L 298.858323 134.40069 
L 299.102976 138.885575 
L 299.347629 140.732293 
L 299.592282 139.017484 
L 299.836935 123.979927 
L 300.081588 117.648323 
L 300.326241 128.200995 
L 300.570894 119.231224 
L 300.815547 123.848018 
L 301.0602 132.290156 
L 301.304853 134.268781 
L 301.549506 151.284965 
L 301.794159 122.792751 
L 302.038812 146.536262 
L 302.283465 125.694736 
L 302.528118 131.10298 
L 303.017424 101.027865 
L 303.262077 140.336568 
L 303.50673 129.651988 
L 303.751383 91.002827 
L 303.996036 113.82298 
L 304.240689 120.814125 
L 304.485342 133.873056 
L 304.729995 117.780232 
L 304.974648 118.571682 
L 305.219301 124.903285 
L 305.463954 123.979927 
L 305.708607 145.612904 
L 305.95326 139.281301 
L 306.197913 114.61443 
L 306.442566 136.775041 
L 306.687219 130.575346 
L 306.931872 112.503896 
L 307.421178 131.762522 
L 307.665831 112.503896 
L 307.910484 185.976873 
L 308.155137 136.775041 
L 308.39979 144.821453 
L 308.644443 131.234888 
L 308.889096 134.664507 
L 309.133749 141.523743 
L 309.378402 136.906949 
L 309.623055 111.052904 
L 309.867708 137.038858 
L 310.112361 124.771377 
L 310.357014 124.50756 
L 310.601667 129.783896 
L 310.84632 122.792751 
L 311.090973 143.238552 
L 311.335626 138.357942 
L 311.580279 126.486186 
L 311.824932 128.728629 
L 312.069585 128.728629 
L 312.314238 134.796415 
L 312.803544 131.762522 
L 313.048197 135.719774 
L 313.537503 118.175957 
L 313.782156 130.839163 
L 314.026809 127.673362 
L 314.271462 120.946033 
L 314.516115 121.605575 
L 314.760768 139.017484 
L 315.005421 129.520079 
L 315.250074 126.090461 
L 315.494727 172.654125 
L 315.739381 146.800079 
L 315.984034 107.095652 
L 316.228687 116.856873 
L 316.47334 118.044049 
L 316.962646 134.004965 
L 317.207299 118.703591 
L 317.451952 129.651988 
L 317.696605 113.163438 
L 317.941258 124.375652 
L 318.185911 126.222369 
L 318.430564 133.345423 
L 318.675217 127.937178 
L 318.91987 131.366797 
L 319.164523 124.50756 
L 319.653829 145.612904 
L 319.898482 131.89443 
L 320.143135 133.081606 
L 320.387788 133.345423 
L 320.632441 138.357942 
L 320.877094 133.873056 
L 321.121747 134.664507 
L 321.3664 128.59672 
L 321.611053 134.532598 
L 321.855706 136.115499 
L 322.100359 114.878247 
L 322.345012 141.391835 
L 322.589665 120.286491 
L 322.834318 130.179621 
L 323.078971 116.988781 
L 323.323624 113.427255 
L 323.81293 141.391835 
L 324.057583 125.694736 
L 324.302236 132.026339 
L 324.546889 129.256262 
L 324.791542 132.026339 
L 325.036195 132.553972 
L 325.280848 135.983591 
L 325.525501 127.80527 
L 325.770154 131.10298 
L 326.25946 133.60924 
L 326.504113 133.60924 
L 326.748766 129.256262 
L 326.993419 134.40069 
L 327.238072 131.762522 
L 327.482725 127.01382 
L 327.727378 137.302675 
L 328.216684 124.111835 
L 328.461337 151.153056 
L 328.70599 113.03153 
L 328.950643 141.523743 
L 329.439949 125.958552 
L 329.684602 128.332904 
L 329.929255 128.200995 
L 330.173908 124.903285 
L 330.418561 136.511224 
L 330.663214 115.669698 
L 331.15252 146.404354 
L 331.641826 122.792751 
L 331.886479 134.40069 
L 332.131132 115.142064 
L 332.375785 134.004965 
L 332.620438 127.80527 
L 332.865091 130.971072 
L 333.109744 124.111835 
L 333.354397 133.60924 
L 333.59905 129.124354 
L 333.843703 137.434583 
L 334.333009 132.949698 
L 334.577662 126.750003 
L 334.822315 135.324049 
L 335.066968 124.639469 
L 335.311621 119.099316 
L 335.556274 127.80527 
L 335.800927 115.933514 
L 336.04558 124.639469 
L 336.290233 137.302675 
L 336.534886 119.363133 
L 336.779539 122.133209 
L 337.268845 144.425728 
L 337.513498 133.081606 
L 337.758151 135.455957 
L 338.002804 109.865728 
L 338.247458 141.259927 
L 338.492111 103.006491 
L 338.736764 129.783896 
L 338.981417 125.694736 
L 339.22607 124.903285 
L 339.470723 93.24527 
L 339.715376 125.958552 
L 339.960029 132.026339 
L 340.204682 110.393362 
L 340.693988 144.030003 
L 341.427947 121.869392 
L 341.6726 121.737484 
L 341.917253 127.145728 
L 342.161906 119.890766 
L 342.406559 136.379316 
L 342.651212 131.498705 
L 342.895865 134.928323 
L 343.140518 109.865728 
L 343.385171 119.890766 
L 343.629824 111.580537 
L 343.874477 110.789087 
L 344.11913 109.601911 
L 344.363783 139.677026 
L 344.853089 126.486186 
L 345.097742 124.639469 
L 345.342395 135.455957 
L 345.587048 110.789087 
L 345.831701 127.01382 
L 346.076354 127.80527 
L 346.321007 130.971072 
L 346.56566 132.685881 
L 346.810313 128.860537 
L 347.054966 140.600385 
L 347.299619 125.694736 
L 347.544272 133.60924 
L 347.788925 104.589392 
L 348.033578 111.184812 
L 348.278231 129.915804 
L 348.522884 108.01901 
L 348.767537 137.302675 
L 349.01219 128.860537 
L 349.256843 115.142064 
L 349.501496 154.318858 
L 349.746149 122.133209 
L 349.990802 130.31153 
L 350.235455 126.618094 
L 350.480108 140.732293 
L 350.724761 124.111835 
L 350.969414 136.247407 
L 351.214067 118.835499 
L 351.45872 127.277636 
L 351.703373 128.860537 
L 351.948026 112.767713 
L 352.192679 107.491377 
L 352.437332 132.949698 
L 352.681985 120.550308 
L 352.926638 138.226033 
L 353.171291 133.213514 
L 353.415944 138.753667 
L 353.660597 136.643133 
L 354.149903 122.660843 
L 354.394556 132.158247 
L 354.639209 123.979927 
L 354.883862 120.154583 
L 355.128515 131.10298 
L 355.373168 122.133209 
L 355.617821 137.6984 
L 355.862474 129.783896 
L 356.107127 127.673362 
L 356.35178 134.268781 
L 356.596433 121.341759 
L 356.841086 130.31153 
L 357.085739 130.971072 
L 357.330392 116.593056 
L 357.575045 135.060232 
L 357.819698 120.550308 
L 358.064351 136.643133 
L 358.309004 126.618094 
L 358.553657 129.388171 
L 358.79831 126.618094 
L 359.042963 130.575346 
L 359.287616 121.20985 
L 359.532269 118.703591 
L 359.776922 134.928323 
L 360.266228 128.464812 
L 360.510881 116.593056 
L 360.755535 141.78756 
L 361.000188 124.771377 
L 361.244841 127.01382 
L 361.489494 130.443438 
L 361.9788 120.286491 
L 362.223453 135.983591 
L 362.468106 120.550308 
L 362.957412 131.630614 
L 363.202065 131.234888 
L 363.691371 128.464812 
L 363.936024 135.324049 
L 364.180677 131.10298 
L 364.42533 120.682217 
L 364.669983 129.520079 
L 364.914636 127.01382 
L 365.159289 121.473667 
L 365.403942 123.71611 
L 365.648595 135.19214 
L 365.893248 115.142064 
L 366.137901 133.741148 
L 366.382554 138.885575 
L 366.627207 109.601911 
L 366.87186 123.848018 
L 367.116513 125.694736 
L 367.605819 140.600385 
L 367.850472 133.873056 
L 368.095125 165.399163 
L 368.584431 118.307865 
L 368.829084 136.643133 
L 369.073737 120.550308 
L 369.31839 160.914278 
L 369.563043 130.179621 
L 369.807696 127.673362 
L 370.541655 151.153056 
L 370.786308 124.243743 
L 371.030961 118.044049 
L 371.520267 137.170766 
L 371.76492 120.022675 
L 372.009573 134.928323 
L 372.254226 114.086797 
L 372.498879 130.047713 
L 372.743532 134.40069 
L 372.988185 125.562827 
L 373.232838 142.710919 
L 373.477491 137.830308 
L 373.722144 142.57901 
L 373.966797 123.584201 
L 374.21145 150.229698 
L 374.456103 111.976262 
L 374.700756 110.393362 
L 374.945409 135.455957 
L 375.190062 134.664507 
L 375.434715 131.234888 
L 375.679368 135.324049 
L 375.924021 130.971072 
L 376.168674 147.987255 
L 376.413327 117.780232 
L 376.65798 136.775041 
L 376.902633 127.277636 
L 377.147286 113.163438 
L 377.391939 131.234888 
L 377.636592 109.997636 
L 377.881245 144.29382 
L 378.125898 122.001301 
L 378.370551 113.163438 
L 378.615204 153.263591 
L 378.859857 159.199469 
L 379.10451 129.520079 
L 379.349163 125.562827 
L 379.593816 125.826644 
L 379.838469 122.001301 
L 380.083122 130.31153 
L 380.327775 118.571682 
L 380.572428 133.081606 
L 380.817081 116.461148 
L 381.061734 115.010156 
L 381.306387 122.001301 
L 381.55104 132.685881 
L 381.795693 130.31153 
L 382.040346 136.775041 
L 382.284999 122.265117 
L 382.529652 88.760385 
L 382.774305 129.651988 
L 383.018958 129.520079 
L 383.263612 120.154583 
L 383.508265 154.714583 
L 383.752918 123.188476 
L 383.997571 147.987255 
L 384.242224 146.800079 
L 384.486877 120.814125 
L 384.73153 183.866339 
L 385.220836 120.682217 
L 385.465489 136.906949 
L 385.954795 120.022675 
L 386.199448 139.940843 
L 386.444101 138.094125 
L 386.933407 108.01901 
L 387.17806 145.87672 
L 387.667366 117.384507 
L 387.912019 127.145728 
L 388.156672 128.992446 
L 388.401325 125.167102 
L 388.645978 151.153056 
L 388.890631 125.167102 
L 389.379937 130.443438 
L 389.62459 187.691682 
L 389.869243 128.992446 
L 390.113896 128.860537 
L 390.358549 118.571682 
L 390.603202 116.856873 
L 390.847855 141.259927 
L 391.092508 120.946033 
L 391.337161 134.664507 
L 391.826467 118.835499 
L 392.07112 133.345423 
L 392.315773 132.949698 
L 392.560426 116.32924 
L 392.805079 141.523743 
L 393.049732 121.077942 
L 393.294385 144.821453 
L 393.539038 122.265117 
L 393.783691 112.108171 
L 394.028344 116.856873 
L 394.272997 132.290156 
L 394.51765 134.928323 
L 394.762303 129.651988 
L 395.006956 135.719774 
L 395.251609 128.992446 
L 395.740915 150.493514 
L 395.985568 123.188476 
L 396.230221 119.231224 
L 396.719527 130.575346 
L 396.96418 119.099316 
L 397.208833 123.979927 
L 397.453486 138.357942 
L 397.698139 134.532598 
L 397.942792 135.587865 
L 398.187445 119.099316 
L 398.432098 132.422064 
L 398.676751 132.685881 
L 398.921404 132.158247 
L 399.166057 113.03153 
L 399.41071 138.094125 
L 399.41071 138.094125 
" style="fill:none;stroke:#ff7f0e;stroke-linecap:square;stroke-width:1.5;"/>
   </g>
   <g id="patch_3">
    <path d="M 58.523438 288.430125 
L 58.523438 22.318125 
" style="fill:none;stroke:#000000;stroke-linecap:square;stroke-linejoin:miter;stroke-width:0.8;"/>
   </g>
   <g id="patch_4">
    <path d="M 415.643438 288.430125 
L 415.643438 22.318125 
" style="fill:none;stroke:#000000;stroke-linecap:square;stroke-linejoin:miter;stroke-width:0.8;"/>
   </g>
   <g id="patch_5">
    <path d="M 58.523438 288.430125 
L 415.643438 288.430125 
" style="fill:none;stroke:#000000;stroke-linecap:square;stroke-linejoin:miter;stroke-width:0.8;"/>
   </g>
   <g id="patch_6">
    <path d="M 58.523438 22.318125 
L 415.643438 22.318125 
" style="fill:none;stroke:#000000;stroke-linecap:square;stroke-linejoin:miter;stroke-width:0.8;"/>
   </g>
   <g id="text_18">
    <!-- Training: DIS -->
    <defs>
     <path d="M -0.296875 72.90625 
L 61.375 72.90625 
L 61.375 64.59375 
L 35.5 64.59375 
L 35.5 0 
L 25.59375 0 
L 25.59375 64.59375 
L -0.296875 64.59375 
z
" id="DejaVuSans-84"/>
     <path d="M 41.109375 46.296875 
Q 39.59375 47.171875 37.8125 47.578125 
Q 36.03125 48 33.890625 48 
Q 26.265625 48 22.1875 43.046875 
Q 18.109375 38.09375 18.109375 28.8125 
L 18.109375 0 
L 9.078125 0 
L 9.078125 54.6875 
L 18.109375 54.6875 
L 18.109375 46.1875 
Q 20.953125 51.171875 25.484375 53.578125 
Q 30.03125 56 36.53125 56 
Q 37.453125 56 38.578125 55.875 
Q 39.703125 55.765625 41.0625 55.515625 
z
" id="DejaVuSans-114"/>
     <path d="M 9.421875 54.6875 
L 18.40625 54.6875 
L 18.40625 0 
L 9.421875 0 
z
M 9.421875 75.984375 
L 18.40625 75.984375 
L 18.40625 64.59375 
L 9.421875 64.59375 
z
" id="DejaVuSans-105"/>
     <path d="M 11.71875 12.40625 
L 22.015625 12.40625 
L 22.015625 0 
L 11.71875 0 
z
M 11.71875 51.703125 
L 22.015625 51.703125 
L 22.015625 39.3125 
L 11.71875 39.3125 
z
" id="DejaVuSans-58"/>
     <path d="M 9.8125 72.90625 
L 19.671875 72.90625 
L 19.671875 0 
L 9.8125 0 
z
" id="DejaVuSans-73"/>
     <path d="M 53.515625 70.515625 
L 53.515625 60.890625 
Q 47.90625 63.578125 42.921875 64.890625 
Q 37.9375 66.21875 33.296875 66.21875 
Q 25.25 66.21875 20.875 63.09375 
Q 16.5 59.96875 16.5 54.203125 
Q 16.5 49.359375 19.40625 46.890625 
Q 22.3125 44.4375 30.421875 42.921875 
L 36.375 41.703125 
Q 47.40625 39.59375 52.65625 34.296875 
Q 57.90625 29 57.90625 20.125 
Q 57.90625 9.515625 50.796875 4.046875 
Q 43.703125 -1.421875 29.984375 -1.421875 
Q 24.8125 -1.421875 18.96875 -0.25 
Q 13.140625 0.921875 6.890625 3.21875 
L 6.890625 13.375 
Q 12.890625 10.015625 18.65625 8.296875 
Q 24.421875 6.59375 29.984375 6.59375 
Q 38.421875 6.59375 43.015625 9.90625 
Q 47.609375 13.234375 47.609375 19.390625 
Q 47.609375 24.75 44.3125 27.78125 
Q 41.015625 30.8125 33.5 32.328125 
L 27.484375 33.5 
Q 16.453125 35.6875 11.515625 40.375 
Q 6.59375 45.0625 6.59375 53.421875 
Q 6.59375 63.09375 13.40625 68.65625 
Q 20.21875 74.21875 32.171875 74.21875 
Q 37.3125 74.21875 42.625 73.28125 
Q 47.953125 72.359375 53.515625 70.515625 
z
" id="DejaVuSans-83"/>
    </defs>
    <g transform="translate(199.285313 16.318125)scale(0.12 -0.12)">
     <use xlink:href="#DejaVuSans-84"/>
     <use x="46.333984" xlink:href="#DejaVuSans-114"/>
     <use x="87.447266" xlink:href="#DejaVuSans-97"/>
     <use x="148.726562" xlink:href="#DejaVuSans-105"/>
     <use x="176.509766" xlink:href="#DejaVuSans-110"/>
     <use x="239.888672" xlink:href="#DejaVuSans-105"/>
     <use x="267.671875" xlink:href="#DejaVuSans-110"/>
     <use x="331.050781" xlink:href="#DejaVuSans-103"/>
     <use x="394.527344" xlink:href="#DejaVuSans-58"/>
     <use x="428.21875" xlink:href="#DejaVuSans-32"/>
     <use x="460.005859" xlink:href="#DejaVuSans-68"/>
     <use x="537.007812" xlink:href="#DejaVuSans-73"/>
     <use x="566.5" xlink:href="#DejaVuSans-83"/>
    </g>
   </g>
   <g id="legend_1">
    <g id="patch_7">
     <path d="M 65.523438 59.674375 
L 149.251563 59.674375 
Q 151.251563 59.674375 151.251563 57.674375 
L 151.251563 29.318125 
Q 151.251563 27.318125 149.251563 27.318125 
L 65.523438 27.318125 
Q 63.523438 27.318125 63.523438 29.318125 
L 63.523438 57.674375 
Q 63.523438 59.674375 65.523438 59.674375 
z
" style="fill:#ffffff;opacity:0.8;stroke:#cccccc;stroke-linejoin:miter;"/>
    </g>
    <g id="line2d_33">
     <path d="M 67.523438 35.416562 
L 87.523438 35.416562 
" style="fill:none;stroke:#1f77b4;stroke-linecap:square;stroke-width:1.5;"/>
    </g>
    <g id="line2d_34"/>
    <g id="text_19">
     <!-- Predicted -->
     <defs>
      <path d="M 19.671875 64.796875 
L 19.671875 37.40625 
L 32.078125 37.40625 
Q 38.96875 37.40625 42.71875 40.96875 
Q 46.484375 44.53125 46.484375 51.125 
Q 46.484375 57.671875 42.71875 61.234375 
Q 38.96875 64.796875 32.078125 64.796875 
z
M 9.8125 72.90625 
L 32.078125 72.90625 
Q 44.34375 72.90625 50.609375 67.359375 
Q 56.890625 61.8125 56.890625 51.125 
Q 56.890625 40.328125 50.609375 34.8125 
Q 44.34375 29.296875 32.078125 29.296875 
L 19.671875 29.296875 
L 19.671875 0 
L 9.8125 0 
z
" id="DejaVuSans-80"/>
      <path d="M 45.40625 46.390625 
L 45.40625 75.984375 
L 54.390625 75.984375 
L 54.390625 0 
L 45.40625 0 
L 45.40625 8.203125 
Q 42.578125 3.328125 38.25 0.953125 
Q 33.9375 -1.421875 27.875 -1.421875 
Q 17.96875 -1.421875 11.734375 6.484375 
Q 5.515625 14.40625 5.515625 27.296875 
Q 5.515625 40.1875 11.734375 48.09375 
Q 17.96875 56 27.875 56 
Q 33.9375 56 38.25 53.625 
Q 42.578125 51.265625 45.40625 46.390625 
z
M 14.796875 27.296875 
Q 14.796875 17.390625 18.875 11.75 
Q 22.953125 6.109375 30.078125 6.109375 
Q 37.203125 6.109375 41.296875 11.75 
Q 45.40625 17.390625 45.40625 27.296875 
Q 45.40625 37.203125 41.296875 42.84375 
Q 37.203125 48.484375 30.078125 48.484375 
Q 22.953125 48.484375 18.875 42.84375 
Q 14.796875 37.203125 14.796875 27.296875 
z
" id="DejaVuSans-100"/>
      <path d="M 48.78125 52.59375 
L 48.78125 44.1875 
Q 44.96875 46.296875 41.140625 47.34375 
Q 37.3125 48.390625 33.40625 48.390625 
Q 24.65625 48.390625 19.8125 42.84375 
Q 14.984375 37.3125 14.984375 27.296875 
Q 14.984375 17.28125 19.8125 11.734375 
Q 24.65625 6.203125 33.40625 6.203125 
Q 37.3125 6.203125 41.140625 7.25 
Q 44.96875 8.296875 48.78125 10.40625 
L 48.78125 2.09375 
Q 45.015625 0.34375 40.984375 -0.53125 
Q 36.96875 -1.421875 32.421875 -1.421875 
Q 20.0625 -1.421875 12.78125 6.34375 
Q 5.515625 14.109375 5.515625 27.296875 
Q 5.515625 40.671875 12.859375 48.328125 
Q 20.21875 56 33.015625 56 
Q 37.15625 56 41.109375 55.140625 
Q 45.0625 54.296875 48.78125 52.59375 
z
" id="DejaVuSans-99"/>
      <path d="M 18.3125 70.21875 
L 18.3125 54.6875 
L 36.8125 54.6875 
L 36.8125 47.703125 
L 18.3125 47.703125 
L 18.3125 18.015625 
Q 18.3125 11.328125 20.140625 9.421875 
Q 21.96875 7.515625 27.59375 7.515625 
L 36.8125 7.515625 
L 36.8125 0 
L 27.59375 0 
Q 17.1875 0 13.234375 3.875 
Q 9.28125 7.765625 9.28125 18.015625 
L 9.28125 47.703125 
L 2.6875 47.703125 
L 2.6875 54.6875 
L 9.28125 54.6875 
L 9.28125 70.21875 
z
" id="DejaVuSans-116"/>
     </defs>
     <g transform="translate(95.523438 38.916562)scale(0.1 -0.1)">
      <use xlink:href="#DejaVuSans-80"/>
      <use x="58.552734" xlink:href="#DejaVuSans-114"/>
      <use x="97.416016" xlink:href="#DejaVuSans-101"/>
      <use x="158.939453" xlink:href="#DejaVuSans-100"/>
      <use x="222.416016" xlink:href="#DejaVuSans-105"/>
      <use x="250.199219" xlink:href="#DejaVuSans-99"/>
      <use x="305.179688" xlink:href="#DejaVuSans-116"/>
      <use x="344.388672" xlink:href="#DejaVuSans-101"/>
      <use x="405.912109" xlink:href="#DejaVuSans-100"/>
     </g>
    </g>
    <g id="line2d_35">
     <path d="M 67.523438 50.094687 
L 87.523438 50.094687 
" style="fill:none;stroke:#ff7f0e;stroke-linecap:square;stroke-width:1.5;"/>
    </g>
    <g id="line2d_36"/>
    <g id="text_20">
     <!-- True value -->
     <defs>
      <path d="M 8.5 21.578125 
L 8.5 54.6875 
L 17.484375 54.6875 
L 17.484375 21.921875 
Q 17.484375 14.15625 20.5 10.265625 
Q 23.53125 6.390625 29.59375 6.390625 
Q 36.859375 6.390625 41.078125 11.03125 
Q 45.3125 15.671875 45.3125 23.6875 
L 45.3125 54.6875 
L 54.296875 54.6875 
L 54.296875 0 
L 45.3125 0 
L 45.3125 8.40625 
Q 42.046875 3.421875 37.71875 1 
Q 33.40625 -1.421875 27.6875 -1.421875 
Q 18.265625 -1.421875 13.375 4.4375 
Q 8.5 10.296875 8.5 21.578125 
z
M 31.109375 56 
z
" id="DejaVuSans-117"/>
      <path d="M 2.984375 54.6875 
L 12.5 54.6875 
L 29.59375 8.796875 
L 46.6875 54.6875 
L 56.203125 54.6875 
L 35.6875 0 
L 23.484375 0 
z
" id="DejaVuSans-118"/>
      <path d="M 9.421875 75.984375 
L 18.40625 75.984375 
L 18.40625 0 
L 9.421875 0 
z
" id="DejaVuSans-108"/>
     </defs>
     <g transform="translate(95.523438 53.594687)scale(0.1 -0.1)">
      <use xlink:href="#DejaVuSans-84"/>
      <use x="46.333984" xlink:href="#DejaVuSans-114"/>
      <use x="87.447266" xlink:href="#DejaVuSans-117"/>
      <use x="150.826172" xlink:href="#DejaVuSans-101"/>
      <use x="212.349609" xlink:href="#DejaVuSans-32"/>
      <use x="244.136719" xlink:href="#DejaVuSans-118"/>
      <use x="303.316406" xlink:href="#DejaVuSans-97"/>
      <use x="364.595703" xlink:href="#DejaVuSans-108"/>
      <use x="392.378906" xlink:href="#DejaVuSans-117"/>
      <use x="455.757812" xlink:href="#DejaVuSans-101"/>
     </g>
    </g>
   </g>
  </g>
 </g>
 <defs>
  <clipPath id="paba0a469d2">
   <rect height="266.112" width="357.12" x="58.523438" y="22.318125"/>
  </clipPath>
 </defs>
</svg>
