<?xml version="1.0" encoding="utf-8" standalone="no"?>
<!DOCTYPE svg PUBLIC "-//W3C//DTD SVG 1.1//EN"
  "http://www.w3.org/Graphics/SVG/1.1/DTD/svg11.dtd">
<!-- Created with matplotlib (https://matplotlib.org/) -->
<svg height="325.986375pt" version="1.1" viewBox="0 0 411.285625 325.986375" width="411.285625pt" xmlns="http://www.w3.org/2000/svg" xmlns:xlink="http://www.w3.org/1999/xlink">
 <defs>
  <style type="text/css">
*{stroke-linecap:butt;stroke-linejoin:round;}
  </style>
 </defs>
 <g id="figure_1">
  <g id="patch_1">
   <path d="M 0 325.986375 
L 411.285625 325.986375 
L 411.285625 0 
L 0 0 
z
" style="fill:#ffffff;"/>
  </g>
  <g id="axes_1">
   <g id="patch_2">
    <path d="M 46.965625 288.430125 
L 404.085625 288.430125 
L 404.085625 22.318125 
L 46.965625 22.318125 
z
" style="fill:#ffffff;"/>
   </g>
   <g id="matplotlib.axis_1">
    <g id="xtick_1">
     <g id="line2d_1">
      <path clip-path="url(#pc55aa36b51)" d="M 63.198352 288.430125 
L 63.198352 22.318125 
" style="fill:none;stroke:#b0b0b0;stroke-dasharray:2.96,1.28;stroke-dashoffset:0;stroke-width:0.8;"/>
     </g>
     <g id="line2d_2">
      <defs>
       <path d="M 0 0 
L 0 3.5 
" id="m6aeb621767" style="stroke:#000000;stroke-width:0.8;"/>
      </defs>
      <g>
       <use style="stroke:#000000;stroke-width:0.8;" x="63.198352" xlink:href="#m6aeb621767" y="288.430125"/>
      </g>
     </g>
     <g id="text_1">
      <!-- 0 -->
      <defs>
       <path d="M 31.78125 66.40625 
Q 24.171875 66.40625 20.328125 58.90625 
Q 16.5 51.421875 16.5 36.375 
Q 16.5 21.390625 20.328125 13.890625 
Q 24.171875 6.390625 31.78125 6.390625 
Q 39.453125 6.390625 43.28125 13.890625 
Q 47.125 21.390625 47.125 36.375 
Q 47.125 51.421875 43.28125 58.90625 
Q 39.453125 66.40625 31.78125 66.40625 
z
M 31.78125 74.21875 
Q 44.046875 74.21875 50.515625 64.515625 
Q 56.984375 54.828125 56.984375 36.375 
Q 56.984375 17.96875 50.515625 8.265625 
Q 44.046875 -1.421875 31.78125 -1.421875 
Q 19.53125 -1.421875 13.0625 8.265625 
Q 6.59375 17.96875 6.59375 36.375 
Q 6.59375 54.828125 13.0625 64.515625 
Q 19.53125 74.21875 31.78125 74.21875 
z
" id="DejaVuSans-48"/>
      </defs>
      <g transform="translate(60.017102 303.028562)scale(0.1 -0.1)">
       <use xlink:href="#DejaVuSans-48"/>
      </g>
     </g>
    </g>
    <g id="xtick_2">
     <g id="line2d_3">
      <path clip-path="url(#pc55aa36b51)" d="M 112.128954 288.430125 
L 112.128954 22.318125 
" style="fill:none;stroke:#b0b0b0;stroke-dasharray:2.96,1.28;stroke-dashoffset:0;stroke-width:0.8;"/>
     </g>
     <g id="line2d_4">
      <g>
       <use style="stroke:#000000;stroke-width:0.8;" x="112.128954" xlink:href="#m6aeb621767" y="288.430125"/>
      </g>
     </g>
     <g id="text_2">
      <!-- 200 -->
      <defs>
       <path d="M 19.1875 8.296875 
L 53.609375 8.296875 
L 53.609375 0 
L 7.328125 0 
L 7.328125 8.296875 
Q 12.9375 14.109375 22.625 23.890625 
Q 32.328125 33.6875 34.8125 36.53125 
Q 39.546875 41.84375 41.421875 45.53125 
Q 43.3125 49.21875 43.3125 52.78125 
Q 43.3125 58.59375 39.234375 62.25 
Q 35.15625 65.921875 28.609375 65.921875 
Q 23.96875 65.921875 18.8125 64.3125 
Q 13.671875 62.703125 7.8125 59.421875 
L 7.8125 69.390625 
Q 13.765625 71.78125 18.9375 73 
Q 24.125 74.21875 28.421875 74.21875 
Q 39.75 74.21875 46.484375 68.546875 
Q 53.21875 62.890625 53.21875 53.421875 
Q 53.21875 48.921875 51.53125 44.890625 
Q 49.859375 40.875 45.40625 35.40625 
Q 44.1875 33.984375 37.640625 27.21875 
Q 31.109375 20.453125 19.1875 8.296875 
z
" id="DejaVuSans-50"/>
      </defs>
      <g transform="translate(102.585204 303.028562)scale(0.1 -0.1)">
       <use xlink:href="#DejaVuSans-50"/>
       <use x="63.623047" xlink:href="#DejaVuSans-48"/>
       <use x="127.246094" xlink:href="#DejaVuSans-48"/>
      </g>
     </g>
    </g>
    <g id="xtick_3">
     <g id="line2d_5">
      <path clip-path="url(#pc55aa36b51)" d="M 161.059557 288.430125 
L 161.059557 22.318125 
" style="fill:none;stroke:#b0b0b0;stroke-dasharray:2.96,1.28;stroke-dashoffset:0;stroke-width:0.8;"/>
     </g>
     <g id="line2d_6">
      <g>
       <use style="stroke:#000000;stroke-width:0.8;" x="161.059557" xlink:href="#m6aeb621767" y="288.430125"/>
      </g>
     </g>
     <g id="text_3">
      <!-- 400 -->
      <defs>
       <path d="M 37.796875 64.3125 
L 12.890625 25.390625 
L 37.796875 25.390625 
z
M 35.203125 72.90625 
L 47.609375 72.90625 
L 47.609375 25.390625 
L 58.015625 25.390625 
L 58.015625 17.1875 
L 47.609375 17.1875 
L 47.609375 0 
L 37.796875 0 
L 37.796875 17.1875 
L 4.890625 17.1875 
L 4.890625 26.703125 
z
" id="DejaVuSans-52"/>
      </defs>
      <g transform="translate(151.515807 303.028562)scale(0.1 -0.1)">
       <use xlink:href="#DejaVuSans-52"/>
       <use x="63.623047" xlink:href="#DejaVuSans-48"/>
       <use x="127.246094" xlink:href="#DejaVuSans-48"/>
      </g>
     </g>
    </g>
    <g id="xtick_4">
     <g id="line2d_7">
      <path clip-path="url(#pc55aa36b51)" d="M 209.990159 288.430125 
L 209.990159 22.318125 
" style="fill:none;stroke:#b0b0b0;stroke-dasharray:2.96,1.28;stroke-dashoffset:0;stroke-width:0.8;"/>
     </g>
     <g id="line2d_8">
      <g>
       <use style="stroke:#000000;stroke-width:0.8;" x="209.990159" xlink:href="#m6aeb621767" y="288.430125"/>
      </g>
     </g>
     <g id="text_4">
      <!-- 600 -->
      <defs>
       <path d="M 33.015625 40.375 
Q 26.375 40.375 22.484375 35.828125 
Q 18.609375 31.296875 18.609375 23.390625 
Q 18.609375 15.53125 22.484375 10.953125 
Q 26.375 6.390625 33.015625 6.390625 
Q 39.65625 6.390625 43.53125 10.953125 
Q 47.40625 15.53125 47.40625 23.390625 
Q 47.40625 31.296875 43.53125 35.828125 
Q 39.65625 40.375 33.015625 40.375 
z
M 52.59375 71.296875 
L 52.59375 62.3125 
Q 48.875 64.0625 45.09375 64.984375 
Q 41.3125 65.921875 37.59375 65.921875 
Q 27.828125 65.921875 22.671875 59.328125 
Q 17.53125 52.734375 16.796875 39.40625 
Q 19.671875 43.65625 24.015625 45.921875 
Q 28.375 48.1875 33.59375 48.1875 
Q 44.578125 48.1875 50.953125 41.515625 
Q 57.328125 34.859375 57.328125 23.390625 
Q 57.328125 12.15625 50.6875 5.359375 
Q 44.046875 -1.421875 33.015625 -1.421875 
Q 20.359375 -1.421875 13.671875 8.265625 
Q 6.984375 17.96875 6.984375 36.375 
Q 6.984375 53.65625 15.1875 63.9375 
Q 23.390625 74.21875 37.203125 74.21875 
Q 40.921875 74.21875 44.703125 73.484375 
Q 48.484375 72.75 52.59375 71.296875 
z
" id="DejaVuSans-54"/>
      </defs>
      <g transform="translate(200.446409 303.028562)scale(0.1 -0.1)">
       <use xlink:href="#DejaVuSans-54"/>
       <use x="63.623047" xlink:href="#DejaVuSans-48"/>
       <use x="127.246094" xlink:href="#DejaVuSans-48"/>
      </g>
     </g>
    </g>
    <g id="xtick_5">
     <g id="line2d_9">
      <path clip-path="url(#pc55aa36b51)" d="M 258.920761 288.430125 
L 258.920761 22.318125 
" style="fill:none;stroke:#b0b0b0;stroke-dasharray:2.96,1.28;stroke-dashoffset:0;stroke-width:0.8;"/>
     </g>
     <g id="line2d_10">
      <g>
       <use style="stroke:#000000;stroke-width:0.8;" x="258.920761" xlink:href="#m6aeb621767" y="288.430125"/>
      </g>
     </g>
     <g id="text_5">
      <!-- 800 -->
      <defs>
       <path d="M 31.78125 34.625 
Q 24.75 34.625 20.71875 30.859375 
Q 16.703125 27.09375 16.703125 20.515625 
Q 16.703125 13.921875 20.71875 10.15625 
Q 24.75 6.390625 31.78125 6.390625 
Q 38.8125 6.390625 42.859375 10.171875 
Q 46.921875 13.96875 46.921875 20.515625 
Q 46.921875 27.09375 42.890625 30.859375 
Q 38.875 34.625 31.78125 34.625 
z
M 21.921875 38.8125 
Q 15.578125 40.375 12.03125 44.71875 
Q 8.5 49.078125 8.5 55.328125 
Q 8.5 64.0625 14.71875 69.140625 
Q 20.953125 74.21875 31.78125 74.21875 
Q 42.671875 74.21875 48.875 69.140625 
Q 55.078125 64.0625 55.078125 55.328125 
Q 55.078125 49.078125 51.53125 44.71875 
Q 48 40.375 41.703125 38.8125 
Q 48.828125 37.15625 52.796875 32.3125 
Q 56.78125 27.484375 56.78125 20.515625 
Q 56.78125 9.90625 50.3125 4.234375 
Q 43.84375 -1.421875 31.78125 -1.421875 
Q 19.734375 -1.421875 13.25 4.234375 
Q 6.78125 9.90625 6.78125 20.515625 
Q 6.78125 27.484375 10.78125 32.3125 
Q 14.796875 37.15625 21.921875 38.8125 
z
M 18.3125 54.390625 
Q 18.3125 48.734375 21.84375 45.5625 
Q 25.390625 42.390625 31.78125 42.390625 
Q 38.140625 42.390625 41.71875 45.5625 
Q 45.3125 48.734375 45.3125 54.390625 
Q 45.3125 60.0625 41.71875 63.234375 
Q 38.140625 66.40625 31.78125 66.40625 
Q 25.390625 66.40625 21.84375 63.234375 
Q 18.3125 60.0625 18.3125 54.390625 
z
" id="DejaVuSans-56"/>
      </defs>
      <g transform="translate(249.377011 303.028562)scale(0.1 -0.1)">
       <use xlink:href="#DejaVuSans-56"/>
       <use x="63.623047" xlink:href="#DejaVuSans-48"/>
       <use x="127.246094" xlink:href="#DejaVuSans-48"/>
      </g>
     </g>
    </g>
    <g id="xtick_6">
     <g id="line2d_11">
      <path clip-path="url(#pc55aa36b51)" d="M 307.851363 288.430125 
L 307.851363 22.318125 
" style="fill:none;stroke:#b0b0b0;stroke-dasharray:2.96,1.28;stroke-dashoffset:0;stroke-width:0.8;"/>
     </g>
     <g id="line2d_12">
      <g>
       <use style="stroke:#000000;stroke-width:0.8;" x="307.851363" xlink:href="#m6aeb621767" y="288.430125"/>
      </g>
     </g>
     <g id="text_6">
      <!-- 1000 -->
      <defs>
       <path d="M 12.40625 8.296875 
L 28.515625 8.296875 
L 28.515625 63.921875 
L 10.984375 60.40625 
L 10.984375 69.390625 
L 28.421875 72.90625 
L 38.28125 72.90625 
L 38.28125 8.296875 
L 54.390625 8.296875 
L 54.390625 0 
L 12.40625 0 
z
" id="DejaVuSans-49"/>
      </defs>
      <g transform="translate(295.126363 303.028562)scale(0.1 -0.1)">
       <use xlink:href="#DejaVuSans-49"/>
       <use x="63.623047" xlink:href="#DejaVuSans-48"/>
       <use x="127.246094" xlink:href="#DejaVuSans-48"/>
       <use x="190.869141" xlink:href="#DejaVuSans-48"/>
      </g>
     </g>
    </g>
    <g id="xtick_7">
     <g id="line2d_13">
      <path clip-path="url(#pc55aa36b51)" d="M 356.781965 288.430125 
L 356.781965 22.318125 
" style="fill:none;stroke:#b0b0b0;stroke-dasharray:2.96,1.28;stroke-dashoffset:0;stroke-width:0.8;"/>
     </g>
     <g id="line2d_14">
      <g>
       <use style="stroke:#000000;stroke-width:0.8;" x="356.781965" xlink:href="#m6aeb621767" y="288.430125"/>
      </g>
     </g>
     <g id="text_7">
      <!-- 1200 -->
      <g transform="translate(344.056965 303.028562)scale(0.1 -0.1)">
       <use xlink:href="#DejaVuSans-49"/>
       <use x="63.623047" xlink:href="#DejaVuSans-50"/>
       <use x="127.246094" xlink:href="#DejaVuSans-48"/>
       <use x="190.869141" xlink:href="#DejaVuSans-48"/>
      </g>
     </g>
    </g>
    <g id="text_8">
     <!-- Day -->
     <defs>
      <path d="M 19.671875 64.796875 
L 19.671875 8.109375 
L 31.59375 8.109375 
Q 46.6875 8.109375 53.6875 14.9375 
Q 60.6875 21.78125 60.6875 36.53125 
Q 60.6875 51.171875 53.6875 57.984375 
Q 46.6875 64.796875 31.59375 64.796875 
z
M 9.8125 72.90625 
L 30.078125 72.90625 
Q 51.265625 72.90625 61.171875 64.09375 
Q 71.09375 55.28125 71.09375 36.53125 
Q 71.09375 17.671875 61.125 8.828125 
Q 51.171875 0 30.078125 0 
L 9.8125 0 
z
" id="DejaVuSans-68"/>
      <path d="M 34.28125 27.484375 
Q 23.390625 27.484375 19.1875 25 
Q 14.984375 22.515625 14.984375 16.5 
Q 14.984375 11.71875 18.140625 8.90625 
Q 21.296875 6.109375 26.703125 6.109375 
Q 34.1875 6.109375 38.703125 11.40625 
Q 43.21875 16.703125 43.21875 25.484375 
L 43.21875 27.484375 
z
M 52.203125 31.203125 
L 52.203125 0 
L 43.21875 0 
L 43.21875 8.296875 
Q 40.140625 3.328125 35.546875 0.953125 
Q 30.953125 -1.421875 24.3125 -1.421875 
Q 15.921875 -1.421875 10.953125 3.296875 
Q 6 8.015625 6 15.921875 
Q 6 25.140625 12.171875 29.828125 
Q 18.359375 34.515625 30.609375 34.515625 
L 43.21875 34.515625 
L 43.21875 35.40625 
Q 43.21875 41.609375 39.140625 45 
Q 35.0625 48.390625 27.6875 48.390625 
Q 23 48.390625 18.546875 47.265625 
Q 14.109375 46.140625 10.015625 43.890625 
L 10.015625 52.203125 
Q 14.9375 54.109375 19.578125 55.046875 
Q 24.21875 56 28.609375 56 
Q 40.484375 56 46.34375 49.84375 
Q 52.203125 43.703125 52.203125 31.203125 
z
" id="DejaVuSans-97"/>
      <path d="M 32.171875 -5.078125 
Q 28.375 -14.84375 24.75 -17.8125 
Q 21.140625 -20.796875 15.09375 -20.796875 
L 7.90625 -20.796875 
L 7.90625 -13.28125 
L 13.1875 -13.28125 
Q 16.890625 -13.28125 18.9375 -11.515625 
Q 21 -9.765625 23.484375 -3.21875 
L 25.09375 0.875 
L 2.984375 54.6875 
L 12.5 54.6875 
L 29.59375 11.921875 
L 46.6875 54.6875 
L 56.203125 54.6875 
z
" id="DejaVuSans-121"/>
     </defs>
     <g transform="translate(215.652188 316.706687)scale(0.1 -0.1)">
      <use xlink:href="#DejaVuSans-68"/>
      <use x="77.001953" xlink:href="#DejaVuSans-97"/>
      <use x="138.28125" xlink:href="#DejaVuSans-121"/>
     </g>
    </g>
   </g>
   <g id="matplotlib.axis_2">
    <g id="ytick_1">
     <g id="line2d_15">
      <path clip-path="url(#pc55aa36b51)" d="M 46.965625 259.685984 
L 404.085625 259.685984 
" style="fill:none;stroke:#b0b0b0;stroke-dasharray:2.96,1.28;stroke-dashoffset:0;stroke-width:0.8;"/>
     </g>
     <g id="line2d_16">
      <defs>
       <path d="M 0 0 
L -3.5 0 
" id="m6da4264a06" style="stroke:#000000;stroke-width:0.8;"/>
      </defs>
      <g>
       <use style="stroke:#000000;stroke-width:0.8;" x="46.965625" xlink:href="#m6da4264a06" y="259.685984"/>
      </g>
     </g>
     <g id="text_9">
      <!-- 25 -->
      <defs>
       <path d="M 10.796875 72.90625 
L 49.515625 72.90625 
L 49.515625 64.59375 
L 19.828125 64.59375 
L 19.828125 46.734375 
Q 21.96875 47.46875 24.109375 47.828125 
Q 26.265625 48.1875 28.421875 48.1875 
Q 40.625 48.1875 47.75 41.5 
Q 54.890625 34.8125 54.890625 23.390625 
Q 54.890625 11.625 47.5625 5.09375 
Q 40.234375 -1.421875 26.90625 -1.421875 
Q 22.3125 -1.421875 17.546875 -0.640625 
Q 12.796875 0.140625 7.71875 1.703125 
L 7.71875 11.625 
Q 12.109375 9.234375 16.796875 8.0625 
Q 21.484375 6.890625 26.703125 6.890625 
Q 35.15625 6.890625 40.078125 11.328125 
Q 45.015625 15.765625 45.015625 23.390625 
Q 45.015625 31 40.078125 35.4375 
Q 35.15625 39.890625 26.703125 39.890625 
Q 22.75 39.890625 18.8125 39.015625 
Q 14.890625 38.140625 10.796875 36.28125 
z
" id="DejaVuSans-53"/>
      </defs>
      <g transform="translate(27.240625 263.485202)scale(0.1 -0.1)">
       <use xlink:href="#DejaVuSans-50"/>
       <use x="63.623047" xlink:href="#DejaVuSans-53"/>
      </g>
     </g>
    </g>
    <g id="ytick_2">
     <g id="line2d_17">
      <path clip-path="url(#pc55aa36b51)" d="M 46.965625 229.127721 
L 404.085625 229.127721 
" style="fill:none;stroke:#b0b0b0;stroke-dasharray:2.96,1.28;stroke-dashoffset:0;stroke-width:0.8;"/>
     </g>
     <g id="line2d_18">
      <g>
       <use style="stroke:#000000;stroke-width:0.8;" x="46.965625" xlink:href="#m6da4264a06" y="229.127721"/>
      </g>
     </g>
     <g id="text_10">
      <!-- 50 -->
      <g transform="translate(27.240625 232.92694)scale(0.1 -0.1)">
       <use xlink:href="#DejaVuSans-53"/>
       <use x="63.623047" xlink:href="#DejaVuSans-48"/>
      </g>
     </g>
    </g>
    <g id="ytick_3">
     <g id="line2d_19">
      <path clip-path="url(#pc55aa36b51)" d="M 46.965625 198.569459 
L 404.085625 198.569459 
" style="fill:none;stroke:#b0b0b0;stroke-dasharray:2.96,1.28;stroke-dashoffset:0;stroke-width:0.8;"/>
     </g>
     <g id="line2d_20">
      <g>
       <use style="stroke:#000000;stroke-width:0.8;" x="46.965625" xlink:href="#m6da4264a06" y="198.569459"/>
      </g>
     </g>
     <g id="text_11">
      <!-- 75 -->
      <defs>
       <path d="M 8.203125 72.90625 
L 55.078125 72.90625 
L 55.078125 68.703125 
L 28.609375 0 
L 18.3125 0 
L 43.21875 64.59375 
L 8.203125 64.59375 
z
" id="DejaVuSans-55"/>
      </defs>
      <g transform="translate(27.240625 202.368678)scale(0.1 -0.1)">
       <use xlink:href="#DejaVuSans-55"/>
       <use x="63.623047" xlink:href="#DejaVuSans-53"/>
      </g>
     </g>
    </g>
    <g id="ytick_4">
     <g id="line2d_21">
      <path clip-path="url(#pc55aa36b51)" d="M 46.965625 168.011196 
L 404.085625 168.011196 
" style="fill:none;stroke:#b0b0b0;stroke-dasharray:2.96,1.28;stroke-dashoffset:0;stroke-width:0.8;"/>
     </g>
     <g id="line2d_22">
      <g>
       <use style="stroke:#000000;stroke-width:0.8;" x="46.965625" xlink:href="#m6da4264a06" y="168.011196"/>
      </g>
     </g>
     <g id="text_12">
      <!-- 100 -->
      <g transform="translate(20.878125 171.810415)scale(0.1 -0.1)">
       <use xlink:href="#DejaVuSans-49"/>
       <use x="63.623047" xlink:href="#DejaVuSans-48"/>
       <use x="127.246094" xlink:href="#DejaVuSans-48"/>
      </g>
     </g>
    </g>
    <g id="ytick_5">
     <g id="line2d_23">
      <path clip-path="url(#pc55aa36b51)" d="M 46.965625 137.452934 
L 404.085625 137.452934 
" style="fill:none;stroke:#b0b0b0;stroke-dasharray:2.96,1.28;stroke-dashoffset:0;stroke-width:0.8;"/>
     </g>
     <g id="line2d_24">
      <g>
       <use style="stroke:#000000;stroke-width:0.8;" x="46.965625" xlink:href="#m6da4264a06" y="137.452934"/>
      </g>
     </g>
     <g id="text_13">
      <!-- 125 -->
      <g transform="translate(20.878125 141.252153)scale(0.1 -0.1)">
       <use xlink:href="#DejaVuSans-49"/>
       <use x="63.623047" xlink:href="#DejaVuSans-50"/>
       <use x="127.246094" xlink:href="#DejaVuSans-53"/>
      </g>
     </g>
    </g>
    <g id="ytick_6">
     <g id="line2d_25">
      <path clip-path="url(#pc55aa36b51)" d="M 46.965625 106.894672 
L 404.085625 106.894672 
" style="fill:none;stroke:#b0b0b0;stroke-dasharray:2.96,1.28;stroke-dashoffset:0;stroke-width:0.8;"/>
     </g>
     <g id="line2d_26">
      <g>
       <use style="stroke:#000000;stroke-width:0.8;" x="46.965625" xlink:href="#m6da4264a06" y="106.894672"/>
      </g>
     </g>
     <g id="text_14">
      <!-- 150 -->
      <g transform="translate(20.878125 110.69389)scale(0.1 -0.1)">
       <use xlink:href="#DejaVuSans-49"/>
       <use x="63.623047" xlink:href="#DejaVuSans-53"/>
       <use x="127.246094" xlink:href="#DejaVuSans-48"/>
      </g>
     </g>
    </g>
    <g id="ytick_7">
     <g id="line2d_27">
      <path clip-path="url(#pc55aa36b51)" d="M 46.965625 76.336409 
L 404.085625 76.336409 
" style="fill:none;stroke:#b0b0b0;stroke-dasharray:2.96,1.28;stroke-dashoffset:0;stroke-width:0.8;"/>
     </g>
     <g id="line2d_28">
      <g>
       <use style="stroke:#000000;stroke-width:0.8;" x="46.965625" xlink:href="#m6da4264a06" y="76.336409"/>
      </g>
     </g>
     <g id="text_15">
      <!-- 175 -->
      <g transform="translate(20.878125 80.135628)scale(0.1 -0.1)">
       <use xlink:href="#DejaVuSans-49"/>
       <use x="63.623047" xlink:href="#DejaVuSans-55"/>
       <use x="127.246094" xlink:href="#DejaVuSans-53"/>
      </g>
     </g>
    </g>
    <g id="ytick_8">
     <g id="line2d_29">
      <path clip-path="url(#pc55aa36b51)" d="M 46.965625 45.778147 
L 404.085625 45.778147 
" style="fill:none;stroke:#b0b0b0;stroke-dasharray:2.96,1.28;stroke-dashoffset:0;stroke-width:0.8;"/>
     </g>
     <g id="line2d_30">
      <g>
       <use style="stroke:#000000;stroke-width:0.8;" x="46.965625" xlink:href="#m6da4264a06" y="45.778147"/>
      </g>
     </g>
     <g id="text_16">
      <!-- 200 -->
      <g transform="translate(20.878125 49.577365)scale(0.1 -0.1)">
       <use xlink:href="#DejaVuSans-50"/>
       <use x="63.623047" xlink:href="#DejaVuSans-48"/>
       <use x="127.246094" xlink:href="#DejaVuSans-48"/>
      </g>
     </g>
    </g>
    <g id="text_17">
     <!-- Price $ -->
     <defs>
      <path d="M 19.671875 64.796875 
L 19.671875 37.40625 
L 32.078125 37.40625 
Q 38.96875 37.40625 42.71875 40.96875 
Q 46.484375 44.53125 46.484375 51.125 
Q 46.484375 57.671875 42.71875 61.234375 
Q 38.96875 64.796875 32.078125 64.796875 
z
M 9.8125 72.90625 
L 32.078125 72.90625 
Q 44.34375 72.90625 50.609375 67.359375 
Q 56.890625 61.8125 56.890625 51.125 
Q 56.890625 40.328125 50.609375 34.8125 
Q 44.34375 29.296875 32.078125 29.296875 
L 19.671875 29.296875 
L 19.671875 0 
L 9.8125 0 
z
" id="DejaVuSans-80"/>
      <path d="M 41.109375 46.296875 
Q 39.59375 47.171875 37.8125 47.578125 
Q 36.03125 48 33.890625 48 
Q 26.265625 48 22.1875 43.046875 
Q 18.109375 38.09375 18.109375 28.8125 
L 18.109375 0 
L 9.078125 0 
L 9.078125 54.6875 
L 18.109375 54.6875 
L 18.109375 46.1875 
Q 20.953125 51.171875 25.484375 53.578125 
Q 30.03125 56 36.53125 56 
Q 37.453125 56 38.578125 55.875 
Q 39.703125 55.765625 41.0625 55.515625 
z
" id="DejaVuSans-114"/>
      <path d="M 9.421875 54.6875 
L 18.40625 54.6875 
L 18.40625 0 
L 9.421875 0 
z
M 9.421875 75.984375 
L 18.40625 75.984375 
L 18.40625 64.59375 
L 9.421875 64.59375 
z
" id="DejaVuSans-105"/>
      <path d="M 48.78125 52.59375 
L 48.78125 44.1875 
Q 44.96875 46.296875 41.140625 47.34375 
Q 37.3125 48.390625 33.40625 48.390625 
Q 24.65625 48.390625 19.8125 42.84375 
Q 14.984375 37.3125 14.984375 27.296875 
Q 14.984375 17.28125 19.8125 11.734375 
Q 24.65625 6.203125 33.40625 6.203125 
Q 37.3125 6.203125 41.140625 7.25 
Q 44.96875 8.296875 48.78125 10.40625 
L 48.78125 2.09375 
Q 45.015625 0.34375 40.984375 -0.53125 
Q 36.96875 -1.421875 32.421875 -1.421875 
Q 20.0625 -1.421875 12.78125 6.34375 
Q 5.515625 14.109375 5.515625 27.296875 
Q 5.515625 40.671875 12.859375 48.328125 
Q 20.21875 56 33.015625 56 
Q 37.15625 56 41.109375 55.140625 
Q 45.0625 54.296875 48.78125 52.59375 
z
" id="DejaVuSans-99"/>
      <path d="M 56.203125 29.59375 
L 56.203125 25.203125 
L 14.890625 25.203125 
Q 15.484375 15.921875 20.484375 11.0625 
Q 25.484375 6.203125 34.421875 6.203125 
Q 39.59375 6.203125 44.453125 7.46875 
Q 49.3125 8.734375 54.109375 11.28125 
L 54.109375 2.78125 
Q 49.265625 0.734375 44.1875 -0.34375 
Q 39.109375 -1.421875 33.890625 -1.421875 
Q 20.796875 -1.421875 13.15625 6.1875 
Q 5.515625 13.8125 5.515625 26.8125 
Q 5.515625 40.234375 12.765625 48.109375 
Q 20.015625 56 32.328125 56 
Q 43.359375 56 49.78125 48.890625 
Q 56.203125 41.796875 56.203125 29.59375 
z
M 47.21875 32.234375 
Q 47.125 39.59375 43.09375 43.984375 
Q 39.0625 48.390625 32.421875 48.390625 
Q 24.90625 48.390625 20.390625 44.140625 
Q 15.875 39.890625 15.1875 32.171875 
z
" id="DejaVuSans-101"/>
      <path id="DejaVuSans-32"/>
      <path d="M 33.796875 -14.703125 
L 28.90625 -14.703125 
L 28.859375 0 
Q 23.734375 0.09375 18.609375 1.1875 
Q 13.484375 2.296875 8.296875 4.5 
L 8.296875 13.28125 
Q 13.28125 10.15625 18.375 8.5625 
Q 23.484375 6.984375 28.90625 6.9375 
L 28.90625 29.203125 
Q 18.109375 30.953125 13.203125 35.15625 
Q 8.296875 39.359375 8.296875 46.6875 
Q 8.296875 54.640625 13.625 59.21875 
Q 18.953125 63.8125 28.90625 64.5 
L 28.90625 75.984375 
L 33.796875 75.984375 
L 33.796875 64.65625 
Q 38.328125 64.453125 42.578125 63.6875 
Q 46.828125 62.9375 50.875 61.625 
L 50.875 53.078125 
Q 46.828125 55.125 42.546875 56.25 
Q 38.28125 57.375 33.796875 57.5625 
L 33.796875 36.71875 
Q 44.875 35.015625 50.09375 30.609375 
Q 55.328125 26.21875 55.328125 18.609375 
Q 55.328125 10.359375 49.78125 5.59375 
Q 44.234375 0.828125 33.796875 0.09375 
z
M 28.90625 37.59375 
L 28.90625 57.625 
Q 23.25 56.984375 20.265625 54.390625 
Q 17.28125 51.8125 17.28125 47.515625 
Q 17.28125 43.3125 20.03125 40.96875 
Q 22.796875 38.625 28.90625 37.59375 
z
M 33.796875 28.21875 
L 33.796875 7.078125 
Q 39.984375 7.90625 43.140625 10.59375 
Q 46.296875 13.28125 46.296875 17.671875 
Q 46.296875 21.96875 43.28125 24.5 
Q 40.28125 27.046875 33.796875 28.21875 
z
" id="DejaVuSans-36"/>
     </defs>
     <g transform="translate(14.798438 172.342094)rotate(-90)scale(0.1 -0.1)">
      <use xlink:href="#DejaVuSans-80"/>
      <use x="58.552734" xlink:href="#DejaVuSans-114"/>
      <use x="99.666016" xlink:href="#DejaVuSans-105"/>
      <use x="127.449219" xlink:href="#DejaVuSans-99"/>
      <use x="182.429688" xlink:href="#DejaVuSans-101"/>
      <use x="243.953125" xlink:href="#DejaVuSans-32"/>
      <use x="275.740234" xlink:href="#DejaVuSans-36"/>
     </g>
    </g>
   </g>
   <g id="line2d_31">
    <path clip-path="url(#pc55aa36b51)" d="M 63.198352 272.169778 
L 63.443005 273.753106 
L 63.687658 274.087472 
L 63.932311 274.087517 
L 64.421617 273.264801 
L 64.66627 272.862138 
L 65.155576 272.67282 
L 65.400229 272.17925 
L 65.644882 272.326764 
L 65.889535 272.181617 
L 66.378841 272.64752 
L 66.623494 272.31317 
L 66.868147 272.506978 
L 67.602106 272.48957 
L 67.846759 272.891103 
L 68.091412 272.510351 
L 68.336066 272.790698 
L 68.825372 272.775227 
L 69.070025 273.076346 
L 69.314678 273.080505 
L 69.559331 273.96022 
L 69.803984 273.895771 
L 70.048637 273.424637 
L 70.29329 273.832256 
L 70.537943 273.958548 
L 71.516555 273.301905 
L 71.761208 273.748009 
L 72.250514 273.455346 
L 72.495167 273.578025 
L 72.984473 273.516904 
L 73.473779 274.096175 
L 73.963085 273.926793 
L 74.207738 274.195253 
L 74.452391 274.137155 
L 74.697044 274.295829 
L 74.941697 273.596881 
L 75.18635 273.989684 
L 75.431003 274.126012 
L 75.920309 274.719775 
L 76.164962 274.653129 
L 76.409615 274.787538 
L 76.654268 274.611624 
L 76.898921 274.170244 
L 77.388227 274.516303 
L 77.63288 275.393042 
L 77.877533 275.563576 
L 78.122186 275.159514 
L 78.366839 275.366338 
L 78.611492 275.354552 
L 79.100798 275.607427 
L 79.345451 274.906225 
L 79.590104 274.987333 
L 79.834757 274.346155 
L 80.07941 274.346179 
L 80.324063 274.80686 
L 80.568716 274.711618 
L 81.058022 275.652479 
L 81.302675 275.744325 
L 81.547328 276.100362 
L 81.791981 276.067881 
L 82.036634 276.333547 
L 82.281287 275.950854 
L 82.52594 276.205762 
L 82.770593 275.794555 
L 83.015246 275.721892 
L 83.259899 275.44482 
L 83.749205 275.258142 
L 84.483164 275.847868 
L 84.727817 275.454556 
L 84.97247 275.618214 
L 85.461776 275.614269 
L 85.951082 274.806138 
L 86.195735 274.951945 
L 87.663653 274.785571 
L 87.908306 275.13637 
L 88.642265 275.37552 
L 88.886918 275.451315 
L 89.131571 275.265276 
L 89.376224 274.714594 
L 89.620877 274.705969 
L 89.86553 274.1913 
L 90.599489 275.271448 
L 91.333449 275.333328 
L 91.578102 275.586354 
L 92.067408 275.28288 
L 92.556714 275.437135 
L 93.04602 275.32931 
L 93.535326 274.838714 
L 93.779979 275.149975 
L 94.513938 275.113388 
L 94.758591 275.37703 
L 95.003244 275.037472 
L 95.49255 275.212519 
L 96.226509 275.048495 
L 96.471162 275.109088 
L 96.715815 274.699976 
L 96.960468 274.68126 
L 97.694427 275.207998 
L 97.93908 274.936218 
L 98.183733 275.196309 
L 98.428386 275.122482 
L 98.673039 274.847175 
L 99.162345 274.705237 
L 99.406998 274.776029 
L 99.651651 274.601285 
L 101.364222 274.65458 
L 102.098181 274.987937 
L 102.342834 274.808857 
L 102.587487 275.044204 
L 102.83214 274.97063 
L 103.076793 275.074977 
L 103.566099 274.766433 
L 103.810752 274.575125 
L 104.055405 275.063866 
L 104.544711 275.39858 
L 104.789364 275.276666 
L 105.034017 275.016459 
L 105.27867 275.056003 
L 105.767976 274.55522 
L 106.012629 274.635177 
L 106.257282 274.246144 
L 106.501935 274.560199 
L 106.746588 274.375749 
L 107.235894 274.888487 
L 107.7252 274.848423 
L 108.459159 273.795621 
L 108.703812 273.847501 
L 109.193118 273.384709 
L 109.437771 273.552282 
L 109.682424 273.337652 
L 110.17173 273.32577 
L 110.416383 273.53864 
L 110.661036 273.252125 
L 110.905689 273.23519 
L 111.150342 272.46417 
L 111.394995 272.839632 
L 111.884301 272.256313 
L 112.128954 272.352303 
L 112.373607 272.055799 
L 112.61826 272.094791 
L 112.862913 271.981455 
L 113.107566 272.612577 
L 113.35222 272.328128 
L 114.086179 272.571699 
L 114.330832 272.35362 
L 114.575485 272.543693 
L 115.064791 272.538178 
L 115.309444 272.90366 
L 115.554097 272.796912 
L 115.79875 272.565096 
L 116.043403 272.575396 
L 116.532709 273.032652 
L 116.777362 272.660422 
L 117.022015 272.679083 
L 117.266668 272.526187 
L 117.511321 272.62458 
L 117.755974 272.086241 
L 118.000627 272.562833 
L 118.24528 272.599323 
L 118.489933 272.937124 
L 118.734586 272.838208 
L 119.468545 273.065695 
L 119.957851 273.003118 
L 120.936463 272.821227 
L 121.425769 272.358023 
L 122.404381 272.365124 
L 122.649034 272.430944 
L 122.893687 272.792412 
L 124.361605 272.911294 
L 124.606258 272.632198 
L 124.850911 272.578864 
L 125.340217 272.193062 
L 125.58487 272.107165 
L 125.829523 272.350479 
L 126.074176 272.372814 
L 126.318829 272.228791 
L 126.808135 272.636208 
L 127.052788 272.578954 
L 127.297441 271.860873 
L 127.786747 271.676146 
L 128.0314 271.94254 
L 129.254665 271.904282 
L 129.499318 272.10977 
L 130.47793 272.166833 
L 130.967236 271.955214 
L 131.211889 272.040272 
L 131.945848 271.040526 
L 132.190501 271.036153 
L 132.679807 270.88989 
L 133.413766 270.744721 
L 133.903072 271.088422 
L 134.392378 270.995959 
L 135.860297 271.412364 
L 136.10495 271.175723 
L 136.349603 271.17616 
L 136.594256 271.321451 
L 136.838909 271.60579 
L 137.083562 271.414395 
L 137.328215 271.554087 
L 137.572868 271.275774 
L 137.817521 271.378148 
L 138.062174 271.15591 
L 138.306827 271.112142 
L 138.55148 270.901444 
L 138.796133 270.853384 
L 139.040786 270.934325 
L 139.530092 271.404757 
L 140.019398 271.624024 
L 140.508704 271.624038 
L 140.753357 271.654165 
L 140.99801 271.567468 
L 141.242663 272.08313 
L 141.487316 272.10988 
L 141.731969 271.991234 
L 141.976622 272.410874 
L 142.221275 271.221 
L 142.710581 271.023831 
L 142.955234 270.494887 
L 143.199887 270.394501 
L 143.44454 270.445538 
L 144.178499 271.576763 
L 144.423152 271.459792 
L 144.667805 271.646237 
L 144.912458 271.270153 
L 145.401764 271.030747 
L 145.646417 271.146555 
L 145.89107 270.97163 
L 146.135723 270.970283 
L 146.380376 270.707359 
L 147.114335 271.591498 
L 147.358988 271.180656 
L 147.603641 271.374015 
L 147.848294 271.737206 
L 148.3376 271.824154 
L 148.582253 271.757488 
L 148.826906 271.513704 
L 149.071559 271.438405 
L 149.316212 271.059663 
L 149.805518 270.896073 
L 150.050171 271.029381 
L 150.294824 270.941553 
L 150.539477 270.691277 
L 150.78413 270.631107 
L 151.273436 271.047956 
L 152.007395 270.226463 
L 152.252048 270.929864 
L 152.496701 270.967175 
L 152.741354 271.403475 
L 152.986007 270.865771 
L 153.475313 270.589734 
L 153.719966 270.668528 
L 154.209272 270.596544 
L 154.453925 270.668626 
L 154.698578 271.154205 
L 154.943231 271.278125 
L 155.187884 271.120976 
L 155.432537 271.306525 
L 155.67719 270.997322 
L 155.921843 271.035452 
L 156.166496 271.266659 
L 156.411149 271.159286 
L 156.655802 271.333145 
L 157.145108 270.827104 
L 157.389761 270.758951 
L 157.634414 270.338972 
L 158.368374 268.316322 
L 158.613027 268.31853 
L 158.85768 268.018782 
L 159.102333 267.249452 
L 159.346986 267.403213 
L 159.591639 267.091564 
L 159.836292 267.273556 
L 160.080945 267.308469 
L 160.570251 267.691289 
L 160.814904 267.835126 
L 161.30421 267.406974 
L 161.548863 267.737887 
L 161.793516 267.728293 
L 162.038169 268.051667 
L 162.527475 267.783734 
L 162.772128 268.487489 
L 163.261434 268.41508 
L 163.75074 267.56415 
L 164.240046 267.546054 
L 164.729352 267.634825 
L 165.218658 268.419237 
L 165.707964 268.307106 
L 165.952617 267.431162 
L 166.19727 267.590542 
L 166.441923 267.325237 
L 166.686576 268.005389 
L 166.931229 267.919597 
L 167.175882 267.133362 
L 167.420535 267.174665 
L 167.909841 268.007338 
L 168.399147 267.643372 
L 168.888453 267.517919 
L 169.867065 266.650317 
L 170.111718 267.272314 
L 170.356371 267.366314 
L 170.601024 267.315879 
L 170.845677 267.589931 
L 171.09033 267.484412 
L 171.334983 267.638075 
L 171.579636 267.423942 
L 171.824289 267.871363 
L 172.068942 267.848275 
L 172.313595 267.576889 
L 172.558248 268.119049 
L 172.802901 267.490518 
L 173.292207 268.043505 
L 173.781513 268.214281 
L 174.026166 267.519581 
L 174.270819 267.905784 
L 174.760125 267.783457 
L 175.004778 267.597909 
L 175.494084 266.997233 
L 176.717349 267.100943 
L 177.695961 266.776173 
L 178.185267 266.341482 
L 179.163879 266.233873 
L 179.408532 266.765162 
L 180.142491 267.644778 
L 180.387144 267.438457 
L 180.631798 267.743779 
L 180.876451 267.732898 
L 181.365757 267.289233 
L 181.61041 267.362733 
L 181.855063 267.153811 
L 182.344369 267.490935 
L 182.589022 266.817997 
L 182.833675 266.960924 
L 183.078328 266.900139 
L 183.322981 266.603875 
L 183.812287 266.537346 
L 184.05694 266.593272 
L 184.301593 267.602742 
L 184.546246 267.488517 
L 184.790899 267.576913 
L 185.035552 268.073438 
L 185.280205 268.029787 
L 185.524858 268.415514 
L 185.769511 268.50819 
L 186.014164 268.448475 
L 186.258817 268.099044 
L 186.50347 268.791729 
L 186.748123 268.574246 
L 187.726735 268.821482 
L 187.971388 267.00111 
L 188.216041 267.12032 
L 188.460694 267.107809 
L 188.705347 266.946518 
L 188.95 267.202376 
L 189.439306 266.607615 
L 189.683959 266.519471 
L 190.417918 266.864849 
L 190.662571 266.822753 
L 190.907224 266.419729 
L 191.151877 266.693238 
L 191.641183 266.42047 
L 191.885836 266.36719 
L 192.619795 265.779757 
L 193.109101 266.27247 
L 193.353754 266.184065 
L 194.087713 267.097549 
L 194.332366 266.788488 
L 194.577019 266.786567 
L 194.821672 266.441537 
L 195.310978 267.083934 
L 195.555631 267.173651 
L 195.800284 267.051919 
L 196.044937 267.539911 
L 196.534243 267.533553 
L 196.778896 267.619393 
L 197.023549 267.855068 
L 197.268202 267.931951 
L 197.512855 267.891343 
L 198.002161 268.260494 
L 198.246814 267.870887 
L 198.491467 268.292525 
L 198.73612 269.541485 
L 198.980773 269.6211 
L 199.470079 268.894866 
L 199.959385 268.916737 
L 200.204038 268.738736 
L 200.448691 267.825264 
L 200.693344 268.338377 
L 200.937997 267.83562 
L 201.18265 267.616582 
L 201.427303 267.579778 
L 201.671956 267.071181 
L 202.161262 267.337887 
L 202.405915 266.316529 
L 202.895221 265.609216 
L 203.384528 265.463498 
L 203.629181 265.970165 
L 203.873834 265.696518 
L 204.36314 266.161854 
L 204.607793 266.2817 
L 204.852446 265.983944 
L 205.097099 266.117095 
L 205.341752 265.544874 
L 205.586405 265.72564 
L 205.831058 265.335952 
L 206.565017 265.028937 
L 206.80967 264.613399 
L 207.054323 264.553435 
L 207.298976 265.005414 
L 207.543629 264.979306 
L 207.788282 264.356941 
L 208.032935 264.578423 
L 208.277588 264.437806 
L 208.522241 264.748177 
L 208.766894 264.826779 
L 209.011547 265.378115 
L 209.2562 265.396391 
L 209.500853 266.152381 
L 209.745506 266.239585 
L 209.990159 266.516848 
L 210.234812 265.58206 
L 210.479465 265.502624 
L 210.724118 265.2492 
L 210.968771 264.811533 
L 211.458077 265.03285 
L 211.947383 265.030201 
L 212.436689 265.634235 
L 212.681342 265.559783 
L 212.925995 265.966428 
L 213.170648 266.690121 
L 213.415301 266.755198 
L 213.659954 265.920278 
L 213.904607 265.838119 
L 214.14926 266.128218 
L 214.393913 266.148823 
L 214.638566 266.050419 
L 214.883219 266.218687 
L 215.127872 265.789574 
L 215.372525 265.715855 
L 216.106484 264.871117 
L 216.351137 264.982326 
L 216.59579 266.135973 
L 216.840443 266.521063 
L 217.085096 265.973749 
L 217.329749 266.701153 
L 217.819055 265.625294 
L 218.063708 265.579624 
L 218.308361 265.175226 
L 218.797667 265.260046 
L 219.04232 264.575641 
L 219.286973 264.73625 
L 219.531626 262.925325 
L 219.776279 262.935995 
L 220.020932 262.825284 
L 220.265585 263.110891 
L 220.754891 262.851118 
L 220.999544 263.063116 
L 221.244197 262.896851 
L 221.48885 263.10167 
L 221.733503 263.027956 
L 221.978156 263.195882 
L 222.222809 262.562886 
L 222.467462 263.044198 
L 222.712115 262.747494 
L 222.956768 262.230259 
L 223.201421 262.598601 
L 223.446074 262.521725 
L 223.690727 262.046896 
L 224.424686 262.392772 
L 224.913992 261.746214 
L 225.158645 262.206185 
L 225.647952 261.480284 
L 225.892605 262.374659 
L 226.137258 262.744517 
L 226.381911 264.353393 
L 226.626564 264.467135 
L 226.871217 264.027086 
L 227.11587 263.918062 
L 227.360523 264.58735 
L 227.849829 264.419805 
L 228.094482 263.7053 
L 228.583788 263.258371 
L 228.828441 262.651813 
L 229.073094 262.349289 
L 229.5624 262.816191 
L 229.807053 262.487225 
L 230.051706 262.645392 
L 230.296359 263.002846 
L 230.785665 263.190714 
L 231.030318 262.89323 
L 231.519624 263.21852 
L 232.00893 262.907517 
L 232.253583 263.076827 
L 232.498236 263.025794 
L 232.742889 262.346871 
L 232.987542 262.531286 
L 233.232195 263.21151 
L 233.476848 263.117864 
L 233.721501 262.675868 
L 233.966154 264.642483 
L 234.210807 264.889279 
L 234.944766 264.148685 
L 235.434072 264.183894 
L 235.678725 264.436386 
L 235.923378 264.436372 
L 236.168031 264.618299 
L 236.412684 264.64829 
L 236.657337 264.821083 
L 236.90199 263.477146 
L 237.146643 263.131526 
L 237.391296 263.145468 
L 237.635949 262.809868 
L 238.125255 263.606418 
L 238.369908 263.113577 
L 238.614561 262.946459 
L 238.859214 263.560708 
L 239.103867 263.411489 
L 239.34852 263.917773 
L 239.593173 263.634066 
L 239.837826 264.341899 
L 240.082479 264.395862 
L 240.816438 263.351007 
L 241.305744 263.544906 
L 241.550397 264.176737 
L 241.79505 264.423848 
L 242.039703 264.270635 
L 242.284356 264.767799 
L 242.529009 265.517727 
L 242.773662 265.55122 
L 243.018315 265.232523 
L 243.262968 265.229404 
L 243.507621 265.504855 
L 243.752274 265.988077 
L 243.996927 266.133387 
L 244.24158 266.420067 
L 244.486233 266.02839 
L 244.730886 265.878886 
L 244.975539 265.870728 
L 245.220192 266.015376 
L 245.464845 265.509234 
L 245.709498 265.63091 
L 245.954151 266.079021 
L 246.198804 265.965913 
L 246.443457 266.430306 
L 246.68811 266.160653 
L 247.177416 266.576458 
L 247.666722 265.799026 
L 247.911375 265.731259 
L 248.156029 265.801518 
L 248.400682 265.385932 
L 248.645335 265.287274 
L 248.889988 265.029227 
L 249.134641 265.150108 
L 249.379294 262.102964 
L 249.623947 261.171526 
L 249.8686 261.290719 
L 250.113253 261.158004 
L 250.357906 261.369852 
L 250.602559 261.360125 
L 250.847212 261.545962 
L 251.091865 261.912112 
L 251.336518 262.043319 
L 252.070477 264.763558 
L 252.31513 265.316445 
L 252.559783 263.52445 
L 252.804436 262.573524 
L 253.049089 262.443937 
L 253.293742 262.706379 
L 253.538395 263.747536 
L 253.783048 262.979346 
L 254.027701 262.89078 
L 254.272354 263.526015 
L 254.517007 262.442506 
L 254.76166 262.972088 
L 255.006313 262.573536 
L 255.495619 262.445161 
L 256.229578 261.671935 
L 256.474231 261.68286 
L 256.718884 261.391872 
L 256.963537 262.141488 
L 257.20819 262.017657 
L 257.452843 261.488968 
L 257.697496 261.299975 
L 257.942149 261.668258 
L 258.186802 261.158092 
L 258.431455 260.047793 
L 258.676108 260.592692 
L 259.410067 258.68932 
L 259.899373 258.130478 
L 260.144026 258.2489 
L 260.388679 257.914967 
L 260.633332 257.854889 
L 260.877985 256.67725 
L 261.122638 256.629292 
L 261.367291 256.046519 
L 261.856597 256.130793 
L 262.10125 256.594251 
L 262.345903 255.37581 
L 262.590556 255.165689 
L 262.835209 255.346837 
L 263.079862 255.334747 
L 263.324515 255.038149 
L 263.569168 256.235601 
L 263.813821 255.421491 
L 264.058474 255.018617 
L 264.303127 255.28453 
L 264.792433 256.185541 
L 265.037086 251.538089 
L 265.281739 251.819789 
L 265.526392 252.490685 
L 265.771045 252.780836 
L 266.015698 252.893629 
L 266.260351 253.626016 
L 266.505004 252.954393 
L 266.749657 252.928831 
L 266.99431 252.20484 
L 267.238963 252.088484 
L 267.483616 251.750753 
L 267.728269 252.286926 
L 267.972922 251.980005 
L 268.217575 252.026247 
L 268.706881 251.325884 
L 268.951534 250.111893 
L 269.44084 250.462393 
L 269.685493 248.822436 
L 269.930146 249.576438 
L 270.174799 249.040964 
L 270.419452 250.055114 
L 270.664106 249.707239 
L 270.908759 250.337182 
L 271.153412 250.248206 
L 271.398065 249.757626 
L 271.642718 249.537289 
L 272.132024 250.754896 
L 272.376677 249.83598 
L 272.865983 249.692892 
L 273.110636 249.500616 
L 273.355289 249.555618 
L 273.599942 248.890416 
L 274.089248 249.731332 
L 274.333901 250.445294 
L 274.578554 249.799927 
L 275.06786 252.957088 
L 275.312513 253.718683 
L 275.557166 253.728195 
L 275.801819 253.173797 
L 276.535778 256.847345 
L 277.269737 256.118721 
L 277.51439 255.311449 
L 277.759043 255.387814 
L 278.003696 255.002455 
L 278.493002 255.753573 
L 278.737655 254.270315 
L 278.982308 254.263711 
L 279.226961 255.751584 
L 279.471614 255.557284 
L 279.716267 255.572975 
L 280.205573 259.164433 
L 280.450226 258.875466 
L 280.939532 259.20482 
L 281.184185 258.695997 
L 281.673491 256.332378 
L 281.918144 253.432376 
L 282.162797 252.972662 
L 282.40745 251.586391 
L 282.652103 251.475155 
L 282.896756 251.15923 
L 283.141409 251.082585 
L 283.386062 251.311247 
L 283.630715 251.374673 
L 283.875368 251.716724 
L 284.120021 250.054219 
L 284.364674 249.821511 
L 284.609327 250.203433 
L 284.85398 250.249414 
L 285.098633 250.489418 
L 285.343286 251.209994 
L 285.832592 251.335746 
L 286.077245 250.654156 
L 286.321898 250.620313 
L 286.566551 250.736361 
L 286.811204 249.67709 
L 287.055857 249.94723 
L 287.30051 248.708188 
L 287.545163 248.631979 
L 287.789816 248.700117 
L 288.034469 247.947495 
L 288.279122 247.889532 
L 288.523775 247.449184 
L 289.013081 246.3394 
L 289.257734 246.474165 
L 289.502387 245.864133 
L 289.74704 246.285811 
L 290.236346 246.30559 
L 290.480999 246.692399 
L 290.970305 246.143417 
L 291.214958 246.236865 
L 291.459611 245.141275 
L 291.704264 245.025184 
L 291.948917 244.653245 
L 292.19357 244.831906 
L 292.438223 245.604013 
L 292.682876 245.424695 
L 293.172183 245.628041 
L 293.661489 245.417337 
L 293.906142 244.43413 
L 294.395448 246.542606 
L 294.640101 246.020883 
L 294.884754 246.526277 
L 295.129407 247.51176 
L 295.37406 247.277765 
L 295.618713 246.852912 
L 295.863366 246.922435 
L 296.108019 246.105285 
L 296.352672 245.982816 
L 296.597325 246.513105 
L 296.841978 239.753838 
L 297.086631 238.618138 
L 297.331284 238.434054 
L 297.575937 237.006485 
L 297.82059 236.740452 
L 298.065243 235.80696 
L 298.309896 235.719933 
L 298.554549 234.512855 
L 298.799202 234.77408 
L 299.043855 234.155072 
L 299.288508 233.857859 
L 299.533161 232.855628 
L 299.777814 232.707784 
L 300.022467 232.301186 
L 300.26712 233.090042 
L 300.511773 233.341997 
L 300.756426 233.221468 
L 301.001079 233.451644 
L 301.245732 232.006384 
L 301.490385 233.453476 
L 301.735038 232.722896 
L 301.979691 232.592304 
L 302.224344 232.031609 
L 302.468997 231.800944 
L 302.71365 232.782394 
L 302.958303 231.749215 
L 303.202956 232.115652 
L 303.447609 232.184974 
L 303.692262 230.635137 
L 303.936915 233.981209 
L 304.181568 234.565545 
L 304.670874 232.889219 
L 304.915527 232.531608 
L 305.16018 232.925966 
L 305.404833 232.078144 
L 305.649486 231.685246 
L 305.894139 230.188961 
L 306.383445 226.343658 
L 306.628098 225.453241 
L 306.872751 225.332101 
L 307.117404 224.684608 
L 307.362057 225.408679 
L 307.60671 225.082659 
L 308.096016 223.571075 
L 308.340669 224.806928 
L 308.829975 221.775768 
L 309.074628 220.620493 
L 309.319281 221.316676 
L 309.563934 221.070987 
L 309.808587 219.98731 
L 310.05324 220.449246 
L 310.297893 221.293805 
L 310.542546 221.119051 
L 311.031852 218.679967 
L 311.276505 218.090689 
L 311.521158 217.820539 
L 311.765811 218.285502 
L 312.010464 216.73268 
L 312.255117 212.596012 
L 312.744423 213.269337 
L 312.989076 214.963895 
L 313.233729 213.877509 
L 313.723035 213.413595 
L 313.967688 212.909913 
L 314.212341 214.073161 
L 314.456994 214.520022 
L 314.701647 213.926105 
L 314.9463 213.983089 
L 315.435607 214.788489 
L 315.68026 212.491611 
L 315.924913 213.371052 
L 316.169566 212.561218 
L 316.414219 213.635583 
L 316.658872 213.11337 
L 316.903525 216.886413 
L 317.148178 215.440337 
L 317.392831 216.511382 
L 317.637484 215.985579 
L 317.882137 213.099718 
L 318.12679 213.064583 
L 318.371443 212.017053 
L 318.616096 212.614127 
L 318.860749 210.429465 
L 319.105402 210.264093 
L 319.350055 210.328356 
L 319.594708 211.01311 
L 319.839361 208.301055 
L 320.084014 208.092515 
L 320.328667 207.317386 
L 320.57332 205.959321 
L 320.817973 206.009885 
L 321.062626 206.231723 
L 321.307279 206.264969 
L 321.796585 207.942204 
L 322.041238 207.653296 
L 322.285891 208.775254 
L 322.530544 208.466333 
L 322.775197 209.740906 
L 323.01985 208.97736 
L 323.264503 209.419722 
L 323.509156 208.240485 
L 323.753809 208.419379 
L 323.998462 206.928367 
L 324.243115 207.112726 
L 324.487768 203.262401 
L 324.732421 201.869915 
L 324.977074 201.55455 
L 325.221727 203.264155 
L 325.46638 203.37001 
L 325.711033 202.605279 
L 325.955686 205.241648 
L 326.200339 205.614114 
L 326.689645 207.084786 
L 326.934298 202.604505 
L 327.178951 202.799421 
L 327.423604 204.271184 
L 327.668257 206.780724 
L 327.91291 180.427412 
L 328.157563 188.541093 
L 328.402216 184.605914 
L 328.646869 177.303797 
L 328.891522 176.681348 
L 329.136175 175.574254 
L 329.380828 175.876331 
L 329.870134 174.638781 
L 330.114787 174.43482 
L 330.35944 174.457294 
L 330.848746 176.713531 
L 331.093399 182.180697 
L 331.338052 181.175086 
L 331.582705 176.850086 
L 332.072011 173.25963 
L 332.80597 179.697913 
L 333.050623 177.788637 
L 333.295276 171.335769 
L 333.784582 166.877571 
L 334.029235 165.227073 
L 334.273888 160.832504 
L 334.518541 160.125826 
L 334.763194 158.578366 
L 335.007847 155.236531 
L 335.2525 145.858265 
L 335.497153 156.653721 
L 335.741806 153.175248 
L 336.231112 164.617055 
L 336.475765 161.485961 
L 336.720418 165.071773 
L 336.965071 163.325388 
L 337.209724 158.197096 
L 337.69903 160.695361 
L 337.943684 162.478293 
L 338.188337 162.551499 
L 338.43299 165.192866 
L 338.677643 163.317666 
L 338.922296 160.474987 
L 339.166949 161.93763 
L 339.411602 160.744535 
L 339.656255 157.816992 
L 339.900908 157.377522 
L 340.390214 152.49511 
L 340.634867 154.678121 
L 340.87952 155.71642 
L 341.124173 149.835707 
L 341.368826 148.189452 
L 341.613479 149.55605 
L 342.102785 143.586837 
L 342.347438 144.399959 
L 342.836744 150.544354 
L 343.081397 156.270344 
L 343.32605 155.936374 
L 343.570703 156.083785 
L 343.815356 158.419242 
L 344.060009 158.323375 
L 344.304662 153.613711 
L 344.549315 153.79351 
L 344.793968 166.452434 
L 345.038621 164.88719 
L 345.283274 160.997978 
L 345.527927 165.166316 
L 345.77258 163.67094 
L 346.017233 167.963496 
L 346.506539 169.679414 
L 346.751192 168.46155 
L 347.240498 168.703224 
L 347.485151 167.945936 
L 347.729804 164.665641 
L 347.974457 164.660176 
L 348.21911 163.843213 
L 348.463763 162.249507 
L 348.708416 159.520722 
L 348.953069 155.367286 
L 349.197722 159.905134 
L 349.442375 157.117803 
L 349.687028 158.130698 
L 349.931681 157.998488 
L 350.176334 156.91994 
L 350.66564 157.984994 
L 350.910293 155.433545 
L 351.399599 156.614647 
L 351.644252 165.860442 
L 351.888905 166.70832 
L 352.133558 165.565351 
L 352.378211 166.37035 
L 352.622864 169.579555 
L 352.867517 169.213822 
L 353.11217 170.09876 
L 353.356823 172.426813 
L 353.601476 167.951736 
L 353.846129 167.83925 
L 354.090782 167.536521 
L 354.335435 165.491949 
L 354.580088 164.943573 
L 354.824741 163.467082 
L 355.069394 161.275202 
L 355.314047 162.128563 
L 355.5587 160.245688 
L 355.803353 161.745149 
L 356.048006 159.03218 
L 356.292659 162.802294 
L 356.537312 161.905261 
L 357.026618 162.319785 
L 357.271271 163.577469 
L 357.515924 163.66776 
L 357.760577 138.916883 
L 358.249883 133.221928 
L 358.494536 125.173843 
L 358.739189 122.470974 
L 358.983842 133.465588 
L 359.473148 122.910827 
L 359.717801 119.892098 
L 359.962454 121.560791 
L 360.207107 119.747233 
L 360.451761 119.648568 
L 360.941067 111.678203 
L 361.18572 112.297202 
L 361.430373 112.210381 
L 361.675026 112.883878 
L 361.919679 107.812557 
L 362.164332 108.403038 
L 362.408985 106.529125 
L 362.653638 92.976823 
L 362.898291 108.685083 
L 363.142944 104.878766 
L 363.387597 103.566798 
L 363.63225 104.080529 
L 363.876903 102.959605 
L 364.121556 103.844571 
L 364.366209 97.018687 
L 364.610862 96.760086 
L 364.855515 94.207192 
L 365.100168 94.792469 
L 365.344821 100.394811 
L 365.589474 102.646842 
L 365.834127 108.927997 
L 366.07878 103.564466 
L 366.812739 117.976443 
L 367.057392 113.563531 
L 367.302045 113.182075 
L 367.546698 109.113279 
L 367.791351 100.659454 
L 368.036004 98.491019 
L 368.280657 90.180026 
L 368.52531 93.073287 
L 368.769963 87.771958 
L 369.014616 88.569748 
L 369.259269 86.998117 
L 369.503922 87.606615 
L 369.748575 84.793778 
L 369.993228 83.66379 
L 370.237881 85.713025 
L 370.482534 86.625968 
L 370.727187 84.395237 
L 370.97184 90.553033 
L 371.216493 87.750435 
L 371.461146 89.211894 
L 371.705799 87.25114 
L 371.950452 86.846333 
L 372.195105 84.433006 
L 372.439758 83.135772 
L 372.684411 77.471116 
L 372.929064 79.579774 
L 373.173717 78.213362 
L 373.663023 99.509976 
L 373.907676 80.98457 
L 374.152329 85.359023 
L 374.396982 87.262032 
L 374.641635 91.054696 
L 374.886288 91.128276 
L 375.130941 93.469347 
L 375.620247 85.610461 
L 375.8649 86.526855 
L 376.109553 88.134428 
L 376.354206 86.780214 
L 376.598859 87.084733 
L 376.843512 86.126393 
L 377.088165 81.559216 
L 377.332818 80.467799 
L 377.577471 86.15437 
L 377.822124 86.026571 
L 378.066777 84.937113 
L 378.31143 88.64758 
L 378.556083 82.119351 
L 379.045389 80.602088 
L 379.290042 81.562965 
L 379.779348 59.70312 
L 380.024001 60.209391 
L 380.268654 61.952428 
L 380.513307 68.342189 
L 380.75796 70.041377 
L 381.002613 79.342977 
L 381.247266 78.999962 
L 381.491919 73.673379 
L 381.736572 73.817926 
L 381.981225 70.084816 
L 382.225878 69.282941 
L 382.470531 69.145929 
L 382.715184 67.210485 
L 382.959838 67.278208 
L 383.204491 66.869615 
L 383.693797 58.03799 
L 383.93845 55.29931 
L 384.183103 55.392044 
L 384.672409 46.958586 
L 384.917062 47.279109 
L 385.161715 47.174102 
L 385.406368 46.924716 
L 385.651021 47.776408 
L 385.895674 47.969542 
L 386.140327 45.626493 
L 386.38498 51.148634 
L 386.629633 49.467762 
L 386.874286 41.297381 
L 387.118939 39.322378 
L 387.363592 35.879687 
L 387.608245 34.414125 
L 387.852898 36.243685 
L 387.852898 36.243685 
" style="fill:none;stroke:#1f77b4;stroke-linecap:square;stroke-width:1.5;"/>
   </g>
   <g id="line2d_32">
    <path clip-path="url(#pc55aa36b51)" d="M 63.198352 273.950581 
L 63.443005 273.693891 
L 63.687658 273.877241 
L 63.932311 273.816124 
L 64.66627 272.94827 
L 64.910923 272.850483 
L 65.155576 272.263764 
L 65.400229 272.373774 
L 65.644882 272.141531 
L 66.134188 272.5449 
L 66.378841 272.178201 
L 66.623494 272.337104 
L 67.357453 272.349328 
L 67.602106 272.76492 
L 67.846759 272.398221 
L 68.091412 272.703803 
L 68.580719 272.740473 
L 68.825372 273.070503 
L 69.070025 273.094949 
L 69.314678 274.011697 
L 69.559331 273.962804 
L 69.803984 273.461648 
L 70.048637 273.865017 
L 70.29329 274.011697 
L 71.271902 273.327192 
L 71.516555 273.791678 
L 72.005861 273.486095 
L 72.250514 273.608328 
L 72.73982 273.547211 
L 73.229126 274.13393 
L 73.718432 273.938357 
L 73.963085 274.20727 
L 74.207738 274.146153 
L 74.452391 274.305056 
L 74.697044 273.596105 
L 74.941697 273.98725 
L 75.18635 274.146153 
L 75.675656 274.757319 
L 75.920309 274.671756 
L 76.164962 274.806212 
L 76.409615 274.610639 
L 76.654268 274.158377 
L 77.143574 274.525076 
L 77.388227 275.441824 
L 77.63288 275.61295 
L 77.877533 275.172911 
L 78.122186 275.368484 
L 78.366839 275.356261 
L 78.856145 275.61295 
L 79.100798 274.903998 
L 79.345451 274.977338 
L 79.590104 274.329503 
L 79.834757 274.341726 
L 80.07941 274.830658 
L 80.324063 274.745095 
L 80.813369 275.68629 
L 81.058022 275.784076 
L 81.302675 276.138552 
L 81.547328 276.077436 
L 81.791981 276.334125 
L 82.036634 275.942979 
L 82.281287 276.199669 
L 82.52594 275.7963 
L 82.770593 275.698513 
L 83.015246 275.441824 
L 83.504552 275.258474 
L 83.749205 275.527387 
L 83.993858 275.61295 
L 84.238511 275.881863 
L 84.483164 275.454047 
L 84.727817 275.625173 
L 85.217123 275.625173 
L 85.706429 274.781765 
L 85.951082 274.940668 
L 87.419 274.793989 
L 87.663653 275.148464 
L 88.152959 275.282921 
L 88.642265 275.454047 
L 88.886918 275.258474 
L 89.131571 274.696202 
L 89.376224 274.683979 
L 89.620877 274.1706 
L 90.110183 274.977338 
L 90.354836 275.319591 
L 91.088796 275.331814 
L 91.333449 275.600727 
L 91.822755 275.270697 
L 92.312061 275.441824 
L 92.801367 275.344037 
L 93.290673 274.830658 
L 93.535326 275.160688 
L 94.269285 275.124018 
L 94.513938 275.380707 
L 94.758591 275.038455 
L 95.247897 275.221804 
L 95.737203 274.952892 
L 96.226509 275.124018 
L 96.471162 274.683979 
L 96.715815 274.683979 
L 97.449774 275.221804 
L 97.694427 274.940668 
L 97.93908 275.209581 
L 98.183733 275.124018 
L 98.428386 274.842882 
L 98.917692 274.708425 
L 99.162345 274.781765 
L 99.406998 274.598416 
L 101.364222 274.793989 
L 101.853528 275.001785 
L 102.098181 274.818435 
L 102.342834 275.062901 
L 102.587487 274.989561 
L 102.83214 275.075125 
L 103.321446 274.781765 
L 103.566099 274.561746 
L 103.810752 275.075125 
L 104.300058 275.417377 
L 104.544711 275.282921 
L 104.789364 275.014008 
L 105.034017 275.050678 
L 105.523323 274.561746 
L 105.767976 274.635086 
L 106.012629 274.24394 
L 106.257282 274.573969 
L 106.501935 274.402843 
L 106.991241 274.916222 
L 107.480547 274.855105 
L 108.214506 273.779454 
L 108.459159 273.852794 
L 108.948465 273.412755 
L 109.193118 273.559435 
L 109.682424 273.290522 
L 109.927077 273.339415 
L 110.17173 273.559435 
L 110.416383 273.253852 
L 110.661036 273.241629 
L 110.905689 272.471561 
L 111.150342 272.83826 
L 111.639648 272.275988 
L 111.884301 272.361551 
L 112.128954 272.068192 
L 112.373607 272.104861 
L 112.61826 272.007075 
L 112.862913 272.642687 
L 113.107566 272.361551 
L 113.841526 272.593794 
L 114.086179 272.361551 
L 114.330832 272.557124 
L 114.820138 272.557124 
L 115.064791 272.936046 
L 115.309444 272.826036 
L 115.554097 272.58157 
L 115.79875 272.593794 
L 116.288056 273.070503 
L 116.532709 272.679357 
L 116.777362 272.703803 
L 117.022015 272.532677 
L 117.266668 272.642687 
L 117.511321 272.104861 
L 117.755974 272.593794 
L 118.000627 272.630464 
L 118.24528 272.984939 
L 118.489933 272.862706 
L 119.223892 273.082726 
L 120.202504 272.83826 
L 120.447157 272.936046 
L 120.69181 272.83826 
L 121.181116 272.361551 
L 122.159728 272.385997 
L 122.404381 272.459337 
L 122.649034 272.83826 
L 124.116952 272.923823 
L 124.361605 272.630464 
L 124.606258 272.593794 
L 125.095564 272.202648 
L 125.340217 272.117085 
L 125.58487 272.385997 
L 125.829523 272.398221 
L 126.074176 272.275988 
L 126.563482 272.679357 
L 126.808135 272.61824 
L 127.052788 271.872619 
L 127.542094 271.677046 
L 127.786747 271.970405 
L 129.010012 271.921512 
L 129.254665 272.153755 
L 130.233277 272.202648 
L 130.722583 271.982628 
L 130.967236 272.055968 
L 131.945848 271.053657 
L 132.435154 270.919201 
L 133.169113 270.772521 
L 133.658419 271.126997 
L 134.147725 271.029211 
L 135.615643 271.444803 
L 135.860297 271.188114 
L 136.10495 271.188114 
L 136.349603 271.347017 
L 136.594256 271.640376 
L 136.838909 271.444803 
L 137.083562 271.591483 
L 137.328215 271.310347 
L 137.572868 271.408133 
L 137.817521 271.17589 
L 138.062174 271.13922 
L 138.306827 270.919201 
L 138.55148 270.870308 
L 138.796133 270.968094 
L 139.285439 271.444803 
L 139.774745 271.652599 
L 140.753357 271.591483 
L 140.99801 272.129308 
L 141.242663 272.153755 
L 141.487316 272.031522 
L 141.731969 272.471561 
L 141.976622 271.224784 
L 142.221275 271.065881 
L 142.465928 271.041434 
L 142.710581 270.503609 
L 142.955234 270.418045 
L 143.199887 270.479162 
L 143.689193 271.371463 
L 143.933846 271.652599 
L 144.178499 271.50592 
L 144.423152 271.689269 
L 144.667805 271.2859 
L 145.157111 271.053657 
L 145.401764 271.17589 
L 145.646417 270.992541 
L 145.89107 271.004764 
L 146.135723 270.735851 
L 146.869682 271.652599 
L 147.114335 271.224784 
L 147.358988 271.408133 
L 147.603641 271.774832 
L 147.848294 271.884842 
L 148.3376 271.774832 
L 148.582253 271.518143 
L 148.826906 271.444803 
L 149.071559 271.065881 
L 149.560865 270.906978 
L 149.805518 271.090327 
L 150.050171 270.980317 
L 150.294824 270.723628 
L 150.539477 270.662511 
L 151.028783 271.090327 
L 151.762742 270.246919 
L 152.007395 270.992541 
L 152.252048 271.016987 
L 152.496701 271.46925 
L 152.741354 270.882531 
L 152.986007 270.674735 
L 153.23066 270.613618 
L 153.475313 270.699181 
L 153.964619 270.650288 
L 154.209272 270.723628 
L 154.453925 271.224784 
L 154.698578 271.347017 
L 154.943231 271.163667 
L 155.187884 271.347017 
L 155.432537 271.029211 
L 155.67719 271.053657 
L 155.921843 271.310347 
L 156.166496 271.200337 
L 156.411149 271.371463 
L 157.389761 270.381375 
L 158.12372 268.352307 
L 158.368374 268.36453 
L 158.613027 268.071171 
L 158.85768 267.288879 
L 159.102333 267.460006 
L 159.346986 267.129976 
L 159.591639 267.337773 
L 159.836292 267.374442 
L 160.325598 267.777812 
L 160.570251 267.887821 
L 161.059557 267.460006 
L 161.30421 267.777812 
L 161.548863 267.802258 
L 161.793516 268.132287 
L 162.038169 267.912268 
L 162.282822 267.851151 
L 162.527475 268.560103 
L 163.016781 268.462317 
L 163.506087 267.570015 
L 163.995393 267.582239 
L 164.484699 267.692248 
L 164.974005 268.498987 
L 165.463311 268.352307 
L 165.707964 267.447782 
L 165.952617 267.594462 
L 166.19727 267.349996 
L 166.441923 268.058948 
L 166.686576 267.985608 
L 166.931229 267.191093 
L 167.175882 267.215539 
L 167.665188 268.095617 
L 168.154494 267.692248 
L 168.6438 267.557792 
L 169.622412 266.702161 
L 169.867065 267.349996 
L 170.111718 267.447782 
L 170.356371 267.398889 
L 170.601024 267.667802 
L 170.845677 267.545569 
L 171.09033 267.716695 
L 171.334983 267.472229 
L 171.579636 267.936714 
L 171.824289 267.912268 
L 172.068942 267.631132 
L 172.313595 268.181181 
L 172.558248 267.533345 
L 173.047554 268.120064 
L 173.53686 268.29119 
L 173.781513 267.582239 
L 174.026166 267.948938 
L 174.515472 267.851151 
L 174.760125 267.643355 
L 175.249431 267.044413 
L 176.472696 267.166646 
L 177.451308 266.836617 
L 177.940614 266.384355 
L 178.919226 266.298792 
L 179.163879 266.84884 
L 179.897838 267.728918 
L 180.142491 267.496676 
L 180.387144 267.802258 
L 180.631798 267.777812 
L 181.121104 267.325549 
L 181.365757 267.411112 
L 181.61041 267.203316 
L 182.099716 267.570015 
L 182.344369 266.88551 
L 182.589022 267.019967 
L 182.833675 266.95885 
L 183.078328 266.665491 
L 183.322981 266.567704 
L 183.812287 266.653267 
L 184.05694 267.704472 
L 184.301593 267.570015 
L 184.546246 267.667802 
L 184.790899 268.144511 
L 185.035552 268.107841 
L 185.280205 268.498987 
L 185.524858 268.58455 
L 185.769511 268.51121 
L 186.014164 268.144511 
L 186.258817 268.853462 
L 186.50347 268.62122 
L 187.482082 268.902356 
L 187.726735 267.019967 
L 188.216041 267.1422 
L 188.460694 267.007743 
L 188.705347 267.264433 
L 189.194653 266.653267 
L 189.439306 266.567704 
L 190.173265 266.92218 
L 190.417918 266.88551 
L 190.662571 266.469918 
L 190.907224 266.738831 
L 191.39653 266.469918 
L 191.641183 266.408801 
L 191.885836 266.188782 
L 192.130489 265.760966 
L 192.375142 265.834306 
L 192.864448 266.359908 
L 193.109101 266.274345 
L 193.598407 266.873287 
L 193.84306 267.191093 
L 194.087713 266.84884 
L 194.332366 266.836617 
L 194.577019 266.482141 
L 195.066325 267.154423 
L 195.310978 267.252209 
L 195.555631 267.117753 
L 195.800284 267.618909 
L 196.28959 267.606685 
L 196.534243 267.692248 
L 197.023549 268.010054 
L 197.268202 267.961161 
L 197.757508 268.32786 
L 198.002161 267.924491 
L 198.246814 268.352307 
L 198.491467 269.6602 
L 198.73612 269.721317 
L 199.225426 268.926802 
L 199.714732 268.951249 
L 199.959385 268.767899 
L 200.204038 267.851151 
L 200.448691 268.376753 
L 200.693344 267.887821 
L 200.937997 267.655578 
L 201.18265 267.643355 
L 201.427303 267.10553 
L 201.916609 267.398889 
L 202.161262 266.359908 
L 202.650568 265.638733 
L 203.139875 265.528723 
L 203.384528 266.054326 
L 203.629181 265.77319 
L 204.118487 266.237675 
L 204.36314 266.347685 
L 204.607793 266.054326 
L 204.852446 266.164335 
L 205.097099 265.58984 
L 205.341752 265.785413 
L 205.586405 265.382044 
L 206.320364 265.100908 
L 206.565017 264.685315 
L 206.80967 264.611976 
L 207.054323 265.088684 
L 207.298976 265.052015 
L 207.543629 264.404179 
L 207.788282 264.636422 
L 208.032935 264.489742 
L 208.277588 264.819772 
L 208.522241 264.905335 
L 208.766894 265.467607 
L 209.011547 265.47983 
L 209.2562 266.249898 
L 209.500853 266.323238 
L 209.745506 266.604374 
L 209.990159 265.62651 
L 210.234812 265.528723 
L 210.479465 265.284257 
L 210.724118 264.844218 
L 211.213424 265.100908 
L 211.70273 265.113131 
L 211.947383 265.345374 
L 212.192036 265.73652 
L 212.436689 265.638733 
L 212.681342 266.054326 
L 212.925995 266.787724 
L 213.170648 266.84884 
L 213.415301 265.968762 
L 213.659954 265.870976 
L 213.904607 266.176559 
L 214.14926 266.213228 
L 214.393913 266.115442 
L 214.638566 266.286568 
L 214.883219 265.846529 
L 215.127872 265.77319 
L 215.861831 264.929781 
L 216.106484 265.052015 
L 216.351137 266.249898 
L 216.59579 266.641044 
L 216.840443 266.066549 
L 217.085096 266.775501 
L 217.574402 265.66318 
L 217.819055 265.602063 
L 218.063708 265.210917 
L 218.553014 265.333151 
L 218.797667 264.636422 
L 219.04232 264.807548 
L 219.286973 262.986276 
L 219.776279 262.88849 
L 220.020932 263.206295 
L 220.265585 263.132956 
L 220.510238 262.937383 
L 220.754891 263.157402 
L 220.999544 262.974053 
L 221.244197 263.181849 
L 221.48885 263.108509 
L 221.733503 263.279635 
L 221.978156 262.6318 
L 222.222809 263.132956 
L 222.467462 262.827373 
L 222.712115 262.301771 
L 222.956768 262.680693 
L 223.201421 262.607354 
L 223.446074 262.130645 
L 224.180033 262.497344 
L 224.669339 261.825062 
L 224.913992 262.289548 
L 225.403298 261.556149 
L 225.647952 262.48512 
L 225.892605 262.864043 
L 226.137258 264.526412 
L 226.381911 264.624199 
L 226.626564 264.11082 
L 226.871217 264.00081 
L 227.11587 264.660869 
L 227.605176 264.501966 
L 227.849829 263.768567 
L 228.339135 263.328529 
L 228.583788 262.717363 
L 228.828441 262.424004 
L 229.317747 262.912936 
L 229.5624 262.582907 
L 229.807053 262.754033 
L 230.051706 263.108509 
L 230.541012 263.291859 
L 230.785665 262.974053 
L 231.030318 263.084062 
L 231.274971 263.316305 
L 231.764277 262.986276 
L 232.00893 263.181849 
L 232.253583 263.108509 
L 232.498236 262.436227 
L 232.742889 262.607354 
L 232.987542 263.316305 
L 233.232195 263.230742 
L 233.476848 262.754033 
L 233.721501 264.795325 
L 233.966154 265.027568 
L 234.700113 264.22083 
L 235.189419 264.245276 
L 235.434072 264.526412 
L 235.678725 264.526412 
L 235.923378 264.709762 
L 236.168031 264.746432 
L 236.412684 264.905335 
L 236.657337 263.548548 
L 236.90199 263.181849 
L 237.146643 263.194072 
L 237.391296 262.88849 
L 237.880602 263.719674 
L 238.125255 263.242965 
L 238.369908 263.035169 
L 238.614561 263.658558 
L 238.859214 263.524101 
L 239.103867 264.00081 
L 239.34852 263.719674 
L 239.593173 264.440849 
L 239.837826 264.489742 
L 240.571785 263.426315 
L 241.061091 263.634111 
L 241.305744 264.306393 
L 241.550397 264.563082 
L 241.79505 264.367509 
L 242.284356 265.650956 
L 242.529009 265.66318 
L 242.773662 265.308704 
L 243.018315 265.284257 
L 243.996927 266.518811 
L 244.24158 266.103219 
L 244.486233 265.944316 
L 244.730886 265.932092 
L 244.975539 266.103219 
L 245.220192 265.565393 
L 245.464845 265.712073 
L 245.709498 266.164335 
L 245.954151 266.054326 
L 246.198804 266.518811 
L 246.443457 266.225452 
L 246.932763 266.641044 
L 247.422069 265.834306 
L 247.666722 265.77319 
L 247.911375 265.858753 
L 248.156029 265.44316 
L 248.400682 265.345374 
L 248.645335 265.088684 
L 248.889988 265.247587 
L 249.134641 262.155091 
L 249.379294 261.177227 
L 249.623947 261.323906 
L 249.8686 261.250567 
L 250.113253 261.495033 
L 250.357906 261.470586 
L 250.602559 261.653936 
L 250.847212 262.032858 
L 251.091865 262.142868 
L 251.825824 264.929781 
L 252.070477 265.455384 
L 252.31513 263.585218 
L 252.559783 262.582907 
L 252.804436 262.460674 
L 253.049089 262.766256 
L 253.293742 263.890801 
L 253.538395 263.096286 
L 253.783048 263.022946 
L 254.027701 263.658558 
L 254.272354 262.52179 
L 254.517007 263.071839 
L 254.76166 262.644023 
L 255.250966 262.509567 
L 255.984925 261.751722 
L 256.229578 261.776169 
L 256.474231 261.482809 
L 256.718884 262.265101 
L 256.963537 262.130645 
L 257.20819 261.592819 
L 257.452843 261.385023 
L 257.697496 261.763945 
L 257.942149 261.26279 
L 258.186802 260.113799 
L 258.431455 260.700518 
L 258.920761 259.172605 
L 259.410067 258.439207 
L 259.65472 258.255857 
L 259.899373 258.37809 
L 260.144026 258.035837 
L 260.388679 257.974721 
L 260.633332 256.801284 
L 260.877985 256.715721 
L 261.122638 256.190118 
L 261.611944 256.300128 
L 261.856597 256.740167 
L 262.10125 255.53006 
L 262.345903 255.297817 
L 262.590556 255.45672 
L 262.835209 255.481167 
L 263.079862 255.200031 
L 263.324515 256.410138 
L 263.569168 255.56673 
L 263.813821 255.163361 
L 264.058474 255.407827 
L 264.54778 256.373468 
L 264.792433 251.679719 
L 265.037086 251.850845 
L 265.281739 252.584243 
L 265.526392 252.950943 
L 265.771045 253.085399 
L 266.015698 253.818797 
L 266.260351 253.085399 
L 266.505004 253.085399 
L 266.749657 252.315331 
L 266.99431 252.205321 
L 267.238963 251.875292 
L 267.483616 252.449787 
L 267.728269 252.144204 
L 267.972922 252.193098 
L 268.462228 251.471923 
L 268.706881 250.212922 
L 268.951534 250.518505 
L 269.196187 250.604068 
L 269.44084 248.990592 
L 269.685493 249.772883 
L 269.930146 249.222835 
L 270.174799 250.261816 
L 270.419452 249.931786 
L 270.664106 250.530728 
L 270.908759 250.432942 
L 271.398065 249.699543 
L 271.887371 250.958544 
L 272.132024 250.029573 
L 272.62133 249.846223 
L 272.865983 249.699543 
L 273.110636 249.736213 
L 273.355289 249.076155 
L 273.844595 249.956233 
L 274.089248 250.677408 
L 274.333901 250.041796 
L 274.823207 253.232079 
L 275.06786 254.026593 
L 275.312513 253.965477 
L 275.557166 253.354312 
L 276.291125 257.106866 
L 277.025084 256.263458 
L 277.269737 255.468943 
L 277.51439 255.505613 
L 277.759043 255.163361 
L 278.248349 255.957876 
L 278.493002 254.442186 
L 278.737655 254.429962 
L 278.982308 255.945652 
L 279.226961 255.774526 
L 279.471614 255.762303 
L 279.96092 259.417071 
L 280.205573 259.087042 
L 280.694879 259.319284 
L 280.939532 258.793682 
L 281.184185 257.253546 
L 281.428838 256.434585 
L 281.673491 253.525438 
L 281.918144 253.036506 
L 282.162797 251.716389 
L 282.40745 251.618602 
L 282.652103 251.34969 
L 282.896756 251.264127 
L 283.141409 251.520816 
L 283.386062 251.545263 
L 283.630715 251.911962 
L 283.875368 250.212922 
L 284.120021 249.980679 
L 284.364674 250.335155 
L 284.609327 250.457388 
L 284.85398 250.714078 
L 285.098633 251.435253 
L 285.587939 251.520816 
L 285.832592 250.860757 
L 286.077245 250.762971 
L 286.321898 250.958544 
L 286.566551 249.785107 
L 286.811204 250.127359 
L 287.055857 248.917252 
L 287.30051 248.795019 
L 287.545163 248.868359 
L 287.789816 248.159407 
L 288.034469 248.098291 
L 288.279122 247.670475 
L 288.768428 246.533707 
L 289.013081 246.69261 
L 289.257734 246.056999 
L 289.502387 246.484814 
L 289.74704 246.545931 
L 289.991693 246.484814 
L 290.236346 246.937077 
L 290.725652 246.387028 
L 290.970305 246.435921 
L 291.214958 245.335824 
L 291.459611 245.213591 
L 291.704264 244.859115 
L 291.948917 245.054688 
L 292.19357 245.861426 
L 292.438223 245.690299 
L 292.682876 245.739193 
L 292.92753 245.910319 
L 293.172183 245.690299 
L 293.416836 245.65363 
L 293.661489 244.639095 
L 294.150795 246.814844 
L 294.395448 246.240348 
L 294.640101 246.76595 
L 294.884754 247.756038 
L 295.129407 247.499349 
L 295.37406 247.05931 
L 295.618713 247.120426 
L 295.863366 246.289241 
L 296.108019 246.167008 
L 296.352672 246.76595 
L 296.597325 240.153142 
L 296.841978 238.674122 
L 297.086631 238.564113 
L 297.331284 237.243996 
L 297.575937 237.011753 
L 297.82059 236.058335 
L 298.065243 235.972772 
L 298.309896 234.799335 
L 298.554549 235.031578 
L 299.288508 233.136965 
L 299.533161 233.026955 
L 299.777814 232.623586 
L 300.022467 233.430325 
L 300.26712 233.723684 
L 300.511773 233.613674 
L 300.756426 233.797024 
L 301.001079 232.330227 
L 301.245732 233.772577 
L 301.490385 233.051402 
L 301.735038 232.941392 
L 301.979691 232.354674 
L 302.224344 232.122431 
L 302.468997 233.136965 
L 302.71365 232.110208 
L 302.958303 232.464683 
L 303.202956 232.513577 
L 303.447609 230.97344 
L 303.692262 234.347072 
L 303.936915 234.946014 
L 304.670874 232.782489 
L 304.915527 233.210305 
L 305.16018 232.366897 
L 305.404833 232.000198 
L 305.649486 230.484508 
L 306.138792 226.658614 
L 306.383445 225.705196 
L 306.628098 225.729642 
L 306.872751 225.069584 
L 307.117404 225.827429 
L 307.362057 225.4974 
L 307.851363 223.969487 
L 308.096016 225.191817 
L 308.585322 222.184884 
L 308.829975 221.02367 
L 309.074628 221.720398 
L 309.319281 221.573719 
L 309.563934 220.449175 
L 309.808587 220.901437 
L 310.05324 221.744845 
L 310.297893 221.561495 
L 310.787199 219.104611 
L 311.031852 218.444553 
L 311.276505 218.261203 
L 311.521158 218.725689 
L 311.765811 217.271115 
L 312.010464 213.188532 
L 312.255117 213.261871 
L 312.49977 213.726357 
L 312.744423 215.498736 
L 312.989076 214.337522 
L 313.478382 213.824143 
L 313.723035 213.347435 
L 313.967688 214.533095 
L 314.212341 215.034251 
L 314.456994 214.423085 
L 314.701647 214.471979 
L 315.190953 215.266493 
L 315.435607 213.054075 
L 315.68026 213.81192 
L 315.924913 213.090745 
L 316.169566 214.227512 
L 316.414219 213.677464 
L 316.658872 217.491135 
L 316.903525 215.987668 
L 317.148178 217.063319 
L 317.392831 216.415484 
L 317.637484 213.616347 
L 317.882137 213.432998 
L 318.12679 212.418463 
L 318.371443 213.127415 
L 318.616096 210.96389 
L 318.860749 210.768317 
L 319.105402 210.85388 
L 319.350055 211.599502 
L 319.594708 208.910375 
L 319.839361 208.617015 
L 320.084014 207.859171 
L 320.328667 206.49016 
L 321.062626 206.844636 
L 321.551932 208.531452 
L 321.796585 208.22587 
L 322.041238 209.41153 
L 322.285891 209.044831 
L 322.530544 210.364948 
L 322.775197 209.582657 
L 323.01985 210.047142 
L 323.264503 208.824812 
L 323.509156 208.995938 
L 323.753809 207.455802 
L 323.998462 207.688044 
L 324.243115 203.813257 
L 324.487768 202.395353 
L 324.732421 202.040877 
L 324.977074 203.849927 
L 325.221727 203.996606 
L 325.46638 203.263208 
L 325.711033 205.842325 
L 325.955686 206.196801 
L 326.200339 207.174665 
L 326.444992 207.651374 
L 326.689645 203.128752 
L 326.934298 203.263208 
L 327.178951 204.730004 
L 327.423604 207.406908 
L 327.668257 182.715832 
L 327.91291 188.008523 
L 328.157563 184.891581 
L 328.402216 178.242103 
L 328.891522 176.127471 
L 329.136175 176.591956 
L 329.380828 175.772995 
L 329.870134 175.149606 
L 330.114787 175.210723 
L 330.604093 177.545374 
L 330.848746 183.119201 
L 331.093399 182.129114 
L 331.338052 177.93652 
L 331.827358 174.037286 
L 332.561317 180.735657 
L 332.80597 178.804375 
L 333.050623 172.35047 
L 333.539929 167.510041 
L 333.784582 166.018798 
L 334.029235 161.691748 
L 334.273888 160.88501 
L 334.518541 159.320427 
L 334.763194 156.056804 
L 335.007847 146.840432 
L 335.2525 156.704639 
L 335.497153 154.039959 
L 335.986459 165.554312 
L 336.231112 162.645165 
L 336.475765 165.884341 
L 336.720418 164.221972 
L 336.965071 159.11263 
L 337.209724 160.102718 
L 337.69903 163.806379 
L 337.943684 163.818603 
L 338.188337 166.65441 
L 338.677643 161.703971 
L 338.922296 163.109651 
L 339.166949 161.789534 
L 339.411602 159.051514 
L 339.656255 158.489242 
L 340.145561 153.624366 
L 340.390214 155.763445 
L 340.634867 156.790202 
L 340.87952 150.959686 
L 341.124173 149.19953 
L 341.368826 150.434084 
L 341.858132 144.628014 
L 342.102785 145.263626 
L 342.592091 151.363055 
L 342.836744 157.768067 
L 343.32605 157.010222 
L 343.570703 159.1493 
L 343.815356 159.173747 
L 344.060009 154.479998 
L 344.304662 154.85892 
L 344.549315 167.412254 
L 344.793968 166.226594 
L 345.038621 162.620719 
L 345.283274 166.202147 
L 345.527927 164.600894 
L 345.77258 169.233527 
L 346.261886 170.859226 
L 346.506539 169.551333 
L 346.751192 169.771352 
L 346.995845 169.795799 
L 347.240498 169.086847 
L 347.485151 165.749885 
L 347.729804 165.835448 
L 347.974457 164.894254 
L 348.21911 163.354117 
L 348.463763 160.59165 
L 348.708416 156.460173 
L 348.953069 160.787223 
L 349.197722 158.146989 
L 349.442375 159.344873 
L 349.687028 158.880388 
L 349.931681 157.92697 
L 350.420987 159.039291 
L 350.66564 156.52129 
L 351.154946 157.768067 
L 351.399599 167.057779 
L 351.644252 167.974526 
L 351.888905 167.082225 
L 352.133558 167.607827 
L 352.378211 170.736993 
L 352.622864 170.309178 
L 352.867517 171.299265 
L 353.11217 173.523907 
L 353.356823 168.952391 
L 353.601476 168.879051 
L 353.846129 168.402342 
L 354.090782 166.47106 
L 354.335435 165.957681 
L 354.824741 162.21735 
L 355.069394 163.097428 
L 355.314047 161.117252 
L 355.5587 162.755175 
L 355.803353 159.894922 
L 356.048006 163.757486 
L 356.292659 162.816292 
L 356.537312 163.305224 
L 356.781965 163.293001 
L 357.026618 164.625341 
L 357.271271 164.417545 
L 357.515924 141.98778 
L 357.760577 135.619438 
L 358.00523 133.920399 
L 358.249883 126.073037 
L 358.494536 123.017211 
L 358.739189 134.128195 
L 359.228495 124.007298 
L 359.473148 120.46254 
L 359.717801 122.748298 
L 359.962454 120.865909 
L 360.207107 121.244832 
L 360.696414 113.165227 
L 360.941067 113.800839 
L 361.18572 113.788616 
L 361.430373 114.668693 
L 361.675026 109.327109 
L 361.919679 110.146071 
L 362.164332 107.970322 
L 362.408985 94.744706 
L 362.653638 107.383604 
L 362.898291 106.931341 
L 363.142944 105.183409 
L 363.387597 104.792263 
L 363.63225 103.997748 
L 363.876903 104.914496 
L 364.121556 97.947212 
L 364.366209 98.228348 
L 364.610862 95.319202 
L 364.855515 96.663765 
L 365.100168 102.213146 
L 365.344821 104.266661 
L 365.589474 111.075042 
L 365.834127 104.755593 
L 366.07878 110.952809 
L 366.323433 113.544149 
L 366.568086 119.936938 
L 366.812739 115.389868 
L 367.057392 114.864266 
L 367.302045 110.855022 
L 367.546698 102.372049 
L 367.791351 99.707368 
L 368.036004 91.603317 
L 368.280657 93.901298 
L 368.52531 88.620831 
L 368.769963 89.476462 
L 369.014616 87.386277 
L 369.259269 88.437481 
L 369.503922 85.503888 
L 369.748575 84.77049 
L 369.993228 87.154034 
L 370.237881 88.131898 
L 370.482534 85.797247 
L 370.727187 92.544512 
L 370.97184 89.305336 
L 371.216493 91.603317 
L 371.461146 89.183103 
L 371.705799 89.305336 
L 371.950452 86.750665 
L 372.195105 85.858364 
L 372.439758 79.575585 
L 372.684411 82.081362 
L 372.929064 79.868944 
L 373.41837 99.609582 
L 373.663023 84.40379 
L 374.152329 88.376365 
L 374.396982 92.874541 
L 374.641635 92.837871 
L 374.886288 95.710347 
L 375.375594 87.58185 
L 375.620247 88.327471 
L 375.8649 90.014287 
L 376.109553 88.596384 
L 376.354206 88.926413 
L 376.598859 87.728529 
L 376.843512 83.132567 
L 377.088165 81.88579 
L 377.332818 87.447393 
L 377.577471 87.569626 
L 377.822124 86.628432 
L 378.066777 90.160967 
L 378.31143 83.670392 
L 378.800736 81.995799 
L 379.045389 83.18146 
L 379.534695 60.996161 
L 379.779348 61.240627 
L 380.024001 63.086347 
L 380.268654 69.295785 
L 380.513307 71.447087 
L 380.75796 81.225731 
L 381.002613 80.052294 
L 381.247266 75.444108 
L 381.491919 75.505224 
L 381.736572 71.728223 
L 381.981225 71.447087 
L 382.225878 70.994825 
L 382.470531 69.161329 
L 382.715184 69.283562 
L 382.959838 68.635727 
L 383.449144 59.309345 
L 383.693797 56.852461 
L 383.93845 56.742451 
L 384.427756 48.308371 
L 384.917062 48.736187 
L 385.161715 48.467274 
L 385.406368 49.567371 
L 385.651021 49.909624 
L 385.895674 47.391623 
L 386.140327 53.527722 
L 386.38498 51.046391 
L 386.629633 43.504612 
L 386.874286 41.084398 
L 387.118939 37.454076 
L 387.363592 36.977367 
L 387.608245 38.517504 
L 387.852898 35.156095 
L 387.852898 35.156095 
" style="fill:none;stroke:#ff7f0e;stroke-linecap:square;stroke-width:1.5;"/>
   </g>
   <g id="patch_3">
    <path d="M 46.965625 288.430125 
L 46.965625 22.318125 
" style="fill:none;stroke:#000000;stroke-linecap:square;stroke-linejoin:miter;stroke-width:0.8;"/>
   </g>
   <g id="patch_4">
    <path d="M 404.085625 288.430125 
L 404.085625 22.318125 
" style="fill:none;stroke:#000000;stroke-linecap:square;stroke-linejoin:miter;stroke-width:0.8;"/>
   </g>
   <g id="patch_5">
    <path d="M 46.965625 288.430125 
L 404.085625 288.430125 
" style="fill:none;stroke:#000000;stroke-linecap:square;stroke-linejoin:miter;stroke-width:0.8;"/>
   </g>
   <g id="patch_6">
    <path d="M 46.965625 22.318125 
L 404.085625 22.318125 
" style="fill:none;stroke:#000000;stroke-linecap:square;stroke-linejoin:miter;stroke-width:0.8;"/>
   </g>
   <g id="text_18">
    <!-- Training: NVDA -->
    <defs>
     <path d="M -0.296875 72.90625 
L 61.375 72.90625 
L 61.375 64.59375 
L 35.5 64.59375 
L 35.5 0 
L 25.59375 0 
L 25.59375 64.59375 
L -0.296875 64.59375 
z
" id="DejaVuSans-84"/>
     <path d="M 54.890625 33.015625 
L 54.890625 0 
L 45.90625 0 
L 45.90625 32.71875 
Q 45.90625 40.484375 42.875 44.328125 
Q 39.84375 48.1875 33.796875 48.1875 
Q 26.515625 48.1875 22.3125 43.546875 
Q 18.109375 38.921875 18.109375 30.90625 
L 18.109375 0 
L 9.078125 0 
L 9.078125 54.6875 
L 18.109375 54.6875 
L 18.109375 46.1875 
Q 21.34375 51.125 25.703125 53.5625 
Q 30.078125 56 35.796875 56 
Q 45.21875 56 50.046875 50.171875 
Q 54.890625 44.34375 54.890625 33.015625 
z
" id="DejaVuSans-110"/>
     <path d="M 45.40625 27.984375 
Q 45.40625 37.75 41.375 43.109375 
Q 37.359375 48.484375 30.078125 48.484375 
Q 22.859375 48.484375 18.828125 43.109375 
Q 14.796875 37.75 14.796875 27.984375 
Q 14.796875 18.265625 18.828125 12.890625 
Q 22.859375 7.515625 30.078125 7.515625 
Q 37.359375 7.515625 41.375 12.890625 
Q 45.40625 18.265625 45.40625 27.984375 
z
M 54.390625 6.78125 
Q 54.390625 -7.171875 48.1875 -13.984375 
Q 42 -20.796875 29.203125 -20.796875 
Q 24.46875 -20.796875 20.265625 -20.09375 
Q 16.0625 -19.390625 12.109375 -17.921875 
L 12.109375 -9.1875 
Q 16.0625 -11.328125 19.921875 -12.34375 
Q 23.78125 -13.375 27.78125 -13.375 
Q 36.625 -13.375 41.015625 -8.765625 
Q 45.40625 -4.15625 45.40625 5.171875 
L 45.40625 9.625 
Q 42.625 4.78125 38.28125 2.390625 
Q 33.9375 0 27.875 0 
Q 17.828125 0 11.671875 7.65625 
Q 5.515625 15.328125 5.515625 27.984375 
Q 5.515625 40.671875 11.671875 48.328125 
Q 17.828125 56 27.875 56 
Q 33.9375 56 38.28125 53.609375 
Q 42.625 51.21875 45.40625 46.390625 
L 45.40625 54.6875 
L 54.390625 54.6875 
z
" id="DejaVuSans-103"/>
     <path d="M 11.71875 12.40625 
L 22.015625 12.40625 
L 22.015625 0 
L 11.71875 0 
z
M 11.71875 51.703125 
L 22.015625 51.703125 
L 22.015625 39.3125 
L 11.71875 39.3125 
z
" id="DejaVuSans-58"/>
     <path d="M 9.8125 72.90625 
L 23.09375 72.90625 
L 55.421875 11.921875 
L 55.421875 72.90625 
L 64.984375 72.90625 
L 64.984375 0 
L 51.703125 0 
L 19.390625 60.984375 
L 19.390625 0 
L 9.8125 0 
z
" id="DejaVuSans-78"/>
     <path d="M 28.609375 0 
L 0.78125 72.90625 
L 11.078125 72.90625 
L 34.1875 11.53125 
L 57.328125 72.90625 
L 67.578125 72.90625 
L 39.796875 0 
z
" id="DejaVuSans-86"/>
     <path d="M 34.1875 63.1875 
L 20.796875 26.90625 
L 47.609375 26.90625 
z
M 28.609375 72.90625 
L 39.796875 72.90625 
L 67.578125 0 
L 57.328125 0 
L 50.6875 18.703125 
L 17.828125 18.703125 
L 11.1875 0 
L 0.78125 0 
z
" id="DejaVuSans-65"/>
    </defs>
    <g transform="translate(180.714063 16.318125)scale(0.12 -0.12)">
     <use xlink:href="#DejaVuSans-84"/>
     <use x="46.333984" xlink:href="#DejaVuSans-114"/>
     <use x="87.447266" xlink:href="#DejaVuSans-97"/>
     <use x="148.726562" xlink:href="#DejaVuSans-105"/>
     <use x="176.509766" xlink:href="#DejaVuSans-110"/>
     <use x="239.888672" xlink:href="#DejaVuSans-105"/>
     <use x="267.671875" xlink:href="#DejaVuSans-110"/>
     <use x="331.050781" xlink:href="#DejaVuSans-103"/>
     <use x="394.527344" xlink:href="#DejaVuSans-58"/>
     <use x="428.21875" xlink:href="#DejaVuSans-32"/>
     <use x="460.005859" xlink:href="#DejaVuSans-78"/>
     <use x="534.810547" xlink:href="#DejaVuSans-86"/>
     <use x="603.21875" xlink:href="#DejaVuSans-68"/>
     <use x="678.470703" xlink:href="#DejaVuSans-65"/>
    </g>
   </g>
   <g id="legend_1">
    <g id="patch_7">
     <path d="M 53.965625 59.674375 
L 137.69375 59.674375 
Q 139.69375 59.674375 139.69375 57.674375 
L 139.69375 29.318125 
Q 139.69375 27.318125 137.69375 27.318125 
L 53.965625 27.318125 
Q 51.965625 27.318125 51.965625 29.318125 
L 51.965625 57.674375 
Q 51.965625 59.674375 53.965625 59.674375 
z
" style="fill:#ffffff;opacity:0.8;stroke:#cccccc;stroke-linejoin:miter;"/>
    </g>
    <g id="line2d_33">
     <path d="M 55.965625 35.416562 
L 75.965625 35.416562 
" style="fill:none;stroke:#1f77b4;stroke-linecap:square;stroke-width:1.5;"/>
    </g>
    <g id="line2d_34"/>
    <g id="text_19">
     <!-- Predicted -->
     <defs>
      <path d="M 45.40625 46.390625 
L 45.40625 75.984375 
L 54.390625 75.984375 
L 54.390625 0 
L 45.40625 0 
L 45.40625 8.203125 
Q 42.578125 3.328125 38.25 0.953125 
Q 33.9375 -1.421875 27.875 -1.421875 
Q 17.96875 -1.421875 11.734375 6.484375 
Q 5.515625 14.40625 5.515625 27.296875 
Q 5.515625 40.1875 11.734375 48.09375 
Q 17.96875 56 27.875 56 
Q 33.9375 56 38.25 53.625 
Q 42.578125 51.265625 45.40625 46.390625 
z
M 14.796875 27.296875 
Q 14.796875 17.390625 18.875 11.75 
Q 22.953125 6.109375 30.078125 6.109375 
Q 37.203125 6.109375 41.296875 11.75 
Q 45.40625 17.390625 45.40625 27.296875 
Q 45.40625 37.203125 41.296875 42.84375 
Q 37.203125 48.484375 30.078125 48.484375 
Q 22.953125 48.484375 18.875 42.84375 
Q 14.796875 37.203125 14.796875 27.296875 
z
" id="DejaVuSans-100"/>
      <path d="M 18.3125 70.21875 
L 18.3125 54.6875 
L 36.8125 54.6875 
L 36.8125 47.703125 
L 18.3125 47.703125 
L 18.3125 18.015625 
Q 18.3125 11.328125 20.140625 9.421875 
Q 21.96875 7.515625 27.59375 7.515625 
L 36.8125 7.515625 
L 36.8125 0 
L 27.59375 0 
Q 17.1875 0 13.234375 3.875 
Q 9.28125 7.765625 9.28125 18.015625 
L 9.28125 47.703125 
L 2.6875 47.703125 
L 2.6875 54.6875 
L 9.28125 54.6875 
L 9.28125 70.21875 
z
" id="DejaVuSans-116"/>
     </defs>
     <g transform="translate(83.965625 38.916562)scale(0.1 -0.1)">
      <use xlink:href="#DejaVuSans-80"/>
      <use x="58.552734" xlink:href="#DejaVuSans-114"/>
      <use x="97.416016" xlink:href="#DejaVuSans-101"/>
      <use x="158.939453" xlink:href="#DejaVuSans-100"/>
      <use x="222.416016" xlink:href="#DejaVuSans-105"/>
      <use x="250.199219" xlink:href="#DejaVuSans-99"/>
      <use x="305.179688" xlink:href="#DejaVuSans-116"/>
      <use x="344.388672" xlink:href="#DejaVuSans-101"/>
      <use x="405.912109" xlink:href="#DejaVuSans-100"/>
     </g>
    </g>
    <g id="line2d_35">
     <path d="M 55.965625 50.094687 
L 75.965625 50.094687 
" style="fill:none;stroke:#ff7f0e;stroke-linecap:square;stroke-width:1.5;"/>
    </g>
    <g id="line2d_36"/>
    <g id="text_20">
     <!-- True value -->
     <defs>
      <path d="M 8.5 21.578125 
L 8.5 54.6875 
L 17.484375 54.6875 
L 17.484375 21.921875 
Q 17.484375 14.15625 20.5 10.265625 
Q 23.53125 6.390625 29.59375 6.390625 
Q 36.859375 6.390625 41.078125 11.03125 
Q 45.3125 15.671875 45.3125 23.6875 
L 45.3125 54.6875 
L 54.296875 54.6875 
L 54.296875 0 
L 45.3125 0 
L 45.3125 8.40625 
Q 42.046875 3.421875 37.71875 1 
Q 33.40625 -1.421875 27.6875 -1.421875 
Q 18.265625 -1.421875 13.375 4.4375 
Q 8.5 10.296875 8.5 21.578125 
z
M 31.109375 56 
z
" id="DejaVuSans-117"/>
      <path d="M 2.984375 54.6875 
L 12.5 54.6875 
L 29.59375 8.796875 
L 46.6875 54.6875 
L 56.203125 54.6875 
L 35.6875 0 
L 23.484375 0 
z
" id="DejaVuSans-118"/>
      <path d="M 9.421875 75.984375 
L 18.40625 75.984375 
L 18.40625 0 
L 9.421875 0 
z
" id="DejaVuSans-108"/>
     </defs>
     <g transform="translate(83.965625 53.594687)scale(0.1 -0.1)">
      <use xlink:href="#DejaVuSans-84"/>
      <use x="46.333984" xlink:href="#DejaVuSans-114"/>
      <use x="87.447266" xlink:href="#DejaVuSans-117"/>
      <use x="150.826172" xlink:href="#DejaVuSans-101"/>
      <use x="212.349609" xlink:href="#DejaVuSans-32"/>
      <use x="244.136719" xlink:href="#DejaVuSans-118"/>
      <use x="303.316406" xlink:href="#DejaVuSans-97"/>
      <use x="364.595703" xlink:href="#DejaVuSans-108"/>
      <use x="392.378906" xlink:href="#DejaVuSans-117"/>
      <use x="455.757812" xlink:href="#DejaVuSans-101"/>
     </g>
    </g>
   </g>
  </g>
 </g>
 <defs>
  <clipPath id="pc55aa36b51">
   <rect height="266.112" width="357.12" x="46.965625" y="22.318125"/>
  </clipPath>
 </defs>
</svg>
