<?xml version="1.0" encoding="utf-8" standalone="no"?>
<!DOCTYPE svg PUBLIC "-//W3C//DTD SVG 1.1//EN"
  "http://www.w3.org/Graphics/SVG/1.1/DTD/svg11.dtd">
<!-- Created with matplotlib (https://matplotlib.org/) -->
<svg height="325.986375pt" version="1.1" viewBox="0 0 417.648125 325.986375" width="417.648125pt" xmlns="http://www.w3.org/2000/svg" xmlns:xlink="http://www.w3.org/1999/xlink">
 <defs>
  <style type="text/css">
*{stroke-linecap:butt;stroke-linejoin:round;}
  </style>
 </defs>
 <g id="figure_1">
  <g id="patch_1">
   <path d="M 0 325.986375 
L 417.648125 325.986375 
L 417.648125 0 
L 0 0 
z
" style="fill:#ffffff;"/>
  </g>
  <g id="axes_1">
   <g id="patch_2">
    <path d="M 53.328125 288.430125 
L 410.448125 288.430125 
L 410.448125 22.318125 
L 53.328125 22.318125 
z
" style="fill:#ffffff;"/>
   </g>
   <g id="matplotlib.axis_1">
    <g id="xtick_1">
     <g id="line2d_1">
      <path clip-path="url(#p603c57037d)" d="M 69.560852 288.430125 
L 69.560852 22.318125 
" style="fill:none;stroke:#b0b0b0;stroke-dasharray:2.96,1.28;stroke-dashoffset:0;stroke-width:0.8;"/>
     </g>
     <g id="line2d_2">
      <defs>
       <path d="M 0 0 
L 0 3.5 
" id="m7881dc34cc" style="stroke:#000000;stroke-width:0.8;"/>
      </defs>
      <g>
       <use style="stroke:#000000;stroke-width:0.8;" x="69.560852" xlink:href="#m7881dc34cc" y="288.430125"/>
      </g>
     </g>
     <g id="text_1">
      <!-- 0 -->
      <defs>
       <path d="M 31.78125 66.40625 
Q 24.171875 66.40625 20.328125 58.90625 
Q 16.5 51.421875 16.5 36.375 
Q 16.5 21.390625 20.328125 13.890625 
Q 24.171875 6.390625 31.78125 6.390625 
Q 39.453125 6.390625 43.28125 13.890625 
Q 47.125 21.390625 47.125 36.375 
Q 47.125 51.421875 43.28125 58.90625 
Q 39.453125 66.40625 31.78125 66.40625 
z
M 31.78125 74.21875 
Q 44.046875 74.21875 50.515625 64.515625 
Q 56.984375 54.828125 56.984375 36.375 
Q 56.984375 17.96875 50.515625 8.265625 
Q 44.046875 -1.421875 31.78125 -1.421875 
Q 19.53125 -1.421875 13.0625 8.265625 
Q 6.59375 17.96875 6.59375 36.375 
Q 6.59375 54.828125 13.0625 64.515625 
Q 19.53125 74.21875 31.78125 74.21875 
z
" id="DejaVuSans-48"/>
      </defs>
      <g transform="translate(66.379602 303.028562)scale(0.1 -0.1)">
       <use xlink:href="#DejaVuSans-48"/>
      </g>
     </g>
    </g>
    <g id="xtick_2">
     <g id="line2d_3">
      <path clip-path="url(#p603c57037d)" d="M 118.491454 288.430125 
L 118.491454 22.318125 
" style="fill:none;stroke:#b0b0b0;stroke-dasharray:2.96,1.28;stroke-dashoffset:0;stroke-width:0.8;"/>
     </g>
     <g id="line2d_4">
      <g>
       <use style="stroke:#000000;stroke-width:0.8;" x="118.491454" xlink:href="#m7881dc34cc" y="288.430125"/>
      </g>
     </g>
     <g id="text_2">
      <!-- 200 -->
      <defs>
       <path d="M 19.1875 8.296875 
L 53.609375 8.296875 
L 53.609375 0 
L 7.328125 0 
L 7.328125 8.296875 
Q 12.9375 14.109375 22.625 23.890625 
Q 32.328125 33.6875 34.8125 36.53125 
Q 39.546875 41.84375 41.421875 45.53125 
Q 43.3125 49.21875 43.3125 52.78125 
Q 43.3125 58.59375 39.234375 62.25 
Q 35.15625 65.921875 28.609375 65.921875 
Q 23.96875 65.921875 18.8125 64.3125 
Q 13.671875 62.703125 7.8125 59.421875 
L 7.8125 69.390625 
Q 13.765625 71.78125 18.9375 73 
Q 24.125 74.21875 28.421875 74.21875 
Q 39.75 74.21875 46.484375 68.546875 
Q 53.21875 62.890625 53.21875 53.421875 
Q 53.21875 48.921875 51.53125 44.890625 
Q 49.859375 40.875 45.40625 35.40625 
Q 44.1875 33.984375 37.640625 27.21875 
Q 31.109375 20.453125 19.1875 8.296875 
z
" id="DejaVuSans-50"/>
      </defs>
      <g transform="translate(108.947704 303.028562)scale(0.1 -0.1)">
       <use xlink:href="#DejaVuSans-50"/>
       <use x="63.623047" xlink:href="#DejaVuSans-48"/>
       <use x="127.246094" xlink:href="#DejaVuSans-48"/>
      </g>
     </g>
    </g>
    <g id="xtick_3">
     <g id="line2d_5">
      <path clip-path="url(#p603c57037d)" d="M 167.422057 288.430125 
L 167.422057 22.318125 
" style="fill:none;stroke:#b0b0b0;stroke-dasharray:2.96,1.28;stroke-dashoffset:0;stroke-width:0.8;"/>
     </g>
     <g id="line2d_6">
      <g>
       <use style="stroke:#000000;stroke-width:0.8;" x="167.422057" xlink:href="#m7881dc34cc" y="288.430125"/>
      </g>
     </g>
     <g id="text_3">
      <!-- 400 -->
      <defs>
       <path d="M 37.796875 64.3125 
L 12.890625 25.390625 
L 37.796875 25.390625 
z
M 35.203125 72.90625 
L 47.609375 72.90625 
L 47.609375 25.390625 
L 58.015625 25.390625 
L 58.015625 17.1875 
L 47.609375 17.1875 
L 47.609375 0 
L 37.796875 0 
L 37.796875 17.1875 
L 4.890625 17.1875 
L 4.890625 26.703125 
z
" id="DejaVuSans-52"/>
      </defs>
      <g transform="translate(157.878307 303.028562)scale(0.1 -0.1)">
       <use xlink:href="#DejaVuSans-52"/>
       <use x="63.623047" xlink:href="#DejaVuSans-48"/>
       <use x="127.246094" xlink:href="#DejaVuSans-48"/>
      </g>
     </g>
    </g>
    <g id="xtick_4">
     <g id="line2d_7">
      <path clip-path="url(#p603c57037d)" d="M 216.352659 288.430125 
L 216.352659 22.318125 
" style="fill:none;stroke:#b0b0b0;stroke-dasharray:2.96,1.28;stroke-dashoffset:0;stroke-width:0.8;"/>
     </g>
     <g id="line2d_8">
      <g>
       <use style="stroke:#000000;stroke-width:0.8;" x="216.352659" xlink:href="#m7881dc34cc" y="288.430125"/>
      </g>
     </g>
     <g id="text_4">
      <!-- 600 -->
      <defs>
       <path d="M 33.015625 40.375 
Q 26.375 40.375 22.484375 35.828125 
Q 18.609375 31.296875 18.609375 23.390625 
Q 18.609375 15.53125 22.484375 10.953125 
Q 26.375 6.390625 33.015625 6.390625 
Q 39.65625 6.390625 43.53125 10.953125 
Q 47.40625 15.53125 47.40625 23.390625 
Q 47.40625 31.296875 43.53125 35.828125 
Q 39.65625 40.375 33.015625 40.375 
z
M 52.59375 71.296875 
L 52.59375 62.3125 
Q 48.875 64.0625 45.09375 64.984375 
Q 41.3125 65.921875 37.59375 65.921875 
Q 27.828125 65.921875 22.671875 59.328125 
Q 17.53125 52.734375 16.796875 39.40625 
Q 19.671875 43.65625 24.015625 45.921875 
Q 28.375 48.1875 33.59375 48.1875 
Q 44.578125 48.1875 50.953125 41.515625 
Q 57.328125 34.859375 57.328125 23.390625 
Q 57.328125 12.15625 50.6875 5.359375 
Q 44.046875 -1.421875 33.015625 -1.421875 
Q 20.359375 -1.421875 13.671875 8.265625 
Q 6.984375 17.96875 6.984375 36.375 
Q 6.984375 53.65625 15.1875 63.9375 
Q 23.390625 74.21875 37.203125 74.21875 
Q 40.921875 74.21875 44.703125 73.484375 
Q 48.484375 72.75 52.59375 71.296875 
z
" id="DejaVuSans-54"/>
      </defs>
      <g transform="translate(206.808909 303.028562)scale(0.1 -0.1)">
       <use xlink:href="#DejaVuSans-54"/>
       <use x="63.623047" xlink:href="#DejaVuSans-48"/>
       <use x="127.246094" xlink:href="#DejaVuSans-48"/>
      </g>
     </g>
    </g>
    <g id="xtick_5">
     <g id="line2d_9">
      <path clip-path="url(#p603c57037d)" d="M 265.283261 288.430125 
L 265.283261 22.318125 
" style="fill:none;stroke:#b0b0b0;stroke-dasharray:2.96,1.28;stroke-dashoffset:0;stroke-width:0.8;"/>
     </g>
     <g id="line2d_10">
      <g>
       <use style="stroke:#000000;stroke-width:0.8;" x="265.283261" xlink:href="#m7881dc34cc" y="288.430125"/>
      </g>
     </g>
     <g id="text_5">
      <!-- 800 -->
      <defs>
       <path d="M 31.78125 34.625 
Q 24.75 34.625 20.71875 30.859375 
Q 16.703125 27.09375 16.703125 20.515625 
Q 16.703125 13.921875 20.71875 10.15625 
Q 24.75 6.390625 31.78125 6.390625 
Q 38.8125 6.390625 42.859375 10.171875 
Q 46.921875 13.96875 46.921875 20.515625 
Q 46.921875 27.09375 42.890625 30.859375 
Q 38.875 34.625 31.78125 34.625 
z
M 21.921875 38.8125 
Q 15.578125 40.375 12.03125 44.71875 
Q 8.5 49.078125 8.5 55.328125 
Q 8.5 64.0625 14.71875 69.140625 
Q 20.953125 74.21875 31.78125 74.21875 
Q 42.671875 74.21875 48.875 69.140625 
Q 55.078125 64.0625 55.078125 55.328125 
Q 55.078125 49.078125 51.53125 44.71875 
Q 48 40.375 41.703125 38.8125 
Q 48.828125 37.15625 52.796875 32.3125 
Q 56.78125 27.484375 56.78125 20.515625 
Q 56.78125 9.90625 50.3125 4.234375 
Q 43.84375 -1.421875 31.78125 -1.421875 
Q 19.734375 -1.421875 13.25 4.234375 
Q 6.78125 9.90625 6.78125 20.515625 
Q 6.78125 27.484375 10.78125 32.3125 
Q 14.796875 37.15625 21.921875 38.8125 
z
M 18.3125 54.390625 
Q 18.3125 48.734375 21.84375 45.5625 
Q 25.390625 42.390625 31.78125 42.390625 
Q 38.140625 42.390625 41.71875 45.5625 
Q 45.3125 48.734375 45.3125 54.390625 
Q 45.3125 60.0625 41.71875 63.234375 
Q 38.140625 66.40625 31.78125 66.40625 
Q 25.390625 66.40625 21.84375 63.234375 
Q 18.3125 60.0625 18.3125 54.390625 
z
" id="DejaVuSans-56"/>
      </defs>
      <g transform="translate(255.739511 303.028562)scale(0.1 -0.1)">
       <use xlink:href="#DejaVuSans-56"/>
       <use x="63.623047" xlink:href="#DejaVuSans-48"/>
       <use x="127.246094" xlink:href="#DejaVuSans-48"/>
      </g>
     </g>
    </g>
    <g id="xtick_6">
     <g id="line2d_11">
      <path clip-path="url(#p603c57037d)" d="M 314.213863 288.430125 
L 314.213863 22.318125 
" style="fill:none;stroke:#b0b0b0;stroke-dasharray:2.96,1.28;stroke-dashoffset:0;stroke-width:0.8;"/>
     </g>
     <g id="line2d_12">
      <g>
       <use style="stroke:#000000;stroke-width:0.8;" x="314.213863" xlink:href="#m7881dc34cc" y="288.430125"/>
      </g>
     </g>
     <g id="text_6">
      <!-- 1000 -->
      <defs>
       <path d="M 12.40625 8.296875 
L 28.515625 8.296875 
L 28.515625 63.921875 
L 10.984375 60.40625 
L 10.984375 69.390625 
L 28.421875 72.90625 
L 38.28125 72.90625 
L 38.28125 8.296875 
L 54.390625 8.296875 
L 54.390625 0 
L 12.40625 0 
z
" id="DejaVuSans-49"/>
      </defs>
      <g transform="translate(301.488863 303.028562)scale(0.1 -0.1)">
       <use xlink:href="#DejaVuSans-49"/>
       <use x="63.623047" xlink:href="#DejaVuSans-48"/>
       <use x="127.246094" xlink:href="#DejaVuSans-48"/>
       <use x="190.869141" xlink:href="#DejaVuSans-48"/>
      </g>
     </g>
    </g>
    <g id="xtick_7">
     <g id="line2d_13">
      <path clip-path="url(#p603c57037d)" d="M 363.144465 288.430125 
L 363.144465 22.318125 
" style="fill:none;stroke:#b0b0b0;stroke-dasharray:2.96,1.28;stroke-dashoffset:0;stroke-width:0.8;"/>
     </g>
     <g id="line2d_14">
      <g>
       <use style="stroke:#000000;stroke-width:0.8;" x="363.144465" xlink:href="#m7881dc34cc" y="288.430125"/>
      </g>
     </g>
     <g id="text_7">
      <!-- 1200 -->
      <g transform="translate(350.419465 303.028562)scale(0.1 -0.1)">
       <use xlink:href="#DejaVuSans-49"/>
       <use x="63.623047" xlink:href="#DejaVuSans-50"/>
       <use x="127.246094" xlink:href="#DejaVuSans-48"/>
       <use x="190.869141" xlink:href="#DejaVuSans-48"/>
      </g>
     </g>
    </g>
    <g id="text_8">
     <!-- Day -->
     <defs>
      <path d="M 19.671875 64.796875 
L 19.671875 8.109375 
L 31.59375 8.109375 
Q 46.6875 8.109375 53.6875 14.9375 
Q 60.6875 21.78125 60.6875 36.53125 
Q 60.6875 51.171875 53.6875 57.984375 
Q 46.6875 64.796875 31.59375 64.796875 
z
M 9.8125 72.90625 
L 30.078125 72.90625 
Q 51.265625 72.90625 61.171875 64.09375 
Q 71.09375 55.28125 71.09375 36.53125 
Q 71.09375 17.671875 61.125 8.828125 
Q 51.171875 0 30.078125 0 
L 9.8125 0 
z
" id="DejaVuSans-68"/>
      <path d="M 34.28125 27.484375 
Q 23.390625 27.484375 19.1875 25 
Q 14.984375 22.515625 14.984375 16.5 
Q 14.984375 11.71875 18.140625 8.90625 
Q 21.296875 6.109375 26.703125 6.109375 
Q 34.1875 6.109375 38.703125 11.40625 
Q 43.21875 16.703125 43.21875 25.484375 
L 43.21875 27.484375 
z
M 52.203125 31.203125 
L 52.203125 0 
L 43.21875 0 
L 43.21875 8.296875 
Q 40.140625 3.328125 35.546875 0.953125 
Q 30.953125 -1.421875 24.3125 -1.421875 
Q 15.921875 -1.421875 10.953125 3.296875 
Q 6 8.015625 6 15.921875 
Q 6 25.140625 12.171875 29.828125 
Q 18.359375 34.515625 30.609375 34.515625 
L 43.21875 34.515625 
L 43.21875 35.40625 
Q 43.21875 41.609375 39.140625 45 
Q 35.0625 48.390625 27.6875 48.390625 
Q 23 48.390625 18.546875 47.265625 
Q 14.109375 46.140625 10.015625 43.890625 
L 10.015625 52.203125 
Q 14.9375 54.109375 19.578125 55.046875 
Q 24.21875 56 28.609375 56 
Q 40.484375 56 46.34375 49.84375 
Q 52.203125 43.703125 52.203125 31.203125 
z
" id="DejaVuSans-97"/>
      <path d="M 32.171875 -5.078125 
Q 28.375 -14.84375 24.75 -17.8125 
Q 21.140625 -20.796875 15.09375 -20.796875 
L 7.90625 -20.796875 
L 7.90625 -13.28125 
L 13.1875 -13.28125 
Q 16.890625 -13.28125 18.9375 -11.515625 
Q 21 -9.765625 23.484375 -3.21875 
L 25.09375 0.875 
L 2.984375 54.6875 
L 12.5 54.6875 
L 29.59375 11.921875 
L 46.6875 54.6875 
L 56.203125 54.6875 
z
" id="DejaVuSans-121"/>
     </defs>
     <g transform="translate(222.014688 316.706687)scale(0.1 -0.1)">
      <use xlink:href="#DejaVuSans-68"/>
      <use x="77.001953" xlink:href="#DejaVuSans-97"/>
      <use x="138.28125" xlink:href="#DejaVuSans-121"/>
     </g>
    </g>
   </g>
   <g id="matplotlib.axis_2">
    <g id="ytick_1">
     <g id="line2d_15">
      <path clip-path="url(#p603c57037d)" d="M 53.328125 281.927337 
L 410.448125 281.927337 
" style="fill:none;stroke:#b0b0b0;stroke-dasharray:2.96,1.28;stroke-dashoffset:0;stroke-width:0.8;"/>
     </g>
     <g id="line2d_16">
      <defs>
       <path d="M 0 0 
L -3.5 0 
" id="md84c9bc510" style="stroke:#000000;stroke-width:0.8;"/>
      </defs>
      <g>
       <use style="stroke:#000000;stroke-width:0.8;" x="53.328125" xlink:href="#md84c9bc510" y="281.927337"/>
      </g>
     </g>
     <g id="text_9">
      <!-- 200 -->
      <g transform="translate(27.240625 285.726556)scale(0.1 -0.1)">
       <use xlink:href="#DejaVuSans-50"/>
       <use x="63.623047" xlink:href="#DejaVuSans-48"/>
       <use x="127.246094" xlink:href="#DejaVuSans-48"/>
      </g>
     </g>
    </g>
    <g id="ytick_2">
     <g id="line2d_17">
      <path clip-path="url(#p603c57037d)" d="M 53.328125 227.624307 
L 410.448125 227.624307 
" style="fill:none;stroke:#b0b0b0;stroke-dasharray:2.96,1.28;stroke-dashoffset:0;stroke-width:0.8;"/>
     </g>
     <g id="line2d_18">
      <g>
       <use style="stroke:#000000;stroke-width:0.8;" x="53.328125" xlink:href="#md84c9bc510" y="227.624307"/>
      </g>
     </g>
     <g id="text_10">
      <!-- 400 -->
      <g transform="translate(27.240625 231.423526)scale(0.1 -0.1)">
       <use xlink:href="#DejaVuSans-52"/>
       <use x="63.623047" xlink:href="#DejaVuSans-48"/>
       <use x="127.246094" xlink:href="#DejaVuSans-48"/>
      </g>
     </g>
    </g>
    <g id="ytick_3">
     <g id="line2d_19">
      <path clip-path="url(#p603c57037d)" d="M 53.328125 173.321277 
L 410.448125 173.321277 
" style="fill:none;stroke:#b0b0b0;stroke-dasharray:2.96,1.28;stroke-dashoffset:0;stroke-width:0.8;"/>
     </g>
     <g id="line2d_20">
      <g>
       <use style="stroke:#000000;stroke-width:0.8;" x="53.328125" xlink:href="#md84c9bc510" y="173.321277"/>
      </g>
     </g>
     <g id="text_11">
      <!-- 600 -->
      <g transform="translate(27.240625 177.120495)scale(0.1 -0.1)">
       <use xlink:href="#DejaVuSans-54"/>
       <use x="63.623047" xlink:href="#DejaVuSans-48"/>
       <use x="127.246094" xlink:href="#DejaVuSans-48"/>
      </g>
     </g>
    </g>
    <g id="ytick_4">
     <g id="line2d_21">
      <path clip-path="url(#p603c57037d)" d="M 53.328125 119.018246 
L 410.448125 119.018246 
" style="fill:none;stroke:#b0b0b0;stroke-dasharray:2.96,1.28;stroke-dashoffset:0;stroke-width:0.8;"/>
     </g>
     <g id="line2d_22">
      <g>
       <use style="stroke:#000000;stroke-width:0.8;" x="53.328125" xlink:href="#md84c9bc510" y="119.018246"/>
      </g>
     </g>
     <g id="text_12">
      <!-- 800 -->
      <g transform="translate(27.240625 122.817465)scale(0.1 -0.1)">
       <use xlink:href="#DejaVuSans-56"/>
       <use x="63.623047" xlink:href="#DejaVuSans-48"/>
       <use x="127.246094" xlink:href="#DejaVuSans-48"/>
      </g>
     </g>
    </g>
    <g id="ytick_5">
     <g id="line2d_23">
      <path clip-path="url(#p603c57037d)" d="M 53.328125 64.715216 
L 410.448125 64.715216 
" style="fill:none;stroke:#b0b0b0;stroke-dasharray:2.96,1.28;stroke-dashoffset:0;stroke-width:0.8;"/>
     </g>
     <g id="line2d_24">
      <g>
       <use style="stroke:#000000;stroke-width:0.8;" x="53.328125" xlink:href="#md84c9bc510" y="64.715216"/>
      </g>
     </g>
     <g id="text_13">
      <!-- 1000 -->
      <g transform="translate(20.878125 68.514435)scale(0.1 -0.1)">
       <use xlink:href="#DejaVuSans-49"/>
       <use x="63.623047" xlink:href="#DejaVuSans-48"/>
       <use x="127.246094" xlink:href="#DejaVuSans-48"/>
       <use x="190.869141" xlink:href="#DejaVuSans-48"/>
      </g>
     </g>
    </g>
    <g id="text_14">
     <!-- Price $ -->
     <defs>
      <path d="M 19.671875 64.796875 
L 19.671875 37.40625 
L 32.078125 37.40625 
Q 38.96875 37.40625 42.71875 40.96875 
Q 46.484375 44.53125 46.484375 51.125 
Q 46.484375 57.671875 42.71875 61.234375 
Q 38.96875 64.796875 32.078125 64.796875 
z
M 9.8125 72.90625 
L 32.078125 72.90625 
Q 44.34375 72.90625 50.609375 67.359375 
Q 56.890625 61.8125 56.890625 51.125 
Q 56.890625 40.328125 50.609375 34.8125 
Q 44.34375 29.296875 32.078125 29.296875 
L 19.671875 29.296875 
L 19.671875 0 
L 9.8125 0 
z
" id="DejaVuSans-80"/>
      <path d="M 41.109375 46.296875 
Q 39.59375 47.171875 37.8125 47.578125 
Q 36.03125 48 33.890625 48 
Q 26.265625 48 22.1875 43.046875 
Q 18.109375 38.09375 18.109375 28.8125 
L 18.109375 0 
L 9.078125 0 
L 9.078125 54.6875 
L 18.109375 54.6875 
L 18.109375 46.1875 
Q 20.953125 51.171875 25.484375 53.578125 
Q 30.03125 56 36.53125 56 
Q 37.453125 56 38.578125 55.875 
Q 39.703125 55.765625 41.0625 55.515625 
z
" id="DejaVuSans-114"/>
      <path d="M 9.421875 54.6875 
L 18.40625 54.6875 
L 18.40625 0 
L 9.421875 0 
z
M 9.421875 75.984375 
L 18.40625 75.984375 
L 18.40625 64.59375 
L 9.421875 64.59375 
z
" id="DejaVuSans-105"/>
      <path d="M 48.78125 52.59375 
L 48.78125 44.1875 
Q 44.96875 46.296875 41.140625 47.34375 
Q 37.3125 48.390625 33.40625 48.390625 
Q 24.65625 48.390625 19.8125 42.84375 
Q 14.984375 37.3125 14.984375 27.296875 
Q 14.984375 17.28125 19.8125 11.734375 
Q 24.65625 6.203125 33.40625 6.203125 
Q 37.3125 6.203125 41.140625 7.25 
Q 44.96875 8.296875 48.78125 10.40625 
L 48.78125 2.09375 
Q 45.015625 0.34375 40.984375 -0.53125 
Q 36.96875 -1.421875 32.421875 -1.421875 
Q 20.0625 -1.421875 12.78125 6.34375 
Q 5.515625 14.109375 5.515625 27.296875 
Q 5.515625 40.671875 12.859375 48.328125 
Q 20.21875 56 33.015625 56 
Q 37.15625 56 41.109375 55.140625 
Q 45.0625 54.296875 48.78125 52.59375 
z
" id="DejaVuSans-99"/>
      <path d="M 56.203125 29.59375 
L 56.203125 25.203125 
L 14.890625 25.203125 
Q 15.484375 15.921875 20.484375 11.0625 
Q 25.484375 6.203125 34.421875 6.203125 
Q 39.59375 6.203125 44.453125 7.46875 
Q 49.3125 8.734375 54.109375 11.28125 
L 54.109375 2.78125 
Q 49.265625 0.734375 44.1875 -0.34375 
Q 39.109375 -1.421875 33.890625 -1.421875 
Q 20.796875 -1.421875 13.15625 6.1875 
Q 5.515625 13.8125 5.515625 26.8125 
Q 5.515625 40.234375 12.765625 48.109375 
Q 20.015625 56 32.328125 56 
Q 43.359375 56 49.78125 48.890625 
Q 56.203125 41.796875 56.203125 29.59375 
z
M 47.21875 32.234375 
Q 47.125 39.59375 43.09375 43.984375 
Q 39.0625 48.390625 32.421875 48.390625 
Q 24.90625 48.390625 20.390625 44.140625 
Q 15.875 39.890625 15.1875 32.171875 
z
" id="DejaVuSans-101"/>
      <path id="DejaVuSans-32"/>
      <path d="M 33.796875 -14.703125 
L 28.90625 -14.703125 
L 28.859375 0 
Q 23.734375 0.09375 18.609375 1.1875 
Q 13.484375 2.296875 8.296875 4.5 
L 8.296875 13.28125 
Q 13.28125 10.15625 18.375 8.5625 
Q 23.484375 6.984375 28.90625 6.9375 
L 28.90625 29.203125 
Q 18.109375 30.953125 13.203125 35.15625 
Q 8.296875 39.359375 8.296875 46.6875 
Q 8.296875 54.640625 13.625 59.21875 
Q 18.953125 63.8125 28.90625 64.5 
L 28.90625 75.984375 
L 33.796875 75.984375 
L 33.796875 64.65625 
Q 38.328125 64.453125 42.578125 63.6875 
Q 46.828125 62.9375 50.875 61.625 
L 50.875 53.078125 
Q 46.828125 55.125 42.546875 56.25 
Q 38.28125 57.375 33.796875 57.5625 
L 33.796875 36.71875 
Q 44.875 35.015625 50.09375 30.609375 
Q 55.328125 26.21875 55.328125 18.609375 
Q 55.328125 10.359375 49.78125 5.59375 
Q 44.234375 0.828125 33.796875 0.09375 
z
M 28.90625 37.59375 
L 28.90625 57.625 
Q 23.25 56.984375 20.265625 54.390625 
Q 17.28125 51.8125 17.28125 47.515625 
Q 17.28125 43.3125 20.03125 40.96875 
Q 22.796875 38.625 28.90625 37.59375 
z
M 33.796875 28.21875 
L 33.796875 7.078125 
Q 39.984375 7.90625 43.140625 10.59375 
Q 46.296875 13.28125 46.296875 17.671875 
Q 46.296875 21.96875 43.28125 24.5 
Q 40.28125 27.046875 33.796875 28.21875 
z
" id="DejaVuSans-36"/>
     </defs>
     <g transform="translate(14.798438 172.342094)rotate(-90)scale(0.1 -0.1)">
      <use xlink:href="#DejaVuSans-80"/>
      <use x="58.552734" xlink:href="#DejaVuSans-114"/>
      <use x="99.666016" xlink:href="#DejaVuSans-105"/>
      <use x="127.449219" xlink:href="#DejaVuSans-99"/>
      <use x="182.429688" xlink:href="#DejaVuSans-101"/>
      <use x="243.953125" xlink:href="#DejaVuSans-32"/>
      <use x="275.740234" xlink:href="#DejaVuSans-36"/>
     </g>
    </g>
   </g>
   <g id="line2d_25">
    <path clip-path="url(#p603c57037d)" d="M 69.560852 211.533206 
L 70.050158 188.278705 
L 70.539464 175.899809 
L 71.02877 168.586416 
L 72.741341 147.637226 
L 76.166484 93.666911 
L 76.900443 84.897687 
L 77.879055 75.366104 
L 79.10232 66.346113 
L 80.080932 60.67018 
L 81.304197 55.703379 
L 83.016768 51.323208 
L 83.750727 50.013028 
L 84.973992 48.403658 
L 85.218645 47.82354 
L 85.463298 47.830898 
L 85.952604 47.387763 
L 86.44191 47.058909 
L 86.686563 47.061627 
L 88.154481 46.332195 
L 88.643787 46.046494 
L 89.133093 45.961381 
L 91.090317 46.206149 
L 92.068929 46.26309 
L 92.558235 46.083914 
L 94.026153 45.870169 
L 94.270806 45.996314 
L 94.515459 45.920216 
L 94.760112 46.069529 
L 95.004765 45.907489 
L 95.249418 45.884586 
L 95.738724 45.602432 
L 96.22803 45.645055 
L 96.472683 45.561068 
L 96.717336 45.752673 
L 99.163867 45.915973 
L 99.653173 45.704648 
L 100.142479 46.074799 
L 100.387132 45.702858 
L 100.631785 45.90961 
L 100.876438 45.752176 
L 101.121091 45.762219 
L 101.365744 45.542143 
L 101.610397 45.638062 
L 102.099703 45.481324 
L 102.344356 45.533161 
L 102.833662 45.270363 
L 103.322968 45.484207 
L 103.567621 45.416362 
L 103.812274 45.557157 
L 104.30158 45.55835 
L 104.546233 45.624174 
L 105.280192 45.456068 
L 106.014151 45.450102 
L 106.503457 45.592886 
L 107.726722 45.804013 
L 109.683946 45.196485 
L 110.173252 45.261745 
L 110.417905 45.392399 
L 110.662558 45.359818 
L 110.907211 45.474761 
L 112.130476 45.335391 
L 112.619782 45.397105 
L 112.864435 45.565244 
L 113.109088 45.498791 
L 113.598394 45.734411 
L 114.332353 45.465647 
L 114.577006 45.514766 
L 114.821659 45.443772 
L 115.066312 45.816475 
L 115.555618 45.472839 
L 115.800271 45.507474 
L 116.289577 45.212692 
L 116.53423 45.282261 
L 117.023536 45.269037 
L 118.002148 45.383085 
L 118.491454 45.571277 
L 118.736107 45.501542 
L 118.98076 45.630173 
L 119.225413 45.60273 
L 119.470066 45.71648 
L 120.448679 45.57943 
L 120.937985 45.521958 
L 121.427291 45.589638 
L 122.405903 45.533028 
L 122.650556 45.715022 
L 123.384515 45.746608 
L 123.873821 45.664577 
L 124.363127 45.801295 
L 125.586392 45.601471 
L 127.05431 45.659108 
L 127.543616 45.781608 
L 128.032922 45.767886 
L 128.522228 45.99933 
L 129.50084 46.139993 
L 129.990146 46.066878 
L 130.479452 45.807493 
L 130.724105 45.966319 
L 134.149247 45.45219 
L 134.638553 45.298568 
L 134.883206 45.312356 
L 135.127859 45.190884 
L 135.861818 45.35952 
L 136.351124 45.248852 
L 136.595777 45.300159 
L 136.84043 45.150216 
L 138.063695 45.490008 
L 138.797654 45.671769 
L 139.042307 45.700637 
L 139.28696 45.568327 
L 139.531613 45.568691 
L 140.265572 45.885017 
L 140.510225 45.839908 
L 140.754878 45.926911 
L 140.999531 45.843322 
L 141.488837 45.967844 
L 141.73349 45.811106 
L 142.222797 45.98024 
L 142.46745 45.84899 
L 142.712103 46.009605 
L 143.201409 45.859728 
L 143.446062 45.602299 
L 143.935368 45.525538 
L 144.180021 45.566205 
L 144.424674 45.461769 
L 144.669327 45.514667 
L 144.91398 45.285576 
L 145.158633 45.595704 
L 145.403286 45.564018 
L 145.647939 45.830562 
L 145.892592 45.769179 
L 146.137245 45.497564 
L 146.381898 46.05604 
L 146.626551 46.075661 
L 146.871204 46.331797 
L 147.115857 46.39265 
L 147.36051 46.575969 
L 148.094469 46.519989 
L 148.339122 46.590022 
L 148.583775 46.241613 
L 149.80704 45.938047 
L 150.540999 46.110098 
L 150.785652 45.992006 
L 152.25357 46.231338 
L 152.498223 46.384861 
L 153.232182 46.238961 
L 153.476835 46.247877 
L 153.721488 46.13058 
L 153.966141 46.196305 
L 154.7001 45.890784 
L 154.944753 45.927574 
L 155.189406 45.783265 
L 155.434059 45.907389 
L 155.678712 45.824728 
L 156.168018 46.048649 
L 156.412671 45.969899 
L 156.657324 46.14112 
L 156.901977 46.117886 
L 157.14663 45.958 
L 157.635936 45.947692 
L 157.880589 45.927839 
L 158.369895 45.755093 
L 159.103854 45.865926 
L 159.348507 45.667195 
L 159.59316 45.733748 
L 160.327119 45.541248 
L 161.061078 45.875306 
L 161.550384 45.521063 
L 161.795037 45.680353 
L 162.03969 45.237351 
L 162.284343 46.050869 
L 162.773649 45.250178 
L 163.018302 45.054098 
L 163.262955 44.709236 
L 163.507608 44.592901 
L 163.996914 44.640959 
L 164.241567 44.882413 
L 164.48622 44.668701 
L 165.22018 44.957318 
L 165.464833 44.869255 
L 165.709486 44.945552 
L 166.198792 44.82746 
L 167.177404 45.21309 
L 167.66671 45.197181 
L 168.156016 45.45103 
L 168.645322 45.612872 
L 169.868587 45.608331 
L 170.11324 45.752541 
L 170.847199 45.768185 
L 171.091852 45.526433 
L 171.336505 45.599449 
L 172.315117 44.898687 
L 173.293729 44.960069 
L 173.538382 44.707877 
L 173.783035 44.700884 
L 174.027688 44.933554 
L 175.0063 44.597276 
L 175.984912 45.029241 
L 176.229565 44.893384 
L 176.474218 45.575022 
L 176.963524 45.068549 
L 177.45283 44.826532 
L 177.942136 44.805685 
L 178.186789 45.032886 
L 179.165401 44.663099 
L 179.89936 44.94943 
L 180.877972 45.009553 
L 181.122625 45.109913 
L 181.367278 45.078393 
L 181.856584 45.339534 
L 182.34589 45.480727 
L 182.835196 45.564515 
L 183.079849 45.553014 
L 183.324502 45.31282 
L 184.058461 45.628682 
L 184.79242 45.922271 
L 185.281726 45.943616 
L 185.526379 45.771731 
L 185.771032 45.963668 
L 186.749644 45.71005 
L 187.238951 45.708658 
L 188.217563 45.588511 
L 188.706869 45.852138 
L 188.951522 45.653109 
L 189.196175 45.735571 
L 189.440828 45.431741 
L 190.908746 46.07291 
L 191.642705 46.147451 
L 191.887358 46.60603 
L 192.132011 46.110031 
L 193.355276 45.054098 
L 194.089235 44.955694 
L 194.333888 44.852749 
L 196.291112 45.515794 
L 196.780418 45.650292 
L 197.514377 45.636338 
L 198.003683 45.73872 
L 198.248336 45.703819 
L 198.492989 45.796523 
L 198.737642 45.65818 
L 199.471601 45.940036 
L 199.716254 45.731163 
L 200.450213 45.626163 
L 200.694866 45.418218 
L 200.939519 45.462896 
L 201.428825 45.244312 
L 201.673478 45.399856 
L 202.162784 45.257238 
L 202.407437 45.395779 
L 202.65209 45.295652 
L 203.386049 45.36005 
L 203.875355 45.213156 
L 204.364661 45.335822 
L 204.609314 45.206826 
L 204.853967 45.387261 
L 206.811191 44.946215 
L 207.055844 45.115382 
L 207.300497 45.135235 
L 207.54515 45.551059 
L 207.789803 45.181404 
L 208.768415 44.928682 
L 209.502375 45.255746 
L 210.480987 45.153961 
L 210.72564 45.30059 
L 211.214946 45.307086 
L 211.459599 45.613966 
L 212.193558 45.7655 
L 213.17217 46.017029 
L 213.416823 45.952366 
L 213.661476 46.193587 
L 213.906129 46.006456 
L 214.150782 46.094752 
L 214.395435 45.868279 
L 214.884741 45.72881 
L 215.129394 45.461636 
L 215.374047 45.525869 
L 215.6187 45.336849 
L 216.108006 45.271688 
L 216.352659 45.373672 
L 216.597312 45.147863 
L 216.841965 45.169804 
L 217.331271 45.002261 
L 217.820577 45.18157 
L 218.06523 45.112001 
L 219.533148 45.535945 
L 220.022454 45.333601 
L 220.51176 45.354681 
L 220.756413 45.212096 
L 221.245719 45.277455 
L 221.490372 45.124231 
L 221.735025 45.168279 
L 222.224331 44.973227 
L 222.95829 45.4738 
L 223.202943 45.566736 
L 223.447596 45.473104 
L 223.692249 45.047768 
L 224.181555 45.920978 
L 224.915514 46.651338 
L 225.160167 46.843374 
L 226.628085 46.829188 
L 227.117391 46.596021 
L 227.606697 46.565893 
L 227.85135 46.407531 
L 228.340656 46.461722 
L 228.585309 46.290765 
L 229.074615 46.296201 
L 229.319268 46.163956 
L 229.563921 46.293715 
L 229.808574 46.167867 
L 230.053227 46.21291 
L 231.031839 45.664245 
L 231.765798 45.628085 
L 232.010452 45.526134 
L 232.255105 45.644326 
L 234.456982 45.44238 
L 234.701635 45.542242 
L 234.946288 45.435386 
L 235.680247 45.644723 
L 236.414206 45.691291 
L 236.658859 45.877792 
L 236.903512 45.549832 
L 237.392818 45.736234 
L 237.637471 45.747635 
L 237.882124 45.06835 
L 238.126777 45.957039 
L 238.860736 46.622105 
L 240.573307 46.249136 
L 241.062613 46.293118 
L 241.307266 46.146688 
L 241.551919 46.264018 
L 242.530531 45.836362 
L 242.775184 45.938047 
L 243.998449 45.777332 
L 245.466367 45.720921 
L 245.955673 45.620528 
L 246.444979 45.728611 
L 246.689632 45.594179 
L 246.934285 45.60863 
L 247.178938 45.435817 
L 247.423591 45.649596 
L 247.912897 45.538795 
L 248.15755 45.774283 
L 248.646856 45.821944 
L 248.891509 45.912295 
L 249.136162 45.723573 
L 250.114774 45.643133 
L 250.359427 45.735206 
L 250.848733 45.472176 
L 251.093386 45.418384 
L 251.338039 45.486991 
L 251.582692 45.783431 
L 251.827345 45.676045 
L 252.561304 46.286158 
L 253.05061 46.596651 
L 253.295263 45.940599 
L 253.539916 46.581802 
L 254.029222 46.924577 
L 255.007835 47.274974 
L 255.252488 47.131395 
L 255.497141 47.234373 
L 255.741794 47.138123 
L 256.2311 46.738374 
L 257.699018 46.325533 
L 257.943671 46.503781 
L 258.432977 46.483696 
L 258.922283 44.998118 
L 259.166936 44.922252 
L 259.656242 45.234435 
L 259.900895 45.53336 
L 260.145548 45.225751 
L 260.390201 45.515661 
L 260.634854 45.517815 
L 260.879507 45.209212 
L 261.12416 45.465249 
L 261.613466 45.482882 
L 261.858119 45.775576 
L 262.592078 45.689368 
L 262.836731 45.860723 
L 263.081384 45.8413 
L 263.326037 46.172044 
L 263.815343 46.175656 
L 264.304649 46.318009 
L 264.549302 46.025448 
L 264.793955 45.512877 
L 265.527914 45.233606 
L 265.772567 45.551125 
L 266.01722 45.545789 
L 266.261873 45.846172 
L 266.751179 45.712072 
L 267.240485 45.990813 
L 267.485138 45.759501 
L 268.46375 46.378365 
L 268.708403 46.218346 
L 268.953056 45.822806 
L 269.442362 46.377702 
L 270.665627 47.233412 
L 270.91028 47.01844 
L 271.154933 47.03488 
L 271.644239 47.387763 
L 272.133545 47.258668 
L 272.622851 47.765637 
L 272.867504 47.326977 
L 273.112157 47.305699 
L 273.35681 46.770822 
L 273.601463 46.90711 
L 274.090769 46.611565 
L 274.335422 46.85514 
L 274.580075 46.7163 
L 275.069381 46.870486 
L 275.314034 46.518166 
L 275.80334 46.707716 
L 276.047993 46.44273 
L 276.292646 46.487474 
L 276.537299 46.264316 
L 276.781952 46.467356 
L 277.026606 46.272403 
L 277.271259 46.457612 
L 277.515912 45.790921 
L 277.760565 45.855254 
L 278.005218 45.506944 
L 278.249871 45.766428 
L 278.98383 45.801561 
L 279.473136 45.749624 
L 279.962442 45.458024 
L 280.696401 46.499671 
L 280.941054 45.985012 
L 281.185707 45.766395 
L 281.43036 45.799439 
L 281.919666 44.790041 
L 282.164319 44.69157 
L 282.408972 45.032555 
L 282.653625 44.312967 
L 282.898278 44.640727 
L 283.142931 44.120268 
L 283.387584 44.08255 
L 283.87689 43.611144 
L 284.121543 43.920311 
L 284.366196 43.99041 
L 284.610849 44.481471 
L 284.855502 43.756215 
L 285.100155 45.248554 
L 285.344808 44.944525 
L 285.589461 45.202252 
L 285.834114 45.086646 
L 286.078767 44.530491 
L 286.32342 44.78139 
L 287.057379 43.338204 
L 287.302032 43.040836 
L 287.546685 43.068312 
L 287.791338 42.975112 
L 288.035991 43.149051 
L 288.280644 43.674615 
L 288.76995 43.79612 
L 289.014603 44.464733 
L 290.237868 45.456234 
L 290.482521 45.142394 
L 290.727174 45.545325 
L 291.461133 46.102077 
L 292.929051 45.639056 
L 293.66301 45.878819 
L 294.396969 45.403402 
L 294.641622 45.313384 
L 294.886275 45.569652 
L 295.130928 45.443076 
L 295.620234 45.951205 
L 295.864887 45.955514 
L 296.10954 46.188152 
L 296.354193 46.26256 
L 296.598846 45.965259 
L 296.843499 46.292522 
L 297.088152 46.085339 
L 297.332805 46.092498 
L 297.822111 45.901324 
L 298.55607 46.11729 
L 298.800723 46.452541 
L 299.045376 46.386452 
L 299.534683 46.68256 
L 299.779336 46.449425 
L 300.023989 46.58621 
L 300.513295 46.308928 
L 300.757948 45.347323 
L 301.002601 45.682176 
L 301.247254 46.283772 
L 301.491907 46.421021 
L 301.73656 46.833762 
L 301.981213 46.608052 
L 302.225866 46.76943 
L 302.470519 46.555353 
L 303.204478 47.333937 
L 303.449131 47.349615 
L 303.693784 47.619572 
L 303.938437 47.3405 
L 304.672396 47.029544 
L 304.917049 46.727271 
L 305.895661 46.442763 
L 306.140314 46.627276 
L 306.384967 46.471598 
L 306.62962 46.639638 
L 307.608232 46.537323 
L 307.852885 46.631419 
L 308.342191 46.298421 
L 308.586844 46.308431 
L 308.831497 46.097105 
L 309.07615 46.202569 
L 309.320803 45.865794 
L 309.810109 45.877924 
L 310.054762 45.617181 
L 310.299415 46.052659 
L 311.033374 45.427167 
L 311.278027 45.47158 
L 311.52268 45.367209 
L 311.767333 45.534288 
L 312.011986 45.529449 
L 312.256639 45.78015 
L 312.501292 45.760131 
L 312.745945 45.890254 
L 312.990598 46.180827 
L 313.479904 46.298488 
L 313.724557 46.352811 
L 314.458516 45.986205 
L 315.192475 46.050505 
L 315.681781 45.903578 
L 315.926434 45.646016 
L 317.149699 46.00934 
L 319.351576 46.103303 
L 320.574841 45.838483 
L 321.064147 45.548672 
L 321.798107 45.687744 
L 322.287413 45.729572 
L 322.532066 45.554307 
L 322.776719 45.866954 
L 323.021372 45.885216 
L 323.266025 46.275652 
L 323.510678 45.814188 
L 323.755331 46.040031 
L 324.244637 45.585495 
L 324.48929 45.4971 
L 324.733943 45.628085 
L 325.223249 45.528123 
L 325.467902 45.51344 
L 325.957208 46.041324 
L 326.201861 45.867915 
L 327.425126 46.728133 
L 327.669779 46.625751 
L 327.914432 46.829652 
L 328.648391 46.910789 
L 328.893044 46.657867 
L 329.38235 46.565794 
L 329.627003 46.488701 
L 329.871656 46.141087 
L 330.360962 45.990813 
L 330.850268 45.444932 
L 331.339574 45.883294 
L 331.584227 45.841731 
L 331.82888 46.353308 
L 332.073533 45.501078 
L 332.562839 45.495211 
L 332.807492 45.016812 
L 333.052145 45.00256 
L 333.296798 44.270244 
L 334.030757 45.017143 
L 334.27541 44.689217 
L 334.520063 44.809695 
L 334.764716 44.055041 
L 335.009369 44.17353 
L 335.254022 44.01265 
L 335.498675 44.150661 
L 335.743328 44.071049 
L 336.72194 45.395315 
L 336.966593 45.387858 
L 337.211246 45.522058 
L 337.700552 45.25326 
L 337.945205 44.828985 
L 338.923817 45.136759 
L 339.16847 45.366281 
L 339.413123 45.131821 
L 339.657776 45.436878 
L 340.147082 45.488682 
L 340.391735 45.329823 
L 340.881041 45.414108 
L 341.370347 45.552915 
L 341.615 45.343876 
L 342.348959 45.712006 
L 342.593612 45.441651 
L 342.838265 45.375164 
L 343.082918 45.037891 
L 343.327571 45.128805 
L 343.816877 45.636935 
L 344.06153 45.779122 
L 344.306184 45.777564 
L 344.79549 46.325434 
L 345.529449 46.410746 
L 345.774102 46.243767 
L 346.018755 46.280623 
L 346.263408 46.149671 
L 346.997367 46.607853 
L 347.24202 46.665259 
L 347.486673 46.426854 
L 347.731326 46.374884 
L 347.975979 46.818582 
L 348.465285 46.172276 
L 348.954591 45.887867 
L 349.443897 45.697886 
L 349.68855 45.843521 
L 349.933203 45.819293 
L 350.422509 46.039932 
L 350.667162 45.968705 
L 351.156468 46.290964 
L 351.401121 46.394738 
L 351.645774 46.263952 
L 351.890427 46.317512 
L 352.13508 46.101149 
L 352.379733 46.208469 
L 352.624386 46.096807 
L 353.113692 46.040827 
L 353.602998 45.900562 
L 355.070916 45.877228 
L 355.315569 45.782205 
L 355.560222 46.010467 
L 355.804875 45.737096 
L 356.294181 45.717375 
L 357.02814 45.354117 
L 357.272793 45.610486 
L 357.517446 45.618109 
L 357.762099 45.844151 
L 358.006752 45.868545 
L 358.496058 46.566258 
L 358.740711 46.610836 
L 358.985364 46.461258 
L 359.230017 46.675301 
L 359.719323 46.717991 
L 359.963976 46.248473 
L 360.453282 46.344193 
L 360.697935 46.214368 
L 360.942588 46.26783 
L 361.187241 46.062006 
L 361.431894 46.14291 
L 362.165853 46.05899 
L 362.410506 45.882598 
L 362.899812 46.51273 
L 363.389118 46.696513 
L 363.633771 46.447801 
L 364.123077 46.651139 
L 364.36773 46.63238 
L 364.612383 46.426423 
L 364.857036 46.633109 
L 365.101689 46.476603 
L 365.346342 46.884638 
L 365.590995 46.39961 
L 365.835648 46.5063 
L 366.080301 46.30568 
L 366.324954 46.411873 
L 366.814261 46.296864 
L 367.303567 46.615973 
L 367.792873 46.769496 
L 368.037526 46.660917 
L 368.526832 46.926134 
L 368.771485 46.736783 
L 369.016138 46.815566 
L 369.260791 47.214354 
L 369.505444 46.881158 
L 369.750097 46.299979 
L 369.99475 46.299913 
L 370.239403 46.181655 
L 370.484056 45.549335 
L 370.973362 45.72175 
L 371.218015 45.61032 
L 371.462668 45.825126 
L 371.707321 45.858634 
L 372.196627 46.239226 
L 372.44128 45.805041 
L 372.685933 46.085173 
L 372.930586 45.887238 
L 373.175239 45.85943 
L 373.419892 45.275865 
L 373.664545 45.430249 
L 373.909198 45.055027 
L 374.153851 44.97389 
L 374.398504 45.280405 
L 374.643157 45.215675 
L 374.88781 45.62202 
L 375.866422 45.974406 
L 376.355728 46.305448 
L 376.600381 46.183246 
L 376.845034 46.409918 
L 377.089687 46.309657 
L 377.578993 46.978336 
L 377.823646 47.069283 
L 378.068299 46.36577 
L 378.557605 45.987598 
L 379.046911 45.368668 
L 379.536217 45.29247 
L 379.78087 45.462465 
L 380.025523 44.894179 
L 380.270176 44.713147 
L 381.004135 45.105936 
L 381.248788 44.92782 
L 381.493441 44.93594 
L 381.738094 44.614809 
L 381.982747 44.856097 
L 383.450665 44.523365 
L 383.939971 45.177228 
L 384.429277 45.107261 
L 384.67393 45.491333 
L 384.918583 45.206428 
L 385.163236 45.352062 
L 385.407889 45.233208 
L 385.652542 45.648767 
L 386.386501 45.863573 
L 386.631154 45.707962 
L 386.875807 45.769676 
L 387.365113 45.654236 
L 387.854419 44.966234 
L 388.343725 44.842673 
L 388.833031 45.027484 
L 389.322338 44.937564 
L 389.811644 45.368336 
L 390.056297 45.625798 
L 390.30095 45.639023 
L 391.768868 46.388805 
L 392.013521 46.264416 
L 392.258174 46.323478 
L 392.502827 45.808919 
L 392.74748 45.793672 
L 392.992133 45.597328 
L 393.236786 43.899364 
L 393.481439 45.470685 
L 394.215398 47.563592 
L 394.215398 47.563592 
" style="fill:none;stroke:#1f77b4;stroke-linecap:square;stroke-width:1.5;"/>
   </g>
   <g id="line2d_26">
    <path clip-path="url(#p603c57037d)" d="M 69.560852 272.128355 
L 69.805505 272.885883 
L 70.294811 273.561955 
L 70.539464 272.432452 
L 70.784117 272.698537 
L 71.02877 272.000743 
L 71.273423 272.592646 
L 71.518076 272.679531 
L 71.762729 273.035216 
L 72.007382 273.119386 
L 72.252035 272.915749 
L 72.741341 270.645883 
L 73.230647 270.971701 
L 73.4753 271.216064 
L 73.719953 270.225034 
L 73.964606 270.740913 
L 74.209259 269.508234 
L 74.453912 270.002392 
L 74.698566 269.407773 
L 74.943219 269.133543 
L 75.187872 269.377907 
L 75.432525 268.821301 
L 75.677178 268.927192 
L 75.921831 269.377907 
L 76.166484 267.976889 
L 76.411137 265.869931 
L 76.900443 266.812089 
L 77.145096 266.822949 
L 77.389749 265.571264 
L 77.634402 265.291604 
L 77.879055 266.179458 
L 78.123708 265.975822 
L 78.368361 265.180283 
L 78.613014 265.416501 
L 79.10232 267.045592 
L 79.591626 268.44118 
L 79.836279 266.562295 
L 80.570238 268.18867 
L 81.059544 265.508816 
L 81.304197 266.040986 
L 81.54885 265.891652 
L 82.038156 269.71187 
L 82.282809 269.920937 
L 82.527462 270.425955 
L 82.772115 269.931798 
L 83.016768 269.996961 
L 83.261421 269.033083 
L 83.506074 269.749883 
L 83.99538 272.755555 
L 84.240033 272.611652 
L 84.729339 275.70421 
L 84.973992 271.544598 
L 85.218645 272.997204 
L 85.463298 273.20084 
L 85.707951 273.124816 
L 85.952604 272.606222 
L 86.197257 271.729228 
L 86.686563 274.501398 
L 86.931216 274.783773 
L 87.420522 274.705034 
L 87.909828 276.334125 
L 88.88844 271.601616 
L 89.133093 271.099313 
L 89.377746 270.083846 
L 89.622399 270.14358 
L 90.111705 268.006755 
L 90.356358 267.794973 
L 90.601011 268.26198 
L 91.090317 267.27638 
L 91.33497 267.436573 
L 91.579623 267.463725 
L 91.824276 268.957058 
L 92.068929 268.164234 
L 92.313582 267.873713 
L 92.558235 268.012186 
L 92.802888 268.571507 
L 93.292194 265.527822 
L 93.536847 266.182173 
L 93.7815 265.229155 
L 94.026153 266.472695 
L 94.270806 266.011119 
L 94.515459 268.723555 
L 94.760112 268.81044 
L 95.004765 269.660283 
L 95.494071 266.366804 
L 95.983377 265.867216 
L 96.22803 263.33941 
L 96.472683 263.904161 
L 96.717336 263.912307 
L 96.961989 264.186537 
L 97.206643 263.480598 
L 97.451296 262.18004 
L 97.695949 262.405398 
L 97.940602 263.211798 
L 98.429908 262.345664 
L 98.919214 263.43444 
L 99.163867 261.938392 
L 99.40852 259.12278 
L 99.653173 261.281325 
L 99.897826 265.541398 
L 100.142479 262.171895 
L 100.387132 264.143095 
L 100.631785 264.278852 
L 100.876438 265.641858 
L 101.121091 263.765689 
L 101.365744 265.033664 
L 101.610397 265.57398 
L 101.85505 265.106973 
L 102.099703 266.393955 
L 102.344356 265.989398 
L 102.589009 263.06518 
L 102.833662 263.127628 
L 103.078315 264.254416 
L 103.322968 262.989155 
L 103.567621 263.896016 
L 104.056927 264.164816 
L 104.30158 265.671725 
L 104.546233 265.810198 
L 104.790886 264.754004 
L 105.280192 264.077931 
L 105.524845 262.076864 
L 105.769498 261.403507 
L 106.014151 261.892234 
L 106.503457 261.783628 
L 106.74811 262.584598 
L 106.992763 261.799919 
L 107.237416 261.536549 
L 107.482069 264.077931 
L 107.971375 266.209325 
L 108.216028 266.611167 
L 108.460681 266.374949 
L 108.705334 267.431143 
L 108.949987 266.247337 
L 109.19464 266.717058 
L 109.683946 264.197398 
L 109.928599 263.874295 
L 110.173252 265.199289 
L 110.417905 264.734998 
L 110.662558 265.899798 
L 110.907211 265.886222 
L 111.151864 266.863677 
L 112.375129 262.142028 
L 112.619782 263.540331 
L 112.864435 262.285931 
L 113.109088 263.627216 
L 113.353741 265.793907 
L 113.598394 265.549543 
L 113.843047 264.672549 
L 114.0877 263.219943 
L 114.332353 263.252525 
L 114.577006 261.645155 
L 114.821659 267.045592 
L 115.066312 268.422173 
L 115.310965 267.317107 
L 115.555618 268.832161 
L 116.044924 266.165883 
L 116.289577 266.798513 
L 116.53423 266.252767 
L 117.023536 265.592986 
L 117.268189 264.650828 
L 117.512842 264.411895 
L 117.757495 263.374707 
L 118.246801 264.517786 
L 118.491454 262.948428 
L 118.736107 263.564767 
L 118.98076 263.230804 
L 119.225413 264.832743 
L 119.470066 265.147701 
L 119.71472 265.163992 
L 119.959373 263.657083 
L 120.204026 264.134949 
L 120.448679 263.78198 
L 120.693332 263.138489 
L 120.937985 263.768404 
L 121.182638 264.088792 
L 121.427291 263.689664 
L 121.671944 263.510464 
L 121.916597 261.055967 
L 122.16125 259.915604 
L 122.405903 261.623434 
L 122.650556 262.467846 
L 122.895209 261.349204 
L 123.139862 261.837931 
L 123.629168 259.728258 
L 124.118474 261.987264 
L 124.363127 262.008986 
L 124.60778 262.755652 
L 124.852433 262.35381 
L 125.097086 260.865907 
L 125.586392 260.833325 
L 125.831045 259.635943 
L 126.075698 259.193373 
L 126.320351 259.111919 
L 126.565004 258.609616 
L 126.809657 257.33078 
L 127.298963 256.858343 
L 127.788269 252.725883 
L 128.032922 252.991967 
L 128.277575 252.910513 
L 128.522228 252.416355 
L 128.766881 253.659895 
L 129.011534 253.355798 
L 129.50084 254.488016 
L 129.745493 255.063628 
L 129.990146 253.85267 
L 130.234799 251.514925 
L 130.724105 254.12147 
L 130.968758 254.444573 
L 131.213411 253.263483 
L 131.458064 253.632743 
L 131.702717 254.507022 
L 131.94737 254.572186 
L 132.192023 255.614804 
L 132.436676 255.932477 
L 132.681329 255.519773 
L 132.925982 255.674537 
L 133.415288 257.127143 
L 133.659941 258.449422 
L 133.904594 258.897422 
L 134.149247 258.693786 
L 134.3939 258.281083 
L 134.638553 258.965301 
L 134.883206 257.564283 
L 135.127859 257.488258 
L 135.617165 259.953616 
L 135.861818 259.777131 
L 136.106471 259.125495 
L 136.351124 259.94004 
L 136.84043 256.502658 
L 137.085083 256.377761 
L 137.329736 255.899895 
L 137.574389 254.854561 
L 137.819042 254.678077 
L 138.553001 255.340573 
L 138.797654 255.845592 
L 139.28696 251.509495 
L 139.531613 251.501349 
L 139.776266 250.339264 
L 140.020919 251.656113 
L 140.265572 250.939313 
L 140.510225 251.341155 
L 140.754878 249.855967 
L 140.999531 250.428864 
L 141.244184 251.34387 
L 141.488837 249.08758 
L 141.73349 249.207046 
L 141.978143 250.768258 
L 142.222797 249.606173 
L 142.712103 253.898828 
L 142.956756 255.256404 
L 143.446062 251.819022 
L 143.690715 251.87061 
L 143.935368 253.038125 
L 144.180021 251.927628 
L 144.424674 251.851604 
L 144.669327 246.920889 
L 144.91398 247.596961 
L 145.158633 245.940719 
L 145.403286 247.510077 
L 145.647939 246.030319 
L 145.892592 237.564477 
L 146.137245 238.984501 
L 146.381898 237.751822 
L 146.626551 238.191677 
L 146.871204 237.390707 
L 147.115857 238.756428 
L 147.605163 238.786295 
L 147.849816 239.522101 
L 148.094469 242.948622 
L 148.583775 240.010828 
L 148.828428 241.327677 
L 149.073081 239.51124 
L 149.317734 236.475701 
L 149.562387 235.995119 
L 149.80704 236.806949 
L 150.051693 237.143628 
L 150.296346 237.787119 
L 150.540999 236.062998 
L 151.030305 233.966901 
L 151.519611 231.232743 
L 151.764264 229.356573 
L 152.008917 229.714973 
L 152.25357 231.789349 
L 152.498223 231.43638 
L 152.742876 231.835507 
L 152.987529 231.16758 
L 153.232182 231.726901 
L 153.476835 230.942222 
L 153.721488 232.459992 
L 153.966141 232.715216 
L 154.210794 231.903386 
L 154.455447 230.619119 
L 154.7001 230.977519 
L 154.944753 228.721228 
L 155.189406 228.930295 
L 155.434059 227.026973 
L 155.678712 226.831483 
L 155.923365 227.841519 
L 156.168018 226.432355 
L 156.657324 229.424452 
L 156.901977 227.95284 
L 157.14663 228.175483 
L 157.391283 228.590901 
L 157.635936 229.353858 
L 158.125242 227.102998 
L 158.369895 227.350077 
L 158.614548 228.259652 
L 158.859201 230.073373 
L 159.103854 228.292234 
L 159.348507 228.745664 
L 159.59316 228.76467 
L 159.837813 227.730198 
L 160.082466 225.710125 
L 160.327119 226.391628 
L 160.571772 227.659604 
L 160.816425 230.991095 
L 161.061078 231.349495 
L 161.305731 229.136646 
L 161.550384 231.914246 
L 161.795037 226.807046 
L 162.03969 238.840598 
L 162.284343 242.245398 
L 162.528996 241.75667 
L 162.773649 242.163943 
L 163.262955 238.191677 
L 163.507608 238.248695 
L 163.752261 237.998901 
L 163.996914 241.403701 
L 164.241567 239.245155 
L 164.48622 239.204428 
L 164.730874 240.209034 
L 164.975527 241.911434 
L 165.22018 241.254367 
L 165.464833 242.079773 
L 166.198792 238.539216 
L 166.443445 238.449616 
L 166.688098 237.914731 
L 166.932751 238.544646 
L 167.177404 237.426004 
L 167.422057 235.12627 
L 167.911363 235.21044 
L 168.400669 236.090149 
L 168.645322 235.595992 
L 168.889975 235.359773 
L 169.623934 233.388573 
L 170.357893 238.316573 
L 170.602546 240.697761 
L 170.847199 239.921228 
L 171.091852 242.989349 
L 171.336505 244.330634 
L 171.581158 244.379507 
L 171.825811 244.900816 
L 172.070464 243.103386 
L 172.315117 243.383046 
L 173.049076 249.953713 
L 173.293729 247.425907 
L 173.538382 246.138925 
L 173.783035 250.130198 
L 174.027688 251.590949 
L 174.272341 250.456016 
L 174.516994 250.409858 
L 174.761647 248.346343 
L 175.0063 248.01238 
L 175.250953 246.394149 
L 175.495606 246.814998 
L 175.740259 248.10198 
L 175.984912 244.689034 
L 176.229565 253.735919 
L 176.474218 255.704404 
L 177.208177 252.633567 
L 177.45283 252.600986 
L 177.697483 252.047095 
L 177.942136 255.487192 
L 178.431442 257.947119 
L 178.676095 256.88278 
L 178.920748 253.999289 
L 179.165401 253.515992 
L 179.410054 255.422028 
L 179.654707 256.08181 
L 179.89936 255.400307 
L 180.144013 255.658246 
L 180.633319 253.415531 
L 180.877972 253.442683 
L 181.122625 251.452477 
L 181.611931 252.017228 
L 181.856584 251.034343 
L 182.101237 251.368307 
L 182.34589 252.375628 
L 182.590543 252.823628 
L 182.835196 252.934949 
L 183.079849 248.37621 
L 183.324502 246.719967 
L 183.569155 247.309155 
L 184.058461 245.218489 
L 184.303114 247.740864 
L 184.547767 247.643119 
L 184.79242 247.276573 
L 185.037073 247.819604 
L 185.281726 245.441131 
L 185.526379 247.444913 
L 185.771032 248.205155 
L 186.015685 247.379749 
L 186.260338 248.216016 
L 186.504991 247.325446 
L 186.994298 248.104695 
L 187.238951 248.047677 
L 187.483604 245.981446 
L 187.728257 245.856549 
L 187.97291 244.596719 
L 188.217563 245.666489 
L 188.462216 248.311046 
L 188.706869 246.638513 
L 188.951522 247.195119 
L 189.196175 242.231822 
L 189.440828 239.755604 
L 189.685481 239.994537 
L 189.930134 239.598125 
L 190.174787 240.534852 
L 190.41944 238.848743 
L 190.908746 238.25684 
L 191.153399 238.989931 
L 191.398052 238.862319 
L 191.642705 248.256743 
L 191.887358 249.234198 
L 192.132011 249.345519 
L 192.376664 248.664016 
L 192.86597 252.858925 
L 193.110623 251.06964 
L 193.355276 251.430755 
L 193.599929 251.004477 
L 193.844582 251.666973 
L 194.089235 250.214367 
L 194.578541 249.530149 
L 195.067847 245.758804 
L 195.3125 245.644767 
L 196.046459 245.06101 
L 196.291112 245.840258 
L 196.535765 246.198658 
L 196.780418 245.538877 
L 197.025071 243.418343 
L 197.269724 243.051798 
L 197.514377 243.909786 
L 197.75903 244.17587 
L 198.003683 243.26901 
L 198.248336 244.186731 
L 198.492989 242.299701 
L 198.737642 242.182949 
L 198.982295 243.27987 
L 199.226948 246.698246 
L 199.471601 246.269252 
L 199.716254 246.48918 
L 199.960907 246.307264 
L 200.20556 248.289325 
L 200.450213 247.238561 
L 200.694866 248.259458 
L 200.939519 247.987943 
L 201.184172 246.271967 
L 201.428825 248.123701 
L 201.673478 248.359919 
L 201.918131 247.11638 
L 202.162784 248.821495 
L 202.407437 248.473955 
L 202.65209 248.851361 
L 202.896743 248.683022 
L 203.141396 250.035167 
L 203.386049 249.777228 
L 203.630702 248.601567 
L 203.875355 248.748186 
L 204.120008 250.165495 
L 204.364661 248.612428 
L 204.853967 251.683264 
L 205.09862 253.024549 
L 205.343273 252.519531 
L 205.832579 253.999289 
L 206.077232 253.787507 
L 206.321885 253.089713 
L 206.566538 250.613495 
L 206.811191 251.25427 
L 207.055844 251.197252 
L 207.300497 258.289228 
L 207.54515 257.499119 
L 207.789803 255.973204 
L 208.034456 256.372331 
L 208.523762 253.293349 
L 208.768415 253.222755 
L 209.013068 254.012864 
L 209.257721 255.720695 
L 209.502375 255.688113 
L 209.747028 254.813834 
L 210.236334 251.514925 
L 210.480987 251.650683 
L 210.72564 250.301252 
L 210.970293 247.22227 
L 211.214946 248.517398 
L 211.704252 247.56981 
L 211.948905 246.483749 
L 212.438211 245.099022 
L 212.682864 245.261931 
L 212.927517 245.661058 
L 213.17217 244.284477 
L 213.416823 247.716428 
L 213.661476 247.632258 
L 213.906129 250.295822 
L 214.150782 250.17907 
L 214.640088 252.972961 
L 214.884741 251.381883 
L 215.129394 253.190173 
L 215.374047 252.77747 
L 215.6187 252.788331 
L 215.863353 253.127725 
L 216.108006 256.117107 
L 216.352659 255.079919 
L 216.597312 255.392161 
L 216.841965 254.802973 
L 217.086618 253.000113 
L 217.331271 253.067992 
L 217.575924 253.953131 
L 217.820577 252.307749 
L 218.06523 251.50678 
L 218.309883 251.979216 
L 218.554536 251.96564 
L 218.799189 252.462513 
L 219.288495 256.054658 
L 219.777801 254.650925 
L 220.022454 255.609373 
L 220.267107 257.108137 
L 220.51176 256.203992 
L 220.756413 256.603119 
L 221.001066 258.319095 
L 221.245719 257.290052 
L 221.490372 257.643022 
L 221.735025 255.522489 
L 221.979678 251.973786 
L 222.224331 251.411749 
L 222.95829 253.714198 
L 223.202943 251.577373 
L 223.447596 239.970101 
L 223.692249 237.27124 
L 223.936902 237.521034 
L 224.181555 237.195216 
L 224.426208 234.713567 
L 224.670861 234.607677 
L 224.915514 235.617713 
L 225.649473 233.822998 
L 225.894126 232.557737 
L 226.138779 234.295434 
L 226.383432 234.854755 
L 226.872738 232.060864 
L 227.117391 233.016598 
L 227.362044 233.437446 
L 227.606697 231.596573 
L 227.85135 231.751337 
L 228.096003 233.011167 
L 228.340656 231.520549 
L 228.585309 231.802925 
L 228.829962 232.316089 
L 229.074615 230.928646 
L 229.319268 233.030173 
L 229.563921 233.445592 
L 229.808574 235.902804 
L 230.053227 236.755361 
L 230.29788 234.618537 
L 230.542533 235.612283 
L 230.787186 234.860186 
L 231.031839 235.248452 
L 231.276492 234.376889 
L 231.521145 234.890052 
L 231.765798 233.464598 
L 232.010452 234.382319 
L 232.255105 234.659264 
L 232.744411 236.489277 
L 233.233717 234.523507 
L 233.723023 235.701883 
L 233.967676 235.158852 
L 234.212329 233.858295 
L 234.456982 234.57238 
L 234.701635 232.728792 
L 234.946288 232.093446 
L 235.190941 232.335095 
L 235.435594 232.413834 
L 235.680247 231.667167 
L 235.9249 232.117883 
L 236.169553 231.414658 
L 236.414206 234.260137 
L 236.658859 230.472501 
L 236.903512 230.01907 
L 237.148165 230.393761 
L 237.392818 230.342173 
L 237.637471 215.378973 
L 238.126777 219.666198 
L 238.37143 219.649907 
L 238.616083 221.710707 
L 238.860736 221.414755 
L 239.105389 221.368598 
L 239.594695 222.438367 
L 240.084001 218.476961 
L 240.328654 218.705034 
L 240.573307 219.201907 
L 240.81796 220.328695 
L 241.062613 218.859798 
L 241.307266 220.564913 
L 241.551919 220.771264 
L 241.796572 221.729713 
L 242.041225 221.145955 
L 242.285878 219.036283 
L 242.775184 220.708816 
L 243.019837 219.093301 
L 243.26449 220.410149 
L 243.753796 219.229058 
L 243.998449 219.210052 
L 244.243102 217.689567 
L 244.732408 220.306973 
L 244.977061 221.243701 
L 245.221714 220.706101 
L 245.466367 219.269786 
L 245.71102 218.672452 
L 245.955673 219.500573 
L 246.200326 221.197543 
L 246.444979 220.222804 
L 246.689632 220.07347 
L 246.934285 216.929325 
L 247.178938 218.142998 
L 247.423591 217.771022 
L 247.668244 215.137325 
L 247.912897 216.535628 
L 248.15755 216.736549 
L 248.402203 217.27958 
L 248.646856 219.516864 
L 249.136162 217.472355 
L 249.380815 217.38547 
L 249.625468 217.838901 
L 249.870121 217.65427 
L 250.114774 219.560307 
L 250.359427 218.286901 
L 251.093386 209.821058 
L 251.338039 211.010295 
L 251.582692 207.130343 
L 252.071998 203.703822 
L 252.561304 203.657664 
L 252.805957 205.311192 
L 253.05061 192.484816 
L 253.295263 191.944501 
L 253.539916 193.405252 
L 253.784569 192.598852 
L 254.029222 190.491895 
L 254.273875 190.657519 
L 254.518529 190.961616 
L 254.763182 191.811458 
L 255.007835 190.424016 
L 255.497141 194.331119 
L 255.741794 193.956428 
L 255.986447 193.016986 
L 256.2311 193.437834 
L 256.475753 192.419652 
L 256.720406 191.914634 
L 256.965059 190.910028 
L 257.209712 190.964331 
L 257.454365 191.534513 
L 257.943671 201.97427 
L 258.188324 210.418392 
L 258.432977 209.603846 
L 258.67763 200.263725 
L 258.922283 195.485058 
L 259.166936 195.582804 
L 259.411589 196.972961 
L 259.656242 201.412234 
L 259.900895 197.608307 
L 260.390201 200.744307 
L 260.634854 195.710416 
L 260.879507 195.886901 
L 261.368813 192.479386 
L 261.613466 194.667798 
L 261.858119 194.398998 
L 262.102772 193.035992 
L 262.347425 189.918998 
L 262.592078 189.541592 
L 262.836731 187.334173 
L 263.081384 190.04661 
L 263.57069 191.309155 
L 263.815343 193.888549 
L 264.059996 199.37044 
L 264.304649 201.539846 
L 264.793955 194.846998 
L 265.283261 188.61301 
L 265.527914 190.296404 
L 265.772567 189.085446 
L 266.01722 191.469349 
L 266.261873 189.666489 
L 266.506526 186.845446 
L 266.751179 187.195701 
L 266.995832 188.300767 
L 267.240485 183.519386 
L 267.485138 181.26038 
L 267.729791 180.611458 
L 267.974444 183.942949 
L 268.219097 185.330392 
L 268.46375 183.120258 
L 268.708403 173.584646 
L 268.953056 170.983531 
L 269.197709 170.331895 
L 269.442362 168.678367 
L 269.687015 166.112549 
L 269.931668 166.289034 
L 270.176321 165.623822 
L 270.420974 166.449228 
L 270.91028 158.211458 
L 271.154933 157.201422 
L 271.399586 158.254901 
L 271.644239 157.117252 
L 271.888892 153.432792 
L 272.133545 155.509883 
L 272.378198 161.82261 
L 272.622851 160.340137 
L 272.867504 161.56467 
L 273.112157 156.069204 
L 273.35681 156.685543 
L 273.601463 154.736064 
L 273.846116 151.874295 
L 274.090769 154.002973 
L 274.335422 152.865325 
L 274.580075 153.430077 
L 274.824728 155.727095 
L 275.069381 151.855289 
L 275.314034 152.68341 
L 275.558687 155.333398 
L 275.80334 153.598416 
L 276.047993 154.361373 
L 276.292646 152.32501 
L 276.537299 155.72981 
L 276.781952 156.400452 
L 277.026606 162.419943 
L 277.271259 157.597834 
L 277.515912 157.399628 
L 277.760565 152.748573 
L 278.249871 155.906295 
L 278.494524 155.805834 
L 278.739177 156.175095 
L 278.98383 156.025761 
L 279.228483 156.27284 
L 279.473136 152.903337 
L 279.717789 147.806998 
L 279.962442 149.137422 
L 280.207095 152.715992 
L 280.451748 163.277931 
L 280.696401 164.14678 
L 280.941054 164.456307 
L 281.185707 171.165446 
L 281.43036 171.407095 
L 281.675013 168.504598 
L 281.919666 168.46387 
L 282.164319 178.260137 
L 282.408972 175.221883 
L 282.653625 181.417858 
L 282.898278 180.250343 
L 283.142931 180.986149 
L 283.387584 180.103725 
L 283.632237 174.304161 
L 283.87689 174.263434 
L 284.121543 172.981883 
L 284.366196 177.842004 
L 284.610849 163.723216 
L 284.855502 176.850973 
L 285.100155 180.160743 
L 285.589461 192.036816 
L 285.834114 190.627652 
L 286.078767 199.894464 
L 286.32342 203.703822 
L 286.568073 205.341058 
L 286.812726 203.057616 
L 287.057379 199.435604 
L 287.302032 198.550464 
L 287.791338 191.214125 
L 288.035991 193.684913 
L 288.280644 190.996913 
L 288.525297 184.31764 
L 288.76995 186.09878 
L 289.259256 185.498731 
L 289.748562 185.441713 
L 289.993215 186.212816 
L 290.237868 179.012234 
L 290.482521 178.694561 
L 290.971827 180.071143 
L 291.21648 183.42164 
L 291.461133 184.111289 
L 291.950439 184.472404 
L 292.195092 181.572622 
L 292.684398 179.560695 
L 292.929051 180.307361 
L 293.173704 184.333931 
L 293.418357 186.332283 
L 293.66301 185.816404 
L 294.152316 181.567192 
L 294.396969 177.95061 
L 294.641622 178.786877 
L 294.886275 174.98838 
L 295.130928 173.676961 
L 295.375581 175.048113 
L 295.620234 173.728549 
L 296.10954 177.084477 
L 296.354193 172.756525 
L 296.598846 175.648161 
L 296.843499 174.787458 
L 297.088152 174.426343 
L 297.332805 172.460573 
L 297.577458 169.297422 
L 298.066764 166.291749 
L 298.311417 163.723216 
L 298.55607 165.746004 
L 298.800723 164.363992 
L 299.045376 164.904307 
L 299.29003 167.755216 
L 299.534683 166.20758 
L 300.268642 172.778246 
L 300.513295 157.141689 
L 300.757948 150.554731 
L 301.002601 153.956816 
L 301.247254 154.070852 
L 301.491907 157.277446 
L 301.73656 153.242731 
L 301.981213 151.667943 
L 302.225866 145.33621 
L 302.470519 142.577616 
L 302.715172 141.301495 
L 302.959825 143.476331 
L 303.204478 143.27541 
L 303.449131 147.454028 
L 303.693784 146.862125 
L 303.938437 146.571604 
L 304.18309 145.409519 
L 304.427743 147.052186 
L 304.917049 143.90261 
L 305.161702 142.12147 
L 305.406355 142.846416 
L 305.651008 139.981931 
L 305.895661 140.891507 
L 306.140314 138.502173 
L 306.384967 139.235264 
L 306.62962 138.912161 
L 306.874273 139.723992 
L 307.118926 138.936598 
L 307.363579 138.662367 
L 307.608232 141.306925 
L 307.852885 142.03187 
L 308.097538 140.929519 
L 308.342191 142.297955 
L 308.586844 141.415531 
L 308.831497 144.43478 
L 309.07615 142.365834 
L 309.320803 141.874392 
L 309.565456 143.291701 
L 309.810109 140.174707 
L 310.054762 146.452137 
L 310.299415 148.515652 
L 310.544068 144.011216 
L 310.788721 141.934125 
L 311.033374 141.928695 
L 311.278027 139.197252 
L 311.52268 138.540186 
L 311.767333 135.958077 
L 312.011986 136.240452 
L 312.501292 131.567677 
L 312.990598 134.59507 
L 313.235251 134.983337 
L 313.479904 136.547264 
L 313.724557 136.37621 
L 313.96921 135.322731 
L 314.213863 133.756089 
L 314.458516 134.106343 
L 314.703169 133.989592 
L 315.192475 136.506537 
L 315.437128 136.213301 
L 315.681781 131.885349 
L 316.171087 127.777325 
L 316.660393 131.334173 
L 317.149699 128.255192 
L 317.394352 128.097713 
L 317.639005 127.622561 
L 317.883658 127.554683 
L 318.128311 126.827022 
L 318.372964 126.468622 
L 318.86227 128.781931 
L 319.106923 128.621737 
L 319.351576 128.667895 
L 319.596229 130.609228 
L 320.085535 129.21364 
L 320.330188 130.625519 
L 320.574841 130.090634 
L 320.819494 127.435216 
L 321.064147 126.813446 
L 321.3088 127.820767 
L 322.04276 126.501204 
L 322.287413 122.04021 
L 322.532066 123.232161 
L 322.776719 123.346198 
L 323.021372 129.84084 
L 323.266025 126.759143 
L 323.510678 129.604622 
L 323.755331 129.582901 
L 324.244637 124.850392 
L 324.48929 125.778973 
L 324.733943 124.388816 
L 324.978596 121.803992 
L 325.223249 117.742125 
L 325.467902 117.457034 
L 325.712555 119.246319 
L 326.201861 111.220331 
L 326.446514 111.130731 
L 326.691167 108.888016 
L 326.93582 109.04278 
L 327.180473 109.778586 
L 327.425126 106.973834 
L 327.914432 108.312404 
L 328.159085 107.693349 
L 328.403738 110.601277 
L 328.648391 109.762295 
L 329.137697 112.784258 
L 329.38235 115.502125 
L 329.627003 114.226004 
L 329.871656 114.215143 
L 330.116309 116.21621 
L 330.360962 113.862173 
L 330.605615 108.676234 
L 330.850268 109.466343 
L 331.094921 112.884719 
L 331.339574 114.033228 
L 331.584227 125.447725 
L 331.82888 121.78227 
L 332.073533 122.979652 
L 332.318186 128.369228 
L 332.562839 127.970101 
L 332.807492 131.222852 
L 333.052145 123.10998 
L 333.296798 122.344307 
L 333.541451 126.653252 
L 333.786104 134.662949 
L 334.030757 135.577955 
L 334.27541 140.991967 
L 334.520063 134.429446 
L 334.764716 133.547022 
L 335.009369 130.856307 
L 335.254022 129.83541 
L 335.498675 124.448549 
L 335.743328 123.001373 
L 335.987981 124.415967 
L 336.232634 124.348089 
L 336.477287 128.040695 
L 336.72194 129.194634 
L 337.211246 134.318125 
L 337.455899 135.21684 
L 337.700552 130.052622 
L 338.189858 127.049664 
L 338.434511 127.888646 
L 338.679164 127.527531 
L 338.923817 129.84627 
L 339.16847 125.985325 
L 339.902429 130.484331 
L 340.391735 126.832452 
L 340.636388 127.000792 
L 341.125694 129.718658 
L 341.370347 126.78358 
L 341.615 126.585373 
L 341.859653 128.480549 
L 342.104306 132.629301 
L 342.593612 130.644525 
L 343.082918 120.107022 
L 343.327571 119.854513 
L 343.572224 120.131458 
L 343.816877 119.284331 
L 344.06153 115.31478 
L 344.306184 114.364477 
L 344.550837 116.379119 
L 344.79549 116.987313 
L 345.040143 116.563749 
L 345.284796 116.756525 
L 345.529449 114.163555 
L 345.774102 112.925446 
L 346.018755 109.102513 
L 346.263408 108.388428 
L 346.508061 109.306149 
L 346.997367 112.64307 
L 347.486673 108.171216 
L 347.731326 116.248792 
L 347.975979 116.94387 
L 348.220632 115.624307 
L 348.465285 113.666683 
L 348.709938 113.218683 
L 348.954591 111.56244 
L 349.199244 109.099798 
L 349.443897 109.13781 
L 349.68855 107.424549 
L 350.177856 106.781058 
L 350.422509 103.693931 
L 350.667162 103.919289 
L 350.911815 104.84787 
L 351.156468 106.734901 
L 351.401121 105.811749 
L 351.645774 106.789204 
L 351.890427 104.606222 
L 352.13508 105.73844 
L 352.379733 105.47507 
L 352.624386 106.362925 
L 352.869039 106.523119 
L 353.358345 104.627943 
L 353.602998 104.774561 
L 353.847651 104.196234 
L 354.092304 104.755555 
L 354.58161 104.513907 
L 354.826263 104.815289 
L 355.070916 103.550028 
L 355.315569 107.288792 
L 355.560222 105.969228 
L 355.804875 106.153858 
L 356.049528 106.63444 
L 356.294181 106.305907 
L 356.538834 103.813398 
L 356.783487 98.83924 
L 357.02814 98.29078 
L 357.272793 95.521325 
L 357.517446 94.171895 
L 357.762099 90.012283 
L 358.006752 89.34707 
L 358.251405 92.333737 
L 358.496058 93.256889 
L 358.740711 89.955264 
L 359.230017 92.890343 
L 359.47467 96.029058 
L 359.719323 91.326416 
L 359.963976 90.840404 
L 360.208629 92.083943 
L 360.453282 91.30741 
L 360.697935 92.265858 
L 360.942588 89.854804 
L 361.187241 89.797786 
L 361.431894 89.344355 
L 361.9212 85.081567 
L 362.165853 78.771555 
L 362.410506 79.12181 
L 362.899812 81.676767 
L 363.144465 82.594489 
L 363.389118 78.551628 
L 363.633771 77.525301 
L 363.878424 78.576064 
L 364.123077 78.93718 
L 364.36773 75.209277 
L 364.612383 76.126998 
L 364.857036 73.927725 
L 365.101689 79.713713 
L 365.346342 75.98581 
L 365.590995 75.619264 
L 365.835648 72.678755 
L 366.080301 72.442537 
L 366.324954 70.050489 
L 366.569607 66.512646 
L 366.814261 65.86101 
L 367.058914 65.611216 
L 367.303567 66.175967 
L 367.54822 65.814852 
L 367.792873 62.887919 
L 368.037526 61.636234 
L 368.282179 63.90067 
L 368.526832 61.981058 
L 368.771485 61.926755 
L 369.016138 70.60438 
L 369.260791 74.242683 
L 369.505444 69.931022 
L 369.750097 71.103967 
L 369.99475 74.443604 
L 370.239403 68.052137 
L 370.484056 66.026634 
L 370.728709 66.727143 
L 370.973362 64.109737 
L 371.218015 64.362246 
L 371.462668 63.699749 
L 371.707321 66.349737 
L 371.951974 71.019798 
L 372.196627 67.340767 
L 372.930586 77.297228 
L 373.175239 72.480549 
L 373.419892 74.180234 
L 373.909198 65.673664 
L 374.153851 66.30901 
L 374.398504 62.947652 
L 374.643157 64.544161 
L 374.88781 64.223773 
L 375.132463 61.989204 
L 375.377116 58.07667 
L 375.866422 56.922731 
L 376.111075 57.745422 
L 376.355728 54.139701 
L 376.600381 53.889907 
L 376.845034 50.379216 
L 377.089687 52.225519 
L 377.578993 68.033131 
L 377.823646 65.749689 
L 378.068299 65.831143 
L 378.312952 68.266634 
L 378.557605 68.087434 
L 378.802258 66.814028 
L 379.046911 67.47381 
L 379.291564 69.599773 
L 379.536217 76.412089 
L 380.025523 69.249519 
L 380.270176 69.401567 
L 380.514829 70.639677 
L 380.759482 75.421058 
L 381.004135 75.99124 
L 381.248788 77.397689 
L 381.493441 73.702367 
L 381.982747 77.625761 
L 382.2274 79.577955 
L 382.472053 79.371604 
L 382.716706 77.188622 
L 383.206012 69.98261 
L 383.450665 70.62067 
L 383.695318 74.144937 
L 383.939971 73.458004 
L 384.184624 70.289422 
L 384.429277 73.973883 
L 384.67393 70.69941 
L 384.918583 69.44501 
L 385.163236 64.823822 
L 386.141848 72.898683 
L 386.386501 71.989107 
L 386.875807 76.906246 
L 387.12046 81.063143 
L 387.365113 81.386246 
L 387.609766 78.054755 
L 388.099072 75.209277 
L 388.588378 76.363216 
L 388.833031 74.096064 
L 389.322338 67.544404 
L 389.566991 67.161567 
L 389.811644 68.19061 
L 390.30095 64.462707 
L 390.545603 63.916961 
L 391.034909 62.236283 
L 391.524215 68.350804 
L 391.768868 69.35541 
L 392.013521 73.865277 
L 392.258174 71.258731 
L 392.502827 72.070561 
L 392.74748 72.200889 
L 392.992133 37.305761 
L 393.236786 34.617761 
L 393.481439 36.130101 
L 393.726092 36.564525 
L 393.970745 39.133058 
L 394.215398 34.414125 
L 394.215398 34.414125 
" style="fill:none;stroke:#ff7f0e;stroke-linecap:square;stroke-width:1.5;"/>
   </g>
   <g id="patch_3">
    <path d="M 53.328125 288.430125 
L 53.328125 22.318125 
" style="fill:none;stroke:#000000;stroke-linecap:square;stroke-linejoin:miter;stroke-width:0.8;"/>
   </g>
   <g id="patch_4">
    <path d="M 410.448125 288.430125 
L 410.448125 22.318125 
" style="fill:none;stroke:#000000;stroke-linecap:square;stroke-linejoin:miter;stroke-width:0.8;"/>
   </g>
   <g id="patch_5">
    <path d="M 53.328125 288.430125 
L 410.448125 288.430125 
" style="fill:none;stroke:#000000;stroke-linecap:square;stroke-linejoin:miter;stroke-width:0.8;"/>
   </g>
   <g id="patch_6">
    <path d="M 53.328125 22.318125 
L 410.448125 22.318125 
" style="fill:none;stroke:#000000;stroke-linecap:square;stroke-linejoin:miter;stroke-width:0.8;"/>
   </g>
   <g id="text_15">
    <!-- Training: AMZN -->
    <defs>
     <path d="M -0.296875 72.90625 
L 61.375 72.90625 
L 61.375 64.59375 
L 35.5 64.59375 
L 35.5 0 
L 25.59375 0 
L 25.59375 64.59375 
L -0.296875 64.59375 
z
" id="DejaVuSans-84"/>
     <path d="M 54.890625 33.015625 
L 54.890625 0 
L 45.90625 0 
L 45.90625 32.71875 
Q 45.90625 40.484375 42.875 44.328125 
Q 39.84375 48.1875 33.796875 48.1875 
Q 26.515625 48.1875 22.3125 43.546875 
Q 18.109375 38.921875 18.109375 30.90625 
L 18.109375 0 
L 9.078125 0 
L 9.078125 54.6875 
L 18.109375 54.6875 
L 18.109375 46.1875 
Q 21.34375 51.125 25.703125 53.5625 
Q 30.078125 56 35.796875 56 
Q 45.21875 56 50.046875 50.171875 
Q 54.890625 44.34375 54.890625 33.015625 
z
" id="DejaVuSans-110"/>
     <path d="M 45.40625 27.984375 
Q 45.40625 37.75 41.375 43.109375 
Q 37.359375 48.484375 30.078125 48.484375 
Q 22.859375 48.484375 18.828125 43.109375 
Q 14.796875 37.75 14.796875 27.984375 
Q 14.796875 18.265625 18.828125 12.890625 
Q 22.859375 7.515625 30.078125 7.515625 
Q 37.359375 7.515625 41.375 12.890625 
Q 45.40625 18.265625 45.40625 27.984375 
z
M 54.390625 6.78125 
Q 54.390625 -7.171875 48.1875 -13.984375 
Q 42 -20.796875 29.203125 -20.796875 
Q 24.46875 -20.796875 20.265625 -20.09375 
Q 16.0625 -19.390625 12.109375 -17.921875 
L 12.109375 -9.1875 
Q 16.0625 -11.328125 19.921875 -12.34375 
Q 23.78125 -13.375 27.78125 -13.375 
Q 36.625 -13.375 41.015625 -8.765625 
Q 45.40625 -4.15625 45.40625 5.171875 
L 45.40625 9.625 
Q 42.625 4.78125 38.28125 2.390625 
Q 33.9375 0 27.875 0 
Q 17.828125 0 11.671875 7.65625 
Q 5.515625 15.328125 5.515625 27.984375 
Q 5.515625 40.671875 11.671875 48.328125 
Q 17.828125 56 27.875 56 
Q 33.9375 56 38.28125 53.609375 
Q 42.625 51.21875 45.40625 46.390625 
L 45.40625 54.6875 
L 54.390625 54.6875 
z
" id="DejaVuSans-103"/>
     <path d="M 11.71875 12.40625 
L 22.015625 12.40625 
L 22.015625 0 
L 11.71875 0 
z
M 11.71875 51.703125 
L 22.015625 51.703125 
L 22.015625 39.3125 
L 11.71875 39.3125 
z
" id="DejaVuSans-58"/>
     <path d="M 34.1875 63.1875 
L 20.796875 26.90625 
L 47.609375 26.90625 
z
M 28.609375 72.90625 
L 39.796875 72.90625 
L 67.578125 0 
L 57.328125 0 
L 50.6875 18.703125 
L 17.828125 18.703125 
L 11.1875 0 
L 0.78125 0 
z
" id="DejaVuSans-65"/>
     <path d="M 9.8125 72.90625 
L 24.515625 72.90625 
L 43.109375 23.296875 
L 61.8125 72.90625 
L 76.515625 72.90625 
L 76.515625 0 
L 66.890625 0 
L 66.890625 64.015625 
L 48.09375 14.015625 
L 38.1875 14.015625 
L 19.390625 64.015625 
L 19.390625 0 
L 9.8125 0 
z
" id="DejaVuSans-77"/>
     <path d="M 5.609375 72.90625 
L 62.890625 72.90625 
L 62.890625 65.375 
L 16.796875 8.296875 
L 64.015625 8.296875 
L 64.015625 0 
L 4.5 0 
L 4.5 7.515625 
L 50.59375 64.59375 
L 5.609375 64.59375 
z
" id="DejaVuSans-90"/>
     <path d="M 9.8125 72.90625 
L 23.09375 72.90625 
L 55.421875 11.921875 
L 55.421875 72.90625 
L 64.984375 72.90625 
L 64.984375 0 
L 51.703125 0 
L 19.390625 60.984375 
L 19.390625 0 
L 9.8125 0 
z
" id="DejaVuSans-78"/>
    </defs>
    <g transform="translate(186.409063 16.318125)scale(0.12 -0.12)">
     <use xlink:href="#DejaVuSans-84"/>
     <use x="46.333984" xlink:href="#DejaVuSans-114"/>
     <use x="87.447266" xlink:href="#DejaVuSans-97"/>
     <use x="148.726562" xlink:href="#DejaVuSans-105"/>
     <use x="176.509766" xlink:href="#DejaVuSans-110"/>
     <use x="239.888672" xlink:href="#DejaVuSans-105"/>
     <use x="267.671875" xlink:href="#DejaVuSans-110"/>
     <use x="331.050781" xlink:href="#DejaVuSans-103"/>
     <use x="394.527344" xlink:href="#DejaVuSans-58"/>
     <use x="428.21875" xlink:href="#DejaVuSans-32"/>
     <use x="460.005859" xlink:href="#DejaVuSans-65"/>
     <use x="528.414062" xlink:href="#DejaVuSans-77"/>
     <use x="614.693359" xlink:href="#DejaVuSans-90"/>
     <use x="683.199219" xlink:href="#DejaVuSans-78"/>
    </g>
   </g>
   <g id="legend_1">
    <g id="patch_7">
     <path d="M 60.328125 59.674375 
L 144.05625 59.674375 
Q 146.05625 59.674375 146.05625 57.674375 
L 146.05625 29.318125 
Q 146.05625 27.318125 144.05625 27.318125 
L 60.328125 27.318125 
Q 58.328125 27.318125 58.328125 29.318125 
L 58.328125 57.674375 
Q 58.328125 59.674375 60.328125 59.674375 
z
" style="fill:#ffffff;opacity:0.8;stroke:#cccccc;stroke-linejoin:miter;"/>
    </g>
    <g id="line2d_27">
     <path d="M 62.328125 35.416562 
L 82.328125 35.416562 
" style="fill:none;stroke:#1f77b4;stroke-linecap:square;stroke-width:1.5;"/>
    </g>
    <g id="line2d_28"/>
    <g id="text_16">
     <!-- Predicted -->
     <defs>
      <path d="M 45.40625 46.390625 
L 45.40625 75.984375 
L 54.390625 75.984375 
L 54.390625 0 
L 45.40625 0 
L 45.40625 8.203125 
Q 42.578125 3.328125 38.25 0.953125 
Q 33.9375 -1.421875 27.875 -1.421875 
Q 17.96875 -1.421875 11.734375 6.484375 
Q 5.515625 14.40625 5.515625 27.296875 
Q 5.515625 40.1875 11.734375 48.09375 
Q 17.96875 56 27.875 56 
Q 33.9375 56 38.25 53.625 
Q 42.578125 51.265625 45.40625 46.390625 
z
M 14.796875 27.296875 
Q 14.796875 17.390625 18.875 11.75 
Q 22.953125 6.109375 30.078125 6.109375 
Q 37.203125 6.109375 41.296875 11.75 
Q 45.40625 17.390625 45.40625 27.296875 
Q 45.40625 37.203125 41.296875 42.84375 
Q 37.203125 48.484375 30.078125 48.484375 
Q 22.953125 48.484375 18.875 42.84375 
Q 14.796875 37.203125 14.796875 27.296875 
z
" id="DejaVuSans-100"/>
      <path d="M 18.3125 70.21875 
L 18.3125 54.6875 
L 36.8125 54.6875 
L 36.8125 47.703125 
L 18.3125 47.703125 
L 18.3125 18.015625 
Q 18.3125 11.328125 20.140625 9.421875 
Q 21.96875 7.515625 27.59375 7.515625 
L 36.8125 7.515625 
L 36.8125 0 
L 27.59375 0 
Q 17.1875 0 13.234375 3.875 
Q 9.28125 7.765625 9.28125 18.015625 
L 9.28125 47.703125 
L 2.6875 47.703125 
L 2.6875 54.6875 
L 9.28125 54.6875 
L 9.28125 70.21875 
z
" id="DejaVuSans-116"/>
     </defs>
     <g transform="translate(90.328125 38.916562)scale(0.1 -0.1)">
      <use xlink:href="#DejaVuSans-80"/>
      <use x="58.552734" xlink:href="#DejaVuSans-114"/>
      <use x="97.416016" xlink:href="#DejaVuSans-101"/>
      <use x="158.939453" xlink:href="#DejaVuSans-100"/>
      <use x="222.416016" xlink:href="#DejaVuSans-105"/>
      <use x="250.199219" xlink:href="#DejaVuSans-99"/>
      <use x="305.179688" xlink:href="#DejaVuSans-116"/>
      <use x="344.388672" xlink:href="#DejaVuSans-101"/>
      <use x="405.912109" xlink:href="#DejaVuSans-100"/>
     </g>
    </g>
    <g id="line2d_29">
     <path d="M 62.328125 50.094687 
L 82.328125 50.094687 
" style="fill:none;stroke:#ff7f0e;stroke-linecap:square;stroke-width:1.5;"/>
    </g>
    <g id="line2d_30"/>
    <g id="text_17">
     <!-- True value -->
     <defs>
      <path d="M 8.5 21.578125 
L 8.5 54.6875 
L 17.484375 54.6875 
L 17.484375 21.921875 
Q 17.484375 14.15625 20.5 10.265625 
Q 23.53125 6.390625 29.59375 6.390625 
Q 36.859375 6.390625 41.078125 11.03125 
Q 45.3125 15.671875 45.3125 23.6875 
L 45.3125 54.6875 
L 54.296875 54.6875 
L 54.296875 0 
L 45.3125 0 
L 45.3125 8.40625 
Q 42.046875 3.421875 37.71875 1 
Q 33.40625 -1.421875 27.6875 -1.421875 
Q 18.265625 -1.421875 13.375 4.4375 
Q 8.5 10.296875 8.5 21.578125 
z
M 31.109375 56 
z
" id="DejaVuSans-117"/>
      <path d="M 2.984375 54.6875 
L 12.5 54.6875 
L 29.59375 8.796875 
L 46.6875 54.6875 
L 56.203125 54.6875 
L 35.6875 0 
L 23.484375 0 
z
" id="DejaVuSans-118"/>
      <path d="M 9.421875 75.984375 
L 18.40625 75.984375 
L 18.40625 0 
L 9.421875 0 
z
" id="DejaVuSans-108"/>
     </defs>
     <g transform="translate(90.328125 53.594687)scale(0.1 -0.1)">
      <use xlink:href="#DejaVuSans-84"/>
      <use x="46.333984" xlink:href="#DejaVuSans-114"/>
      <use x="87.447266" xlink:href="#DejaVuSans-117"/>
      <use x="150.826172" xlink:href="#DejaVuSans-101"/>
      <use x="212.349609" xlink:href="#DejaVuSans-32"/>
      <use x="244.136719" xlink:href="#DejaVuSans-118"/>
      <use x="303.316406" xlink:href="#DejaVuSans-97"/>
      <use x="364.595703" xlink:href="#DejaVuSans-108"/>
      <use x="392.378906" xlink:href="#DejaVuSans-117"/>
      <use x="455.757812" xlink:href="#DejaVuSans-101"/>
     </g>
    </g>
   </g>
  </g>
 </g>
 <defs>
  <clipPath id="p603c57037d">
   <rect height="266.112" width="357.12" x="53.328125" y="22.318125"/>
  </clipPath>
 </defs>
</svg>
