<?xml version="1.0" encoding="utf-8" standalone="no"?>
<!DOCTYPE svg PUBLIC "-//W3C//DTD SVG 1.1//EN"
  "http://www.w3.org/Graphics/SVG/1.1/DTD/svg11.dtd">
<!-- Created with matplotlib (https://matplotlib.org/) -->
<svg height="325.986375pt" version="1.1" viewBox="0 0 411.285625 325.986375" width="411.285625pt" xmlns="http://www.w3.org/2000/svg" xmlns:xlink="http://www.w3.org/1999/xlink">
 <defs>
  <style type="text/css">
*{stroke-linecap:butt;stroke-linejoin:round;}
  </style>
 </defs>
 <g id="figure_1">
  <g id="patch_1">
   <path d="M 0 325.986375 
L 411.285625 325.986375 
L 411.285625 0 
L 0 0 
z
" style="fill:#ffffff;"/>
  </g>
  <g id="axes_1">
   <g id="patch_2">
    <path d="M 46.965625 288.430125 
L 404.085625 288.430125 
L 404.085625 22.318125 
L 46.965625 22.318125 
z
" style="fill:#ffffff;"/>
   </g>
   <g id="matplotlib.axis_1">
    <g id="xtick_1">
     <g id="line2d_1">
      <path clip-path="url(#p4f2d9ecc06)" d="M 63.198352 288.430125 
L 63.198352 22.318125 
" style="fill:none;stroke:#b0b0b0;stroke-dasharray:2.96,1.28;stroke-dashoffset:0;stroke-width:0.8;"/>
     </g>
     <g id="line2d_2">
      <defs>
       <path d="M 0 0 
L 0 3.5 
" id="m0193d73208" style="stroke:#000000;stroke-width:0.8;"/>
      </defs>
      <g>
       <use style="stroke:#000000;stroke-width:0.8;" x="63.198352" xlink:href="#m0193d73208" y="288.430125"/>
      </g>
     </g>
     <g id="text_1">
      <!-- 0 -->
      <defs>
       <path d="M 31.78125 66.40625 
Q 24.171875 66.40625 20.328125 58.90625 
Q 16.5 51.421875 16.5 36.375 
Q 16.5 21.390625 20.328125 13.890625 
Q 24.171875 6.390625 31.78125 6.390625 
Q 39.453125 6.390625 43.28125 13.890625 
Q 47.125 21.390625 47.125 36.375 
Q 47.125 51.421875 43.28125 58.90625 
Q 39.453125 66.40625 31.78125 66.40625 
z
M 31.78125 74.21875 
Q 44.046875 74.21875 50.515625 64.515625 
Q 56.984375 54.828125 56.984375 36.375 
Q 56.984375 17.96875 50.515625 8.265625 
Q 44.046875 -1.421875 31.78125 -1.421875 
Q 19.53125 -1.421875 13.0625 8.265625 
Q 6.59375 17.96875 6.59375 36.375 
Q 6.59375 54.828125 13.0625 64.515625 
Q 19.53125 74.21875 31.78125 74.21875 
z
" id="DejaVuSans-48"/>
      </defs>
      <g transform="translate(60.017102 303.028562)scale(0.1 -0.1)">
       <use xlink:href="#DejaVuSans-48"/>
      </g>
     </g>
    </g>
    <g id="xtick_2">
     <g id="line2d_3">
      <path clip-path="url(#p4f2d9ecc06)" d="M 112.128954 288.430125 
L 112.128954 22.318125 
" style="fill:none;stroke:#b0b0b0;stroke-dasharray:2.96,1.28;stroke-dashoffset:0;stroke-width:0.8;"/>
     </g>
     <g id="line2d_4">
      <g>
       <use style="stroke:#000000;stroke-width:0.8;" x="112.128954" xlink:href="#m0193d73208" y="288.430125"/>
      </g>
     </g>
     <g id="text_2">
      <!-- 200 -->
      <defs>
       <path d="M 19.1875 8.296875 
L 53.609375 8.296875 
L 53.609375 0 
L 7.328125 0 
L 7.328125 8.296875 
Q 12.9375 14.109375 22.625 23.890625 
Q 32.328125 33.6875 34.8125 36.53125 
Q 39.546875 41.84375 41.421875 45.53125 
Q 43.3125 49.21875 43.3125 52.78125 
Q 43.3125 58.59375 39.234375 62.25 
Q 35.15625 65.921875 28.609375 65.921875 
Q 23.96875 65.921875 18.8125 64.3125 
Q 13.671875 62.703125 7.8125 59.421875 
L 7.8125 69.390625 
Q 13.765625 71.78125 18.9375 73 
Q 24.125 74.21875 28.421875 74.21875 
Q 39.75 74.21875 46.484375 68.546875 
Q 53.21875 62.890625 53.21875 53.421875 
Q 53.21875 48.921875 51.53125 44.890625 
Q 49.859375 40.875 45.40625 35.40625 
Q 44.1875 33.984375 37.640625 27.21875 
Q 31.109375 20.453125 19.1875 8.296875 
z
" id="DejaVuSans-50"/>
      </defs>
      <g transform="translate(102.585204 303.028562)scale(0.1 -0.1)">
       <use xlink:href="#DejaVuSans-50"/>
       <use x="63.623047" xlink:href="#DejaVuSans-48"/>
       <use x="127.246094" xlink:href="#DejaVuSans-48"/>
      </g>
     </g>
    </g>
    <g id="xtick_3">
     <g id="line2d_5">
      <path clip-path="url(#p4f2d9ecc06)" d="M 161.059557 288.430125 
L 161.059557 22.318125 
" style="fill:none;stroke:#b0b0b0;stroke-dasharray:2.96,1.28;stroke-dashoffset:0;stroke-width:0.8;"/>
     </g>
     <g id="line2d_6">
      <g>
       <use style="stroke:#000000;stroke-width:0.8;" x="161.059557" xlink:href="#m0193d73208" y="288.430125"/>
      </g>
     </g>
     <g id="text_3">
      <!-- 400 -->
      <defs>
       <path d="M 37.796875 64.3125 
L 12.890625 25.390625 
L 37.796875 25.390625 
z
M 35.203125 72.90625 
L 47.609375 72.90625 
L 47.609375 25.390625 
L 58.015625 25.390625 
L 58.015625 17.1875 
L 47.609375 17.1875 
L 47.609375 0 
L 37.796875 0 
L 37.796875 17.1875 
L 4.890625 17.1875 
L 4.890625 26.703125 
z
" id="DejaVuSans-52"/>
      </defs>
      <g transform="translate(151.515807 303.028562)scale(0.1 -0.1)">
       <use xlink:href="#DejaVuSans-52"/>
       <use x="63.623047" xlink:href="#DejaVuSans-48"/>
       <use x="127.246094" xlink:href="#DejaVuSans-48"/>
      </g>
     </g>
    </g>
    <g id="xtick_4">
     <g id="line2d_7">
      <path clip-path="url(#p4f2d9ecc06)" d="M 209.990159 288.430125 
L 209.990159 22.318125 
" style="fill:none;stroke:#b0b0b0;stroke-dasharray:2.96,1.28;stroke-dashoffset:0;stroke-width:0.8;"/>
     </g>
     <g id="line2d_8">
      <g>
       <use style="stroke:#000000;stroke-width:0.8;" x="209.990159" xlink:href="#m0193d73208" y="288.430125"/>
      </g>
     </g>
     <g id="text_4">
      <!-- 600 -->
      <defs>
       <path d="M 33.015625 40.375 
Q 26.375 40.375 22.484375 35.828125 
Q 18.609375 31.296875 18.609375 23.390625 
Q 18.609375 15.53125 22.484375 10.953125 
Q 26.375 6.390625 33.015625 6.390625 
Q 39.65625 6.390625 43.53125 10.953125 
Q 47.40625 15.53125 47.40625 23.390625 
Q 47.40625 31.296875 43.53125 35.828125 
Q 39.65625 40.375 33.015625 40.375 
z
M 52.59375 71.296875 
L 52.59375 62.3125 
Q 48.875 64.0625 45.09375 64.984375 
Q 41.3125 65.921875 37.59375 65.921875 
Q 27.828125 65.921875 22.671875 59.328125 
Q 17.53125 52.734375 16.796875 39.40625 
Q 19.671875 43.65625 24.015625 45.921875 
Q 28.375 48.1875 33.59375 48.1875 
Q 44.578125 48.1875 50.953125 41.515625 
Q 57.328125 34.859375 57.328125 23.390625 
Q 57.328125 12.15625 50.6875 5.359375 
Q 44.046875 -1.421875 33.015625 -1.421875 
Q 20.359375 -1.421875 13.671875 8.265625 
Q 6.984375 17.96875 6.984375 36.375 
Q 6.984375 53.65625 15.1875 63.9375 
Q 23.390625 74.21875 37.203125 74.21875 
Q 40.921875 74.21875 44.703125 73.484375 
Q 48.484375 72.75 52.59375 71.296875 
z
" id="DejaVuSans-54"/>
      </defs>
      <g transform="translate(200.446409 303.028562)scale(0.1 -0.1)">
       <use xlink:href="#DejaVuSans-54"/>
       <use x="63.623047" xlink:href="#DejaVuSans-48"/>
       <use x="127.246094" xlink:href="#DejaVuSans-48"/>
      </g>
     </g>
    </g>
    <g id="xtick_5">
     <g id="line2d_9">
      <path clip-path="url(#p4f2d9ecc06)" d="M 258.920761 288.430125 
L 258.920761 22.318125 
" style="fill:none;stroke:#b0b0b0;stroke-dasharray:2.96,1.28;stroke-dashoffset:0;stroke-width:0.8;"/>
     </g>
     <g id="line2d_10">
      <g>
       <use style="stroke:#000000;stroke-width:0.8;" x="258.920761" xlink:href="#m0193d73208" y="288.430125"/>
      </g>
     </g>
     <g id="text_5">
      <!-- 800 -->
      <defs>
       <path d="M 31.78125 34.625 
Q 24.75 34.625 20.71875 30.859375 
Q 16.703125 27.09375 16.703125 20.515625 
Q 16.703125 13.921875 20.71875 10.15625 
Q 24.75 6.390625 31.78125 6.390625 
Q 38.8125 6.390625 42.859375 10.171875 
Q 46.921875 13.96875 46.921875 20.515625 
Q 46.921875 27.09375 42.890625 30.859375 
Q 38.875 34.625 31.78125 34.625 
z
M 21.921875 38.8125 
Q 15.578125 40.375 12.03125 44.71875 
Q 8.5 49.078125 8.5 55.328125 
Q 8.5 64.0625 14.71875 69.140625 
Q 20.953125 74.21875 31.78125 74.21875 
Q 42.671875 74.21875 48.875 69.140625 
Q 55.078125 64.0625 55.078125 55.328125 
Q 55.078125 49.078125 51.53125 44.71875 
Q 48 40.375 41.703125 38.8125 
Q 48.828125 37.15625 52.796875 32.3125 
Q 56.78125 27.484375 56.78125 20.515625 
Q 56.78125 9.90625 50.3125 4.234375 
Q 43.84375 -1.421875 31.78125 -1.421875 
Q 19.734375 -1.421875 13.25 4.234375 
Q 6.78125 9.90625 6.78125 20.515625 
Q 6.78125 27.484375 10.78125 32.3125 
Q 14.796875 37.15625 21.921875 38.8125 
z
M 18.3125 54.390625 
Q 18.3125 48.734375 21.84375 45.5625 
Q 25.390625 42.390625 31.78125 42.390625 
Q 38.140625 42.390625 41.71875 45.5625 
Q 45.3125 48.734375 45.3125 54.390625 
Q 45.3125 60.0625 41.71875 63.234375 
Q 38.140625 66.40625 31.78125 66.40625 
Q 25.390625 66.40625 21.84375 63.234375 
Q 18.3125 60.0625 18.3125 54.390625 
z
" id="DejaVuSans-56"/>
      </defs>
      <g transform="translate(249.377011 303.028562)scale(0.1 -0.1)">
       <use xlink:href="#DejaVuSans-56"/>
       <use x="63.623047" xlink:href="#DejaVuSans-48"/>
       <use x="127.246094" xlink:href="#DejaVuSans-48"/>
      </g>
     </g>
    </g>
    <g id="xtick_6">
     <g id="line2d_11">
      <path clip-path="url(#p4f2d9ecc06)" d="M 307.851363 288.430125 
L 307.851363 22.318125 
" style="fill:none;stroke:#b0b0b0;stroke-dasharray:2.96,1.28;stroke-dashoffset:0;stroke-width:0.8;"/>
     </g>
     <g id="line2d_12">
      <g>
       <use style="stroke:#000000;stroke-width:0.8;" x="307.851363" xlink:href="#m0193d73208" y="288.430125"/>
      </g>
     </g>
     <g id="text_6">
      <!-- 1000 -->
      <defs>
       <path d="M 12.40625 8.296875 
L 28.515625 8.296875 
L 28.515625 63.921875 
L 10.984375 60.40625 
L 10.984375 69.390625 
L 28.421875 72.90625 
L 38.28125 72.90625 
L 38.28125 8.296875 
L 54.390625 8.296875 
L 54.390625 0 
L 12.40625 0 
z
" id="DejaVuSans-49"/>
      </defs>
      <g transform="translate(295.126363 303.028562)scale(0.1 -0.1)">
       <use xlink:href="#DejaVuSans-49"/>
       <use x="63.623047" xlink:href="#DejaVuSans-48"/>
       <use x="127.246094" xlink:href="#DejaVuSans-48"/>
       <use x="190.869141" xlink:href="#DejaVuSans-48"/>
      </g>
     </g>
    </g>
    <g id="xtick_7">
     <g id="line2d_13">
      <path clip-path="url(#p4f2d9ecc06)" d="M 356.781965 288.430125 
L 356.781965 22.318125 
" style="fill:none;stroke:#b0b0b0;stroke-dasharray:2.96,1.28;stroke-dashoffset:0;stroke-width:0.8;"/>
     </g>
     <g id="line2d_14">
      <g>
       <use style="stroke:#000000;stroke-width:0.8;" x="356.781965" xlink:href="#m0193d73208" y="288.430125"/>
      </g>
     </g>
     <g id="text_7">
      <!-- 1200 -->
      <g transform="translate(344.056965 303.028562)scale(0.1 -0.1)">
       <use xlink:href="#DejaVuSans-49"/>
       <use x="63.623047" xlink:href="#DejaVuSans-50"/>
       <use x="127.246094" xlink:href="#DejaVuSans-48"/>
       <use x="190.869141" xlink:href="#DejaVuSans-48"/>
      </g>
     </g>
    </g>
    <g id="text_8">
     <!-- Day -->
     <defs>
      <path d="M 19.671875 64.796875 
L 19.671875 8.109375 
L 31.59375 8.109375 
Q 46.6875 8.109375 53.6875 14.9375 
Q 60.6875 21.78125 60.6875 36.53125 
Q 60.6875 51.171875 53.6875 57.984375 
Q 46.6875 64.796875 31.59375 64.796875 
z
M 9.8125 72.90625 
L 30.078125 72.90625 
Q 51.265625 72.90625 61.171875 64.09375 
Q 71.09375 55.28125 71.09375 36.53125 
Q 71.09375 17.671875 61.125 8.828125 
Q 51.171875 0 30.078125 0 
L 9.8125 0 
z
" id="DejaVuSans-68"/>
      <path d="M 34.28125 27.484375 
Q 23.390625 27.484375 19.1875 25 
Q 14.984375 22.515625 14.984375 16.5 
Q 14.984375 11.71875 18.140625 8.90625 
Q 21.296875 6.109375 26.703125 6.109375 
Q 34.1875 6.109375 38.703125 11.40625 
Q 43.21875 16.703125 43.21875 25.484375 
L 43.21875 27.484375 
z
M 52.203125 31.203125 
L 52.203125 0 
L 43.21875 0 
L 43.21875 8.296875 
Q 40.140625 3.328125 35.546875 0.953125 
Q 30.953125 -1.421875 24.3125 -1.421875 
Q 15.921875 -1.421875 10.953125 3.296875 
Q 6 8.015625 6 15.921875 
Q 6 25.140625 12.171875 29.828125 
Q 18.359375 34.515625 30.609375 34.515625 
L 43.21875 34.515625 
L 43.21875 35.40625 
Q 43.21875 41.609375 39.140625 45 
Q 35.0625 48.390625 27.6875 48.390625 
Q 23 48.390625 18.546875 47.265625 
Q 14.109375 46.140625 10.015625 43.890625 
L 10.015625 52.203125 
Q 14.9375 54.109375 19.578125 55.046875 
Q 24.21875 56 28.609375 56 
Q 40.484375 56 46.34375 49.84375 
Q 52.203125 43.703125 52.203125 31.203125 
z
" id="DejaVuSans-97"/>
      <path d="M 32.171875 -5.078125 
Q 28.375 -14.84375 24.75 -17.8125 
Q 21.140625 -20.796875 15.09375 -20.796875 
L 7.90625 -20.796875 
L 7.90625 -13.28125 
L 13.1875 -13.28125 
Q 16.890625 -13.28125 18.9375 -11.515625 
Q 21 -9.765625 23.484375 -3.21875 
L 25.09375 0.875 
L 2.984375 54.6875 
L 12.5 54.6875 
L 29.59375 11.921875 
L 46.6875 54.6875 
L 56.203125 54.6875 
z
" id="DejaVuSans-121"/>
     </defs>
     <g transform="translate(215.652188 316.706687)scale(0.1 -0.1)">
      <use xlink:href="#DejaVuSans-68"/>
      <use x="77.001953" xlink:href="#DejaVuSans-97"/>
      <use x="138.28125" xlink:href="#DejaVuSans-121"/>
     </g>
    </g>
   </g>
   <g id="matplotlib.axis_2">
    <g id="ytick_1">
     <g id="line2d_15">
      <path clip-path="url(#p4f2d9ecc06)" d="M 46.965625 286.659081 
L 404.085625 286.659081 
" style="fill:none;stroke:#b0b0b0;stroke-dasharray:2.96,1.28;stroke-dashoffset:0;stroke-width:0.8;"/>
     </g>
     <g id="line2d_16">
      <defs>
       <path d="M 0 0 
L -3.5 0 
" id="m9727f26a48" style="stroke:#000000;stroke-width:0.8;"/>
      </defs>
      <g>
       <use style="stroke:#000000;stroke-width:0.8;" x="46.965625" xlink:href="#m9727f26a48" y="286.659081"/>
      </g>
     </g>
     <g id="text_9">
      <!-- 75 -->
      <defs>
       <path d="M 8.203125 72.90625 
L 55.078125 72.90625 
L 55.078125 68.703125 
L 28.609375 0 
L 18.3125 0 
L 43.21875 64.59375 
L 8.203125 64.59375 
z
" id="DejaVuSans-55"/>
       <path d="M 10.796875 72.90625 
L 49.515625 72.90625 
L 49.515625 64.59375 
L 19.828125 64.59375 
L 19.828125 46.734375 
Q 21.96875 47.46875 24.109375 47.828125 
Q 26.265625 48.1875 28.421875 48.1875 
Q 40.625 48.1875 47.75 41.5 
Q 54.890625 34.8125 54.890625 23.390625 
Q 54.890625 11.625 47.5625 5.09375 
Q 40.234375 -1.421875 26.90625 -1.421875 
Q 22.3125 -1.421875 17.546875 -0.640625 
Q 12.796875 0.140625 7.71875 1.703125 
L 7.71875 11.625 
Q 12.109375 9.234375 16.796875 8.0625 
Q 21.484375 6.890625 26.703125 6.890625 
Q 35.15625 6.890625 40.078125 11.328125 
Q 45.015625 15.765625 45.015625 23.390625 
Q 45.015625 31 40.078125 35.4375 
Q 35.15625 39.890625 26.703125 39.890625 
Q 22.75 39.890625 18.8125 39.015625 
Q 14.890625 38.140625 10.796875 36.28125 
z
" id="DejaVuSans-53"/>
      </defs>
      <g transform="translate(27.240625 290.458299)scale(0.1 -0.1)">
       <use xlink:href="#DejaVuSans-55"/>
       <use x="63.623047" xlink:href="#DejaVuSans-53"/>
      </g>
     </g>
    </g>
    <g id="ytick_2">
     <g id="line2d_17">
      <path clip-path="url(#p4f2d9ecc06)" d="M 46.965625 254.922171 
L 404.085625 254.922171 
" style="fill:none;stroke:#b0b0b0;stroke-dasharray:2.96,1.28;stroke-dashoffset:0;stroke-width:0.8;"/>
     </g>
     <g id="line2d_18">
      <g>
       <use style="stroke:#000000;stroke-width:0.8;" x="46.965625" xlink:href="#m9727f26a48" y="254.922171"/>
      </g>
     </g>
     <g id="text_10">
      <!-- 100 -->
      <g transform="translate(20.878125 258.72139)scale(0.1 -0.1)">
       <use xlink:href="#DejaVuSans-49"/>
       <use x="63.623047" xlink:href="#DejaVuSans-48"/>
       <use x="127.246094" xlink:href="#DejaVuSans-48"/>
      </g>
     </g>
    </g>
    <g id="ytick_3">
     <g id="line2d_19">
      <path clip-path="url(#p4f2d9ecc06)" d="M 46.965625 223.185262 
L 404.085625 223.185262 
" style="fill:none;stroke:#b0b0b0;stroke-dasharray:2.96,1.28;stroke-dashoffset:0;stroke-width:0.8;"/>
     </g>
     <g id="line2d_20">
      <g>
       <use style="stroke:#000000;stroke-width:0.8;" x="46.965625" xlink:href="#m9727f26a48" y="223.185262"/>
      </g>
     </g>
     <g id="text_11">
      <!-- 125 -->
      <g transform="translate(20.878125 226.984481)scale(0.1 -0.1)">
       <use xlink:href="#DejaVuSans-49"/>
       <use x="63.623047" xlink:href="#DejaVuSans-50"/>
       <use x="127.246094" xlink:href="#DejaVuSans-53"/>
      </g>
     </g>
    </g>
    <g id="ytick_4">
     <g id="line2d_21">
      <path clip-path="url(#p4f2d9ecc06)" d="M 46.965625 191.448353 
L 404.085625 191.448353 
" style="fill:none;stroke:#b0b0b0;stroke-dasharray:2.96,1.28;stroke-dashoffset:0;stroke-width:0.8;"/>
     </g>
     <g id="line2d_22">
      <g>
       <use style="stroke:#000000;stroke-width:0.8;" x="46.965625" xlink:href="#m9727f26a48" y="191.448353"/>
      </g>
     </g>
     <g id="text_12">
      <!-- 150 -->
      <g transform="translate(20.878125 195.247571)scale(0.1 -0.1)">
       <use xlink:href="#DejaVuSans-49"/>
       <use x="63.623047" xlink:href="#DejaVuSans-53"/>
       <use x="127.246094" xlink:href="#DejaVuSans-48"/>
      </g>
     </g>
    </g>
    <g id="ytick_5">
     <g id="line2d_23">
      <path clip-path="url(#p4f2d9ecc06)" d="M 46.965625 159.711443 
L 404.085625 159.711443 
" style="fill:none;stroke:#b0b0b0;stroke-dasharray:2.96,1.28;stroke-dashoffset:0;stroke-width:0.8;"/>
     </g>
     <g id="line2d_24">
      <g>
       <use style="stroke:#000000;stroke-width:0.8;" x="46.965625" xlink:href="#m9727f26a48" y="159.711443"/>
      </g>
     </g>
     <g id="text_13">
      <!-- 175 -->
      <g transform="translate(20.878125 163.510662)scale(0.1 -0.1)">
       <use xlink:href="#DejaVuSans-49"/>
       <use x="63.623047" xlink:href="#DejaVuSans-55"/>
       <use x="127.246094" xlink:href="#DejaVuSans-53"/>
      </g>
     </g>
    </g>
    <g id="ytick_6">
     <g id="line2d_25">
      <path clip-path="url(#p4f2d9ecc06)" d="M 46.965625 127.974534 
L 404.085625 127.974534 
" style="fill:none;stroke:#b0b0b0;stroke-dasharray:2.96,1.28;stroke-dashoffset:0;stroke-width:0.8;"/>
     </g>
     <g id="line2d_26">
      <g>
       <use style="stroke:#000000;stroke-width:0.8;" x="46.965625" xlink:href="#m9727f26a48" y="127.974534"/>
      </g>
     </g>
     <g id="text_14">
      <!-- 200 -->
      <g transform="translate(20.878125 131.773753)scale(0.1 -0.1)">
       <use xlink:href="#DejaVuSans-50"/>
       <use x="63.623047" xlink:href="#DejaVuSans-48"/>
       <use x="127.246094" xlink:href="#DejaVuSans-48"/>
      </g>
     </g>
    </g>
    <g id="ytick_7">
     <g id="line2d_27">
      <path clip-path="url(#p4f2d9ecc06)" d="M 46.965625 96.237624 
L 404.085625 96.237624 
" style="fill:none;stroke:#b0b0b0;stroke-dasharray:2.96,1.28;stroke-dashoffset:0;stroke-width:0.8;"/>
     </g>
     <g id="line2d_28">
      <g>
       <use style="stroke:#000000;stroke-width:0.8;" x="46.965625" xlink:href="#m9727f26a48" y="96.237624"/>
      </g>
     </g>
     <g id="text_15">
      <!-- 225 -->
      <g transform="translate(20.878125 100.036843)scale(0.1 -0.1)">
       <use xlink:href="#DejaVuSans-50"/>
       <use x="63.623047" xlink:href="#DejaVuSans-50"/>
       <use x="127.246094" xlink:href="#DejaVuSans-53"/>
      </g>
     </g>
    </g>
    <g id="ytick_8">
     <g id="line2d_29">
      <path clip-path="url(#p4f2d9ecc06)" d="M 46.965625 64.500715 
L 404.085625 64.500715 
" style="fill:none;stroke:#b0b0b0;stroke-dasharray:2.96,1.28;stroke-dashoffset:0;stroke-width:0.8;"/>
     </g>
     <g id="line2d_30">
      <g>
       <use style="stroke:#000000;stroke-width:0.8;" x="46.965625" xlink:href="#m9727f26a48" y="64.500715"/>
      </g>
     </g>
     <g id="text_16">
      <!-- 250 -->
      <g transform="translate(20.878125 68.299934)scale(0.1 -0.1)">
       <use xlink:href="#DejaVuSans-50"/>
       <use x="63.623047" xlink:href="#DejaVuSans-53"/>
       <use x="127.246094" xlink:href="#DejaVuSans-48"/>
      </g>
     </g>
    </g>
    <g id="ytick_9">
     <g id="line2d_31">
      <path clip-path="url(#p4f2d9ecc06)" d="M 46.965625 32.763806 
L 404.085625 32.763806 
" style="fill:none;stroke:#b0b0b0;stroke-dasharray:2.96,1.28;stroke-dashoffset:0;stroke-width:0.8;"/>
     </g>
     <g id="line2d_32">
      <g>
       <use style="stroke:#000000;stroke-width:0.8;" x="46.965625" xlink:href="#m9727f26a48" y="32.763806"/>
      </g>
     </g>
     <g id="text_17">
      <!-- 275 -->
      <g transform="translate(20.878125 36.563024)scale(0.1 -0.1)">
       <use xlink:href="#DejaVuSans-50"/>
       <use x="63.623047" xlink:href="#DejaVuSans-55"/>
       <use x="127.246094" xlink:href="#DejaVuSans-53"/>
      </g>
     </g>
    </g>
    <g id="text_18">
     <!-- Price $ -->
     <defs>
      <path d="M 19.671875 64.796875 
L 19.671875 37.40625 
L 32.078125 37.40625 
Q 38.96875 37.40625 42.71875 40.96875 
Q 46.484375 44.53125 46.484375 51.125 
Q 46.484375 57.671875 42.71875 61.234375 
Q 38.96875 64.796875 32.078125 64.796875 
z
M 9.8125 72.90625 
L 32.078125 72.90625 
Q 44.34375 72.90625 50.609375 67.359375 
Q 56.890625 61.8125 56.890625 51.125 
Q 56.890625 40.328125 50.609375 34.8125 
Q 44.34375 29.296875 32.078125 29.296875 
L 19.671875 29.296875 
L 19.671875 0 
L 9.8125 0 
z
" id="DejaVuSans-80"/>
      <path d="M 41.109375 46.296875 
Q 39.59375 47.171875 37.8125 47.578125 
Q 36.03125 48 33.890625 48 
Q 26.265625 48 22.1875 43.046875 
Q 18.109375 38.09375 18.109375 28.8125 
L 18.109375 0 
L 9.078125 0 
L 9.078125 54.6875 
L 18.109375 54.6875 
L 18.109375 46.1875 
Q 20.953125 51.171875 25.484375 53.578125 
Q 30.03125 56 36.53125 56 
Q 37.453125 56 38.578125 55.875 
Q 39.703125 55.765625 41.0625 55.515625 
z
" id="DejaVuSans-114"/>
      <path d="M 9.421875 54.6875 
L 18.40625 54.6875 
L 18.40625 0 
L 9.421875 0 
z
M 9.421875 75.984375 
L 18.40625 75.984375 
L 18.40625 64.59375 
L 9.421875 64.59375 
z
" id="DejaVuSans-105"/>
      <path d="M 48.78125 52.59375 
L 48.78125 44.1875 
Q 44.96875 46.296875 41.140625 47.34375 
Q 37.3125 48.390625 33.40625 48.390625 
Q 24.65625 48.390625 19.8125 42.84375 
Q 14.984375 37.3125 14.984375 27.296875 
Q 14.984375 17.28125 19.8125 11.734375 
Q 24.65625 6.203125 33.40625 6.203125 
Q 37.3125 6.203125 41.140625 7.25 
Q 44.96875 8.296875 48.78125 10.40625 
L 48.78125 2.09375 
Q 45.015625 0.34375 40.984375 -0.53125 
Q 36.96875 -1.421875 32.421875 -1.421875 
Q 20.0625 -1.421875 12.78125 6.34375 
Q 5.515625 14.109375 5.515625 27.296875 
Q 5.515625 40.671875 12.859375 48.328125 
Q 20.21875 56 33.015625 56 
Q 37.15625 56 41.109375 55.140625 
Q 45.0625 54.296875 48.78125 52.59375 
z
" id="DejaVuSans-99"/>
      <path d="M 56.203125 29.59375 
L 56.203125 25.203125 
L 14.890625 25.203125 
Q 15.484375 15.921875 20.484375 11.0625 
Q 25.484375 6.203125 34.421875 6.203125 
Q 39.59375 6.203125 44.453125 7.46875 
Q 49.3125 8.734375 54.109375 11.28125 
L 54.109375 2.78125 
Q 49.265625 0.734375 44.1875 -0.34375 
Q 39.109375 -1.421875 33.890625 -1.421875 
Q 20.796875 -1.421875 13.15625 6.1875 
Q 5.515625 13.8125 5.515625 26.8125 
Q 5.515625 40.234375 12.765625 48.109375 
Q 20.015625 56 32.328125 56 
Q 43.359375 56 49.78125 48.890625 
Q 56.203125 41.796875 56.203125 29.59375 
z
M 47.21875 32.234375 
Q 47.125 39.59375 43.09375 43.984375 
Q 39.0625 48.390625 32.421875 48.390625 
Q 24.90625 48.390625 20.390625 44.140625 
Q 15.875 39.890625 15.1875 32.171875 
z
" id="DejaVuSans-101"/>
      <path id="DejaVuSans-32"/>
      <path d="M 33.796875 -14.703125 
L 28.90625 -14.703125 
L 28.859375 0 
Q 23.734375 0.09375 18.609375 1.1875 
Q 13.484375 2.296875 8.296875 4.5 
L 8.296875 13.28125 
Q 13.28125 10.15625 18.375 8.5625 
Q 23.484375 6.984375 28.90625 6.9375 
L 28.90625 29.203125 
Q 18.109375 30.953125 13.203125 35.15625 
Q 8.296875 39.359375 8.296875 46.6875 
Q 8.296875 54.640625 13.625 59.21875 
Q 18.953125 63.8125 28.90625 64.5 
L 28.90625 75.984375 
L 33.796875 75.984375 
L 33.796875 64.65625 
Q 38.328125 64.453125 42.578125 63.6875 
Q 46.828125 62.9375 50.875 61.625 
L 50.875 53.078125 
Q 46.828125 55.125 42.546875 56.25 
Q 38.28125 57.375 33.796875 57.5625 
L 33.796875 36.71875 
Q 44.875 35.015625 50.09375 30.609375 
Q 55.328125 26.21875 55.328125 18.609375 
Q 55.328125 10.359375 49.78125 5.59375 
Q 44.234375 0.828125 33.796875 0.09375 
z
M 28.90625 37.59375 
L 28.90625 57.625 
Q 23.25 56.984375 20.265625 54.390625 
Q 17.28125 51.8125 17.28125 47.515625 
Q 17.28125 43.3125 20.03125 40.96875 
Q 22.796875 38.625 28.90625 37.59375 
z
M 33.796875 28.21875 
L 33.796875 7.078125 
Q 39.984375 7.90625 43.140625 10.59375 
Q 46.296875 13.28125 46.296875 17.671875 
Q 46.296875 21.96875 43.28125 24.5 
Q 40.28125 27.046875 33.796875 28.21875 
z
" id="DejaVuSans-36"/>
     </defs>
     <g transform="translate(14.798438 172.342094)rotate(-90)scale(0.1 -0.1)">
      <use xlink:href="#DejaVuSans-80"/>
      <use x="58.552734" xlink:href="#DejaVuSans-114"/>
      <use x="99.666016" xlink:href="#DejaVuSans-105"/>
      <use x="127.449219" xlink:href="#DejaVuSans-99"/>
      <use x="182.429688" xlink:href="#DejaVuSans-101"/>
      <use x="243.953125" xlink:href="#DejaVuSans-32"/>
      <use x="275.740234" xlink:href="#DejaVuSans-36"/>
     </g>
    </g>
   </g>
   <g id="line2d_33">
    <path clip-path="url(#p4f2d9ecc06)" d="M 63.198352 236.156126 
L 63.443005 228.175651 
L 63.687658 229.128087 
L 63.932311 226.967211 
L 64.176964 227.262827 
L 64.421617 224.086957 
L 64.66627 218.75887 
L 65.155576 215.844784 
L 65.400229 216.342553 
L 65.644882 216.294165 
L 66.378841 217.666654 
L 66.623494 213.238887 
L 66.868147 212.704237 
L 67.1128 216.450389 
L 67.357453 225.674161 
L 67.602106 226.516698 
L 67.846759 236.089103 
L 68.091412 235.46036 
L 68.336066 233.997235 
L 68.580719 229.262452 
L 68.825372 238.626438 
L 69.070025 239.973291 
L 69.314678 240.56736 
L 69.559331 236.792404 
L 69.803984 240.027713 
L 70.048637 239.028554 
L 70.29329 242.96666 
L 70.537943 243.432757 
L 70.782596 242.56313 
L 71.027249 246.026917 
L 71.271902 242.638569 
L 71.516555 235.263312 
L 71.761208 238.389157 
L 72.005861 239.971179 
L 72.250514 237.216089 
L 72.495167 240.881775 
L 72.73982 241.109962 
L 72.984473 238.456102 
L 73.473779 239.803584 
L 73.963085 233.811732 
L 74.207738 239.025745 
L 74.452391 239.68092 
L 74.697044 239.971741 
L 75.18635 237.357572 
L 75.431003 237.299489 
L 75.675656 247.045765 
L 76.409615 241.119405 
L 76.654268 237.834769 
L 76.898921 238.34844 
L 77.143574 236.517098 
L 77.388227 238.595193 
L 77.63288 239.601451 
L 78.122186 236.27449 
L 78.366839 237.583599 
L 78.611492 237.60697 
L 78.856145 237.83504 
L 79.100798 246.784571 
L 79.345451 246.770847 
L 79.834757 250.447594 
L 80.07941 247.807779 
L 80.324063 249.629406 
L 80.568716 250.611296 
L 80.813369 250.486471 
L 81.058022 249.351699 
L 81.547328 263.302467 
L 81.791981 262.998269 
L 82.036634 264.452881 
L 82.281287 264.841263 
L 82.52594 262.852418 
L 82.770593 263.817194 
L 83.015246 260.150693 
L 83.504552 262.262416 
L 83.749205 260.526368 
L 83.993858 256.595681 
L 84.238511 260.019573 
L 84.483164 260.57894 
L 84.727817 267.686398 
L 84.97247 270.322185 
L 85.217123 269.159102 
L 85.461776 268.835573 
L 86.195735 260.452508 
L 86.440388 261.470369 
L 86.685041 258.706891 
L 86.929694 260.103574 
L 87.419 254.583601 
L 87.908306 257.128898 
L 88.152959 259.559297 
L 88.397612 253.601769 
L 88.642265 256.175279 
L 88.886918 256.800294 
L 89.131571 255.118319 
L 89.376224 250.462316 
L 89.620877 249.225421 
L 89.86553 249.746512 
L 90.110183 252.62358 
L 90.354836 254.086375 
L 90.599489 250.026844 
L 90.844143 242.138467 
L 91.088796 239.094531 
L 91.333449 239.588008 
L 91.578102 240.79606 
L 92.067408 244.82947 
L 92.312061 243.067669 
L 92.801367 245.020339 
L 93.04602 245.486959 
L 93.290673 245.319945 
L 93.535326 241.08048 
L 93.779979 243.443508 
L 94.269285 244.8664 
L 94.513938 244.513302 
L 94.758591 246.297418 
L 95.003244 259.957297 
L 95.247897 257.338924 
L 95.49255 259.926362 
L 95.737203 259.347614 
L 95.981856 259.974914 
L 96.226509 261.035875 
L 96.471162 260.513419 
L 96.960468 262.463649 
L 97.205121 265.161644 
L 97.449774 269.835381 
L 97.93908 268.983459 
L 98.183733 270.557926 
L 98.428386 268.470872 
L 98.673039 268.887148 
L 99.162345 264.817553 
L 99.406998 267.780162 
L 99.651651 266.346422 
L 99.896304 268.185019 
L 100.140957 267.573845 
L 100.38561 269.121949 
L 100.630263 268.830595 
L 100.874916 271.008294 
L 101.119569 271.141545 
L 101.608875 274.352069 
L 101.853528 274.198566 
L 102.098181 275.363083 
L 102.342834 273.140201 
L 102.587487 273.249597 
L 102.83214 272.689281 
L 103.076793 274.060231 
L 103.321446 273.2849 
L 103.566099 270.619225 
L 103.810752 271.130107 
L 104.055405 271.965874 
L 104.300058 270.613985 
L 104.544711 273.305356 
L 104.789364 274.378307 
L 105.034017 276.334125 
L 105.27867 275.795233 
L 105.523323 274.789236 
L 105.767976 268.24438 
L 106.012629 269.946714 
L 106.257282 267.582174 
L 106.501935 270.158513 
L 106.746588 267.966179 
L 107.235894 272.785369 
L 107.480547 272.747054 
L 107.7252 273.756818 
L 107.969853 270.999587 
L 108.214506 270.742819 
L 108.459159 265.284203 
L 108.703812 274.728781 
L 109.193118 273.471033 
L 109.437771 274.847707 
L 109.682424 274.580721 
L 109.927077 275.280603 
L 110.661036 264.488184 
L 111.150342 261.357273 
L 111.394995 264.308909 
L 111.639648 264.646985 
L 111.884301 263.784089 
L 112.128954 264.741349 
L 112.373607 262.27955 
L 112.61826 254.911149 
L 112.862913 256.8946 
L 113.107566 261.821017 
L 113.35222 263.144654 
L 113.596873 259.97166 
L 113.841526 258.87035 
L 114.086179 260.012164 
L 114.330832 258.205636 
L 114.575485 259.753653 
L 114.820138 260.044426 
L 115.064791 260.50971 
L 115.309444 261.963817 
L 115.79875 252.017907 
L 116.043403 251.719996 
L 116.288056 256.130843 
L 116.532709 258.530579 
L 116.777362 255.760931 
L 117.266668 259.628044 
L 117.511321 260.180757 
L 118.000627 263.968362 
L 118.24528 263.672611 
L 118.489933 268.138926 
L 118.734586 266.676528 
L 118.979239 263.338496 
L 119.468545 262.172759 
L 120.202504 269.025474 
L 120.447157 266.204019 
L 120.69181 267.460759 
L 120.936463 264.744642 
L 121.181116 263.779508 
L 121.425769 259.149084 
L 121.670422 259.463219 
L 122.159728 248.241992 
L 122.649034 241.335785 
L 122.893687 241.617735 
L 123.13834 242.883512 
L 123.382993 243.025479 
L 123.627646 238.486137 
L 123.872299 222.39119 
L 124.116952 220.871125 
L 125.095564 211.250061 
L 125.340217 205.275952 
L 125.58487 212.837952 
L 126.318829 210.186882 
L 126.563482 207.030354 
L 126.808135 208.950859 
L 127.052788 202.941515 
L 127.542094 211.113459 
L 127.786747 211.369752 
L 128.0314 210.956305 
L 128.276053 210.929108 
L 128.520706 209.609888 
L 128.765359 205.183186 
L 129.010012 206.242394 
L 129.254665 205.803396 
L 129.499318 210.547254 
L 129.743971 205.799231 
L 129.988624 204.678076 
L 130.233277 210.039123 
L 130.47793 209.273555 
L 130.967236 213.188252 
L 131.211889 209.894831 
L 131.456542 208.741346 
L 131.701195 203.740032 
L 131.945848 195.172771 
L 132.435154 201.102289 
L 132.679807 201.03085 
L 132.92446 199.499521 
L 133.413766 194.685018 
L 133.658419 196.565406 
L 133.903072 192.705625 
L 134.392378 190.933325 
L 134.637031 186.356791 
L 134.881684 186.979926 
L 135.126337 185.293728 
L 135.37099 180.739974 
L 135.615643 179.208722 
L 135.860297 182.815406 
L 136.10495 180.345258 
L 136.349603 182.086778 
L 136.594256 193.134492 
L 136.838909 195.870871 
L 137.083562 187.563526 
L 137.328215 185.538109 
L 137.817521 189.853565 
L 138.062174 191.327944 
L 138.306827 186.670015 
L 138.55148 171.267502 
L 138.796133 177.541217 
L 139.285439 185.067479 
L 139.530092 177.014102 
L 139.774745 179.725028 
L 140.019398 186.265109 
L 140.508704 172.434992 
L 140.753357 177.835555 
L 140.99801 178.718722 
L 141.487316 186.881368 
L 141.976622 194.53474 
L 142.221275 190.014884 
L 142.465928 189.483915 
L 142.710581 190.914013 
L 142.955234 187.703634 
L 143.44454 175.843785 
L 143.933846 174.745371 
L 144.178499 180.325015 
L 144.667805 181.004519 
L 144.912458 182.978216 
L 145.157111 174.946709 
L 145.401764 175.061694 
L 145.89107 167.680228 
L 146.135723 169.811796 
L 146.380376 168.144407 
L 146.625029 169.308817 
L 146.869682 167.731715 
L 147.114335 163.780912 
L 147.358988 153.609217 
L 147.603641 162.126462 
L 147.848294 164.246059 
L 148.092947 164.469113 
L 148.3376 167.303275 
L 148.582253 168.333019 
L 148.826906 164.331562 
L 149.071559 165.570297 
L 149.316212 161.883225 
L 149.560865 163.122115 
L 149.805518 167.815551 
L 150.050171 169.468199 
L 150.294824 161.359791 
L 150.539477 161.066267 
L 151.028783 153.667968 
L 151.273436 159.510414 
L 151.518089 157.726279 
L 152.007395 151.170371 
L 152.252048 159.016598 
L 152.496701 153.855282 
L 152.741354 164.591729 
L 152.986007 162.501789 
L 153.23066 165.438596 
L 153.475313 162.46541 
L 153.719966 166.077537 
L 154.209272 160.487026 
L 154.453925 174.170991 
L 154.943231 180.149439 
L 155.187884 173.164724 
L 155.432537 180.824256 
L 155.67719 177.802295 
L 156.166496 190.569408 
L 156.411149 183.900415 
L 156.655802 188.531342 
L 156.900455 185.011556 
L 157.145108 177.194734 
L 157.634414 170.854248 
L 157.879067 169.904562 
L 158.12372 166.005343 
L 158.368374 169.290589 
L 158.613027 161.313417 
L 158.85768 161.648336 
L 159.102333 161.201668 
L 159.346986 162.767554 
L 159.591639 162.929396 
L 159.836292 165.95742 
L 160.080945 162.395095 
L 160.325598 154.70581 
L 160.570251 165.097517 
L 160.814904 166.199204 
L 161.30421 160.301377 
L 161.548863 147.627534 
L 162.038169 153.999071 
L 162.282822 161.411123 
L 162.527475 160.660257 
L 163.016781 177.526922 
L 163.261434 176.229261 
L 163.506087 173.459274 
L 163.995393 181.658822 
L 164.240046 180.625261 
L 164.484699 181.788663 
L 164.729352 183.535452 
L 164.974005 188.390208 
L 165.218658 189.785148 
L 165.463311 190.094188 
L 165.707964 188.053759 
L 165.952617 179.585056 
L 166.19727 178.01113 
L 166.441923 181.873739 
L 166.931229 199.07294 
L 167.420535 181.380523 
L 167.665188 190.209908 
L 167.909841 191.623812 
L 168.154494 186.380287 
L 168.6438 182.016114 
L 168.888453 183.842284 
L 169.377759 174.821323 
L 169.622412 179.653512 
L 169.867065 178.92254 
L 170.111718 174.79957 
L 170.356371 190.181782 
L 170.601024 184.589236 
L 170.845677 186.25031 
L 171.09033 180.294778 
L 171.334983 178.943344 
L 171.579636 179.153651 
L 171.824289 181.384359 
L 172.068942 189.483411 
L 172.313595 190.546047 
L 172.558248 187.665047 
L 172.802901 178.988323 
L 173.047554 183.603482 
L 173.292207 183.762573 
L 173.781513 185.461846 
L 174.026166 181.713001 
L 174.270819 180.751402 
L 174.515472 173.637213 
L 174.760125 174.241578 
L 175.004778 169.085144 
L 175.249431 166.898273 
L 175.494084 170.956118 
L 175.738737 169.346648 
L 175.98339 171.461945 
L 176.228043 169.649489 
L 176.472696 174.034738 
L 176.717349 174.405667 
L 176.962002 170.619398 
L 177.206655 163.21 
L 177.451308 164.264423 
L 177.695961 158.549261 
L 177.940614 157.995744 
L 178.185267 158.685379 
L 178.42992 155.859159 
L 178.674573 157.422934 
L 178.919226 155.785763 
L 179.163879 157.723954 
L 179.408532 160.573826 
L 179.653185 160.399412 
L 180.387144 147.824127 
L 180.631798 148.822685 
L 180.876451 147.240934 
L 181.121104 144.862758 
L 181.365757 139.22841 
L 181.61041 140.915867 
L 181.855063 139.304149 
L 182.099716 143.271864 
L 182.344369 150.444959 
L 182.589022 147.128681 
L 182.833675 149.118029 
L 183.322981 142.661087 
L 183.567634 140.981592 
L 183.812287 141.549191 
L 184.05694 144.627869 
L 184.301593 139.239393 
L 184.546246 130.801761 
L 184.790899 130.010023 
L 185.035552 128.035455 
L 185.280205 122.63402 
L 185.524858 93.900146 
L 185.769511 95.697183 
L 186.014164 103.290893 
L 186.258817 103.750152 
L 186.748123 112.389995 
L 186.992776 103.979714 
L 187.237429 108.323781 
L 187.482082 108.827399 
L 187.726735 110.694809 
L 187.971388 108.721693 
L 188.216041 105.217752 
L 188.460694 107.498203 
L 188.705347 104.409201 
L 188.95 102.990686 
L 189.194653 103.753871 
L 189.439306 103.131782 
L 189.683959 104.661814 
L 189.928612 103.77609 
L 190.417918 109.665704 
L 190.662571 106.526628 
L 191.151877 108.171314 
L 191.39653 110.259182 
L 191.641183 109.30138 
L 191.885836 96.113923 
L 192.130489 92.807137 
L 192.375142 97.18454 
L 192.619795 93.72581 
L 192.864448 95.479398 
L 193.109101 100.898131 
L 193.598407 102.334563 
L 193.84306 104.935715 
L 194.087713 113.933876 
L 194.577019 103.208296 
L 194.821672 91.443964 
L 195.066325 96.237353 
L 195.310978 108.974578 
L 195.555631 108.607251 
L 195.800284 99.391092 
L 196.044937 105.447178 
L 196.534243 101.503832 
L 196.778896 104.44709 
L 197.023549 112.267708 
L 197.512855 106.523742 
L 197.757508 105.762068 
L 198.002161 107.702854 
L 198.246814 105.213607 
L 198.491467 110.946183 
L 198.73612 123.117163 
L 198.980773 127.742648 
L 199.225426 128.539693 
L 199.714732 113.489939 
L 199.959385 112.888693 
L 200.448691 99.280273 
L 200.937997 106.089858 
L 201.18265 98.926874 
L 201.427303 102.369779 
L 201.671956 91.000008 
L 201.916609 96.950523 
L 202.161262 80.481868 
L 202.405915 78.72522 
L 202.650568 81.740168 
L 202.895221 74.497125 
L 203.139875 80.108072 
L 203.384528 81.003307 
L 203.629181 81.344154 
L 203.873834 67.165597 
L 204.118487 63.913435 
L 204.36314 64.636271 
L 204.607793 71.881154 
L 204.852446 64.353324 
L 205.097099 71.60243 
L 205.341752 73.391989 
L 205.831058 78.778237 
L 206.075711 69.978702 
L 206.320364 71.790267 
L 206.565017 71.250639 
L 206.80967 69.108417 
L 207.054323 70.24009 
L 207.298976 80.823935 
L 207.543629 82.972937 
L 207.788282 87.361266 
L 208.032935 88.028798 
L 208.277588 85.684172 
L 208.522241 92.192757 
L 208.766894 89.396155 
L 209.011547 95.302835 
L 209.2562 89.996529 
L 209.500853 89.938146 
L 209.745506 94.454477 
L 209.990159 101.805627 
L 210.234812 96.71794 
L 210.479465 86.665975 
L 210.724118 83.940889 
L 210.968771 83.517601 
L 211.213424 85.209843 
L 211.458077 87.859034 
L 211.70273 82.855241 
L 211.947383 88.986039 
L 212.192036 89.206032 
L 212.436689 91.688112 
L 212.925995 102.26694 
L 213.170648 101.619533 
L 213.659954 90.298925 
L 213.904607 93.282396 
L 214.14926 100.863554 
L 214.393913 102.388394 
L 214.638566 105.809797 
L 214.883219 106.962081 
L 215.127872 101.87294 
L 215.372525 101.675069 
L 215.617178 91.941965 
L 215.861831 89.594549 
L 216.106484 85.318667 
L 216.351137 90.21658 
L 216.59579 92.663406 
L 216.840443 101.671117 
L 217.085096 101.634642 
L 217.329749 104.838532 
L 217.819055 105.863938 
L 218.063708 105.817255 
L 218.308361 106.366975 
L 218.553014 112.653572 
L 219.04232 102.931954 
L 219.286973 109.106395 
L 219.531626 121.479761 
L 219.776279 111.948906 
L 220.020932 116.414891 
L 220.265585 118.738636 
L 220.510238 118.443524 
L 220.754891 115.448004 
L 220.999544 119.539071 
L 221.244197 117.462399 
L 221.48885 123.070558 
L 221.733503 120.163795 
L 221.978156 122.759871 
L 222.712115 118.08906 
L 222.956768 109.733734 
L 223.201421 110.874376 
L 223.690727 114.620702 
L 223.93538 122.28405 
L 224.180033 123.354415 
L 224.669339 121.171418 
L 224.913992 123.743359 
L 225.158645 114.012444 
L 225.403298 109.302755 
L 225.647952 111.788265 
L 225.892605 106.532904 
L 226.137258 110.463388 
L 226.381911 117.874917 
L 226.626564 120.684343 
L 226.871217 118.265759 
L 227.11587 114.432071 
L 227.360523 117.258465 
L 227.605176 113.923048 
L 227.849829 117.04624 
L 228.094482 123.198249 
L 228.339135 122.835746 
L 228.828441 104.279049 
L 229.073094 109.216537 
L 229.317747 108.360682 
L 229.5624 110.100304 
L 230.051706 118.997796 
L 230.296359 117.772059 
L 230.541012 112.671528 
L 230.785665 111.543051 
L 231.030318 110.949359 
L 231.274971 112.232938 
L 231.764277 101.832824 
L 232.00893 103.596252 
L 232.253583 103.807586 
L 232.498236 127.510122 
L 232.742889 124.392374 
L 232.987542 122.897791 
L 233.232195 134.404415 
L 233.476848 140.185302 
L 233.721501 135.689834 
L 233.966154 135.781089 
L 234.210807 139.266241 
L 234.700113 141.26082 
L 234.944766 139.934374 
L 235.189419 136.547141 
L 235.434072 138.619629 
L 235.923378 133.354641 
L 236.412684 123.054189 
L 236.657337 127.729998 
L 236.90199 126.109545 
L 237.146643 127.500902 
L 237.391296 131.151363 
L 237.635949 125.84531 
L 237.880602 123.554069 
L 238.369908 122.526784 
L 238.614561 120.476747 
L 238.859214 124.03791 
L 239.103867 124.737849 
L 239.593173 119.296938 
L 239.837826 118.333092 
L 240.082479 120.662977 
L 240.327132 121.478133 
L 240.571785 115.741025 
L 240.816438 114.3493 
L 241.061091 114.28158 
L 241.305744 115.803882 
L 241.550397 112.772508 
L 241.79505 114.870797 
L 242.039703 118.260858 
L 242.529009 126.946222 
L 242.773662 128.816945 
L 243.018315 129.487286 
L 243.262968 131.65715 
L 243.507621 141.60647 
L 243.752274 143.419216 
L 243.996927 147.049222 
L 244.24158 143.325269 
L 244.486233 143.236163 
L 244.730886 136.431091 
L 244.975539 138.814788 
L 245.220192 144.721952 
L 245.464845 140.199249 
L 245.709498 129.682911 
L 245.954151 128.343313 
L 246.68811 118.190756 
L 246.932763 120.00695 
L 247.177416 130.906653 
L 247.422069 168.552082 
L 247.911375 159.61459 
L 248.156029 162.42355 
L 248.400682 167.040957 
L 248.645335 165.386973 
L 249.134641 159.968686 
L 249.379294 157.92322 
L 249.623947 156.907693 
L 250.113253 176.759068 
L 250.357906 176.9557 
L 250.847212 169.155886 
L 251.091865 170.766208 
L 251.336518 174.843347 
L 251.825824 187.14477 
L 252.070477 201.900845 
L 252.31513 207.067255 
L 252.559783 200.164748 
L 252.804436 188.345965 
L 253.049089 188.60253 
L 253.538395 199.236932 
L 253.783048 193.249922 
L 254.027701 192.172215 
L 254.272354 196.245751 
L 254.76166 191.077424 
L 255.495619 202.272549 
L 255.740272 202.289324 
L 255.984925 191.246142 
L 256.229578 194.998571 
L 256.474231 200.811186 
L 256.718884 203.06109 
L 257.20819 213.671996 
L 257.452843 213.486134 
L 257.697496 211.434567 
L 257.942149 213.020153 
L 258.186802 208.619485 
L 258.431455 207.55557 
L 258.676108 207.400334 
L 258.920761 193.433246 
L 259.165414 192.020252 
L 259.410067 192.079604 
L 259.899373 202.693512 
L 260.144026 198.866681 
L 260.388679 199.180873 
L 260.633332 196.168559 
L 260.877985 198.070023 
L 261.122638 191.405001 
L 261.367291 190.479393 
L 261.611944 185.828398 
L 261.856597 187.703459 
L 262.10125 192.203305 
L 262.590556 182.108725 
L 263.079862 161.587299 
L 263.324515 163.545577 
L 263.569168 167.978536 
L 263.813821 143.789855 
L 264.058474 134.643275 
L 264.303127 138.678496 
L 264.54778 131.058384 
L 264.792433 129.914952 
L 265.037086 128.178216 
L 265.281739 136.225355 
L 265.771045 129.020027 
L 266.015698 130.761567 
L 266.260351 135.966389 
L 266.505004 129.866351 
L 266.749657 132.149805 
L 266.99431 122.350995 
L 267.238963 118.344947 
L 267.483616 119.746298 
L 267.728269 118.604242 
L 267.972922 121.218624 
L 268.217575 125.642344 
L 268.462228 120.931648 
L 268.706881 105.182284 
L 269.44084 118.288287 
L 269.685493 117.244363 
L 269.930146 116.993067 
L 270.419452 127.098592 
L 270.664106 127.483313 
L 270.908759 135.452756 
L 271.153412 135.210836 
L 271.398065 128.631045 
L 271.642718 128.483692 
L 271.887371 131.457439 
L 272.132024 137.756258 
L 272.376677 130.810381 
L 272.865983 131.922742 
L 273.110636 135.115067 
L 273.355289 136.553514 
L 273.599942 134.304153 
L 274.089248 141.473762 
L 274.333901 147.702982 
L 274.578554 143.447362 
L 274.823207 145.805121 
L 275.06786 160.074217 
L 275.312513 163.531088 
L 275.557166 164.749813 
L 275.801819 161.718826 
L 276.046472 170.52793 
L 276.291125 162.947566 
L 276.535778 173.079977 
L 276.780431 170.484578 
L 277.025084 171.859935 
L 277.269737 166.222159 
L 277.51439 164.141187 
L 277.759043 168.710225 
L 278.003696 169.320633 
L 278.248349 180.34489 
L 278.493002 182.185549 
L 278.737655 174.442413 
L 278.982308 177.08742 
L 279.226961 185.074859 
L 279.471614 187.2516 
L 279.716267 187.798705 
L 279.96092 196.866678 
L 280.205573 197.426336 
L 280.450226 202.859519 
L 280.694879 199.029085 
L 280.939532 202.24202 
L 281.184185 187.8752 
L 281.673491 174.357628 
L 281.918144 178.0053 
L 282.40745 167.617738 
L 282.652103 177.634255 
L 282.896756 175.252127 
L 283.141409 181.054205 
L 283.386062 160.79039 
L 283.630715 161.039981 
L 283.875368 162.05851 
L 284.120021 153.188544 
L 284.364674 157.537938 
L 284.609327 156.91641 
L 284.85398 155.278097 
L 285.098633 157.082979 
L 285.343286 162.593974 
L 285.587939 157.824856 
L 285.832592 158.458916 
L 286.077245 149.706084 
L 286.321898 150.936258 
L 286.566551 153.22529 
L 286.811204 149.481384 
L 287.055857 149.00659 
L 287.30051 143.515372 
L 287.545163 144.526366 
L 287.789816 142.700894 
L 288.034469 148.337972 
L 288.279122 147.159906 
L 288.523775 146.694448 
L 288.768428 140.873038 
L 289.013081 140.787265 
L 289.257734 139.528617 
L 289.502387 140.247366 
L 289.74704 141.963026 
L 289.991693 148.375183 
L 290.236346 144.484913 
L 290.480999 149.776419 
L 290.970305 146.769684 
L 291.214958 143.871192 
L 291.459611 135.718502 
L 291.704264 133.32882 
L 291.948917 136.410481 
L 292.19357 136.842757 
L 292.438223 134.792042 
L 292.92753 137.201695 
L 293.416836 142.94663 
L 293.661489 142.637319 
L 293.906142 143.063222 
L 294.150795 145.612751 
L 294.395448 134.856333 
L 294.640101 154.680957 
L 294.884754 160.140833 
L 295.129407 156.318166 
L 295.618713 160.770554 
L 296.108019 170.331685 
L 296.597325 176.470988 
L 296.841978 178.516259 
L 297.086631 168.31454 
L 297.331284 164.384172 
L 297.82059 167.639956 
L 298.065243 165.615837 
L 298.309896 166.049198 
L 298.554549 158.323128 
L 299.043855 156.277837 
L 299.288508 147.022413 
L 299.533161 155.288383 
L 299.777814 157.789291 
L 300.022467 158.696207 
L 300.26712 161.108107 
L 300.511773 160.085336 
L 301.001079 167.54905 
L 301.245732 167.080899 
L 301.490385 173.044781 
L 301.735038 174.041092 
L 301.979691 177.337709 
L 302.224344 176.955235 
L 302.468997 171.384172 
L 302.71365 175.155816 
L 302.958303 170.354756 
L 303.202956 174.948453 
L 303.447609 175.686495 
L 303.692262 173.374702 
L 303.936915 179.477548 
L 304.181568 182.221888 
L 304.670874 172.960344 
L 304.915527 172.088489 
L 305.16018 172.029525 
L 305.404833 176.187265 
L 305.649486 176.687029 
L 305.894139 174.334712 
L 306.138792 178.806606 
L 306.383445 169.902393 
L 306.628098 172.304956 
L 306.872751 173.44002 
L 307.117404 172.463796 
L 307.362057 175.122111 
L 307.60671 172.714975 
L 307.851363 177.205117 
L 308.096016 177.95265 
L 308.340669 176.987022 
L 308.829975 178.380897 
L 309.074628 173.587256 
L 309.319281 171.776679 
L 309.563934 171.697512 
L 309.808587 179.2962 
L 310.05324 174.49884 
L 310.297893 177.651959 
L 310.542546 175.915359 
L 310.787199 175.51028 
L 311.031852 169.596472 
L 311.521158 171.708282 
L 311.765811 171.549326 
L 312.010464 169.053337 
L 312.255117 168.642447 
L 312.49977 162.556375 
L 312.744423 161.948194 
L 312.989076 162.677732 
L 313.478382 156.651884 
L 313.723035 161.389931 
L 313.967688 161.885762 
L 314.212341 164.213982 
L 314.456994 162.665858 
L 314.701647 161.915787 
L 314.9463 161.711969 
L 315.190953 159.399692 
L 315.435607 164.712215 
L 315.68026 157.786444 
L 315.924913 156.197933 
L 316.169566 142.060131 
L 316.414219 142.237354 
L 316.658872 144.040763 
L 316.903525 150.980752 
L 317.148178 148.256519 
L 317.392831 151.069508 
L 317.637484 150.757679 
L 317.882137 145.286317 
L 318.12679 147.137184 
L 318.371443 147.528491 
L 318.616096 145.355857 
L 318.860749 133.14968 
L 319.105402 133.903838 
L 319.594708 142.210099 
L 319.839361 139.707195 
L 320.084014 143.649321 
L 320.328667 150.63206 
L 320.57332 150.783326 
L 320.817973 148.890424 
L 321.062626 148.281255 
L 321.307279 148.256034 
L 321.796585 153.538087 
L 322.041238 151.44774 
L 322.285891 156.974193 
L 322.530544 159.095959 
L 322.775197 160.140484 
L 323.01985 159.04085 
L 323.264503 159.457862 
L 323.753809 158.237451 
L 323.998462 159.46778 
L 324.243115 157.460978 
L 324.487768 152.231323 
L 324.977074 162.47343 
L 325.221727 159.438665 
L 325.46638 153.824812 
L 325.955686 161.819244 
L 326.200339 167.663705 
L 326.444992 167.843581 
L 326.689645 168.978373 
L 326.934298 164.148548 
L 327.178951 164.902473 
L 327.423604 167.744887 
L 327.668257 174.209481 
L 327.91291 174.758756 
L 328.157563 176.41427 
L 328.646869 170.244634 
L 328.891522 170.916564 
L 329.136175 173.180608 
L 329.380828 171.511069 
L 329.870134 174.14025 
L 330.114787 173.131135 
L 330.604093 167.211012 
L 330.848746 170.053736 
L 331.093399 174.957693 
L 331.338052 176.675871 
L 331.582705 173.31413 
L 331.827358 172.269218 
L 332.072011 167.106992 
L 332.316664 169.050432 
L 332.561317 165.21068 
L 332.80597 168.046527 
L 333.050623 164.362322 
L 333.295276 166.360523 
L 333.539929 171.532628 
L 334.029235 174.155185 
L 334.273888 172.248317 
L 334.763194 175.134024 
L 335.497153 171.9552 
L 335.741806 170.747806 
L 335.986459 173.325268 
L 336.720418 156.782404 
L 336.965071 158.211436 
L 337.209724 157.234942 
L 337.454377 153.092136 
L 337.69903 154.357738 
L 338.188337 158.059222 
L 338.43299 157.391612 
L 338.922296 158.671141 
L 339.166949 161.902286 
L 339.411602 158.661727 
L 339.656255 158.393869 
L 339.900908 157.686685 
L 340.390214 160.954905 
L 340.87952 159.678106 
L 341.124173 161.236244 
L 341.368826 161.813626 
L 341.613479 159.581079 
L 341.858132 156.240877 
L 342.102785 155.798471 
L 342.347438 151.566231 
L 342.592091 151.489 
L 342.836744 148.341207 
L 343.081397 147.93175 
L 343.32605 150.027889 
L 343.570703 148.979025 
L 343.815356 147.187161 
L 344.060009 146.901153 
L 344.549315 145.83257 
L 344.793968 147.606807 
L 345.038621 159.551751 
L 345.283274 161.793132 
L 345.77258 159.15657 
L 346.261886 161.192602 
L 346.506539 161.634505 
L 346.751192 161.059778 
L 346.995845 160.880056 
L 347.485151 162.326852 
L 347.729804 161.704143 
L 347.974457 162.336227 
L 348.21911 163.328819 
L 348.463763 157.755703 
L 348.708416 157.651798 
L 348.953069 158.125353 
L 349.197722 163.99056 
L 349.442375 166.412592 
L 349.687028 166.33108 
L 349.931681 168.16833 
L 350.420987 166.288949 
L 350.66564 165.191968 
L 350.910293 163.013659 
L 351.154946 162.868379 
L 351.399599 159.762039 
L 351.644252 159.423944 
L 351.888905 162.262193 
L 352.133558 161.639716 
L 352.378211 162.853812 
L 352.622864 160.652722 
L 352.867517 162.188274 
L 353.11217 161.547008 
L 353.356823 162.763719 
L 353.601476 161.847854 
L 353.846129 160.34746 
L 354.090782 156.162697 
L 354.335435 155.140216 
L 354.580088 155.956497 
L 354.824741 153.450261 
L 355.069394 144.635327 
L 355.314047 145.05567 
L 355.5587 143.57085 
L 355.803353 153.122277 
L 356.048006 153.245881 
L 356.537312 156.683168 
L 356.781965 157.556708 
L 357.026618 155.887924 
L 357.271271 156.634644 
L 357.515924 149.686946 
L 357.760577 148.910783 
L 358.00523 145.090905 
L 358.249883 144.778573 
L 358.494536 145.599134 
L 358.739189 139.894626 
L 359.228495 150.258904 
L 359.473148 142.088161 
L 359.717801 138.509448 
L 359.962454 138.514988 
L 360.207107 139.964496 
L 360.451761 138.029133 
L 360.696414 140.159481 
L 360.941067 140.87298 
L 361.18572 145.546136 
L 361.430373 144.079718 
L 361.675026 143.601262 
L 361.919679 144.105171 
L 362.164332 145.913771 
L 362.408985 143.537707 
L 362.653638 145.744046 
L 362.898291 151.622483 
L 363.387597 154.229679 
L 363.63225 155.445944 
L 364.121556 160.883679 
L 364.366209 157.003365 
L 364.610862 155.777899 
L 364.855515 152.749352 
L 365.344821 155.49778 
L 365.589474 154.995324 
L 365.834127 158.644952 
L 366.323433 153.610437 
L 366.568086 154.588966 
L 366.812739 153.307867 
L 367.057392 148.438274 
L 367.302045 150.979958 
L 367.546698 151.481987 
L 368.036004 147.726692 
L 368.280657 144.825992 
L 368.52531 144.57334 
L 368.769963 142.508349 
L 369.014616 142.900431 
L 369.503922 139.614003 
L 369.748575 139.080999 
L 369.993228 136.776335 
L 370.237881 129.900521 
L 370.482534 131.850082 
L 370.727187 126.691111 
L 370.97184 126.864652 
L 371.216493 102.37989 
L 371.461146 94.528027 
L 371.705799 96.881099 
L 371.950452 100.536519 
L 372.195105 92.691997 
L 372.439758 95.24203 
L 372.684411 93.800155 
L 372.929064 90.606473 
L 373.173717 89.582869 
L 373.41837 99.561264 
L 373.663023 97.826756 
L 373.907676 97.567382 
L 374.396982 94.544066 
L 374.641635 100.996882 
L 374.886288 101.159577 
L 375.130941 98.908646 
L 375.375594 94.392607 
L 375.620247 95.912798 
L 375.8649 95.927074 
L 376.109553 95.006095 
L 376.354206 101.946433 
L 376.598859 100.94741 
L 377.088165 91.793992 
L 377.332818 85.983391 
L 377.577471 95.334428 
L 377.822124 92.708714 
L 378.066777 84.952871 
L 378.31143 90.308785 
L 378.800736 79.411522 
L 379.045389 81.096287 
L 379.290042 79.697066 
L 379.534695 82.442277 
L 379.779348 77.348565 
L 380.024001 79.126677 
L 380.268654 78.958501 
L 380.513307 77.72916 
L 380.75796 75.817604 
L 381.002613 83.336796 
L 381.247266 80.873098 
L 381.491919 76.298791 
L 381.736572 74.696197 
L 381.981225 66.506432 
L 382.225878 65.400522 
L 382.470531 67.598744 
L 382.715184 71.396868 
L 382.959838 69.840841 
L 383.204491 66.625484 
L 383.449144 60.84946 
L 383.693797 47.85445 
L 383.93845 50.637357 
L 384.183103 51.947125 
L 384.427756 47.641799 
L 384.672409 35.005729 
L 384.917062 38.287895 
L 385.161715 39.834256 
L 385.406368 45.413591 
L 385.651021 44.782727 
L 385.895674 43.325703 
L 386.140327 46.117521 
L 386.38498 47.238463 
L 386.629633 50.175444 
L 386.874286 77.970945 
L 387.118939 79.144401 
L 387.363592 70.616521 
L 387.608245 69.327015 
L 387.852898 73.78194 
L 387.852898 73.78194 
" style="fill:none;stroke:#1f77b4;stroke-linecap:square;stroke-width:1.5;"/>
   </g>
   <g id="line2d_34">
    <path clip-path="url(#p4f2d9ecc06)" d="M 63.198352 225.330677 
L 63.443005 227.971188 
L 63.687658 226.930217 
L 63.932311 227.412618 
L 64.66627 216.952133 
L 64.910923 217.231418 
L 65.155576 215.568404 
L 65.400229 216.736322 
L 65.644882 215.47954 
L 65.889535 214.870192 
L 66.134188 216.825185 
L 66.378841 215.581098 
L 66.623494 210.858646 
L 66.868147 211.874227 
L 67.1128 216.83788 
L 67.357453 228.263167 
L 67.602106 226.904828 
L 67.846759 236.692491 
L 68.336066 231.741533 
L 68.580719 232.071597 
L 68.825372 237.746156 
L 69.070025 237.568429 
L 69.314678 239.231443 
L 69.559331 237.644598 
L 69.803984 237.78424 
L 70.048637 237.149502 
L 70.29329 243.369936 
L 70.537943 242.328966 
L 70.782596 242.227408 
L 71.027249 244.271265 
L 71.516555 234.05198 
L 71.761208 238.444368 
L 72.005861 238.647484 
L 72.250514 239.333001 
L 72.495167 239.599591 
L 72.73982 241.973512 
L 72.984473 237.78424 
L 73.229126 240.792899 
L 73.473779 238.152388 
L 73.718432 236.74327 
L 73.963085 236.552848 
L 74.207738 239.688455 
L 74.452391 239.155275 
L 74.697044 239.193359 
L 74.941697 237.479566 
L 75.18635 238.31742 
L 75.431003 241.389553 
L 75.675656 246.518238 
L 75.920309 242.836756 
L 76.164962 242.862146 
L 76.654268 238.05083 
L 76.898921 237.352618 
L 77.143574 235.880026 
L 77.388227 238.266641 
L 77.63288 238.660179 
L 77.877533 238.799821 
L 78.122186 234.82636 
L 78.366839 237.581124 
L 78.611492 236.425901 
L 78.856145 246.277037 
L 79.100798 245.578825 
L 79.345451 245.870805 
L 79.590104 248.574789 
L 79.834757 248.81599 
L 80.07941 249.577676 
L 80.324063 248.904853 
L 80.568716 250.758289 
L 80.813369 249.577676 
L 81.058022 250.428225 
L 81.547328 261.891597 
L 81.791981 262.412082 
L 82.036634 262.069323 
L 82.281287 264.532107 
L 82.52594 261.561533 
L 82.770593 261.498059 
L 83.015246 259.035275 
L 83.504552 262.234355 
L 83.993858 256.509017 
L 84.483164 260.634815 
L 84.727817 267.286871 
L 84.97247 269.508455 
L 85.217123 268.607127 
L 85.461776 268.518263 
L 85.706429 263.935454 
L 86.195735 260.292056 
L 86.440388 259.695403 
L 86.685041 257.461124 
L 86.929694 258.362452 
L 87.174347 258.057778 
L 87.419 253.995454 
L 87.663653 258.286284 
L 87.908306 257.651546 
L 88.152959 259.378033 
L 88.397612 252.230881 
L 88.642265 256.915249 
L 88.886918 255.899668 
L 89.131571 250.694815 
L 89.620877 249.006411 
L 89.86553 252.33244 
L 90.110183 252.383219 
L 90.354836 252.624419 
L 91.088796 237.035249 
L 91.333449 240.056603 
L 91.578102 240.818289 
L 91.822755 240.983321 
L 92.067408 242.506692 
L 92.312061 242.722503 
L 92.556714 242.189323 
L 93.04602 244.664802 
L 93.290673 244.169706 
L 93.535326 239.688455 
L 94.024632 244.49977 
L 94.269285 243.674611 
L 94.513938 244.093538 
L 94.758591 256.191648 
L 95.003244 259.035275 
L 95.247897 257.143755 
L 95.49255 258.959106 
L 95.981856 259.339949 
L 96.226509 260.723678 
L 96.471162 261.244164 
L 96.715815 260.774457 
L 96.960468 263.998927 
L 97.205121 265.230319 
L 97.449774 269.838519 
L 97.694427 267.718493 
L 97.93908 268.315147 
L 98.183733 269.825824 
L 98.428386 267.261482 
L 98.673039 267.807357 
L 98.917692 267.616935 
L 99.162345 265.319183 
L 99.406998 266.753691 
L 99.651651 266.614049 
L 99.896304 267.286871 
L 100.140957 266.347459 
L 100.38561 268.569042 
L 100.630263 268.975275 
L 100.874916 270.473257 
L 101.119569 269.813129 
L 101.608875 275.11954 
L 101.853528 273.54539 
L 102.098181 273.913538 
L 102.342834 272.567893 
L 102.587487 272.529809 
L 102.83214 271.36189 
L 103.076793 273.024904 
L 103.321446 273.266105 
L 103.566099 270.904879 
L 103.810752 270.384394 
L 104.055405 271.069911 
L 104.300058 269.686182 
L 104.789364 275.106846 
L 105.034017 276.160511 
L 105.27867 275.017982 
L 105.523323 270.155888 
L 105.767976 267.60424 
L 106.012629 269.22917 
L 106.257282 268.467484 
L 106.501935 268.632516 
L 106.746588 268.569042 
L 106.991241 269.102222 
L 107.235894 271.94585 
L 107.480547 271.691954 
L 107.7252 273.558085 
L 108.214506 268.530958 
L 108.459159 275.11954 
L 108.703812 272.18705 
L 108.948465 272.98682 
L 109.193118 272.885262 
L 109.437771 273.81198 
L 109.682424 272.758314 
L 109.927077 274.07857 
L 110.17173 269.419592 
L 110.416383 268.251673 
L 110.905689 261.472669 
L 111.150342 260.634815 
L 111.394995 264.049706 
L 111.639648 264.93834 
L 111.884301 263.186463 
L 112.128954 263.04682 
L 112.373607 261.625007 
L 112.61826 254.541328 
L 112.862913 256.445543 
L 113.107566 264.049706 
L 113.35222 262.856399 
L 113.596873 257.613461 
L 114.086179 259.771571 
L 114.330832 258.095862 
L 114.575485 258.679821 
L 114.820138 259.771571 
L 115.064791 260.025466 
L 115.309444 261.44728 
L 115.79875 251.77387 
L 116.043403 253.766948 
L 116.288056 254.820613 
L 116.532709 258.070473 
L 116.777362 255.671162 
L 117.022015 256.318595 
L 117.266668 259.682708 
L 117.511321 260.507867 
L 117.755974 262.551724 
L 118.000627 263.237242 
L 118.24528 266.144342 
L 118.489933 266.677523 
L 118.734586 265.141456 
L 118.979239 261.282248 
L 119.223892 262.996041 
L 119.468545 260.825236 
L 119.957851 267.89622 
L 120.202504 266.398238 
L 120.447157 265.687331 
L 120.69181 266.042784 
L 121.181116 262.031239 
L 121.425769 259.263781 
L 121.670422 258.616348 
L 121.915075 245.718468 
L 122.159728 248.028915 
L 122.649034 241.821175 
L 122.893687 242.227408 
L 123.13834 240.564394 
L 123.382993 242.532082 
L 123.627646 217.993104 
L 123.872299 223.083704 
L 124.116952 221.484164 
L 124.606258 215.568404 
L 124.850911 212.204291 
L 125.095564 211.125236 
L 125.340217 205.729962 
L 125.58487 212.940588 
L 125.829523 211.137931 
L 126.074176 208.218135 
L 126.318829 206.961354 
L 126.563482 207.862682 
L 126.808135 207.240639 
L 127.052788 203.444904 
L 127.297441 207.951545 
L 127.542094 210.274687 
L 127.786747 211.150626 
L 128.0314 210.807867 
L 128.276053 211.049068 
L 128.765359 203.40682 
L 129.010012 204.904802 
L 129.499318 210.693614 
L 129.743971 205.412593 
L 129.988624 204.523959 
L 130.233277 206.821711 
L 130.47793 207.69765 
L 130.967236 212.673998 
L 131.211889 207.367586 
L 131.456542 206.910575 
L 131.701195 204.397012 
L 131.945848 194.787075 
L 132.679807 201.337574 
L 132.92446 199.306411 
L 133.413766 193.961916 
L 133.658419 197.021354 
L 134.147725 189.290243 
L 134.392378 189.531443 
L 134.637031 186.713206 
L 134.881684 190.623193 
L 135.126337 184.720128 
L 135.615643 178.360051 
L 135.860297 182.396986 
L 136.10495 181.787637 
L 136.349603 181.876501 
L 136.594256 191.486437 
L 136.838909 191.296015 
L 137.083562 188.9094 
L 137.328215 188.820536 
L 137.572868 187.957293 
L 138.062174 191.156373 
L 138.306827 182.270038 
L 138.55148 169.169042 
L 139.040786 184.910549 
L 139.285439 184.136169 
L 139.530092 175.072107 
L 139.774745 184.453538 
L 140.019398 185.469119 
L 140.264051 167.836092 
L 140.508704 176.735121 
L 140.753357 174.957854 
L 140.99801 178.296577 
L 141.242663 184.897854 
L 141.487316 186.370447 
L 141.976622 194.050779 
L 142.221275 190.039234 
L 142.465928 190.178876 
L 142.710581 192.781303 
L 143.44454 173.675683 
L 143.689193 173.040945 
L 143.933846 174.538927 
L 144.423152 179.705696 
L 144.667805 180.200792 
L 144.912458 184.123474 
L 145.157111 174.742043 
L 145.401764 174.297727 
L 145.646417 169.689528 
L 145.89107 168.585083 
L 146.135723 171.771469 
L 146.380376 167.810702 
L 146.625029 168.508914 
L 146.869682 167.188659 
L 147.114335 163.900715 
L 147.358988 153.059387 
L 147.603641 162.110754 
L 148.092947 162.82166 
L 148.582253 167.632976 
L 148.826906 165.893793 
L 149.071559 165.170192 
L 149.316212 160.879361 
L 149.560865 163.35484 
L 149.805518 166.960153 
L 150.050171 168.902452 
L 150.294824 161.793384 
L 150.78413 156.550447 
L 151.028783 153.70682 
L 151.273436 159.482937 
L 151.762742 153.44023 
L 152.007395 149.999949 
L 152.252048 154.760485 
L 152.496701 155.776066 
L 152.741354 161.120562 
L 152.986007 161.095172 
L 153.23066 164.408506 
L 153.475313 162.910524 
L 153.719966 162.910524 
L 153.964619 160.866667 
L 154.209272 167.594891 
L 154.453925 177.991903 
L 154.698578 176.823985 
L 154.943231 174.577012 
L 155.187884 174.577012 
L 155.67719 179.083653 
L 156.166496 188.338135 
L 156.411149 186.040383 
L 156.655802 188.896705 
L 157.634414 168.826284 
L 157.879067 171.352542 
L 158.12372 166.008046 
L 158.368374 166.058825 
L 158.613027 161.145952 
L 158.85768 161.095172 
L 159.102333 161.856858 
L 159.346986 159.038621 
L 159.591639 162.186922 
L 159.836292 162.707407 
L 160.080945 160.98092 
L 160.325598 157.007459 
L 160.570251 168.597778 
L 160.814904 161.806079 
L 161.059557 161.501405 
L 161.30421 159.114789 
L 161.548863 146.381941 
L 161.793516 151.358289 
L 162.038169 152.945134 
L 162.282822 163.824547 
L 162.527475 159.076705 
L 162.772128 172.165006 
L 163.016781 174.932465 
L 163.261434 175.326003 
L 163.506087 173.840715 
L 163.75074 179.883423 
L 163.995393 177.852261 
L 164.240046 180.226181 
L 164.729352 181.356015 
L 164.974005 189.848812 
L 165.218658 189.036347 
L 165.463311 186.256194 
L 165.707964 184.847075 
L 165.952617 177.788787 
L 166.19727 177.87765 
L 166.441923 181.508353 
L 166.686576 194.038084 
L 166.931229 197.326028 
L 167.420535 179.76917 
L 167.665188 193.352567 
L 167.909841 187.182912 
L 168.154494 186.611648 
L 168.399147 179.654917 
L 168.6438 183.488736 
L 168.888453 182.270038 
L 169.377759 175.897267 
L 169.622412 176.697037 
L 169.867065 173.269451 
L 170.111718 175.440255 
L 170.356371 190.420077 
L 170.601024 187.195607 
L 170.845677 185.621456 
L 171.09033 179.185211 
L 171.334983 181.000562 
L 171.579636 179.096347 
L 171.824289 182.523934 
L 172.068942 190.00115 
L 172.313595 190.178876 
L 172.802901 179.527969 
L 173.047554 183.831494 
L 173.292207 183.006335 
L 173.53686 185.545287 
L 173.781513 185.799183 
L 174.026166 181.10212 
L 174.270819 179.147127 
L 174.515472 173.32023 
L 174.760125 175.072107 
L 175.004778 168.546999 
L 175.249431 166.388889 
L 175.494084 170.235402 
L 175.738737 168.877063 
L 175.98339 170.501992 
L 176.228043 169.867254 
L 176.472696 175.567203 
L 176.717349 175.072107 
L 176.962002 170.501992 
L 177.206655 162.935913 
L 177.451308 163.964189 
L 177.940614 157.807229 
L 178.185267 158.048429 
L 178.42992 156.601226 
L 178.919226 155.382529 
L 179.163879 157.045543 
L 179.653185 160.98092 
L 180.142491 153.364061 
L 180.387144 147.702197 
L 180.631798 148.984368 
L 181.121104 143.144777 
L 181.365757 137.863755 
L 181.61041 138.94281 
L 181.855063 138.333461 
L 182.589022 153.351367 
L 183.078328 143.20825 
L 183.322981 142.002248 
L 183.567634 139.628327 
L 183.812287 143.627178 
L 184.05694 143.068608 
L 184.546246 128.583882 
L 184.790899 128.926641 
L 185.035552 123.404419 
L 185.280205 101.087024 
L 185.524858 94.130294 
L 185.769511 94.536526 
L 186.258817 107.485185 
L 186.50347 107.256679 
L 186.748123 111.23014 
L 186.992776 104.54 
L 187.237429 110.747739 
L 187.482082 107.650217 
L 187.726735 109.706769 
L 187.971388 106.393435 
L 188.216041 105.415939 
L 188.460694 104.997011 
L 188.705347 103.854483 
L 188.95 100.807739 
L 189.194653 102.585006 
L 189.439306 103.321303 
L 189.683959 105.174738 
L 189.928612 104.463831 
L 190.417918 109.579821 
L 190.662571 105.149349 
L 191.151877 109.567126 
L 191.39653 109.490958 
L 191.641183 108.58963 
L 191.885836 93.063934 
L 192.130489 91.210498 
L 192.375142 96.897752 
L 192.619795 95.222043 
L 192.864448 95.602886 
L 193.109101 102.064521 
L 193.598407 103.333997 
L 193.84306 104.984317 
L 194.087713 115.27977 
L 194.332366 105.923729 
L 194.577019 101.683678 
L 194.821672 89.991801 
L 195.310978 110.582707 
L 195.800284 101.137803 
L 196.044937 105.415939 
L 196.534243 100.78235 
L 196.778896 105.123959 
L 197.023549 111.991826 
L 197.268202 107.434406 
L 197.512855 105.123959 
L 197.757508 107.409017 
L 198.002161 108.399208 
L 198.246814 107.015479 
L 199.225426 133.776041 
L 199.714732 109.92258 
L 199.959385 112.296501 
L 200.448691 97.329374 
L 200.937997 105.060485 
L 201.427303 99.360536 
L 201.671956 93.228965 
L 201.916609 99.665211 
L 202.161262 77.017752 
L 202.405915 78.236449 
L 202.650568 83.428608 
L 202.895221 72.117573 
L 203.139875 79.417062 
L 203.384528 80.521507 
L 203.629181 80.623065 
L 203.873834 70.289527 
L 204.118487 66.303372 
L 204.36314 64.297599 
L 204.607793 70.061022 
L 204.852446 65.198927 
L 205.097099 71.368582 
L 205.586405 78.642682 
L 206.075711 67.344342 
L 206.320364 71.76212 
L 206.565017 70.886181 
L 206.80967 68.321839 
L 207.298976 80.953129 
L 208.032935 88.760409 
L 208.277588 89.7506 
L 208.522241 100.033359 
L 208.766894 90.436117 
L 209.011547 94.8412 
L 209.2562 95.10779 
L 209.500853 89.902937 
L 209.745506 97.964112 
L 209.990159 101.04894 
L 210.234812 91.553257 
L 210.724118 82.946207 
L 211.458077 87.313206 
L 211.70273 85.815223 
L 211.947383 91.769068 
L 212.192036 90.169527 
L 212.436689 90.57576 
L 212.681342 98.928914 
L 212.925995 101.455172 
L 213.170648 99.512874 
L 213.659954 89.725211 
L 214.393913 105.961813 
L 214.883219 102.585006 
L 215.127872 100.020664 
L 215.372525 101.544036 
L 215.617178 89.890243 
L 215.861831 90.905824 
L 216.106484 84.190294 
L 216.351137 93.444776 
L 216.59579 92.670396 
L 216.840443 104.819285 
L 217.085096 103.867177 
L 217.329749 104.146462 
L 217.574402 105.047791 
L 217.819055 106.43152 
L 218.063708 105.949119 
L 218.308361 106.063372 
L 218.553014 114.010294 
L 218.797667 105.403244 
L 219.04232 102.991239 
L 219.286973 123.150524 
L 219.531626 118.516935 
L 219.776279 110.531928 
L 220.020932 117.628301 
L 220.265585 118.580409 
L 220.754891 116.041456 
L 220.999544 119.684853 
L 221.244197 116.765057 
L 221.48885 121.944521 
L 221.733503 120.992414 
L 221.978156 122.655428 
L 222.222809 122.26189 
L 222.467462 121.373257 
L 222.712115 118.136092 
L 222.956768 108.805441 
L 223.446074 115.432107 
L 223.690727 115.063959 
L 223.93538 120.738518 
L 224.180033 123.658314 
L 224.424686 121.474815 
L 224.669339 122.185722 
L 224.913992 124.750064 
L 225.403298 106.355351 
L 225.647952 111.509425 
L 225.892605 107.662912 
L 226.137258 117.539438 
L 226.381911 121.627152 
L 226.626564 121.652541 
L 226.871217 116.041456 
L 227.11587 115.27977 
L 227.360523 115.102043 
L 227.605176 114.251494 
L 227.849829 122.147637 
L 228.094482 121.512899 
L 228.339135 119.088199 
L 228.583788 108.424598 
L 228.828441 103.651366 
L 229.073094 106.913921 
L 229.5624 109.757548 
L 229.807053 114.898927 
L 230.051706 122.845849 
L 230.541012 109.541737 
L 230.785665 109.643295 
L 231.030318 111.166667 
L 231.274971 109.173589 
L 231.764277 99.195504 
L 232.00893 103.854483 
L 232.498236 126.832005 
L 232.742889 121.639847 
L 232.987542 125.664087 
L 233.232195 134.994738 
L 233.476848 138.016092 
L 233.721501 133.319029 
L 233.966154 134.677369 
L 234.210807 140.770856 
L 234.45546 140.301149 
L 234.944766 138.473103 
L 235.189419 136.873563 
L 235.434072 138.625441 
L 235.923378 133.496756 
L 236.168031 125.651392 
L 236.412684 122.896628 
L 236.90199 130.945109 
L 237.146643 126.666973 
L 237.391296 129.320179 
L 237.635949 128.380766 
L 237.880602 124.166105 
L 238.125255 124.254968 
L 238.369908 123.315556 
L 238.614561 119.342094 
L 238.859214 125.473665 
L 239.103867 124.458084 
L 239.593173 119.278621 
L 239.837826 122.756986 
L 240.082479 122.896628 
L 240.327132 117.94567 
L 240.816438 113.299387 
L 241.061091 112.106079 
L 241.305744 114.010294 
L 241.550397 112.88046 
L 241.79505 115.990677 
L 242.284356 128.063397 
L 242.529009 123.417114 
L 243.018315 130.056475 
L 243.507621 146.648531 
L 243.752274 153.960715 
L 243.996927 137.241711 
L 244.486233 140.796245 
L 244.730886 136.51811 
L 244.975539 140.78355 
L 245.220192 141.913384 
L 245.709498 128.545798 
L 245.954151 128.621967 
L 246.198804 125.867203 
L 246.443457 118.681967 
L 246.68811 115.394023 
L 246.932763 130.703908 
L 247.177416 162.758187 
L 247.422069 167.074406 
L 247.911375 160.346181 
L 248.400682 167.836092 
L 248.645335 163.926105 
L 248.889988 162.631239 
L 249.379294 156.118825 
L 249.623947 161.374457 
L 249.8686 173.015556 
L 250.357906 177.738008 
L 250.602559 174.246948 
L 250.847212 173.599515 
L 251.091865 172.279259 
L 251.581171 185.799183 
L 251.825824 222.994841 
L 252.070477 191.829195 
L 252.31513 204.270064 
L 252.559783 194.939413 
L 253.049089 188.35083 
L 253.293742 200.423551 
L 253.783048 192.717829 
L 254.027701 196.259668 
L 254.272354 189.747254 
L 254.76166 192.463934 
L 255.250966 199.166769 
L 255.495619 204.143116 
L 255.984925 192.590881 
L 256.229578 198.785926 
L 256.474231 199.179464 
L 256.718884 205.222171 
L 256.963537 206.885185 
L 257.20819 215.124087 
L 257.452843 209.970013 
L 257.697496 213.016756 
L 257.942149 212.915198 
L 258.186802 208.129272 
L 258.431455 206.275837 
L 258.676108 208.459336 
L 258.920761 192.019617 
L 259.165414 192.362376 
L 259.65472 199.065211 
L 259.899373 201.566079 
L 260.144026 197.135607 
L 260.388679 201.362963 
L 260.633332 195.89152 
L 260.877985 195.206003 
L 261.122638 192.210038 
L 261.367291 190.813614 
L 261.611944 185.329476 
L 262.10125 190.470856 
L 262.590556 166.731648 
L 262.835209 167.594891 
L 263.079862 161.894943 
L 263.324515 162.834355 
L 263.569168 157.324828 
L 264.058474 134.956654 
L 264.303127 135.324802 
L 264.54778 130.424623 
L 264.792433 131.465594 
L 265.037086 129.688327 
L 265.281739 136.683142 
L 265.526392 130.259591 
L 265.771045 129.497905 
L 266.260351 138.079566 
L 266.505004 128.71083 
L 266.749657 132.151111 
L 266.99431 122.071469 
L 267.238963 117.43788 
L 267.483616 119.3294 
L 267.728269 119.405568 
L 267.972922 121.677931 
L 268.217575 127.682554 
L 268.706881 110.976245 
L 268.951534 110.392286 
L 269.196187 111.153972 
L 269.44084 117.818723 
L 269.685493 117.831418 
L 269.930146 122.52848 
L 270.174799 122.896628 
L 270.419452 125.803729 
L 270.664106 132.925492 
L 270.908759 135.731034 
L 271.153412 133.052439 
L 271.398065 126.616194 
L 271.642718 127.060511 
L 271.887371 133.636398 
L 272.132024 135.845287 
L 272.376677 130.399234 
L 272.62133 131.389425 
L 272.865983 131.021277 
L 273.110636 139.107842 
L 273.599942 134.09341 
L 273.844595 139.933001 
L 274.089248 151.726437 
L 274.333901 144.845875 
L 274.578554 146.978595 
L 274.823207 158.061124 
L 275.06786 156.423499 
L 275.312513 163.519872 
L 275.557166 163.012082 
L 275.801819 160.66355 
L 276.046472 170.755888 
L 276.291125 173.980358 
L 276.535778 169.207126 
L 276.780431 177.433333 
L 277.025084 171.149425 
L 277.269737 161.552184 
L 277.51439 164.637012 
L 277.759043 170.286181 
L 278.003696 169.753001 
L 278.248349 176.379668 
L 278.493002 179.718391 
L 278.737655 178.41083 
L 278.982308 176.087688 
L 279.226961 184.034611 
L 279.716267 189.099821 
L 279.96092 200.98212 
L 280.205573 200.918646 
L 280.450226 200.613972 
L 280.694879 203.368736 
L 281.428838 178.804368 
L 281.673491 172.101533 
L 281.918144 178.753589 
L 282.162797 170.451213 
L 282.40745 169.613359 
L 282.652103 180.023065 
L 282.896756 178.690115 
L 283.141409 159.406769 
L 283.386062 160.904751 
L 283.630715 163.265977 
L 283.875368 158.835505 
L 284.120021 151.028225 
L 284.364674 157.109017 
L 284.609327 154.671622 
L 284.85398 155.903014 
L 285.098633 159.647969 
L 285.343286 161.539489 
L 285.587939 157.17249 
L 285.832592 157.896092 
L 286.077245 150.19037 
L 286.566551 154.53198 
L 286.811204 148.61622 
L 287.055857 147.245185 
L 287.30051 143.462146 
L 287.545163 146.673921 
L 287.789816 143.716041 
L 288.034469 151.510626 
L 288.279122 146.597752 
L 288.523775 146.420026 
L 288.768428 139.336347 
L 289.013081 141.329425 
L 289.257734 142.205364 
L 289.502387 140.174202 
L 289.74704 143.677957 
L 289.991693 148.832031 
L 290.236346 146.077267 
L 290.480999 147.52447 
L 290.725652 146.051877 
L 290.970305 145.709119 
L 291.459611 134.347305 
L 291.704264 133.915683 
L 291.948917 138.231903 
L 292.19357 136.302299 
L 292.438223 136.22613 
L 292.682876 135.515224 
L 292.92753 140.631213 
L 293.172183 139.514074 
L 293.416836 142.345006 
L 293.661489 143.817599 
L 293.906142 144.03341 
L 294.150795 141.304036 
L 294.395448 146.597752 
L 294.640101 158.695862 
L 294.884754 163.469093 
L 295.129407 156.360026 
L 295.37406 161.095172 
L 295.618713 171.339847 
L 295.863366 165.106718 
L 296.108019 171.289068 
L 296.352672 173.624904 
L 296.597325 177.915734 
L 296.841978 176.316194 
L 297.086631 167.848787 
L 297.331284 166.376194 
L 297.575937 167.645671 
L 297.82059 166.807816 
L 298.309896 164.091137 
L 298.554549 157.185185 
L 298.799202 158.200766 
L 299.043855 155.534866 
L 299.288508 146.826258 
L 299.533161 157.769144 
L 299.777814 156.918595 
L 300.022467 157.629502 
L 300.26712 160.054202 
L 300.511773 158.606999 
L 301.001079 168.597778 
L 301.245732 170.400434 
L 301.490385 177.471418 
L 301.735038 179.693001 
L 301.979691 176.709732 
L 302.224344 178.017293 
L 302.468997 171.873027 
L 302.71365 171.682605 
L 302.958303 169.308685 
L 303.202956 175.592593 
L 303.447609 174.297727 
L 303.692262 180.188097 
L 303.936915 180.987867 
L 304.181568 178.626641 
L 304.670874 172.317344 
L 304.915527 172.101533 
L 305.16018 173.142503 
L 305.404833 177.509502 
L 305.649486 175.579898 
L 305.894139 179.756475 
L 306.138792 177.864955 
L 306.383445 166.198467 
L 306.628098 171.923806 
L 306.872751 170.311571 
L 307.362057 175.275224 
L 307.60671 175.072107 
L 307.851363 177.217522 
L 308.096016 176.887459 
L 308.340669 176.138468 
L 308.585322 179.642222 
L 308.829975 178.893231 
L 309.319281 169.994202 
L 309.563934 177.471418 
L 309.808587 179.007484 
L 310.05324 176.01152 
L 310.297893 177.331775 
L 310.542546 175.300613 
L 310.787199 174.310422 
L 311.031852 169.676833 
L 311.276505 171.263678 
L 311.521158 170.552771 
L 311.765811 168.432746 
L 312.010464 169.143653 
L 312.255117 167.049017 
L 312.49977 162.250396 
L 312.744423 161.006309 
L 312.989076 162.212312 
L 313.478382 156.055351 
L 313.723035 160.650856 
L 313.967688 160.930141 
L 314.212341 164.027663 
L 314.701647 161.120562 
L 314.9463 160.701635 
L 315.190953 163.215198 
L 315.435607 163.710294 
L 316.169566 141.519847 
L 316.414219 141.824521 
L 316.658872 145.137854 
L 316.903525 155.801456 
L 317.148178 149.822222 
L 317.392831 150.825109 
L 317.637484 149.695275 
L 317.882137 145.404444 
L 318.12679 145.747203 
L 318.371443 144.947433 
L 318.616096 143.398672 
L 318.860749 131.782963 
L 319.350055 141.265951 
L 319.594708 141.938774 
L 319.839361 144.845875 
L 320.084014 144.985517 
L 320.328667 148.34963 
L 320.57332 149.758748 
L 320.817973 148.286156 
L 321.062626 145.886845 
L 321.551932 150.533129 
L 321.796585 151.878774 
L 322.041238 151.84069 
L 322.530544 161.869553 
L 322.775197 157.832618 
L 323.01985 159.482937 
L 323.264503 156.004572 
L 323.509156 156.537752 
L 323.753809 158.759336 
L 323.998462 159.965338 
L 324.487768 150.837803 
L 324.732421 159.711443 
L 324.977074 161.653742 
L 325.221727 152.424649 
L 325.955686 161.552184 
L 326.200339 168.597778 
L 326.444992 170.578161 
L 326.689645 164.281558 
L 326.934298 164.027663 
L 327.178951 170.501992 
L 327.423604 167.442554 
L 327.668257 175.71954 
L 327.91291 177.979208 
L 328.157563 173.688378 
L 328.402216 173.409093 
L 328.646869 169.219821 
L 329.136175 172.406207 
L 329.380828 169.232516 
L 329.625481 174.488148 
L 329.870134 172.406207 
L 330.114787 172.241175 
L 330.35944 171.124036 
L 330.604093 166.07152 
L 330.848746 169.207126 
L 331.093399 175.008634 
L 331.338052 176.570089 
L 331.582705 172.393512 
L 331.827358 171.72069 
L 332.072011 167.42986 
L 332.316664 167.975734 
L 332.561317 167.798008 
L 332.80597 166.909374 
L 333.050623 164.916296 
L 333.295276 167.061711 
L 333.784582 173.117114 
L 334.029235 173.345619 
L 334.273888 172.406207 
L 334.518541 174.577012 
L 334.763194 174.589706 
L 335.007847 174.14539 
L 335.2525 172.25387 
L 335.497153 171.631826 
L 335.741806 170.171929 
L 335.986459 170.755888 
L 336.720418 158.086513 
L 337.209724 153.579872 
L 337.454377 153.909936 
L 337.943684 155.903014 
L 338.188337 158.975147 
L 338.43299 155.154023 
L 339.166949 161.057088 
L 339.411602 156.283857 
L 339.656255 156.6647 
L 339.900908 156.347331 
L 340.390214 162.04728 
L 340.634867 161.387152 
L 340.87952 157.515249 
L 341.124173 161.602963 
L 341.613479 158.708557 
L 341.858132 153.897241 
L 342.102785 154.430421 
L 342.836744 147.651418 
L 343.32605 148.730473 
L 343.570703 148.768557 
L 343.815356 148.387714 
L 344.060009 146.7247 
L 344.304662 147.016679 
L 344.549315 143.347893 
L 345.038621 159.495632 
L 345.283274 162.504291 
L 345.527927 157.883397 
L 346.017233 160.308097 
L 346.261886 160.790498 
L 346.506539 162.542376 
L 346.751192 161.22212 
L 346.995845 160.942835 
L 347.485151 162.390038 
L 347.974457 162.237701 
L 348.21911 161.564879 
L 348.463763 157.312133 
L 348.708416 157.045543 
L 348.953069 156.537752 
L 349.197722 166.287331 
L 349.442375 167.645671 
L 349.687028 165.563729 
L 349.931681 170.844751 
L 350.176334 167.417165 
L 350.420987 166.058825 
L 350.66564 163.88802 
L 350.910293 164.20539 
L 351.399599 160.016118 
L 351.644252 159.267126 
L 351.888905 161.234815 
L 352.133558 161.387152 
L 352.378211 163.139029 
L 352.622864 161.019004 
L 352.867517 162.923218 
L 353.11217 161.552184 
L 353.356823 162.745492 
L 353.601476 161.856858 
L 353.846129 158.924368 
L 354.090782 154.646232 
L 354.335435 152.856271 
L 354.580088 153.364061 
L 354.824741 149.733359 
L 355.069394 143.335198 
L 355.314047 143.449451 
L 355.5587 151.993027 
L 356.292659 154.620843 
L 356.781965 158.061124 
L 357.026618 155.268276 
L 357.271271 154.760485 
L 357.515924 150.355402 
L 357.760577 148.870115 
L 358.00523 145.429834 
L 358.249883 144.376169 
L 358.494536 144.693538 
L 358.739189 143.246335 
L 358.983842 149.961865 
L 359.228495 149.339821 
L 359.473148 140.669298 
L 359.717801 137.241711 
L 359.962454 139.361737 
L 360.207107 139.107842 
L 360.451761 137.140153 
L 360.696414 139.47599 
L 360.941067 140.732771 
L 361.18572 145.556782 
L 361.430373 142.446565 
L 361.675026 142.306922 
L 361.919679 144.820485 
L 362.164332 145.442529 
L 362.408985 138.638135 
L 362.898291 153.364061 
L 363.142944 151.434457 
L 363.387597 152.602376 
L 363.63225 158.200766 
L 363.876903 157.921482 
L 364.121556 157.959566 
L 364.610862 154.455811 
L 364.855515 154.316169 
L 365.100168 152.957829 
L 365.344821 152.61507 
L 365.834127 157.17249 
L 366.07878 156.486973 
L 366.323433 152.805492 
L 366.568086 153.491009 
L 366.812739 145.277497 
L 367.302045 151.091699 
L 367.546698 150.431571 
L 367.791351 149.301737 
L 368.280657 143.881073 
L 368.52531 143.220945 
L 368.769963 141.786437 
L 369.014616 144.185747 
L 369.259269 139.653716 
L 369.503922 137.800281 
L 369.748575 139.4506 
L 369.993228 135.629476 
L 370.237881 129.878748 
L 370.482534 131.973384 
L 370.97184 113.997599 
L 371.216493 98.027586 
L 371.461146 93.520945 
L 371.950452 101.31553 
L 372.195105 93.343218 
L 372.439758 95.475939 
L 372.929064 93.457471 
L 373.173717 93.063934 
L 373.41837 104.362273 
L 373.663023 98.129144 
L 374.152329 92.429195 
L 374.396982 94.434968 
L 374.641635 101.60751 
L 374.886288 98.141839 
L 375.130941 96.885057 
L 375.375594 96.428046 
L 375.620247 94.815811 
L 375.8649 96.288404 
L 376.109553 95.069706 
L 376.354206 107.662912 
L 376.598859 100.299949 
L 376.843512 97.507101 
L 377.332818 88.252618 
L 377.577471 94.968148 
L 377.822124 94.968148 
L 378.066777 86.361098 
L 378.31143 86.856194 
L 378.800736 80.280306 
L 379.045389 83.542861 
L 379.290042 79.899464 
L 379.534695 81.270498 
L 379.779348 78.426871 
L 380.024001 79.099693 
L 380.268654 78.198365 
L 380.513307 79.962937 
L 380.75796 77.360511 
L 381.002613 81.905236 
L 381.247266 77.170089 
L 381.491919 79.137778 
L 381.736572 74.618442 
L 381.981225 66.252592 
L 382.225878 64.500715 
L 382.470531 69.248557 
L 382.715184 68.956577 
L 382.959838 71.063908 
L 383.204491 66.836552 
L 383.693797 50.460306 
L 383.93845 52.402605 
L 384.183103 51.666309 
L 384.427756 45.483959 
L 384.672409 34.414125 
L 384.917062 37.714764 
L 385.161715 48.936935 
L 385.406368 41.14235 
L 385.651021 44.062145 
L 385.895674 43.935198 
L 386.140327 45.864802 
L 386.38498 49.19083 
L 386.629633 74.885032 
L 386.874286 75.976782 
L 387.118939 79.734432 
L 387.363592 67.407816 
L 387.608245 69.108914 
L 387.852898 73.831366 
L 387.852898 73.831366 
" style="fill:none;stroke:#ff7f0e;stroke-linecap:square;stroke-width:1.5;"/>
   </g>
   <g id="patch_3">
    <path d="M 46.965625 288.430125 
L 46.965625 22.318125 
" style="fill:none;stroke:#000000;stroke-linecap:square;stroke-linejoin:miter;stroke-width:0.8;"/>
   </g>
   <g id="patch_4">
    <path d="M 404.085625 288.430125 
L 404.085625 22.318125 
" style="fill:none;stroke:#000000;stroke-linecap:square;stroke-linejoin:miter;stroke-width:0.8;"/>
   </g>
   <g id="patch_5">
    <path d="M 46.965625 288.430125 
L 404.085625 288.430125 
" style="fill:none;stroke:#000000;stroke-linecap:square;stroke-linejoin:miter;stroke-width:0.8;"/>
   </g>
   <g id="patch_6">
    <path d="M 46.965625 22.318125 
L 404.085625 22.318125 
" style="fill:none;stroke:#000000;stroke-linecap:square;stroke-linejoin:miter;stroke-width:0.8;"/>
   </g>
   <g id="text_19">
    <!-- Training: BIDU -->
    <defs>
     <path d="M -0.296875 72.90625 
L 61.375 72.90625 
L 61.375 64.59375 
L 35.5 64.59375 
L 35.5 0 
L 25.59375 0 
L 25.59375 64.59375 
L -0.296875 64.59375 
z
" id="DejaVuSans-84"/>
     <path d="M 54.890625 33.015625 
L 54.890625 0 
L 45.90625 0 
L 45.90625 32.71875 
Q 45.90625 40.484375 42.875 44.328125 
Q 39.84375 48.1875 33.796875 48.1875 
Q 26.515625 48.1875 22.3125 43.546875 
Q 18.109375 38.921875 18.109375 30.90625 
L 18.109375 0 
L 9.078125 0 
L 9.078125 54.6875 
L 18.109375 54.6875 
L 18.109375 46.1875 
Q 21.34375 51.125 25.703125 53.5625 
Q 30.078125 56 35.796875 56 
Q 45.21875 56 50.046875 50.171875 
Q 54.890625 44.34375 54.890625 33.015625 
z
" id="DejaVuSans-110"/>
     <path d="M 45.40625 27.984375 
Q 45.40625 37.75 41.375 43.109375 
Q 37.359375 48.484375 30.078125 48.484375 
Q 22.859375 48.484375 18.828125 43.109375 
Q 14.796875 37.75 14.796875 27.984375 
Q 14.796875 18.265625 18.828125 12.890625 
Q 22.859375 7.515625 30.078125 7.515625 
Q 37.359375 7.515625 41.375 12.890625 
Q 45.40625 18.265625 45.40625 27.984375 
z
M 54.390625 6.78125 
Q 54.390625 -7.171875 48.1875 -13.984375 
Q 42 -20.796875 29.203125 -20.796875 
Q 24.46875 -20.796875 20.265625 -20.09375 
Q 16.0625 -19.390625 12.109375 -17.921875 
L 12.109375 -9.1875 
Q 16.0625 -11.328125 19.921875 -12.34375 
Q 23.78125 -13.375 27.78125 -13.375 
Q 36.625 -13.375 41.015625 -8.765625 
Q 45.40625 -4.15625 45.40625 5.171875 
L 45.40625 9.625 
Q 42.625 4.78125 38.28125 2.390625 
Q 33.9375 0 27.875 0 
Q 17.828125 0 11.671875 7.65625 
Q 5.515625 15.328125 5.515625 27.984375 
Q 5.515625 40.671875 11.671875 48.328125 
Q 17.828125 56 27.875 56 
Q 33.9375 56 38.28125 53.609375 
Q 42.625 51.21875 45.40625 46.390625 
L 45.40625 54.6875 
L 54.390625 54.6875 
z
" id="DejaVuSans-103"/>
     <path d="M 11.71875 12.40625 
L 22.015625 12.40625 
L 22.015625 0 
L 11.71875 0 
z
M 11.71875 51.703125 
L 22.015625 51.703125 
L 22.015625 39.3125 
L 11.71875 39.3125 
z
" id="DejaVuSans-58"/>
     <path d="M 19.671875 34.8125 
L 19.671875 8.109375 
L 35.5 8.109375 
Q 43.453125 8.109375 47.28125 11.40625 
Q 51.125 14.703125 51.125 21.484375 
Q 51.125 28.328125 47.28125 31.5625 
Q 43.453125 34.8125 35.5 34.8125 
z
M 19.671875 64.796875 
L 19.671875 42.828125 
L 34.28125 42.828125 
Q 41.5 42.828125 45.03125 45.53125 
Q 48.578125 48.25 48.578125 53.8125 
Q 48.578125 59.328125 45.03125 62.0625 
Q 41.5 64.796875 34.28125 64.796875 
z
M 9.8125 72.90625 
L 35.015625 72.90625 
Q 46.296875 72.90625 52.390625 68.21875 
Q 58.5 63.53125 58.5 54.890625 
Q 58.5 48.1875 55.375 44.234375 
Q 52.25 40.28125 46.1875 39.3125 
Q 53.46875 37.75 57.5 32.78125 
Q 61.53125 27.828125 61.53125 20.40625 
Q 61.53125 10.640625 54.890625 5.3125 
Q 48.25 0 35.984375 0 
L 9.8125 0 
z
" id="DejaVuSans-66"/>
     <path d="M 9.8125 72.90625 
L 19.671875 72.90625 
L 19.671875 0 
L 9.8125 0 
z
" id="DejaVuSans-73"/>
     <path d="M 8.6875 72.90625 
L 18.609375 72.90625 
L 18.609375 28.609375 
Q 18.609375 16.890625 22.84375 11.734375 
Q 27.09375 6.59375 36.625 6.59375 
Q 46.09375 6.59375 50.34375 11.734375 
Q 54.59375 16.890625 54.59375 28.609375 
L 54.59375 72.90625 
L 64.5 72.90625 
L 64.5 27.390625 
Q 64.5 13.140625 57.4375 5.859375 
Q 50.390625 -1.421875 36.625 -1.421875 
Q 22.796875 -1.421875 15.734375 5.859375 
Q 8.6875 13.140625 8.6875 27.390625 
z
" id="DejaVuSans-85"/>
    </defs>
    <g transform="translate(183.02875 16.318125)scale(0.12 -0.12)">
     <use xlink:href="#DejaVuSans-84"/>
     <use x="46.333984" xlink:href="#DejaVuSans-114"/>
     <use x="87.447266" xlink:href="#DejaVuSans-97"/>
     <use x="148.726562" xlink:href="#DejaVuSans-105"/>
     <use x="176.509766" xlink:href="#DejaVuSans-110"/>
     <use x="239.888672" xlink:href="#DejaVuSans-105"/>
     <use x="267.671875" xlink:href="#DejaVuSans-110"/>
     <use x="331.050781" xlink:href="#DejaVuSans-103"/>
     <use x="394.527344" xlink:href="#DejaVuSans-58"/>
     <use x="428.21875" xlink:href="#DejaVuSans-32"/>
     <use x="460.005859" xlink:href="#DejaVuSans-66"/>
     <use x="528.609375" xlink:href="#DejaVuSans-73"/>
     <use x="558.101562" xlink:href="#DejaVuSans-68"/>
     <use x="635.103516" xlink:href="#DejaVuSans-85"/>
    </g>
   </g>
   <g id="legend_1">
    <g id="patch_7">
     <path d="M 53.965625 59.674375 
L 137.69375 59.674375 
Q 139.69375 59.674375 139.69375 57.674375 
L 139.69375 29.318125 
Q 139.69375 27.318125 137.69375 27.318125 
L 53.965625 27.318125 
Q 51.965625 27.318125 51.965625 29.318125 
L 51.965625 57.674375 
Q 51.965625 59.674375 53.965625 59.674375 
z
" style="fill:#ffffff;opacity:0.8;stroke:#cccccc;stroke-linejoin:miter;"/>
    </g>
    <g id="line2d_35">
     <path d="M 55.965625 35.416562 
L 75.965625 35.416562 
" style="fill:none;stroke:#1f77b4;stroke-linecap:square;stroke-width:1.5;"/>
    </g>
    <g id="line2d_36"/>
    <g id="text_20">
     <!-- Predicted -->
     <defs>
      <path d="M 45.40625 46.390625 
L 45.40625 75.984375 
L 54.390625 75.984375 
L 54.390625 0 
L 45.40625 0 
L 45.40625 8.203125 
Q 42.578125 3.328125 38.25 0.953125 
Q 33.9375 -1.421875 27.875 -1.421875 
Q 17.96875 -1.421875 11.734375 6.484375 
Q 5.515625 14.40625 5.515625 27.296875 
Q 5.515625 40.1875 11.734375 48.09375 
Q 17.96875 56 27.875 56 
Q 33.9375 56 38.25 53.625 
Q 42.578125 51.265625 45.40625 46.390625 
z
M 14.796875 27.296875 
Q 14.796875 17.390625 18.875 11.75 
Q 22.953125 6.109375 30.078125 6.109375 
Q 37.203125 6.109375 41.296875 11.75 
Q 45.40625 17.390625 45.40625 27.296875 
Q 45.40625 37.203125 41.296875 42.84375 
Q 37.203125 48.484375 30.078125 48.484375 
Q 22.953125 48.484375 18.875 42.84375 
Q 14.796875 37.203125 14.796875 27.296875 
z
" id="DejaVuSans-100"/>
      <path d="M 18.3125 70.21875 
L 18.3125 54.6875 
L 36.8125 54.6875 
L 36.8125 47.703125 
L 18.3125 47.703125 
L 18.3125 18.015625 
Q 18.3125 11.328125 20.140625 9.421875 
Q 21.96875 7.515625 27.59375 7.515625 
L 36.8125 7.515625 
L 36.8125 0 
L 27.59375 0 
Q 17.1875 0 13.234375 3.875 
Q 9.28125 7.765625 9.28125 18.015625 
L 9.28125 47.703125 
L 2.6875 47.703125 
L 2.6875 54.6875 
L 9.28125 54.6875 
L 9.28125 70.21875 
z
" id="DejaVuSans-116"/>
     </defs>
     <g transform="translate(83.965625 38.916562)scale(0.1 -0.1)">
      <use xlink:href="#DejaVuSans-80"/>
      <use x="58.552734" xlink:href="#DejaVuSans-114"/>
      <use x="97.416016" xlink:href="#DejaVuSans-101"/>
      <use x="158.939453" xlink:href="#DejaVuSans-100"/>
      <use x="222.416016" xlink:href="#DejaVuSans-105"/>
      <use x="250.199219" xlink:href="#DejaVuSans-99"/>
      <use x="305.179688" xlink:href="#DejaVuSans-116"/>
      <use x="344.388672" xlink:href="#DejaVuSans-101"/>
      <use x="405.912109" xlink:href="#DejaVuSans-100"/>
     </g>
    </g>
    <g id="line2d_37">
     <path d="M 55.965625 50.094687 
L 75.965625 50.094687 
" style="fill:none;stroke:#ff7f0e;stroke-linecap:square;stroke-width:1.5;"/>
    </g>
    <g id="line2d_38"/>
    <g id="text_21">
     <!-- True value -->
     <defs>
      <path d="M 8.5 21.578125 
L 8.5 54.6875 
L 17.484375 54.6875 
L 17.484375 21.921875 
Q 17.484375 14.15625 20.5 10.265625 
Q 23.53125 6.390625 29.59375 6.390625 
Q 36.859375 6.390625 41.078125 11.03125 
Q 45.3125 15.671875 45.3125 23.6875 
L 45.3125 54.6875 
L 54.296875 54.6875 
L 54.296875 0 
L 45.3125 0 
L 45.3125 8.40625 
Q 42.046875 3.421875 37.71875 1 
Q 33.40625 -1.421875 27.6875 -1.421875 
Q 18.265625 -1.421875 13.375 4.4375 
Q 8.5 10.296875 8.5 21.578125 
z
M 31.109375 56 
z
" id="DejaVuSans-117"/>
      <path d="M 2.984375 54.6875 
L 12.5 54.6875 
L 29.59375 8.796875 
L 46.6875 54.6875 
L 56.203125 54.6875 
L 35.6875 0 
L 23.484375 0 
z
" id="DejaVuSans-118"/>
      <path d="M 9.421875 75.984375 
L 18.40625 75.984375 
L 18.40625 0 
L 9.421875 0 
z
" id="DejaVuSans-108"/>
     </defs>
     <g transform="translate(83.965625 53.594687)scale(0.1 -0.1)">
      <use xlink:href="#DejaVuSans-84"/>
      <use x="46.333984" xlink:href="#DejaVuSans-114"/>
      <use x="87.447266" xlink:href="#DejaVuSans-117"/>
      <use x="150.826172" xlink:href="#DejaVuSans-101"/>
      <use x="212.349609" xlink:href="#DejaVuSans-32"/>
      <use x="244.136719" xlink:href="#DejaVuSans-118"/>
      <use x="303.316406" xlink:href="#DejaVuSans-97"/>
      <use x="364.595703" xlink:href="#DejaVuSans-108"/>
      <use x="392.378906" xlink:href="#DejaVuSans-117"/>
      <use x="455.757812" xlink:href="#DejaVuSans-101"/>
     </g>
    </g>
   </g>
  </g>
 </g>
 <defs>
  <clipPath id="p4f2d9ecc06">
   <rect height="266.112" width="357.12" x="46.965625" y="22.318125"/>
  </clipPath>
 </defs>
</svg>
