<?xml version="1.0" encoding="utf-8" standalone="no"?>
<!DOCTYPE svg PUBLIC "-//W3C//DTD SVG 1.1//EN"
  "http://www.w3.org/Graphics/SVG/1.1/DTD/svg11.dtd">
<!-- Created with matplotlib (https://matplotlib.org/) -->
<svg height="325.986375pt" version="1.1" viewBox="0 0 404.923125 325.986375" width="404.923125pt" xmlns="http://www.w3.org/2000/svg" xmlns:xlink="http://www.w3.org/1999/xlink">
 <defs>
  <style type="text/css">
*{stroke-linecap:butt;stroke-linejoin:round;}
  </style>
 </defs>
 <g id="figure_1">
  <g id="patch_1">
   <path d="M 0 325.986375 
L 404.923125 325.986375 
L 404.923125 0 
L 0 0 
z
" style="fill:#ffffff;"/>
  </g>
  <g id="axes_1">
   <g id="patch_2">
    <path d="M 40.603125 288.430125 
L 397.723125 288.430125 
L 397.723125 22.318125 
L 40.603125 22.318125 
z
" style="fill:#ffffff;"/>
   </g>
   <g id="matplotlib.axis_1">
    <g id="xtick_1">
     <g id="line2d_1">
      <path clip-path="url(#p293c7984cc)" d="M 56.835852 288.430125 
L 56.835852 22.318125 
" style="fill:none;stroke:#b0b0b0;stroke-dasharray:2.96,1.28;stroke-dashoffset:0;stroke-width:0.8;"/>
     </g>
     <g id="line2d_2">
      <defs>
       <path d="M 0 0 
L 0 3.5 
" id="mcb68d048cd" style="stroke:#000000;stroke-width:0.8;"/>
      </defs>
      <g>
       <use style="stroke:#000000;stroke-width:0.8;" x="56.835852" xlink:href="#mcb68d048cd" y="288.430125"/>
      </g>
     </g>
     <g id="text_1">
      <!-- 0 -->
      <defs>
       <path d="M 31.78125 66.40625 
Q 24.171875 66.40625 20.328125 58.90625 
Q 16.5 51.421875 16.5 36.375 
Q 16.5 21.390625 20.328125 13.890625 
Q 24.171875 6.390625 31.78125 6.390625 
Q 39.453125 6.390625 43.28125 13.890625 
Q 47.125 21.390625 47.125 36.375 
Q 47.125 51.421875 43.28125 58.90625 
Q 39.453125 66.40625 31.78125 66.40625 
z
M 31.78125 74.21875 
Q 44.046875 74.21875 50.515625 64.515625 
Q 56.984375 54.828125 56.984375 36.375 
Q 56.984375 17.96875 50.515625 8.265625 
Q 44.046875 -1.421875 31.78125 -1.421875 
Q 19.53125 -1.421875 13.0625 8.265625 
Q 6.59375 17.96875 6.59375 36.375 
Q 6.59375 54.828125 13.0625 64.515625 
Q 19.53125 74.21875 31.78125 74.21875 
z
" id="DejaVuSans-48"/>
      </defs>
      <g transform="translate(53.654602 303.028562)scale(0.1 -0.1)">
       <use xlink:href="#DejaVuSans-48"/>
      </g>
     </g>
    </g>
    <g id="xtick_2">
     <g id="line2d_3">
      <path clip-path="url(#p293c7984cc)" d="M 105.766454 288.430125 
L 105.766454 22.318125 
" style="fill:none;stroke:#b0b0b0;stroke-dasharray:2.96,1.28;stroke-dashoffset:0;stroke-width:0.8;"/>
     </g>
     <g id="line2d_4">
      <g>
       <use style="stroke:#000000;stroke-width:0.8;" x="105.766454" xlink:href="#mcb68d048cd" y="288.430125"/>
      </g>
     </g>
     <g id="text_2">
      <!-- 200 -->
      <defs>
       <path d="M 19.1875 8.296875 
L 53.609375 8.296875 
L 53.609375 0 
L 7.328125 0 
L 7.328125 8.296875 
Q 12.9375 14.109375 22.625 23.890625 
Q 32.328125 33.6875 34.8125 36.53125 
Q 39.546875 41.84375 41.421875 45.53125 
Q 43.3125 49.21875 43.3125 52.78125 
Q 43.3125 58.59375 39.234375 62.25 
Q 35.15625 65.921875 28.609375 65.921875 
Q 23.96875 65.921875 18.8125 64.3125 
Q 13.671875 62.703125 7.8125 59.421875 
L 7.8125 69.390625 
Q 13.765625 71.78125 18.9375 73 
Q 24.125 74.21875 28.421875 74.21875 
Q 39.75 74.21875 46.484375 68.546875 
Q 53.21875 62.890625 53.21875 53.421875 
Q 53.21875 48.921875 51.53125 44.890625 
Q 49.859375 40.875 45.40625 35.40625 
Q 44.1875 33.984375 37.640625 27.21875 
Q 31.109375 20.453125 19.1875 8.296875 
z
" id="DejaVuSans-50"/>
      </defs>
      <g transform="translate(96.222704 303.028562)scale(0.1 -0.1)">
       <use xlink:href="#DejaVuSans-50"/>
       <use x="63.623047" xlink:href="#DejaVuSans-48"/>
       <use x="127.246094" xlink:href="#DejaVuSans-48"/>
      </g>
     </g>
    </g>
    <g id="xtick_3">
     <g id="line2d_5">
      <path clip-path="url(#p293c7984cc)" d="M 154.697057 288.430125 
L 154.697057 22.318125 
" style="fill:none;stroke:#b0b0b0;stroke-dasharray:2.96,1.28;stroke-dashoffset:0;stroke-width:0.8;"/>
     </g>
     <g id="line2d_6">
      <g>
       <use style="stroke:#000000;stroke-width:0.8;" x="154.697057" xlink:href="#mcb68d048cd" y="288.430125"/>
      </g>
     </g>
     <g id="text_3">
      <!-- 400 -->
      <defs>
       <path d="M 37.796875 64.3125 
L 12.890625 25.390625 
L 37.796875 25.390625 
z
M 35.203125 72.90625 
L 47.609375 72.90625 
L 47.609375 25.390625 
L 58.015625 25.390625 
L 58.015625 17.1875 
L 47.609375 17.1875 
L 47.609375 0 
L 37.796875 0 
L 37.796875 17.1875 
L 4.890625 17.1875 
L 4.890625 26.703125 
z
" id="DejaVuSans-52"/>
      </defs>
      <g transform="translate(145.153307 303.028562)scale(0.1 -0.1)">
       <use xlink:href="#DejaVuSans-52"/>
       <use x="63.623047" xlink:href="#DejaVuSans-48"/>
       <use x="127.246094" xlink:href="#DejaVuSans-48"/>
      </g>
     </g>
    </g>
    <g id="xtick_4">
     <g id="line2d_7">
      <path clip-path="url(#p293c7984cc)" d="M 203.627659 288.430125 
L 203.627659 22.318125 
" style="fill:none;stroke:#b0b0b0;stroke-dasharray:2.96,1.28;stroke-dashoffset:0;stroke-width:0.8;"/>
     </g>
     <g id="line2d_8">
      <g>
       <use style="stroke:#000000;stroke-width:0.8;" x="203.627659" xlink:href="#mcb68d048cd" y="288.430125"/>
      </g>
     </g>
     <g id="text_4">
      <!-- 600 -->
      <defs>
       <path d="M 33.015625 40.375 
Q 26.375 40.375 22.484375 35.828125 
Q 18.609375 31.296875 18.609375 23.390625 
Q 18.609375 15.53125 22.484375 10.953125 
Q 26.375 6.390625 33.015625 6.390625 
Q 39.65625 6.390625 43.53125 10.953125 
Q 47.40625 15.53125 47.40625 23.390625 
Q 47.40625 31.296875 43.53125 35.828125 
Q 39.65625 40.375 33.015625 40.375 
z
M 52.59375 71.296875 
L 52.59375 62.3125 
Q 48.875 64.0625 45.09375 64.984375 
Q 41.3125 65.921875 37.59375 65.921875 
Q 27.828125 65.921875 22.671875 59.328125 
Q 17.53125 52.734375 16.796875 39.40625 
Q 19.671875 43.65625 24.015625 45.921875 
Q 28.375 48.1875 33.59375 48.1875 
Q 44.578125 48.1875 50.953125 41.515625 
Q 57.328125 34.859375 57.328125 23.390625 
Q 57.328125 12.15625 50.6875 5.359375 
Q 44.046875 -1.421875 33.015625 -1.421875 
Q 20.359375 -1.421875 13.671875 8.265625 
Q 6.984375 17.96875 6.984375 36.375 
Q 6.984375 53.65625 15.1875 63.9375 
Q 23.390625 74.21875 37.203125 74.21875 
Q 40.921875 74.21875 44.703125 73.484375 
Q 48.484375 72.75 52.59375 71.296875 
z
" id="DejaVuSans-54"/>
      </defs>
      <g transform="translate(194.083909 303.028562)scale(0.1 -0.1)">
       <use xlink:href="#DejaVuSans-54"/>
       <use x="63.623047" xlink:href="#DejaVuSans-48"/>
       <use x="127.246094" xlink:href="#DejaVuSans-48"/>
      </g>
     </g>
    </g>
    <g id="xtick_5">
     <g id="line2d_9">
      <path clip-path="url(#p293c7984cc)" d="M 252.558261 288.430125 
L 252.558261 22.318125 
" style="fill:none;stroke:#b0b0b0;stroke-dasharray:2.96,1.28;stroke-dashoffset:0;stroke-width:0.8;"/>
     </g>
     <g id="line2d_10">
      <g>
       <use style="stroke:#000000;stroke-width:0.8;" x="252.558261" xlink:href="#mcb68d048cd" y="288.430125"/>
      </g>
     </g>
     <g id="text_5">
      <!-- 800 -->
      <defs>
       <path d="M 31.78125 34.625 
Q 24.75 34.625 20.71875 30.859375 
Q 16.703125 27.09375 16.703125 20.515625 
Q 16.703125 13.921875 20.71875 10.15625 
Q 24.75 6.390625 31.78125 6.390625 
Q 38.8125 6.390625 42.859375 10.171875 
Q 46.921875 13.96875 46.921875 20.515625 
Q 46.921875 27.09375 42.890625 30.859375 
Q 38.875 34.625 31.78125 34.625 
z
M 21.921875 38.8125 
Q 15.578125 40.375 12.03125 44.71875 
Q 8.5 49.078125 8.5 55.328125 
Q 8.5 64.0625 14.71875 69.140625 
Q 20.953125 74.21875 31.78125 74.21875 
Q 42.671875 74.21875 48.875 69.140625 
Q 55.078125 64.0625 55.078125 55.328125 
Q 55.078125 49.078125 51.53125 44.71875 
Q 48 40.375 41.703125 38.8125 
Q 48.828125 37.15625 52.796875 32.3125 
Q 56.78125 27.484375 56.78125 20.515625 
Q 56.78125 9.90625 50.3125 4.234375 
Q 43.84375 -1.421875 31.78125 -1.421875 
Q 19.734375 -1.421875 13.25 4.234375 
Q 6.78125 9.90625 6.78125 20.515625 
Q 6.78125 27.484375 10.78125 32.3125 
Q 14.796875 37.15625 21.921875 38.8125 
z
M 18.3125 54.390625 
Q 18.3125 48.734375 21.84375 45.5625 
Q 25.390625 42.390625 31.78125 42.390625 
Q 38.140625 42.390625 41.71875 45.5625 
Q 45.3125 48.734375 45.3125 54.390625 
Q 45.3125 60.0625 41.71875 63.234375 
Q 38.140625 66.40625 31.78125 66.40625 
Q 25.390625 66.40625 21.84375 63.234375 
Q 18.3125 60.0625 18.3125 54.390625 
z
" id="DejaVuSans-56"/>
      </defs>
      <g transform="translate(243.014511 303.028562)scale(0.1 -0.1)">
       <use xlink:href="#DejaVuSans-56"/>
       <use x="63.623047" xlink:href="#DejaVuSans-48"/>
       <use x="127.246094" xlink:href="#DejaVuSans-48"/>
      </g>
     </g>
    </g>
    <g id="xtick_6">
     <g id="line2d_11">
      <path clip-path="url(#p293c7984cc)" d="M 301.488863 288.430125 
L 301.488863 22.318125 
" style="fill:none;stroke:#b0b0b0;stroke-dasharray:2.96,1.28;stroke-dashoffset:0;stroke-width:0.8;"/>
     </g>
     <g id="line2d_12">
      <g>
       <use style="stroke:#000000;stroke-width:0.8;" x="301.488863" xlink:href="#mcb68d048cd" y="288.430125"/>
      </g>
     </g>
     <g id="text_6">
      <!-- 1000 -->
      <defs>
       <path d="M 12.40625 8.296875 
L 28.515625 8.296875 
L 28.515625 63.921875 
L 10.984375 60.40625 
L 10.984375 69.390625 
L 28.421875 72.90625 
L 38.28125 72.90625 
L 38.28125 8.296875 
L 54.390625 8.296875 
L 54.390625 0 
L 12.40625 0 
z
" id="DejaVuSans-49"/>
      </defs>
      <g transform="translate(288.763863 303.028562)scale(0.1 -0.1)">
       <use xlink:href="#DejaVuSans-49"/>
       <use x="63.623047" xlink:href="#DejaVuSans-48"/>
       <use x="127.246094" xlink:href="#DejaVuSans-48"/>
       <use x="190.869141" xlink:href="#DejaVuSans-48"/>
      </g>
     </g>
    </g>
    <g id="xtick_7">
     <g id="line2d_13">
      <path clip-path="url(#p293c7984cc)" d="M 350.419465 288.430125 
L 350.419465 22.318125 
" style="fill:none;stroke:#b0b0b0;stroke-dasharray:2.96,1.28;stroke-dashoffset:0;stroke-width:0.8;"/>
     </g>
     <g id="line2d_14">
      <g>
       <use style="stroke:#000000;stroke-width:0.8;" x="350.419465" xlink:href="#mcb68d048cd" y="288.430125"/>
      </g>
     </g>
     <g id="text_7">
      <!-- 1200 -->
      <g transform="translate(337.694465 303.028562)scale(0.1 -0.1)">
       <use xlink:href="#DejaVuSans-49"/>
       <use x="63.623047" xlink:href="#DejaVuSans-50"/>
       <use x="127.246094" xlink:href="#DejaVuSans-48"/>
       <use x="190.869141" xlink:href="#DejaVuSans-48"/>
      </g>
     </g>
    </g>
    <g id="text_8">
     <!-- Day -->
     <defs>
      <path d="M 19.671875 64.796875 
L 19.671875 8.109375 
L 31.59375 8.109375 
Q 46.6875 8.109375 53.6875 14.9375 
Q 60.6875 21.78125 60.6875 36.53125 
Q 60.6875 51.171875 53.6875 57.984375 
Q 46.6875 64.796875 31.59375 64.796875 
z
M 9.8125 72.90625 
L 30.078125 72.90625 
Q 51.265625 72.90625 61.171875 64.09375 
Q 71.09375 55.28125 71.09375 36.53125 
Q 71.09375 17.671875 61.125 8.828125 
Q 51.171875 0 30.078125 0 
L 9.8125 0 
z
" id="DejaVuSans-68"/>
      <path d="M 34.28125 27.484375 
Q 23.390625 27.484375 19.1875 25 
Q 14.984375 22.515625 14.984375 16.5 
Q 14.984375 11.71875 18.140625 8.90625 
Q 21.296875 6.109375 26.703125 6.109375 
Q 34.1875 6.109375 38.703125 11.40625 
Q 43.21875 16.703125 43.21875 25.484375 
L 43.21875 27.484375 
z
M 52.203125 31.203125 
L 52.203125 0 
L 43.21875 0 
L 43.21875 8.296875 
Q 40.140625 3.328125 35.546875 0.953125 
Q 30.953125 -1.421875 24.3125 -1.421875 
Q 15.921875 -1.421875 10.953125 3.296875 
Q 6 8.015625 6 15.921875 
Q 6 25.140625 12.171875 29.828125 
Q 18.359375 34.515625 30.609375 34.515625 
L 43.21875 34.515625 
L 43.21875 35.40625 
Q 43.21875 41.609375 39.140625 45 
Q 35.0625 48.390625 27.6875 48.390625 
Q 23 48.390625 18.546875 47.265625 
Q 14.109375 46.140625 10.015625 43.890625 
L 10.015625 52.203125 
Q 14.9375 54.109375 19.578125 55.046875 
Q 24.21875 56 28.609375 56 
Q 40.484375 56 46.34375 49.84375 
Q 52.203125 43.703125 52.203125 31.203125 
z
" id="DejaVuSans-97"/>
      <path d="M 32.171875 -5.078125 
Q 28.375 -14.84375 24.75 -17.8125 
Q 21.140625 -20.796875 15.09375 -20.796875 
L 7.90625 -20.796875 
L 7.90625 -13.28125 
L 13.1875 -13.28125 
Q 16.890625 -13.28125 18.9375 -11.515625 
Q 21 -9.765625 23.484375 -3.21875 
L 25.09375 0.875 
L 2.984375 54.6875 
L 12.5 54.6875 
L 29.59375 11.921875 
L 46.6875 54.6875 
L 56.203125 54.6875 
z
" id="DejaVuSans-121"/>
     </defs>
     <g transform="translate(209.289688 316.706687)scale(0.1 -0.1)">
      <use xlink:href="#DejaVuSans-68"/>
      <use x="77.001953" xlink:href="#DejaVuSans-97"/>
      <use x="138.28125" xlink:href="#DejaVuSans-121"/>
     </g>
    </g>
   </g>
   <g id="matplotlib.axis_2">
    <g id="ytick_1">
     <g id="line2d_15">
      <path clip-path="url(#p293c7984cc)" d="M 40.603125 286.423006 
L 397.723125 286.423006 
" style="fill:none;stroke:#b0b0b0;stroke-dasharray:2.96,1.28;stroke-dashoffset:0;stroke-width:0.8;"/>
     </g>
     <g id="line2d_16">
      <defs>
       <path d="M 0 0 
L -3.5 0 
" id="m42e7bb6891" style="stroke:#000000;stroke-width:0.8;"/>
      </defs>
      <g>
       <use style="stroke:#000000;stroke-width:0.8;" x="40.603125" xlink:href="#m42e7bb6891" y="286.423006"/>
      </g>
     </g>
     <g id="text_9">
      <!-- 55 -->
      <defs>
       <path d="M 10.796875 72.90625 
L 49.515625 72.90625 
L 49.515625 64.59375 
L 19.828125 64.59375 
L 19.828125 46.734375 
Q 21.96875 47.46875 24.109375 47.828125 
Q 26.265625 48.1875 28.421875 48.1875 
Q 40.625 48.1875 47.75 41.5 
Q 54.890625 34.8125 54.890625 23.390625 
Q 54.890625 11.625 47.5625 5.09375 
Q 40.234375 -1.421875 26.90625 -1.421875 
Q 22.3125 -1.421875 17.546875 -0.640625 
Q 12.796875 0.140625 7.71875 1.703125 
L 7.71875 11.625 
Q 12.109375 9.234375 16.796875 8.0625 
Q 21.484375 6.890625 26.703125 6.890625 
Q 35.15625 6.890625 40.078125 11.328125 
Q 45.015625 15.765625 45.015625 23.390625 
Q 45.015625 31 40.078125 35.4375 
Q 35.15625 39.890625 26.703125 39.890625 
Q 22.75 39.890625 18.8125 39.015625 
Q 14.890625 38.140625 10.796875 36.28125 
z
" id="DejaVuSans-53"/>
      </defs>
      <g transform="translate(20.878125 290.222225)scale(0.1 -0.1)">
       <use xlink:href="#DejaVuSans-53"/>
       <use x="63.623047" xlink:href="#DejaVuSans-53"/>
      </g>
     </g>
    </g>
    <g id="ytick_2">
     <g id="line2d_17">
      <path clip-path="url(#p293c7984cc)" d="M 40.603125 250.898777 
L 397.723125 250.898777 
" style="fill:none;stroke:#b0b0b0;stroke-dasharray:2.96,1.28;stroke-dashoffset:0;stroke-width:0.8;"/>
     </g>
     <g id="line2d_18">
      <g>
       <use style="stroke:#000000;stroke-width:0.8;" x="40.603125" xlink:href="#m42e7bb6891" y="250.898777"/>
      </g>
     </g>
     <g id="text_10">
      <!-- 60 -->
      <g transform="translate(20.878125 254.697996)scale(0.1 -0.1)">
       <use xlink:href="#DejaVuSans-54"/>
       <use x="63.623047" xlink:href="#DejaVuSans-48"/>
      </g>
     </g>
    </g>
    <g id="ytick_3">
     <g id="line2d_19">
      <path clip-path="url(#p293c7984cc)" d="M 40.603125 215.374548 
L 397.723125 215.374548 
" style="fill:none;stroke:#b0b0b0;stroke-dasharray:2.96,1.28;stroke-dashoffset:0;stroke-width:0.8;"/>
     </g>
     <g id="line2d_20">
      <g>
       <use style="stroke:#000000;stroke-width:0.8;" x="40.603125" xlink:href="#m42e7bb6891" y="215.374548"/>
      </g>
     </g>
     <g id="text_11">
      <!-- 65 -->
      <g transform="translate(20.878125 219.173767)scale(0.1 -0.1)">
       <use xlink:href="#DejaVuSans-54"/>
       <use x="63.623047" xlink:href="#DejaVuSans-53"/>
      </g>
     </g>
    </g>
    <g id="ytick_4">
     <g id="line2d_21">
      <path clip-path="url(#p293c7984cc)" d="M 40.603125 179.850319 
L 397.723125 179.850319 
" style="fill:none;stroke:#b0b0b0;stroke-dasharray:2.96,1.28;stroke-dashoffset:0;stroke-width:0.8;"/>
     </g>
     <g id="line2d_22">
      <g>
       <use style="stroke:#000000;stroke-width:0.8;" x="40.603125" xlink:href="#m42e7bb6891" y="179.850319"/>
      </g>
     </g>
     <g id="text_12">
      <!-- 70 -->
      <defs>
       <path d="M 8.203125 72.90625 
L 55.078125 72.90625 
L 55.078125 68.703125 
L 28.609375 0 
L 18.3125 0 
L 43.21875 64.59375 
L 8.203125 64.59375 
z
" id="DejaVuSans-55"/>
      </defs>
      <g transform="translate(20.878125 183.649538)scale(0.1 -0.1)">
       <use xlink:href="#DejaVuSans-55"/>
       <use x="63.623047" xlink:href="#DejaVuSans-48"/>
      </g>
     </g>
    </g>
    <g id="ytick_5">
     <g id="line2d_23">
      <path clip-path="url(#p293c7984cc)" d="M 40.603125 144.32609 
L 397.723125 144.32609 
" style="fill:none;stroke:#b0b0b0;stroke-dasharray:2.96,1.28;stroke-dashoffset:0;stroke-width:0.8;"/>
     </g>
     <g id="line2d_24">
      <g>
       <use style="stroke:#000000;stroke-width:0.8;" x="40.603125" xlink:href="#m42e7bb6891" y="144.32609"/>
      </g>
     </g>
     <g id="text_13">
      <!-- 75 -->
      <g transform="translate(20.878125 148.125309)scale(0.1 -0.1)">
       <use xlink:href="#DejaVuSans-55"/>
       <use x="63.623047" xlink:href="#DejaVuSans-53"/>
      </g>
     </g>
    </g>
    <g id="ytick_6">
     <g id="line2d_25">
      <path clip-path="url(#p293c7984cc)" d="M 40.603125 108.801861 
L 397.723125 108.801861 
" style="fill:none;stroke:#b0b0b0;stroke-dasharray:2.96,1.28;stroke-dashoffset:0;stroke-width:0.8;"/>
     </g>
     <g id="line2d_26">
      <g>
       <use style="stroke:#000000;stroke-width:0.8;" x="40.603125" xlink:href="#m42e7bb6891" y="108.801861"/>
      </g>
     </g>
     <g id="text_14">
      <!-- 80 -->
      <g transform="translate(20.878125 112.601079)scale(0.1 -0.1)">
       <use xlink:href="#DejaVuSans-56"/>
       <use x="63.623047" xlink:href="#DejaVuSans-48"/>
      </g>
     </g>
    </g>
    <g id="ytick_7">
     <g id="line2d_27">
      <path clip-path="url(#p293c7984cc)" d="M 40.603125 73.277632 
L 397.723125 73.277632 
" style="fill:none;stroke:#b0b0b0;stroke-dasharray:2.96,1.28;stroke-dashoffset:0;stroke-width:0.8;"/>
     </g>
     <g id="line2d_28">
      <g>
       <use style="stroke:#000000;stroke-width:0.8;" x="40.603125" xlink:href="#m42e7bb6891" y="73.277632"/>
      </g>
     </g>
     <g id="text_15">
      <!-- 85 -->
      <g transform="translate(20.878125 77.07685)scale(0.1 -0.1)">
       <use xlink:href="#DejaVuSans-56"/>
       <use x="63.623047" xlink:href="#DejaVuSans-53"/>
      </g>
     </g>
    </g>
    <g id="ytick_8">
     <g id="line2d_29">
      <path clip-path="url(#p293c7984cc)" d="M 40.603125 37.753403 
L 397.723125 37.753403 
" style="fill:none;stroke:#b0b0b0;stroke-dasharray:2.96,1.28;stroke-dashoffset:0;stroke-width:0.8;"/>
     </g>
     <g id="line2d_30">
      <g>
       <use style="stroke:#000000;stroke-width:0.8;" x="40.603125" xlink:href="#m42e7bb6891" y="37.753403"/>
      </g>
     </g>
     <g id="text_16">
      <!-- 90 -->
      <defs>
       <path d="M 10.984375 1.515625 
L 10.984375 10.5 
Q 14.703125 8.734375 18.5 7.8125 
Q 22.3125 6.890625 25.984375 6.890625 
Q 35.75 6.890625 40.890625 13.453125 
Q 46.046875 20.015625 46.78125 33.40625 
Q 43.953125 29.203125 39.59375 26.953125 
Q 35.25 24.703125 29.984375 24.703125 
Q 19.046875 24.703125 12.671875 31.3125 
Q 6.296875 37.9375 6.296875 49.421875 
Q 6.296875 60.640625 12.9375 67.421875 
Q 19.578125 74.21875 30.609375 74.21875 
Q 43.265625 74.21875 49.921875 64.515625 
Q 56.59375 54.828125 56.59375 36.375 
Q 56.59375 19.140625 48.40625 8.859375 
Q 40.234375 -1.421875 26.421875 -1.421875 
Q 22.703125 -1.421875 18.890625 -0.6875 
Q 15.09375 0.046875 10.984375 1.515625 
z
M 30.609375 32.421875 
Q 37.25 32.421875 41.125 36.953125 
Q 45.015625 41.5 45.015625 49.421875 
Q 45.015625 57.28125 41.125 61.84375 
Q 37.25 66.40625 30.609375 66.40625 
Q 23.96875 66.40625 20.09375 61.84375 
Q 16.21875 57.28125 16.21875 49.421875 
Q 16.21875 41.5 20.09375 36.953125 
Q 23.96875 32.421875 30.609375 32.421875 
z
" id="DejaVuSans-57"/>
      </defs>
      <g transform="translate(20.878125 41.552621)scale(0.1 -0.1)">
       <use xlink:href="#DejaVuSans-57"/>
       <use x="63.623047" xlink:href="#DejaVuSans-48"/>
      </g>
     </g>
    </g>
    <g id="text_17">
     <!-- Price $ -->
     <defs>
      <path d="M 19.671875 64.796875 
L 19.671875 37.40625 
L 32.078125 37.40625 
Q 38.96875 37.40625 42.71875 40.96875 
Q 46.484375 44.53125 46.484375 51.125 
Q 46.484375 57.671875 42.71875 61.234375 
Q 38.96875 64.796875 32.078125 64.796875 
z
M 9.8125 72.90625 
L 32.078125 72.90625 
Q 44.34375 72.90625 50.609375 67.359375 
Q 56.890625 61.8125 56.890625 51.125 
Q 56.890625 40.328125 50.609375 34.8125 
Q 44.34375 29.296875 32.078125 29.296875 
L 19.671875 29.296875 
L 19.671875 0 
L 9.8125 0 
z
" id="DejaVuSans-80"/>
      <path d="M 41.109375 46.296875 
Q 39.59375 47.171875 37.8125 47.578125 
Q 36.03125 48 33.890625 48 
Q 26.265625 48 22.1875 43.046875 
Q 18.109375 38.09375 18.109375 28.8125 
L 18.109375 0 
L 9.078125 0 
L 9.078125 54.6875 
L 18.109375 54.6875 
L 18.109375 46.1875 
Q 20.953125 51.171875 25.484375 53.578125 
Q 30.03125 56 36.53125 56 
Q 37.453125 56 38.578125 55.875 
Q 39.703125 55.765625 41.0625 55.515625 
z
" id="DejaVuSans-114"/>
      <path d="M 9.421875 54.6875 
L 18.40625 54.6875 
L 18.40625 0 
L 9.421875 0 
z
M 9.421875 75.984375 
L 18.40625 75.984375 
L 18.40625 64.59375 
L 9.421875 64.59375 
z
" id="DejaVuSans-105"/>
      <path d="M 48.78125 52.59375 
L 48.78125 44.1875 
Q 44.96875 46.296875 41.140625 47.34375 
Q 37.3125 48.390625 33.40625 48.390625 
Q 24.65625 48.390625 19.8125 42.84375 
Q 14.984375 37.3125 14.984375 27.296875 
Q 14.984375 17.28125 19.8125 11.734375 
Q 24.65625 6.203125 33.40625 6.203125 
Q 37.3125 6.203125 41.140625 7.25 
Q 44.96875 8.296875 48.78125 10.40625 
L 48.78125 2.09375 
Q 45.015625 0.34375 40.984375 -0.53125 
Q 36.96875 -1.421875 32.421875 -1.421875 
Q 20.0625 -1.421875 12.78125 6.34375 
Q 5.515625 14.109375 5.515625 27.296875 
Q 5.515625 40.671875 12.859375 48.328125 
Q 20.21875 56 33.015625 56 
Q 37.15625 56 41.109375 55.140625 
Q 45.0625 54.296875 48.78125 52.59375 
z
" id="DejaVuSans-99"/>
      <path d="M 56.203125 29.59375 
L 56.203125 25.203125 
L 14.890625 25.203125 
Q 15.484375 15.921875 20.484375 11.0625 
Q 25.484375 6.203125 34.421875 6.203125 
Q 39.59375 6.203125 44.453125 7.46875 
Q 49.3125 8.734375 54.109375 11.28125 
L 54.109375 2.78125 
Q 49.265625 0.734375 44.1875 -0.34375 
Q 39.109375 -1.421875 33.890625 -1.421875 
Q 20.796875 -1.421875 13.15625 6.1875 
Q 5.515625 13.8125 5.515625 26.8125 
Q 5.515625 40.234375 12.765625 48.109375 
Q 20.015625 56 32.328125 56 
Q 43.359375 56 49.78125 48.890625 
Q 56.203125 41.796875 56.203125 29.59375 
z
M 47.21875 32.234375 
Q 47.125 39.59375 43.09375 43.984375 
Q 39.0625 48.390625 32.421875 48.390625 
Q 24.90625 48.390625 20.390625 44.140625 
Q 15.875 39.890625 15.1875 32.171875 
z
" id="DejaVuSans-101"/>
      <path id="DejaVuSans-32"/>
      <path d="M 33.796875 -14.703125 
L 28.90625 -14.703125 
L 28.859375 0 
Q 23.734375 0.09375 18.609375 1.1875 
Q 13.484375 2.296875 8.296875 4.5 
L 8.296875 13.28125 
Q 13.28125 10.15625 18.375 8.5625 
Q 23.484375 6.984375 28.90625 6.9375 
L 28.90625 29.203125 
Q 18.109375 30.953125 13.203125 35.15625 
Q 8.296875 39.359375 8.296875 46.6875 
Q 8.296875 54.640625 13.625 59.21875 
Q 18.953125 63.8125 28.90625 64.5 
L 28.90625 75.984375 
L 33.796875 75.984375 
L 33.796875 64.65625 
Q 38.328125 64.453125 42.578125 63.6875 
Q 46.828125 62.9375 50.875 61.625 
L 50.875 53.078125 
Q 46.828125 55.125 42.546875 56.25 
Q 38.28125 57.375 33.796875 57.5625 
L 33.796875 36.71875 
Q 44.875 35.015625 50.09375 30.609375 
Q 55.328125 26.21875 55.328125 18.609375 
Q 55.328125 10.359375 49.78125 5.59375 
Q 44.234375 0.828125 33.796875 0.09375 
z
M 28.90625 37.59375 
L 28.90625 57.625 
Q 23.25 56.984375 20.265625 54.390625 
Q 17.28125 51.8125 17.28125 47.515625 
Q 17.28125 43.3125 20.03125 40.96875 
Q 22.796875 38.625 28.90625 37.59375 
z
M 33.796875 28.21875 
L 33.796875 7.078125 
Q 39.984375 7.90625 43.140625 10.59375 
Q 46.296875 13.28125 46.296875 17.671875 
Q 46.296875 21.96875 43.28125 24.5 
Q 40.28125 27.046875 33.796875 28.21875 
z
" id="DejaVuSans-36"/>
     </defs>
     <g transform="translate(14.798438 172.342094)rotate(-90)scale(0.1 -0.1)">
      <use xlink:href="#DejaVuSans-80"/>
      <use x="58.552734" xlink:href="#DejaVuSans-114"/>
      <use x="99.666016" xlink:href="#DejaVuSans-105"/>
      <use x="127.449219" xlink:href="#DejaVuSans-99"/>
      <use x="182.429688" xlink:href="#DejaVuSans-101"/>
      <use x="243.953125" xlink:href="#DejaVuSans-32"/>
      <use x="275.740234" xlink:href="#DejaVuSans-36"/>
     </g>
    </g>
   </g>
   <g id="line2d_31">
    <path clip-path="url(#p293c7984cc)" d="M 56.835852 177.871504 
L 57.325158 149.154679 
L 57.569811 149.458141 
L 57.814464 153.763022 
L 58.30377 147.636088 
L 58.793076 153.4126 
L 59.037729 151.90406 
L 59.282382 155.818744 
L 59.771688 159.701227 
L 60.260994 152.211075 
L 60.505647 167.994026 
L 60.7503 168.769538 
L 60.994953 166.454208 
L 61.239606 172.487221 
L 61.484259 169.939507 
L 61.728912 171.343058 
L 62.218219 164.586609 
L 62.462872 165.229457 
L 62.707525 162.723518 
L 62.952178 166.453463 
L 63.196831 163.976953 
L 63.441484 157.426127 
L 63.686137 157.051183 
L 63.93079 148.078676 
L 64.175443 155.117905 
L 64.420096 157.338757 
L 64.664749 153.506227 
L 64.909402 153.575401 
L 65.154055 146.016765 
L 65.643361 154.160151 
L 65.888014 154.545154 
L 66.37732 149.143534 
L 66.621973 151.221088 
L 66.866626 149.263193 
L 67.111279 152.790667 
L 67.355932 153.44748 
L 67.845238 156.520919 
L 68.089891 154.933357 
L 68.334544 157.298737 
L 69.068503 147.901021 
L 69.313156 147.268956 
L 69.557809 155.21499 
L 69.802462 145.622434 
L 70.047115 148.322744 
L 70.291768 142.612033 
L 70.536421 133.008148 
L 70.781074 134.762294 
L 71.025727 133.971199 
L 71.27038 137.370979 
L 71.515033 144.137212 
L 71.759686 144.093176 
L 72.004339 150.598505 
L 72.248992 150.412695 
L 72.493645 147.134685 
L 72.738298 148.908311 
L 72.982951 149.727053 
L 73.227604 160.706761 
L 73.472257 165.446866 
L 73.71691 162.972938 
L 73.961563 158.764575 
L 74.450869 168.060666 
L 74.695522 169.353935 
L 74.940175 168.36398 
L 75.429481 176.639971 
L 75.674134 194.289451 
L 75.918787 198.704183 
L 76.16344 191.329395 
L 76.408093 191.293523 
L 76.652746 192.075979 
L 76.897399 182.91499 
L 77.386705 187.931137 
L 77.631358 180.318459 
L 77.876011 178.309087 
L 78.120664 169.645853 
L 78.365317 174.373515 
L 78.60997 168.617876 
L 78.854623 171.831093 
L 79.099276 172.288669 
L 79.343929 167.386181 
L 79.588582 168.51963 
L 79.833235 177.255198 
L 80.077888 190.40906 
L 80.322541 189.227324 
L 80.567194 191.105757 
L 81.0565 185.527044 
L 81.301153 192.410697 
L 81.545806 188.965313 
L 81.790459 191.298537 
L 82.035112 192.053706 
L 82.279765 196.397916 
L 82.524418 195.110315 
L 82.769071 199.420112 
L 83.013724 195.170675 
L 83.258377 187.988328 
L 83.50303 191.106121 
L 83.747683 189.363331 
L 83.992336 194.202209 
L 84.236989 193.020323 
L 84.481643 193.371457 
L 84.726296 194.81772 
L 84.970949 192.96434 
L 85.215602 195.483096 
L 85.460255 190.81267 
L 85.704908 189.385882 
L 85.949561 192.070707 
L 86.438867 187.087202 
L 86.68352 187.871844 
L 86.928173 185.749194 
L 87.172826 191.373315 
L 87.417479 188.954476 
L 87.662132 185.085474 
L 87.906785 186.12088 
L 88.151438 184.782915 
L 88.396091 181.060131 
L 88.640744 187.096187 
L 88.885397 178.859143 
L 89.13005 174.918099 
L 89.374703 175.459293 
L 89.619356 173.793752 
L 89.864009 174.50747 
L 90.353315 175.087482 
L 90.597968 179.31 
L 90.842621 189.364322 
L 91.087274 192.618075 
L 91.331927 189.121471 
L 91.57658 181.073348 
L 91.821233 179.830776 
L 92.065886 179.379738 
L 92.555192 170.544005 
L 92.799845 176.420601 
L 93.044498 169.459846 
L 93.289151 158.611578 
L 93.533804 155.333198 
L 93.778457 157.841942 
L 94.02311 158.414286 
L 94.267763 160.669283 
L 94.512416 161.259917 
L 94.757069 156.978629 
L 95.001722 156.811077 
L 95.246375 160.050437 
L 95.491028 164.894461 
L 95.735681 166.668917 
L 95.980334 165.416056 
L 96.224987 161.729366 
L 96.46964 160.914355 
L 96.714293 152.862194 
L 96.958946 148.770422 
L 97.203599 149.400889 
L 97.448252 149.478008 
L 97.692905 149.223813 
L 98.182211 140.894785 
L 98.426864 141.121166 
L 98.91617 138.559279 
L 99.405476 126.343697 
L 99.650129 131.668072 
L 99.894782 128.743905 
L 100.139435 123.393869 
L 100.384088 124.068652 
L 100.628741 122.65411 
L 100.873394 123.948943 
L 101.118047 133.304129 
L 101.3627 125.203917 
L 101.607353 127.629361 
L 101.852006 119.808014 
L 102.096659 127.392289 
L 102.585965 120.532075 
L 103.075271 130.146504 
L 103.564577 125.243644 
L 103.80923 119.843563 
L 104.053883 123.065277 
L 104.298536 123.226878 
L 104.543189 127.400381 
L 104.787842 126.429538 
L 105.032495 123.098915 
L 105.277148 125.932607 
L 105.521801 123.847873 
L 105.766454 116.133572 
L 106.011107 125.570503 
L 106.500413 133.208833 
L 106.745066 133.32718 
L 106.98972 135.829994 
L 107.234373 140.773476 
L 107.479026 133.821067 
L 107.723679 133.849618 
L 108.212985 146.127115 
L 108.457638 151.681581 
L 108.702291 145.58545 
L 108.946944 143.720154 
L 109.191597 148.64612 
L 109.43625 145.876008 
L 109.680903 140.842566 
L 110.414862 151.76806 
L 110.659515 150.719573 
L 110.904168 151.73648 
L 111.148821 151.266937 
L 111.393474 145.806329 
L 111.88278 164.893851 
L 112.861392 150.25141 
L 113.106045 148.531938 
L 113.350698 153.660334 
L 113.840004 152.069183 
L 114.084657 152.00113 
L 114.32931 149.016766 
L 114.573963 138.463171 
L 114.818616 136.347196 
L 115.063269 138.38327 
L 115.307922 132.491219 
L 115.552575 132.731889 
L 115.797228 137.217832 
L 116.041881 135.028052 
L 116.286534 136.427492 
L 116.531187 135.679515 
L 116.77584 130.533804 
L 117.020493 132.23913 
L 117.265146 127.602275 
L 117.754452 131.77051 
L 118.243758 132.333392 
L 118.488411 133.288785 
L 118.733064 133.066502 
L 118.977717 131.22929 
L 119.22237 127.563121 
L 119.467023 127.638166 
L 119.956329 137.735589 
L 120.200982 138.75621 
L 120.445635 141.348653 
L 120.690288 140.14528 
L 120.934941 141.734515 
L 121.179594 144.977267 
L 121.424247 158.650861 
L 121.6689 160.554775 
L 122.158206 166.735296 
L 122.402859 164.297487 
L 122.647512 165.009767 
L 122.892165 165.204442 
L 123.136818 168.160422 
L 123.381471 169.386671 
L 123.626124 172.818427 
L 123.870777 172.585541 
L 124.11543 168.701052 
L 124.360083 170.747703 
L 124.604736 169.16065 
L 124.849389 170.95422 
L 125.094042 171.542437 
L 125.338695 165.020824 
L 125.583348 161.751478 
L 125.828001 161.107515 
L 126.072654 162.125548 
L 126.806613 153.666783 
L 127.051266 144.588571 
L 127.295919 145.955866 
L 127.540572 148.398021 
L 127.785225 144.114383 
L 128.029878 148.753889 
L 128.274531 155.918117 
L 128.519184 155.941339 
L 128.763837 157.818258 
L 129.253143 163.151194 
L 129.497797 162.095724 
L 130.231756 174.95046 
L 130.476409 167.387341 
L 130.721062 166.555513 
L 130.965715 153.692515 
L 131.210368 153.388336 
L 131.455021 154.353212 
L 131.699674 156.364956 
L 131.944327 147.56444 
L 132.18898 146.249027 
L 132.433633 146.687357 
L 132.678286 150.686918 
L 132.922939 142.333337 
L 133.167592 145.315952 
L 133.412245 141.641127 
L 133.656898 144.047044 
L 133.901551 136.466558 
L 134.146204 136.953676 
L 134.63551 139.349007 
L 135.124816 135.458218 
L 135.369469 134.932788 
L 135.614122 129.800641 
L 135.858775 134.346357 
L 136.103428 131.158231 
L 136.348081 123.650891 
L 136.592734 125.831938 
L 137.326693 121.898819 
L 137.571346 121.928354 
L 137.815999 121.838536 
L 138.060652 124.48026 
L 138.305305 124.967144 
L 138.794611 114.077056 
L 139.283917 110.750405 
L 139.52857 110.413241 
L 140.017876 109.049611 
L 140.507182 121.522246 
L 140.751835 118.047439 
L 140.996488 118.118811 
L 141.241141 124.348497 
L 141.485794 124.311281 
L 141.9751 131.642148 
L 142.464406 137.625183 
L 142.709059 132.467942 
L 142.953712 137.372937 
L 143.198365 135.807217 
L 143.443018 132.71003 
L 143.687671 131.986674 
L 143.932324 129.580168 
L 144.176977 129.295132 
L 144.42163 128.44466 
L 144.666283 128.259757 
L 144.910936 126.724271 
L 145.155589 128.655848 
L 145.400242 131.737025 
L 145.644895 130.080823 
L 145.889548 134.504896 
L 146.134201 132.65819 
L 146.378854 133.056964 
L 146.623507 136.953172 
L 146.86816 133.716113 
L 147.112813 135.929638 
L 147.602119 145.88828 
L 147.846772 148.025473 
L 148.580731 157.63751 
L 148.825384 159.238712 
L 149.070037 155.41871 
L 149.31469 159.254748 
L 149.559343 154.495358 
L 149.803996 154.650244 
L 150.048649 168.614399 
L 150.537955 166.891979 
L 150.782608 167.16167 
L 151.027261 160.441993 
L 151.271914 160.325547 
L 151.516567 152.888221 
L 151.76122 151.777681 
L 152.250527 146.028945 
L 152.739833 152.650204 
L 152.984486 161.693928 
L 153.229139 164.266159 
L 153.473792 162.515058 
L 153.718445 162.318766 
L 153.963098 151.961111 
L 154.207751 153.525359 
L 154.452404 152.493703 
L 154.697057 156.664825 
L 154.94171 149.464555 
L 155.186363 151.860025 
L 155.431016 151.401637 
L 155.675669 153.660473 
L 155.920322 154.872121 
L 156.409628 146.866942 
L 156.898934 155.810174 
L 157.143587 153.038924 
L 157.38824 152.587371 
L 157.632893 155.487028 
L 158.122199 142.667946 
L 158.366852 137.781911 
L 158.611505 136.957156 
L 158.856158 141.45388 
L 159.345464 143.172598 
L 160.079423 135.250939 
L 160.324076 133.360407 
L 160.568729 134.487095 
L 160.813382 134.485713 
L 161.058035 128.293237 
L 161.302688 129.80655 
L 161.547341 137.472472 
L 161.791994 140.202972 
L 162.036647 134.041026 
L 162.2813 137.647897 
L 162.770606 132.305187 
L 163.259912 133.281495 
L 163.504565 129.979464 
L 163.993871 126.230175 
L 164.238524 118.046855 
L 164.483177 118.794281 
L 164.72783 118.61965 
L 164.972483 118.836911 
L 165.706442 131.313032 
L 165.951095 131.76809 
L 166.440401 123.301926 
L 166.929707 124.031735 
L 167.17436 127.01547 
L 167.419013 140.24755 
L 167.663666 138.821207 
L 167.908319 141.669263 
L 168.152972 148.156487 
L 168.397625 148.404291 
L 168.642278 150.417998 
L 168.886931 149.060201 
L 169.131584 149.339046 
L 169.376237 149.896729 
L 169.62089 146.901379 
L 169.865543 141.38587 
L 170.354849 141.973381 
L 170.599502 138.99609 
L 170.844155 137.756311 
L 171.088808 138.707388 
L 171.333461 140.222765 
L 172.312073 153.11308 
L 172.556726 152.865624 
L 172.801379 155.367839 
L 173.046032 150.264469 
L 173.290685 149.075351 
L 173.535338 150.054425 
L 173.779991 149.23687 
L 174.024644 147.947526 
L 174.269298 150.499326 
L 174.513951 155.464195 
L 174.758604 151.820613 
L 175.003257 153.468481 
L 175.24791 151.824587 
L 175.492563 149.416606 
L 175.737216 148.654116 
L 175.981869 146.449046 
L 176.471175 138.105788 
L 176.715828 139.154312 
L 177.205134 142.891181 
L 177.449787 140.899522 
L 177.69444 140.893802 
L 177.939093 142.770748 
L 178.183746 139.430087 
L 178.428399 141.861891 
L 178.673052 142.911789 
L 178.917705 140.563371 
L 179.407011 147.816159 
L 179.896317 151.551793 
L 180.14097 155.920745 
L 180.385623 164.066646 
L 180.874929 163.949343 
L 181.119582 165.004805 
L 181.364235 158.610852 
L 181.608888 160.202185 
L 181.853541 155.053282 
L 182.098194 157.289322 
L 182.5875 159.702399 
L 182.832153 157.098692 
L 183.076806 160.492926 
L 183.566112 153.676482 
L 183.810765 153.178008 
L 184.055418 149.040324 
L 184.300071 147.880476 
L 184.544724 148.353894 
L 184.789377 149.720447 
L 185.03403 147.589488 
L 185.278683 147.488549 
L 185.523336 150.459207 
L 186.012642 147.075273 
L 186.257295 143.240349 
L 186.501948 136.382377 
L 186.746601 143.298026 
L 186.991254 141.803037 
L 187.235907 143.370172 
L 187.725213 148.654447 
L 187.969866 148.492228 
L 188.214519 145.008053 
L 188.459172 145.70902 
L 188.703825 145.951011 
L 188.948478 141.079216 
L 189.437784 149.727707 
L 189.682437 138.990704 
L 189.92709 145.776149 
L 190.171743 143.253857 
L 190.416396 146.232271 
L 190.661049 143.471216 
L 190.905702 145.899671 
L 191.150355 145.142373 
L 191.395008 137.393199 
L 191.639661 137.186401 
L 191.884314 137.450342 
L 192.128967 130.581964 
L 192.37362 133.130652 
L 192.618273 129.752401 
L 192.862926 134.675934 
L 193.107579 131.476911 
L 193.352232 150.272104 
L 193.596885 159.294964 
L 193.841538 156.795805 
L 194.330844 142.779985 
L 194.575497 142.664795 
L 194.82015 141.086286 
L 195.064803 140.252086 
L 195.309456 138.908941 
L 195.554109 140.734175 
L 196.043415 140.207364 
L 196.288068 141.472933 
L 196.532721 141.381026 
L 196.777375 134.406577 
L 197.022028 131.333977 
L 197.266681 130.685172 
L 197.755987 118.66597 
L 198.00064 121.680204 
L 198.245293 120.344999 
L 198.489946 93.005968 
L 198.734599 92.418073 
L 198.979252 87.953446 
L 199.223905 86.406759 
L 199.468558 77.66273 
L 199.713211 80.474241 
L 199.957864 80.002392 
L 200.202517 74.665967 
L 200.44717 77.90279 
L 200.691823 77.883539 
L 200.936476 59.760069 
L 201.181129 69.085098 
L 201.425782 67.838339 
L 201.670435 78.299602 
L 201.915088 79.650508 
L 202.159741 84.279313 
L 202.404394 83.600735 
L 202.8937 92.645483 
L 203.138353 86.620616 
L 203.383006 86.793044 
L 203.627659 85.957001 
L 203.872312 92.970628 
L 204.361618 71.858345 
L 204.606271 77.189629 
L 204.850924 68.607082 
L 205.095577 66.783518 
L 205.34023 68.733751 
L 205.584883 65.668522 
L 205.829536 67.915138 
L 206.074189 67.19819 
L 206.318842 73.976365 
L 206.563495 74.11343 
L 206.808148 76.021495 
L 207.052801 71.339856 
L 207.542107 41.441924 
L 207.78676 49.239867 
L 208.031413 44.44775 
L 208.276066 49.439879 
L 208.520719 68.362325 
L 208.765372 62.698738 
L 209.010025 66.934091 
L 209.499331 67.764473 
L 209.743984 55.978437 
L 209.988637 54.493122 
L 210.23329 53.797023 
L 210.722596 66.925549 
L 210.967249 60.630431 
L 211.211902 79.983971 
L 211.701208 71.347551 
L 212.190514 63.614764 
L 212.435167 63.400689 
L 212.67982 73.637938 
L 212.924473 63.973429 
L 213.169126 70.853417 
L 213.413779 74.117834 
L 213.658432 74.805251 
L 213.903085 73.908947 
L 214.147738 71.691425 
L 214.392391 90.789234 
L 214.637044 84.687519 
L 214.881697 82.432802 
L 215.12635 82.732187 
L 215.371003 89.882206 
L 215.615656 88.327792 
L 215.860309 87.50667 
L 216.104962 87.392296 
L 216.594268 97.358795 
L 216.838921 90.425412 
L 217.083574 97.507587 
L 217.328227 95.631561 
L 217.57288 101.499949 
L 217.817533 111.397087 
L 218.062186 102.944209 
L 218.306839 103.13128 
L 218.551492 93.351143 
L 218.796145 98.272802 
L 219.040798 98.785382 
L 219.285452 105.900922 
L 219.530105 93.369212 
L 219.774758 92.790639 
L 220.019411 94.720369 
L 220.264064 107.051495 
L 220.508717 102.932618 
L 220.75337 106.815267 
L 220.998023 98.523798 
L 221.242676 100.61764 
L 221.487329 111.511453 
L 221.731982 111.414704 
L 221.976635 109.62002 
L 222.221288 113.131988 
L 222.465941 109.386972 
L 222.955247 112.408015 
L 223.1999 115.130938 
L 223.444553 116.255796 
L 223.933859 122.742879 
L 224.178512 132.086594 
L 224.423165 130.00989 
L 224.667818 130.757283 
L 224.912471 127.851113 
L 225.401777 117.719896 
L 225.891083 123.077019 
L 226.135736 131.749114 
L 226.380389 130.411653 
L 226.869695 122.462249 
L 227.114348 129.969341 
L 227.359001 133.46396 
L 227.848307 127.404772 
L 228.09296 130.663834 
L 228.337613 124.50954 
L 228.582266 130.062965 
L 229.316225 117.439854 
L 229.560878 141.311326 
L 229.805531 144.550715 
L 230.050184 142.925986 
L 230.294837 144.649796 
L 230.53949 151.23771 
L 230.784143 149.083209 
L 231.028796 151.643648 
L 231.273449 155.73968 
L 231.518102 152.544537 
L 231.762755 154.048314 
L 232.007408 151.560435 
L 232.741367 167.252129 
L 232.98602 168.126404 
L 233.230673 164.61707 
L 233.475326 164.451767 
L 233.964632 171.581805 
L 234.453938 166.038477 
L 234.698591 164.239704 
L 234.943244 165.580675 
L 235.187897 165.145303 
L 235.677203 168.033604 
L 235.921856 171.83697 
L 236.166509 170.060116 
L 236.655815 178.326338 
L 236.900468 171.367781 
L 237.145121 171.501263 
L 237.389774 166.616819 
L 237.634427 157.396693 
L 237.87908 162.497807 
L 238.123733 164.43746 
L 238.368386 162.109836 
L 238.613039 156.833645 
L 238.857692 157.62451 
L 239.102345 158.832408 
L 239.346998 157.757317 
L 239.836304 163.316558 
L 240.080957 166.014058 
L 240.32561 163.117884 
L 241.059569 176.276745 
L 241.304222 171.159185 
L 241.548875 170.374468 
L 241.793529 171.091408 
L 242.038182 172.424175 
L 242.282835 171.145898 
L 242.527488 170.798695 
L 242.772141 161.830582 
L 243.016794 167.000389 
L 243.261447 177.954651 
L 243.5061 176.403484 
L 243.750753 173.275735 
L 243.995406 168.599741 
L 244.240059 171.907764 
L 244.484712 170.071276 
L 244.729365 173.43184 
L 244.974018 189.965495 
L 245.218671 195.717547 
L 245.463324 196.39533 
L 246.197283 232.373936 
L 246.686589 210.441666 
L 246.931242 218.195867 
L 247.175895 219.59691 
L 247.420548 225.873692 
L 247.909854 218.387976 
L 248.154507 225.278623 
L 248.39916 207.276498 
L 248.888466 223.014146 
L 249.133119 219.219788 
L 249.377772 221.954528 
L 249.622425 221.800724 
L 249.867078 219.352276 
L 250.111731 221.059063 
L 250.356384 228.99778 
L 250.601037 226.326247 
L 250.84569 227.294449 
L 251.334996 225.841146 
L 251.579649 226.29929 
L 251.824302 227.165316 
L 252.068955 226.355115 
L 252.313608 218.876066 
L 252.558261 222.976596 
L 253.047567 211.814341 
L 253.29222 213.258006 
L 253.781526 204.956724 
L 254.026179 206.433174 
L 254.270832 204.889437 
L 254.515485 206.355696 
L 254.760138 251.895784 
L 255.249444 257.148684 
L 255.494097 257.090691 
L 255.983403 258.664385 
L 256.228056 256.881356 
L 256.472709 261.240589 
L 256.717362 263.388472 
L 256.962015 267.404149 
L 257.206668 266.406689 
L 257.451321 264.219782 
L 257.695974 269.341966 
L 258.674586 259.98831 
L 258.919239 258.866477 
L 259.163892 261.016112 
L 259.408545 259.773791 
L 259.897851 272.17928 
L 260.142504 275.90277 
L 260.876463 243.287305 
L 261.121116 244.901906 
L 261.365769 249.394918 
L 261.610422 248.092674 
L 261.855075 250.547375 
L 262.099728 248.370404 
L 262.344381 251.037742 
L 262.589034 258.517419 
L 262.833687 257.41388 
L 263.07834 261.928601 
L 263.812299 246.60002 
L 264.301606 256.445751 
L 264.546259 253.431929 
L 264.790912 254.890791 
L 265.035565 247.547228 
L 265.280218 252.805185 
L 265.524871 248.120727 
L 265.769524 257.507266 
L 266.014177 258.368662 
L 266.748136 242.648445 
L 266.992789 244.692329 
L 267.237442 245.434772 
L 267.482095 239.402043 
L 267.726748 238.978302 
L 267.971401 241.739648 
L 268.216054 240.543053 
L 268.460707 230.033168 
L 268.70536 225.369211 
L 268.950013 214.540902 
L 269.194666 224.877076 
L 269.439319 219.990972 
L 269.683972 224.283986 
L 269.928625 236.394793 
L 270.173278 228.333594 
L 270.417931 236.387252 
L 270.662584 231.943958 
L 270.907237 244.171792 
L 271.396543 231.169724 
L 271.885849 222.03264 
L 272.130502 222.480817 
L 272.375155 220.620201 
L 272.619808 205.392414 
L 272.864461 197.241984 
L 273.353767 205.977294 
L 273.59842 204.933802 
L 273.843073 200.817916 
L 274.087726 201.465271 
L 274.332379 209.156104 
L 274.577032 209.361682 
L 274.821685 212.795794 
L 275.066338 206.777114 
L 275.310991 208.842802 
L 275.555644 207.388796 
L 275.800297 221.420143 
L 276.04495 217.447229 
L 276.534256 204.641719 
L 277.023562 193.744822 
L 277.268215 204.692523 
L 277.512868 205.968773 
L 277.757521 205.172993 
L 278.002174 206.997027 
L 278.246827 207.510775 
L 278.49148 202.968042 
L 278.736133 195.065146 
L 278.980786 193.985985 
L 279.225439 197.646151 
L 279.470092 198.521837 
L 279.714745 200.246767 
L 279.959398 198.948507 
L 280.204051 193.80719 
L 280.448704 194.535984 
L 280.93801 201.685064 
L 281.182663 194.303028 
L 281.427316 195.047378 
L 281.671969 198.036733 
L 281.916622 194.285233 
L 282.161275 193.517109 
L 282.405928 194.221132 
L 282.650581 188.781561 
L 282.895234 191.009953 
L 283.139887 186.978214 
L 283.38454 186.69564 
L 283.629193 189.972665 
L 283.873846 187.149435 
L 284.118499 192.978389 
L 284.363152 194.098448 
L 284.607805 198.740548 
L 284.852458 188.736444 
L 285.097111 186.222173 
L 285.341764 188.68489 
L 285.586417 186.798193 
L 285.83107 181.089857 
L 286.075723 181.688533 
L 286.56503 190.929066 
L 286.809683 189.153978 
L 287.054336 183.836979 
L 287.298989 185.043825 
L 287.543642 184.21255 
L 287.788295 187.879195 
L 288.032948 202.267922 
L 288.277601 197.067695 
L 288.522254 201.264192 
L 288.766907 199.937564 
L 289.01156 199.776159 
L 289.500866 187.280411 
L 289.745519 188.42427 
L 289.990172 205.201885 
L 290.234825 201.970562 
L 290.479478 215.422992 
L 290.724131 207.670722 
L 290.968784 214.198018 
L 291.213437 227.83722 
L 291.45809 184.404262 
L 291.702743 179.431093 
L 291.947396 182.035586 
L 292.192049 176.932336 
L 292.436702 175.42086 
L 292.681355 172.967688 
L 292.926008 173.868906 
L 293.170661 173.806037 
L 293.415314 175.914542 
L 293.659967 172.837638 
L 293.90462 173.513096 
L 294.149273 172.272662 
L 294.393926 172.442906 
L 294.638579 170.723863 
L 294.883232 172.133728 
L 295.127885 171.800483 
L 295.372538 176.127031 
L 295.617191 173.105254 
L 296.106497 170.600524 
L 296.35115 172.897269 
L 296.595803 171.74209 
L 297.329762 164.735843 
L 297.574415 165.622242 
L 297.819068 168.778077 
L 298.063721 168.698411 
L 298.553027 158.063331 
L 298.79768 159.595045 
L 299.042333 157.23698 
L 299.286986 152.353785 
L 299.531639 154.431625 
L 300.020945 150.692088 
L 300.265598 156.245938 
L 300.510251 153.785737 
L 300.754904 153.301607 
L 300.999557 153.60462 
L 301.24421 152.498548 
L 301.488863 153.891012 
L 301.733516 153.067093 
L 301.978169 155.090306 
L 302.222822 154.985121 
L 302.467475 153.654527 
L 302.712128 153.862076 
L 302.956781 156.815758 
L 303.201434 157.447102 
L 303.446087 159.395221 
L 303.69074 153.661996 
L 303.935393 158.291619 
L 304.180046 159.646869 
L 304.669352 153.942112 
L 304.914005 156.95741 
L 305.158658 155.56226 
L 305.403311 152.633918 
L 305.647964 153.720486 
L 305.892617 153.020296 
L 306.381923 159.950731 
L 306.626576 159.463828 
L 306.871229 149.187642 
L 307.115882 159.387913 
L 307.360535 160.078639 
L 307.605188 165.281564 
L 307.849841 163.463067 
L 308.094494 170.65977 
L 308.339147 171.260511 
L 308.5838 169.514959 
L 308.828453 170.325788 
L 309.073107 169.57103 
L 309.31776 159.633333 
L 309.562413 162.078396 
L 309.807066 158.553143 
L 310.051719 165.232449 
L 310.296372 166.861526 
L 310.541025 177.66049 
L 310.785678 165.941423 
L 311.030331 169.388189 
L 311.274984 169.053397 
L 311.76429 159.458599 
L 312.008943 165.011312 
L 312.253596 165.987605 
L 312.498249 164.536339 
L 312.987555 163.596803 
L 313.232208 168.88121 
L 313.476861 163.940751 
L 313.721514 167.8767 
L 313.966167 175.450757 
L 314.21082 165.532538 
L 314.455473 166.36745 
L 314.700126 168.300128 
L 314.944779 168.949021 
L 315.189432 185.044033 
L 315.923391 198.705422 
L 316.168044 198.217808 
L 316.412697 192.753664 
L 316.65735 191.280627 
L 316.902003 193.011833 
L 317.146656 188.466008 
L 317.391309 188.412391 
L 317.635962 189.670351 
L 317.880615 192.521546 
L 318.125268 186.559525 
L 318.614574 183.926403 
L 319.10388 181.272185 
L 319.348533 181.159852 
L 319.593186 186.299012 
L 320.082492 184.054236 
L 320.327145 187.46248 
L 320.571798 183.034512 
L 320.816451 182.979241 
L 321.061104 173.41202 
L 321.305757 171.049195 
L 321.55041 172.119444 
L 321.795063 177.254459 
L 322.039716 170.572381 
L 322.284369 170.719681 
L 322.529022 185.922035 
L 322.773675 190.314312 
L 323.507634 174.162634 
L 323.752287 171.55247 
L 323.99694 172.021863 
L 324.241593 170.879272 
L 324.486246 177.619752 
L 324.975552 174.662548 
L 325.220205 181.345995 
L 325.709511 176.78352 
L 326.198817 180.5574 
L 326.44347 169.233115 
L 326.688123 168.309475 
L 327.177429 173.499972 
L 327.422082 173.951966 
L 327.666735 169.666975 
L 327.911388 168.103163 
L 328.156041 172.40427 
L 328.400694 184.088471 
L 328.645347 184.555448 
L 328.89 183.648762 
L 329.134653 186.643101 
L 329.379306 187.240042 
L 329.623959 188.387517 
L 329.868612 191.631573 
L 330.113265 188.797723 
L 330.357918 187.801759 
L 330.602571 194.541023 
L 330.847224 191.326432 
L 331.091877 194.672003 
L 331.33653 192.586833 
L 331.581184 196.675872 
L 331.825837 202.629834 
L 332.07049 193.28318 
L 332.315143 195.473647 
L 333.049102 205.849448 
L 333.293755 200.471847 
L 333.538408 204.081917 
L 333.783061 205.321858 
L 334.027714 212.803848 
L 334.272367 207.358734 
L 334.51702 205.085367 
L 334.761673 208.711214 
L 335.006326 205.382271 
L 335.250979 206.867644 
L 335.495632 207.609197 
L 335.740285 204.26375 
L 336.229591 188.775698 
L 336.474244 196.1559 
L 336.718897 197.907922 
L 336.96355 191.616714 
L 337.208203 191.432877 
L 337.452856 190.189854 
L 337.697509 186.509835 
L 337.942162 171.207923 
L 338.186815 168.9489 
L 338.431468 171.573621 
L 338.676121 163.698817 
L 339.41008 177.065541 
L 339.654733 174.864988 
L 339.899386 180.11147 
L 340.144039 181.240213 
L 340.388692 181.437532 
L 340.633345 182.062399 
L 340.877998 181.763183 
L 341.122651 180.199792 
L 341.367304 181.416572 
L 341.611957 175.986347 
L 342.101263 178.095004 
L 342.345916 181.879622 
L 342.590569 181.232724 
L 342.835222 181.840765 
L 343.079875 179.454114 
L 343.569181 184.272108 
L 343.813834 184.087552 
L 344.792446 167.153374 
L 345.037099 168.932738 
L 345.281752 167.780433 
L 345.771058 172.190022 
L 346.015711 161.716448 
L 346.260364 160.599537 
L 346.505017 158.103996 
L 346.74967 158.162652 
L 346.994323 160.39608 
L 347.728282 154.352714 
L 347.972935 149.258182 
L 348.217588 148.406811 
L 348.462241 149.627447 
L 348.951547 145.268487 
L 349.1962 145.337396 
L 349.440853 147.282258 
L 349.685506 147.055584 
L 350.174812 143.543984 
L 350.419465 139.61543 
L 350.664118 138.670873 
L 350.908771 141.519986 
L 351.153424 137.305033 
L 351.398077 137.495163 
L 351.887383 144.658932 
L 352.132036 140.551682 
L 352.376689 148.92046 
L 352.621342 148.712272 
L 352.865995 130.955391 
L 353.110648 121.549414 
L 353.355301 122.876222 
L 353.599954 123.291233 
L 353.844607 125.742055 
L 354.089261 124.721518 
L 354.333914 126.153231 
L 354.578567 126.208619 
L 354.82322 123.098658 
L 355.067873 114.54564 
L 355.312526 115.941782 
L 355.557179 111.339472 
L 355.801832 120.630016 
L 356.046485 119.013666 
L 356.291138 120.46101 
L 356.535791 116.892529 
L 356.780444 118.064907 
L 357.26975 113.678131 
L 357.514403 120.651571 
L 357.759056 144.957547 
L 358.003709 142.065194 
L 358.248362 141.561612 
L 358.493015 136.530959 
L 358.982321 146.398896 
L 359.471627 138.228495 
L 359.71628 134.839042 
L 359.960933 139.115695 
L 360.694892 144.050274 
L 360.939545 143.169725 
L 361.184198 144.373295 
L 361.428851 159.13887 
L 361.673504 157.400226 
L 361.918157 154.199815 
L 362.407463 137.217084 
L 362.652116 136.996283 
L 362.896769 138.376598 
L 363.141422 140.928423 
L 363.630728 139.285505 
L 363.875381 134.116129 
L 364.120034 122.446707 
L 364.364687 119.780812 
L 364.60934 113.578667 
L 364.853993 113.525155 
L 365.098646 112.405584 
L 365.343299 108.949866 
L 365.587952 108.788158 
L 365.832605 106.31908 
L 366.077258 109.130326 
L 366.321911 103.603436 
L 366.566564 101.505612 
L 366.811217 101.474802 
L 367.05587 108.284725 
L 367.300523 110.173447 
L 367.545176 108.088376 
L 367.789829 107.670697 
L 368.034482 106.068154 
L 368.279135 114.728556 
L 368.523788 117.286246 
L 369.013094 112.210375 
L 369.257747 112.699617 
L 369.5024 123.790097 
L 369.747053 121.510625 
L 369.991706 125.750674 
L 370.236359 120.539282 
L 370.481012 122.322177 
L 370.725665 125.748736 
L 370.970318 123.745666 
L 371.214971 113.505199 
L 371.459624 111.494828 
L 371.704277 111.309624 
L 371.94893 120.109517 
L 372.193583 118.753745 
L 372.438236 115.143213 
L 372.682889 113.418368 
L 372.927542 114.783998 
L 373.172195 109.650719 
L 373.416848 112.300327 
L 373.661501 112.058607 
L 373.906154 109.05 
L 374.640113 119.043689 
L 374.884766 117.476149 
L 375.129419 118.344757 
L 375.374072 120.632938 
L 375.618725 126.24232 
L 375.863378 124.035706 
L 376.108031 118.593255 
L 376.352684 119.626449 
L 376.597338 117.546126 
L 376.841991 120.625868 
L 377.086644 109.571537 
L 377.331297 83.195373 
L 377.57595 71.118369 
L 378.065256 64.286809 
L 378.309909 70.484472 
L 379.043868 66.240156 
L 379.533174 50.336843 
L 379.777827 55.140522 
L 380.02248 51.725522 
L 380.267133 50.885177 
L 380.511786 54.22968 
L 380.756439 63.022569 
L 381.001092 60.62531 
L 381.490398 50.415341 
L 381.490398 50.415341 
" style="fill:none;stroke:#1f77b4;stroke-linecap:square;stroke-width:1.5;"/>
   </g>
   <g id="line2d_32">
    <path clip-path="url(#p293c7984cc)" d="M 56.835852 147.736416 
L 57.080505 144.468187 
L 57.325158 148.375852 
L 57.569811 154.130777 
L 58.059117 147.52327 
L 58.548423 151.501984 
L 58.793076 149.228433 
L 59.037729 152.496662 
L 59.282382 153.704486 
L 59.527035 155.693843 
L 60.016341 148.233755 
L 60.260994 164.5749 
L 60.505647 165.711676 
L 60.7503 163.509173 
L 60.994953 169.690389 
L 61.239606 167.274742 
L 61.484259 168.766759 
L 61.973566 162.088204 
L 62.218219 162.72764 
L 62.462872 160.169896 
L 62.707525 163.864416 
L 62.952178 161.37772 
L 63.196831 154.91231 
L 63.441484 154.628116 
L 63.686137 145.67601 
L 63.93079 152.709808 
L 64.175443 154.91231 
L 64.420096 151.004645 
L 64.664749 150.933596 
L 64.909402 143.331411 
L 65.398708 151.501984 
L 65.643361 151.786178 
L 66.132667 146.102301 
L 66.37732 148.233755 
L 66.621973 146.17335 
L 66.866626 149.583676 
L 67.111279 150.081015 
L 67.600585 152.851905 
L 67.845238 151.075693 
L 68.089891 153.207147 
L 68.82385 143.40246 
L 69.068503 142.549878 
L 69.313156 150.436257 
L 69.557809 141.342055 
L 69.802462 144.255041 
L 70.047115 138.571165 
L 70.291768 129.050671 
L 70.536421 130.755834 
L 70.781074 129.903253 
L 71.025727 133.24253 
L 71.27038 139.921085 
L 71.515033 139.70794 
L 71.759686 146.031253 
L 72.004339 145.604962 
L 72.248992 142.052539 
L 72.493645 143.544557 
L 72.738298 144.183993 
L 72.982951 155.338601 
L 73.227604 160.169896 
L 73.472257 157.541103 
L 73.71691 153.136099 
L 74.206216 162.230301 
L 74.450869 163.438125 
L 74.695522 162.230301 
L 75.184828 170.542971 
L 75.429481 188.944521 
L 75.674134 193.846865 
L 75.918787 186.813068 
L 76.16344 186.955165 
L 76.408093 187.736698 
L 76.652746 178.42935 
L 77.142052 183.402742 
L 77.386705 175.871605 
L 77.631358 173.953297 
L 77.876011 165.49853 
L 78.120664 170.329825 
L 78.365317 164.788046 
L 78.60997 168.127323 
L 78.854623 168.553614 
L 79.099276 163.580222 
L 79.343929 164.5749 
L 79.588582 173.527006 
L 79.833235 187.381455 
L 80.077888 186.670971 
L 80.322541 188.731376 
L 80.811847 183.402742 
L 81.0565 190.365491 
L 81.301153 186.955165 
L 81.545806 189.441861 
L 81.790459 190.010248 
L 82.035112 194.131059 
L 82.279765 192.71009 
L 82.524418 196.8309 
L 82.769071 192.425896 
L 83.013724 185.250002 
L 83.258377 188.376134 
L 83.50303 186.528874 
L 83.747683 191.218072 
L 83.992336 189.868151 
L 84.236989 190.010248 
L 84.481643 191.502266 
L 84.726296 189.583958 
L 84.970949 191.928557 
L 85.215602 187.097262 
L 85.460255 185.463147 
L 85.704908 188.020892 
L 86.194214 182.834354 
L 86.438867 183.47379 
L 86.68352 181.342336 
L 86.928173 186.955165 
L 87.172826 184.468469 
L 87.417479 180.631852 
L 87.662132 181.62653 
L 87.906785 180.205561 
L 88.151438 176.368944 
L 88.396091 182.479112 
L 88.640744 174.379588 
L 88.885397 170.542971 
L 89.13005 171.111358 
L 89.374703 169.335147 
L 89.619356 169.903535 
L 90.108662 169.974583 
L 90.353315 174.024345 
L 90.597968 184.823711 
L 90.842621 188.660328 
L 91.087274 185.463147 
L 91.331927 178.003059 
L 91.57658 177.008381 
L 91.821233 176.724187 
L 92.310539 168.056275 
L 92.555192 174.308539 
L 92.799845 167.487887 
L 93.044498 156.688521 
L 93.289151 153.420292 
L 93.533804 155.83594 
L 93.778457 156.262231 
L 94.02311 158.322636 
L 94.267763 158.677878 
L 94.512416 154.272874 
L 94.757069 153.917632 
L 95.001722 156.972715 
L 95.246375 162.088204 
L 95.491028 163.864416 
L 95.735681 162.443447 
L 95.980334 158.60683 
L 96.224987 157.612151 
L 96.46964 149.441579 
L 96.714293 145.391817 
L 96.958946 145.960204 
L 97.203599 145.889156 
L 97.448252 145.533914 
L 97.937558 137.079147 
L 98.182211 137.221244 
L 98.671517 134.450354 
L 99.160823 122.158971 
L 99.405476 127.487605 
L 99.650129 124.50357 
L 99.894782 119.032839 
L 100.139435 119.672275 
L 100.384088 118.180257 
L 100.628741 119.388081 
L 100.873394 128.979623 
L 101.118047 120.951147 
L 101.3627 123.224698 
L 101.607353 115.26727 
L 101.852006 122.798407 
L 102.341312 115.622513 
L 102.830618 125.000909 
L 103.319924 119.743323 
L 103.564577 114.130495 
L 103.80923 117.11453 
L 104.053883 117.11453 
L 104.298536 121.235341 
L 104.543189 120.169614 
L 104.787842 116.68824 
L 105.032495 119.459129 
L 105.277148 117.469773 
L 105.521801 109.796539 
L 105.766454 119.459129 
L 106.25576 127.27446 
L 106.500413 127.345508 
L 106.745066 129.903253 
L 106.98972 134.876645 
L 107.234373 127.913896 
L 107.479026 127.842847 
L 107.968332 139.850037 
L 108.212985 145.462865 
L 108.457638 139.423746 
L 108.702291 137.647535 
L 108.946944 142.549878 
L 109.191597 139.850037 
L 109.43625 134.876645 
L 110.170209 145.462865 
L 110.414862 144.32609 
L 110.659515 145.24972 
L 110.904168 144.681332 
L 111.148821 139.139552 
L 111.638127 158.322636 
L 112.861392 142.47883 
L 113.106045 147.949561 
L 113.840004 146.031253 
L 114.084657 142.834072 
L 114.32931 132.176803 
L 114.573963 129.903253 
L 114.818616 131.750513 
L 115.063269 125.640345 
L 115.307922 125.640345 
L 115.552575 129.903253 
L 115.797228 127.487605 
L 116.041881 128.695429 
L 116.286534 127.700751 
L 116.531187 122.443165 
L 116.77584 123.935182 
L 117.020493 119.103887 
L 117.509799 122.940504 
L 117.999105 123.082601 
L 118.243758 123.793085 
L 118.488411 123.437843 
L 118.733064 121.448486 
L 118.977717 117.682918 
L 119.22237 117.540821 
L 119.711676 127.487605 
L 119.956329 128.340187 
L 120.200982 130.826883 
L 120.445635 129.54801 
L 120.690288 131.111077 
L 120.934941 134.379306 
L 121.179594 148.517949 
L 121.424247 150.649403 
L 121.913553 156.901667 
L 122.158206 154.628116 
L 122.402859 155.267552 
L 122.647512 155.409649 
L 122.892165 158.322636 
L 123.136818 159.53046 
L 123.381471 162.940786 
L 123.626124 162.585544 
L 123.870777 158.677878 
L 124.11543 160.809332 
L 124.360083 159.175218 
L 124.604736 160.880381 
L 124.849389 161.448768 
L 125.094042 154.91231 
L 125.338695 151.715129 
L 125.583348 151.075693 
L 125.828001 152.070372 
L 126.56196 143.260363 
L 126.806613 134.237209 
L 127.051266 135.729226 
L 127.295919 138.429068 
L 127.540572 134.237209 
L 127.785225 138.997455 
L 128.029878 146.812786 
L 128.274531 147.025931 
L 128.519184 148.873191 
L 129.00849 154.343922 
L 129.253143 153.420292 
L 129.987103 166.564257 
L 130.231756 159.246266 
L 130.476409 158.535781 
L 130.721062 145.818107 
L 130.965715 145.604962 
L 131.210368 146.59964 
L 131.455021 148.802143 
L 131.699674 140.063182 
L 131.944327 138.78431 
L 132.18898 139.281649 
L 132.433633 143.260363 
L 132.678286 134.947693 
L 132.922939 137.931729 
L 133.167592 134.237209 
L 133.412245 136.652856 
L 133.656898 129.12172 
L 133.901551 129.690107 
L 134.390857 131.89261 
L 134.880163 127.771799 
L 135.124816 127.132363 
L 135.369469 121.874777 
L 135.614122 126.492927 
L 135.858775 123.295746 
L 136.103428 115.835658 
L 136.348081 117.967112 
L 137.08204 114.34364 
L 137.326693 114.34364 
L 137.571346 114.130495 
L 137.815999 116.617191 
L 138.060652 116.901385 
L 138.549958 105.746777 
L 139.039264 102.194354 
L 139.52857 100.915482 
L 139.773223 100.204997 
L 140.262529 112.780574 
L 140.507182 109.228151 
L 140.751835 109.157103 
L 140.996488 115.338319 
L 141.241141 115.26727 
L 141.730447 122.443165 
L 142.219753 128.340187 
L 142.464406 123.437843 
L 142.709059 128.411235 
L 142.953712 127.061314 
L 143.198365 123.935182 
L 143.443018 122.940504 
L 143.687671 120.240662 
L 143.932324 119.672275 
L 144.176977 118.535499 
L 144.42163 118.109209 
L 144.666283 116.546143 
L 144.910936 118.393403 
L 145.155589 121.519535 
L 145.400242 119.814372 
L 145.644895 124.219376 
L 145.889548 122.372116 
L 146.134201 122.727358 
L 146.378854 126.635024 
L 146.623507 123.295746 
L 146.86816 125.4272 
L 147.357466 135.871323 
L 147.846772 141.839394 
L 148.580731 150.365209 
L 148.825384 146.670689 
L 149.070037 150.720451 
L 149.31469 146.102301 
L 149.559343 146.59964 
L 149.803996 160.951429 
L 150.048649 160.45409 
L 150.293302 159.459411 
L 150.537955 159.814654 
L 150.782608 153.207147 
L 151.027261 153.136099 
L 151.271914 145.747059 
L 151.516567 144.610284 
L 152.005874 138.713262 
L 152.49518 145.391817 
L 152.739833 154.841262 
L 152.984486 157.6832 
L 153.229139 156.049085 
L 153.473792 156.049085 
L 153.718445 145.889156 
L 153.963098 147.452222 
L 154.207751 146.457544 
L 154.452404 150.578354 
L 154.697057 143.40246 
L 154.94171 145.747059 
L 155.186363 145.178671 
L 155.431016 147.310125 
L 155.675669 148.375852 
L 156.164975 140.560521 
L 156.654281 149.441579 
L 156.898934 146.59964 
L 157.143587 145.960204 
L 157.38824 148.731094 
L 157.877546 136.510759 
L 158.122199 131.821561 
L 158.366852 131.040028 
L 158.611505 135.587129 
L 159.100811 137.150195 
L 159.83477 128.837526 
L 160.079423 126.848169 
L 160.324076 127.913896 
L 160.568729 127.913896 
L 160.813382 121.73268 
L 161.058035 123.224698 
L 161.302688 130.897931 
L 161.547341 133.668821 
L 161.791994 127.416557 
L 162.036647 130.96898 
L 162.525953 125.4272 
L 163.015259 126.137684 
L 163.504565 120.80905 
L 163.749218 118.606548 
L 163.993871 110.507024 
L 164.238524 111.14646 
L 164.483177 110.862266 
L 164.72783 110.933314 
L 165.461789 122.940504 
L 165.706442 123.295746 
L 166.195748 114.485737 
L 166.440401 114.84098 
L 166.685054 114.912028 
L 166.929707 117.753966 
L 167.17436 131.324222 
L 167.419013 130.04535 
L 167.663666 132.887288 
L 167.908319 139.423746 
L 168.152972 139.636892 
L 168.397625 141.5552 
L 168.642278 139.992134 
L 168.886931 140.134231 
L 169.131584 140.560521 
L 169.376237 137.363341 
L 169.62089 131.750513 
L 169.865543 131.821561 
L 170.110196 132.176803 
L 170.354849 129.192768 
L 170.599502 127.842847 
L 170.844155 128.624381 
L 171.088808 130.04535 
L 172.06742 142.336733 
L 172.312073 141.910442 
L 172.556726 144.397138 
L 172.801379 139.352698 
L 173.046032 138.144874 
L 173.290685 139.494795 
L 173.535338 138.713262 
L 173.779991 137.434389 
L 174.024644 139.921085 
L 174.269298 144.965526 
L 174.513951 141.910442 
L 174.758604 143.828751 
L 175.003257 142.336733 
L 175.24791 139.921085 
L 175.492563 138.997455 
L 175.737216 136.723905 
L 176.226522 128.624381 
L 176.471175 129.690107 
L 176.960481 133.313579 
L 177.205134 131.253173 
L 177.449787 131.111077 
L 177.69444 132.887288 
L 177.939093 129.476962 
L 178.183746 131.750513 
L 178.428399 132.674143 
L 178.673052 130.187447 
L 179.162358 137.434389 
L 179.651664 141.199958 
L 179.896317 145.889156 
L 180.14097 154.414971 
L 180.385623 154.699165 
L 180.630276 154.699165 
L 180.874929 156.120134 
L 181.119582 150.009966 
L 181.364235 151.786178 
L 181.608888 146.670689 
L 181.853541 148.873191 
L 182.342847 151.21779 
L 182.5875 148.660046 
L 182.832153 152.14142 
L 183.321459 145.178671 
L 183.566112 144.610284 
L 183.810765 140.418425 
L 184.055418 139.139552 
L 184.300071 139.423746 
L 184.544724 140.63157 
L 184.789377 138.286971 
L 185.03403 137.931729 
L 185.278683 140.773667 
L 185.767989 137.150195 
L 186.012642 133.24253 
L 186.257295 126.492927 
L 186.501948 133.455676 
L 186.746601 131.963658 
L 186.991254 133.597773 
L 187.48056 138.855358 
L 187.725213 138.571165 
L 187.969866 134.947693 
L 188.214519 135.516081 
L 188.459172 135.658178 
L 188.703825 131.253173 
L 189.193131 140.063182 
L 189.437784 129.54801 
L 189.682437 136.368662 
L 189.92709 133.739869 
L 190.171743 136.652856 
L 190.416396 133.881966 
L 190.661049 136.368662 
L 190.905702 135.587129 
L 191.150355 127.842847 
L 191.395008 127.629702 
L 191.639661 127.984944 
L 191.884314 121.306389 
L 192.128967 124.006231 
L 192.37362 120.951147 
L 192.618273 126.137684 
L 192.862926 123.153649 
L 193.107579 142.905121 
L 193.352232 152.709808 
L 193.596885 150.720451 
L 194.086191 137.079147 
L 194.330844 137.008099 
L 195.064803 133.029385 
L 195.309456 134.734548 
L 195.798762 134.024063 
L 196.043415 135.302936 
L 196.288068 135.231887 
L 196.532721 128.269138 
L 196.777375 125.143006 
L 197.022028 124.361473 
L 197.511334 112.780574 
L 197.755987 115.835658 
L 198.00064 114.485737 
L 198.245293 87.913614 
L 198.489946 87.771517 
L 198.734599 83.437561 
L 198.979252 81.874495 
L 199.223905 73.34868 
L 199.468558 76.261667 
L 199.713211 75.764328 
L 199.957864 70.435693 
L 200.202517 73.632874 
L 200.44717 73.419729 
L 200.691823 55.231323 
L 200.936476 64.60972 
L 201.181129 63.330847 
L 201.425782 73.703922 
L 201.670435 74.982795 
L 201.915088 79.529896 
L 202.159741 78.748363 
L 202.649047 87.62942 
L 202.8937 81.590301 
L 203.138353 81.732398 
L 203.383006 80.808768 
L 203.627659 87.771517 
L 204.116965 66.599077 
L 204.361618 72.140856 
L 204.606271 63.472944 
L 204.850924 61.483588 
L 205.095577 63.117702 
L 205.34023 59.707376 
L 205.584883 61.625684 
L 205.829536 60.559958 
L 206.074189 67.025367 
L 206.318842 66.88327 
L 206.563495 68.659482 
L 206.808148 63.970284 
L 207.297454 34.414125 
L 207.542107 42.371552 
L 207.78676 37.611306 
L 208.031413 42.655746 
L 208.276066 61.83883 
L 208.520719 56.368099 
L 208.765372 60.702055 
L 209.254678 61.625684 
L 209.499331 49.83164 
L 209.988637 47.487041 
L 210.477943 60.346812 
L 210.722596 53.952451 
L 210.967249 73.419729 
L 211.456555 64.822865 
L 211.945861 57.078583 
L 212.190514 56.723341 
L 212.435167 66.812222 
L 212.67982 57.007535 
L 212.924473 63.757138 
L 213.169126 66.954319 
L 213.413779 67.522706 
L 213.658432 66.45698 
L 213.903085 64.112381 
L 214.147738 83.792803 
L 214.392391 78.251024 
L 214.637044 76.11957 
L 214.881697 76.332715 
L 215.12635 83.437561 
L 215.615656 80.879817 
L 215.860309 80.666671 
L 216.349615 90.471358 
L 216.594268 83.437561 
L 216.838921 90.40031 
L 217.083574 88.339905 
L 217.328227 94.09483 
L 217.57288 103.899517 
L 217.817533 95.302654 
L 218.062186 95.302654 
L 218.306839 85.426918 
L 218.551492 90.187165 
L 218.796145 90.826601 
L 219.040798 98.002495 
L 219.285452 85.78216 
L 219.530105 85.284821 
L 219.774758 87.132081 
L 220.019411 99.423464 
L 220.264064 95.373702 
L 220.508717 99.210319 
L 220.75337 90.826601 
L 220.998023 92.815958 
L 221.242676 103.75742 
L 221.487329 103.615323 
L 221.731982 101.768063 
L 221.976635 105.249438 
L 222.221288 101.483869 
L 222.710594 104.183711 
L 222.955247 106.741455 
L 223.1999 107.736134 
L 223.689206 114.201544 
L 223.933859 123.864134 
L 224.178512 122.016874 
L 224.423165 122.798407 
L 224.667818 119.956469 
L 225.157124 109.938636 
L 225.64643 115.196222 
L 225.891083 123.864134 
L 226.135736 122.65631 
L 226.625042 114.627834 
L 226.869695 122.087922 
L 227.114348 125.498248 
L 227.603654 119.245984 
L 227.848307 122.301068 
L 228.09296 116.1909 
L 228.337613 121.874777 
L 229.071572 109.370248 
L 229.316225 134.16616 
L 229.560878 137.931729 
L 229.805531 136.439711 
L 230.050184 138.215922 
L 230.294837 145.036574 
L 230.53949 142.976169 
L 230.784143 145.462865 
L 231.028796 149.512627 
L 231.273449 146.244398 
L 231.518102 147.665367 
L 231.762755 145.107623 
L 232.007408 150.365209 
L 232.252061 158.109491 
L 232.496714 161.306671 
L 232.741367 162.30135 
L 232.98602 159.033121 
L 233.230673 158.962072 
L 233.719979 166.137966 
L 234.209285 160.45409 
L 234.453938 158.677878 
L 234.698591 160.383041 
L 234.943244 160.027799 
L 235.43255 162.940786 
L 235.677203 166.635306 
L 235.921856 164.788046 
L 236.411162 173.242812 
L 236.655815 166.493209 
L 236.900468 166.635306 
L 237.145121 161.875059 
L 237.389774 152.922953 
L 237.634427 158.109491 
L 237.87908 160.098847 
L 238.123733 157.6832 
L 238.368386 152.283517 
L 238.613039 152.922953 
L 238.857692 153.917632 
L 239.102345 152.638759 
L 239.591651 157.825297 
L 239.836304 160.383041 
L 240.080957 157.399006 
L 240.814916 170.045632 
L 241.059569 164.930143 
L 241.304222 164.006513 
L 241.548875 164.503852 
L 241.793529 165.782724 
L 242.038182 164.361755 
L 242.282835 163.864416 
L 242.527488 154.91231 
L 242.772141 160.027799 
L 243.016794 170.969262 
L 243.261447 169.335147 
L 243.750753 161.519817 
L 243.995406 164.859094 
L 244.240059 162.940786 
L 244.484712 166.280063 
L 244.729365 183.544839 
L 244.974018 190.010248 
L 245.218671 191.004927 
L 245.95263 228.873755 
L 246.441936 207.701314 
L 246.686589 215.800839 
L 246.931242 217.292856 
L 247.175895 223.758266 
L 247.665201 216.369226 
L 247.909854 223.260927 
L 248.154507 205.569861 
L 248.643813 221.626812 
L 248.888466 217.861244 
L 249.133119 220.490037 
L 249.377772 220.205843 
L 249.622425 217.57705 
L 249.867078 219.140116 
L 250.111731 227.168592 
L 250.356384 224.468751 
L 250.601037 225.392381 
L 251.090343 223.687218 
L 251.334996 224.04246 
L 251.579649 224.895041 
L 251.824302 224.04246 
L 252.068955 216.511323 
L 252.313608 220.561085 
L 252.802914 209.193332 
L 253.047567 210.543253 
L 253.536873 202.017438 
L 253.781526 203.367358 
L 254.026179 201.662195 
L 254.270832 203.083165 
L 254.515485 250.685632 
L 255.004791 258.785156 
L 255.249444 259.06935 
L 255.73875 260.561367 
L 255.983403 258.714107 
L 256.228056 262.977015 
L 256.472709 264.966372 
L 256.717362 268.802988 
L 256.962015 267.666213 
L 257.206668 265.392662 
L 257.451321 270.508151 
L 258.429933 260.774513 
L 258.674586 259.566689 
L 258.919239 261.627094 
L 259.163892 260.277173 
L 259.653198 272.568557 
L 259.897851 276.334125 
L 260.63181 244.29127 
L 260.876463 245.925385 
L 261.121116 250.401438 
L 261.365769 249.051517 
L 261.610422 251.467165 
L 261.855075 249.193614 
L 262.099728 251.68031 
L 262.344381 259.140398 
L 262.589034 258.074671 
L 262.833687 262.621773 
L 263.567646 247.346354 
L 263.812299 253.669667 
L 264.056952 257.079993 
L 264.301606 254.024909 
L 264.546259 255.445878 
L 264.790912 248.127887 
L 265.035565 253.456521 
L 265.280218 248.767323 
L 265.524871 258.14572 
L 265.769524 259.06935 
L 266.503483 243.154495 
L 266.748136 245.001755 
L 266.992789 245.570143 
L 267.237442 239.459975 
L 267.482095 238.962636 
L 267.726748 241.662477 
L 267.971401 240.525702 
L 268.216054 230.152627 
L 268.460707 225.676574 
L 268.70536 215.161403 
L 268.950013 225.747623 
L 269.194666 220.916328 
L 269.439319 225.179235 
L 269.683972 237.257473 
L 269.928625 229.157949 
L 270.173278 237.186425 
L 270.417931 232.710372 
L 270.662584 244.930706 
L 271.15189 231.786742 
L 271.641196 222.479394 
L 271.885849 222.834636 
L 272.130502 220.916328 
L 272.375155 205.711958 
L 272.619808 197.612433 
L 273.109114 206.351394 
L 273.353767 205.285667 
L 273.59842 201.164856 
L 273.843073 201.875341 
L 274.087726 209.619623 
L 274.332379 209.76172 
L 274.577032 213.100997 
L 274.821685 206.99083 
L 275.066338 208.980187 
L 275.310991 207.488169 
L 275.555644 221.626812 
L 275.800297 217.790195 
L 276.289603 204.859376 
L 276.778909 193.775817 
L 277.023562 204.646231 
L 277.268215 205.854055 
L 277.512868 205.001473 
L 277.757521 206.777684 
L 278.002174 207.275024 
L 278.246827 202.727922 
L 278.49148 194.841544 
L 278.736133 193.775817 
L 278.980786 197.399288 
L 279.225439 198.251869 
L 279.470092 199.957032 
L 279.714745 198.607112 
L 279.959398 193.420574 
L 280.204051 194.131059 
L 280.693357 201.520099 
L 280.93801 194.273156 
L 281.182663 194.98364 
L 281.427316 197.896627 
L 281.671969 194.06001 
L 281.916622 193.207429 
L 282.161275 193.846865 
L 282.405928 188.376134 
L 282.650581 190.578636 
L 282.895234 186.528874 
L 283.139887 186.24468 
L 283.38454 189.512909 
L 283.629193 186.670971 
L 283.873846 192.496944 
L 284.118499 193.63372 
L 284.363152 198.322918 
L 284.607805 188.376134 
L 284.852458 185.889438 
L 285.097111 188.376134 
L 285.341764 186.528874 
L 285.586417 180.844997 
L 285.83107 181.484433 
L 286.320376 190.720733 
L 286.56503 188.944521 
L 286.809683 183.615887 
L 287.054336 184.823711 
L 287.298989 183.971129 
L 287.543642 187.594601 
L 287.788295 202.088486 
L 288.032948 196.972997 
L 288.277601 201.164856 
L 288.522254 199.814936 
L 288.766907 199.672839 
L 289.256213 187.310407 
L 289.500866 188.447182 
L 289.745519 205.356715 
L 289.990172 202.230583 
L 290.234825 215.800839 
L 290.479478 208.127605 
L 290.724131 214.664063 
L 290.968784 228.518513 
L 291.213437 185.534195 
L 291.45809 180.844997 
L 291.702743 183.402742 
L 291.947396 178.145156 
L 292.192049 176.439993 
L 292.436702 173.8112 
L 292.681355 174.521684 
L 292.926008 174.308539 
L 293.170661 176.297896 
L 293.415314 173.100715 
L 293.659967 173.669103 
L 293.90462 172.390231 
L 294.149273 172.532328 
L 294.393926 170.756116 
L 294.638579 172.106037 
L 294.883232 171.750795 
L 295.127885 176.084751 
L 295.372538 173.100715 
L 295.861844 170.614019 
L 296.106497 173.100715 
L 296.35115 172.034988 
L 297.085109 164.930143 
L 297.329762 165.924821 
L 297.574415 169.19305 
L 297.819068 169.122002 
L 298.308374 158.393684 
L 298.553027 159.885702 
L 298.79768 157.541103 
L 299.042333 152.709808 
L 299.286986 154.770213 
L 299.776292 151.004645 
L 300.020945 156.617473 
L 300.265598 154.130777 
L 300.510251 153.562389 
L 300.754904 153.775535 
L 300.999557 152.567711 
L 301.24421 153.846583 
L 301.488863 152.922953 
L 301.733516 154.841262 
L 301.978169 154.628116 
L 302.222822 153.207147 
L 302.467475 153.349244 
L 302.712128 156.262231 
L 302.956781 156.830618 
L 303.201434 158.748927 
L 303.446087 152.994002 
L 303.69074 157.612151 
L 303.935393 158.962072 
L 304.424699 153.136099 
L 304.669352 156.120134 
L 304.914005 154.699165 
L 305.158658 151.786178 
L 305.403311 152.851905 
L 305.647964 152.212469 
L 306.13727 159.317314 
L 306.381923 159.033121 
L 306.626576 149.299482 
L 306.871229 159.885702 
L 307.115882 160.667235 
L 307.360535 165.853773 
L 307.605188 164.006513 
L 307.849841 171.182407 
L 308.094494 171.750795 
L 308.339147 169.903535 
L 308.5838 170.542971 
L 308.828453 169.619341 
L 309.073107 159.672557 
L 309.31776 162.088204 
L 309.562413 158.535781 
L 309.807066 165.214336 
L 310.051719 166.848451 
L 310.296372 177.718865 
L 310.541025 166.066918 
L 310.785678 169.477244 
L 311.030331 169.050953 
L 311.274984 162.798689 
L 311.519637 159.459411 
L 311.76429 165.001191 
L 312.008943 165.853773 
L 312.253596 164.290706 
L 312.742902 163.153931 
L 312.987555 168.340469 
L 313.232208 163.296028 
L 313.476861 167.132645 
L 313.721514 174.663781 
L 313.966167 164.788046 
L 314.21082 165.569579 
L 314.455473 167.416839 
L 314.700126 167.985226 
L 314.944779 184.39742 
L 315.678738 198.393966 
L 315.923391 197.896627 
L 316.168044 192.425896 
L 316.412697 190.86283 
L 316.65735 192.496944 
L 316.902003 187.878795 
L 317.146656 187.736698 
L 317.391309 188.873473 
L 317.635962 191.644363 
L 317.880615 185.605244 
L 318.369921 182.763306 
L 318.859227 179.921367 
L 319.10388 179.708222 
L 319.348533 184.823711 
L 319.837839 182.479112 
L 320.082492 185.818389 
L 320.327145 181.413385 
L 320.571798 181.342336 
L 320.816451 172.034988 
L 321.061104 169.974583 
L 321.305757 171.111358 
L 321.55041 176.368944 
L 321.795063 169.761438 
L 322.039716 169.974583 
L 322.284369 185.605244 
L 322.529022 190.223394 
L 323.262981 173.953297 
L 323.507634 171.111358 
L 323.752287 171.395552 
L 323.99694 170.11668 
L 324.241593 176.795235 
L 324.730899 173.598055 
L 324.975552 180.27661 
L 325.464858 175.587411 
L 325.954164 179.281931 
L 326.198817 167.985226 
L 326.44347 167.061596 
L 326.932776 172.177085 
L 327.177429 172.88757 
L 327.422082 168.624662 
L 327.666735 166.919499 
L 327.911388 171.04031 
L 328.156041 182.763306 
L 328.400694 183.118548 
L 328.645347 181.981773 
L 328.89 184.752662 
L 329.134653 185.107905 
L 329.379306 186.102583 
L 329.623959 189.370812 
L 329.868612 186.528874 
L 330.113265 185.463147 
L 330.357918 192.212751 
L 330.602571 189.01557 
L 330.847224 192.425896 
L 331.091877 190.294442 
L 331.33653 194.273156 
L 331.581184 200.241226 
L 331.825837 191.075975 
L 332.07049 193.278477 
L 332.804449 203.651552 
L 333.049102 198.322918 
L 333.293755 201.946389 
L 333.538408 203.083165 
L 333.783061 210.68535 
L 334.027714 205.285667 
L 334.272367 203.012116 
L 334.51702 206.635588 
L 334.761673 203.29631 
L 335.006326 204.717279 
L 335.250979 205.427764 
L 335.495632 201.946389 
L 335.984938 186.386777 
L 336.229591 193.917914 
L 336.474244 195.694125 
L 336.718897 189.370812 
L 336.96355 189.157667 
L 337.208203 187.878795 
L 337.452856 184.326372 
L 337.697509 169.548292 
L 337.942162 167.701032 
L 338.186815 170.542971 
L 338.431468 162.869737 
L 339.165427 176.653138 
L 339.41008 174.450636 
L 339.654733 179.637173 
L 339.899386 180.7029 
L 340.144039 180.773949 
L 340.388692 181.271288 
L 340.633345 180.844997 
L 340.877998 179.139834 
L 341.122651 180.205561 
L 341.367304 174.73483 
L 341.85661 176.724187 
L 342.101263 180.631852 
L 342.345916 179.992416 
L 342.590569 180.560803 
L 342.835222 178.074107 
L 343.324528 182.621209 
L 343.569181 182.265966 
L 344.547793 165.07224 
L 344.792446 166.848451 
L 345.037099 165.569579 
L 345.526405 169.690389 
L 345.771058 159.246266 
L 346.015711 158.109491 
L 346.260364 155.480698 
L 346.505017 155.409649 
L 346.74967 157.470055 
L 347.483629 150.933596 
L 347.728282 145.747059 
L 347.972935 144.752381 
L 348.217588 145.889156 
L 348.706894 141.271006 
L 348.951547 141.199958 
L 349.1962 143.047218 
L 349.440853 142.691975 
L 349.930159 138.926407 
L 350.174812 134.805596 
L 350.419465 133.668821 
L 350.664118 136.368662 
L 350.908771 132.105755 
L 351.153424 132.247852 
L 351.64273 139.281649 
L 351.887383 135.160839 
L 352.132036 143.544557 
L 352.376689 143.473508 
L 352.621342 126.279781 
L 352.865995 117.540821 
L 353.110648 119.103887 
L 353.355301 119.530178 
L 353.599954 121.945825 
L 353.844607 120.80905 
L 354.089261 122.087922 
L 354.333914 121.945825 
L 354.578567 118.748645 
L 354.82322 110.151781 
L 355.067873 111.501702 
L 355.312526 106.954601 
L 355.557179 116.404046 
L 355.801832 114.84098 
L 356.046485 116.404046 
L 356.291138 112.922671 
L 356.535791 114.201544 
L 357.025097 109.512345 
L 357.26975 116.546143 
L 357.514403 142.620927 
L 357.759056 140.773667 
L 358.003709 140.489473 
L 358.248362 135.516081 
L 358.737668 145.462865 
L 359.226974 137.150195 
L 359.471627 133.597773 
L 359.71628 137.718583 
L 360.205586 141.768345 
L 360.450239 142.052539 
L 360.694892 140.986812 
L 360.939545 141.981491 
L 361.184198 156.901667 
L 361.428851 155.196504 
L 361.673504 151.857226 
L 362.16281 134.805596 
L 362.407463 134.592451 
L 362.652116 135.800275 
L 362.896769 138.144874 
L 363.386075 136.155517 
L 363.630728 130.897931 
L 363.875381 119.317032 
L 364.120034 116.617191 
L 364.364687 110.364927 
L 364.60934 110.151781 
L 364.853993 108.872909 
L 365.098646 105.249438 
L 365.343299 105.036292 
L 365.587952 102.620645 
L 365.832605 105.391535 
L 366.077258 99.707658 
L 366.321911 97.505156 
L 366.566564 97.363059 
L 366.811217 104.112662 
L 367.05587 105.959922 
L 367.300523 103.828469 
L 367.545176 103.331129 
L 367.789829 101.839112 
L 368.034482 110.933314 
L 368.279135 113.704204 
L 368.768441 108.659764 
L 369.013094 109.086055 
L 369.257747 120.595905 
L 369.5024 118.535499 
L 369.747053 122.798407 
L 369.991706 117.540821 
L 370.236359 119.174936 
L 370.481012 122.514213 
L 370.725665 120.382759 
L 370.970318 110.22283 
L 371.214971 108.233473 
L 371.459624 107.949279 
L 371.704277 116.759288 
L 371.94893 115.338319 
L 372.193583 111.572751 
L 372.438236 109.796539 
L 372.682889 111.075411 
L 372.927542 106.102019 
L 373.172195 108.801861 
L 373.416848 108.446618 
L 373.661501 105.249438 
L 374.39546 114.84098 
L 374.640113 113.135817 
L 374.884766 113.846301 
L 375.129419 116.261949 
L 375.374072 122.016874 
L 375.618725 119.814372 
L 375.863378 114.34364 
L 376.108031 115.26727 
L 376.352684 112.99372 
L 376.597338 115.906706 
L 376.841991 105.036292 
L 377.086644 79.458847 
L 377.331297 68.091094 
L 377.820603 61.767781 
L 378.065256 68.020046 
L 378.799215 63.330847 
L 379.288521 47.344944 
L 379.533174 52.105191 
L 379.777827 48.552768 
L 380.02248 47.55809 
L 380.267133 50.75527 
L 380.511786 59.423182 
L 380.756439 56.865438 
L 381.245745 46.279218 
L 381.490398 40.026953 
L 381.490398 40.026953 
" style="fill:none;stroke:#ff7f0e;stroke-linecap:square;stroke-width:1.5;"/>
   </g>
   <g id="patch_3">
    <path d="M 40.603125 288.430125 
L 40.603125 22.318125 
" style="fill:none;stroke:#000000;stroke-linecap:square;stroke-linejoin:miter;stroke-width:0.8;"/>
   </g>
   <g id="patch_4">
    <path d="M 397.723125 288.430125 
L 397.723125 22.318125 
" style="fill:none;stroke:#000000;stroke-linecap:square;stroke-linejoin:miter;stroke-width:0.8;"/>
   </g>
   <g id="patch_5">
    <path d="M 40.603125 288.430125 
L 397.723125 288.430125 
" style="fill:none;stroke:#000000;stroke-linecap:square;stroke-linejoin:miter;stroke-width:0.8;"/>
   </g>
   <g id="patch_6">
    <path d="M 40.603125 22.318125 
L 397.723125 22.318125 
" style="fill:none;stroke:#000000;stroke-linecap:square;stroke-linejoin:miter;stroke-width:0.8;"/>
   </g>
   <g id="text_18">
    <!-- Training: WMT -->
    <defs>
     <path d="M -0.296875 72.90625 
L 61.375 72.90625 
L 61.375 64.59375 
L 35.5 64.59375 
L 35.5 0 
L 25.59375 0 
L 25.59375 64.59375 
L -0.296875 64.59375 
z
" id="DejaVuSans-84"/>
     <path d="M 54.890625 33.015625 
L 54.890625 0 
L 45.90625 0 
L 45.90625 32.71875 
Q 45.90625 40.484375 42.875 44.328125 
Q 39.84375 48.1875 33.796875 48.1875 
Q 26.515625 48.1875 22.3125 43.546875 
Q 18.109375 38.921875 18.109375 30.90625 
L 18.109375 0 
L 9.078125 0 
L 9.078125 54.6875 
L 18.109375 54.6875 
L 18.109375 46.1875 
Q 21.34375 51.125 25.703125 53.5625 
Q 30.078125 56 35.796875 56 
Q 45.21875 56 50.046875 50.171875 
Q 54.890625 44.34375 54.890625 33.015625 
z
" id="DejaVuSans-110"/>
     <path d="M 45.40625 27.984375 
Q 45.40625 37.75 41.375 43.109375 
Q 37.359375 48.484375 30.078125 48.484375 
Q 22.859375 48.484375 18.828125 43.109375 
Q 14.796875 37.75 14.796875 27.984375 
Q 14.796875 18.265625 18.828125 12.890625 
Q 22.859375 7.515625 30.078125 7.515625 
Q 37.359375 7.515625 41.375 12.890625 
Q 45.40625 18.265625 45.40625 27.984375 
z
M 54.390625 6.78125 
Q 54.390625 -7.171875 48.1875 -13.984375 
Q 42 -20.796875 29.203125 -20.796875 
Q 24.46875 -20.796875 20.265625 -20.09375 
Q 16.0625 -19.390625 12.109375 -17.921875 
L 12.109375 -9.1875 
Q 16.0625 -11.328125 19.921875 -12.34375 
Q 23.78125 -13.375 27.78125 -13.375 
Q 36.625 -13.375 41.015625 -8.765625 
Q 45.40625 -4.15625 45.40625 5.171875 
L 45.40625 9.625 
Q 42.625 4.78125 38.28125 2.390625 
Q 33.9375 0 27.875 0 
Q 17.828125 0 11.671875 7.65625 
Q 5.515625 15.328125 5.515625 27.984375 
Q 5.515625 40.671875 11.671875 48.328125 
Q 17.828125 56 27.875 56 
Q 33.9375 56 38.28125 53.609375 
Q 42.625 51.21875 45.40625 46.390625 
L 45.40625 54.6875 
L 54.390625 54.6875 
z
" id="DejaVuSans-103"/>
     <path d="M 11.71875 12.40625 
L 22.015625 12.40625 
L 22.015625 0 
L 11.71875 0 
z
M 11.71875 51.703125 
L 22.015625 51.703125 
L 22.015625 39.3125 
L 11.71875 39.3125 
z
" id="DejaVuSans-58"/>
     <path d="M 3.328125 72.90625 
L 13.28125 72.90625 
L 28.609375 11.28125 
L 43.890625 72.90625 
L 54.984375 72.90625 
L 70.3125 11.28125 
L 85.59375 72.90625 
L 95.609375 72.90625 
L 77.296875 0 
L 64.890625 0 
L 49.515625 63.28125 
L 33.984375 0 
L 21.578125 0 
z
" id="DejaVuSans-87"/>
     <path d="M 9.8125 72.90625 
L 24.515625 72.90625 
L 43.109375 23.296875 
L 61.8125 72.90625 
L 76.515625 72.90625 
L 76.515625 0 
L 66.890625 0 
L 66.890625 64.015625 
L 48.09375 14.015625 
L 38.1875 14.015625 
L 19.390625 64.015625 
L 19.390625 0 
L 9.8125 0 
z
" id="DejaVuSans-77"/>
    </defs>
    <g transform="translate(176.79 16.318125)scale(0.12 -0.12)">
     <use xlink:href="#DejaVuSans-84"/>
     <use x="46.333984" xlink:href="#DejaVuSans-114"/>
     <use x="87.447266" xlink:href="#DejaVuSans-97"/>
     <use x="148.726562" xlink:href="#DejaVuSans-105"/>
     <use x="176.509766" xlink:href="#DejaVuSans-110"/>
     <use x="239.888672" xlink:href="#DejaVuSans-105"/>
     <use x="267.671875" xlink:href="#DejaVuSans-110"/>
     <use x="331.050781" xlink:href="#DejaVuSans-103"/>
     <use x="394.527344" xlink:href="#DejaVuSans-58"/>
     <use x="428.21875" xlink:href="#DejaVuSans-32"/>
     <use x="460.005859" xlink:href="#DejaVuSans-87"/>
     <use x="558.882812" xlink:href="#DejaVuSans-77"/>
     <use x="645.162109" xlink:href="#DejaVuSans-84"/>
    </g>
   </g>
   <g id="legend_1">
    <g id="patch_7">
     <path d="M 47.603125 59.674375 
L 131.33125 59.674375 
Q 133.33125 59.674375 133.33125 57.674375 
L 133.33125 29.318125 
Q 133.33125 27.318125 131.33125 27.318125 
L 47.603125 27.318125 
Q 45.603125 27.318125 45.603125 29.318125 
L 45.603125 57.674375 
Q 45.603125 59.674375 47.603125 59.674375 
z
" style="fill:#ffffff;opacity:0.8;stroke:#cccccc;stroke-linejoin:miter;"/>
    </g>
    <g id="line2d_33">
     <path d="M 49.603125 35.416562 
L 69.603125 35.416562 
" style="fill:none;stroke:#1f77b4;stroke-linecap:square;stroke-width:1.5;"/>
    </g>
    <g id="line2d_34"/>
    <g id="text_19">
     <!-- Predicted -->
     <defs>
      <path d="M 45.40625 46.390625 
L 45.40625 75.984375 
L 54.390625 75.984375 
L 54.390625 0 
L 45.40625 0 
L 45.40625 8.203125 
Q 42.578125 3.328125 38.25 0.953125 
Q 33.9375 -1.421875 27.875 -1.421875 
Q 17.96875 -1.421875 11.734375 6.484375 
Q 5.515625 14.40625 5.515625 27.296875 
Q 5.515625 40.1875 11.734375 48.09375 
Q 17.96875 56 27.875 56 
Q 33.9375 56 38.25 53.625 
Q 42.578125 51.265625 45.40625 46.390625 
z
M 14.796875 27.296875 
Q 14.796875 17.390625 18.875 11.75 
Q 22.953125 6.109375 30.078125 6.109375 
Q 37.203125 6.109375 41.296875 11.75 
Q 45.40625 17.390625 45.40625 27.296875 
Q 45.40625 37.203125 41.296875 42.84375 
Q 37.203125 48.484375 30.078125 48.484375 
Q 22.953125 48.484375 18.875 42.84375 
Q 14.796875 37.203125 14.796875 27.296875 
z
" id="DejaVuSans-100"/>
      <path d="M 18.3125 70.21875 
L 18.3125 54.6875 
L 36.8125 54.6875 
L 36.8125 47.703125 
L 18.3125 47.703125 
L 18.3125 18.015625 
Q 18.3125 11.328125 20.140625 9.421875 
Q 21.96875 7.515625 27.59375 7.515625 
L 36.8125 7.515625 
L 36.8125 0 
L 27.59375 0 
Q 17.1875 0 13.234375 3.875 
Q 9.28125 7.765625 9.28125 18.015625 
L 9.28125 47.703125 
L 2.6875 47.703125 
L 2.6875 54.6875 
L 9.28125 54.6875 
L 9.28125 70.21875 
z
" id="DejaVuSans-116"/>
     </defs>
     <g transform="translate(77.603125 38.916562)scale(0.1 -0.1)">
      <use xlink:href="#DejaVuSans-80"/>
      <use x="58.552734" xlink:href="#DejaVuSans-114"/>
      <use x="97.416016" xlink:href="#DejaVuSans-101"/>
      <use x="158.939453" xlink:href="#DejaVuSans-100"/>
      <use x="222.416016" xlink:href="#DejaVuSans-105"/>
      <use x="250.199219" xlink:href="#DejaVuSans-99"/>
      <use x="305.179688" xlink:href="#DejaVuSans-116"/>
      <use x="344.388672" xlink:href="#DejaVuSans-101"/>
      <use x="405.912109" xlink:href="#DejaVuSans-100"/>
     </g>
    </g>
    <g id="line2d_35">
     <path d="M 49.603125 50.094687 
L 69.603125 50.094687 
" style="fill:none;stroke:#ff7f0e;stroke-linecap:square;stroke-width:1.5;"/>
    </g>
    <g id="line2d_36"/>
    <g id="text_20">
     <!-- True value -->
     <defs>
      <path d="M 8.5 21.578125 
L 8.5 54.6875 
L 17.484375 54.6875 
L 17.484375 21.921875 
Q 17.484375 14.15625 20.5 10.265625 
Q 23.53125 6.390625 29.59375 6.390625 
Q 36.859375 6.390625 41.078125 11.03125 
Q 45.3125 15.671875 45.3125 23.6875 
L 45.3125 54.6875 
L 54.296875 54.6875 
L 54.296875 0 
L 45.3125 0 
L 45.3125 8.40625 
Q 42.046875 3.421875 37.71875 1 
Q 33.40625 -1.421875 27.6875 -1.421875 
Q 18.265625 -1.421875 13.375 4.4375 
Q 8.5 10.296875 8.5 21.578125 
z
M 31.109375 56 
z
" id="DejaVuSans-117"/>
      <path d="M 2.984375 54.6875 
L 12.5 54.6875 
L 29.59375 8.796875 
L 46.6875 54.6875 
L 56.203125 54.6875 
L 35.6875 0 
L 23.484375 0 
z
" id="DejaVuSans-118"/>
      <path d="M 9.421875 75.984375 
L 18.40625 75.984375 
L 18.40625 0 
L 9.421875 0 
z
" id="DejaVuSans-108"/>
     </defs>
     <g transform="translate(77.603125 53.594687)scale(0.1 -0.1)">
      <use xlink:href="#DejaVuSans-84"/>
      <use x="46.333984" xlink:href="#DejaVuSans-114"/>
      <use x="87.447266" xlink:href="#DejaVuSans-117"/>
      <use x="150.826172" xlink:href="#DejaVuSans-101"/>
      <use x="212.349609" xlink:href="#DejaVuSans-32"/>
      <use x="244.136719" xlink:href="#DejaVuSans-118"/>
      <use x="303.316406" xlink:href="#DejaVuSans-97"/>
      <use x="364.595703" xlink:href="#DejaVuSans-108"/>
      <use x="392.378906" xlink:href="#DejaVuSans-117"/>
      <use x="455.757812" xlink:href="#DejaVuSans-101"/>
     </g>
    </g>
   </g>
  </g>
 </g>
 <defs>
  <clipPath id="p293c7984cc">
   <rect height="266.112" width="357.12" x="40.603125" y="22.318125"/>
  </clipPath>
 </defs>
</svg>
