<?xml version="1.0" encoding="utf-8" standalone="no"?>
<!DOCTYPE svg PUBLIC "-//W3C//DTD SVG 1.1//EN"
  "http://www.w3.org/Graphics/SVG/1.1/DTD/svg11.dtd">
<!-- Created with matplotlib (https://matplotlib.org/) -->
<svg height="325.986375pt" version="1.1" viewBox="0 0 404.923125 325.986375" width="404.923125pt" xmlns="http://www.w3.org/2000/svg" xmlns:xlink="http://www.w3.org/1999/xlink">
 <defs>
  <style type="text/css">
*{stroke-linecap:butt;stroke-linejoin:round;}
  </style>
 </defs>
 <g id="figure_1">
  <g id="patch_1">
   <path d="M 0 325.986375 
L 404.923125 325.986375 
L 404.923125 0 
L 0 0 
z
" style="fill:#ffffff;"/>
  </g>
  <g id="axes_1">
   <g id="patch_2">
    <path d="M 40.603125 288.430125 
L 397.723125 288.430125 
L 397.723125 22.318125 
L 40.603125 22.318125 
z
" style="fill:#ffffff;"/>
   </g>
   <g id="matplotlib.axis_1">
    <g id="xtick_1">
     <g id="line2d_1">
      <path clip-path="url(#pd2543da880)" d="M 56.835852 288.430125 
L 56.835852 22.318125 
" style="fill:none;stroke:#b0b0b0;stroke-dasharray:2.96,1.28;stroke-dashoffset:0;stroke-width:0.8;"/>
     </g>
     <g id="line2d_2">
      <defs>
       <path d="M 0 0 
L 0 3.5 
" id="m8d19e92585" style="stroke:#000000;stroke-width:0.8;"/>
      </defs>
      <g>
       <use style="stroke:#000000;stroke-width:0.8;" x="56.835852" xlink:href="#m8d19e92585" y="288.430125"/>
      </g>
     </g>
     <g id="text_1">
      <!-- 0 -->
      <defs>
       <path d="M 31.78125 66.40625 
Q 24.171875 66.40625 20.328125 58.90625 
Q 16.5 51.421875 16.5 36.375 
Q 16.5 21.390625 20.328125 13.890625 
Q 24.171875 6.390625 31.78125 6.390625 
Q 39.453125 6.390625 43.28125 13.890625 
Q 47.125 21.390625 47.125 36.375 
Q 47.125 51.421875 43.28125 58.90625 
Q 39.453125 66.40625 31.78125 66.40625 
z
M 31.78125 74.21875 
Q 44.046875 74.21875 50.515625 64.515625 
Q 56.984375 54.828125 56.984375 36.375 
Q 56.984375 17.96875 50.515625 8.265625 
Q 44.046875 -1.421875 31.78125 -1.421875 
Q 19.53125 -1.421875 13.0625 8.265625 
Q 6.59375 17.96875 6.59375 36.375 
Q 6.59375 54.828125 13.0625 64.515625 
Q 19.53125 74.21875 31.78125 74.21875 
z
" id="DejaVuSans-48"/>
      </defs>
      <g transform="translate(53.654602 303.028562)scale(0.1 -0.1)">
       <use xlink:href="#DejaVuSans-48"/>
      </g>
     </g>
    </g>
    <g id="xtick_2">
     <g id="line2d_3">
      <path clip-path="url(#pd2543da880)" d="M 105.766454 288.430125 
L 105.766454 22.318125 
" style="fill:none;stroke:#b0b0b0;stroke-dasharray:2.96,1.28;stroke-dashoffset:0;stroke-width:0.8;"/>
     </g>
     <g id="line2d_4">
      <g>
       <use style="stroke:#000000;stroke-width:0.8;" x="105.766454" xlink:href="#m8d19e92585" y="288.430125"/>
      </g>
     </g>
     <g id="text_2">
      <!-- 200 -->
      <defs>
       <path d="M 19.1875 8.296875 
L 53.609375 8.296875 
L 53.609375 0 
L 7.328125 0 
L 7.328125 8.296875 
Q 12.9375 14.109375 22.625 23.890625 
Q 32.328125 33.6875 34.8125 36.53125 
Q 39.546875 41.84375 41.421875 45.53125 
Q 43.3125 49.21875 43.3125 52.78125 
Q 43.3125 58.59375 39.234375 62.25 
Q 35.15625 65.921875 28.609375 65.921875 
Q 23.96875 65.921875 18.8125 64.3125 
Q 13.671875 62.703125 7.8125 59.421875 
L 7.8125 69.390625 
Q 13.765625 71.78125 18.9375 73 
Q 24.125 74.21875 28.421875 74.21875 
Q 39.75 74.21875 46.484375 68.546875 
Q 53.21875 62.890625 53.21875 53.421875 
Q 53.21875 48.921875 51.53125 44.890625 
Q 49.859375 40.875 45.40625 35.40625 
Q 44.1875 33.984375 37.640625 27.21875 
Q 31.109375 20.453125 19.1875 8.296875 
z
" id="DejaVuSans-50"/>
      </defs>
      <g transform="translate(96.222704 303.028562)scale(0.1 -0.1)">
       <use xlink:href="#DejaVuSans-50"/>
       <use x="63.623047" xlink:href="#DejaVuSans-48"/>
       <use x="127.246094" xlink:href="#DejaVuSans-48"/>
      </g>
     </g>
    </g>
    <g id="xtick_3">
     <g id="line2d_5">
      <path clip-path="url(#pd2543da880)" d="M 154.697057 288.430125 
L 154.697057 22.318125 
" style="fill:none;stroke:#b0b0b0;stroke-dasharray:2.96,1.28;stroke-dashoffset:0;stroke-width:0.8;"/>
     </g>
     <g id="line2d_6">
      <g>
       <use style="stroke:#000000;stroke-width:0.8;" x="154.697057" xlink:href="#m8d19e92585" y="288.430125"/>
      </g>
     </g>
     <g id="text_3">
      <!-- 400 -->
      <defs>
       <path d="M 37.796875 64.3125 
L 12.890625 25.390625 
L 37.796875 25.390625 
z
M 35.203125 72.90625 
L 47.609375 72.90625 
L 47.609375 25.390625 
L 58.015625 25.390625 
L 58.015625 17.1875 
L 47.609375 17.1875 
L 47.609375 0 
L 37.796875 0 
L 37.796875 17.1875 
L 4.890625 17.1875 
L 4.890625 26.703125 
z
" id="DejaVuSans-52"/>
      </defs>
      <g transform="translate(145.153307 303.028562)scale(0.1 -0.1)">
       <use xlink:href="#DejaVuSans-52"/>
       <use x="63.623047" xlink:href="#DejaVuSans-48"/>
       <use x="127.246094" xlink:href="#DejaVuSans-48"/>
      </g>
     </g>
    </g>
    <g id="xtick_4">
     <g id="line2d_7">
      <path clip-path="url(#pd2543da880)" d="M 203.627659 288.430125 
L 203.627659 22.318125 
" style="fill:none;stroke:#b0b0b0;stroke-dasharray:2.96,1.28;stroke-dashoffset:0;stroke-width:0.8;"/>
     </g>
     <g id="line2d_8">
      <g>
       <use style="stroke:#000000;stroke-width:0.8;" x="203.627659" xlink:href="#m8d19e92585" y="288.430125"/>
      </g>
     </g>
     <g id="text_4">
      <!-- 600 -->
      <defs>
       <path d="M 33.015625 40.375 
Q 26.375 40.375 22.484375 35.828125 
Q 18.609375 31.296875 18.609375 23.390625 
Q 18.609375 15.53125 22.484375 10.953125 
Q 26.375 6.390625 33.015625 6.390625 
Q 39.65625 6.390625 43.53125 10.953125 
Q 47.40625 15.53125 47.40625 23.390625 
Q 47.40625 31.296875 43.53125 35.828125 
Q 39.65625 40.375 33.015625 40.375 
z
M 52.59375 71.296875 
L 52.59375 62.3125 
Q 48.875 64.0625 45.09375 64.984375 
Q 41.3125 65.921875 37.59375 65.921875 
Q 27.828125 65.921875 22.671875 59.328125 
Q 17.53125 52.734375 16.796875 39.40625 
Q 19.671875 43.65625 24.015625 45.921875 
Q 28.375 48.1875 33.59375 48.1875 
Q 44.578125 48.1875 50.953125 41.515625 
Q 57.328125 34.859375 57.328125 23.390625 
Q 57.328125 12.15625 50.6875 5.359375 
Q 44.046875 -1.421875 33.015625 -1.421875 
Q 20.359375 -1.421875 13.671875 8.265625 
Q 6.984375 17.96875 6.984375 36.375 
Q 6.984375 53.65625 15.1875 63.9375 
Q 23.390625 74.21875 37.203125 74.21875 
Q 40.921875 74.21875 44.703125 73.484375 
Q 48.484375 72.75 52.59375 71.296875 
z
" id="DejaVuSans-54"/>
      </defs>
      <g transform="translate(194.083909 303.028562)scale(0.1 -0.1)">
       <use xlink:href="#DejaVuSans-54"/>
       <use x="63.623047" xlink:href="#DejaVuSans-48"/>
       <use x="127.246094" xlink:href="#DejaVuSans-48"/>
      </g>
     </g>
    </g>
    <g id="xtick_5">
     <g id="line2d_9">
      <path clip-path="url(#pd2543da880)" d="M 252.558261 288.430125 
L 252.558261 22.318125 
" style="fill:none;stroke:#b0b0b0;stroke-dasharray:2.96,1.28;stroke-dashoffset:0;stroke-width:0.8;"/>
     </g>
     <g id="line2d_10">
      <g>
       <use style="stroke:#000000;stroke-width:0.8;" x="252.558261" xlink:href="#m8d19e92585" y="288.430125"/>
      </g>
     </g>
     <g id="text_5">
      <!-- 800 -->
      <defs>
       <path d="M 31.78125 34.625 
Q 24.75 34.625 20.71875 30.859375 
Q 16.703125 27.09375 16.703125 20.515625 
Q 16.703125 13.921875 20.71875 10.15625 
Q 24.75 6.390625 31.78125 6.390625 
Q 38.8125 6.390625 42.859375 10.171875 
Q 46.921875 13.96875 46.921875 20.515625 
Q 46.921875 27.09375 42.890625 30.859375 
Q 38.875 34.625 31.78125 34.625 
z
M 21.921875 38.8125 
Q 15.578125 40.375 12.03125 44.71875 
Q 8.5 49.078125 8.5 55.328125 
Q 8.5 64.0625 14.71875 69.140625 
Q 20.953125 74.21875 31.78125 74.21875 
Q 42.671875 74.21875 48.875 69.140625 
Q 55.078125 64.0625 55.078125 55.328125 
Q 55.078125 49.078125 51.53125 44.71875 
Q 48 40.375 41.703125 38.8125 
Q 48.828125 37.15625 52.796875 32.3125 
Q 56.78125 27.484375 56.78125 20.515625 
Q 56.78125 9.90625 50.3125 4.234375 
Q 43.84375 -1.421875 31.78125 -1.421875 
Q 19.734375 -1.421875 13.25 4.234375 
Q 6.78125 9.90625 6.78125 20.515625 
Q 6.78125 27.484375 10.78125 32.3125 
Q 14.796875 37.15625 21.921875 38.8125 
z
M 18.3125 54.390625 
Q 18.3125 48.734375 21.84375 45.5625 
Q 25.390625 42.390625 31.78125 42.390625 
Q 38.140625 42.390625 41.71875 45.5625 
Q 45.3125 48.734375 45.3125 54.390625 
Q 45.3125 60.0625 41.71875 63.234375 
Q 38.140625 66.40625 31.78125 66.40625 
Q 25.390625 66.40625 21.84375 63.234375 
Q 18.3125 60.0625 18.3125 54.390625 
z
" id="DejaVuSans-56"/>
      </defs>
      <g transform="translate(243.014511 303.028562)scale(0.1 -0.1)">
       <use xlink:href="#DejaVuSans-56"/>
       <use x="63.623047" xlink:href="#DejaVuSans-48"/>
       <use x="127.246094" xlink:href="#DejaVuSans-48"/>
      </g>
     </g>
    </g>
    <g id="xtick_6">
     <g id="line2d_11">
      <path clip-path="url(#pd2543da880)" d="M 301.488863 288.430125 
L 301.488863 22.318125 
" style="fill:none;stroke:#b0b0b0;stroke-dasharray:2.96,1.28;stroke-dashoffset:0;stroke-width:0.8;"/>
     </g>
     <g id="line2d_12">
      <g>
       <use style="stroke:#000000;stroke-width:0.8;" x="301.488863" xlink:href="#m8d19e92585" y="288.430125"/>
      </g>
     </g>
     <g id="text_6">
      <!-- 1000 -->
      <defs>
       <path d="M 12.40625 8.296875 
L 28.515625 8.296875 
L 28.515625 63.921875 
L 10.984375 60.40625 
L 10.984375 69.390625 
L 28.421875 72.90625 
L 38.28125 72.90625 
L 38.28125 8.296875 
L 54.390625 8.296875 
L 54.390625 0 
L 12.40625 0 
z
" id="DejaVuSans-49"/>
      </defs>
      <g transform="translate(288.763863 303.028562)scale(0.1 -0.1)">
       <use xlink:href="#DejaVuSans-49"/>
       <use x="63.623047" xlink:href="#DejaVuSans-48"/>
       <use x="127.246094" xlink:href="#DejaVuSans-48"/>
       <use x="190.869141" xlink:href="#DejaVuSans-48"/>
      </g>
     </g>
    </g>
    <g id="xtick_7">
     <g id="line2d_13">
      <path clip-path="url(#pd2543da880)" d="M 350.419465 288.430125 
L 350.419465 22.318125 
" style="fill:none;stroke:#b0b0b0;stroke-dasharray:2.96,1.28;stroke-dashoffset:0;stroke-width:0.8;"/>
     </g>
     <g id="line2d_14">
      <g>
       <use style="stroke:#000000;stroke-width:0.8;" x="350.419465" xlink:href="#m8d19e92585" y="288.430125"/>
      </g>
     </g>
     <g id="text_7">
      <!-- 1200 -->
      <g transform="translate(337.694465 303.028562)scale(0.1 -0.1)">
       <use xlink:href="#DejaVuSans-49"/>
       <use x="63.623047" xlink:href="#DejaVuSans-50"/>
       <use x="127.246094" xlink:href="#DejaVuSans-48"/>
       <use x="190.869141" xlink:href="#DejaVuSans-48"/>
      </g>
     </g>
    </g>
    <g id="text_8">
     <!-- Day -->
     <defs>
      <path d="M 19.671875 64.796875 
L 19.671875 8.109375 
L 31.59375 8.109375 
Q 46.6875 8.109375 53.6875 14.9375 
Q 60.6875 21.78125 60.6875 36.53125 
Q 60.6875 51.171875 53.6875 57.984375 
Q 46.6875 64.796875 31.59375 64.796875 
z
M 9.8125 72.90625 
L 30.078125 72.90625 
Q 51.265625 72.90625 61.171875 64.09375 
Q 71.09375 55.28125 71.09375 36.53125 
Q 71.09375 17.671875 61.125 8.828125 
Q 51.171875 0 30.078125 0 
L 9.8125 0 
z
" id="DejaVuSans-68"/>
      <path d="M 34.28125 27.484375 
Q 23.390625 27.484375 19.1875 25 
Q 14.984375 22.515625 14.984375 16.5 
Q 14.984375 11.71875 18.140625 8.90625 
Q 21.296875 6.109375 26.703125 6.109375 
Q 34.1875 6.109375 38.703125 11.40625 
Q 43.21875 16.703125 43.21875 25.484375 
L 43.21875 27.484375 
z
M 52.203125 31.203125 
L 52.203125 0 
L 43.21875 0 
L 43.21875 8.296875 
Q 40.140625 3.328125 35.546875 0.953125 
Q 30.953125 -1.421875 24.3125 -1.421875 
Q 15.921875 -1.421875 10.953125 3.296875 
Q 6 8.015625 6 15.921875 
Q 6 25.140625 12.171875 29.828125 
Q 18.359375 34.515625 30.609375 34.515625 
L 43.21875 34.515625 
L 43.21875 35.40625 
Q 43.21875 41.609375 39.140625 45 
Q 35.0625 48.390625 27.6875 48.390625 
Q 23 48.390625 18.546875 47.265625 
Q 14.109375 46.140625 10.015625 43.890625 
L 10.015625 52.203125 
Q 14.9375 54.109375 19.578125 55.046875 
Q 24.21875 56 28.609375 56 
Q 40.484375 56 46.34375 49.84375 
Q 52.203125 43.703125 52.203125 31.203125 
z
" id="DejaVuSans-97"/>
      <path d="M 32.171875 -5.078125 
Q 28.375 -14.84375 24.75 -17.8125 
Q 21.140625 -20.796875 15.09375 -20.796875 
L 7.90625 -20.796875 
L 7.90625 -13.28125 
L 13.1875 -13.28125 
Q 16.890625 -13.28125 18.9375 -11.515625 
Q 21 -9.765625 23.484375 -3.21875 
L 25.09375 0.875 
L 2.984375 54.6875 
L 12.5 54.6875 
L 29.59375 11.921875 
L 46.6875 54.6875 
L 56.203125 54.6875 
z
" id="DejaVuSans-121"/>
     </defs>
     <g transform="translate(209.289688 316.706687)scale(0.1 -0.1)">
      <use xlink:href="#DejaVuSans-68"/>
      <use x="77.001953" xlink:href="#DejaVuSans-97"/>
      <use x="138.28125" xlink:href="#DejaVuSans-121"/>
     </g>
    </g>
   </g>
   <g id="matplotlib.axis_2">
    <g id="ytick_1">
     <g id="line2d_15">
      <path clip-path="url(#pd2543da880)" d="M 40.603125 263.578372 
L 397.723125 263.578372 
" style="fill:none;stroke:#b0b0b0;stroke-dasharray:2.96,1.28;stroke-dashoffset:0;stroke-width:0.8;"/>
     </g>
     <g id="line2d_16">
      <defs>
       <path d="M 0 0 
L -3.5 0 
" id="m7ceaad1b2a" style="stroke:#000000;stroke-width:0.8;"/>
      </defs>
      <g>
       <use style="stroke:#000000;stroke-width:0.8;" x="40.603125" xlink:href="#m7ceaad1b2a" y="263.578372"/>
      </g>
     </g>
     <g id="text_9">
      <!-- 45 -->
      <defs>
       <path d="M 10.796875 72.90625 
L 49.515625 72.90625 
L 49.515625 64.59375 
L 19.828125 64.59375 
L 19.828125 46.734375 
Q 21.96875 47.46875 24.109375 47.828125 
Q 26.265625 48.1875 28.421875 48.1875 
Q 40.625 48.1875 47.75 41.5 
Q 54.890625 34.8125 54.890625 23.390625 
Q 54.890625 11.625 47.5625 5.09375 
Q 40.234375 -1.421875 26.90625 -1.421875 
Q 22.3125 -1.421875 17.546875 -0.640625 
Q 12.796875 0.140625 7.71875 1.703125 
L 7.71875 11.625 
Q 12.109375 9.234375 16.796875 8.0625 
Q 21.484375 6.890625 26.703125 6.890625 
Q 35.15625 6.890625 40.078125 11.328125 
Q 45.015625 15.765625 45.015625 23.390625 
Q 45.015625 31 40.078125 35.4375 
Q 35.15625 39.890625 26.703125 39.890625 
Q 22.75 39.890625 18.8125 39.015625 
Q 14.890625 38.140625 10.796875 36.28125 
z
" id="DejaVuSans-53"/>
      </defs>
      <g transform="translate(20.878125 267.377591)scale(0.1 -0.1)">
       <use xlink:href="#DejaVuSans-52"/>
       <use x="63.623047" xlink:href="#DejaVuSans-53"/>
      </g>
     </g>
    </g>
    <g id="ytick_2">
     <g id="line2d_17">
      <path clip-path="url(#pd2543da880)" d="M 40.603125 232.314271 
L 397.723125 232.314271 
" style="fill:none;stroke:#b0b0b0;stroke-dasharray:2.96,1.28;stroke-dashoffset:0;stroke-width:0.8;"/>
     </g>
     <g id="line2d_18">
      <g>
       <use style="stroke:#000000;stroke-width:0.8;" x="40.603125" xlink:href="#m7ceaad1b2a" y="232.314271"/>
      </g>
     </g>
     <g id="text_10">
      <!-- 50 -->
      <g transform="translate(20.878125 236.11349)scale(0.1 -0.1)">
       <use xlink:href="#DejaVuSans-53"/>
       <use x="63.623047" xlink:href="#DejaVuSans-48"/>
      </g>
     </g>
    </g>
    <g id="ytick_3">
     <g id="line2d_19">
      <path clip-path="url(#pd2543da880)" d="M 40.603125 201.05017 
L 397.723125 201.05017 
" style="fill:none;stroke:#b0b0b0;stroke-dasharray:2.96,1.28;stroke-dashoffset:0;stroke-width:0.8;"/>
     </g>
     <g id="line2d_20">
      <g>
       <use style="stroke:#000000;stroke-width:0.8;" x="40.603125" xlink:href="#m7ceaad1b2a" y="201.05017"/>
      </g>
     </g>
     <g id="text_11">
      <!-- 55 -->
      <g transform="translate(20.878125 204.849389)scale(0.1 -0.1)">
       <use xlink:href="#DejaVuSans-53"/>
       <use x="63.623047" xlink:href="#DejaVuSans-53"/>
      </g>
     </g>
    </g>
    <g id="ytick_4">
     <g id="line2d_21">
      <path clip-path="url(#pd2543da880)" d="M 40.603125 169.786069 
L 397.723125 169.786069 
" style="fill:none;stroke:#b0b0b0;stroke-dasharray:2.96,1.28;stroke-dashoffset:0;stroke-width:0.8;"/>
     </g>
     <g id="line2d_22">
      <g>
       <use style="stroke:#000000;stroke-width:0.8;" x="40.603125" xlink:href="#m7ceaad1b2a" y="169.786069"/>
      </g>
     </g>
     <g id="text_12">
      <!-- 60 -->
      <g transform="translate(20.878125 173.585288)scale(0.1 -0.1)">
       <use xlink:href="#DejaVuSans-54"/>
       <use x="63.623047" xlink:href="#DejaVuSans-48"/>
      </g>
     </g>
    </g>
    <g id="ytick_5">
     <g id="line2d_23">
      <path clip-path="url(#pd2543da880)" d="M 40.603125 138.521968 
L 397.723125 138.521968 
" style="fill:none;stroke:#b0b0b0;stroke-dasharray:2.96,1.28;stroke-dashoffset:0;stroke-width:0.8;"/>
     </g>
     <g id="line2d_24">
      <g>
       <use style="stroke:#000000;stroke-width:0.8;" x="40.603125" xlink:href="#m7ceaad1b2a" y="138.521968"/>
      </g>
     </g>
     <g id="text_13">
      <!-- 65 -->
      <g transform="translate(20.878125 142.321187)scale(0.1 -0.1)">
       <use xlink:href="#DejaVuSans-54"/>
       <use x="63.623047" xlink:href="#DejaVuSans-53"/>
      </g>
     </g>
    </g>
    <g id="ytick_6">
     <g id="line2d_25">
      <path clip-path="url(#pd2543da880)" d="M 40.603125 107.257868 
L 397.723125 107.257868 
" style="fill:none;stroke:#b0b0b0;stroke-dasharray:2.96,1.28;stroke-dashoffset:0;stroke-width:0.8;"/>
     </g>
     <g id="line2d_26">
      <g>
       <use style="stroke:#000000;stroke-width:0.8;" x="40.603125" xlink:href="#m7ceaad1b2a" y="107.257868"/>
      </g>
     </g>
     <g id="text_14">
      <!-- 70 -->
      <defs>
       <path d="M 8.203125 72.90625 
L 55.078125 72.90625 
L 55.078125 68.703125 
L 28.609375 0 
L 18.3125 0 
L 43.21875 64.59375 
L 8.203125 64.59375 
z
" id="DejaVuSans-55"/>
      </defs>
      <g transform="translate(20.878125 111.057086)scale(0.1 -0.1)">
       <use xlink:href="#DejaVuSans-55"/>
       <use x="63.623047" xlink:href="#DejaVuSans-48"/>
      </g>
     </g>
    </g>
    <g id="ytick_7">
     <g id="line2d_27">
      <path clip-path="url(#pd2543da880)" d="M 40.603125 75.993767 
L 397.723125 75.993767 
" style="fill:none;stroke:#b0b0b0;stroke-dasharray:2.96,1.28;stroke-dashoffset:0;stroke-width:0.8;"/>
     </g>
     <g id="line2d_28">
      <g>
       <use style="stroke:#000000;stroke-width:0.8;" x="40.603125" xlink:href="#m7ceaad1b2a" y="75.993767"/>
      </g>
     </g>
     <g id="text_15">
      <!-- 75 -->
      <g transform="translate(20.878125 79.792985)scale(0.1 -0.1)">
       <use xlink:href="#DejaVuSans-55"/>
       <use x="63.623047" xlink:href="#DejaVuSans-53"/>
      </g>
     </g>
    </g>
    <g id="ytick_8">
     <g id="line2d_29">
      <path clip-path="url(#pd2543da880)" d="M 40.603125 44.729666 
L 397.723125 44.729666 
" style="fill:none;stroke:#b0b0b0;stroke-dasharray:2.96,1.28;stroke-dashoffset:0;stroke-width:0.8;"/>
     </g>
     <g id="line2d_30">
      <g>
       <use style="stroke:#000000;stroke-width:0.8;" x="40.603125" xlink:href="#m7ceaad1b2a" y="44.729666"/>
      </g>
     </g>
     <g id="text_16">
      <!-- 80 -->
      <g transform="translate(20.878125 48.528885)scale(0.1 -0.1)">
       <use xlink:href="#DejaVuSans-56"/>
       <use x="63.623047" xlink:href="#DejaVuSans-48"/>
      </g>
     </g>
    </g>
    <g id="text_17">
     <!-- Price $ -->
     <defs>
      <path d="M 19.671875 64.796875 
L 19.671875 37.40625 
L 32.078125 37.40625 
Q 38.96875 37.40625 42.71875 40.96875 
Q 46.484375 44.53125 46.484375 51.125 
Q 46.484375 57.671875 42.71875 61.234375 
Q 38.96875 64.796875 32.078125 64.796875 
z
M 9.8125 72.90625 
L 32.078125 72.90625 
Q 44.34375 72.90625 50.609375 67.359375 
Q 56.890625 61.8125 56.890625 51.125 
Q 56.890625 40.328125 50.609375 34.8125 
Q 44.34375 29.296875 32.078125 29.296875 
L 19.671875 29.296875 
L 19.671875 0 
L 9.8125 0 
z
" id="DejaVuSans-80"/>
      <path d="M 41.109375 46.296875 
Q 39.59375 47.171875 37.8125 47.578125 
Q 36.03125 48 33.890625 48 
Q 26.265625 48 22.1875 43.046875 
Q 18.109375 38.09375 18.109375 28.8125 
L 18.109375 0 
L 9.078125 0 
L 9.078125 54.6875 
L 18.109375 54.6875 
L 18.109375 46.1875 
Q 20.953125 51.171875 25.484375 53.578125 
Q 30.03125 56 36.53125 56 
Q 37.453125 56 38.578125 55.875 
Q 39.703125 55.765625 41.0625 55.515625 
z
" id="DejaVuSans-114"/>
      <path d="M 9.421875 54.6875 
L 18.40625 54.6875 
L 18.40625 0 
L 9.421875 0 
z
M 9.421875 75.984375 
L 18.40625 75.984375 
L 18.40625 64.59375 
L 9.421875 64.59375 
z
" id="DejaVuSans-105"/>
      <path d="M 48.78125 52.59375 
L 48.78125 44.1875 
Q 44.96875 46.296875 41.140625 47.34375 
Q 37.3125 48.390625 33.40625 48.390625 
Q 24.65625 48.390625 19.8125 42.84375 
Q 14.984375 37.3125 14.984375 27.296875 
Q 14.984375 17.28125 19.8125 11.734375 
Q 24.65625 6.203125 33.40625 6.203125 
Q 37.3125 6.203125 41.140625 7.25 
Q 44.96875 8.296875 48.78125 10.40625 
L 48.78125 2.09375 
Q 45.015625 0.34375 40.984375 -0.53125 
Q 36.96875 -1.421875 32.421875 -1.421875 
Q 20.0625 -1.421875 12.78125 6.34375 
Q 5.515625 14.109375 5.515625 27.296875 
Q 5.515625 40.671875 12.859375 48.328125 
Q 20.21875 56 33.015625 56 
Q 37.15625 56 41.109375 55.140625 
Q 45.0625 54.296875 48.78125 52.59375 
z
" id="DejaVuSans-99"/>
      <path d="M 56.203125 29.59375 
L 56.203125 25.203125 
L 14.890625 25.203125 
Q 15.484375 15.921875 20.484375 11.0625 
Q 25.484375 6.203125 34.421875 6.203125 
Q 39.59375 6.203125 44.453125 7.46875 
Q 49.3125 8.734375 54.109375 11.28125 
L 54.109375 2.78125 
Q 49.265625 0.734375 44.1875 -0.34375 
Q 39.109375 -1.421875 33.890625 -1.421875 
Q 20.796875 -1.421875 13.15625 6.1875 
Q 5.515625 13.8125 5.515625 26.8125 
Q 5.515625 40.234375 12.765625 48.109375 
Q 20.015625 56 32.328125 56 
Q 43.359375 56 49.78125 48.890625 
Q 56.203125 41.796875 56.203125 29.59375 
z
M 47.21875 32.234375 
Q 47.125 39.59375 43.09375 43.984375 
Q 39.0625 48.390625 32.421875 48.390625 
Q 24.90625 48.390625 20.390625 44.140625 
Q 15.875 39.890625 15.1875 32.171875 
z
" id="DejaVuSans-101"/>
      <path id="DejaVuSans-32"/>
      <path d="M 33.796875 -14.703125 
L 28.90625 -14.703125 
L 28.859375 0 
Q 23.734375 0.09375 18.609375 1.1875 
Q 13.484375 2.296875 8.296875 4.5 
L 8.296875 13.28125 
Q 13.28125 10.15625 18.375 8.5625 
Q 23.484375 6.984375 28.90625 6.9375 
L 28.90625 29.203125 
Q 18.109375 30.953125 13.203125 35.15625 
Q 8.296875 39.359375 8.296875 46.6875 
Q 8.296875 54.640625 13.625 59.21875 
Q 18.953125 63.8125 28.90625 64.5 
L 28.90625 75.984375 
L 33.796875 75.984375 
L 33.796875 64.65625 
Q 38.328125 64.453125 42.578125 63.6875 
Q 46.828125 62.9375 50.875 61.625 
L 50.875 53.078125 
Q 46.828125 55.125 42.546875 56.25 
Q 38.28125 57.375 33.796875 57.5625 
L 33.796875 36.71875 
Q 44.875 35.015625 50.09375 30.609375 
Q 55.328125 26.21875 55.328125 18.609375 
Q 55.328125 10.359375 49.78125 5.59375 
Q 44.234375 0.828125 33.796875 0.09375 
z
M 28.90625 37.59375 
L 28.90625 57.625 
Q 23.25 56.984375 20.265625 54.390625 
Q 17.28125 51.8125 17.28125 47.515625 
Q 17.28125 43.3125 20.03125 40.96875 
Q 22.796875 38.625 28.90625 37.59375 
z
M 33.796875 28.21875 
L 33.796875 7.078125 
Q 39.984375 7.90625 43.140625 10.59375 
Q 46.296875 13.28125 46.296875 17.671875 
Q 46.296875 21.96875 43.28125 24.5 
Q 40.28125 27.046875 33.796875 28.21875 
z
" id="DejaVuSans-36"/>
     </defs>
     <g transform="translate(14.798438 172.342094)rotate(-90)scale(0.1 -0.1)">
      <use xlink:href="#DejaVuSans-80"/>
      <use x="58.552734" xlink:href="#DejaVuSans-114"/>
      <use x="99.666016" xlink:href="#DejaVuSans-105"/>
      <use x="127.449219" xlink:href="#DejaVuSans-99"/>
      <use x="182.429688" xlink:href="#DejaVuSans-101"/>
      <use x="243.953125" xlink:href="#DejaVuSans-32"/>
      <use x="275.740234" xlink:href="#DejaVuSans-36"/>
     </g>
    </g>
   </g>
   <g id="line2d_31">
    <path clip-path="url(#pd2543da880)" d="M 56.835852 175.319995 
L 57.080505 171.015934 
L 57.325158 172.508034 
L 57.569811 172.044459 
L 57.814464 175.022124 
L 58.059117 165.952548 
L 58.30377 164.591924 
L 58.548423 158.873092 
L 58.793076 158.252208 
L 59.037729 156.045221 
L 59.282382 156.586866 
L 59.527035 156.299228 
L 59.771688 153.56951 
L 60.016341 154.530723 
L 60.260994 153.665016 
L 60.505647 150.282238 
L 60.994953 156.342043 
L 61.239606 156.305191 
L 61.484259 157.12949 
L 61.728912 155.009803 
L 61.973566 155.148267 
L 62.218219 156.939933 
L 62.462872 156.361268 
L 62.707525 162.236716 
L 62.952178 160.929044 
L 63.196831 165.221346 
L 63.441484 166.028972 
L 63.686137 153.711911 
L 64.175443 160.888233 
L 64.664749 154.461384 
L 65.154055 139.380615 
L 65.398708 140.459421 
L 65.643361 138.680731 
L 65.888014 138.562804 
L 66.132667 144.61135 
L 66.37732 142.35704 
L 66.866626 151.080061 
L 67.111279 154.329765 
L 67.355932 147.952935 
L 67.600585 154.107649 
L 67.845238 157.333668 
L 68.089891 158.121472 
L 68.82385 152.36846 
L 69.313156 166.023772 
L 69.802462 172.69783 
L 70.047115 176.574476 
L 70.291768 174.085813 
L 70.781074 164.215863 
L 71.515033 178.447288 
L 72.248992 184.213062 
L 72.493645 175.17781 
L 72.738298 177.330843 
L 72.982951 171.514811 
L 73.227604 173.096908 
L 73.472257 166.171205 
L 73.71691 167.289511 
L 73.961563 180.683757 
L 74.206216 159.510505 
L 74.450869 158.418199 
L 74.695522 159.495502 
L 74.940175 156.525064 
L 75.184828 157.947515 
L 75.429481 160.673678 
L 75.918787 154.835154 
L 76.16344 156.579949 
L 76.408093 155.933209 
L 76.652746 150.449326 
L 76.897399 154.172648 
L 77.142052 154.925341 
L 77.386705 153.337663 
L 77.631358 147.794411 
L 77.876011 146.927392 
L 78.120664 148.535082 
L 78.365317 148.263854 
L 78.60997 147.582981 
L 78.854623 144.287718 
L 79.099276 145.826522 
L 79.343929 144.89627 
L 79.588582 142.068137 
L 80.077888 151.787028 
L 80.322541 169.546756 
L 80.811847 148.964763 
L 81.0565 153.16559 
L 81.301153 151.480045 
L 81.545806 160.017016 
L 81.790459 158.044834 
L 82.279765 160.597159 
L 82.524418 164.73232 
L 82.769071 158.206865 
L 83.013724 138.640564 
L 83.258377 141.594042 
L 83.50303 148.060224 
L 83.747683 145.274143 
L 83.992336 144.695264 
L 84.236989 139.041049 
L 84.726296 139.713788 
L 84.970949 143.832133 
L 85.215602 142.90627 
L 85.704908 137.299188 
L 85.949561 140.53117 
L 86.194214 140.680439 
L 86.438867 138.575732 
L 86.928173 146.088328 
L 87.172826 145.818078 
L 87.417479 148.747537 
L 87.662132 146.544366 
L 87.906785 127.605437 
L 88.151438 129.071085 
L 88.396091 134.76251 
L 88.640744 126.384088 
L 88.885397 125.386714 
L 89.13005 128.686581 
L 89.374703 125.693459 
L 89.619356 124.636502 
L 89.864009 133.148451 
L 90.108662 134.609376 
L 90.597968 134.638285 
L 90.842621 133.610858 
L 91.331927 139.415821 
L 91.821233 136.237842 
L 92.065886 135.514249 
L 92.310539 133.895181 
L 92.555192 133.22559 
L 93.044498 128.760476 
L 93.289151 118.497602 
L 93.533804 128.287383 
L 93.778457 127.077149 
L 94.02311 126.802367 
L 94.267763 127.57772 
L 94.512416 126.01213 
L 95.001722 127.752989 
L 95.491028 142.144847 
L 95.735681 140.018434 
L 95.980334 133.417652 
L 96.224987 135.904382 
L 96.46964 132.177745 
L 96.714293 133.98854 
L 96.958946 128.312524 
L 97.203599 128.935459 
L 97.448252 126.397588 
L 97.692905 132.08992 
L 97.937558 129.731755 
L 98.426864 133.163431 
L 98.671517 138.195426 
L 98.91617 132.948614 
L 99.160823 132.148406 
L 99.405476 124.334242 
L 99.650129 125.84874 
L 99.894782 128.445049 
L 100.139435 134.798861 
L 100.384088 132.691912 
L 100.628741 142.982121 
L 100.873394 144.838022 
L 101.118047 144.973052 
L 101.607353 136.133272 
L 101.852006 130.846483 
L 102.096659 156.866014 
L 102.341312 159.175161 
L 102.585965 157.91789 
L 102.830618 159.048671 
L 103.075271 157.330424 
L 103.564577 145.525311 
L 103.80923 144.642311 
L 104.053883 144.553436 
L 104.298536 143.078963 
L 104.543189 142.87717 
L 104.787842 140.0129 
L 105.032495 139.112225 
L 105.277148 136.033139 
L 105.766454 133.747247 
L 106.011107 128.574807 
L 106.745066 135.681647 
L 106.98972 144.091793 
L 107.234373 142.907654 
L 107.479026 142.709772 
L 107.723679 143.940758 
L 107.968332 142.652764 
L 108.457638 149.051539 
L 108.702291 145.476938 
L 108.946944 149.690598 
L 109.191597 150.263156 
L 109.43625 155.55078 
L 109.680903 156.682778 
L 110.170209 161.189086 
L 110.414862 157.607735 
L 110.659515 160.338621 
L 110.904168 156.127656 
L 111.148821 154.049807 
L 111.393474 156.779691 
L 111.638127 163.34634 
L 111.88278 164.669182 
L 112.127433 170.130644 
L 112.372086 157.220392 
L 112.616739 158.918221 
L 112.861392 162.660363 
L 113.106045 162.430638 
L 113.350698 162.376636 
L 113.595351 163.394379 
L 113.840004 163.15206 
L 114.084657 163.154112 
L 114.573963 172.030147 
L 115.307922 157.02876 
L 115.552575 162.134031 
L 116.041881 153.467874 
L 116.286534 162.607911 
L 116.531187 160.149803 
L 116.77584 155.804524 
L 117.020493 154.526549 
L 117.265146 159.404266 
L 117.509799 145.350066 
L 117.754452 142.107541 
L 117.999105 142.5408 
L 118.243758 139.745274 
L 118.488411 140.285917 
L 118.733064 137.132792 
L 118.977717 129.08802 
L 119.22237 132.10695 
L 119.467023 133.722774 
L 119.711676 136.245713 
L 119.956329 129.523092 
L 120.200982 130.344624 
L 120.445635 130.051332 
L 120.690288 124.539756 
L 120.934941 126.81062 
L 121.179594 127.571662 
L 121.424247 126.260102 
L 121.6689 129.254512 
L 121.913553 127.473294 
L 122.158206 129.04499 
L 122.402859 125.530021 
L 122.647512 125.709154 
L 122.892165 126.631105 
L 123.136818 132.382114 
L 123.381471 128.671554 
L 123.626124 127.545376 
L 123.870777 131.143639 
L 124.11543 126.250752 
L 124.360083 124.299751 
L 124.604736 121.290886 
L 124.849389 120.051457 
L 125.338695 107.053975 
L 125.583348 121.241177 
L 125.828001 113.409362 
L 126.317307 118.559189 
L 126.56196 111.714586 
L 126.806613 110.163975 
L 127.051266 110.241544 
L 127.295919 112.231186 
L 127.540572 111.970572 
L 127.785225 116.89275 
L 128.274531 113.449434 
L 128.519184 123.462715 
L 128.763837 124.245701 
L 129.00849 121.813783 
L 129.253143 121.901179 
L 129.497797 124.890008 
L 129.74245 119.554988 
L 129.987103 125.817254 
L 130.476409 132.797054 
L 130.965715 122.983325 
L 131.210368 122.159026 
L 131.699674 114.061683 
L 131.944327 116.777685 
L 132.18898 116.922041 
L 132.433633 114.568837 
L 132.678286 113.366093 
L 132.922939 125.310243 
L 133.167592 125.50655 
L 133.412245 118.31117 
L 133.656898 116.410927 
L 133.901551 113.481349 
L 134.146204 113.047136 
L 134.63551 108.290018 
L 134.880163 109.839627 
L 135.124816 113.242775 
L 135.369469 109.126386 
L 135.614122 127.526771 
L 135.858775 122.027884 
L 136.103428 121.833152 
L 136.348081 117.264994 
L 136.837387 100.759175 
L 137.08204 94.702661 
L 137.326693 95.330605 
L 137.571346 95.35379 
L 137.815999 99.814754 
L 138.060652 97.992796 
L 138.305305 89.078072 
L 138.549958 94.223892 
L 138.794611 84.674258 
L 139.039264 86.098069 
L 139.283917 85.290849 
L 139.52857 85.772862 
L 139.773223 87.241134 
L 140.017876 87.7626 
L 140.262529 87.319514 
L 140.507182 83.977619 
L 140.751835 85.996504 
L 140.996488 86.0496 
L 141.241141 87.032853 
L 141.485794 89.825422 
L 141.730447 89.838302 
L 141.9751 89.255917 
L 142.219753 89.615853 
L 142.464406 89.145527 
L 142.709059 91.472826 
L 142.953712 88.896553 
L 143.443018 88.669095 
L 143.932324 83.073986 
L 144.176977 84.60771 
L 144.42163 80.864185 
L 144.666283 86.263988 
L 144.910936 88.956423 
L 145.155589 89.654732 
L 145.889548 82.462739 
L 146.134201 83.25913 
L 146.378854 86.762841 
L 146.623507 86.915593 
L 146.86816 79.119032 
L 147.112813 78.023195 
L 147.357466 77.704381 
L 147.602119 73.586418 
L 147.846772 72.10622 
L 148.091425 71.88253 
L 148.580731 86.390311 
L 149.070037 98.480773 
L 149.31469 85.769809 
L 149.559343 82.208375 
L 150.048649 90.742078 
L 150.293302 92.301896 
L 151.516567 67.422806 
L 151.76122 67.454101 
L 152.005874 68.568018 
L 152.250527 71.748717 
L 152.49518 71.861778 
L 152.739833 69.948751 
L 153.229139 72.520444 
L 153.473792 75.783911 
L 153.718445 75.101345 
L 153.963098 75.139414 
L 154.207751 74.074251 
L 154.452404 84.540588 
L 154.697057 67.107475 
L 154.94171 66.061681 
L 155.186363 63.826881 
L 155.431016 64.872914 
L 155.675669 63.614164 
L 155.920322 64.80064 
L 156.164975 64.267296 
L 156.654281 76.550678 
L 156.898934 63.046614 
L 157.143587 60.514134 
L 157.38824 64.464843 
L 157.632893 57.546249 
L 157.877546 55.163468 
L 158.122199 58.889771 
L 158.366852 54.288649 
L 158.611505 53.926042 
L 158.856158 50.854207 
L 159.100811 50.333456 
L 159.345464 51.146544 
L 159.590117 44.931745 
L 159.83477 44.388669 
L 160.079423 40.927177 
L 160.324076 51.251782 
L 160.568729 55.950509 
L 160.813382 52.610856 
L 161.058035 45.339434 
L 161.302688 54.645723 
L 161.547341 56.376898 
L 161.791994 50.178033 
L 162.036647 48.268058 
L 162.525953 37.834065 
L 162.770606 38.774765 
L 163.015259 40.156929 
L 163.259912 40.67806 
L 163.504565 60.248893 
L 163.749218 58.817593 
L 164.238524 53.201733 
L 164.483177 53.397373 
L 164.72783 51.22812 
L 164.972483 51.162049 
L 165.217136 48.401108 
L 165.461789 49.106621 
L 165.706442 49.018748 
L 165.951095 47.743301 
L 166.195748 48.414275 
L 166.685054 43.112029 
L 166.929707 42.502356 
L 167.419013 48.372676 
L 167.663666 46.235148 
L 167.908319 45.084116 
L 168.152972 46.969808 
L 168.397625 46.726416 
L 168.642278 45.298789 
L 168.886931 42.096432 
L 169.376237 43.063895 
L 169.865543 41.803809 
L 170.110196 42.331285 
L 170.599502 47.001389 
L 170.844155 42.505886 
L 171.088808 44.678192 
L 171.333461 49.080812 
L 171.578114 50.237187 
L 171.822767 48.470328 
L 172.06742 49.08024 
L 172.312073 52.355729 
L 172.556726 50.256794 
L 172.801379 49.248305 
L 173.046032 46.583205 
L 173.290685 45.796355 
L 173.535338 48.031583 
L 173.779991 51.337651 
L 174.024644 56.486477 
L 174.269298 52.387978 
L 174.513951 51.662572 
L 174.758604 49.858074 
L 175.24791 43.862432 
L 175.492563 39.164278 
L 175.737216 40.38162 
L 175.981869 40.771801 
L 176.226522 40.045775 
L 176.471175 42.923546 
L 176.715828 47.283518 
L 176.960481 47.275074 
L 177.205134 47.946096 
L 177.449787 46.443953 
L 177.69444 55.622201 
L 177.939093 49.07671 
L 178.183746 46.652521 
L 178.428399 35.831304 
L 178.673052 34.414125 
L 178.917705 70.447032 
L 179.162358 67.864414 
L 179.407011 69.675447 
L 179.651664 72.878758 
L 179.896317 69.528849 
L 180.385623 89.941059 
L 180.630276 85.330062 
L 180.874929 88.266319 
L 181.364235 89.337874 
L 181.853541 76.812341 
L 182.098194 80.037167 
L 182.5875 76.590845 
L 182.832153 78.867196 
L 183.076806 75.533364 
L 183.321459 74.740216 
L 183.810765 64.039837 
L 184.055418 64.103476 
L 184.300071 65.440558 
L 184.544724 64.047661 
L 184.789377 63.882219 
L 185.03403 67.315088 
L 185.278683 68.724157 
L 185.523336 75.001259 
L 185.767989 75.221658 
L 186.012642 74.692893 
L 186.257295 71.125877 
L 186.501948 70.053559 
L 186.746601 70.292133 
L 186.991254 69.679741 
L 187.235907 69.940784 
L 187.48056 73.51901 
L 187.725213 74.753621 
L 187.969866 71.818128 
L 188.214519 70.792942 
L 188.459172 67.337271 
L 188.703825 71.288075 
L 188.948478 69.046454 
L 189.193131 70.124163 
L 189.437784 69.174304 
L 189.682437 76.102248 
L 189.92709 76.285723 
L 190.171743 77.273555 
L 190.416396 77.335095 
L 190.661049 81.814234 
L 190.905702 84.011585 
L 191.150355 76.869301 
L 191.395008 77.112454 
L 191.639661 84.71123 
L 191.884314 75.991048 
L 192.128967 80.268203 
L 192.37362 97.386558 
L 192.618273 100.692244 
L 192.862926 93.111167 
L 193.107579 98.683091 
L 193.352232 100.969698 
L 193.596885 90.248758 
L 193.841538 87.139045 
L 194.086191 75.840776 
L 194.330844 79.812046 
L 194.82015 71.075596 
L 195.064803 71.881623 
L 195.309456 66.808554 
L 195.798762 62.236723 
L 196.043415 54.499793 
L 196.288068 56.749953 
L 196.532721 64.374203 
L 196.777375 63.148751 
L 197.022028 111.217831 
L 197.266681 109.404842 
L 197.511334 110.137785 
L 197.755987 108.969627 
L 198.489946 101.240902 
L 198.734599 103.974793 
L 198.979252 95.339002 
L 199.223905 102.308354 
L 199.468558 102.816177 
L 199.713211 97.071131 
L 199.957864 96.250601 
L 200.202517 93.234438 
L 200.44717 93.688162 
L 200.691823 89.144907 
L 200.936476 95.724794 
L 201.425782 79.57309 
L 201.670435 86.016111 
L 201.915088 86.035002 
L 202.159741 90.275807 
L 202.404394 89.282488 
L 202.649047 96.303315 
L 202.8937 93.27036 
L 203.138353 101.874237 
L 203.383006 103.654357 
L 203.627659 102.891837 
L 204.116965 85.359783 
L 204.361618 85.526417 
L 204.606271 79.779415 
L 204.850924 78.31248 
L 205.095577 77.839244 
L 205.34023 72.525167 
L 205.584883 76.212925 
L 205.829536 75.822982 
L 206.074189 78.907459 
L 206.318842 80.266724 
L 206.563495 82.394235 
L 206.808148 87.50919 
L 207.297454 77.728138 
L 207.542107 79.992419 
L 207.78676 85.328393 
L 208.031413 86.727539 
L 208.520719 97.234044 
L 208.765372 99.808362 
L 209.010025 91.063229 
L 209.254678 98.436836 
L 209.499331 95.14403 
L 209.988637 91.439624 
L 210.23329 96.960502 
L 210.477943 99.277355 
L 210.722596 149.060173 
L 210.967249 150.60785 
L 211.456555 125.473347 
L 211.701208 125.646565 
L 211.945861 120.461435 
L 212.190514 128.82526 
L 212.435167 121.675295 
L 212.67982 104.304675 
L 212.924473 105.336158 
L 213.169126 105.733972 
L 213.413779 101.680267 
L 213.658432 101.971078 
L 213.903085 103.614428 
L 214.392391 97.675652 
L 214.637044 101.057237 
L 215.12635 96.426633 
L 215.615656 92.99677 
L 215.860309 91.987804 
L 216.349615 101.189333 
L 216.594268 100.475949 
L 216.838921 98.405398 
L 217.083574 90.726335 
L 217.328227 92.746175 
L 217.57288 104.775049 
L 218.062186 114.54613 
L 218.306839 106.775472 
L 218.551492 108.216361 
L 218.796145 106.214459 
L 219.040798 106.951934 
L 219.285452 105.458856 
L 219.530105 106.343978 
L 219.774758 112.326358 
L 220.019411 122.767029 
L 220.264064 125.606349 
L 220.508717 123.821792 
L 220.75337 113.355789 
L 220.998023 111.59122 
L 221.242676 111.549669 
L 221.731982 123.218941 
L 221.976635 122.228723 
L 222.221288 123.382141 
L 222.465941 114.657283 
L 222.955247 111.158057 
L 223.689206 120.270948 
L 223.933859 124.239594 
L 224.178512 115.535918 
L 224.423165 114.967367 
L 224.667818 113.443757 
L 224.912471 119.480807 
L 225.157124 118.516684 
L 225.401777 110.872588 
L 225.64643 109.444008 
L 225.891083 116.234275 
L 226.135736 119.872324 
L 226.625042 113.093553 
L 227.114348 120.175109 
L 227.359001 116.808884 
L 227.603654 110.752133 
L 228.09296 115.610815 
L 228.337613 107.95112 
L 228.826919 101.22473 
L 229.560878 111.2746 
L 229.805531 105.917589 
L 230.050184 110.225372 
L 230.294837 111.714204 
L 230.53949 102.206361 
L 230.784143 103.0797 
L 231.028796 108.557024 
L 231.273449 111.289914 
L 231.518102 111.393243 
L 231.762755 107.931513 
L 232.252061 117.588388 
L 232.496714 123.346743 
L 232.741367 125.908848 
L 233.230673 121.037428 
L 233.719979 128.790387 
L 233.964632 129.396959 
L 234.209285 127.772358 
L 234.453938 123.039522 
L 234.698591 126.244645 
L 234.943244 123.288781 
L 235.187897 125.658253 
L 235.43255 134.995884 
L 235.677203 136.126498 
L 235.921856 138.579215 
L 236.166509 152.3115 
L 236.655815 150.738133 
L 236.900468 148.986636 
L 237.145121 149.900453 
L 237.634427 156.91515 
L 237.87908 154.892615 
L 238.613039 144.204806 
L 238.857692 145.733735 
L 239.102345 141.501494 
L 239.346998 142.154579 
L 239.591651 144.544515 
L 239.836304 135.499317 
L 240.080957 142.882656 
L 240.32561 159.700158 
L 240.570263 158.858757 
L 240.814916 156.065496 
L 241.059569 149.843875 
L 241.304222 149.824387 
L 241.548875 143.268114 
L 241.793529 141.630728 
L 242.038182 141.470486 
L 242.282835 147.012116 
L 242.527488 144.299167 
L 242.772141 150.655699 
L 243.016794 149.776539 
L 243.261447 149.911116 
L 243.5061 153.505252 
L 243.750753 153.923436 
L 243.995406 156.390392 
L 244.240059 156.772941 
L 244.484712 156.462857 
L 244.729365 160.853288 
L 244.974018 162.108938 
L 245.218671 167.234483 
L 245.707977 200.433842 
L 245.95263 202.801048 
L 246.197283 188.749543 
L 246.441936 185.864879 
L 246.686589 185.485861 
L 246.931242 191.282953 
L 247.175895 200.621849 
L 247.420548 194.797088 
L 247.665201 195.543746 
L 247.909854 204.18958 
L 248.154507 198.12603 
L 248.39916 202.978225 
L 248.643813 198.188286 
L 248.888466 202.515723 
L 249.133119 204.253887 
L 249.377772 200.477111 
L 249.622425 198.937663 
L 249.867078 200.026988 
L 250.111731 203.852328 
L 250.356384 204.318265 
L 250.601037 207.431771 
L 250.84569 209.101311 
L 251.090343 212.176986 
L 251.334996 211.063069 
L 251.579649 215.432534 
L 251.824302 216.695411 
L 252.068955 208.501537 
L 252.313608 212.010328 
L 252.802914 192.508214 
L 253.047567 192.931598 
L 253.29222 190.439811 
L 253.536873 185.360754 
L 253.781526 183.251205 
L 254.026179 183.355703 
L 254.270832 185.755968 
L 254.760138 173.050658 
L 255.004791 170.427824 
L 255.249444 176.098497 
L 255.494097 176.425302 
L 255.73875 175.135686 
L 255.983403 166.264302 
L 256.228056 164.399385 
L 256.472709 174.671848 
L 256.717362 175.139908 
L 256.962015 169.121726 
L 257.451321 172.764879 
L 257.695974 165.942864 
L 257.940627 164.62682 
L 258.18528 168.266753 
L 258.429933 225.268137 
L 258.674586 211.633767 
L 259.163892 217.548977 
L 259.408545 213.276616 
L 259.653198 215.29314 
L 259.897851 219.174938 
L 260.142504 214.697683 
L 260.387157 212.75057 
L 260.63181 241.658032 
L 260.876463 240.761675 
L 261.121116 235.071252 
L 261.365769 238.322268 
L 261.610422 234.845964 
L 261.855075 236.48471 
L 262.099728 240.103987 
L 262.589034 236.023639 
L 262.833687 216.081564 
L 263.07834 222.083836 
L 263.322993 216.807972 
L 263.567646 216.508717 
L 263.812299 234.611898 
L 264.056952 239.30459 
L 264.301606 239.261632 
L 264.790912 250.297044 
L 265.035565 243.0053 
L 265.280218 243.261835 
L 265.524871 244.447524 
L 265.769524 246.360528 
L 266.014177 239.749203 
L 266.25883 237.556933 
L 266.503483 237.040047 
L 266.748136 234.162419 
L 266.992789 233.715898 
L 267.237442 225.590839 
L 268.216054 235.467086 
L 268.460707 241.049791 
L 268.70536 254.323867 
L 268.950013 255.948182 
L 269.194666 255.966167 
L 269.439319 254.293908 
L 269.683972 254.61828 
L 269.928625 247.110144 
L 270.173278 258.333635 
L 270.417931 255.912833 
L 270.662584 258.935031 
L 271.15189 243.331484 
L 271.396543 245.715911 
L 271.641196 241.003469 
L 271.885849 246.407637 
L 272.130502 269.558938 
L 272.619808 258.309997 
L 272.864461 272.895609 
L 273.353767 260.20294 
L 273.59842 267.737767 
L 273.843073 270.598674 
L 274.087726 271.734297 
L 274.577032 275.066913 
L 274.821685 266.837546 
L 275.310991 241.834208 
L 275.800297 234.145913 
L 276.04495 223.423089 
L 276.289603 228.616829 
L 276.534256 223.730621 
L 276.778909 221.808482 
L 277.023562 221.56602 
L 277.268215 220.509731 
L 277.512868 226.611277 
L 278.002174 213.924166 
L 278.246827 217.524218 
L 278.49148 215.711204 
L 278.736133 212.095363 
L 278.980786 217.004946 
L 279.225439 219.630404 
L 279.470092 219.780723 
L 279.714745 217.765272 
L 279.959398 219.533825 
L 280.204051 222.817734 
L 280.448704 223.945843 
L 280.693357 223.12164 
L 281.182663 219.053791 
L 281.427316 220.276858 
L 281.671969 225.254779 
L 282.161275 230.839583 
L 282.650581 224.819397 
L 282.895234 224.594443 
L 283.139887 227.573754 
L 283.38454 228.058487 
L 283.629193 231.14523 
L 283.873846 228.245062 
L 284.118499 231.700329 
L 284.607805 224.440284 
L 284.852458 227.221833 
L 285.097111 219.479059 
L 285.341764 220.9885 
L 285.586417 224.446223 
L 286.320376 218.236719 
L 286.56503 222.873573 
L 286.809683 215.592824 
L 287.054336 216.822021 
L 287.298989 213.368615 
L 287.543642 214.851079 
L 287.788295 217.839072 
L 288.032948 227.595508 
L 288.277601 225.28958 
L 288.522254 228.158978 
L 288.766907 229.190222 
L 289.01156 224.682674 
L 289.256213 226.749169 
L 289.500866 224.119896 
L 289.745519 219.16907 
L 289.990172 218.446718 
L 290.234825 221.823413 
L 290.479478 223.276658 
L 290.724131 219.797992 
L 290.968784 218.934385 
L 291.213437 213.952813 
L 291.45809 214.754905 
L 291.702743 204.162674 
L 291.947396 204.877656 
L 292.192049 196.667085 
L 292.436702 193.470381 
L 292.681355 195.89822 
L 292.926008 199.61305 
L 293.415314 202.308682 
L 293.90462 201.228802 
L 294.149273 201.738485 
L 294.393926 201.960386 
L 294.638579 200.913495 
L 294.883232 201.556108 
L 295.372538 213.769888 
L 295.617191 214.735966 
L 295.861844 210.770493 
L 296.106497 211.176107 
L 296.35115 209.511814 
L 296.595803 206.433968 
L 296.840456 207.671108 
L 297.085109 205.348364 
L 297.329762 196.758631 
L 297.574415 218.376949 
L 297.819068 223.905055 
L 298.308374 209.159105 
L 298.553027 210.451249 
L 298.79768 213.423166 
L 299.042333 218.787715 
L 299.286986 217.708145 
L 299.531639 213.124627 
L 299.776292 205.547509 
L 300.020945 205.854946 
L 300.265598 202.361849 
L 300.510251 201.056658 
L 300.754904 200.881341 
L 300.999557 203.135056 
L 301.24421 198.006505 
L 301.488863 199.181222 
L 301.733516 195.242774 
L 301.978169 166.087411 
L 302.222822 162.724645 
L 302.467475 166.085598 
L 302.712128 161.134368 
L 302.956781 153.698577 
L 303.201434 154.45201 
L 303.446087 153.047925 
L 303.69074 157.991881 
L 303.935393 165.552111 
L 304.180046 163.074468 
L 304.424699 163.163152 
L 304.669352 156.562847 
L 304.914005 159.255521 
L 305.158658 156.223997 
L 305.403311 158.816609 
L 305.647964 157.950664 
L 305.892617 159.16283 
L 306.13727 154.338161 
L 306.381923 156.716887 
L 306.626576 155.305862 
L 306.871229 151.147087 
L 307.115882 153.796707 
L 307.360535 152.388019 
L 307.605188 149.755406 
L 307.849841 153.27109 
L 308.094494 152.565864 
L 308.339147 150.414286 
L 308.5838 151.759526 
L 309.073107 150.382014 
L 309.31776 148.751354 
L 309.562413 148.843329 
L 309.807066 150.398377 
L 310.051719 153.824519 
L 310.296372 153.121892 
L 310.541025 165.625457 
L 310.785678 157.385118 
L 311.030331 161.434481 
L 311.274984 159.247316 
L 311.76429 150.704692 
L 312.253596 152.379933 
L 312.498249 147.108886 
L 312.742902 147.319147 
L 313.232208 155.556958 
L 313.476861 148.937857 
L 313.721514 147.849772 
L 313.966167 125.313248 
L 314.21082 113.175654 
L 314.455473 124.376318 
L 314.700126 127.24865 
L 314.944779 126.581063 
L 315.434085 118.206314 
L 315.678738 123.009515 
L 315.923391 131.112726 
L 316.168044 131.578329 
L 316.412697 134.904194 
L 316.65735 132.207084 
L 316.902003 136.113236 
L 317.146656 130.592977 
L 317.391309 133.773342 
L 317.880615 119.040964 
L 318.125268 118.930813 
L 318.369921 121.540432 
L 318.614574 118.894462 
L 318.859227 102.583041 
L 319.10388 117.232507 
L 319.348533 114.535253 
L 319.593186 117.737419 
L 319.837839 123.826038 
L 320.082492 124.84526 
L 320.327145 127.739012 
L 320.571798 115.430203 
L 320.816451 117.705743 
L 321.061104 122.555027 
L 321.305757 130.613347 
L 321.55041 126.89377 
L 321.795063 130.476576 
L 322.039716 126.960605 
L 322.284369 130.546894 
L 322.773675 124.939764 
L 323.018328 126.555922 
L 323.262981 117.944269 
L 323.507634 118.840984 
L 323.752287 118.267042 
L 323.99694 125.745124 
L 324.241593 126.592941 
L 324.486246 119.484146 
L 324.730899 141.539324 
L 325.220205 128.672889 
L 325.709511 118.72902 
L 325.954164 115.532006 
L 326.198817 116.93287 
L 326.44347 117.249728 
L 326.688123 110.576339 
L 326.932776 121.751814 
L 327.177429 118.809737 
L 327.422082 127.479877 
L 327.666735 125.107019 
L 327.911388 125.592658 
L 328.156041 124.51285 
L 328.400694 126.511604 
L 328.645347 126.677761 
L 328.89 123.657781 
L 329.134653 133.026039 
L 329.379306 131.947281 
L 329.623959 135.873183 
L 329.868612 135.033857 
L 330.113265 134.682794 
L 330.357918 134.963778 
L 330.602571 135.544494 
L 330.847224 133.255979 
L 331.091877 133.514732 
L 331.33653 131.616016 
L 331.581184 132.881683 
L 331.825837 126.868964 
L 332.07049 143.22933 
L 332.315143 137.325378 
L 332.559796 141.129727 
L 332.804449 148.643063 
L 333.049102 201.342126 
L 333.293755 198.254596 
L 333.538408 188.798632 
L 333.783061 206.76156 
L 334.027714 204.112989 
L 334.272367 208.30573 
L 334.51702 209.961555 
L 334.761673 210.283709 
L 335.006326 213.301088 
L 335.250979 211.056653 
L 335.495632 211.834415 
L 335.740285 210.209813 
L 335.984938 212.335415 
L 336.229591 212.559773 
L 336.718897 199.3667 
L 336.96355 196.547416 
L 337.208203 191.149665 
L 337.452856 188.282533 
L 337.697509 190.978785 
L 337.942162 188.282604 
L 338.186815 187.212075 
L 338.431468 186.924245 
L 338.676121 187.169045 
L 338.920774 190.284077 
L 339.165427 191.499034 
L 339.41008 187.485235 
L 339.654733 191.203858 
L 339.899386 191.411233 
L 340.144039 191.85637 
L 340.388692 190.392297 
L 340.633345 183.89284 
L 340.877998 182.637334 
L 341.122651 177.779272 
L 341.367304 178.959595 
L 341.611957 181.170923 
L 341.85661 178.299116 
L 342.101263 179.881832 
L 342.345916 183.713659 
L 342.590569 182.794857 
L 342.835222 188.892372 
L 343.079875 189.032507 
L 343.324528 189.801777 
L 343.569181 188.198738 
L 343.813834 190.832902 
L 344.058487 186.143931 
L 344.30314 186.940322 
L 344.547793 186.752101 
L 344.792446 185.54294 
L 345.037099 191.628172 
L 345.281752 190.627102 
L 345.526405 190.980383 
L 345.771058 191.134566 
L 346.015711 192.706692 
L 346.260364 190.915981 
L 346.505017 198.790493 
L 346.74967 210.600304 
L 346.994323 213.797271 
L 347.238976 212.937598 
L 347.483629 215.42421 
L 347.728282 215.362622 
L 347.972935 214.910639 
L 348.217588 216.565581 
L 348.462241 213.346456 
L 348.706894 211.95561 
L 348.951547 212.328522 
L 349.1962 211.641805 
L 349.440853 211.403899 
L 349.685506 210.205234 
L 349.930159 210.84019 
L 350.174812 203.132575 
L 350.419465 200.043661 
L 350.664118 200.435798 
L 350.908771 202.705399 
L 351.153424 199.502875 
L 351.398077 198.342755 
L 351.64273 202.342529 
L 351.887383 199.03305 
L 352.132036 197.835243 
L 352.376689 195.070534 
L 352.621342 197.919967 
L 352.865995 193.782254 
L 353.355301 173.168633 
L 353.599954 173.52313 
L 353.844607 177.098709 
L 354.089261 178.727055 
L 354.333914 185.116265 
L 354.578567 185.708955 
L 354.82322 185.958548 
L 355.067873 178.440395 
L 355.312526 178.174891 
L 355.557179 176.804391 
L 356.046485 184.933029 
L 356.291138 181.257079 
L 356.535791 187.147005 
L 356.780444 186.040244 
L 357.025097 183.828486 
L 357.26975 187.769105 
L 357.514403 189.238045 
L 357.759056 189.124172 
L 358.003709 184.085665 
L 358.493015 192.264154 
L 358.737668 191.383921 
L 358.982321 187.932066 
L 359.226974 190.481219 
L 359.471627 197.568714 
L 359.71628 193.696671 
L 359.960933 200.246146 
L 360.205586 198.320286 
L 360.450239 199.978234 
L 360.694892 197.74031 
L 360.939545 201.919503 
L 361.184198 197.876508 
L 361.428851 196.286039 
L 361.673504 198.89833 
L 361.918157 192.795209 
L 362.16281 192.182722 
L 362.407463 189.541068 
L 362.896769 193.100737 
L 363.141422 189.564134 
L 363.386075 207.480239 
L 363.630728 208.953782 
L 363.875381 211.672766 
L 364.120034 210.81202 
L 364.364687 212.817978 
L 364.60934 216.20066 
L 365.343299 211.040719 
L 365.832605 213.888483 
L 366.077258 215.350577 
L 366.321911 214.512634 
L 366.566564 216.638069 
L 366.811217 214.770266 
L 367.05587 217.171366 
L 367.300523 214.375935 
L 367.545176 209.311214 
L 367.789829 207.377721 
L 368.034482 210.543273 
L 368.279135 216.745191 
L 368.523788 219.169977 
L 368.768441 219.094483 
L 369.013094 216.301008 
L 369.257747 218.317007 
L 369.5024 215.805208 
L 369.991706 221.110983 
L 370.236359 220.909119 
L 370.725665 217.064316 
L 370.970318 218.746044 
L 371.214971 230.416485 
L 371.459624 228.663103 
L 371.704277 229.431897 
L 371.94893 234.235074 
L 372.193583 228.225742 
L 372.438236 225.890976 
L 372.682889 225.309998 
L 372.927542 223.055091 
L 373.172195 218.221668 
L 373.661501 217.037958 
L 373.906154 219.609223 
L 374.39546 218.49855 
L 374.884766 224.155293 
L 375.129419 221.571434 
L 375.618725 220.034229 
L 375.863378 219.803598 
L 376.108031 219.325901 
L 376.352684 220.233088 
L 376.597338 217.006902 
L 376.841991 216.135733 
L 377.086644 213.831165 
L 377.331297 208.246314 
L 377.57595 206.014877 
L 377.820603 212.543338 
L 378.065256 213.658234 
L 378.309909 216.436372 
L 378.554562 216.870275 
L 378.799215 218.171745 
L 379.043868 217.596229 
L 379.288521 219.08406 
L 379.777827 205.390154 
L 380.02248 208.058045 
L 380.267133 207.782046 
L 380.511786 203.842 
L 380.756439 202.951558 
L 381.001092 226.847323 
L 381.490398 201.444836 
L 381.490398 201.444836 
" style="fill:none;stroke:#1f77b4;stroke-linecap:square;stroke-width:1.5;"/>
   </g>
   <g id="line2d_32">
    <path clip-path="url(#pd2543da880)" d="M 56.835852 175.100966 
L 57.080505 171.786972 
L 57.325158 172.787423 
L 57.569811 176.789228 
L 57.814464 168.285392 
L 58.059117 168.973203 
L 58.30377 161.40729 
L 58.548423 160.71948 
L 58.793076 157.280429 
L 59.037729 157.405485 
L 59.282382 156.655147 
L 59.527035 154.841829 
L 59.771688 154.028962 
L 60.016341 153.716321 
L 60.260994 149.214291 
L 60.505647 152.278173 
L 60.7503 156.780203 
L 60.994953 156.21745 
L 61.239606 156.967788 
L 61.484259 154.591716 
L 61.728912 154.966885 
L 61.973566 157.217901 
L 62.218219 156.592619 
L 62.462872 162.282685 
L 62.707525 160.656952 
L 62.952178 164.721285 
L 63.196831 165.534152 
L 63.441484 153.40368 
L 63.93079 161.719931 
L 64.420096 154.529188 
L 64.909402 139.272307 
L 65.154055 139.710004 
L 65.398708 138.021743 
L 65.643361 138.021743 
L 65.888014 142.586302 
L 66.132667 143.086527 
L 66.37732 146.900747 
L 66.621973 152.71587 
L 66.866626 155.279526 
L 67.111279 147.963727 
L 67.600585 157.843183 
L 67.845238 158.593521 
L 68.089891 156.842732 
L 68.334544 153.216096 
L 68.579197 153.278624 
L 69.068503 167.347469 
L 69.557809 174.725797 
L 69.802462 176.7267 
L 70.047115 174.225572 
L 70.536421 163.658306 
L 71.025727 177.602094 
L 71.27038 178.039792 
L 71.515033 180.353335 
L 71.759686 184.605253 
L 72.004339 185.855817 
L 72.248992 175.788777 
L 72.493645 178.477489 
L 72.738298 171.474331 
L 72.982951 174.163043 
L 73.227604 167.097357 
L 73.472257 167.472526 
L 73.71691 181.541371 
L 73.961563 165.59668 
L 74.206216 159.656501 
L 74.450869 159.656501 
L 74.695522 156.467562 
L 75.184828 161.782459 
L 75.429481 157.718126 
L 75.674134 156.717675 
L 75.918787 156.405034 
L 76.16344 156.405034 
L 76.408093 150.214742 
L 76.652746 154.216547 
L 76.897399 155.654696 
L 77.142052 153.216096 
L 77.386705 148.839122 
L 77.631358 147.15086 
L 77.876011 148.714065 
L 78.120664 148.088783 
L 78.365317 147.088332 
L 78.60997 143.524225 
L 78.854623 145.650183 
L 79.099276 145.212486 
L 79.343929 142.586302 
L 79.833235 152.528286 
L 80.077888 170.849049 
L 80.567194 148.776594 
L 80.811847 153.841378 
L 81.0565 151.903004 
L 81.301153 159.719029 
L 81.545806 157.905711 
L 81.790459 159.844085 
L 82.035112 160.344311 
L 82.279765 165.784264 
L 82.524418 158.155824 
L 82.769071 140.085173 
L 83.013724 141.96102 
L 83.258377 147.901199 
L 83.50303 144.71226 
L 83.747683 145.337542 
L 83.992336 139.272307 
L 84.236989 139.897589 
L 84.481643 139.14725 
L 84.726296 143.274112 
L 84.970949 142.023548 
L 85.460255 137.646574 
L 85.704908 140.522871 
L 85.949561 140.522871 
L 86.194214 139.209779 
L 86.438867 142.273661 
L 86.68352 146.900747 
L 86.928173 146.838219 
L 87.172826 148.21384 
L 87.417479 147.713614 
L 87.662132 132.144092 
L 87.906785 127.70459 
L 88.151438 134.520164 
L 88.396091 126.328969 
L 88.640744 124.89082 
L 88.885397 128.892625 
L 89.374703 124.89082 
L 89.619356 132.956958 
L 89.864009 135.708199 
L 90.108662 135.207974 
L 90.353315 135.833256 
L 90.597968 134.332579 
L 91.087274 139.647476 
L 91.331927 138.897138 
L 91.57658 139.772532 
L 92.065886 134.520164 
L 92.310539 134.520164 
L 92.555192 130.393302 
L 92.799845 128.329872 
L 93.044498 119.951093 
L 93.289151 128.079759 
L 93.533804 127.32942 
L 93.778457 128.204815 
L 94.02311 127.892174 
L 94.267763 125.766215 
L 94.757069 128.705041 
L 95.001722 138.709553 
L 95.246375 141.273209 
L 95.491028 140.272758 
L 95.735681 133.894881 
L 95.980334 136.333481 
L 96.224987 132.769374 
L 96.46964 134.332579 
L 96.714293 128.3924 
L 96.958946 128.017231 
L 97.203599 126.391497 
L 97.448252 132.269148 
L 97.692905 130.705943 
L 98.182211 133.457184 
L 98.426864 137.521517 
L 98.671517 133.144543 
L 98.91617 132.519261 
L 99.160823 124.265538 
L 99.650129 128.017231 
L 99.894782 135.458087 
L 100.139435 133.457184 
L 100.384088 143.33664 
L 100.628741 147.025804 
L 100.873394 145.212486 
L 101.607353 132.269148 
L 101.852006 154.529188 
L 102.096659 160.281783 
L 102.341312 159.719029 
L 102.585965 159.781557 
L 102.830618 157.780655 
L 103.319924 146.212937 
L 103.80923 144.962373 
L 104.053883 144.02445 
L 104.298536 144.086978 
L 104.543189 140.772984 
L 104.787842 139.710004 
L 105.032495 136.521066 
L 105.277148 135.145446 
L 105.521801 134.520164 
L 105.766454 128.454928 
L 106.500413 137.08382 
L 106.745066 145.337542 
L 106.98972 143.149055 
L 107.234373 144.337091 
L 107.479026 144.086978 
L 107.723679 143.649281 
L 107.968332 148.026255 
L 108.212985 149.58946 
L 108.457638 146.588106 
L 108.702291 150.089686 
L 108.946944 151.215193 
L 109.191597 156.655147 
L 109.43625 157.092844 
L 109.680903 159.406388 
L 109.925556 162.845439 
L 110.170209 157.530542 
L 110.414862 161.157177 
L 110.659515 156.842732 
L 110.904168 154.904357 
L 111.148821 157.843183 
L 111.393474 164.033475 
L 111.638127 165.59668 
L 111.88278 170.536408 
L 112.127433 158.468465 
L 112.372086 161.844988 
L 112.616739 163.033023 
L 112.861392 162.970495 
L 113.106045 163.783362 
L 113.350698 164.033475 
L 113.595351 164.096003 
L 113.840004 163.84589 
L 114.32931 173.60029 
L 114.818616 161.657403 
L 115.063269 157.155373 
L 115.307922 161.782459 
L 115.797228 153.216096 
L 116.041881 162.782911 
L 116.286534 160.656952 
L 116.531187 155.967337 
L 116.77584 155.404583 
L 117.020493 161.094649 
L 117.509799 140.960568 
L 117.754452 143.274112 
L 117.999105 141.58585 
L 118.243758 141.273209 
L 118.488411 136.833707 
L 118.733064 127.579533 
L 119.467023 137.208876 
L 119.711676 130.080661 
L 119.956329 130.580887 
L 120.200982 129.392851 
L 120.445635 124.453123 
L 120.690288 126.266441 
L 120.934941 126.328969 
L 121.179594 126.64161 
L 121.424247 130.205718 
L 121.6689 127.829646 
L 121.913553 128.705041 
L 122.158206 125.203461 
L 122.402859 125.078405 
L 122.647512 126.328969 
L 122.892165 132.144092 
L 123.136818 128.767569 
L 123.381471 127.829646 
L 123.626124 130.518359 
L 124.604736 119.638452 
L 125.094042 106.695114 
L 125.338695 119.200754 
L 125.583348 114.698724 
L 125.828001 116.136872 
L 126.072654 119.200754 
L 126.317307 110.884503 
L 126.56196 109.508883 
L 126.806613 110.63439 
L 127.051266 113.135519 
L 127.295919 113.635744 
L 127.540572 116.57457 
L 127.785225 115.073893 
L 128.029878 114.323554 
L 128.274531 123.640256 
L 128.519184 124.015426 
L 129.00849 121.76441 
L 129.253143 125.328518 
L 129.497797 119.638452 
L 130.231756 134.082466 
L 130.721062 122.577277 
L 130.965715 121.326713 
L 131.210368 118.700528 
L 131.455021 114.323554 
L 131.699674 115.386534 
L 131.944327 117.26238 
L 132.18898 114.948836 
L 132.433633 114.010913 
L 132.678286 125.766215 
L 132.922939 126.391497 
L 133.167592 118.075246 
L 133.901551 113.260575 
L 134.390857 107.88315 
L 134.63551 109.94658 
L 134.880163 113.510688 
L 135.124816 108.883601 
L 135.369469 125.453574 
L 135.614122 123.202559 
L 135.858775 122.13958 
L 136.103428 116.57457 
L 136.592734 99.629427 
L 136.837387 93.689248 
L 137.08204 95.127396 
L 137.326693 95.752678 
L 137.571346 100.817463 
L 137.815999 96.565545 
L 138.060652 88.74952 
L 138.305305 91.688345 
L 138.549958 84.435074 
L 138.794611 84.997828 
L 139.039264 84.872771 
L 139.773223 87.373899 
L 140.017876 87.061258 
L 140.262529 83.747264 
L 140.507182 86.185864 
L 140.751835 86.123335 
L 141.241141 90.187668 
L 141.485794 91.125592 
L 142.219753 87.373899 
L 142.464406 92.063515 
L 142.709059 89.062161 
L 142.953712 89.499858 
L 143.198365 88.249294 
L 143.687671 83.497151 
L 143.932324 84.9353 
L 144.176977 80.683382 
L 144.42163 86.498505 
L 144.666283 89.187217 
L 144.910936 90.375253 
L 145.400242 84.247489 
L 145.644895 82.809341 
L 145.889548 83.059453 
L 146.134201 87.123787 
L 146.378854 86.060807 
L 146.623507 79.057649 
L 146.86816 77.744556 
L 147.112813 77.682028 
L 147.357466 73.117469 
L 147.602119 71.116567 
L 147.846772 70.553813 
L 148.091425 81.746361 
L 148.825384 100.254709 
L 149.070037 86.873674 
L 149.31469 80.870966 
L 149.803996 91.563289 
L 150.048649 92.438684 
L 151.271914 67.114762 
L 151.516567 66.989706 
L 151.76122 67.990157 
L 152.005874 72.242075 
L 152.49518 70.053588 
L 152.739833 72.179546 
L 152.984486 73.305054 
L 153.229139 76.556521 
L 153.963098 74.180449 
L 154.207751 84.56013 
L 154.452404 69.053136 
L 154.94171 63.488126 
L 155.186363 64.801219 
L 155.431016 63.050429 
L 155.675669 65.301444 
L 155.920322 63.675711 
L 156.409628 77.6195 
L 156.654281 63.36307 
L 156.898934 60.674357 
L 157.143587 64.676162 
L 157.38824 56.610024 
L 157.632893 56.04727 
L 157.877546 58.861039 
L 158.122199 53.733727 
L 158.366852 55.296932 
L 158.611505 50.669845 
L 158.856158 49.231696 
L 159.100811 51.857881 
L 159.345464 44.104384 
L 159.590117 43.854271 
L 159.83477 41.290615 
L 160.079423 53.921311 
L 160.324076 56.735081 
L 160.813382 45.167363 
L 161.058035 56.797609 
L 161.302688 57.172778 
L 161.547341 50.107091 
L 161.791994 47.918604 
L 162.036647 43.604158 
L 162.2813 36.475943 
L 162.770606 40.915446 
L 163.015259 40.290164 
L 163.259912 58.048173 
L 163.504565 59.673906 
L 163.993871 53.98384 
L 164.238524 52.795804 
L 164.483177 51.045014 
L 164.72783 51.045014 
L 164.972483 47.480907 
L 165.217136 49.044112 
L 165.461789 48.919055 
L 165.706442 47.856076 
L 165.951095 47.856076 
L 166.440401 42.416122 
L 166.685054 42.16601 
L 167.17436 48.356302 
L 167.419013 45.917702 
L 167.663666 45.605061 
L 168.152972 47.480907 
L 168.397625 45.480004 
L 168.642278 41.853369 
L 168.886931 43.354045 
L 169.131584 43.54163 
L 169.376237 41.915897 
L 169.62089 41.728312 
L 169.865543 42.228538 
L 170.110196 45.229891 
L 170.354849 46.855625 
L 170.599502 42.353594 
L 170.844155 45.042307 
L 171.088808 49.856978 
L 171.333461 49.669394 
L 171.578114 48.856527 
L 171.822767 50.294676 
L 172.06742 53.170973 
L 172.312073 49.982035 
L 172.556726 49.79445 
L 172.801379 46.292871 
L 173.046032 45.605061 
L 173.290685 48.293773 
L 173.779991 56.922665 
L 174.024644 52.420635 
L 174.513951 49.731922 
L 175.24791 38.539374 
L 175.737216 40.665333 
L 175.981869 39.914994 
L 176.226522 42.040953 
L 176.471175 47.230794 
L 176.960481 48.231245 
L 177.205134 47.105738 
L 177.449787 56.547496 
L 177.69444 48.543886 
L 177.939093 46.793097 
L 178.183746 35.162851 
L 178.428399 34.725154 
L 178.673052 68.677967 
L 178.917705 69.115665 
L 179.162358 70.803926 
L 179.407011 74.055392 
L 179.651664 69.490834 
L 179.896317 83.997377 
L 180.14097 91.313176 
L 180.385623 86.873674 
L 180.630276 90.062612 
L 180.874929 89.187217 
L 181.119582 91.688345 
L 181.608888 77.682028 
L 181.853541 81.371192 
L 182.342847 77.494444 
L 182.5875 79.682931 
L 182.832153 75.806182 
L 183.076806 75.1809 
L 183.321459 66.989706 
L 183.566112 64.926275 
L 183.810765 64.613634 
L 184.055418 66.051783 
L 184.300071 63.425598 
L 184.544724 63.675711 
L 184.789377 67.614988 
L 185.03403 69.115665 
L 185.278683 75.618597 
L 185.523336 76.681577 
L 185.767989 75.305956 
L 186.012642 70.928982 
L 186.257295 70.366229 
L 186.501948 70.741398 
L 186.746601 70.178644 
L 186.991254 69.053136 
L 187.235907 73.930336 
L 187.48056 75.493541 
L 187.725213 71.554264 
L 187.969866 70.803926 
L 188.214519 66.989706 
L 188.459172 72.679772 
L 188.703825 67.927629 
L 188.948478 70.803926 
L 189.193131 68.24027 
L 189.437784 77.181803 
L 189.682437 75.618597 
L 189.92709 77.119274 
L 190.171743 77.431915 
L 190.416396 82.996925 
L 190.661049 84.372546 
L 190.905702 76.869162 
L 191.150355 77.744556 
L 191.395008 85.310469 
L 191.639661 74.805731 
L 191.884314 81.746361 
L 192.128967 99.629427 
L 192.37362 102.818365 
L 192.618273 95.627622 
L 192.862926 99.754483 
L 193.107579 100.129653 
L 193.841538 75.993767 
L 194.086191 80.370741 
L 194.575497 69.740947 
L 194.82015 70.741398 
L 195.064803 66.176839 
L 195.309456 64.175937 
L 195.554109 61.174583 
L 195.798762 54.046368 
L 196.043415 55.734629 
L 196.288068 62.800316 
L 196.532721 62.237562 
L 196.777375 103.631232 
L 197.022028 111.884954 
L 197.266681 111.259672 
L 197.511334 109.508883 
L 198.00064 103.193534 
L 198.245293 101.94297 
L 198.489946 104.756739 
L 198.734599 94.689699 
L 198.979252 104.319042 
L 199.223905 102.818365 
L 199.468558 98.066222 
L 199.713211 96.690601 
L 199.957864 93.063966 
L 200.202517 93.126494 
L 200.44717 89.124689 
L 200.691823 96.065319 
L 201.181129 79.933043 
L 201.425782 86.373448 
L 201.670435 86.185864 
L 201.915088 90.938007 
L 202.159741 88.499407 
L 202.404394 97.878637 
L 202.649047 94.814755 
L 202.8937 103.631232 
L 203.138353 104.944324 
L 203.383006 105.319493 
L 203.872312 86.248392 
L 204.116965 85.810694 
L 204.361618 78.745008 
L 204.850924 78.119726 
L 205.095577 72.117018 
L 205.34023 76.118823 
L 205.584883 75.86871 
L 205.829536 80.183156 
L 206.074189 80.495797 
L 206.318842 82.684284 
L 206.563495 89.249745 
L 207.052801 79.120177 
L 207.297454 79.620402 
L 208.276066 98.628976 
L 208.520719 99.19173 
L 208.765372 91.750874 
L 209.010025 97.315883 
L 209.743984 90.938007 
L 210.23329 101.067576 
L 210.477943 146.713163 
L 210.722596 154.404132 
L 210.967249 135.207974 
L 211.211902 126.266441 
L 211.456555 126.266441 
L 211.701208 120.076149 
L 211.945861 130.080661 
L 212.190514 125.328518 
L 212.435167 105.632134 
L 212.67982 105.944775 
L 212.924473 104.819268 
L 213.169126 101.755386 
L 213.413779 102.255611 
L 213.658432 103.881345 
L 214.147738 97.753581 
L 214.392391 101.380217 
L 214.881697 96.75313 
L 215.12635 94.689699 
L 215.371003 91.563289 
L 215.615656 90.625366 
L 215.860309 98.441391 
L 216.104962 102.005499 
L 216.349615 101.442745 
L 216.594268 97.878637 
L 216.838921 90.375253 
L 217.083574 95.440037 
L 217.57288 111.197144 
L 217.817533 115.761703 
L 218.062186 107.257868 
L 218.306839 108.445903 
L 218.551492 105.819719 
L 218.796145 108.320847 
L 219.040798 107.007755 
L 219.285452 106.882698 
L 219.530105 113.698272 
L 219.774758 124.703236 
L 220.019411 125.015877 
L 220.264064 125.828743 
L 220.508717 114.261026 
L 220.75337 111.384729 
L 220.998023 110.821975 
L 221.242676 119.951093 
L 221.487329 121.264185 
L 221.731982 124.077954 
L 221.976635 124.390595 
L 222.221288 114.698724 
L 222.465941 112.510237 
L 222.710594 115.198949 
L 222.955247 113.698272 
L 223.444553 120.326262 
L 223.689206 125.328518 
L 223.933859 115.761703 
L 224.178512 116.1994 
L 224.423165 113.885857 
L 224.667818 117.637549 
L 224.912471 118.262831 
L 225.157124 112.072539 
L 225.401777 109.446355 
L 225.891083 119.763508 
L 226.135736 117.137323 
L 226.380389 113.135519 
L 226.869695 120.951544 
L 227.114348 117.074795 
L 227.359001 110.947031 
L 227.848307 114.886308 
L 228.337613 104.006401 
L 228.582266 100.629878 
L 229.316225 111.759898 
L 229.560878 106.695114 
L 229.805531 110.321749 
L 230.050184 111.259672 
L 230.294837 100.879991 
L 230.53949 103.506175 
L 230.784143 109.25877 
L 231.028796 110.884503 
L 231.273449 111.322201 
L 231.518102 108.133262 
L 232.252061 124.265538 
L 232.496714 127.016779 
L 232.98602 122.264636 
L 233.475326 128.3924 
L 233.719979 129.392851 
L 233.964632 128.830097 
L 234.209285 123.765313 
L 234.453938 126.766666 
L 234.698591 123.765313 
L 234.943244 126.141384 
L 235.187897 136.333481 
L 235.43255 136.896235 
L 235.677203 140.585399 
L 235.921856 153.40368 
L 236.166509 153.341152 
L 236.655815 150.339799 
L 236.900468 150.339799 
L 237.145121 152.278173 
L 237.389774 157.843183 
L 237.634427 158.155824 
L 238.123733 148.338896 
L 238.368386 145.149958 
L 238.613039 145.525127 
L 238.857692 141.335737 
L 239.102345 142.64883 
L 239.346998 146.087881 
L 239.591651 137.646574 
L 239.836304 143.586753 
L 240.080957 158.656049 
L 240.32561 159.531444 
L 240.570263 157.405485 
L 240.814916 150.402327 
L 241.059569 149.964629 
L 241.304222 142.211132 
L 241.548875 142.336189 
L 241.793529 142.086076 
L 242.038182 148.21384 
L 242.282835 145.525127 
L 242.527488 152.02806 
L 243.016794 150.089686 
L 243.261447 153.841378 
L 243.5061 153.653793 
L 243.750753 157.092844 
L 243.995406 157.843183 
L 244.240059 156.842732 
L 244.484712 161.532347 
L 244.729365 162.407741 
L 244.974018 168.848146 
L 245.463324 199.29938 
L 245.707977 208.053329 
L 245.95263 190.670489 
L 246.197283 186.293515 
L 246.441936 185.730761 
L 246.686589 191.170714 
L 246.931242 200.925114 
L 247.175895 195.672745 
L 247.420548 197.611119 
L 247.665201 205.489672 
L 247.909854 199.799606 
L 248.154507 205.302088 
L 248.39916 198.986739 
L 248.643813 203.176129 
L 248.888466 205.364616 
L 249.377772 199.799606 
L 249.622425 201.175227 
L 249.867078 204.489221 
L 250.111731 204.86439 
L 250.601037 210.054231 
L 250.84569 211.867549 
L 251.090343 212.18019 
L 251.334996 216.432108 
L 251.579649 217.119918 
L 251.824302 208.991252 
L 252.068955 212.430303 
L 252.558261 193.359201 
L 252.802914 192.796448 
L 253.047567 190.98313 
L 253.29222 184.417668 
L 253.536873 183.66733 
L 253.781526 183.604802 
L 254.026179 185.355592 
L 254.515485 174.413156 
L 254.760138 170.348823 
L 255.004791 175.413607 
L 255.249444 176.038889 
L 255.494097 176.226474 
L 255.73875 167.097357 
L 255.983403 165.221511 
L 256.228056 174.725797 
L 256.472709 174.2881 
L 256.717362 168.097808 
L 256.962015 169.786069 
L 257.206668 173.412705 
L 257.451321 165.784264 
L 257.695974 164.346116 
L 257.940627 168.160336 
L 258.18528 225.623753 
L 258.429933 210.929626 
L 258.919239 218.120369 
L 259.163892 214.493734 
L 259.408545 216.181995 
L 259.653198 220.1838 
L 259.897851 214.993959 
L 260.142504 213.680867 
L 260.387157 244.819911 
L 260.63181 242.381311 
L 260.876463 234.690343 
L 261.121116 238.754676 
L 261.365769 236.003435 
L 261.610422 237.941809 
L 261.855075 241.443388 
L 262.099728 239.880183 
L 262.344381 236.691245 
L 262.589034 220.746554 
L 262.833687 223.560323 
L 263.07834 217.682672 
L 263.322993 217.119918 
L 263.567646 235.565737 
L 263.812299 241.130747 
L 264.056952 241.255804 
L 264.546259 252.135711 
L 264.790912 244.694855 
L 265.035565 244.382214 
L 265.280218 247.696209 
L 265.524871 248.384019 
L 265.769524 240.067768 
L 266.014177 238.191922 
L 266.25883 238.316978 
L 266.503483 235.12804 
L 266.748136 234.940455 
L 266.992789 226.811789 
L 267.482095 232.439327 
L 267.726748 231.563933 
L 267.971401 237.691696 
L 268.216054 240.818106 
L 268.460707 256.450157 
L 268.70536 258.07589 
L 268.950013 256.887854 
L 269.194666 254.074085 
L 269.439319 256.70027 
L 269.683972 246.508173 
L 269.928625 258.451059 
L 270.173278 256.762798 
L 270.417931 257.763249 
L 270.907237 244.382214 
L 271.15189 247.446096 
L 271.396543 241.568445 
L 271.641196 247.758737 
L 271.885849 272.394848 
L 272.130502 261.452413 
L 272.375155 256.637741 
L 272.619808 275.146089 
L 273.109114 259.451511 
L 273.353767 269.706136 
L 273.59842 270.519002 
L 273.843073 272.269792 
L 274.087726 276.334125 
L 274.332379 276.084012 
L 274.821685 252.760993 
L 275.066338 242.256255 
L 275.310991 238.066866 
L 275.555644 235.940907 
L 275.800297 224.310661 
L 276.04495 229.688087 
L 276.289603 222.809984 
L 276.534256 222.059646 
L 276.778909 222.184702 
L 277.023562 221.496892 
L 277.268215 227.374543 
L 277.757521 214.493734 
L 278.002174 217.432559 
L 278.246827 215.681769 
L 278.49148 211.679964 
L 278.980786 220.121272 
L 279.225439 219.683574 
L 279.470092 218.43301 
L 279.714745 219.245877 
L 280.204051 224.185605 
L 280.448704 223.685379 
L 280.693357 222.372287 
L 280.93801 218.495538 
L 281.182663 219.683574 
L 281.427316 226.123979 
L 281.671969 226.936846 
L 281.916622 231.126235 
L 282.405928 226.123979 
L 282.650581 225.186056 
L 283.139887 228.249938 
L 283.38454 231.876574 
L 283.629193 228.437522 
L 283.873846 232.126686 
L 284.363152 226.061451 
L 284.607805 227.186958 
L 284.852458 220.308856 
L 285.097111 220.934138 
L 285.341764 225.686282 
L 285.83107 220.87161 
L 286.075723 219.245877 
L 286.320376 221.872061 
L 286.56503 215.806826 
L 286.809683 217.119918 
L 287.054336 214.118564 
L 287.298989 214.181092 
L 287.543642 218.995764 
L 287.788295 229.062805 
L 288.032948 225.373641 
L 288.522254 229.250389 
L 288.766907 225.248584 
L 289.01156 226.561676 
L 289.256213 224.810887 
L 289.500866 218.870708 
L 289.745519 218.870708 
L 289.990172 222.872513 
L 290.234825 224.060548 
L 290.479478 220.371384 
L 290.724131 219.871159 
L 290.968784 214.868903 
L 291.213437 215.056487 
L 291.45809 204.051524 
L 291.702743 206.177483 
L 291.947396 197.361006 
L 292.192049 194.922406 
L 292.436702 196.423083 
L 292.926008 201.550396 
L 293.170661 202.363262 
L 293.659967 201.425339 
L 294.149273 202.050621 
L 294.393926 201.425339 
L 294.638579 201.175227 
L 295.127885 214.61879 
L 295.372538 215.431657 
L 295.617191 211.805021 
L 296.106497 210.116759 
L 296.35115 207.990801 
L 296.595803 208.053329 
L 296.840456 207.052877 
L 297.085109 197.611119 
L 297.329762 219.058292 
L 297.574415 225.186056 
L 298.063721 210.116759 
L 298.308374 209.991703 
L 298.553027 213.55581 
L 298.79768 220.1838 
L 299.286986 213.993508 
L 299.531639 206.114954 
L 299.776292 206.552652 
L 300.020945 203.426242 
L 300.265598 202.11315 
L 300.510251 201.800509 
L 300.754904 202.613375 
L 300.999557 198.861683 
L 301.24421 200.174775 
L 301.488863 195.922858 
L 301.733516 170.223767 
L 301.978169 162.595326 
L 302.222822 165.221511 
L 302.467475 161.344762 
L 302.712128 154.091491 
L 302.956781 154.591716 
L 303.201434 153.653793 
L 303.446087 158.218352 
L 303.69074 166.034377 
L 303.935393 163.470721 
L 304.180046 163.658306 
L 304.424699 157.280429 
L 304.669352 159.906613 
L 304.914005 157.342957 
L 305.158658 159.093747 
L 305.403311 158.906162 
L 305.647964 159.093747 
L 305.892617 154.591716 
L 306.13727 156.842732 
L 306.381923 155.529639 
L 306.626576 150.777496 
L 306.871229 152.528286 
L 307.115882 152.090588 
L 307.360535 150.464855 
L 307.605188 153.466209 
L 307.849841 153.278624 
L 308.094494 151.215193 
L 308.339147 151.152665 
L 308.5838 151.402778 
L 308.828453 150.589911 
L 309.073107 148.088783 
L 309.31776 148.839122 
L 309.562413 150.464855 
L 309.807066 154.591716 
L 310.051719 152.965983 
L 310.296372 166.534603 
L 310.541025 155.717224 
L 310.785678 161.719931 
L 311.030331 159.844085 
L 311.274984 153.903906 
L 311.519637 151.090137 
L 312.008943 152.903455 
L 312.253596 147.463501 
L 312.498249 147.776142 
L 312.987555 155.342055 
L 313.232208 149.089235 
L 313.476861 148.21384 
L 313.721514 123.202559 
L 313.966167 116.637098 
L 314.21082 125.328518 
L 314.455473 128.017231 
L 314.700126 127.016779 
L 315.189432 118.575472 
L 315.678738 131.706394 
L 315.923391 131.893979 
L 316.168044 134.144994 
L 316.412697 134.144994 
L 316.65735 137.333933 
L 316.902003 131.643866 
L 317.146656 133.58224 
L 317.391309 123.890369 
L 317.635962 120.201205 
L 317.880615 119.388339 
L 318.125268 121.576826 
L 318.369921 118.512944 
L 318.614574 106.695114 
L 318.859227 117.26238 
L 319.10388 115.261477 
L 319.348533 117.637549 
L 319.593186 125.453574 
L 319.837839 126.328969 
L 320.082492 127.70459 
L 320.327145 116.887211 
L 320.571798 118.075246 
L 320.816451 120.513846 
L 321.061104 130.330774 
L 321.305757 126.766666 
L 321.55041 132.706846 
L 321.795063 127.454477 
L 322.039716 130.393302 
L 322.284369 128.079759 
L 322.529022 124.077954 
L 322.773675 125.391046 
L 323.018328 117.825134 
L 323.262981 118.950641 
L 323.507634 117.95019 
L 323.752287 125.391046 
L 323.99694 127.454477 
L 324.241593 118.950641 
L 324.486246 143.774337 
L 324.730899 133.269599 
L 324.975552 130.018133 
L 325.464858 117.637549 
L 325.709511 116.324457 
L 326.198817 116.824682 
L 326.44347 111.384729 
L 326.688123 122.514749 
L 326.932776 119.575923 
L 327.177429 129.392851 
L 327.422082 125.891272 
L 327.666735 126.579082 
L 327.911388 125.015877 
L 328.156041 127.517005 
L 328.400694 126.891723 
L 328.645347 124.453123 
L 328.89 133.832353 
L 329.134653 132.019035 
L 329.379306 137.271404 
L 329.623959 136.02084 
L 330.113265 135.082917 
L 330.357918 135.207974 
L 330.602571 134.457635 
L 330.847224 134.582692 
L 331.091877 131.643866 
L 331.33653 131.51881 
L 331.581184 126.766666 
L 331.825837 143.586753 
L 332.07049 137.709102 
L 332.315143 142.023548 
L 332.559796 151.777947 
L 332.804449 201.800509 
L 333.049102 201.05017 
L 333.293755 189.169812 
L 333.538408 206.990349 
L 333.783061 205.802313 
L 334.027714 209.74159 
L 334.272367 210.867098 
L 334.51702 212.617887 
L 334.761673 215.681769 
L 335.006326 213.680867 
L 335.250979 214.306149 
L 335.495632 211.867549 
L 335.740285 214.243621 
L 335.984938 214.306149 
L 336.474244 201.487868 
L 336.718897 198.048816 
L 336.96355 191.733468 
L 337.208203 189.294868 
L 337.452856 191.921053 
L 337.942162 187.919248 
L 338.186815 187.669135 
L 338.431468 187.168909 
L 338.676121 190.232791 
L 338.920774 191.795996 
L 339.165427 188.482002 
L 339.41008 192.483806 
L 339.654733 192.046109 
L 339.899386 191.983581 
L 340.144039 190.232791 
L 340.388692 183.729858 
L 340.633345 182.479294 
L 340.877998 178.289905 
L 341.367304 180.916089 
L 341.611957 179.040243 
L 341.85661 180.103223 
L 342.101263 185.105479 
L 342.345916 183.479745 
L 342.590569 189.795094 
L 342.835222 188.294417 
L 343.079875 189.732566 
L 343.324528 189.044755 
L 343.569181 190.670489 
L 343.813834 186.168458 
L 344.058487 186.293515 
L 344.30314 187.293966 
L 344.547793 186.418571 
L 344.792446 191.67094 
L 345.037099 190.545432 
L 345.281752 191.858524 
L 345.526405 191.483355 
L 345.771058 192.796448 
L 346.015711 191.545883 
L 346.260364 198.861683 
L 346.505017 211.117211 
L 346.74967 214.868903 
L 346.994323 214.243621 
L 347.238976 215.619241 
L 347.483629 215.99441 
L 347.728282 215.681769 
L 347.972935 216.682221 
L 348.462241 213.55581 
L 348.706894 213.305698 
L 348.951547 212.242718 
L 349.1962 208.928724 
L 349.440853 209.804118 
L 349.685506 211.742493 
L 349.930159 204.239108 
L 350.174812 201.612924 
L 350.419465 201.487868 
L 350.664118 203.426242 
L 350.908771 200.112247 
L 351.153424 198.986739 
L 351.398077 203.051073 
L 351.64273 199.049268 
L 351.887383 198.549042 
L 352.132036 195.109991 
L 352.376689 198.799155 
L 352.621342 194.047012 
L 353.110648 174.2881 
L 353.355301 174.663269 
L 353.599954 178.289905 
L 353.844607 179.477941 
L 354.089261 185.293063 
L 354.333914 186.418571 
L 354.578567 186.856268 
L 354.82322 178.414961 
L 355.067873 178.665074 
L 355.312526 176.914284 
L 355.801832 185.230535 
L 356.046485 181.541371 
L 356.291138 188.231889 
L 356.535791 185.480648 
L 356.780444 185.168007 
L 357.025097 188.482002 
L 357.514403 189.670037 
L 357.759056 184.730309 
L 358.248362 192.733919 
L 358.493015 191.858524 
L 358.737668 189.107284 
L 358.982321 191.295771 
L 359.226974 198.361457 
L 359.471627 193.796899 
L 359.71628 200.549945 
L 359.960933 199.67455 
L 360.205586 201.362811 
L 360.450239 198.236401 
L 360.694892 202.363262 
L 360.939545 198.861683 
L 361.184198 197.048365 
L 361.428851 198.986739 
L 361.673504 193.546786 
L 361.918157 193.359201 
L 362.16281 189.732566 
L 362.407463 191.921053 
L 362.652116 192.984032 
L 362.896769 189.92015 
L 363.141422 207.490575 
L 363.386075 208.303442 
L 363.630728 212.18019 
L 363.875381 211.867549 
L 364.120034 212.680416 
L 364.364687 216.744749 
L 364.853993 212.367775 
L 365.098646 210.992154 
L 365.832605 215.931882 
L 366.077258 215.431657 
L 366.321911 217.995313 
L 366.566564 214.993959 
L 366.811217 217.682672 
L 367.05587 215.3066 
L 367.300523 210.116759 
L 367.545176 208.115857 
L 367.789829 211.617436 
L 368.034482 218.120369 
L 368.279135 220.308856 
L 368.523788 219.933687 
L 368.768441 217.620144 
L 369.013094 218.370482 
L 369.257747 216.744749 
L 369.5024 219.621046 
L 369.747053 220.996666 
L 369.991706 220.996666 
L 370.236359 219.058292 
L 370.481012 218.120369 
L 370.725665 219.49599 
L 370.970318 232.126686 
L 371.214971 229.500502 
L 371.459624 229.938199 
L 371.704277 234.565286 
L 371.94893 228.750163 
L 372.193583 226.686733 
L 372.438236 225.998923 
L 372.682889 223.060097 
L 372.927542 218.620595 
L 373.416848 217.932785 
L 373.661501 219.933687 
L 374.150807 219.245877 
L 374.640113 225.248584 
L 374.884766 222.6224 
L 375.129419 221.371836 
L 375.374072 220.809082 
L 375.618725 220.558969 
L 375.863378 219.683574 
L 376.108031 220.058743 
L 376.352684 217.620144 
L 376.597338 216.744749 
L 376.841991 214.306149 
L 377.086644 208.115857 
L 377.331297 206.552652 
L 377.57595 213.55581 
L 377.820603 214.681318 
L 378.065256 217.432559 
L 378.309909 217.244974 
L 378.554562 218.495538 
L 378.799215 217.995313 
L 379.043868 219.683574 
L 379.533174 205.739785 
L 379.777827 208.303442 
L 380.02248 208.553554 
L 380.267133 203.738883 
L 380.511786 203.176129 
L 380.756439 225.998923 
L 381.245745 202.050621 
L 381.490398 158.468465 
L 381.490398 158.468465 
" style="fill:none;stroke:#ff7f0e;stroke-linecap:square;stroke-width:1.5;"/>
   </g>
   <g id="patch_3">
    <path d="M 40.603125 288.430125 
L 40.603125 22.318125 
" style="fill:none;stroke:#000000;stroke-linecap:square;stroke-linejoin:miter;stroke-width:0.8;"/>
   </g>
   <g id="patch_4">
    <path d="M 397.723125 288.430125 
L 397.723125 22.318125 
" style="fill:none;stroke:#000000;stroke-linecap:square;stroke-linejoin:miter;stroke-width:0.8;"/>
   </g>
   <g id="patch_5">
    <path d="M 40.603125 288.430125 
L 397.723125 288.430125 
" style="fill:none;stroke:#000000;stroke-linecap:square;stroke-linejoin:miter;stroke-width:0.8;"/>
   </g>
   <g id="patch_6">
    <path d="M 40.603125 22.318125 
L 397.723125 22.318125 
" style="fill:none;stroke:#000000;stroke-linecap:square;stroke-linejoin:miter;stroke-width:0.8;"/>
   </g>
   <g id="text_18">
    <!-- Training: QCOM -->
    <defs>
     <path d="M -0.296875 72.90625 
L 61.375 72.90625 
L 61.375 64.59375 
L 35.5 64.59375 
L 35.5 0 
L 25.59375 0 
L 25.59375 64.59375 
L -0.296875 64.59375 
z
" id="DejaVuSans-84"/>
     <path d="M 54.890625 33.015625 
L 54.890625 0 
L 45.90625 0 
L 45.90625 32.71875 
Q 45.90625 40.484375 42.875 44.328125 
Q 39.84375 48.1875 33.796875 48.1875 
Q 26.515625 48.1875 22.3125 43.546875 
Q 18.109375 38.921875 18.109375 30.90625 
L 18.109375 0 
L 9.078125 0 
L 9.078125 54.6875 
L 18.109375 54.6875 
L 18.109375 46.1875 
Q 21.34375 51.125 25.703125 53.5625 
Q 30.078125 56 35.796875 56 
Q 45.21875 56 50.046875 50.171875 
Q 54.890625 44.34375 54.890625 33.015625 
z
" id="DejaVuSans-110"/>
     <path d="M 45.40625 27.984375 
Q 45.40625 37.75 41.375 43.109375 
Q 37.359375 48.484375 30.078125 48.484375 
Q 22.859375 48.484375 18.828125 43.109375 
Q 14.796875 37.75 14.796875 27.984375 
Q 14.796875 18.265625 18.828125 12.890625 
Q 22.859375 7.515625 30.078125 7.515625 
Q 37.359375 7.515625 41.375 12.890625 
Q 45.40625 18.265625 45.40625 27.984375 
z
M 54.390625 6.78125 
Q 54.390625 -7.171875 48.1875 -13.984375 
Q 42 -20.796875 29.203125 -20.796875 
Q 24.46875 -20.796875 20.265625 -20.09375 
Q 16.0625 -19.390625 12.109375 -17.921875 
L 12.109375 -9.1875 
Q 16.0625 -11.328125 19.921875 -12.34375 
Q 23.78125 -13.375 27.78125 -13.375 
Q 36.625 -13.375 41.015625 -8.765625 
Q 45.40625 -4.15625 45.40625 5.171875 
L 45.40625 9.625 
Q 42.625 4.78125 38.28125 2.390625 
Q 33.9375 0 27.875 0 
Q 17.828125 0 11.671875 7.65625 
Q 5.515625 15.328125 5.515625 27.984375 
Q 5.515625 40.671875 11.671875 48.328125 
Q 17.828125 56 27.875 56 
Q 33.9375 56 38.28125 53.609375 
Q 42.625 51.21875 45.40625 46.390625 
L 45.40625 54.6875 
L 54.390625 54.6875 
z
" id="DejaVuSans-103"/>
     <path d="M 11.71875 12.40625 
L 22.015625 12.40625 
L 22.015625 0 
L 11.71875 0 
z
M 11.71875 51.703125 
L 22.015625 51.703125 
L 22.015625 39.3125 
L 11.71875 39.3125 
z
" id="DejaVuSans-58"/>
     <path d="M 39.40625 66.21875 
Q 28.65625 66.21875 22.328125 58.203125 
Q 16.015625 50.203125 16.015625 36.375 
Q 16.015625 22.609375 22.328125 14.59375 
Q 28.65625 6.59375 39.40625 6.59375 
Q 50.140625 6.59375 56.421875 14.59375 
Q 62.703125 22.609375 62.703125 36.375 
Q 62.703125 50.203125 56.421875 58.203125 
Q 50.140625 66.21875 39.40625 66.21875 
z
M 53.21875 1.3125 
L 66.21875 -12.890625 
L 54.296875 -12.890625 
L 43.5 -1.21875 
Q 41.890625 -1.3125 41.03125 -1.359375 
Q 40.1875 -1.421875 39.40625 -1.421875 
Q 24.03125 -1.421875 14.8125 8.859375 
Q 5.609375 19.140625 5.609375 36.375 
Q 5.609375 53.65625 14.8125 63.9375 
Q 24.03125 74.21875 39.40625 74.21875 
Q 54.734375 74.21875 63.90625 63.9375 
Q 73.09375 53.65625 73.09375 36.375 
Q 73.09375 23.6875 67.984375 14.640625 
Q 62.890625 5.609375 53.21875 1.3125 
z
" id="DejaVuSans-81"/>
     <path d="M 64.40625 67.28125 
L 64.40625 56.890625 
Q 59.421875 61.53125 53.78125 63.8125 
Q 48.140625 66.109375 41.796875 66.109375 
Q 29.296875 66.109375 22.65625 58.46875 
Q 16.015625 50.828125 16.015625 36.375 
Q 16.015625 21.96875 22.65625 14.328125 
Q 29.296875 6.6875 41.796875 6.6875 
Q 48.140625 6.6875 53.78125 8.984375 
Q 59.421875 11.28125 64.40625 15.921875 
L 64.40625 5.609375 
Q 59.234375 2.09375 53.4375 0.328125 
Q 47.65625 -1.421875 41.21875 -1.421875 
Q 24.65625 -1.421875 15.125 8.703125 
Q 5.609375 18.84375 5.609375 36.375 
Q 5.609375 53.953125 15.125 64.078125 
Q 24.65625 74.21875 41.21875 74.21875 
Q 47.75 74.21875 53.53125 72.484375 
Q 59.328125 70.75 64.40625 67.28125 
z
" id="DejaVuSans-67"/>
     <path d="M 39.40625 66.21875 
Q 28.65625 66.21875 22.328125 58.203125 
Q 16.015625 50.203125 16.015625 36.375 
Q 16.015625 22.609375 22.328125 14.59375 
Q 28.65625 6.59375 39.40625 6.59375 
Q 50.140625 6.59375 56.421875 14.59375 
Q 62.703125 22.609375 62.703125 36.375 
Q 62.703125 50.203125 56.421875 58.203125 
Q 50.140625 66.21875 39.40625 66.21875 
z
M 39.40625 74.21875 
Q 54.734375 74.21875 63.90625 63.9375 
Q 73.09375 53.65625 73.09375 36.375 
Q 73.09375 19.140625 63.90625 8.859375 
Q 54.734375 -1.421875 39.40625 -1.421875 
Q 24.03125 -1.421875 14.8125 8.828125 
Q 5.609375 19.09375 5.609375 36.375 
Q 5.609375 53.65625 14.8125 63.9375 
Q 24.03125 74.21875 39.40625 74.21875 
z
" id="DejaVuSans-79"/>
     <path d="M 9.8125 72.90625 
L 24.515625 72.90625 
L 43.109375 23.296875 
L 61.8125 72.90625 
L 76.515625 72.90625 
L 76.515625 0 
L 66.890625 0 
L 66.890625 64.015625 
L 48.09375 14.015625 
L 38.1875 14.015625 
L 19.390625 64.015625 
L 19.390625 0 
L 9.8125 0 
z
" id="DejaVuSans-77"/>
    </defs>
    <g transform="translate(172.75125 16.318125)scale(0.12 -0.12)">
     <use xlink:href="#DejaVuSans-84"/>
     <use x="46.333984" xlink:href="#DejaVuSans-114"/>
     <use x="87.447266" xlink:href="#DejaVuSans-97"/>
     <use x="148.726562" xlink:href="#DejaVuSans-105"/>
     <use x="176.509766" xlink:href="#DejaVuSans-110"/>
     <use x="239.888672" xlink:href="#DejaVuSans-105"/>
     <use x="267.671875" xlink:href="#DejaVuSans-110"/>
     <use x="331.050781" xlink:href="#DejaVuSans-103"/>
     <use x="394.527344" xlink:href="#DejaVuSans-58"/>
     <use x="428.21875" xlink:href="#DejaVuSans-32"/>
     <use x="460.005859" xlink:href="#DejaVuSans-81"/>
     <use x="538.716797" xlink:href="#DejaVuSans-67"/>
     <use x="608.541016" xlink:href="#DejaVuSans-79"/>
     <use x="687.251953" xlink:href="#DejaVuSans-77"/>
    </g>
   </g>
   <g id="legend_1">
    <g id="patch_7">
     <path d="M 47.603125 59.674375 
L 131.33125 59.674375 
Q 133.33125 59.674375 133.33125 57.674375 
L 133.33125 29.318125 
Q 133.33125 27.318125 131.33125 27.318125 
L 47.603125 27.318125 
Q 45.603125 27.318125 45.603125 29.318125 
L 45.603125 57.674375 
Q 45.603125 59.674375 47.603125 59.674375 
z
" style="fill:#ffffff;opacity:0.8;stroke:#cccccc;stroke-linejoin:miter;"/>
    </g>
    <g id="line2d_33">
     <path d="M 49.603125 35.416562 
L 69.603125 35.416562 
" style="fill:none;stroke:#1f77b4;stroke-linecap:square;stroke-width:1.5;"/>
    </g>
    <g id="line2d_34"/>
    <g id="text_19">
     <!-- Predicted -->
     <defs>
      <path d="M 45.40625 46.390625 
L 45.40625 75.984375 
L 54.390625 75.984375 
L 54.390625 0 
L 45.40625 0 
L 45.40625 8.203125 
Q 42.578125 3.328125 38.25 0.953125 
Q 33.9375 -1.421875 27.875 -1.421875 
Q 17.96875 -1.421875 11.734375 6.484375 
Q 5.515625 14.40625 5.515625 27.296875 
Q 5.515625 40.1875 11.734375 48.09375 
Q 17.96875 56 27.875 56 
Q 33.9375 56 38.25 53.625 
Q 42.578125 51.265625 45.40625 46.390625 
z
M 14.796875 27.296875 
Q 14.796875 17.390625 18.875 11.75 
Q 22.953125 6.109375 30.078125 6.109375 
Q 37.203125 6.109375 41.296875 11.75 
Q 45.40625 17.390625 45.40625 27.296875 
Q 45.40625 37.203125 41.296875 42.84375 
Q 37.203125 48.484375 30.078125 48.484375 
Q 22.953125 48.484375 18.875 42.84375 
Q 14.796875 37.203125 14.796875 27.296875 
z
" id="DejaVuSans-100"/>
      <path d="M 18.3125 70.21875 
L 18.3125 54.6875 
L 36.8125 54.6875 
L 36.8125 47.703125 
L 18.3125 47.703125 
L 18.3125 18.015625 
Q 18.3125 11.328125 20.140625 9.421875 
Q 21.96875 7.515625 27.59375 7.515625 
L 36.8125 7.515625 
L 36.8125 0 
L 27.59375 0 
Q 17.1875 0 13.234375 3.875 
Q 9.28125 7.765625 9.28125 18.015625 
L 9.28125 47.703125 
L 2.6875 47.703125 
L 2.6875 54.6875 
L 9.28125 54.6875 
L 9.28125 70.21875 
z
" id="DejaVuSans-116"/>
     </defs>
     <g transform="translate(77.603125 38.916562)scale(0.1 -0.1)">
      <use xlink:href="#DejaVuSans-80"/>
      <use x="58.552734" xlink:href="#DejaVuSans-114"/>
      <use x="97.416016" xlink:href="#DejaVuSans-101"/>
      <use x="158.939453" xlink:href="#DejaVuSans-100"/>
      <use x="222.416016" xlink:href="#DejaVuSans-105"/>
      <use x="250.199219" xlink:href="#DejaVuSans-99"/>
      <use x="305.179688" xlink:href="#DejaVuSans-116"/>
      <use x="344.388672" xlink:href="#DejaVuSans-101"/>
      <use x="405.912109" xlink:href="#DejaVuSans-100"/>
     </g>
    </g>
    <g id="line2d_35">
     <path d="M 49.603125 50.094687 
L 69.603125 50.094687 
" style="fill:none;stroke:#ff7f0e;stroke-linecap:square;stroke-width:1.5;"/>
    </g>
    <g id="line2d_36"/>
    <g id="text_20">
     <!-- True value -->
     <defs>
      <path d="M 8.5 21.578125 
L 8.5 54.6875 
L 17.484375 54.6875 
L 17.484375 21.921875 
Q 17.484375 14.15625 20.5 10.265625 
Q 23.53125 6.390625 29.59375 6.390625 
Q 36.859375 6.390625 41.078125 11.03125 
Q 45.3125 15.671875 45.3125 23.6875 
L 45.3125 54.6875 
L 54.296875 54.6875 
L 54.296875 0 
L 45.3125 0 
L 45.3125 8.40625 
Q 42.046875 3.421875 37.71875 1 
Q 33.40625 -1.421875 27.6875 -1.421875 
Q 18.265625 -1.421875 13.375 4.4375 
Q 8.5 10.296875 8.5 21.578125 
z
M 31.109375 56 
z
" id="DejaVuSans-117"/>
      <path d="M 2.984375 54.6875 
L 12.5 54.6875 
L 29.59375 8.796875 
L 46.6875 54.6875 
L 56.203125 54.6875 
L 35.6875 0 
L 23.484375 0 
z
" id="DejaVuSans-118"/>
      <path d="M 9.421875 75.984375 
L 18.40625 75.984375 
L 18.40625 0 
L 9.421875 0 
z
" id="DejaVuSans-108"/>
     </defs>
     <g transform="translate(77.603125 53.594687)scale(0.1 -0.1)">
      <use xlink:href="#DejaVuSans-84"/>
      <use x="46.333984" xlink:href="#DejaVuSans-114"/>
      <use x="87.447266" xlink:href="#DejaVuSans-117"/>
      <use x="150.826172" xlink:href="#DejaVuSans-101"/>
      <use x="212.349609" xlink:href="#DejaVuSans-32"/>
      <use x="244.136719" xlink:href="#DejaVuSans-118"/>
      <use x="303.316406" xlink:href="#DejaVuSans-97"/>
      <use x="364.595703" xlink:href="#DejaVuSans-108"/>
      <use x="392.378906" xlink:href="#DejaVuSans-117"/>
      <use x="455.757812" xlink:href="#DejaVuSans-101"/>
     </g>
    </g>
   </g>
  </g>
 </g>
 <defs>
  <clipPath id="pd2543da880">
   <rect height="266.112" width="357.12" x="40.603125" y="22.318125"/>
  </clipPath>
 </defs>
</svg>
