<?xml version="1.0" encoding="utf-8" standalone="no"?>
<!DOCTYPE svg PUBLIC "-//W3C//DTD SVG 1.1//EN"
  "http://www.w3.org/Graphics/SVG/1.1/DTD/svg11.dtd">
<!-- Created with matplotlib (https://matplotlib.org/) -->
<svg height="325.986375pt" version="1.1" viewBox="0 0 413.302812 325.986375" width="413.302812pt" xmlns="http://www.w3.org/2000/svg" xmlns:xlink="http://www.w3.org/1999/xlink">
 <defs>
  <style type="text/css">
*{stroke-linecap:butt;stroke-linejoin:round;}
  </style>
 </defs>
 <g id="figure_1">
  <g id="patch_1">
   <path d="M 0 325.986375 
L 413.302812 325.986375 
L 413.302812 0 
L 0 0 
z
" style="fill:#ffffff;"/>
  </g>
  <g id="axes_1">
   <g id="patch_2">
    <path d="M 48.982813 288.430125 
L 406.102813 288.430125 
L 406.102813 22.318125 
L 48.982813 22.318125 
z
" style="fill:#ffffff;"/>
   </g>
   <g id="matplotlib.axis_1">
    <g id="xtick_1">
     <g id="line2d_1">
      <path clip-path="url(#p102cf86e33)" d="M 65.21554 288.430125 
L 65.21554 22.318125 
" style="fill:none;stroke:#b0b0b0;stroke-dasharray:2.96,1.28;stroke-dashoffset:0;stroke-width:0.8;"/>
     </g>
     <g id="line2d_2">
      <defs>
       <path d="M 0 0 
L 0 3.5 
" id="ma486abc439" style="stroke:#000000;stroke-width:0.8;"/>
      </defs>
      <g>
       <use style="stroke:#000000;stroke-width:0.8;" x="65.21554" xlink:href="#ma486abc439" y="288.430125"/>
      </g>
     </g>
     <g id="text_1">
      <!-- 0 -->
      <defs>
       <path d="M 31.78125 66.40625 
Q 24.171875 66.40625 20.328125 58.90625 
Q 16.5 51.421875 16.5 36.375 
Q 16.5 21.390625 20.328125 13.890625 
Q 24.171875 6.390625 31.78125 6.390625 
Q 39.453125 6.390625 43.28125 13.890625 
Q 47.125 21.390625 47.125 36.375 
Q 47.125 51.421875 43.28125 58.90625 
Q 39.453125 66.40625 31.78125 66.40625 
z
M 31.78125 74.21875 
Q 44.046875 74.21875 50.515625 64.515625 
Q 56.984375 54.828125 56.984375 36.375 
Q 56.984375 17.96875 50.515625 8.265625 
Q 44.046875 -1.421875 31.78125 -1.421875 
Q 19.53125 -1.421875 13.0625 8.265625 
Q 6.59375 17.96875 6.59375 36.375 
Q 6.59375 54.828125 13.0625 64.515625 
Q 19.53125 74.21875 31.78125 74.21875 
z
" id="DejaVuSans-48"/>
      </defs>
      <g transform="translate(62.03429 303.028562)scale(0.1 -0.1)">
       <use xlink:href="#DejaVuSans-48"/>
      </g>
     </g>
    </g>
    <g id="xtick_2">
     <g id="line2d_3">
      <path clip-path="url(#p102cf86e33)" d="M 114.146142 288.430125 
L 114.146142 22.318125 
" style="fill:none;stroke:#b0b0b0;stroke-dasharray:2.96,1.28;stroke-dashoffset:0;stroke-width:0.8;"/>
     </g>
     <g id="line2d_4">
      <g>
       <use style="stroke:#000000;stroke-width:0.8;" x="114.146142" xlink:href="#ma486abc439" y="288.430125"/>
      </g>
     </g>
     <g id="text_2">
      <!-- 200 -->
      <defs>
       <path d="M 19.1875 8.296875 
L 53.609375 8.296875 
L 53.609375 0 
L 7.328125 0 
L 7.328125 8.296875 
Q 12.9375 14.109375 22.625 23.890625 
Q 32.328125 33.6875 34.8125 36.53125 
Q 39.546875 41.84375 41.421875 45.53125 
Q 43.3125 49.21875 43.3125 52.78125 
Q 43.3125 58.59375 39.234375 62.25 
Q 35.15625 65.921875 28.609375 65.921875 
Q 23.96875 65.921875 18.8125 64.3125 
Q 13.671875 62.703125 7.8125 59.421875 
L 7.8125 69.390625 
Q 13.765625 71.78125 18.9375 73 
Q 24.125 74.21875 28.421875 74.21875 
Q 39.75 74.21875 46.484375 68.546875 
Q 53.21875 62.890625 53.21875 53.421875 
Q 53.21875 48.921875 51.53125 44.890625 
Q 49.859375 40.875 45.40625 35.40625 
Q 44.1875 33.984375 37.640625 27.21875 
Q 31.109375 20.453125 19.1875 8.296875 
z
" id="DejaVuSans-50"/>
      </defs>
      <g transform="translate(104.602392 303.028562)scale(0.1 -0.1)">
       <use xlink:href="#DejaVuSans-50"/>
       <use x="63.623047" xlink:href="#DejaVuSans-48"/>
       <use x="127.246094" xlink:href="#DejaVuSans-48"/>
      </g>
     </g>
    </g>
    <g id="xtick_3">
     <g id="line2d_5">
      <path clip-path="url(#p102cf86e33)" d="M 163.076744 288.430125 
L 163.076744 22.318125 
" style="fill:none;stroke:#b0b0b0;stroke-dasharray:2.96,1.28;stroke-dashoffset:0;stroke-width:0.8;"/>
     </g>
     <g id="line2d_6">
      <g>
       <use style="stroke:#000000;stroke-width:0.8;" x="163.076744" xlink:href="#ma486abc439" y="288.430125"/>
      </g>
     </g>
     <g id="text_3">
      <!-- 400 -->
      <defs>
       <path d="M 37.796875 64.3125 
L 12.890625 25.390625 
L 37.796875 25.390625 
z
M 35.203125 72.90625 
L 47.609375 72.90625 
L 47.609375 25.390625 
L 58.015625 25.390625 
L 58.015625 17.1875 
L 47.609375 17.1875 
L 47.609375 0 
L 37.796875 0 
L 37.796875 17.1875 
L 4.890625 17.1875 
L 4.890625 26.703125 
z
" id="DejaVuSans-52"/>
      </defs>
      <g transform="translate(153.532994 303.028562)scale(0.1 -0.1)">
       <use xlink:href="#DejaVuSans-52"/>
       <use x="63.623047" xlink:href="#DejaVuSans-48"/>
       <use x="127.246094" xlink:href="#DejaVuSans-48"/>
      </g>
     </g>
    </g>
    <g id="xtick_4">
     <g id="line2d_7">
      <path clip-path="url(#p102cf86e33)" d="M 212.007346 288.430125 
L 212.007346 22.318125 
" style="fill:none;stroke:#b0b0b0;stroke-dasharray:2.96,1.28;stroke-dashoffset:0;stroke-width:0.8;"/>
     </g>
     <g id="line2d_8">
      <g>
       <use style="stroke:#000000;stroke-width:0.8;" x="212.007346" xlink:href="#ma486abc439" y="288.430125"/>
      </g>
     </g>
     <g id="text_4">
      <!-- 600 -->
      <defs>
       <path d="M 33.015625 40.375 
Q 26.375 40.375 22.484375 35.828125 
Q 18.609375 31.296875 18.609375 23.390625 
Q 18.609375 15.53125 22.484375 10.953125 
Q 26.375 6.390625 33.015625 6.390625 
Q 39.65625 6.390625 43.53125 10.953125 
Q 47.40625 15.53125 47.40625 23.390625 
Q 47.40625 31.296875 43.53125 35.828125 
Q 39.65625 40.375 33.015625 40.375 
z
M 52.59375 71.296875 
L 52.59375 62.3125 
Q 48.875 64.0625 45.09375 64.984375 
Q 41.3125 65.921875 37.59375 65.921875 
Q 27.828125 65.921875 22.671875 59.328125 
Q 17.53125 52.734375 16.796875 39.40625 
Q 19.671875 43.65625 24.015625 45.921875 
Q 28.375 48.1875 33.59375 48.1875 
Q 44.578125 48.1875 50.953125 41.515625 
Q 57.328125 34.859375 57.328125 23.390625 
Q 57.328125 12.15625 50.6875 5.359375 
Q 44.046875 -1.421875 33.015625 -1.421875 
Q 20.359375 -1.421875 13.671875 8.265625 
Q 6.984375 17.96875 6.984375 36.375 
Q 6.984375 53.65625 15.1875 63.9375 
Q 23.390625 74.21875 37.203125 74.21875 
Q 40.921875 74.21875 44.703125 73.484375 
Q 48.484375 72.75 52.59375 71.296875 
z
" id="DejaVuSans-54"/>
      </defs>
      <g transform="translate(202.463596 303.028562)scale(0.1 -0.1)">
       <use xlink:href="#DejaVuSans-54"/>
       <use x="63.623047" xlink:href="#DejaVuSans-48"/>
       <use x="127.246094" xlink:href="#DejaVuSans-48"/>
      </g>
     </g>
    </g>
    <g id="xtick_5">
     <g id="line2d_9">
      <path clip-path="url(#p102cf86e33)" d="M 260.937948 288.430125 
L 260.937948 22.318125 
" style="fill:none;stroke:#b0b0b0;stroke-dasharray:2.96,1.28;stroke-dashoffset:0;stroke-width:0.8;"/>
     </g>
     <g id="line2d_10">
      <g>
       <use style="stroke:#000000;stroke-width:0.8;" x="260.937948" xlink:href="#ma486abc439" y="288.430125"/>
      </g>
     </g>
     <g id="text_5">
      <!-- 800 -->
      <defs>
       <path d="M 31.78125 34.625 
Q 24.75 34.625 20.71875 30.859375 
Q 16.703125 27.09375 16.703125 20.515625 
Q 16.703125 13.921875 20.71875 10.15625 
Q 24.75 6.390625 31.78125 6.390625 
Q 38.8125 6.390625 42.859375 10.171875 
Q 46.921875 13.96875 46.921875 20.515625 
Q 46.921875 27.09375 42.890625 30.859375 
Q 38.875 34.625 31.78125 34.625 
z
M 21.921875 38.8125 
Q 15.578125 40.375 12.03125 44.71875 
Q 8.5 49.078125 8.5 55.328125 
Q 8.5 64.0625 14.71875 69.140625 
Q 20.953125 74.21875 31.78125 74.21875 
Q 42.671875 74.21875 48.875 69.140625 
Q 55.078125 64.0625 55.078125 55.328125 
Q 55.078125 49.078125 51.53125 44.71875 
Q 48 40.375 41.703125 38.8125 
Q 48.828125 37.15625 52.796875 32.3125 
Q 56.78125 27.484375 56.78125 20.515625 
Q 56.78125 9.90625 50.3125 4.234375 
Q 43.84375 -1.421875 31.78125 -1.421875 
Q 19.734375 -1.421875 13.25 4.234375 
Q 6.78125 9.90625 6.78125 20.515625 
Q 6.78125 27.484375 10.78125 32.3125 
Q 14.796875 37.15625 21.921875 38.8125 
z
M 18.3125 54.390625 
Q 18.3125 48.734375 21.84375 45.5625 
Q 25.390625 42.390625 31.78125 42.390625 
Q 38.140625 42.390625 41.71875 45.5625 
Q 45.3125 48.734375 45.3125 54.390625 
Q 45.3125 60.0625 41.71875 63.234375 
Q 38.140625 66.40625 31.78125 66.40625 
Q 25.390625 66.40625 21.84375 63.234375 
Q 18.3125 60.0625 18.3125 54.390625 
z
" id="DejaVuSans-56"/>
      </defs>
      <g transform="translate(251.394198 303.028562)scale(0.1 -0.1)">
       <use xlink:href="#DejaVuSans-56"/>
       <use x="63.623047" xlink:href="#DejaVuSans-48"/>
       <use x="127.246094" xlink:href="#DejaVuSans-48"/>
      </g>
     </g>
    </g>
    <g id="xtick_6">
     <g id="line2d_11">
      <path clip-path="url(#p102cf86e33)" d="M 309.868551 288.430125 
L 309.868551 22.318125 
" style="fill:none;stroke:#b0b0b0;stroke-dasharray:2.96,1.28;stroke-dashoffset:0;stroke-width:0.8;"/>
     </g>
     <g id="line2d_12">
      <g>
       <use style="stroke:#000000;stroke-width:0.8;" x="309.868551" xlink:href="#ma486abc439" y="288.430125"/>
      </g>
     </g>
     <g id="text_6">
      <!-- 1000 -->
      <defs>
       <path d="M 12.40625 8.296875 
L 28.515625 8.296875 
L 28.515625 63.921875 
L 10.984375 60.40625 
L 10.984375 69.390625 
L 28.421875 72.90625 
L 38.28125 72.90625 
L 38.28125 8.296875 
L 54.390625 8.296875 
L 54.390625 0 
L 12.40625 0 
z
" id="DejaVuSans-49"/>
      </defs>
      <g transform="translate(297.143551 303.028562)scale(0.1 -0.1)">
       <use xlink:href="#DejaVuSans-49"/>
       <use x="63.623047" xlink:href="#DejaVuSans-48"/>
       <use x="127.246094" xlink:href="#DejaVuSans-48"/>
       <use x="190.869141" xlink:href="#DejaVuSans-48"/>
      </g>
     </g>
    </g>
    <g id="xtick_7">
     <g id="line2d_13">
      <path clip-path="url(#p102cf86e33)" d="M 358.799153 288.430125 
L 358.799153 22.318125 
" style="fill:none;stroke:#b0b0b0;stroke-dasharray:2.96,1.28;stroke-dashoffset:0;stroke-width:0.8;"/>
     </g>
     <g id="line2d_14">
      <g>
       <use style="stroke:#000000;stroke-width:0.8;" x="358.799153" xlink:href="#ma486abc439" y="288.430125"/>
      </g>
     </g>
     <g id="text_7">
      <!-- 1200 -->
      <g transform="translate(346.074153 303.028562)scale(0.1 -0.1)">
       <use xlink:href="#DejaVuSans-49"/>
       <use x="63.623047" xlink:href="#DejaVuSans-50"/>
       <use x="127.246094" xlink:href="#DejaVuSans-48"/>
       <use x="190.869141" xlink:href="#DejaVuSans-48"/>
      </g>
     </g>
    </g>
    <g id="text_8">
     <!-- Day -->
     <defs>
      <path d="M 19.671875 64.796875 
L 19.671875 8.109375 
L 31.59375 8.109375 
Q 46.6875 8.109375 53.6875 14.9375 
Q 60.6875 21.78125 60.6875 36.53125 
Q 60.6875 51.171875 53.6875 57.984375 
Q 46.6875 64.796875 31.59375 64.796875 
z
M 9.8125 72.90625 
L 30.078125 72.90625 
Q 51.265625 72.90625 61.171875 64.09375 
Q 71.09375 55.28125 71.09375 36.53125 
Q 71.09375 17.671875 61.125 8.828125 
Q 51.171875 0 30.078125 0 
L 9.8125 0 
z
" id="DejaVuSans-68"/>
      <path d="M 34.28125 27.484375 
Q 23.390625 27.484375 19.1875 25 
Q 14.984375 22.515625 14.984375 16.5 
Q 14.984375 11.71875 18.140625 8.90625 
Q 21.296875 6.109375 26.703125 6.109375 
Q 34.1875 6.109375 38.703125 11.40625 
Q 43.21875 16.703125 43.21875 25.484375 
L 43.21875 27.484375 
z
M 52.203125 31.203125 
L 52.203125 0 
L 43.21875 0 
L 43.21875 8.296875 
Q 40.140625 3.328125 35.546875 0.953125 
Q 30.953125 -1.421875 24.3125 -1.421875 
Q 15.921875 -1.421875 10.953125 3.296875 
Q 6 8.015625 6 15.921875 
Q 6 25.140625 12.171875 29.828125 
Q 18.359375 34.515625 30.609375 34.515625 
L 43.21875 34.515625 
L 43.21875 35.40625 
Q 43.21875 41.609375 39.140625 45 
Q 35.0625 48.390625 27.6875 48.390625 
Q 23 48.390625 18.546875 47.265625 
Q 14.109375 46.140625 10.015625 43.890625 
L 10.015625 52.203125 
Q 14.9375 54.109375 19.578125 55.046875 
Q 24.21875 56 28.609375 56 
Q 40.484375 56 46.34375 49.84375 
Q 52.203125 43.703125 52.203125 31.203125 
z
" id="DejaVuSans-97"/>
      <path d="M 32.171875 -5.078125 
Q 28.375 -14.84375 24.75 -17.8125 
Q 21.140625 -20.796875 15.09375 -20.796875 
L 7.90625 -20.796875 
L 7.90625 -13.28125 
L 13.1875 -13.28125 
Q 16.890625 -13.28125 18.9375 -11.515625 
Q 21 -9.765625 23.484375 -3.21875 
L 25.09375 0.875 
L 2.984375 54.6875 
L 12.5 54.6875 
L 29.59375 11.921875 
L 46.6875 54.6875 
L 56.203125 54.6875 
z
" id="DejaVuSans-121"/>
     </defs>
     <g transform="translate(217.669375 316.706687)scale(0.1 -0.1)">
      <use xlink:href="#DejaVuSans-68"/>
      <use x="77.001953" xlink:href="#DejaVuSans-97"/>
      <use x="138.28125" xlink:href="#DejaVuSans-121"/>
     </g>
    </g>
   </g>
   <g id="matplotlib.axis_2">
    <g id="ytick_1">
     <g id="line2d_15">
      <path clip-path="url(#p102cf86e33)" d="M 48.982813 277.966199 
L 406.102813 277.966199 
" style="fill:none;stroke:#b0b0b0;stroke-dasharray:2.96,1.28;stroke-dashoffset:0;stroke-width:0.8;"/>
     </g>
     <g id="line2d_16">
      <defs>
       <path d="M 0 0 
L -3.5 0 
" id="ma5cc21bd98" style="stroke:#000000;stroke-width:0.8;"/>
      </defs>
      <g>
       <use style="stroke:#000000;stroke-width:0.8;" x="48.982813" xlink:href="#ma5cc21bd98" y="277.966199"/>
      </g>
     </g>
     <g id="text_9">
      <!-- −30 -->
      <defs>
       <path d="M 10.59375 35.5 
L 73.1875 35.5 
L 73.1875 27.203125 
L 10.59375 27.203125 
z
" id="DejaVuSans-8722"/>
       <path d="M 40.578125 39.3125 
Q 47.65625 37.796875 51.625 33 
Q 55.609375 28.21875 55.609375 21.1875 
Q 55.609375 10.40625 48.1875 4.484375 
Q 40.765625 -1.421875 27.09375 -1.421875 
Q 22.515625 -1.421875 17.65625 -0.515625 
Q 12.796875 0.390625 7.625 2.203125 
L 7.625 11.71875 
Q 11.71875 9.328125 16.59375 8.109375 
Q 21.484375 6.890625 26.8125 6.890625 
Q 36.078125 6.890625 40.9375 10.546875 
Q 45.796875 14.203125 45.796875 21.1875 
Q 45.796875 27.640625 41.28125 31.265625 
Q 36.765625 34.90625 28.71875 34.90625 
L 20.21875 34.90625 
L 20.21875 43.015625 
L 29.109375 43.015625 
Q 36.375 43.015625 40.234375 45.921875 
Q 44.09375 48.828125 44.09375 54.296875 
Q 44.09375 59.90625 40.109375 62.90625 
Q 36.140625 65.921875 28.71875 65.921875 
Q 24.65625 65.921875 20.015625 65.03125 
Q 15.375 64.15625 9.8125 62.3125 
L 9.8125 71.09375 
Q 15.4375 72.65625 20.34375 73.4375 
Q 25.25 74.21875 29.59375 74.21875 
Q 40.828125 74.21875 47.359375 69.109375 
Q 53.90625 64.015625 53.90625 55.328125 
Q 53.90625 49.265625 50.4375 45.09375 
Q 46.96875 40.921875 40.578125 39.3125 
z
" id="DejaVuSans-51"/>
      </defs>
      <g transform="translate(20.878125 281.765418)scale(0.1 -0.1)">
       <use xlink:href="#DejaVuSans-8722"/>
       <use x="83.789062" xlink:href="#DejaVuSans-51"/>
       <use x="147.412109" xlink:href="#DejaVuSans-48"/>
      </g>
     </g>
    </g>
    <g id="ytick_2">
     <g id="line2d_17">
      <path clip-path="url(#p102cf86e33)" d="M 48.982813 231.335513 
L 406.102813 231.335513 
" style="fill:none;stroke:#b0b0b0;stroke-dasharray:2.96,1.28;stroke-dashoffset:0;stroke-width:0.8;"/>
     </g>
     <g id="line2d_18">
      <g>
       <use style="stroke:#000000;stroke-width:0.8;" x="48.982813" xlink:href="#ma5cc21bd98" y="231.335513"/>
      </g>
     </g>
     <g id="text_10">
      <!-- −20 -->
      <g transform="translate(20.878125 235.134732)scale(0.1 -0.1)">
       <use xlink:href="#DejaVuSans-8722"/>
       <use x="83.789062" xlink:href="#DejaVuSans-50"/>
       <use x="147.412109" xlink:href="#DejaVuSans-48"/>
      </g>
     </g>
    </g>
    <g id="ytick_3">
     <g id="line2d_19">
      <path clip-path="url(#p102cf86e33)" d="M 48.982813 184.704827 
L 406.102813 184.704827 
" style="fill:none;stroke:#b0b0b0;stroke-dasharray:2.96,1.28;stroke-dashoffset:0;stroke-width:0.8;"/>
     </g>
     <g id="line2d_20">
      <g>
       <use style="stroke:#000000;stroke-width:0.8;" x="48.982813" xlink:href="#ma5cc21bd98" y="184.704827"/>
      </g>
     </g>
     <g id="text_11">
      <!-- −10 -->
      <g transform="translate(20.878125 188.504045)scale(0.1 -0.1)">
       <use xlink:href="#DejaVuSans-8722"/>
       <use x="83.789062" xlink:href="#DejaVuSans-49"/>
       <use x="147.412109" xlink:href="#DejaVuSans-48"/>
      </g>
     </g>
    </g>
    <g id="ytick_4">
     <g id="line2d_21">
      <path clip-path="url(#p102cf86e33)" d="M 48.982813 138.07414 
L 406.102813 138.07414 
" style="fill:none;stroke:#b0b0b0;stroke-dasharray:2.96,1.28;stroke-dashoffset:0;stroke-width:0.8;"/>
     </g>
     <g id="line2d_22">
      <g>
       <use style="stroke:#000000;stroke-width:0.8;" x="48.982813" xlink:href="#ma5cc21bd98" y="138.07414"/>
      </g>
     </g>
     <g id="text_12">
      <!-- 0 -->
      <g transform="translate(35.620313 141.873359)scale(0.1 -0.1)">
       <use xlink:href="#DejaVuSans-48"/>
      </g>
     </g>
    </g>
    <g id="ytick_5">
     <g id="line2d_23">
      <path clip-path="url(#p102cf86e33)" d="M 48.982813 91.443454 
L 406.102813 91.443454 
" style="fill:none;stroke:#b0b0b0;stroke-dasharray:2.96,1.28;stroke-dashoffset:0;stroke-width:0.8;"/>
     </g>
     <g id="line2d_24">
      <g>
       <use style="stroke:#000000;stroke-width:0.8;" x="48.982813" xlink:href="#ma5cc21bd98" y="91.443454"/>
      </g>
     </g>
     <g id="text_13">
      <!-- 10 -->
      <g transform="translate(29.257813 95.242673)scale(0.1 -0.1)">
       <use xlink:href="#DejaVuSans-49"/>
       <use x="63.623047" xlink:href="#DejaVuSans-48"/>
      </g>
     </g>
    </g>
    <g id="ytick_6">
     <g id="line2d_25">
      <path clip-path="url(#p102cf86e33)" d="M 48.982813 44.812768 
L 406.102813 44.812768 
" style="fill:none;stroke:#b0b0b0;stroke-dasharray:2.96,1.28;stroke-dashoffset:0;stroke-width:0.8;"/>
     </g>
     <g id="line2d_26">
      <g>
       <use style="stroke:#000000;stroke-width:0.8;" x="48.982813" xlink:href="#ma5cc21bd98" y="44.812768"/>
      </g>
     </g>
     <g id="text_14">
      <!-- 20 -->
      <g transform="translate(29.257813 48.611987)scale(0.1 -0.1)">
       <use xlink:href="#DejaVuSans-50"/>
       <use x="63.623047" xlink:href="#DejaVuSans-48"/>
      </g>
     </g>
    </g>
    <g id="text_15">
     <!-- Change $ -->
     <defs>
      <path d="M 64.40625 67.28125 
L 64.40625 56.890625 
Q 59.421875 61.53125 53.78125 63.8125 
Q 48.140625 66.109375 41.796875 66.109375 
Q 29.296875 66.109375 22.65625 58.46875 
Q 16.015625 50.828125 16.015625 36.375 
Q 16.015625 21.96875 22.65625 14.328125 
Q 29.296875 6.6875 41.796875 6.6875 
Q 48.140625 6.6875 53.78125 8.984375 
Q 59.421875 11.28125 64.40625 15.921875 
L 64.40625 5.609375 
Q 59.234375 2.09375 53.4375 0.328125 
Q 47.65625 -1.421875 41.21875 -1.421875 
Q 24.65625 -1.421875 15.125 8.703125 
Q 5.609375 18.84375 5.609375 36.375 
Q 5.609375 53.953125 15.125 64.078125 
Q 24.65625 74.21875 41.21875 74.21875 
Q 47.75 74.21875 53.53125 72.484375 
Q 59.328125 70.75 64.40625 67.28125 
z
" id="DejaVuSans-67"/>
      <path d="M 54.890625 33.015625 
L 54.890625 0 
L 45.90625 0 
L 45.90625 32.71875 
Q 45.90625 40.484375 42.875 44.328125 
Q 39.84375 48.1875 33.796875 48.1875 
Q 26.515625 48.1875 22.3125 43.546875 
Q 18.109375 38.921875 18.109375 30.90625 
L 18.109375 0 
L 9.078125 0 
L 9.078125 75.984375 
L 18.109375 75.984375 
L 18.109375 46.1875 
Q 21.34375 51.125 25.703125 53.5625 
Q 30.078125 56 35.796875 56 
Q 45.21875 56 50.046875 50.171875 
Q 54.890625 44.34375 54.890625 33.015625 
z
" id="DejaVuSans-104"/>
      <path d="M 54.890625 33.015625 
L 54.890625 0 
L 45.90625 0 
L 45.90625 32.71875 
Q 45.90625 40.484375 42.875 44.328125 
Q 39.84375 48.1875 33.796875 48.1875 
Q 26.515625 48.1875 22.3125 43.546875 
Q 18.109375 38.921875 18.109375 30.90625 
L 18.109375 0 
L 9.078125 0 
L 9.078125 54.6875 
L 18.109375 54.6875 
L 18.109375 46.1875 
Q 21.34375 51.125 25.703125 53.5625 
Q 30.078125 56 35.796875 56 
Q 45.21875 56 50.046875 50.171875 
Q 54.890625 44.34375 54.890625 33.015625 
z
" id="DejaVuSans-110"/>
      <path d="M 45.40625 27.984375 
Q 45.40625 37.75 41.375 43.109375 
Q 37.359375 48.484375 30.078125 48.484375 
Q 22.859375 48.484375 18.828125 43.109375 
Q 14.796875 37.75 14.796875 27.984375 
Q 14.796875 18.265625 18.828125 12.890625 
Q 22.859375 7.515625 30.078125 7.515625 
Q 37.359375 7.515625 41.375 12.890625 
Q 45.40625 18.265625 45.40625 27.984375 
z
M 54.390625 6.78125 
Q 54.390625 -7.171875 48.1875 -13.984375 
Q 42 -20.796875 29.203125 -20.796875 
Q 24.46875 -20.796875 20.265625 -20.09375 
Q 16.0625 -19.390625 12.109375 -17.921875 
L 12.109375 -9.1875 
Q 16.0625 -11.328125 19.921875 -12.34375 
Q 23.78125 -13.375 27.78125 -13.375 
Q 36.625 -13.375 41.015625 -8.765625 
Q 45.40625 -4.15625 45.40625 5.171875 
L 45.40625 9.625 
Q 42.625 4.78125 38.28125 2.390625 
Q 33.9375 0 27.875 0 
Q 17.828125 0 11.671875 7.65625 
Q 5.515625 15.328125 5.515625 27.984375 
Q 5.515625 40.671875 11.671875 48.328125 
Q 17.828125 56 27.875 56 
Q 33.9375 56 38.28125 53.609375 
Q 42.625 51.21875 45.40625 46.390625 
L 45.40625 54.6875 
L 54.390625 54.6875 
z
" id="DejaVuSans-103"/>
      <path d="M 56.203125 29.59375 
L 56.203125 25.203125 
L 14.890625 25.203125 
Q 15.484375 15.921875 20.484375 11.0625 
Q 25.484375 6.203125 34.421875 6.203125 
Q 39.59375 6.203125 44.453125 7.46875 
Q 49.3125 8.734375 54.109375 11.28125 
L 54.109375 2.78125 
Q 49.265625 0.734375 44.1875 -0.34375 
Q 39.109375 -1.421875 33.890625 -1.421875 
Q 20.796875 -1.421875 13.15625 6.1875 
Q 5.515625 13.8125 5.515625 26.8125 
Q 5.515625 40.234375 12.765625 48.109375 
Q 20.015625 56 32.328125 56 
Q 43.359375 56 49.78125 48.890625 
Q 56.203125 41.796875 56.203125 29.59375 
z
M 47.21875 32.234375 
Q 47.125 39.59375 43.09375 43.984375 
Q 39.0625 48.390625 32.421875 48.390625 
Q 24.90625 48.390625 20.390625 44.140625 
Q 15.875 39.890625 15.1875 32.171875 
z
" id="DejaVuSans-101"/>
      <path id="DejaVuSans-32"/>
      <path d="M 33.796875 -14.703125 
L 28.90625 -14.703125 
L 28.859375 0 
Q 23.734375 0.09375 18.609375 1.1875 
Q 13.484375 2.296875 8.296875 4.5 
L 8.296875 13.28125 
Q 13.28125 10.15625 18.375 8.5625 
Q 23.484375 6.984375 28.90625 6.9375 
L 28.90625 29.203125 
Q 18.109375 30.953125 13.203125 35.15625 
Q 8.296875 39.359375 8.296875 46.6875 
Q 8.296875 54.640625 13.625 59.21875 
Q 18.953125 63.8125 28.90625 64.5 
L 28.90625 75.984375 
L 33.796875 75.984375 
L 33.796875 64.65625 
Q 38.328125 64.453125 42.578125 63.6875 
Q 46.828125 62.9375 50.875 61.625 
L 50.875 53.078125 
Q 46.828125 55.125 42.546875 56.25 
Q 38.28125 57.375 33.796875 57.5625 
L 33.796875 36.71875 
Q 44.875 35.015625 50.09375 30.609375 
Q 55.328125 26.21875 55.328125 18.609375 
Q 55.328125 10.359375 49.78125 5.59375 
Q 44.234375 0.828125 33.796875 0.09375 
z
M 28.90625 37.59375 
L 28.90625 57.625 
Q 23.25 56.984375 20.265625 54.390625 
Q 17.28125 51.8125 17.28125 47.515625 
Q 17.28125 43.3125 20.03125 40.96875 
Q 22.796875 38.625 28.90625 37.59375 
z
M 33.796875 28.21875 
L 33.796875 7.078125 
Q 39.984375 7.90625 43.140625 10.59375 
Q 46.296875 13.28125 46.296875 17.671875 
Q 46.296875 21.96875 43.28125 24.5 
Q 40.28125 27.046875 33.796875 28.21875 
z
" id="DejaVuSans-36"/>
     </defs>
     <g transform="translate(14.798438 179.288187)rotate(-90)scale(0.1 -0.1)">
      <use xlink:href="#DejaVuSans-67"/>
      <use x="69.824219" xlink:href="#DejaVuSans-104"/>
      <use x="133.203125" xlink:href="#DejaVuSans-97"/>
      <use x="194.482422" xlink:href="#DejaVuSans-110"/>
      <use x="257.861328" xlink:href="#DejaVuSans-103"/>
      <use x="321.337891" xlink:href="#DejaVuSans-101"/>
      <use x="382.861328" xlink:href="#DejaVuSans-32"/>
      <use x="414.648438" xlink:href="#DejaVuSans-36"/>
     </g>
    </g>
   </g>
   <g id="line2d_27">
    <path clip-path="url(#p102cf86e33)" d="M 65.21554 148.188312 
L 65.704846 129.311513 
L 65.949499 125.460612 
L 66.194152 124.518771 
L 66.438805 124.362606 
L 66.928111 126.139053 
L 67.906723 131.104152 
L 68.396029 132.825011 
L 68.885335 133.546393 
L 69.374641 135.452153 
L 69.619294 135.57733 
L 69.863947 136.688154 
L 70.1086 136.710635 
L 70.597906 136.535451 
L 70.842559 137.396616 
L 71.331865 137.625152 
L 71.576518 137.437741 
L 71.821171 137.905482 
L 72.065824 137.870125 
L 72.310477 138.007818 
L 72.55513 138.385682 
L 72.799783 138.375012 
L 73.044436 138.731723 
L 73.533742 138.386966 
L 73.778395 138.480707 
L 74.023048 138.847771 
L 74.267701 138.577635 
L 74.512354 138.734535 
L 75.246313 138.190369 
L 75.980272 137.39379 
L 76.224925 137.748727 
L 76.469578 137.585642 
L 76.958884 137.583248 
L 77.44819 137.441821 
L 77.692843 138.230239 
L 77.937496 137.91957 
L 78.182149 137.838907 
L 78.671455 137.456875 
L 78.916108 137.495779 
L 79.160761 137.40061 
L 79.650067 137.554871 
L 79.89472 137.480105 
L 80.873332 137.711164 
L 81.117985 138.508421 
L 81.362638 138.441789 
L 81.607292 138.767195 
L 81.851945 138.772905 
L 82.096598 138.575069 
L 83.07521 138.680375 
L 83.564516 139.746153 
L 83.809169 139.566976 
L 84.298475 139.661294 
L 84.543128 139.313206 
L 84.787781 139.407495 
L 85.032434 138.865652 
L 85.277087 139.024238 
L 85.52174 138.866445 
L 85.766393 138.850525 
L 86.011046 138.359756 
L 86.255699 138.599164 
L 86.500352 138.585581 
L 86.745005 139.236883 
L 86.989658 139.236797 
L 87.234311 139.359017 
L 87.96827 139.238671 
L 88.212923 138.864772 
L 88.457576 138.940893 
L 88.702229 138.701687 
L 88.946882 139.238296 
L 89.191535 138.658443 
L 89.680841 138.527513 
L 90.170147 138.562336 
L 90.4148 137.974783 
L 90.659453 138.399597 
L 91.148759 138.230759 
L 91.393412 137.618403 
L 91.638065 137.699643 
L 91.882718 137.582499 
L 92.127371 137.682801 
L 92.372024 137.661374 
L 92.86133 136.546771 
L 93.105983 136.467679 
L 93.595289 136.646093 
L 94.084595 137.060395 
L 94.329248 136.932782 
L 94.818554 137.226033 
L 95.30786 137.147273 
L 95.552513 136.776662 
L 95.797166 137.211945 
L 96.041819 137.168412 
L 96.286472 137.338952 
L 96.531125 137.337582 
L 96.775778 137.490055 
L 97.020431 138.833885 
L 97.265084 138.365235 
L 97.509737 138.656655 
L 98.977655 138.372604 
L 99.222308 138.422495 
L 99.466961 138.781571 
L 99.711614 138.60881 
L 100.20092 138.567196 
L 100.445573 138.250571 
L 100.690226 138.293498 
L 101.179532 137.922512 
L 101.424185 138.416165 
L 101.668838 138.195359 
L 102.402797 138.663086 
L 102.64745 138.596756 
L 102.892103 138.679322 
L 103.136756 138.522423 
L 103.381409 138.559337 
L 103.870715 138.317305 
L 104.115369 138.545725 
L 104.360022 138.044804 
L 104.604675 138.58819 
L 104.849328 138.183073 
L 105.093981 138.398919 
L 105.583287 137.808554 
L 106.072593 137.775951 
L 106.317246 137.509161 
L 106.561899 137.761027 
L 106.806552 137.732722 
L 107.051205 137.940767 
L 107.540511 137.709088 
L 107.785164 137.222053 
L 108.029817 137.557827 
L 108.27447 137.409089 
L 108.519123 137.681373 
L 108.763776 137.447604 
L 109.253082 137.776052 
L 109.742388 137.841964 
L 109.987041 137.588901 
L 110.476347 137.48632 
L 110.721 138.535155 
L 110.965653 138.418343 
L 111.699612 138.842177 
L 111.944265 138.727685 
L 112.188918 138.19184 
L 112.433571 138.271609 
L 112.678224 138.155085 
L 112.922877 138.430916 
L 113.16753 138.21024 
L 113.656836 138.715775 
L 113.901489 138.570152 
L 114.146142 139.22255 
L 114.635448 138.139584 
L 115.369407 139.429874 
L 115.61406 138.9432 
L 115.858713 139.176754 
L 116.103366 139.15759 
L 116.348019 139.527048 
L 117.081978 139.304395 
L 117.326631 139.077936 
L 117.815937 138.150269 
L 118.06059 137.946895 
L 118.305243 138.503562 
L 118.549896 138.641831 
L 118.794549 138.628363 
L 119.039202 138.800288 
L 119.528508 138.848218 
L 119.773161 139.09697 
L 120.262467 138.92382 
L 120.50712 139.041628 
L 120.996426 138.165063 
L 121.485732 137.919311 
L 121.730385 138.27073 
L 122.219691 138.322366 
L 122.464344 138.007428 
L 122.708997 138.085929 
L 122.95365 137.753803 
L 123.198303 137.62743 
L 123.442956 137.330301 
L 123.687609 137.536716 
L 123.932262 137.22299 
L 124.176915 137.25118 
L 124.421568 137.046019 
L 125.40018 137.952778 
L 125.644833 137.895403 
L 125.889486 137.367575 
L 126.134139 137.363985 
L 126.378792 137.537437 
L 126.623446 137.512376 
L 127.112752 137.815043 
L 127.357405 137.348239 
L 127.602058 137.880854 
L 128.091364 137.437236 
L 128.58067 137.326205 
L 128.825323 137.235333 
L 129.069976 136.768861 
L 129.314629 137.242817 
L 129.803935 137.312233 
L 130.048588 137.069595 
L 130.537894 137.109335 
L 130.782547 136.729481 
L 131.0272 136.875349 
L 131.271853 136.81222 
L 131.516506 137.371339 
L 131.761159 136.74664 
L 132.005812 136.923929 
L 132.250465 137.286681 
L 132.495118 137.210633 
L 132.739771 137.571251 
L 133.47373 137.428036 
L 133.963036 136.748659 
L 134.452342 137.429334 
L 134.696995 137.214338 
L 134.941648 137.290733 
L 135.430954 137.251137 
L 135.675607 137.603061 
L 135.92026 137.406811 
L 136.164913 137.772938 
L 136.654219 137.57415 
L 136.898872 137.789448 
L 137.143525 137.463451 
L 137.388178 137.538259 
L 137.632831 137.269032 
L 137.877484 137.4672 
L 138.122137 137.251224 
L 138.36679 137.391439 
L 138.611443 138.155762 
L 138.856096 138.366475 
L 139.100749 137.724993 
L 139.590055 137.886434 
L 140.079361 138.194537 
L 140.324014 138.08515 
L 140.568667 137.581504 
L 140.81332 138.188437 
L 141.302626 138.768334 
L 141.547279 138.419078 
L 141.791932 139.055052 
L 142.036585 139.142363 
L 142.281238 138.720475 
L 142.525891 139.066963 
L 143.015197 138.949761 
L 143.993809 139.785259 
L 144.238462 139.180099 
L 144.483115 139.03847 
L 144.727768 139.125261 
L 144.972421 138.761888 
L 145.217074 138.12091 
L 145.461727 138.010731 
L 145.70638 138.354997 
L 145.951033 138.182655 
L 146.440339 139.178686 
L 146.929645 139.130957 
L 147.174298 138.894447 
L 147.418951 139.246039 
L 147.663604 138.323159 
L 147.908257 138.719091 
L 148.15291 138.732674 
L 148.397563 138.864051 
L 149.131523 138.171249 
L 149.376176 137.67203 
L 149.620829 138.385437 
L 149.865482 138.124256 
L 150.110135 138.096844 
L 150.354788 138.199915 
L 150.844094 137.730054 
L 151.088747 137.778677 
L 151.3334 137.563796 
L 151.578053 137.584388 
L 151.822706 137.963117 
L 152.067359 137.996758 
L 152.312012 137.652275 
L 152.556665 137.996498 
L 152.801318 137.534424 
L 153.045971 137.468959 
L 153.290624 137.946189 
L 153.535277 137.838172 
L 154.024583 137.445023 
L 154.269236 137.969505 
L 154.513889 137.831524 
L 154.758542 138.538746 
L 155.003195 138.169648 
L 155.247848 138.604009 
L 155.492501 138.260679 
L 155.737154 139.170121 
L 155.981807 138.534982 
L 156.22646 138.645234 
L 156.471113 139.337921 
L 156.960419 139.575656 
L 157.205072 139.490177 
L 157.449725 139.818611 
L 157.694378 139.318772 
L 158.183684 140.340988 
L 158.428337 139.688922 
L 158.67299 140.160744 
L 158.917643 139.773348 
L 159.162296 139.882201 
L 159.406949 139.307294 
L 160.140908 139.513695 
L 160.385561 139.432874 
L 160.630214 138.921095 
L 160.874867 139.475253 
L 161.11952 139.344164 
L 162.342785 139.66461 
L 162.587438 140.326511 
L 162.832091 140.068848 
L 163.076744 139.980629 
L 163.321397 139.570696 
L 163.56605 138.7631 
L 163.810703 139.333162 
L 164.055356 139.061484 
L 164.300009 139.523616 
L 164.544662 138.95785 
L 165.033968 140.420238 
L 165.278621 139.562549 
L 165.523274 139.46301 
L 165.767927 139.845129 
L 166.01258 139.946224 
L 166.257233 139.72673 
L 166.746539 139.648114 
L 166.991192 139.838957 
L 167.235845 139.861697 
L 167.480498 140.28083 
L 167.725151 139.722591 
L 167.969804 139.543284 
L 168.214457 139.683875 
L 168.45911 139.983037 
L 168.703763 140.964432 
L 168.948416 141.431842 
L 169.437722 140.354903 
L 169.682375 140.889854 
L 169.927028 140.66674 
L 170.171681 140.28455 
L 170.416334 140.250318 
L 170.660987 140.410721 
L 170.90564 140.759588 
L 171.150293 140.27065 
L 171.394947 140.084219 
L 171.6396 140.627044 
L 171.884253 140.744548 
L 172.128906 140.558219 
L 172.373559 141.517523 
L 172.618212 140.649524 
L 172.862865 141.065571 
L 173.352171 140.010319 
L 173.596824 139.823629 
L 173.841477 139.83267 
L 174.08613 140.100759 
L 174.330783 140.097096 
L 174.820089 138.981527 
L 175.064742 139.550321 
L 176.777313 138.117752 
L 177.021966 138.188567 
L 178.245231 138.000608 
L 178.489884 138.458631 
L 179.223843 137.834278 
L 179.468496 137.985237 
L 179.713149 137.730905 
L 179.957802 137.844675 
L 180.202455 138.287687 
L 180.691761 138.017219 
L 181.42572 138.420058 
L 181.670373 138.389013 
L 181.915026 137.991351 
L 182.159679 138.140651 
L 182.404332 137.82988 
L 182.648985 138.073845 
L 182.893638 137.809059 
L 183.138291 137.792938 
L 183.382944 137.532419 
L 184.116903 137.808266 
L 184.361556 138.290239 
L 184.606209 137.950933 
L 184.850862 138.230153 
L 185.095515 137.907688 
L 185.340168 138.045611 
L 185.584821 137.838749 
L 185.829474 137.962483 
L 186.074127 138.226418 
L 186.31878 137.844343 
L 186.563433 137.888467 
L 187.052739 137.659816 
L 187.297392 137.795533 
L 187.542045 137.092219 
L 188.031351 137.975907 
L 188.276004 137.838849 
L 188.76531 138.132086 
L 189.009963 137.83983 
L 189.254616 137.940104 
L 189.499269 138.208091 
L 189.743922 138.211768 
L 190.233228 137.719427 
L 190.477881 137.948885 
L 190.722534 137.789333 
L 190.967187 137.811121 
L 191.21184 138.419064 
L 191.456493 138.05807 
L 191.701146 138.175993 
L 191.945799 138.14476 
L 192.190452 138.749848 
L 192.679758 138.438357 
L 192.924411 138.786272 
L 193.169064 138.685364 
L 193.65837 138.868045 
L 193.903024 138.556568 
L 194.39233 139.234259 
L 194.636983 138.930525 
L 195.126289 139.436752 
L 195.370942 139.279882 
L 195.860248 139.455455 
L 196.104901 140.044234 
L 196.349554 139.683038 
L 196.594207 139.723557 
L 196.83886 139.320358 
L 197.083513 139.650609 
L 197.328166 140.229929 
L 197.572819 140.364117 
L 197.817472 139.7605 
L 198.062125 140.086353 
L 198.306778 140.132309 
L 198.551431 139.887378 
L 198.796084 139.904148 
L 199.040737 140.085921 
L 199.774696 139.578165 
L 200.019349 139.752497 
L 200.264002 139.696809 
L 200.508655 139.81567 
L 200.753308 140.49173 
L 200.997961 140.441161 
L 201.242614 140.550302 
L 201.73192 139.794646 
L 201.976573 139.903225 
L 202.465879 139.426039 
L 202.955185 139.82324 
L 203.199838 139.671863 
L 203.444491 139.984248 
L 203.689144 139.274244 
L 203.933797 140.332337 
L 204.17845 139.381381 
L 204.667756 139.586557 
L 204.912409 139.382766 
L 205.157062 139.580256 
L 205.401715 139.388447 
L 205.646368 139.378123 
L 205.891021 138.957706 
L 206.135674 139.269817 
L 206.380327 138.814087 
L 206.62498 139.396479 
L 206.869633 139.274403 
L 207.114286 139.360098 
L 207.603592 139.24653 
L 207.848245 139.554647 
L 208.092898 139.0078 
L 208.337551 139.339594 
L 208.826857 138.930943 
L 209.07151 139.108967 
L 209.316163 139.956275 
L 209.560816 139.659347 
L 209.805469 140.130492 
L 210.784081 140.303151 
L 211.028734 140.713676 
L 211.273387 140.415278 
L 212.007346 141.025254 
L 212.496652 140.212654 
L 212.741305 140.26171 
L 212.985958 140.164003 
L 213.230611 140.43969 
L 213.475264 140.465602 
L 213.719917 140.280268 
L 214.209223 140.683655 
L 214.453876 140.657728 
L 214.698529 140.387131 
L 215.187835 140.567822 
L 215.432488 140.422949 
L 215.677141 139.881279 
L 216.166447 140.335595 
L 216.900407 140.768023 
L 217.14506 140.205834 
L 217.389713 140.464549 
L 217.634366 139.840255 
L 217.879019 140.255322 
L 218.123672 139.906989 
L 218.857631 140.941289 
L 219.102284 140.777872 
L 219.346937 140.846999 
L 219.59159 141.047662 
L 220.325549 141.102514 
L 220.570202 141.435245 
L 220.814855 141.14423 
L 221.059508 141.031397 
L 221.304161 141.437077 
L 221.548814 142.31093 
L 221.793467 141.315664 
L 222.03812 141.753557 
L 222.282773 141.888582 
L 222.527426 141.852792 
L 222.772079 141.406319 
L 223.016732 141.743434 
L 223.261385 141.464733 
L 223.506038 141.745684 
L 223.750691 141.460422 
L 223.995344 141.687371 
L 224.239997 141.37601 
L 224.48465 141.300119 
L 224.973956 140.882457 
L 225.707915 141.281908 
L 225.952568 141.815719 
L 226.441874 141.48381 
L 226.93118 141.538532 
L 227.175833 140.790331 
L 227.420486 140.903625 
L 227.665139 140.740496 
L 227.909792 140.387405 
L 228.399098 140.906047 
L 228.643751 141.161821 
L 228.888404 140.764721 
L 229.133057 140.584592 
L 229.37771 140.772825 
L 229.622363 140.401983 
L 230.111669 140.885355 
L 230.600975 140.374932 
L 230.845628 139.946469 
L 231.090281 140.262272 
L 231.579587 140.235178 
L 232.068893 140.612191 
L 232.558199 140.377499 
L 232.802852 140.142864 
L 233.292158 140.382574 
L 233.781464 139.958812 
L 234.27077 140.381565 
L 234.515423 141.547775 
L 234.760076 140.845673 
L 235.004729 140.836242 
L 235.249382 141.61895 
L 235.494035 141.75572 
L 235.738688 141.153761 
L 235.983341 141.376413 
L 236.961953 141.121576 
L 237.206606 140.920885 
L 237.451259 141.083898 
L 237.695912 140.822328 
L 237.940565 140.929522 
L 238.185218 140.431846 
L 238.429871 140.319373 
L 238.674524 140.575392 
L 238.919178 140.373865 
L 239.408484 140.618219 
L 239.653137 140.347823 
L 239.89779 140.338451 
L 240.142443 140.212467 
L 240.387096 140.355076 
L 240.631749 140.069151 
L 241.365708 140.146065 
L 241.610361 139.824754 
L 241.855014 139.815136 
L 242.099667 140.150448 
L 242.34432 140.136231 
L 242.588973 139.931113 
L 243.078279 139.745994 
L 243.322932 139.97104 
L 243.567585 139.64461 
L 243.812238 139.692527 
L 244.301544 140.390779 
L 244.546197 140.482314 
L 245.035503 140.306338 
L 245.280156 140.423684 
L 245.524809 141.092636 
L 245.769462 140.86351 
L 246.014115 141.325339 
L 246.258768 140.871138 
L 246.503421 140.809854 
L 246.748074 140.413649 
L 247.23738 141.06312 
L 247.726686 140.027464 
L 247.971339 140.060023 
L 248.460645 139.719419 
L 248.705298 139.650537 
L 248.949951 139.851992 
L 249.194604 140.500007 
L 249.439257 142.865939 
L 249.68391 142.161919 
L 249.928563 141.995416 
L 250.173216 142.079641 
L 250.662522 142.00724 
L 250.907175 141.500075 
L 251.151828 141.441979 
L 251.396481 141.134799 
L 251.641134 141.189319 
L 251.885787 142.312242 
L 252.375093 142.186836 
L 252.619746 142.116584 
L 252.864399 141.369564 
L 253.109052 141.794494 
L 253.353705 141.509045 
L 253.598358 142.092748 
L 253.843011 141.96352 
L 254.087664 143.003531 
L 254.332317 143.497775 
L 254.57697 143.176147 
L 254.821623 142.100304 
L 255.066276 142.198905 
L 255.310929 142.560533 
L 255.555582 142.442682 
L 256.044888 141.854753 
L 256.289541 141.742021 
L 256.778847 141.000986 
L 257.512806 140.882991 
L 257.757459 140.517729 
L 258.002112 139.54761 
L 258.246765 139.983946 
L 258.736071 139.892439 
L 259.225377 140.399301 
L 259.714683 139.813593 
L 259.959336 139.971776 
L 260.203989 139.3511 
L 260.693295 139.333682 
L 260.937948 138.496453 
L 261.182601 138.474276 
L 261.427255 138.777692 
L 261.916561 139.588331 
L 262.405867 139.300069 
L 262.895173 139.491979 
L 263.139826 138.882796 
L 263.384479 138.905724 
L 263.629132 138.630743 
L 264.118438 139.030496 
L 264.607744 138.255676 
L 264.852397 138.090125 
L 265.09705 137.442153 
L 265.586356 138.63788 
L 265.831009 137.250359 
L 266.075662 137.54831 
L 266.320315 138.178545 
L 266.564968 137.39565 
L 267.054274 137.794408 
L 267.298927 138.169173 
L 267.54358 137.433386 
L 267.788233 137.319558 
L 268.032886 137.557178 
L 268.277539 137.587776 
L 268.522192 137.124779 
L 268.766845 137.381447 
L 269.011498 136.703382 
L 269.256151 136.718926 
L 269.745457 136.978737 
L 269.99011 136.952825 
L 270.234763 137.298116 
L 270.724069 136.559662 
L 270.968722 137.293141 
L 271.213375 137.413761 
L 271.458028 137.664704 
L 271.702681 137.456529 
L 272.191987 137.803363 
L 272.43664 138.290427 
L 272.681293 138.281443 
L 273.170599 138.93276 
L 273.415252 138.24887 
L 273.659905 138.890049 
L 273.904558 138.838341 
L 274.149211 138.993625 
L 274.393864 138.596698 
L 274.638517 138.665176 
L 274.88317 138.954865 
L 275.372476 139.170568 
L 275.617129 138.800864 
L 276.351088 139.888964 
L 276.595741 139.53606 
L 276.840394 139.567004 
L 277.085047 140.79356 
L 277.3297 140.794541 
L 277.574353 140.983307 
L 277.819006 140.712782 
L 278.063659 140.94449 
L 278.308312 140.383786 
L 278.552965 141.465497 
L 278.797618 140.589365 
L 279.042271 140.590778 
L 279.286924 140.203253 
L 279.531577 140.029353 
L 279.77623 140.368126 
L 280.020883 140.212943 
L 280.265536 140.748701 
L 280.510189 140.997511 
L 280.754842 139.971401 
L 281.244148 140.673258 
L 281.733454 140.55235 
L 281.978107 141.206724 
L 282.22276 140.86612 
L 282.467413 141.466017 
L 282.712066 141.183465 
L 282.956719 141.464575 
L 283.201372 140.440512 
L 283.690678 139.763067 
L 283.935332 140.179907 
L 284.179985 139.637559 
L 284.424638 139.539103 
L 284.669291 140.189554 
L 284.913944 139.703125 
L 285.158597 140.618219 
L 285.40325 139.765475 
L 285.647903 139.323833 
L 285.892556 139.712339 
L 286.137209 139.513075 
L 286.381862 139.529744 
L 286.626515 139.802519 
L 286.871168 139.381165 
L 287.115821 139.382117 
L 287.360474 139.954746 
L 287.605127 139.188448 
L 287.84978 139.127107 
L 288.094433 138.741326 
L 288.339086 138.97798 
L 288.583739 138.708651 
L 289.073045 138.613021 
L 289.317698 138.07644 
L 289.562351 138.079281 
L 289.807004 138.297536 
L 290.051657 138.67527 
L 290.29631 138.061574 
L 290.540963 138.338674 
L 290.785616 138.040175 
L 291.030269 138.27742 
L 291.274922 138.335372 
L 291.519575 137.971351 
L 292.008881 138.446302 
L 292.253534 138.296555 
L 292.498187 138.557102 
L 292.74284 138.312907 
L 293.232146 138.228466 
L 293.476799 137.636615 
L 293.721452 138.266562 
L 293.966105 138.122799 
L 294.700064 138.201963 
L 295.18937 138.351609 
L 295.434023 138.656063 
L 295.923329 138.55977 
L 296.167982 139.231202 
L 296.412635 138.718039 
L 296.657288 140.017284 
L 297.6359 140.350015 
L 297.880553 140.745846 
L 298.125206 141.515634 
L 298.369859 141.196126 
L 298.859165 141.254092 
L 299.103818 140.425919 
L 299.348471 140.314226 
L 299.593124 140.390649 
L 300.08243 140.100355 
L 300.327083 139.964422 
L 300.571736 139.636781 
L 300.816389 139.706153 
L 301.061042 139.545692 
L 301.305695 138.982291 
L 301.550348 139.443357 
L 302.284307 139.533897 
L 302.52896 139.505289 
L 302.773613 139.607682 
L 303.018266 139.942692 
L 303.507572 139.900558 
L 303.752225 140.153289 
L 303.996878 140.653301 
L 304.241531 140.677757 
L 304.486184 140.088992 
L 304.730837 140.337802 
L 304.97549 139.940298 
L 305.220143 140.273159 
L 305.464796 140.019331 
L 305.709449 140.155985 
L 305.954102 140.752724 
L 306.443409 139.975381 
L 306.932715 139.869584 
L 307.177368 140.012424 
L 307.422021 139.942922 
L 307.911327 139.559463 
L 308.15598 139.896333 
L 308.400633 138.940114 
L 308.645286 139.231375 
L 309.379245 139.245117 
L 309.623898 139.046011 
L 309.868551 139.457286 
L 310.357857 139.14219 
L 310.847163 139.268101 
L 311.336469 138.815717 
L 311.581122 138.924296 
L 311.825775 139.624812 
L 312.315081 139.281295 
L 312.559734 139.464121 
L 312.804387 139.291302 
L 313.04904 138.6415 
L 313.293693 138.95178 
L 313.538346 138.973568 
L 314.027652 138.400981 
L 314.272305 138.501716 
L 314.516958 137.893009 
L 315.006264 138.10838 
L 315.49557 137.768597 
L 316.229529 138.381443 
L 316.474182 138.174133 
L 316.963488 138.141401 
L 317.208141 137.990485 
L 317.452794 138.559279 
L 317.697447 138.042367 
L 317.9421 138.138041 
L 318.186753 137.536673 
L 318.431406 138.330845 
L 318.676059 138.043809 
L 318.920712 138.737116 
L 319.165365 138.364457 
L 319.410018 138.691896 
L 319.654671 138.60349 
L 319.899324 138.198372 
L 320.143977 138.475646 
L 320.38863 138.285481 
L 320.633283 138.273844 
L 320.877936 137.624186 
L 321.367242 138.271479 
L 321.611895 138.388451 
L 321.856548 138.29481 
L 322.101201 138.465682 
L 322.345854 138.90134 
L 323.324466 138.653958 
L 323.569119 138.952327 
L 324.058425 138.850324 
L 324.303078 139.354763 
L 324.547731 139.307164 
L 325.037037 139.551705 
L 325.28169 139.385116 
L 326.015649 139.426068 
L 326.504955 139.007136 
L 326.994261 139.771791 
L 327.483567 139.402376 
L 328.217526 140.387578 
L 329.196139 139.927306 
L 329.440792 140.106339 
L 329.685445 140.581377 
L 329.930098 140.383468 
L 330.174751 140.367564 
L 330.419404 140.051545 
L 330.90871 139.860168 
L 331.153363 140.035395 
L 331.398016 139.714343 
L 331.887322 139.893838 
L 332.376628 139.553666 
L 332.621281 139.500213 
L 333.110587 139.772973 
L 333.35524 139.910839 
L 333.599893 139.526211 
L 333.844546 139.482419 
L 334.089199 139.113221 
L 334.333852 139.212471 
L 334.578505 138.956091 
L 334.823158 139.148448 
L 335.067811 138.847469 
L 335.557117 139.296046 
L 335.80177 139.142377 
L 336.046423 139.259767 
L 336.291076 138.98183 
L 336.535729 139.330596 
L 336.780382 139.471547 
L 337.025035 139.244871 
L 337.269688 139.333754 
L 337.514341 139.187611 
L 337.758994 139.214115 
L 338.003647 139.467077 
L 338.2483 138.970453 
L 338.492953 138.880186 
L 338.737606 138.454348 
L 338.982259 138.632156 
L 339.226912 138.501039 
L 339.960871 138.90829 
L 340.205524 139.142723 
L 340.450177 139.041974 
L 340.69483 139.125593 
L 340.939483 138.905421 
L 341.184136 139.203574 
L 341.428789 138.856351 
L 341.673442 139.058455 
L 341.918095 139.104627 
L 342.162748 139.012169 
L 342.407401 139.065853 
L 342.652054 138.985204 
L 342.896707 139.138513 
L 343.386013 139.035269 
L 344.364625 138.514247 
L 344.609278 138.719726 
L 344.853931 138.732602 
L 345.098584 138.52336 
L 345.343237 138.739769 
L 346.566502 138.748954 
L 346.811155 139.349413 
L 347.055808 140.262027 
L 347.300461 139.911113 
L 347.789767 140.115091 
L 348.03442 140.124911 
L 348.279073 139.799289 
L 348.523726 140.066252 
L 348.768379 139.811474 
L 349.746991 139.553738 
L 349.991644 139.366212 
L 350.236297 139.453032 
L 350.48095 138.907295 
L 350.725603 138.833251 
L 350.970256 139.157273 
L 351.21491 139.153538 
L 351.459563 139.491028 
L 351.704216 139.275268 
L 352.193522 139.441583 
L 352.438175 139.41136 
L 352.682828 139.508432 
L 353.416787 139.0571 
L 353.66144 139.113091 
L 353.906093 139.308404 
L 354.150746 139.130899 
L 354.884705 139.139753 
L 355.129358 138.919249 
L 355.618664 139.07599 
L 355.863317 138.973726 
L 356.10797 139.04369 
L 356.352623 138.668839 
L 356.597276 138.946358 
L 356.841929 138.771304 
L 357.086582 138.226029 
L 357.331235 138.72186 
L 357.575888 138.17507 
L 357.820541 138.998571 
L 358.065194 138.96643 
L 358.309847 138.820807 
L 358.799153 139.149601 
L 359.043806 138.994923 
L 359.288459 139.054447 
L 359.533112 138.777519 
L 359.777765 138.902825 
L 360.022418 138.711968 
L 360.267071 138.987771 
L 360.756377 138.581961 
L 361.00103 139.150524 
L 361.490336 138.9047 
L 361.734989 138.540938 
L 362.224295 139.314489 
L 362.468948 138.712992 
L 362.713601 138.982479 
L 362.958254 138.845897 
L 363.202907 139.140099 
L 363.44756 138.8555 
L 363.692213 138.802653 
L 363.936866 138.5969 
L 364.670825 139.303761 
L 364.915478 139.236378 
L 365.160131 139.317979 
L 365.649437 139.994818 
L 365.89409 139.577819 
L 366.138743 139.962216 
L 366.383396 139.744624 
L 366.628049 140.186137 
L 366.872702 139.583832 
L 367.117355 139.656564 
L 367.362008 139.909498 
L 367.851314 139.826773 
L 368.095967 139.541597 
L 368.34062 139.492686 
L 368.585273 139.755987 
L 368.829926 139.122565 
L 369.074579 138.984771 
L 369.319232 139.155369 
L 369.563885 139.093899 
L 369.808538 138.789055 
L 370.053191 138.70992 
L 370.297844 138.492776 
L 370.78715 138.480851 
L 372.010415 138.246793 
L 372.255068 137.974451 
L 372.499721 138.340088 
L 372.744374 138.07634 
L 372.989027 138.532675 
L 373.478333 137.526998 
L 373.722987 139.128289 
L 373.96764 139.396464 
L 374.212293 138.562437 
L 374.701599 139.460501 
L 375.190905 138.94519 
L 375.680211 139.51642 
L 376.169517 138.431061 
L 376.41417 138.874678 
L 376.903476 138.968434 
L 377.148129 138.607368 
L 377.637435 138.512863 
L 377.882088 138.688104 
L 378.126741 138.410816 
L 378.371394 138.983012 
L 378.616047 138.648089 
L 379.350006 138.354983 
L 379.594659 139.197662 
L 379.839312 139.135888 
L 380.083965 138.214724 
L 380.328618 139.472167 
L 380.573271 138.324414 
L 381.062577 139.02134 
L 381.30723 138.677895 
L 381.551883 139.166934 
L 381.796536 138.58982 
L 382.041189 138.845363 
L 382.285842 138.507311 
L 382.530495 138.422265 
L 382.775148 137.961632 
L 383.264454 138.810785 
L 383.509107 138.211134 
L 383.998413 138.778716 
L 384.243066 137.809924 
L 384.487719 138.139353 
L 384.732372 138.016023 
L 384.977025 137.68469 
L 385.221678 137.715461 
L 385.710984 137.445253 
L 385.955637 137.868294 
L 386.444943 137.727444 
L 386.689596 137.302341 
L 386.934249 138.279381 
L 387.178902 137.988222 
L 387.423555 138.477218 
L 387.668208 138.230124 
L 387.912861 138.216973 
L 388.402167 138.564326 
L 388.64682 139.084598 
L 388.891473 141.043711 
L 389.136126 139.81789 
L 389.380779 139.311432 
L 389.625432 139.907594 
L 389.870085 140.814454 
L 389.870085 140.814454 
" style="fill:none;stroke:#1f77b4;stroke-linecap:square;stroke-width:1.5;"/>
   </g>
   <g id="line2d_28">
    <path clip-path="url(#p102cf86e33)" d="M 65.21554 149.312136 
L 65.460193 141.664703 
L 65.704846 125.390594 
L 65.949499 143.716453 
L 66.194152 124.970918 
L 66.438805 118.955559 
L 66.683458 131.639106 
L 66.928111 133.644225 
L 67.172764 139.612953 
L 67.417417 137.514572 
L 67.66207 139.333169 
L 68.151376 139.752845 
L 68.396029 121.473616 
L 69.129988 173.093786 
L 69.374641 140.871982 
L 69.619294 174.026399 
L 69.863947 135.136407 
L 70.1086 132.571719 
L 70.353253 120.727525 
L 70.597906 173.140416 
L 70.842559 143.156885 
L 71.087212 140.73209 
L 71.331865 123.75852 
L 71.576518 150.058227 
L 71.821171 134.343686 
L 72.065824 152.762807 
L 72.310477 140.07926 
L 72.55513 135.043146 
L 72.799783 150.757687 
L 73.289089 111.074973 
L 73.533742 148.845829 
L 73.778395 144.229391 
L 74.023048 128.048543 
L 74.267701 151.457147 
L 74.757007 128.421588 
L 75.00166 141.151766 
L 75.246313 139.612953 
L 75.490966 126.882776 
L 75.735619 127.349083 
L 75.980272 157.285983 
L 76.224925 140.07926 
L 76.469578 139.333169 
L 76.714231 132.804873 
L 76.958884 133.411072 
L 77.203537 137.654464 
L 77.44819 174.446076 
L 77.692843 130.426708 
L 77.937496 133.830748 
L 78.182149 127.908651 
L 78.426802 125.950162 
L 78.671455 139.985999 
L 78.916108 131.359322 
L 79.160761 145.861465 
L 79.405414 141.804595 
L 79.650067 131.872259 
L 79.89472 132.105413 
L 80.139373 142.737209 
L 80.384026 137.980879 
L 80.628679 138.866862 
L 80.873332 171.228558 
L 81.117985 138.214032 
L 81.362638 145.581681 
L 81.607292 144.089499 
L 81.851945 128.095174 
L 82.096598 144.742329 
L 82.585904 137.934248 
L 82.830557 134.017271 
L 83.07521 166.052552 
L 83.319863 161.529376 
L 83.564516 136.861743 
L 83.809169 143.436669 
L 84.053822 139.286538 
L 84.298475 130.473339 
L 84.543128 141.851226 
L 84.787781 124.178196 
L 85.032434 141.664703 
L 85.277087 142.410794 
L 85.766393 123.198952 
L 86.011046 150.617795 
L 86.255699 139.985999 
L 86.500352 164.467109 
L 86.989658 133.877379 
L 87.234311 136.488697 
L 87.478964 126.929406 
L 87.723617 127.115929 
L 87.96827 128.794634 
L 88.212923 141.991118 
L 88.457576 128.048543 
L 88.702229 143.390039 
L 88.946882 127.395713 
L 89.191535 128.608111 
L 89.436188 141.524811 
L 89.680841 143.390039 
L 89.925494 147.073863 
L 90.170147 116.250979 
L 90.4148 147.493539 
L 90.904106 132.058782 
L 91.148759 120.214588 
L 91.393412 134.063901 
L 91.638065 139.612953 
L 91.882718 149.078982 
L 92.127371 143.669823 
L 92.616677 109.069854 
L 93.105983 139.612953 
L 93.595289 146.141249 
L 93.839942 145.068743 
L 94.084595 131.499214 
L 94.329248 142.410794 
L 95.063207 137.654464 
L 95.30786 122.312968 
L 95.552513 147.120494 
L 95.797166 140.265783 
L 96.041819 141.245027 
L 96.286472 136.628589 
L 96.531125 144.649067 
L 96.775778 188.575174 
L 97.020431 128.748003 
L 97.265084 147.866585 
L 97.509737 135.32293 
L 97.75439 140.359044 
L 97.999043 141.991118 
L 98.243696 136.302174 
L 98.488349 141.478181 
L 98.733002 142.084379 
L 99.222308 155.467386 
L 99.466961 136.581958 
L 99.711614 136.162282 
L 99.956267 143.529931 
L 100.20092 130.053662 
L 100.445573 139.846106 
L 100.690226 131.499214 
L 100.934879 129.680617 
L 101.179532 148.799198 
L 101.424185 132.898134 
L 101.668838 144.788959 
L 101.913491 135.789237 
L 102.158144 143.669823 
L 102.402797 137.094896 
L 102.64745 145.908096 
L 102.892103 138.540447 
L 103.136756 144.229391 
L 103.381409 143.902976 
L 103.626062 137.654464 
L 103.870715 142.410794 
L 104.115369 129.400833 
L 104.360022 138.913493 
L 104.604675 135.416191 
L 104.849328 143.4833 
L 105.338634 128.468219 
L 105.583287 140.07926 
L 105.82794 141.105135 
L 106.072593 133.084657 
L 106.317246 148.146369 
L 106.561899 141.804595 
L 106.806552 145.395158 
L 107.051205 135.835867 
L 107.295858 134.343686 
L 107.540511 113.826184 
L 107.785164 144.18276 
L 108.029817 129.400833 
L 108.27447 147.633431 
L 108.519123 130.053662 
L 108.763776 145.908096 
L 109.008429 148.053107 
L 109.253082 138.260663 
L 109.497735 141.664703 
L 109.742388 127.86202 
L 109.987041 136.955004 
L 110.231694 118.256099 
L 110.476347 172.207803 
L 110.721 135.882498 
L 110.965653 136.395436 
L 111.210306 142.690578 
L 111.454959 137.421311 
L 111.699612 140.359044 
L 111.944265 123.432105 
L 112.188918 130.380077 
L 112.433571 121.240463 
L 112.678224 131.825628 
L 112.922877 132.478458 
L 113.16753 148.845829 
L 113.412183 139.473061 
L 113.656836 134.763362 
L 113.901489 142.084379 
L 114.390795 111.168234 
L 114.635448 144.882221 
L 114.880101 156.213477 
L 115.369407 126.136685 
L 115.858713 141.478181 
L 116.103366 132.385197 
L 116.348019 143.343408 
L 116.592672 139.42643 
L 116.837325 139.42643 
L 117.081978 143.250147 
L 117.326631 119.70165 
L 117.571284 120.447741 
L 118.06059 154.674665 
L 118.305243 147.027232 
L 118.549896 128.048543 
L 118.794549 145.814834 
L 119.039202 143.856346 
L 119.283855 140.219152 
L 119.528508 146.234511 
L 119.773161 144.229391 
L 120.017814 137.234788 
L 120.262467 154.488142 
L 120.50712 132.478458 
L 120.751773 125.81027 
L 120.996426 135.882498 
L 121.241079 136.162282 
L 121.485732 147.866585 
L 121.730385 148.286261 
L 121.975038 143.156885 
L 122.219691 127.349083 
L 122.464344 142.83047 
L 122.708997 127.86202 
L 122.95365 134.62347 
L 123.198303 121.05394 
L 123.442956 139.146646 
L 123.687609 115.971195 
L 123.932262 118.955559 
L 124.176915 124.831026 
L 124.421568 125.623747 
L 124.666221 138.633709 
L 124.910874 143.063624 
L 125.155527 138.866862 
L 125.40018 121.613508 
L 125.644833 79.879044 
L 125.889486 130.100293 
L 126.134139 129.820509 
L 126.378792 127.069298 
L 126.623446 135.183038 
L 127.112752 115.831303 
L 127.357405 165.166569 
L 127.602058 134.949884 
L 127.846711 134.483578 
L 128.091364 136.162282 
L 128.336017 126.649622 
L 128.58067 144.882221 
L 128.825323 115.691411 
L 129.069976 152.156608 
L 129.314629 154.814557 
L 129.559282 139.3798 
L 129.803935 136.348805 
L 130.048588 138.307294 
L 130.293241 133.27118 
L 130.537894 121.520247 
L 130.782547 142.270902 
L 131.0272 136.302174 
L 131.271853 156.260108 
L 131.516506 120.074696 
L 131.761159 134.436947 
L 132.005812 157.798921 
L 132.250465 135.089777 
L 132.495118 145.908096 
L 132.739771 145.068743 
L 132.984424 125.577117 
L 133.229077 133.830748 
L 133.718383 106.78495 
L 133.963036 151.177363 
L 134.207689 146.747448 
L 134.696995 132.385197 
L 134.941648 129.260941 
L 135.186301 128.748003 
L 135.430954 144.83559 
L 135.675607 124.038304 
L 135.92026 134.017271 
L 136.164913 135.509453 
L 136.409566 121.287093 
L 136.654219 140.125891 
L 137.143525 121.939923 
L 137.388178 132.012151 
L 137.632831 151.410517 
L 137.877484 129.121049 
L 138.122137 144.882221 
L 138.36679 179.062514 
L 138.856096 107.204626 
L 139.345402 147.120494 
L 139.590055 144.882221 
L 139.834708 144.13613 
L 140.079361 121.147201 
L 140.324014 81.744271 
L 140.568667 159.990563 
L 140.81332 150.384642 
L 141.057973 154.394881 
L 141.302626 108.8367 
L 141.547279 147.307016 
L 141.791932 162.50862 
L 142.036585 113.406507 
L 142.281238 112.334002 
L 142.525891 157.332614 
L 142.770544 141.524811 
L 143.015197 156.912938 
L 143.25985 150.011596 
L 143.504503 153.788682 
L 143.749156 150.850948 
L 143.993809 120.634264 
L 144.238462 135.695975 
L 144.483115 143.529931 
L 144.972421 110.049098 
L 145.461727 135.556083 
L 145.70638 136.908373 
L 145.951033 158.40512 
L 146.195686 139.752845 
L 146.440339 139.519692 
L 146.684992 144.742329 
L 146.929645 108.370393 
L 147.174298 138.260663 
L 147.418951 121.380355 
L 147.663604 128.328327 
L 147.908257 145.581681 
L 148.15291 132.431827 
L 148.397563 142.270902 
L 148.886869 123.198952 
L 149.131523 100.629699 
L 149.376176 169.270069 
L 149.620829 146.18788 
L 149.865482 139.286538 
L 150.110135 148.472783 
L 150.354788 141.245027 
L 150.599441 123.338844 
L 150.844094 143.203516 
L 151.088747 124.224827 
L 151.578053 155.420756 
L 151.822706 144.13613 
L 152.067359 107.810825 
L 152.312012 137.048265 
L 152.556665 119.934803 
L 152.801318 128.235066 
L 153.045971 160.037194 
L 153.290624 131.778998 
L 153.77993 124.224827 
L 154.024583 167.311581 
L 154.269236 118.769036 
L 154.513889 178.456315 
L 154.758542 129.354202 
L 155.003195 149.125613 
L 155.247848 126.416469 
L 155.492501 151.410517 
L 155.737154 126.136685 
L 155.981807 130.007032 
L 156.22646 188.668435 
L 156.471113 148.379522 
L 156.715766 150.617795 
L 156.960419 112.147479 
L 157.205072 166.705382 
L 157.449725 125.437224 
L 157.694378 158.171966 
L 157.939031 165.959291 
L 158.183684 113.359877 
L 158.428337 155.420756 
L 158.67299 124.318088 
L 158.917643 109.676053 
L 159.162296 123.618628 
L 159.651602 134.530208 
L 159.896255 124.131565 
L 160.140908 150.011596 
L 160.385561 108.650177 
L 160.630214 139.006754 
L 160.874867 136.628589 
L 161.11952 143.856346 
L 161.364173 138.680339 
L 161.608826 149.172244 
L 162.098132 110.002467 
L 162.342785 175.332059 
L 162.832091 125.623747 
L 163.076744 128.048543 
L 163.321397 91.117039 
L 163.56605 150.198119 
L 163.810703 149.638551 
L 164.055356 166.332336 
L 164.300009 134.903254 
L 164.544662 175.798366 
L 164.789315 163.721018 
L 165.033968 133.084657 
L 165.278621 126.742884 
L 165.523274 154.441511 
L 165.767927 152.529653 
L 166.01258 134.203793 
L 166.257233 142.410794 
L 166.501886 144.276022 
L 166.746539 156.4 
L 166.991192 143.296777 
L 167.235845 139.659584 
L 167.480498 130.5666 
L 167.725151 105.852336 
L 168.45911 175.844996 
L 168.703763 165.306461 
L 168.948416 103.334279 
L 169.193069 106.738319 
L 169.437722 169.363331 
L 169.927028 119.375235 
L 170.171681 130.053662 
L 170.416334 129.86714 
L 170.660987 144.742329 
L 170.90564 117.976315 
L 171.150293 124.551241 
L 171.394947 155.187602 
L 171.884253 123.292213 
L 172.128906 193.937702 
L 172.373559 118.395991 
L 172.618212 144.13613 
L 172.862865 115.504888 
L 173.107518 132.385197 
L 173.596824 146.933971 
L 173.841477 168.663871 
L 174.330783 126.556361 
L 174.575436 105.292768 
L 174.820089 155.653909 
L 175.064742 138.493817 
L 175.309395 141.011874 
L 175.554048 140.965243 
L 175.798701 124.644503 
L 176.043354 134.483578 
L 176.288007 112.19411 
L 176.53266 140.125891 
L 176.777313 118.955559 
L 177.021966 130.193554 
L 177.266619 152.762807 
L 177.511272 131.872259 
L 177.755925 145.954726 
L 178.000578 131.359322 
L 178.245231 154.767926 
L 178.97919 110.468774 
L 179.223843 141.571442 
L 179.468496 116.857178 
L 179.713149 136.348805 
L 179.957802 140.545567 
L 180.202455 128.421588 
L 180.447108 143.529931 
L 180.691761 131.825628 
L 180.936414 145.255266 
L 181.181067 148.752568 
L 181.670373 123.898412 
L 181.915026 121.05394 
L 182.159679 122.825906 
L 182.404332 141.571442 
L 182.648985 132.245305 
L 182.893638 129.447463 
L 183.138291 117.230224 
L 183.382944 144.229391 
L 183.627597 132.291935 
L 184.116903 164.653632 
L 184.361556 125.763639 
L 184.606209 145.628312 
L 184.850862 125.11081 
L 185.095515 126.789514 
L 185.340168 131.778998 
L 185.829474 149.778443 
L 186.074127 118.209468 
L 186.31878 107.531041 
L 186.563433 134.763362 
L 186.808086 130.193554 
L 187.052739 118.722406 
L 187.297392 34.414125 
L 187.542045 141.338288 
L 187.786698 165.119938 
L 188.031351 142.13101 
L 188.276004 152.436392 
L 188.520657 155.187602 
L 188.76531 107.670933 
L 189.009963 153.602159 
L 189.254616 140.07926 
L 189.499269 145.674942 
L 189.743922 130.706492 
L 189.988575 124.597872 
L 190.233228 146.560925 
L 190.477881 126.742884 
L 190.967187 141.478181 
L 191.21184 136.255544 
L 191.456493 142.877101 
L 191.701146 134.297055 
L 191.945799 148.23963 
L 192.190452 150.431272 
L 192.435105 125.903531 
L 192.679758 141.43155 
L 192.924411 140.965243 
L 193.169064 145.768204 
L 193.413717 134.763362 
L 193.65837 90.137795 
L 194.147677 153.229113 
L 194.39233 126.416469 
L 194.881636 157.798921 
L 195.126289 140.638828 
L 195.370942 141.151766 
L 195.615595 147.680062 
L 195.860248 171.788127 
L 196.104901 115.504888 
L 196.349554 121.70677 
L 196.594207 94.381187 
L 196.83886 154.488142 
L 197.083513 185.031241 
L 197.572819 104.593308 
L 197.817472 158.684904 
L 198.062125 131.21943 
L 198.306778 131.312691 
L 198.796084 166.985166 
L 199.040737 125.15744 
L 199.530043 134.576839 
L 199.774696 145.395158 
L 200.019349 129.167679 
L 200.508655 183.072753 
L 200.753308 155.187602 
L 200.997961 140.918612 
L 201.242614 107.018103 
L 201.487267 112.473894 
L 201.73192 135.695975 
L 201.976573 115.271735 
L 202.221226 111.354757 
L 202.465879 152.483022 
L 202.710532 148.472783 
L 202.955185 112.334002 
L 203.199838 150.338011 
L 203.444491 95.92 
L 203.689144 158.638273 
L 203.933797 79.972305 
L 204.17845 129.86714 
L 204.423103 148.472783 
L 204.667756 112.800309 
L 204.912409 157.938813 
L 205.157062 141.804595 
L 205.401715 139.752845 
L 205.646368 86.593863 
L 205.891021 125.204071 
L 206.135674 140.498936 
L 206.380327 164.793524 
L 206.62498 111.914325 
L 206.869633 163.954171 
L 207.114286 144.602436 
L 207.358939 148.93909 
L 207.603592 147.54017 
L 207.848245 105.852336 
L 208.092898 144.555806 
L 208.582204 130.193554 
L 208.826857 142.364164 
L 209.07151 177.710224 
L 209.316163 146.794079 
L 209.560816 154.161727 
L 210.050122 129.167679 
L 210.294775 161.622637 
L 210.539428 127.675497 
L 210.784081 160.363608 
L 211.028734 118.908928 
L 211.51804 154.441511 
L 211.762693 165.353092 
L 212.007346 119.934803 
L 212.251999 100.629699 
L 212.496652 127.115929 
L 212.985958 144.788959 
L 213.230611 148.23963 
L 213.475264 119.888173 
L 213.719917 159.850671 
L 213.96457 139.006754 
L 214.209223 147.5868 
L 214.453876 160.876546 
L 214.698529 153.462267 
L 215.187835 118.629144 
L 215.432488 115.411627 
L 215.677141 148.845829 
L 215.921794 166.099183 
L 216.166447 144.089499 
L 216.411101 151.037471 
L 216.655754 142.037749 
L 216.900407 118.395991 
L 217.14506 137.281419 
L 217.389713 101.142637 
L 217.634366 130.613231 
L 217.879019 122.033184 
L 218.123672 156.073585 
L 218.368325 147.073863 
L 218.612978 171.741496 
L 218.857631 137.701095 
L 219.102284 149.59192 
L 219.346937 139.612953 
L 219.59159 140.07926 
L 219.836243 137.701095 
L 220.080896 140.125891 
L 220.325549 161.482745 
L 220.570202 122.919167 
L 220.814855 117.510008 
L 221.059508 160.316978 
L 221.304161 183.072753 
L 221.548814 104.919723 
L 221.793467 153.555528 
L 222.527426 126.929406 
L 222.772079 152.99596 
L 223.016732 130.473339 
L 223.261385 159.197841 
L 223.506038 127.115929 
L 223.750691 148.006477 
L 223.995344 132.058782 
L 224.239997 132.012151 
L 224.48465 131.778998 
L 224.729303 107.577672 
L 224.973956 142.364164 
L 225.218609 145.954726 
L 225.463262 143.809715 
L 225.707915 166.099183 
L 225.952568 142.690578 
L 226.197221 133.177918 
L 226.441874 134.063901 
L 226.686527 147.5868 
L 226.93118 102.215143 
L 227.420486 146.840709 
L 227.665139 119.00219 
L 227.909792 152.902699 
L 228.154445 165.399723 
L 228.888404 123.10569 
L 229.133057 148.053107 
L 229.37771 125.623747 
L 229.622363 150.011596 
L 229.867016 160.969807 
L 230.111669 136.815112 
L 230.356322 96.246415 
L 230.600975 111.821064 
L 230.845628 155.234233 
L 231.090281 135.229669 
L 231.579587 152.716176 
L 231.82424 156.120216 
L 232.313546 119.468497 
L 232.558199 133.504333 
L 232.802852 135.602714 
L 233.047505 143.156885 
L 233.292158 116.530763 
L 233.536811 121.473616 
L 233.781464 143.996238 
L 234.026117 138.960123 
L 234.27077 225.366785 
L 234.515423 127.86202 
L 234.760076 132.338566 
L 235.004729 179.855235 
L 235.249382 159.943932 
L 235.494035 121.380355 
L 235.983341 150.664426 
L 236.227994 142.13101 
L 236.472647 141.757965 
L 236.961953 125.437224 
L 237.206606 145.814834 
L 237.451259 129.587356 
L 237.695912 127.022668 
L 237.940565 116.530763 
L 238.185218 120.960679 
L 238.429871 154.907818 
L 238.674524 132.198674 
L 239.163831 151.457147 
L 239.408484 118.675775 
L 239.653137 129.680617 
L 239.89779 135.649345 
L 240.142443 136.02239 
L 240.387096 130.753123 
L 240.631749 150.850948 
L 241.121055 128.421588 
L 241.365708 128.095174 
L 241.610361 134.203793 
L 241.855014 146.794079 
L 242.099667 141.478181 
L 242.34432 117.043701 
L 242.588973 132.525089 
L 243.078279 143.809715 
L 243.322932 127.16256 
L 243.567585 145.814834 
L 244.056891 157.612398 
L 244.79085 139.799476 
L 245.035503 145.908096 
L 245.280156 175.378689 
L 245.524809 145.022113 
L 245.769462 151.876824 
L 246.014115 124.131565 
L 246.258768 137.234788 
L 246.503421 112.334002 
L 246.748074 147.353647 
L 246.992727 159.990563 
L 247.482033 99.184148 
L 247.726686 132.61835 
L 247.971339 125.064179 
L 248.215992 122.499491 
L 248.460645 129.260941 
L 248.705298 144.509175 
L 248.949951 178.036638 
L 249.194604 276.334125 
L 249.439257 128.841265 
L 249.68391 117.276854 
L 249.928563 146.514295 
L 250.173216 154.488142 
L 250.417869 132.571719 
L 250.662522 126.789514 
L 250.907175 130.053662 
L 251.151828 130.519969 
L 251.396481 134.483578 
L 251.641134 179.622082 
L 251.885787 171.275189 
L 252.13044 137.747726 
L 252.375093 122.452861 
L 252.619746 123.198952 
L 252.864399 144.229391 
L 253.353705 163.674387 
L 253.598358 159.011319 
L 253.843011 193.238242 
L 254.57697 93.028898 
L 254.821623 137.747726 
L 255.066276 160.829915 
L 255.310929 155.234233 
L 255.555582 116.717286 
L 256.044888 152.436392 
L 256.289541 127.908651 
L 256.534194 129.074418 
L 256.778847 153.742051 
L 257.0235 150.757687 
L 257.268153 150.94421 
L 257.512806 137.467941 
L 257.757459 96.339676 
L 258.002112 153.415636 
L 258.246765 159.011319 
L 258.491418 146.141249 
L 258.736071 160.083824 
L 258.980724 155.560648 
L 259.225377 137.048265 
L 259.47003 129.91377 
L 259.714683 144.042868 
L 259.959336 121.193832 
L 260.203989 134.6701 
L 260.448642 137.514572 
L 260.693295 86.873647 
L 260.937948 132.898134 
L 261.182601 137.234788 
L 261.427255 161.529376 
L 261.671908 154.441511 
L 261.916561 124.271457 
L 262.161214 138.773601 
L 262.405867 126.742884 
L 262.65052 144.975482 
L 262.895173 113.732922 
L 263.139826 134.530208 
L 263.384479 120.914048 
L 263.629132 144.928851 
L 263.873785 154.767926 
L 264.118438 120.028065 
L 264.363091 118.955559 
L 264.607744 97.785228 
L 264.852397 102.541558 
L 265.09705 144.229391 
L 265.341703 154.628034 
L 265.586356 51.900632 
L 266.075662 150.617795 
L 266.320315 112.800309 
L 266.564968 133.457702 
L 266.809621 131.592475 
L 267.054274 167.404842 
L 267.298927 124.178196 
L 267.54358 126.416469 
L 268.032886 157.612398 
L 268.277539 115.831303 
L 268.522192 146.88734 
L 268.766845 101.235898 
L 269.256151 143.250147 
L 269.500804 134.483578 
L 269.745457 148.006477 
L 269.99011 154.534773 
L 270.479416 80.29872 
L 270.724069 156.073585 
L 270.968722 150.897579 
L 271.213375 156.166847 
L 271.458028 134.250424 
L 271.702681 136.955004 
L 271.947334 154.488142 
L 272.191987 159.337733 
L 272.43664 140.172521 
L 272.681293 167.591365 
L 273.170599 113.639661 
L 273.415252 137.094896 
L 273.904558 161.482745 
L 274.149211 112.334002 
L 274.393864 139.985999 
L 274.638517 140.405675 
L 274.88317 150.198119 
L 275.127823 143.343408 
L 275.372476 129.307571 
L 275.617129 149.964965 
L 275.861782 152.483022 
L 276.106435 161.436114 
L 276.351088 122.499491 
L 276.595741 146.281141 
L 276.840394 190.487032 
L 277.085047 152.203238 
L 277.3297 142.597317 
L 277.574353 126.229946 
L 277.819006 170.109422 
L 278.063659 109.209746 
L 278.308312 176.824241 
L 278.552965 128.235066 
L 278.797618 142.923732 
L 279.042271 116.763917 
L 279.286924 130.5666 
L 279.531577 155.00108 
L 279.77623 140.219152 
L 280.020883 179.155775 
L 280.510189 108.556916 
L 280.754842 148.192999 
L 280.999495 167.358211 
L 281.244148 146.18788 
L 281.488801 140.359044 
L 281.733454 171.881388 
L 281.978107 139.42643 
L 282.22276 158.45175 
L 282.467413 123.618628 
L 282.712066 150.058227 
L 282.956719 84.35559 
L 283.201372 115.738042 
L 283.446025 110.049098 
L 283.690678 151.270625 
L 283.935332 120.494372 
L 284.179985 118.489252 
L 284.424638 173.746615 
L 284.669291 130.007032 
L 284.913944 159.197841 
L 285.158597 65.423531 
L 285.40325 136.721851 
L 285.647903 141.198396 
L 285.892556 106.458535 
L 286.137209 153.275744 
L 286.381862 136.395436 
L 286.626515 132.245305 
L 287.115821 158.545012 
L 287.360474 120.867417 
L 287.605127 140.032629 
L 287.84978 105.898967 
L 288.094433 142.550686 
L 288.339086 146.467664 
L 288.583739 124.877656 
L 288.828392 136.255544 
L 289.073045 117.183593 
L 289.317698 141.804595 
L 289.562351 132.105413 
L 289.807004 159.337733 
L 290.051657 133.31781 
L 290.29631 136.628589 
L 290.540963 116.29761 
L 290.785616 137.840987 
L 291.030269 133.457702 
L 291.274922 140.638828 
L 291.519575 144.415914 
L 291.764228 162.182205 
L 292.008881 123.991673 
L 292.253534 158.078705 
L 292.498187 131.312691 
L 292.74284 132.991396 
L 292.987493 127.209191 
L 293.232146 107.391149 
L 293.721452 149.731812 
L 294.210758 130.706492 
L 294.455411 142.037749 
L 294.700064 142.410794 
L 295.18937 150.757687 
L 295.434023 137.094896 
L 295.678676 139.473061 
L 295.923329 147.073863 
L 296.167982 99.463932 
L 296.412635 209.838766 
L 296.901941 124.45798 
L 297.146594 147.680062 
L 297.391247 144.042868 
L 297.6359 158.824796 
L 297.880553 153.369005 
L 298.125206 152.809437 
L 298.369859 146.327772 
L 298.614512 145.208635 
L 298.859165 99.790347 
L 299.348471 145.48842 
L 299.593124 142.457425 
L 299.837777 130.893015 
L 300.08243 139.3798 
L 300.327083 109.442899 
L 300.571736 134.343686 
L 300.816389 133.597595 
L 301.061042 103.847217 
L 301.305695 168.244194 
L 301.550348 147.446908 
L 301.795001 142.224271 
L 302.039654 146.933971 
L 302.284307 133.97064 
L 302.52896 155.607278 
L 302.773613 148.099738 
L 303.018266 136.768481 
L 303.262919 160.037194 
L 303.507572 141.478181 
L 303.752225 150.711056 
L 303.996878 137.188157 
L 304.241531 117.136962 
L 304.486184 151.317255 
L 304.730837 120.121326 
L 304.97549 155.467386 
L 305.464796 130.146924 
L 305.709449 160.45687 
L 305.954102 148.332891 
L 306.198756 121.800031 
L 306.443409 119.421866 
L 306.688062 134.62347 
L 306.932715 137.887618 
L 307.177368 153.555528 
L 307.666674 129.400833 
L 307.911327 154.954449 
L 308.15598 104.360154 
L 308.400633 147.633431 
L 308.889939 134.856623 
L 309.134592 147.913215 
L 309.379245 128.51485 
L 309.623898 154.861187 
L 309.868551 140.592197 
L 310.113204 134.576839 
L 310.357857 140.498936 
L 310.60251 141.011874 
L 310.847163 120.447741 
L 311.336469 137.467941 
L 311.581122 166.192444 
L 311.825775 121.147201 
L 312.070428 149.638551 
L 312.315081 131.126168 
L 312.559734 136.581958 
L 312.804387 115.59815 
L 313.04904 142.410794 
L 313.293693 142.317533 
L 313.538346 137.654464 
L 313.782999 128.328327 
L 314.027652 136.861743 
L 314.272305 114.898689 
L 314.516958 136.442066 
L 314.761611 140.73209 
L 315.006264 125.623747 
L 315.250917 128.141804 
L 315.49557 155.234233 
L 315.740223 139.752845 
L 315.984876 147.400278 
L 316.229529 131.732367 
L 316.718835 137.234788 
L 316.963488 129.680617 
L 317.208141 158.498381 
L 317.452794 112.520524 
L 317.697447 132.338566 
L 317.9421 85.474726 
L 318.186753 137.654464 
L 318.431406 145.768204 
L 318.676059 163.254711 
L 318.920712 128.608111 
L 319.165365 148.472783 
L 319.410018 136.768481 
L 319.654671 117.929684 
L 319.899324 145.022113 
L 320.143977 139.333169 
L 320.38863 130.473339 
L 320.633283 93.028898 
L 320.877936 140.77872 
L 321.122589 155.467386 
L 321.367242 151.410517 
L 321.611895 128.887895 
L 321.856548 152.483022 
L 322.101201 163.767649 
L 322.345854 138.820231 
L 322.590507 131.21943 
L 323.079813 137.934248 
L 323.324466 150.151488 
L 323.569119 146.094618 
L 323.813772 130.193554 
L 324.058425 158.824796 
L 324.303078 145.674942 
L 324.547731 141.804595 
L 324.792384 133.877379 
L 325.037037 139.752845 
L 325.28169 135.742606 
L 325.526343 135.509453 
L 325.770996 142.877101 
L 326.260302 118.955559 
L 326.504955 157.565767 
L 326.749608 156.073585 
L 326.994261 127.442344 
L 327.238914 117.136962 
L 327.483567 150.804318 
L 327.72822 153.788682 
L 327.972873 160.037194 
L 328.217526 139.053385 
L 328.462179 142.13101 
L 328.706833 120.074696 
L 328.951486 141.058504 
L 329.196139 148.612676 
L 329.440792 162.275467 
L 329.685445 140.498936 
L 329.930098 143.763084 
L 330.174751 125.437224 
L 330.419404 127.349083 
L 330.664057 140.545567 
L 330.90871 146.607556 
L 331.153363 131.965521 
L 331.398016 143.763084 
L 331.642669 141.991118 
L 332.131975 126.136685 
L 332.376628 127.908651 
L 332.621281 148.472783 
L 332.865934 156.120216 
L 333.110587 144.649067 
L 333.35524 125.717009 
L 333.599893 134.110532 
L 333.844546 118.675775 
L 334.089199 145.441789 
L 334.333852 123.75852 
L 334.578505 148.985721 
L 334.823158 124.178196 
L 335.067811 145.674942 
L 335.312464 156.959568 
L 335.557117 142.037749 
L 335.80177 143.856346 
L 336.046423 130.659861 
L 336.291076 144.415914 
L 336.535729 142.877101 
L 336.780382 134.6701 
L 337.025035 132.711612 
L 337.269688 134.483578 
L 337.514341 133.597595 
L 337.758994 147.819954 
L 338.003647 119.934803 
L 338.2483 121.007309 
L 338.492953 112.380632 
L 338.737606 143.156885 
L 339.226912 123.385474 
L 339.471565 142.690578 
L 339.716218 146.234511 
L 339.960871 143.156885 
L 340.205524 135.835867 
L 340.450177 140.032629 
L 340.69483 140.172521 
L 340.939483 150.431272 
L 341.184136 126.276577 
L 341.428789 137.701095 
L 341.673442 135.462822 
L 341.918095 145.814834 
L 342.162748 142.037749 
L 342.407401 135.183038 
L 342.652054 136.442066 
L 342.896707 143.902976 
L 343.14136 140.032629 
L 343.386013 129.820509 
L 343.630666 125.763639 
L 343.875319 136.395436 
L 344.119972 122.546122 
L 344.364625 138.07414 
L 344.609278 126.4631 
L 345.098584 145.255266 
L 345.343237 134.297055 
L 345.58789 131.732367 
L 345.832543 137.001635 
L 346.077196 135.97576 
L 346.321849 136.255544 
L 346.566502 144.462544 
L 346.811155 182.2334 
L 347.055808 148.332891 
L 347.300461 132.664981 
L 347.545114 132.478458 
L 347.789767 142.037749 
L 348.279073 140.359044 
L 348.523726 136.02239 
L 348.768379 137.467941 
L 349.013032 140.638828 
L 349.257685 140.77872 
L 349.502338 135.695975 
L 349.746991 139.985999 
L 349.991644 141.804595 
L 350.236297 116.95044 
L 350.48095 137.840987 
L 350.725603 140.359044 
L 350.970256 160.130455 
L 351.459563 137.840987 
L 351.704216 144.369283 
L 351.948869 134.949884 
L 352.193522 134.063901 
L 352.438175 134.017271 
L 352.682828 130.146924 
L 352.927481 137.328049 
L 353.172134 126.50973 
L 353.66144 148.705937 
L 353.906093 135.929129 
L 354.150746 142.457425 
L 354.395399 129.773878 
L 354.640052 143.716453 
L 354.884705 135.276299 
L 355.129358 142.737209 
L 355.374011 134.809992 
L 355.618664 132.664981 
L 355.863317 122.499491 
L 356.352623 140.685459 
L 356.597276 128.981157 
L 356.841929 105.619183 
L 357.086582 139.566322 
L 357.331235 132.525089 
L 357.575888 173.653354 
L 357.820541 138.866862 
L 358.065194 144.695698 
L 358.309847 143.856346 
L 358.5545 141.291658 
L 358.799153 131.91889 
L 359.043806 140.685459 
L 359.288459 112.380632 
L 359.533112 135.32293 
L 359.777765 123.945043 
L 360.022418 137.001635 
L 360.267071 141.291658 
L 360.511724 117.090332 
L 360.756377 159.477625 
L 361.00103 154.954449 
L 361.245683 108.556916 
L 361.734989 137.561203 
L 361.979642 143.529931 
L 362.224295 131.91889 
L 362.468948 145.348527 
L 362.713601 140.452305 
L 362.958254 155.70054 
L 363.202907 132.664981 
L 363.936866 145.348527 
L 364.181519 129.773878 
L 364.670825 159.897302 
L 364.915478 142.78384 
L 365.160131 142.13101 
L 365.404784 142.690578 
L 365.89409 149.498659 
L 366.138743 123.851781 
L 366.383396 133.784117 
L 366.628049 127.255821 
L 366.872702 141.991118 
L 367.117355 143.623192 
L 367.362008 136.581958 
L 367.606661 151.410517 
L 367.851314 126.882776 
L 368.095967 130.473339 
L 368.34062 141.664703 
L 368.585273 132.898134 
L 368.829926 120.074696 
L 369.074579 147.5868 
L 369.563885 130.939645 
L 369.808538 131.172799 
L 370.053191 127.115929 
L 370.297844 137.328049 
L 370.542497 130.473339 
L 370.78715 139.566322 
L 371.031803 132.105413 
L 371.276456 131.545844 
L 371.521109 136.162282 
L 371.765762 129.400833 
L 372.010415 112.567155 
L 372.255068 145.53505 
L 372.499721 118.862298 
L 372.744374 138.866862 
L 372.989027 49.475837 
L 373.478333 141.571442 
L 373.722987 155.04771 
L 373.96764 112.753678 
L 374.212293 144.322652 
L 374.456946 132.898134 
L 374.701599 127.395713 
L 374.946252 134.110532 
L 375.190905 174.119661 
L 375.435558 133.784117 
L 375.680211 137.141527 
L 375.924864 130.426708 
L 376.169517 134.297055 
L 376.41417 161.80916 
L 376.658823 139.752845 
L 377.148129 121.147201 
L 377.392782 143.296777 
L 377.882088 134.856623 
L 378.126741 164.000802 
L 378.371394 134.809992 
L 378.616047 123.198952 
L 378.8607 118.629144 
L 379.105353 116.670655 
L 379.350006 172.301064 
L 379.594659 130.286816 
L 379.839312 109.116484 
L 380.083965 156.493261 
L 380.328618 118.162837 
L 380.573271 118.955559 
L 380.817924 143.623192 
L 381.062577 133.784117 
L 381.30723 147.959846 
L 381.551883 120.074696 
L 381.796536 143.763084 
L 382.285842 133.597595 
L 382.530495 130.380077 
L 382.775148 166.425598 
L 383.019801 130.146924 
L 383.264454 121.147201 
L 383.509107 131.26606 
L 383.75376 108.183871 
L 383.998413 133.504333 
L 384.243066 145.861465 
L 384.487719 152.203238 
L 384.732372 132.012151 
L 384.977025 126.789514 
L 385.221678 116.95044 
L 385.466331 90.557471 
L 385.710984 147.819954 
L 385.955637 142.690578 
L 386.20029 122.452861 
L 386.444943 90.790625 
L 386.689596 149.731812 
L 386.934249 144.369283 
L 387.178902 158.824796 
L 387.423555 136.302174 
L 387.668208 132.338566 
L 387.912861 148.006477 
L 388.157514 142.550686 
L 388.402167 149.358766 
L 388.64682 237.164349 
L 389.136126 103.007864 
L 389.625432 153.64879 
L 389.870085 140.638828 
L 389.870085 140.638828 
" style="fill:none;stroke:#ff7f0e;stroke-linecap:square;stroke-width:1.5;"/>
   </g>
   <g id="patch_3">
    <path d="M 48.982813 288.430125 
L 48.982813 22.318125 
" style="fill:none;stroke:#000000;stroke-linecap:square;stroke-linejoin:miter;stroke-width:0.8;"/>
   </g>
   <g id="patch_4">
    <path d="M 406.102813 288.430125 
L 406.102813 22.318125 
" style="fill:none;stroke:#000000;stroke-linecap:square;stroke-linejoin:miter;stroke-width:0.8;"/>
   </g>
   <g id="patch_5">
    <path d="M 48.982813 288.430125 
L 406.102813 288.430125 
" style="fill:none;stroke:#000000;stroke-linecap:square;stroke-linejoin:miter;stroke-width:0.8;"/>
   </g>
   <g id="patch_6">
    <path d="M 48.982813 22.318125 
L 406.102813 22.318125 
" style="fill:none;stroke:#000000;stroke-linecap:square;stroke-linejoin:miter;stroke-width:0.8;"/>
   </g>
   <g id="text_16">
    <!-- Training: BIDU -->
    <defs>
     <path d="M -0.296875 72.90625 
L 61.375 72.90625 
L 61.375 64.59375 
L 35.5 64.59375 
L 35.5 0 
L 25.59375 0 
L 25.59375 64.59375 
L -0.296875 64.59375 
z
" id="DejaVuSans-84"/>
     <path d="M 41.109375 46.296875 
Q 39.59375 47.171875 37.8125 47.578125 
Q 36.03125 48 33.890625 48 
Q 26.265625 48 22.1875 43.046875 
Q 18.109375 38.09375 18.109375 28.8125 
L 18.109375 0 
L 9.078125 0 
L 9.078125 54.6875 
L 18.109375 54.6875 
L 18.109375 46.1875 
Q 20.953125 51.171875 25.484375 53.578125 
Q 30.03125 56 36.53125 56 
Q 37.453125 56 38.578125 55.875 
Q 39.703125 55.765625 41.0625 55.515625 
z
" id="DejaVuSans-114"/>
     <path d="M 9.421875 54.6875 
L 18.40625 54.6875 
L 18.40625 0 
L 9.421875 0 
z
M 9.421875 75.984375 
L 18.40625 75.984375 
L 18.40625 64.59375 
L 9.421875 64.59375 
z
" id="DejaVuSans-105"/>
     <path d="M 11.71875 12.40625 
L 22.015625 12.40625 
L 22.015625 0 
L 11.71875 0 
z
M 11.71875 51.703125 
L 22.015625 51.703125 
L 22.015625 39.3125 
L 11.71875 39.3125 
z
" id="DejaVuSans-58"/>
     <path d="M 19.671875 34.8125 
L 19.671875 8.109375 
L 35.5 8.109375 
Q 43.453125 8.109375 47.28125 11.40625 
Q 51.125 14.703125 51.125 21.484375 
Q 51.125 28.328125 47.28125 31.5625 
Q 43.453125 34.8125 35.5 34.8125 
z
M 19.671875 64.796875 
L 19.671875 42.828125 
L 34.28125 42.828125 
Q 41.5 42.828125 45.03125 45.53125 
Q 48.578125 48.25 48.578125 53.8125 
Q 48.578125 59.328125 45.03125 62.0625 
Q 41.5 64.796875 34.28125 64.796875 
z
M 9.8125 72.90625 
L 35.015625 72.90625 
Q 46.296875 72.90625 52.390625 68.21875 
Q 58.5 63.53125 58.5 54.890625 
Q 58.5 48.1875 55.375 44.234375 
Q 52.25 40.28125 46.1875 39.3125 
Q 53.46875 37.75 57.5 32.78125 
Q 61.53125 27.828125 61.53125 20.40625 
Q 61.53125 10.640625 54.890625 5.3125 
Q 48.25 0 35.984375 0 
L 9.8125 0 
z
" id="DejaVuSans-66"/>
     <path d="M 9.8125 72.90625 
L 19.671875 72.90625 
L 19.671875 0 
L 9.8125 0 
z
" id="DejaVuSans-73"/>
     <path d="M 8.6875 72.90625 
L 18.609375 72.90625 
L 18.609375 28.609375 
Q 18.609375 16.890625 22.84375 11.734375 
Q 27.09375 6.59375 36.625 6.59375 
Q 46.09375 6.59375 50.34375 11.734375 
Q 54.59375 16.890625 54.59375 28.609375 
L 54.59375 72.90625 
L 64.5 72.90625 
L 64.5 27.390625 
Q 64.5 13.140625 57.4375 5.859375 
Q 50.390625 -1.421875 36.625 -1.421875 
Q 22.796875 -1.421875 15.734375 5.859375 
Q 8.6875 13.140625 8.6875 27.390625 
z
" id="DejaVuSans-85"/>
    </defs>
    <g transform="translate(185.045938 16.318125)scale(0.12 -0.12)">
     <use xlink:href="#DejaVuSans-84"/>
     <use x="46.333984" xlink:href="#DejaVuSans-114"/>
     <use x="87.447266" xlink:href="#DejaVuSans-97"/>
     <use x="148.726562" xlink:href="#DejaVuSans-105"/>
     <use x="176.509766" xlink:href="#DejaVuSans-110"/>
     <use x="239.888672" xlink:href="#DejaVuSans-105"/>
     <use x="267.671875" xlink:href="#DejaVuSans-110"/>
     <use x="331.050781" xlink:href="#DejaVuSans-103"/>
     <use x="394.527344" xlink:href="#DejaVuSans-58"/>
     <use x="428.21875" xlink:href="#DejaVuSans-32"/>
     <use x="460.005859" xlink:href="#DejaVuSans-66"/>
     <use x="528.609375" xlink:href="#DejaVuSans-73"/>
     <use x="558.101562" xlink:href="#DejaVuSans-68"/>
     <use x="635.103516" xlink:href="#DejaVuSans-85"/>
    </g>
   </g>
   <g id="legend_1">
    <g id="patch_7">
     <path d="M 55.982813 59.674375 
L 139.710938 59.674375 
Q 141.710938 59.674375 141.710938 57.674375 
L 141.710938 29.318125 
Q 141.710938 27.318125 139.710938 27.318125 
L 55.982813 27.318125 
Q 53.982813 27.318125 53.982813 29.318125 
L 53.982813 57.674375 
Q 53.982813 59.674375 55.982813 59.674375 
z
" style="fill:#ffffff;opacity:0.8;stroke:#cccccc;stroke-linejoin:miter;"/>
    </g>
    <g id="line2d_29">
     <path d="M 57.982813 35.416562 
L 77.982813 35.416562 
" style="fill:none;stroke:#1f77b4;stroke-linecap:square;stroke-width:1.5;"/>
    </g>
    <g id="line2d_30"/>
    <g id="text_17">
     <!-- Predicted -->
     <defs>
      <path d="M 19.671875 64.796875 
L 19.671875 37.40625 
L 32.078125 37.40625 
Q 38.96875 37.40625 42.71875 40.96875 
Q 46.484375 44.53125 46.484375 51.125 
Q 46.484375 57.671875 42.71875 61.234375 
Q 38.96875 64.796875 32.078125 64.796875 
z
M 9.8125 72.90625 
L 32.078125 72.90625 
Q 44.34375 72.90625 50.609375 67.359375 
Q 56.890625 61.8125 56.890625 51.125 
Q 56.890625 40.328125 50.609375 34.8125 
Q 44.34375 29.296875 32.078125 29.296875 
L 19.671875 29.296875 
L 19.671875 0 
L 9.8125 0 
z
" id="DejaVuSans-80"/>
      <path d="M 45.40625 46.390625 
L 45.40625 75.984375 
L 54.390625 75.984375 
L 54.390625 0 
L 45.40625 0 
L 45.40625 8.203125 
Q 42.578125 3.328125 38.25 0.953125 
Q 33.9375 -1.421875 27.875 -1.421875 
Q 17.96875 -1.421875 11.734375 6.484375 
Q 5.515625 14.40625 5.515625 27.296875 
Q 5.515625 40.1875 11.734375 48.09375 
Q 17.96875 56 27.875 56 
Q 33.9375 56 38.25 53.625 
Q 42.578125 51.265625 45.40625 46.390625 
z
M 14.796875 27.296875 
Q 14.796875 17.390625 18.875 11.75 
Q 22.953125 6.109375 30.078125 6.109375 
Q 37.203125 6.109375 41.296875 11.75 
Q 45.40625 17.390625 45.40625 27.296875 
Q 45.40625 37.203125 41.296875 42.84375 
Q 37.203125 48.484375 30.078125 48.484375 
Q 22.953125 48.484375 18.875 42.84375 
Q 14.796875 37.203125 14.796875 27.296875 
z
" id="DejaVuSans-100"/>
      <path d="M 48.78125 52.59375 
L 48.78125 44.1875 
Q 44.96875 46.296875 41.140625 47.34375 
Q 37.3125 48.390625 33.40625 48.390625 
Q 24.65625 48.390625 19.8125 42.84375 
Q 14.984375 37.3125 14.984375 27.296875 
Q 14.984375 17.28125 19.8125 11.734375 
Q 24.65625 6.203125 33.40625 6.203125 
Q 37.3125 6.203125 41.140625 7.25 
Q 44.96875 8.296875 48.78125 10.40625 
L 48.78125 2.09375 
Q 45.015625 0.34375 40.984375 -0.53125 
Q 36.96875 -1.421875 32.421875 -1.421875 
Q 20.0625 -1.421875 12.78125 6.34375 
Q 5.515625 14.109375 5.515625 27.296875 
Q 5.515625 40.671875 12.859375 48.328125 
Q 20.21875 56 33.015625 56 
Q 37.15625 56 41.109375 55.140625 
Q 45.0625 54.296875 48.78125 52.59375 
z
" id="DejaVuSans-99"/>
      <path d="M 18.3125 70.21875 
L 18.3125 54.6875 
L 36.8125 54.6875 
L 36.8125 47.703125 
L 18.3125 47.703125 
L 18.3125 18.015625 
Q 18.3125 11.328125 20.140625 9.421875 
Q 21.96875 7.515625 27.59375 7.515625 
L 36.8125 7.515625 
L 36.8125 0 
L 27.59375 0 
Q 17.1875 0 13.234375 3.875 
Q 9.28125 7.765625 9.28125 18.015625 
L 9.28125 47.703125 
L 2.6875 47.703125 
L 2.6875 54.6875 
L 9.28125 54.6875 
L 9.28125 70.21875 
z
" id="DejaVuSans-116"/>
     </defs>
     <g transform="translate(85.982813 38.916562)scale(0.1 -0.1)">
      <use xlink:href="#DejaVuSans-80"/>
      <use x="58.552734" xlink:href="#DejaVuSans-114"/>
      <use x="97.416016" xlink:href="#DejaVuSans-101"/>
      <use x="158.939453" xlink:href="#DejaVuSans-100"/>
      <use x="222.416016" xlink:href="#DejaVuSans-105"/>
      <use x="250.199219" xlink:href="#DejaVuSans-99"/>
      <use x="305.179688" xlink:href="#DejaVuSans-116"/>
      <use x="344.388672" xlink:href="#DejaVuSans-101"/>
      <use x="405.912109" xlink:href="#DejaVuSans-100"/>
     </g>
    </g>
    <g id="line2d_31">
     <path d="M 57.982813 50.094687 
L 77.982813 50.094687 
" style="fill:none;stroke:#ff7f0e;stroke-linecap:square;stroke-width:1.5;"/>
    </g>
    <g id="line2d_32"/>
    <g id="text_18">
     <!-- True value -->
     <defs>
      <path d="M 8.5 21.578125 
L 8.5 54.6875 
L 17.484375 54.6875 
L 17.484375 21.921875 
Q 17.484375 14.15625 20.5 10.265625 
Q 23.53125 6.390625 29.59375 6.390625 
Q 36.859375 6.390625 41.078125 11.03125 
Q 45.3125 15.671875 45.3125 23.6875 
L 45.3125 54.6875 
L 54.296875 54.6875 
L 54.296875 0 
L 45.3125 0 
L 45.3125 8.40625 
Q 42.046875 3.421875 37.71875 1 
Q 33.40625 -1.421875 27.6875 -1.421875 
Q 18.265625 -1.421875 13.375 4.4375 
Q 8.5 10.296875 8.5 21.578125 
z
M 31.109375 56 
z
" id="DejaVuSans-117"/>
      <path d="M 2.984375 54.6875 
L 12.5 54.6875 
L 29.59375 8.796875 
L 46.6875 54.6875 
L 56.203125 54.6875 
L 35.6875 0 
L 23.484375 0 
z
" id="DejaVuSans-118"/>
      <path d="M 9.421875 75.984375 
L 18.40625 75.984375 
L 18.40625 0 
L 9.421875 0 
z
" id="DejaVuSans-108"/>
     </defs>
     <g transform="translate(85.982813 53.594687)scale(0.1 -0.1)">
      <use xlink:href="#DejaVuSans-84"/>
      <use x="46.333984" xlink:href="#DejaVuSans-114"/>
      <use x="87.447266" xlink:href="#DejaVuSans-117"/>
      <use x="150.826172" xlink:href="#DejaVuSans-101"/>
      <use x="212.349609" xlink:href="#DejaVuSans-32"/>
      <use x="244.136719" xlink:href="#DejaVuSans-118"/>
      <use x="303.316406" xlink:href="#DejaVuSans-97"/>
      <use x="364.595703" xlink:href="#DejaVuSans-108"/>
      <use x="392.378906" xlink:href="#DejaVuSans-117"/>
      <use x="455.757812" xlink:href="#DejaVuSans-101"/>
     </g>
    </g>
   </g>
  </g>
 </g>
 <defs>
  <clipPath id="p102cf86e33">
   <rect height="266.112" width="357.12" x="48.982813" y="22.318125"/>
  </clipPath>
 </defs>
</svg>
