<?xml version="1.0" encoding="utf-8" standalone="no"?>
<!DOCTYPE svg PUBLIC "-//W3C//DTD SVG 1.1//EN"
  "http://www.w3.org/Graphics/SVG/1.1/DTD/svg11.dtd">
<!-- Created with matplotlib (https://matplotlib.org/) -->
<svg height="325.986375pt" version="1.1" viewBox="0 0 406.940312 325.986375" width="406.940312pt" xmlns="http://www.w3.org/2000/svg" xmlns:xlink="http://www.w3.org/1999/xlink">
 <defs>
  <style type="text/css">
*{stroke-linecap:butt;stroke-linejoin:round;}
  </style>
 </defs>
 <g id="figure_1">
  <g id="patch_1">
   <path d="M 0 325.986375 
L 406.940312 325.986375 
L 406.940312 0 
L 0 0 
z
" style="fill:#ffffff;"/>
  </g>
  <g id="axes_1">
   <g id="patch_2">
    <path d="M 42.620313 288.430125 
L 399.740313 288.430125 
L 399.740313 22.318125 
L 42.620313 22.318125 
z
" style="fill:#ffffff;"/>
   </g>
   <g id="matplotlib.axis_1">
    <g id="xtick_1">
     <g id="line2d_1">
      <path clip-path="url(#p88570306c1)" d="M 58.85304 288.430125 
L 58.85304 22.318125 
" style="fill:none;stroke:#b0b0b0;stroke-dasharray:2.96,1.28;stroke-dashoffset:0;stroke-width:0.8;"/>
     </g>
     <g id="line2d_2">
      <defs>
       <path d="M 0 0 
L 0 3.5 
" id="ma0ed273091" style="stroke:#000000;stroke-width:0.8;"/>
      </defs>
      <g>
       <use style="stroke:#000000;stroke-width:0.8;" x="58.85304" xlink:href="#ma0ed273091" y="288.430125"/>
      </g>
     </g>
     <g id="text_1">
      <!-- 0 -->
      <defs>
       <path d="M 31.78125 66.40625 
Q 24.171875 66.40625 20.328125 58.90625 
Q 16.5 51.421875 16.5 36.375 
Q 16.5 21.390625 20.328125 13.890625 
Q 24.171875 6.390625 31.78125 6.390625 
Q 39.453125 6.390625 43.28125 13.890625 
Q 47.125 21.390625 47.125 36.375 
Q 47.125 51.421875 43.28125 58.90625 
Q 39.453125 66.40625 31.78125 66.40625 
z
M 31.78125 74.21875 
Q 44.046875 74.21875 50.515625 64.515625 
Q 56.984375 54.828125 56.984375 36.375 
Q 56.984375 17.96875 50.515625 8.265625 
Q 44.046875 -1.421875 31.78125 -1.421875 
Q 19.53125 -1.421875 13.0625 8.265625 
Q 6.59375 17.96875 6.59375 36.375 
Q 6.59375 54.828125 13.0625 64.515625 
Q 19.53125 74.21875 31.78125 74.21875 
z
" id="DejaVuSans-48"/>
      </defs>
      <g transform="translate(55.67179 303.028562)scale(0.1 -0.1)">
       <use xlink:href="#DejaVuSans-48"/>
      </g>
     </g>
    </g>
    <g id="xtick_2">
     <g id="line2d_3">
      <path clip-path="url(#p88570306c1)" d="M 107.783642 288.430125 
L 107.783642 22.318125 
" style="fill:none;stroke:#b0b0b0;stroke-dasharray:2.96,1.28;stroke-dashoffset:0;stroke-width:0.8;"/>
     </g>
     <g id="line2d_4">
      <g>
       <use style="stroke:#000000;stroke-width:0.8;" x="107.783642" xlink:href="#ma0ed273091" y="288.430125"/>
      </g>
     </g>
     <g id="text_2">
      <!-- 200 -->
      <defs>
       <path d="M 19.1875 8.296875 
L 53.609375 8.296875 
L 53.609375 0 
L 7.328125 0 
L 7.328125 8.296875 
Q 12.9375 14.109375 22.625 23.890625 
Q 32.328125 33.6875 34.8125 36.53125 
Q 39.546875 41.84375 41.421875 45.53125 
Q 43.3125 49.21875 43.3125 52.78125 
Q 43.3125 58.59375 39.234375 62.25 
Q 35.15625 65.921875 28.609375 65.921875 
Q 23.96875 65.921875 18.8125 64.3125 
Q 13.671875 62.703125 7.8125 59.421875 
L 7.8125 69.390625 
Q 13.765625 71.78125 18.9375 73 
Q 24.125 74.21875 28.421875 74.21875 
Q 39.75 74.21875 46.484375 68.546875 
Q 53.21875 62.890625 53.21875 53.421875 
Q 53.21875 48.921875 51.53125 44.890625 
Q 49.859375 40.875 45.40625 35.40625 
Q 44.1875 33.984375 37.640625 27.21875 
Q 31.109375 20.453125 19.1875 8.296875 
z
" id="DejaVuSans-50"/>
      </defs>
      <g transform="translate(98.239892 303.028562)scale(0.1 -0.1)">
       <use xlink:href="#DejaVuSans-50"/>
       <use x="63.623047" xlink:href="#DejaVuSans-48"/>
       <use x="127.246094" xlink:href="#DejaVuSans-48"/>
      </g>
     </g>
    </g>
    <g id="xtick_3">
     <g id="line2d_5">
      <path clip-path="url(#p88570306c1)" d="M 156.714244 288.430125 
L 156.714244 22.318125 
" style="fill:none;stroke:#b0b0b0;stroke-dasharray:2.96,1.28;stroke-dashoffset:0;stroke-width:0.8;"/>
     </g>
     <g id="line2d_6">
      <g>
       <use style="stroke:#000000;stroke-width:0.8;" x="156.714244" xlink:href="#ma0ed273091" y="288.430125"/>
      </g>
     </g>
     <g id="text_3">
      <!-- 400 -->
      <defs>
       <path d="M 37.796875 64.3125 
L 12.890625 25.390625 
L 37.796875 25.390625 
z
M 35.203125 72.90625 
L 47.609375 72.90625 
L 47.609375 25.390625 
L 58.015625 25.390625 
L 58.015625 17.1875 
L 47.609375 17.1875 
L 47.609375 0 
L 37.796875 0 
L 37.796875 17.1875 
L 4.890625 17.1875 
L 4.890625 26.703125 
z
" id="DejaVuSans-52"/>
      </defs>
      <g transform="translate(147.170494 303.028562)scale(0.1 -0.1)">
       <use xlink:href="#DejaVuSans-52"/>
       <use x="63.623047" xlink:href="#DejaVuSans-48"/>
       <use x="127.246094" xlink:href="#DejaVuSans-48"/>
      </g>
     </g>
    </g>
    <g id="xtick_4">
     <g id="line2d_7">
      <path clip-path="url(#p88570306c1)" d="M 205.644846 288.430125 
L 205.644846 22.318125 
" style="fill:none;stroke:#b0b0b0;stroke-dasharray:2.96,1.28;stroke-dashoffset:0;stroke-width:0.8;"/>
     </g>
     <g id="line2d_8">
      <g>
       <use style="stroke:#000000;stroke-width:0.8;" x="205.644846" xlink:href="#ma0ed273091" y="288.430125"/>
      </g>
     </g>
     <g id="text_4">
      <!-- 600 -->
      <defs>
       <path d="M 33.015625 40.375 
Q 26.375 40.375 22.484375 35.828125 
Q 18.609375 31.296875 18.609375 23.390625 
Q 18.609375 15.53125 22.484375 10.953125 
Q 26.375 6.390625 33.015625 6.390625 
Q 39.65625 6.390625 43.53125 10.953125 
Q 47.40625 15.53125 47.40625 23.390625 
Q 47.40625 31.296875 43.53125 35.828125 
Q 39.65625 40.375 33.015625 40.375 
z
M 52.59375 71.296875 
L 52.59375 62.3125 
Q 48.875 64.0625 45.09375 64.984375 
Q 41.3125 65.921875 37.59375 65.921875 
Q 27.828125 65.921875 22.671875 59.328125 
Q 17.53125 52.734375 16.796875 39.40625 
Q 19.671875 43.65625 24.015625 45.921875 
Q 28.375 48.1875 33.59375 48.1875 
Q 44.578125 48.1875 50.953125 41.515625 
Q 57.328125 34.859375 57.328125 23.390625 
Q 57.328125 12.15625 50.6875 5.359375 
Q 44.046875 -1.421875 33.015625 -1.421875 
Q 20.359375 -1.421875 13.671875 8.265625 
Q 6.984375 17.96875 6.984375 36.375 
Q 6.984375 53.65625 15.1875 63.9375 
Q 23.390625 74.21875 37.203125 74.21875 
Q 40.921875 74.21875 44.703125 73.484375 
Q 48.484375 72.75 52.59375 71.296875 
z
" id="DejaVuSans-54"/>
      </defs>
      <g transform="translate(196.101096 303.028562)scale(0.1 -0.1)">
       <use xlink:href="#DejaVuSans-54"/>
       <use x="63.623047" xlink:href="#DejaVuSans-48"/>
       <use x="127.246094" xlink:href="#DejaVuSans-48"/>
      </g>
     </g>
    </g>
    <g id="xtick_5">
     <g id="line2d_9">
      <path clip-path="url(#p88570306c1)" d="M 254.575448 288.430125 
L 254.575448 22.318125 
" style="fill:none;stroke:#b0b0b0;stroke-dasharray:2.96,1.28;stroke-dashoffset:0;stroke-width:0.8;"/>
     </g>
     <g id="line2d_10">
      <g>
       <use style="stroke:#000000;stroke-width:0.8;" x="254.575448" xlink:href="#ma0ed273091" y="288.430125"/>
      </g>
     </g>
     <g id="text_5">
      <!-- 800 -->
      <defs>
       <path d="M 31.78125 34.625 
Q 24.75 34.625 20.71875 30.859375 
Q 16.703125 27.09375 16.703125 20.515625 
Q 16.703125 13.921875 20.71875 10.15625 
Q 24.75 6.390625 31.78125 6.390625 
Q 38.8125 6.390625 42.859375 10.171875 
Q 46.921875 13.96875 46.921875 20.515625 
Q 46.921875 27.09375 42.890625 30.859375 
Q 38.875 34.625 31.78125 34.625 
z
M 21.921875 38.8125 
Q 15.578125 40.375 12.03125 44.71875 
Q 8.5 49.078125 8.5 55.328125 
Q 8.5 64.0625 14.71875 69.140625 
Q 20.953125 74.21875 31.78125 74.21875 
Q 42.671875 74.21875 48.875 69.140625 
Q 55.078125 64.0625 55.078125 55.328125 
Q 55.078125 49.078125 51.53125 44.71875 
Q 48 40.375 41.703125 38.8125 
Q 48.828125 37.15625 52.796875 32.3125 
Q 56.78125 27.484375 56.78125 20.515625 
Q 56.78125 9.90625 50.3125 4.234375 
Q 43.84375 -1.421875 31.78125 -1.421875 
Q 19.734375 -1.421875 13.25 4.234375 
Q 6.78125 9.90625 6.78125 20.515625 
Q 6.78125 27.484375 10.78125 32.3125 
Q 14.796875 37.15625 21.921875 38.8125 
z
M 18.3125 54.390625 
Q 18.3125 48.734375 21.84375 45.5625 
Q 25.390625 42.390625 31.78125 42.390625 
Q 38.140625 42.390625 41.71875 45.5625 
Q 45.3125 48.734375 45.3125 54.390625 
Q 45.3125 60.0625 41.71875 63.234375 
Q 38.140625 66.40625 31.78125 66.40625 
Q 25.390625 66.40625 21.84375 63.234375 
Q 18.3125 60.0625 18.3125 54.390625 
z
" id="DejaVuSans-56"/>
      </defs>
      <g transform="translate(245.031698 303.028562)scale(0.1 -0.1)">
       <use xlink:href="#DejaVuSans-56"/>
       <use x="63.623047" xlink:href="#DejaVuSans-48"/>
       <use x="127.246094" xlink:href="#DejaVuSans-48"/>
      </g>
     </g>
    </g>
    <g id="xtick_6">
     <g id="line2d_11">
      <path clip-path="url(#p88570306c1)" d="M 303.506051 288.430125 
L 303.506051 22.318125 
" style="fill:none;stroke:#b0b0b0;stroke-dasharray:2.96,1.28;stroke-dashoffset:0;stroke-width:0.8;"/>
     </g>
     <g id="line2d_12">
      <g>
       <use style="stroke:#000000;stroke-width:0.8;" x="303.506051" xlink:href="#ma0ed273091" y="288.430125"/>
      </g>
     </g>
     <g id="text_6">
      <!-- 1000 -->
      <defs>
       <path d="M 12.40625 8.296875 
L 28.515625 8.296875 
L 28.515625 63.921875 
L 10.984375 60.40625 
L 10.984375 69.390625 
L 28.421875 72.90625 
L 38.28125 72.90625 
L 38.28125 8.296875 
L 54.390625 8.296875 
L 54.390625 0 
L 12.40625 0 
z
" id="DejaVuSans-49"/>
      </defs>
      <g transform="translate(290.781051 303.028562)scale(0.1 -0.1)">
       <use xlink:href="#DejaVuSans-49"/>
       <use x="63.623047" xlink:href="#DejaVuSans-48"/>
       <use x="127.246094" xlink:href="#DejaVuSans-48"/>
       <use x="190.869141" xlink:href="#DejaVuSans-48"/>
      </g>
     </g>
    </g>
    <g id="xtick_7">
     <g id="line2d_13">
      <path clip-path="url(#p88570306c1)" d="M 352.436653 288.430125 
L 352.436653 22.318125 
" style="fill:none;stroke:#b0b0b0;stroke-dasharray:2.96,1.28;stroke-dashoffset:0;stroke-width:0.8;"/>
     </g>
     <g id="line2d_14">
      <g>
       <use style="stroke:#000000;stroke-width:0.8;" x="352.436653" xlink:href="#ma0ed273091" y="288.430125"/>
      </g>
     </g>
     <g id="text_7">
      <!-- 1200 -->
      <g transform="translate(339.711653 303.028562)scale(0.1 -0.1)">
       <use xlink:href="#DejaVuSans-49"/>
       <use x="63.623047" xlink:href="#DejaVuSans-50"/>
       <use x="127.246094" xlink:href="#DejaVuSans-48"/>
       <use x="190.869141" xlink:href="#DejaVuSans-48"/>
      </g>
     </g>
    </g>
    <g id="text_8">
     <!-- Day -->
     <defs>
      <path d="M 19.671875 64.796875 
L 19.671875 8.109375 
L 31.59375 8.109375 
Q 46.6875 8.109375 53.6875 14.9375 
Q 60.6875 21.78125 60.6875 36.53125 
Q 60.6875 51.171875 53.6875 57.984375 
Q 46.6875 64.796875 31.59375 64.796875 
z
M 9.8125 72.90625 
L 30.078125 72.90625 
Q 51.265625 72.90625 61.171875 64.09375 
Q 71.09375 55.28125 71.09375 36.53125 
Q 71.09375 17.671875 61.125 8.828125 
Q 51.171875 0 30.078125 0 
L 9.8125 0 
z
" id="DejaVuSans-68"/>
      <path d="M 34.28125 27.484375 
Q 23.390625 27.484375 19.1875 25 
Q 14.984375 22.515625 14.984375 16.5 
Q 14.984375 11.71875 18.140625 8.90625 
Q 21.296875 6.109375 26.703125 6.109375 
Q 34.1875 6.109375 38.703125 11.40625 
Q 43.21875 16.703125 43.21875 25.484375 
L 43.21875 27.484375 
z
M 52.203125 31.203125 
L 52.203125 0 
L 43.21875 0 
L 43.21875 8.296875 
Q 40.140625 3.328125 35.546875 0.953125 
Q 30.953125 -1.421875 24.3125 -1.421875 
Q 15.921875 -1.421875 10.953125 3.296875 
Q 6 8.015625 6 15.921875 
Q 6 25.140625 12.171875 29.828125 
Q 18.359375 34.515625 30.609375 34.515625 
L 43.21875 34.515625 
L 43.21875 35.40625 
Q 43.21875 41.609375 39.140625 45 
Q 35.0625 48.390625 27.6875 48.390625 
Q 23 48.390625 18.546875 47.265625 
Q 14.109375 46.140625 10.015625 43.890625 
L 10.015625 52.203125 
Q 14.9375 54.109375 19.578125 55.046875 
Q 24.21875 56 28.609375 56 
Q 40.484375 56 46.34375 49.84375 
Q 52.203125 43.703125 52.203125 31.203125 
z
" id="DejaVuSans-97"/>
      <path d="M 32.171875 -5.078125 
Q 28.375 -14.84375 24.75 -17.8125 
Q 21.140625 -20.796875 15.09375 -20.796875 
L 7.90625 -20.796875 
L 7.90625 -13.28125 
L 13.1875 -13.28125 
Q 16.890625 -13.28125 18.9375 -11.515625 
Q 21 -9.765625 23.484375 -3.21875 
L 25.09375 0.875 
L 2.984375 54.6875 
L 12.5 54.6875 
L 29.59375 11.921875 
L 46.6875 54.6875 
L 56.203125 54.6875 
z
" id="DejaVuSans-121"/>
     </defs>
     <g transform="translate(211.306875 316.706687)scale(0.1 -0.1)">
      <use xlink:href="#DejaVuSans-68"/>
      <use x="77.001953" xlink:href="#DejaVuSans-97"/>
      <use x="138.28125" xlink:href="#DejaVuSans-121"/>
     </g>
    </g>
   </g>
   <g id="matplotlib.axis_2">
    <g id="ytick_1">
     <g id="line2d_15">
      <path clip-path="url(#p88570306c1)" d="M 42.620313 258.519472 
L 399.740313 258.519472 
" style="fill:none;stroke:#b0b0b0;stroke-dasharray:2.96,1.28;stroke-dashoffset:0;stroke-width:0.8;"/>
     </g>
     <g id="line2d_16">
      <defs>
       <path d="M 0 0 
L -3.5 0 
" id="m289671f88a" style="stroke:#000000;stroke-width:0.8;"/>
      </defs>
      <g>
       <use style="stroke:#000000;stroke-width:0.8;" x="42.620313" xlink:href="#m289671f88a" y="258.519472"/>
      </g>
     </g>
     <g id="text_9">
      <!-- −8 -->
      <defs>
       <path d="M 10.59375 35.5 
L 73.1875 35.5 
L 73.1875 27.203125 
L 10.59375 27.203125 
z
" id="DejaVuSans-8722"/>
      </defs>
      <g transform="translate(20.878125 262.31869)scale(0.1 -0.1)">
       <use xlink:href="#DejaVuSans-8722"/>
       <use x="83.789062" xlink:href="#DejaVuSans-56"/>
      </g>
     </g>
    </g>
    <g id="ytick_2">
     <g id="line2d_17">
      <path clip-path="url(#p88570306c1)" d="M 42.620313 228.578877 
L 399.740313 228.578877 
" style="fill:none;stroke:#b0b0b0;stroke-dasharray:2.96,1.28;stroke-dashoffset:0;stroke-width:0.8;"/>
     </g>
     <g id="line2d_18">
      <g>
       <use style="stroke:#000000;stroke-width:0.8;" x="42.620313" xlink:href="#m289671f88a" y="228.578877"/>
      </g>
     </g>
     <g id="text_10">
      <!-- −6 -->
      <g transform="translate(20.878125 232.378096)scale(0.1 -0.1)">
       <use xlink:href="#DejaVuSans-8722"/>
       <use x="83.789062" xlink:href="#DejaVuSans-54"/>
      </g>
     </g>
    </g>
    <g id="ytick_3">
     <g id="line2d_19">
      <path clip-path="url(#p88570306c1)" d="M 42.620313 198.638283 
L 399.740313 198.638283 
" style="fill:none;stroke:#b0b0b0;stroke-dasharray:2.96,1.28;stroke-dashoffset:0;stroke-width:0.8;"/>
     </g>
     <g id="line2d_20">
      <g>
       <use style="stroke:#000000;stroke-width:0.8;" x="42.620313" xlink:href="#m289671f88a" y="198.638283"/>
      </g>
     </g>
     <g id="text_11">
      <!-- −4 -->
      <g transform="translate(20.878125 202.437502)scale(0.1 -0.1)">
       <use xlink:href="#DejaVuSans-8722"/>
       <use x="83.789062" xlink:href="#DejaVuSans-52"/>
      </g>
     </g>
    </g>
    <g id="ytick_4">
     <g id="line2d_21">
      <path clip-path="url(#p88570306c1)" d="M 42.620313 168.697689 
L 399.740313 168.697689 
" style="fill:none;stroke:#b0b0b0;stroke-dasharray:2.96,1.28;stroke-dashoffset:0;stroke-width:0.8;"/>
     </g>
     <g id="line2d_22">
      <g>
       <use style="stroke:#000000;stroke-width:0.8;" x="42.620313" xlink:href="#m289671f88a" y="168.697689"/>
      </g>
     </g>
     <g id="text_12">
      <!-- −2 -->
      <g transform="translate(20.878125 172.496908)scale(0.1 -0.1)">
       <use xlink:href="#DejaVuSans-8722"/>
       <use x="83.789062" xlink:href="#DejaVuSans-50"/>
      </g>
     </g>
    </g>
    <g id="ytick_5">
     <g id="line2d_23">
      <path clip-path="url(#p88570306c1)" d="M 42.620313 138.757095 
L 399.740313 138.757095 
" style="fill:none;stroke:#b0b0b0;stroke-dasharray:2.96,1.28;stroke-dashoffset:0;stroke-width:0.8;"/>
     </g>
     <g id="line2d_24">
      <g>
       <use style="stroke:#000000;stroke-width:0.8;" x="42.620313" xlink:href="#m289671f88a" y="138.757095"/>
      </g>
     </g>
     <g id="text_13">
      <!-- 0 -->
      <g transform="translate(29.257813 142.556314)scale(0.1 -0.1)">
       <use xlink:href="#DejaVuSans-48"/>
      </g>
     </g>
    </g>
    <g id="ytick_6">
     <g id="line2d_25">
      <path clip-path="url(#p88570306c1)" d="M 42.620313 108.816501 
L 399.740313 108.816501 
" style="fill:none;stroke:#b0b0b0;stroke-dasharray:2.96,1.28;stroke-dashoffset:0;stroke-width:0.8;"/>
     </g>
     <g id="line2d_26">
      <g>
       <use style="stroke:#000000;stroke-width:0.8;" x="42.620313" xlink:href="#m289671f88a" y="108.816501"/>
      </g>
     </g>
     <g id="text_14">
      <!-- 2 -->
      <g transform="translate(29.257813 112.61572)scale(0.1 -0.1)">
       <use xlink:href="#DejaVuSans-50"/>
      </g>
     </g>
    </g>
    <g id="ytick_7">
     <g id="line2d_27">
      <path clip-path="url(#p88570306c1)" d="M 42.620313 78.875907 
L 399.740313 78.875907 
" style="fill:none;stroke:#b0b0b0;stroke-dasharray:2.96,1.28;stroke-dashoffset:0;stroke-width:0.8;"/>
     </g>
     <g id="line2d_28">
      <g>
       <use style="stroke:#000000;stroke-width:0.8;" x="42.620313" xlink:href="#m289671f88a" y="78.875907"/>
      </g>
     </g>
     <g id="text_15">
      <!-- 4 -->
      <g transform="translate(29.257813 82.675126)scale(0.1 -0.1)">
       <use xlink:href="#DejaVuSans-52"/>
      </g>
     </g>
    </g>
    <g id="ytick_8">
     <g id="line2d_29">
      <path clip-path="url(#p88570306c1)" d="M 42.620313 48.935313 
L 399.740313 48.935313 
" style="fill:none;stroke:#b0b0b0;stroke-dasharray:2.96,1.28;stroke-dashoffset:0;stroke-width:0.8;"/>
     </g>
     <g id="line2d_30">
      <g>
       <use style="stroke:#000000;stroke-width:0.8;" x="42.620313" xlink:href="#m289671f88a" y="48.935313"/>
      </g>
     </g>
     <g id="text_16">
      <!-- 6 -->
      <g transform="translate(29.257813 52.734532)scale(0.1 -0.1)">
       <use xlink:href="#DejaVuSans-54"/>
      </g>
     </g>
    </g>
    <g id="text_17">
     <!-- Change $ -->
     <defs>
      <path d="M 64.40625 67.28125 
L 64.40625 56.890625 
Q 59.421875 61.53125 53.78125 63.8125 
Q 48.140625 66.109375 41.796875 66.109375 
Q 29.296875 66.109375 22.65625 58.46875 
Q 16.015625 50.828125 16.015625 36.375 
Q 16.015625 21.96875 22.65625 14.328125 
Q 29.296875 6.6875 41.796875 6.6875 
Q 48.140625 6.6875 53.78125 8.984375 
Q 59.421875 11.28125 64.40625 15.921875 
L 64.40625 5.609375 
Q 59.234375 2.09375 53.4375 0.328125 
Q 47.65625 -1.421875 41.21875 -1.421875 
Q 24.65625 -1.421875 15.125 8.703125 
Q 5.609375 18.84375 5.609375 36.375 
Q 5.609375 53.953125 15.125 64.078125 
Q 24.65625 74.21875 41.21875 74.21875 
Q 47.75 74.21875 53.53125 72.484375 
Q 59.328125 70.75 64.40625 67.28125 
z
" id="DejaVuSans-67"/>
      <path d="M 54.890625 33.015625 
L 54.890625 0 
L 45.90625 0 
L 45.90625 32.71875 
Q 45.90625 40.484375 42.875 44.328125 
Q 39.84375 48.1875 33.796875 48.1875 
Q 26.515625 48.1875 22.3125 43.546875 
Q 18.109375 38.921875 18.109375 30.90625 
L 18.109375 0 
L 9.078125 0 
L 9.078125 75.984375 
L 18.109375 75.984375 
L 18.109375 46.1875 
Q 21.34375 51.125 25.703125 53.5625 
Q 30.078125 56 35.796875 56 
Q 45.21875 56 50.046875 50.171875 
Q 54.890625 44.34375 54.890625 33.015625 
z
" id="DejaVuSans-104"/>
      <path d="M 54.890625 33.015625 
L 54.890625 0 
L 45.90625 0 
L 45.90625 32.71875 
Q 45.90625 40.484375 42.875 44.328125 
Q 39.84375 48.1875 33.796875 48.1875 
Q 26.515625 48.1875 22.3125 43.546875 
Q 18.109375 38.921875 18.109375 30.90625 
L 18.109375 0 
L 9.078125 0 
L 9.078125 54.6875 
L 18.109375 54.6875 
L 18.109375 46.1875 
Q 21.34375 51.125 25.703125 53.5625 
Q 30.078125 56 35.796875 56 
Q 45.21875 56 50.046875 50.171875 
Q 54.890625 44.34375 54.890625 33.015625 
z
" id="DejaVuSans-110"/>
      <path d="M 45.40625 27.984375 
Q 45.40625 37.75 41.375 43.109375 
Q 37.359375 48.484375 30.078125 48.484375 
Q 22.859375 48.484375 18.828125 43.109375 
Q 14.796875 37.75 14.796875 27.984375 
Q 14.796875 18.265625 18.828125 12.890625 
Q 22.859375 7.515625 30.078125 7.515625 
Q 37.359375 7.515625 41.375 12.890625 
Q 45.40625 18.265625 45.40625 27.984375 
z
M 54.390625 6.78125 
Q 54.390625 -7.171875 48.1875 -13.984375 
Q 42 -20.796875 29.203125 -20.796875 
Q 24.46875 -20.796875 20.265625 -20.09375 
Q 16.0625 -19.390625 12.109375 -17.921875 
L 12.109375 -9.1875 
Q 16.0625 -11.328125 19.921875 -12.34375 
Q 23.78125 -13.375 27.78125 -13.375 
Q 36.625 -13.375 41.015625 -8.765625 
Q 45.40625 -4.15625 45.40625 5.171875 
L 45.40625 9.625 
Q 42.625 4.78125 38.28125 2.390625 
Q 33.9375 0 27.875 0 
Q 17.828125 0 11.671875 7.65625 
Q 5.515625 15.328125 5.515625 27.984375 
Q 5.515625 40.671875 11.671875 48.328125 
Q 17.828125 56 27.875 56 
Q 33.9375 56 38.28125 53.609375 
Q 42.625 51.21875 45.40625 46.390625 
L 45.40625 54.6875 
L 54.390625 54.6875 
z
" id="DejaVuSans-103"/>
      <path d="M 56.203125 29.59375 
L 56.203125 25.203125 
L 14.890625 25.203125 
Q 15.484375 15.921875 20.484375 11.0625 
Q 25.484375 6.203125 34.421875 6.203125 
Q 39.59375 6.203125 44.453125 7.46875 
Q 49.3125 8.734375 54.109375 11.28125 
L 54.109375 2.78125 
Q 49.265625 0.734375 44.1875 -0.34375 
Q 39.109375 -1.421875 33.890625 -1.421875 
Q 20.796875 -1.421875 13.15625 6.1875 
Q 5.515625 13.8125 5.515625 26.8125 
Q 5.515625 40.234375 12.765625 48.109375 
Q 20.015625 56 32.328125 56 
Q 43.359375 56 49.78125 48.890625 
Q 56.203125 41.796875 56.203125 29.59375 
z
M 47.21875 32.234375 
Q 47.125 39.59375 43.09375 43.984375 
Q 39.0625 48.390625 32.421875 48.390625 
Q 24.90625 48.390625 20.390625 44.140625 
Q 15.875 39.890625 15.1875 32.171875 
z
" id="DejaVuSans-101"/>
      <path id="DejaVuSans-32"/>
      <path d="M 33.796875 -14.703125 
L 28.90625 -14.703125 
L 28.859375 0 
Q 23.734375 0.09375 18.609375 1.1875 
Q 13.484375 2.296875 8.296875 4.5 
L 8.296875 13.28125 
Q 13.28125 10.15625 18.375 8.5625 
Q 23.484375 6.984375 28.90625 6.9375 
L 28.90625 29.203125 
Q 18.109375 30.953125 13.203125 35.15625 
Q 8.296875 39.359375 8.296875 46.6875 
Q 8.296875 54.640625 13.625 59.21875 
Q 18.953125 63.8125 28.90625 64.5 
L 28.90625 75.984375 
L 33.796875 75.984375 
L 33.796875 64.65625 
Q 38.328125 64.453125 42.578125 63.6875 
Q 46.828125 62.9375 50.875 61.625 
L 50.875 53.078125 
Q 46.828125 55.125 42.546875 56.25 
Q 38.28125 57.375 33.796875 57.5625 
L 33.796875 36.71875 
Q 44.875 35.015625 50.09375 30.609375 
Q 55.328125 26.21875 55.328125 18.609375 
Q 55.328125 10.359375 49.78125 5.59375 
Q 44.234375 0.828125 33.796875 0.09375 
z
M 28.90625 37.59375 
L 28.90625 57.625 
Q 23.25 56.984375 20.265625 54.390625 
Q 17.28125 51.8125 17.28125 47.515625 
Q 17.28125 43.3125 20.03125 40.96875 
Q 22.796875 38.625 28.90625 37.59375 
z
M 33.796875 28.21875 
L 33.796875 7.078125 
Q 39.984375 7.90625 43.140625 10.59375 
Q 46.296875 13.28125 46.296875 17.671875 
Q 46.296875 21.96875 43.28125 24.5 
Q 40.28125 27.046875 33.796875 28.21875 
z
" id="DejaVuSans-36"/>
     </defs>
     <g transform="translate(14.798438 179.288187)rotate(-90)scale(0.1 -0.1)">
      <use xlink:href="#DejaVuSans-67"/>
      <use x="69.824219" xlink:href="#DejaVuSans-104"/>
      <use x="133.203125" xlink:href="#DejaVuSans-97"/>
      <use x="194.482422" xlink:href="#DejaVuSans-110"/>
      <use x="257.861328" xlink:href="#DejaVuSans-103"/>
      <use x="321.337891" xlink:href="#DejaVuSans-101"/>
      <use x="382.861328" xlink:href="#DejaVuSans-32"/>
      <use x="414.648438" xlink:href="#DejaVuSans-36"/>
     </g>
    </g>
   </g>
   <g id="line2d_31">
    <path clip-path="url(#p88570306c1)" d="M 58.85304 141.453428 
L 59.097693 130.733383 
L 59.342346 141.344806 
L 59.586999 143.320155 
L 60.076305 139.7974 
L 60.320958 137.944256 
L 60.810264 136.18011 
L 61.054917 135.888158 
L 61.29957 135.782606 
L 61.544223 135.930003 
L 62.278182 137.052291 
L 62.767488 137.910226 
L 63.012141 138.141848 
L 63.990753 139.732728 
L 65.458671 140.888009 
L 65.703324 141.41823 
L 65.947977 141.563796 
L 66.19263 141.415303 
L 66.926589 142.138919 
L 67.171242 142.398313 
L 67.905201 142.303259 
L 68.394507 142.035719 
L 68.63916 141.975517 
L 69.128466 141.661027 
L 69.373119 141.825741 
L 69.617772 141.853701 
L 69.862425 141.538042 
L 70.351731 141.490443 
L 70.841037 141.543767 
L 71.819649 140.475768 
L 72.308955 140.312495 
L 72.798261 140.564636 
L 73.042914 140.364536 
L 73.53222 139.555007 
L 73.776873 139.458497 
L 74.266179 138.9755 
L 74.510832 139.006012 
L 74.755485 139.203242 
L 75.000138 138.930165 
L 75.244792 139.025435 
L 75.489445 138.724787 
L 75.734098 138.836164 
L 76.223404 137.782714 
L 76.468057 138.463851 
L 77.202016 138.025612 
L 77.691322 137.350041 
L 77.935975 137.392665 
L 78.669934 136.919617 
L 78.914587 137.114844 
L 79.15924 136.688284 
L 79.403893 136.524262 
L 79.648546 136.545112 
L 79.893199 136.685227 
L 80.137852 136.679907 
L 80.382505 136.492842 
L 80.871811 136.44853 
L 81.116464 136.665242 
L 81.361117 136.45897 
L 81.60577 136.469612 
L 81.850423 136.705299 
L 82.095076 136.35463 
L 82.339729 136.317745 
L 82.584382 134.794333 
L 83.073688 136.586799 
L 83.318341 136.244508 
L 83.562994 136.664276 
L 83.807647 136.045677 
L 84.0523 136.36507 
L 84.296953 136.262691 
L 84.541606 136.440873 
L 84.786259 135.930306 
L 85.030912 136.321407 
L 85.275565 137.897753 
L 85.520218 137.856384 
L 85.764871 137.376486 
L 86.009524 137.709852 
L 86.254177 137.483537 
L 86.49883 138.063895 
L 86.743483 137.964689 
L 86.988136 138.170816 
L 87.232789 137.76469 
L 87.722095 137.991625 
L 87.966748 138.278156 
L 88.211401 138.021877 
L 88.456054 138.024198 
L 88.700707 138.236988 
L 88.94536 138.091927 
L 89.190013 137.705786 
L 89.434666 137.807083 
L 89.679319 137.692621 
L 89.923972 137.341678 
L 90.168625 138.701168 
L 90.413278 139.244929 
L 90.657931 138.373065 
L 90.902584 139.128664 
L 91.147237 139.267525 
L 91.39189 138.773439 
L 91.881196 139.265765 
L 92.125849 138.531075 
L 92.370502 138.285885 
L 92.615155 138.341818 
L 92.859808 138.232056 
L 93.104461 138.4815 
L 93.593767 138.087875 
L 93.83842 138.229634 
L 94.083073 138.070586 
L 94.572379 138.551839 
L 94.817032 138.432171 
L 95.061685 138.778961 
L 95.306338 138.672343 
L 95.550991 139.720919 
L 95.795644 138.817404 
L 96.040297 138.960878 
L 96.529603 138.736294 
L 96.774256 138.975283 
L 97.018909 138.800403 
L 97.263562 139.018845 
L 97.508215 138.115013 
L 97.997522 137.837292 
L 98.242175 138.570728 
L 98.486828 138.217031 
L 98.731481 138.686489 
L 98.976134 138.326923 
L 99.220787 138.924772 
L 99.46544 138.856538 
L 99.710093 139.208736 
L 99.954746 138.551536 
L 100.199399 138.794491 
L 100.444052 138.615025 
L 100.688705 138.668161 
L 100.933358 138.136455 
L 101.178011 138.588162 
L 101.422664 138.347182 
L 101.667317 139.219608 
L 101.91197 139.07113 
L 102.156623 139.116783 
L 102.401276 138.310657 
L 102.645929 138.874375 
L 102.890582 137.994595 
L 103.135235 137.69872 
L 103.379888 137.801085 
L 103.869194 138.452474 
L 104.113847 139.573205 
L 104.3585 137.586853 
L 104.603153 137.247201 
L 105.337112 137.503119 
L 105.826418 138.556612 
L 106.560377 138.785537 
L 106.80503 138.663129 
L 107.049683 138.943229 
L 107.294336 138.900951 
L 107.538989 139.143704 
L 107.783642 139.20219 
L 108.028295 139.01909 
L 108.272948 139.664149 
L 108.517601 139.32079 
L 109.006907 139.104757 
L 109.25156 138.20626 
L 109.496213 138.511522 
L 109.740866 138.355935 
L 109.985519 138.408047 
L 110.230172 138.615141 
L 110.719478 138.080305 
L 110.964131 138.522827 
L 111.208784 138.227932 
L 111.453437 138.372416 
L 111.69809 137.897998 
L 111.942743 138.026059 
L 112.187396 137.961358 
L 112.432049 137.545743 
L 112.676702 138.275084 
L 112.921355 137.804358 
L 113.410661 138.55925 
L 113.655314 138.511363 
L 113.899967 138.022973 
L 114.14462 138.111466 
L 114.389273 137.290892 
L 114.633926 138.667181 
L 114.878579 138.325956 
L 116.101844 138.369734 
L 116.346497 138.616092 
L 116.835803 137.68942 
L 117.569762 139.159681 
L 117.814415 138.584095 
L 118.059068 138.804051 
L 118.303721 139.538742 
L 118.548374 138.485249 
L 118.793027 138.605292 
L 119.282333 139.178772 
L 119.526986 138.195517 
L 120.016292 139.857602 
L 120.260946 139.505865 
L 120.505599 139.621409 
L 120.750252 139.395801 
L 120.994905 139.431172 
L 121.239558 140.317441 
L 121.728864 139.603226 
L 121.973517 139.043358 
L 122.21817 139.682966 
L 122.707476 139.350985 
L 122.952129 139.809714 
L 123.196782 139.515844 
L 123.686088 139.47221 
L 123.930741 138.972443 
L 124.175394 139.209226 
L 124.420047 138.927886 
L 124.6647 139.243833 
L 125.154006 139.267827 
L 125.398659 138.552444 
L 125.643312 138.872039 
L 125.887965 138.99214 
L 126.132618 138.620159 
L 126.866577 139.235023 
L 127.11123 139.030525 
L 127.600536 140.37597 
L 127.845189 138.896365 
L 128.089842 139.423169 
L 128.334495 139.24291 
L 128.579148 138.633425 
L 128.823801 139.38353 
L 129.068454 139.438613 
L 129.313107 139.377142 
L 129.55776 139.105348 
L 129.802413 139.122695 
L 130.047066 138.740605 
L 130.291719 138.861109 
L 130.536372 139.208188 
L 130.781025 138.291249 
L 131.270331 138.366302 
L 131.514984 138.621961 
L 131.759637 138.109231 
L 132.00429 138.899278 
L 132.738249 137.672621 
L 133.227555 138.652329 
L 133.716861 138.8355 
L 133.961514 139.271072 
L 134.206167 139.178859 
L 134.45082 138.905897 
L 134.695473 139.075874 
L 134.940126 139.497199 
L 135.184779 138.333469 
L 135.429432 138.08391 
L 135.674085 138.816827 
L 135.918738 138.843604 
L 136.163391 139.070481 
L 136.408044 139.012457 
L 136.89735 139.431994 
L 137.142003 139.289125 
L 137.386656 138.759999 
L 137.631309 139.744077 
L 137.875962 137.957349 
L 138.120615 138.29481 
L 138.365268 138.162785 
L 138.609921 138.420448 
L 139.34388 140.087233 
L 139.588533 139.862562 
L 139.833186 139.895107 
L 140.077839 139.14888 
L 140.322492 139.248347 
L 140.567145 139.98732 
L 140.811798 139.32278 
L 141.056451 140.012237 
L 141.301104 139.78859 
L 141.545757 139.754487 
L 142.524369 139.138527 
L 142.769023 139.484914 
L 143.013676 139.160748 
L 143.258329 139.223963 
L 143.992288 138.693323 
L 144.481594 138.790958 
L 144.726247 139.097619 
L 144.9709 138.515689 
L 145.215553 138.861167 
L 145.460206 138.731564 
L 145.704859 138.770309 
L 146.194165 139.162752 
L 146.438818 138.848175 
L 146.683471 139.446846 
L 146.928124 138.893568 
L 147.41743 138.462524 
L 148.151389 139.027252 
L 148.396042 139.119421 
L 148.640695 138.671521 
L 148.885348 138.556525 
L 149.130001 139.162579 
L 149.374654 139.217965 
L 149.619307 139.051029 
L 149.86396 139.39012 
L 150.108613 139.478439 
L 150.353266 139.843326 
L 150.597919 138.860561 
L 150.842572 138.620808 
L 151.087225 138.059022 
L 151.331878 137.161433 
L 151.821184 139.057533 
L 152.555143 138.098502 
L 152.799796 138.404428 
L 153.044449 139.034058 
L 153.289102 138.977302 
L 153.778408 139.759174 
L 154.267714 139.688302 
L 154.512367 139.157475 
L 155.001673 139.283905 
L 155.246326 139.058744 
L 155.490979 139.037864 
L 155.735632 138.661326 
L 156.224938 138.764297 
L 156.469591 139.160777 
L 156.714244 137.620364 
L 156.958897 139.110553 
L 157.20355 139.225391 
L 157.448203 139.471129 
L 157.692856 139.232759 
L 157.937509 139.439377 
L 158.182162 139.087309 
L 158.426815 139.497026 
L 158.916121 137.812375 
L 159.160774 139.133596 
L 159.405427 139.393263 
L 159.65008 138.735457 
L 159.894733 139.50761 
L 160.139386 139.532426 
L 160.384039 139.046343 
L 160.628692 139.563746 
L 160.873345 139.142968 
L 161.117998 139.513782 
L 161.362651 139.635497 
L 161.607304 139.046545 
L 161.851957 139.75257 
L 162.09661 139.544928 
L 162.341263 140.163484 
L 162.585916 138.904224 
L 162.830569 138.503706 
L 163.075222 138.732141 
L 163.319875 139.693637 
L 163.564528 138.502019 
L 163.809181 138.329129 
L 164.053834 138.911145 
L 164.298487 138.919249 
L 164.54314 139.089804 
L 164.787793 139.805634 
L 165.2771 139.287928 
L 165.521753 139.880716 
L 165.766406 138.111264 
L 166.011059 137.999137 
L 166.989671 138.704989 
L 167.234324 138.593655 
L 167.478977 139.004065 
L 167.72363 138.814981 
L 168.457589 138.773453 
L 169.191548 139.274374 
L 169.680854 138.635501 
L 169.925507 138.851419 
L 170.17016 138.883561 
L 170.659466 138.65514 
L 170.904119 138.726027 
L 171.148772 139.10467 
L 171.638078 138.859004 
L 171.882731 138.987107 
L 172.372037 139.018499 
L 172.861343 138.462337 
L 173.105996 138.991448 
L 173.350649 138.842998 
L 173.595302 138.40039 
L 174.329261 138.528349 
L 174.573914 138.181386 
L 174.818567 138.53354 
L 175.06322 138.428811 
L 175.307873 138.776856 
L 175.552526 138.914952 
L 176.041832 138.566475 
L 176.286485 138.006059 
L 176.531138 138.449446 
L 177.020444 138.567628 
L 177.265097 138.807079 
L 177.50975 138.883373 
L 177.754403 139.389254 
L 178.243709 139.106473 
L 178.488362 139.207914 
L 178.733015 139.119508 
L 178.977668 138.612689 
L 179.466974 138.499251 
L 179.711627 138.932299 
L 179.95628 137.74753 
L 180.200933 138.57925 
L 180.445586 138.295949 
L 180.934892 140.468428 
L 181.179545 137.141246 
L 181.424198 137.466133 
L 181.668851 137.37353 
L 181.913504 137.03917 
L 182.158157 138.097089 
L 182.40281 136.995262 
L 182.647463 136.429309 
L 182.892116 137.136776 
L 183.136769 136.910908 
L 183.381422 137.279991 
L 183.626075 136.907836 
L 184.115381 138.39406 
L 184.360034 138.043535 
L 184.84934 138.544788 
L 185.093993 138.236699 
L 185.338646 138.633944 
L 185.583299 138.410022 
L 185.827952 139.142925 
L 186.317258 139.312052 
L 186.561911 139.041412 
L 186.806564 139.264266 
L 187.051217 139.293408 
L 187.29587 138.920662 
L 187.540524 138.979191 
L 187.785177 138.35406 
L 188.274483 138.250009 
L 188.519136 138.669964 
L 189.008442 138.691535 
L 189.253095 138.714563 
L 189.497748 138.973769 
L 189.987054 138.296901 
L 190.231707 138.662004 
L 190.47636 138.584701 
L 190.721013 139.15387 
L 190.965666 138.41109 
L 191.210319 139.017821 
L 191.454972 138.588003 
L 191.699625 139.160993 
L 191.944278 138.198401 
L 192.188931 138.487138 
L 192.433584 138.327038 
L 192.678237 138.523447 
L 193.167543 137.764127 
L 193.412196 138.565148 
L 193.656849 138.704801 
L 193.901502 137.693572 
L 194.146155 139.028535 
L 194.390808 138.840879 
L 194.635461 137.313459 
L 194.880114 136.964635 
L 195.124767 137.86528 
L 195.36942 137.519226 
L 195.614073 137.393285 
L 195.858726 138.090341 
L 196.103379 138.261761 
L 196.348032 139.469398 
L 196.592685 138.822306 
L 197.081991 139.644221 
L 197.326644 139.312571 
L 197.571297 139.639174 
L 198.060603 139.57606 
L 198.305256 140.213347 
L 198.549909 140.131126 
L 198.794562 139.335844 
L 199.039215 140.697252 
L 199.283868 136.73049 
L 199.528521 136.318639 
L 200.017827 136.599186 
L 200.507133 137.434828 
L 200.751786 137.786636 
L 200.996439 137.31777 
L 201.241092 138.70806 
L 201.485745 137.725829 
L 201.730398 137.892562 
L 201.975051 138.322308 
L 202.219704 138.358934 
L 202.464357 138.748969 
L 202.70901 138.607873 
L 202.953663 139.230135 
L 203.198316 138.207154 
L 203.687622 139.69704 
L 203.932275 139.011087 
L 204.176928 139.207078 
L 204.421581 138.598717 
L 204.666234 139.155211 
L 204.910887 138.087976 
L 205.15554 138.766733 
L 205.400193 137.912029 
L 205.644846 137.921964 
L 205.889499 137.537668 
L 206.378805 139.144252 
L 206.623458 138.950266 
L 206.868111 139.617603 
L 207.112764 139.525303 
L 207.357417 139.310524 
L 207.60207 139.946181 
L 207.846723 139.417027 
L 208.091376 139.550681 
L 208.336029 139.046127 
L 208.825335 139.015471 
L 209.069988 138.184731 
L 209.559294 139.014043 
L 209.803947 139.116494 
L 210.048601 138.725378 
L 210.537907 138.277608 
L 211.027213 137.623825 
L 211.271866 138.585681 
L 211.516519 137.979339 
L 211.761172 138.244962 
L 212.005825 138.325726 
L 212.250478 138.794578 
L 212.495131 138.451407 
L 212.739784 139.472556 
L 212.984437 135.272615 
L 213.22909 134.495647 
L 213.473743 136.233564 
L 213.718396 137.147172 
L 213.963049 137.171642 
L 214.207702 138.259727 
L 214.452355 137.234771 
L 214.697008 137.265023 
L 214.941661 139.150121 
L 215.186314 139.009198 
L 215.430967 139.085723 
L 215.67562 139.354402 
L 215.920273 139.291778 
L 216.164926 139.003416 
L 216.409579 139.117143 
L 216.654232 139.487452 
L 216.898885 138.977865 
L 217.143538 139.162377 
L 217.632844 139.241238 
L 218.12215 139.719823 
L 218.366803 139.007699 
L 218.611456 138.650512 
L 218.856109 138.561154 
L 219.100762 138.631391 
L 219.345415 139.495642 
L 219.590068 139.263429 
L 219.834721 138.488825 
L 220.079374 138.144544 
L 220.324027 137.457495 
L 220.56868 138.402236 
L 220.813333 138.175431 
L 221.057986 138.600072 
L 221.302639 138.325207 
L 221.791945 138.742321 
L 222.036598 138.456439 
L 222.281251 137.480394 
L 222.525904 137.611136 
L 222.770557 137.21144 
L 223.01521 138.336497 
L 223.259863 138.578717 
L 223.504516 138.986329 
L 223.749169 138.168351 
L 223.993822 138.227096 
L 224.483128 137.704618 
L 224.727781 138.618025 
L 224.972434 138.881845 
L 225.217087 138.606748 
L 225.46174 138.885233 
L 225.951046 138.520837 
L 226.195699 137.751496 
L 226.440352 138.751319 
L 226.685005 138.568465 
L 226.929658 138.964786 
L 227.418964 138.375185 
L 227.90827 139.283054 
L 228.397576 138.351292 
L 228.642229 138.485941 
L 228.886882 138.988275 
L 229.376188 138.245207 
L 229.620841 138.445134 
L 229.865494 139.083819 
L 230.3548 138.55194 
L 231.088759 139.656824 
L 231.578065 138.929155 
L 231.822718 138.533742 
L 232.067371 139.126429 
L 232.556678 138.332835 
L 232.801331 139.419247 
L 233.045984 139.249111 
L 233.290637 138.763374 
L 233.779943 138.467629 
L 234.024596 138.978427 
L 234.269249 138.502264 
L 234.513902 138.375805 
L 235.003208 137.641056 
L 235.492514 138.277665 
L 235.98182 137.95944 
L 236.471126 137.876744 
L 236.715779 138.520318 
L 236.960432 138.148654 
L 237.205085 138.597635 
L 237.449738 138.69168 
L 237.694391 137.77748 
L 238.183697 138.048813 
L 238.42835 136.912926 
L 239.162309 137.539701 
L 239.651615 137.821834 
L 239.896268 137.412031 
L 240.140921 137.351065 
L 240.87488 138.556698 
L 241.119533 138.419092 
L 241.364186 138.895414 
L 241.608839 138.849285 
L 241.853492 138.262496 
L 242.098145 139.284842 
L 242.342798 139.10281 
L 242.587451 137.727098 
L 243.076757 137.693111 
L 243.32141 138.404601 
L 243.566063 138.207803 
L 243.810716 139.014894 
L 244.055369 138.947814 
L 244.300022 139.182651 
L 244.544675 138.474175 
L 244.789328 138.977807 
L 245.033981 138.258862 
L 245.523287 138.597679 
L 245.76794 138.246303 
L 246.012593 138.435401 
L 246.257246 138.142857 
L 246.501899 138.104732 
L 246.746552 138.392229 
L 246.991205 138.001026 
L 247.235858 138.215027 
L 247.480511 138.140103 
L 248.21447 135.120951 
L 248.459123 136.904131 
L 248.948429 137.763695 
L 249.193082 137.683839 
L 249.437735 136.749986 
L 249.682388 137.492795 
L 249.927041 137.597884 
L 250.171694 136.826986 
L 250.416347 137.721373 
L 250.661 137.053056 
L 250.905653 137.962093 
L 251.394959 137.494453 
L 251.884265 138.140305 
L 252.128918 138.17432 
L 252.373571 137.941488 
L 252.618224 138.067904 
L 253.352183 137.743579 
L 253.596836 137.927112 
L 254.086142 137.40622 
L 254.330795 138.366519 
L 254.575448 137.672376 
L 255.064755 139.277142 
L 255.554061 139.187049 
L 255.798714 139.720702 
L 256.28802 139.661798 
L 256.532673 139.167193 
L 256.777326 139.64239 
L 257.021979 139.74373 
L 257.266632 140.206079 
L 257.511285 139.603039 
L 257.755938 139.49061 
L 258.000591 139.054937 
L 258.245244 139.803197 
L 258.489897 140.152366 
L 258.73455 139.122983 
L 258.979203 138.952717 
L 259.223856 139.519175 
L 259.468509 139.368966 
L 259.713162 138.730137 
L 259.957815 139.404236 
L 260.202468 139.550941 
L 260.447121 140.964562 
L 260.691774 134.73517 
L 260.936427 136.938723 
L 261.425733 136.350448 
L 261.670386 136.987101 
L 261.915039 137.098593 
L 262.159692 136.75734 
L 262.404345 137.404734 
L 262.648998 138.557736 
L 262.893651 135.618656 
L 263.138304 136.062144 
L 263.382957 136.992623 
L 263.62761 136.669481 
L 263.872263 137.233978 
L 264.116916 137.284172 
L 264.361569 137.075464 
L 264.606222 137.283668 
L 264.850875 137.196328 
L 265.095528 138.873813 
L 265.340181 138.390989 
L 265.829487 139.596608 
L 266.07414 137.984054 
L 266.318793 137.598 
L 266.563446 137.835158 
L 267.052752 136.89509 
L 267.297405 137.727314 
L 267.542058 137.901445 
L 268.031364 137.511843 
L 268.276017 138.318949 
L 268.52067 138.498573 
L 268.765323 138.43765 
L 269.009976 138.762638 
L 269.254629 138.500606 
L 269.499282 139.376075 
L 269.988588 138.819596 
L 270.233241 139.078974 
L 270.477894 138.54225 
L 270.722547 138.780576 
L 270.9672 137.321577 
L 271.456506 137.385282 
L 271.701159 137.835057 
L 271.945812 137.343206 
L 272.190465 138.822148 
L 272.435118 137.600494 
L 272.679771 137.985309 
L 272.924424 137.677797 
L 273.41373 138.928478 
L 273.658383 138.447758 
L 273.903036 139.25906 
L 274.147689 139.367582 
L 274.392342 136.671659 
L 274.881648 138.751622 
L 275.126301 136.715739 
L 275.615607 138.571348 
L 275.86026 137.672765 
L 276.104913 137.820162 
L 276.349566 137.827141 
L 276.838872 137.353184 
L 277.083525 137.927559 
L 277.572832 139.70572 
L 277.817485 139.975755 
L 278.062138 139.714286 
L 278.306791 140.890907 
L 278.551444 139.920082 
L 278.796097 140.480454 
L 279.285403 140.151371 
L 279.530056 140.269251 
L 279.774709 139.258267 
L 280.264015 140.19998 
L 280.508668 139.725922 
L 280.753321 139.681568 
L 280.997974 140.121292 
L 281.48728 139.200632 
L 281.731933 139.133394 
L 281.976586 139.212644 
L 282.221239 139.173408 
L 282.710545 138.700519 
L 283.199851 138.676654 
L 283.444504 139.081469 
L 283.689157 139.13945 
L 283.93381 138.538284 
L 284.178463 138.640086 
L 284.423116 138.118517 
L 284.912422 138.561197 
L 285.157075 138.726186 
L 285.646381 138.635501 
L 285.891034 138.187918 
L 286.135687 138.692329 
L 286.38034 138.20799 
L 286.869646 138.796741 
L 287.114299 138.462481 
L 287.358952 139.171923 
L 287.603605 139.198628 
L 287.848258 138.637823 
L 288.092911 138.892083 
L 288.337564 138.950237 
L 288.582217 139.171519 
L 288.82687 138.680057 
L 289.071523 139.314951 
L 289.316176 138.998095 
L 289.560829 139.285376 
L 289.805482 139.368115 
L 290.050135 139.194115 
L 290.294788 138.086087 
L 290.539441 138.592545 
L 291.028747 138.143852 
L 291.2734 138.616698 
L 291.518053 138.424601 
L 291.762706 138.446374 
L 292.007359 139.020085 
L 292.252012 139.110683 
L 292.741318 138.543576 
L 292.985971 138.875053 
L 293.230624 138.717462 
L 293.475277 139.206674 
L 293.71993 138.75961 
L 293.964583 139.881106 
L 294.209236 139.236537 
L 294.453889 139.986411 
L 294.698542 140.106151 
L 294.943195 139.956217 
L 295.677154 139.195283 
L 296.900419 139.028506 
L 297.145072 139.256695 
L 297.634378 138.190845 
L 297.879031 138.036974 
L 298.123684 138.387427 
L 298.61299 138.503202 
L 298.857643 138.732689 
L 299.102296 138.692112 
L 299.346949 138.486936 
L 299.591602 140.09538 
L 299.836256 138.101156 
L 300.080909 137.428786 
L 300.570215 138.667339 
L 300.814868 138.814751 
L 301.059521 138.725364 
L 301.304174 138.035114 
L 301.79348 138.319857 
L 302.038133 139.105665 
L 302.282786 138.917605 
L 302.527439 139.19051 
L 303.016745 139.262997 
L 303.261398 139.011837 
L 303.506051 139.381439 
L 303.995357 138.539755 
L 304.24001 140.665962 
L 304.484663 141.226522 
L 304.729316 140.705457 
L 304.973969 140.674758 
L 305.218622 141.158188 
L 305.463275 140.818838 
L 305.707928 140.883438 
L 305.952581 140.488702 
L 306.197234 139.4788 
L 306.441887 139.653911 
L 306.68654 139.259003 
L 306.931193 139.905994 
L 307.175846 139.418022 
L 307.420499 139.689542 
L 307.665152 139.396479 
L 307.909805 139.367294 
L 308.154458 139.117792 
L 308.399111 139.581179 
L 308.643764 139.215787 
L 308.888417 139.15547 
L 309.13307 139.607768 
L 309.377723 139.324165 
L 309.622376 139.277359 
L 309.867029 139.469514 
L 310.111682 139.096739 
L 310.356335 139.023964 
L 310.600988 139.171836 
L 311.334947 139.010251 
L 311.5796 139.239608 
L 312.068906 139.122493 
L 312.313559 138.640836 
L 312.558212 139.26578 
L 312.802865 137.533443 
L 313.047518 138.940215 
L 313.292171 138.181155 
L 313.536824 138.285034 
L 314.02613 139.040143 
L 314.270783 138.987901 
L 314.515436 138.708882 
L 314.760089 139.234879 
L 315.004742 139.290913 
L 315.494048 138.431349 
L 315.738701 139.007136 
L 315.983354 138.173282 
L 316.228007 140.355567 
L 316.47266 141.035997 
L 316.717313 140.183959 
L 317.206619 139.620775 
L 317.451272 139.776146 
L 317.695925 140.23786 
L 317.940578 139.77629 
L 318.185231 139.024238 
L 318.429884 139.05299 
L 318.674537 138.764772 
L 318.91919 138.869631 
L 319.163843 138.347485 
L 319.408496 139.001008 
L 319.653149 138.42734 
L 319.897802 139.277546 
L 320.387108 139.610378 
L 320.631761 139.231966 
L 320.876414 139.079191 
L 321.121067 140.491875 
L 321.36572 139.218887 
L 321.610373 139.531402 
L 321.855026 139.434676 
L 322.099679 138.659308 
L 322.344333 138.646359 
L 322.588986 138.120103 
L 322.833639 139.236551 
L 323.078292 139.107294 
L 323.322945 139.222161 
L 323.567598 138.134768 
L 323.812251 138.757966 
L 324.056904 137.955518 
L 324.301557 138.661024 
L 324.54621 138.267961 
L 324.790863 138.435026 
L 325.035516 138.864685 
L 325.280169 138.47566 
L 325.524822 139.272514 
L 325.769475 139.05126 
L 326.014128 139.399161 
L 326.503434 138.248581 
L 326.748087 139.88161 
L 326.99274 137.021044 
L 327.237393 138.214104 
L 327.482046 138.183967 
L 327.971352 139.191476 
L 328.216005 139.295902 
L 328.460658 139.260315 
L 328.705311 139.006646 
L 328.949964 139.857371 
L 329.194617 138.573829 
L 329.43927 139.256119 
L 329.683923 138.092807 
L 329.928576 138.554002 
L 330.173229 138.391205 
L 330.417882 138.66806 
L 330.662535 138.409907 
L 330.907188 138.437405 
L 331.151841 138.988117 
L 331.396494 138.01311 
L 331.641147 138.474002 
L 331.8858 137.913024 
L 332.130453 138.121199 
L 333.353718 138.335906 
L 333.598371 138.648637 
L 333.843024 138.501875 
L 334.087677 139.524395 
L 334.33233 137.657711 
L 334.576983 138.540245 
L 334.821636 138.361544 
L 335.066289 139.049905 
L 335.310942 134.23148 
L 335.555595 134.621169 
L 335.800248 136.418004 
L 336.044901 134.870108 
L 336.289554 135.620502 
L 336.534207 135.514417 
L 337.023513 135.994718 
L 337.268166 135.924524 
L 337.512819 136.394717 
L 337.757472 136.466108 
L 338.002125 136.977569 
L 338.491431 136.888428 
L 338.980737 138.010067 
L 339.22539 138.207615 
L 339.714696 139.060979 
L 339.959349 138.744974 
L 340.937961 139.078773 
L 341.427267 138.533468 
L 341.67192 138.966199 
L 341.916573 138.521471 
L 342.161226 138.596237 
L 342.650532 138.488739 
L 342.895185 139.061916 
L 343.139838 138.989833 
L 343.384491 139.412585 
L 343.873797 139.036581 
L 344.11845 139.207943 
L 344.363103 139.200329 
L 344.607756 138.628955 
L 344.85241 139.003012 
L 345.097063 138.289763 
L 345.341716 138.540966 
L 345.586369 138.357319 
L 345.831022 138.514319 
L 346.075675 138.219828 
L 346.320328 138.699394 
L 346.809634 138.592819 
L 347.054287 138.860086 
L 347.29894 138.303895 
L 347.543593 138.511392 
L 347.788246 138.362337 
L 348.032899 138.478977 
L 348.277552 138.327384 
L 348.522205 138.724124 
L 348.766858 138.414839 
L 349.011511 137.438865 
L 349.256164 137.205701 
L 349.500817 137.40769 
L 349.990123 137.481937 
L 350.234776 137.660811 
L 350.479429 137.60867 
L 350.968735 138.039872 
L 351.458041 138.158791 
L 351.702694 138.545393 
L 351.947347 138.53491 
L 352.192 138.147197 
L 352.436653 138.814534 
L 352.925959 139.076552 
L 353.170612 138.763806 
L 353.659918 139.216018 
L 353.904571 138.65889 
L 354.149224 139.037763 
L 354.393877 138.901326 
L 354.63853 139.337575 
L 354.883183 138.760173 
L 355.127836 138.901859 
L 355.372489 139.414561 
L 355.617142 140.287333 
L 355.861795 140.236778 
L 356.106448 139.834574 
L 356.351101 139.816059 
L 356.595754 139.169919 
L 356.840407 139.036336 
L 357.08506 138.642581 
L 357.329713 139.442881 
L 357.574366 139.250654 
L 357.819019 139.540343 
L 358.063672 139.202074 
L 358.308325 138.652184 
L 358.552978 139.225246 
L 358.797631 138.407888 
L 359.042284 138.72633 
L 359.286937 138.822335 
L 359.53159 138.523375 
L 359.776243 138.532762 
L 360.020896 138.308206 
L 360.265549 138.981484 
L 360.754855 138.304947 
L 360.999508 138.326663 
L 361.244161 138.676539 
L 361.488814 138.697952 
L 361.733467 137.907386 
L 361.97812 138.65739 
L 362.222773 137.947184 
L 362.467426 138.205611 
L 362.712079 137.962612 
L 362.956732 138.473151 
L 363.201385 137.978762 
L 363.690691 138.589993 
L 363.935344 138.25432 
L 364.179997 138.819177 
L 364.42465 138.682019 
L 364.669303 139.12046 
L 365.158609 138.706532 
L 365.403262 139.560256 
L 365.647915 137.822599 
L 365.892568 138.042497 
L 366.137221 137.650703 
L 366.626527 137.934653 
L 366.87118 137.557928 
L 367.60514 138.29295 
L 368.339099 138.0813 
L 368.583752 138.271696 
L 368.828405 137.965684 
L 369.073058 138.414637 
L 369.317711 138.092879 
L 369.562364 138.228927 
L 370.05167 138.968535 
L 370.296323 138.84382 
L 370.540976 138.31406 
L 370.785629 138.140377 
L 371.030282 138.127111 
L 371.274935 138.405567 
L 371.519588 138.302654 
L 371.764241 138.600707 
L 372.253547 138.2983 
L 372.4982 138.265553 
L 373.232159 138.889559 
L 373.476812 137.608886 
L 373.721465 138.018012 
L 373.966118 138.118041 
L 374.210771 137.561403 
L 374.455424 138.164227 
L 374.700077 138.3445 
L 374.94473 138.369013 
L 375.189383 138.542596 
L 375.434036 138.95462 
L 375.923342 139.044368 
L 376.167995 138.813871 
L 376.657301 138.929314 
L 376.901954 138.72607 
L 377.146607 138.357795 
L 377.635913 138.672112 
L 378.369872 138.814866 
L 378.614525 138.685292 
L 378.859178 138.890569 
L 379.348484 138.876236 
L 379.83779 139.68461 
L 380.082443 138.98865 
L 380.327096 138.977432 
L 380.571749 138.651536 
L 380.816402 138.712703 
L 381.061055 138.558558 
L 381.305708 138.678385 
L 381.550361 138.228495 
L 382.039667 139.43792 
L 382.528973 138.966531 
L 382.773626 139.365001 
L 383.018279 140.080542 
L 383.262932 137.285787 
L 383.507585 138.67067 
L 383.507585 138.67067 
" style="fill:none;stroke:#1f77b4;stroke-linecap:square;stroke-width:1.5;"/>
   </g>
   <g id="line2d_32">
    <path clip-path="url(#p88570306c1)" d="M 58.85304 141.601452 
L 59.097693 130.822838 
L 59.586999 148.338085 
L 59.831652 118.397491 
L 60.076305 140.403828 
L 60.320958 120.643036 
L 60.565611 137.110363 
L 60.810264 130.523432 
L 61.054917 139.056501 
L 61.544223 134.415709 
L 61.788876 136.810957 
L 62.033529 138.00858 
L 62.278182 127.978481 
L 62.522835 146.092541 
L 62.767488 149.535709 
L 63.012141 137.409769 
L 63.256794 140.553531 
L 63.501447 133.068382 
L 63.990753 144.146402 
L 64.235406 137.260066 
L 64.480059 152.380066 
L 64.724712 134.864818 
L 64.969365 148.487788 
L 65.214018 140.703234 
L 65.458671 109.714719 
L 65.703324 149.0866 
L 65.947977 148.338085 
L 66.19263 130.373729 
L 66.437283 129.92462 
L 66.681936 117.798679 
L 66.926589 123.187986 
L 67.171242 139.805016 
L 67.415895 134.715115 
L 67.660548 138.757095 
L 67.905201 149.685412 
L 68.149854 139.954719 
L 68.63916 152.679472 
L 68.883813 144.894917 
L 69.128466 121.241848 
L 69.373119 154.026798 
L 70.107078 134.565412 
L 70.351731 130.074323 
L 70.596384 138.906798 
L 70.841037 157.320264 
L 71.08569 153.877095 
L 71.330343 147.888976 
L 71.574996 147.290165 
L 71.819649 143.54759 
L 72.308955 122.738877 
L 72.553608 129.475511 
L 72.798261 154.026798 
L 73.042914 156.871155 
L 73.287567 139.805016 
L 73.776873 148.936897 
L 74.021526 141.751155 
L 74.266179 114.654917 
L 74.510832 145.194323 
L 74.755485 121.990363 
L 75.000138 145.194323 
L 75.244792 121.84066 
L 75.489445 139.655313 
L 75.734098 172.440264 
L 75.978751 100.582838 
L 76.468057 138.757095 
L 76.71271 131.122244 
L 76.957363 144.745214 
L 77.202016 145.493729 
L 77.446669 129.026402 
L 77.691322 136.361848 
L 77.935975 138.00858 
L 78.180628 138.757095 
L 78.425281 123.936501 
L 78.669934 148.338085 
L 78.914587 142.200264 
L 79.15924 132.918679 
L 79.403893 128.277887 
L 79.893199 142.49967 
L 80.137852 137.260066 
L 80.382505 136.361848 
L 80.627158 130.224026 
L 80.871811 143.846996 
L 81.361117 132.469571 
L 81.60577 151.631551 
L 81.850423 149.685412 
L 82.095076 182.620066 
L 82.339729 105.672739 
L 82.584382 118.996303 
L 82.829035 150.883036 
L 83.073688 134.116303 
L 83.318341 157.469967 
L 83.562994 134.415709 
L 83.807647 143.397887 
L 84.0523 139.954719 
L 84.296953 151.781254 
L 84.786259 95.492937 
L 85.030912 143.248184 
L 85.275565 152.978877 
L 85.520218 131.122244 
L 85.764871 140.254125 
L 86.009524 124.235907 
L 86.254177 140.254125 
L 86.49883 136.96066 
L 86.743483 148.637491 
L 86.988136 135.763036 
L 87.232789 133.517491 
L 87.477442 133.517491 
L 87.722095 145.643432 
L 87.966748 138.757095 
L 88.211401 135.613333 
L 88.456054 146.092541 
L 88.700707 149.835115 
L 88.94536 138.607392 
L 89.190013 142.050561 
L 89.434666 137.559472 
L 89.679319 101.481056 
L 90.168625 155.074719 
L 90.413278 119.146006 
L 90.902584 148.338085 
L 91.147237 132.619274 
L 91.39189 135.313927 
L 91.636543 158.068778 
L 92.125849 137.559472 
L 92.370502 140.254125 
L 92.615155 135.164224 
L 92.859808 144.745214 
L 93.104461 145.493729 
L 93.349114 136.96066 
L 93.593767 140.852937 
L 93.83842 131.721056 
L 94.083073 133.218085 
L 94.327726 138.757095 
L 94.572379 128.876699 
L 94.817032 133.816897 
L 95.061685 118.696897 
L 95.306338 158.218481 
L 95.550991 136.96066 
L 95.795644 140.852937 
L 96.040297 138.00858 
L 96.28495 133.667194 
L 96.529603 143.098481 
L 96.774256 141.451749 
L 97.018909 162.709571 
L 97.263562 144.894917 
L 97.508215 136.361848 
L 97.752869 123.487392 
L 97.997522 144.595511 
L 98.242175 130.224026 
L 98.486828 142.49967 
L 98.731481 124.535313 
L 98.976134 137.858877 
L 99.220787 134.864818 
L 99.46544 152.829175 
L 99.710093 135.014521 
L 99.954746 142.948778 
L 100.199399 141.152343 
L 100.444052 148.487788 
L 100.688705 128.277887 
L 100.933358 137.260066 
L 101.178011 118.996303 
L 101.422664 142.49967 
L 101.667317 143.996699 
L 101.91197 156.571749 
L 102.156623 133.9666 
L 102.401276 162.410165 
L 102.890582 134.415709 
L 103.135235 129.026402 
L 103.379888 127.229967 
L 103.624541 129.026402 
L 103.869194 192.051353 
L 104.113847 152.529769 
L 104.3585 137.409769 
L 104.603153 138.906798 
L 104.847806 133.9666 
L 105.092459 124.235907 
L 105.337112 125.583234 
L 105.581765 137.409769 
L 105.826418 137.110363 
L 106.071071 136.511551 
L 106.315724 138.906798 
L 106.560377 130.822838 
L 106.80503 136.212145 
L 107.049683 131.122244 
L 107.294336 135.46363 
L 107.538989 137.260066 
L 107.783642 124.235907 
L 108.028295 146.391947 
L 108.272948 143.846996 
L 108.517601 146.691353 
L 108.762254 158.517887 
L 109.006907 133.517491 
L 109.25156 141.601452 
L 109.496213 138.158283 
L 109.740866 137.709175 
L 109.985519 149.236303 
L 110.230172 142.49967 
L 110.474825 131.571353 
L 110.719478 147.140462 
L 110.964131 141.451749 
L 111.208784 151.781254 
L 111.453437 139.805016 
L 111.942743 146.990759 
L 112.187396 126.032343 
L 112.432049 147.439868 
L 112.676702 128.42759 
L 112.921355 134.116303 
L 113.410661 153.577689 
L 113.655314 142.49967 
L 113.899967 150.58363 
L 114.14462 109.864422 
L 114.389273 146.841056 
L 114.878579 138.607392 
L 115.123232 140.703234 
L 115.367885 139.355907 
L 115.612538 138.906798 
L 115.857191 138.158283 
L 116.101844 153.12858 
L 116.346497 147.739274 
L 116.59115 123.038283 
L 117.080456 127.978481 
L 117.325109 149.835115 
L 117.569762 130.224026 
L 117.814415 126.780858 
L 118.059068 161.66165 
L 118.303721 133.667194 
L 118.548374 127.529373 
L 118.793027 137.409769 
L 119.03768 152.380066 
L 119.282333 108.367392 
L 119.526986 120.942442 
L 119.771639 144.296105 
L 120.016292 134.715115 
L 120.260946 138.00858 
L 120.750252 116.601056 
L 120.994905 146.242244 
L 121.239558 148.637491 
L 121.484211 144.445808 
L 121.728864 121.690957 
L 121.973517 139.954719 
L 122.21817 135.912739 
L 122.462823 126.930561 
L 122.707476 143.098481 
L 122.952129 138.906798 
L 123.196782 139.50561 
L 123.441435 147.290165 
L 123.686088 133.068382 
L 123.930741 140.852937 
L 124.175394 130.373729 
L 124.420047 138.457689 
L 124.6647 141.751155 
L 124.909353 152.679472 
L 125.154006 130.673135 
L 125.398659 136.511551 
L 125.643312 145.194323 
L 125.887965 131.721056 
L 126.132618 130.822838 
L 126.377271 130.523432 
L 126.621924 135.912739 
L 126.866577 119.595115 
L 127.11123 126.930561 
L 127.355883 168.697689 
L 127.600536 127.978481 
L 127.845189 142.200264 
L 128.089842 146.092541 
L 128.334495 118.8466 
L 128.579148 135.46363 
L 129.068454 144.745214 
L 129.313107 139.954719 
L 129.55776 145.793135 
L 129.802413 135.164224 
L 130.047066 136.96066 
L 130.291719 161.062838 
L 130.536372 139.655313 
L 130.781025 136.212145 
L 131.025678 135.912739 
L 131.270331 147.290165 
L 131.514984 125.134125 
L 131.759637 151.182442 
L 132.00429 151.332145 
L 132.248943 148.338085 
L 132.493596 121.84066 
L 132.982902 135.763036 
L 133.472208 128.277887 
L 133.716861 141.302046 
L 133.961514 143.248184 
L 134.206167 133.218085 
L 134.45082 136.511551 
L 134.695473 166.901254 
L 135.184779 118.8466 
L 135.429432 134.715115 
L 135.674085 132.918679 
L 135.918738 137.110363 
L 136.163391 132.020462 
L 136.408044 132.619274 
L 136.652697 143.697293 
L 136.89735 147.290165 
L 137.142003 127.679075 
L 137.386656 178.428382 
L 137.631309 133.367788 
L 137.875962 136.212145 
L 138.365268 116.002244 
L 138.854574 124.535313 
L 139.099227 142.200264 
L 139.34388 140.254125 
L 139.588533 150.883036 
L 139.833186 128.577293 
L 140.077839 120.044224 
L 140.322492 145.793135 
L 140.567145 121.391551 
L 140.811798 140.104422 
L 141.056451 138.457689 
L 141.301104 140.852937 
L 141.545757 140.703234 
L 141.79041 140.703234 
L 142.035063 138.00858 
L 142.279716 130.822838 
L 142.524369 144.595511 
L 142.769023 138.607392 
L 143.013676 144.296105 
L 143.502982 141.00264 
L 143.747635 135.613333 
L 143.992288 136.810957 
L 144.236941 134.864818 
L 144.481594 149.984818 
L 144.726247 131.571353 
L 144.9709 139.805016 
L 145.460206 132.170165 
L 145.704859 133.9666 
L 145.949512 142.200264 
L 146.194165 128.577293 
L 146.438818 152.679472 
L 146.683471 145.194323 
L 146.928124 141.601452 
L 147.172777 130.673135 
L 147.41743 132.170165 
L 147.906736 139.355907 
L 148.151389 148.487788 
L 148.640695 121.990363 
L 148.885348 135.613333 
L 149.130001 138.607392 
L 149.374654 127.828778 
L 149.86396 137.409769 
L 150.108613 165.553927 
L 150.353266 151.930957 
L 150.597919 156.871155 
L 150.842572 151.781254 
L 151.087225 106.72066 
L 151.331878 124.38561 
L 151.576531 152.230363 
L 151.821184 150.883036 
L 152.065837 140.852937 
L 152.31049 125.732937 
L 152.555143 121.241848 
L 152.799796 134.565412 
L 153.044449 124.834719 
L 153.289102 126.780858 
L 153.533755 138.457689 
L 153.778408 141.152343 
L 154.023061 148.936897 
L 154.267714 136.212145 
L 154.512367 136.062442 
L 154.75702 143.846996 
L 155.001673 141.451749 
L 155.246326 146.54165 
L 155.490979 136.661254 
L 155.735632 136.661254 
L 155.980285 137.260066 
L 156.224938 163.607788 
L 156.469591 101.630759 
L 156.714244 130.373729 
L 156.958897 133.816897 
L 157.20355 141.900858 
L 157.448203 134.565412 
L 157.692856 144.146402 
L 157.937509 134.864818 
L 158.182162 158.817293 
L 158.426815 152.08066 
L 158.671468 104.624818 
L 159.160774 148.338085 
L 159.405427 119.445412 
L 159.65008 137.409769 
L 159.894733 145.493729 
L 160.139386 126.481452 
L 160.384039 142.49967 
L 160.628692 127.679075 
L 161.117998 145.04462 
L 161.362651 120.193927 
L 161.607304 138.158283 
L 161.851957 132.619274 
L 162.09661 168.997095 
L 162.585916 126.631155 
L 162.830569 123.187986 
L 163.075222 166.601848 
L 163.564528 121.84066 
L 163.809181 133.517491 
L 164.298487 121.690957 
L 164.54314 144.595511 
L 164.787793 143.54759 
L 165.032447 137.260066 
L 165.2771 181.272739 
L 165.521753 142.649373 
L 165.766406 132.170165 
L 166.011059 131.721056 
L 166.255712 135.912739 
L 166.500365 134.565412 
L 166.745018 138.757095 
L 166.989671 130.224026 
L 167.234324 142.49967 
L 167.72363 136.212145 
L 167.968283 138.757095 
L 168.212936 131.721056 
L 168.457589 132.768976 
L 168.702242 138.158283 
L 168.946895 148.188382 
L 169.191548 144.146402 
L 169.436201 132.918679 
L 169.925507 141.601452 
L 170.17016 140.403828 
L 170.659466 130.074323 
L 170.904119 142.349967 
L 171.393425 134.864818 
L 171.638078 138.307986 
L 171.882731 139.954719 
L 172.127384 145.942838 
L 172.372037 142.649373 
L 172.61669 127.978481 
L 172.861343 145.194323 
L 173.105996 150.284224 
L 173.350649 138.307986 
L 173.595302 136.810957 
L 174.084608 145.643432 
L 174.329261 131.122244 
L 174.573914 138.307986 
L 174.818567 130.373729 
L 175.552526 148.487788 
L 175.797179 149.685412 
L 176.041832 127.978481 
L 176.286485 135.46363 
L 176.531138 135.613333 
L 176.775791 130.822838 
L 177.020444 132.170165 
L 177.265097 126.481452 
L 177.50975 141.302046 
L 177.754403 141.302046 
L 177.999056 136.96066 
L 178.488362 151.182442 
L 178.733015 139.954719 
L 178.977668 139.954719 
L 179.222321 136.062442 
L 179.466974 161.362244 
L 179.711627 119.595115 
L 179.95628 134.565412 
L 180.200933 110.912343 
L 180.445586 137.709175 
L 180.690239 220.045808 
L 180.934892 139.805016 
L 181.424198 146.54165 
L 181.668851 127.828778 
L 181.913504 173.488184 
L 182.158157 156.272343 
L 182.40281 128.128184 
L 182.647463 146.391947 
L 182.892116 136.661254 
L 183.136769 144.745214 
L 183.381422 117.948382 
L 183.626075 126.032343 
L 183.870728 147.589571 
L 184.115381 133.367788 
L 184.360034 134.864818 
L 184.604687 143.996699 
L 184.84934 129.475511 
L 185.093993 137.260066 
L 185.338646 119.146006 
L 185.583299 133.816897 
L 186.072605 142.200264 
L 186.317258 132.469571 
L 186.806564 148.188382 
L 187.051217 142.349967 
L 187.29587 154.326204 
L 187.540524 141.302046 
L 188.02983 128.277887 
L 188.274483 137.409769 
L 188.519136 139.655313 
L 189.008442 136.062442 
L 189.253095 150.433927 
L 189.497748 142.49967 
L 189.742401 129.325808 
L 189.987054 136.96066 
L 190.231707 129.625214 
L 190.47636 152.380066 
L 190.721013 127.37967 
L 190.965666 145.643432 
L 191.210319 132.619274 
L 191.454972 160.16462 
L 191.699625 135.014521 
L 191.944278 142.349967 
L 192.188931 139.50561 
L 192.433584 152.08066 
L 192.678237 142.050561 
L 192.92289 120.792739 
L 193.412196 156.871155 
L 193.656849 113.606996 
L 194.146155 181.572145 
L 194.635461 121.541254 
L 194.880114 148.637491 
L 195.124767 139.655313 
L 195.36942 119.445412 
L 195.614073 126.182046 
L 195.858726 112.858481 
L 196.103379 149.236303 
L 196.348032 126.182046 
L 196.592685 125.88264 
L 196.837338 141.152343 
L 197.081991 127.828778 
L 197.326644 133.9666 
L 197.571297 131.571353 
L 197.81595 121.690957 
L 198.305256 155.673531 
L 198.549909 137.409769 
L 198.794562 237.860462 
L 199.039215 158.517887 
L 199.283868 137.260066 
L 199.528521 134.565412 
L 199.773174 129.026402 
L 200.26248 135.763036 
L 200.507133 145.493729 
L 200.751786 114.654917 
L 200.996439 161.811353 
L 201.241092 135.164224 
L 201.485745 127.37967 
L 201.730398 135.46363 
L 201.975051 130.074323 
L 202.219704 138.906798 
L 202.464357 129.176105 
L 202.70901 155.374125 
L 202.953663 115.852541 
L 203.198316 123.038283 
L 203.442969 154.176501 
L 203.687622 138.307986 
L 203.932275 150.134521 
L 204.176928 132.918679 
L 204.421581 161.212541 
L 204.666234 131.42165 
L 204.910887 159.865214 
L 205.15554 141.900858 
L 205.400193 139.655313 
L 205.644846 110.313531 
L 206.134152 137.709175 
L 206.378805 121.84066 
L 206.623458 138.158283 
L 206.868111 137.858877 
L 207.112764 124.38561 
L 207.357417 148.338085 
L 207.60207 138.158283 
L 207.846723 149.0866 
L 208.091376 139.50561 
L 208.336029 143.996699 
L 208.580682 154.475907 
L 208.825335 126.032343 
L 209.069988 127.229967 
L 209.559294 151.481848 
L 209.803947 147.739274 
L 210.293254 151.332145 
L 210.537907 140.104422 
L 210.78256 120.942442 
L 211.027213 152.08066 
L 211.271866 133.9666 
L 211.516519 134.864818 
L 211.761172 132.170165 
L 212.005825 151.332145 
L 212.250478 150.433927 
L 212.495131 248.040264 
L 212.984437 92.798283 
L 213.473743 138.757095 
L 213.718396 123.936501 
L 213.963049 162.709571 
L 214.452355 91.60066 
L 214.697008 139.50561 
L 215.186314 131.42165 
L 215.430967 139.954719 
L 215.67562 142.649373 
L 215.920273 132.170165 
L 216.164926 130.673135 
L 216.409579 147.439868 
L 216.654232 132.319868 
L 216.898885 134.116303 
L 217.143538 133.816897 
L 217.388191 131.271947 
L 217.632844 136.511551 
L 217.877497 157.469967 
L 218.856109 120.792739 
L 219.100762 150.883036 
L 219.345415 163.008976 
L 219.590068 152.230363 
L 219.834721 149.685412 
L 220.079374 118.397491 
L 220.324027 141.601452 
L 220.56868 132.469571 
L 220.813333 144.745214 
L 221.057986 135.613333 
L 221.302639 138.457689 
L 221.791945 165.104818 
L 222.036598 139.50561 
L 222.281251 140.703234 
L 222.525904 111.062046 
L 222.770557 131.870759 
L 223.01521 137.409769 
L 223.259863 160.613729 
L 223.504516 141.900858 
L 223.749169 145.493729 
L 223.993822 139.50561 
L 224.238475 115.553135 
L 224.727781 145.194323 
L 224.972434 135.164224 
L 225.217087 146.391947 
L 225.46174 146.990759 
L 225.706393 150.733333 
L 225.951046 115.852541 
L 226.195699 139.805016 
L 226.440352 133.218085 
L 226.685005 147.739274 
L 226.929658 140.254125 
L 227.174311 123.936501 
L 227.418964 132.469571 
L 227.663617 153.427986 
L 227.90827 148.787194 
L 228.152923 132.469571 
L 228.397576 129.176105 
L 228.642229 149.0866 
L 228.886882 147.140462 
L 229.131535 129.475511 
L 229.376188 124.086204 
L 229.620841 144.146402 
L 229.865494 142.799075 
L 230.110147 124.535313 
L 230.3548 126.930561 
L 230.599453 130.673135 
L 230.844106 148.338085 
L 231.088759 150.733333 
L 231.333412 143.846996 
L 231.578065 126.631155 
L 231.822718 147.439868 
L 232.067371 141.00264 
L 232.312024 113.906402 
L 232.556678 145.04462 
L 232.801331 152.529769 
L 233.045984 142.649373 
L 233.290637 139.805016 
L 233.53529 131.122244 
L 233.779943 153.12858 
L 234.024596 148.487788 
L 234.269249 153.278283 
L 234.513902 145.344026 
L 234.758555 131.721056 
L 235.003208 134.415709 
L 235.247861 147.290165 
L 235.492514 144.894917 
L 235.98182 137.409769 
L 236.226473 126.631155 
L 236.471126 145.942838 
L 236.715779 131.571353 
L 237.205085 163.158679 
L 237.449738 140.104422 
L 237.694391 147.589571 
L 237.939044 169.446204 
L 238.183697 138.607392 
L 238.42835 134.715115 
L 238.673003 135.613333 
L 238.917656 138.757095 
L 239.162309 143.397887 
L 239.406962 152.08066 
L 239.896268 125.732937 
L 240.385574 131.122244 
L 240.630227 139.655313 
L 240.87488 128.726996 
L 241.119533 141.900858 
L 241.364186 146.990759 
L 241.608839 118.547194 
L 242.098145 174.835511 
L 242.342798 140.852937 
L 242.587451 133.667194 
L 242.832104 121.990363 
L 243.076757 137.709175 
L 243.32141 120.193927 
L 243.566063 139.056501 
L 243.810716 138.158283 
L 244.055369 153.427986 
L 244.300022 132.319868 
L 244.544675 154.326204 
L 244.789328 136.062442 
L 245.033981 136.810957 
L 245.278634 147.739274 
L 245.523287 138.307986 
L 245.76794 146.990759 
L 246.257246 136.361848 
L 246.501899 149.984818 
L 246.746552 140.852937 
L 246.991205 154.176501 
L 247.235858 176.78165 
L 247.480511 173.637887 
L 247.725164 159.715511 
L 247.969817 97.13967 
L 248.21447 128.277887 
L 248.459123 137.409769 
L 248.948429 162.110759 
L 249.193082 126.182046 
L 249.682388 157.61967 
L 249.927041 125.134125 
L 250.171694 151.930957 
L 250.416347 123.637095 
L 250.661 148.787194 
L 250.905653 143.996699 
L 251.150306 130.373729 
L 251.394959 133.816897 
L 251.884265 146.691353 
L 252.128918 139.655313 
L 252.373571 145.493729 
L 252.862877 143.098481 
L 253.10753 139.50561 
L 253.352183 148.936897 
L 253.596836 140.403828 
L 253.841489 119.295709 
L 254.086142 146.990759 
L 254.330795 110.463234 
L 254.575448 121.391551 
L 254.820101 137.409769 
L 255.064755 134.415709 
L 255.309408 123.038283 
L 255.554061 136.96066 
L 255.798714 138.607392 
L 256.043367 142.948778 
L 256.28802 121.990363 
L 256.532673 129.325808 
L 256.777326 129.026402 
L 257.021979 150.883036 
L 257.266632 140.254125 
L 257.511285 139.206204 
L 257.755938 116.900462 
L 258.000591 134.266006 
L 258.245244 161.511947 
L 258.73455 123.936501 
L 258.979203 142.799075 
L 259.223856 147.439868 
L 259.468509 120.493333 
L 259.957815 147.888976 
L 260.202468 276.334125 
L 260.447121 103.576897 
L 260.691774 145.942838 
L 260.936427 148.787194 
L 261.18108 130.074323 
L 261.425733 142.799075 
L 261.670386 148.338085 
L 261.915039 126.331749 
L 262.159692 135.613333 
L 262.404345 213.309175 
L 262.648998 132.918679 
L 262.893651 120.34363 
L 263.138304 148.487788 
L 263.382957 132.170165 
L 263.62761 143.397887 
L 263.872263 147.140462 
L 264.116916 135.014521 
L 264.361569 131.122244 
L 264.606222 100.582838 
L 264.850875 145.493729 
L 265.095528 124.685016 
L 265.340181 137.409769 
L 265.584834 182.919472 
L 265.829487 152.08066 
L 266.07414 139.056501 
L 266.318793 155.374125 
L 266.563446 148.188382 
L 266.808099 120.942442 
L 267.052752 138.00858 
L 267.297405 146.691353 
L 267.542058 140.403828 
L 267.786711 118.8466 
L 268.031364 134.266006 
L 268.276017 139.056501 
L 268.52067 131.122244 
L 268.765323 138.307986 
L 269.009976 119.295709 
L 269.254629 145.793135 
L 269.499282 145.194323 
L 269.743935 136.661254 
L 269.988588 153.427986 
L 270.233241 146.242244 
L 270.477894 176.182838 
L 270.722547 142.649373 
L 271.211853 132.020462 
L 271.456506 145.04462 
L 271.701159 114.355511 
L 271.945812 167.350363 
L 272.190465 134.715115 
L 272.435118 141.152343 
L 272.679771 121.990363 
L 272.924424 123.487392 
L 273.169077 146.092541 
L 273.41373 124.685016 
L 273.658383 153.577689 
L 273.903036 197.740066 
L 274.147689 112.559075 
L 274.392342 127.229967 
L 274.636995 183.069175 
L 274.881648 115.104026 
L 275.126301 124.834719 
L 275.370954 163.308382 
L 275.615607 140.703234 
L 275.86026 142.948778 
L 276.104913 148.487788 
L 276.349566 138.158283 
L 276.594219 115.403432 
L 276.838872 106.271551 
L 277.083525 113.606996 
L 277.328178 128.726996 
L 277.572832 133.667194 
L 277.817485 110.912343 
L 278.062138 151.631551 
L 278.306791 122.289769 
L 278.551444 136.96066 
L 278.796097 139.056501 
L 279.04075 137.110363 
L 279.285403 152.829175 
L 279.530056 118.996303 
L 279.774709 127.679075 
L 280.019362 145.793135 
L 280.264015 134.565412 
L 280.508668 129.176105 
L 280.753321 151.332145 
L 280.997974 146.391947 
L 281.242627 137.709175 
L 281.48728 135.763036 
L 281.976586 145.643432 
L 282.221239 143.697293 
L 282.465892 137.559472 
L 282.710545 135.613333 
L 282.955198 129.475511 
L 283.444504 154.176501 
L 283.689157 140.703234 
L 283.93381 148.787194 
L 284.178463 131.271947 
L 284.667769 136.511551 
L 284.912422 142.649373 
L 285.157075 142.200264 
L 285.401728 147.439868 
L 285.646381 130.523432 
L 285.891034 147.589571 
L 286.135687 130.822838 
L 286.38034 132.170165 
L 286.624993 141.451749 
L 286.869646 122.289769 
L 287.358952 150.134521 
L 287.603605 131.42165 
L 287.848258 134.565412 
L 288.092911 134.864818 
L 288.337564 145.04462 
L 288.582217 124.235907 
L 288.82687 141.900858 
L 289.071523 131.571353 
L 289.316176 138.906798 
L 289.805482 162.859274 
L 290.050135 129.92462 
L 290.294788 144.445808 
L 290.539441 142.349967 
L 290.784094 129.176105 
L 291.028747 141.900858 
L 291.518053 124.535313 
L 292.007359 148.338085 
L 292.252012 141.601452 
L 292.496665 129.92462 
L 292.741318 137.559472 
L 292.985971 126.780858 
L 293.230624 139.206204 
L 293.475277 112.409373 
L 293.71993 143.846996 
L 293.964583 117.648976 
L 294.453889 142.349967 
L 294.698542 145.793135 
L 294.943195 143.996699 
L 295.432501 137.409769 
L 295.677154 137.858877 
L 295.921807 139.50561 
L 296.16646 139.50561 
L 296.411113 137.260066 
L 296.655766 138.158283 
L 296.900419 155.972937 
L 297.145072 153.727392 
L 297.634378 130.074323 
L 297.879031 136.661254 
L 298.123684 136.810957 
L 298.368337 133.667194 
L 298.61299 138.906798 
L 298.857643 136.361848 
L 299.102296 116.151947 
L 299.346949 190.105214 
L 299.836256 118.247788 
L 300.080909 123.187986 
L 300.570215 147.290165 
L 300.814868 154.62561 
L 301.059521 132.319868 
L 301.304174 130.373729 
L 301.548827 119.894521 
L 301.79348 139.805016 
L 302.038133 131.271947 
L 302.527439 138.00858 
L 302.772092 140.703234 
L 303.016745 129.774917 
L 303.261398 141.900858 
L 303.506051 128.577293 
L 303.750704 77.229175 
L 304.24001 145.04462 
L 304.484663 129.475511 
L 304.729316 121.391551 
L 304.973969 139.954719 
L 305.218622 136.511551 
L 305.707928 157.469967 
L 305.952581 132.619274 
L 306.197234 139.206204 
L 306.441887 123.487392 
L 306.68654 145.04462 
L 306.931193 132.619274 
L 307.175846 142.948778 
L 307.420499 138.307986 
L 307.665152 139.206204 
L 307.909805 127.978481 
L 308.154458 144.146402 
L 308.643764 127.37967 
L 308.888417 142.948778 
L 309.13307 137.709175 
L 309.377723 134.864818 
L 309.622376 145.942838 
L 310.111682 133.816897 
L 310.356335 138.607392 
L 310.600988 139.355907 
L 310.845641 136.810957 
L 311.090294 132.768976 
L 311.334947 140.553531 
L 311.5796 142.649373 
L 311.824253 148.637491 
L 312.068906 134.864818 
L 312.313559 171.24264 
L 312.558212 112.858481 
L 312.802865 153.12858 
L 313.047518 134.266006 
L 313.292171 124.535313 
L 313.781477 140.703234 
L 314.02613 141.152343 
L 314.270783 125.732937 
L 314.760089 150.284224 
L 315.004742 145.344026 
L 315.249395 123.786798 
L 315.494048 136.661254 
L 315.738701 78.875907 
L 316.228007 159.565808 
L 316.717313 136.361848 
L 316.961966 128.277887 
L 317.206619 129.026402 
L 317.451272 152.829175 
L 317.695925 156.12264 
L 317.940578 139.206204 
L 318.185231 144.146402 
L 318.429884 138.757095 
L 318.674537 146.391947 
L 318.91919 125.134125 
L 319.163843 143.397887 
L 319.408496 115.553135 
L 319.653149 129.92462 
L 320.142455 143.996699 
L 320.387108 131.42165 
L 320.631761 110.463234 
L 320.876414 164.056897 
L 321.121067 133.9666 
L 321.610373 157.469967 
L 321.855026 140.852937 
L 322.099679 142.050561 
L 322.344333 112.858481 
L 322.588986 141.601452 
L 322.833639 144.595511 
L 323.078292 162.260462 
L 323.322945 130.224026 
L 323.567598 152.978877 
L 323.812251 126.182046 
L 324.056904 145.793135 
L 324.301557 133.218085 
L 324.54621 129.176105 
L 324.790863 141.900858 
L 325.035516 120.643036 
L 325.280169 141.451749 
L 325.524822 136.361848 
L 325.769475 156.571749 
L 326.014128 143.697293 
L 326.258781 118.397491 
L 326.503434 198.189175 
L 326.748087 113.606996 
L 326.99274 130.972541 
L 327.237393 122.439472 
L 327.482046 125.433531 
L 327.726699 135.613333 
L 327.971352 139.206204 
L 328.216005 139.50561 
L 328.460658 125.732937 
L 328.705311 165.404224 
L 328.949964 131.721056 
L 329.194617 162.260462 
L 329.43927 130.373729 
L 329.683923 140.403828 
L 329.928576 135.014521 
L 330.173229 144.745214 
L 330.662535 132.918679 
L 330.907188 161.212541 
L 331.151841 134.415709 
L 331.396494 151.332145 
L 331.641147 135.763036 
L 331.8858 137.709175 
L 332.130453 137.559472 
L 332.375106 139.056501 
L 332.619759 136.96066 
L 332.864412 139.056501 
L 333.109065 131.721056 
L 333.353718 138.457689 
L 333.598371 127.37967 
L 333.843024 179.027194 
L 334.087677 124.685016 
L 334.33233 149.0866 
L 334.576983 162.110759 
L 334.821636 258.519472 
L 335.066289 136.96066 
L 335.310942 110.313531 
L 335.555595 181.422442 
L 335.800248 135.912739 
L 336.044901 148.188382 
L 336.289554 141.451749 
L 336.534207 142.948778 
L 336.77886 146.092541 
L 337.023513 133.9666 
L 337.268166 140.254125 
L 337.512819 132.918679 
L 337.757472 144.445808 
L 338.002125 138.906798 
L 338.246778 121.990363 
L 338.491431 124.834719 
L 338.736084 130.523432 
L 338.980737 123.637095 
L 339.470043 145.04462 
L 339.714696 134.415709 
L 339.959349 133.517491 
L 340.204002 138.158283 
L 340.448655 137.559472 
L 340.693308 146.092541 
L 340.937961 142.49967 
L 341.182614 130.822838 
L 341.427267 148.338085 
L 341.67192 137.709175 
L 341.916573 138.607392 
L 342.161226 134.565412 
L 342.405879 123.187986 
L 342.650532 135.763036 
L 342.895185 128.726996 
L 343.139838 141.451749 
L 343.384491 142.349967 
L 343.629144 134.266006 
L 344.11845 150.733333 
L 344.363103 134.864818 
L 344.607756 153.877095 
L 344.85241 135.164224 
L 345.097063 142.200264 
L 345.341716 137.110363 
L 345.586369 142.649373 
L 345.831022 127.978481 
L 346.075675 139.056501 
L 346.320328 141.152343 
L 346.564981 136.661254 
L 346.809634 151.332145 
L 347.054287 136.062442 
L 347.29894 141.900858 
L 347.543593 137.858877 
L 347.788246 141.900858 
L 348.032899 135.763036 
L 348.522205 168.098877 
L 348.766858 147.739274 
L 349.011511 137.260066 
L 349.256164 142.050561 
L 349.74547 138.00858 
L 349.990123 141.152343 
L 350.234776 134.116303 
L 350.724082 138.158283 
L 350.968735 136.212145 
L 351.213388 130.822838 
L 351.458041 140.852937 
L 351.702694 143.397887 
L 351.947347 120.792739 
L 352.192 132.469571 
L 352.681306 143.397887 
L 352.925959 130.822838 
L 353.170612 136.062442 
L 353.415265 148.487788 
L 353.659918 129.176105 
L 353.904571 137.559472 
L 354.149224 130.523432 
L 354.393877 147.589571 
L 354.883183 115.553135 
L 355.127836 114.654917 
L 355.372489 139.655313 
L 355.617142 147.439868 
L 355.861795 141.601452 
L 356.106448 152.679472 
L 356.351101 141.451749 
L 356.595754 139.805016 
L 356.840407 118.547194 
L 357.08506 139.355907 
L 357.329713 134.565412 
L 357.574366 148.637491 
L 357.819019 148.787194 
L 358.063672 129.92462 
L 358.308325 154.775313 
L 358.552978 132.170165 
L 358.797631 138.00858 
L 359.042284 146.691353 
L 359.286937 139.954719 
L 359.53159 140.403828 
L 359.776243 126.930561 
L 360.020896 151.032739 
L 360.265549 145.643432 
L 360.510202 136.661254 
L 360.754855 132.170165 
L 361.244161 155.673531 
L 361.488814 127.828778 
L 361.733467 154.925016 
L 361.97812 136.661254 
L 362.222773 142.799075 
L 362.467426 131.271947 
L 362.712079 148.637491 
L 362.956732 130.373729 
L 363.201385 134.415709 
L 363.446038 143.397887 
L 363.690691 125.732937 
L 363.935344 138.307986 
L 364.179997 130.074323 
L 364.42465 143.996699 
L 364.669303 141.302046 
L 364.913956 131.42165 
L 365.158609 180.82363 
L 365.403262 140.703234 
L 365.647915 148.038679 
L 365.892568 138.00858 
L 366.137221 140.703234 
L 366.381874 148.487788 
L 366.626527 132.918679 
L 367.115833 135.46363 
L 367.360487 142.349967 
L 367.60514 142.050561 
L 367.849793 143.697293 
L 368.094446 137.559472 
L 368.339099 144.894917 
L 368.583752 131.571353 
L 368.828405 145.194323 
L 369.317711 126.331749 
L 369.562364 133.9666 
L 369.807017 147.140462 
L 370.05167 154.326204 
L 370.540976 137.858877 
L 370.785629 133.218085 
L 371.030282 140.553531 
L 371.274935 134.864818 
L 371.519588 145.643432 
L 372.253547 134.116303 
L 372.4982 136.511551 
L 372.742853 142.050561 
L 372.987506 168.997095 
L 373.232159 132.469571 
L 373.721465 149.835115 
L 373.966118 124.834719 
L 374.210771 133.816897 
L 374.455424 137.110363 
L 374.94473 128.128184 
L 375.189383 137.858877 
L 375.434036 138.00858 
L 375.678689 143.54759 
L 375.923342 138.00858 
L 376.167995 137.858877 
L 376.412648 145.793135 
L 376.657301 146.092541 
L 376.901954 132.469571 
L 377.146607 135.763036 
L 377.39126 137.409769 
L 377.635913 138.158283 
L 377.880566 136.661254 
L 378.125219 139.655313 
L 378.369872 132.918679 
L 378.614525 136.661254 
L 378.859178 132.918679 
L 379.103831 123.936501 
L 379.348484 135.014521 
L 379.593137 155.523828 
L 379.83779 141.451749 
L 380.082443 145.344026 
L 380.327096 138.307986 
L 380.571749 141.751155 
L 380.816402 137.559472 
L 381.061055 142.799075 
L 381.305708 118.247788 
L 381.550361 125.88264 
L 381.795014 144.894917 
L 382.039667 139.355907 
L 382.28432 127.229967 
L 382.528973 137.409769 
L 382.773626 193.398679 
L 383.018279 102.079868 
L 383.262932 118.098085 
L 383.507585 34.414125 
L 383.507585 34.414125 
" style="fill:none;stroke:#ff7f0e;stroke-linecap:square;stroke-width:1.5;"/>
   </g>
   <g id="patch_3">
    <path d="M 42.620313 288.430125 
L 42.620313 22.318125 
" style="fill:none;stroke:#000000;stroke-linecap:square;stroke-linejoin:miter;stroke-width:0.8;"/>
   </g>
   <g id="patch_4">
    <path d="M 399.740313 288.430125 
L 399.740313 22.318125 
" style="fill:none;stroke:#000000;stroke-linecap:square;stroke-linejoin:miter;stroke-width:0.8;"/>
   </g>
   <g id="patch_5">
    <path d="M 42.620313 288.430125 
L 399.740313 288.430125 
" style="fill:none;stroke:#000000;stroke-linecap:square;stroke-linejoin:miter;stroke-width:0.8;"/>
   </g>
   <g id="patch_6">
    <path d="M 42.620313 22.318125 
L 399.740313 22.318125 
" style="fill:none;stroke:#000000;stroke-linecap:square;stroke-linejoin:miter;stroke-width:0.8;"/>
   </g>
   <g id="text_18">
    <!-- Training: QCOM -->
    <defs>
     <path d="M -0.296875 72.90625 
L 61.375 72.90625 
L 61.375 64.59375 
L 35.5 64.59375 
L 35.5 0 
L 25.59375 0 
L 25.59375 64.59375 
L -0.296875 64.59375 
z
" id="DejaVuSans-84"/>
     <path d="M 41.109375 46.296875 
Q 39.59375 47.171875 37.8125 47.578125 
Q 36.03125 48 33.890625 48 
Q 26.265625 48 22.1875 43.046875 
Q 18.109375 38.09375 18.109375 28.8125 
L 18.109375 0 
L 9.078125 0 
L 9.078125 54.6875 
L 18.109375 54.6875 
L 18.109375 46.1875 
Q 20.953125 51.171875 25.484375 53.578125 
Q 30.03125 56 36.53125 56 
Q 37.453125 56 38.578125 55.875 
Q 39.703125 55.765625 41.0625 55.515625 
z
" id="DejaVuSans-114"/>
     <path d="M 9.421875 54.6875 
L 18.40625 54.6875 
L 18.40625 0 
L 9.421875 0 
z
M 9.421875 75.984375 
L 18.40625 75.984375 
L 18.40625 64.59375 
L 9.421875 64.59375 
z
" id="DejaVuSans-105"/>
     <path d="M 11.71875 12.40625 
L 22.015625 12.40625 
L 22.015625 0 
L 11.71875 0 
z
M 11.71875 51.703125 
L 22.015625 51.703125 
L 22.015625 39.3125 
L 11.71875 39.3125 
z
" id="DejaVuSans-58"/>
     <path d="M 39.40625 66.21875 
Q 28.65625 66.21875 22.328125 58.203125 
Q 16.015625 50.203125 16.015625 36.375 
Q 16.015625 22.609375 22.328125 14.59375 
Q 28.65625 6.59375 39.40625 6.59375 
Q 50.140625 6.59375 56.421875 14.59375 
Q 62.703125 22.609375 62.703125 36.375 
Q 62.703125 50.203125 56.421875 58.203125 
Q 50.140625 66.21875 39.40625 66.21875 
z
M 53.21875 1.3125 
L 66.21875 -12.890625 
L 54.296875 -12.890625 
L 43.5 -1.21875 
Q 41.890625 -1.3125 41.03125 -1.359375 
Q 40.1875 -1.421875 39.40625 -1.421875 
Q 24.03125 -1.421875 14.8125 8.859375 
Q 5.609375 19.140625 5.609375 36.375 
Q 5.609375 53.65625 14.8125 63.9375 
Q 24.03125 74.21875 39.40625 74.21875 
Q 54.734375 74.21875 63.90625 63.9375 
Q 73.09375 53.65625 73.09375 36.375 
Q 73.09375 23.6875 67.984375 14.640625 
Q 62.890625 5.609375 53.21875 1.3125 
z
" id="DejaVuSans-81"/>
     <path d="M 39.40625 66.21875 
Q 28.65625 66.21875 22.328125 58.203125 
Q 16.015625 50.203125 16.015625 36.375 
Q 16.015625 22.609375 22.328125 14.59375 
Q 28.65625 6.59375 39.40625 6.59375 
Q 50.140625 6.59375 56.421875 14.59375 
Q 62.703125 22.609375 62.703125 36.375 
Q 62.703125 50.203125 56.421875 58.203125 
Q 50.140625 66.21875 39.40625 66.21875 
z
M 39.40625 74.21875 
Q 54.734375 74.21875 63.90625 63.9375 
Q 73.09375 53.65625 73.09375 36.375 
Q 73.09375 19.140625 63.90625 8.859375 
Q 54.734375 -1.421875 39.40625 -1.421875 
Q 24.03125 -1.421875 14.8125 8.828125 
Q 5.609375 19.09375 5.609375 36.375 
Q 5.609375 53.65625 14.8125 63.9375 
Q 24.03125 74.21875 39.40625 74.21875 
z
" id="DejaVuSans-79"/>
     <path d="M 9.8125 72.90625 
L 24.515625 72.90625 
L 43.109375 23.296875 
L 61.8125 72.90625 
L 76.515625 72.90625 
L 76.515625 0 
L 66.890625 0 
L 66.890625 64.015625 
L 48.09375 14.015625 
L 38.1875 14.015625 
L 19.390625 64.015625 
L 19.390625 0 
L 9.8125 0 
z
" id="DejaVuSans-77"/>
    </defs>
    <g transform="translate(174.768438 16.318125)scale(0.12 -0.12)">
     <use xlink:href="#DejaVuSans-84"/>
     <use x="46.333984" xlink:href="#DejaVuSans-114"/>
     <use x="87.447266" xlink:href="#DejaVuSans-97"/>
     <use x="148.726562" xlink:href="#DejaVuSans-105"/>
     <use x="176.509766" xlink:href="#DejaVuSans-110"/>
     <use x="239.888672" xlink:href="#DejaVuSans-105"/>
     <use x="267.671875" xlink:href="#DejaVuSans-110"/>
     <use x="331.050781" xlink:href="#DejaVuSans-103"/>
     <use x="394.527344" xlink:href="#DejaVuSans-58"/>
     <use x="428.21875" xlink:href="#DejaVuSans-32"/>
     <use x="460.005859" xlink:href="#DejaVuSans-81"/>
     <use x="538.716797" xlink:href="#DejaVuSans-67"/>
     <use x="608.541016" xlink:href="#DejaVuSans-79"/>
     <use x="687.251953" xlink:href="#DejaVuSans-77"/>
    </g>
   </g>
   <g id="legend_1">
    <g id="patch_7">
     <path d="M 49.620313 59.674375 
L 133.348438 59.674375 
Q 135.348438 59.674375 135.348438 57.674375 
L 135.348438 29.318125 
Q 135.348438 27.318125 133.348438 27.318125 
L 49.620313 27.318125 
Q 47.620313 27.318125 47.620313 29.318125 
L 47.620313 57.674375 
Q 47.620313 59.674375 49.620313 59.674375 
z
" style="fill:#ffffff;opacity:0.8;stroke:#cccccc;stroke-linejoin:miter;"/>
    </g>
    <g id="line2d_33">
     <path d="M 51.620313 35.416562 
L 71.620313 35.416562 
" style="fill:none;stroke:#1f77b4;stroke-linecap:square;stroke-width:1.5;"/>
    </g>
    <g id="line2d_34"/>
    <g id="text_19">
     <!-- Predicted -->
     <defs>
      <path d="M 19.671875 64.796875 
L 19.671875 37.40625 
L 32.078125 37.40625 
Q 38.96875 37.40625 42.71875 40.96875 
Q 46.484375 44.53125 46.484375 51.125 
Q 46.484375 57.671875 42.71875 61.234375 
Q 38.96875 64.796875 32.078125 64.796875 
z
M 9.8125 72.90625 
L 32.078125 72.90625 
Q 44.34375 72.90625 50.609375 67.359375 
Q 56.890625 61.8125 56.890625 51.125 
Q 56.890625 40.328125 50.609375 34.8125 
Q 44.34375 29.296875 32.078125 29.296875 
L 19.671875 29.296875 
L 19.671875 0 
L 9.8125 0 
z
" id="DejaVuSans-80"/>
      <path d="M 45.40625 46.390625 
L 45.40625 75.984375 
L 54.390625 75.984375 
L 54.390625 0 
L 45.40625 0 
L 45.40625 8.203125 
Q 42.578125 3.328125 38.25 0.953125 
Q 33.9375 -1.421875 27.875 -1.421875 
Q 17.96875 -1.421875 11.734375 6.484375 
Q 5.515625 14.40625 5.515625 27.296875 
Q 5.515625 40.1875 11.734375 48.09375 
Q 17.96875 56 27.875 56 
Q 33.9375 56 38.25 53.625 
Q 42.578125 51.265625 45.40625 46.390625 
z
M 14.796875 27.296875 
Q 14.796875 17.390625 18.875 11.75 
Q 22.953125 6.109375 30.078125 6.109375 
Q 37.203125 6.109375 41.296875 11.75 
Q 45.40625 17.390625 45.40625 27.296875 
Q 45.40625 37.203125 41.296875 42.84375 
Q 37.203125 48.484375 30.078125 48.484375 
Q 22.953125 48.484375 18.875 42.84375 
Q 14.796875 37.203125 14.796875 27.296875 
z
" id="DejaVuSans-100"/>
      <path d="M 48.78125 52.59375 
L 48.78125 44.1875 
Q 44.96875 46.296875 41.140625 47.34375 
Q 37.3125 48.390625 33.40625 48.390625 
Q 24.65625 48.390625 19.8125 42.84375 
Q 14.984375 37.3125 14.984375 27.296875 
Q 14.984375 17.28125 19.8125 11.734375 
Q 24.65625 6.203125 33.40625 6.203125 
Q 37.3125 6.203125 41.140625 7.25 
Q 44.96875 8.296875 48.78125 10.40625 
L 48.78125 2.09375 
Q 45.015625 0.34375 40.984375 -0.53125 
Q 36.96875 -1.421875 32.421875 -1.421875 
Q 20.0625 -1.421875 12.78125 6.34375 
Q 5.515625 14.109375 5.515625 27.296875 
Q 5.515625 40.671875 12.859375 48.328125 
Q 20.21875 56 33.015625 56 
Q 37.15625 56 41.109375 55.140625 
Q 45.0625 54.296875 48.78125 52.59375 
z
" id="DejaVuSans-99"/>
      <path d="M 18.3125 70.21875 
L 18.3125 54.6875 
L 36.8125 54.6875 
L 36.8125 47.703125 
L 18.3125 47.703125 
L 18.3125 18.015625 
Q 18.3125 11.328125 20.140625 9.421875 
Q 21.96875 7.515625 27.59375 7.515625 
L 36.8125 7.515625 
L 36.8125 0 
L 27.59375 0 
Q 17.1875 0 13.234375 3.875 
Q 9.28125 7.765625 9.28125 18.015625 
L 9.28125 47.703125 
L 2.6875 47.703125 
L 2.6875 54.6875 
L 9.28125 54.6875 
L 9.28125 70.21875 
z
" id="DejaVuSans-116"/>
     </defs>
     <g transform="translate(79.620313 38.916562)scale(0.1 -0.1)">
      <use xlink:href="#DejaVuSans-80"/>
      <use x="58.552734" xlink:href="#DejaVuSans-114"/>
      <use x="97.416016" xlink:href="#DejaVuSans-101"/>
      <use x="158.939453" xlink:href="#DejaVuSans-100"/>
      <use x="222.416016" xlink:href="#DejaVuSans-105"/>
      <use x="250.199219" xlink:href="#DejaVuSans-99"/>
      <use x="305.179688" xlink:href="#DejaVuSans-116"/>
      <use x="344.388672" xlink:href="#DejaVuSans-101"/>
      <use x="405.912109" xlink:href="#DejaVuSans-100"/>
     </g>
    </g>
    <g id="line2d_35">
     <path d="M 51.620313 50.094687 
L 71.620313 50.094687 
" style="fill:none;stroke:#ff7f0e;stroke-linecap:square;stroke-width:1.5;"/>
    </g>
    <g id="line2d_36"/>
    <g id="text_20">
     <!-- True value -->
     <defs>
      <path d="M 8.5 21.578125 
L 8.5 54.6875 
L 17.484375 54.6875 
L 17.484375 21.921875 
Q 17.484375 14.15625 20.5 10.265625 
Q 23.53125 6.390625 29.59375 6.390625 
Q 36.859375 6.390625 41.078125 11.03125 
Q 45.3125 15.671875 45.3125 23.6875 
L 45.3125 54.6875 
L 54.296875 54.6875 
L 54.296875 0 
L 45.3125 0 
L 45.3125 8.40625 
Q 42.046875 3.421875 37.71875 1 
Q 33.40625 -1.421875 27.6875 -1.421875 
Q 18.265625 -1.421875 13.375 4.4375 
Q 8.5 10.296875 8.5 21.578125 
z
M 31.109375 56 
z
" id="DejaVuSans-117"/>
      <path d="M 2.984375 54.6875 
L 12.5 54.6875 
L 29.59375 8.796875 
L 46.6875 54.6875 
L 56.203125 54.6875 
L 35.6875 0 
L 23.484375 0 
z
" id="DejaVuSans-118"/>
      <path d="M 9.421875 75.984375 
L 18.40625 75.984375 
L 18.40625 0 
L 9.421875 0 
z
" id="DejaVuSans-108"/>
     </defs>
     <g transform="translate(79.620313 53.594687)scale(0.1 -0.1)">
      <use xlink:href="#DejaVuSans-84"/>
      <use x="46.333984" xlink:href="#DejaVuSans-114"/>
      <use x="87.447266" xlink:href="#DejaVuSans-117"/>
      <use x="150.826172" xlink:href="#DejaVuSans-101"/>
      <use x="212.349609" xlink:href="#DejaVuSans-32"/>
      <use x="244.136719" xlink:href="#DejaVuSans-118"/>
      <use x="303.316406" xlink:href="#DejaVuSans-97"/>
      <use x="364.595703" xlink:href="#DejaVuSans-108"/>
      <use x="392.378906" xlink:href="#DejaVuSans-117"/>
      <use x="455.757812" xlink:href="#DejaVuSans-101"/>
     </g>
    </g>
   </g>
  </g>
 </g>
 <defs>
  <clipPath id="p88570306c1">
   <rect height="266.112" width="357.12" x="42.620313" y="22.318125"/>
  </clipPath>
 </defs>
</svg>
