<?xml version="1.0" encoding="utf-8" standalone="no"?>
<!DOCTYPE svg PUBLIC "-//W3C//DTD SVG 1.1//EN"
  "http://www.w3.org/Graphics/SVG/1.1/DTD/svg11.dtd">
<!-- Created with matplotlib (https://matplotlib.org/) -->
<svg height="325.986375pt" version="1.1" viewBox="0 0 404.923125 325.986375" width="404.923125pt" xmlns="http://www.w3.org/2000/svg" xmlns:xlink="http://www.w3.org/1999/xlink">
 <defs>
  <style type="text/css">
*{stroke-linecap:butt;stroke-linejoin:round;}
  </style>
 </defs>
 <g id="figure_1">
  <g id="patch_1">
   <path d="M 0 325.986375 
L 404.923125 325.986375 
L 404.923125 0 
L 0 0 
z
" style="fill:#ffffff;"/>
  </g>
  <g id="axes_1">
   <g id="patch_2">
    <path d="M 40.603125 288.430125 
L 397.723125 288.430125 
L 397.723125 22.318125 
L 40.603125 22.318125 
z
" style="fill:#ffffff;"/>
   </g>
   <g id="matplotlib.axis_1">
    <g id="xtick_1">
     <g id="line2d_1">
      <path clip-path="url(#p0f8f95a52a)" d="M 56.835852 288.430125 
L 56.835852 22.318125 
" style="fill:none;stroke:#b0b0b0;stroke-dasharray:2.96,1.28;stroke-dashoffset:0;stroke-width:0.8;"/>
     </g>
     <g id="line2d_2">
      <defs>
       <path d="M 0 0 
L 0 3.5 
" id="mcbe51f1e64" style="stroke:#000000;stroke-width:0.8;"/>
      </defs>
      <g>
       <use style="stroke:#000000;stroke-width:0.8;" x="56.835852" xlink:href="#mcbe51f1e64" y="288.430125"/>
      </g>
     </g>
     <g id="text_1">
      <!-- 0 -->
      <defs>
       <path d="M 31.78125 66.40625 
Q 24.171875 66.40625 20.328125 58.90625 
Q 16.5 51.421875 16.5 36.375 
Q 16.5 21.390625 20.328125 13.890625 
Q 24.171875 6.390625 31.78125 6.390625 
Q 39.453125 6.390625 43.28125 13.890625 
Q 47.125 21.390625 47.125 36.375 
Q 47.125 51.421875 43.28125 58.90625 
Q 39.453125 66.40625 31.78125 66.40625 
z
M 31.78125 74.21875 
Q 44.046875 74.21875 50.515625 64.515625 
Q 56.984375 54.828125 56.984375 36.375 
Q 56.984375 17.96875 50.515625 8.265625 
Q 44.046875 -1.421875 31.78125 -1.421875 
Q 19.53125 -1.421875 13.0625 8.265625 
Q 6.59375 17.96875 6.59375 36.375 
Q 6.59375 54.828125 13.0625 64.515625 
Q 19.53125 74.21875 31.78125 74.21875 
z
" id="DejaVuSans-48"/>
      </defs>
      <g transform="translate(53.654602 303.028562)scale(0.1 -0.1)">
       <use xlink:href="#DejaVuSans-48"/>
      </g>
     </g>
    </g>
    <g id="xtick_2">
     <g id="line2d_3">
      <path clip-path="url(#p0f8f95a52a)" d="M 105.766454 288.430125 
L 105.766454 22.318125 
" style="fill:none;stroke:#b0b0b0;stroke-dasharray:2.96,1.28;stroke-dashoffset:0;stroke-width:0.8;"/>
     </g>
     <g id="line2d_4">
      <g>
       <use style="stroke:#000000;stroke-width:0.8;" x="105.766454" xlink:href="#mcbe51f1e64" y="288.430125"/>
      </g>
     </g>
     <g id="text_2">
      <!-- 200 -->
      <defs>
       <path d="M 19.1875 8.296875 
L 53.609375 8.296875 
L 53.609375 0 
L 7.328125 0 
L 7.328125 8.296875 
Q 12.9375 14.109375 22.625 23.890625 
Q 32.328125 33.6875 34.8125 36.53125 
Q 39.546875 41.84375 41.421875 45.53125 
Q 43.3125 49.21875 43.3125 52.78125 
Q 43.3125 58.59375 39.234375 62.25 
Q 35.15625 65.921875 28.609375 65.921875 
Q 23.96875 65.921875 18.8125 64.3125 
Q 13.671875 62.703125 7.8125 59.421875 
L 7.8125 69.390625 
Q 13.765625 71.78125 18.9375 73 
Q 24.125 74.21875 28.421875 74.21875 
Q 39.75 74.21875 46.484375 68.546875 
Q 53.21875 62.890625 53.21875 53.421875 
Q 53.21875 48.921875 51.53125 44.890625 
Q 49.859375 40.875 45.40625 35.40625 
Q 44.1875 33.984375 37.640625 27.21875 
Q 31.109375 20.453125 19.1875 8.296875 
z
" id="DejaVuSans-50"/>
      </defs>
      <g transform="translate(96.222704 303.028562)scale(0.1 -0.1)">
       <use xlink:href="#DejaVuSans-50"/>
       <use x="63.623047" xlink:href="#DejaVuSans-48"/>
       <use x="127.246094" xlink:href="#DejaVuSans-48"/>
      </g>
     </g>
    </g>
    <g id="xtick_3">
     <g id="line2d_5">
      <path clip-path="url(#p0f8f95a52a)" d="M 154.697057 288.430125 
L 154.697057 22.318125 
" style="fill:none;stroke:#b0b0b0;stroke-dasharray:2.96,1.28;stroke-dashoffset:0;stroke-width:0.8;"/>
     </g>
     <g id="line2d_6">
      <g>
       <use style="stroke:#000000;stroke-width:0.8;" x="154.697057" xlink:href="#mcbe51f1e64" y="288.430125"/>
      </g>
     </g>
     <g id="text_3">
      <!-- 400 -->
      <defs>
       <path d="M 37.796875 64.3125 
L 12.890625 25.390625 
L 37.796875 25.390625 
z
M 35.203125 72.90625 
L 47.609375 72.90625 
L 47.609375 25.390625 
L 58.015625 25.390625 
L 58.015625 17.1875 
L 47.609375 17.1875 
L 47.609375 0 
L 37.796875 0 
L 37.796875 17.1875 
L 4.890625 17.1875 
L 4.890625 26.703125 
z
" id="DejaVuSans-52"/>
      </defs>
      <g transform="translate(145.153307 303.028562)scale(0.1 -0.1)">
       <use xlink:href="#DejaVuSans-52"/>
       <use x="63.623047" xlink:href="#DejaVuSans-48"/>
       <use x="127.246094" xlink:href="#DejaVuSans-48"/>
      </g>
     </g>
    </g>
    <g id="xtick_4">
     <g id="line2d_7">
      <path clip-path="url(#p0f8f95a52a)" d="M 203.627659 288.430125 
L 203.627659 22.318125 
" style="fill:none;stroke:#b0b0b0;stroke-dasharray:2.96,1.28;stroke-dashoffset:0;stroke-width:0.8;"/>
     </g>
     <g id="line2d_8">
      <g>
       <use style="stroke:#000000;stroke-width:0.8;" x="203.627659" xlink:href="#mcbe51f1e64" y="288.430125"/>
      </g>
     </g>
     <g id="text_4">
      <!-- 600 -->
      <defs>
       <path d="M 33.015625 40.375 
Q 26.375 40.375 22.484375 35.828125 
Q 18.609375 31.296875 18.609375 23.390625 
Q 18.609375 15.53125 22.484375 10.953125 
Q 26.375 6.390625 33.015625 6.390625 
Q 39.65625 6.390625 43.53125 10.953125 
Q 47.40625 15.53125 47.40625 23.390625 
Q 47.40625 31.296875 43.53125 35.828125 
Q 39.65625 40.375 33.015625 40.375 
z
M 52.59375 71.296875 
L 52.59375 62.3125 
Q 48.875 64.0625 45.09375 64.984375 
Q 41.3125 65.921875 37.59375 65.921875 
Q 27.828125 65.921875 22.671875 59.328125 
Q 17.53125 52.734375 16.796875 39.40625 
Q 19.671875 43.65625 24.015625 45.921875 
Q 28.375 48.1875 33.59375 48.1875 
Q 44.578125 48.1875 50.953125 41.515625 
Q 57.328125 34.859375 57.328125 23.390625 
Q 57.328125 12.15625 50.6875 5.359375 
Q 44.046875 -1.421875 33.015625 -1.421875 
Q 20.359375 -1.421875 13.671875 8.265625 
Q 6.984375 17.96875 6.984375 36.375 
Q 6.984375 53.65625 15.1875 63.9375 
Q 23.390625 74.21875 37.203125 74.21875 
Q 40.921875 74.21875 44.703125 73.484375 
Q 48.484375 72.75 52.59375 71.296875 
z
" id="DejaVuSans-54"/>
      </defs>
      <g transform="translate(194.083909 303.028562)scale(0.1 -0.1)">
       <use xlink:href="#DejaVuSans-54"/>
       <use x="63.623047" xlink:href="#DejaVuSans-48"/>
       <use x="127.246094" xlink:href="#DejaVuSans-48"/>
      </g>
     </g>
    </g>
    <g id="xtick_5">
     <g id="line2d_9">
      <path clip-path="url(#p0f8f95a52a)" d="M 252.558261 288.430125 
L 252.558261 22.318125 
" style="fill:none;stroke:#b0b0b0;stroke-dasharray:2.96,1.28;stroke-dashoffset:0;stroke-width:0.8;"/>
     </g>
     <g id="line2d_10">
      <g>
       <use style="stroke:#000000;stroke-width:0.8;" x="252.558261" xlink:href="#mcbe51f1e64" y="288.430125"/>
      </g>
     </g>
     <g id="text_5">
      <!-- 800 -->
      <defs>
       <path d="M 31.78125 34.625 
Q 24.75 34.625 20.71875 30.859375 
Q 16.703125 27.09375 16.703125 20.515625 
Q 16.703125 13.921875 20.71875 10.15625 
Q 24.75 6.390625 31.78125 6.390625 
Q 38.8125 6.390625 42.859375 10.171875 
Q 46.921875 13.96875 46.921875 20.515625 
Q 46.921875 27.09375 42.890625 30.859375 
Q 38.875 34.625 31.78125 34.625 
z
M 21.921875 38.8125 
Q 15.578125 40.375 12.03125 44.71875 
Q 8.5 49.078125 8.5 55.328125 
Q 8.5 64.0625 14.71875 69.140625 
Q 20.953125 74.21875 31.78125 74.21875 
Q 42.671875 74.21875 48.875 69.140625 
Q 55.078125 64.0625 55.078125 55.328125 
Q 55.078125 49.078125 51.53125 44.71875 
Q 48 40.375 41.703125 38.8125 
Q 48.828125 37.15625 52.796875 32.3125 
Q 56.78125 27.484375 56.78125 20.515625 
Q 56.78125 9.90625 50.3125 4.234375 
Q 43.84375 -1.421875 31.78125 -1.421875 
Q 19.734375 -1.421875 13.25 4.234375 
Q 6.78125 9.90625 6.78125 20.515625 
Q 6.78125 27.484375 10.78125 32.3125 
Q 14.796875 37.15625 21.921875 38.8125 
z
M 18.3125 54.390625 
Q 18.3125 48.734375 21.84375 45.5625 
Q 25.390625 42.390625 31.78125 42.390625 
Q 38.140625 42.390625 41.71875 45.5625 
Q 45.3125 48.734375 45.3125 54.390625 
Q 45.3125 60.0625 41.71875 63.234375 
Q 38.140625 66.40625 31.78125 66.40625 
Q 25.390625 66.40625 21.84375 63.234375 
Q 18.3125 60.0625 18.3125 54.390625 
z
" id="DejaVuSans-56"/>
      </defs>
      <g transform="translate(243.014511 303.028562)scale(0.1 -0.1)">
       <use xlink:href="#DejaVuSans-56"/>
       <use x="63.623047" xlink:href="#DejaVuSans-48"/>
       <use x="127.246094" xlink:href="#DejaVuSans-48"/>
      </g>
     </g>
    </g>
    <g id="xtick_6">
     <g id="line2d_11">
      <path clip-path="url(#p0f8f95a52a)" d="M 301.488863 288.430125 
L 301.488863 22.318125 
" style="fill:none;stroke:#b0b0b0;stroke-dasharray:2.96,1.28;stroke-dashoffset:0;stroke-width:0.8;"/>
     </g>
     <g id="line2d_12">
      <g>
       <use style="stroke:#000000;stroke-width:0.8;" x="301.488863" xlink:href="#mcbe51f1e64" y="288.430125"/>
      </g>
     </g>
     <g id="text_6">
      <!-- 1000 -->
      <defs>
       <path d="M 12.40625 8.296875 
L 28.515625 8.296875 
L 28.515625 63.921875 
L 10.984375 60.40625 
L 10.984375 69.390625 
L 28.421875 72.90625 
L 38.28125 72.90625 
L 38.28125 8.296875 
L 54.390625 8.296875 
L 54.390625 0 
L 12.40625 0 
z
" id="DejaVuSans-49"/>
      </defs>
      <g transform="translate(288.763863 303.028562)scale(0.1 -0.1)">
       <use xlink:href="#DejaVuSans-49"/>
       <use x="63.623047" xlink:href="#DejaVuSans-48"/>
       <use x="127.246094" xlink:href="#DejaVuSans-48"/>
       <use x="190.869141" xlink:href="#DejaVuSans-48"/>
      </g>
     </g>
    </g>
    <g id="xtick_7">
     <g id="line2d_13">
      <path clip-path="url(#p0f8f95a52a)" d="M 350.419465 288.430125 
L 350.419465 22.318125 
" style="fill:none;stroke:#b0b0b0;stroke-dasharray:2.96,1.28;stroke-dashoffset:0;stroke-width:0.8;"/>
     </g>
     <g id="line2d_14">
      <g>
       <use style="stroke:#000000;stroke-width:0.8;" x="350.419465" xlink:href="#mcbe51f1e64" y="288.430125"/>
      </g>
     </g>
     <g id="text_7">
      <!-- 1200 -->
      <g transform="translate(337.694465 303.028562)scale(0.1 -0.1)">
       <use xlink:href="#DejaVuSans-49"/>
       <use x="63.623047" xlink:href="#DejaVuSans-50"/>
       <use x="127.246094" xlink:href="#DejaVuSans-48"/>
       <use x="190.869141" xlink:href="#DejaVuSans-48"/>
      </g>
     </g>
    </g>
    <g id="text_8">
     <!-- Day -->
     <defs>
      <path d="M 19.671875 64.796875 
L 19.671875 8.109375 
L 31.59375 8.109375 
Q 46.6875 8.109375 53.6875 14.9375 
Q 60.6875 21.78125 60.6875 36.53125 
Q 60.6875 51.171875 53.6875 57.984375 
Q 46.6875 64.796875 31.59375 64.796875 
z
M 9.8125 72.90625 
L 30.078125 72.90625 
Q 51.265625 72.90625 61.171875 64.09375 
Q 71.09375 55.28125 71.09375 36.53125 
Q 71.09375 17.671875 61.125 8.828125 
Q 51.171875 0 30.078125 0 
L 9.8125 0 
z
" id="DejaVuSans-68"/>
      <path d="M 34.28125 27.484375 
Q 23.390625 27.484375 19.1875 25 
Q 14.984375 22.515625 14.984375 16.5 
Q 14.984375 11.71875 18.140625 8.90625 
Q 21.296875 6.109375 26.703125 6.109375 
Q 34.1875 6.109375 38.703125 11.40625 
Q 43.21875 16.703125 43.21875 25.484375 
L 43.21875 27.484375 
z
M 52.203125 31.203125 
L 52.203125 0 
L 43.21875 0 
L 43.21875 8.296875 
Q 40.140625 3.328125 35.546875 0.953125 
Q 30.953125 -1.421875 24.3125 -1.421875 
Q 15.921875 -1.421875 10.953125 3.296875 
Q 6 8.015625 6 15.921875 
Q 6 25.140625 12.171875 29.828125 
Q 18.359375 34.515625 30.609375 34.515625 
L 43.21875 34.515625 
L 43.21875 35.40625 
Q 43.21875 41.609375 39.140625 45 
Q 35.0625 48.390625 27.6875 48.390625 
Q 23 48.390625 18.546875 47.265625 
Q 14.109375 46.140625 10.015625 43.890625 
L 10.015625 52.203125 
Q 14.9375 54.109375 19.578125 55.046875 
Q 24.21875 56 28.609375 56 
Q 40.484375 56 46.34375 49.84375 
Q 52.203125 43.703125 52.203125 31.203125 
z
" id="DejaVuSans-97"/>
      <path d="M 32.171875 -5.078125 
Q 28.375 -14.84375 24.75 -17.8125 
Q 21.140625 -20.796875 15.09375 -20.796875 
L 7.90625 -20.796875 
L 7.90625 -13.28125 
L 13.1875 -13.28125 
Q 16.890625 -13.28125 18.9375 -11.515625 
Q 21 -9.765625 23.484375 -3.21875 
L 25.09375 0.875 
L 2.984375 54.6875 
L 12.5 54.6875 
L 29.59375 11.921875 
L 46.6875 54.6875 
L 56.203125 54.6875 
z
" id="DejaVuSans-121"/>
     </defs>
     <g transform="translate(209.289688 316.706687)scale(0.1 -0.1)">
      <use xlink:href="#DejaVuSans-68"/>
      <use x="77.001953" xlink:href="#DejaVuSans-97"/>
      <use x="138.28125" xlink:href="#DejaVuSans-121"/>
     </g>
    </g>
   </g>
   <g id="matplotlib.axis_2">
    <g id="ytick_1">
     <g id="line2d_15">
      <path clip-path="url(#p0f8f95a52a)" d="M 40.603125 263.594733 
L 397.723125 263.594733 
" style="fill:none;stroke:#b0b0b0;stroke-dasharray:2.96,1.28;stroke-dashoffset:0;stroke-width:0.8;"/>
     </g>
     <g id="line2d_16">
      <defs>
       <path d="M 0 0 
L -3.5 0 
" id="m3ddee62386" style="stroke:#000000;stroke-width:0.8;"/>
      </defs>
      <g>
       <use style="stroke:#000000;stroke-width:0.8;" x="40.603125" xlink:href="#m3ddee62386" y="263.594733"/>
      </g>
     </g>
     <g id="text_9">
      <!-- 45 -->
      <defs>
       <path d="M 10.796875 72.90625 
L 49.515625 72.90625 
L 49.515625 64.59375 
L 19.828125 64.59375 
L 19.828125 46.734375 
Q 21.96875 47.46875 24.109375 47.828125 
Q 26.265625 48.1875 28.421875 48.1875 
Q 40.625 48.1875 47.75 41.5 
Q 54.890625 34.8125 54.890625 23.390625 
Q 54.890625 11.625 47.5625 5.09375 
Q 40.234375 -1.421875 26.90625 -1.421875 
Q 22.3125 -1.421875 17.546875 -0.640625 
Q 12.796875 0.140625 7.71875 1.703125 
L 7.71875 11.625 
Q 12.109375 9.234375 16.796875 8.0625 
Q 21.484375 6.890625 26.703125 6.890625 
Q 35.15625 6.890625 40.078125 11.328125 
Q 45.015625 15.765625 45.015625 23.390625 
Q 45.015625 31 40.078125 35.4375 
Q 35.15625 39.890625 26.703125 39.890625 
Q 22.75 39.890625 18.8125 39.015625 
Q 14.890625 38.140625 10.796875 36.28125 
z
" id="DejaVuSans-53"/>
      </defs>
      <g transform="translate(20.878125 267.393952)scale(0.1 -0.1)">
       <use xlink:href="#DejaVuSans-52"/>
       <use x="63.623047" xlink:href="#DejaVuSans-53"/>
      </g>
     </g>
    </g>
    <g id="ytick_2">
     <g id="line2d_17">
      <path clip-path="url(#p0f8f95a52a)" d="M 40.603125 232.370734 
L 397.723125 232.370734 
" style="fill:none;stroke:#b0b0b0;stroke-dasharray:2.96,1.28;stroke-dashoffset:0;stroke-width:0.8;"/>
     </g>
     <g id="line2d_18">
      <g>
       <use style="stroke:#000000;stroke-width:0.8;" x="40.603125" xlink:href="#m3ddee62386" y="232.370734"/>
      </g>
     </g>
     <g id="text_10">
      <!-- 50 -->
      <g transform="translate(20.878125 236.169953)scale(0.1 -0.1)">
       <use xlink:href="#DejaVuSans-53"/>
       <use x="63.623047" xlink:href="#DejaVuSans-48"/>
      </g>
     </g>
    </g>
    <g id="ytick_3">
     <g id="line2d_19">
      <path clip-path="url(#p0f8f95a52a)" d="M 40.603125 201.146735 
L 397.723125 201.146735 
" style="fill:none;stroke:#b0b0b0;stroke-dasharray:2.96,1.28;stroke-dashoffset:0;stroke-width:0.8;"/>
     </g>
     <g id="line2d_20">
      <g>
       <use style="stroke:#000000;stroke-width:0.8;" x="40.603125" xlink:href="#m3ddee62386" y="201.146735"/>
      </g>
     </g>
     <g id="text_11">
      <!-- 55 -->
      <g transform="translate(20.878125 204.945954)scale(0.1 -0.1)">
       <use xlink:href="#DejaVuSans-53"/>
       <use x="63.623047" xlink:href="#DejaVuSans-53"/>
      </g>
     </g>
    </g>
    <g id="ytick_4">
     <g id="line2d_21">
      <path clip-path="url(#p0f8f95a52a)" d="M 40.603125 169.922736 
L 397.723125 169.922736 
" style="fill:none;stroke:#b0b0b0;stroke-dasharray:2.96,1.28;stroke-dashoffset:0;stroke-width:0.8;"/>
     </g>
     <g id="line2d_22">
      <g>
       <use style="stroke:#000000;stroke-width:0.8;" x="40.603125" xlink:href="#m3ddee62386" y="169.922736"/>
      </g>
     </g>
     <g id="text_12">
      <!-- 60 -->
      <g transform="translate(20.878125 173.721955)scale(0.1 -0.1)">
       <use xlink:href="#DejaVuSans-54"/>
       <use x="63.623047" xlink:href="#DejaVuSans-48"/>
      </g>
     </g>
    </g>
    <g id="ytick_5">
     <g id="line2d_23">
      <path clip-path="url(#p0f8f95a52a)" d="M 40.603125 138.698737 
L 397.723125 138.698737 
" style="fill:none;stroke:#b0b0b0;stroke-dasharray:2.96,1.28;stroke-dashoffset:0;stroke-width:0.8;"/>
     </g>
     <g id="line2d_24">
      <g>
       <use style="stroke:#000000;stroke-width:0.8;" x="40.603125" xlink:href="#m3ddee62386" y="138.698737"/>
      </g>
     </g>
     <g id="text_13">
      <!-- 65 -->
      <g transform="translate(20.878125 142.497956)scale(0.1 -0.1)">
       <use xlink:href="#DejaVuSans-54"/>
       <use x="63.623047" xlink:href="#DejaVuSans-53"/>
      </g>
     </g>
    </g>
    <g id="ytick_6">
     <g id="line2d_25">
      <path clip-path="url(#p0f8f95a52a)" d="M 40.603125 107.474738 
L 397.723125 107.474738 
" style="fill:none;stroke:#b0b0b0;stroke-dasharray:2.96,1.28;stroke-dashoffset:0;stroke-width:0.8;"/>
     </g>
     <g id="line2d_26">
      <g>
       <use style="stroke:#000000;stroke-width:0.8;" x="40.603125" xlink:href="#m3ddee62386" y="107.474738"/>
      </g>
     </g>
     <g id="text_14">
      <!-- 70 -->
      <defs>
       <path d="M 8.203125 72.90625 
L 55.078125 72.90625 
L 55.078125 68.703125 
L 28.609375 0 
L 18.3125 0 
L 43.21875 64.59375 
L 8.203125 64.59375 
z
" id="DejaVuSans-55"/>
      </defs>
      <g transform="translate(20.878125 111.273957)scale(0.1 -0.1)">
       <use xlink:href="#DejaVuSans-55"/>
       <use x="63.623047" xlink:href="#DejaVuSans-48"/>
      </g>
     </g>
    </g>
    <g id="ytick_7">
     <g id="line2d_27">
      <path clip-path="url(#p0f8f95a52a)" d="M 40.603125 76.250739 
L 397.723125 76.250739 
" style="fill:none;stroke:#b0b0b0;stroke-dasharray:2.96,1.28;stroke-dashoffset:0;stroke-width:0.8;"/>
     </g>
     <g id="line2d_28">
      <g>
       <use style="stroke:#000000;stroke-width:0.8;" x="40.603125" xlink:href="#m3ddee62386" y="76.250739"/>
      </g>
     </g>
     <g id="text_15">
      <!-- 75 -->
      <g transform="translate(20.878125 80.049958)scale(0.1 -0.1)">
       <use xlink:href="#DejaVuSans-55"/>
       <use x="63.623047" xlink:href="#DejaVuSans-53"/>
      </g>
     </g>
    </g>
    <g id="ytick_8">
     <g id="line2d_29">
      <path clip-path="url(#p0f8f95a52a)" d="M 40.603125 45.02674 
L 397.723125 45.02674 
" style="fill:none;stroke:#b0b0b0;stroke-dasharray:2.96,1.28;stroke-dashoffset:0;stroke-width:0.8;"/>
     </g>
     <g id="line2d_30">
      <g>
       <use style="stroke:#000000;stroke-width:0.8;" x="40.603125" xlink:href="#m3ddee62386" y="45.02674"/>
      </g>
     </g>
     <g id="text_16">
      <!-- 80 -->
      <g transform="translate(20.878125 48.825959)scale(0.1 -0.1)">
       <use xlink:href="#DejaVuSans-56"/>
       <use x="63.623047" xlink:href="#DejaVuSans-48"/>
      </g>
     </g>
    </g>
    <g id="text_17">
     <!-- Price $ -->
     <defs>
      <path d="M 19.671875 64.796875 
L 19.671875 37.40625 
L 32.078125 37.40625 
Q 38.96875 37.40625 42.71875 40.96875 
Q 46.484375 44.53125 46.484375 51.125 
Q 46.484375 57.671875 42.71875 61.234375 
Q 38.96875 64.796875 32.078125 64.796875 
z
M 9.8125 72.90625 
L 32.078125 72.90625 
Q 44.34375 72.90625 50.609375 67.359375 
Q 56.890625 61.8125 56.890625 51.125 
Q 56.890625 40.328125 50.609375 34.8125 
Q 44.34375 29.296875 32.078125 29.296875 
L 19.671875 29.296875 
L 19.671875 0 
L 9.8125 0 
z
" id="DejaVuSans-80"/>
      <path d="M 41.109375 46.296875 
Q 39.59375 47.171875 37.8125 47.578125 
Q 36.03125 48 33.890625 48 
Q 26.265625 48 22.1875 43.046875 
Q 18.109375 38.09375 18.109375 28.8125 
L 18.109375 0 
L 9.078125 0 
L 9.078125 54.6875 
L 18.109375 54.6875 
L 18.109375 46.1875 
Q 20.953125 51.171875 25.484375 53.578125 
Q 30.03125 56 36.53125 56 
Q 37.453125 56 38.578125 55.875 
Q 39.703125 55.765625 41.0625 55.515625 
z
" id="DejaVuSans-114"/>
      <path d="M 9.421875 54.6875 
L 18.40625 54.6875 
L 18.40625 0 
L 9.421875 0 
z
M 9.421875 75.984375 
L 18.40625 75.984375 
L 18.40625 64.59375 
L 9.421875 64.59375 
z
" id="DejaVuSans-105"/>
      <path d="M 48.78125 52.59375 
L 48.78125 44.1875 
Q 44.96875 46.296875 41.140625 47.34375 
Q 37.3125 48.390625 33.40625 48.390625 
Q 24.65625 48.390625 19.8125 42.84375 
Q 14.984375 37.3125 14.984375 27.296875 
Q 14.984375 17.28125 19.8125 11.734375 
Q 24.65625 6.203125 33.40625 6.203125 
Q 37.3125 6.203125 41.140625 7.25 
Q 44.96875 8.296875 48.78125 10.40625 
L 48.78125 2.09375 
Q 45.015625 0.34375 40.984375 -0.53125 
Q 36.96875 -1.421875 32.421875 -1.421875 
Q 20.0625 -1.421875 12.78125 6.34375 
Q 5.515625 14.109375 5.515625 27.296875 
Q 5.515625 40.671875 12.859375 48.328125 
Q 20.21875 56 33.015625 56 
Q 37.15625 56 41.109375 55.140625 
Q 45.0625 54.296875 48.78125 52.59375 
z
" id="DejaVuSans-99"/>
      <path d="M 56.203125 29.59375 
L 56.203125 25.203125 
L 14.890625 25.203125 
Q 15.484375 15.921875 20.484375 11.0625 
Q 25.484375 6.203125 34.421875 6.203125 
Q 39.59375 6.203125 44.453125 7.46875 
Q 49.3125 8.734375 54.109375 11.28125 
L 54.109375 2.78125 
Q 49.265625 0.734375 44.1875 -0.34375 
Q 39.109375 -1.421875 33.890625 -1.421875 
Q 20.796875 -1.421875 13.15625 6.1875 
Q 5.515625 13.8125 5.515625 26.8125 
Q 5.515625 40.234375 12.765625 48.109375 
Q 20.015625 56 32.328125 56 
Q 43.359375 56 49.78125 48.890625 
Q 56.203125 41.796875 56.203125 29.59375 
z
M 47.21875 32.234375 
Q 47.125 39.59375 43.09375 43.984375 
Q 39.0625 48.390625 32.421875 48.390625 
Q 24.90625 48.390625 20.390625 44.140625 
Q 15.875 39.890625 15.1875 32.171875 
z
" id="DejaVuSans-101"/>
      <path id="DejaVuSans-32"/>
      <path d="M 33.796875 -14.703125 
L 28.90625 -14.703125 
L 28.859375 0 
Q 23.734375 0.09375 18.609375 1.1875 
Q 13.484375 2.296875 8.296875 4.5 
L 8.296875 13.28125 
Q 13.28125 10.15625 18.375 8.5625 
Q 23.484375 6.984375 28.90625 6.9375 
L 28.90625 29.203125 
Q 18.109375 30.953125 13.203125 35.15625 
Q 8.296875 39.359375 8.296875 46.6875 
Q 8.296875 54.640625 13.625 59.21875 
Q 18.953125 63.8125 28.90625 64.5 
L 28.90625 75.984375 
L 33.796875 75.984375 
L 33.796875 64.65625 
Q 38.328125 64.453125 42.578125 63.6875 
Q 46.828125 62.9375 50.875 61.625 
L 50.875 53.078125 
Q 46.828125 55.125 42.546875 56.25 
Q 38.28125 57.375 33.796875 57.5625 
L 33.796875 36.71875 
Q 44.875 35.015625 50.09375 30.609375 
Q 55.328125 26.21875 55.328125 18.609375 
Q 55.328125 10.359375 49.78125 5.59375 
Q 44.234375 0.828125 33.796875 0.09375 
z
M 28.90625 37.59375 
L 28.90625 57.625 
Q 23.25 56.984375 20.265625 54.390625 
Q 17.28125 51.8125 17.28125 47.515625 
Q 17.28125 43.3125 20.03125 40.96875 
Q 22.796875 38.625 28.90625 37.59375 
z
M 33.796875 28.21875 
L 33.796875 7.078125 
Q 39.984375 7.90625 43.140625 10.59375 
Q 46.296875 13.28125 46.296875 17.671875 
Q 46.296875 21.96875 43.28125 24.5 
Q 40.28125 27.046875 33.796875 28.21875 
z
" id="DejaVuSans-36"/>
     </defs>
     <g transform="translate(14.798438 172.342094)rotate(-90)scale(0.1 -0.1)">
      <use xlink:href="#DejaVuSans-80"/>
      <use x="58.552734" xlink:href="#DejaVuSans-114"/>
      <use x="99.666016" xlink:href="#DejaVuSans-105"/>
      <use x="127.449219" xlink:href="#DejaVuSans-99"/>
      <use x="182.429688" xlink:href="#DejaVuSans-101"/>
      <use x="243.953125" xlink:href="#DejaVuSans-32"/>
      <use x="275.740234" xlink:href="#DejaVuSans-36"/>
     </g>
    </g>
   </g>
   <g id="line2d_31">
    <path clip-path="url(#p0f8f95a52a)" d="M 56.835852 181.916957 
L 57.080505 170.967427 
L 57.325158 167.525764 
L 57.569811 174.808013 
L 57.814464 172.479554 
L 58.059117 166.338856 
L 58.30377 166.698854 
L 58.548423 161.318508 
L 59.037729 157.64763 
L 59.282382 158.439879 
L 59.527035 155.039023 
L 59.771688 155.004124 
L 60.016341 153.082307 
L 60.505647 151.399519 
L 60.7503 152.842276 
L 60.994953 156.819696 
L 61.239606 157.523827 
L 61.484259 157.422512 
L 61.728912 154.397925 
L 62.462872 159.421132 
L 62.952178 162.725413 
L 63.196831 165.805005 
L 63.441484 163.729511 
L 63.686137 155.195272 
L 64.175443 160.486191 
L 64.420096 156.264071 
L 64.664749 155.140172 
L 65.154055 139.632084 
L 65.398708 142.164317 
L 65.643361 139.505684 
L 66.132667 144.063361 
L 66.37732 147.512551 
L 66.621973 147.737098 
L 66.866626 154.734554 
L 67.111279 154.616564 
L 67.355932 151.689528 
L 67.845238 157.07078 
L 68.089891 157.489452 
L 68.334544 158.657112 
L 68.579197 153.793656 
L 68.82385 157.15137 
L 69.313156 167.788593 
L 69.557809 169.504374 
L 69.802462 175.543709 
L 70.047115 175.734285 
L 70.291768 174.86814 
L 70.781074 166.23666 
L 71.025727 170.73066 
L 71.27038 179.232572 
L 71.515033 180.0662 
L 71.759686 179.546285 
L 72.248992 184.704777 
L 72.493645 177.107077 
L 72.738298 178.212966 
L 72.982951 171.322018 
L 73.227604 170.707719 
L 73.472257 167.397126 
L 73.71691 171.22611 
L 73.961563 161.95184 
L 74.206216 163.217504 
L 74.450869 160.384709 
L 74.695522 164.004107 
L 74.940175 158.640222 
L 75.184828 161.472232 
L 75.429481 162.011324 
L 75.674134 156.280913 
L 75.918787 158.823223 
L 76.16344 158.776627 
L 76.408093 156.829868 
L 76.652746 153.367123 
L 76.897399 155.055389 
L 77.142052 157.900501 
L 77.631358 148.792794 
L 77.876011 148.418955 
L 78.120664 148.977391 
L 78.365317 150.629639 
L 78.60997 148.497854 
L 78.854623 145.212654 
L 79.099276 146.42884 
L 79.588582 142.895605 
L 80.322541 168.880999 
L 80.567194 156.786655 
L 80.811847 151.65875 
L 81.0565 154.090026 
L 81.301153 158.713094 
L 81.545806 160.72665 
L 81.790459 159.877062 
L 82.035112 159.94181 
L 82.524418 165.289734 
L 83.013724 139.548087 
L 83.50303 147.74646 
L 83.747683 141.556856 
L 83.992336 143.515026 
L 84.236989 136.023715 
L 84.481643 140.375998 
L 84.726296 142.440176 
L 84.970949 146.534276 
L 85.215602 141.516453 
L 85.460255 139.739235 
L 85.704908 140.606547 
L 85.949561 141.042538 
L 86.194214 140.003803 
L 86.438867 144.357372 
L 86.68352 144.404921 
L 86.928173 147.647503 
L 87.172826 146.797319 
L 87.417479 148.844536 
L 87.662132 132.23325 
L 87.906785 131.6468 
L 88.151438 132.902077 
L 88.396091 133.436786 
L 88.885397 127.295517 
L 89.13005 127.72317 
L 89.374703 126.311334 
L 89.864009 132.487193 
L 90.108662 137.183275 
L 90.353315 134.7611 
L 90.597968 134.891549 
L 90.842621 132.970923 
L 91.087274 138.565381 
L 91.331927 137.851102 
L 91.57658 136.786496 
L 91.821233 139.034485 
L 92.310539 133.867917 
L 92.555192 136.286519 
L 92.799845 132.686011 
L 93.044498 125.139195 
L 93.289151 122.427963 
L 93.533804 128.297614 
L 93.778457 125.423344 
L 94.02311 128.817554 
L 94.267763 128.394474 
L 94.512416 127.315432 
L 94.757069 127.112469 
L 95.001722 129.406243 
L 95.246375 141.883027 
L 95.491028 141.532271 
L 95.980334 135.098039 
L 96.224987 135.528979 
L 96.46964 131.736609 
L 96.714293 133.907843 
L 96.958946 130.63808 
L 97.448252 128.503484 
L 97.692905 132.153351 
L 97.937558 129.845569 
L 98.182211 132.596822 
L 98.426864 138.400724 
L 98.671517 137.054541 
L 98.91617 132.213383 
L 99.160823 130.587006 
L 99.405476 124.730886 
L 99.650129 126.060345 
L 100.384088 136.94253 
L 100.628741 140.646521 
L 100.873394 147.155316 
L 101.118047 144.925432 
L 101.607353 134.283087 
L 102.096659 156.043098 
L 102.341312 158.980258 
L 102.585965 159.332609 
L 102.830618 161.046175 
L 103.075271 156.668474 
L 103.319924 149.689693 
L 103.564577 146.211845 
L 104.053883 146.469671 
L 104.298536 144.372904 
L 104.543189 145.039254 
L 105.032495 139.381476 
L 106.011107 130.883399 
L 106.25576 134.257979 
L 106.500413 134.020759 
L 106.98972 146.262062 
L 107.234373 141.342505 
L 107.479026 145.962595 
L 107.723679 144.336933 
L 107.968332 145.929483 
L 108.212985 149.051621 
L 108.457638 148.627446 
L 108.702291 146.317115 
L 108.946944 150.405783 
L 109.191597 151.928058 
L 109.680903 158.925658 
L 109.925556 157.773387 
L 110.170209 162.216956 
L 110.414862 158.383969 
L 110.659515 160.649753 
L 110.904168 155.644937 
L 111.148821 154.819885 
L 111.393474 161.218146 
L 111.88278 168.297812 
L 112.127433 168.373423 
L 112.372086 155.025064 
L 112.861392 165.789092 
L 113.106045 161.257047 
L 113.350698 165.383617 
L 113.595351 164.744877 
L 113.840004 164.4446 
L 114.084657 164.798381 
L 114.573963 174.575772 
L 114.818616 164.257026 
L 115.063269 162.050607 
L 115.307922 161.222958 
L 115.552575 162.20059 
L 115.797228 157.94874 
L 116.041881 157.769718 
L 116.286534 163.42235 
L 117.020493 153.466865 
L 117.265146 153.305638 
L 117.509799 150.654056 
L 117.754452 142.811895 
L 117.999105 141.727707 
L 118.488411 141.068981 
L 118.733064 139.890076 
L 118.977717 134.686489 
L 119.22237 131.880684 
L 119.467023 135.820322 
L 119.711676 134.739565 
L 119.956329 129.879539 
L 120.200982 132.168931 
L 120.690288 125.669235 
L 120.934941 129.094413 
L 121.424247 126.246205 
L 121.6689 128.605919 
L 121.913553 129.699397 
L 122.402859 125.704158 
L 122.647512 126.309714 
L 123.136818 131.927995 
L 123.381471 128.706114 
L 123.626124 128.279366 
L 123.870777 128.628931 
L 124.360083 124.729504 
L 124.604736 120.869622 
L 124.849389 120.925413 
L 125.094042 112.141424 
L 125.338695 115.99516 
L 125.583348 117.586281 
L 125.828001 112.655408 
L 126.317307 118.132043 
L 126.56196 111.305748 
L 126.806613 110.507377 
L 127.051266 110.775184 
L 127.295919 108.383977 
L 127.540572 115.401134 
L 127.785225 116.963478 
L 128.029878 113.85499 
L 128.274531 118.130852 
L 128.519184 125.714307 
L 128.763837 123.187791 
L 129.00849 124.539786 
L 129.253143 121.713827 
L 129.74245 126.701062 
L 129.987103 124.736365 
L 130.476409 131.340639 
L 130.721062 126.331011 
L 130.965715 125.158968 
L 131.455021 117.599478 
L 131.699674 117.531871 
L 131.944327 117.581802 
L 132.433633 114.589852 
L 132.678286 117.791865 
L 132.922939 125.888636 
L 133.167592 124.221571 
L 133.412245 117.433772 
L 133.656898 116.432723 
L 134.390857 111.795481 
L 134.63551 108.217032 
L 134.880163 112.567743 
L 135.124816 111.318421 
L 135.369469 122.925081 
L 135.614122 124.917555 
L 135.858775 123.557699 
L 136.103428 123.102841 
L 137.08204 94.119827 
L 137.571346 95.44943 
L 137.815999 103.880853 
L 138.060652 96.358287 
L 138.305305 98.416462 
L 138.794611 86.297343 
L 139.039264 85.573296 
L 139.283917 85.826715 
L 139.52857 87.376909 
L 139.773223 87.683594 
L 140.017876 88.218493 
L 140.262529 85.397966 
L 140.507182 84.405588 
L 140.751835 86.966884 
L 140.996488 83.701648 
L 141.241141 89.504787 
L 141.485794 86.947398 
L 141.730447 88.4489 
L 141.9751 91.240364 
L 142.219753 91.122541 
L 142.464406 89.021534 
L 142.709059 93.097863 
L 142.953712 87.021961 
L 143.198365 92.14684 
L 143.687671 85.046353 
L 143.932324 85.307443 
L 144.176977 84.25894 
L 144.42163 84.156315 
L 144.910936 88.617608 
L 145.155589 89.651055 
L 145.400242 87.946541 
L 145.644895 83.707699 
L 145.889548 82.983461 
L 146.134201 84.392534 
L 146.378854 91.876079 
L 146.86816 79.877499 
L 147.112813 79.059546 
L 147.357466 77.555233 
L 147.602119 74.180462 
L 147.846772 73.950056 
L 148.091425 75.015234 
L 148.825384 96.818481 
L 149.070037 92.410026 
L 149.31469 90.027871 
L 149.559343 84.48625 
L 149.803996 86.52208 
L 150.048649 94.182765 
L 151.516567 70.197373 
L 151.76122 69.709069 
L 152.005874 68.506391 
L 152.250527 73.029573 
L 152.49518 71.070307 
L 152.739833 70.28499 
L 153.229139 71.938429 
L 153.473792 75.70126 
L 153.718445 76.771488 
L 153.963098 74.079171 
L 154.207751 78.155691 
L 154.452404 77.347124 
L 154.697057 67.790634 
L 155.186363 64.480279 
L 155.431016 65.940711 
L 155.675669 64.379607 
L 155.920322 66.619687 
L 156.164975 64.413196 
L 156.409628 75.426354 
L 156.654281 72.956582 
L 156.898934 62.941233 
L 157.143587 63.11137 
L 157.38824 65.365791 
L 157.632893 52.853227 
L 157.877546 57.074965 
L 158.122199 59.004644 
L 158.366852 53.803106 
L 158.611505 55.189071 
L 158.856158 49.963758 
L 159.100811 50.799197 
L 159.345464 49.742738 
L 159.590117 46.485839 
L 159.83477 45.426473 
L 160.079423 40.498317 
L 160.324076 59.133521 
L 160.568729 58.3402 
L 161.058035 45.596753 
L 161.302688 61.656083 
L 161.547341 53.229138 
L 161.791994 51.805725 
L 162.036647 46.403557 
L 162.2813 45.02836 
L 162.525953 38.110064 
L 163.015259 39.555012 
L 163.259912 57.527441 
L 163.504565 59.984492 
L 163.993871 54.540636 
L 164.238524 55.095927 
L 164.483177 54.4908 
L 164.72783 50.886147 
L 164.972483 53.646119 
L 165.461789 48.063333 
L 165.706442 50.914067 
L 165.951095 47.144565 
L 166.195748 49.337716 
L 166.440401 46.904153 
L 166.685054 46.956991 
L 166.929707 44.054039 
L 167.419013 50.289215 
L 167.663666 46.445294 
L 167.908319 49.583368 
L 168.152972 47.816156 
L 168.397625 45.055612 
L 168.642278 46.316559 
L 169.131584 42.001296 
L 169.376237 43.766936 
L 169.62089 42.720673 
L 169.865543 44.838212 
L 170.110196 43.101254 
L 170.354849 46.613572 
L 170.844155 44.261005 
L 171.088808 45.663264 
L 171.333461 51.259391 
L 171.578114 51.553545 
L 171.822767 48.592468 
L 172.312073 54.254533 
L 172.556726 47.683896 
L 172.801379 50.290787 
L 173.046032 45.897482 
L 173.535338 50.041085 
L 173.779991 54.217609 
L 174.024644 55.616486 
L 175.003257 47.247858 
L 175.24791 43.240136 
L 175.492563 41.834303 
L 175.737216 41.711334 
L 175.981869 38.78275 
L 176.226522 45.32785 
L 176.471175 44.836593 
L 176.715828 48.730683 
L 176.960481 48.10869 
L 177.205134 46.715674 
L 177.69444 54.94885 
L 178.428399 34.414125 
L 178.917705 71.498865 
L 179.162358 68.935806 
L 179.407011 71.678864 
L 179.651664 71.159973 
L 179.896317 73.330874 
L 180.14097 84.619844 
L 180.385623 90.608271 
L 180.630276 86.468957 
L 180.874929 91.675164 
L 181.119582 86.997329 
L 181.364235 90.419696 
L 181.608888 81.424596 
L 181.853541 77.467234 
L 182.098194 79.498824 
L 182.342847 78.512688 
L 182.5875 76.582389 
L 182.832153 78.345838 
L 183.076806 75.960492 
L 183.321459 78.75834 
L 183.566112 66.872391 
L 184.055418 63.766618 
L 184.300071 64.568658 
L 184.544724 63.803066 
L 185.03403 66.906027 
L 185.523336 73.962253 
L 186.012642 76.613787 
L 186.501948 70.192656 
L 186.746601 71.035003 
L 186.991254 71.456796 
L 187.235907 71.38371 
L 187.725213 75.431833 
L 187.969866 72.486717 
L 188.214519 70.884448 
L 188.459172 64.710971 
L 188.703825 73.857007 
L 188.948478 69.171311 
L 189.193131 72.259741 
L 189.437784 69.854765 
L 189.682437 78.852723 
L 190.171743 77.463185 
L 190.416396 77.127294 
L 190.905702 82.823187 
L 191.150355 75.540938 
L 191.639661 85.477818 
L 191.884314 74.975451 
L 192.128967 84.687879 
L 192.37362 100.472446 
L 192.618273 97.067898 
L 192.862926 98.910245 
L 193.107579 105.641062 
L 193.352232 95.013677 
L 193.596885 92.728145 
L 194.086191 75.582865 
L 194.330844 77.674391 
L 194.82015 71.682628 
L 195.064803 70.003509 
L 195.309456 67.511107 
L 195.554109 66.470132 
L 195.798762 56.689668 
L 196.043415 56.644358 
L 196.532721 62.228002 
L 196.777375 93.716235 
L 197.266681 113.450206 
L 197.511334 108.384501 
L 197.755987 109.003254 
L 198.245293 101.567115 
L 198.734599 105.552253 
L 198.979252 96.538144 
L 199.223905 106.281874 
L 199.713211 97.167426 
L 199.957864 97.372724 
L 200.202517 96.122402 
L 200.44717 91.874078 
L 200.691823 91.239602 
L 200.936476 96.681933 
L 201.181129 85.658246 
L 201.425782 81.438794 
L 201.670435 89.20482 
L 201.915088 87.203675 
L 202.159741 94.282865 
L 202.404394 89.196387 
L 202.649047 97.630622 
L 202.8937 95.769645 
L 203.138353 102.833351 
L 203.383006 105.644778 
L 203.627659 103.589509 
L 203.872312 88.687835 
L 204.361618 85.863639 
L 204.606271 79.538845 
L 204.850924 79.091277 
L 205.095577 76.947009 
L 205.34023 76.258267 
L 205.584883 77.703882 
L 205.829536 75.323157 
L 206.318842 83.540754 
L 206.563495 82.947538 
L 206.808148 87.277095 
L 207.052801 81.628941 
L 207.297454 79.204336 
L 207.78676 83.890652 
L 208.031413 91.279718 
L 208.276066 93.394209 
L 208.520719 101.365057 
L 208.765372 97.17686 
L 209.010025 101.720481 
L 209.254678 95.591171 
L 209.499331 94.957838 
L 209.743984 93.971226 
L 209.988637 95.167853 
L 210.23329 93.533949 
L 210.722596 151.207061 
L 210.967249 152.039045 
L 211.211902 132.860817 
L 211.456555 127.007604 
L 211.701208 125.024135 
L 211.945861 121.27655 
L 212.190514 122.814023 
L 212.435167 116.066579 
L 212.67982 104.613809 
L 212.924473 110.065002 
L 213.169126 105.430046 
L 213.413779 103.37292 
L 213.658432 104.772035 
L 213.903085 105.242234 
L 214.392391 98.93016 
L 214.637044 102.164476 
L 214.881697 100.43495 
L 215.12635 95.860884 
L 215.371003 96.272528 
L 215.615656 96.35743 
L 215.860309 94.436422 
L 216.104962 99.991527 
L 216.349615 100.189869 
L 216.594268 103.256049 
L 216.838921 97.353857 
L 217.083574 85.063981 
L 217.57288 107.315988 
L 217.817533 113.124464 
L 218.062186 113.320328 
L 218.306839 109.995251 
L 218.551492 109.54349 
L 218.796145 105.788473 
L 219.530105 107.751407 
L 219.774758 114.616103 
L 220.019411 127.82894 
L 220.508717 121.859856 
L 220.75337 117.312042 
L 220.998023 115.632351 
L 221.242676 110.637635 
L 221.487329 129.025282 
L 221.731982 120.870766 
L 221.976635 125.311 
L 222.221288 122.498 
L 222.465941 115.086588 
L 222.710594 102.82144 
L 222.955247 113.773185 
L 223.1999 113.427956 
L 223.444553 119.862284 
L 223.933859 125.463556 
L 224.178512 115.127467 
L 224.423165 115.429768 
L 224.667818 121.486374 
L 224.912471 119.654604 
L 225.401777 112.705244 
L 225.64643 112.492418 
L 225.891083 118.377839 
L 226.135736 118.958953 
L 226.625042 115.136138 
L 226.869695 119.564509 
L 227.114348 121.320097 
L 227.359001 115.263681 
L 227.603654 113.408756 
L 227.848307 116.123132 
L 228.09296 113.279783 
L 228.337613 107.901724 
L 228.826919 102.575882 
L 229.316225 109.314084 
L 229.560878 110.535915 
L 229.805531 110.30689 
L 230.050184 110.965712 
L 230.294837 112.309846 
L 230.53949 102.396503 
L 230.784143 104.340094 
L 231.028796 111.071291 
L 231.273449 112.128275 
L 231.518102 109.812822 
L 232.007408 114.077916 
L 232.496714 123.880249 
L 232.741367 126.200133 
L 232.98602 122.463411 
L 233.475326 128.793731 
L 233.719979 129.449361 
L 234.209285 128.192083 
L 234.453938 124.408669 
L 234.698591 126.958149 
L 234.943244 123.476895 
L 235.187897 127.231055 
L 235.43255 137.039676 
L 235.677203 137.373232 
L 236.166509 153.71795 
L 236.411162 151.048668 
L 236.655815 152.494308 
L 236.900468 152.967532 
L 237.145121 150.356543 
L 237.389774 156.197322 
L 237.634427 154.079901 
L 237.87908 155.850163 
L 238.368386 148.132257 
L 238.613039 148.918598 
L 238.857692 148.448209 
L 239.102345 143.61908 
L 239.346998 141.861396 
L 239.591651 142.33393 
L 239.836304 140.691497 
L 240.32561 158.594841 
L 240.570263 157.913889 
L 240.814916 156.035475 
L 241.059569 151.277217 
L 241.304222 151.539354 
L 241.548875 142.116006 
L 241.793529 142.653621 
L 242.038182 142.328022 
L 242.282835 147.811875 
L 242.527488 145.809563 
L 242.772141 152.594146 
L 243.016794 152.651128 
L 243.261447 152.978538 
L 243.5061 154.958362 
L 243.750753 154.201274 
L 243.995406 157.607156 
L 244.240059 158.308215 
L 244.484712 158.649608 
L 244.729365 162.924541 
L 244.974018 162.77775 
L 245.218671 170.11822 
L 245.463324 198.964424 
L 245.707977 193.725056 
L 245.95263 198.515831 
L 246.197283 187.809882 
L 246.441936 187.353857 
L 246.686589 189.604752 
L 246.931242 197.194829 
L 247.175895 197.868444 
L 247.420548 193.773653 
L 247.665201 199.967259 
L 247.909854 201.867066 
L 248.154507 196.299407 
L 248.39916 205.182352 
L 248.643813 200.327496 
L 248.888466 203.176776 
L 249.133119 203.155527 
L 249.622425 200.460613 
L 249.867078 204.619843 
L 250.111731 202.921333 
L 250.356384 207.342891 
L 250.601037 206.567984 
L 250.84569 211.423412 
L 251.090343 209.53323 
L 251.334996 212.19334 
L 251.579649 216.19239 
L 251.824302 214.631929 
L 252.068955 209.428413 
L 252.313608 213.576994 
L 252.558261 199.273181 
L 252.802914 194.331493 
L 253.047567 192.826799 
L 253.29222 192.279584 
L 253.536873 184.61542 
L 253.781526 185.120733 
L 254.026179 186.990547 
L 254.270832 185.983686 
L 254.515485 176.66251 
L 254.760138 173.778521 
L 255.004791 173.065933 
L 255.249444 177.855779 
L 255.494097 174.684425 
L 255.73875 173.407231 
L 255.983403 166.226464 
L 256.228056 164.699186 
L 256.472709 177.187738 
L 257.206668 168.999061 
L 257.451321 171.322947 
L 257.695974 166.39622 
L 257.940627 164.515447 
L 258.18528 184.08507 
L 258.429933 224.41063 
L 258.674586 212.375721 
L 259.163892 215.649963 
L 259.408545 214.074112 
L 259.897851 218.655682 
L 260.142504 214.66223 
L 260.387157 217.477612 
L 260.63181 242.984255 
L 261.121116 236.808705 
L 261.365769 237.935963 
L 261.610422 235.188641 
L 261.855075 238.566556 
L 262.099728 239.824001 
L 262.344381 239.240386 
L 262.833687 217.011796 
L 263.07834 221.010227 
L 263.322993 217.650536 
L 264.056952 239.109936 
L 264.301606 241.248034 
L 264.546259 247.454886 
L 264.790912 247.60413 
L 265.280218 239.107602 
L 265.524871 247.072542 
L 265.769524 245.996954 
L 266.25883 236.826929 
L 266.503483 237.543043 
L 266.992789 231.668437 
L 267.237442 226.25748 
L 267.726748 233.997778 
L 267.971401 230.194831 
L 268.216054 239.472817 
L 268.460707 243.954359 
L 268.70536 252.632697 
L 268.950013 254.930307 
L 269.194666 254.922517 
L 269.439319 251.343259 
L 269.683972 255.201473 
L 269.928625 253.403935 
L 270.417931 257.776919 
L 270.662584 256.641443 
L 270.907237 247.78837 
L 271.15189 244.288748 
L 271.396543 246.589598 
L 271.641196 243.152438 
L 271.885849 253.607685 
L 272.130502 269.665847 
L 272.375155 263.486391 
L 272.619808 260.374735 
L 272.864461 272.353662 
L 273.353767 259.550255 
L 273.59842 270.364166 
L 273.843073 270.786196 
L 274.087726 270.199698 
L 274.332379 275.880083 
L 274.577032 273.74482 
L 275.310991 241.253299 
L 275.800297 232.149642 
L 276.04495 224.24147 
L 276.289603 230.701644 
L 276.534256 222.892905 
L 276.778909 220.215119 
L 277.023562 221.104824 
L 277.512868 225.84736 
L 277.757521 217.879728 
L 278.002174 215.681122 
L 278.246827 217.535833 
L 278.49148 216.870079 
L 278.736133 213.389253 
L 279.225439 219.527521 
L 279.470092 217.354524 
L 279.714745 218.038811 
L 280.204051 221.862436 
L 280.448704 223.991791 
L 280.693357 222.114163 
L 280.93801 221.710904 
L 281.427316 219.292921 
L 281.671969 226.974951 
L 282.161275 230.986532 
L 282.405928 226.013209 
L 282.650581 226.04806 
L 282.895234 225.341928 
L 283.629193 230.977503 
L 283.873846 229.191709 
L 284.118499 230.415733 
L 284.363152 226.86961 
L 284.607805 225.409154 
L 284.852458 225.387261 
L 285.097111 220.054226 
L 285.341764 220.822509 
L 285.586417 225.160023 
L 285.83107 221.78935 
L 286.075723 220.541719 
L 286.320376 222.6559 
L 286.56503 222.096273 
L 286.809683 215.484304 
L 287.054336 216.826961 
L 287.298989 217.246991 
L 287.543642 215.660778 
L 287.788295 219.345639 
L 288.032948 227.646208 
L 288.277601 226.754526 
L 288.522254 229.620696 
L 288.766907 227.324349 
L 289.256213 225.941766 
L 289.500866 223.796689 
L 289.990172 218.075545 
L 290.234825 222.668383 
L 290.479478 223.34974 
L 291.45809 213.862454 
L 291.702743 205.142712 
L 291.947396 204.537061 
L 292.192049 196.428665 
L 292.436702 194.821488 
L 292.681355 197.982361 
L 292.926008 198.681108 
L 293.170661 202.453421 
L 293.659967 201.271015 
L 293.90462 201.538203 
L 294.149273 201.209721 
L 294.638579 203.402871 
L 294.883232 203.662507 
L 295.372538 214.428084 
L 295.617191 213.173568 
L 295.861844 212.51932 
L 296.35115 207.649123 
L 296.595803 206.329835 
L 296.840456 208.368214 
L 297.085109 203.19369 
L 297.329762 208.582183 
L 297.574415 219.011512 
L 297.819068 221.871036 
L 298.063721 214.021465 
L 298.308374 212.59112 
L 298.79768 213.462553 
L 299.042333 220.872631 
L 300.265598 201.703694 
L 300.510251 200.379357 
L 300.754904 202.047422 
L 300.999557 201.214914 
L 301.24421 196.988959 
L 301.488863 199.245571 
L 301.978169 167.653975 
L 302.222822 164.62722 
L 302.467475 164.640989 
L 302.956781 154.524325 
L 303.201434 153.491426 
L 303.446087 154.799517 
L 303.69074 158.907505 
L 303.935393 166.307411 
L 304.180046 163.051727 
L 304.424699 161.679864 
L 304.669352 156.974682 
L 304.914005 158.611398 
L 305.158658 157.495574 
L 305.403311 158.306476 
L 305.647964 159.951243 
L 305.892617 158.428397 
L 306.13727 156.027042 
L 306.381923 156.168497 
L 306.626576 155.424345 
L 306.871229 153.457337 
L 307.115882 153.453763 
L 307.360535 151.955596 
L 307.605188 151.665849 
L 307.849841 153.414933 
L 308.094494 152.126091 
L 308.339147 153.573421 
L 308.5838 151.409929 
L 308.828453 151.024322 
L 309.073107 151.576231 
L 309.31776 148.229856 
L 309.562413 149.57985 
L 309.807066 149.60241 
L 310.051719 156.058868 
L 310.296372 155.818694 
L 310.541025 167.807674 
L 310.785678 157.71912 
L 311.030331 161.415392 
L 311.274984 157.88647 
L 311.519637 152.655797 
L 311.76429 150.789556 
L 312.008943 150.312568 
L 312.253596 151.094502 
L 312.498249 147.102098 
L 312.987555 153.495523 
L 313.232208 154.451835 
L 313.476861 149.438538 
L 313.721514 149.176567 
L 313.966167 119.088164 
L 314.21082 118.26921 
L 314.700126 127.789395 
L 314.944779 127.13367 
L 315.434085 117.702103 
L 315.923391 130.364937 
L 316.168044 134.849384 
L 316.412697 133.913894 
L 316.65735 134.669385 
L 316.902003 132.618071 
L 317.146656 133.033575 
L 317.391309 135.459943 
L 317.880615 118.261397 
L 318.369921 123.825077 
L 318.614574 106.722058 
L 318.859227 105.369396 
L 319.10388 117.578848 
L 319.348533 114.323283 
L 319.837839 122.787771 
L 320.082492 133.039387 
L 320.327145 122.642457 
L 320.571798 118.119275 
L 320.816451 126.568088 
L 321.061104 120.647506 
L 321.305757 133.17989 
L 321.55041 124.4313 
L 321.795063 131.372465 
L 322.039716 127.786584 
L 322.284369 130.646037 
L 322.529022 128.467608 
L 322.773675 127.543504 
L 323.018328 124.450929 
L 323.262981 118.160201 
L 323.507634 119.899399 
L 323.99694 125.713354 
L 324.241593 127.472038 
L 324.486246 121.652176 
L 324.730899 147.391345 
L 324.975552 130.545269 
L 325.220205 128.846664 
L 325.709511 118.172112 
L 325.954164 116.742362 
L 326.198817 118.598431 
L 326.44347 116.178209 
L 326.688123 115.051522 
L 326.932776 121.390276 
L 327.177429 118.000212 
L 327.422082 129.296805 
L 327.666735 124.183837 
L 327.911388 127.163352 
L 328.156041 122.744368 
L 328.400694 128.253543 
L 328.645347 125.827795 
L 328.89 127.960008 
L 329.134653 136.072455 
L 329.379306 130.71979 
L 329.623959 135.598158 
L 329.868612 135.030146 
L 330.113265 137.048872 
L 330.357918 136.227155 
L 330.602571 136.078458 
L 330.847224 132.748663 
L 331.33653 135.314057 
L 331.825837 128.116376 
L 332.07049 144.181899 
L 332.315143 139.301148 
L 332.559796 139.476288 
L 333.049102 202.262368 
L 333.293755 194.840165 
L 333.538408 196.283875 
L 333.783061 205.054952 
L 334.027714 204.719228 
L 334.272367 210.291175 
L 334.51702 210.422196 
L 334.761673 213.509649 
L 335.006326 214.21976 
L 335.250979 212.106675 
L 335.495632 212.660561 
L 335.740285 212.129568 
L 335.984938 213.998906 
L 336.229591 213.957932 
L 336.474244 204.326356 
L 336.718897 199.162504 
L 336.96355 197.557853 
L 337.208203 191.514849 
L 337.452856 189.548198 
L 337.697509 190.16426 
L 337.942162 190.297329 
L 338.431468 188.804118 
L 338.676121 191.071998 
L 338.920774 192.146514 
L 339.41008 189.21681 
L 339.654733 192.604468 
L 339.899386 193.565997 
L 340.144039 192.384948 
L 340.388692 190.325821 
L 341.122651 176.911736 
L 341.367304 180.446781 
L 341.611957 180.84742 
L 341.85661 180.268521 
L 342.101263 180.004287 
L 342.345916 183.774384 
L 342.590569 183.971034 
L 342.835222 190.999031 
L 343.324528 187.940117 
L 343.569181 190.86851 
L 343.813834 191.656519 
L 344.058487 188.385636 
L 344.547793 185.749515 
L 344.792446 187.708043 
L 345.037099 193.382877 
L 345.281752 190.824273 
L 345.526405 192.574453 
L 345.771058 192.297045 
L 346.015711 192.957249 
L 346.260364 193.21293 
L 346.74967 212.80547 
L 346.994323 213.506838 
L 347.238976 216.054675 
L 347.728282 213.624734 
L 347.972935 216.366982 
L 348.217588 215.439972 
L 348.462241 213.469557 
L 348.706894 213.931847 
L 348.951547 213.463244 
L 349.1962 219.543124 
L 349.440853 210.740649 
L 349.685506 210.659273 
L 349.930159 211.319381 
L 350.174812 203.30563 
L 350.419465 202.202408 
L 350.664118 201.639232 
L 350.908771 203.611719 
L 351.153424 200.21396 
L 351.398077 199.959017 
L 351.64273 204.128514 
L 352.132036 198.575434 
L 352.376689 196.616382 
L 352.621342 197.243045 
L 352.865995 192.597608 
L 353.355301 172.675252 
L 353.599954 174.164247 
L 354.333914 186.158301 
L 354.578567 186.262475 
L 354.82322 185.60189 
L 355.067873 176.792721 
L 355.312526 178.571368 
L 355.557179 177.995709 
L 356.046485 184.891684 
L 356.291138 180.462027 
L 356.535791 192.082504 
L 356.780444 184.499788 
L 357.025097 184.808617 
L 357.26975 191.817317 
L 357.514403 189.361458 
L 357.759056 189.044243 
L 358.003709 186.295611 
L 358.248362 191.361697 
L 358.493015 193.769508 
L 358.737668 192.221505 
L 358.982321 188.546125 
L 359.471627 199.453109 
L 359.71628 195.461205 
L 359.960933 199.603259 
L 360.205586 198.722178 
L 360.450239 201.4417 
L 360.694892 200.818539 
L 360.939545 202.009712 
L 361.428851 197.616264 
L 361.673504 197.576315 
L 361.918157 193.331111 
L 362.16281 192.916441 
L 362.407463 191.046198 
L 362.652116 193.046843 
L 362.896769 192.584148 
L 363.141422 198.026408 
L 363.386075 209.069487 
L 363.630728 208.851158 
L 363.875381 211.947354 
L 364.120034 212.111249 
L 364.364687 212.581758 
L 364.60934 216.930277 
L 364.853993 213.199606 
L 365.098646 211.850184 
L 365.343299 211.861547 
L 365.587952 212.207442 
L 365.832605 213.752205 
L 366.077258 216.353189 
L 366.321911 215.497144 
L 366.566564 218.34764 
L 366.811217 215.272384 
L 367.05587 217.025851 
L 367.789829 207.382125 
L 368.279135 217.39221 
L 368.523788 219.76748 
L 368.768441 219.192392 
L 369.013094 217.775792 
L 369.257747 217.784702 
L 369.5024 215.608346 
L 369.747053 220.829061 
L 369.991706 223.558087 
L 370.236359 221.822367 
L 370.725665 217.094339 
L 370.970318 220.601393 
L 371.214971 231.940294 
L 371.459624 228.509185 
L 371.704277 230.288999 
L 371.94893 234.011905 
L 372.193583 228.507422 
L 372.682889 225.932476 
L 373.172195 218.544791 
L 373.416848 217.658302 
L 373.661501 217.446429 
L 373.906154 220.829918 
L 374.150807 220.220265 
L 374.39546 220.204328 
L 374.640113 221.364198 
L 374.884766 223.860579 
L 375.129419 222.902767 
L 375.374072 220.615353 
L 375.863378 219.970729 
L 376.108031 220.03967 
L 376.597338 217.66259 
L 377.086644 213.923343 
L 377.331297 208.644264 
L 377.57595 207.247269 
L 377.820603 212.481419 
L 378.065256 213.027873 
L 378.309909 217.475015 
L 378.554562 216.663185 
L 378.799215 218.947597 
L 379.043868 216.903239 
L 379.288521 218.235652 
L 379.533174 210.737957 
L 379.777827 206.742599 
L 380.02248 207.294389 
L 380.267133 208.922005 
L 380.511786 206.166202 
L 380.756439 212.990186 
L 381.001092 224.709787 
L 381.245745 210.165204 
L 381.490398 202.68852 
L 381.490398 202.68852 
" style="fill:none;stroke:#1f77b4;stroke-linecap:square;stroke-width:1.5;"/>
   </g>
   <g id="line2d_32">
    <path clip-path="url(#p0f8f95a52a)" d="M 56.835852 175.230816 
L 57.080505 171.921072 
L 57.325158 172.92024 
L 57.569811 176.916912 
L 57.814464 168.423984 
L 58.059117 169.110912 
L 58.30377 161.554704 
L 58.548423 160.867776 
L 58.793076 157.433137 
L 59.037729 157.558033 
L 59.282382 156.808657 
L 59.527035 154.997665 
L 59.771688 154.185841 
L 60.016341 153.873601 
L 60.260994 149.377345 
L 60.505647 152.437297 
L 60.7503 156.933553 
L 60.994953 156.371521 
L 61.239606 157.120897 
L 61.484259 154.747873 
L 61.728912 155.122561 
L 61.973566 157.370689 
L 62.218219 156.746209 
L 62.462872 162.428976 
L 62.707525 160.805328 
L 62.952178 164.864448 
L 63.196831 165.676272 
L 63.441484 153.561361 
L 63.93079 161.866944 
L 64.420096 154.685425 
L 64.909402 139.448113 
L 65.154055 139.885249 
L 65.398708 138.199153 
L 65.643361 138.199153 
L 65.888014 142.757857 
L 66.132667 143.257441 
L 66.37732 147.066769 
L 66.621973 152.874433 
L 66.866626 155.434801 
L 67.111279 148.128385 
L 67.600585 157.995169 
L 67.845238 158.744545 
L 68.089891 156.996001 
L 68.334544 153.374017 
L 68.579197 153.436465 
L 69.068503 167.487264 
L 69.557809 174.856128 
L 69.802462 176.854464 
L 70.047115 174.356544 
L 70.536421 163.802832 
L 71.025727 177.728736 
L 71.27038 178.165872 
L 71.515033 180.476448 
L 71.759686 184.722912 
L 72.004339 185.971872 
L 72.248992 175.917744 
L 72.493645 178.603008 
L 72.738298 171.608832 
L 72.982951 174.294096 
L 73.227604 167.237472 
L 73.472257 167.61216 
L 73.71691 181.66296 
L 73.961563 165.73872 
L 74.206216 159.806161 
L 74.450869 159.806161 
L 74.695522 156.621313 
L 75.184828 161.929392 
L 75.429481 157.870273 
L 75.674134 156.871105 
L 75.918787 156.558865 
L 76.16344 156.558865 
L 76.408093 150.376513 
L 76.652746 154.373185 
L 76.897399 155.809489 
L 77.142052 153.374017 
L 77.386705 149.002657 
L 77.631358 147.316561 
L 77.876011 148.877761 
L 78.120664 148.253281 
L 78.365317 147.254113 
L 78.60997 143.694577 
L 78.854623 145.817809 
L 79.099276 145.380673 
L 79.343929 142.757857 
L 79.833235 152.687089 
L 80.077888 170.984352 
L 80.567194 148.940209 
L 80.811847 153.998497 
L 81.0565 152.062609 
L 81.301153 159.868609 
L 81.545806 158.057617 
L 81.790459 159.993505 
L 82.035112 160.493088 
L 82.279765 165.926064 
L 82.524418 158.307409 
L 82.769071 140.259937 
L 83.013724 142.133377 
L 83.258377 148.065937 
L 83.50303 144.881089 
L 83.747683 145.505569 
L 83.992336 139.448113 
L 84.236989 140.072593 
L 84.481643 139.323217 
L 84.726296 143.444785 
L 84.970949 142.195825 
L 85.460255 137.824465 
L 85.704908 140.697073 
L 85.949561 140.697073 
L 86.194214 139.385665 
L 86.438867 142.445617 
L 86.68352 147.066769 
L 86.928173 147.004321 
L 87.172826 148.378177 
L 87.417479 147.878593 
L 87.662132 132.329041 
L 87.906785 127.895233 
L 88.151438 134.702065 
L 88.396091 126.521378 
L 88.640744 125.085074 
L 88.885397 129.081745 
L 89.374703 125.085074 
L 89.619356 133.140865 
L 89.864009 135.888577 
L 90.108662 135.388993 
L 90.353315 136.013473 
L 90.597968 134.514721 
L 91.087274 139.822801 
L 91.331927 139.073425 
L 91.57658 139.947697 
L 92.065886 134.702065 
L 92.310539 134.702065 
L 92.555192 130.580497 
L 92.799845 128.519713 
L 93.044498 120.151682 
L 93.289151 128.269921 
L 93.533804 127.520545 
L 93.778457 128.394817 
L 94.02311 128.082577 
L 94.267763 125.959346 
L 94.757069 128.894401 
L 95.001722 138.886081 
L 95.246375 141.446449 
L 95.491028 140.447281 
L 95.735681 134.077585 
L 95.980334 136.513057 
L 96.224987 132.953521 
L 96.46964 134.514721 
L 96.714293 128.582161 
L 96.958946 128.207473 
L 97.203599 126.583826 
L 97.448252 132.453937 
L 97.692905 130.892737 
L 98.182211 133.640449 
L 98.426864 137.699569 
L 98.671517 133.328209 
L 98.91617 132.703729 
L 99.160823 124.460594 
L 99.650129 128.207473 
L 99.894782 135.638785 
L 100.139435 133.640449 
L 100.384088 143.507233 
L 100.628741 147.191665 
L 100.873394 145.380673 
L 101.607353 132.453937 
L 101.852006 154.685425 
L 102.096659 160.43064 
L 102.341312 159.868609 
L 102.585965 159.931057 
L 102.830618 157.932721 
L 103.319924 146.379841 
L 103.80923 145.130881 
L 104.053883 144.194161 
L 104.298536 144.256609 
L 104.543189 140.946865 
L 104.787842 139.885249 
L 105.032495 136.700401 
L 105.277148 135.326545 
L 105.521801 134.702065 
L 105.766454 128.644609 
L 106.500413 137.262433 
L 106.745066 145.505569 
L 106.98972 143.319889 
L 107.234373 144.506401 
L 107.479026 144.256609 
L 107.723679 143.819473 
L 107.968332 148.190833 
L 108.212985 149.752033 
L 108.457638 146.754529 
L 108.702291 150.251617 
L 108.946944 151.375681 
L 109.191597 156.808657 
L 109.43625 157.245793 
L 109.680903 159.556369 
L 109.925556 162.991008 
L 110.170209 157.682929 
L 110.414862 161.304912 
L 110.659515 156.996001 
L 110.904168 155.060113 
L 111.148821 157.995169 
L 111.393474 164.17752 
L 111.638127 165.73872 
L 111.88278 170.672112 
L 112.127433 158.619649 
L 112.372086 161.99184 
L 112.616739 163.178352 
L 112.861392 163.115904 
L 113.106045 163.927728 
L 113.350698 164.17752 
L 113.595351 164.239968 
L 113.840004 163.990176 
L 114.32931 173.732064 
L 114.818616 161.804496 
L 115.063269 157.308241 
L 115.307922 161.929392 
L 115.797228 153.374017 
L 116.041881 162.92856 
L 116.286534 160.805328 
L 116.531187 156.121729 
L 116.77584 155.559697 
L 117.020493 161.242464 
L 117.509799 141.134209 
L 117.754452 143.444785 
L 117.999105 141.758689 
L 118.243758 141.446449 
L 118.488411 137.012641 
L 118.733064 127.770337 
L 119.467023 137.387329 
L 119.711676 130.268257 
L 119.956329 130.767841 
L 120.200982 129.581329 
L 120.445635 124.647938 
L 120.690288 126.45893 
L 120.934941 126.521378 
L 121.179594 126.833618 
L 121.424247 130.393153 
L 121.6689 128.020129 
L 121.913553 128.894401 
L 122.158206 125.397314 
L 122.402859 125.272418 
L 122.647512 126.521378 
L 122.892165 132.329041 
L 123.136818 128.956849 
L 123.381471 128.020129 
L 123.626124 130.705393 
L 124.604736 119.839442 
L 125.094042 106.912706 
L 125.338695 119.402306 
L 125.583348 114.90605 
L 125.828001 116.342354 
L 126.072654 119.402306 
L 126.317307 111.096722 
L 126.56196 109.722866 
L 126.806613 110.84693 
L 127.051266 113.34485 
L 127.295919 113.844434 
L 127.540572 116.77949 
L 127.785225 115.280738 
L 128.029878 114.531362 
L 128.274531 123.836114 
L 128.519184 124.210802 
L 129.00849 121.962674 
L 129.253143 125.52221 
L 129.497797 119.839442 
L 130.231756 134.264929 
L 130.721062 122.774498 
L 130.965715 121.525538 
L 131.210368 118.902722 
L 131.455021 114.531362 
L 131.699674 115.592978 
L 131.944327 117.466418 
L 132.18898 115.155842 
L 132.433633 114.219122 
L 132.678286 125.959346 
L 132.922939 126.583826 
L 133.167592 118.278242 
L 133.901551 113.469746 
L 134.390857 108.099218 
L 134.63551 110.160002 
L 134.880163 113.719538 
L 135.124816 109.098386 
L 135.369469 125.647106 
L 135.614122 123.398978 
L 135.858775 122.337362 
L 136.103428 116.77949 
L 136.592734 99.856082 
L 136.837387 93.923522 
L 137.08204 95.359826 
L 137.326693 95.984306 
L 137.571346 101.042594 
L 137.815999 96.79613 
L 138.060652 88.990131 
L 138.305305 91.925187 
L 138.549958 84.681219 
L 138.794611 85.243251 
L 139.039264 85.118355 
L 139.773223 87.616275 
L 140.017876 87.304035 
L 140.262529 83.994291 
L 140.507182 86.429763 
L 140.751835 86.367315 
L 141.241141 90.426435 
L 141.485794 91.363155 
L 142.219753 87.616275 
L 142.464406 92.299875 
L 142.709059 89.302371 
L 142.953712 89.739507 
L 143.198365 88.490547 
L 143.687671 83.744499 
L 143.932324 85.180803 
L 144.176977 80.934339 
L 144.42163 86.742003 
L 144.666283 89.427267 
L 144.910936 90.613779 
L 145.400242 84.493875 
L 145.644895 83.057571 
L 145.889548 83.307363 
L 146.134201 87.366483 
L 146.378854 86.304867 
L 146.623507 79.310691 
L 146.86816 77.999283 
L 147.112813 77.936835 
L 147.357466 73.378131 
L 147.602119 71.379795 
L 147.846772 70.817763 
L 148.091425 81.995955 
L 148.825384 100.480562 
L 149.070037 87.116691 
L 149.31469 81.121683 
L 149.803996 91.800291 
L 150.048649 92.674563 
L 151.271914 67.383123 
L 151.516567 67.258227 
L 151.76122 68.257395 
L 152.005874 72.503859 
L 152.49518 70.318179 
L 152.739833 72.441411 
L 152.984486 73.565475 
L 153.229139 76.812771 
L 153.963098 74.439747 
L 154.207751 84.806115 
L 154.452404 69.319011 
L 154.94171 63.761139 
L 155.186363 65.072547 
L 155.431016 63.324003 
L 155.675669 65.572131 
L 155.920322 63.948483 
L 156.409628 77.874387 
L 156.654281 63.636243 
L 156.898934 60.950979 
L 157.143587 64.947651 
L 157.38824 56.89186 
L 157.632893 56.329828 
L 157.877546 59.139988 
L 158.122199 54.019252 
L 158.366852 55.580452 
L 158.611505 50.9593 
L 158.856158 49.522996 
L 159.100811 52.145812 
L 159.345464 44.40226 
L 159.590117 44.152468 
L 159.83477 41.5921 
L 160.079423 54.206596 
L 160.324076 57.016756 
L 160.813382 45.463876 
L 161.058035 57.079204 
L 161.302688 57.453892 
L 161.547341 50.397268 
L 161.791994 48.211588 
L 162.036647 43.902676 
L 162.2813 36.783604 
L 162.770606 41.217412 
L 163.015259 40.592932 
L 163.259912 58.328164 
L 163.504565 59.951812 
L 163.993871 54.269044 
L 164.238524 53.082532 
L 164.483177 51.333988 
L 164.72783 51.333988 
L 164.972483 47.774452 
L 165.217136 49.335652 
L 165.461789 49.210756 
L 165.706442 48.14914 
L 165.951095 48.14914 
L 166.440401 42.716164 
L 166.685054 42.466372 
L 167.17436 48.648724 
L 167.419013 46.213252 
L 167.663666 45.901012 
L 168.152972 47.774452 
L 168.397625 45.776116 
L 168.642278 42.154132 
L 168.886931 43.652884 
L 169.131584 43.840228 
L 169.376237 42.21658 
L 169.62089 42.029236 
L 169.865543 42.52882 
L 170.110196 45.526324 
L 170.354849 47.149972 
L 170.599502 42.653716 
L 170.844155 45.33898 
L 171.088808 50.147476 
L 171.333461 49.960132 
L 171.578114 49.148308 
L 171.822767 50.584612 
L 172.06742 53.45722 
L 172.312073 50.272372 
L 172.556726 50.085028 
L 172.801379 46.58794 
L 173.046032 45.901012 
L 173.290685 48.586276 
L 173.779991 57.2041 
L 174.024644 52.707844 
L 174.513951 50.02258 
L 175.24791 38.844388 
L 175.737216 40.96762 
L 175.981869 40.218244 
L 176.226522 42.341476 
L 176.471175 47.52466 
L 176.960481 48.523828 
L 177.205134 47.399764 
L 177.449787 56.829412 
L 177.69444 48.836068 
L 177.939093 47.087524 
L 178.183746 35.472196 
L 178.428399 35.03506 
L 178.673052 68.944323 
L 178.917705 69.381459 
L 179.162358 71.067555 
L 179.407011 74.314851 
L 179.651664 69.756147 
L 179.896317 84.244083 
L 180.14097 91.550499 
L 180.385623 87.116691 
L 180.630276 90.301539 
L 180.874929 89.427267 
L 181.119582 91.925187 
L 181.608888 77.936835 
L 181.853541 81.621267 
L 182.342847 77.749491 
L 182.5875 79.935171 
L 182.832153 76.063395 
L 183.076806 75.438915 
L 183.321459 67.258227 
L 183.566112 65.197443 
L 183.810765 64.885203 
L 184.055418 66.321507 
L 184.300071 63.698691 
L 184.544724 63.948483 
L 184.789377 67.882707 
L 185.03403 69.381459 
L 185.278683 75.876051 
L 185.523336 76.937667 
L 185.767989 75.563811 
L 186.012642 71.192451 
L 186.257295 70.630419 
L 186.501948 71.005107 
L 186.746601 70.443075 
L 186.991254 69.319011 
L 187.235907 74.189955 
L 187.48056 75.751155 
L 187.725213 71.816931 
L 187.969866 71.067555 
L 188.214519 67.258227 
L 188.459172 72.940995 
L 188.703825 68.194947 
L 188.948478 71.067555 
L 189.193131 68.507187 
L 189.437784 77.437251 
L 189.682437 75.876051 
L 189.92709 77.374803 
L 190.171743 77.687043 
L 190.416396 83.244915 
L 190.661049 84.618771 
L 190.905702 77.125011 
L 191.150355 77.999283 
L 191.395008 85.555491 
L 191.639661 75.064227 
L 191.884314 81.995955 
L 192.128967 99.856082 
L 192.37362 103.04093 
L 192.618273 95.85941 
L 192.862926 99.980978 
L 193.107579 100.355666 
L 193.841538 76.250739 
L 194.086191 80.622099 
L 194.575497 70.005939 
L 194.82015 71.005107 
L 195.064803 66.446403 
L 195.309456 64.448067 
L 195.554109 61.450563 
L 195.798762 54.331492 
L 196.043415 56.017588 
L 196.288068 63.074211 
L 196.532721 62.512179 
L 196.777375 103.852754 
L 197.022028 112.09589 
L 197.266681 111.47141 
L 197.511334 109.722866 
L 198.00064 103.415618 
L 198.245293 102.166658 
L 198.489946 104.976818 
L 198.734599 94.92269 
L 198.979252 104.539682 
L 199.223905 103.04093 
L 199.468558 98.294882 
L 199.713211 96.921026 
L 199.957864 93.299043 
L 200.202517 93.361491 
L 200.44717 89.364819 
L 200.691823 96.296546 
L 201.181129 80.184963 
L 201.425782 86.617107 
L 201.670435 86.429763 
L 201.915088 91.175811 
L 202.159741 88.740339 
L 202.404394 98.107538 
L 202.649047 95.047586 
L 202.8937 103.852754 
L 203.138353 105.164162 
L 203.383006 105.53885 
L 203.872312 86.492211 
L 204.116965 86.055075 
L 204.361618 78.998451 
L 204.850924 78.373971 
L 205.095577 72.378963 
L 205.34023 76.375635 
L 205.584883 76.125843 
L 205.829536 80.434755 
L 206.074189 80.746995 
L 206.318842 82.932675 
L 206.563495 89.489715 
L 207.052801 79.373139 
L 207.297454 79.872723 
L 208.276066 98.856914 
L 208.520719 99.418946 
L 208.765372 91.987635 
L 209.010025 97.545506 
L 209.743984 91.175811 
L 210.23329 101.292386 
L 210.477943 146.879425 
L 210.722596 154.560529 
L 210.967249 135.388993 
L 211.211902 126.45893 
L 211.456555 126.45893 
L 211.701208 120.276578 
L 211.945861 130.268257 
L 212.190514 125.52221 
L 212.435167 105.85109 
L 212.67982 106.16333 
L 212.924473 105.039266 
L 213.169126 101.979314 
L 213.413779 102.478898 
L 213.658432 104.102546 
L 214.147738 97.982642 
L 214.392391 101.604626 
L 214.881697 96.983474 
L 215.12635 94.92269 
L 215.371003 91.800291 
L 215.615656 90.863571 
L 215.860309 98.66957 
L 216.104962 102.229106 
L 216.349615 101.667074 
L 216.594268 98.107538 
L 216.838921 90.613779 
L 217.083574 95.672066 
L 217.57288 111.408962 
L 217.817533 115.967666 
L 218.062186 107.474738 
L 218.306839 108.66125 
L 218.551492 106.038434 
L 218.796145 108.536354 
L 219.040798 107.224946 
L 219.285452 107.10005 
L 219.530105 113.906882 
L 219.774758 124.89773 
L 220.019411 125.20997 
L 220.264064 126.021794 
L 220.508717 114.468914 
L 220.75337 111.596306 
L 220.998023 111.034274 
L 221.242676 120.151682 
L 221.487329 121.46309 
L 221.731982 124.27325 
L 221.976635 124.58549 
L 222.221288 114.90605 
L 222.465941 112.72037 
L 222.710594 115.405634 
L 222.955247 113.906882 
L 223.444553 120.52637 
L 223.689206 125.52221 
L 223.933859 115.967666 
L 224.178512 116.404802 
L 224.423165 114.094226 
L 224.667818 117.841106 
L 224.912471 118.465586 
L 225.157124 112.283234 
L 225.401777 109.660418 
L 225.891083 119.964338 
L 226.135736 117.341522 
L 226.380389 113.34485 
L 226.869695 121.15085 
L 227.114348 117.279074 
L 227.359001 111.15917 
L 227.848307 115.093394 
L 228.337613 104.227442 
L 228.582266 100.85525 
L 229.316225 111.970994 
L 229.560878 106.912706 
L 229.805531 110.53469 
L 230.050184 111.47141 
L 230.294837 101.105042 
L 230.53949 103.727858 
L 230.784143 109.473074 
L 231.028796 111.096722 
L 231.273449 111.533858 
L 231.518102 108.34901 
L 232.252061 124.460594 
L 232.496714 127.208305 
L 232.98602 122.462258 
L 233.475326 128.582161 
L 233.719979 129.581329 
L 233.964632 129.019297 
L 234.209285 123.96101 
L 234.453938 126.958513 
L 234.698591 123.96101 
L 234.943244 126.334034 
L 235.187897 136.513057 
L 235.43255 137.075089 
L 235.677203 140.759521 
L 235.921856 153.561361 
L 236.166509 153.498913 
L 236.655815 150.501409 
L 236.900468 150.501409 
L 237.145121 152.437297 
L 237.389774 157.995169 
L 237.634427 158.307409 
L 238.123733 148.503073 
L 238.368386 145.318225 
L 238.613039 145.692913 
L 238.857692 141.508897 
L 239.102345 142.820305 
L 239.346998 146.254945 
L 239.591651 137.824465 
L 239.836304 143.757025 
L 240.080957 158.806993 
L 240.32561 159.681265 
L 240.570263 157.558033 
L 240.814916 150.563857 
L 241.059569 150.126721 
L 241.304222 142.383169 
L 241.548875 142.508065 
L 241.793529 142.258273 
L 242.038182 148.378177 
L 242.282835 145.692913 
L 242.527488 152.187505 
L 243.016794 150.251617 
L 243.261447 153.998497 
L 243.5061 153.811153 
L 243.750753 157.245793 
L 243.995406 157.995169 
L 244.240059 156.996001 
L 244.484712 161.6796 
L 244.729365 162.553872 
L 244.974018 168.986016 
L 245.463324 199.398191 
L 245.707977 208.140911 
L 245.95263 190.780368 
L 246.197283 186.409008 
L 246.441936 185.846976 
L 246.686589 191.279952 
L 246.931242 201.021839 
L 247.175895 195.776207 
L 247.420548 197.712095 
L 247.665201 205.580543 
L 247.909854 199.897775 
L 248.154507 205.393199 
L 248.39916 199.085951 
L 248.643813 203.269967 
L 248.888466 205.455647 
L 249.377772 199.897775 
L 249.622425 201.271631 
L 249.867078 204.581375 
L 250.111731 204.956063 
L 250.601037 210.139247 
L 250.84569 211.950239 
L 251.090343 212.262479 
L 251.334996 216.508943 
L 251.579649 217.195871 
L 251.824302 209.077631 
L 252.068955 212.512271 
L 252.558261 193.465631 
L 252.802914 192.9036 
L 253.047567 191.092608 
L 253.29222 184.535568 
L 253.536873 183.786192 
L 253.781526 183.723744 
L 254.026179 185.472288 
L 254.515485 174.543888 
L 254.760138 170.484768 
L 255.004791 175.543056 
L 255.249444 176.167536 
L 255.494097 176.35488 
L 255.73875 167.237472 
L 255.983403 165.364032 
L 256.228056 174.856128 
L 256.472709 174.418992 
L 256.717362 168.23664 
L 256.962015 169.922736 
L 257.206668 173.54472 
L 257.451321 165.926064 
L 257.695974 164.48976 
L 257.940627 168.299088 
L 258.18528 225.688799 
L 258.429933 211.013519 
L 258.919239 218.195039 
L 259.163892 214.573055 
L 259.408545 216.259151 
L 259.653198 220.255823 
L 259.897851 215.072639 
L 260.142504 213.761231 
L 260.387157 244.860334 
L 260.63181 242.424862 
L 260.876463 234.743758 
L 261.121116 238.802878 
L 261.365769 236.055166 
L 261.610422 237.991054 
L 261.855075 241.488142 
L 262.099728 239.926942 
L 262.344381 236.742094 
L 262.589034 220.817855 
L 262.833687 223.628015 
L 263.07834 217.757903 
L 263.322993 217.195871 
L 263.567646 235.61803 
L 263.812299 241.175902 
L 264.056952 241.300798 
L 264.546259 252.16675 
L 264.790912 244.735438 
L 265.035565 244.423198 
L 265.280218 247.732942 
L 265.524871 248.41987 
L 265.769524 240.114286 
L 266.014177 238.240846 
L 266.25883 238.365742 
L 266.503483 235.180894 
L 266.748136 234.99355 
L 266.992789 226.87531 
L 267.482095 232.49563 
L 267.726748 231.621358 
L 267.971401 237.741262 
L 268.216054 240.863662 
L 268.460707 256.475662 
L 268.70536 258.09931 
L 268.950013 256.912798 
L 269.194666 254.102638 
L 269.439319 256.725454 
L 269.683972 246.54643 
L 269.928625 258.473998 
L 270.173278 256.787902 
L 270.417931 257.78707 
L 270.907237 244.423198 
L 271.15189 247.48315 
L 271.396543 241.613038 
L 271.641196 247.79539 
L 271.885849 272.399901 
L 272.130502 261.471501 
L 272.375155 256.663006 
L 272.619808 275.147613 
L 273.109114 259.473166 
L 273.353767 269.714637 
L 273.59842 270.526461 
L 273.843073 272.275005 
L 274.087726 276.334125 
L 274.332379 276.084333 
L 274.821685 252.79123 
L 275.066338 242.299966 
L 275.310991 238.11595 
L 275.555644 235.992718 
L 275.800297 224.377391 
L 276.04495 229.747918 
L 276.289603 222.878639 
L 276.534256 222.129263 
L 276.778909 222.254159 
L 277.023562 221.567231 
L 277.268215 227.437342 
L 277.757521 214.573055 
L 278.002174 217.508111 
L 278.246827 215.759567 
L 278.49148 211.762895 
L 278.980786 220.193375 
L 279.225439 219.756239 
L 279.470092 218.507279 
L 279.714745 219.319103 
L 280.204051 224.252495 
L 280.448704 223.752911 
L 280.693357 222.441503 
L 280.93801 218.569727 
L 281.182663 219.756239 
L 281.427316 226.188383 
L 281.671969 227.000206 
L 281.916622 231.184222 
L 282.405928 226.188383 
L 282.650581 225.251663 
L 283.139887 228.311614 
L 283.38454 231.933598 
L 283.629193 228.498958 
L 283.873846 232.18339 
L 284.363152 226.125935 
L 284.607805 227.249998 
L 284.852458 220.380719 
L 285.097111 221.005199 
L 285.341764 225.751247 
L 285.83107 220.942751 
L 286.075723 219.319103 
L 286.320376 221.941919 
L 286.56503 215.884463 
L 286.809683 217.195871 
L 287.054336 214.198367 
L 287.298989 214.260815 
L 287.543642 219.069311 
L 287.788295 229.123438 
L 288.032948 225.439007 
L 288.522254 229.310782 
L 288.766907 225.314111 
L 289.01156 226.625518 
L 289.256213 224.876975 
L 289.500866 218.944415 
L 289.745519 218.944415 
L 289.990172 222.941087 
L 290.234825 224.127599 
L 290.479478 220.443167 
L 290.724131 219.943583 
L 290.968784 214.947743 
L 291.213437 215.135087 
L 291.45809 204.144239 
L 291.702743 206.267471 
L 291.947396 197.462303 
L 292.192049 195.026831 
L 292.436702 196.525583 
L 292.926008 201.646319 
L 293.170661 202.458143 
L 293.659967 201.521423 
L 294.149273 202.145903 
L 294.393926 201.521423 
L 294.638579 201.271631 
L 295.127885 214.697951 
L 295.372538 215.509775 
L 295.617191 211.887791 
L 296.106497 210.201695 
L 296.35115 208.078463 
L 296.595803 208.140911 
L 296.840456 207.141743 
L 297.085109 197.712095 
L 297.329762 219.131759 
L 297.574415 225.251663 
L 298.063721 210.201695 
L 298.308374 210.076799 
L 298.553027 213.636335 
L 298.79768 220.255823 
L 299.286986 214.073471 
L 299.531639 206.205023 
L 299.776292 206.642159 
L 300.020945 203.519759 
L 300.265598 202.208351 
L 300.510251 201.896111 
L 300.754904 202.707935 
L 300.999557 198.961055 
L 301.24421 200.272463 
L 301.488863 196.025999 
L 301.733516 170.359872 
L 301.978169 162.741216 
L 302.222822 165.364032 
L 302.467475 161.492256 
L 302.712128 154.248289 
L 302.956781 154.747873 
L 303.201434 153.811153 
L 303.446087 158.369857 
L 303.69074 166.175856 
L 303.935393 163.615488 
L 304.180046 163.802832 
L 304.424699 157.433137 
L 304.669352 160.055953 
L 304.914005 157.495585 
L 305.158658 159.244129 
L 305.403311 159.056785 
L 305.647964 159.244129 
L 305.892617 154.747873 
L 306.13727 156.996001 
L 306.381923 155.684593 
L 306.626576 150.938545 
L 306.871229 152.687089 
L 307.115882 152.249953 
L 307.360535 150.626305 
L 307.605188 153.623809 
L 307.849841 153.436465 
L 308.094494 151.375681 
L 308.339147 151.313233 
L 308.5838 151.563025 
L 308.828453 150.751201 
L 309.073107 148.253281 
L 309.31776 149.002657 
L 309.562413 150.626305 
L 309.807066 154.747873 
L 310.051719 153.124225 
L 310.296372 166.67544 
L 310.541025 155.871937 
L 310.785678 161.866944 
L 311.030331 159.993505 
L 311.274984 154.060945 
L 311.519637 151.250785 
L 312.008943 153.061777 
L 312.253596 147.628801 
L 312.498249 147.941041 
L 312.987555 155.497249 
L 313.232208 149.252449 
L 313.476861 148.378177 
L 313.721514 123.398978 
L 313.966167 116.841938 
L 314.21082 125.52221 
L 314.455473 128.207473 
L 314.700126 127.208305 
L 315.189432 118.777826 
L 315.678738 131.891905 
L 315.923391 132.079249 
L 316.168044 134.327377 
L 316.412697 134.327377 
L 316.65735 137.512225 
L 316.902003 131.829457 
L 317.146656 133.765345 
L 317.391309 124.085906 
L 317.635962 120.401474 
L 317.880615 119.58965 
L 318.125268 121.77533 
L 318.369921 118.715378 
L 318.614574 106.912706 
L 318.859227 117.466418 
L 319.10388 115.468082 
L 319.348533 117.841106 
L 319.593186 125.647106 
L 319.837839 126.521378 
L 320.082492 127.895233 
L 320.327145 117.09173 
L 320.571798 118.278242 
L 320.816451 120.713714 
L 321.061104 130.518049 
L 321.305757 126.958513 
L 321.55041 132.891073 
L 321.795063 127.645441 
L 322.039716 130.580497 
L 322.284369 128.269921 
L 322.529022 124.27325 
L 322.773675 125.584658 
L 323.018328 118.02845 
L 323.262981 119.152514 
L 323.507634 118.153346 
L 323.752287 125.584658 
L 323.99694 127.645441 
L 324.241593 119.152514 
L 324.486246 143.944369 
L 324.730899 133.453105 
L 324.975552 130.205809 
L 325.464858 117.841106 
L 325.709511 116.529698 
L 326.198817 117.029282 
L 326.44347 111.596306 
L 326.688123 122.71205 
L 326.932776 119.776994 
L 327.177429 129.581329 
L 327.422082 126.084242 
L 327.666735 126.77117 
L 327.911388 125.20997 
L 328.156041 127.707889 
L 328.400694 127.083409 
L 328.645347 124.647938 
L 328.89 134.015137 
L 329.134653 132.204145 
L 329.379306 137.449777 
L 329.623959 136.200817 
L 330.113265 135.264097 
L 330.357918 135.388993 
L 330.602571 134.639617 
L 330.847224 134.764513 
L 331.091877 131.829457 
L 331.33653 131.704561 
L 331.581184 126.958513 
L 331.825837 143.757025 
L 332.07049 137.886913 
L 332.315143 142.195825 
L 332.559796 151.937713 
L 332.804449 201.896111 
L 333.049102 201.146735 
L 333.293755 189.281616 
L 333.538408 207.079295 
L 333.783061 205.892783 
L 334.027714 209.827007 
L 334.272367 210.951071 
L 334.51702 212.699615 
L 334.761673 215.759567 
L 335.006326 213.761231 
L 335.250979 214.385711 
L 335.495632 211.950239 
L 335.740285 214.323263 
L 335.984938 214.385711 
L 336.474244 201.583871 
L 336.718897 198.149231 
L 336.96355 191.841984 
L 337.208203 189.406512 
L 337.452856 192.029328 
L 337.942162 188.032656 
L 338.186815 187.782864 
L 338.431468 187.28328 
L 338.676121 190.343232 
L 338.920774 191.904432 
L 339.165427 188.594688 
L 339.41008 192.59136 
L 339.654733 192.154224 
L 339.899386 192.091776 
L 340.144039 190.343232 
L 340.388692 183.84864 
L 340.633345 182.59968 
L 340.877998 178.415664 
L 341.367304 181.03848 
L 341.611957 179.16504 
L 341.85661 180.226656 
L 342.101263 185.222496 
L 342.345916 183.598848 
L 342.590569 189.906096 
L 342.835222 188.407344 
L 343.079875 189.843648 
L 343.324528 189.15672 
L 343.569181 190.780368 
L 343.813834 186.284112 
L 344.058487 186.409008 
L 344.30314 187.408176 
L 344.547793 186.533904 
L 344.792446 191.779536 
L 345.037099 190.655472 
L 345.281752 191.96688 
L 345.526405 191.592192 
L 345.771058 192.9036 
L 346.015711 191.65464 
L 346.260364 198.961055 
L 346.505017 211.200863 
L 346.74967 214.947743 
L 346.994323 214.323263 
L 347.238976 215.697119 
L 347.483629 216.071807 
L 347.728282 215.759567 
L 347.972935 216.758735 
L 348.462241 213.636335 
L 348.706894 213.386543 
L 348.951547 212.324927 
L 349.1962 209.015183 
L 349.440853 209.889455 
L 349.685506 211.825343 
L 349.930159 204.331583 
L 350.174812 201.708767 
L 350.419465 201.583871 
L 350.664118 203.519759 
L 350.908771 200.210015 
L 351.153424 199.085951 
L 351.398077 203.145071 
L 351.64273 199.148399 
L 351.887383 198.648815 
L 352.132036 195.214175 
L 352.376689 198.898607 
L 352.621342 194.152559 
L 353.110648 174.418992 
L 353.355301 174.79368 
L 353.599954 178.415664 
L 353.844607 179.602176 
L 354.089261 185.40984 
L 354.333914 186.533904 
L 354.578567 186.97104 
L 354.82322 178.54056 
L 355.067873 178.790352 
L 355.312526 177.041808 
L 355.801832 185.347392 
L 356.046485 181.66296 
L 356.291138 188.344896 
L 356.535791 185.597184 
L 356.780444 185.284944 
L 357.025097 188.594688 
L 357.514403 189.7812 
L 357.759056 184.847808 
L 358.248362 192.841152 
L 358.493015 191.96688 
L 358.737668 189.219168 
L 358.982321 191.404848 
L 359.226974 198.461471 
L 359.471627 193.902767 
L 359.71628 200.647151 
L 359.960933 199.772879 
L 360.205586 201.458975 
L 360.450239 198.336575 
L 360.694892 202.458143 
L 360.939545 198.961055 
L 361.184198 197.150063 
L 361.428851 199.085951 
L 361.673504 193.652975 
L 361.918157 193.465631 
L 362.16281 189.843648 
L 362.407463 192.029328 
L 362.652116 193.090944 
L 362.896769 190.030992 
L 363.141422 207.578879 
L 363.386075 208.390703 
L 363.630728 212.262479 
L 363.875381 211.950239 
L 364.120034 212.762063 
L 364.364687 216.821183 
L 364.853993 212.449823 
L 365.098646 211.075967 
L 365.832605 216.009359 
L 366.077258 215.509775 
L 366.321911 218.070143 
L 366.566564 215.072639 
L 366.811217 217.757903 
L 367.05587 215.384879 
L 367.300523 210.201695 
L 367.545176 208.203359 
L 367.789829 211.700447 
L 368.034482 218.195039 
L 368.279135 220.380719 
L 368.523788 220.006031 
L 368.768441 217.695455 
L 369.013094 218.444831 
L 369.257747 216.821183 
L 369.5024 219.693791 
L 369.747053 221.067647 
L 369.991706 221.067647 
L 370.236359 219.131759 
L 370.481012 218.195039 
L 370.725665 219.568895 
L 370.970318 232.18339 
L 371.214971 229.560574 
L 371.459624 229.99771 
L 371.704277 234.618862 
L 371.94893 228.811198 
L 372.193583 226.750414 
L 372.438236 226.063487 
L 372.682889 223.128431 
L 372.927542 218.694623 
L 373.416848 218.007695 
L 373.661501 220.006031 
L 374.150807 219.319103 
L 374.640113 225.314111 
L 374.884766 222.691295 
L 375.129419 221.442335 
L 375.374072 220.880303 
L 375.618725 220.630511 
L 375.863378 219.756239 
L 376.108031 220.130927 
L 376.352684 217.695455 
L 376.597338 216.821183 
L 376.841991 214.385711 
L 377.086644 208.203359 
L 377.331297 206.642159 
L 377.57595 213.636335 
L 377.820603 214.760399 
L 378.065256 217.508111 
L 378.309909 217.320767 
L 378.554562 218.569727 
L 378.799215 218.070143 
L 379.043868 219.756239 
L 379.533174 205.830335 
L 379.777827 208.390703 
L 380.02248 208.640495 
L 380.267133 203.831999 
L 380.511786 203.269967 
L 380.756439 226.063487 
L 381.245745 202.145903 
L 381.490398 158.619649 
L 381.490398 158.619649 
" style="fill:none;stroke:#ff7f0e;stroke-linecap:square;stroke-width:1.5;"/>
   </g>
   <g id="patch_3">
    <path d="M 40.603125 288.430125 
L 40.603125 22.318125 
" style="fill:none;stroke:#000000;stroke-linecap:square;stroke-linejoin:miter;stroke-width:0.8;"/>
   </g>
   <g id="patch_4">
    <path d="M 397.723125 288.430125 
L 397.723125 22.318125 
" style="fill:none;stroke:#000000;stroke-linecap:square;stroke-linejoin:miter;stroke-width:0.8;"/>
   </g>
   <g id="patch_5">
    <path d="M 40.603125 288.430125 
L 397.723125 288.430125 
" style="fill:none;stroke:#000000;stroke-linecap:square;stroke-linejoin:miter;stroke-width:0.8;"/>
   </g>
   <g id="patch_6">
    <path d="M 40.603125 22.318125 
L 397.723125 22.318125 
" style="fill:none;stroke:#000000;stroke-linecap:square;stroke-linejoin:miter;stroke-width:0.8;"/>
   </g>
   <g id="text_18">
    <!-- Training: QCOM -->
    <defs>
     <path d="M -0.296875 72.90625 
L 61.375 72.90625 
L 61.375 64.59375 
L 35.5 64.59375 
L 35.5 0 
L 25.59375 0 
L 25.59375 64.59375 
L -0.296875 64.59375 
z
" id="DejaVuSans-84"/>
     <path d="M 54.890625 33.015625 
L 54.890625 0 
L 45.90625 0 
L 45.90625 32.71875 
Q 45.90625 40.484375 42.875 44.328125 
Q 39.84375 48.1875 33.796875 48.1875 
Q 26.515625 48.1875 22.3125 43.546875 
Q 18.109375 38.921875 18.109375 30.90625 
L 18.109375 0 
L 9.078125 0 
L 9.078125 54.6875 
L 18.109375 54.6875 
L 18.109375 46.1875 
Q 21.34375 51.125 25.703125 53.5625 
Q 30.078125 56 35.796875 56 
Q 45.21875 56 50.046875 50.171875 
Q 54.890625 44.34375 54.890625 33.015625 
z
" id="DejaVuSans-110"/>
     <path d="M 45.40625 27.984375 
Q 45.40625 37.75 41.375 43.109375 
Q 37.359375 48.484375 30.078125 48.484375 
Q 22.859375 48.484375 18.828125 43.109375 
Q 14.796875 37.75 14.796875 27.984375 
Q 14.796875 18.265625 18.828125 12.890625 
Q 22.859375 7.515625 30.078125 7.515625 
Q 37.359375 7.515625 41.375 12.890625 
Q 45.40625 18.265625 45.40625 27.984375 
z
M 54.390625 6.78125 
Q 54.390625 -7.171875 48.1875 -13.984375 
Q 42 -20.796875 29.203125 -20.796875 
Q 24.46875 -20.796875 20.265625 -20.09375 
Q 16.0625 -19.390625 12.109375 -17.921875 
L 12.109375 -9.1875 
Q 16.0625 -11.328125 19.921875 -12.34375 
Q 23.78125 -13.375 27.78125 -13.375 
Q 36.625 -13.375 41.015625 -8.765625 
Q 45.40625 -4.15625 45.40625 5.171875 
L 45.40625 9.625 
Q 42.625 4.78125 38.28125 2.390625 
Q 33.9375 0 27.875 0 
Q 17.828125 0 11.671875 7.65625 
Q 5.515625 15.328125 5.515625 27.984375 
Q 5.515625 40.671875 11.671875 48.328125 
Q 17.828125 56 27.875 56 
Q 33.9375 56 38.28125 53.609375 
Q 42.625 51.21875 45.40625 46.390625 
L 45.40625 54.6875 
L 54.390625 54.6875 
z
" id="DejaVuSans-103"/>
     <path d="M 11.71875 12.40625 
L 22.015625 12.40625 
L 22.015625 0 
L 11.71875 0 
z
M 11.71875 51.703125 
L 22.015625 51.703125 
L 22.015625 39.3125 
L 11.71875 39.3125 
z
" id="DejaVuSans-58"/>
     <path d="M 39.40625 66.21875 
Q 28.65625 66.21875 22.328125 58.203125 
Q 16.015625 50.203125 16.015625 36.375 
Q 16.015625 22.609375 22.328125 14.59375 
Q 28.65625 6.59375 39.40625 6.59375 
Q 50.140625 6.59375 56.421875 14.59375 
Q 62.703125 22.609375 62.703125 36.375 
Q 62.703125 50.203125 56.421875 58.203125 
Q 50.140625 66.21875 39.40625 66.21875 
z
M 53.21875 1.3125 
L 66.21875 -12.890625 
L 54.296875 -12.890625 
L 43.5 -1.21875 
Q 41.890625 -1.3125 41.03125 -1.359375 
Q 40.1875 -1.421875 39.40625 -1.421875 
Q 24.03125 -1.421875 14.8125 8.859375 
Q 5.609375 19.140625 5.609375 36.375 
Q 5.609375 53.65625 14.8125 63.9375 
Q 24.03125 74.21875 39.40625 74.21875 
Q 54.734375 74.21875 63.90625 63.9375 
Q 73.09375 53.65625 73.09375 36.375 
Q 73.09375 23.6875 67.984375 14.640625 
Q 62.890625 5.609375 53.21875 1.3125 
z
" id="DejaVuSans-81"/>
     <path d="M 64.40625 67.28125 
L 64.40625 56.890625 
Q 59.421875 61.53125 53.78125 63.8125 
Q 48.140625 66.109375 41.796875 66.109375 
Q 29.296875 66.109375 22.65625 58.46875 
Q 16.015625 50.828125 16.015625 36.375 
Q 16.015625 21.96875 22.65625 14.328125 
Q 29.296875 6.6875 41.796875 6.6875 
Q 48.140625 6.6875 53.78125 8.984375 
Q 59.421875 11.28125 64.40625 15.921875 
L 64.40625 5.609375 
Q 59.234375 2.09375 53.4375 0.328125 
Q 47.65625 -1.421875 41.21875 -1.421875 
Q 24.65625 -1.421875 15.125 8.703125 
Q 5.609375 18.84375 5.609375 36.375 
Q 5.609375 53.953125 15.125 64.078125 
Q 24.65625 74.21875 41.21875 74.21875 
Q 47.75 74.21875 53.53125 72.484375 
Q 59.328125 70.75 64.40625 67.28125 
z
" id="DejaVuSans-67"/>
     <path d="M 39.40625 66.21875 
Q 28.65625 66.21875 22.328125 58.203125 
Q 16.015625 50.203125 16.015625 36.375 
Q 16.015625 22.609375 22.328125 14.59375 
Q 28.65625 6.59375 39.40625 6.59375 
Q 50.140625 6.59375 56.421875 14.59375 
Q 62.703125 22.609375 62.703125 36.375 
Q 62.703125 50.203125 56.421875 58.203125 
Q 50.140625 66.21875 39.40625 66.21875 
z
M 39.40625 74.21875 
Q 54.734375 74.21875 63.90625 63.9375 
Q 73.09375 53.65625 73.09375 36.375 
Q 73.09375 19.140625 63.90625 8.859375 
Q 54.734375 -1.421875 39.40625 -1.421875 
Q 24.03125 -1.421875 14.8125 8.828125 
Q 5.609375 19.09375 5.609375 36.375 
Q 5.609375 53.65625 14.8125 63.9375 
Q 24.03125 74.21875 39.40625 74.21875 
z
" id="DejaVuSans-79"/>
     <path d="M 9.8125 72.90625 
L 24.515625 72.90625 
L 43.109375 23.296875 
L 61.8125 72.90625 
L 76.515625 72.90625 
L 76.515625 0 
L 66.890625 0 
L 66.890625 64.015625 
L 48.09375 14.015625 
L 38.1875 14.015625 
L 19.390625 64.015625 
L 19.390625 0 
L 9.8125 0 
z
" id="DejaVuSans-77"/>
    </defs>
    <g transform="translate(172.75125 16.318125)scale(0.12 -0.12)">
     <use xlink:href="#DejaVuSans-84"/>
     <use x="46.333984" xlink:href="#DejaVuSans-114"/>
     <use x="87.447266" xlink:href="#DejaVuSans-97"/>
     <use x="148.726562" xlink:href="#DejaVuSans-105"/>
     <use x="176.509766" xlink:href="#DejaVuSans-110"/>
     <use x="239.888672" xlink:href="#DejaVuSans-105"/>
     <use x="267.671875" xlink:href="#DejaVuSans-110"/>
     <use x="331.050781" xlink:href="#DejaVuSans-103"/>
     <use x="394.527344" xlink:href="#DejaVuSans-58"/>
     <use x="428.21875" xlink:href="#DejaVuSans-32"/>
     <use x="460.005859" xlink:href="#DejaVuSans-81"/>
     <use x="538.716797" xlink:href="#DejaVuSans-67"/>
     <use x="608.541016" xlink:href="#DejaVuSans-79"/>
     <use x="687.251953" xlink:href="#DejaVuSans-77"/>
    </g>
   </g>
   <g id="legend_1">
    <g id="patch_7">
     <path d="M 47.603125 59.674375 
L 131.33125 59.674375 
Q 133.33125 59.674375 133.33125 57.674375 
L 133.33125 29.318125 
Q 133.33125 27.318125 131.33125 27.318125 
L 47.603125 27.318125 
Q 45.603125 27.318125 45.603125 29.318125 
L 45.603125 57.674375 
Q 45.603125 59.674375 47.603125 59.674375 
z
" style="fill:#ffffff;opacity:0.8;stroke:#cccccc;stroke-linejoin:miter;"/>
    </g>
    <g id="line2d_33">
     <path d="M 49.603125 35.416562 
L 69.603125 35.416562 
" style="fill:none;stroke:#1f77b4;stroke-linecap:square;stroke-width:1.5;"/>
    </g>
    <g id="line2d_34"/>
    <g id="text_19">
     <!-- Predicted -->
     <defs>
      <path d="M 45.40625 46.390625 
L 45.40625 75.984375 
L 54.390625 75.984375 
L 54.390625 0 
L 45.40625 0 
L 45.40625 8.203125 
Q 42.578125 3.328125 38.25 0.953125 
Q 33.9375 -1.421875 27.875 -1.421875 
Q 17.96875 -1.421875 11.734375 6.484375 
Q 5.515625 14.40625 5.515625 27.296875 
Q 5.515625 40.1875 11.734375 48.09375 
Q 17.96875 56 27.875 56 
Q 33.9375 56 38.25 53.625 
Q 42.578125 51.265625 45.40625 46.390625 
z
M 14.796875 27.296875 
Q 14.796875 17.390625 18.875 11.75 
Q 22.953125 6.109375 30.078125 6.109375 
Q 37.203125 6.109375 41.296875 11.75 
Q 45.40625 17.390625 45.40625 27.296875 
Q 45.40625 37.203125 41.296875 42.84375 
Q 37.203125 48.484375 30.078125 48.484375 
Q 22.953125 48.484375 18.875 42.84375 
Q 14.796875 37.203125 14.796875 27.296875 
z
" id="DejaVuSans-100"/>
      <path d="M 18.3125 70.21875 
L 18.3125 54.6875 
L 36.8125 54.6875 
L 36.8125 47.703125 
L 18.3125 47.703125 
L 18.3125 18.015625 
Q 18.3125 11.328125 20.140625 9.421875 
Q 21.96875 7.515625 27.59375 7.515625 
L 36.8125 7.515625 
L 36.8125 0 
L 27.59375 0 
Q 17.1875 0 13.234375 3.875 
Q 9.28125 7.765625 9.28125 18.015625 
L 9.28125 47.703125 
L 2.6875 47.703125 
L 2.6875 54.6875 
L 9.28125 54.6875 
L 9.28125 70.21875 
z
" id="DejaVuSans-116"/>
     </defs>
     <g transform="translate(77.603125 38.916562)scale(0.1 -0.1)">
      <use xlink:href="#DejaVuSans-80"/>
      <use x="58.552734" xlink:href="#DejaVuSans-114"/>
      <use x="97.416016" xlink:href="#DejaVuSans-101"/>
      <use x="158.939453" xlink:href="#DejaVuSans-100"/>
      <use x="222.416016" xlink:href="#DejaVuSans-105"/>
      <use x="250.199219" xlink:href="#DejaVuSans-99"/>
      <use x="305.179688" xlink:href="#DejaVuSans-116"/>
      <use x="344.388672" xlink:href="#DejaVuSans-101"/>
      <use x="405.912109" xlink:href="#DejaVuSans-100"/>
     </g>
    </g>
    <g id="line2d_35">
     <path d="M 49.603125 50.094687 
L 69.603125 50.094687 
" style="fill:none;stroke:#ff7f0e;stroke-linecap:square;stroke-width:1.5;"/>
    </g>
    <g id="line2d_36"/>
    <g id="text_20">
     <!-- True value -->
     <defs>
      <path d="M 8.5 21.578125 
L 8.5 54.6875 
L 17.484375 54.6875 
L 17.484375 21.921875 
Q 17.484375 14.15625 20.5 10.265625 
Q 23.53125 6.390625 29.59375 6.390625 
Q 36.859375 6.390625 41.078125 11.03125 
Q 45.3125 15.671875 45.3125 23.6875 
L 45.3125 54.6875 
L 54.296875 54.6875 
L 54.296875 0 
L 45.3125 0 
L 45.3125 8.40625 
Q 42.046875 3.421875 37.71875 1 
Q 33.40625 -1.421875 27.6875 -1.421875 
Q 18.265625 -1.421875 13.375 4.4375 
Q 8.5 10.296875 8.5 21.578125 
z
M 31.109375 56 
z
" id="DejaVuSans-117"/>
      <path d="M 2.984375 54.6875 
L 12.5 54.6875 
L 29.59375 8.796875 
L 46.6875 54.6875 
L 56.203125 54.6875 
L 35.6875 0 
L 23.484375 0 
z
" id="DejaVuSans-118"/>
      <path d="M 9.421875 75.984375 
L 18.40625 75.984375 
L 18.40625 0 
L 9.421875 0 
z
" id="DejaVuSans-108"/>
     </defs>
     <g transform="translate(77.603125 53.594687)scale(0.1 -0.1)">
      <use xlink:href="#DejaVuSans-84"/>
      <use x="46.333984" xlink:href="#DejaVuSans-114"/>
      <use x="87.447266" xlink:href="#DejaVuSans-117"/>
      <use x="150.826172" xlink:href="#DejaVuSans-101"/>
      <use x="212.349609" xlink:href="#DejaVuSans-32"/>
      <use x="244.136719" xlink:href="#DejaVuSans-118"/>
      <use x="303.316406" xlink:href="#DejaVuSans-97"/>
      <use x="364.595703" xlink:href="#DejaVuSans-108"/>
      <use x="392.378906" xlink:href="#DejaVuSans-117"/>
      <use x="455.757812" xlink:href="#DejaVuSans-101"/>
     </g>
    </g>
   </g>
  </g>
 </g>
 <defs>
  <clipPath id="p0f8f95a52a">
   <rect height="266.112" width="357.12" x="40.603125" y="22.318125"/>
  </clipPath>
 </defs>
</svg>
