<?xml version="1.0" encoding="utf-8" standalone="no"?>
<!DOCTYPE svg PUBLIC "-//W3C//DTD SVG 1.1//EN"
  "http://www.w3.org/Graphics/SVG/1.1/DTD/svg11.dtd">
<!-- Created with matplotlib (https://matplotlib.org/) -->
<svg height="325.986375pt" version="1.1" viewBox="0 0 411.285625 325.986375" width="411.285625pt" xmlns="http://www.w3.org/2000/svg" xmlns:xlink="http://www.w3.org/1999/xlink">
 <defs>
  <style type="text/css">
*{stroke-linecap:butt;stroke-linejoin:round;}
  </style>
 </defs>
 <g id="figure_1">
  <g id="patch_1">
   <path d="M 0 325.986375 
L 411.285625 325.986375 
L 411.285625 0 
L 0 0 
z
" style="fill:#ffffff;"/>
  </g>
  <g id="axes_1">
   <g id="patch_2">
    <path d="M 46.965625 288.430125 
L 404.085625 288.430125 
L 404.085625 22.318125 
L 46.965625 22.318125 
z
" style="fill:#ffffff;"/>
   </g>
   <g id="matplotlib.axis_1">
    <g id="xtick_1">
     <g id="line2d_1">
      <path clip-path="url(#p63ea1c4a45)" d="M 63.198352 288.430125 
L 63.198352 22.318125 
" style="fill:none;stroke:#b0b0b0;stroke-dasharray:2.96,1.28;stroke-dashoffset:0;stroke-width:0.8;"/>
     </g>
     <g id="line2d_2">
      <defs>
       <path d="M 0 0 
L 0 3.5 
" id="m2ba8581b54" style="stroke:#000000;stroke-width:0.8;"/>
      </defs>
      <g>
       <use style="stroke:#000000;stroke-width:0.8;" x="63.198352" xlink:href="#m2ba8581b54" y="288.430125"/>
      </g>
     </g>
     <g id="text_1">
      <!-- 0 -->
      <defs>
       <path d="M 31.78125 66.40625 
Q 24.171875 66.40625 20.328125 58.90625 
Q 16.5 51.421875 16.5 36.375 
Q 16.5 21.390625 20.328125 13.890625 
Q 24.171875 6.390625 31.78125 6.390625 
Q 39.453125 6.390625 43.28125 13.890625 
Q 47.125 21.390625 47.125 36.375 
Q 47.125 51.421875 43.28125 58.90625 
Q 39.453125 66.40625 31.78125 66.40625 
z
M 31.78125 74.21875 
Q 44.046875 74.21875 50.515625 64.515625 
Q 56.984375 54.828125 56.984375 36.375 
Q 56.984375 17.96875 50.515625 8.265625 
Q 44.046875 -1.421875 31.78125 -1.421875 
Q 19.53125 -1.421875 13.0625 8.265625 
Q 6.59375 17.96875 6.59375 36.375 
Q 6.59375 54.828125 13.0625 64.515625 
Q 19.53125 74.21875 31.78125 74.21875 
z
" id="DejaVuSans-48"/>
      </defs>
      <g transform="translate(60.017102 303.028562)scale(0.1 -0.1)">
       <use xlink:href="#DejaVuSans-48"/>
      </g>
     </g>
    </g>
    <g id="xtick_2">
     <g id="line2d_3">
      <path clip-path="url(#p63ea1c4a45)" d="M 112.128954 288.430125 
L 112.128954 22.318125 
" style="fill:none;stroke:#b0b0b0;stroke-dasharray:2.96,1.28;stroke-dashoffset:0;stroke-width:0.8;"/>
     </g>
     <g id="line2d_4">
      <g>
       <use style="stroke:#000000;stroke-width:0.8;" x="112.128954" xlink:href="#m2ba8581b54" y="288.430125"/>
      </g>
     </g>
     <g id="text_2">
      <!-- 200 -->
      <defs>
       <path d="M 19.1875 8.296875 
L 53.609375 8.296875 
L 53.609375 0 
L 7.328125 0 
L 7.328125 8.296875 
Q 12.9375 14.109375 22.625 23.890625 
Q 32.328125 33.6875 34.8125 36.53125 
Q 39.546875 41.84375 41.421875 45.53125 
Q 43.3125 49.21875 43.3125 52.78125 
Q 43.3125 58.59375 39.234375 62.25 
Q 35.15625 65.921875 28.609375 65.921875 
Q 23.96875 65.921875 18.8125 64.3125 
Q 13.671875 62.703125 7.8125 59.421875 
L 7.8125 69.390625 
Q 13.765625 71.78125 18.9375 73 
Q 24.125 74.21875 28.421875 74.21875 
Q 39.75 74.21875 46.484375 68.546875 
Q 53.21875 62.890625 53.21875 53.421875 
Q 53.21875 48.921875 51.53125 44.890625 
Q 49.859375 40.875 45.40625 35.40625 
Q 44.1875 33.984375 37.640625 27.21875 
Q 31.109375 20.453125 19.1875 8.296875 
z
" id="DejaVuSans-50"/>
      </defs>
      <g transform="translate(102.585204 303.028562)scale(0.1 -0.1)">
       <use xlink:href="#DejaVuSans-50"/>
       <use x="63.623047" xlink:href="#DejaVuSans-48"/>
       <use x="127.246094" xlink:href="#DejaVuSans-48"/>
      </g>
     </g>
    </g>
    <g id="xtick_3">
     <g id="line2d_5">
      <path clip-path="url(#p63ea1c4a45)" d="M 161.059557 288.430125 
L 161.059557 22.318125 
" style="fill:none;stroke:#b0b0b0;stroke-dasharray:2.96,1.28;stroke-dashoffset:0;stroke-width:0.8;"/>
     </g>
     <g id="line2d_6">
      <g>
       <use style="stroke:#000000;stroke-width:0.8;" x="161.059557" xlink:href="#m2ba8581b54" y="288.430125"/>
      </g>
     </g>
     <g id="text_3">
      <!-- 400 -->
      <defs>
       <path d="M 37.796875 64.3125 
L 12.890625 25.390625 
L 37.796875 25.390625 
z
M 35.203125 72.90625 
L 47.609375 72.90625 
L 47.609375 25.390625 
L 58.015625 25.390625 
L 58.015625 17.1875 
L 47.609375 17.1875 
L 47.609375 0 
L 37.796875 0 
L 37.796875 17.1875 
L 4.890625 17.1875 
L 4.890625 26.703125 
z
" id="DejaVuSans-52"/>
      </defs>
      <g transform="translate(151.515807 303.028562)scale(0.1 -0.1)">
       <use xlink:href="#DejaVuSans-52"/>
       <use x="63.623047" xlink:href="#DejaVuSans-48"/>
       <use x="127.246094" xlink:href="#DejaVuSans-48"/>
      </g>
     </g>
    </g>
    <g id="xtick_4">
     <g id="line2d_7">
      <path clip-path="url(#p63ea1c4a45)" d="M 209.990159 288.430125 
L 209.990159 22.318125 
" style="fill:none;stroke:#b0b0b0;stroke-dasharray:2.96,1.28;stroke-dashoffset:0;stroke-width:0.8;"/>
     </g>
     <g id="line2d_8">
      <g>
       <use style="stroke:#000000;stroke-width:0.8;" x="209.990159" xlink:href="#m2ba8581b54" y="288.430125"/>
      </g>
     </g>
     <g id="text_4">
      <!-- 600 -->
      <defs>
       <path d="M 33.015625 40.375 
Q 26.375 40.375 22.484375 35.828125 
Q 18.609375 31.296875 18.609375 23.390625 
Q 18.609375 15.53125 22.484375 10.953125 
Q 26.375 6.390625 33.015625 6.390625 
Q 39.65625 6.390625 43.53125 10.953125 
Q 47.40625 15.53125 47.40625 23.390625 
Q 47.40625 31.296875 43.53125 35.828125 
Q 39.65625 40.375 33.015625 40.375 
z
M 52.59375 71.296875 
L 52.59375 62.3125 
Q 48.875 64.0625 45.09375 64.984375 
Q 41.3125 65.921875 37.59375 65.921875 
Q 27.828125 65.921875 22.671875 59.328125 
Q 17.53125 52.734375 16.796875 39.40625 
Q 19.671875 43.65625 24.015625 45.921875 
Q 28.375 48.1875 33.59375 48.1875 
Q 44.578125 48.1875 50.953125 41.515625 
Q 57.328125 34.859375 57.328125 23.390625 
Q 57.328125 12.15625 50.6875 5.359375 
Q 44.046875 -1.421875 33.015625 -1.421875 
Q 20.359375 -1.421875 13.671875 8.265625 
Q 6.984375 17.96875 6.984375 36.375 
Q 6.984375 53.65625 15.1875 63.9375 
Q 23.390625 74.21875 37.203125 74.21875 
Q 40.921875 74.21875 44.703125 73.484375 
Q 48.484375 72.75 52.59375 71.296875 
z
" id="DejaVuSans-54"/>
      </defs>
      <g transform="translate(200.446409 303.028562)scale(0.1 -0.1)">
       <use xlink:href="#DejaVuSans-54"/>
       <use x="63.623047" xlink:href="#DejaVuSans-48"/>
       <use x="127.246094" xlink:href="#DejaVuSans-48"/>
      </g>
     </g>
    </g>
    <g id="xtick_5">
     <g id="line2d_9">
      <path clip-path="url(#p63ea1c4a45)" d="M 258.920761 288.430125 
L 258.920761 22.318125 
" style="fill:none;stroke:#b0b0b0;stroke-dasharray:2.96,1.28;stroke-dashoffset:0;stroke-width:0.8;"/>
     </g>
     <g id="line2d_10">
      <g>
       <use style="stroke:#000000;stroke-width:0.8;" x="258.920761" xlink:href="#m2ba8581b54" y="288.430125"/>
      </g>
     </g>
     <g id="text_5">
      <!-- 800 -->
      <defs>
       <path d="M 31.78125 34.625 
Q 24.75 34.625 20.71875 30.859375 
Q 16.703125 27.09375 16.703125 20.515625 
Q 16.703125 13.921875 20.71875 10.15625 
Q 24.75 6.390625 31.78125 6.390625 
Q 38.8125 6.390625 42.859375 10.171875 
Q 46.921875 13.96875 46.921875 20.515625 
Q 46.921875 27.09375 42.890625 30.859375 
Q 38.875 34.625 31.78125 34.625 
z
M 21.921875 38.8125 
Q 15.578125 40.375 12.03125 44.71875 
Q 8.5 49.078125 8.5 55.328125 
Q 8.5 64.0625 14.71875 69.140625 
Q 20.953125 74.21875 31.78125 74.21875 
Q 42.671875 74.21875 48.875 69.140625 
Q 55.078125 64.0625 55.078125 55.328125 
Q 55.078125 49.078125 51.53125 44.71875 
Q 48 40.375 41.703125 38.8125 
Q 48.828125 37.15625 52.796875 32.3125 
Q 56.78125 27.484375 56.78125 20.515625 
Q 56.78125 9.90625 50.3125 4.234375 
Q 43.84375 -1.421875 31.78125 -1.421875 
Q 19.734375 -1.421875 13.25 4.234375 
Q 6.78125 9.90625 6.78125 20.515625 
Q 6.78125 27.484375 10.78125 32.3125 
Q 14.796875 37.15625 21.921875 38.8125 
z
M 18.3125 54.390625 
Q 18.3125 48.734375 21.84375 45.5625 
Q 25.390625 42.390625 31.78125 42.390625 
Q 38.140625 42.390625 41.71875 45.5625 
Q 45.3125 48.734375 45.3125 54.390625 
Q 45.3125 60.0625 41.71875 63.234375 
Q 38.140625 66.40625 31.78125 66.40625 
Q 25.390625 66.40625 21.84375 63.234375 
Q 18.3125 60.0625 18.3125 54.390625 
z
" id="DejaVuSans-56"/>
      </defs>
      <g transform="translate(249.377011 303.028562)scale(0.1 -0.1)">
       <use xlink:href="#DejaVuSans-56"/>
       <use x="63.623047" xlink:href="#DejaVuSans-48"/>
       <use x="127.246094" xlink:href="#DejaVuSans-48"/>
      </g>
     </g>
    </g>
    <g id="xtick_6">
     <g id="line2d_11">
      <path clip-path="url(#p63ea1c4a45)" d="M 307.851363 288.430125 
L 307.851363 22.318125 
" style="fill:none;stroke:#b0b0b0;stroke-dasharray:2.96,1.28;stroke-dashoffset:0;stroke-width:0.8;"/>
     </g>
     <g id="line2d_12">
      <g>
       <use style="stroke:#000000;stroke-width:0.8;" x="307.851363" xlink:href="#m2ba8581b54" y="288.430125"/>
      </g>
     </g>
     <g id="text_6">
      <!-- 1000 -->
      <defs>
       <path d="M 12.40625 8.296875 
L 28.515625 8.296875 
L 28.515625 63.921875 
L 10.984375 60.40625 
L 10.984375 69.390625 
L 28.421875 72.90625 
L 38.28125 72.90625 
L 38.28125 8.296875 
L 54.390625 8.296875 
L 54.390625 0 
L 12.40625 0 
z
" id="DejaVuSans-49"/>
      </defs>
      <g transform="translate(295.126363 303.028562)scale(0.1 -0.1)">
       <use xlink:href="#DejaVuSans-49"/>
       <use x="63.623047" xlink:href="#DejaVuSans-48"/>
       <use x="127.246094" xlink:href="#DejaVuSans-48"/>
       <use x="190.869141" xlink:href="#DejaVuSans-48"/>
      </g>
     </g>
    </g>
    <g id="xtick_7">
     <g id="line2d_13">
      <path clip-path="url(#p63ea1c4a45)" d="M 356.781965 288.430125 
L 356.781965 22.318125 
" style="fill:none;stroke:#b0b0b0;stroke-dasharray:2.96,1.28;stroke-dashoffset:0;stroke-width:0.8;"/>
     </g>
     <g id="line2d_14">
      <g>
       <use style="stroke:#000000;stroke-width:0.8;" x="356.781965" xlink:href="#m2ba8581b54" y="288.430125"/>
      </g>
     </g>
     <g id="text_7">
      <!-- 1200 -->
      <g transform="translate(344.056965 303.028562)scale(0.1 -0.1)">
       <use xlink:href="#DejaVuSans-49"/>
       <use x="63.623047" xlink:href="#DejaVuSans-50"/>
       <use x="127.246094" xlink:href="#DejaVuSans-48"/>
       <use x="190.869141" xlink:href="#DejaVuSans-48"/>
      </g>
     </g>
    </g>
    <g id="text_8">
     <!-- Day -->
     <defs>
      <path d="M 19.671875 64.796875 
L 19.671875 8.109375 
L 31.59375 8.109375 
Q 46.6875 8.109375 53.6875 14.9375 
Q 60.6875 21.78125 60.6875 36.53125 
Q 60.6875 51.171875 53.6875 57.984375 
Q 46.6875 64.796875 31.59375 64.796875 
z
M 9.8125 72.90625 
L 30.078125 72.90625 
Q 51.265625 72.90625 61.171875 64.09375 
Q 71.09375 55.28125 71.09375 36.53125 
Q 71.09375 17.671875 61.125 8.828125 
Q 51.171875 0 30.078125 0 
L 9.8125 0 
z
" id="DejaVuSans-68"/>
      <path d="M 34.28125 27.484375 
Q 23.390625 27.484375 19.1875 25 
Q 14.984375 22.515625 14.984375 16.5 
Q 14.984375 11.71875 18.140625 8.90625 
Q 21.296875 6.109375 26.703125 6.109375 
Q 34.1875 6.109375 38.703125 11.40625 
Q 43.21875 16.703125 43.21875 25.484375 
L 43.21875 27.484375 
z
M 52.203125 31.203125 
L 52.203125 0 
L 43.21875 0 
L 43.21875 8.296875 
Q 40.140625 3.328125 35.546875 0.953125 
Q 30.953125 -1.421875 24.3125 -1.421875 
Q 15.921875 -1.421875 10.953125 3.296875 
Q 6 8.015625 6 15.921875 
Q 6 25.140625 12.171875 29.828125 
Q 18.359375 34.515625 30.609375 34.515625 
L 43.21875 34.515625 
L 43.21875 35.40625 
Q 43.21875 41.609375 39.140625 45 
Q 35.0625 48.390625 27.6875 48.390625 
Q 23 48.390625 18.546875 47.265625 
Q 14.109375 46.140625 10.015625 43.890625 
L 10.015625 52.203125 
Q 14.9375 54.109375 19.578125 55.046875 
Q 24.21875 56 28.609375 56 
Q 40.484375 56 46.34375 49.84375 
Q 52.203125 43.703125 52.203125 31.203125 
z
" id="DejaVuSans-97"/>
      <path d="M 32.171875 -5.078125 
Q 28.375 -14.84375 24.75 -17.8125 
Q 21.140625 -20.796875 15.09375 -20.796875 
L 7.90625 -20.796875 
L 7.90625 -13.28125 
L 13.1875 -13.28125 
Q 16.890625 -13.28125 18.9375 -11.515625 
Q 21 -9.765625 23.484375 -3.21875 
L 25.09375 0.875 
L 2.984375 54.6875 
L 12.5 54.6875 
L 29.59375 11.921875 
L 46.6875 54.6875 
L 56.203125 54.6875 
z
" id="DejaVuSans-121"/>
     </defs>
     <g transform="translate(215.652188 316.706687)scale(0.1 -0.1)">
      <use xlink:href="#DejaVuSans-68"/>
      <use x="77.001953" xlink:href="#DejaVuSans-97"/>
      <use x="138.28125" xlink:href="#DejaVuSans-121"/>
     </g>
    </g>
   </g>
   <g id="matplotlib.axis_2">
    <g id="ytick_1">
     <g id="line2d_15">
      <path clip-path="url(#p63ea1c4a45)" d="M 46.965625 287.302163 
L 404.085625 287.302163 
" style="fill:none;stroke:#b0b0b0;stroke-dasharray:2.96,1.28;stroke-dashoffset:0;stroke-width:0.8;"/>
     </g>
     <g id="line2d_16">
      <defs>
       <path d="M 0 0 
L -3.5 0 
" id="mcb639f5fea" style="stroke:#000000;stroke-width:0.8;"/>
      </defs>
      <g>
       <use style="stroke:#000000;stroke-width:0.8;" x="46.965625" xlink:href="#mcb639f5fea" y="287.302163"/>
      </g>
     </g>
     <g id="text_9">
      <!-- 75 -->
      <defs>
       <path d="M 8.203125 72.90625 
L 55.078125 72.90625 
L 55.078125 68.703125 
L 28.609375 0 
L 18.3125 0 
L 43.21875 64.59375 
L 8.203125 64.59375 
z
" id="DejaVuSans-55"/>
       <path d="M 10.796875 72.90625 
L 49.515625 72.90625 
L 49.515625 64.59375 
L 19.828125 64.59375 
L 19.828125 46.734375 
Q 21.96875 47.46875 24.109375 47.828125 
Q 26.265625 48.1875 28.421875 48.1875 
Q 40.625 48.1875 47.75 41.5 
Q 54.890625 34.8125 54.890625 23.390625 
Q 54.890625 11.625 47.5625 5.09375 
Q 40.234375 -1.421875 26.90625 -1.421875 
Q 22.3125 -1.421875 17.546875 -0.640625 
Q 12.796875 0.140625 7.71875 1.703125 
L 7.71875 11.625 
Q 12.109375 9.234375 16.796875 8.0625 
Q 21.484375 6.890625 26.703125 6.890625 
Q 35.15625 6.890625 40.078125 11.328125 
Q 45.015625 15.765625 45.015625 23.390625 
Q 45.015625 31 40.078125 35.4375 
Q 35.15625 39.890625 26.703125 39.890625 
Q 22.75 39.890625 18.8125 39.015625 
Q 14.890625 38.140625 10.796875 36.28125 
z
" id="DejaVuSans-53"/>
      </defs>
      <g transform="translate(27.240625 291.101382)scale(0.1 -0.1)">
       <use xlink:href="#DejaVuSans-55"/>
       <use x="63.623047" xlink:href="#DejaVuSans-53"/>
      </g>
     </g>
    </g>
    <g id="ytick_2">
     <g id="line2d_17">
      <path clip-path="url(#p63ea1c4a45)" d="M 46.965625 255.381213 
L 404.085625 255.381213 
" style="fill:none;stroke:#b0b0b0;stroke-dasharray:2.96,1.28;stroke-dashoffset:0;stroke-width:0.8;"/>
     </g>
     <g id="line2d_18">
      <g>
       <use style="stroke:#000000;stroke-width:0.8;" x="46.965625" xlink:href="#mcb639f5fea" y="255.381213"/>
      </g>
     </g>
     <g id="text_10">
      <!-- 100 -->
      <g transform="translate(20.878125 259.180432)scale(0.1 -0.1)">
       <use xlink:href="#DejaVuSans-49"/>
       <use x="63.623047" xlink:href="#DejaVuSans-48"/>
       <use x="127.246094" xlink:href="#DejaVuSans-48"/>
      </g>
     </g>
    </g>
    <g id="ytick_3">
     <g id="line2d_19">
      <path clip-path="url(#p63ea1c4a45)" d="M 46.965625 223.460263 
L 404.085625 223.460263 
" style="fill:none;stroke:#b0b0b0;stroke-dasharray:2.96,1.28;stroke-dashoffset:0;stroke-width:0.8;"/>
     </g>
     <g id="line2d_20">
      <g>
       <use style="stroke:#000000;stroke-width:0.8;" x="46.965625" xlink:href="#mcb639f5fea" y="223.460263"/>
      </g>
     </g>
     <g id="text_11">
      <!-- 125 -->
      <g transform="translate(20.878125 227.259482)scale(0.1 -0.1)">
       <use xlink:href="#DejaVuSans-49"/>
       <use x="63.623047" xlink:href="#DejaVuSans-50"/>
       <use x="127.246094" xlink:href="#DejaVuSans-53"/>
      </g>
     </g>
    </g>
    <g id="ytick_4">
     <g id="line2d_21">
      <path clip-path="url(#p63ea1c4a45)" d="M 46.965625 191.539313 
L 404.085625 191.539313 
" style="fill:none;stroke:#b0b0b0;stroke-dasharray:2.96,1.28;stroke-dashoffset:0;stroke-width:0.8;"/>
     </g>
     <g id="line2d_22">
      <g>
       <use style="stroke:#000000;stroke-width:0.8;" x="46.965625" xlink:href="#mcb639f5fea" y="191.539313"/>
      </g>
     </g>
     <g id="text_12">
      <!-- 150 -->
      <g transform="translate(20.878125 195.338532)scale(0.1 -0.1)">
       <use xlink:href="#DejaVuSans-49"/>
       <use x="63.623047" xlink:href="#DejaVuSans-53"/>
       <use x="127.246094" xlink:href="#DejaVuSans-48"/>
      </g>
     </g>
    </g>
    <g id="ytick_5">
     <g id="line2d_23">
      <path clip-path="url(#p63ea1c4a45)" d="M 46.965625 159.618363 
L 404.085625 159.618363 
" style="fill:none;stroke:#b0b0b0;stroke-dasharray:2.96,1.28;stroke-dashoffset:0;stroke-width:0.8;"/>
     </g>
     <g id="line2d_24">
      <g>
       <use style="stroke:#000000;stroke-width:0.8;" x="46.965625" xlink:href="#mcb639f5fea" y="159.618363"/>
      </g>
     </g>
     <g id="text_13">
      <!-- 175 -->
      <g transform="translate(20.878125 163.417582)scale(0.1 -0.1)">
       <use xlink:href="#DejaVuSans-49"/>
       <use x="63.623047" xlink:href="#DejaVuSans-55"/>
       <use x="127.246094" xlink:href="#DejaVuSans-53"/>
      </g>
     </g>
    </g>
    <g id="ytick_6">
     <g id="line2d_25">
      <path clip-path="url(#p63ea1c4a45)" d="M 46.965625 127.697413 
L 404.085625 127.697413 
" style="fill:none;stroke:#b0b0b0;stroke-dasharray:2.96,1.28;stroke-dashoffset:0;stroke-width:0.8;"/>
     </g>
     <g id="line2d_26">
      <g>
       <use style="stroke:#000000;stroke-width:0.8;" x="46.965625" xlink:href="#mcb639f5fea" y="127.697413"/>
      </g>
     </g>
     <g id="text_14">
      <!-- 200 -->
      <g transform="translate(20.878125 131.496632)scale(0.1 -0.1)">
       <use xlink:href="#DejaVuSans-50"/>
       <use x="63.623047" xlink:href="#DejaVuSans-48"/>
       <use x="127.246094" xlink:href="#DejaVuSans-48"/>
      </g>
     </g>
    </g>
    <g id="ytick_7">
     <g id="line2d_27">
      <path clip-path="url(#p63ea1c4a45)" d="M 46.965625 95.776463 
L 404.085625 95.776463 
" style="fill:none;stroke:#b0b0b0;stroke-dasharray:2.96,1.28;stroke-dashoffset:0;stroke-width:0.8;"/>
     </g>
     <g id="line2d_28">
      <g>
       <use style="stroke:#000000;stroke-width:0.8;" x="46.965625" xlink:href="#mcb639f5fea" y="95.776463"/>
      </g>
     </g>
     <g id="text_15">
      <!-- 225 -->
      <g transform="translate(20.878125 99.575681)scale(0.1 -0.1)">
       <use xlink:href="#DejaVuSans-50"/>
       <use x="63.623047" xlink:href="#DejaVuSans-50"/>
       <use x="127.246094" xlink:href="#DejaVuSans-53"/>
      </g>
     </g>
    </g>
    <g id="ytick_8">
     <g id="line2d_29">
      <path clip-path="url(#p63ea1c4a45)" d="M 46.965625 63.855512 
L 404.085625 63.855512 
" style="fill:none;stroke:#b0b0b0;stroke-dasharray:2.96,1.28;stroke-dashoffset:0;stroke-width:0.8;"/>
     </g>
     <g id="line2d_30">
      <g>
       <use style="stroke:#000000;stroke-width:0.8;" x="46.965625" xlink:href="#mcb639f5fea" y="63.855512"/>
      </g>
     </g>
     <g id="text_16">
      <!-- 250 -->
      <g transform="translate(20.878125 67.654731)scale(0.1 -0.1)">
       <use xlink:href="#DejaVuSans-50"/>
       <use x="63.623047" xlink:href="#DejaVuSans-53"/>
       <use x="127.246094" xlink:href="#DejaVuSans-48"/>
      </g>
     </g>
    </g>
    <g id="ytick_9">
     <g id="line2d_31">
      <path clip-path="url(#p63ea1c4a45)" d="M 46.965625 31.934562 
L 404.085625 31.934562 
" style="fill:none;stroke:#b0b0b0;stroke-dasharray:2.96,1.28;stroke-dashoffset:0;stroke-width:0.8;"/>
     </g>
     <g id="line2d_32">
      <g>
       <use style="stroke:#000000;stroke-width:0.8;" x="46.965625" xlink:href="#mcb639f5fea" y="31.934562"/>
      </g>
     </g>
     <g id="text_17">
      <!-- 275 -->
      <g transform="translate(20.878125 35.733781)scale(0.1 -0.1)">
       <use xlink:href="#DejaVuSans-50"/>
       <use x="63.623047" xlink:href="#DejaVuSans-55"/>
       <use x="127.246094" xlink:href="#DejaVuSans-53"/>
      </g>
     </g>
    </g>
    <g id="text_18">
     <!-- Price $ -->
     <defs>
      <path d="M 19.671875 64.796875 
L 19.671875 37.40625 
L 32.078125 37.40625 
Q 38.96875 37.40625 42.71875 40.96875 
Q 46.484375 44.53125 46.484375 51.125 
Q 46.484375 57.671875 42.71875 61.234375 
Q 38.96875 64.796875 32.078125 64.796875 
z
M 9.8125 72.90625 
L 32.078125 72.90625 
Q 44.34375 72.90625 50.609375 67.359375 
Q 56.890625 61.8125 56.890625 51.125 
Q 56.890625 40.328125 50.609375 34.8125 
Q 44.34375 29.296875 32.078125 29.296875 
L 19.671875 29.296875 
L 19.671875 0 
L 9.8125 0 
z
" id="DejaVuSans-80"/>
      <path d="M 41.109375 46.296875 
Q 39.59375 47.171875 37.8125 47.578125 
Q 36.03125 48 33.890625 48 
Q 26.265625 48 22.1875 43.046875 
Q 18.109375 38.09375 18.109375 28.8125 
L 18.109375 0 
L 9.078125 0 
L 9.078125 54.6875 
L 18.109375 54.6875 
L 18.109375 46.1875 
Q 20.953125 51.171875 25.484375 53.578125 
Q 30.03125 56 36.53125 56 
Q 37.453125 56 38.578125 55.875 
Q 39.703125 55.765625 41.0625 55.515625 
z
" id="DejaVuSans-114"/>
      <path d="M 9.421875 54.6875 
L 18.40625 54.6875 
L 18.40625 0 
L 9.421875 0 
z
M 9.421875 75.984375 
L 18.40625 75.984375 
L 18.40625 64.59375 
L 9.421875 64.59375 
z
" id="DejaVuSans-105"/>
      <path d="M 48.78125 52.59375 
L 48.78125 44.1875 
Q 44.96875 46.296875 41.140625 47.34375 
Q 37.3125 48.390625 33.40625 48.390625 
Q 24.65625 48.390625 19.8125 42.84375 
Q 14.984375 37.3125 14.984375 27.296875 
Q 14.984375 17.28125 19.8125 11.734375 
Q 24.65625 6.203125 33.40625 6.203125 
Q 37.3125 6.203125 41.140625 7.25 
Q 44.96875 8.296875 48.78125 10.40625 
L 48.78125 2.09375 
Q 45.015625 0.34375 40.984375 -0.53125 
Q 36.96875 -1.421875 32.421875 -1.421875 
Q 20.0625 -1.421875 12.78125 6.34375 
Q 5.515625 14.109375 5.515625 27.296875 
Q 5.515625 40.671875 12.859375 48.328125 
Q 20.21875 56 33.015625 56 
Q 37.15625 56 41.109375 55.140625 
Q 45.0625 54.296875 48.78125 52.59375 
z
" id="DejaVuSans-99"/>
      <path d="M 56.203125 29.59375 
L 56.203125 25.203125 
L 14.890625 25.203125 
Q 15.484375 15.921875 20.484375 11.0625 
Q 25.484375 6.203125 34.421875 6.203125 
Q 39.59375 6.203125 44.453125 7.46875 
Q 49.3125 8.734375 54.109375 11.28125 
L 54.109375 2.78125 
Q 49.265625 0.734375 44.1875 -0.34375 
Q 39.109375 -1.421875 33.890625 -1.421875 
Q 20.796875 -1.421875 13.15625 6.1875 
Q 5.515625 13.8125 5.515625 26.8125 
Q 5.515625 40.234375 12.765625 48.109375 
Q 20.015625 56 32.328125 56 
Q 43.359375 56 49.78125 48.890625 
Q 56.203125 41.796875 56.203125 29.59375 
z
M 47.21875 32.234375 
Q 47.125 39.59375 43.09375 43.984375 
Q 39.0625 48.390625 32.421875 48.390625 
Q 24.90625 48.390625 20.390625 44.140625 
Q 15.875 39.890625 15.1875 32.171875 
z
" id="DejaVuSans-101"/>
      <path id="DejaVuSans-32"/>
      <path d="M 33.796875 -14.703125 
L 28.90625 -14.703125 
L 28.859375 0 
Q 23.734375 0.09375 18.609375 1.1875 
Q 13.484375 2.296875 8.296875 4.5 
L 8.296875 13.28125 
Q 13.28125 10.15625 18.375 8.5625 
Q 23.484375 6.984375 28.90625 6.9375 
L 28.90625 29.203125 
Q 18.109375 30.953125 13.203125 35.15625 
Q 8.296875 39.359375 8.296875 46.6875 
Q 8.296875 54.640625 13.625 59.21875 
Q 18.953125 63.8125 28.90625 64.5 
L 28.90625 75.984375 
L 33.796875 75.984375 
L 33.796875 64.65625 
Q 38.328125 64.453125 42.578125 63.6875 
Q 46.828125 62.9375 50.875 61.625 
L 50.875 53.078125 
Q 46.828125 55.125 42.546875 56.25 
Q 38.28125 57.375 33.796875 57.5625 
L 33.796875 36.71875 
Q 44.875 35.015625 50.09375 30.609375 
Q 55.328125 26.21875 55.328125 18.609375 
Q 55.328125 10.359375 49.78125 5.59375 
Q 44.234375 0.828125 33.796875 0.09375 
z
M 28.90625 37.59375 
L 28.90625 57.625 
Q 23.25 56.984375 20.265625 54.390625 
Q 17.28125 51.8125 17.28125 47.515625 
Q 17.28125 43.3125 20.03125 40.96875 
Q 22.796875 38.625 28.90625 37.59375 
z
M 33.796875 28.21875 
L 33.796875 7.078125 
Q 39.984375 7.90625 43.140625 10.59375 
Q 46.296875 13.28125 46.296875 17.671875 
Q 46.296875 21.96875 43.28125 24.5 
Q 40.28125 27.046875 33.796875 28.21875 
z
" id="DejaVuSans-36"/>
     </defs>
     <g transform="translate(14.798438 172.342094)rotate(-90)scale(0.1 -0.1)">
      <use xlink:href="#DejaVuSans-80"/>
      <use x="58.552734" xlink:href="#DejaVuSans-114"/>
      <use x="99.666016" xlink:href="#DejaVuSans-105"/>
      <use x="127.449219" xlink:href="#DejaVuSans-99"/>
      <use x="182.429688" xlink:href="#DejaVuSans-101"/>
      <use x="243.953125" xlink:href="#DejaVuSans-32"/>
      <use x="275.740234" xlink:href="#DejaVuSans-36"/>
     </g>
    </g>
   </g>
   <g id="line2d_33">
    <path clip-path="url(#p63ea1c4a45)" d="M 63.198352 227.853631 
L 63.443005 229.039026 
L 63.687658 227.114709 
L 63.932311 223.385634 
L 64.176964 223.411234 
L 64.910923 215.105738 
L 65.155576 214.418397 
L 65.644882 215.507789 
L 65.889535 216.666346 
L 66.378841 217.578248 
L 66.623494 213.823503 
L 66.868147 213.121725 
L 67.1128 216.791037 
L 67.357453 225.712898 
L 67.602106 227.350678 
L 67.846759 235.933875 
L 68.091412 236.292859 
L 68.336066 234.88982 
L 68.580719 230.748591 
L 68.825372 238.768369 
L 69.070025 240.752265 
L 69.314678 241.044929 
L 69.559331 238.150982 
L 69.803984 240.751661 
L 70.048637 240.081231 
L 70.29329 243.357834 
L 70.537943 244.21869 
L 70.782596 243.496982 
L 71.027249 246.455271 
L 71.271902 243.965821 
L 71.516555 237.367795 
L 72.005861 240.579694 
L 72.250514 238.360795 
L 72.495167 240.97856 
L 72.73982 241.687225 
L 72.984473 239.427109 
L 73.473779 240.000699 
L 73.963085 234.352956 
L 74.207738 238.309895 
L 74.452391 239.346761 
L 74.697044 239.497686 
L 75.18635 236.892887 
L 75.431003 237.067776 
L 75.675656 245.663608 
L 75.920309 244.946312 
L 76.409615 240.866455 
L 76.654268 237.871976 
L 76.898921 238.112844 
L 77.143574 236.758328 
L 77.63288 240.020425 
L 78.122186 237.37213 
L 78.856145 238.289019 
L 79.100798 246.036123 
L 79.590104 249.120867 
L 79.834757 250.945538 
L 80.07941 249.079125 
L 80.568716 251.586645 
L 80.813369 251.755281 
L 81.058022 250.86218 
L 81.547328 263.71572 
L 81.791981 263.929897 
L 82.036634 264.52782 
L 82.281287 265.53777 
L 82.52594 263.516448 
L 82.770593 264.091781 
L 83.015246 261.140876 
L 83.259899 261.280812 
L 83.504552 262.343795 
L 83.749205 261.378383 
L 83.993858 257.760039 
L 84.483164 260.897903 
L 84.97247 269.787276 
L 85.217123 269.498002 
L 85.461776 269.005024 
L 86.195735 261.379708 
L 86.440388 261.913572 
L 86.685041 259.897841 
L 86.929694 260.466559 
L 87.419 255.774088 
L 87.663653 256.216303 
L 87.908306 257.32288 
L 88.152959 259.105866 
L 88.397612 255.095407 
L 88.886918 257.099302 
L 89.131571 255.45069 
L 89.376224 251.042544 
L 89.620877 249.467762 
L 89.86553 249.760124 
L 90.110183 252.600502 
L 90.354836 253.946719 
L 90.599489 250.881302 
L 90.844143 243.432025 
L 91.088796 240.036586 
L 91.333449 239.640994 
L 92.067408 244.575083 
L 92.312061 243.83092 
L 92.801367 245.174361 
L 93.04602 246.169572 
L 93.290673 245.910146 
L 93.535326 242.15394 
L 94.024632 244.414426 
L 94.269285 245.009262 
L 94.513938 244.829687 
L 94.758591 246.268741 
L 95.003244 257.788192 
L 95.247897 258.1037 
L 95.49255 260.130877 
L 95.737203 259.766477 
L 95.981856 259.966596 
L 96.226509 260.999868 
L 96.471162 260.76838 
L 96.715815 261.080206 
L 96.960468 262.526059 
L 97.205121 264.747589 
L 97.449774 268.972624 
L 97.694427 269.24599 
L 97.93908 268.722666 
L 98.183733 270.105697 
L 98.428386 268.473927 
L 98.673039 268.561211 
L 99.162345 265.2412 
L 99.406998 267.206421 
L 99.651651 266.49647 
L 100.38561 270.114045 
L 100.630263 270.048475 
L 101.119569 272.397901 
L 101.364222 273.325418 
L 101.608875 274.966121 
L 101.853528 274.895592 
L 102.098181 276.071509 
L 102.342834 273.956843 
L 102.83214 272.775092 
L 103.076793 273.378646 
L 103.321446 272.838811 
L 103.566099 270.731208 
L 103.810752 270.911669 
L 104.055405 272.091979 
L 104.300058 271.496267 
L 104.544711 272.912954 
L 104.789364 273.394768 
L 105.034017 275.559028 
L 105.27867 275.106496 
L 105.523323 275.399579 
L 105.767976 268.880264 
L 106.012629 268.811928 
L 106.257282 267.146969 
L 106.501935 269.613069 
L 106.746588 268.208208 
L 106.991241 269.701677 
L 107.235894 272.302717 
L 107.7252 273.192496 
L 107.969853 270.73678 
L 108.214506 270.268808 
L 108.459159 265.311904 
L 108.703812 273.380078 
L 108.948465 273.287816 
L 109.193118 272.850394 
L 109.437771 274.062548 
L 109.682424 273.61894 
L 109.927077 273.759578 
L 110.661036 264.122632 
L 111.150342 260.997627 
L 111.394995 263.801767 
L 111.639648 263.884667 
L 111.884301 263.612353 
L 112.128954 264.356438 
L 112.373607 262.152852 
L 112.61826 255.044732 
L 112.862913 256.004124 
L 113.107566 260.872361 
L 113.35222 262.75024 
L 113.596873 259.922039 
L 113.841526 258.788225 
L 114.086179 259.190559 
L 114.330832 258.220159 
L 114.575485 259.312523 
L 114.820138 259.624446 
L 115.064791 261.19836 
L 115.309444 260.790903 
L 115.79875 251.945269 
L 116.043403 251.467497 
L 116.288056 255.930205 
L 116.532709 258.030181 
L 116.777362 255.839015 
L 117.266668 259.402203 
L 117.511321 259.806436 
L 118.000627 263.663213 
L 118.24528 263.699978 
L 118.489933 267.423131 
L 118.734586 266.798019 
L 118.979239 263.222547 
L 119.223892 262.636537 
L 119.468545 262.472266 
L 120.202504 268.93695 
L 120.447157 266.230693 
L 120.69181 267.025687 
L 121.181116 263.597975 
L 121.425769 259.300589 
L 121.670422 259.195245 
L 122.404381 244.402941 
L 122.649034 241.324549 
L 122.893687 241.358284 
L 123.13834 242.608284 
L 123.382993 242.730043 
L 123.627646 238.560729 
L 123.872299 223.566942 
L 124.606258 215.227643 
L 124.850911 214.345628 
L 125.095564 210.952897 
L 125.340217 205.182324 
L 125.58487 211.228309 
L 126.074176 210.587259 
L 126.318829 209.164494 
L 126.563482 206.582548 
L 126.808135 208.635472 
L 127.052788 202.858158 
L 127.297441 205.633921 
L 127.542094 210.617711 
L 127.786747 211.602207 
L 128.0314 210.799527 
L 128.276053 210.929498 
L 128.520706 209.597542 
L 128.765359 205.045261 
L 129.010012 206.064047 
L 129.254665 205.777315 
L 129.499318 210.367413 
L 129.743971 205.772932 
L 129.988624 205.098917 
L 130.233277 209.839171 
L 130.47793 209.098719 
L 130.967236 213.015855 
L 131.211889 209.764765 
L 131.456542 208.38946 
L 131.701195 203.951193 
L 131.945848 195.517976 
L 132.435154 201.214202 
L 132.679807 200.780335 
L 132.92446 199.515381 
L 133.413766 194.42496 
L 133.658419 196.232495 
L 133.903072 192.82864 
L 134.147725 191.447392 
L 134.392378 190.851076 
L 134.637031 186.523668 
L 134.881684 186.743475 
L 135.126337 185.443997 
L 135.37099 180.757381 
L 135.615643 178.904898 
L 135.860297 182.689101 
L 136.10495 180.078944 
L 136.349603 181.821367 
L 136.594256 193.156344 
L 136.838909 195.673859 
L 137.083562 187.532244 
L 137.328215 184.97584 
L 137.817521 189.536792 
L 138.062174 190.806051 
L 138.306827 186.345106 
L 138.55148 171.602844 
L 139.040786 180.814135 
L 139.285439 185.089835 
L 139.530092 177.326132 
L 139.774745 179.341512 
L 140.019398 186.136092 
L 140.508704 172.344893 
L 140.753357 177.688964 
L 140.99801 178.971179 
L 141.731969 191.426682 
L 141.976622 194.475207 
L 142.221275 190.152299 
L 142.465928 189.474466 
L 142.710581 191.269318 
L 142.955234 187.675288 
L 143.199887 180.036198 
L 143.44454 175.941085 
L 143.933846 174.883217 
L 144.178499 180.276696 
L 144.667805 181.11694 
L 144.912458 182.857512 
L 145.157111 175.219104 
L 145.401764 174.968299 
L 145.646417 170.314336 
L 145.89107 167.814355 
L 146.135723 169.75418 
L 146.380376 168.318147 
L 146.625029 169.212455 
L 146.869682 167.627474 
L 147.114335 163.371023 
L 147.358988 153.085849 
L 147.603641 161.679606 
L 147.848294 164.127918 
L 148.092947 164.097505 
L 148.3376 167.026599 
L 148.582253 167.973726 
L 148.826906 164.448121 
L 149.071559 165.164219 
L 149.316212 161.851641 
L 149.560865 163.596071 
L 149.805518 168.285805 
L 150.050171 170.321019 
L 150.294824 161.595323 
L 150.539477 161.21821 
L 151.028783 153.717234 
L 151.273436 159.715115 
L 151.518089 157.849599 
L 152.007395 152.001347 
L 152.252048 159.375975 
L 152.496701 153.425944 
L 152.741354 164.188335 
L 152.986007 162.557237 
L 153.23066 164.860771 
L 153.475313 161.940756 
L 153.719966 165.99624 
L 154.209272 160.725153 
L 154.453925 174.526249 
L 154.943231 180.368461 
L 155.187884 173.435669 
L 155.432537 181.33098 
L 155.67719 178.024188 
L 156.166496 190.37873 
L 156.411149 183.776253 
L 156.655802 188.729065 
L 156.900455 185.066222 
L 157.145108 177.207091 
L 157.634414 171.114172 
L 157.879067 170.090593 
L 158.12372 166.184622 
L 158.368374 169.534295 
L 158.613027 161.475677 
L 158.85768 161.661487 
L 159.102333 161.139615 
L 159.346986 162.581903 
L 159.591639 161.986327 
L 159.836292 165.63637 
L 160.080945 162.201614 
L 160.325598 154.750535 
L 160.570251 165.178169 
L 160.814904 166.455669 
L 161.30421 159.886391 
L 161.548863 147.633823 
L 162.038169 154.379579 
L 162.282822 162.00355 
L 162.527475 161.093557 
L 163.016781 177.87454 
L 163.506087 172.826377 
L 163.995393 181.976569 
L 164.240046 180.699361 
L 164.729352 184.138286 
L 164.974005 189.079506 
L 165.218658 190.250006 
L 165.463311 190.35424 
L 165.707964 188.798113 
L 165.952617 180.136302 
L 166.19727 178.881187 
L 166.441923 182.899946 
L 166.931229 199.869056 
L 167.420535 182.372268 
L 167.665188 190.741562 
L 167.909841 192.379849 
L 168.154494 187.070555 
L 168.6438 182.634237 
L 168.888453 184.626686 
L 169.377759 175.868141 
L 169.622412 180.849341 
L 169.867065 179.086558 
L 170.111718 175.830929 
L 170.356371 190.725547 
L 170.601024 185.832761 
L 170.845677 186.960048 
L 171.09033 181.002691 
L 171.334983 179.596564 
L 171.579636 180.019871 
L 171.824289 182.356799 
L 172.068942 190.482321 
L 172.313595 191.368915 
L 172.558248 188.401166 
L 172.802901 179.659105 
L 173.047554 183.994072 
L 173.292207 184.347221 
L 173.53686 185.465409 
L 173.781513 185.648121 
L 174.026166 181.723543 
L 174.270819 180.961387 
L 174.515472 173.869945 
L 174.760125 174.271918 
L 175.004778 169.638042 
L 175.249431 167.365408 
L 175.494084 171.494344 
L 175.738737 170.058388 
L 175.98339 171.995544 
L 176.228043 169.815669 
L 176.472696 173.879511 
L 176.717349 174.597304 
L 176.962002 170.723382 
L 177.206655 163.357307 
L 177.451308 164.386983 
L 177.695961 158.467677 
L 177.940614 157.954515 
L 178.185267 158.381855 
L 178.42992 156.012313 
L 178.674573 157.073026 
L 178.919226 155.651448 
L 179.163879 157.447742 
L 179.408532 160.226174 
L 179.653185 159.941995 
L 180.387144 147.371796 
L 180.631798 148.131672 
L 180.876451 146.69973 
L 181.121104 144.224454 
L 181.365757 138.693385 
L 181.61041 140.603713 
L 181.855063 139.134928 
L 182.099716 143.354791 
L 182.344369 150.251267 
L 182.589022 146.954236 
L 182.833675 149.057602 
L 183.322981 142.536096 
L 183.567634 141.06809 
L 183.812287 141.393944 
L 184.05694 144.294203 
L 184.301593 138.713492 
L 184.546246 130.476351 
L 184.790899 130.009441 
L 185.035552 128.010407 
L 185.280205 122.547724 
L 185.524858 93.983715 
L 185.769511 95.496706 
L 186.014164 103.115359 
L 186.258817 103.874163 
L 186.748123 112.44608 
L 186.992776 103.894562 
L 187.237429 108.303331 
L 187.482082 108.849693 
L 187.726735 110.838986 
L 187.971388 108.80496 
L 188.216041 104.973589 
L 188.460694 107.469907 
L 188.705347 104.23795 
L 188.95 102.713463 
L 189.194653 103.634756 
L 189.439306 103.355604 
L 189.683959 104.922329 
L 189.928612 103.612838 
L 190.417918 109.720291 
L 190.662571 106.327774 
L 190.907224 107.658366 
L 191.151877 108.369203 
L 191.39653 110.409561 
L 191.641183 109.101024 
L 191.885836 95.714312 
L 192.130489 92.680614 
L 192.375142 97.422893 
L 192.619795 93.902665 
L 192.864448 95.240797 
L 193.109101 100.602987 
L 193.353754 101.198972 
L 193.598407 102.30282 
L 193.84306 105.018186 
L 194.087713 113.875645 
L 194.577019 102.682875 
L 194.821672 90.45283 
L 195.066325 95.64127 
L 195.310978 108.628795 
L 195.555631 108.339998 
L 195.800284 98.96244 
L 196.044937 105.158132 
L 196.28959 102.932511 
L 196.534243 102.209925 
L 196.778896 104.661179 
L 197.023549 111.286647 
L 197.268202 107.568881 
L 197.512855 106.271079 
L 197.757508 105.912455 
L 198.002161 108.292674 
L 198.246814 105.925996 
L 198.491467 111.723845 
L 198.73612 123.72781 
L 198.980773 127.663434 
L 199.225426 128.357906 
L 199.714732 112.746683 
L 199.959385 112.543631 
L 200.448691 98.928832 
L 200.937997 105.788855 
L 201.18265 98.485555 
L 201.427303 102.078688 
L 201.671956 90.30018 
L 201.916609 96.406621 
L 202.161262 79.867189 
L 202.405915 78.276577 
L 202.650568 81.317504 
L 202.895221 73.981608 
L 203.139875 80.036438 
L 203.629181 81.025473 
L 203.873834 66.75396 
L 204.118487 63.969352 
L 204.36314 65.017868 
L 204.607793 72.380806 
L 204.852446 64.267071 
L 205.097099 71.945946 
L 205.341752 73.274667 
L 205.831058 78.497242 
L 206.075711 69.309175 
L 206.320364 71.728632 
L 206.565017 70.907677 
L 206.80967 68.73505 
L 207.054323 70.177123 
L 207.298976 81.097599 
L 207.543629 83.193463 
L 207.788282 87.624853 
L 208.032935 88.253277 
L 208.277588 85.808277 
L 208.522241 92.616768 
L 208.766894 89.362756 
L 209.011547 95.54405 
L 209.2562 90.134633 
L 209.500853 90.423196 
L 209.745506 94.89398 
L 209.990159 102.409509 
L 210.234812 96.78878 
L 210.479465 87.005527 
L 210.724118 84.334037 
L 210.968771 84.214236 
L 211.458077 88.57007 
L 211.70273 83.456932 
L 211.947383 89.96519 
L 212.192036 89.875743 
L 212.436689 92.49385 
L 212.925995 102.419699 
L 213.170648 101.642775 
L 213.659954 90.507304 
L 213.904607 93.664778 
L 214.14926 101.002525 
L 214.393913 102.44039 
L 214.638566 105.867118 
L 214.883219 106.77263 
L 215.127872 101.716187 
L 215.372525 101.75792 
L 215.617178 91.649787 
L 215.861831 90.133153 
L 216.106484 85.780144 
L 216.351137 90.880813 
L 216.59579 92.953804 
L 216.840443 102.306658 
L 217.085096 101.730098 
L 217.329749 105.080278 
L 217.819055 105.852681 
L 218.063708 105.748428 
L 218.308361 106.009442 
L 218.553014 112.296899 
L 219.04232 102.923412 
L 219.286973 109.161772 
L 219.531626 121.059983 
L 219.776279 111.633736 
L 220.020932 116.528743 
L 220.265585 118.392662 
L 220.510238 118.070043 
L 220.754891 115.092826 
L 220.999544 119.148466 
L 221.244197 117.336255 
L 221.48885 122.951802 
L 221.733503 119.730034 
L 221.978156 122.731351 
L 222.712115 117.509206 
L 222.956768 109.446341 
L 223.201421 110.712054 
L 223.690727 114.481177 
L 223.93538 122.195179 
L 224.180033 122.967037 
L 224.669339 120.819075 
L 224.913992 123.382473 
L 225.158645 113.308047 
L 225.403298 108.962285 
L 225.647952 111.314916 
L 225.892605 106.000421 
L 226.137258 110.290344 
L 226.381911 117.196094 
L 226.626564 120.023994 
L 226.871217 117.692209 
L 227.11587 113.915683 
L 227.360523 116.693959 
L 227.605176 113.404059 
L 227.849829 117.039587 
L 228.094482 123.213127 
L 228.339135 122.408323 
L 228.828441 104.517356 
L 229.073094 109.460446 
L 229.317747 108.484757 
L 229.5624 110.179467 
L 230.051706 118.698175 
L 230.296359 117.735715 
L 230.541012 112.501431 
L 231.030318 110.208672 
L 231.274971 111.904238 
L 231.764277 101.728773 
L 232.00893 103.232296 
L 232.253583 102.912521 
L 232.498236 126.749662 
L 232.742889 123.056269 
L 232.987542 122.425098 
L 233.232195 133.811159 
L 233.476848 139.416458 
L 233.721501 135.01854 
L 233.966154 136.081981 
L 234.210807 139.146248 
L 234.45546 139.93983 
L 234.700113 141.177897 
L 234.944766 139.936108 
L 235.189419 136.681746 
L 235.434072 138.921629 
L 235.923378 134.008892 
L 236.412684 123.039417 
L 236.657337 128.107355 
L 236.90199 126.210743 
L 237.146643 127.95529 
L 237.391296 131.240299 
L 237.635949 125.95647 
L 237.880602 124.202493 
L 238.369908 122.479202 
L 238.614561 120.257867 
L 238.859214 123.616581 
L 239.103867 124.586133 
L 239.593173 119.481139 
L 239.837826 118.532901 
L 240.327132 121.586608 
L 240.571785 115.666289 
L 240.816438 114.636379 
L 241.061091 114.642866 
L 241.305744 116.005878 
L 241.550397 112.766887 
L 241.79505 115.083552 
L 242.039703 118.569685 
L 242.529009 127.376313 
L 243.018315 129.511884 
L 243.262968 131.83646 
L 243.507621 141.85873 
L 243.752274 143.314909 
L 243.996927 147.160834 
L 244.24158 143.463038 
L 244.486233 143.268656 
L 244.730886 136.425973 
L 244.975539 139.395027 
L 245.220192 145.207761 
L 245.464845 140.404655 
L 245.709498 130.295081 
L 245.954151 129.007547 
L 246.68811 118.730653 
L 246.932763 120.627324 
L 247.177416 131.268491 
L 247.422069 168.90215 
L 247.911375 159.317877 
L 248.400682 167.447958 
L 248.645335 165.570323 
L 249.134641 160.765327 
L 249.379294 158.590031 
L 249.623947 157.903138 
L 250.113253 177.804712 
L 250.357906 177.491738 
L 250.847212 169.861161 
L 251.091865 171.59924 
L 251.336518 175.493697 
L 251.825824 187.598564 
L 252.070477 202.371765 
L 252.31513 208.051021 
L 252.559783 200.789394 
L 252.804436 189.180175 
L 253.049089 189.269076 
L 253.538395 199.906308 
L 253.783048 194.192645 
L 254.027701 193.151843 
L 254.272354 197.06103 
L 254.76166 191.799509 
L 255.250966 199.149471 
L 255.495619 202.431285 
L 255.740272 202.429103 
L 255.984925 191.599964 
L 257.20819 213.802325 
L 257.452843 213.742532 
L 257.697496 211.907077 
L 257.942149 213.462483 
L 258.186802 209.294406 
L 258.431455 207.903008 
L 258.676108 207.851943 
L 258.920761 194.380734 
L 259.165414 192.533764 
L 259.410067 192.471536 
L 259.899373 202.731694 
L 260.144026 199.420518 
L 260.388679 199.598476 
L 260.633332 196.390093 
L 260.877985 198.279419 
L 261.122638 191.945222 
L 261.367291 190.841919 
L 261.611944 185.984963 
L 261.856597 187.652668 
L 262.10125 192.0817 
L 262.590556 182.211358 
L 263.079862 162.043568 
L 263.324515 163.265834 
L 263.569168 167.663265 
L 263.813821 144.197021 
L 264.058474 134.195851 
L 264.303127 137.922599 
L 264.54778 130.960251 
L 265.037086 128.025292 
L 265.281739 135.881326 
L 265.771045 129.294006 
L 266.015698 130.909069 
L 266.260351 136.023668 
L 266.505004 129.884984 
L 266.749657 132.129679 
L 266.99431 121.801428 
L 267.238963 118.54198 
L 267.483616 119.622059 
L 267.728269 118.762976 
L 267.972922 121.726301 
L 268.217575 126.093514 
L 268.462228 121.02768 
L 268.706881 105.541168 
L 269.44084 118.706436 
L 269.685493 117.290119 
L 269.930146 117.53052 
L 270.419452 127.375028 
L 270.664106 128.052568 
L 270.908759 135.99084 
L 271.153412 135.290231 
L 271.398065 128.751404 
L 271.642718 128.560997 
L 271.887371 131.596955 
L 272.132024 137.746745 
L 272.376677 131.050437 
L 272.62133 131.368147 
L 272.865983 132.181465 
L 273.110636 135.172183 
L 273.355289 136.574784 
L 273.599942 134.412522 
L 274.089248 141.516063 
L 274.333901 147.728549 
L 274.578554 143.582138 
L 274.823207 145.858766 
L 275.06786 159.654757 
L 275.312513 163.450085 
L 275.557166 164.814811 
L 275.801819 161.866565 
L 276.046472 170.424201 
L 276.291125 163.035155 
L 276.535778 173.216797 
L 276.780431 170.556666 
L 277.025084 171.566606 
L 277.269737 166.386485 
L 277.51439 164.637145 
L 277.759043 168.950896 
L 278.003696 169.453402 
L 278.248349 180.522533 
L 278.493002 182.268794 
L 278.737655 174.537218 
L 278.982308 176.926633 
L 279.226961 185.014962 
L 279.471614 187.07379 
L 279.716267 187.972014 
L 279.96092 196.262188 
L 280.205573 197.264939 
L 280.450226 202.529655 
L 280.694879 199.180507 
L 280.939532 201.901114 
L 281.184185 188.547269 
L 281.673491 174.491141 
L 281.918144 177.859791 
L 282.40745 167.684579 
L 282.652103 177.123762 
L 282.896756 175.080015 
L 283.141409 180.551523 
L 283.386062 161.156351 
L 283.630715 160.75091 
L 283.875368 161.566429 
L 284.120021 152.801533 
L 284.364674 157.245762 
L 284.609327 156.772832 
L 284.85398 155.133551 
L 285.098633 156.756914 
L 285.343286 162.318863 
L 285.587939 157.6845 
L 285.832592 158.122146 
L 286.077245 149.67985 
L 286.321898 150.704558 
L 286.566551 153.072542 
L 286.811204 149.38743 
L 287.055857 148.883677 
L 287.30051 143.264546 
L 287.545163 144.522504 
L 287.789816 142.445987 
L 288.034469 148.216365 
L 288.279122 146.805289 
L 288.523775 146.599042 
L 288.768428 140.860168 
L 289.013081 140.815006 
L 289.257734 139.591513 
L 289.502387 140.182646 
L 289.74704 141.858672 
L 289.991693 148.275515 
L 290.236346 144.302756 
L 290.480999 149.410283 
L 290.970305 146.681455 
L 291.214958 143.735079 
L 291.459611 135.533827 
L 291.704264 133.473382 
L 291.948917 136.378785 
L 292.19357 136.725719 
L 292.438223 134.711391 
L 292.92753 136.923803 
L 293.416836 142.982588 
L 293.661489 142.428277 
L 293.906142 143.049687 
L 294.150795 145.426925 
L 294.395448 135.045193 
L 294.640101 154.793612 
L 294.884754 160.422271 
L 295.129407 156.359753 
L 295.618713 160.64009 
L 296.352672 174.653785 
L 296.841978 178.565154 
L 297.086631 168.129025 
L 297.331284 164.470234 
L 297.82059 167.88915 
L 298.065243 165.827518 
L 298.309896 166.323906 
L 298.554549 158.831717 
L 299.043855 156.562668 
L 299.288508 146.997313 
L 299.533161 155.219062 
L 299.777814 157.716023 
L 300.022467 158.616722 
L 300.26712 160.604709 
L 300.511773 159.569967 
L 301.001079 167.53154 
L 301.245732 166.842329 
L 301.490385 172.905458 
L 301.735038 173.705723 
L 301.979691 177.336107 
L 302.224344 177.707142 
L 302.468997 171.588018 
L 302.71365 174.475301 
L 302.958303 170.102848 
L 303.202956 174.83336 
L 303.447609 175.691469 
L 303.692262 173.666874 
L 303.936915 179.625224 
L 304.181568 182.497603 
L 304.670874 173.168771 
L 304.915527 172.04996 
L 305.16018 172.003766 
L 305.404833 175.9556 
L 305.649486 176.488616 
L 305.894139 174.625807 
L 306.138792 178.742196 
L 306.383445 170.085839 
L 306.872751 173.706073 
L 307.117404 172.534541 
L 307.362057 174.558377 
L 307.60671 171.706182 
L 307.851363 176.569334 
L 308.096016 177.848432 
L 308.340669 176.944226 
L 308.829975 178.508887 
L 309.074628 173.634727 
L 309.319281 171.921138 
L 309.563934 171.981224 
L 309.808587 179.383537 
L 310.05324 174.703934 
L 310.297893 177.529671 
L 310.542546 175.722603 
L 310.787199 175.55125 
L 311.031852 169.258552 
L 311.521158 171.707312 
L 311.765811 171.738076 
L 312.010464 168.843759 
L 312.255117 168.520575 
L 312.49977 162.471317 
L 312.744423 161.914844 
L 312.989076 162.447139 
L 313.478382 156.352232 
L 313.723035 160.862879 
L 313.967688 161.433886 
L 314.212341 163.82788 
L 314.456994 162.10755 
L 314.701647 161.312741 
L 314.9463 161.415456 
L 315.190953 158.979866 
L 315.435607 164.59892 
L 315.68026 157.662172 
L 315.924913 156.38249 
L 316.169566 142.054904 
L 316.414219 141.940286 
L 316.658872 143.942612 
L 316.903525 150.628302 
L 317.148178 147.944012 
L 317.392831 151.163442 
L 317.637484 150.926041 
L 317.882137 145.477522 
L 318.12679 147.101528 
L 318.371443 147.362327 
L 318.616096 145.323353 
L 318.860749 133.325078 
L 319.105402 133.850437 
L 319.594708 141.741345 
L 319.839361 139.333363 
L 320.084014 143.532437 
L 320.328667 150.364346 
L 320.57332 150.316769 
L 320.817973 148.599069 
L 321.062626 148.074918 
L 321.307279 148.13629 
L 321.796585 153.060774 
L 322.041238 151.016481 
L 322.285891 156.713136 
L 322.530544 158.956253 
L 322.775197 159.791489 
L 323.01985 159.059435 
L 323.264503 159.095264 
L 323.753809 157.926069 
L 323.998462 159.581813 
L 324.243115 157.437163 
L 324.487768 152.084208 
L 324.977074 162.494132 
L 325.221727 159.252686 
L 325.46638 153.684152 
L 325.955686 161.62065 
L 326.200339 167.383411 
L 326.444992 167.323208 
L 326.689645 168.571387 
L 326.934298 163.876665 
L 327.178951 164.653355 
L 327.423604 167.898561 
L 327.668257 174.138616 
L 327.91291 174.628009 
L 328.157563 176.145793 
L 328.646869 170.154595 
L 328.891522 171.195085 
L 329.136175 172.938404 
L 329.380828 171.090305 
L 329.870134 174.0239 
L 330.114787 172.635658 
L 330.604093 167.60351 
L 330.848746 170.14536 
L 331.093399 175.155998 
L 331.338052 176.819632 
L 331.582705 173.566049 
L 331.827358 172.507187 
L 332.072011 167.326618 
L 332.316664 168.991888 
L 332.561317 165.253334 
L 332.80597 167.952685 
L 333.050623 164.191608 
L 333.295276 166.227328 
L 333.539929 171.247046 
L 334.029235 173.624927 
L 334.273888 172.230431 
L 334.518541 173.689844 
L 334.763194 174.4467 
L 335.007847 173.784161 
L 335.2525 172.665389 
L 335.497153 172.289328 
L 335.741806 170.434858 
L 335.986459 173.023896 
L 336.720418 157.190644 
L 336.965071 158.445252 
L 337.209724 157.292638 
L 337.454377 153.024302 
L 337.943684 156.465624 
L 338.188337 157.984382 
L 338.43299 157.669303 
L 338.922296 158.720742 
L 339.166949 161.365579 
L 339.411602 158.242084 
L 339.656255 158.268795 
L 339.900908 157.835045 
L 340.390214 161.320573 
L 340.634867 159.779507 
L 340.87952 159.39425 
L 341.124173 161.289595 
L 341.368826 161.783782 
L 342.347438 151.396653 
L 342.592091 151.494204 
L 342.836744 148.382457 
L 343.081397 147.791148 
L 343.32605 149.949904 
L 343.570703 148.669345 
L 343.815356 146.642859 
L 344.060009 146.700353 
L 344.304662 146.056869 
L 344.549315 145.993354 
L 344.793968 147.342688 
L 345.038621 160.069823 
L 345.283274 162.149107 
L 345.77258 159.697425 
L 346.506539 162.248159 
L 346.751192 161.66326 
L 346.995845 161.502233 
L 347.485151 162.735526 
L 347.729804 162.075793 
L 347.974457 162.535631 
L 348.21911 163.335252 
L 348.463763 157.788753 
L 348.708416 157.921569 
L 348.953069 158.323678 
L 349.197722 164.345329 
L 349.442375 166.572626 
L 349.687028 166.722352 
L 349.931681 168.494448 
L 350.420987 166.630958 
L 350.66564 165.522122 
L 350.910293 163.263009 
L 351.154946 163.272497 
L 351.399599 159.608504 
L 351.644252 159.680338 
L 351.888905 162.948709 
L 352.133558 161.228282 
L 352.378211 163.054814 
L 352.622864 160.52214 
L 352.867517 162.271129 
L 353.11217 161.924157 
L 353.356823 162.709302 
L 353.601476 162.073572 
L 353.846129 160.400683 
L 354.090782 156.262533 
L 354.335435 155.490558 
L 354.580088 156.190407 
L 354.824741 153.352785 
L 355.069394 144.405431 
L 355.314047 145.13431 
L 355.5587 143.381327 
L 355.803353 153.285744 
L 356.048006 153.507636 
L 356.292659 155.129284 
L 356.537312 157.53678 
L 357.026618 155.979075 
L 357.271271 156.492822 
L 357.515924 149.305874 
L 357.760577 148.976572 
L 358.00523 144.239494 
L 358.249883 144.457197 
L 358.494536 145.179257 
L 358.739189 139.705176 
L 359.228495 150.223854 
L 359.473148 141.796891 
L 359.717801 138.465707 
L 359.962454 138.409284 
L 360.207107 139.97071 
L 360.451761 138.220357 
L 360.696414 140.326372 
L 360.941067 141.038281 
L 361.18572 145.901355 
L 361.430373 144.373791 
L 361.675026 143.891625 
L 361.919679 144.351736 
L 362.164332 146.222864 
L 362.408985 143.868148 
L 362.653638 146.372396 
L 362.898291 152.120524 
L 363.142944 153.622956 
L 363.387597 154.40364 
L 363.876903 157.780531 
L 364.121556 160.58018 
L 364.366209 156.601576 
L 364.610862 155.278641 
L 364.855515 152.63472 
L 365.100168 153.697557 
L 365.344821 155.615385 
L 365.589474 155.010984 
L 365.834127 158.499259 
L 366.323433 153.550538 
L 366.568086 154.292022 
L 366.812739 152.688805 
L 367.057392 148.546037 
L 367.546698 151.611551 
L 368.036004 147.69726 
L 368.280657 144.823751 
L 368.52531 144.793338 
L 368.769963 142.50391 
L 369.014616 143.237016 
L 369.748575 139.071024 
L 369.993228 136.209302 
L 370.237881 129.908597 
L 370.482534 131.605196 
L 370.727187 126.632939 
L 370.97184 126.976581 
L 371.216493 102.40041 
L 371.461146 94.918743 
L 371.705799 95.740614 
L 371.950452 99.82957 
L 372.195105 92.817404 
L 372.439758 94.546618 
L 372.684411 93.223917 
L 372.929064 90.324865 
L 373.173717 89.204827 
L 373.41837 99.284708 
L 373.663023 97.521282 
L 373.907676 96.872732 
L 374.396982 94.165491 
L 374.641635 100.898135 
L 374.886288 100.81993 
L 375.130941 98.663142 
L 375.375594 94.379551 
L 375.620247 95.712441 
L 375.8649 95.754895 
L 376.109553 94.949468 
L 376.354206 102.021525 
L 376.598859 100.92354 
L 377.088165 91.663094 
L 377.332818 85.588996 
L 377.577471 95.578048 
L 377.822124 92.549513 
L 378.066777 84.99342 
L 378.31143 90.646062 
L 378.800736 79.470807 
L 379.045389 81.48722 
L 379.290042 80.570701 
L 379.534695 82.361753 
L 379.779348 77.293056 
L 380.024001 79.069009 
L 380.268654 79.038674 
L 380.513307 77.967382 
L 380.75796 75.609432 
L 381.002613 83.419486 
L 381.247266 80.84958 
L 381.491919 76.204677 
L 381.736572 74.805174 
L 381.981225 66.071762 
L 382.225878 65.25521 
L 382.470531 67.450847 
L 382.715184 71.100695 
L 382.959838 69.119975 
L 383.204491 66.138219 
L 383.449144 60.546851 
L 383.693797 47.666775 
L 383.93845 51.19273 
L 384.183103 51.67022 
L 384.427756 47.240603 
L 384.672409 34.414125 
L 384.917062 39.00623 
L 385.161715 39.780718 
L 385.406368 45.765701 
L 385.651021 45.078692 
L 385.895674 43.312557 
L 386.140327 46.718927 
L 386.38498 47.931315 
L 386.629633 50.910383 
L 386.874286 78.616205 
L 387.118939 80.161616 
L 387.363592 71.050955 
L 387.608245 70.264738 
L 387.852898 74.465955 
L 387.852898 74.465955 
" style="fill:none;stroke:#1f77b4;stroke-linecap:square;stroke-width:1.5;"/>
   </g>
   <g id="line2d_34">
    <path clip-path="url(#p63ea1c4a45)" d="M 63.198352 228.197332 
L 63.443005 229.180497 
L 63.687658 225.707498 
L 63.932311 227.252472 
L 64.176964 223.664557 
L 64.421617 218.429521 
L 64.910923 215.454489 
L 65.155576 215.875845 
L 65.400229 215.722625 
L 66.134188 216.948389 
L 66.378841 212.402846 
L 66.623494 211.994258 
L 66.868147 215.914151 
L 67.1128 225.503204 
L 67.357453 226.269307 
L 67.602106 236.113728 
L 67.846759 235.30932 
L 68.091412 233.802651 
L 68.336066 229.052814 
L 68.580719 238.654635 
L 68.825372 240.046389 
L 69.070025 240.774187 
L 69.314678 236.854294 
L 69.559331 240.135768 
L 69.803984 239.114297 
L 70.048637 243.136337 
L 70.29329 243.685377 
L 70.537943 242.855432 
L 70.782596 246.328432 
L 71.027249 242.829896 
L 71.271902 235.437004 
L 71.761208 240.071926 
L 72.005861 237.326724 
L 72.250514 240.991249 
L 72.495167 241.195543 
L 72.73982 238.552488 
L 72.984473 239.395201 
L 73.229126 239.816558 
L 73.718432 233.815419 
L 73.963085 239.075992 
L 74.452391 239.969779 
L 74.941697 237.250114 
L 75.18635 237.135198 
L 75.431003 247.094535 
L 76.164962 241.055091 
L 76.409615 237.735312 
L 76.654268 238.258816 
L 76.898921 236.420169 
L 77.143574 238.552488 
L 77.388227 239.573959 
L 77.877533 236.241412 
L 78.122186 237.51825 
L 78.366839 237.492713 
L 78.611492 237.709775 
L 78.856145 246.788094 
L 79.100798 246.826399 
L 79.590104 250.529229 
L 79.834757 247.796796 
L 80.324063 250.656913 
L 80.568716 250.618608 
L 80.813369 249.507759 
L 81.302675 263.591282 
L 81.547328 263.259304 
L 81.791981 264.727668 
L 82.036634 265.059645 
L 82.281287 262.978399 
L 82.52594 264.012638 
L 82.770593 260.207661 
L 83.259899 262.378286 
L 83.504552 260.731165 
L 83.749205 256.658051 
L 83.993858 260.092746 
L 84.238511 260.616249 
L 84.483164 267.843152 
L 84.727817 270.550049 
L 84.97247 269.400895 
L 85.217123 268.96677 
L 85.951082 260.37365 
L 86.195735 261.446194 
L 86.440388 258.700992 
L 86.685041 260.156587 
L 87.174347 254.640647 
L 87.419 255.585507 
L 87.663653 257.041103 
L 87.908306 259.5054 
L 88.152959 253.529798 
L 88.397612 256.109011 
L 88.642265 256.658051 
L 88.886918 255.01093 
L 89.131571 250.120641 
L 89.376224 249.02256 
L 89.620877 249.443917 
L 89.86553 252.457254 
L 90.110183 253.98946 
L 90.354836 249.839736 
L 90.599489 241.897804 
L 90.844143 238.820624 
L 91.088796 239.241981 
L 91.333449 240.493282 
L 91.822755 244.617469 
L 92.067408 242.817127 
L 92.556714 244.783458 
L 92.801367 245.268656 
L 93.04602 245.153741 
L 93.290673 240.838028 
L 93.535326 243.315094 
L 94.024632 244.783458 
L 94.269285 244.387638 
L 94.513938 246.18798 
L 94.758591 260.016135 
L 95.003244 257.462459 
L 95.247897 260.143819 
L 95.49255 259.390485 
L 95.737203 260.016135 
L 95.981856 261.088679 
L 96.226509 260.603481 
L 96.715815 262.633653 
L 96.960468 265.366087 
L 97.205121 270.128692 
L 97.694427 269.196601 
L 97.93908 270.690501 
L 98.183733 268.49434 
L 98.428386 268.979538 
L 98.917692 264.880888 
L 99.162345 267.817616 
L 99.406998 266.400325 
L 99.651651 268.238972 
L 99.896304 267.613321 
L 100.140957 269.145527 
L 100.38561 268.877391 
L 100.630263 271.022479 
L 100.874916 271.150163 
L 101.364222 274.431636 
L 101.608875 274.316721 
L 101.853528 275.50418 
L 102.098181 273.129262 
L 102.342834 273.359092 
L 102.587487 272.631295 
L 102.83214 274.112427 
L 103.076793 273.167567 
L 103.321446 270.53728 
L 103.566099 271.086321 
L 103.810752 271.916266 
L 104.055405 270.550049 
L 104.300058 273.308019 
L 104.544711 274.329489 
L 104.789364 276.334125 
L 105.034017 275.721243 
L 105.27867 274.699772 
L 105.523323 268.060215 
L 105.767976 269.732873 
L 106.012629 267.357954 
L 106.257282 269.975472 
L 106.501935 267.77931 
L 106.991241 272.656832 
L 107.235894 272.707905 
L 107.480547 273.69107 
L 107.7252 270.894795 
L 107.969853 270.588354 
L 108.214506 265.161792 
L 108.459159 274.508247 
L 108.948465 273.448471 
L 109.193118 274.712541 
L 109.437771 274.533783 
L 109.682424 275.159434 
L 109.927077 271.150163 
L 110.17173 269.04338 
L 110.416383 264.433995 
L 110.905689 261.190826 
L 111.150342 264.140322 
L 111.394995 264.523373 
L 111.639648 263.616818 
L 111.884301 264.714899 
L 112.128954 262.122918 
L 112.373607 254.755563 
L 112.61826 256.619746 
L 112.862913 261.586646 
L 113.107566 263.182694 
L 113.35222 259.913988 
L 113.596873 258.854213 
L 113.841526 259.786304 
L 114.086179 258.228562 
L 114.330832 259.671389 
L 114.820138 260.411955 
L 115.064791 261.829245 
L 115.554097 251.972056 
L 115.79875 251.563468 
L 116.043403 256.109011 
L 116.288056 258.56054 
L 116.532709 255.815338 
L 117.022015 259.518168 
L 117.266668 260.105514 
L 117.755974 264.025407 
L 118.000627 263.795576 
L 118.24528 268.290046 
L 118.489933 266.75784 
L 118.734586 263.399756 
L 119.223892 262.276139 
L 119.957851 269.145527 
L 120.202504 266.2088 
L 120.447157 267.511174 
L 120.69181 264.714899 
L 120.936463 263.770039 
L 121.181116 259.10958 
L 121.425769 259.403253 
L 121.915075 248.116005 
L 122.404381 241.080628 
L 122.649034 241.233848 
L 122.893687 242.600065 
L 123.13834 242.817127 
L 123.382993 238.309889 
L 123.627646 222.374951 
L 124.850911 210.781262 
L 125.095564 204.690744 
L 125.340217 212.109173 
L 126.074176 209.747023 
L 126.318829 206.61877 
L 126.563482 208.482953 
L 126.808135 202.354131 
L 127.297441 210.79403 
L 127.542094 211.151545 
L 127.786747 210.679115 
L 128.0314 210.742957 
L 128.276053 209.427814 
L 128.520706 204.895039 
L 128.765359 206.044193 
L 129.010012 205.558994 
L 129.254665 210.538663 
L 129.499318 205.610068 
L 129.743971 204.614134 
L 129.988624 210.015159 
L 130.233277 209.197983 
L 130.722583 213.258328 
L 130.967236 209.836402 
L 131.211889 208.674479 
L 131.456542 203.54159 
L 131.701195 194.974007 
L 132.190501 200.936841 
L 132.435154 201.000683 
L 132.679807 199.44294 
L 133.169113 194.47604 
L 133.413766 196.327456 
L 133.658419 192.484173 
L 134.147725 190.671063 
L 134.392378 186.074446 
L 134.637031 186.636255 
L 134.881684 184.925292 
L 135.126337 180.507433 
L 135.37099 178.847543 
L 135.615643 182.4993 
L 135.860297 180.047771 
L 136.10495 181.911954 
L 136.349603 193.135361 
L 136.594256 195.957173 
L 136.838909 187.504505 
L 137.083562 185.282807 
L 137.572868 189.624056 
L 137.817521 191.283945 
L 138.062174 186.649023 
L 138.306827 171.22482 
L 138.796133 180.596811 
L 139.040786 185.065744 
L 139.285439 177.05997 
L 139.530092 179.588109 
L 139.774745 186.27874 
L 140.264051 172.476122 
L 140.508704 177.749463 
L 140.753357 178.694323 
L 141.242663 187.121454 
L 141.731969 194.922934 
L 141.976622 190.14756 
L 142.221275 189.496372 
L 142.465928 190.990273 
L 142.710581 187.734336 
L 143.199887 175.7959 
L 143.44454 175.106408 
L 143.689193 174.787198 
L 143.933846 180.354212 
L 144.423152 181.209694 
L 144.667805 183.035572 
L 144.912458 174.902114 
L 145.157111 174.953187 
L 145.646417 167.713516 
L 145.89107 169.769225 
L 146.135723 168.224251 
L 146.380376 169.373405 
L 146.625029 167.649674 
L 146.869682 163.576561 
L 147.114335 153.323552 
L 147.358988 161.865598 
L 147.603641 164.087296 
L 147.848294 164.419274 
L 148.092947 167.266623 
L 148.3376 168.134872 
L 148.582253 164.100064 
L 148.826906 165.504586 
L 149.071559 161.712377 
L 149.316212 163.065826 
L 149.560865 167.815663 
L 149.805518 169.475552 
L 150.050171 161.188874 
L 150.294824 160.907969 
L 150.539477 155.941069 
L 150.78413 153.246941 
L 151.028783 159.260848 
L 151.273436 157.537117 
L 151.762742 150.948633 
L 152.007395 158.954407 
L 152.252048 153.668298 
L 152.496701 164.725715 
L 152.741354 162.338028 
L 152.986007 165.364134 
L 153.23066 162.172039 
L 153.475313 165.823796 
L 153.964619 160.346161 
L 154.209272 174.199853 
L 154.698578 180.456359 
L 154.943231 173.35714 
L 155.187884 181.196925 
L 155.432537 177.736694 
L 155.921843 190.875357 
L 156.166496 184.108116 
L 156.411149 188.857953 
L 156.655802 185.091281 
L 156.900455 177.315338 
L 157.389761 170.739622 
L 157.634414 169.769225 
L 157.879067 165.951479 
L 158.12372 169.220185 
L 158.368374 161.163337 
L 158.613027 161.418704 
L 158.85768 161.022885 
L 159.102333 162.606164 
L 159.346986 162.772153 
L 159.591639 165.811027 
L 159.836292 162.299723 
L 160.080945 154.613158 
L 160.325598 164.815094 
L 160.570251 166.321762 
L 161.059557 160.167403 
L 161.30421 147.309645 
L 161.793516 153.795982 
L 162.038169 161.53362 
L 162.282822 160.66537 
L 162.772128 178.017599 
L 163.016781 176.651382 
L 163.261434 173.548666 
L 163.75074 181.988565 
L 163.995393 180.928789 
L 164.484699 183.814443 
L 164.729352 188.832416 
L 164.974005 190.262475 
L 165.218658 190.6966 
L 165.463311 188.640891 
L 165.707964 179.81794 
L 165.952617 178.170819 
L 166.19727 182.02687 
L 166.686576 199.825992 
L 167.175882 181.733197 
L 167.420535 190.30078 
L 167.665188 191.871291 
L 167.909841 186.751171 
L 168.399147 182.307774 
L 168.6438 184.133653 
L 169.133106 174.927651 
L 169.377759 179.613646 
L 169.622412 179.102911 
L 169.867065 175.055334 
L 170.111718 190.351854 
L 170.356371 184.963597 
L 170.601024 186.623487 
L 170.845677 180.443591 
L 171.09033 178.885848 
L 171.334983 179.115679 
L 171.579636 181.541671 
L 171.824289 189.917729 
L 172.068942 191.054115 
L 172.313595 187.900325 
L 172.558248 178.924154 
L 172.802901 183.737833 
L 173.047554 183.852748 
L 173.53686 185.448796 
L 173.781513 181.771502 
L 174.026166 180.788337 
L 174.270819 173.701886 
L 174.515472 174.263695 
L 174.760125 169.028659 
L 175.004778 166.870803 
L 175.249431 170.892842 
L 175.494084 169.194648 
L 175.738737 171.352504 
L 175.98339 169.513857 
L 176.228043 174.084938 
L 176.472696 174.455221 
L 176.717349 170.573633 
L 176.962002 163.014752 
L 177.206655 163.97238 
L 177.451308 158.162768 
L 177.695961 157.690338 
L 177.940614 158.367062 
L 178.185267 155.724007 
L 178.42992 157.217907 
L 178.674573 155.506945 
L 178.919226 157.473275 
L 179.163879 160.397234 
L 179.408532 160.256782 
L 180.142491 147.539475 
L 180.387144 148.497104 
L 180.631798 146.901056 
L 180.876451 144.538906 
L 181.121104 138.83144 
L 181.365757 140.516866 
L 181.61041 138.933587 
L 181.855063 143.019469 
L 182.099716 150.297445 
L 182.344369 146.926593 
L 182.589022 148.995071 
L 183.078328 142.355513 
L 183.322981 140.631782 
L 183.567634 141.206359 
L 183.812287 144.411222 
L 184.05694 138.971892 
L 184.301593 130.608603 
L 184.546246 129.702048 
L 184.790899 127.544192 
L 185.035552 122.245314 
L 185.280205 93.861206 
L 185.524858 94.754992 
L 185.769511 102.160653 
L 186.014164 103.271502 
L 186.50347 111.890158 
L 186.748123 103.565174 
L 186.992776 107.817045 
L 187.237429 108.366085 
L 187.482082 110.447331 
L 187.726735 108.429927 
L 187.971388 104.739865 
L 188.216041 107.063711 
L 188.460694 103.960994 
L 188.705347 102.696925 
L 188.95 103.629016 
L 189.194653 103.13105 
L 189.439306 104.446193 
L 189.683959 103.411954 
L 190.173265 109.579081 
L 190.417918 106.246534 
L 190.907224 107.957497 
L 191.151877 110.06428 
L 191.39653 109.157725 
L 191.641183 96.03183 
L 191.885836 92.648209 
L 192.130489 96.797933 
L 192.375142 93.605838 
L 192.619795 95.189117 
L 192.864448 100.590142 
L 193.353754 102.135116 
L 193.598407 104.765402 
L 193.84306 113.996941 
L 194.332366 103.335344 
L 194.577019 91.371371 
L 194.821672 95.865841 
L 195.066325 108.7236 
L 195.310978 108.812979 
L 195.555631 99.645282 
L 195.800284 105.288906 
L 196.28959 101.560539 
L 196.534243 104.420656 
L 196.778896 112.337052 
L 197.268202 106.693428 
L 197.512855 105.735799 
L 197.757508 107.740435 
L 198.002161 105.301674 
L 198.246814 111.098519 
L 198.491467 123.420005 
L 198.73612 128.106001 
L 198.980773 128.884872 
L 199.470079 113.37129 
L 199.714732 112.720103 
L 200.204038 99.160083 
L 200.693344 105.952862 
L 200.937997 98.904716 
L 201.18265 102.2628 
L 201.427303 90.720184 
L 201.671956 96.35104 
L 201.916609 80.441638 
L 202.161262 78.194403 
L 202.405915 81.041752 
L 202.650568 74.12129 
L 202.895221 79.56062 
L 203.139875 80.58209 
L 203.384528 81.041752 
L 203.629181 66.94546 
L 203.873834 63.421388 
L 204.118487 64.085343 
L 204.36314 71.401625 
L 204.607793 64.238564 
L 204.852446 71.325015 
L 205.097099 73.112588 
L 205.586405 78.679602 
L 205.831058 69.856651 
L 206.075711 71.631456 
L 206.320364 71.082416 
L 206.565017 68.924559 
L 206.80967 70.09925 
L 207.054323 80.952373 
L 207.298976 83.34006 
L 207.543629 87.745152 
L 207.788282 88.358034 
L 208.032935 85.919273 
L 208.277588 92.367305 
L 208.522241 89.519956 
L 208.766894 95.623242 
L 209.011547 90.375438 
L 209.2562 90.260522 
L 209.500853 94.742224 
L 209.745506 102.211726 
L 209.990159 97.244826 
L 210.234812 86.991817 
L 210.479465 83.991248 
L 210.724118 83.518818 
L 210.968771 85.357464 
L 211.213424 88.140971 
L 211.458077 83.161303 
L 211.70273 89.124137 
L 211.947383 89.379504 
L 212.192036 91.984254 
L 212.681342 102.441557 
L 212.925995 101.930822 
L 213.415301 90.400975 
L 213.659954 93.35047 
L 213.904607 101.024267 
L 214.14926 102.671388 
L 214.393913 106.220997 
L 214.638566 107.30631 
L 214.883219 101.918053 
L 215.127872 101.700991 
L 215.372525 91.588434 
L 215.617178 89.545493 
L 215.861831 85.15317 
L 216.106484 90.081765 
L 216.351137 92.546062 
L 216.59579 101.764833 
L 216.840443 101.662686 
L 217.085096 104.816476 
L 217.574402 105.786873 
L 217.819055 105.684726 
L 218.063708 106.246534 
L 218.308361 112.656261 
L 218.797667 102.875682 
L 219.04232 108.966199 
L 219.286973 121.287686 
L 219.531626 112.209368 
L 219.776279 116.44847 
L 220.020932 118.568021 
L 220.265585 118.453106 
L 220.510238 115.401463 
L 220.754891 119.487344 
L 220.999544 117.406098 
L 221.244197 123.190175 
L 221.48885 120.189605 
L 221.733503 122.90927 
L 222.467462 117.878528 
L 222.712115 109.528008 
L 222.956768 110.702699 
L 223.446074 114.431066 
L 223.690727 122.104862 
L 223.93538 123.368932 
L 224.424686 120.930171 
L 224.669339 123.534921 
L 224.913992 113.716037 
L 225.158645 109.093883 
L 225.403298 111.494338 
L 225.647952 106.272071 
L 225.892605 110.332416 
L 226.137258 117.814687 
L 226.381911 120.751414 
L 226.626564 118.33819 
L 226.871217 114.23954 
L 227.11587 116.971974 
L 227.360523 113.562816 
L 227.605176 116.831521 
L 227.849829 123.100796 
L 228.094482 122.75605 
L 228.583788 104.114215 
L 228.828441 108.812979 
L 229.073094 108.034107 
L 229.317747 109.936596 
L 229.807053 118.887231 
L 230.051706 117.648698 
L 230.296359 112.554114 
L 230.785665 110.626089 
L 231.030318 112.017842 
L 231.519624 101.573307 
L 231.764277 103.194891 
L 232.00893 103.437491 
L 232.253583 127.339898 
L 232.742889 122.973112 
L 232.987542 134.413581 
L 233.232195 140.401951 
L 233.476848 135.830871 
L 233.721501 135.945786 
L 233.966154 139.393249 
L 234.45546 141.5128 
L 234.700113 140.121047 
L 234.944766 136.660816 
L 235.189419 138.780367 
L 235.678725 133.430415 
L 236.168031 122.845428 
L 236.412684 127.454814 
L 236.657337 125.845998 
L 236.90199 127.352666 
L 237.146643 131.017192 
L 237.391296 125.705545 
L 237.635949 123.407237 
L 238.125255 122.181473 
L 238.369908 120.176837 
L 238.614561 123.675373 
L 238.859214 124.428707 
L 239.34852 119.053219 
L 239.593173 117.993444 
L 239.837826 120.381131 
L 240.082479 121.313223 
L 240.327132 115.554683 
L 240.571785 114.035246 
L 240.816438 113.818184 
L 241.061091 115.388694 
L 241.305744 112.400893 
L 241.550397 114.520445 
L 241.79505 118.057286 
L 242.284356 127.058994 
L 242.529009 128.872104 
L 242.773662 129.344534 
L 243.018315 131.489622 
L 243.262968 141.704326 
L 243.507621 143.606814 
L 243.752274 147.386255 
L 243.996927 143.568509 
L 244.24158 143.338678 
L 244.486233 136.290533 
L 244.730886 138.83144 
L 244.975539 144.832579 
L 245.220192 140.338109 
L 245.464845 129.68928 
L 245.709498 128.19538 
L 246.443457 117.955139 
L 246.68811 119.717175 
L 246.932763 130.659677 
L 247.177416 168.517924 
L 247.422069 165.989785 
L 247.666722 160.295087 
L 247.911375 162.606164 
L 248.156029 167.100634 
L 248.400682 165.593965 
L 248.889988 160.307855 
L 249.134641 158.239378 
L 249.379294 157.256213 
L 249.8686 177.723926 
L 250.113253 177.634547 
L 250.602559 169.284027 
L 250.847212 170.969453 
L 251.091865 175.080871 
L 251.581171 187.823714 
L 251.825824 202.928708 
L 252.070477 208.150975 
L 252.31513 201.243282 
L 252.559783 188.909027 
L 252.804436 188.819648 
L 253.293742 199.749381 
L 253.538395 193.901463 
L 253.783048 192.714004 
L 254.027701 196.646665 
L 254.517007 191.398861 
L 255.250966 202.686109 
L 255.495619 202.52012 
L 255.740272 191.09242 
L 256.718884 209.261825 
L 256.963537 214.049967 
L 257.20819 213.769063 
L 257.452843 211.534596 
L 257.697496 213.168949 
L 257.942149 208.546795 
L 258.186802 207.614704 
L 258.431455 207.461483 
L 258.676108 193.441802 
L 258.920761 192.024511 
L 259.165414 191.794681 
L 259.65472 202.698877 
L 259.899373 198.919437 
L 260.144026 199.110962 
L 260.388679 196.008246 
L 260.633332 197.897966 
L 260.877985 191.232872 
L 261.122638 190.262475 
L 261.367291 185.563711 
L 261.611944 187.440663 
L 261.856597 192.011743 
L 262.345903 181.835344 
L 262.835209 161.073958 
L 263.079862 162.759384 
L 263.324515 167.292159 
L 263.569168 143.696193 
L 263.813821 133.839004 
L 264.058474 137.273698 
L 264.303127 130.353236 
L 264.792433 127.314361 
L 265.037086 135.345672 
L 265.526392 128.3486 
L 265.771045 130.072331 
L 266.015698 135.422283 
L 266.260351 129.331765 
L 266.505004 131.744989 
L 266.749657 121.657969 
L 266.99431 117.738076 
L 267.238963 119.155366 
L 267.483616 118.172201 
L 267.728269 120.891866 
L 267.972922 125.399104 
L 268.217575 120.572657 
L 268.462228 104.752634 
L 269.196187 118.146664 
L 269.44084 117.099657 
L 269.685493 116.793216 
L 270.174799 127.110067 
L 270.419452 127.684644 
L 270.664106 135.767029 
L 270.908759 135.498893 
L 271.153412 128.808262 
L 271.398065 128.540126 
L 271.642718 131.604537 
L 271.887371 138.014264 
L 272.132024 130.966118 
L 272.62133 132.128041 
L 272.865983 135.447819 
L 273.110636 136.890646 
L 273.355289 134.490191 
L 273.844595 141.691557 
L 274.089248 148.088516 
L 274.333901 143.823877 
L 274.578554 146.071112 
L 274.823207 160.422771 
L 275.06786 164.29159 
L 275.312513 165.530123 
L 275.557166 162.286954 
L 275.801819 171.058831 
L 276.046472 163.155204 
L 276.291125 173.765728 
L 276.535778 171.0716 
L 276.780431 172.399511 
L 277.025084 166.564362 
L 277.269737 164.508652 
L 277.51439 169.143574 
L 277.759043 169.73092 
L 278.003696 180.979863 
L 278.248349 182.678057 
L 278.493002 174.595673 
L 278.737655 177.366411 
L 278.982308 185.384954 
L 279.226961 187.606652 
L 279.471614 188.232303 
L 279.716267 197.489378 
L 279.96092 197.859661 
L 280.205573 203.439443 
L 280.450226 199.481245 
L 280.694879 202.762719 
L 280.939532 188.053545 
L 281.428838 174.263695 
L 281.673491 177.877146 
L 282.162797 167.700747 
L 282.40745 177.468558 
L 282.652103 175.259628 
L 282.896756 181.043705 
L 283.141409 161.150569 
L 283.386062 160.780285 
L 283.630715 161.635767 
L 283.875368 152.978805 
L 284.120021 157.141297 
L 284.364674 156.681635 
L 284.609327 155.085588 
L 284.85398 156.809319 
L 285.098633 162.414638 
L 285.343286 157.703106 
L 285.587939 158.239378 
L 285.832592 149.429196 
L 286.077245 150.65496 
L 286.321898 152.953269 
L 286.566551 149.339817 
L 286.811204 148.84185 
L 287.055857 143.121616 
L 287.30051 144.143086 
L 287.545163 142.508734 
L 287.789816 148.331115 
L 288.034469 147.02874 
L 288.279122 146.63292 
L 288.523775 140.670087 
L 288.768428 140.606245 
L 289.013081 139.342175 
L 289.257734 140.044436 
L 289.502387 141.780936 
L 289.74704 148.382188 
L 289.991693 144.526138 
L 290.236346 150.003773 
L 290.970305 143.785572 
L 291.214958 135.383978 
L 291.459611 133.162279 
L 291.704264 136.354374 
L 291.948917 136.711889 
L 292.19357 134.694485 
L 292.682876 136.967257 
L 293.172183 142.968395 
L 293.416836 142.700259 
L 293.661489 143.083311 
L 293.906142 145.547608 
L 294.150795 134.975389 
L 294.395448 154.625926 
L 294.640101 160.435539 
L 294.884754 156.707172 
L 295.37406 160.971811 
L 295.863366 170.841769 
L 296.352672 177.13658 
L 296.597325 179.090142 
L 296.841978 168.607302 
L 297.086631 164.674641 
L 297.575937 167.905042 
L 297.82059 165.938711 
L 298.065243 166.296226 
L 298.309896 158.45644 
L 298.799202 156.209205 
L 299.043855 146.837214 
L 299.288508 155.098356 
L 299.533161 157.664801 
L 299.777814 158.801187 
L 300.022467 161.227179 
L 300.26712 160.103561 
L 300.756426 167.649674 
L 301.001079 167.292159 
L 301.245732 173.306066 
L 301.490385 174.238158 
L 301.735038 177.698389 
L 301.979691 177.45579 
L 302.224344 171.722787 
L 302.468997 175.349007 
L 302.71365 170.433181 
L 302.958303 175.195787 
L 303.202956 175.936353 
L 303.447609 173.765728 
L 303.692262 179.89455 
L 303.936915 182.703594 
L 304.426221 173.140077 
L 304.670874 172.195217 
L 304.915527 172.144144 
L 305.16018 176.383246 
L 305.404833 176.779066 
L 305.649486 174.404147 
L 305.894139 179.026301 
L 306.138792 169.794762 
L 306.383445 172.41228 
L 306.628098 173.459287 
L 306.872751 172.578269 
L 307.117404 175.272397 
L 307.362057 172.654879 
L 307.60671 177.251496 
L 307.851363 177.940988 
L 308.096016 176.98336 
L 308.585322 178.451723 
L 308.829975 173.625276 
L 309.074628 171.748324 
L 309.319281 171.582335 
L 309.563934 179.281668 
L 309.808587 174.646746 
L 310.05324 177.813304 
L 310.297893 175.910816 
L 310.542546 175.502228 
L 310.787199 169.347869 
L 311.276505 171.69725 
L 311.521158 171.582335 
L 311.765811 168.913744 
L 312.010464 168.581766 
L 312.255117 162.235881 
L 312.49977 161.788988 
L 312.744423 162.516785 
L 313.233729 156.387963 
L 313.478382 161.086727 
L 313.723035 161.546388 
L 313.967688 164.100064 
L 314.212341 162.363565 
L 314.456994 161.571925 
L 314.701647 161.342094 
L 314.9463 159.043786 
L 315.190953 164.636336 
L 315.435607 157.639264 
L 315.68026 156.068753 
L 315.924913 141.666021 
L 316.169566 141.551105 
L 316.414219 143.657888 
L 316.658872 150.552813 
L 316.903525 147.960832 
L 317.148178 150.808181 
L 317.392831 150.450666 
L 317.637484 144.934726 
L 317.882137 146.837214 
L 318.12679 147.181961 
L 318.371443 145.100715 
L 318.616096 132.76646 
L 318.860749 133.507026 
L 319.350055 141.921388 
L 319.594708 139.406017 
L 319.839361 143.351447 
L 320.084014 150.386824 
L 320.328667 150.591118 
L 320.57332 148.714166 
L 320.817973 148.024674 
L 321.062626 147.986369 
L 321.551932 153.48954 
L 321.796585 151.331684 
L 322.041238 157.013613 
L 322.285891 159.094859 
L 322.530544 160.11633 
L 322.775197 158.967176 
L 323.01985 159.426837 
L 323.509156 158.086157 
L 323.753809 159.4013 
L 323.998462 157.371128 
L 324.243115 152.136092 
L 324.732421 162.40187 
L 324.977074 159.490679 
L 325.221727 153.757676 
L 325.711033 161.546388 
L 325.955686 167.560295 
L 326.200339 167.828431 
L 326.444992 168.93928 
L 326.689645 164.010686 
L 326.934298 164.827862 
L 327.178951 167.713516 
L 327.423604 174.340305 
L 327.668257 175.004261 
L 327.91291 176.562003 
L 328.402216 170.165045 
L 328.646869 170.841769 
L 328.891522 173.178383 
L 329.136175 171.505725 
L 329.625481 174.136011 
L 329.870134 173.101772 
L 330.35944 167.04956 
L 330.604093 169.896909 
L 330.848746 174.838272 
L 331.093399 176.638614 
L 331.338052 173.254993 
L 331.582705 172.16968 
L 331.827358 166.858034 
L 332.072011 168.875438 
L 332.316664 164.955546 
L 332.561317 167.943347 
L 332.80597 164.138369 
L 333.050623 166.219615 
L 333.295276 171.390809 
L 333.784582 174.059401 
L 334.029235 172.029228 
L 334.518541 175.080871 
L 334.763194 174.148779 
L 335.2525 171.69725 
L 335.497153 170.471486 
L 335.741806 173.140077 
L 336.475765 156.464573 
L 336.720418 157.856326 
L 336.965071 156.860393 
L 337.209724 152.838353 
L 337.454377 154.102423 
L 337.943684 157.728643 
L 338.188337 157.11576 
L 338.677643 158.226609 
L 338.922296 161.61023 
L 339.166949 158.37983 
L 339.411602 158.277683 
L 339.656255 157.562654 
L 339.900908 159.682205 
L 340.145561 160.767517 
L 340.634867 159.528984 
L 340.87952 161.125032 
L 341.124173 161.661304 
L 341.368826 159.4013 
L 341.613479 156.030448 
L 341.858132 155.570786 
L 342.102785 151.318916 
L 342.347438 151.318916 
L 342.592091 148.139589 
L 342.836744 147.731001 
L 343.081397 149.697332 
L 343.32605 148.663093 
L 343.570703 146.926593 
L 343.815356 146.63292 
L 344.304662 145.560376 
L 344.549315 147.309645 
L 344.793968 159.4013 
L 345.038621 162.210344 
L 345.527927 159.197006 
L 346.017233 161.163337 
L 346.261886 161.788988 
L 346.506539 161.227179 
L 346.751192 161.06119 
L 347.240498 162.504017 
L 347.485151 161.852829 
L 347.729804 162.376333 
L 347.974457 163.397803 
L 348.21911 157.613727 
L 348.463763 157.549885 
L 348.708416 158.175536 
L 348.953069 164.21498 
L 349.197722 166.564362 
L 349.442375 166.50052 
L 349.687028 168.224251 
L 350.176334 166.270689 
L 350.420987 165.15984 
L 350.66564 162.989215 
L 350.910293 162.784921 
L 351.154946 159.618363 
L 351.399599 159.362995 
L 351.644252 162.274186 
L 351.888905 161.68684 
L 352.133558 162.887068 
L 352.378211 160.614297 
L 352.622864 162.159271 
L 352.867517 161.393168 
L 353.11217 162.670006 
L 353.356823 161.776219 
L 353.601476 160.295087 
L 353.846129 156.030448 
L 354.090782 154.970673 
L 354.335435 155.685702 
L 354.580088 153.195868 
L 354.824741 144.309075 
L 355.069394 144.717663 
L 355.314047 143.198226 
L 355.5587 152.9405 
L 355.803353 153.157563 
L 356.292659 156.553952 
L 356.537312 157.43497 
L 356.781965 155.749544 
L 357.026618 156.464573 
L 357.271271 149.429196 
L 357.515924 148.675861 
L 357.760577 144.807042 
L 358.00523 144.513369 
L 358.249883 145.394388 
L 358.494536 139.648616 
L 358.983842 150.131457 
L 359.228495 142.049072 
L 359.473148 138.307937 
L 359.717801 138.167484 
L 359.962454 139.661385 
L 360.207107 137.975959 
L 360.451761 139.967826 
L 360.696414 140.619013 
L 360.941067 145.445461 
L 361.18572 143.964329 
L 361.430373 143.530204 
L 361.675026 143.900487 
L 361.919679 145.892354 
L 362.164332 143.619583 
L 362.408985 145.892354 
L 362.653638 151.867956 
L 363.387597 155.532481 
L 363.876903 161.048421 
L 364.121556 157.154066 
L 364.366209 155.979375 
L 364.610862 153.01711 
L 365.100168 155.609092 
L 365.344821 155.200503 
L 365.589474 158.85226 
L 366.07878 153.706603 
L 366.323433 154.689768 
L 366.568086 153.272478 
L 366.812739 148.343883 
L 367.057392 150.948633 
L 367.302045 151.4466 
L 367.791351 147.603317 
L 368.036004 144.602748 
L 368.280657 144.398454 
L 368.52531 142.317208 
L 368.769963 142.725796 
L 369.259269 139.30387 
L 369.503922 138.780367 
L 369.748575 136.405448 
L 369.993228 129.421144 
L 370.237881 131.464085 
L 370.482534 126.203512 
L 370.727187 126.420575 
L 370.97184 102.160653 
L 371.216493 94.052731 
L 371.461146 95.01036 
L 371.705799 99.65805 
L 371.950452 92.72482 
L 372.195105 94.435783 
L 372.439758 93.018493 
L 372.684411 90.094533 
L 372.929064 89.009221 
L 373.173717 98.879179 
L 373.41837 97.704488 
L 373.663023 97.44912 
L 373.907676 95.355106 
L 374.152329 94.320867 
L 374.396982 100.819973 
L 374.641635 101.279634 
L 374.886288 98.994094 
L 375.130941 94.359172 
L 375.375594 95.789231 
L 375.620247 95.95522 
L 375.8649 95.074202 
L 376.109553 102.173421 
L 376.354206 101.279634 
L 376.843512 91.882107 
L 377.088165 86.02142 
L 377.332818 95.393411 
L 377.577471 93.261092 
L 377.822124 85.331928 
L 378.066777 90.375438 
L 378.556083 79.688304 
L 378.800736 81.207741 
L 379.045389 80.03305 
L 379.290042 82.739947 
L 379.534695 77.811352 
L 379.779348 79.369094 
L 380.024001 79.228642 
L 380.268654 78.002878 
L 380.513307 75.896095 
L 380.75796 83.65927 
L 381.002613 81.488645 
L 381.247266 76.853723 
L 381.491919 74.98954 
L 381.736572 66.805008 
L 381.981225 65.553707 
L 382.225878 67.686026 
L 382.470531 71.554846 
L 382.715184 69.894956 
L 382.959838 66.805008 
L 383.204491 61.020932 
L 383.449144 48.009953 
L 383.693797 50.678544 
L 383.93845 51.942614 
L 384.183103 47.665207 
L 384.427756 34.718069 
L 384.672409 37.910164 
L 384.917062 39.633896 
L 385.161715 45.315825 
L 385.406368 44.830626 
L 385.651021 43.260115 
L 385.895674 45.97978 
L 386.140327 47.205545 
L 386.38498 50.295493 
L 386.629633 77.4283 
L 386.874286 81.194973 
L 387.118939 71.593151 
L 387.363592 69.690662 
L 387.608245 73.955301 
L 387.852898 74.657562 
L 387.852898 74.657562 
" style="fill:none;stroke:#ff7f0e;stroke-linecap:square;stroke-width:1.5;"/>
   </g>
   <g id="patch_3">
    <path d="M 46.965625 288.430125 
L 46.965625 22.318125 
" style="fill:none;stroke:#000000;stroke-linecap:square;stroke-linejoin:miter;stroke-width:0.8;"/>
   </g>
   <g id="patch_4">
    <path d="M 404.085625 288.430125 
L 404.085625 22.318125 
" style="fill:none;stroke:#000000;stroke-linecap:square;stroke-linejoin:miter;stroke-width:0.8;"/>
   </g>
   <g id="patch_5">
    <path d="M 46.965625 288.430125 
L 404.085625 288.430125 
" style="fill:none;stroke:#000000;stroke-linecap:square;stroke-linejoin:miter;stroke-width:0.8;"/>
   </g>
   <g id="patch_6">
    <path d="M 46.965625 22.318125 
L 404.085625 22.318125 
" style="fill:none;stroke:#000000;stroke-linecap:square;stroke-linejoin:miter;stroke-width:0.8;"/>
   </g>
   <g id="text_19">
    <!-- Training: BIDU -->
    <defs>
     <path d="M -0.296875 72.90625 
L 61.375 72.90625 
L 61.375 64.59375 
L 35.5 64.59375 
L 35.5 0 
L 25.59375 0 
L 25.59375 64.59375 
L -0.296875 64.59375 
z
" id="DejaVuSans-84"/>
     <path d="M 54.890625 33.015625 
L 54.890625 0 
L 45.90625 0 
L 45.90625 32.71875 
Q 45.90625 40.484375 42.875 44.328125 
Q 39.84375 48.1875 33.796875 48.1875 
Q 26.515625 48.1875 22.3125 43.546875 
Q 18.109375 38.921875 18.109375 30.90625 
L 18.109375 0 
L 9.078125 0 
L 9.078125 54.6875 
L 18.109375 54.6875 
L 18.109375 46.1875 
Q 21.34375 51.125 25.703125 53.5625 
Q 30.078125 56 35.796875 56 
Q 45.21875 56 50.046875 50.171875 
Q 54.890625 44.34375 54.890625 33.015625 
z
" id="DejaVuSans-110"/>
     <path d="M 45.40625 27.984375 
Q 45.40625 37.75 41.375 43.109375 
Q 37.359375 48.484375 30.078125 48.484375 
Q 22.859375 48.484375 18.828125 43.109375 
Q 14.796875 37.75 14.796875 27.984375 
Q 14.796875 18.265625 18.828125 12.890625 
Q 22.859375 7.515625 30.078125 7.515625 
Q 37.359375 7.515625 41.375 12.890625 
Q 45.40625 18.265625 45.40625 27.984375 
z
M 54.390625 6.78125 
Q 54.390625 -7.171875 48.1875 -13.984375 
Q 42 -20.796875 29.203125 -20.796875 
Q 24.46875 -20.796875 20.265625 -20.09375 
Q 16.0625 -19.390625 12.109375 -17.921875 
L 12.109375 -9.1875 
Q 16.0625 -11.328125 19.921875 -12.34375 
Q 23.78125 -13.375 27.78125 -13.375 
Q 36.625 -13.375 41.015625 -8.765625 
Q 45.40625 -4.15625 45.40625 5.171875 
L 45.40625 9.625 
Q 42.625 4.78125 38.28125 2.390625 
Q 33.9375 0 27.875 0 
Q 17.828125 0 11.671875 7.65625 
Q 5.515625 15.328125 5.515625 27.984375 
Q 5.515625 40.671875 11.671875 48.328125 
Q 17.828125 56 27.875 56 
Q 33.9375 56 38.28125 53.609375 
Q 42.625 51.21875 45.40625 46.390625 
L 45.40625 54.6875 
L 54.390625 54.6875 
z
" id="DejaVuSans-103"/>
     <path d="M 11.71875 12.40625 
L 22.015625 12.40625 
L 22.015625 0 
L 11.71875 0 
z
M 11.71875 51.703125 
L 22.015625 51.703125 
L 22.015625 39.3125 
L 11.71875 39.3125 
z
" id="DejaVuSans-58"/>
     <path d="M 19.671875 34.8125 
L 19.671875 8.109375 
L 35.5 8.109375 
Q 43.453125 8.109375 47.28125 11.40625 
Q 51.125 14.703125 51.125 21.484375 
Q 51.125 28.328125 47.28125 31.5625 
Q 43.453125 34.8125 35.5 34.8125 
z
M 19.671875 64.796875 
L 19.671875 42.828125 
L 34.28125 42.828125 
Q 41.5 42.828125 45.03125 45.53125 
Q 48.578125 48.25 48.578125 53.8125 
Q 48.578125 59.328125 45.03125 62.0625 
Q 41.5 64.796875 34.28125 64.796875 
z
M 9.8125 72.90625 
L 35.015625 72.90625 
Q 46.296875 72.90625 52.390625 68.21875 
Q 58.5 63.53125 58.5 54.890625 
Q 58.5 48.1875 55.375 44.234375 
Q 52.25 40.28125 46.1875 39.3125 
Q 53.46875 37.75 57.5 32.78125 
Q 61.53125 27.828125 61.53125 20.40625 
Q 61.53125 10.640625 54.890625 5.3125 
Q 48.25 0 35.984375 0 
L 9.8125 0 
z
" id="DejaVuSans-66"/>
     <path d="M 9.8125 72.90625 
L 19.671875 72.90625 
L 19.671875 0 
L 9.8125 0 
z
" id="DejaVuSans-73"/>
     <path d="M 8.6875 72.90625 
L 18.609375 72.90625 
L 18.609375 28.609375 
Q 18.609375 16.890625 22.84375 11.734375 
Q 27.09375 6.59375 36.625 6.59375 
Q 46.09375 6.59375 50.34375 11.734375 
Q 54.59375 16.890625 54.59375 28.609375 
L 54.59375 72.90625 
L 64.5 72.90625 
L 64.5 27.390625 
Q 64.5 13.140625 57.4375 5.859375 
Q 50.390625 -1.421875 36.625 -1.421875 
Q 22.796875 -1.421875 15.734375 5.859375 
Q 8.6875 13.140625 8.6875 27.390625 
z
" id="DejaVuSans-85"/>
    </defs>
    <g transform="translate(183.02875 16.318125)scale(0.12 -0.12)">
     <use xlink:href="#DejaVuSans-84"/>
     <use x="46.333984" xlink:href="#DejaVuSans-114"/>
     <use x="87.447266" xlink:href="#DejaVuSans-97"/>
     <use x="148.726562" xlink:href="#DejaVuSans-105"/>
     <use x="176.509766" xlink:href="#DejaVuSans-110"/>
     <use x="239.888672" xlink:href="#DejaVuSans-105"/>
     <use x="267.671875" xlink:href="#DejaVuSans-110"/>
     <use x="331.050781" xlink:href="#DejaVuSans-103"/>
     <use x="394.527344" xlink:href="#DejaVuSans-58"/>
     <use x="428.21875" xlink:href="#DejaVuSans-32"/>
     <use x="460.005859" xlink:href="#DejaVuSans-66"/>
     <use x="528.609375" xlink:href="#DejaVuSans-73"/>
     <use x="558.101562" xlink:href="#DejaVuSans-68"/>
     <use x="635.103516" xlink:href="#DejaVuSans-85"/>
    </g>
   </g>
   <g id="legend_1">
    <g id="patch_7">
     <path d="M 53.965625 59.674375 
L 137.69375 59.674375 
Q 139.69375 59.674375 139.69375 57.674375 
L 139.69375 29.318125 
Q 139.69375 27.318125 137.69375 27.318125 
L 53.965625 27.318125 
Q 51.965625 27.318125 51.965625 29.318125 
L 51.965625 57.674375 
Q 51.965625 59.674375 53.965625 59.674375 
z
" style="fill:#ffffff;opacity:0.8;stroke:#cccccc;stroke-linejoin:miter;"/>
    </g>
    <g id="line2d_35">
     <path d="M 55.965625 35.416562 
L 75.965625 35.416562 
" style="fill:none;stroke:#1f77b4;stroke-linecap:square;stroke-width:1.5;"/>
    </g>
    <g id="line2d_36"/>
    <g id="text_20">
     <!-- Predicted -->
     <defs>
      <path d="M 45.40625 46.390625 
L 45.40625 75.984375 
L 54.390625 75.984375 
L 54.390625 0 
L 45.40625 0 
L 45.40625 8.203125 
Q 42.578125 3.328125 38.25 0.953125 
Q 33.9375 -1.421875 27.875 -1.421875 
Q 17.96875 -1.421875 11.734375 6.484375 
Q 5.515625 14.40625 5.515625 27.296875 
Q 5.515625 40.1875 11.734375 48.09375 
Q 17.96875 56 27.875 56 
Q 33.9375 56 38.25 53.625 
Q 42.578125 51.265625 45.40625 46.390625 
z
M 14.796875 27.296875 
Q 14.796875 17.390625 18.875 11.75 
Q 22.953125 6.109375 30.078125 6.109375 
Q 37.203125 6.109375 41.296875 11.75 
Q 45.40625 17.390625 45.40625 27.296875 
Q 45.40625 37.203125 41.296875 42.84375 
Q 37.203125 48.484375 30.078125 48.484375 
Q 22.953125 48.484375 18.875 42.84375 
Q 14.796875 37.203125 14.796875 27.296875 
z
" id="DejaVuSans-100"/>
      <path d="M 18.3125 70.21875 
L 18.3125 54.6875 
L 36.8125 54.6875 
L 36.8125 47.703125 
L 18.3125 47.703125 
L 18.3125 18.015625 
Q 18.3125 11.328125 20.140625 9.421875 
Q 21.96875 7.515625 27.59375 7.515625 
L 36.8125 7.515625 
L 36.8125 0 
L 27.59375 0 
Q 17.1875 0 13.234375 3.875 
Q 9.28125 7.765625 9.28125 18.015625 
L 9.28125 47.703125 
L 2.6875 47.703125 
L 2.6875 54.6875 
L 9.28125 54.6875 
L 9.28125 70.21875 
z
" id="DejaVuSans-116"/>
     </defs>
     <g transform="translate(83.965625 38.916562)scale(0.1 -0.1)">
      <use xlink:href="#DejaVuSans-80"/>
      <use x="58.552734" xlink:href="#DejaVuSans-114"/>
      <use x="97.416016" xlink:href="#DejaVuSans-101"/>
      <use x="158.939453" xlink:href="#DejaVuSans-100"/>
      <use x="222.416016" xlink:href="#DejaVuSans-105"/>
      <use x="250.199219" xlink:href="#DejaVuSans-99"/>
      <use x="305.179688" xlink:href="#DejaVuSans-116"/>
      <use x="344.388672" xlink:href="#DejaVuSans-101"/>
      <use x="405.912109" xlink:href="#DejaVuSans-100"/>
     </g>
    </g>
    <g id="line2d_37">
     <path d="M 55.965625 50.094687 
L 75.965625 50.094687 
" style="fill:none;stroke:#ff7f0e;stroke-linecap:square;stroke-width:1.5;"/>
    </g>
    <g id="line2d_38"/>
    <g id="text_21">
     <!-- True value -->
     <defs>
      <path d="M 8.5 21.578125 
L 8.5 54.6875 
L 17.484375 54.6875 
L 17.484375 21.921875 
Q 17.484375 14.15625 20.5 10.265625 
Q 23.53125 6.390625 29.59375 6.390625 
Q 36.859375 6.390625 41.078125 11.03125 
Q 45.3125 15.671875 45.3125 23.6875 
L 45.3125 54.6875 
L 54.296875 54.6875 
L 54.296875 0 
L 45.3125 0 
L 45.3125 8.40625 
Q 42.046875 3.421875 37.71875 1 
Q 33.40625 -1.421875 27.6875 -1.421875 
Q 18.265625 -1.421875 13.375 4.4375 
Q 8.5 10.296875 8.5 21.578125 
z
M 31.109375 56 
z
" id="DejaVuSans-117"/>
      <path d="M 2.984375 54.6875 
L 12.5 54.6875 
L 29.59375 8.796875 
L 46.6875 54.6875 
L 56.203125 54.6875 
L 35.6875 0 
L 23.484375 0 
z
" id="DejaVuSans-118"/>
      <path d="M 9.421875 75.984375 
L 18.40625 75.984375 
L 18.40625 0 
L 9.421875 0 
z
" id="DejaVuSans-108"/>
     </defs>
     <g transform="translate(83.965625 53.594687)scale(0.1 -0.1)">
      <use xlink:href="#DejaVuSans-84"/>
      <use x="46.333984" xlink:href="#DejaVuSans-114"/>
      <use x="87.447266" xlink:href="#DejaVuSans-117"/>
      <use x="150.826172" xlink:href="#DejaVuSans-101"/>
      <use x="212.349609" xlink:href="#DejaVuSans-32"/>
      <use x="244.136719" xlink:href="#DejaVuSans-118"/>
      <use x="303.316406" xlink:href="#DejaVuSans-97"/>
      <use x="364.595703" xlink:href="#DejaVuSans-108"/>
      <use x="392.378906" xlink:href="#DejaVuSans-117"/>
      <use x="455.757812" xlink:href="#DejaVuSans-101"/>
     </g>
    </g>
   </g>
  </g>
 </g>
 <defs>
  <clipPath id="p63ea1c4a45">
   <rect height="266.112" width="357.12" x="46.965625" y="22.318125"/>
  </clipPath>
 </defs>
</svg>
