<?xml version="1.0" encoding="utf-8" standalone="no"?>
<!DOCTYPE svg PUBLIC "-//W3C//DTD SVG 1.1//EN"
  "http://www.w3.org/Graphics/SVG/1.1/DTD/svg11.dtd">
<!-- Created with matplotlib (https://matplotlib.org/) -->
<svg height="325.986375pt" version="1.1" viewBox="0 0 411.285625 325.986375" width="411.285625pt" xmlns="http://www.w3.org/2000/svg" xmlns:xlink="http://www.w3.org/1999/xlink">
 <defs>
  <style type="text/css">
*{stroke-linecap:butt;stroke-linejoin:round;}
  </style>
 </defs>
 <g id="figure_1">
  <g id="patch_1">
   <path d="M 0 325.986375 
L 411.285625 325.986375 
L 411.285625 0 
L 0 0 
z
" style="fill:#ffffff;"/>
  </g>
  <g id="axes_1">
   <g id="patch_2">
    <path d="M 46.965625 288.430125 
L 404.085625 288.430125 
L 404.085625 22.318125 
L 46.965625 22.318125 
z
" style="fill:#ffffff;"/>
   </g>
   <g id="matplotlib.axis_1">
    <g id="xtick_1">
     <g id="line2d_1">
      <path clip-path="url(#pf74264ba4d)" d="M 63.198352 288.430125 
L 63.198352 22.318125 
" style="fill:none;stroke:#b0b0b0;stroke-dasharray:2.96,1.28;stroke-dashoffset:0;stroke-width:0.8;"/>
     </g>
     <g id="line2d_2">
      <defs>
       <path d="M 0 0 
L 0 3.5 
" id="m3317ae236a" style="stroke:#000000;stroke-width:0.8;"/>
      </defs>
      <g>
       <use style="stroke:#000000;stroke-width:0.8;" x="63.198352" xlink:href="#m3317ae236a" y="288.430125"/>
      </g>
     </g>
     <g id="text_1">
      <!-- 0 -->
      <defs>
       <path d="M 31.78125 66.40625 
Q 24.171875 66.40625 20.328125 58.90625 
Q 16.5 51.421875 16.5 36.375 
Q 16.5 21.390625 20.328125 13.890625 
Q 24.171875 6.390625 31.78125 6.390625 
Q 39.453125 6.390625 43.28125 13.890625 
Q 47.125 21.390625 47.125 36.375 
Q 47.125 51.421875 43.28125 58.90625 
Q 39.453125 66.40625 31.78125 66.40625 
z
M 31.78125 74.21875 
Q 44.046875 74.21875 50.515625 64.515625 
Q 56.984375 54.828125 56.984375 36.375 
Q 56.984375 17.96875 50.515625 8.265625 
Q 44.046875 -1.421875 31.78125 -1.421875 
Q 19.53125 -1.421875 13.0625 8.265625 
Q 6.59375 17.96875 6.59375 36.375 
Q 6.59375 54.828125 13.0625 64.515625 
Q 19.53125 74.21875 31.78125 74.21875 
z
" id="DejaVuSans-48"/>
      </defs>
      <g transform="translate(60.017102 303.028562)scale(0.1 -0.1)">
       <use xlink:href="#DejaVuSans-48"/>
      </g>
     </g>
    </g>
    <g id="xtick_2">
     <g id="line2d_3">
      <path clip-path="url(#pf74264ba4d)" d="M 112.128954 288.430125 
L 112.128954 22.318125 
" style="fill:none;stroke:#b0b0b0;stroke-dasharray:2.96,1.28;stroke-dashoffset:0;stroke-width:0.8;"/>
     </g>
     <g id="line2d_4">
      <g>
       <use style="stroke:#000000;stroke-width:0.8;" x="112.128954" xlink:href="#m3317ae236a" y="288.430125"/>
      </g>
     </g>
     <g id="text_2">
      <!-- 200 -->
      <defs>
       <path d="M 19.1875 8.296875 
L 53.609375 8.296875 
L 53.609375 0 
L 7.328125 0 
L 7.328125 8.296875 
Q 12.9375 14.109375 22.625 23.890625 
Q 32.328125 33.6875 34.8125 36.53125 
Q 39.546875 41.84375 41.421875 45.53125 
Q 43.3125 49.21875 43.3125 52.78125 
Q 43.3125 58.59375 39.234375 62.25 
Q 35.15625 65.921875 28.609375 65.921875 
Q 23.96875 65.921875 18.8125 64.3125 
Q 13.671875 62.703125 7.8125 59.421875 
L 7.8125 69.390625 
Q 13.765625 71.78125 18.9375 73 
Q 24.125 74.21875 28.421875 74.21875 
Q 39.75 74.21875 46.484375 68.546875 
Q 53.21875 62.890625 53.21875 53.421875 
Q 53.21875 48.921875 51.53125 44.890625 
Q 49.859375 40.875 45.40625 35.40625 
Q 44.1875 33.984375 37.640625 27.21875 
Q 31.109375 20.453125 19.1875 8.296875 
z
" id="DejaVuSans-50"/>
      </defs>
      <g transform="translate(102.585204 303.028562)scale(0.1 -0.1)">
       <use xlink:href="#DejaVuSans-50"/>
       <use x="63.623047" xlink:href="#DejaVuSans-48"/>
       <use x="127.246094" xlink:href="#DejaVuSans-48"/>
      </g>
     </g>
    </g>
    <g id="xtick_3">
     <g id="line2d_5">
      <path clip-path="url(#pf74264ba4d)" d="M 161.059557 288.430125 
L 161.059557 22.318125 
" style="fill:none;stroke:#b0b0b0;stroke-dasharray:2.96,1.28;stroke-dashoffset:0;stroke-width:0.8;"/>
     </g>
     <g id="line2d_6">
      <g>
       <use style="stroke:#000000;stroke-width:0.8;" x="161.059557" xlink:href="#m3317ae236a" y="288.430125"/>
      </g>
     </g>
     <g id="text_3">
      <!-- 400 -->
      <defs>
       <path d="M 37.796875 64.3125 
L 12.890625 25.390625 
L 37.796875 25.390625 
z
M 35.203125 72.90625 
L 47.609375 72.90625 
L 47.609375 25.390625 
L 58.015625 25.390625 
L 58.015625 17.1875 
L 47.609375 17.1875 
L 47.609375 0 
L 37.796875 0 
L 37.796875 17.1875 
L 4.890625 17.1875 
L 4.890625 26.703125 
z
" id="DejaVuSans-52"/>
      </defs>
      <g transform="translate(151.515807 303.028562)scale(0.1 -0.1)">
       <use xlink:href="#DejaVuSans-52"/>
       <use x="63.623047" xlink:href="#DejaVuSans-48"/>
       <use x="127.246094" xlink:href="#DejaVuSans-48"/>
      </g>
     </g>
    </g>
    <g id="xtick_4">
     <g id="line2d_7">
      <path clip-path="url(#pf74264ba4d)" d="M 209.990159 288.430125 
L 209.990159 22.318125 
" style="fill:none;stroke:#b0b0b0;stroke-dasharray:2.96,1.28;stroke-dashoffset:0;stroke-width:0.8;"/>
     </g>
     <g id="line2d_8">
      <g>
       <use style="stroke:#000000;stroke-width:0.8;" x="209.990159" xlink:href="#m3317ae236a" y="288.430125"/>
      </g>
     </g>
     <g id="text_4">
      <!-- 600 -->
      <defs>
       <path d="M 33.015625 40.375 
Q 26.375 40.375 22.484375 35.828125 
Q 18.609375 31.296875 18.609375 23.390625 
Q 18.609375 15.53125 22.484375 10.953125 
Q 26.375 6.390625 33.015625 6.390625 
Q 39.65625 6.390625 43.53125 10.953125 
Q 47.40625 15.53125 47.40625 23.390625 
Q 47.40625 31.296875 43.53125 35.828125 
Q 39.65625 40.375 33.015625 40.375 
z
M 52.59375 71.296875 
L 52.59375 62.3125 
Q 48.875 64.0625 45.09375 64.984375 
Q 41.3125 65.921875 37.59375 65.921875 
Q 27.828125 65.921875 22.671875 59.328125 
Q 17.53125 52.734375 16.796875 39.40625 
Q 19.671875 43.65625 24.015625 45.921875 
Q 28.375 48.1875 33.59375 48.1875 
Q 44.578125 48.1875 50.953125 41.515625 
Q 57.328125 34.859375 57.328125 23.390625 
Q 57.328125 12.15625 50.6875 5.359375 
Q 44.046875 -1.421875 33.015625 -1.421875 
Q 20.359375 -1.421875 13.671875 8.265625 
Q 6.984375 17.96875 6.984375 36.375 
Q 6.984375 53.65625 15.1875 63.9375 
Q 23.390625 74.21875 37.203125 74.21875 
Q 40.921875 74.21875 44.703125 73.484375 
Q 48.484375 72.75 52.59375 71.296875 
z
" id="DejaVuSans-54"/>
      </defs>
      <g transform="translate(200.446409 303.028562)scale(0.1 -0.1)">
       <use xlink:href="#DejaVuSans-54"/>
       <use x="63.623047" xlink:href="#DejaVuSans-48"/>
       <use x="127.246094" xlink:href="#DejaVuSans-48"/>
      </g>
     </g>
    </g>
    <g id="xtick_5">
     <g id="line2d_9">
      <path clip-path="url(#pf74264ba4d)" d="M 258.920761 288.430125 
L 258.920761 22.318125 
" style="fill:none;stroke:#b0b0b0;stroke-dasharray:2.96,1.28;stroke-dashoffset:0;stroke-width:0.8;"/>
     </g>
     <g id="line2d_10">
      <g>
       <use style="stroke:#000000;stroke-width:0.8;" x="258.920761" xlink:href="#m3317ae236a" y="288.430125"/>
      </g>
     </g>
     <g id="text_5">
      <!-- 800 -->
      <defs>
       <path d="M 31.78125 34.625 
Q 24.75 34.625 20.71875 30.859375 
Q 16.703125 27.09375 16.703125 20.515625 
Q 16.703125 13.921875 20.71875 10.15625 
Q 24.75 6.390625 31.78125 6.390625 
Q 38.8125 6.390625 42.859375 10.171875 
Q 46.921875 13.96875 46.921875 20.515625 
Q 46.921875 27.09375 42.890625 30.859375 
Q 38.875 34.625 31.78125 34.625 
z
M 21.921875 38.8125 
Q 15.578125 40.375 12.03125 44.71875 
Q 8.5 49.078125 8.5 55.328125 
Q 8.5 64.0625 14.71875 69.140625 
Q 20.953125 74.21875 31.78125 74.21875 
Q 42.671875 74.21875 48.875 69.140625 
Q 55.078125 64.0625 55.078125 55.328125 
Q 55.078125 49.078125 51.53125 44.71875 
Q 48 40.375 41.703125 38.8125 
Q 48.828125 37.15625 52.796875 32.3125 
Q 56.78125 27.484375 56.78125 20.515625 
Q 56.78125 9.90625 50.3125 4.234375 
Q 43.84375 -1.421875 31.78125 -1.421875 
Q 19.734375 -1.421875 13.25 4.234375 
Q 6.78125 9.90625 6.78125 20.515625 
Q 6.78125 27.484375 10.78125 32.3125 
Q 14.796875 37.15625 21.921875 38.8125 
z
M 18.3125 54.390625 
Q 18.3125 48.734375 21.84375 45.5625 
Q 25.390625 42.390625 31.78125 42.390625 
Q 38.140625 42.390625 41.71875 45.5625 
Q 45.3125 48.734375 45.3125 54.390625 
Q 45.3125 60.0625 41.71875 63.234375 
Q 38.140625 66.40625 31.78125 66.40625 
Q 25.390625 66.40625 21.84375 63.234375 
Q 18.3125 60.0625 18.3125 54.390625 
z
" id="DejaVuSans-56"/>
      </defs>
      <g transform="translate(249.377011 303.028562)scale(0.1 -0.1)">
       <use xlink:href="#DejaVuSans-56"/>
       <use x="63.623047" xlink:href="#DejaVuSans-48"/>
       <use x="127.246094" xlink:href="#DejaVuSans-48"/>
      </g>
     </g>
    </g>
    <g id="xtick_6">
     <g id="line2d_11">
      <path clip-path="url(#pf74264ba4d)" d="M 307.851363 288.430125 
L 307.851363 22.318125 
" style="fill:none;stroke:#b0b0b0;stroke-dasharray:2.96,1.28;stroke-dashoffset:0;stroke-width:0.8;"/>
     </g>
     <g id="line2d_12">
      <g>
       <use style="stroke:#000000;stroke-width:0.8;" x="307.851363" xlink:href="#m3317ae236a" y="288.430125"/>
      </g>
     </g>
     <g id="text_6">
      <!-- 1000 -->
      <defs>
       <path d="M 12.40625 8.296875 
L 28.515625 8.296875 
L 28.515625 63.921875 
L 10.984375 60.40625 
L 10.984375 69.390625 
L 28.421875 72.90625 
L 38.28125 72.90625 
L 38.28125 8.296875 
L 54.390625 8.296875 
L 54.390625 0 
L 12.40625 0 
z
" id="DejaVuSans-49"/>
      </defs>
      <g transform="translate(295.126363 303.028562)scale(0.1 -0.1)">
       <use xlink:href="#DejaVuSans-49"/>
       <use x="63.623047" xlink:href="#DejaVuSans-48"/>
       <use x="127.246094" xlink:href="#DejaVuSans-48"/>
       <use x="190.869141" xlink:href="#DejaVuSans-48"/>
      </g>
     </g>
    </g>
    <g id="xtick_7">
     <g id="line2d_13">
      <path clip-path="url(#pf74264ba4d)" d="M 356.781965 288.430125 
L 356.781965 22.318125 
" style="fill:none;stroke:#b0b0b0;stroke-dasharray:2.96,1.28;stroke-dashoffset:0;stroke-width:0.8;"/>
     </g>
     <g id="line2d_14">
      <g>
       <use style="stroke:#000000;stroke-width:0.8;" x="356.781965" xlink:href="#m3317ae236a" y="288.430125"/>
      </g>
     </g>
     <g id="text_7">
      <!-- 1200 -->
      <g transform="translate(344.056965 303.028562)scale(0.1 -0.1)">
       <use xlink:href="#DejaVuSans-49"/>
       <use x="63.623047" xlink:href="#DejaVuSans-50"/>
       <use x="127.246094" xlink:href="#DejaVuSans-48"/>
       <use x="190.869141" xlink:href="#DejaVuSans-48"/>
      </g>
     </g>
    </g>
    <g id="text_8">
     <!-- Day -->
     <defs>
      <path d="M 19.671875 64.796875 
L 19.671875 8.109375 
L 31.59375 8.109375 
Q 46.6875 8.109375 53.6875 14.9375 
Q 60.6875 21.78125 60.6875 36.53125 
Q 60.6875 51.171875 53.6875 57.984375 
Q 46.6875 64.796875 31.59375 64.796875 
z
M 9.8125 72.90625 
L 30.078125 72.90625 
Q 51.265625 72.90625 61.171875 64.09375 
Q 71.09375 55.28125 71.09375 36.53125 
Q 71.09375 17.671875 61.125 8.828125 
Q 51.171875 0 30.078125 0 
L 9.8125 0 
z
" id="DejaVuSans-68"/>
      <path d="M 34.28125 27.484375 
Q 23.390625 27.484375 19.1875 25 
Q 14.984375 22.515625 14.984375 16.5 
Q 14.984375 11.71875 18.140625 8.90625 
Q 21.296875 6.109375 26.703125 6.109375 
Q 34.1875 6.109375 38.703125 11.40625 
Q 43.21875 16.703125 43.21875 25.484375 
L 43.21875 27.484375 
z
M 52.203125 31.203125 
L 52.203125 0 
L 43.21875 0 
L 43.21875 8.296875 
Q 40.140625 3.328125 35.546875 0.953125 
Q 30.953125 -1.421875 24.3125 -1.421875 
Q 15.921875 -1.421875 10.953125 3.296875 
Q 6 8.015625 6 15.921875 
Q 6 25.140625 12.171875 29.828125 
Q 18.359375 34.515625 30.609375 34.515625 
L 43.21875 34.515625 
L 43.21875 35.40625 
Q 43.21875 41.609375 39.140625 45 
Q 35.0625 48.390625 27.6875 48.390625 
Q 23 48.390625 18.546875 47.265625 
Q 14.109375 46.140625 10.015625 43.890625 
L 10.015625 52.203125 
Q 14.9375 54.109375 19.578125 55.046875 
Q 24.21875 56 28.609375 56 
Q 40.484375 56 46.34375 49.84375 
Q 52.203125 43.703125 52.203125 31.203125 
z
" id="DejaVuSans-97"/>
      <path d="M 32.171875 -5.078125 
Q 28.375 -14.84375 24.75 -17.8125 
Q 21.140625 -20.796875 15.09375 -20.796875 
L 7.90625 -20.796875 
L 7.90625 -13.28125 
L 13.1875 -13.28125 
Q 16.890625 -13.28125 18.9375 -11.515625 
Q 21 -9.765625 23.484375 -3.21875 
L 25.09375 0.875 
L 2.984375 54.6875 
L 12.5 54.6875 
L 29.59375 11.921875 
L 46.6875 54.6875 
L 56.203125 54.6875 
z
" id="DejaVuSans-121"/>
     </defs>
     <g transform="translate(215.652188 316.706687)scale(0.1 -0.1)">
      <use xlink:href="#DejaVuSans-68"/>
      <use x="77.001953" xlink:href="#DejaVuSans-97"/>
      <use x="138.28125" xlink:href="#DejaVuSans-121"/>
     </g>
    </g>
   </g>
   <g id="matplotlib.axis_2">
    <g id="ytick_1">
     <g id="line2d_15">
      <path clip-path="url(#pf74264ba4d)" d="M 46.965625 285.814462 
L 404.085625 285.814462 
" style="fill:none;stroke:#b0b0b0;stroke-dasharray:2.96,1.28;stroke-dashoffset:0;stroke-width:0.8;"/>
     </g>
     <g id="line2d_16">
      <defs>
       <path d="M 0 0 
L -3.5 0 
" id="meabf930700" style="stroke:#000000;stroke-width:0.8;"/>
      </defs>
      <g>
       <use style="stroke:#000000;stroke-width:0.8;" x="46.965625" xlink:href="#meabf930700" y="285.814462"/>
      </g>
     </g>
     <g id="text_9">
      <!-- 0 -->
      <g transform="translate(33.603125 289.613681)scale(0.1 -0.1)">
       <use xlink:href="#DejaVuSans-48"/>
      </g>
     </g>
    </g>
    <g id="ytick_2">
     <g id="line2d_17">
      <path clip-path="url(#pf74264ba4d)" d="M 46.965625 254.804948 
L 404.085625 254.804948 
" style="fill:none;stroke:#b0b0b0;stroke-dasharray:2.96,1.28;stroke-dashoffset:0;stroke-width:0.8;"/>
     </g>
     <g id="line2d_18">
      <g>
       <use style="stroke:#000000;stroke-width:0.8;" x="46.965625" xlink:href="#meabf930700" y="254.804948"/>
      </g>
     </g>
     <g id="text_10">
      <!-- 25 -->
      <defs>
       <path d="M 10.796875 72.90625 
L 49.515625 72.90625 
L 49.515625 64.59375 
L 19.828125 64.59375 
L 19.828125 46.734375 
Q 21.96875 47.46875 24.109375 47.828125 
Q 26.265625 48.1875 28.421875 48.1875 
Q 40.625 48.1875 47.75 41.5 
Q 54.890625 34.8125 54.890625 23.390625 
Q 54.890625 11.625 47.5625 5.09375 
Q 40.234375 -1.421875 26.90625 -1.421875 
Q 22.3125 -1.421875 17.546875 -0.640625 
Q 12.796875 0.140625 7.71875 1.703125 
L 7.71875 11.625 
Q 12.109375 9.234375 16.796875 8.0625 
Q 21.484375 6.890625 26.703125 6.890625 
Q 35.15625 6.890625 40.078125 11.328125 
Q 45.015625 15.765625 45.015625 23.390625 
Q 45.015625 31 40.078125 35.4375 
Q 35.15625 39.890625 26.703125 39.890625 
Q 22.75 39.890625 18.8125 39.015625 
Q 14.890625 38.140625 10.796875 36.28125 
z
" id="DejaVuSans-53"/>
      </defs>
      <g transform="translate(27.240625 258.604166)scale(0.1 -0.1)">
       <use xlink:href="#DejaVuSans-50"/>
       <use x="63.623047" xlink:href="#DejaVuSans-53"/>
      </g>
     </g>
    </g>
    <g id="ytick_3">
     <g id="line2d_19">
      <path clip-path="url(#pf74264ba4d)" d="M 46.965625 223.795433 
L 404.085625 223.795433 
" style="fill:none;stroke:#b0b0b0;stroke-dasharray:2.96,1.28;stroke-dashoffset:0;stroke-width:0.8;"/>
     </g>
     <g id="line2d_20">
      <g>
       <use style="stroke:#000000;stroke-width:0.8;" x="46.965625" xlink:href="#meabf930700" y="223.795433"/>
      </g>
     </g>
     <g id="text_11">
      <!-- 50 -->
      <g transform="translate(27.240625 227.594652)scale(0.1 -0.1)">
       <use xlink:href="#DejaVuSans-53"/>
       <use x="63.623047" xlink:href="#DejaVuSans-48"/>
      </g>
     </g>
    </g>
    <g id="ytick_4">
     <g id="line2d_21">
      <path clip-path="url(#pf74264ba4d)" d="M 46.965625 192.785918 
L 404.085625 192.785918 
" style="fill:none;stroke:#b0b0b0;stroke-dasharray:2.96,1.28;stroke-dashoffset:0;stroke-width:0.8;"/>
     </g>
     <g id="line2d_22">
      <g>
       <use style="stroke:#000000;stroke-width:0.8;" x="46.965625" xlink:href="#meabf930700" y="192.785918"/>
      </g>
     </g>
     <g id="text_12">
      <!-- 75 -->
      <defs>
       <path d="M 8.203125 72.90625 
L 55.078125 72.90625 
L 55.078125 68.703125 
L 28.609375 0 
L 18.3125 0 
L 43.21875 64.59375 
L 8.203125 64.59375 
z
" id="DejaVuSans-55"/>
      </defs>
      <g transform="translate(27.240625 196.585137)scale(0.1 -0.1)">
       <use xlink:href="#DejaVuSans-55"/>
       <use x="63.623047" xlink:href="#DejaVuSans-53"/>
      </g>
     </g>
    </g>
    <g id="ytick_5">
     <g id="line2d_23">
      <path clip-path="url(#pf74264ba4d)" d="M 46.965625 161.776404 
L 404.085625 161.776404 
" style="fill:none;stroke:#b0b0b0;stroke-dasharray:2.96,1.28;stroke-dashoffset:0;stroke-width:0.8;"/>
     </g>
     <g id="line2d_24">
      <g>
       <use style="stroke:#000000;stroke-width:0.8;" x="46.965625" xlink:href="#meabf930700" y="161.776404"/>
      </g>
     </g>
     <g id="text_13">
      <!-- 100 -->
      <g transform="translate(20.878125 165.575622)scale(0.1 -0.1)">
       <use xlink:href="#DejaVuSans-49"/>
       <use x="63.623047" xlink:href="#DejaVuSans-48"/>
       <use x="127.246094" xlink:href="#DejaVuSans-48"/>
      </g>
     </g>
    </g>
    <g id="ytick_6">
     <g id="line2d_25">
      <path clip-path="url(#pf74264ba4d)" d="M 46.965625 130.766889 
L 404.085625 130.766889 
" style="fill:none;stroke:#b0b0b0;stroke-dasharray:2.96,1.28;stroke-dashoffset:0;stroke-width:0.8;"/>
     </g>
     <g id="line2d_26">
      <g>
       <use style="stroke:#000000;stroke-width:0.8;" x="46.965625" xlink:href="#meabf930700" y="130.766889"/>
      </g>
     </g>
     <g id="text_14">
      <!-- 125 -->
      <g transform="translate(20.878125 134.566108)scale(0.1 -0.1)">
       <use xlink:href="#DejaVuSans-49"/>
       <use x="63.623047" xlink:href="#DejaVuSans-50"/>
       <use x="127.246094" xlink:href="#DejaVuSans-53"/>
      </g>
     </g>
    </g>
    <g id="ytick_7">
     <g id="line2d_27">
      <path clip-path="url(#pf74264ba4d)" d="M 46.965625 99.757374 
L 404.085625 99.757374 
" style="fill:none;stroke:#b0b0b0;stroke-dasharray:2.96,1.28;stroke-dashoffset:0;stroke-width:0.8;"/>
     </g>
     <g id="line2d_28">
      <g>
       <use style="stroke:#000000;stroke-width:0.8;" x="46.965625" xlink:href="#meabf930700" y="99.757374"/>
      </g>
     </g>
     <g id="text_15">
      <!-- 150 -->
      <g transform="translate(20.878125 103.556593)scale(0.1 -0.1)">
       <use xlink:href="#DejaVuSans-49"/>
       <use x="63.623047" xlink:href="#DejaVuSans-53"/>
       <use x="127.246094" xlink:href="#DejaVuSans-48"/>
      </g>
     </g>
    </g>
    <g id="ytick_8">
     <g id="line2d_29">
      <path clip-path="url(#pf74264ba4d)" d="M 46.965625 68.74786 
L 404.085625 68.74786 
" style="fill:none;stroke:#b0b0b0;stroke-dasharray:2.96,1.28;stroke-dashoffset:0;stroke-width:0.8;"/>
     </g>
     <g id="line2d_30">
      <g>
       <use style="stroke:#000000;stroke-width:0.8;" x="46.965625" xlink:href="#meabf930700" y="68.74786"/>
      </g>
     </g>
     <g id="text_16">
      <!-- 175 -->
      <g transform="translate(20.878125 72.547078)scale(0.1 -0.1)">
       <use xlink:href="#DejaVuSans-49"/>
       <use x="63.623047" xlink:href="#DejaVuSans-55"/>
       <use x="127.246094" xlink:href="#DejaVuSans-53"/>
      </g>
     </g>
    </g>
    <g id="ytick_9">
     <g id="line2d_31">
      <path clip-path="url(#pf74264ba4d)" d="M 46.965625 37.738345 
L 404.085625 37.738345 
" style="fill:none;stroke:#b0b0b0;stroke-dasharray:2.96,1.28;stroke-dashoffset:0;stroke-width:0.8;"/>
     </g>
     <g id="line2d_32">
      <g>
       <use style="stroke:#000000;stroke-width:0.8;" x="46.965625" xlink:href="#meabf930700" y="37.738345"/>
      </g>
     </g>
     <g id="text_17">
      <!-- 200 -->
      <g transform="translate(20.878125 41.537564)scale(0.1 -0.1)">
       <use xlink:href="#DejaVuSans-50"/>
       <use x="63.623047" xlink:href="#DejaVuSans-48"/>
       <use x="127.246094" xlink:href="#DejaVuSans-48"/>
      </g>
     </g>
    </g>
    <g id="text_18">
     <!-- Price $ -->
     <defs>
      <path d="M 19.671875 64.796875 
L 19.671875 37.40625 
L 32.078125 37.40625 
Q 38.96875 37.40625 42.71875 40.96875 
Q 46.484375 44.53125 46.484375 51.125 
Q 46.484375 57.671875 42.71875 61.234375 
Q 38.96875 64.796875 32.078125 64.796875 
z
M 9.8125 72.90625 
L 32.078125 72.90625 
Q 44.34375 72.90625 50.609375 67.359375 
Q 56.890625 61.8125 56.890625 51.125 
Q 56.890625 40.328125 50.609375 34.8125 
Q 44.34375 29.296875 32.078125 29.296875 
L 19.671875 29.296875 
L 19.671875 0 
L 9.8125 0 
z
" id="DejaVuSans-80"/>
      <path d="M 41.109375 46.296875 
Q 39.59375 47.171875 37.8125 47.578125 
Q 36.03125 48 33.890625 48 
Q 26.265625 48 22.1875 43.046875 
Q 18.109375 38.09375 18.109375 28.8125 
L 18.109375 0 
L 9.078125 0 
L 9.078125 54.6875 
L 18.109375 54.6875 
L 18.109375 46.1875 
Q 20.953125 51.171875 25.484375 53.578125 
Q 30.03125 56 36.53125 56 
Q 37.453125 56 38.578125 55.875 
Q 39.703125 55.765625 41.0625 55.515625 
z
" id="DejaVuSans-114"/>
      <path d="M 9.421875 54.6875 
L 18.40625 54.6875 
L 18.40625 0 
L 9.421875 0 
z
M 9.421875 75.984375 
L 18.40625 75.984375 
L 18.40625 64.59375 
L 9.421875 64.59375 
z
" id="DejaVuSans-105"/>
      <path d="M 48.78125 52.59375 
L 48.78125 44.1875 
Q 44.96875 46.296875 41.140625 47.34375 
Q 37.3125 48.390625 33.40625 48.390625 
Q 24.65625 48.390625 19.8125 42.84375 
Q 14.984375 37.3125 14.984375 27.296875 
Q 14.984375 17.28125 19.8125 11.734375 
Q 24.65625 6.203125 33.40625 6.203125 
Q 37.3125 6.203125 41.140625 7.25 
Q 44.96875 8.296875 48.78125 10.40625 
L 48.78125 2.09375 
Q 45.015625 0.34375 40.984375 -0.53125 
Q 36.96875 -1.421875 32.421875 -1.421875 
Q 20.0625 -1.421875 12.78125 6.34375 
Q 5.515625 14.109375 5.515625 27.296875 
Q 5.515625 40.671875 12.859375 48.328125 
Q 20.21875 56 33.015625 56 
Q 37.15625 56 41.109375 55.140625 
Q 45.0625 54.296875 48.78125 52.59375 
z
" id="DejaVuSans-99"/>
      <path d="M 56.203125 29.59375 
L 56.203125 25.203125 
L 14.890625 25.203125 
Q 15.484375 15.921875 20.484375 11.0625 
Q 25.484375 6.203125 34.421875 6.203125 
Q 39.59375 6.203125 44.453125 7.46875 
Q 49.3125 8.734375 54.109375 11.28125 
L 54.109375 2.78125 
Q 49.265625 0.734375 44.1875 -0.34375 
Q 39.109375 -1.421875 33.890625 -1.421875 
Q 20.796875 -1.421875 13.15625 6.1875 
Q 5.515625 13.8125 5.515625 26.8125 
Q 5.515625 40.234375 12.765625 48.109375 
Q 20.015625 56 32.328125 56 
Q 43.359375 56 49.78125 48.890625 
Q 56.203125 41.796875 56.203125 29.59375 
z
M 47.21875 32.234375 
Q 47.125 39.59375 43.09375 43.984375 
Q 39.0625 48.390625 32.421875 48.390625 
Q 24.90625 48.390625 20.390625 44.140625 
Q 15.875 39.890625 15.1875 32.171875 
z
" id="DejaVuSans-101"/>
      <path id="DejaVuSans-32"/>
      <path d="M 33.796875 -14.703125 
L 28.90625 -14.703125 
L 28.859375 0 
Q 23.734375 0.09375 18.609375 1.1875 
Q 13.484375 2.296875 8.296875 4.5 
L 8.296875 13.28125 
Q 13.28125 10.15625 18.375 8.5625 
Q 23.484375 6.984375 28.90625 6.9375 
L 28.90625 29.203125 
Q 18.109375 30.953125 13.203125 35.15625 
Q 8.296875 39.359375 8.296875 46.6875 
Q 8.296875 54.640625 13.625 59.21875 
Q 18.953125 63.8125 28.90625 64.5 
L 28.90625 75.984375 
L 33.796875 75.984375 
L 33.796875 64.65625 
Q 38.328125 64.453125 42.578125 63.6875 
Q 46.828125 62.9375 50.875 61.625 
L 50.875 53.078125 
Q 46.828125 55.125 42.546875 56.25 
Q 38.28125 57.375 33.796875 57.5625 
L 33.796875 36.71875 
Q 44.875 35.015625 50.09375 30.609375 
Q 55.328125 26.21875 55.328125 18.609375 
Q 55.328125 10.359375 49.78125 5.59375 
Q 44.234375 0.828125 33.796875 0.09375 
z
M 28.90625 37.59375 
L 28.90625 57.625 
Q 23.25 56.984375 20.265625 54.390625 
Q 17.28125 51.8125 17.28125 47.515625 
Q 17.28125 43.3125 20.03125 40.96875 
Q 22.796875 38.625 28.90625 37.59375 
z
M 33.796875 28.21875 
L 33.796875 7.078125 
Q 39.984375 7.90625 43.140625 10.59375 
Q 46.296875 13.28125 46.296875 17.671875 
Q 46.296875 21.96875 43.28125 24.5 
Q 40.28125 27.046875 33.796875 28.21875 
z
" id="DejaVuSans-36"/>
     </defs>
     <g transform="translate(14.798438 172.342094)rotate(-90)scale(0.1 -0.1)">
      <use xlink:href="#DejaVuSans-80"/>
      <use x="58.552734" xlink:href="#DejaVuSans-114"/>
      <use x="99.666016" xlink:href="#DejaVuSans-105"/>
      <use x="127.449219" xlink:href="#DejaVuSans-99"/>
      <use x="182.429688" xlink:href="#DejaVuSans-101"/>
      <use x="243.953125" xlink:href="#DejaVuSans-32"/>
      <use x="275.740234" xlink:href="#DejaVuSans-36"/>
     </g>
    </g>
   </g>
   <g id="line2d_33">
    <path clip-path="url(#pf74264ba4d)" d="M 63.198352 272.67999 
L 63.443005 275.178482 
L 63.687658 276.161958 
L 63.932311 276.334125 
L 64.421617 275.880234 
L 64.66627 275.338841 
L 64.910923 275.170677 
L 65.400229 275.307441 
L 65.644882 275.032036 
L 65.889535 275.026904 
L 66.623494 274.285844 
L 66.868147 274.391275 
L 67.1128 274.332825 
L 67.357453 274.11768 
L 67.602106 274.146864 
L 68.336066 274.681735 
L 68.825372 274.482259 
L 69.070025 274.94338 
L 69.314678 275.082613 
L 69.559331 275.677793 
L 69.803984 275.867059 
L 70.048637 275.614655 
L 70.29329 275.580006 
L 70.537943 275.680169 
L 70.782596 275.502612 
L 71.027249 275.490403 
L 71.271902 275.358225 
L 71.516555 274.962956 
L 71.761208 275.465253 
L 72.005861 275.675117 
L 72.250514 275.541038 
L 72.495167 275.253307 
L 72.73982 275.371411 
L 72.984473 275.614778 
L 73.229126 276.054216 
L 73.718432 275.800126 
L 73.963085 275.971651 
L 74.452391 275.662005 
L 74.941697 273.981836 
L 75.18635 273.935509 
L 75.431003 272.831981 
L 75.675656 273.980325 
L 75.920309 274.093889 
L 76.164962 273.971364 
L 76.409615 274.202401 
L 76.654268 274.164292 
L 76.898921 273.939963 
L 77.143574 273.544519 
L 77.388227 273.732569 
L 77.63288 274.14472 
L 77.877533 273.699041 
L 78.122186 273.617444 
L 78.366839 274.887696 
L 78.611492 274.786285 
L 79.100798 271.825237 
L 79.590104 272.124827 
L 79.834757 271.933931 
L 80.07941 272.169244 
L 80.324063 271.968466 
L 80.568716 272.219864 
L 80.813369 271.906784 
L 81.058022 271.836213 
L 81.302675 271.631645 
L 81.547328 271.594139 
L 81.791981 271.322639 
L 82.036634 271.412346 
L 82.281287 271.344449 
L 82.770593 270.999865 
L 83.015246 270.85709 
L 83.259899 271.213049 
L 83.504552 270.950204 
L 84.238511 271.279637 
L 84.483164 272.196248 
L 84.727817 270.538041 
L 84.97247 270.940385 
L 85.217123 270.542335 
L 85.951082 270.499509 
L 86.195735 269.712954 
L 86.440388 269.348433 
L 87.419 268.844066 
L 87.663653 268.968981 
L 87.908306 269.521166 
L 88.152959 269.541161 
L 88.397612 269.38155 
L 88.886918 269.705993 
L 89.131571 268.758875 
L 89.376224 269.309695 
L 89.620877 268.576911 
L 89.86553 268.448196 
L 90.110183 267.968029 
L 90.599489 268.673239 
L 91.088796 267.031472 
L 91.822755 268.331688 
L 92.067408 268.344448 
L 92.312061 268.089166 
L 92.556714 268.347926 
L 92.801367 267.242998 
L 93.290673 255.452052 
L 93.535326 256.725152 
L 93.779979 255.602256 
L 94.513938 256.351002 
L 94.758591 254.432647 
L 95.003244 254.77021 
L 95.247897 252.940083 
L 95.49255 253.373599 
L 95.737203 253.313921 
L 95.981856 254.257282 
L 96.226509 254.157179 
L 96.471162 252.471349 
L 96.715815 252.095079 
L 96.960468 252.036477 
L 97.205121 250.800565 
L 97.449774 252.350892 
L 97.694427 252.365925 
L 97.93908 253.629786 
L 98.183733 253.776461 
L 98.428386 252.864 
L 98.673039 252.88515 
L 98.917692 252.242754 
L 99.162345 252.131711 
L 99.406998 253.439762 
L 99.896304 253.257488 
L 100.140957 253.513392 
L 100.38561 252.988923 
L 100.630263 253.638301 
L 100.874916 253.184372 
L 101.119569 251.672952 
L 101.608875 252.908106 
L 101.853528 252.772577 
L 102.098181 253.456678 
L 102.342834 252.905407 
L 102.587487 253.209975 
L 103.076793 253.425307 
L 103.321446 251.627785 
L 103.810752 252.105141 
L 104.544711 255.466493 
L 105.034017 256.308173 
L 105.27867 256.523928 
L 105.523323 255.377648 
L 105.767976 255.892528 
L 106.012629 254.708135 
L 106.257282 254.729875 
L 106.501935 254.12422 
L 106.746588 254.444692 
L 107.235894 256.516632 
L 107.480547 256.679806 
L 107.7252 254.689085 
L 107.969853 247.12643 
L 108.214506 247.182108 
L 108.459159 247.700104 
L 108.703812 247.413454 
L 108.948465 247.460823 
L 109.193118 247.331513 
L 109.437771 247.75522 
L 109.682424 247.653277 
L 109.927077 247.797295 
L 110.416383 249.084576 
L 110.661036 248.681143 
L 110.905689 247.31376 
L 111.150342 247.020985 
L 111.394995 245.051368 
L 111.639648 244.268119 
L 111.884301 242.423343 
L 112.128954 243.509565 
L 112.373607 243.200956 
L 112.61826 243.195865 
L 112.862913 243.518262 
L 113.107566 244.974762 
L 113.35222 245.502254 
L 113.596873 245.090674 
L 113.841526 247.537282 
L 114.086179 247.368754 
L 114.330832 246.164329 
L 114.575485 245.606616 
L 114.820138 246.288649 
L 115.064791 245.840919 
L 115.309444 246.048431 
L 115.554097 247.118079 
L 116.043403 246.48698 
L 116.532709 248.849063 
L 116.777362 247.49936 
L 117.022015 247.663717 
L 117.266668 245.175319 
L 117.511321 245.163054 
L 117.755974 244.576298 
L 118.24528 247.249324 
L 118.489933 247.497029 
L 118.734586 247.930035 
L 118.979239 247.945415 
L 119.223892 247.380003 
L 119.468545 247.734548 
L 119.713198 245.131806 
L 119.957851 246.189906 
L 120.202504 246.33792 
L 120.447157 245.474172 
L 120.69181 243.974377 
L 120.936463 241.492783 
L 121.181116 242.018325 
L 121.425769 241.790306 
L 121.670422 239.599071 
L 121.915075 239.605199 
L 122.159728 239.029179 
L 122.404381 237.81813 
L 122.893687 238.55365 
L 123.13834 239.063777 
L 123.627646 242.700941 
L 123.872299 241.729665 
L 124.116952 241.803503 
L 124.606258 242.246846 
L 124.850911 242.008195 
L 125.095564 241.426733 
L 125.340217 241.923768 
L 125.58487 240.660249 
L 125.829523 240.251655 
L 126.074176 241.436736 
L 126.563482 240.7812 
L 127.297441 239.272004 
L 127.542094 240.730349 
L 127.786747 239.881543 
L 128.0314 239.631862 
L 128.276053 237.174295 
L 128.520706 237.872748 
L 128.765359 237.897428 
L 129.010012 236.289382 
L 129.254665 235.658162 
L 129.499318 236.822126 
L 129.988624 234.605052 
L 130.233277 235.32192 
L 130.722583 233.596254 
L 130.967236 233.252734 
L 131.211889 233.449799 
L 131.456542 233.382207 
L 131.701195 229.905858 
L 131.945848 230.768372 
L 132.190501 232.106339 
L 132.435154 231.090859 
L 132.92446 232.469561 
L 133.169113 231.09068 
L 133.413766 231.238677 
L 133.658419 229.666383 
L 133.903072 231.799698 
L 134.147725 231.034226 
L 134.392378 230.898952 
L 134.637031 229.729069 
L 134.881684 229.925457 
L 135.126337 230.533137 
L 135.37099 227.863435 
L 135.615643 226.810145 
L 135.860297 228.447693 
L 136.10495 227.573748 
L 136.349603 229.050083 
L 136.838909 234.327217 
L 137.083562 231.686658 
L 137.328215 232.101957 
L 137.572868 228.048103 
L 137.817521 228.474275 
L 138.062174 228.191056 
L 138.55148 226.282511 
L 138.796133 222.361522 
L 139.040786 228.250557 
L 139.285439 226.849101 
L 139.530092 226.791829 
L 139.774745 227.462416 
L 140.019398 229.966755 
L 140.264051 227.454452 
L 140.508704 229.200285 
L 140.99801 227.276087 
L 141.242663 225.671864 
L 141.487316 225.076553 
L 141.731969 226.000096 
L 141.976622 227.578366 
L 142.221275 226.203946 
L 142.465928 225.596035 
L 142.710581 226.38586 
L 142.955234 226.235024 
L 143.44454 223.657987 
L 143.689193 225.103628 
L 143.933846 225.804441 
L 144.178499 225.362659 
L 144.423152 223.776956 
L 144.667805 223.844808 
L 144.912458 223.341694 
L 145.646417 220.137038 
L 145.89107 221.129318 
L 146.135723 221.3989 
L 146.380376 222.414484 
L 146.625029 221.903704 
L 146.869682 222.494856 
L 147.114335 222.268549 
L 147.358988 221.056483 
L 147.603641 220.893888 
L 147.848294 219.199655 
L 148.092947 220.026577 
L 148.3376 220.432569 
L 148.582253 219.067135 
L 148.826906 218.73957 
L 149.316212 218.831242 
L 149.560865 217.98659 
L 150.050171 218.611905 
L 150.294824 220.306493 
L 150.539477 220.459071 
L 150.78413 220.139778 
L 151.028783 221.192202 
L 151.273436 221.117782 
L 151.518089 221.711976 
L 151.762742 225.18595 
L 152.007395 224.812005 
L 152.496701 226.37219 
L 152.986007 225.477828 
L 153.23066 226.751808 
L 153.475313 226.694252 
L 153.719966 226.834854 
L 153.964619 227.170372 
L 154.209272 226.308597 
L 154.453925 216.724411 
L 154.698578 217.07474 
L 154.943231 217.949991 
L 155.187884 213.500441 
L 155.432537 214.708158 
L 155.921843 213.142849 
L 156.166496 213.880408 
L 156.411149 213.878019 
L 156.655802 214.071521 
L 156.900455 213.486402 
L 157.145108 209.374102 
L 157.389761 209.484899 
L 157.634414 208.797187 
L 157.879067 209.584955 
L 158.12372 208.213724 
L 158.368374 208.290146 
L 158.613027 207.579807 
L 158.85768 209.531752 
L 159.102333 208.665855 
L 159.346986 208.879041 
L 159.591639 206.186196 
L 159.836292 205.077489 
L 160.080945 205.717211 
L 160.325598 205.288304 
L 160.570251 206.509483 
L 160.814904 206.48874 
L 161.059557 204.777955 
L 161.30421 205.044992 
L 161.793516 206.013594 
L 162.038169 207.516195 
L 162.282822 207.902266 
L 162.527475 207.987933 
L 163.016781 210.31068 
L 163.506087 211.144231 
L 163.995393 210.33316 
L 164.240046 213.499759 
L 164.484699 218.262826 
L 164.729352 219.5631 
L 164.974005 219.521026 
L 165.707964 222.870414 
L 165.952617 221.004269 
L 166.19727 221.484 
L 166.441923 222.652071 
L 166.686576 225.583647 
L 166.931229 225.535001 
L 167.175882 223.71173 
L 167.420535 222.853001 
L 167.665188 226.077009 
L 167.909841 227.493725 
L 168.154494 226.482131 
L 168.399147 227.487508 
L 168.6438 226.592265 
L 168.888453 224.091702 
L 169.133106 223.1536 
L 169.377759 219.254457 
L 169.622412 222.750447 
L 169.867065 224.401423 
L 170.111718 228.211719 
L 170.356371 229.972816 
L 170.601024 228.789244 
L 170.845677 228.30711 
L 171.09033 225.870623 
L 171.579636 224.508255 
L 171.824289 227.594486 
L 172.068942 228.465299 
L 172.313595 228.184115 
L 172.558248 227.016517 
L 172.802901 224.100967 
L 173.047554 223.870473 
L 173.292207 222.977548 
L 173.53686 224.54255 
L 173.781513 223.640773 
L 174.026166 220.838201 
L 174.270819 219.536063 
L 174.515472 216.259278 
L 174.760125 216.154329 
L 175.004778 214.049315 
L 175.249431 214.655774 
L 175.494084 214.409609 
L 175.738737 211.803756 
L 175.98339 211.439729 
L 176.228043 210.770628 
L 176.472696 211.549518 
L 176.962002 209.65963 
L 177.206655 209.270653 
L 177.451308 210.506595 
L 177.695961 209.525478 
L 177.940614 209.200269 
L 178.185267 210.68392 
L 178.42992 209.695179 
L 178.674573 209.260144 
L 178.919226 206.650998 
L 179.163879 206.306021 
L 179.408532 207.237669 
L 180.142491 208.155094 
L 180.387144 207.08265 
L 180.631798 207.773371 
L 180.876451 207.491486 
L 181.121104 207.571172 
L 181.365757 202.155802 
L 181.61041 203.222615 
L 181.855063 202.377698 
L 182.344369 206.749649 
L 182.589022 207.091763 
L 182.833675 207.875717 
L 183.078328 207.850786 
L 183.322981 205.707881 
L 184.05694 207.342519 
L 184.301593 206.813546 
L 184.546246 205.443181 
L 184.790899 209.115624 
L 185.035552 209.522653 
L 185.280205 209.462674 
L 185.524858 210.558549 
L 185.769511 210.014042 
L 186.014164 209.826436 
L 186.258817 208.119025 
L 186.50347 210.336903 
L 186.748123 209.588844 
L 186.992776 210.359322 
L 187.237429 210.30116 
L 187.482082 208.940093 
L 187.726735 205.50932 
L 187.971388 206.236182 
L 188.216041 205.170059 
L 188.460694 205.998841 
L 188.705347 205.222912 
L 188.95 205.206673 
L 189.439306 202.542105 
L 189.683959 202.427106 
L 189.928612 201.569178 
L 190.173265 201.500502 
L 190.417918 200.236955 
L 190.662571 200.029585 
L 190.907224 200.292553 
L 191.151877 200.999692 
L 191.39653 201.03571 
L 191.641183 200.704331 
L 191.885836 200.86006 
L 192.130489 200.586759 
L 192.375142 201.505224 
L 192.864448 200.430604 
L 193.109101 200.646917 
L 193.353754 199.540131 
L 193.84306 201.131242 
L 194.087713 204.513255 
L 194.332366 204.541352 
L 194.577019 204.865727 
L 194.821672 204.240985 
L 195.066325 204.609573 
L 195.310978 207.250909 
L 195.555631 206.95199 
L 195.800284 205.864632 
L 196.044937 207.007625 
L 196.28959 206.035152 
L 196.534243 205.926768 
L 196.778896 205.69291 
L 197.023549 207.811092 
L 197.757508 203.149709 
L 198.002161 204.624866 
L 198.246814 202.997302 
L 198.491467 203.635387 
L 198.73612 205.232271 
L 198.980773 207.718043 
L 199.225426 205.850815 
L 199.470079 205.793817 
L 199.714732 221.035314 
L 199.959385 221.825589 
L 200.204038 221.39379 
L 200.693344 218.747165 
L 200.937997 217.21978 
L 201.18265 216.992517 
L 201.427303 218.00396 
L 201.671956 216.928573 
L 201.916609 218.128668 
L 202.161262 218.22086 
L 202.405915 215.737005 
L 203.139875 218.056927 
L 203.384528 217.445518 
L 203.629181 217.389448 
L 203.873834 216.997599 
L 204.118487 217.785726 
L 204.36314 217.470923 
L 204.607793 217.815559 
L 204.852446 217.045271 
L 205.097099 217.991805 
L 205.341752 217.980586 
L 205.586405 221.150885 
L 205.831058 220.065074 
L 206.320364 222.216364 
L 206.565017 223.40754 
L 206.80967 223.098074 
L 207.298976 224.871544 
L 207.543629 222.945349 
L 207.788282 222.704507 
L 208.032935 223.53274 
L 208.277588 223.433143 
L 208.522241 225.452807 
L 208.766894 224.753162 
L 209.011547 226.371589 
L 209.500853 226.318155 
L 209.745506 227.568514 
L 209.990159 229.564402 
L 210.234812 226.570102 
L 210.479465 226.259576 
L 210.724118 225.207928 
L 210.968771 225.829424 
L 211.213424 225.949812 
L 211.458077 224.955399 
L 211.70273 225.205274 
L 211.947383 224.826995 
L 212.192036 224.749055 
L 212.436689 225.013475 
L 212.681342 223.661219 
L 212.925995 226.658197 
L 213.170648 227.849453 
L 213.415301 227.391251 
L 213.659954 226.142363 
L 213.904607 227.001943 
L 214.14926 228.791014 
L 214.393913 227.966127 
L 214.638566 227.824153 
L 214.883219 227.946433 
L 215.372525 223.428548 
L 215.617178 212.603774 
L 215.861831 209.356869 
L 216.59579 204.921533 
L 216.840443 207.123357 
L 217.085096 206.83727 
L 217.329749 207.391813 
L 217.574402 207.356733 
L 217.819055 204.612734 
L 218.063708 206.102606 
L 218.308361 206.033751 
L 218.553014 206.824329 
L 218.797667 206.97518 
L 219.04232 205.022119 
L 219.531626 204.524185 
L 219.776279 202.773645 
L 220.265585 201.181985 
L 220.510238 201.148532 
L 220.754891 200.459543 
L 220.999544 201.661805 
L 221.48885 200.612632 
L 221.733503 199.85422 
L 221.978156 201.405992 
L 222.222809 200.608676 
L 222.712115 202.357655 
L 222.956768 202.714906 
L 223.446074 206.575168 
L 223.690727 208.505233 
L 224.180033 206.15244 
L 224.424686 207.853956 
L 224.669339 210.870953 
L 224.913992 211.68756 
L 225.158645 210.513329 
L 225.403298 210.273414 
L 225.647952 209.744209 
L 225.892605 210.24332 
L 226.137258 207.880444 
L 226.381911 210.611733 
L 226.626564 210.988488 
L 226.871217 211.828394 
L 227.11587 210.568713 
L 227.605176 212.264408 
L 227.849829 212.239761 
L 228.094482 210.84897 
L 228.339135 210.551911 
L 228.583788 207.36259 
L 228.828441 207.665645 
L 229.5624 200.740737 
L 229.807053 201.363123 
L 230.051706 186.03357 
L 230.296359 184.587513 
L 230.541012 185.211782 
L 230.785665 186.271781 
L 231.030318 186.795834 
L 231.274971 186.512709 
L 231.519624 186.684261 
L 231.764277 185.431616 
L 232.00893 185.948305 
L 232.253583 186.063219 
L 232.498236 187.114786 
L 232.742889 187.107036 
L 232.987542 187.508736 
L 233.232195 185.674966 
L 233.476848 186.646265 
L 233.721501 185.915477 
L 233.966154 184.190118 
L 234.210807 181.423696 
L 234.700113 182.948082 
L 234.944766 181.68232 
L 235.189419 177.024524 
L 235.434072 176.206739 
L 235.678725 176.550372 
L 235.923378 175.595388 
L 236.168031 175.293317 
L 236.412684 175.515394 
L 236.657337 176.779442 
L 236.90199 173.886155 
L 237.391296 175.25801 
L 237.635949 175.256354 
L 237.880602 174.92543 
L 238.125255 175.392219 
L 238.369908 174.744329 
L 238.614561 173.29073 
L 238.859214 174.332636 
L 239.34852 166.536905 
L 240.082479 169.227233 
L 240.327132 167.347565 
L 240.571785 168.547858 
L 240.816438 168.040481 
L 241.061091 169.003301 
L 241.305744 165.977375 
L 241.550397 164.891503 
L 241.79505 165.329306 
L 242.284356 169.933132 
L 242.529009 170.926614 
L 242.773662 168.970653 
L 243.018315 169.307586 
L 243.507621 168.178362 
L 243.996927 169.401547 
L 244.24158 166.414838 
L 244.486233 164.805878 
L 244.730886 160.249388 
L 244.975539 161.013326 
L 245.220192 163.836528 
L 245.464845 141.810925 
L 245.709498 142.973119 
L 245.954151 148.397437 
L 246.198804 146.172802 
L 246.443457 147.314773 
L 246.68811 149.197989 
L 246.932763 150.138987 
L 247.177416 153.540485 
L 247.422069 152.911419 
L 247.666722 152.620496 
L 248.156029 143.929864 
L 248.400682 146.196961 
L 248.645335 135.416196 
L 249.134641 128.835523 
L 249.379294 132.093414 
L 249.623947 132.816945 
L 249.8686 133.114605 
L 250.113253 135.963216 
L 250.357906 132.194909 
L 250.602559 132.551109 
L 250.847212 130.328177 
L 251.091865 131.782534 
L 251.336518 134.23429 
L 252.070477 164.196155 
L 252.31513 158.83102 
L 252.804436 140.00949 
L 253.049089 140.291555 
L 253.293742 142.858063 
L 253.538395 153.589903 
L 253.783048 154.520075 
L 254.272354 162.970546 
L 254.517007 167.418578 
L 254.76166 162.605213 
L 255.006313 162.099492 
L 255.495619 167.005436 
L 255.984925 156.311336 
L 256.229578 156.135952 
L 256.963537 163.22565 
L 257.20819 163.802224 
L 257.452843 156.820928 
L 257.697496 158.641763 
L 257.942149 162.194485 
L 258.186802 163.415693 
L 258.431455 157.398562 
L 258.676108 154.133753 
L 258.920761 154.070641 
L 259.165414 147.671674 
L 259.410067 151.059592 
L 259.65472 151.542696 
L 259.899373 142.964659 
L 260.144026 144.983504 
L 260.388679 144.94919 
L 260.633332 149.189614 
L 260.877985 148.771542 
L 261.122638 159.640468 
L 261.367291 162.444885 
L 261.611944 158.780883 
L 261.856597 162.523488 
L 262.10125 163.951612 
L 262.345903 164.430921 
L 262.835209 157.46102 
L 263.079862 157.580769 
L 263.324515 154.071493 
L 263.569168 154.678208 
L 263.813821 150.965933 
L 264.058474 151.674208 
L 264.303127 149.308124 
L 264.54778 143.956153 
L 264.792433 144.784603 
L 265.037086 144.4161 
L 265.281739 149.410177 
L 265.526392 146.164076 
L 265.771045 145.861476 
L 266.260351 156.940346 
L 266.749657 140.416632 
L 266.99431 136.269024 
L 267.238963 136.66745 
L 267.483616 131.813441 
L 267.728269 130.178628 
L 267.972922 132.360764 
L 268.217575 131.452064 
L 268.462228 129.862789 
L 268.706881 132.488926 
L 268.951534 130.033631 
L 269.196187 125.473676 
L 269.44084 128.29772 
L 269.685493 123.340239 
L 269.930146 129.884886 
L 270.174799 128.2293 
L 270.908759 137.820683 
L 271.153412 135.670884 
L 271.398065 138.123879 
L 271.642718 133.216658 
L 271.887371 133.440286 
L 272.132024 138.819218 
L 272.376677 140.509524 
L 272.62133 141.058086 
L 272.865983 139.075334 
L 273.110636 139.980457 
L 273.355289 140.356947 
L 273.599942 137.611836 
L 274.089248 143.530085 
L 274.578554 151.943318 
L 274.823207 139.639445 
L 275.312513 147.610096 
L 275.557166 143.010499 
L 275.801819 140.921209 
L 276.046472 153.023427 
L 276.291125 152.883199 
L 276.535778 156.159951 
L 276.780431 151.842883 
L 277.025084 151.823776 
L 277.269737 158.606947 
L 278.003696 164.016881 
L 278.248349 172.253641 
L 278.493002 168.394713 
L 278.737655 171.279077 
L 278.982308 168.921188 
L 279.226961 171.775486 
L 279.716267 173.911091 
L 279.96092 182.29846 
L 280.205573 182.192603 
L 280.694879 175.763069 
L 280.939532 178.406117 
L 281.184185 177.147557 
L 281.428838 174.875094 
L 281.673491 167.756381 
L 281.918144 172.895777 
L 282.162797 174.974147 
L 282.40745 171.563072 
L 282.652103 174.944195 
L 283.141409 168.272465 
L 283.386062 167.846179 
L 283.630715 167.757621 
L 283.875368 169.472731 
L 284.120021 163.591295 
L 284.364674 164.364375 
L 284.609327 163.984932 
L 284.85398 159.371737 
L 285.098633 166.451319 
L 285.343286 166.253866 
L 285.587939 163.729876 
L 285.832592 164.562481 
L 286.077245 164.213889 
L 286.321898 163.5011 
L 286.566551 163.894785 
L 286.811204 162.109769 
L 287.055857 161.545384 
L 287.30051 159.864986 
L 287.545163 160.158558 
L 287.789816 161.543577 
L 288.034469 161.886642 
L 288.279122 163.392299 
L 288.768428 156.467747 
L 289.013081 158.765515 
L 289.257734 158.882671 
L 289.502387 154.483187 
L 289.74704 156.147753 
L 289.991693 155.486936 
L 290.236346 155.521818 
L 290.725652 156.862018 
L 290.970305 158.321286 
L 291.459611 149.63389 
L 291.704264 148.696205 
L 291.948917 147.286421 
L 292.19357 151.111886 
L 292.438223 167.855784 
L 292.682876 165.517314 
L 292.92753 167.173827 
L 293.172183 166.556002 
L 293.416836 169.357742 
L 294.150795 173.302786 
L 294.395448 173.67868 
L 294.640101 169.788769 
L 295.37406 174.347058 
L 295.618713 172.59824 
L 295.863366 172.924356 
L 296.108019 170.275933 
L 296.597325 176.540445 
L 296.841978 176.488908 
L 297.086631 174.86864 
L 297.331284 175.631566 
L 297.575937 173.35756 
L 297.82059 174.316207 
L 299.043855 157.808618 
L 299.288508 157.144149 
L 300.022467 159.731591 
L 300.26712 161.976601 
L 300.511773 160.533875 
L 300.756426 161.485178 
L 301.001079 164.029448 
L 301.245732 164.824578 
L 301.490385 168.855739 
L 301.735038 168.877704 
L 302.224344 168.308606 
L 302.468997 167.093578 
L 302.958303 169.048574 
L 303.202956 172.452305 
L 303.447609 173.595185 
L 303.692262 171.742951 
L 304.181568 179.656093 
L 304.670874 172.457633 
L 304.915527 172.055384 
L 305.16018 165.750321 
L 305.404833 163.970302 
L 305.649486 167.987316 
L 305.894139 167.789371 
L 306.138792 165.295881 
L 306.383445 168.169353 
L 306.628098 166.600717 
L 306.872751 165.989479 
L 307.117404 164.068286 
L 307.60671 162.940396 
L 307.851363 178.552543 
L 308.096016 176.558341 
L 308.340669 178.372456 
L 308.585322 178.790622 
L 308.829975 176.539442 
L 309.074628 172.144983 
L 309.319281 171.413172 
L 309.808587 172.027618 
L 310.05324 168.189708 
L 310.542546 169.941971 
L 310.787199 169.43343 
L 311.031852 164.98871 
L 311.521158 169.204407 
L 311.765811 169.154904 
L 312.010464 166.70612 
L 312.255117 165.828678 
L 312.49977 167.382475 
L 312.744423 167.68323 
L 312.989076 166.062791 
L 313.233729 166.243087 
L 313.478382 166.622653 
L 313.723035 167.326499 
L 313.967688 166.411932 
L 314.212341 167.284472 
L 314.456994 164.757445 
L 314.701647 164.371955 
L 314.9463 164.790661 
L 315.190953 164.548986 
L 315.435607 164.483727 
L 315.924913 164.567913 
L 316.169566 161.246655 
L 316.414219 162.375245 
L 316.658872 161.881002 
L 316.903525 165.568397 
L 317.148178 162.655596 
L 317.392831 166.161967 
L 317.637484 165.127907 
L 317.882137 164.588477 
L 318.12679 162.177063 
L 318.371443 163.82063 
L 318.616096 163.633549 
L 318.860749 167.602564 
L 319.105402 166.508534 
L 319.350055 166.462646 
L 319.594708 168.183425 
L 319.839361 165.198286 
L 320.084014 164.502814 
L 320.328667 165.715818 
L 320.57332 163.285307 
L 320.817973 158.356215 
L 321.062626 158.815737 
L 321.307279 153.858397 
L 321.551932 155.141183 
L 321.796585 155.568548 
L 322.041238 157.351614 
L 322.285891 160.737838 
L 322.530544 162.060787 
L 322.775197 161.145009 
L 323.01985 159.581549 
L 323.264503 161.730771 
L 323.509156 137.799438 
L 323.753809 134.257182 
L 323.998462 132.550911 
L 324.243115 127.190357 
L 324.487768 127.249096 
L 324.732421 128.816757 
L 324.977074 128.444383 
L 325.221727 128.999201 
L 325.46638 128.848355 
L 326.200339 133.695693 
L 326.689645 134.043565 
L 326.934298 130.987555 
L 327.178951 131.266989 
L 327.423604 134.117143 
L 327.668257 141.93727 
L 327.91291 142.606338 
L 328.157563 144.23218 
L 328.402216 144.301045 
L 328.646869 142.292855 
L 328.891522 142.633318 
L 329.136175 142.37106 
L 329.380828 138.968966 
L 329.625481 138.863601 
L 330.114787 139.973236 
L 330.35944 140.603145 
L 330.604093 139.866224 
L 330.848746 140.651541 
L 331.093399 140.545125 
L 331.338052 136.006549 
L 331.582705 137.86605 
L 331.827358 131.35162 
L 332.072011 130.166212 
L 332.316664 132.974301 
L 332.561317 133.307146 
L 332.80597 133.30408 
L 333.050623 132.212378 
L 333.295276 132.415888 
L 333.539929 130.894001 
L 333.784582 131.689405 
L 334.029235 130.235446 
L 334.273888 130.659764 
L 334.518541 129.017039 
L 334.763194 130.139904 
L 335.007847 130.167054 
L 335.2525 126.58685 
L 335.497153 129.657992 
L 335.741806 130.368548 
L 335.986459 131.808624 
L 336.475765 124.540173 
L 336.720418 121.997219 
L 336.965071 122.778986 
L 337.209724 123.123377 
L 337.454377 124.236172 
L 337.69903 123.626676 
L 337.943684 125.158016 
L 338.188337 119.772498 
L 338.43299 120.579344 
L 338.677643 120.472067 
L 338.922296 113.45412 
L 339.166949 113.3187 
L 339.411602 115.348948 
L 339.656255 112.076048 
L 340.145561 113.462505 
L 340.390214 109.10552 
L 340.87952 111.268048 
L 341.124173 110.917563 
L 341.368826 112.82318 
L 341.858132 110.697748 
L 342.102785 106.825269 
L 342.347438 105.907626 
L 342.592091 106.768753 
L 342.836744 105.528108 
L 343.32605 110.584642 
L 343.570703 109.24378 
L 343.815356 109.413533 
L 344.060009 109.333606 
L 344.304662 108.455142 
L 344.549315 107.089656 
L 344.793968 108.397283 
L 345.038621 108.132006 
L 345.283274 107.586785 
L 345.527927 109.264997 
L 345.77258 108.656238 
L 346.017233 112.357734 
L 346.261886 113.173891 
L 346.506539 109.617658 
L 346.751192 110.379647 
L 346.995845 111.549053 
L 347.240498 111.375665 
L 347.485151 110.975744 
L 347.729804 107.96477 
L 347.974457 108.240191 
L 348.21911 105.743853 
L 348.463763 106.610829 
L 348.953069 104.862058 
L 349.197722 108.942315 
L 349.442375 108.73802 
L 349.687028 109.642906 
L 349.931681 109.433577 
L 350.420987 105.340355 
L 350.910293 101.971856 
L 351.154946 102.072924 
L 351.399599 103.229554 
L 351.888905 107.33752 
L 352.133558 107.323647 
L 352.378211 107.868717 
L 352.867517 106.496379 
L 353.11217 107.073019 
L 353.356823 108.157482 
L 353.601476 102.776884 
L 354.090782 111.971289 
L 354.335435 110.330248 
L 354.580088 107.931137 
L 354.824741 107.113882 
L 355.069394 96.847753 
L 355.314047 99.061685 
L 355.5587 95.956097 
L 355.803353 96.648228 
L 356.048006 93.324698 
L 356.292659 91.949219 
L 356.537312 93.209908 
L 356.781965 90.687508 
L 357.026618 91.898192 
L 357.271271 92.217732 
L 357.515924 90.616854 
L 357.760577 87.012963 
L 358.00523 89.04501 
L 358.249883 86.344453 
L 358.739189 87.793047 
L 358.983842 95.165131 
L 359.473148 90.397153 
L 359.717801 90.459214 
L 359.962454 89.2367 
L 360.207107 89.493441 
L 360.451761 83.155947 
L 360.696414 83.887521 
L 360.941067 83.263545 
L 361.18572 83.339195 
L 361.430373 83.691686 
L 361.675026 81.239012 
L 361.919679 81.486271 
L 362.164332 81.218666 
L 362.653638 80.273296 
L 363.142944 97.792763 
L 363.387597 95.982026 
L 363.876903 96.985066 
L 364.366209 94.672393 
L 364.610862 96.520605 
L 364.855515 92.924493 
L 365.100168 92.699719 
L 365.344821 89.39118 
L 365.589474 89.796003 
L 365.834127 97.930758 
L 366.07878 95.530833 
L 366.323433 99.389307 
L 366.568086 100.775764 
L 366.812739 104.437286 
L 367.057392 102.942682 
L 367.302045 104.315379 
L 367.791351 96.218118 
L 368.036004 94.234486 
L 368.280657 88.63326 
L 368.52531 89.061287 
L 368.769963 85.860289 
L 369.014616 85.048958 
L 369.259269 58.394497 
L 369.503922 56.933867 
L 369.748575 58.243557 
L 369.993228 52.6069 
L 370.482534 55.382539 
L 370.727187 52.819825 
L 370.97184 59.967799 
L 371.216493 58.156343 
L 371.461146 60.387688 
L 371.705799 59.840857 
L 371.950452 61.0096 
L 372.195105 62.751898 
L 372.439758 61.138397 
L 372.684411 60.516957 
L 373.173717 67.043226 
L 373.41837 75.010139 
L 373.663023 72.002969 
L 373.907676 73.478911 
L 374.152329 76.722627 
L 374.396982 75.179419 
L 374.641635 79.648412 
L 375.130941 78.873269 
L 375.375594 75.931491 
L 375.620247 76.276335 
L 375.8649 77.290788 
L 376.109553 79.553476 
L 376.598859 75.634304 
L 376.843512 68.632388 
L 377.577471 68.946041 
L 377.822124 63.39552 
L 378.066777 63.819005 
L 378.31143 67.305418 
L 378.800736 56.380696 
L 379.045389 58.597846 
L 379.290042 59.604387 
L 379.534695 59.717228 
L 379.779348 57.185403 
L 380.024001 55.984938 
L 380.268654 55.84772 
L 380.513307 52.000223 
L 380.75796 53.14457 
L 381.002613 63.79317 
L 381.247266 62.459632 
L 381.491919 59.297566 
L 381.736572 61.287009 
L 381.981225 60.144612 
L 382.225878 65.211859 
L 382.470531 62.216026 
L 382.715184 55.948258 
L 382.959838 44.117288 
L 383.204491 39.800712 
L 383.449144 41.324577 
L 383.693797 43.629017 
L 383.93845 44.117042 
L 384.183103 43.413574 
L 384.672409 35.132573 
L 385.161715 43.457712 
L 385.406368 43.74818 
L 385.651021 44.989279 
L 385.895674 46.887685 
L 386.140327 42.359584 
L 386.38498 44.837979 
L 386.629633 43.136241 
L 386.874286 37.435518 
L 387.118939 39.0536 
L 387.363592 41.6765 
L 387.852898 38.17875 
L 387.852898 38.17875 
" style="fill:none;stroke:#1f77b4;stroke-linecap:square;stroke-width:1.5;"/>
   </g>
   <g id="line2d_34">
    <path clip-path="url(#pf74264ba4d)" d="M 63.198352 275.581322 
L 63.443005 275.742572 
L 63.687658 276.151897 
L 64.176964 276.263532 
L 64.421617 275.754976 
L 64.66627 275.556515 
L 65.155576 275.556515 
L 65.400229 275.196804 
L 65.644882 275.196804 
L 66.134188 274.601422 
L 66.378841 274.415365 
L 66.623494 274.526999 
L 66.868147 274.427768 
L 67.1128 274.192096 
L 67.357453 274.229308 
L 67.846759 274.626229 
L 68.091412 274.762671 
L 68.580719 274.576614 
L 68.825372 275.097574 
L 69.070025 275.234016 
L 69.314678 275.903821 
L 69.559331 276.077475 
L 69.803984 275.779783 
L 70.048637 275.779783 
L 70.29329 275.903821 
L 70.537943 275.680553 
L 70.782596 275.680553 
L 71.027249 275.531707 
L 71.271902 275.08517 
L 71.516555 275.70536 
L 71.761208 275.879014 
L 72.250514 275.407669 
L 72.73982 275.816995 
L 72.984473 276.275936 
L 73.229126 276.040263 
L 73.473779 275.96584 
L 73.718432 276.164301 
L 73.963085 275.879014 
L 74.207738 275.804591 
L 74.697044 274.006039 
L 74.941697 274.018443 
L 75.18635 272.790466 
L 75.431003 274.2045 
L 75.920309 274.117673 
L 76.164962 274.415365 
L 76.409615 274.340942 
L 76.654268 274.105269 
L 76.898921 273.671136 
L 77.143574 273.882001 
L 77.388227 274.30373 
L 77.63288 273.782771 
L 77.877533 273.720751 
L 78.122186 275.159593 
L 78.366839 274.911517 
L 78.856145 271.773354 
L 79.345451 272.18268 
L 79.590104 271.947007 
L 79.834757 272.28191 
L 80.07941 272.046238 
L 80.324063 272.356333 
L 80.568716 272.009026 
L 80.813369 271.959411 
L 81.058022 271.711335 
L 81.302675 271.674124 
L 81.547328 271.376432 
L 81.791981 271.475663 
L 82.281287 271.215183 
L 82.52594 271.103548 
L 82.770593 271.115952 
L 83.015246 271.277202 
L 83.259899 271.091145 
L 83.749205 271.388836 
L 83.993858 271.339221 
L 84.238511 272.343929 
L 84.483164 270.458551 
L 84.727817 271.041529 
L 84.97247 270.545377 
L 85.217123 270.582589 
L 85.461776 270.793453 
L 85.706429 270.557781 
L 85.951082 269.73913 
L 86.195735 269.416631 
L 86.685041 269.032113 
L 86.929694 268.870863 
L 87.174347 269.156151 
L 87.419 269.242978 
L 87.908306 269.825956 
L 88.397612 269.776341 
L 88.642265 269.987206 
L 88.886918 269.404227 
L 89.131571 269.515861 
L 89.376224 268.69721 
L 89.620877 268.808844 
L 89.86553 268.238269 
L 90.354836 268.821248 
L 90.599489 268.449134 
L 91.088796 267.481637 
L 91.333449 267.791732 
L 91.578102 268.535961 
L 91.822755 268.498749 
L 92.067408 268.238269 
L 92.312061 268.486345 
L 92.556714 267.518849 
L 92.801367 259.791278 
L 93.04602 255.772444 
L 93.290673 257.087248 
L 93.535326 255.846867 
L 93.779979 256.094943 
L 94.024632 256.529077 
L 94.269285 256.615903 
L 94.513938 254.854563 
L 94.758591 254.916582 
L 95.003244 253.142838 
L 95.247897 253.576971 
L 95.49255 253.750624 
L 95.737203 254.296392 
L 95.981856 254.283988 
L 96.226509 252.807935 
L 96.471162 252.609474 
L 96.715815 252.23736 
L 96.960468 251.009383 
L 97.205121 252.659089 
L 97.449774 252.646685 
L 97.694427 253.949085 
L 97.93908 254.035912 
L 98.183733 253.192453 
L 98.428386 253.155241 
L 98.673039 252.485436 
L 98.917692 252.262167 
L 99.162345 253.701009 
L 99.406998 253.614182 
L 99.651651 253.403317 
L 99.896304 253.63899 
L 100.140957 253.080819 
L 100.38561 253.837451 
L 100.630263 253.539759 
L 100.874916 251.728804 
L 101.364222 253.056011 
L 101.608875 252.931973 
L 101.853528 253.676201 
L 102.098181 253.37851 
L 102.587487 253.688605 
L 102.83214 253.775432 
L 103.076793 252.038899 
L 103.566099 252.274571 
L 104.300058 255.735233 
L 104.789364 256.640711 
L 105.034017 256.925998 
L 105.27867 255.809656 
L 105.523323 256.392635 
L 105.767976 255.152254 
L 106.012629 255.127447 
L 106.257282 254.544468 
L 106.501935 254.656102 
L 106.991241 256.789556 
L 107.235894 256.863979 
L 107.480547 254.916582 
L 107.7252 247.362664 
L 107.969853 247.412279 
L 108.214506 247.933239 
L 108.459159 247.623144 
L 108.703812 247.709971 
L 108.948465 247.523914 
L 109.193118 248.082085 
L 109.437771 247.809201 
L 109.682424 247.995258 
L 109.927077 248.479007 
L 110.17173 249.27285 
L 110.416383 248.851121 
L 110.661036 247.461894 
L 110.905689 247.238626 
L 111.150342 245.16719 
L 111.394995 244.360943 
L 111.639648 242.686429 
L 111.884301 243.815176 
L 112.128954 243.467869 
L 112.373607 243.368639 
L 112.61826 243.802772 
L 112.862913 245.316036 
L 113.107566 245.737765 
L 113.35222 245.278825 
L 113.596873 247.858816 
L 113.841526 247.660355 
L 114.086179 246.357956 
L 114.330832 245.725362 
L 114.575485 246.481994 
L 114.820138 245.886611 
L 115.064791 246.221514 
L 115.309444 247.226222 
L 115.554097 246.792089 
L 115.79875 246.668051 
L 116.288056 249.024774 
L 116.532709 247.647952 
L 116.777362 247.896028 
L 117.022015 245.191998 
L 117.266668 245.266421 
L 117.511321 244.646231 
L 118.000627 247.375068 
L 118.24528 247.61074 
L 118.489933 248.094489 
L 118.734586 248.23093 
L 118.979239 247.722374 
L 119.223892 248.404584 
L 119.468545 246.072668 
L 119.713198 246.56882 
L 119.957851 246.668051 
L 120.202504 245.923823 
L 120.447157 244.509789 
L 120.69181 241.979412 
L 120.936463 242.612006 
L 121.181116 242.549987 
L 121.425769 240.230476 
L 121.670422 240.106438 
L 121.915075 239.659901 
L 122.159728 238.345097 
L 122.649034 238.928076 
L 122.893687 239.399421 
L 123.382993 243.058543 
L 123.627646 242.091047 
L 123.872299 242.165469 
L 124.361605 242.62441 
L 124.606258 242.487968 
L 124.850911 241.669317 
L 125.095564 242.190277 
L 125.340217 240.838262 
L 125.58487 240.466148 
L 125.829523 241.656913 
L 126.074176 241.446049 
L 126.318829 241.024319 
L 126.808135 239.883169 
L 127.052788 239.424228 
L 127.297441 240.912685 
L 127.542094 239.945188 
L 127.786747 239.783939 
L 128.0314 237.390004 
L 128.276053 237.910964 
L 128.520706 238.010194 
L 128.765359 236.484526 
L 129.010012 235.71549 
L 129.254665 236.906256 
L 129.743971 234.810013 
L 129.988624 235.504626 
L 130.47793 233.991361 
L 130.722583 233.520017 
L 130.967236 234.152611 
L 131.211889 233.69367 
L 131.456542 230.344642 
L 131.945848 232.403674 
L 132.190501 231.659446 
L 132.679807 232.738577 
L 132.92446 231.423774 
L 133.169113 231.684253 
L 133.413766 230.208201 
L 133.658419 232.29204 
L 133.903072 231.5106 
L 134.147725 231.386562 
L 134.392378 230.257816 
L 134.637031 230.456277 
L 134.881684 231.026852 
L 135.126337 228.298014 
L 135.37099 227.20648 
L 135.615643 228.80657 
L 135.860297 227.82667 
L 136.10495 229.439165 
L 136.594256 234.710782 
L 136.838909 231.944733 
L 137.083562 232.502905 
L 137.328215 228.335226 
L 137.572868 228.80657 
L 137.817521 228.595706 
L 138.062174 227.318114 
L 138.306827 226.722731 
L 138.55148 222.914763 
L 138.796133 228.670129 
L 139.040786 227.293306 
L 139.285439 227.119653 
L 139.530092 227.690228 
L 139.774745 230.170989 
L 140.019398 227.814266 
L 140.264051 229.439165 
L 140.508704 228.670129 
L 141.242663 225.296293 
L 141.487316 226.338213 
L 141.731969 227.901093 
L 141.976622 226.474655 
L 142.221275 225.941291 
L 142.465928 226.673116 
L 142.710581 226.400232 
L 143.199887 223.832644 
L 143.689193 226.052926 
L 143.933846 225.656004 
L 144.178499 224.055913 
L 144.423152 224.179951 
L 144.667805 223.758221 
L 145.401764 220.992173 
L 145.89107 221.500729 
L 146.135723 222.67909 
L 146.380376 222.368995 
L 146.625029 223.013993 
L 146.869682 222.790725 
L 147.114335 221.475921 
L 147.358988 221.314672 
L 147.603641 219.664966 
L 148.092947 220.905346 
L 148.3376 219.392082 
L 148.582253 219.144006 
L 148.826906 219.057179 
L 149.071559 219.243236 
L 149.316212 218.37497 
L 149.805518 219.019968 
L 150.050171 220.694481 
L 150.294824 220.781308 
L 150.539477 220.570443 
L 150.78413 221.525536 
L 151.028783 221.475921 
L 151.273436 222.096111 
L 151.518089 225.656004 
L 151.762742 225.395524 
L 152.252048 226.958403 
L 152.496701 226.127348 
L 152.741354 225.928888 
L 152.986007 227.268499 
L 153.23066 227.04523 
L 153.719966 227.56619 
L 153.964619 226.673116 
L 154.209272 216.936128 
L 154.453925 217.407473 
L 154.698578 218.263335 
L 154.943231 213.735946 
L 155.187884 214.864693 
L 155.67719 213.277006 
L 155.921843 214.157676 
L 156.166496 213.884792 
L 156.411149 214.157676 
L 156.655802 213.537485 
L 156.900455 209.617883 
L 157.145108 209.54346 
L 157.389761 208.910866 
L 157.634414 209.80394 
L 157.879067 208.464329 
L 158.12372 208.637982 
L 158.368374 208.40231 
L 158.613027 209.927978 
L 158.85768 208.737213 
L 159.102333 209.220961 
L 159.346986 206.603758 
L 159.591639 205.537031 
L 159.836292 206.293663 
L 160.080945 205.685876 
L 160.325598 206.851834 
L 160.570251 206.851834 
L 160.814904 205.189724 
L 161.059557 205.450204 
L 161.548863 206.368086 
L 161.793516 207.856542 
L 162.038169 208.290676 
L 162.282822 208.451925 
L 162.772128 210.597783 
L 163.506087 211.379223 
L 163.75074 210.634995 
L 163.995393 213.872388 
L 164.240046 218.672661 
L 164.484699 220.099099 
L 164.729352 219.851023 
L 165.218658 222.22015 
L 165.463311 223.435723 
L 165.707964 221.190634 
L 165.952617 221.513133 
L 166.19727 222.964378 
L 166.441923 226.040522 
L 166.686576 225.916484 
L 166.931229 223.993894 
L 167.175882 223.262069 
L 167.420535 226.499463 
L 167.665188 227.9259 
L 167.909841 227.057634 
L 168.154494 228.000323 
L 168.399147 227.094845 
L 168.6438 224.552065 
L 168.888453 224.068317 
L 169.133106 219.739388 
L 169.377759 223.175243 
L 169.622412 224.849756 
L 169.867065 228.744551 
L 170.111718 230.133778 
L 170.356371 229.129069 
L 170.601024 228.744551 
L 170.845677 226.189367 
L 171.334983 224.787737 
L 171.579636 228.012727 
L 171.824289 229.017435 
L 172.068942 228.818974 
L 172.313595 227.590997 
L 172.558248 224.60168 
L 172.802901 224.303989 
L 173.047554 223.46053 
L 173.292207 224.824949 
L 173.53686 223.820241 
L 173.781513 221.227845 
L 174.026166 219.950253 
L 174.270819 216.601226 
L 174.515472 216.390361 
L 174.760125 214.517386 
L 175.004778 215.14998 
L 175.249431 214.715847 
L 175.494084 212.24749 
L 175.738737 211.776145 
L 175.98339 211.031917 
L 176.228043 211.82576 
L 176.717349 209.915574 
L 176.962002 209.593075 
L 177.206655 210.84586 
L 177.451308 209.927978 
L 177.695961 209.617883 
L 177.940614 210.957494 
L 178.185267 210.027208 
L 178.42992 209.568268 
L 178.674573 207.199141 
L 178.919226 206.306067 
L 179.163879 207.596062 
L 179.653185 207.930965 
L 179.897838 208.489136 
L 180.142491 207.09991 
L 180.387144 207.918561 
L 180.631798 207.484428 
L 180.876451 207.744908 
L 181.121104 201.977138 
L 181.365757 203.105885 
L 181.61041 202.11358 
L 182.099716 206.951065 
L 182.344369 207.310775 
L 182.589022 208.104618 
L 182.833675 207.856542 
L 183.078328 205.623857 
L 183.567634 207.062699 
L 183.812287 207.955773 
L 184.05694 207.112314 
L 184.301593 205.735492 
L 184.546246 209.431826 
L 185.280205 211.056724 
L 185.524858 210.560572 
L 185.769511 210.634995 
L 186.014164 208.848847 
L 186.258817 210.907879 
L 186.50347 210.436534 
L 186.748123 210.907879 
L 186.992776 210.883071 
L 187.237429 209.568268 
L 187.482082 206.132413 
L 187.726735 206.814623 
L 187.971388 205.797511 
L 188.216041 206.715392 
L 188.460694 205.809914 
L 188.705347 205.921549 
L 189.194653 203.242327 
L 189.439306 202.857809 
L 189.683959 202.138388 
L 189.928612 202.163195 
L 190.173265 200.898007 
L 190.417918 200.600316 
L 190.662571 200.8732 
L 190.907224 201.704255 
L 191.151877 201.605024 
L 191.39653 201.183295 
L 191.641183 201.356948 
L 191.885836 201.220506 
L 192.130489 202.063965 
L 192.619795 200.8732 
L 192.864448 200.935219 
L 193.109101 199.980126 
L 193.353754 200.488682 
L 193.598407 201.369352 
L 193.84306 204.705976 
L 194.087713 204.854821 
L 194.332366 205.276551 
L 194.577019 204.482707 
L 194.821672 204.743187 
L 195.066325 207.36039 
L 195.310978 207.161929 
L 195.555631 205.971164 
L 195.800284 207.223948 
L 196.044937 206.293663 
L 196.28959 206.157221 
L 196.534243 205.871933 
L 196.778896 208.055003 
L 197.268202 204.383477 
L 197.512855 203.688864 
L 197.757508 204.966456 
L 198.002161 203.093481 
L 198.246814 204.011363 
L 198.73612 208.104618 
L 198.980773 206.231644 
L 199.225426 206.330874 
L 199.470079 221.723997 
L 199.714732 222.542649 
L 199.959385 222.158131 
L 200.448691 219.429293 
L 200.693344 217.940837 
L 200.937997 217.59353 
L 201.18265 218.585834 
L 201.427303 217.382665 
L 201.671956 218.821507 
L 201.916609 218.660257 
L 202.161262 216.216708 
L 202.895221 218.412181 
L 203.139875 217.891221 
L 203.384528 217.742376 
L 203.629181 217.196608 
L 203.873834 218.027663 
L 204.118487 217.791991 
L 204.36314 218.585834 
L 204.607793 217.407473 
L 204.852446 218.275739 
L 205.097099 218.300547 
L 205.341752 221.475921 
L 205.586405 220.582847 
L 205.831058 221.972073 
L 206.075711 222.654283 
L 206.320364 223.969086 
L 206.565017 223.584568 
L 207.054323 225.246678 
L 207.298976 223.386107 
L 207.543629 222.889955 
L 207.788282 223.683799 
L 208.032935 223.634183 
L 208.277588 225.656004 
L 208.522241 224.899372 
L 208.766894 226.573885 
L 209.2562 226.549078 
L 209.745506 229.736856 
L 209.990159 226.697923 
L 210.234812 226.561482 
L 210.479465 225.54437 
L 210.724118 226.152156 
L 210.968771 226.201771 
L 211.213424 225.197063 
L 211.458077 225.556773 
L 211.947383 224.998602 
L 212.192036 225.28389 
L 212.436689 223.98149 
L 212.681342 227.132057 
L 212.925995 228.136765 
L 213.170648 227.839074 
L 213.415301 226.549078 
L 213.659954 227.466959 
L 213.904607 229.315127 
L 214.14926 228.434456 
L 214.393913 228.360033 
L 214.638566 228.44686 
L 215.127872 224.006298 
L 215.372525 213.289409 
L 215.617178 209.890767 
L 216.351137 205.33857 
L 216.59579 207.410005 
L 216.840443 207.174333 
L 217.085096 207.534043 
L 217.329749 207.658081 
L 217.574402 204.854821 
L 217.819055 206.306067 
L 218.063708 206.268855 
L 218.308361 207.075103 
L 218.553014 207.310775 
L 218.797667 205.375781 
L 219.04232 205.214532 
L 219.286973 204.879629 
L 219.531626 203.217519 
L 220.020932 201.629832 
L 220.265585 201.716658 
L 220.510238 201.084064 
L 220.754891 202.200407 
L 221.244197 201.059257 
L 221.48885 200.228202 
L 221.733503 201.667043 
L 221.978156 200.71195 
L 222.467462 202.572521 
L 222.712115 202.944635 
L 223.201421 206.851834 
L 223.446074 208.724809 
L 223.690727 207.819331 
L 223.93538 206.368086 
L 224.180033 208.129426 
L 224.424686 211.04432 
L 224.669339 211.652107 
L 224.913992 210.833456 
L 225.403298 209.927978 
L 225.647952 210.510957 
L 225.892605 208.154234 
L 226.137258 211.081532 
L 226.626564 212.321912 
L 226.871217 210.932686 
L 227.360523 212.6072 
L 227.605176 212.445951 
L 227.849829 210.982301 
L 228.094482 210.783841 
L 228.339135 207.608466 
L 228.583788 207.930965 
L 229.317747 200.984834 
L 229.5624 201.567813 
L 229.807053 186.224305 
L 230.051706 184.537387 
L 230.296359 185.269212 
L 230.541012 186.509592 
L 230.785665 186.993341 
L 231.030318 186.745265 
L 231.274971 186.869303 
L 231.519624 185.504884 
L 231.764277 186.038248 
L 232.00893 186.075459 
L 232.253583 187.204206 
L 232.498236 187.104975 
L 232.742889 187.489493 
L 232.987542 185.604115 
L 233.232195 186.484785 
L 233.476848 185.65373 
L 233.721501 183.99162 
L 233.966154 181.275186 
L 234.45546 183.024123 
L 234.700113 181.820954 
L 234.944766 177.144719 
L 235.189419 176.326068 
L 235.434072 176.574144 
L 235.678725 175.68107 
L 235.923378 175.42059 
L 236.168031 175.619051 
L 236.412684 176.673374 
L 236.657337 174.353863 
L 237.146643 175.234533 
L 237.391296 175.42059 
L 237.635949 175.259341 
L 237.880602 175.656262 
L 238.125255 174.986457 
L 238.369908 173.609634 
L 238.614561 174.676362 
L 239.103867 166.899175 
L 239.837826 169.925704 
L 240.082479 167.643404 
L 240.327132 168.883784 
L 240.571785 168.300805 
L 240.816438 169.379937 
L 241.061091 166.22937 
L 241.305744 165.113027 
L 241.550397 165.571968 
L 242.039703 170.347433 
L 242.284356 171.414161 
L 242.529009 169.404744 
L 242.773662 169.665224 
L 243.262968 168.51167 
L 243.752274 169.826474 
L 244.486233 160.424389 
L 244.730886 161.317463 
L 244.975539 164.095915 
L 245.220192 142.165987 
L 245.464845 143.455982 
L 245.709498 148.690388 
L 245.954151 146.259242 
L 246.68811 150.191249 
L 246.932763 153.800756 
L 247.177416 153.217778 
L 247.422069 152.994509 
L 247.911375 144.026557 
L 248.156029 146.197223 
L 248.400682 135.542354 
L 248.889988 128.968337 
L 249.134641 132.602652 
L 249.623947 133.570149 
L 249.8686 136.336198 
L 250.113253 132.342172 
L 250.357906 132.763902 
L 250.602559 130.320352 
L 250.847212 131.94525 
L 251.091865 134.413608 
L 251.825824 165.646391 
L 252.070477 159.891025 
L 252.559783 139.871282 
L 252.804436 139.908494 
L 253.049089 143.133483 
L 253.293742 154.5946 
L 253.538395 155.028733 
L 253.783048 160.4616 
L 254.027701 163.277264 
L 254.272354 168.040326 
L 254.517007 162.793516 
L 254.76166 162.421401 
L 255.250966 167.122444 
L 255.740272 156.715651 
L 255.984925 156.554401 
L 256.229578 158.526606 
L 256.718884 163.674186 
L 256.963537 164.170338 
L 257.20819 157.112573 
L 257.452843 158.997951 
L 257.697496 162.433805 
L 257.942149 163.823032 
L 258.431455 154.358928 
L 258.676108 154.197678 
L 258.920761 147.822122 
L 259.165414 151.444033 
L 259.410067 151.729321 
L 259.65472 143.257521 
L 259.899373 145.24213 
L 260.144026 145.093285 
L 260.388679 149.7075 
L 260.633332 149.08731 
L 260.877985 160.424389 
L 261.122638 163.029188 
L 261.367291 159.68016 
L 261.611944 163.029188 
L 262.10125 165.100624 
L 262.590556 158.005647 
L 262.835209 157.968435 
L 263.079862 154.582196 
L 263.324515 155.425655 
L 263.569168 151.382014 
L 263.813821 152.299896 
L 264.058474 149.695097 
L 264.303127 144.349056 
L 264.54778 145.031266 
L 264.792433 144.336653 
L 265.037086 149.546251 
L 265.281739 146.02357 
L 265.526392 145.825109 
L 266.015698 157.249014 
L 266.505004 140.565896 
L 266.749657 136.187352 
L 266.99431 136.695908 
L 267.238963 132.20573 
L 267.483616 130.729678 
L 267.728269 132.863132 
L 267.972922 131.808809 
L 268.217575 130.221121 
L 268.462228 132.838325 
L 268.706881 130.307948 
L 268.951534 125.892193 
L 269.196187 128.5218 
L 269.44084 123.411432 
L 269.685493 130.320352 
L 269.930146 128.310935 
L 270.174799 131.759193 
L 270.419452 133.359284 
L 270.664106 138.320807 
L 270.908759 136.137737 
L 271.153412 138.705325 
L 271.398065 133.694187 
L 271.642718 133.855437 
L 271.887371 139.424745 
L 272.132024 141.148874 
L 272.376677 141.632623 
L 272.62133 139.251092 
L 272.865983 140.280608 
L 273.110636 140.553492 
L 273.355289 138.060327 
L 273.844595 143.939731 
L 274.089248 149.422213 
L 274.333901 152.275088 
L 274.578554 139.846475 
L 275.06786 147.648469 
L 275.312513 143.207906 
L 275.557166 141.210893 
L 275.801819 153.639507 
L 276.046472 153.019317 
L 276.291125 156.765266 
L 276.535778 151.989801 
L 276.780431 152.175858 
L 277.025084 158.861509 
L 277.759043 164.468029 
L 278.003696 172.753772 
L 278.248349 168.710131 
L 278.493002 171.897909 
L 278.737655 169.107053 
L 278.982308 172.332042 
L 279.471614 174.53992 
L 279.716267 183.123353 
L 279.96092 182.465952 
L 280.450226 176.102799 
L 280.694879 178.707599 
L 280.939532 177.405199 
L 281.184185 175.358571 
L 281.428838 168.275998 
L 281.673491 173.572423 
L 281.918144 175.135303 
L 282.162797 171.786275 
L 282.40745 175.271744 
L 282.896756 168.561285 
L 283.386062 168.015518 
L 283.630715 169.950512 
L 283.875368 163.885051 
L 284.120021 164.740913 
L 284.364674 164.343991 
L 284.609327 159.816602 
L 284.85398 167.37052 
L 285.098633 166.452638 
L 285.343286 164.257165 
L 285.587939 165.051008 
L 285.832592 164.678894 
L 286.077245 164.095915 
L 286.321898 164.430818 
L 286.566551 162.582651 
L 286.811204 162.12371 
L 287.055857 160.387177 
L 287.30051 160.4616 
L 287.545163 161.974864 
L 287.789816 162.28496 
L 288.034469 163.810628 
L 288.523775 156.653632 
L 288.768428 159.05997 
L 289.013081 159.010355 
L 289.257734 154.706234 
L 289.502387 156.380748 
L 289.74704 155.648923 
L 289.991693 155.785365 
L 290.236346 156.25671 
L 290.480999 157.050554 
L 290.725652 158.452184 
L 291.214958 149.806731 
L 291.704264 147.499623 
L 291.948917 151.357207 
L 292.19357 168.796958 
L 292.438223 165.782833 
L 292.682876 168.003114 
L 292.92753 166.861964 
L 293.172183 169.764455 
L 293.906142 173.832903 
L 294.150795 174.142998 
L 294.395448 170.322626 
L 294.640101 172.270023 
L 294.884754 173.200309 
L 295.129407 174.961649 
L 295.37406 173.13829 
L 295.618713 173.510404 
L 295.863366 170.59551 
L 296.352672 176.98347 
L 296.597325 176.809816 
L 296.841978 175.271744 
L 297.086631 175.879531 
L 297.331284 173.560019 
L 297.575937 174.738381 
L 298.554549 161.528327 
L 298.799202 158.290934 
L 299.043855 157.683148 
L 299.777814 160.225928 
L 300.022467 162.28496 
L 300.26712 160.858522 
L 300.511773 161.912845 
L 300.756426 164.430818 
L 301.001079 165.385911 
L 301.245732 169.528782 
L 301.490385 169.404744 
L 301.979691 168.858977 
L 302.224344 167.432539 
L 302.71365 169.466763 
L 302.958303 172.952233 
L 303.202956 174.167806 
L 303.447609 172.121178 
L 303.936915 179.972787 
L 304.426221 172.865406 
L 304.670874 172.344446 
L 304.915527 165.906871 
L 305.16018 164.368799 
L 305.404833 168.474459 
L 305.649486 167.854268 
L 305.894139 165.423123 
L 306.138792 168.387632 
L 306.383445 166.775137 
L 306.628098 166.204562 
L 306.872751 164.232357 
L 307.362057 163.252456 
L 307.60671 179.340193 
L 307.851363 176.772605 
L 308.096016 179.154136 
L 308.340669 179.278174 
L 308.585322 177.0827 
L 308.829975 172.431273 
L 309.074628 171.649833 
L 309.563934 172.629734 
L 309.808587 168.759746 
L 310.297893 170.33503 
L 310.542546 169.9133 
L 310.787199 165.460334 
L 311.276505 169.231091 
L 311.521158 169.305514 
L 311.765811 166.874368 
L 312.010464 166.006101 
L 312.255117 167.593789 
L 312.49977 167.829461 
L 312.744423 166.278985 
L 313.233729 166.899175 
L 313.478382 167.655808 
L 313.723035 166.812349 
L 313.967688 167.755038 
L 314.212341 165.100624 
L 314.456994 164.778125 
L 314.701647 165.125431 
L 314.9463 164.939374 
L 315.68026 165.026201 
L 315.924913 161.664769 
L 316.169566 162.830727 
L 316.414219 162.198133 
L 316.658872 166.117736 
L 316.903525 162.954765 
L 317.148178 166.626292 
L 317.392831 165.485142 
L 317.637484 165.075816 
L 317.882137 162.421401 
L 318.12679 164.182742 
L 318.371443 163.94707 
L 318.616096 168.127152 
L 318.860749 166.948791 
L 319.105402 166.812349 
L 319.350055 168.524074 
L 319.594708 165.410719 
L 319.839361 164.902163 
L 320.084014 165.906871 
L 320.328667 163.574955 
L 320.57332 158.514203 
L 320.817973 158.873913 
L 321.062626 153.986814 
L 321.307279 155.487674 
L 321.551932 155.797769 
L 321.796585 157.645936 
L 322.041238 161.044579 
L 322.285891 162.396594 
L 322.530544 161.491116 
L 322.775197 159.953044 
L 323.01985 162.02448 
L 323.264503 138.469652 
L 323.509156 134.64928 
L 323.753809 132.813517 
L 323.998462 127.665937 
L 324.243115 127.876802 
L 324.487768 128.893914 
L 324.732421 128.323339 
L 324.977074 128.943529 
L 325.221727 128.819491 
L 325.711033 132.875536 
L 325.955686 134.066301 
L 326.444992 134.450819 
L 326.689645 131.287849 
L 326.934298 131.58554 
L 327.178951 134.252358 
L 327.423604 142.649735 
L 327.668257 143.443579 
L 327.91291 145.180111 
L 328.157563 144.919631 
L 328.402216 142.935022 
L 328.646869 143.133483 
L 328.891522 142.910215 
L 329.136175 139.499168 
L 329.380828 139.399938 
L 330.114787 140.77676 
L 330.35944 140.05734 
L 330.604093 140.689934 
L 330.848746 140.41705 
L 331.093399 135.964084 
L 331.338052 138.010712 
L 331.582705 131.300253 
L 331.827358 130.283141 
L 332.072011 132.949959 
L 332.316664 133.396496 
L 332.561317 133.458515 
L 332.80597 132.280153 
L 333.050623 132.701883 
L 333.295276 130.766889 
L 333.539929 131.734386 
L 333.784582 130.208718 
L 334.029235 130.618043 
L 334.273888 128.906318 
L 334.518541 130.047468 
L 334.763194 130.035064 
L 335.007847 126.611614 
L 335.2525 129.66295 
L 335.497153 130.357563 
L 335.741806 132.255346 
L 335.986459 127.678341 
L 336.475765 122.319897 
L 336.720418 123.237779 
L 336.965071 123.386624 
L 337.209724 124.701428 
L 337.454377 123.944796 
L 337.69903 125.582098 
L 337.943684 119.975578 
L 338.188337 120.980286 
L 338.43299 120.521345 
L 338.677643 114.133385 
L 338.922296 113.897713 
L 339.166949 115.398573 
L 339.411602 112.024738 
L 339.900908 113.451176 
L 340.145561 109.122248 
L 340.390214 110.647916 
L 340.634867 111.28051 
L 340.87952 111.193683 
L 341.124173 113.153485 
L 341.613479 110.958011 
L 341.858132 107.199658 
L 342.102785 106.281776 
L 342.347438 107.026005 
L 342.592091 106.182546 
L 342.836744 108.191962 
L 343.081397 111.144068 
L 343.32605 109.345516 
L 343.570703 109.668015 
L 343.815356 109.407535 
L 344.060009 108.936191 
L 344.304662 107.373311 
L 344.549315 108.712922 
L 344.793968 108.129943 
L 345.038621 107.931482 
L 345.283274 109.519169 
L 345.527927 108.874172 
L 345.77258 112.744159 
L 346.017233 113.227907 
L 346.261886 109.754842 
L 346.506539 110.387436 
L 346.751192 111.764258 
L 346.995845 111.503778 
L 347.240498 111.057241 
L 347.485151 107.79504 
L 347.729804 108.204366 
L 347.974457 105.649182 
L 348.21911 106.715909 
L 348.708416 104.929761 
L 348.953069 109.159459 
L 349.197722 108.874172 
L 349.442375 109.87888 
L 349.687028 109.655611 
L 350.176334 105.748413 
L 350.66564 102.163713 
L 350.910293 102.473808 
L 351.154946 103.577746 
L 351.644252 107.671002 
L 351.888905 107.522157 
L 352.133558 108.303597 
L 352.622864 106.765525 
L 352.867517 107.410522 
L 353.11217 108.539269 
L 353.356823 103.168421 
L 353.846129 112.458871 
L 354.580088 107.410522 
L 354.824741 97.078152 
L 355.069394 99.54651 
L 355.314047 95.937002 
L 355.5587 97.028537 
L 355.803353 93.121338 
L 356.048006 91.75692 
L 356.292659 92.823647 
L 356.537312 90.764615 
L 356.781965 91.570862 
L 357.026618 91.843746 
L 357.271271 90.504135 
L 357.515924 87.006262 
L 357.760577 89.164524 
L 358.00523 86.34886 
L 358.494536 88.085393 
L 358.739189 95.788156 
L 358.983842 92.687205 
L 359.228495 91.049903 
L 359.473148 90.876249 
L 359.717801 89.896349 
L 359.962454 90.144425 
L 360.207107 83.570408 
L 360.451761 84.339444 
L 360.696414 83.359543 
L 361.18572 83.64483 
L 361.430373 80.928397 
L 361.675026 81.077243 
L 361.919679 80.940801 
L 362.408985 80.060131 
L 362.898291 97.971226 
L 363.142944 96.383539 
L 363.63225 97.574304 
L 363.876903 96.805268 
L 364.121556 95.54008 
L 364.366209 97.214594 
L 364.610862 93.51826 
L 364.855515 93.691913 
L 365.100168 89.809522 
L 365.344821 90.45452 
L 365.589474 98.479782 
L 365.834127 95.527676 
L 366.07878 99.64574 
L 366.323433 100.489199 
L 366.568086 104.508032 
L 366.812739 102.721884 
L 367.057392 104.408801 
L 367.546698 96.445558 
L 367.791351 94.386526 
L 368.036004 88.904044 
L 368.280657 89.57385 
L 368.52531 85.964342 
L 368.769963 85.244921 
L 369.014616 58.080587 
L 369.259269 57.758088 
L 369.503922 58.080587 
L 369.748575 51.953106 
L 369.993228 52.734546 
L 370.237881 53.900504 
L 370.482534 51.283301 
L 370.727187 59.221737 
L 370.97184 57.534819 
L 371.216493 60.486925 
L 371.461146 60.027984 
L 371.950452 63.50105 
L 372.439758 60.896251 
L 372.929064 67.780363 
L 373.173717 76.01649 
L 373.41837 73.21323 
L 373.663023 73.709382 
L 373.907676 76.810333 
L 374.152329 74.97457 
L 374.396982 79.799651 
L 374.641635 79.241479 
L 374.886288 78.968596 
L 375.130941 75.768414 
L 375.375594 76.11572 
L 375.620247 77.269274 
L 375.8649 79.973304 
L 376.354206 76.425815 
L 376.598859 69.132378 
L 377.088165 69.070359 
L 377.332818 69.343242 
L 377.577471 63.476242 
L 377.822124 63.786337 
L 378.066777 66.986519 
L 378.556083 56.157997 
L 379.045389 59.283756 
L 379.290042 59.631062 
L 379.534695 56.815398 
L 379.779348 55.500595 
L 380.024001 55.71146 
L 380.268654 51.655415 
L 380.513307 53.429159 
L 380.75796 64.344509 
L 381.002613 63.314993 
L 381.247266 60.102407 
L 381.491919 61.67769 
L 381.736572 60.871443 
L 381.981225 66.254695 
L 382.225878 63.550665 
L 382.470531 57.026263 
L 382.715184 44.69688 
L 382.959838 40.194299 
L 383.204491 41.620736 
L 383.449144 43.841017 
L 383.693797 44.002267 
L 383.93845 42.873521 
L 384.427756 34.414125 
L 384.917062 43.270442 
L 385.161715 43.778998 
L 385.406368 44.982168 
L 385.651021 47.078411 
L 385.895674 42.67506 
L 386.140327 45.465916 
L 386.38498 43.679768 
L 386.629633 38.30892 
L 386.874286 39.760165 
L 387.118939 42.166504 
L 387.608245 38.581804 
L 387.852898 37.725941 
L 387.852898 37.725941 
" style="fill:none;stroke:#ff7f0e;stroke-linecap:square;stroke-width:1.5;"/>
   </g>
   <g id="patch_3">
    <path d="M 46.965625 288.430125 
L 46.965625 22.318125 
" style="fill:none;stroke:#000000;stroke-linecap:square;stroke-linejoin:miter;stroke-width:0.8;"/>
   </g>
   <g id="patch_4">
    <path d="M 404.085625 288.430125 
L 404.085625 22.318125 
" style="fill:none;stroke:#000000;stroke-linecap:square;stroke-linejoin:miter;stroke-width:0.8;"/>
   </g>
   <g id="patch_5">
    <path d="M 46.965625 288.430125 
L 404.085625 288.430125 
" style="fill:none;stroke:#000000;stroke-linecap:square;stroke-linejoin:miter;stroke-width:0.8;"/>
   </g>
   <g id="patch_6">
    <path d="M 46.965625 22.318125 
L 404.085625 22.318125 
" style="fill:none;stroke:#000000;stroke-linecap:square;stroke-linejoin:miter;stroke-width:0.8;"/>
   </g>
   <g id="text_19">
    <!-- Training: NFLX -->
    <defs>
     <path d="M -0.296875 72.90625 
L 61.375 72.90625 
L 61.375 64.59375 
L 35.5 64.59375 
L 35.5 0 
L 25.59375 0 
L 25.59375 64.59375 
L -0.296875 64.59375 
z
" id="DejaVuSans-84"/>
     <path d="M 54.890625 33.015625 
L 54.890625 0 
L 45.90625 0 
L 45.90625 32.71875 
Q 45.90625 40.484375 42.875 44.328125 
Q 39.84375 48.1875 33.796875 48.1875 
Q 26.515625 48.1875 22.3125 43.546875 
Q 18.109375 38.921875 18.109375 30.90625 
L 18.109375 0 
L 9.078125 0 
L 9.078125 54.6875 
L 18.109375 54.6875 
L 18.109375 46.1875 
Q 21.34375 51.125 25.703125 53.5625 
Q 30.078125 56 35.796875 56 
Q 45.21875 56 50.046875 50.171875 
Q 54.890625 44.34375 54.890625 33.015625 
z
" id="DejaVuSans-110"/>
     <path d="M 45.40625 27.984375 
Q 45.40625 37.75 41.375 43.109375 
Q 37.359375 48.484375 30.078125 48.484375 
Q 22.859375 48.484375 18.828125 43.109375 
Q 14.796875 37.75 14.796875 27.984375 
Q 14.796875 18.265625 18.828125 12.890625 
Q 22.859375 7.515625 30.078125 7.515625 
Q 37.359375 7.515625 41.375 12.890625 
Q 45.40625 18.265625 45.40625 27.984375 
z
M 54.390625 6.78125 
Q 54.390625 -7.171875 48.1875 -13.984375 
Q 42 -20.796875 29.203125 -20.796875 
Q 24.46875 -20.796875 20.265625 -20.09375 
Q 16.0625 -19.390625 12.109375 -17.921875 
L 12.109375 -9.1875 
Q 16.0625 -11.328125 19.921875 -12.34375 
Q 23.78125 -13.375 27.78125 -13.375 
Q 36.625 -13.375 41.015625 -8.765625 
Q 45.40625 -4.15625 45.40625 5.171875 
L 45.40625 9.625 
Q 42.625 4.78125 38.28125 2.390625 
Q 33.9375 0 27.875 0 
Q 17.828125 0 11.671875 7.65625 
Q 5.515625 15.328125 5.515625 27.984375 
Q 5.515625 40.671875 11.671875 48.328125 
Q 17.828125 56 27.875 56 
Q 33.9375 56 38.28125 53.609375 
Q 42.625 51.21875 45.40625 46.390625 
L 45.40625 54.6875 
L 54.390625 54.6875 
z
" id="DejaVuSans-103"/>
     <path d="M 11.71875 12.40625 
L 22.015625 12.40625 
L 22.015625 0 
L 11.71875 0 
z
M 11.71875 51.703125 
L 22.015625 51.703125 
L 22.015625 39.3125 
L 11.71875 39.3125 
z
" id="DejaVuSans-58"/>
     <path d="M 9.8125 72.90625 
L 23.09375 72.90625 
L 55.421875 11.921875 
L 55.421875 72.90625 
L 64.984375 72.90625 
L 64.984375 0 
L 51.703125 0 
L 19.390625 60.984375 
L 19.390625 0 
L 9.8125 0 
z
" id="DejaVuSans-78"/>
     <path d="M 9.8125 72.90625 
L 51.703125 72.90625 
L 51.703125 64.59375 
L 19.671875 64.59375 
L 19.671875 43.109375 
L 48.578125 43.109375 
L 48.578125 34.8125 
L 19.671875 34.8125 
L 19.671875 0 
L 9.8125 0 
z
" id="DejaVuSans-70"/>
     <path d="M 9.8125 72.90625 
L 19.671875 72.90625 
L 19.671875 8.296875 
L 55.171875 8.296875 
L 55.171875 0 
L 9.8125 0 
z
" id="DejaVuSans-76"/>
     <path d="M 6.296875 72.90625 
L 16.890625 72.90625 
L 35.015625 45.796875 
L 53.21875 72.90625 
L 63.8125 72.90625 
L 40.375 37.890625 
L 65.375 0 
L 54.78125 0 
L 34.28125 31 
L 13.625 0 
L 2.984375 0 
L 29 38.921875 
z
" id="DejaVuSans-88"/>
    </defs>
    <g transform="translate(182.53375 16.318125)scale(0.12 -0.12)">
     <use xlink:href="#DejaVuSans-84"/>
     <use x="46.333984" xlink:href="#DejaVuSans-114"/>
     <use x="87.447266" xlink:href="#DejaVuSans-97"/>
     <use x="148.726562" xlink:href="#DejaVuSans-105"/>
     <use x="176.509766" xlink:href="#DejaVuSans-110"/>
     <use x="239.888672" xlink:href="#DejaVuSans-105"/>
     <use x="267.671875" xlink:href="#DejaVuSans-110"/>
     <use x="331.050781" xlink:href="#DejaVuSans-103"/>
     <use x="394.527344" xlink:href="#DejaVuSans-58"/>
     <use x="428.21875" xlink:href="#DejaVuSans-32"/>
     <use x="460.005859" xlink:href="#DejaVuSans-78"/>
     <use x="534.810547" xlink:href="#DejaVuSans-70"/>
     <use x="592.330078" xlink:href="#DejaVuSans-76"/>
     <use x="648.042969" xlink:href="#DejaVuSans-88"/>
    </g>
   </g>
   <g id="legend_1">
    <g id="patch_7">
     <path d="M 53.965625 59.674375 
L 137.69375 59.674375 
Q 139.69375 59.674375 139.69375 57.674375 
L 139.69375 29.318125 
Q 139.69375 27.318125 137.69375 27.318125 
L 53.965625 27.318125 
Q 51.965625 27.318125 51.965625 29.318125 
L 51.965625 57.674375 
Q 51.965625 59.674375 53.965625 59.674375 
z
" style="fill:#ffffff;opacity:0.8;stroke:#cccccc;stroke-linejoin:miter;"/>
    </g>
    <g id="line2d_35">
     <path d="M 55.965625 35.416562 
L 75.965625 35.416562 
" style="fill:none;stroke:#1f77b4;stroke-linecap:square;stroke-width:1.5;"/>
    </g>
    <g id="line2d_36"/>
    <g id="text_20">
     <!-- Predicted -->
     <defs>
      <path d="M 45.40625 46.390625 
L 45.40625 75.984375 
L 54.390625 75.984375 
L 54.390625 0 
L 45.40625 0 
L 45.40625 8.203125 
Q 42.578125 3.328125 38.25 0.953125 
Q 33.9375 -1.421875 27.875 -1.421875 
Q 17.96875 -1.421875 11.734375 6.484375 
Q 5.515625 14.40625 5.515625 27.296875 
Q 5.515625 40.1875 11.734375 48.09375 
Q 17.96875 56 27.875 56 
Q 33.9375 56 38.25 53.625 
Q 42.578125 51.265625 45.40625 46.390625 
z
M 14.796875 27.296875 
Q 14.796875 17.390625 18.875 11.75 
Q 22.953125 6.109375 30.078125 6.109375 
Q 37.203125 6.109375 41.296875 11.75 
Q 45.40625 17.390625 45.40625 27.296875 
Q 45.40625 37.203125 41.296875 42.84375 
Q 37.203125 48.484375 30.078125 48.484375 
Q 22.953125 48.484375 18.875 42.84375 
Q 14.796875 37.203125 14.796875 27.296875 
z
" id="DejaVuSans-100"/>
      <path d="M 18.3125 70.21875 
L 18.3125 54.6875 
L 36.8125 54.6875 
L 36.8125 47.703125 
L 18.3125 47.703125 
L 18.3125 18.015625 
Q 18.3125 11.328125 20.140625 9.421875 
Q 21.96875 7.515625 27.59375 7.515625 
L 36.8125 7.515625 
L 36.8125 0 
L 27.59375 0 
Q 17.1875 0 13.234375 3.875 
Q 9.28125 7.765625 9.28125 18.015625 
L 9.28125 47.703125 
L 2.6875 47.703125 
L 2.6875 54.6875 
L 9.28125 54.6875 
L 9.28125 70.21875 
z
" id="DejaVuSans-116"/>
     </defs>
     <g transform="translate(83.965625 38.916562)scale(0.1 -0.1)">
      <use xlink:href="#DejaVuSans-80"/>
      <use x="58.552734" xlink:href="#DejaVuSans-114"/>
      <use x="97.416016" xlink:href="#DejaVuSans-101"/>
      <use x="158.939453" xlink:href="#DejaVuSans-100"/>
      <use x="222.416016" xlink:href="#DejaVuSans-105"/>
      <use x="250.199219" xlink:href="#DejaVuSans-99"/>
      <use x="305.179688" xlink:href="#DejaVuSans-116"/>
      <use x="344.388672" xlink:href="#DejaVuSans-101"/>
      <use x="405.912109" xlink:href="#DejaVuSans-100"/>
     </g>
    </g>
    <g id="line2d_37">
     <path d="M 55.965625 50.094687 
L 75.965625 50.094687 
" style="fill:none;stroke:#ff7f0e;stroke-linecap:square;stroke-width:1.5;"/>
    </g>
    <g id="line2d_38"/>
    <g id="text_21">
     <!-- True value -->
     <defs>
      <path d="M 8.5 21.578125 
L 8.5 54.6875 
L 17.484375 54.6875 
L 17.484375 21.921875 
Q 17.484375 14.15625 20.5 10.265625 
Q 23.53125 6.390625 29.59375 6.390625 
Q 36.859375 6.390625 41.078125 11.03125 
Q 45.3125 15.671875 45.3125 23.6875 
L 45.3125 54.6875 
L 54.296875 54.6875 
L 54.296875 0 
L 45.3125 0 
L 45.3125 8.40625 
Q 42.046875 3.421875 37.71875 1 
Q 33.40625 -1.421875 27.6875 -1.421875 
Q 18.265625 -1.421875 13.375 4.4375 
Q 8.5 10.296875 8.5 21.578125 
z
M 31.109375 56 
z
" id="DejaVuSans-117"/>
      <path d="M 2.984375 54.6875 
L 12.5 54.6875 
L 29.59375 8.796875 
L 46.6875 54.6875 
L 56.203125 54.6875 
L 35.6875 0 
L 23.484375 0 
z
" id="DejaVuSans-118"/>
      <path d="M 9.421875 75.984375 
L 18.40625 75.984375 
L 18.40625 0 
L 9.421875 0 
z
" id="DejaVuSans-108"/>
     </defs>
     <g transform="translate(83.965625 53.594687)scale(0.1 -0.1)">
      <use xlink:href="#DejaVuSans-84"/>
      <use x="46.333984" xlink:href="#DejaVuSans-114"/>
      <use x="87.447266" xlink:href="#DejaVuSans-117"/>
      <use x="150.826172" xlink:href="#DejaVuSans-101"/>
      <use x="212.349609" xlink:href="#DejaVuSans-32"/>
      <use x="244.136719" xlink:href="#DejaVuSans-118"/>
      <use x="303.316406" xlink:href="#DejaVuSans-97"/>
      <use x="364.595703" xlink:href="#DejaVuSans-108"/>
      <use x="392.378906" xlink:href="#DejaVuSans-117"/>
      <use x="455.757812" xlink:href="#DejaVuSans-101"/>
     </g>
    </g>
   </g>
  </g>
 </g>
 <defs>
  <clipPath id="pf74264ba4d">
   <rect height="266.112" width="357.12" x="46.965625" y="22.318125"/>
  </clipPath>
 </defs>
</svg>
