<?xml version="1.0" encoding="utf-8" standalone="no"?>
<!DOCTYPE svg PUBLIC "-//W3C//DTD SVG 1.1//EN"
  "http://www.w3.org/Graphics/SVG/1.1/DTD/svg11.dtd">
<!-- Created with matplotlib (https://matplotlib.org/) -->
<svg height="325.986375pt" version="1.1" viewBox="0 0 411.285625 325.986375" width="411.285625pt" xmlns="http://www.w3.org/2000/svg" xmlns:xlink="http://www.w3.org/1999/xlink">
 <defs>
  <style type="text/css">
*{stroke-linecap:butt;stroke-linejoin:round;}
  </style>
 </defs>
 <g id="figure_1">
  <g id="patch_1">
   <path d="M 0 325.986375 
L 411.285625 325.986375 
L 411.285625 0 
L 0 0 
z
" style="fill:#ffffff;"/>
  </g>
  <g id="axes_1">
   <g id="patch_2">
    <path d="M 46.965625 288.430125 
L 404.085625 288.430125 
L 404.085625 22.318125 
L 46.965625 22.318125 
z
" style="fill:#ffffff;"/>
   </g>
   <g id="matplotlib.axis_1">
    <g id="xtick_1">
     <g id="line2d_1">
      <path clip-path="url(#p5bbffdba60)" d="M 63.198352 288.430125 
L 63.198352 22.318125 
" style="fill:none;stroke:#b0b0b0;stroke-dasharray:2.96,1.28;stroke-dashoffset:0;stroke-width:0.8;"/>
     </g>
     <g id="line2d_2">
      <defs>
       <path d="M 0 0 
L 0 3.5 
" id="m1d0b434e94" style="stroke:#000000;stroke-width:0.8;"/>
      </defs>
      <g>
       <use style="stroke:#000000;stroke-width:0.8;" x="63.198352" xlink:href="#m1d0b434e94" y="288.430125"/>
      </g>
     </g>
     <g id="text_1">
      <!-- 0 -->
      <defs>
       <path d="M 31.78125 66.40625 
Q 24.171875 66.40625 20.328125 58.90625 
Q 16.5 51.421875 16.5 36.375 
Q 16.5 21.390625 20.328125 13.890625 
Q 24.171875 6.390625 31.78125 6.390625 
Q 39.453125 6.390625 43.28125 13.890625 
Q 47.125 21.390625 47.125 36.375 
Q 47.125 51.421875 43.28125 58.90625 
Q 39.453125 66.40625 31.78125 66.40625 
z
M 31.78125 74.21875 
Q 44.046875 74.21875 50.515625 64.515625 
Q 56.984375 54.828125 56.984375 36.375 
Q 56.984375 17.96875 50.515625 8.265625 
Q 44.046875 -1.421875 31.78125 -1.421875 
Q 19.53125 -1.421875 13.0625 8.265625 
Q 6.59375 17.96875 6.59375 36.375 
Q 6.59375 54.828125 13.0625 64.515625 
Q 19.53125 74.21875 31.78125 74.21875 
z
" id="DejaVuSans-48"/>
      </defs>
      <g transform="translate(60.017102 303.028562)scale(0.1 -0.1)">
       <use xlink:href="#DejaVuSans-48"/>
      </g>
     </g>
    </g>
    <g id="xtick_2">
     <g id="line2d_3">
      <path clip-path="url(#p5bbffdba60)" d="M 112.128954 288.430125 
L 112.128954 22.318125 
" style="fill:none;stroke:#b0b0b0;stroke-dasharray:2.96,1.28;stroke-dashoffset:0;stroke-width:0.8;"/>
     </g>
     <g id="line2d_4">
      <g>
       <use style="stroke:#000000;stroke-width:0.8;" x="112.128954" xlink:href="#m1d0b434e94" y="288.430125"/>
      </g>
     </g>
     <g id="text_2">
      <!-- 200 -->
      <defs>
       <path d="M 19.1875 8.296875 
L 53.609375 8.296875 
L 53.609375 0 
L 7.328125 0 
L 7.328125 8.296875 
Q 12.9375 14.109375 22.625 23.890625 
Q 32.328125 33.6875 34.8125 36.53125 
Q 39.546875 41.84375 41.421875 45.53125 
Q 43.3125 49.21875 43.3125 52.78125 
Q 43.3125 58.59375 39.234375 62.25 
Q 35.15625 65.921875 28.609375 65.921875 
Q 23.96875 65.921875 18.8125 64.3125 
Q 13.671875 62.703125 7.8125 59.421875 
L 7.8125 69.390625 
Q 13.765625 71.78125 18.9375 73 
Q 24.125 74.21875 28.421875 74.21875 
Q 39.75 74.21875 46.484375 68.546875 
Q 53.21875 62.890625 53.21875 53.421875 
Q 53.21875 48.921875 51.53125 44.890625 
Q 49.859375 40.875 45.40625 35.40625 
Q 44.1875 33.984375 37.640625 27.21875 
Q 31.109375 20.453125 19.1875 8.296875 
z
" id="DejaVuSans-50"/>
      </defs>
      <g transform="translate(102.585204 303.028562)scale(0.1 -0.1)">
       <use xlink:href="#DejaVuSans-50"/>
       <use x="63.623047" xlink:href="#DejaVuSans-48"/>
       <use x="127.246094" xlink:href="#DejaVuSans-48"/>
      </g>
     </g>
    </g>
    <g id="xtick_3">
     <g id="line2d_5">
      <path clip-path="url(#p5bbffdba60)" d="M 161.059557 288.430125 
L 161.059557 22.318125 
" style="fill:none;stroke:#b0b0b0;stroke-dasharray:2.96,1.28;stroke-dashoffset:0;stroke-width:0.8;"/>
     </g>
     <g id="line2d_6">
      <g>
       <use style="stroke:#000000;stroke-width:0.8;" x="161.059557" xlink:href="#m1d0b434e94" y="288.430125"/>
      </g>
     </g>
     <g id="text_3">
      <!-- 400 -->
      <defs>
       <path d="M 37.796875 64.3125 
L 12.890625 25.390625 
L 37.796875 25.390625 
z
M 35.203125 72.90625 
L 47.609375 72.90625 
L 47.609375 25.390625 
L 58.015625 25.390625 
L 58.015625 17.1875 
L 47.609375 17.1875 
L 47.609375 0 
L 37.796875 0 
L 37.796875 17.1875 
L 4.890625 17.1875 
L 4.890625 26.703125 
z
" id="DejaVuSans-52"/>
      </defs>
      <g transform="translate(151.515807 303.028562)scale(0.1 -0.1)">
       <use xlink:href="#DejaVuSans-52"/>
       <use x="63.623047" xlink:href="#DejaVuSans-48"/>
       <use x="127.246094" xlink:href="#DejaVuSans-48"/>
      </g>
     </g>
    </g>
    <g id="xtick_4">
     <g id="line2d_7">
      <path clip-path="url(#p5bbffdba60)" d="M 209.990159 288.430125 
L 209.990159 22.318125 
" style="fill:none;stroke:#b0b0b0;stroke-dasharray:2.96,1.28;stroke-dashoffset:0;stroke-width:0.8;"/>
     </g>
     <g id="line2d_8">
      <g>
       <use style="stroke:#000000;stroke-width:0.8;" x="209.990159" xlink:href="#m1d0b434e94" y="288.430125"/>
      </g>
     </g>
     <g id="text_4">
      <!-- 600 -->
      <defs>
       <path d="M 33.015625 40.375 
Q 26.375 40.375 22.484375 35.828125 
Q 18.609375 31.296875 18.609375 23.390625 
Q 18.609375 15.53125 22.484375 10.953125 
Q 26.375 6.390625 33.015625 6.390625 
Q 39.65625 6.390625 43.53125 10.953125 
Q 47.40625 15.53125 47.40625 23.390625 
Q 47.40625 31.296875 43.53125 35.828125 
Q 39.65625 40.375 33.015625 40.375 
z
M 52.59375 71.296875 
L 52.59375 62.3125 
Q 48.875 64.0625 45.09375 64.984375 
Q 41.3125 65.921875 37.59375 65.921875 
Q 27.828125 65.921875 22.671875 59.328125 
Q 17.53125 52.734375 16.796875 39.40625 
Q 19.671875 43.65625 24.015625 45.921875 
Q 28.375 48.1875 33.59375 48.1875 
Q 44.578125 48.1875 50.953125 41.515625 
Q 57.328125 34.859375 57.328125 23.390625 
Q 57.328125 12.15625 50.6875 5.359375 
Q 44.046875 -1.421875 33.015625 -1.421875 
Q 20.359375 -1.421875 13.671875 8.265625 
Q 6.984375 17.96875 6.984375 36.375 
Q 6.984375 53.65625 15.1875 63.9375 
Q 23.390625 74.21875 37.203125 74.21875 
Q 40.921875 74.21875 44.703125 73.484375 
Q 48.484375 72.75 52.59375 71.296875 
z
" id="DejaVuSans-54"/>
      </defs>
      <g transform="translate(200.446409 303.028562)scale(0.1 -0.1)">
       <use xlink:href="#DejaVuSans-54"/>
       <use x="63.623047" xlink:href="#DejaVuSans-48"/>
       <use x="127.246094" xlink:href="#DejaVuSans-48"/>
      </g>
     </g>
    </g>
    <g id="xtick_5">
     <g id="line2d_9">
      <path clip-path="url(#p5bbffdba60)" d="M 258.920761 288.430125 
L 258.920761 22.318125 
" style="fill:none;stroke:#b0b0b0;stroke-dasharray:2.96,1.28;stroke-dashoffset:0;stroke-width:0.8;"/>
     </g>
     <g id="line2d_10">
      <g>
       <use style="stroke:#000000;stroke-width:0.8;" x="258.920761" xlink:href="#m1d0b434e94" y="288.430125"/>
      </g>
     </g>
     <g id="text_5">
      <!-- 800 -->
      <defs>
       <path d="M 31.78125 34.625 
Q 24.75 34.625 20.71875 30.859375 
Q 16.703125 27.09375 16.703125 20.515625 
Q 16.703125 13.921875 20.71875 10.15625 
Q 24.75 6.390625 31.78125 6.390625 
Q 38.8125 6.390625 42.859375 10.171875 
Q 46.921875 13.96875 46.921875 20.515625 
Q 46.921875 27.09375 42.890625 30.859375 
Q 38.875 34.625 31.78125 34.625 
z
M 21.921875 38.8125 
Q 15.578125 40.375 12.03125 44.71875 
Q 8.5 49.078125 8.5 55.328125 
Q 8.5 64.0625 14.71875 69.140625 
Q 20.953125 74.21875 31.78125 74.21875 
Q 42.671875 74.21875 48.875 69.140625 
Q 55.078125 64.0625 55.078125 55.328125 
Q 55.078125 49.078125 51.53125 44.71875 
Q 48 40.375 41.703125 38.8125 
Q 48.828125 37.15625 52.796875 32.3125 
Q 56.78125 27.484375 56.78125 20.515625 
Q 56.78125 9.90625 50.3125 4.234375 
Q 43.84375 -1.421875 31.78125 -1.421875 
Q 19.734375 -1.421875 13.25 4.234375 
Q 6.78125 9.90625 6.78125 20.515625 
Q 6.78125 27.484375 10.78125 32.3125 
Q 14.796875 37.15625 21.921875 38.8125 
z
M 18.3125 54.390625 
Q 18.3125 48.734375 21.84375 45.5625 
Q 25.390625 42.390625 31.78125 42.390625 
Q 38.140625 42.390625 41.71875 45.5625 
Q 45.3125 48.734375 45.3125 54.390625 
Q 45.3125 60.0625 41.71875 63.234375 
Q 38.140625 66.40625 31.78125 66.40625 
Q 25.390625 66.40625 21.84375 63.234375 
Q 18.3125 60.0625 18.3125 54.390625 
z
" id="DejaVuSans-56"/>
      </defs>
      <g transform="translate(249.377011 303.028562)scale(0.1 -0.1)">
       <use xlink:href="#DejaVuSans-56"/>
       <use x="63.623047" xlink:href="#DejaVuSans-48"/>
       <use x="127.246094" xlink:href="#DejaVuSans-48"/>
      </g>
     </g>
    </g>
    <g id="xtick_6">
     <g id="line2d_11">
      <path clip-path="url(#p5bbffdba60)" d="M 307.851363 288.430125 
L 307.851363 22.318125 
" style="fill:none;stroke:#b0b0b0;stroke-dasharray:2.96,1.28;stroke-dashoffset:0;stroke-width:0.8;"/>
     </g>
     <g id="line2d_12">
      <g>
       <use style="stroke:#000000;stroke-width:0.8;" x="307.851363" xlink:href="#m1d0b434e94" y="288.430125"/>
      </g>
     </g>
     <g id="text_6">
      <!-- 1000 -->
      <defs>
       <path d="M 12.40625 8.296875 
L 28.515625 8.296875 
L 28.515625 63.921875 
L 10.984375 60.40625 
L 10.984375 69.390625 
L 28.421875 72.90625 
L 38.28125 72.90625 
L 38.28125 8.296875 
L 54.390625 8.296875 
L 54.390625 0 
L 12.40625 0 
z
" id="DejaVuSans-49"/>
      </defs>
      <g transform="translate(295.126363 303.028562)scale(0.1 -0.1)">
       <use xlink:href="#DejaVuSans-49"/>
       <use x="63.623047" xlink:href="#DejaVuSans-48"/>
       <use x="127.246094" xlink:href="#DejaVuSans-48"/>
       <use x="190.869141" xlink:href="#DejaVuSans-48"/>
      </g>
     </g>
    </g>
    <g id="xtick_7">
     <g id="line2d_13">
      <path clip-path="url(#p5bbffdba60)" d="M 356.781965 288.430125 
L 356.781965 22.318125 
" style="fill:none;stroke:#b0b0b0;stroke-dasharray:2.96,1.28;stroke-dashoffset:0;stroke-width:0.8;"/>
     </g>
     <g id="line2d_14">
      <g>
       <use style="stroke:#000000;stroke-width:0.8;" x="356.781965" xlink:href="#m1d0b434e94" y="288.430125"/>
      </g>
     </g>
     <g id="text_7">
      <!-- 1200 -->
      <g transform="translate(344.056965 303.028562)scale(0.1 -0.1)">
       <use xlink:href="#DejaVuSans-49"/>
       <use x="63.623047" xlink:href="#DejaVuSans-50"/>
       <use x="127.246094" xlink:href="#DejaVuSans-48"/>
       <use x="190.869141" xlink:href="#DejaVuSans-48"/>
      </g>
     </g>
    </g>
    <g id="text_8">
     <!-- Day -->
     <defs>
      <path d="M 19.671875 64.796875 
L 19.671875 8.109375 
L 31.59375 8.109375 
Q 46.6875 8.109375 53.6875 14.9375 
Q 60.6875 21.78125 60.6875 36.53125 
Q 60.6875 51.171875 53.6875 57.984375 
Q 46.6875 64.796875 31.59375 64.796875 
z
M 9.8125 72.90625 
L 30.078125 72.90625 
Q 51.265625 72.90625 61.171875 64.09375 
Q 71.09375 55.28125 71.09375 36.53125 
Q 71.09375 17.671875 61.125 8.828125 
Q 51.171875 0 30.078125 0 
L 9.8125 0 
z
" id="DejaVuSans-68"/>
      <path d="M 34.28125 27.484375 
Q 23.390625 27.484375 19.1875 25 
Q 14.984375 22.515625 14.984375 16.5 
Q 14.984375 11.71875 18.140625 8.90625 
Q 21.296875 6.109375 26.703125 6.109375 
Q 34.1875 6.109375 38.703125 11.40625 
Q 43.21875 16.703125 43.21875 25.484375 
L 43.21875 27.484375 
z
M 52.203125 31.203125 
L 52.203125 0 
L 43.21875 0 
L 43.21875 8.296875 
Q 40.140625 3.328125 35.546875 0.953125 
Q 30.953125 -1.421875 24.3125 -1.421875 
Q 15.921875 -1.421875 10.953125 3.296875 
Q 6 8.015625 6 15.921875 
Q 6 25.140625 12.171875 29.828125 
Q 18.359375 34.515625 30.609375 34.515625 
L 43.21875 34.515625 
L 43.21875 35.40625 
Q 43.21875 41.609375 39.140625 45 
Q 35.0625 48.390625 27.6875 48.390625 
Q 23 48.390625 18.546875 47.265625 
Q 14.109375 46.140625 10.015625 43.890625 
L 10.015625 52.203125 
Q 14.9375 54.109375 19.578125 55.046875 
Q 24.21875 56 28.609375 56 
Q 40.484375 56 46.34375 49.84375 
Q 52.203125 43.703125 52.203125 31.203125 
z
" id="DejaVuSans-97"/>
      <path d="M 32.171875 -5.078125 
Q 28.375 -14.84375 24.75 -17.8125 
Q 21.140625 -20.796875 15.09375 -20.796875 
L 7.90625 -20.796875 
L 7.90625 -13.28125 
L 13.1875 -13.28125 
Q 16.890625 -13.28125 18.9375 -11.515625 
Q 21 -9.765625 23.484375 -3.21875 
L 25.09375 0.875 
L 2.984375 54.6875 
L 12.5 54.6875 
L 29.59375 11.921875 
L 46.6875 54.6875 
L 56.203125 54.6875 
z
" id="DejaVuSans-121"/>
     </defs>
     <g transform="translate(215.652188 316.706687)scale(0.1 -0.1)">
      <use xlink:href="#DejaVuSans-68"/>
      <use x="77.001953" xlink:href="#DejaVuSans-97"/>
      <use x="138.28125" xlink:href="#DejaVuSans-121"/>
     </g>
    </g>
   </g>
   <g id="matplotlib.axis_2">
    <g id="ytick_1">
     <g id="line2d_15">
      <path clip-path="url(#p5bbffdba60)" d="M 46.965625 267.34797 
L 404.085625 267.34797 
" style="fill:none;stroke:#b0b0b0;stroke-dasharray:2.96,1.28;stroke-dashoffset:0;stroke-width:0.8;"/>
     </g>
     <g id="line2d_16">
      <defs>
       <path d="M 0 0 
L -3.5 0 
" id="m5799a11b7f" style="stroke:#000000;stroke-width:0.8;"/>
      </defs>
      <g>
       <use style="stroke:#000000;stroke-width:0.8;" x="46.965625" xlink:href="#m5799a11b7f" y="267.34797"/>
      </g>
     </g>
     <g id="text_9">
      <!-- 60 -->
      <g transform="translate(27.240625 271.147189)scale(0.1 -0.1)">
       <use xlink:href="#DejaVuSans-54"/>
       <use x="63.623047" xlink:href="#DejaVuSans-48"/>
      </g>
     </g>
    </g>
    <g id="ytick_2">
     <g id="line2d_17">
      <path clip-path="url(#p5bbffdba60)" d="M 46.965625 224.658396 
L 404.085625 224.658396 
" style="fill:none;stroke:#b0b0b0;stroke-dasharray:2.96,1.28;stroke-dashoffset:0;stroke-width:0.8;"/>
     </g>
     <g id="line2d_18">
      <g>
       <use style="stroke:#000000;stroke-width:0.8;" x="46.965625" xlink:href="#m5799a11b7f" y="224.658396"/>
      </g>
     </g>
     <g id="text_10">
      <!-- 80 -->
      <g transform="translate(27.240625 228.457615)scale(0.1 -0.1)">
       <use xlink:href="#DejaVuSans-56"/>
       <use x="63.623047" xlink:href="#DejaVuSans-48"/>
      </g>
     </g>
    </g>
    <g id="ytick_3">
     <g id="line2d_19">
      <path clip-path="url(#p5bbffdba60)" d="M 46.965625 181.968823 
L 404.085625 181.968823 
" style="fill:none;stroke:#b0b0b0;stroke-dasharray:2.96,1.28;stroke-dashoffset:0;stroke-width:0.8;"/>
     </g>
     <g id="line2d_20">
      <g>
       <use style="stroke:#000000;stroke-width:0.8;" x="46.965625" xlink:href="#m5799a11b7f" y="181.968823"/>
      </g>
     </g>
     <g id="text_11">
      <!-- 100 -->
      <g transform="translate(20.878125 185.768041)scale(0.1 -0.1)">
       <use xlink:href="#DejaVuSans-49"/>
       <use x="63.623047" xlink:href="#DejaVuSans-48"/>
       <use x="127.246094" xlink:href="#DejaVuSans-48"/>
      </g>
     </g>
    </g>
    <g id="ytick_4">
     <g id="line2d_21">
      <path clip-path="url(#p5bbffdba60)" d="M 46.965625 139.279249 
L 404.085625 139.279249 
" style="fill:none;stroke:#b0b0b0;stroke-dasharray:2.96,1.28;stroke-dashoffset:0;stroke-width:0.8;"/>
     </g>
     <g id="line2d_22">
      <g>
       <use style="stroke:#000000;stroke-width:0.8;" x="46.965625" xlink:href="#m5799a11b7f" y="139.279249"/>
      </g>
     </g>
     <g id="text_12">
      <!-- 120 -->
      <g transform="translate(20.878125 143.078468)scale(0.1 -0.1)">
       <use xlink:href="#DejaVuSans-49"/>
       <use x="63.623047" xlink:href="#DejaVuSans-50"/>
       <use x="127.246094" xlink:href="#DejaVuSans-48"/>
      </g>
     </g>
    </g>
    <g id="ytick_5">
     <g id="line2d_23">
      <path clip-path="url(#p5bbffdba60)" d="M 46.965625 96.589675 
L 404.085625 96.589675 
" style="fill:none;stroke:#b0b0b0;stroke-dasharray:2.96,1.28;stroke-dashoffset:0;stroke-width:0.8;"/>
     </g>
     <g id="line2d_24">
      <g>
       <use style="stroke:#000000;stroke-width:0.8;" x="46.965625" xlink:href="#m5799a11b7f" y="96.589675"/>
      </g>
     </g>
     <g id="text_13">
      <!-- 140 -->
      <g transform="translate(20.878125 100.388894)scale(0.1 -0.1)">
       <use xlink:href="#DejaVuSans-49"/>
       <use x="63.623047" xlink:href="#DejaVuSans-52"/>
       <use x="127.246094" xlink:href="#DejaVuSans-48"/>
      </g>
     </g>
    </g>
    <g id="ytick_6">
     <g id="line2d_25">
      <path clip-path="url(#p5bbffdba60)" d="M 46.965625 53.900102 
L 404.085625 53.900102 
" style="fill:none;stroke:#b0b0b0;stroke-dasharray:2.96,1.28;stroke-dashoffset:0;stroke-width:0.8;"/>
     </g>
     <g id="line2d_26">
      <g>
       <use style="stroke:#000000;stroke-width:0.8;" x="46.965625" xlink:href="#m5799a11b7f" y="53.900102"/>
      </g>
     </g>
     <g id="text_14">
      <!-- 160 -->
      <g transform="translate(20.878125 57.699321)scale(0.1 -0.1)">
       <use xlink:href="#DejaVuSans-49"/>
       <use x="63.623047" xlink:href="#DejaVuSans-54"/>
       <use x="127.246094" xlink:href="#DejaVuSans-48"/>
      </g>
     </g>
    </g>
    <g id="text_15">
     <!-- Price $ -->
     <defs>
      <path d="M 19.671875 64.796875 
L 19.671875 37.40625 
L 32.078125 37.40625 
Q 38.96875 37.40625 42.71875 40.96875 
Q 46.484375 44.53125 46.484375 51.125 
Q 46.484375 57.671875 42.71875 61.234375 
Q 38.96875 64.796875 32.078125 64.796875 
z
M 9.8125 72.90625 
L 32.078125 72.90625 
Q 44.34375 72.90625 50.609375 67.359375 
Q 56.890625 61.8125 56.890625 51.125 
Q 56.890625 40.328125 50.609375 34.8125 
Q 44.34375 29.296875 32.078125 29.296875 
L 19.671875 29.296875 
L 19.671875 0 
L 9.8125 0 
z
" id="DejaVuSans-80"/>
      <path d="M 41.109375 46.296875 
Q 39.59375 47.171875 37.8125 47.578125 
Q 36.03125 48 33.890625 48 
Q 26.265625 48 22.1875 43.046875 
Q 18.109375 38.09375 18.109375 28.8125 
L 18.109375 0 
L 9.078125 0 
L 9.078125 54.6875 
L 18.109375 54.6875 
L 18.109375 46.1875 
Q 20.953125 51.171875 25.484375 53.578125 
Q 30.03125 56 36.53125 56 
Q 37.453125 56 38.578125 55.875 
Q 39.703125 55.765625 41.0625 55.515625 
z
" id="DejaVuSans-114"/>
      <path d="M 9.421875 54.6875 
L 18.40625 54.6875 
L 18.40625 0 
L 9.421875 0 
z
M 9.421875 75.984375 
L 18.40625 75.984375 
L 18.40625 64.59375 
L 9.421875 64.59375 
z
" id="DejaVuSans-105"/>
      <path d="M 48.78125 52.59375 
L 48.78125 44.1875 
Q 44.96875 46.296875 41.140625 47.34375 
Q 37.3125 48.390625 33.40625 48.390625 
Q 24.65625 48.390625 19.8125 42.84375 
Q 14.984375 37.3125 14.984375 27.296875 
Q 14.984375 17.28125 19.8125 11.734375 
Q 24.65625 6.203125 33.40625 6.203125 
Q 37.3125 6.203125 41.140625 7.25 
Q 44.96875 8.296875 48.78125 10.40625 
L 48.78125 2.09375 
Q 45.015625 0.34375 40.984375 -0.53125 
Q 36.96875 -1.421875 32.421875 -1.421875 
Q 20.0625 -1.421875 12.78125 6.34375 
Q 5.515625 14.109375 5.515625 27.296875 
Q 5.515625 40.671875 12.859375 48.328125 
Q 20.21875 56 33.015625 56 
Q 37.15625 56 41.109375 55.140625 
Q 45.0625 54.296875 48.78125 52.59375 
z
" id="DejaVuSans-99"/>
      <path d="M 56.203125 29.59375 
L 56.203125 25.203125 
L 14.890625 25.203125 
Q 15.484375 15.921875 20.484375 11.0625 
Q 25.484375 6.203125 34.421875 6.203125 
Q 39.59375 6.203125 44.453125 7.46875 
Q 49.3125 8.734375 54.109375 11.28125 
L 54.109375 2.78125 
Q 49.265625 0.734375 44.1875 -0.34375 
Q 39.109375 -1.421875 33.890625 -1.421875 
Q 20.796875 -1.421875 13.15625 6.1875 
Q 5.515625 13.8125 5.515625 26.8125 
Q 5.515625 40.234375 12.765625 48.109375 
Q 20.015625 56 32.328125 56 
Q 43.359375 56 49.78125 48.890625 
Q 56.203125 41.796875 56.203125 29.59375 
z
M 47.21875 32.234375 
Q 47.125 39.59375 43.09375 43.984375 
Q 39.0625 48.390625 32.421875 48.390625 
Q 24.90625 48.390625 20.390625 44.140625 
Q 15.875 39.890625 15.1875 32.171875 
z
" id="DejaVuSans-101"/>
      <path id="DejaVuSans-32"/>
      <path d="M 33.796875 -14.703125 
L 28.90625 -14.703125 
L 28.859375 0 
Q 23.734375 0.09375 18.609375 1.1875 
Q 13.484375 2.296875 8.296875 4.5 
L 8.296875 13.28125 
Q 13.28125 10.15625 18.375 8.5625 
Q 23.484375 6.984375 28.90625 6.9375 
L 28.90625 29.203125 
Q 18.109375 30.953125 13.203125 35.15625 
Q 8.296875 39.359375 8.296875 46.6875 
Q 8.296875 54.640625 13.625 59.21875 
Q 18.953125 63.8125 28.90625 64.5 
L 28.90625 75.984375 
L 33.796875 75.984375 
L 33.796875 64.65625 
Q 38.328125 64.453125 42.578125 63.6875 
Q 46.828125 62.9375 50.875 61.625 
L 50.875 53.078125 
Q 46.828125 55.125 42.546875 56.25 
Q 38.28125 57.375 33.796875 57.5625 
L 33.796875 36.71875 
Q 44.875 35.015625 50.09375 30.609375 
Q 55.328125 26.21875 55.328125 18.609375 
Q 55.328125 10.359375 49.78125 5.59375 
Q 44.234375 0.828125 33.796875 0.09375 
z
M 28.90625 37.59375 
L 28.90625 57.625 
Q 23.25 56.984375 20.265625 54.390625 
Q 17.28125 51.8125 17.28125 47.515625 
Q 17.28125 43.3125 20.03125 40.96875 
Q 22.796875 38.625 28.90625 37.59375 
z
M 33.796875 28.21875 
L 33.796875 7.078125 
Q 39.984375 7.90625 43.140625 10.59375 
Q 46.296875 13.28125 46.296875 17.671875 
Q 46.296875 21.96875 43.28125 24.5 
Q 40.28125 27.046875 33.796875 28.21875 
z
" id="DejaVuSans-36"/>
     </defs>
     <g transform="translate(14.798438 172.342094)rotate(-90)scale(0.1 -0.1)">
      <use xlink:href="#DejaVuSans-80"/>
      <use x="58.552734" xlink:href="#DejaVuSans-114"/>
      <use x="99.666016" xlink:href="#DejaVuSans-105"/>
      <use x="127.449219" xlink:href="#DejaVuSans-99"/>
      <use x="182.429688" xlink:href="#DejaVuSans-101"/>
      <use x="243.953125" xlink:href="#DejaVuSans-32"/>
      <use x="275.740234" xlink:href="#DejaVuSans-36"/>
     </g>
    </g>
   </g>
   <g id="line2d_27">
    <path clip-path="url(#p5bbffdba60)" d="M 63.198352 218.423133 
L 63.443005 217.135333 
L 63.932311 208.970274 
L 64.176964 210.616747 
L 64.421617 209.789887 
L 64.910923 205.027241 
L 65.155576 206.000517 
L 65.400229 206.202676 
L 65.644882 205.976871 
L 65.889535 206.223895 
L 66.134188 203.746899 
L 66.378841 202.955019 
L 66.623494 203.795248 
L 66.868147 201.846937 
L 67.357453 192.997625 
L 67.602106 195.668394 
L 67.846759 192.166384 
L 68.091412 193.455471 
L 68.336066 193.361801 
L 68.580719 189.013651 
L 68.825372 190.577202 
L 69.070025 190.889609 
L 69.314678 193.675039 
L 69.559331 193.25582 
L 69.803984 190.402547 
L 70.048637 191.962385 
L 70.537943 187.647277 
L 70.782596 193.028012 
L 71.027249 193.362111 
L 71.271902 191.259338 
L 71.761208 184.366594 
L 72.005861 182.541037 
L 72.250514 181.863265 
L 72.495167 181.627119 
L 72.73982 183.075569 
L 72.984473 181.826135 
L 73.718432 192.184721 
L 73.963085 187.788775 
L 74.207738 191.92436 
L 74.452391 193.953883 
L 74.697044 194.016889 
L 74.941697 191.005833 
L 75.18635 192.614818 
L 75.675656 201.288239 
L 75.920309 202.068166 
L 76.164962 199.690067 
L 76.409615 203.573563 
L 76.654268 203.097869 
L 76.898921 202.059812 
L 77.143574 197.700751 
L 77.388227 198.823798 
L 77.63288 202.245654 
L 77.877533 208.718056 
L 78.122186 201.733481 
L 78.366839 208.0559 
L 78.611492 206.742321 
L 79.345451 214.260255 
L 79.590104 212.653892 
L 79.834757 219.771317 
L 80.07941 217.487002 
L 80.324063 219.017886 
L 80.813369 232.251028 
L 81.058022 228.811878 
L 81.302675 229.790251 
L 81.547328 229.320403 
L 81.791981 231.483983 
L 82.036634 235.014116 
L 82.281287 235.156836 
L 82.52594 223.342619 
L 82.770593 224.638252 
L 83.015246 223.976911 
L 83.259899 221.045031 
L 83.504552 215.796675 
L 83.749205 217.506023 
L 83.993858 218.088513 
L 84.238511 215.301145 
L 84.483164 217.374882 
L 84.727817 216.313749 
L 84.97247 219.982352 
L 85.217123 230.829579 
L 85.461776 228.764473 
L 85.706429 232.577489 
L 85.951082 233.229011 
L 86.195735 229.258716 
L 86.440388 231.104759 
L 86.685041 234.112753 
L 86.929694 240.228046 
L 87.419 232.902159 
L 87.908306 236.270096 
L 88.152959 237.43506 
L 88.397612 236.381484 
L 88.642265 238.90665 
L 88.886918 238.553499 
L 89.131571 239.891538 
L 89.620877 227.685525 
L 89.86553 229.884671 
L 90.110183 234.417572 
L 90.354836 235.417099 
L 90.599489 234.581348 
L 90.844143 237.286575 
L 91.088796 235.569655 
L 91.333449 236.694216 
L 91.822755 247.176648 
L 92.067408 240.640898 
L 92.556714 242.994944 
L 92.801367 241.505766 
L 93.04602 238.898394 
L 93.290673 259.286654 
L 93.535326 260.622738 
L 94.024632 255.103737 
L 94.269285 255.968703 
L 94.758591 257.042147 
L 95.003244 259.658769 
L 95.247897 255.348872 
L 95.49255 255.222599 
L 95.981856 249.972338 
L 96.226509 248.922246 
L 96.471162 252.242843 
L 96.960468 252.319333 
L 97.205121 254.291924 
L 97.449774 254.756268 
L 97.694427 257.964745 
L 97.93908 258.795822 
L 98.183733 257.646719 
L 98.428386 259.964841 
L 98.673039 258.460079 
L 99.162345 260.128235 
L 99.651651 266.64691 
L 99.896304 262.985367 
L 100.140957 264.648108 
L 100.874916 262.173049 
L 101.119569 264.472639 
L 101.364222 264.178178 
L 101.608875 262.500895 
L 102.098181 256.479508 
L 102.342834 257.044964 
L 102.587487 257.121877 
L 102.83214 256.520382 
L 103.076793 254.175537 
L 103.321446 253.695983 
L 103.566099 254.300734 
L 104.300058 263.81348 
L 104.544711 263.662716 
L 104.789364 263.005918 
L 105.27867 266.126562 
L 105.523323 265.218987 
L 105.767976 264.994998 
L 106.012629 262.563941 
L 106.257282 262.845969 
L 106.501935 264.102812 
L 106.746588 266.848328 
L 106.991241 265.048608 
L 107.235894 272.574578 
L 107.480547 274.910337 
L 107.7252 275.240364 
L 108.214506 270.917724 
L 108.459159 271.435954 
L 108.948465 267.71279 
L 109.437771 260.184124 
L 109.682424 260.967902 
L 110.416383 254.483547 
L 110.661036 255.804064 
L 110.905689 253.853864 
L 111.150342 255.988522 
L 111.394995 256.771657 
L 111.639648 256.108003 
L 112.128954 264.564852 
L 112.373607 262.585991 
L 112.61826 262.671583 
L 112.862913 260.013109 
L 113.107566 261.096463 
L 113.35222 260.159558 
L 113.596873 260.215114 
L 113.841526 259.432272 
L 114.086179 260.259783 
L 114.330832 259.504446 
L 114.575485 257.229699 
L 114.820138 257.769669 
L 115.309444 258.116877 
L 115.554097 259.265296 
L 115.79875 261.32243 
L 116.043403 260.7143 
L 116.532709 261.456918 
L 116.777362 262.913022 
L 117.022015 262.336825 
L 117.266668 264.145543 
L 117.511321 263.225176 
L 117.755974 263.493102 
L 118.24528 267.511754 
L 118.489933 268.892272 
L 118.734586 272.281143 
L 118.979239 272.150075 
L 119.468545 274.658631 
L 119.713198 274.208129 
L 119.957851 269.840958 
L 120.202504 267.583537 
L 120.447157 266.813487 
L 120.936463 268.498473 
L 121.181116 266.357334 
L 121.425769 266.692165 
L 121.670422 264.840789 
L 121.915075 265.164205 
L 122.159728 264.900872 
L 122.404381 264.328071 
L 122.649034 264.274079 
L 122.893687 263.646016 
L 123.13834 265.874735 
L 123.382993 265.146658 
L 123.627646 267.231354 
L 123.872299 260.317382 
L 124.116952 261.498656 
L 124.361605 261.267257 
L 124.850911 257.157818 
L 125.095564 257.29163 
L 125.58487 254.341397 
L 125.829523 252.519766 
L 126.074176 253.581761 
L 126.318829 253.59588 
L 126.563482 254.760519 
L 126.808135 256.527971 
L 127.052788 252.668446 
L 127.297441 246.08762 
L 127.542094 243.1397 
L 127.786747 243.804331 
L 128.276053 240.138187 
L 128.520706 242.29009 
L 128.765359 241.788291 
L 129.010012 241.907724 
L 129.254665 242.586766 
L 129.499318 241.529379 
L 129.743971 246.120303 
L 129.988624 245.352427 
L 130.233277 244.971803 
L 130.47793 246.561425 
L 130.722583 245.68817 
L 130.967236 242.670128 
L 131.211889 244.257292 
L 131.456542 243.695597 
L 131.701195 240.85304 
L 131.945848 244.7523 
L 132.190501 253.043256 
L 132.435154 250.646495 
L 132.679807 252.928025 
L 132.92446 257.754818 
L 133.169113 256.065842 
L 133.658419 250.902166 
L 133.903072 252.425509 
L 134.147725 245.29061 
L 134.392378 245.812211 
L 134.637031 248.077131 
L 134.881684 246.470182 
L 135.37099 249.869564 
L 135.615643 246.482867 
L 135.860297 246.045572 
L 136.10495 247.788141 
L 136.349603 248.070047 
L 136.594256 246.073436 
L 136.838909 248.128021 
L 137.328215 245.972633 
L 137.572868 245.362605 
L 138.796133 240.228437 
L 139.040786 236.312729 
L 139.285439 237.257963 
L 139.774745 233.116467 
L 140.019398 234.855697 
L 140.264051 233.874474 
L 140.508704 237.451882 
L 140.753357 234.787708 
L 141.242663 236.733886 
L 141.487316 234.527136 
L 141.731969 234.997098 
L 142.221275 238.765136 
L 142.465928 236.3282 
L 142.710581 237.266268 
L 142.955234 236.503587 
L 143.199887 236.602712 
L 143.44454 234.373424 
L 143.689193 235.265178 
L 143.933846 236.926568 
L 144.178499 236.476017 
L 144.423152 237.966905 
L 144.667805 236.319553 
L 144.912458 236.918718 
L 145.157111 235.469487 
L 145.89107 225.889982 
L 146.135723 226.935774 
L 146.380376 222.187962 
L 146.625029 222.836976 
L 146.869682 221.693019 
L 147.114335 224.367143 
L 147.358988 222.214034 
L 148.092947 223.879886 
L 148.3376 225.801881 
L 148.582253 224.632308 
L 148.826906 225.880276 
L 149.316212 229.024704 
L 149.560865 227.439267 
L 149.805518 220.87238 
L 150.050171 222.45842 
L 150.539477 224.191821 
L 150.78413 225.858796 
L 151.028783 224.019593 
L 151.518089 229.906867 
L 151.762742 229.278844 
L 152.007395 230.325223 
L 152.252048 229.135799 
L 152.496701 231.339797 
L 152.741354 232.263649 
L 152.986007 231.417866 
L 153.475313 225.232386 
L 153.719966 226.434887 
L 153.964619 230.426449 
L 154.209272 227.637664 
L 154.698578 225.958296 
L 154.943231 228.815591 
L 155.187884 227.215953 
L 155.432537 241.638211 
L 155.67719 242.373029 
L 155.921843 242.132177 
L 156.166496 242.359903 
L 156.411149 242.137355 
L 156.655802 240.276135 
L 156.900455 239.493114 
L 157.145108 239.259688 
L 157.879067 231.661812 
L 158.12372 231.646423 
L 158.368374 229.173319 
L 158.613027 229.230283 
L 158.85768 228.147769 
L 159.346986 233.22279 
L 159.591639 234.539024 
L 159.836292 233.72625 
L 160.080945 235.971286 
L 160.325598 237.12192 
L 160.570251 234.091616 
L 160.814904 234.710258 
L 161.059557 234.212546 
L 161.30421 232.923378 
L 161.548863 232.776424 
L 161.793516 233.230916 
L 162.038169 233.355771 
L 162.282822 233.033724 
L 162.527475 231.577473 
L 162.772128 231.86104 
L 163.261434 235.198704 
L 163.75074 233.242804 
L 164.240046 233.96746 
L 164.484699 232.676224 
L 164.974005 229.504682 
L 165.218658 230.814238 
L 165.463311 231.34737 
L 165.707964 231.384662 
L 165.952617 231.188805 
L 166.19727 230.083491 
L 166.441923 230.247186 
L 166.931229 232.937546 
L 167.175882 235.454798 
L 167.420535 235.687345 
L 167.665188 233.620285 
L 168.154494 236.70161 
L 168.399147 236.170091 
L 168.6438 237.579278 
L 168.888453 237.167615 
L 169.377759 233.459506 
L 169.622412 233.444605 
L 169.867065 235.244887 
L 170.111718 220.311272 
L 170.356371 221.186628 
L 170.601024 214.458261 
L 170.845677 214.551964 
L 171.09033 214.338503 
L 171.334983 214.346743 
L 171.579636 214.012352 
L 171.824289 212.156636 
L 172.068942 213.823986 
L 172.313595 214.462772 
L 172.802901 216.561897 
L 173.047554 214.243807 
L 173.292207 214.080341 
L 173.53686 213.763097 
L 173.781513 215.045344 
L 174.270819 210.417633 
L 174.515472 210.534037 
L 175.004778 209.451441 
L 175.249431 207.682181 
L 175.494084 204.165059 
L 175.738737 204.362675 
L 175.98339 201.031916 
L 176.228043 201.393276 
L 176.472696 202.981221 
L 176.962002 198.102366 
L 177.206655 197.492273 
L 177.451308 197.75195 
L 177.940614 193.443616 
L 178.185267 194.43334 
L 178.674573 199.736495 
L 178.919226 197.613106 
L 179.163879 198.1521 
L 179.408532 198.091455 
L 179.653185 198.883807 
L 179.897838 200.311315 
L 180.142491 200.824399 
L 180.387144 201.713955 
L 180.631798 202.020028 
L 180.876451 201.081601 
L 181.365757 196.702494 
L 181.61041 195.326983 
L 181.855063 195.515724 
L 182.099716 194.336641 
L 182.344369 190.551292 
L 182.589022 192.206624 
L 182.833675 191.459934 
L 183.078328 192.671408 
L 183.322981 191.338271 
L 183.567634 188.879969 
L 183.812287 191.655238 
L 184.05694 192.140817 
L 184.301593 195.918072 
L 184.546246 193.335876 
L 184.790899 194.266502 
L 185.035552 192.92392 
L 185.280205 187.343321 
L 185.524858 188.151079 
L 185.769511 186.846277 
L 186.014164 183.687567 
L 186.50347 185.446535 
L 186.748123 191.02018 
L 186.992776 189.862544 
L 187.237429 190.608843 
L 187.482082 191.803462 
L 187.726735 192.054703 
L 187.971388 192.968817 
L 188.216041 193.079749 
L 188.460694 190.119111 
L 188.705347 189.862625 
L 188.95 187.420283 
L 189.194653 187.085761 
L 189.439306 186.023782 
L 189.928612 180.441978 
L 190.173265 180.433559 
L 190.417918 180.20321 
L 190.662571 178.611438 
L 190.907224 177.967098 
L 191.151877 179.376823 
L 191.39653 176.782983 
L 191.641183 176.568106 
L 191.885836 175.908458 
L 192.130489 173.877176 
L 192.375142 183.509412 
L 192.619795 184.538724 
L 192.864448 182.867987 
L 193.109101 184.704552 
L 193.353754 184.680483 
L 193.598407 179.015089 
L 194.332366 177.348847 
L 194.577019 180.151409 
L 194.821672 178.051926 
L 195.066325 177.418888 
L 195.310978 179.147826 
L 195.555631 178.825078 
L 195.800284 175.778831 
L 196.044937 177.509464 
L 196.28959 185.685742 
L 196.534243 179.17639 
L 196.778896 181.196012 
L 197.023549 179.466731 
L 197.268202 183.150788 
L 197.512855 181.60717 
L 197.757508 181.840857 
L 198.002161 181.882855 
L 198.246814 183.640586 
L 198.491467 179.625198 
L 198.73612 178.82915 
L 198.980773 179.434797 
L 199.470079 183.346727 
L 199.959385 189.023503 
L 200.448691 181.412779 
L 200.693344 175.650996 
L 200.937997 174.848693 
L 201.18265 170.947316 
L 201.427303 170.401483 
L 201.671956 170.317111 
L 201.916609 166.723109 
L 202.161262 165.72394 
L 202.405915 166.789079 
L 202.895221 160.878453 
L 203.139875 163.187081 
L 203.384528 162.285425 
L 203.629181 162.763937 
L 203.873834 161.970315 
L 204.118487 162.408978 
L 204.36314 160.764345 
L 205.097099 150.853754 
L 205.341752 150.433086 
L 205.586405 147.548856 
L 205.831058 149.666447 
L 206.075711 146.06186 
L 206.320364 145.703041 
L 206.565017 141.391727 
L 206.80967 143.175383 
L 207.054323 140.456459 
L 207.298976 140.646014 
L 207.543629 150.162091 
L 207.788282 149.603197 
L 208.032935 146.40599 
L 208.522241 149.189857 
L 208.766894 154.629804 
L 209.011547 152.112226 
L 209.2562 155.572839 
L 209.500853 155.449172 
L 209.990159 163.664095 
L 210.234812 165.622779 
L 210.724118 153.87945 
L 210.968771 156.237633 
L 211.213424 153.735134 
L 211.458077 154.159336 
L 211.70273 155.399439 
L 211.947383 151.229656 
L 212.192036 151.574763 
L 212.925995 161.360548 
L 213.170648 167.812724 
L 213.415301 167.798051 
L 213.659954 164.190272 
L 213.904607 155.958137 
L 214.14926 156.231966 
L 214.393913 161.477293 
L 214.638566 158.058857 
L 214.883219 160.069816 
L 215.127872 166.024248 
L 215.372525 167.945966 
L 215.617178 162.375464 
L 215.861831 160.684322 
L 216.106484 155.090028 
L 216.59579 152.664491 
L 216.840443 161.534029 
L 217.085096 145.389233 
L 217.329749 141.311052 
L 217.574402 144.539266 
L 217.819055 141.779256 
L 218.063708 141.119999 
L 218.308361 139.352303 
L 218.553014 138.771245 
L 218.797667 140.770788 
L 219.04232 138.853321 
L 219.776279 124.445769 
L 220.020932 123.73997 
L 220.265585 121.320524 
L 220.510238 120.179189 
L 220.754891 120.133233 
L 220.999544 118.36425 
L 221.244197 110.703401 
L 221.48885 112.639727 
L 221.733503 119.802978 
L 221.978156 116.467497 
L 222.222809 119.902478 
L 222.467462 118.606503 
L 222.712115 118.359137 
L 222.956768 119.545516 
L 223.201421 123.958365 
L 223.446074 122.985268 
L 223.690727 122.586584 
L 224.180033 132.802385 
L 224.424686 128.420818 
L 224.669339 129.973572 
L 224.913992 127.352227 
L 225.158645 122.570576 
L 225.403298 120.380729 
L 225.647952 121.688951 
L 225.892605 125.174773 
L 226.137258 122.007742 
L 226.381911 123.471108 
L 226.626564 130.264158 
L 226.871217 128.481821 
L 227.11587 130.291842 
L 227.360523 124.076234 
L 227.605176 128.40569 
L 227.849829 129.034673 
L 228.339135 122.99258 
L 228.583788 125.131944 
L 228.828441 125.938024 
L 229.073094 124.326043 
L 229.317747 123.611646 
L 229.5624 123.35179 
L 229.807053 124.742901 
L 230.051706 123.775292 
L 230.296359 125.499622 
L 230.541012 128.406618 
L 230.785665 122.271376 
L 231.030318 124.032168 
L 231.519624 117.92036 
L 231.764277 117.279716 
L 232.00893 111.679934 
L 232.742889 127.46158 
L 232.987542 119.482819 
L 233.232195 119.646677 
L 233.476848 126.484151 
L 233.721501 128.266194 
L 233.966154 127.295833 
L 234.210807 122.644428 
L 234.45546 126.011795 
L 234.700113 126.670579 
L 234.944766 125.346317 
L 235.189419 119.617038 
L 235.434072 120.166584 
L 235.678725 117.22311 
L 235.923378 117.373973 
L 236.168031 117.39016 
L 236.657337 112.355329 
L 236.90199 118.47795 
L 237.146643 113.040593 
L 237.391296 113.883949 
L 237.635949 117.373191 
L 237.880602 116.399394 
L 238.125255 117.625214 
L 238.369908 116.995417 
L 239.34852 123.505583 
L 239.593173 119.77132 
L 239.837826 120.24296 
L 240.082479 123.259716 
L 240.327132 124.408949 
L 240.571785 122.693103 
L 240.816438 123.445785 
L 241.061091 121.919348 
L 241.305744 124.697743 
L 241.550397 122.532421 
L 241.79505 123.674033 
L 242.039703 121.067393 
L 242.529009 123.99297 
L 242.773662 128.976927 
L 243.262968 124.279957 
L 243.996927 127.28958 
L 244.486233 138.241062 
L 244.730886 130.79268 
L 244.975539 126.72953 
L 245.220192 127.379423 
L 245.954151 118.758635 
L 246.198804 112.895007 
L 246.443457 116.342886 
L 246.68811 130.021775 
L 246.932763 126.974583 
L 247.177416 128.649652 
L 247.422069 133.289039 
L 247.666722 131.714773 
L 248.156029 133.98764 
L 248.400682 135.954939 
L 248.645335 141.697848 
L 248.889988 150.431653 
L 249.134641 148.157157 
L 249.379294 148.844668 
L 249.623947 147.791401 
L 249.8686 139.548062 
L 250.113253 152.785113 
L 250.602559 148.596732 
L 250.847212 147.495686 
L 251.091865 145.109542 
L 251.336518 146.410191 
L 251.581171 149.272388 
L 251.825824 154.658612 
L 252.31513 176.704491 
L 253.049089 154.617574 
L 253.293742 154.934394 
L 253.538395 154.584418 
L 253.783048 165.053056 
L 254.027701 154.367879 
L 254.517007 161.84375 
L 254.76166 154.872056 
L 255.006313 159.747442 
L 255.495619 151.53664 
L 255.740272 148.288592 
L 255.984925 147.247294 
L 256.229578 146.703757 
L 256.474231 151.773258 
L 256.718884 152.606192 
L 256.963537 148.64658 
L 257.20819 153.25361 
L 257.452843 150.669345 
L 257.697496 149.811121 
L 257.942149 149.831282 
L 258.186802 154.534733 
L 258.431455 161.933153 
L 258.676108 158.439937 
L 258.920761 161.752359 
L 259.165414 159.765616 
L 259.65472 157.43331 
L 259.899373 158.767734 
L 260.144026 161.471756 
L 260.388679 155.588684 
L 260.633332 156.59852 
L 260.877985 156.322818 
L 261.122638 159.753191 
L 261.367291 155.813658 
L 261.611944 157.940402 
L 261.856597 156.705022 
L 262.10125 152.54602 
L 262.345903 151.707093 
L 262.590556 148.260908 
L 262.835209 140.833501 
L 263.079862 149.305755 
L 263.324515 150.310038 
L 263.569168 139.825994 
L 263.813821 138.438889 
L 264.058474 140.178934 
L 264.54778 133.373622 
L 264.792433 134.469018 
L 265.037086 136.622664 
L 265.281739 136.023889 
L 265.526392 137.27329 
L 265.771045 146.218715 
L 266.015698 146.845939 
L 266.260351 147.12081 
L 266.505004 154.746289 
L 266.749657 151.35241 
L 266.99431 151.95822 
L 267.238963 143.929156 
L 267.728269 140.183657 
L 267.972922 143.480348 
L 268.217575 141.025352 
L 268.462228 142.91012 
L 268.706881 143.255145 
L 268.951534 141.875564 
L 269.685493 148.815453 
L 269.930146 140.910039 
L 270.174799 142.43252 
L 270.419452 143.106677 
L 270.664106 148.355653 
L 270.908759 146.692651 
L 271.153412 153.426717 
L 271.642718 158.770698 
L 271.887371 157.581697 
L 272.132024 161.842137 
L 272.376677 168.08595 
L 272.62133 165.73889 
L 272.865983 166.083883 
L 273.110636 163.25875 
L 273.355289 164.527335 
L 273.599942 167.189147 
L 273.844595 162.638854 
L 275.06786 179.51469 
L 275.312513 188.682093 
L 276.046472 181.791009 
L 276.291125 187.087976 
L 276.535778 182.743001 
L 276.780431 188.184365 
L 277.025084 188.409567 
L 277.269737 188.388543 
L 277.51439 189.27753 
L 277.759043 177.872582 
L 278.003696 182.868785 
L 278.248349 182.054383 
L 278.493002 196.141613 
L 278.737655 193.603891 
L 278.982308 186.938563 
L 279.471614 193.728925 
L 279.716267 189.114584 
L 279.96092 188.839062 
L 280.205573 194.258946 
L 280.450226 191.780142 
L 280.694879 192.004693 
L 280.939532 193.042603 
L 281.184185 194.822351 
L 281.428838 194.199588 
L 281.673491 188.565706 
L 281.918144 186.145087 
L 282.162797 189.589399 
L 282.40745 189.596776 
L 282.652103 187.996324 
L 282.896756 193.028484 
L 283.141409 190.326709 
L 283.630715 188.105872 
L 283.875368 188.081494 
L 284.120021 188.498645 
L 284.364674 180.168394 
L 284.609327 180.477072 
L 284.85398 178.540078 
L 285.098633 175.268548 
L 285.587939 179.414425 
L 286.077245 179.065914 
L 286.321898 176.887434 
L 286.566551 176.435743 
L 286.811204 171.505054 
L 287.055857 168.926326 
L 287.30051 169.50994 
L 287.545163 168.810916 
L 287.789816 168.834415 
L 288.034469 167.111436 
L 288.523775 169.365559 
L 288.768428 170.231714 
L 289.257734 160.885325 
L 289.502387 162.504407 
L 289.991693 157.469218 
L 290.236346 160.618711 
L 290.480999 158.346219 
L 290.725652 163.17389 
L 290.970305 162.504863 
L 291.214958 161.339426 
L 291.459611 159.463143 
L 291.704264 155.753991 
L 291.948917 155.945419 
L 292.438223 165.362549 
L 292.682876 166.514794 
L 292.92753 165.956194 
L 293.172183 168.999608 
L 293.416836 169.529807 
L 293.906142 172.251711 
L 294.150795 188.402271 
L 294.395448 192.368348 
L 294.640101 194.280637 
L 294.884754 195.300162 
L 295.129407 192.151207 
L 295.618713 196.345629 
L 295.863366 197.295927 
L 296.352672 196.044132 
L 296.597325 197.612178 
L 296.841978 202.282701 
L 297.086631 201.114936 
L 297.331284 194.065515 
L 297.575937 195.519551 
L 297.82059 192.917601 
L 298.065243 194.19138 
L 298.799202 186.126571 
L 299.043855 182.591031 
L 299.288508 181.05409 
L 299.533161 181.277289 
L 299.777814 181.982111 
L 300.26712 186.635845 
L 300.511773 185.845203 
L 300.756426 183.740688 
L 301.001079 183.072947 
L 301.245732 183.693479 
L 301.490385 182.107992 
L 301.979691 187.075013 
L 302.224344 186.57709 
L 302.468997 187.368839 
L 302.71365 186.97408 
L 302.958303 191.839435 
L 303.202956 191.839011 
L 303.447609 190.131927 
L 303.692262 191.14085 
L 303.936915 190.258346 
L 304.181568 196.492811 
L 304.426221 198.561613 
L 304.670874 195.023907 
L 304.915527 193.823296 
L 305.16018 191.741124 
L 305.404833 190.84025 
L 305.649486 192.903043 
L 306.383445 188.801167 
L 306.872751 187.014776 
L 307.117404 188.196497 
L 307.362057 184.03142 
L 307.60671 184.273266 
L 307.851363 181.976818 
L 308.096016 182.161976 
L 308.340669 181.618716 
L 308.585322 182.68817 
L 308.829975 184.36446 
L 309.074628 187.171989 
L 309.319281 188.476221 
L 309.563934 173.075639 
L 309.808587 173.128646 
L 310.05324 173.446525 
L 310.297893 169.062043 
L 310.542546 172.241207 
L 310.787199 169.209958 
L 311.031852 169.328642 
L 311.276505 165.852672 
L 311.765811 163.159739 
L 312.010464 164.596512 
L 312.49977 163.931605 
L 312.744423 161.467457 
L 312.989076 161.443372 
L 313.233729 162.053774 
L 313.723035 161.772113 
L 313.967688 163.763904 
L 314.212341 162.443909 
L 314.456994 164.703455 
L 314.9463 166.841695 
L 315.190953 167.047893 
L 315.435607 169.108439 
L 315.68026 168.493819 
L 315.924913 167.52336 
L 316.169566 165.243686 
L 316.414219 165.307359 
L 316.658872 164.352534 
L 317.148178 174.531498 
L 317.637484 164.033059 
L 318.12679 148.48712 
L 318.616096 152.371658 
L 318.860749 152.512799 
L 319.105402 152.930178 
L 319.350055 150.432776 
L 319.594708 155.087292 
L 319.839361 154.072148 
L 320.084014 153.589206 
L 320.328667 151.519704 
L 320.57332 155.703264 
L 320.817973 153.445216 
L 321.062626 154.576829 
L 321.307279 153.1879 
L 321.551932 153.520647 
L 321.796585 151.736568 
L 322.041238 151.323537 
L 322.285891 146.972668 
L 322.775197 144.219774 
L 323.01985 145.53179 
L 323.264503 143.48095 
L 323.509156 144.297551 
L 323.753809 143.981772 
L 323.998462 146.237963 
L 324.243115 145.192969 
L 324.487768 146.273383 
L 324.732421 143.884031 
L 324.977074 143.309846 
L 325.221727 149.978366 
L 325.46638 150.639788 
L 325.955686 152.593017 
L 326.200339 157.356918 
L 326.444992 156.567627 
L 326.689645 160.592867 
L 326.934298 162.587182 
L 327.178951 158.888339 
L 327.423604 158.039006 
L 327.668257 159.627407 
L 327.91291 165.372466 
L 328.157563 163.32485 
L 328.402216 169.885939 
L 328.891522 160.750585 
L 329.136175 161.11836 
L 329.380828 159.943332 
L 329.625481 156.717952 
L 329.870134 156.313422 
L 330.114787 158.038224 
L 330.35944 156.343565 
L 330.848746 157.354247 
L 331.093399 158.899934 
L 331.338052 161.257839 
L 331.582705 160.450652 
L 331.827358 162.61884 
L 332.561317 156.322216 
L 332.80597 152.009371 
L 333.050623 153.579468 
L 333.295276 148.91181 
L 333.539929 148.867727 
L 333.784582 147.597759 
L 334.029235 147.401576 
L 334.518541 145.07865 
L 334.763194 145.186113 
L 335.007847 147.339955 
L 335.2525 146.349775 
L 335.497153 144.442664 
L 335.741806 145.726638 
L 335.986459 145.373177 
L 336.231112 147.498731 
L 336.475765 147.249818 
L 336.720418 147.472138 
L 336.965071 145.939024 
L 337.454377 141.044145 
L 337.69903 140.930151 
L 337.943684 139.546906 
L 338.188337 140.928914 
L 338.43299 140.782204 
L 338.677643 139.15169 
L 338.922296 139.073817 
L 339.166949 139.436023 
L 339.411602 138.81186 
L 339.656255 138.667462 
L 339.900908 139.347287 
L 340.145561 134.871236 
L 340.390214 134.602781 
L 340.634867 134.677561 
L 341.124173 136.47058 
L 341.368826 118.153199 
L 341.613479 121.430479 
L 341.858132 120.049464 
L 342.347438 114.384055 
L 342.836744 112.670081 
L 343.081397 112.807753 
L 343.570703 106.7462 
L 343.815356 105.512269 
L 344.060009 105.876364 
L 344.304662 104.839284 
L 344.549315 103.048838 
L 344.793968 102.27619 
L 345.038621 103.371602 
L 345.283274 103.123911 
L 345.77258 102.007198 
L 346.017233 96.493563 
L 346.261886 98.063839 
L 346.506539 96.529259 
L 346.751192 97.536896 
L 346.995845 97.229667 
L 347.240498 98.05156 
L 347.485151 99.869691 
L 347.729804 97.615323 
L 347.974457 97.743159 
L 348.21911 98.101424 
L 348.463763 94.952664 
L 348.708416 94.376574 
L 348.953069 95.846959 
L 349.197722 92.669278 
L 349.442375 96.245057 
L 349.687028 92.650941 
L 350.176334 94.47552 
L 350.420987 94.611531 
L 350.66564 87.914871 
L 350.910293 86.324271 
L 351.154946 87.781303 
L 351.644252 88.583198 
L 351.888905 86.654396 
L 352.133558 87.716392 
L 352.378211 87.922166 
L 352.867517 89.406882 
L 353.11217 93.460783 
L 353.356823 92.524441 
L 353.601476 93.666753 
L 353.846129 92.316679 
L 354.335435 94.698329 
L 354.580088 90.511284 
L 354.824741 91.616662 
L 355.069394 88.316844 
L 355.314047 86.74621 
L 355.5587 88.254767 
L 355.803353 88.111526 
L 356.048006 88.416865 
L 356.292659 81.846966 
L 356.537312 80.679804 
L 356.781965 82.372216 
L 357.026618 81.94448 
L 357.271271 77.1733 
L 357.515924 68.806277 
L 357.760577 66.24758 
L 358.00523 68.359847 
L 358.249883 66.6419 
L 358.494536 61.781512 
L 358.739189 62.89285 
L 358.983842 63.402238 
L 359.228495 73.979985 
L 359.473148 68.504553 
L 359.962454 65.942306 
L 360.207107 65.626349 
L 360.451761 67.383151 
L 360.696414 66.274841 
L 360.941067 66.412708 
L 361.18572 66.233413 
L 361.430373 68.180779 
L 361.675026 67.694483 
L 361.919679 62.942486 
L 362.164332 66.504717 
L 362.653638 62.61513 
L 362.898291 63.82105 
L 363.142944 78.329584 
L 363.387597 84.969801 
L 363.63225 81.138872 
L 363.876903 85.019632 
L 364.121556 87.089754 
L 364.366209 90.417776 
L 364.610862 81.777984 
L 364.855515 84.798615 
L 365.100168 83.390861 
L 365.344821 83.454242 
L 365.589474 82.116089 
L 365.834127 82.624662 
L 366.07878 87.125873 
L 366.323433 83.286476 
L 366.568086 88.303328 
L 366.812739 86.784675 
L 367.057392 87.806219 
L 367.302045 86.923779 
L 367.546698 90.053421 
L 367.791351 86.695173 
L 368.280657 83.850483 
L 368.52531 83.410664 
L 369.014616 76.514385 
L 369.259269 74.950558 
L 369.503922 74.365185 
L 369.748575 71.978064 
L 369.993228 73.531697 
L 370.237881 74.083002 
L 370.482534 69.798672 
L 370.97184 66.540609 
L 371.216493 74.203868 
L 371.461146 74.619097 
L 371.705799 77.136561 
L 371.950452 74.681044 
L 372.195105 57.370095 
L 372.439758 62.83872 
L 372.684411 60.328551 
L 373.173717 52.949038 
L 373.41837 51.561282 
L 373.663023 62.570282 
L 374.152329 51.373779 
L 374.396982 49.171458 
L 374.641635 50.500817 
L 374.886288 57.186338 
L 375.130941 57.798841 
L 375.375594 58.812601 
L 375.620247 52.805732 
L 375.8649 52.593867 
L 376.109553 54.313996 
L 376.354206 52.582598 
L 376.843512 47.136544 
L 377.332818 44.523065 
L 377.577471 44.596021 
L 377.822124 49.086158 
L 378.066777 48.786779 
L 378.31143 50.427959 
L 378.556083 55.796074 
L 378.800736 49.927625 
L 379.534695 55.961983 
L 379.779348 52.709815 
L 380.024001 55.69361 
L 380.268654 55.5789 
L 380.75796 66.846307 
L 381.247266 72.896493 
L 381.491919 67.108654 
L 381.736572 64.408182 
L 381.981225 66.811425 
L 382.225878 65.618336 
L 382.470531 66.460357 
L 382.715184 64.475275 
L 382.959838 66.962124 
L 383.204491 62.664864 
L 383.449144 63.140314 
L 383.93845 60.998735 
L 384.183103 59.757281 
L 384.427756 60.761596 
L 384.672409 58.704991 
L 384.917062 53.118888 
L 385.161715 52.42532 
L 385.406368 53.531382 
L 385.651021 62.547092 
L 385.895674 60.108153 
L 386.140327 60.676525 
L 386.38498 58.876535 
L 386.629633 60.801266 
L 386.874286 58.65998 
L 387.363592 38.503136 
L 387.608245 34.414125 
L 387.852898 37.808785 
L 387.852898 37.808785 
" style="fill:none;stroke:#1f77b4;stroke-linecap:square;stroke-width:1.5;"/>
   </g>
   <g id="line2d_28">
    <path clip-path="url(#p5bbffdba60)" d="M 63.198352 216.995618 
L 63.443005 213.986003 
L 63.687658 209.183426 
L 63.932311 210.378734 
L 64.176964 210.079907 
L 64.66627 205.576157 
L 65.155576 206.408603 
L 65.644882 205.853639 
L 65.889535 203.313609 
L 66.134188 202.801335 
L 66.378841 203.057472 
L 66.623494 201.371234 
L 67.1128 192.598526 
L 67.357453 195.373349 
L 67.602106 191.467253 
L 67.846759 193.366939 
L 68.091412 193.174836 
L 68.336066 189.375464 
L 68.825372 190.058497 
L 69.070025 192.982733 
L 69.314678 192.577182 
L 69.559331 189.610256 
L 69.803984 191.040357 
L 70.29329 187.924018 
L 70.537943 193.324249 
L 70.782596 193.985938 
L 71.761208 182.032857 
L 72.005861 181.392513 
L 72.250514 181.328479 
L 72.495167 182.374374 
L 72.73982 181.947478 
L 72.984473 184.786334 
L 73.229126 190.037152 
L 73.473779 192.577182 
L 73.718432 187.667881 
L 73.963085 192.000872 
L 74.207738 194.348799 
L 74.452391 193.77249 
L 74.697044 190.677496 
L 74.941697 192.086252 
L 75.431003 200.816269 
L 75.675656 201.520647 
L 75.920309 199.983823 
L 76.164962 203.889919 
L 76.409615 203.398989 
L 76.654268 201.862164 
L 76.898921 197.273035 
L 77.143574 198.852549 
L 77.388227 202.502507 
L 77.63288 209.460908 
L 77.877533 202.075612 
L 78.122186 208.393669 
L 78.366839 207.326429 
L 79.100798 213.879279 
L 79.345451 213.516417 
L 79.590104 219.535647 
L 79.834757 217.145031 
L 80.07941 217.699996 
L 80.568716 231.446038 
L 80.813369 228.607182 
L 81.058022 229.887869 
L 81.302675 229.866524 
L 81.547328 231.702176 
L 81.791981 235.138686 
L 82.036634 234.519688 
L 82.281287 222.908124 
L 82.52594 224.380914 
L 82.770593 224.146121 
L 83.015246 221.157851 
L 83.259899 215.650896 
L 83.504552 217.102342 
L 83.749205 217.657306 
L 83.993858 215.714931 
L 84.238511 216.952928 
L 84.483164 216.675446 
L 84.727817 219.834474 
L 84.97247 231.125867 
L 85.217123 228.543147 
L 85.461776 232.812105 
L 85.706429 233.857999 
L 85.951082 230.336109 
L 86.195735 231.061832 
L 86.440388 233.900689 
L 86.685041 239.962608 
L 86.929694 237.209131 
L 87.174347 232.620002 
L 87.663653 236.333995 
L 87.908306 237.059717 
L 88.152959 236.80358 
L 88.397612 238.980748 
L 88.642265 238.361749 
L 88.886918 240.026643 
L 89.376224 228.009528 
L 89.620877 230.122662 
L 89.86553 234.711791 
L 90.110183 235.672306 
L 90.354836 235.24541 
L 90.599489 237.74275 
L 90.844143 235.77903 
L 91.088796 236.76089 
L 91.578102 247.241181 
L 91.822755 241.093882 
L 92.312061 242.950878 
L 92.556714 241.499433 
L 92.801367 238.681921 
L 93.04602 258.041643 
L 93.290673 261.28605 
L 93.779979 255.672371 
L 94.513938 257.102472 
L 94.758591 260.538983 
L 95.003244 255.80044 
L 95.247897 255.949854 
L 95.737203 250.592312 
L 95.981856 249.076832 
L 96.226509 252.748136 
L 96.715815 253.132342 
L 96.960468 255.096062 
L 97.205121 255.160097 
L 97.449774 258.553918 
L 97.694427 259.407709 
L 97.93908 257.956264 
L 98.183733 260.389569 
L 98.428386 258.511228 
L 98.917692 260.816465 
L 99.406998 267.326625 
L 99.651651 263.954149 
L 99.896304 265.619042 
L 100.140957 264.124907 
L 100.38561 263.78339 
L 100.630263 261.905049 
L 100.874916 264.786595 
L 101.119569 264.80794 
L 101.364222 263.527253 
L 101.853528 256.462128 
L 102.098181 256.82499 
L 102.342834 257.572057 
L 102.587487 257.35861 
L 102.83214 254.562442 
L 103.076793 254.050168 
L 103.321446 254.797235 
L 103.810752 260.432259 
L 104.055405 264.637182 
L 104.300058 264.3597 
L 104.544711 263.698011 
L 105.034017 266.36611 
L 105.27867 265.448284 
L 105.523323 265.213491 
L 105.767976 262.566738 
L 106.012629 262.972288 
L 106.257282 264.3597 
L 106.501935 267.390659 
L 106.746588 265.448284 
L 106.991241 272.598787 
L 107.235894 275.86454 
L 107.480547 276.334125 
L 107.969853 271.574238 
L 108.214506 271.787685 
L 108.459159 270.891204 
L 108.703812 268.201761 
L 109.193118 260.410914 
L 109.437771 261.456809 
L 110.17173 254.925304 
L 110.416383 255.565647 
L 110.661036 253.986133 
L 110.905689 256.141957 
L 111.150342 257.294575 
L 111.394995 256.760956 
L 111.884301 264.658527 
L 112.128954 262.908254 
L 112.373607 263.313805 
L 112.61826 260.34688 
L 112.862913 261.350085 
L 113.107566 260.83781 
L 113.35222 260.603017 
L 113.596873 259.685191 
L 113.841526 260.816465 
L 114.086179 259.749226 
L 114.330832 257.721471 
L 114.575485 258.276435 
L 114.820138 257.977608 
L 115.064791 258.404504 
L 115.309444 259.685191 
L 115.554097 261.712946 
L 115.79875 260.688396 
L 116.043403 261.584877 
L 116.288056 261.990428 
L 116.532709 263.633977 
L 116.777362 262.481358 
L 117.022015 264.27432 
L 117.266668 263.698011 
L 117.511321 263.762046 
L 118.000627 268.308485 
L 118.24528 269.333035 
L 118.489933 272.662822 
L 118.734586 272.641477 
L 119.223892 275.352265 
L 119.468545 274.498473 
L 119.957851 267.817555 
L 120.202504 267.113177 
L 120.69181 268.86345 
L 120.936463 266.622247 
L 121.181116 267.134522 
L 121.425769 265.128112 
L 121.670422 265.362905 
L 121.915075 265.085422 
L 122.159728 264.231631 
L 122.404381 264.210286 
L 122.649034 263.762046 
L 122.893687 265.83249 
L 123.13834 265.426939 
L 123.382993 267.646797 
L 123.627646 261.093947 
L 123.872299 261.712946 
L 124.116952 260.944534 
L 124.606258 257.187851 
L 124.850911 257.422644 
L 125.340217 254.370339 
L 125.58487 252.27855 
L 125.829523 253.559237 
L 126.074176 253.623272 
L 126.318829 254.839925 
L 126.563482 256.846335 
L 126.808135 252.897549 
L 127.052788 246.131252 
L 127.297441 243.420464 
L 127.542094 243.591222 
L 128.0314 240.602952 
L 128.276053 242.630707 
L 128.520706 242.225156 
L 128.765359 242.054397 
L 129.010012 242.652051 
L 129.254665 242.054397 
L 129.499318 246.430079 
L 129.743971 245.725701 
L 129.988624 245.490908 
L 130.233277 246.856974 
L 130.47793 246.430079 
L 130.722583 243.356429 
L 130.967236 244.402324 
L 131.211889 243.505843 
L 131.456542 241.072537 
L 131.701195 244.594427 
L 131.945848 252.790825 
L 132.190501 251.275345 
L 132.435154 253.665961 
L 132.679807 258.169711 
L 132.92446 256.568852 
L 133.413766 251.403414 
L 133.658419 252.897549 
L 133.903072 245.81108 
L 134.147725 246.280665 
L 134.392378 248.585902 
L 134.637031 247.155801 
L 134.881684 248.223041 
L 135.126337 250.037348 
L 135.37099 246.622182 
L 135.615643 246.131252 
L 135.860297 248.009593 
L 136.10495 248.137662 
L 136.349603 246.686216 
L 136.594256 248.75666 
L 137.083562 246.109907 
L 138.55148 240.240091 
L 138.796133 236.440718 
L 139.040786 236.888959 
L 139.530092 233.217656 
L 139.774745 235.031963 
L 140.019398 233.836655 
L 140.264051 237.870819 
L 140.508704 235.352134 
L 140.99801 236.846269 
L 141.242663 234.79717 
L 141.487316 235.202721 
L 141.731969 236.568787 
L 141.976622 239.151506 
L 142.221275 236.675511 
L 142.465928 237.145096 
L 142.955234 236.654166 
L 143.199887 234.370274 
L 143.44454 235.33079 
L 143.689193 237.273165 
L 143.933846 236.995683 
L 144.178499 238.383094 
L 144.423152 236.504753 
L 144.667805 236.910304 
L 144.912458 235.714996 
L 145.646417 225.853704 
L 145.89107 227.326495 
L 146.135723 222.737365 
L 146.380376 223.142916 
L 146.625029 222.246435 
L 146.869682 224.658396 
L 147.114335 222.694676 
L 147.358988 222.972158 
L 147.603641 224.252845 
L 147.848294 224.487638 
L 148.092947 226.365979 
L 148.3376 225.426809 
L 148.582253 226.195221 
L 148.826906 227.475908 
L 149.071559 229.396939 
L 149.316212 228.009528 
L 149.560865 221.584747 
L 149.805518 222.31047 
L 150.294824 224.637051 
L 150.539477 226.32329 
L 150.78413 224.338224 
L 151.028783 226.750185 
L 151.273436 230.464178 
L 151.518089 229.567697 
L 151.762742 230.74166 
L 152.007395 229.695766 
L 152.252048 231.8089 
L 152.496701 232.918829 
L 152.741354 232.065037 
L 153.23066 225.469498 
L 153.475313 226.408669 
L 153.719966 230.549557 
L 153.964619 227.988183 
L 154.209272 227.241115 
L 154.453925 225.832359 
L 154.698578 228.906009 
L 154.943231 227.561287 
L 155.187884 240.965813 
L 155.432537 242.716086 
L 155.67719 243.014913 
L 156.166496 242.481293 
L 156.411149 240.28278 
L 156.655802 239.108817 
L 156.900455 239.130162 
L 157.634414 231.979658 
L 157.879067 232.001003 
L 158.12372 229.396939 
L 158.368374 229.546352 
L 158.613027 228.927354 
L 159.102333 233.452448 
L 159.346986 235.24541 
L 159.591639 234.562377 
L 160.080945 237.657371 
L 160.325598 234.519688 
L 160.570251 234.946583 
L 160.814904 234.498343 
L 161.059557 233.431104 
L 161.30421 233.089587 
L 161.548863 233.580517 
L 161.793516 233.665896 
L 162.038169 233.516483 
L 162.282822 231.958313 
L 162.527475 231.787555 
L 163.016781 235.416169 
L 163.261434 234.79717 
L 163.506087 233.388414 
L 163.75074 233.431104 
L 163.995393 234.199516 
L 164.240046 232.940173 
L 164.729352 229.226181 
L 164.974005 230.82704 
L 165.218658 231.531418 
L 165.463311 231.723521 
L 165.707964 231.744865 
L 165.952617 230.25073 
L 166.19727 229.973248 
L 166.441923 231.125867 
L 166.931229 235.800375 
L 167.175882 235.800375 
L 167.420535 233.708586 
L 167.909841 236.974338 
L 168.154494 236.333995 
L 168.399147 237.486613 
L 168.6438 237.166441 
L 169.133106 233.452448 
L 169.377759 233.28169 
L 169.622412 235.416169 
L 169.867065 222.289125 
L 170.111718 221.008438 
L 170.356371 214.263485 
L 170.845677 215.480138 
L 171.334983 214.73307 
L 171.579636 212.171696 
L 171.824289 214.156761 
L 172.068942 214.797105 
L 172.558248 216.867549 
L 172.802901 214.647691 
L 173.047554 214.370209 
L 173.292207 214.327519 
L 173.53686 215.864344 
L 174.026166 211.061767 
L 174.270819 211.019077 
L 174.760125 210.250665 
L 175.004778 208.158876 
L 175.249431 204.636986 
L 175.494084 205.149261 
L 175.738737 201.670061 
L 175.98339 202.395784 
L 176.228043 203.71916 
L 176.717349 198.788515 
L 176.962002 198.020102 
L 177.206655 198.575067 
L 177.451308 195.416038 
L 177.695961 194.242075 
L 177.940614 195.074522 
L 178.42992 200.581477 
L 178.674573 198.617756 
L 178.919226 198.873894 
L 179.163879 198.660446 
L 179.408532 199.343479 
L 179.653185 201.371234 
L 179.897838 201.541992 
L 180.142491 202.715955 
L 180.387144 202.545197 
L 180.631798 201.392579 
L 181.121104 197.059587 
L 181.365757 195.800244 
L 181.61041 195.885624 
L 181.855063 194.71166 
L 182.099716 190.570772 
L 182.344369 191.894148 
L 182.589022 191.808769 
L 182.833675 192.577182 
L 183.078328 192.171631 
L 183.322981 189.546222 
L 183.567634 191.958183 
L 183.812287 193.110801 
L 184.05694 196.71807 
L 184.301593 193.857869 
L 184.546246 194.903763 
L 184.790899 193.23887 
L 185.035552 187.966708 
L 185.280205 188.308224 
L 185.524858 186.942158 
L 185.769511 184.060612 
L 186.014164 185.426678 
L 186.258817 185.917608 
L 186.50347 191.360529 
L 186.748123 190.229255 
L 187.237429 192.385079 
L 187.482082 192.726595 
L 187.726735 193.751145 
L 187.971388 193.19618 
L 188.216041 190.528082 
L 188.460694 190.570772 
L 188.705347 187.859984 
L 188.95 187.305019 
L 189.194653 186.28047 
L 189.683959 180.837549 
L 190.173265 180.730825 
L 190.417918 179.151311 
L 190.662571 178.681725 
L 190.907224 180.069137 
L 191.151877 177.422383 
L 191.39653 177.166246 
L 191.641183 176.632626 
L 191.885836 174.925043 
L 192.130489 184.23137 
L 192.375142 185.981643 
L 192.619795 184.167336 
L 193.109101 186.259125 
L 193.353754 179.834344 
L 193.84306 178.425588 
L 194.087713 178.489622 
L 194.332366 180.133171 
L 194.577019 178.596346 
L 194.821672 178.148106 
L 195.066325 179.919723 
L 195.310978 179.706275 
L 195.555631 176.333799 
L 195.800284 178.233485 
L 196.044937 186.515262 
L 196.28959 180.367964 
L 196.534243 181.73403 
L 196.778896 180.367964 
L 197.023549 183.719095 
L 197.268202 182.18227 
L 197.512855 182.779925 
L 197.757508 182.779925 
L 198.002161 184.636921 
L 198.246814 180.26124 
L 198.491467 179.791654 
L 198.73612 180.410653 
L 199.225426 184.636921 
L 199.714732 189.951773 
L 199.959385 186.942158 
L 200.693344 175.586731 
L 200.937997 171.659291 
L 201.18265 170.826844 
L 201.427303 171.061637 
L 201.671956 167.582436 
L 201.916609 166.301749 
L 202.161262 167.070161 
L 202.650568 161.904723 
L 202.895221 163.612306 
L 203.139875 163.057342 
L 203.384528 163.398858 
L 203.629181 162.73717 
L 203.873834 163.121376 
L 204.118487 161.264379 
L 204.852446 151.701915 
L 205.097099 152.107466 
L 205.341752 148.948437 
L 205.586405 150.65602 
L 205.831058 147.155475 
L 206.075711 146.813959 
L 206.320364 142.22483 
L 206.565017 144.401998 
L 206.80967 141.413728 
L 207.054323 141.563141 
L 207.298976 149.802229 
L 207.543629 150.7414 
L 207.788282 147.966577 
L 208.277588 149.951642 
L 208.522241 155.501287 
L 208.766894 151.829984 
L 209.011547 156.461802 
L 209.2562 157.16618 
L 209.990159 167.561092 
L 210.479465 154.967667 
L 210.724118 156.824664 
L 210.968771 154.348668 
L 211.458077 156.333734 
L 211.70273 152.107466 
L 211.947383 152.278224 
L 212.192036 155.24515 
L 212.436689 159.812934 
L 212.681342 162.054137 
L 212.925995 168.628331 
L 213.170648 168.606986 
L 213.415301 165.426613 
L 213.659954 156.589871 
L 213.904607 156.333734 
L 214.14926 162.224895 
L 214.393913 160.154451 
L 214.638566 161.050932 
L 214.883219 167.411678 
L 215.127872 169.183295 
L 215.372525 163.356169 
L 215.617178 161.584551 
L 215.861831 155.501287 
L 216.106484 154.263289 
L 216.351137 154.007152 
L 216.59579 162.459687 
L 217.085096 141.627176 
L 217.329749 145.341168 
L 217.574402 142.203485 
L 217.819055 142.160795 
L 218.063708 140.21842 
L 218.308361 139.407318 
L 218.553014 141.563141 
L 218.797667 139.876903 
L 219.531626 125.490517 
L 220.020932 122.566281 
L 220.265585 120.666595 
L 220.510238 121.242904 
L 220.754891 119.001702 
L 220.999544 111.531026 
L 221.244197 113.302644 
L 221.48885 120.517181 
L 221.733503 117.059326 
L 221.978156 121.221559 
L 222.222809 119.876838 
L 222.467462 119.300529 
L 222.712115 121.050801 
L 222.956768 125.597241 
L 223.201421 125.19169 
L 223.446074 124.039071 
L 223.93538 134.498017 
L 224.180033 129.780819 
L 224.424686 131.616471 
L 224.669339 128.71358 
L 225.158645 121.200215 
L 225.403298 123.270659 
L 225.647952 126.685825 
L 225.892605 123.889658 
L 226.137258 124.999587 
L 226.381911 132.064711 
L 226.626564 130.229059 
L 226.871217 132.342193 
L 227.11587 125.68262 
L 227.360523 129.823508 
L 227.605176 130.207715 
L 227.849829 127.923822 
L 228.094482 123.590831 
L 228.339135 126.451032 
L 228.583788 127.326168 
L 229.073094 124.12445 
L 229.317747 124.65807 
L 229.5624 125.832033 
L 229.807053 124.807484 
L 230.051706 126.109516 
L 230.296359 129.140475 
L 230.541012 123.057211 
L 230.785665 124.530001 
L 231.274971 118.63884 
L 231.519624 117.336808 
L 231.764277 112.278094 
L 232.253583 120.837353 
L 232.498236 128.286684 
L 232.742889 120.175665 
L 232.987542 120.709285 
L 233.232195 126.899273 
L 233.476848 128.585511 
L 233.721501 128.051891 
L 233.966154 123.014521 
L 234.210807 125.789344 
L 234.45546 126.771204 
L 234.700113 126.451032 
L 234.944766 120.175665 
L 235.189419 120.559871 
L 235.434072 117.528911 
L 235.678725 117.785049 
L 235.923378 117.806394 
L 236.412684 112.512886 
L 236.657337 118.745564 
L 236.90199 113.580126 
L 237.146643 114.13509 
L 237.391296 117.336808 
L 237.635949 116.803189 
L 237.880602 118.019841 
L 238.125255 117.678325 
L 239.103867 123.441417 
L 239.34852 120.325078 
L 239.593173 120.944077 
L 239.837826 123.975037 
L 240.082479 124.508657 
L 240.327132 123.057211 
L 240.571785 123.697555 
L 240.816438 122.459557 
L 241.061091 125.19169 
L 241.305744 123.035866 
L 241.550397 124.273864 
L 241.79505 121.968627 
L 242.284356 124.871518 
L 242.529009 129.610061 
L 243.018315 125.19169 
L 243.262968 125.533206 
L 243.752274 127.134065 
L 244.24158 139.129836 
L 244.730886 127.1981 
L 244.975539 127.304824 
L 245.709498 118.745564 
L 245.954151 113.516091 
L 246.198804 116.333603 
L 246.443457 128.13727 
L 246.68811 128.265339 
L 246.932763 129.674095 
L 247.177416 133.366743 
L 247.422069 132.064711 
L 247.666722 132.897158 
L 247.911375 134.220535 
L 248.156029 136.504427 
L 248.645335 150.720055 
L 248.889988 149.097851 
L 249.134641 149.67416 
L 249.379294 148.841714 
L 249.623947 139.876903 
L 249.8686 153.174705 
L 250.113253 149.439368 
L 250.357906 149.631471 
L 250.602559 147.902543 
L 250.847212 145.341168 
L 251.091865 146.749924 
L 251.336518 149.930298 
L 251.581171 154.967667 
L 251.825824 169.674225 
L 252.070477 175.309249 
L 252.31513 173.985872 
L 252.559783 161.285724 
L 252.804436 154.391358 
L 253.049089 153.601601 
L 253.293742 154.732875 
L 253.538395 165.490647 
L 253.783048 155.629356 
L 254.272354 162.182205 
L 254.517007 155.69339 
L 254.76166 160.303864 
L 255.250966 151.637881 
L 255.740272 147.21951 
L 255.984925 146.942027 
L 256.229578 152.256879 
L 256.474231 153.260084 
L 256.718884 149.503402 
L 256.963537 153.366808 
L 257.452843 149.951642 
L 257.697496 150.570641 
L 257.942149 155.415908 
L 258.186802 162.630446 
L 258.431455 159.983692 
L 258.676108 161.520517 
L 258.920761 159.812934 
L 259.410067 157.827869 
L 259.65472 158.959142 
L 259.899373 161.691275 
L 260.144026 156.098941 
L 260.388679 157.20887 
L 260.633332 156.803319 
L 260.877985 160.175795 
L 261.122638 156.653905 
L 261.367291 158.404178 
L 261.611944 156.931388 
L 261.856597 152.577051 
L 262.10125 152.598396 
L 262.345903 148.884403 
L 262.590556 141.242969 
L 262.835209 149.353988 
L 263.079862 150.912158 
L 263.324515 140.837418 
L 263.569168 138.147975 
L 263.813821 140.346488 
L 264.303127 133.793639 
L 264.54778 135.010292 
L 264.792433 137.315529 
L 265.037086 137.016702 
L 265.281739 138.062596 
L 265.526392 146.173615 
L 266.015698 148.414818 
L 266.260351 155.629356 
L 266.505004 151.72326 
L 266.749657 152.747809 
L 266.99431 145.063686 
L 267.238963 141.883313 
L 267.483616 140.773384 
L 267.728269 144.081826 
L 267.972922 141.669865 
L 268.217575 143.484172 
L 268.462228 143.953757 
L 268.706881 142.907863 
L 269.44084 149.524747 
L 269.685493 141.349693 
L 269.930146 142.950552 
L 270.174799 143.057276 
L 270.419452 148.628266 
L 270.664106 147.454302 
L 270.908759 153.836394 
L 271.153412 155.330529 
L 271.398065 159.578141 
L 271.642718 157.763834 
L 272.132024 169.097916 
L 272.376677 166.323094 
L 272.62133 166.536542 
L 272.865983 163.590961 
L 273.110636 164.828959 
L 273.355289 167.411678 
L 273.599942 163.313479 
L 274.089248 170.741465 
L 274.333901 170.549362 
L 275.06786 189.546222 
L 275.312513 188.457638 
L 275.801819 182.054202 
L 276.046472 187.539812 
L 276.291125 182.993372 
L 276.535778 188.094776 
L 276.780431 189.097981 
L 277.025084 188.820499 
L 277.269737 189.866394 
L 277.51439 178.937863 
L 277.759043 183.164131 
L 278.003696 181.990167 
L 278.248349 196.013692 
L 278.493002 194.583592 
L 278.737655 187.646536 
L 278.982308 189.588911 
L 279.226961 193.751145 
L 279.471614 189.75967 
L 279.716267 189.22605 
L 279.96092 194.733005 
L 280.205573 192.619871 
L 280.450226 192.662561 
L 280.939532 195.416038 
L 281.184185 194.797039 
L 281.673491 185.981643 
L 281.918144 189.951773 
L 282.162797 190.421358 
L 282.40745 188.628396 
L 282.652103 193.302904 
L 282.896756 190.293289 
L 283.141409 188.884534 
L 283.386062 188.564362 
L 283.630715 188.478983 
L 283.875368 189.033947 
L 284.120021 180.837549 
L 284.364674 180.367964 
L 284.609327 178.767105 
L 284.85398 175.544042 
L 285.343286 179.77031 
L 285.832592 179.471483 
L 286.077245 177.144901 
L 286.321898 176.589936 
L 286.811204 169.225985 
L 287.055857 169.588846 
L 287.30051 169.332709 
L 287.545163 169.354054 
L 287.789816 167.625126 
L 288.523775 170.890878 
L 289.013081 161.563206 
L 289.257734 162.779859 
L 289.74704 158.23342 
L 289.991693 161.029587 
L 290.236346 158.574936 
L 290.480999 163.740375 
L 290.725652 163.484237 
L 290.970305 162.715825 
L 291.459611 156.269699 
L 291.704264 156.141631 
L 292.19357 166.002922 
L 292.438223 167.219575 
L 292.682876 166.74999 
L 292.92753 169.225985 
L 293.172183 169.844984 
L 293.661489 172.68384 
L 293.906142 186.621986 
L 294.150795 193.004077 
L 294.395448 195.330659 
L 294.640101 195.544107 
L 294.884754 192.25701 
L 295.37406 196.397898 
L 295.618713 197.507827 
L 295.863366 197.358414 
L 296.108019 196.013692 
L 296.352672 197.956068 
L 296.597325 202.587887 
L 296.841978 202.20368 
L 297.086631 195.031832 
L 297.331284 195.864279 
L 297.575937 193.580387 
L 297.82059 194.348799 
L 298.309896 189.588911 
L 299.043855 181.093686 
L 299.288508 181.221755 
L 299.533161 182.26765 
L 299.777814 185.25592 
L 300.022467 186.835434 
L 300.26712 186.408538 
L 300.756426 184.039267 
L 301.001079 184.23137 
L 301.245732 182.71589 
L 301.490385 184.466163 
L 301.735038 187.646536 
L 301.979691 187.390398 
L 302.224344 188.073432 
L 302.468997 187.198295 
L 302.71365 191.936838 
L 302.958303 192.427768 
L 303.202956 190.69884 
L 303.447609 191.467253 
L 303.692262 190.293289 
L 303.936915 196.056382 
L 304.181568 198.959273 
L 304.426221 195.650831 
L 304.670874 193.921903 
L 304.915527 191.360529 
L 305.16018 190.74153 
L 305.404833 192.662561 
L 306.383445 188.414948 
L 306.628098 187.475778 
L 306.872751 188.649741 
L 307.117404 184.551542 
L 307.362057 184.572887 
L 307.60671 182.331684 
L 308.096016 182.054202 
L 308.585322 184.829024 
L 308.829975 187.646536 
L 309.074628 189.076637 
L 309.319281 175.672111 
L 309.563934 172.705185 
L 309.808587 172.982667 
L 310.05324 169.055227 
L 310.297893 172.406358 
L 310.542546 169.610191 
L 310.787199 169.439433 
L 311.276505 164.103236 
L 311.521158 163.164065 
L 311.765811 164.892993 
L 312.010464 165.042407 
L 312.255117 164.508787 
L 312.49977 161.733965 
L 312.989076 162.288929 
L 313.233729 162.587756 
L 313.478382 161.990102 
L 313.723035 163.804409 
L 313.967688 163.078686 
L 314.456994 165.810819 
L 314.701647 167.155541 
L 314.9463 167.411678 
L 315.190953 169.161951 
L 315.435607 168.948503 
L 315.68026 167.603781 
L 315.924913 165.469302 
L 316.169566 165.533337 
L 316.414219 164.124581 
L 316.903525 175.287904 
L 317.392831 164.999717 
L 317.882137 148.73499 
L 318.12679 150.122401 
L 318.371443 152.982602 
L 318.860749 153.046637 
L 319.105402 150.762744 
L 319.350055 154.839599 
L 319.839361 154.028497 
L 320.084014 152.192845 
L 320.328667 155.970872 
L 320.57332 154.113876 
L 320.817973 155.24515 
L 321.062626 154.2206 
L 321.307279 154.113876 
L 321.551932 152.320914 
L 321.796585 151.958052 
L 322.041238 147.71044 
L 322.285891 147.17682 
L 322.530544 144.956962 
L 322.775197 145.725375 
L 323.01985 144.337963 
L 323.509156 144.67948 
L 323.753809 145.426548 
L 323.998462 145.554616 
L 324.243115 146.536477 
L 324.732421 143.014587 
L 324.977074 148.6923 
L 325.46638 152.683775 
L 325.711033 153.067981 
L 325.955686 157.443663 
L 326.200339 157.230215 
L 326.689645 163.100031 
L 326.934298 159.7489 
L 327.178951 158.361488 
L 327.423604 158.745695 
L 327.668257 165.341234 
L 327.91291 163.975167 
L 328.157563 169.780949 
L 328.402216 166.792679 
L 328.646869 160.645381 
L 328.891522 160.73076 
L 329.136175 160.495967 
L 329.380828 156.931388 
L 329.625481 156.781974 
L 329.870134 157.998627 
L 330.114787 156.803319 
L 330.604093 157.507697 
L 331.093399 161.71262 
L 331.338052 160.837484 
L 331.582705 162.523722 
L 332.072011 158.425523 
L 332.316664 156.098941 
L 332.561317 152.192845 
L 332.80597 153.580256 
L 333.050623 149.546091 
L 333.295276 149.546091 
L 333.539929 148.20137 
L 333.784582 147.881198 
L 334.029235 146.451097 
L 334.273888 145.789409 
L 334.518541 145.554616 
L 334.763194 147.198165 
L 335.007847 146.707235 
L 335.2525 145.127721 
L 335.497153 146.19496 
L 335.741806 146.258994 
L 335.986459 148.20137 
L 336.231112 147.496992 
L 336.475765 147.774474 
L 336.720418 146.515132 
L 337.209724 141.435072 
L 337.454377 141.178935 
L 337.69903 139.812869 
L 337.943684 140.880108 
L 338.188337 141.328349 
L 338.43299 139.279249 
L 338.677643 139.300594 
L 338.922296 139.748834 
L 339.166949 139.279249 
L 339.411602 139.108491 
L 339.656255 139.343283 
L 339.900908 135.266429 
L 340.390214 135.117016 
L 340.87952 136.397703 
L 341.124173 120.602561 
L 341.368826 121.072146 
L 341.613479 119.898183 
L 342.102785 114.66871 
L 342.592091 112.769024 
L 342.836744 113.409367 
L 343.081397 110.912027 
L 343.32605 107.219379 
L 343.570703 106.173485 
L 343.815356 106.536346 
L 344.060009 105.725244 
L 344.304662 103.633455 
L 344.549315 102.758319 
L 344.793968 103.996316 
L 345.038621 103.718834 
L 345.283274 103.142525 
L 345.527927 103.014456 
L 345.77258 97.037916 
L 346.017233 98.809533 
L 346.261886 97.059261 
L 346.506539 97.998431 
L 346.751192 97.614225 
L 347.240498 99.407187 
L 347.485151 98.425327 
L 347.729804 98.297258 
L 347.974457 98.745499 
L 348.21911 95.607815 
L 348.463763 95.116885 
L 348.708416 96.61102 
L 348.953069 93.473337 
L 349.197722 96.931192 
L 349.442375 93.558716 
L 349.931681 95.223609 
L 350.176334 94.711334 
L 350.420987 88.478656 
L 350.66564 87.795623 
L 351.154946 88.777483 
L 351.399599 88.692104 
L 351.644252 86.408212 
L 351.888905 88.009071 
L 352.378211 89.460517 
L 352.622864 89.823378 
L 352.867517 93.110475 
L 353.11217 92.747614 
L 353.356823 94.348473 
L 353.601476 92.683579 
L 354.090782 95.13823 
L 354.335435 91.381547 
L 354.580088 91.744409 
L 355.069394 86.920487 
L 355.314047 88.734794 
L 355.5587 88.500001 
L 355.803353 88.798828 
L 356.048006 82.544806 
L 356.292659 80.559741 
L 356.781965 82.65153 
L 357.026618 77.464746 
L 357.271271 68.820108 
L 357.515924 66.728319 
L 357.760577 68.286488 
L 358.00523 66.813698 
L 358.249883 62.224569 
L 358.739189 63.56929 
L 358.983842 74.711269 
L 359.228495 69.823313 
L 359.473148 68.713384 
L 359.717801 66.728319 
L 359.962454 67.13387 
L 360.207107 68.11573 
L 360.451761 66.984456 
L 360.696414 67.539421 
L 360.941067 67.411352 
L 361.18572 69.353728 
L 361.430373 68.457246 
L 361.675026 63.61198 
L 361.919679 66.856387 
L 362.164332 65.746459 
L 362.408985 63.782738 
L 362.653638 64.59384 
L 363.142944 85.020801 
L 363.387597 82.523461 
L 364.121556 91.744409 
L 364.366209 83.057081 
L 364.610862 85.895937 
L 364.855515 84.060286 
L 365.100168 84.57256 
L 365.344821 83.185149 
L 365.589474 84.16701 
L 365.834127 88.62807 
L 366.07878 84.145665 
L 366.323433 88.734794 
L 366.568086 88.009071 
L 366.812739 89.119 
L 367.057392 87.859658 
L 367.302045 90.762549 
L 367.791351 85.789213 
L 368.036004 84.786008 
L 368.280657 84.337768 
L 368.769963 77.293988 
L 369.259269 75.07413 
L 369.503922 73.06772 
L 369.748575 74.519166 
L 369.993228 74.668579 
L 370.237881 70.783828 
L 370.727187 67.859592 
L 370.97184 74.049581 
L 371.461146 77.955677 
L 371.705799 75.138165 
L 371.950452 60.004711 
L 372.195105 63.355842 
L 372.439758 61.60557 
L 372.684411 56.440131 
L 373.173717 51.637554 
L 373.41837 63.889462 
L 374.152329 50.484936 
L 374.396982 51.872347 
L 374.641635 58.467886 
L 375.130941 59.855297 
L 375.375594 54.369687 
L 375.620247 53.942791 
L 375.8649 55.458271 
L 376.109553 54.198929 
L 376.598859 47.688769 
L 376.843512 46.749598 
L 377.088165 45.362187 
L 377.332818 45.255463 
L 377.577471 49.460386 
L 377.822124 49.823248 
L 378.066777 51.210659 
L 378.31143 56.824338 
L 378.556083 50.698384 
L 378.800736 52.06445 
L 379.290042 57.571405 
L 379.534695 54.156239 
L 379.779348 56.738959 
L 380.024001 56.61089 
L 380.75796 71.210724 
L 381.002613 74.070925 
L 381.247266 68.542626 
L 381.491919 66.216044 
L 381.736572 68.243799 
L 381.981225 66.450836 
L 382.225878 67.112525 
L 382.470531 65.682424 
L 382.715184 67.816903 
L 382.959838 63.740049 
L 383.204491 63.932152 
L 383.449144 62.779533 
L 383.693797 62.651464 
L 383.93845 61.264053 
L 384.183103 62.438017 
L 384.427756 60.324883 
L 384.672409 54.156239 
L 384.917062 52.896897 
L 385.161715 54.412377 
L 385.406368 62.480706 
L 385.651021 61.904397 
L 385.895674 62.075155 
L 386.140327 60.09009 
L 386.38498 61.56288 
L 386.629633 59.428402 
L 387.118939 39.556405 
L 387.363592 34.604415 
L 387.608245 39.193544 
L 387.852898 36.58948 
L 387.852898 36.58948 
" style="fill:none;stroke:#ff7f0e;stroke-linecap:square;stroke-width:1.5;"/>
   </g>
   <g id="patch_3">
    <path d="M 46.965625 288.430125 
L 46.965625 22.318125 
" style="fill:none;stroke:#000000;stroke-linecap:square;stroke-linejoin:miter;stroke-width:0.8;"/>
   </g>
   <g id="patch_4">
    <path d="M 404.085625 288.430125 
L 404.085625 22.318125 
" style="fill:none;stroke:#000000;stroke-linecap:square;stroke-linejoin:miter;stroke-width:0.8;"/>
   </g>
   <g id="patch_5">
    <path d="M 46.965625 288.430125 
L 404.085625 288.430125 
" style="fill:none;stroke:#000000;stroke-linecap:square;stroke-linejoin:miter;stroke-width:0.8;"/>
   </g>
   <g id="patch_6">
    <path d="M 46.965625 22.318125 
L 404.085625 22.318125 
" style="fill:none;stroke:#000000;stroke-linecap:square;stroke-linejoin:miter;stroke-width:0.8;"/>
   </g>
   <g id="text_16">
    <!-- Training: AAPL -->
    <defs>
     <path d="M -0.296875 72.90625 
L 61.375 72.90625 
L 61.375 64.59375 
L 35.5 64.59375 
L 35.5 0 
L 25.59375 0 
L 25.59375 64.59375 
L -0.296875 64.59375 
z
" id="DejaVuSans-84"/>
     <path d="M 54.890625 33.015625 
L 54.890625 0 
L 45.90625 0 
L 45.90625 32.71875 
Q 45.90625 40.484375 42.875 44.328125 
Q 39.84375 48.1875 33.796875 48.1875 
Q 26.515625 48.1875 22.3125 43.546875 
Q 18.109375 38.921875 18.109375 30.90625 
L 18.109375 0 
L 9.078125 0 
L 9.078125 54.6875 
L 18.109375 54.6875 
L 18.109375 46.1875 
Q 21.34375 51.125 25.703125 53.5625 
Q 30.078125 56 35.796875 56 
Q 45.21875 56 50.046875 50.171875 
Q 54.890625 44.34375 54.890625 33.015625 
z
" id="DejaVuSans-110"/>
     <path d="M 45.40625 27.984375 
Q 45.40625 37.75 41.375 43.109375 
Q 37.359375 48.484375 30.078125 48.484375 
Q 22.859375 48.484375 18.828125 43.109375 
Q 14.796875 37.75 14.796875 27.984375 
Q 14.796875 18.265625 18.828125 12.890625 
Q 22.859375 7.515625 30.078125 7.515625 
Q 37.359375 7.515625 41.375 12.890625 
Q 45.40625 18.265625 45.40625 27.984375 
z
M 54.390625 6.78125 
Q 54.390625 -7.171875 48.1875 -13.984375 
Q 42 -20.796875 29.203125 -20.796875 
Q 24.46875 -20.796875 20.265625 -20.09375 
Q 16.0625 -19.390625 12.109375 -17.921875 
L 12.109375 -9.1875 
Q 16.0625 -11.328125 19.921875 -12.34375 
Q 23.78125 -13.375 27.78125 -13.375 
Q 36.625 -13.375 41.015625 -8.765625 
Q 45.40625 -4.15625 45.40625 5.171875 
L 45.40625 9.625 
Q 42.625 4.78125 38.28125 2.390625 
Q 33.9375 0 27.875 0 
Q 17.828125 0 11.671875 7.65625 
Q 5.515625 15.328125 5.515625 27.984375 
Q 5.515625 40.671875 11.671875 48.328125 
Q 17.828125 56 27.875 56 
Q 33.9375 56 38.28125 53.609375 
Q 42.625 51.21875 45.40625 46.390625 
L 45.40625 54.6875 
L 54.390625 54.6875 
z
" id="DejaVuSans-103"/>
     <path d="M 11.71875 12.40625 
L 22.015625 12.40625 
L 22.015625 0 
L 11.71875 0 
z
M 11.71875 51.703125 
L 22.015625 51.703125 
L 22.015625 39.3125 
L 11.71875 39.3125 
z
" id="DejaVuSans-58"/>
     <path d="M 34.1875 63.1875 
L 20.796875 26.90625 
L 47.609375 26.90625 
z
M 28.609375 72.90625 
L 39.796875 72.90625 
L 67.578125 0 
L 57.328125 0 
L 50.6875 18.703125 
L 17.828125 18.703125 
L 11.1875 0 
L 0.78125 0 
z
" id="DejaVuSans-65"/>
     <path d="M 9.8125 72.90625 
L 19.671875 72.90625 
L 19.671875 8.296875 
L 55.171875 8.296875 
L 55.171875 0 
L 9.8125 0 
z
" id="DejaVuSans-76"/>
    </defs>
    <g transform="translate(182.591875 16.318125)scale(0.12 -0.12)">
     <use xlink:href="#DejaVuSans-84"/>
     <use x="46.333984" xlink:href="#DejaVuSans-114"/>
     <use x="87.447266" xlink:href="#DejaVuSans-97"/>
     <use x="148.726562" xlink:href="#DejaVuSans-105"/>
     <use x="176.509766" xlink:href="#DejaVuSans-110"/>
     <use x="239.888672" xlink:href="#DejaVuSans-105"/>
     <use x="267.671875" xlink:href="#DejaVuSans-110"/>
     <use x="331.050781" xlink:href="#DejaVuSans-103"/>
     <use x="394.527344" xlink:href="#DejaVuSans-58"/>
     <use x="428.21875" xlink:href="#DejaVuSans-32"/>
     <use x="460.005859" xlink:href="#DejaVuSans-65"/>
     <use x="531.164062" xlink:href="#DejaVuSans-65"/>
     <use x="599.572266" xlink:href="#DejaVuSans-80"/>
     <use x="659.875" xlink:href="#DejaVuSans-76"/>
    </g>
   </g>
   <g id="legend_1">
    <g id="patch_7">
     <path d="M 53.965625 59.674375 
L 137.69375 59.674375 
Q 139.69375 59.674375 139.69375 57.674375 
L 139.69375 29.318125 
Q 139.69375 27.318125 137.69375 27.318125 
L 53.965625 27.318125 
Q 51.965625 27.318125 51.965625 29.318125 
L 51.965625 57.674375 
Q 51.965625 59.674375 53.965625 59.674375 
z
" style="fill:#ffffff;opacity:0.8;stroke:#cccccc;stroke-linejoin:miter;"/>
    </g>
    <g id="line2d_29">
     <path d="M 55.965625 35.416562 
L 75.965625 35.416562 
" style="fill:none;stroke:#1f77b4;stroke-linecap:square;stroke-width:1.5;"/>
    </g>
    <g id="line2d_30"/>
    <g id="text_17">
     <!-- Predicted -->
     <defs>
      <path d="M 45.40625 46.390625 
L 45.40625 75.984375 
L 54.390625 75.984375 
L 54.390625 0 
L 45.40625 0 
L 45.40625 8.203125 
Q 42.578125 3.328125 38.25 0.953125 
Q 33.9375 -1.421875 27.875 -1.421875 
Q 17.96875 -1.421875 11.734375 6.484375 
Q 5.515625 14.40625 5.515625 27.296875 
Q 5.515625 40.1875 11.734375 48.09375 
Q 17.96875 56 27.875 56 
Q 33.9375 56 38.25 53.625 
Q 42.578125 51.265625 45.40625 46.390625 
z
M 14.796875 27.296875 
Q 14.796875 17.390625 18.875 11.75 
Q 22.953125 6.109375 30.078125 6.109375 
Q 37.203125 6.109375 41.296875 11.75 
Q 45.40625 17.390625 45.40625 27.296875 
Q 45.40625 37.203125 41.296875 42.84375 
Q 37.203125 48.484375 30.078125 48.484375 
Q 22.953125 48.484375 18.875 42.84375 
Q 14.796875 37.203125 14.796875 27.296875 
z
" id="DejaVuSans-100"/>
      <path d="M 18.3125 70.21875 
L 18.3125 54.6875 
L 36.8125 54.6875 
L 36.8125 47.703125 
L 18.3125 47.703125 
L 18.3125 18.015625 
Q 18.3125 11.328125 20.140625 9.421875 
Q 21.96875 7.515625 27.59375 7.515625 
L 36.8125 7.515625 
L 36.8125 0 
L 27.59375 0 
Q 17.1875 0 13.234375 3.875 
Q 9.28125 7.765625 9.28125 18.015625 
L 9.28125 47.703125 
L 2.6875 47.703125 
L 2.6875 54.6875 
L 9.28125 54.6875 
L 9.28125 70.21875 
z
" id="DejaVuSans-116"/>
     </defs>
     <g transform="translate(83.965625 38.916562)scale(0.1 -0.1)">
      <use xlink:href="#DejaVuSans-80"/>
      <use x="58.552734" xlink:href="#DejaVuSans-114"/>
      <use x="97.416016" xlink:href="#DejaVuSans-101"/>
      <use x="158.939453" xlink:href="#DejaVuSans-100"/>
      <use x="222.416016" xlink:href="#DejaVuSans-105"/>
      <use x="250.199219" xlink:href="#DejaVuSans-99"/>
      <use x="305.179688" xlink:href="#DejaVuSans-116"/>
      <use x="344.388672" xlink:href="#DejaVuSans-101"/>
      <use x="405.912109" xlink:href="#DejaVuSans-100"/>
     </g>
    </g>
    <g id="line2d_31">
     <path d="M 55.965625 50.094687 
L 75.965625 50.094687 
" style="fill:none;stroke:#ff7f0e;stroke-linecap:square;stroke-width:1.5;"/>
    </g>
    <g id="line2d_32"/>
    <g id="text_18">
     <!-- True value -->
     <defs>
      <path d="M 8.5 21.578125 
L 8.5 54.6875 
L 17.484375 54.6875 
L 17.484375 21.921875 
Q 17.484375 14.15625 20.5 10.265625 
Q 23.53125 6.390625 29.59375 6.390625 
Q 36.859375 6.390625 41.078125 11.03125 
Q 45.3125 15.671875 45.3125 23.6875 
L 45.3125 54.6875 
L 54.296875 54.6875 
L 54.296875 0 
L 45.3125 0 
L 45.3125 8.40625 
Q 42.046875 3.421875 37.71875 1 
Q 33.40625 -1.421875 27.6875 -1.421875 
Q 18.265625 -1.421875 13.375 4.4375 
Q 8.5 10.296875 8.5 21.578125 
z
M 31.109375 56 
z
" id="DejaVuSans-117"/>
      <path d="M 2.984375 54.6875 
L 12.5 54.6875 
L 29.59375 8.796875 
L 46.6875 54.6875 
L 56.203125 54.6875 
L 35.6875 0 
L 23.484375 0 
z
" id="DejaVuSans-118"/>
      <path d="M 9.421875 75.984375 
L 18.40625 75.984375 
L 18.40625 0 
L 9.421875 0 
z
" id="DejaVuSans-108"/>
     </defs>
     <g transform="translate(83.965625 53.594687)scale(0.1 -0.1)">
      <use xlink:href="#DejaVuSans-84"/>
      <use x="46.333984" xlink:href="#DejaVuSans-114"/>
      <use x="87.447266" xlink:href="#DejaVuSans-117"/>
      <use x="150.826172" xlink:href="#DejaVuSans-101"/>
      <use x="212.349609" xlink:href="#DejaVuSans-32"/>
      <use x="244.136719" xlink:href="#DejaVuSans-118"/>
      <use x="303.316406" xlink:href="#DejaVuSans-97"/>
      <use x="364.595703" xlink:href="#DejaVuSans-108"/>
      <use x="392.378906" xlink:href="#DejaVuSans-117"/>
      <use x="455.757812" xlink:href="#DejaVuSans-101"/>
     </g>
    </g>
   </g>
  </g>
 </g>
 <defs>
  <clipPath id="p5bbffdba60">
   <rect height="266.112" width="357.12" x="46.965625" y="22.318125"/>
  </clipPath>
 </defs>
</svg>
