<?xml version="1.0" encoding="utf-8" standalone="no"?>
<!DOCTYPE svg PUBLIC "-//W3C//DTD SVG 1.1//EN"
  "http://www.w3.org/Graphics/SVG/1.1/DTD/svg11.dtd">
<!-- Created with matplotlib (https://matplotlib.org/) -->
<svg height="325.986375pt" version="1.1" viewBox="0 0 411.285625 325.986375" width="411.285625pt" xmlns="http://www.w3.org/2000/svg" xmlns:xlink="http://www.w3.org/1999/xlink">
 <defs>
  <style type="text/css">
*{stroke-linecap:butt;stroke-linejoin:round;}
  </style>
 </defs>
 <g id="figure_1">
  <g id="patch_1">
   <path d="M 0 325.986375 
L 411.285625 325.986375 
L 411.285625 0 
L 0 0 
z
" style="fill:#ffffff;"/>
  </g>
  <g id="axes_1">
   <g id="patch_2">
    <path d="M 46.965625 288.430125 
L 404.085625 288.430125 
L 404.085625 22.318125 
L 46.965625 22.318125 
z
" style="fill:#ffffff;"/>
   </g>
   <g id="matplotlib.axis_1">
    <g id="xtick_1">
     <g id="line2d_1">
      <path clip-path="url(#p346fd17596)" d="M 63.198352 288.430125 
L 63.198352 22.318125 
" style="fill:none;stroke:#b0b0b0;stroke-dasharray:2.96,1.28;stroke-dashoffset:0;stroke-width:0.8;"/>
     </g>
     <g id="line2d_2">
      <defs>
       <path d="M 0 0 
L 0 3.5 
" id="mb595664da2" style="stroke:#000000;stroke-width:0.8;"/>
      </defs>
      <g>
       <use style="stroke:#000000;stroke-width:0.8;" x="63.198352" xlink:href="#mb595664da2" y="288.430125"/>
      </g>
     </g>
     <g id="text_1">
      <!-- 0 -->
      <defs>
       <path d="M 31.78125 66.40625 
Q 24.171875 66.40625 20.328125 58.90625 
Q 16.5 51.421875 16.5 36.375 
Q 16.5 21.390625 20.328125 13.890625 
Q 24.171875 6.390625 31.78125 6.390625 
Q 39.453125 6.390625 43.28125 13.890625 
Q 47.125 21.390625 47.125 36.375 
Q 47.125 51.421875 43.28125 58.90625 
Q 39.453125 66.40625 31.78125 66.40625 
z
M 31.78125 74.21875 
Q 44.046875 74.21875 50.515625 64.515625 
Q 56.984375 54.828125 56.984375 36.375 
Q 56.984375 17.96875 50.515625 8.265625 
Q 44.046875 -1.421875 31.78125 -1.421875 
Q 19.53125 -1.421875 13.0625 8.265625 
Q 6.59375 17.96875 6.59375 36.375 
Q 6.59375 54.828125 13.0625 64.515625 
Q 19.53125 74.21875 31.78125 74.21875 
z
" id="DejaVuSans-48"/>
      </defs>
      <g transform="translate(60.017102 303.028562)scale(0.1 -0.1)">
       <use xlink:href="#DejaVuSans-48"/>
      </g>
     </g>
    </g>
    <g id="xtick_2">
     <g id="line2d_3">
      <path clip-path="url(#p346fd17596)" d="M 112.128954 288.430125 
L 112.128954 22.318125 
" style="fill:none;stroke:#b0b0b0;stroke-dasharray:2.96,1.28;stroke-dashoffset:0;stroke-width:0.8;"/>
     </g>
     <g id="line2d_4">
      <g>
       <use style="stroke:#000000;stroke-width:0.8;" x="112.128954" xlink:href="#mb595664da2" y="288.430125"/>
      </g>
     </g>
     <g id="text_2">
      <!-- 200 -->
      <defs>
       <path d="M 19.1875 8.296875 
L 53.609375 8.296875 
L 53.609375 0 
L 7.328125 0 
L 7.328125 8.296875 
Q 12.9375 14.109375 22.625 23.890625 
Q 32.328125 33.6875 34.8125 36.53125 
Q 39.546875 41.84375 41.421875 45.53125 
Q 43.3125 49.21875 43.3125 52.78125 
Q 43.3125 58.59375 39.234375 62.25 
Q 35.15625 65.921875 28.609375 65.921875 
Q 23.96875 65.921875 18.8125 64.3125 
Q 13.671875 62.703125 7.8125 59.421875 
L 7.8125 69.390625 
Q 13.765625 71.78125 18.9375 73 
Q 24.125 74.21875 28.421875 74.21875 
Q 39.75 74.21875 46.484375 68.546875 
Q 53.21875 62.890625 53.21875 53.421875 
Q 53.21875 48.921875 51.53125 44.890625 
Q 49.859375 40.875 45.40625 35.40625 
Q 44.1875 33.984375 37.640625 27.21875 
Q 31.109375 20.453125 19.1875 8.296875 
z
" id="DejaVuSans-50"/>
      </defs>
      <g transform="translate(102.585204 303.028562)scale(0.1 -0.1)">
       <use xlink:href="#DejaVuSans-50"/>
       <use x="63.623047" xlink:href="#DejaVuSans-48"/>
       <use x="127.246094" xlink:href="#DejaVuSans-48"/>
      </g>
     </g>
    </g>
    <g id="xtick_3">
     <g id="line2d_5">
      <path clip-path="url(#p346fd17596)" d="M 161.059557 288.430125 
L 161.059557 22.318125 
" style="fill:none;stroke:#b0b0b0;stroke-dasharray:2.96,1.28;stroke-dashoffset:0;stroke-width:0.8;"/>
     </g>
     <g id="line2d_6">
      <g>
       <use style="stroke:#000000;stroke-width:0.8;" x="161.059557" xlink:href="#mb595664da2" y="288.430125"/>
      </g>
     </g>
     <g id="text_3">
      <!-- 400 -->
      <defs>
       <path d="M 37.796875 64.3125 
L 12.890625 25.390625 
L 37.796875 25.390625 
z
M 35.203125 72.90625 
L 47.609375 72.90625 
L 47.609375 25.390625 
L 58.015625 25.390625 
L 58.015625 17.1875 
L 47.609375 17.1875 
L 47.609375 0 
L 37.796875 0 
L 37.796875 17.1875 
L 4.890625 17.1875 
L 4.890625 26.703125 
z
" id="DejaVuSans-52"/>
      </defs>
      <g transform="translate(151.515807 303.028562)scale(0.1 -0.1)">
       <use xlink:href="#DejaVuSans-52"/>
       <use x="63.623047" xlink:href="#DejaVuSans-48"/>
       <use x="127.246094" xlink:href="#DejaVuSans-48"/>
      </g>
     </g>
    </g>
    <g id="xtick_4">
     <g id="line2d_7">
      <path clip-path="url(#p346fd17596)" d="M 209.990159 288.430125 
L 209.990159 22.318125 
" style="fill:none;stroke:#b0b0b0;stroke-dasharray:2.96,1.28;stroke-dashoffset:0;stroke-width:0.8;"/>
     </g>
     <g id="line2d_8">
      <g>
       <use style="stroke:#000000;stroke-width:0.8;" x="209.990159" xlink:href="#mb595664da2" y="288.430125"/>
      </g>
     </g>
     <g id="text_4">
      <!-- 600 -->
      <defs>
       <path d="M 33.015625 40.375 
Q 26.375 40.375 22.484375 35.828125 
Q 18.609375 31.296875 18.609375 23.390625 
Q 18.609375 15.53125 22.484375 10.953125 
Q 26.375 6.390625 33.015625 6.390625 
Q 39.65625 6.390625 43.53125 10.953125 
Q 47.40625 15.53125 47.40625 23.390625 
Q 47.40625 31.296875 43.53125 35.828125 
Q 39.65625 40.375 33.015625 40.375 
z
M 52.59375 71.296875 
L 52.59375 62.3125 
Q 48.875 64.0625 45.09375 64.984375 
Q 41.3125 65.921875 37.59375 65.921875 
Q 27.828125 65.921875 22.671875 59.328125 
Q 17.53125 52.734375 16.796875 39.40625 
Q 19.671875 43.65625 24.015625 45.921875 
Q 28.375 48.1875 33.59375 48.1875 
Q 44.578125 48.1875 50.953125 41.515625 
Q 57.328125 34.859375 57.328125 23.390625 
Q 57.328125 12.15625 50.6875 5.359375 
Q 44.046875 -1.421875 33.015625 -1.421875 
Q 20.359375 -1.421875 13.671875 8.265625 
Q 6.984375 17.96875 6.984375 36.375 
Q 6.984375 53.65625 15.1875 63.9375 
Q 23.390625 74.21875 37.203125 74.21875 
Q 40.921875 74.21875 44.703125 73.484375 
Q 48.484375 72.75 52.59375 71.296875 
z
" id="DejaVuSans-54"/>
      </defs>
      <g transform="translate(200.446409 303.028562)scale(0.1 -0.1)">
       <use xlink:href="#DejaVuSans-54"/>
       <use x="63.623047" xlink:href="#DejaVuSans-48"/>
       <use x="127.246094" xlink:href="#DejaVuSans-48"/>
      </g>
     </g>
    </g>
    <g id="xtick_5">
     <g id="line2d_9">
      <path clip-path="url(#p346fd17596)" d="M 258.920761 288.430125 
L 258.920761 22.318125 
" style="fill:none;stroke:#b0b0b0;stroke-dasharray:2.96,1.28;stroke-dashoffset:0;stroke-width:0.8;"/>
     </g>
     <g id="line2d_10">
      <g>
       <use style="stroke:#000000;stroke-width:0.8;" x="258.920761" xlink:href="#mb595664da2" y="288.430125"/>
      </g>
     </g>
     <g id="text_5">
      <!-- 800 -->
      <defs>
       <path d="M 31.78125 34.625 
Q 24.75 34.625 20.71875 30.859375 
Q 16.703125 27.09375 16.703125 20.515625 
Q 16.703125 13.921875 20.71875 10.15625 
Q 24.75 6.390625 31.78125 6.390625 
Q 38.8125 6.390625 42.859375 10.171875 
Q 46.921875 13.96875 46.921875 20.515625 
Q 46.921875 27.09375 42.890625 30.859375 
Q 38.875 34.625 31.78125 34.625 
z
M 21.921875 38.8125 
Q 15.578125 40.375 12.03125 44.71875 
Q 8.5 49.078125 8.5 55.328125 
Q 8.5 64.0625 14.71875 69.140625 
Q 20.953125 74.21875 31.78125 74.21875 
Q 42.671875 74.21875 48.875 69.140625 
Q 55.078125 64.0625 55.078125 55.328125 
Q 55.078125 49.078125 51.53125 44.71875 
Q 48 40.375 41.703125 38.8125 
Q 48.828125 37.15625 52.796875 32.3125 
Q 56.78125 27.484375 56.78125 20.515625 
Q 56.78125 9.90625 50.3125 4.234375 
Q 43.84375 -1.421875 31.78125 -1.421875 
Q 19.734375 -1.421875 13.25 4.234375 
Q 6.78125 9.90625 6.78125 20.515625 
Q 6.78125 27.484375 10.78125 32.3125 
Q 14.796875 37.15625 21.921875 38.8125 
z
M 18.3125 54.390625 
Q 18.3125 48.734375 21.84375 45.5625 
Q 25.390625 42.390625 31.78125 42.390625 
Q 38.140625 42.390625 41.71875 45.5625 
Q 45.3125 48.734375 45.3125 54.390625 
Q 45.3125 60.0625 41.71875 63.234375 
Q 38.140625 66.40625 31.78125 66.40625 
Q 25.390625 66.40625 21.84375 63.234375 
Q 18.3125 60.0625 18.3125 54.390625 
z
" id="DejaVuSans-56"/>
      </defs>
      <g transform="translate(249.377011 303.028562)scale(0.1 -0.1)">
       <use xlink:href="#DejaVuSans-56"/>
       <use x="63.623047" xlink:href="#DejaVuSans-48"/>
       <use x="127.246094" xlink:href="#DejaVuSans-48"/>
      </g>
     </g>
    </g>
    <g id="xtick_6">
     <g id="line2d_11">
      <path clip-path="url(#p346fd17596)" d="M 307.851363 288.430125 
L 307.851363 22.318125 
" style="fill:none;stroke:#b0b0b0;stroke-dasharray:2.96,1.28;stroke-dashoffset:0;stroke-width:0.8;"/>
     </g>
     <g id="line2d_12">
      <g>
       <use style="stroke:#000000;stroke-width:0.8;" x="307.851363" xlink:href="#mb595664da2" y="288.430125"/>
      </g>
     </g>
     <g id="text_6">
      <!-- 1000 -->
      <defs>
       <path d="M 12.40625 8.296875 
L 28.515625 8.296875 
L 28.515625 63.921875 
L 10.984375 60.40625 
L 10.984375 69.390625 
L 28.421875 72.90625 
L 38.28125 72.90625 
L 38.28125 8.296875 
L 54.390625 8.296875 
L 54.390625 0 
L 12.40625 0 
z
" id="DejaVuSans-49"/>
      </defs>
      <g transform="translate(295.126363 303.028562)scale(0.1 -0.1)">
       <use xlink:href="#DejaVuSans-49"/>
       <use x="63.623047" xlink:href="#DejaVuSans-48"/>
       <use x="127.246094" xlink:href="#DejaVuSans-48"/>
       <use x="190.869141" xlink:href="#DejaVuSans-48"/>
      </g>
     </g>
    </g>
    <g id="xtick_7">
     <g id="line2d_13">
      <path clip-path="url(#p346fd17596)" d="M 356.781965 288.430125 
L 356.781965 22.318125 
" style="fill:none;stroke:#b0b0b0;stroke-dasharray:2.96,1.28;stroke-dashoffset:0;stroke-width:0.8;"/>
     </g>
     <g id="line2d_14">
      <g>
       <use style="stroke:#000000;stroke-width:0.8;" x="356.781965" xlink:href="#mb595664da2" y="288.430125"/>
      </g>
     </g>
     <g id="text_7">
      <!-- 1200 -->
      <g transform="translate(344.056965 303.028562)scale(0.1 -0.1)">
       <use xlink:href="#DejaVuSans-49"/>
       <use x="63.623047" xlink:href="#DejaVuSans-50"/>
       <use x="127.246094" xlink:href="#DejaVuSans-48"/>
       <use x="190.869141" xlink:href="#DejaVuSans-48"/>
      </g>
     </g>
    </g>
    <g id="text_8">
     <!-- Day -->
     <defs>
      <path d="M 19.671875 64.796875 
L 19.671875 8.109375 
L 31.59375 8.109375 
Q 46.6875 8.109375 53.6875 14.9375 
Q 60.6875 21.78125 60.6875 36.53125 
Q 60.6875 51.171875 53.6875 57.984375 
Q 46.6875 64.796875 31.59375 64.796875 
z
M 9.8125 72.90625 
L 30.078125 72.90625 
Q 51.265625 72.90625 61.171875 64.09375 
Q 71.09375 55.28125 71.09375 36.53125 
Q 71.09375 17.671875 61.125 8.828125 
Q 51.171875 0 30.078125 0 
L 9.8125 0 
z
" id="DejaVuSans-68"/>
      <path d="M 34.28125 27.484375 
Q 23.390625 27.484375 19.1875 25 
Q 14.984375 22.515625 14.984375 16.5 
Q 14.984375 11.71875 18.140625 8.90625 
Q 21.296875 6.109375 26.703125 6.109375 
Q 34.1875 6.109375 38.703125 11.40625 
Q 43.21875 16.703125 43.21875 25.484375 
L 43.21875 27.484375 
z
M 52.203125 31.203125 
L 52.203125 0 
L 43.21875 0 
L 43.21875 8.296875 
Q 40.140625 3.328125 35.546875 0.953125 
Q 30.953125 -1.421875 24.3125 -1.421875 
Q 15.921875 -1.421875 10.953125 3.296875 
Q 6 8.015625 6 15.921875 
Q 6 25.140625 12.171875 29.828125 
Q 18.359375 34.515625 30.609375 34.515625 
L 43.21875 34.515625 
L 43.21875 35.40625 
Q 43.21875 41.609375 39.140625 45 
Q 35.0625 48.390625 27.6875 48.390625 
Q 23 48.390625 18.546875 47.265625 
Q 14.109375 46.140625 10.015625 43.890625 
L 10.015625 52.203125 
Q 14.9375 54.109375 19.578125 55.046875 
Q 24.21875 56 28.609375 56 
Q 40.484375 56 46.34375 49.84375 
Q 52.203125 43.703125 52.203125 31.203125 
z
" id="DejaVuSans-97"/>
      <path d="M 32.171875 -5.078125 
Q 28.375 -14.84375 24.75 -17.8125 
Q 21.140625 -20.796875 15.09375 -20.796875 
L 7.90625 -20.796875 
L 7.90625 -13.28125 
L 13.1875 -13.28125 
Q 16.890625 -13.28125 18.9375 -11.515625 
Q 21 -9.765625 23.484375 -3.21875 
L 25.09375 0.875 
L 2.984375 54.6875 
L 12.5 54.6875 
L 29.59375 11.921875 
L 46.6875 54.6875 
L 56.203125 54.6875 
z
" id="DejaVuSans-121"/>
     </defs>
     <g transform="translate(215.652188 316.706687)scale(0.1 -0.1)">
      <use xlink:href="#DejaVuSans-68"/>
      <use x="77.001953" xlink:href="#DejaVuSans-97"/>
      <use x="138.28125" xlink:href="#DejaVuSans-121"/>
     </g>
    </g>
   </g>
   <g id="matplotlib.axis_2">
    <g id="ytick_1">
     <g id="line2d_15">
      <path clip-path="url(#p346fd17596)" d="M 46.965625 266.458282 
L 404.085625 266.458282 
" style="fill:none;stroke:#b0b0b0;stroke-dasharray:2.96,1.28;stroke-dashoffset:0;stroke-width:0.8;"/>
     </g>
     <g id="line2d_16">
      <defs>
       <path d="M 0 0 
L -3.5 0 
" id="mf21cc1d499" style="stroke:#000000;stroke-width:0.8;"/>
      </defs>
      <g>
       <use style="stroke:#000000;stroke-width:0.8;" x="46.965625" xlink:href="#mf21cc1d499" y="266.458282"/>
      </g>
     </g>
     <g id="text_9">
      <!-- 50 -->
      <defs>
       <path d="M 10.796875 72.90625 
L 49.515625 72.90625 
L 49.515625 64.59375 
L 19.828125 64.59375 
L 19.828125 46.734375 
Q 21.96875 47.46875 24.109375 47.828125 
Q 26.265625 48.1875 28.421875 48.1875 
Q 40.625 48.1875 47.75 41.5 
Q 54.890625 34.8125 54.890625 23.390625 
Q 54.890625 11.625 47.5625 5.09375 
Q 40.234375 -1.421875 26.90625 -1.421875 
Q 22.3125 -1.421875 17.546875 -0.640625 
Q 12.796875 0.140625 7.71875 1.703125 
L 7.71875 11.625 
Q 12.109375 9.234375 16.796875 8.0625 
Q 21.484375 6.890625 26.703125 6.890625 
Q 35.15625 6.890625 40.078125 11.328125 
Q 45.015625 15.765625 45.015625 23.390625 
Q 45.015625 31 40.078125 35.4375 
Q 35.15625 39.890625 26.703125 39.890625 
Q 22.75 39.890625 18.8125 39.015625 
Q 14.890625 38.140625 10.796875 36.28125 
z
" id="DejaVuSans-53"/>
      </defs>
      <g transform="translate(27.240625 270.257501)scale(0.1 -0.1)">
       <use xlink:href="#DejaVuSans-53"/>
       <use x="63.623047" xlink:href="#DejaVuSans-48"/>
      </g>
     </g>
    </g>
    <g id="ytick_2">
     <g id="line2d_17">
      <path clip-path="url(#p346fd17596)" d="M 46.965625 234.090566 
L 404.085625 234.090566 
" style="fill:none;stroke:#b0b0b0;stroke-dasharray:2.96,1.28;stroke-dashoffset:0;stroke-width:0.8;"/>
     </g>
     <g id="line2d_18">
      <g>
       <use style="stroke:#000000;stroke-width:0.8;" x="46.965625" xlink:href="#mf21cc1d499" y="234.090566"/>
      </g>
     </g>
     <g id="text_10">
      <!-- 60 -->
      <g transform="translate(27.240625 237.889785)scale(0.1 -0.1)">
       <use xlink:href="#DejaVuSans-54"/>
       <use x="63.623047" xlink:href="#DejaVuSans-48"/>
      </g>
     </g>
    </g>
    <g id="ytick_3">
     <g id="line2d_19">
      <path clip-path="url(#p346fd17596)" d="M 46.965625 201.72285 
L 404.085625 201.72285 
" style="fill:none;stroke:#b0b0b0;stroke-dasharray:2.96,1.28;stroke-dashoffset:0;stroke-width:0.8;"/>
     </g>
     <g id="line2d_20">
      <g>
       <use style="stroke:#000000;stroke-width:0.8;" x="46.965625" xlink:href="#mf21cc1d499" y="201.72285"/>
      </g>
     </g>
     <g id="text_11">
      <!-- 70 -->
      <defs>
       <path d="M 8.203125 72.90625 
L 55.078125 72.90625 
L 55.078125 68.703125 
L 28.609375 0 
L 18.3125 0 
L 43.21875 64.59375 
L 8.203125 64.59375 
z
" id="DejaVuSans-55"/>
      </defs>
      <g transform="translate(27.240625 205.522069)scale(0.1 -0.1)">
       <use xlink:href="#DejaVuSans-55"/>
       <use x="63.623047" xlink:href="#DejaVuSans-48"/>
      </g>
     </g>
    </g>
    <g id="ytick_4">
     <g id="line2d_21">
      <path clip-path="url(#p346fd17596)" d="M 46.965625 169.355134 
L 404.085625 169.355134 
" style="fill:none;stroke:#b0b0b0;stroke-dasharray:2.96,1.28;stroke-dashoffset:0;stroke-width:0.8;"/>
     </g>
     <g id="line2d_22">
      <g>
       <use style="stroke:#000000;stroke-width:0.8;" x="46.965625" xlink:href="#mf21cc1d499" y="169.355134"/>
      </g>
     </g>
     <g id="text_12">
      <!-- 80 -->
      <g transform="translate(27.240625 173.154352)scale(0.1 -0.1)">
       <use xlink:href="#DejaVuSans-56"/>
       <use x="63.623047" xlink:href="#DejaVuSans-48"/>
      </g>
     </g>
    </g>
    <g id="ytick_5">
     <g id="line2d_23">
      <path clip-path="url(#p346fd17596)" d="M 46.965625 136.987418 
L 404.085625 136.987418 
" style="fill:none;stroke:#b0b0b0;stroke-dasharray:2.96,1.28;stroke-dashoffset:0;stroke-width:0.8;"/>
     </g>
     <g id="line2d_24">
      <g>
       <use style="stroke:#000000;stroke-width:0.8;" x="46.965625" xlink:href="#mf21cc1d499" y="136.987418"/>
      </g>
     </g>
     <g id="text_13">
      <!-- 90 -->
      <defs>
       <path d="M 10.984375 1.515625 
L 10.984375 10.5 
Q 14.703125 8.734375 18.5 7.8125 
Q 22.3125 6.890625 25.984375 6.890625 
Q 35.75 6.890625 40.890625 13.453125 
Q 46.046875 20.015625 46.78125 33.40625 
Q 43.953125 29.203125 39.59375 26.953125 
Q 35.25 24.703125 29.984375 24.703125 
Q 19.046875 24.703125 12.671875 31.3125 
Q 6.296875 37.9375 6.296875 49.421875 
Q 6.296875 60.640625 12.9375 67.421875 
Q 19.578125 74.21875 30.609375 74.21875 
Q 43.265625 74.21875 49.921875 64.515625 
Q 56.59375 54.828125 56.59375 36.375 
Q 56.59375 19.140625 48.40625 8.859375 
Q 40.234375 -1.421875 26.421875 -1.421875 
Q 22.703125 -1.421875 18.890625 -0.6875 
Q 15.09375 0.046875 10.984375 1.515625 
z
M 30.609375 32.421875 
Q 37.25 32.421875 41.125 36.953125 
Q 45.015625 41.5 45.015625 49.421875 
Q 45.015625 57.28125 41.125 61.84375 
Q 37.25 66.40625 30.609375 66.40625 
Q 23.96875 66.40625 20.09375 61.84375 
Q 16.21875 57.28125 16.21875 49.421875 
Q 16.21875 41.5 20.09375 36.953125 
Q 23.96875 32.421875 30.609375 32.421875 
z
" id="DejaVuSans-57"/>
      </defs>
      <g transform="translate(27.240625 140.786636)scale(0.1 -0.1)">
       <use xlink:href="#DejaVuSans-57"/>
       <use x="63.623047" xlink:href="#DejaVuSans-48"/>
      </g>
     </g>
    </g>
    <g id="ytick_6">
     <g id="line2d_25">
      <path clip-path="url(#p346fd17596)" d="M 46.965625 104.619701 
L 404.085625 104.619701 
" style="fill:none;stroke:#b0b0b0;stroke-dasharray:2.96,1.28;stroke-dashoffset:0;stroke-width:0.8;"/>
     </g>
     <g id="line2d_26">
      <g>
       <use style="stroke:#000000;stroke-width:0.8;" x="46.965625" xlink:href="#mf21cc1d499" y="104.619701"/>
      </g>
     </g>
     <g id="text_14">
      <!-- 100 -->
      <g transform="translate(20.878125 108.41892)scale(0.1 -0.1)">
       <use xlink:href="#DejaVuSans-49"/>
       <use x="63.623047" xlink:href="#DejaVuSans-48"/>
       <use x="127.246094" xlink:href="#DejaVuSans-48"/>
      </g>
     </g>
    </g>
    <g id="ytick_7">
     <g id="line2d_27">
      <path clip-path="url(#p346fd17596)" d="M 46.965625 72.251985 
L 404.085625 72.251985 
" style="fill:none;stroke:#b0b0b0;stroke-dasharray:2.96,1.28;stroke-dashoffset:0;stroke-width:0.8;"/>
     </g>
     <g id="line2d_28">
      <g>
       <use style="stroke:#000000;stroke-width:0.8;" x="46.965625" xlink:href="#mf21cc1d499" y="72.251985"/>
      </g>
     </g>
     <g id="text_15">
      <!-- 110 -->
      <g transform="translate(20.878125 76.051204)scale(0.1 -0.1)">
       <use xlink:href="#DejaVuSans-49"/>
       <use x="63.623047" xlink:href="#DejaVuSans-49"/>
       <use x="127.246094" xlink:href="#DejaVuSans-48"/>
      </g>
     </g>
    </g>
    <g id="ytick_8">
     <g id="line2d_29">
      <path clip-path="url(#p346fd17596)" d="M 46.965625 39.884269 
L 404.085625 39.884269 
" style="fill:none;stroke:#b0b0b0;stroke-dasharray:2.96,1.28;stroke-dashoffset:0;stroke-width:0.8;"/>
     </g>
     <g id="line2d_30">
      <g>
       <use style="stroke:#000000;stroke-width:0.8;" x="46.965625" xlink:href="#mf21cc1d499" y="39.884269"/>
      </g>
     </g>
     <g id="text_16">
      <!-- 120 -->
      <g transform="translate(20.878125 43.683488)scale(0.1 -0.1)">
       <use xlink:href="#DejaVuSans-49"/>
       <use x="63.623047" xlink:href="#DejaVuSans-50"/>
       <use x="127.246094" xlink:href="#DejaVuSans-48"/>
      </g>
     </g>
    </g>
    <g id="text_17">
     <!-- Price $ -->
     <defs>
      <path d="M 19.671875 64.796875 
L 19.671875 37.40625 
L 32.078125 37.40625 
Q 38.96875 37.40625 42.71875 40.96875 
Q 46.484375 44.53125 46.484375 51.125 
Q 46.484375 57.671875 42.71875 61.234375 
Q 38.96875 64.796875 32.078125 64.796875 
z
M 9.8125 72.90625 
L 32.078125 72.90625 
Q 44.34375 72.90625 50.609375 67.359375 
Q 56.890625 61.8125 56.890625 51.125 
Q 56.890625 40.328125 50.609375 34.8125 
Q 44.34375 29.296875 32.078125 29.296875 
L 19.671875 29.296875 
L 19.671875 0 
L 9.8125 0 
z
" id="DejaVuSans-80"/>
      <path d="M 41.109375 46.296875 
Q 39.59375 47.171875 37.8125 47.578125 
Q 36.03125 48 33.890625 48 
Q 26.265625 48 22.1875 43.046875 
Q 18.109375 38.09375 18.109375 28.8125 
L 18.109375 0 
L 9.078125 0 
L 9.078125 54.6875 
L 18.109375 54.6875 
L 18.109375 46.1875 
Q 20.953125 51.171875 25.484375 53.578125 
Q 30.03125 56 36.53125 56 
Q 37.453125 56 38.578125 55.875 
Q 39.703125 55.765625 41.0625 55.515625 
z
" id="DejaVuSans-114"/>
      <path d="M 9.421875 54.6875 
L 18.40625 54.6875 
L 18.40625 0 
L 9.421875 0 
z
M 9.421875 75.984375 
L 18.40625 75.984375 
L 18.40625 64.59375 
L 9.421875 64.59375 
z
" id="DejaVuSans-105"/>
      <path d="M 48.78125 52.59375 
L 48.78125 44.1875 
Q 44.96875 46.296875 41.140625 47.34375 
Q 37.3125 48.390625 33.40625 48.390625 
Q 24.65625 48.390625 19.8125 42.84375 
Q 14.984375 37.3125 14.984375 27.296875 
Q 14.984375 17.28125 19.8125 11.734375 
Q 24.65625 6.203125 33.40625 6.203125 
Q 37.3125 6.203125 41.140625 7.25 
Q 44.96875 8.296875 48.78125 10.40625 
L 48.78125 2.09375 
Q 45.015625 0.34375 40.984375 -0.53125 
Q 36.96875 -1.421875 32.421875 -1.421875 
Q 20.0625 -1.421875 12.78125 6.34375 
Q 5.515625 14.109375 5.515625 27.296875 
Q 5.515625 40.671875 12.859375 48.328125 
Q 20.21875 56 33.015625 56 
Q 37.15625 56 41.109375 55.140625 
Q 45.0625 54.296875 48.78125 52.59375 
z
" id="DejaVuSans-99"/>
      <path d="M 56.203125 29.59375 
L 56.203125 25.203125 
L 14.890625 25.203125 
Q 15.484375 15.921875 20.484375 11.0625 
Q 25.484375 6.203125 34.421875 6.203125 
Q 39.59375 6.203125 44.453125 7.46875 
Q 49.3125 8.734375 54.109375 11.28125 
L 54.109375 2.78125 
Q 49.265625 0.734375 44.1875 -0.34375 
Q 39.109375 -1.421875 33.890625 -1.421875 
Q 20.796875 -1.421875 13.15625 6.1875 
Q 5.515625 13.8125 5.515625 26.8125 
Q 5.515625 40.234375 12.765625 48.109375 
Q 20.015625 56 32.328125 56 
Q 43.359375 56 49.78125 48.890625 
Q 56.203125 41.796875 56.203125 29.59375 
z
M 47.21875 32.234375 
Q 47.125 39.59375 43.09375 43.984375 
Q 39.0625 48.390625 32.421875 48.390625 
Q 24.90625 48.390625 20.390625 44.140625 
Q 15.875 39.890625 15.1875 32.171875 
z
" id="DejaVuSans-101"/>
      <path id="DejaVuSans-32"/>
      <path d="M 33.796875 -14.703125 
L 28.90625 -14.703125 
L 28.859375 0 
Q 23.734375 0.09375 18.609375 1.1875 
Q 13.484375 2.296875 8.296875 4.5 
L 8.296875 13.28125 
Q 13.28125 10.15625 18.375 8.5625 
Q 23.484375 6.984375 28.90625 6.9375 
L 28.90625 29.203125 
Q 18.109375 30.953125 13.203125 35.15625 
Q 8.296875 39.359375 8.296875 46.6875 
Q 8.296875 54.640625 13.625 59.21875 
Q 18.953125 63.8125 28.90625 64.5 
L 28.90625 75.984375 
L 33.796875 75.984375 
L 33.796875 64.65625 
Q 38.328125 64.453125 42.578125 63.6875 
Q 46.828125 62.9375 50.875 61.625 
L 50.875 53.078125 
Q 46.828125 55.125 42.546875 56.25 
Q 38.28125 57.375 33.796875 57.5625 
L 33.796875 36.71875 
Q 44.875 35.015625 50.09375 30.609375 
Q 55.328125 26.21875 55.328125 18.609375 
Q 55.328125 10.359375 49.78125 5.59375 
Q 44.234375 0.828125 33.796875 0.09375 
z
M 28.90625 37.59375 
L 28.90625 57.625 
Q 23.25 56.984375 20.265625 54.390625 
Q 17.28125 51.8125 17.28125 47.515625 
Q 17.28125 43.3125 20.03125 40.96875 
Q 22.796875 38.625 28.90625 37.59375 
z
M 33.796875 28.21875 
L 33.796875 7.078125 
Q 39.984375 7.90625 43.140625 10.59375 
Q 46.296875 13.28125 46.296875 17.671875 
Q 46.296875 21.96875 43.28125 24.5 
Q 40.28125 27.046875 33.796875 28.21875 
z
" id="DejaVuSans-36"/>
     </defs>
     <g transform="translate(14.798438 172.342094)rotate(-90)scale(0.1 -0.1)">
      <use xlink:href="#DejaVuSans-80"/>
      <use x="58.552734" xlink:href="#DejaVuSans-114"/>
      <use x="99.666016" xlink:href="#DejaVuSans-105"/>
      <use x="127.449219" xlink:href="#DejaVuSans-99"/>
      <use x="182.429688" xlink:href="#DejaVuSans-101"/>
      <use x="243.953125" xlink:href="#DejaVuSans-32"/>
      <use x="275.740234" xlink:href="#DejaVuSans-36"/>
     </g>
    </g>
   </g>
   <g id="line2d_31">
    <path clip-path="url(#p346fd17596)" d="M 63.198352 268.643669 
L 63.443005 266.179653 
L 63.687658 266.538404 
L 63.932311 267.100132 
L 64.176964 268.854141 
L 64.421617 269.633922 
L 64.66627 269.639009 
L 64.910923 266.178221 
L 65.155576 266.520648 
L 65.400229 266.408066 
L 65.644882 265.007289 
L 66.134188 267.660416 
L 66.378841 267.033383 
L 66.623494 267.109318 
L 66.868147 266.850482 
L 67.357453 264.72314 
L 67.602106 264.990398 
L 67.846759 267.436658 
L 68.091412 267.317309 
L 68.336066 268.788206 
L 68.825372 267.397307 
L 69.070025 267.61862 
L 69.314678 266.26943 
L 69.559331 268.178126 
L 70.048637 267.447548 
L 70.537943 260.657815 
L 70.782596 260.503165 
L 71.027249 261.222939 
L 71.271902 261.220074 
L 71.516555 260.95094 
L 71.761208 258.297924 
L 72.250514 259.3592 
L 72.495167 260.062885 
L 72.73982 257.73632 
L 72.984473 257.617057 
L 73.473779 256.817902 
L 73.718432 257.944977 
L 73.963085 259.987221 
L 74.207738 257.978685 
L 74.941697 260.737221 
L 75.18635 258.338633 
L 75.675656 256.650621 
L 76.164962 261.297566 
L 76.409615 262.229936 
L 76.654268 264.761244 
L 77.143574 263.901119 
L 77.388227 262.171644 
L 77.63288 259.132664 
L 77.877533 258.346338 
L 78.122186 259.942486 
L 78.366839 260.538293 
L 78.611492 263.641504 
L 78.856145 264.012034 
L 79.590104 268.128008 
L 79.834757 266.234203 
L 80.07941 265.846807 
L 80.324063 264.966765 
L 80.568716 264.869876 
L 80.813369 266.197705 
L 81.058022 265.899307 
L 81.302675 276.334125 
L 81.791981 272.949593 
L 82.036634 275.230202 
L 82.281287 274.544976 
L 82.52594 274.49266 
L 83.504552 268.476005 
L 83.749205 269.100013 
L 83.993858 270.371205 
L 84.238511 269.392656 
L 84.483164 266.898365 
L 84.727817 267.35761 
L 84.97247 268.176545 
L 85.217123 268.550483 
L 85.461776 267.463192 
L 85.706429 269.812045 
L 85.951082 268.904616 
L 86.685041 267.382638 
L 87.174347 270.553241 
L 87.419 268.79538 
L 87.663653 265.834546 
L 87.908306 266.188926 
L 88.152959 263.558678 
L 88.397612 266.131857 
L 88.886918 266.958262 
L 89.376224 268.832669 
L 89.620877 267.371353 
L 89.86553 262.351297 
L 90.110183 262.606035 
L 90.354836 259.476487 
L 90.599489 263.276147 
L 90.844143 263.846469 
L 91.088796 263.446293 
L 91.333449 263.463394 
L 91.578102 264.291417 
L 91.822755 264.570552 
L 92.312061 261.511261 
L 92.556714 258.350339 
L 92.801367 258.919414 
L 93.04602 257.612624 
L 93.290673 253.680675 
L 93.779979 252.320471 
L 94.024632 252.224545 
L 94.269285 253.552596 
L 94.513938 253.921842 
L 94.758591 253.543311 
L 95.003244 251.283026 
L 95.247897 253.848302 
L 95.737203 251.247663 
L 95.981856 252.892534 
L 96.226509 251.496042 
L 96.715815 250.547868 
L 96.960468 250.456189 
L 97.205121 250.494996 
L 97.449774 248.288385 
L 97.694427 247.5412 
L 97.93908 251.046328 
L 98.183733 252.489938 
L 98.428386 252.203913 
L 98.673039 253.982208 
L 98.917692 253.495453 
L 99.162345 251.848113 
L 99.406998 251.41876 
L 100.140957 245.420489 
L 100.38561 245.382793 
L 100.630263 245.693587 
L 100.874916 242.28236 
L 101.119569 241.329679 
L 101.364222 243.445871 
L 101.608875 242.607514 
L 101.853528 241.259312 
L 102.098181 242.022733 
L 102.587487 245.958856 
L 102.83214 243.680643 
L 103.076793 245.979217 
L 103.321446 244.382402 
L 103.566099 246.210828 
L 103.810752 244.924807 
L 104.055405 245.770708 
L 104.300058 244.457757 
L 104.544711 244.796382 
L 104.789364 242.25811 
L 105.034017 242.686006 
L 105.27867 241.873862 
L 105.523323 242.206103 
L 105.767976 238.061484 
L 106.012629 236.946646 
L 106.257282 233.64689 
L 106.501935 232.248188 
L 106.746588 232.254003 
L 106.991241 237.085133 
L 107.235894 231.851469 
L 107.480547 231.919132 
L 107.7252 233.715455 
L 107.969853 228.894746 
L 108.459159 226.172499 
L 108.703812 227.720493 
L 108.948465 227.530653 
L 109.193118 227.84888 
L 109.437771 223.849008 
L 109.682424 224.842324 
L 109.927077 223.607545 
L 110.905689 214.971853 
L 111.150342 215.611591 
L 111.639648 210.872227 
L 112.128954 210.246984 
L 112.373607 209.615864 
L 112.61826 212.880935 
L 112.862913 212.938425 
L 113.35222 214.603854 
L 113.596873 215.080336 
L 113.841526 217.176365 
L 114.086179 216.3993 
L 114.330832 212.237517 
L 114.575485 214.458131 
L 115.064791 223.073054 
L 115.309444 221.966057 
L 115.554097 219.828739 
L 115.79875 224.285967 
L 116.043403 224.529333 
L 116.288056 218.623691 
L 116.532709 221.322281 
L 116.777362 221.734656 
L 117.022015 223.381206 
L 117.266668 220.37691 
L 117.511321 221.310106 
L 118.000627 216.668668 
L 118.24528 219.571446 
L 118.489933 227.450285 
L 118.734586 224.985454 
L 118.979239 226.201034 
L 119.223892 225.229301 
L 119.713198 221.810888 
L 119.957851 223.211122 
L 120.202504 220.360982 
L 120.447157 222.846889 
L 120.69181 222.469592 
L 120.936463 221.525431 
L 121.181116 218.482636 
L 121.425769 217.614102 
L 121.670422 217.84107 
L 121.915075 212.06305 
L 122.159728 211.613188 
L 122.649034 217.081933 
L 122.893687 216.368234 
L 123.13834 214.639982 
L 123.627646 219.46274 
L 124.116952 218.752424 
L 124.361605 219.68109 
L 124.606258 218.197462 
L 125.095564 220.118406 
L 125.58487 216.179641 
L 125.829523 213.330797 
L 126.074176 214.62519 
L 126.318829 211.183626 
L 126.563482 216.109064 
L 126.808135 215.346766 
L 127.297441 221.26915 
L 127.542094 221.319527 
L 127.786747 221.567029 
L 128.0314 226.615731 
L 128.276053 227.098226 
L 128.520706 227.926928 
L 128.765359 227.727408 
L 129.010012 230.344641 
L 129.254665 228.922997 
L 129.499318 228.424339 
L 129.743971 229.374748 
L 129.988624 231.508609 
L 130.233277 231.142845 
L 130.47793 230.204018 
L 130.722583 231.097123 
L 130.967236 230.247418 
L 131.211889 230.293091 
L 131.456542 229.593666 
L 131.701195 229.529744 
L 131.945848 228.572 
L 133.169113 210.841951 
L 133.413766 211.293418 
L 133.658419 211.363081 
L 133.903072 215.562227 
L 134.637031 219.453998 
L 134.881684 219.105755 
L 135.126337 217.402345 
L 135.37099 217.69189 
L 135.615643 219.252539 
L 135.860297 217.99914 
L 136.10495 218.338913 
L 136.349603 221.070705 
L 136.594256 216.985574 
L 137.328215 222.07622 
L 137.572868 215.635397 
L 138.062174 212.317528 
L 138.306827 213.198187 
L 138.55148 213.030239 
L 138.796133 213.2396 
L 139.285439 209.572945 
L 139.530092 205.109913 
L 139.774745 207.325291 
L 140.019398 204.722504 
L 140.264051 203.574921 
L 140.508704 204.600735 
L 140.753357 204.68761 
L 140.99801 206.199241 
L 141.487316 204.855608 
L 141.731969 205.60094 
L 141.976622 205.61067 
L 142.221275 204.685042 
L 142.465928 210.603204 
L 142.710581 206.258607 
L 142.955234 206.78722 
L 143.199887 208.730834 
L 143.689193 201.667904 
L 143.933846 201.941545 
L 144.423152 204.090347 
L 144.667805 203.752697 
L 144.912458 202.024223 
L 145.157111 201.367988 
L 145.401764 202.326337 
L 145.646417 197.566031 
L 145.89107 198.881118 
L 146.135723 199.480283 
L 146.380376 198.182952 
L 146.625029 202.369849 
L 146.869682 201.941249 
L 147.114335 200.516716 
L 147.358988 196.934862 
L 147.603641 198.14833 
L 147.848294 196.712586 
L 148.092947 199.375109 
L 148.3376 203.349212 
L 148.582253 202.533376 
L 148.826906 199.494458 
L 149.071559 199.892881 
L 149.560865 192.272298 
L 149.805518 193.415633 
L 150.539477 186.859437 
L 150.78413 187.485618 
L 151.028783 180.933052 
L 151.273436 180.938386 
L 151.518089 181.319276 
L 151.762742 181.236327 
L 152.007395 181.994031 
L 152.252048 180.731075 
L 152.496701 184.81702 
L 152.741354 185.936501 
L 152.986007 184.182319 
L 153.23066 191.193119 
L 153.475313 187.442156 
L 153.719966 187.493669 
L 153.964619 188.385564 
L 154.209272 188.667379 
L 154.453925 188.396355 
L 154.698578 184.959162 
L 154.943231 186.878798 
L 155.187884 192.730457 
L 155.432537 194.246755 
L 155.67719 192.272273 
L 155.921843 197.626385 
L 156.166496 191.021516 
L 156.411149 193.504065 
L 156.655802 201.074024 
L 157.145108 196.362046 
L 157.389761 181.919306 
L 157.634414 184.589089 
L 157.879067 179.251275 
L 158.12372 176.402802 
L 158.368374 176.033815 
L 158.613027 176.019566 
L 158.85768 171.627186 
L 159.102333 169.870732 
L 159.346986 172.399164 
L 159.591639 171.280399 
L 160.080945 166.209954 
L 160.325598 168.032836 
L 160.570251 168.24037 
L 161.059557 166.425242 
L 161.30421 171.330332 
L 161.548863 162.62973 
L 162.038169 158.783817 
L 162.282822 161.927564 
L 162.527475 162.510752 
L 162.772128 165.15184 
L 163.016781 165.356583 
L 163.261434 168.984566 
L 163.506087 168.8565 
L 163.75074 164.735686 
L 163.995393 163.305671 
L 164.240046 167.698397 
L 164.484699 166.88387 
L 164.729352 167.303876 
L 164.974005 170.15114 
L 165.218658 170.554378 
L 165.707964 174.584266 
L 166.19727 168.634076 
L 166.441923 164.704942 
L 166.686576 164.311507 
L 166.931229 164.19601 
L 167.175882 166.916739 
L 167.420535 171.536779 
L 167.665188 170.879458 
L 167.909841 167.856937 
L 168.154494 176.502395 
L 168.399147 178.162712 
L 168.6438 176.417001 
L 168.888453 177.408342 
L 169.377759 169.892513 
L 169.622412 172.224919 
L 169.867065 170.496296 
L 170.111718 170.836489 
L 170.356371 170.567985 
L 170.601024 174.54673 
L 170.845677 175.80055 
L 171.334983 171.477611 
L 171.579636 170.582554 
L 172.068942 165.907371 
L 172.313595 165.495465 
L 172.558248 167.07429 
L 172.802901 163.776177 
L 173.047554 163.223413 
L 173.292207 161.048436 
L 173.53686 162.279289 
L 174.026166 168.636496 
L 174.270819 168.153568 
L 174.515472 165.976393 
L 174.760125 165.985258 
L 175.004778 162.220096 
L 175.249431 161.750775 
L 175.738737 157.105645 
L 175.98339 157.405314 
L 176.228043 155.956605 
L 176.472696 156.014366 
L 176.717349 155.130151 
L 176.962002 156.556116 
L 177.206655 155.670864 
L 177.451308 153.968121 
L 177.695961 154.465841 
L 177.940614 151.335454 
L 178.42992 155.198086 
L 178.674573 159.858995 
L 178.919226 160.70202 
L 179.163879 158.869606 
L 179.408532 159.490552 
L 179.653185 157.803317 
L 179.897838 157.432799 
L 180.142491 160.022054 
L 180.387144 160.546765 
L 180.631798 159.937598 
L 180.876451 156.709149 
L 181.61041 151.17326 
L 181.855063 148.46762 
L 182.099716 148.350987 
L 182.344369 147.039901 
L 182.589022 147.903447 
L 182.833675 150.23763 
L 183.078328 145.861178 
L 183.322981 146.946135 
L 183.567634 146.783694 
L 183.812287 146.789695 
L 184.05694 149.452243 
L 184.546246 152.328794 
L 184.790899 150.359128 
L 185.035552 150.768515 
L 185.280205 149.526277 
L 185.524858 149.705733 
L 185.769511 147.384415 
L 186.014164 149.230856 
L 186.258817 146.832318 
L 186.50347 148.828976 
L 186.748123 146.278887 
L 186.992776 150.197477 
L 187.237429 151.695032 
L 187.482082 145.465842 
L 187.726735 147.840056 
L 187.971388 147.830968 
L 188.216041 151.141774 
L 188.705347 144.870455 
L 188.95 146.327338 
L 189.194653 144.527496 
L 189.683959 139.698639 
L 189.928612 137.07617 
L 190.173265 136.944523 
L 190.417918 137.26375 
L 190.662571 135.346905 
L 191.151877 135.163227 
L 191.39653 136.097202 
L 191.641183 135.345843 
L 192.130489 137.230289 
L 192.375142 133.803122 
L 192.619795 134.048315 
L 192.864448 136.498094 
L 193.109101 133.931978 
L 193.353754 135.281415 
L 193.598407 138.12332 
L 193.84306 138.714163 
L 194.087713 137.441996 
L 194.332366 138.155942 
L 194.577019 136.75151 
L 194.821672 136.609886 
L 195.066325 136.124168 
L 195.310978 136.329084 
L 195.555631 135.363994 
L 196.044937 141.853836 
L 196.28959 138.527299 
L 196.534243 142.630185 
L 196.778896 140.80913 
L 197.023549 141.343991 
L 197.268202 139.838138 
L 197.757508 148.000003 
L 198.002161 140.785572 
L 198.246814 141.71073 
L 198.491467 146.396779 
L 198.73612 143.432463 
L 198.980773 150.140655 
L 199.225426 148.416847 
L 199.470079 156.057384 
L 199.714732 154.543259 
L 199.959385 164.408878 
L 200.204038 163.984995 
L 200.448691 155.105604 
L 200.693344 151.660336 
L 200.937997 145.149652 
L 201.18265 145.806035 
L 201.427303 142.85656 
L 201.671956 141.79447 
L 201.916609 141.333792 
L 202.161262 136.711752 
L 202.405915 137.92564 
L 202.650568 136.247444 
L 202.895221 131.397768 
L 203.139875 131.602561 
L 203.384528 135.438547 
L 203.629181 133.598996 
L 203.873834 130.253346 
L 204.118487 138.704384 
L 204.607793 137.180282 
L 204.852446 137.600807 
L 205.097099 135.249954 
L 205.341752 134.610636 
L 205.586405 135.78279 
L 205.831058 135.418372 
L 206.075711 137.26254 
L 206.320364 140.258317 
L 206.565017 139.805369 
L 207.054323 131.638393 
L 207.298976 130.771291 
L 207.543629 128.692202 
L 207.788282 128.559123 
L 208.032935 126.076155 
L 208.277588 126.826056 
L 208.522241 126.309815 
L 208.766894 124.613073 
L 209.011547 124.614234 
L 209.500853 130.906741 
L 209.745506 131.063527 
L 209.990159 131.791845 
L 210.479465 134.984759 
L 210.968771 128.314918 
L 211.213424 128.496251 
L 211.458077 123.643513 
L 211.70273 121.920324 
L 211.947383 122.384953 
L 212.436689 119.08684 
L 212.681342 121.187882 
L 212.925995 122.083703 
L 213.170648 123.929057 
L 213.415301 128.864645 
L 213.659954 130.203068 
L 214.14926 124.016945 
L 214.393913 123.084378 
L 214.638566 123.250252 
L 214.883219 119.872276 
L 215.127872 124.203266 
L 215.617178 120.703917 
L 216.106484 123.086996 
L 216.351137 120.155548 
L 216.59579 121.433865 
L 216.840443 121.181263 
L 217.329749 127.355187 
L 217.574402 126.783285 
L 217.819055 133.386252 
L 218.063708 131.070886 
L 218.308361 123.654058 
L 218.553014 98.707664 
L 218.797667 98.75367 
L 219.04232 98.452569 
L 219.286973 99.330907 
L 219.776279 99.134634 
L 220.020932 93.360763 
L 220.265585 90.856384 
L 220.510238 91.158325 
L 220.754891 91.888569 
L 220.999544 91.938847 
L 221.244197 90.823516 
L 221.48885 88.222136 
L 221.733503 89.373423 
L 221.978156 86.409083 
L 222.222809 89.764067 
L 222.467462 90.866583 
L 222.712115 85.463329 
L 222.956768 84.419537 
L 223.201421 86.938165 
L 223.446074 87.74232 
L 223.690727 91.974556 
L 223.93538 87.791092 
L 224.180033 94.616336 
L 224.424686 94.420977 
L 224.669339 81.008174 
L 224.913992 84.067515 
L 225.158645 81.401905 
L 225.403298 82.667059 
L 225.647952 80.080201 
L 225.892605 80.427802 
L 226.137258 77.669612 
L 226.381911 78.113818 
L 226.626564 81.893995 
L 226.871217 87.868114 
L 227.11587 87.815688 
L 227.605176 83.7918 
L 227.849829 88.199368 
L 228.339135 85.327706 
L 228.583788 86.066667 
L 228.828441 86.074841 
L 229.317747 82.806386 
L 229.5624 82.172649 
L 229.807053 82.680913 
L 230.051706 82.794978 
L 230.296359 81.674608 
L 230.541012 78.791759 
L 230.785665 83.307835 
L 231.030318 77.608344 
L 231.274971 79.505211 
L 231.519624 79.394629 
L 231.764277 75.231834 
L 232.253583 70.696719 
L 232.498236 72.681326 
L 232.742889 72.405042 
L 232.987542 76.27044 
L 233.232195 70.203963 
L 233.476848 68.678675 
L 233.721501 68.282154 
L 233.966154 72.446949 
L 234.210807 74.273659 
L 234.45546 71.398984 
L 234.700113 76.500791 
L 235.434072 72.526169 
L 235.678725 71.17488 
L 235.923378 71.215627 
L 236.168031 70.076538 
L 236.412684 71.246124 
L 236.657337 70.815944 
L 236.90199 70.827032 
L 237.146643 73.669801 
L 237.391296 70.713338 
L 237.635949 70.672123 
L 237.880602 71.192364 
L 238.125255 68.251829 
L 238.369908 70.173835 
L 238.614561 68.378438 
L 238.859214 71.205378 
L 239.103867 71.382735 
L 239.593173 77.15947 
L 239.837826 71.880257 
L 240.082479 70.06587 
L 240.327132 72.487893 
L 240.571785 71.966219 
L 240.816438 68.746289 
L 241.061091 67.334597 
L 241.305744 61.973324 
L 241.550397 63.493672 
L 242.039703 58.232116 
L 242.284356 59.962294 
L 242.529009 56.974814 
L 242.773662 56.306381 
L 243.018315 62.069485 
L 243.262968 57.791984 
L 243.507621 55.591546 
L 243.752274 56.126925 
L 243.996927 54.01198 
L 244.24158 49.815082 
L 244.486233 55.088591 
L 244.975539 51.069469 
L 245.220192 45.861624 
L 245.464845 46.820021 
L 245.954151 42.830039 
L 246.198804 44.124506 
L 246.443457 40.71544 
L 246.68811 42.152617 
L 246.932763 41.91466 
L 247.177416 43.316622 
L 247.422069 42.680415 
L 247.666722 45.21586 
L 247.911375 44.345844 
L 248.156029 40.344774 
L 248.400682 40.066935 
L 248.645335 39.229961 
L 248.889988 35.895151 
L 249.134641 34.894625 
L 249.379294 73.834712 
L 249.623947 77.049036 
L 250.113253 71.847389 
L 250.357906 80.563647 
L 250.602559 83.452817 
L 250.847212 79.72366 
L 251.091865 81.585534 
L 251.336518 75.123746 
L 251.581171 80.929917 
L 251.825824 82.775987 
L 252.070477 101.646347 
L 252.31513 107.24701 
L 252.559783 118.601517 
L 253.293742 98.266791 
L 253.538395 97.493899 
L 253.783048 99.585014 
L 254.027701 106.09555 
L 254.272354 99.77941 
L 254.517007 97.670441 
L 254.76166 101.436245 
L 255.006313 91.447351 
L 255.250966 97.149459 
L 255.495619 96.562024 
L 255.740272 90.303867 
L 255.984925 91.705656 
L 256.229578 94.173512 
L 256.718884 89.772069 
L 256.963537 94.813102 
L 257.20819 93.455368 
L 257.942149 102.782694 
L 258.186802 102.81255 
L 258.431455 108.465541 
L 258.676108 106.118294 
L 258.920761 96.173899 
L 259.165414 96.225955 
L 259.410067 96.697004 
L 259.65472 91.889335 
L 259.899373 92.196881 
L 260.144026 93.604104 
L 260.877985 84.009384 
L 261.122638 83.595305 
L 261.367291 85.894447 
L 261.611944 78.981513 
L 261.856597 78.367012 
L 262.10125 74.565648 
L 262.590556 71.664772 
L 262.835209 62.802766 
L 263.079862 62.624175 
L 263.324515 61.745911 
L 263.813821 59.358017 
L 264.058474 56.093093 
L 264.303127 59.939797 
L 264.54778 55.868521 
L 264.792433 54.484635 
L 265.037086 62.218393 
L 265.281739 62.054643 
L 265.526392 52.078442 
L 265.771045 52.760976 
L 266.015698 49.567 
L 266.505004 52.607795 
L 266.749657 56.037456 
L 266.99431 54.097152 
L 267.238963 51.050751 
L 267.483616 45.894122 
L 267.728269 43.839234 
L 267.972922 39.72694 
L 268.217575 41.866308 
L 268.462228 47.136433 
L 268.706881 43.978981 
L 268.951534 56.943378 
L 269.196187 59.552981 
L 269.44084 54.633123 
L 269.685493 58.852568 
L 269.930146 65.265066 
L 270.174799 57.842953 
L 270.419452 59.943131 
L 270.908759 66.972476 
L 271.153412 69.23181 
L 271.398065 77.807902 
L 271.642718 73.290986 
L 271.887371 63.043811 
L 272.132024 60.717233 
L 272.376677 65.002933 
L 272.62133 78.609637 
L 272.865983 82.195837 
L 273.110636 82.52509 
L 273.355289 86.465041 
L 273.599942 85.233002 
L 273.844595 80.108352 
L 274.089248 81.559704 
L 274.333901 83.797282 
L 274.578554 87.677669 
L 275.06786 101.348851 
L 275.312513 102.845147 
L 275.557166 105.161723 
L 275.801819 105.655196 
L 276.046472 105.017729 
L 276.291125 99.459072 
L 276.535778 109.058606 
L 276.780431 108.072551 
L 277.025084 124.095425 
L 277.269737 123.678333 
L 277.51439 129.409655 
L 277.759043 123.538413 
L 278.003696 113.916604 
L 278.248349 119.809058 
L 278.493002 116.935791 
L 278.982308 125.159812 
L 279.226961 118.026873 
L 279.471614 119.909318 
L 279.716267 126.954789 
L 279.96092 120.887916 
L 280.205573 118.647473 
L 280.694879 131.738677 
L 280.939532 130.375659 
L 281.184185 142.169704 
L 282.162797 119.531985 
L 282.40745 120.124581 
L 282.652103 120.377503 
L 282.896756 115.443471 
L 283.141409 118.63115 
L 283.386062 120.133323 
L 283.630715 118.190228 
L 283.875368 118.482637 
L 284.120021 118.279351 
L 284.364674 112.506764 
L 284.609327 114.018025 
L 284.85398 108.678754 
L 285.098633 109.19218 
L 285.343286 106.619421 
L 285.587939 111.530537 
L 285.832592 112.273795 
L 286.077245 114.070303 
L 286.566551 108.534562 
L 286.811204 110.896601 
L 287.055857 109.688047 
L 287.30051 106.002427 
L 287.545163 106.893062 
L 288.034469 112.271202 
L 288.279122 114.615436 
L 288.523775 113.945743 
L 288.768428 110.442443 
L 289.013081 111.072723 
L 289.257734 108.028817 
L 289.502387 106.558475 
L 289.74704 107.904455 
L 289.991693 108.405582 
L 290.236346 114.894807 
L 290.480999 112.776799 
L 290.725652 116.865263 
L 290.970305 115.918126 
L 291.214958 115.722125 
L 291.459611 113.239552 
L 291.704264 105.96778 
L 291.948917 109.029516 
L 292.19357 109.181092 
L 292.438223 99.492558 
L 292.682876 95.64131 
L 292.92753 94.923043 
L 293.172183 94.648834 
L 293.906142 88.944058 
L 294.150795 87.687597 
L 294.640101 93.959681 
L 294.884754 90.54091 
L 295.129407 92.509145 
L 295.37406 92.27704 
L 295.618713 88.563539 
L 295.863366 86.92036 
L 296.108019 86.679513 
L 296.352672 83.195475 
L 296.597325 100.058978 
L 296.841978 99.005753 
L 297.086631 102.429833 
L 297.331284 104.19651 
L 297.575937 104.477115 
L 298.065243 110.025376 
L 298.309896 104.796268 
L 298.554549 106.483601 
L 298.799202 105.76526 
L 299.043855 104.236071 
L 299.288508 104.69702 
L 299.533161 103.460536 
L 300.022467 109.838116 
L 300.26712 108.962223 
L 300.511773 109.010477 
L 300.756426 108.461614 
L 301.490385 112.182795 
L 301.735038 113.699686 
L 301.979691 112.24384 
L 302.224344 109.885184 
L 302.468997 109.512864 
L 302.71365 110.706922 
L 303.202956 105.373035 
L 303.447609 108.372615 
L 303.936915 107.483856 
L 304.181568 118.89921 
L 304.426221 122.464272 
L 304.670874 116.165344 
L 305.404833 110.745569 
L 305.649486 112.169436 
L 305.894139 110.03071 
L 306.138792 109.703753 
L 306.383445 105.341895 
L 306.872751 103.592554 
L 307.117404 104.449062 
L 307.362057 104.026883 
L 307.60671 104.844299 
L 307.851363 103.556623 
L 308.096016 106.034159 
L 308.340669 110.833136 
L 308.585322 110.194781 
L 309.074628 112.683824 
L 309.319281 115.341828 
L 309.808587 117.387851 
L 310.05324 117.627043 
L 310.542546 120.773802 
L 310.787199 117.349401 
L 311.031852 120.458255 
L 311.276505 118.385562 
L 311.521158 118.103821 
L 311.765811 116.28578 
L 312.010464 112.11812 
L 312.255117 112.359189 
L 312.49977 114.831984 
L 312.744423 114.073859 
L 312.989076 115.080806 
L 313.233729 114.898066 
L 313.478382 115.271893 
L 313.967688 117.987139 
L 314.212341 117.417361 
L 314.456994 117.809017 
L 315.190953 121.334691 
L 315.435607 121.201069 
L 315.68026 122.870597 
L 315.924913 123.402025 
L 316.169566 122.901934 
L 316.414219 124.705406 
L 316.658872 125.25217 
L 316.903525 124.561856 
L 317.148178 129.018196 
L 317.392831 125.966683 
L 317.882137 129.709719 
L 318.12679 129.643883 
L 318.616096 128.334452 
L 318.860749 127.205933 
L 319.105402 129.522534 
L 319.350055 125.939371 
L 319.594708 126.355376 
L 319.839361 130.869724 
L 320.084014 131.30057 
L 320.328667 129.976767 
L 320.57332 130.692145 
L 320.817973 127.048579 
L 321.062626 129.008837 
L 321.307279 128.578607 
L 321.551932 128.469185 
L 321.796585 127.545163 
L 322.041238 128.70129 
L 322.285891 128.425476 
L 322.530544 130.669302 
L 323.01985 133.509083 
L 323.264503 132.14767 
L 323.509156 134.068984 
L 323.998462 130.671327 
L 324.243115 130.609788 
L 324.732421 125.769447 
L 324.977074 127.793689 
L 325.221727 126.200368 
L 325.46638 123.847664 
L 325.711033 124.35904 
L 325.955686 127.928127 
L 326.444992 130.409169 
L 326.689645 125.46274 
L 326.934298 128.467432 
L 327.178951 122.399547 
L 327.423604 122.52665 
L 327.668257 123.561824 
L 327.91291 120.31999 
L 328.157563 112.27703 
L 328.646869 112.595245 
L 328.891522 107.865783 
L 329.136175 107.684006 
L 329.625481 112.183882 
L 329.870134 111.889522 
L 330.35944 108.123101 
L 330.604093 108.08028 
L 330.848746 105.757999 
L 331.582705 109.07367 
L 331.827358 104.502624 
L 332.072011 102.577605 
L 332.80597 89.344432 
L 333.050623 91.792631 
L 333.295276 92.156605 
L 333.539929 91.894027 
L 333.784582 90.151625 
L 334.029235 91.469008 
L 334.273888 86.188091 
L 334.518541 86.889739 
L 334.763194 87.157082 
L 335.007847 86.923521 
L 335.2525 87.523896 
L 335.497153 87.543183 
L 335.741806 90.208076 
L 335.986459 89.529395 
L 336.231112 90.058477 
L 336.475765 83.676773 
L 336.720418 80.54157 
L 336.965071 80.849931 
L 337.209724 75.371408 
L 337.454377 77.746042 
L 337.69903 78.279149 
L 337.943684 74.29418 
L 338.188337 80.306107 
L 338.43299 78.854928 
L 338.677643 78.185951 
L 338.922296 78.935778 
L 339.166949 80.733249 
L 339.411602 79.649675 
L 339.656255 81.565458 
L 339.900908 78.850212 
L 340.145561 78.169826 
L 340.390214 78.425341 
L 340.87952 69.799984 
L 341.124173 70.793645 
L 341.368826 67.854369 
L 341.613479 70.38574 
L 341.858132 71.054791 
L 342.102785 73.820858 
L 342.347438 75.28878 
L 342.592091 73.840614 
L 342.836744 73.553045 
L 343.081397 74.235975 
L 343.32605 73.12326 
L 343.570703 71.259213 
L 343.815356 71.462425 
L 344.060009 70.029693 
L 344.304662 72.176938 
L 344.549315 71.950316 
L 344.793968 71.955378 
L 345.038621 72.501771 
L 345.527927 70.898474 
L 345.77258 71.571204 
L 346.017233 68.129813 
L 346.261886 70.129336 
L 346.506539 68.562586 
L 346.751192 69.952769 
L 346.995845 69.777832 
L 347.240498 69.086062 
L 347.485151 69.163332 
L 347.729804 68.95849 
L 347.974457 67.528203 
L 348.21911 64.348278 
L 348.463763 66.455543 
L 348.708416 66.353505 
L 348.953069 66.687969 
L 349.197722 63.304684 
L 349.442375 66.299646 
L 349.931681 64.715463 
L 350.176334 65.383007 
L 350.420987 64.734082 
L 350.66564 62.471785 
L 350.910293 64.019618 
L 351.154946 61.895215 
L 351.399599 61.089504 
L 351.644252 62.025627 
L 351.888905 61.809278 
L 352.133558 61.935467 
L 352.867517 63.937237 
L 353.11217 61.503311 
L 353.356823 62.114552 
L 353.601476 61.292518 
L 354.090782 59.091982 
L 354.335435 59.413209 
L 354.580088 56.7374 
L 354.824741 57.573461 
L 355.069394 59.673441 
L 355.314047 55.55685 
L 355.5587 53.971901 
L 355.803353 53.153941 
L 356.048006 53.906164 
L 356.537312 58.256292 
L 356.781965 66.593858 
L 357.026618 69.194595 
L 357.271271 64.945592 
L 357.515924 67.070933 
L 357.760577 66.176025 
L 358.00523 74.762093 
L 358.249883 73.711239 
L 358.494536 73.363983 
L 358.739189 74.951254 
L 358.983842 78.665274 
L 359.228495 84.920097 
L 359.717801 79.766036 
L 359.962454 79.482838 
L 360.207107 81.381977 
L 360.451761 79.686914 
L 360.696414 80.713642 
L 360.941067 77.471882 
L 361.18572 77.522753 
L 361.430373 78.8067 
L 361.675026 78.848705 
L 361.919679 80.812445 
L 362.408985 87.156095 
L 362.653638 85.292565 
L 362.898291 90.450429 
L 363.387597 81.493695 
L 363.876903 84.627293 
L 364.366209 86.878083 
L 364.610862 86.997086 
L 364.855515 91.467551 
L 365.100168 89.037453 
L 365.589474 90.932419 
L 365.834127 86.326331 
L 366.07878 86.717741 
L 366.323433 83.344976 
L 366.568086 85.562107 
L 366.812739 84.636701 
L 367.057392 79.500248 
L 367.546698 93.667742 
L 367.791351 93.499892 
L 368.280657 92.03891 
L 368.52531 90.300879 
L 368.769963 89.995407 
L 369.014616 87.953335 
L 369.259269 88.704669 
L 369.503922 86.554312 
L 369.748575 82.284367 
L 369.993228 80.891739 
L 370.237881 81.732788 
L 370.482534 81.626083 
L 370.727187 83.556831 
L 370.97184 82.512447 
L 371.216493 72.284755 
L 371.461146 72.161652 
L 371.705799 72.698785 
L 371.950452 70.568159 
L 372.195105 77.639904 
L 372.439758 75.512069 
L 372.929064 83.913125 
L 373.173717 81.983957 
L 373.41837 98.262494 
L 373.663023 99.159032 
L 373.907676 97.600728 
L 374.152329 99.5599 
L 374.396982 99.483223 
L 374.641635 97.27187 
L 375.130941 101.316773 
L 375.375594 100.231494 
L 375.620247 95.39145 
L 375.8649 98.740508 
L 376.109553 98.834224 
L 376.354206 96.545602 
L 376.598859 96.288704 
L 376.843512 96.549034 
L 377.088165 95.081977 
L 377.332818 100.357733 
L 377.577471 99.337056 
L 377.822124 99.419634 
L 378.066777 99.91528 
L 378.31143 112.720693 
L 378.556083 113.67793 
L 378.800736 113.096471 
L 379.045389 111.422399 
L 379.290042 108.535624 
L 379.534695 111.228818 
L 379.779348 108.607313 
L 380.024001 110.96866 
L 380.513307 106.678219 
L 381.002613 108.072526 
L 381.247266 105.56027 
L 381.491919 107.94651 
L 381.736572 106.758526 
L 381.981225 109.834536 
L 382.225878 108.949827 
L 382.470531 104.062171 
L 382.715184 101.999036 
L 382.959838 102.395705 
L 383.449144 104.423132 
L 383.93845 106.163658 
L 384.183103 108.820501 
L 384.427756 114.007801 
L 384.917062 110.453012 
L 385.161715 110.339417 
L 385.406368 110.595945 
L 385.651021 107.850867 
L 385.895674 106.539361 
L 386.140327 108.732712 
L 386.38498 109.815644 
L 386.629633 111.532685 
L 386.874286 109.085203 
L 387.118939 110.558112 
L 387.363592 110.581078 
L 387.608245 111.636872 
L 387.852898 107.699934 
L 387.852898 107.699934 
" style="fill:none;stroke:#1f77b4;stroke-linecap:square;stroke-width:1.5;"/>
   </g>
   <g id="line2d_32">
    <path clip-path="url(#p346fd17596)" d="M 63.198352 267.396946 
L 63.443005 266.652488 
L 63.687658 267.105637 
L 63.932311 269.241906 
L 64.176964 270.277673 
L 64.421617 269.759789 
L 64.66627 267.20274 
L 64.910923 267.591152 
L 65.155576 267.073269 
L 65.400229 264.872264 
L 65.889535 267.591152 
L 66.134188 266.91143 
L 66.378841 267.461681 
L 66.623494 266.814327 
L 67.1128 264.969367 
L 67.357453 265.001735 
L 67.602106 267.62352 
L 67.846759 267.558785 
L 68.091412 269.144803 
L 68.336066 267.882462 
L 68.580719 267.655888 
L 68.825372 267.655888 
L 69.070025 266.328811 
L 69.314678 268.33561 
L 69.559331 268.173771 
L 69.803984 267.558785 
L 70.29329 260.437887 
L 70.537943 260.8263 
L 70.782596 261.538389 
L 71.027249 261.408918 
L 71.271902 260.95577 
L 71.516555 258.042676 
L 72.250514 260.308416 
L 72.495167 257.718999 
L 72.73982 257.84847 
L 72.984473 257.589528 
L 73.229126 257.006909 
L 73.473779 258.236882 
L 73.718432 260.178945 
L 73.963085 258.107411 
L 74.697044 261.149977 
L 74.941697 258.463456 
L 75.18635 257.945573 
L 75.431003 256.84507 
L 76.409615 265.35778 
L 76.898921 263.901233 
L 77.143574 262.444685 
L 77.388227 259.046075 
L 77.63288 258.625295 
L 77.877533 260.308416 
L 78.122186 260.664461 
L 78.366839 263.998336 
L 78.611492 264.354381 
L 78.856145 265.616722 
L 79.100798 266.19934 
L 79.345451 269.306641 
L 79.590104 267.170372 
L 79.834757 266.91143 
L 80.07941 265.422515 
L 80.324063 264.937 
L 80.568716 266.19934 
L 80.813369 266.328811 
L 81.058022 275.974391 
L 81.547328 273.061296 
L 81.791981 275.618346 
L 82.036634 274.647314 
L 82.281287 274.809153 
L 83.259899 268.853493 
L 83.504552 269.597951 
L 83.749205 270.989762 
L 84.238511 267.364578 
L 84.483164 267.558785 
L 84.727817 268.75639 
L 84.97247 268.724022 
L 85.217123 267.785359 
L 85.461776 269.500848 
L 85.706429 268.918229 
L 85.951082 268.724022 
L 86.440388 267.62352 
L 86.929694 270.763188 
L 87.174347 268.788758 
L 87.419 265.746192 
L 87.663653 266.652488 
L 87.908306 263.448085 
L 88.152959 266.458282 
L 88.397612 266.846695 
L 88.642265 266.943798 
L 89.131571 269.209538 
L 89.376224 267.138004 
L 89.620877 262.897833 
L 89.86553 262.541789 
L 90.110183 259.369752 
L 90.354836 263.318614 
L 90.599489 263.998336 
L 91.088796 263.901233 
L 91.333449 264.580955 
L 91.578102 264.548587 
L 92.067408 261.506022 
L 92.312061 258.657663 
L 92.556714 258.884237 
L 92.801367 257.621896 
L 93.04602 253.673034 
L 93.290673 253.673034 
L 93.535326 252.281223 
L 93.779979 252.345958 
L 94.269285 254.190918 
L 94.513938 253.899608 
L 94.758591 251.6015 
L 95.003244 253.834873 
L 95.49255 251.828074 
L 95.737203 252.345958 
L 95.981856 251.374926 
L 96.226509 251.083617 
L 96.471162 250.436263 
L 96.715815 250.403895 
L 96.960468 250.662837 
L 97.205121 248.299993 
L 97.449774 247.911581 
L 97.694427 251.569133 
L 97.93908 252.960945 
L 98.183733 252.702003 
L 98.428386 254.838272 
L 98.673039 253.834873 
L 98.917692 251.957545 
L 99.162345 251.6015 
L 99.896304 245.484002 
L 100.140957 245.872415 
L 100.38561 246.001886 
L 100.630263 242.53854 
L 100.874916 241.664612 
L 101.119569 243.444836 
L 101.364222 242.700379 
L 101.608875 241.373302 
L 101.853528 241.923553 
L 102.342834 246.034253 
L 102.587487 243.995087 
L 102.83214 246.034253 
L 103.076793 244.512971 
L 103.321446 246.35793 
L 103.566099 244.998486 
L 103.810752 245.51637 
L 104.055405 244.448235 
L 104.300058 244.80428 
L 104.544711 242.311966 
L 104.789364 242.991688 
L 105.034017 241.891186 
L 105.27867 241.535141 
L 105.523323 237.909957 
L 105.767976 236.87419 
L 106.012629 233.734521 
L 106.257282 232.310342 
L 106.501935 232.310342 
L 106.746588 237.71575 
L 106.991241 231.662987 
L 107.235894 231.889561 
L 107.480547 234.122934 
L 107.7252 229.041202 
L 108.214506 225.707328 
L 108.459159 227.811229 
L 108.703812 227.617023 
L 108.948465 228.037803 
L 109.193118 224.380251 
L 109.437771 224.898135 
L 109.682424 223.700529 
L 110.661036 214.443362 
L 110.905689 214.702304 
L 111.394995 210.78581 
L 111.884301 209.911882 
L 112.128954 209.264528 
L 112.373607 213.148654 
L 112.61826 212.792609 
L 113.107566 215.220188 
L 113.596873 217.16225 
L 113.841526 216.32069 
L 114.086179 212.436564 
L 114.330832 213.828376 
L 114.820138 224.121309 
L 115.309444 220.010609 
L 115.554097 223.991839 
L 115.79875 223.927103 
L 116.043403 218.392224 
L 116.288056 221.693731 
L 116.532709 221.790834 
L 116.777362 224.412619 
L 117.022015 220.172448 
L 117.266668 221.790834 
L 117.755974 216.968044 
L 118.000627 220.075345 
L 118.24528 227.681758 
L 118.489933 225.25418 
L 118.734586 226.192843 
L 118.979239 225.772063 
L 119.468545 222.049776 
L 119.713198 223.894735 
L 119.957851 221.370054 
L 120.202504 223.538691 
L 120.69181 221.726098 
L 120.936463 218.845372 
L 121.181116 218.100914 
L 121.425769 218.198017 
L 121.670422 212.792609 
L 121.915075 211.4979 
L 122.404381 217.809605 
L 122.893687 215.252555 
L 123.382993 219.848771 
L 123.627646 219.686932 
L 123.872299 219.071946 
L 124.116952 219.363255 
L 124.361605 217.971443 
L 124.850911 220.560861 
L 125.095564 219.039578 
L 125.340217 216.74147 
L 125.58487 213.019183 
L 125.829523 214.605201 
L 126.074176 211.271326 
L 126.318829 214.961246 
L 126.563482 215.479129 
L 127.052788 221.370054 
L 127.297441 221.208215 
L 127.542094 221.27295 
L 127.786747 226.38705 
L 128.0314 227.066772 
L 128.276053 228.167274 
L 128.520706 228.005435 
L 128.765359 230.400646 
L 129.010012 228.782261 
L 129.254665 228.490951 
L 129.499318 229.720924 
L 129.743971 231.857194 
L 129.988624 231.468781 
L 130.233277 230.594853 
L 130.47793 231.404046 
L 130.722583 231.080368 
L 131.701195 228.944099 
L 132.679807 212.436564 
L 132.92446 211.627371 
L 133.169113 211.4979 
L 133.413766 211.07712 
L 133.658419 215.576232 
L 133.903072 217.87434 
L 134.147725 218.715901 
L 134.392378 220.107713 
L 134.637031 219.686932 
L 134.881684 217.129883 
L 135.126337 217.291721 
L 135.37099 219.557461 
L 135.615643 218.456959 
L 135.860297 218.295121 
L 136.10495 221.078744 
L 136.349603 216.935676 
L 136.838909 221.14348 
L 137.083562 222.470556 
L 137.328215 216.02938 
L 137.817521 211.983416 
L 138.062174 213.245757 
L 138.306827 213.537066 
L 138.55148 213.310492 
L 139.040786 209.458734 
L 139.285439 204.959621 
L 139.530092 207.807981 
L 139.774745 204.797783 
L 140.019398 204.118061 
L 140.264051 204.959621 
L 140.508704 205.218563 
L 140.753357 206.67511 
L 140.99801 206.286698 
L 141.242663 204.927254 
L 141.487316 205.574608 
L 141.731969 205.445137 
L 141.976622 204.959621 
L 142.221275 210.947649 
L 142.465928 206.319066 
L 142.710581 207.095891 
L 142.955234 208.940851 
L 143.44454 201.658114 
L 143.689193 201.72285 
L 144.178499 204.571209 
L 144.423152 204.215164 
L 144.667805 201.917056 
L 144.912458 201.075496 
L 145.157111 202.56441 
L 145.401764 197.903459 
L 145.89107 199.974993 
L 146.135723 198.777388 
L 146.380376 202.046527 
L 146.625029 201.819953 
L 146.869682 200.978392 
L 147.114335 196.997163 
L 147.358988 198.130033 
L 147.603641 196.641118 
L 148.092947 202.920455 
L 148.3376 202.952823 
L 148.582253 200.072096 
L 148.826906 199.586581 
L 149.071559 194.601952 
L 149.316212 192.109638 
L 149.560865 193.954598 
L 150.050171 189.261279 
L 150.294824 186.768965 
L 150.539477 187.642893 
L 150.78413 181.557763 
L 151.028783 181.007512 
L 151.518089 181.946175 
L 151.762742 182.884839 
L 152.007395 181.201718 
L 152.252048 184.826902 
L 152.496701 185.862669 
L 152.741354 184.276651 
L 152.986007 191.138607 
L 153.23066 187.319216 
L 153.475313 187.869467 
L 153.719966 188.096041 
L 153.964619 188.840499 
L 154.209272 188.128409 
L 154.453925 184.535593 
L 154.698578 186.218714 
L 154.943231 192.918831 
L 155.187884 194.440114 
L 155.432537 192.400948 
L 155.67719 197.417944 
L 155.921843 191.300445 
L 156.166496 193.274876 
L 156.411149 201.755218 
L 156.900455 196.026132 
L 157.145108 183.7264 
L 157.389761 183.370355 
L 157.634414 178.871242 
L 157.879067 176.508399 
L 158.12372 176.119986 
L 158.368374 176.152354 
L 158.613027 171.847448 
L 158.85768 170.714578 
L 159.102333 173.012686 
L 159.346986 171.976919 
L 159.836292 166.99229 
L 160.080945 168.675412 
L 160.325598 169.096192 
L 160.814904 166.733349 
L 161.059557 171.10299 
L 161.30421 163.820254 
L 161.793516 158.544316 
L 162.038169 162.201868 
L 162.282822 162.978694 
L 162.527475 165.956523 
L 162.772128 164.888389 
L 163.016781 169.581708 
L 163.261434 169.12856 
L 163.506087 164.856021 
L 163.75074 162.913958 
L 163.995393 167.672012 
L 164.240046 166.733349 
L 164.484699 168.222264 
L 164.729352 171.005887 
L 164.974005 170.811681 
L 165.218658 173.821879 
L 165.463311 174.275027 
L 165.707964 172.624273 
L 166.19727 164.273402 
L 166.441923 163.949725 
L 166.686576 163.88499 
L 167.175882 172.171125 
L 167.420535 170.746945 
L 167.665188 167.833851 
L 167.909841 177.414695 
L 168.154494 179.033081 
L 168.399147 177.05865 
L 168.6438 176.929179 
L 169.133106 169.387501 
L 169.377759 172.23586 
L 169.622412 171.135358 
L 170.111718 170.68221 
L 170.356371 175.084219 
L 170.601024 176.540767 
L 171.09033 171.491403 
L 171.334983 170.779313 
L 171.824289 165.406272 
L 172.068942 166.021259 
L 172.313595 168.41647 
L 172.558248 164.176299 
L 173.047554 161.522146 
L 173.292207 162.622649 
L 173.781513 168.869618 
L 174.026166 168.092793 
L 174.270819 165.956523 
L 174.515472 165.827053 
L 174.760125 162.266604 
L 175.004778 161.74872 
L 175.249431 158.609052 
L 175.494084 157.249608 
L 175.738737 157.702756 
L 175.98339 156.310944 
L 176.228043 156.37568 
L 176.472696 155.534119 
L 176.717349 156.79646 
L 176.962002 155.631222 
L 177.206655 153.883365 
L 177.451308 154.433617 
L 177.695961 151.617625 
L 178.185267 155.404648 
L 178.42992 160.292173 
L 178.674573 160.292173 
L 178.919226 158.673787 
L 179.163879 159.126935 
L 179.408532 157.767491 
L 179.653185 157.152505 
L 179.897838 160.227438 
L 180.387144 160.680586 
L 180.631798 156.731724 
L 180.876451 154.9515 
L 181.121104 152.200244 
L 181.365757 150.776065 
L 181.61041 148.413221 
L 181.855063 148.510324 
L 182.099716 147.215616 
L 182.344369 148.024809 
L 182.589022 150.387652 
L 182.833675 145.985643 
L 183.078328 147.15088 
L 183.322981 147.053777 
L 183.567634 147.474558 
L 184.301593 153.074172 
L 184.546246 150.549491 
L 184.790899 150.776065 
L 185.035552 149.254782 
L 185.280205 149.805033 
L 185.524858 147.345087 
L 185.769511 149.190047 
L 186.014164 146.212217 
L 186.258817 149.28715 
L 186.50347 146.01801 
L 186.748123 150.322917 
L 186.992776 151.941302 
L 187.237429 145.920907 
L 187.482082 147.506925 
L 187.726735 148.024809 
L 187.971388 151.520522 
L 188.216041 147.183248 
L 188.460694 145.079347 
L 188.705347 146.01801 
L 188.95 144.755669 
L 189.439306 139.317893 
L 189.683959 137.084521 
L 189.928612 136.696108 
L 190.173265 137.505301 
L 190.417918 135.757444 
L 190.662571 135.401399 
L 190.907224 135.757444 
L 191.151877 136.922682 
L 191.39653 135.789812 
L 191.641183 136.24296 
L 191.885836 137.37583 
L 192.130489 134.398 
L 192.375142 133.944852 
L 192.619795 136.53427 
L 192.864448 133.944852 
L 193.109101 135.174825 
L 193.353754 138.282126 
L 193.598407 138.541068 
L 193.84306 137.084521 
L 194.087713 138.055552 
L 194.332366 136.728476 
L 194.577019 136.113489 
L 194.821672 135.919283 
L 195.066325 135.886915 
L 195.310978 135.401399 
L 195.800284 142.457562 
L 196.044937 138.767642 
L 196.28959 143.234387 
L 196.534243 141.06575 
L 196.778896 140.77444 
L 197.023549 140.127086 
L 197.268202 145.111714 
L 197.512855 147.377454 
L 197.757508 142.004414 
L 198.002161 141.648369 
L 198.246814 146.341688 
L 198.491467 143.104916 
L 198.73612 150.873168 
L 198.980773 149.060576 
L 199.225426 156.699357 
L 199.470079 155.954899 
L 199.714732 162.622649 
L 199.959385 163.723151 
L 200.693344 144.949876 
L 200.937997 146.374055 
L 201.427303 141.48653 
L 201.671956 142.004414 
L 201.916609 137.213992 
L 202.161262 138.5087 
L 202.405915 136.275328 
L 202.650568 132.520673 
L 202.895221 131.452538 
L 203.139875 135.854547 
L 203.384528 133.750646 
L 203.629181 130.513874 
L 203.873834 136.987418 
L 204.118487 137.699507 
L 204.36314 137.052153 
L 204.607793 137.311095 
L 204.852446 135.401399 
L 205.097099 134.398 
L 205.341752 135.660341 
L 205.586405 136.081121 
L 205.831058 137.570036 
L 206.075711 140.547866 
L 206.320364 140.35366 
L 206.80967 131.646744 
L 207.054323 130.772816 
L 207.298976 128.863121 
L 207.543629 128.248134 
L 207.788282 125.75582 
L 208.032935 126.921058 
L 208.277588 126.532645 
L 208.522241 124.817156 
L 208.766894 124.687685 
L 209.011547 127.471309 
L 209.2562 131.71148 
L 209.500853 131.323067 
L 209.745506 132.164628 
L 210.234812 136.437166 
L 210.724118 128.539444 
L 210.968771 127.633148 
L 211.213424 123.392977 
L 211.458077 121.806959 
L 211.70273 122.680887 
L 212.192036 119.185174 
L 212.681342 123.425344 
L 212.925995 124.849524 
L 213.170648 129.283901 
L 213.415301 130.869919 
L 213.904607 124.720053 
L 214.14926 123.231138 
L 214.393913 122.551416 
L 214.638566 120.188573 
L 214.883219 123.295874 
L 215.127872 122.907461 
L 215.372525 120.220941 
L 215.861831 123.49008 
L 216.106484 120.318044 
L 216.351137 121.709856 
L 216.59579 120.900663 
L 217.085096 128.345237 
L 217.329749 126.565013 
L 217.574402 133.880117 
L 217.819055 130.740448 
L 218.063708 123.716654 
L 218.308361 100.476634 
L 218.553014 96.074624 
L 218.797667 98.081423 
L 219.04232 99.020086 
L 219.286973 98.4051 
L 219.531626 98.566938 
L 219.776279 93.032059 
L 220.020932 91.122364 
L 220.265585 91.284202 
L 220.510238 92.125763 
L 220.754891 92.02866 
L 221.244197 88.468211 
L 221.48885 89.503978 
L 221.733503 86.590883 
L 221.978156 89.860023 
L 222.222809 91.413673 
L 222.467462 85.555117 
L 222.712115 84.066202 
L 223.446074 92.255234 
L 223.690727 87.594283 
L 223.93538 94.618077 
L 224.180033 95.265431 
L 224.424686 81.412049 
L 224.669339 83.774892 
L 224.913992 80.764695 
L 225.158645 82.091771 
L 225.403298 78.822632 
L 225.647952 80.764695 
L 225.892605 77.333717 
L 226.137258 78.013439 
L 226.381911 81.606255 
L 226.626564 88.435843 
L 227.11587 86.882193 
L 227.360523 84.810659 
L 227.605176 88.791888 
L 228.094482 85.199072 
L 228.583788 87.044031 
L 228.828441 84.033834 
L 229.073094 82.706758 
L 229.317747 82.124139 
L 229.5624 83.548318 
L 229.807053 83.062802 
L 230.051706 82.027035 
L 230.296359 78.401851 
L 230.541012 82.965699 
L 230.785665 78.013439 
L 231.030318 79.761295 
L 231.274971 78.919735 
L 231.519624 75.488757 
L 232.00893 71.734102 
L 232.253583 72.510927 
L 232.498236 72.866972 
L 232.742889 76.395053 
L 232.987542 70.568864 
L 233.232195 68.91811 
L 233.476848 69.6302 
L 233.721501 73.158281 
L 233.966154 74.647196 
L 234.210807 71.89594 
L 234.45546 76.783465 
L 234.700113 74.711932 
L 234.944766 74.87377 
L 235.189419 72.478559 
L 235.434072 71.280954 
L 235.678725 71.183851 
L 235.923378 70.439393 
L 236.168031 71.604631 
L 236.412684 70.989644 
L 236.657337 71.410425 
L 236.90199 74.064577 
L 237.146643 71.05438 
L 237.391296 70.536496 
L 237.635949 71.05438 
L 237.880602 69.144684 
L 238.125255 69.824406 
L 238.369908 68.464962 
L 238.614561 71.280954 
L 238.859214 71.280954 
L 239.34852 77.042407 
L 239.593173 72.251985 
L 239.837826 70.245187 
L 240.082479 72.413824 
L 240.327132 71.669366 
L 240.571785 68.821007 
L 240.816438 67.429195 
L 241.061091 61.829581 
L 241.305744 63.771644 
L 241.79505 57.977822 
L 242.039703 60.049356 
L 242.529009 56.100495 
L 242.773662 62.379832 
L 243.262968 55.647347 
L 243.507621 56.16523 
L 243.752274 53.802387 
L 243.996927 49.270907 
L 244.24158 55.453141 
L 244.486233 54.126064 
L 244.730886 51.407176 
L 244.975539 46.195974 
L 245.220192 46.843328 
L 245.464845 45.386781 
L 245.709498 42.894467 
L 245.954151 43.574189 
L 246.198804 41.243713 
L 246.443457 42.117641 
L 246.68811 42.052906 
L 246.932763 43.768395 
L 247.177416 43.41235 
L 247.422069 45.548619 
L 247.666722 44.868897 
L 247.911375 40.402152 
L 248.156029 39.787166 
L 248.400682 39.884269 
L 248.645335 36.259085 
L 248.889988 34.414125 
L 249.134641 70.536496 
L 249.379294 76.945304 
L 249.623947 74.355887 
L 249.8686 69.015214 
L 250.113253 78.725528 
L 250.357906 81.994668 
L 250.602559 80.279179 
L 250.847212 81.444417 
L 251.091865 75.326918 
L 251.336518 82.156506 
L 251.581171 83.742524 
L 251.825824 104.554966 
L 252.070477 108.374356 
L 252.31513 119.638322 
L 252.559783 117.922833 
L 253.049089 97.595907 
L 253.293742 96.592508 
L 253.538395 98.534571 
L 253.783048 106.205719 
L 254.027701 98.502203 
L 254.272354 98.178526 
L 254.517007 101.480033 
L 254.76166 91.640247 
L 255.006313 98.437468 
L 255.250966 96.204095 
L 255.495619 90.118965 
L 255.984925 93.517575 
L 256.229578 91.802086 
L 256.474231 91.025261 
L 256.718884 95.42727 
L 256.963537 93.58231 
L 257.697496 102.612903 
L 257.942149 103.64867 
L 258.186802 109.507227 
L 258.431455 106.497029 
L 258.676108 97.498804 
L 259.165414 94.909387 
L 259.410067 92.158131 
L 259.65472 92.417072 
L 259.899373 93.647046 
L 260.388679 86.623251 
L 260.633332 84.066202 
L 260.877985 83.289376 
L 261.122638 86.073 
L 261.367291 79.081573 
L 261.611944 77.948703 
L 261.856597 73.967474 
L 262.345903 71.960676 
L 262.590556 61.732477 
L 262.835209 62.250361 
L 263.569168 58.204396 
L 263.813821 55.938656 
L 264.058474 60.146459 
L 264.303127 55.938656 
L 264.54778 54.32027 
L 264.792433 61.732477 
L 265.037086 62.54167 
L 265.281739 53.89949 
L 265.771045 48.23514 
L 266.015698 51.148234 
L 266.260351 52.151633 
L 266.505004 56.586011 
L 266.749657 53.090297 
L 266.99431 52.410575 
L 267.238963 45.904664 
L 267.483616 44.059704 
L 267.728269 39.657695 
L 267.972922 41.761597 
L 268.217575 46.519651 
L 268.462228 44.189175 
L 268.706881 55.647347 
L 268.951534 61.020388 
L 269.196187 54.805786 
L 269.44084 59.304899 
L 269.685493 66.134487 
L 269.930146 58.528074 
L 270.174799 59.85515 
L 270.664106 67.493931 
L 270.908759 69.792039 
L 271.153412 78.596058 
L 271.398065 74.355887 
L 271.887371 59.984621 
L 272.132024 65.746074 
L 272.376677 79.631824 
L 272.62133 83.289376 
L 272.865983 82.803861 
L 273.110636 86.623251 
L 273.355289 85.65222 
L 273.599942 81.153107 
L 273.844595 81.703358 
L 274.089248 84.098569 
L 274.333901 88.176902 
L 274.823207 101.706607 
L 275.06786 103.454464 
L 275.312513 106.238087 
L 275.557166 107.04728 
L 275.801819 104.878643 
L 276.046472 99.894015 
L 276.291125 109.539594 
L 276.535778 107.500428 
L 276.780431 124.364008 
L 277.025084 124.137434 
L 277.269737 128.766018 
L 277.51439 123.975596 
L 277.759043 114.653693 
L 278.003696 119.864896 
L 278.248349 116.692859 
L 278.493002 123.004564 
L 278.737655 125.561614 
L 278.982308 118.149407 
L 279.226961 120.318044 
L 279.471614 126.88869 
L 279.716267 120.350411 
L 279.96092 119.411748 
L 280.450226 130.125462 
L 280.694879 129.478107 
L 280.939532 140.709705 
L 281.673491 127.568412 
L 281.918144 119.185174 
L 282.162797 120.253308 
L 282.40745 120.771192 
L 282.652103 116.369182 
L 282.896756 119.573586 
L 283.141409 119.411748 
L 283.386062 118.699658 
L 283.630715 119.80016 
L 283.875368 119.120438 
L 284.120021 112.226115 
L 284.364674 114.330016 
L 284.609327 108.439092 
L 284.85398 109.539594 
L 285.098633 106.594132 
L 285.343286 111.675863 
L 285.587939 112.193747 
L 285.832592 114.200545 
L 286.321898 108.47146 
L 286.566551 110.316419 
L 286.811204 109.669065 
L 287.055857 105.91441 
L 287.30051 107.209119 
L 288.034469 114.880267 
L 288.279122 113.617926 
L 288.523775 110.801935 
L 288.768428 110.575361 
L 289.013081 108.147782 
L 289.257734 106.853074 
L 289.502387 107.629899 
L 289.74704 108.89224 
L 289.991693 114.330016 
L 290.236346 112.776366 
L 290.480999 117.048904 
L 290.725652 116.207344 
L 290.970305 116.692859 
L 291.214958 113.197146 
L 291.459611 106.302823 
L 291.704264 109.054078 
L 291.948917 109.183549 
L 292.19357 99.829279 
L 292.438223 96.074624 
L 292.682876 94.035458 
L 292.92753 95.200696 
L 293.416836 89.827655 
L 293.906142 87.529547 
L 294.395448 94.067826 
L 294.640101 90.507377 
L 294.884754 92.384705 
L 295.129407 92.74075 
L 295.37406 88.662417 
L 295.618713 86.687987 
L 295.863366 87.335341 
L 296.108019 83.257009 
L 296.352672 97.207494 
L 296.597325 99.084822 
L 296.841978 102.93658 
L 297.086631 103.454464 
L 297.331284 104.813908 
L 297.82059 109.766168 
L 298.065243 105.331791 
L 298.309896 107.273854 
L 298.799202 105.072849 
L 299.043855 105.234688 
L 299.288508 103.681038 
L 299.777814 109.410123 
L 300.022467 108.762769 
L 300.511773 108.568563 
L 301.001079 110.963774 
L 301.245732 111.611128 
L 301.490385 113.229514 
L 301.735038 112.485056 
L 301.979691 109.798536 
L 302.224344 110.219316 
L 302.468997 109.863271 
L 302.958303 106.011513 
L 303.202956 108.439092 
L 303.447609 108.536195 
L 303.692262 107.791738 
L 303.936915 118.473084 
L 304.181568 122.810358 
L 304.670874 114.394752 
L 304.915527 111.675863 
L 305.16018 110.996141 
L 305.404833 112.193747 
L 305.649486 109.636697 
L 305.894139 109.766168 
L 306.138792 105.849675 
L 306.628098 103.972347 
L 306.872751 105.008114 
L 307.117404 104.716805 
L 307.362057 105.267056 
L 307.60671 104.134186 
L 307.851363 106.33519 
L 308.096016 110.381155 
L 308.585322 112.031908 
L 308.829975 113.067675 
L 309.074628 115.333415 
L 309.563934 117.858097 
L 309.808587 117.728626 
L 310.297893 120.771192 
L 310.542546 117.275478 
L 310.787199 120.285676 
L 311.031852 118.117039 
L 311.276505 118.375981 
L 311.765811 111.546393 
L 312.010464 111.837702 
L 312.255117 114.8479 
L 312.49977 114.006339 
L 312.744423 114.718429 
L 312.989076 114.750797 
L 313.478382 116.304447 
L 313.723035 117.987568 
L 313.967688 117.663891 
L 314.212341 118.149407 
L 314.701647 120.123837 
L 314.9463 121.22434 
L 315.190953 121.256707 
L 315.435607 122.551416 
L 315.68026 123.19877 
L 315.924913 122.680887 
L 316.169566 124.687685 
L 316.414219 124.978995 
L 316.658872 123.749022 
L 316.903525 129.15443 
L 317.148178 125.205569 
L 317.392831 128.248134 
L 317.637484 129.672314 
L 317.882137 128.895488 
L 318.371443 128.474708 
L 318.616096 127.438941 
L 318.860749 129.251533 
L 319.105402 125.950026 
L 319.350055 126.403174 
L 319.594708 130.643345 
L 319.839361 131.42017 
L 320.084014 129.86652 
L 320.328667 131.161229 
L 320.57332 127.730251 
L 320.817973 128.927856 
L 321.062626 128.604179 
L 321.307279 129.057327 
L 321.551932 127.827354 
L 321.796585 128.927856 
L 322.041238 128.927856 
L 322.530544 132.42357 
L 322.775197 133.362233 
L 323.01985 132.779614 
L 323.264503 134.300897 
L 323.509156 133.200395 
L 323.753809 130.740448 
L 323.998462 130.416771 
L 324.243115 127.18 
L 324.487768 126.079497 
L 324.732421 128.086296 
L 325.221727 123.975596 
L 325.46638 124.525847 
L 325.711033 128.280502 
L 325.955686 129.251533 
L 326.200339 130.805184 
L 326.444992 126.079497 
L 326.689645 129.057327 
L 326.934298 122.648519 
L 327.178951 122.810358 
L 327.668257 120.93303 
L 327.91291 112.129012 
L 328.157563 111.352186 
L 328.402216 112.064276 
L 328.646869 107.46806 
L 328.891522 106.658867 
L 329.136175 110.316419 
L 329.380828 112.29085 
L 329.625481 112.031908 
L 330.114787 108.439092 
L 330.35944 107.953576 
L 330.604093 105.687836 
L 330.848746 107.46806 
L 331.093399 108.050679 
L 331.338052 109.474859 
L 331.582705 104.749172 
L 331.827358 102.483432 
L 332.561317 88.888991 
L 332.80597 91.478409 
L 333.050623 92.158131 
L 333.295276 91.510776 
L 333.539929 90.410274 
L 333.784582 91.963924 
L 334.029235 87.464812 
L 334.518541 86.623251 
L 334.763194 87.076399 
L 335.007847 87.950328 
L 335.2525 87.885592 
L 335.497153 90.701583 
L 335.741806 89.860023 
L 335.986459 90.960525 
L 336.475765 80.538121 
L 336.720418 80.732327 
L 336.965071 75.553492 
L 337.209724 77.560291 
L 337.454377 77.495555 
L 337.69903 74.064577 
L 337.943684 80.246811 
L 338.188337 78.531322 
L 338.43299 78.822632 
L 338.677643 78.207645 
L 338.922296 81.056004 
L 339.166949 79.826031 
L 339.411602 81.573887 
L 339.656255 79.049206 
L 339.900908 78.596058 
L 340.145561 78.531322 
L 340.634867 69.20942 
L 340.87952 70.148084 
L 341.124173 68.044182 
L 341.368826 70.277555 
L 341.613479 71.280954 
L 342.102785 75.488757 
L 342.347438 75.488757 
L 342.592091 73.902739 
L 342.836744 74.647196 
L 343.081397 73.384855 
L 343.32605 71.183851 
L 343.570703 71.669366 
L 343.815356 69.953877 
L 344.060009 72.057779 
L 344.304662 72.219617 
L 344.549315 71.863573 
L 344.793968 73.125914 
L 345.038621 71.216218 
L 345.527927 71.960676 
L 345.77258 68.885743 
L 346.017233 70.34229 
L 346.261886 68.238388 
L 346.506539 70.083348 
L 346.751192 69.468362 
L 346.995845 69.533097 
L 347.240498 68.91811 
L 347.485151 69.274155 
L 347.974457 64.775043 
L 348.21911 66.199222 
L 348.463763 66.717106 
L 348.708416 66.555267 
L 348.953069 63.480334 
L 349.197722 66.587635 
L 349.442375 65.5195 
L 349.687028 65.001617 
L 349.931681 65.325294 
L 350.176334 64.548469 
L 350.420987 62.379832 
L 350.66564 64.062953 
L 350.910293 61.959051 
L 351.154946 61.279329 
L 351.644252 62.412199 
L 351.888905 62.54167 
L 352.133558 62.379832 
L 352.378211 63.901114 
L 352.622864 64.38663 
L 352.867517 62.315096 
L 353.11217 62.412199 
L 353.356823 61.894316 
L 353.846129 58.689912 
L 354.090782 60.178827 
L 354.335435 56.747849 
L 354.580088 57.880719 
L 354.824741 60.27593 
L 355.069394 55.485508 
L 355.5587 53.349239 
L 355.803353 54.126064 
L 356.048006 56.942055 
L 356.292659 58.107293 
L 356.537312 67.008415 
L 356.781965 68.464962 
L 357.026618 65.81081 
L 357.271271 67.65577 
L 357.515924 65.551868 
L 357.760577 73.352488 
L 358.00523 73.611429 
L 358.249883 73.255384 
L 358.494536 75.067977 
L 358.983842 84.195672 
L 359.228495 82.998067 
L 359.473148 80.279179 
L 359.717801 79.923134 
L 359.962454 81.897565 
L 360.207107 79.664192 
L 360.451761 81.088372 
L 360.696414 77.398452 
L 360.941067 77.625026 
L 361.18572 78.919735 
L 361.430373 78.045806 
L 362.164332 86.817457 
L 362.408985 85.458013 
L 362.653638 90.636848 
L 363.142944 81.832829 
L 363.63225 84.745924 
L 363.876903 85.263807 
L 364.121556 86.78509 
L 364.366209 87.238238 
L 364.610862 91.866821 
L 364.855515 89.083198 
L 365.100168 90.960525 
L 365.344821 90.507377 
L 365.589474 86.590883 
L 365.834127 87.108767 
L 366.07878 82.415448 
L 366.323433 86.137735 
L 366.568086 84.389879 
L 366.812739 80.473385 
L 367.302045 93.776516 
L 367.546698 93.87362 
L 368.036004 92.190498 
L 368.280657 90.442642 
L 368.52531 90.733951 
L 368.769963 88.144534 
L 369.014616 89.115565 
L 369.748575 80.797062 
L 369.993228 81.670991 
L 370.237881 81.9623 
L 370.482534 83.839628 
L 370.727187 82.156506 
L 370.97184 72.251985 
L 371.461146 72.478559 
L 371.705799 70.277555 
L 371.950452 76.556891 
L 372.195105 75.100344 
L 372.684411 84.066202 
L 372.929064 82.027035 
L 373.173717 95.459638 
L 373.41837 100.25006 
L 373.663023 98.178526 
L 373.907676 100.088221 
L 374.152329 99.732176 
L 374.396982 97.498804 
L 374.886288 102.353961 
L 375.130941 100.832679 
L 375.375594 95.653844 
L 375.620247 99.764544 
L 375.8649 99.699809 
L 376.109553 96.819082 
L 376.354206 96.333566 
L 376.598859 96.301198 
L 376.843512 95.330167 
L 377.088165 100.735575 
L 377.332818 99.764544 
L 377.577471 99.440867 
L 377.822124 99.764544 
L 378.066777 114.13581 
L 378.556083 114.038707 
L 379.045389 108.439092 
L 379.290042 111.416922 
L 379.534695 109.410123 
L 379.779348 110.769567 
L 380.024001 109.701433 
L 380.268654 107.176751 
L 380.75796 109.151182 
L 381.002613 106.011513 
L 381.247266 109.054078 
L 381.491919 107.079648 
L 381.736572 110.931406 
L 381.981225 109.248285 
L 382.470531 102.062652 
L 382.715184 102.839477 
L 382.959838 104.263656 
L 383.204491 104.393127 
L 383.449144 106.011513 
L 383.693797 105.979145 
L 383.93845 109.31302 
L 384.183103 114.55659 
L 384.427756 113.100043 
L 384.672409 110.672464 
L 384.917062 109.928007 
L 385.161715 110.284052 
L 385.406368 107.824105 
L 385.651021 106.561764 
L 386.140327 110.154581 
L 386.38498 111.740599 
L 386.629633 109.280652 
L 387.363592 111.708231 
L 387.608245 107.75937 
L 387.852898 109.960375 
L 387.852898 109.960375 
" style="fill:none;stroke:#ff7f0e;stroke-linecap:square;stroke-width:1.5;"/>
   </g>
   <g id="patch_3">
    <path d="M 46.965625 288.430125 
L 46.965625 22.318125 
" style="fill:none;stroke:#000000;stroke-linecap:square;stroke-linejoin:miter;stroke-width:0.8;"/>
   </g>
   <g id="patch_4">
    <path d="M 404.085625 288.430125 
L 404.085625 22.318125 
" style="fill:none;stroke:#000000;stroke-linecap:square;stroke-linejoin:miter;stroke-width:0.8;"/>
   </g>
   <g id="patch_5">
    <path d="M 46.965625 288.430125 
L 404.085625 288.430125 
" style="fill:none;stroke:#000000;stroke-linecap:square;stroke-linejoin:miter;stroke-width:0.8;"/>
   </g>
   <g id="patch_6">
    <path d="M 46.965625 22.318125 
L 404.085625 22.318125 
" style="fill:none;stroke:#000000;stroke-linecap:square;stroke-linejoin:miter;stroke-width:0.8;"/>
   </g>
   <g id="text_18">
    <!-- Training: DIS -->
    <defs>
     <path d="M -0.296875 72.90625 
L 61.375 72.90625 
L 61.375 64.59375 
L 35.5 64.59375 
L 35.5 0 
L 25.59375 0 
L 25.59375 64.59375 
L -0.296875 64.59375 
z
" id="DejaVuSans-84"/>
     <path d="M 54.890625 33.015625 
L 54.890625 0 
L 45.90625 0 
L 45.90625 32.71875 
Q 45.90625 40.484375 42.875 44.328125 
Q 39.84375 48.1875 33.796875 48.1875 
Q 26.515625 48.1875 22.3125 43.546875 
Q 18.109375 38.921875 18.109375 30.90625 
L 18.109375 0 
L 9.078125 0 
L 9.078125 54.6875 
L 18.109375 54.6875 
L 18.109375 46.1875 
Q 21.34375 51.125 25.703125 53.5625 
Q 30.078125 56 35.796875 56 
Q 45.21875 56 50.046875 50.171875 
Q 54.890625 44.34375 54.890625 33.015625 
z
" id="DejaVuSans-110"/>
     <path d="M 45.40625 27.984375 
Q 45.40625 37.75 41.375 43.109375 
Q 37.359375 48.484375 30.078125 48.484375 
Q 22.859375 48.484375 18.828125 43.109375 
Q 14.796875 37.75 14.796875 27.984375 
Q 14.796875 18.265625 18.828125 12.890625 
Q 22.859375 7.515625 30.078125 7.515625 
Q 37.359375 7.515625 41.375 12.890625 
Q 45.40625 18.265625 45.40625 27.984375 
z
M 54.390625 6.78125 
Q 54.390625 -7.171875 48.1875 -13.984375 
Q 42 -20.796875 29.203125 -20.796875 
Q 24.46875 -20.796875 20.265625 -20.09375 
Q 16.0625 -19.390625 12.109375 -17.921875 
L 12.109375 -9.1875 
Q 16.0625 -11.328125 19.921875 -12.34375 
Q 23.78125 -13.375 27.78125 -13.375 
Q 36.625 -13.375 41.015625 -8.765625 
Q 45.40625 -4.15625 45.40625 5.171875 
L 45.40625 9.625 
Q 42.625 4.78125 38.28125 2.390625 
Q 33.9375 0 27.875 0 
Q 17.828125 0 11.671875 7.65625 
Q 5.515625 15.328125 5.515625 27.984375 
Q 5.515625 40.671875 11.671875 48.328125 
Q 17.828125 56 27.875 56 
Q 33.9375 56 38.28125 53.609375 
Q 42.625 51.21875 45.40625 46.390625 
L 45.40625 54.6875 
L 54.390625 54.6875 
z
" id="DejaVuSans-103"/>
     <path d="M 11.71875 12.40625 
L 22.015625 12.40625 
L 22.015625 0 
L 11.71875 0 
z
M 11.71875 51.703125 
L 22.015625 51.703125 
L 22.015625 39.3125 
L 11.71875 39.3125 
z
" id="DejaVuSans-58"/>
     <path d="M 9.8125 72.90625 
L 19.671875 72.90625 
L 19.671875 0 
L 9.8125 0 
z
" id="DejaVuSans-73"/>
     <path d="M 53.515625 70.515625 
L 53.515625 60.890625 
Q 47.90625 63.578125 42.921875 64.890625 
Q 37.9375 66.21875 33.296875 66.21875 
Q 25.25 66.21875 20.875 63.09375 
Q 16.5 59.96875 16.5 54.203125 
Q 16.5 49.359375 19.40625 46.890625 
Q 22.3125 44.4375 30.421875 42.921875 
L 36.375 41.703125 
Q 47.40625 39.59375 52.65625 34.296875 
Q 57.90625 29 57.90625 20.125 
Q 57.90625 9.515625 50.796875 4.046875 
Q 43.703125 -1.421875 29.984375 -1.421875 
Q 24.8125 -1.421875 18.96875 -0.25 
Q 13.140625 0.921875 6.890625 3.21875 
L 6.890625 13.375 
Q 12.890625 10.015625 18.65625 8.296875 
Q 24.421875 6.59375 29.984375 6.59375 
Q 38.421875 6.59375 43.015625 9.90625 
Q 47.609375 13.234375 47.609375 19.390625 
Q 47.609375 24.75 44.3125 27.78125 
Q 41.015625 30.8125 33.5 32.328125 
L 27.484375 33.5 
Q 16.453125 35.6875 11.515625 40.375 
Q 6.59375 45.0625 6.59375 53.421875 
Q 6.59375 63.09375 13.40625 68.65625 
Q 20.21875 74.21875 32.171875 74.21875 
Q 37.3125 74.21875 42.625 73.28125 
Q 47.953125 72.359375 53.515625 70.515625 
z
" id="DejaVuSans-83"/>
    </defs>
    <g transform="translate(187.7275 16.318125)scale(0.12 -0.12)">
     <use xlink:href="#DejaVuSans-84"/>
     <use x="46.333984" xlink:href="#DejaVuSans-114"/>
     <use x="87.447266" xlink:href="#DejaVuSans-97"/>
     <use x="148.726562" xlink:href="#DejaVuSans-105"/>
     <use x="176.509766" xlink:href="#DejaVuSans-110"/>
     <use x="239.888672" xlink:href="#DejaVuSans-105"/>
     <use x="267.671875" xlink:href="#DejaVuSans-110"/>
     <use x="331.050781" xlink:href="#DejaVuSans-103"/>
     <use x="394.527344" xlink:href="#DejaVuSans-58"/>
     <use x="428.21875" xlink:href="#DejaVuSans-32"/>
     <use x="460.005859" xlink:href="#DejaVuSans-68"/>
     <use x="537.007812" xlink:href="#DejaVuSans-73"/>
     <use x="566.5" xlink:href="#DejaVuSans-83"/>
    </g>
   </g>
   <g id="legend_1">
    <g id="patch_7">
     <path d="M 53.965625 59.674375 
L 137.69375 59.674375 
Q 139.69375 59.674375 139.69375 57.674375 
L 139.69375 29.318125 
Q 139.69375 27.318125 137.69375 27.318125 
L 53.965625 27.318125 
Q 51.965625 27.318125 51.965625 29.318125 
L 51.965625 57.674375 
Q 51.965625 59.674375 53.965625 59.674375 
z
" style="fill:#ffffff;opacity:0.8;stroke:#cccccc;stroke-linejoin:miter;"/>
    </g>
    <g id="line2d_33">
     <path d="M 55.965625 35.416562 
L 75.965625 35.416562 
" style="fill:none;stroke:#1f77b4;stroke-linecap:square;stroke-width:1.5;"/>
    </g>
    <g id="line2d_34"/>
    <g id="text_19">
     <!-- Predicted -->
     <defs>
      <path d="M 45.40625 46.390625 
L 45.40625 75.984375 
L 54.390625 75.984375 
L 54.390625 0 
L 45.40625 0 
L 45.40625 8.203125 
Q 42.578125 3.328125 38.25 0.953125 
Q 33.9375 -1.421875 27.875 -1.421875 
Q 17.96875 -1.421875 11.734375 6.484375 
Q 5.515625 14.40625 5.515625 27.296875 
Q 5.515625 40.1875 11.734375 48.09375 
Q 17.96875 56 27.875 56 
Q 33.9375 56 38.25 53.625 
Q 42.578125 51.265625 45.40625 46.390625 
z
M 14.796875 27.296875 
Q 14.796875 17.390625 18.875 11.75 
Q 22.953125 6.109375 30.078125 6.109375 
Q 37.203125 6.109375 41.296875 11.75 
Q 45.40625 17.390625 45.40625 27.296875 
Q 45.40625 37.203125 41.296875 42.84375 
Q 37.203125 48.484375 30.078125 48.484375 
Q 22.953125 48.484375 18.875 42.84375 
Q 14.796875 37.203125 14.796875 27.296875 
z
" id="DejaVuSans-100"/>
      <path d="M 18.3125 70.21875 
L 18.3125 54.6875 
L 36.8125 54.6875 
L 36.8125 47.703125 
L 18.3125 47.703125 
L 18.3125 18.015625 
Q 18.3125 11.328125 20.140625 9.421875 
Q 21.96875 7.515625 27.59375 7.515625 
L 36.8125 7.515625 
L 36.8125 0 
L 27.59375 0 
Q 17.1875 0 13.234375 3.875 
Q 9.28125 7.765625 9.28125 18.015625 
L 9.28125 47.703125 
L 2.6875 47.703125 
L 2.6875 54.6875 
L 9.28125 54.6875 
L 9.28125 70.21875 
z
" id="DejaVuSans-116"/>
     </defs>
     <g transform="translate(83.965625 38.916562)scale(0.1 -0.1)">
      <use xlink:href="#DejaVuSans-80"/>
      <use x="58.552734" xlink:href="#DejaVuSans-114"/>
      <use x="97.416016" xlink:href="#DejaVuSans-101"/>
      <use x="158.939453" xlink:href="#DejaVuSans-100"/>
      <use x="222.416016" xlink:href="#DejaVuSans-105"/>
      <use x="250.199219" xlink:href="#DejaVuSans-99"/>
      <use x="305.179688" xlink:href="#DejaVuSans-116"/>
      <use x="344.388672" xlink:href="#DejaVuSans-101"/>
      <use x="405.912109" xlink:href="#DejaVuSans-100"/>
     </g>
    </g>
    <g id="line2d_35">
     <path d="M 55.965625 50.094687 
L 75.965625 50.094687 
" style="fill:none;stroke:#ff7f0e;stroke-linecap:square;stroke-width:1.5;"/>
    </g>
    <g id="line2d_36"/>
    <g id="text_20">
     <!-- True value -->
     <defs>
      <path d="M 8.5 21.578125 
L 8.5 54.6875 
L 17.484375 54.6875 
L 17.484375 21.921875 
Q 17.484375 14.15625 20.5 10.265625 
Q 23.53125 6.390625 29.59375 6.390625 
Q 36.859375 6.390625 41.078125 11.03125 
Q 45.3125 15.671875 45.3125 23.6875 
L 45.3125 54.6875 
L 54.296875 54.6875 
L 54.296875 0 
L 45.3125 0 
L 45.3125 8.40625 
Q 42.046875 3.421875 37.71875 1 
Q 33.40625 -1.421875 27.6875 -1.421875 
Q 18.265625 -1.421875 13.375 4.4375 
Q 8.5 10.296875 8.5 21.578125 
z
M 31.109375 56 
z
" id="DejaVuSans-117"/>
      <path d="M 2.984375 54.6875 
L 12.5 54.6875 
L 29.59375 8.796875 
L 46.6875 54.6875 
L 56.203125 54.6875 
L 35.6875 0 
L 23.484375 0 
z
" id="DejaVuSans-118"/>
      <path d="M 9.421875 75.984375 
L 18.40625 75.984375 
L 18.40625 0 
L 9.421875 0 
z
" id="DejaVuSans-108"/>
     </defs>
     <g transform="translate(83.965625 53.594687)scale(0.1 -0.1)">
      <use xlink:href="#DejaVuSans-84"/>
      <use x="46.333984" xlink:href="#DejaVuSans-114"/>
      <use x="87.447266" xlink:href="#DejaVuSans-117"/>
      <use x="150.826172" xlink:href="#DejaVuSans-101"/>
      <use x="212.349609" xlink:href="#DejaVuSans-32"/>
      <use x="244.136719" xlink:href="#DejaVuSans-118"/>
      <use x="303.316406" xlink:href="#DejaVuSans-97"/>
      <use x="364.595703" xlink:href="#DejaVuSans-108"/>
      <use x="392.378906" xlink:href="#DejaVuSans-117"/>
      <use x="455.757812" xlink:href="#DejaVuSans-101"/>
     </g>
    </g>
   </g>
  </g>
 </g>
 <defs>
  <clipPath id="p346fd17596">
   <rect height="266.112" width="357.12" x="46.965625" y="22.318125"/>
  </clipPath>
 </defs>
</svg>
