<?xml version="1.0" encoding="utf-8" standalone="no"?>
<!DOCTYPE svg PUBLIC "-//W3C//DTD SVG 1.1//EN"
  "http://www.w3.org/Graphics/SVG/1.1/DTD/svg11.dtd">
<!-- Created with matplotlib (https://matplotlib.org/) -->
<svg height="325.986375pt" version="1.1" viewBox="0 0 411.285625 325.986375" width="411.285625pt" xmlns="http://www.w3.org/2000/svg" xmlns:xlink="http://www.w3.org/1999/xlink">
 <defs>
  <style type="text/css">
*{stroke-linecap:butt;stroke-linejoin:round;}
  </style>
 </defs>
 <g id="figure_1">
  <g id="patch_1">
   <path d="M 0 325.986375 
L 411.285625 325.986375 
L 411.285625 0 
L 0 0 
z
" style="fill:#ffffff;"/>
  </g>
  <g id="axes_1">
   <g id="patch_2">
    <path d="M 46.965625 288.430125 
L 404.085625 288.430125 
L 404.085625 22.318125 
L 46.965625 22.318125 
z
" style="fill:#ffffff;"/>
   </g>
   <g id="matplotlib.axis_1">
    <g id="xtick_1">
     <g id="line2d_1">
      <path clip-path="url(#p753211172e)" d="M 63.198352 288.430125 
L 63.198352 22.318125 
" style="fill:none;stroke:#b0b0b0;stroke-dasharray:2.96,1.28;stroke-dashoffset:0;stroke-width:0.8;"/>
     </g>
     <g id="line2d_2">
      <defs>
       <path d="M 0 0 
L 0 3.5 
" id="m1a57d7159a" style="stroke:#000000;stroke-width:0.8;"/>
      </defs>
      <g>
       <use style="stroke:#000000;stroke-width:0.8;" x="63.198352" xlink:href="#m1a57d7159a" y="288.430125"/>
      </g>
     </g>
     <g id="text_1">
      <!-- 0 -->
      <defs>
       <path d="M 31.78125 66.40625 
Q 24.171875 66.40625 20.328125 58.90625 
Q 16.5 51.421875 16.5 36.375 
Q 16.5 21.390625 20.328125 13.890625 
Q 24.171875 6.390625 31.78125 6.390625 
Q 39.453125 6.390625 43.28125 13.890625 
Q 47.125 21.390625 47.125 36.375 
Q 47.125 51.421875 43.28125 58.90625 
Q 39.453125 66.40625 31.78125 66.40625 
z
M 31.78125 74.21875 
Q 44.046875 74.21875 50.515625 64.515625 
Q 56.984375 54.828125 56.984375 36.375 
Q 56.984375 17.96875 50.515625 8.265625 
Q 44.046875 -1.421875 31.78125 -1.421875 
Q 19.53125 -1.421875 13.0625 8.265625 
Q 6.59375 17.96875 6.59375 36.375 
Q 6.59375 54.828125 13.0625 64.515625 
Q 19.53125 74.21875 31.78125 74.21875 
z
" id="DejaVuSans-48"/>
      </defs>
      <g transform="translate(60.017102 303.028562)scale(0.1 -0.1)">
       <use xlink:href="#DejaVuSans-48"/>
      </g>
     </g>
    </g>
    <g id="xtick_2">
     <g id="line2d_3">
      <path clip-path="url(#p753211172e)" d="M 112.128954 288.430125 
L 112.128954 22.318125 
" style="fill:none;stroke:#b0b0b0;stroke-dasharray:2.96,1.28;stroke-dashoffset:0;stroke-width:0.8;"/>
     </g>
     <g id="line2d_4">
      <g>
       <use style="stroke:#000000;stroke-width:0.8;" x="112.128954" xlink:href="#m1a57d7159a" y="288.430125"/>
      </g>
     </g>
     <g id="text_2">
      <!-- 200 -->
      <defs>
       <path d="M 19.1875 8.296875 
L 53.609375 8.296875 
L 53.609375 0 
L 7.328125 0 
L 7.328125 8.296875 
Q 12.9375 14.109375 22.625 23.890625 
Q 32.328125 33.6875 34.8125 36.53125 
Q 39.546875 41.84375 41.421875 45.53125 
Q 43.3125 49.21875 43.3125 52.78125 
Q 43.3125 58.59375 39.234375 62.25 
Q 35.15625 65.921875 28.609375 65.921875 
Q 23.96875 65.921875 18.8125 64.3125 
Q 13.671875 62.703125 7.8125 59.421875 
L 7.8125 69.390625 
Q 13.765625 71.78125 18.9375 73 
Q 24.125 74.21875 28.421875 74.21875 
Q 39.75 74.21875 46.484375 68.546875 
Q 53.21875 62.890625 53.21875 53.421875 
Q 53.21875 48.921875 51.53125 44.890625 
Q 49.859375 40.875 45.40625 35.40625 
Q 44.1875 33.984375 37.640625 27.21875 
Q 31.109375 20.453125 19.1875 8.296875 
z
" id="DejaVuSans-50"/>
      </defs>
      <g transform="translate(102.585204 303.028562)scale(0.1 -0.1)">
       <use xlink:href="#DejaVuSans-50"/>
       <use x="63.623047" xlink:href="#DejaVuSans-48"/>
       <use x="127.246094" xlink:href="#DejaVuSans-48"/>
      </g>
     </g>
    </g>
    <g id="xtick_3">
     <g id="line2d_5">
      <path clip-path="url(#p753211172e)" d="M 161.059557 288.430125 
L 161.059557 22.318125 
" style="fill:none;stroke:#b0b0b0;stroke-dasharray:2.96,1.28;stroke-dashoffset:0;stroke-width:0.8;"/>
     </g>
     <g id="line2d_6">
      <g>
       <use style="stroke:#000000;stroke-width:0.8;" x="161.059557" xlink:href="#m1a57d7159a" y="288.430125"/>
      </g>
     </g>
     <g id="text_3">
      <!-- 400 -->
      <defs>
       <path d="M 37.796875 64.3125 
L 12.890625 25.390625 
L 37.796875 25.390625 
z
M 35.203125 72.90625 
L 47.609375 72.90625 
L 47.609375 25.390625 
L 58.015625 25.390625 
L 58.015625 17.1875 
L 47.609375 17.1875 
L 47.609375 0 
L 37.796875 0 
L 37.796875 17.1875 
L 4.890625 17.1875 
L 4.890625 26.703125 
z
" id="DejaVuSans-52"/>
      </defs>
      <g transform="translate(151.515807 303.028562)scale(0.1 -0.1)">
       <use xlink:href="#DejaVuSans-52"/>
       <use x="63.623047" xlink:href="#DejaVuSans-48"/>
       <use x="127.246094" xlink:href="#DejaVuSans-48"/>
      </g>
     </g>
    </g>
    <g id="xtick_4">
     <g id="line2d_7">
      <path clip-path="url(#p753211172e)" d="M 209.990159 288.430125 
L 209.990159 22.318125 
" style="fill:none;stroke:#b0b0b0;stroke-dasharray:2.96,1.28;stroke-dashoffset:0;stroke-width:0.8;"/>
     </g>
     <g id="line2d_8">
      <g>
       <use style="stroke:#000000;stroke-width:0.8;" x="209.990159" xlink:href="#m1a57d7159a" y="288.430125"/>
      </g>
     </g>
     <g id="text_4">
      <!-- 600 -->
      <defs>
       <path d="M 33.015625 40.375 
Q 26.375 40.375 22.484375 35.828125 
Q 18.609375 31.296875 18.609375 23.390625 
Q 18.609375 15.53125 22.484375 10.953125 
Q 26.375 6.390625 33.015625 6.390625 
Q 39.65625 6.390625 43.53125 10.953125 
Q 47.40625 15.53125 47.40625 23.390625 
Q 47.40625 31.296875 43.53125 35.828125 
Q 39.65625 40.375 33.015625 40.375 
z
M 52.59375 71.296875 
L 52.59375 62.3125 
Q 48.875 64.0625 45.09375 64.984375 
Q 41.3125 65.921875 37.59375 65.921875 
Q 27.828125 65.921875 22.671875 59.328125 
Q 17.53125 52.734375 16.796875 39.40625 
Q 19.671875 43.65625 24.015625 45.921875 
Q 28.375 48.1875 33.59375 48.1875 
Q 44.578125 48.1875 50.953125 41.515625 
Q 57.328125 34.859375 57.328125 23.390625 
Q 57.328125 12.15625 50.6875 5.359375 
Q 44.046875 -1.421875 33.015625 -1.421875 
Q 20.359375 -1.421875 13.671875 8.265625 
Q 6.984375 17.96875 6.984375 36.375 
Q 6.984375 53.65625 15.1875 63.9375 
Q 23.390625 74.21875 37.203125 74.21875 
Q 40.921875 74.21875 44.703125 73.484375 
Q 48.484375 72.75 52.59375 71.296875 
z
" id="DejaVuSans-54"/>
      </defs>
      <g transform="translate(200.446409 303.028562)scale(0.1 -0.1)">
       <use xlink:href="#DejaVuSans-54"/>
       <use x="63.623047" xlink:href="#DejaVuSans-48"/>
       <use x="127.246094" xlink:href="#DejaVuSans-48"/>
      </g>
     </g>
    </g>
    <g id="xtick_5">
     <g id="line2d_9">
      <path clip-path="url(#p753211172e)" d="M 258.920761 288.430125 
L 258.920761 22.318125 
" style="fill:none;stroke:#b0b0b0;stroke-dasharray:2.96,1.28;stroke-dashoffset:0;stroke-width:0.8;"/>
     </g>
     <g id="line2d_10">
      <g>
       <use style="stroke:#000000;stroke-width:0.8;" x="258.920761" xlink:href="#m1a57d7159a" y="288.430125"/>
      </g>
     </g>
     <g id="text_5">
      <!-- 800 -->
      <defs>
       <path d="M 31.78125 34.625 
Q 24.75 34.625 20.71875 30.859375 
Q 16.703125 27.09375 16.703125 20.515625 
Q 16.703125 13.921875 20.71875 10.15625 
Q 24.75 6.390625 31.78125 6.390625 
Q 38.8125 6.390625 42.859375 10.171875 
Q 46.921875 13.96875 46.921875 20.515625 
Q 46.921875 27.09375 42.890625 30.859375 
Q 38.875 34.625 31.78125 34.625 
z
M 21.921875 38.8125 
Q 15.578125 40.375 12.03125 44.71875 
Q 8.5 49.078125 8.5 55.328125 
Q 8.5 64.0625 14.71875 69.140625 
Q 20.953125 74.21875 31.78125 74.21875 
Q 42.671875 74.21875 48.875 69.140625 
Q 55.078125 64.0625 55.078125 55.328125 
Q 55.078125 49.078125 51.53125 44.71875 
Q 48 40.375 41.703125 38.8125 
Q 48.828125 37.15625 52.796875 32.3125 
Q 56.78125 27.484375 56.78125 20.515625 
Q 56.78125 9.90625 50.3125 4.234375 
Q 43.84375 -1.421875 31.78125 -1.421875 
Q 19.734375 -1.421875 13.25 4.234375 
Q 6.78125 9.90625 6.78125 20.515625 
Q 6.78125 27.484375 10.78125 32.3125 
Q 14.796875 37.15625 21.921875 38.8125 
z
M 18.3125 54.390625 
Q 18.3125 48.734375 21.84375 45.5625 
Q 25.390625 42.390625 31.78125 42.390625 
Q 38.140625 42.390625 41.71875 45.5625 
Q 45.3125 48.734375 45.3125 54.390625 
Q 45.3125 60.0625 41.71875 63.234375 
Q 38.140625 66.40625 31.78125 66.40625 
Q 25.390625 66.40625 21.84375 63.234375 
Q 18.3125 60.0625 18.3125 54.390625 
z
" id="DejaVuSans-56"/>
      </defs>
      <g transform="translate(249.377011 303.028562)scale(0.1 -0.1)">
       <use xlink:href="#DejaVuSans-56"/>
       <use x="63.623047" xlink:href="#DejaVuSans-48"/>
       <use x="127.246094" xlink:href="#DejaVuSans-48"/>
      </g>
     </g>
    </g>
    <g id="xtick_6">
     <g id="line2d_11">
      <path clip-path="url(#p753211172e)" d="M 307.851363 288.430125 
L 307.851363 22.318125 
" style="fill:none;stroke:#b0b0b0;stroke-dasharray:2.96,1.28;stroke-dashoffset:0;stroke-width:0.8;"/>
     </g>
     <g id="line2d_12">
      <g>
       <use style="stroke:#000000;stroke-width:0.8;" x="307.851363" xlink:href="#m1a57d7159a" y="288.430125"/>
      </g>
     </g>
     <g id="text_6">
      <!-- 1000 -->
      <defs>
       <path d="M 12.40625 8.296875 
L 28.515625 8.296875 
L 28.515625 63.921875 
L 10.984375 60.40625 
L 10.984375 69.390625 
L 28.421875 72.90625 
L 38.28125 72.90625 
L 38.28125 8.296875 
L 54.390625 8.296875 
L 54.390625 0 
L 12.40625 0 
z
" id="DejaVuSans-49"/>
      </defs>
      <g transform="translate(295.126363 303.028562)scale(0.1 -0.1)">
       <use xlink:href="#DejaVuSans-49"/>
       <use x="63.623047" xlink:href="#DejaVuSans-48"/>
       <use x="127.246094" xlink:href="#DejaVuSans-48"/>
       <use x="190.869141" xlink:href="#DejaVuSans-48"/>
      </g>
     </g>
    </g>
    <g id="xtick_7">
     <g id="line2d_13">
      <path clip-path="url(#p753211172e)" d="M 356.781965 288.430125 
L 356.781965 22.318125 
" style="fill:none;stroke:#b0b0b0;stroke-dasharray:2.96,1.28;stroke-dashoffset:0;stroke-width:0.8;"/>
     </g>
     <g id="line2d_14">
      <g>
       <use style="stroke:#000000;stroke-width:0.8;" x="356.781965" xlink:href="#m1a57d7159a" y="288.430125"/>
      </g>
     </g>
     <g id="text_7">
      <!-- 1200 -->
      <g transform="translate(344.056965 303.028562)scale(0.1 -0.1)">
       <use xlink:href="#DejaVuSans-49"/>
       <use x="63.623047" xlink:href="#DejaVuSans-50"/>
       <use x="127.246094" xlink:href="#DejaVuSans-48"/>
       <use x="190.869141" xlink:href="#DejaVuSans-48"/>
      </g>
     </g>
    </g>
    <g id="text_8">
     <!-- Day -->
     <defs>
      <path d="M 19.671875 64.796875 
L 19.671875 8.109375 
L 31.59375 8.109375 
Q 46.6875 8.109375 53.6875 14.9375 
Q 60.6875 21.78125 60.6875 36.53125 
Q 60.6875 51.171875 53.6875 57.984375 
Q 46.6875 64.796875 31.59375 64.796875 
z
M 9.8125 72.90625 
L 30.078125 72.90625 
Q 51.265625 72.90625 61.171875 64.09375 
Q 71.09375 55.28125 71.09375 36.53125 
Q 71.09375 17.671875 61.125 8.828125 
Q 51.171875 0 30.078125 0 
L 9.8125 0 
z
" id="DejaVuSans-68"/>
      <path d="M 34.28125 27.484375 
Q 23.390625 27.484375 19.1875 25 
Q 14.984375 22.515625 14.984375 16.5 
Q 14.984375 11.71875 18.140625 8.90625 
Q 21.296875 6.109375 26.703125 6.109375 
Q 34.1875 6.109375 38.703125 11.40625 
Q 43.21875 16.703125 43.21875 25.484375 
L 43.21875 27.484375 
z
M 52.203125 31.203125 
L 52.203125 0 
L 43.21875 0 
L 43.21875 8.296875 
Q 40.140625 3.328125 35.546875 0.953125 
Q 30.953125 -1.421875 24.3125 -1.421875 
Q 15.921875 -1.421875 10.953125 3.296875 
Q 6 8.015625 6 15.921875 
Q 6 25.140625 12.171875 29.828125 
Q 18.359375 34.515625 30.609375 34.515625 
L 43.21875 34.515625 
L 43.21875 35.40625 
Q 43.21875 41.609375 39.140625 45 
Q 35.0625 48.390625 27.6875 48.390625 
Q 23 48.390625 18.546875 47.265625 
Q 14.109375 46.140625 10.015625 43.890625 
L 10.015625 52.203125 
Q 14.9375 54.109375 19.578125 55.046875 
Q 24.21875 56 28.609375 56 
Q 40.484375 56 46.34375 49.84375 
Q 52.203125 43.703125 52.203125 31.203125 
z
" id="DejaVuSans-97"/>
      <path d="M 32.171875 -5.078125 
Q 28.375 -14.84375 24.75 -17.8125 
Q 21.140625 -20.796875 15.09375 -20.796875 
L 7.90625 -20.796875 
L 7.90625 -13.28125 
L 13.1875 -13.28125 
Q 16.890625 -13.28125 18.9375 -11.515625 
Q 21 -9.765625 23.484375 -3.21875 
L 25.09375 0.875 
L 2.984375 54.6875 
L 12.5 54.6875 
L 29.59375 11.921875 
L 46.6875 54.6875 
L 56.203125 54.6875 
z
" id="DejaVuSans-121"/>
     </defs>
     <g transform="translate(215.652188 316.706687)scale(0.1 -0.1)">
      <use xlink:href="#DejaVuSans-68"/>
      <use x="77.001953" xlink:href="#DejaVuSans-97"/>
      <use x="138.28125" xlink:href="#DejaVuSans-121"/>
     </g>
    </g>
   </g>
   <g id="matplotlib.axis_2">
    <g id="ytick_1">
     <g id="line2d_15">
      <path clip-path="url(#p753211172e)" d="M 46.965625 260.144381 
L 404.085625 260.144381 
" style="fill:none;stroke:#b0b0b0;stroke-dasharray:2.96,1.28;stroke-dashoffset:0;stroke-width:0.8;"/>
     </g>
     <g id="line2d_16">
      <defs>
       <path d="M 0 0 
L -3.5 0 
" id="mfd6f53350d" style="stroke:#000000;stroke-width:0.8;"/>
      </defs>
      <g>
       <use style="stroke:#000000;stroke-width:0.8;" x="46.965625" xlink:href="#mfd6f53350d" y="260.144381"/>
      </g>
     </g>
     <g id="text_9">
      <!-- 50 -->
      <defs>
       <path d="M 10.796875 72.90625 
L 49.515625 72.90625 
L 49.515625 64.59375 
L 19.828125 64.59375 
L 19.828125 46.734375 
Q 21.96875 47.46875 24.109375 47.828125 
Q 26.265625 48.1875 28.421875 48.1875 
Q 40.625 48.1875 47.75 41.5 
Q 54.890625 34.8125 54.890625 23.390625 
Q 54.890625 11.625 47.5625 5.09375 
Q 40.234375 -1.421875 26.90625 -1.421875 
Q 22.3125 -1.421875 17.546875 -0.640625 
Q 12.796875 0.140625 7.71875 1.703125 
L 7.71875 11.625 
Q 12.109375 9.234375 16.796875 8.0625 
Q 21.484375 6.890625 26.703125 6.890625 
Q 35.15625 6.890625 40.078125 11.328125 
Q 45.015625 15.765625 45.015625 23.390625 
Q 45.015625 31 40.078125 35.4375 
Q 35.15625 39.890625 26.703125 39.890625 
Q 22.75 39.890625 18.8125 39.015625 
Q 14.890625 38.140625 10.796875 36.28125 
z
" id="DejaVuSans-53"/>
      </defs>
      <g transform="translate(27.240625 263.9436)scale(0.1 -0.1)">
       <use xlink:href="#DejaVuSans-53"/>
       <use x="63.623047" xlink:href="#DejaVuSans-48"/>
      </g>
     </g>
    </g>
    <g id="ytick_2">
     <g id="line2d_17">
      <path clip-path="url(#p753211172e)" d="M 46.965625 226.453298 
L 404.085625 226.453298 
" style="fill:none;stroke:#b0b0b0;stroke-dasharray:2.96,1.28;stroke-dashoffset:0;stroke-width:0.8;"/>
     </g>
     <g id="line2d_18">
      <g>
       <use style="stroke:#000000;stroke-width:0.8;" x="46.965625" xlink:href="#mfd6f53350d" y="226.453298"/>
      </g>
     </g>
     <g id="text_10">
      <!-- 100 -->
      <g transform="translate(20.878125 230.252517)scale(0.1 -0.1)">
       <use xlink:href="#DejaVuSans-49"/>
       <use x="63.623047" xlink:href="#DejaVuSans-48"/>
       <use x="127.246094" xlink:href="#DejaVuSans-48"/>
      </g>
     </g>
    </g>
    <g id="ytick_3">
     <g id="line2d_19">
      <path clip-path="url(#p753211172e)" d="M 46.965625 192.762215 
L 404.085625 192.762215 
" style="fill:none;stroke:#b0b0b0;stroke-dasharray:2.96,1.28;stroke-dashoffset:0;stroke-width:0.8;"/>
     </g>
     <g id="line2d_20">
      <g>
       <use style="stroke:#000000;stroke-width:0.8;" x="46.965625" xlink:href="#mfd6f53350d" y="192.762215"/>
      </g>
     </g>
     <g id="text_11">
      <!-- 150 -->
      <g transform="translate(20.878125 196.561434)scale(0.1 -0.1)">
       <use xlink:href="#DejaVuSans-49"/>
       <use x="63.623047" xlink:href="#DejaVuSans-53"/>
       <use x="127.246094" xlink:href="#DejaVuSans-48"/>
      </g>
     </g>
    </g>
    <g id="ytick_4">
     <g id="line2d_21">
      <path clip-path="url(#p753211172e)" d="M 46.965625 159.071132 
L 404.085625 159.071132 
" style="fill:none;stroke:#b0b0b0;stroke-dasharray:2.96,1.28;stroke-dashoffset:0;stroke-width:0.8;"/>
     </g>
     <g id="line2d_22">
      <g>
       <use style="stroke:#000000;stroke-width:0.8;" x="46.965625" xlink:href="#mfd6f53350d" y="159.071132"/>
      </g>
     </g>
     <g id="text_12">
      <!-- 200 -->
      <g transform="translate(20.878125 162.870351)scale(0.1 -0.1)">
       <use xlink:href="#DejaVuSans-50"/>
       <use x="63.623047" xlink:href="#DejaVuSans-48"/>
       <use x="127.246094" xlink:href="#DejaVuSans-48"/>
      </g>
     </g>
    </g>
    <g id="ytick_5">
     <g id="line2d_23">
      <path clip-path="url(#p753211172e)" d="M 46.965625 125.380049 
L 404.085625 125.380049 
" style="fill:none;stroke:#b0b0b0;stroke-dasharray:2.96,1.28;stroke-dashoffset:0;stroke-width:0.8;"/>
     </g>
     <g id="line2d_24">
      <g>
       <use style="stroke:#000000;stroke-width:0.8;" x="46.965625" xlink:href="#mfd6f53350d" y="125.380049"/>
      </g>
     </g>
     <g id="text_13">
      <!-- 250 -->
      <g transform="translate(20.878125 129.179268)scale(0.1 -0.1)">
       <use xlink:href="#DejaVuSans-50"/>
       <use x="63.623047" xlink:href="#DejaVuSans-53"/>
       <use x="127.246094" xlink:href="#DejaVuSans-48"/>
      </g>
     </g>
    </g>
    <g id="ytick_6">
     <g id="line2d_25">
      <path clip-path="url(#p753211172e)" d="M 46.965625 91.688966 
L 404.085625 91.688966 
" style="fill:none;stroke:#b0b0b0;stroke-dasharray:2.96,1.28;stroke-dashoffset:0;stroke-width:0.8;"/>
     </g>
     <g id="line2d_26">
      <g>
       <use style="stroke:#000000;stroke-width:0.8;" x="46.965625" xlink:href="#mfd6f53350d" y="91.688966"/>
      </g>
     </g>
     <g id="text_14">
      <!-- 300 -->
      <defs>
       <path d="M 40.578125 39.3125 
Q 47.65625 37.796875 51.625 33 
Q 55.609375 28.21875 55.609375 21.1875 
Q 55.609375 10.40625 48.1875 4.484375 
Q 40.765625 -1.421875 27.09375 -1.421875 
Q 22.515625 -1.421875 17.65625 -0.515625 
Q 12.796875 0.390625 7.625 2.203125 
L 7.625 11.71875 
Q 11.71875 9.328125 16.59375 8.109375 
Q 21.484375 6.890625 26.8125 6.890625 
Q 36.078125 6.890625 40.9375 10.546875 
Q 45.796875 14.203125 45.796875 21.1875 
Q 45.796875 27.640625 41.28125 31.265625 
Q 36.765625 34.90625 28.71875 34.90625 
L 20.21875 34.90625 
L 20.21875 43.015625 
L 29.109375 43.015625 
Q 36.375 43.015625 40.234375 45.921875 
Q 44.09375 48.828125 44.09375 54.296875 
Q 44.09375 59.90625 40.109375 62.90625 
Q 36.140625 65.921875 28.71875 65.921875 
Q 24.65625 65.921875 20.015625 65.03125 
Q 15.375 64.15625 9.8125 62.3125 
L 9.8125 71.09375 
Q 15.4375 72.65625 20.34375 73.4375 
Q 25.25 74.21875 29.59375 74.21875 
Q 40.828125 74.21875 47.359375 69.109375 
Q 53.90625 64.015625 53.90625 55.328125 
Q 53.90625 49.265625 50.4375 45.09375 
Q 46.96875 40.921875 40.578125 39.3125 
z
" id="DejaVuSans-51"/>
      </defs>
      <g transform="translate(20.878125 95.488185)scale(0.1 -0.1)">
       <use xlink:href="#DejaVuSans-51"/>
       <use x="63.623047" xlink:href="#DejaVuSans-48"/>
       <use x="127.246094" xlink:href="#DejaVuSans-48"/>
      </g>
     </g>
    </g>
    <g id="ytick_7">
     <g id="line2d_27">
      <path clip-path="url(#p753211172e)" d="M 46.965625 57.997883 
L 404.085625 57.997883 
" style="fill:none;stroke:#b0b0b0;stroke-dasharray:2.96,1.28;stroke-dashoffset:0;stroke-width:0.8;"/>
     </g>
     <g id="line2d_28">
      <g>
       <use style="stroke:#000000;stroke-width:0.8;" x="46.965625" xlink:href="#mfd6f53350d" y="57.997883"/>
      </g>
     </g>
     <g id="text_15">
      <!-- 350 -->
      <g transform="translate(20.878125 61.797102)scale(0.1 -0.1)">
       <use xlink:href="#DejaVuSans-51"/>
       <use x="63.623047" xlink:href="#DejaVuSans-53"/>
       <use x="127.246094" xlink:href="#DejaVuSans-48"/>
      </g>
     </g>
    </g>
    <g id="ytick_8">
     <g id="line2d_29">
      <path clip-path="url(#p753211172e)" d="M 46.965625 24.3068 
L 404.085625 24.3068 
" style="fill:none;stroke:#b0b0b0;stroke-dasharray:2.96,1.28;stroke-dashoffset:0;stroke-width:0.8;"/>
     </g>
     <g id="line2d_30">
      <g>
       <use style="stroke:#000000;stroke-width:0.8;" x="46.965625" xlink:href="#mfd6f53350d" y="24.3068"/>
      </g>
     </g>
     <g id="text_16">
      <!-- 400 -->
      <g transform="translate(20.878125 28.106019)scale(0.1 -0.1)">
       <use xlink:href="#DejaVuSans-52"/>
       <use x="63.623047" xlink:href="#DejaVuSans-48"/>
       <use x="127.246094" xlink:href="#DejaVuSans-48"/>
      </g>
     </g>
    </g>
    <g id="text_17">
     <!-- Price $ -->
     <defs>
      <path d="M 19.671875 64.796875 
L 19.671875 37.40625 
L 32.078125 37.40625 
Q 38.96875 37.40625 42.71875 40.96875 
Q 46.484375 44.53125 46.484375 51.125 
Q 46.484375 57.671875 42.71875 61.234375 
Q 38.96875 64.796875 32.078125 64.796875 
z
M 9.8125 72.90625 
L 32.078125 72.90625 
Q 44.34375 72.90625 50.609375 67.359375 
Q 56.890625 61.8125 56.890625 51.125 
Q 56.890625 40.328125 50.609375 34.8125 
Q 44.34375 29.296875 32.078125 29.296875 
L 19.671875 29.296875 
L 19.671875 0 
L 9.8125 0 
z
" id="DejaVuSans-80"/>
      <path d="M 41.109375 46.296875 
Q 39.59375 47.171875 37.8125 47.578125 
Q 36.03125 48 33.890625 48 
Q 26.265625 48 22.1875 43.046875 
Q 18.109375 38.09375 18.109375 28.8125 
L 18.109375 0 
L 9.078125 0 
L 9.078125 54.6875 
L 18.109375 54.6875 
L 18.109375 46.1875 
Q 20.953125 51.171875 25.484375 53.578125 
Q 30.03125 56 36.53125 56 
Q 37.453125 56 38.578125 55.875 
Q 39.703125 55.765625 41.0625 55.515625 
z
" id="DejaVuSans-114"/>
      <path d="M 9.421875 54.6875 
L 18.40625 54.6875 
L 18.40625 0 
L 9.421875 0 
z
M 9.421875 75.984375 
L 18.40625 75.984375 
L 18.40625 64.59375 
L 9.421875 64.59375 
z
" id="DejaVuSans-105"/>
      <path d="M 48.78125 52.59375 
L 48.78125 44.1875 
Q 44.96875 46.296875 41.140625 47.34375 
Q 37.3125 48.390625 33.40625 48.390625 
Q 24.65625 48.390625 19.8125 42.84375 
Q 14.984375 37.3125 14.984375 27.296875 
Q 14.984375 17.28125 19.8125 11.734375 
Q 24.65625 6.203125 33.40625 6.203125 
Q 37.3125 6.203125 41.140625 7.25 
Q 44.96875 8.296875 48.78125 10.40625 
L 48.78125 2.09375 
Q 45.015625 0.34375 40.984375 -0.53125 
Q 36.96875 -1.421875 32.421875 -1.421875 
Q 20.0625 -1.421875 12.78125 6.34375 
Q 5.515625 14.109375 5.515625 27.296875 
Q 5.515625 40.671875 12.859375 48.328125 
Q 20.21875 56 33.015625 56 
Q 37.15625 56 41.109375 55.140625 
Q 45.0625 54.296875 48.78125 52.59375 
z
" id="DejaVuSans-99"/>
      <path d="M 56.203125 29.59375 
L 56.203125 25.203125 
L 14.890625 25.203125 
Q 15.484375 15.921875 20.484375 11.0625 
Q 25.484375 6.203125 34.421875 6.203125 
Q 39.59375 6.203125 44.453125 7.46875 
Q 49.3125 8.734375 54.109375 11.28125 
L 54.109375 2.78125 
Q 49.265625 0.734375 44.1875 -0.34375 
Q 39.109375 -1.421875 33.890625 -1.421875 
Q 20.796875 -1.421875 13.15625 6.1875 
Q 5.515625 13.8125 5.515625 26.8125 
Q 5.515625 40.234375 12.765625 48.109375 
Q 20.015625 56 32.328125 56 
Q 43.359375 56 49.78125 48.890625 
Q 56.203125 41.796875 56.203125 29.59375 
z
M 47.21875 32.234375 
Q 47.125 39.59375 43.09375 43.984375 
Q 39.0625 48.390625 32.421875 48.390625 
Q 24.90625 48.390625 20.390625 44.140625 
Q 15.875 39.890625 15.1875 32.171875 
z
" id="DejaVuSans-101"/>
      <path id="DejaVuSans-32"/>
      <path d="M 33.796875 -14.703125 
L 28.90625 -14.703125 
L 28.859375 0 
Q 23.734375 0.09375 18.609375 1.1875 
Q 13.484375 2.296875 8.296875 4.5 
L 8.296875 13.28125 
Q 13.28125 10.15625 18.375 8.5625 
Q 23.484375 6.984375 28.90625 6.9375 
L 28.90625 29.203125 
Q 18.109375 30.953125 13.203125 35.15625 
Q 8.296875 39.359375 8.296875 46.6875 
Q 8.296875 54.640625 13.625 59.21875 
Q 18.953125 63.8125 28.90625 64.5 
L 28.90625 75.984375 
L 33.796875 75.984375 
L 33.796875 64.65625 
Q 38.328125 64.453125 42.578125 63.6875 
Q 46.828125 62.9375 50.875 61.625 
L 50.875 53.078125 
Q 46.828125 55.125 42.546875 56.25 
Q 38.28125 57.375 33.796875 57.5625 
L 33.796875 36.71875 
Q 44.875 35.015625 50.09375 30.609375 
Q 55.328125 26.21875 55.328125 18.609375 
Q 55.328125 10.359375 49.78125 5.59375 
Q 44.234375 0.828125 33.796875 0.09375 
z
M 28.90625 37.59375 
L 28.90625 57.625 
Q 23.25 56.984375 20.265625 54.390625 
Q 17.28125 51.8125 17.28125 47.515625 
Q 17.28125 43.3125 20.03125 40.96875 
Q 22.796875 38.625 28.90625 37.59375 
z
M 33.796875 28.21875 
L 33.796875 7.078125 
Q 39.984375 7.90625 43.140625 10.59375 
Q 46.296875 13.28125 46.296875 17.671875 
Q 46.296875 21.96875 43.28125 24.5 
Q 40.28125 27.046875 33.796875 28.21875 
z
" id="DejaVuSans-36"/>
     </defs>
     <g transform="translate(14.798438 172.342094)rotate(-90)scale(0.1 -0.1)">
      <use xlink:href="#DejaVuSans-80"/>
      <use x="58.552734" xlink:href="#DejaVuSans-114"/>
      <use x="99.666016" xlink:href="#DejaVuSans-105"/>
      <use x="127.449219" xlink:href="#DejaVuSans-99"/>
      <use x="182.429688" xlink:href="#DejaVuSans-101"/>
      <use x="243.953125" xlink:href="#DejaVuSans-32"/>
      <use x="275.740234" xlink:href="#DejaVuSans-36"/>
     </g>
    </g>
   </g>
   <g id="line2d_31">
    <path clip-path="url(#p753211172e)" d="M 63.198352 259.994029 
L 63.443005 272.903064 
L 63.687658 275.265321 
L 63.932311 275.313949 
L 64.176964 275.570065 
L 64.421617 276.334125 
L 65.155576 273.15376 
L 65.400229 274.017173 
L 65.644882 273.84624 
L 66.134188 272.40542 
L 66.378841 274.072496 
L 66.623494 273.794512 
L 66.868147 272.99722 
L 67.357453 274.070147 
L 67.602106 274.023515 
L 67.846759 273.103095 
L 68.091412 272.811071 
L 68.580719 274.892967 
L 68.825372 274.176697 
L 69.070025 274.475531 
L 69.559331 274.039991 
L 69.803984 275.101746 
L 70.048637 275.349509 
L 70.537943 273.926225 
L 70.782596 275.439253 
L 71.027249 274.621975 
L 71.271902 274.524648 
L 72.005861 271.973778 
L 72.250514 273.156297 
L 72.495167 272.906056 
L 72.73982 272.972413 
L 72.984473 273.714282 
L 73.229126 272.876765 
L 73.473779 274.960938 
L 73.718432 274.920931 
L 74.207738 273.381229 
L 74.452391 273.874109 
L 74.697044 273.495816 
L 74.941697 273.614512 
L 75.18635 273.372955 
L 75.431003 274.512498 
L 75.675656 273.721323 
L 75.920309 274.518047 
L 76.409615 274.28895 
L 76.654268 275.154259 
L 76.898921 275.38711 
L 77.143574 274.094744 
L 77.388227 273.698216 
L 77.877533 275.576357 
L 78.122186 274.644095 
L 78.366839 274.370853 
L 78.611492 275.50809 
L 78.856145 275.194965 
L 79.100798 275.254272 
L 79.590104 273.784855 
L 79.834757 274.49045 
L 80.07941 272.583352 
L 80.324063 272.923093 
L 80.568716 272.31236 
L 80.813369 272.623863 
L 81.058022 273.362785 
L 81.302675 272.801436 
L 81.547328 272.522379 
L 81.791981 272.501744 
L 82.036634 272.911692 
L 82.52594 271.453655 
L 82.770593 271.631197 
L 83.015246 272.453831 
L 83.504552 272.02074 
L 83.749205 272.372886 
L 83.993858 271.097955 
L 84.727817 270.528369 
L 85.217123 271.63305 
L 85.461776 270.803921 
L 85.706429 270.471036 
L 85.951082 270.450308 
L 86.195735 269.884467 
L 86.440388 270.430819 
L 86.685041 271.499535 
L 87.174347 270.158261 
L 87.419 270.058181 
L 87.663653 270.087106 
L 87.908306 270.775605 
L 88.152959 271.122286 
L 88.397612 270.536383 
L 88.642265 270.976204 
L 88.886918 270.647128 
L 89.131571 271.191274 
L 89.376224 270.837493 
L 89.620877 269.822579 
L 89.86553 270.286096 
L 90.110183 270.994012 
L 90.354836 270.730978 
L 90.844143 271.147692 
L 91.088796 270.994259 
L 91.333449 271.622144 
L 91.822755 270.716701 
L 92.067408 270.76976 
L 92.312061 270.480217 
L 92.556714 270.908118 
L 93.04602 269.566634 
L 93.290673 269.192853 
L 93.535326 269.609511 
L 93.779979 268.427336 
L 94.269285 268.796038 
L 94.513938 268.863124 
L 94.758591 267.879918 
L 95.003244 268.716196 
L 95.49255 267.578404 
L 95.737203 267.118995 
L 96.471162 268.449745 
L 96.715815 267.60433 
L 96.960468 267.882139 
L 97.205121 268.934833 
L 97.449774 267.302086 
L 97.694427 267.761295 
L 97.93908 270.088022 
L 98.183733 268.881811 
L 98.428386 270.467265 
L 98.673039 270.51035 
L 98.917692 269.798687 
L 99.162345 270.433564 
L 99.406998 270.60178 
L 100.140957 268.205226 
L 100.38561 268.132958 
L 100.630263 267.859077 
L 100.874916 267.360443 
L 101.119569 267.505026 
L 101.364222 267.854455 
L 101.853528 269.950889 
L 102.098181 269.908076 
L 102.342834 270.195776 
L 102.587487 269.439477 
L 102.83214 269.358995 
L 103.810752 267.992027 
L 104.055405 268.552909 
L 104.300058 263.975796 
L 104.544711 264.005289 
L 104.789364 266.486776 
L 105.034017 265.249445 
L 105.27867 266.381738 
L 105.523323 265.79411 
L 105.767976 266.853717 
L 106.501935 264.068871 
L 106.746588 264.943865 
L 106.991241 262.849405 
L 107.235894 262.918372 
L 107.7252 261.664408 
L 108.214506 259.341969 
L 108.459159 260.414451 
L 108.703812 259.119938 
L 108.948465 259.599652 
L 109.193118 257.254547 
L 109.437771 257.928438 
L 109.682424 258.178599 
L 109.927077 257.125992 
L 110.17173 256.738061 
L 110.416383 254.321151 
L 110.661036 256.85894 
L 110.905689 256.277693 
L 111.150342 245.997972 
L 111.394995 242.365061 
L 111.639648 235.49749 
L 111.884301 237.437123 
L 112.128954 237.816698 
L 112.373607 231.147476 
L 112.61826 233.58515 
L 112.862913 233.324879 
L 113.107566 234.477108 
L 113.35222 234.28886 
L 113.841526 228.211459 
L 114.086179 219.848533 
L 114.330832 223.650007 
L 114.575485 222.548416 
L 115.064791 231.142372 
L 115.309444 229.590184 
L 115.554097 229.702481 
L 115.79875 228.520563 
L 116.043403 225.07701 
L 116.288056 226.080201 
L 116.532709 229.766325 
L 116.777362 227.259014 
L 117.022015 227.353847 
L 117.511321 224.232178 
L 117.755974 224.216704 
L 118.000627 223.082396 
L 118.24528 225.617344 
L 118.489933 226.483126 
L 118.979239 224.348382 
L 119.468545 220.143556 
L 119.713198 221.626805 
L 119.957851 214.963028 
L 120.202504 214.054717 
L 120.447157 216.009757 
L 120.69181 212.644853 
L 120.936463 211.697837 
L 121.181116 210.067806 
L 121.425769 211.53754 
L 121.915075 206.665771 
L 122.159728 207.787762 
L 122.404381 219.857144 
L 122.649034 212.382711 
L 122.893687 213.450589 
L 123.13834 212.82468 
L 123.382993 210.448348 
L 123.627646 210.330422 
L 123.872299 211.586712 
L 124.116952 210.159632 
L 124.606258 203.20276 
L 124.850911 205.085175 
L 125.095564 203.099192 
L 125.340217 202.422728 
L 125.58487 200.966736 
L 125.829523 196.108354 
L 126.074176 198.168787 
L 126.318829 203.374948 
L 126.563482 187.401839 
L 127.052788 195.484862 
L 127.297441 195.739077 
L 127.542094 199.795774 
L 127.786747 199.42664 
L 128.520706 193.035626 
L 128.765359 194.690507 
L 129.010012 187.989264 
L 129.499318 182.126113 
L 129.743971 181.720314 
L 129.988624 181.610434 
L 130.233277 182.144394 
L 130.47793 180.080321 
L 130.722583 179.752458 
L 130.967236 179.178287 
L 131.211889 179.615208 
L 131.456542 181.434051 
L 131.701195 186.000454 
L 131.945848 181.355859 
L 132.190501 183.866353 
L 132.435154 182.454161 
L 132.679807 182.372627 
L 132.92446 180.72083 
L 133.169113 182.104367 
L 133.413766 182.236086 
L 133.658419 173.281463 
L 133.903072 170.048999 
L 134.147725 172.510325 
L 134.637031 169.134842 
L 134.881684 166.489031 
L 135.37099 163.907511 
L 135.615643 164.422213 
L 136.10495 177.477148 
L 136.349603 171.254251 
L 136.594256 169.803605 
L 137.083562 180.697871 
L 137.572868 173.629324 
L 137.817521 172.970257 
L 138.062174 168.76723 
L 138.55148 170.992797 
L 138.796133 169.715131 
L 139.040786 177.241368 
L 139.285439 178.220927 
L 139.530092 183.193055 
L 139.774745 176.869232 
L 140.019398 179.598942 
L 140.264051 183.782988 
L 140.508704 183.979945 
L 140.753357 186.047924 
L 140.99801 186.206859 
L 141.242663 183.77503 
L 141.487316 175.678005 
L 141.731969 174.720706 
L 141.976622 194.398291 
L 142.221275 199.692391 
L 142.465928 200.435645 
L 142.710581 195.351333 
L 142.955234 200.464434 
L 143.199887 199.460888 
L 143.689193 202.277263 
L 143.933846 210.980066 
L 144.178499 208.031906 
L 144.423152 211.737575 
L 144.667805 210.811693 
L 144.912458 212.171407 
L 145.157111 211.6091 
L 145.401764 212.98981 
L 145.646417 208.285442 
L 145.89107 207.521219 
L 146.135723 209.912573 
L 146.380376 195.35379 
L 146.625029 200.386355 
L 146.869682 198.467655 
L 147.114335 201.063518 
L 147.358988 198.624451 
L 147.603641 197.72835 
L 147.848294 199.839903 
L 148.092947 194.452589 
L 148.3376 193.727605 
L 148.582253 193.726701 
L 148.826906 190.909432 
L 149.071559 193.96828 
L 149.316212 198.734815 
L 149.560865 196.580655 
L 149.805518 196.283688 
L 150.050171 190.598297 
L 150.294824 188.532097 
L 150.539477 191.997904 
L 150.78413 190.693557 
L 151.028783 192.496546 
L 151.273436 192.856591 
L 151.518089 192.892556 
L 151.762742 194.722381 
L 152.252048 191.494173 
L 152.986007 199.468271 
L 153.23066 185.994901 
L 153.719966 179.109009 
L 153.964619 179.701533 
L 154.209272 174.768567 
L 154.698578 172.098677 
L 155.187884 179.206181 
L 155.432537 173.412215 
L 155.67719 176.133299 
L 155.921843 170.284943 
L 156.411149 174.250205 
L 156.655802 172.881268 
L 156.900455 176.663886 
L 157.389761 168.228983 
L 157.634414 161.148149 
L 157.879067 161.261721 
L 158.12372 162.615215 
L 158.368374 159.140852 
L 158.613027 160.046814 
L 158.85768 155.637989 
L 159.102333 163.210792 
L 159.346986 149.946039 
L 159.591639 152.648677 
L 159.836292 148.008432 
L 160.080945 124.170232 
L 160.325598 124.371969 
L 160.570251 124.076607 
L 160.814904 130.221323 
L 161.059557 127.252532 
L 161.30421 121.925582 
L 161.548863 124.292954 
L 161.793516 123.796441 
L 162.282822 133.625173 
L 162.527475 135.249743 
L 162.772128 130.755796 
L 163.261434 138.566394 
L 163.75074 131.774302 
L 163.995393 135.883343 
L 164.240046 135.240757 
L 164.484699 139.919189 
L 164.729352 146.748913 
L 164.974005 144.516004 
L 165.463311 154.506385 
L 165.707964 149.690631 
L 165.952617 153.357117 
L 166.19727 147.6901 
L 166.441923 139.422326 
L 166.686576 142.303588 
L 166.931229 150.543519 
L 167.175882 153.886851 
L 167.420535 148.611453 
L 167.665188 147.837344 
L 167.909841 155.819811 
L 168.154494 157.174138 
L 168.399147 159.885649 
L 168.6438 164.061758 
L 168.888453 159.921871 
L 169.133106 160.763387 
L 169.377759 156.689767 
L 169.622412 146.830426 
L 169.867065 154.033067 
L 170.111718 154.127556 
L 170.356371 159.518232 
L 170.601024 160.650391 
L 170.845677 154.984526 
L 171.09033 154.765484 
L 171.334983 153.819156 
L 171.579636 151.966352 
L 171.824289 148.246741 
L 172.313595 158.266003 
L 172.558248 173.961094 
L 172.802901 169.973778 
L 173.047554 168.99789 
L 173.292207 165.714624 
L 173.53686 165.42433 
L 173.781513 166.823228 
L 174.270819 161.727739 
L 174.515472 161.968999 
L 175.494084 150.596459 
L 175.738737 152.501731 
L 175.98339 151.929904 
L 176.228043 153.180457 
L 176.472696 155.860187 
L 176.717349 155.395095 
L 176.962002 156.612623 
L 177.206655 153.819496 
L 177.451308 153.031033 
L 177.940614 157.242038 
L 178.185267 156.194764 
L 178.42992 156.159693 
L 178.674573 154.551707 
L 178.919226 142.52449 
L 179.163879 137.715635 
L 179.408532 141.046896 
L 179.653185 139.173909 
L 179.897838 138.948247 
L 180.142491 133.947391 
L 180.387144 136.410548 
L 180.631798 134.344522 
L 180.876451 134.830476 
L 181.365757 131.253657 
L 181.61041 132.327838 
L 181.855063 138.767361 
L 182.099716 139.760511 
L 182.589022 146.922324 
L 182.833675 143.266027 
L 183.078328 146.619898 
L 183.322981 147.008423 
L 183.567634 141.493986 
L 183.812287 146.117421 
L 184.05694 146.959276 
L 184.301593 148.750472 
L 184.546246 145.605289 
L 184.790899 145.441892 
L 185.035552 145.764327 
L 185.280205 143.715975 
L 185.524858 142.912676 
L 185.769511 142.569257 
L 186.014164 141.438989 
L 186.258817 141.494171 
L 186.50347 139.611386 
L 186.748123 142.629271 
L 186.992776 135.269166 
L 187.237429 132.744041 
L 187.482082 132.765119 
L 187.726735 125.477972 
L 187.971388 123.131194 
L 188.216041 126.739362 
L 188.460694 117.358183 
L 188.705347 119.701383 
L 188.95 117.398261 
L 189.194653 118.079238 
L 189.439306 117.224315 
L 189.683959 118.108685 
L 189.928612 121.666617 
L 190.173265 121.465013 
L 190.417918 122.236388 
L 190.662571 120.943063 
L 190.907224 116.285431 
L 191.151877 117.185902 
L 191.39653 116.651418 
L 191.641183 115.762771 
L 191.885836 111.188215 
L 192.130489 102.214592 
L 192.375142 104.435769 
L 192.619795 100.865632 
L 192.864448 108.299509 
L 193.109101 103.391353 
L 193.353754 106.110637 
L 193.598407 105.123594 
L 193.84306 104.733362 
L 194.087713 106.148515 
L 194.332366 123.385831 
L 194.577019 117.001058 
L 194.821672 117.211298 
L 195.066325 115.531001 
L 195.555631 125.733277 
L 196.044937 123.725847 
L 196.28959 126.621215 
L 196.534243 127.293844 
L 196.778896 129.746154 
L 197.268202 132.420671 
L 197.512855 123.587445 
L 197.757508 121.94082 
L 198.002161 118.007842 
L 198.246814 119.750303 
L 198.491467 119.546705 
L 198.73612 120.347382 
L 198.980773 135.255768 
L 199.225426 141.502982 
L 199.470079 139.704281 
L 199.714732 139.964901 
L 199.959385 141.902344 
L 200.204038 139.059299 
L 200.448691 138.231447 
L 200.693344 135.137868 
L 200.937997 137.63042 
L 201.18265 134.731566 
L 201.427303 135.502509 
L 201.671956 143.894105 
L 201.916609 129.129303 
L 202.161262 134.113214 
L 202.405915 133.105196 
L 202.650568 130.726134 
L 202.895221 129.800102 
L 203.384528 137.697447 
L 203.629181 130.824715 
L 203.873834 132.497445 
L 204.118487 131.253122 
L 204.36314 124.7523 
L 204.607793 126.653243 
L 205.097099 120.211108 
L 205.341752 123.0409 
L 205.586405 119.660646 
L 205.831058 127.575172 
L 206.075711 125.665233 
L 206.320364 129.168178 
L 206.80967 126.350878 
L 207.054323 126.182742 
L 207.298976 129.055254 
L 207.543629 137.172802 
L 207.788282 137.068422 
L 208.032935 139.66193 
L 208.277588 139.71522 
L 208.522241 142.860075 
L 208.766894 148.859068 
L 209.011547 148.467736 
L 209.2562 152.258651 
L 209.500853 152.207726 
L 209.990159 155.968443 
L 210.234812 160.525818 
L 210.479465 155.676381 
L 210.724118 146.240421 
L 210.968771 146.533974 
L 211.213424 143.872822 
L 211.458077 145.16552 
L 211.70273 144.107153 
L 211.947383 140.180221 
L 212.436689 143.906762 
L 212.681342 143.012192 
L 212.925995 146.490184 
L 213.170648 152.28454 
L 213.415301 151.25088 
L 213.659954 151.115469 
L 213.904607 151.400273 
L 214.393913 157.833246 
L 214.638566 155.466645 
L 214.883219 165.630416 
L 215.372525 162.995031 
L 215.617178 164.647691 
L 216.106484 157.928835 
L 216.351137 158.486525 
L 216.59579 154.324039 
L 216.840443 155.22265 
L 217.085096 159.074001 
L 217.329749 155.617508 
L 217.574402 156.44572 
L 218.063708 146.668417 
L 218.308361 146.462115 
L 218.553014 144.142532 
L 218.797667 147.151421 
L 219.286973 147.917109 
L 219.531626 151.152617 
L 219.776279 159.371584 
L 220.020932 155.586098 
L 220.265585 155.692071 
L 220.510238 155.639748 
L 220.999544 147.649939 
L 221.244197 153.438065 
L 221.48885 156.156506 
L 221.733503 156.087176 
L 221.978156 153.418612 
L 222.222809 156.279177 
L 222.467462 160.506694 
L 222.956768 157.28117 
L 223.201421 157.969859 
L 223.446074 162.833516 
L 223.690727 165.031147 
L 223.93538 165.331733 
L 224.180033 162.484534 
L 224.669339 166.650557 
L 224.913992 161.728161 
L 225.158645 162.368927 
L 225.403298 158.800795 
L 225.647952 161.392319 
L 226.381911 157.422081 
L 226.626564 163.199472 
L 226.871217 165.257273 
L 227.11587 169.3198 
L 227.360523 165.363205 
L 227.849829 167.000464 
L 228.094482 164.343795 
L 228.339135 155.742267 
L 228.583788 157.047971 
L 228.828441 153.062197 
L 229.317747 151.573704 
L 229.5624 152.400744 
L 229.807053 154.108833 
L 230.051706 153.050321 
L 230.296359 154.417315 
L 230.541012 154.537405 
L 230.785665 155.536437 
L 231.030318 152.661056 
L 231.274971 145.904569 
L 231.519624 147.060201 
L 231.764277 146.898707 
L 232.00893 137.133279 
L 232.253583 139.241224 
L 232.498236 137.611029 
L 232.742889 141.867664 
L 232.987542 141.884156 
L 233.232195 138.042285 
L 233.476848 136.658018 
L 233.721501 139.31773 
L 233.966154 136.121323 
L 234.210807 135.246566 
L 234.700113 129.326969 
L 234.944766 130.099135 
L 235.189419 129.818701 
L 235.434072 126.490802 
L 235.678725 126.880437 
L 235.923378 127.499951 
L 236.168031 129.623256 
L 236.657337 126.896014 
L 236.90199 126.921945 
L 237.146643 127.29624 
L 237.391296 124.706968 
L 237.635949 124.929587 
L 238.125255 127.02508 
L 238.369908 125.851188 
L 238.614561 127.957723 
L 238.859214 125.921134 
L 239.103867 120.726592 
L 239.34852 121.718416 
L 239.593173 125.328188 
L 239.837826 123.711627 
L 240.327132 125.680522 
L 240.571785 123.168835 
L 240.816438 118.139633 
L 241.305744 116.745311 
L 241.550397 118.84685 
L 241.79505 113.603243 
L 242.039703 115.397297 
L 242.284356 112.314226 
L 242.529009 114.191192 
L 242.773662 117.50443 
L 243.018315 112.479247 
L 243.262968 111.950233 
L 243.507621 104.495649 
L 243.752274 106.180861 
L 244.24158 122.268528 
L 244.486233 118.392337 
L 244.730886 118.389129 
L 244.975539 117.304533 
L 245.220192 114.852059 
L 245.464845 116.248355 
L 245.709498 113.933018 
L 246.198804 103.818969 
L 246.443457 114.791438 
L 246.68811 113.230511 
L 246.932763 113.430613 
L 247.177416 114.51741 
L 247.422069 123.051727 
L 247.666722 115.216915 
L 247.911375 116.090963 
L 248.156029 114.503735 
L 248.400682 114.360305 
L 248.645335 118.593426 
L 248.889988 114.41998 
L 249.134641 112.57351 
L 249.379294 130.087722 
L 249.623947 130.253083 
L 249.8686 131.490969 
L 250.113253 134.144512 
L 250.357906 133.366516 
L 250.602559 129.552971 
L 250.847212 129.274337 
L 251.091865 121.102367 
L 251.336518 118.782548 
L 251.581171 121.924276 
L 252.31513 148.327668 
L 252.559783 142.568897 
L 252.804436 141.883868 
L 253.049089 128.892299 
L 253.293742 126.575081 
L 253.538395 125.510863 
L 253.783048 133.054271 
L 254.027701 125.779637 
L 254.272354 127.855492 
L 254.517007 131.355775 
L 254.76166 126.103902 
L 255.006313 125.160339 
L 255.250966 126.690401 
L 255.495619 125.532054 
L 255.740272 123.003454 
L 255.984925 123.153721 
L 256.229578 117.265647 
L 256.474231 117.313766 
L 256.718884 118.756761 
L 256.963537 115.557137 
L 257.20819 119.052525 
L 257.697496 117.182304 
L 257.942149 120.07319 
L 258.186802 125.805814 
L 258.431455 126.746189 
L 258.676108 126.301064 
L 258.920761 131.96586 
L 259.165414 127.129327 
L 259.410067 127.612238 
L 260.633332 147.810632 
L 260.877985 145.935517 
L 261.122638 147.529911 
L 261.367291 144.770579 
L 261.611944 139.819086 
L 261.856597 139.915611 
L 262.10125 150.97021 
L 262.345903 151.471638 
L 262.590556 150.046594 
L 262.835209 152.166804 
L 263.079862 148.386058 
L 263.324515 151.993578 
L 263.569168 150.165348 
L 263.813821 151.132938 
L 264.058474 154.30653 
L 264.303127 149.233661 
L 264.54778 153.185279 
L 264.792433 135.620481 
L 265.037086 138.087863 
L 265.281739 137.326473 
L 265.771045 147.625901 
L 266.015698 146.193187 
L 266.505004 153.853693 
L 266.749657 149.301664 
L 266.99431 149.579938 
L 267.238963 144.920322 
L 267.483616 143.499113 
L 267.972922 147.171162 
L 268.217575 146.210943 
L 268.462228 138.643106 
L 268.706881 137.797724 
L 268.951534 138.303872 
L 269.196187 133.496765 
L 269.44084 136.902476 
L 269.685493 135.889584 
L 269.930146 138.556565 
L 270.174799 137.548228 
L 270.419452 141.211013 
L 270.664106 142.371365 
L 270.908759 140.149509 
L 271.153412 146.832544 
L 271.398065 145.900343 
L 271.642718 144.224559 
L 271.887371 135.808256 
L 272.132024 136.594477 
L 272.376677 138.235591 
L 272.62133 136.338997 
L 272.865983 138.087226 
L 273.110636 138.63304 
L 273.355289 138.082908 
L 273.599942 139.443732 
L 273.844595 133.784683 
L 274.333901 131.335294 
L 274.578554 143.901159 
L 274.823207 142.382294 
L 275.312513 148.221602 
L 275.801819 153.327897 
L 276.046472 151.848216 
L 276.291125 157.859835 
L 276.535778 154.914836 
L 276.780431 156.590949 
L 277.025084 155.497408 
L 277.269737 160.673237 
L 277.759043 156.775434 
L 278.248349 163.655198 
L 278.493002 166.852016 
L 278.737655 165.889022 
L 278.982308 164.377498 
L 279.226961 161.656261 
L 279.716267 176.229525 
L 279.96092 175.756752 
L 280.450226 193.426763 
L 280.694879 192.338753 
L 280.939532 195.407122 
L 281.184185 189.788336 
L 281.428838 191.482051 
L 281.673491 187.382654 
L 281.918144 180.373967 
L 282.40745 181.974159 
L 282.652103 173.502232 
L 282.896756 174.442339 
L 283.141409 174.161423 
L 283.386062 167.809582 
L 283.630715 165.301597 
L 283.875368 165.138416 
L 284.120021 163.614298 
L 284.364674 167.820059 
L 284.609327 167.201707 
L 285.098633 157.537441 
L 285.343286 155.251593 
L 285.587939 156.82495 
L 285.832592 152.841048 
L 286.077245 155.151418 
L 286.321898 153.42877 
L 286.566551 148.207095 
L 286.811204 147.13389 
L 287.30051 141.234712 
L 287.789816 132.899264 
L 288.034469 136.041681 
L 288.279122 143.202435 
L 288.768428 137.977273 
L 289.257734 140.165168 
L 289.502387 138.140722 
L 289.991693 126.357037 
L 290.236346 123.447171 
L 290.480999 115.080518 
L 290.970305 125.021434 
L 291.214958 124.933854 
L 291.459611 127.244461 
L 291.704264 122.189143 
L 291.948917 124.129013 
L 292.19357 122.65729 
L 292.438223 122.608369 
L 292.682876 127.55429 
L 292.92753 125.325063 
L 293.172183 126.56811 
L 293.416836 123.017293 
L 293.661489 123.818505 
L 293.906142 123.092483 
L 294.395448 126.468676 
L 294.640101 131.392131 
L 294.884754 131.193972 
L 295.618713 149.863312 
L 295.863366 148.545774 
L 296.108019 152.526705 
L 296.352672 153.237006 
L 296.597325 151.896457 
L 296.841978 153.973495 
L 297.331284 152.178659 
L 297.575937 155.411586 
L 297.82059 150.275855 
L 298.065243 148.903094 
L 298.309896 145.060164 
L 298.554549 147.849548 
L 299.043855 145.508343 
L 299.288508 141.991733 
L 299.533161 143.422874 
L 299.777814 143.069482 
L 300.022467 146.112969 
L 300.26712 146.205813 
L 300.511773 145.434479 
L 300.756426 145.164225 
L 301.001079 136.877944 
L 301.245732 134.512915 
L 301.735038 146.01445 
L 301.979691 145.959627 
L 302.224344 148.414065 
L 302.468997 146.186915 
L 302.958303 148.383868 
L 303.202956 144.712375 
L 303.447609 145.607438 
L 303.692262 162.324129 
L 303.936915 161.2916 
L 304.181568 163.723222 
L 305.16018 150.740763 
L 305.404833 148.554534 
L 305.649486 150.357831 
L 306.383445 147.17437 
L 306.628098 141.50435 
L 306.872751 142.413993 
L 307.117404 143.791607 
L 307.362057 144.229227 
L 307.60671 145.188212 
L 307.851363 141.494819 
L 308.096016 141.916214 
L 308.340669 139.720413 
L 308.585322 145.420784 
L 308.829975 143.626709 
L 309.074628 138.854395 
L 309.319281 139.906933 
L 309.563934 139.734108 
L 309.808587 138.562138 
L 310.05324 135.739471 
L 310.542546 141.242094 
L 310.787199 141.669268 
L 311.031852 138.98851 
L 311.276505 139.123889 
L 311.521158 141.501985 
L 311.765811 139.036289 
L 312.010464 141.773206 
L 312.255117 142.263253 
L 312.49977 141.622517 
L 312.744423 141.527453 
L 312.989076 143.048559 
L 313.233729 143.615955 
L 313.723035 142.074265 
L 313.967688 143.689438 
L 314.212341 141.801162 
L 314.701647 144.749574 
L 314.9463 145.624187 
L 315.435607 151.17752 
L 315.68026 150.936444 
L 315.924913 158.254292 
L 316.169566 160.253908 
L 316.414219 156.558788 
L 316.658872 157.49907 
L 316.903525 160.876352 
L 317.148178 162.231296 
L 317.392831 159.488806 
L 317.637484 161.887393 
L 317.882137 161.066461 
L 318.616096 154.031617 
L 318.860749 155.795598 
L 319.105402 155.285553 
L 319.839361 152.591295 
L 320.084014 154.794849 
L 320.328667 154.057219 
L 320.57332 157.926244 
L 320.817973 155.87962 
L 321.062626 148.658348 
L 321.307279 151.787615 
L 321.551932 152.94626 
L 321.796585 158.301989 
L 322.041238 160.788279 
L 322.285891 157.109178 
L 322.530544 159.092158 
L 322.775197 157.267506 
L 323.509156 162.87637 
L 323.998462 156.443849 
L 324.243115 160.034528 
L 324.732421 156.759384 
L 325.221727 157.75931 
L 325.46638 154.706035 
L 325.711033 158.557911 
L 325.955686 160.245231 
L 326.200339 165.064347 
L 326.444992 166.606911 
L 326.689645 166.909666 
L 327.178951 163.406669 
L 327.423604 162.082787 
L 327.668257 166.711198 
L 327.91291 168.821559 
L 328.157563 166.521994 
L 328.402216 171.367267 
L 328.646869 169.082251 
L 328.891522 169.610916 
L 329.136175 166.552037 
L 329.380828 168.165802 
L 329.625481 168.94753 
L 329.870134 164.95789 
L 330.35944 160.857845 
L 330.604093 161.44418 
L 330.848746 165.577476 
L 331.093399 165.979418 
L 331.338052 170.961448 
L 331.582705 171.033903 
L 331.827358 167.477257 
L 332.072011 169.043931 
L 332.316664 163.799214 
L 332.561317 164.843959 
L 333.050623 163.811439 
L 333.295276 159.766916 
L 333.539929 159.558022 
L 333.784582 160.762812 
L 334.029235 157.500078 
L 334.273888 157.11837 
L 334.518541 153.357806 
L 334.763194 153.862442 
L 335.007847 153.381958 
L 335.2525 150.345133 
L 335.497153 145.618254 
L 335.741806 145.731045 
L 335.986459 149.44056 
L 336.231112 149.971085 
L 336.475765 147.660046 
L 336.720418 141.571808 
L 336.965071 142.011423 
L 337.454377 138.081335 
L 337.69903 139.349521 
L 337.943684 139.592344 
L 338.188337 139.64514 
L 338.43299 133.948923 
L 338.677643 135.227627 
L 338.922296 133.01956 
L 339.166949 128.76202 
L 339.411602 128.909624 
L 339.900908 122.518826 
L 340.145561 122.483169 
L 340.390214 123.820222 
L 340.634867 123.913457 
L 340.87952 124.781438 
L 341.124173 123.857905 
L 341.368826 125.618883 
L 341.613479 124.148867 
L 341.858132 124.649308 
L 342.102785 120.306728 
L 342.347438 120.437511 
L 342.592091 117.257319 
L 342.836744 111.926153 
L 343.081397 112.938593 
L 343.32605 104.582447 
L 343.570703 104.145146 
L 343.815356 105.937062 
L 344.060009 112.354489 
L 344.304662 110.812954 
L 344.549315 105.79649 
L 344.793968 109.128975 
L 345.038621 122.07405 
L 345.283274 120.175698 
L 345.527927 128.852746 
L 345.77258 124.48914 
L 346.017233 124.227203 
L 346.261886 124.488749 
L 346.506539 123.513108 
L 346.995845 125.420549 
L 347.485151 128.305327 
L 347.729804 129.205634 
L 347.974457 127.585001 
L 348.21911 119.765253 
L 348.463763 121.79557 
L 348.708416 116.083642 
L 348.953069 117.408296 
L 349.197722 117.804347 
L 349.442375 124.490075 
L 349.687028 121.807785 
L 349.931681 122.19339 
L 350.66564 106.087956 
L 350.910293 107.598811 
L 351.154946 106.376707 
L 351.399599 106.453327 
L 351.644252 91.9946 
L 351.888905 90.717284 
L 352.133558 94.967801 
L 352.622864 90.398325 
L 352.867517 82.852028 
L 353.11217 86.383114 
L 353.356823 93.714091 
L 353.601476 88.937583 
L 353.846129 90.950863 
L 354.090782 92.024931 
L 354.335435 87.618584 
L 354.580088 89.942084 
L 355.069394 86.02455 
L 355.314047 82.993175 
L 355.5587 84.990437 
L 355.803353 85.857719 
L 356.048006 82.618983 
L 356.292659 76.14188 
L 356.537312 79.249916 
L 356.781965 84.580711 
L 357.026618 95.437428 
L 357.271271 85.505961 
L 357.515924 86.598948 
L 357.760577 77.617942 
L 358.00523 76.354732 
L 358.249883 77.057651 
L 358.494536 75.21044 
L 358.739189 81.968809 
L 358.983842 79.812469 
L 359.228495 87.367937 
L 359.473148 82.456388 
L 359.962454 84.883446 
L 360.207107 88.957508 
L 360.941067 75.375544 
L 361.430373 64.89672 
L 361.675026 65.791825 
L 361.919679 66.247983 
L 362.898291 45.997676 
L 363.142944 53.81358 
L 363.387597 53.1369 
L 363.63225 40.492585 
L 363.876903 39.059624 
L 364.121556 44.1999 
L 364.366209 44.198933 
L 364.610862 45.690767 
L 365.100168 41.354973 
L 365.344821 37.44186 
L 365.589474 35.873448 
L 365.834127 39.671571 
L 366.07878 50.013627 
L 366.323433 43.492786 
L 366.568086 51.652366 
L 366.812739 49.478053 
L 367.057392 54.648146 
L 367.546698 86.08114 
L 367.791351 80.304633 
L 368.036004 81.091245 
L 368.280657 73.054203 
L 368.52531 71.85402 
L 368.769963 75.892755 
L 369.014616 73.035552 
L 369.259269 78.983681 
L 369.503922 72.944518 
L 369.748575 74.284244 
L 369.993228 71.932798 
L 370.237881 72.68949 
L 370.482534 63.417266 
L 370.727187 65.903628 
L 370.97184 63.236493 
L 371.216493 69.329348 
L 371.461146 67.837616 
L 371.705799 75.277498 
L 371.950452 78.286191 
L 372.195105 75.408322 
L 372.439758 56.823816 
L 372.684411 55.783204 
L 372.929064 55.915612 
L 373.173717 48.667752 
L 373.41837 50.397258 
L 373.663023 54.928815 
L 373.907676 53.532211 
L 374.152329 48.381263 
L 374.396982 51.165116 
L 374.641635 50.062959 
L 374.886288 57.247915 
L 375.130941 59.909827 
L 375.375594 67.349482 
L 375.620247 63.891643 
L 375.8649 57.228257 
L 376.109553 56.669384 
L 376.598859 62.296437 
L 376.843512 60.814268 
L 377.088165 56.06918 
L 377.332818 54.197581 
L 377.577471 55.281211 
L 378.066777 62.058703 
L 378.31143 57.960828 
L 378.556083 62.861848 
L 378.800736 48.569911 
L 379.045389 50.751339 
L 379.290042 48.838881 
L 379.534695 40.860999 
L 379.779348 40.231307 
L 380.024001 35.325043 
L 380.268654 42.312755 
L 380.513307 42.459969 
L 380.75796 47.082026 
L 381.002613 56.6174 
L 381.247266 60.583958 
L 381.491919 61.171084 
L 381.981225 65.762625 
L 382.225878 63.736554 
L 382.470531 64.236903 
L 382.715184 60.839149 
L 382.959838 54.41325 
L 383.204491 55.537122 
L 383.449144 54.196141 
L 383.693797 62.628145 
L 383.93845 54.367126 
L 384.183103 56.321904 
L 384.427756 54.96328 
L 384.672409 55.04138 
L 384.917062 58.563192 
L 385.406368 51.79886 
L 385.651021 58.153137 
L 385.895674 61.296438 
L 386.140327 66.200338 
L 386.38498 66.072824 
L 386.629633 74.336927 
L 386.874286 73.620025 
L 387.118939 78.282284 
L 387.363592 77.627669 
L 387.608245 70.848675 
L 387.852898 77.673731 
L 387.852898 77.673731 
" style="fill:none;stroke:#1f77b4;stroke-linecap:square;stroke-width:1.5;"/>
   </g>
   <g id="line2d_32">
    <path clip-path="url(#p753211172e)" d="M 63.198352 273.950987 
L 63.443005 275.406442 
L 63.687658 275.359274 
L 63.932311 276.147646 
L 64.176964 276.248719 
L 64.66627 274.786526 
L 64.910923 273.452359 
L 65.155576 274.233992 
L 65.644882 273.661244 
L 65.889535 272.832443 
L 66.134188 274.011631 
L 66.378841 274.025108 
L 66.623494 273.418668 
L 67.1128 273.950987 
L 67.357453 274.220516 
L 67.846759 273.128925 
L 68.336066 274.752835 
L 68.580719 274.503521 
L 68.825372 274.692191 
L 69.314678 274.618071 
L 69.803984 275.008887 
L 70.29329 274.058799 
L 70.537943 275.392966 
L 71.027249 274.779788 
L 71.516555 273.358024 
L 71.761208 271.909308 
L 72.005861 272.717894 
L 72.495167 273.014375 
L 72.73982 273.607338 
L 72.984473 273.176092 
L 73.229126 275.197557 
L 73.473779 275.278416 
L 73.963085 274.105966 
L 74.207738 274.186825 
L 74.452391 273.755579 
L 74.697044 274.09249 
L 74.941697 274.025108 
L 75.18635 274.368757 
L 75.431003 274.126181 
L 75.675656 274.719144 
L 76.164962 274.752835 
L 76.409615 275.211034 
L 76.654268 275.419918 
L 77.143574 274.415924 
L 77.388227 274.941505 
L 77.63288 275.143651 
L 77.877533 275.069531 
L 78.122186 274.705667 
L 78.366839 275.359274 
L 78.611492 275.291892 
L 78.856145 275.386227 
L 79.345451 274.126181 
L 79.590104 274.348542 
L 79.834757 272.610082 
L 80.07941 272.84592 
L 80.324063 272.583129 
L 80.568716 272.738108 
L 80.813369 273.405192 
L 81.302675 272.535962 
L 81.547328 272.690941 
L 81.791981 273.068281 
L 82.281287 271.653255 
L 82.52594 271.59935 
L 83.015246 272.185574 
L 83.259899 272.091239 
L 83.504552 272.172098 
L 83.749205 271.444371 
L 83.993858 271.134413 
L 84.238511 271.046816 
L 84.483164 270.507758 
L 84.727817 270.99291 
L 84.97247 271.120936 
L 85.461776 270.810978 
L 85.706429 270.54145 
L 85.951082 270.063036 
L 86.195735 270.076513 
L 86.440388 271.188318 
L 86.685041 271.053554 
L 86.929694 270.655999 
L 87.419 270.514497 
L 87.663653 270.635785 
L 87.908306 270.925528 
L 88.152959 270.736858 
L 88.397612 271.201795 
L 88.642265 271.134413 
L 88.886918 271.451109 
L 89.131571 271.013125 
L 89.376224 270.00913 
L 89.86553 270.655999 
L 90.110183 270.696429 
L 90.354836 271.141151 
L 90.844143 271.242224 
L 91.088796 271.659994 
L 91.333449 271.424156 
L 91.578102 270.99291 
L 92.312061 270.575141 
L 92.801367 269.577885 
L 93.04602 268.910801 
L 93.290673 268.917539 
L 93.535326 268.210027 
L 93.779979 268.263932 
L 94.024632 268.553676 
L 94.269285 268.560414 
L 94.513938 268.028095 
L 94.758591 268.405435 
L 95.003244 268.142644 
L 95.247897 267.44187 
L 95.49255 267.232985 
L 95.737203 267.394702 
L 96.226509 268.304362 
L 96.471162 267.927022 
L 96.715815 268.028095 
L 96.960468 268.87711 
L 97.205121 267.36775 
L 97.449774 267.866378 
L 97.694427 270.143895 
L 97.93908 269.503764 
L 98.183733 270.669476 
L 98.428386 270.635785 
L 98.673039 270.184324 
L 99.162345 270.487544 
L 100.140957 268.075262 
L 100.38561 267.913545 
L 100.630263 267.489037 
L 101.119569 267.569896 
L 101.608875 270.056298 
L 102.098181 270.1978 
L 102.342834 269.611576 
L 102.587487 269.571146 
L 103.566099 268.12243 
L 103.810752 268.304362 
L 104.055405 264.234479 
L 104.300058 263.958212 
L 104.544711 266.141394 
L 104.789364 265.528216 
L 105.034017 265.959462 
L 105.27867 265.649504 
L 105.523323 266.545687 
L 106.012629 264.463578 
L 106.257282 264.355767 
L 106.501935 264.658986 
L 106.746588 263.115935 
L 106.991241 263.21027 
L 107.969853 259.463821 
L 108.214506 259.854638 
L 108.459159 258.796738 
L 108.703812 259.335795 
L 108.948465 256.815702 
L 109.437771 257.934246 
L 109.927077 257.078493 
L 110.17173 253.743076 
L 110.416383 256.431624 
L 110.661036 256.242954 
L 110.905689 247.072241 
L 111.150342 242.112914 
L 111.394995 234.673923 
L 111.639648 237.746549 
L 111.884301 236.668435 
L 112.128954 231.675416 
L 112.373607 232.180782 
L 112.61826 233.231944 
L 112.862913 234.815425 
L 113.107566 235.051263 
L 113.596873 228.420858 
L 113.841526 219.492721 
L 114.086179 223.333504 
L 114.330832 223.117881 
L 114.820138 231.446317 
L 115.064791 229.930218 
L 115.309444 229.573093 
L 115.554097 228.238926 
L 115.79875 225.078702 
L 116.043403 226.419607 
L 116.288056 230.179532 
L 116.532709 227.982873 
L 116.777362 227.679654 
L 117.266668 224.970891 
L 117.755974 223.299813 
L 118.000627 226.015314 
L 118.24528 226.756518 
L 118.489933 225.449304 
L 118.734586 224.836126 
L 119.223892 220.220448 
L 119.468545 221.493971 
L 119.713198 214.877042 
L 119.957851 214.445796 
L 120.202504 216.184256 
L 120.447157 212.916221 
L 120.936463 210.65218 
L 121.181116 211.44729 
L 121.670422 206.306031 
L 121.915075 208.08492 
L 122.159728 220.355212 
L 122.404381 212.80841 
L 122.649034 213.630472 
L 122.893687 213.192488 
L 123.13834 211.339478 
L 123.382993 211.130594 
L 123.627646 211.831368 
L 123.872299 210.234411 
L 124.361605 203.125592 
L 124.606258 205.066199 
L 124.850911 203.354692 
L 125.095564 202.498938 
L 125.340217 200.848075 
L 125.58487 196.346946 
L 125.829523 198.051715 
L 126.074176 203.388383 
L 126.318829 190.417316 
L 126.563482 190.74075 
L 126.808135 194.527628 
L 127.052788 195.84158 
L 127.297441 199.931678 
L 127.542094 199.722793 
L 128.0314 196.198706 
L 128.276053 193.04522 
L 128.520706 194.204194 
L 128.765359 187.978081 
L 129.010012 184.784167 
L 129.499318 181.300509 
L 129.988624 181.940639 
L 130.233277 179.959604 
L 130.47793 180.000033 
L 130.722583 178.868013 
L 130.967236 179.33295 
L 131.211889 181.327462 
L 131.456542 185.552323 
L 131.701195 181.731755 
L 131.945848 183.652146 
L 132.190501 182.702058 
L 132.435154 182.291027 
L 132.679807 181.590252 
L 132.92446 181.82609 
L 133.169113 181.832828 
L 133.413766 173.949114 
L 133.658419 170.26331 
L 133.903072 171.799623 
L 134.147725 170.977561 
L 135.126337 163.53857 
L 135.37099 163.787884 
L 135.860297 177.055432 
L 136.10495 171.88722 
L 136.349603 170.478933 
L 136.838909 180.107844 
L 137.817521 169.892708 
L 138.062174 170.14876 
L 138.306827 170.660865 
L 138.55148 170.256572 
L 138.796133 177.533846 
L 139.040786 178.248097 
L 139.285439 182.991801 
L 139.530092 177.163244 
L 139.774745 179.514881 
L 140.019398 184.096869 
L 140.264051 183.012016 
L 140.508704 186.54958 
L 140.753357 186.064428 
L 140.99801 184.561806 
L 141.242663 175.781909 
L 141.487316 174.697057 
L 141.731969 191.980582 
L 141.976622 199.655411 
L 142.221275 200.881766 
L 142.465928 196.33347 
L 142.710581 200.98284 
L 142.955234 200.3764 
L 143.199887 201.117604 
L 143.44454 202.56632 
L 143.689193 211.912227 
L 143.933846 208.873291 
L 144.178499 212.228923 
L 144.423152 211.56184 
L 144.912458 212.410855 
L 145.157111 212.639954 
L 145.401764 208.300543 
L 145.646417 208.071443 
L 145.89107 210.167029 
L 146.135723 196.33347 
L 146.380376 200.207945 
L 146.625029 199.176997 
L 146.869682 201.279321 
L 147.114335 198.422317 
L 147.358988 198.024762 
L 147.603641 199.736269 
L 147.848294 194.466984 
L 148.3376 194.150288 
L 148.582253 191.104614 
L 148.826906 194.123335 
L 149.071559 199.01528 
L 149.316212 197.31725 
L 149.560865 197.108365 
L 149.805518 191.812127 
L 150.050171 189.056196 
L 150.294824 192.007535 
L 150.539477 191.11809 
L 150.78413 192.472472 
L 151.273436 193.058697 
L 151.518089 194.78368 
L 152.007395 191.899724 
L 152.252048 194.426555 
L 152.496701 195.646172 
L 152.741354 199.945154 
L 152.986007 185.168245 
L 153.23066 183.241115 
L 153.475313 178.632175 
L 153.719966 179.279044 
L 153.964619 174.784653 
L 154.209272 173.517869 
L 154.453925 171.536833 
L 154.943231 179.541834 
L 155.187884 173.639157 
L 155.432537 175.761695 
L 155.67719 170.633912 
L 155.921843 171.597477 
L 156.166496 174.49491 
L 156.411149 173.403319 
L 156.655802 176.30749 
L 156.900455 173.639157 
L 157.389761 161.389079 
L 157.634414 161.348649 
L 157.879067 162.224618 
L 158.12372 159.320446 
L 158.368374 160.263797 
L 158.613027 156.577992 
L 158.85768 163.356638 
L 159.102333 152.35313 
L 159.346986 152.602444 
L 159.591639 147.17818 
L 159.836292 126.727693 
L 160.080945 123.358584 
L 160.325598 123.668542 
L 160.570251 128.877184 
L 161.059557 122.118752 
L 161.30421 123.587684 
L 161.548863 123.399014 
L 162.282822 135.884929 
L 162.527475 131.114272 
L 162.772128 133.607412 
L 163.016781 138.202875 
L 163.261434 136.174672 
L 163.506087 132.091313 
L 163.75074 134.921364 
L 163.995393 135.548018 
L 164.484699 145.480149 
L 164.729352 145.298217 
L 165.218658 154.138758 
L 165.463311 150.735958 
L 165.707964 153.377339 
L 165.952617 147.636379 
L 166.19727 138.661074 
L 166.441923 141.956062 
L 166.686576 150.837032 
L 166.931229 154.003993 
L 167.175882 148.653849 
L 167.420535 147.663332 
L 167.665188 156.247819 
L 167.909841 156.524086 
L 168.399147 163.174706 
L 168.6438 159.670833 
L 168.888453 160.337917 
L 169.133106 156.119793 
L 169.377759 146.511096 
L 169.622412 153.687297 
L 169.867065 153.774894 
L 170.111718 159.172205 
L 170.356371 160.075126 
L 170.601024 154.408286 
L 170.845677 153.754679 
L 171.09033 153.862491 
L 171.334983 151.719738 
L 171.579636 147.878954 
L 172.068942 158.161473 
L 172.313595 173.497654 
L 173.047554 165.701537 
L 173.292207 165.391579 
L 173.53686 166.759437 
L 173.781513 164.758187 
L 174.026166 161.705775 
L 174.270819 162.238094 
L 175.249431 151.281754 
L 175.494084 152.171198 
L 175.738737 152.171198 
L 176.228043 155.90417 
L 176.472696 155.742453 
L 176.717349 156.382584 
L 176.962002 154.421763 
L 177.206655 153.566009 
L 177.695961 157.521342 
L 177.940614 156.059149 
L 178.185267 156.69928 
L 178.42992 154.745197 
L 178.674573 142.488381 
L 178.919226 137.7312 
L 179.163879 140.797089 
L 179.408532 140.345628 
L 179.653185 139.132749 
L 179.897838 133.99149 
L 180.142491 137.171928 
L 180.387144 134.213851 
L 180.631798 135.083081 
L 180.876451 132.751658 
L 181.121104 132.077836 
L 181.365757 132.306936 
L 181.61041 139.240561 
L 181.855063 139.361849 
L 182.099716 143.802333 
L 182.344369 146.221353 
L 182.589022 143.532805 
L 182.833675 145.958563 
L 183.078328 146.854746 
L 183.322981 141.080094 
L 183.567634 145.877704 
L 184.05694 148.694279 
L 184.301593 145.581223 
L 184.546246 145.230835 
L 184.790899 145.877704 
L 185.035552 143.916883 
L 185.280205 143.20937 
L 185.524858 143.189156 
L 185.769511 142.346879 
L 186.014164 142.218852 
L 186.258817 139.58421 
L 186.50347 143.371088 
L 186.748123 136.653086 
L 186.992776 133.115522 
L 187.237429 133.135737 
L 187.482082 126.101038 
L 187.726735 123.769615 
L 187.971388 126.640096 
L 188.216041 119.100031 
L 189.194653 117.287451 
L 189.439306 118.682262 
L 189.683959 120.825015 
L 190.173265 122.455663 
L 190.417918 120.811538 
L 190.662571 116.923587 
L 190.907224 117.469383 
L 191.151877 116.451912 
L 191.39653 116.040881 
L 191.641183 112.105762 
L 191.885836 102.389254 
L 192.130489 104.363552 
L 192.375142 101.095517 
L 192.619795 106.924074 
L 192.864448 103.743636 
L 193.109101 106.189608 
L 193.353754 104.424196 
L 193.84306 105.704457 
L 194.087713 122.779098 
L 194.332366 118.143205 
L 194.577019 117.711959 
L 194.821672 116.067834 
L 195.066325 119.100031 
L 195.310978 125.359835 
L 195.555631 125.103782 
L 195.800284 123.938071 
L 196.044937 127.435205 
L 196.28959 127.671043 
L 196.534243 128.573964 
L 197.023549 131.956549 
L 197.268202 124.423222 
L 197.757508 118.224063 
L 198.002161 118.931576 
L 198.246814 119.126984 
L 198.491467 120.656559 
L 198.980773 142.501858 
L 199.470079 139.058629 
L 199.714732 141.315931 
L 199.959385 140.554513 
L 200.204038 138.539786 
L 200.448691 135.258275 
L 200.693344 138.115279 
L 200.937997 135.291966 
L 201.18265 135.325657 
L 201.427303 144.469417 
L 201.671956 130.25178 
L 201.916609 133.398527 
L 202.161262 133.021187 
L 202.405915 130.972769 
L 202.650568 130.373068 
L 202.895221 132.839255 
L 203.139875 138.202875 
L 203.384528 131.296203 
L 203.629181 131.983501 
L 203.873834 130.81779 
L 204.118487 124.652322 
L 204.36314 125.986489 
L 204.607793 124.234552 
L 204.852446 119.531277 
L 205.097099 122.698239 
L 205.341752 120.191622 
L 205.586405 126.902886 
L 205.831058 126.249279 
L 206.075711 130.245042 
L 206.320364 127.590184 
L 206.565017 126.667049 
L 206.80967 126.431211 
L 207.054323 129.072592 
L 207.298976 137.751415 
L 207.543629 137.892917 
L 207.788282 139.328158 
L 208.032935 140.015456 
L 208.277588 143.094821 
L 208.522241 149.395053 
L 208.766894 147.690284 
L 209.011547 152.440727 
L 209.2562 153.087596 
L 209.500853 154.354381 
L 209.745506 156.348893 
L 209.990159 160.546802 
L 210.234812 155.14949 
L 210.479465 146.767149 
L 210.724118 146.073112 
L 210.968771 143.842763 
L 211.213424 144.941092 
L 211.458077 144.071862 
L 211.70273 140.325414 
L 211.947383 141.747177 
L 212.192036 144.092077 
L 212.436689 143.970789 
L 212.681342 146.059636 
L 212.925995 152.272272 
L 213.170648 151.470424 
L 213.659954 151.915146 
L 214.14926 157.581986 
L 214.393913 156.20739 
L 214.638566 163.996769 
L 214.883219 164.549302 
L 215.127872 163.740716 
L 215.372525 164.508873 
L 215.861831 157.979541 
L 216.106484 158.201902 
L 216.351137 154.6576 
L 216.59579 155.041679 
L 216.840443 159.49564 
L 217.085096 155.56726 
L 217.329749 156.645374 
L 217.819055 146.699767 
L 218.063708 146.57174 
L 218.308361 144.927616 
L 218.553014 147.373588 
L 218.797667 147.29273 
L 219.04232 148.094577 
L 219.286973 150.446215 
L 219.531626 157.130526 
L 220.020932 156.140008 
L 220.265585 156.065888 
L 220.754891 147.542044 
L 220.999544 154.125281 
L 221.244197 156.301725 
L 221.48885 156.537563 
L 221.733503 154.226354 
L 221.978156 156.820568 
L 222.222809 160.876974 
L 222.712115 157.427007 
L 222.956768 158.646625 
L 223.201421 163.194921 
L 223.446074 165.216386 
L 223.690727 165.593726 
L 223.93538 163.289256 
L 224.424686 166.698793 
L 224.669339 161.968565 
L 224.913992 162.622172 
L 225.158645 158.592719 
L 225.403298 162.002256 
L 225.892605 159.320446 
L 226.137258 157.912159 
L 226.381911 162.911916 
L 226.871217 169.178457 
L 227.11587 165.42527 
L 227.605176 167.433259 
L 227.849829 165.135527 
L 228.094482 156.982285 
L 228.339135 156.881212 
L 228.828441 152.272272 
L 229.073094 151.726476 
L 229.317747 152.481156 
L 229.5624 154.044423 
L 229.807053 153.795109 
L 230.051706 154.556527 
L 230.296359 154.495883 
L 230.541012 155.520092 
L 230.785665 152.73047 
L 231.030318 145.972039 
L 231.274971 146.538049 
L 231.519624 146.652599 
L 231.764277 137.812059 
L 232.00893 138.533048 
L 232.253583 137.205619 
L 232.498236 141.518078 
L 232.742889 141.531554 
L 233.232195 136.868709 
L 233.476848 138.566739 
L 233.721501 134.274495 
L 233.966154 134.402521 
L 234.210807 132.461915 
L 234.45546 128.924351 
L 234.700113 129.975513 
L 234.944766 129.355597 
L 235.189419 126.161682 
L 235.434072 126.222326 
L 235.678725 127.307179 
L 235.923378 129.187142 
L 236.168031 128.331388 
L 236.412684 126.909624 
L 236.657337 127.091556 
L 236.90199 127.111771 
L 237.146643 124.403008 
L 237.391296 124.840992 
L 237.880602 126.491855 
L 238.125255 126.060609 
L 238.369908 128.129242 
L 238.614561 125.959536 
L 238.859214 121.141711 
L 239.103867 121.337119 
L 239.34852 124.908374 
L 239.593173 124.429961 
L 239.837826 124.915112 
L 240.082479 125.123997 
L 240.327132 123.277726 
L 240.571785 118.365566 
L 240.816438 117.36831 
L 241.061091 116.95054 
L 241.305744 118.783335 
L 241.550397 113.47362 
L 241.79505 115.158175 
L 242.039703 112.71894 
L 242.284356 113.864437 
L 242.529009 117.280713 
L 242.773662 113.076066 
L 243.018315 112.476364 
L 243.262968 105.151923 
L 243.507621 105.354069 
L 243.996927 122.037894 
L 244.24158 120.043382 
L 244.486233 119.214581 
L 244.975539 114.83474 
L 245.220192 116.526033 
L 245.464845 114.140704 
L 245.954151 103.642562 
L 246.198804 114.08006 
L 246.443457 113.338856 
L 246.68811 113.790317 
L 246.932763 114.996457 
L 247.177416 123.351846 
L 247.422069 115.394012 
L 247.666722 116.067834 
L 247.911375 114.066584 
L 248.156029 114.497829 
L 248.400682 118.648571 
L 248.889988 111.816019 
L 249.134641 127.987739 
L 249.379294 130.426973 
L 249.623947 131.350109 
L 249.8686 133.890417 
L 250.113253 133.351359 
L 250.357906 130.426973 
L 250.602559 129.995728 
L 250.847212 122.017679 
L 251.091865 118.156681 
L 251.336518 121.842485 
L 252.070477 146.356117 
L 252.31513 145.574484 
L 252.559783 142.333402 
L 252.804436 130.103539 
L 253.049089 126.404258 
L 253.293742 126.013442 
L 253.538395 133.041401 
L 253.783048 126.936577 
L 254.027701 128.365079 
L 254.272354 130.81779 
L 254.517007 126.613143 
L 254.76166 126.114515 
L 255.006313 126.404258 
L 255.250966 125.218332 
L 255.495619 123.230558 
L 255.740272 122.974506 
L 255.984925 117.125734 
L 256.229578 117.247022 
L 256.474231 118.224063 
L 256.718884 115.811782 
L 256.963537 118.00844 
L 257.20819 117.927582 
L 257.452843 116.539509 
L 258.186802 127.637352 
L 258.431455 126.458164 
L 258.676108 132.199124 
L 258.920761 127.017436 
L 259.165414 127.974263 
L 259.410067 131.134486 
L 259.899373 141.066617 
L 260.388679 148.572991 
L 260.633332 146.100065 
L 260.877985 147.697023 
L 261.367291 140.871209 
L 261.611944 140.136744 
L 261.856597 150.291236 
L 262.10125 152.272272 
L 262.345903 151.173942 
L 262.590556 152.946093 
L 262.835209 148.788614 
L 263.079862 152.097078 
L 263.324515 150.338403 
L 263.569168 151.234586 
L 263.813821 154.401548 
L 264.058474 149.779132 
L 264.303127 153.444721 
L 264.54778 137.758153 
L 264.792433 137.663818 
L 265.037086 137.266263 
L 265.526392 147.953075 
L 265.771045 146.214615 
L 266.260351 154.226354 
L 266.505004 149.428744 
L 266.749657 149.637629 
L 266.99431 144.87371 
L 267.238963 144.38182 
L 267.728269 147.110798 
L 267.972922 146.773887 
L 268.217575 139.099058 
L 268.462228 137.77163 
L 268.706881 138.681289 
L 268.951534 134.011705 
L 269.196187 137.515577 
L 269.44084 137.030426 
L 269.685493 138.60043 
L 269.930146 138.095064 
L 270.174799 141.066617 
L 270.419452 142.549025 
L 270.664106 140.83078 
L 270.908759 147.602688 
L 271.153412 146.551526 
L 271.398065 144.860233 
L 271.642718 135.817547 
L 271.887371 136.572227 
L 272.132024 138.546524 
L 272.376677 137.131499 
L 272.62133 138.890173 
L 272.865983 139.058629 
L 273.110636 138.472404 
L 273.355289 139.563995 
L 273.599942 134.011705 
L 273.844595 133.405265 
L 274.089248 132.111528 
L 274.333901 143.296967 
L 274.578554 143.283491 
L 275.557166 153.781632 
L 275.801819 152.35313 
L 276.046472 158.862248 
L 276.291125 154.906914 
L 276.535778 155.708762 
L 276.780431 155.890694 
L 277.025084 159.9471 
L 277.269737 159.091347 
L 277.51439 157.352887 
L 277.759043 161.510367 
L 278.003696 163.410544 
L 278.248349 167.109825 
L 278.737655 165.000763 
L 278.982308 161.133027 
L 279.471614 176.940883 
L 279.716267 175.694313 
L 280.205573 194.116597 
L 280.450226 193.941403 
L 280.694879 197.027506 
L 280.939532 192.445519 
L 281.184185 192.061441 
L 281.428838 189.278557 
L 281.673491 180.175227 
L 281.918144 181.462226 
L 282.162797 181.590252 
L 282.40745 174.070402 
L 282.652103 174.427528 
L 282.896756 173.221387 
L 283.141409 167.54107 
L 283.386062 165.580249 
L 283.630715 165.573511 
L 283.875368 164.508873 
L 284.120021 168.268798 
L 284.364674 166.927893 
L 284.85398 158.370358 
L 285.098633 155.506616 
L 285.343286 157.319196 
L 285.587939 153.195407 
L 285.832592 155.580736 
L 286.077245 154.01747 
L 286.321898 148.862734 
L 286.811204 144.294223 
L 287.30051 137.010211 
L 287.545163 133.250286 
L 287.789816 135.999479 
L 288.034469 143.856239 
L 288.279122 140.372581 
L 288.523775 138.681289 
L 288.768428 138.768886 
L 289.013081 140.952068 
L 289.257734 139.011461 
L 289.991693 121.694245 
L 290.236346 114.989719 
L 290.725652 125.332882 
L 290.970305 125.433955 
L 291.214958 126.84898 
L 291.459611 122.327637 
L 291.704264 124.126741 
L 291.948917 122.341113 
L 292.19357 122.765621 
L 292.438223 127.1522 
L 292.682876 125.400264 
L 292.92753 126.532284 
L 293.172183 122.853218 
L 293.416836 124.153694 
L 293.661489 122.859956 
L 293.906142 124.389531 
L 294.150795 126.923101 
L 294.395448 131.606161 
L 294.640101 130.905387 
L 295.37406 151.301968 
L 295.618713 149.010975 
L 295.863366 153.060643 
L 296.108019 153.215622 
L 296.352672 153.03369 
L 296.597325 154.165711 
L 296.841978 153.943349 
L 297.086631 153.485151 
L 297.331284 155.931123 
L 297.82059 148.822305 
L 298.065243 145.406029 
L 298.309896 148.141745 
L 298.799202 145.877704 
L 299.043855 142.144732 
L 299.288508 143.546281 
L 299.533161 143.418255 
L 299.777814 145.891181 
L 300.022467 146.295474 
L 300.26712 146.275259 
L 300.511773 145.1365 
L 300.756426 137.27974 
L 301.001079 135.136987 
L 301.245732 139.287728 
L 301.490385 146.410023 
L 301.735038 147.029939 
L 301.979691 148.99076 
L 302.224344 147.144489 
L 302.468997 146.98951 
L 302.71365 148.647111 
L 302.958303 145.796846 
L 303.202956 145.857489 
L 303.447609 161.321697 
L 303.692262 161.49689 
L 303.936915 163.686811 
L 304.670874 152.204889 
L 304.915527 150.796602 
L 305.16018 147.953075 
L 305.404833 149.651105 
L 305.649486 149.341147 
L 306.138792 147.764405 
L 306.383445 142.373831 
L 306.628098 142.461428 
L 306.872751 143.88993 
L 307.362057 145.32517 
L 307.60671 141.383314 
L 307.851363 142.050397 
L 308.096016 139.96155 
L 308.340669 145.257788 
L 308.585322 144.065124 
L 308.829975 138.849744 
L 309.074628 139.186655 
L 309.319281 139.873953 
L 309.563934 138.445451 
L 309.808587 135.628877 
L 310.297893 140.743183 
L 310.542546 141.693272 
L 310.787199 138.445451 
L 311.031852 138.836268 
L 311.276505 141.443958 
L 311.521158 139.476398 
L 311.765811 141.787607 
L 312.010464 142.286235 
L 312.255117 141.814559 
L 312.49977 141.828036 
L 312.744423 143.162203 
L 312.989076 143.411517 
L 313.233729 143.229585 
L 313.478382 142.225591 
L 313.723035 143.620402 
L 313.967688 142.333402 
L 314.456994 144.94783 
L 314.701647 145.601437 
L 315.190953 151.429995 
L 315.435607 150.978534 
L 315.68026 158.55229 
L 315.924913 160.567016 
L 316.169566 157.164217 
L 316.414219 157.918897 
L 316.903525 162.797366 
L 317.148178 160.216629 
L 317.392831 161.732728 
L 317.637484 161.490152 
L 318.12679 155.432495 
L 318.371443 154.799103 
L 318.616096 155.9446 
L 318.860749 155.553783 
L 319.594708 153.013475 
L 319.839361 155.156228 
L 320.084014 154.84627 
L 320.328667 158.599457 
L 320.57332 156.355631 
L 320.817973 149.839775 
L 321.307279 153.370601 
L 321.796585 161.355388 
L 322.041238 158.431002 
L 322.285891 159.00375 
L 322.530544 158.053662 
L 322.775197 158.909415 
L 323.264503 163.141015 
L 323.753809 156.672327 
L 323.998462 159.677572 
L 324.243115 159.010488 
L 324.487768 157.211384 
L 324.732421 157.49439 
L 324.977074 157.561772 
L 325.221727 156.369107 
L 326.200339 167.143516 
L 326.444992 167.547809 
L 326.934298 163.646381 
L 327.178951 162.48067 
L 327.668257 168.94262 
L 327.91291 166.779652 
L 328.157563 171.570524 
L 328.402216 170.007258 
L 328.646869 169.899446 
L 328.891522 166.71227 
L 329.136175 169.164981 
L 329.380828 169.501892 
L 329.625481 165.020977 
L 329.870134 163.693549 
L 330.114787 161.328435 
L 330.35944 161.68556 
L 330.604093 166.099092 
L 330.848746 166.213642 
L 331.093399 171.280781 
L 331.338052 171.557048 
L 331.582705 167.965578 
L 331.827358 168.605709 
L 332.072011 163.686811 
L 332.316664 164.266297 
L 332.561317 164.340418 
L 332.80597 164.171962 
L 333.050623 160.317702 
L 333.295276 159.953839 
L 333.539929 160.701781 
L 333.784582 157.393316 
L 334.029235 157.231599 
L 334.273888 153.14824 
L 334.518541 153.882705 
L 334.763194 153.377339 
L 335.2525 145.911395 
L 335.497153 145.769893 
L 335.741806 149.17943 
L 335.986459 149.846514 
L 336.231112 147.622902 
L 336.475765 140.884686 
L 336.720418 141.046403 
L 337.209724 137.993991 
L 337.454377 138.944079 
L 337.943684 139.132749 
L 338.188337 133.634365 
L 338.43299 135.096558 
L 338.677643 133.223333 
L 338.922296 129.584696 
L 339.166949 128.931089 
L 339.656255 122.273731 
L 339.900908 122.368066 
L 340.145561 123.688757 
L 340.390214 123.392275 
L 340.634867 124.955542 
L 340.87952 124.079573 
L 341.124173 125.892154 
L 341.368826 124.335626 
L 341.613479 124.483866 
L 341.858132 120.144455 
L 342.102785 120.339863 
L 342.347438 117.240284 
L 342.592091 112.442673 
L 342.836744 112.422459 
L 343.081397 104.761106 
L 343.32605 104.505054 
L 343.570703 105.327117 
L 343.815356 112.611129 
L 344.060009 110.400994 
L 344.304662 106.924074 
L 344.549315 109.538502 
L 344.793968 121.343857 
L 345.038621 120.663298 
L 345.283274 127.920357 
L 345.527927 125.386787 
L 345.77258 125.366573 
L 346.017233 125.056615 
L 346.261886 124.322149 
L 346.506539 124.564725 
L 346.995845 127.489111 
L 347.485151 129.631864 
L 347.729804 127.960786 
L 347.974457 119.989476 
L 348.21911 121.519051 
L 348.463763 117.260498 
L 348.708416 117.6311 
L 348.953069 117.348095 
L 349.197722 124.92185 
L 349.442375 122.004203 
L 349.687028 122.159182 
L 350.420987 106.883645 
L 350.66564 106.930812 
L 351.154946 106.310896 
L 351.399599 92.686222 
L 351.644252 89.195826 
L 351.888905 95.058074 
L 352.378211 89.977459 
L 352.622864 83.340316 
L 352.867517 85.819979 
L 353.11217 93.818243 
L 353.356823 88.99368 
L 353.601476 90.718663 
L 353.846129 91.520511 
L 354.090782 87.969471 
L 354.335435 89.997674 
L 354.824741 86.278178 
L 355.069394 82.396965 
L 355.314047 84.8362 
L 355.5587 85.873885 
L 355.803353 82.208295 
L 356.048006 76.305618 
L 356.292659 78.960475 
L 356.537312 84.263451 
L 356.781965 94.748116 
L 357.026618 86.062555 
L 357.271271 86.844188 
L 357.515924 77.363518 
L 357.760577 74.695184 
L 358.00523 76.123686 
L 358.249883 74.971451 
L 358.494536 80.988678 
L 358.739189 80.22726 
L 358.983842 87.571916 
L 359.228495 82.888855 
L 359.473148 84.391478 
L 359.717801 84.714912 
L 359.962454 89.088015 
L 360.696414 74.74909 
L 361.18572 64.05554 
L 361.675026 64.837173 
L 362.653638 44.52145 
L 362.898291 53.065509 
L 363.142944 51.92675 
L 363.387597 40.512211 
L 363.63225 37.338511 
L 364.121556 43.5781 
L 364.366209 44.656214 
L 364.610862 43.012089 
L 364.855515 40.208991 
L 365.100168 36.024559 
L 365.344821 35.458549 
L 365.589474 39.474526 
L 365.834127 49.662709 
L 366.07878 43.685911 
L 366.323433 50.7543 
L 366.568086 50.174814 
L 366.812739 56.23247 
L 367.302045 85.739121 
L 367.791351 80.874129 
L 368.036004 73.347541 
L 368.280657 71.797751 
L 368.52531 75.914801 
L 368.769963 72.9702 
L 369.014616 78.502276 
L 369.259269 72.660242 
L 369.503922 74.668231 
L 369.748575 71.528222 
L 369.993228 72.552431 
L 370.237881 63.038069 
L 370.482534 65.005628 
L 370.727187 62.141886 
L 370.97184 68.469072 
L 371.216493 68.058041 
L 371.461146 75.874372 
L 371.705799 78.502276 
L 371.950452 74.243723 
L 372.195105 59.958704 
L 372.439758 53.341775 
L 372.684411 54.514225 
L 372.929064 47.742317 
L 373.173717 48.881076 
L 373.41837 54.359246 
L 373.663023 52.694907 
L 373.907676 48.699144 
L 374.152329 49.689662 
L 374.396982 49.298845 
L 374.641635 56.704146 
L 374.886288 59.70939 
L 375.130941 66.178078 
L 375.375594 63.82644 
L 375.620247 56.131397 
L 375.8649 56.023586 
L 376.109553 59.311835 
L 376.354206 60.922269 
L 376.598859 59.776772 
L 376.843512 55.85513 
L 377.088165 54.022335 
L 377.332818 54.359246 
L 377.822124 61.683688 
L 378.066777 57.586852 
L 378.31143 62.445106 
L 378.556083 48.773265 
L 378.800736 49.406657 
L 379.045389 47.061758 
L 379.290042 39.373452 
L 379.534695 37.911259 
L 379.779348 34.414125 
L 380.024001 41.084959 
L 380.268654 41.886807 
L 380.513307 46.893302 
L 380.75796 57.263418 
L 381.002613 61.37373 
L 381.247266 61.198536 
L 381.491919 64.082493 
L 381.736572 65.005628 
L 381.981225 63.994896 
L 382.225878 63.705153 
L 382.715184 54.622037 
L 382.959838 54.406414 
L 383.204491 53.36199 
L 383.449144 62.755064 
L 383.693797 54.23122 
L 383.93845 54.898303 
L 384.183103 54.170576 
L 384.427756 54.244696 
L 384.672409 57.59359 
L 385.161715 51.495504 
L 385.895674 66.744088 
L 386.140327 66.528465 
L 386.38498 74.277414 
L 386.629633 74.055053 
L 386.874286 77.626308 
L 387.118939 78.158627 
L 387.363592 70.443369 
L 387.608245 77.484806 
L 387.852898 92.187594 
L 387.852898 92.187594 
" style="fill:none;stroke:#ff7f0e;stroke-linecap:square;stroke-width:1.5;"/>
   </g>
   <g id="patch_3">
    <path d="M 46.965625 288.430125 
L 46.965625 22.318125 
" style="fill:none;stroke:#000000;stroke-linecap:square;stroke-linejoin:miter;stroke-width:0.8;"/>
   </g>
   <g id="patch_4">
    <path d="M 404.085625 288.430125 
L 404.085625 22.318125 
" style="fill:none;stroke:#000000;stroke-linecap:square;stroke-linejoin:miter;stroke-width:0.8;"/>
   </g>
   <g id="patch_5">
    <path d="M 46.965625 288.430125 
L 404.085625 288.430125 
" style="fill:none;stroke:#000000;stroke-linecap:square;stroke-linejoin:miter;stroke-width:0.8;"/>
   </g>
   <g id="patch_6">
    <path d="M 46.965625 22.318125 
L 404.085625 22.318125 
" style="fill:none;stroke:#000000;stroke-linecap:square;stroke-linejoin:miter;stroke-width:0.8;"/>
   </g>
   <g id="text_18">
    <!-- Training: TSLA -->
    <defs>
     <path d="M -0.296875 72.90625 
L 61.375 72.90625 
L 61.375 64.59375 
L 35.5 64.59375 
L 35.5 0 
L 25.59375 0 
L 25.59375 64.59375 
L -0.296875 64.59375 
z
" id="DejaVuSans-84"/>
     <path d="M 54.890625 33.015625 
L 54.890625 0 
L 45.90625 0 
L 45.90625 32.71875 
Q 45.90625 40.484375 42.875 44.328125 
Q 39.84375 48.1875 33.796875 48.1875 
Q 26.515625 48.1875 22.3125 43.546875 
Q 18.109375 38.921875 18.109375 30.90625 
L 18.109375 0 
L 9.078125 0 
L 9.078125 54.6875 
L 18.109375 54.6875 
L 18.109375 46.1875 
Q 21.34375 51.125 25.703125 53.5625 
Q 30.078125 56 35.796875 56 
Q 45.21875 56 50.046875 50.171875 
Q 54.890625 44.34375 54.890625 33.015625 
z
" id="DejaVuSans-110"/>
     <path d="M 45.40625 27.984375 
Q 45.40625 37.75 41.375 43.109375 
Q 37.359375 48.484375 30.078125 48.484375 
Q 22.859375 48.484375 18.828125 43.109375 
Q 14.796875 37.75 14.796875 27.984375 
Q 14.796875 18.265625 18.828125 12.890625 
Q 22.859375 7.515625 30.078125 7.515625 
Q 37.359375 7.515625 41.375 12.890625 
Q 45.40625 18.265625 45.40625 27.984375 
z
M 54.390625 6.78125 
Q 54.390625 -7.171875 48.1875 -13.984375 
Q 42 -20.796875 29.203125 -20.796875 
Q 24.46875 -20.796875 20.265625 -20.09375 
Q 16.0625 -19.390625 12.109375 -17.921875 
L 12.109375 -9.1875 
Q 16.0625 -11.328125 19.921875 -12.34375 
Q 23.78125 -13.375 27.78125 -13.375 
Q 36.625 -13.375 41.015625 -8.765625 
Q 45.40625 -4.15625 45.40625 5.171875 
L 45.40625 9.625 
Q 42.625 4.78125 38.28125 2.390625 
Q 33.9375 0 27.875 0 
Q 17.828125 0 11.671875 7.65625 
Q 5.515625 15.328125 5.515625 27.984375 
Q 5.515625 40.671875 11.671875 48.328125 
Q 17.828125 56 27.875 56 
Q 33.9375 56 38.28125 53.609375 
Q 42.625 51.21875 45.40625 46.390625 
L 45.40625 54.6875 
L 54.390625 54.6875 
z
" id="DejaVuSans-103"/>
     <path d="M 11.71875 12.40625 
L 22.015625 12.40625 
L 22.015625 0 
L 11.71875 0 
z
M 11.71875 51.703125 
L 22.015625 51.703125 
L 22.015625 39.3125 
L 11.71875 39.3125 
z
" id="DejaVuSans-58"/>
     <path d="M 53.515625 70.515625 
L 53.515625 60.890625 
Q 47.90625 63.578125 42.921875 64.890625 
Q 37.9375 66.21875 33.296875 66.21875 
Q 25.25 66.21875 20.875 63.09375 
Q 16.5 59.96875 16.5 54.203125 
Q 16.5 49.359375 19.40625 46.890625 
Q 22.3125 44.4375 30.421875 42.921875 
L 36.375 41.703125 
Q 47.40625 39.59375 52.65625 34.296875 
Q 57.90625 29 57.90625 20.125 
Q 57.90625 9.515625 50.796875 4.046875 
Q 43.703125 -1.421875 29.984375 -1.421875 
Q 24.8125 -1.421875 18.96875 -0.25 
Q 13.140625 0.921875 6.890625 3.21875 
L 6.890625 13.375 
Q 12.890625 10.015625 18.65625 8.296875 
Q 24.421875 6.59375 29.984375 6.59375 
Q 38.421875 6.59375 43.015625 9.90625 
Q 47.609375 13.234375 47.609375 19.390625 
Q 47.609375 24.75 44.3125 27.78125 
Q 41.015625 30.8125 33.5 32.328125 
L 27.484375 33.5 
Q 16.453125 35.6875 11.515625 40.375 
Q 6.59375 45.0625 6.59375 53.421875 
Q 6.59375 63.09375 13.40625 68.65625 
Q 20.21875 74.21875 32.171875 74.21875 
Q 37.3125 74.21875 42.625 73.28125 
Q 47.953125 72.359375 53.515625 70.515625 
z
" id="DejaVuSans-83"/>
     <path d="M 9.8125 72.90625 
L 19.671875 72.90625 
L 19.671875 8.296875 
L 55.171875 8.296875 
L 55.171875 0 
L 9.8125 0 
z
" id="DejaVuSans-76"/>
     <path d="M 34.1875 63.1875 
L 20.796875 26.90625 
L 47.609375 26.90625 
z
M 28.609375 72.90625 
L 39.796875 72.90625 
L 67.578125 0 
L 57.328125 0 
L 50.6875 18.703125 
L 17.828125 18.703125 
L 11.1875 0 
L 0.78125 0 
z
" id="DejaVuSans-65"/>
    </defs>
    <g transform="translate(182.870313 16.318125)scale(0.12 -0.12)">
     <use xlink:href="#DejaVuSans-84"/>
     <use x="46.333984" xlink:href="#DejaVuSans-114"/>
     <use x="87.447266" xlink:href="#DejaVuSans-97"/>
     <use x="148.726562" xlink:href="#DejaVuSans-105"/>
     <use x="176.509766" xlink:href="#DejaVuSans-110"/>
     <use x="239.888672" xlink:href="#DejaVuSans-105"/>
     <use x="267.671875" xlink:href="#DejaVuSans-110"/>
     <use x="331.050781" xlink:href="#DejaVuSans-103"/>
     <use x="394.527344" xlink:href="#DejaVuSans-58"/>
     <use x="428.21875" xlink:href="#DejaVuSans-32"/>
     <use x="460.005859" xlink:href="#DejaVuSans-84"/>
     <use x="521.089844" xlink:href="#DejaVuSans-83"/>
     <use x="584.566406" xlink:href="#DejaVuSans-76"/>
     <use x="642.529297" xlink:href="#DejaVuSans-65"/>
    </g>
   </g>
   <g id="legend_1">
    <g id="patch_7">
     <path d="M 53.965625 59.674375 
L 137.69375 59.674375 
Q 139.69375 59.674375 139.69375 57.674375 
L 139.69375 29.318125 
Q 139.69375 27.318125 137.69375 27.318125 
L 53.965625 27.318125 
Q 51.965625 27.318125 51.965625 29.318125 
L 51.965625 57.674375 
Q 51.965625 59.674375 53.965625 59.674375 
z
" style="fill:#ffffff;opacity:0.8;stroke:#cccccc;stroke-linejoin:miter;"/>
    </g>
    <g id="line2d_33">
     <path d="M 55.965625 35.416562 
L 75.965625 35.416562 
" style="fill:none;stroke:#1f77b4;stroke-linecap:square;stroke-width:1.5;"/>
    </g>
    <g id="line2d_34"/>
    <g id="text_19">
     <!-- Predicted -->
     <defs>
      <path d="M 45.40625 46.390625 
L 45.40625 75.984375 
L 54.390625 75.984375 
L 54.390625 0 
L 45.40625 0 
L 45.40625 8.203125 
Q 42.578125 3.328125 38.25 0.953125 
Q 33.9375 -1.421875 27.875 -1.421875 
Q 17.96875 -1.421875 11.734375 6.484375 
Q 5.515625 14.40625 5.515625 27.296875 
Q 5.515625 40.1875 11.734375 48.09375 
Q 17.96875 56 27.875 56 
Q 33.9375 56 38.25 53.625 
Q 42.578125 51.265625 45.40625 46.390625 
z
M 14.796875 27.296875 
Q 14.796875 17.390625 18.875 11.75 
Q 22.953125 6.109375 30.078125 6.109375 
Q 37.203125 6.109375 41.296875 11.75 
Q 45.40625 17.390625 45.40625 27.296875 
Q 45.40625 37.203125 41.296875 42.84375 
Q 37.203125 48.484375 30.078125 48.484375 
Q 22.953125 48.484375 18.875 42.84375 
Q 14.796875 37.203125 14.796875 27.296875 
z
" id="DejaVuSans-100"/>
      <path d="M 18.3125 70.21875 
L 18.3125 54.6875 
L 36.8125 54.6875 
L 36.8125 47.703125 
L 18.3125 47.703125 
L 18.3125 18.015625 
Q 18.3125 11.328125 20.140625 9.421875 
Q 21.96875 7.515625 27.59375 7.515625 
L 36.8125 7.515625 
L 36.8125 0 
L 27.59375 0 
Q 17.1875 0 13.234375 3.875 
Q 9.28125 7.765625 9.28125 18.015625 
L 9.28125 47.703125 
L 2.6875 47.703125 
L 2.6875 54.6875 
L 9.28125 54.6875 
L 9.28125 70.21875 
z
" id="DejaVuSans-116"/>
     </defs>
     <g transform="translate(83.965625 38.916562)scale(0.1 -0.1)">
      <use xlink:href="#DejaVuSans-80"/>
      <use x="58.552734" xlink:href="#DejaVuSans-114"/>
      <use x="97.416016" xlink:href="#DejaVuSans-101"/>
      <use x="158.939453" xlink:href="#DejaVuSans-100"/>
      <use x="222.416016" xlink:href="#DejaVuSans-105"/>
      <use x="250.199219" xlink:href="#DejaVuSans-99"/>
      <use x="305.179688" xlink:href="#DejaVuSans-116"/>
      <use x="344.388672" xlink:href="#DejaVuSans-101"/>
      <use x="405.912109" xlink:href="#DejaVuSans-100"/>
     </g>
    </g>
    <g id="line2d_35">
     <path d="M 55.965625 50.094687 
L 75.965625 50.094687 
" style="fill:none;stroke:#ff7f0e;stroke-linecap:square;stroke-width:1.5;"/>
    </g>
    <g id="line2d_36"/>
    <g id="text_20">
     <!-- True value -->
     <defs>
      <path d="M 8.5 21.578125 
L 8.5 54.6875 
L 17.484375 54.6875 
L 17.484375 21.921875 
Q 17.484375 14.15625 20.5 10.265625 
Q 23.53125 6.390625 29.59375 6.390625 
Q 36.859375 6.390625 41.078125 11.03125 
Q 45.3125 15.671875 45.3125 23.6875 
L 45.3125 54.6875 
L 54.296875 54.6875 
L 54.296875 0 
L 45.3125 0 
L 45.3125 8.40625 
Q 42.046875 3.421875 37.71875 1 
Q 33.40625 -1.421875 27.6875 -1.421875 
Q 18.265625 -1.421875 13.375 4.4375 
Q 8.5 10.296875 8.5 21.578125 
z
M 31.109375 56 
z
" id="DejaVuSans-117"/>
      <path d="M 2.984375 54.6875 
L 12.5 54.6875 
L 29.59375 8.796875 
L 46.6875 54.6875 
L 56.203125 54.6875 
L 35.6875 0 
L 23.484375 0 
z
" id="DejaVuSans-118"/>
      <path d="M 9.421875 75.984375 
L 18.40625 75.984375 
L 18.40625 0 
L 9.421875 0 
z
" id="DejaVuSans-108"/>
     </defs>
     <g transform="translate(83.965625 53.594687)scale(0.1 -0.1)">
      <use xlink:href="#DejaVuSans-84"/>
      <use x="46.333984" xlink:href="#DejaVuSans-114"/>
      <use x="87.447266" xlink:href="#DejaVuSans-117"/>
      <use x="150.826172" xlink:href="#DejaVuSans-101"/>
      <use x="212.349609" xlink:href="#DejaVuSans-32"/>
      <use x="244.136719" xlink:href="#DejaVuSans-118"/>
      <use x="303.316406" xlink:href="#DejaVuSans-97"/>
      <use x="364.595703" xlink:href="#DejaVuSans-108"/>
      <use x="392.378906" xlink:href="#DejaVuSans-117"/>
      <use x="455.757812" xlink:href="#DejaVuSans-101"/>
     </g>
    </g>
   </g>
  </g>
 </g>
 <defs>
  <clipPath id="p753211172e">
   <rect height="266.112" width="357.12" x="46.965625" y="22.318125"/>
  </clipPath>
 </defs>
</svg>
