<?xml version="1.0" encoding="utf-8" standalone="no"?>
<!DOCTYPE svg PUBLIC "-//W3C//DTD SVG 1.1//EN"
  "http://www.w3.org/Graphics/SVG/1.1/DTD/svg11.dtd">
<!-- Created with matplotlib (https://matplotlib.org/) -->
<svg height="325.986375pt" version="1.1" viewBox="0 0 411.285625 325.986375" width="411.285625pt" xmlns="http://www.w3.org/2000/svg" xmlns:xlink="http://www.w3.org/1999/xlink">
 <defs>
  <style type="text/css">
*{stroke-linecap:butt;stroke-linejoin:round;}
  </style>
 </defs>
 <g id="figure_1">
  <g id="patch_1">
   <path d="M 0 325.986375 
L 411.285625 325.986375 
L 411.285625 0 
L 0 0 
z
" style="fill:#ffffff;"/>
  </g>
  <g id="axes_1">
   <g id="patch_2">
    <path d="M 46.965625 288.430125 
L 404.085625 288.430125 
L 404.085625 22.318125 
L 46.965625 22.318125 
z
" style="fill:#ffffff;"/>
   </g>
   <g id="matplotlib.axis_1">
    <g id="xtick_1">
     <g id="line2d_1">
      <path clip-path="url(#p191091b75b)" d="M 63.198352 288.430125 
L 63.198352 22.318125 
" style="fill:none;stroke:#b0b0b0;stroke-dasharray:2.96,1.28;stroke-dashoffset:0;stroke-width:0.8;"/>
     </g>
     <g id="line2d_2">
      <defs>
       <path d="M 0 0 
L 0 3.5 
" id="m73922326fa" style="stroke:#000000;stroke-width:0.8;"/>
      </defs>
      <g>
       <use style="stroke:#000000;stroke-width:0.8;" x="63.198352" xlink:href="#m73922326fa" y="288.430125"/>
      </g>
     </g>
     <g id="text_1">
      <!-- 0 -->
      <defs>
       <path d="M 31.78125 66.40625 
Q 24.171875 66.40625 20.328125 58.90625 
Q 16.5 51.421875 16.5 36.375 
Q 16.5 21.390625 20.328125 13.890625 
Q 24.171875 6.390625 31.78125 6.390625 
Q 39.453125 6.390625 43.28125 13.890625 
Q 47.125 21.390625 47.125 36.375 
Q 47.125 51.421875 43.28125 58.90625 
Q 39.453125 66.40625 31.78125 66.40625 
z
M 31.78125 74.21875 
Q 44.046875 74.21875 50.515625 64.515625 
Q 56.984375 54.828125 56.984375 36.375 
Q 56.984375 17.96875 50.515625 8.265625 
Q 44.046875 -1.421875 31.78125 -1.421875 
Q 19.53125 -1.421875 13.0625 8.265625 
Q 6.59375 17.96875 6.59375 36.375 
Q 6.59375 54.828125 13.0625 64.515625 
Q 19.53125 74.21875 31.78125 74.21875 
z
" id="DejaVuSans-48"/>
      </defs>
      <g transform="translate(60.017102 303.028562)scale(0.1 -0.1)">
       <use xlink:href="#DejaVuSans-48"/>
      </g>
     </g>
    </g>
    <g id="xtick_2">
     <g id="line2d_3">
      <path clip-path="url(#p191091b75b)" d="M 112.128954 288.430125 
L 112.128954 22.318125 
" style="fill:none;stroke:#b0b0b0;stroke-dasharray:2.96,1.28;stroke-dashoffset:0;stroke-width:0.8;"/>
     </g>
     <g id="line2d_4">
      <g>
       <use style="stroke:#000000;stroke-width:0.8;" x="112.128954" xlink:href="#m73922326fa" y="288.430125"/>
      </g>
     </g>
     <g id="text_2">
      <!-- 200 -->
      <defs>
       <path d="M 19.1875 8.296875 
L 53.609375 8.296875 
L 53.609375 0 
L 7.328125 0 
L 7.328125 8.296875 
Q 12.9375 14.109375 22.625 23.890625 
Q 32.328125 33.6875 34.8125 36.53125 
Q 39.546875 41.84375 41.421875 45.53125 
Q 43.3125 49.21875 43.3125 52.78125 
Q 43.3125 58.59375 39.234375 62.25 
Q 35.15625 65.921875 28.609375 65.921875 
Q 23.96875 65.921875 18.8125 64.3125 
Q 13.671875 62.703125 7.8125 59.421875 
L 7.8125 69.390625 
Q 13.765625 71.78125 18.9375 73 
Q 24.125 74.21875 28.421875 74.21875 
Q 39.75 74.21875 46.484375 68.546875 
Q 53.21875 62.890625 53.21875 53.421875 
Q 53.21875 48.921875 51.53125 44.890625 
Q 49.859375 40.875 45.40625 35.40625 
Q 44.1875 33.984375 37.640625 27.21875 
Q 31.109375 20.453125 19.1875 8.296875 
z
" id="DejaVuSans-50"/>
      </defs>
      <g transform="translate(102.585204 303.028562)scale(0.1 -0.1)">
       <use xlink:href="#DejaVuSans-50"/>
       <use x="63.623047" xlink:href="#DejaVuSans-48"/>
       <use x="127.246094" xlink:href="#DejaVuSans-48"/>
      </g>
     </g>
    </g>
    <g id="xtick_3">
     <g id="line2d_5">
      <path clip-path="url(#p191091b75b)" d="M 161.059557 288.430125 
L 161.059557 22.318125 
" style="fill:none;stroke:#b0b0b0;stroke-dasharray:2.96,1.28;stroke-dashoffset:0;stroke-width:0.8;"/>
     </g>
     <g id="line2d_6">
      <g>
       <use style="stroke:#000000;stroke-width:0.8;" x="161.059557" xlink:href="#m73922326fa" y="288.430125"/>
      </g>
     </g>
     <g id="text_3">
      <!-- 400 -->
      <defs>
       <path d="M 37.796875 64.3125 
L 12.890625 25.390625 
L 37.796875 25.390625 
z
M 35.203125 72.90625 
L 47.609375 72.90625 
L 47.609375 25.390625 
L 58.015625 25.390625 
L 58.015625 17.1875 
L 47.609375 17.1875 
L 47.609375 0 
L 37.796875 0 
L 37.796875 17.1875 
L 4.890625 17.1875 
L 4.890625 26.703125 
z
" id="DejaVuSans-52"/>
      </defs>
      <g transform="translate(151.515807 303.028562)scale(0.1 -0.1)">
       <use xlink:href="#DejaVuSans-52"/>
       <use x="63.623047" xlink:href="#DejaVuSans-48"/>
       <use x="127.246094" xlink:href="#DejaVuSans-48"/>
      </g>
     </g>
    </g>
    <g id="xtick_4">
     <g id="line2d_7">
      <path clip-path="url(#p191091b75b)" d="M 209.990159 288.430125 
L 209.990159 22.318125 
" style="fill:none;stroke:#b0b0b0;stroke-dasharray:2.96,1.28;stroke-dashoffset:0;stroke-width:0.8;"/>
     </g>
     <g id="line2d_8">
      <g>
       <use style="stroke:#000000;stroke-width:0.8;" x="209.990159" xlink:href="#m73922326fa" y="288.430125"/>
      </g>
     </g>
     <g id="text_4">
      <!-- 600 -->
      <defs>
       <path d="M 33.015625 40.375 
Q 26.375 40.375 22.484375 35.828125 
Q 18.609375 31.296875 18.609375 23.390625 
Q 18.609375 15.53125 22.484375 10.953125 
Q 26.375 6.390625 33.015625 6.390625 
Q 39.65625 6.390625 43.53125 10.953125 
Q 47.40625 15.53125 47.40625 23.390625 
Q 47.40625 31.296875 43.53125 35.828125 
Q 39.65625 40.375 33.015625 40.375 
z
M 52.59375 71.296875 
L 52.59375 62.3125 
Q 48.875 64.0625 45.09375 64.984375 
Q 41.3125 65.921875 37.59375 65.921875 
Q 27.828125 65.921875 22.671875 59.328125 
Q 17.53125 52.734375 16.796875 39.40625 
Q 19.671875 43.65625 24.015625 45.921875 
Q 28.375 48.1875 33.59375 48.1875 
Q 44.578125 48.1875 50.953125 41.515625 
Q 57.328125 34.859375 57.328125 23.390625 
Q 57.328125 12.15625 50.6875 5.359375 
Q 44.046875 -1.421875 33.015625 -1.421875 
Q 20.359375 -1.421875 13.671875 8.265625 
Q 6.984375 17.96875 6.984375 36.375 
Q 6.984375 53.65625 15.1875 63.9375 
Q 23.390625 74.21875 37.203125 74.21875 
Q 40.921875 74.21875 44.703125 73.484375 
Q 48.484375 72.75 52.59375 71.296875 
z
" id="DejaVuSans-54"/>
      </defs>
      <g transform="translate(200.446409 303.028562)scale(0.1 -0.1)">
       <use xlink:href="#DejaVuSans-54"/>
       <use x="63.623047" xlink:href="#DejaVuSans-48"/>
       <use x="127.246094" xlink:href="#DejaVuSans-48"/>
      </g>
     </g>
    </g>
    <g id="xtick_5">
     <g id="line2d_9">
      <path clip-path="url(#p191091b75b)" d="M 258.920761 288.430125 
L 258.920761 22.318125 
" style="fill:none;stroke:#b0b0b0;stroke-dasharray:2.96,1.28;stroke-dashoffset:0;stroke-width:0.8;"/>
     </g>
     <g id="line2d_10">
      <g>
       <use style="stroke:#000000;stroke-width:0.8;" x="258.920761" xlink:href="#m73922326fa" y="288.430125"/>
      </g>
     </g>
     <g id="text_5">
      <!-- 800 -->
      <defs>
       <path d="M 31.78125 34.625 
Q 24.75 34.625 20.71875 30.859375 
Q 16.703125 27.09375 16.703125 20.515625 
Q 16.703125 13.921875 20.71875 10.15625 
Q 24.75 6.390625 31.78125 6.390625 
Q 38.8125 6.390625 42.859375 10.171875 
Q 46.921875 13.96875 46.921875 20.515625 
Q 46.921875 27.09375 42.890625 30.859375 
Q 38.875 34.625 31.78125 34.625 
z
M 21.921875 38.8125 
Q 15.578125 40.375 12.03125 44.71875 
Q 8.5 49.078125 8.5 55.328125 
Q 8.5 64.0625 14.71875 69.140625 
Q 20.953125 74.21875 31.78125 74.21875 
Q 42.671875 74.21875 48.875 69.140625 
Q 55.078125 64.0625 55.078125 55.328125 
Q 55.078125 49.078125 51.53125 44.71875 
Q 48 40.375 41.703125 38.8125 
Q 48.828125 37.15625 52.796875 32.3125 
Q 56.78125 27.484375 56.78125 20.515625 
Q 56.78125 9.90625 50.3125 4.234375 
Q 43.84375 -1.421875 31.78125 -1.421875 
Q 19.734375 -1.421875 13.25 4.234375 
Q 6.78125 9.90625 6.78125 20.515625 
Q 6.78125 27.484375 10.78125 32.3125 
Q 14.796875 37.15625 21.921875 38.8125 
z
M 18.3125 54.390625 
Q 18.3125 48.734375 21.84375 45.5625 
Q 25.390625 42.390625 31.78125 42.390625 
Q 38.140625 42.390625 41.71875 45.5625 
Q 45.3125 48.734375 45.3125 54.390625 
Q 45.3125 60.0625 41.71875 63.234375 
Q 38.140625 66.40625 31.78125 66.40625 
Q 25.390625 66.40625 21.84375 63.234375 
Q 18.3125 60.0625 18.3125 54.390625 
z
" id="DejaVuSans-56"/>
      </defs>
      <g transform="translate(249.377011 303.028562)scale(0.1 -0.1)">
       <use xlink:href="#DejaVuSans-56"/>
       <use x="63.623047" xlink:href="#DejaVuSans-48"/>
       <use x="127.246094" xlink:href="#DejaVuSans-48"/>
      </g>
     </g>
    </g>
    <g id="xtick_6">
     <g id="line2d_11">
      <path clip-path="url(#p191091b75b)" d="M 307.851363 288.430125 
L 307.851363 22.318125 
" style="fill:none;stroke:#b0b0b0;stroke-dasharray:2.96,1.28;stroke-dashoffset:0;stroke-width:0.8;"/>
     </g>
     <g id="line2d_12">
      <g>
       <use style="stroke:#000000;stroke-width:0.8;" x="307.851363" xlink:href="#m73922326fa" y="288.430125"/>
      </g>
     </g>
     <g id="text_6">
      <!-- 1000 -->
      <defs>
       <path d="M 12.40625 8.296875 
L 28.515625 8.296875 
L 28.515625 63.921875 
L 10.984375 60.40625 
L 10.984375 69.390625 
L 28.421875 72.90625 
L 38.28125 72.90625 
L 38.28125 8.296875 
L 54.390625 8.296875 
L 54.390625 0 
L 12.40625 0 
z
" id="DejaVuSans-49"/>
      </defs>
      <g transform="translate(295.126363 303.028562)scale(0.1 -0.1)">
       <use xlink:href="#DejaVuSans-49"/>
       <use x="63.623047" xlink:href="#DejaVuSans-48"/>
       <use x="127.246094" xlink:href="#DejaVuSans-48"/>
       <use x="190.869141" xlink:href="#DejaVuSans-48"/>
      </g>
     </g>
    </g>
    <g id="xtick_7">
     <g id="line2d_13">
      <path clip-path="url(#p191091b75b)" d="M 356.781965 288.430125 
L 356.781965 22.318125 
" style="fill:none;stroke:#b0b0b0;stroke-dasharray:2.96,1.28;stroke-dashoffset:0;stroke-width:0.8;"/>
     </g>
     <g id="line2d_14">
      <g>
       <use style="stroke:#000000;stroke-width:0.8;" x="356.781965" xlink:href="#m73922326fa" y="288.430125"/>
      </g>
     </g>
     <g id="text_7">
      <!-- 1200 -->
      <g transform="translate(344.056965 303.028562)scale(0.1 -0.1)">
       <use xlink:href="#DejaVuSans-49"/>
       <use x="63.623047" xlink:href="#DejaVuSans-50"/>
       <use x="127.246094" xlink:href="#DejaVuSans-48"/>
       <use x="190.869141" xlink:href="#DejaVuSans-48"/>
      </g>
     </g>
    </g>
    <g id="text_8">
     <!-- Day -->
     <defs>
      <path d="M 19.671875 64.796875 
L 19.671875 8.109375 
L 31.59375 8.109375 
Q 46.6875 8.109375 53.6875 14.9375 
Q 60.6875 21.78125 60.6875 36.53125 
Q 60.6875 51.171875 53.6875 57.984375 
Q 46.6875 64.796875 31.59375 64.796875 
z
M 9.8125 72.90625 
L 30.078125 72.90625 
Q 51.265625 72.90625 61.171875 64.09375 
Q 71.09375 55.28125 71.09375 36.53125 
Q 71.09375 17.671875 61.125 8.828125 
Q 51.171875 0 30.078125 0 
L 9.8125 0 
z
" id="DejaVuSans-68"/>
      <path d="M 34.28125 27.484375 
Q 23.390625 27.484375 19.1875 25 
Q 14.984375 22.515625 14.984375 16.5 
Q 14.984375 11.71875 18.140625 8.90625 
Q 21.296875 6.109375 26.703125 6.109375 
Q 34.1875 6.109375 38.703125 11.40625 
Q 43.21875 16.703125 43.21875 25.484375 
L 43.21875 27.484375 
z
M 52.203125 31.203125 
L 52.203125 0 
L 43.21875 0 
L 43.21875 8.296875 
Q 40.140625 3.328125 35.546875 0.953125 
Q 30.953125 -1.421875 24.3125 -1.421875 
Q 15.921875 -1.421875 10.953125 3.296875 
Q 6 8.015625 6 15.921875 
Q 6 25.140625 12.171875 29.828125 
Q 18.359375 34.515625 30.609375 34.515625 
L 43.21875 34.515625 
L 43.21875 35.40625 
Q 43.21875 41.609375 39.140625 45 
Q 35.0625 48.390625 27.6875 48.390625 
Q 23 48.390625 18.546875 47.265625 
Q 14.109375 46.140625 10.015625 43.890625 
L 10.015625 52.203125 
Q 14.9375 54.109375 19.578125 55.046875 
Q 24.21875 56 28.609375 56 
Q 40.484375 56 46.34375 49.84375 
Q 52.203125 43.703125 52.203125 31.203125 
z
" id="DejaVuSans-97"/>
      <path d="M 32.171875 -5.078125 
Q 28.375 -14.84375 24.75 -17.8125 
Q 21.140625 -20.796875 15.09375 -20.796875 
L 7.90625 -20.796875 
L 7.90625 -13.28125 
L 13.1875 -13.28125 
Q 16.890625 -13.28125 18.9375 -11.515625 
Q 21 -9.765625 23.484375 -3.21875 
L 25.09375 0.875 
L 2.984375 54.6875 
L 12.5 54.6875 
L 29.59375 11.921875 
L 46.6875 54.6875 
L 56.203125 54.6875 
z
" id="DejaVuSans-121"/>
     </defs>
     <g transform="translate(215.652188 316.706687)scale(0.1 -0.1)">
      <use xlink:href="#DejaVuSans-68"/>
      <use x="77.001953" xlink:href="#DejaVuSans-97"/>
      <use x="138.28125" xlink:href="#DejaVuSans-121"/>
     </g>
    </g>
   </g>
   <g id="matplotlib.axis_2">
    <g id="ytick_1">
     <g id="line2d_15">
      <path clip-path="url(#p191091b75b)" d="M 46.965625 258.461542 
L 404.085625 258.461542 
" style="fill:none;stroke:#b0b0b0;stroke-dasharray:2.96,1.28;stroke-dashoffset:0;stroke-width:0.8;"/>
     </g>
     <g id="line2d_16">
      <defs>
       <path d="M 0 0 
L -3.5 0 
" id="m61f6f00da0" style="stroke:#000000;stroke-width:0.8;"/>
      </defs>
      <g>
       <use style="stroke:#000000;stroke-width:0.8;" x="46.965625" xlink:href="#m61f6f00da0" y="258.461542"/>
      </g>
     </g>
     <g id="text_9">
      <!-- 60 -->
      <g transform="translate(27.240625 262.260761)scale(0.1 -0.1)">
       <use xlink:href="#DejaVuSans-54"/>
       <use x="63.623047" xlink:href="#DejaVuSans-48"/>
      </g>
     </g>
    </g>
    <g id="ytick_2">
     <g id="line2d_17">
      <path clip-path="url(#p191091b75b)" d="M 46.965625 216.945671 
L 404.085625 216.945671 
" style="fill:none;stroke:#b0b0b0;stroke-dasharray:2.96,1.28;stroke-dashoffset:0;stroke-width:0.8;"/>
     </g>
     <g id="line2d_18">
      <g>
       <use style="stroke:#000000;stroke-width:0.8;" x="46.965625" xlink:href="#m61f6f00da0" y="216.945671"/>
      </g>
     </g>
     <g id="text_10">
      <!-- 80 -->
      <g transform="translate(27.240625 220.744889)scale(0.1 -0.1)">
       <use xlink:href="#DejaVuSans-56"/>
       <use x="63.623047" xlink:href="#DejaVuSans-48"/>
      </g>
     </g>
    </g>
    <g id="ytick_3">
     <g id="line2d_19">
      <path clip-path="url(#p191091b75b)" d="M 46.965625 175.429799 
L 404.085625 175.429799 
" style="fill:none;stroke:#b0b0b0;stroke-dasharray:2.96,1.28;stroke-dashoffset:0;stroke-width:0.8;"/>
     </g>
     <g id="line2d_20">
      <g>
       <use style="stroke:#000000;stroke-width:0.8;" x="46.965625" xlink:href="#m61f6f00da0" y="175.429799"/>
      </g>
     </g>
     <g id="text_11">
      <!-- 100 -->
      <g transform="translate(20.878125 179.229018)scale(0.1 -0.1)">
       <use xlink:href="#DejaVuSans-49"/>
       <use x="63.623047" xlink:href="#DejaVuSans-48"/>
       <use x="127.246094" xlink:href="#DejaVuSans-48"/>
      </g>
     </g>
    </g>
    <g id="ytick_4">
     <g id="line2d_21">
      <path clip-path="url(#p191091b75b)" d="M 46.965625 133.913928 
L 404.085625 133.913928 
" style="fill:none;stroke:#b0b0b0;stroke-dasharray:2.96,1.28;stroke-dashoffset:0;stroke-width:0.8;"/>
     </g>
     <g id="line2d_22">
      <g>
       <use style="stroke:#000000;stroke-width:0.8;" x="46.965625" xlink:href="#m61f6f00da0" y="133.913928"/>
      </g>
     </g>
     <g id="text_12">
      <!-- 120 -->
      <g transform="translate(20.878125 137.713146)scale(0.1 -0.1)">
       <use xlink:href="#DejaVuSans-49"/>
       <use x="63.623047" xlink:href="#DejaVuSans-50"/>
       <use x="127.246094" xlink:href="#DejaVuSans-48"/>
      </g>
     </g>
    </g>
    <g id="ytick_5">
     <g id="line2d_23">
      <path clip-path="url(#p191091b75b)" d="M 46.965625 92.398056 
L 404.085625 92.398056 
" style="fill:none;stroke:#b0b0b0;stroke-dasharray:2.96,1.28;stroke-dashoffset:0;stroke-width:0.8;"/>
     </g>
     <g id="line2d_24">
      <g>
       <use style="stroke:#000000;stroke-width:0.8;" x="46.965625" xlink:href="#m61f6f00da0" y="92.398056"/>
      </g>
     </g>
     <g id="text_13">
      <!-- 140 -->
      <g transform="translate(20.878125 96.197275)scale(0.1 -0.1)">
       <use xlink:href="#DejaVuSans-49"/>
       <use x="63.623047" xlink:href="#DejaVuSans-52"/>
       <use x="127.246094" xlink:href="#DejaVuSans-48"/>
      </g>
     </g>
    </g>
    <g id="ytick_6">
     <g id="line2d_25">
      <path clip-path="url(#p191091b75b)" d="M 46.965625 50.882185 
L 404.085625 50.882185 
" style="fill:none;stroke:#b0b0b0;stroke-dasharray:2.96,1.28;stroke-dashoffset:0;stroke-width:0.8;"/>
     </g>
     <g id="line2d_26">
      <g>
       <use style="stroke:#000000;stroke-width:0.8;" x="46.965625" xlink:href="#m61f6f00da0" y="50.882185"/>
      </g>
     </g>
     <g id="text_14">
      <!-- 160 -->
      <g transform="translate(20.878125 54.681403)scale(0.1 -0.1)">
       <use xlink:href="#DejaVuSans-49"/>
       <use x="63.623047" xlink:href="#DejaVuSans-54"/>
       <use x="127.246094" xlink:href="#DejaVuSans-48"/>
      </g>
     </g>
    </g>
    <g id="text_15">
     <!-- Price $ -->
     <defs>
      <path d="M 19.671875 64.796875 
L 19.671875 37.40625 
L 32.078125 37.40625 
Q 38.96875 37.40625 42.71875 40.96875 
Q 46.484375 44.53125 46.484375 51.125 
Q 46.484375 57.671875 42.71875 61.234375 
Q 38.96875 64.796875 32.078125 64.796875 
z
M 9.8125 72.90625 
L 32.078125 72.90625 
Q 44.34375 72.90625 50.609375 67.359375 
Q 56.890625 61.8125 56.890625 51.125 
Q 56.890625 40.328125 50.609375 34.8125 
Q 44.34375 29.296875 32.078125 29.296875 
L 19.671875 29.296875 
L 19.671875 0 
L 9.8125 0 
z
" id="DejaVuSans-80"/>
      <path d="M 41.109375 46.296875 
Q 39.59375 47.171875 37.8125 47.578125 
Q 36.03125 48 33.890625 48 
Q 26.265625 48 22.1875 43.046875 
Q 18.109375 38.09375 18.109375 28.8125 
L 18.109375 0 
L 9.078125 0 
L 9.078125 54.6875 
L 18.109375 54.6875 
L 18.109375 46.1875 
Q 20.953125 51.171875 25.484375 53.578125 
Q 30.03125 56 36.53125 56 
Q 37.453125 56 38.578125 55.875 
Q 39.703125 55.765625 41.0625 55.515625 
z
" id="DejaVuSans-114"/>
      <path d="M 9.421875 54.6875 
L 18.40625 54.6875 
L 18.40625 0 
L 9.421875 0 
z
M 9.421875 75.984375 
L 18.40625 75.984375 
L 18.40625 64.59375 
L 9.421875 64.59375 
z
" id="DejaVuSans-105"/>
      <path d="M 48.78125 52.59375 
L 48.78125 44.1875 
Q 44.96875 46.296875 41.140625 47.34375 
Q 37.3125 48.390625 33.40625 48.390625 
Q 24.65625 48.390625 19.8125 42.84375 
Q 14.984375 37.3125 14.984375 27.296875 
Q 14.984375 17.28125 19.8125 11.734375 
Q 24.65625 6.203125 33.40625 6.203125 
Q 37.3125 6.203125 41.140625 7.25 
Q 44.96875 8.296875 48.78125 10.40625 
L 48.78125 2.09375 
Q 45.015625 0.34375 40.984375 -0.53125 
Q 36.96875 -1.421875 32.421875 -1.421875 
Q 20.0625 -1.421875 12.78125 6.34375 
Q 5.515625 14.109375 5.515625 27.296875 
Q 5.515625 40.671875 12.859375 48.328125 
Q 20.21875 56 33.015625 56 
Q 37.15625 56 41.109375 55.140625 
Q 45.0625 54.296875 48.78125 52.59375 
z
" id="DejaVuSans-99"/>
      <path d="M 56.203125 29.59375 
L 56.203125 25.203125 
L 14.890625 25.203125 
Q 15.484375 15.921875 20.484375 11.0625 
Q 25.484375 6.203125 34.421875 6.203125 
Q 39.59375 6.203125 44.453125 7.46875 
Q 49.3125 8.734375 54.109375 11.28125 
L 54.109375 2.78125 
Q 49.265625 0.734375 44.1875 -0.34375 
Q 39.109375 -1.421875 33.890625 -1.421875 
Q 20.796875 -1.421875 13.15625 6.1875 
Q 5.515625 13.8125 5.515625 26.8125 
Q 5.515625 40.234375 12.765625 48.109375 
Q 20.015625 56 32.328125 56 
Q 43.359375 56 49.78125 48.890625 
Q 56.203125 41.796875 56.203125 29.59375 
z
M 47.21875 32.234375 
Q 47.125 39.59375 43.09375 43.984375 
Q 39.0625 48.390625 32.421875 48.390625 
Q 24.90625 48.390625 20.390625 44.140625 
Q 15.875 39.890625 15.1875 32.171875 
z
" id="DejaVuSans-101"/>
      <path id="DejaVuSans-32"/>
      <path d="M 33.796875 -14.703125 
L 28.90625 -14.703125 
L 28.859375 0 
Q 23.734375 0.09375 18.609375 1.1875 
Q 13.484375 2.296875 8.296875 4.5 
L 8.296875 13.28125 
Q 13.28125 10.15625 18.375 8.5625 
Q 23.484375 6.984375 28.90625 6.9375 
L 28.90625 29.203125 
Q 18.109375 30.953125 13.203125 35.15625 
Q 8.296875 39.359375 8.296875 46.6875 
Q 8.296875 54.640625 13.625 59.21875 
Q 18.953125 63.8125 28.90625 64.5 
L 28.90625 75.984375 
L 33.796875 75.984375 
L 33.796875 64.65625 
Q 38.328125 64.453125 42.578125 63.6875 
Q 46.828125 62.9375 50.875 61.625 
L 50.875 53.078125 
Q 46.828125 55.125 42.546875 56.25 
Q 38.28125 57.375 33.796875 57.5625 
L 33.796875 36.71875 
Q 44.875 35.015625 50.09375 30.609375 
Q 55.328125 26.21875 55.328125 18.609375 
Q 55.328125 10.359375 49.78125 5.59375 
Q 44.234375 0.828125 33.796875 0.09375 
z
M 28.90625 37.59375 
L 28.90625 57.625 
Q 23.25 56.984375 20.265625 54.390625 
Q 17.28125 51.8125 17.28125 47.515625 
Q 17.28125 43.3125 20.03125 40.96875 
Q 22.796875 38.625 28.90625 37.59375 
z
M 33.796875 28.21875 
L 33.796875 7.078125 
Q 39.984375 7.90625 43.140625 10.59375 
Q 46.296875 13.28125 46.296875 17.671875 
Q 46.296875 21.96875 43.28125 24.5 
Q 40.28125 27.046875 33.796875 28.21875 
z
" id="DejaVuSans-36"/>
     </defs>
     <g transform="translate(14.798438 172.342094)rotate(-90)scale(0.1 -0.1)">
      <use xlink:href="#DejaVuSans-80"/>
      <use x="58.552734" xlink:href="#DejaVuSans-114"/>
      <use x="99.666016" xlink:href="#DejaVuSans-105"/>
      <use x="127.449219" xlink:href="#DejaVuSans-99"/>
      <use x="182.429688" xlink:href="#DejaVuSans-101"/>
      <use x="243.953125" xlink:href="#DejaVuSans-32"/>
      <use x="275.740234" xlink:href="#DejaVuSans-36"/>
     </g>
    </g>
   </g>
   <g id="line2d_27">
    <path clip-path="url(#p191091b75b)" d="M 63.198352 271.35929 
L 63.443005 271.727058 
L 63.687658 272.812165 
L 63.932311 274.885369 
L 64.421617 275.96099 
L 64.66627 274.286546 
L 64.910923 274.549624 
L 65.155576 274.307412 
L 65.644882 272.815261 
L 65.889535 272.980402 
L 66.134188 272.916143 
L 66.378841 269.852418 
L 66.623494 269.124112 
L 66.868147 266.827099 
L 67.1128 265.937318 
L 67.357453 265.697925 
L 67.602106 266.265667 
L 67.846759 265.494831 
L 68.091412 265.85742 
L 68.336066 265.275377 
L 68.825372 265.976934 
L 69.070025 265.673576 
L 69.314678 265.672095 
L 69.803984 265.403752 
L 70.048637 265.952783 
L 70.29329 264.007106 
L 70.782596 264.479256 
L 71.027249 265.206137 
L 71.271902 264.753554 
L 71.761208 260.164009 
L 72.005861 261.174856 
L 72.250514 261.373089 
L 72.495167 259.933168 
L 72.73982 260.408565 
L 72.984473 260.015695 
L 73.229126 259.966094 
L 73.473779 258.957353 
L 73.718432 259.885744 
L 74.207738 257.45452 
L 74.452391 257.193961 
L 74.697044 257.518082 
L 74.941697 254.803469 
L 75.18635 254.723104 
L 75.431003 251.867075 
L 76.409615 260.23484 
L 76.654268 259.401146 
L 76.898921 257.168772 
L 77.143574 256.661044 
L 77.877533 254.532727 
L 78.122186 254.398231 
L 78.366839 255.008812 
L 78.611492 256.032408 
L 78.856145 257.651675 
L 79.100798 258.485646 
L 79.590104 253.937278 
L 79.834757 254.391373 
L 80.324063 253.168706 
L 80.568716 254.342492 
L 80.813369 256.608726 
L 81.302675 256.307949 
L 81.547328 251.808549 
L 81.791981 255.234506 
L 82.036634 255.991311 
L 82.281287 254.539125 
L 82.52594 251.805294 
L 83.259899 248.974216 
L 83.504552 248.865416 
L 83.749205 250.057106 
L 83.993858 249.085487 
L 84.238511 250.057787 
L 84.483164 248.516985 
L 84.727817 248.536385 
L 84.97247 250.060337 
L 85.217123 250.183359 
L 85.461776 249.565271 
L 85.706429 249.503791 
L 85.951082 252.283209 
L 86.440388 252.81546 
L 86.929694 254.390217 
L 87.174347 251.972312 
L 87.419 252.604582 
L 87.663653 254.830368 
L 87.908306 254.509391 
L 88.152959 255.721646 
L 88.397612 255.208549 
L 88.886918 256.608996 
L 89.131571 256.926291 
L 89.620877 251.283083 
L 90.110183 251.482424 
L 90.354836 252.208521 
L 90.599489 251.330436 
L 90.844143 251.320871 
L 91.088796 250.477247 
L 91.333449 250.338063 
L 91.578102 250.632212 
L 91.822755 249.746003 
L 92.067408 249.96419 
L 92.556714 246.656923 
L 92.801367 246.24733 
L 93.535326 241.963741 
L 93.779979 242.347077 
L 94.024632 243.128682 
L 94.269285 243.090721 
L 94.513938 243.690232 
L 94.758591 242.934932 
L 95.003244 244.814995 
L 95.247897 244.876507 
L 95.49255 244.295556 
L 95.737203 245.05187 
L 95.981856 243.705357 
L 96.226509 244.870742 
L 96.471162 242.938464 
L 96.715815 242.605965 
L 96.960468 242.809122 
L 97.205121 242.514664 
L 97.449774 242.437601 
L 97.694427 244.676738 
L 97.93908 248.772389 
L 98.183733 246.524478 
L 98.428386 249.861217 
L 98.673039 242.66586 
L 99.162345 240.556888 
L 99.406998 239.479985 
L 99.651651 236.897675 
L 99.896304 236.452496 
L 100.140957 236.347211 
L 100.38561 236.789524 
L 100.630263 234.46577 
L 100.874916 234.515371 
L 101.119569 235.790444 
L 101.364222 235.730104 
L 101.608875 236.721456 
L 101.853528 239.228888 
L 102.098181 238.879143 
L 102.342834 239.938974 
L 102.83214 239.617783 
L 103.076793 238.482441 
L 103.321446 238.526183 
L 103.566099 237.390144 
L 103.810752 238.160695 
L 104.055405 237.917201 
L 104.300058 238.026825 
L 104.544711 235.33033 
L 104.789364 236.591434 
L 105.034017 235.972823 
L 105.27867 237.186036 
L 105.523323 234.963845 
L 105.767976 234.996136 
L 106.012629 233.947249 
L 106.257282 233.502196 
L 106.501935 230.0571 
L 106.746588 232.743807 
L 106.991241 232.340596 
L 107.235894 231.62861 
L 107.480547 232.350779 
L 107.7252 229.317905 
L 107.969853 229.523486 
L 108.214506 230.546037 
L 108.459159 230.644448 
L 108.703812 230.466456 
L 108.948465 230.497195 
L 109.193118 229.853324 
L 109.437771 230.525639 
L 109.682424 231.715413 
L 110.17173 229.223532 
L 110.416383 226.533736 
L 110.661036 226.860106 
L 111.394995 224.813089 
L 112.128954 220.992179 
L 112.373607 223.233296 
L 112.61826 223.05733 
L 112.862913 223.385458 
L 113.107566 219.380712 
L 113.35222 217.366398 
L 113.596873 218.936958 
L 113.841526 218.83918 
L 114.086179 217.045571 
L 114.330832 217.777496 
L 114.575485 217.89469 
L 114.820138 219.476859 
L 115.064791 218.575794 
L 115.554097 226.672501 
L 116.043403 219.565689 
L 116.288056 221.872656 
L 116.532709 222.041225 
L 116.777362 224.568264 
L 117.266668 224.087562 
L 117.511321 224.949382 
L 117.755974 222.872448 
L 118.000627 225.266551 
L 118.24528 229.244643 
L 118.489933 229.446851 
L 118.734586 230.061962 
L 118.979239 228.813131 
L 119.223892 225.67833 
L 119.468545 224.459146 
L 119.713198 221.987696 
L 119.957851 223.042665 
L 120.447157 221.348576 
L 120.69181 220.158374 
L 120.936463 218.271248 
L 121.181116 217.292946 
L 121.425769 217.907391 
L 121.670422 216.994861 
L 121.915075 215.620537 
L 122.159728 215.831439 
L 122.404381 216.25508 
L 122.649034 215.765937 
L 122.893687 216.661237 
L 123.13834 216.939874 
L 123.872299 216.264519 
L 124.116952 218.783829 
L 124.361605 219.261633 
L 124.850911 219.671417 
L 125.095564 218.744126 
L 125.340217 219.60639 
L 125.58487 216.42536 
L 125.829523 217.478461 
L 126.074176 216.630276 
L 126.318829 219.084559 
L 126.563482 216.645622 
L 126.808135 218.784574 
L 127.297441 217.810041 
L 127.786747 226.506845 
L 128.0314 226.12872 
L 128.276053 226.468583 
L 128.765359 229.514823 
L 129.010012 229.052904 
L 129.254665 229.277172 
L 129.499318 226.208665 
L 129.743971 228.726265 
L 129.988624 226.969778 
L 130.233277 226.82414 
L 130.722583 229.133657 
L 130.967236 228.730208 
L 131.211889 231.002967 
L 131.456542 231.672162 
L 132.190501 227.072972 
L 132.435154 226.327617 
L 132.679807 226.798864 
L 133.169113 225.318164 
L 133.658419 219.845703 
L 134.147725 225.036977 
L 134.392378 224.796412 
L 134.637031 225.765497 
L 134.881684 224.83979 
L 135.37099 225.324594 
L 135.615643 224.579603 
L 135.860297 224.400201 
L 136.10495 225.284415 
L 136.349603 225.474666 
L 137.083562 228.705503 
L 137.572868 224.275072 
L 137.817521 224.19603 
L 138.062174 226.516997 
L 138.306827 227.089015 
L 138.55148 225.446381 
L 138.796133 227.607868 
L 139.040786 227.707673 
L 139.530092 226.793797 
L 139.774745 223.413299 
L 140.264051 224.81293 
L 140.508704 221.83764 
L 140.753357 221.068941 
L 140.99801 221.032959 
L 141.242663 222.86803 
L 141.487316 222.892482 
L 141.976622 224.148962 
L 142.221275 225.618909 
L 142.465928 226.183373 
L 142.710581 226.41594 
L 142.955234 224.719286 
L 143.689193 216.662441 
L 143.933846 217.316527 
L 144.178499 215.857555 
L 144.423152 217.097405 
L 144.667805 216.964216 
L 144.912458 218.346553 
L 145.646417 215.361665 
L 145.89107 215.388224 
L 146.625029 220.070178 
L 146.869682 219.70686 
L 147.114335 217.204131 
L 147.358988 217.765143 
L 147.603641 219.58691 
L 147.848294 218.852024 
L 148.092947 219.75388 
L 148.3376 218.875573 
L 148.582253 218.640868 
L 148.826906 219.49637 
L 149.071559 216.626142 
L 149.316212 216.79959 
L 149.560865 216.558011 
L 149.805518 215.437825 
L 150.050171 215.269478 
L 150.294824 213.439808 
L 150.539477 213.1781 
L 151.028783 211.781827 
L 151.273436 212.458702 
L 151.518089 212.761934 
L 151.762742 214.299728 
L 152.252048 212.733364 
L 152.496701 213.556067 
L 152.741354 212.539994 
L 152.986007 214.536476 
L 153.719966 214.008088 
L 153.964619 214.504691 
L 154.209272 215.639732 
L 154.453925 216.165379 
L 154.698578 216.097977 
L 154.943231 218.256535 
L 155.187884 218.724314 
L 155.432537 219.556535 
L 155.67719 223.308822 
L 155.921843 222.944665 
L 156.166496 223.073262 
L 156.411149 226.601836 
L 156.655802 226.992171 
L 156.900455 226.555132 
L 157.145108 224.718478 
L 157.389761 224.062492 
L 157.634414 224.15612 
L 157.879067 223.485564 
L 158.12372 222.249957 
L 158.613027 220.845496 
L 158.85768 221.543926 
L 159.102333 223.781685 
L 159.346986 221.933755 
L 159.591639 221.305056 
L 159.836292 220.996772 
L 160.080945 214.767158 
L 160.325598 213.092644 
L 160.570251 212.589675 
L 160.814904 212.358232 
L 161.059557 212.379169 
L 161.30421 210.596756 
L 161.548863 210.498725 
L 161.793516 211.646832 
L 162.038169 211.360609 
L 162.282822 212.229002 
L 162.772128 215.49107 
L 163.016781 219.074233 
L 163.261434 217.863523 
L 163.75074 217.036892 
L 163.995393 217.228014 
L 164.484699 215.745032 
L 164.729352 217.241839 
L 164.974005 217.664182 
L 165.218658 218.859404 
L 165.463311 219.307656 
L 165.707964 219.261174 
L 166.441923 216.760377 
L 166.931229 219.246984 
L 167.175882 222.416785 
L 167.420535 222.579716 
L 167.665188 221.221595 
L 168.154494 225.400136 
L 168.399147 224.904437 
L 168.6438 225.011321 
L 169.377759 220.948516 
L 169.622412 217.37495 
L 169.867065 219.580132 
L 170.111718 217.066935 
L 170.356371 217.833416 
L 170.601024 216.307184 
L 170.845677 217.654109 
L 171.09033 217.700591 
L 171.334983 218.072065 
L 171.579636 217.897509 
L 171.824289 219.314703 
L 172.068942 221.952094 
L 172.313595 222.678904 
L 172.558248 222.725386 
L 173.047554 220.175415 
L 173.53686 224.140125 
L 173.781513 224.323249 
L 174.026166 222.020399 
L 174.270819 223.793927 
L 174.515472 220.780295 
L 174.760125 220.522278 
L 175.249431 218.295542 
L 175.494084 217.252038 
L 175.738737 217.252751 
L 176.228043 216.100131 
L 176.472696 214.75726 
L 177.206655 215.821985 
L 177.451308 215.202883 
L 177.695961 215.272819 
L 177.940614 214.970902 
L 178.185267 216.868022 
L 178.42992 219.742541 
L 178.674573 220.590805 
L 179.408532 215.146249 
L 179.897838 216.199667 
L 180.142491 215.209788 
L 180.387144 215.747376 
L 180.631798 215.545834 
L 181.121104 214.273185 
L 181.365757 214.555892 
L 181.61041 212.874425 
L 181.855063 212.504883 
L 182.099716 212.39328 
L 182.589022 214.98875 
L 182.833675 215.009402 
L 183.078328 217.797704 
L 183.322981 217.418359 
L 183.567634 217.802582 
L 183.812287 216.929739 
L 184.301593 217.497418 
L 184.546246 216.461643 
L 184.790899 217.239179 
L 185.280205 214.473428 
L 185.524858 214.212925 
L 185.769511 214.505894 
L 186.014164 214.325669 
L 186.258817 214.397078 
L 186.50347 212.943126 
L 186.992776 217.052523 
L 187.237429 216.415066 
L 187.482082 216.395032 
L 187.726735 215.475343 
L 187.971388 215.519893 
L 188.216041 211.561724 
L 188.460694 210.636998 
L 188.705347 210.573143 
L 188.95 210.117353 
L 189.194653 208.645996 
L 189.683959 209.156456 
L 190.173265 194.377449 
L 190.417918 193.659968 
L 190.662571 193.851881 
L 190.907224 193.411785 
L 191.151877 192.468483 
L 191.39653 191.982001 
L 191.641183 190.682476 
L 191.885836 188.626035 
L 192.375142 197.882014 
L 192.619795 195.877804 
L 192.864448 192.400352 
L 193.109101 194.127145 
L 193.353754 198.080341 
L 193.598407 197.382149 
L 193.84306 197.462491 
L 194.087713 198.262848 
L 194.332366 197.182729 
L 195.066325 191.708273 
L 195.310978 191.186395 
L 195.800284 192.826274 
L 196.044937 189.661731 
L 196.28959 191.937673 
L 196.534243 190.057942 
L 196.778896 190.141783 
L 197.023549 192.325586 
L 197.268202 193.501613 
L 197.757508 188.851302 
L 198.002161 189.543777 
L 198.246814 191.249332 
L 198.491467 187.863592 
L 198.73612 189.996779 
L 198.980773 190.930278 
L 199.225426 194.699132 
L 199.470079 195.687744 
L 199.714732 200.059656 
L 200.204038 195.229213 
L 200.448691 191.959623 
L 200.693344 187.168742 
L 200.937997 188.860582 
L 201.18265 185.876613 
L 201.427303 185.455142 
L 201.671956 184.510763 
L 201.916609 182.127049 
L 202.161262 182.626851 
L 202.405915 180.312013 
L 202.650568 180.316986 
L 202.895221 183.217193 
L 203.139875 183.405828 
L 203.384528 183.853446 
L 203.629181 180.688554 
L 203.873834 180.065462 
L 204.118487 179.002906 
L 204.36314 179.053823 
L 204.852446 177.128212 
L 205.097099 178.782708 
L 205.341752 179.22263 
L 205.586405 183.336493 
L 206.320364 178.686514 
L 206.565017 178.478288 
L 206.80967 181.268935 
L 207.054323 179.814349 
L 207.298976 176.22086 
L 207.788282 178.79948 
L 208.522241 175.807402 
L 208.766894 174.193179 
L 209.2562 177.34312 
L 209.500853 174.533818 
L 209.745506 175.627556 
L 209.990159 175.023436 
L 210.234812 181.163428 
L 210.968771 171.195115 
L 211.213424 167.873278 
L 211.458077 167.32207 
L 211.70273 167.628849 
L 211.947383 167.214014 
L 212.192036 165.60413 
L 212.436689 166.168119 
L 212.681342 164.767047 
L 213.415301 172.974154 
L 213.904607 161.234942 
L 214.14926 165.100544 
L 214.393913 165.920602 
L 214.638566 167.238973 
L 214.883219 169.512033 
L 215.127872 172.913926 
L 215.372525 166.495519 
L 215.617178 168.33325 
L 215.861831 167.749702 
L 216.106484 162.438447 
L 216.351137 163.953039 
L 216.59579 161.896503 
L 216.840443 164.385691 
L 217.085096 165.173537 
L 217.329749 159.180845 
L 217.574402 166.036339 
L 217.819055 165.861514 
L 218.063708 160.075148 
L 218.308361 157.806807 
L 218.553014 156.646474 
L 218.797667 156.453611 
L 219.04232 157.896334 
L 219.286973 152.925892 
L 219.531626 153.813891 
L 219.776279 149.947624 
L 220.020932 150.464324 
L 220.265585 150.188062 
L 220.510238 150.155375 
L 220.754891 152.300804 
L 220.999544 149.541198 
L 221.244197 149.494843 
L 221.48885 140.186872 
L 221.733503 141.384532 
L 222.222809 144.418958 
L 222.467462 141.561147 
L 222.712115 141.826529 
L 222.956768 144.606453 
L 223.201421 142.075867 
L 223.446074 145.11194 
L 223.690727 143.361677 
L 223.93538 148.975942 
L 224.180033 147.82801 
L 224.424686 141.508236 
L 224.669339 144.355436 
L 224.913992 140.8395 
L 225.158645 142.712675 
L 225.403298 141.646667 
L 225.647952 143.530595 
L 225.892605 138.730592 
L 226.137258 141.785637 
L 226.381911 141.650611 
L 226.626564 146.744296 
L 226.871217 149.308077 
L 227.11587 146.192534 
L 227.360523 144.695933 
L 227.605176 146.851513 
L 227.849829 147.838145 
L 228.094482 144.913217 
L 228.339135 144.095883 
L 228.583788 145.455968 
L 228.828441 142.692419 
L 229.073094 144.781817 
L 229.317747 143.342055 
L 229.5624 144.95045 
L 229.807053 145.775386 
L 230.051706 147.069938 
L 230.296359 147.167716 
L 230.541012 149.786736 
L 230.785665 148.227151 
L 231.030318 147.607748 
L 231.274971 148.099235 
L 231.519624 146.094486 
L 231.764277 146.65903 
L 232.00893 151.504929 
L 232.253583 153.091627 
L 232.742889 160.5921 
L 232.987542 155.264217 
L 233.232195 154.33558 
L 233.476848 158.524305 
L 233.721501 157.890078 
L 234.210807 149.395798 
L 234.45546 150.677712 
L 234.700113 149.364283 
L 234.944766 152.074524 
L 235.189419 150.486337 
L 235.678725 145.472961 
L 235.923378 149.557067 
L 236.168031 149.939643 
L 236.412684 149.984224 
L 236.657337 149.710085 
L 236.90199 152.271299 
L 237.146643 149.676605 
L 237.391296 149.61823 
L 237.635949 151.260547 
L 237.880602 150.685805 
L 238.125255 150.869768 
L 238.369908 147.663843 
L 238.859214 153.50556 
L 239.34852 155.278137 
L 239.593173 152.237567 
L 239.837826 151.676539 
L 240.327132 154.283745 
L 240.816438 153.276778 
L 241.061091 150.419331 
L 241.550397 148.015441 
L 241.79505 147.755729 
L 242.039703 149.431511 
L 242.284356 149.599463 
L 242.529009 148.8689 
L 242.773662 153.191575 
L 243.018315 151.868278 
L 243.262968 149.870371 
L 243.507621 151.228762 
L 243.752274 151.593505 
L 243.996927 149.401911 
L 244.24158 152.394987 
L 244.486233 151.588612 
L 244.975539 144.322447 
L 245.464845 142.951624 
L 245.709498 144.640202 
L 245.954151 145.068167 
L 246.198804 147.209304 
L 246.443457 146.199644 
L 246.68811 144.036114 
L 246.932763 144.752233 
L 247.177416 146.835914 
L 247.422069 147.895729 
L 247.911375 141.228078 
L 248.156029 141.178429 
L 248.400682 139.909137 
L 248.645335 140.197783 
L 249.134641 137.809002 
L 249.379294 140.887914 
L 249.623947 139.927112 
L 249.8686 138.497154 
L 250.357906 138.256272 
L 250.602559 135.366834 
L 250.847212 133.899579 
L 251.091865 134.104226 
L 251.336518 127.680513 
L 251.581171 127.983476 
L 251.825824 132.692891 
L 252.31513 148.87411 
L 252.559783 152.04361 
L 252.804436 141.879108 
L 253.049089 138.537981 
L 253.293742 138.871589 
L 253.538395 140.866978 
L 253.783048 147.726843 
L 254.027701 140.658198 
L 254.272354 140.576067 
L 254.517007 145.25658 
L 254.76166 140.966165 
L 255.006313 146.061545 
L 255.250966 144.968013 
L 255.495619 142.967319 
L 255.740272 144.531338 
L 256.229578 138.112139 
L 256.474231 138.00828 
L 256.718884 143.727529 
L 256.963537 140.56902 
L 257.20819 142.231403 
L 257.452843 141.535903 
L 257.697496 141.193649 
L 257.942149 140.407307 
L 258.186802 145.872166 
L 258.431455 148.189965 
L 258.920761 139.671186 
L 259.165414 138.162723 
L 259.410067 135.244081 
L 259.65472 136.327367 
L 260.388679 130.883413 
L 260.633332 129.692721 
L 260.877985 130.293879 
L 261.122638 133.125528 
L 261.611944 127.959974 
L 261.856597 127.266976 
L 262.10125 127.715861 
L 262.345903 126.669191 
L 262.590556 124.521465 
L 262.835209 124.106677 
L 263.079862 123.291101 
L 263.569168 125.771705 
L 263.813821 126.122781 
L 264.058474 126.10327 
L 264.303127 124.511377 
L 264.54778 121.939884 
L 264.792433 122.579827 
L 265.281739 121.296694 
L 265.526392 124.423022 
L 265.771045 122.746655 
L 266.015698 123.878766 
L 266.260351 125.778816 
L 266.505004 133.555393 
L 266.749657 131.619361 
L 266.99431 120.580036 
L 267.483616 119.495705 
L 267.972922 107.79249 
L 268.462228 103.524976 
L 268.706881 103.393307 
L 268.951534 105.1624 
L 269.196187 103.833735 
L 269.44084 105.127875 
L 269.685493 111.105601 
L 269.930146 103.230312 
L 270.174799 104.630085 
L 270.419452 104.725773 
L 270.664106 108.5737 
L 270.908759 107.169398 
L 271.153412 111.712033 
L 271.398065 108.452547 
L 271.642718 110.092568 
L 271.887371 106.817467 
L 272.376677 112.207416 
L 272.62133 109.997388 
L 272.865983 108.880907 
L 273.110636 106.32636 
L 273.599942 107.19347 
L 273.844595 105.030731 
L 274.089248 105.760439 
L 275.06786 114.692281 
L 275.312513 122.298197 
L 275.557166 125.275182 
L 276.046472 117.974287 
L 276.291125 130.518401 
L 276.535778 134.017423 
L 276.780431 134.679491 
L 277.025084 133.739942 
L 277.269737 140.529855 
L 277.759043 127.595325 
L 278.003696 129.937403 
L 278.248349 128.938085 
L 278.493002 130.166692 
L 278.737655 128.75284 
L 278.982308 121.600749 
L 279.226961 120.2056 
L 279.716267 125.848182 
L 279.96092 131.364369 
L 280.450226 150.276687 
L 280.694879 145.971148 
L 280.939532 145.087915 
L 281.184185 147.38367 
L 281.918144 131.072888 
L 282.162797 133.707127 
L 282.896756 124.342808 
L 283.386062 119.521044 
L 283.630715 120.793266 
L 283.875368 125.198689 
L 284.120021 121.677369 
L 284.364674 121.948753 
L 284.609327 119.41313 
L 284.85398 122.018562 
L 285.343286 119.475418 
L 285.587939 120.975835 
L 285.832592 121.222244 
L 286.077245 115.894091 
L 286.321898 115.298459 
L 286.811204 111.894223 
L 287.30051 110.136627 
L 288.034469 112.390651 
L 288.279122 111.844843 
L 288.523775 110.537526 
L 289.013081 105.72376 
L 289.257734 105.766362 
L 289.502387 102.735563 
L 289.74704 102.799893 
L 289.991693 103.390393 
L 290.236346 101.583766 
L 290.480999 104.903496 
L 290.725652 105.307943 
L 290.970305 106.496766 
L 291.214958 103.582781 
L 291.459611 104.715035 
L 291.948917 102.204261 
L 292.19357 98.568202 
L 292.438223 101.548703 
L 292.682876 101.999108 
L 292.92753 103.166995 
L 293.172183 100.950569 
L 293.416836 100.999885 
L 293.661489 101.655318 
L 293.906142 100.775189 
L 294.150795 107.067059 
L 294.395448 104.534271 
L 294.640101 100.098156 
L 294.884754 103.430872 
L 295.129407 102.0349 
L 295.37406 102.953385 
L 295.618713 100.834737 
L 295.863366 99.736944 
L 296.108019 97.162379 
L 296.352672 103.836459 
L 296.597325 103.966545 
L 296.841978 106.147148 
L 297.086631 101.618195 
L 297.331284 108.616175 
L 297.575937 108.977513 
L 298.065243 108.80112 
L 298.309896 109.708773 
L 298.554549 105.677928 
L 298.799202 106.136727 
L 299.043855 104.356231 
L 299.288508 104.52233 
L 299.533161 108.28705 
L 299.777814 108.779043 
L 300.022467 107.600102 
L 300.26712 109.080296 
L 300.511773 114.346906 
L 300.756426 112.716767 
L 301.490385 114.981053 
L 301.735038 116.970313 
L 301.979691 122.360579 
L 302.468997 117.994368 
L 302.71365 118.534301 
L 302.958303 117.535585 
L 303.202956 117.273371 
L 303.447609 117.599139 
L 303.692262 116.196863 
L 304.181568 123.791377 
L 304.426221 117.804609 
L 304.670874 118.246288 
L 304.915527 117.594467 
L 305.16018 113.481095 
L 305.404833 114.120658 
L 305.649486 109.537987 
L 305.894139 110.477123 
L 306.138792 103.786382 
L 306.383445 102.228904 
L 306.628098 102.909897 
L 306.872751 105.434417 
L 307.117404 103.257932 
L 307.362057 102.838503 
L 307.60671 99.587823 
L 308.096016 97.484758 
L 308.340669 100.275309 
L 308.585322 99.194779 
L 308.829975 99.298701 
L 309.074628 98.79616 
L 309.319281 99.700297 
L 309.563934 96.241644 
L 309.808587 95.730171 
L 310.05324 94.642261 
L 310.297893 97.83086 
L 310.542546 98.02705 
L 310.787199 100.040065 
L 311.031852 98.2469 
L 311.276505 99.777519 
L 311.521158 99.984572 
L 311.765811 100.989401 
L 312.010464 97.992968 
L 312.255117 99.026431 
L 312.49977 98.047131 
L 312.744423 99.730673 
L 312.989076 99.996418 
L 313.233729 102.835653 
L 313.478382 101.475599 
L 313.723035 101.722308 
L 313.967688 99.831966 
L 314.212341 102.304098 
L 314.456994 101.410984 
L 314.701647 103.524786 
L 314.9463 101.704254 
L 315.190953 104.020517 
L 315.435607 104.039078 
L 315.68026 103.785115 
L 315.924913 101.915045 
L 316.414219 106.826874 
L 316.658872 109.903759 
L 316.903525 117.173091 
L 317.148178 115.342106 
L 317.392831 121.246269 
L 317.882137 118.707495 
L 318.12679 120.600925 
L 318.371443 120.247806 
L 318.616096 119.150901 
L 318.860749 116.569921 
L 319.105402 115.301975 
L 319.350055 117.325111 
L 319.594708 122.11661 
L 320.084014 116.294673 
L 320.328667 117.148258 
L 320.57332 115.446251 
L 321.062626 116.387573 
L 321.307279 117.635643 
L 321.551932 112.191136 
L 321.796585 116.329546 
L 322.285891 121.309585 
L 322.530544 119.603555 
L 322.775197 120.452563 
L 323.01985 120.162999 
L 323.264503 122.723406 
L 323.509156 121.42556 
L 323.753809 121.163663 
L 324.243115 119.761324 
L 324.487768 117.346712 
L 324.732421 126.622361 
L 325.221727 128.584143 
L 325.46638 125.979915 
L 325.955686 133.605802 
L 326.200339 132.687744 
L 326.444992 132.97723 
L 326.689645 131.485601 
L 326.934298 125.614237 
L 327.178951 124.561311 
L 327.423604 120.941057 
L 327.668257 114.708403 
L 327.91291 113.178734 
L 328.402216 124.503664 
L 328.646869 122.425131 
L 328.891522 115.031573 
L 329.136175 116.519179 
L 329.380828 116.633839 
L 329.625481 110.674897 
L 329.870134 110.360785 
L 330.114787 109.586511 
L 330.604093 113.503362 
L 330.848746 113.896691 
L 331.093399 113.727424 
L 331.338052 112.917169 
L 331.582705 113.29843 
L 331.827358 115.191654 
L 332.072011 107.3647 
L 332.316664 107.407618 
L 332.561317 105.671023 
L 332.80597 103.055376 
L 333.050623 99.117716 
L 333.295276 100.438937 
L 333.539929 100.609882 
L 333.784582 101.996543 
L 334.029235 101.243016 
L 334.273888 97.825698 
L 334.518541 98.498645 
L 334.763194 101.366957 
L 335.007847 101.940194 
L 335.2525 101.525739 
L 335.497153 102.008832 
L 335.741806 101.980009 
L 335.986459 104.167992 
L 336.231112 103.615659 
L 336.475765 101.103143 
L 336.720418 104.497434 
L 336.965071 105.156572 
L 337.209724 103.545501 
L 337.454377 99.993124 
L 337.943684 102.154375 
L 338.188337 102.136035 
L 338.43299 100.328236 
L 338.677643 99.956192 
L 338.922296 101.605653 
L 339.166949 101.172383 
L 339.411602 96.129771 
L 339.656255 96.306259 
L 339.900908 97.492834 
L 340.145561 95.323634 
L 340.390214 95.617348 
L 340.634867 95.330444 
L 340.87952 96.998085 
L 341.124173 97.212044 
L 341.368826 98.084127 
L 341.613479 95.949387 
L 341.858132 99.016549 
L 342.102785 98.695943 
L 342.836744 92.297776 
L 343.081397 92.19569 
L 343.570703 87.432793 
L 343.815356 88.809856 
L 344.304662 81.651479 
L 344.549315 81.246557 
L 344.793968 82.342702 
L 345.038621 79.608531 
L 345.527927 81.879247 
L 346.017233 75.564731 
L 346.261886 75.923598 
L 346.506539 77.269272 
L 346.751192 79.46207 
L 346.995845 77.425077 
L 347.240498 78.077152 
L 347.485151 77.534068 
L 347.729804 76.269796 
L 347.974457 76.847437 
L 348.708416 72.132146 
L 349.197722 78.009623 
L 349.687028 75.065959 
L 349.931681 75.682273 
L 350.176334 77.387353 
L 350.420987 76.730179 
L 350.66564 77.305729 
L 351.399599 78.267006 
L 351.644252 78.847719 
L 351.888905 78.056659 
L 352.133558 76.42652 
L 352.378211 76.994975 
L 352.622864 74.776933 
L 352.867517 74.723815 
L 353.11217 78.258771 
L 353.356823 79.406672 
L 353.601476 76.474569 
L 353.846129 75.596405 
L 354.090782 76.746998 
L 355.069394 64.920366 
L 355.314047 62.574994 
L 355.5587 58.742935 
L 355.803353 58.884233 
L 356.048006 62.795256 
L 356.292659 61.024674 
L 356.537312 60.949194 
L 356.781965 61.093565 
L 357.515924 55.245956 
L 357.760577 54.291236 
L 358.00523 58.34362 
L 358.249883 56.602621 
L 358.494536 55.765792 
L 358.739189 53.997015 
L 358.983842 58.579212 
L 359.228495 59.185074 
L 359.473148 57.771554 
L 359.717801 58.592832 
L 359.962454 61.058597 
L 360.207107 60.548992 
L 360.451761 57.437772 
L 360.941067 62.760572 
L 361.18572 63.466208 
L 361.430373 60.014112 
L 361.675026 59.664873 
L 362.164332 62.278746 
L 362.408985 60.738023 
L 362.653638 63.628379 
L 362.898291 64.663394 
L 363.142944 66.384913 
L 363.387597 62.631817 
L 363.63225 56.906091 
L 363.876903 56.767295 
L 364.121556 56.979321 
L 364.366209 52.573993 
L 365.100168 59.630602 
L 365.344821 68.260526 
L 365.589474 67.810817 
L 366.07878 64.220875 
L 366.323433 66.393306 
L 366.568086 63.647922 
L 366.812739 62.537143 
L 367.057392 65.398296 
L 367.302045 66.807762 
L 367.546698 66.357895 
L 368.036004 69.679367 
L 368.280657 65.378215 
L 368.52531 63.996781 
L 368.769963 64.880456 
L 369.014616 62.817174 
L 369.259269 66.379401 
L 369.503922 64.281151 
L 369.748575 77.385833 
L 369.993228 77.853311 
L 370.237881 81.985894 
L 370.482534 77.111504 
L 370.727187 77.669253 
L 370.97184 75.677617 
L 371.216493 74.892195 
L 371.461146 71.56746 
L 371.705799 71.280999 
L 371.950452 69.866561 
L 372.195105 69.318789 
L 372.439758 65.298998 
L 372.684411 64.196803 
L 372.929064 64.314725 
L 373.173717 60.160858 
L 373.41837 62.472148 
L 373.663023 60.663684 
L 373.907676 62.151131 
L 374.152329 70.818082 
L 374.396982 66.383741 
L 374.886288 76.183674 
L 375.130941 72.179942 
L 375.375594 70.729427 
L 375.8649 74.166415 
L 376.354206 68.001527 
L 376.598859 71.401076 
L 376.843512 70.839653 
L 377.088165 71.22728 
L 377.332818 69.15741 
L 377.577471 64.595675 
L 377.822124 57.552337 
L 378.31143 51.298414 
L 378.556083 54.116395 
L 378.800736 50.742755 
L 379.045389 50.581692 
L 379.779348 54.741325 
L 380.024001 54.908722 
L 380.268654 52.833974 
L 380.513307 52.017859 
L 380.75796 50.512073 
L 381.002613 48.115484 
L 381.247266 47.820123 
L 381.491919 48.419872 
L 381.981225 42.910258 
L 382.225878 42.003967 
L 382.470531 39.251615 
L 382.715184 38.963982 
L 382.959838 37.424875 
L 383.204491 38.047112 
L 383.449144 38.133551 
L 383.693797 39.156466 
L 383.93845 39.269004 
L 384.183103 40.483294 
L 384.427756 40.463719 
L 384.672409 41.534779 
L 384.917062 43.372351 
L 385.161715 42.967018 
L 385.406368 43.305361 
L 385.651021 42.84881 
L 386.140327 37.714376 
L 386.38498 37.779719 
L 386.629633 34.414125 
L 386.874286 35.257638 
L 387.118939 39.41784 
L 387.363592 38.047081 
L 387.608245 38.532581 
L 387.852898 44.100412 
L 387.852898 44.100412 
" style="fill:none;stroke:#1f77b4;stroke-linecap:square;stroke-width:1.5;"/>
   </g>
   <g id="line2d_28">
    <path clip-path="url(#p191091b75b)" d="M 63.198352 271.518284 
L 63.443005 272.473149 
L 63.687658 274.694248 
L 64.176964 276.334125 
L 64.421617 274.465911 
L 64.66627 275.067891 
L 65.400229 272.680728 
L 65.644882 272.86755 
L 65.889535 273.36574 
L 66.134188 269.44249 
L 66.378841 268.84051 
L 66.623494 266.121221 
L 66.868147 265.249387 
L 67.357453 266.100463 
L 67.602106 265.436209 
L 67.846759 265.62303 
L 68.091412 264.771955 
L 68.336066 265.373935 
L 68.580719 265.664546 
L 68.825372 265.02105 
L 69.070025 265.477725 
L 69.314678 265.207871 
L 69.559331 265.12484 
L 69.803984 265.643788 
L 70.048637 263.339657 
L 70.29329 264.149217 
L 70.537943 264.066185 
L 70.782596 265.270145 
L 71.027249 264.585133 
L 71.516555 259.582471 
L 71.761208 260.724157 
L 72.005861 260.827947 
L 72.250514 259.561713 
L 72.495167 259.956114 
L 72.73982 259.665503 
L 72.984473 259.727776 
L 73.229126 259.042764 
L 73.473779 260.184451 
L 73.963085 257.693499 
L 74.207738 257.27834 
L 74.452391 257.77653 
L 74.697044 254.787388 
L 74.941697 254.849661 
L 75.18635 251.819003 
L 75.920309 259.001249 
L 76.164962 260.516578 
L 76.409615 259.374891 
L 76.654268 257.112276 
L 76.898921 256.67636 
L 77.388227 254.725114 
L 77.877533 254.226923 
L 78.122186 254.828904 
L 78.366839 255.804527 
L 78.856145 258.378511 
L 79.345451 253.770249 
L 79.590104 254.268439 
L 80.07941 253.022963 
L 80.324063 254.330713 
L 80.568716 256.67636 
L 80.813369 256.46878 
L 81.058022 256.053622 
L 81.302675 251.44536 
L 81.547328 255.410126 
L 81.791981 255.8668 
L 82.52594 250.532011 
L 82.770593 249.971547 
L 83.015246 248.456217 
L 83.259899 248.767586 
L 83.504552 249.826241 
L 83.749205 248.435459 
L 83.993858 249.660178 
L 84.238511 247.937269 
L 84.483164 248.12409 
L 84.727817 249.660178 
L 84.97247 250.116852 
L 85.217123 249.452598 
L 85.461776 249.224261 
L 85.706429 252.15113 
L 85.951082 252.462499 
L 86.195735 252.379467 
L 86.685041 254.185408 
L 86.929694 251.590666 
L 87.174347 252.234162 
L 87.419 254.787388 
L 87.663653 254.372229 
L 87.908306 255.721495 
L 88.152959 255.202546 
L 88.397612 256.095138 
L 88.642265 256.240443 
L 88.886918 257.112276 
L 89.376224 251.237781 
L 89.86553 251.860519 
L 90.110183 252.566289 
L 90.354836 251.777487 
L 90.599489 251.881277 
L 90.844143 250.94717 
L 91.088796 250.781106 
L 91.333449 251.237781 
L 91.578102 250.262158 
L 91.822755 250.448979 
L 92.067408 247.978785 
L 92.801367 245.051916 
L 93.04602 243.204459 
L 93.290673 242.228837 
L 93.535326 242.727027 
L 93.779979 243.515829 
L 94.024632 243.432797 
L 94.269285 244.097051 
L 94.513938 243.308249 
L 94.758591 245.259495 
L 95.003244 245.197221 
L 95.247897 244.615999 
L 95.49255 245.363285 
L 95.737203 243.910229 
L 95.981856 245.217979 
L 96.226509 243.266733 
L 96.471162 242.99688 
L 96.715815 243.225217 
L 96.960468 242.851575 
L 97.205121 242.789301 
L 97.449774 245.093432 
L 97.694427 249.369566 
L 97.93908 246.878614 
L 98.183733 250.324431 
L 98.428386 242.768543 
L 99.162345 239.717126 
L 99.406998 237.101626 
L 99.651651 236.727984 
L 99.896304 236.707226 
L 100.140957 237.184658 
L 100.38561 234.859769 
L 100.630263 234.963559 
L 100.874916 236.146761 
L 101.119569 236.126003 
L 101.364222 237.205416 
L 101.608875 239.67561 
L 101.853528 239.052872 
L 102.098181 240.215317 
L 102.587487 239.88319 
L 102.83214 238.616956 
L 103.076793 238.803777 
L 103.321446 237.599817 
L 103.566099 238.430134 
L 103.810752 238.160281 
L 104.055405 238.388618 
L 104.300058 235.586297 
L 104.544711 236.956321 
L 104.789364 236.271309 
L 105.034017 237.579059 
L 105.27867 235.171138 
L 105.523323 235.212654 
L 105.767976 234.195515 
L 106.012629 233.759599 
L 106.257282 230.189234 
L 106.501935 233.074587 
L 106.991241 231.891384 
L 107.235894 232.555638 
L 107.480547 229.400432 
L 107.7252 229.691043 
L 107.969853 230.687424 
L 108.214506 230.895004 
L 108.459159 230.708182 
L 108.703812 230.749698 
L 108.948465 230.085444 
L 109.193118 230.749698 
L 109.437771 231.974416 
L 109.927077 229.483464 
L 110.17173 226.784932 
L 110.416383 227.179333 
L 111.150342 225.228087 
L 111.884301 221.346353 
L 112.128954 223.692 
L 112.373607 223.463663 
L 112.61826 223.671242 
L 112.862913 219.623444 
L 113.107566 217.589167 
L 113.35222 219.208286 
L 113.596873 219.042222 
L 113.841526 217.319314 
L 114.086179 218.004325 
L 114.330832 218.108115 
L 114.575485 219.727234 
L 114.820138 218.855401 
L 115.309444 227.117059 
L 115.79875 219.561171 
L 116.043403 221.657722 
L 116.288056 221.906817 
L 116.532709 224.418528 
L 117.022015 224.024127 
L 117.266668 224.958234 
L 117.511321 222.778651 
L 117.755974 225.394151 
L 118.000627 229.670285 
L 118.24528 229.774075 
L 118.489933 230.417571 
L 118.734586 229.109821 
L 118.979239 225.933857 
L 119.223892 224.688381 
L 119.468545 222.197428 
L 119.713198 223.442905 
L 120.447157 220.495278 
L 120.69181 218.56479 
L 120.936463 217.568409 
L 121.181116 218.191147 
L 121.425769 217.236282 
L 121.670422 215.824742 
L 122.159728 216.488996 
L 122.404381 216.032322 
L 122.649034 216.904155 
L 122.893687 217.174008 
L 123.13834 216.945671 
L 123.382993 216.55127 
L 123.627646 216.385206 
L 123.872299 219.042222 
L 124.116952 219.561171 
L 124.606258 219.851782 
L 124.850911 218.959191 
L 125.095564 219.76875 
L 125.340217 216.468238 
L 125.58487 217.651441 
L 125.829523 216.841881 
L 126.074176 219.374349 
L 126.318829 216.862639 
L 126.563482 219.083738 
L 127.052788 218.108115 
L 127.542094 227.034028 
L 127.786747 226.535837 
L 128.0314 226.888722 
L 128.520706 229.960896 
L 128.765359 229.400432 
L 129.010012 229.62877 
L 129.254665 226.432047 
L 129.499318 229.151337 
L 129.743971 227.262365 
L 129.988624 227.220849 
L 130.47793 229.608012 
L 130.722583 229.109821 
L 130.967236 231.496984 
L 131.211889 232.098964 
L 131.945848 227.241607 
L 132.190501 226.494321 
L 132.435154 227.096301 
L 132.92446 225.664004 
L 133.413766 220.038603 
L 133.903072 225.435666 
L 134.147725 225.165813 
L 134.392378 226.245226 
L 134.637031 225.10354 
L 135.126337 225.560214 
L 135.37099 224.709139 
L 135.615643 224.584591 
L 135.860297 225.49794 
L 136.10495 225.70552 
L 136.594256 228.839968 
L 136.838909 229.109821 
L 137.328215 224.584591 
L 137.572868 224.522317 
L 137.817521 226.950996 
L 138.062174 227.449186 
L 138.306827 225.788551 
L 138.55148 227.968135 
L 138.796133 228.11344 
L 139.285439 227.158575 
L 139.530092 223.629726 
L 139.774745 224.729897 
L 140.019398 225.124297 
L 140.264051 222.135155 
L 140.508704 221.346353 
L 140.753357 221.325595 
L 140.99801 223.193809 
L 141.242663 223.173051 
L 141.731969 224.377012 
L 141.976622 225.892341 
L 142.465928 226.556595 
L 142.710581 224.875202 
L 143.44454 216.883397 
L 143.689193 217.630683 
L 143.933846 216.156869 
L 144.178499 217.464619 
L 144.423152 217.298556 
L 144.667805 218.647821 
L 145.401764 215.575647 
L 145.646417 215.554889 
L 146.135723 219.623444 
L 146.380376 220.26694 
L 146.625029 219.976329 
L 146.869682 217.277798 
L 147.114335 217.775988 
L 147.358988 219.831024 
L 147.603641 219.021464 
L 147.848294 219.997087 
L 148.092947 219.000706 
L 148.3376 218.813885 
L 148.582253 219.810266 
L 148.826906 216.841881 
L 149.071559 217.04946 
L 149.316212 216.862639 
L 149.560865 215.783226 
L 149.805518 215.617163 
L 150.050171 213.728191 
L 150.294824 213.541369 
L 150.78413 212.088314 
L 151.028783 212.752568 
L 151.273436 213.022421 
L 151.518089 214.662298 
L 152.007395 212.939389 
L 152.252048 213.686675 
L 152.496701 212.773326 
L 152.741354 214.932151 
L 153.23066 214.724572 
L 153.475313 214.330171 
L 153.719966 214.869877 
L 153.964619 215.990806 
L 154.209272 216.530512 
L 154.453925 216.44748 
L 154.698578 218.689337 
L 154.943231 219.146012 
L 155.187884 219.976329 
L 155.432537 223.837305 
L 155.67719 223.318357 
L 155.921843 223.484421 
L 156.166496 227.137817 
L 156.411149 227.386912 
L 156.655802 226.784932 
L 156.900455 224.916718 
L 157.145108 224.314738 
L 157.389761 224.39777 
L 157.634414 223.79579 
L 157.879067 222.591829 
L 158.368374 221.242563 
L 158.613027 221.989849 
L 158.85768 224.314738 
L 159.102333 222.176671 
L 159.346986 221.636964 
L 159.591639 221.367111 
L 159.836292 214.911393 
L 160.080945 213.416822 
L 160.325598 212.856357 
L 160.570251 212.73181 
L 160.814904 212.794084 
L 161.059557 210.988143 
L 161.30421 210.905111 
L 161.548863 211.943008 
L 161.793516 211.652397 
L 162.038169 212.420441 
L 162.527475 215.783226 
L 162.772128 219.436623 
L 163.016781 218.232663 
L 163.506087 217.319314 
L 163.75074 217.464619 
L 164.240046 216.073837 
L 164.484699 217.651441 
L 164.729352 218.045841 
L 164.974005 219.291317 
L 165.218658 219.685718 
L 165.463311 219.602687 
L 166.19727 217.04946 
L 166.686576 219.602687 
L 166.931229 222.903198 
L 167.175882 222.944714 
L 167.420535 221.595448 
L 167.909841 225.871583 
L 168.154494 225.311119 
L 168.399147 225.477182 
L 169.133106 221.18029 
L 169.377759 217.630683 
L 169.622412 220.017845 
L 169.867065 217.423103 
L 170.111718 218.232663 
L 170.356371 216.592786 
L 170.601024 217.942052 
L 170.845677 217.96281 
L 171.09033 218.336452 
L 171.334983 218.191147 
L 171.579636 219.66496 
L 171.824289 222.301218 
L 172.068942 223.006988 
L 172.313595 223.069262 
L 172.802901 220.536794 
L 173.292207 224.605349 
L 173.53686 224.750655 
L 173.781513 222.425766 
L 174.026166 224.210948 
L 174.270819 221.18029 
L 174.515472 220.931194 
L 175.004778 218.647821 
L 175.249431 217.589167 
L 175.494084 217.609925 
L 175.98339 216.468238 
L 176.228043 215.202004 
L 176.962002 216.156869 
L 177.206655 215.617163 
L 177.451308 215.679437 
L 177.695961 215.409583 
L 177.940614 217.340072 
L 178.185267 220.204667 
L 178.42992 220.951952 
L 179.163879 215.471857 
L 179.653185 216.592786 
L 179.897838 215.617163 
L 180.142491 216.05308 
L 180.387144 215.8455 
L 180.631798 215.388826 
L 180.876451 214.600024 
L 181.121104 214.952909 
L 181.365757 213.167726 
L 181.855063 212.690294 
L 182.344369 215.368068 
L 182.589022 215.430341 
L 182.833675 218.191147 
L 183.078328 217.75523 
L 183.322981 218.066599 
L 183.567634 217.236282 
L 184.05694 217.879778 
L 184.301593 216.779607 
L 184.546246 217.547651 
L 185.035552 214.828361 
L 185.280205 214.454718 
L 185.524858 214.807603 
L 185.769511 214.724572 
L 186.014164 214.911393 
L 186.258817 213.292274 
L 186.748123 217.464619 
L 186.992776 216.883397 
L 187.237429 216.883397 
L 187.482082 215.866258 
L 187.726735 215.970048 
L 187.971388 211.901492 
L 188.216041 210.967385 
L 188.460694 210.884353 
L 188.705347 210.469195 
L 188.95 208.933108 
L 189.439306 209.493572 
L 189.683959 199.86189 
L 189.928612 194.63089 
L 190.173265 193.800572 
L 190.417918 194.049668 
L 190.662571 193.696783 
L 191.39653 190.977493 
L 191.641183 188.922457 
L 192.130489 198.263529 
L 192.375142 196.333041 
L 192.619795 192.845707 
L 192.864448 194.485584 
L 193.109101 198.408834 
L 193.353754 197.74458 
L 193.598407 197.806854 
L 193.84306 198.595656 
L 194.087713 197.474727 
L 194.821672 191.849326 
L 195.066325 191.330378 
L 195.555631 193.094803 
L 195.800284 189.918838 
L 196.044937 192.243727 
L 196.28959 190.292481 
L 196.534243 190.209449 
L 197.023549 194.070426 
L 197.512855 188.839426 
L 197.757508 189.420648 
L 198.002161 191.060525 
L 198.246814 187.697739 
L 198.491467 189.815049 
L 198.73612 190.894461 
L 198.980773 194.942259 
L 199.225426 195.980156 
L 199.470079 200.650691 
L 199.959385 195.689545 
L 200.204038 192.347517 
L 200.448691 187.469402 
L 200.693344 189.254584 
L 200.937997 186.223926 
L 201.18265 185.829525 
L 201.427303 184.833144 
L 201.671956 182.508255 
L 201.916609 182.86114 
L 202.161262 180.577767 
L 202.405915 180.577767 
L 202.650568 183.546152 
L 203.139875 184.189648 
L 203.384528 181.0552 
L 203.873834 179.249259 
L 204.118487 179.290775 
L 204.607793 177.505593 
L 204.852446 179.083196 
L 205.097099 179.519113 
L 205.341752 183.774489 
L 206.075711 179.000164 
L 206.320364 178.751069 
L 206.565017 181.636422 
L 206.80967 180.204124 
L 207.054323 176.675275 
L 207.543629 179.249259 
L 208.277588 176.177085 
L 208.522241 174.537208 
L 209.011547 177.63014 
L 209.2562 174.869335 
L 209.500853 175.886474 
L 209.745506 175.32601 
L 209.990159 181.532632 
L 210.724118 171.423518 
L 210.968771 168.164522 
L 211.213424 167.624815 
L 211.458077 168.039974 
L 211.70273 167.645573 
L 211.947383 166.026454 
L 212.192036 166.566161 
L 212.436689 165.113105 
L 213.170648 173.457795 
L 213.659954 161.480466 
L 213.904607 165.279169 
L 214.393913 167.687089 
L 214.638566 169.949704 
L 214.883219 173.333248 
L 215.127872 166.87753 
L 215.372525 168.68347 
L 215.617178 168.102248 
L 215.861831 162.829732 
L 216.106484 164.282788 
L 216.351137 162.227752 
L 216.59579 164.718704 
L 216.840443 165.590538 
L 217.085096 159.612252 
L 217.329749 166.254792 
L 217.574402 166.234034 
L 217.819055 160.401054 
L 218.063708 157.972375 
L 218.308361 156.768415 
L 218.553014 156.664625 
L 218.797667 158.117681 
L 219.04232 153.281082 
L 219.286973 154.028367 
L 219.531626 150.188149 
L 219.776279 150.748614 
L 220.020932 150.520276 
L 220.265585 150.541034 
L 220.510238 152.720617 
L 220.754891 150.022086 
L 220.999544 149.939054 
L 221.244197 140.660257 
L 221.48885 141.573606 
L 221.978156 144.811844 
L 222.222809 141.968007 
L 222.467462 142.071796 
L 222.712115 144.791086 
L 222.956768 142.403923 
L 223.201421 145.434582 
L 223.446074 143.773947 
L 223.690727 149.357832 
L 223.93538 148.299177 
L 224.180033 142.009523 
L 224.424686 144.666538 
L 224.669339 141.179205 
L 224.913992 143.088935 
L 225.158645 142.051038 
L 225.403298 143.960769 
L 225.647952 139.12417 
L 225.892605 142.071796 
L 226.137258 141.905733 
L 226.381911 147.032943 
L 226.626564 149.752233 
L 226.871217 146.6593 
L 227.11587 145.060939 
L 227.360523 147.178249 
L 227.605176 148.17463 
L 227.849829 145.247761 
L 228.094482 144.396685 
L 228.339135 145.745951 
L 228.583788 143.068177 
L 228.828441 145.185487 
L 229.073094 143.794705 
L 229.317747 145.45534 
L 229.5624 146.264899 
L 229.807053 147.510376 
L 230.051706 147.676439 
L 230.296359 150.312697 
L 230.541012 148.735094 
L 230.785665 148.091598 
L 231.030318 148.465241 
L 231.274971 146.451721 
L 231.519624 146.991427 
L 231.764277 151.78651 
L 232.00893 153.467903 
L 232.498236 160.94076 
L 232.742889 155.605971 
L 232.987542 154.547316 
L 233.232195 158.698903 
L 233.476848 158.179955 
L 233.966154 149.544653 
L 234.210807 150.727856 
L 234.45546 149.440864 
L 234.700113 152.201669 
L 234.944766 150.644824 
L 235.434072 145.683677 
L 235.678725 149.814506 
L 235.923378 150.312697 
L 236.168031 150.499518 
L 236.412684 150.188149 
L 236.657337 152.741375 
L 236.90199 150.188149 
L 237.146643 150.125875 
L 237.391296 151.724237 
L 237.635949 151.205288 
L 237.880602 151.371352 
L 238.125255 148.112356 
L 238.614561 153.90382 
L 239.103867 155.647486 
L 239.34852 152.637586 
L 239.593173 151.99409 
L 240.082479 154.651105 
L 240.571785 153.69624 
L 240.816438 150.831645 
L 241.305744 148.299177 
L 241.550397 148.07084 
L 241.79505 149.793748 
L 242.039703 150.022086 
L 242.284356 149.2748 
L 242.529009 153.550935 
L 242.773662 152.326217 
L 243.018315 150.374971 
L 243.262968 151.578931 
L 243.507621 151.931816 
L 243.752274 149.689959 
L 243.996927 152.59607 
L 244.24158 151.807268 
L 244.730886 144.500475 
L 244.975539 143.54561 
L 245.220192 143.088935 
L 245.464845 144.85336 
L 245.709498 145.393066 
L 245.954151 147.593407 
L 246.198804 146.6593 
L 246.443457 144.500475 
L 246.68811 145.143971 
L 246.932763 147.219764 
L 247.177416 148.299177 
L 247.666722 141.449058 
L 247.911375 141.262237 
L 248.156029 140.079035 
L 248.400682 140.369646 
L 248.889988 138.065515 
L 249.134641 141.054658 
L 249.379294 140.286614 
L 249.623947 138.895832 
L 249.8686 138.709011 
L 250.113253 138.709011 
L 250.602559 134.432876 
L 250.847212 134.536666 
L 251.091865 128.101706 
L 251.336518 128.184737 
L 251.581171 132.792999 
L 252.070477 149.399348 
L 252.31513 152.658344 
L 252.559783 142.362407 
L 252.804436 138.771285 
L 253.049089 139.061896 
L 253.293742 141.262237 
L 253.538395 148.299177 
L 253.783048 141.220721 
L 254.027701 140.971626 
L 254.272354 145.496856 
L 254.517007 141.324511 
L 254.76166 146.430963 
L 255.006313 145.35155 
L 255.250966 143.379546 
L 255.495619 144.85336 
L 255.984925 138.439158 
L 256.229578 138.252336 
L 256.474231 144.0438 
L 256.718884 141.013142 
L 256.963537 142.632261 
L 257.20819 141.864217 
L 257.452843 141.511332 
L 257.697496 140.681015 
L 257.942149 146.16111 
L 258.186802 148.631304 
L 258.676108 140.079035 
L 258.920761 138.459916 
L 259.165414 135.574562 
L 259.410067 136.653975 
L 260.144026 131.153122 
L 260.388679 129.96992 
L 260.633332 130.5719 
L 260.877985 133.353463 
L 261.367291 128.226253 
L 261.611944 127.478968 
L 261.856597 127.997916 
L 262.10125 127.063809 
L 262.345903 124.863468 
L 262.590556 124.344519 
L 262.835209 123.514202 
L 263.569168 126.378797 
L 263.813821 126.358039 
L 264.058474 124.759678 
L 264.303127 122.164936 
L 264.54778 122.746158 
L 265.037086 121.500682 
L 265.281739 124.572857 
L 265.526392 122.995253 
L 265.771045 124.13694 
L 266.015698 126.005154 
L 266.260351 133.913928 
L 266.505004 132.170261 
L 266.749657 121.085523 
L 267.238963 119.673984 
L 267.728269 107.966508 
L 268.217575 103.503552 
L 268.462228 103.31673 
L 268.706881 105.101913 
L 268.951534 103.960226 
L 269.196187 105.247218 
L 269.44084 111.225504 
L 269.685493 103.752647 
L 269.930146 104.998123 
L 270.174799 105.184945 
L 270.419452 109.211984 
L 270.664106 107.883476 
L 270.908759 112.242643 
L 271.153412 108.983647 
L 271.398065 110.478218 
L 271.642718 107.13619 
L 272.132024 112.554012 
L 272.865983 106.700274 
L 273.355289 107.592865 
L 273.599942 105.475556 
L 273.844595 106.202083 
L 274.823207 115.065722 
L 275.06786 122.704642 
L 275.312513 125.818333 
L 275.801819 118.366234 
L 276.046472 131.007817 
L 276.291125 134.702729 
L 276.535778 135.512289 
L 276.780431 134.412118 
L 277.025084 141.262237 
L 277.51439 128.184737 
L 277.759043 130.364321 
L 278.003696 129.347182 
L 278.248349 130.654932 
L 278.493002 129.181118 
L 278.737655 121.957357 
L 278.982308 120.400511 
L 279.471614 126.04667 
L 279.716267 131.609797 
L 280.205573 150.831645 
L 280.450226 146.6593 
L 280.694879 145.683677 
L 280.939532 147.884018 
L 281.673491 131.402217 
L 281.918144 133.976201 
L 282.652103 124.510583 
L 283.141409 119.673984 
L 283.386062 120.91946 
L 283.630715 125.361658 
L 283.875368 122.081904 
L 284.120021 122.310242 
L 284.364674 119.798531 
L 284.609327 122.372515 
L 285.098633 119.964595 
L 285.343286 121.396892 
L 285.587939 121.687503 
L 285.832592 116.352714 
L 286.077245 115.563912 
L 286.566551 112.221885 
L 287.055857 110.353671 
L 287.789816 112.699317 
L 288.034469 112.201127 
L 288.279122 110.914135 
L 288.768428 106.056778 
L 289.013081 106.03602 
L 289.257734 103.088393 
L 289.502387 103.088393 
L 289.74704 103.648857 
L 289.991693 101.863675 
L 290.236346 105.122671 
L 290.480999 105.641619 
L 290.725652 106.907853 
L 290.970305 104.064016 
L 291.214958 105.184945 
L 291.704264 102.756266 
L 291.948917 99.040596 
L 292.19357 101.863675 
L 292.438223 102.382623 
L 292.682876 103.607341 
L 292.92753 101.407 
L 293.172183 101.427758 
L 293.416836 102.071254 
L 293.661489 101.220179 
L 293.906142 107.489075 
L 294.150795 105.081155 
L 294.395448 100.597441 
L 294.640101 103.731889 
L 294.884754 102.444897 
L 295.129407 103.462036 
L 295.37406 101.323968 
L 295.618713 100.20304 
L 295.863366 97.566782 
L 296.108019 104.230079 
L 296.352672 104.458417 
L 296.597325 106.658758 
L 296.841978 102.071254 
L 297.086631 109.004405 
L 297.331284 109.481837 
L 297.575937 109.564869 
L 297.82059 109.315774 
L 298.065243 110.208365 
L 298.309896 106.181325 
L 298.554549 106.513452 
L 298.799202 104.749028 
L 299.043855 104.977365 
L 299.288508 108.755309 
L 299.533161 109.35729 
L 299.777814 108.153329 
L 300.022467 109.544111 
L 300.26712 114.837385 
L 300.511773 113.322055 
L 301.245732 115.58467 
L 301.490385 117.660464 
L 301.735038 123.036769 
L 302.224344 118.636087 
L 302.468997 119.092761 
L 302.71365 118.096381 
L 302.958303 117.847285 
L 303.202956 118.137896 
L 303.447609 116.705599 
L 303.936915 124.219972 
L 304.181568 118.283202 
L 304.426221 118.615329 
L 304.670874 117.951075 
L 304.915527 113.944793 
L 305.16018 114.505258 
L 305.404833 109.896996 
L 305.649486 110.748071 
L 305.894139 104.147048 
L 306.138792 102.465655 
L 306.383445 103.109151 
L 306.628098 105.766167 
L 306.872751 103.731889 
L 307.117404 103.233699 
L 307.362057 99.995461 
L 307.851363 97.774361 
L 308.096016 100.555925 
L 308.340669 99.621818 
L 308.585322 99.663334 
L 308.829975 99.144385 
L 309.074628 100.057734 
L 309.319281 96.632675 
L 309.563934 96.051453 
L 309.808587 94.951282 
L 310.05324 98.168762 
L 310.297893 98.500889 
L 310.542546 100.597441 
L 310.787199 98.812258 
L 311.031852 100.265314 
L 311.276505 100.472893 
L 311.521158 101.531548 
L 311.765811 98.542405 
L 312.010464 99.518028 
L 312.255117 98.500889 
L 312.49977 100.223798 
L 312.744423 100.389861 
L 312.989076 103.192183 
L 313.233729 101.822159 
L 313.478382 102.071254 
L 313.723035 100.244556 
L 313.967688 102.652476 
L 314.212341 101.884433 
L 314.456994 104.105532 
L 314.701647 102.278834 
L 314.9463 104.645238 
L 315.190953 104.603722 
L 315.435607 104.375385 
L 315.68026 102.465655 
L 316.169566 107.364528 
L 316.414219 110.540492 
L 316.658872 117.847285 
L 316.903525 116.082861 
L 317.148178 122.040388 
L 317.637484 119.466404 
L 317.882137 121.230829 
L 318.12679 120.857186 
L 318.371443 119.736257 
L 318.616096 117.079242 
L 318.860749 115.750734 
L 319.105402 117.743496 
L 319.350055 122.600853 
L 319.839361 116.747115 
L 320.084014 117.452885 
L 320.328667 115.896039 
L 320.57332 116.269682 
L 320.817973 116.89242 
L 321.062626 118.179412 
L 321.307279 112.761591 
L 321.796585 118.864424 
L 322.041238 121.770535 
L 322.285891 120.026869 
L 322.530544 120.857186 
L 322.775197 120.587333 
L 323.01985 123.244349 
L 323.264503 121.998872 
L 323.509156 121.687503 
L 323.998462 120.21369 
L 324.243115 117.764254 
L 324.487768 126.980777 
L 324.977074 129.222634 
L 325.221727 126.482587 
L 325.711033 134.142265 
L 325.955686 133.311947 
L 326.200339 133.540285 
L 326.444992 132.024955 
L 326.689645 126.129702 
L 326.934298 125.091805 
L 327.178951 121.41765 
L 327.423604 115.169512 
L 327.668257 113.467361 
L 327.91291 117.992591 
L 328.157563 124.780436 
L 328.402216 122.849948 
L 328.646869 115.377091 
L 328.891522 116.622567 
L 329.136175 116.850904 
L 329.380828 111.121714 
L 329.625481 110.644282 
L 329.870134 109.896996 
L 330.35944 113.944793 
L 330.604093 114.401468 
L 330.848746 114.256162 
L 331.093399 113.425845 
L 331.338052 113.820246 
L 331.582705 115.771492 
L 331.827358 108.04954 
L 332.072011 107.904234 
L 332.561317 103.648857 
L 332.80597 99.580302 
L 333.050623 100.742746 
L 333.295276 101.033357 
L 333.539929 102.548687 
L 333.784582 101.863675 
L 334.029235 98.3971 
L 334.273888 98.978322 
L 334.518541 101.884433 
L 334.763194 102.673234 
L 335.007847 102.237318 
L 335.2525 102.631718 
L 335.497153 102.569445 
L 335.741806 104.686754 
L 335.986459 104.209322 
L 336.231112 101.739127 
L 336.475765 105.060397 
L 336.720418 105.828441 
L 336.965071 104.209322 
L 337.209724 100.493651 
L 337.454377 101.323968 
L 337.69903 102.631718 
L 337.943684 102.693992 
L 338.188337 100.846536 
L 338.43299 100.369103 
L 338.677643 101.967464 
L 338.922296 101.531548 
L 339.166949 96.404338 
L 339.411602 96.425096 
L 339.656255 97.629056 
L 339.900908 95.594778 
L 340.145561 95.864631 
L 340.390214 95.57402 
L 340.634867 97.421477 
L 340.87952 97.712088 
L 341.124173 98.729226 
L 341.368826 96.591159 
L 341.613479 99.684092 
L 341.858132 99.351965 
L 342.592091 92.709425 
L 342.836744 92.667909 
L 343.32605 87.852068 
L 343.570703 89.201334 
L 344.060009 81.977572 
L 344.304662 81.50014 
L 344.549315 82.621068 
L 344.793968 80.047084 
L 345.283274 82.20591 
L 345.77258 75.895497 
L 346.017233 76.186108 
L 346.261886 77.597648 
L 346.506539 79.901779 
L 346.751192 78.033565 
L 346.995845 78.656303 
L 347.240498 78.17887 
L 347.485151 76.97491 
L 347.729804 77.535374 
L 348.463763 72.470438 
L 348.953069 78.677061 
L 349.442375 75.812465 
L 349.687028 76.393688 
L 349.931681 78.137354 
L 350.176334 77.452342 
L 350.66564 77.971291 
L 350.910293 78.220386 
L 351.399599 79.237525 
L 351.644252 78.614787 
L 351.888905 77.369311 
L 352.133558 77.597648 
L 352.378211 75.355791 
L 352.622864 75.376549 
L 352.867517 78.822366 
L 353.11217 80.130116 
L 353.356823 77.224005 
L 353.601476 76.289898 
L 353.846129 77.410826 
L 355.314047 58.936264 
L 355.5587 58.977779 
L 355.803353 62.901029 
L 356.048006 61.364942 
L 356.292659 61.261152 
L 356.537312 61.551764 
L 357.515924 54.763919 
L 357.760577 58.7702 
L 358.494536 54.494065 
L 358.739189 58.998537 
L 358.983842 59.808097 
L 359.228495 58.562621 
L 359.473148 59.268391 
L 359.717801 61.614037 
L 359.962454 61.261152 
L 360.207107 58.230494 
L 360.696414 63.586041 
L 360.941067 64.354085 
L 361.18572 60.949783 
L 361.430373 60.534625 
L 361.919679 62.921787 
L 362.164332 61.344184 
L 362.408985 64.374843 
L 362.898291 67.11489 
L 363.142944 63.357704 
L 363.387597 57.607756 
L 363.63225 57.586998 
L 363.876903 57.856851 
L 364.121556 53.352379 
L 364.855515 60.264771 
L 365.100168 68.920831 
L 365.344821 68.692493 
L 365.834127 64.935307 
L 366.07878 67.156406 
L 366.323433 64.582422 
L 366.568086 63.316188 
L 366.812739 66.056236 
L 367.057392 67.384743 
L 367.302045 67.011101 
L 367.791351 70.394644 
L 368.036004 66.263815 
L 368.280657 64.810759 
L 368.52531 65.661835 
L 368.769963 63.565283 
L 369.014616 67.135648 
L 369.259269 64.790001 
L 369.503922 77.805227 
L 369.748575 78.594029 
L 369.993228 82.890921 
L 370.237881 77.929775 
L 370.482534 78.510997 
L 370.727187 76.352172 
L 370.97184 75.625644 
L 371.216493 72.470438 
L 371.461146 71.951489 
L 371.705799 70.602224 
L 371.950452 70.000243 
L 372.195105 65.931688 
L 372.439758 64.686212 
L 372.684411 64.686212 
L 372.929064 60.721446 
L 373.173717 63.586041 
L 373.41837 61.510248 
L 373.663023 62.79724 
L 373.907676 71.287235 
L 374.152329 66.969585 
L 374.641635 76.850362 
L 374.886288 73.300755 
L 375.130941 71.826942 
L 375.620247 75.272759 
L 376.109553 68.754767 
L 376.354206 71.972247 
L 376.598859 71.64012 
L 376.843512 71.909973 
L 377.088165 70.021001 
L 377.332818 65.558045 
L 377.577471 58.022914 
L 378.066777 51.587954 
L 378.31143 54.265728 
L 378.556083 51.069006 
L 378.800736 50.840669 
L 379.045389 52.169177 
L 379.534695 55.428172 
L 379.779348 55.739541 
L 380.024001 53.622232 
L 380.268654 52.563577 
L 381.002613 48.266685 
L 381.247266 48.972454 
L 381.736572 43.492359 
L 381.981225 42.537494 
L 382.225878 40.150332 
L 382.470531 39.901236 
L 382.715184 38.178328 
L 383.204491 39.029403 
L 383.449144 40.17109 
L 383.693797 39.984268 
L 383.93845 41.354292 
L 384.183103 41.603387 
L 384.427756 42.122336 
L 384.672409 43.928276 
L 384.917062 43.720697 
L 385.161715 44.156613 
L 385.406368 43.762213 
L 385.895674 38.365149 
L 386.140327 38.282118 
L 386.38498 35.002364 
L 386.629633 35.64586 
L 386.874286 39.859721 
L 387.118939 38.884098 
L 387.363592 39.714415 
L 387.608245 45.256784 
L 387.852898 41.769451 
L 387.852898 41.769451 
" style="fill:none;stroke:#ff7f0e;stroke-linecap:square;stroke-width:1.5;"/>
   </g>
   <g id="patch_3">
    <path d="M 46.965625 288.430125 
L 46.965625 22.318125 
" style="fill:none;stroke:#000000;stroke-linecap:square;stroke-linejoin:miter;stroke-width:0.8;"/>
   </g>
   <g id="patch_4">
    <path d="M 404.085625 288.430125 
L 404.085625 22.318125 
" style="fill:none;stroke:#000000;stroke-linecap:square;stroke-linejoin:miter;stroke-width:0.8;"/>
   </g>
   <g id="patch_5">
    <path d="M 46.965625 288.430125 
L 404.085625 288.430125 
" style="fill:none;stroke:#000000;stroke-linecap:square;stroke-linejoin:miter;stroke-width:0.8;"/>
   </g>
   <g id="patch_6">
    <path d="M 46.965625 22.318125 
L 404.085625 22.318125 
" style="fill:none;stroke:#000000;stroke-linecap:square;stroke-linejoin:miter;stroke-width:0.8;"/>
   </g>
   <g id="text_16">
    <!-- Training: HD -->
    <defs>
     <path d="M -0.296875 72.90625 
L 61.375 72.90625 
L 61.375 64.59375 
L 35.5 64.59375 
L 35.5 0 
L 25.59375 0 
L 25.59375 64.59375 
L -0.296875 64.59375 
z
" id="DejaVuSans-84"/>
     <path d="M 54.890625 33.015625 
L 54.890625 0 
L 45.90625 0 
L 45.90625 32.71875 
Q 45.90625 40.484375 42.875 44.328125 
Q 39.84375 48.1875 33.796875 48.1875 
Q 26.515625 48.1875 22.3125 43.546875 
Q 18.109375 38.921875 18.109375 30.90625 
L 18.109375 0 
L 9.078125 0 
L 9.078125 54.6875 
L 18.109375 54.6875 
L 18.109375 46.1875 
Q 21.34375 51.125 25.703125 53.5625 
Q 30.078125 56 35.796875 56 
Q 45.21875 56 50.046875 50.171875 
Q 54.890625 44.34375 54.890625 33.015625 
z
" id="DejaVuSans-110"/>
     <path d="M 45.40625 27.984375 
Q 45.40625 37.75 41.375 43.109375 
Q 37.359375 48.484375 30.078125 48.484375 
Q 22.859375 48.484375 18.828125 43.109375 
Q 14.796875 37.75 14.796875 27.984375 
Q 14.796875 18.265625 18.828125 12.890625 
Q 22.859375 7.515625 30.078125 7.515625 
Q 37.359375 7.515625 41.375 12.890625 
Q 45.40625 18.265625 45.40625 27.984375 
z
M 54.390625 6.78125 
Q 54.390625 -7.171875 48.1875 -13.984375 
Q 42 -20.796875 29.203125 -20.796875 
Q 24.46875 -20.796875 20.265625 -20.09375 
Q 16.0625 -19.390625 12.109375 -17.921875 
L 12.109375 -9.1875 
Q 16.0625 -11.328125 19.921875 -12.34375 
Q 23.78125 -13.375 27.78125 -13.375 
Q 36.625 -13.375 41.015625 -8.765625 
Q 45.40625 -4.15625 45.40625 5.171875 
L 45.40625 9.625 
Q 42.625 4.78125 38.28125 2.390625 
Q 33.9375 0 27.875 0 
Q 17.828125 0 11.671875 7.65625 
Q 5.515625 15.328125 5.515625 27.984375 
Q 5.515625 40.671875 11.671875 48.328125 
Q 17.828125 56 27.875 56 
Q 33.9375 56 38.28125 53.609375 
Q 42.625 51.21875 45.40625 46.390625 
L 45.40625 54.6875 
L 54.390625 54.6875 
z
" id="DejaVuSans-103"/>
     <path d="M 11.71875 12.40625 
L 22.015625 12.40625 
L 22.015625 0 
L 11.71875 0 
z
M 11.71875 51.703125 
L 22.015625 51.703125 
L 22.015625 39.3125 
L 11.71875 39.3125 
z
" id="DejaVuSans-58"/>
     <path d="M 9.8125 72.90625 
L 19.671875 72.90625 
L 19.671875 43.015625 
L 55.515625 43.015625 
L 55.515625 72.90625 
L 65.375 72.90625 
L 65.375 0 
L 55.515625 0 
L 55.515625 34.71875 
L 19.671875 34.71875 
L 19.671875 0 
L 9.8125 0 
z
" id="DejaVuSans-72"/>
    </defs>
    <g transform="translate(188.794375 16.318125)scale(0.12 -0.12)">
     <use xlink:href="#DejaVuSans-84"/>
     <use x="46.333984" xlink:href="#DejaVuSans-114"/>
     <use x="87.447266" xlink:href="#DejaVuSans-97"/>
     <use x="148.726562" xlink:href="#DejaVuSans-105"/>
     <use x="176.509766" xlink:href="#DejaVuSans-110"/>
     <use x="239.888672" xlink:href="#DejaVuSans-105"/>
     <use x="267.671875" xlink:href="#DejaVuSans-110"/>
     <use x="331.050781" xlink:href="#DejaVuSans-103"/>
     <use x="394.527344" xlink:href="#DejaVuSans-58"/>
     <use x="428.21875" xlink:href="#DejaVuSans-32"/>
     <use x="460.005859" xlink:href="#DejaVuSans-72"/>
     <use x="535.201172" xlink:href="#DejaVuSans-68"/>
    </g>
   </g>
   <g id="legend_1">
    <g id="patch_7">
     <path d="M 53.965625 59.674375 
L 137.69375 59.674375 
Q 139.69375 59.674375 139.69375 57.674375 
L 139.69375 29.318125 
Q 139.69375 27.318125 137.69375 27.318125 
L 53.965625 27.318125 
Q 51.965625 27.318125 51.965625 29.318125 
L 51.965625 57.674375 
Q 51.965625 59.674375 53.965625 59.674375 
z
" style="fill:#ffffff;opacity:0.8;stroke:#cccccc;stroke-linejoin:miter;"/>
    </g>
    <g id="line2d_29">
     <path d="M 55.965625 35.416562 
L 75.965625 35.416562 
" style="fill:none;stroke:#1f77b4;stroke-linecap:square;stroke-width:1.5;"/>
    </g>
    <g id="line2d_30"/>
    <g id="text_17">
     <!-- Predicted -->
     <defs>
      <path d="M 45.40625 46.390625 
L 45.40625 75.984375 
L 54.390625 75.984375 
L 54.390625 0 
L 45.40625 0 
L 45.40625 8.203125 
Q 42.578125 3.328125 38.25 0.953125 
Q 33.9375 -1.421875 27.875 -1.421875 
Q 17.96875 -1.421875 11.734375 6.484375 
Q 5.515625 14.40625 5.515625 27.296875 
Q 5.515625 40.1875 11.734375 48.09375 
Q 17.96875 56 27.875 56 
Q 33.9375 56 38.25 53.625 
Q 42.578125 51.265625 45.40625 46.390625 
z
M 14.796875 27.296875 
Q 14.796875 17.390625 18.875 11.75 
Q 22.953125 6.109375 30.078125 6.109375 
Q 37.203125 6.109375 41.296875 11.75 
Q 45.40625 17.390625 45.40625 27.296875 
Q 45.40625 37.203125 41.296875 42.84375 
Q 37.203125 48.484375 30.078125 48.484375 
Q 22.953125 48.484375 18.875 42.84375 
Q 14.796875 37.203125 14.796875 27.296875 
z
" id="DejaVuSans-100"/>
      <path d="M 18.3125 70.21875 
L 18.3125 54.6875 
L 36.8125 54.6875 
L 36.8125 47.703125 
L 18.3125 47.703125 
L 18.3125 18.015625 
Q 18.3125 11.328125 20.140625 9.421875 
Q 21.96875 7.515625 27.59375 7.515625 
L 36.8125 7.515625 
L 36.8125 0 
L 27.59375 0 
Q 17.1875 0 13.234375 3.875 
Q 9.28125 7.765625 9.28125 18.015625 
L 9.28125 47.703125 
L 2.6875 47.703125 
L 2.6875 54.6875 
L 9.28125 54.6875 
L 9.28125 70.21875 
z
" id="DejaVuSans-116"/>
     </defs>
     <g transform="translate(83.965625 38.916562)scale(0.1 -0.1)">
      <use xlink:href="#DejaVuSans-80"/>
      <use x="58.552734" xlink:href="#DejaVuSans-114"/>
      <use x="97.416016" xlink:href="#DejaVuSans-101"/>
      <use x="158.939453" xlink:href="#DejaVuSans-100"/>
      <use x="222.416016" xlink:href="#DejaVuSans-105"/>
      <use x="250.199219" xlink:href="#DejaVuSans-99"/>
      <use x="305.179688" xlink:href="#DejaVuSans-116"/>
      <use x="344.388672" xlink:href="#DejaVuSans-101"/>
      <use x="405.912109" xlink:href="#DejaVuSans-100"/>
     </g>
    </g>
    <g id="line2d_31">
     <path d="M 55.965625 50.094687 
L 75.965625 50.094687 
" style="fill:none;stroke:#ff7f0e;stroke-linecap:square;stroke-width:1.5;"/>
    </g>
    <g id="line2d_32"/>
    <g id="text_18">
     <!-- True value -->
     <defs>
      <path d="M 8.5 21.578125 
L 8.5 54.6875 
L 17.484375 54.6875 
L 17.484375 21.921875 
Q 17.484375 14.15625 20.5 10.265625 
Q 23.53125 6.390625 29.59375 6.390625 
Q 36.859375 6.390625 41.078125 11.03125 
Q 45.3125 15.671875 45.3125 23.6875 
L 45.3125 54.6875 
L 54.296875 54.6875 
L 54.296875 0 
L 45.3125 0 
L 45.3125 8.40625 
Q 42.046875 3.421875 37.71875 1 
Q 33.40625 -1.421875 27.6875 -1.421875 
Q 18.265625 -1.421875 13.375 4.4375 
Q 8.5 10.296875 8.5 21.578125 
z
M 31.109375 56 
z
" id="DejaVuSans-117"/>
      <path d="M 2.984375 54.6875 
L 12.5 54.6875 
L 29.59375 8.796875 
L 46.6875 54.6875 
L 56.203125 54.6875 
L 35.6875 0 
L 23.484375 0 
z
" id="DejaVuSans-118"/>
      <path d="M 9.421875 75.984375 
L 18.40625 75.984375 
L 18.40625 0 
L 9.421875 0 
z
" id="DejaVuSans-108"/>
     </defs>
     <g transform="translate(83.965625 53.594687)scale(0.1 -0.1)">
      <use xlink:href="#DejaVuSans-84"/>
      <use x="46.333984" xlink:href="#DejaVuSans-114"/>
      <use x="87.447266" xlink:href="#DejaVuSans-117"/>
      <use x="150.826172" xlink:href="#DejaVuSans-101"/>
      <use x="212.349609" xlink:href="#DejaVuSans-32"/>
      <use x="244.136719" xlink:href="#DejaVuSans-118"/>
      <use x="303.316406" xlink:href="#DejaVuSans-97"/>
      <use x="364.595703" xlink:href="#DejaVuSans-108"/>
      <use x="392.378906" xlink:href="#DejaVuSans-117"/>
      <use x="455.757812" xlink:href="#DejaVuSans-101"/>
     </g>
    </g>
   </g>
  </g>
 </g>
 <defs>
  <clipPath id="p191091b75b">
   <rect height="266.112" width="357.12" x="46.965625" y="22.318125"/>
  </clipPath>
 </defs>
</svg>
