<?xml version="1.0" encoding="utf-8" standalone="no"?>
<!DOCTYPE svg PUBLIC "-//W3C//DTD SVG 1.1//EN"
  "http://www.w3.org/Graphics/SVG/1.1/DTD/svg11.dtd">
<!-- Created with matplotlib (https://matplotlib.org/) -->
<svg height="325.986375pt" version="1.1" viewBox="0 0 417.648125 325.986375" width="417.648125pt" xmlns="http://www.w3.org/2000/svg" xmlns:xlink="http://www.w3.org/1999/xlink">
 <defs>
  <style type="text/css">
*{stroke-linecap:butt;stroke-linejoin:round;}
  </style>
 </defs>
 <g id="figure_1">
  <g id="patch_1">
   <path d="M 0 325.986375 
L 417.648125 325.986375 
L 417.648125 0 
L 0 0 
z
" style="fill:#ffffff;"/>
  </g>
  <g id="axes_1">
   <g id="patch_2">
    <path d="M 53.328125 288.430125 
L 410.448125 288.430125 
L 410.448125 22.318125 
L 53.328125 22.318125 
z
" style="fill:#ffffff;"/>
   </g>
   <g id="matplotlib.axis_1">
    <g id="xtick_1">
     <g id="line2d_1">
      <path clip-path="url(#pba54aecdab)" d="M 69.560852 288.430125 
L 69.560852 22.318125 
" style="fill:none;stroke:#b0b0b0;stroke-dasharray:2.96,1.28;stroke-dashoffset:0;stroke-width:0.8;"/>
     </g>
     <g id="line2d_2">
      <defs>
       <path d="M 0 0 
L 0 3.5 
" id="mb9d959f1de" style="stroke:#000000;stroke-width:0.8;"/>
      </defs>
      <g>
       <use style="stroke:#000000;stroke-width:0.8;" x="69.560852" xlink:href="#mb9d959f1de" y="288.430125"/>
      </g>
     </g>
     <g id="text_1">
      <!-- 0 -->
      <defs>
       <path d="M 31.78125 66.40625 
Q 24.171875 66.40625 20.328125 58.90625 
Q 16.5 51.421875 16.5 36.375 
Q 16.5 21.390625 20.328125 13.890625 
Q 24.171875 6.390625 31.78125 6.390625 
Q 39.453125 6.390625 43.28125 13.890625 
Q 47.125 21.390625 47.125 36.375 
Q 47.125 51.421875 43.28125 58.90625 
Q 39.453125 66.40625 31.78125 66.40625 
z
M 31.78125 74.21875 
Q 44.046875 74.21875 50.515625 64.515625 
Q 56.984375 54.828125 56.984375 36.375 
Q 56.984375 17.96875 50.515625 8.265625 
Q 44.046875 -1.421875 31.78125 -1.421875 
Q 19.53125 -1.421875 13.0625 8.265625 
Q 6.59375 17.96875 6.59375 36.375 
Q 6.59375 54.828125 13.0625 64.515625 
Q 19.53125 74.21875 31.78125 74.21875 
z
" id="DejaVuSans-48"/>
      </defs>
      <g transform="translate(66.379602 303.028562)scale(0.1 -0.1)">
       <use xlink:href="#DejaVuSans-48"/>
      </g>
     </g>
    </g>
    <g id="xtick_2">
     <g id="line2d_3">
      <path clip-path="url(#pba54aecdab)" d="M 118.491454 288.430125 
L 118.491454 22.318125 
" style="fill:none;stroke:#b0b0b0;stroke-dasharray:2.96,1.28;stroke-dashoffset:0;stroke-width:0.8;"/>
     </g>
     <g id="line2d_4">
      <g>
       <use style="stroke:#000000;stroke-width:0.8;" x="118.491454" xlink:href="#mb9d959f1de" y="288.430125"/>
      </g>
     </g>
     <g id="text_2">
      <!-- 200 -->
      <defs>
       <path d="M 19.1875 8.296875 
L 53.609375 8.296875 
L 53.609375 0 
L 7.328125 0 
L 7.328125 8.296875 
Q 12.9375 14.109375 22.625 23.890625 
Q 32.328125 33.6875 34.8125 36.53125 
Q 39.546875 41.84375 41.421875 45.53125 
Q 43.3125 49.21875 43.3125 52.78125 
Q 43.3125 58.59375 39.234375 62.25 
Q 35.15625 65.921875 28.609375 65.921875 
Q 23.96875 65.921875 18.8125 64.3125 
Q 13.671875 62.703125 7.8125 59.421875 
L 7.8125 69.390625 
Q 13.765625 71.78125 18.9375 73 
Q 24.125 74.21875 28.421875 74.21875 
Q 39.75 74.21875 46.484375 68.546875 
Q 53.21875 62.890625 53.21875 53.421875 
Q 53.21875 48.921875 51.53125 44.890625 
Q 49.859375 40.875 45.40625 35.40625 
Q 44.1875 33.984375 37.640625 27.21875 
Q 31.109375 20.453125 19.1875 8.296875 
z
" id="DejaVuSans-50"/>
      </defs>
      <g transform="translate(108.947704 303.028562)scale(0.1 -0.1)">
       <use xlink:href="#DejaVuSans-50"/>
       <use x="63.623047" xlink:href="#DejaVuSans-48"/>
       <use x="127.246094" xlink:href="#DejaVuSans-48"/>
      </g>
     </g>
    </g>
    <g id="xtick_3">
     <g id="line2d_5">
      <path clip-path="url(#pba54aecdab)" d="M 167.422057 288.430125 
L 167.422057 22.318125 
" style="fill:none;stroke:#b0b0b0;stroke-dasharray:2.96,1.28;stroke-dashoffset:0;stroke-width:0.8;"/>
     </g>
     <g id="line2d_6">
      <g>
       <use style="stroke:#000000;stroke-width:0.8;" x="167.422057" xlink:href="#mb9d959f1de" y="288.430125"/>
      </g>
     </g>
     <g id="text_3">
      <!-- 400 -->
      <defs>
       <path d="M 37.796875 64.3125 
L 12.890625 25.390625 
L 37.796875 25.390625 
z
M 35.203125 72.90625 
L 47.609375 72.90625 
L 47.609375 25.390625 
L 58.015625 25.390625 
L 58.015625 17.1875 
L 47.609375 17.1875 
L 47.609375 0 
L 37.796875 0 
L 37.796875 17.1875 
L 4.890625 17.1875 
L 4.890625 26.703125 
z
" id="DejaVuSans-52"/>
      </defs>
      <g transform="translate(157.878307 303.028562)scale(0.1 -0.1)">
       <use xlink:href="#DejaVuSans-52"/>
       <use x="63.623047" xlink:href="#DejaVuSans-48"/>
       <use x="127.246094" xlink:href="#DejaVuSans-48"/>
      </g>
     </g>
    </g>
    <g id="xtick_4">
     <g id="line2d_7">
      <path clip-path="url(#pba54aecdab)" d="M 216.352659 288.430125 
L 216.352659 22.318125 
" style="fill:none;stroke:#b0b0b0;stroke-dasharray:2.96,1.28;stroke-dashoffset:0;stroke-width:0.8;"/>
     </g>
     <g id="line2d_8">
      <g>
       <use style="stroke:#000000;stroke-width:0.8;" x="216.352659" xlink:href="#mb9d959f1de" y="288.430125"/>
      </g>
     </g>
     <g id="text_4">
      <!-- 600 -->
      <defs>
       <path d="M 33.015625 40.375 
Q 26.375 40.375 22.484375 35.828125 
Q 18.609375 31.296875 18.609375 23.390625 
Q 18.609375 15.53125 22.484375 10.953125 
Q 26.375 6.390625 33.015625 6.390625 
Q 39.65625 6.390625 43.53125 10.953125 
Q 47.40625 15.53125 47.40625 23.390625 
Q 47.40625 31.296875 43.53125 35.828125 
Q 39.65625 40.375 33.015625 40.375 
z
M 52.59375 71.296875 
L 52.59375 62.3125 
Q 48.875 64.0625 45.09375 64.984375 
Q 41.3125 65.921875 37.59375 65.921875 
Q 27.828125 65.921875 22.671875 59.328125 
Q 17.53125 52.734375 16.796875 39.40625 
Q 19.671875 43.65625 24.015625 45.921875 
Q 28.375 48.1875 33.59375 48.1875 
Q 44.578125 48.1875 50.953125 41.515625 
Q 57.328125 34.859375 57.328125 23.390625 
Q 57.328125 12.15625 50.6875 5.359375 
Q 44.046875 -1.421875 33.015625 -1.421875 
Q 20.359375 -1.421875 13.671875 8.265625 
Q 6.984375 17.96875 6.984375 36.375 
Q 6.984375 53.65625 15.1875 63.9375 
Q 23.390625 74.21875 37.203125 74.21875 
Q 40.921875 74.21875 44.703125 73.484375 
Q 48.484375 72.75 52.59375 71.296875 
z
" id="DejaVuSans-54"/>
      </defs>
      <g transform="translate(206.808909 303.028562)scale(0.1 -0.1)">
       <use xlink:href="#DejaVuSans-54"/>
       <use x="63.623047" xlink:href="#DejaVuSans-48"/>
       <use x="127.246094" xlink:href="#DejaVuSans-48"/>
      </g>
     </g>
    </g>
    <g id="xtick_5">
     <g id="line2d_9">
      <path clip-path="url(#pba54aecdab)" d="M 265.283261 288.430125 
L 265.283261 22.318125 
" style="fill:none;stroke:#b0b0b0;stroke-dasharray:2.96,1.28;stroke-dashoffset:0;stroke-width:0.8;"/>
     </g>
     <g id="line2d_10">
      <g>
       <use style="stroke:#000000;stroke-width:0.8;" x="265.283261" xlink:href="#mb9d959f1de" y="288.430125"/>
      </g>
     </g>
     <g id="text_5">
      <!-- 800 -->
      <defs>
       <path d="M 31.78125 34.625 
Q 24.75 34.625 20.71875 30.859375 
Q 16.703125 27.09375 16.703125 20.515625 
Q 16.703125 13.921875 20.71875 10.15625 
Q 24.75 6.390625 31.78125 6.390625 
Q 38.8125 6.390625 42.859375 10.171875 
Q 46.921875 13.96875 46.921875 20.515625 
Q 46.921875 27.09375 42.890625 30.859375 
Q 38.875 34.625 31.78125 34.625 
z
M 21.921875 38.8125 
Q 15.578125 40.375 12.03125 44.71875 
Q 8.5 49.078125 8.5 55.328125 
Q 8.5 64.0625 14.71875 69.140625 
Q 20.953125 74.21875 31.78125 74.21875 
Q 42.671875 74.21875 48.875 69.140625 
Q 55.078125 64.0625 55.078125 55.328125 
Q 55.078125 49.078125 51.53125 44.71875 
Q 48 40.375 41.703125 38.8125 
Q 48.828125 37.15625 52.796875 32.3125 
Q 56.78125 27.484375 56.78125 20.515625 
Q 56.78125 9.90625 50.3125 4.234375 
Q 43.84375 -1.421875 31.78125 -1.421875 
Q 19.734375 -1.421875 13.25 4.234375 
Q 6.78125 9.90625 6.78125 20.515625 
Q 6.78125 27.484375 10.78125 32.3125 
Q 14.796875 37.15625 21.921875 38.8125 
z
M 18.3125 54.390625 
Q 18.3125 48.734375 21.84375 45.5625 
Q 25.390625 42.390625 31.78125 42.390625 
Q 38.140625 42.390625 41.71875 45.5625 
Q 45.3125 48.734375 45.3125 54.390625 
Q 45.3125 60.0625 41.71875 63.234375 
Q 38.140625 66.40625 31.78125 66.40625 
Q 25.390625 66.40625 21.84375 63.234375 
Q 18.3125 60.0625 18.3125 54.390625 
z
" id="DejaVuSans-56"/>
      </defs>
      <g transform="translate(255.739511 303.028562)scale(0.1 -0.1)">
       <use xlink:href="#DejaVuSans-56"/>
       <use x="63.623047" xlink:href="#DejaVuSans-48"/>
       <use x="127.246094" xlink:href="#DejaVuSans-48"/>
      </g>
     </g>
    </g>
    <g id="xtick_6">
     <g id="line2d_11">
      <path clip-path="url(#pba54aecdab)" d="M 314.213863 288.430125 
L 314.213863 22.318125 
" style="fill:none;stroke:#b0b0b0;stroke-dasharray:2.96,1.28;stroke-dashoffset:0;stroke-width:0.8;"/>
     </g>
     <g id="line2d_12">
      <g>
       <use style="stroke:#000000;stroke-width:0.8;" x="314.213863" xlink:href="#mb9d959f1de" y="288.430125"/>
      </g>
     </g>
     <g id="text_6">
      <!-- 1000 -->
      <defs>
       <path d="M 12.40625 8.296875 
L 28.515625 8.296875 
L 28.515625 63.921875 
L 10.984375 60.40625 
L 10.984375 69.390625 
L 28.421875 72.90625 
L 38.28125 72.90625 
L 38.28125 8.296875 
L 54.390625 8.296875 
L 54.390625 0 
L 12.40625 0 
z
" id="DejaVuSans-49"/>
      </defs>
      <g transform="translate(301.488863 303.028562)scale(0.1 -0.1)">
       <use xlink:href="#DejaVuSans-49"/>
       <use x="63.623047" xlink:href="#DejaVuSans-48"/>
       <use x="127.246094" xlink:href="#DejaVuSans-48"/>
       <use x="190.869141" xlink:href="#DejaVuSans-48"/>
      </g>
     </g>
    </g>
    <g id="xtick_7">
     <g id="line2d_13">
      <path clip-path="url(#pba54aecdab)" d="M 363.144465 288.430125 
L 363.144465 22.318125 
" style="fill:none;stroke:#b0b0b0;stroke-dasharray:2.96,1.28;stroke-dashoffset:0;stroke-width:0.8;"/>
     </g>
     <g id="line2d_14">
      <g>
       <use style="stroke:#000000;stroke-width:0.8;" x="363.144465" xlink:href="#mb9d959f1de" y="288.430125"/>
      </g>
     </g>
     <g id="text_7">
      <!-- 1200 -->
      <g transform="translate(350.419465 303.028562)scale(0.1 -0.1)">
       <use xlink:href="#DejaVuSans-49"/>
       <use x="63.623047" xlink:href="#DejaVuSans-50"/>
       <use x="127.246094" xlink:href="#DejaVuSans-48"/>
       <use x="190.869141" xlink:href="#DejaVuSans-48"/>
      </g>
     </g>
    </g>
    <g id="text_8">
     <!-- Day -->
     <defs>
      <path d="M 19.671875 64.796875 
L 19.671875 8.109375 
L 31.59375 8.109375 
Q 46.6875 8.109375 53.6875 14.9375 
Q 60.6875 21.78125 60.6875 36.53125 
Q 60.6875 51.171875 53.6875 57.984375 
Q 46.6875 64.796875 31.59375 64.796875 
z
M 9.8125 72.90625 
L 30.078125 72.90625 
Q 51.265625 72.90625 61.171875 64.09375 
Q 71.09375 55.28125 71.09375 36.53125 
Q 71.09375 17.671875 61.125 8.828125 
Q 51.171875 0 30.078125 0 
L 9.8125 0 
z
" id="DejaVuSans-68"/>
      <path d="M 34.28125 27.484375 
Q 23.390625 27.484375 19.1875 25 
Q 14.984375 22.515625 14.984375 16.5 
Q 14.984375 11.71875 18.140625 8.90625 
Q 21.296875 6.109375 26.703125 6.109375 
Q 34.1875 6.109375 38.703125 11.40625 
Q 43.21875 16.703125 43.21875 25.484375 
L 43.21875 27.484375 
z
M 52.203125 31.203125 
L 52.203125 0 
L 43.21875 0 
L 43.21875 8.296875 
Q 40.140625 3.328125 35.546875 0.953125 
Q 30.953125 -1.421875 24.3125 -1.421875 
Q 15.921875 -1.421875 10.953125 3.296875 
Q 6 8.015625 6 15.921875 
Q 6 25.140625 12.171875 29.828125 
Q 18.359375 34.515625 30.609375 34.515625 
L 43.21875 34.515625 
L 43.21875 35.40625 
Q 43.21875 41.609375 39.140625 45 
Q 35.0625 48.390625 27.6875 48.390625 
Q 23 48.390625 18.546875 47.265625 
Q 14.109375 46.140625 10.015625 43.890625 
L 10.015625 52.203125 
Q 14.9375 54.109375 19.578125 55.046875 
Q 24.21875 56 28.609375 56 
Q 40.484375 56 46.34375 49.84375 
Q 52.203125 43.703125 52.203125 31.203125 
z
" id="DejaVuSans-97"/>
      <path d="M 32.171875 -5.078125 
Q 28.375 -14.84375 24.75 -17.8125 
Q 21.140625 -20.796875 15.09375 -20.796875 
L 7.90625 -20.796875 
L 7.90625 -13.28125 
L 13.1875 -13.28125 
Q 16.890625 -13.28125 18.9375 -11.515625 
Q 21 -9.765625 23.484375 -3.21875 
L 25.09375 0.875 
L 2.984375 54.6875 
L 12.5 54.6875 
L 29.59375 11.921875 
L 46.6875 54.6875 
L 56.203125 54.6875 
z
" id="DejaVuSans-121"/>
     </defs>
     <g transform="translate(222.014688 316.706687)scale(0.1 -0.1)">
      <use xlink:href="#DejaVuSans-68"/>
      <use x="77.001953" xlink:href="#DejaVuSans-97"/>
      <use x="138.28125" xlink:href="#DejaVuSans-121"/>
     </g>
    </g>
   </g>
   <g id="matplotlib.axis_2">
    <g id="ytick_1">
     <g id="line2d_15">
      <path clip-path="url(#pba54aecdab)" d="M 53.328125 281.757744 
L 410.448125 281.757744 
" style="fill:none;stroke:#b0b0b0;stroke-dasharray:2.96,1.28;stroke-dashoffset:0;stroke-width:0.8;"/>
     </g>
     <g id="line2d_16">
      <defs>
       <path d="M 0 0 
L -3.5 0 
" id="ma8e794ed23" style="stroke:#000000;stroke-width:0.8;"/>
      </defs>
      <g>
       <use style="stroke:#000000;stroke-width:0.8;" x="53.328125" xlink:href="#ma8e794ed23" y="281.757744"/>
      </g>
     </g>
     <g id="text_9">
      <!-- 200 -->
      <g transform="translate(27.240625 285.556963)scale(0.1 -0.1)">
       <use xlink:href="#DejaVuSans-50"/>
       <use x="63.623047" xlink:href="#DejaVuSans-48"/>
       <use x="127.246094" xlink:href="#DejaVuSans-48"/>
      </g>
     </g>
    </g>
    <g id="ytick_2">
     <g id="line2d_17">
      <path clip-path="url(#pba54aecdab)" d="M 53.328125 227.336706 
L 410.448125 227.336706 
" style="fill:none;stroke:#b0b0b0;stroke-dasharray:2.96,1.28;stroke-dashoffset:0;stroke-width:0.8;"/>
     </g>
     <g id="line2d_18">
      <g>
       <use style="stroke:#000000;stroke-width:0.8;" x="53.328125" xlink:href="#ma8e794ed23" y="227.336706"/>
      </g>
     </g>
     <g id="text_10">
      <!-- 400 -->
      <g transform="translate(27.240625 231.135925)scale(0.1 -0.1)">
       <use xlink:href="#DejaVuSans-52"/>
       <use x="63.623047" xlink:href="#DejaVuSans-48"/>
       <use x="127.246094" xlink:href="#DejaVuSans-48"/>
      </g>
     </g>
    </g>
    <g id="ytick_3">
     <g id="line2d_19">
      <path clip-path="url(#pba54aecdab)" d="M 53.328125 172.915668 
L 410.448125 172.915668 
" style="fill:none;stroke:#b0b0b0;stroke-dasharray:2.96,1.28;stroke-dashoffset:0;stroke-width:0.8;"/>
     </g>
     <g id="line2d_20">
      <g>
       <use style="stroke:#000000;stroke-width:0.8;" x="53.328125" xlink:href="#ma8e794ed23" y="172.915668"/>
      </g>
     </g>
     <g id="text_11">
      <!-- 600 -->
      <g transform="translate(27.240625 176.714886)scale(0.1 -0.1)">
       <use xlink:href="#DejaVuSans-54"/>
       <use x="63.623047" xlink:href="#DejaVuSans-48"/>
       <use x="127.246094" xlink:href="#DejaVuSans-48"/>
      </g>
     </g>
    </g>
    <g id="ytick_4">
     <g id="line2d_21">
      <path clip-path="url(#pba54aecdab)" d="M 53.328125 118.494629 
L 410.448125 118.494629 
" style="fill:none;stroke:#b0b0b0;stroke-dasharray:2.96,1.28;stroke-dashoffset:0;stroke-width:0.8;"/>
     </g>
     <g id="line2d_22">
      <g>
       <use style="stroke:#000000;stroke-width:0.8;" x="53.328125" xlink:href="#ma8e794ed23" y="118.494629"/>
      </g>
     </g>
     <g id="text_12">
      <!-- 800 -->
      <g transform="translate(27.240625 122.293848)scale(0.1 -0.1)">
       <use xlink:href="#DejaVuSans-56"/>
       <use x="63.623047" xlink:href="#DejaVuSans-48"/>
       <use x="127.246094" xlink:href="#DejaVuSans-48"/>
      </g>
     </g>
    </g>
    <g id="ytick_5">
     <g id="line2d_23">
      <path clip-path="url(#pba54aecdab)" d="M 53.328125 64.073591 
L 410.448125 64.073591 
" style="fill:none;stroke:#b0b0b0;stroke-dasharray:2.96,1.28;stroke-dashoffset:0;stroke-width:0.8;"/>
     </g>
     <g id="line2d_24">
      <g>
       <use style="stroke:#000000;stroke-width:0.8;" x="53.328125" xlink:href="#ma8e794ed23" y="64.073591"/>
      </g>
     </g>
     <g id="text_13">
      <!-- 1000 -->
      <g transform="translate(20.878125 67.87281)scale(0.1 -0.1)">
       <use xlink:href="#DejaVuSans-49"/>
       <use x="63.623047" xlink:href="#DejaVuSans-48"/>
       <use x="127.246094" xlink:href="#DejaVuSans-48"/>
       <use x="190.869141" xlink:href="#DejaVuSans-48"/>
      </g>
     </g>
    </g>
    <g id="text_14">
     <!-- Price $ -->
     <defs>
      <path d="M 19.671875 64.796875 
L 19.671875 37.40625 
L 32.078125 37.40625 
Q 38.96875 37.40625 42.71875 40.96875 
Q 46.484375 44.53125 46.484375 51.125 
Q 46.484375 57.671875 42.71875 61.234375 
Q 38.96875 64.796875 32.078125 64.796875 
z
M 9.8125 72.90625 
L 32.078125 72.90625 
Q 44.34375 72.90625 50.609375 67.359375 
Q 56.890625 61.8125 56.890625 51.125 
Q 56.890625 40.328125 50.609375 34.8125 
Q 44.34375 29.296875 32.078125 29.296875 
L 19.671875 29.296875 
L 19.671875 0 
L 9.8125 0 
z
" id="DejaVuSans-80"/>
      <path d="M 41.109375 46.296875 
Q 39.59375 47.171875 37.8125 47.578125 
Q 36.03125 48 33.890625 48 
Q 26.265625 48 22.1875 43.046875 
Q 18.109375 38.09375 18.109375 28.8125 
L 18.109375 0 
L 9.078125 0 
L 9.078125 54.6875 
L 18.109375 54.6875 
L 18.109375 46.1875 
Q 20.953125 51.171875 25.484375 53.578125 
Q 30.03125 56 36.53125 56 
Q 37.453125 56 38.578125 55.875 
Q 39.703125 55.765625 41.0625 55.515625 
z
" id="DejaVuSans-114"/>
      <path d="M 9.421875 54.6875 
L 18.40625 54.6875 
L 18.40625 0 
L 9.421875 0 
z
M 9.421875 75.984375 
L 18.40625 75.984375 
L 18.40625 64.59375 
L 9.421875 64.59375 
z
" id="DejaVuSans-105"/>
      <path d="M 48.78125 52.59375 
L 48.78125 44.1875 
Q 44.96875 46.296875 41.140625 47.34375 
Q 37.3125 48.390625 33.40625 48.390625 
Q 24.65625 48.390625 19.8125 42.84375 
Q 14.984375 37.3125 14.984375 27.296875 
Q 14.984375 17.28125 19.8125 11.734375 
Q 24.65625 6.203125 33.40625 6.203125 
Q 37.3125 6.203125 41.140625 7.25 
Q 44.96875 8.296875 48.78125 10.40625 
L 48.78125 2.09375 
Q 45.015625 0.34375 40.984375 -0.53125 
Q 36.96875 -1.421875 32.421875 -1.421875 
Q 20.0625 -1.421875 12.78125 6.34375 
Q 5.515625 14.109375 5.515625 27.296875 
Q 5.515625 40.671875 12.859375 48.328125 
Q 20.21875 56 33.015625 56 
Q 37.15625 56 41.109375 55.140625 
Q 45.0625 54.296875 48.78125 52.59375 
z
" id="DejaVuSans-99"/>
      <path d="M 56.203125 29.59375 
L 56.203125 25.203125 
L 14.890625 25.203125 
Q 15.484375 15.921875 20.484375 11.0625 
Q 25.484375 6.203125 34.421875 6.203125 
Q 39.59375 6.203125 44.453125 7.46875 
Q 49.3125 8.734375 54.109375 11.28125 
L 54.109375 2.78125 
Q 49.265625 0.734375 44.1875 -0.34375 
Q 39.109375 -1.421875 33.890625 -1.421875 
Q 20.796875 -1.421875 13.15625 6.1875 
Q 5.515625 13.8125 5.515625 26.8125 
Q 5.515625 40.234375 12.765625 48.109375 
Q 20.015625 56 32.328125 56 
Q 43.359375 56 49.78125 48.890625 
Q 56.203125 41.796875 56.203125 29.59375 
z
M 47.21875 32.234375 
Q 47.125 39.59375 43.09375 43.984375 
Q 39.0625 48.390625 32.421875 48.390625 
Q 24.90625 48.390625 20.390625 44.140625 
Q 15.875 39.890625 15.1875 32.171875 
z
" id="DejaVuSans-101"/>
      <path id="DejaVuSans-32"/>
      <path d="M 33.796875 -14.703125 
L 28.90625 -14.703125 
L 28.859375 0 
Q 23.734375 0.09375 18.609375 1.1875 
Q 13.484375 2.296875 8.296875 4.5 
L 8.296875 13.28125 
Q 13.28125 10.15625 18.375 8.5625 
Q 23.484375 6.984375 28.90625 6.9375 
L 28.90625 29.203125 
Q 18.109375 30.953125 13.203125 35.15625 
Q 8.296875 39.359375 8.296875 46.6875 
Q 8.296875 54.640625 13.625 59.21875 
Q 18.953125 63.8125 28.90625 64.5 
L 28.90625 75.984375 
L 33.796875 75.984375 
L 33.796875 64.65625 
Q 38.328125 64.453125 42.578125 63.6875 
Q 46.828125 62.9375 50.875 61.625 
L 50.875 53.078125 
Q 46.828125 55.125 42.546875 56.25 
Q 38.28125 57.375 33.796875 57.5625 
L 33.796875 36.71875 
Q 44.875 35.015625 50.09375 30.609375 
Q 55.328125 26.21875 55.328125 18.609375 
Q 55.328125 10.359375 49.78125 5.59375 
Q 44.234375 0.828125 33.796875 0.09375 
z
M 28.90625 37.59375 
L 28.90625 57.625 
Q 23.25 56.984375 20.265625 54.390625 
Q 17.28125 51.8125 17.28125 47.515625 
Q 17.28125 43.3125 20.03125 40.96875 
Q 22.796875 38.625 28.90625 37.59375 
z
M 33.796875 28.21875 
L 33.796875 7.078125 
Q 39.984375 7.90625 43.140625 10.59375 
Q 46.296875 13.28125 46.296875 17.671875 
Q 46.296875 21.96875 43.28125 24.5 
Q 40.28125 27.046875 33.796875 28.21875 
z
" id="DejaVuSans-36"/>
     </defs>
     <g transform="translate(14.798438 172.342094)rotate(-90)scale(0.1 -0.1)">
      <use xlink:href="#DejaVuSans-80"/>
      <use x="58.552734" xlink:href="#DejaVuSans-114"/>
      <use x="99.666016" xlink:href="#DejaVuSans-105"/>
      <use x="127.449219" xlink:href="#DejaVuSans-99"/>
      <use x="182.429688" xlink:href="#DejaVuSans-101"/>
      <use x="243.953125" xlink:href="#DejaVuSans-32"/>
      <use x="275.740234" xlink:href="#DejaVuSans-36"/>
     </g>
    </g>
   </g>
   <g id="line2d_25">
    <path clip-path="url(#pba54aecdab)" d="M 69.560852 270.260789 
L 70.050158 272.876185 
L 70.539464 273.382791 
L 70.784117 272.299735 
L 71.02877 272.634331 
L 71.273423 272.036303 
L 71.518076 272.705044 
L 71.762729 272.849895 
L 72.007382 273.238488 
L 72.252035 273.336338 
L 72.496688 273.131483 
L 72.985994 270.840499 
L 73.4753 271.129241 
L 73.719953 271.349837 
L 73.964606 270.339187 
L 74.209259 270.851049 
L 74.453912 269.600128 
L 74.698566 270.09177 
L 74.943219 269.480118 
L 75.187872 269.197575 
L 75.432525 269.434704 
L 75.677178 268.865079 
L 75.921831 268.966803 
L 76.166484 269.409302 
L 76.411137 267.994954 
L 76.65579 265.890785 
L 77.145096 266.835467 
L 77.389749 266.832221 
L 77.634402 265.575723 
L 77.879055 265.30581 
L 78.123708 266.19334 
L 78.368361 265.973808 
L 78.613014 265.172464 
L 78.857667 265.411719 
L 79.346973 267.017383 
L 79.836279 268.39303 
L 80.080932 266.508269 
L 80.814891 268.129474 
L 81.304197 265.463079 
L 81.54885 266.011483 
L 81.793503 265.85805 
L 82.282809 269.663649 
L 82.527462 269.864722 
L 82.772115 270.373375 
L 83.016768 269.880421 
L 83.261421 269.947318 
L 83.506074 268.981227 
L 83.750727 269.703118 
L 84.240033 272.694 
L 84.484686 272.546193 
L 84.973992 275.645155 
L 85.218645 271.483407 
L 85.463298 272.974596 
L 85.707951 273.172484 
L 85.952604 273.092741 
L 86.197257 272.581393 
L 86.44191 271.717949 
L 86.931216 274.502472 
L 87.175869 274.779315 
L 87.665175 274.711828 
L 88.154481 276.334125 
L 89.133093 271.626169 
L 89.377746 271.134676 
L 89.622399 270.123171 
L 89.867052 270.196728 
L 90.356358 268.068411 
L 90.601011 267.867761 
L 90.845664 268.332303 
L 91.33497 267.328039 
L 91.579623 267.483905 
L 91.824276 267.498259 
L 92.068929 268.979508 
L 92.313582 268.163691 
L 92.558235 267.8699 
L 92.802888 268.005334 
L 93.047541 268.554842 
L 93.536847 265.503511 
L 93.7815 266.174158 
L 94.026153 265.21053 
L 94.270806 266.459218 
L 94.515459 265.988049 
L 94.760112 268.70262 
L 95.004765 268.771871 
L 95.249418 269.617686 
L 95.738724 266.330199 
L 96.22803 265.838112 
L 96.472683 263.302937 
L 96.717336 263.894663 
L 96.961989 263.901414 
L 97.206643 264.175163 
L 97.451296 263.470345 
L 97.695949 262.17768 
L 97.940602 262.414759 
L 98.185255 263.213121 
L 98.674561 262.325898 
L 99.163867 263.401215 
L 99.40852 261.89326 
L 99.653173 259.083654 
L 99.897826 261.265644 
L 100.142479 265.492234 
L 100.387132 262.087042 
L 100.631785 264.078721 
L 100.876438 264.212149 
L 101.121091 265.562901 
L 101.365744 263.678992 
L 101.610397 264.955456 
L 101.85505 265.487759 
L 102.099703 265.013908 
L 102.344356 266.305552 
L 102.589009 265.898532 
L 102.833662 262.982569 
L 103.078315 263.077467 
L 103.322968 264.208803 
L 103.567621 262.932172 
L 103.812274 263.853292 
L 104.30158 264.124085 
L 104.546233 265.630936 
L 104.790886 265.758527 
L 105.035539 264.700117 
L 105.524845 264.031878 
L 105.769498 262.028449 
L 106.014151 261.369909 
L 106.258804 261.86491 
L 106.74811 261.749601 
L 106.992763 262.554673 
L 107.237416 261.765818 
L 107.482069 261.507174 
L 107.726722 264.045173 
L 108.216028 266.130919 
L 108.460681 266.524416 
L 108.705334 266.284336 
L 108.949987 267.33724 
L 109.19464 266.146614 
L 109.439293 266.622067 
L 109.928599 264.117534 
L 110.173252 263.814753 
L 110.417905 265.149828 
L 110.662558 264.680337 
L 110.907211 265.855816 
L 111.151864 265.843618 
L 111.396517 266.824008 
L 112.619782 262.12054 
L 112.864435 263.524089 
L 113.109088 262.25411 
L 113.353741 263.605808 
L 113.598394 265.763634 
L 113.843047 265.501867 
L 114.0877 264.626518 
L 114.332353 263.182106 
L 114.577006 263.221051 
L 114.821659 261.604605 
L 115.066312 267.00393 
L 115.310965 268.335774 
L 115.555618 267.221221 
L 115.800271 268.750758 
L 116.289577 266.090197 
L 116.53423 266.734242 
L 116.778883 266.182288 
L 117.268189 265.536511 
L 117.512842 264.605833 
L 117.757495 264.383369 
L 118.002148 263.354031 
L 118.491454 264.507356 
L 118.736107 262.930652 
L 118.98076 263.56012 
L 119.225413 263.220221 
L 119.470066 264.815683 
L 119.71472 265.112443 
L 119.959373 265.119568 
L 120.204026 263.611364 
L 120.448679 264.096882 
L 120.693332 263.735558 
L 120.937985 263.087523 
L 121.182638 263.720885 
L 121.427291 264.035689 
L 121.671944 263.633926 
L 121.916597 263.460655 
L 122.16125 261.010122 
L 122.405903 259.890918 
L 122.650556 261.609288 
L 122.895209 262.430893 
L 123.139862 261.301077 
L 123.384515 261.801833 
L 123.873821 259.695741 
L 124.363127 261.941057 
L 124.60778 261.94472 
L 124.852433 262.687345 
L 125.097086 262.281646 
L 125.341739 260.79553 
L 125.831045 260.769115 
L 126.075698 259.56693 
L 126.320351 259.134068 
L 126.565004 259.058983 
L 126.809657 258.557596 
L 127.05431 257.284071 
L 127.543616 256.826397 
L 128.032922 252.705175 
L 128.277575 252.989778 
L 128.522228 252.896358 
L 128.766881 252.390595 
L 129.011534 253.631228 
L 129.256187 253.311649 
L 129.745493 254.423255 
L 129.990146 254.980718 
L 130.234799 253.757632 
L 130.479452 251.423139 
L 130.968758 254.016044 
L 131.213411 254.318624 
L 131.458064 253.139516 
L 131.702717 253.521267 
L 131.94737 254.394041 
L 132.192023 254.449437 
L 132.436676 255.486954 
L 132.681329 255.799077 
L 132.925982 255.385579 
L 133.170635 255.544858 
L 133.659941 256.988366 
L 133.904594 258.302398 
L 134.149247 258.745075 
L 134.3939 258.544193 
L 134.638553 258.140786 
L 134.883206 258.831146 
L 135.127859 257.432671 
L 135.372512 257.369785 
L 135.861818 259.83441 
L 136.106471 259.65457 
L 136.351124 259.014108 
L 136.595777 259.840912 
L 137.085083 256.423379 
L 137.329736 256.313949 
L 137.574389 255.835398 
L 137.819042 254.793231 
L 138.063695 254.62926 
L 138.797654 255.289153 
L 139.042307 255.788431 
L 139.531613 251.460698 
L 139.776266 251.467009 
L 140.020919 250.293397 
L 140.265572 251.605852 
L 140.510225 250.873797 
L 140.754878 251.274597 
L 140.999531 249.789827 
L 141.244184 250.368042 
L 141.488837 251.271383 
L 141.73349 249.00079 
L 141.978143 249.129668 
L 142.222797 250.683544 
L 142.46745 249.500416 
L 142.956756 253.762274 
L 143.201409 255.094657 
L 143.690715 251.674276 
L 143.935368 251.738815 
L 144.180021 252.896508 
L 144.424674 251.774896 
L 144.669327 251.709394 
L 144.91398 246.797317 
L 145.158633 247.525004 
L 145.403286 245.872469 
L 145.647939 247.446748 
L 145.892592 245.959494 
L 146.137245 237.503141 
L 146.381898 239.02895 
L 146.626551 237.776941 
L 146.871204 238.193485 
L 147.115857 237.380716 
L 147.36051 238.741017 
L 147.849816 238.731476 
L 148.094469 239.449406 
L 148.339122 242.832876 
L 148.828428 239.85538 
L 149.073081 241.170832 
L 149.317734 239.339063 
L 149.562387 236.310705 
L 149.80704 235.85969 
L 150.051693 236.673531 
L 150.296346 236.995435 
L 150.540999 237.635391 
L 150.785652 235.922252 
L 151.274958 233.864449 
L 151.764264 231.14294 
L 152.008917 229.276352 
L 152.25357 229.644177 
L 152.498223 231.69964 
L 152.742876 231.318976 
L 152.987529 231.711332 
L 153.232182 231.045816 
L 153.476835 231.597285 
L 153.721488 230.802385 
L 153.966141 232.301787 
L 154.210794 232.536881 
L 154.455447 231.714828 
L 154.7001 230.44112 
L 154.944753 230.807176 
L 155.189406 228.555175 
L 155.434059 228.775547 
L 155.678712 226.882519 
L 155.923365 226.699291 
L 156.168018 227.711374 
L 156.412671 226.296033 
L 156.901977 229.273446 
L 157.14663 227.791059 
L 157.391283 228.019003 
L 157.635936 228.431105 
L 157.880589 229.173208 
L 158.369895 226.92325 
L 158.614548 227.178781 
L 158.859201 228.077737 
L 159.103854 229.868468 
L 159.348507 228.086191 
L 159.59316 228.55153 
L 159.837813 228.579083 
L 160.082466 227.544289 
L 160.327119 225.540577 
L 160.571772 226.236983 
L 160.816425 227.492547 
L 161.061078 230.785628 
L 161.305731 231.122969 
L 161.550384 228.923906 
L 161.795037 231.707628 
L 162.03969 226.617879 
L 162.284343 238.576524 
L 162.528996 241.911631 
L 162.773649 241.385498 
L 163.018302 241.815055 
L 163.507608 237.901393 
L 163.752261 237.973396 
L 163.996914 237.728105 
L 164.241567 241.125367 
L 164.48622 238.980181 
L 164.730874 238.973845 
L 164.975527 240.010756 
L 165.22018 241.710965 
L 165.464833 241.05632 
L 165.709486 241.888396 
L 166.443445 238.397265 
L 166.688098 238.310638 
L 166.932751 237.774474 
L 167.177404 238.40777 
L 167.422057 237.293789 
L 167.66671 235.012027 
L 168.156016 235.118891 
L 168.645322 235.974734 
L 168.889975 235.475058 
L 169.134628 235.239191 
L 169.868587 233.262725 
L 170.602546 238.128963 
L 170.847199 240.480729 
L 171.091852 239.697014 
L 171.336505 242.745335 
L 171.581158 244.06934 
L 171.825811 244.101817 
L 172.070464 244.621697 
L 172.315117 242.839095 
L 172.55977 243.131587 
L 173.293729 249.666446 
L 173.538382 247.167626 
L 173.783035 245.92162 
L 174.027688 249.921196 
L 174.272341 251.356657 
L 174.516994 250.220065 
L 174.761647 250.19786 
L 175.0063 248.162303 
L 175.250953 247.851185 
L 175.495606 246.249345 
L 175.740259 246.686019 
L 175.984912 247.974923 
L 176.229565 244.566093 
L 176.474218 253.608044 
L 176.718871 255.529222 
L 177.45283 252.480627 
L 177.697483 252.445211 
L 177.942136 251.883197 
L 178.186789 255.309183 
L 178.676095 257.742493 
L 178.920748 256.69668 
L 179.165401 253.842864 
L 179.410054 253.393203 
L 179.654707 255.304159 
L 179.89936 255.945559 
L 180.144013 255.264665 
L 180.388666 255.540407 
L 180.877972 253.326522 
L 181.122625 253.365841 
L 181.367278 251.37696 
L 181.611931 251.77693 
L 181.856584 251.954088 
L 182.101237 250.966469 
L 182.34589 251.307805 
L 182.590543 252.310287 
L 182.835196 252.743291 
L 183.079849 252.845123 
L 183.324502 248.290209 
L 183.569155 246.668597 
L 183.813808 247.270163 
L 184.303114 245.157321 
L 184.547767 247.68337 
L 184.79242 247.562422 
L 185.037073 247.190237 
L 185.281726 247.735959 
L 185.526379 245.353876 
L 185.771032 247.356483 
L 186.015685 248.090996 
L 186.260338 247.244454 
L 186.504991 248.078897 
L 186.749644 247.18562 
L 187.238951 247.958614 
L 187.483604 247.895827 
L 187.728257 245.836753 
L 187.97291 245.730254 
L 188.217563 244.478378 
L 188.462216 245.55171 
L 188.706869 248.1796 
L 188.951522 246.493723 
L 189.196175 247.060487 
L 189.440828 242.117495 
L 189.685481 239.680797 
L 189.930134 239.945528 
L 190.174787 239.529847 
L 190.41944 240.455368 
L 190.664093 238.766029 
L 191.153399 238.196658 
L 191.398052 238.918905 
L 191.642705 238.773793 
L 191.887358 248.095439 
L 192.132011 249.018519 
L 192.376664 249.097706 
L 192.621317 248.43141 
L 193.110623 252.574363 
L 193.355276 250.777595 
L 193.599929 251.149522 
L 193.844582 250.741605 
L 194.089235 251.416014 
L 194.333888 249.984447 
L 194.823194 249.3611 
L 195.3125 245.647962 
L 195.557153 245.565794 
L 196.291112 244.996539 
L 196.535765 245.775179 
L 196.780418 246.122875 
L 197.025071 245.454454 
L 197.269724 243.337119 
L 197.514377 242.979948 
L 197.75903 243.827976 
L 198.003683 244.069805 
L 198.248336 243.152986 
L 198.492989 244.071931 
L 198.737642 242.183321 
L 198.982295 242.073808 
L 199.226948 243.167585 
L 199.471601 246.552507 
L 199.716254 246.098553 
L 199.960907 246.314689 
L 200.20556 246.140322 
L 200.450213 248.109456 
L 200.694866 247.048413 
L 200.939519 248.063659 
L 201.184172 247.793747 
L 201.428825 246.085757 
L 201.673478 247.948956 
L 201.918131 248.179749 
L 202.162784 246.939648 
L 202.407437 248.658076 
L 202.65209 248.311916 
L 202.896743 248.691001 
L 203.141396 248.529704 
L 203.386049 249.88049 
L 203.630702 249.618706 
L 203.875355 248.448956 
L 204.120008 248.608468 
L 204.364661 250.022521 
L 204.609314 248.463679 
L 204.853967 250.457667 
L 205.343273 252.856042 
L 205.587926 252.351525 
L 206.077232 253.833132 
L 206.321885 253.616439 
L 206.566538 252.923595 
L 206.811191 250.464028 
L 207.055844 251.127758 
L 207.300497 251.071797 
L 207.54515 258.133843 
L 207.789803 257.319795 
L 208.034456 255.804748 
L 208.279109 256.233417 
L 208.768415 253.167965 
L 209.013068 253.11012 
L 209.257721 253.899364 
L 209.502375 255.597265 
L 209.747028 255.559548 
L 209.991681 254.697602 
L 210.480987 251.438319 
L 210.72564 251.588621 
L 210.970293 250.234672 
L 211.214946 247.162328 
L 211.459599 248.488716 
L 211.948905 247.522596 
L 212.193558 246.442529 
L 212.682864 245.063394 
L 212.927517 245.220398 
L 213.17217 245.604275 
L 213.416823 244.213472 
L 213.661476 247.633911 
L 213.906129 247.518494 
L 214.150782 250.151441 
L 214.395435 250.020171 
L 214.884741 252.780435 
L 215.129394 251.181742 
L 215.374047 252.985078 
L 215.6187 252.569912 
L 215.863353 252.580632 
L 216.108006 252.928993 
L 216.352659 255.912534 
L 216.597312 254.874784 
L 216.841965 255.20089 
L 217.086618 254.632125 
L 217.331271 252.847124 
L 217.575924 252.93689 
L 217.820577 253.82707 
L 218.06523 252.181866 
L 218.309883 251.402454 
L 218.554536 251.892871 
L 218.799189 251.87897 
L 219.043842 252.3752 
L 219.533148 255.942071 
L 220.022454 254.533391 
L 220.267107 255.492717 
L 220.51176 256.973012 
L 220.756413 256.055371 
L 221.001066 256.457409 
L 221.245719 258.171211 
L 221.490372 257.137057 
L 221.735025 257.498796 
L 221.979678 255.391417 
L 222.224331 251.866389 
L 222.468984 251.34543 
L 223.202943 253.639275 
L 223.447596 251.50852 
L 223.692249 239.910659 
L 223.936902 237.351942 
L 224.181555 237.633331 
L 224.426208 237.253249 
L 224.670861 234.748898 
L 224.915514 234.673183 
L 225.160167 235.682151 
L 225.894126 233.825553 
L 226.138779 232.537612 
L 226.383432 234.247578 
L 226.628085 234.760765 
L 227.117391 231.938985 
L 227.362044 232.89191 
L 227.606697 233.287819 
L 227.85135 231.434917 
L 228.096003 231.599435 
L 228.340656 232.853878 
L 228.585309 231.351877 
L 228.829962 231.639228 
L 229.074615 232.152988 
L 229.319268 230.762102 
L 229.563921 232.85994 
L 229.808574 233.260441 
L 230.053227 235.689641 
L 230.29788 236.526451 
L 230.542533 234.395539 
L 230.787186 235.3993 
L 231.031839 234.650812 
L 231.276492 235.031691 
L 231.521145 234.165286 
L 231.765798 234.683895 
L 232.010452 233.270456 
L 232.255105 234.198784 
L 232.499758 234.478305 
L 232.989064 236.298141 
L 233.47837 234.348771 
L 233.967676 235.526052 
L 234.212329 234.975539 
L 234.456982 233.685473 
L 234.701635 234.410403 
L 234.946288 232.571907 
L 235.190941 231.949424 
L 235.435594 232.20101 
L 235.680247 232.274292 
L 235.9249 231.527647 
L 236.169553 231.983105 
L 236.414206 231.28077 
L 236.658859 234.110546 
L 236.903512 230.320604 
L 237.148165 229.885159 
L 237.392818 230.271419 
L 237.637471 230.200794 
L 237.882124 215.246759 
L 238.37143 219.703552 
L 238.616083 219.59056 
L 238.860736 221.638017 
L 239.105389 221.341938 
L 239.350042 221.295535 
L 239.839348 222.328203 
L 240.328654 218.348565 
L 240.573307 218.57744 
L 240.81796 219.049638 
L 241.062613 220.147301 
L 241.307266 218.673118 
L 241.551919 220.380585 
L 241.796572 220.58072 
L 242.041225 221.52206 
L 242.285878 220.937799 
L 242.530531 218.841772 
L 242.775184 219.938788 
L 243.019837 220.511664 
L 243.26449 218.888582 
L 243.509143 220.21223 
L 243.998449 219.03685 
L 244.243102 219.028537 
L 244.487755 217.517062 
L 244.977061 220.119034 
L 245.221714 221.033204 
L 245.466367 220.496052 
L 245.71102 219.075438 
L 245.955673 218.495371 
L 246.200326 219.320622 
L 246.444979 220.991593 
L 246.689632 220.005153 
L 246.934285 219.864957 
L 247.178938 216.751002 
L 247.423591 217.983771 
L 247.668244 217.606628 
L 247.912897 214.97467 
L 248.15755 216.394287 
L 248.402203 216.587455 
L 248.646856 217.11372 
L 248.891509 219.334789 
L 249.380815 217.290396 
L 249.625468 217.215843 
L 249.870121 217.658288 
L 250.114774 217.45954 
L 250.359427 219.347701 
L 250.60408 218.070107 
L 251.338039 209.715329 
L 251.582692 210.922978 
L 251.827345 207.030897 
L 252.316651 203.684796 
L 252.561304 203.716642 
L 252.805957 203.629441 
L 253.05061 205.261134 
L 253.295263 192.448482 
L 253.539916 192.063592 
L 253.784569 193.525576 
L 254.029222 192.612818 
L 254.273875 190.48972 
L 254.763182 190.96715 
L 255.007835 191.778981 
L 255.252488 190.366207 
L 255.741794 194.201139 
L 255.986447 193.779064 
L 256.2311 192.835465 
L 256.475753 193.257258 
L 256.720406 192.227945 
L 256.965059 191.719425 
L 257.209712 190.722116 
L 257.454365 190.781456 
L 257.699018 191.346808 
L 258.188324 201.653332 
L 258.432977 209.961069 
L 258.67763 209.14746 
L 258.922283 199.909286 
L 259.166936 195.259632 
L 259.411589 195.418322 
L 259.656242 196.750332 
L 259.900895 201.11819 
L 260.145548 197.314738 
L 260.634854 200.542075 
L 260.879507 195.526789 
L 261.12416 195.75842 
L 261.613466 192.369312 
L 261.858119 194.561765 
L 262.102772 194.262954 
L 262.347425 192.897213 
L 262.592078 189.820817 
L 262.836731 189.480918 
L 263.081384 187.276125 
L 263.326037 189.975188 
L 263.815343 191.158474 
L 264.059996 193.718528 
L 264.304649 199.125888 
L 264.549302 201.224605 
L 265.038608 194.610593 
L 265.527914 188.452884 
L 265.772567 190.149024 
L 266.01722 188.910533 
L 266.261873 191.29255 
L 266.506526 189.499901 
L 266.751179 186.724059 
L 266.995832 187.127035 
L 267.240485 188.214543 
L 267.485138 183.419752 
L 267.729791 181.220207 
L 267.974444 180.604914 
L 268.219097 183.893278 
L 268.46375 185.202519 
L 268.708403 182.976435 
L 268.953056 173.521195 
L 269.197709 171.071085 
L 269.442362 170.433488 
L 269.687015 168.712469 
L 269.931668 166.142583 
L 270.176321 166.35211 
L 270.420974 165.670468 
L 270.665627 166.47755 
L 271.154933 158.285861 
L 271.399586 157.324409 
L 271.644239 158.330354 
L 271.888892 157.116194 
L 272.133545 153.432876 
L 272.378198 155.559229 
L 272.622851 161.774451 
L 272.867504 160.158777 
L 273.112157 161.396852 
L 273.35681 155.939419 
L 273.601463 156.620347 
L 274.090769 151.76967 
L 274.335422 153.928541 
L 274.580075 152.734062 
L 274.824728 153.302304 
L 275.069381 155.59286 
L 275.314034 151.696395 
L 275.558687 152.592396 
L 275.80334 155.217586 
L 276.047993 153.411767 
L 276.292646 154.196627 
L 276.537299 152.166169 
L 276.781952 155.576003 
L 277.026606 156.178757 
L 277.271259 162.13707 
L 277.515912 157.279883 
L 277.760565 157.169805 
L 278.005218 152.578345 
L 278.494524 155.728979 
L 278.739177 155.570573 
L 278.98383 155.957987 
L 279.228483 155.830355 
L 279.473136 156.089622 
L 279.717789 152.736271 
L 279.962442 147.714748 
L 280.207095 149.130877 
L 280.451748 152.62802 
L 280.696401 163.022325 
L 280.941054 163.747696 
L 281.185707 164.083559 
L 281.43036 170.802252 
L 281.675013 170.977981 
L 281.919666 168.082147 
L 282.164319 168.107341 
L 282.408972 177.828541 
L 282.653625 174.695611 
L 282.898278 180.877202 
L 283.142931 179.750284 
L 283.387584 180.508206 
L 283.632237 179.684716 
L 283.87689 173.955975 
L 284.121543 174.017624 
L 284.366196 172.7603 
L 284.610849 177.600265 
L 284.855502 163.493029 
L 285.100155 176.802533 
L 285.344808 179.945644 
L 285.834114 191.613051 
L 286.078767 190.21627 
L 286.32342 199.385172 
L 286.568073 203.131584 
L 286.812726 204.699544 
L 287.057379 202.465396 
L 287.302032 198.916544 
L 287.546685 198.095296 
L 288.035991 190.887083 
L 288.280644 193.431907 
L 288.525297 190.756328 
L 288.76995 184.160966 
L 289.014603 186.08422 
L 289.503909 185.458631 
L 289.993215 185.412577 
L 290.237868 186.166297 
L 290.482521 178.974924 
L 290.727174 178.730803 
L 291.21648 180.013537 
L 291.461133 183.309458 
L 291.705786 183.949546 
L 292.195092 184.301403 
L 292.439745 181.412162 
L 292.929051 179.430365 
L 293.173704 180.159057 
L 293.418357 184.137316 
L 293.66301 186.070103 
L 293.907663 185.544212 
L 294.396969 181.390007 
L 294.641622 177.817497 
L 294.886275 178.682408 
L 295.130928 174.867886 
L 295.375581 173.596645 
L 295.620234 174.989772 
L 295.864887 173.641652 
L 296.354193 176.981036 
L 296.598846 172.643396 
L 296.843499 175.572164 
L 297.088152 174.677858 
L 297.332805 174.288483 
L 297.577458 172.335733 
L 297.822111 169.200877 
L 298.311417 166.244158 
L 298.55607 163.678175 
L 298.800723 165.719811 
L 299.045376 164.296855 
L 299.29003 164.840052 
L 299.534683 167.673491 
L 299.779336 166.079689 
L 300.513295 172.529814 
L 300.757948 156.95249 
L 301.002601 150.645209 
L 301.247254 154.152898 
L 301.491907 154.051772 
L 301.73656 157.19093 
L 301.981213 153.146488 
L 302.225866 151.677063 
L 302.470519 145.407683 
L 302.715172 142.736837 
L 302.959825 141.459434 
L 303.204478 143.572252 
L 303.449131 143.271763 
L 303.693784 147.419923 
L 303.938437 146.753859 
L 304.18309 146.468949 
L 304.427743 145.322484 
L 304.672396 146.951528 
L 304.917049 144.871228 
L 305.161702 143.759938 
L 305.406355 141.996951 
L 305.651008 142.73124 
L 305.895661 139.837963 
L 306.140314 140.793122 
L 306.384967 138.385578 
L 306.62962 139.151555 
L 306.874273 138.807953 
L 307.118926 139.606996 
L 307.363579 138.802389 
L 307.608232 138.540215 
L 307.852885 141.175886 
L 308.097538 141.828646 
L 308.342191 140.71244 
L 308.586844 142.111563 
L 308.831497 141.203189 
L 309.07615 144.216957 
L 309.320803 142.099107 
L 309.565456 141.652452 
L 309.810109 143.090736 
L 310.054762 139.943557 
L 310.299415 146.260669 
L 310.544068 148.199086 
L 310.788721 143.681034 
L 311.033374 141.75112 
L 311.278027 141.801176 
L 311.52268 139.035764 
L 311.767333 138.415174 
L 312.011986 135.843129 
L 312.256639 136.166304 
L 312.745945 131.524771 
L 313.235251 134.517812 
L 313.479904 134.851732 
L 313.724557 136.410208 
L 313.96921 136.211926 
L 314.213863 135.161404 
L 314.458516 133.615948 
L 314.703169 133.978202 
L 314.947822 133.823581 
L 315.437128 136.281181 
L 315.681781 135.972538 
L 315.926434 131.67969 
L 316.171087 130.105137 
L 316.41574 127.697611 
L 316.905046 131.178561 
L 317.394352 128.124801 
L 317.639005 128.008944 
L 317.883658 127.512598 
L 318.128311 127.430505 
L 318.372964 126.689589 
L 318.617617 126.336022 
L 319.106923 128.599225 
L 319.351576 128.406904 
L 319.596229 128.465879 
L 319.840882 130.405924 
L 320.330188 128.980079 
L 320.574841 130.41574 
L 320.819494 129.84024 
L 321.064147 127.2006 
L 321.3088 126.651574 
L 321.553453 127.657486 
L 322.287413 126.324297 
L 322.532066 121.879353 
L 322.776719 123.175074 
L 323.021372 123.223221 
L 323.266025 129.667716 
L 323.510678 126.446448 
L 323.755331 129.390678 
L 323.999984 129.340954 
L 324.48929 124.668547 
L 324.733943 125.63465 
L 324.978596 124.182764 
L 325.223249 121.616216 
L 325.467902 117.622577 
L 325.712555 117.424843 
L 325.957208 119.173414 
L 326.446514 111.192332 
L 326.691167 111.178231 
L 326.93582 108.860853 
L 327.180473 109.030587 
L 327.425126 109.725797 
L 327.669779 106.866334 
L 328.159085 108.218407 
L 328.403738 107.542262 
L 328.648391 110.455452 
L 328.893044 109.517383 
L 329.38235 112.530453 
L 329.627003 115.192165 
L 329.871656 113.85783 
L 330.116309 113.91056 
L 330.360962 115.922667 
L 330.605615 113.505159 
L 330.850268 108.395282 
L 331.094921 109.338233 
L 331.339574 112.678862 
L 331.584227 113.696151 
L 331.82888 125.099989 
L 332.073533 121.224367 
L 332.318186 122.595555 
L 332.562839 128.02047 
L 332.807492 127.482405 
L 333.052145 130.758728 
L 333.296798 122.638138 
L 333.541451 122.098346 
L 333.786104 126.412136 
L 334.030757 134.240375 
L 334.27541 135.006568 
L 334.520063 140.476955 
L 334.764716 133.946182 
L 335.009369 133.252599 
L 335.254022 130.610734 
L 335.498675 129.604689 
L 335.743328 124.222706 
L 335.987981 122.900511 
L 336.232634 124.330226 
L 336.477287 124.193094 
L 336.72194 127.892389 
L 336.966593 128.982172 
L 337.455899 134.049948 
L 337.700552 134.920904 
L 337.945205 129.773459 
L 338.434511 126.897687 
L 338.679164 127.714169 
L 338.923817 127.306476 
L 339.16847 129.631644 
L 339.413123 125.74227 
L 340.147082 130.245325 
L 340.636388 126.669294 
L 340.881041 126.863442 
L 341.370347 129.491655 
L 341.615 126.531465 
L 341.859653 126.422483 
L 342.104306 128.318168 
L 342.348959 132.386078 
L 342.838265 130.376894 
L 343.327571 120.048705 
L 343.572224 119.852365 
L 343.816877 120.047193 
L 344.06153 119.150263 
L 344.306184 115.208275 
L 344.550837 114.370983 
L 344.79549 116.376746 
L 345.040143 116.879453 
L 345.284796 116.429476 
L 345.529449 116.640248 
L 345.774102 114.031367 
L 346.018755 112.839976 
L 346.263408 109.008349 
L 346.508061 108.35034 
L 346.752714 109.227906 
L 347.24202 112.439408 
L 347.731326 108.022615 
L 347.975979 116.142939 
L 348.220632 116.56812 
L 349.199244 111.324631 
L 349.443897 108.87678 
L 349.68855 108.966048 
L 349.933203 107.21932 
L 350.422509 106.613527 
L 350.667162 103.517517 
L 350.911815 103.829066 
L 351.156468 104.716929 
L 351.401121 106.544372 
L 351.645774 105.564567 
L 351.890427 106.585908 
L 352.13508 104.372479 
L 352.379733 105.558007 
L 352.624386 105.23455 
L 352.869039 106.110837 
L 353.113692 106.243286 
L 353.358345 105.024974 
L 353.602998 104.388489 
L 353.847651 104.544654 
L 354.092304 103.941751 
L 354.336957 104.511571 
L 354.826263 104.253749 
L 355.070916 104.56289 
L 355.315569 103.285105 
L 355.560222 107.06367 
L 355.804875 105.622546 
L 356.049528 105.866251 
L 356.294181 106.361103 
L 356.538834 106.010342 
L 356.783487 103.526651 
L 357.02814 98.618826 
L 357.272793 98.197349 
L 357.517446 95.361636 
L 357.762099 94.04537 
L 358.006752 89.879905 
L 358.251405 89.315649 
L 358.496058 92.26898 
L 358.740711 93.042281 
L 358.985364 89.71909 
L 359.47467 92.706019 
L 359.719323 95.755793 
L 359.963976 90.9472 
L 360.208629 90.646297 
L 360.453282 91.869492 
L 360.697935 90.986744 
L 360.942588 91.96811 
L 361.187241 89.517818 
L 361.431894 89.547446 
L 361.676547 89.072973 
L 362.165853 84.861587 
L 362.410506 78.550321 
L 362.655159 79.080913 
L 363.144465 81.401247 
L 363.389118 82.306582 
L 363.633771 78.242509 
L 363.878424 77.369892 
L 364.123077 78.395435 
L 364.36773 78.643675 
L 364.612383 74.868165 
L 364.857036 75.929997 
L 365.101689 73.623331 
L 365.346342 79.485699 
L 365.590995 75.489819 
L 365.835648 75.317793 
L 366.080301 72.36775 
L 366.324954 72.196505 
L 367.058914 65.663888 
L 367.303567 65.351675 
L 367.54822 65.87853 
L 367.792873 65.474939 
L 368.037526 62.546321 
L 368.282179 61.39293 
L 368.526832 63.651017 
L 368.771485 61.557315 
L 369.016138 61.589867 
L 369.260791 70.292201 
L 369.505444 73.575566 
L 369.750097 69.234339 
L 369.99475 70.708679 
L 370.239403 73.982428 
L 370.484056 67.392979 
L 370.728709 65.661912 
L 370.973362 66.378032 
L 371.218015 63.629543 
L 371.462668 63.990734 
L 371.707321 63.289628 
L 371.951974 65.977929 
L 372.196627 70.563991 
L 372.44128 66.725138 
L 372.685933 70.897163 
L 372.930586 72.888095 
L 373.175239 76.735899 
L 373.419892 71.808676 
L 373.664545 73.779828 
L 374.153851 65.253057 
L 374.398504 66.041703 
L 374.643157 62.525528 
L 374.88781 64.24736 
L 375.132463 63.818094 
L 375.377116 61.594002 
L 375.621769 57.76093 
L 376.111075 56.637533 
L 376.355728 57.420234 
L 376.600381 53.723297 
L 376.845034 53.624014 
L 377.089687 50.021344 
L 377.33434 51.978097 
L 377.823646 67.403857 
L 378.068299 64.889956 
L 378.312952 65.269615 
L 378.557605 67.752043 
L 378.802258 67.440012 
L 379.046911 66.189531 
L 379.291564 66.92362 
L 379.536217 69.024348 
L 379.78087 75.803676 
L 380.270176 68.672474 
L 380.514829 69.029479 
L 380.759482 70.189248 
L 381.004135 74.914352 
L 381.248788 75.334102 
L 381.493441 76.831096 
L 381.738094 73.139739 
L 381.982747 75.748355 
L 382.472053 79.038845 
L 382.716706 78.808459 
L 382.961359 76.681043 
L 383.450665 69.662725 
L 383.695318 70.369013 
L 383.939971 73.798977 
L 384.184624 72.956736 
L 384.429277 69.871803 
L 384.67393 73.729273 
L 384.918583 70.242875 
L 385.163236 69.126769 
L 385.407889 64.497975 
L 386.386501 72.390304 
L 386.631154 71.501611 
L 387.12046 76.421925 
L 387.365113 80.513119 
L 387.609766 80.737393 
L 387.854419 77.466783 
L 388.343725 74.797316 
L 388.833031 75.908174 
L 389.077684 73.621603 
L 389.566991 67.304574 
L 389.811644 66.931625 
L 390.056297 67.902063 
L 390.545603 64.17842 
L 390.790256 63.664287 
L 391.279562 61.932805 
L 391.768868 67.904189 
L 392.013521 68.837126 
L 392.258174 73.393692 
L 392.502827 70.635804 
L 392.74748 71.620142 
L 392.992133 71.709344 
L 393.236786 36.56632 
L 393.481439 35.405057 
L 393.726092 36.278305 
L 393.970745 36.263025 
L 394.215398 38.851213 
L 394.215398 38.851213 
" style="fill:none;stroke:#1f77b4;stroke-linecap:square;stroke-width:1.5;"/>
   </g>
   <g id="line2d_26">
    <path clip-path="url(#pba54aecdab)" d="M 69.560852 271.689852 
L 70.294811 273.442209 
L 70.539464 272.498004 
L 70.784117 272.081684 
L 71.02877 272.470794 
L 71.273423 272.155152 
L 71.762729 272.756504 
L 72.007382 272.987794 
L 72.252035 272.312973 
L 72.496688 272.979631 
L 72.741341 271.493936 
L 72.985994 270.710273 
L 73.230647 270.500752 
L 73.4753 270.634084 
L 73.719953 271.0368 
L 73.964606 270.291231 
L 74.209259 270.4164 
L 74.453912 269.298047 
L 74.698566 269.793279 
L 74.943219 269.028663 
L 75.187872 268.971521 
L 75.432525 268.677648 
L 75.677178 268.623227 
L 75.921831 268.802816 
L 76.166484 268.634111 
L 76.65579 265.703538 
L 77.389749 266.808285 
L 77.634402 265.050485 
L 77.879055 265.091301 
L 78.123708 265.845033 
L 78.857667 264.95797 
L 79.10232 266.732095 
L 79.346973 266.430059 
L 79.591626 267.499432 
L 79.836279 268.005548 
L 80.080932 266.481759 
L 80.325585 266.683117 
L 80.814891 267.823237 
L 81.304197 265.104906 
L 81.54885 266.065438 
L 81.793503 265.793333 
L 82.282809 268.696695 
L 82.527462 270.008242 
L 82.772115 270.098037 
L 83.016768 269.548384 
L 83.261421 269.956542 
L 83.506074 268.759279 
L 83.750727 269.469474 
L 84.240033 273.308878 
L 84.484686 271.99461 
L 84.729339 273.344252 
L 84.973992 273.975536 
L 85.218645 271.874884 
L 85.463298 272.443583 
L 85.707951 272.503447 
L 85.952604 273.039494 
L 86.197257 272.122499 
L 86.44191 272.057194 
L 86.686563 272.990515 
L 86.931216 274.612262 
L 87.175869 274.522467 
L 87.420522 274.922462 
L 87.665175 274.546957 
L 87.909828 275.689798 
L 88.154481 275.959183 
L 88.399134 274.051725 
L 88.643787 273.594588 
L 88.88844 272.549704 
L 89.133093 270.903468 
L 89.377746 270.767415 
L 89.622399 269.997358 
L 89.867052 270.206879 
L 90.111705 268.68309 
L 90.601011 267.461337 
L 90.845664 268.168811 
L 91.090317 267.488548 
L 91.33497 267.336169 
L 91.579623 267.025969 
L 91.824276 267.308958 
L 92.068929 268.560642 
L 92.313582 267.861332 
L 92.558235 267.850448 
L 92.802888 268.122553 
L 93.047541 268.204185 
L 93.536847 265.077696 
L 93.7815 265.877685 
L 94.515459 266.206932 
L 94.760112 268.620505 
L 95.249418 269.853142 
L 95.494071 266.498085 
L 95.738724 266.17428 
L 95.983377 266.089927 
L 96.472683 263.507649 
L 96.717336 263.208333 
L 96.961989 263.107654 
L 97.206643 264.043696 
L 97.695949 262.525349 
L 97.940602 262.566165 
L 98.185255 262.302223 
L 98.429908 262.484533 
L 98.674561 262.26957 
L 99.163867 262.881807 
L 99.40852 261.349855 
L 99.653173 258.960771 
L 99.897826 261.254618 
L 100.142479 259.173013 
L 100.387132 262.427391 
L 100.631785 263.001533 
L 100.876438 264.67498 
L 101.121091 264.887222 
L 101.365744 264.02737 
L 101.610397 264.315801 
L 101.85505 265.050485 
L 102.099703 264.560696 
L 102.344356 265.651838 
L 102.589009 265.015112 
L 102.833662 263.426017 
L 103.078315 263.35527 
L 103.322968 263.823291 
L 103.567621 262.65596 
L 103.812274 264.038254 
L 104.056927 263.630096 
L 104.30158 263.543023 
L 104.546233 265.189259 
L 104.790886 265.594696 
L 105.280192 264.541649 
L 105.524845 263.972949 
L 105.769498 261.62196 
L 106.014151 261.143055 
L 106.258804 261.594749 
L 106.503457 261.349855 
L 106.74811 261.77706 
L 106.992763 262.438276 
L 107.237416 261.28455 
L 107.971375 265.621906 
L 108.705334 266.489922 
L 108.949987 266.914406 
L 109.19464 265.817822 
L 109.439293 266.234143 
L 109.683946 265.771564 
L 109.928599 263.84778 
L 110.173252 263.532138 
L 110.417905 264.77838 
L 110.662558 264.85457 
L 111.151864 266.596043 
L 111.396517 266.541622 
L 112.130476 264.141654 
L 112.375129 262.677728 
L 112.619782 262.416507 
L 112.864435 262.898133 
L 113.109088 262.492697 
L 113.353741 263.578396 
L 113.598394 265.932106 
L 113.843047 265.608301 
L 114.332353 262.846433 
L 114.577006 262.29406 
L 114.821659 262.718544 
L 115.066312 266.819169 
L 115.310965 268.323911 
L 115.555618 267.091274 
L 115.800271 268.440916 
L 116.044924 266.481759 
L 116.289577 265.951154 
L 116.53423 266.435501 
L 116.778883 266.283122 
L 118.002148 263.507649 
L 118.246801 263.809686 
L 118.491454 263.845059 
L 118.736107 262.982486 
L 118.98076 263.053233 
L 119.225413 263.420575 
L 119.470066 265.298101 
L 119.71472 265.472248 
L 119.959373 263.668191 
L 120.204026 263.945738 
L 120.693332 263.798802 
L 120.937985 262.99337 
L 121.427291 263.850501 
L 121.916597 262.781128 
L 122.16125 260.892718 
L 122.405903 261.07775 
L 122.650556 260.914486 
L 122.895209 262.302223 
L 123.139862 261.349855 
L 123.384515 260.982513 
L 123.873821 259.646476 
L 124.118474 261.31176 
L 124.363127 261.46686 
L 124.60778 262.359365 
L 124.852433 262.084539 
L 125.097086 261.627402 
L 125.341739 260.212455 
L 125.586392 261.02605 
L 126.075698 259.706339 
L 126.320351 259.445118 
L 126.565004 258.628803 
L 126.809657 258.242413 
L 127.05431 256.996172 
L 127.298963 256.884609 
L 127.788269 254.903683 
L 128.032922 252.56902 
L 128.522228 252.650652 
L 128.766881 252.841125 
L 129.011534 253.352683 
L 129.256187 252.030252 
L 129.50084 253.687373 
L 129.745493 253.725467 
L 129.990146 254.81933 
L 130.234799 254.669672 
L 130.479452 251.535021 
L 130.968758 253.483294 
L 131.213411 253.709141 
L 131.458064 253.287378 
L 131.702717 253.622067 
L 131.94737 254.408451 
L 132.192023 254.506409 
L 132.436676 254.949941 
L 132.681329 255.722719 
L 133.170635 255.668298 
L 133.415288 256.100946 
L 133.659941 257.597524 
L 134.149247 258.577103 
L 134.3939 258.38935 
L 134.883206 258.683224 
L 135.127859 256.93903 
L 135.372512 257.151272 
L 135.617165 258.936282 
L 135.861818 259.891371 
L 136.106471 259.594776 
L 136.351124 258.740366 
L 136.595777 258.702271 
L 136.84043 257.722693 
L 137.085083 256.280535 
L 137.574389 255.303677 
L 137.819042 254.397567 
L 138.063695 254.84382 
L 138.553001 254.50913 
L 138.797654 254.596204 
L 139.042307 255.192114 
L 139.28696 253.442478 
L 139.531613 250.800337 
L 139.776266 251.135026 
L 140.020919 250.735031 
L 140.265572 251.164957 
L 140.510225 250.593537 
L 140.754878 250.764963 
L 140.999531 249.943205 
L 141.244184 250.898294 
L 141.488837 250.677889 
L 141.978143 248.999 
L 142.222797 250.430273 
L 142.46745 250.400342 
L 142.712103 251.418015 
L 142.956756 253.616625 
L 143.201409 253.287378 
L 143.446062 253.249283 
L 143.690715 252.038415 
L 143.935368 251.861547 
L 144.424674 252.623441 
L 144.91398 246.414001 
L 145.158633 247.004469 
L 145.403286 246.155501 
L 145.647939 246.484748 
L 145.892592 238.601861 
L 146.137245 238.242682 
L 146.381898 238.503903 
L 146.626551 237.507998 
L 146.871204 237.750172 
L 147.115857 236.688961 
L 147.605163 239.097092 
L 147.849816 238.098466 
L 148.094469 239.347429 
L 148.339122 242.043991 
L 148.583775 240.781423 
L 148.828428 240.128371 
L 149.073081 241.649439 
L 149.562387 236.144751 
L 149.80704 235.423672 
L 150.051693 236.637261 
L 150.296346 236.163798 
L 150.540999 237.118887 
L 151.030305 234.46042 
L 151.274958 233.429141 
L 151.764264 230.302652 
L 152.008917 227.608811 
L 152.498223 231.826441 
L 152.987529 230.506731 
L 153.232182 230.572037 
L 153.476835 231.761136 
L 153.721488 230.781558 
L 153.966141 232.435957 
L 154.210794 231.33121 
L 154.455447 231.410121 
L 154.7001 229.880889 
L 154.944753 230.267279 
L 155.189406 228.895869 
L 155.434059 228.275469 
L 155.678712 226.332638 
L 156.168018 226.849638 
L 156.412671 226.071417 
L 156.901977 228.811516 
L 157.14663 227.663232 
L 157.391283 227.802006 
L 157.635936 228.465942 
L 157.880589 228.686348 
L 158.125242 227.753027 
L 158.369895 226.327196 
L 158.614548 226.64828 
L 159.103854 229.478174 
L 159.348507 227.625137 
L 159.59316 229.056411 
L 159.837813 228.89859 
L 160.327119 225.159864 
L 160.571772 227.064601 
L 160.816425 227.837379 
L 161.061078 229.921705 
L 161.305731 230.765231 
L 161.550384 229.470011 
L 161.795037 229.031921 
L 162.284343 238.498461 
L 162.528996 241.053529 
L 162.773649 242.030386 
L 163.018302 241.649439 
L 163.262955 238.498461 
L 163.507608 237.782824 
L 163.752261 237.72024 
L 163.996914 239.192329 
L 164.241567 241.567807 
L 164.48622 238.400503 
L 165.22018 241.268492 
L 165.464833 240.278029 
L 165.709486 242.250791 
L 166.198792 238.259008 
L 166.443445 238.977366 
L 166.688098 238.05765 
L 166.932751 238.563766 
L 167.177404 237.159703 
L 167.422057 237.097119 
L 167.66671 234.397836 
L 167.911363 234.25362 
L 168.400669 235.230477 
L 168.645322 236.47944 
L 168.889975 233.698525 
L 169.134628 234.737967 
L 169.623934 233.508052 
L 169.868587 233.113499 
L 170.11324 235.325714 
L 170.357893 235.227756 
L 170.847199 239.845381 
L 171.091852 239.001855 
L 171.336505 242.805886 
L 171.581158 243.649412 
L 171.825811 243.009965 
L 172.070464 244.182738 
L 172.315117 242.033107 
L 172.55977 243.167786 
L 172.804423 244.982728 
L 173.049076 248.835737 
L 173.293729 248.593563 
L 173.538382 246.80039 
L 173.783035 246.220806 
L 174.027688 250.737752 
L 174.272341 249.739126 
L 174.516994 250.003068 
L 174.761647 248.786758 
L 175.0063 249.170426 
L 175.250953 248.024864 
L 175.495606 245.839859 
L 175.740259 245.551427 
L 175.984912 246.473864 
L 176.474218 253.458804 
L 176.718871 255.515919 
L 176.963524 255.064225 
L 177.45283 251.711889 
L 177.697483 252.813915 
L 177.942136 251.954063 
L 178.186789 255.755372 
L 178.431442 257.045151 
L 178.676095 257.113177 
L 178.920748 256.098225 
L 179.165401 253.839751 
L 179.410054 253.866962 
L 179.89936 256.506382 
L 180.144013 255.700951 
L 180.388666 255.33633 
L 180.877972 253.173094 
L 181.122625 253.061531 
L 181.367278 250.626189 
L 181.611931 251.962226 
L 181.856584 251.711889 
L 182.101237 250.620747 
L 182.34589 251.121421 
L 182.590543 252.98262 
L 183.079849 252.343173 
L 183.324502 247.744595 
L 183.569155 245.956864 
L 183.813808 247.023516 
L 184.058461 244.751438 
L 184.303114 244.873885 
L 184.547767 247.18678 
L 184.79242 247.78269 
L 185.037073 247.053448 
L 185.281726 246.92828 
L 185.526379 244.955517 
L 186.015685 248.199011 
L 186.260338 247.053448 
L 186.504991 247.926906 
L 186.749644 246.794948 
L 186.994298 247.505143 
L 187.238951 247.750037 
L 187.483604 247.510585 
L 187.728257 245.513333 
L 187.97291 245.069801 
L 188.217563 244.34328 
L 188.462216 245.540543 
L 188.706869 247.823506 
L 188.951522 247.924185 
L 189.685481 239.929734 
L 189.930134 239.412734 
L 190.174787 240.005924 
L 190.41944 239.744703 
L 190.664093 238.737913 
L 190.908746 239.513413 
L 191.153399 238.479413 
L 191.398052 238.226356 
L 191.642705 249.839805 
L 191.887358 247.948674 
L 192.132011 248.566353 
L 192.376664 248.710569 
L 192.621317 249.1024 
L 193.110623 252.141815 
L 193.355276 250.928226 
L 193.599929 251.600326 
L 193.844582 250.408505 
L 194.089235 251.298289 
L 194.333888 249.518721 
L 194.578541 249.407158 
L 194.823194 247.037122 
L 195.067847 246.982701 
L 195.3125 245.295648 
L 195.557153 244.892933 
L 196.046459 245.110617 
L 196.291112 244.620828 
L 196.535765 245.570475 
L 196.780418 245.510612 
L 197.269724 243.094317 
L 197.514377 243.663017 
L 197.75903 243.184112 
L 198.003683 243.668459 
L 198.248336 242.97187 
L 198.492989 242.658949 
L 198.737642 241.948755 
L 198.982295 242.42766 
L 199.226948 243.224928 
L 199.716254 246.400396 
L 199.960907 246.503796 
L 200.20556 246.136454 
L 200.450213 248.813969 
L 200.694866 246.993585 
L 200.939519 247.624869 
L 201.184172 247.037122 
L 201.428825 246.794948 
L 201.673478 248.435742 
L 201.918131 247.970443 
L 202.162784 246.931001 
L 202.407437 248.941858 
L 202.65209 248.969069 
L 203.141396 248.550027 
L 203.386049 249.943205 
L 203.875355 248.152753 
L 204.364661 250.035721 
L 204.609314 248.699684 
L 205.09862 251.861547 
L 205.343273 252.370383 
L 205.587926 253.363567 
L 205.832579 256.226114 
L 206.077232 252.601673 
L 206.321885 253.744515 
L 206.811191 250.348642 
L 207.055844 250.901015 
L 207.300497 258.792066 
L 207.54515 258.438329 
L 207.789803 257.333582 
L 208.034456 254.789399 
L 208.279109 256.185298 
L 208.523762 253.145883 
L 208.768415 252.849289 
L 209.013068 253.461525 
L 209.257721 253.728188 
L 209.502375 255.447893 
L 209.747028 255.140414 
L 209.991681 254.547225 
L 210.480987 251.622094 
L 210.72564 251.281963 
L 210.970293 249.888784 
L 211.214946 247.352764 
L 211.459599 248.019421 
L 211.704252 247.132359 
L 211.948905 248.0167 
L 212.193558 244.909259 
L 212.438211 245.083406 
L 212.682864 244.950075 
L 212.927517 245.355512 
L 213.416823 244.174575 
L 213.661476 247.064332 
L 213.906129 247.545958 
L 214.150782 250.321431 
L 214.395435 249.975858 
L 214.640088 251.398968 
L 214.884741 253.73363 
L 215.129394 251.281963 
L 215.6187 253.461525 
L 215.863353 252.133652 
L 216.108006 253.363567 
L 216.352659 255.534967 
L 216.597312 253.456083 
L 216.841965 255.38803 
L 217.331271 252.647931 
L 217.575924 252.811194 
L 217.820577 253.186699 
L 218.309883 251.850663 
L 218.799189 251.124142 
L 219.533148 255.227488 
L 219.777801 254.460151 
L 220.022454 254.144509 
L 220.267107 255.211162 
L 220.51176 255.23293 
L 220.756413 256.743114 
L 221.001066 256.179856 
L 221.245719 258.280508 
L 221.490372 256.563524 
L 221.735025 257.366235 
L 222.224331 252.348615 
L 222.468984 251.330942 
L 222.713637 252.832962 
L 222.95829 251.877873 
L 223.202943 253.260167 
L 223.447596 241.943313 
L 223.692249 240.92836 
L 223.936902 238.142003 
L 224.181555 238.661724 
L 224.670861 234.174709 
L 224.915514 235.227756 
L 225.40482 235.165172 
L 225.894126 233.211457 
L 226.138779 233.399209 
L 226.383432 234.471304 
L 226.628085 234.550214 
L 227.117391 231.842768 
L 227.362044 233.146152 
L 227.606697 233.521657 
L 227.85135 231.671342 
L 228.096003 231.690389 
L 228.340656 232.54752 
L 228.829962 231.225089 
L 229.319268 231.276789 
L 229.563921 233.214178 
L 229.808574 233.472678 
L 230.053227 235.333877 
L 230.29788 235.820946 
L 230.542533 235.086262 
L 230.787186 235.396462 
L 231.031839 235.197825 
L 231.276492 235.508025 
L 231.765798 233.78832 
L 232.010452 233.303973 
L 232.255105 234.414162 
L 232.499758 234.093078 
L 232.744411 235.611425 
L 232.989064 236.286246 
L 233.233717 234.991025 
L 233.47837 234.618241 
L 234.212329 235.472651 
L 234.456982 233.826415 
L 234.701635 234.231851 
L 235.190941 231.606036 
L 235.435594 231.818278 
L 235.680247 231.82372 
L 235.9249 231.513521 
L 236.414206 232.063173 
L 236.658859 233.173362 
L 236.903512 229.7013 
L 237.148165 229.538037 
L 237.392818 230.000616 
L 237.637471 216.724603 
L 237.882124 215.402172 
L 238.126777 216.857935 
L 238.37143 220.057892 
L 238.616083 219.959934 
L 238.860736 220.85516 
L 239.105389 220.588497 
L 239.594695 221.505492 
L 239.839348 220.765365 
L 240.084001 218.969471 
L 240.328654 218.490566 
L 240.81796 219.178992 
L 241.062613 219.323208 
L 241.796572 220.56945 
L 242.041225 221.731339 
L 242.285878 219.71776 
L 242.530531 218.751787 
L 242.775184 220.20755 
L 243.019837 219.867418 
L 243.26449 219.252461 
L 243.509143 219.927281 
L 243.753796 219.064708 
L 243.998449 219.154503 
L 244.243102 217.976287 
L 244.487755 217.976287 
L 244.977061 220.365371 
L 245.221714 221.089171 
L 245.466367 220.136802 
L 245.71102 218.550429 
L 245.955673 218.833419 
L 246.444979 220.765365 
L 246.689632 219.619803 
L 246.934285 219.091919 
L 247.178938 216.381751 
L 247.423591 217.268814 
L 247.668244 217.652482 
L 247.912897 215.100135 
L 248.15755 216.977661 
L 248.402203 215.973593 
L 248.646856 217.818466 
L 248.891509 218.030708 
L 249.136162 216.629367 
L 249.625468 217.75044 
L 249.870121 217.627993 
L 250.114774 217.989892 
L 250.359427 217.840235 
L 250.848733 214.196746 
L 251.093386 210.37911 
L 251.338039 210.183195 
L 251.582692 209.513816 
L 252.071998 202.147928 
L 252.316651 203.418659 
L 252.561304 203.93838 
L 252.805957 202.395544 
L 253.05061 178.632598 
L 253.295263 192.575268 
L 253.539916 190.3304 
L 254.029222 192.602478 
L 254.273875 189.489595 
L 254.518529 189.935847 
L 254.763182 192.047384 
L 255.007835 189.568505 
L 255.252488 189.432453 
L 255.497141 192.191599 
L 255.741794 192.365747 
L 255.986447 193.690899 
L 256.2311 193.663688 
L 256.475753 192.678668 
L 256.720406 192.439215 
L 257.209712 190.591621 
L 257.454365 190.945358 
L 257.699018 191.85691 
L 257.943671 198.123492 
L 258.188324 210.036258 
L 258.432977 203.530223 
L 258.67763 204.474428 
L 258.922283 196.395624 
L 259.166936 195.364346 
L 259.411589 195.652777 
L 259.656242 200.360197 
L 259.900895 198.741171 
L 260.145548 196.180661 
L 260.390201 200.765634 
L 260.879507 193.595662 
L 261.12416 196.003793 
L 261.613466 192.11541 
L 261.858119 193.799741 
L 262.102772 194.145315 
L 262.347425 192.784789 
L 262.836731 188.063764 
L 263.081384 189.32089 
L 263.326037 189.704558 
L 263.57069 191.813373 
L 263.815343 188.542669 
L 264.304649 198.493556 
L 264.549302 198.645934 
L 264.793955 197.13303 
L 265.038608 196.59154 
L 265.283261 190.061016 
L 265.527914 187.7454 
L 266.261873 190.744 
L 266.995832 186.156306 
L 267.240485 187.133164 
L 267.485138 182.365881 
L 267.729791 180.872023 
L 267.974444 180.534613 
L 268.219097 182.746828 
L 268.46375 183.065191 
L 268.708403 168.104848 
L 268.953056 172.289826 
L 269.442362 169.568774 
L 269.687015 168.099406 
L 269.931668 165.838211 
L 270.176321 165.533454 
L 270.420974 164.880401 
L 270.665627 165.362027 
L 270.91028 160.099513 
L 271.154933 157.949882 
L 271.399586 156.956698 
L 271.644239 159.035582 
L 272.133545 153.051989 
L 272.378198 155.61794 
L 272.622851 161.781123 
L 272.867504 159.13354 
L 273.112157 160.260055 
L 273.35681 155.231551 
L 274.090769 152.741789 
L 274.335422 152.507778 
L 274.580075 150.929568 
L 274.824728 152.262883 
L 275.069381 152.84791 
L 275.314034 150.875147 
L 275.558687 151.299631 
L 275.80334 154.956725 
L 276.047993 152.578525 
L 276.292646 155.737667 
L 276.537299 151.691463 
L 277.271259 161.555276 
L 277.515912 155.220667 
L 277.760565 155.620662 
L 278.005218 151.147252 
L 278.249871 154.235646 
L 278.494524 154.276462 
L 278.739177 154.730878 
L 278.98383 154.820672 
L 279.228483 155.677804 
L 279.473136 155.076451 
L 279.962442 147.911921 
L 280.207095 149.492853 
L 280.451748 157.598866 
L 280.696401 160.164818 
L 280.941054 166.929353 
L 281.185707 166.983774 
L 281.43036 167.566079 
L 281.675013 169.519795 
L 281.919666 166.045011 
L 282.164319 167.234111 
L 282.408972 178.289745 
L 282.653625 180.469308 
L 282.898278 179.149597 
L 283.142931 182.613497 
L 283.387584 180.104687 
L 283.87689 173.462599 
L 284.121543 171.976905 
L 284.366196 172.374178 
L 284.610849 170.638147 
L 284.855502 180.540055 
L 285.100155 178.861166 
L 285.344808 181.078823 
L 285.589461 185.568559 
L 285.834114 193.323557 
L 286.078767 192.158947 
L 286.32342 203.80777 
L 286.568073 206.10978 
L 286.812726 202.368333 
L 287.057379 202.528876 
L 287.302032 197.214661 
L 287.791338 192.305883 
L 288.035991 188.918174 
L 288.280644 194.490888 
L 288.76995 185.010743 
L 289.014603 187.677374 
L 289.259256 185.018906 
L 289.503909 183.767223 
L 289.748562 185.086933 
L 289.993215 185.432506 
L 290.237868 184.809385 
L 290.482521 177.881587 
L 290.727174 178.912866 
L 290.971827 178.066619 
L 291.21648 180.115571 
L 291.461133 184.379459 
L 291.705786 183.919601 
L 291.950439 181.965886 
L 292.439745 181.895139 
L 292.929051 179.272045 
L 293.418357 183.544096 
L 293.66301 186.817522 
L 293.907663 187.851521 
L 294.152316 183.52777 
L 294.396969 181.865207 
L 294.641622 177.160509 
L 294.886275 178.316956 
L 295.130928 173.810894 
L 295.375581 173.111583 
L 295.620234 175.503388 
L 295.864887 173.187773 
L 296.10954 175.427198 
L 296.354193 176.31154 
L 296.598846 173.253078 
L 296.843499 174.461225 
L 297.332805 173.351036 
L 297.822111 168.815042 
L 298.066764 166.951122 
L 298.311417 166.017801 
L 298.55607 162.809681 
L 298.800723 164.752512 
L 299.045376 164.480407 
L 299.534683 168.396 
L 299.779336 165.794675 
L 300.023989 169.704826 
L 300.268642 168.687153 
L 300.513295 154.956725 
L 300.757948 155.522704 
L 301.002601 151.86561 
L 301.247254 155.884604 
L 301.491907 152.967636 
L 301.73656 157.664172 
L 302.470519 144.129659 
L 302.715172 140.97596 
L 302.959825 141.721528 
L 303.204478 142.948723 
L 303.449131 143.011307 
L 303.693784 148.545927 
L 303.938437 147.914643 
L 304.18309 145.419438 
L 304.427743 144.548701 
L 304.672396 146.246638 
L 304.917049 143.528307 
L 305.161702 143.438512 
L 305.406355 141.62357 
L 305.651008 142.350091 
L 305.895661 140.01815 
L 306.140314 139.999102 
L 306.384967 138.429056 
L 306.62962 138.494361 
L 306.874273 137.571924 
L 307.363579 139.419518 
L 307.608232 139.623597 
L 307.852885 141.892955 
L 308.097538 142.350091 
L 308.342191 139.718834 
L 308.586844 142.426281 
L 308.831497 140.755555 
L 309.07615 142.031728 
L 309.320803 141.427655 
L 309.565456 141.193644 
L 309.810109 141.487518 
L 310.054762 147.609885 
L 310.299415 147.879269 
L 310.544068 145.705148 
L 310.788721 141.419492 
L 311.033374 141.024939 
L 311.278027 140.992286 
L 311.52268 139.50115 
L 311.767333 138.709324 
L 312.011986 135.003251 
L 312.256639 134.782846 
L 312.745945 130.233247 
L 312.990598 132.98151 
L 313.235251 132.410089 
L 313.479904 133.038652 
L 313.724557 136.048135 
L 313.96921 136.86173 
L 314.213863 133.73252 
L 314.458516 132.780152 
L 314.703169 132.701241 
L 314.947822 133.038652 
L 315.437128 135.373314 
L 315.681781 133.193752 
L 315.926434 128.018311 
L 316.171087 129.414211 
L 316.41574 128.342116 
L 316.660393 130.178826 
L 316.905046 131.0931 
L 317.149699 128.070011 
L 317.394352 127.525801 
L 317.639005 127.367979 
L 317.883658 126.712206 
L 318.128311 126.674111 
L 318.372964 127.076827 
L 318.617617 126.140785 
L 319.106923 128.178853 
L 319.351576 128.290416 
L 319.596229 128.861837 
L 319.840882 130.0591 
L 320.085535 128.478169 
L 320.330188 128.562521 
L 320.574841 130.467258 
L 320.819494 129.365232 
L 321.064147 127.00608 
L 321.3088 126.372074 
L 321.553453 127.582943 
L 322.04276 125.539433 
L 322.287413 125.55848 
L 322.532066 121.343571 
L 323.021372 124.11088 
L 323.266025 130.099916 
L 323.510678 126.992474 
L 323.755331 128.780205 
L 323.999984 128.834626 
L 324.48929 123.944896 
L 324.733943 125.025154 
L 324.978596 123.052391 
L 325.467902 117.64294 
L 325.712555 118.00484 
L 325.957208 117.991235 
L 326.446514 110.804936 
L 327.180473 107.362806 
L 327.425126 108.154632 
L 327.669779 106.603632 
L 327.914432 106.034932 
L 328.403738 107.332874 
L 328.893044 110.603579 
L 329.137697 108.949179 
L 329.38235 112.644368 
L 329.627003 112.478383 
L 329.871656 112.943683 
L 330.360962 115.947725 
L 330.850268 107.800895 
L 331.094921 109.580463 
L 331.339574 109.994063 
L 331.584227 123.392523 
L 331.82888 123.656465 
L 332.073533 118.766734 
L 332.562839 128.004706 
L 332.807492 128.619663 
L 333.052145 126.211532 
L 333.296798 122.58437 
L 333.541451 128.290416 
L 333.786104 124.260538 
L 334.030757 135.98283 
L 334.27541 133.321641 
L 334.520063 137.541993 
L 335.498675 127.746206 
L 335.743328 121.713634 
L 335.987981 123.465991 
L 336.232634 122.168049 
L 337.211246 131.444115 
L 337.455899 133.895783 
L 337.700552 133.460415 
L 337.945205 128.293137 
L 338.189858 128.140758 
L 338.434511 126.148948 
L 338.679164 126.657785 
L 338.923817 127.637364 
L 339.16847 128.029195 
L 339.413123 124.412917 
L 339.657776 127.670016 
L 339.902429 128.018311 
L 340.147082 129.680874 
L 340.391735 127.025127 
L 340.636388 126.657785 
L 340.881041 127.169343 
L 341.125694 128.140758 
L 341.370347 128.453679 
L 341.615 124.957127 
L 341.859653 126.004732 
L 342.348959 129.944816 
L 342.593612 129.816926 
L 342.838265 128.957074 
L 343.327571 119.03884 
L 343.572224 119.419787 
L 343.816877 120.219776 
L 344.06153 118.410277 
L 344.306184 114.598083 
L 344.550837 114.222578 
L 344.79549 115.90963 
L 345.040143 115.773577 
L 345.284796 114.336862 
L 345.529449 116.644314 
L 345.774102 112.508315 
L 346.018755 111.477036 
L 346.263408 108.826732 
L 346.508061 107.882527 
L 346.752714 109.515158 
L 346.997367 112.032131 
L 347.486673 108.5383 
L 347.731326 116.666082 
L 347.975979 115.827998 
L 348.220632 115.96133 
L 348.465285 115.041614 
L 348.709938 112.617157 
L 348.954591 112.013084 
L 349.443897 108.426737 
L 349.68855 109.243053 
L 349.933203 107.109748 
L 350.177856 107.066211 
L 350.667162 102.998239 
L 350.911815 102.829533 
L 351.156468 106.334248 
L 351.401121 106.962811 
L 351.645774 104.494817 
L 351.890427 104.059449 
L 352.13508 104.051286 
L 352.379733 105.651264 
L 352.624386 106.187311 
L 352.869039 106.119285 
L 353.358345 104.617264 
L 353.602998 102.984633 
L 353.847651 104.407743 
L 354.092304 103.923396 
L 354.58161 103.447212 
L 355.070916 104.478491 
L 355.315569 102.48396 
L 355.560222 107.493416 
L 355.804875 105.379159 
L 356.049528 104.432233 
L 356.294181 108.135585 
L 356.538834 104.413186 
L 356.783487 102.426818 
L 357.02814 98.100345 
L 357.272793 97.542529 
L 357.517446 94.549372 
L 357.762099 93.597004 
L 358.006752 88.339932 
L 358.251405 87.529058 
L 358.496058 91.379347 
L 358.740711 91.384789 
L 358.985364 89.368489 
L 359.230017 90.443305 
L 359.47467 93.610609 
L 359.719323 94.685425 
L 359.963976 91.014726 
L 360.208629 89.150805 
L 360.453282 91.365742 
L 360.697935 90.557589 
L 360.942588 88.922237 
L 361.187241 89.368489 
L 361.676547 87.368516 
L 361.9212 77.997214 
L 362.165853 83.719586 
L 362.410506 78.593124 
L 362.655159 78.767271 
L 362.899812 79.107403 
L 363.144465 80.258408 
L 363.389118 80.141402 
L 363.633771 76.916956 
L 363.878424 76.726482 
L 364.123077 79.009445 
L 364.36773 76.454377 
L 364.857036 74.685693 
L 365.101689 76.399956 
L 365.346342 79.093797 
L 365.590995 74.18502 
L 365.835648 73.869378 
L 366.080301 70.870779 
L 366.324954 70.604115 
L 366.814261 65.434117 
L 367.058914 65.023238 
L 367.303567 64.073591 
L 367.54822 64.457259 
L 367.792873 64.348417 
L 368.282179 60.808329 
L 368.526832 62.454565 
L 368.771485 60.792002 
L 369.016138 60.672276 
L 369.260791 73.053062 
L 369.750097 67.178311 
L 369.99475 75.311535 
L 370.484056 59.447803 
L 370.728709 64.617801 
L 370.973362 64.427328 
L 371.218015 63.466796 
L 371.462668 63.382444 
L 371.707321 61.760697 
L 372.196627 69.910247 
L 372.44128 69.7878 
L 372.685933 69.483042 
L 372.930586 71.477573 
L 373.175239 74.541478 
L 373.419892 73.689788 
L 373.664545 72.359194 
L 373.909198 68.155169 
L 374.398504 63.896723 
L 374.643157 62.816465 
L 374.88781 63.420538 
L 375.377116 62.44096 
L 375.621769 57.270961 
L 375.866422 55.477788 
L 376.111075 58.283192 
L 376.845034 52.318647 
L 377.089687 45.148675 
L 377.33434 60.770234 
L 377.578993 58.889987 
L 377.823646 65.13208 
L 378.068299 63.591965 
L 378.312952 64.217807 
L 378.557605 66.881716 
L 378.802258 66.617774 
L 379.046911 65.610985 
L 379.291564 68.808221 
L 379.536217 70.525205 
L 379.78087 74.957799 
L 380.270176 67.093959 
L 380.514829 69.066721 
L 380.759482 70.103442 
L 381.004135 74.576851 
L 381.493441 76.17683 
L 381.738094 75.126504 
L 382.2274 76.046219 
L 382.716706 80.399902 
L 383.206012 70.957852 
L 383.450665 68.372853 
L 383.939971 72.693883 
L 384.429277 69.760589 
L 384.67393 71.023157 
L 384.918583 68.625911 
L 385.163236 68.435437 
L 385.407889 64.944327 
L 385.897195 66.685801 
L 386.141848 70.263984 
L 386.386501 71.749678 
L 386.631154 71.880289 
L 387.12046 77.866603 
L 387.365113 78.906045 
L 387.609766 78.223061 
L 387.854419 77.172735 
L 388.099072 74.927867 
L 388.343725 73.869378 
L 388.833031 76.533288 
L 389.077684 72.236747 
L 389.322338 70.702073 
L 389.566991 65.913022 
L 389.811644 64.979701 
L 390.056297 66.449069 
L 390.30095 64.941606 
L 390.545603 62.168855 
L 390.790256 61.777023 
L 391.034909 62.552523 
L 391.279562 61.551176 
L 391.524215 66.794643 
L 391.768868 65.834111 
L 392.013521 67.684427 
L 392.258174 72.508852 
L 392.502827 70.059905 
L 392.74748 69.4259 
L 392.992133 48.253395 
L 393.236786 38.220877 
L 393.481439 34.414125 
L 393.726092 35.393704 
L 394.215398 39.271203 
L 394.215398 39.271203 
" style="fill:none;stroke:#ff7f0e;stroke-linecap:square;stroke-width:1.5;"/>
   </g>
   <g id="patch_3">
    <path d="M 53.328125 288.430125 
L 53.328125 22.318125 
" style="fill:none;stroke:#000000;stroke-linecap:square;stroke-linejoin:miter;stroke-width:0.8;"/>
   </g>
   <g id="patch_4">
    <path d="M 410.448125 288.430125 
L 410.448125 22.318125 
" style="fill:none;stroke:#000000;stroke-linecap:square;stroke-linejoin:miter;stroke-width:0.8;"/>
   </g>
   <g id="patch_5">
    <path d="M 53.328125 288.430125 
L 410.448125 288.430125 
" style="fill:none;stroke:#000000;stroke-linecap:square;stroke-linejoin:miter;stroke-width:0.8;"/>
   </g>
   <g id="patch_6">
    <path d="M 53.328125 22.318125 
L 410.448125 22.318125 
" style="fill:none;stroke:#000000;stroke-linecap:square;stroke-linejoin:miter;stroke-width:0.8;"/>
   </g>
   <g id="text_15">
    <!-- Training: AMZN -->
    <defs>
     <path d="M -0.296875 72.90625 
L 61.375 72.90625 
L 61.375 64.59375 
L 35.5 64.59375 
L 35.5 0 
L 25.59375 0 
L 25.59375 64.59375 
L -0.296875 64.59375 
z
" id="DejaVuSans-84"/>
     <path d="M 54.890625 33.015625 
L 54.890625 0 
L 45.90625 0 
L 45.90625 32.71875 
Q 45.90625 40.484375 42.875 44.328125 
Q 39.84375 48.1875 33.796875 48.1875 
Q 26.515625 48.1875 22.3125 43.546875 
Q 18.109375 38.921875 18.109375 30.90625 
L 18.109375 0 
L 9.078125 0 
L 9.078125 54.6875 
L 18.109375 54.6875 
L 18.109375 46.1875 
Q 21.34375 51.125 25.703125 53.5625 
Q 30.078125 56 35.796875 56 
Q 45.21875 56 50.046875 50.171875 
Q 54.890625 44.34375 54.890625 33.015625 
z
" id="DejaVuSans-110"/>
     <path d="M 45.40625 27.984375 
Q 45.40625 37.75 41.375 43.109375 
Q 37.359375 48.484375 30.078125 48.484375 
Q 22.859375 48.484375 18.828125 43.109375 
Q 14.796875 37.75 14.796875 27.984375 
Q 14.796875 18.265625 18.828125 12.890625 
Q 22.859375 7.515625 30.078125 7.515625 
Q 37.359375 7.515625 41.375 12.890625 
Q 45.40625 18.265625 45.40625 27.984375 
z
M 54.390625 6.78125 
Q 54.390625 -7.171875 48.1875 -13.984375 
Q 42 -20.796875 29.203125 -20.796875 
Q 24.46875 -20.796875 20.265625 -20.09375 
Q 16.0625 -19.390625 12.109375 -17.921875 
L 12.109375 -9.1875 
Q 16.0625 -11.328125 19.921875 -12.34375 
Q 23.78125 -13.375 27.78125 -13.375 
Q 36.625 -13.375 41.015625 -8.765625 
Q 45.40625 -4.15625 45.40625 5.171875 
L 45.40625 9.625 
Q 42.625 4.78125 38.28125 2.390625 
Q 33.9375 0 27.875 0 
Q 17.828125 0 11.671875 7.65625 
Q 5.515625 15.328125 5.515625 27.984375 
Q 5.515625 40.671875 11.671875 48.328125 
Q 17.828125 56 27.875 56 
Q 33.9375 56 38.28125 53.609375 
Q 42.625 51.21875 45.40625 46.390625 
L 45.40625 54.6875 
L 54.390625 54.6875 
z
" id="DejaVuSans-103"/>
     <path d="M 11.71875 12.40625 
L 22.015625 12.40625 
L 22.015625 0 
L 11.71875 0 
z
M 11.71875 51.703125 
L 22.015625 51.703125 
L 22.015625 39.3125 
L 11.71875 39.3125 
z
" id="DejaVuSans-58"/>
     <path d="M 34.1875 63.1875 
L 20.796875 26.90625 
L 47.609375 26.90625 
z
M 28.609375 72.90625 
L 39.796875 72.90625 
L 67.578125 0 
L 57.328125 0 
L 50.6875 18.703125 
L 17.828125 18.703125 
L 11.1875 0 
L 0.78125 0 
z
" id="DejaVuSans-65"/>
     <path d="M 9.8125 72.90625 
L 24.515625 72.90625 
L 43.109375 23.296875 
L 61.8125 72.90625 
L 76.515625 72.90625 
L 76.515625 0 
L 66.890625 0 
L 66.890625 64.015625 
L 48.09375 14.015625 
L 38.1875 14.015625 
L 19.390625 64.015625 
L 19.390625 0 
L 9.8125 0 
z
" id="DejaVuSans-77"/>
     <path d="M 5.609375 72.90625 
L 62.890625 72.90625 
L 62.890625 65.375 
L 16.796875 8.296875 
L 64.015625 8.296875 
L 64.015625 0 
L 4.5 0 
L 4.5 7.515625 
L 50.59375 64.59375 
L 5.609375 64.59375 
z
" id="DejaVuSans-90"/>
     <path d="M 9.8125 72.90625 
L 23.09375 72.90625 
L 55.421875 11.921875 
L 55.421875 72.90625 
L 64.984375 72.90625 
L 64.984375 0 
L 51.703125 0 
L 19.390625 60.984375 
L 19.390625 0 
L 9.8125 0 
z
" id="DejaVuSans-78"/>
    </defs>
    <g transform="translate(186.409063 16.318125)scale(0.12 -0.12)">
     <use xlink:href="#DejaVuSans-84"/>
     <use x="46.333984" xlink:href="#DejaVuSans-114"/>
     <use x="87.447266" xlink:href="#DejaVuSans-97"/>
     <use x="148.726562" xlink:href="#DejaVuSans-105"/>
     <use x="176.509766" xlink:href="#DejaVuSans-110"/>
     <use x="239.888672" xlink:href="#DejaVuSans-105"/>
     <use x="267.671875" xlink:href="#DejaVuSans-110"/>
     <use x="331.050781" xlink:href="#DejaVuSans-103"/>
     <use x="394.527344" xlink:href="#DejaVuSans-58"/>
     <use x="428.21875" xlink:href="#DejaVuSans-32"/>
     <use x="460.005859" xlink:href="#DejaVuSans-65"/>
     <use x="528.414062" xlink:href="#DejaVuSans-77"/>
     <use x="614.693359" xlink:href="#DejaVuSans-90"/>
     <use x="683.199219" xlink:href="#DejaVuSans-78"/>
    </g>
   </g>
   <g id="legend_1">
    <g id="patch_7">
     <path d="M 60.328125 59.674375 
L 144.05625 59.674375 
Q 146.05625 59.674375 146.05625 57.674375 
L 146.05625 29.318125 
Q 146.05625 27.318125 144.05625 27.318125 
L 60.328125 27.318125 
Q 58.328125 27.318125 58.328125 29.318125 
L 58.328125 57.674375 
Q 58.328125 59.674375 60.328125 59.674375 
z
" style="fill:#ffffff;opacity:0.8;stroke:#cccccc;stroke-linejoin:miter;"/>
    </g>
    <g id="line2d_27">
     <path d="M 62.328125 35.416562 
L 82.328125 35.416562 
" style="fill:none;stroke:#1f77b4;stroke-linecap:square;stroke-width:1.5;"/>
    </g>
    <g id="line2d_28"/>
    <g id="text_16">
     <!-- Predicted -->
     <defs>
      <path d="M 45.40625 46.390625 
L 45.40625 75.984375 
L 54.390625 75.984375 
L 54.390625 0 
L 45.40625 0 
L 45.40625 8.203125 
Q 42.578125 3.328125 38.25 0.953125 
Q 33.9375 -1.421875 27.875 -1.421875 
Q 17.96875 -1.421875 11.734375 6.484375 
Q 5.515625 14.40625 5.515625 27.296875 
Q 5.515625 40.1875 11.734375 48.09375 
Q 17.96875 56 27.875 56 
Q 33.9375 56 38.25 53.625 
Q 42.578125 51.265625 45.40625 46.390625 
z
M 14.796875 27.296875 
Q 14.796875 17.390625 18.875 11.75 
Q 22.953125 6.109375 30.078125 6.109375 
Q 37.203125 6.109375 41.296875 11.75 
Q 45.40625 17.390625 45.40625 27.296875 
Q 45.40625 37.203125 41.296875 42.84375 
Q 37.203125 48.484375 30.078125 48.484375 
Q 22.953125 48.484375 18.875 42.84375 
Q 14.796875 37.203125 14.796875 27.296875 
z
" id="DejaVuSans-100"/>
      <path d="M 18.3125 70.21875 
L 18.3125 54.6875 
L 36.8125 54.6875 
L 36.8125 47.703125 
L 18.3125 47.703125 
L 18.3125 18.015625 
Q 18.3125 11.328125 20.140625 9.421875 
Q 21.96875 7.515625 27.59375 7.515625 
L 36.8125 7.515625 
L 36.8125 0 
L 27.59375 0 
Q 17.1875 0 13.234375 3.875 
Q 9.28125 7.765625 9.28125 18.015625 
L 9.28125 47.703125 
L 2.6875 47.703125 
L 2.6875 54.6875 
L 9.28125 54.6875 
L 9.28125 70.21875 
z
" id="DejaVuSans-116"/>
     </defs>
     <g transform="translate(90.328125 38.916562)scale(0.1 -0.1)">
      <use xlink:href="#DejaVuSans-80"/>
      <use x="58.552734" xlink:href="#DejaVuSans-114"/>
      <use x="97.416016" xlink:href="#DejaVuSans-101"/>
      <use x="158.939453" xlink:href="#DejaVuSans-100"/>
      <use x="222.416016" xlink:href="#DejaVuSans-105"/>
      <use x="250.199219" xlink:href="#DejaVuSans-99"/>
      <use x="305.179688" xlink:href="#DejaVuSans-116"/>
      <use x="344.388672" xlink:href="#DejaVuSans-101"/>
      <use x="405.912109" xlink:href="#DejaVuSans-100"/>
     </g>
    </g>
    <g id="line2d_29">
     <path d="M 62.328125 50.094687 
L 82.328125 50.094687 
" style="fill:none;stroke:#ff7f0e;stroke-linecap:square;stroke-width:1.5;"/>
    </g>
    <g id="line2d_30"/>
    <g id="text_17">
     <!-- True value -->
     <defs>
      <path d="M 8.5 21.578125 
L 8.5 54.6875 
L 17.484375 54.6875 
L 17.484375 21.921875 
Q 17.484375 14.15625 20.5 10.265625 
Q 23.53125 6.390625 29.59375 6.390625 
Q 36.859375 6.390625 41.078125 11.03125 
Q 45.3125 15.671875 45.3125 23.6875 
L 45.3125 54.6875 
L 54.296875 54.6875 
L 54.296875 0 
L 45.3125 0 
L 45.3125 8.40625 
Q 42.046875 3.421875 37.71875 1 
Q 33.40625 -1.421875 27.6875 -1.421875 
Q 18.265625 -1.421875 13.375 4.4375 
Q 8.5 10.296875 8.5 21.578125 
z
M 31.109375 56 
z
" id="DejaVuSans-117"/>
      <path d="M 2.984375 54.6875 
L 12.5 54.6875 
L 29.59375 8.796875 
L 46.6875 54.6875 
L 56.203125 54.6875 
L 35.6875 0 
L 23.484375 0 
z
" id="DejaVuSans-118"/>
      <path d="M 9.421875 75.984375 
L 18.40625 75.984375 
L 18.40625 0 
L 9.421875 0 
z
" id="DejaVuSans-108"/>
     </defs>
     <g transform="translate(90.328125 53.594687)scale(0.1 -0.1)">
      <use xlink:href="#DejaVuSans-84"/>
      <use x="46.333984" xlink:href="#DejaVuSans-114"/>
      <use x="87.447266" xlink:href="#DejaVuSans-117"/>
      <use x="150.826172" xlink:href="#DejaVuSans-101"/>
      <use x="212.349609" xlink:href="#DejaVuSans-32"/>
      <use x="244.136719" xlink:href="#DejaVuSans-118"/>
      <use x="303.316406" xlink:href="#DejaVuSans-97"/>
      <use x="364.595703" xlink:href="#DejaVuSans-108"/>
      <use x="392.378906" xlink:href="#DejaVuSans-117"/>
      <use x="455.757812" xlink:href="#DejaVuSans-101"/>
     </g>
    </g>
   </g>
  </g>
 </g>
 <defs>
  <clipPath id="pba54aecdab">
   <rect height="266.112" width="357.12" x="53.328125" y="22.318125"/>
  </clipPath>
 </defs>
</svg>
