<?xml version="1.0" encoding="utf-8" standalone="no"?>
<!DOCTYPE svg PUBLIC "-//W3C//DTD SVG 1.1//EN"
  "http://www.w3.org/Graphics/SVG/1.1/DTD/svg11.dtd">
<!-- Created with matplotlib (https://matplotlib.org/) -->
<svg height="325.986375pt" version="1.1" viewBox="0 0 411.285625 325.986375" width="411.285625pt" xmlns="http://www.w3.org/2000/svg" xmlns:xlink="http://www.w3.org/1999/xlink">
 <defs>
  <style type="text/css">
*{stroke-linecap:butt;stroke-linejoin:round;}
  </style>
 </defs>
 <g id="figure_1">
  <g id="patch_1">
   <path d="M 0 325.986375 
L 411.285625 325.986375 
L 411.285625 0 
L 0 0 
z
" style="fill:#ffffff;"/>
  </g>
  <g id="axes_1">
   <g id="patch_2">
    <path d="M 46.965625 288.430125 
L 404.085625 288.430125 
L 404.085625 22.318125 
L 46.965625 22.318125 
z
" style="fill:#ffffff;"/>
   </g>
   <g id="matplotlib.axis_1">
    <g id="xtick_1">
     <g id="line2d_1">
      <path clip-path="url(#p20d2d735d7)" d="M 63.198352 288.430125 
L 63.198352 22.318125 
" style="fill:none;stroke:#b0b0b0;stroke-dasharray:2.96,1.28;stroke-dashoffset:0;stroke-width:0.8;"/>
     </g>
     <g id="line2d_2">
      <defs>
       <path d="M 0 0 
L 0 3.5 
" id="m48bd08aa32" style="stroke:#000000;stroke-width:0.8;"/>
      </defs>
      <g>
       <use style="stroke:#000000;stroke-width:0.8;" x="63.198352" xlink:href="#m48bd08aa32" y="288.430125"/>
      </g>
     </g>
     <g id="text_1">
      <!-- 0 -->
      <defs>
       <path d="M 31.78125 66.40625 
Q 24.171875 66.40625 20.328125 58.90625 
Q 16.5 51.421875 16.5 36.375 
Q 16.5 21.390625 20.328125 13.890625 
Q 24.171875 6.390625 31.78125 6.390625 
Q 39.453125 6.390625 43.28125 13.890625 
Q 47.125 21.390625 47.125 36.375 
Q 47.125 51.421875 43.28125 58.90625 
Q 39.453125 66.40625 31.78125 66.40625 
z
M 31.78125 74.21875 
Q 44.046875 74.21875 50.515625 64.515625 
Q 56.984375 54.828125 56.984375 36.375 
Q 56.984375 17.96875 50.515625 8.265625 
Q 44.046875 -1.421875 31.78125 -1.421875 
Q 19.53125 -1.421875 13.0625 8.265625 
Q 6.59375 17.96875 6.59375 36.375 
Q 6.59375 54.828125 13.0625 64.515625 
Q 19.53125 74.21875 31.78125 74.21875 
z
" id="DejaVuSans-48"/>
      </defs>
      <g transform="translate(60.017102 303.028562)scale(0.1 -0.1)">
       <use xlink:href="#DejaVuSans-48"/>
      </g>
     </g>
    </g>
    <g id="xtick_2">
     <g id="line2d_3">
      <path clip-path="url(#p20d2d735d7)" d="M 112.128954 288.430125 
L 112.128954 22.318125 
" style="fill:none;stroke:#b0b0b0;stroke-dasharray:2.96,1.28;stroke-dashoffset:0;stroke-width:0.8;"/>
     </g>
     <g id="line2d_4">
      <g>
       <use style="stroke:#000000;stroke-width:0.8;" x="112.128954" xlink:href="#m48bd08aa32" y="288.430125"/>
      </g>
     </g>
     <g id="text_2">
      <!-- 200 -->
      <defs>
       <path d="M 19.1875 8.296875 
L 53.609375 8.296875 
L 53.609375 0 
L 7.328125 0 
L 7.328125 8.296875 
Q 12.9375 14.109375 22.625 23.890625 
Q 32.328125 33.6875 34.8125 36.53125 
Q 39.546875 41.84375 41.421875 45.53125 
Q 43.3125 49.21875 43.3125 52.78125 
Q 43.3125 58.59375 39.234375 62.25 
Q 35.15625 65.921875 28.609375 65.921875 
Q 23.96875 65.921875 18.8125 64.3125 
Q 13.671875 62.703125 7.8125 59.421875 
L 7.8125 69.390625 
Q 13.765625 71.78125 18.9375 73 
Q 24.125 74.21875 28.421875 74.21875 
Q 39.75 74.21875 46.484375 68.546875 
Q 53.21875 62.890625 53.21875 53.421875 
Q 53.21875 48.921875 51.53125 44.890625 
Q 49.859375 40.875 45.40625 35.40625 
Q 44.1875 33.984375 37.640625 27.21875 
Q 31.109375 20.453125 19.1875 8.296875 
z
" id="DejaVuSans-50"/>
      </defs>
      <g transform="translate(102.585204 303.028562)scale(0.1 -0.1)">
       <use xlink:href="#DejaVuSans-50"/>
       <use x="63.623047" xlink:href="#DejaVuSans-48"/>
       <use x="127.246094" xlink:href="#DejaVuSans-48"/>
      </g>
     </g>
    </g>
    <g id="xtick_3">
     <g id="line2d_5">
      <path clip-path="url(#p20d2d735d7)" d="M 161.059557 288.430125 
L 161.059557 22.318125 
" style="fill:none;stroke:#b0b0b0;stroke-dasharray:2.96,1.28;stroke-dashoffset:0;stroke-width:0.8;"/>
     </g>
     <g id="line2d_6">
      <g>
       <use style="stroke:#000000;stroke-width:0.8;" x="161.059557" xlink:href="#m48bd08aa32" y="288.430125"/>
      </g>
     </g>
     <g id="text_3">
      <!-- 400 -->
      <defs>
       <path d="M 37.796875 64.3125 
L 12.890625 25.390625 
L 37.796875 25.390625 
z
M 35.203125 72.90625 
L 47.609375 72.90625 
L 47.609375 25.390625 
L 58.015625 25.390625 
L 58.015625 17.1875 
L 47.609375 17.1875 
L 47.609375 0 
L 37.796875 0 
L 37.796875 17.1875 
L 4.890625 17.1875 
L 4.890625 26.703125 
z
" id="DejaVuSans-52"/>
      </defs>
      <g transform="translate(151.515807 303.028562)scale(0.1 -0.1)">
       <use xlink:href="#DejaVuSans-52"/>
       <use x="63.623047" xlink:href="#DejaVuSans-48"/>
       <use x="127.246094" xlink:href="#DejaVuSans-48"/>
      </g>
     </g>
    </g>
    <g id="xtick_4">
     <g id="line2d_7">
      <path clip-path="url(#p20d2d735d7)" d="M 209.990159 288.430125 
L 209.990159 22.318125 
" style="fill:none;stroke:#b0b0b0;stroke-dasharray:2.96,1.28;stroke-dashoffset:0;stroke-width:0.8;"/>
     </g>
     <g id="line2d_8">
      <g>
       <use style="stroke:#000000;stroke-width:0.8;" x="209.990159" xlink:href="#m48bd08aa32" y="288.430125"/>
      </g>
     </g>
     <g id="text_4">
      <!-- 600 -->
      <defs>
       <path d="M 33.015625 40.375 
Q 26.375 40.375 22.484375 35.828125 
Q 18.609375 31.296875 18.609375 23.390625 
Q 18.609375 15.53125 22.484375 10.953125 
Q 26.375 6.390625 33.015625 6.390625 
Q 39.65625 6.390625 43.53125 10.953125 
Q 47.40625 15.53125 47.40625 23.390625 
Q 47.40625 31.296875 43.53125 35.828125 
Q 39.65625 40.375 33.015625 40.375 
z
M 52.59375 71.296875 
L 52.59375 62.3125 
Q 48.875 64.0625 45.09375 64.984375 
Q 41.3125 65.921875 37.59375 65.921875 
Q 27.828125 65.921875 22.671875 59.328125 
Q 17.53125 52.734375 16.796875 39.40625 
Q 19.671875 43.65625 24.015625 45.921875 
Q 28.375 48.1875 33.59375 48.1875 
Q 44.578125 48.1875 50.953125 41.515625 
Q 57.328125 34.859375 57.328125 23.390625 
Q 57.328125 12.15625 50.6875 5.359375 
Q 44.046875 -1.421875 33.015625 -1.421875 
Q 20.359375 -1.421875 13.671875 8.265625 
Q 6.984375 17.96875 6.984375 36.375 
Q 6.984375 53.65625 15.1875 63.9375 
Q 23.390625 74.21875 37.203125 74.21875 
Q 40.921875 74.21875 44.703125 73.484375 
Q 48.484375 72.75 52.59375 71.296875 
z
" id="DejaVuSans-54"/>
      </defs>
      <g transform="translate(200.446409 303.028562)scale(0.1 -0.1)">
       <use xlink:href="#DejaVuSans-54"/>
       <use x="63.623047" xlink:href="#DejaVuSans-48"/>
       <use x="127.246094" xlink:href="#DejaVuSans-48"/>
      </g>
     </g>
    </g>
    <g id="xtick_5">
     <g id="line2d_9">
      <path clip-path="url(#p20d2d735d7)" d="M 258.920761 288.430125 
L 258.920761 22.318125 
" style="fill:none;stroke:#b0b0b0;stroke-dasharray:2.96,1.28;stroke-dashoffset:0;stroke-width:0.8;"/>
     </g>
     <g id="line2d_10">
      <g>
       <use style="stroke:#000000;stroke-width:0.8;" x="258.920761" xlink:href="#m48bd08aa32" y="288.430125"/>
      </g>
     </g>
     <g id="text_5">
      <!-- 800 -->
      <defs>
       <path d="M 31.78125 34.625 
Q 24.75 34.625 20.71875 30.859375 
Q 16.703125 27.09375 16.703125 20.515625 
Q 16.703125 13.921875 20.71875 10.15625 
Q 24.75 6.390625 31.78125 6.390625 
Q 38.8125 6.390625 42.859375 10.171875 
Q 46.921875 13.96875 46.921875 20.515625 
Q 46.921875 27.09375 42.890625 30.859375 
Q 38.875 34.625 31.78125 34.625 
z
M 21.921875 38.8125 
Q 15.578125 40.375 12.03125 44.71875 
Q 8.5 49.078125 8.5 55.328125 
Q 8.5 64.0625 14.71875 69.140625 
Q 20.953125 74.21875 31.78125 74.21875 
Q 42.671875 74.21875 48.875 69.140625 
Q 55.078125 64.0625 55.078125 55.328125 
Q 55.078125 49.078125 51.53125 44.71875 
Q 48 40.375 41.703125 38.8125 
Q 48.828125 37.15625 52.796875 32.3125 
Q 56.78125 27.484375 56.78125 20.515625 
Q 56.78125 9.90625 50.3125 4.234375 
Q 43.84375 -1.421875 31.78125 -1.421875 
Q 19.734375 -1.421875 13.25 4.234375 
Q 6.78125 9.90625 6.78125 20.515625 
Q 6.78125 27.484375 10.78125 32.3125 
Q 14.796875 37.15625 21.921875 38.8125 
z
M 18.3125 54.390625 
Q 18.3125 48.734375 21.84375 45.5625 
Q 25.390625 42.390625 31.78125 42.390625 
Q 38.140625 42.390625 41.71875 45.5625 
Q 45.3125 48.734375 45.3125 54.390625 
Q 45.3125 60.0625 41.71875 63.234375 
Q 38.140625 66.40625 31.78125 66.40625 
Q 25.390625 66.40625 21.84375 63.234375 
Q 18.3125 60.0625 18.3125 54.390625 
z
" id="DejaVuSans-56"/>
      </defs>
      <g transform="translate(249.377011 303.028562)scale(0.1 -0.1)">
       <use xlink:href="#DejaVuSans-56"/>
       <use x="63.623047" xlink:href="#DejaVuSans-48"/>
       <use x="127.246094" xlink:href="#DejaVuSans-48"/>
      </g>
     </g>
    </g>
    <g id="xtick_6">
     <g id="line2d_11">
      <path clip-path="url(#p20d2d735d7)" d="M 307.851363 288.430125 
L 307.851363 22.318125 
" style="fill:none;stroke:#b0b0b0;stroke-dasharray:2.96,1.28;stroke-dashoffset:0;stroke-width:0.8;"/>
     </g>
     <g id="line2d_12">
      <g>
       <use style="stroke:#000000;stroke-width:0.8;" x="307.851363" xlink:href="#m48bd08aa32" y="288.430125"/>
      </g>
     </g>
     <g id="text_6">
      <!-- 1000 -->
      <defs>
       <path d="M 12.40625 8.296875 
L 28.515625 8.296875 
L 28.515625 63.921875 
L 10.984375 60.40625 
L 10.984375 69.390625 
L 28.421875 72.90625 
L 38.28125 72.90625 
L 38.28125 8.296875 
L 54.390625 8.296875 
L 54.390625 0 
L 12.40625 0 
z
" id="DejaVuSans-49"/>
      </defs>
      <g transform="translate(295.126363 303.028562)scale(0.1 -0.1)">
       <use xlink:href="#DejaVuSans-49"/>
       <use x="63.623047" xlink:href="#DejaVuSans-48"/>
       <use x="127.246094" xlink:href="#DejaVuSans-48"/>
       <use x="190.869141" xlink:href="#DejaVuSans-48"/>
      </g>
     </g>
    </g>
    <g id="xtick_7">
     <g id="line2d_13">
      <path clip-path="url(#p20d2d735d7)" d="M 356.781965 288.430125 
L 356.781965 22.318125 
" style="fill:none;stroke:#b0b0b0;stroke-dasharray:2.96,1.28;stroke-dashoffset:0;stroke-width:0.8;"/>
     </g>
     <g id="line2d_14">
      <g>
       <use style="stroke:#000000;stroke-width:0.8;" x="356.781965" xlink:href="#m48bd08aa32" y="288.430125"/>
      </g>
     </g>
     <g id="text_7">
      <!-- 1200 -->
      <g transform="translate(344.056965 303.028562)scale(0.1 -0.1)">
       <use xlink:href="#DejaVuSans-49"/>
       <use x="63.623047" xlink:href="#DejaVuSans-50"/>
       <use x="127.246094" xlink:href="#DejaVuSans-48"/>
       <use x="190.869141" xlink:href="#DejaVuSans-48"/>
      </g>
     </g>
    </g>
    <g id="text_8">
     <!-- Day -->
     <defs>
      <path d="M 19.671875 64.796875 
L 19.671875 8.109375 
L 31.59375 8.109375 
Q 46.6875 8.109375 53.6875 14.9375 
Q 60.6875 21.78125 60.6875 36.53125 
Q 60.6875 51.171875 53.6875 57.984375 
Q 46.6875 64.796875 31.59375 64.796875 
z
M 9.8125 72.90625 
L 30.078125 72.90625 
Q 51.265625 72.90625 61.171875 64.09375 
Q 71.09375 55.28125 71.09375 36.53125 
Q 71.09375 17.671875 61.125 8.828125 
Q 51.171875 0 30.078125 0 
L 9.8125 0 
z
" id="DejaVuSans-68"/>
      <path d="M 34.28125 27.484375 
Q 23.390625 27.484375 19.1875 25 
Q 14.984375 22.515625 14.984375 16.5 
Q 14.984375 11.71875 18.140625 8.90625 
Q 21.296875 6.109375 26.703125 6.109375 
Q 34.1875 6.109375 38.703125 11.40625 
Q 43.21875 16.703125 43.21875 25.484375 
L 43.21875 27.484375 
z
M 52.203125 31.203125 
L 52.203125 0 
L 43.21875 0 
L 43.21875 8.296875 
Q 40.140625 3.328125 35.546875 0.953125 
Q 30.953125 -1.421875 24.3125 -1.421875 
Q 15.921875 -1.421875 10.953125 3.296875 
Q 6 8.015625 6 15.921875 
Q 6 25.140625 12.171875 29.828125 
Q 18.359375 34.515625 30.609375 34.515625 
L 43.21875 34.515625 
L 43.21875 35.40625 
Q 43.21875 41.609375 39.140625 45 
Q 35.0625 48.390625 27.6875 48.390625 
Q 23 48.390625 18.546875 47.265625 
Q 14.109375 46.140625 10.015625 43.890625 
L 10.015625 52.203125 
Q 14.9375 54.109375 19.578125 55.046875 
Q 24.21875 56 28.609375 56 
Q 40.484375 56 46.34375 49.84375 
Q 52.203125 43.703125 52.203125 31.203125 
z
" id="DejaVuSans-97"/>
      <path d="M 32.171875 -5.078125 
Q 28.375 -14.84375 24.75 -17.8125 
Q 21.140625 -20.796875 15.09375 -20.796875 
L 7.90625 -20.796875 
L 7.90625 -13.28125 
L 13.1875 -13.28125 
Q 16.890625 -13.28125 18.9375 -11.515625 
Q 21 -9.765625 23.484375 -3.21875 
L 25.09375 0.875 
L 2.984375 54.6875 
L 12.5 54.6875 
L 29.59375 11.921875 
L 46.6875 54.6875 
L 56.203125 54.6875 
z
" id="DejaVuSans-121"/>
     </defs>
     <g transform="translate(215.652188 316.706687)scale(0.1 -0.1)">
      <use xlink:href="#DejaVuSans-68"/>
      <use x="77.001953" xlink:href="#DejaVuSans-97"/>
      <use x="138.28125" xlink:href="#DejaVuSans-121"/>
     </g>
    </g>
   </g>
   <g id="matplotlib.axis_2">
    <g id="ytick_1">
     <g id="line2d_15">
      <path clip-path="url(#p20d2d735d7)" d="M 46.965625 287.292556 
L 404.085625 287.292556 
" style="fill:none;stroke:#b0b0b0;stroke-dasharray:2.96,1.28;stroke-dashoffset:0;stroke-width:0.8;"/>
     </g>
     <g id="line2d_16">
      <defs>
       <path d="M 0 0 
L -3.5 0 
" id="mee411f731b" style="stroke:#000000;stroke-width:0.8;"/>
      </defs>
      <g>
       <use style="stroke:#000000;stroke-width:0.8;" x="46.965625" xlink:href="#mee411f731b" y="287.292556"/>
      </g>
     </g>
     <g id="text_9">
      <!-- 75 -->
      <defs>
       <path d="M 8.203125 72.90625 
L 55.078125 72.90625 
L 55.078125 68.703125 
L 28.609375 0 
L 18.3125 0 
L 43.21875 64.59375 
L 8.203125 64.59375 
z
" id="DejaVuSans-55"/>
       <path d="M 10.796875 72.90625 
L 49.515625 72.90625 
L 49.515625 64.59375 
L 19.828125 64.59375 
L 19.828125 46.734375 
Q 21.96875 47.46875 24.109375 47.828125 
Q 26.265625 48.1875 28.421875 48.1875 
Q 40.625 48.1875 47.75 41.5 
Q 54.890625 34.8125 54.890625 23.390625 
Q 54.890625 11.625 47.5625 5.09375 
Q 40.234375 -1.421875 26.90625 -1.421875 
Q 22.3125 -1.421875 17.546875 -0.640625 
Q 12.796875 0.140625 7.71875 1.703125 
L 7.71875 11.625 
Q 12.109375 9.234375 16.796875 8.0625 
Q 21.484375 6.890625 26.703125 6.890625 
Q 35.15625 6.890625 40.078125 11.328125 
Q 45.015625 15.765625 45.015625 23.390625 
Q 45.015625 31 40.078125 35.4375 
Q 35.15625 39.890625 26.703125 39.890625 
Q 22.75 39.890625 18.8125 39.015625 
Q 14.890625 38.140625 10.796875 36.28125 
z
" id="DejaVuSans-53"/>
      </defs>
      <g transform="translate(27.240625 291.091775)scale(0.1 -0.1)">
       <use xlink:href="#DejaVuSans-55"/>
       <use x="63.623047" xlink:href="#DejaVuSans-53"/>
      </g>
     </g>
    </g>
    <g id="ytick_2">
     <g id="line2d_17">
      <path clip-path="url(#p20d2d735d7)" d="M 46.965625 255.399567 
L 404.085625 255.399567 
" style="fill:none;stroke:#b0b0b0;stroke-dasharray:2.96,1.28;stroke-dashoffset:0;stroke-width:0.8;"/>
     </g>
     <g id="line2d_18">
      <g>
       <use style="stroke:#000000;stroke-width:0.8;" x="46.965625" xlink:href="#mee411f731b" y="255.399567"/>
      </g>
     </g>
     <g id="text_10">
      <!-- 100 -->
      <g transform="translate(20.878125 259.198785)scale(0.1 -0.1)">
       <use xlink:href="#DejaVuSans-49"/>
       <use x="63.623047" xlink:href="#DejaVuSans-48"/>
       <use x="127.246094" xlink:href="#DejaVuSans-48"/>
      </g>
     </g>
    </g>
    <g id="ytick_3">
     <g id="line2d_19">
      <path clip-path="url(#p20d2d735d7)" d="M 46.965625 223.506577 
L 404.085625 223.506577 
" style="fill:none;stroke:#b0b0b0;stroke-dasharray:2.96,1.28;stroke-dashoffset:0;stroke-width:0.8;"/>
     </g>
     <g id="line2d_20">
      <g>
       <use style="stroke:#000000;stroke-width:0.8;" x="46.965625" xlink:href="#mee411f731b" y="223.506577"/>
      </g>
     </g>
     <g id="text_11">
      <!-- 125 -->
      <g transform="translate(20.878125 227.305796)scale(0.1 -0.1)">
       <use xlink:href="#DejaVuSans-49"/>
       <use x="63.623047" xlink:href="#DejaVuSans-50"/>
       <use x="127.246094" xlink:href="#DejaVuSans-53"/>
      </g>
     </g>
    </g>
    <g id="ytick_4">
     <g id="line2d_21">
      <path clip-path="url(#p20d2d735d7)" d="M 46.965625 191.613588 
L 404.085625 191.613588 
" style="fill:none;stroke:#b0b0b0;stroke-dasharray:2.96,1.28;stroke-dashoffset:0;stroke-width:0.8;"/>
     </g>
     <g id="line2d_22">
      <g>
       <use style="stroke:#000000;stroke-width:0.8;" x="46.965625" xlink:href="#mee411f731b" y="191.613588"/>
      </g>
     </g>
     <g id="text_12">
      <!-- 150 -->
      <g transform="translate(20.878125 195.412807)scale(0.1 -0.1)">
       <use xlink:href="#DejaVuSans-49"/>
       <use x="63.623047" xlink:href="#DejaVuSans-53"/>
       <use x="127.246094" xlink:href="#DejaVuSans-48"/>
      </g>
     </g>
    </g>
    <g id="ytick_5">
     <g id="line2d_23">
      <path clip-path="url(#p20d2d735d7)" d="M 46.965625 159.720598 
L 404.085625 159.720598 
" style="fill:none;stroke:#b0b0b0;stroke-dasharray:2.96,1.28;stroke-dashoffset:0;stroke-width:0.8;"/>
     </g>
     <g id="line2d_24">
      <g>
       <use style="stroke:#000000;stroke-width:0.8;" x="46.965625" xlink:href="#mee411f731b" y="159.720598"/>
      </g>
     </g>
     <g id="text_13">
      <!-- 175 -->
      <g transform="translate(20.878125 163.519817)scale(0.1 -0.1)">
       <use xlink:href="#DejaVuSans-49"/>
       <use x="63.623047" xlink:href="#DejaVuSans-55"/>
       <use x="127.246094" xlink:href="#DejaVuSans-53"/>
      </g>
     </g>
    </g>
    <g id="ytick_6">
     <g id="line2d_25">
      <path clip-path="url(#p20d2d735d7)" d="M 46.965625 127.827609 
L 404.085625 127.827609 
" style="fill:none;stroke:#b0b0b0;stroke-dasharray:2.96,1.28;stroke-dashoffset:0;stroke-width:0.8;"/>
     </g>
     <g id="line2d_26">
      <g>
       <use style="stroke:#000000;stroke-width:0.8;" x="46.965625" xlink:href="#mee411f731b" y="127.827609"/>
      </g>
     </g>
     <g id="text_14">
      <!-- 200 -->
      <g transform="translate(20.878125 131.626828)scale(0.1 -0.1)">
       <use xlink:href="#DejaVuSans-50"/>
       <use x="63.623047" xlink:href="#DejaVuSans-48"/>
       <use x="127.246094" xlink:href="#DejaVuSans-48"/>
      </g>
     </g>
    </g>
    <g id="ytick_7">
     <g id="line2d_27">
      <path clip-path="url(#p20d2d735d7)" d="M 46.965625 95.934619 
L 404.085625 95.934619 
" style="fill:none;stroke:#b0b0b0;stroke-dasharray:2.96,1.28;stroke-dashoffset:0;stroke-width:0.8;"/>
     </g>
     <g id="line2d_28">
      <g>
       <use style="stroke:#000000;stroke-width:0.8;" x="46.965625" xlink:href="#mee411f731b" y="95.934619"/>
      </g>
     </g>
     <g id="text_15">
      <!-- 225 -->
      <g transform="translate(20.878125 99.733838)scale(0.1 -0.1)">
       <use xlink:href="#DejaVuSans-50"/>
       <use x="63.623047" xlink:href="#DejaVuSans-50"/>
       <use x="127.246094" xlink:href="#DejaVuSans-53"/>
      </g>
     </g>
    </g>
    <g id="ytick_8">
     <g id="line2d_29">
      <path clip-path="url(#p20d2d735d7)" d="M 46.965625 64.04163 
L 404.085625 64.04163 
" style="fill:none;stroke:#b0b0b0;stroke-dasharray:2.96,1.28;stroke-dashoffset:0;stroke-width:0.8;"/>
     </g>
     <g id="line2d_30">
      <g>
       <use style="stroke:#000000;stroke-width:0.8;" x="46.965625" xlink:href="#mee411f731b" y="64.04163"/>
      </g>
     </g>
     <g id="text_16">
      <!-- 250 -->
      <g transform="translate(20.878125 67.840849)scale(0.1 -0.1)">
       <use xlink:href="#DejaVuSans-50"/>
       <use x="63.623047" xlink:href="#DejaVuSans-53"/>
       <use x="127.246094" xlink:href="#DejaVuSans-48"/>
      </g>
     </g>
    </g>
    <g id="ytick_9">
     <g id="line2d_31">
      <path clip-path="url(#p20d2d735d7)" d="M 46.965625 32.14864 
L 404.085625 32.14864 
" style="fill:none;stroke:#b0b0b0;stroke-dasharray:2.96,1.28;stroke-dashoffset:0;stroke-width:0.8;"/>
     </g>
     <g id="line2d_32">
      <g>
       <use style="stroke:#000000;stroke-width:0.8;" x="46.965625" xlink:href="#mee411f731b" y="32.14864"/>
      </g>
     </g>
     <g id="text_17">
      <!-- 275 -->
      <g transform="translate(20.878125 35.947859)scale(0.1 -0.1)">
       <use xlink:href="#DejaVuSans-50"/>
       <use x="63.623047" xlink:href="#DejaVuSans-55"/>
       <use x="127.246094" xlink:href="#DejaVuSans-53"/>
      </g>
     </g>
    </g>
    <g id="text_18">
     <!-- Price $ -->
     <defs>
      <path d="M 19.671875 64.796875 
L 19.671875 37.40625 
L 32.078125 37.40625 
Q 38.96875 37.40625 42.71875 40.96875 
Q 46.484375 44.53125 46.484375 51.125 
Q 46.484375 57.671875 42.71875 61.234375 
Q 38.96875 64.796875 32.078125 64.796875 
z
M 9.8125 72.90625 
L 32.078125 72.90625 
Q 44.34375 72.90625 50.609375 67.359375 
Q 56.890625 61.8125 56.890625 51.125 
Q 56.890625 40.328125 50.609375 34.8125 
Q 44.34375 29.296875 32.078125 29.296875 
L 19.671875 29.296875 
L 19.671875 0 
L 9.8125 0 
z
" id="DejaVuSans-80"/>
      <path d="M 41.109375 46.296875 
Q 39.59375 47.171875 37.8125 47.578125 
Q 36.03125 48 33.890625 48 
Q 26.265625 48 22.1875 43.046875 
Q 18.109375 38.09375 18.109375 28.8125 
L 18.109375 0 
L 9.078125 0 
L 9.078125 54.6875 
L 18.109375 54.6875 
L 18.109375 46.1875 
Q 20.953125 51.171875 25.484375 53.578125 
Q 30.03125 56 36.53125 56 
Q 37.453125 56 38.578125 55.875 
Q 39.703125 55.765625 41.0625 55.515625 
z
" id="DejaVuSans-114"/>
      <path d="M 9.421875 54.6875 
L 18.40625 54.6875 
L 18.40625 0 
L 9.421875 0 
z
M 9.421875 75.984375 
L 18.40625 75.984375 
L 18.40625 64.59375 
L 9.421875 64.59375 
z
" id="DejaVuSans-105"/>
      <path d="M 48.78125 52.59375 
L 48.78125 44.1875 
Q 44.96875 46.296875 41.140625 47.34375 
Q 37.3125 48.390625 33.40625 48.390625 
Q 24.65625 48.390625 19.8125 42.84375 
Q 14.984375 37.3125 14.984375 27.296875 
Q 14.984375 17.28125 19.8125 11.734375 
Q 24.65625 6.203125 33.40625 6.203125 
Q 37.3125 6.203125 41.140625 7.25 
Q 44.96875 8.296875 48.78125 10.40625 
L 48.78125 2.09375 
Q 45.015625 0.34375 40.984375 -0.53125 
Q 36.96875 -1.421875 32.421875 -1.421875 
Q 20.0625 -1.421875 12.78125 6.34375 
Q 5.515625 14.109375 5.515625 27.296875 
Q 5.515625 40.671875 12.859375 48.328125 
Q 20.21875 56 33.015625 56 
Q 37.15625 56 41.109375 55.140625 
Q 45.0625 54.296875 48.78125 52.59375 
z
" id="DejaVuSans-99"/>
      <path d="M 56.203125 29.59375 
L 56.203125 25.203125 
L 14.890625 25.203125 
Q 15.484375 15.921875 20.484375 11.0625 
Q 25.484375 6.203125 34.421875 6.203125 
Q 39.59375 6.203125 44.453125 7.46875 
Q 49.3125 8.734375 54.109375 11.28125 
L 54.109375 2.78125 
Q 49.265625 0.734375 44.1875 -0.34375 
Q 39.109375 -1.421875 33.890625 -1.421875 
Q 20.796875 -1.421875 13.15625 6.1875 
Q 5.515625 13.8125 5.515625 26.8125 
Q 5.515625 40.234375 12.765625 48.109375 
Q 20.015625 56 32.328125 56 
Q 43.359375 56 49.78125 48.890625 
Q 56.203125 41.796875 56.203125 29.59375 
z
M 47.21875 32.234375 
Q 47.125 39.59375 43.09375 43.984375 
Q 39.0625 48.390625 32.421875 48.390625 
Q 24.90625 48.390625 20.390625 44.140625 
Q 15.875 39.890625 15.1875 32.171875 
z
" id="DejaVuSans-101"/>
      <path id="DejaVuSans-32"/>
      <path d="M 33.796875 -14.703125 
L 28.90625 -14.703125 
L 28.859375 0 
Q 23.734375 0.09375 18.609375 1.1875 
Q 13.484375 2.296875 8.296875 4.5 
L 8.296875 13.28125 
Q 13.28125 10.15625 18.375 8.5625 
Q 23.484375 6.984375 28.90625 6.9375 
L 28.90625 29.203125 
Q 18.109375 30.953125 13.203125 35.15625 
Q 8.296875 39.359375 8.296875 46.6875 
Q 8.296875 54.640625 13.625 59.21875 
Q 18.953125 63.8125 28.90625 64.5 
L 28.90625 75.984375 
L 33.796875 75.984375 
L 33.796875 64.65625 
Q 38.328125 64.453125 42.578125 63.6875 
Q 46.828125 62.9375 50.875 61.625 
L 50.875 53.078125 
Q 46.828125 55.125 42.546875 56.25 
Q 38.28125 57.375 33.796875 57.5625 
L 33.796875 36.71875 
Q 44.875 35.015625 50.09375 30.609375 
Q 55.328125 26.21875 55.328125 18.609375 
Q 55.328125 10.359375 49.78125 5.59375 
Q 44.234375 0.828125 33.796875 0.09375 
z
M 28.90625 37.59375 
L 28.90625 57.625 
Q 23.25 56.984375 20.265625 54.390625 
Q 17.28125 51.8125 17.28125 47.515625 
Q 17.28125 43.3125 20.03125 40.96875 
Q 22.796875 38.625 28.90625 37.59375 
z
M 33.796875 28.21875 
L 33.796875 7.078125 
Q 39.984375 7.90625 43.140625 10.59375 
Q 46.296875 13.28125 46.296875 17.671875 
Q 46.296875 21.96875 43.28125 24.5 
Q 40.28125 27.046875 33.796875 28.21875 
z
" id="DejaVuSans-36"/>
     </defs>
     <g transform="translate(14.798438 172.342094)rotate(-90)scale(0.1 -0.1)">
      <use xlink:href="#DejaVuSans-80"/>
      <use x="58.552734" xlink:href="#DejaVuSans-114"/>
      <use x="99.666016" xlink:href="#DejaVuSans-105"/>
      <use x="127.449219" xlink:href="#DejaVuSans-99"/>
      <use x="182.429688" xlink:href="#DejaVuSans-101"/>
      <use x="243.953125" xlink:href="#DejaVuSans-32"/>
      <use x="275.740234" xlink:href="#DejaVuSans-36"/>
     </g>
    </g>
   </g>
   <g id="line2d_33">
    <path clip-path="url(#p20d2d735d7)" d="M 63.198352 237.06102 
L 63.443005 227.787905 
L 63.687658 226.724384 
L 63.932311 224.512324 
L 64.176964 226.663134 
L 64.421617 223.40769 
L 64.66627 217.935485 
L 65.155576 214.609866 
L 65.889535 215.71374 
L 66.378841 217.116806 
L 66.623494 212.923882 
L 66.868147 212.072384 
L 67.1128 215.654038 
L 67.357453 225.24871 
L 67.602106 226.11439 
L 67.846759 235.957009 
L 68.091412 233.920094 
L 68.336066 233.294974 
L 68.580719 229.484897 
L 68.825372 238.170773 
L 69.314678 240.300921 
L 69.559331 236.674387 
L 69.803984 239.213943 
L 70.048637 238.518026 
L 70.29329 242.203249 
L 70.537943 242.975384 
L 70.782596 242.272041 
L 71.027249 245.287354 
L 71.271902 242.746455 
L 71.516555 235.671989 
L 72.005861 239.270822 
L 72.250514 237.257918 
L 72.495167 239.915505 
L 72.73982 240.670296 
L 72.984473 238.457234 
L 73.229126 238.6695 
L 73.473779 239.256232 
L 73.963085 233.684274 
L 74.207738 238.332467 
L 74.452391 239.206769 
L 74.697044 239.560066 
L 75.18635 237.055608 
L 75.431003 236.893564 
L 75.675656 246.279201 
L 76.164962 243.550496 
L 76.654268 237.643129 
L 76.898921 237.707347 
L 77.143574 236.080258 
L 77.63288 238.99716 
L 78.122186 235.849353 
L 78.366839 237.078559 
L 78.856145 237.263222 
L 79.100798 245.931335 
L 79.345451 246.201688 
L 79.834757 249.784549 
L 80.07941 247.497302 
L 80.568716 250.435081 
L 80.813369 250.542241 
L 81.058022 249.317552 
L 81.547328 263.302007 
L 81.791981 262.330111 
L 82.036634 263.831578 
L 82.281287 264.549929 
L 82.52594 262.664089 
L 82.770593 263.429557 
L 83.015246 260.013422 
L 83.259899 260.516986 
L 83.504552 261.793562 
L 83.749205 260.546818 
L 83.993858 256.561284 
L 84.238511 259.38075 
L 84.483164 260.164594 
L 84.727817 267.080987 
L 84.97247 269.509246 
L 85.461776 268.224903 
L 86.195735 260.363059 
L 86.440388 260.854963 
L 86.685041 258.701924 
L 86.929694 259.400556 
L 87.419 254.367833 
L 87.663653 255.057628 
L 87.908306 256.532981 
L 88.152959 258.878558 
L 88.397612 253.650708 
L 88.642265 255.598353 
L 88.886918 256.263942 
L 89.131571 254.892265 
L 89.376224 250.151482 
L 89.620877 249.184999 
L 89.86553 249.341534 
L 90.354836 253.618035 
L 90.599489 249.903564 
L 90.844143 241.923961 
L 91.088796 238.843691 
L 91.333449 239.07662 
L 91.578102 240.30311 
L 92.067408 244.520727 
L 92.312061 242.894046 
L 92.801367 244.496316 
L 93.04602 244.89055 
L 93.290673 244.868865 
L 93.535326 240.799395 
L 93.779979 243.287482 
L 94.024632 243.726653 
L 94.269285 244.448099 
L 94.513938 244.212231 
L 94.758591 245.862708 
L 95.003244 259.820709 
L 95.247897 256.382129 
L 95.49255 259.301173 
L 95.737203 258.915329 
L 95.981856 259.645087 
L 96.226509 260.731744 
L 96.471162 260.17861 
L 96.715815 260.919123 
L 96.960468 262.046376 
L 97.205121 264.574524 
L 97.449774 269.103235 
L 97.694427 268.880769 
L 97.93908 268.432283 
L 98.183733 269.970452 
L 98.428386 268.29462 
L 98.673039 268.360405 
L 98.917692 266.879145 
L 99.162345 264.488621 
L 99.406998 267.151483 
L 99.651651 266.191851 
L 99.896304 267.492254 
L 100.140957 267.239352 
L 100.38561 268.468626 
L 100.630263 268.512162 
L 100.874916 270.376979 
L 101.119569 270.734928 
L 101.608875 273.864535 
L 101.853528 273.695726 
L 102.098181 274.862262 
L 102.342834 272.877836 
L 102.587487 273.062461 
L 102.83214 272.531508 
L 103.076793 273.753141 
L 103.321446 273.081673 
L 103.566099 270.411171 
L 103.810752 270.829922 
L 104.055405 271.581813 
L 104.300058 270.359888 
L 104.544711 272.677804 
L 104.789364 273.912022 
L 105.034017 275.767058 
L 105.27867 275.234051 
L 105.523323 274.300436 
L 105.767976 268.226324 
L 106.012629 269.578973 
L 106.257282 267.299035 
L 106.501935 269.531544 
L 106.746588 267.790482 
L 106.991241 269.574535 
L 107.235894 272.270538 
L 107.480547 272.420494 
L 107.7252 273.32819 
L 107.969853 270.526984 
L 108.214506 270.159262 
L 108.459159 265.232152 
L 108.703812 274.779191 
L 108.948465 273.523832 
L 109.193118 273.080613 
L 109.437771 274.448143 
L 109.682424 274.394135 
L 109.927077 274.765837 
L 110.661036 264.399302 
L 111.150342 261.156208 
L 111.394995 263.677816 
L 111.639648 264.371923 
L 111.884301 263.416943 
L 112.128954 264.219086 
L 112.373607 261.952229 
L 112.61826 254.716741 
L 112.862913 256.389069 
L 113.107566 261.01037 
L 113.35222 262.715907 
L 113.596873 259.900227 
L 113.841526 258.778415 
L 114.086179 259.685684 
L 114.330832 258.276963 
L 114.575485 259.347784 
L 115.064791 260.099627 
L 115.309444 261.376845 
L 115.79875 251.924459 
L 116.043403 251.553458 
L 116.532709 258.171681 
L 116.777362 255.860559 
L 117.266668 259.112091 
L 117.511321 259.667376 
L 118.000627 263.445753 
L 118.24528 263.28147 
L 118.489933 267.704909 
L 118.734586 266.398395 
L 118.979239 263.137325 
L 119.468545 262.022754 
L 120.202504 268.539307 
L 120.447157 265.888533 
L 120.69181 266.818071 
L 120.936463 264.2583 
L 121.181116 263.192579 
L 121.425769 258.99803 
L 121.670422 259.271361 
L 122.404381 244.45391 
L 122.649034 241.034329 
L 122.893687 241.144146 
L 123.13834 242.515219 
L 123.382993 242.833789 
L 123.627646 238.139199 
L 123.872299 221.316523 
L 124.361605 217.591113 
L 124.606258 215.039966 
L 124.850911 214.297399 
L 125.095564 211.192017 
L 125.340217 205.100678 
L 125.58487 211.20685 
L 125.829523 211.245082 
L 126.318829 210.066497 
L 126.563482 207.117914 
L 126.808135 208.26654 
L 127.052788 202.169595 
L 127.786747 210.439931 
L 128.0314 210.235831 
L 128.276053 210.433644 
L 128.520706 209.39134 
L 128.765359 205.058671 
L 129.010012 206.01256 
L 129.254665 205.698049 
L 129.499318 210.122053 
L 129.743971 205.874566 
L 129.988624 204.651794 
L 130.233277 209.573113 
L 130.47793 209.216712 
L 130.967236 212.923843 
L 131.211889 209.715915 
L 131.456542 208.493279 
L 131.701195 203.51183 
L 131.945848 194.990869 
L 132.435154 200.577067 
L 132.679807 200.938959 
L 132.92446 199.552653 
L 133.413766 194.342693 
L 133.658419 195.918188 
L 133.903072 192.201498 
L 134.147725 190.985772 
L 134.392378 190.579324 
L 134.637031 185.977323 
L 134.881684 186.109186 
L 135.126337 184.322816 
L 135.37099 180.108733 
L 135.615643 178.558407 
L 135.860297 181.920525 
L 136.10495 179.567794 
L 136.349603 181.263121 
L 136.594256 191.982565 
L 136.838909 195.164272 
L 137.083562 187.011003 
L 137.328215 185.084791 
L 137.817521 189.300684 
L 138.062174 190.862164 
L 138.306827 186.57594 
L 138.55148 170.821983 
L 138.796133 177.359656 
L 139.285439 184.876972 
L 139.530092 177.264623 
L 139.774745 179.509708 
L 140.019398 186.10319 
L 140.508704 172.536231 
L 140.753357 177.860923 
L 140.99801 178.428881 
L 141.487316 187.006624 
L 141.976622 194.365857 
L 142.221275 189.853127 
L 142.465928 189.07961 
L 142.710581 190.420715 
L 142.955234 187.714347 
L 143.44454 175.784142 
L 143.689193 174.883433 
L 143.933846 174.469996 
L 144.178499 179.16444 
L 144.423152 180.21747 
L 144.667805 180.637447 
L 144.912458 182.245489 
L 145.157111 174.446228 
L 145.401764 174.232746 
L 145.89107 167.445908 
L 146.135723 169.483155 
L 146.380376 168.253413 
L 146.625029 168.97922 
L 146.869682 167.574403 
L 147.114335 163.373517 
L 147.358988 153.084641 
L 147.603641 161.412908 
L 147.848294 163.651783 
L 148.092947 164.217969 
L 148.3376 167.025191 
L 148.582253 167.96707 
L 148.826906 163.980115 
L 149.071559 165.240982 
L 149.316212 161.612162 
L 149.560865 162.804548 
L 149.805518 167.517212 
L 150.050171 169.219566 
L 150.294824 161.277114 
L 150.539477 161.06439 
L 150.78413 155.957385 
L 151.028783 153.332696 
L 151.273436 158.971335 
L 151.518089 157.426985 
L 152.007395 150.792352 
L 152.252048 158.334682 
L 152.496701 153.542149 
L 152.741354 163.800172 
L 152.986007 162.057017 
L 153.23066 165.036025 
L 153.475313 161.633224 
L 153.719966 165.282075 
L 154.209272 160.022924 
L 154.453925 173.825148 
L 154.943231 179.53879 
L 155.187884 172.730326 
L 155.432537 180.663999 
L 155.67719 177.42878 
L 156.166496 189.937882 
L 156.411149 183.76866 
L 156.655802 188.131872 
L 156.900455 184.784256 
L 157.145108 177.054041 
L 157.634414 170.414794 
L 157.879067 169.353044 
L 158.12372 165.609433 
L 158.368374 168.154507 
L 158.613027 160.873877 
L 158.85768 160.48084 
L 159.102333 160.301598 
L 159.346986 161.845188 
L 159.591639 162.177822 
L 159.836292 165.103883 
L 160.080945 161.893853 
L 160.325598 154.189742 
L 160.570251 164.693989 
L 160.814904 165.484851 
L 161.30421 160.318495 
L 161.548863 147.421222 
L 162.038169 153.219287 
L 162.282822 160.540056 
L 162.527475 160.639098 
L 163.016781 176.948672 
L 163.261434 176.047146 
L 163.506087 173.310158 
L 163.995393 181.169938 
L 164.240046 180.437182 
L 164.484699 181.519371 
L 164.729352 183.156184 
L 164.974005 187.765678 
L 165.218658 189.679316 
L 165.463311 190.148679 
L 165.707964 188.273817 
L 165.952617 179.589168 
L 166.19727 178.061131 
L 166.441923 181.380773 
L 166.931229 199.21377 
L 167.420535 181.497939 
L 167.665188 188.977647 
L 167.909841 191.325083 
L 168.399147 184.240534 
L 168.6438 182.086861 
L 168.888453 183.342181 
L 169.377759 174.548678 
L 169.622412 178.478305 
L 169.867065 178.709989 
L 170.111718 174.989932 
L 170.356371 188.862409 
L 170.601024 185.048818 
L 170.845677 186.07586 
L 171.09033 180.202072 
L 171.334983 178.36367 
L 171.579636 178.534094 
L 171.824289 180.536458 
L 172.068942 188.396336 
L 172.313595 190.312621 
L 172.558248 187.575048 
L 172.802901 178.701268 
L 173.047554 183.124318 
L 173.292207 183.31049 
L 173.781513 185.06003 
L 174.026166 181.982874 
L 174.270819 180.775616 
L 174.515472 173.722582 
L 174.760125 173.789993 
L 175.004778 169.027379 
L 175.249431 166.653936 
L 175.494084 170.33695 
L 175.738737 169.238039 
L 175.98339 170.803626 
L 176.228043 169.365794 
L 176.472696 173.467656 
L 176.717349 174.128973 
L 176.962002 170.346936 
L 177.206655 162.714868 
L 177.451308 163.793067 
L 177.695961 157.874936 
L 177.940614 157.53506 
L 178.185267 158.177806 
L 178.42992 155.602463 
L 178.674573 156.794557 
L 178.919226 155.377378 
L 179.163879 157.108756 
L 179.408532 160.001005 
L 179.653185 160.015274 
L 180.387144 147.518221 
L 180.631798 148.118725 
L 181.121104 144.301202 
L 181.365757 138.838983 
L 181.61041 140.190464 
L 181.855063 138.426714 
L 182.099716 142.357723 
L 182.344369 149.576841 
L 182.589022 146.661408 
L 182.833675 148.643079 
L 183.322981 142.079321 
L 183.567634 140.692665 
L 183.812287 140.913429 
L 184.05694 143.609519 
L 184.301593 138.567238 
L 184.546246 130.222522 
L 184.790899 129.791722 
L 185.035552 127.424216 
L 185.280205 121.886741 
L 185.524858 92.581106 
L 185.769511 94.424141 
L 186.014164 101.657741 
L 186.258817 103.589093 
L 186.748123 111.952788 
L 186.992776 103.351569 
L 187.237429 107.230001 
L 187.482082 107.618269 
L 187.726735 109.675896 
L 187.971388 108.462078 
L 188.216041 104.710934 
L 188.460694 106.357733 
L 188.705347 103.758524 
L 188.95 102.58868 
L 189.194653 102.967565 
L 189.439306 102.863149 
L 189.683959 103.624131 
L 189.928612 103.150739 
L 190.173265 105.501115 
L 190.417918 109.048587 
L 190.662571 106.170665 
L 190.907224 106.710261 
L 191.151877 107.651789 
L 191.39653 110.034926 
L 191.641183 109.779319 
L 191.885836 95.761158 
L 192.130489 92.897252 
L 192.375142 96.597434 
L 192.619795 93.736721 
L 192.864448 94.895022 
L 193.109101 100.547326 
L 193.598407 102.062671 
L 193.84306 104.550476 
L 194.087713 113.829284 
L 194.577019 102.624828 
L 194.821672 90.430529 
L 195.066325 95.916282 
L 195.310978 108.429531 
L 195.555631 108.410357 
L 195.800284 99.469088 
L 196.044937 104.831175 
L 196.534243 100.838673 
L 196.778896 103.780423 
L 197.023549 111.360225 
L 197.512855 106.158032 
L 197.757508 105.228358 
L 198.002161 107.196228 
L 198.246814 104.631513 
L 198.491467 110.382607 
L 198.73612 122.296071 
L 198.980773 127.282971 
L 199.225426 128.032235 
L 199.714732 112.47794 
L 199.959385 112.399356 
L 200.448691 99.035835 
L 200.937997 105.374002 
L 201.18265 98.822508 
L 201.427303 101.606273 
L 201.671956 90.107608 
L 201.916609 95.747766 
L 202.161262 79.642779 
L 202.405915 78.058758 
L 202.650568 80.812196 
L 202.895221 74.205574 
L 203.139875 79.345437 
L 203.384528 80.404793 
L 203.629181 80.557348 
L 203.873834 66.333063 
L 204.118487 62.927789 
L 204.36314 62.953873 
L 204.607793 70.155238 
L 204.852446 63.989597 
L 205.097099 70.549053 
L 205.341752 72.021165 
L 205.831058 77.505926 
L 206.075711 69.238451 
L 206.320364 70.478256 
L 206.565017 70.657868 
L 206.80967 68.58348 
L 207.054323 69.321629 
L 207.298976 80.279588 
L 207.543629 82.948563 
L 207.788282 87.162179 
L 208.032935 87.621964 
L 208.277588 85.517541 
L 208.522241 91.448383 
L 208.766894 88.867803 
L 209.011547 94.595791 
L 209.2562 90.110275 
L 209.500853 90.101457 
L 209.745506 94.109396 
L 209.990159 101.477292 
L 210.234812 96.958683 
L 210.479465 86.293628 
L 210.724118 83.25044 
L 210.968771 83.082002 
L 211.458077 87.62027 
L 211.70273 82.963493 
L 211.947383 88.593587 
L 212.192036 88.642738 
L 212.436689 91.032454 
L 212.925995 101.672399 
L 213.170648 101.005963 
L 213.659954 89.279274 
L 213.904607 92.668994 
L 214.14926 100.075141 
L 214.393913 101.662315 
L 214.638566 105.309979 
L 214.883219 106.12455 
L 215.127872 100.496014 
L 215.372525 100.651586 
L 215.617178 90.148642 
L 215.861831 89.431712 
L 216.106484 85.405709 
L 216.351137 90.361775 
L 216.59579 92.52226 
L 216.840443 101.550153 
L 217.085096 101.325029 
L 217.329749 104.486336 
L 217.574402 104.179962 
L 217.819055 104.683312 
L 218.063708 104.836898 
L 218.308361 105.689759 
L 218.553014 112.082625 
L 219.04232 102.389991 
L 219.286973 109.312195 
L 219.531626 121.587024 
L 219.776279 110.916791 
L 220.020932 116.34695 
L 220.265585 118.489916 
L 220.510238 118.217938 
L 220.754891 115.029028 
L 220.999544 119.089467 
L 221.244197 116.565669 
L 221.48885 122.295059 
L 221.733503 119.418325 
L 221.978156 122.213049 
L 222.467462 118.89582 
L 222.712115 117.57237 
L 222.956768 109.437205 
L 223.201421 110.522333 
L 223.690727 113.824593 
L 223.93538 121.774442 
L 224.180033 123.240227 
L 224.669339 120.606097 
L 224.913992 123.341528 
L 225.158645 112.793638 
L 225.403298 108.925854 
L 225.647952 111.630471 
L 225.892605 106.065452 
L 226.137258 110.301668 
L 226.381911 117.753286 
L 226.626564 120.560975 
L 226.871217 117.956939 
L 227.11587 113.937515 
L 227.360523 116.906791 
L 227.605176 113.055358 
L 227.849829 116.735568 
L 228.094482 122.932666 
L 228.339135 122.50097 
L 228.828441 104.250097 
L 229.073094 109.149459 
L 229.317747 107.819274 
L 229.5624 110.008511 
L 230.051706 118.736452 
L 230.296359 117.344755 
L 230.541012 112.174972 
L 231.030318 110.62087 
L 231.274971 111.734321 
L 231.764277 101.387904 
L 232.00893 103.095359 
L 232.253583 102.699441 
L 232.498236 126.45199 
L 232.742889 123.86707 
L 232.987542 122.56984 
L 233.232195 134.156958 
L 233.476848 139.394774 
L 233.721501 134.852846 
L 233.966154 135.85538 
L 234.210807 138.826894 
L 234.700113 140.750596 
L 234.944766 139.564809 
L 235.189419 136.246918 
L 235.434072 138.274801 
L 235.923378 133.090828 
L 236.412684 122.786788 
L 236.657337 126.772808 
L 236.90199 125.611918 
L 237.146643 126.677328 
L 237.391296 130.348895 
L 237.635949 125.429152 
L 237.880602 122.894045 
L 238.369908 122.024697 
L 238.614561 120.012678 
L 238.859214 123.046016 
L 239.103867 123.535662 
L 239.593173 118.707721 
L 239.837826 117.798467 
L 240.082479 119.750511 
L 240.327132 120.076507 
L 240.571785 114.524724 
L 240.816438 113.830121 
L 241.061091 113.805166 
L 241.305744 114.887667 
L 241.550397 111.595763 
L 241.79505 113.852099 
L 242.039703 117.412165 
L 242.529009 126.63606 
L 242.773662 128.418575 
L 243.018315 128.911686 
L 243.262968 131.189454 
L 243.507621 141.964297 
L 243.752274 143.305247 
L 243.996927 147.051661 
L 244.24158 143.130015 
L 244.486233 143.394382 
L 244.730886 136.44915 
L 244.975539 139.096108 
L 245.220192 144.769436 
L 245.464845 140.669443 
L 245.709498 129.54721 
L 245.954151 128.023261 
L 246.68811 117.967801 
L 246.932763 119.547715 
L 247.177416 129.832425 
L 247.422069 167.397613 
L 247.666722 165.452304 
L 247.911375 161.114768 
L 248.400682 166.623414 
L 249.623947 157.019018 
L 250.113253 175.96134 
L 250.357906 177.114677 
L 250.847212 169.07182 
L 251.091865 170.104643 
L 251.336518 173.645984 
L 251.825824 186.501385 
L 252.070477 200.984995 
L 252.31513 206.561733 
L 252.559783 200.495427 
L 252.804436 188.815924 
L 253.049089 188.644974 
L 253.538395 198.817541 
L 253.783048 194.396088 
L 254.027701 192.316989 
L 254.272354 195.462977 
L 254.517007 193.753089 
L 254.76166 191.104086 
L 255.495619 201.9376 
L 255.740272 202.244072 
L 255.984925 191.096923 
L 256.229578 194.570288 
L 256.474231 200.130305 
L 256.718884 202.692178 
L 257.20819 213.422016 
L 257.452843 213.45904 
L 257.697496 211.132841 
L 257.942149 212.615581 
L 258.186802 208.316723 
L 258.431455 207.168759 
L 258.676108 207.072383 
L 258.920761 193.66047 
L 259.165414 191.552367 
L 259.410067 191.106636 
L 259.899373 201.950837 
L 260.144026 198.877769 
L 260.388679 198.580213 
L 260.633332 195.425057 
L 260.877985 197.111352 
L 261.122638 190.885503 
L 261.367291 189.867649 
L 261.611944 185.508759 
L 261.856597 187.001543 
L 262.10125 191.18376 
L 262.590556 181.578606 
L 263.079862 160.795936 
L 263.324515 162.120748 
L 263.569168 166.563206 
L 263.813821 142.642023 
L 264.058474 133.12573 
L 264.303127 136.65434 
L 264.54778 130.35127 
L 265.037086 127.594057 
L 265.281739 134.73714 
L 265.771045 128.715119 
L 266.015698 130.045285 
L 266.260351 134.392613 
L 266.505004 129.01871 
L 266.749657 131.361942 
L 266.99431 121.463591 
L 267.238963 117.653776 
L 267.483616 118.964943 
L 267.728269 118.053003 
L 267.972922 120.34175 
L 268.217575 124.87959 
L 268.462228 120.857772 
L 268.706881 105.074382 
L 268.951534 110.786369 
L 269.196187 112.484441 
L 269.44084 117.710403 
L 269.685493 118.070931 
L 269.930146 117.313745 
L 270.174799 120.779869 
L 270.419452 126.307845 
L 270.664106 127.280188 
L 270.908759 134.667841 
L 271.153412 135.408637 
L 271.398065 128.751326 
L 271.642718 128.385542 
L 271.887371 130.744346 
L 272.132024 136.84133 
L 272.376677 131.207869 
L 272.62133 130.383019 
L 272.865983 131.191595 
L 273.355289 136.480432 
L 273.599942 134.786233 
L 273.844595 136.773608 
L 274.089248 141.076903 
L 274.333901 147.910576 
L 274.578554 144.089607 
L 274.823207 145.265759 
L 275.06786 160.135807 
L 275.312513 163.695075 
L 275.557166 164.777109 
L 275.801819 161.862961 
L 276.046472 170.405003 
L 276.291125 162.689562 
L 276.535778 173.258962 
L 276.780431 170.484385 
L 277.025084 171.75041 
L 277.269737 166.063126 
L 277.51439 163.725442 
L 277.759043 168.225811 
L 278.003696 169.17423 
L 278.248349 179.690955 
L 278.493002 182.13247 
L 278.737655 174.045094 
L 278.982308 176.531789 
L 279.226961 184.31793 
L 279.471614 186.926074 
L 279.716267 187.794021 
L 279.96092 196.751991 
L 280.205573 197.155579 
L 280.450226 202.691808 
L 280.694879 198.673532 
L 280.939532 202.077015 
L 281.184185 187.607381 
L 281.673491 174.198524 
L 281.918144 177.465804 
L 282.40745 167.434559 
L 282.652103 176.494551 
L 282.896756 175.260956 
L 283.141409 180.618468 
L 283.386062 161.082922 
L 283.630715 160.18015 
L 283.875368 161.590009 
L 284.120021 152.873455 
L 284.364674 156.731876 
L 284.609327 156.620706 
L 284.85398 155.126482 
L 285.098633 156.652553 
L 285.343286 161.481974 
L 285.587939 157.228316 
L 285.832592 157.772 
L 286.077245 148.961853 
L 286.321898 150.056092 
L 286.566551 152.373375 
L 286.811204 149.170995 
L 287.055857 148.962729 
L 287.30051 143.336899 
L 287.545163 143.913168 
L 287.789816 142.299092 
L 288.034469 147.860626 
L 288.523775 146.695863 
L 288.768428 140.709912 
L 289.013081 140.633508 
L 289.257734 139.432849 
L 289.502387 139.837507 
L 289.74704 141.219725 
L 289.991693 147.739957 
L 290.236346 144.525936 
L 290.480999 149.960436 
L 291.214958 143.835441 
L 291.459611 135.222504 
L 291.704264 133.085709 
L 291.948917 135.859838 
L 292.19357 136.106686 
L 292.438223 134.322633 
L 292.92753 136.536571 
L 293.172183 139.052602 
L 293.416836 142.740034 
L 293.906142 142.895625 
L 294.150795 145.359332 
L 294.395448 134.396331 
L 294.640101 155.960169 
L 294.884754 159.832002 
L 295.129407 156.001086 
L 295.37406 159.285457 
L 295.618713 161.035172 
L 296.108019 170.523064 
L 296.597325 176.562059 
L 296.841978 178.561853 
L 297.086631 168.483851 
L 297.331284 164.683186 
L 297.82059 167.666185 
L 298.065243 166.038093 
L 298.309896 165.722238 
L 298.554549 158.48239 
L 299.043855 155.771077 
L 299.288508 146.724225 
L 299.533161 156.278242 
L 299.777814 158.797738 
L 300.022467 159.020837 
L 300.26712 161.228021 
L 300.511773 159.988313 
L 301.001079 166.830512 
L 301.245732 166.525598 
L 301.490385 172.133325 
L 301.735038 173.325613 
L 301.979691 176.888795 
L 302.224344 176.433409 
L 302.468997 170.904071 
L 302.71365 174.760915 
L 302.958303 170.207774 
L 303.202956 174.389154 
L 303.447609 175.411311 
L 303.692262 173.479978 
L 304.181568 182.16163 
L 304.670874 172.801902 
L 304.915527 171.987895 
L 305.16018 172.014622 
L 305.404833 175.82356 
L 305.649486 176.414877 
L 305.894139 174.116651 
L 306.138792 178.626869 
L 306.383445 169.652216 
L 306.872751 173.127256 
L 307.117404 172.498701 
L 307.362057 175.154613 
L 307.60671 172.728262 
L 307.851363 177.064144 
L 308.096016 177.721275 
L 308.340669 176.737233 
L 308.585322 177.325007 
L 308.829975 178.214016 
L 309.074628 173.466469 
L 309.319281 171.628807 
L 309.563934 171.656079 
L 309.808587 179.290911 
L 310.05324 174.494465 
L 310.297893 177.247824 
L 310.542546 175.503793 
L 310.787199 175.152589 
L 311.031852 169.232803 
L 311.521158 170.981701 
L 311.765811 170.97444 
L 312.010464 168.584179 
L 312.255117 168.3749 
L 312.49977 162.009792 
L 312.744423 161.442107 
L 312.989076 162.003661 
L 313.478382 155.91057 
L 313.723035 160.654087 
L 313.967688 161.036476 
L 314.212341 163.407466 
L 314.456994 161.986141 
L 314.701647 161.519699 
L 314.9463 161.473642 
L 315.190953 158.998081 
L 315.435607 164.171309 
L 315.68026 157.066554 
L 315.924913 155.781374 
L 316.169566 141.178749 
L 316.414219 141.655879 
L 316.658872 143.441723 
L 316.903525 149.789292 
L 317.148178 147.81529 
L 317.392831 150.744466 
L 317.637484 150.287639 
L 317.882137 144.754934 
L 318.12679 146.624131 
L 318.371443 146.645232 
L 318.616096 144.75034 
L 318.860749 132.315578 
L 319.105402 133.476623 
L 319.594708 141.655295 
L 319.839361 139.700526 
L 320.084014 143.315038 
L 320.328667 150.214992 
L 320.57332 150.13818 
L 320.817973 148.644461 
L 321.062626 148.126434 
L 321.307279 148.20348 
L 321.796585 152.857707 
L 322.041238 151.070618 
L 322.285891 156.50395 
L 322.530544 158.692563 
L 322.775197 159.616748 
L 323.01985 158.692836 
L 323.264503 158.998432 
L 323.509156 158.633153 
L 323.753809 157.806532 
L 323.998462 158.946068 
L 324.243115 157.07617 
L 324.487768 151.703124 
L 324.977074 161.849101 
L 325.221727 159.171367 
L 325.46638 153.295224 
L 325.955686 160.873605 
L 326.200339 167.010105 
L 326.444992 167.672414 
L 326.689645 168.815921 
L 326.934298 163.751818 
L 327.178951 164.588756 
L 327.423604 167.540396 
L 327.668257 174.142755 
L 327.91291 174.587006 
L 328.157563 176.130772 
L 328.646869 170.027033 
L 328.891522 170.599604 
L 329.136175 172.758123 
L 329.380828 171.298684 
L 329.870134 173.746097 
L 330.114787 172.785181 
L 330.604093 166.757262 
L 330.848746 169.549105 
L 331.093399 174.320887 
L 331.338052 176.336974 
L 331.582705 173.030899 
L 331.827358 171.834698 
L 332.072011 166.540625 
L 332.316664 168.588967 
L 332.561317 164.50332 
L 332.80597 167.654933 
L 333.050623 163.890007 
L 333.295276 166.031124 
L 333.539929 171.088802 
L 334.029235 173.935111 
L 334.273888 171.853833 
L 334.763194 174.964723 
L 335.007847 174.057494 
L 335.741806 170.525458 
L 335.986459 172.804763 
L 336.720418 156.158994 
L 336.965071 157.590928 
L 337.209724 156.40187 
L 337.454377 152.509715 
L 338.188337 157.517191 
L 338.43299 157.036032 
L 338.677643 157.79859 
L 338.922296 158.175451 
L 339.166949 161.489429 
L 339.411602 158.389537 
L 339.656255 158.682538 
L 339.900908 157.995644 
L 340.145561 159.67096 
L 340.390214 160.307438 
L 340.634867 159.726458 
L 340.87952 159.557629 
L 341.124173 161.060711 
L 341.368826 161.221169 
L 341.858132 155.832881 
L 342.102785 155.616206 
L 342.347438 151.172522 
L 342.592091 151.138203 
L 342.836744 147.997628 
L 343.081397 147.569727 
L 343.32605 149.441669 
L 343.815356 146.522207 
L 344.060009 146.514401 
L 344.549315 145.401164 
L 344.793968 146.928578 
L 345.038621 158.019684 
L 345.283274 161.466829 
L 345.77258 159.192254 
L 346.017233 160.457014 
L 346.261886 160.55923 
L 346.506539 160.959761 
L 346.751192 160.928849 
L 347.485151 161.88595 
L 347.729804 161.467102 
L 347.974457 161.89469 
L 348.21911 163.094512 
L 348.463763 157.464049 
L 348.708416 157.519546 
L 348.953069 157.852394 
L 349.197722 163.931567 
L 349.442375 166.459199 
L 349.687028 166.655416 
L 349.931681 168.041916 
L 350.176334 167.293626 
L 350.66564 165.038906 
L 350.910293 162.787534 
L 351.154946 162.519547 
L 351.399599 159.353043 
L 351.644252 158.882687 
L 351.888905 161.536089 
L 352.133558 160.856981 
L 352.378211 162.181754 
L 352.622864 159.742225 
L 352.867517 161.389238 
L 353.11217 160.575834 
L 353.356823 162.017598 
L 353.601476 161.154985 
L 353.846129 159.876423 
L 354.090782 155.772108 
L 354.335435 154.760639 
L 354.580088 155.073262 
L 354.824741 152.370864 
L 355.069394 143.62408 
L 355.314047 144.31876 
L 355.5587 142.627891 
L 355.803353 152.565504 
L 356.048006 152.956186 
L 356.781965 157.413612 
L 357.026618 155.947905 
L 357.271271 156.533752 
L 357.515924 149.34833 
L 357.760577 148.983266 
L 358.00523 145.07875 
L 358.249883 144.775334 
L 358.494536 145.028956 
L 358.739189 139.411398 
L 359.228495 149.821878 
L 359.473148 141.903719 
L 359.717801 137.995057 
L 359.962454 138.052948 
L 360.207107 139.376379 
L 360.451761 137.720256 
L 360.696414 139.526539 
L 360.941067 140.244754 
L 361.18572 144.981439 
L 361.430373 143.843694 
L 361.675026 143.366545 
L 361.919679 143.475204 
L 362.164332 145.186104 
L 362.408985 143.241496 
L 362.653638 145.617138 
L 362.898291 151.550472 
L 363.387597 153.859892 
L 363.63225 155.343176 
L 364.121556 161.052652 
L 364.366209 157.284261 
L 364.610862 156.061703 
L 364.855515 153.05918 
L 365.100168 153.788452 
L 365.344821 155.229418 
L 365.589474 155.169618 
L 365.834127 158.433822 
L 366.323433 153.177085 
L 366.568086 154.176622 
L 366.812739 152.702759 
L 367.057392 147.893738 
L 367.302045 150.700356 
L 367.546698 151.044728 
L 368.280657 144.376166 
L 368.52531 144.108859 
L 368.769963 142.016018 
L 369.014616 142.158353 
L 369.503922 138.79205 
L 369.748575 138.580903 
L 369.993228 136.134892 
L 370.237881 128.975651 
L 370.482534 130.901767 
L 370.727187 125.146604 
L 370.97184 125.835757 
L 371.216493 99.890214 
L 371.461146 93.139155 
L 371.705799 95.05838 
L 371.950452 99.374406 
L 372.195105 92.781819 
L 372.439758 94.545647 
L 372.684411 93.232319 
L 372.929064 90.115492 
L 373.173717 89.404362 
L 373.41837 98.306914 
L 373.663023 97.398536 
L 373.907676 97.673589 
L 374.396982 94.736783 
L 374.641635 100.328334 
L 374.886288 100.487877 
L 375.130941 98.293696 
L 375.375594 94.335726 
L 375.620247 95.650728 
L 376.109553 94.752531 
L 376.354206 101.799745 
L 376.598859 101.556654 
L 377.088165 91.804201 
L 377.332818 85.917293 
L 377.577471 94.588453 
L 377.822124 93.304986 
L 378.066777 85.083781 
L 378.31143 89.478586 
L 378.800736 79.238083 
L 379.045389 80.419431 
L 379.290042 79.593375 
L 379.534695 82.016456 
L 379.779348 77.517956 
L 380.024001 78.568435 
L 380.268654 78.932214 
L 380.513307 77.809127 
L 380.75796 75.698085 
L 381.002613 82.652096 
L 381.247266 80.703478 
L 381.491919 76.317102 
L 381.736572 74.708651 
L 381.981225 66.397728 
L 382.225878 65.20289 
L 382.470531 66.789169 
L 382.715184 70.150391 
L 382.959838 69.221827 
L 383.204491 66.631125 
L 383.449144 60.664076 
L 383.693797 47.198729 
L 383.93845 49.616982 
L 384.183103 50.797319 
L 384.427756 47.487409 
L 384.672409 34.414125 
L 384.917062 37.28757 
L 385.161715 38.674712 
L 385.406368 44.687701 
L 385.651021 45.281023 
L 385.895674 43.219191 
L 386.38498 45.562072 
L 386.629633 49.172692 
L 386.874286 77.327793 
L 387.118939 78.227801 
L 387.363592 69.345436 
L 387.608245 69.18381 
L 387.852898 73.022901 
L 387.852898 73.022901 
" style="fill:none;stroke:#1f77b4;stroke-linecap:square;stroke-width:1.5;"/>
   </g>
   <g id="line2d_34">
    <path clip-path="url(#p20d2d735d7)" d="M 63.198352 228.239497 
L 63.443005 229.221801 
L 63.687658 225.751844 
L 63.932311 227.295464 
L 64.176964 223.710692 
L 64.421617 218.480242 
L 64.910923 215.507815 
L 65.155576 215.928803 
L 65.400229 215.775717 
L 66.134188 217.000407 
L 66.378841 212.458846 
L 66.623494 212.050615 
L 66.868147 215.967075 
L 67.1128 225.547729 
L 67.357453 226.31316 
L 67.602106 236.148958 
L 67.846759 235.345255 
L 68.091412 233.839906 
L 68.336066 229.094229 
L 68.580719 238.68764 
L 68.825372 240.078175 
L 69.070025 240.805335 
L 69.314678 236.888876 
L 69.559331 240.167475 
L 69.803984 239.146899 
L 70.048637 243.165416 
L 70.29329 243.713975 
L 70.537943 242.884758 
L 70.782596 246.354715 
L 71.027249 242.859243 
L 71.271902 235.472827 
L 71.761208 240.103689 
L 72.005861 237.360892 
L 72.250514 241.022207 
L 72.495167 241.226322 
L 72.73982 238.585583 
L 72.984473 239.427558 
L 73.229126 239.848545 
L 73.718432 233.852663 
L 73.963085 239.108628 
L 74.452391 240.001631 
L 74.941697 237.284349 
L 75.18635 237.169534 
L 75.431003 247.120147 
L 76.164962 241.085993 
L 76.409615 237.769122 
L 76.654268 238.292167 
L 76.898921 236.455131 
L 77.143574 238.585583 
L 77.388227 239.606158 
L 77.877533 236.27653 
L 78.122186 237.55225 
L 78.366839 237.526735 
L 78.611492 237.743608 
L 78.856145 246.813974 
L 79.100798 246.852246 
L 79.590104 250.551832 
L 79.834757 247.821792 
L 80.324063 250.679404 
L 80.568716 250.641133 
L 80.813369 249.531257 
L 81.302675 263.602444 
L 81.547328 263.270757 
L 81.791981 264.737834 
L 82.036634 265.069521 
L 82.281287 262.990098 
L 82.52594 264.023431 
L 82.770593 260.221787 
L 83.259899 262.39051 
L 83.504552 260.744832 
L 83.749205 256.675286 
L 83.993858 260.106972 
L 84.238511 260.630017 
L 84.483164 267.85059 
L 84.727817 270.555115 
L 84.97247 269.406968 
L 85.217123 268.973223 
L 85.951082 260.38763 
L 86.195735 261.459235 
L 86.440388 258.716438 
L 86.685041 260.170758 
L 87.174347 254.659649 
L 87.419 255.603682 
L 87.663653 257.058002 
L 87.908306 259.520141 
L 88.152959 253.549773 
L 88.397612 256.126727 
L 88.642265 256.675286 
L 88.886918 255.029608 
L 89.131571 250.143602 
L 89.376224 249.046483 
L 89.620877 249.467471 
L 89.86553 252.478169 
L 90.110183 254.009032 
L 90.354836 249.862944 
L 90.599489 241.927968 
L 90.844143 238.853484 
L 91.088796 239.274471 
L 91.333449 240.524676 
L 91.822755 244.645251 
L 92.067408 242.846486 
L 92.556714 244.811094 
L 92.801367 245.295868 
L 93.04602 245.181053 
L 93.290673 240.869121 
L 93.535326 243.344017 
L 94.024632 244.811094 
L 94.269285 244.415621 
L 94.513938 246.214386 
L 94.758591 260.030429 
L 95.003244 257.47899 
L 95.247897 260.158001 
L 95.49255 259.405326 
L 95.737203 260.030429 
L 95.981856 261.102033 
L 96.226509 260.61726 
L 96.715815 262.645654 
L 96.960468 265.375694 
L 97.205121 270.134128 
L 97.694427 269.202853 
L 97.93908 270.695444 
L 98.183733 268.501207 
L 98.428386 268.98598 
L 98.917692 264.89092 
L 99.162345 267.825075 
L 99.406998 266.409027 
L 99.651651 268.246063 
L 99.896304 267.62096 
L 100.140957 269.151824 
L 100.38561 268.883923 
L 100.630263 271.027132 
L 100.874916 271.154704 
L 101.364222 274.433303 
L 101.608875 274.318488 
L 101.853528 275.504907 
L 102.098181 273.132069 
L 102.342834 273.361698 
L 102.587487 272.634538 
L 102.83214 274.114373 
L 103.076793 273.17034 
L 103.321446 270.542358 
L 103.566099 271.090918 
L 103.810752 271.920135 
L 104.055405 270.555115 
L 104.300058 273.31067 
L 104.544711 274.331245 
L 104.789364 276.334125 
L 105.034017 275.72178 
L 105.27867 274.701204 
L 105.523323 268.067462 
L 105.767976 269.738655 
L 106.012629 267.365816 
L 106.257282 269.981041 
L 106.501935 267.786804 
L 106.991241 272.660053 
L 107.235894 272.711081 
L 107.480547 273.693385 
L 107.7252 270.89956 
L 107.969853 270.593387 
L 108.214506 265.171579 
L 108.459159 274.509846 
L 108.948465 273.450999 
L 109.193118 274.713961 
L 109.437771 274.53536 
L 109.682424 275.160463 
L 109.927077 271.154704 
L 110.17173 269.049766 
L 110.416383 264.444419 
L 110.905689 261.204091 
L 111.150342 264.151003 
L 111.394995 264.533719 
L 111.639648 263.627958 
L 111.884301 264.725077 
L 112.128954 262.135366 
L 112.373607 254.774464 
L 112.61826 256.637015 
L 112.862913 261.599564 
L 113.107566 263.194213 
L 113.35222 259.928371 
L 113.596873 258.869524 
L 113.841526 259.800799 
L 114.086179 258.244421 
L 114.330832 259.685984 
L 114.820138 260.425902 
L 115.064791 261.841951 
L 115.554097 251.993395 
L 115.79875 251.585165 
L 116.043403 256.126727 
L 116.288056 258.576108 
L 116.532709 255.833311 
L 117.022015 259.532898 
L 117.266668 260.119729 
L 117.755974 264.036188 
L 118.000627 263.806559 
L 118.24528 268.297092 
L 118.489933 266.766228 
L 118.734586 263.411086 
L 119.223892 262.288452 
L 119.957851 269.151824 
L 120.202504 266.217669 
L 120.447157 267.518903 
L 120.69181 264.725077 
L 120.936463 263.781044 
L 121.181116 259.124668 
L 121.425769 259.418083 
L 121.915075 248.140722 
L 122.404381 241.111507 
L 122.649034 241.264594 
L 122.893687 242.629614 
L 123.13834 242.846486 
L 123.382993 238.343196 
L 123.627646 222.422216 
L 124.850911 210.838682 
L 125.095564 204.753499 
L 125.340217 212.16543 
L 126.074176 209.805349 
L 126.318829 206.679836 
L 126.563482 208.542387 
L 126.808135 202.418933 
L 127.297441 210.851439 
L 127.542094 211.208641 
L 127.786747 210.736624 
L 128.0314 210.80041 
L 128.276053 209.486419 
L 128.520706 204.957615 
L 128.765359 206.105762 
L 129.010012 205.620989 
L 129.254665 210.596295 
L 129.499318 205.672018 
L 129.743971 204.676956 
L 129.988624 210.07325 
L 130.233277 209.25679 
L 130.722583 213.313578 
L 130.967236 209.894649 
L 131.211889 208.733745 
L 131.456542 203.605352 
L 131.701195 195.045273 
L 132.190501 201.002884 
L 132.435154 201.06667 
L 132.679807 199.510292 
L 133.169113 194.547743 
L 133.413766 196.397536 
L 133.658419 192.55762 
L 134.147725 190.746098 
L 134.392378 186.153508 
L 134.637031 186.714825 
L 134.881684 185.00536 
L 135.126337 180.591371 
L 135.37099 178.932935 
L 135.615643 182.581493 
L 135.860297 180.132112 
L 136.10495 181.994662 
L 136.349603 193.208237 
L 136.594256 196.027578 
L 136.838909 187.582314 
L 137.083562 185.362562 
L 137.572868 189.700008 
L 137.817521 191.358444 
L 138.062174 186.727582 
L 138.306827 171.316889 
L 138.796133 180.680671 
L 139.040786 185.14569 
L 139.285439 177.146928 
L 139.530092 179.672853 
L 139.774745 186.357623 
L 140.264051 172.567094 
L 140.508704 177.835816 
L 140.753357 178.779849 
L 141.242663 187.199598 
L 141.731969 194.994245 
L 141.976622 190.223053 
L 142.221275 189.572436 
L 142.465928 191.065028 
L 142.710581 187.811943 
L 143.199887 175.883965 
L 143.44454 175.195077 
L 143.689193 174.876147 
L 143.933846 180.438284 
L 144.423152 181.293016 
L 144.667805 183.117295 
L 144.912458 174.990962 
L 145.157111 175.04199 
L 145.646417 167.80866 
L 145.89107 169.862569 
L 146.135723 168.318948 
L 146.380376 169.467096 
L 146.625029 167.744874 
L 146.869682 163.675329 
L 147.114335 153.431301 
L 147.358988 161.965865 
L 147.603641 164.185617 
L 147.848294 164.517304 
L 148.092947 167.362159 
L 148.3376 168.229648 
L 148.582253 164.198374 
L 148.826906 165.601666 
L 149.071559 161.812778 
L 149.316212 163.165041 
L 149.560865 167.910718 
L 149.805518 169.569153 
L 150.050171 161.289733 
L 150.294824 161.009075 
L 150.539477 156.046526 
L 150.78413 153.354758 
L 151.028783 159.363397 
L 151.273436 157.641175 
L 151.762742 151.058462 
L 152.007395 159.057224 
L 152.252048 153.775745 
L 152.496701 164.823477 
L 152.741354 162.437881 
L 152.986007 165.461336 
L 153.23066 162.272037 
L 153.475313 165.920595 
L 153.964619 160.447758 
L 154.209272 174.289316 
L 154.698578 180.540342 
L 154.943231 173.447341 
L 155.187884 181.280259 
L 155.432537 177.823059 
L 155.921843 190.950214 
L 156.166496 184.1889 
L 156.411149 188.934577 
L 156.655802 185.171204 
L 156.900455 177.402072 
L 157.389761 170.832116 
L 157.634414 169.862569 
L 157.879067 166.048167 
L 158.12372 169.31401 
L 158.368374 161.264219 
L 158.613027 161.519363 
L 158.85768 161.12389 
L 159.102333 162.705782 
L 159.346986 162.871626 
L 159.591639 165.907838 
L 159.836292 162.399609 
L 160.080945 154.719778 
L 160.325598 164.912777 
L 160.570251 166.418126 
L 161.059557 160.269158 
L 161.30421 147.422662 
L 161.793516 153.903317 
L 162.038169 161.634178 
L 162.282822 160.766688 
L 162.772128 178.103717 
L 163.016781 176.738697 
L 163.261434 173.638699 
L 163.75074 182.071205 
L 163.995393 181.012358 
L 164.484699 183.895484 
L 164.729352 188.909062 
L 164.974005 190.337868 
L 165.218658 190.771613 
L 165.463311 188.717704 
L 165.707964 179.902482 
L 165.952617 178.256804 
L 166.19727 182.109477 
L 166.686576 199.893008 
L 167.175882 181.816061 
L 167.420535 190.37614 
L 167.665188 191.945275 
L 167.909841 186.829639 
L 168.399147 182.390135 
L 168.6438 184.214414 
L 169.133106 175.016476 
L 169.377759 179.698367 
L 169.622412 179.188079 
L 169.867065 175.144048 
L 170.111718 190.427169 
L 170.356371 185.043632 
L 170.601024 186.702067 
L 170.845677 180.527585 
L 171.09033 178.971207 
L 171.334983 179.200836 
L 171.579636 181.624703 
L 171.824289 189.993424 
L 172.068942 191.128814 
L 172.313595 187.977787 
L 172.558248 179.009478 
L 172.802901 183.818941 
L 173.047554 183.933756 
L 173.53686 185.528405 
L 173.781513 181.854333 
L 174.026166 180.872029 
L 174.270819 173.791785 
L 174.515472 174.353102 
L 174.760125 169.122652 
L 175.004778 166.966686 
L 175.249431 170.985202 
L 175.494084 169.288495 
L 175.738737 171.444461 
L 175.98339 169.607425 
L 176.228043 174.174501 
L 176.472696 174.54446 
L 176.717349 170.666272 
L 176.962002 163.114012 
L 177.206655 164.070802 
L 177.451308 158.266278 
L 177.695961 157.794262 
L 177.940614 158.470393 
L 178.185267 155.829654 
L 178.42992 157.322246 
L 178.674573 155.612781 
L 178.919226 157.577389 
L 179.163879 160.498787 
L 179.408532 160.358458 
L 180.142491 147.652291 
L 180.387144 148.609081 
L 180.631798 147.014431 
L 180.876451 144.65435 
L 181.121104 138.951884 
L 181.365757 140.635833 
L 181.61041 139.053941 
L 181.855063 143.136244 
L 182.099716 150.407845 
L 182.344369 147.039946 
L 182.589022 149.106611 
L 183.078328 142.47287 
L 183.322981 140.750648 
L 183.567634 141.324722 
L 183.812287 144.526778 
L 184.05694 139.092213 
L 184.301593 130.736249 
L 184.546246 129.830489 
L 184.790899 127.674522 
L 185.035552 122.380286 
L 185.280205 94.02104 
L 185.524858 94.914044 
L 185.769511 102.313217 
L 186.014164 103.423093 
L 186.50347 112.0342 
L 186.748123 103.716509 
L 186.992776 107.964655 
L 187.237429 108.513214 
L 187.482082 110.592637 
L 187.726735 108.577 
L 187.971388 104.890171 
L 188.216041 107.21198 
L 188.460694 104.111982 
L 188.705347 102.849019 
L 188.95 103.780295 
L 189.194653 103.282764 
L 189.439306 104.596755 
L 189.683959 103.563422 
L 190.173265 109.725148 
L 190.417918 106.39552 
L 190.907224 108.104984 
L 191.151877 110.209921 
L 191.39653 109.304161 
L 191.641183 96.189763 
L 191.885836 92.809106 
L 192.130489 96.955195 
L 192.375142 93.765896 
L 192.619795 95.347788 
L 192.864448 100.744082 
L 193.353754 102.287703 
L 193.598407 104.915685 
L 193.84306 114.139138 
L 194.332366 103.486879 
L 194.577019 91.533387 
L 194.821672 96.02392 
L 195.066325 108.870416 
L 195.310978 108.959716 
L 195.555631 99.80005 
L 195.800284 105.43873 
L 196.28959 101.713629 
L 196.534243 104.571241 
L 196.778896 112.480702 
L 197.268202 106.842022 
L 197.512855 105.885232 
L 197.757508 107.888112 
L 198.002161 105.451487 
L 198.246814 111.243254 
L 198.491467 123.553948 
L 198.73612 128.235839 
L 198.980773 129.014028 
L 199.470079 113.514035 
L 199.714732 112.863418 
L 200.204038 99.315276 
L 200.693344 106.102104 
L 200.937997 99.060132 
L 201.18265 102.415275 
L 201.427303 90.88277 
L 201.671956 96.508693 
L 201.916609 80.613227 
L 202.161262 78.367961 
L 202.405915 81.212815 
L 202.650568 74.298415 
L 202.895221 79.732981 
L 203.139875 80.753556 
L 203.384528 81.212815 
L 203.629181 67.128871 
L 203.873834 63.607885 
L 204.118487 64.271259 
L 204.36314 71.581133 
L 204.607793 64.424346 
L 204.852446 71.504589 
L 205.097099 73.290597 
L 205.586405 78.852734 
L 205.831058 70.037512 
L 206.075711 71.810762 
L 206.320364 71.262203 
L 206.565017 69.106237 
L 206.80967 70.279899 
L 207.054323 81.123515 
L 207.298976 83.509111 
L 207.543629 87.910343 
L 207.788282 88.522689 
L 208.032935 86.086064 
L 208.277588 92.528448 
L 208.522241 89.683593 
L 208.766894 95.781533 
L 209.011547 90.538326 
L 209.2562 90.423511 
L 209.500853 94.901287 
L 209.745506 102.364246 
L 209.990159 97.401697 
L 210.234812 87.157669 
L 210.479465 84.159728 
L 210.724118 83.687711 
L 210.968771 85.524748 
L 211.213424 88.305816 
L 211.458077 83.33051 
L 211.70273 89.28812 
L 211.947383 89.543264 
L 212.192036 92.145732 
L 212.681342 102.593876 
L 212.925995 102.083588 
L 213.415301 90.56384 
L 213.659954 93.510752 
L 213.904607 101.177827 
L 214.14926 102.823505 
L 214.393913 106.370006 
L 214.638566 107.454367 
L 214.883219 102.070831 
L 215.127872 101.853958 
L 215.372525 91.750259 
L 215.617178 89.709108 
L 215.861831 85.320632 
L 216.106484 90.24491 
L 216.351137 92.707049 
L 216.59579 101.917744 
L 216.840443 101.815687 
L 217.085096 104.966714 
L 217.574402 105.936261 
L 217.819055 105.834203 
L 218.063708 106.39552 
L 218.308361 112.799632 
L 218.797667 103.02762 
L 219.04232 109.112803 
L 219.286973 121.423497 
L 219.531626 112.35313 
L 219.776279 116.588519 
L 220.020932 118.706214 
L 220.265585 118.591399 
L 220.510238 115.542429 
L 220.754891 119.624732 
L 220.999544 117.545309 
L 221.244197 123.324319 
L 221.48885 120.326378 
L 221.733503 123.04366 
L 222.467462 118.017325 
L 222.712115 109.674119 
L 222.956768 110.847781 
L 223.446074 114.572882 
L 223.690727 122.239957 
L 223.93538 123.502919 
L 224.424686 121.066295 
L 224.669339 123.668763 
L 224.913992 113.858479 
L 225.158645 109.240375 
L 225.403298 111.638727 
L 225.647952 106.421034 
L 225.892605 110.477823 
L 226.137258 117.953539 
L 226.381911 120.887694 
L 226.626564 118.476584 
L 226.871217 114.381524 
L 227.11587 117.111564 
L 227.360523 113.705393 
L 227.605176 116.971235 
L 227.849829 123.235018 
L 228.094482 122.890574 
L 228.583788 104.265068 
L 228.828441 108.959716 
L 229.073094 108.181527 
L 229.317747 110.08235 
L 229.807053 119.025144 
L 230.051706 117.787696 
L 230.296359 112.697575 
L 230.785665 110.771238 
L 231.030318 112.161772 
L 231.519624 101.726386 
L 231.764277 103.34655 
L 232.00893 103.588937 
L 232.253583 127.470407 
L 232.742889 123.107446 
L 232.987542 134.537894 
L 233.232195 140.521019 
L 233.476848 135.953943 
L 233.721501 136.068757 
L 233.966154 139.5132 
L 234.45546 141.630895 
L 234.700113 140.24036 
L 234.944766 136.78316 
L 235.189419 138.900855 
L 235.678725 133.55559 
L 236.168031 122.979874 
L 236.412684 127.585222 
L 236.657337 125.977815 
L 236.90199 127.483165 
L 237.146643 131.14448 
L 237.391296 125.837486 
L 237.635949 123.541191 
L 238.125255 122.3165 
L 238.369908 120.313621 
L 238.614561 123.809092 
L 238.859214 124.561767 
L 239.34852 119.190987 
L 239.593173 118.13214 
L 239.837826 120.517736 
L 240.082479 121.449011 
L 240.327132 115.695516 
L 240.571785 114.177409 
L 240.816438 113.960537 
L 241.061091 115.529672 
L 241.305744 112.544488 
L 241.550397 114.662183 
L 241.79505 118.195926 
L 242.284356 127.189749 
L 242.529009 129.001271 
L 242.773662 129.473287 
L 243.018315 131.616496 
L 243.262968 141.822253 
L 243.507621 143.723075 
L 243.752274 147.499205 
L 243.996927 143.684803 
L 244.24158 143.455174 
L 244.486233 136.413202 
L 244.730886 138.951884 
L 244.975539 144.947766 
L 245.220192 140.457233 
L 245.464845 129.817731 
L 245.709498 128.325139 
L 246.443457 118.093868 
L 246.68811 119.854361 
L 246.932763 130.787278 
L 247.177416 168.612364 
L 247.422069 166.086439 
L 247.666722 160.39673 
L 247.911375 162.705782 
L 248.156029 167.196315 
L 248.400682 165.690966 
L 248.889988 160.409487 
L 249.134641 158.342821 
L 249.379294 157.360517 
L 249.8686 177.810302 
L 250.113253 177.721002 
L 250.602559 169.377796 
L 250.847212 171.061745 
L 251.091865 175.169562 
L 251.581171 187.901244 
L 251.825824 202.993006 
L 252.070477 208.210699 
L 252.31513 201.309057 
L 252.559783 188.985605 
L 252.804436 188.896305 
L 253.293742 199.816465 
L 253.538395 193.973669 
L 253.783048 192.78725 
L 254.027701 196.716466 
L 254.517007 191.473259 
L 255.250966 202.75062 
L 255.495619 202.584776 
L 255.740272 191.167086 
L 256.718884 209.320576 
L 256.963537 214.104524 
L 257.20819 213.823866 
L 257.452843 211.591356 
L 257.697496 213.224277 
L 257.942149 208.606173 
L 258.186802 207.674897 
L 258.431455 207.521811 
L 258.676108 193.51441 
L 258.920761 192.098361 
L 259.165414 191.868732 
L 259.65472 202.763377 
L 259.899373 198.987247 
L 260.144026 199.178605 
L 260.388679 196.078606 
L 260.633332 197.966671 
L 260.877985 191.307415 
L 261.122638 190.337868 
L 261.367291 185.64322 
L 261.611944 187.518528 
L 261.856597 192.085604 
L 262.345903 181.918119 
L 262.835209 161.174919 
L 263.079862 162.858868 
L 263.324515 167.387673 
L 263.569168 143.812375 
L 263.813821 133.96382 
L 264.058474 137.395506 
L 264.303127 130.481106 
L 264.792433 127.444893 
L 265.037086 135.469169 
L 265.526392 128.478226 
L 265.771045 130.200447 
L 266.015698 135.545712 
L 266.260351 129.46053 
L 266.505004 131.87164 
L 266.749657 121.793455 
L 266.99431 117.876996 
L 267.238963 119.293045 
L 267.483616 118.310741 
L 267.728269 121.028023 
L 267.972922 125.531314 
L 268.217575 120.709094 
L 268.462228 104.902928 
L 269.196187 118.285226 
L 269.44084 117.239136 
L 269.685493 116.932964 
L 270.174799 127.240778 
L 270.419452 127.814852 
L 270.664106 135.890157 
L 270.908759 135.622255 
L 271.153412 128.937485 
L 271.398065 128.669584 
L 271.642718 131.731311 
L 271.887371 138.135423 
L 272.132024 131.093451 
L 272.62133 132.254356 
L 272.865983 135.571227 
L 273.110636 137.01279 
L 273.355289 134.614437 
L 273.844595 141.809495 
L 274.089248 148.200851 
L 274.333901 143.939947 
L 274.578554 146.185214 
L 274.823207 160.524302 
L 275.06786 164.389732 
L 275.312513 165.62718 
L 275.557166 162.386852 
L 275.801819 171.151046 
L 276.046472 163.254342 
L 276.291125 173.855571 
L 276.535778 171.163803 
L 276.780431 172.490551 
L 277.025084 166.660513 
L 277.269737 164.606604 
L 277.51439 169.237466 
L 277.759043 169.824297 
L 278.003696 181.063387 
L 278.248349 182.760094 
L 278.493002 174.684789 
L 278.737655 177.4531 
L 278.982308 185.464619 
L 279.226961 187.684371 
L 279.471614 188.309474 
L 279.716267 197.558441 
L 279.96092 197.9284 
L 280.205573 203.503294 
L 280.450226 199.548564 
L 280.694879 202.827163 
L 280.939532 188.130873 
L 281.428838 174.353102 
L 281.673491 177.963388 
L 282.162797 167.795903 
L 282.40745 177.555158 
L 282.652103 175.348163 
L 282.896756 181.127173 
L 283.141409 161.251462 
L 283.386062 160.881503 
L 283.630715 161.736235 
L 283.875368 153.086857 
L 284.120021 157.245702 
L 284.364674 156.786443 
L 284.609327 155.191794 
L 284.85398 156.914015 
L 285.098633 162.514424 
L 285.343286 157.807019 
L 285.587939 158.342821 
L 285.832592 149.540356 
L 286.077245 150.765047 
L 286.321898 153.061342 
L 286.566551 149.451056 
L 286.811204 148.953525 
L 287.055857 143.238301 
L 287.30051 144.258877 
L 287.545163 142.625956 
L 287.789816 148.443237 
L 288.034469 147.142003 
L 288.279122 146.74653 
L 288.523775 140.78892 
L 288.768428 140.725134 
L 289.013081 139.462171 
L 289.257734 140.163817 
L 289.502387 141.898796 
L 289.74704 148.494266 
L 289.991693 144.641593 
L 290.236346 150.11443 
L 290.970305 143.901676 
L 291.214958 135.507441 
L 291.459611 133.287689 
L 291.704264 136.476988 
L 291.948917 136.834189 
L 292.19357 134.818552 
L 292.682876 137.089333 
L 293.172183 143.085215 
L 293.416836 142.817314 
L 293.661489 143.20003 
L 293.906142 145.662169 
L 294.150795 135.09921 
L 294.395448 154.732535 
L 294.640101 160.537059 
L 294.884754 156.811958 
L 295.37406 161.072861 
L 295.863366 170.934173 
L 296.352672 177.223471 
L 296.597325 179.175322 
L 296.841978 168.701664 
L 297.086631 164.772448 
L 297.575937 168.000018 
L 297.82059 166.03541 
L 298.065243 166.392612 
L 298.309896 158.559693 
L 298.799202 156.314427 
L 299.043855 146.950645 
L 299.288508 155.204551 
L 299.533161 157.768747 
L 299.777814 158.904138 
L 300.022467 161.328005 
L 300.26712 160.205372 
L 300.756426 167.744874 
L 301.001079 167.387673 
L 301.245732 173.396312 
L 301.490385 174.327587 
L 301.735038 177.784788 
L 301.979691 177.542401 
L 302.224344 171.81442 
L 302.468997 175.437464 
L 302.71365 170.525943 
L 302.958303 175.284377 
L 303.202956 176.024295 
L 303.447609 173.855571 
L 303.692262 179.979025 
L 303.936915 182.785608 
L 304.426221 173.230469 
L 304.670874 172.286436 
L 304.915527 172.235407 
L 305.16018 176.470796 
L 305.404833 176.866269 
L 305.649486 174.493431 
L 305.894139 179.111536 
L 306.138792 169.888083 
L 306.383445 172.503308 
L 306.628098 173.549399 
L 306.872751 172.669152 
L 307.117404 175.36092 
L 307.362057 172.745695 
L 307.60671 177.338286 
L 307.851363 178.027174 
L 308.096016 177.070385 
L 308.585322 178.537462 
L 308.829975 173.715242 
L 309.074628 171.839934 
L 309.319281 171.674091 
L 309.563934 179.36668 
L 309.808587 174.735818 
L 310.05324 177.899602 
L 310.297893 175.99878 
L 310.542546 175.59055 
L 310.787199 169.441582 
L 311.276505 171.788906 
L 311.521158 171.674091 
L 311.765811 169.007837 
L 312.010464 168.67615 
L 312.255117 162.335823 
L 312.49977 161.889322 
L 312.744423 162.616482 
L 313.233729 156.493028 
L 313.478382 161.187676 
L 313.723035 161.646935 
L 313.967688 164.198374 
L 314.212341 162.463395 
L 314.456994 161.672449 
L 314.701647 161.44282 
L 314.9463 159.146525 
L 315.190953 164.734176 
L 315.435607 157.743233 
L 315.68026 156.174098 
L 315.924913 141.783981 
L 316.169566 141.669166 
L 316.414219 143.774104 
L 316.658872 150.662989 
L 316.903525 148.073279 
L 317.148178 150.918133 
L 317.392831 150.560932 
L 317.637484 145.049823 
L 317.882137 146.950645 
L 318.12679 147.29509 
L 318.371443 145.215667 
L 318.616096 132.892216 
L 318.860749 133.632133 
L 319.350055 142.039125 
L 319.594708 139.525957 
L 319.839361 143.467931 
L 320.084014 150.497146 
L 320.328667 150.701261 
L 320.57332 148.825953 
L 320.817973 148.137065 
L 321.062626 148.098793 
L 321.551932 153.597144 
L 321.796585 151.441178 
L 322.041238 157.11813 
L 322.285891 159.197553 
L 322.530544 160.218129 
L 322.775197 159.069981 
L 323.01985 159.52924 
L 323.509156 158.189735 
L 323.753809 159.503726 
L 323.998462 157.475332 
L 324.243115 152.244882 
L 324.732421 162.501667 
L 324.977074 159.593026 
L 325.221727 153.865045 
L 325.711033 161.646935 
L 325.955686 167.655574 
L 326.200339 167.923475 
L 326.444992 169.033351 
L 326.689645 164.109074 
L 326.934298 164.925534 
L 327.178951 167.80866 
L 327.423604 174.429645 
L 327.668257 175.093019 
L 327.91291 176.649397 
L 328.402216 170.258042 
L 328.646869 170.934173 
L 328.891522 173.26874 
L 329.136175 171.597548 
L 329.625481 174.22553 
L 329.870134 173.192197 
L 330.35944 167.145286 
L 330.604093 169.990141 
L 330.848746 174.927176 
L 331.093399 176.72594 
L 331.338052 173.345283 
L 331.582705 172.260922 
L 331.827358 166.953928 
L 332.072011 168.969565 
L 332.316664 165.053106 
L 332.561317 168.03829 
L 332.80597 164.236646 
L 333.050623 166.316069 
L 333.295276 171.482733 
L 333.784582 174.148987 
L 334.029235 172.120593 
L 334.518541 175.169562 
L 334.763194 174.238287 
L 335.2525 171.788906 
L 335.497153 170.564215 
L 335.741806 173.230469 
L 336.475765 156.569571 
L 336.720418 157.960105 
L 336.965071 156.965044 
L 337.209724 152.946527 
L 337.454377 154.20949 
L 337.943684 157.832533 
L 338.188337 157.220188 
L 338.677643 158.330064 
L 338.922296 161.710721 
L 339.166949 158.48315 
L 339.411602 158.381093 
L 339.656255 157.66669 
L 339.900908 159.784384 
L 340.145561 160.868746 
L 340.634867 159.631298 
L 340.87952 161.225947 
L 341.124173 161.76175 
L 341.368826 159.503726 
L 341.613479 156.135826 
L 341.858132 155.676567 
L 342.102785 151.428421 
L 342.347438 151.428421 
L 342.592091 148.251879 
L 342.836744 147.843649 
L 343.081397 149.808257 
L 343.32605 148.774924 
L 343.570703 147.039946 
L 343.815356 146.74653 
L 344.304662 145.674926 
L 344.549315 147.422662 
L 344.793968 159.503726 
L 345.038621 162.310309 
L 345.527927 159.299611 
L 346.017233 161.264219 
L 346.261886 161.889322 
L 346.506539 161.328005 
L 346.751192 161.162161 
L 347.240498 162.603725 
L 347.485151 161.953108 
L 347.729804 162.476153 
L 347.974457 163.496728 
L 348.21911 157.717719 
L 348.463763 157.653933 
L 348.708416 158.279035 
L 348.953069 164.313189 
L 349.197722 166.660513 
L 349.442375 166.596727 
L 349.687028 168.318948 
L 350.176334 166.367097 
L 350.420987 165.257221 
L 350.66564 163.088498 
L 350.910293 162.884383 
L 351.154946 159.720598 
L 351.399599 159.465454 
L 351.644252 162.374095 
L 351.888905 161.787264 
L 352.133558 162.98644 
L 352.378211 160.71566 
L 352.622864 162.25928 
L 352.867517 161.493849 
L 353.11217 162.769568 
L 353.356823 161.876564 
L 353.601476 160.39673 
L 353.846129 156.135826 
L 354.090782 155.076979 
L 354.335435 155.791382 
L 354.580088 153.303729 
L 354.824741 144.424721 
L 355.069394 144.832951 
L 355.314047 143.314845 
L 355.5587 153.048585 
L 355.803353 153.265457 
L 356.292659 156.658871 
L 356.537312 157.539118 
L 356.781965 155.855168 
L 357.026618 156.569571 
L 357.271271 149.540356 
L 357.515924 148.787682 
L 357.760577 144.922251 
L 358.00523 144.628836 
L 358.249883 145.509082 
L 358.494536 139.768344 
L 358.983842 150.242002 
L 359.228495 142.166697 
L 359.473148 138.428839 
L 359.717801 138.288509 
L 359.962454 139.781101 
L 360.207107 138.097151 
L 360.451761 140.087274 
L 360.696414 140.737891 
L 360.941067 145.560111 
L 361.18572 144.080276 
L 361.430373 143.646532 
L 361.675026 144.01649 
L 361.919679 146.006613 
L 362.164332 143.735832 
L 362.408985 146.006613 
L 362.653638 151.97698 
L 363.387597 155.638296 
L 363.876903 161.149404 
L 364.121556 157.25846 
L 364.366209 156.084798 
L 364.610862 153.125128 
L 365.100168 155.714839 
L 365.344821 155.306609 
L 365.589474 158.955167 
L 366.07878 153.814017 
L 366.323433 154.796321 
L 366.568086 153.380272 
L 366.812739 148.455994 
L 367.057392 151.058462 
L 367.302045 151.555993 
L 367.791351 147.716077 
L 368.036004 144.718136 
L 368.280657 144.514021 
L 368.52531 142.434598 
L 368.769963 142.842828 
L 369.259269 139.4239 
L 369.503922 138.900855 
L 369.748575 136.528016 
L 369.993228 129.54983 
L 370.237881 131.590982 
L 370.482534 126.335017 
L 370.727187 126.551889 
L 370.97184 102.313217 
L 371.216493 94.212398 
L 371.461146 95.169188 
L 371.705799 99.812807 
L 371.950452 92.88565 
L 372.195105 94.595114 
L 372.439758 93.179065 
L 372.684411 90.257667 
L 372.929064 89.173306 
L 373.173717 99.034618 
L 373.41837 97.860956 
L 373.663023 97.605812 
L 373.907676 95.513632 
L 374.152329 94.480299 
L 374.396982 100.973712 
L 374.641635 101.432971 
L 374.886288 99.149433 
L 375.130941 94.518571 
L 375.375594 95.947377 
L 375.620247 96.11322 
L 375.8649 95.232974 
L 376.109553 102.325974 
L 376.354206 101.432971 
L 376.843512 92.043675 
L 377.088165 86.188122 
L 377.332818 95.551904 
L 377.577471 93.421452 
L 377.822124 85.499233 
L 378.066777 90.538326 
L 378.556083 79.860553 
L 378.800736 81.378659 
L 379.045389 80.204997 
L 379.290042 82.909522 
L 379.534695 77.985245 
L 379.779348 79.541623 
L 380.024001 79.401294 
L 380.268654 78.176603 
L 380.513307 76.071666 
L 380.75796 83.828041 
L 381.002613 81.659317 
L 381.247266 77.028455 
L 381.491919 75.165905 
L 381.736572 66.988542 
L 381.981225 65.738337 
L 382.225878 67.868789 
L 382.470531 71.734219 
L 382.715184 70.075784 
L 382.959838 66.988542 
L 383.204491 61.209532 
L 383.449144 48.20995 
L 383.693797 50.876204 
L 383.93845 52.139166 
L 384.183103 47.865506 
L 384.427756 34.929709 
L 384.672409 38.119008 
L 384.917062 39.84123 
L 385.161715 45.518182 
L 385.406368 45.033408 
L 385.651021 43.464273 
L 385.895674 46.181556 
L 386.140327 47.406247 
L 386.38498 50.493488 
L 386.629633 77.602529 
L 386.874286 81.365902 
L 387.118939 71.772491 
L 387.363592 69.871668 
L 387.608245 74.132572 
L 387.852898 74.834218 
L 387.852898 74.834218 
" style="fill:none;stroke:#ff7f0e;stroke-linecap:square;stroke-width:1.5;"/>
   </g>
   <g id="patch_3">
    <path d="M 46.965625 288.430125 
L 46.965625 22.318125 
" style="fill:none;stroke:#000000;stroke-linecap:square;stroke-linejoin:miter;stroke-width:0.8;"/>
   </g>
   <g id="patch_4">
    <path d="M 404.085625 288.430125 
L 404.085625 22.318125 
" style="fill:none;stroke:#000000;stroke-linecap:square;stroke-linejoin:miter;stroke-width:0.8;"/>
   </g>
   <g id="patch_5">
    <path d="M 46.965625 288.430125 
L 404.085625 288.430125 
" style="fill:none;stroke:#000000;stroke-linecap:square;stroke-linejoin:miter;stroke-width:0.8;"/>
   </g>
   <g id="patch_6">
    <path d="M 46.965625 22.318125 
L 404.085625 22.318125 
" style="fill:none;stroke:#000000;stroke-linecap:square;stroke-linejoin:miter;stroke-width:0.8;"/>
   </g>
   <g id="text_19">
    <!-- Training: BIDU -->
    <defs>
     <path d="M -0.296875 72.90625 
L 61.375 72.90625 
L 61.375 64.59375 
L 35.5 64.59375 
L 35.5 0 
L 25.59375 0 
L 25.59375 64.59375 
L -0.296875 64.59375 
z
" id="DejaVuSans-84"/>
     <path d="M 54.890625 33.015625 
L 54.890625 0 
L 45.90625 0 
L 45.90625 32.71875 
Q 45.90625 40.484375 42.875 44.328125 
Q 39.84375 48.1875 33.796875 48.1875 
Q 26.515625 48.1875 22.3125 43.546875 
Q 18.109375 38.921875 18.109375 30.90625 
L 18.109375 0 
L 9.078125 0 
L 9.078125 54.6875 
L 18.109375 54.6875 
L 18.109375 46.1875 
Q 21.34375 51.125 25.703125 53.5625 
Q 30.078125 56 35.796875 56 
Q 45.21875 56 50.046875 50.171875 
Q 54.890625 44.34375 54.890625 33.015625 
z
" id="DejaVuSans-110"/>
     <path d="M 45.40625 27.984375 
Q 45.40625 37.75 41.375 43.109375 
Q 37.359375 48.484375 30.078125 48.484375 
Q 22.859375 48.484375 18.828125 43.109375 
Q 14.796875 37.75 14.796875 27.984375 
Q 14.796875 18.265625 18.828125 12.890625 
Q 22.859375 7.515625 30.078125 7.515625 
Q 37.359375 7.515625 41.375 12.890625 
Q 45.40625 18.265625 45.40625 27.984375 
z
M 54.390625 6.78125 
Q 54.390625 -7.171875 48.1875 -13.984375 
Q 42 -20.796875 29.203125 -20.796875 
Q 24.46875 -20.796875 20.265625 -20.09375 
Q 16.0625 -19.390625 12.109375 -17.921875 
L 12.109375 -9.1875 
Q 16.0625 -11.328125 19.921875 -12.34375 
Q 23.78125 -13.375 27.78125 -13.375 
Q 36.625 -13.375 41.015625 -8.765625 
Q 45.40625 -4.15625 45.40625 5.171875 
L 45.40625 9.625 
Q 42.625 4.78125 38.28125 2.390625 
Q 33.9375 0 27.875 0 
Q 17.828125 0 11.671875 7.65625 
Q 5.515625 15.328125 5.515625 27.984375 
Q 5.515625 40.671875 11.671875 48.328125 
Q 17.828125 56 27.875 56 
Q 33.9375 56 38.28125 53.609375 
Q 42.625 51.21875 45.40625 46.390625 
L 45.40625 54.6875 
L 54.390625 54.6875 
z
" id="DejaVuSans-103"/>
     <path d="M 11.71875 12.40625 
L 22.015625 12.40625 
L 22.015625 0 
L 11.71875 0 
z
M 11.71875 51.703125 
L 22.015625 51.703125 
L 22.015625 39.3125 
L 11.71875 39.3125 
z
" id="DejaVuSans-58"/>
     <path d="M 19.671875 34.8125 
L 19.671875 8.109375 
L 35.5 8.109375 
Q 43.453125 8.109375 47.28125 11.40625 
Q 51.125 14.703125 51.125 21.484375 
Q 51.125 28.328125 47.28125 31.5625 
Q 43.453125 34.8125 35.5 34.8125 
z
M 19.671875 64.796875 
L 19.671875 42.828125 
L 34.28125 42.828125 
Q 41.5 42.828125 45.03125 45.53125 
Q 48.578125 48.25 48.578125 53.8125 
Q 48.578125 59.328125 45.03125 62.0625 
Q 41.5 64.796875 34.28125 64.796875 
z
M 9.8125 72.90625 
L 35.015625 72.90625 
Q 46.296875 72.90625 52.390625 68.21875 
Q 58.5 63.53125 58.5 54.890625 
Q 58.5 48.1875 55.375 44.234375 
Q 52.25 40.28125 46.1875 39.3125 
Q 53.46875 37.75 57.5 32.78125 
Q 61.53125 27.828125 61.53125 20.40625 
Q 61.53125 10.640625 54.890625 5.3125 
Q 48.25 0 35.984375 0 
L 9.8125 0 
z
" id="DejaVuSans-66"/>
     <path d="M 9.8125 72.90625 
L 19.671875 72.90625 
L 19.671875 0 
L 9.8125 0 
z
" id="DejaVuSans-73"/>
     <path d="M 8.6875 72.90625 
L 18.609375 72.90625 
L 18.609375 28.609375 
Q 18.609375 16.890625 22.84375 11.734375 
Q 27.09375 6.59375 36.625 6.59375 
Q 46.09375 6.59375 50.34375 11.734375 
Q 54.59375 16.890625 54.59375 28.609375 
L 54.59375 72.90625 
L 64.5 72.90625 
L 64.5 27.390625 
Q 64.5 13.140625 57.4375 5.859375 
Q 50.390625 -1.421875 36.625 -1.421875 
Q 22.796875 -1.421875 15.734375 5.859375 
Q 8.6875 13.140625 8.6875 27.390625 
z
" id="DejaVuSans-85"/>
    </defs>
    <g transform="translate(183.02875 16.318125)scale(0.12 -0.12)">
     <use xlink:href="#DejaVuSans-84"/>
     <use x="46.333984" xlink:href="#DejaVuSans-114"/>
     <use x="87.447266" xlink:href="#DejaVuSans-97"/>
     <use x="148.726562" xlink:href="#DejaVuSans-105"/>
     <use x="176.509766" xlink:href="#DejaVuSans-110"/>
     <use x="239.888672" xlink:href="#DejaVuSans-105"/>
     <use x="267.671875" xlink:href="#DejaVuSans-110"/>
     <use x="331.050781" xlink:href="#DejaVuSans-103"/>
     <use x="394.527344" xlink:href="#DejaVuSans-58"/>
     <use x="428.21875" xlink:href="#DejaVuSans-32"/>
     <use x="460.005859" xlink:href="#DejaVuSans-66"/>
     <use x="528.609375" xlink:href="#DejaVuSans-73"/>
     <use x="558.101562" xlink:href="#DejaVuSans-68"/>
     <use x="635.103516" xlink:href="#DejaVuSans-85"/>
    </g>
   </g>
   <g id="legend_1">
    <g id="patch_7">
     <path d="M 53.965625 59.674375 
L 137.69375 59.674375 
Q 139.69375 59.674375 139.69375 57.674375 
L 139.69375 29.318125 
Q 139.69375 27.318125 137.69375 27.318125 
L 53.965625 27.318125 
Q 51.965625 27.318125 51.965625 29.318125 
L 51.965625 57.674375 
Q 51.965625 59.674375 53.965625 59.674375 
z
" style="fill:#ffffff;opacity:0.8;stroke:#cccccc;stroke-linejoin:miter;"/>
    </g>
    <g id="line2d_35">
     <path d="M 55.965625 35.416562 
L 75.965625 35.416562 
" style="fill:none;stroke:#1f77b4;stroke-linecap:square;stroke-width:1.5;"/>
    </g>
    <g id="line2d_36"/>
    <g id="text_20">
     <!-- Predicted -->
     <defs>
      <path d="M 45.40625 46.390625 
L 45.40625 75.984375 
L 54.390625 75.984375 
L 54.390625 0 
L 45.40625 0 
L 45.40625 8.203125 
Q 42.578125 3.328125 38.25 0.953125 
Q 33.9375 -1.421875 27.875 -1.421875 
Q 17.96875 -1.421875 11.734375 6.484375 
Q 5.515625 14.40625 5.515625 27.296875 
Q 5.515625 40.1875 11.734375 48.09375 
Q 17.96875 56 27.875 56 
Q 33.9375 56 38.25 53.625 
Q 42.578125 51.265625 45.40625 46.390625 
z
M 14.796875 27.296875 
Q 14.796875 17.390625 18.875 11.75 
Q 22.953125 6.109375 30.078125 6.109375 
Q 37.203125 6.109375 41.296875 11.75 
Q 45.40625 17.390625 45.40625 27.296875 
Q 45.40625 37.203125 41.296875 42.84375 
Q 37.203125 48.484375 30.078125 48.484375 
Q 22.953125 48.484375 18.875 42.84375 
Q 14.796875 37.203125 14.796875 27.296875 
z
" id="DejaVuSans-100"/>
      <path d="M 18.3125 70.21875 
L 18.3125 54.6875 
L 36.8125 54.6875 
L 36.8125 47.703125 
L 18.3125 47.703125 
L 18.3125 18.015625 
Q 18.3125 11.328125 20.140625 9.421875 
Q 21.96875 7.515625 27.59375 7.515625 
L 36.8125 7.515625 
L 36.8125 0 
L 27.59375 0 
Q 17.1875 0 13.234375 3.875 
Q 9.28125 7.765625 9.28125 18.015625 
L 9.28125 47.703125 
L 2.6875 47.703125 
L 2.6875 54.6875 
L 9.28125 54.6875 
L 9.28125 70.21875 
z
" id="DejaVuSans-116"/>
     </defs>
     <g transform="translate(83.965625 38.916562)scale(0.1 -0.1)">
      <use xlink:href="#DejaVuSans-80"/>
      <use x="58.552734" xlink:href="#DejaVuSans-114"/>
      <use x="97.416016" xlink:href="#DejaVuSans-101"/>
      <use x="158.939453" xlink:href="#DejaVuSans-100"/>
      <use x="222.416016" xlink:href="#DejaVuSans-105"/>
      <use x="250.199219" xlink:href="#DejaVuSans-99"/>
      <use x="305.179688" xlink:href="#DejaVuSans-116"/>
      <use x="344.388672" xlink:href="#DejaVuSans-101"/>
      <use x="405.912109" xlink:href="#DejaVuSans-100"/>
     </g>
    </g>
    <g id="line2d_37">
     <path d="M 55.965625 50.094687 
L 75.965625 50.094687 
" style="fill:none;stroke:#ff7f0e;stroke-linecap:square;stroke-width:1.5;"/>
    </g>
    <g id="line2d_38"/>
    <g id="text_21">
     <!-- True value -->
     <defs>
      <path d="M 8.5 21.578125 
L 8.5 54.6875 
L 17.484375 54.6875 
L 17.484375 21.921875 
Q 17.484375 14.15625 20.5 10.265625 
Q 23.53125 6.390625 29.59375 6.390625 
Q 36.859375 6.390625 41.078125 11.03125 
Q 45.3125 15.671875 45.3125 23.6875 
L 45.3125 54.6875 
L 54.296875 54.6875 
L 54.296875 0 
L 45.3125 0 
L 45.3125 8.40625 
Q 42.046875 3.421875 37.71875 1 
Q 33.40625 -1.421875 27.6875 -1.421875 
Q 18.265625 -1.421875 13.375 4.4375 
Q 8.5 10.296875 8.5 21.578125 
z
M 31.109375 56 
z
" id="DejaVuSans-117"/>
      <path d="M 2.984375 54.6875 
L 12.5 54.6875 
L 29.59375 8.796875 
L 46.6875 54.6875 
L 56.203125 54.6875 
L 35.6875 0 
L 23.484375 0 
z
" id="DejaVuSans-118"/>
      <path d="M 9.421875 75.984375 
L 18.40625 75.984375 
L 18.40625 0 
L 9.421875 0 
z
" id="DejaVuSans-108"/>
     </defs>
     <g transform="translate(83.965625 53.594687)scale(0.1 -0.1)">
      <use xlink:href="#DejaVuSans-84"/>
      <use x="46.333984" xlink:href="#DejaVuSans-114"/>
      <use x="87.447266" xlink:href="#DejaVuSans-117"/>
      <use x="150.826172" xlink:href="#DejaVuSans-101"/>
      <use x="212.349609" xlink:href="#DejaVuSans-32"/>
      <use x="244.136719" xlink:href="#DejaVuSans-118"/>
      <use x="303.316406" xlink:href="#DejaVuSans-97"/>
      <use x="364.595703" xlink:href="#DejaVuSans-108"/>
      <use x="392.378906" xlink:href="#DejaVuSans-117"/>
      <use x="455.757812" xlink:href="#DejaVuSans-101"/>
     </g>
    </g>
   </g>
  </g>
 </g>
 <defs>
  <clipPath id="p20d2d735d7">
   <rect height="266.112" width="357.12" x="46.965625" y="22.318125"/>
  </clipPath>
 </defs>
</svg>
