<?xml version="1.0" encoding="utf-8" standalone="no"?>
<!DOCTYPE svg PUBLIC "-//W3C//DTD SVG 1.1//EN"
  "http://www.w3.org/Graphics/SVG/1.1/DTD/svg11.dtd">
<!-- Created with matplotlib (https://matplotlib.org/) -->
<svg height="325.986375pt" version="1.1" viewBox="0 0 411.285625 325.986375" width="411.285625pt" xmlns="http://www.w3.org/2000/svg" xmlns:xlink="http://www.w3.org/1999/xlink">
 <defs>
  <style type="text/css">
*{stroke-linecap:butt;stroke-linejoin:round;}
  </style>
 </defs>
 <g id="figure_1">
  <g id="patch_1">
   <path d="M 0 325.986375 
L 411.285625 325.986375 
L 411.285625 0 
L 0 0 
z
" style="fill:#ffffff;"/>
  </g>
  <g id="axes_1">
   <g id="patch_2">
    <path d="M 46.965625 288.430125 
L 404.085625 288.430125 
L 404.085625 22.318125 
L 46.965625 22.318125 
z
" style="fill:#ffffff;"/>
   </g>
   <g id="matplotlib.axis_1">
    <g id="xtick_1">
     <g id="line2d_1">
      <path clip-path="url(#paf5c3838e9)" d="M 63.198352 288.430125 
L 63.198352 22.318125 
" style="fill:none;stroke:#b0b0b0;stroke-dasharray:2.96,1.28;stroke-dashoffset:0;stroke-width:0.8;"/>
     </g>
     <g id="line2d_2">
      <defs>
       <path d="M 0 0 
L 0 3.5 
" id="mbc95bfb69b" style="stroke:#000000;stroke-width:0.8;"/>
      </defs>
      <g>
       <use style="stroke:#000000;stroke-width:0.8;" x="63.198352" xlink:href="#mbc95bfb69b" y="288.430125"/>
      </g>
     </g>
     <g id="text_1">
      <!-- 0 -->
      <defs>
       <path d="M 31.78125 66.40625 
Q 24.171875 66.40625 20.328125 58.90625 
Q 16.5 51.421875 16.5 36.375 
Q 16.5 21.390625 20.328125 13.890625 
Q 24.171875 6.390625 31.78125 6.390625 
Q 39.453125 6.390625 43.28125 13.890625 
Q 47.125 21.390625 47.125 36.375 
Q 47.125 51.421875 43.28125 58.90625 
Q 39.453125 66.40625 31.78125 66.40625 
z
M 31.78125 74.21875 
Q 44.046875 74.21875 50.515625 64.515625 
Q 56.984375 54.828125 56.984375 36.375 
Q 56.984375 17.96875 50.515625 8.265625 
Q 44.046875 -1.421875 31.78125 -1.421875 
Q 19.53125 -1.421875 13.0625 8.265625 
Q 6.59375 17.96875 6.59375 36.375 
Q 6.59375 54.828125 13.0625 64.515625 
Q 19.53125 74.21875 31.78125 74.21875 
z
" id="DejaVuSans-48"/>
      </defs>
      <g transform="translate(60.017102 303.028562)scale(0.1 -0.1)">
       <use xlink:href="#DejaVuSans-48"/>
      </g>
     </g>
    </g>
    <g id="xtick_2">
     <g id="line2d_3">
      <path clip-path="url(#paf5c3838e9)" d="M 112.128954 288.430125 
L 112.128954 22.318125 
" style="fill:none;stroke:#b0b0b0;stroke-dasharray:2.96,1.28;stroke-dashoffset:0;stroke-width:0.8;"/>
     </g>
     <g id="line2d_4">
      <g>
       <use style="stroke:#000000;stroke-width:0.8;" x="112.128954" xlink:href="#mbc95bfb69b" y="288.430125"/>
      </g>
     </g>
     <g id="text_2">
      <!-- 200 -->
      <defs>
       <path d="M 19.1875 8.296875 
L 53.609375 8.296875 
L 53.609375 0 
L 7.328125 0 
L 7.328125 8.296875 
Q 12.9375 14.109375 22.625 23.890625 
Q 32.328125 33.6875 34.8125 36.53125 
Q 39.546875 41.84375 41.421875 45.53125 
Q 43.3125 49.21875 43.3125 52.78125 
Q 43.3125 58.59375 39.234375 62.25 
Q 35.15625 65.921875 28.609375 65.921875 
Q 23.96875 65.921875 18.8125 64.3125 
Q 13.671875 62.703125 7.8125 59.421875 
L 7.8125 69.390625 
Q 13.765625 71.78125 18.9375 73 
Q 24.125 74.21875 28.421875 74.21875 
Q 39.75 74.21875 46.484375 68.546875 
Q 53.21875 62.890625 53.21875 53.421875 
Q 53.21875 48.921875 51.53125 44.890625 
Q 49.859375 40.875 45.40625 35.40625 
Q 44.1875 33.984375 37.640625 27.21875 
Q 31.109375 20.453125 19.1875 8.296875 
z
" id="DejaVuSans-50"/>
      </defs>
      <g transform="translate(102.585204 303.028562)scale(0.1 -0.1)">
       <use xlink:href="#DejaVuSans-50"/>
       <use x="63.623047" xlink:href="#DejaVuSans-48"/>
       <use x="127.246094" xlink:href="#DejaVuSans-48"/>
      </g>
     </g>
    </g>
    <g id="xtick_3">
     <g id="line2d_5">
      <path clip-path="url(#paf5c3838e9)" d="M 161.059557 288.430125 
L 161.059557 22.318125 
" style="fill:none;stroke:#b0b0b0;stroke-dasharray:2.96,1.28;stroke-dashoffset:0;stroke-width:0.8;"/>
     </g>
     <g id="line2d_6">
      <g>
       <use style="stroke:#000000;stroke-width:0.8;" x="161.059557" xlink:href="#mbc95bfb69b" y="288.430125"/>
      </g>
     </g>
     <g id="text_3">
      <!-- 400 -->
      <defs>
       <path d="M 37.796875 64.3125 
L 12.890625 25.390625 
L 37.796875 25.390625 
z
M 35.203125 72.90625 
L 47.609375 72.90625 
L 47.609375 25.390625 
L 58.015625 25.390625 
L 58.015625 17.1875 
L 47.609375 17.1875 
L 47.609375 0 
L 37.796875 0 
L 37.796875 17.1875 
L 4.890625 17.1875 
L 4.890625 26.703125 
z
" id="DejaVuSans-52"/>
      </defs>
      <g transform="translate(151.515807 303.028562)scale(0.1 -0.1)">
       <use xlink:href="#DejaVuSans-52"/>
       <use x="63.623047" xlink:href="#DejaVuSans-48"/>
       <use x="127.246094" xlink:href="#DejaVuSans-48"/>
      </g>
     </g>
    </g>
    <g id="xtick_4">
     <g id="line2d_7">
      <path clip-path="url(#paf5c3838e9)" d="M 209.990159 288.430125 
L 209.990159 22.318125 
" style="fill:none;stroke:#b0b0b0;stroke-dasharray:2.96,1.28;stroke-dashoffset:0;stroke-width:0.8;"/>
     </g>
     <g id="line2d_8">
      <g>
       <use style="stroke:#000000;stroke-width:0.8;" x="209.990159" xlink:href="#mbc95bfb69b" y="288.430125"/>
      </g>
     </g>
     <g id="text_4">
      <!-- 600 -->
      <defs>
       <path d="M 33.015625 40.375 
Q 26.375 40.375 22.484375 35.828125 
Q 18.609375 31.296875 18.609375 23.390625 
Q 18.609375 15.53125 22.484375 10.953125 
Q 26.375 6.390625 33.015625 6.390625 
Q 39.65625 6.390625 43.53125 10.953125 
Q 47.40625 15.53125 47.40625 23.390625 
Q 47.40625 31.296875 43.53125 35.828125 
Q 39.65625 40.375 33.015625 40.375 
z
M 52.59375 71.296875 
L 52.59375 62.3125 
Q 48.875 64.0625 45.09375 64.984375 
Q 41.3125 65.921875 37.59375 65.921875 
Q 27.828125 65.921875 22.671875 59.328125 
Q 17.53125 52.734375 16.796875 39.40625 
Q 19.671875 43.65625 24.015625 45.921875 
Q 28.375 48.1875 33.59375 48.1875 
Q 44.578125 48.1875 50.953125 41.515625 
Q 57.328125 34.859375 57.328125 23.390625 
Q 57.328125 12.15625 50.6875 5.359375 
Q 44.046875 -1.421875 33.015625 -1.421875 
Q 20.359375 -1.421875 13.671875 8.265625 
Q 6.984375 17.96875 6.984375 36.375 
Q 6.984375 53.65625 15.1875 63.9375 
Q 23.390625 74.21875 37.203125 74.21875 
Q 40.921875 74.21875 44.703125 73.484375 
Q 48.484375 72.75 52.59375 71.296875 
z
" id="DejaVuSans-54"/>
      </defs>
      <g transform="translate(200.446409 303.028562)scale(0.1 -0.1)">
       <use xlink:href="#DejaVuSans-54"/>
       <use x="63.623047" xlink:href="#DejaVuSans-48"/>
       <use x="127.246094" xlink:href="#DejaVuSans-48"/>
      </g>
     </g>
    </g>
    <g id="xtick_5">
     <g id="line2d_9">
      <path clip-path="url(#paf5c3838e9)" d="M 258.920761 288.430125 
L 258.920761 22.318125 
" style="fill:none;stroke:#b0b0b0;stroke-dasharray:2.96,1.28;stroke-dashoffset:0;stroke-width:0.8;"/>
     </g>
     <g id="line2d_10">
      <g>
       <use style="stroke:#000000;stroke-width:0.8;" x="258.920761" xlink:href="#mbc95bfb69b" y="288.430125"/>
      </g>
     </g>
     <g id="text_5">
      <!-- 800 -->
      <defs>
       <path d="M 31.78125 34.625 
Q 24.75 34.625 20.71875 30.859375 
Q 16.703125 27.09375 16.703125 20.515625 
Q 16.703125 13.921875 20.71875 10.15625 
Q 24.75 6.390625 31.78125 6.390625 
Q 38.8125 6.390625 42.859375 10.171875 
Q 46.921875 13.96875 46.921875 20.515625 
Q 46.921875 27.09375 42.890625 30.859375 
Q 38.875 34.625 31.78125 34.625 
z
M 21.921875 38.8125 
Q 15.578125 40.375 12.03125 44.71875 
Q 8.5 49.078125 8.5 55.328125 
Q 8.5 64.0625 14.71875 69.140625 
Q 20.953125 74.21875 31.78125 74.21875 
Q 42.671875 74.21875 48.875 69.140625 
Q 55.078125 64.0625 55.078125 55.328125 
Q 55.078125 49.078125 51.53125 44.71875 
Q 48 40.375 41.703125 38.8125 
Q 48.828125 37.15625 52.796875 32.3125 
Q 56.78125 27.484375 56.78125 20.515625 
Q 56.78125 9.90625 50.3125 4.234375 
Q 43.84375 -1.421875 31.78125 -1.421875 
Q 19.734375 -1.421875 13.25 4.234375 
Q 6.78125 9.90625 6.78125 20.515625 
Q 6.78125 27.484375 10.78125 32.3125 
Q 14.796875 37.15625 21.921875 38.8125 
z
M 18.3125 54.390625 
Q 18.3125 48.734375 21.84375 45.5625 
Q 25.390625 42.390625 31.78125 42.390625 
Q 38.140625 42.390625 41.71875 45.5625 
Q 45.3125 48.734375 45.3125 54.390625 
Q 45.3125 60.0625 41.71875 63.234375 
Q 38.140625 66.40625 31.78125 66.40625 
Q 25.390625 66.40625 21.84375 63.234375 
Q 18.3125 60.0625 18.3125 54.390625 
z
" id="DejaVuSans-56"/>
      </defs>
      <g transform="translate(249.377011 303.028562)scale(0.1 -0.1)">
       <use xlink:href="#DejaVuSans-56"/>
       <use x="63.623047" xlink:href="#DejaVuSans-48"/>
       <use x="127.246094" xlink:href="#DejaVuSans-48"/>
      </g>
     </g>
    </g>
    <g id="xtick_6">
     <g id="line2d_11">
      <path clip-path="url(#paf5c3838e9)" d="M 307.851363 288.430125 
L 307.851363 22.318125 
" style="fill:none;stroke:#b0b0b0;stroke-dasharray:2.96,1.28;stroke-dashoffset:0;stroke-width:0.8;"/>
     </g>
     <g id="line2d_12">
      <g>
       <use style="stroke:#000000;stroke-width:0.8;" x="307.851363" xlink:href="#mbc95bfb69b" y="288.430125"/>
      </g>
     </g>
     <g id="text_6">
      <!-- 1000 -->
      <defs>
       <path d="M 12.40625 8.296875 
L 28.515625 8.296875 
L 28.515625 63.921875 
L 10.984375 60.40625 
L 10.984375 69.390625 
L 28.421875 72.90625 
L 38.28125 72.90625 
L 38.28125 8.296875 
L 54.390625 8.296875 
L 54.390625 0 
L 12.40625 0 
z
" id="DejaVuSans-49"/>
      </defs>
      <g transform="translate(295.126363 303.028562)scale(0.1 -0.1)">
       <use xlink:href="#DejaVuSans-49"/>
       <use x="63.623047" xlink:href="#DejaVuSans-48"/>
       <use x="127.246094" xlink:href="#DejaVuSans-48"/>
       <use x="190.869141" xlink:href="#DejaVuSans-48"/>
      </g>
     </g>
    </g>
    <g id="xtick_7">
     <g id="line2d_13">
      <path clip-path="url(#paf5c3838e9)" d="M 356.781965 288.430125 
L 356.781965 22.318125 
" style="fill:none;stroke:#b0b0b0;stroke-dasharray:2.96,1.28;stroke-dashoffset:0;stroke-width:0.8;"/>
     </g>
     <g id="line2d_14">
      <g>
       <use style="stroke:#000000;stroke-width:0.8;" x="356.781965" xlink:href="#mbc95bfb69b" y="288.430125"/>
      </g>
     </g>
     <g id="text_7">
      <!-- 1200 -->
      <g transform="translate(344.056965 303.028562)scale(0.1 -0.1)">
       <use xlink:href="#DejaVuSans-49"/>
       <use x="63.623047" xlink:href="#DejaVuSans-50"/>
       <use x="127.246094" xlink:href="#DejaVuSans-48"/>
       <use x="190.869141" xlink:href="#DejaVuSans-48"/>
      </g>
     </g>
    </g>
    <g id="text_8">
     <!-- Day -->
     <defs>
      <path d="M 19.671875 64.796875 
L 19.671875 8.109375 
L 31.59375 8.109375 
Q 46.6875 8.109375 53.6875 14.9375 
Q 60.6875 21.78125 60.6875 36.53125 
Q 60.6875 51.171875 53.6875 57.984375 
Q 46.6875 64.796875 31.59375 64.796875 
z
M 9.8125 72.90625 
L 30.078125 72.90625 
Q 51.265625 72.90625 61.171875 64.09375 
Q 71.09375 55.28125 71.09375 36.53125 
Q 71.09375 17.671875 61.125 8.828125 
Q 51.171875 0 30.078125 0 
L 9.8125 0 
z
" id="DejaVuSans-68"/>
      <path d="M 34.28125 27.484375 
Q 23.390625 27.484375 19.1875 25 
Q 14.984375 22.515625 14.984375 16.5 
Q 14.984375 11.71875 18.140625 8.90625 
Q 21.296875 6.109375 26.703125 6.109375 
Q 34.1875 6.109375 38.703125 11.40625 
Q 43.21875 16.703125 43.21875 25.484375 
L 43.21875 27.484375 
z
M 52.203125 31.203125 
L 52.203125 0 
L 43.21875 0 
L 43.21875 8.296875 
Q 40.140625 3.328125 35.546875 0.953125 
Q 30.953125 -1.421875 24.3125 -1.421875 
Q 15.921875 -1.421875 10.953125 3.296875 
Q 6 8.015625 6 15.921875 
Q 6 25.140625 12.171875 29.828125 
Q 18.359375 34.515625 30.609375 34.515625 
L 43.21875 34.515625 
L 43.21875 35.40625 
Q 43.21875 41.609375 39.140625 45 
Q 35.0625 48.390625 27.6875 48.390625 
Q 23 48.390625 18.546875 47.265625 
Q 14.109375 46.140625 10.015625 43.890625 
L 10.015625 52.203125 
Q 14.9375 54.109375 19.578125 55.046875 
Q 24.21875 56 28.609375 56 
Q 40.484375 56 46.34375 49.84375 
Q 52.203125 43.703125 52.203125 31.203125 
z
" id="DejaVuSans-97"/>
      <path d="M 32.171875 -5.078125 
Q 28.375 -14.84375 24.75 -17.8125 
Q 21.140625 -20.796875 15.09375 -20.796875 
L 7.90625 -20.796875 
L 7.90625 -13.28125 
L 13.1875 -13.28125 
Q 16.890625 -13.28125 18.9375 -11.515625 
Q 21 -9.765625 23.484375 -3.21875 
L 25.09375 0.875 
L 2.984375 54.6875 
L 12.5 54.6875 
L 29.59375 11.921875 
L 46.6875 54.6875 
L 56.203125 54.6875 
z
" id="DejaVuSans-121"/>
     </defs>
     <g transform="translate(215.652188 316.706687)scale(0.1 -0.1)">
      <use xlink:href="#DejaVuSans-68"/>
      <use x="77.001953" xlink:href="#DejaVuSans-97"/>
      <use x="138.28125" xlink:href="#DejaVuSans-121"/>
     </g>
    </g>
   </g>
   <g id="matplotlib.axis_2">
    <g id="ytick_1">
     <g id="line2d_15">
      <path clip-path="url(#paf5c3838e9)" d="M 46.965625 265.706651 
L 404.085625 265.706651 
" style="fill:none;stroke:#b0b0b0;stroke-dasharray:2.96,1.28;stroke-dashoffset:0;stroke-width:0.8;"/>
     </g>
     <g id="line2d_16">
      <defs>
       <path d="M 0 0 
L -3.5 0 
" id="me184ad0e71" style="stroke:#000000;stroke-width:0.8;"/>
      </defs>
      <g>
       <use style="stroke:#000000;stroke-width:0.8;" x="46.965625" xlink:href="#me184ad0e71" y="265.706651"/>
      </g>
     </g>
     <g id="text_9">
      <!-- 25 -->
      <defs>
       <path d="M 10.796875 72.90625 
L 49.515625 72.90625 
L 49.515625 64.59375 
L 19.828125 64.59375 
L 19.828125 46.734375 
Q 21.96875 47.46875 24.109375 47.828125 
Q 26.265625 48.1875 28.421875 48.1875 
Q 40.625 48.1875 47.75 41.5 
Q 54.890625 34.8125 54.890625 23.390625 
Q 54.890625 11.625 47.5625 5.09375 
Q 40.234375 -1.421875 26.90625 -1.421875 
Q 22.3125 -1.421875 17.546875 -0.640625 
Q 12.796875 0.140625 7.71875 1.703125 
L 7.71875 11.625 
Q 12.109375 9.234375 16.796875 8.0625 
Q 21.484375 6.890625 26.703125 6.890625 
Q 35.15625 6.890625 40.078125 11.328125 
Q 45.015625 15.765625 45.015625 23.390625 
Q 45.015625 31 40.078125 35.4375 
Q 35.15625 39.890625 26.703125 39.890625 
Q 22.75 39.890625 18.8125 39.015625 
Q 14.890625 38.140625 10.796875 36.28125 
z
" id="DejaVuSans-53"/>
      </defs>
      <g transform="translate(27.240625 269.50587)scale(0.1 -0.1)">
       <use xlink:href="#DejaVuSans-50"/>
       <use x="63.623047" xlink:href="#DejaVuSans-53"/>
      </g>
     </g>
    </g>
    <g id="ytick_2">
     <g id="line2d_17">
      <path clip-path="url(#paf5c3838e9)" d="M 46.965625 229.161003 
L 404.085625 229.161003 
" style="fill:none;stroke:#b0b0b0;stroke-dasharray:2.96,1.28;stroke-dashoffset:0;stroke-width:0.8;"/>
     </g>
     <g id="line2d_18">
      <g>
       <use style="stroke:#000000;stroke-width:0.8;" x="46.965625" xlink:href="#me184ad0e71" y="229.161003"/>
      </g>
     </g>
     <g id="text_10">
      <!-- 50 -->
      <g transform="translate(27.240625 232.960222)scale(0.1 -0.1)">
       <use xlink:href="#DejaVuSans-53"/>
       <use x="63.623047" xlink:href="#DejaVuSans-48"/>
      </g>
     </g>
    </g>
    <g id="ytick_3">
     <g id="line2d_19">
      <path clip-path="url(#paf5c3838e9)" d="M 46.965625 192.615356 
L 404.085625 192.615356 
" style="fill:none;stroke:#b0b0b0;stroke-dasharray:2.96,1.28;stroke-dashoffset:0;stroke-width:0.8;"/>
     </g>
     <g id="line2d_20">
      <g>
       <use style="stroke:#000000;stroke-width:0.8;" x="46.965625" xlink:href="#me184ad0e71" y="192.615356"/>
      </g>
     </g>
     <g id="text_11">
      <!-- 75 -->
      <defs>
       <path d="M 8.203125 72.90625 
L 55.078125 72.90625 
L 55.078125 68.703125 
L 28.609375 0 
L 18.3125 0 
L 43.21875 64.59375 
L 8.203125 64.59375 
z
" id="DejaVuSans-55"/>
      </defs>
      <g transform="translate(27.240625 196.414575)scale(0.1 -0.1)">
       <use xlink:href="#DejaVuSans-55"/>
       <use x="63.623047" xlink:href="#DejaVuSans-53"/>
      </g>
     </g>
    </g>
    <g id="ytick_4">
     <g id="line2d_21">
      <path clip-path="url(#paf5c3838e9)" d="M 46.965625 156.069709 
L 404.085625 156.069709 
" style="fill:none;stroke:#b0b0b0;stroke-dasharray:2.96,1.28;stroke-dashoffset:0;stroke-width:0.8;"/>
     </g>
     <g id="line2d_22">
      <g>
       <use style="stroke:#000000;stroke-width:0.8;" x="46.965625" xlink:href="#me184ad0e71" y="156.069709"/>
      </g>
     </g>
     <g id="text_12">
      <!-- 100 -->
      <g transform="translate(20.878125 159.868928)scale(0.1 -0.1)">
       <use xlink:href="#DejaVuSans-49"/>
       <use x="63.623047" xlink:href="#DejaVuSans-48"/>
       <use x="127.246094" xlink:href="#DejaVuSans-48"/>
      </g>
     </g>
    </g>
    <g id="ytick_5">
     <g id="line2d_23">
      <path clip-path="url(#paf5c3838e9)" d="M 46.965625 119.524062 
L 404.085625 119.524062 
" style="fill:none;stroke:#b0b0b0;stroke-dasharray:2.96,1.28;stroke-dashoffset:0;stroke-width:0.8;"/>
     </g>
     <g id="line2d_24">
      <g>
       <use style="stroke:#000000;stroke-width:0.8;" x="46.965625" xlink:href="#me184ad0e71" y="119.524062"/>
      </g>
     </g>
     <g id="text_13">
      <!-- 125 -->
      <g transform="translate(20.878125 123.32328)scale(0.1 -0.1)">
       <use xlink:href="#DejaVuSans-49"/>
       <use x="63.623047" xlink:href="#DejaVuSans-50"/>
       <use x="127.246094" xlink:href="#DejaVuSans-53"/>
      </g>
     </g>
    </g>
    <g id="ytick_6">
     <g id="line2d_25">
      <path clip-path="url(#paf5c3838e9)" d="M 46.965625 82.978414 
L 404.085625 82.978414 
" style="fill:none;stroke:#b0b0b0;stroke-dasharray:2.96,1.28;stroke-dashoffset:0;stroke-width:0.8;"/>
     </g>
     <g id="line2d_26">
      <g>
       <use style="stroke:#000000;stroke-width:0.8;" x="46.965625" xlink:href="#me184ad0e71" y="82.978414"/>
      </g>
     </g>
     <g id="text_14">
      <!-- 150 -->
      <g transform="translate(20.878125 86.777633)scale(0.1 -0.1)">
       <use xlink:href="#DejaVuSans-49"/>
       <use x="63.623047" xlink:href="#DejaVuSans-53"/>
       <use x="127.246094" xlink:href="#DejaVuSans-48"/>
      </g>
     </g>
    </g>
    <g id="ytick_7">
     <g id="line2d_27">
      <path clip-path="url(#paf5c3838e9)" d="M 46.965625 46.432767 
L 404.085625 46.432767 
" style="fill:none;stroke:#b0b0b0;stroke-dasharray:2.96,1.28;stroke-dashoffset:0;stroke-width:0.8;"/>
     </g>
     <g id="line2d_28">
      <g>
       <use style="stroke:#000000;stroke-width:0.8;" x="46.965625" xlink:href="#me184ad0e71" y="46.432767"/>
      </g>
     </g>
     <g id="text_15">
      <!-- 175 -->
      <g transform="translate(20.878125 50.231986)scale(0.1 -0.1)">
       <use xlink:href="#DejaVuSans-49"/>
       <use x="63.623047" xlink:href="#DejaVuSans-55"/>
       <use x="127.246094" xlink:href="#DejaVuSans-53"/>
      </g>
     </g>
    </g>
    <g id="text_16">
     <!-- Price $ -->
     <defs>
      <path d="M 19.671875 64.796875 
L 19.671875 37.40625 
L 32.078125 37.40625 
Q 38.96875 37.40625 42.71875 40.96875 
Q 46.484375 44.53125 46.484375 51.125 
Q 46.484375 57.671875 42.71875 61.234375 
Q 38.96875 64.796875 32.078125 64.796875 
z
M 9.8125 72.90625 
L 32.078125 72.90625 
Q 44.34375 72.90625 50.609375 67.359375 
Q 56.890625 61.8125 56.890625 51.125 
Q 56.890625 40.328125 50.609375 34.8125 
Q 44.34375 29.296875 32.078125 29.296875 
L 19.671875 29.296875 
L 19.671875 0 
L 9.8125 0 
z
" id="DejaVuSans-80"/>
      <path d="M 41.109375 46.296875 
Q 39.59375 47.171875 37.8125 47.578125 
Q 36.03125 48 33.890625 48 
Q 26.265625 48 22.1875 43.046875 
Q 18.109375 38.09375 18.109375 28.8125 
L 18.109375 0 
L 9.078125 0 
L 9.078125 54.6875 
L 18.109375 54.6875 
L 18.109375 46.1875 
Q 20.953125 51.171875 25.484375 53.578125 
Q 30.03125 56 36.53125 56 
Q 37.453125 56 38.578125 55.875 
Q 39.703125 55.765625 41.0625 55.515625 
z
" id="DejaVuSans-114"/>
      <path d="M 9.421875 54.6875 
L 18.40625 54.6875 
L 18.40625 0 
L 9.421875 0 
z
M 9.421875 75.984375 
L 18.40625 75.984375 
L 18.40625 64.59375 
L 9.421875 64.59375 
z
" id="DejaVuSans-105"/>
      <path d="M 48.78125 52.59375 
L 48.78125 44.1875 
Q 44.96875 46.296875 41.140625 47.34375 
Q 37.3125 48.390625 33.40625 48.390625 
Q 24.65625 48.390625 19.8125 42.84375 
Q 14.984375 37.3125 14.984375 27.296875 
Q 14.984375 17.28125 19.8125 11.734375 
Q 24.65625 6.203125 33.40625 6.203125 
Q 37.3125 6.203125 41.140625 7.25 
Q 44.96875 8.296875 48.78125 10.40625 
L 48.78125 2.09375 
Q 45.015625 0.34375 40.984375 -0.53125 
Q 36.96875 -1.421875 32.421875 -1.421875 
Q 20.0625 -1.421875 12.78125 6.34375 
Q 5.515625 14.109375 5.515625 27.296875 
Q 5.515625 40.671875 12.859375 48.328125 
Q 20.21875 56 33.015625 56 
Q 37.15625 56 41.109375 55.140625 
Q 45.0625 54.296875 48.78125 52.59375 
z
" id="DejaVuSans-99"/>
      <path d="M 56.203125 29.59375 
L 56.203125 25.203125 
L 14.890625 25.203125 
Q 15.484375 15.921875 20.484375 11.0625 
Q 25.484375 6.203125 34.421875 6.203125 
Q 39.59375 6.203125 44.453125 7.46875 
Q 49.3125 8.734375 54.109375 11.28125 
L 54.109375 2.78125 
Q 49.265625 0.734375 44.1875 -0.34375 
Q 39.109375 -1.421875 33.890625 -1.421875 
Q 20.796875 -1.421875 13.15625 6.1875 
Q 5.515625 13.8125 5.515625 26.8125 
Q 5.515625 40.234375 12.765625 48.109375 
Q 20.015625 56 32.328125 56 
Q 43.359375 56 49.78125 48.890625 
Q 56.203125 41.796875 56.203125 29.59375 
z
M 47.21875 32.234375 
Q 47.125 39.59375 43.09375 43.984375 
Q 39.0625 48.390625 32.421875 48.390625 
Q 24.90625 48.390625 20.390625 44.140625 
Q 15.875 39.890625 15.1875 32.171875 
z
" id="DejaVuSans-101"/>
      <path id="DejaVuSans-32"/>
      <path d="M 33.796875 -14.703125 
L 28.90625 -14.703125 
L 28.859375 0 
Q 23.734375 0.09375 18.609375 1.1875 
Q 13.484375 2.296875 8.296875 4.5 
L 8.296875 13.28125 
Q 13.28125 10.15625 18.375 8.5625 
Q 23.484375 6.984375 28.90625 6.9375 
L 28.90625 29.203125 
Q 18.109375 30.953125 13.203125 35.15625 
Q 8.296875 39.359375 8.296875 46.6875 
Q 8.296875 54.640625 13.625 59.21875 
Q 18.953125 63.8125 28.90625 64.5 
L 28.90625 75.984375 
L 33.796875 75.984375 
L 33.796875 64.65625 
Q 38.328125 64.453125 42.578125 63.6875 
Q 46.828125 62.9375 50.875 61.625 
L 50.875 53.078125 
Q 46.828125 55.125 42.546875 56.25 
Q 38.28125 57.375 33.796875 57.5625 
L 33.796875 36.71875 
Q 44.875 35.015625 50.09375 30.609375 
Q 55.328125 26.21875 55.328125 18.609375 
Q 55.328125 10.359375 49.78125 5.59375 
Q 44.234375 0.828125 33.796875 0.09375 
z
M 28.90625 37.59375 
L 28.90625 57.625 
Q 23.25 56.984375 20.265625 54.390625 
Q 17.28125 51.8125 17.28125 47.515625 
Q 17.28125 43.3125 20.03125 40.96875 
Q 22.796875 38.625 28.90625 37.59375 
z
M 33.796875 28.21875 
L 33.796875 7.078125 
Q 39.984375 7.90625 43.140625 10.59375 
Q 46.296875 13.28125 46.296875 17.671875 
Q 46.296875 21.96875 43.28125 24.5 
Q 40.28125 27.046875 33.796875 28.21875 
z
" id="DejaVuSans-36"/>
     </defs>
     <g transform="translate(14.798438 172.342094)rotate(-90)scale(0.1 -0.1)">
      <use xlink:href="#DejaVuSans-80"/>
      <use x="58.552734" xlink:href="#DejaVuSans-114"/>
      <use x="99.666016" xlink:href="#DejaVuSans-105"/>
      <use x="127.449219" xlink:href="#DejaVuSans-99"/>
      <use x="182.429688" xlink:href="#DejaVuSans-101"/>
      <use x="243.953125" xlink:href="#DejaVuSans-32"/>
      <use x="275.740234" xlink:href="#DejaVuSans-36"/>
     </g>
    </g>
   </g>
   <g id="line2d_29">
    <path clip-path="url(#paf5c3838e9)" d="M 63.198352 270.598808 
L 63.443005 268.13714 
L 63.932311 271.281568 
L 64.176964 272.53691 
L 64.66627 269.482319 
L 64.910923 271.866875 
L 65.400229 270.895853 
L 65.644882 269.957079 
L 65.889535 270.599307 
L 66.134188 272.558382 
L 66.378841 271.450364 
L 66.623494 274.198908 
L 66.868147 274.992979 
L 67.1128 272.804615 
L 67.357453 274.175021 
L 67.602106 273.654046 
L 67.846759 273.578274 
L 68.091412 273.769688 
L 68.336066 274.164925 
L 68.580719 273.942381 
L 68.825372 274.167484 
L 69.070025 274.215829 
L 69.314678 275.782587 
L 69.559331 276.059333 
L 69.803984 274.717072 
L 70.048637 274.216111 
L 70.537943 274.467203 
L 70.782596 273.625621 
L 71.027249 271.623007 
L 71.271902 272.024356 
L 71.516555 270.031683 
L 71.761208 270.656426 
L 72.005861 270.238802 
L 72.250514 268.006471 
L 72.495167 269.215414 
L 72.73982 268.829163 
L 72.984473 271.850004 
L 73.229126 272.485064 
L 73.473779 271.910982 
L 73.718432 272.314542 
L 73.963085 270.297054 
L 74.452391 269.579223 
L 74.697044 270.236215 
L 74.941697 270.126178 
L 75.18635 271.529123 
L 75.431003 272.246083 
L 75.675656 272.384496 
L 75.920309 273.219325 
L 76.164962 273.038225 
L 76.409615 273.364268 
L 76.898921 273.43796 
L 77.143574 272.967592 
L 77.388227 274.493831 
L 77.63288 274.330087 
L 77.877533 273.703021 
L 78.122186 273.706574 
L 78.366839 268.571496 
L 79.100798 271.442404 
L 79.345451 271.092726 
L 80.07941 271.006132 
L 80.813369 273.829509 
L 81.058022 272.520284 
L 81.302675 273.036795 
L 81.547328 269.461549 
L 81.791981 269.629835 
L 82.036634 267.319104 
L 82.281287 268.444552 
L 82.52594 268.244498 
L 82.770593 266.360866 
L 83.015246 266.882476 
L 83.259899 264.266464 
L 83.749205 263.541275 
L 84.238511 261.449975 
L 84.483164 262.824752 
L 84.97247 261.719787 
L 85.217123 262.721683 
L 85.706429 261.406506 
L 85.951082 261.297208 
L 86.195735 261.905214 
L 86.440388 260.86979 
L 86.685041 262.860896 
L 86.929694 262.920826 
L 87.174347 261.420037 
L 87.419 261.909366 
L 87.663653 261.952812 
L 87.908306 263.506618 
L 88.152959 262.579348 
L 88.642265 263.915384 
L 88.886918 264.010275 
L 89.131571 263.081491 
L 89.376224 261.090705 
L 89.620877 261.707561 
L 90.110183 259.181884 
L 90.354836 259.641167 
L 90.599489 257.524727 
L 91.088796 255.810925 
L 91.578102 258.302449 
L 91.822755 258.507065 
L 92.067408 258.166183 
L 92.312061 258.804999 
L 92.556714 257.164571 
L 93.04602 256.685821 
L 93.290673 256.090583 
L 93.535326 254.8198 
L 93.779979 257.168851 
L 94.024632 256.680574 
L 94.269285 257.156232 
L 94.758591 260.683085 
L 95.247897 259.307387 
L 95.49255 260.062661 
L 95.737203 260.096058 
L 95.981856 260.424565 
L 96.226509 261.833368 
L 96.715815 260.145457 
L 96.960468 260.563418 
L 97.205121 259.785474 
L 97.449774 260.387393 
L 97.694427 262.183888 
L 97.93908 262.274711 
L 98.183733 262.215899 
L 98.428386 261.948189 
L 98.673039 262.766019 
L 98.917692 262.313222 
L 99.162345 261.350845 
L 99.406998 261.404903 
L 99.651651 261.800628 
L 99.896304 261.971022 
L 100.140957 260.410281 
L 100.38561 261.343766 
L 100.630263 260.989956 
L 100.874916 261.347764 
L 101.119569 262.544066 
L 101.364222 262.515763 
L 101.608875 263.14852 
L 101.853528 263.327517 
L 102.098181 263.331942 
L 102.342834 264.448066 
L 102.83214 264.160426 
L 103.076793 265.266336 
L 103.321446 265.209691 
L 103.566099 263.855677 
L 103.810752 264.750342 
L 104.055405 264.571634 
L 104.300058 264.779671 
L 104.789364 262.603664 
L 105.034017 262.141855 
L 105.27867 262.793865 
L 105.523323 263.112582 
L 105.767976 261.735878 
L 106.012629 261.01815 
L 106.501935 263.429588 
L 106.746588 262.724157 
L 106.991241 263.187619 
L 107.235894 264.634193 
L 107.480547 264.383636 
L 107.7252 263.967091 
L 107.969853 264.047882 
L 108.459159 263.719381 
L 108.703812 262.71686 
L 108.948465 262.601177 
L 109.193118 261.504888 
L 109.437771 262.208923 
L 109.682424 259.897144 
L 110.416383 262.899836 
L 110.661036 262.370728 
L 110.905689 262.585446 
L 111.150342 263.066245 
L 111.639648 262.527797 
L 112.128954 263.957461 
L 112.373607 263.712343 
L 112.61826 264.494392 
L 112.862913 264.509839 
L 113.107566 265.244089 
L 113.35222 265.289598 
L 113.596873 266.521132 
L 113.841526 266.642483 
L 114.086179 267.866218 
L 114.330832 265.74026 
L 115.064791 267.607637 
L 115.309444 268.640195 
L 115.554097 268.44439 
L 115.79875 267.89122 
L 116.043403 266.416189 
L 116.532709 267.240917 
L 117.022015 267.584104 
L 117.511321 266.608322 
L 117.755974 266.417026 
L 118.000627 267.163062 
L 118.24528 266.14912 
L 118.489933 267.120952 
L 118.734586 266.63718 
L 118.979239 266.783207 
L 119.223892 266.031154 
L 119.468545 265.900878 
L 119.713198 265.939377 
L 119.957851 266.419532 
L 120.202504 266.235095 
L 120.447157 266.480879 
L 120.69181 265.963283 
L 120.936463 264.74609 
L 121.181116 264.393135 
L 121.425769 264.437694 
L 121.670422 264.234135 
L 121.915075 263.677722 
L 122.159728 263.687799 
L 122.404381 263.222176 
L 122.893687 264.424235 
L 123.627646 263.468668 
L 123.872299 251.430695 
L 124.116952 253.265238 
L 124.606258 246.480677 
L 124.850911 247.967363 
L 125.58487 244.88543 
L 125.829523 245.92541 
L 126.074176 245.474986 
L 126.318829 245.979145 
L 126.563482 245.997145 
L 126.808135 246.212668 
L 127.052788 247.632208 
L 127.297441 248.016329 
L 127.542094 247.980423 
L 128.276053 246.12383 
L 128.520706 246.106906 
L 128.765359 245.67707 
L 129.010012 242.657699 
L 129.254665 241.894052 
L 129.499318 244.285585 
L 129.988624 241.591754 
L 130.233277 241.650903 
L 130.47793 240.880889 
L 130.722583 240.986177 
L 130.967236 239.856115 
L 131.211889 237.926382 
L 131.456542 238.003828 
L 131.701195 238.595001 
L 131.945848 236.33099 
L 132.190501 236.759159 
L 132.435154 237.454606 
L 132.679807 239.945349 
L 132.92446 235.852812 
L 133.169113 235.901466 
L 133.413766 234.935713 
L 133.658419 232.671529 
L 133.903072 233.216535 
L 134.392378 229.626021 
L 134.881684 227.187507 
L 135.126337 228.51986 
L 135.37099 228.300929 
L 135.615643 228.598264 
L 135.860297 230.052133 
L 136.10495 227.378137 
L 136.349603 228.228631 
L 136.594256 232.911349 
L 136.838909 233.11229 
L 137.083562 229.522707 
L 137.328215 229.912761 
L 137.572868 229.629975 
L 137.817521 229.73557 
L 138.55148 222.882626 
L 138.796133 223.420232 
L 139.285439 226.240313 
L 139.530092 225.551295 
L 139.774745 226.052856 
L 140.019398 228.591489 
L 140.264051 229.706534 
L 140.508704 230.117907 
L 140.753357 228.253881 
L 140.99801 228.827321 
L 141.242663 230.834243 
L 141.487316 228.231971 
L 141.976622 232.392741 
L 142.221275 232.334462 
L 142.465928 234.175775 
L 142.710581 233.695946 
L 142.955234 230.61771 
L 143.44454 230.461024 
L 143.689193 234.706639 
L 144.178499 234.09011 
L 144.423152 233.663893 
L 144.667805 234.331798 
L 144.912458 236.473105 
L 145.401764 234.025379 
L 145.646417 233.226935 
L 145.89107 233.171768 
L 146.135723 233.772042 
L 146.380376 231.007458 
L 146.625029 231.398253 
L 146.869682 232.089802 
L 147.114335 230.76147 
L 147.358988 228.557556 
L 147.603641 230.172065 
L 148.092947 223.979073 
L 148.3376 223.520278 
L 148.826906 220.818128 
L 149.071559 221.529518 
L 149.316212 221.209721 
L 149.560865 217.62388 
L 149.805518 217.459052 
L 150.050171 217.760335 
L 150.539477 223.231314 
L 150.78413 222.046257 
L 151.028783 222.011772 
L 151.273436 222.460764 
L 151.518089 218.223814 
L 151.762742 217.387964 
L 152.007395 217.214498 
L 152.252048 218.544642 
L 152.496701 217.439719 
L 152.741354 219.995399 
L 152.986007 217.626869 
L 153.23066 217.651522 
L 153.475313 218.324173 
L 153.719966 219.611312 
L 153.964619 216.319906 
L 154.453925 219.367667 
L 154.698578 222.451719 
L 154.943231 223.552577 
L 155.187884 221.040047 
L 155.432537 223.99897 
L 155.67719 211.541363 
L 155.921843 210.748948 
L 156.166496 212.627366 
L 156.411149 210.523588 
L 156.900455 211.417856 
L 157.145108 208.403448 
L 157.389761 209.480412 
L 157.634414 207.675859 
L 157.879067 208.110173 
L 158.12372 203.890739 
L 158.368374 204.354218 
L 158.613027 204.204937 
L 158.85768 202.872518 
L 159.102333 200.69469 
L 159.346986 202.396258 
L 159.591639 198.661448 
L 160.080945 200.989304 
L 160.570251 202.078323 
L 160.814904 203.570351 
L 161.059557 201.268326 
L 161.30421 197.100931 
L 161.793516 200.211538 
L 162.038169 196.633593 
L 162.282822 199.76074 
L 162.527475 198.622737 
L 163.016781 202.989433 
L 163.261434 201.388966 
L 163.506087 200.728662 
L 163.995393 204.123019 
L 164.240046 203.656864 
L 164.484699 208.425999 
L 164.729352 207.001078 
L 164.974005 213.631367 
L 165.218658 212.415189 
L 165.463311 213.939398 
L 165.707964 213.417913 
L 165.952617 210.021598 
L 166.19727 210.188255 
L 166.686576 218.800494 
L 166.931229 218.28076 
L 167.175882 216.479754 
L 167.420535 210.613323 
L 167.665188 215.560598 
L 167.909841 216.50816 
L 168.399147 215.107909 
L 168.6438 214.526829 
L 168.888453 215.723613 
L 169.377759 209.648229 
L 169.622412 212.131243 
L 169.867065 212.98617 
L 170.111718 217.192566 
L 170.356371 219.306159 
L 170.845677 214.134327 
L 171.09033 212.482368 
L 171.334983 213.552383 
L 171.579636 212.279419 
L 172.068942 217.715774 
L 172.313595 218.648849 
L 172.558248 218.016499 
L 172.802901 214.142246 
L 173.047554 214.50212 
L 173.292207 215.41004 
L 173.53686 217.200853 
L 173.781513 217.170879 
L 174.026166 215.261679 
L 174.270819 216.350091 
L 174.515472 213.591089 
L 174.760125 213.517196 
L 175.004778 212.362207 
L 175.249431 209.147951 
L 175.494084 209.221437 
L 175.738737 208.806858 
L 176.228043 209.919215 
L 176.472696 210.254129 
L 176.717349 209.552771 
L 176.962002 209.783362 
L 177.206655 210.772235 
L 177.451308 210.050908 
L 177.695961 205.493503 
L 177.940614 206.241112 
L 178.185267 208.422598 
L 178.42992 207.81479 
L 178.674573 207.96368 
L 178.919226 207.877391 
L 179.163879 206.026587 
L 179.408532 208.092206 
L 179.653185 207.792183 
L 179.897838 206.342224 
L 180.142491 205.925765 
L 180.387144 203.434967 
L 180.631798 203.942343 
L 180.876451 203.201036 
L 181.121104 203.711223 
L 181.365757 202.536772 
L 181.61041 205.015336 
L 181.855063 205.24833 
L 182.099716 206.576869 
L 182.344369 210.423128 
L 182.589022 206.598249 
L 182.833675 207.11399 
L 183.322981 202.627735 
L 183.567634 204.131484 
L 183.812287 203.307334 
L 184.05694 204.921251 
L 184.301593 201.913127 
L 184.546246 200.486879 
L 184.790899 200.904754 
L 185.035552 197.757856 
L 185.280205 192.086076 
L 185.769511 192.65806 
L 186.014164 194.422374 
L 186.258817 193.063834 
L 186.50347 196.048425 
L 186.748123 196.492911 
L 186.992776 194.555405 
L 187.237429 195.877475 
L 187.482082 196.190925 
L 187.726735 195.044312 
L 187.971388 195.247517 
L 188.216041 194.78918 
L 188.460694 195.566277 
L 188.95 193.338072 
L 189.194653 194.422898 
L 189.683959 191.72798 
L 189.928612 192.587273 
L 190.173265 192.992322 
L 190.417918 193.086129 
L 190.662571 192.277715 
L 190.907224 190.862575 
L 191.151877 193.031 
L 191.39653 194.100491 
L 191.641183 192.510676 
L 191.885836 189.652814 
L 192.130489 191.475725 
L 192.375142 191.141686 
L 192.619795 188.851293 
L 192.864448 188.07878 
L 193.109101 190.068224 
L 193.598407 187.950199 
L 193.84306 188.842482 
L 194.087713 193.117558 
L 194.332366 190.613978 
L 194.821672 189.413062 
L 195.066325 188.022982 
L 195.310978 189.954767 
L 195.555631 187.221137 
L 195.800284 186.938133 
L 196.044937 189.187205 
L 196.28959 186.678495 
L 196.534243 186.319664 
L 196.778896 186.472524 
L 197.023549 190.189166 
L 197.512855 188.485959 
L 197.757508 188.455857 
L 198.002161 190.410951 
L 198.246814 188.327789 
L 198.491467 190.836979 
L 198.73612 195.292497 
L 198.980773 194.96312 
L 199.225426 193.968408 
L 199.714732 195.529193 
L 199.959385 190.066429 
L 200.204038 189.253319 
L 200.448691 186.833676 
L 200.693344 187.400062 
L 200.937997 184.874779 
L 201.18265 183.863216 
L 201.427303 184.558629 
L 201.671956 183.933624 
L 201.916609 191.42295 
L 202.161262 193.684334 
L 202.405915 191.969562 
L 202.650568 193.735403 
L 202.895221 190.958802 
L 203.139875 192.607025 
L 203.629181 191.300726 
L 203.873834 192.23887 
L 204.118487 192.726695 
L 204.36314 192.649685 
L 204.607793 193.273519 
L 204.852446 192.457186 
L 205.097099 193.275069 
L 205.341752 193.280501 
L 205.586405 194.595644 
L 206.320364 193.557247 
L 206.80967 188.068151 
L 207.054323 188.146823 
L 207.298976 192.019482 
L 207.543629 191.654862 
L 207.788282 192.310025 
L 208.032935 191.779807 
L 208.277588 190.030717 
L 208.522241 190.031744 
L 208.766894 189.593347 
L 209.011547 190.581902 
L 209.2562 187.989802 
L 209.500853 188.026451 
L 209.745506 189.586767 
L 209.990159 192.863395 
L 210.968771 182.937083 
L 211.213424 184.232754 
L 211.458077 183.888276 
L 211.70273 183.794893 
L 212.436689 187.893531 
L 212.681342 187.310761 
L 213.170648 190.715346 
L 213.415301 190.538016 
L 213.659954 187.25222 
L 214.14926 189.989084 
L 214.638566 190.565775 
L 214.883219 194.305068 
L 215.372525 190.431015 
L 215.617178 189.926561 
L 215.861831 188.410722 
L 216.106484 188.064984 
L 216.351137 188.466776 
L 216.59579 191.198989 
L 216.840443 190.643221 
L 217.085096 187.800683 
L 217.329749 191.369327 
L 217.574402 192.519642 
L 217.819055 191.581465 
L 218.063708 191.211369 
L 218.308361 191.52976 
L 218.553014 193.199631 
L 218.797667 193.187006 
L 219.04232 192.08012 
L 219.286973 190.060272 
L 219.776279 191.389681 
L 220.020932 191.485261 
L 220.265585 189.892645 
L 220.510238 185.553976 
L 220.754891 185.498926 
L 220.999544 187.027802 
L 221.244197 187.292459 
L 221.733503 184.361001 
L 221.978156 186.876782 
L 222.222809 185.43715 
L 222.467462 185.529395 
L 222.712115 183.635865 
L 222.956768 183.326306 
L 223.201421 185.377661 
L 223.446074 186.006837 
L 223.690727 188.78219 
L 223.93538 188.6958 
L 224.180033 186.410236 
L 224.424686 188.113644 
L 224.669339 187.878809 
L 225.647952 179.478853 
L 225.892605 178.547947 
L 226.137258 177.09888 
L 226.381911 180.726634 
L 226.626564 180.654118 
L 226.871217 180.122462 
L 227.11587 180.456188 
L 227.605176 182.537053 
L 227.849829 182.716324 
L 228.094482 181.373131 
L 228.339135 181.818642 
L 228.828441 181.820984 
L 229.073094 182.082061 
L 229.5624 180.297048 
L 229.807053 181.399574 
L 230.051706 181.585838 
L 230.296359 183.954022 
L 230.541012 180.368705 
L 230.785665 179.917294 
L 231.030318 178.443155 
L 231.274971 182.110925 
L 231.519624 182.952865 
L 231.764277 182.09627 
L 232.00893 184.044304 
L 232.253583 184.526654 
L 232.498236 187.160109 
L 232.742889 186.66819 
L 232.987542 186.836241 
L 233.232195 188.823165 
L 233.721501 187.340394 
L 233.966154 187.269696 
L 234.45546 188.637437 
L 234.700113 187.159819 
L 234.944766 182.586784 
L 235.189419 184.767042 
L 235.434072 183.864989 
L 235.923378 184.313657 
L 236.168031 184.54645 
L 236.412684 184.597921 
L 236.657337 186.384339 
L 236.90199 184.224523 
L 237.146643 184.83271 
L 237.391296 186.41918 
L 237.635949 184.645064 
L 237.880602 184.521936 
L 238.125255 181.319062 
L 238.369908 182.169444 
L 238.614561 181.943342 
L 238.859214 184.07909 
L 239.103867 184.084555 
L 239.34852 181.553082 
L 240.082479 184.173778 
L 240.327132 183.678603 
L 240.816438 180.806499 
L 241.061091 181.597214 
L 241.550397 173.030445 
L 241.79505 172.338634 
L 242.039703 173.877236 
L 242.284356 173.500336 
L 242.529009 176.792133 
L 242.773662 176.79356 
L 243.018315 174.849998 
L 243.507621 174.233513 
L 243.752274 174.714324 
L 243.996927 176.828892 
L 244.24158 176.325877 
L 244.730886 170.190439 
L 244.975539 171.207088 
L 245.220192 170.873384 
L 245.464845 169.019089 
L 245.954151 158.664742 
L 246.198804 158.418967 
L 246.68811 162.555702 
L 246.932763 160.232286 
L 247.177416 164.631916 
L 247.422069 162.762521 
L 247.666722 159.939691 
L 247.911375 163.308598 
L 248.156029 164.697774 
L 248.400682 164.065865 
L 248.645335 164.3514 
L 248.889988 160.839402 
L 249.134641 163.227985 
L 249.379294 164.379237 
L 249.623947 164.240017 
L 249.8686 165.083841 
L 250.113253 164.551371 
L 250.357906 165.486559 
L 250.602559 164.081378 
L 250.847212 164.519763 
L 251.091865 162.936104 
L 251.336518 162.721121 
L 252.070477 181.395715 
L 252.31513 179.588865 
L 252.559783 173.330099 
L 252.804436 170.482934 
L 253.049089 168.984359 
L 253.538395 174.413677 
L 253.783048 170.473889 
L 254.027701 173.079562 
L 254.272354 173.13749 
L 255.006313 167.393662 
L 255.250966 167.283037 
L 255.495619 166.867806 
L 256.229578 163.804888 
L 256.474231 163.78024 
L 256.718884 162.407102 
L 256.963537 165.873574 
L 257.20819 164.362397 
L 257.452843 163.576489 
L 257.697496 166.372552 
L 258.186802 174.755623 
L 258.431455 169.517566 
L 258.920761 167.433132 
L 259.165414 164.401119 
L 259.410067 166.094846 
L 259.65472 166.396765 
L 259.899373 166.47256 
L 260.388679 164.016502 
L 260.877985 164.128678 
L 261.367291 159.252843 
L 261.611944 158.176917 
L 261.856597 160.348967 
L 262.10125 160.102679 
L 262.590556 152.240111 
L 262.835209 150.34957 
L 263.079862 150.425276 
L 263.324515 149.712397 
L 263.569168 148.65107 
L 263.813821 153.139778 
L 264.058474 151.029102 
L 264.303127 151.970067 
L 264.54778 149.858778 
L 264.792433 142.355734 
L 265.037086 146.07223 
L 265.281739 146.658045 
L 265.771045 142.616956 
L 266.015698 144.38534 
L 266.260351 150.331558 
L 266.505004 149.768328 
L 266.749657 147.998494 
L 266.99431 144.140134 
L 267.238963 146.770131 
L 267.483616 145.068965 
L 267.728269 145.405736 
L 267.972922 147.394389 
L 268.217575 147.912272 
L 268.462228 148.07333 
L 268.706881 149.685451 
L 268.951534 145.175831 
L 269.196187 146.989853 
L 269.44084 149.725992 
L 269.685493 146.702411 
L 269.930146 147.480266 
L 270.174799 146.532865 
L 270.419452 149.22514 
L 270.664106 147.933674 
L 270.908759 152.720922 
L 271.153412 148.608588 
L 271.398065 148.812897 
L 271.642718 145.715596 
L 271.887371 146.779276 
L 272.132024 150.415651 
L 272.62133 147.503576 
L 272.865983 149.065866 
L 273.110636 148.499725 
L 273.599942 144.99152 
L 274.089248 149.026976 
L 274.333901 152.695516 
L 274.823207 151.230422 
L 275.06786 159.299885 
L 275.312513 159.383989 
L 275.557166 158.615112 
L 275.801819 156.017413 
L 276.046472 162.790983 
L 276.291125 157.674626 
L 276.535778 163.10111 
L 276.780431 162.399652 
L 277.025084 163.732082 
L 277.269737 164.166084 
L 277.51439 158.171095 
L 277.759043 160.290894 
L 278.003696 160.002069 
L 278.248349 164.184498 
L 278.493002 139.844381 
L 278.737655 137.655445 
L 278.982308 134.159485 
L 279.226961 134.640596 
L 279.716267 140.955784 
L 280.205573 156.037622 
L 280.450226 155.611661 
L 280.694879 153.531979 
L 280.939532 152.805338 
L 281.428838 153.603 
L 281.673491 147.957073 
L 281.918144 150.597899 
L 282.162797 149.186562 
L 282.40745 145.149555 
L 282.652103 147.901844 
L 283.141409 143.905087 
L 283.386062 144.369113 
L 283.630715 144.416066 
L 283.875368 145.786416 
L 284.120021 141.604411 
L 284.364674 141.285707 
L 284.609327 142.081775 
L 284.85398 143.73349 
L 285.098633 147.623167 
L 285.343286 147.293545 
L 285.587939 144.54535 
L 285.832592 145.071998 
L 286.077245 141.817107 
L 286.321898 141.174168 
L 286.566551 140.151864 
L 286.811204 137.728496 
L 287.055857 139.415944 
L 288.523775 135.582856 
L 288.768428 132.008792 
L 289.013081 134.307829 
L 289.257734 135.260271 
L 289.502387 132.059326 
L 289.74704 137.782598 
L 289.991693 138.263688 
L 290.236346 135.354456 
L 290.480999 135.765952 
L 290.725652 140.630667 
L 290.970305 142.564036 
L 291.214958 139.719971 
L 291.459611 140.279263 
L 291.704264 140.193822 
L 291.948917 141.370369 
L 292.19357 140.290506 
L 292.438223 137.426153 
L 292.682876 137.713161 
L 292.92753 135.96861 
L 293.172183 139.973029 
L 293.416836 140.828396 
L 293.661489 142.767118 
L 293.906142 142.827678 
L 294.150795 130.304849 
L 294.395448 130.483763 
L 294.640101 128.907163 
L 294.884754 130.206024 
L 295.129407 129.356444 
L 295.37406 129.568125 
L 295.618713 127.434519 
L 295.863366 127.750223 
L 296.108019 126.050741 
L 296.352672 127.330809 
L 296.597325 126.318454 
L 296.841978 126.713644 
L 297.331284 130.414013 
L 297.575937 130.014117 
L 297.82059 131.033186 
L 298.065243 130.397239 
L 298.309896 132.198535 
L 298.554549 129.575509 
L 298.799202 129.445455 
L 299.043855 127.081911 
L 299.288508 127.101986 
L 299.533161 128.006091 
L 300.26712 128.834725 
L 300.511773 128.565518 
L 300.756426 129.814347 
L 301.001079 128.997635 
L 301.245732 128.598742 
L 301.735038 135.473725 
L 301.979691 133.693496 
L 302.468997 134.783241 
L 302.71365 136.954009 
L 302.958303 136.410676 
L 303.202956 134.607974 
L 303.447609 135.511098 
L 303.692262 133.636818 
L 304.181568 142.893825 
L 304.426221 136.510237 
L 304.670874 134.647321 
L 304.915527 135.086041 
L 305.404833 135.157374 
L 305.649486 131.068618 
L 305.894139 132.773889 
L 306.383445 129.650478 
L 306.628098 129.63831 
L 306.872751 131.204951 
L 307.117404 130.325683 
L 307.362057 130.900556 
L 307.60671 127.22092 
L 308.096016 123.800464 
L 308.340669 125.779715 
L 308.829975 123.846113 
L 309.074628 124.724177 
L 309.563934 119.010116 
L 309.808587 121.312688 
L 310.05324 120.10392 
L 310.542546 122.85206 
L 310.787199 120.005731 
L 311.031852 119.162364 
L 311.276505 119.305321 
L 311.765811 119.046486 
L 312.010464 119.249791 
L 312.255117 119.240779 
L 312.49977 120.913048 
L 312.744423 121.683208 
L 312.989076 120.206482 
L 313.478382 121.353775 
L 313.967688 120.249353 
L 314.212341 121.307391 
L 314.456994 120.773872 
L 314.9463 116.623552 
L 315.190953 117.755008 
L 315.68026 117.192403 
L 315.924913 116.777417 
L 316.169566 111.849141 
L 316.414219 110.181813 
L 316.658872 111.712586 
L 316.903525 116.273854 
L 317.148178 113.946568 
L 317.392831 116.281338 
L 318.12679 113.401372 
L 318.371443 113.984108 
L 318.616096 113.556151 
L 318.860749 111.623541 
L 319.105402 111.843721 
L 319.350055 115.183853 
L 319.594708 115.57534 
L 319.839361 113.171512 
L 320.084014 112.73432 
L 320.328667 114.683102 
L 320.57332 114.249457 
L 320.817973 113.219313 
L 321.062626 114.103466 
L 321.796585 113.121391 
L 322.041238 111.156371 
L 322.285891 113.150076 
L 322.530544 112.943815 
L 322.775197 114.733356 
L 323.01985 114.87241 
L 323.264503 115.335722 
L 323.509156 113.805172 
L 323.753809 111.467401 
L 323.998462 111.937918 
L 324.243115 108.607142 
L 324.487768 106.825721 
L 325.221727 112.20021 
L 325.46638 109.871117 
L 325.711033 110.328629 
L 326.200339 116.169375 
L 326.444992 127.014581 
L 326.934298 122.14343 
L 327.178951 119.998359 
L 327.423604 122.035928 
L 328.157563 133.115679 
L 328.402216 129.857029 
L 328.646869 131.536937 
L 328.891522 129.655185 
L 329.136175 130.765016 
L 329.380828 123.720231 
L 329.625481 124.592696 
L 329.870134 125.907393 
L 330.114787 126.391839 
L 330.35944 126.502186 
L 330.604093 125.279176 
L 331.093399 133.865128 
L 331.338052 132.910511 
L 331.582705 129.420283 
L 331.827358 130.238835 
L 332.072011 129.460802 
L 332.561317 126.69958 
L 332.80597 129.616585 
L 333.050623 125.703296 
L 333.295276 126.023628 
L 333.539929 125.706073 
L 334.029235 127.872904 
L 334.518541 128.158383 
L 334.763194 130.887775 
L 335.007847 130.803682 
L 335.2525 129.767204 
L 335.497153 131.235119 
L 335.741806 131.902751 
L 335.986459 133.764161 
L 336.720418 125.522609 
L 336.965071 121.285576 
L 337.209724 119.218362 
L 337.454377 119.997232 
L 337.69903 117.445851 
L 337.943684 116.622314 
L 338.188337 114.262907 
L 338.43299 115.276879 
L 338.677643 115.125223 
L 339.166949 116.755312 
L 339.411602 113.750746 
L 339.656255 113.316142 
L 340.145561 108.234704 
L 340.390214 109.063026 
L 340.87952 111.455289 
L 341.124173 106.960425 
L 341.368826 111.502823 
L 341.613479 110.819243 
L 341.858132 108.53369 
L 342.102785 109.090752 
L 342.347438 105.522957 
L 342.836744 106.156817 
L 343.081397 105.919686 
L 343.32605 106.277112 
L 343.570703 106.956633 
L 343.815356 106.758357 
L 344.304662 106.947309 
L 344.549315 102.723681 
L 344.793968 104.221665 
L 345.038621 104.2371 
L 345.283274 102.28359 
L 345.527927 103.66148 
L 345.77258 100.95794 
L 346.017233 101.876979 
L 346.261886 101.63271 
L 346.506539 101.025326 
L 346.751192 101.233416 
L 347.485151 99.144644 
L 347.729804 97.890238 
L 347.974457 98.173275 
L 348.21911 97.462928 
L 348.463763 97.201885 
L 348.708416 97.650274 
L 348.953069 97.302729 
L 349.197722 99.417108 
L 349.442375 97.822719 
L 349.687028 97.875717 
L 349.931681 96.744596 
L 350.176334 96.74096 
L 350.66564 93.315653 
L 351.154946 93.929706 
L 351.399599 93.784965 
L 351.644252 94.407138 
L 351.888905 94.644738 
L 352.378211 95.691388 
L 352.622864 95.633817 
L 352.867517 97.099189 
L 353.11217 97.630823 
L 353.356823 97.784643 
L 353.601476 95.120072 
L 353.846129 95.862651 
L 354.090782 94.304531 
L 354.335435 91.524952 
L 354.580088 91.639603 
L 355.069394 87.554494 
L 355.314047 87.683332 
L 355.5587 85.70098 
L 356.048006 78.883691 
L 356.292659 78.639355 
L 357.026618 82.765774 
L 357.271271 81.490424 
L 357.515924 82.611419 
L 357.760577 82.804653 
L 358.00523 82.770369 
L 358.494536 82.442565 
L 358.739189 83.036766 
L 358.983842 90.471231 
L 359.228495 85.12362 
L 359.473148 85.131337 
L 359.717801 85.281187 
L 359.962454 84.846382 
L 360.451761 78.984468 
L 360.696414 79.260769 
L 360.941067 78.752288 
L 361.18572 79.94484 
L 361.430373 79.91156 
L 361.675026 76.908165 
L 361.919679 77.375358 
L 362.164332 78.908741 
L 362.408985 78.116866 
L 362.653638 75.759935 
L 362.898291 83.770556 
L 363.142944 85.417386 
L 363.387597 81.341176 
L 363.876903 83.469095 
L 364.121556 81.873056 
L 364.366209 78.388371 
L 364.610862 79.655892 
L 364.855515 76.895005 
L 365.100168 77.162249 
L 365.344821 75.001943 
L 365.589474 76.9708 
L 365.834127 81.568516 
L 366.07878 77.143535 
L 366.323433 80.580218 
L 366.568086 80.76908 
L 366.812739 84.446664 
L 367.057392 81.510231 
L 367.302045 83.926049 
L 367.791351 77.069235 
L 368.036004 74.844777 
L 368.280657 69.191845 
L 368.52531 68.939523 
L 368.769963 67.684605 
L 369.014616 67.860865 
L 369.259269 63.402894 
L 369.503922 61.722048 
L 369.748575 61.715802 
L 369.993228 61.867347 
L 370.237881 59.216204 
L 370.482534 60.537861 
L 370.727187 60.235217 
L 370.97184 52.778335 
L 371.216493 50.653182 
L 371.461146 55.08142 
L 371.705799 53.585467 
L 371.950452 54.039744 
L 372.195105 55.308247 
L 372.439758 53.814457 
L 372.684411 50.453457 
L 372.929064 51.866434 
L 373.173717 51.328197 
L 373.41837 56.509988 
L 373.663023 55.553989 
L 373.907676 51.506621 
L 374.396982 53.104065 
L 374.641635 56.947269 
L 374.886288 55.946903 
L 375.130941 55.608504 
L 375.375594 53.412018 
L 376.109553 57.93704 
L 376.598859 55.877443 
L 377.088165 50.450089 
L 377.332818 50.413865 
L 377.577471 51.999956 
L 378.066777 48.123427 
L 378.31143 52.013205 
L 378.556083 48.079083 
L 378.800736 48.798063 
L 379.045389 49.036734 
L 379.290042 51.997257 
L 379.534695 50.91291 
L 379.779348 53.123426 
L 380.024001 49.343348 
L 380.268654 49.961148 
L 380.513307 51.684575 
L 380.75796 52.079297 
L 381.002613 63.740089 
L 381.247266 60.298053 
L 381.491919 55.045553 
L 381.736572 55.271955 
L 381.981225 51.999041 
L 382.225878 53.650688 
L 382.470531 52.360059 
L 382.715184 54.344351 
L 382.959838 50.569402 
L 383.204491 49.281092 
L 383.449144 49.417023 
L 383.693797 50.811531 
L 383.93845 48.732372 
L 384.183103 49.23115 
L 384.917062 44.687614 
L 385.161715 44.866015 
L 385.406368 46.644225 
L 385.651021 45.866247 
L 385.895674 51.527053 
L 386.140327 50.630208 
L 386.38498 52.060114 
L 386.629633 52.022529 
L 386.874286 40.654656 
L 387.118939 39.403975 
L 387.363592 39.278774 
L 387.608245 34.414125 
L 387.852898 39.69386 
L 387.852898 39.69386 
" style="fill:none;stroke:#1f77b4;stroke-linecap:square;stroke-width:1.5;"/>
   </g>
   <g id="line2d_30">
    <path clip-path="url(#paf5c3838e9)" d="M 63.198352 268.411029 
L 63.687658 271.729373 
L 63.932311 272.957307 
L 64.421617 270.209075 
L 64.66627 271.963266 
L 64.910923 271.963266 
L 65.155576 271.539336 
L 65.400229 270.369875 
L 65.644882 270.676859 
L 65.889535 272.460286 
L 66.134188 271.261589 
L 66.623494 274.404515 
L 66.868147 273.001162 
L 67.1128 274.243714 
L 67.357453 273.834403 
L 67.846759 273.878258 
L 68.091412 274.258332 
L 68.336066 273.980585 
L 68.580719 274.331424 
L 68.825372 274.346042 
L 69.070025 275.851722 
L 69.314678 276.334125 
L 69.559331 275.091573 
L 69.803984 274.536079 
L 70.048637 274.506843 
L 70.29329 274.755353 
L 70.537943 273.849021 
L 70.782596 271.656282 
L 71.027249 271.977884 
L 71.271902 270.092128 
L 71.516555 270.793805 
L 71.761208 270.282166 
L 72.005861 268.206373 
L 72.250514 269.229651 
L 72.495167 268.834958 
L 72.73982 271.860938 
L 72.984473 272.606469 
L 73.229126 272.109448 
L 73.473779 272.547996 
L 73.718432 270.589149 
L 74.207738 269.697435 
L 74.452391 270.340639 
L 74.697044 270.16522 
L 74.941697 271.685519 
L 75.18635 272.43105 
L 75.431003 272.67956 
L 75.675656 273.542038 
L 75.920309 273.381237 
L 76.164962 273.717457 
L 76.654268 273.77593 
L 76.898921 273.191199 
L 77.143574 274.506843 
L 77.388227 274.477606 
L 77.877533 273.746693 
L 78.122186 268.294083 
L 78.856145 271.393153 
L 79.100798 271.246971 
L 79.345451 271.290826 
L 79.590104 271.188498 
L 79.834757 271.305444 
L 80.568716 274.170623 
L 80.813369 272.913452 
L 81.058022 273.220436 
L 81.302675 269.565871 
L 81.547328 269.843618 
L 81.791981 267.81168 
L 82.036634 268.747249 
L 82.281287 268.48412 
L 82.52594 266.700692 
L 82.770593 267.168477 
L 83.015246 264.332534 
L 83.504552 263.718568 
L 83.993858 261.321173 
L 84.238511 262.724526 
L 84.727817 261.745103 
L 84.97247 262.826854 
L 85.461776 261.555065 
L 85.706429 261.35041 
L 85.951082 261.93514 
L 86.195735 260.970335 
L 86.440388 263.060746 
L 86.685041 263.148455 
L 86.929694 261.745103 
L 87.174347 262.18365 
L 87.419 262.256742 
L 87.663653 263.86475 
L 87.908306 262.885327 
L 88.397612 264.171734 
L 88.642265 264.376389 
L 88.886918 263.338493 
L 89.131571 261.321173 
L 89.376224 261.657393 
L 89.86553 259.24538 
L 90.110183 259.771638 
L 90.354836 257.535044 
L 90.844143 255.883181 
L 91.333449 258.251339 
L 91.578102 258.616795 
L 91.822755 258.192866 
L 92.067408 258.894542 
L 92.312061 257.330388 
L 92.556714 257.198824 
L 92.801367 256.818749 
L 93.04602 256.146309 
L 93.290673 254.786811 
L 93.535326 257.242679 
L 93.779979 256.584857 
L 94.024632 256.964932 
L 94.513938 261.160372 
L 95.003244 259.786256 
L 95.247897 260.370986 
L 95.49255 260.517169 
L 95.737203 260.941098 
L 95.981856 262.242123 
L 96.471162 260.59026 
L 96.715815 260.853389 
L 96.960468 259.961675 
L 97.205121 260.648733 
L 97.449774 262.373688 
L 97.694427 262.592962 
L 98.183733 262.212887 
L 98.428386 262.973036 
L 98.917692 261.642775 
L 99.162345 261.730484 
L 99.406998 262.02285 
L 99.651651 262.125177 
L 99.896304 260.473314 
L 100.140957 261.379646 
L 100.38561 261.116517 
L 100.630263 261.569683 
L 100.874916 262.666053 
L 101.119569 262.724526 
L 101.364222 263.309256 
L 101.608875 263.52853 
L 101.853528 263.440821 
L 102.098181 264.44948 
L 102.342834 264.6249 
L 102.587487 264.639518 
L 102.83214 265.516613 
L 103.076793 265.414286 
L 103.321446 264.113261 
L 103.566099 264.858792 
L 104.055405 265.092684 
L 104.544711 262.680671 
L 104.789364 262.212887 
L 105.034017 263.002273 
L 105.27867 263.382348 
L 105.523323 261.949758 
L 105.767976 261.291937 
L 106.257282 263.484675 
L 106.501935 262.899945 
L 106.746588 263.338493 
L 106.991241 264.697991 
L 107.235894 264.639518 
L 107.480547 264.28868 
L 107.7252 264.274061 
L 107.969853 264.084024 
L 108.214506 264.040169 
L 108.459159 263.002273 
L 108.703812 262.812235 
L 108.948465 261.657393 
L 109.193118 262.154414 
L 109.437771 259.903202 
L 110.17173 262.9438 
L 110.416383 262.60758 
L 110.661036 262.724526 
L 110.905689 263.250783 
L 111.150342 263.046128 
L 111.394995 262.680671 
L 111.884301 264.054788 
L 112.128954 263.879368 
L 112.373607 264.595663 
L 112.61826 264.741846 
L 112.862913 265.472759 
L 113.107566 265.618941 
L 113.35222 266.715311 
L 113.596873 267.022294 
L 113.841526 268.162518 
L 114.086179 266.364472 
L 114.330832 266.656838 
L 115.064791 268.776485 
L 115.309444 268.674157 
L 115.554097 268.206373 
L 115.79875 266.686074 
L 116.288056 267.504697 
L 116.777362 267.709352 
L 117.022015 267.13924 
L 117.511321 266.715311 
L 117.755974 267.314659 
L 118.000627 266.393709 
L 118.24528 267.270804 
L 118.489933 266.80302 
L 118.734586 266.934585 
L 118.979239 266.203672 
L 119.223892 265.88207 
L 119.468545 265.984398 
L 119.713198 266.569128 
L 119.957851 266.408327 
L 120.202504 266.627601 
L 120.447157 266.13058 
L 120.69181 265.004974 
L 120.936463 264.53719 
L 121.181116 264.522572 
L 121.425769 264.376389 
L 121.670422 263.835514 
L 121.915075 263.777041 
L 122.159728 263.294638 
L 122.649034 264.420244 
L 123.13834 264.054788 
L 123.382993 263.499294 
L 123.627646 252.02396 
L 123.872299 252.535599 
L 124.116952 250.459807 
L 124.361605 247.24379 
L 124.606258 248.457105 
L 125.340217 244.963341 
L 125.58487 245.89891 
L 125.829523 245.431126 
L 126.074176 245.913528 
L 126.318829 245.972001 
L 126.563482 246.381312 
L 126.808135 248.135504 
L 127.052788 248.676379 
L 127.297441 248.807943 
L 127.786747 246.980661 
L 128.0314 246.103566 
L 128.276053 246.23513 
L 128.520706 245.89891 
L 128.765359 242.975258 
L 129.010012 241.820416 
L 129.254665 244.30552 
L 129.743971 241.908125 
L 129.988624 241.893507 
L 130.233277 241.045648 
L 130.47793 241.177212 
L 130.722583 239.890806 
L 130.967236 238.00505 
L 131.211889 237.873486 
L 131.456542 238.516689 
L 131.701195 236.41166 
L 132.190501 237.478793 
L 132.435154 240.110079 
L 132.679807 236.367805 
L 132.92446 236.133913 
L 133.169113 235.037544 
L 133.413766 232.830186 
L 133.658419 233.268734 
L 134.147725 229.950389 
L 134.637031 227.348339 
L 134.881684 228.824784 
L 135.126337 228.547037 
L 135.37099 228.751692 
L 135.615643 230.359701 
L 135.860297 227.640705 
L 136.10495 228.400854 
L 136.349603 233.341826 
L 136.594256 233.882701 
L 136.838909 230.549738 
L 137.083562 230.462029 
L 137.328215 229.877298 
L 137.572868 229.891916 
L 138.306827 222.992098 
L 138.55148 223.532974 
L 139.040786 226.383534 
L 139.285439 225.57953 
L 139.530092 226.310443 
L 139.774745 228.824784 
L 140.019398 230.038099 
L 140.264051 230.608211 
L 140.508704 228.868638 
L 140.753357 229.52646 
L 140.99801 231.763054 
L 141.242663 229.014821 
L 141.487316 230.44741 
L 141.731969 232.727859 
L 141.976622 232.771713 
L 142.221275 234.715942 
L 142.465928 234.131211 
L 142.710581 231.046759 
L 142.955234 230.637448 
L 143.199887 230.608211 
L 143.44454 235.256817 
L 143.689193 234.48205 
L 143.933846 234.379722 
L 144.178499 233.985029 
L 144.423152 234.672087 
L 144.667805 236.733262 
L 145.157111 234.292012 
L 145.401764 233.531863 
L 145.646417 233.458772 
L 145.89107 233.941174 
L 146.135723 231.178323 
L 146.625029 232.172365 
L 146.869682 230.856721 
L 147.114335 228.810165 
L 147.358988 230.067336 
L 147.848294 224.307741 
L 148.092947 223.591447 
L 148.582253 221.018633 
L 148.826906 221.778783 
L 149.071559 221.676455 
L 149.316212 217.802616 
L 149.560865 217.524869 
L 149.805518 217.861089 
L 150.294824 223.737629 
L 150.539477 222.363513 
L 150.78413 222.275804 
L 151.028783 222.495077 
L 151.273436 218.635857 
L 151.518089 217.583342 
L 151.762742 217.130176 
L 152.007395 218.606621 
L 152.252048 217.554106 
L 152.496701 220.521612 
L 152.741354 217.846471 
L 152.986007 218.051127 
L 153.23066 218.650475 
L 153.475313 219.9515 
L 153.719966 216.720865 
L 154.209272 219.469098 
L 154.453925 222.655878 
L 154.698578 223.971522 
L 154.943231 221.647218 
L 155.187884 224.000758 
L 155.432537 212.963973 
L 155.67719 210.785852 
L 155.921843 212.379242 
L 156.166496 210.522723 
L 156.411149 211.341346 
L 156.655802 211.385201 
L 156.900455 208.227657 
L 157.145108 209.353263 
L 157.389761 207.452889 
L 157.634414 208.037619 
L 157.879067 203.827561 
L 158.12372 204.178399 
L 158.368374 203.871416 
L 158.613027 202.760428 
L 158.85768 200.465361 
L 159.102333 201.98566 
L 159.346986 198.784261 
L 159.836292 201.006237 
L 160.325598 202.175697 
L 160.570251 203.710615 
L 160.814904 201.678677 
L 161.059557 197.629419 
L 161.548863 200.216851 
L 161.793516 196.956979 
L 162.038169 199.778303 
L 162.282822 198.638079 
L 162.527475 201.634822 
L 162.772128 203.257449 
L 163.016781 201.766386 
L 163.261434 201.108565 
L 163.75074 204.353818 
L 163.995393 203.959125 
L 164.240046 208.549258 
L 164.484699 207.394416 
L 164.729352 213.987251 
L 164.974005 213.124773 
L 165.218658 214.528126 
L 165.463311 214.191906 
L 165.707964 210.712761 
L 165.952617 210.566578 
L 166.441923 219.293679 
L 166.686576 219.001314 
L 166.931229 217.188649 
L 167.175882 211.019744 
L 167.420535 215.770678 
L 167.665188 216.691629 
L 168.399147 214.952056 
L 168.6438 216.09228 
L 169.133106 210.113412 
L 169.377759 212.554661 
L 169.622412 213.270956 
L 169.867065 217.890326 
L 170.111718 220.185392 
L 170.601024 214.864346 
L 170.845677 212.861645 
L 171.09033 213.870305 
L 171.334983 212.759317 
L 171.579636 216.691629 
L 172.068942 219.27906 
L 172.313595 218.577384 
L 172.558248 214.791255 
L 172.802901 214.791255 
L 173.047554 215.66835 
L 173.292207 217.583342 
L 173.53686 217.43716 
L 173.781513 215.697587 
L 174.026166 216.647774 
L 174.270819 213.82645 
L 174.515472 213.782595 
L 174.760125 212.56928 
L 175.004778 209.45559 
L 175.249431 209.411736 
L 175.494084 208.943951 
L 175.738737 209.718719 
L 176.228043 210.347304 
L 176.472696 209.660246 
L 176.717349 209.87952 
L 176.962002 210.88818 
L 177.206655 210.332686 
L 177.451308 206.108009 
L 177.695961 206.093391 
L 177.940614 208.271511 
L 178.185267 207.964528 
L 178.42992 208.417694 
L 178.674573 208.110711 
L 178.919226 206.35652 
L 179.163879 208.19842 
L 179.408532 207.964528 
L 179.653185 206.692739 
L 179.897838 206.1811 
L 180.142491 203.66676 
L 180.387144 204.119926 
L 180.631798 203.432868 
L 180.876451 203.886034 
L 181.121104 202.760428 
L 181.365757 205.113968 
L 181.61041 205.34786 
L 181.855063 206.809686 
L 182.099716 210.508105 
L 182.344369 207.27747 
L 182.589022 207.423652 
L 183.078328 202.99432 
L 183.322981 204.061453 
L 183.567634 203.345158 
L 183.812287 205.172441 
L 184.05694 202.234171 
L 184.301593 200.801581 
L 184.546246 200.991619 
L 184.790899 198.03873 
L 185.035552 192.644593 
L 185.280205 192.337609 
L 185.524858 192.732302 
L 185.769511 194.501112 
L 186.014164 193.08314 
L 186.258817 196.050647 
L 186.50347 196.474577 
L 186.748123 194.793477 
L 186.992776 195.992174 
L 187.237429 196.313776 
L 187.482082 195.290498 
L 187.726735 195.451298 
L 187.971388 194.895805 
L 188.216041 195.787518 
L 188.705347 193.638634 
L 188.95 194.618058 
L 189.439306 192.191427 
L 189.683959 192.893103 
L 189.928612 193.243941 
L 190.173265 193.243941 
L 190.417918 192.58612 
L 190.662571 191.212003 
L 191.151877 194.281838 
L 191.39653 192.878485 
L 191.641183 190.159489 
L 191.885836 191.402041 
L 192.130489 191.226622 
L 192.375142 189.31163 
L 192.619795 188.390679 
L 192.864448 190.174107 
L 193.353754 188.346825 
L 193.598407 188.990028 
L 193.84306 193.229323 
L 194.087713 191.036584 
L 194.332366 190.524945 
L 194.577019 189.691704 
L 194.821672 188.361443 
L 195.066325 189.98407 
L 195.310978 187.805949 
L 195.555631 187.455111 
L 195.800284 189.370103 
L 196.044937 187.075036 
L 196.28959 186.768053 
L 196.534243 186.70958 
L 196.778896 190.349526 
L 197.268202 189.048501 
L 197.512855 188.873082 
L 197.757508 190.729601 
L 198.002161 188.931555 
L 198.246814 191.285095 
L 198.491467 195.670572 
L 198.73612 195.553626 
L 198.980773 194.676531 
L 199.225426 195.232025 
L 199.470079 196.079884 
L 199.714732 191.226622 
L 199.959385 189.764796 
L 200.204038 187.221219 
L 200.448691 187.689003 
L 200.693344 185.247754 
L 200.937997 184.326803 
L 201.18265 184.896915 
L 201.427303 184.180621 
L 201.671956 191.358186 
L 201.916609 193.916381 
L 202.161262 192.629974 
L 202.405915 194.252601 
L 202.650568 191.504368 
L 202.895221 192.863867 
L 203.384528 191.738261 
L 203.873834 193.185468 
L 204.118487 193.024667 
L 204.36314 193.711726 
L 204.607793 192.790775 
L 204.852446 193.726344 
L 205.097099 193.580161 
L 205.341752 195.056605 
L 206.075711 194.062564 
L 206.565017 188.785372 
L 206.80967 188.668426 
L 207.054323 192.469174 
L 207.298976 191.942916 
L 207.543629 192.790775 
L 207.788282 192.264518 
L 208.032935 190.627273 
L 208.277588 190.393381 
L 208.522241 189.925597 
L 208.766894 190.890402 
L 209.011547 188.624571 
L 209.2562 188.478389 
L 209.500853 189.706323 
L 209.745506 193.068522 
L 209.990159 190.992729 
L 210.479465 185.481646 
L 210.724118 183.186579 
L 210.968771 184.414513 
L 211.213424 184.180621 
L 211.458077 184.166002 
L 211.947383 186.446451 
L 212.192036 188.200642 
L 212.436689 187.572057 
L 212.925995 190.934256 
L 213.170648 190.934256 
L 213.415301 187.981368 
L 213.659954 188.609953 
L 213.904607 190.101016 
L 214.393913 190.744219 
L 214.638566 194.004091 
L 215.127872 190.802692 
L 215.372525 190.071779 
L 215.617178 188.741518 
L 215.861831 188.478389 
L 216.106484 188.960791 
L 216.351137 191.475132 
L 216.59579 190.802692 
L 216.840443 188.229878 
L 217.085096 191.285095 
L 217.329749 192.629974 
L 217.819055 191.694406 
L 218.063708 191.723642 
L 218.308361 193.390124 
L 218.553014 193.433979 
L 218.797667 192.337609 
L 219.04232 190.407999 
L 219.286973 190.81731 
L 219.531626 191.533605 
L 219.776279 191.738261 
L 220.020932 190.115634 
L 220.265585 186.154086 
L 220.510238 185.467028 
L 220.754891 187.001945 
L 220.999544 187.572057 
L 221.48885 184.706878 
L 221.733503 186.811907 
L 221.978156 185.671683 
L 222.222809 185.890957 
L 222.467462 184.005202 
L 222.712115 183.537417 
L 222.956768 185.306227 
L 223.201421 186.124849 
L 223.446074 188.8877 
L 223.690727 188.858464 
L 223.93538 186.87038 
L 224.180033 188.156787 
L 224.424686 188.127551 
L 224.913992 183.975965 
L 225.403298 179.751288 
L 225.892605 177.543931 
L 226.137258 181.037695 
L 226.381911 180.906131 
L 226.626564 180.482201 
L 226.871217 180.643002 
L 227.360523 182.864977 
L 227.605176 183.025778 
L 227.849829 181.739372 
L 228.828441 182.324102 
L 229.073094 180.906131 
L 229.317747 180.1606 
L 229.5624 181.359297 
L 229.807053 181.929409 
L 230.051706 184.166002 
L 230.296359 180.789185 
L 230.541012 180.014417 
L 230.785665 178.537973 
L 231.030318 181.783226 
L 231.274971 183.069633 
L 231.519624 182.514139 
L 231.764277 184.312185 
L 232.00893 184.619169 
L 232.253583 187.104273 
L 232.498236 186.782671 
L 232.742889 187.0458 
L 232.987542 188.873082 
L 233.476848 187.615912 
L 233.721501 187.484347 
L 234.210807 189.019264 
L 234.45546 187.586675 
L 234.700113 183.303525 
L 234.944766 184.69226 
L 235.189419 184.01982 
L 235.434072 184.385276 
L 235.923378 184.60455 
L 236.168031 184.516841 
L 236.412684 186.28565 
L 236.657337 184.502222 
L 236.90199 185.101571 
L 237.146643 186.490306 
L 237.391296 184.882297 
L 237.635949 184.663023 
L 237.880602 181.739372 
L 238.125255 182.309484 
L 238.369908 182.177919 
L 238.614561 184.326803 
L 238.859214 184.326803 
L 239.103867 182.148683 
L 239.593173 183.069633 
L 239.837826 184.26833 
L 240.082479 183.756691 
L 240.327132 182.689558 
L 240.571785 181.052313 
L 240.816438 181.637044 
L 241.550397 172.354449 
L 241.79505 173.640856 
L 242.039703 173.597001 
L 242.284356 176.827637 
L 242.529009 176.871491 
L 242.773662 175.20501 
L 243.262968 174.269441 
L 243.507621 174.751844 
L 243.752274 177.04691 
L 243.996927 176.71069 
L 244.486233 170.541785 
L 244.730886 171.155752 
L 244.975539 171.038806 
L 245.220192 169.445416 
L 245.709498 159.124925 
L 245.954151 158.423249 
L 246.443457 162.735635 
L 246.68811 160.528278 
L 246.932763 164.592154 
L 247.177416 162.954909 
L 247.422069 160.469805 
L 247.911375 164.826046 
L 248.156029 164.636009 
L 248.400682 164.752955 
L 248.645335 161.273809 
L 249.134641 164.402116 
L 249.379294 164.62139 
L 249.623947 165.396158 
L 249.8686 164.562917 
L 250.113253 165.673905 
L 250.357906 164.226697 
L 250.602559 164.942992 
L 250.847212 163.130328 
L 251.091865 162.925672 
L 251.825824 182.251011 
L 252.070477 180.920749 
L 252.559783 171.082661 
L 252.804436 169.211524 
L 253.293742 174.737225 
L 253.538395 170.848769 
L 253.783048 173.392346 
L 254.027701 173.231545 
L 254.76166 167.793553 
L 255.006313 167.691225 
L 255.250966 167.31115 
L 256.229578 164.255934 
L 256.474231 162.574834 
L 256.718884 166.360963 
L 256.963537 164.884519 
L 257.20819 164.241316 
L 257.452843 166.63871 
L 257.942149 175.555848 
L 258.186802 170.83415 
L 258.676108 167.661988 
L 258.920761 164.826046 
L 259.165414 166.594855 
L 259.410067 167.179586 
L 259.65472 167.077258 
L 260.144026 164.460589 
L 260.633332 164.738336 
L 261.122638 159.665801 
L 261.367291 158.306302 
L 261.611944 160.455187 
L 261.856597 160.294386 
L 262.590556 150.558625 
L 262.835209 150.660953 
L 263.324515 148.935998 
L 263.569168 153.189912 
L 263.813821 151.231065 
L 264.058474 152.298198 
L 264.303127 150.310115 
L 264.54778 143.264114 
L 264.792433 145.705363 
L 265.037086 146.582459 
L 265.526392 142.898658 
L 265.771045 144.345865 
L 266.015698 150.295497 
L 266.260351 150.163932 
L 266.505004 148.570542 
L 266.749657 144.711322 
L 266.99431 146.918679 
L 267.238963 145.369143 
L 267.483616 145.910019 
L 267.728269 147.678828 
L 267.972922 148.161231 
L 268.217575 148.102758 
L 268.462228 149.871567 
L 268.706881 145.661508 
L 268.951534 147.196426 
L 269.196187 149.666911 
L 269.44084 147.035625 
L 269.685493 147.868866 
L 269.930146 146.582459 
L 270.174799 149.34531 
L 270.419452 148.146613 
L 270.664106 152.970638 
L 270.908759 149.2576 
L 271.153412 149.418401 
L 271.398065 146.143911 
L 271.642718 146.977152 
L 271.887371 150.163932 
L 272.376677 148.015048 
L 272.62133 149.301455 
L 272.865983 148.731343 
L 273.355289 145.456853 
L 273.599942 146.977152 
L 273.844595 149.2576 
L 274.089248 152.824455 
L 274.333901 152.078924 
L 274.578554 151.728086 
L 274.823207 159.110307 
L 275.06786 159.972784 
L 275.312513 159.709655 
L 275.557166 156.990659 
L 275.801819 162.735635 
L 276.046472 158.452485 
L 276.291125 163.422693 
L 276.535778 162.998764 
L 276.780431 164.329025 
L 277.025084 164.606772 
L 277.269737 159.08107 
L 277.51439 160.440568 
L 277.759043 159.958166 
L 278.003696 164.182843 
L 278.248349 142.752475 
L 278.737655 134.010756 
L 278.982308 134.712433 
L 279.471614 140.735155 
L 279.96092 156.435165 
L 280.205573 156.742149 
L 280.694879 153.277621 
L 280.939532 153.131439 
L 281.184185 153.716169 
L 281.428838 148.468214 
L 281.673491 150.997173 
L 281.918144 149.389165 
L 282.162797 145.603035 
L 282.40745 148.088139 
L 282.896756 144.272774 
L 283.141409 144.492048 
L 283.386062 144.448193 
L 283.630715 145.953874 
L 283.875368 141.714579 
L 284.120021 141.524541 
L 284.364674 142.065417 
L 284.609327 143.80499 
L 284.85398 147.693446 
L 285.098633 147.401081 
L 285.343286 145.091396 
L 285.587939 145.369143 
L 285.832592 142.313927 
L 286.077245 141.612251 
L 286.321898 140.472027 
L 286.566551 138.264669 
L 286.811204 139.960388 
L 288.279122 136.057312 
L 288.523775 132.475839 
L 288.768428 134.580868 
L 289.013081 135.457964 
L 289.257734 132.592785 
L 289.502387 137.723794 
L 289.74704 138.206196 
L 289.991693 136.028076 
L 290.236346 136.130404 
L 290.480999 140.5305 
L 290.725652 142.927894 
L 290.970305 140.559736 
L 291.214958 140.705919 
L 291.459611 140.223516 
L 291.704264 141.977707 
L 291.948917 140.793628 
L 292.19357 138.103869 
L 292.438223 137.913831 
L 292.682876 136.422769 
L 292.92753 140.632827 
L 293.172183 141.305267 
L 293.416836 143.264114 
L 293.661489 143.074077 
L 293.906142 131.613362 
L 294.395448 128.923602 
L 294.640101 130.590084 
L 294.884754 129.669133 
L 295.129407 130.03459 
L 295.37406 127.578722 
L 295.618713 127.944179 
L 295.863366 126.102278 
L 296.108019 127.534867 
L 296.352672 126.42388 
L 296.597325 127.110938 
L 297.086631 130.70703 
L 297.331284 130.268482 
L 297.575937 131.496416 
L 297.82059 130.70703 
L 298.065243 132.724349 
L 298.309896 130.195391 
L 298.554549 129.917644 
L 298.799202 127.607959 
L 299.043855 127.739523 
L 299.288508 128.572764 
L 299.533161 128.616619 
L 299.777814 128.397345 
L 300.022467 129.069785 
L 300.26712 128.602 
L 300.511773 130.107681 
L 300.756426 129.186731 
L 301.001079 128.93822 
L 301.490385 135.677238 
L 301.735038 134.23003 
L 302.224344 135.034034 
L 302.468997 137.036736 
L 302.71365 136.525097 
L 302.958303 135.048653 
L 303.202956 135.735711 
L 303.447609 134.025374 
L 303.936915 142.957131 
L 304.181568 137.50452 
L 304.426221 135.370254 
L 304.670874 135.194835 
L 304.915527 135.326399 
L 305.16018 135.604146 
L 305.404833 131.657216 
L 305.649486 132.899768 
L 305.894139 130.86783 
L 306.138792 129.94688 
L 306.383445 129.859171 
L 306.628098 131.54027 
L 306.872751 130.794739 
L 307.117404 131.423324 
L 307.362057 127.754141 
L 307.851363 124.026485 
L 308.096016 125.941477 
L 308.340669 125.371365 
L 308.585322 124.450415 
L 308.829975 125.049763 
L 309.319281 119.524062 
L 309.563934 121.073597 
L 309.808587 120.532721 
L 310.05324 122.316149 
L 310.297893 123.164008 
L 310.542546 120.45963 
L 310.787199 119.304788 
L 311.031852 119.143987 
L 311.521158 119.699481 
L 312.010464 119.699481 
L 312.49977 122.009166 
L 312.744423 120.445012 
L 313.233729 121.629091 
L 313.478382 120.766614 
L 313.723035 120.445012 
L 313.967688 121.746037 
L 314.212341 121.146688 
L 314.456994 119.582535 
L 314.701647 117.27285 
L 314.9463 118.296128 
L 315.190953 117.886817 
L 315.435607 117.813725 
L 315.68026 117.316704 
L 315.924913 112.609625 
L 316.169566 110.680015 
L 316.414219 111.820239 
L 316.658872 116.454227 
L 316.903525 114.129924 
L 317.148178 116.293426 
L 317.882137 113.57443 
L 318.12679 114.188397 
L 318.371443 114.203015 
L 318.616096 112.302642 
L 318.860749 112.097986 
L 319.105402 115.197057 
L 319.350055 116.147244 
L 319.594708 114.129924 
L 319.839361 113.340538 
L 320.084014 115.00702 
L 320.328667 114.743891 
L 320.57332 114.012978 
L 320.817973 114.860837 
L 321.551932 113.691376 
L 321.796585 111.864094 
L 322.041238 113.852177 
L 322.285891 113.603667 
L 322.530544 115.401713 
L 322.775197 115.314003 
L 323.01985 115.811024 
L 323.264503 114.305343 
L 323.509156 112.054131 
L 323.753809 112.214932 
L 324.243115 107.420143 
L 324.732421 110.694633 
L 324.977074 112.668098 
L 325.221727 110.329177 
L 325.46638 110.767724 
L 325.711033 112.945845 
L 325.955686 116.351899 
L 326.200339 126.833191 
L 326.444992 125.736822 
L 326.689645 123.690265 
L 326.934298 120.664286 
L 327.178951 122.184585 
L 327.91291 134.025374 
L 328.157563 130.926304 
L 328.402216 132.183474 
L 328.646869 130.063826 
L 328.891522 131.189432 
L 329.136175 124.245759 
L 329.380828 124.684307 
L 329.870134 126.277697 
L 330.114787 126.233842 
L 330.35944 125.561402 
L 330.848746 133.996138 
L 331.093399 133.55759 
L 331.338052 130.590084 
L 331.582705 130.765503 
L 331.827358 129.829934 
L 332.316664 127.300975 
L 332.561317 130.093063 
L 332.80597 126.380025 
L 333.050623 126.526208 
L 333.295276 125.99995 
L 333.784582 127.944179 
L 334.273888 128.236544 
L 334.518541 130.633938 
L 334.763194 130.823976 
L 335.007847 129.742225 
L 335.2525 131.335615 
L 335.497153 132.168856 
L 335.741806 134.069229 
L 336.475765 125.853768 
L 336.720418 121.848365 
L 336.965071 119.670244 
L 337.209724 120.474248 
L 337.454377 117.930671 
L 337.69903 117.155904 
L 337.943684 114.641563 
L 338.188337 115.328621 
L 338.43299 115.25553 
L 338.922296 116.541937 
L 339.166949 113.779086 
L 339.411602 113.135882 
L 339.900908 108.151056 
L 340.145561 109.028152 
L 340.634867 111.747148 
L 340.87952 107.493234 
L 341.124173 110.986998 
L 341.368826 110.782343 
L 341.613479 109.203571 
L 341.858132 109.525172 
L 342.102785 106.075263 
L 342.347438 106.162973 
L 342.592091 106.089882 
L 343.081397 106.586902 
L 343.32605 107.186251 
L 343.570703 106.601521 
L 343.815356 107.054687 
L 344.060009 106.77694 
L 344.304662 103.268558 
L 344.549315 104.379545 
L 344.793968 104.262599 
L 345.038621 102.844628 
L 345.283274 104.116417 
L 345.527927 101.368184 
L 345.77258 102.332989 
L 346.261886 101.368184 
L 346.506539 101.543603 
L 346.995845 100.169487 
L 347.485151 98.181404 
L 347.729804 98.590715 
L 348.21911 97.611291 
L 348.463763 97.830565 
L 348.708416 97.684383 
L 348.953069 99.774794 
L 349.197722 98.196022 
L 349.442375 98.283731 
L 349.687028 97.099652 
L 349.931681 97.128889 
L 350.420987 93.722835 
L 350.910293 94.59993 
L 351.154946 94.26371 
L 351.399599 95.067714 
L 351.644252 94.892295 
L 352.133558 96.456449 
L 352.378211 96.076374 
L 352.622864 97.713619 
L 353.11217 98.488387 
L 353.356823 95.52088 
L 353.601476 96.19332 
L 354.090782 92.041735 
L 354.335435 92.217154 
L 354.824741 88.109423 
L 355.069394 88.007095 
L 355.314047 86.340614 
L 355.803353 79.382323 
L 356.048006 78.914538 
L 356.781965 82.627576 
L 357.026618 81.428879 
L 357.271271 82.276738 
L 357.760577 82.919941 
L 358.00523 82.496012 
L 358.249883 82.700667 
L 358.494536 83.300016 
L 358.739189 90.506818 
L 358.983842 86.399087 
L 359.228495 85.814356 
L 359.473148 85.551228 
L 359.717801 85.799738 
L 360.207107 80.113235 
L 360.696414 79.499269 
L 360.941067 80.844148 
L 361.18572 80.741821 
L 361.430373 77.701223 
L 361.675026 77.671986 
L 361.919679 78.870683 
L 362.164332 78.417517 
L 362.408985 76.093214 
L 362.653638 83.563145 
L 362.898291 85.258863 
L 363.142944 81.984373 
L 363.63225 83.270779 
L 363.876903 82.042846 
L 364.121556 78.782974 
L 364.366209 79.689306 
L 364.610862 77.262675 
L 364.855515 78.008206 
L 365.100168 75.566957 
L 365.344821 77.730459 
L 365.589474 82.130555 
L 365.834127 78.242098 
L 366.07878 81.458115 
L 366.323433 81.545825 
L 366.568086 85.273481 
L 366.812739 82.481393 
L 367.057392 84.703369 
L 367.546698 77.862024 
L 367.791351 75.274592 
L 368.036004 69.968164 
L 368.280657 69.441906 
L 368.52531 68.40401 
L 368.769963 68.754848 
L 369.014616 64.179333 
L 369.259269 62.308196 
L 369.503922 61.738084 
L 369.748575 61.884267 
L 369.993228 59.5892 
L 370.237881 60.641715 
L 370.482534 60.159312 
L 370.727187 53.098693 
L 370.97184 50.160423 
L 371.216493 54.838266 
L 371.461146 53.946552 
L 371.950452 55.803071 
L 372.195105 54.29739 
L 372.439758 50.847481 
L 372.684411 51.943851 
L 372.929064 52.016942 
L 373.173717 57.542644 
L 373.41837 56.548602 
L 373.663023 52.645527 
L 373.907676 52.280071 
L 374.152329 53.741896 
L 374.396982 58.258938 
L 374.886288 56.98715 
L 375.130941 54.268154 
L 375.620247 57.045623 
L 375.8649 59.121416 
L 376.354206 56.592457 
L 376.843512 50.862099 
L 377.088165 50.789008 
L 377.332818 52.689382 
L 377.822124 49.049435 
L 378.066777 52.353162 
L 378.31143 48.610888 
L 378.556083 49.414892 
L 378.800736 49.283327 
L 379.045389 52.338544 
L 379.290042 51.344502 
L 379.534695 53.727278 
L 379.779348 50.058095 
L 380.024001 50.569734 
L 380.268654 52.11927 
L 380.513307 52.95251 
L 380.75796 64.164715 
L 381.002613 62.205868 
L 381.247266 57.133332 
L 381.491919 55.598415 
L 381.736572 52.470108 
L 381.981225 54.516664 
L 382.225878 53.800369 
L 382.470531 56.051581 
L 382.715184 51.929232 
L 382.959838 50.482025 
L 383.204491 50.087332 
L 383.449144 51.417593 
L 383.693797 49.736493 
L 383.93845 50.01424 
L 384.672409 44.81014 
L 384.917062 44.927086 
L 385.161715 47.07597 
L 385.406368 46.462003 
L 385.651021 51.885378 
L 385.895674 51.11061 
L 386.140327 52.864801 
L 386.38498 52.820946 
L 386.629633 42.222708 
L 386.874286 39.313675 
L 387.118939 39.035928 
L 387.363592 35.235181 
L 387.608245 40.702409 
L 387.852898 40.702409 
L 387.852898 40.702409 
" style="fill:none;stroke:#ff7f0e;stroke-linecap:square;stroke-width:1.5;"/>
   </g>
   <g id="patch_3">
    <path d="M 46.965625 288.430125 
L 46.965625 22.318125 
" style="fill:none;stroke:#000000;stroke-linecap:square;stroke-linejoin:miter;stroke-width:0.8;"/>
   </g>
   <g id="patch_4">
    <path d="M 404.085625 288.430125 
L 404.085625 22.318125 
" style="fill:none;stroke:#000000;stroke-linecap:square;stroke-linejoin:miter;stroke-width:0.8;"/>
   </g>
   <g id="patch_5">
    <path d="M 46.965625 288.430125 
L 404.085625 288.430125 
" style="fill:none;stroke:#000000;stroke-linecap:square;stroke-linejoin:miter;stroke-width:0.8;"/>
   </g>
   <g id="patch_6">
    <path d="M 46.965625 22.318125 
L 404.085625 22.318125 
" style="fill:none;stroke:#000000;stroke-linecap:square;stroke-linejoin:miter;stroke-width:0.8;"/>
   </g>
   <g id="text_17">
    <!-- Training: FB -->
    <defs>
     <path d="M -0.296875 72.90625 
L 61.375 72.90625 
L 61.375 64.59375 
L 35.5 64.59375 
L 35.5 0 
L 25.59375 0 
L 25.59375 64.59375 
L -0.296875 64.59375 
z
" id="DejaVuSans-84"/>
     <path d="M 54.890625 33.015625 
L 54.890625 0 
L 45.90625 0 
L 45.90625 32.71875 
Q 45.90625 40.484375 42.875 44.328125 
Q 39.84375 48.1875 33.796875 48.1875 
Q 26.515625 48.1875 22.3125 43.546875 
Q 18.109375 38.921875 18.109375 30.90625 
L 18.109375 0 
L 9.078125 0 
L 9.078125 54.6875 
L 18.109375 54.6875 
L 18.109375 46.1875 
Q 21.34375 51.125 25.703125 53.5625 
Q 30.078125 56 35.796875 56 
Q 45.21875 56 50.046875 50.171875 
Q 54.890625 44.34375 54.890625 33.015625 
z
" id="DejaVuSans-110"/>
     <path d="M 45.40625 27.984375 
Q 45.40625 37.75 41.375 43.109375 
Q 37.359375 48.484375 30.078125 48.484375 
Q 22.859375 48.484375 18.828125 43.109375 
Q 14.796875 37.75 14.796875 27.984375 
Q 14.796875 18.265625 18.828125 12.890625 
Q 22.859375 7.515625 30.078125 7.515625 
Q 37.359375 7.515625 41.375 12.890625 
Q 45.40625 18.265625 45.40625 27.984375 
z
M 54.390625 6.78125 
Q 54.390625 -7.171875 48.1875 -13.984375 
Q 42 -20.796875 29.203125 -20.796875 
Q 24.46875 -20.796875 20.265625 -20.09375 
Q 16.0625 -19.390625 12.109375 -17.921875 
L 12.109375 -9.1875 
Q 16.0625 -11.328125 19.921875 -12.34375 
Q 23.78125 -13.375 27.78125 -13.375 
Q 36.625 -13.375 41.015625 -8.765625 
Q 45.40625 -4.15625 45.40625 5.171875 
L 45.40625 9.625 
Q 42.625 4.78125 38.28125 2.390625 
Q 33.9375 0 27.875 0 
Q 17.828125 0 11.671875 7.65625 
Q 5.515625 15.328125 5.515625 27.984375 
Q 5.515625 40.671875 11.671875 48.328125 
Q 17.828125 56 27.875 56 
Q 33.9375 56 38.28125 53.609375 
Q 42.625 51.21875 45.40625 46.390625 
L 45.40625 54.6875 
L 54.390625 54.6875 
z
" id="DejaVuSans-103"/>
     <path d="M 11.71875 12.40625 
L 22.015625 12.40625 
L 22.015625 0 
L 11.71875 0 
z
M 11.71875 51.703125 
L 22.015625 51.703125 
L 22.015625 39.3125 
L 11.71875 39.3125 
z
" id="DejaVuSans-58"/>
     <path d="M 9.8125 72.90625 
L 51.703125 72.90625 
L 51.703125 64.59375 
L 19.671875 64.59375 
L 19.671875 43.109375 
L 48.578125 43.109375 
L 48.578125 34.8125 
L 19.671875 34.8125 
L 19.671875 0 
L 9.8125 0 
z
" id="DejaVuSans-70"/>
     <path d="M 19.671875 34.8125 
L 19.671875 8.109375 
L 35.5 8.109375 
Q 43.453125 8.109375 47.28125 11.40625 
Q 51.125 14.703125 51.125 21.484375 
Q 51.125 28.328125 47.28125 31.5625 
Q 43.453125 34.8125 35.5 34.8125 
z
M 19.671875 64.796875 
L 19.671875 42.828125 
L 34.28125 42.828125 
Q 41.5 42.828125 45.03125 45.53125 
Q 48.578125 48.25 48.578125 53.8125 
Q 48.578125 59.328125 45.03125 62.0625 
Q 41.5 64.796875 34.28125 64.796875 
z
M 9.8125 72.90625 
L 35.015625 72.90625 
Q 46.296875 72.90625 52.390625 68.21875 
Q 58.5 63.53125 58.5 54.890625 
Q 58.5 48.1875 55.375 44.234375 
Q 52.25 40.28125 46.1875 39.3125 
Q 53.46875 37.75 57.5 32.78125 
Q 61.53125 27.828125 61.53125 20.40625 
Q 61.53125 10.640625 54.890625 5.3125 
Q 48.25 0 35.984375 0 
L 9.8125 0 
z
" id="DejaVuSans-66"/>
    </defs>
    <g transform="translate(190.359063 16.318125)scale(0.12 -0.12)">
     <use xlink:href="#DejaVuSans-84"/>
     <use x="46.333984" xlink:href="#DejaVuSans-114"/>
     <use x="87.447266" xlink:href="#DejaVuSans-97"/>
     <use x="148.726562" xlink:href="#DejaVuSans-105"/>
     <use x="176.509766" xlink:href="#DejaVuSans-110"/>
     <use x="239.888672" xlink:href="#DejaVuSans-105"/>
     <use x="267.671875" xlink:href="#DejaVuSans-110"/>
     <use x="331.050781" xlink:href="#DejaVuSans-103"/>
     <use x="394.527344" xlink:href="#DejaVuSans-58"/>
     <use x="428.21875" xlink:href="#DejaVuSans-32"/>
     <use x="460.005859" xlink:href="#DejaVuSans-70"/>
     <use x="517.525391" xlink:href="#DejaVuSans-66"/>
    </g>
   </g>
   <g id="legend_1">
    <g id="patch_7">
     <path d="M 53.965625 59.674375 
L 137.69375 59.674375 
Q 139.69375 59.674375 139.69375 57.674375 
L 139.69375 29.318125 
Q 139.69375 27.318125 137.69375 27.318125 
L 53.965625 27.318125 
Q 51.965625 27.318125 51.965625 29.318125 
L 51.965625 57.674375 
Q 51.965625 59.674375 53.965625 59.674375 
z
" style="fill:#ffffff;opacity:0.8;stroke:#cccccc;stroke-linejoin:miter;"/>
    </g>
    <g id="line2d_31">
     <path d="M 55.965625 35.416562 
L 75.965625 35.416562 
" style="fill:none;stroke:#1f77b4;stroke-linecap:square;stroke-width:1.5;"/>
    </g>
    <g id="line2d_32"/>
    <g id="text_18">
     <!-- Predicted -->
     <defs>
      <path d="M 45.40625 46.390625 
L 45.40625 75.984375 
L 54.390625 75.984375 
L 54.390625 0 
L 45.40625 0 
L 45.40625 8.203125 
Q 42.578125 3.328125 38.25 0.953125 
Q 33.9375 -1.421875 27.875 -1.421875 
Q 17.96875 -1.421875 11.734375 6.484375 
Q 5.515625 14.40625 5.515625 27.296875 
Q 5.515625 40.1875 11.734375 48.09375 
Q 17.96875 56 27.875 56 
Q 33.9375 56 38.25 53.625 
Q 42.578125 51.265625 45.40625 46.390625 
z
M 14.796875 27.296875 
Q 14.796875 17.390625 18.875 11.75 
Q 22.953125 6.109375 30.078125 6.109375 
Q 37.203125 6.109375 41.296875 11.75 
Q 45.40625 17.390625 45.40625 27.296875 
Q 45.40625 37.203125 41.296875 42.84375 
Q 37.203125 48.484375 30.078125 48.484375 
Q 22.953125 48.484375 18.875 42.84375 
Q 14.796875 37.203125 14.796875 27.296875 
z
" id="DejaVuSans-100"/>
      <path d="M 18.3125 70.21875 
L 18.3125 54.6875 
L 36.8125 54.6875 
L 36.8125 47.703125 
L 18.3125 47.703125 
L 18.3125 18.015625 
Q 18.3125 11.328125 20.140625 9.421875 
Q 21.96875 7.515625 27.59375 7.515625 
L 36.8125 7.515625 
L 36.8125 0 
L 27.59375 0 
Q 17.1875 0 13.234375 3.875 
Q 9.28125 7.765625 9.28125 18.015625 
L 9.28125 47.703125 
L 2.6875 47.703125 
L 2.6875 54.6875 
L 9.28125 54.6875 
L 9.28125 70.21875 
z
" id="DejaVuSans-116"/>
     </defs>
     <g transform="translate(83.965625 38.916562)scale(0.1 -0.1)">
      <use xlink:href="#DejaVuSans-80"/>
      <use x="58.552734" xlink:href="#DejaVuSans-114"/>
      <use x="97.416016" xlink:href="#DejaVuSans-101"/>
      <use x="158.939453" xlink:href="#DejaVuSans-100"/>
      <use x="222.416016" xlink:href="#DejaVuSans-105"/>
      <use x="250.199219" xlink:href="#DejaVuSans-99"/>
      <use x="305.179688" xlink:href="#DejaVuSans-116"/>
      <use x="344.388672" xlink:href="#DejaVuSans-101"/>
      <use x="405.912109" xlink:href="#DejaVuSans-100"/>
     </g>
    </g>
    <g id="line2d_33">
     <path d="M 55.965625 50.094687 
L 75.965625 50.094687 
" style="fill:none;stroke:#ff7f0e;stroke-linecap:square;stroke-width:1.5;"/>
    </g>
    <g id="line2d_34"/>
    <g id="text_19">
     <!-- True value -->
     <defs>
      <path d="M 8.5 21.578125 
L 8.5 54.6875 
L 17.484375 54.6875 
L 17.484375 21.921875 
Q 17.484375 14.15625 20.5 10.265625 
Q 23.53125 6.390625 29.59375 6.390625 
Q 36.859375 6.390625 41.078125 11.03125 
Q 45.3125 15.671875 45.3125 23.6875 
L 45.3125 54.6875 
L 54.296875 54.6875 
L 54.296875 0 
L 45.3125 0 
L 45.3125 8.40625 
Q 42.046875 3.421875 37.71875 1 
Q 33.40625 -1.421875 27.6875 -1.421875 
Q 18.265625 -1.421875 13.375 4.4375 
Q 8.5 10.296875 8.5 21.578125 
z
M 31.109375 56 
z
" id="DejaVuSans-117"/>
      <path d="M 2.984375 54.6875 
L 12.5 54.6875 
L 29.59375 8.796875 
L 46.6875 54.6875 
L 56.203125 54.6875 
L 35.6875 0 
L 23.484375 0 
z
" id="DejaVuSans-118"/>
      <path d="M 9.421875 75.984375 
L 18.40625 75.984375 
L 18.40625 0 
L 9.421875 0 
z
" id="DejaVuSans-108"/>
     </defs>
     <g transform="translate(83.965625 53.594687)scale(0.1 -0.1)">
      <use xlink:href="#DejaVuSans-84"/>
      <use x="46.333984" xlink:href="#DejaVuSans-114"/>
      <use x="87.447266" xlink:href="#DejaVuSans-117"/>
      <use x="150.826172" xlink:href="#DejaVuSans-101"/>
      <use x="212.349609" xlink:href="#DejaVuSans-32"/>
      <use x="244.136719" xlink:href="#DejaVuSans-118"/>
      <use x="303.316406" xlink:href="#DejaVuSans-97"/>
      <use x="364.595703" xlink:href="#DejaVuSans-108"/>
      <use x="392.378906" xlink:href="#DejaVuSans-117"/>
      <use x="455.757812" xlink:href="#DejaVuSans-101"/>
     </g>
    </g>
   </g>
  </g>
 </g>
 <defs>
  <clipPath id="paf5c3838e9">
   <rect height="266.112" width="357.12" x="46.965625" y="22.318125"/>
  </clipPath>
 </defs>
</svg>
