<?xml version="1.0" encoding="utf-8" standalone="no"?>
<!DOCTYPE svg PUBLIC "-//W3C//DTD SVG 1.1//EN"
  "http://www.w3.org/Graphics/SVG/1.1/DTD/svg11.dtd">
<!-- Created with matplotlib (https://matplotlib.org/) -->
<svg height="325.986375pt" version="1.1" viewBox="0 0 420.82625 325.986375" width="420.82625pt" xmlns="http://www.w3.org/2000/svg" xmlns:xlink="http://www.w3.org/1999/xlink">
 <defs>
  <style type="text/css">
*{stroke-linecap:butt;stroke-linejoin:round;}
  </style>
 </defs>
 <g id="figure_1">
  <g id="patch_1">
   <path d="M 0 325.986375 
L 420.82625 325.986375 
L 420.82625 0 
L 0 0 
z
" style="fill:#ffffff;"/>
  </g>
  <g id="axes_1">
   <g id="patch_2">
    <path d="M 56.50625 288.430125 
L 413.62625 288.430125 
L 413.62625 22.318125 
L 56.50625 22.318125 
z
" style="fill:#ffffff;"/>
   </g>
   <g id="matplotlib.axis_1">
    <g id="xtick_1">
     <g id="line2d_1">
      <path clip-path="url(#p7b90dd5ae0)" d="M 69.673306 288.430125 
L 69.673306 22.318125 
" style="fill:none;stroke:#b0b0b0;stroke-dasharray:2.96,1.28;stroke-dashoffset:0;stroke-width:0.8;"/>
     </g>
     <g id="line2d_2">
      <defs>
       <path d="M 0 0 
L 0 3.5 
" id="mb64e39a94e" style="stroke:#000000;stroke-width:0.8;"/>
      </defs>
      <g>
       <use style="stroke:#000000;stroke-width:0.8;" x="69.673306" xlink:href="#mb64e39a94e" y="288.430125"/>
      </g>
     </g>
     <g id="text_1">
      <!-- 0 -->
      <defs>
       <path d="M 31.78125 66.40625 
Q 24.171875 66.40625 20.328125 58.90625 
Q 16.5 51.421875 16.5 36.375 
Q 16.5 21.390625 20.328125 13.890625 
Q 24.171875 6.390625 31.78125 6.390625 
Q 39.453125 6.390625 43.28125 13.890625 
Q 47.125 21.390625 47.125 36.375 
Q 47.125 51.421875 43.28125 58.90625 
Q 39.453125 66.40625 31.78125 66.40625 
z
M 31.78125 74.21875 
Q 44.046875 74.21875 50.515625 64.515625 
Q 56.984375 54.828125 56.984375 36.375 
Q 56.984375 17.96875 50.515625 8.265625 
Q 44.046875 -1.421875 31.78125 -1.421875 
Q 19.53125 -1.421875 13.0625 8.265625 
Q 6.59375 17.96875 6.59375 36.375 
Q 6.59375 54.828125 13.0625 64.515625 
Q 19.53125 74.21875 31.78125 74.21875 
z
" id="DejaVuSans-48"/>
      </defs>
      <g transform="translate(66.492056 303.028562)scale(0.1 -0.1)">
       <use xlink:href="#DejaVuSans-48"/>
      </g>
     </g>
    </g>
    <g id="xtick_2">
     <g id="line2d_3">
      <path clip-path="url(#p7b90dd5ae0)" d="M 130.986724 288.430125 
L 130.986724 22.318125 
" style="fill:none;stroke:#b0b0b0;stroke-dasharray:2.96,1.28;stroke-dashoffset:0;stroke-width:0.8;"/>
     </g>
     <g id="line2d_4">
      <g>
       <use style="stroke:#000000;stroke-width:0.8;" x="130.986724" xlink:href="#mb64e39a94e" y="288.430125"/>
      </g>
     </g>
     <g id="text_2">
      <!-- 200 -->
      <defs>
       <path d="M 19.1875 8.296875 
L 53.609375 8.296875 
L 53.609375 0 
L 7.328125 0 
L 7.328125 8.296875 
Q 12.9375 14.109375 22.625 23.890625 
Q 32.328125 33.6875 34.8125 36.53125 
Q 39.546875 41.84375 41.421875 45.53125 
Q 43.3125 49.21875 43.3125 52.78125 
Q 43.3125 58.59375 39.234375 62.25 
Q 35.15625 65.921875 28.609375 65.921875 
Q 23.96875 65.921875 18.8125 64.3125 
Q 13.671875 62.703125 7.8125 59.421875 
L 7.8125 69.390625 
Q 13.765625 71.78125 18.9375 73 
Q 24.125 74.21875 28.421875 74.21875 
Q 39.75 74.21875 46.484375 68.546875 
Q 53.21875 62.890625 53.21875 53.421875 
Q 53.21875 48.921875 51.53125 44.890625 
Q 49.859375 40.875 45.40625 35.40625 
Q 44.1875 33.984375 37.640625 27.21875 
Q 31.109375 20.453125 19.1875 8.296875 
z
" id="DejaVuSans-50"/>
      </defs>
      <g transform="translate(121.442974 303.028562)scale(0.1 -0.1)">
       <use xlink:href="#DejaVuSans-50"/>
       <use x="63.623047" xlink:href="#DejaVuSans-48"/>
       <use x="127.246094" xlink:href="#DejaVuSans-48"/>
      </g>
     </g>
    </g>
    <g id="xtick_3">
     <g id="line2d_5">
      <path clip-path="url(#p7b90dd5ae0)" d="M 192.300141 288.430125 
L 192.300141 22.318125 
" style="fill:none;stroke:#b0b0b0;stroke-dasharray:2.96,1.28;stroke-dashoffset:0;stroke-width:0.8;"/>
     </g>
     <g id="line2d_6">
      <g>
       <use style="stroke:#000000;stroke-width:0.8;" x="192.300141" xlink:href="#mb64e39a94e" y="288.430125"/>
      </g>
     </g>
     <g id="text_3">
      <!-- 400 -->
      <defs>
       <path d="M 37.796875 64.3125 
L 12.890625 25.390625 
L 37.796875 25.390625 
z
M 35.203125 72.90625 
L 47.609375 72.90625 
L 47.609375 25.390625 
L 58.015625 25.390625 
L 58.015625 17.1875 
L 47.609375 17.1875 
L 47.609375 0 
L 37.796875 0 
L 37.796875 17.1875 
L 4.890625 17.1875 
L 4.890625 26.703125 
z
" id="DejaVuSans-52"/>
      </defs>
      <g transform="translate(182.756391 303.028562)scale(0.1 -0.1)">
       <use xlink:href="#DejaVuSans-52"/>
       <use x="63.623047" xlink:href="#DejaVuSans-48"/>
       <use x="127.246094" xlink:href="#DejaVuSans-48"/>
      </g>
     </g>
    </g>
    <g id="xtick_4">
     <g id="line2d_7">
      <path clip-path="url(#p7b90dd5ae0)" d="M 253.613559 288.430125 
L 253.613559 22.318125 
" style="fill:none;stroke:#b0b0b0;stroke-dasharray:2.96,1.28;stroke-dashoffset:0;stroke-width:0.8;"/>
     </g>
     <g id="line2d_8">
      <g>
       <use style="stroke:#000000;stroke-width:0.8;" x="253.613559" xlink:href="#mb64e39a94e" y="288.430125"/>
      </g>
     </g>
     <g id="text_4">
      <!-- 600 -->
      <defs>
       <path d="M 33.015625 40.375 
Q 26.375 40.375 22.484375 35.828125 
Q 18.609375 31.296875 18.609375 23.390625 
Q 18.609375 15.53125 22.484375 10.953125 
Q 26.375 6.390625 33.015625 6.390625 
Q 39.65625 6.390625 43.53125 10.953125 
Q 47.40625 15.53125 47.40625 23.390625 
Q 47.40625 31.296875 43.53125 35.828125 
Q 39.65625 40.375 33.015625 40.375 
z
M 52.59375 71.296875 
L 52.59375 62.3125 
Q 48.875 64.0625 45.09375 64.984375 
Q 41.3125 65.921875 37.59375 65.921875 
Q 27.828125 65.921875 22.671875 59.328125 
Q 17.53125 52.734375 16.796875 39.40625 
Q 19.671875 43.65625 24.015625 45.921875 
Q 28.375 48.1875 33.59375 48.1875 
Q 44.578125 48.1875 50.953125 41.515625 
Q 57.328125 34.859375 57.328125 23.390625 
Q 57.328125 12.15625 50.6875 5.359375 
Q 44.046875 -1.421875 33.015625 -1.421875 
Q 20.359375 -1.421875 13.671875 8.265625 
Q 6.984375 17.96875 6.984375 36.375 
Q 6.984375 53.65625 15.1875 63.9375 
Q 23.390625 74.21875 37.203125 74.21875 
Q 40.921875 74.21875 44.703125 73.484375 
Q 48.484375 72.75 52.59375 71.296875 
z
" id="DejaVuSans-54"/>
      </defs>
      <g transform="translate(244.069809 303.028562)scale(0.1 -0.1)">
       <use xlink:href="#DejaVuSans-54"/>
       <use x="63.623047" xlink:href="#DejaVuSans-48"/>
       <use x="127.246094" xlink:href="#DejaVuSans-48"/>
      </g>
     </g>
    </g>
    <g id="xtick_5">
     <g id="line2d_9">
      <path clip-path="url(#p7b90dd5ae0)" d="M 314.926976 288.430125 
L 314.926976 22.318125 
" style="fill:none;stroke:#b0b0b0;stroke-dasharray:2.96,1.28;stroke-dashoffset:0;stroke-width:0.8;"/>
     </g>
     <g id="line2d_10">
      <g>
       <use style="stroke:#000000;stroke-width:0.8;" x="314.926976" xlink:href="#mb64e39a94e" y="288.430125"/>
      </g>
     </g>
     <g id="text_5">
      <!-- 800 -->
      <defs>
       <path d="M 31.78125 34.625 
Q 24.75 34.625 20.71875 30.859375 
Q 16.703125 27.09375 16.703125 20.515625 
Q 16.703125 13.921875 20.71875 10.15625 
Q 24.75 6.390625 31.78125 6.390625 
Q 38.8125 6.390625 42.859375 10.171875 
Q 46.921875 13.96875 46.921875 20.515625 
Q 46.921875 27.09375 42.890625 30.859375 
Q 38.875 34.625 31.78125 34.625 
z
M 21.921875 38.8125 
Q 15.578125 40.375 12.03125 44.71875 
Q 8.5 49.078125 8.5 55.328125 
Q 8.5 64.0625 14.71875 69.140625 
Q 20.953125 74.21875 31.78125 74.21875 
Q 42.671875 74.21875 48.875 69.140625 
Q 55.078125 64.0625 55.078125 55.328125 
Q 55.078125 49.078125 51.53125 44.71875 
Q 48 40.375 41.703125 38.8125 
Q 48.828125 37.15625 52.796875 32.3125 
Q 56.78125 27.484375 56.78125 20.515625 
Q 56.78125 9.90625 50.3125 4.234375 
Q 43.84375 -1.421875 31.78125 -1.421875 
Q 19.734375 -1.421875 13.25 4.234375 
Q 6.78125 9.90625 6.78125 20.515625 
Q 6.78125 27.484375 10.78125 32.3125 
Q 14.796875 37.15625 21.921875 38.8125 
z
M 18.3125 54.390625 
Q 18.3125 48.734375 21.84375 45.5625 
Q 25.390625 42.390625 31.78125 42.390625 
Q 38.140625 42.390625 41.71875 45.5625 
Q 45.3125 48.734375 45.3125 54.390625 
Q 45.3125 60.0625 41.71875 63.234375 
Q 38.140625 66.40625 31.78125 66.40625 
Q 25.390625 66.40625 21.84375 63.234375 
Q 18.3125 60.0625 18.3125 54.390625 
z
" id="DejaVuSans-56"/>
      </defs>
      <g transform="translate(305.383226 303.028562)scale(0.1 -0.1)">
       <use xlink:href="#DejaVuSans-56"/>
       <use x="63.623047" xlink:href="#DejaVuSans-48"/>
       <use x="127.246094" xlink:href="#DejaVuSans-48"/>
      </g>
     </g>
    </g>
    <g id="xtick_6">
     <g id="line2d_11">
      <path clip-path="url(#p7b90dd5ae0)" d="M 376.240394 288.430125 
L 376.240394 22.318125 
" style="fill:none;stroke:#b0b0b0;stroke-dasharray:2.96,1.28;stroke-dashoffset:0;stroke-width:0.8;"/>
     </g>
     <g id="line2d_12">
      <g>
       <use style="stroke:#000000;stroke-width:0.8;" x="376.240394" xlink:href="#mb64e39a94e" y="288.430125"/>
      </g>
     </g>
     <g id="text_6">
      <!-- 1000 -->
      <defs>
       <path d="M 12.40625 8.296875 
L 28.515625 8.296875 
L 28.515625 63.921875 
L 10.984375 60.40625 
L 10.984375 69.390625 
L 28.421875 72.90625 
L 38.28125 72.90625 
L 38.28125 8.296875 
L 54.390625 8.296875 
L 54.390625 0 
L 12.40625 0 
z
" id="DejaVuSans-49"/>
      </defs>
      <g transform="translate(363.515394 303.028562)scale(0.1 -0.1)">
       <use xlink:href="#DejaVuSans-49"/>
       <use x="63.623047" xlink:href="#DejaVuSans-48"/>
       <use x="127.246094" xlink:href="#DejaVuSans-48"/>
       <use x="190.869141" xlink:href="#DejaVuSans-48"/>
      </g>
     </g>
    </g>
    <g id="text_7">
     <!-- Epoch -->
     <defs>
      <path d="M 9.8125 72.90625 
L 55.90625 72.90625 
L 55.90625 64.59375 
L 19.671875 64.59375 
L 19.671875 43.015625 
L 54.390625 43.015625 
L 54.390625 34.71875 
L 19.671875 34.71875 
L 19.671875 8.296875 
L 56.78125 8.296875 
L 56.78125 0 
L 9.8125 0 
z
" id="DejaVuSans-69"/>
      <path d="M 18.109375 8.203125 
L 18.109375 -20.796875 
L 9.078125 -20.796875 
L 9.078125 54.6875 
L 18.109375 54.6875 
L 18.109375 46.390625 
Q 20.953125 51.265625 25.265625 53.625 
Q 29.59375 56 35.59375 56 
Q 45.5625 56 51.78125 48.09375 
Q 58.015625 40.1875 58.015625 27.296875 
Q 58.015625 14.40625 51.78125 6.484375 
Q 45.5625 -1.421875 35.59375 -1.421875 
Q 29.59375 -1.421875 25.265625 0.953125 
Q 20.953125 3.328125 18.109375 8.203125 
z
M 48.6875 27.296875 
Q 48.6875 37.203125 44.609375 42.84375 
Q 40.53125 48.484375 33.40625 48.484375 
Q 26.265625 48.484375 22.1875 42.84375 
Q 18.109375 37.203125 18.109375 27.296875 
Q 18.109375 17.390625 22.1875 11.75 
Q 26.265625 6.109375 33.40625 6.109375 
Q 40.53125 6.109375 44.609375 11.75 
Q 48.6875 17.390625 48.6875 27.296875 
z
" id="DejaVuSans-112"/>
      <path d="M 30.609375 48.390625 
Q 23.390625 48.390625 19.1875 42.75 
Q 14.984375 37.109375 14.984375 27.296875 
Q 14.984375 17.484375 19.15625 11.84375 
Q 23.34375 6.203125 30.609375 6.203125 
Q 37.796875 6.203125 41.984375 11.859375 
Q 46.1875 17.53125 46.1875 27.296875 
Q 46.1875 37.015625 41.984375 42.703125 
Q 37.796875 48.390625 30.609375 48.390625 
z
M 30.609375 56 
Q 42.328125 56 49.015625 48.375 
Q 55.71875 40.765625 55.71875 27.296875 
Q 55.71875 13.875 49.015625 6.21875 
Q 42.328125 -1.421875 30.609375 -1.421875 
Q 18.84375 -1.421875 12.171875 6.21875 
Q 5.515625 13.875 5.515625 27.296875 
Q 5.515625 40.765625 12.171875 48.375 
Q 18.84375 56 30.609375 56 
z
" id="DejaVuSans-111"/>
      <path d="M 48.78125 52.59375 
L 48.78125 44.1875 
Q 44.96875 46.296875 41.140625 47.34375 
Q 37.3125 48.390625 33.40625 48.390625 
Q 24.65625 48.390625 19.8125 42.84375 
Q 14.984375 37.3125 14.984375 27.296875 
Q 14.984375 17.28125 19.8125 11.734375 
Q 24.65625 6.203125 33.40625 6.203125 
Q 37.3125 6.203125 41.140625 7.25 
Q 44.96875 8.296875 48.78125 10.40625 
L 48.78125 2.09375 
Q 45.015625 0.34375 40.984375 -0.53125 
Q 36.96875 -1.421875 32.421875 -1.421875 
Q 20.0625 -1.421875 12.78125 6.34375 
Q 5.515625 14.109375 5.515625 27.296875 
Q 5.515625 40.671875 12.859375 48.328125 
Q 20.21875 56 33.015625 56 
Q 37.15625 56 41.109375 55.140625 
Q 45.0625 54.296875 48.78125 52.59375 
z
" id="DejaVuSans-99"/>
      <path d="M 54.890625 33.015625 
L 54.890625 0 
L 45.90625 0 
L 45.90625 32.71875 
Q 45.90625 40.484375 42.875 44.328125 
Q 39.84375 48.1875 33.796875 48.1875 
Q 26.515625 48.1875 22.3125 43.546875 
Q 18.109375 38.921875 18.109375 30.90625 
L 18.109375 0 
L 9.078125 0 
L 9.078125 75.984375 
L 18.109375 75.984375 
L 18.109375 46.1875 
Q 21.34375 51.125 25.703125 53.5625 
Q 30.078125 56 35.796875 56 
Q 45.21875 56 50.046875 50.171875 
Q 54.890625 44.34375 54.890625 33.015625 
z
" id="DejaVuSans-104"/>
     </defs>
     <g transform="translate(219.755313 316.706687)scale(0.1 -0.1)">
      <use xlink:href="#DejaVuSans-69"/>
      <use x="63.183594" xlink:href="#DejaVuSans-112"/>
      <use x="126.660156" xlink:href="#DejaVuSans-111"/>
      <use x="187.841797" xlink:href="#DejaVuSans-99"/>
      <use x="242.822266" xlink:href="#DejaVuSans-104"/>
     </g>
    </g>
   </g>
   <g id="matplotlib.axis_2">
    <g id="ytick_1">
     <g id="line2d_13">
      <path clip-path="url(#p7b90dd5ae0)" d="M 56.50625 256.775969 
L 413.62625 256.775969 
" style="fill:none;stroke:#b0b0b0;stroke-dasharray:2.96,1.28;stroke-dashoffset:0;stroke-width:0.8;"/>
     </g>
     <g id="line2d_14">
      <defs>
       <path d="M 0 0 
L -3.5 0 
" id="m97328fad6a" style="stroke:#000000;stroke-width:0.8;"/>
      </defs>
      <g>
       <use style="stroke:#000000;stroke-width:0.8;" x="56.50625" xlink:href="#m97328fad6a" y="256.775969"/>
      </g>
     </g>
     <g id="text_8">
      <!-- 0.050 -->
      <defs>
       <path d="M 10.6875 12.40625 
L 21 12.40625 
L 21 0 
L 10.6875 0 
z
" id="DejaVuSans-46"/>
       <path d="M 10.796875 72.90625 
L 49.515625 72.90625 
L 49.515625 64.59375 
L 19.828125 64.59375 
L 19.828125 46.734375 
Q 21.96875 47.46875 24.109375 47.828125 
Q 26.265625 48.1875 28.421875 48.1875 
Q 40.625 48.1875 47.75 41.5 
Q 54.890625 34.8125 54.890625 23.390625 
Q 54.890625 11.625 47.5625 5.09375 
Q 40.234375 -1.421875 26.90625 -1.421875 
Q 22.3125 -1.421875 17.546875 -0.640625 
Q 12.796875 0.140625 7.71875 1.703125 
L 7.71875 11.625 
Q 12.109375 9.234375 16.796875 8.0625 
Q 21.484375 6.890625 26.703125 6.890625 
Q 35.15625 6.890625 40.078125 11.328125 
Q 45.015625 15.765625 45.015625 23.390625 
Q 45.015625 31 40.078125 35.4375 
Q 35.15625 39.890625 26.703125 39.890625 
Q 22.75 39.890625 18.8125 39.015625 
Q 14.890625 38.140625 10.796875 36.28125 
z
" id="DejaVuSans-53"/>
      </defs>
      <g transform="translate(20.878125 260.575187)scale(0.1 -0.1)">
       <use xlink:href="#DejaVuSans-48"/>
       <use x="63.623047" xlink:href="#DejaVuSans-46"/>
       <use x="95.410156" xlink:href="#DejaVuSans-48"/>
       <use x="159.033203" xlink:href="#DejaVuSans-53"/>
       <use x="222.65625" xlink:href="#DejaVuSans-48"/>
      </g>
     </g>
    </g>
    <g id="ytick_2">
     <g id="line2d_15">
      <path clip-path="url(#p7b90dd5ae0)" d="M 56.50625 223.084592 
L 413.62625 223.084592 
" style="fill:none;stroke:#b0b0b0;stroke-dasharray:2.96,1.28;stroke-dashoffset:0;stroke-width:0.8;"/>
     </g>
     <g id="line2d_16">
      <g>
       <use style="stroke:#000000;stroke-width:0.8;" x="56.50625" xlink:href="#m97328fad6a" y="223.084592"/>
      </g>
     </g>
     <g id="text_9">
      <!-- 0.075 -->
      <defs>
       <path d="M 8.203125 72.90625 
L 55.078125 72.90625 
L 55.078125 68.703125 
L 28.609375 0 
L 18.3125 0 
L 43.21875 64.59375 
L 8.203125 64.59375 
z
" id="DejaVuSans-55"/>
      </defs>
      <g transform="translate(20.878125 226.883811)scale(0.1 -0.1)">
       <use xlink:href="#DejaVuSans-48"/>
       <use x="63.623047" xlink:href="#DejaVuSans-46"/>
       <use x="95.410156" xlink:href="#DejaVuSans-48"/>
       <use x="159.033203" xlink:href="#DejaVuSans-55"/>
       <use x="222.65625" xlink:href="#DejaVuSans-53"/>
      </g>
     </g>
    </g>
    <g id="ytick_3">
     <g id="line2d_17">
      <path clip-path="url(#p7b90dd5ae0)" d="M 56.50625 189.393216 
L 413.62625 189.393216 
" style="fill:none;stroke:#b0b0b0;stroke-dasharray:2.96,1.28;stroke-dashoffset:0;stroke-width:0.8;"/>
     </g>
     <g id="line2d_18">
      <g>
       <use style="stroke:#000000;stroke-width:0.8;" x="56.50625" xlink:href="#m97328fad6a" y="189.393216"/>
      </g>
     </g>
     <g id="text_10">
      <!-- 0.100 -->
      <g transform="translate(20.878125 193.192435)scale(0.1 -0.1)">
       <use xlink:href="#DejaVuSans-48"/>
       <use x="63.623047" xlink:href="#DejaVuSans-46"/>
       <use x="95.410156" xlink:href="#DejaVuSans-49"/>
       <use x="159.033203" xlink:href="#DejaVuSans-48"/>
       <use x="222.65625" xlink:href="#DejaVuSans-48"/>
      </g>
     </g>
    </g>
    <g id="ytick_4">
     <g id="line2d_19">
      <path clip-path="url(#p7b90dd5ae0)" d="M 56.50625 155.70184 
L 413.62625 155.70184 
" style="fill:none;stroke:#b0b0b0;stroke-dasharray:2.96,1.28;stroke-dashoffset:0;stroke-width:0.8;"/>
     </g>
     <g id="line2d_20">
      <g>
       <use style="stroke:#000000;stroke-width:0.8;" x="56.50625" xlink:href="#m97328fad6a" y="155.70184"/>
      </g>
     </g>
     <g id="text_11">
      <!-- 0.125 -->
      <g transform="translate(20.878125 159.501058)scale(0.1 -0.1)">
       <use xlink:href="#DejaVuSans-48"/>
       <use x="63.623047" xlink:href="#DejaVuSans-46"/>
       <use x="95.410156" xlink:href="#DejaVuSans-49"/>
       <use x="159.033203" xlink:href="#DejaVuSans-50"/>
       <use x="222.65625" xlink:href="#DejaVuSans-53"/>
      </g>
     </g>
    </g>
    <g id="ytick_5">
     <g id="line2d_21">
      <path clip-path="url(#p7b90dd5ae0)" d="M 56.50625 122.010463 
L 413.62625 122.010463 
" style="fill:none;stroke:#b0b0b0;stroke-dasharray:2.96,1.28;stroke-dashoffset:0;stroke-width:0.8;"/>
     </g>
     <g id="line2d_22">
      <g>
       <use style="stroke:#000000;stroke-width:0.8;" x="56.50625" xlink:href="#m97328fad6a" y="122.010463"/>
      </g>
     </g>
     <g id="text_12">
      <!-- 0.150 -->
      <g transform="translate(20.878125 125.809682)scale(0.1 -0.1)">
       <use xlink:href="#DejaVuSans-48"/>
       <use x="63.623047" xlink:href="#DejaVuSans-46"/>
       <use x="95.410156" xlink:href="#DejaVuSans-49"/>
       <use x="159.033203" xlink:href="#DejaVuSans-53"/>
       <use x="222.65625" xlink:href="#DejaVuSans-48"/>
      </g>
     </g>
    </g>
    <g id="ytick_6">
     <g id="line2d_23">
      <path clip-path="url(#p7b90dd5ae0)" d="M 56.50625 88.319087 
L 413.62625 88.319087 
" style="fill:none;stroke:#b0b0b0;stroke-dasharray:2.96,1.28;stroke-dashoffset:0;stroke-width:0.8;"/>
     </g>
     <g id="line2d_24">
      <g>
       <use style="stroke:#000000;stroke-width:0.8;" x="56.50625" xlink:href="#m97328fad6a" y="88.319087"/>
      </g>
     </g>
     <g id="text_13">
      <!-- 0.175 -->
      <g transform="translate(20.878125 92.118306)scale(0.1 -0.1)">
       <use xlink:href="#DejaVuSans-48"/>
       <use x="63.623047" xlink:href="#DejaVuSans-46"/>
       <use x="95.410156" xlink:href="#DejaVuSans-49"/>
       <use x="159.033203" xlink:href="#DejaVuSans-55"/>
       <use x="222.65625" xlink:href="#DejaVuSans-53"/>
      </g>
     </g>
    </g>
    <g id="ytick_7">
     <g id="line2d_25">
      <path clip-path="url(#p7b90dd5ae0)" d="M 56.50625 54.627711 
L 413.62625 54.627711 
" style="fill:none;stroke:#b0b0b0;stroke-dasharray:2.96,1.28;stroke-dashoffset:0;stroke-width:0.8;"/>
     </g>
     <g id="line2d_26">
      <g>
       <use style="stroke:#000000;stroke-width:0.8;" x="56.50625" xlink:href="#m97328fad6a" y="54.627711"/>
      </g>
     </g>
     <g id="text_14">
      <!-- 0.200 -->
      <g transform="translate(20.878125 58.426929)scale(0.1 -0.1)">
       <use xlink:href="#DejaVuSans-48"/>
       <use x="63.623047" xlink:href="#DejaVuSans-46"/>
       <use x="95.410156" xlink:href="#DejaVuSans-50"/>
       <use x="159.033203" xlink:href="#DejaVuSans-48"/>
       <use x="222.65625" xlink:href="#DejaVuSans-48"/>
      </g>
     </g>
    </g>
    <g id="text_15">
     <!-- Loss -->
     <defs>
      <path d="M 9.8125 72.90625 
L 19.671875 72.90625 
L 19.671875 8.296875 
L 55.171875 8.296875 
L 55.171875 0 
L 9.8125 0 
z
" id="DejaVuSans-76"/>
      <path d="M 44.28125 53.078125 
L 44.28125 44.578125 
Q 40.484375 46.53125 36.375 47.5 
Q 32.28125 48.484375 27.875 48.484375 
Q 21.1875 48.484375 17.84375 46.4375 
Q 14.5 44.390625 14.5 40.28125 
Q 14.5 37.15625 16.890625 35.375 
Q 19.28125 33.59375 26.515625 31.984375 
L 29.59375 31.296875 
Q 39.15625 29.25 43.1875 25.515625 
Q 47.21875 21.78125 47.21875 15.09375 
Q 47.21875 7.46875 41.1875 3.015625 
Q 35.15625 -1.421875 24.609375 -1.421875 
Q 20.21875 -1.421875 15.453125 -0.5625 
Q 10.6875 0.296875 5.421875 2 
L 5.421875 11.28125 
Q 10.40625 8.6875 15.234375 7.390625 
Q 20.0625 6.109375 24.8125 6.109375 
Q 31.15625 6.109375 34.5625 8.28125 
Q 37.984375 10.453125 37.984375 14.40625 
Q 37.984375 18.0625 35.515625 20.015625 
Q 33.0625 21.96875 24.703125 23.78125 
L 21.578125 24.515625 
Q 13.234375 26.265625 9.515625 29.90625 
Q 5.8125 33.546875 5.8125 39.890625 
Q 5.8125 47.609375 11.28125 51.796875 
Q 16.75 56 26.8125 56 
Q 31.78125 56 36.171875 55.265625 
Q 40.578125 54.546875 44.28125 53.078125 
z
" id="DejaVuSans-115"/>
     </defs>
     <g transform="translate(14.798438 166.341312)rotate(-90)scale(0.1 -0.1)">
      <use xlink:href="#DejaVuSans-76"/>
      <use x="53.962891" xlink:href="#DejaVuSans-111"/>
      <use x="115.144531" xlink:href="#DejaVuSans-115"/>
      <use x="167.244141" xlink:href="#DejaVuSans-115"/>
     </g>
    </g>
   </g>
   <g id="line2d_27">
    <path clip-path="url(#p7b90dd5ae0)" d="M 72.738977 242.773793 
L 73.045544 243.302864 
L 73.352111 217.673092 
L 73.658679 207.319669 
L 73.965246 218.92983 
L 74.271813 239.691982 
L 74.57838 250.807698 
L 74.884947 243.864818 
L 75.191514 233.081663 
L 75.498081 230.403075 
L 75.804648 237.244353 
L 76.111215 248.135863 
L 76.417782 253.947104 
L 76.724349 250.317175 
L 77.030916 244.350753 
L 77.337484 242.589128 
L 77.644051 246.388576 
L 77.950618 252.389839 
L 78.257185 255.742803 
L 78.563752 254.070476 
L 78.870319 250.901736 
L 79.176886 250.684719 
L 79.79002 257.45798 
L 80.096587 257.819384 
L 80.403154 255.751649 
L 80.709722 254.675384 
L 81.016289 256.368923 
L 81.322856 258.908551 
L 81.629423 259.405566 
L 81.93599 258.108057 
L 82.242557 257.43954 
L 82.549124 258.534857 
L 82.855691 260.302125 
L 83.162258 260.486098 
L 83.468825 259.387462 
L 83.775392 259.238341 
L 84.388527 261.258191 
L 85.001661 260.285799 
L 85.614795 261.493262 
L 86.227929 260.764359 
L 86.534496 261.011494 
L 86.841063 261.522681 
L 87.14763 261.48671 
L 87.454197 261.135538 
L 87.760765 261.214629 
L 88.067332 261.549862 
L 88.373899 261.583077 
L 88.680466 261.369283 
L 88.987033 261.403567 
L 89.2936 261.642167 
L 89.600167 261.65769 
L 89.906734 261.525061 
L 90.826435 261.705745 
L 91.133003 261.65141 
L 91.746137 261.829187 
L 92.359271 261.77443 
L 92.972405 261.883794 
L 93.585539 261.885094 
L 94.198673 261.959994 
L 95.424942 262.006367 
L 100.943149 262.24926 
L 114.125534 262.749257 
L 143.862542 263.798873 
L 145.08881 263.865017 
L 146.928212 263.928184 
L 147.541347 263.93825 
L 148.154481 263.988414 
L 149.074182 264.056576 
L 152.752987 264.048578 
L 153.366121 263.611773 
L 153.672688 264.204698 
L 153.979255 264.124261 
L 154.285822 263.441742 
L 154.59239 264.039331 
L 154.898957 264.241924 
L 155.205524 263.833881 
L 155.512091 264.147771 
L 155.818658 264.300066 
L 156.125225 264.154183 
L 156.738359 264.317622 
L 157.65806 264.343879 
L 160.723731 264.429913 
L 161.030298 264.342036 
L 161.643433 264.336458 
L 162.563134 264.34052 
L 163.482835 264.534006 
L 164.402536 264.51639 
L 165.935372 264.38981 
L 166.548506 264.502749 
L 169.920744 264.715765 
L 170.840445 264.721077 
L 171.760146 264.434115 
L 172.066714 264.066602 
L 172.679848 264.705383 
L 172.986415 264.636634 
L 173.292982 264.233113 
L 173.599549 264.136907 
L 173.906116 264.522389 
L 174.212683 264.705418 
L 174.51925 264.74154 
L 174.825817 264.547572 
L 176.052086 264.842274 
L 176.358653 264.686145 
L 176.66522 264.822273 
L 177.584921 264.878456 
L 178.504622 264.948983 
L 179.730891 264.867577 
L 180.037458 264.418738 
L 180.650592 264.218745 
L 180.957159 264.655309 
L 181.570293 264.98624 
L 181.87686 265.003841 
L 182.183427 264.815812 
L 182.489995 264.436741 
L 182.796562 264.480419 
L 183.103129 264.967026 
L 183.409696 265.049361 
L 183.716263 264.758735 
L 184.02283 264.313666 
L 184.635964 264.988644 
L 184.942531 265.083746 
L 185.862232 264.756536 
L 186.475367 265.036047 
L 187.701635 265.16112 
L 188.008202 265.088827 
L 188.621336 264.312777 
L 188.927903 264.856693 
L 189.23447 265.099048 
L 189.847605 265.086116 
L 190.154172 265.056159 
L 190.460739 264.863902 
L 191.38044 265.135381 
L 192.300141 265.283367 
L 193.832977 265.100519 
L 194.139544 264.498989 
L 194.446111 264.493507 
L 194.752678 265.068017 
L 195.059245 265.35423 
L 195.672379 265.173646 
L 195.978946 264.889356 
L 196.898648 265.317963 
L 198.124916 265.454317 
L 198.73805 265.33201 
L 199.044617 264.897484 
L 199.351184 264.684147 
L 199.964319 265.468058 
L 200.270886 265.482622 
L 200.577453 265.263873 
L 200.88402 264.855614 
L 201.497154 265.511188 
L 201.803721 265.503311 
L 202.416855 265.071898 
L 202.723422 265.050837 
L 203.336556 265.477496 
L 203.643124 265.59901 
L 204.256258 264.984538 
L 204.562825 265.31613 
L 204.869392 265.317049 
L 205.175959 265.610261 
L 206.708794 265.59041 
L 207.015362 265.377746 
L 207.321929 265.309052 
L 207.628496 265.030946 
L 207.935063 265.106137 
L 208.24163 265.602951 
L 208.548197 265.821781 
L 208.854764 265.656067 
L 209.467898 264.93343 
L 209.774465 265.081778 
L 210.387599 265.897981 
L 211.000734 265.021895 
L 211.307301 265.329309 
L 211.613868 265.93842 
L 211.920435 265.51893 
L 212.227002 265.402938 
L 212.533569 265.459358 
L 212.840136 265.959224 
L 213.146703 265.132163 
L 213.45327 265.554981 
L 213.759837 265.759041 
L 214.066405 265.628781 
L 214.372972 265.201736 
L 214.986106 265.935252 
L 215.59924 265.643888 
L 216.212374 266.099429 
L 216.518941 265.95452 
L 216.825508 266.023154 
L 217.132075 265.882051 
L 217.74521 266.083259 
L 218.051777 266.190329 
L 218.664911 265.903548 
L 218.971478 265.315849 
L 219.278045 265.339947 
L 219.584612 265.672348 
L 219.891179 266.24349 
L 220.197746 266.145456 
L 220.504313 265.775046 
L 220.81088 265.621622 
L 221.117448 266.20526 
L 221.424015 266.287112 
L 222.037149 265.573281 
L 222.343716 266.08361 
L 222.95685 266.393946 
L 223.263417 266.099565 
L 223.569984 266.128543 
L 223.876551 265.984382 
L 224.183118 266.018756 
L 224.489685 266.367143 
L 224.796253 266.486307 
L 225.409387 266.493476 
L 226.022521 266.198618 
L 226.635655 265.630478 
L 226.942222 265.933259 
L 227.248789 266.542224 
L 227.861923 266.65687 
L 229.394759 266.62975 
L 229.701326 266.196564 
L 230.007893 265.493542 
L 230.31446 265.483581 
L 230.927594 266.811102 
L 231.234161 266.483626 
L 231.540728 265.734933 
L 231.847296 266.011517 
L 232.153863 266.79941 
L 232.46043 266.596309 
L 232.766997 265.848309 
L 233.073564 266.281429 
L 233.380131 266.984718 
L 233.993265 266.431168 
L 234.299832 266.403249 
L 234.606399 267.083479 
L 235.219534 266.354406 
L 235.526101 266.500299 
L 235.832668 266.820606 
L 236.139235 266.912057 
L 236.445802 266.684432 
L 236.752369 266.747639 
L 237.058936 267.204079 
L 237.365503 266.579466 
L 237.67207 266.927149 
L 237.978637 266.918102 
L 238.285204 267.224874 
L 238.591772 266.561743 
L 238.898339 267.045364 
L 239.511473 267.052513 
L 239.81804 266.31858 
L 240.124607 266.592212 
L 240.431174 267.267181 
L 240.737741 267.47115 
L 241.044308 267.429501 
L 241.657442 266.715448 
L 242.883711 267.566091 
L 243.803412 267.672423 
L 244.109979 267.54992 
L 244.416546 267.255488 
L 244.723113 266.17341 
L 245.02968 265.639992 
L 245.336247 266.476387 
L 245.642815 266.831575 
L 246.255949 266.310984 
L 246.562516 267.224121 
L 246.869083 267.37771 
L 247.17565 266.76135 
L 247.482217 267.548022 
L 247.788784 267.553118 
L 248.401918 267.06404 
L 248.708485 267.8686 
L 249.015052 267.204416 
L 249.32162 267.436097 
L 249.934754 268.117728 
L 250.854455 267.898156 
L 251.467589 268.026251 
L 251.774156 268.145727 
L 252.38729 268.007912 
L 252.693858 266.390005 
L 253.306992 268.229181 
L 253.613559 268.33714 
L 253.920126 268.578963 
L 254.226693 268.488831 
L 254.53326 268.605029 
L 254.839827 268.538313 
L 255.146394 268.679793 
L 255.452961 268.624905 
L 255.759528 268.778921 
L 256.066095 268.641567 
L 256.372663 268.982473 
L 256.67923 268.869885 
L 256.985797 268.22634 
L 257.598931 265.785674 
L 257.905498 265.746244 
L 258.212065 268.525325 
L 258.518632 264.375336 
L 258.825199 264.408371 
L 259.131766 268.482606 
L 259.438333 265.801172 
L 259.744901 266.329439 
L 260.051468 268.05432 
L 260.358035 265.984924 
L 260.664602 267.406673 
L 260.971169 267.482325 
L 261.277736 266.287674 
L 261.584303 268.457961 
L 261.89087 266.895304 
L 262.197437 267.70109 
L 262.504004 267.873651 
L 262.810571 267.269064 
L 263.117138 268.810298 
L 263.423706 267.921049 
L 263.730273 268.43423 
L 264.03684 268.445897 
L 264.343407 268.708017 
L 264.956541 268.473072 
L 265.263108 268.485116 
L 265.569675 268.659495 
L 265.876242 268.535807 
L 266.182809 268.863213 
L 266.489376 269.016044 
L 266.795944 268.806889 
L 267.102511 269.135992 
L 267.409078 269.046639 
L 267.715645 268.713444 
L 268.022212 268.77016 
L 268.328779 269.487325 
L 268.941913 267.729982 
L 269.555047 269.641964 
L 269.861614 268.910681 
L 270.168181 268.828085 
L 270.474749 269.579259 
L 271.087883 269.719007 
L 271.701017 269.335799 
L 272.314151 268.976865 
L 272.620718 269.692886 
L 273.233852 268.742894 
L 273.540419 268.939026 
L 273.846987 268.904225 
L 274.153554 268.592764 
L 275.073255 269.192482 
L 275.379822 268.880207 
L 275.992956 269.625537 
L 276.299523 269.33601 
L 276.60609 269.518266 
L 276.912657 269.937013 
L 277.219225 269.652311 
L 277.832359 269.775898 
L 278.138926 270.037049 
L 278.75206 269.731337 
L 279.058627 270.182636 
L 279.365194 270.411582 
L 279.671761 270.197738 
L 279.978328 270.435283 
L 280.284895 270.508917 
L 280.89803 269.355831 
L 281.204597 268.32984 
L 281.817731 269.762765 
L 282.124298 270.398458 
L 282.430865 270.676167 
L 283.043999 269.763357 
L 283.350566 268.864554 
L 283.657133 268.512568 
L 283.9637 268.977106 
L 284.270268 269.074131 
L 284.576835 270.576 
L 284.883402 269.435499 
L 285.189969 267.549363 
L 285.496536 268.473946 
L 286.416237 269.692243 
L 286.722804 269.057568 
L 287.029371 270.015843 
L 287.335938 269.170573 
L 287.642505 269.911996 
L 288.25564 269.052523 
L 288.562207 268.271066 
L 288.868774 269.812848 
L 289.175341 269.751278 
L 289.481908 269.20816 
L 289.788475 269.665113 
L 290.095042 270.576422 
L 290.401609 269.887025 
L 290.708176 270.191156 
L 291.014743 270.319006 
L 291.321311 270.684461 
L 291.627878 270.308021 
L 291.934445 270.538116 
L 292.241012 269.962838 
L 292.547579 270.83296 
L 292.854146 271.143763 
L 293.160713 270.657486 
L 293.46728 270.803826 
L 294.080414 270.645869 
L 294.386981 270.718248 
L 294.693548 271.119339 
L 295.000116 271.290329 
L 295.61325 270.500006 
L 296.226384 270.160597 
L 296.532951 270.269745 
L 296.839518 271.384828 
L 297.146085 270.415031 
L 297.452652 269.860492 
L 297.759219 270.0496 
L 298.065786 269.845857 
L 298.372354 271.391103 
L 298.985488 270.914561 
L 299.292055 271.379315 
L 299.598622 271.046528 
L 299.905189 271.687533 
L 300.211756 270.83559 
L 300.82489 270.323825 
L 301.131457 270.2021 
L 301.438024 271.649599 
L 301.744591 270.656743 
L 302.051159 271.325326 
L 302.357726 271.422285 
L 302.664293 270.805644 
L 302.97086 271.835992 
L 303.277427 271.15283 
L 303.583994 270.763 
L 303.890561 268.303056 
L 304.197128 270.144315 
L 304.503695 271.168137 
L 304.810262 270.003885 
L 305.116829 270.71137 
L 305.423397 270.156661 
L 305.729964 271.672517 
L 306.036531 271.138748 
L 306.343098 269.590655 
L 306.649665 271.773427 
L 306.956232 270.340483 
L 307.262799 269.861144 
L 307.569366 270.271874 
L 307.875933 271.110096 
L 308.1825 270.72365 
L 308.489067 270.11839 
L 308.795634 271.981378 
L 309.102202 271.139069 
L 309.408769 271.099021 
L 309.715336 271.565382 
L 310.021903 271.425634 
L 310.32847 271.478273 
L 310.635037 271.22554 
L 310.941604 271.475371 
L 311.248171 272.324788 
L 311.554738 271.784367 
L 311.861305 272.152563 
L 313.394141 272.605193 
L 314.007275 272.478232 
L 314.620409 271.264935 
L 314.926976 269.880794 
L 315.233543 269.891689 
L 315.54011 272.119981 
L 315.846678 272.213747 
L 316.153245 269.752372 
L 316.459812 269.976006 
L 316.766379 271.773628 
L 317.072946 271.369516 
L 317.379513 270.767544 
L 317.68608 272.171099 
L 317.992647 270.619271 
L 318.299214 272.039258 
L 318.605781 271.431673 
L 318.912348 272.316219 
L 319.218915 271.773859 
L 320.138617 272.19122 
L 320.445184 272.466986 
L 320.751751 271.969785 
L 321.058318 272.770927 
L 321.364885 272.09641 
L 321.978019 272.804558 
L 322.284586 272.264935 
L 322.591153 272.684596 
L 322.897721 272.573665 
L 323.204288 272.161449 
L 323.510855 272.245807 
L 323.817422 272.801898 
L 324.123989 272.863197 
L 324.430556 273.08423 
L 324.737123 272.113088 
L 325.656824 272.981859 
L 325.963391 271.82822 
L 326.269958 272.824575 
L 326.576526 272.885718 
L 326.883093 273.066122 
L 327.18966 272.470676 
L 327.496227 272.848884 
L 327.802794 272.793709 
L 328.109361 273.196778 
L 328.415928 272.241997 
L 328.722495 272.006379 
L 329.029062 269.463297 
L 329.335629 269.802777 
L 329.642196 271.62638 
L 329.948764 272.245431 
L 330.255331 271.636245 
L 330.561898 271.279279 
L 330.868465 272.585598 
L 331.175032 272.278129 
L 331.481599 270.75311 
L 331.788166 273.001805 
L 332.4013 271.197567 
L 332.707867 271.972542 
L 333.014434 271.266145 
L 333.321001 272.566014 
L 333.627569 271.080732 
L 333.934136 272.703518 
L 334.240703 271.928794 
L 334.54727 272.789748 
L 334.853837 272.670047 
L 335.160404 272.803911 
L 335.466971 273.18514 
L 335.773538 272.587516 
L 336.080105 272.984826 
L 336.386672 272.969459 
L 336.693239 272.637364 
L 336.999807 272.997568 
L 337.306374 272.853718 
L 337.612941 273.137266 
L 337.919508 272.988566 
L 338.532642 273.349614 
L 338.839209 273.260979 
L 339.145776 273.413689 
L 339.452343 272.631003 
L 340.372044 273.601573 
L 340.985179 273.723609 
L 341.291746 273.741592 
L 341.598313 274.045422 
L 341.90488 273.551705 
L 342.211447 274.062813 
L 342.518014 274.187736 
L 343.131148 273.103905 
L 343.437715 272.382187 
L 343.744282 272.556124 
L 344.05085 273.498534 
L 344.357417 273.608828 
L 344.663984 274.212185 
L 344.970551 273.841985 
L 345.277118 273.276974 
L 345.583685 273.452326 
L 345.890252 273.410552 
L 346.196819 273.976487 
L 346.503386 274.176917 
L 346.809953 273.47545 
L 347.11652 274.004928 
L 347.423087 273.500914 
L 347.729655 272.365268 
L 348.036222 273.039247 
L 348.342789 273.191381 
L 348.649356 273.488614 
L 348.955923 273.56892 
L 349.26249 272.680318 
L 349.569057 273.411731 
L 349.875624 273.39917 
L 350.182191 273.696434 
L 350.488758 273.173744 
L 350.795325 271.639182 
L 351.101893 273.145585 
L 351.715027 274.210759 
L 352.021594 273.393161 
L 352.328161 273.244446 
L 352.634728 274.006519 
L 352.941295 274.400325 
L 353.247862 274.514815 
L 353.860996 274.412268 
L 354.167563 274.129373 
L 354.780698 273.385008 
L 355.087265 273.883208 
L 355.393832 273.92813 
L 355.700399 274.726395 
L 356.006966 274.176942 
L 356.6201 273.782755 
L 356.926667 274.103001 
L 357.233234 274.609806 
L 357.539801 274.428565 
L 357.846368 273.491606 
L 358.152936 273.464556 
L 358.459503 272.179769 
L 358.76607 274.097559 
L 359.072637 274.45445 
L 359.379204 274.077061 
L 359.685771 273.302758 
L 359.992338 273.011565 
L 360.298905 273.997603 
L 360.605472 273.486279 
L 360.912039 273.28354 
L 361.218606 273.734167 
L 361.525174 273.27369 
L 361.831741 273.590222 
L 362.138308 273.603275 
L 363.058009 274.76936 
L 363.671143 274.398879 
L 363.97771 274.996212 
L 364.284277 274.558578 
L 364.590844 273.851584 
L 364.897411 274.400857 
L 365.203979 274.70664 
L 365.510546 274.787157 
L 365.817113 273.784381 
L 366.12368 274.254884 
L 366.430247 274.386037 
L 367.043381 274.996694 
L 367.349948 274.985805 
L 367.656515 274.030883 
L 367.963082 274.5271 
L 368.576217 274.637564 
L 368.882784 274.346867 
L 369.189351 274.46553 
L 369.495918 274.282802 
L 369.802485 274.57513 
L 370.109052 274.002312 
L 370.415619 274.188213 
L 370.722186 273.703824 
L 371.028753 274.622849 
L 371.33532 274.120307 
L 371.641887 273.138521 
L 371.948454 274.260055 
L 372.255022 274.394125 
L 372.561589 273.717464 
L 372.868156 273.547272 
L 373.174723 275.059233 
L 373.48129 274.451779 
L 374.094424 273.68452 
L 374.400991 275.087076 
L 374.707558 274.827842 
L 375.014125 273.945335 
L 375.320692 273.698417 
L 375.62726 274.832592 
L 376.240394 275.325691 
L 376.546961 274.936173 
L 376.853528 275.718508 
L 377.160095 275.162382 
L 377.466662 275.5703 
L 378.079796 275.140815 
L 378.69293 275.485696 
L 378.999497 275.58005 
L 379.306065 275.412303 
L 379.919199 273.86041 
L 380.225766 274.092986 
L 380.532333 274.780068 
L 380.8389 274.055644 
L 381.145467 273.72763 
L 381.452034 273.568534 
L 381.758601 274.482172 
L 382.065168 273.981352 
L 382.371735 272.850646 
L 382.678303 274.63914 
L 383.291437 273.483006 
L 383.598004 274.478277 
L 384.211138 275.373375 
L 384.517705 274.447753 
L 385.130839 275.16186 
L 385.437406 273.92934 
L 385.743973 274.142527 
L 386.05054 275.308792 
L 386.357108 274.351546 
L 386.663675 274.577108 
L 386.970242 275.4645 
L 387.276809 274.925535 
L 387.583376 275.633161 
L 387.889943 275.352184 
L 388.19651 275.86044 
L 388.503077 275.808177 
L 388.809644 275.883463 
L 389.116211 275.436602 
L 389.422778 275.916924 
L 390.035913 275.643207 
L 390.34248 276.004977 
L 390.649047 275.954843 
L 390.955614 275.564467 
L 391.262181 276.170264 
L 391.568748 275.383802 
L 391.875315 276.091097 
L 392.181882 276.031063 
L 392.488449 276.097087 
L 392.795016 275.764625 
L 393.101584 275.934892 
L 393.408151 275.409944 
L 393.714718 276.334125 
L 394.327852 273.678315 
L 394.634419 275.687893 
L 394.940986 274.797037 
L 395.247553 274.723393 
L 395.55412 275.646967 
L 395.860687 275.378541 
L 396.167254 276.125653 
L 396.473821 275.732108 
L 396.780389 276.247387 
L 397.086956 275.315329 
L 397.393523 276.216447 
L 397.393523 276.216447 
" style="fill:none;stroke:#1f77b4;stroke-linecap:square;stroke-width:1.5;"/>
   </g>
   <g id="line2d_28">
    <path clip-path="url(#p7b90dd5ae0)" d="M 72.738977 165.309783 
L 73.045544 149.428099 
L 73.352111 145.186438 
L 74.271813 172.161985 
L 74.884947 155.129292 
L 75.191514 154.621267 
L 75.804648 171.055236 
L 76.111215 174.239368 
L 77.030916 160.147821 
L 77.337484 163.275002 
L 77.950618 174.728647 
L 78.257185 175.732578 
L 78.563752 174.294553 
L 78.870319 173.844775 
L 79.176886 174.857702 
L 79.483453 176.438387 
L 79.79002 176.592533 
L 80.096587 175.995617 
L 80.403154 175.806569 
L 81.016289 177.458262 
L 81.322856 177.451374 
L 81.629423 176.625056 
L 81.93599 176.524296 
L 82.549124 178.252752 
L 82.855691 178.152986 
L 83.162258 177.443924 
L 83.468825 177.378367 
L 84.08196 178.824084 
L 84.388527 178.877692 
L 84.695094 178.622575 
L 85.001661 178.856867 
L 85.308228 179.263199 
L 86.534496 179.597116 
L 87.14763 179.369661 
L 88.067332 179.69903 
L 88.373899 179.602779 
L 89.2936 179.751122 
L 89.600167 179.594927 
L 89.906734 179.596102 
L 90.519868 179.813606 
L 91.43957 179.742075 
L 92.052704 179.634026 
L 92.972405 179.698277 
L 93.892106 179.576673 
L 94.50524 179.513928 
L 95.424942 179.571873 
L 98.79718 179.399734 
L 100.330015 179.414514 
L 102.475985 179.347331 
L 124.242248 179.441775 
L 125.468516 179.499238 
L 127.001352 179.487249 
L 129.147321 179.486767 
L 131.293291 179.430449 
L 132.826126 179.415799 
L 133.132693 179.385345 
L 133.745828 179.470341 
L 134.358962 179.449345 
L 134.665529 179.524431 
L 135.278663 179.477389 
L 135.58523 179.557535 
L 136.198364 179.470692 
L 136.504931 179.568419 
L 138.037767 179.433099 
L 138.344334 179.509349 
L 138.957468 179.415247 
L 139.570602 179.431352 
L 143.249407 179.238428 
L 143.862542 179.188445 
L 145.395377 179.002128 
L 145.701944 178.82568 
L 146.008511 178.868866 
L 148.461048 178.30899 
L 149.380749 177.996771 
L 150.607017 177.440631 
L 152.44642 176.435706 
L 152.752987 175.947913 
L 153.059554 175.135742 
L 153.366121 176.157154 
L 153.672688 176.173922 
L 153.979255 175.416262 
L 154.285822 176.141048 
L 154.59239 176.313499 
L 154.898957 175.991822 
L 155.205524 176.535461 
L 155.512091 176.498421 
L 155.818658 176.027748 
L 156.125225 176.286329 
L 156.431792 176.375873 
L 156.738359 176.282503 
L 157.351493 175.566573 
L 157.65806 175.425108 
L 157.964628 175.15253 
L 158.884329 173.739497 
L 159.497463 173.298434 
L 159.80403 172.725636 
L 160.110597 172.44122 
L 160.723731 172.355923 
L 161.030298 171.84097 
L 161.643433 171.193157 
L 161.95 171.401945 
L 162.256567 171.195466 
L 162.563134 171.555499 
L 163.789402 171.242939 
L 164.095969 170.894382 
L 164.402536 170.342248 
L 164.709103 170.47317 
L 165.015671 169.121205 
L 165.322238 168.917657 
L 165.628805 168.237523 
L 165.935372 168.816175 
L 166.241939 168.051949 
L 166.548506 168.241941 
L 166.855073 168.223717 
L 167.16164 168.861047 
L 167.468207 167.922061 
L 168.081341 167.849857 
L 168.387909 168.494156 
L 168.694476 167.585714 
L 169.001043 167.23049 
L 169.614177 167.075419 
L 170.227311 165.617403 
L 170.533878 165.418284 
L 170.840445 163.743366 
L 171.147012 163.677307 
L 171.453579 161.985209 
L 171.760146 163.920707 
L 172.066714 162.570057 
L 172.373281 163.466219 
L 172.679848 163.166441 
L 172.986415 162.495704 
L 173.292982 165.74218 
L 173.906116 165.520469 
L 174.212683 165.925405 
L 174.51925 165.521784 
L 174.825817 166.990765 
L 175.438952 165.152785 
L 175.745519 165.53797 
L 176.052086 164.729504 
L 176.358653 164.494348 
L 176.66522 163.807667 
L 176.971787 163.715954 
L 177.278354 163.112351 
L 177.891488 161.594993 
L 178.198055 161.221184 
L 178.811189 159.789103 
L 179.117757 158.419406 
L 179.424324 158.817996 
L 179.730891 157.457335 
L 180.037458 158.639912 
L 180.344025 156.502996 
L 180.957159 159.10192 
L 181.263726 160.090789 
L 181.570293 159.22744 
L 181.87686 158.950745 
L 182.183427 159.53992 
L 182.489995 159.810048 
L 182.796562 160.854524 
L 183.409696 159.232239 
L 183.716263 159.006231 
L 184.02283 160.043758 
L 184.329397 160.457911 
L 184.942531 159.145447 
L 185.249098 158.887739 
L 185.555665 159.652056 
L 185.862232 159.775136 
L 186.1688 157.931934 
L 186.475367 157.169334 
L 186.781934 157.611482 
L 187.088501 157.452395 
L 187.701635 155.265104 
L 188.008202 155.151603 
L 188.314769 154.128645 
L 188.621336 155.511928 
L 188.927903 155.4116 
L 189.23447 154.412258 
L 189.541038 155.086157 
L 189.847605 155.408387 
L 190.154172 155.273037 
L 190.460739 154.831321 
L 191.073873 156.746184 
L 191.687007 156.305373 
L 191.993574 156.873683 
L 192.300141 156.254837 
L 192.606708 154.992476 
L 192.913275 154.51122 
L 193.219843 154.898334 
L 193.52641 152.344393 
L 193.832977 152.439078 
L 194.139544 152.89475 
L 194.446111 154.455494 
L 194.752678 153.821677 
L 195.059245 154.104246 
L 195.365812 154.031952 
L 195.672379 151.654569 
L 195.978946 154.027916 
L 196.285513 154.059484 
L 196.592081 154.21108 
L 196.898648 152.30678 
L 197.205215 153.857282 
L 197.511782 154.490897 
L 198.124916 149.984681 
L 198.431483 149.424585 
L 198.73805 149.811618 
L 199.044617 145.949861 
L 199.351184 149.314417 
L 199.657751 151.267897 
L 199.964319 152.191069 
L 200.270886 151.735698 
L 200.577453 148.371866 
L 200.88402 152.989836 
L 201.190587 152.733474 
L 201.497154 150.839877 
L 201.803721 154.323055 
L 202.110288 154.103061 
L 202.416855 155.817108 
L 202.723422 153.02759 
L 203.029989 155.88903 
L 203.336556 155.165439 
L 203.643124 149.4383 
L 203.949691 152.566877 
L 204.256258 151.002036 
L 204.562825 154.595844 
L 204.869392 151.963685 
L 205.175959 155.027037 
L 205.482526 155.563738 
L 205.789093 155.541889 
L 206.09566 154.214112 
L 206.402227 150.126558 
L 206.708794 153.431793 
L 207.015362 149.305621 
L 207.321929 151.510423 
L 207.628496 146.249559 
L 207.935063 154.982014 
L 208.24163 155.355231 
L 208.548197 152.229325 
L 208.854764 158.97661 
L 209.161331 156.03397 
L 209.467898 159.41188 
L 209.774465 151.054108 
L 210.387599 161.095573 
L 210.694167 152.445303 
L 211.000734 157.083305 
L 211.307301 159.321322 
L 211.920435 160.267307 
L 212.227002 151.833617 
L 212.840136 163.14663 
L 213.45327 156.053399 
L 213.759837 160.645524 
L 214.066405 160.371892 
L 214.372972 164.203175 
L 214.679539 157.401307 
L 214.986106 156.121274 
L 215.292673 166.051658 
L 215.905807 161.663873 
L 216.212374 160.381059 
L 216.518941 161.389267 
L 216.825508 165.753406 
L 217.132075 158.229052 
L 217.438642 159.589963 
L 217.74521 162.682634 
L 218.051777 162.348476 
L 218.358344 163.871045 
L 218.664911 155.218796 
L 218.971478 165.480567 
L 219.278045 159.834899 
L 219.584612 159.519236 
L 219.891179 158.944801 
L 220.197746 157.86458 
L 220.504313 164.273852 
L 220.81088 157.272574 
L 221.117448 157.571519 
L 221.424015 163.569158 
L 221.730582 158.273221 
L 222.037149 162.076149 
L 222.343716 157.642648 
L 222.95685 163.514656 
L 223.263417 158.121685 
L 223.569984 162.288954 
L 223.876551 158.959461 
L 224.183118 162.705075 
L 224.489685 159.721046 
L 224.796253 159.373202 
L 225.10282 162.814781 
L 225.409387 160.332853 
L 225.715954 161.252531 
L 226.022521 157.545714 
L 226.329088 163.701556 
L 226.635655 157.954265 
L 226.942222 162.393479 
L 227.248789 161.592021 
L 227.555356 162.046649 
L 227.861923 162.919055 
L 228.168491 161.692178 
L 228.475058 162.145491 
L 228.781625 161.814757 
L 229.088192 158.357363 
L 229.394759 161.662427 
L 229.701326 156.872227 
L 230.007893 162.153242 
L 230.31446 158.443192 
L 230.621027 159.496825 
L 230.927594 162.296384 
L 231.234161 160.352955 
L 231.540728 163.86242 
L 232.153863 157.227089 
L 232.46043 161.955177 
L 232.766997 155.308079 
L 233.073564 155.117344 
L 233.380131 154.738323 
L 233.686698 152.615113 
L 233.993265 159.486101 
L 234.299832 154.454469 
L 234.606399 151.269263 
L 234.912966 159.606029 
L 235.219534 156.637603 
L 235.526101 155.910819 
L 236.139235 153.508103 
L 236.445802 157.387421 
L 236.752369 152.554587 
L 237.058936 145.158484 
L 237.365503 153.619114 
L 237.67207 154.962334 
L 237.978637 150.919822 
L 238.285204 151.52707 
L 238.591772 149.455932 
L 238.898339 156.33165 
L 239.204906 156.708973 
L 239.511473 147.4257 
L 239.81804 154.31932 
L 240.124607 153.593329 
L 240.431174 153.703196 
L 241.044308 147.821348 
L 241.350875 152.592722 
L 241.657442 147.175362 
L 241.964009 153.875817 
L 242.270577 151.70405 
L 242.577144 150.365047 
L 242.883711 148.074356 
L 243.190278 150.243915 
L 243.496845 150.312815 
L 243.803412 143.200305 
L 244.109979 150.063963 
L 244.416546 144.727071 
L 244.723113 149.880217 
L 245.02968 139.787975 
L 245.336247 155.405254 
L 245.642815 158.568753 
L 245.949382 150.086495 
L 246.562516 156.303264 
L 246.869083 154.520317 
L 247.17565 151.077684 
L 247.482217 145.073117 
L 247.788784 142.897113 
L 248.095351 150.477464 
L 248.401918 147.103048 
L 248.708485 140.519528 
L 249.015052 148.820489 
L 249.32162 151.8345 
L 249.628187 152.104538 
L 249.934754 149.584394 
L 250.241321 144.615196 
L 250.547888 149.614858 
L 250.854455 149.934256 
L 251.161022 147.240427 
L 251.467589 146.899943 
L 251.774156 149.093137 
L 252.080723 149.599154 
L 252.38729 140.295659 
L 252.693858 151.319527 
L 253.000425 146.483108 
L 253.306992 143.662624 
L 253.613559 144.086688 
L 253.920126 146.533292 
L 254.226693 144.227119 
L 254.53326 144.161753 
L 254.839827 142.830642 
L 255.146394 142.757766 
L 255.452961 139.177253 
L 255.759528 144.201354 
L 256.066095 142.384047 
L 256.372663 141.721092 
L 256.67923 142.917937 
L 256.985797 139.099737 
L 257.292364 148.146389 
L 257.598931 138.092182 
L 258.212065 148.823542 
L 258.518632 144.060401 
L 258.825199 145.041669 
L 259.131766 142.243355 
L 259.438333 130.422608 
L 260.051468 145.775994 
L 260.358035 144.364115 
L 260.664602 144.92871 
L 260.971169 146.426518 
L 261.584303 134.87623 
L 261.89087 141.815356 
L 262.197437 142.544399 
L 262.504004 136.954096 
L 262.810571 136.836257 
L 263.117138 140.288489 
L 263.730273 143.34672 
L 264.03684 140.993134 
L 264.343407 135.357446 
L 264.649974 136.757597 
L 264.956541 142.179375 
L 265.263108 140.848947 
L 265.569675 141.723924 
L 265.876242 143.784198 
L 266.182809 141.596767 
L 266.489376 135.354293 
L 266.795944 138.129976 
L 267.102511 142.455578 
L 267.409078 139.814161 
L 267.715645 140.522561 
L 268.022212 139.232598 
L 268.328779 135.455364 
L 268.635346 141.098442 
L 268.941913 135.041161 
L 269.24848 138.551208 
L 269.555047 140.232723 
L 269.861614 133.401094 
L 270.168181 136.661105 
L 270.474749 136.943573 
L 270.781316 137.665809 
L 271.087883 137.143506 
L 271.39445 132.938153 
L 271.701017 140.825633 
L 272.007584 135.640557 
L 272.314151 133.455957 
L 272.620718 129.769975 
L 273.233852 144.267161 
L 273.540419 144.687651 
L 273.846987 141.002692 
L 274.153554 139.067547 
L 274.460121 145.032894 
L 274.766688 143.025093 
L 275.073255 142.881469 
L 275.379822 142.003038 
L 275.686389 140.767597 
L 275.992956 141.234615 
L 276.299523 137.865481 
L 276.60609 140.43368 
L 276.912657 141.426776 
L 277.219225 134.894946 
L 277.525792 135.459903 
L 277.832359 134.477128 
L 278.138926 139.920273 
L 278.445493 131.907303 
L 278.75206 133.75427 
L 279.058627 132.855396 
L 279.365194 130.025935 
L 279.671761 130.304186 
L 279.978328 131.384076 
L 280.284895 125.23936 
L 280.591462 134.842473 
L 280.89803 129.019705 
L 281.204597 135.399116 
L 281.817731 126.711062 
L 282.124298 129.57693 
L 282.430865 130.649711 
L 282.737432 132.160693 
L 283.043999 126.924971 
L 283.350566 130.535205 
L 283.657133 126.062345 
L 283.9637 138.560847 
L 284.270268 137.862247 
L 284.576835 127.551739 
L 284.883402 134.63748 
L 285.189969 134.289927 
L 285.496536 135.381464 
L 285.803103 133.666031 
L 286.10967 130.825485 
L 286.722804 129.021432 
L 287.029371 128.839111 
L 287.335938 133.511744 
L 287.642505 135.497295 
L 288.25564 128.916406 
L 288.562207 124.755192 
L 288.868774 132.96221 
L 289.175341 135.251375 
L 289.481908 129.441821 
L 289.788475 131.681204 
L 290.095042 131.644273 
L 290.401609 128.814511 
L 290.708176 133.123807 
L 291.014743 132.128321 
L 291.321311 127.325158 
L 291.627878 128.665265 
L 291.934445 125.602335 
L 292.241012 127.217942 
L 292.547579 127.445206 
L 292.854146 129.019003 
L 293.160713 126.89264 
L 293.46728 121.863598 
L 293.773847 127.706267 
L 294.080414 123.488844 
L 294.386981 123.551399 
L 294.693548 126.780624 
L 295.000116 123.386087 
L 295.306683 121.299465 
L 295.61325 116.939744 
L 295.919817 127.001944 
L 296.226384 121.784075 
L 296.532951 123.747817 
L 296.839518 123.375845 
L 297.146085 112.323621 
L 297.452652 124.532085 
L 297.759219 128.881002 
L 298.372354 116.613619 
L 298.678921 120.264599 
L 298.985488 119.449365 
L 299.598622 124.757521 
L 299.905189 122.490948 
L 300.211756 115.922972 
L 300.518323 127.725304 
L 300.82489 128.323255 
L 301.131457 123.748199 
L 301.438024 121.224842 
L 301.744591 116.686857 
L 302.357726 122.25764 
L 303.277427 115.855236 
L 303.583994 124.520859 
L 303.890561 121.619225 
L 304.197128 124.300202 
L 304.503695 123.549852 
L 304.810262 116.445757 
L 305.116829 121.626715 
L 305.423397 124.62677 
L 305.729964 121.03483 
L 306.036531 115.07878 
L 306.649665 123.505191 
L 306.956232 122.732831 
L 307.262799 114.987931 
L 307.569366 124.119448 
L 307.875933 123.963554 
L 308.1825 117.277156 
L 308.489067 123.326745 
L 308.795634 124.694666 
L 309.102202 120.101898 
L 309.408769 119.754907 
L 309.715336 121.963243 
L 310.021903 117.515203 
L 310.32847 118.44669 
L 310.635037 116.946472 
L 310.941604 121.301072 
L 311.248171 122.957083 
L 311.861305 119.227062 
L 312.167872 119.782158 
L 312.781007 117.62025 
L 313.087574 117.796487 
L 313.394141 116.35559 
L 313.700708 119.668918 
L 314.007275 113.638245 
L 314.313842 117.184419 
L 314.620409 113.178838 
L 314.926976 118.045921 
L 315.233543 118.749721 
L 315.54011 117.246692 
L 315.846678 116.865924 
L 316.153245 108.193434 
L 316.766379 118.172154 
L 317.072946 112.366656 
L 317.379513 112.956434 
L 317.68608 117.570147 
L 317.992647 113.752971 
L 318.299214 118.626541 
L 318.605781 119.894555 
L 318.912348 114.507599 
L 319.218915 112.059448 
L 319.525483 110.548024 
L 319.83205 117.425338 
L 320.138617 117.158072 
L 320.445184 117.346719 
L 320.751751 115.826941 
L 321.058318 117.31987 
L 321.364885 115.126695 
L 321.671452 113.903965 
L 321.978019 113.338366 
L 322.284586 114.545472 
L 322.591153 110.688957 
L 322.897721 113.608082 
L 323.204288 106.334216 
L 323.510855 113.44765 
L 323.817422 111.360466 
L 324.123989 105.016079 
L 324.430556 106.21935 
L 324.737123 101.909933 
L 325.04369 108.252233 
L 325.350257 108.358505 
L 325.656824 100.555287 
L 325.963391 109.925313 
L 326.269958 107.955185 
L 326.576526 105.126748 
L 326.883093 107.568935 
L 327.18966 104.011536 
L 327.496227 108.13359 
L 327.802794 108.865887 
L 328.109361 106.238106 
L 328.415928 102.06179 
L 328.722495 106.697814 
L 329.029062 103.283095 
L 329.335629 106.038173 
L 329.642196 102.838508 
L 329.948764 95.932457 
L 330.255331 98.243269 
L 330.561898 103.431136 
L 330.868465 101.947626 
L 331.175032 96.309309 
L 331.481599 100.147128 
L 331.788166 107.59974 
L 332.4013 97.667449 
L 332.707867 108.043062 
L 333.014434 108.442827 
L 333.321001 98.818608 
L 333.627569 106.075204 
L 333.934136 108.146503 
L 334.240703 96.959371 
L 334.54727 93.668434 
L 334.853837 99.406538 
L 335.160404 99.307395 
L 335.466971 96.532315 
L 335.773538 99.217831 
L 336.080105 100.859604 
L 336.386672 95.78309 
L 336.693239 95.046857 
L 336.999807 102.785693 
L 337.306374 101.859408 
L 337.612941 96.11769 
L 337.919508 97.28397 
L 338.226075 97.956403 
L 338.532642 95.184838 
L 338.839209 98.941106 
L 339.145776 97.008531 
L 339.452343 90.92436 
L 339.75891 90.272109 
L 340.065477 97.154725 
L 340.372044 95.924886 
L 340.678612 90.43471 
L 340.985179 92.369575 
L 341.291746 91.481425 
L 341.598313 87.286634 
L 341.90488 88.765104 
L 342.211447 86.819074 
L 342.518014 87.823155 
L 342.824581 89.584213 
L 343.131148 85.376611 
L 343.437715 85.309317 
L 343.744282 82.399188 
L 344.05085 82.378685 
L 344.357417 84.356645 
L 344.663984 84.119441 
L 344.970551 79.041199 
L 345.277118 83.946197 
L 345.583685 85.834632 
L 345.890252 79.760041 
L 346.196819 81.117278 
L 346.503386 80.511194 
L 346.809953 82.780759 
L 347.11652 79.086644 
L 347.423087 72.133341 
L 347.729655 79.731244 
L 348.036222 81.206822 
L 348.342789 77.604419 
L 348.649356 78.300388 
L 348.955923 81.274517 
L 349.26249 80.102292 
L 349.569057 72.160451 
L 349.875624 73.635788 
L 350.182191 73.383422 
L 350.488758 67.700222 
L 350.795325 78.439293 
L 351.101893 80.76599 
L 351.40846 77.688883 
L 351.715027 79.82617 
L 352.021594 77.799773 
L 352.328161 80.118799 
L 352.634728 78.621011 
L 352.941295 73.594199 
L 353.247862 72.666348 
L 353.554429 72.704663 
L 353.860996 76.733901 
L 354.167563 70.749255 
L 354.474131 73.88474 
L 354.780698 68.802382 
L 355.087265 71.608829 
L 355.393832 70.480945 
L 355.700399 64.437741 
L 356.006966 63.125829 
L 356.313533 61.258157 
L 356.6201 71.056082 
L 356.926667 64.465373 
L 357.233234 60.530359 
L 357.539801 67.021543 
L 357.846368 61.934687 
L 358.152936 67.618229 
L 358.459503 64.308978 
L 358.76607 65.253939 
L 359.072637 68.418241 
L 359.379204 57.936958 
L 359.992338 67.800128 
L 360.298905 58.997308 
L 360.605472 65.814256 
L 361.218606 57.241953 
L 361.525174 68.112719 
L 361.831741 68.086934 
L 362.138308 62.387508 
L 362.444875 64.120994 
L 362.751442 63.674961 
L 363.058009 66.438594 
L 363.364576 71.956402 
L 363.671143 64.118704 
L 363.97771 61.387884 
L 364.284277 67.023993 
L 365.203979 60.126417 
L 365.510546 54.931582 
L 365.817113 59.848226 
L 366.12368 62.202295 
L 366.430247 59.827743 
L 366.736814 61.958905 
L 367.043381 60.649021 
L 367.349948 61.977421 
L 367.656515 66.008546 
L 367.963082 61.272596 
L 368.269649 59.775993 
L 368.576217 55.189831 
L 369.189351 60.414187 
L 369.495918 56.857992 
L 369.802485 55.800935 
L 370.109052 52.541145 
L 370.415619 58.677026 
L 370.722186 61.451041 
L 371.028753 60.612734 
L 371.33532 58.162474 
L 371.641887 46.590839 
L 372.255022 63.007668 
L 372.561589 56.678141 
L 372.868156 55.393017 
L 373.174723 56.879359 
L 373.48129 54.20302 
L 373.787857 60.89241 
L 374.094424 59.754023 
L 374.400991 50.266861 
L 374.707558 50.941062 
L 375.014125 47.136959 
L 375.320692 56.334705 
L 375.62726 59.578811 
L 375.933827 52.864198 
L 376.240394 49.804903 
L 376.546961 50.753298 
L 376.853528 54.057569 
L 377.160095 51.483647 
L 377.466662 51.008737 
L 378.079796 45.685238 
L 378.386363 48.673344 
L 378.69293 49.748534 
L 378.999497 46.52714 
L 379.306065 47.50632 
L 379.612632 38.647814 
L 379.919199 52.834156 
L 380.225766 52.626432 
L 380.532333 38.638676 
L 381.145467 51.346971 
L 381.452034 49.123735 
L 381.758601 55.03699 
L 382.065168 54.530652 
L 382.371735 51.174008 
L 382.678303 49.288786 
L 382.98487 53.874184 
L 383.291437 62.303868 
L 383.598004 59.728038 
L 383.904571 54.051866 
L 384.211138 56.006511 
L 384.517705 53.838539 
L 384.824272 54.444301 
L 385.437406 60.118424 
L 385.743973 58.658229 
L 386.357108 52.172085 
L 386.663675 58.958048 
L 386.970242 61.780822 
L 387.276809 58.687649 
L 387.889943 51.011448 
L 388.19651 55.922931 
L 388.503077 55.737417 
L 388.809644 47.932714 
L 389.116211 50.366145 
L 389.422778 48.603339 
L 389.729346 48.004586 
L 390.035913 52.792407 
L 390.34248 52.854057 
L 390.649047 41.985902 
L 390.955614 44.043164 
L 391.262181 53.086884 
L 391.568748 45.194464 
L 391.875315 42.814429 
L 392.181882 47.084406 
L 392.488449 39.873014 
L 392.795016 41.961061 
L 393.101584 42.873108 
L 393.408151 39.426479 
L 393.714718 37.638591 
L 394.021285 34.414125 
L 394.327852 47.152121 
L 394.940986 37.367489 
L 395.247553 49.072808 
L 395.55412 52.261489 
L 395.860687 46.225414 
L 396.167254 48.022981 
L 396.473821 51.256925 
L 396.780389 46.6697 
L 397.086956 50.455749 
L 397.393523 52.715815 
L 397.393523 52.715815 
" style="fill:none;stroke:#ff7f0e;stroke-linecap:square;stroke-width:1.5;"/>
   </g>
   <g id="patch_3">
    <path d="M 56.50625 288.430125 
L 56.50625 22.318125 
" style="fill:none;stroke:#000000;stroke-linecap:square;stroke-linejoin:miter;stroke-width:0.8;"/>
   </g>
   <g id="patch_4">
    <path d="M 413.62625 288.430125 
L 413.62625 22.318125 
" style="fill:none;stroke:#000000;stroke-linecap:square;stroke-linejoin:miter;stroke-width:0.8;"/>
   </g>
   <g id="patch_5">
    <path d="M 56.50625 288.430125 
L 413.62625 288.430125 
" style="fill:none;stroke:#000000;stroke-linecap:square;stroke-linejoin:miter;stroke-width:0.8;"/>
   </g>
   <g id="patch_6">
    <path d="M 56.50625 22.318125 
L 413.62625 22.318125 
" style="fill:none;stroke:#000000;stroke-linecap:square;stroke-linejoin:miter;stroke-width:0.8;"/>
   </g>
   <g id="text_16">
    <!-- Loss history -->
    <defs>
     <path id="DejaVuSans-32"/>
     <path d="M 9.421875 54.6875 
L 18.40625 54.6875 
L 18.40625 0 
L 9.421875 0 
z
M 9.421875 75.984375 
L 18.40625 75.984375 
L 18.40625 64.59375 
L 9.421875 64.59375 
z
" id="DejaVuSans-105"/>
     <path d="M 18.3125 70.21875 
L 18.3125 54.6875 
L 36.8125 54.6875 
L 36.8125 47.703125 
L 18.3125 47.703125 
L 18.3125 18.015625 
Q 18.3125 11.328125 20.140625 9.421875 
Q 21.96875 7.515625 27.59375 7.515625 
L 36.8125 7.515625 
L 36.8125 0 
L 27.59375 0 
Q 17.1875 0 13.234375 3.875 
Q 9.28125 7.765625 9.28125 18.015625 
L 9.28125 47.703125 
L 2.6875 47.703125 
L 2.6875 54.6875 
L 9.28125 54.6875 
L 9.28125 70.21875 
z
" id="DejaVuSans-116"/>
     <path d="M 41.109375 46.296875 
Q 39.59375 47.171875 37.8125 47.578125 
Q 36.03125 48 33.890625 48 
Q 26.265625 48 22.1875 43.046875 
Q 18.109375 38.09375 18.109375 28.8125 
L 18.109375 0 
L 9.078125 0 
L 9.078125 54.6875 
L 18.109375 54.6875 
L 18.109375 46.1875 
Q 20.953125 51.171875 25.484375 53.578125 
Q 30.03125 56 36.53125 56 
Q 37.453125 56 38.578125 55.875 
Q 39.703125 55.765625 41.0625 55.515625 
z
" id="DejaVuSans-114"/>
     <path d="M 32.171875 -5.078125 
Q 28.375 -14.84375 24.75 -17.8125 
Q 21.140625 -20.796875 15.09375 -20.796875 
L 7.90625 -20.796875 
L 7.90625 -13.28125 
L 13.1875 -13.28125 
Q 16.890625 -13.28125 18.9375 -11.515625 
Q 21 -9.765625 23.484375 -3.21875 
L 25.09375 0.875 
L 2.984375 54.6875 
L 12.5 54.6875 
L 29.59375 11.921875 
L 46.6875 54.6875 
L 56.203125 54.6875 
z
" id="DejaVuSans-121"/>
    </defs>
    <g transform="translate(199.3625 16.318125)scale(0.12 -0.12)">
     <use xlink:href="#DejaVuSans-76"/>
     <use x="53.962891" xlink:href="#DejaVuSans-111"/>
     <use x="115.144531" xlink:href="#DejaVuSans-115"/>
     <use x="167.244141" xlink:href="#DejaVuSans-115"/>
     <use x="219.34375" xlink:href="#DejaVuSans-32"/>
     <use x="251.130859" xlink:href="#DejaVuSans-104"/>
     <use x="314.509766" xlink:href="#DejaVuSans-105"/>
     <use x="342.292969" xlink:href="#DejaVuSans-115"/>
     <use x="394.392578" xlink:href="#DejaVuSans-116"/>
     <use x="433.601562" xlink:href="#DejaVuSans-111"/>
     <use x="494.783203" xlink:href="#DejaVuSans-114"/>
     <use x="535.896484" xlink:href="#DejaVuSans-121"/>
    </g>
   </g>
   <g id="legend_1">
    <g id="patch_7">
     <path d="M 63.50625 59.674375 
L 167.38125 59.674375 
Q 169.38125 59.674375 169.38125 57.674375 
L 169.38125 29.318125 
Q 169.38125 27.318125 167.38125 27.318125 
L 63.50625 27.318125 
Q 61.50625 27.318125 61.50625 29.318125 
L 61.50625 57.674375 
Q 61.50625 59.674375 63.50625 59.674375 
z
" style="fill:#ffffff;opacity:0.8;stroke:#cccccc;stroke-linejoin:miter;"/>
    </g>
    <g id="line2d_29">
     <path d="M 65.50625 35.416562 
L 85.50625 35.416562 
" style="fill:none;stroke:#1f77b4;stroke-linecap:square;stroke-width:1.5;"/>
    </g>
    <g id="line2d_30"/>
    <g id="text_17">
     <!-- Training loss -->
     <defs>
      <path d="M -0.296875 72.90625 
L 61.375 72.90625 
L 61.375 64.59375 
L 35.5 64.59375 
L 35.5 0 
L 25.59375 0 
L 25.59375 64.59375 
L -0.296875 64.59375 
z
" id="DejaVuSans-84"/>
      <path d="M 34.28125 27.484375 
Q 23.390625 27.484375 19.1875 25 
Q 14.984375 22.515625 14.984375 16.5 
Q 14.984375 11.71875 18.140625 8.90625 
Q 21.296875 6.109375 26.703125 6.109375 
Q 34.1875 6.109375 38.703125 11.40625 
Q 43.21875 16.703125 43.21875 25.484375 
L 43.21875 27.484375 
z
M 52.203125 31.203125 
L 52.203125 0 
L 43.21875 0 
L 43.21875 8.296875 
Q 40.140625 3.328125 35.546875 0.953125 
Q 30.953125 -1.421875 24.3125 -1.421875 
Q 15.921875 -1.421875 10.953125 3.296875 
Q 6 8.015625 6 15.921875 
Q 6 25.140625 12.171875 29.828125 
Q 18.359375 34.515625 30.609375 34.515625 
L 43.21875 34.515625 
L 43.21875 35.40625 
Q 43.21875 41.609375 39.140625 45 
Q 35.0625 48.390625 27.6875 48.390625 
Q 23 48.390625 18.546875 47.265625 
Q 14.109375 46.140625 10.015625 43.890625 
L 10.015625 52.203125 
Q 14.9375 54.109375 19.578125 55.046875 
Q 24.21875 56 28.609375 56 
Q 40.484375 56 46.34375 49.84375 
Q 52.203125 43.703125 52.203125 31.203125 
z
" id="DejaVuSans-97"/>
      <path d="M 54.890625 33.015625 
L 54.890625 0 
L 45.90625 0 
L 45.90625 32.71875 
Q 45.90625 40.484375 42.875 44.328125 
Q 39.84375 48.1875 33.796875 48.1875 
Q 26.515625 48.1875 22.3125 43.546875 
Q 18.109375 38.921875 18.109375 30.90625 
L 18.109375 0 
L 9.078125 0 
L 9.078125 54.6875 
L 18.109375 54.6875 
L 18.109375 46.1875 
Q 21.34375 51.125 25.703125 53.5625 
Q 30.078125 56 35.796875 56 
Q 45.21875 56 50.046875 50.171875 
Q 54.890625 44.34375 54.890625 33.015625 
z
" id="DejaVuSans-110"/>
      <path d="M 45.40625 27.984375 
Q 45.40625 37.75 41.375 43.109375 
Q 37.359375 48.484375 30.078125 48.484375 
Q 22.859375 48.484375 18.828125 43.109375 
Q 14.796875 37.75 14.796875 27.984375 
Q 14.796875 18.265625 18.828125 12.890625 
Q 22.859375 7.515625 30.078125 7.515625 
Q 37.359375 7.515625 41.375 12.890625 
Q 45.40625 18.265625 45.40625 27.984375 
z
M 54.390625 6.78125 
Q 54.390625 -7.171875 48.1875 -13.984375 
Q 42 -20.796875 29.203125 -20.796875 
Q 24.46875 -20.796875 20.265625 -20.09375 
Q 16.0625 -19.390625 12.109375 -17.921875 
L 12.109375 -9.1875 
Q 16.0625 -11.328125 19.921875 -12.34375 
Q 23.78125 -13.375 27.78125 -13.375 
Q 36.625 -13.375 41.015625 -8.765625 
Q 45.40625 -4.15625 45.40625 5.171875 
L 45.40625 9.625 
Q 42.625 4.78125 38.28125 2.390625 
Q 33.9375 0 27.875 0 
Q 17.828125 0 11.671875 7.65625 
Q 5.515625 15.328125 5.515625 27.984375 
Q 5.515625 40.671875 11.671875 48.328125 
Q 17.828125 56 27.875 56 
Q 33.9375 56 38.28125 53.609375 
Q 42.625 51.21875 45.40625 46.390625 
L 45.40625 54.6875 
L 54.390625 54.6875 
z
" id="DejaVuSans-103"/>
      <path d="M 9.421875 75.984375 
L 18.40625 75.984375 
L 18.40625 0 
L 9.421875 0 
z
" id="DejaVuSans-108"/>
     </defs>
     <g transform="translate(93.50625 38.916562)scale(0.1 -0.1)">
      <use xlink:href="#DejaVuSans-84"/>
      <use x="46.333984" xlink:href="#DejaVuSans-114"/>
      <use x="87.447266" xlink:href="#DejaVuSans-97"/>
      <use x="148.726562" xlink:href="#DejaVuSans-105"/>
      <use x="176.509766" xlink:href="#DejaVuSans-110"/>
      <use x="239.888672" xlink:href="#DejaVuSans-105"/>
      <use x="267.671875" xlink:href="#DejaVuSans-110"/>
      <use x="331.050781" xlink:href="#DejaVuSans-103"/>
      <use x="394.527344" xlink:href="#DejaVuSans-32"/>
      <use x="426.314453" xlink:href="#DejaVuSans-108"/>
      <use x="454.097656" xlink:href="#DejaVuSans-111"/>
      <use x="515.279297" xlink:href="#DejaVuSans-115"/>
      <use x="567.378906" xlink:href="#DejaVuSans-115"/>
     </g>
    </g>
    <g id="line2d_31">
     <path d="M 65.50625 50.094687 
L 85.50625 50.094687 
" style="fill:none;stroke:#ff7f0e;stroke-linecap:square;stroke-width:1.5;"/>
    </g>
    <g id="line2d_32"/>
    <g id="text_18">
     <!-- Validation loss -->
     <defs>
      <path d="M 28.609375 0 
L 0.78125 72.90625 
L 11.078125 72.90625 
L 34.1875 11.53125 
L 57.328125 72.90625 
L 67.578125 72.90625 
L 39.796875 0 
z
" id="DejaVuSans-86"/>
      <path d="M 45.40625 46.390625 
L 45.40625 75.984375 
L 54.390625 75.984375 
L 54.390625 0 
L 45.40625 0 
L 45.40625 8.203125 
Q 42.578125 3.328125 38.25 0.953125 
Q 33.9375 -1.421875 27.875 -1.421875 
Q 17.96875 -1.421875 11.734375 6.484375 
Q 5.515625 14.40625 5.515625 27.296875 
Q 5.515625 40.1875 11.734375 48.09375 
Q 17.96875 56 27.875 56 
Q 33.9375 56 38.25 53.625 
Q 42.578125 51.265625 45.40625 46.390625 
z
M 14.796875 27.296875 
Q 14.796875 17.390625 18.875 11.75 
Q 22.953125 6.109375 30.078125 6.109375 
Q 37.203125 6.109375 41.296875 11.75 
Q 45.40625 17.390625 45.40625 27.296875 
Q 45.40625 37.203125 41.296875 42.84375 
Q 37.203125 48.484375 30.078125 48.484375 
Q 22.953125 48.484375 18.875 42.84375 
Q 14.796875 37.203125 14.796875 27.296875 
z
" id="DejaVuSans-100"/>
     </defs>
     <g transform="translate(93.50625 53.594687)scale(0.1 -0.1)">
      <use xlink:href="#DejaVuSans-86"/>
      <use x="60.658203" xlink:href="#DejaVuSans-97"/>
      <use x="121.9375" xlink:href="#DejaVuSans-108"/>
      <use x="149.720703" xlink:href="#DejaVuSans-105"/>
      <use x="177.503906" xlink:href="#DejaVuSans-100"/>
      <use x="240.980469" xlink:href="#DejaVuSans-97"/>
      <use x="302.259766" xlink:href="#DejaVuSans-116"/>
      <use x="341.46875" xlink:href="#DejaVuSans-105"/>
      <use x="369.251953" xlink:href="#DejaVuSans-111"/>
      <use x="430.433594" xlink:href="#DejaVuSans-110"/>
      <use x="493.8125" xlink:href="#DejaVuSans-32"/>
      <use x="525.599609" xlink:href="#DejaVuSans-108"/>
      <use x="553.382812" xlink:href="#DejaVuSans-111"/>
      <use x="614.564453" xlink:href="#DejaVuSans-115"/>
      <use x="666.664062" xlink:href="#DejaVuSans-115"/>
     </g>
    </g>
   </g>
  </g>
 </g>
 <defs>
  <clipPath id="p7b90dd5ae0">
   <rect height="266.112" width="357.12" x="56.50625" y="22.318125"/>
  </clipPath>
 </defs>
</svg>
