<?xml version="1.0" encoding="utf-8" standalone="no"?>
<!DOCTYPE svg PUBLIC "-//W3C//DTD SVG 1.1//EN"
  "http://www.w3.org/Graphics/SVG/1.1/DTD/svg11.dtd">
<!-- Created with matplotlib (https://matplotlib.org/) -->
<svg height="325.986375pt" version="1.1" viewBox="0 0 411.285625 325.986375" width="411.285625pt" xmlns="http://www.w3.org/2000/svg" xmlns:xlink="http://www.w3.org/1999/xlink">
 <defs>
  <style type="text/css">
*{stroke-linecap:butt;stroke-linejoin:round;}
  </style>
 </defs>
 <g id="figure_1">
  <g id="patch_1">
   <path d="M 0 325.986375 
L 411.285625 325.986375 
L 411.285625 0 
L 0 0 
z
" style="fill:#ffffff;"/>
  </g>
  <g id="axes_1">
   <g id="patch_2">
    <path d="M 46.965625 288.430125 
L 404.085625 288.430125 
L 404.085625 22.318125 
L 46.965625 22.318125 
z
" style="fill:#ffffff;"/>
   </g>
   <g id="matplotlib.axis_1">
    <g id="xtick_1">
     <g id="line2d_1">
      <path clip-path="url(#p7c4527e93d)" d="M 63.198352 288.430125 
L 63.198352 22.318125 
" style="fill:none;stroke:#b0b0b0;stroke-dasharray:2.96,1.28;stroke-dashoffset:0;stroke-width:0.8;"/>
     </g>
     <g id="line2d_2">
      <defs>
       <path d="M 0 0 
L 0 3.5 
" id="mc3431488a8" style="stroke:#000000;stroke-width:0.8;"/>
      </defs>
      <g>
       <use style="stroke:#000000;stroke-width:0.8;" x="63.198352" xlink:href="#mc3431488a8" y="288.430125"/>
      </g>
     </g>
     <g id="text_1">
      <!-- 0 -->
      <defs>
       <path d="M 31.78125 66.40625 
Q 24.171875 66.40625 20.328125 58.90625 
Q 16.5 51.421875 16.5 36.375 
Q 16.5 21.390625 20.328125 13.890625 
Q 24.171875 6.390625 31.78125 6.390625 
Q 39.453125 6.390625 43.28125 13.890625 
Q 47.125 21.390625 47.125 36.375 
Q 47.125 51.421875 43.28125 58.90625 
Q 39.453125 66.40625 31.78125 66.40625 
z
M 31.78125 74.21875 
Q 44.046875 74.21875 50.515625 64.515625 
Q 56.984375 54.828125 56.984375 36.375 
Q 56.984375 17.96875 50.515625 8.265625 
Q 44.046875 -1.421875 31.78125 -1.421875 
Q 19.53125 -1.421875 13.0625 8.265625 
Q 6.59375 17.96875 6.59375 36.375 
Q 6.59375 54.828125 13.0625 64.515625 
Q 19.53125 74.21875 31.78125 74.21875 
z
" id="DejaVuSans-48"/>
      </defs>
      <g transform="translate(60.017102 303.028562)scale(0.1 -0.1)">
       <use xlink:href="#DejaVuSans-48"/>
      </g>
     </g>
    </g>
    <g id="xtick_2">
     <g id="line2d_3">
      <path clip-path="url(#p7c4527e93d)" d="M 112.128954 288.430125 
L 112.128954 22.318125 
" style="fill:none;stroke:#b0b0b0;stroke-dasharray:2.96,1.28;stroke-dashoffset:0;stroke-width:0.8;"/>
     </g>
     <g id="line2d_4">
      <g>
       <use style="stroke:#000000;stroke-width:0.8;" x="112.128954" xlink:href="#mc3431488a8" y="288.430125"/>
      </g>
     </g>
     <g id="text_2">
      <!-- 200 -->
      <defs>
       <path d="M 19.1875 8.296875 
L 53.609375 8.296875 
L 53.609375 0 
L 7.328125 0 
L 7.328125 8.296875 
Q 12.9375 14.109375 22.625 23.890625 
Q 32.328125 33.6875 34.8125 36.53125 
Q 39.546875 41.84375 41.421875 45.53125 
Q 43.3125 49.21875 43.3125 52.78125 
Q 43.3125 58.59375 39.234375 62.25 
Q 35.15625 65.921875 28.609375 65.921875 
Q 23.96875 65.921875 18.8125 64.3125 
Q 13.671875 62.703125 7.8125 59.421875 
L 7.8125 69.390625 
Q 13.765625 71.78125 18.9375 73 
Q 24.125 74.21875 28.421875 74.21875 
Q 39.75 74.21875 46.484375 68.546875 
Q 53.21875 62.890625 53.21875 53.421875 
Q 53.21875 48.921875 51.53125 44.890625 
Q 49.859375 40.875 45.40625 35.40625 
Q 44.1875 33.984375 37.640625 27.21875 
Q 31.109375 20.453125 19.1875 8.296875 
z
" id="DejaVuSans-50"/>
      </defs>
      <g transform="translate(102.585204 303.028562)scale(0.1 -0.1)">
       <use xlink:href="#DejaVuSans-50"/>
       <use x="63.623047" xlink:href="#DejaVuSans-48"/>
       <use x="127.246094" xlink:href="#DejaVuSans-48"/>
      </g>
     </g>
    </g>
    <g id="xtick_3">
     <g id="line2d_5">
      <path clip-path="url(#p7c4527e93d)" d="M 161.059557 288.430125 
L 161.059557 22.318125 
" style="fill:none;stroke:#b0b0b0;stroke-dasharray:2.96,1.28;stroke-dashoffset:0;stroke-width:0.8;"/>
     </g>
     <g id="line2d_6">
      <g>
       <use style="stroke:#000000;stroke-width:0.8;" x="161.059557" xlink:href="#mc3431488a8" y="288.430125"/>
      </g>
     </g>
     <g id="text_3">
      <!-- 400 -->
      <defs>
       <path d="M 37.796875 64.3125 
L 12.890625 25.390625 
L 37.796875 25.390625 
z
M 35.203125 72.90625 
L 47.609375 72.90625 
L 47.609375 25.390625 
L 58.015625 25.390625 
L 58.015625 17.1875 
L 47.609375 17.1875 
L 47.609375 0 
L 37.796875 0 
L 37.796875 17.1875 
L 4.890625 17.1875 
L 4.890625 26.703125 
z
" id="DejaVuSans-52"/>
      </defs>
      <g transform="translate(151.515807 303.028562)scale(0.1 -0.1)">
       <use xlink:href="#DejaVuSans-52"/>
       <use x="63.623047" xlink:href="#DejaVuSans-48"/>
       <use x="127.246094" xlink:href="#DejaVuSans-48"/>
      </g>
     </g>
    </g>
    <g id="xtick_4">
     <g id="line2d_7">
      <path clip-path="url(#p7c4527e93d)" d="M 209.990159 288.430125 
L 209.990159 22.318125 
" style="fill:none;stroke:#b0b0b0;stroke-dasharray:2.96,1.28;stroke-dashoffset:0;stroke-width:0.8;"/>
     </g>
     <g id="line2d_8">
      <g>
       <use style="stroke:#000000;stroke-width:0.8;" x="209.990159" xlink:href="#mc3431488a8" y="288.430125"/>
      </g>
     </g>
     <g id="text_4">
      <!-- 600 -->
      <defs>
       <path d="M 33.015625 40.375 
Q 26.375 40.375 22.484375 35.828125 
Q 18.609375 31.296875 18.609375 23.390625 
Q 18.609375 15.53125 22.484375 10.953125 
Q 26.375 6.390625 33.015625 6.390625 
Q 39.65625 6.390625 43.53125 10.953125 
Q 47.40625 15.53125 47.40625 23.390625 
Q 47.40625 31.296875 43.53125 35.828125 
Q 39.65625 40.375 33.015625 40.375 
z
M 52.59375 71.296875 
L 52.59375 62.3125 
Q 48.875 64.0625 45.09375 64.984375 
Q 41.3125 65.921875 37.59375 65.921875 
Q 27.828125 65.921875 22.671875 59.328125 
Q 17.53125 52.734375 16.796875 39.40625 
Q 19.671875 43.65625 24.015625 45.921875 
Q 28.375 48.1875 33.59375 48.1875 
Q 44.578125 48.1875 50.953125 41.515625 
Q 57.328125 34.859375 57.328125 23.390625 
Q 57.328125 12.15625 50.6875 5.359375 
Q 44.046875 -1.421875 33.015625 -1.421875 
Q 20.359375 -1.421875 13.671875 8.265625 
Q 6.984375 17.96875 6.984375 36.375 
Q 6.984375 53.65625 15.1875 63.9375 
Q 23.390625 74.21875 37.203125 74.21875 
Q 40.921875 74.21875 44.703125 73.484375 
Q 48.484375 72.75 52.59375 71.296875 
z
" id="DejaVuSans-54"/>
      </defs>
      <g transform="translate(200.446409 303.028562)scale(0.1 -0.1)">
       <use xlink:href="#DejaVuSans-54"/>
       <use x="63.623047" xlink:href="#DejaVuSans-48"/>
       <use x="127.246094" xlink:href="#DejaVuSans-48"/>
      </g>
     </g>
    </g>
    <g id="xtick_5">
     <g id="line2d_9">
      <path clip-path="url(#p7c4527e93d)" d="M 258.920761 288.430125 
L 258.920761 22.318125 
" style="fill:none;stroke:#b0b0b0;stroke-dasharray:2.96,1.28;stroke-dashoffset:0;stroke-width:0.8;"/>
     </g>
     <g id="line2d_10">
      <g>
       <use style="stroke:#000000;stroke-width:0.8;" x="258.920761" xlink:href="#mc3431488a8" y="288.430125"/>
      </g>
     </g>
     <g id="text_5">
      <!-- 800 -->
      <defs>
       <path d="M 31.78125 34.625 
Q 24.75 34.625 20.71875 30.859375 
Q 16.703125 27.09375 16.703125 20.515625 
Q 16.703125 13.921875 20.71875 10.15625 
Q 24.75 6.390625 31.78125 6.390625 
Q 38.8125 6.390625 42.859375 10.171875 
Q 46.921875 13.96875 46.921875 20.515625 
Q 46.921875 27.09375 42.890625 30.859375 
Q 38.875 34.625 31.78125 34.625 
z
M 21.921875 38.8125 
Q 15.578125 40.375 12.03125 44.71875 
Q 8.5 49.078125 8.5 55.328125 
Q 8.5 64.0625 14.71875 69.140625 
Q 20.953125 74.21875 31.78125 74.21875 
Q 42.671875 74.21875 48.875 69.140625 
Q 55.078125 64.0625 55.078125 55.328125 
Q 55.078125 49.078125 51.53125 44.71875 
Q 48 40.375 41.703125 38.8125 
Q 48.828125 37.15625 52.796875 32.3125 
Q 56.78125 27.484375 56.78125 20.515625 
Q 56.78125 9.90625 50.3125 4.234375 
Q 43.84375 -1.421875 31.78125 -1.421875 
Q 19.734375 -1.421875 13.25 4.234375 
Q 6.78125 9.90625 6.78125 20.515625 
Q 6.78125 27.484375 10.78125 32.3125 
Q 14.796875 37.15625 21.921875 38.8125 
z
M 18.3125 54.390625 
Q 18.3125 48.734375 21.84375 45.5625 
Q 25.390625 42.390625 31.78125 42.390625 
Q 38.140625 42.390625 41.71875 45.5625 
Q 45.3125 48.734375 45.3125 54.390625 
Q 45.3125 60.0625 41.71875 63.234375 
Q 38.140625 66.40625 31.78125 66.40625 
Q 25.390625 66.40625 21.84375 63.234375 
Q 18.3125 60.0625 18.3125 54.390625 
z
" id="DejaVuSans-56"/>
      </defs>
      <g transform="translate(249.377011 303.028562)scale(0.1 -0.1)">
       <use xlink:href="#DejaVuSans-56"/>
       <use x="63.623047" xlink:href="#DejaVuSans-48"/>
       <use x="127.246094" xlink:href="#DejaVuSans-48"/>
      </g>
     </g>
    </g>
    <g id="xtick_6">
     <g id="line2d_11">
      <path clip-path="url(#p7c4527e93d)" d="M 307.851363 288.430125 
L 307.851363 22.318125 
" style="fill:none;stroke:#b0b0b0;stroke-dasharray:2.96,1.28;stroke-dashoffset:0;stroke-width:0.8;"/>
     </g>
     <g id="line2d_12">
      <g>
       <use style="stroke:#000000;stroke-width:0.8;" x="307.851363" xlink:href="#mc3431488a8" y="288.430125"/>
      </g>
     </g>
     <g id="text_6">
      <!-- 1000 -->
      <defs>
       <path d="M 12.40625 8.296875 
L 28.515625 8.296875 
L 28.515625 63.921875 
L 10.984375 60.40625 
L 10.984375 69.390625 
L 28.421875 72.90625 
L 38.28125 72.90625 
L 38.28125 8.296875 
L 54.390625 8.296875 
L 54.390625 0 
L 12.40625 0 
z
" id="DejaVuSans-49"/>
      </defs>
      <g transform="translate(295.126363 303.028562)scale(0.1 -0.1)">
       <use xlink:href="#DejaVuSans-49"/>
       <use x="63.623047" xlink:href="#DejaVuSans-48"/>
       <use x="127.246094" xlink:href="#DejaVuSans-48"/>
       <use x="190.869141" xlink:href="#DejaVuSans-48"/>
      </g>
     </g>
    </g>
    <g id="xtick_7">
     <g id="line2d_13">
      <path clip-path="url(#p7c4527e93d)" d="M 356.781965 288.430125 
L 356.781965 22.318125 
" style="fill:none;stroke:#b0b0b0;stroke-dasharray:2.96,1.28;stroke-dashoffset:0;stroke-width:0.8;"/>
     </g>
     <g id="line2d_14">
      <g>
       <use style="stroke:#000000;stroke-width:0.8;" x="356.781965" xlink:href="#mc3431488a8" y="288.430125"/>
      </g>
     </g>
     <g id="text_7">
      <!-- 1200 -->
      <g transform="translate(344.056965 303.028562)scale(0.1 -0.1)">
       <use xlink:href="#DejaVuSans-49"/>
       <use x="63.623047" xlink:href="#DejaVuSans-50"/>
       <use x="127.246094" xlink:href="#DejaVuSans-48"/>
       <use x="190.869141" xlink:href="#DejaVuSans-48"/>
      </g>
     </g>
    </g>
    <g id="text_8">
     <!-- Day -->
     <defs>
      <path d="M 19.671875 64.796875 
L 19.671875 8.109375 
L 31.59375 8.109375 
Q 46.6875 8.109375 53.6875 14.9375 
Q 60.6875 21.78125 60.6875 36.53125 
Q 60.6875 51.171875 53.6875 57.984375 
Q 46.6875 64.796875 31.59375 64.796875 
z
M 9.8125 72.90625 
L 30.078125 72.90625 
Q 51.265625 72.90625 61.171875 64.09375 
Q 71.09375 55.28125 71.09375 36.53125 
Q 71.09375 17.671875 61.125 8.828125 
Q 51.171875 0 30.078125 0 
L 9.8125 0 
z
" id="DejaVuSans-68"/>
      <path d="M 34.28125 27.484375 
Q 23.390625 27.484375 19.1875 25 
Q 14.984375 22.515625 14.984375 16.5 
Q 14.984375 11.71875 18.140625 8.90625 
Q 21.296875 6.109375 26.703125 6.109375 
Q 34.1875 6.109375 38.703125 11.40625 
Q 43.21875 16.703125 43.21875 25.484375 
L 43.21875 27.484375 
z
M 52.203125 31.203125 
L 52.203125 0 
L 43.21875 0 
L 43.21875 8.296875 
Q 40.140625 3.328125 35.546875 0.953125 
Q 30.953125 -1.421875 24.3125 -1.421875 
Q 15.921875 -1.421875 10.953125 3.296875 
Q 6 8.015625 6 15.921875 
Q 6 25.140625 12.171875 29.828125 
Q 18.359375 34.515625 30.609375 34.515625 
L 43.21875 34.515625 
L 43.21875 35.40625 
Q 43.21875 41.609375 39.140625 45 
Q 35.0625 48.390625 27.6875 48.390625 
Q 23 48.390625 18.546875 47.265625 
Q 14.109375 46.140625 10.015625 43.890625 
L 10.015625 52.203125 
Q 14.9375 54.109375 19.578125 55.046875 
Q 24.21875 56 28.609375 56 
Q 40.484375 56 46.34375 49.84375 
Q 52.203125 43.703125 52.203125 31.203125 
z
" id="DejaVuSans-97"/>
      <path d="M 32.171875 -5.078125 
Q 28.375 -14.84375 24.75 -17.8125 
Q 21.140625 -20.796875 15.09375 -20.796875 
L 7.90625 -20.796875 
L 7.90625 -13.28125 
L 13.1875 -13.28125 
Q 16.890625 -13.28125 18.9375 -11.515625 
Q 21 -9.765625 23.484375 -3.21875 
L 25.09375 0.875 
L 2.984375 54.6875 
L 12.5 54.6875 
L 29.59375 11.921875 
L 46.6875 54.6875 
L 56.203125 54.6875 
z
" id="DejaVuSans-121"/>
     </defs>
     <g transform="translate(215.652188 316.706687)scale(0.1 -0.1)">
      <use xlink:href="#DejaVuSans-68"/>
      <use x="77.001953" xlink:href="#DejaVuSans-97"/>
      <use x="138.28125" xlink:href="#DejaVuSans-121"/>
     </g>
    </g>
   </g>
   <g id="matplotlib.axis_2">
    <g id="ytick_1">
     <g id="line2d_15">
      <path clip-path="url(#p7c4527e93d)" d="M 46.965625 287.314804 
L 404.085625 287.314804 
" style="fill:none;stroke:#b0b0b0;stroke-dasharray:2.96,1.28;stroke-dashoffset:0;stroke-width:0.8;"/>
     </g>
     <g id="line2d_16">
      <defs>
       <path d="M 0 0 
L -3.5 0 
" id="m9667cfce8e" style="stroke:#000000;stroke-width:0.8;"/>
      </defs>
      <g>
       <use style="stroke:#000000;stroke-width:0.8;" x="46.965625" xlink:href="#m9667cfce8e" y="287.314804"/>
      </g>
     </g>
     <g id="text_9">
      <!-- 75 -->
      <defs>
       <path d="M 8.203125 72.90625 
L 55.078125 72.90625 
L 55.078125 68.703125 
L 28.609375 0 
L 18.3125 0 
L 43.21875 64.59375 
L 8.203125 64.59375 
z
" id="DejaVuSans-55"/>
       <path d="M 10.796875 72.90625 
L 49.515625 72.90625 
L 49.515625 64.59375 
L 19.828125 64.59375 
L 19.828125 46.734375 
Q 21.96875 47.46875 24.109375 47.828125 
Q 26.265625 48.1875 28.421875 48.1875 
Q 40.625 48.1875 47.75 41.5 
Q 54.890625 34.8125 54.890625 23.390625 
Q 54.890625 11.625 47.5625 5.09375 
Q 40.234375 -1.421875 26.90625 -1.421875 
Q 22.3125 -1.421875 17.546875 -0.640625 
Q 12.796875 0.140625 7.71875 1.703125 
L 7.71875 11.625 
Q 12.109375 9.234375 16.796875 8.0625 
Q 21.484375 6.890625 26.703125 6.890625 
Q 35.15625 6.890625 40.078125 11.328125 
Q 45.015625 15.765625 45.015625 23.390625 
Q 45.015625 31 40.078125 35.4375 
Q 35.15625 39.890625 26.703125 39.890625 
Q 22.75 39.890625 18.8125 39.015625 
Q 14.890625 38.140625 10.796875 36.28125 
z
" id="DejaVuSans-53"/>
      </defs>
      <g transform="translate(27.240625 291.114023)scale(0.1 -0.1)">
       <use xlink:href="#DejaVuSans-55"/>
       <use x="63.623047" xlink:href="#DejaVuSans-53"/>
      </g>
     </g>
    </g>
    <g id="ytick_2">
     <g id="line2d_17">
      <path clip-path="url(#p7c4527e93d)" d="M 46.965625 255.357065 
L 404.085625 255.357065 
" style="fill:none;stroke:#b0b0b0;stroke-dasharray:2.96,1.28;stroke-dashoffset:0;stroke-width:0.8;"/>
     </g>
     <g id="line2d_18">
      <g>
       <use style="stroke:#000000;stroke-width:0.8;" x="46.965625" xlink:href="#m9667cfce8e" y="255.357065"/>
      </g>
     </g>
     <g id="text_10">
      <!-- 100 -->
      <g transform="translate(20.878125 259.156284)scale(0.1 -0.1)">
       <use xlink:href="#DejaVuSans-49"/>
       <use x="63.623047" xlink:href="#DejaVuSans-48"/>
       <use x="127.246094" xlink:href="#DejaVuSans-48"/>
      </g>
     </g>
    </g>
    <g id="ytick_3">
     <g id="line2d_19">
      <path clip-path="url(#p7c4527e93d)" d="M 46.965625 223.399326 
L 404.085625 223.399326 
" style="fill:none;stroke:#b0b0b0;stroke-dasharray:2.96,1.28;stroke-dashoffset:0;stroke-width:0.8;"/>
     </g>
     <g id="line2d_20">
      <g>
       <use style="stroke:#000000;stroke-width:0.8;" x="46.965625" xlink:href="#m9667cfce8e" y="223.399326"/>
      </g>
     </g>
     <g id="text_11">
      <!-- 125 -->
      <g transform="translate(20.878125 227.198545)scale(0.1 -0.1)">
       <use xlink:href="#DejaVuSans-49"/>
       <use x="63.623047" xlink:href="#DejaVuSans-50"/>
       <use x="127.246094" xlink:href="#DejaVuSans-53"/>
      </g>
     </g>
    </g>
    <g id="ytick_4">
     <g id="line2d_21">
      <path clip-path="url(#p7c4527e93d)" d="M 46.965625 191.441588 
L 404.085625 191.441588 
" style="fill:none;stroke:#b0b0b0;stroke-dasharray:2.96,1.28;stroke-dashoffset:0;stroke-width:0.8;"/>
     </g>
     <g id="line2d_22">
      <g>
       <use style="stroke:#000000;stroke-width:0.8;" x="46.965625" xlink:href="#m9667cfce8e" y="191.441588"/>
      </g>
     </g>
     <g id="text_12">
      <!-- 150 -->
      <g transform="translate(20.878125 195.240806)scale(0.1 -0.1)">
       <use xlink:href="#DejaVuSans-49"/>
       <use x="63.623047" xlink:href="#DejaVuSans-53"/>
       <use x="127.246094" xlink:href="#DejaVuSans-48"/>
      </g>
     </g>
    </g>
    <g id="ytick_5">
     <g id="line2d_23">
      <path clip-path="url(#p7c4527e93d)" d="M 46.965625 159.483849 
L 404.085625 159.483849 
" style="fill:none;stroke:#b0b0b0;stroke-dasharray:2.96,1.28;stroke-dashoffset:0;stroke-width:0.8;"/>
     </g>
     <g id="line2d_24">
      <g>
       <use style="stroke:#000000;stroke-width:0.8;" x="46.965625" xlink:href="#m9667cfce8e" y="159.483849"/>
      </g>
     </g>
     <g id="text_13">
      <!-- 175 -->
      <g transform="translate(20.878125 163.283068)scale(0.1 -0.1)">
       <use xlink:href="#DejaVuSans-49"/>
       <use x="63.623047" xlink:href="#DejaVuSans-55"/>
       <use x="127.246094" xlink:href="#DejaVuSans-53"/>
      </g>
     </g>
    </g>
    <g id="ytick_6">
     <g id="line2d_25">
      <path clip-path="url(#p7c4527e93d)" d="M 46.965625 127.52611 
L 404.085625 127.52611 
" style="fill:none;stroke:#b0b0b0;stroke-dasharray:2.96,1.28;stroke-dashoffset:0;stroke-width:0.8;"/>
     </g>
     <g id="line2d_26">
      <g>
       <use style="stroke:#000000;stroke-width:0.8;" x="46.965625" xlink:href="#m9667cfce8e" y="127.52611"/>
      </g>
     </g>
     <g id="text_14">
      <!-- 200 -->
      <g transform="translate(20.878125 131.325329)scale(0.1 -0.1)">
       <use xlink:href="#DejaVuSans-50"/>
       <use x="63.623047" xlink:href="#DejaVuSans-48"/>
       <use x="127.246094" xlink:href="#DejaVuSans-48"/>
      </g>
     </g>
    </g>
    <g id="ytick_7">
     <g id="line2d_27">
      <path clip-path="url(#p7c4527e93d)" d="M 46.965625 95.568371 
L 404.085625 95.568371 
" style="fill:none;stroke:#b0b0b0;stroke-dasharray:2.96,1.28;stroke-dashoffset:0;stroke-width:0.8;"/>
     </g>
     <g id="line2d_28">
      <g>
       <use style="stroke:#000000;stroke-width:0.8;" x="46.965625" xlink:href="#m9667cfce8e" y="95.568371"/>
      </g>
     </g>
     <g id="text_15">
      <!-- 225 -->
      <g transform="translate(20.878125 99.36759)scale(0.1 -0.1)">
       <use xlink:href="#DejaVuSans-50"/>
       <use x="63.623047" xlink:href="#DejaVuSans-50"/>
       <use x="127.246094" xlink:href="#DejaVuSans-53"/>
      </g>
     </g>
    </g>
    <g id="ytick_8">
     <g id="line2d_29">
      <path clip-path="url(#p7c4527e93d)" d="M 46.965625 63.610632 
L 404.085625 63.610632 
" style="fill:none;stroke:#b0b0b0;stroke-dasharray:2.96,1.28;stroke-dashoffset:0;stroke-width:0.8;"/>
     </g>
     <g id="line2d_30">
      <g>
       <use style="stroke:#000000;stroke-width:0.8;" x="46.965625" xlink:href="#m9667cfce8e" y="63.610632"/>
      </g>
     </g>
     <g id="text_16">
      <!-- 250 -->
      <g transform="translate(20.878125 67.409851)scale(0.1 -0.1)">
       <use xlink:href="#DejaVuSans-50"/>
       <use x="63.623047" xlink:href="#DejaVuSans-53"/>
       <use x="127.246094" xlink:href="#DejaVuSans-48"/>
      </g>
     </g>
    </g>
    <g id="ytick_9">
     <g id="line2d_31">
      <path clip-path="url(#p7c4527e93d)" d="M 46.965625 31.652894 
L 404.085625 31.652894 
" style="fill:none;stroke:#b0b0b0;stroke-dasharray:2.96,1.28;stroke-dashoffset:0;stroke-width:0.8;"/>
     </g>
     <g id="line2d_32">
      <g>
       <use style="stroke:#000000;stroke-width:0.8;" x="46.965625" xlink:href="#m9667cfce8e" y="31.652894"/>
      </g>
     </g>
     <g id="text_17">
      <!-- 275 -->
      <g transform="translate(20.878125 35.452112)scale(0.1 -0.1)">
       <use xlink:href="#DejaVuSans-50"/>
       <use x="63.623047" xlink:href="#DejaVuSans-55"/>
       <use x="127.246094" xlink:href="#DejaVuSans-53"/>
      </g>
     </g>
    </g>
    <g id="text_18">
     <!-- Price $ -->
     <defs>
      <path d="M 19.671875 64.796875 
L 19.671875 37.40625 
L 32.078125 37.40625 
Q 38.96875 37.40625 42.71875 40.96875 
Q 46.484375 44.53125 46.484375 51.125 
Q 46.484375 57.671875 42.71875 61.234375 
Q 38.96875 64.796875 32.078125 64.796875 
z
M 9.8125 72.90625 
L 32.078125 72.90625 
Q 44.34375 72.90625 50.609375 67.359375 
Q 56.890625 61.8125 56.890625 51.125 
Q 56.890625 40.328125 50.609375 34.8125 
Q 44.34375 29.296875 32.078125 29.296875 
L 19.671875 29.296875 
L 19.671875 0 
L 9.8125 0 
z
" id="DejaVuSans-80"/>
      <path d="M 41.109375 46.296875 
Q 39.59375 47.171875 37.8125 47.578125 
Q 36.03125 48 33.890625 48 
Q 26.265625 48 22.1875 43.046875 
Q 18.109375 38.09375 18.109375 28.8125 
L 18.109375 0 
L 9.078125 0 
L 9.078125 54.6875 
L 18.109375 54.6875 
L 18.109375 46.1875 
Q 20.953125 51.171875 25.484375 53.578125 
Q 30.03125 56 36.53125 56 
Q 37.453125 56 38.578125 55.875 
Q 39.703125 55.765625 41.0625 55.515625 
z
" id="DejaVuSans-114"/>
      <path d="M 9.421875 54.6875 
L 18.40625 54.6875 
L 18.40625 0 
L 9.421875 0 
z
M 9.421875 75.984375 
L 18.40625 75.984375 
L 18.40625 64.59375 
L 9.421875 64.59375 
z
" id="DejaVuSans-105"/>
      <path d="M 48.78125 52.59375 
L 48.78125 44.1875 
Q 44.96875 46.296875 41.140625 47.34375 
Q 37.3125 48.390625 33.40625 48.390625 
Q 24.65625 48.390625 19.8125 42.84375 
Q 14.984375 37.3125 14.984375 27.296875 
Q 14.984375 17.28125 19.8125 11.734375 
Q 24.65625 6.203125 33.40625 6.203125 
Q 37.3125 6.203125 41.140625 7.25 
Q 44.96875 8.296875 48.78125 10.40625 
L 48.78125 2.09375 
Q 45.015625 0.34375 40.984375 -0.53125 
Q 36.96875 -1.421875 32.421875 -1.421875 
Q 20.0625 -1.421875 12.78125 6.34375 
Q 5.515625 14.109375 5.515625 27.296875 
Q 5.515625 40.671875 12.859375 48.328125 
Q 20.21875 56 33.015625 56 
Q 37.15625 56 41.109375 55.140625 
Q 45.0625 54.296875 48.78125 52.59375 
z
" id="DejaVuSans-99"/>
      <path d="M 56.203125 29.59375 
L 56.203125 25.203125 
L 14.890625 25.203125 
Q 15.484375 15.921875 20.484375 11.0625 
Q 25.484375 6.203125 34.421875 6.203125 
Q 39.59375 6.203125 44.453125 7.46875 
Q 49.3125 8.734375 54.109375 11.28125 
L 54.109375 2.78125 
Q 49.265625 0.734375 44.1875 -0.34375 
Q 39.109375 -1.421875 33.890625 -1.421875 
Q 20.796875 -1.421875 13.15625 6.1875 
Q 5.515625 13.8125 5.515625 26.8125 
Q 5.515625 40.234375 12.765625 48.109375 
Q 20.015625 56 32.328125 56 
Q 43.359375 56 49.78125 48.890625 
Q 56.203125 41.796875 56.203125 29.59375 
z
M 47.21875 32.234375 
Q 47.125 39.59375 43.09375 43.984375 
Q 39.0625 48.390625 32.421875 48.390625 
Q 24.90625 48.390625 20.390625 44.140625 
Q 15.875 39.890625 15.1875 32.171875 
z
" id="DejaVuSans-101"/>
      <path id="DejaVuSans-32"/>
      <path d="M 33.796875 -14.703125 
L 28.90625 -14.703125 
L 28.859375 0 
Q 23.734375 0.09375 18.609375 1.1875 
Q 13.484375 2.296875 8.296875 4.5 
L 8.296875 13.28125 
Q 13.28125 10.15625 18.375 8.5625 
Q 23.484375 6.984375 28.90625 6.9375 
L 28.90625 29.203125 
Q 18.109375 30.953125 13.203125 35.15625 
Q 8.296875 39.359375 8.296875 46.6875 
Q 8.296875 54.640625 13.625 59.21875 
Q 18.953125 63.8125 28.90625 64.5 
L 28.90625 75.984375 
L 33.796875 75.984375 
L 33.796875 64.65625 
Q 38.328125 64.453125 42.578125 63.6875 
Q 46.828125 62.9375 50.875 61.625 
L 50.875 53.078125 
Q 46.828125 55.125 42.546875 56.25 
Q 38.28125 57.375 33.796875 57.5625 
L 33.796875 36.71875 
Q 44.875 35.015625 50.09375 30.609375 
Q 55.328125 26.21875 55.328125 18.609375 
Q 55.328125 10.359375 49.78125 5.59375 
Q 44.234375 0.828125 33.796875 0.09375 
z
M 28.90625 37.59375 
L 28.90625 57.625 
Q 23.25 56.984375 20.265625 54.390625 
Q 17.28125 51.8125 17.28125 47.515625 
Q 17.28125 43.3125 20.03125 40.96875 
Q 22.796875 38.625 28.90625 37.59375 
z
M 33.796875 28.21875 
L 33.796875 7.078125 
Q 39.984375 7.90625 43.140625 10.59375 
Q 46.296875 13.28125 46.296875 17.671875 
Q 46.296875 21.96875 43.28125 24.5 
Q 40.28125 27.046875 33.796875 28.21875 
z
" id="DejaVuSans-36"/>
     </defs>
     <g transform="translate(14.798438 172.342094)rotate(-90)scale(0.1 -0.1)">
      <use xlink:href="#DejaVuSans-80"/>
      <use x="58.552734" xlink:href="#DejaVuSans-114"/>
      <use x="99.666016" xlink:href="#DejaVuSans-105"/>
      <use x="127.449219" xlink:href="#DejaVuSans-99"/>
      <use x="182.429688" xlink:href="#DejaVuSans-101"/>
      <use x="243.953125" xlink:href="#DejaVuSans-32"/>
      <use x="275.740234" xlink:href="#DejaVuSans-36"/>
     </g>
    </g>
   </g>
   <g id="line2d_33">
    <path clip-path="url(#p7c4527e93d)" d="M 63.198352 244.874121 
L 63.443005 228.547226 
L 63.932311 225.893528 
L 64.176964 226.874721 
L 64.421617 224.104897 
L 64.66627 219.332888 
L 64.910923 216.920882 
L 65.155576 215.730015 
L 65.400229 215.987039 
L 65.644882 215.885123 
L 65.889535 216.946766 
L 66.134188 216.648839 
L 66.378841 217.007252 
L 66.623494 213.028139 
L 66.868147 212.520529 
L 67.1128 216.365679 
L 67.357453 225.450852 
L 67.602106 226.560995 
L 67.846759 235.665839 
L 68.091412 235.739141 
L 68.336066 234.500028 
L 68.580719 230.32151 
L 68.825372 238.769206 
L 69.070025 240.270395 
L 69.314678 240.839827 
L 69.559331 238.098931 
L 69.803984 240.930274 
L 70.048637 240.116994 
L 70.29329 243.396515 
L 70.537943 243.953444 
L 70.782596 243.113998 
L 71.027249 246.22583 
L 71.271902 243.534516 
L 71.516555 236.725551 
L 72.005861 240.612189 
L 72.250514 237.93644 
L 72.495167 241.105092 
L 72.73982 241.373916 
L 72.984473 238.825782 
L 73.229126 239.677341 
L 73.473779 239.914333 
L 73.963085 234.060453 
L 74.207738 239.28297 
L 74.697044 239.916088 
L 75.18635 237.267237 
L 75.431003 237.360727 
L 75.675656 246.68493 
L 76.409615 240.97857 
L 76.654268 237.798907 
L 76.898921 238.434395 
L 77.143574 236.997487 
L 77.388227 239.349884 
L 77.63288 240.565152 
L 78.122186 237.759165 
L 78.366839 238.47876 
L 78.856145 238.511959 
L 79.100798 247.115854 
L 79.345451 247.252607 
L 79.834757 251.116004 
L 80.07941 248.87628 
L 80.568716 251.818688 
L 80.813369 251.881622 
L 81.058022 250.880349 
L 81.547328 263.869558 
L 81.791981 263.625721 
L 82.036634 263.873762 
L 82.281287 265.377447 
L 82.52594 262.817551 
L 82.770593 263.353873 
L 83.015246 260.57179 
L 83.259899 260.846447 
L 83.504552 262.045398 
L 83.749205 260.827458 
L 83.993858 257.161203 
L 84.238511 259.819416 
L 84.483164 260.660053 
L 84.727817 266.773209 
L 84.97247 269.644373 
L 85.217123 269.029219 
L 85.461776 268.788893 
L 86.195735 260.794562 
L 86.440388 261.667139 
L 86.685041 259.437792 
L 86.929694 260.497289 
L 87.419 255.279287 
L 87.663653 255.650983 
L 88.152959 258.985763 
L 88.397612 254.833334 
L 88.642265 256.505868 
L 88.886918 256.892057 
L 89.131571 255.078791 
L 89.376224 250.691643 
L 89.620877 249.789486 
L 89.86553 249.938606 
L 90.110183 253.03459 
L 90.354836 254.008955 
L 90.599489 250.354072 
L 90.844143 242.389039 
L 91.088796 239.891609 
L 91.333449 239.884655 
L 91.578102 241.923599 
L 91.822755 242.785233 
L 92.067408 244.636184 
L 92.312061 243.65149 
L 92.556714 244.250269 
L 92.801367 245.170458 
L 93.04602 246.588066 
L 93.290673 245.975009 
L 93.535326 241.842915 
L 93.779979 243.93626 
L 94.024632 244.298593 
L 94.269285 244.9637 
L 94.513938 244.851154 
L 94.758591 246.427936 
L 95.003244 259.357946 
L 95.247897 257.761425 
L 95.49255 260.630804 
L 95.737203 260.020683 
L 95.981856 260.456932 
L 96.226509 261.350516 
L 96.471162 260.851684 
L 96.715815 261.470865 
L 96.960468 262.641739 
L 97.205121 264.38106 
L 97.449774 268.579648 
L 97.694427 268.942888 
L 97.93908 268.431699 
L 98.183733 269.981642 
L 98.428386 268.3007 
L 98.673039 268.588299 
L 99.162345 265.18486 
L 99.406998 267.853743 
L 99.651651 266.992821 
L 99.896304 268.639949 
L 100.140957 268.73695 
L 100.38561 270.489866 
L 100.630263 270.297006 
L 100.874916 272.040257 
L 101.119569 272.041301 
L 101.608875 274.813075 
L 101.853528 274.902956 
L 102.098181 276.181275 
L 102.342834 273.392122 
L 102.587487 273.078718 
L 102.83214 272.539577 
L 103.076793 273.239677 
L 103.321446 272.60732 
L 103.566099 270.533275 
L 103.810752 270.516013 
L 104.055405 271.642278 
L 104.300058 271.716603 
L 104.544711 273.961827 
L 104.789364 272.979377 
L 105.034017 275.573017 
L 105.27867 274.99785 
L 105.523323 275.51218 
L 105.767976 269.017848 
L 106.012629 268.931692 
L 106.257282 266.903164 
L 106.501935 269.714875 
L 106.746588 268.100058 
L 106.991241 269.721136 
L 107.235894 272.331903 
L 107.480547 272.594193 
L 107.7252 273.031095 
L 107.969853 270.457194 
L 108.214506 269.757075 
L 108.459159 264.687207 
L 108.703812 273.460176 
L 108.948465 273.153863 
L 109.193118 272.287313 
L 109.437771 273.683377 
L 109.682424 272.976256 
L 109.927077 273.456148 
L 110.17173 269.792829 
L 110.416383 268.021636 
L 110.661036 263.16231 
L 111.150342 260.490531 
L 111.394995 263.701226 
L 111.884301 263.359159 
L 112.128954 264.227074 
L 112.373607 261.882557 
L 112.61826 254.229406 
L 112.862913 255.86999 
L 113.107566 261.023205 
L 113.35222 262.959951 
L 113.596873 259.795132 
L 113.841526 258.447149 
L 114.086179 259.220023 
L 114.330832 257.586617 
L 114.575485 259.320379 
L 114.820138 259.55421 
L 115.064791 261.025341 
L 115.309444 261.398344 
L 115.79875 251.473431 
L 116.043403 251.318753 
L 116.288056 256.085555 
L 116.532709 258.13119 
L 116.777362 255.655021 
L 117.266668 259.086352 
L 117.511321 259.452616 
L 118.000627 263.208538 
L 118.24528 263.401944 
L 118.489933 267.038259 
L 118.734586 266.45879 
L 118.979239 262.974219 
L 119.223892 262.123849 
L 119.468545 261.825133 
L 119.957851 267.223843 
L 120.202504 268.471734 
L 120.447157 265.798755 
L 120.69181 266.704345 
L 120.936463 264.264583 
L 121.181116 262.941928 
L 121.425769 258.610253 
L 121.670422 258.907946 
L 122.404381 244.028306 
L 122.649034 240.922755 
L 122.893687 241.352002 
L 123.13834 242.656429 
L 123.382993 242.836065 
L 123.627646 238.197014 
L 123.872299 222.180996 
L 124.361605 218.496942 
L 124.606258 214.824475 
L 124.850911 214.370075 
L 125.095564 210.636068 
L 125.340217 204.211712 
L 125.58487 212.443541 
L 125.829523 210.322147 
L 126.074176 210.775025 
L 126.318829 209.35296 
L 126.563482 206.614843 
L 126.808135 209.058545 
L 127.052788 202.276771 
L 127.542094 210.772587 
L 127.786747 211.469887 
L 128.0314 210.636127 
L 128.276053 211.031327 
L 128.520706 209.547937 
L 128.765359 204.988868 
L 129.010012 206.414951 
L 129.254665 205.8498 
L 129.499318 210.756066 
L 129.743971 205.567751 
L 129.988624 205.132175 
L 130.233277 210.163041 
L 130.47793 209.054585 
L 130.967236 213.051175 
L 131.211889 209.601616 
L 131.456542 208.320029 
L 131.701195 203.4494 
L 131.945848 194.683804 
L 132.435154 200.915739 
L 132.679807 200.478114 
L 132.92446 199.061413 
L 133.413766 194.038486 
L 133.658419 196.20878 
L 133.903072 192.299047 
L 134.392378 190.604609 
L 134.637031 185.978227 
L 134.881684 186.596452 
L 135.126337 185.024644 
L 135.37099 180.044452 
L 135.615643 178.625157 
L 135.860297 182.665966 
L 136.10495 179.590092 
L 136.349603 181.770939 
L 136.594256 193.543105 
L 136.838909 195.396514 
L 137.083562 187.095577 
L 137.328215 184.987271 
L 137.817521 189.38698 
L 138.062174 190.704164 
L 138.306827 186.191285 
L 138.55148 170.545178 
L 138.796133 177.366997 
L 139.285439 184.8615 
L 139.530092 176.560739 
L 139.774745 179.342646 
L 140.019398 186.207513 
L 140.508704 171.769653 
L 140.753357 177.749733 
L 140.99801 178.702087 
L 141.731969 191.376166 
L 141.976622 194.536811 
L 142.221275 190.022039 
L 142.465928 189.346663 
L 142.710581 191.054424 
L 142.955234 187.371131 
L 143.199887 179.695851 
L 143.44454 175.568711 
L 143.933846 174.348274 
L 144.178499 180.013653 
L 144.423152 180.207518 
L 144.667805 180.765998 
L 144.912458 182.564557 
L 145.157111 174.446269 
L 145.401764 174.615284 
L 145.646417 169.782944 
L 145.89107 167.478218 
L 146.135723 169.483808 
L 146.380376 167.625329 
L 146.625029 168.855869 
L 146.869682 167.095833 
L 147.114335 162.985644 
L 147.358988 152.130526 
L 147.603641 162.347055 
L 147.848294 164.081811 
L 148.092947 163.905521 
L 148.3376 167.330114 
L 148.582253 168.139707 
L 148.826906 164.68966 
L 149.071559 165.123208 
L 149.316212 161.964358 
L 149.560865 163.760127 
L 149.805518 168.536545 
L 150.050171 170.725194 
L 150.294824 161.396495 
L 150.539477 161.537442 
L 150.78413 156.56831 
L 151.028783 154.010559 
L 151.273436 160.12829 
L 152.007395 152.432197 
L 152.252048 159.701374 
L 152.496701 153.449426 
L 152.741354 164.8143 
L 152.986007 162.285281 
L 153.23066 164.941202 
L 153.475313 161.807085 
L 153.719966 166.122043 
L 154.209272 160.601824 
L 154.453925 174.584056 
L 154.943231 180.2674 
L 155.187884 173.199695 
L 155.432537 181.305148 
L 155.67719 177.571297 
L 156.166496 190.528498 
L 156.411149 183.62187 
L 156.655802 188.719465 
L 156.900455 184.546312 
L 157.145108 176.841422 
L 157.634414 170.369473 
L 157.879067 169.662127 
L 158.12372 165.500833 
L 158.368374 169.197761 
L 158.613027 160.471605 
L 158.85768 161.290951 
L 159.102333 160.517228 
L 159.346986 162.474523 
L 159.591639 161.781104 
L 159.836292 165.433364 
L 160.080945 161.619989 
L 160.325598 153.99632 
L 160.570251 165.325908 
L 160.814904 165.800086 
L 161.30421 159.763421 
L 161.548863 146.96831 
L 162.038169 153.907317 
L 162.282822 161.614976 
L 162.527475 160.564841 
L 163.016781 178.321418 
L 163.506087 173.28353 
L 163.995393 181.998411 
L 164.240046 180.803956 
L 164.729352 183.911545 
L 164.974005 188.743495 
L 165.218658 190.338066 
L 165.463311 190.531541 
L 165.707964 188.754419 
L 165.952617 179.849768 
L 166.19727 178.584079 
L 166.441923 182.354561 
L 166.931229 199.544213 
L 167.420535 181.881944 
L 167.665188 190.205078 
L 167.909841 191.681661 
L 168.154494 186.600548 
L 168.6438 182.060419 
L 168.888453 183.800072 
L 169.377759 174.730386 
L 169.622412 180.433781 
L 169.867065 178.570854 
L 170.111718 174.939875 
L 170.356371 190.666636 
L 170.601024 183.819304 
L 170.845677 186.315495 
L 171.09033 179.861433 
L 171.334983 178.34898 
L 171.579636 179.131694 
L 171.824289 181.457584 
L 172.068942 189.909785 
L 172.313595 190.329328 
L 172.558248 187.404817 
L 172.802901 178.243826 
L 173.047554 183.251871 
L 173.292207 182.676616 
L 173.781513 185.005392 
L 174.026166 180.643153 
L 174.270819 179.992607 
L 174.515472 172.954395 
L 174.760125 173.742747 
L 175.004778 168.352648 
L 175.249431 166.36315 
L 175.494084 170.512916 
L 175.738737 168.573333 
L 175.98339 171.180451 
L 176.228043 168.906759 
L 176.472696 173.527953 
L 176.717349 173.806998 
L 176.962002 170.018882 
L 177.206655 162.418094 
L 177.451308 163.612725 
L 177.695961 157.708014 
L 177.940614 157.119066 
L 178.185267 157.702357 
L 178.42992 155.009317 
L 178.674573 156.615786 
L 178.919226 154.994181 
L 179.163879 156.521204 
L 179.408532 159.66482 
L 179.653185 159.370269 
L 180.387144 146.557174 
L 180.631798 147.500965 
L 181.121104 143.30224 
L 181.365757 137.859535 
L 181.61041 139.703971 
L 181.855063 138.300807 
L 182.099716 142.581806 
L 182.344369 149.429469 
L 182.589022 146.583077 
L 182.833675 148.369309 
L 183.322981 141.781809 
L 183.567634 140.097961 
L 183.812287 141.095275 
L 184.05694 143.887286 
L 184.301593 138.287641 
L 184.546246 129.452254 
L 184.790899 129.146994 
L 185.035552 127.080918 
L 185.280205 121.908188 
L 185.524858 93.748317 
L 185.769511 95.038623 
L 186.014164 102.607871 
L 186.258817 103.274275 
L 186.748123 111.910608 
L 186.992776 103.426261 
L 187.237429 107.604408 
L 187.482082 107.745666 
L 187.726735 109.540773 
L 187.971388 107.747695 
L 188.216041 104.143652 
L 188.460694 106.224436 
L 188.95 101.91886 
L 189.194653 102.480793 
L 189.439306 102.733915 
L 189.683959 104.539964 
L 189.928612 102.90055 
L 190.417918 108.541547 
L 190.662571 105.128054 
L 191.39653 108.909557 
L 191.641183 108.025219 
L 191.885836 95.453699 
L 192.130489 91.628698 
L 192.375142 95.753537 
L 192.619795 93.132413 
L 192.864448 94.468907 
L 193.109101 99.752662 
L 193.598407 101.096822 
L 193.84306 103.790662 
L 194.087713 112.714818 
L 194.577019 101.922976 
L 194.821672 90.260254 
L 195.066325 94.082212 
L 195.310978 107.181237 
L 195.555631 107.593855 
L 195.800284 98.378152 
L 196.044937 104.031184 
L 196.28959 102.024111 
L 196.534243 103.594925 
L 196.778896 103.504673 
L 197.023549 110.476859 
L 197.268202 107.353763 
L 197.757508 105.433451 
L 198.002161 107.493558 
L 198.246814 105.376885 
L 198.491467 110.980958 
L 198.73612 122.727768 
L 198.980773 126.796235 
L 199.225426 127.69017 
L 199.714732 111.796676 
L 199.959385 110.982324 
L 200.448691 98.087267 
L 200.937997 104.7539 
L 201.18265 97.896679 
L 201.427303 101.161268 
L 201.671956 89.997555 
L 201.916609 95.057406 
L 202.161262 79.725982 
L 202.405915 76.926539 
L 202.650568 80.219157 
L 202.895221 73.714849 
L 203.139875 78.638455 
L 203.384528 79.948051 
L 203.629181 80.104934 
L 203.873834 66.659959 
L 204.118487 62.727718 
L 204.36314 63.700709 
L 204.607793 70.408693 
L 204.852446 63.571875 
L 205.097099 70.09647 
L 205.831058 77.19706 
L 206.075711 68.646746 
L 206.320364 70.104389 
L 206.565017 69.573489 
L 206.80967 67.442011 
L 207.054323 68.709183 
L 207.298976 79.247942 
L 207.543629 81.744328 
L 207.788282 85.910967 
L 208.032935 86.898957 
L 208.277588 84.386752 
L 208.522241 90.692358 
L 208.766894 88.328063 
L 209.011547 93.841124 
L 209.2562 89.242927 
L 209.500853 89.237407 
L 209.745506 93.739267 
L 209.990159 101.033937 
L 210.234812 95.839458 
L 210.479465 86.215603 
L 210.724118 83.186659 
L 210.968771 83.141621 
L 211.458077 87.282044 
L 211.70273 82.595605 
L 211.947383 88.646022 
L 212.192036 88.877415 
L 212.436689 91.012697 
L 212.681342 97.432137 
L 212.925995 100.671272 
L 213.170648 100.42166 
L 213.659954 89.635962 
L 213.904607 92.413734 
L 214.14926 99.658919 
L 214.393913 101.354879 
L 214.638566 104.571797 
L 214.883219 105.975137 
L 215.127872 100.873095 
L 215.372525 100.777869 
L 215.617178 91.165931 
L 215.861831 89.212987 
L 216.106484 85.117192 
L 216.351137 89.720441 
L 216.59579 91.92955 
L 216.840443 101.010627 
L 217.085096 100.730744 
L 217.329749 104.006958 
L 217.574402 104.209444 
L 217.819055 104.925529 
L 218.063708 104.765486 
L 218.308361 104.843059 
L 218.553014 111.462587 
L 218.797667 107.694289 
L 219.04232 102.139993 
L 219.286973 108.245669 
L 219.531626 119.73214 
L 219.776279 110.794662 
L 220.020932 115.492765 
L 220.265585 117.355634 
L 220.510238 117.259901 
L 220.754891 114.24467 
L 220.999544 118.476359 
L 221.244197 116.569544 
L 221.48885 121.985878 
L 221.733503 119.029612 
L 221.978156 121.87971 
L 222.712115 116.815918 
L 222.956768 108.791003 
L 223.201421 109.743532 
L 223.690727 113.543995 
L 223.93538 121.187286 
L 224.180033 122.004311 
L 224.424686 120.675365 
L 224.669339 120.008044 
L 224.913992 122.56084 
L 225.158645 112.606777 
L 225.403298 108.175508 
L 225.647952 110.59122 
L 225.892605 105.094309 
L 226.137258 109.287748 
L 226.381911 116.147095 
L 226.626564 119.15825 
L 226.871217 116.932326 
L 227.11587 112.96361 
L 227.360523 115.881333 
L 227.605176 112.54278 
L 227.849829 116.046486 
L 228.094482 122.19168 
L 228.339135 121.221108 
L 228.828441 104.036782 
L 229.073094 108.605213 
L 229.317747 107.63509 
L 229.5624 109.318918 
L 230.051706 117.562509 
L 230.296359 116.722545 
L 230.541012 111.932785 
L 231.030318 109.80948 
L 231.274971 111.154264 
L 231.764277 101.12926 
L 232.00893 102.546624 
L 232.253583 102.283924 
L 232.498236 125.802101 
L 232.742889 121.960755 
L 232.987542 121.848794 
L 233.232195 132.897796 
L 233.476848 138.589897 
L 233.721501 134.428038 
L 233.966154 135.430638 
L 234.210807 138.446181 
L 234.45546 139.34903 
L 234.700113 140.815294 
L 234.944766 139.505171 
L 235.189419 136.222852 
L 235.434072 138.475732 
L 235.923378 133.162173 
L 236.412684 121.797202 
L 236.657337 127.710437 
L 236.90199 124.972865 
L 237.146643 127.191982 
L 237.391296 130.747631 
L 237.635949 124.924687 
L 238.125255 122.347568 
L 238.369908 121.609462 
L 238.614561 119.278365 
L 238.859214 123.162701 
L 239.103867 123.856412 
L 239.593173 118.17617 
L 239.837826 117.115658 
L 240.082479 119.452919 
L 240.327132 120.520121 
L 240.571785 114.272036 
L 240.816438 113.379349 
L 241.061091 113.466636 
L 241.305744 114.890222 
L 241.550397 111.566883 
L 241.79505 113.747593 
L 242.039703 117.221924 
L 242.529009 125.768512 
L 242.773662 127.759863 
L 243.018315 128.659592 
L 243.262968 130.700428 
L 243.507621 140.332944 
L 243.752274 142.16316 
L 243.996927 146.055084 
L 244.24158 142.619315 
L 244.486233 142.770619 
L 244.730886 136.12472 
L 244.975539 138.454744 
L 245.220192 144.173861 
L 245.464845 139.561386 
L 245.709498 129.741657 
L 245.954151 128.122762 
L 246.68811 117.767199 
L 246.932763 119.397504 
L 247.177416 130.000845 
L 247.422069 168.081327 
L 247.911375 158.776347 
L 248.156029 161.952206 
L 248.400682 166.590818 
L 248.889988 161.998726 
L 249.379294 158.009431 
L 249.623947 156.979387 
L 250.113253 176.582663 
L 250.357906 176.608079 
L 250.847212 169.298916 
L 251.091865 170.722112 
L 251.336518 174.416387 
L 251.825824 186.975482 
L 252.070477 201.524621 
L 252.31513 206.910916 
L 252.559783 200.54847 
L 252.804436 188.868447 
L 253.049089 188.298069 
L 253.538395 198.810261 
L 253.783048 193.579093 
L 254.027701 192.390275 
L 254.272354 195.901393 
L 254.76166 190.820944 
L 255.495619 201.607792 
L 255.740272 201.557195 
L 255.984925 190.630473 
L 257.20819 212.656502 
L 257.452843 212.706806 
L 257.697496 210.782144 
L 257.942149 212.50986 
L 258.186802 208.271168 
L 258.431455 206.691265 
L 258.676108 206.993268 
L 258.920761 193.195616 
L 259.165414 191.516996 
L 259.410067 191.374547 
L 259.899373 201.602643 
L 260.144026 198.010752 
L 260.388679 198.429729 
L 260.633332 194.97623 
L 260.877985 197.253979 
L 261.122638 190.651578 
L 261.367291 189.539669 
L 261.611944 184.813127 
L 261.856597 186.681964 
L 262.10125 191.229212 
L 262.590556 181.007788 
L 263.079862 160.846344 
L 263.324515 162.209736 
L 263.569168 166.635154 
L 263.813821 141.624966 
L 264.058474 133.128253 
L 264.303127 137.113451 
L 264.54778 129.220783 
L 264.792433 128.339195 
L 265.037086 126.744526 
L 265.281739 134.855188 
L 265.526392 129.971763 
L 265.771045 127.796729 
L 266.015698 129.486545 
L 266.260351 134.528354 
L 266.505004 128.358681 
L 266.749657 130.698789 
L 266.99431 120.332713 
L 267.238963 117.503134 
L 267.483616 118.369664 
L 267.728269 117.349412 
L 268.217575 124.751439 
L 268.462228 119.78773 
L 268.706881 104.606341 
L 269.44084 117.351479 
L 269.685493 115.999771 
L 269.930146 116.356291 
L 270.664106 126.997727 
L 270.908759 134.745606 
L 271.153412 134.19801 
L 271.398065 127.881129 
L 271.642718 127.863671 
L 271.887371 130.865073 
L 272.132024 137.091722 
L 272.376677 130.417306 
L 272.62133 130.609825 
L 272.865983 131.425173 
L 273.110636 134.341219 
L 273.355289 135.795741 
L 273.599942 133.790248 
L 274.089248 140.623731 
L 274.333901 146.867408 
L 274.578554 142.734592 
L 274.823207 145.105929 
L 275.06786 158.689275 
L 275.312513 162.618551 
L 275.557166 164.350714 
L 275.801819 161.651471 
L 276.046472 169.811871 
L 276.291125 162.711924 
L 276.535778 172.717832 
L 276.780431 170.044239 
L 277.025084 171.16196 
L 277.269737 165.974562 
L 277.51439 164.238284 
L 277.759043 168.448985 
L 278.003696 168.743089 
L 278.248349 179.933154 
L 278.493002 181.526496 
L 278.737655 174.047832 
L 278.982308 176.554107 
L 279.226961 184.898112 
L 279.716267 187.770427 
L 279.96092 195.939195 
L 280.205573 196.761077 
L 280.450226 201.986822 
L 280.694879 198.711193 
L 280.939532 201.300542 
L 281.184185 188.163579 
L 281.673491 173.717897 
L 281.918144 177.41933 
L 282.40745 166.95239 
L 282.652103 176.971894 
L 282.896756 174.037435 
L 283.141409 179.871088 
L 283.386062 159.265524 
L 283.875368 160.817671 
L 284.120021 151.575849 
L 284.364674 156.606014 
L 284.609327 155.627835 
L 284.85398 154.104868 
L 285.098633 155.81103 
L 285.343286 161.524217 
L 285.587939 156.40858 
L 285.832592 157.219578 
L 286.077245 148.660798 
L 286.321898 150.041238 
L 286.566551 152.331413 
L 286.811204 148.409353 
L 287.055857 148.036019 
L 287.30051 142.315517 
L 287.545163 143.67099 
L 287.789816 141.531183 
L 288.034469 147.566971 
L 288.279122 145.895198 
L 288.523775 145.864691 
L 288.768428 140.183025 
L 289.013081 139.850262 
L 289.257734 138.759419 
L 289.502387 139.398262 
L 289.74704 140.929733 
L 289.991693 147.722859 
L 290.236346 143.358942 
L 290.480999 148.860007 
L 291.214958 143.20325 
L 291.459611 134.939588 
L 291.704264 132.443162 
L 291.948917 135.732758 
L 292.19357 135.940296 
L 292.438223 133.954601 
L 292.92753 136.178906 
L 293.416836 142.294237 
L 293.661489 141.499682 
L 293.906142 142.276311 
L 294.150795 144.801917 
L 294.395448 134.463538 
L 294.640101 154.288044 
L 294.884754 159.442185 
L 295.129407 155.649076 
L 295.618713 160.127724 
L 296.352672 173.985531 
L 296.841978 178.226193 
L 297.086631 167.825162 
L 297.331284 163.938349 
L 297.82059 167.264185 
L 298.065243 165.25444 
L 298.309896 165.787525 
L 298.554549 158.365445 
L 299.043855 155.847876 
L 299.288508 146.58216 
L 299.533161 154.785804 
L 299.777814 156.95522 
L 300.022467 157.948789 
L 300.26712 160.035834 
L 300.511773 158.885948 
L 301.001079 166.939965 
L 301.245732 166.153896 
L 301.490385 172.446824 
L 301.735038 173.167063 
L 301.979691 176.779629 
L 302.224344 176.299151 
L 302.468997 171.095798 
L 302.71365 174.252658 
L 302.958303 169.571973 
L 303.202956 174.374216 
L 303.447609 175.057492 
L 303.692262 173.325213 
L 303.936915 179.111779 
L 304.181568 181.894525 
L 304.670874 172.683483 
L 304.915527 171.390798 
L 305.16018 171.4057 
L 305.404833 175.427745 
L 305.649486 175.837164 
L 305.894139 174.1816 
L 306.138792 178.201304 
L 306.383445 169.597506 
L 306.628098 171.872037 
L 306.872751 172.906684 
L 307.117404 171.737527 
L 307.362057 174.204714 
L 307.60671 171.02868 
L 307.851363 176.21479 
L 308.096016 177.058362 
L 308.340669 176.329658 
L 308.829975 177.745812 
L 309.074628 172.831198 
L 309.319281 171.138573 
L 309.563934 171.226816 
L 309.808587 178.730662 
L 310.05324 173.715439 
L 310.297893 176.999144 
L 310.542546 175.002292 
L 310.787199 174.865403 
L 311.031852 168.377908 
L 311.276505 170.217955 
L 311.521158 170.891868 
L 311.765811 170.914592 
L 312.010464 167.936421 
L 312.255117 167.862047 
L 312.49977 161.720637 
L 312.744423 160.937708 
L 312.989076 161.596758 
L 313.478382 155.381617 
L 313.723035 160.054696 
L 313.967688 160.321199 
L 314.212341 162.806623 
L 314.456994 161.207702 
L 314.701647 160.403785 
L 314.9463 160.58341 
L 315.190953 157.960336 
L 315.435607 163.726773 
L 315.68026 156.474216 
L 315.924913 155.239676 
L 316.169566 140.834546 
L 316.414219 141.223699 
L 316.658872 143.065483 
L 316.903525 149.677403 
L 317.148178 146.7849 
L 317.392831 150.266838 
L 317.637484 149.883673 
L 317.882137 144.396242 
L 318.12679 146.217311 
L 318.371443 146.312595 
L 318.616096 144.251824 
L 318.860749 132.282945 
L 319.105402 132.717195 
L 319.594708 140.59379 
L 319.839361 138.146909 
L 320.084014 142.46688 
L 320.328667 149.229948 
L 320.57332 149.141315 
L 320.817973 147.799925 
L 321.062626 147.303374 
L 321.307279 147.063867 
L 321.796585 152.316101 
L 322.041238 150.329041 
L 322.285891 156.109678 
L 322.530544 158.182815 
L 322.775197 159.159766 
L 323.01985 158.613223 
L 323.264503 158.617319 
L 323.509156 158.290778 
L 323.753809 157.612476 
L 323.998462 159.06374 
L 324.243115 156.831224 
L 324.487768 151.596038 
L 324.977074 161.693641 
L 325.221727 158.485501 
L 325.46638 153.114401 
L 325.955686 160.647525 
L 326.200339 166.651441 
L 326.444992 166.707928 
L 326.689645 167.955907 
L 326.934298 163.279162 
L 327.178951 164.102741 
L 327.423604 167.129968 
L 327.668257 173.36241 
L 327.91291 173.975193 
L 328.157563 175.533718 
L 328.646869 169.626549 
L 328.891522 170.263871 
L 329.136175 172.390102 
L 329.380828 170.479737 
L 329.625481 172.33652 
L 329.870134 173.309394 
L 330.114787 171.883857 
L 330.604093 166.733988 
L 330.848746 169.384896 
L 331.093399 174.437453 
L 331.338052 175.873679 
L 331.582705 172.827317 
L 331.827358 171.446818 
L 332.072011 166.685673 
L 332.316664 168.46102 
L 332.561317 164.468644 
L 332.80597 167.366784 
L 333.050623 163.579878 
L 333.295276 165.664913 
L 333.539929 170.542877 
L 334.029235 172.924707 
L 334.273888 171.882375 
L 334.763194 174.125424 
L 335.007847 173.436492 
L 335.2525 172.107897 
L 335.497153 171.539761 
L 335.741806 169.664429 
L 335.986459 172.492466 
L 336.720418 155.884371 
L 336.965071 157.423761 
L 337.209724 156.117734 
L 337.454377 151.821813 
L 338.188337 156.924733 
L 338.43299 156.362839 
L 338.922296 157.591273 
L 339.166949 160.65718 
L 339.411602 157.473168 
L 339.900908 157.157921 
L 340.145561 159.267728 
L 340.390214 160.082861 
L 340.87952 158.779838 
L 341.124173 160.422744 
L 341.368826 160.997433 
L 342.347438 150.838602 
L 342.592091 150.882333 
L 342.836744 147.539371 
L 343.081397 147.105706 
L 343.32605 149.131913 
L 343.570703 148.049439 
L 343.815356 146.060467 
L 344.060009 146.052372 
L 344.304662 145.274105 
L 344.549315 145.109635 
L 344.793968 146.55259 
L 345.038621 159.701881 
L 345.283274 161.038434 
L 345.77258 159.18011 
L 346.017233 159.751288 
L 346.506539 161.501825 
L 346.751192 160.937571 
L 346.995845 160.74788 
L 347.485151 161.812956 
L 347.729804 161.349877 
L 347.974457 161.746579 
L 348.21911 162.425974 
L 348.463763 156.955279 
L 348.708416 157.073891 
L 348.953069 157.406147 
L 349.197722 163.31552 
L 349.442375 165.386668 
L 349.687028 165.89262 
L 349.931681 167.609139 
L 350.66564 164.427624 
L 350.910293 162.310033 
L 351.154946 161.953259 
L 351.399599 158.652858 
L 351.644252 158.869622 
L 351.888905 161.595822 
L 352.133558 160.774798 
L 352.378211 162.521375 
L 352.622864 159.701842 
L 352.867517 161.437496 
L 353.11217 160.718369 
L 353.356823 161.680066 
L 353.601476 161.230055 
L 353.846129 159.598014 
L 354.090782 155.322926 
L 354.335435 154.150355 
L 354.580088 155.363789 
L 354.824741 152.310815 
L 355.069394 143.432946 
L 355.314047 144.192371 
L 355.5587 142.573009 
L 355.803353 152.737438 
L 356.048006 152.295425 
L 356.537312 156.857751 
L 356.781965 156.568407 
L 357.026618 155.600488 
L 357.271271 155.727235 
L 357.515924 148.664368 
L 357.760577 147.455361 
L 358.00523 143.28566 
L 358.494536 144.090923 
L 358.739189 138.55194 
L 359.228495 149.295779 
L 359.473148 140.380674 
L 359.717801 137.328967 
L 359.962454 137.355416 
L 360.207107 139.088691 
L 360.451761 137.021288 
L 360.696414 139.299837 
L 360.941067 139.900352 
L 361.18572 145.000014 
L 361.430373 143.338422 
L 361.675026 142.678319 
L 361.919679 143.526748 
L 362.164332 145.209659 
L 362.408985 142.818407 
L 362.653638 145.309234 
L 362.898291 150.992402 
L 363.876903 157.00336 
L 364.121556 159.795488 
L 364.366209 156.176075 
L 364.855515 152.343097 
L 365.100168 153.146624 
L 365.344821 154.88694 
L 365.589474 154.623109 
L 365.834127 157.988873 
L 366.323433 152.652629 
L 366.568086 153.511064 
L 366.812739 151.798563 
L 367.057392 147.874943 
L 367.546698 150.846111 
L 368.036004 146.728334 
L 368.280657 143.826156 
L 368.52531 143.833861 
L 368.769963 141.499116 
L 369.014616 142.11939 
L 369.259269 140.666663 
L 369.503922 138.537096 
L 369.748575 138.324233 
L 369.993228 135.380489 
L 370.237881 128.894944 
L 370.482534 130.427878 
L 370.727187 125.458259 
L 370.97184 125.841053 
L 371.216493 100.98094 
L 371.461146 93.513667 
L 371.705799 93.939276 
L 371.950452 98.650682 
L 372.195105 90.734237 
L 372.439758 93.158316 
L 372.684411 91.914005 
L 372.929064 88.918435 
L 373.173717 87.797944 
L 373.41837 97.433171 
L 373.663023 95.696542 
L 373.907676 95.587857 
L 374.152329 93.576611 
L 374.396982 92.840202 
L 374.641635 99.564883 
L 374.886288 99.659641 
L 375.130941 97.452091 
L 375.375594 93.328618 
L 375.620247 94.549133 
L 375.8649 94.633884 
L 376.109553 93.86297 
L 376.354206 100.934342 
L 376.598859 100.034438 
L 377.088165 90.742448 
L 377.332818 84.746705 
L 377.577471 94.577299 
L 377.822124 91.447064 
L 378.066777 83.943198 
L 378.31143 89.629272 
L 378.800736 78.914594 
L 379.045389 80.690351 
L 379.290042 79.283325 
L 379.534695 81.28831 
L 379.779348 76.464123 
L 380.024001 78.014924 
L 380.268654 78.229074 
L 380.513307 77.232521 
L 380.75796 74.465263 
L 381.002613 82.355824 
L 381.247266 80.278903 
L 381.491919 75.72668 
L 381.736572 73.98024 
L 381.981225 65.108534 
L 382.225878 64.382717 
L 382.470531 66.359731 
L 382.715184 70.142854 
L 382.959838 68.267736 
L 383.204491 65.159522 
L 383.449144 59.779195 
L 383.693797 47.236739 
L 383.93845 49.867439 
L 384.183103 50.953581 
L 384.427756 46.399252 
L 384.672409 34.414125 
L 384.917062 37.719363 
L 385.161715 39.354116 
L 385.406368 44.926278 
L 385.895674 42.67687 
L 386.140327 45.874204 
L 386.38498 47.103243 
L 386.629633 49.532258 
L 386.874286 76.998124 
L 387.118939 78.099246 
L 387.363592 69.568379 
L 387.608245 68.744098 
L 387.852898 72.801369 
L 387.852898 72.801369 
" style="fill:none;stroke:#1f77b4;stroke-linecap:square;stroke-width:1.5;"/>
   </g>
   <g id="line2d_34">
    <path clip-path="url(#p7c4527e93d)" d="M 63.198352 228.141855 
L 63.443005 229.126153 
L 63.687658 225.649151 
L 63.932311 227.195906 
L 64.176964 223.603856 
L 64.421617 218.362787 
L 64.910923 215.384326 
L 65.155576 215.806168 
L 65.400229 215.652771 
L 66.134188 216.879948 
L 66.378841 212.329166 
L 66.623494 211.920107 
L 66.868147 215.844517 
L 67.1128 225.444622 
L 67.357453 226.211607 
L 67.602106 236.067374 
L 67.846759 235.262039 
L 68.091412 233.753634 
L 68.336066 228.998322 
L 68.580719 238.61121 
L 68.825372 240.004568 
L 69.070025 240.733204 
L 69.314678 236.808794 
L 69.559331 240.094049 
L 69.803984 239.071402 
L 70.048637 243.098077 
L 70.29329 243.64775 
L 70.537943 242.816849 
L 70.782596 246.293851 
L 71.027249 242.791282 
L 71.271902 235.38987 
L 71.761208 240.030134 
L 72.005861 237.281768 
L 72.250514 240.950517 
L 72.495167 241.155046 
L 72.73982 238.508945 
L 72.984473 239.35263 
L 73.229126 239.774472 
L 73.718432 233.766417 
L 73.963085 239.033052 
L 74.452391 239.927869 
L 74.941697 237.20507 
L 75.18635 237.090022 
L 75.431003 247.060836 
L 76.164962 241.014432 
L 76.409615 237.690827 
L 76.654268 238.214934 
L 76.898921 236.374168 
L 77.143574 238.508945 
L 77.388227 239.531593 
L 77.877533 236.195205 
L 78.122186 237.473515 
L 78.366839 237.447948 
L 78.611492 237.665261 
L 78.856145 246.754042 
L 79.100798 246.792391 
L 79.590104 250.499489 
L 79.834757 247.763907 
L 80.324063 250.62732 
L 80.568716 250.588971 
L 80.813369 249.476841 
L 81.302675 263.576596 
L 81.547328 263.244235 
L 81.791981 264.714291 
L 82.036634 265.046652 
L 82.281287 262.963007 
L 82.52594 263.998438 
L 82.770593 260.189075 
L 83.259899 262.362202 
L 83.504552 260.713182 
L 83.749205 256.635375 
L 83.993858 260.074027 
L 84.238511 260.598134 
L 84.483164 267.833366 
L 84.727817 270.543383 
L 84.97247 269.392904 
L 85.217123 268.958279 
L 85.951082 260.355256 
L 86.195735 261.429036 
L 86.440388 258.68067 
L 86.685041 260.137943 
L 87.174347 254.615646 
L 87.419 255.561595 
L 87.663653 257.018868 
L 87.908306 259.486005 
L 88.152959 253.503516 
L 88.397612 256.085702 
L 88.642265 256.635375 
L 88.886918 254.986355 
L 89.131571 250.09043 
L 89.376224 248.991084 
L 89.620877 249.412926 
L 89.86553 252.429736 
L 90.110183 253.963708 
L 90.354836 249.809202 
L 90.599489 241.858116 
L 90.844143 238.77739 
L 91.088796 239.199233 
L 91.333449 240.451976 
L 91.822755 244.580916 
L 92.067408 242.778499 
L 92.556714 244.747096 
L 92.801367 245.232854 
L 93.04602 245.117806 
L 93.290673 240.797119 
L 93.535326 243.27704 
L 94.024632 244.747096 
L 94.269285 244.35082 
L 94.513938 246.153236 
L 94.758591 259.997329 
L 95.003244 257.44071 
L 95.247897 260.12516 
L 95.49255 259.370957 
L 95.737203 259.997329 
L 95.981856 261.071109 
L 96.226509 260.585351 
L 96.715815 262.617864 
L 96.960468 265.353446 
L 97.205121 270.121541 
L 97.694427 269.188375 
L 97.93908 270.683997 
L 98.183733 268.485304 
L 98.428386 268.971062 
L 98.917692 264.867688 
L 99.162345 267.8078 
L 99.406998 266.388877 
L 99.651651 268.229642 
L 99.896304 267.603271 
L 100.140957 269.137242 
L 100.38561 268.868797 
L 100.630263 271.016357 
L 100.874916 271.144188 
L 101.364222 274.429444 
L 101.608875 274.314396 
L 101.853528 275.503224 
L 102.098181 273.125568 
L 102.342834 273.355664 
L 102.587487 272.627027 
L 102.83214 274.109866 
L 103.076793 273.163917 
L 103.321446 270.5306 
L 103.566099 271.080273 
L 103.810752 271.911174 
L 104.055405 270.543383 
L 104.300058 273.304531 
L 104.544711 274.327179 
L 104.789364 276.334125 
L 105.034017 275.720536 
L 105.27867 274.697889 
L 105.523323 268.050679 
L 105.767976 269.725265 
L 106.012629 267.347609 
L 106.257282 269.968143 
L 106.501935 267.769451 
L 106.991241 272.652593 
L 107.235894 272.703726 
L 107.480547 273.688024 
L 107.7252 270.888526 
L 107.969853 270.581732 
L 108.214506 265.148916 
L 108.459159 274.506142 
L 108.948465 273.445145 
L 109.193118 274.710672 
L 109.437771 274.531709 
L 109.682424 275.15808 
L 109.927077 271.144188 
L 110.17173 269.034977 
L 110.416383 264.42028 
L 110.905689 261.173374 
L 111.150342 264.126269 
L 111.394995 264.509762 
L 111.639648 263.602162 
L 111.884301 264.701508 
L 112.128954 262.10654 
L 112.373607 254.730694 
L 112.61826 256.597026 
L 112.862913 261.56965 
L 113.107566 263.167537 
L 113.35222 259.895064 
L 113.596873 258.834067 
L 113.841526 259.767233 
L 114.086179 258.207696 
L 114.330832 259.652185 
L 114.820138 260.393605 
L 115.064791 261.812528 
L 115.554097 251.943979 
L 115.79875 251.53492 
L 116.043403 256.085702 
L 116.288056 258.540056 
L 116.532709 255.791691 
L 117.022015 259.498788 
L 117.266668 260.086811 
L 117.755974 264.011221 
L 118.000627 263.781125 
L 118.24528 268.280775 
L 118.489933 266.746803 
L 118.734586 263.384849 
L 119.223892 262.259937 
L 119.957851 269.137242 
L 120.202504 266.19713 
L 120.447157 267.501006 
L 120.69181 264.701508 
L 120.936463 263.755559 
L 121.181116 259.089729 
L 121.425769 259.38374 
L 121.915075 248.083484 
L 122.404381 241.039998 
L 122.649034 241.193395 
L 122.893687 242.561187 
L 123.13834 242.778499 
L 123.382993 238.266067 
L 123.627646 222.312763 
L 124.850911 210.705713 
L 125.095564 204.608176 
L 125.340217 212.035155 
L 126.074176 209.670282 
L 126.318829 206.538423 
L 126.563482 208.404755 
L 126.808135 202.26887 
L 127.297441 210.718496 
L 127.542094 211.076422 
L 127.786747 210.603448 
L 128.0314 210.667363 
L 128.276053 209.350704 
L 128.520706 204.812706 
L 128.765359 205.963184 
L 129.010012 205.477427 
L 129.254665 210.462834 
L 129.499318 205.528559 
L 129.743971 204.531477 
L 129.988624 209.938727 
L 130.233277 209.120609 
L 130.722583 213.185633 
L 130.967236 209.759764 
L 131.211889 208.596502 
L 131.456542 203.457697 
L 131.701195 194.88024 
L 132.190501 200.849946 
L 132.435154 200.913861 
L 132.679807 199.354324 
L 133.169113 194.3817 
L 133.413766 196.235248 
L 133.658419 192.387537 
L 134.147725 190.572337 
L 134.392378 185.970423 
L 134.637031 186.532879 
L 134.881684 184.819944 
L 135.126337 180.396993 
L 135.37099 178.735191 
L 135.615643 182.391156 
L 135.860297 179.936802 
L 136.10495 181.803134 
L 136.349603 193.039475 
L 136.594256 195.864539 
L 136.838909 187.402129 
L 137.083562 185.177871 
L 137.572868 189.524123 
L 137.817521 191.185926 
L 138.062174 186.545662 
L 138.306827 171.103683 
L 138.796133 180.486475 
L 139.040786 184.960558 
L 139.285439 176.945557 
L 139.530092 179.47661 
L 139.774745 186.174952 
L 140.264051 172.356426 
L 140.508704 177.635844 
L 140.753357 178.581794 
L 141.242663 187.018637 
L 141.731969 194.829108 
L 141.976622 190.04823 
L 142.221275 189.396292 
L 142.465928 190.891915 
L 142.710581 187.632225 
L 143.199887 175.680031 
L 143.44454 174.989744 
L 143.689193 174.670166 
L 143.933846 180.243596 
L 144.423152 181.100063 
L 144.667805 182.928046 
L 144.912458 174.785214 
L 145.157111 174.836347 
L 145.646417 167.588331 
L 145.89107 169.64641 
L 146.135723 168.099655 
L 146.380376 169.250134 
L 146.625029 167.524416 
L 146.869682 163.446608 
L 147.114335 153.181783 
L 147.358988 161.733674 
L 147.603641 163.957932 
L 147.848294 164.290293 
L 148.092947 167.140923 
L 148.3376 168.010174 
L 148.582253 163.970715 
L 148.826906 165.376856 
L 149.071559 161.580277 
L 149.316212 162.935285 
L 149.560865 167.690596 
L 149.805518 169.352399 
L 150.050171 161.05617 
L 150.294824 160.774942 
L 150.539477 155.802317 
L 150.78413 153.105084 
L 151.028783 159.125922 
L 151.273436 157.400204 
L 151.762742 150.804127 
L 152.007395 158.819128 
L 152.252048 153.526926 
L 152.496701 164.597087 
L 152.741354 162.206648 
L 152.986007 165.236242 
L 153.23066 162.040468 
L 153.475313 165.696433 
L 153.964619 160.212485 
L 154.209272 174.082144 
L 154.698578 180.345861 
L 154.943231 173.23846 
L 155.187884 181.08728 
L 155.432537 177.623061 
L 155.921843 190.776867 
L 156.166496 184.001826 
L 156.411149 188.757138 
L 156.655802 184.986124 
L 156.900455 177.201219 
L 157.389761 170.617925 
L 157.634414 169.64641 
L 157.879067 165.824264 
L 158.12372 169.096737 
L 158.368374 161.030603 
L 158.613027 161.286265 
L 158.85768 160.889989 
L 159.102333 162.475093 
L 159.346986 162.641273 
L 159.591639 165.68365 
L 159.836292 162.168299 
L 160.080945 154.472875 
L 160.325598 164.686569 
L 160.570251 166.194974 
L 161.059557 160.033522 
L 161.30421 147.160945 
L 161.793516 153.654757 
L 162.038169 161.401313 
L 162.282822 160.532063 
L 162.772128 177.90429 
L 163.016781 176.536498 
L 163.261434 173.430206 
L 163.75074 181.879832 
L 163.995393 180.818835 
L 164.484699 183.707815 
L 164.729352 188.731571 
L 164.974005 190.163278 
L 165.218658 190.597903 
L 165.463311 188.539825 
L 165.707964 179.706706 
L 165.952617 178.057687 
L 166.19727 181.918181 
L 166.686576 199.737817 
L 167.175882 181.62417 
L 167.420535 190.201627 
L 167.665188 191.773948 
L 167.909841 186.647927 
L 168.399147 182.19941 
L 168.6438 184.027392 
L 169.133106 174.81078 
L 169.377759 179.502176 
L 169.622412 178.990853 
L 169.867065 174.938611 
L 170.111718 190.25276 
L 170.356371 184.858293 
L 170.601024 186.520096 
L 170.845677 180.333078 
L 171.09033 178.77354 
L 171.334983 179.003636 
L 171.579636 181.432424 
L 171.824289 189.818135 
L 172.068942 190.95583 
L 172.313595 187.798405 
L 172.558248 178.811889 
L 172.802901 183.631116 
L 173.047554 183.746164 
L 173.53686 185.344051 
L 173.781513 181.66252 
L 174.026166 180.678221 
L 174.270819 173.583603 
L 174.515472 174.146059 
L 174.760125 168.90499 
L 175.004778 166.744647 
L 175.249431 170.771322 
L 175.494084 169.07117 
L 175.738737 171.231514 
L 175.98339 169.390748 
L 176.228043 173.967096 
L 176.472696 174.337806 
L 176.717349 170.451745 
L 176.962002 162.884152 
L 177.206655 163.842884 
L 177.451308 158.026576 
L 177.695961 157.553601 
L 177.940614 158.231105 
L 178.185267 155.585005 
L 178.42992 157.080627 
L 178.674573 155.367692 
L 178.919226 157.336289 
L 179.163879 160.263618 
L 179.408532 160.123004 
L 180.142491 147.39104 
L 180.387144 148.349773 
L 180.631798 146.751886 
L 180.876451 144.387013 
L 181.121104 138.672969 
L 181.365757 140.360338 
L 181.61041 138.775234 
L 181.855063 142.865825 
L 182.099716 150.152189 
L 182.344369 146.777452 
L 182.589022 148.848313 
L 183.078328 142.201104 
L 183.322981 140.475386 
L 183.567634 141.050625 
L 183.812287 144.259182 
L 184.05694 138.813583 
L 184.301593 130.440656 
L 184.546246 129.533056 
L 184.790899 127.372713 
L 185.035552 122.067728 
L 185.280205 93.650907 
L 185.524858 94.545724 
L 185.769511 101.959919 
L 186.014164 103.072048 
L 186.50347 111.700638 
L 186.748123 103.36606 
L 186.992776 107.62283 
L 187.237429 108.172503 
L 187.482082 110.256148 
L 187.726735 108.236419 
L 187.971388 104.542104 
L 188.216041 106.868628 
L 188.460694 103.762335 
L 188.705347 102.496809 
L 188.95 103.429975 
L 189.194653 102.931434 
L 189.439306 104.248093 
L 189.683959 103.212662 
L 190.173265 109.386898 
L 190.417918 106.05051 
L 190.907224 107.763444 
L 191.151877 109.872655 
L 191.39653 108.965055 
L 191.641183 95.824033 
L 191.885836 92.436513 
L 192.130489 96.591019 
L 192.375142 93.395245 
L 192.619795 94.980349 
L 192.864448 100.387598 
L 193.353754 101.934353 
L 193.598407 104.567671 
L 193.84306 113.809849 
L 194.332366 103.135964 
L 194.577019 91.158203 
L 194.821672 95.657853 
L 195.066325 108.53043 
L 195.310978 108.619912 
L 195.555631 99.441649 
L 195.800284 105.091777 
L 196.28959 101.359114 
L 196.534243 104.222527 
L 196.778896 112.148046 
L 197.268202 106.497918 
L 197.512855 105.539186 
L 197.757508 107.546132 
L 198.002161 105.104561 
L 198.246814 110.908086 
L 198.491467 123.243773 
L 198.73612 127.935169 
L 198.980773 128.714938 
L 199.470079 113.183477 
L 199.714732 112.531539 
L 200.204038 98.955892 
L 200.693344 105.756498 
L 200.937997 98.70023 
L 201.18265 102.062184 
L 201.427303 90.506265 
L 201.671956 96.143611 
L 201.916609 80.215874 
L 202.161262 77.966049 
L 202.405915 80.816679 
L 202.650568 73.888241 
L 202.895221 79.33384 
L 203.139875 80.356488 
L 203.384528 80.816679 
L 203.629181 66.704142 
L 203.873834 63.176007 
L 204.118487 63.840728 
L 204.36314 71.165442 
L 204.607793 63.994125 
L 204.852446 71.088743 
L 205.097099 72.878377 
L 205.586405 78.451806 
L 205.831058 69.618687 
L 206.075711 71.395538 
L 206.320364 70.845865 
L 206.565017 68.685521 
L 206.80967 69.861566 
L 207.054323 80.727197 
L 207.298976 83.117636 
L 207.543629 87.527804 
L 207.788282 88.141393 
L 208.032935 85.699822 
L 208.277588 92.155285 
L 208.522241 89.304654 
L 208.766894 95.414974 
L 209.011547 90.161122 
L 209.2562 90.046074 
L 209.500853 94.532941 
L 209.745506 102.011051 
L 209.990159 97.038427 
L 210.234812 86.773602 
L 210.479465 83.769574 
L 210.724118 83.2966 
L 210.968771 85.137365 
L 211.213424 87.92408 
L 211.458077 82.938673 
L 211.70273 88.908378 
L 211.947383 89.16404 
L 212.192036 91.771792 
L 212.681342 102.241147 
L 212.925995 101.729823 
L 213.415301 90.186688 
L 213.659954 93.139583 
L 213.904607 100.822224 
L 214.14926 102.471243 
L 214.393913 106.024943 
L 214.638566 107.111507 
L 214.883219 101.71704 
L 215.127872 101.499728 
L 215.372525 91.375516 
L 215.617178 89.330221 
L 215.861831 84.932836 
L 216.106484 89.867111 
L 216.351137 92.334248 
L 216.59579 101.563643 
L 216.840443 101.461378 
L 217.085096 104.618803 
L 217.574402 105.590318 
L 217.819055 105.488053 
L 218.063708 106.05051 
L 218.308361 112.467624 
L 218.797667 102.675772 
L 219.04232 108.773309 
L 219.286973 121.108996 
L 219.531626 112.020215 
L 219.776279 116.264203 
L 220.020932 118.386197 
L 220.265585 118.271149 
L 220.510238 115.215989 
L 220.754891 119.30658 
L 220.999544 117.222935 
L 221.244197 123.013677 
L 221.48885 120.00965 
L 221.733503 122.732449 
L 222.467462 117.69591 
L 222.712115 109.335765 
L 222.956768 110.51181 
L 223.446074 114.244474 
L 223.690727 121.927114 
L 223.93538 123.192641 
L 224.424686 120.751069 
L 224.669339 123.358821 
L 224.913992 113.52862 
L 225.158645 108.90114 
L 225.403298 111.304362 
L 225.647952 106.076076 
L 225.892605 110.1411 
L 226.137258 117.631994 
L 226.381911 120.572106 
L 226.626564 118.156101 
L 226.871217 114.052727 
L 227.11587 116.78831 
L 227.360523 113.375223 
L 227.605176 116.647696 
L 227.849829 122.924196 
L 228.094482 122.579052 
L 228.583788 103.915733 
L 228.828441 108.619912 
L 229.073094 107.840143 
L 229.317747 109.744824 
L 229.807053 118.705774 
L 230.051706 117.465814 
L 230.296359 112.365359 
L 230.785665 110.435111 
L 231.030318 111.828469 
L 231.519624 101.371897 
L 231.764277 102.99535 
L 232.00893 103.238229 
L 232.253583 127.168183 
L 232.742889 122.796365 
L 232.987542 134.250018 
L 233.232195 140.24529 
L 233.476848 135.668942 
L 233.721501 135.78399 
L 233.966154 139.235426 
L 234.45546 141.357419 
L 234.700113 139.964062 
L 234.944766 136.499843 
L 235.189419 138.621837 
L 235.678725 133.26572 
L 236.168031 122.668534 
L 236.412684 127.283231 
L 236.657337 125.672561 
L 236.90199 127.180966 
L 237.146643 130.849715 
L 237.391296 125.531947 
L 237.635949 123.23099 
L 238.125255 122.003813 
L 238.369908 119.996867 
L 238.614561 123.499435 
L 238.859214 124.253638 
L 239.34852 118.871954 
L 239.593173 117.810957 
L 239.837826 120.201396 
L 240.082479 121.134562 
L 240.327132 115.369386 
L 240.571785 113.848198 
L 240.816438 113.630885 
L 241.061091 115.203206 
L 241.305744 112.211962 
L 241.550397 114.333955 
L 241.79505 117.874873 
L 242.284356 126.886955 
L 242.529009 128.702155 
L 242.773662 129.175129 
L 243.018315 131.322689 
L 243.262968 141.549166 
L 243.507621 143.453847 
L 243.752274 147.237643 
L 243.996927 143.415498 
L 244.24158 143.185402 
L 244.486233 136.129133 
L 244.730886 138.672969 
L 244.975539 144.681024 
L 245.220192 140.181375 
L 245.464845 129.520273 
L 245.709498 128.024651 
L 246.443457 117.772608 
L 246.68811 119.536675 
L 246.932763 130.491788 
L 247.177416 168.393666 
L 247.422069 165.862614 
L 247.666722 160.161353 
L 247.911375 162.475093 
L 248.156029 166.974743 
L 248.400682 165.466338 
L 248.889988 160.174136 
L 249.134641 158.103275 
L 249.379294 157.118976 
L 249.8686 177.610278 
L 250.113253 177.520797 
L 250.602559 169.160652 
L 250.847212 170.848021 
L 251.091865 174.964178 
L 251.581171 187.721707 
L 251.825824 202.844109 
L 252.070477 208.072395 
L 252.31513 201.15674 
L 252.559783 188.80827 
L 252.804436 188.718788 
L 253.293742 199.661118 
L 253.538395 193.80646 
L 253.783048 192.617632 
L 254.027701 196.554826 
L 254.517007 191.300974 
L 255.250966 202.60123 
L 255.495619 202.43505 
L 255.740272 190.994179 
L 256.718884 209.184524 
L 256.963537 213.978185 
L 257.20819 213.696957 
L 257.452843 211.459915 
L 257.697496 213.096151 
L 257.942149 208.468671 
L 258.186802 207.535505 
L 258.431455 207.382108 
L 258.676108 193.346269 
L 258.920761 191.927345 
L 259.165414 191.69725 
L 259.65472 202.614013 
L 259.899373 198.830217 
L 260.144026 199.021963 
L 260.388679 195.915671 
L 260.633332 197.807569 
L 260.877985 191.134793 
L 261.122638 190.163278 
L 261.367291 185.459099 
L 261.611944 187.338214 
L 261.856597 191.914562 
L 262.345903 181.726435 
L 262.835209 160.941122 
L 263.079862 162.62849 
L 263.324515 167.166489 
L 263.569168 143.543329 
L 263.813821 133.674779 
L 264.058474 137.113432 
L 264.303127 130.184994 
L 264.792433 127.142617 
L 265.037086 135.183184 
L 265.526392 128.178048 
L 265.771045 129.903766 
L 266.015698 135.259883 
L 266.260351 129.162346 
L 266.505004 131.578351 
L 266.749657 121.479706 
L 266.99431 117.555296 
L 267.238963 118.974219 
L 267.483616 117.989921 
L 267.728269 120.71272 
L 267.972922 125.225153 
L 268.217575 120.393143 
L 268.462228 104.554887 
L 269.196187 117.964355 
L 269.44084 116.916141 
L 269.685493 116.609346 
L 270.174799 126.938088 
L 270.419452 127.513327 
L 270.664106 135.605026 
L 270.908759 135.336581 
L 271.153412 128.638239 
L 271.398065 128.369794 
L 271.642718 131.437737 
L 271.887371 137.854851 
L 272.132024 130.798583 
L 272.62133 131.961844 
L 272.865983 135.285449 
L 273.110636 136.729939 
L 273.355289 134.326717 
L 273.844595 141.536383 
L 274.089248 147.940714 
L 274.333901 143.67116 
L 274.578554 145.920985 
L 274.823207 160.289184 
L 275.06786 164.162462 
L 275.312513 165.402422 
L 275.557166 162.155516 
L 275.801819 170.937502 
L 276.046472 163.024766 
L 276.291125 173.647519 
L 276.535778 170.950286 
L 276.780431 172.279727 
L 277.025084 166.437853 
L 277.269737 164.379774 
L 277.51439 169.020038 
L 277.759043 169.608061 
L 278.003696 180.869968 
L 278.248349 182.570119 
L 278.493002 174.47842 
L 278.737655 177.252352 
L 278.982308 185.280136 
L 279.226961 187.504394 
L 279.471614 188.130766 
L 279.716267 197.39851 
L 279.96092 197.76922 
L 280.205573 203.355433 
L 280.450226 199.392673 
L 280.694879 202.677929 
L 280.939532 187.951803 
L 281.428838 174.146059 
L 281.673491 177.763675 
L 282.162797 167.575548 
L 282.40745 177.354616 
L 282.652103 175.143141 
L 282.896756 180.933883 
L 283.141409 161.01782 
L 283.386062 160.647111 
L 283.630715 161.503578 
L 283.875368 152.836639 
L 284.120021 157.003928 
L 284.364674 156.543737 
L 284.609327 154.94585 
L 284.85398 156.671568 
L 285.098633 162.283347 
L 285.343286 157.566385 
L 285.587939 158.103275 
L 285.832592 149.282939 
L 286.077245 150.510116 
L 286.321898 152.811073 
L 286.566551 149.193457 
L 286.811204 148.694916 
L 287.055857 142.968089 
L 287.30051 143.990737 
L 287.545163 142.354501 
L 287.789816 148.183592 
L 288.034469 146.879717 
L 288.279122 146.483441 
L 288.523775 140.513735 
L 288.768428 140.44982 
L 289.013081 139.184293 
L 289.257734 139.887363 
L 289.502387 141.625864 
L 289.74704 148.234725 
L 289.991693 144.37423 
L 290.236346 149.858178 
L 290.970305 143.63281 
L 291.214958 135.221534 
L 291.459611 132.997275 
L 291.704264 136.193049 
L 291.948917 136.550975 
L 292.19357 134.531246 
L 292.682876 136.806637 
L 293.172183 142.814692 
L 293.416836 142.546247 
L 293.661489 142.92974 
L 293.906142 145.396878 
L 294.150795 134.812475 
L 294.395448 154.485659 
L 294.640101 160.301967 
L 294.884754 156.569303 
L 295.37406 160.838857 
L 295.863366 170.72019 
L 296.352672 177.022256 
L 296.597325 178.97807 
L 296.841978 168.483148 
L 297.086631 164.545955 
L 297.575937 167.780078 
L 297.82059 165.811481 
L 298.065243 166.169408 
L 298.309896 158.320587 
L 298.799202 156.070762 
L 299.043855 146.68797 
L 299.288508 154.958633 
L 299.533161 157.528035 
L 299.777814 158.665731 
L 300.022467 161.094519 
L 300.26712 159.969606 
L 300.756426 167.524416 
L 301.001079 167.166489 
L 301.245732 173.187327 
L 301.490385 174.120493 
L 301.735038 177.584712 
L 301.979691 177.341833 
L 302.224344 171.602223 
L 302.468997 175.232623 
L 302.71365 170.311131 
L 302.958303 175.079225 
L 303.202956 175.820645 
L 303.447609 173.647519 
L 303.692262 179.783405 
L 303.936915 182.595686 
L 304.426221 173.021147 
L 304.670874 172.075198 
L 304.915527 172.024066 
L 305.16018 176.268053 
L 305.404833 176.664329 
L 305.649486 174.286673 
L 305.894139 178.914154 
L 306.138792 169.671976 
L 306.383445 172.292511 
L 306.628098 173.340724 
L 306.872751 172.458691 
L 307.117404 175.155924 
L 307.362057 172.535389 
L 307.60671 177.137304 
L 307.851363 177.827591 
L 308.096016 176.868859 
L 308.585322 178.338915 
L 308.829975 173.506905 
L 309.074628 171.62779 
L 309.319281 171.461609 
L 309.563934 179.169816 
L 309.808587 174.529552 
L 310.05324 177.69976 
L 310.297893 175.795079 
L 310.542546 175.38602 
L 310.787199 169.224568 
L 311.276505 171.576657 
L 311.521158 171.461609 
L 311.765811 168.789942 
L 312.010464 168.457582 
L 312.255117 162.104383 
L 312.49977 161.656975 
L 312.744423 162.385612 
L 313.233729 156.249726 
L 313.478382 160.953905 
L 313.723035 161.414096 
L 313.967688 163.970715 
L 314.212341 162.232214 
L 314.456994 161.439662 
L 314.701647 161.209567 
L 314.9463 158.90861 
L 315.190953 164.507605 
L 315.435607 157.502469 
L 315.68026 155.930148 
L 315.924913 141.510817 
L 316.169566 141.395769 
L 316.414219 143.504979 
L 316.658872 150.407851 
L 316.903525 147.812883 
L 317.148178 150.663513 
L 317.392831 150.305586 
L 317.637484 144.783289 
L 317.882137 146.68797 
L 318.12679 147.033114 
L 318.371443 144.949469 
L 318.616096 132.600999 
L 318.860749 133.342419 
L 319.350055 141.766478 
L 319.594708 139.248209 
L 319.839361 143.198185 
L 320.084014 150.241671 
L 320.328667 150.4462 
L 320.57332 148.567085 
L 320.817973 147.876798 
L 321.062626 147.838449 
L 321.551932 153.347963 
L 321.796585 151.18762 
L 322.041238 156.876097 
L 322.285891 158.959742 
L 322.530544 159.98239 
L 322.775197 158.831911 
L 323.01985 159.292102 
L 323.509156 157.949877 
L 323.753809 159.266536 
L 323.998462 157.234024 
L 324.243115 151.992955 
L 324.732421 162.270564 
L 324.977074 159.356018 
L 325.221727 153.616408 
L 325.711033 161.414096 
L 325.955686 167.434934 
L 326.200339 167.703379 
L 326.444992 168.815509 
L 326.689645 163.881234 
L 326.934298 164.699352 
L 327.178951 167.588331 
L 327.423604 174.222758 
L 327.668257 174.887479 
L 327.91291 176.447017 
L 328.402216 170.042686 
L 328.646869 170.72019 
L 328.891522 173.059496 
L 329.136175 171.384911 
L 329.625481 174.018228 
L 329.870134 172.982798 
L 330.35944 166.92361 
L 330.604093 169.774241 
L 330.848746 174.721299 
L 331.093399 176.523715 
L 331.338052 173.136195 
L 331.582705 172.049632 
L 331.827358 166.731864 
L 332.072011 168.751593 
L 332.316664 164.827183 
L 332.561317 167.818427 
L 332.80597 164.009065 
L 333.050623 166.092709 
L 333.295276 171.269863 
L 333.784582 173.94153 
L 334.029235 171.909018 
L 334.518541 174.964178 
L 334.763194 174.031012 
L 335.2525 171.576657 
L 335.497153 170.34948 
L 335.741806 173.021147 
L 336.475765 156.326424 
L 336.720418 157.719782 
L 336.965071 156.7227 
L 337.209724 152.696025 
L 337.454377 153.961552 
L 337.943684 157.591951 
L 338.188337 156.978362 
L 338.677643 158.090491 
L 338.922296 161.478012 
L 339.166949 158.243889 
L 339.411602 158.141624 
L 339.656255 157.42577 
L 339.900908 159.547764 
L 340.145561 160.634327 
L 340.634867 159.394367 
L 340.87952 160.992254 
L 341.124173 161.529144 
L 341.368826 159.266536 
L 341.613479 155.891799 
L 341.858132 155.431608 
L 342.102785 151.174837 
L 342.347438 151.174837 
L 342.592091 147.991846 
L 342.836744 147.582787 
L 343.081397 149.551384 
L 343.32605 148.515953 
L 343.570703 146.777452 
L 343.815356 146.483441 
L 344.304662 145.409661 
L 344.549315 147.160945 
L 344.793968 159.266536 
L 345.038621 162.078817 
L 345.527927 159.062007 
L 346.017233 161.030603 
L 346.261886 161.656975 
L 346.506539 161.094519 
L 346.751192 160.928339 
L 347.240498 162.372828 
L 347.485151 161.720891 
L 347.729804 162.244997 
L 347.974457 163.267645 
L 348.21911 157.476903 
L 348.463763 157.412987 
L 348.708416 158.039359 
L 348.953069 164.085763 
L 349.197722 166.437853 
L 349.442375 166.373937 
L 349.687028 168.099655 
L 350.176334 166.143842 
L 350.420987 165.031712 
L 350.66564 162.858586 
L 350.910293 162.654057 
L 351.154946 159.483849 
L 351.399599 159.228187 
L 351.644252 162.142733 
L 351.888905 161.55471 
L 352.133558 162.756321 
L 352.378211 160.48093 
L 352.622864 162.027685 
L 352.867517 161.260699 
L 353.11217 162.539009 
L 353.356823 161.644192 
L 353.601476 160.161353 
L 353.846129 155.891799 
L 354.090782 154.830802 
L 354.335435 155.546655 
L 354.580088 153.053952 
L 354.824741 144.156917 
L 355.069394 144.565976 
L 355.314047 143.044788 
L 355.5587 152.79829 
L 355.803353 153.015603 
L 356.292659 156.415906 
L 356.537312 157.29794 
L 356.781965 155.610571 
L 357.026618 156.326424 
L 357.271271 149.282939 
L 357.515924 148.528736 
L 357.760577 144.655458 
L 358.00523 144.361447 
L 358.249883 145.24348 
L 358.494536 139.491087 
L 358.983842 149.986009 
L 359.228495 141.894309 
L 359.473148 138.148862 
L 359.717801 138.008248 
L 359.962454 139.503871 
L 360.207107 137.816502 
L 360.451761 139.810665 
L 360.696414 140.462603 
L 360.941067 145.294613 
L 361.18572 143.811774 
L 361.430373 143.377149 
L 361.675026 143.747858 
L 361.919679 145.742021 
L 362.164332 143.46663 
L 362.408985 145.742021 
L 362.653638 151.72451 
L 363.387597 155.393258 
L 363.876903 160.915556 
L 364.121556 157.016711 
L 364.366209 155.840667 
L 364.610862 152.874988 
L 365.100168 155.469957 
L 365.344821 155.060898 
L 365.589474 158.716863 
L 366.07878 153.565276 
L 366.323433 154.549574 
L 366.568086 153.13065 
L 366.812739 148.196376 
L 367.057392 150.804127 
L 367.302045 151.302668 
L 367.791351 147.454956 
L 368.036004 144.450929 
L 368.280657 144.246399 
L 368.52531 142.162754 
L 368.769963 142.571813 
L 369.259269 139.145944 
L 369.503922 138.621837 
L 369.748575 136.244181 
L 369.993228 129.251828 
L 370.237881 131.297123 
L 370.482534 126.030488 
L 370.727187 126.247801 
L 370.97184 101.959919 
L 371.216493 93.842653 
L 371.461146 94.801386 
L 371.705799 99.454432 
L 371.950452 92.513211 
L 372.195105 94.226146 
L 372.439758 92.807223 
L 372.684411 89.879894 
L 372.929064 88.793331 
L 373.173717 98.674663 
L 373.41837 97.498619 
L 373.663023 97.242957 
L 373.907676 95.146529 
L 374.152329 94.111098 
L 374.396982 100.617694 
L 374.641635 101.077885 
L 374.886288 98.789711 
L 375.130941 94.149448 
L 375.375594 95.581154 
L 375.620247 95.747335 
L 375.8649 94.865301 
L 376.109553 101.972702 
L 376.354206 101.077885 
L 376.843512 91.669527 
L 377.088165 85.802086 
L 377.332818 95.184878 
L 377.577471 93.050101 
L 377.822124 85.111799 
L 378.066777 90.161122 
L 378.556083 79.461671 
L 378.800736 80.982859 
L 379.045389 79.806814 
L 379.290042 82.516831 
L 379.534695 77.582556 
L 379.779348 79.142094 
L 380.024001 79.001479 
L 380.268654 77.774302 
L 380.513307 75.665092 
L 380.75796 83.437214 
L 381.002613 81.264087 
L 381.247266 76.623824 
L 381.491919 74.757492 
L 381.736572 66.563528 
L 381.981225 65.310784 
L 382.225878 67.445561 
L 382.470531 71.318839 
L 382.715184 69.657037 
L 382.959838 66.563528 
L 383.204491 60.772785 
L 383.449144 47.746811 
L 383.693797 50.418478 
L 383.93845 51.684004 
L 384.183103 47.401667 
L 384.427756 34.439608 
L 384.672409 37.635382 
L 384.917062 39.3611 
L 385.161715 45.049578 
L 385.406368 44.56382 
L 385.651021 42.991499 
L 385.895674 45.714299 
L 386.140327 46.941476 
L 386.38498 50.034985 
L 386.629633 77.199063 
L 386.874286 80.970076 
L 387.118939 71.357188 
L 387.363592 69.452507 
L 387.608245 73.722061 
L 387.852898 74.425131 
L 387.852898 74.425131 
" style="fill:none;stroke:#ff7f0e;stroke-linecap:square;stroke-width:1.5;"/>
   </g>
   <g id="patch_3">
    <path d="M 46.965625 288.430125 
L 46.965625 22.318125 
" style="fill:none;stroke:#000000;stroke-linecap:square;stroke-linejoin:miter;stroke-width:0.8;"/>
   </g>
   <g id="patch_4">
    <path d="M 404.085625 288.430125 
L 404.085625 22.318125 
" style="fill:none;stroke:#000000;stroke-linecap:square;stroke-linejoin:miter;stroke-width:0.8;"/>
   </g>
   <g id="patch_5">
    <path d="M 46.965625 288.430125 
L 404.085625 288.430125 
" style="fill:none;stroke:#000000;stroke-linecap:square;stroke-linejoin:miter;stroke-width:0.8;"/>
   </g>
   <g id="patch_6">
    <path d="M 46.965625 22.318125 
L 404.085625 22.318125 
" style="fill:none;stroke:#000000;stroke-linecap:square;stroke-linejoin:miter;stroke-width:0.8;"/>
   </g>
   <g id="text_19">
    <!-- Training: BIDU -->
    <defs>
     <path d="M -0.296875 72.90625 
L 61.375 72.90625 
L 61.375 64.59375 
L 35.5 64.59375 
L 35.5 0 
L 25.59375 0 
L 25.59375 64.59375 
L -0.296875 64.59375 
z
" id="DejaVuSans-84"/>
     <path d="M 54.890625 33.015625 
L 54.890625 0 
L 45.90625 0 
L 45.90625 32.71875 
Q 45.90625 40.484375 42.875 44.328125 
Q 39.84375 48.1875 33.796875 48.1875 
Q 26.515625 48.1875 22.3125 43.546875 
Q 18.109375 38.921875 18.109375 30.90625 
L 18.109375 0 
L 9.078125 0 
L 9.078125 54.6875 
L 18.109375 54.6875 
L 18.109375 46.1875 
Q 21.34375 51.125 25.703125 53.5625 
Q 30.078125 56 35.796875 56 
Q 45.21875 56 50.046875 50.171875 
Q 54.890625 44.34375 54.890625 33.015625 
z
" id="DejaVuSans-110"/>
     <path d="M 45.40625 27.984375 
Q 45.40625 37.75 41.375 43.109375 
Q 37.359375 48.484375 30.078125 48.484375 
Q 22.859375 48.484375 18.828125 43.109375 
Q 14.796875 37.75 14.796875 27.984375 
Q 14.796875 18.265625 18.828125 12.890625 
Q 22.859375 7.515625 30.078125 7.515625 
Q 37.359375 7.515625 41.375 12.890625 
Q 45.40625 18.265625 45.40625 27.984375 
z
M 54.390625 6.78125 
Q 54.390625 -7.171875 48.1875 -13.984375 
Q 42 -20.796875 29.203125 -20.796875 
Q 24.46875 -20.796875 20.265625 -20.09375 
Q 16.0625 -19.390625 12.109375 -17.921875 
L 12.109375 -9.1875 
Q 16.0625 -11.328125 19.921875 -12.34375 
Q 23.78125 -13.375 27.78125 -13.375 
Q 36.625 -13.375 41.015625 -8.765625 
Q 45.40625 -4.15625 45.40625 5.171875 
L 45.40625 9.625 
Q 42.625 4.78125 38.28125 2.390625 
Q 33.9375 0 27.875 0 
Q 17.828125 0 11.671875 7.65625 
Q 5.515625 15.328125 5.515625 27.984375 
Q 5.515625 40.671875 11.671875 48.328125 
Q 17.828125 56 27.875 56 
Q 33.9375 56 38.28125 53.609375 
Q 42.625 51.21875 45.40625 46.390625 
L 45.40625 54.6875 
L 54.390625 54.6875 
z
" id="DejaVuSans-103"/>
     <path d="M 11.71875 12.40625 
L 22.015625 12.40625 
L 22.015625 0 
L 11.71875 0 
z
M 11.71875 51.703125 
L 22.015625 51.703125 
L 22.015625 39.3125 
L 11.71875 39.3125 
z
" id="DejaVuSans-58"/>
     <path d="M 19.671875 34.8125 
L 19.671875 8.109375 
L 35.5 8.109375 
Q 43.453125 8.109375 47.28125 11.40625 
Q 51.125 14.703125 51.125 21.484375 
Q 51.125 28.328125 47.28125 31.5625 
Q 43.453125 34.8125 35.5 34.8125 
z
M 19.671875 64.796875 
L 19.671875 42.828125 
L 34.28125 42.828125 
Q 41.5 42.828125 45.03125 45.53125 
Q 48.578125 48.25 48.578125 53.8125 
Q 48.578125 59.328125 45.03125 62.0625 
Q 41.5 64.796875 34.28125 64.796875 
z
M 9.8125 72.90625 
L 35.015625 72.90625 
Q 46.296875 72.90625 52.390625 68.21875 
Q 58.5 63.53125 58.5 54.890625 
Q 58.5 48.1875 55.375 44.234375 
Q 52.25 40.28125 46.1875 39.3125 
Q 53.46875 37.75 57.5 32.78125 
Q 61.53125 27.828125 61.53125 20.40625 
Q 61.53125 10.640625 54.890625 5.3125 
Q 48.25 0 35.984375 0 
L 9.8125 0 
z
" id="DejaVuSans-66"/>
     <path d="M 9.8125 72.90625 
L 19.671875 72.90625 
L 19.671875 0 
L 9.8125 0 
z
" id="DejaVuSans-73"/>
     <path d="M 8.6875 72.90625 
L 18.609375 72.90625 
L 18.609375 28.609375 
Q 18.609375 16.890625 22.84375 11.734375 
Q 27.09375 6.59375 36.625 6.59375 
Q 46.09375 6.59375 50.34375 11.734375 
Q 54.59375 16.890625 54.59375 28.609375 
L 54.59375 72.90625 
L 64.5 72.90625 
L 64.5 27.390625 
Q 64.5 13.140625 57.4375 5.859375 
Q 50.390625 -1.421875 36.625 -1.421875 
Q 22.796875 -1.421875 15.734375 5.859375 
Q 8.6875 13.140625 8.6875 27.390625 
z
" id="DejaVuSans-85"/>
    </defs>
    <g transform="translate(183.02875 16.318125)scale(0.12 -0.12)">
     <use xlink:href="#DejaVuSans-84"/>
     <use x="46.333984" xlink:href="#DejaVuSans-114"/>
     <use x="87.447266" xlink:href="#DejaVuSans-97"/>
     <use x="148.726562" xlink:href="#DejaVuSans-105"/>
     <use x="176.509766" xlink:href="#DejaVuSans-110"/>
     <use x="239.888672" xlink:href="#DejaVuSans-105"/>
     <use x="267.671875" xlink:href="#DejaVuSans-110"/>
     <use x="331.050781" xlink:href="#DejaVuSans-103"/>
     <use x="394.527344" xlink:href="#DejaVuSans-58"/>
     <use x="428.21875" xlink:href="#DejaVuSans-32"/>
     <use x="460.005859" xlink:href="#DejaVuSans-66"/>
     <use x="528.609375" xlink:href="#DejaVuSans-73"/>
     <use x="558.101562" xlink:href="#DejaVuSans-68"/>
     <use x="635.103516" xlink:href="#DejaVuSans-85"/>
    </g>
   </g>
   <g id="legend_1">
    <g id="patch_7">
     <path d="M 53.965625 59.674375 
L 137.69375 59.674375 
Q 139.69375 59.674375 139.69375 57.674375 
L 139.69375 29.318125 
Q 139.69375 27.318125 137.69375 27.318125 
L 53.965625 27.318125 
Q 51.965625 27.318125 51.965625 29.318125 
L 51.965625 57.674375 
Q 51.965625 59.674375 53.965625 59.674375 
z
" style="fill:#ffffff;opacity:0.8;stroke:#cccccc;stroke-linejoin:miter;"/>
    </g>
    <g id="line2d_35">
     <path d="M 55.965625 35.416562 
L 75.965625 35.416562 
" style="fill:none;stroke:#1f77b4;stroke-linecap:square;stroke-width:1.5;"/>
    </g>
    <g id="line2d_36"/>
    <g id="text_20">
     <!-- Predicted -->
     <defs>
      <path d="M 45.40625 46.390625 
L 45.40625 75.984375 
L 54.390625 75.984375 
L 54.390625 0 
L 45.40625 0 
L 45.40625 8.203125 
Q 42.578125 3.328125 38.25 0.953125 
Q 33.9375 -1.421875 27.875 -1.421875 
Q 17.96875 -1.421875 11.734375 6.484375 
Q 5.515625 14.40625 5.515625 27.296875 
Q 5.515625 40.1875 11.734375 48.09375 
Q 17.96875 56 27.875 56 
Q 33.9375 56 38.25 53.625 
Q 42.578125 51.265625 45.40625 46.390625 
z
M 14.796875 27.296875 
Q 14.796875 17.390625 18.875 11.75 
Q 22.953125 6.109375 30.078125 6.109375 
Q 37.203125 6.109375 41.296875 11.75 
Q 45.40625 17.390625 45.40625 27.296875 
Q 45.40625 37.203125 41.296875 42.84375 
Q 37.203125 48.484375 30.078125 48.484375 
Q 22.953125 48.484375 18.875 42.84375 
Q 14.796875 37.203125 14.796875 27.296875 
z
" id="DejaVuSans-100"/>
      <path d="M 18.3125 70.21875 
L 18.3125 54.6875 
L 36.8125 54.6875 
L 36.8125 47.703125 
L 18.3125 47.703125 
L 18.3125 18.015625 
Q 18.3125 11.328125 20.140625 9.421875 
Q 21.96875 7.515625 27.59375 7.515625 
L 36.8125 7.515625 
L 36.8125 0 
L 27.59375 0 
Q 17.1875 0 13.234375 3.875 
Q 9.28125 7.765625 9.28125 18.015625 
L 9.28125 47.703125 
L 2.6875 47.703125 
L 2.6875 54.6875 
L 9.28125 54.6875 
L 9.28125 70.21875 
z
" id="DejaVuSans-116"/>
     </defs>
     <g transform="translate(83.965625 38.916562)scale(0.1 -0.1)">
      <use xlink:href="#DejaVuSans-80"/>
      <use x="58.552734" xlink:href="#DejaVuSans-114"/>
      <use x="97.416016" xlink:href="#DejaVuSans-101"/>
      <use x="158.939453" xlink:href="#DejaVuSans-100"/>
      <use x="222.416016" xlink:href="#DejaVuSans-105"/>
      <use x="250.199219" xlink:href="#DejaVuSans-99"/>
      <use x="305.179688" xlink:href="#DejaVuSans-116"/>
      <use x="344.388672" xlink:href="#DejaVuSans-101"/>
      <use x="405.912109" xlink:href="#DejaVuSans-100"/>
     </g>
    </g>
    <g id="line2d_37">
     <path d="M 55.965625 50.094687 
L 75.965625 50.094687 
" style="fill:none;stroke:#ff7f0e;stroke-linecap:square;stroke-width:1.5;"/>
    </g>
    <g id="line2d_38"/>
    <g id="text_21">
     <!-- True value -->
     <defs>
      <path d="M 8.5 21.578125 
L 8.5 54.6875 
L 17.484375 54.6875 
L 17.484375 21.921875 
Q 17.484375 14.15625 20.5 10.265625 
Q 23.53125 6.390625 29.59375 6.390625 
Q 36.859375 6.390625 41.078125 11.03125 
Q 45.3125 15.671875 45.3125 23.6875 
L 45.3125 54.6875 
L 54.296875 54.6875 
L 54.296875 0 
L 45.3125 0 
L 45.3125 8.40625 
Q 42.046875 3.421875 37.71875 1 
Q 33.40625 -1.421875 27.6875 -1.421875 
Q 18.265625 -1.421875 13.375 4.4375 
Q 8.5 10.296875 8.5 21.578125 
z
M 31.109375 56 
z
" id="DejaVuSans-117"/>
      <path d="M 2.984375 54.6875 
L 12.5 54.6875 
L 29.59375 8.796875 
L 46.6875 54.6875 
L 56.203125 54.6875 
L 35.6875 0 
L 23.484375 0 
z
" id="DejaVuSans-118"/>
      <path d="M 9.421875 75.984375 
L 18.40625 75.984375 
L 18.40625 0 
L 9.421875 0 
z
" id="DejaVuSans-108"/>
     </defs>
     <g transform="translate(83.965625 53.594687)scale(0.1 -0.1)">
      <use xlink:href="#DejaVuSans-84"/>
      <use x="46.333984" xlink:href="#DejaVuSans-114"/>
      <use x="87.447266" xlink:href="#DejaVuSans-117"/>
      <use x="150.826172" xlink:href="#DejaVuSans-101"/>
      <use x="212.349609" xlink:href="#DejaVuSans-32"/>
      <use x="244.136719" xlink:href="#DejaVuSans-118"/>
      <use x="303.316406" xlink:href="#DejaVuSans-97"/>
      <use x="364.595703" xlink:href="#DejaVuSans-108"/>
      <use x="392.378906" xlink:href="#DejaVuSans-117"/>
      <use x="455.757812" xlink:href="#DejaVuSans-101"/>
     </g>
    </g>
   </g>
  </g>
 </g>
 <defs>
  <clipPath id="p7c4527e93d">
   <rect height="266.112" width="357.12" x="46.965625" y="22.318125"/>
  </clipPath>
 </defs>
</svg>
