<?xml version="1.0" encoding="utf-8" standalone="no"?>
<!DOCTYPE svg PUBLIC "-//W3C//DTD SVG 1.1//EN"
  "http://www.w3.org/Graphics/SVG/1.1/DTD/svg11.dtd">
<!-- Created with matplotlib (https://matplotlib.org/) -->
<svg height="325.986375pt" version="1.1" viewBox="0 0 411.285625 325.986375" width="411.285625pt" xmlns="http://www.w3.org/2000/svg" xmlns:xlink="http://www.w3.org/1999/xlink">
 <defs>
  <style type="text/css">
*{stroke-linecap:butt;stroke-linejoin:round;}
  </style>
 </defs>
 <g id="figure_1">
  <g id="patch_1">
   <path d="M 0 325.986375 
L 411.285625 325.986375 
L 411.285625 0 
L 0 0 
z
" style="fill:#ffffff;"/>
  </g>
  <g id="axes_1">
   <g id="patch_2">
    <path d="M 46.965625 288.430125 
L 404.085625 288.430125 
L 404.085625 22.318125 
L 46.965625 22.318125 
z
" style="fill:#ffffff;"/>
   </g>
   <g id="matplotlib.axis_1">
    <g id="xtick_1">
     <g id="line2d_1">
      <path clip-path="url(#p00088cdc6b)" d="M 63.198352 288.430125 
L 63.198352 22.318125 
" style="fill:none;stroke:#b0b0b0;stroke-dasharray:2.96,1.28;stroke-dashoffset:0;stroke-width:0.8;"/>
     </g>
     <g id="line2d_2">
      <defs>
       <path d="M 0 0 
L 0 3.5 
" id="mf199f7487b" style="stroke:#000000;stroke-width:0.8;"/>
      </defs>
      <g>
       <use style="stroke:#000000;stroke-width:0.8;" x="63.198352" xlink:href="#mf199f7487b" y="288.430125"/>
      </g>
     </g>
     <g id="text_1">
      <!-- 0 -->
      <defs>
       <path d="M 31.78125 66.40625 
Q 24.171875 66.40625 20.328125 58.90625 
Q 16.5 51.421875 16.5 36.375 
Q 16.5 21.390625 20.328125 13.890625 
Q 24.171875 6.390625 31.78125 6.390625 
Q 39.453125 6.390625 43.28125 13.890625 
Q 47.125 21.390625 47.125 36.375 
Q 47.125 51.421875 43.28125 58.90625 
Q 39.453125 66.40625 31.78125 66.40625 
z
M 31.78125 74.21875 
Q 44.046875 74.21875 50.515625 64.515625 
Q 56.984375 54.828125 56.984375 36.375 
Q 56.984375 17.96875 50.515625 8.265625 
Q 44.046875 -1.421875 31.78125 -1.421875 
Q 19.53125 -1.421875 13.0625 8.265625 
Q 6.59375 17.96875 6.59375 36.375 
Q 6.59375 54.828125 13.0625 64.515625 
Q 19.53125 74.21875 31.78125 74.21875 
z
" id="DejaVuSans-48"/>
      </defs>
      <g transform="translate(60.017102 303.028562)scale(0.1 -0.1)">
       <use xlink:href="#DejaVuSans-48"/>
      </g>
     </g>
    </g>
    <g id="xtick_2">
     <g id="line2d_3">
      <path clip-path="url(#p00088cdc6b)" d="M 112.128954 288.430125 
L 112.128954 22.318125 
" style="fill:none;stroke:#b0b0b0;stroke-dasharray:2.96,1.28;stroke-dashoffset:0;stroke-width:0.8;"/>
     </g>
     <g id="line2d_4">
      <g>
       <use style="stroke:#000000;stroke-width:0.8;" x="112.128954" xlink:href="#mf199f7487b" y="288.430125"/>
      </g>
     </g>
     <g id="text_2">
      <!-- 200 -->
      <defs>
       <path d="M 19.1875 8.296875 
L 53.609375 8.296875 
L 53.609375 0 
L 7.328125 0 
L 7.328125 8.296875 
Q 12.9375 14.109375 22.625 23.890625 
Q 32.328125 33.6875 34.8125 36.53125 
Q 39.546875 41.84375 41.421875 45.53125 
Q 43.3125 49.21875 43.3125 52.78125 
Q 43.3125 58.59375 39.234375 62.25 
Q 35.15625 65.921875 28.609375 65.921875 
Q 23.96875 65.921875 18.8125 64.3125 
Q 13.671875 62.703125 7.8125 59.421875 
L 7.8125 69.390625 
Q 13.765625 71.78125 18.9375 73 
Q 24.125 74.21875 28.421875 74.21875 
Q 39.75 74.21875 46.484375 68.546875 
Q 53.21875 62.890625 53.21875 53.421875 
Q 53.21875 48.921875 51.53125 44.890625 
Q 49.859375 40.875 45.40625 35.40625 
Q 44.1875 33.984375 37.640625 27.21875 
Q 31.109375 20.453125 19.1875 8.296875 
z
" id="DejaVuSans-50"/>
      </defs>
      <g transform="translate(102.585204 303.028562)scale(0.1 -0.1)">
       <use xlink:href="#DejaVuSans-50"/>
       <use x="63.623047" xlink:href="#DejaVuSans-48"/>
       <use x="127.246094" xlink:href="#DejaVuSans-48"/>
      </g>
     </g>
    </g>
    <g id="xtick_3">
     <g id="line2d_5">
      <path clip-path="url(#p00088cdc6b)" d="M 161.059557 288.430125 
L 161.059557 22.318125 
" style="fill:none;stroke:#b0b0b0;stroke-dasharray:2.96,1.28;stroke-dashoffset:0;stroke-width:0.8;"/>
     </g>
     <g id="line2d_6">
      <g>
       <use style="stroke:#000000;stroke-width:0.8;" x="161.059557" xlink:href="#mf199f7487b" y="288.430125"/>
      </g>
     </g>
     <g id="text_3">
      <!-- 400 -->
      <defs>
       <path d="M 37.796875 64.3125 
L 12.890625 25.390625 
L 37.796875 25.390625 
z
M 35.203125 72.90625 
L 47.609375 72.90625 
L 47.609375 25.390625 
L 58.015625 25.390625 
L 58.015625 17.1875 
L 47.609375 17.1875 
L 47.609375 0 
L 37.796875 0 
L 37.796875 17.1875 
L 4.890625 17.1875 
L 4.890625 26.703125 
z
" id="DejaVuSans-52"/>
      </defs>
      <g transform="translate(151.515807 303.028562)scale(0.1 -0.1)">
       <use xlink:href="#DejaVuSans-52"/>
       <use x="63.623047" xlink:href="#DejaVuSans-48"/>
       <use x="127.246094" xlink:href="#DejaVuSans-48"/>
      </g>
     </g>
    </g>
    <g id="xtick_4">
     <g id="line2d_7">
      <path clip-path="url(#p00088cdc6b)" d="M 209.990159 288.430125 
L 209.990159 22.318125 
" style="fill:none;stroke:#b0b0b0;stroke-dasharray:2.96,1.28;stroke-dashoffset:0;stroke-width:0.8;"/>
     </g>
     <g id="line2d_8">
      <g>
       <use style="stroke:#000000;stroke-width:0.8;" x="209.990159" xlink:href="#mf199f7487b" y="288.430125"/>
      </g>
     </g>
     <g id="text_4">
      <!-- 600 -->
      <defs>
       <path d="M 33.015625 40.375 
Q 26.375 40.375 22.484375 35.828125 
Q 18.609375 31.296875 18.609375 23.390625 
Q 18.609375 15.53125 22.484375 10.953125 
Q 26.375 6.390625 33.015625 6.390625 
Q 39.65625 6.390625 43.53125 10.953125 
Q 47.40625 15.53125 47.40625 23.390625 
Q 47.40625 31.296875 43.53125 35.828125 
Q 39.65625 40.375 33.015625 40.375 
z
M 52.59375 71.296875 
L 52.59375 62.3125 
Q 48.875 64.0625 45.09375 64.984375 
Q 41.3125 65.921875 37.59375 65.921875 
Q 27.828125 65.921875 22.671875 59.328125 
Q 17.53125 52.734375 16.796875 39.40625 
Q 19.671875 43.65625 24.015625 45.921875 
Q 28.375 48.1875 33.59375 48.1875 
Q 44.578125 48.1875 50.953125 41.515625 
Q 57.328125 34.859375 57.328125 23.390625 
Q 57.328125 12.15625 50.6875 5.359375 
Q 44.046875 -1.421875 33.015625 -1.421875 
Q 20.359375 -1.421875 13.671875 8.265625 
Q 6.984375 17.96875 6.984375 36.375 
Q 6.984375 53.65625 15.1875 63.9375 
Q 23.390625 74.21875 37.203125 74.21875 
Q 40.921875 74.21875 44.703125 73.484375 
Q 48.484375 72.75 52.59375 71.296875 
z
" id="DejaVuSans-54"/>
      </defs>
      <g transform="translate(200.446409 303.028562)scale(0.1 -0.1)">
       <use xlink:href="#DejaVuSans-54"/>
       <use x="63.623047" xlink:href="#DejaVuSans-48"/>
       <use x="127.246094" xlink:href="#DejaVuSans-48"/>
      </g>
     </g>
    </g>
    <g id="xtick_5">
     <g id="line2d_9">
      <path clip-path="url(#p00088cdc6b)" d="M 258.920761 288.430125 
L 258.920761 22.318125 
" style="fill:none;stroke:#b0b0b0;stroke-dasharray:2.96,1.28;stroke-dashoffset:0;stroke-width:0.8;"/>
     </g>
     <g id="line2d_10">
      <g>
       <use style="stroke:#000000;stroke-width:0.8;" x="258.920761" xlink:href="#mf199f7487b" y="288.430125"/>
      </g>
     </g>
     <g id="text_5">
      <!-- 800 -->
      <defs>
       <path d="M 31.78125 34.625 
Q 24.75 34.625 20.71875 30.859375 
Q 16.703125 27.09375 16.703125 20.515625 
Q 16.703125 13.921875 20.71875 10.15625 
Q 24.75 6.390625 31.78125 6.390625 
Q 38.8125 6.390625 42.859375 10.171875 
Q 46.921875 13.96875 46.921875 20.515625 
Q 46.921875 27.09375 42.890625 30.859375 
Q 38.875 34.625 31.78125 34.625 
z
M 21.921875 38.8125 
Q 15.578125 40.375 12.03125 44.71875 
Q 8.5 49.078125 8.5 55.328125 
Q 8.5 64.0625 14.71875 69.140625 
Q 20.953125 74.21875 31.78125 74.21875 
Q 42.671875 74.21875 48.875 69.140625 
Q 55.078125 64.0625 55.078125 55.328125 
Q 55.078125 49.078125 51.53125 44.71875 
Q 48 40.375 41.703125 38.8125 
Q 48.828125 37.15625 52.796875 32.3125 
Q 56.78125 27.484375 56.78125 20.515625 
Q 56.78125 9.90625 50.3125 4.234375 
Q 43.84375 -1.421875 31.78125 -1.421875 
Q 19.734375 -1.421875 13.25 4.234375 
Q 6.78125 9.90625 6.78125 20.515625 
Q 6.78125 27.484375 10.78125 32.3125 
Q 14.796875 37.15625 21.921875 38.8125 
z
M 18.3125 54.390625 
Q 18.3125 48.734375 21.84375 45.5625 
Q 25.390625 42.390625 31.78125 42.390625 
Q 38.140625 42.390625 41.71875 45.5625 
Q 45.3125 48.734375 45.3125 54.390625 
Q 45.3125 60.0625 41.71875 63.234375 
Q 38.140625 66.40625 31.78125 66.40625 
Q 25.390625 66.40625 21.84375 63.234375 
Q 18.3125 60.0625 18.3125 54.390625 
z
" id="DejaVuSans-56"/>
      </defs>
      <g transform="translate(249.377011 303.028562)scale(0.1 -0.1)">
       <use xlink:href="#DejaVuSans-56"/>
       <use x="63.623047" xlink:href="#DejaVuSans-48"/>
       <use x="127.246094" xlink:href="#DejaVuSans-48"/>
      </g>
     </g>
    </g>
    <g id="xtick_6">
     <g id="line2d_11">
      <path clip-path="url(#p00088cdc6b)" d="M 307.851363 288.430125 
L 307.851363 22.318125 
" style="fill:none;stroke:#b0b0b0;stroke-dasharray:2.96,1.28;stroke-dashoffset:0;stroke-width:0.8;"/>
     </g>
     <g id="line2d_12">
      <g>
       <use style="stroke:#000000;stroke-width:0.8;" x="307.851363" xlink:href="#mf199f7487b" y="288.430125"/>
      </g>
     </g>
     <g id="text_6">
      <!-- 1000 -->
      <defs>
       <path d="M 12.40625 8.296875 
L 28.515625 8.296875 
L 28.515625 63.921875 
L 10.984375 60.40625 
L 10.984375 69.390625 
L 28.421875 72.90625 
L 38.28125 72.90625 
L 38.28125 8.296875 
L 54.390625 8.296875 
L 54.390625 0 
L 12.40625 0 
z
" id="DejaVuSans-49"/>
      </defs>
      <g transform="translate(295.126363 303.028562)scale(0.1 -0.1)">
       <use xlink:href="#DejaVuSans-49"/>
       <use x="63.623047" xlink:href="#DejaVuSans-48"/>
       <use x="127.246094" xlink:href="#DejaVuSans-48"/>
       <use x="190.869141" xlink:href="#DejaVuSans-48"/>
      </g>
     </g>
    </g>
    <g id="xtick_7">
     <g id="line2d_13">
      <path clip-path="url(#p00088cdc6b)" d="M 356.781965 288.430125 
L 356.781965 22.318125 
" style="fill:none;stroke:#b0b0b0;stroke-dasharray:2.96,1.28;stroke-dashoffset:0;stroke-width:0.8;"/>
     </g>
     <g id="line2d_14">
      <g>
       <use style="stroke:#000000;stroke-width:0.8;" x="356.781965" xlink:href="#mf199f7487b" y="288.430125"/>
      </g>
     </g>
     <g id="text_7">
      <!-- 1200 -->
      <g transform="translate(344.056965 303.028562)scale(0.1 -0.1)">
       <use xlink:href="#DejaVuSans-49"/>
       <use x="63.623047" xlink:href="#DejaVuSans-50"/>
       <use x="127.246094" xlink:href="#DejaVuSans-48"/>
       <use x="190.869141" xlink:href="#DejaVuSans-48"/>
      </g>
     </g>
    </g>
    <g id="text_8">
     <!-- Day -->
     <defs>
      <path d="M 19.671875 64.796875 
L 19.671875 8.109375 
L 31.59375 8.109375 
Q 46.6875 8.109375 53.6875 14.9375 
Q 60.6875 21.78125 60.6875 36.53125 
Q 60.6875 51.171875 53.6875 57.984375 
Q 46.6875 64.796875 31.59375 64.796875 
z
M 9.8125 72.90625 
L 30.078125 72.90625 
Q 51.265625 72.90625 61.171875 64.09375 
Q 71.09375 55.28125 71.09375 36.53125 
Q 71.09375 17.671875 61.125 8.828125 
Q 51.171875 0 30.078125 0 
L 9.8125 0 
z
" id="DejaVuSans-68"/>
      <path d="M 34.28125 27.484375 
Q 23.390625 27.484375 19.1875 25 
Q 14.984375 22.515625 14.984375 16.5 
Q 14.984375 11.71875 18.140625 8.90625 
Q 21.296875 6.109375 26.703125 6.109375 
Q 34.1875 6.109375 38.703125 11.40625 
Q 43.21875 16.703125 43.21875 25.484375 
L 43.21875 27.484375 
z
M 52.203125 31.203125 
L 52.203125 0 
L 43.21875 0 
L 43.21875 8.296875 
Q 40.140625 3.328125 35.546875 0.953125 
Q 30.953125 -1.421875 24.3125 -1.421875 
Q 15.921875 -1.421875 10.953125 3.296875 
Q 6 8.015625 6 15.921875 
Q 6 25.140625 12.171875 29.828125 
Q 18.359375 34.515625 30.609375 34.515625 
L 43.21875 34.515625 
L 43.21875 35.40625 
Q 43.21875 41.609375 39.140625 45 
Q 35.0625 48.390625 27.6875 48.390625 
Q 23 48.390625 18.546875 47.265625 
Q 14.109375 46.140625 10.015625 43.890625 
L 10.015625 52.203125 
Q 14.9375 54.109375 19.578125 55.046875 
Q 24.21875 56 28.609375 56 
Q 40.484375 56 46.34375 49.84375 
Q 52.203125 43.703125 52.203125 31.203125 
z
" id="DejaVuSans-97"/>
      <path d="M 32.171875 -5.078125 
Q 28.375 -14.84375 24.75 -17.8125 
Q 21.140625 -20.796875 15.09375 -20.796875 
L 7.90625 -20.796875 
L 7.90625 -13.28125 
L 13.1875 -13.28125 
Q 16.890625 -13.28125 18.9375 -11.515625 
Q 21 -9.765625 23.484375 -3.21875 
L 25.09375 0.875 
L 2.984375 54.6875 
L 12.5 54.6875 
L 29.59375 11.921875 
L 46.6875 54.6875 
L 56.203125 54.6875 
z
" id="DejaVuSans-121"/>
     </defs>
     <g transform="translate(215.652188 316.706687)scale(0.1 -0.1)">
      <use xlink:href="#DejaVuSans-68"/>
      <use x="77.001953" xlink:href="#DejaVuSans-97"/>
      <use x="138.28125" xlink:href="#DejaVuSans-121"/>
     </g>
    </g>
   </g>
   <g id="matplotlib.axis_2">
    <g id="ytick_1">
     <g id="line2d_15">
      <path clip-path="url(#p00088cdc6b)" d="M 46.965625 288.130631 
L 404.085625 288.130631 
" style="fill:none;stroke:#b0b0b0;stroke-dasharray:2.96,1.28;stroke-dashoffset:0;stroke-width:0.8;"/>
     </g>
     <g id="line2d_16">
      <defs>
       <path d="M 0 0 
L -3.5 0 
" id="m99af2e194d" style="stroke:#000000;stroke-width:0.8;"/>
      </defs>
      <g>
       <use style="stroke:#000000;stroke-width:0.8;" x="46.965625" xlink:href="#m99af2e194d" y="288.130631"/>
      </g>
     </g>
     <g id="text_9">
      <!-- 0 -->
      <g transform="translate(33.603125 291.929849)scale(0.1 -0.1)">
       <use xlink:href="#DejaVuSans-48"/>
      </g>
     </g>
    </g>
    <g id="ytick_2">
     <g id="line2d_17">
      <path clip-path="url(#p00088cdc6b)" d="M 46.965625 258.188181 
L 404.085625 258.188181 
" style="fill:none;stroke:#b0b0b0;stroke-dasharray:2.96,1.28;stroke-dashoffset:0;stroke-width:0.8;"/>
     </g>
     <g id="line2d_18">
      <g>
       <use style="stroke:#000000;stroke-width:0.8;" x="46.965625" xlink:href="#m99af2e194d" y="258.188181"/>
      </g>
     </g>
     <g id="text_10">
      <!-- 25 -->
      <defs>
       <path d="M 10.796875 72.90625 
L 49.515625 72.90625 
L 49.515625 64.59375 
L 19.828125 64.59375 
L 19.828125 46.734375 
Q 21.96875 47.46875 24.109375 47.828125 
Q 26.265625 48.1875 28.421875 48.1875 
Q 40.625 48.1875 47.75 41.5 
Q 54.890625 34.8125 54.890625 23.390625 
Q 54.890625 11.625 47.5625 5.09375 
Q 40.234375 -1.421875 26.90625 -1.421875 
Q 22.3125 -1.421875 17.546875 -0.640625 
Q 12.796875 0.140625 7.71875 1.703125 
L 7.71875 11.625 
Q 12.109375 9.234375 16.796875 8.0625 
Q 21.484375 6.890625 26.703125 6.890625 
Q 35.15625 6.890625 40.078125 11.328125 
Q 45.015625 15.765625 45.015625 23.390625 
Q 45.015625 31 40.078125 35.4375 
Q 35.15625 39.890625 26.703125 39.890625 
Q 22.75 39.890625 18.8125 39.015625 
Q 14.890625 38.140625 10.796875 36.28125 
z
" id="DejaVuSans-53"/>
      </defs>
      <g transform="translate(27.240625 261.987399)scale(0.1 -0.1)">
       <use xlink:href="#DejaVuSans-50"/>
       <use x="63.623047" xlink:href="#DejaVuSans-53"/>
      </g>
     </g>
    </g>
    <g id="ytick_3">
     <g id="line2d_19">
      <path clip-path="url(#p00088cdc6b)" d="M 46.965625 228.245731 
L 404.085625 228.245731 
" style="fill:none;stroke:#b0b0b0;stroke-dasharray:2.96,1.28;stroke-dashoffset:0;stroke-width:0.8;"/>
     </g>
     <g id="line2d_20">
      <g>
       <use style="stroke:#000000;stroke-width:0.8;" x="46.965625" xlink:href="#m99af2e194d" y="228.245731"/>
      </g>
     </g>
     <g id="text_11">
      <!-- 50 -->
      <g transform="translate(27.240625 232.04495)scale(0.1 -0.1)">
       <use xlink:href="#DejaVuSans-53"/>
       <use x="63.623047" xlink:href="#DejaVuSans-48"/>
      </g>
     </g>
    </g>
    <g id="ytick_4">
     <g id="line2d_21">
      <path clip-path="url(#p00088cdc6b)" d="M 46.965625 198.303281 
L 404.085625 198.303281 
" style="fill:none;stroke:#b0b0b0;stroke-dasharray:2.96,1.28;stroke-dashoffset:0;stroke-width:0.8;"/>
     </g>
     <g id="line2d_22">
      <g>
       <use style="stroke:#000000;stroke-width:0.8;" x="46.965625" xlink:href="#m99af2e194d" y="198.303281"/>
      </g>
     </g>
     <g id="text_12">
      <!-- 75 -->
      <defs>
       <path d="M 8.203125 72.90625 
L 55.078125 72.90625 
L 55.078125 68.703125 
L 28.609375 0 
L 18.3125 0 
L 43.21875 64.59375 
L 8.203125 64.59375 
z
" id="DejaVuSans-55"/>
      </defs>
      <g transform="translate(27.240625 202.1025)scale(0.1 -0.1)">
       <use xlink:href="#DejaVuSans-55"/>
       <use x="63.623047" xlink:href="#DejaVuSans-53"/>
      </g>
     </g>
    </g>
    <g id="ytick_5">
     <g id="line2d_23">
      <path clip-path="url(#p00088cdc6b)" d="M 46.965625 168.360831 
L 404.085625 168.360831 
" style="fill:none;stroke:#b0b0b0;stroke-dasharray:2.96,1.28;stroke-dashoffset:0;stroke-width:0.8;"/>
     </g>
     <g id="line2d_24">
      <g>
       <use style="stroke:#000000;stroke-width:0.8;" x="46.965625" xlink:href="#m99af2e194d" y="168.360831"/>
      </g>
     </g>
     <g id="text_13">
      <!-- 100 -->
      <g transform="translate(20.878125 172.16005)scale(0.1 -0.1)">
       <use xlink:href="#DejaVuSans-49"/>
       <use x="63.623047" xlink:href="#DejaVuSans-48"/>
       <use x="127.246094" xlink:href="#DejaVuSans-48"/>
      </g>
     </g>
    </g>
    <g id="ytick_6">
     <g id="line2d_25">
      <path clip-path="url(#p00088cdc6b)" d="M 46.965625 138.418381 
L 404.085625 138.418381 
" style="fill:none;stroke:#b0b0b0;stroke-dasharray:2.96,1.28;stroke-dashoffset:0;stroke-width:0.8;"/>
     </g>
     <g id="line2d_26">
      <g>
       <use style="stroke:#000000;stroke-width:0.8;" x="46.965625" xlink:href="#m99af2e194d" y="138.418381"/>
      </g>
     </g>
     <g id="text_14">
      <!-- 125 -->
      <g transform="translate(20.878125 142.2176)scale(0.1 -0.1)">
       <use xlink:href="#DejaVuSans-49"/>
       <use x="63.623047" xlink:href="#DejaVuSans-50"/>
       <use x="127.246094" xlink:href="#DejaVuSans-53"/>
      </g>
     </g>
    </g>
    <g id="ytick_7">
     <g id="line2d_27">
      <path clip-path="url(#p00088cdc6b)" d="M 46.965625 108.475931 
L 404.085625 108.475931 
" style="fill:none;stroke:#b0b0b0;stroke-dasharray:2.96,1.28;stroke-dashoffset:0;stroke-width:0.8;"/>
     </g>
     <g id="line2d_28">
      <g>
       <use style="stroke:#000000;stroke-width:0.8;" x="46.965625" xlink:href="#m99af2e194d" y="108.475931"/>
      </g>
     </g>
     <g id="text_15">
      <!-- 150 -->
      <g transform="translate(20.878125 112.27515)scale(0.1 -0.1)">
       <use xlink:href="#DejaVuSans-49"/>
       <use x="63.623047" xlink:href="#DejaVuSans-53"/>
       <use x="127.246094" xlink:href="#DejaVuSans-48"/>
      </g>
     </g>
    </g>
    <g id="ytick_8">
     <g id="line2d_29">
      <path clip-path="url(#p00088cdc6b)" d="M 46.965625 78.533481 
L 404.085625 78.533481 
" style="fill:none;stroke:#b0b0b0;stroke-dasharray:2.96,1.28;stroke-dashoffset:0;stroke-width:0.8;"/>
     </g>
     <g id="line2d_30">
      <g>
       <use style="stroke:#000000;stroke-width:0.8;" x="46.965625" xlink:href="#m99af2e194d" y="78.533481"/>
      </g>
     </g>
     <g id="text_16">
      <!-- 175 -->
      <g transform="translate(20.878125 82.3327)scale(0.1 -0.1)">
       <use xlink:href="#DejaVuSans-49"/>
       <use x="63.623047" xlink:href="#DejaVuSans-55"/>
       <use x="127.246094" xlink:href="#DejaVuSans-53"/>
      </g>
     </g>
    </g>
    <g id="ytick_9">
     <g id="line2d_31">
      <path clip-path="url(#p00088cdc6b)" d="M 46.965625 48.591031 
L 404.085625 48.591031 
" style="fill:none;stroke:#b0b0b0;stroke-dasharray:2.96,1.28;stroke-dashoffset:0;stroke-width:0.8;"/>
     </g>
     <g id="line2d_32">
      <g>
       <use style="stroke:#000000;stroke-width:0.8;" x="46.965625" xlink:href="#m99af2e194d" y="48.591031"/>
      </g>
     </g>
     <g id="text_17">
      <!-- 200 -->
      <g transform="translate(20.878125 52.39025)scale(0.1 -0.1)">
       <use xlink:href="#DejaVuSans-50"/>
       <use x="63.623047" xlink:href="#DejaVuSans-48"/>
       <use x="127.246094" xlink:href="#DejaVuSans-48"/>
      </g>
     </g>
    </g>
    <g id="text_18">
     <!-- Price $ -->
     <defs>
      <path d="M 19.671875 64.796875 
L 19.671875 37.40625 
L 32.078125 37.40625 
Q 38.96875 37.40625 42.71875 40.96875 
Q 46.484375 44.53125 46.484375 51.125 
Q 46.484375 57.671875 42.71875 61.234375 
Q 38.96875 64.796875 32.078125 64.796875 
z
M 9.8125 72.90625 
L 32.078125 72.90625 
Q 44.34375 72.90625 50.609375 67.359375 
Q 56.890625 61.8125 56.890625 51.125 
Q 56.890625 40.328125 50.609375 34.8125 
Q 44.34375 29.296875 32.078125 29.296875 
L 19.671875 29.296875 
L 19.671875 0 
L 9.8125 0 
z
" id="DejaVuSans-80"/>
      <path d="M 41.109375 46.296875 
Q 39.59375 47.171875 37.8125 47.578125 
Q 36.03125 48 33.890625 48 
Q 26.265625 48 22.1875 43.046875 
Q 18.109375 38.09375 18.109375 28.8125 
L 18.109375 0 
L 9.078125 0 
L 9.078125 54.6875 
L 18.109375 54.6875 
L 18.109375 46.1875 
Q 20.953125 51.171875 25.484375 53.578125 
Q 30.03125 56 36.53125 56 
Q 37.453125 56 38.578125 55.875 
Q 39.703125 55.765625 41.0625 55.515625 
z
" id="DejaVuSans-114"/>
      <path d="M 9.421875 54.6875 
L 18.40625 54.6875 
L 18.40625 0 
L 9.421875 0 
z
M 9.421875 75.984375 
L 18.40625 75.984375 
L 18.40625 64.59375 
L 9.421875 64.59375 
z
" id="DejaVuSans-105"/>
      <path d="M 48.78125 52.59375 
L 48.78125 44.1875 
Q 44.96875 46.296875 41.140625 47.34375 
Q 37.3125 48.390625 33.40625 48.390625 
Q 24.65625 48.390625 19.8125 42.84375 
Q 14.984375 37.3125 14.984375 27.296875 
Q 14.984375 17.28125 19.8125 11.734375 
Q 24.65625 6.203125 33.40625 6.203125 
Q 37.3125 6.203125 41.140625 7.25 
Q 44.96875 8.296875 48.78125 10.40625 
L 48.78125 2.09375 
Q 45.015625 0.34375 40.984375 -0.53125 
Q 36.96875 -1.421875 32.421875 -1.421875 
Q 20.0625 -1.421875 12.78125 6.34375 
Q 5.515625 14.109375 5.515625 27.296875 
Q 5.515625 40.671875 12.859375 48.328125 
Q 20.21875 56 33.015625 56 
Q 37.15625 56 41.109375 55.140625 
Q 45.0625 54.296875 48.78125 52.59375 
z
" id="DejaVuSans-99"/>
      <path d="M 56.203125 29.59375 
L 56.203125 25.203125 
L 14.890625 25.203125 
Q 15.484375 15.921875 20.484375 11.0625 
Q 25.484375 6.203125 34.421875 6.203125 
Q 39.59375 6.203125 44.453125 7.46875 
Q 49.3125 8.734375 54.109375 11.28125 
L 54.109375 2.78125 
Q 49.265625 0.734375 44.1875 -0.34375 
Q 39.109375 -1.421875 33.890625 -1.421875 
Q 20.796875 -1.421875 13.15625 6.1875 
Q 5.515625 13.8125 5.515625 26.8125 
Q 5.515625 40.234375 12.765625 48.109375 
Q 20.015625 56 32.328125 56 
Q 43.359375 56 49.78125 48.890625 
Q 56.203125 41.796875 56.203125 29.59375 
z
M 47.21875 32.234375 
Q 47.125 39.59375 43.09375 43.984375 
Q 39.0625 48.390625 32.421875 48.390625 
Q 24.90625 48.390625 20.390625 44.140625 
Q 15.875 39.890625 15.1875 32.171875 
z
" id="DejaVuSans-101"/>
      <path id="DejaVuSans-32"/>
      <path d="M 33.796875 -14.703125 
L 28.90625 -14.703125 
L 28.859375 0 
Q 23.734375 0.09375 18.609375 1.1875 
Q 13.484375 2.296875 8.296875 4.5 
L 8.296875 13.28125 
Q 13.28125 10.15625 18.375 8.5625 
Q 23.484375 6.984375 28.90625 6.9375 
L 28.90625 29.203125 
Q 18.109375 30.953125 13.203125 35.15625 
Q 8.296875 39.359375 8.296875 46.6875 
Q 8.296875 54.640625 13.625 59.21875 
Q 18.953125 63.8125 28.90625 64.5 
L 28.90625 75.984375 
L 33.796875 75.984375 
L 33.796875 64.65625 
Q 38.328125 64.453125 42.578125 63.6875 
Q 46.828125 62.9375 50.875 61.625 
L 50.875 53.078125 
Q 46.828125 55.125 42.546875 56.25 
Q 38.28125 57.375 33.796875 57.5625 
L 33.796875 36.71875 
Q 44.875 35.015625 50.09375 30.609375 
Q 55.328125 26.21875 55.328125 18.609375 
Q 55.328125 10.359375 49.78125 5.59375 
Q 44.234375 0.828125 33.796875 0.09375 
z
M 28.90625 37.59375 
L 28.90625 57.625 
Q 23.25 56.984375 20.265625 54.390625 
Q 17.28125 51.8125 17.28125 47.515625 
Q 17.28125 43.3125 20.03125 40.96875 
Q 22.796875 38.625 28.90625 37.59375 
z
M 33.796875 28.21875 
L 33.796875 7.078125 
Q 39.984375 7.90625 43.140625 10.59375 
Q 46.296875 13.28125 46.296875 17.671875 
Q 46.296875 21.96875 43.28125 24.5 
Q 40.28125 27.046875 33.796875 28.21875 
z
" id="DejaVuSans-36"/>
     </defs>
     <g transform="translate(14.798438 172.342094)rotate(-90)scale(0.1 -0.1)">
      <use xlink:href="#DejaVuSans-80"/>
      <use x="58.552734" xlink:href="#DejaVuSans-114"/>
      <use x="99.666016" xlink:href="#DejaVuSans-105"/>
      <use x="127.449219" xlink:href="#DejaVuSans-99"/>
      <use x="182.429688" xlink:href="#DejaVuSans-101"/>
      <use x="243.953125" xlink:href="#DejaVuSans-32"/>
      <use x="275.740234" xlink:href="#DejaVuSans-36"/>
     </g>
    </g>
   </g>
   <g id="line2d_33">
    <path clip-path="url(#p00088cdc6b)" d="M 63.198352 276.334125 
L 63.687658 268.439933 
L 64.176964 265.56264 
L 64.421617 264.813929 
L 64.66627 264.478836 
L 64.910923 264.590462 
L 65.155576 264.929701 
L 65.400229 264.872874 
L 65.644882 265.533716 
L 65.889535 265.869615 
L 66.378841 267.367602 
L 66.623494 267.533317 
L 67.1128 268.642294 
L 67.846759 270.130989 
L 68.091412 270.014692 
L 68.336066 270.501584 
L 68.580719 270.712435 
L 68.825372 270.774263 
L 69.070025 271.162114 
L 69.314678 271.225723 
L 69.559331 272.145685 
L 69.803984 272.108674 
L 70.048637 271.620423 
L 70.29329 272.012927 
L 70.537943 272.152181 
L 71.516555 271.462815 
L 71.761208 271.914987 
L 72.250514 271.61436 
L 72.495167 271.734442 
L 72.984473 271.676803 
L 73.473779 272.25577 
L 73.963085 272.069709 
L 74.207738 272.335488 
L 74.452391 272.277941 
L 74.697044 272.435657 
L 74.941697 271.742488 
L 75.18635 272.125827 
L 75.431003 272.281928 
L 75.920309 272.883285 
L 76.164962 272.801587 
L 76.409615 272.935298 
L 76.654268 272.745435 
L 76.898921 272.303073 
L 77.388227 272.661546 
L 77.63288 273.560359 
L 77.877533 273.730537 
L 78.122186 273.302201 
L 78.366839 273.49582 
L 78.611492 273.485641 
L 79.100798 273.740065 
L 79.345451 273.046276 
L 79.590104 273.117462 
L 79.834757 272.481292 
L 80.07941 272.490605 
L 80.324063 272.967309 
L 80.568716 272.882295 
L 81.058022 273.805568 
L 81.302675 273.903887 
L 81.547328 274.254244 
L 81.791981 274.19778 
L 82.036634 274.452407 
L 82.281287 274.071877 
L 82.52594 274.325003 
L 82.770593 273.93089 
L 83.015246 273.834968 
L 83.259899 273.582556 
L 83.749205 273.39947 
L 83.993858 273.661237 
L 84.238511 273.744185 
L 84.483164 274.007549 
L 84.727817 273.588777 
L 84.97247 273.756426 
L 85.461776 273.756802 
L 85.951082 272.929009 
L 86.195735 273.082715 
L 87.663653 272.932414 
L 87.908306 273.279494 
L 88.397612 273.412945 
L 88.886918 273.583115 
L 89.131571 273.392619 
L 89.376224 272.841862 
L 89.620877 272.828698 
L 89.86553 272.323793 
L 90.354836 273.110364 
L 90.599489 273.445717 
L 91.333449 273.461646 
L 91.578102 273.726587 
L 92.067408 273.405844 
L 92.556714 273.574199 
L 93.04602 273.478728 
L 93.535326 272.974376 
L 93.779979 273.296411 
L 94.513938 273.259477 
L 94.758591 273.511031 
L 95.003244 273.176004 
L 95.49255 273.355516 
L 96.226509 273.187226 
L 96.471162 273.258787 
L 96.715815 272.827248 
L 96.960468 272.826143 
L 97.694427 273.352101 
L 97.93908 273.077225 
L 98.183733 273.341031 
L 98.428386 273.257822 
L 98.673039 272.982625 
L 99.162345 272.849693 
L 99.406998 272.92067 
L 99.651651 272.740213 
L 101.608875 272.928874 
L 102.098181 273.133646 
L 102.342834 272.954781 
L 102.587487 273.194851 
L 102.83214 273.123745 
L 103.076793 273.208183 
L 103.566099 272.921385 
L 103.810752 272.705269 
L 104.055405 273.207545 
L 104.544711 273.544069 
L 104.789364 273.413616 
L 105.034017 273.15098 
L 105.27867 273.187075 
L 105.767976 272.706846 
L 106.012629 272.777247 
L 106.257282 272.392415 
L 106.501935 272.71391 
L 106.746588 272.545028 
L 107.480547 273.011761 
L 107.7252 272.988697 
L 108.459159 271.932649 
L 108.703812 272.002102 
L 109.193118 271.566266 
L 109.437771 271.707601 
L 109.927077 271.440496 
L 110.17173 271.486913 
L 110.416383 271.701582 
L 110.661036 271.401818 
L 110.905689 271.389239 
L 111.150342 270.633675 
L 111.394995 270.990825 
L 111.884301 270.436164 
L 112.128954 270.517728 
L 112.373607 270.228263 
L 112.61826 270.262059 
L 112.862913 270.16445 
L 113.107566 270.786045 
L 113.35222 270.510766 
L 114.086179 270.739674 
L 114.330832 270.512747 
L 114.575485 270.704605 
L 115.064791 270.705402 
L 115.309444 271.077171 
L 115.554097 270.970418 
L 115.79875 270.731582 
L 116.043403 270.743637 
L 116.532709 271.211445 
L 116.777362 270.828936 
L 117.022015 270.852905 
L 117.266668 270.684959 
L 117.511321 270.792137 
L 117.755974 270.264379 
L 118.000627 270.742045 
L 118.24528 270.777479 
L 118.489933 271.124914 
L 118.734586 271.006059 
L 119.468545 271.225001 
L 120.447157 270.987644 
L 120.69181 271.083178 
L 120.936463 270.9871 
L 121.425769 270.518319 
L 122.404381 270.536792 
L 122.649034 270.608042 
L 122.893687 270.979351 
L 124.361605 271.068948 
L 124.606258 270.781859 
L 124.850911 270.745569 
L 125.340217 270.360172 
L 125.58487 270.274642 
L 125.829523 270.536566 
L 126.074176 270.54773 
L 126.318829 270.427491 
L 126.808135 270.822853 
L 127.052788 270.763795 
L 127.297441 270.033545 
L 127.786747 269.838879 
L 128.0314 270.124509 
L 129.254665 270.074468 
L 129.499318 270.302045 
L 130.47793 270.352183 
L 130.967236 270.136819 
L 131.211889 270.208347 
L 132.190501 269.219794 
L 132.679807 269.083075 
L 133.413766 268.934141 
L 133.903072 269.280369 
L 134.392378 269.185533 
L 135.860297 269.596397 
L 136.10495 269.345548 
L 136.349603 269.345653 
L 136.594256 269.501343 
L 136.838909 269.789141 
L 137.083562 269.598316 
L 137.328215 269.742604 
L 137.572868 269.467679 
L 137.817521 269.563473 
L 138.062174 269.335752 
L 138.306827 269.299159 
L 138.55148 269.082656 
L 138.796133 269.033433 
L 139.040786 269.127965 
L 139.530092 269.594578 
L 140.019398 269.800537 
L 140.99801 269.745202 
L 141.242663 270.272878 
L 141.487316 270.298335 
L 141.731969 270.180038 
L 141.976622 270.61251 
L 142.221275 269.391989 
L 142.710581 269.208493 
L 142.955234 268.678685 
L 143.199887 268.591226 
L 143.44454 268.647668 
L 143.933846 269.518805 
L 144.178499 269.795298 
L 144.423152 269.653585 
L 144.667805 269.835247 
L 144.912458 269.441905 
L 145.401764 269.214998 
L 145.646417 269.334249 
L 145.89107 269.154046 
L 146.135723 269.165171 
L 146.380376 268.900729 
L 147.114335 269.798159 
L 147.358988 269.380241 
L 147.603641 269.560572 
L 147.848294 269.920853 
L 148.092947 270.030235 
L 148.582253 269.925596 
L 148.826906 269.674897 
L 149.071559 269.602988 
L 149.316212 269.230983 
L 149.805518 269.071675 
L 150.050171 269.249518 
L 150.294824 269.140502 
L 150.539477 268.887835 
L 150.78413 268.826574 
L 151.273436 269.24411 
L 152.007395 268.416635 
L 152.252048 269.146065 
L 152.496701 269.170292 
L 152.741354 269.614386 
L 152.986007 269.041111 
L 153.475313 268.777745 
L 153.719966 268.860897 
L 154.209272 268.811613 
L 154.453925 268.882936 
L 154.698578 269.37399 
L 154.943231 269.494915 
L 155.187884 269.316768 
L 155.432537 269.497656 
L 155.67719 269.187401 
L 155.921843 269.211699 
L 156.166496 269.46341 
L 156.411149 269.356065 
L 156.655802 269.524059 
L 157.634414 268.551797 
L 158.368374 266.551617 
L 158.613027 266.557225 
L 158.85768 266.26395 
L 159.102333 265.49177 
L 159.346986 265.653508 
L 159.591639 265.32531 
L 159.836292 265.524773 
L 160.080945 265.557976 
L 160.570251 265.951449 
L 160.814904 266.059915 
L 161.30421 265.642359 
L 161.548863 265.953887 
L 161.793516 265.978336 
L 162.038169 266.302358 
L 162.282822 266.08785 
L 162.527475 266.028554 
L 162.772128 266.723763 
L 163.261434 266.631083 
L 163.75074 265.757361 
L 164.240046 265.765904 
L 164.729352 265.870931 
L 165.218658 266.661748 
L 165.707964 266.521329 
L 165.952617 265.635963 
L 166.19727 265.77867 
L 166.441923 265.537761 
L 166.686576 266.230878 
L 166.931229 266.158877 
L 167.175882 265.380198 
L 167.420535 265.40266 
L 167.909841 266.263669 
L 168.399147 265.86998 
L 168.888453 265.738385 
L 169.867065 264.895162 
L 170.111718 265.527947 
L 170.356371 265.623289 
L 170.601024 265.575629 
L 170.845677 265.839713 
L 171.09033 265.721071 
L 171.334983 265.889752 
L 171.579636 265.65126 
L 171.824289 266.107019 
L 172.068942 266.084296 
L 172.313595 265.809829 
L 172.558248 266.349316 
L 172.802901 265.715517 
L 173.292207 266.290652 
L 173.781513 266.460232 
L 174.026166 265.766368 
L 174.270819 266.125148 
L 174.760125 266.028889 
L 175.004778 265.824817 
L 175.494084 265.235064 
L 176.717349 265.34739 
L 177.695961 265.022626 
L 178.185267 264.577376 
L 179.163879 264.488053 
L 179.408532 265.026359 
L 180.142491 265.893618 
L 180.387144 265.669012 
L 180.631798 265.97082 
L 180.876451 265.949256 
L 181.365757 265.508719 
L 181.61041 265.59241 
L 181.855063 265.388335 
L 182.344369 265.746236 
L 182.589022 265.075218 
L 182.833675 265.205604 
L 183.078328 265.144499 
L 183.322981 264.85578 
L 183.567634 264.758312 
L 184.05694 264.839179 
L 184.301593 265.868775 
L 184.546246 265.738882 
L 184.790899 265.836854 
L 185.035552 266.306438 
L 185.280205 266.273596 
L 185.524858 266.659766 
L 185.769511 266.746764 
L 186.014164 266.677713 
L 186.258817 266.320332 
L 186.50347 267.015928 
L 186.748123 266.789921 
L 187.726735 267.06806 
L 187.971388 265.223464 
L 188.460694 265.335531 
L 188.705347 265.200005 
L 188.95 265.448257 
L 189.439306 264.845168 
L 189.683959 264.759151 
L 190.417918 265.103287 
L 190.662571 265.067493 
L 190.907224 264.660349 
L 191.151877 264.923271 
L 191.641183 264.658931 
L 191.885836 264.598305 
L 192.130489 264.381814 
L 192.375142 263.961203 
L 192.619795 264.030938 
L 193.109101 264.543169 
L 193.353754 264.459349 
L 193.84306 265.047625 
L 194.087713 265.360975 
L 194.332366 265.028022 
L 194.577019 265.017619 
L 194.821672 264.671194 
L 195.310978 265.330467 
L 195.555631 265.427273 
L 195.800284 265.296631 
L 196.044937 265.788647 
L 196.534243 265.779861 
L 196.778896 265.865079 
L 197.268202 266.179378 
L 197.512855 266.132974 
L 198.002161 266.494776 
L 198.246814 266.100835 
L 198.491467 266.520575 
L 198.73612 267.803716 
L 198.980773 267.867657 
L 199.470079 267.095927 
L 199.959385 267.121468 
L 200.204038 266.941734 
L 200.448691 266.042379 
L 200.693344 266.554695 
L 200.937997 266.073507 
L 201.18265 265.843252 
L 201.427303 265.828458 
L 201.671956 265.298805 
L 202.161262 265.580882 
L 202.405915 264.56096 
L 202.895221 263.846742 
L 203.384528 263.730791 
L 203.629181 264.242817 
L 203.873834 263.966037 
L 204.36314 264.420473 
L 204.607793 264.529176 
L 204.852446 264.242887 
L 205.097099 264.351286 
L 205.341752 263.788674 
L 205.586405 263.979423 
L 205.831058 263.583204 
L 206.565017 263.301694 
L 206.80967 262.892427 
L 207.054323 262.818091 
L 207.298976 263.283052 
L 207.543629 263.246286 
L 207.788282 262.610944 
L 208.032935 262.837121 
L 208.277588 262.692402 
L 208.522241 263.014871 
L 208.766894 263.098642 
L 209.011547 263.650171 
L 209.2562 263.663956 
L 209.500853 264.420776 
L 209.745506 264.496226 
L 209.990159 264.775391 
L 210.234812 263.820564 
L 210.479465 263.72556 
L 210.724118 263.485562 
L 210.968771 263.052752 
L 211.458077 263.299299 
L 211.947383 263.30824 
L 212.192036 263.535101 
L 212.436689 263.918615 
L 212.681342 263.824069 
L 212.925995 264.232749 
L 213.170648 264.953812 
L 213.415301 265.017464 
L 213.659954 264.158516 
L 213.904607 264.063848 
L 214.14926 264.36343 
L 214.393913 264.399561 
L 214.638566 264.303826 
L 214.883219 264.471394 
L 215.127872 264.040195 
L 215.372525 263.967481 
L 216.106484 263.135053 
L 216.351137 263.252138 
L 216.59579 264.424311 
L 216.840443 264.809011 
L 217.085096 264.248851 
L 217.329749 264.945725 
L 217.819055 263.860197 
L 218.063708 263.79996 
L 218.308361 263.415438 
L 218.797667 263.530967 
L 219.04232 262.846306 
L 219.286973 263.011146 
L 219.531626 261.223589 
L 220.020932 261.115892 
L 220.265585 261.422103 
L 220.510238 261.346711 
L 220.754891 261.152558 
L 220.999544 261.366251 
L 221.244197 261.185703 
L 221.48885 261.388702 
L 221.733503 261.316882 
L 221.978156 261.48476 
L 222.222809 260.850347 
L 222.467462 261.340724 
L 222.712115 261.041231 
L 222.956768 260.525519 
L 223.201421 260.895169 
L 223.446074 260.822266 
L 223.690727 260.354106 
L 224.424686 260.709891 
L 224.913992 260.049923 
L 225.158645 260.503656 
L 225.647952 259.783236 
L 225.892605 260.69205 
L 226.137258 261.063883 
L 226.381911 262.695041 
L 226.626564 262.796614 
L 226.871217 262.299647 
L 227.11587 262.19628 
L 227.360523 262.846265 
L 227.849829 262.696377 
L 228.094482 261.979107 
L 228.583788 261.545183 
L 228.828441 260.943557 
L 229.073094 260.652187 
L 229.5624 261.12407 
L 229.807053 260.79884 
L 230.051706 260.964922 
L 230.296359 261.31159 
L 230.785665 261.492966 
L 231.030318 261.18288 
L 231.519624 261.519534 
L 232.00893 261.197303 
L 232.253583 261.38886 
L 232.498236 261.317105 
L 232.742889 260.658116 
L 232.987542 260.824265 
L 233.232195 261.517767 
L 233.476848 261.434265 
L 233.721501 260.967617 
L 233.966154 262.968084 
L 234.210807 263.199791 
L 235.189419 262.410742 
L 235.434072 262.446977 
L 235.678725 262.7224 
L 235.923378 262.722654 
L 236.168031 262.902631 
L 236.412684 262.939222 
L 236.657337 263.095722 
L 236.90199 261.766823 
L 237.146643 261.405272 
L 237.391296 261.413814 
L 237.635949 261.110867 
L 238.125255 261.920117 
L 238.369908 261.452515 
L 238.614561 261.248097 
L 238.859214 261.858119 
L 239.103867 261.726843 
L 239.34852 262.194664 
L 239.593173 261.920768 
L 239.837826 262.628752 
L 240.082479 262.679128 
L 240.816438 261.640851 
L 241.305744 261.841758 
L 241.550397 262.499594 
L 241.79505 262.75183 
L 242.039703 262.561758 
L 242.529009 263.823469 
L 242.773662 263.839386 
L 243.018315 263.495723 
L 243.262968 263.47418 
L 244.24158 264.692174 
L 244.486233 264.287558 
L 244.730886 264.133228 
L 244.975539 264.121703 
L 245.220192 264.289414 
L 245.464845 263.762331 
L 245.709498 263.904961 
L 245.954151 264.347319 
L 246.198804 264.239701 
L 246.443457 264.695285 
L 246.68811 264.409152 
L 247.177416 264.818758 
L 247.666722 264.029647 
L 247.911375 263.968835 
L 248.156029 264.051412 
L 248.400682 263.642942 
L 248.645335 263.545243 
L 248.889988 263.291682 
L 249.134641 263.445183 
L 249.379294 260.412243 
L 249.623947 259.445577 
L 249.8686 259.578636 
L 250.113253 259.497061 
L 250.357906 259.728563 
L 250.602559 259.698992 
L 250.847212 259.874962 
L 251.091865 260.244525 
L 251.336518 260.352488 
L 252.070477 263.094807 
L 252.31513 263.61769 
L 252.559783 261.792816 
L 252.804436 260.813218 
L 253.049089 260.691941 
L 253.293742 260.98823 
L 253.538395 262.087471 
L 253.783048 261.308519 
L 254.027701 261.235462 
L 254.272354 261.85727 
L 254.517007 260.74344 
L 254.76166 261.280832 
L 255.006313 260.860795 
L 255.495619 260.726206 
L 256.229578 259.97832 
L 256.474231 260 
L 256.718884 259.710548 
L 256.963537 260.475176 
L 257.20819 260.343337 
L 257.452843 259.816465 
L 257.697496 259.612104 
L 257.942149 259.982254 
L 258.186802 259.490638 
L 258.431455 258.363213 
L 258.676108 258.934506 
L 259.165414 257.430679 
L 259.65472 256.701539 
L 259.899373 256.516478 
L 260.144026 256.63144 
L 260.388679 256.292462 
L 260.633332 256.229367 
L 260.877985 255.076819 
L 261.122638 254.988681 
L 261.367291 254.469422 
L 261.856597 254.568846 
L 262.10125 254.997278 
L 262.345903 253.810326 
L 262.590556 253.579982 
L 262.835209 253.732603 
L 263.079862 253.754116 
L 263.324515 253.476786 
L 263.569168 254.660803 
L 263.813821 253.835266 
L 264.058474 253.439911 
L 264.303127 253.678476 
L 264.792433 254.624736 
L 265.037086 250.026684 
L 265.281739 250.186595 
L 265.526392 250.896413 
L 265.771045 251.248889 
L 266.015698 251.376118 
L 266.260351 252.092184 
L 266.505004 251.373672 
L 266.749657 251.373408 
L 266.99431 250.618728 
L 267.238963 250.509407 
L 267.483616 250.184101 
L 267.728269 250.74458 
L 267.972922 250.444011 
L 268.217575 250.490735 
L 268.706881 249.782066 
L 268.951534 248.546536 
L 269.196187 248.841716 
L 269.44084 248.92184 
L 269.685493 247.337947 
L 269.930146 248.099195 
L 270.174799 247.556728 
L 270.419452 248.57122 
L 270.664106 248.247037 
L 270.908759 248.833501 
L 271.153412 248.738861 
L 271.642718 248.021953 
L 272.132024 249.255504 
L 272.376677 248.347045 
L 272.865983 248.167119 
L 273.110636 248.022483 
L 273.355289 248.057131 
L 273.599942 247.409217 
L 274.089248 248.26777 
L 274.333901 248.974306 
L 274.578554 248.353324 
L 275.06786 251.484229 
L 275.312513 252.269899 
L 275.557166 252.218703 
L 275.801819 251.627619 
L 276.535778 255.321172 
L 277.269737 254.51656 
L 277.51439 253.741135 
L 277.759043 253.777105 
L 278.003696 253.440594 
L 278.493002 254.215432 
L 278.737655 252.729794 
L 278.982308 252.71491 
L 279.226961 254.197185 
L 279.471614 254.02992 
L 279.716267 254.019035 
L 280.205573 257.60799 
L 280.450226 257.294019 
L 280.939532 257.53751 
L 281.184185 257.028359 
L 281.428838 255.522199 
L 281.673491 254.718004 
L 281.918144 251.862237 
L 282.162797 251.371741 
L 282.40745 250.065429 
L 282.652103 249.955615 
L 282.896756 249.679854 
L 283.141409 249.585903 
L 283.386062 249.82984 
L 283.630715 249.849153 
L 283.875368 250.205973 
L 284.120021 248.540809 
L 284.364674 248.310634 
L 284.609327 248.654898 
L 284.85398 248.772572 
L 285.098633 249.022843 
L 285.343286 249.729279 
L 285.832592 249.816738 
L 286.077245 249.171984 
L 286.321898 249.076541 
L 286.566551 249.267724 
L 286.811204 248.117489 
L 287.055857 248.450066 
L 287.30051 247.261922 
L 287.545163 247.137716 
L 287.789816 247.205021 
L 288.034469 246.506568 
L 288.279122 246.442403 
L 288.523775 246.019501 
L 289.013081 244.897737 
L 289.257734 245.048922 
L 289.502387 244.422671 
L 289.74704 244.838094 
L 289.991693 244.895706 
L 290.236346 244.834568 
L 290.480999 245.276971 
L 290.970305 244.738991 
L 291.214958 244.786753 
L 291.459611 243.708735 
L 291.704264 243.586697 
L 291.948917 243.236593 
L 292.19357 243.424879 
L 292.438223 244.212625 
L 292.682876 244.044438 
L 292.92753 244.092316 
L 293.172183 244.260366 
L 293.416836 244.04564 
L 293.661489 244.010169 
L 293.906142 243.016424 
L 294.395448 245.146529 
L 294.640101 244.585933 
L 294.884754 245.102441 
L 295.129407 246.074637 
L 295.37406 245.826927 
L 295.618713 245.398984 
L 295.863366 245.460573 
L 296.108019 244.647212 
L 296.352672 244.526357 
L 296.597325 245.111257 
L 296.841978 238.631604 
L 297.086631 237.170203 
L 297.331284 237.045969 
L 297.575937 235.736977 
L 297.82059 235.494149 
L 298.065243 234.547486 
L 298.309896 234.452693 
L 298.554549 233.295058 
L 298.799202 233.515121 
L 299.533161 231.646911 
L 299.777814 231.535348 
L 300.022467 231.136879 
L 300.26712 231.923728 
L 300.511773 232.209642 
L 300.756426 232.101864 
L 301.001079 232.281825 
L 301.245732 230.846034 
L 301.490385 232.25722 
L 301.735038 231.551038 
L 301.979691 231.442677 
L 302.224344 230.867097 
L 302.468997 230.637733 
L 302.71365 231.628988 
L 302.958303 230.622696 
L 303.202956 230.968256 
L 303.447609 231.015081 
L 303.692262 229.506033 
L 303.936915 232.807353 
L 304.181568 233.396053 
L 304.915527 231.286003 
L 305.16018 231.704456 
L 305.404833 230.877805 
L 305.649486 230.51668 
L 305.894139 229.029513 
L 306.383445 225.269331 
L 306.628098 224.325261 
L 306.872751 224.33839 
L 307.117404 223.682925 
L 307.362057 224.417344 
L 307.60671 224.089602 
L 308.096016 222.588383 
L 308.340669 223.782686 
L 308.829975 220.835843 
L 309.074628 219.695164 
L 309.319281 220.37211 
L 309.563934 220.22433 
L 309.808587 219.120013 
L 310.05324 219.559138 
L 310.297893 220.382313 
L 310.542546 220.202129 
L 311.031852 217.795523 
L 311.276505 217.146369 
L 311.521158 216.962842 
L 311.765811 217.413492 
L 312.010464 215.986476 
L 312.255117 211.985882 
L 312.49977 212.049649 
L 312.744423 212.495916 
L 312.989076 214.22424 
L 313.233729 213.084646 
L 313.723035 212.579259 
L 313.967688 212.111773 
L 314.212341 213.271391 
L 314.456994 213.762335 
L 314.701647 213.165532 
L 314.9463 213.214492 
L 315.435607 213.993978 
L 315.68026 211.829367 
L 315.924913 212.569836 
L 316.169566 211.862301 
L 316.414219 212.972816 
L 316.658872 212.433336 
L 316.903525 216.165662 
L 317.148178 214.697347 
L 317.392831 215.753556 
L 317.637484 215.123189 
L 317.882137 212.385657 
L 318.12679 212.204702 
L 318.371443 211.208189 
L 318.616096 211.897296 
L 318.860749 209.775368 
L 319.105402 209.578608 
L 319.350055 209.6572 
L 319.594708 210.382962 
L 319.839361 207.748644 
L 320.084014 207.45808 
L 320.328667 206.712618 
L 320.57332 205.368784 
L 321.307279 205.704552 
L 321.796585 207.354496 
L 322.041238 207.057404 
L 322.285891 208.220062 
L 322.530544 207.864188 
L 322.775197 209.158887 
L 323.01985 208.396384 
L 323.264503 208.853144 
L 323.509156 207.658356 
L 323.753809 207.825658 
L 323.998462 206.317215 
L 324.243115 206.541745 
L 324.487768 202.746216 
L 324.732421 201.352152 
L 324.977074 200.99702 
L 325.221727 202.759442 
L 325.46638 202.898018 
L 325.711033 202.177955 
L 325.955686 204.700931 
L 326.200339 205.04982 
L 326.444992 206.010551 
L 326.689645 206.482 
L 326.934298 202.060839 
L 327.178951 202.192749 
L 327.423604 203.626066 
L 327.668257 206.244093 
L 327.91291 182.081624 
L 328.157563 187.243911 
L 328.402216 184.173863 
L 328.646869 177.648932 
L 329.136175 175.545549 
L 329.380828 175.98832 
L 329.625481 175.180739 
L 330.114787 174.569473 
L 330.35944 174.631726 
L 330.848746 176.922372 
L 331.093399 182.378119 
L 331.338052 181.415836 
L 331.582705 177.322095 
L 332.072011 173.511905 
L 332.80597 180.049864 
L 333.050623 178.159547 
L 333.295276 171.847349 
L 333.784582 167.105536 
L 334.029235 165.639732 
L 334.273888 161.400824 
L 334.518541 160.604806 
L 334.763194 159.068184 
L 335.007847 155.872047 
L 335.2525 146.858301 
L 335.497153 156.498835 
L 335.741806 153.88827 
L 336.231112 165.143306 
L 336.475765 162.302197 
L 336.720418 165.474804 
L 336.965071 163.853949 
L 337.209724 158.862405 
L 337.454377 159.83124 
L 337.943684 163.443452 
L 338.188337 163.450651 
L 338.43299 166.219602 
L 338.922296 161.375788 
L 339.166949 162.748007 
L 339.411602 161.453843 
L 339.656255 158.773762 
L 339.900908 158.220611 
L 340.390214 153.456509 
L 340.634867 155.543312 
L 340.87952 156.5421 
L 341.124173 150.839542 
L 341.368826 149.118256 
L 341.613479 150.322676 
L 342.102785 144.642141 
L 342.347438 145.260566 
L 342.836744 151.212766 
L 343.081397 157.468817 
L 343.570703 156.727061 
L 343.815356 158.819705 
L 344.060009 158.844126 
L 344.304662 154.256442 
L 344.549315 154.626534 
L 344.793968 166.893144 
L 345.038621 165.728542 
L 345.283274 162.204386 
L 345.527927 165.707911 
L 345.77258 164.143357 
L 346.017233 168.673632 
L 346.506539 170.266558 
L 346.751192 168.991416 
L 346.995845 169.210244 
L 347.240498 169.236889 
L 347.485151 168.545873 
L 347.729804 165.284944 
L 347.974457 165.369435 
L 348.21911 164.448489 
L 348.463763 162.941797 
L 348.708416 160.24017 
L 348.953069 156.200203 
L 349.197722 160.428797 
L 349.442375 157.84486 
L 349.687028 159.015492 
L 349.931681 158.56142 
L 350.176334 157.630546 
L 350.66564 158.720654 
L 350.910293 156.260529 
L 351.399599 157.480829 
L 351.644252 166.561301 
L 351.888905 167.456934 
L 352.133558 166.588606 
L 352.378211 167.10794 
L 352.622864 170.171722 
L 352.867517 169.756999 
L 353.11217 170.728619 
L 353.356823 172.906452 
L 353.601476 168.439041 
L 353.846129 168.369305 
L 354.090782 167.90267 
L 354.335435 166.012743 
L 354.580088 165.508662 
L 355.069394 161.846673 
L 355.314047 162.704744 
L 355.5587 160.766409 
L 355.803353 162.366454 
L 356.048006 159.569243 
L 356.292659 163.345791 
L 356.537312 162.425709 
L 356.781965 162.905581 
L 357.026618 162.895758 
L 357.271271 164.200469 
L 357.515924 163.999206 
L 357.760577 142.074257 
L 358.00523 135.853194 
L 358.249883 134.188012 
L 358.494536 126.51012 
L 358.739189 123.517955 
L 358.983842 134.367535 
L 359.473148 124.46499 
L 359.717801 121.001649 
L 359.962454 123.233151 
L 360.207107 121.387114 
L 360.451761 121.748902 
L 360.941067 113.833101 
L 361.18572 114.438306 
L 361.430373 114.403186 
L 361.675026 115.234402 
L 361.919679 109.9852 
L 362.164332 110.752423 
L 362.408985 108.587088 
L 362.653638 95.629814 
L 362.898291 107.927553 
L 363.142944 107.414842 
L 363.387597 105.633834 
L 363.63225 105.172646 
L 363.876903 104.308472 
L 364.121556 105.10406 
L 364.366209 98.191289 
L 364.610862 98.345974 
L 364.855515 95.363609 
L 365.100168 96.510355 
L 365.344821 101.726653 
L 365.589474 103.494211 
L 365.834127 109.869408 
L 366.07878 103.402643 
L 366.323433 109.127699 
L 366.568086 111.28851 
L 366.812739 117.121182 
L 367.057392 112.253788 
L 367.302045 111.308486 
L 367.546698 106.967752 
L 367.791351 98.296746 
L 368.036004 95.352887 
L 368.280657 87.166822 
L 368.52531 89.1945 
L 368.769963 83.891866 
L 369.014616 84.638692 
L 369.259269 82.559168 
L 369.503922 83.57989 
L 369.748575 80.741957 
L 369.993228 80.071639 
L 370.237881 82.441318 
L 370.482534 83.432824 
L 370.727187 81.196282 
L 370.97184 87.802251 
L 371.216493 84.659667 
L 371.461146 86.917812 
L 371.705799 84.573041 
L 371.950452 84.710255 
L 372.195105 82.238801 
L 372.439758 81.391446 
L 372.684411 75.297876 
L 372.929064 77.77379 
L 373.173717 75.639255 
L 373.663023 94.845798 
L 373.907676 79.994982 
L 374.396982 83.882494 
L 374.641635 88.255247 
L 374.886288 88.199827 
L 375.130941 90.980554 
L 375.620247 83.052269 
L 375.8649 83.79441 
L 376.109553 85.445524 
L 376.354206 84.066981 
L 376.598859 84.394177 
L 376.843512 83.231914 
L 377.088165 78.767218 
L 377.332818 77.57666 
L 377.577471 83.008646 
L 377.822124 83.121343 
L 378.066777 82.200023 
L 378.31143 85.636106 
L 378.556083 79.307099 
L 379.045389 77.705625 
L 379.290042 78.872446 
L 379.779348 57.347566 
L 380.024001 57.659279 
L 380.268654 59.506733 
L 380.513307 65.575832 
L 380.75796 67.663206 
L 381.002613 77.161696 
L 381.247266 75.970874 
L 381.491919 71.455729 
L 381.736572 71.509664 
L 381.981225 67.831683 
L 382.225878 67.5706 
L 382.470531 67.141112 
L 382.715184 65.366919 
L 382.959838 65.499642 
L 383.204491 64.878795 
L 383.693797 55.840778 
L 383.93845 53.485851 
L 384.183103 53.413225 
L 384.672409 45.267384 
L 385.161715 45.748633 
L 385.406368 45.50349 
L 385.651021 46.584738 
L 385.895674 46.919944 
L 386.140327 44.469855 
L 386.38498 50.446193 
L 386.629633 48.013824 
L 386.874286 40.673642 
L 387.118939 38.345625 
L 387.363592 34.8432 
L 387.608245 34.414125 
L 387.852898 35.938158 
L 387.852898 35.938158 
" style="fill:none;stroke:#1f77b4;stroke-linecap:square;stroke-width:1.5;"/>
   </g>
   <g id="line2d_34">
    <path clip-path="url(#p00088cdc6b)" d="M 63.198352 272.165316 
L 63.443005 271.9138 
L 63.687658 272.093454 
L 63.932311 272.03357 
L 64.66627 271.183204 
L 64.910923 271.087388 
L 65.155576 270.512493 
L 65.400229 270.620286 
L 65.644882 270.392723 
L 66.134188 270.787964 
L 66.378841 270.428654 
L 66.623494 270.584355 
L 67.357453 270.596332 
L 67.602106 271.003549 
L 67.846759 270.64424 
L 68.091412 270.943664 
L 68.580719 270.979595 
L 68.825372 271.302974 
L 69.070025 271.326928 
L 69.314678 272.225201 
L 69.559331 272.177293 
L 69.803984 271.686237 
L 70.048637 272.081477 
L 70.29329 272.225201 
L 71.271902 271.55449 
L 71.516555 272.009616 
L 72.005861 271.710191 
L 72.250514 271.829961 
L 72.73982 271.770076 
L 73.229126 272.344971 
L 73.718432 272.153339 
L 73.963085 272.416833 
L 74.207738 272.356948 
L 74.452391 272.512649 
L 74.697044 271.817984 
L 74.941697 272.201247 
L 75.18635 272.356948 
L 75.675656 272.955797 
L 75.920309 272.871958 
L 76.164962 273.003705 
L 76.409615 272.812073 
L 76.654268 272.368925 
L 77.143574 272.728234 
L 77.388227 273.626508 
L 77.63288 273.794186 
L 77.877533 273.363014 
L 78.122186 273.554646 
L 78.366839 273.542669 
L 78.856145 273.794186 
L 79.100798 273.099521 
L 79.345451 273.171383 
L 79.590104 272.536603 
L 79.834757 272.54858 
L 80.07941 273.027659 
L 80.324063 272.94382 
L 80.813369 273.866047 
L 81.058022 273.961863 
L 81.302675 274.309196 
L 81.547328 274.249311 
L 81.791981 274.500827 
L 82.036634 274.117564 
L 82.281287 274.369081 
L 82.52594 273.97384 
L 82.770593 273.878024 
L 83.015246 273.626508 
L 83.504552 273.446853 
L 83.749205 273.710347 
L 83.993858 273.794186 
L 84.238511 274.057679 
L 84.483164 273.638485 
L 84.727817 273.806163 
L 85.217123 273.806163 
L 85.706429 272.979751 
L 85.951082 273.135452 
L 87.419 272.991728 
L 87.663653 273.33906 
L 88.152959 273.470807 
L 88.642265 273.638485 
L 88.886918 273.446853 
L 89.131571 272.895912 
L 89.376224 272.883935 
L 89.620877 272.380902 
L 90.110183 273.171383 
L 90.354836 273.506738 
L 91.088796 273.518715 
L 91.333449 273.782209 
L 91.822755 273.45883 
L 92.312061 273.626508 
L 92.801367 273.530692 
L 93.290673 273.027659 
L 93.535326 273.351037 
L 94.269285 273.315106 
L 94.513938 273.566623 
L 94.758591 273.231268 
L 95.247897 273.410922 
L 95.737203 273.147429 
L 96.226509 273.315106 
L 96.471162 272.883935 
L 96.715815 272.883935 
L 97.449774 273.410922 
L 97.694427 273.135452 
L 97.93908 273.398945 
L 98.183733 273.315106 
L 98.428386 273.039636 
L 98.917692 272.907889 
L 99.162345 272.979751 
L 99.406998 272.800096 
L 101.364222 272.991728 
L 101.853528 273.195337 
L 102.098181 273.015682 
L 102.342834 273.255221 
L 102.587487 273.18336 
L 102.83214 273.267198 
L 103.321446 272.979751 
L 103.566099 272.764165 
L 103.810752 273.267198 
L 104.300058 273.602554 
L 104.544711 273.470807 
L 104.789364 273.207314 
L 105.034017 273.243244 
L 105.523323 272.764165 
L 105.767976 272.836027 
L 106.012629 272.452764 
L 106.257282 272.776142 
L 106.501935 272.608465 
L 107.235894 273.075567 
L 107.480547 273.051613 
L 108.214506 271.997639 
L 108.459159 272.0695 
L 108.948465 271.638329 
L 109.193118 271.782053 
L 109.682424 271.518559 
L 109.927077 271.566467 
L 110.17173 271.782053 
L 110.416383 271.482628 
L 110.661036 271.470651 
L 110.905689 270.716102 
L 111.150342 271.075411 
L 111.639648 270.52447 
L 111.884301 270.608309 
L 112.128954 270.320861 
L 112.373607 270.356792 
L 112.61826 270.260976 
L 112.862913 270.883779 
L 113.107566 270.608309 
L 113.841526 270.835872 
L 114.086179 270.608309 
L 114.330832 270.799941 
L 114.820138 270.799941 
L 115.064791 271.171227 
L 115.309444 271.063434 
L 115.554097 270.823895 
L 115.79875 270.835872 
L 116.288056 271.302974 
L 116.532709 270.91971 
L 116.777362 270.943664 
L 117.022015 270.775987 
L 117.266668 270.883779 
L 117.511321 270.356792 
L 117.755974 270.835872 
L 118.000627 270.871802 
L 118.24528 271.219135 
L 118.489933 271.099365 
L 119.223892 271.314951 
L 120.202504 271.075411 
L 120.447157 271.171227 
L 120.69181 271.075411 
L 121.181116 270.608309 
L 122.159728 270.632263 
L 122.404381 270.704125 
L 122.649034 271.075411 
L 124.116952 271.15925 
L 124.361605 270.871802 
L 124.606258 270.835872 
L 125.095564 270.452608 
L 125.340217 270.368769 
L 125.58487 270.632263 
L 125.829523 270.64424 
L 126.074176 270.52447 
L 126.563482 270.91971 
L 126.808135 270.859825 
L 127.052788 270.12923 
L 127.542094 269.937598 
L 127.786747 270.225046 
L 129.010012 270.177138 
L 129.254665 270.4047 
L 130.233277 270.452608 
L 130.722583 270.237023 
L 130.967236 270.308884 
L 131.945848 269.326772 
L 132.435154 269.195025 
L 133.169113 269.051301 
L 133.658419 269.398634 
L 134.147725 269.302818 
L 135.615643 269.710035 
L 135.860297 269.458519 
L 136.10495 269.458519 
L 136.349603 269.61422 
L 136.594256 269.901667 
L 136.838909 269.710035 
L 137.083562 269.853759 
L 137.328215 269.578289 
L 137.572868 269.674104 
L 137.817521 269.446542 
L 138.062174 269.410611 
L 138.306827 269.195025 
L 138.55148 269.147117 
L 138.796133 269.242933 
L 139.285439 269.710035 
L 139.774745 269.913644 
L 140.753357 269.853759 
L 140.99801 270.380746 
L 141.242663 270.4047 
L 141.487316 270.28493 
L 141.731969 270.716102 
L 141.976622 269.49445 
L 142.221275 269.338749 
L 142.465928 269.314795 
L 142.710581 268.787808 
L 142.955234 268.703969 
L 143.199887 268.763854 
L 143.689193 269.638174 
L 143.933846 269.913644 
L 144.178499 269.76992 
L 144.423152 269.949575 
L 144.667805 269.554335 
L 145.157111 269.326772 
L 145.401764 269.446542 
L 145.646417 269.266887 
L 145.89107 269.278864 
L 146.135723 269.015371 
L 146.869682 269.913644 
L 147.114335 269.49445 
L 147.358988 269.674104 
L 147.603641 270.033414 
L 147.848294 270.141207 
L 148.3376 270.033414 
L 148.582253 269.781897 
L 148.826906 269.710035 
L 149.071559 269.338749 
L 149.560865 269.183048 
L 149.805518 269.362703 
L 150.050171 269.25491 
L 150.294824 269.003394 
L 150.539477 268.943509 
L 151.028783 269.362703 
L 151.762742 268.536291 
L 152.007395 269.266887 
L 152.252048 269.290841 
L 152.496701 269.733989 
L 152.741354 269.159094 
L 153.23066 268.895601 
L 153.475313 268.97944 
L 153.964619 268.931532 
L 154.209272 269.003394 
L 154.453925 269.49445 
L 154.698578 269.61422 
L 154.943231 269.434565 
L 155.187884 269.61422 
L 155.432537 269.302818 
L 155.67719 269.326772 
L 155.921843 269.578289 
L 156.166496 269.470496 
L 156.411149 269.638174 
L 157.389761 268.668038 
L 158.12372 266.679859 
L 158.368374 266.691836 
L 158.613027 266.404389 
L 158.85768 265.637862 
L 159.102333 265.80554 
L 159.346986 265.482161 
L 159.591639 265.68577 
L 159.836292 265.721701 
L 160.325598 266.116941 
L 160.570251 266.224734 
L 161.059557 265.80554 
L 161.30421 266.116941 
L 161.548863 266.140895 
L 161.793516 266.464274 
L 162.038169 266.248688 
L 162.282822 266.188803 
L 162.527475 266.883468 
L 163.016781 266.787652 
L 163.506087 265.913333 
L 163.995393 265.92531 
L 164.484699 266.033103 
L 164.974005 266.823583 
L 165.463311 266.679859 
L 165.707964 265.793563 
L 165.952617 265.937287 
L 166.19727 265.697747 
L 166.441923 266.392412 
L 166.686576 266.32055 
L 166.931229 265.542046 
L 167.175882 265.566 
L 167.665188 266.428343 
L 168.154494 266.033103 
L 168.6438 265.901356 
L 169.622412 265.062967 
L 169.867065 265.697747 
L 170.111718 265.793563 
L 170.356371 265.745655 
L 170.601024 266.009149 
L 170.845677 265.889379 
L 171.09033 266.057057 
L 171.334983 265.817517 
L 171.579636 266.272642 
L 171.824289 266.248688 
L 172.068942 265.973218 
L 172.313595 266.512182 
L 172.558248 265.877402 
L 173.047554 266.452297 
L 173.53686 266.619975 
L 173.781513 265.92531 
L 174.026166 266.284619 
L 174.515472 266.188803 
L 174.760125 265.985195 
L 175.249431 265.398323 
L 176.472696 265.518092 
L 177.451308 265.194714 
L 177.940614 264.751566 
L 178.919226 264.667727 
L 179.163879 265.206691 
L 179.897838 266.069033 
L 180.142491 265.841471 
L 180.387144 266.140895 
L 180.631798 266.116941 
L 181.121104 265.673793 
L 181.365757 265.757632 
L 181.61041 265.554023 
L 182.099716 265.913333 
L 182.344369 265.242622 
L 182.589022 265.374369 
L 182.833675 265.314484 
L 183.078328 265.027036 
L 183.322981 264.93122 
L 183.812287 265.015059 
L 184.05694 266.04508 
L 184.301593 265.913333 
L 184.546246 266.009149 
L 184.790899 266.476251 
L 185.035552 266.44032 
L 185.280205 266.823583 
L 185.524858 266.907422 
L 185.769511 266.83556 
L 186.014164 266.476251 
L 186.258817 267.170916 
L 186.50347 266.943353 
L 187.482082 267.218824 
L 187.726735 265.374369 
L 188.216041 265.494138 
L 188.460694 265.362392 
L 188.705347 265.613908 
L 189.194653 265.015059 
L 189.439306 264.93122 
L 190.173265 265.278553 
L 190.417918 265.242622 
L 190.662571 264.835405 
L 190.907224 265.098898 
L 191.39653 264.835405 
L 191.641183 264.77552 
L 191.885836 264.559934 
L 192.130489 264.14074 
L 192.375142 264.212602 
L 192.864448 264.727612 
L 193.109101 264.643773 
L 193.598407 265.230645 
L 193.84306 265.542046 
L 194.087713 265.206691 
L 194.332366 265.194714 
L 194.577019 264.847382 
L 195.066325 265.506115 
L 195.310978 265.601931 
L 195.555631 265.470184 
L 195.800284 265.961241 
L 196.28959 265.949264 
L 196.534243 266.033103 
L 197.023549 266.344504 
L 197.268202 266.296596 
L 197.757508 266.655906 
L 198.002161 266.260665 
L 198.246814 266.679859 
L 198.491467 267.961396 
L 198.73612 268.021281 
L 199.225426 267.242778 
L 199.714732 267.266731 
L 199.959385 267.087077 
L 200.204038 266.188803 
L 200.448691 266.703813 
L 200.693344 266.224734 
L 200.937997 265.997172 
L 201.18265 265.985195 
L 201.427303 265.458208 
L 201.916609 265.745655 
L 202.161262 264.727612 
L 202.650568 264.02097 
L 203.139875 263.913177 
L 203.384528 264.428187 
L 203.629181 264.152717 
L 204.118487 264.607842 
L 204.36314 264.715635 
L 204.607793 264.428187 
L 204.852446 264.53598 
L 205.097099 263.973062 
L 205.341752 264.164694 
L 205.586405 263.769453 
L 206.320364 263.493983 
L 206.565017 263.086765 
L 206.80967 263.014904 
L 207.054323 263.482006 
L 207.298976 263.446075 
L 207.543629 262.811295 
L 207.788282 263.038858 
L 208.032935 262.895134 
L 208.277588 263.218512 
L 208.522241 263.302351 
L 208.766894 263.853292 
L 209.011547 263.865269 
L 209.2562 264.619819 
L 209.500853 264.691681 
L 209.745506 264.967151 
L 209.990159 264.008993 
L 210.234812 263.913177 
L 210.479465 263.673637 
L 210.724118 263.242466 
L 211.213424 263.493983 
L 211.70273 263.50596 
L 211.947383 263.733522 
L 212.192036 264.116786 
L 212.436689 264.02097 
L 212.681342 264.428187 
L 212.925995 265.146806 
L 213.170648 265.206691 
L 213.415301 264.344348 
L 213.659954 264.248533 
L 213.904607 264.547957 
L 214.14926 264.583888 
L 214.393913 264.488072 
L 214.638566 264.65575 
L 214.883219 264.224579 
L 215.127872 264.152717 
L 215.861831 263.326305 
L 216.106484 263.446075 
L 216.351137 264.619819 
L 216.59579 265.003082 
L 216.840443 264.440164 
L 217.085096 265.134829 
L 217.574402 264.044924 
L 217.819055 263.985039 
L 218.063708 263.601776 
L 218.553014 263.721545 
L 218.797667 263.038858 
L 219.04232 263.206535 
L 219.286973 261.421965 
L 219.776279 261.326149 
L 220.020932 261.637551 
L 220.265585 261.565689 
L 220.510238 261.374057 
L 220.754891 261.589643 
L 220.999544 261.409988 
L 221.244197 261.613597 
L 221.48885 261.541735 
L 221.733503 261.709413 
L 221.978156 261.074633 
L 222.222809 261.565689 
L 222.467462 261.266265 
L 222.712115 260.751254 
L 222.956768 261.122541 
L 223.201421 261.050679 
L 223.446074 260.583577 
L 224.180033 260.942886 
L 224.669339 260.284152 
L 224.913992 260.739277 
L 225.403298 260.020659 
L 225.647952 260.930909 
L 225.892605 261.302195 
L 226.137258 262.931065 
L 226.381911 263.026881 
L 226.626564 262.523847 
L 226.871217 262.416055 
L 227.11587 263.062812 
L 227.605176 262.907111 
L 227.849829 262.188492 
L 228.339135 261.757321 
L 228.583788 261.158472 
L 228.828441 260.871024 
L 229.317747 261.350103 
L 229.5624 261.026725 
L 229.807053 261.194403 
L 230.051706 261.541735 
L 230.541012 261.72139 
L 230.785665 261.409988 
L 231.274971 261.745344 
L 231.764277 261.421965 
L 232.00893 261.613597 
L 232.253583 261.541735 
L 232.498236 260.883001 
L 232.742889 261.050679 
L 232.987542 261.745344 
L 233.232195 261.661505 
L 233.476848 261.194403 
L 233.721501 263.194558 
L 233.966154 263.422121 
L 234.700113 262.63164 
L 235.189419 262.655594 
L 235.434072 262.931065 
L 235.678725 262.931065 
L 235.923378 263.110719 
L 236.168031 263.14665 
L 236.412684 263.302351 
L 236.657337 261.972906 
L 236.90199 261.613597 
L 237.146643 261.625574 
L 237.391296 261.326149 
L 237.880602 262.140584 
L 238.125255 261.673482 
L 238.369908 261.469873 
L 238.614561 262.080699 
L 238.859214 261.948952 
L 239.103867 262.416055 
L 239.34852 262.140584 
L 239.593173 262.847226 
L 239.837826 262.895134 
L 240.571785 261.853137 
L 241.061091 262.056745 
L 241.305744 262.715479 
L 241.550397 262.966996 
L 241.79505 262.775364 
L 242.284356 264.032947 
L 242.529009 264.044924 
L 242.773662 263.697591 
L 243.018315 263.673637 
L 243.996927 264.883312 
L 244.24158 264.476095 
L 244.486233 264.320394 
L 244.730886 264.308417 
L 244.975539 264.476095 
L 245.220192 263.949108 
L 245.464845 264.092832 
L 245.709498 264.53598 
L 245.954151 264.428187 
L 246.198804 264.883312 
L 246.443457 264.595865 
L 246.932763 265.003082 
L 247.422069 264.212602 
L 247.666722 264.152717 
L 247.911375 264.236556 
L 248.156029 263.829338 
L 248.400682 263.733522 
L 248.645335 263.482006 
L 248.889988 263.637707 
L 249.134641 260.607531 
L 249.379294 259.649372 
L 249.623947 259.793096 
L 249.8686 259.721234 
L 250.113253 259.960774 
L 250.357906 259.93682 
L 250.602559 260.116474 
L 250.847212 260.487761 
L 251.091865 260.595554 
L 251.825824 263.326305 
L 252.070477 263.841315 
L 252.31513 262.008837 
L 252.559783 261.026725 
L 252.804436 260.906955 
L 253.049089 261.20638 
L 253.293742 262.308262 
L 253.538395 261.529758 
L 253.783048 261.457896 
L 254.027701 262.080699 
L 254.272354 260.96684 
L 254.517007 261.505804 
L 254.76166 261.08661 
L 255.250966 260.954863 
L 255.984925 260.21229 
L 256.229578 260.236244 
L 256.474231 259.948797 
L 256.718884 260.715323 
L 256.963537 260.583577 
L 257.20819 260.05659 
L 257.452843 259.852981 
L 257.697496 260.224267 
L 257.942149 259.733211 
L 258.186802 258.607375 
L 258.431455 259.18227 
L 258.920761 257.685148 
L 259.410067 256.966529 
L 259.65472 256.786874 
L 259.899373 256.906644 
L 260.144026 256.571288 
L 260.388679 256.511403 
L 260.633332 255.361613 
L 260.877985 255.277775 
L 261.122638 254.762764 
L 261.611944 254.870557 
L 261.856597 255.301728 
L 262.10125 254.116007 
L 262.345903 253.888445 
L 262.590556 254.044146 
L 262.835209 254.0681 
L 263.079862 253.792629 
L 263.324515 254.97835 
L 263.569168 254.151938 
L 263.813821 253.756698 
L 264.058474 253.996238 
L 264.54778 254.942419 
L 264.792433 250.343259 
L 265.037086 250.510937 
L 265.281739 251.229555 
L 265.526392 251.588865 
L 265.771045 251.720611 
L 266.015698 252.43923 
L 266.260351 251.720611 
L 266.505004 251.720611 
L 266.749657 250.966062 
L 266.99431 250.858269 
L 267.238963 250.53489 
L 267.483616 251.097809 
L 267.728269 250.798384 
L 267.972922 250.846292 
L 268.462228 250.13965 
L 268.706881 248.906021 
L 268.951534 249.205446 
L 269.196187 249.289285 
L 269.44084 247.708323 
L 269.685493 248.47485 
L 269.930146 247.935886 
L 270.174799 248.953929 
L 270.419452 248.630551 
L 270.664106 249.217423 
L 270.908759 249.121607 
L 271.398065 248.402988 
L 271.887371 249.636617 
L 272.132024 248.726366 
L 272.62133 248.546712 
L 272.865983 248.402988 
L 273.110636 248.438919 
L 273.355289 247.792162 
L 273.844595 248.654505 
L 274.089248 249.361146 
L 274.333901 248.738343 
L 274.823207 251.864335 
L 275.06786 252.642839 
L 275.312513 252.582954 
L 275.557166 251.984105 
L 276.291125 255.661038 
L 277.025084 254.834626 
L 277.269737 254.056123 
L 277.51439 254.092054 
L 277.759043 253.756698 
L 278.248349 254.535202 
L 278.493002 253.050056 
L 278.737655 253.038079 
L 278.982308 254.523225 
L 279.226961 254.355547 
L 279.471614 254.34357 
L 279.96092 257.924687 
L 280.205573 257.601309 
L 280.694879 257.828871 
L 280.939532 257.313861 
L 281.184185 255.804762 
L 281.428838 255.002304 
L 281.673491 252.151783 
L 281.918144 251.672704 
L 282.162797 250.37919 
L 282.40745 250.283374 
L 282.652103 250.01988 
L 282.896756 249.936041 
L 283.141409 250.187558 
L 283.386062 250.211512 
L 283.630715 250.570821 
L 283.875368 248.906021 
L 284.120021 248.678459 
L 284.364674 249.025791 
L 284.609327 249.145561 
L 284.85398 249.397077 
L 285.098633 250.103719 
L 285.587939 250.187558 
L 285.832592 249.540801 
L 286.077245 249.444985 
L 286.321898 249.636617 
L 286.566551 248.486827 
L 286.811204 248.822182 
L 287.055857 247.636461 
L 287.30051 247.516692 
L 287.545163 247.588553 
L 287.789816 246.893889 
L 288.034469 246.834004 
L 288.279122 246.414809 
L 288.768428 245.30095 
L 289.013081 245.456651 
L 289.257734 244.833848 
L 289.502387 245.253042 
L 289.74704 245.312927 
L 289.991693 245.253042 
L 290.236346 245.696191 
L 290.725652 245.157226 
L 290.970305 245.205134 
L 291.214958 244.127206 
L 291.459611 244.007436 
L 291.704264 243.660104 
L 291.948917 243.851736 
L 292.19357 244.642216 
L 292.438223 244.474539 
L 292.682876 244.522447 
L 292.92753 244.690124 
L 293.172183 244.474539 
L 293.416836 244.438608 
L 293.661489 243.444518 
L 294.150795 245.576421 
L 294.395448 245.013503 
L 294.640101 245.528513 
L 294.884754 246.498648 
L 295.129407 246.247132 
L 295.37406 245.81596 
L 295.618713 245.875845 
L 295.863366 245.061411 
L 296.108019 244.941641 
L 296.352672 245.528513 
L 296.597325 239.048967 
L 296.841978 237.599752 
L 297.086631 237.491959 
L 297.331284 236.198445 
L 297.575937 235.970883 
L 297.82059 235.036678 
L 298.065243 234.95284 
L 298.309896 233.803049 
L 298.554549 234.030612 
L 299.288508 232.17418 
L 299.533161 232.066387 
L 299.777814 231.671147 
L 300.022467 232.461628 
L 300.26712 232.749075 
L 300.511773 232.641282 
L 300.756426 232.820937 
L 301.001079 231.3837 
L 301.245732 232.796983 
L 301.490385 232.090341 
L 301.735038 231.982549 
L 301.979691 231.407653 
L 302.224344 231.180091 
L 302.468997 232.17418 
L 302.71365 231.168114 
L 302.958303 231.515446 
L 303.202956 231.563354 
L 303.447609 230.054255 
L 303.692262 233.359901 
L 303.936915 233.946773 
L 304.670874 231.826848 
L 304.915527 232.246042 
L 305.16018 231.41963 
L 305.404833 231.060321 
L 305.649486 229.575176 
L 306.138792 225.826381 
L 306.383445 224.892176 
L 306.628098 224.91613 
L 306.872751 224.269373 
L 307.117404 225.011946 
L 307.362057 224.688568 
L 307.851363 223.191445 
L 308.096016 224.389143 
L 308.585322 221.442806 
L 308.829975 220.304993 
L 309.074628 220.987681 
L 309.319281 220.843957 
L 309.563934 219.742075 
L 309.808587 220.185223 
L 310.05324 221.011635 
L 310.297893 220.83198 
L 310.787199 218.424607 
L 311.031852 217.77785 
L 311.276505 217.598196 
L 311.521158 218.053321 
L 311.765811 216.62806 
L 312.010464 212.627749 
L 312.255117 212.699611 
L 312.49977 213.154736 
L 312.744423 214.891398 
L 312.989076 213.753585 
L 313.478382 213.250552 
L 313.723035 212.78345 
L 313.967688 213.945217 
L 314.212341 214.436273 
L 314.456994 213.837424 
L 314.701647 213.885332 
L 315.190953 214.663835 
L 315.435607 212.496002 
L 315.68026 213.238575 
L 315.924913 212.531933 
L 316.169566 213.645792 
L 316.414219 213.106828 
L 316.658872 216.843646 
L 316.903525 215.370477 
L 317.148178 216.424452 
L 317.392831 215.789672 
L 317.637484 213.046943 
L 317.882137 212.867288 
L 318.12679 211.873199 
L 318.371443 212.567864 
L 318.616096 210.447939 
L 318.860749 210.256307 
L 319.105402 210.340146 
L 319.350055 211.070741 
L 319.594708 208.435806 
L 319.839361 208.148358 
L 320.084014 207.405786 
L 320.328667 206.064364 
L 321.062626 206.411696 
L 321.551932 208.06452 
L 321.796585 207.765095 
L 322.041238 208.926862 
L 322.285891 208.567553 
L 322.530544 209.861067 
L 322.775197 209.09454 
L 323.01985 209.549665 
L 323.264503 208.351967 
L 323.509156 208.519645 
L 323.753809 207.010545 
L 323.998462 207.238108 
L 324.243115 203.441405 
L 324.487768 202.052076 
L 324.732421 201.704743 
L 324.977074 203.477336 
L 325.221727 203.62106 
L 325.46638 202.902441 
L 325.711033 205.429584 
L 325.955686 205.776916 
L 326.200339 206.735075 
L 326.444992 207.202177 
L 326.689645 202.770694 
L 326.934298 202.902441 
L 327.178951 204.339679 
L 327.423604 206.962637 
L 327.668257 182.769138 
L 327.91291 187.95517 
L 328.157563 184.90104 
L 328.402216 178.385563 
L 328.891522 176.313546 
L 329.136175 176.768671 
L 329.380828 175.966213 
L 329.870134 175.355387 
L 330.114787 175.415272 
L 330.604093 177.702875 
L 330.848746 183.164378 
L 331.093399 182.194243 
L 331.338052 178.086139 
L 331.827358 174.265482 
L 332.561317 180.828867 
L 332.80597 178.936504 
L 333.050623 172.612659 
L 333.539929 167.869775 
L 333.784582 166.408583 
L 334.029235 162.168732 
L 334.273888 161.378252 
L 334.518541 159.845198 
L 334.763194 156.647345 
L 335.007847 147.616702 
L 335.2525 157.282124 
L 335.497153 154.671143 
L 335.986459 165.953458 
L 336.231112 163.102937 
L 336.475765 166.276836 
L 336.720418 164.647967 
L 336.965071 159.64159 
L 337.209724 160.611725 
L 337.69903 164.24075 
L 337.943684 164.252727 
L 338.188337 167.031386 
L 338.677643 162.180709 
L 338.922296 163.558062 
L 339.166949 162.264548 
L 339.411602 159.581705 
L 339.656255 159.030764 
L 340.145561 154.263926 
L 340.390214 156.359897 
L 340.634867 157.365963 
L 340.87952 151.652944 
L 341.124173 149.928259 
L 341.368826 151.137934 
L 341.858132 145.448868 
L 342.102785 146.071671 
L 342.592091 152.048184 
L 342.836744 158.324122 
L 343.32605 157.581549 
L 343.570703 159.67752 
L 343.815356 159.701474 
L 344.060009 155.102314 
L 344.304662 155.4736 
L 344.549315 167.773959 
L 344.793968 166.612192 
L 345.038621 163.078983 
L 345.283274 166.588238 
L 345.527927 165.019254 
L 345.77258 169.558529 
L 346.261886 171.151467 
L 346.506539 169.86993 
L 346.751192 170.085516 
L 346.995845 170.10947 
L 347.240498 169.414805 
L 347.485151 166.14509 
L 347.729804 166.228928 
L 347.974457 165.306701 
L 348.21911 163.797602 
L 348.463763 161.090804 
L 348.708416 157.042585 
L 348.953069 161.282436 
L 349.197722 158.695408 
L 349.442375 159.869152 
L 349.687028 159.414027 
L 349.931681 158.479822 
L 350.420987 159.569728 
L 350.66564 157.10247 
L 351.154946 158.324122 
L 351.399599 167.426626 
L 351.644252 168.3249 
L 351.888905 167.45058 
L 352.133558 167.965591 
L 352.378211 171.031697 
L 352.622864 170.612503 
L 352.867517 171.582639 
L 353.11217 173.762449 
L 353.356823 169.283058 
L 353.601476 169.211197 
L 353.846129 168.744094 
L 354.090782 166.851731 
L 354.335435 166.348698 
L 354.824741 162.683742 
L 355.069394 163.546085 
L 355.314047 161.605814 
L 355.5587 163.21073 
L 355.803353 160.408116 
L 356.048006 164.192842 
L 356.292659 163.270614 
L 356.537312 163.749694 
L 356.781965 163.737717 
L 357.026618 165.043207 
L 357.271271 164.839599 
L 357.515924 142.861841 
L 357.760577 136.621834 
L 358.00523 134.957034 
L 358.249883 127.267813 
L 358.494536 124.273568 
L 358.739189 135.160642 
L 359.228495 125.243703 
L 359.473148 121.770379 
L 359.717801 124.010074 
L 359.962454 122.165619 
L 360.207107 122.536906 
L 360.696414 114.620122 
L 360.941067 115.242925 
L 361.18572 115.230948 
L 361.430373 116.09329 
L 361.675026 110.85935 
L 361.919679 111.661808 
L 362.164332 109.529905 
L 362.408985 96.570813 
L 362.653638 108.95501 
L 362.898291 108.511862 
L 363.142944 106.799154 
L 363.387597 106.415891 
L 363.63225 105.637387 
L 363.876903 106.53566 
L 364.121556 99.708782 
L 364.366209 99.984252 
L 364.610862 97.133731 
L 364.855515 98.451199 
L 365.100168 103.888748 
L 365.344821 105.90088 
L 365.589474 112.572058 
L 365.834127 106.37996 
L 366.07878 112.452288 
L 366.323433 114.991408 
L 366.568086 121.255369 
L 366.812739 116.799932 
L 367.057392 116.284922 
L 367.302045 112.356473 
L 367.546698 104.044449 
L 367.791351 101.433467 
L 368.036004 93.492729 
L 368.280657 95.744401 
L 368.52531 90.570346 
L 368.769963 91.408735 
L 369.014616 89.360671 
L 369.259269 90.390691 
L 369.503922 87.516216 
L 369.748575 86.797597 
L 369.993228 89.133108 
L 370.237881 90.091267 
L 370.482534 87.803664 
L 370.727187 94.414957 
L 370.97184 91.241057 
L 371.216493 93.492729 
L 371.461146 91.121287 
L 371.705799 91.241057 
L 371.950452 88.737868 
L 372.195105 87.863549 
L 372.439758 81.707381 
L 372.684411 84.162662 
L 372.929064 81.994828 
L 373.41837 101.337651 
L 373.663023 86.438288 
L 374.152329 90.330806 
L 374.396982 94.738335 
L 374.641635 94.702404 
L 374.886288 97.516994 
L 375.375594 89.552303 
L 375.620247 90.282899 
L 375.8649 91.935722 
L 376.109553 90.546392 
L 376.354206 90.869771 
L 376.598859 89.696027 
L 376.843512 85.192682 
L 377.088165 83.97103 
L 377.332818 89.420556 
L 377.577471 89.540326 
L 377.822124 88.618098 
L 378.066777 92.079446 
L 378.31143 85.719669 
L 378.800736 84.078823 
L 379.045389 85.24059 
L 379.534695 63.502371 
L 379.779348 63.741911 
L 380.024001 65.550435 
L 380.268654 71.634741 
L 380.513307 73.742689 
L 380.75796 83.324273 
L 381.002613 82.174483 
L 381.247266 77.659162 
L 381.491919 77.719047 
L 381.736572 74.01816 
L 381.981225 73.742689 
L 382.225878 73.299541 
L 382.470531 71.502994 
L 382.715184 71.622764 
L 382.959838 70.987984 
L 383.449144 61.849548 
L 383.693797 59.442175 
L 383.93845 59.334382 
L 384.427756 51.070266 
L 384.917062 51.48946 
L 385.161715 51.225967 
L 385.406368 52.303895 
L 385.651021 52.639251 
L 385.895674 50.171993 
L 386.140327 56.184437 
L 386.38498 53.75311 
L 386.629633 46.363313 
L 386.874286 43.991871 
L 387.118939 40.434708 
L 387.363592 39.967606 
L 387.608245 41.476705 
L 387.852898 38.183036 
L 387.852898 38.183036 
" style="fill:none;stroke:#ff7f0e;stroke-linecap:square;stroke-width:1.5;"/>
   </g>
   <g id="patch_3">
    <path d="M 46.965625 288.430125 
L 46.965625 22.318125 
" style="fill:none;stroke:#000000;stroke-linecap:square;stroke-linejoin:miter;stroke-width:0.8;"/>
   </g>
   <g id="patch_4">
    <path d="M 404.085625 288.430125 
L 404.085625 22.318125 
" style="fill:none;stroke:#000000;stroke-linecap:square;stroke-linejoin:miter;stroke-width:0.8;"/>
   </g>
   <g id="patch_5">
    <path d="M 46.965625 288.430125 
L 404.085625 288.430125 
" style="fill:none;stroke:#000000;stroke-linecap:square;stroke-linejoin:miter;stroke-width:0.8;"/>
   </g>
   <g id="patch_6">
    <path d="M 46.965625 22.318125 
L 404.085625 22.318125 
" style="fill:none;stroke:#000000;stroke-linecap:square;stroke-linejoin:miter;stroke-width:0.8;"/>
   </g>
   <g id="text_19">
    <!-- Training: NVDA -->
    <defs>
     <path d="M -0.296875 72.90625 
L 61.375 72.90625 
L 61.375 64.59375 
L 35.5 64.59375 
L 35.5 0 
L 25.59375 0 
L 25.59375 64.59375 
L -0.296875 64.59375 
z
" id="DejaVuSans-84"/>
     <path d="M 54.890625 33.015625 
L 54.890625 0 
L 45.90625 0 
L 45.90625 32.71875 
Q 45.90625 40.484375 42.875 44.328125 
Q 39.84375 48.1875 33.796875 48.1875 
Q 26.515625 48.1875 22.3125 43.546875 
Q 18.109375 38.921875 18.109375 30.90625 
L 18.109375 0 
L 9.078125 0 
L 9.078125 54.6875 
L 18.109375 54.6875 
L 18.109375 46.1875 
Q 21.34375 51.125 25.703125 53.5625 
Q 30.078125 56 35.796875 56 
Q 45.21875 56 50.046875 50.171875 
Q 54.890625 44.34375 54.890625 33.015625 
z
" id="DejaVuSans-110"/>
     <path d="M 45.40625 27.984375 
Q 45.40625 37.75 41.375 43.109375 
Q 37.359375 48.484375 30.078125 48.484375 
Q 22.859375 48.484375 18.828125 43.109375 
Q 14.796875 37.75 14.796875 27.984375 
Q 14.796875 18.265625 18.828125 12.890625 
Q 22.859375 7.515625 30.078125 7.515625 
Q 37.359375 7.515625 41.375 12.890625 
Q 45.40625 18.265625 45.40625 27.984375 
z
M 54.390625 6.78125 
Q 54.390625 -7.171875 48.1875 -13.984375 
Q 42 -20.796875 29.203125 -20.796875 
Q 24.46875 -20.796875 20.265625 -20.09375 
Q 16.0625 -19.390625 12.109375 -17.921875 
L 12.109375 -9.1875 
Q 16.0625 -11.328125 19.921875 -12.34375 
Q 23.78125 -13.375 27.78125 -13.375 
Q 36.625 -13.375 41.015625 -8.765625 
Q 45.40625 -4.15625 45.40625 5.171875 
L 45.40625 9.625 
Q 42.625 4.78125 38.28125 2.390625 
Q 33.9375 0 27.875 0 
Q 17.828125 0 11.671875 7.65625 
Q 5.515625 15.328125 5.515625 27.984375 
Q 5.515625 40.671875 11.671875 48.328125 
Q 17.828125 56 27.875 56 
Q 33.9375 56 38.28125 53.609375 
Q 42.625 51.21875 45.40625 46.390625 
L 45.40625 54.6875 
L 54.390625 54.6875 
z
" id="DejaVuSans-103"/>
     <path d="M 11.71875 12.40625 
L 22.015625 12.40625 
L 22.015625 0 
L 11.71875 0 
z
M 11.71875 51.703125 
L 22.015625 51.703125 
L 22.015625 39.3125 
L 11.71875 39.3125 
z
" id="DejaVuSans-58"/>
     <path d="M 9.8125 72.90625 
L 23.09375 72.90625 
L 55.421875 11.921875 
L 55.421875 72.90625 
L 64.984375 72.90625 
L 64.984375 0 
L 51.703125 0 
L 19.390625 60.984375 
L 19.390625 0 
L 9.8125 0 
z
" id="DejaVuSans-78"/>
     <path d="M 28.609375 0 
L 0.78125 72.90625 
L 11.078125 72.90625 
L 34.1875 11.53125 
L 57.328125 72.90625 
L 67.578125 72.90625 
L 39.796875 0 
z
" id="DejaVuSans-86"/>
     <path d="M 34.1875 63.1875 
L 20.796875 26.90625 
L 47.609375 26.90625 
z
M 28.609375 72.90625 
L 39.796875 72.90625 
L 67.578125 0 
L 57.328125 0 
L 50.6875 18.703125 
L 17.828125 18.703125 
L 11.1875 0 
L 0.78125 0 
z
" id="DejaVuSans-65"/>
    </defs>
    <g transform="translate(180.714063 16.318125)scale(0.12 -0.12)">
     <use xlink:href="#DejaVuSans-84"/>
     <use x="46.333984" xlink:href="#DejaVuSans-114"/>
     <use x="87.447266" xlink:href="#DejaVuSans-97"/>
     <use x="148.726562" xlink:href="#DejaVuSans-105"/>
     <use x="176.509766" xlink:href="#DejaVuSans-110"/>
     <use x="239.888672" xlink:href="#DejaVuSans-105"/>
     <use x="267.671875" xlink:href="#DejaVuSans-110"/>
     <use x="331.050781" xlink:href="#DejaVuSans-103"/>
     <use x="394.527344" xlink:href="#DejaVuSans-58"/>
     <use x="428.21875" xlink:href="#DejaVuSans-32"/>
     <use x="460.005859" xlink:href="#DejaVuSans-78"/>
     <use x="534.810547" xlink:href="#DejaVuSans-86"/>
     <use x="603.21875" xlink:href="#DejaVuSans-68"/>
     <use x="678.470703" xlink:href="#DejaVuSans-65"/>
    </g>
   </g>
   <g id="legend_1">
    <g id="patch_7">
     <path d="M 53.965625 59.674375 
L 137.69375 59.674375 
Q 139.69375 59.674375 139.69375 57.674375 
L 139.69375 29.318125 
Q 139.69375 27.318125 137.69375 27.318125 
L 53.965625 27.318125 
Q 51.965625 27.318125 51.965625 29.318125 
L 51.965625 57.674375 
Q 51.965625 59.674375 53.965625 59.674375 
z
" style="fill:#ffffff;opacity:0.8;stroke:#cccccc;stroke-linejoin:miter;"/>
    </g>
    <g id="line2d_35">
     <path d="M 55.965625 35.416562 
L 75.965625 35.416562 
" style="fill:none;stroke:#1f77b4;stroke-linecap:square;stroke-width:1.5;"/>
    </g>
    <g id="line2d_36"/>
    <g id="text_20">
     <!-- Predicted -->
     <defs>
      <path d="M 45.40625 46.390625 
L 45.40625 75.984375 
L 54.390625 75.984375 
L 54.390625 0 
L 45.40625 0 
L 45.40625 8.203125 
Q 42.578125 3.328125 38.25 0.953125 
Q 33.9375 -1.421875 27.875 -1.421875 
Q 17.96875 -1.421875 11.734375 6.484375 
Q 5.515625 14.40625 5.515625 27.296875 
Q 5.515625 40.1875 11.734375 48.09375 
Q 17.96875 56 27.875 56 
Q 33.9375 56 38.25 53.625 
Q 42.578125 51.265625 45.40625 46.390625 
z
M 14.796875 27.296875 
Q 14.796875 17.390625 18.875 11.75 
Q 22.953125 6.109375 30.078125 6.109375 
Q 37.203125 6.109375 41.296875 11.75 
Q 45.40625 17.390625 45.40625 27.296875 
Q 45.40625 37.203125 41.296875 42.84375 
Q 37.203125 48.484375 30.078125 48.484375 
Q 22.953125 48.484375 18.875 42.84375 
Q 14.796875 37.203125 14.796875 27.296875 
z
" id="DejaVuSans-100"/>
      <path d="M 18.3125 70.21875 
L 18.3125 54.6875 
L 36.8125 54.6875 
L 36.8125 47.703125 
L 18.3125 47.703125 
L 18.3125 18.015625 
Q 18.3125 11.328125 20.140625 9.421875 
Q 21.96875 7.515625 27.59375 7.515625 
L 36.8125 7.515625 
L 36.8125 0 
L 27.59375 0 
Q 17.1875 0 13.234375 3.875 
Q 9.28125 7.765625 9.28125 18.015625 
L 9.28125 47.703125 
L 2.6875 47.703125 
L 2.6875 54.6875 
L 9.28125 54.6875 
L 9.28125 70.21875 
z
" id="DejaVuSans-116"/>
     </defs>
     <g transform="translate(83.965625 38.916562)scale(0.1 -0.1)">
      <use xlink:href="#DejaVuSans-80"/>
      <use x="58.552734" xlink:href="#DejaVuSans-114"/>
      <use x="97.416016" xlink:href="#DejaVuSans-101"/>
      <use x="158.939453" xlink:href="#DejaVuSans-100"/>
      <use x="222.416016" xlink:href="#DejaVuSans-105"/>
      <use x="250.199219" xlink:href="#DejaVuSans-99"/>
      <use x="305.179688" xlink:href="#DejaVuSans-116"/>
      <use x="344.388672" xlink:href="#DejaVuSans-101"/>
      <use x="405.912109" xlink:href="#DejaVuSans-100"/>
     </g>
    </g>
    <g id="line2d_37">
     <path d="M 55.965625 50.094687 
L 75.965625 50.094687 
" style="fill:none;stroke:#ff7f0e;stroke-linecap:square;stroke-width:1.5;"/>
    </g>
    <g id="line2d_38"/>
    <g id="text_21">
     <!-- True value -->
     <defs>
      <path d="M 8.5 21.578125 
L 8.5 54.6875 
L 17.484375 54.6875 
L 17.484375 21.921875 
Q 17.484375 14.15625 20.5 10.265625 
Q 23.53125 6.390625 29.59375 6.390625 
Q 36.859375 6.390625 41.078125 11.03125 
Q 45.3125 15.671875 45.3125 23.6875 
L 45.3125 54.6875 
L 54.296875 54.6875 
L 54.296875 0 
L 45.3125 0 
L 45.3125 8.40625 
Q 42.046875 3.421875 37.71875 1 
Q 33.40625 -1.421875 27.6875 -1.421875 
Q 18.265625 -1.421875 13.375 4.4375 
Q 8.5 10.296875 8.5 21.578125 
z
M 31.109375 56 
z
" id="DejaVuSans-117"/>
      <path d="M 2.984375 54.6875 
L 12.5 54.6875 
L 29.59375 8.796875 
L 46.6875 54.6875 
L 56.203125 54.6875 
L 35.6875 0 
L 23.484375 0 
z
" id="DejaVuSans-118"/>
      <path d="M 9.421875 75.984375 
L 18.40625 75.984375 
L 18.40625 0 
L 9.421875 0 
z
" id="DejaVuSans-108"/>
     </defs>
     <g transform="translate(83.965625 53.594687)scale(0.1 -0.1)">
      <use xlink:href="#DejaVuSans-84"/>
      <use x="46.333984" xlink:href="#DejaVuSans-114"/>
      <use x="87.447266" xlink:href="#DejaVuSans-117"/>
      <use x="150.826172" xlink:href="#DejaVuSans-101"/>
      <use x="212.349609" xlink:href="#DejaVuSans-32"/>
      <use x="244.136719" xlink:href="#DejaVuSans-118"/>
      <use x="303.316406" xlink:href="#DejaVuSans-97"/>
      <use x="364.595703" xlink:href="#DejaVuSans-108"/>
      <use x="392.378906" xlink:href="#DejaVuSans-117"/>
      <use x="455.757812" xlink:href="#DejaVuSans-101"/>
     </g>
    </g>
   </g>
  </g>
 </g>
 <defs>
  <clipPath id="p00088cdc6b">
   <rect height="266.112" width="357.12" x="46.965625" y="22.318125"/>
  </clipPath>
 </defs>
</svg>
