<?xml version="1.0" encoding="utf-8" standalone="no"?>
<!DOCTYPE svg PUBLIC "-//W3C//DTD SVG 1.1//EN"
  "http://www.w3.org/Graphics/SVG/1.1/DTD/svg11.dtd">
<!-- Created with matplotlib (https://matplotlib.org/) -->
<svg height="325.986375pt" version="1.1" viewBox="0 0 411.285625 325.986375" width="411.285625pt" xmlns="http://www.w3.org/2000/svg" xmlns:xlink="http://www.w3.org/1999/xlink">
 <defs>
  <style type="text/css">
*{stroke-linecap:butt;stroke-linejoin:round;}
  </style>
 </defs>
 <g id="figure_1">
  <g id="patch_1">
   <path d="M 0 325.986375 
L 411.285625 325.986375 
L 411.285625 0 
L 0 0 
z
" style="fill:#ffffff;"/>
  </g>
  <g id="axes_1">
   <g id="patch_2">
    <path d="M 46.965625 288.430125 
L 404.085625 288.430125 
L 404.085625 22.318125 
L 46.965625 22.318125 
z
" style="fill:#ffffff;"/>
   </g>
   <g id="matplotlib.axis_1">
    <g id="xtick_1">
     <g id="line2d_1">
      <path clip-path="url(#p15327379b2)" d="M 63.198352 288.430125 
L 63.198352 22.318125 
" style="fill:none;stroke:#b0b0b0;stroke-dasharray:2.96,1.28;stroke-dashoffset:0;stroke-width:0.8;"/>
     </g>
     <g id="line2d_2">
      <defs>
       <path d="M 0 0 
L 0 3.5 
" id="m78f164b5f4" style="stroke:#000000;stroke-width:0.8;"/>
      </defs>
      <g>
       <use style="stroke:#000000;stroke-width:0.8;" x="63.198352" xlink:href="#m78f164b5f4" y="288.430125"/>
      </g>
     </g>
     <g id="text_1">
      <!-- 0 -->
      <defs>
       <path d="M 31.78125 66.40625 
Q 24.171875 66.40625 20.328125 58.90625 
Q 16.5 51.421875 16.5 36.375 
Q 16.5 21.390625 20.328125 13.890625 
Q 24.171875 6.390625 31.78125 6.390625 
Q 39.453125 6.390625 43.28125 13.890625 
Q 47.125 21.390625 47.125 36.375 
Q 47.125 51.421875 43.28125 58.90625 
Q 39.453125 66.40625 31.78125 66.40625 
z
M 31.78125 74.21875 
Q 44.046875 74.21875 50.515625 64.515625 
Q 56.984375 54.828125 56.984375 36.375 
Q 56.984375 17.96875 50.515625 8.265625 
Q 44.046875 -1.421875 31.78125 -1.421875 
Q 19.53125 -1.421875 13.0625 8.265625 
Q 6.59375 17.96875 6.59375 36.375 
Q 6.59375 54.828125 13.0625 64.515625 
Q 19.53125 74.21875 31.78125 74.21875 
z
" id="DejaVuSans-48"/>
      </defs>
      <g transform="translate(60.017102 303.028562)scale(0.1 -0.1)">
       <use xlink:href="#DejaVuSans-48"/>
      </g>
     </g>
    </g>
    <g id="xtick_2">
     <g id="line2d_3">
      <path clip-path="url(#p15327379b2)" d="M 112.128954 288.430125 
L 112.128954 22.318125 
" style="fill:none;stroke:#b0b0b0;stroke-dasharray:2.96,1.28;stroke-dashoffset:0;stroke-width:0.8;"/>
     </g>
     <g id="line2d_4">
      <g>
       <use style="stroke:#000000;stroke-width:0.8;" x="112.128954" xlink:href="#m78f164b5f4" y="288.430125"/>
      </g>
     </g>
     <g id="text_2">
      <!-- 200 -->
      <defs>
       <path d="M 19.1875 8.296875 
L 53.609375 8.296875 
L 53.609375 0 
L 7.328125 0 
L 7.328125 8.296875 
Q 12.9375 14.109375 22.625 23.890625 
Q 32.328125 33.6875 34.8125 36.53125 
Q 39.546875 41.84375 41.421875 45.53125 
Q 43.3125 49.21875 43.3125 52.78125 
Q 43.3125 58.59375 39.234375 62.25 
Q 35.15625 65.921875 28.609375 65.921875 
Q 23.96875 65.921875 18.8125 64.3125 
Q 13.671875 62.703125 7.8125 59.421875 
L 7.8125 69.390625 
Q 13.765625 71.78125 18.9375 73 
Q 24.125 74.21875 28.421875 74.21875 
Q 39.75 74.21875 46.484375 68.546875 
Q 53.21875 62.890625 53.21875 53.421875 
Q 53.21875 48.921875 51.53125 44.890625 
Q 49.859375 40.875 45.40625 35.40625 
Q 44.1875 33.984375 37.640625 27.21875 
Q 31.109375 20.453125 19.1875 8.296875 
z
" id="DejaVuSans-50"/>
      </defs>
      <g transform="translate(102.585204 303.028562)scale(0.1 -0.1)">
       <use xlink:href="#DejaVuSans-50"/>
       <use x="63.623047" xlink:href="#DejaVuSans-48"/>
       <use x="127.246094" xlink:href="#DejaVuSans-48"/>
      </g>
     </g>
    </g>
    <g id="xtick_3">
     <g id="line2d_5">
      <path clip-path="url(#p15327379b2)" d="M 161.059557 288.430125 
L 161.059557 22.318125 
" style="fill:none;stroke:#b0b0b0;stroke-dasharray:2.96,1.28;stroke-dashoffset:0;stroke-width:0.8;"/>
     </g>
     <g id="line2d_6">
      <g>
       <use style="stroke:#000000;stroke-width:0.8;" x="161.059557" xlink:href="#m78f164b5f4" y="288.430125"/>
      </g>
     </g>
     <g id="text_3">
      <!-- 400 -->
      <defs>
       <path d="M 37.796875 64.3125 
L 12.890625 25.390625 
L 37.796875 25.390625 
z
M 35.203125 72.90625 
L 47.609375 72.90625 
L 47.609375 25.390625 
L 58.015625 25.390625 
L 58.015625 17.1875 
L 47.609375 17.1875 
L 47.609375 0 
L 37.796875 0 
L 37.796875 17.1875 
L 4.890625 17.1875 
L 4.890625 26.703125 
z
" id="DejaVuSans-52"/>
      </defs>
      <g transform="translate(151.515807 303.028562)scale(0.1 -0.1)">
       <use xlink:href="#DejaVuSans-52"/>
       <use x="63.623047" xlink:href="#DejaVuSans-48"/>
       <use x="127.246094" xlink:href="#DejaVuSans-48"/>
      </g>
     </g>
    </g>
    <g id="xtick_4">
     <g id="line2d_7">
      <path clip-path="url(#p15327379b2)" d="M 209.990159 288.430125 
L 209.990159 22.318125 
" style="fill:none;stroke:#b0b0b0;stroke-dasharray:2.96,1.28;stroke-dashoffset:0;stroke-width:0.8;"/>
     </g>
     <g id="line2d_8">
      <g>
       <use style="stroke:#000000;stroke-width:0.8;" x="209.990159" xlink:href="#m78f164b5f4" y="288.430125"/>
      </g>
     </g>
     <g id="text_4">
      <!-- 600 -->
      <defs>
       <path d="M 33.015625 40.375 
Q 26.375 40.375 22.484375 35.828125 
Q 18.609375 31.296875 18.609375 23.390625 
Q 18.609375 15.53125 22.484375 10.953125 
Q 26.375 6.390625 33.015625 6.390625 
Q 39.65625 6.390625 43.53125 10.953125 
Q 47.40625 15.53125 47.40625 23.390625 
Q 47.40625 31.296875 43.53125 35.828125 
Q 39.65625 40.375 33.015625 40.375 
z
M 52.59375 71.296875 
L 52.59375 62.3125 
Q 48.875 64.0625 45.09375 64.984375 
Q 41.3125 65.921875 37.59375 65.921875 
Q 27.828125 65.921875 22.671875 59.328125 
Q 17.53125 52.734375 16.796875 39.40625 
Q 19.671875 43.65625 24.015625 45.921875 
Q 28.375 48.1875 33.59375 48.1875 
Q 44.578125 48.1875 50.953125 41.515625 
Q 57.328125 34.859375 57.328125 23.390625 
Q 57.328125 12.15625 50.6875 5.359375 
Q 44.046875 -1.421875 33.015625 -1.421875 
Q 20.359375 -1.421875 13.671875 8.265625 
Q 6.984375 17.96875 6.984375 36.375 
Q 6.984375 53.65625 15.1875 63.9375 
Q 23.390625 74.21875 37.203125 74.21875 
Q 40.921875 74.21875 44.703125 73.484375 
Q 48.484375 72.75 52.59375 71.296875 
z
" id="DejaVuSans-54"/>
      </defs>
      <g transform="translate(200.446409 303.028562)scale(0.1 -0.1)">
       <use xlink:href="#DejaVuSans-54"/>
       <use x="63.623047" xlink:href="#DejaVuSans-48"/>
       <use x="127.246094" xlink:href="#DejaVuSans-48"/>
      </g>
     </g>
    </g>
    <g id="xtick_5">
     <g id="line2d_9">
      <path clip-path="url(#p15327379b2)" d="M 258.920761 288.430125 
L 258.920761 22.318125 
" style="fill:none;stroke:#b0b0b0;stroke-dasharray:2.96,1.28;stroke-dashoffset:0;stroke-width:0.8;"/>
     </g>
     <g id="line2d_10">
      <g>
       <use style="stroke:#000000;stroke-width:0.8;" x="258.920761" xlink:href="#m78f164b5f4" y="288.430125"/>
      </g>
     </g>
     <g id="text_5">
      <!-- 800 -->
      <defs>
       <path d="M 31.78125 34.625 
Q 24.75 34.625 20.71875 30.859375 
Q 16.703125 27.09375 16.703125 20.515625 
Q 16.703125 13.921875 20.71875 10.15625 
Q 24.75 6.390625 31.78125 6.390625 
Q 38.8125 6.390625 42.859375 10.171875 
Q 46.921875 13.96875 46.921875 20.515625 
Q 46.921875 27.09375 42.890625 30.859375 
Q 38.875 34.625 31.78125 34.625 
z
M 21.921875 38.8125 
Q 15.578125 40.375 12.03125 44.71875 
Q 8.5 49.078125 8.5 55.328125 
Q 8.5 64.0625 14.71875 69.140625 
Q 20.953125 74.21875 31.78125 74.21875 
Q 42.671875 74.21875 48.875 69.140625 
Q 55.078125 64.0625 55.078125 55.328125 
Q 55.078125 49.078125 51.53125 44.71875 
Q 48 40.375 41.703125 38.8125 
Q 48.828125 37.15625 52.796875 32.3125 
Q 56.78125 27.484375 56.78125 20.515625 
Q 56.78125 9.90625 50.3125 4.234375 
Q 43.84375 -1.421875 31.78125 -1.421875 
Q 19.734375 -1.421875 13.25 4.234375 
Q 6.78125 9.90625 6.78125 20.515625 
Q 6.78125 27.484375 10.78125 32.3125 
Q 14.796875 37.15625 21.921875 38.8125 
z
M 18.3125 54.390625 
Q 18.3125 48.734375 21.84375 45.5625 
Q 25.390625 42.390625 31.78125 42.390625 
Q 38.140625 42.390625 41.71875 45.5625 
Q 45.3125 48.734375 45.3125 54.390625 
Q 45.3125 60.0625 41.71875 63.234375 
Q 38.140625 66.40625 31.78125 66.40625 
Q 25.390625 66.40625 21.84375 63.234375 
Q 18.3125 60.0625 18.3125 54.390625 
z
" id="DejaVuSans-56"/>
      </defs>
      <g transform="translate(249.377011 303.028562)scale(0.1 -0.1)">
       <use xlink:href="#DejaVuSans-56"/>
       <use x="63.623047" xlink:href="#DejaVuSans-48"/>
       <use x="127.246094" xlink:href="#DejaVuSans-48"/>
      </g>
     </g>
    </g>
    <g id="xtick_6">
     <g id="line2d_11">
      <path clip-path="url(#p15327379b2)" d="M 307.851363 288.430125 
L 307.851363 22.318125 
" style="fill:none;stroke:#b0b0b0;stroke-dasharray:2.96,1.28;stroke-dashoffset:0;stroke-width:0.8;"/>
     </g>
     <g id="line2d_12">
      <g>
       <use style="stroke:#000000;stroke-width:0.8;" x="307.851363" xlink:href="#m78f164b5f4" y="288.430125"/>
      </g>
     </g>
     <g id="text_6">
      <!-- 1000 -->
      <defs>
       <path d="M 12.40625 8.296875 
L 28.515625 8.296875 
L 28.515625 63.921875 
L 10.984375 60.40625 
L 10.984375 69.390625 
L 28.421875 72.90625 
L 38.28125 72.90625 
L 38.28125 8.296875 
L 54.390625 8.296875 
L 54.390625 0 
L 12.40625 0 
z
" id="DejaVuSans-49"/>
      </defs>
      <g transform="translate(295.126363 303.028562)scale(0.1 -0.1)">
       <use xlink:href="#DejaVuSans-49"/>
       <use x="63.623047" xlink:href="#DejaVuSans-48"/>
       <use x="127.246094" xlink:href="#DejaVuSans-48"/>
       <use x="190.869141" xlink:href="#DejaVuSans-48"/>
      </g>
     </g>
    </g>
    <g id="xtick_7">
     <g id="line2d_13">
      <path clip-path="url(#p15327379b2)" d="M 356.781965 288.430125 
L 356.781965 22.318125 
" style="fill:none;stroke:#b0b0b0;stroke-dasharray:2.96,1.28;stroke-dashoffset:0;stroke-width:0.8;"/>
     </g>
     <g id="line2d_14">
      <g>
       <use style="stroke:#000000;stroke-width:0.8;" x="356.781965" xlink:href="#m78f164b5f4" y="288.430125"/>
      </g>
     </g>
     <g id="text_7">
      <!-- 1200 -->
      <g transform="translate(344.056965 303.028562)scale(0.1 -0.1)">
       <use xlink:href="#DejaVuSans-49"/>
       <use x="63.623047" xlink:href="#DejaVuSans-50"/>
       <use x="127.246094" xlink:href="#DejaVuSans-48"/>
       <use x="190.869141" xlink:href="#DejaVuSans-48"/>
      </g>
     </g>
    </g>
    <g id="text_8">
     <!-- Day -->
     <defs>
      <path d="M 19.671875 64.796875 
L 19.671875 8.109375 
L 31.59375 8.109375 
Q 46.6875 8.109375 53.6875 14.9375 
Q 60.6875 21.78125 60.6875 36.53125 
Q 60.6875 51.171875 53.6875 57.984375 
Q 46.6875 64.796875 31.59375 64.796875 
z
M 9.8125 72.90625 
L 30.078125 72.90625 
Q 51.265625 72.90625 61.171875 64.09375 
Q 71.09375 55.28125 71.09375 36.53125 
Q 71.09375 17.671875 61.125 8.828125 
Q 51.171875 0 30.078125 0 
L 9.8125 0 
z
" id="DejaVuSans-68"/>
      <path d="M 34.28125 27.484375 
Q 23.390625 27.484375 19.1875 25 
Q 14.984375 22.515625 14.984375 16.5 
Q 14.984375 11.71875 18.140625 8.90625 
Q 21.296875 6.109375 26.703125 6.109375 
Q 34.1875 6.109375 38.703125 11.40625 
Q 43.21875 16.703125 43.21875 25.484375 
L 43.21875 27.484375 
z
M 52.203125 31.203125 
L 52.203125 0 
L 43.21875 0 
L 43.21875 8.296875 
Q 40.140625 3.328125 35.546875 0.953125 
Q 30.953125 -1.421875 24.3125 -1.421875 
Q 15.921875 -1.421875 10.953125 3.296875 
Q 6 8.015625 6 15.921875 
Q 6 25.140625 12.171875 29.828125 
Q 18.359375 34.515625 30.609375 34.515625 
L 43.21875 34.515625 
L 43.21875 35.40625 
Q 43.21875 41.609375 39.140625 45 
Q 35.0625 48.390625 27.6875 48.390625 
Q 23 48.390625 18.546875 47.265625 
Q 14.109375 46.140625 10.015625 43.890625 
L 10.015625 52.203125 
Q 14.9375 54.109375 19.578125 55.046875 
Q 24.21875 56 28.609375 56 
Q 40.484375 56 46.34375 49.84375 
Q 52.203125 43.703125 52.203125 31.203125 
z
" id="DejaVuSans-97"/>
      <path d="M 32.171875 -5.078125 
Q 28.375 -14.84375 24.75 -17.8125 
Q 21.140625 -20.796875 15.09375 -20.796875 
L 7.90625 -20.796875 
L 7.90625 -13.28125 
L 13.1875 -13.28125 
Q 16.890625 -13.28125 18.9375 -11.515625 
Q 21 -9.765625 23.484375 -3.21875 
L 25.09375 0.875 
L 2.984375 54.6875 
L 12.5 54.6875 
L 29.59375 11.921875 
L 46.6875 54.6875 
L 56.203125 54.6875 
z
" id="DejaVuSans-121"/>
     </defs>
     <g transform="translate(215.652188 316.706687)scale(0.1 -0.1)">
      <use xlink:href="#DejaVuSans-68"/>
      <use x="77.001953" xlink:href="#DejaVuSans-97"/>
      <use x="138.28125" xlink:href="#DejaVuSans-121"/>
     </g>
    </g>
   </g>
   <g id="matplotlib.axis_2">
    <g id="ytick_1">
     <g id="line2d_15">
      <path clip-path="url(#p15327379b2)" d="M 46.965625 258.431073 
L 404.085625 258.431073 
" style="fill:none;stroke:#b0b0b0;stroke-dasharray:2.96,1.28;stroke-dashoffset:0;stroke-width:0.8;"/>
     </g>
     <g id="line2d_16">
      <defs>
       <path d="M 0 0 
L -3.5 0 
" id="m18beab532e" style="stroke:#000000;stroke-width:0.8;"/>
      </defs>
      <g>
       <use style="stroke:#000000;stroke-width:0.8;" x="46.965625" xlink:href="#m18beab532e" y="258.431073"/>
      </g>
     </g>
     <g id="text_9">
      <!-- 60 -->
      <g transform="translate(27.240625 262.230291)scale(0.1 -0.1)">
       <use xlink:href="#DejaVuSans-54"/>
       <use x="63.623047" xlink:href="#DejaVuSans-48"/>
      </g>
     </g>
    </g>
    <g id="ytick_2">
     <g id="line2d_17">
      <path clip-path="url(#p15327379b2)" d="M 46.965625 216.844423 
L 404.085625 216.844423 
" style="fill:none;stroke:#b0b0b0;stroke-dasharray:2.96,1.28;stroke-dashoffset:0;stroke-width:0.8;"/>
     </g>
     <g id="line2d_18">
      <g>
       <use style="stroke:#000000;stroke-width:0.8;" x="46.965625" xlink:href="#m18beab532e" y="216.844423"/>
      </g>
     </g>
     <g id="text_10">
      <!-- 80 -->
      <g transform="translate(27.240625 220.643642)scale(0.1 -0.1)">
       <use xlink:href="#DejaVuSans-56"/>
       <use x="63.623047" xlink:href="#DejaVuSans-48"/>
      </g>
     </g>
    </g>
    <g id="ytick_3">
     <g id="line2d_19">
      <path clip-path="url(#p15327379b2)" d="M 46.965625 175.257774 
L 404.085625 175.257774 
" style="fill:none;stroke:#b0b0b0;stroke-dasharray:2.96,1.28;stroke-dashoffset:0;stroke-width:0.8;"/>
     </g>
     <g id="line2d_20">
      <g>
       <use style="stroke:#000000;stroke-width:0.8;" x="46.965625" xlink:href="#m18beab532e" y="175.257774"/>
      </g>
     </g>
     <g id="text_11">
      <!-- 100 -->
      <g transform="translate(20.878125 179.056993)scale(0.1 -0.1)">
       <use xlink:href="#DejaVuSans-49"/>
       <use x="63.623047" xlink:href="#DejaVuSans-48"/>
       <use x="127.246094" xlink:href="#DejaVuSans-48"/>
      </g>
     </g>
    </g>
    <g id="ytick_4">
     <g id="line2d_21">
      <path clip-path="url(#p15327379b2)" d="M 46.965625 133.671125 
L 404.085625 133.671125 
" style="fill:none;stroke:#b0b0b0;stroke-dasharray:2.96,1.28;stroke-dashoffset:0;stroke-width:0.8;"/>
     </g>
     <g id="line2d_22">
      <g>
       <use style="stroke:#000000;stroke-width:0.8;" x="46.965625" xlink:href="#m18beab532e" y="133.671125"/>
      </g>
     </g>
     <g id="text_12">
      <!-- 120 -->
      <g transform="translate(20.878125 137.470344)scale(0.1 -0.1)">
       <use xlink:href="#DejaVuSans-49"/>
       <use x="63.623047" xlink:href="#DejaVuSans-50"/>
       <use x="127.246094" xlink:href="#DejaVuSans-48"/>
      </g>
     </g>
    </g>
    <g id="ytick_5">
     <g id="line2d_23">
      <path clip-path="url(#p15327379b2)" d="M 46.965625 92.084476 
L 404.085625 92.084476 
" style="fill:none;stroke:#b0b0b0;stroke-dasharray:2.96,1.28;stroke-dashoffset:0;stroke-width:0.8;"/>
     </g>
     <g id="line2d_24">
      <g>
       <use style="stroke:#000000;stroke-width:0.8;" x="46.965625" xlink:href="#m18beab532e" y="92.084476"/>
      </g>
     </g>
     <g id="text_13">
      <!-- 140 -->
      <g transform="translate(20.878125 95.883694)scale(0.1 -0.1)">
       <use xlink:href="#DejaVuSans-49"/>
       <use x="63.623047" xlink:href="#DejaVuSans-52"/>
       <use x="127.246094" xlink:href="#DejaVuSans-48"/>
      </g>
     </g>
    </g>
    <g id="ytick_6">
     <g id="line2d_25">
      <path clip-path="url(#p15327379b2)" d="M 46.965625 50.497826 
L 404.085625 50.497826 
" style="fill:none;stroke:#b0b0b0;stroke-dasharray:2.96,1.28;stroke-dashoffset:0;stroke-width:0.8;"/>
     </g>
     <g id="line2d_26">
      <g>
       <use style="stroke:#000000;stroke-width:0.8;" x="46.965625" xlink:href="#m18beab532e" y="50.497826"/>
      </g>
     </g>
     <g id="text_14">
      <!-- 160 -->
      <g transform="translate(20.878125 54.297045)scale(0.1 -0.1)">
       <use xlink:href="#DejaVuSans-49"/>
       <use x="63.623047" xlink:href="#DejaVuSans-54"/>
       <use x="127.246094" xlink:href="#DejaVuSans-48"/>
      </g>
     </g>
    </g>
    <g id="text_15">
     <!-- Price $ -->
     <defs>
      <path d="M 19.671875 64.796875 
L 19.671875 37.40625 
L 32.078125 37.40625 
Q 38.96875 37.40625 42.71875 40.96875 
Q 46.484375 44.53125 46.484375 51.125 
Q 46.484375 57.671875 42.71875 61.234375 
Q 38.96875 64.796875 32.078125 64.796875 
z
M 9.8125 72.90625 
L 32.078125 72.90625 
Q 44.34375 72.90625 50.609375 67.359375 
Q 56.890625 61.8125 56.890625 51.125 
Q 56.890625 40.328125 50.609375 34.8125 
Q 44.34375 29.296875 32.078125 29.296875 
L 19.671875 29.296875 
L 19.671875 0 
L 9.8125 0 
z
" id="DejaVuSans-80"/>
      <path d="M 41.109375 46.296875 
Q 39.59375 47.171875 37.8125 47.578125 
Q 36.03125 48 33.890625 48 
Q 26.265625 48 22.1875 43.046875 
Q 18.109375 38.09375 18.109375 28.8125 
L 18.109375 0 
L 9.078125 0 
L 9.078125 54.6875 
L 18.109375 54.6875 
L 18.109375 46.1875 
Q 20.953125 51.171875 25.484375 53.578125 
Q 30.03125 56 36.53125 56 
Q 37.453125 56 38.578125 55.875 
Q 39.703125 55.765625 41.0625 55.515625 
z
" id="DejaVuSans-114"/>
      <path d="M 9.421875 54.6875 
L 18.40625 54.6875 
L 18.40625 0 
L 9.421875 0 
z
M 9.421875 75.984375 
L 18.40625 75.984375 
L 18.40625 64.59375 
L 9.421875 64.59375 
z
" id="DejaVuSans-105"/>
      <path d="M 48.78125 52.59375 
L 48.78125 44.1875 
Q 44.96875 46.296875 41.140625 47.34375 
Q 37.3125 48.390625 33.40625 48.390625 
Q 24.65625 48.390625 19.8125 42.84375 
Q 14.984375 37.3125 14.984375 27.296875 
Q 14.984375 17.28125 19.8125 11.734375 
Q 24.65625 6.203125 33.40625 6.203125 
Q 37.3125 6.203125 41.140625 7.25 
Q 44.96875 8.296875 48.78125 10.40625 
L 48.78125 2.09375 
Q 45.015625 0.34375 40.984375 -0.53125 
Q 36.96875 -1.421875 32.421875 -1.421875 
Q 20.0625 -1.421875 12.78125 6.34375 
Q 5.515625 14.109375 5.515625 27.296875 
Q 5.515625 40.671875 12.859375 48.328125 
Q 20.21875 56 33.015625 56 
Q 37.15625 56 41.109375 55.140625 
Q 45.0625 54.296875 48.78125 52.59375 
z
" id="DejaVuSans-99"/>
      <path d="M 56.203125 29.59375 
L 56.203125 25.203125 
L 14.890625 25.203125 
Q 15.484375 15.921875 20.484375 11.0625 
Q 25.484375 6.203125 34.421875 6.203125 
Q 39.59375 6.203125 44.453125 7.46875 
Q 49.3125 8.734375 54.109375 11.28125 
L 54.109375 2.78125 
Q 49.265625 0.734375 44.1875 -0.34375 
Q 39.109375 -1.421875 33.890625 -1.421875 
Q 20.796875 -1.421875 13.15625 6.1875 
Q 5.515625 13.8125 5.515625 26.8125 
Q 5.515625 40.234375 12.765625 48.109375 
Q 20.015625 56 32.328125 56 
Q 43.359375 56 49.78125 48.890625 
Q 56.203125 41.796875 56.203125 29.59375 
z
M 47.21875 32.234375 
Q 47.125 39.59375 43.09375 43.984375 
Q 39.0625 48.390625 32.421875 48.390625 
Q 24.90625 48.390625 20.390625 44.140625 
Q 15.875 39.890625 15.1875 32.171875 
z
" id="DejaVuSans-101"/>
      <path id="DejaVuSans-32"/>
      <path d="M 33.796875 -14.703125 
L 28.90625 -14.703125 
L 28.859375 0 
Q 23.734375 0.09375 18.609375 1.1875 
Q 13.484375 2.296875 8.296875 4.5 
L 8.296875 13.28125 
Q 13.28125 10.15625 18.375 8.5625 
Q 23.484375 6.984375 28.90625 6.9375 
L 28.90625 29.203125 
Q 18.109375 30.953125 13.203125 35.15625 
Q 8.296875 39.359375 8.296875 46.6875 
Q 8.296875 54.640625 13.625 59.21875 
Q 18.953125 63.8125 28.90625 64.5 
L 28.90625 75.984375 
L 33.796875 75.984375 
L 33.796875 64.65625 
Q 38.328125 64.453125 42.578125 63.6875 
Q 46.828125 62.9375 50.875 61.625 
L 50.875 53.078125 
Q 46.828125 55.125 42.546875 56.25 
Q 38.28125 57.375 33.796875 57.5625 
L 33.796875 36.71875 
Q 44.875 35.015625 50.09375 30.609375 
Q 55.328125 26.21875 55.328125 18.609375 
Q 55.328125 10.359375 49.78125 5.59375 
Q 44.234375 0.828125 33.796875 0.09375 
z
M 28.90625 37.59375 
L 28.90625 57.625 
Q 23.25 56.984375 20.265625 54.390625 
Q 17.28125 51.8125 17.28125 47.515625 
Q 17.28125 43.3125 20.03125 40.96875 
Q 22.796875 38.625 28.90625 37.59375 
z
M 33.796875 28.21875 
L 33.796875 7.078125 
Q 39.984375 7.90625 43.140625 10.59375 
Q 46.296875 13.28125 46.296875 17.671875 
Q 46.296875 21.96875 43.28125 24.5 
Q 40.28125 27.046875 33.796875 28.21875 
z
" id="DejaVuSans-36"/>
     </defs>
     <g transform="translate(14.798438 172.342094)rotate(-90)scale(0.1 -0.1)">
      <use xlink:href="#DejaVuSans-80"/>
      <use x="58.552734" xlink:href="#DejaVuSans-114"/>
      <use x="99.666016" xlink:href="#DejaVuSans-105"/>
      <use x="127.449219" xlink:href="#DejaVuSans-99"/>
      <use x="182.429688" xlink:href="#DejaVuSans-101"/>
      <use x="243.953125" xlink:href="#DejaVuSans-32"/>
      <use x="275.740234" xlink:href="#DejaVuSans-36"/>
     </g>
    </g>
   </g>
   <g id="line2d_27">
    <path clip-path="url(#p15327379b2)" d="M 63.198352 271.416692 
L 63.443005 272.417031 
L 63.932311 275.703752 
L 64.176964 275.705283 
L 64.421617 274.6742 
L 64.66627 274.678467 
L 64.910923 274.277701 
L 65.400229 272.163825 
L 65.644882 272.185749 
L 65.889535 272.613214 
L 66.134188 272.105239 
L 66.868147 266.331519 
L 67.1128 264.484436 
L 67.357453 265.399046 
L 67.602106 265.487163 
L 68.091412 264.772638 
L 68.336066 264.8205 
L 68.580719 265.400926 
L 68.825372 265.675921 
L 69.070025 264.958541 
L 69.559331 265.386807 
L 69.803984 265.050267 
L 70.048637 264.975421 
L 70.29329 263.353385 
L 70.782596 263.807842 
L 71.027249 264.693508 
L 71.271902 264.576162 
L 71.761208 259.443572 
L 72.005861 260.615425 
L 72.250514 260.468199 
L 72.495167 259.808262 
L 72.73982 259.523082 
L 72.984473 259.684705 
L 73.229126 259.653437 
L 73.473779 259.284074 
L 73.718432 259.676281 
L 73.963085 259.169584 
L 74.207738 257.691491 
L 74.452391 257.264264 
L 74.697044 257.754733 
L 74.941697 254.917725 
L 75.18635 254.465513 
L 75.431003 252.049426 
L 76.409615 260.021745 
L 76.654268 259.175921 
L 77.143574 256.708007 
L 77.63288 254.422045 
L 77.877533 254.576236 
L 78.122186 254.305881 
L 78.366839 254.593194 
L 78.611492 255.626031 
L 79.100798 258.142902 
L 79.590104 253.836345 
L 79.834757 253.933306 
L 80.07941 253.070246 
L 80.324063 253.026152 
L 80.568716 254.145503 
L 80.813369 256.057335 
L 81.058022 256.221282 
L 81.302675 255.856488 
L 81.547328 251.345229 
L 81.791981 254.808279 
L 82.036634 255.340875 
L 82.281287 253.948868 
L 82.52594 251.109465 
L 83.015246 249.667281 
L 83.259899 248.01669 
L 83.504552 248.514091 
L 83.749205 249.545445 
L 83.993858 248.077862 
L 84.238511 249.301916 
L 84.483164 247.613013 
L 84.727817 247.479454 
L 84.97247 249.33128 
L 85.217123 249.597574 
L 85.461776 249.12408 
L 85.706429 248.969659 
L 85.951082 251.709491 
L 86.195735 252.123773 
L 86.440388 251.954773 
L 86.929694 253.931965 
L 87.174347 251.388887 
L 87.419 251.709951 
L 87.663653 254.146455 
L 87.908306 254.251784 
L 88.152959 255.12437 
L 88.397612 254.665701 
L 88.642265 255.778596 
L 88.886918 255.825181 
L 89.131571 256.54498 
L 89.376224 254.391451 
L 89.620877 251.165894 
L 89.86553 251.071733 
L 90.354836 251.970209 
L 90.599489 251.107181 
L 90.844143 251.331768 
L 91.088796 250.526121 
L 91.333449 250.294625 
L 91.578102 250.868768 
L 91.822755 249.94295 
L 92.067408 250.052872 
L 92.312061 247.519416 
L 92.556714 246.500626 
L 92.801367 246.003749 
L 93.535326 241.77598 
L 94.024632 243.093156 
L 94.269285 242.972272 
L 94.513938 243.511665 
L 94.758591 242.819644 
L 95.003244 244.994494 
L 95.247897 244.833664 
L 95.49255 244.051614 
L 95.737203 245.01039 
L 95.981856 243.526467 
L 96.226509 244.640852 
L 96.471162 242.87512 
L 96.715815 242.660829 
L 96.960468 242.877611 
L 97.205121 242.641792 
L 97.449774 242.565867 
L 97.694427 244.661016 
L 97.93908 248.853963 
L 98.183733 246.561084 
L 98.428386 249.741398 
L 98.673039 242.570325 
L 99.162345 240.430423 
L 99.406998 239.285372 
L 99.651651 236.759784 
L 99.896304 236.231432 
L 100.140957 236.186314 
L 100.38561 236.673864 
L 100.630263 234.252899 
L 100.874916 234.457704 
L 101.119569 235.590048 
L 101.364222 235.577072 
L 101.608875 236.696994 
L 101.853528 239.055835 
L 102.098181 238.453096 
L 102.342834 239.646533 
L 102.83214 239.20813 
L 103.076793 237.977778 
L 103.321446 238.201207 
L 103.566099 237.132161 
L 103.810752 237.827101 
L 104.055405 237.755634 
L 104.300058 237.988708 
L 104.544711 235.218861 
L 104.789364 236.530501 
L 105.034017 235.881915 
L 105.27867 237.144328 
L 105.523323 234.835745 
L 105.767976 234.731708 
L 106.012629 233.689821 
L 106.257282 233.267314 
L 106.501935 229.742529 
L 106.746588 232.739961 
L 106.991241 232.298607 
L 107.235894 231.442298 
L 107.480547 232.055221 
L 107.7252 229.10665 
L 107.969853 229.188651 
L 108.214506 230.055082 
L 108.459159 230.295121 
L 108.703812 230.11481 
L 108.948465 230.196034 
L 109.193118 229.545212 
L 109.682424 231.510529 
L 110.17173 229.03366 
L 110.416383 226.361107 
L 110.661036 226.744224 
L 111.639648 223.411013 
L 112.128954 220.892659 
L 112.373607 223.222246 
L 112.61826 222.916276 
L 112.862913 223.13739 
L 113.107566 219.201741 
L 113.35222 217.185707 
L 113.596873 218.778409 
L 113.841526 218.645945 
L 114.086179 216.875104 
L 114.330832 217.541378 
L 114.575485 217.743772 
L 114.820138 219.14958 
L 115.064791 218.321556 
L 115.554097 226.43167 
L 116.043403 219.215099 
L 116.288056 221.194202 
L 116.532709 221.389092 
L 116.777362 223.772586 
L 117.266668 223.572826 
L 117.511321 224.441874 
L 117.755974 222.480269 
L 118.000627 224.934707 
L 118.24528 229.067085 
L 118.489933 229.208814 
L 118.734586 229.948523 
L 118.979239 228.753342 
L 119.223892 225.44875 
L 119.468545 224.142171 
L 119.713198 221.896218 
L 119.957851 222.946513 
L 120.69181 220.223719 
L 121.181116 217.162006 
L 121.425769 217.726766 
L 121.670422 216.720382 
L 121.915075 215.23922 
L 122.404381 215.88449 
L 122.649034 215.428065 
L 122.893687 216.395153 
L 123.13834 216.709531 
L 123.382993 216.516466 
L 123.872299 215.896182 
L 124.116952 218.502359 
L 124.361605 218.96313 
L 124.850911 219.320008 
L 125.095564 218.364342 
L 125.340217 219.279174 
L 125.58487 216.243509 
L 125.829523 217.274402 
L 126.074176 216.483469 
L 126.318829 218.93962 
L 126.563482 216.457388 
L 126.808135 218.580378 
L 127.297441 217.657186 
L 127.786747 226.395802 
L 128.0314 226.075379 
L 128.276053 226.400132 
L 128.765359 229.35378 
L 129.010012 228.982561 
L 129.254665 229.17458 
L 129.499318 226.157761 
L 129.743971 228.723708 
L 129.988624 226.93134 
L 130.233277 226.819276 
L 130.722583 229.059439 
L 130.967236 228.490078 
L 131.211889 230.890705 
L 131.456542 231.461144 
L 132.190501 226.74857 
L 132.435154 225.899463 
L 132.679807 226.701042 
L 133.169113 225.160183 
L 133.658419 219.602102 
L 134.147725 224.861716 
L 134.392378 224.529349 
L 134.637031 225.71387 
L 134.881684 224.52459 
L 135.37099 225.045819 
L 135.615643 224.258819 
L 135.860297 224.143107 
L 136.10495 224.98993 
L 136.349603 225.238821 
L 136.838909 228.271662 
L 137.083562 228.592433 
L 137.572868 224.133684 
L 137.817521 224.157004 
L 138.062174 226.459369 
L 138.306827 226.979472 
L 138.55148 225.453636 
L 138.796133 227.52464 
L 139.040786 227.654074 
L 139.530092 226.616074 
L 139.774745 223.232399 
L 140.019398 224.294593 
L 140.264051 224.624454 
L 140.508704 221.754045 
L 140.753357 221.010195 
L 140.99801 220.962175 
L 141.242663 222.74504 
L 141.487316 222.698542 
L 141.976622 223.904083 
L 142.221275 225.427746 
L 142.465928 225.932333 
L 142.710581 226.083883 
L 142.955234 224.473745 
L 143.689193 216.625912 
L 143.933846 217.289251 
L 144.178499 215.634869 
L 144.423152 216.934626 
L 144.667805 216.914542 
L 144.912458 218.219931 
L 145.646417 215.186583 
L 145.89107 215.187646 
L 146.625029 219.675426 
L 146.869682 219.368409 
L 147.114335 216.917937 
L 147.358988 217.37625 
L 147.603641 219.368901 
L 147.848294 218.594957 
L 148.092947 219.471906 
L 148.3376 218.534055 
L 148.582253 218.266762 
L 148.826906 219.318025 
L 149.071559 216.540722 
L 149.560865 216.521273 
L 149.805518 215.560927 
L 150.050171 215.335403 
L 150.294824 213.369293 
L 150.539477 213.170024 
L 151.028783 211.533664 
L 151.273436 212.214517 
L 151.518089 212.532242 
L 151.762742 214.006789 
L 152.252048 212.470118 
L 152.496701 213.329918 
L 152.741354 212.433092 
L 152.986007 214.460787 
L 153.475313 214.112507 
L 153.719966 213.754503 
L 153.964619 214.304589 
L 154.453925 215.961097 
L 154.698578 215.87467 
L 154.943231 218.086324 
L 155.432537 219.399693 
L 155.67719 223.167769 
L 155.921843 222.774737 
L 156.166496 222.907012 
L 156.411149 226.513941 
L 156.655802 226.769654 
L 156.900455 226.385331 
L 157.145108 224.712214 
L 157.389761 223.885237 
L 157.634414 223.946837 
L 157.879067 223.380538 
L 158.368374 221.423041 
L 158.613027 220.756164 
L 158.85768 221.53712 
L 159.102333 223.764543 
L 159.346986 221.731708 
L 159.836292 220.939584 
L 160.080945 214.605927 
L 160.325598 212.932286 
L 160.570251 212.376695 
L 160.814904 212.160214 
L 161.059557 212.213168 
L 161.30421 210.459192 
L 161.548863 210.392214 
L 161.793516 211.516277 
L 162.038169 211.162619 
L 162.282822 211.851881 
L 162.772128 215.019201 
L 163.016781 218.797986 
L 163.261434 217.696116 
L 163.75074 216.750572 
L 163.995393 216.937022 
L 164.484699 215.56843 
L 164.729352 217.216356 
L 164.974005 217.493168 
L 165.218658 218.756469 
L 165.463311 219.189621 
L 165.707964 219.108715 
L 166.441923 216.749096 
L 166.931229 219.068436 
L 167.175882 222.274877 
L 167.420535 222.375693 
L 167.665188 221.05939 
L 168.154494 225.303673 
L 168.399147 224.707359 
L 168.6438 224.944638 
L 169.377759 220.783339 
L 169.622412 217.194939 
L 169.867065 219.517055 
L 170.111718 216.955392 
L 170.356371 217.758288 
L 170.601024 216.173041 
L 170.845677 217.350788 
L 171.09033 217.407803 
L 171.334983 217.767267 
L 171.579636 217.711282 
L 171.824289 219.209134 
L 172.068942 221.701059 
L 172.313595 222.431075 
L 172.558248 222.539712 
L 173.047554 220.008777 
L 173.53686 224.085314 
L 173.781513 224.177373 
L 174.026166 221.905388 
L 174.270819 223.694218 
L 174.515472 220.751104 
L 174.760125 220.503387 
L 175.494084 217.182645 
L 175.738737 217.185532 
L 176.228043 216.000281 
L 176.472696 214.663783 
L 177.206655 215.67629 
L 177.451308 215.170766 
L 177.695961 215.166768 
L 177.940614 214.882405 
L 178.674573 220.292998 
L 178.919226 218.917854 
L 179.408532 214.963058 
L 179.897838 216.065673 
L 180.142491 215.077343 
L 180.387144 215.479766 
L 180.631798 215.418103 
L 180.876451 214.905805 
L 181.121104 214.097563 
L 181.365757 214.49445 
L 181.61041 212.651286 
L 182.099716 212.317697 
L 182.589022 214.819092 
L 182.833675 215.008921 
L 183.078328 217.577279 
L 183.322981 217.271023 
L 183.567634 217.717089 
L 183.812287 216.842583 
L 184.301593 217.455697 
L 184.546246 216.304712 
L 184.790899 217.072104 
L 185.280205 214.31736 
L 185.524858 214.0504 
L 185.769511 214.337634 
L 186.014164 214.340934 
L 186.258817 214.533714 
L 186.50347 212.934173 
L 186.992776 216.928154 
L 187.237429 216.457182 
L 187.482082 216.353843 
L 187.726735 215.510812 
L 187.971388 215.572745 
L 188.216041 211.501063 
L 188.460694 210.588087 
L 188.705347 210.383568 
L 188.95 209.99658 
L 189.194653 208.519621 
L 189.683959 208.946777 
L 189.928612 199.408407 
L 190.173265 194.251275 
L 190.417918 193.491736 
L 190.662571 193.630086 
L 190.907224 193.325608 
L 191.641183 190.601719 
L 191.885836 188.493752 
L 192.375142 197.618752 
L 192.864448 192.320335 
L 193.109101 194.111195 
L 193.353754 197.91376 
L 193.598407 197.212648 
L 193.84306 197.323316 
L 194.087713 198.126433 
L 194.332366 197.089861 
L 195.066325 191.537269 
L 195.310978 190.972509 
L 195.800284 192.676847 
L 196.044937 189.611279 
L 196.28959 191.898113 
L 196.534243 189.960335 
L 196.778896 189.929639 
L 197.268202 193.683231 
L 197.757508 188.388716 
L 198.002161 188.973211 
L 198.246814 190.68326 
L 198.491467 187.225278 
L 198.73612 189.447498 
L 198.980773 190.427072 
L 199.225426 194.382423 
L 199.470079 195.271666 
L 199.714732 199.918706 
L 200.204038 195.187761 
L 200.448691 191.985223 
L 200.693344 187.22282 
L 200.937997 188.997816 
L 201.18265 185.882276 
L 201.427303 185.34964 
L 201.671956 184.477197 
L 201.916609 182.033943 
L 202.161262 182.330252 
L 202.405915 180.069197 
L 202.650568 180.022699 
L 202.895221 183.031982 
L 203.384528 183.728763 
L 203.629181 180.699142 
L 204.118487 178.79836 
L 204.36314 178.780656 
L 204.852446 177.058534 
L 205.097099 178.714629 
L 205.341752 179.160346 
L 205.586405 183.228744 
L 206.320364 178.469815 
L 206.565017 178.423302 
L 206.80967 181.2465 
L 207.054323 179.6903 
L 207.298976 176.259652 
L 207.788282 178.803516 
L 208.522241 175.710502 
L 208.766894 174.09651 
L 209.2562 177.199851 
L 209.500853 174.318908 
L 209.745506 175.375009 
L 209.990159 174.715287 
L 210.234812 180.949636 
L 210.724118 173.606358 
L 211.213424 167.840523 
L 211.458077 167.284805 
L 211.70273 167.646601 
L 211.947383 167.210942 
L 212.192036 165.574391 
L 212.436689 166.091876 
L 212.681342 164.610825 
L 213.415301 172.81571 
L 213.904607 161.143404 
L 214.14926 164.942352 
L 214.393913 165.671717 
L 214.883219 169.356475 
L 215.127872 172.75906 
L 215.372525 166.307278 
L 215.617178 168.309353 
L 215.861831 167.663385 
L 216.106484 162.529874 
L 216.351137 163.943139 
L 216.59579 161.849735 
L 216.840443 164.237068 
L 217.085096 165.090173 
L 217.329749 159.121356 
L 217.574402 165.892814 
L 217.819055 165.724449 
L 218.063708 160.037791 
L 218.308361 157.598313 
L 218.553014 156.419773 
L 218.797667 156.337565 
L 219.04232 157.746626 
L 219.286973 152.774706 
L 219.531626 153.706973 
L 219.776279 149.643921 
L 220.020932 150.400366 
L 220.265585 150.015028 
L 220.510238 150.212615 
L 220.754891 152.32147 
L 220.999544 149.61976 
L 221.244197 149.581178 
L 221.48885 140.023264 
L 221.733503 141.155529 
L 222.222809 144.323405 
L 222.467462 141.551384 
L 222.712115 141.741864 
L 222.956768 144.269261 
L 223.201421 141.906882 
L 223.446074 144.869762 
L 223.690727 143.225866 
L 223.93538 148.688016 
L 224.180033 147.568189 
L 224.424686 141.362666 
L 224.669339 144.091837 
L 224.913992 140.604015 
L 225.158645 142.65695 
L 225.403298 141.638208 
L 225.647952 143.386379 
L 225.892605 138.790659 
L 226.137258 141.534426 
L 226.381911 141.557238 
L 226.871217 149.285012 
L 227.11587 146.084314 
L 227.360523 144.58816 
L 227.849829 147.781101 
L 228.094482 144.598963 
L 228.339135 143.816278 
L 228.583788 145.32606 
L 228.828441 142.576138 
L 229.073094 144.680948 
L 229.317747 143.386458 
L 229.807053 145.827697 
L 230.051706 146.901185 
L 230.296359 147.19724 
L 230.541012 149.632197 
L 230.785665 148.165486 
L 231.030318 147.567793 
L 231.274971 147.996043 
L 231.519624 145.983593 
L 231.764277 146.437289 
L 232.00893 151.161793 
L 232.253583 152.637149 
L 232.742889 160.187658 
L 232.987542 154.902567 
L 233.232195 154.003345 
L 233.476848 158.084228 
L 233.721501 157.685962 
L 234.210807 149.158322 
L 234.45546 150.389118 
L 234.700113 149.009375 
L 234.944766 151.68161 
L 235.189419 150.149777 
L 235.678725 145.215281 
L 235.923378 149.346279 
L 236.168031 149.828007 
L 236.412684 149.95043 
L 236.657337 149.699699 
L 236.90199 152.23306 
L 237.146643 149.698065 
L 237.391296 149.576245 
L 237.635949 151.218427 
L 237.880602 150.505814 
L 238.125255 150.793763 
L 238.369908 147.551754 
L 238.859214 153.407063 
L 239.34852 155.077055 
L 239.593173 152.126121 
L 239.837826 151.497159 
L 240.327132 154.066151 
L 240.571785 153.740716 
L 240.816438 153.099745 
L 241.061091 150.44634 
L 241.550397 147.956018 
L 241.79505 147.889658 
L 242.039703 149.183942 
L 242.284356 149.603356 
L 242.529009 148.716413 
L 242.773662 153.091273 
L 243.262968 149.840444 
L 243.507621 151.136363 
L 243.752274 151.458831 
L 243.996927 149.189463 
L 244.24158 152.044928 
L 244.486233 151.313342 
L 244.975539 143.969636 
L 245.220192 143.187174 
L 245.464845 142.796982 
L 245.709498 144.515899 
L 245.954151 144.861037 
L 246.198804 147.217594 
L 246.443457 145.954768 
L 246.68811 143.991132 
L 246.932763 144.759777 
L 247.422069 147.698703 
L 247.911375 140.912872 
L 248.156029 141.037611 
L 248.400682 139.718278 
L 248.645335 139.999087 
L 249.134641 137.737731 
L 249.379294 140.5134 
L 249.623947 139.735871 
L 249.8686 138.442792 
L 250.113253 138.233546 
L 250.357906 138.220029 
L 250.602559 135.44912 
L 250.847212 133.957423 
L 251.091865 134.230031 
L 251.336518 127.861187 
L 251.581171 127.708749 
L 251.825824 132.563053 
L 252.31513 148.835267 
L 252.559783 151.539579 
L 252.804436 141.917431 
L 253.049089 138.335329 
L 253.293742 138.892189 
L 253.538395 140.79789 
L 253.783048 147.684473 
L 254.027701 140.601302 
L 254.272354 140.292112 
L 254.517007 144.961171 
L 254.76166 140.678386 
L 255.006313 145.874242 
L 255.250966 144.705125 
L 255.495619 142.882378 
L 255.740272 144.344916 
L 256.229578 138.053901 
L 256.474231 137.929813 
L 256.718884 143.585647 
L 256.963537 140.54305 
L 257.20819 142.18106 
L 257.452843 141.315518 
L 257.697496 141.198584 
L 257.942149 139.974561 
L 258.186802 145.726516 
L 258.431455 147.85241 
L 258.920761 139.729636 
L 259.165414 138.047365 
L 259.410067 135.006053 
L 259.65472 136.165048 
L 260.144026 131.34774 
L 260.388679 130.803191 
L 260.633332 129.579866 
L 260.877985 130.205449 
L 261.122638 132.869737 
L 261.611944 127.607426 
L 261.856597 127.015411 
L 262.10125 127.536291 
L 262.345903 126.425443 
L 262.590556 124.345619 
L 262.835209 123.912292 
L 263.079862 123.019305 
L 263.569168 125.482405 
L 263.813821 125.888794 
L 264.058474 125.937322 
L 264.303127 124.263459 
L 264.54778 121.600726 
L 264.792433 122.22009 
L 265.281739 120.884195 
L 265.526392 124.028227 
L 265.771045 122.403082 
L 266.015698 123.503793 
L 266.260351 125.553761 
L 266.505004 133.188176 
L 266.749657 131.437594 
L 266.99431 120.480915 
L 267.483616 119.232271 
L 267.972922 107.659417 
L 268.462228 103.228969 
L 268.706881 103.047199 
L 268.951534 104.929468 
L 269.196187 103.512523 
L 269.44084 104.793069 
L 269.685493 110.64281 
L 269.930146 103.161452 
L 270.174799 104.351699 
L 270.419452 104.587852 
L 270.664106 108.442022 
L 270.908759 107.085741 
L 271.153412 111.379568 
L 271.398065 108.276433 
L 271.642718 109.675388 
L 271.887371 106.480084 
L 272.376677 111.877572 
L 272.62133 109.771969 
L 272.865983 108.7284 
L 273.110636 106.270615 
L 273.599942 106.971203 
L 273.844595 105.000951 
L 274.089248 105.821503 
L 275.06786 114.342084 
L 275.312513 121.767568 
L 275.557166 124.871179 
L 276.046472 118.084698 
L 276.291125 130.243777 
L 276.535778 133.710182 
L 276.780431 134.56067 
L 277.025084 133.602894 
L 277.269737 140.330344 
L 277.759043 127.815451 
L 278.003696 129.952116 
L 278.248349 128.983394 
L 278.493002 130.088991 
L 278.737655 128.671491 
L 278.982308 121.571076 
L 279.226961 120.004851 
L 279.716267 125.467017 
L 279.96092 130.914239 
L 280.450226 149.594774 
L 280.694879 145.805376 
L 280.939532 144.874268 
L 281.184185 147.090031 
L 281.918144 131.03268 
L 282.162797 133.487562 
L 282.896756 124.330754 
L 283.386062 119.408743 
L 283.630715 120.631877 
L 283.875368 124.966125 
L 284.120021 121.767013 
L 284.364674 121.849284 
L 284.609327 119.332675 
L 284.85398 121.904824 
L 285.343286 119.515952 
L 285.587939 120.899123 
L 285.832592 121.079846 
L 286.077245 115.800783 
L 286.321898 114.98848 
L 286.811204 111.686537 
L 287.30051 109.866106 
L 288.034469 112.150687 
L 288.279122 111.631552 
L 288.523775 110.348785 
L 289.013081 105.612511 
L 289.257734 105.405009 
L 289.502387 102.557285 
L 289.74704 102.541072 
L 289.991693 103.136291 
L 290.236346 101.483289 
L 290.480999 104.546891 
L 290.725652 105.110731 
L 290.970305 106.268203 
L 291.214958 103.567635 
L 291.459611 104.713495 
L 291.948917 102.231692 
L 292.19357 98.509859 
L 292.438223 101.277406 
L 292.682876 101.792575 
L 292.92753 102.887575 
L 293.172183 100.844159 
L 293.416836 100.917863 
L 293.661489 101.593671 
L 293.906142 100.694497 
L 294.150795 106.763193 
L 294.395448 104.408715 
L 294.640101 99.950473 
L 294.884754 102.978539 
L 295.129407 101.813959 
L 295.37406 102.663321 
L 296.108019 96.949059 
L 296.352672 103.451922 
L 296.597325 103.907125 
L 296.841978 105.93325 
L 297.086631 101.500645 
L 297.331284 108.683092 
L 297.575937 108.656028 
L 297.82059 108.927272 
L 298.065243 108.832627 
L 298.309896 109.812359 
L 298.554549 105.803863 
L 298.799202 106.052262 
L 299.043855 104.241127 
L 299.288508 104.349859 
L 299.533161 108.052179 
L 299.777814 108.675826 
L 300.022467 107.40299 
L 300.26712 109.001579 
L 300.511773 113.983429 
L 300.756426 112.59377 
L 301.490385 115.089946 
L 301.735038 117.027803 
L 301.979691 122.556567 
L 302.224344 119.526232 
L 302.468997 118.007694 
L 302.71365 118.533888 
L 302.958303 117.601336 
L 303.202956 117.318052 
L 303.447609 117.577651 
L 303.692262 116.171018 
L 304.181568 123.369472 
L 304.426221 117.658431 
L 304.670874 118.079399 
L 304.915527 117.586757 
L 305.16018 113.634357 
L 305.404833 114.059069 
L 305.649486 109.555297 
L 305.894139 110.330827 
L 306.138792 103.845636 
L 306.383445 102.020224 
L 306.628098 102.785696 
L 306.872751 105.331527 
L 307.117404 103.110877 
L 307.362057 102.69121 
L 307.60671 99.497967 
L 308.096016 97.297211 
L 308.340669 100.086206 
L 308.585322 98.939108 
L 308.829975 98.943868 
L 309.074628 98.670022 
L 309.319281 99.481532 
L 309.563934 95.852028 
L 309.808587 95.567935 
L 310.05324 94.339423 
L 310.297893 97.566075 
L 310.542546 98.017978 
L 310.787199 100.007742 
L 311.031852 98.216945 
L 311.276505 99.636143 
L 311.521158 99.780506 
L 311.765811 100.826549 
L 312.010464 97.873679 
L 312.255117 98.882823 
L 312.49977 97.857847 
L 312.744423 99.597086 
L 312.989076 99.637063 
L 313.233729 102.517054 
L 313.478382 101.328615 
L 313.723035 101.528375 
L 313.967688 99.746938 
L 314.212341 102.05798 
L 314.456994 101.248025 
L 314.701647 103.314349 
L 314.9463 101.538052 
L 315.190953 103.841099 
L 315.435607 103.923973 
L 315.68026 103.656029 
L 315.924913 101.823827 
L 316.414219 106.764938 
L 316.658872 109.71489 
L 316.903525 116.998582 
L 317.148178 115.359223 
L 317.392831 121.165639 
L 317.882137 118.738725 
L 318.12679 120.632416 
L 318.371443 120.101193 
L 318.616096 119.111625 
L 318.860749 116.58691 
L 319.105402 115.327939 
L 319.350055 117.279011 
L 319.594708 121.9847 
L 320.084014 116.212994 
L 320.328667 116.861104 
L 320.57332 115.370328 
L 320.817973 115.734122 
L 321.062626 116.325375 
L 321.307279 117.706832 
L 321.551932 112.251932 
L 321.796585 116.179933 
L 322.041238 118.221335 
L 322.285891 121.215182 
L 322.530544 119.492124 
L 322.775197 120.267289 
L 323.01985 120.129463 
L 323.264503 122.660524 
L 323.509156 121.301308 
L 323.753809 120.975381 
L 324.243115 119.589435 
L 324.487768 117.265605 
L 324.732421 126.36462 
L 325.221727 128.389856 
L 325.46638 125.786804 
L 325.955686 133.610508 
L 326.200339 132.515857 
L 326.444992 133.052411 
L 326.689645 131.508776 
L 326.934298 125.788978 
L 327.178951 124.634725 
L 327.423604 121.179694 
L 327.668257 114.70188 
L 327.91291 113.180994 
L 328.402216 124.421814 
L 328.646869 122.097318 
L 328.891522 114.919344 
L 329.136175 116.35301 
L 329.380828 116.509081 
L 329.625481 110.784571 
L 330.114787 109.455227 
L 330.604093 113.300577 
L 330.848746 113.81857 
L 331.093399 113.599107 
L 331.338052 112.707357 
L 331.582705 113.113096 
L 331.827358 115.085219 
L 332.072011 107.524255 
L 332.316664 107.33817 
L 332.561317 105.652329 
L 332.80597 103.110528 
L 333.050623 99.171866 
L 333.295276 100.373314 
L 333.539929 100.763252 
L 333.784582 102.143963 
L 334.029235 101.449277 
L 334.273888 97.932186 
L 334.518541 98.490664 
L 334.763194 101.31659 
L 335.007847 101.963811 
L 335.2525 101.512511 
L 335.497153 101.881731 
L 335.741806 101.863773 
L 335.986459 103.945421 
L 336.231112 103.46639 
L 336.475765 101.045917 
L 336.720418 104.309691 
L 336.965071 105.187227 
L 337.209724 103.722944 
L 337.454377 99.867536 
L 337.69903 100.694846 
L 337.943684 102.038912 
L 338.188337 101.94322 
L 338.43299 100.264772 
L 338.677643 99.94032 
L 338.922296 101.401272 
L 339.166949 101.010763 
L 339.411602 96.141103 
L 339.656255 95.965742 
L 339.900908 97.328463 
L 340.145561 95.155311 
L 340.390214 95.365446 
L 340.634867 95.182629 
L 340.87952 97.023144 
L 341.124173 97.238609 
L 341.368826 98.177412 
L 341.613479 96.04081 
L 341.858132 98.902685 
L 342.102785 98.623668 
L 342.592091 94.252964 
L 342.836744 92.051034 
L 343.081397 92.007598 
L 343.570703 87.311872 
L 343.815356 88.750138 
L 344.304662 81.750698 
L 344.549315 81.220173 
L 344.793968 82.30356 
L 345.038621 79.766963 
L 345.527927 81.801717 
L 346.017233 75.355837 
L 346.261886 75.662965 
L 346.506539 77.068901 
L 346.751192 79.334445 
L 346.995845 77.471371 
L 347.240498 77.982257 
L 347.485151 77.488568 
L 347.729804 76.20247 
L 347.974457 76.692542 
L 348.708416 71.722939 
L 349.197722 77.80918 
L 349.687028 75.06708 
L 349.931681 75.653669 
L 350.176334 77.417339 
L 350.420987 76.778017 
L 351.399599 77.944533 
L 351.644252 78.493905 
L 351.888905 77.854901 
L 352.133558 76.597834 
L 352.378211 76.815076 
L 352.622864 74.842064 
L 352.867517 74.728256 
L 353.11217 78.126398 
L 353.356823 79.459105 
L 353.601476 76.635717 
L 353.846129 75.689426 
L 354.090782 76.789725 
L 355.5587 58.679709 
L 355.803353 58.785427 
L 356.048006 62.580551 
L 356.292659 60.974317 
L 356.537312 60.695109 
L 356.781965 60.87945 
L 357.760577 53.883468 
L 358.00523 57.794432 
L 358.739189 54.070537 
L 358.983842 58.208547 
L 359.228495 59.038236 
L 359.473148 57.988036 
L 359.717801 58.661434 
L 359.962454 60.843819 
L 360.207107 60.448296 
L 360.451761 57.333644 
L 360.941067 62.567543 
L 361.18572 63.312931 
L 361.430373 60.055598 
L 361.675026 59.696467 
L 362.164332 62.198323 
L 362.408985 60.57597 
L 362.653638 63.595121 
L 363.142944 66.648125 
L 363.387597 62.931179 
L 363.63225 57.262383 
L 363.876903 57.252579 
L 364.121556 57.54581 
L 364.366209 53.093248 
L 365.100168 59.651033 
L 365.344821 67.909983 
L 365.589474 67.78085 
L 366.07878 64.292092 
L 366.323433 66.138413 
L 366.812739 62.255656 
L 367.302045 66.179437 
L 367.546698 65.836838 
L 368.036004 69.27629 
L 368.280657 65.407176 
L 368.52531 63.940259 
L 368.769963 64.857328 
L 369.014616 62.940887 
L 369.259269 66.336967 
L 369.503922 64.253701 
L 369.748575 77.19264 
L 369.993228 77.771234 
L 370.237881 81.661638 
L 370.482534 77.413785 
L 370.727187 78.007735 
L 370.97184 76.050778 
L 371.216493 75.181904 
L 371.461146 71.991136 
L 371.705799 71.286677 
L 371.950452 69.939724 
L 372.195105 69.271753 
L 372.439758 65.316275 
L 372.684411 64.004826 
L 372.929064 63.996227 
L 373.173717 60.129429 
L 373.41837 62.814292 
L 373.663023 60.841915 
L 373.907676 62.218375 
L 374.152329 71.059726 
L 374.396982 65.896867 
L 374.886288 76.232485 
L 375.130941 72.756799 
L 375.375594 71.264182 
L 375.8649 74.452158 
L 376.354206 67.954371 
L 376.598859 71.111602 
L 376.843512 70.917997 
L 377.088165 71.0273 
L 377.332818 69.420653 
L 377.577471 65.026121 
L 377.822124 57.740113 
L 378.31143 51.817144 
L 378.556083 54.420974 
L 378.800736 51.303593 
L 379.045389 51.326977 
L 379.779348 55.213383 
L 380.024001 55.230992 
L 380.513307 51.64651 
L 380.75796 49.98913 
L 381.002613 47.563834 
L 381.247266 47.03737 
L 381.491919 47.790404 
L 381.981225 42.392726 
L 382.225878 41.566241 
L 382.470531 39.314212 
L 382.715184 39.164773 
L 382.959838 37.611365 
L 383.449144 38.494517 
L 383.693797 39.546589 
L 383.93845 39.382301 
L 384.183103 40.4648 
L 384.672409 41.144733 
L 384.917062 42.848056 
L 385.161715 42.767561 
L 385.406368 42.93223 
L 385.651021 42.683133 
L 386.140327 37.431118 
L 386.38498 37.405069 
L 386.629633 34.414125 
L 386.874286 35.005759 
L 387.118939 39.030531 
L 387.363592 38.210868 
L 387.608245 38.872525 
L 387.852898 44.066351 
L 387.852898 44.066351 
" style="fill:none;stroke:#1f77b4;stroke-linecap:square;stroke-width:1.5;"/>
   </g>
   <g id="line2d_28">
    <path clip-path="url(#p15327379b2)" d="M 63.198352 271.510074 
L 63.443005 272.466567 
L 63.687658 274.691452 
L 64.176964 276.334125 
L 64.421617 274.462726 
L 64.66627 275.065732 
L 65.400229 272.6745 
L 65.644882 272.86164 
L 65.889535 273.36068 
L 66.134188 269.430741 
L 66.378841 268.827735 
L 66.623494 266.103809 
L 66.868147 265.23049 
L 67.357453 266.083016 
L 67.602106 265.41763 
L 67.846759 265.604769 
L 68.091412 264.752243 
L 68.336066 265.35525 
L 68.580719 265.646356 
L 68.825372 265.001763 
L 69.070025 265.459216 
L 69.314678 265.188903 
L 69.559331 265.10573 
L 69.803984 265.625563 
L 70.048637 263.317504 
L 70.29329 264.128443 
L 70.537943 264.04527 
L 70.782596 265.251283 
L 71.027249 264.565103 
L 71.516555 259.553912 
L 71.761208 260.697545 
L 72.005861 260.801512 
L 72.250514 259.533119 
L 72.495167 259.928192 
L 72.73982 259.637085 
L 72.984473 259.699465 
L 73.229126 259.013286 
L 73.473779 260.156918 
L 73.963085 257.661719 
L 74.207738 257.245853 
L 74.452391 257.744893 
L 74.697044 254.750654 
L 74.941697 254.813034 
L 75.18635 251.777209 
L 75.920309 258.971699 
L 76.164962 260.489612 
L 76.409615 259.345979 
L 76.654268 257.079506 
L 76.898921 256.642847 
L 77.388227 254.688274 
L 77.877533 254.189234 
L 78.122186 254.792241 
L 78.366839 255.769527 
L 78.856145 258.347899 
L 79.345451 253.731781 
L 79.590104 254.230821 
L 80.07941 252.983221 
L 80.324063 254.293201 
L 80.568716 256.642847 
L 80.813369 256.434913 
L 81.058022 256.019047 
L 81.302675 251.402929 
L 81.547328 255.374454 
L 81.791981 255.831907 
L 82.52594 250.488022 
L 82.770593 249.926603 
L 83.015246 248.40869 
L 83.259899 248.72059 
L 83.504552 249.781049 
L 83.749205 248.387897 
L 83.993858 249.614703 
L 84.238511 247.888857 
L 84.483164 248.075997 
L 84.727817 249.614703 
L 84.97247 250.072156 
L 85.217123 249.40677 
L 85.461776 249.178043 
L 85.706429 252.109902 
L 85.951082 252.421802 
L 86.195735 252.338628 
L 86.685041 254.147648 
L 86.929694 251.548482 
L 87.174347 252.193075 
L 87.419 254.750654 
L 87.663653 254.334788 
L 87.908306 255.686354 
L 88.152959 255.166521 
L 88.397612 256.060633 
L 88.642265 256.206187 
L 88.886918 257.079506 
L 89.376224 251.194996 
L 89.86553 251.818795 
L 90.110183 252.525768 
L 90.354836 251.735622 
L 90.599489 251.839589 
L 90.844143 250.903889 
L 91.088796 250.737542 
L 91.333449 251.194996 
L 91.578102 250.217709 
L 91.822755 250.404849 
L 92.067408 247.930444 
L 92.801367 244.998585 
L 93.04602 243.147979 
L 93.290673 242.170693 
L 93.535326 242.669732 
L 93.779979 243.459879 
L 94.024632 243.376705 
L 94.269285 244.042092 
L 94.513938 243.251946 
L 94.758591 245.206518 
L 95.003244 245.144138 
L 95.247897 244.561925 
L 95.49255 245.310485 
L 95.737203 243.854952 
L 95.981856 245.164931 
L 96.226509 243.210359 
L 96.471162 242.940046 
L 96.715815 243.168772 
L 96.960468 242.794492 
L 97.205121 242.732112 
L 97.449774 245.040171 
L 97.694427 249.323596 
L 97.93908 246.828397 
L 98.183733 250.280089 
L 98.428386 242.711319 
L 99.162345 239.6547 
L 99.406998 237.034741 
L 99.651651 236.660462 
L 99.896304 236.639668 
L 100.140957 237.117915 
L 100.38561 234.789062 
L 100.630263 234.893029 
L 100.874916 236.078249 
L 101.119569 236.057455 
L 101.364222 237.138708 
L 101.608875 239.613114 
L 101.853528 238.989314 
L 102.098181 240.15374 
L 102.587487 239.821047 
L 102.83214 238.552654 
L 103.076793 238.739794 
L 103.321446 237.533781 
L 103.566099 238.365514 
L 103.810752 238.095201 
L 104.055405 238.323928 
L 104.300058 235.516829 
L 104.544711 236.889188 
L 104.789364 236.203008 
L 105.034017 237.512988 
L 105.27867 235.100962 
L 105.523323 235.142549 
L 105.767976 234.123676 
L 106.012629 233.687016 
L 106.257282 230.110564 
L 106.501935 233.000836 
L 106.991241 231.815617 
L 107.235894 232.481003 
L 107.480547 229.320418 
L 107.7252 229.611525 
L 107.969853 230.609604 
L 108.214506 230.817537 
L 108.459159 230.630397 
L 108.703812 230.671984 
L 108.948465 230.006598 
L 109.193118 230.671984 
L 109.437771 231.89879 
L 109.927077 229.403591 
L 110.17173 226.700459 
L 110.416383 227.095532 
L 111.150342 225.14096 
L 111.884301 221.252608 
L 112.128954 223.602254 
L 112.373607 223.373527 
L 112.61826 223.58146 
L 112.862913 219.526762 
L 113.107566 217.489016 
L 113.35222 219.110896 
L 113.596873 218.944549 
L 113.841526 217.218703 
L 114.086179 217.904883 
L 114.330832 218.008849 
L 114.575485 219.630729 
L 114.820138 218.757409 
L 115.309444 227.033152 
L 115.79875 219.464382 
L 116.043403 221.564508 
L 116.288056 221.814028 
L 116.532709 224.33002 
L 117.022015 223.934947 
L 117.266668 224.870647 
L 117.511321 222.687347 
L 117.755974 225.307306 
L 118.000627 229.590731 
L 118.24528 229.694698 
L 118.489933 230.339291 
L 118.734586 229.029311 
L 118.979239 225.847933 
L 119.223892 224.600333 
L 119.468545 222.105134 
L 119.713198 223.352734 
L 120.447157 220.400082 
L 120.69181 218.466303 
L 120.936463 217.468223 
L 121.181116 218.092023 
L 121.425769 217.13553 
L 121.670422 215.721584 
L 122.159728 216.38697 
L 122.404381 215.929517 
L 122.649034 216.802837 
L 122.893687 217.07315 
L 123.13834 216.844423 
L 123.382993 216.44935 
L 123.627646 216.283004 
L 123.872299 218.944549 
L 124.116952 219.464382 
L 124.606258 219.755489 
L 124.850911 218.861376 
L 125.095564 219.672315 
L 125.340217 216.366177 
L 125.58487 217.551396 
L 125.829523 216.740457 
L 126.074176 219.277242 
L 126.318829 216.76125 
L 126.563482 218.986136 
L 127.052788 218.008849 
L 127.542094 226.949979 
L 127.786747 226.450939 
L 128.0314 226.804426 
L 128.520706 229.881838 
L 128.765359 229.320418 
L 129.010012 229.549145 
L 129.254665 226.346973 
L 129.499318 229.070898 
L 129.743971 227.178706 
L 129.988624 227.137119 
L 130.47793 229.528351 
L 130.722583 229.029311 
L 130.967236 231.420544 
L 131.211889 232.02355 
L 131.945848 227.157912 
L 132.190501 226.409353 
L 132.435154 227.012359 
L 132.92446 225.57762 
L 133.413766 219.942629 
L 133.903072 225.348893 
L 134.147725 225.07858 
L 134.392378 226.159833 
L 134.637031 225.0162 
L 135.126337 225.473653 
L 135.37099 224.621127 
L 135.615643 224.496367 
L 135.860297 225.411273 
L 136.10495 225.619206 
L 136.594256 228.758998 
L 136.838909 229.029311 
L 137.328215 224.496367 
L 137.572868 224.433987 
L 137.817521 226.866806 
L 138.062174 227.365846 
L 138.306827 225.70238 
L 138.55148 227.885679 
L 138.796133 228.031232 
L 139.285439 227.074739 
L 139.530092 223.539874 
L 139.774745 224.64192 
L 140.019398 225.036993 
L 140.264051 222.042754 
L 140.508704 221.252608 
L 140.753357 221.231815 
L 140.99801 223.103214 
L 141.242663 223.082421 
L 141.731969 224.288433 
L 141.976622 225.806346 
L 142.465928 226.471733 
L 142.710581 224.787473 
L 143.44454 216.782043 
L 143.689193 217.530603 
L 143.933846 216.054277 
L 144.178499 217.364256 
L 144.423152 217.19791 
L 144.667805 218.549476 
L 145.401764 215.472064 
L 145.646417 215.451271 
L 146.135723 219.526762 
L 146.380376 220.171355 
L 146.625029 219.880249 
L 146.869682 217.177116 
L 147.114335 217.676156 
L 147.358988 219.734695 
L 147.603641 218.923756 
L 147.848294 219.901042 
L 148.092947 218.902962 
L 148.3376 218.715822 
L 148.582253 219.713902 
L 148.826906 216.740457 
L 149.071559 216.94839 
L 149.316212 216.76125 
L 149.560865 215.679997 
L 149.805518 215.51365 
L 150.050171 213.621458 
L 150.294824 213.434318 
L 150.78413 211.978785 
L 151.028783 212.644172 
L 151.273436 212.914485 
L 151.518089 214.557158 
L 152.007395 212.831312 
L 152.252048 213.579871 
L 152.496701 212.664965 
L 152.741354 214.827471 
L 153.23066 214.619538 
L 153.475313 214.224464 
L 153.719966 214.765091 
L 153.964619 215.88793 
L 154.209272 216.428557 
L 154.453925 216.345383 
L 154.698578 218.591063 
L 154.943231 219.048516 
L 155.187884 219.880249 
L 155.432537 223.747807 
L 155.67719 223.227974 
L 155.921843 223.394321 
L 156.166496 227.053946 
L 156.411149 227.303466 
L 156.655802 226.700459 
L 156.900455 224.82906 
L 157.145108 224.226054 
L 157.389761 224.309227 
L 157.634414 223.70622 
L 157.879067 222.500208 
L 158.368374 221.148641 
L 158.613027 221.897201 
L 158.85768 224.226054 
L 159.102333 222.084341 
L 159.346986 221.543715 
L 159.591639 221.273401 
L 159.836292 214.806677 
L 160.080945 213.309558 
L 160.325598 212.748138 
L 160.570251 212.623378 
L 160.814904 212.685758 
L 161.059557 210.876739 
L 161.30421 210.793566 
L 161.548863 211.833232 
L 161.793516 211.542125 
L 162.038169 212.311478 
L 162.527475 215.679997 
L 162.772128 219.339622 
L 163.016781 218.133609 
L 163.506087 217.218703 
L 163.75074 217.364256 
L 164.240046 215.971104 
L 164.484699 217.551396 
L 164.729352 217.946469 
L 164.974005 219.194069 
L 165.218658 219.589142 
L 165.463311 219.505969 
L 166.19727 216.94839 
L 166.686576 219.505969 
L 166.931229 222.812107 
L 167.175882 222.853694 
L 167.420535 221.502128 
L 167.909841 225.785553 
L 168.154494 225.224133 
L 168.399147 225.39048 
L 169.133106 221.086261 
L 169.377759 217.530603 
L 169.622412 219.921835 
L 169.867065 217.32267 
L 170.111718 218.133609 
L 170.356371 216.490937 
L 170.601024 217.842503 
L 170.845677 217.863296 
L 171.09033 218.237576 
L 171.334983 218.092023 
L 171.579636 219.568349 
L 171.824289 222.209101 
L 172.068942 222.916074 
L 172.313595 222.978454 
L 172.802901 220.441668 
L 173.292207 224.51716 
L 173.53686 224.662713 
L 173.781513 222.333861 
L 174.026166 224.122087 
L 174.270819 221.086261 
L 174.515472 220.836742 
L 175.004778 218.549476 
L 175.249431 217.489016 
L 175.494084 217.50981 
L 175.98339 216.366177 
L 176.228043 215.097784 
L 176.962002 216.054277 
L 177.206655 215.51365 
L 177.451308 215.57603 
L 177.695961 215.305717 
L 177.940614 217.239496 
L 178.185267 220.108975 
L 178.42992 220.857535 
L 179.163879 215.368097 
L 179.653185 216.490937 
L 179.897838 215.51365 
L 180.142491 215.95031 
L 180.387144 215.742377 
L 180.631798 215.284924 
L 180.876451 214.494778 
L 181.121104 214.848264 
L 181.365757 213.060038 
L 181.855063 212.581792 
L 182.344369 215.264131 
L 182.589022 215.326511 
L 182.833675 218.092023 
L 183.078328 217.655363 
L 183.322981 217.967263 
L 183.567634 217.13553 
L 184.05694 217.780123 
L 184.301593 216.678077 
L 184.546246 217.44743 
L 185.035552 214.723504 
L 185.280205 214.349224 
L 185.524858 214.702711 
L 185.769511 214.619538 
L 186.014164 214.806677 
L 186.258817 213.184798 
L 186.748123 217.364256 
L 186.992776 216.782043 
L 187.237429 216.782043 
L 187.482082 215.76317 
L 187.726735 215.867137 
L 187.971388 211.791645 
L 188.216041 210.855946 
L 188.460694 210.772772 
L 188.705347 210.356906 
L 188.95 208.8182 
L 189.439306 209.37962 
L 189.683959 199.731517 
L 189.928612 194.491599 
L 190.173265 193.659866 
L 190.417918 193.909386 
L 190.662571 193.5559 
L 191.39653 190.831974 
L 191.641183 188.773435 
L 192.130489 198.130431 
L 192.375142 196.196652 
L 192.619795 192.703373 
L 192.864448 194.346046 
L 193.109101 198.275984 
L 193.353754 197.610598 
L 193.598407 197.672978 
L 193.84306 198.463124 
L 194.087713 197.340285 
L 194.821672 191.705294 
L 195.066325 191.185461 
L 195.555631 192.952893 
L 195.800284 189.771515 
L 196.044937 192.100367 
L 196.28959 190.145794 
L 196.534243 190.062621 
L 197.023549 193.93018 
L 197.512855 188.690262 
L 197.757508 189.272475 
L 198.002161 190.915147 
L 198.246814 187.546629 
L 198.491467 189.667548 
L 198.73612 190.748801 
L 198.980773 194.803499 
L 199.225426 195.843165 
L 199.470079 200.521663 
L 199.959385 195.552059 
L 200.204038 192.204334 
L 200.448691 187.317902 
L 200.693344 189.106128 
L 200.937997 186.070303 
L 201.18265 185.67523 
L 201.427303 184.67715 
L 201.671956 182.348298 
L 201.916609 182.701784 
L 202.161262 180.414519 
L 202.405915 180.414519 
L 202.650568 183.387964 
L 203.139875 184.032557 
L 203.384528 180.892765 
L 203.873834 179.083746 
L 204.118487 179.125332 
L 204.607793 177.337106 
L 204.852446 178.917399 
L 205.097099 179.354059 
L 205.341752 183.616691 
L 206.075711 178.834226 
L 206.320364 178.584706 
L 206.565017 181.474978 
L 206.80967 180.040239 
L 207.054323 176.505374 
L 207.543629 179.083746 
L 208.277588 176.006334 
L 208.522241 174.363661 
L 209.011547 177.461866 
L 209.2562 174.696354 
L 209.500853 175.715227 
L 209.745506 175.153807 
L 209.990159 181.371011 
L 210.724118 171.244662 
L 210.968771 167.98011 
L 211.213424 167.439484 
L 211.458077 167.85535 
L 211.70273 167.460277 
L 211.947383 165.838398 
L 212.192036 166.379024 
L 212.436689 164.923492 
L 213.170648 173.282408 
L 213.659954 161.28466 
L 213.904607 165.089838 
L 214.393913 167.501864 
L 214.638566 169.768336 
L 214.883219 173.157648 
L 215.127872 166.690924 
L 215.372525 168.499944 
L 215.617178 167.91773 
L 215.861831 162.636226 
L 216.106484 164.091759 
L 216.351137 162.03322 
L 216.59579 164.528419 
L 216.840443 165.401738 
L 217.085096 159.413261 
L 217.329749 166.067125 
L 217.574402 166.046331 
L 217.819055 160.203407 
L 218.063708 157.770588 
L 218.308361 156.564575 
L 218.553014 156.460609 
L 218.797667 157.916141 
L 219.04232 153.071297 
L 219.286973 153.819856 
L 219.531626 149.973091 
L 219.776279 150.534511 
L 220.020932 150.305784 
L 220.265585 150.326578 
L 220.510238 152.509877 
L 220.754891 149.806745 
L 220.999544 149.723571 
L 221.244197 140.428955 
L 221.48885 141.343862 
L 221.978156 144.58762 
L 222.222809 141.738935 
L 222.467462 141.842901 
L 222.712115 144.566827 
L 222.956768 142.175595 
L 223.201421 145.21142 
L 223.446074 143.547954 
L 223.690727 149.141358 
L 223.93538 148.080899 
L 224.180033 141.780521 
L 224.424686 144.442067 
L 224.669339 140.948788 
L 224.913992 142.861774 
L 225.158645 141.822108 
L 225.403298 143.735094 
L 225.647952 138.890249 
L 225.892605 141.842901 
L 226.137258 141.676555 
L 226.381911 146.812506 
L 226.626564 149.536431 
L 226.871217 146.438226 
L 227.11587 144.83714 
L 227.360523 146.958059 
L 227.605176 147.956139 
L 227.849829 145.02428 
L 228.094482 144.171754 
L 228.339135 145.52332 
L 228.583788 142.840981 
L 228.828441 144.9619 
L 229.073094 143.568747 
L 229.317747 145.232213 
L 229.5624 146.043153 
L 229.807053 147.290752 
L 230.051706 147.457099 
L 230.296359 150.097851 
L 230.541012 148.517559 
L 230.785665 147.872966 
L 231.030318 148.247245 
L 231.274971 146.230293 
L 231.519624 146.770919 
L 231.764277 151.574177 
L 232.00893 153.258437 
L 232.498236 160.744033 
L 232.742889 155.400149 
L 232.987542 154.339689 
L 233.232195 158.498354 
L 233.476848 157.978521 
L 233.966154 149.328498 
L 234.210807 150.513718 
L 234.45546 149.224532 
L 234.700113 151.990044 
L 234.944766 150.430544 
L 235.434072 145.46094 
L 235.678725 149.598811 
L 235.923378 150.097851 
L 236.168031 150.284991 
L 236.412684 149.973091 
L 236.657337 152.53067 
L 236.90199 149.973091 
L 237.146643 149.910711 
L 237.391296 151.511797 
L 237.635949 150.991964 
L 237.880602 151.158311 
L 238.125255 147.893759 
L 238.614561 153.695096 
L 239.103867 155.441736 
L 239.34852 152.426704 
L 239.593173 151.782111 
L 240.082479 154.443656 
L 240.571785 153.487163 
L 240.816438 150.617684 
L 241.305744 148.080899 
L 241.550397 147.852172 
L 241.79505 149.578018 
L 242.039703 149.806745 
L 242.284356 149.058185 
L 242.529009 153.34161 
L 242.773662 152.114804 
L 243.018315 150.160231 
L 243.262968 151.366244 
L 243.507621 151.719731 
L 243.752274 149.474052 
L 243.996927 152.385117 
L 244.24158 151.594971 
L 244.730886 144.27572 
L 244.975539 143.319227 
L 245.220192 142.861774 
L 245.464845 144.629207 
L 245.709498 145.169833 
L 245.954151 147.373926 
L 246.198804 146.438226 
L 246.443457 144.27572 
L 246.68811 144.920313 
L 246.932763 146.999646 
L 247.177416 148.080899 
L 247.666722 141.219102 
L 247.911375 141.031962 
L 248.156029 139.846742 
L 248.400682 140.137849 
L 248.889988 137.82979 
L 249.134641 140.824028 
L 249.379294 140.054675 
L 249.623947 138.661523 
L 249.8686 138.474383 
L 250.113253 138.474383 
L 250.602559 134.190958 
L 250.847212 134.294925 
L 251.091865 127.848994 
L 251.336518 127.932167 
L 251.581171 132.548285 
L 252.070477 149.182945 
L 252.31513 152.447497 
L 252.559783 142.134008 
L 252.804436 138.536763 
L 253.049089 138.827869 
L 253.293742 141.031962 
L 253.538395 148.080899 
L 253.783048 140.990375 
L 254.027701 140.740855 
L 254.272354 145.2738 
L 254.517007 141.094342 
L 254.76166 146.2095 
L 255.006313 145.128247 
L 255.250966 143.152881 
L 255.495619 144.629207 
L 255.984925 138.20407 
L 256.229578 138.01693 
L 256.474231 143.818267 
L 256.718884 140.782442 
L 256.963537 142.404321 
L 257.20819 141.634968 
L 257.452843 141.281482 
L 257.697496 140.449749 
L 257.942149 145.939186 
L 258.186802 148.413592 
L 258.676108 139.846742 
L 258.920761 138.224863 
L 259.165414 135.334591 
L 259.410067 136.415844 
L 260.144026 130.905613 
L 260.388679 129.720393 
L 260.633332 130.3234 
L 260.877985 133.109705 
L 261.367291 127.973754 
L 261.611944 127.225194 
L 261.856597 127.745027 
L 262.10125 126.809328 
L 262.345903 124.605235 
L 262.590556 124.085402 
L 262.835209 123.253669 
L 263.569168 126.123148 
L 263.813821 126.102355 
L 264.058474 124.501269 
L 264.303127 121.902103 
L 264.54778 122.484316 
L 265.037086 121.236717 
L 265.281739 124.314129 
L 265.526392 122.733836 
L 265.771045 123.877469 
L 266.015698 125.748868 
L 266.260351 133.671125 
L 266.505004 131.924486 
L 266.749657 120.82085 
L 267.238963 119.406904 
L 267.728269 107.679469 
L 268.217575 103.208904 
L 268.462228 103.021764 
L 268.706881 104.80999 
L 268.951534 103.666357 
L 269.196187 104.955543 
L 269.44084 110.944021 
L 269.685493 103.458424 
L 269.930146 104.706024 
L 270.174799 104.893164 
L 270.419452 108.927068 
L 270.664106 107.596296 
L 270.908759 111.962894 
L 271.153412 108.698342 
L 271.398065 110.195461 
L 271.642718 106.847736 
L 272.132024 112.274794 
L 272.865983 106.411076 
L 273.355289 107.305189 
L 273.599942 105.18427 
L 273.844595 105.912036 
L 274.823207 114.790786 
L 275.06786 122.442729 
L 275.312513 125.561728 
L 275.801819 118.096925 
L 276.046472 130.760059 
L 276.291125 134.461271 
L 276.535778 135.272211 
L 276.780431 134.170165 
L 277.025084 141.031962 
L 277.51439 127.932167 
L 277.759043 130.115466 
L 278.003696 129.096593 
L 278.248349 130.406573 
L 278.493002 128.930247 
L 278.737655 121.69417 
L 278.982308 120.13467 
L 279.471614 125.790455 
L 279.716267 131.363066 
L 280.205573 150.617684 
L 280.450226 146.438226 
L 280.694879 145.46094 
L 280.939532 147.665032 
L 281.673491 131.155133 
L 281.918144 133.733505 
L 282.652103 124.251749 
L 283.141409 119.406904 
L 283.386062 120.654504 
L 283.630715 125.104275 
L 283.875368 121.81893 
L 284.120021 122.047656 
L 284.364674 119.531664 
L 284.609327 122.110036 
L 285.098633 119.698011 
L 285.343286 121.13275 
L 285.587939 121.423857 
L 285.832592 116.079972 
L 286.077245 115.289826 
L 286.566551 111.942101 
L 287.055857 110.070701 
L 287.789816 112.420347 
L 288.034469 111.921307 
L 288.279122 110.632121 
L 288.768428 105.766483 
L 289.013081 105.74569 
L 289.257734 102.793038 
L 289.502387 102.793038 
L 289.74704 103.354457 
L 289.991693 101.566232 
L 290.236346 104.830784 
L 290.480999 105.350617 
L 290.725652 106.619009 
L 290.970305 103.770324 
L 291.214958 104.893164 
L 291.704264 102.460345 
L 291.948917 98.738339 
L 292.19357 101.566232 
L 292.438223 102.086065 
L 292.682876 103.312871 
L 292.92753 101.108778 
L 293.172183 101.129572 
L 293.416836 101.774165 
L 293.661489 100.921639 
L 293.906142 107.201223 
L 294.150795 104.789197 
L 294.395448 100.297839 
L 294.640101 103.437631 
L 294.884754 102.148445 
L 295.129407 103.167318 
L 295.37406 101.025605 
L 295.618713 99.902766 
L 295.863366 97.262013 
L 296.108019 103.936671 
L 296.352672 104.165397 
L 296.597325 106.36949 
L 296.841978 101.774165 
L 297.086631 108.719135 
L 297.331284 109.197382 
L 297.575937 109.280555 
L 297.82059 109.031035 
L 298.065243 109.925148 
L 298.309896 105.891243 
L 298.554549 106.223936 
L 298.799202 104.456504 
L 299.043855 104.68523 
L 299.288508 108.469615 
L 299.533161 109.072622 
L 299.777814 107.866609 
L 300.022467 109.259762 
L 300.26712 114.562059 
L 300.511773 113.044147 
L 301.245732 115.310619 
L 301.490385 117.389952 
L 301.735038 122.775423 
L 302.224344 118.367238 
L 302.468997 118.824691 
L 302.71365 117.826611 
L 302.958303 117.577092 
L 303.202956 117.868198 
L 303.447609 116.433459 
L 303.936915 123.960642 
L 304.181568 118.013751 
L 304.426221 118.346445 
L 304.670874 117.681058 
L 304.915527 113.667947 
L 305.16018 114.229366 
L 305.404833 109.613248 
L 305.649486 110.465775 
L 305.894139 103.853497 
L 306.138792 102.169238 
L 306.383445 102.813831 
L 306.628098 105.475377 
L 306.872751 103.437631 
L 307.117404 102.938591 
L 307.362057 99.694832 
L 307.851363 97.469947 
L 308.096016 100.256252 
L 308.340669 99.320553 
L 308.585322 99.362139 
L 308.829975 98.842306 
L 309.074628 99.757212 
L 309.319281 96.326314 
L 309.563934 95.744101 
L 309.808587 94.642054 
L 310.05324 97.86502 
L 310.297893 98.197713 
L 310.542546 100.297839 
L 310.787199 98.509613 
L 311.031852 99.965146 
L 311.276505 100.173079 
L 311.521158 101.233538 
L 311.765811 98.2393 
L 312.010464 99.216586 
L 312.255117 98.197713 
L 312.49977 99.923559 
L 312.744423 100.089906 
L 312.989076 102.897004 
L 313.233729 101.524645 
L 313.478382 101.774165 
L 313.723035 99.944352 
L 313.967688 102.356378 
L 314.212341 101.587025 
L 314.456994 103.811911 
L 314.701647 101.982098 
L 314.9463 104.352537 
L 315.190953 104.31095 
L 315.435607 104.082224 
L 315.68026 102.169238 
L 316.169566 107.076463 
L 316.414219 110.257841 
L 316.658872 117.577092 
L 316.903525 115.809659 
L 317.148178 121.777343 
L 317.637484 119.198971 
L 317.882137 120.966403 
L 318.12679 120.592124 
L 318.371443 119.469284 
L 318.616096 116.807739 
L 318.860749 115.476966 
L 319.105402 117.473125 
L 319.350055 122.338763 
L 319.839361 116.475045 
L 320.084014 117.182018 
L 320.328667 115.622519 
L 320.57332 115.996799 
L 320.817973 116.620599 
L 321.062626 117.909785 
L 321.307279 112.482727 
L 321.796585 118.595964 
L 322.041238 121.50703 
L 322.285891 119.760391 
L 322.530544 120.592124 
L 322.775197 120.32181 
L 323.01985 122.983356 
L 323.264503 121.735756 
L 323.509156 121.423857 
L 323.998462 119.947531 
L 324.243115 117.493918 
L 324.487768 126.726154 
L 324.977074 128.971833 
L 325.221727 126.227115 
L 325.711033 133.899851 
L 325.955686 133.068118 
L 326.200339 133.296845 
L 326.444992 131.778932 
L 326.689645 125.873628 
L 326.934298 124.833962 
L 327.178951 121.153543 
L 327.423604 114.894753 
L 327.668257 113.1897 
L 327.91291 117.722645 
L 328.157563 124.522062 
L 328.402216 122.588283 
L 328.646869 115.102686 
L 328.891522 116.350285 
L 329.136175 116.579012 
L 329.380828 110.840054 
L 329.625481 110.361808 
L 329.870134 109.613248 
L 330.35944 113.667947 
L 330.604093 114.1254 
L 330.848746 113.979846 
L 331.093399 113.148113 
L 331.338052 113.543187 
L 331.582705 115.497759 
L 331.827358 107.762642 
L 332.072011 107.617089 
L 332.561317 103.354457 
L 332.80597 99.278966 
L 333.050623 100.443392 
L 333.295276 100.734499 
L 333.539929 102.252411 
L 333.784582 101.566232 
L 334.029235 98.093746 
L 334.273888 98.675959 
L 334.518541 101.587025 
L 334.763194 102.377171 
L 335.007847 101.940511 
L 335.2525 102.335585 
L 335.497153 102.273205 
L 335.741806 104.394124 
L 335.986459 103.915877 
L 336.231112 101.441472 
L 336.475765 104.768404 
L 336.720418 105.537757 
L 336.965071 103.915877 
L 337.209724 100.193872 
L 337.454377 101.025605 
L 337.69903 102.335585 
L 337.943684 102.397965 
L 338.188337 100.547359 
L 338.43299 100.069112 
L 338.677643 101.670198 
L 338.922296 101.233538 
L 339.166949 96.097587 
L 339.411602 96.118381 
L 339.656255 97.324393 
L 339.900908 95.286648 
L 340.145561 95.556961 
L 340.390214 95.265854 
L 340.634867 97.11646 
L 340.87952 97.407567 
L 341.124173 98.42644 
L 341.368826 96.284727 
L 341.613479 99.382932 
L 341.858132 99.050239 
L 342.592091 92.396375 
L 342.836744 92.354789 
L 343.32605 87.530737 
L 343.570703 88.882304 
L 344.060009 81.646227 
L 344.304662 81.16798 
L 344.549315 82.29082 
L 344.793968 79.712447 
L 345.283274 81.874953 
L 345.77258 75.553782 
L 346.017233 75.844889 
L 346.261886 77.258835 
L 346.506539 79.566894 
L 346.751192 77.695495 
L 346.995845 78.319295 
L 347.240498 77.841048 
L 347.485151 76.635035 
L 347.729804 77.196455 
L 348.463763 72.122884 
L 348.953069 78.340088 
L 349.442375 75.470609 
L 349.687028 76.052822 
L 349.931681 77.799462 
L 350.176334 77.113282 
L 350.66564 77.633115 
L 350.910293 77.882635 
L 351.399599 78.901508 
L 351.644252 78.277708 
L 351.888905 77.030109 
L 352.133558 77.258835 
L 352.378211 75.013156 
L 352.622864 75.033949 
L 352.867517 78.485641 
L 353.11217 79.795621 
L 353.356823 76.884555 
L 353.601476 75.948856 
L 353.846129 77.071695 
L 355.314047 58.565636 
L 355.5587 58.607223 
L 355.803353 62.537161 
L 356.048006 60.998455 
L 356.292659 60.894489 
L 356.537312 61.185595 
L 357.515924 54.386178 
L 357.760577 58.39929 
L 358.494536 54.115865 
L 358.739189 58.628016 
L 358.983842 59.438956 
L 359.228495 58.191356 
L 359.473148 58.898329 
L 359.717801 61.247975 
L 359.962454 60.894489 
L 360.207107 57.858663 
L 360.696414 63.223341 
L 360.941067 63.992694 
L 361.18572 60.582589 
L 361.430373 60.166722 
L 361.919679 62.557955 
L 362.164332 60.977662 
L 362.408985 64.013487 
L 362.898291 66.758206 
L 363.142944 62.994614 
L 363.387597 57.234863 
L 363.63225 57.21407 
L 363.876903 57.484383 
L 364.121556 52.972232 
L 364.855515 59.896409 
L 365.100168 68.567225 
L 365.344821 68.338499 
L 365.834127 64.574907 
L 366.07878 66.799793 
L 366.323433 64.221421 
L 366.568086 62.953028 
L 366.812739 65.697747 
L 367.057392 67.028519 
L 367.302045 66.65424 
L 367.791351 70.043551 
L 368.036004 65.90568 
L 368.280657 64.450147 
L 368.52531 65.302673 
L 368.769963 63.202548 
L 369.014616 66.778999 
L 369.259269 64.429354 
L 369.503922 77.466768 
L 369.748575 78.256915 
L 369.993228 82.561133 
L 370.237881 77.591528 
L 370.482534 78.173741 
L 370.727187 76.011236 
L 370.97184 75.283469 
L 371.216493 72.122884 
L 371.461146 71.603051 
L 371.705799 70.251485 
L 371.950452 69.648478 
L 372.195105 65.572987 
L 372.439758 64.325387 
L 372.684411 64.325387 
L 372.929064 60.353862 
L 373.173717 63.223341 
L 373.41837 61.144009 
L 373.663023 62.433195 
L 373.907676 70.937664 
L 374.152329 66.612653 
L 374.641635 76.510275 
L 374.886288 72.954617 
L 375.130941 71.478291 
L 375.620247 74.929983 
L 376.109553 68.400879 
L 376.354206 71.623844 
L 376.598859 71.291151 
L 376.843512 71.561464 
L 377.088165 69.669272 
L 377.332818 65.198707 
L 377.577471 57.65073 
L 378.066777 51.204799 
L 378.31143 53.887138 
L 378.556083 50.684966 
L 378.800736 50.45624 
L 379.045389 51.787012 
L 379.534695 55.051564 
L 379.779348 55.363464 
L 380.024001 53.242545 
L 380.268654 52.182086 
L 381.002613 47.877867 
L 381.247266 48.58484 
L 381.736572 43.095403 
L 381.981225 42.13891 
L 382.225878 39.747677 
L 382.470531 39.498158 
L 382.715184 37.772312 
L 383.204491 38.624838 
L 383.449144 39.768471 
L 383.693797 39.581331 
L 383.93845 40.95369 
L 384.183103 41.20321 
L 384.427756 41.723043 
L 384.672409 43.532063 
L 384.917062 43.324129 
L 385.161715 43.760789 
L 385.406368 43.365716 
L 385.895674 37.959452 
L 386.140327 37.876278 
L 386.38498 34.590933 
L 386.629633 35.235526 
L 386.874286 39.456571 
L 387.118939 38.479285 
L 387.363592 39.311018 
L 387.608245 44.862835 
L 387.852898 41.369557 
L 387.852898 41.369557 
" style="fill:none;stroke:#ff7f0e;stroke-linecap:square;stroke-width:1.5;"/>
   </g>
   <g id="patch_3">
    <path d="M 46.965625 288.430125 
L 46.965625 22.318125 
" style="fill:none;stroke:#000000;stroke-linecap:square;stroke-linejoin:miter;stroke-width:0.8;"/>
   </g>
   <g id="patch_4">
    <path d="M 404.085625 288.430125 
L 404.085625 22.318125 
" style="fill:none;stroke:#000000;stroke-linecap:square;stroke-linejoin:miter;stroke-width:0.8;"/>
   </g>
   <g id="patch_5">
    <path d="M 46.965625 288.430125 
L 404.085625 288.430125 
" style="fill:none;stroke:#000000;stroke-linecap:square;stroke-linejoin:miter;stroke-width:0.8;"/>
   </g>
   <g id="patch_6">
    <path d="M 46.965625 22.318125 
L 404.085625 22.318125 
" style="fill:none;stroke:#000000;stroke-linecap:square;stroke-linejoin:miter;stroke-width:0.8;"/>
   </g>
   <g id="text_16">
    <!-- Training: HD -->
    <defs>
     <path d="M -0.296875 72.90625 
L 61.375 72.90625 
L 61.375 64.59375 
L 35.5 64.59375 
L 35.5 0 
L 25.59375 0 
L 25.59375 64.59375 
L -0.296875 64.59375 
z
" id="DejaVuSans-84"/>
     <path d="M 54.890625 33.015625 
L 54.890625 0 
L 45.90625 0 
L 45.90625 32.71875 
Q 45.90625 40.484375 42.875 44.328125 
Q 39.84375 48.1875 33.796875 48.1875 
Q 26.515625 48.1875 22.3125 43.546875 
Q 18.109375 38.921875 18.109375 30.90625 
L 18.109375 0 
L 9.078125 0 
L 9.078125 54.6875 
L 18.109375 54.6875 
L 18.109375 46.1875 
Q 21.34375 51.125 25.703125 53.5625 
Q 30.078125 56 35.796875 56 
Q 45.21875 56 50.046875 50.171875 
Q 54.890625 44.34375 54.890625 33.015625 
z
" id="DejaVuSans-110"/>
     <path d="M 45.40625 27.984375 
Q 45.40625 37.75 41.375 43.109375 
Q 37.359375 48.484375 30.078125 48.484375 
Q 22.859375 48.484375 18.828125 43.109375 
Q 14.796875 37.75 14.796875 27.984375 
Q 14.796875 18.265625 18.828125 12.890625 
Q 22.859375 7.515625 30.078125 7.515625 
Q 37.359375 7.515625 41.375 12.890625 
Q 45.40625 18.265625 45.40625 27.984375 
z
M 54.390625 6.78125 
Q 54.390625 -7.171875 48.1875 -13.984375 
Q 42 -20.796875 29.203125 -20.796875 
Q 24.46875 -20.796875 20.265625 -20.09375 
Q 16.0625 -19.390625 12.109375 -17.921875 
L 12.109375 -9.1875 
Q 16.0625 -11.328125 19.921875 -12.34375 
Q 23.78125 -13.375 27.78125 -13.375 
Q 36.625 -13.375 41.015625 -8.765625 
Q 45.40625 -4.15625 45.40625 5.171875 
L 45.40625 9.625 
Q 42.625 4.78125 38.28125 2.390625 
Q 33.9375 0 27.875 0 
Q 17.828125 0 11.671875 7.65625 
Q 5.515625 15.328125 5.515625 27.984375 
Q 5.515625 40.671875 11.671875 48.328125 
Q 17.828125 56 27.875 56 
Q 33.9375 56 38.28125 53.609375 
Q 42.625 51.21875 45.40625 46.390625 
L 45.40625 54.6875 
L 54.390625 54.6875 
z
" id="DejaVuSans-103"/>
     <path d="M 11.71875 12.40625 
L 22.015625 12.40625 
L 22.015625 0 
L 11.71875 0 
z
M 11.71875 51.703125 
L 22.015625 51.703125 
L 22.015625 39.3125 
L 11.71875 39.3125 
z
" id="DejaVuSans-58"/>
     <path d="M 9.8125 72.90625 
L 19.671875 72.90625 
L 19.671875 43.015625 
L 55.515625 43.015625 
L 55.515625 72.90625 
L 65.375 72.90625 
L 65.375 0 
L 55.515625 0 
L 55.515625 34.71875 
L 19.671875 34.71875 
L 19.671875 0 
L 9.8125 0 
z
" id="DejaVuSans-72"/>
    </defs>
    <g transform="translate(188.794375 16.318125)scale(0.12 -0.12)">
     <use xlink:href="#DejaVuSans-84"/>
     <use x="46.333984" xlink:href="#DejaVuSans-114"/>
     <use x="87.447266" xlink:href="#DejaVuSans-97"/>
     <use x="148.726562" xlink:href="#DejaVuSans-105"/>
     <use x="176.509766" xlink:href="#DejaVuSans-110"/>
     <use x="239.888672" xlink:href="#DejaVuSans-105"/>
     <use x="267.671875" xlink:href="#DejaVuSans-110"/>
     <use x="331.050781" xlink:href="#DejaVuSans-103"/>
     <use x="394.527344" xlink:href="#DejaVuSans-58"/>
     <use x="428.21875" xlink:href="#DejaVuSans-32"/>
     <use x="460.005859" xlink:href="#DejaVuSans-72"/>
     <use x="535.201172" xlink:href="#DejaVuSans-68"/>
    </g>
   </g>
   <g id="legend_1">
    <g id="patch_7">
     <path d="M 53.965625 59.674375 
L 137.69375 59.674375 
Q 139.69375 59.674375 139.69375 57.674375 
L 139.69375 29.318125 
Q 139.69375 27.318125 137.69375 27.318125 
L 53.965625 27.318125 
Q 51.965625 27.318125 51.965625 29.318125 
L 51.965625 57.674375 
Q 51.965625 59.674375 53.965625 59.674375 
z
" style="fill:#ffffff;opacity:0.8;stroke:#cccccc;stroke-linejoin:miter;"/>
    </g>
    <g id="line2d_29">
     <path d="M 55.965625 35.416562 
L 75.965625 35.416562 
" style="fill:none;stroke:#1f77b4;stroke-linecap:square;stroke-width:1.5;"/>
    </g>
    <g id="line2d_30"/>
    <g id="text_17">
     <!-- Predicted -->
     <defs>
      <path d="M 45.40625 46.390625 
L 45.40625 75.984375 
L 54.390625 75.984375 
L 54.390625 0 
L 45.40625 0 
L 45.40625 8.203125 
Q 42.578125 3.328125 38.25 0.953125 
Q 33.9375 -1.421875 27.875 -1.421875 
Q 17.96875 -1.421875 11.734375 6.484375 
Q 5.515625 14.40625 5.515625 27.296875 
Q 5.515625 40.1875 11.734375 48.09375 
Q 17.96875 56 27.875 56 
Q 33.9375 56 38.25 53.625 
Q 42.578125 51.265625 45.40625 46.390625 
z
M 14.796875 27.296875 
Q 14.796875 17.390625 18.875 11.75 
Q 22.953125 6.109375 30.078125 6.109375 
Q 37.203125 6.109375 41.296875 11.75 
Q 45.40625 17.390625 45.40625 27.296875 
Q 45.40625 37.203125 41.296875 42.84375 
Q 37.203125 48.484375 30.078125 48.484375 
Q 22.953125 48.484375 18.875 42.84375 
Q 14.796875 37.203125 14.796875 27.296875 
z
" id="DejaVuSans-100"/>
      <path d="M 18.3125 70.21875 
L 18.3125 54.6875 
L 36.8125 54.6875 
L 36.8125 47.703125 
L 18.3125 47.703125 
L 18.3125 18.015625 
Q 18.3125 11.328125 20.140625 9.421875 
Q 21.96875 7.515625 27.59375 7.515625 
L 36.8125 7.515625 
L 36.8125 0 
L 27.59375 0 
Q 17.1875 0 13.234375 3.875 
Q 9.28125 7.765625 9.28125 18.015625 
L 9.28125 47.703125 
L 2.6875 47.703125 
L 2.6875 54.6875 
L 9.28125 54.6875 
L 9.28125 70.21875 
z
" id="DejaVuSans-116"/>
     </defs>
     <g transform="translate(83.965625 38.916562)scale(0.1 -0.1)">
      <use xlink:href="#DejaVuSans-80"/>
      <use x="58.552734" xlink:href="#DejaVuSans-114"/>
      <use x="97.416016" xlink:href="#DejaVuSans-101"/>
      <use x="158.939453" xlink:href="#DejaVuSans-100"/>
      <use x="222.416016" xlink:href="#DejaVuSans-105"/>
      <use x="250.199219" xlink:href="#DejaVuSans-99"/>
      <use x="305.179688" xlink:href="#DejaVuSans-116"/>
      <use x="344.388672" xlink:href="#DejaVuSans-101"/>
      <use x="405.912109" xlink:href="#DejaVuSans-100"/>
     </g>
    </g>
    <g id="line2d_31">
     <path d="M 55.965625 50.094687 
L 75.965625 50.094687 
" style="fill:none;stroke:#ff7f0e;stroke-linecap:square;stroke-width:1.5;"/>
    </g>
    <g id="line2d_32"/>
    <g id="text_18">
     <!-- True value -->
     <defs>
      <path d="M 8.5 21.578125 
L 8.5 54.6875 
L 17.484375 54.6875 
L 17.484375 21.921875 
Q 17.484375 14.15625 20.5 10.265625 
Q 23.53125 6.390625 29.59375 6.390625 
Q 36.859375 6.390625 41.078125 11.03125 
Q 45.3125 15.671875 45.3125 23.6875 
L 45.3125 54.6875 
L 54.296875 54.6875 
L 54.296875 0 
L 45.3125 0 
L 45.3125 8.40625 
Q 42.046875 3.421875 37.71875 1 
Q 33.40625 -1.421875 27.6875 -1.421875 
Q 18.265625 -1.421875 13.375 4.4375 
Q 8.5 10.296875 8.5 21.578125 
z
M 31.109375 56 
z
" id="DejaVuSans-117"/>
      <path d="M 2.984375 54.6875 
L 12.5 54.6875 
L 29.59375 8.796875 
L 46.6875 54.6875 
L 56.203125 54.6875 
L 35.6875 0 
L 23.484375 0 
z
" id="DejaVuSans-118"/>
      <path d="M 9.421875 75.984375 
L 18.40625 75.984375 
L 18.40625 0 
L 9.421875 0 
z
" id="DejaVuSans-108"/>
     </defs>
     <g transform="translate(83.965625 53.594687)scale(0.1 -0.1)">
      <use xlink:href="#DejaVuSans-84"/>
      <use x="46.333984" xlink:href="#DejaVuSans-114"/>
      <use x="87.447266" xlink:href="#DejaVuSans-117"/>
      <use x="150.826172" xlink:href="#DejaVuSans-101"/>
      <use x="212.349609" xlink:href="#DejaVuSans-32"/>
      <use x="244.136719" xlink:href="#DejaVuSans-118"/>
      <use x="303.316406" xlink:href="#DejaVuSans-97"/>
      <use x="364.595703" xlink:href="#DejaVuSans-108"/>
      <use x="392.378906" xlink:href="#DejaVuSans-117"/>
      <use x="455.757812" xlink:href="#DejaVuSans-101"/>
     </g>
    </g>
   </g>
  </g>
 </g>
 <defs>
  <clipPath id="p15327379b2">
   <rect height="266.112" width="357.12" x="46.965625" y="22.318125"/>
  </clipPath>
 </defs>
</svg>
