<?xml version="1.0" encoding="utf-8" standalone="no"?>
<!DOCTYPE svg PUBLIC "-//W3C//DTD SVG 1.1//EN"
  "http://www.w3.org/Graphics/SVG/1.1/DTD/svg11.dtd">
<!-- Created with matplotlib (https://matplotlib.org/) -->
<svg height="325.986375pt" version="1.1" viewBox="0 0 404.923125 325.986375" width="404.923125pt" xmlns="http://www.w3.org/2000/svg" xmlns:xlink="http://www.w3.org/1999/xlink">
 <defs>
  <style type="text/css">
*{stroke-linecap:butt;stroke-linejoin:round;}
  </style>
 </defs>
 <g id="figure_1">
  <g id="patch_1">
   <path d="M 0 325.986375 
L 404.923125 325.986375 
L 404.923125 0 
L 0 0 
z
" style="fill:#ffffff;"/>
  </g>
  <g id="axes_1">
   <g id="patch_2">
    <path d="M 40.603125 288.430125 
L 397.723125 288.430125 
L 397.723125 22.318125 
L 40.603125 22.318125 
z
" style="fill:#ffffff;"/>
   </g>
   <g id="matplotlib.axis_1">
    <g id="xtick_1">
     <g id="line2d_1">
      <path clip-path="url(#p62a9e5d296)" d="M 56.835852 288.430125 
L 56.835852 22.318125 
" style="fill:none;stroke:#b0b0b0;stroke-dasharray:2.96,1.28;stroke-dashoffset:0;stroke-width:0.8;"/>
     </g>
     <g id="line2d_2">
      <defs>
       <path d="M 0 0 
L 0 3.5 
" id="mc82398a5d6" style="stroke:#000000;stroke-width:0.8;"/>
      </defs>
      <g>
       <use style="stroke:#000000;stroke-width:0.8;" x="56.835852" xlink:href="#mc82398a5d6" y="288.430125"/>
      </g>
     </g>
     <g id="text_1">
      <!-- 0 -->
      <defs>
       <path d="M 31.78125 66.40625 
Q 24.171875 66.40625 20.328125 58.90625 
Q 16.5 51.421875 16.5 36.375 
Q 16.5 21.390625 20.328125 13.890625 
Q 24.171875 6.390625 31.78125 6.390625 
Q 39.453125 6.390625 43.28125 13.890625 
Q 47.125 21.390625 47.125 36.375 
Q 47.125 51.421875 43.28125 58.90625 
Q 39.453125 66.40625 31.78125 66.40625 
z
M 31.78125 74.21875 
Q 44.046875 74.21875 50.515625 64.515625 
Q 56.984375 54.828125 56.984375 36.375 
Q 56.984375 17.96875 50.515625 8.265625 
Q 44.046875 -1.421875 31.78125 -1.421875 
Q 19.53125 -1.421875 13.0625 8.265625 
Q 6.59375 17.96875 6.59375 36.375 
Q 6.59375 54.828125 13.0625 64.515625 
Q 19.53125 74.21875 31.78125 74.21875 
z
" id="DejaVuSans-48"/>
      </defs>
      <g transform="translate(53.654602 303.028562)scale(0.1 -0.1)">
       <use xlink:href="#DejaVuSans-48"/>
      </g>
     </g>
    </g>
    <g id="xtick_2">
     <g id="line2d_3">
      <path clip-path="url(#p62a9e5d296)" d="M 105.766454 288.430125 
L 105.766454 22.318125 
" style="fill:none;stroke:#b0b0b0;stroke-dasharray:2.96,1.28;stroke-dashoffset:0;stroke-width:0.8;"/>
     </g>
     <g id="line2d_4">
      <g>
       <use style="stroke:#000000;stroke-width:0.8;" x="105.766454" xlink:href="#mc82398a5d6" y="288.430125"/>
      </g>
     </g>
     <g id="text_2">
      <!-- 200 -->
      <defs>
       <path d="M 19.1875 8.296875 
L 53.609375 8.296875 
L 53.609375 0 
L 7.328125 0 
L 7.328125 8.296875 
Q 12.9375 14.109375 22.625 23.890625 
Q 32.328125 33.6875 34.8125 36.53125 
Q 39.546875 41.84375 41.421875 45.53125 
Q 43.3125 49.21875 43.3125 52.78125 
Q 43.3125 58.59375 39.234375 62.25 
Q 35.15625 65.921875 28.609375 65.921875 
Q 23.96875 65.921875 18.8125 64.3125 
Q 13.671875 62.703125 7.8125 59.421875 
L 7.8125 69.390625 
Q 13.765625 71.78125 18.9375 73 
Q 24.125 74.21875 28.421875 74.21875 
Q 39.75 74.21875 46.484375 68.546875 
Q 53.21875 62.890625 53.21875 53.421875 
Q 53.21875 48.921875 51.53125 44.890625 
Q 49.859375 40.875 45.40625 35.40625 
Q 44.1875 33.984375 37.640625 27.21875 
Q 31.109375 20.453125 19.1875 8.296875 
z
" id="DejaVuSans-50"/>
      </defs>
      <g transform="translate(96.222704 303.028562)scale(0.1 -0.1)">
       <use xlink:href="#DejaVuSans-50"/>
       <use x="63.623047" xlink:href="#DejaVuSans-48"/>
       <use x="127.246094" xlink:href="#DejaVuSans-48"/>
      </g>
     </g>
    </g>
    <g id="xtick_3">
     <g id="line2d_5">
      <path clip-path="url(#p62a9e5d296)" d="M 154.697057 288.430125 
L 154.697057 22.318125 
" style="fill:none;stroke:#b0b0b0;stroke-dasharray:2.96,1.28;stroke-dashoffset:0;stroke-width:0.8;"/>
     </g>
     <g id="line2d_6">
      <g>
       <use style="stroke:#000000;stroke-width:0.8;" x="154.697057" xlink:href="#mc82398a5d6" y="288.430125"/>
      </g>
     </g>
     <g id="text_3">
      <!-- 400 -->
      <defs>
       <path d="M 37.796875 64.3125 
L 12.890625 25.390625 
L 37.796875 25.390625 
z
M 35.203125 72.90625 
L 47.609375 72.90625 
L 47.609375 25.390625 
L 58.015625 25.390625 
L 58.015625 17.1875 
L 47.609375 17.1875 
L 47.609375 0 
L 37.796875 0 
L 37.796875 17.1875 
L 4.890625 17.1875 
L 4.890625 26.703125 
z
" id="DejaVuSans-52"/>
      </defs>
      <g transform="translate(145.153307 303.028562)scale(0.1 -0.1)">
       <use xlink:href="#DejaVuSans-52"/>
       <use x="63.623047" xlink:href="#DejaVuSans-48"/>
       <use x="127.246094" xlink:href="#DejaVuSans-48"/>
      </g>
     </g>
    </g>
    <g id="xtick_4">
     <g id="line2d_7">
      <path clip-path="url(#p62a9e5d296)" d="M 203.627659 288.430125 
L 203.627659 22.318125 
" style="fill:none;stroke:#b0b0b0;stroke-dasharray:2.96,1.28;stroke-dashoffset:0;stroke-width:0.8;"/>
     </g>
     <g id="line2d_8">
      <g>
       <use style="stroke:#000000;stroke-width:0.8;" x="203.627659" xlink:href="#mc82398a5d6" y="288.430125"/>
      </g>
     </g>
     <g id="text_4">
      <!-- 600 -->
      <defs>
       <path d="M 33.015625 40.375 
Q 26.375 40.375 22.484375 35.828125 
Q 18.609375 31.296875 18.609375 23.390625 
Q 18.609375 15.53125 22.484375 10.953125 
Q 26.375 6.390625 33.015625 6.390625 
Q 39.65625 6.390625 43.53125 10.953125 
Q 47.40625 15.53125 47.40625 23.390625 
Q 47.40625 31.296875 43.53125 35.828125 
Q 39.65625 40.375 33.015625 40.375 
z
M 52.59375 71.296875 
L 52.59375 62.3125 
Q 48.875 64.0625 45.09375 64.984375 
Q 41.3125 65.921875 37.59375 65.921875 
Q 27.828125 65.921875 22.671875 59.328125 
Q 17.53125 52.734375 16.796875 39.40625 
Q 19.671875 43.65625 24.015625 45.921875 
Q 28.375 48.1875 33.59375 48.1875 
Q 44.578125 48.1875 50.953125 41.515625 
Q 57.328125 34.859375 57.328125 23.390625 
Q 57.328125 12.15625 50.6875 5.359375 
Q 44.046875 -1.421875 33.015625 -1.421875 
Q 20.359375 -1.421875 13.671875 8.265625 
Q 6.984375 17.96875 6.984375 36.375 
Q 6.984375 53.65625 15.1875 63.9375 
Q 23.390625 74.21875 37.203125 74.21875 
Q 40.921875 74.21875 44.703125 73.484375 
Q 48.484375 72.75 52.59375 71.296875 
z
" id="DejaVuSans-54"/>
      </defs>
      <g transform="translate(194.083909 303.028562)scale(0.1 -0.1)">
       <use xlink:href="#DejaVuSans-54"/>
       <use x="63.623047" xlink:href="#DejaVuSans-48"/>
       <use x="127.246094" xlink:href="#DejaVuSans-48"/>
      </g>
     </g>
    </g>
    <g id="xtick_5">
     <g id="line2d_9">
      <path clip-path="url(#p62a9e5d296)" d="M 252.558261 288.430125 
L 252.558261 22.318125 
" style="fill:none;stroke:#b0b0b0;stroke-dasharray:2.96,1.28;stroke-dashoffset:0;stroke-width:0.8;"/>
     </g>
     <g id="line2d_10">
      <g>
       <use style="stroke:#000000;stroke-width:0.8;" x="252.558261" xlink:href="#mc82398a5d6" y="288.430125"/>
      </g>
     </g>
     <g id="text_5">
      <!-- 800 -->
      <defs>
       <path d="M 31.78125 34.625 
Q 24.75 34.625 20.71875 30.859375 
Q 16.703125 27.09375 16.703125 20.515625 
Q 16.703125 13.921875 20.71875 10.15625 
Q 24.75 6.390625 31.78125 6.390625 
Q 38.8125 6.390625 42.859375 10.171875 
Q 46.921875 13.96875 46.921875 20.515625 
Q 46.921875 27.09375 42.890625 30.859375 
Q 38.875 34.625 31.78125 34.625 
z
M 21.921875 38.8125 
Q 15.578125 40.375 12.03125 44.71875 
Q 8.5 49.078125 8.5 55.328125 
Q 8.5 64.0625 14.71875 69.140625 
Q 20.953125 74.21875 31.78125 74.21875 
Q 42.671875 74.21875 48.875 69.140625 
Q 55.078125 64.0625 55.078125 55.328125 
Q 55.078125 49.078125 51.53125 44.71875 
Q 48 40.375 41.703125 38.8125 
Q 48.828125 37.15625 52.796875 32.3125 
Q 56.78125 27.484375 56.78125 20.515625 
Q 56.78125 9.90625 50.3125 4.234375 
Q 43.84375 -1.421875 31.78125 -1.421875 
Q 19.734375 -1.421875 13.25 4.234375 
Q 6.78125 9.90625 6.78125 20.515625 
Q 6.78125 27.484375 10.78125 32.3125 
Q 14.796875 37.15625 21.921875 38.8125 
z
M 18.3125 54.390625 
Q 18.3125 48.734375 21.84375 45.5625 
Q 25.390625 42.390625 31.78125 42.390625 
Q 38.140625 42.390625 41.71875 45.5625 
Q 45.3125 48.734375 45.3125 54.390625 
Q 45.3125 60.0625 41.71875 63.234375 
Q 38.140625 66.40625 31.78125 66.40625 
Q 25.390625 66.40625 21.84375 63.234375 
Q 18.3125 60.0625 18.3125 54.390625 
z
" id="DejaVuSans-56"/>
      </defs>
      <g transform="translate(243.014511 303.028562)scale(0.1 -0.1)">
       <use xlink:href="#DejaVuSans-56"/>
       <use x="63.623047" xlink:href="#DejaVuSans-48"/>
       <use x="127.246094" xlink:href="#DejaVuSans-48"/>
      </g>
     </g>
    </g>
    <g id="xtick_6">
     <g id="line2d_11">
      <path clip-path="url(#p62a9e5d296)" d="M 301.488863 288.430125 
L 301.488863 22.318125 
" style="fill:none;stroke:#b0b0b0;stroke-dasharray:2.96,1.28;stroke-dashoffset:0;stroke-width:0.8;"/>
     </g>
     <g id="line2d_12">
      <g>
       <use style="stroke:#000000;stroke-width:0.8;" x="301.488863" xlink:href="#mc82398a5d6" y="288.430125"/>
      </g>
     </g>
     <g id="text_6">
      <!-- 1000 -->
      <defs>
       <path d="M 12.40625 8.296875 
L 28.515625 8.296875 
L 28.515625 63.921875 
L 10.984375 60.40625 
L 10.984375 69.390625 
L 28.421875 72.90625 
L 38.28125 72.90625 
L 38.28125 8.296875 
L 54.390625 8.296875 
L 54.390625 0 
L 12.40625 0 
z
" id="DejaVuSans-49"/>
      </defs>
      <g transform="translate(288.763863 303.028562)scale(0.1 -0.1)">
       <use xlink:href="#DejaVuSans-49"/>
       <use x="63.623047" xlink:href="#DejaVuSans-48"/>
       <use x="127.246094" xlink:href="#DejaVuSans-48"/>
       <use x="190.869141" xlink:href="#DejaVuSans-48"/>
      </g>
     </g>
    </g>
    <g id="xtick_7">
     <g id="line2d_13">
      <path clip-path="url(#p62a9e5d296)" d="M 350.419465 288.430125 
L 350.419465 22.318125 
" style="fill:none;stroke:#b0b0b0;stroke-dasharray:2.96,1.28;stroke-dashoffset:0;stroke-width:0.8;"/>
     </g>
     <g id="line2d_14">
      <g>
       <use style="stroke:#000000;stroke-width:0.8;" x="350.419465" xlink:href="#mc82398a5d6" y="288.430125"/>
      </g>
     </g>
     <g id="text_7">
      <!-- 1200 -->
      <g transform="translate(337.694465 303.028562)scale(0.1 -0.1)">
       <use xlink:href="#DejaVuSans-49"/>
       <use x="63.623047" xlink:href="#DejaVuSans-50"/>
       <use x="127.246094" xlink:href="#DejaVuSans-48"/>
       <use x="190.869141" xlink:href="#DejaVuSans-48"/>
      </g>
     </g>
    </g>
    <g id="text_8">
     <!-- Day -->
     <defs>
      <path d="M 19.671875 64.796875 
L 19.671875 8.109375 
L 31.59375 8.109375 
Q 46.6875 8.109375 53.6875 14.9375 
Q 60.6875 21.78125 60.6875 36.53125 
Q 60.6875 51.171875 53.6875 57.984375 
Q 46.6875 64.796875 31.59375 64.796875 
z
M 9.8125 72.90625 
L 30.078125 72.90625 
Q 51.265625 72.90625 61.171875 64.09375 
Q 71.09375 55.28125 71.09375 36.53125 
Q 71.09375 17.671875 61.125 8.828125 
Q 51.171875 0 30.078125 0 
L 9.8125 0 
z
" id="DejaVuSans-68"/>
      <path d="M 34.28125 27.484375 
Q 23.390625 27.484375 19.1875 25 
Q 14.984375 22.515625 14.984375 16.5 
Q 14.984375 11.71875 18.140625 8.90625 
Q 21.296875 6.109375 26.703125 6.109375 
Q 34.1875 6.109375 38.703125 11.40625 
Q 43.21875 16.703125 43.21875 25.484375 
L 43.21875 27.484375 
z
M 52.203125 31.203125 
L 52.203125 0 
L 43.21875 0 
L 43.21875 8.296875 
Q 40.140625 3.328125 35.546875 0.953125 
Q 30.953125 -1.421875 24.3125 -1.421875 
Q 15.921875 -1.421875 10.953125 3.296875 
Q 6 8.015625 6 15.921875 
Q 6 25.140625 12.171875 29.828125 
Q 18.359375 34.515625 30.609375 34.515625 
L 43.21875 34.515625 
L 43.21875 35.40625 
Q 43.21875 41.609375 39.140625 45 
Q 35.0625 48.390625 27.6875 48.390625 
Q 23 48.390625 18.546875 47.265625 
Q 14.109375 46.140625 10.015625 43.890625 
L 10.015625 52.203125 
Q 14.9375 54.109375 19.578125 55.046875 
Q 24.21875 56 28.609375 56 
Q 40.484375 56 46.34375 49.84375 
Q 52.203125 43.703125 52.203125 31.203125 
z
" id="DejaVuSans-97"/>
      <path d="M 32.171875 -5.078125 
Q 28.375 -14.84375 24.75 -17.8125 
Q 21.140625 -20.796875 15.09375 -20.796875 
L 7.90625 -20.796875 
L 7.90625 -13.28125 
L 13.1875 -13.28125 
Q 16.890625 -13.28125 18.9375 -11.515625 
Q 21 -9.765625 23.484375 -3.21875 
L 25.09375 0.875 
L 2.984375 54.6875 
L 12.5 54.6875 
L 29.59375 11.921875 
L 46.6875 54.6875 
L 56.203125 54.6875 
z
" id="DejaVuSans-121"/>
     </defs>
     <g transform="translate(209.289688 316.706687)scale(0.1 -0.1)">
      <use xlink:href="#DejaVuSans-68"/>
      <use x="77.001953" xlink:href="#DejaVuSans-97"/>
      <use x="138.28125" xlink:href="#DejaVuSans-121"/>
     </g>
    </g>
   </g>
   <g id="matplotlib.axis_2">
    <g id="ytick_1">
     <g id="line2d_15">
      <path clip-path="url(#p62a9e5d296)" d="M 40.603125 270.320923 
L 397.723125 270.320923 
" style="fill:none;stroke:#b0b0b0;stroke-dasharray:2.96,1.28;stroke-dashoffset:0;stroke-width:0.8;"/>
     </g>
     <g id="line2d_16">
      <defs>
       <path d="M 0 0 
L -3.5 0 
" id="m1391a9036f" style="stroke:#000000;stroke-width:0.8;"/>
      </defs>
      <g>
       <use style="stroke:#000000;stroke-width:0.8;" x="40.603125" xlink:href="#m1391a9036f" y="270.320923"/>
      </g>
     </g>
     <g id="text_9">
      <!-- 24 -->
      <g transform="translate(20.878125 274.120142)scale(0.1 -0.1)">
       <use xlink:href="#DejaVuSans-50"/>
       <use x="63.623047" xlink:href="#DejaVuSans-52"/>
      </g>
     </g>
    </g>
    <g id="ytick_2">
     <g id="line2d_17">
      <path clip-path="url(#p62a9e5d296)" d="M 40.603125 234.949149 
L 397.723125 234.949149 
" style="fill:none;stroke:#b0b0b0;stroke-dasharray:2.96,1.28;stroke-dashoffset:0;stroke-width:0.8;"/>
     </g>
     <g id="line2d_18">
      <g>
       <use style="stroke:#000000;stroke-width:0.8;" x="40.603125" xlink:href="#m1391a9036f" y="234.949149"/>
      </g>
     </g>
     <g id="text_10">
      <!-- 26 -->
      <g transform="translate(20.878125 238.748368)scale(0.1 -0.1)">
       <use xlink:href="#DejaVuSans-50"/>
       <use x="63.623047" xlink:href="#DejaVuSans-54"/>
      </g>
     </g>
    </g>
    <g id="ytick_3">
     <g id="line2d_19">
      <path clip-path="url(#p62a9e5d296)" d="M 40.603125 199.577375 
L 397.723125 199.577375 
" style="fill:none;stroke:#b0b0b0;stroke-dasharray:2.96,1.28;stroke-dashoffset:0;stroke-width:0.8;"/>
     </g>
     <g id="line2d_20">
      <g>
       <use style="stroke:#000000;stroke-width:0.8;" x="40.603125" xlink:href="#m1391a9036f" y="199.577375"/>
      </g>
     </g>
     <g id="text_11">
      <!-- 28 -->
      <g transform="translate(20.878125 203.376594)scale(0.1 -0.1)">
       <use xlink:href="#DejaVuSans-50"/>
       <use x="63.623047" xlink:href="#DejaVuSans-56"/>
      </g>
     </g>
    </g>
    <g id="ytick_4">
     <g id="line2d_21">
      <path clip-path="url(#p62a9e5d296)" d="M 40.603125 164.205601 
L 397.723125 164.205601 
" style="fill:none;stroke:#b0b0b0;stroke-dasharray:2.96,1.28;stroke-dashoffset:0;stroke-width:0.8;"/>
     </g>
     <g id="line2d_22">
      <g>
       <use style="stroke:#000000;stroke-width:0.8;" x="40.603125" xlink:href="#m1391a9036f" y="164.205601"/>
      </g>
     </g>
     <g id="text_12">
      <!-- 30 -->
      <defs>
       <path d="M 40.578125 39.3125 
Q 47.65625 37.796875 51.625 33 
Q 55.609375 28.21875 55.609375 21.1875 
Q 55.609375 10.40625 48.1875 4.484375 
Q 40.765625 -1.421875 27.09375 -1.421875 
Q 22.515625 -1.421875 17.65625 -0.515625 
Q 12.796875 0.390625 7.625 2.203125 
L 7.625 11.71875 
Q 11.71875 9.328125 16.59375 8.109375 
Q 21.484375 6.890625 26.8125 6.890625 
Q 36.078125 6.890625 40.9375 10.546875 
Q 45.796875 14.203125 45.796875 21.1875 
Q 45.796875 27.640625 41.28125 31.265625 
Q 36.765625 34.90625 28.71875 34.90625 
L 20.21875 34.90625 
L 20.21875 43.015625 
L 29.109375 43.015625 
Q 36.375 43.015625 40.234375 45.921875 
Q 44.09375 48.828125 44.09375 54.296875 
Q 44.09375 59.90625 40.109375 62.90625 
Q 36.140625 65.921875 28.71875 65.921875 
Q 24.65625 65.921875 20.015625 65.03125 
Q 15.375 64.15625 9.8125 62.3125 
L 9.8125 71.09375 
Q 15.4375 72.65625 20.34375 73.4375 
Q 25.25 74.21875 29.59375 74.21875 
Q 40.828125 74.21875 47.359375 69.109375 
Q 53.90625 64.015625 53.90625 55.328125 
Q 53.90625 49.265625 50.4375 45.09375 
Q 46.96875 40.921875 40.578125 39.3125 
z
" id="DejaVuSans-51"/>
      </defs>
      <g transform="translate(20.878125 168.004819)scale(0.1 -0.1)">
       <use xlink:href="#DejaVuSans-51"/>
       <use x="63.623047" xlink:href="#DejaVuSans-48"/>
      </g>
     </g>
    </g>
    <g id="ytick_5">
     <g id="line2d_23">
      <path clip-path="url(#p62a9e5d296)" d="M 40.603125 128.833826 
L 397.723125 128.833826 
" style="fill:none;stroke:#b0b0b0;stroke-dasharray:2.96,1.28;stroke-dashoffset:0;stroke-width:0.8;"/>
     </g>
     <g id="line2d_24">
      <g>
       <use style="stroke:#000000;stroke-width:0.8;" x="40.603125" xlink:href="#m1391a9036f" y="128.833826"/>
      </g>
     </g>
     <g id="text_13">
      <!-- 32 -->
      <g transform="translate(20.878125 132.633045)scale(0.1 -0.1)">
       <use xlink:href="#DejaVuSans-51"/>
       <use x="63.623047" xlink:href="#DejaVuSans-50"/>
      </g>
     </g>
    </g>
    <g id="ytick_6">
     <g id="line2d_25">
      <path clip-path="url(#p62a9e5d296)" d="M 40.603125 93.462052 
L 397.723125 93.462052 
" style="fill:none;stroke:#b0b0b0;stroke-dasharray:2.96,1.28;stroke-dashoffset:0;stroke-width:0.8;"/>
     </g>
     <g id="line2d_26">
      <g>
       <use style="stroke:#000000;stroke-width:0.8;" x="40.603125" xlink:href="#m1391a9036f" y="93.462052"/>
      </g>
     </g>
     <g id="text_14">
      <!-- 34 -->
      <g transform="translate(20.878125 97.261271)scale(0.1 -0.1)">
       <use xlink:href="#DejaVuSans-51"/>
       <use x="63.623047" xlink:href="#DejaVuSans-52"/>
      </g>
     </g>
    </g>
    <g id="ytick_7">
     <g id="line2d_27">
      <path clip-path="url(#p62a9e5d296)" d="M 40.603125 58.090278 
L 397.723125 58.090278 
" style="fill:none;stroke:#b0b0b0;stroke-dasharray:2.96,1.28;stroke-dashoffset:0;stroke-width:0.8;"/>
     </g>
     <g id="line2d_28">
      <g>
       <use style="stroke:#000000;stroke-width:0.8;" x="40.603125" xlink:href="#m1391a9036f" y="58.090278"/>
      </g>
     </g>
     <g id="text_15">
      <!-- 36 -->
      <g transform="translate(20.878125 61.889497)scale(0.1 -0.1)">
       <use xlink:href="#DejaVuSans-51"/>
       <use x="63.623047" xlink:href="#DejaVuSans-54"/>
      </g>
     </g>
    </g>
    <g id="ytick_8">
     <g id="line2d_29">
      <path clip-path="url(#p62a9e5d296)" d="M 40.603125 22.718504 
L 397.723125 22.718504 
" style="fill:none;stroke:#b0b0b0;stroke-dasharray:2.96,1.28;stroke-dashoffset:0;stroke-width:0.8;"/>
     </g>
     <g id="line2d_30">
      <g>
       <use style="stroke:#000000;stroke-width:0.8;" x="40.603125" xlink:href="#m1391a9036f" y="22.718504"/>
      </g>
     </g>
     <g id="text_16">
      <!-- 38 -->
      <g transform="translate(20.878125 26.517722)scale(0.1 -0.1)">
       <use xlink:href="#DejaVuSans-51"/>
       <use x="63.623047" xlink:href="#DejaVuSans-56"/>
      </g>
     </g>
    </g>
    <g id="text_17">
     <!-- Price $ -->
     <defs>
      <path d="M 19.671875 64.796875 
L 19.671875 37.40625 
L 32.078125 37.40625 
Q 38.96875 37.40625 42.71875 40.96875 
Q 46.484375 44.53125 46.484375 51.125 
Q 46.484375 57.671875 42.71875 61.234375 
Q 38.96875 64.796875 32.078125 64.796875 
z
M 9.8125 72.90625 
L 32.078125 72.90625 
Q 44.34375 72.90625 50.609375 67.359375 
Q 56.890625 61.8125 56.890625 51.125 
Q 56.890625 40.328125 50.609375 34.8125 
Q 44.34375 29.296875 32.078125 29.296875 
L 19.671875 29.296875 
L 19.671875 0 
L 9.8125 0 
z
" id="DejaVuSans-80"/>
      <path d="M 41.109375 46.296875 
Q 39.59375 47.171875 37.8125 47.578125 
Q 36.03125 48 33.890625 48 
Q 26.265625 48 22.1875 43.046875 
Q 18.109375 38.09375 18.109375 28.8125 
L 18.109375 0 
L 9.078125 0 
L 9.078125 54.6875 
L 18.109375 54.6875 
L 18.109375 46.1875 
Q 20.953125 51.171875 25.484375 53.578125 
Q 30.03125 56 36.53125 56 
Q 37.453125 56 38.578125 55.875 
Q 39.703125 55.765625 41.0625 55.515625 
z
" id="DejaVuSans-114"/>
      <path d="M 9.421875 54.6875 
L 18.40625 54.6875 
L 18.40625 0 
L 9.421875 0 
z
M 9.421875 75.984375 
L 18.40625 75.984375 
L 18.40625 64.59375 
L 9.421875 64.59375 
z
" id="DejaVuSans-105"/>
      <path d="M 48.78125 52.59375 
L 48.78125 44.1875 
Q 44.96875 46.296875 41.140625 47.34375 
Q 37.3125 48.390625 33.40625 48.390625 
Q 24.65625 48.390625 19.8125 42.84375 
Q 14.984375 37.3125 14.984375 27.296875 
Q 14.984375 17.28125 19.8125 11.734375 
Q 24.65625 6.203125 33.40625 6.203125 
Q 37.3125 6.203125 41.140625 7.25 
Q 44.96875 8.296875 48.78125 10.40625 
L 48.78125 2.09375 
Q 45.015625 0.34375 40.984375 -0.53125 
Q 36.96875 -1.421875 32.421875 -1.421875 
Q 20.0625 -1.421875 12.78125 6.34375 
Q 5.515625 14.109375 5.515625 27.296875 
Q 5.515625 40.671875 12.859375 48.328125 
Q 20.21875 56 33.015625 56 
Q 37.15625 56 41.109375 55.140625 
Q 45.0625 54.296875 48.78125 52.59375 
z
" id="DejaVuSans-99"/>
      <path d="M 56.203125 29.59375 
L 56.203125 25.203125 
L 14.890625 25.203125 
Q 15.484375 15.921875 20.484375 11.0625 
Q 25.484375 6.203125 34.421875 6.203125 
Q 39.59375 6.203125 44.453125 7.46875 
Q 49.3125 8.734375 54.109375 11.28125 
L 54.109375 2.78125 
Q 49.265625 0.734375 44.1875 -0.34375 
Q 39.109375 -1.421875 33.890625 -1.421875 
Q 20.796875 -1.421875 13.15625 6.1875 
Q 5.515625 13.8125 5.515625 26.8125 
Q 5.515625 40.234375 12.765625 48.109375 
Q 20.015625 56 32.328125 56 
Q 43.359375 56 49.78125 48.890625 
Q 56.203125 41.796875 56.203125 29.59375 
z
M 47.21875 32.234375 
Q 47.125 39.59375 43.09375 43.984375 
Q 39.0625 48.390625 32.421875 48.390625 
Q 24.90625 48.390625 20.390625 44.140625 
Q 15.875 39.890625 15.1875 32.171875 
z
" id="DejaVuSans-101"/>
      <path id="DejaVuSans-32"/>
      <path d="M 33.796875 -14.703125 
L 28.90625 -14.703125 
L 28.859375 0 
Q 23.734375 0.09375 18.609375 1.1875 
Q 13.484375 2.296875 8.296875 4.5 
L 8.296875 13.28125 
Q 13.28125 10.15625 18.375 8.5625 
Q 23.484375 6.984375 28.90625 6.9375 
L 28.90625 29.203125 
Q 18.109375 30.953125 13.203125 35.15625 
Q 8.296875 39.359375 8.296875 46.6875 
Q 8.296875 54.640625 13.625 59.21875 
Q 18.953125 63.8125 28.90625 64.5 
L 28.90625 75.984375 
L 33.796875 75.984375 
L 33.796875 64.65625 
Q 38.328125 64.453125 42.578125 63.6875 
Q 46.828125 62.9375 50.875 61.625 
L 50.875 53.078125 
Q 46.828125 55.125 42.546875 56.25 
Q 38.28125 57.375 33.796875 57.5625 
L 33.796875 36.71875 
Q 44.875 35.015625 50.09375 30.609375 
Q 55.328125 26.21875 55.328125 18.609375 
Q 55.328125 10.359375 49.78125 5.59375 
Q 44.234375 0.828125 33.796875 0.09375 
z
M 28.90625 37.59375 
L 28.90625 57.625 
Q 23.25 56.984375 20.265625 54.390625 
Q 17.28125 51.8125 17.28125 47.515625 
Q 17.28125 43.3125 20.03125 40.96875 
Q 22.796875 38.625 28.90625 37.59375 
z
M 33.796875 28.21875 
L 33.796875 7.078125 
Q 39.984375 7.90625 43.140625 10.59375 
Q 46.296875 13.28125 46.296875 17.671875 
Q 46.296875 21.96875 43.28125 24.5 
Q 40.28125 27.046875 33.796875 28.21875 
z
" id="DejaVuSans-36"/>
     </defs>
     <g transform="translate(14.798438 172.342094)rotate(-90)scale(0.1 -0.1)">
      <use xlink:href="#DejaVuSans-80"/>
      <use x="58.552734" xlink:href="#DejaVuSans-114"/>
      <use x="99.666016" xlink:href="#DejaVuSans-105"/>
      <use x="127.449219" xlink:href="#DejaVuSans-99"/>
      <use x="182.429688" xlink:href="#DejaVuSans-101"/>
      <use x="243.953125" xlink:href="#DejaVuSans-32"/>
      <use x="275.740234" xlink:href="#DejaVuSans-36"/>
     </g>
    </g>
   </g>
   <g id="line2d_31">
    <path clip-path="url(#p62a9e5d296)" d="M 56.835852 274.410191 
L 57.080505 270.840515 
L 57.325158 272.503964 
L 57.569811 266.905138 
L 57.814464 268.010742 
L 58.059117 268.305098 
L 58.30377 262.151766 
L 58.548423 262.365061 
L 58.793076 271.391445 
L 59.037729 270.066171 
L 59.282382 269.45469 
L 59.527035 268.32301 
L 59.771688 272.199691 
L 60.016341 267.798662 
L 60.260994 266.790412 
L 60.505647 267.145386 
L 60.7503 271.113821 
L 60.994953 269.034645 
L 61.239606 272.810936 
L 61.484259 272.625235 
L 61.728912 271.930872 
L 61.973566 267.240277 
L 62.218219 269.263457 
L 62.462872 269.897134 
L 62.707525 267.955217 
L 62.952178 269.971954 
L 63.196831 269.58996 
L 63.441484 271.121276 
L 63.686137 268.518966 
L 63.93079 261.220157 
L 64.420096 265.33857 
L 64.664749 264.108896 
L 64.909402 265.836573 
L 65.154055 262.72921 
L 65.398708 270.544169 
L 65.643361 266.772938 
L 65.888014 266.983298 
L 66.132667 264.402172 
L 66.37732 260.079707 
L 66.621973 258.167509 
L 66.866626 254.145843 
L 67.111279 252.562476 
L 67.355932 252.713297 
L 67.600585 250.426695 
L 67.845238 252.34483 
L 68.089891 249.053587 
L 68.334544 247.695356 
L 68.579197 244.251235 
L 68.82385 243.755728 
L 69.068503 240.797128 
L 69.802462 246.981495 
L 70.047115 247.683043 
L 70.291768 247.711581 
L 70.536421 239.9623 
L 70.781074 235.964989 
L 71.025727 235.246777 
L 71.27038 231.692078 
L 72.004339 246.224017 
L 72.248992 244.254406 
L 72.493645 239.159047 
L 72.738298 242.304393 
L 73.227604 257.474124 
L 73.472257 257.620391 
L 73.71691 257.168536 
L 73.961563 254.950244 
L 74.206216 264.161283 
L 74.450869 264.372925 
L 74.695522 264.219136 
L 75.184828 266.195764 
L 75.674134 272.883429 
L 76.408093 262.157804 
L 76.652746 260.93889 
L 76.897399 257.815369 
L 77.142052 258.688956 
L 77.386705 262.692475 
L 77.631358 255.432324 
L 78.120664 249.415848 
L 78.60997 247.011247 
L 78.854623 238.601336 
L 79.343929 240.018601 
L 79.588582 242.555537 
L 79.833235 238.503982 
L 80.322541 243.896767 
L 80.567194 246.478837 
L 80.811847 243.406725 
L 81.0565 238.603866 
L 81.301153 243.642925 
L 81.545806 242.217193 
L 81.790459 248.228812 
L 82.035112 248.249187 
L 82.279765 245.541325 
L 82.524418 247.273793 
L 82.769071 251.581988 
L 83.013724 248.36931 
L 83.258377 234.034373 
L 83.50303 235.016784 
L 83.747683 233.070381 
L 83.992336 232.645951 
L 84.236989 231.915392 
L 84.726296 219.054155 
L 84.970949 223.321196 
L 85.215602 219.439995 
L 85.460255 221.511514 
L 85.704908 221.692526 
L 85.949561 217.858652 
L 86.194214 222.918456 
L 86.438867 220.459141 
L 86.68352 220.961124 
L 87.172826 214.88386 
L 87.417479 217.631729 
L 87.662132 202.66018 
L 88.151438 209.898269 
L 88.396091 203.698453 
L 88.640744 211.655665 
L 88.885397 205.831232 
L 89.13005 209.108475 
L 89.374703 215.383178 
L 89.619356 216.801658 
L 89.864009 212.435036 
L 90.108662 215.063759 
L 90.353315 214.927376 
L 90.597968 213.884145 
L 90.842621 209.909165 
L 91.087274 202.606578 
L 91.57658 207.648808 
L 91.821233 208.079175 
L 92.065886 217.347797 
L 92.310539 214.17091 
L 92.555192 207.659366 
L 92.799845 208.396199 
L 93.044498 208.058632 
L 93.533804 196.209457 
L 93.778457 195.340221 
L 94.02311 192.676921 
L 94.267763 193.999261 
L 94.512416 192.91302 
L 94.757069 198.256756 
L 95.246375 195.332496 
L 95.491028 196.955904 
L 95.735681 196.623734 
L 95.980334 197.485447 
L 96.224987 192.316111 
L 96.46964 195.425802 
L 96.714293 190.739491 
L 96.958946 194.488425 
L 97.203599 186.882139 
L 97.448252 186.146891 
L 97.692905 182.357376 
L 97.937558 182.648797 
L 98.182211 175.874876 
L 98.426864 179.328207 
L 98.671517 177.078003 
L 98.91617 178.060177 
L 99.160823 177.064442 
L 99.405476 177.930372 
L 99.894782 151.438581 
L 100.139435 151.148138 
L 100.384088 154.861686 
L 100.628741 146.079563 
L 100.873394 147.273009 
L 101.118047 152.214814 
L 101.3627 143.932212 
L 101.607353 146.19709 
L 101.852006 143.716893 
L 102.341312 157.688322 
L 102.585965 160.531993 
L 102.830618 154.837972 
L 103.075271 178.149908 
L 103.319924 181.107057 
L 103.564577 175.031278 
L 104.053883 184.658686 
L 104.298536 179.463645 
L 104.543189 184.543015 
L 104.787842 186.771967 
L 105.032495 184.721497 
L 105.277148 173.571982 
L 105.521801 172.937225 
L 105.766454 170.144794 
L 106.500413 184.859229 
L 106.745066 183.583813 
L 106.98972 174.687132 
L 107.234373 178.050091 
L 107.479026 179.276966 
L 107.723679 179.723154 
L 107.968332 192.296074 
L 108.212985 192.75498 
L 108.457638 210.234622 
L 108.702291 201.530221 
L 108.946944 203.119255 
L 109.191597 206.246655 
L 109.43625 195.408868 
L 109.925556 190.800346 
L 110.170209 189.812234 
L 110.414862 189.55421 
L 110.659515 178.223581 
L 110.904168 178.113408 
L 111.148821 176.960308 
L 111.393474 172.743495 
L 111.638127 178.042029 
L 111.88278 185.999882 
L 112.127433 189.051113 
L 112.372086 201.992804 
L 112.616739 197.352201 
L 113.106045 194.276918 
L 113.840004 202.383535 
L 114.084657 203.230979 
L 114.32931 197.740942 
L 115.063269 189.512448 
L 115.307922 183.754367 
L 115.552575 183.045499 
L 115.797228 183.405162 
L 116.041881 185.2955 
L 116.286534 185.316415 
L 116.531187 188.646214 
L 116.77584 178.328491 
L 117.020493 173.861716 
L 117.265146 172.763769 
L 117.754452 176.567351 
L 118.488411 168.207398 
L 118.733064 175.802654 
L 118.977717 177.75415 
L 119.22237 173.2389 
L 119.467023 176.419835 
L 119.711676 173.872004 
L 119.956329 175.227301 
L 120.200982 177.484724 
L 120.445635 176.09539 
L 120.690288 176.454041 
L 120.934941 175.109775 
L 121.424247 183.182422 
L 121.6689 190.550586 
L 122.158206 188.02124 
L 122.402859 193.054564 
L 122.647512 194.469433 
L 122.892165 191.419754 
L 123.136818 196.898693 
L 123.381471 197.259064 
L 123.626124 193.650629 
L 123.870777 195.520896 
L 124.11543 193.616423 
L 124.360083 197.022628 
L 124.604736 190.817145 
L 124.849389 192.515879 
L 125.094042 192.351632 
L 125.338695 191.977903 
L 125.583348 189.386556 
L 125.828001 185.582097 
L 126.072654 191.856497 
L 126.56196 184.85029 
L 126.806613 186.125369 
L 127.051266 179.152761 
L 127.295919 182.645053 
L 127.540572 180.347083 
L 127.785225 183.233865 
L 128.029878 184.773513 
L 128.274531 188.541776 
L 128.519184 188.043504 
L 128.763837 181.874419 
L 129.00849 184.533266 
L 129.497797 179.63619 
L 129.74245 183.78358 
L 129.987103 179.770415 
L 130.476409 192.833949 
L 130.721062 192.016527 
L 130.965715 183.868217 
L 131.210368 184.787277 
L 131.455021 173.926753 
L 131.699674 177.17141 
L 132.18898 157.932752 
L 132.433633 153.689459 
L 132.678286 155.585397 
L 132.922939 150.601459 
L 133.167592 151.964615 
L 133.656898 151.797265 
L 133.901551 149.567976 
L 134.146204 140.740651 
L 134.63551 150.637553 
L 134.880163 141.96594 
L 135.124816 140.458574 
L 135.369469 140.904999 
L 135.614122 145.419608 
L 135.858775 146.35405 
L 136.103428 139.277914 
L 136.348081 140.738829 
L 136.592734 138.381624 
L 136.837387 129.849633 
L 137.08204 127.669763 
L 137.326693 124.255361 
L 137.571346 127.447664 
L 137.815999 133.428181 
L 138.060652 128.877477 
L 138.305305 128.032529 
L 138.549958 125.608735 
L 138.794611 125.245901 
L 139.039264 129.560304 
L 139.283917 129.667002 
L 139.52857 132.194323 
L 139.773223 130.517246 
L 140.017876 140.975535 
L 140.262529 140.123537 
L 140.507182 140.418803 
L 140.751835 135.572091 
L 140.996488 134.894358 
L 141.241141 139.034968 
L 141.730447 157.542291 
L 142.219753 157.818869 
L 142.464406 159.821269 
L 142.709059 149.079655 
L 142.953712 150.111485 
L 143.198365 158.030443 
L 143.443018 156.176334 
L 143.687671 157.18445 
L 143.932324 152.773267 
L 144.176977 151.23011 
L 144.42163 150.405705 
L 144.666283 151.426504 
L 144.910936 154.348031 
L 145.155589 153.285943 
L 145.400242 152.775931 
L 145.889548 145.897539 
L 146.134201 146.278117 
L 146.623507 152.866977 
L 146.86816 144.853566 
L 147.112813 141.803212 
L 147.357466 142.069029 
L 147.602119 143.357096 
L 147.846772 140.842087 
L 148.091425 140.145699 
L 148.336078 144.670664 
L 148.580731 160.422866 
L 148.825384 167.657379 
L 149.070037 154.822016 
L 149.31469 160.315291 
L 149.559343 148.208631 
L 149.803996 155.420982 
L 150.048649 151.928791 
L 150.293302 137.269375 
L 150.537955 151.122636 
L 150.782608 147.681146 
L 151.516567 129.743677 
L 151.76122 134.494384 
L 152.005874 132.885212 
L 152.250527 128.613616 
L 152.49518 129.770158 
L 152.739833 136.70566 
L 152.984486 135.359167 
L 153.229139 136.87021 
L 153.473792 127.786817 
L 153.718445 129.560236 
L 153.963098 127.846457 
L 154.207751 123.532459 
L 154.697057 127.82534 
L 154.94171 115.429351 
L 155.186363 114.491232 
L 155.431016 119.675141 
L 155.675669 119.93637 
L 155.920322 120.551865 
L 156.164975 120.11131 
L 156.409628 127.71989 
L 156.654281 142.414119 
L 156.898934 140.500775 
L 157.143587 137.346927 
L 157.38824 128.818512 
L 157.632893 132.686287 
L 158.122199 124.386178 
L 158.366852 136.352204 
L 158.856158 124.238292 
L 159.100811 125.850466 
L 159.345464 129.639307 
L 159.590117 125.405121 
L 159.83477 128.372357 
L 160.079423 122.572481 
L 160.324076 120.6532 
L 160.568729 124.917812 
L 160.813382 141.350175 
L 161.058035 146.809886 
L 161.302688 140.67359 
L 161.791994 164.330312 
L 162.2813 164.02668 
L 162.770606 158.006493 
L 163.015259 147.457765 
L 163.259912 145.002194 
L 163.504565 146.333102 
L 163.749218 149.815173 
L 163.993871 149.058133 
L 164.238524 126.707154 
L 164.483177 131.871396 
L 164.72783 140.38028 
L 164.972483 142.285191 
L 165.217136 149.190064 
L 165.706442 171.875777 
L 165.951095 178.991685 
L 166.195748 176.66123 
L 166.440401 179.191554 
L 166.929707 176.324978 
L 167.17436 177.987989 
L 167.419013 178.578015 
L 167.663666 177.474165 
L 167.908319 174.678463 
L 168.152972 175.174475 
L 168.397625 169.638696 
L 168.642278 168.092469 
L 168.886931 171.094349 
L 169.131584 169.018107 
L 169.376237 169.05771 
L 169.62089 169.314925 
L 169.865543 168.834329 
L 170.110196 167.485408 
L 170.354849 169.598958 
L 170.599502 168.71606 
L 170.844155 166.612731 
L 171.088808 172.513199 
L 171.333461 173.632398 
L 171.578114 170.989506 
L 171.822767 172.23372 
L 172.06742 171.874664 
L 172.556726 169.06955 
L 172.801379 171.305147 
L 173.046032 167.298695 
L 173.290685 169.371226 
L 173.535338 166.105992 
L 173.779991 171.792423 
L 174.024644 174.379317 
L 174.269298 165.779252 
L 174.513951 169.482377 
L 174.758604 168.153661 
L 175.003257 167.926469 
L 175.492563 156.040221 
L 175.737216 153.313739 
L 175.981869 153.967184 
L 176.226522 159.772356 
L 176.471175 161.403388 
L 176.715828 162.244558 
L 176.960481 161.108695 
L 177.449787 155.326326 
L 177.69444 145.81152 
L 177.939093 152.965849 
L 178.183746 149.732661 
L 178.428399 156.13825 
L 178.673052 153.749437 
L 179.651664 160.515936 
L 180.14097 174.952983 
L 180.385623 184.562681 
L 180.630276 182.079145 
L 180.874929 184.082726 
L 181.119582 189.986196 
L 181.364235 192.275767 
L 181.608888 196.42771 
L 181.853541 191.403124 
L 182.098194 192.896389 
L 182.342847 195.775682 
L 182.5875 193.52585 
L 182.832153 184.538292 
L 183.076806 186.039957 
L 183.321459 182.559168 
L 183.566112 180.780959 
L 184.055418 182.893868 
L 184.300071 181.170846 
L 184.544724 181.384883 
L 185.03403 171.369139 
L 185.278683 173.360677 
L 185.523336 173.101843 
L 185.767989 175.269501 
L 186.012642 172.781141 
L 186.257295 173.287577 
L 186.501948 168.419782 
L 186.991254 175.636147 
L 187.48056 168.696428 
L 187.725213 172.219215 
L 187.969866 163.711039 
L 188.214519 161.46043 
L 188.703825 152.293952 
L 189.437784 161.313657 
L 189.682437 156.886721 
L 190.171743 167.179617 
L 190.416396 166.314125 
L 190.661049 169.811983 
L 190.905702 177.065421 
L 191.150355 178.653173 
L 191.395008 176.0006 
L 191.639661 176.909472 
L 191.884314 183.416395 
L 192.128967 173.342562 
L 192.37362 179.962154 
L 192.618273 177.571148 
L 192.862926 188.794134 
L 193.107579 189.038497 
L 193.352232 193.688949 
L 193.596885 202.166023 
L 194.086191 198.48911 
L 194.330844 192.513248 
L 194.575497 192.135268 
L 194.82015 186.902042 
L 195.064803 177.975541 
L 195.309456 179.368315 
L 195.554109 178.261092 
L 196.043415 165.154278 
L 196.288068 163.356335 
L 196.532721 159.177775 
L 196.777375 157.620012 
L 197.022028 161.835307 
L 197.266681 161.715487 
L 197.511334 163.732291 
L 197.755987 158.874346 
L 198.245293 155.120048 
L 198.489946 155.053628 
L 198.734599 156.363115 
L 198.979252 156.627718 
L 199.223905 151.93628 
L 199.468558 154.563721 
L 199.713211 154.561765 
L 199.957864 154.336022 
L 200.202517 158.330601 
L 200.44717 154.072229 
L 200.691823 143.247969 
L 200.936476 142.502601 
L 201.181129 140.624811 
L 201.670435 132.026804 
L 201.915088 133.451153 
L 202.159741 127.869261 
L 202.649047 128.617192 
L 202.8937 130.093456 
L 203.138353 133.696966 
L 203.383006 145.678611 
L 203.627659 147.186888 
L 203.872312 150.446758 
L 204.116965 142.915933 
L 204.361618 128.294298 
L 204.606271 128.954254 
L 204.850924 126.258368 
L 205.095577 137.06114 
L 205.34023 137.431395 
L 205.584883 133.376232 
L 205.829536 138.009176 
L 206.074189 138.237887 
L 206.318842 142.162908 
L 206.563495 139.152123 
L 206.808148 142.103774 
L 207.052801 137.702272 
L 207.297454 130.261919 
L 207.542107 119.076782 
L 208.031413 114.476794 
L 208.276066 120.069414 
L 208.520719 119.253611 
L 208.765372 120.544781 
L 209.254678 108.530921 
L 209.499331 116.697313 
L 209.743984 113.544882 
L 209.988637 119.61071 
L 210.23329 113.596022 
L 210.477943 116.99241 
L 210.722596 128.257664 
L 210.967249 130.06087 
L 211.211902 139.97447 
L 211.701208 126.948076 
L 211.945861 126.294462 
L 212.190514 110.330045 
L 212.435167 107.26269 
L 212.67982 109.129887 
L 212.924473 90.095214 
L 213.169126 88.515558 
L 213.413779 78.068198 
L 213.658432 82.057818 
L 214.392391 85.964252 
L 214.637044 83.296971 
L 214.881697 86.246328 
L 215.12635 87.034672 
L 215.371003 81.253282 
L 215.615656 82.515239 
L 215.860309 87.158068 
L 216.104962 79.009488 
L 216.349615 82.700299 
L 216.594268 81.344024 
L 216.838921 84.077691 
L 217.083574 92.745155 
L 217.328227 91.490147 
L 217.817533 98.547123 
L 218.062186 92.128581 
L 218.306839 92.330035 
L 218.551492 84.853149 
L 218.796145 89.617147 
L 219.040798 85.994477 
L 219.285452 89.903339 
L 219.530105 88.265595 
L 219.774758 74.326651 
L 220.019411 83.951799 
L 220.264064 87.731734 
L 220.508717 89.744389 
L 220.998023 75.356862 
L 221.242676 79.312816 
L 221.487329 87.193488 
L 222.221288 83.229775 
L 222.465941 81.471603 
L 222.955247 67.599316 
L 223.1999 73.96827 
L 223.444553 74.774628 
L 223.689206 71.366972 
L 223.933859 71.888217 
L 224.178512 74.549628 
L 224.423165 74.922311 
L 224.667818 76.961683 
L 224.912471 76.238984 
L 225.157124 68.710554 
L 225.401777 70.51096 
L 225.64643 82.399737 
L 225.891083 83.8 
L 226.135736 86.955332 
L 226.380389 93.323072 
L 226.625042 90.605259 
L 226.869695 86.514372 
L 227.114348 90.23696 
L 227.359001 101.607327 
L 227.603654 99.243712 
L 227.848307 91.687621 
L 228.09296 93.106572 
L 228.582266 100.472476 
L 228.826919 93.339871 
L 229.071572 92.647059 
L 229.316225 93.013536 
L 229.560878 88.948826 
L 230.050184 86.538727 
L 230.294837 87.927859 
L 230.53949 90.855289 
L 231.273449 79.758634 
L 231.518102 83.158328 
L 232.007408 85.462302 
L 232.496714 90.889562 
L 232.741367 92.694623 
L 232.98602 92.123048 
L 233.230673 86.909725 
L 233.475326 84.423389 
L 233.964632 91.642756 
L 234.209285 91.495679 
L 234.453938 92.599023 
L 234.698591 85.865414 
L 234.943244 89.337162 
L 235.187897 87.105984 
L 235.43255 83.721469 
L 235.921856 92.16933 
L 236.166509 93.748042 
L 236.411162 99.50312 
L 236.655815 100.503308 
L 236.900468 97.717557 
L 237.145121 103.411848 
L 237.389774 105.426054 
L 237.634427 97.018876 
L 237.87908 102.095783 
L 238.857692 74.122229 
L 239.102345 75.967432 
L 239.346998 73.770594 
L 239.591651 74.256689 
L 239.836304 71.362452 
L 240.080957 73.130204 
L 240.32561 77.66873 
L 240.570263 79.170058 
L 240.814916 88.083301 
L 241.059569 86.474904 
L 241.304222 68.75299 
L 241.548875 62.067214 
L 241.793529 62.974906 
L 242.038182 56.832706 
L 242.282835 55.234834 
L 242.527488 56.085517 
L 242.772141 61.021149 
L 243.016794 72.161928 
L 243.261447 71.43707 
L 243.5061 68.391776 
L 243.750753 72.879094 
L 243.995406 68.409317 
L 244.240059 68.570629 
L 244.484712 69.393785 
L 244.729365 66.123086 
L 244.974018 65.853828 
L 245.218671 70.294055 
L 245.707977 99.766104 
L 246.197283 136.998363 
L 246.686589 105.080964 
L 247.420548 137.690229 
L 247.665201 127.351187 
L 247.909854 128.931416 
L 248.154507 138.084334 
L 248.39916 118.076729 
L 248.643813 128.142364 
L 248.888466 116.757358 
L 249.133119 110.596874 
L 249.377772 115.462005 
L 249.622425 107.345403 
L 249.867078 107.219106 
L 250.111731 102.158391 
L 250.601037 120.492562 
L 250.84569 122.95967 
L 251.090343 116.703317 
L 251.334996 115.411607 
L 251.824302 147.495816 
L 252.068955 143.803385 
L 252.558261 130.036852 
L 252.802914 108.498807 
L 253.047567 101.805543 
L 253.29222 114.076719 
L 253.536873 104.731354 
L 253.781526 108.151491 
L 254.026179 105.814256 
L 254.270832 106.110028 
L 254.515485 110.436979 
L 254.760138 109.355427 
L 255.004791 91.285319 
L 255.249444 85.889229 
L 255.494097 84.693794 
L 255.983403 102.200221 
L 256.228056 104.08361 
L 256.472709 91.578325 
L 256.717362 89.923782 
L 257.206668 67.619624 
L 257.695974 95.79868 
L 257.940627 73.744417 
L 258.18528 75.501645 
L 258.429933 90.581376 
L 258.674586 89.620318 
L 259.163892 98.339326 
L 259.408545 95.820404 
L 259.653198 96.762706 
L 259.897851 102.918129 
L 260.387157 106.744751 
L 260.63181 111.836635 
L 260.876463 104.284525 
L 261.121116 122.013725 
L 261.365769 123.813051 
L 261.610422 138.291995 
L 262.099728 112.23779 
L 262.344381 113.997716 
L 262.589034 114.277904 
L 262.833687 99.322648 
L 263.322993 120.80284 
L 263.567646 113.413795 
L 264.056952 118.425192 
L 264.301606 122.478096 
L 264.546259 121.238065 
L 264.790912 126.438975 
L 265.280218 122.903943 
L 265.524871 117.395387 
L 266.014177 127.544275 
L 266.25883 119.210095 
L 266.992789 116.565753 
L 267.237442 120.044991 
L 267.482095 112.881891 
L 267.726748 114.348811 
L 268.216054 128.073684 
L 268.460707 124.042437 
L 268.70536 134.019354 
L 268.950013 137.627115 
L 269.194666 144.437265 
L 269.439319 143.341612 
L 269.683972 144.631163 
L 269.928625 155.52515 
L 270.173278 142.846207 
L 270.417931 148.065502 
L 270.662584 150.173351 
L 270.907237 150.587358 
L 271.15189 152.001216 
L 271.396543 149.798036 
L 271.641196 153.453158 
L 271.885849 150.556762 
L 272.130502 153.165111 
L 272.375155 158.730575 
L 272.619808 153.736618 
L 272.864461 159.308795 
L 273.109114 159.873657 
L 273.59842 179.449073 
L 273.843073 179.013611 
L 274.087726 187.161112 
L 274.577032 171.342625 
L 274.821685 177.599079 
L 275.066338 173.467746 
L 275.310991 165.592303 
L 275.555644 168.752256 
L 276.04495 171.015784 
L 276.289603 161.325228 
L 276.534256 162.999472 
L 276.778909 162.01841 
L 277.023562 152.046688 
L 277.268215 158.47788 
L 277.512868 168.128429 
L 277.757521 161.534508 
L 278.002174 162.621998 
L 278.246827 164.289495 
L 278.49148 167.332259 
L 278.736133 165.920729 
L 278.980786 173.339661 
L 279.225439 166.786558 
L 279.470092 169.379727 
L 279.714745 153.709159 
L 280.204051 170.247175 
L 280.448704 178.582097 
L 280.693357 173.563683 
L 280.93801 171.783956 
L 281.182663 161.243695 
L 281.427316 155.902961 
L 281.671969 159.248649 
L 281.916622 161.003616 
L 282.161275 166.068581 
L 282.405928 161.434085 
L 282.650581 161.111866 
L 282.895234 168.619246 
L 283.139887 161.714846 
L 283.629193 138.944192 
L 283.873846 111.522647 
L 284.363152 119.577247 
L 284.607805 129.576361 
L 284.852458 128.162739 
L 285.097111 118.044682 
L 285.341764 116.419621 
L 285.586417 119.174541 
L 285.83107 117.043752 
L 286.320376 106.263176 
L 286.56503 106.143154 
L 286.809683 105.532516 
L 287.054336 106.402899 
L 287.298989 109.100135 
L 287.543642 109.876267 
L 287.788295 111.394664 
L 288.032948 114.866075 
L 288.277601 113.319815 
L 288.522254 97.862744 
L 288.766907 103.278265 
L 289.01156 100.403458 
L 289.256213 99.925931 
L 289.500866 95.905749 
L 289.745519 96.252931 
L 289.990172 107.345134 
L 290.234825 106.674181 
L 290.479478 106.58155 
L 290.724131 103.523977 
L 290.968784 109.597631 
L 291.213437 107.166955 
L 291.45809 103.4584 
L 291.702743 97.363089 
L 291.947396 98.634087 
L 292.436702 86.747603 
L 292.681355 85.525249 
L 292.926008 82.334227 
L 293.170661 80.754976 
L 293.415314 79.93553 
L 293.659967 77.819787 
L 293.90462 80.966955 
L 294.149273 76.716915 
L 294.393926 78.234435 
L 294.638579 71.131447 
L 294.883232 70.069865 
L 295.127885 70.53039 
L 295.372538 79.912929 
L 295.617191 75.237649 
L 295.861844 78.612381 
L 296.106497 79.419278 
L 296.35115 88.431157 
L 296.840456 79.048011 
L 297.085109 84.240825 
L 297.329762 81.982795 
L 297.574415 92.685852 
L 297.819068 95.519977 
L 298.308374 74.766262 
L 298.553027 71.71611 
L 299.042333 61.318338 
L 299.286986 60.641044 
L 299.531639 62.232304 
L 299.776292 56.037683 
L 300.020945 55.634032 
L 300.510251 52.89598 
L 300.754904 42.19353 
L 301.24421 47.388907 
L 301.488863 46.891546 
L 302.712128 43.125779 
L 302.956781 42.719902 
L 303.201434 45.83165 
L 303.446087 41.777263 
L 303.69074 34.414125 
L 304.180046 69.634235 
L 304.424699 71.075653 
L 304.669352 66.117959 
L 304.914005 75.555415 
L 305.158658 72.754687 
L 305.403311 71.878839 
L 305.647964 71.819738 
L 305.892617 74.828263 
L 306.13727 72.541156 
L 306.381923 78.265267 
L 306.626576 72.178254 
L 306.871229 71.469453 
L 307.360535 77.762441 
L 307.605188 73.379155 
L 307.849841 78.312493 
L 308.094494 79.20089 
L 308.339147 78.21966 
L 308.5838 73.26905 
L 308.828453 77.454052 
L 309.31776 80.678064 
L 309.562413 79.086129 
L 309.807066 79.097194 
L 310.051719 77.893325 
L 310.296372 79.970883 
L 310.541025 90.720964 
L 310.785678 80.816977 
L 311.030331 91.61361 
L 311.274984 93.297907 
L 311.519637 89.561623 
L 312.008943 98.312812 
L 312.253596 95.365816 
L 312.498249 87.283758 
L 312.742902 89.876758 
L 312.987555 87.936629 
L 313.232208 98.685766 
L 313.721514 92.421384 
L 313.966167 104.381946 
L 314.21082 94.605269 
L 314.455473 97.97575 
L 314.700126 97.481222 
L 314.944779 94.2114 
L 315.189432 98.695346 
L 315.434085 100.178997 
L 315.678738 99.200061 
L 315.923391 107.609804 
L 316.168044 108.520464 
L 316.412697 113.819268 
L 316.65735 115.587762 
L 316.902003 118.34457 
L 317.146656 115.108279 
L 317.635962 117.820897 
L 317.880615 124.002632 
L 318.125268 124.814049 
L 318.614574 120.299204 
L 318.859227 118.995485 
L 319.10388 128.553099 
L 319.348533 132.221445 
L 320.082492 163.534918 
L 320.327145 161.897308 
L 320.571798 155.590693 
L 320.816451 162.260243 
L 321.305757 101.567724 
L 321.55041 118.415005 
L 322.039716 123.250922 
L 322.773675 136.46376 
L 323.018328 134.944924 
L 323.262981 139.161332 
L 323.507634 137.61008 
L 323.752287 132.896377 
L 323.99694 135.565412 
L 324.486246 124.996545 
L 324.730899 136.86569 
L 324.975552 133.609597 
L 325.464858 134.883867 
L 325.954164 145.539833 
L 326.44347 120.502008 
L 326.688123 113.321231 
L 326.932776 113.559792 
L 327.177429 114.638106 
L 327.422082 112.927296 
L 327.666735 113.114177 
L 327.911388 112.821171 
L 328.156041 120.611978 
L 328.400694 121.56838 
L 328.645347 119.069765 
L 328.89 118.322374 
L 329.134653 121.462998 
L 329.379306 118.946167 
L 329.623959 119.071789 
L 330.113265 105.086766 
L 330.357918 99.638727 
L 330.602571 101.871525 
L 330.847224 101.948234 
L 331.091877 102.336502 
L 331.33653 112.923315 
L 331.581184 116.766128 
L 331.825837 118.057568 
L 332.07049 126.114799 
L 332.315143 126.666336 
L 332.559796 132.349732 
L 332.804449 131.25391 
L 333.293755 141.964389 
L 333.538408 139.577262 
L 333.783061 139.82908 
L 334.027714 137.496804 
L 334.272367 139.388525 
L 334.51702 132.157149 
L 334.761673 133.200954 
L 335.006326 132.207277 
L 335.250979 125.927243 
L 335.495632 123.579011 
L 335.740285 126.279147 
L 335.984938 125.188959 
L 336.229591 121.008005 
L 336.474244 121.636251 
L 336.718897 117.143332 
L 336.96355 114.700647 
L 337.208203 101.494321 
L 337.452856 99.738308 
L 337.697509 99.857723 
L 337.942162 99.60243 
L 338.186815 100.019575 
L 338.431468 91.74409 
L 338.676121 88.334545 
L 338.920774 88.135655 
L 339.165427 90.760499 
L 339.41008 85.33776 
L 339.654733 83.763973 
L 339.899386 83.699475 
L 340.144039 86.519837 
L 340.388692 92.620005 
L 340.633345 93.803229 
L 340.877998 91.31912 
L 341.122651 90.414599 
L 341.367304 90.484359 
L 341.611957 88.545513 
L 341.85661 81.454129 
L 342.101263 85.093734 
L 342.345916 86.986906 
L 342.590569 85.758277 
L 342.835222 88.099358 
L 343.079875 84.342767 
L 343.324528 87.505654 
L 343.569181 92.592209 
L 343.813834 89.334801 
L 344.058487 89.740408 
L 344.30314 86.930234 
L 344.547793 86.579207 
L 344.792446 89.053399 
L 345.037099 88.438579 
L 345.281752 86.671299 
L 345.526405 89.347687 
L 345.771058 90.690064 
L 346.015711 90.777703 
L 346.260364 91.841309 
L 346.505017 93.748716 
L 346.74967 93.878184 
L 346.994323 94.566813 
L 347.238976 92.498633 
L 347.728282 99.274072 
L 347.972935 96.898786 
L 348.217588 98.688127 
L 348.462241 97.007811 
L 348.706894 96.653613 
L 348.951547 95.144932 
L 349.1962 94.986791 
L 349.440853 93.962045 
L 350.174812 101.672094 
L 350.419465 102.002342 
L 350.664118 101.513279 
L 350.908771 102.085393 
L 351.153424 103.304644 
L 351.398077 109.340045 
L 351.64273 109.063905 
L 351.887383 109.573411 
L 352.132036 107.751551 
L 352.621342 123.052099 
L 352.865995 123.127931 
L 353.110648 119.11011 
L 353.355301 125.149829 
L 353.599954 124.768509 
L 353.844607 126.298375 
L 354.089261 124.471995 
L 354.578567 125.074671 
L 354.82322 116.065153 
L 355.067873 115.15112 
L 355.557179 121.358695 
L 355.801832 126.143607 
L 356.046485 127.339245 
L 356.291138 131.684379 
L 356.535791 114.076719 
L 356.780444 115.479748 
L 357.025097 117.703235 
L 357.759056 110.650915 
L 358.248362 100.424777 
L 358.737668 91.882801 
L 358.982321 89.981735 
L 359.226974 92.21939 
L 359.471627 96.814183 
L 359.71628 96.969828 
L 359.960933 98.990444 
L 360.205586 99.690541 
L 360.450239 95.63467 
L 360.694892 98.824207 
L 360.939545 106.043708 
L 361.184198 103.544352 
L 361.428851 102.511982 
L 361.673504 106.809856 
L 362.16281 104.797268 
L 362.407463 102.311405 
L 362.652116 105.484885 
L 362.896769 103.571676 
L 363.141422 99.068097 
L 363.875381 104.394427 
L 364.364687 111.81653 
L 364.853993 107.413949 
L 365.098646 107.354039 
L 365.343299 108.736694 
L 365.587952 111.438921 
L 365.832605 102.554351 
L 366.077258 98.989769 
L 366.321911 104.898738 
L 366.566564 105.195724 
L 366.811217 102.121757 
L 367.05587 102.759449 
L 367.300523 105.734983 
L 367.789829 103.375753 
L 368.034482 103.790536 
L 368.523788 115.568332 
L 368.768441 113.911089 
L 369.013094 107.247577 
L 369.257747 105.858918 
L 369.5024 106.077711 
L 369.747053 103.193527 
L 369.991706 101.810738 
L 370.236359 101.332806 
L 370.481012 102.180993 
L 370.725665 93.987817 
L 370.970318 93.420695 
L 371.214971 96.341582 
L 371.459624 92.861265 
L 371.704277 92.873476 
L 371.94893 91.044599 
L 372.193583 87.178983 
L 372.438236 68.912211 
L 372.682889 74.787581 
L 372.927542 63.077522 
L 373.172195 69.365719 
L 373.416848 66.168558 
L 373.661501 67.570576 
L 373.906154 58.241807 
L 374.39546 58.983802 
L 374.640113 66.547517 
L 374.884766 69.91051 
L 375.374072 64.469487 
L 375.618725 62.838556 
L 375.863378 56.334467 
L 376.108031 55.226266 
L 376.352684 58.455945 
L 376.841991 56.581799 
L 377.086644 55.128912 
L 377.331297 50.631945 
L 377.57595 49.91768 
L 377.820603 51.769495 
L 378.065256 51.818205 
L 378.309909 58.074558 
L 378.554562 54.09128 
L 378.799215 60.550572 
L 379.043868 53.391452 
L 379.288521 50.216285 
L 379.533174 50.920904 
L 380.02248 54.818972 
L 380.267133 62.072207 
L 380.511786 64.294277 
L 380.756439 72.000886 
L 381.001092 73.462408 
L 381.490398 66.644128 
L 381.490398 66.644128 
" style="fill:none;stroke:#1f77b4;stroke-linecap:square;stroke-width:1.5;"/>
   </g>
   <g id="line2d_32">
    <path clip-path="url(#p62a9e5d296)" d="M 56.835852 273.504383 
L 57.080505 275.449831 
L 57.325158 269.613488 
L 57.569811 271.382077 
L 57.814464 271.735794 
L 58.059117 265.368875 
L 58.30377 265.722593 
L 58.548423 274.919254 
L 58.793076 273.327524 
L 59.037729 272.620089 
L 59.282382 271.382077 
L 59.527035 275.272972 
L 59.771688 270.674641 
L 60.016341 269.613488 
L 60.260994 269.967206 
L 60.505647 274.03496 
L 60.7503 271.912653 
L 60.994953 275.803548 
L 61.239606 275.62669 
L 61.484259 274.919254 
L 61.728912 270.144065 
L 61.973566 272.266371 
L 62.218219 272.973806 
L 62.462872 271.028359 
L 62.707525 273.150665 
L 62.952178 272.796948 
L 63.196831 274.388677 
L 63.441484 271.735794 
L 63.686137 264.307722 
L 64.175443 268.552335 
L 64.420096 267.314323 
L 64.664749 269.082911 
L 64.909402 265.899452 
L 65.154055 273.858101 
L 65.398708 269.967206 
L 65.643361 270.144065 
L 65.888014 267.491181 
L 66.132667 263.06971 
L 66.37732 261.124262 
L 66.621973 257.056508 
L 66.866626 255.464778 
L 67.111279 255.641637 
L 67.355932 253.342472 
L 67.600585 255.287919 
L 67.845238 251.927601 
L 68.089891 250.51273 
L 68.334544 246.975552 
L 68.579197 246.444976 
L 68.82385 243.438375 
L 69.557809 249.805294 
L 69.802462 250.51273 
L 70.047115 250.51273 
L 70.291768 242.554081 
L 70.536421 238.486327 
L 70.781074 237.778891 
L 71.025727 234.241714 
L 71.759686 249.274718 
L 72.004339 247.152411 
L 72.248992 241.846645 
L 72.493645 245.030105 
L 72.982951 260.593685 
L 73.227604 260.593685 
L 73.472257 260.063109 
L 73.71691 257.763944 
L 73.961563 267.314323 
L 74.206216 267.491181 
L 74.450869 267.314323 
L 74.940175 269.436629 
L 75.429481 276.334125 
L 76.16344 265.368875 
L 76.408093 264.130863 
L 76.652746 260.947403 
L 76.897399 261.831698 
L 77.142052 265.899452 
L 77.386705 258.471379 
L 77.876011 252.281319 
L 78.365317 249.805294 
L 78.60997 241.316068 
L 78.854623 241.846645 
L 79.099276 242.730939 
L 79.343929 245.383823 
L 79.588582 241.316068 
L 80.077888 246.798694 
L 80.322541 249.451577 
L 80.567194 246.268117 
L 80.811847 241.316068 
L 81.0565 246.444976 
L 81.301153 245.030105 
L 81.545806 251.220165 
L 81.790459 251.220165 
L 82.035112 248.390423 
L 82.279765 250.159012 
L 82.524418 254.580484 
L 82.769071 251.220165 
L 83.013724 236.540879 
L 83.258377 237.602032 
L 83.50303 235.656585 
L 83.747683 235.302867 
L 83.992336 234.595431 
L 84.481643 221.507875 
L 84.726296 225.752488 
L 84.970949 221.861593 
L 85.215602 223.983899 
L 85.460255 224.160758 
L 85.704908 220.269863 
L 85.949561 225.39877 
L 86.194214 222.922746 
L 86.438867 223.453323 
L 86.928173 217.263262 
L 87.172826 220.093004 
L 87.417479 204.883141 
L 87.906785 212.311214 
L 88.151438 206.121153 
L 88.396091 214.256661 
L 88.640744 208.24346 
L 88.885397 211.603778 
L 89.13005 217.970697 
L 89.374703 219.385568 
L 89.619356 214.787238 
L 89.864009 217.440121 
L 90.108662 217.263262 
L 90.353315 216.202109 
L 90.597968 212.134355 
L 90.842621 204.706282 
L 91.331927 210.012048 
L 91.57658 210.542625 
L 91.821233 220.093004 
L 92.065886 216.732685 
L 92.310539 210.012048 
L 92.555192 210.719484 
L 92.799845 210.365766 
L 93.289151 198.339363 
L 93.533804 197.455068 
L 93.778457 194.802185 
L 94.02311 196.217056 
L 94.267763 195.155903 
L 94.512416 200.638528 
L 95.001722 197.631927 
L 95.246375 199.223657 
L 95.491028 198.869939 
L 95.735681 199.754234 
L 95.980334 194.448468 
L 96.224987 197.631927 
L 96.46964 192.856738 
L 96.714293 196.747633 
L 96.958946 188.965843 
L 97.203599 188.258407 
L 97.448252 184.367512 
L 97.692905 184.72123 
L 97.937558 177.823734 
L 98.182211 181.360911 
L 98.426864 179.061746 
L 98.671517 180.122899 
L 98.91617 179.061746 
L 99.160823 179.94604 
L 99.650129 152.886633 
L 99.894782 152.356056 
L 100.139435 156.246951 
L 100.384088 147.580867 
L 100.628741 148.818879 
L 100.873394 153.770927 
L 101.118047 145.45856 
L 101.3627 147.757726 
L 101.607353 145.104843 
L 102.096659 159.60727 
L 102.341312 162.613871 
L 102.585965 156.600669 
L 102.830618 180.653476 
L 103.075271 183.660076 
L 103.319924 177.116298 
L 103.80923 186.843536 
L 104.053883 181.360911 
L 104.298536 186.666677 
L 104.543189 188.965843 
L 104.787842 186.843536 
L 105.032495 175.34771 
L 105.277148 174.817133 
L 105.521801 171.987391 
L 106.25576 187.197254 
L 106.500413 185.782383 
L 106.745066 176.585722 
L 106.98972 179.94604 
L 107.234373 181.184052 
L 107.479026 181.714629 
L 107.723679 194.625326 
L 107.968332 195.155903 
L 108.212985 213.195508 
L 108.457638 203.998847 
L 108.702291 205.590577 
L 108.946944 208.774036 
L 109.191597 197.631927 
L 109.680903 193.033597 
L 109.925556 192.149302 
L 110.170209 191.972443 
L 110.414862 180.476617 
L 110.659515 180.299758 
L 110.904168 179.061746 
L 111.148821 174.817133 
L 111.393474 180.122899 
L 111.638127 188.258407 
L 111.88278 191.441867 
L 112.127433 204.706282 
L 112.372086 199.754234 
L 112.861392 196.393915 
L 113.595351 204.883141 
L 113.840004 205.767435 
L 114.084657 200.107951 
L 114.818616 191.795585 
L 115.063269 185.959242 
L 115.307922 185.251806 
L 115.552575 185.605524 
L 115.797228 187.550972 
L 116.041881 187.550972 
L 116.286534 190.91129 
L 116.531187 180.299758 
L 116.77584 175.701427 
L 117.020493 174.463415 
L 117.509799 178.531169 
L 118.243758 170.041943 
L 118.488411 177.823734 
L 118.733064 179.94604 
L 118.977717 175.34771 
L 119.22237 178.531169 
L 119.467023 175.878286 
L 119.711676 177.293157 
L 119.956329 179.592322 
L 120.200982 178.177451 
L 120.445635 178.531169 
L 120.690288 177.116298 
L 121.179594 185.428665 
L 121.424247 193.033597 
L 121.913553 190.203855 
L 122.158206 195.332762 
L 122.402859 196.747633 
L 122.647512 193.564173 
L 122.892165 199.223657 
L 123.136818 199.577375 
L 123.381471 195.863339 
L 123.626124 197.808786 
L 123.870777 195.863339 
L 124.11543 199.400516 
L 124.360083 193.033597 
L 124.604736 194.802185 
L 124.849389 194.625326 
L 125.094042 194.271609 
L 125.338695 191.618726 
L 125.583348 187.727831 
L 125.828001 194.09475 
L 126.317307 187.020395 
L 126.56196 188.258407 
L 126.806613 181.184052 
L 127.051266 184.72123 
L 127.295919 182.422064 
L 127.540572 185.428665 
L 127.785225 187.020395 
L 128.029878 190.91129 
L 128.274531 190.380714 
L 128.519184 184.013794 
L 128.763837 186.666677 
L 129.253143 181.714629 
L 129.497797 185.959242 
L 129.74245 181.891488 
L 130.231756 195.332762 
L 130.476409 194.448468 
L 130.721062 185.959242 
L 130.965715 186.843536 
L 131.210368 175.701427 
L 131.455021 179.061746 
L 131.944327 159.60727 
L 132.18898 155.185798 
L 132.433633 157.131246 
L 132.678286 152.179197 
L 132.922939 153.594068 
L 133.167592 153.417209 
L 133.412245 153.417209 
L 133.656898 151.118044 
L 133.901551 142.098242 
L 134.390857 152.179197 
L 134.63551 143.513113 
L 134.880163 141.921383 
L 135.124816 142.275101 
L 135.369469 147.05029 
L 135.614122 148.111443 
L 135.858775 140.86023 
L 136.103428 142.275101 
L 136.348081 139.799076 
L 136.592734 131.132992 
L 136.837387 128.833826 
L 137.08204 125.296649 
L 137.326693 128.656968 
L 137.571346 134.847028 
L 137.815999 130.248697 
L 138.060652 129.364403 
L 138.305305 126.71152 
L 138.549958 126.357802 
L 138.794611 130.779274 
L 139.039264 130.956133 
L 139.283917 133.609016 
L 139.52857 131.840427 
L 139.773223 142.628818 
L 140.017876 141.744524 
L 140.262529 142.098242 
L 140.507182 136.969334 
L 140.751835 136.261899 
L 140.996488 140.506512 
L 141.485794 159.784129 
L 141.9751 159.784129 
L 142.219753 161.729576 
L 142.464406 150.587468 
L 142.709059 151.648621 
L 142.953712 159.784129 
L 143.198365 158.01554 
L 143.443018 159.076693 
L 143.687671 154.478363 
L 144.176977 152.002339 
L 144.42163 153.063492 
L 144.666283 156.070093 
L 144.910936 155.008939 
L 145.155589 154.478363 
L 145.644895 147.404008 
L 145.889548 147.757726 
L 146.378854 154.655222 
L 146.623507 146.519714 
L 146.86816 143.336254 
L 147.112813 143.513113 
L 147.357466 144.927984 
L 147.602119 142.451959 
L 147.846772 141.744524 
L 148.091425 146.342855 
L 148.336078 162.613871 
L 148.580731 170.218802 
L 148.825384 156.777528 
L 149.070037 162.260153 
L 149.31469 149.703173 
L 149.559343 157.131246 
L 149.803996 153.594068 
L 150.048649 138.737923 
L 150.293302 152.709774 
L 150.537955 149.349455 
L 151.271914 130.956133 
L 151.516567 135.731322 
L 151.76122 134.139593 
L 152.005874 129.89498 
L 152.250527 130.956133 
L 152.49518 138.030488 
L 152.739833 136.792476 
L 152.984486 138.384205 
L 153.229139 129.010685 
L 153.473792 130.779274 
L 153.718445 129.010685 
L 153.963098 124.766072 
L 154.452404 129.187544 
L 154.697057 116.630564 
L 154.94171 115.569411 
L 155.186363 120.698318 
L 155.675669 121.93633 
L 155.920322 121.405754 
L 156.164975 129.187544 
L 156.409628 144.397407 
L 156.654281 142.451959 
L 156.898934 139.091641 
L 157.143587 130.071838 
L 157.38824 133.962734 
L 157.877546 125.650367 
L 158.122199 137.853629 
L 158.611505 125.650367 
L 158.856158 127.065238 
L 159.100811 130.956133 
L 159.345464 126.71152 
L 159.590117 129.718121 
L 159.83477 123.704919 
L 160.079423 121.759472 
L 160.324076 126.004084 
L 160.568729 142.982536 
L 160.813382 148.818879 
L 161.058035 142.451959 
L 161.547341 166.681625 
L 161.791994 166.504766 
L 162.036647 166.151048 
L 162.525953 159.784129 
L 162.770606 148.995738 
L 163.015259 146.519714 
L 163.259912 147.934584 
L 163.504565 151.648621 
L 163.749218 150.941185 
L 163.993871 128.126391 
L 164.238524 133.078439 
L 164.483177 141.567665 
L 164.72783 143.86683 
L 164.972483 150.941185 
L 165.461789 174.286556 
L 165.706442 181.53777 
L 165.951095 178.884887 
L 166.195748 181.360911 
L 166.685054 178.35431 
L 166.929707 180.122899 
L 167.17436 180.830335 
L 167.419013 179.769181 
L 167.663666 176.939439 
L 167.908319 177.470016 
L 168.152972 171.810532 
L 168.397625 170.218802 
L 168.642278 173.225403 
L 168.886931 171.103097 
L 169.131584 171.103097 
L 169.376237 171.279955 
L 169.62089 170.749379 
L 169.865543 169.334508 
L 170.110196 171.456814 
L 170.354849 170.57252 
L 170.599502 168.450214 
L 170.844155 174.463415 
L 171.088808 175.701427 
L 171.333461 173.048544 
L 171.578114 174.286556 
L 171.822767 173.932839 
L 172.312073 171.103097 
L 172.556726 173.402262 
L 172.801379 169.334508 
L 173.046032 171.456814 
L 173.290685 168.096496 
L 173.535338 173.932839 
L 173.779991 176.585722 
L 174.024644 167.742778 
L 174.269298 171.456814 
L 174.513951 170.041943 
L 174.758604 169.865085 
L 175.24791 157.661822 
L 175.492563 154.83208 
L 175.737216 155.539516 
L 175.981869 161.552718 
L 176.226522 163.321306 
L 176.471175 164.205601 
L 176.715828 162.967589 
L 177.205134 156.954387 
L 177.449787 147.227149 
L 177.69444 154.478363 
L 177.939093 151.294903 
L 178.183746 158.01554 
L 178.428399 155.539516 
L 178.673052 157.308105 
L 178.917705 158.192399 
L 179.407011 162.437012 
L 179.896317 177.293157 
L 180.14097 187.197254 
L 180.385623 184.367512 
L 180.630276 186.31296 
L 180.874929 192.326161 
L 181.119582 194.625326 
L 181.364235 198.869939 
L 181.608888 193.564173 
L 181.853541 195.155903 
L 182.098194 198.162504 
L 182.342847 195.863339 
L 182.5875 186.666677 
L 182.832153 188.258407 
L 183.076806 184.72123 
L 183.321459 182.952641 
L 183.810765 185.074947 
L 184.055418 183.306359 
L 184.300071 183.483218 
L 184.789377 173.225403 
L 185.03403 175.170851 
L 185.278683 174.993992 
L 185.523336 177.293157 
L 185.767989 174.817133 
L 186.012642 175.34771 
L 186.257295 170.395661 
L 186.746601 177.823734 
L 187.235907 170.749379 
L 187.48056 174.286556 
L 187.725213 165.620472 
L 187.969866 163.321306 
L 188.459172 153.947786 
L 189.193131 163.321306 
L 189.437784 158.722976 
L 189.92709 169.157649 
L 190.171743 168.273355 
L 190.416396 171.810532 
L 190.661049 179.238605 
L 190.905702 180.830335 
L 191.150355 178.000593 
L 191.395008 178.884887 
L 191.639661 185.605524 
L 191.884314 175.170851 
L 192.128967 182.068347 
L 192.37362 179.592322 
L 192.618273 191.265008 
L 192.862926 191.441867 
L 193.107579 196.217056 
L 193.352232 204.883141 
L 193.841538 200.815387 
L 194.086191 194.625326 
L 194.330844 194.271609 
L 194.575497 188.965843 
L 194.82015 179.94604 
L 195.064803 181.360911 
L 195.309456 180.299758 
L 195.798762 167.035343 
L 196.043415 165.089895 
L 196.288068 160.845282 
L 196.532721 159.253552 
L 196.777375 163.498165 
L 197.022028 163.498165 
L 197.266681 165.620472 
L 197.511334 160.668423 
L 198.00064 156.777528 
L 198.245293 156.777528 
L 198.489946 158.192399 
L 198.734599 158.546117 
L 198.979252 153.770927 
L 199.223905 156.42381 
L 199.468558 156.42381 
L 199.713211 156.246951 
L 199.957864 160.314705 
L 200.202517 155.893234 
L 200.44717 144.751125 
L 200.691823 143.86683 
L 200.936476 141.921383 
L 201.425782 133.255298 
L 201.670435 134.670169 
L 201.915088 129.010685 
L 202.404394 129.718121 
L 202.649047 131.309851 
L 202.8937 135.023887 
L 203.138353 147.404008 
L 203.383006 148.995738 
L 203.627659 152.356056 
L 203.872312 144.397407 
L 204.116965 129.364403 
L 204.361618 129.89498 
L 204.606271 127.242097 
L 204.850924 138.561064 
L 205.095577 139.091641 
L 205.34023 135.023887 
L 205.584883 139.622218 
L 205.829536 139.799076 
L 206.074189 143.86683 
L 206.318842 140.683371 
L 206.563495 143.689972 
L 206.808148 139.091641 
L 207.052801 131.486709 
L 207.297454 119.990883 
L 207.78676 115.215693 
L 208.031413 121.052036 
L 208.276066 120.344601 
L 208.520719 121.759472 
L 209.010025 109.379351 
L 209.254678 117.514859 
L 209.499331 114.508258 
L 209.743984 120.875177 
L 209.988637 114.685117 
L 210.23329 118.222294 
L 210.477943 129.718121 
L 210.722596 131.840427 
L 210.967249 142.098242 
L 211.456555 128.480109 
L 211.701208 127.595814 
L 211.945861 111.324798 
L 212.190514 108.141338 
L 212.435167 109.909927 
L 212.67982 90.809169 
L 212.924473 89.04058 
L 213.169126 78.07533 
L 213.413779 82.143084 
L 213.658432 83.204238 
L 214.147738 86.210838 
L 214.392391 83.557955 
L 214.637044 86.564556 
L 214.881697 87.448851 
L 215.12635 81.789367 
L 215.371003 83.027379 
L 215.615656 87.802568 
L 215.860309 79.843919 
L 216.104962 83.557955 
L 216.349615 82.143084 
L 216.594268 85.149685 
L 216.838921 93.992629 
L 217.083574 92.931476 
L 217.57288 100.00583 
L 217.817533 93.462052 
L 218.062186 93.462052 
L 218.306839 85.680262 
L 218.551492 90.455451 
L 218.796145 86.741415 
L 219.040798 90.809169 
L 219.285452 89.04058 
L 219.530105 74.891871 
L 219.774758 84.265391 
L 220.264064 90.63231 
L 220.75337 75.776165 
L 220.998023 79.490201 
L 221.242676 87.625709 
L 221.487329 86.741415 
L 222.221288 82.143084 
L 222.710594 67.994375 
L 222.955247 74.184435 
L 223.1999 75.245588 
L 223.444553 72.062129 
L 223.689206 72.415846 
L 223.933859 75.06873 
L 224.178512 75.599306 
L 224.423165 77.721613 
L 224.667818 77.014177 
L 224.912471 69.409246 
L 225.157124 71.000975 
L 225.401777 83.027379 
L 225.64643 84.972826 
L 225.891083 88.333145 
L 226.135736 94.700064 
L 226.380389 92.047181 
L 226.625042 87.802568 
L 226.869695 91.339746 
L 227.114348 103.012431 
L 227.359001 100.890125 
L 227.603654 93.108334 
L 227.848307 94.169488 
L 228.337613 101.774419 
L 228.582266 94.523205 
L 228.826919 93.638911 
L 229.071572 93.81577 
L 229.316225 89.748016 
L 229.805531 87.095133 
L 230.050184 88.510004 
L 230.294837 91.516605 
L 231.028796 80.197637 
L 231.273449 83.557955 
L 231.762755 86.210838 
L 232.252061 91.870322 
L 232.496714 93.81577 
L 232.741367 93.285193 
L 232.98602 87.979427 
L 233.230673 85.326544 
L 233.719979 92.754617 
L 233.964632 92.754617 
L 234.209285 93.81577 
L 234.453938 86.918274 
L 234.698591 90.278592 
L 234.943244 87.979427 
L 235.187897 84.619109 
L 235.677203 93.108334 
L 235.921856 94.876923 
L 236.166509 100.713266 
L 236.411162 101.774419 
L 236.655815 98.944677 
L 236.900468 104.604161 
L 237.145121 106.726467 
L 237.389774 98.237242 
L 237.634427 103.18929 
L 238.613039 74.361294 
L 238.857692 76.129883 
L 239.102345 74.007576 
L 239.346998 74.538153 
L 239.591651 71.531552 
L 239.836304 73.300141 
L 240.080957 77.898471 
L 240.32561 79.66706 
L 240.570263 88.863721 
L 240.814916 87.448851 
L 241.059569 69.586105 
L 241.304222 62.334891 
L 241.548875 62.865467 
L 241.793529 57.029125 
L 242.038182 55.437395 
L 242.282835 56.14483 
L 242.527488 61.273738 
L 242.772141 72.769564 
L 243.016794 72.415846 
L 243.261447 69.409246 
L 243.5061 73.653859 
L 243.750753 69.232387 
L 243.995406 69.409246 
L 244.240059 70.116681 
L 244.484712 66.933221 
L 244.729365 66.579504 
L 244.974018 71.000975 
L 245.463324 101.59756 
L 245.95263 140.506512 
L 246.441936 106.549609 
L 247.175895 140.152794 
L 247.420548 129.364403 
L 247.665201 130.779274 
L 247.909854 139.975935 
L 248.154507 119.460306 
L 248.39916 129.541262 
L 248.643813 117.868576 
L 248.888466 111.678516 
L 249.133119 116.276847 
L 249.377772 108.141338 
L 249.622425 107.96448 
L 249.867078 102.658713 
L 250.356384 121.405754 
L 250.601037 124.235496 
L 250.84569 117.868576 
L 251.090343 116.453705 
L 251.579649 149.703173 
L 251.824302 146.165996 
L 252.313608 131.663568 
L 252.558261 109.733068 
L 252.802914 102.658713 
L 253.047567 114.861976 
L 253.29222 106.019032 
L 253.536873 109.556209 
L 253.781526 106.903326 
L 254.026179 107.257044 
L 254.270832 111.501657 
L 254.515485 110.440504 
L 254.760138 92.047181 
L 255.004791 86.210838 
L 255.249444 84.619109 
L 255.73875 103.012431 
L 255.983403 105.311597 
L 256.228056 92.577758 
L 256.472709 90.63231 
L 256.962015 67.817516 
L 257.451321 96.645512 
L 257.695974 74.715012 
L 257.940627 76.306742 
L 258.18528 90.986028 
L 258.429933 90.809169 
L 258.919239 99.652113 
L 259.163892 97.176088 
L 259.408545 98.060383 
L 259.653198 104.250443 
L 260.142504 108.318197 
L 260.387157 113.447105 
L 260.63181 105.665314 
L 260.876463 123.704919 
L 261.121116 125.650367 
L 261.365769 140.683371 
L 261.855075 113.447105 
L 262.099728 114.861976 
L 262.344381 115.215693 
L 262.589034 100.182689 
L 263.07834 121.93633 
L 263.322993 114.685117 
L 263.812299 119.460306 
L 264.056952 123.704919 
L 264.301606 122.466907 
L 264.546259 127.772673 
L 265.035565 124.235496 
L 265.280218 118.576012 
L 265.769524 129.010685 
L 266.014177 120.698318 
L 266.748136 117.868576 
L 266.992789 121.405754 
L 267.237442 114.15454 
L 267.482095 115.569411 
L 267.971401 129.718121 
L 268.216054 125.650367 
L 268.460707 135.731322 
L 268.70536 139.445359 
L 268.950013 146.519714 
L 269.194666 145.281701 
L 269.439319 146.519714 
L 269.683972 157.661822 
L 269.928625 144.574266 
L 270.173278 149.880032 
L 270.417931 152.002339 
L 270.662584 152.532915 
L 270.907237 153.947786 
L 271.15189 151.648621 
L 271.396543 155.362657 
L 271.641196 152.356056 
L 271.885849 155.008939 
L 272.130502 160.668423 
L 272.375155 155.539516 
L 272.619808 161.199 
L 272.864461 161.729576 
L 273.353767 181.891488 
L 273.59842 181.360911 
L 273.843073 189.673278 
L 274.332379 173.225403 
L 274.577032 179.592322 
L 274.821685 175.524568 
L 275.066338 167.565919 
L 275.310991 170.749379 
L 275.800297 173.225403 
L 276.04495 163.321306 
L 276.289603 164.913036 
L 276.534256 163.851883 
L 276.778909 153.770927 
L 277.023562 160.137847 
L 277.268215 170.041943 
L 277.512868 163.498165 
L 277.757521 164.559318 
L 278.002174 166.151048 
L 278.246827 169.334508 
L 278.49148 167.919637 
L 278.736133 175.524568 
L 278.980786 168.803931 
L 279.225439 171.456814 
L 279.470092 155.362657 
L 279.959398 172.341109 
L 280.204051 181.184052 
L 280.448704 175.878286 
L 280.693357 173.932839 
L 280.93801 162.967589 
L 281.182663 157.484964 
L 281.916622 168.096496 
L 282.161275 163.321306 
L 282.405928 162.967589 
L 282.650581 170.57252 
L 282.895234 163.498165 
L 283.38454 140.152794 
L 283.629193 112.385951 
L 283.873846 115.392552 
L 284.118499 119.990883 
L 284.363152 130.779274 
L 284.607805 129.541262 
L 284.852458 119.283447 
L 285.097111 117.338 
L 285.341764 119.990883 
L 285.586417 118.045435 
L 286.075723 107.080185 
L 286.320376 106.903326 
L 286.56503 106.37275 
L 286.809683 107.433903 
L 287.054336 110.263645 
L 287.298989 111.147939 
L 287.543642 112.739669 
L 287.788295 116.276847 
L 288.032948 114.685117 
L 288.277601 98.767818 
L 288.522254 104.073584 
L 288.766907 101.066984 
L 289.01156 100.890125 
L 289.256213 96.645512 
L 289.500866 96.99923 
L 289.745519 108.318197 
L 289.990172 107.787621 
L 290.234825 107.787621 
L 290.479478 104.427302 
L 290.724131 110.617363 
L 290.968784 108.141338 
L 291.213437 104.427302 
L 291.45809 98.060383 
L 291.702743 99.298395 
L 292.192049 87.271992 
L 292.436702 85.857121 
L 292.681355 82.673661 
L 293.415314 78.07533 
L 293.659967 81.25879 
L 293.90462 77.014177 
L 294.149273 78.605907 
L 294.393926 71.354693 
L 294.638579 70.29354 
L 294.883232 70.647258 
L 295.127885 80.374496 
L 295.372538 75.953024 
L 295.617191 79.490201 
L 295.861844 80.197637 
L 296.106497 89.571157 
L 296.595803 80.197637 
L 296.840456 85.149685 
L 297.085109 83.027379 
L 297.329762 93.992629 
L 297.574415 96.99923 
L 298.063721 75.599306 
L 298.308374 72.062129 
L 298.79768 61.450596 
L 299.042333 60.566302 
L 299.286986 62.158032 
L 299.531639 55.967971 
L 299.776292 55.437395 
L 300.265598 52.607653 
L 300.510251 41.819262 
L 300.999557 46.77131 
L 301.24421 46.77131 
L 301.733516 45.533298 
L 302.222822 44.295286 
L 302.467475 43.410992 
L 302.712128 43.057274 
L 302.956781 46.240734 
L 303.201434 42.349838 
L 303.446087 34.921766 
L 303.935393 70.647258 
L 304.180046 73.123282 
L 304.424699 67.994375 
L 304.669352 77.014177 
L 304.914005 74.361294 
L 305.158658 73.477 
L 305.403311 73.123282 
L 305.647964 76.129883 
L 305.892617 73.830717 
L 306.13727 79.490201 
L 306.381923 73.300141 
L 306.626576 72.415846 
L 307.115882 78.605907 
L 307.360535 74.184435 
L 307.605188 78.959625 
L 307.849841 79.843919 
L 308.094494 78.959625 
L 308.339147 73.830717 
L 308.5838 77.898471 
L 308.828453 79.313342 
L 309.073107 81.435649 
L 309.31776 79.843919 
L 309.562413 79.843919 
L 309.807066 78.605907 
L 310.051719 80.728213 
L 310.296372 91.693463 
L 310.541025 81.966226 
L 310.785678 92.754617 
L 311.030331 94.523205 
L 311.274984 90.986028 
L 311.76429 99.652113 
L 312.008943 96.822371 
L 312.253596 88.510004 
L 312.498249 90.809169 
L 312.742902 88.863721 
L 312.987555 99.828972 
L 313.476861 93.638911 
L 313.721514 105.488455 
L 313.966167 95.761217 
L 314.21082 99.121536 
L 314.455473 98.414101 
L 314.700126 95.230641 
L 314.944779 99.652113 
L 315.189432 101.243842 
L 315.434085 100.359548 
L 315.678738 108.848774 
L 315.923391 109.909927 
L 316.168044 115.392552 
L 316.412697 117.161141 
L 316.65735 119.990883 
L 316.902003 116.630564 
L 317.391309 119.283447 
L 317.635962 125.650367 
L 317.880615 126.534661 
L 318.369921 121.759472 
L 318.614574 120.344601 
L 318.859227 130.071838 
L 319.10388 133.962734 
L 319.837839 166.151048 
L 320.082492 164.205601 
L 320.327145 157.484964 
L 320.571798 164.205601 
L 321.061104 102.481855 
L 321.305757 118.399153 
L 322.529022 138.030488 
L 322.773675 136.438758 
L 323.018328 140.683371 
L 323.262981 139.091641 
L 323.507634 134.316451 
L 323.752287 136.969334 
L 324.241593 126.357802 
L 324.486246 138.384205 
L 324.730899 135.377605 
L 325.220205 136.615617 
L 325.709511 147.580867 
L 326.198817 121.759472 
L 326.44347 114.15454 
L 326.688123 114.331399 
L 326.932776 115.569411 
L 327.177429 113.977681 
L 327.422082 114.15454 
L 327.666735 113.800822 
L 327.911388 121.759472 
L 328.156041 122.820625 
L 328.400694 120.344601 
L 328.645347 119.460306 
L 328.89 122.643766 
L 329.134653 120.167742 
L 329.379306 120.344601 
L 329.868612 106.019032 
L 330.113265 100.359548 
L 330.357918 102.658713 
L 330.602571 102.835572 
L 330.847224 103.366149 
L 331.091877 114.15454 
L 331.33653 118.222294 
L 331.581184 119.637165 
L 331.825837 127.772673 
L 332.07049 128.30325 
L 332.315143 134.139593 
L 332.559796 132.90158 
L 333.049102 143.86683 
L 333.293755 141.390806 
L 333.538408 141.567665 
L 333.783061 139.091641 
L 334.027714 141.037089 
L 334.272367 133.609016 
L 334.51702 134.670169 
L 334.761673 133.609016 
L 335.006326 127.242097 
L 335.250979 124.766072 
L 335.495632 127.418955 
L 335.740285 126.357802 
L 335.984938 122.113189 
L 336.229591 122.643766 
L 336.474244 118.045435 
L 336.718897 115.569411 
L 336.96355 102.128137 
L 337.208203 100.182689 
L 337.697509 100.182689 
L 337.942162 100.713266 
L 338.186815 92.400899 
L 338.431468 88.863721 
L 338.676121 88.510004 
L 338.920774 91.339746 
L 339.165427 86.03398 
L 339.41008 84.44225 
L 339.654733 84.265391 
L 339.899386 87.271992 
L 340.144039 93.638911 
L 340.388692 95.053782 
L 340.633345 92.577758 
L 340.877998 91.516605 
L 341.122651 91.516605 
L 341.367304 89.571157 
L 341.611957 82.319943 
L 342.101263 87.802568 
L 342.345916 86.741415 
L 342.590569 89.04058 
L 342.835222 85.149685 
L 343.079875 88.333145 
L 343.324528 93.462052 
L 343.569181 90.278592 
L 343.813834 90.63231 
L 344.058487 87.625709 
L 344.30314 87.271992 
L 344.547793 89.748016 
L 344.792446 89.217439 
L 345.037099 87.448851 
L 345.281752 90.101734 
L 345.526405 91.516605 
L 345.771058 91.693463 
L 346.015711 92.754617 
L 346.260364 94.700064 
L 346.505017 94.876923 
L 346.74967 95.584359 
L 346.994323 93.462052 
L 347.483629 100.359548 
L 347.728282 98.060383 
L 347.972935 99.828972 
L 348.217588 98.060383 
L 348.462241 97.706665 
L 348.706894 96.114935 
L 348.951547 95.938076 
L 349.1962 94.876923 
L 349.930159 102.835572 
L 350.174812 103.18929 
L 350.419465 102.658713 
L 350.664118 103.18929 
L 350.908771 104.427302 
L 351.153424 110.617363 
L 351.398077 110.440504 
L 351.64273 110.97108 
L 351.887383 109.025633 
L 352.376689 124.766072 
L 352.621342 124.942931 
L 352.865995 120.698318 
L 353.110648 126.71152 
L 353.355301 126.357802 
L 353.599954 127.949532 
L 353.844607 126.004084 
L 354.333914 126.534661 
L 354.578567 117.338 
L 354.82322 116.276847 
L 355.312526 122.643766 
L 355.557179 127.595814 
L 355.801832 128.833826 
L 356.046485 133.255298 
L 356.291138 115.215693 
L 356.535791 116.453705 
L 356.780444 118.576012 
L 357.26975 114.508258 
L 357.514403 111.678516 
L 358.003709 101.243842 
L 358.493015 92.400899 
L 358.737668 90.455451 
L 358.982321 92.754617 
L 359.226974 97.529806 
L 359.471627 97.883524 
L 359.71628 100.00583 
L 359.960933 100.713266 
L 360.205586 96.645512 
L 360.450239 99.828972 
L 360.694892 107.257044 
L 360.939545 104.957879 
L 361.184198 103.896726 
L 361.428851 108.141338 
L 361.918157 106.195891 
L 362.16281 103.543008 
L 362.407463 106.726467 
L 362.652116 104.78102 
L 362.896769 100.182689 
L 363.386075 102.658713 
L 363.875381 109.379351 
L 364.120034 113.093387 
L 364.60934 108.495056 
L 364.853993 108.318197 
L 365.098646 109.733068 
L 365.343299 112.56281 
L 365.587952 103.543008 
L 365.832605 99.828972 
L 366.077258 105.665314 
L 366.321911 106.195891 
L 366.566564 103.18929 
L 366.811217 103.719867 
L 367.05587 106.726467 
L 367.545176 104.427302 
L 367.789829 104.78102 
L 368.279135 116.984282 
L 368.523788 115.392552 
L 368.768441 108.495056 
L 369.013094 106.903326 
L 369.257747 107.080185 
L 369.5024 104.250443 
L 369.747053 102.835572 
L 369.991706 102.304996 
L 370.236359 103.18929 
L 370.481012 94.876923 
L 370.725665 94.169488 
L 370.970318 96.99923 
L 371.214971 93.638911 
L 371.459624 93.638911 
L 371.704277 91.693463 
L 371.94893 87.802568 
L 372.193583 69.232387 
L 372.438236 74.715012 
L 372.682889 62.865467 
L 372.927542 69.409246 
L 373.172195 66.048927 
L 373.416848 67.817516 
L 373.661501 58.267137 
L 374.150807 58.797713 
L 374.39546 66.756363 
L 374.640113 70.470399 
L 375.374072 63.396044 
L 375.618725 56.852266 
L 375.863378 55.614254 
L 376.108031 58.797713 
L 376.597338 57.205984 
L 376.841991 55.614254 
L 377.086644 51.015923 
L 377.331297 50.131629 
L 377.57595 51.900217 
L 377.820603 52.077076 
L 378.065256 58.443996 
L 378.309909 54.5531 
L 378.554562 61.096879 
L 378.799215 53.845665 
L 379.043868 50.662205 
L 379.288521 51.015923 
L 379.777827 55.260536 
L 380.02248 62.688609 
L 380.267133 65.164633 
L 380.511786 73.123282 
L 380.756439 74.715012 
L 381.245745 67.640657 
L 381.490398 66.048927 
L 381.490398 66.048927 
" style="fill:none;stroke:#ff7f0e;stroke-linecap:square;stroke-width:1.5;"/>
   </g>
   <g id="patch_3">
    <path d="M 40.603125 288.430125 
L 40.603125 22.318125 
" style="fill:none;stroke:#000000;stroke-linecap:square;stroke-linejoin:miter;stroke-width:0.8;"/>
   </g>
   <g id="patch_4">
    <path d="M 397.723125 288.430125 
L 397.723125 22.318125 
" style="fill:none;stroke:#000000;stroke-linecap:square;stroke-linejoin:miter;stroke-width:0.8;"/>
   </g>
   <g id="patch_5">
    <path d="M 40.603125 288.430125 
L 397.723125 288.430125 
" style="fill:none;stroke:#000000;stroke-linecap:square;stroke-linejoin:miter;stroke-width:0.8;"/>
   </g>
   <g id="patch_6">
    <path d="M 40.603125 22.318125 
L 397.723125 22.318125 
" style="fill:none;stroke:#000000;stroke-linecap:square;stroke-linejoin:miter;stroke-width:0.8;"/>
   </g>
   <g id="text_18">
    <!-- Training: PFE -->
    <defs>
     <path d="M -0.296875 72.90625 
L 61.375 72.90625 
L 61.375 64.59375 
L 35.5 64.59375 
L 35.5 0 
L 25.59375 0 
L 25.59375 64.59375 
L -0.296875 64.59375 
z
" id="DejaVuSans-84"/>
     <path d="M 54.890625 33.015625 
L 54.890625 0 
L 45.90625 0 
L 45.90625 32.71875 
Q 45.90625 40.484375 42.875 44.328125 
Q 39.84375 48.1875 33.796875 48.1875 
Q 26.515625 48.1875 22.3125 43.546875 
Q 18.109375 38.921875 18.109375 30.90625 
L 18.109375 0 
L 9.078125 0 
L 9.078125 54.6875 
L 18.109375 54.6875 
L 18.109375 46.1875 
Q 21.34375 51.125 25.703125 53.5625 
Q 30.078125 56 35.796875 56 
Q 45.21875 56 50.046875 50.171875 
Q 54.890625 44.34375 54.890625 33.015625 
z
" id="DejaVuSans-110"/>
     <path d="M 45.40625 27.984375 
Q 45.40625 37.75 41.375 43.109375 
Q 37.359375 48.484375 30.078125 48.484375 
Q 22.859375 48.484375 18.828125 43.109375 
Q 14.796875 37.75 14.796875 27.984375 
Q 14.796875 18.265625 18.828125 12.890625 
Q 22.859375 7.515625 30.078125 7.515625 
Q 37.359375 7.515625 41.375 12.890625 
Q 45.40625 18.265625 45.40625 27.984375 
z
M 54.390625 6.78125 
Q 54.390625 -7.171875 48.1875 -13.984375 
Q 42 -20.796875 29.203125 -20.796875 
Q 24.46875 -20.796875 20.265625 -20.09375 
Q 16.0625 -19.390625 12.109375 -17.921875 
L 12.109375 -9.1875 
Q 16.0625 -11.328125 19.921875 -12.34375 
Q 23.78125 -13.375 27.78125 -13.375 
Q 36.625 -13.375 41.015625 -8.765625 
Q 45.40625 -4.15625 45.40625 5.171875 
L 45.40625 9.625 
Q 42.625 4.78125 38.28125 2.390625 
Q 33.9375 0 27.875 0 
Q 17.828125 0 11.671875 7.65625 
Q 5.515625 15.328125 5.515625 27.984375 
Q 5.515625 40.671875 11.671875 48.328125 
Q 17.828125 56 27.875 56 
Q 33.9375 56 38.28125 53.609375 
Q 42.625 51.21875 45.40625 46.390625 
L 45.40625 54.6875 
L 54.390625 54.6875 
z
" id="DejaVuSans-103"/>
     <path d="M 11.71875 12.40625 
L 22.015625 12.40625 
L 22.015625 0 
L 11.71875 0 
z
M 11.71875 51.703125 
L 22.015625 51.703125 
L 22.015625 39.3125 
L 11.71875 39.3125 
z
" id="DejaVuSans-58"/>
     <path d="M 9.8125 72.90625 
L 51.703125 72.90625 
L 51.703125 64.59375 
L 19.671875 64.59375 
L 19.671875 43.109375 
L 48.578125 43.109375 
L 48.578125 34.8125 
L 19.671875 34.8125 
L 19.671875 0 
L 9.8125 0 
z
" id="DejaVuSans-70"/>
     <path d="M 9.8125 72.90625 
L 55.90625 72.90625 
L 55.90625 64.59375 
L 19.671875 64.59375 
L 19.671875 43.015625 
L 54.390625 43.015625 
L 54.390625 34.71875 
L 19.671875 34.71875 
L 19.671875 8.296875 
L 56.78125 8.296875 
L 56.78125 0 
L 9.8125 0 
z
" id="DejaVuSans-69"/>
    </defs>
    <g transform="translate(180.704063 16.318125)scale(0.12 -0.12)">
     <use xlink:href="#DejaVuSans-84"/>
     <use x="46.333984" xlink:href="#DejaVuSans-114"/>
     <use x="87.447266" xlink:href="#DejaVuSans-97"/>
     <use x="148.726562" xlink:href="#DejaVuSans-105"/>
     <use x="176.509766" xlink:href="#DejaVuSans-110"/>
     <use x="239.888672" xlink:href="#DejaVuSans-105"/>
     <use x="267.671875" xlink:href="#DejaVuSans-110"/>
     <use x="331.050781" xlink:href="#DejaVuSans-103"/>
     <use x="394.527344" xlink:href="#DejaVuSans-58"/>
     <use x="428.21875" xlink:href="#DejaVuSans-32"/>
     <use x="460.005859" xlink:href="#DejaVuSans-80"/>
     <use x="520.308594" xlink:href="#DejaVuSans-70"/>
     <use x="577.828125" xlink:href="#DejaVuSans-69"/>
    </g>
   </g>
   <g id="legend_1">
    <g id="patch_7">
     <path d="M 47.603125 59.674375 
L 131.33125 59.674375 
Q 133.33125 59.674375 133.33125 57.674375 
L 133.33125 29.318125 
Q 133.33125 27.318125 131.33125 27.318125 
L 47.603125 27.318125 
Q 45.603125 27.318125 45.603125 29.318125 
L 45.603125 57.674375 
Q 45.603125 59.674375 47.603125 59.674375 
z
" style="fill:#ffffff;opacity:0.8;stroke:#cccccc;stroke-linejoin:miter;"/>
    </g>
    <g id="line2d_33">
     <path d="M 49.603125 35.416562 
L 69.603125 35.416562 
" style="fill:none;stroke:#1f77b4;stroke-linecap:square;stroke-width:1.5;"/>
    </g>
    <g id="line2d_34"/>
    <g id="text_19">
     <!-- Predicted -->
     <defs>
      <path d="M 45.40625 46.390625 
L 45.40625 75.984375 
L 54.390625 75.984375 
L 54.390625 0 
L 45.40625 0 
L 45.40625 8.203125 
Q 42.578125 3.328125 38.25 0.953125 
Q 33.9375 -1.421875 27.875 -1.421875 
Q 17.96875 -1.421875 11.734375 6.484375 
Q 5.515625 14.40625 5.515625 27.296875 
Q 5.515625 40.1875 11.734375 48.09375 
Q 17.96875 56 27.875 56 
Q 33.9375 56 38.25 53.625 
Q 42.578125 51.265625 45.40625 46.390625 
z
M 14.796875 27.296875 
Q 14.796875 17.390625 18.875 11.75 
Q 22.953125 6.109375 30.078125 6.109375 
Q 37.203125 6.109375 41.296875 11.75 
Q 45.40625 17.390625 45.40625 27.296875 
Q 45.40625 37.203125 41.296875 42.84375 
Q 37.203125 48.484375 30.078125 48.484375 
Q 22.953125 48.484375 18.875 42.84375 
Q 14.796875 37.203125 14.796875 27.296875 
z
" id="DejaVuSans-100"/>
      <path d="M 18.3125 70.21875 
L 18.3125 54.6875 
L 36.8125 54.6875 
L 36.8125 47.703125 
L 18.3125 47.703125 
L 18.3125 18.015625 
Q 18.3125 11.328125 20.140625 9.421875 
Q 21.96875 7.515625 27.59375 7.515625 
L 36.8125 7.515625 
L 36.8125 0 
L 27.59375 0 
Q 17.1875 0 13.234375 3.875 
Q 9.28125 7.765625 9.28125 18.015625 
L 9.28125 47.703125 
L 2.6875 47.703125 
L 2.6875 54.6875 
L 9.28125 54.6875 
L 9.28125 70.21875 
z
" id="DejaVuSans-116"/>
     </defs>
     <g transform="translate(77.603125 38.916562)scale(0.1 -0.1)">
      <use xlink:href="#DejaVuSans-80"/>
      <use x="58.552734" xlink:href="#DejaVuSans-114"/>
      <use x="97.416016" xlink:href="#DejaVuSans-101"/>
      <use x="158.939453" xlink:href="#DejaVuSans-100"/>
      <use x="222.416016" xlink:href="#DejaVuSans-105"/>
      <use x="250.199219" xlink:href="#DejaVuSans-99"/>
      <use x="305.179688" xlink:href="#DejaVuSans-116"/>
      <use x="344.388672" xlink:href="#DejaVuSans-101"/>
      <use x="405.912109" xlink:href="#DejaVuSans-100"/>
     </g>
    </g>
    <g id="line2d_35">
     <path d="M 49.603125 50.094687 
L 69.603125 50.094687 
" style="fill:none;stroke:#ff7f0e;stroke-linecap:square;stroke-width:1.5;"/>
    </g>
    <g id="line2d_36"/>
    <g id="text_20">
     <!-- True value -->
     <defs>
      <path d="M 8.5 21.578125 
L 8.5 54.6875 
L 17.484375 54.6875 
L 17.484375 21.921875 
Q 17.484375 14.15625 20.5 10.265625 
Q 23.53125 6.390625 29.59375 6.390625 
Q 36.859375 6.390625 41.078125 11.03125 
Q 45.3125 15.671875 45.3125 23.6875 
L 45.3125 54.6875 
L 54.296875 54.6875 
L 54.296875 0 
L 45.3125 0 
L 45.3125 8.40625 
Q 42.046875 3.421875 37.71875 1 
Q 33.40625 -1.421875 27.6875 -1.421875 
Q 18.265625 -1.421875 13.375 4.4375 
Q 8.5 10.296875 8.5 21.578125 
z
M 31.109375 56 
z
" id="DejaVuSans-117"/>
      <path d="M 2.984375 54.6875 
L 12.5 54.6875 
L 29.59375 8.796875 
L 46.6875 54.6875 
L 56.203125 54.6875 
L 35.6875 0 
L 23.484375 0 
z
" id="DejaVuSans-118"/>
      <path d="M 9.421875 75.984375 
L 18.40625 75.984375 
L 18.40625 0 
L 9.421875 0 
z
" id="DejaVuSans-108"/>
     </defs>
     <g transform="translate(77.603125 53.594687)scale(0.1 -0.1)">
      <use xlink:href="#DejaVuSans-84"/>
      <use x="46.333984" xlink:href="#DejaVuSans-114"/>
      <use x="87.447266" xlink:href="#DejaVuSans-117"/>
      <use x="150.826172" xlink:href="#DejaVuSans-101"/>
      <use x="212.349609" xlink:href="#DejaVuSans-32"/>
      <use x="244.136719" xlink:href="#DejaVuSans-118"/>
      <use x="303.316406" xlink:href="#DejaVuSans-97"/>
      <use x="364.595703" xlink:href="#DejaVuSans-108"/>
      <use x="392.378906" xlink:href="#DejaVuSans-117"/>
      <use x="455.757812" xlink:href="#DejaVuSans-101"/>
     </g>
    </g>
   </g>
  </g>
 </g>
 <defs>
  <clipPath id="p62a9e5d296">
   <rect height="266.112" width="357.12" x="40.603125" y="22.318125"/>
  </clipPath>
 </defs>
</svg>
