<?xml version="1.0" encoding="utf-8" standalone="no"?>
<!DOCTYPE svg PUBLIC "-//W3C//DTD SVG 1.1//EN"
  "http://www.w3.org/Graphics/SVG/1.1/DTD/svg11.dtd">
<!-- Created with matplotlib (https://matplotlib.org/) -->
<svg height="325.986375pt" version="1.1" viewBox="0 0 411.285625 325.986375" width="411.285625pt" xmlns="http://www.w3.org/2000/svg" xmlns:xlink="http://www.w3.org/1999/xlink">
 <defs>
  <style type="text/css">
*{stroke-linecap:butt;stroke-linejoin:round;}
  </style>
 </defs>
 <g id="figure_1">
  <g id="patch_1">
   <path d="M 0 325.986375 
L 411.285625 325.986375 
L 411.285625 0 
L 0 0 
z
" style="fill:#ffffff;"/>
  </g>
  <g id="axes_1">
   <g id="patch_2">
    <path d="M 46.965625 288.430125 
L 404.085625 288.430125 
L 404.085625 22.318125 
L 46.965625 22.318125 
z
" style="fill:#ffffff;"/>
   </g>
   <g id="matplotlib.axis_1">
    <g id="xtick_1">
     <g id="line2d_1">
      <path clip-path="url(#peb3a5f9e01)" d="M 63.198352 288.430125 
L 63.198352 22.318125 
" style="fill:none;stroke:#b0b0b0;stroke-dasharray:2.96,1.28;stroke-dashoffset:0;stroke-width:0.8;"/>
     </g>
     <g id="line2d_2">
      <defs>
       <path d="M 0 0 
L 0 3.5 
" id="m912c667288" style="stroke:#000000;stroke-width:0.8;"/>
      </defs>
      <g>
       <use style="stroke:#000000;stroke-width:0.8;" x="63.198352" xlink:href="#m912c667288" y="288.430125"/>
      </g>
     </g>
     <g id="text_1">
      <!-- 0 -->
      <defs>
       <path d="M 31.78125 66.40625 
Q 24.171875 66.40625 20.328125 58.90625 
Q 16.5 51.421875 16.5 36.375 
Q 16.5 21.390625 20.328125 13.890625 
Q 24.171875 6.390625 31.78125 6.390625 
Q 39.453125 6.390625 43.28125 13.890625 
Q 47.125 21.390625 47.125 36.375 
Q 47.125 51.421875 43.28125 58.90625 
Q 39.453125 66.40625 31.78125 66.40625 
z
M 31.78125 74.21875 
Q 44.046875 74.21875 50.515625 64.515625 
Q 56.984375 54.828125 56.984375 36.375 
Q 56.984375 17.96875 50.515625 8.265625 
Q 44.046875 -1.421875 31.78125 -1.421875 
Q 19.53125 -1.421875 13.0625 8.265625 
Q 6.59375 17.96875 6.59375 36.375 
Q 6.59375 54.828125 13.0625 64.515625 
Q 19.53125 74.21875 31.78125 74.21875 
z
" id="DejaVuSans-48"/>
      </defs>
      <g transform="translate(60.017102 303.028562)scale(0.1 -0.1)">
       <use xlink:href="#DejaVuSans-48"/>
      </g>
     </g>
    </g>
    <g id="xtick_2">
     <g id="line2d_3">
      <path clip-path="url(#peb3a5f9e01)" d="M 112.128954 288.430125 
L 112.128954 22.318125 
" style="fill:none;stroke:#b0b0b0;stroke-dasharray:2.96,1.28;stroke-dashoffset:0;stroke-width:0.8;"/>
     </g>
     <g id="line2d_4">
      <g>
       <use style="stroke:#000000;stroke-width:0.8;" x="112.128954" xlink:href="#m912c667288" y="288.430125"/>
      </g>
     </g>
     <g id="text_2">
      <!-- 200 -->
      <defs>
       <path d="M 19.1875 8.296875 
L 53.609375 8.296875 
L 53.609375 0 
L 7.328125 0 
L 7.328125 8.296875 
Q 12.9375 14.109375 22.625 23.890625 
Q 32.328125 33.6875 34.8125 36.53125 
Q 39.546875 41.84375 41.421875 45.53125 
Q 43.3125 49.21875 43.3125 52.78125 
Q 43.3125 58.59375 39.234375 62.25 
Q 35.15625 65.921875 28.609375 65.921875 
Q 23.96875 65.921875 18.8125 64.3125 
Q 13.671875 62.703125 7.8125 59.421875 
L 7.8125 69.390625 
Q 13.765625 71.78125 18.9375 73 
Q 24.125 74.21875 28.421875 74.21875 
Q 39.75 74.21875 46.484375 68.546875 
Q 53.21875 62.890625 53.21875 53.421875 
Q 53.21875 48.921875 51.53125 44.890625 
Q 49.859375 40.875 45.40625 35.40625 
Q 44.1875 33.984375 37.640625 27.21875 
Q 31.109375 20.453125 19.1875 8.296875 
z
" id="DejaVuSans-50"/>
      </defs>
      <g transform="translate(102.585204 303.028562)scale(0.1 -0.1)">
       <use xlink:href="#DejaVuSans-50"/>
       <use x="63.623047" xlink:href="#DejaVuSans-48"/>
       <use x="127.246094" xlink:href="#DejaVuSans-48"/>
      </g>
     </g>
    </g>
    <g id="xtick_3">
     <g id="line2d_5">
      <path clip-path="url(#peb3a5f9e01)" d="M 161.059557 288.430125 
L 161.059557 22.318125 
" style="fill:none;stroke:#b0b0b0;stroke-dasharray:2.96,1.28;stroke-dashoffset:0;stroke-width:0.8;"/>
     </g>
     <g id="line2d_6">
      <g>
       <use style="stroke:#000000;stroke-width:0.8;" x="161.059557" xlink:href="#m912c667288" y="288.430125"/>
      </g>
     </g>
     <g id="text_3">
      <!-- 400 -->
      <defs>
       <path d="M 37.796875 64.3125 
L 12.890625 25.390625 
L 37.796875 25.390625 
z
M 35.203125 72.90625 
L 47.609375 72.90625 
L 47.609375 25.390625 
L 58.015625 25.390625 
L 58.015625 17.1875 
L 47.609375 17.1875 
L 47.609375 0 
L 37.796875 0 
L 37.796875 17.1875 
L 4.890625 17.1875 
L 4.890625 26.703125 
z
" id="DejaVuSans-52"/>
      </defs>
      <g transform="translate(151.515807 303.028562)scale(0.1 -0.1)">
       <use xlink:href="#DejaVuSans-52"/>
       <use x="63.623047" xlink:href="#DejaVuSans-48"/>
       <use x="127.246094" xlink:href="#DejaVuSans-48"/>
      </g>
     </g>
    </g>
    <g id="xtick_4">
     <g id="line2d_7">
      <path clip-path="url(#peb3a5f9e01)" d="M 209.990159 288.430125 
L 209.990159 22.318125 
" style="fill:none;stroke:#b0b0b0;stroke-dasharray:2.96,1.28;stroke-dashoffset:0;stroke-width:0.8;"/>
     </g>
     <g id="line2d_8">
      <g>
       <use style="stroke:#000000;stroke-width:0.8;" x="209.990159" xlink:href="#m912c667288" y="288.430125"/>
      </g>
     </g>
     <g id="text_4">
      <!-- 600 -->
      <defs>
       <path d="M 33.015625 40.375 
Q 26.375 40.375 22.484375 35.828125 
Q 18.609375 31.296875 18.609375 23.390625 
Q 18.609375 15.53125 22.484375 10.953125 
Q 26.375 6.390625 33.015625 6.390625 
Q 39.65625 6.390625 43.53125 10.953125 
Q 47.40625 15.53125 47.40625 23.390625 
Q 47.40625 31.296875 43.53125 35.828125 
Q 39.65625 40.375 33.015625 40.375 
z
M 52.59375 71.296875 
L 52.59375 62.3125 
Q 48.875 64.0625 45.09375 64.984375 
Q 41.3125 65.921875 37.59375 65.921875 
Q 27.828125 65.921875 22.671875 59.328125 
Q 17.53125 52.734375 16.796875 39.40625 
Q 19.671875 43.65625 24.015625 45.921875 
Q 28.375 48.1875 33.59375 48.1875 
Q 44.578125 48.1875 50.953125 41.515625 
Q 57.328125 34.859375 57.328125 23.390625 
Q 57.328125 12.15625 50.6875 5.359375 
Q 44.046875 -1.421875 33.015625 -1.421875 
Q 20.359375 -1.421875 13.671875 8.265625 
Q 6.984375 17.96875 6.984375 36.375 
Q 6.984375 53.65625 15.1875 63.9375 
Q 23.390625 74.21875 37.203125 74.21875 
Q 40.921875 74.21875 44.703125 73.484375 
Q 48.484375 72.75 52.59375 71.296875 
z
" id="DejaVuSans-54"/>
      </defs>
      <g transform="translate(200.446409 303.028562)scale(0.1 -0.1)">
       <use xlink:href="#DejaVuSans-54"/>
       <use x="63.623047" xlink:href="#DejaVuSans-48"/>
       <use x="127.246094" xlink:href="#DejaVuSans-48"/>
      </g>
     </g>
    </g>
    <g id="xtick_5">
     <g id="line2d_9">
      <path clip-path="url(#peb3a5f9e01)" d="M 258.920761 288.430125 
L 258.920761 22.318125 
" style="fill:none;stroke:#b0b0b0;stroke-dasharray:2.96,1.28;stroke-dashoffset:0;stroke-width:0.8;"/>
     </g>
     <g id="line2d_10">
      <g>
       <use style="stroke:#000000;stroke-width:0.8;" x="258.920761" xlink:href="#m912c667288" y="288.430125"/>
      </g>
     </g>
     <g id="text_5">
      <!-- 800 -->
      <defs>
       <path d="M 31.78125 34.625 
Q 24.75 34.625 20.71875 30.859375 
Q 16.703125 27.09375 16.703125 20.515625 
Q 16.703125 13.921875 20.71875 10.15625 
Q 24.75 6.390625 31.78125 6.390625 
Q 38.8125 6.390625 42.859375 10.171875 
Q 46.921875 13.96875 46.921875 20.515625 
Q 46.921875 27.09375 42.890625 30.859375 
Q 38.875 34.625 31.78125 34.625 
z
M 21.921875 38.8125 
Q 15.578125 40.375 12.03125 44.71875 
Q 8.5 49.078125 8.5 55.328125 
Q 8.5 64.0625 14.71875 69.140625 
Q 20.953125 74.21875 31.78125 74.21875 
Q 42.671875 74.21875 48.875 69.140625 
Q 55.078125 64.0625 55.078125 55.328125 
Q 55.078125 49.078125 51.53125 44.71875 
Q 48 40.375 41.703125 38.8125 
Q 48.828125 37.15625 52.796875 32.3125 
Q 56.78125 27.484375 56.78125 20.515625 
Q 56.78125 9.90625 50.3125 4.234375 
Q 43.84375 -1.421875 31.78125 -1.421875 
Q 19.734375 -1.421875 13.25 4.234375 
Q 6.78125 9.90625 6.78125 20.515625 
Q 6.78125 27.484375 10.78125 32.3125 
Q 14.796875 37.15625 21.921875 38.8125 
z
M 18.3125 54.390625 
Q 18.3125 48.734375 21.84375 45.5625 
Q 25.390625 42.390625 31.78125 42.390625 
Q 38.140625 42.390625 41.71875 45.5625 
Q 45.3125 48.734375 45.3125 54.390625 
Q 45.3125 60.0625 41.71875 63.234375 
Q 38.140625 66.40625 31.78125 66.40625 
Q 25.390625 66.40625 21.84375 63.234375 
Q 18.3125 60.0625 18.3125 54.390625 
z
" id="DejaVuSans-56"/>
      </defs>
      <g transform="translate(249.377011 303.028562)scale(0.1 -0.1)">
       <use xlink:href="#DejaVuSans-56"/>
       <use x="63.623047" xlink:href="#DejaVuSans-48"/>
       <use x="127.246094" xlink:href="#DejaVuSans-48"/>
      </g>
     </g>
    </g>
    <g id="xtick_6">
     <g id="line2d_11">
      <path clip-path="url(#peb3a5f9e01)" d="M 307.851363 288.430125 
L 307.851363 22.318125 
" style="fill:none;stroke:#b0b0b0;stroke-dasharray:2.96,1.28;stroke-dashoffset:0;stroke-width:0.8;"/>
     </g>
     <g id="line2d_12">
      <g>
       <use style="stroke:#000000;stroke-width:0.8;" x="307.851363" xlink:href="#m912c667288" y="288.430125"/>
      </g>
     </g>
     <g id="text_6">
      <!-- 1000 -->
      <defs>
       <path d="M 12.40625 8.296875 
L 28.515625 8.296875 
L 28.515625 63.921875 
L 10.984375 60.40625 
L 10.984375 69.390625 
L 28.421875 72.90625 
L 38.28125 72.90625 
L 38.28125 8.296875 
L 54.390625 8.296875 
L 54.390625 0 
L 12.40625 0 
z
" id="DejaVuSans-49"/>
      </defs>
      <g transform="translate(295.126363 303.028562)scale(0.1 -0.1)">
       <use xlink:href="#DejaVuSans-49"/>
       <use x="63.623047" xlink:href="#DejaVuSans-48"/>
       <use x="127.246094" xlink:href="#DejaVuSans-48"/>
       <use x="190.869141" xlink:href="#DejaVuSans-48"/>
      </g>
     </g>
    </g>
    <g id="xtick_7">
     <g id="line2d_13">
      <path clip-path="url(#peb3a5f9e01)" d="M 356.781965 288.430125 
L 356.781965 22.318125 
" style="fill:none;stroke:#b0b0b0;stroke-dasharray:2.96,1.28;stroke-dashoffset:0;stroke-width:0.8;"/>
     </g>
     <g id="line2d_14">
      <g>
       <use style="stroke:#000000;stroke-width:0.8;" x="356.781965" xlink:href="#m912c667288" y="288.430125"/>
      </g>
     </g>
     <g id="text_7">
      <!-- 1200 -->
      <g transform="translate(344.056965 303.028562)scale(0.1 -0.1)">
       <use xlink:href="#DejaVuSans-49"/>
       <use x="63.623047" xlink:href="#DejaVuSans-50"/>
       <use x="127.246094" xlink:href="#DejaVuSans-48"/>
       <use x="190.869141" xlink:href="#DejaVuSans-48"/>
      </g>
     </g>
    </g>
    <g id="text_8">
     <!-- Day -->
     <defs>
      <path d="M 19.671875 64.796875 
L 19.671875 8.109375 
L 31.59375 8.109375 
Q 46.6875 8.109375 53.6875 14.9375 
Q 60.6875 21.78125 60.6875 36.53125 
Q 60.6875 51.171875 53.6875 57.984375 
Q 46.6875 64.796875 31.59375 64.796875 
z
M 9.8125 72.90625 
L 30.078125 72.90625 
Q 51.265625 72.90625 61.171875 64.09375 
Q 71.09375 55.28125 71.09375 36.53125 
Q 71.09375 17.671875 61.125 8.828125 
Q 51.171875 0 30.078125 0 
L 9.8125 0 
z
" id="DejaVuSans-68"/>
      <path d="M 34.28125 27.484375 
Q 23.390625 27.484375 19.1875 25 
Q 14.984375 22.515625 14.984375 16.5 
Q 14.984375 11.71875 18.140625 8.90625 
Q 21.296875 6.109375 26.703125 6.109375 
Q 34.1875 6.109375 38.703125 11.40625 
Q 43.21875 16.703125 43.21875 25.484375 
L 43.21875 27.484375 
z
M 52.203125 31.203125 
L 52.203125 0 
L 43.21875 0 
L 43.21875 8.296875 
Q 40.140625 3.328125 35.546875 0.953125 
Q 30.953125 -1.421875 24.3125 -1.421875 
Q 15.921875 -1.421875 10.953125 3.296875 
Q 6 8.015625 6 15.921875 
Q 6 25.140625 12.171875 29.828125 
Q 18.359375 34.515625 30.609375 34.515625 
L 43.21875 34.515625 
L 43.21875 35.40625 
Q 43.21875 41.609375 39.140625 45 
Q 35.0625 48.390625 27.6875 48.390625 
Q 23 48.390625 18.546875 47.265625 
Q 14.109375 46.140625 10.015625 43.890625 
L 10.015625 52.203125 
Q 14.9375 54.109375 19.578125 55.046875 
Q 24.21875 56 28.609375 56 
Q 40.484375 56 46.34375 49.84375 
Q 52.203125 43.703125 52.203125 31.203125 
z
" id="DejaVuSans-97"/>
      <path d="M 32.171875 -5.078125 
Q 28.375 -14.84375 24.75 -17.8125 
Q 21.140625 -20.796875 15.09375 -20.796875 
L 7.90625 -20.796875 
L 7.90625 -13.28125 
L 13.1875 -13.28125 
Q 16.890625 -13.28125 18.9375 -11.515625 
Q 21 -9.765625 23.484375 -3.21875 
L 25.09375 0.875 
L 2.984375 54.6875 
L 12.5 54.6875 
L 29.59375 11.921875 
L 46.6875 54.6875 
L 56.203125 54.6875 
z
" id="DejaVuSans-121"/>
     </defs>
     <g transform="translate(215.652188 316.706687)scale(0.1 -0.1)">
      <use xlink:href="#DejaVuSans-68"/>
      <use x="77.001953" xlink:href="#DejaVuSans-97"/>
      <use x="138.28125" xlink:href="#DejaVuSans-121"/>
     </g>
    </g>
   </g>
   <g id="matplotlib.axis_2">
    <g id="ytick_1">
     <g id="line2d_15">
      <path clip-path="url(#peb3a5f9e01)" d="M 46.965625 265.637399 
L 404.085625 265.637399 
" style="fill:none;stroke:#b0b0b0;stroke-dasharray:2.96,1.28;stroke-dashoffset:0;stroke-width:0.8;"/>
     </g>
     <g id="line2d_16">
      <defs>
       <path d="M 0 0 
L -3.5 0 
" id="ma1c6408cb3" style="stroke:#000000;stroke-width:0.8;"/>
      </defs>
      <g>
       <use style="stroke:#000000;stroke-width:0.8;" x="46.965625" xlink:href="#ma1c6408cb3" y="265.637399"/>
      </g>
     </g>
     <g id="text_9">
      <!-- 25 -->
      <defs>
       <path d="M 10.796875 72.90625 
L 49.515625 72.90625 
L 49.515625 64.59375 
L 19.828125 64.59375 
L 19.828125 46.734375 
Q 21.96875 47.46875 24.109375 47.828125 
Q 26.265625 48.1875 28.421875 48.1875 
Q 40.625 48.1875 47.75 41.5 
Q 54.890625 34.8125 54.890625 23.390625 
Q 54.890625 11.625 47.5625 5.09375 
Q 40.234375 -1.421875 26.90625 -1.421875 
Q 22.3125 -1.421875 17.546875 -0.640625 
Q 12.796875 0.140625 7.71875 1.703125 
L 7.71875 11.625 
Q 12.109375 9.234375 16.796875 8.0625 
Q 21.484375 6.890625 26.703125 6.890625 
Q 35.15625 6.890625 40.078125 11.328125 
Q 45.015625 15.765625 45.015625 23.390625 
Q 45.015625 31 40.078125 35.4375 
Q 35.15625 39.890625 26.703125 39.890625 
Q 22.75 39.890625 18.8125 39.015625 
Q 14.890625 38.140625 10.796875 36.28125 
z
" id="DejaVuSans-53"/>
      </defs>
      <g transform="translate(27.240625 269.436617)scale(0.1 -0.1)">
       <use xlink:href="#DejaVuSans-50"/>
       <use x="63.623047" xlink:href="#DejaVuSans-53"/>
      </g>
     </g>
    </g>
    <g id="ytick_2">
     <g id="line2d_17">
      <path clip-path="url(#peb3a5f9e01)" d="M 46.965625 229.089485 
L 404.085625 229.089485 
" style="fill:none;stroke:#b0b0b0;stroke-dasharray:2.96,1.28;stroke-dashoffset:0;stroke-width:0.8;"/>
     </g>
     <g id="line2d_18">
      <g>
       <use style="stroke:#000000;stroke-width:0.8;" x="46.965625" xlink:href="#ma1c6408cb3" y="229.089485"/>
      </g>
     </g>
     <g id="text_10">
      <!-- 50 -->
      <g transform="translate(27.240625 232.888704)scale(0.1 -0.1)">
       <use xlink:href="#DejaVuSans-53"/>
       <use x="63.623047" xlink:href="#DejaVuSans-48"/>
      </g>
     </g>
    </g>
    <g id="ytick_3">
     <g id="line2d_19">
      <path clip-path="url(#peb3a5f9e01)" d="M 46.965625 192.541572 
L 404.085625 192.541572 
" style="fill:none;stroke:#b0b0b0;stroke-dasharray:2.96,1.28;stroke-dashoffset:0;stroke-width:0.8;"/>
     </g>
     <g id="line2d_20">
      <g>
       <use style="stroke:#000000;stroke-width:0.8;" x="46.965625" xlink:href="#ma1c6408cb3" y="192.541572"/>
      </g>
     </g>
     <g id="text_11">
      <!-- 75 -->
      <defs>
       <path d="M 8.203125 72.90625 
L 55.078125 72.90625 
L 55.078125 68.703125 
L 28.609375 0 
L 18.3125 0 
L 43.21875 64.59375 
L 8.203125 64.59375 
z
" id="DejaVuSans-55"/>
      </defs>
      <g transform="translate(27.240625 196.340791)scale(0.1 -0.1)">
       <use xlink:href="#DejaVuSans-55"/>
       <use x="63.623047" xlink:href="#DejaVuSans-53"/>
      </g>
     </g>
    </g>
    <g id="ytick_4">
     <g id="line2d_21">
      <path clip-path="url(#peb3a5f9e01)" d="M 46.965625 155.993659 
L 404.085625 155.993659 
" style="fill:none;stroke:#b0b0b0;stroke-dasharray:2.96,1.28;stroke-dashoffset:0;stroke-width:0.8;"/>
     </g>
     <g id="line2d_22">
      <g>
       <use style="stroke:#000000;stroke-width:0.8;" x="46.965625" xlink:href="#ma1c6408cb3" y="155.993659"/>
      </g>
     </g>
     <g id="text_12">
      <!-- 100 -->
      <g transform="translate(20.878125 159.792877)scale(0.1 -0.1)">
       <use xlink:href="#DejaVuSans-49"/>
       <use x="63.623047" xlink:href="#DejaVuSans-48"/>
       <use x="127.246094" xlink:href="#DejaVuSans-48"/>
      </g>
     </g>
    </g>
    <g id="ytick_5">
     <g id="line2d_23">
      <path clip-path="url(#peb3a5f9e01)" d="M 46.965625 119.445745 
L 404.085625 119.445745 
" style="fill:none;stroke:#b0b0b0;stroke-dasharray:2.96,1.28;stroke-dashoffset:0;stroke-width:0.8;"/>
     </g>
     <g id="line2d_24">
      <g>
       <use style="stroke:#000000;stroke-width:0.8;" x="46.965625" xlink:href="#ma1c6408cb3" y="119.445745"/>
      </g>
     </g>
     <g id="text_13">
      <!-- 125 -->
      <g transform="translate(20.878125 123.244964)scale(0.1 -0.1)">
       <use xlink:href="#DejaVuSans-49"/>
       <use x="63.623047" xlink:href="#DejaVuSans-50"/>
       <use x="127.246094" xlink:href="#DejaVuSans-53"/>
      </g>
     </g>
    </g>
    <g id="ytick_6">
     <g id="line2d_25">
      <path clip-path="url(#peb3a5f9e01)" d="M 46.965625 82.897832 
L 404.085625 82.897832 
" style="fill:none;stroke:#b0b0b0;stroke-dasharray:2.96,1.28;stroke-dashoffset:0;stroke-width:0.8;"/>
     </g>
     <g id="line2d_26">
      <g>
       <use style="stroke:#000000;stroke-width:0.8;" x="46.965625" xlink:href="#ma1c6408cb3" y="82.897832"/>
      </g>
     </g>
     <g id="text_14">
      <!-- 150 -->
      <g transform="translate(20.878125 86.697051)scale(0.1 -0.1)">
       <use xlink:href="#DejaVuSans-49"/>
       <use x="63.623047" xlink:href="#DejaVuSans-53"/>
       <use x="127.246094" xlink:href="#DejaVuSans-48"/>
      </g>
     </g>
    </g>
    <g id="ytick_7">
     <g id="line2d_27">
      <path clip-path="url(#peb3a5f9e01)" d="M 46.965625 46.349919 
L 404.085625 46.349919 
" style="fill:none;stroke:#b0b0b0;stroke-dasharray:2.96,1.28;stroke-dashoffset:0;stroke-width:0.8;"/>
     </g>
     <g id="line2d_28">
      <g>
       <use style="stroke:#000000;stroke-width:0.8;" x="46.965625" xlink:href="#ma1c6408cb3" y="46.349919"/>
      </g>
     </g>
     <g id="text_15">
      <!-- 175 -->
      <g transform="translate(20.878125 50.149137)scale(0.1 -0.1)">
       <use xlink:href="#DejaVuSans-49"/>
       <use x="63.623047" xlink:href="#DejaVuSans-55"/>
       <use x="127.246094" xlink:href="#DejaVuSans-53"/>
      </g>
     </g>
    </g>
    <g id="text_16">
     <!-- Price $ -->
     <defs>
      <path d="M 19.671875 64.796875 
L 19.671875 37.40625 
L 32.078125 37.40625 
Q 38.96875 37.40625 42.71875 40.96875 
Q 46.484375 44.53125 46.484375 51.125 
Q 46.484375 57.671875 42.71875 61.234375 
Q 38.96875 64.796875 32.078125 64.796875 
z
M 9.8125 72.90625 
L 32.078125 72.90625 
Q 44.34375 72.90625 50.609375 67.359375 
Q 56.890625 61.8125 56.890625 51.125 
Q 56.890625 40.328125 50.609375 34.8125 
Q 44.34375 29.296875 32.078125 29.296875 
L 19.671875 29.296875 
L 19.671875 0 
L 9.8125 0 
z
" id="DejaVuSans-80"/>
      <path d="M 41.109375 46.296875 
Q 39.59375 47.171875 37.8125 47.578125 
Q 36.03125 48 33.890625 48 
Q 26.265625 48 22.1875 43.046875 
Q 18.109375 38.09375 18.109375 28.8125 
L 18.109375 0 
L 9.078125 0 
L 9.078125 54.6875 
L 18.109375 54.6875 
L 18.109375 46.1875 
Q 20.953125 51.171875 25.484375 53.578125 
Q 30.03125 56 36.53125 56 
Q 37.453125 56 38.578125 55.875 
Q 39.703125 55.765625 41.0625 55.515625 
z
" id="DejaVuSans-114"/>
      <path d="M 9.421875 54.6875 
L 18.40625 54.6875 
L 18.40625 0 
L 9.421875 0 
z
M 9.421875 75.984375 
L 18.40625 75.984375 
L 18.40625 64.59375 
L 9.421875 64.59375 
z
" id="DejaVuSans-105"/>
      <path d="M 48.78125 52.59375 
L 48.78125 44.1875 
Q 44.96875 46.296875 41.140625 47.34375 
Q 37.3125 48.390625 33.40625 48.390625 
Q 24.65625 48.390625 19.8125 42.84375 
Q 14.984375 37.3125 14.984375 27.296875 
Q 14.984375 17.28125 19.8125 11.734375 
Q 24.65625 6.203125 33.40625 6.203125 
Q 37.3125 6.203125 41.140625 7.25 
Q 44.96875 8.296875 48.78125 10.40625 
L 48.78125 2.09375 
Q 45.015625 0.34375 40.984375 -0.53125 
Q 36.96875 -1.421875 32.421875 -1.421875 
Q 20.0625 -1.421875 12.78125 6.34375 
Q 5.515625 14.109375 5.515625 27.296875 
Q 5.515625 40.671875 12.859375 48.328125 
Q 20.21875 56 33.015625 56 
Q 37.15625 56 41.109375 55.140625 
Q 45.0625 54.296875 48.78125 52.59375 
z
" id="DejaVuSans-99"/>
      <path d="M 56.203125 29.59375 
L 56.203125 25.203125 
L 14.890625 25.203125 
Q 15.484375 15.921875 20.484375 11.0625 
Q 25.484375 6.203125 34.421875 6.203125 
Q 39.59375 6.203125 44.453125 7.46875 
Q 49.3125 8.734375 54.109375 11.28125 
L 54.109375 2.78125 
Q 49.265625 0.734375 44.1875 -0.34375 
Q 39.109375 -1.421875 33.890625 -1.421875 
Q 20.796875 -1.421875 13.15625 6.1875 
Q 5.515625 13.8125 5.515625 26.8125 
Q 5.515625 40.234375 12.765625 48.109375 
Q 20.015625 56 32.328125 56 
Q 43.359375 56 49.78125 48.890625 
Q 56.203125 41.796875 56.203125 29.59375 
z
M 47.21875 32.234375 
Q 47.125 39.59375 43.09375 43.984375 
Q 39.0625 48.390625 32.421875 48.390625 
Q 24.90625 48.390625 20.390625 44.140625 
Q 15.875 39.890625 15.1875 32.171875 
z
" id="DejaVuSans-101"/>
      <path id="DejaVuSans-32"/>
      <path d="M 33.796875 -14.703125 
L 28.90625 -14.703125 
L 28.859375 0 
Q 23.734375 0.09375 18.609375 1.1875 
Q 13.484375 2.296875 8.296875 4.5 
L 8.296875 13.28125 
Q 13.28125 10.15625 18.375 8.5625 
Q 23.484375 6.984375 28.90625 6.9375 
L 28.90625 29.203125 
Q 18.109375 30.953125 13.203125 35.15625 
Q 8.296875 39.359375 8.296875 46.6875 
Q 8.296875 54.640625 13.625 59.21875 
Q 18.953125 63.8125 28.90625 64.5 
L 28.90625 75.984375 
L 33.796875 75.984375 
L 33.796875 64.65625 
Q 38.328125 64.453125 42.578125 63.6875 
Q 46.828125 62.9375 50.875 61.625 
L 50.875 53.078125 
Q 46.828125 55.125 42.546875 56.25 
Q 38.28125 57.375 33.796875 57.5625 
L 33.796875 36.71875 
Q 44.875 35.015625 50.09375 30.609375 
Q 55.328125 26.21875 55.328125 18.609375 
Q 55.328125 10.359375 49.78125 5.59375 
Q 44.234375 0.828125 33.796875 0.09375 
z
M 28.90625 37.59375 
L 28.90625 57.625 
Q 23.25 56.984375 20.265625 54.390625 
Q 17.28125 51.8125 17.28125 47.515625 
Q 17.28125 43.3125 20.03125 40.96875 
Q 22.796875 38.625 28.90625 37.59375 
z
M 33.796875 28.21875 
L 33.796875 7.078125 
Q 39.984375 7.90625 43.140625 10.59375 
Q 46.296875 13.28125 46.296875 17.671875 
Q 46.296875 21.96875 43.28125 24.5 
Q 40.28125 27.046875 33.796875 28.21875 
z
" id="DejaVuSans-36"/>
     </defs>
     <g transform="translate(14.798438 172.342094)rotate(-90)scale(0.1 -0.1)">
      <use xlink:href="#DejaVuSans-80"/>
      <use x="58.552734" xlink:href="#DejaVuSans-114"/>
      <use x="99.666016" xlink:href="#DejaVuSans-105"/>
      <use x="127.449219" xlink:href="#DejaVuSans-99"/>
      <use x="182.429688" xlink:href="#DejaVuSans-101"/>
      <use x="243.953125" xlink:href="#DejaVuSans-32"/>
      <use x="275.740234" xlink:href="#DejaVuSans-36"/>
     </g>
    </g>
   </g>
   <g id="line2d_29">
    <path clip-path="url(#peb3a5f9e01)" d="M 63.198352 268.250753 
L 63.443005 265.283721 
L 63.932311 266.840394 
L 64.176964 268.394822 
L 64.421617 267.422022 
L 64.66627 266.940652 
L 64.910923 269.546766 
L 65.155576 270.272753 
L 65.400229 270.503927 
L 65.644882 269.829111 
L 65.889535 270.551268 
L 66.134188 272.666169 
L 66.378841 271.560738 
L 66.868147 274.924455 
L 67.1128 273.434995 
L 67.357453 274.694992 
L 67.602106 274.177377 
L 68.091412 274.078557 
L 68.336066 274.404736 
L 68.580719 274.052795 
L 68.825372 274.372151 
L 69.070025 274.340654 
L 69.314678 275.873208 
L 69.559331 276.334125 
L 69.803984 275.027539 
L 70.048637 274.449949 
L 70.29329 274.401862 
L 70.537943 274.640786 
L 70.782596 273.685719 
L 71.027249 271.413219 
L 71.271902 271.758564 
L 71.516555 269.781531 
L 71.761208 270.525203 
L 72.005861 269.977617 
L 72.250514 267.834579 
L 72.495167 268.917629 
L 72.73982 268.489542 
L 72.984473 271.636192 
L 73.229126 272.381667 
L 73.473779 271.881002 
L 73.718432 272.353431 
L 73.963085 270.319906 
L 74.452391 269.412066 
L 74.697044 270.077912 
L 74.941697 269.888528 
L 75.18635 271.472356 
L 75.431003 272.233856 
L 75.675656 272.496686 
L 75.920309 273.397794 
L 76.164962 273.227456 
L 76.409615 273.583684 
L 76.898921 273.642416 
L 77.143574 273.035931 
L 77.388227 274.405062 
L 77.63288 274.357903 
L 78.122186 273.614463 
L 78.366839 267.965981 
L 79.100798 271.177827 
L 79.345451 271.02083 
L 79.590104 271.078442 
L 79.834757 270.974485 
L 80.07941 271.09616 
L 80.813369 274.042702 
L 81.058022 272.731877 
L 81.302675 273.068008 
L 81.547328 269.271383 
L 81.791981 269.594394 
L 82.036634 267.465444 
L 82.281287 268.451526 
L 82.52594 268.159661 
L 82.770593 266.320602 
L 83.015246 266.826362 
L 83.259899 263.877952 
L 83.749205 263.263715 
L 84.238511 260.7951 
L 84.483164 262.253691 
L 84.97247 261.237141 
L 85.217123 262.363704 
L 85.706429 261.054188 
L 85.951082 260.849459 
L 86.195735 261.458156 
L 86.440388 260.456374 
L 86.685041 262.640142 
L 86.929694 262.71257 
L 87.174347 261.276118 
L 87.419 261.755866 
L 87.663653 261.827608 
L 87.908306 263.499967 
L 88.152959 262.47759 
L 88.642265 263.836196 
L 88.886918 264.0512 
L 89.131571 262.985627 
L 89.376224 260.915757 
L 89.620877 261.286079 
L 90.110183 258.798827 
L 90.354836 259.35408 
L 90.599489 257.033772 
L 91.088796 255.36386 
L 91.578102 257.812792 
L 91.822755 258.191145 
L 92.067408 257.764145 
L 92.312061 258.505732 
L 92.556714 256.882315 
L 92.801367 256.769557 
L 93.04602 256.373969 
L 93.290673 255.683494 
L 93.535326 254.285795 
L 93.779979 256.846139 
L 94.024632 256.139355 
L 94.269285 256.55938 
L 94.758591 260.899974 
L 95.247897 259.500578 
L 95.49255 260.116964 
L 95.737203 260.261827 
L 95.981856 260.704759 
L 96.226509 262.053546 
L 96.715815 260.357415 
L 96.960468 260.641076 
L 97.205121 259.712863 
L 97.449774 260.437424 
L 97.694427 262.216054 
L 97.93908 262.431761 
L 98.428386 262.058716 
L 98.673039 262.848621 
L 99.162345 261.470324 
L 99.406998 261.566558 
L 99.651651 261.862889 
L 99.896304 261.964556 
L 100.140957 260.254041 
L 100.38561 261.211006 
L 100.630263 260.919972 
L 100.874916 261.393976 
L 101.119569 262.523649 
L 101.364222 262.574392 
L 101.608875 263.184836 
L 101.853528 263.406056 
L 102.098181 263.313836 
L 102.342834 264.358341 
L 102.587487 264.526094 
L 102.83214 264.541585 
L 103.076793 265.449235 
L 103.321446 265.331573 
L 103.566099 263.986775 
L 103.810752 264.770188 
L 104.300058 264.992829 
L 104.789364 262.503293 
L 105.034017 262.022646 
L 105.27867 262.834436 
L 105.523323 263.213136 
L 105.767976 261.727316 
L 106.012629 261.062701 
L 106.501935 263.313935 
L 106.746588 262.696031 
L 106.991241 263.162086 
L 107.235894 264.561856 
L 107.480547 264.485874 
L 107.7252 264.1276 
L 107.969853 264.114352 
L 108.214506 263.91235 
L 108.459159 263.864876 
L 108.703812 262.786464 
L 108.948465 262.598043 
L 109.193118 261.397029 
L 109.437771 261.920701 
L 109.682424 259.577316 
L 110.416383 262.721773 
L 110.661036 262.37094 
L 110.905689 262.503216 
L 111.150342 263.046273 
L 111.394995 262.827494 
L 111.639648 262.451959 
L 112.128954 263.866136 
L 112.373607 263.679753 
L 112.61826 264.427987 
L 112.862913 264.572178 
L 113.107566 265.331375 
L 113.35222 265.476641 
L 113.596873 266.614583 
L 113.841526 266.922299 
L 114.086179 268.105575 
L 114.330832 266.23315 
L 114.575485 266.559853 
L 115.309444 268.727959 
L 115.554097 268.614924 
L 115.79875 268.135717 
L 116.043403 266.56423 
L 116.532709 267.405041 
L 117.022015 267.609135 
L 117.266668 267.015846 
L 117.755974 266.577612 
L 118.000627 267.193737 
L 118.24528 266.228485 
L 118.489933 267.145757 
L 118.734586 266.644355 
L 118.979239 266.785317 
L 119.223892 266.021736 
L 119.468545 265.692726 
L 119.713198 265.794465 
L 119.957851 266.392744 
L 120.202504 266.217081 
L 120.447157 266.446586 
L 120.69181 265.927195 
L 120.936463 264.765104 
L 121.181116 264.287211 
L 121.425769 264.267653 
L 121.670422 264.110162 
L 121.915075 263.549407 
L 122.159728 263.493181 
L 122.404381 262.991035 
L 122.893687 264.150649 
L 123.382993 263.776716 
L 123.627646 263.20201 
L 123.872299 251.320675 
L 124.116952 251.967038 
L 124.361605 249.755329 
L 124.606258 246.4388 
L 124.850911 247.724248 
L 125.58487 244.122681 
L 125.829523 245.110304 
L 126.074176 244.613363 
L 126.318829 245.125931 
L 126.563482 245.187405 
L 126.808135 245.62112 
L 127.052788 247.443954 
L 127.297441 248.00015 
L 127.542094 248.153713 
L 128.0314 246.302358 
L 128.276053 245.414658 
L 128.520706 245.567466 
L 128.765359 245.227302 
L 129.010012 242.219018 
L 129.254665 241.06905 
L 129.499318 243.657267 
L 129.988624 241.201052 
L 130.233277 241.211899 
L 130.47793 240.34471 
L 130.722583 240.504063 
L 131.211889 237.256879 
L 131.456542 237.148502 
L 131.701195 237.81965 
L 131.945848 235.645398 
L 132.435154 236.792883 
L 132.679807 239.526707 
L 132.92446 235.644637 
L 133.169113 235.4712 
L 133.413766 234.336837 
L 133.658419 232.069614 
L 133.903072 232.553359 
L 134.392378 229.149077 
L 134.881684 226.499254 
L 135.126337 228.04893 
L 135.37099 227.755696 
L 135.615643 227.994093 
L 135.860297 229.675277 
L 136.10495 226.861784 
L 136.349603 227.701172 
L 136.594256 232.813306 
L 136.838909 233.339754 
L 137.083562 229.926223 
L 137.328215 229.895418 
L 137.572868 229.288319 
L 137.817521 229.316969 
L 138.55148 222.239086 
L 138.796133 222.835122 
L 139.285439 225.780281 
L 139.530092 224.964214 
L 139.774745 225.755551 
L 140.019398 228.364957 
L 140.264051 229.612102 
L 140.508704 230.21692 
L 140.753357 228.430881 
L 140.99801 229.145148 
L 141.242663 231.455023 
L 141.487316 228.594724 
L 141.731969 230.129251 
L 141.976622 232.474935 
L 142.221275 232.511357 
L 142.465928 234.54933 
L 142.710581 233.937175 
L 142.955234 230.767082 
L 143.199887 230.380409 
L 143.44454 230.341331 
L 143.689193 235.154139 
L 143.933846 234.307738 
L 144.178499 234.242571 
L 144.423152 233.843471 
L 144.667805 234.56182 
L 144.912458 236.687832 
L 145.157111 235.049205 
L 145.646417 233.384858 
L 145.89107 233.309206 
L 146.135723 233.802651 
L 146.380376 230.933967 
L 146.869682 231.977179 
L 147.114335 230.607028 
L 147.358988 228.5045 
L 147.603641 229.821642 
L 148.092947 223.870701 
L 148.3376 223.134049 
L 148.826906 220.471502 
L 149.071559 221.262179 
L 149.316212 221.143749 
L 149.560865 217.139395 
L 149.805518 216.894757 
L 150.050171 217.228649 
L 150.539477 223.275493 
L 150.78413 221.851609 
L 151.028783 221.799918 
L 151.273436 222.030399 
L 151.518089 218.033037 
L 151.762742 216.986812 
L 152.007395 216.513676 
L 152.252048 218.044509 
L 152.496701 216.945762 
L 152.741354 220.049773 
L 152.986007 217.25969 
L 153.23066 217.526634 
L 153.475313 218.146443 
L 153.719966 219.49577 
L 153.964619 216.149196 
L 154.453925 219.025824 
L 154.698578 222.326383 
L 154.943231 223.675564 
L 155.187884 221.285557 
L 155.432537 223.769263 
L 155.67719 212.307292 
L 155.921843 210.179384 
L 156.166496 211.80368 
L 156.411149 209.847632 
L 156.655802 210.730399 
L 156.900455 210.77579 
L 157.145108 207.524091 
L 157.389761 208.73633 
L 157.634414 206.752022 
L 157.879067 207.387085 
L 158.12372 203.021466 
L 158.368374 203.436685 
L 158.613027 203.103124 
L 158.85768 201.961906 
L 159.102333 199.606195 
L 159.346986 201.209918 
L 159.591639 197.879856 
L 160.080945 200.216558 
L 160.570251 201.453902 
L 160.814904 203.056775 
L 161.059557 200.958045 
L 161.30421 196.809207 
L 161.793516 199.51593 
L 162.038169 196.14022 
L 162.282822 199.122303 
L 162.527475 197.91799 
L 162.772128 201.063461 
L 163.016781 202.730211 
L 163.261434 201.203661 
L 163.506087 200.567607 
L 163.995393 203.939428 
L 164.240046 203.53127 
L 164.484699 208.316345 
L 164.729352 207.088249 
L 164.974005 213.969117 
L 165.218658 213.020278 
L 165.463311 214.530738 
L 165.707964 214.179315 
L 165.952617 210.588808 
L 166.19727 210.474654 
L 166.686576 219.445736 
L 166.931229 219.132789 
L 167.175882 217.294765 
L 167.420535 210.929969 
L 167.665188 215.906324 
L 167.909841 216.767787 
L 168.6438 214.986843 
L 168.888453 216.172382 
L 169.377759 209.991318 
L 169.622412 212.524783 
L 169.867065 213.215836 
L 170.111718 217.994284 
L 170.356371 220.324233 
L 170.845677 214.853388 
L 171.09033 212.780057 
L 171.334983 213.815213 
L 171.579636 212.626486 
L 171.824289 216.703607 
L 172.313595 219.329727 
L 172.558248 218.603528 
L 172.802901 214.690401 
L 173.047554 214.718135 
L 173.292207 215.594315 
L 173.53686 217.553131 
L 173.781513 217.378808 
L 174.026166 215.585802 
L 174.270819 216.585858 
L 174.515472 213.638889 
L 174.760125 213.619156 
L 175.004778 212.342838 
L 175.249431 209.121726 
L 175.494084 209.098053 
L 175.738737 208.593558 
L 175.98339 209.393971 
L 176.472696 210.031911 
L 176.717349 209.318865 
L 176.962002 209.553167 
L 177.206655 210.589395 
L 177.451308 210.001055 
L 177.695961 205.634609 
L 177.940614 205.659823 
L 178.185267 207.891888 
L 178.42992 207.545993 
L 178.674573 208.031978 
L 178.919226 207.715561 
L 179.163879 205.908966 
L 179.408532 207.837027 
L 179.653185 207.569294 
L 179.897838 206.2653 
L 180.142491 205.753586 
L 180.387144 203.152439 
L 180.631798 203.647669 
L 180.876451 202.922512 
L 181.121104 203.404033 
L 181.365757 202.237842 
L 181.61041 204.696223 
L 181.855063 204.916835 
L 182.099716 206.446988 
L 182.344369 210.273786 
L 182.589022 206.905539 
L 182.833675 207.117802 
L 183.322981 202.540659 
L 183.567634 203.660657 
L 183.812287 202.897948 
L 184.05694 204.807714 
L 184.301593 201.752825 
L 184.546246 200.318277 
L 184.790899 200.525509 
L 185.035552 197.461657 
L 185.280205 191.911359 
L 185.524858 191.641986 
L 185.769511 192.031257 
L 186.014164 193.858153 
L 186.258817 192.383316 
L 186.50347 195.490665 
L 186.748123 195.905105 
L 186.992776 194.183062 
L 187.237429 195.455061 
L 187.482082 195.774901 
L 187.726735 194.722541 
L 187.971388 194.910059 
L 188.216041 194.337129 
L 188.460694 195.275693 
L 188.95 193.078918 
L 189.194653 194.107382 
L 189.683959 191.621369 
L 189.928612 192.364998 
L 190.173265 192.726427 
L 190.417918 192.737211 
L 190.662571 192.07095 
L 190.907224 190.666979 
L 191.39653 193.849778 
L 191.641183 192.403523 
L 191.885836 189.620584 
L 192.130489 190.939593 
L 192.375142 190.737507 
L 192.619795 188.767305 
L 192.864448 187.843352 
L 193.109101 189.700186 
L 193.598407 187.822179 
L 193.84306 188.502685 
L 194.087713 192.891088 
L 194.332366 190.588766 
L 194.577019 190.114366 
L 194.821672 189.259069 
L 195.066325 187.891114 
L 195.310978 189.585501 
L 195.555631 187.311233 
L 195.800284 186.985145 
L 196.044937 188.971646 
L 196.28959 186.579886 
L 196.534243 186.304206 
L 196.778896 186.246323 
L 197.023549 190.020365 
L 197.512855 188.6785 
L 197.757508 188.510881 
L 198.002161 190.438303 
L 198.246814 188.559764 
L 198.491467 191.030721 
L 198.73612 195.546775 
L 198.980773 195.397274 
L 199.225426 194.523608 
L 199.714732 195.988983 
L 199.959385 190.953764 
L 200.204038 189.495495 
L 200.448691 186.852323 
L 200.693344 187.352374 
L 200.937997 184.808446 
L 201.18265 183.886829 
L 201.427303 184.482823 
L 201.671956 183.7348 
L 201.916609 191.180482 
L 202.161262 193.756648 
L 202.405915 192.440789 
L 202.650568 194.161253 
L 202.895221 191.293862 
L 203.139875 192.732405 
L 203.629181 191.53833 
L 204.118487 193.027373 
L 204.36314 192.861261 
L 204.607793 193.581884 
L 204.852446 192.623501 
L 205.097099 193.607393 
L 205.341752 193.44268 
L 205.586405 194.977296 
L 206.075711 194.337137 
L 206.320364 193.944076 
L 206.80967 188.497528 
L 207.054323 188.391431 
L 207.298976 192.308465 
L 207.543629 191.718605 
L 207.788282 192.62317 
L 208.032935 192.073409 
L 208.277588 190.387158 
L 208.522241 190.1571 
L 208.766894 189.661515 
L 209.011547 190.658032 
L 209.2562 188.295777 
L 209.500853 188.171224 
L 209.745506 189.43321 
L 209.990159 192.898223 
L 210.234812 190.720319 
L 210.724118 185.082782 
L 210.968771 182.70676 
L 211.213424 183.984817 
L 211.458077 183.715633 
L 211.70273 183.709742 
L 212.192036 186.070782 
L 212.436689 187.885542 
L 212.681342 187.228027 
L 213.170648 190.71229 
L 213.415301 190.707114 
L 213.659954 187.659914 
L 213.904607 188.344671 
L 214.14926 189.867399 
L 214.638566 190.527218 
L 214.883219 193.910923 
L 215.372525 190.607792 
L 215.617178 189.864525 
L 215.861831 188.484516 
L 216.106484 188.219716 
L 216.351137 188.715255 
L 216.59579 191.313842 
L 216.840443 190.597148 
L 217.085096 187.957478 
L 217.329749 191.150949 
L 217.574402 192.497662 
L 218.063708 191.543227 
L 218.308361 191.574932 
L 218.553014 193.295766 
L 218.797667 193.320559 
L 219.04232 192.191423 
L 219.286973 190.204926 
L 219.531626 190.641492 
L 219.776279 191.365003 
L 220.020932 191.567406 
L 220.265585 189.888713 
L 220.510238 185.805074 
L 220.754891 185.12659 
L 220.999544 186.699673 
L 221.244197 187.264335 
L 221.733503 184.323 
L 221.978156 186.509472 
L 222.222809 185.29819 
L 222.467462 185.545519 
L 222.712115 183.586889 
L 222.956768 183.121693 
L 223.201421 184.948205 
L 223.446074 185.773234 
L 223.690727 188.636229 
L 223.93538 188.58778 
L 224.180033 186.548824 
L 224.424686 187.90757 
L 224.669339 187.854101 
L 225.158645 183.580345 
L 225.647952 179.23775 
L 226.137258 176.96084 
L 226.381911 180.593134 
L 226.626564 180.422138 
L 226.871217 180.009835 
L 227.11587 180.192257 
L 227.605176 182.484502 
L 227.849829 182.653738 
L 228.094482 181.329594 
L 228.339135 181.530229 
L 228.828441 181.755159 
L 229.073094 181.956136 
L 229.317747 180.493183 
L 229.5624 179.744015 
L 229.807053 180.993077 
L 230.051706 181.572338 
L 230.296359 183.895478 
L 230.541012 180.38753 
L 230.785665 179.640068 
L 231.030318 178.109316 
L 231.274971 181.481566 
L 231.519624 182.77525 
L 231.764277 182.208334 
L 232.00893 184.094747 
L 232.253583 184.399522 
L 232.498236 186.983638 
L 232.742889 186.631673 
L 232.987542 186.924067 
L 233.232195 188.817016 
L 233.721501 187.515689 
L 233.966154 187.382351 
L 234.45546 188.961036 
L 234.700113 187.473203 
L 234.944766 183.05778 
L 235.189419 184.53554 
L 235.434072 183.79951 
L 235.678725 184.186343 
L 236.168031 184.410095 
L 236.412684 184.319769 
L 236.657337 186.152293 
L 236.90199 184.284397 
L 237.146643 184.929939 
L 237.391296 186.350994 
L 237.635949 184.668104 
L 237.880602 184.461855 
L 238.125255 181.42604 
L 238.369908 182.040743 
L 238.614561 181.88004 
L 238.859214 184.104605 
L 239.103867 184.082397 
L 239.34852 181.839542 
L 239.837826 182.802806 
L 240.082479 184.037705 
L 240.327132 183.497115 
L 240.571785 182.404226 
L 240.816438 180.7184 
L 241.061091 181.334269 
L 241.79505 171.772665 
L 242.039703 173.095798 
L 242.284356 173.028205 
L 242.529009 176.383715 
L 242.773662 176.405175 
L 243.018315 174.703499 
L 243.507621 173.761286 
L 243.752274 174.261058 
L 243.996927 176.631933 
L 244.24158 176.266779 
L 244.730886 169.939068 
L 244.975539 170.597408 
L 245.220192 170.455782 
L 245.464845 168.81365 
L 245.954151 158.218583 
L 246.198804 157.516799 
L 246.68811 161.955114 
L 246.932763 159.670422 
L 247.177416 163.929702 
L 247.422069 162.200564 
L 247.666722 159.674433 
L 248.156029 164.18688 
L 248.400682 163.99389 
L 248.645335 164.143229 
L 248.889988 160.55518 
L 249.379294 163.821702 
L 249.623947 164.057529 
L 249.8686 164.88347 
L 250.113253 164.033578 
L 250.357906 165.214321 
L 250.602559 163.715615 
L 250.847212 164.491461 
L 251.091865 162.613363 
L 251.336518 162.435078 
L 252.070477 182.381901 
L 252.31513 181.010736 
L 252.804436 170.950298 
L 253.049089 169.00626 
L 253.538395 174.673293 
L 253.783048 170.629258 
L 254.027701 173.337692 
L 254.272354 173.138655 
L 255.006313 167.552492 
L 255.250966 167.459414 
L 255.495619 167.051354 
L 256.229578 163.987875 
L 256.474231 163.904738 
L 256.718884 162.155931 
L 256.963537 166.089906 
L 257.20819 164.511888 
L 257.452843 163.877997 
L 257.697496 166.363633 
L 258.186802 175.524386 
L 258.431455 170.62907 
L 258.920761 167.4112 
L 259.165414 164.46943 
L 259.410067 166.315343 
L 259.65472 166.885475 
L 259.899373 166.78338 
L 260.388679 164.105548 
L 260.633332 164.331694 
L 260.877985 164.39868 
L 261.367291 159.177121 
L 261.611944 157.781487 
L 261.856597 160.007599 
L 262.10125 159.811514 
L 262.835209 149.815098 
L 263.079862 149.925661 
L 263.569168 148.138839 
L 263.813821 152.557517 
L 264.058474 150.490671 
L 264.303127 151.645357 
L 264.54778 149.581007 
L 264.792433 142.31647 
L 265.037086 144.914324 
L 265.281739 145.768135 
L 265.771045 142.001295 
L 266.015698 143.524178 
L 266.260351 149.675679 
L 266.505004 149.502823 
L 266.749657 147.906755 
L 266.99431 143.95122 
L 267.238963 146.283445 
L 267.483616 144.645595 
L 267.728269 145.241061 
L 267.972922 147.078088 
L 268.217575 147.579633 
L 268.462228 147.543517 
L 268.706881 149.400254 
L 268.951534 145.03917 
L 269.196187 146.696917 
L 269.44084 149.233661 
L 269.685493 146.499235 
L 269.930146 147.418327 
L 270.174799 146.081167 
L 270.419452 148.97073 
L 270.664106 147.707093 
L 270.908759 152.741984 
L 271.153412 148.855981 
L 271.398065 149.097193 
L 271.642718 145.698436 
L 271.887371 146.59898 
L 272.132024 149.879456 
L 272.62133 147.667407 
L 272.865983 149.019588 
L 273.110636 148.416732 
L 273.355289 147.055989 
L 273.599942 145.059821 
L 273.844595 146.651904 
L 274.089248 148.990177 
L 274.333901 152.670906 
L 274.578554 151.882793 
L 274.823207 151.556466 
L 275.06786 159.211444 
L 275.312513 160.026862 
L 275.557166 159.786884 
L 275.801819 156.986721 
L 276.046472 162.964422 
L 276.291125 158.443507 
L 276.535778 163.660863 
L 276.780431 163.148373 
L 277.025084 164.55112 
L 277.269737 164.825564 
L 277.51439 159.101123 
L 277.759043 160.566323 
L 278.003696 160.015451 
L 278.248349 164.389739 
L 278.493002 142.139932 
L 278.982308 133.287306 
L 279.226961 134.015767 
L 279.716267 140.189733 
L 280.205573 156.341809 
L 280.450226 156.651933 
L 280.939532 153.131884 
L 281.184185 152.9668 
L 281.428838 153.546159 
L 281.673491 148.087682 
L 281.918144 150.760283 
L 282.162797 149.042047 
L 282.40745 145.148701 
L 282.652103 147.764347 
L 283.141409 143.812411 
L 283.386062 144.05746 
L 283.630715 144.005189 
L 283.875368 145.568435 
L 284.120021 141.167516 
L 284.364674 141.026185 
L 284.609327 141.571208 
L 284.85398 143.362729 
L 285.098633 147.376038 
L 285.343286 147.048739 
L 285.587939 144.688928 
L 285.832592 145.008556 
L 286.077245 141.830665 
L 286.321898 141.134461 
L 286.566551 139.947162 
L 286.811204 137.670396 
L 287.055857 139.449731 
L 287.789816 137.605026 
L 288.034469 137.178148 
L 288.523775 135.458282 
L 288.768428 131.762075 
L 289.013081 133.980497 
L 289.257734 134.855636 
L 289.502387 131.895296 
L 289.74704 137.254953 
L 289.991693 137.700113 
L 290.236346 135.474174 
L 290.480999 135.621844 
L 290.725652 140.17692 
L 290.970305 142.620809 
L 291.214958 140.176919 
L 291.459611 140.382131 
L 291.704264 139.880238 
L 291.948917 141.70659 
L 292.19357 140.465377 
L 292.438223 137.707957 
L 292.682876 137.543604 
L 292.92753 135.99394 
L 293.172183 140.373916 
L 293.416836 141.027673 
L 293.661489 143.080786 
L 293.906142 142.883035 
L 294.150795 131.031782 
L 294.640101 128.325449 
L 294.884754 130.047776 
L 295.129407 129.073282 
L 295.37406 129.478788 
L 295.618713 126.941512 
L 295.863366 127.355535 
L 296.108019 125.439324 
L 296.352672 126.945001 
L 296.597325 125.775456 
L 296.841978 126.508426 
L 297.331284 130.219463 
L 297.575937 129.76344 
L 297.82059 131.060975 
L 298.065243 130.239794 
L 298.309896 132.351232 
L 298.554549 129.715817 
L 298.799202 129.471799 
L 299.043855 127.079269 
L 299.288508 127.243546 
L 299.533161 128.102085 
L 299.777814 128.148018 
L 300.022467 127.937483 
L 300.26712 128.650458 
L 300.511773 128.169746 
L 300.756426 129.747357 
L 301.001079 128.785243 
L 301.245732 128.552815 
L 301.735038 135.514294 
L 301.979691 133.997407 
L 302.468997 134.875915 
L 302.71365 136.951208 
L 302.958303 136.403783 
L 303.202956 134.892959 
L 303.447609 135.622236 
L 303.692262 133.836429 
L 304.181568 143.057383 
L 304.426221 137.387785 
L 304.670874 135.267959 
L 304.915527 135.085412 
L 305.16018 135.20128 
L 305.404833 135.479007 
L 305.649486 131.387342 
L 305.894139 132.718404 
L 306.138792 130.581262 
L 306.383445 129.65009 
L 306.628098 129.559145 
L 306.872751 131.293058 
L 307.117404 130.500698 
L 307.362057 131.166798 
L 307.60671 127.357368 
L 308.096016 123.531852 
L 308.340669 125.517541 
L 308.585322 124.893413 
L 308.829975 123.954097 
L 309.074628 124.586419 
L 309.563934 118.892395 
L 309.808587 120.50889 
L 310.05324 119.919468 
L 310.297893 121.779997 
L 310.542546 122.644987 
L 310.787199 119.852443 
L 311.031852 118.69782 
L 311.276505 118.536509 
L 311.765811 119.110675 
L 312.255117 119.130787 
L 312.744423 121.530077 
L 312.989076 119.919693 
L 313.478382 121.175076 
L 313.723035 120.287338 
L 313.967688 119.975943 
L 314.212341 121.33297 
L 314.456994 120.706151 
L 314.701647 119.108943 
L 314.9463 116.741475 
L 315.190953 117.826113 
L 315.435607 117.386701 
L 315.68026 117.32737 
L 315.924913 116.823288 
L 316.169566 111.963707 
L 316.414219 110.021083 
L 316.658872 111.206171 
L 316.903525 115.985192 
L 317.148178 113.544282 
L 317.392831 115.845947 
L 318.12679 113.053518 
L 318.371443 113.700783 
L 318.616096 113.708967 
L 318.860749 111.749961 
L 319.105402 111.567348 
L 319.350055 114.778905 
L 319.594708 115.737783 
L 319.839361 113.665902 
L 320.084014 112.889258 
L 320.328667 114.623653 
L 320.57332 114.334583 
L 320.817973 113.595253 
L 321.062626 114.490003 
L 321.796585 113.300855 
L 322.041238 111.417059 
L 322.285891 113.499829 
L 322.530544 113.218879 
L 322.775197 115.099332 
L 323.01985 114.998991 
L 323.264503 115.531889 
L 323.509156 113.975254 
L 323.753809 111.666316 
L 323.998462 111.852178 
L 324.487768 106.907099 
L 324.977074 110.285655 
L 325.221727 112.32308 
L 325.46638 109.901103 
L 325.711033 110.400379 
L 325.955686 112.64716 
L 326.200339 116.154391 
L 326.444992 126.988554 
L 326.689645 125.774476 
L 326.934298 123.737946 
L 327.178951 120.633327 
L 327.423604 122.221639 
L 328.157563 134.396527 
L 328.402216 131.148381 
L 328.646869 132.523003 
L 328.891522 130.299603 
L 329.136175 131.483306 
L 329.380828 124.254934 
L 329.625481 124.779295 
L 330.114787 126.361605 
L 330.35944 126.311535 
L 330.604093 125.619371 
L 331.093399 134.309005 
L 331.338052 133.81239 
L 331.582705 130.763582 
L 331.827358 130.96668 
L 332.316664 128.493738 
L 332.561317 127.320535 
L 332.80597 130.202152 
L 333.050623 126.308319 
L 333.295276 126.503308 
L 333.539929 125.932398 
L 334.029235 127.915039 
L 334.518541 128.198325 
L 334.763194 130.672746 
L 335.007847 130.834295 
L 335.2525 129.713706 
L 335.497153 131.368266 
L 335.741806 132.19769 
L 335.986459 134.15316 
L 336.720418 125.657034 
L 336.965071 121.512316 
L 337.209724 119.273273 
L 337.454377 120.10128 
L 337.69903 117.442761 
L 337.943684 116.669706 
L 338.188337 114.06515 
L 338.43299 114.796384 
L 338.677643 114.698929 
L 339.166949 116.022784 
L 339.411602 113.156491 
L 339.656255 112.522017 
L 340.145561 107.377832 
L 340.390214 108.290539 
L 340.87952 111.079462 
L 341.124173 106.685911 
L 341.368826 110.365286 
L 341.613479 110.108257 
L 341.858132 108.498286 
L 342.102785 108.861121 
L 342.347438 105.288674 
L 342.592091 105.425589 
L 342.836744 105.34374 
L 343.32605 105.881935 
L 343.570703 106.517766 
L 343.815356 105.925218 
L 344.060009 106.420583 
L 344.304662 106.141692 
L 344.549315 102.527184 
L 344.793968 103.726703 
L 345.038621 103.589564 
L 345.283274 102.137904 
L 345.527927 103.485607 
L 345.77258 100.635772 
L 346.017233 101.684012 
L 346.506539 100.701114 
L 346.751192 100.899552 
L 347.240498 99.508997 
L 347.485151 98.695582 
L 347.729804 97.486911 
L 347.974457 97.931588 
L 348.463763 96.941188 
L 348.708416 97.184712 
L 348.953069 97.043398 
L 349.197722 99.224973 
L 349.442375 97.582846 
L 349.687028 97.714989 
L 349.931681 96.495631 
L 350.176334 96.549159 
L 350.66564 93.059484 
L 351.154946 93.983821 
L 351.399599 93.644679 
L 351.644252 94.499084 
L 351.888905 94.323297 
L 352.378211 95.965706 
L 352.622864 95.58351 
L 352.867517 97.298853 
L 353.356823 98.107997 
L 353.601476 95.046134 
L 353.846129 95.785035 
L 354.335435 91.498919 
L 354.580088 91.704063 
L 355.069394 87.481847 
L 355.314047 87.390308 
L 355.5587 85.667274 
L 356.048006 78.530375 
L 356.292659 78.070059 
L 357.026618 81.902419 
L 357.271271 80.674605 
L 357.515924 81.583502 
L 358.00523 82.25709 
L 358.249883 81.827347 
L 358.494536 82.057702 
L 358.739189 82.687282 
L 358.983842 90.15923 
L 359.228495 85.851302 
L 359.717801 85.079441 
L 359.962454 85.343475 
L 360.451761 79.500085 
L 360.941067 78.890173 
L 361.18572 80.296737 
L 361.430373 80.190917 
L 361.675026 77.06634 
L 361.919679 77.083424 
L 362.164332 78.321689 
L 362.408985 77.846487 
L 362.653638 75.460339 
L 362.898291 83.229355 
L 363.142944 84.906753 
L 363.387597 81.546716 
L 363.876903 82.929436 
L 364.121556 81.654402 
L 364.366209 78.298678 
L 364.610862 79.272174 
L 364.855515 76.73821 
L 365.100168 77.545082 
L 365.344821 75.008071 
L 365.589474 77.286621 
L 365.834127 81.819972 
L 366.07878 77.767747 
L 366.323433 81.174952 
L 366.568086 81.226428 
L 366.812739 85.104563 
L 367.057392 82.182797 
L 367.302045 84.538427 
L 367.791351 77.470694 
L 368.036004 74.805337 
L 368.280657 69.318776 
L 368.52531 68.818133 
L 368.769963 67.728508 
L 369.014616 68.104814 
L 369.259269 63.370967 
L 369.503922 61.493961 
L 369.748575 60.911372 
L 369.993228 61.061681 
L 370.237881 58.685912 
L 370.482534 59.805848 
L 370.727187 59.292623 
L 370.97184 51.999051 
L 371.216493 49.035662 
L 371.461146 53.882535 
L 371.705799 52.900392 
L 372.195105 54.874473 
L 372.439758 53.328577 
L 372.684411 49.796153 
L 372.929064 50.977323 
L 373.173717 51.040478 
L 373.41837 56.781468 
L 373.663023 55.721679 
L 373.907676 51.744329 
L 374.152329 51.431286 
L 374.396982 52.949606 
L 374.641635 57.626208 
L 375.130941 56.352237 
L 375.375594 53.567645 
L 375.8649 56.479138 
L 376.109553 58.637152 
L 376.598859 56.073485 
L 377.088165 50.199109 
L 377.332818 50.152716 
L 377.577471 52.117533 
L 378.066777 48.389062 
L 378.31143 51.837233 
L 378.556083 47.933142 
L 378.800736 48.832944 
L 379.045389 48.685986 
L 379.290042 51.862567 
L 379.534695 50.813167 
L 379.779348 53.319081 
L 380.024001 49.504808 
L 380.268654 50.094101 
L 380.513307 51.685642 
L 380.75796 52.539226 
L 381.002613 64.16057 
L 381.247266 62.037276 
L 381.491919 56.88064 
L 381.736572 55.355819 
L 381.981225 52.102454 
L 382.225878 54.238494 
L 382.470531 53.457679 
L 382.715184 55.811334 
L 382.959838 51.527994 
L 383.204491 50.094963 
L 383.449144 49.691704 
L 383.693797 51.067477 
L 383.93845 49.313849 
L 384.183103 49.63121 
L 384.917062 44.265669 
L 385.161715 44.405669 
L 385.406368 46.618949 
L 385.651021 45.962709 
L 385.895674 51.600747 
L 386.140327 50.749107 
L 386.38498 52.608374 
L 386.629633 52.552669 
L 386.874286 41.585341 
L 387.118939 38.682647 
L 387.363592 38.371441 
L 387.608245 34.414125 
L 387.852898 40.116659 
L 387.852898 40.116659 
" style="fill:none;stroke:#1f77b4;stroke-linecap:square;stroke-width:1.5;"/>
   </g>
   <g id="line2d_30">
    <path clip-path="url(#peb3a5f9e01)" d="M 63.198352 268.341944 
L 63.687658 271.660495 
L 63.932311 272.888505 
L 64.421617 270.140102 
L 64.66627 271.894401 
L 64.910923 271.894401 
L 65.155576 271.470446 
L 65.400229 270.300912 
L 65.644882 270.607915 
L 65.889535 272.391453 
L 66.134188 271.192681 
L 66.623494 274.335802 
L 66.868147 272.932362 
L 67.1128 274.174991 
L 67.357453 273.765655 
L 67.846759 273.809512 
L 68.091412 274.18961 
L 68.336066 273.911846 
L 68.580719 274.262706 
L 68.825372 274.277325 
L 69.070025 275.783099 
L 69.314678 276.265532 
L 69.559331 275.022903 
L 69.803984 274.467374 
L 70.048637 274.438136 
L 70.29329 274.686662 
L 70.537943 273.780274 
L 70.782596 271.587399 
L 71.027249 271.909021 
L 71.271902 270.023148 
L 71.516555 270.724868 
L 71.761208 270.213197 
L 72.005861 268.137276 
L 72.250514 269.160617 
L 72.495167 268.7659 
L 72.73982 271.792067 
L 72.984473 272.537645 
L 73.229126 272.040593 
L 73.473779 272.479168 
L 73.718432 270.5202 
L 74.207738 269.628431 
L 74.452391 270.271674 
L 74.697044 270.096244 
L 74.941697 271.616637 
L 75.18635 272.362215 
L 75.431003 272.61074 
L 75.675656 273.473271 
L 75.920309 273.31246 
L 76.164962 273.648701 
L 76.654268 273.707178 
L 76.898921 273.122411 
L 77.143574 274.438136 
L 77.388227 274.408898 
L 77.877533 273.67794 
L 78.122186 268.224991 
L 78.856145 271.324254 
L 79.100798 271.178062 
L 79.345451 271.22192 
L 79.590104 271.119586 
L 79.834757 271.236539 
L 80.568716 274.101895 
L 80.813369 272.844647 
L 81.058022 273.15165 
L 81.302675 269.496858 
L 81.547328 269.774622 
L 81.791981 267.742558 
L 82.036634 268.678185 
L 82.281287 268.41504 
L 82.52594 266.631502 
L 82.770593 267.099315 
L 83.015246 264.263197 
L 83.504552 263.649192 
L 83.993858 261.251649 
L 84.238511 262.655089 
L 84.727817 261.675605 
L 84.97247 262.757423 
L 85.461776 261.485556 
L 85.706429 261.280887 
L 85.951082 261.865654 
L 86.195735 260.900789 
L 86.440388 262.99133 
L 86.685041 263.079045 
L 86.929694 261.675605 
L 87.174347 262.11418 
L 87.419 262.187276 
L 87.663653 263.795384 
L 87.908306 262.8159 
L 88.397612 264.102386 
L 88.642265 264.307055 
L 88.886918 263.269094 
L 89.131571 261.251649 
L 89.376224 261.58789 
L 89.86553 259.175728 
L 90.110183 259.702017 
L 90.354836 257.465285 
L 90.844143 255.81332 
L 91.333449 258.181624 
L 91.578102 258.547103 
L 91.822755 258.123148 
L 92.067408 258.824868 
L 92.312061 257.260617 
L 92.556714 257.129044 
L 92.801367 256.748946 
L 93.04602 256.076464 
L 93.290673 254.716882 
L 93.535326 257.172902 
L 93.779979 256.515039 
L 94.024632 256.895138 
L 94.513938 261.090838 
L 95.003244 259.716637 
L 95.247897 260.301403 
L 95.49255 260.447595 
L 95.737203 260.871551 
L 95.981856 262.172656 
L 96.471162 260.520691 
L 96.715815 260.783836 
L 96.960468 259.892067 
L 97.205121 260.579167 
L 97.449774 262.304229 
L 97.694427 262.523516 
L 98.183733 262.143418 
L 98.428386 262.903615 
L 98.917692 261.573271 
L 99.162345 261.660986 
L 99.406998 261.953369 
L 99.651651 262.055703 
L 99.896304 260.403737 
L 100.140957 261.310126 
L 100.38561 261.046981 
L 100.630263 261.500175 
L 100.874916 262.596612 
L 101.119569 262.655089 
L 101.364222 263.239855 
L 101.608875 263.459143 
L 101.853528 263.371428 
L 102.098181 264.38015 
L 102.342834 264.55558 
L 102.587487 264.5702 
L 102.83214 265.447349 
L 103.076793 265.345015 
L 103.321446 264.04391 
L 103.566099 264.789487 
L 104.055405 265.023394 
L 104.544711 262.611231 
L 104.789364 262.143418 
L 105.034017 262.932853 
L 105.27867 263.312951 
L 105.523323 261.880273 
L 105.767976 261.222411 
L 106.257282 263.415285 
L 106.501935 262.830519 
L 106.746588 263.269094 
L 106.991241 264.628676 
L 107.235894 264.5702 
L 107.480547 264.21934 
L 107.7252 264.20472 
L 107.969853 264.014671 
L 108.214506 263.970814 
L 108.459159 262.932853 
L 108.703812 262.742804 
L 108.948465 261.58789 
L 109.193118 262.084941 
L 109.437771 259.83359 
L 110.17173 262.874376 
L 110.416383 262.538136 
L 110.661036 262.655089 
L 110.905689 263.181379 
L 111.150342 262.976711 
L 111.394995 262.611231 
L 111.884301 263.985433 
L 112.128954 263.810003 
L 112.373607 264.526342 
L 112.61826 264.672534 
L 112.862913 265.403492 
L 113.107566 265.549684 
L 113.35222 266.646121 
L 113.596873 266.953123 
L 113.841526 268.093418 
L 114.086179 266.295261 
L 114.330832 266.587644 
L 115.064791 268.707423 
L 115.309444 268.605089 
L 115.554097 268.137276 
L 115.79875 266.616883 
L 116.288056 267.435556 
L 116.777362 267.640224 
L 117.022015 267.070077 
L 117.511321 266.646121 
L 117.755974 267.245507 
L 118.000627 266.324499 
L 118.24528 267.201649 
L 118.489933 266.733836 
L 118.734586 266.865409 
L 118.979239 266.13445 
L 119.223892 265.812829 
L 119.468545 265.915163 
L 119.713198 266.499929 
L 119.957851 266.339119 
L 120.202504 266.558406 
L 120.447157 266.061354 
L 120.69181 264.935679 
L 120.936463 264.467865 
L 121.181116 264.453246 
L 121.425769 264.307055 
L 121.670422 263.766145 
L 121.915075 263.707669 
L 122.159728 263.225236 
L 122.649034 264.350912 
L 123.13834 263.985433 
L 123.382993 263.429905 
L 123.627646 251.95386 
L 123.872299 252.465531 
L 124.116952 250.389609 
L 124.361605 247.173393 
L 124.606258 248.386784 
L 125.340217 244.892803 
L 125.58487 245.82843 
L 125.829523 245.360616 
L 126.074176 245.843049 
L 126.318829 245.901525 
L 126.563482 246.310862 
L 126.808135 248.065162 
L 127.052788 248.606071 
L 127.297441 248.737643 
L 127.786747 246.910248 
L 128.0314 246.033098 
L 128.276053 246.16467 
L 128.520706 245.82843 
L 128.765359 242.904597 
L 129.010012 241.749682 
L 129.254665 244.234941 
L 129.743971 241.837397 
L 129.988624 241.822778 
L 130.233277 240.974867 
L 130.47793 241.106439 
L 130.722583 239.819953 
L 130.967236 237.93408 
L 131.211889 237.802508 
L 131.456542 238.445751 
L 131.701195 236.340591 
L 132.190501 237.40779 
L 132.435154 240.03924 
L 132.679807 236.296734 
L 132.92446 236.062827 
L 133.169113 234.96639 
L 133.413766 232.758896 
L 133.658419 233.197471 
L 134.147725 229.87892 
L 134.637031 227.276709 
L 134.881684 228.753244 
L 135.126337 228.47548 
L 135.37099 228.680149 
L 135.615643 230.288257 
L 135.860297 227.569092 
L 136.10495 228.329289 
L 136.349603 233.270567 
L 136.594256 233.811476 
L 136.838909 230.478306 
L 137.083562 230.390591 
L 137.328215 229.805824 
L 137.572868 229.820444 
L 138.306827 222.920197 
L 138.55148 223.461107 
L 139.040786 226.311844 
L 139.285439 225.50779 
L 139.530092 226.238748 
L 139.774745 228.753244 
L 140.019398 229.966635 
L 140.264051 230.536783 
L 140.508704 228.797102 
L 140.753357 229.454964 
L 140.99801 231.691697 
L 141.242663 228.943294 
L 141.487316 230.375972 
L 141.731969 232.656562 
L 141.976622 232.700419 
L 142.221275 234.644768 
L 142.465928 234.060001 
L 142.710581 230.975358 
L 142.955234 230.566021 
L 143.199887 230.536783 
L 143.44454 235.185677 
L 143.689193 234.410861 
L 143.933846 234.308527 
L 144.178499 233.91381 
L 144.423152 234.600911 
L 144.667805 236.662213 
L 145.157111 234.220812 
L 145.401764 233.460616 
L 145.646417 233.38752 
L 145.89107 233.869952 
L 146.135723 231.10693 
L 146.625029 232.101033 
L 146.869682 230.785308 
L 147.114335 228.738625 
L 147.358988 229.995874 
L 147.848294 224.235922 
L 148.092947 223.519583 
L 148.582253 220.94661 
L 148.826906 221.706807 
L 149.071559 221.604473 
L 149.316212 217.730394 
L 149.560865 217.45263 
L 149.805518 217.78887 
L 150.294824 223.665775 
L 150.539477 222.291573 
L 150.78413 222.203858 
L 151.028783 222.423146 
L 151.273436 218.563686 
L 151.518089 217.511106 
L 151.762742 217.057912 
L 152.007395 218.534448 
L 152.252048 217.481868 
L 152.496701 220.449559 
L 152.741354 217.774251 
L 152.986007 217.97892 
L 153.23066 218.578305 
L 153.475313 219.879411 
L 153.719966 216.648576 
L 154.209272 219.396979 
L 154.453925 222.583957 
L 154.698578 223.899682 
L 154.943231 221.575234 
L 155.187884 223.92892 
L 155.432537 212.89145 
L 155.67719 210.713194 
L 155.921843 212.306683 
L 156.166496 210.450049 
L 156.411149 211.268723 
L 156.655802 211.31258 
L 156.900455 208.154841 
L 157.145108 209.280516 
L 157.389761 207.380025 
L 157.634414 207.964791 
L 157.879067 203.754472 
L 158.12372 204.105332 
L 158.368374 203.798329 
L 158.613027 202.687273 
L 158.85768 200.392064 
L 159.102333 201.912457 
L 159.346986 198.71086 
L 159.836292 200.932973 
L 160.325598 202.102506 
L 160.570251 203.637518 
L 160.814904 201.605454 
L 161.059557 197.555946 
L 161.548863 200.143538 
L 161.793516 196.883464 
L 162.038169 199.704963 
L 162.282822 198.564668 
L 162.527475 201.561597 
L 162.772128 203.184324 
L 163.016781 201.693169 
L 163.261434 201.035307 
L 163.75074 204.280762 
L 163.995393 203.886044 
L 164.240046 208.476462 
L 164.484699 207.321548 
L 164.729352 213.914792 
L 164.974005 213.052261 
L 165.218658 214.455701 
L 165.463311 214.11946 
L 165.707964 210.640099 
L 165.952617 210.493907 
L 166.441923 219.221549 
L 166.686576 218.929165 
L 166.931229 217.116389 
L 167.175882 210.947101 
L 167.420535 215.69833 
L 167.665188 216.619337 
L 168.399147 214.879657 
L 168.6438 216.019951 
L 169.133106 210.040713 
L 169.377759 212.482113 
L 169.622412 213.198453 
L 169.867065 217.818109 
L 170.111718 220.113318 
L 170.601024 214.791942 
L 170.845677 212.789116 
L 171.09033 213.797838 
L 171.334983 212.686782 
L 171.579636 216.619337 
L 172.068942 219.206929 
L 172.313595 218.50521 
L 172.558248 214.718846 
L 172.802901 214.718846 
L 173.047554 215.595996 
L 173.292207 217.511106 
L 173.53686 217.364915 
L 173.781513 215.625234 
L 174.026166 216.57548 
L 174.270819 213.753981 
L 174.515472 213.710123 
L 174.760125 212.496733 
L 175.004778 209.38285 
L 175.249431 209.338993 
L 175.494084 208.87118 
L 175.738737 209.645995 
L 176.228043 210.274619 
L 176.472696 209.587519 
L 176.717349 209.806806 
L 176.962002 210.815529 
L 177.206655 210.26 
L 177.451308 206.035062 
L 177.695961 206.020442 
L 177.940614 208.198698 
L 178.185267 207.891696 
L 178.42992 208.34489 
L 178.674573 208.037887 
L 178.919226 206.283587 
L 179.163879 208.125602 
L 179.408532 207.891696 
L 179.653185 206.619828 
L 179.897838 206.108157 
L 180.142491 203.593661 
L 180.387144 204.046855 
L 180.631798 203.359754 
L 180.876451 203.812948 
L 181.121104 202.687273 
L 181.365757 205.040958 
L 181.61041 205.274865 
L 181.855063 206.736781 
L 182.099716 210.43543 
L 182.344369 207.204595 
L 182.589022 207.350786 
L 183.078328 202.921179 
L 183.322981 203.988378 
L 183.567634 203.272039 
L 183.812287 205.099435 
L 184.05694 202.160983 
L 184.301593 200.728305 
L 184.546246 200.918354 
L 184.790899 197.965282 
L 185.035552 192.57081 
L 185.280205 192.263808 
L 185.524858 192.658525 
L 185.769511 194.427444 
L 186.014164 193.009385 
L 186.258817 195.977076 
L 186.50347 196.401032 
L 186.748123 194.719828 
L 186.992776 195.918599 
L 187.237429 196.240221 
L 187.482082 195.216879 
L 187.726735 195.37769 
L 187.971388 194.822162 
L 188.216041 195.713931 
L 188.705347 193.564913 
L 188.95 194.544398 
L 189.439306 192.117616 
L 189.683959 192.819336 
L 189.928612 193.170196 
L 190.173265 193.170196 
L 190.417918 192.512334 
L 190.662571 191.138132 
L 191.151877 194.208157 
L 191.39653 192.804717 
L 191.641183 190.085552 
L 191.885836 191.328181 
L 192.130489 191.152751 
L 192.375142 189.237641 
L 192.619795 188.316633 
L 192.864448 190.100171 
L 193.353754 188.272776 
L 193.598407 188.916019 
L 193.84306 193.155577 
L 194.087713 190.962702 
L 194.332366 190.451031 
L 194.577019 189.617739 
L 194.821672 188.287395 
L 195.066325 189.910122 
L 195.310978 187.731867 
L 195.555631 187.381007 
L 195.800284 189.296117 
L 196.044937 187.000908 
L 196.28959 186.693906 
L 196.534243 186.635429 
L 196.778896 190.275601 
L 197.268202 188.974496 
L 197.512855 188.799066 
L 197.757508 190.6557 
L 198.002161 188.857542 
L 198.246814 191.211228 
L 198.491467 195.596977 
L 198.73612 195.480024 
L 198.980773 194.602874 
L 199.225426 195.158403 
L 199.470079 196.006314 
L 199.714732 191.152751 
L 199.959385 189.690835 
L 200.204038 187.1471 
L 200.448691 187.614913 
L 200.693344 185.173513 
L 200.937997 184.252505 
L 201.18265 184.822653 
L 201.427303 184.106314 
L 201.671956 191.284324 
L 201.916609 193.842678 
L 202.161262 192.556191 
L 202.405915 194.178918 
L 202.650568 191.430515 
L 202.895221 192.790098 
L 203.384528 191.664422 
L 203.873834 193.111719 
L 204.118487 192.950909 
L 204.36314 193.638009 
L 204.607793 192.717002 
L 204.852446 193.652628 
L 205.097099 193.506437 
L 205.341752 194.982973 
L 206.075711 193.988869 
L 206.565017 188.711351 
L 206.80967 188.594397 
L 207.054323 192.39538 
L 207.298976 191.86909 
L 207.543629 192.717002 
L 207.788282 192.190712 
L 208.032935 190.553365 
L 208.277588 190.319459 
L 208.522241 189.851645 
L 208.766894 190.81651 
L 209.011547 188.55054 
L 209.2562 188.404348 
L 209.500853 189.632358 
L 209.745506 192.994766 
L 209.990159 190.918845 
L 210.479465 185.407419 
L 210.724118 183.11221 
L 210.968771 184.34022 
L 211.213424 184.106314 
L 211.458077 184.091694 
L 211.947383 186.372284 
L 212.192036 188.126584 
L 212.436689 187.49796 
L 212.925995 190.860368 
L 213.170648 190.860368 
L 213.415301 187.907297 
L 213.659954 188.535921 
L 213.904607 190.027075 
L 214.393913 190.670319 
L 214.638566 193.930393 
L 215.127872 190.728795 
L 215.372525 189.997837 
L 215.617178 188.667493 
L 215.861831 188.404348 
L 216.106484 188.886781 
L 216.351137 191.401277 
L 216.59579 190.728795 
L 216.840443 188.155822 
L 217.085096 191.211228 
L 217.329749 192.556191 
L 217.819055 191.620565 
L 218.063708 191.649803 
L 218.308361 193.316388 
L 218.553014 193.360245 
L 218.797667 192.263808 
L 219.04232 190.334078 
L 219.286973 190.743415 
L 219.531626 191.459754 
L 219.776279 191.664422 
L 220.020932 190.041695 
L 220.265585 186.079901 
L 220.510238 185.3928 
L 220.754891 186.927812 
L 220.999544 187.49796 
L 221.48885 184.632603 
L 221.733503 186.737763 
L 221.978156 185.597468 
L 222.222809 185.816756 
L 222.467462 183.930884 
L 222.712115 183.46307 
L 222.956768 185.231989 
L 223.201421 186.050663 
L 223.446074 188.813685 
L 223.690727 188.784446 
L 223.93538 186.79624 
L 224.180033 188.082726 
L 224.424686 188.053488 
L 224.913992 183.901645 
L 225.403298 179.676706 
L 225.892605 177.469212 
L 226.137258 180.963193 
L 226.381911 180.83162 
L 226.626564 180.407665 
L 226.871217 180.568476 
L 227.360523 182.790589 
L 227.605176 182.951399 
L 227.849829 181.664913 
L 228.828441 182.24968 
L 229.073094 180.83162 
L 229.317747 180.086043 
L 229.5624 181.284815 
L 229.807053 181.854962 
L 230.051706 184.091694 
L 230.296359 180.714667 
L 230.541012 179.939851 
L 230.785665 178.463316 
L 231.030318 181.70877 
L 231.274971 182.995257 
L 231.519624 182.439729 
L 231.764277 184.237886 
L 232.00893 184.544888 
L 232.253583 187.030147 
L 232.498236 186.708525 
L 232.742889 186.97167 
L 232.987542 188.799066 
L 233.476848 187.541817 
L 233.721501 187.410245 
L 234.210807 188.945257 
L 234.45546 187.512579 
L 234.700113 183.229164 
L 234.944766 184.617984 
L 235.189419 183.945503 
L 235.434072 184.310982 
L 235.923378 184.530269 
L 236.168031 184.442554 
L 236.412684 186.211473 
L 236.657337 184.427935 
L 236.90199 185.027321 
L 237.146643 186.416142 
L 237.391296 184.808033 
L 237.635949 184.588746 
L 237.880602 181.664913 
L 238.125255 182.23506 
L 238.369908 182.103488 
L 238.614561 184.252505 
L 238.859214 184.252505 
L 239.103867 182.07425 
L 239.593173 182.995257 
L 239.837826 184.194029 
L 240.082479 183.682358 
L 240.327132 182.615159 
L 240.571785 180.977812 
L 240.816438 181.562579 
L 241.550397 172.279409 
L 241.79505 173.565895 
L 242.039703 173.522038 
L 242.284356 176.752873 
L 242.529009 176.796731 
L 242.773662 175.130146 
L 243.262968 174.194519 
L 243.507621 174.676952 
L 243.752274 176.972161 
L 243.996927 176.63592 
L 244.486233 170.466632 
L 244.730886 171.080637 
L 244.975539 170.963684 
L 245.220192 169.370195 
L 245.709498 159.049064 
L 245.954151 158.347344 
L 246.443457 162.659998 
L 246.68811 160.452504 
L 246.932763 164.516632 
L 247.177416 162.879285 
L 247.422069 160.394027 
L 247.911375 164.750539 
L 248.156029 164.560489 
L 248.400682 164.677443 
L 248.645335 161.198081 
L 249.134641 164.326583 
L 249.379294 164.54587 
L 249.623947 165.320686 
L 249.8686 164.487394 
L 250.113253 165.59845 
L 250.357906 164.151153 
L 250.602559 164.867492 
L 250.847212 163.054715 
L 251.091865 162.850047 
L 251.825824 182.176584 
L 252.070477 180.84624 
L 252.559783 171.007541 
L 252.804436 169.136288 
L 253.293742 174.662333 
L 253.538395 170.773635 
L 253.783048 173.31737 
L 254.027701 173.156559 
L 254.76166 167.718229 
L 255.006313 167.615895 
L 255.250966 167.235797 
L 256.229578 164.180391 
L 256.474231 162.499187 
L 256.718884 166.285551 
L 256.963537 164.809015 
L 257.20819 164.165772 
L 257.452843 166.563315 
L 257.942149 175.481006 
L 258.186802 170.759016 
L 258.676108 167.586657 
L 258.920761 164.750539 
L 259.165414 166.519458 
L 259.410067 167.104224 
L 259.65472 167.00189 
L 260.144026 164.385059 
L 260.633332 164.662824 
L 261.122638 159.589973 
L 261.367291 158.230391 
L 261.611944 160.379408 
L 261.856597 160.218597 
L 262.590556 150.482233 
L 262.835209 150.584567 
L 263.324515 148.859506 
L 263.569168 153.113683 
L 263.813821 151.154715 
L 264.058474 152.221914 
L 264.303127 150.233707 
L 264.54778 143.18727 
L 264.792433 145.62867 
L 265.037086 146.50582 
L 265.526392 142.821791 
L 265.771045 144.269088 
L 266.015698 150.219088 
L 266.260351 150.087516 
L 266.505004 148.494027 
L 266.749657 144.634567 
L 266.99431 146.842061 
L 267.238963 145.29243 
L 267.483616 145.833339 
L 267.728269 147.602258 
L 267.972922 148.08469 
L 268.217575 148.026213 
L 268.462228 149.795132 
L 268.706881 145.584813 
L 268.951534 147.119825 
L 269.196187 149.590464 
L 269.44084 146.959014 
L 269.685493 147.792307 
L 269.930146 146.50582 
L 270.174799 149.268843 
L 270.419452 148.070071 
L 270.664106 152.894396 
L 270.908759 149.181128 
L 271.153412 149.341938 
L 271.398065 146.067245 
L 271.642718 146.900538 
L 271.887371 150.087516 
L 272.376677 147.938498 
L 272.62133 149.224985 
L 272.865983 148.654838 
L 273.355289 145.380145 
L 273.599942 146.900538 
L 273.844595 149.181128 
L 274.089248 152.748204 
L 274.333901 152.002626 
L 274.578554 151.651766 
L 274.823207 159.034445 
L 275.06786 159.896976 
L 275.312513 159.633831 
L 275.557166 156.914666 
L 275.801819 162.659998 
L 276.046472 158.376583 
L 276.291125 163.347099 
L 276.535778 162.923143 
L 276.780431 164.253487 
L 277.025084 164.531251 
L 277.269737 159.005207 
L 277.51439 160.364789 
L 277.759043 159.882357 
L 278.003696 164.107295 
L 278.248349 142.675599 
L 278.737655 133.933338 
L 278.982308 134.635058 
L 279.471614 140.658154 
L 279.96092 156.359138 
L 280.205573 156.66614 
L 280.694879 153.201398 
L 280.939532 153.055206 
L 281.184185 153.639973 
L 281.428838 148.391693 
L 281.673491 150.920808 
L 281.918144 149.3127 
L 282.162797 145.526336 
L 282.40745 148.011594 
L 282.896756 144.195992 
L 283.141409 144.41528 
L 283.386062 144.371422 
L 283.630715 145.877196 
L 283.875368 141.637638 
L 284.120021 141.447589 
L 284.364674 141.988498 
L 284.609327 143.728179 
L 284.85398 147.616877 
L 285.098633 147.324494 
L 285.343286 145.014665 
L 285.587939 145.29243 
L 285.832592 142.237024 
L 286.077245 141.535304 
L 286.321898 140.395009 
L 286.566551 138.187515 
L 286.811204 139.883338 
L 288.279122 135.980021 
L 288.523775 132.398326 
L 288.768428 134.503486 
L 289.013081 135.380635 
L 289.257734 132.515279 
L 289.502387 137.646606 
L 289.74704 138.129039 
L 289.991693 135.950783 
L 290.236346 136.053117 
L 290.480999 140.453486 
L 290.725652 142.851029 
L 290.970305 140.482724 
L 291.214958 140.628916 
L 291.459611 140.146483 
L 291.704264 141.900783 
L 291.948917 140.716631 
L 292.19357 138.026704 
L 292.438223 137.836655 
L 292.682876 136.3455 
L 292.92753 140.55582 
L 293.172183 141.228302 
L 293.416836 143.18727 
L 293.661489 142.997221 
L 293.906142 131.535795 
L 294.395448 128.845869 
L 294.640101 130.512453 
L 294.884754 129.591446 
L 295.129407 129.956925 
L 295.37406 127.500905 
L 295.618713 127.866384 
L 295.863366 126.02437 
L 296.108019 127.457048 
L 296.352672 126.345991 
L 296.597325 127.033092 
L 297.086631 130.629407 
L 297.331284 130.190832 
L 297.575937 131.418842 
L 297.82059 130.629407 
L 298.065243 132.646852 
L 298.309896 130.117736 
L 298.554549 129.839972 
L 298.799202 127.530144 
L 299.043855 127.661716 
L 299.288508 128.495009 
L 299.533161 128.538866 
L 299.777814 128.319579 
L 300.022467 128.99206 
L 300.26712 128.524247 
L 300.511773 130.030021 
L 300.756426 129.109014 
L 301.001079 128.860488 
L 301.490385 135.599923 
L 301.735038 134.152626 
L 302.224344 134.95668 
L 302.468997 136.959505 
L 302.71365 136.447835 
L 302.958303 134.971299 
L 303.202956 135.6584 
L 303.447609 133.947957 
L 303.936915 142.880267 
L 304.181568 137.427319 
L 304.426221 135.29292 
L 304.670874 135.11749 
L 304.915527 135.249063 
L 305.16018 135.526827 
L 305.404833 131.579652 
L 305.649486 132.822282 
L 305.894139 130.790218 
L 306.138792 129.86921 
L 306.383445 129.781495 
L 306.628098 131.462699 
L 306.872751 130.717122 
L 307.117404 131.345746 
L 307.362057 127.676335 
L 307.851363 123.948448 
L 308.096016 125.863559 
L 308.340669 125.293411 
L 308.585322 124.372404 
L 308.829975 124.97179 
L 309.319281 119.445745 
L 309.563934 120.995377 
L 309.808587 120.454468 
L 310.05324 122.238006 
L 310.297893 123.085917 
L 310.542546 120.381372 
L 310.787199 119.226458 
L 311.031852 119.065647 
L 311.521158 119.621175 
L 312.010464 119.621175 
L 312.49977 121.931003 
L 312.744423 120.366753 
L 313.233729 121.550905 
L 313.478382 120.688374 
L 313.723035 120.366753 
L 313.967688 121.667858 
L 314.212341 121.068473 
L 314.456994 119.504222 
L 314.701647 117.194394 
L 314.9463 118.217735 
L 315.190953 117.808399 
L 315.435607 117.735303 
L 315.68026 117.238251 
L 315.924913 112.53088 
L 316.169566 110.60115 
L 316.414219 111.741445 
L 316.658872 116.375721 
L 316.903525 114.051273 
L 317.148178 116.21491 
L 317.882137 113.495745 
L 318.12679 114.10975 
L 318.371443 114.124369 
L 318.616096 112.223878 
L 318.860749 112.019209 
L 319.105402 115.118472 
L 319.350055 116.068718 
L 319.594708 114.051273 
L 319.839361 113.261838 
L 320.084014 114.928423 
L 320.328667 114.665278 
L 320.57332 113.93432 
L 320.817973 114.782231 
L 321.551932 113.612698 
L 321.796585 111.785303 
L 322.041238 113.773509 
L 322.285891 113.524983 
L 322.530544 115.323141 
L 322.775197 115.235426 
L 323.01985 115.732477 
L 323.264503 114.226703 
L 323.509156 111.975352 
L 323.753809 112.136163 
L 324.243115 107.341076 
L 324.732421 110.615769 
L 324.977074 112.589357 
L 325.221727 110.25029 
L 325.46638 110.688865 
L 325.711033 112.867121 
L 325.955686 116.273386 
L 326.200339 126.755328 
L 326.444992 125.65889 
L 326.689645 123.612207 
L 326.934298 120.58604 
L 327.178951 122.106433 
L 327.91291 133.947957 
L 328.157563 130.848694 
L 328.402216 132.105942 
L 328.646869 129.986163 
L 328.891522 131.111839 
L 329.136175 124.167736 
L 329.380828 124.606311 
L 329.870134 126.1998 
L 330.114787 126.155942 
L 330.35944 125.483461 
L 330.848746 133.918719 
L 331.093399 133.480144 
L 331.338052 130.512453 
L 331.582705 130.687883 
L 331.827358 129.752257 
L 332.316664 127.223141 
L 332.561317 130.015402 
L 332.80597 126.302134 
L 333.050623 126.448325 
L 333.295276 125.922035 
L 333.784582 127.866384 
L 334.273888 128.158768 
L 334.518541 130.556311 
L 334.763194 130.74636 
L 335.007847 129.664542 
L 335.2525 131.258031 
L 335.497153 132.091323 
L 335.741806 133.991815 
L 336.475765 125.775844 
L 336.720418 121.770193 
L 336.965071 119.591937 
L 337.209724 120.395991 
L 337.454377 117.852256 
L 337.69903 117.07744 
L 337.943684 114.562944 
L 338.188337 115.250045 
L 338.43299 115.176949 
L 338.922296 116.463435 
L 339.166949 113.700413 
L 339.411602 113.05717 
L 339.900908 108.072035 
L 340.145561 108.949185 
L 340.634867 111.668349 
L 340.87952 107.414172 
L 341.124173 110.908153 
L 341.368826 110.703484 
L 341.613479 109.124614 
L 341.858132 109.446236 
L 342.102785 105.996113 
L 342.347438 106.083828 
L 342.592091 106.010732 
L 343.081397 106.507784 
L 343.32605 107.10717 
L 343.570703 106.522403 
L 343.815356 106.975597 
L 344.060009 106.697833 
L 344.304662 103.189233 
L 344.549315 104.30029 
L 344.793968 104.183337 
L 345.038621 102.765278 
L 345.283274 104.037145 
L 345.527927 101.288742 
L 345.77258 102.253607 
L 346.261886 101.288742 
L 346.506539 101.464172 
L 346.995845 100.08997 
L 347.485151 98.101764 
L 347.729804 98.5111 
L 348.21911 97.531616 
L 348.463763 97.750904 
L 348.708416 97.604712 
L 348.953069 99.695253 
L 349.197722 98.116383 
L 349.442375 98.204098 
L 349.687028 97.019946 
L 349.931681 97.049184 
L 350.420987 93.642918 
L 350.910293 94.520068 
L 351.154946 94.183828 
L 351.399599 94.987882 
L 351.644252 94.812452 
L 352.133558 96.376702 
L 352.378211 95.996604 
L 352.622864 97.633951 
L 353.11217 98.408766 
L 353.356823 95.441076 
L 353.601476 96.113557 
L 354.090782 91.961714 
L 354.335435 92.137144 
L 354.824741 88.029159 
L 355.069394 87.926825 
L 355.314047 86.26024 
L 355.803353 79.301517 
L 356.048006 78.833704 
L 356.781965 82.546972 
L 357.026618 81.3482 
L 357.271271 82.196112 
L 357.760577 82.839355 
L 358.00523 82.415399 
L 358.249883 82.620068 
L 358.494536 83.219454 
L 358.739189 90.426702 
L 358.983842 86.318717 
L 359.228495 85.73395 
L 359.473148 85.470805 
L 359.717801 85.719331 
L 360.207107 80.032475 
L 360.696414 79.418471 
L 360.941067 80.763434 
L 361.18572 80.6611 
L 361.430373 77.620313 
L 361.675026 77.591075 
L 361.919679 78.789846 
L 362.164332 78.336652 
L 362.408985 76.012205 
L 362.653638 83.482598 
L 362.898291 85.178422 
L 363.142944 81.903729 
L 363.63225 83.190215 
L 363.876903 81.962205 
L 364.121556 78.702131 
L 364.366209 79.60852 
L 364.610862 77.181738 
L 364.855515 77.927316 
L 365.100168 75.485915 
L 365.344821 77.649552 
L 365.589474 82.04992 
L 365.834127 78.161222 
L 366.07878 81.377439 
L 366.323433 81.465154 
L 366.568086 85.193041 
L 366.812739 82.40078 
L 367.057392 84.622893 
L 367.546698 77.781124 
L 367.791351 75.193532 
L 368.036004 69.886775 
L 368.280657 69.360485 
L 368.52531 68.322524 
L 368.769963 68.673384 
L 369.014616 64.097585 
L 369.259269 62.226332 
L 369.503922 61.656185 
L 369.748575 61.802376 
L 369.993228 59.507167 
L 370.237881 60.559747 
L 370.482534 60.077315 
L 370.727187 53.016258 
L 370.97184 50.077806 
L 371.216493 54.755939 
L 371.461146 53.86417 
L 371.950452 55.720804 
L 372.195105 54.215029 
L 372.439758 50.764906 
L 372.684411 51.861344 
L 372.929064 51.93444 
L 373.173717 57.460484 
L 373.41837 56.466381 
L 373.663023 52.563064 
L 373.907676 52.197585 
L 374.152329 53.659501 
L 374.396982 58.176823 
L 374.886288 56.904956 
L 375.130941 54.185791 
L 375.620247 56.963433 
L 375.8649 59.039354 
L 376.354206 56.510238 
L 376.843512 50.779526 
L 377.088165 50.70643 
L 377.332818 52.606921 
L 377.822124 48.966749 
L 378.066777 52.27068 
L 378.31143 48.528174 
L 378.556083 49.332228 
L 378.800736 49.200656 
L 379.045389 52.256061 
L 379.290042 51.261958 
L 379.534695 53.644882 
L 379.779348 49.975472 
L 380.024001 50.487142 
L 380.268654 52.036774 
L 380.513307 52.870066 
L 380.75796 64.082966 
L 381.002613 62.123998 
L 381.247266 57.051148 
L 381.491919 55.516135 
L 381.736572 52.387634 
L 381.981225 54.434317 
L 382.225878 53.717978 
L 382.470531 55.969329 
L 382.715184 51.846725 
L 382.959838 50.399427 
L 383.204491 50.00471 
L 383.449144 51.335054 
L 383.693797 49.65385 
L 383.93845 49.931614 
L 384.672409 44.727191 
L 384.917062 44.844145 
L 385.161715 46.993162 
L 385.406368 46.379157 
L 385.651021 51.802867 
L 385.895674 51.028051 
L 386.140327 52.782351 
L 386.38498 52.738494 
L 386.629633 42.139599 
L 386.874286 39.230385 
L 387.118939 38.952621 
L 387.363592 35.151638 
L 387.608245 40.619206 
L 387.852898 40.619206 
L 387.852898 40.619206 
" style="fill:none;stroke:#ff7f0e;stroke-linecap:square;stroke-width:1.5;"/>
   </g>
   <g id="patch_3">
    <path d="M 46.965625 288.430125 
L 46.965625 22.318125 
" style="fill:none;stroke:#000000;stroke-linecap:square;stroke-linejoin:miter;stroke-width:0.8;"/>
   </g>
   <g id="patch_4">
    <path d="M 404.085625 288.430125 
L 404.085625 22.318125 
" style="fill:none;stroke:#000000;stroke-linecap:square;stroke-linejoin:miter;stroke-width:0.8;"/>
   </g>
   <g id="patch_5">
    <path d="M 46.965625 288.430125 
L 404.085625 288.430125 
" style="fill:none;stroke:#000000;stroke-linecap:square;stroke-linejoin:miter;stroke-width:0.8;"/>
   </g>
   <g id="patch_6">
    <path d="M 46.965625 22.318125 
L 404.085625 22.318125 
" style="fill:none;stroke:#000000;stroke-linecap:square;stroke-linejoin:miter;stroke-width:0.8;"/>
   </g>
   <g id="text_17">
    <!-- Training: FB -->
    <defs>
     <path d="M -0.296875 72.90625 
L 61.375 72.90625 
L 61.375 64.59375 
L 35.5 64.59375 
L 35.5 0 
L 25.59375 0 
L 25.59375 64.59375 
L -0.296875 64.59375 
z
" id="DejaVuSans-84"/>
     <path d="M 54.890625 33.015625 
L 54.890625 0 
L 45.90625 0 
L 45.90625 32.71875 
Q 45.90625 40.484375 42.875 44.328125 
Q 39.84375 48.1875 33.796875 48.1875 
Q 26.515625 48.1875 22.3125 43.546875 
Q 18.109375 38.921875 18.109375 30.90625 
L 18.109375 0 
L 9.078125 0 
L 9.078125 54.6875 
L 18.109375 54.6875 
L 18.109375 46.1875 
Q 21.34375 51.125 25.703125 53.5625 
Q 30.078125 56 35.796875 56 
Q 45.21875 56 50.046875 50.171875 
Q 54.890625 44.34375 54.890625 33.015625 
z
" id="DejaVuSans-110"/>
     <path d="M 45.40625 27.984375 
Q 45.40625 37.75 41.375 43.109375 
Q 37.359375 48.484375 30.078125 48.484375 
Q 22.859375 48.484375 18.828125 43.109375 
Q 14.796875 37.75 14.796875 27.984375 
Q 14.796875 18.265625 18.828125 12.890625 
Q 22.859375 7.515625 30.078125 7.515625 
Q 37.359375 7.515625 41.375 12.890625 
Q 45.40625 18.265625 45.40625 27.984375 
z
M 54.390625 6.78125 
Q 54.390625 -7.171875 48.1875 -13.984375 
Q 42 -20.796875 29.203125 -20.796875 
Q 24.46875 -20.796875 20.265625 -20.09375 
Q 16.0625 -19.390625 12.109375 -17.921875 
L 12.109375 -9.1875 
Q 16.0625 -11.328125 19.921875 -12.34375 
Q 23.78125 -13.375 27.78125 -13.375 
Q 36.625 -13.375 41.015625 -8.765625 
Q 45.40625 -4.15625 45.40625 5.171875 
L 45.40625 9.625 
Q 42.625 4.78125 38.28125 2.390625 
Q 33.9375 0 27.875 0 
Q 17.828125 0 11.671875 7.65625 
Q 5.515625 15.328125 5.515625 27.984375 
Q 5.515625 40.671875 11.671875 48.328125 
Q 17.828125 56 27.875 56 
Q 33.9375 56 38.28125 53.609375 
Q 42.625 51.21875 45.40625 46.390625 
L 45.40625 54.6875 
L 54.390625 54.6875 
z
" id="DejaVuSans-103"/>
     <path d="M 11.71875 12.40625 
L 22.015625 12.40625 
L 22.015625 0 
L 11.71875 0 
z
M 11.71875 51.703125 
L 22.015625 51.703125 
L 22.015625 39.3125 
L 11.71875 39.3125 
z
" id="DejaVuSans-58"/>
     <path d="M 9.8125 72.90625 
L 51.703125 72.90625 
L 51.703125 64.59375 
L 19.671875 64.59375 
L 19.671875 43.109375 
L 48.578125 43.109375 
L 48.578125 34.8125 
L 19.671875 34.8125 
L 19.671875 0 
L 9.8125 0 
z
" id="DejaVuSans-70"/>
     <path d="M 19.671875 34.8125 
L 19.671875 8.109375 
L 35.5 8.109375 
Q 43.453125 8.109375 47.28125 11.40625 
Q 51.125 14.703125 51.125 21.484375 
Q 51.125 28.328125 47.28125 31.5625 
Q 43.453125 34.8125 35.5 34.8125 
z
M 19.671875 64.796875 
L 19.671875 42.828125 
L 34.28125 42.828125 
Q 41.5 42.828125 45.03125 45.53125 
Q 48.578125 48.25 48.578125 53.8125 
Q 48.578125 59.328125 45.03125 62.0625 
Q 41.5 64.796875 34.28125 64.796875 
z
M 9.8125 72.90625 
L 35.015625 72.90625 
Q 46.296875 72.90625 52.390625 68.21875 
Q 58.5 63.53125 58.5 54.890625 
Q 58.5 48.1875 55.375 44.234375 
Q 52.25 40.28125 46.1875 39.3125 
Q 53.46875 37.75 57.5 32.78125 
Q 61.53125 27.828125 61.53125 20.40625 
Q 61.53125 10.640625 54.890625 5.3125 
Q 48.25 0 35.984375 0 
L 9.8125 0 
z
" id="DejaVuSans-66"/>
    </defs>
    <g transform="translate(190.359063 16.318125)scale(0.12 -0.12)">
     <use xlink:href="#DejaVuSans-84"/>
     <use x="46.333984" xlink:href="#DejaVuSans-114"/>
     <use x="87.447266" xlink:href="#DejaVuSans-97"/>
     <use x="148.726562" xlink:href="#DejaVuSans-105"/>
     <use x="176.509766" xlink:href="#DejaVuSans-110"/>
     <use x="239.888672" xlink:href="#DejaVuSans-105"/>
     <use x="267.671875" xlink:href="#DejaVuSans-110"/>
     <use x="331.050781" xlink:href="#DejaVuSans-103"/>
     <use x="394.527344" xlink:href="#DejaVuSans-58"/>
     <use x="428.21875" xlink:href="#DejaVuSans-32"/>
     <use x="460.005859" xlink:href="#DejaVuSans-70"/>
     <use x="517.525391" xlink:href="#DejaVuSans-66"/>
    </g>
   </g>
   <g id="legend_1">
    <g id="patch_7">
     <path d="M 53.965625 59.674375 
L 137.69375 59.674375 
Q 139.69375 59.674375 139.69375 57.674375 
L 139.69375 29.318125 
Q 139.69375 27.318125 137.69375 27.318125 
L 53.965625 27.318125 
Q 51.965625 27.318125 51.965625 29.318125 
L 51.965625 57.674375 
Q 51.965625 59.674375 53.965625 59.674375 
z
" style="fill:#ffffff;opacity:0.8;stroke:#cccccc;stroke-linejoin:miter;"/>
    </g>
    <g id="line2d_31">
     <path d="M 55.965625 35.416562 
L 75.965625 35.416562 
" style="fill:none;stroke:#1f77b4;stroke-linecap:square;stroke-width:1.5;"/>
    </g>
    <g id="line2d_32"/>
    <g id="text_18">
     <!-- Predicted -->
     <defs>
      <path d="M 45.40625 46.390625 
L 45.40625 75.984375 
L 54.390625 75.984375 
L 54.390625 0 
L 45.40625 0 
L 45.40625 8.203125 
Q 42.578125 3.328125 38.25 0.953125 
Q 33.9375 -1.421875 27.875 -1.421875 
Q 17.96875 -1.421875 11.734375 6.484375 
Q 5.515625 14.40625 5.515625 27.296875 
Q 5.515625 40.1875 11.734375 48.09375 
Q 17.96875 56 27.875 56 
Q 33.9375 56 38.25 53.625 
Q 42.578125 51.265625 45.40625 46.390625 
z
M 14.796875 27.296875 
Q 14.796875 17.390625 18.875 11.75 
Q 22.953125 6.109375 30.078125 6.109375 
Q 37.203125 6.109375 41.296875 11.75 
Q 45.40625 17.390625 45.40625 27.296875 
Q 45.40625 37.203125 41.296875 42.84375 
Q 37.203125 48.484375 30.078125 48.484375 
Q 22.953125 48.484375 18.875 42.84375 
Q 14.796875 37.203125 14.796875 27.296875 
z
" id="DejaVuSans-100"/>
      <path d="M 18.3125 70.21875 
L 18.3125 54.6875 
L 36.8125 54.6875 
L 36.8125 47.703125 
L 18.3125 47.703125 
L 18.3125 18.015625 
Q 18.3125 11.328125 20.140625 9.421875 
Q 21.96875 7.515625 27.59375 7.515625 
L 36.8125 7.515625 
L 36.8125 0 
L 27.59375 0 
Q 17.1875 0 13.234375 3.875 
Q 9.28125 7.765625 9.28125 18.015625 
L 9.28125 47.703125 
L 2.6875 47.703125 
L 2.6875 54.6875 
L 9.28125 54.6875 
L 9.28125 70.21875 
z
" id="DejaVuSans-116"/>
     </defs>
     <g transform="translate(83.965625 38.916562)scale(0.1 -0.1)">
      <use xlink:href="#DejaVuSans-80"/>
      <use x="58.552734" xlink:href="#DejaVuSans-114"/>
      <use x="97.416016" xlink:href="#DejaVuSans-101"/>
      <use x="158.939453" xlink:href="#DejaVuSans-100"/>
      <use x="222.416016" xlink:href="#DejaVuSans-105"/>
      <use x="250.199219" xlink:href="#DejaVuSans-99"/>
      <use x="305.179688" xlink:href="#DejaVuSans-116"/>
      <use x="344.388672" xlink:href="#DejaVuSans-101"/>
      <use x="405.912109" xlink:href="#DejaVuSans-100"/>
     </g>
    </g>
    <g id="line2d_33">
     <path d="M 55.965625 50.094687 
L 75.965625 50.094687 
" style="fill:none;stroke:#ff7f0e;stroke-linecap:square;stroke-width:1.5;"/>
    </g>
    <g id="line2d_34"/>
    <g id="text_19">
     <!-- True value -->
     <defs>
      <path d="M 8.5 21.578125 
L 8.5 54.6875 
L 17.484375 54.6875 
L 17.484375 21.921875 
Q 17.484375 14.15625 20.5 10.265625 
Q 23.53125 6.390625 29.59375 6.390625 
Q 36.859375 6.390625 41.078125 11.03125 
Q 45.3125 15.671875 45.3125 23.6875 
L 45.3125 54.6875 
L 54.296875 54.6875 
L 54.296875 0 
L 45.3125 0 
L 45.3125 8.40625 
Q 42.046875 3.421875 37.71875 1 
Q 33.40625 -1.421875 27.6875 -1.421875 
Q 18.265625 -1.421875 13.375 4.4375 
Q 8.5 10.296875 8.5 21.578125 
z
M 31.109375 56 
z
" id="DejaVuSans-117"/>
      <path d="M 2.984375 54.6875 
L 12.5 54.6875 
L 29.59375 8.796875 
L 46.6875 54.6875 
L 56.203125 54.6875 
L 35.6875 0 
L 23.484375 0 
z
" id="DejaVuSans-118"/>
      <path d="M 9.421875 75.984375 
L 18.40625 75.984375 
L 18.40625 0 
L 9.421875 0 
z
" id="DejaVuSans-108"/>
     </defs>
     <g transform="translate(83.965625 53.594687)scale(0.1 -0.1)">
      <use xlink:href="#DejaVuSans-84"/>
      <use x="46.333984" xlink:href="#DejaVuSans-114"/>
      <use x="87.447266" xlink:href="#DejaVuSans-117"/>
      <use x="150.826172" xlink:href="#DejaVuSans-101"/>
      <use x="212.349609" xlink:href="#DejaVuSans-32"/>
      <use x="244.136719" xlink:href="#DejaVuSans-118"/>
      <use x="303.316406" xlink:href="#DejaVuSans-97"/>
      <use x="364.595703" xlink:href="#DejaVuSans-108"/>
      <use x="392.378906" xlink:href="#DejaVuSans-117"/>
      <use x="455.757812" xlink:href="#DejaVuSans-101"/>
     </g>
    </g>
   </g>
  </g>
 </g>
 <defs>
  <clipPath id="peb3a5f9e01">
   <rect height="266.112" width="357.12" x="46.965625" y="22.318125"/>
  </clipPath>
 </defs>
</svg>
