<?xml version="1.0" encoding="utf-8" standalone="no"?>
<!DOCTYPE svg PUBLIC "-//W3C//DTD SVG 1.1//EN"
  "http://www.w3.org/Graphics/SVG/1.1/DTD/svg11.dtd">
<!-- Created with matplotlib (https://matplotlib.org/) -->
<svg height="325.986375pt" version="1.1" viewBox="0 0 411.285625 325.986375" width="411.285625pt" xmlns="http://www.w3.org/2000/svg" xmlns:xlink="http://www.w3.org/1999/xlink">
 <defs>
  <style type="text/css">
*{stroke-linecap:butt;stroke-linejoin:round;}
  </style>
 </defs>
 <g id="figure_1">
  <g id="patch_1">
   <path d="M 0 325.986375 
L 411.285625 325.986375 
L 411.285625 0 
L 0 0 
z
" style="fill:#ffffff;"/>
  </g>
  <g id="axes_1">
   <g id="patch_2">
    <path d="M 46.965625 288.430125 
L 404.085625 288.430125 
L 404.085625 22.318125 
L 46.965625 22.318125 
z
" style="fill:#ffffff;"/>
   </g>
   <g id="matplotlib.axis_1">
    <g id="xtick_1">
     <g id="line2d_1">
      <path clip-path="url(#pb91c8c3718)" d="M 63.198352 288.430125 
L 63.198352 22.318125 
" style="fill:none;stroke:#b0b0b0;stroke-dasharray:2.96,1.28;stroke-dashoffset:0;stroke-width:0.8;"/>
     </g>
     <g id="line2d_2">
      <defs>
       <path d="M 0 0 
L 0 3.5 
" id="m304e5b6119" style="stroke:#000000;stroke-width:0.8;"/>
      </defs>
      <g>
       <use style="stroke:#000000;stroke-width:0.8;" x="63.198352" xlink:href="#m304e5b6119" y="288.430125"/>
      </g>
     </g>
     <g id="text_1">
      <!-- 0 -->
      <defs>
       <path d="M 31.78125 66.40625 
Q 24.171875 66.40625 20.328125 58.90625 
Q 16.5 51.421875 16.5 36.375 
Q 16.5 21.390625 20.328125 13.890625 
Q 24.171875 6.390625 31.78125 6.390625 
Q 39.453125 6.390625 43.28125 13.890625 
Q 47.125 21.390625 47.125 36.375 
Q 47.125 51.421875 43.28125 58.90625 
Q 39.453125 66.40625 31.78125 66.40625 
z
M 31.78125 74.21875 
Q 44.046875 74.21875 50.515625 64.515625 
Q 56.984375 54.828125 56.984375 36.375 
Q 56.984375 17.96875 50.515625 8.265625 
Q 44.046875 -1.421875 31.78125 -1.421875 
Q 19.53125 -1.421875 13.0625 8.265625 
Q 6.59375 17.96875 6.59375 36.375 
Q 6.59375 54.828125 13.0625 64.515625 
Q 19.53125 74.21875 31.78125 74.21875 
z
" id="DejaVuSans-48"/>
      </defs>
      <g transform="translate(60.017102 303.028562)scale(0.1 -0.1)">
       <use xlink:href="#DejaVuSans-48"/>
      </g>
     </g>
    </g>
    <g id="xtick_2">
     <g id="line2d_3">
      <path clip-path="url(#pb91c8c3718)" d="M 112.128954 288.430125 
L 112.128954 22.318125 
" style="fill:none;stroke:#b0b0b0;stroke-dasharray:2.96,1.28;stroke-dashoffset:0;stroke-width:0.8;"/>
     </g>
     <g id="line2d_4">
      <g>
       <use style="stroke:#000000;stroke-width:0.8;" x="112.128954" xlink:href="#m304e5b6119" y="288.430125"/>
      </g>
     </g>
     <g id="text_2">
      <!-- 200 -->
      <defs>
       <path d="M 19.1875 8.296875 
L 53.609375 8.296875 
L 53.609375 0 
L 7.328125 0 
L 7.328125 8.296875 
Q 12.9375 14.109375 22.625 23.890625 
Q 32.328125 33.6875 34.8125 36.53125 
Q 39.546875 41.84375 41.421875 45.53125 
Q 43.3125 49.21875 43.3125 52.78125 
Q 43.3125 58.59375 39.234375 62.25 
Q 35.15625 65.921875 28.609375 65.921875 
Q 23.96875 65.921875 18.8125 64.3125 
Q 13.671875 62.703125 7.8125 59.421875 
L 7.8125 69.390625 
Q 13.765625 71.78125 18.9375 73 
Q 24.125 74.21875 28.421875 74.21875 
Q 39.75 74.21875 46.484375 68.546875 
Q 53.21875 62.890625 53.21875 53.421875 
Q 53.21875 48.921875 51.53125 44.890625 
Q 49.859375 40.875 45.40625 35.40625 
Q 44.1875 33.984375 37.640625 27.21875 
Q 31.109375 20.453125 19.1875 8.296875 
z
" id="DejaVuSans-50"/>
      </defs>
      <g transform="translate(102.585204 303.028562)scale(0.1 -0.1)">
       <use xlink:href="#DejaVuSans-50"/>
       <use x="63.623047" xlink:href="#DejaVuSans-48"/>
       <use x="127.246094" xlink:href="#DejaVuSans-48"/>
      </g>
     </g>
    </g>
    <g id="xtick_3">
     <g id="line2d_5">
      <path clip-path="url(#pb91c8c3718)" d="M 161.059557 288.430125 
L 161.059557 22.318125 
" style="fill:none;stroke:#b0b0b0;stroke-dasharray:2.96,1.28;stroke-dashoffset:0;stroke-width:0.8;"/>
     </g>
     <g id="line2d_6">
      <g>
       <use style="stroke:#000000;stroke-width:0.8;" x="161.059557" xlink:href="#m304e5b6119" y="288.430125"/>
      </g>
     </g>
     <g id="text_3">
      <!-- 400 -->
      <defs>
       <path d="M 37.796875 64.3125 
L 12.890625 25.390625 
L 37.796875 25.390625 
z
M 35.203125 72.90625 
L 47.609375 72.90625 
L 47.609375 25.390625 
L 58.015625 25.390625 
L 58.015625 17.1875 
L 47.609375 17.1875 
L 47.609375 0 
L 37.796875 0 
L 37.796875 17.1875 
L 4.890625 17.1875 
L 4.890625 26.703125 
z
" id="DejaVuSans-52"/>
      </defs>
      <g transform="translate(151.515807 303.028562)scale(0.1 -0.1)">
       <use xlink:href="#DejaVuSans-52"/>
       <use x="63.623047" xlink:href="#DejaVuSans-48"/>
       <use x="127.246094" xlink:href="#DejaVuSans-48"/>
      </g>
     </g>
    </g>
    <g id="xtick_4">
     <g id="line2d_7">
      <path clip-path="url(#pb91c8c3718)" d="M 209.990159 288.430125 
L 209.990159 22.318125 
" style="fill:none;stroke:#b0b0b0;stroke-dasharray:2.96,1.28;stroke-dashoffset:0;stroke-width:0.8;"/>
     </g>
     <g id="line2d_8">
      <g>
       <use style="stroke:#000000;stroke-width:0.8;" x="209.990159" xlink:href="#m304e5b6119" y="288.430125"/>
      </g>
     </g>
     <g id="text_4">
      <!-- 600 -->
      <defs>
       <path d="M 33.015625 40.375 
Q 26.375 40.375 22.484375 35.828125 
Q 18.609375 31.296875 18.609375 23.390625 
Q 18.609375 15.53125 22.484375 10.953125 
Q 26.375 6.390625 33.015625 6.390625 
Q 39.65625 6.390625 43.53125 10.953125 
Q 47.40625 15.53125 47.40625 23.390625 
Q 47.40625 31.296875 43.53125 35.828125 
Q 39.65625 40.375 33.015625 40.375 
z
M 52.59375 71.296875 
L 52.59375 62.3125 
Q 48.875 64.0625 45.09375 64.984375 
Q 41.3125 65.921875 37.59375 65.921875 
Q 27.828125 65.921875 22.671875 59.328125 
Q 17.53125 52.734375 16.796875 39.40625 
Q 19.671875 43.65625 24.015625 45.921875 
Q 28.375 48.1875 33.59375 48.1875 
Q 44.578125 48.1875 50.953125 41.515625 
Q 57.328125 34.859375 57.328125 23.390625 
Q 57.328125 12.15625 50.6875 5.359375 
Q 44.046875 -1.421875 33.015625 -1.421875 
Q 20.359375 -1.421875 13.671875 8.265625 
Q 6.984375 17.96875 6.984375 36.375 
Q 6.984375 53.65625 15.1875 63.9375 
Q 23.390625 74.21875 37.203125 74.21875 
Q 40.921875 74.21875 44.703125 73.484375 
Q 48.484375 72.75 52.59375 71.296875 
z
" id="DejaVuSans-54"/>
      </defs>
      <g transform="translate(200.446409 303.028562)scale(0.1 -0.1)">
       <use xlink:href="#DejaVuSans-54"/>
       <use x="63.623047" xlink:href="#DejaVuSans-48"/>
       <use x="127.246094" xlink:href="#DejaVuSans-48"/>
      </g>
     </g>
    </g>
    <g id="xtick_5">
     <g id="line2d_9">
      <path clip-path="url(#pb91c8c3718)" d="M 258.920761 288.430125 
L 258.920761 22.318125 
" style="fill:none;stroke:#b0b0b0;stroke-dasharray:2.96,1.28;stroke-dashoffset:0;stroke-width:0.8;"/>
     </g>
     <g id="line2d_10">
      <g>
       <use style="stroke:#000000;stroke-width:0.8;" x="258.920761" xlink:href="#m304e5b6119" y="288.430125"/>
      </g>
     </g>
     <g id="text_5">
      <!-- 800 -->
      <defs>
       <path d="M 31.78125 34.625 
Q 24.75 34.625 20.71875 30.859375 
Q 16.703125 27.09375 16.703125 20.515625 
Q 16.703125 13.921875 20.71875 10.15625 
Q 24.75 6.390625 31.78125 6.390625 
Q 38.8125 6.390625 42.859375 10.171875 
Q 46.921875 13.96875 46.921875 20.515625 
Q 46.921875 27.09375 42.890625 30.859375 
Q 38.875 34.625 31.78125 34.625 
z
M 21.921875 38.8125 
Q 15.578125 40.375 12.03125 44.71875 
Q 8.5 49.078125 8.5 55.328125 
Q 8.5 64.0625 14.71875 69.140625 
Q 20.953125 74.21875 31.78125 74.21875 
Q 42.671875 74.21875 48.875 69.140625 
Q 55.078125 64.0625 55.078125 55.328125 
Q 55.078125 49.078125 51.53125 44.71875 
Q 48 40.375 41.703125 38.8125 
Q 48.828125 37.15625 52.796875 32.3125 
Q 56.78125 27.484375 56.78125 20.515625 
Q 56.78125 9.90625 50.3125 4.234375 
Q 43.84375 -1.421875 31.78125 -1.421875 
Q 19.734375 -1.421875 13.25 4.234375 
Q 6.78125 9.90625 6.78125 20.515625 
Q 6.78125 27.484375 10.78125 32.3125 
Q 14.796875 37.15625 21.921875 38.8125 
z
M 18.3125 54.390625 
Q 18.3125 48.734375 21.84375 45.5625 
Q 25.390625 42.390625 31.78125 42.390625 
Q 38.140625 42.390625 41.71875 45.5625 
Q 45.3125 48.734375 45.3125 54.390625 
Q 45.3125 60.0625 41.71875 63.234375 
Q 38.140625 66.40625 31.78125 66.40625 
Q 25.390625 66.40625 21.84375 63.234375 
Q 18.3125 60.0625 18.3125 54.390625 
z
" id="DejaVuSans-56"/>
      </defs>
      <g transform="translate(249.377011 303.028562)scale(0.1 -0.1)">
       <use xlink:href="#DejaVuSans-56"/>
       <use x="63.623047" xlink:href="#DejaVuSans-48"/>
       <use x="127.246094" xlink:href="#DejaVuSans-48"/>
      </g>
     </g>
    </g>
    <g id="xtick_6">
     <g id="line2d_11">
      <path clip-path="url(#pb91c8c3718)" d="M 307.851363 288.430125 
L 307.851363 22.318125 
" style="fill:none;stroke:#b0b0b0;stroke-dasharray:2.96,1.28;stroke-dashoffset:0;stroke-width:0.8;"/>
     </g>
     <g id="line2d_12">
      <g>
       <use style="stroke:#000000;stroke-width:0.8;" x="307.851363" xlink:href="#m304e5b6119" y="288.430125"/>
      </g>
     </g>
     <g id="text_6">
      <!-- 1000 -->
      <defs>
       <path d="M 12.40625 8.296875 
L 28.515625 8.296875 
L 28.515625 63.921875 
L 10.984375 60.40625 
L 10.984375 69.390625 
L 28.421875 72.90625 
L 38.28125 72.90625 
L 38.28125 8.296875 
L 54.390625 8.296875 
L 54.390625 0 
L 12.40625 0 
z
" id="DejaVuSans-49"/>
      </defs>
      <g transform="translate(295.126363 303.028562)scale(0.1 -0.1)">
       <use xlink:href="#DejaVuSans-49"/>
       <use x="63.623047" xlink:href="#DejaVuSans-48"/>
       <use x="127.246094" xlink:href="#DejaVuSans-48"/>
       <use x="190.869141" xlink:href="#DejaVuSans-48"/>
      </g>
     </g>
    </g>
    <g id="xtick_7">
     <g id="line2d_13">
      <path clip-path="url(#pb91c8c3718)" d="M 356.781965 288.430125 
L 356.781965 22.318125 
" style="fill:none;stroke:#b0b0b0;stroke-dasharray:2.96,1.28;stroke-dashoffset:0;stroke-width:0.8;"/>
     </g>
     <g id="line2d_14">
      <g>
       <use style="stroke:#000000;stroke-width:0.8;" x="356.781965" xlink:href="#m304e5b6119" y="288.430125"/>
      </g>
     </g>
     <g id="text_7">
      <!-- 1200 -->
      <g transform="translate(344.056965 303.028562)scale(0.1 -0.1)">
       <use xlink:href="#DejaVuSans-49"/>
       <use x="63.623047" xlink:href="#DejaVuSans-50"/>
       <use x="127.246094" xlink:href="#DejaVuSans-48"/>
       <use x="190.869141" xlink:href="#DejaVuSans-48"/>
      </g>
     </g>
    </g>
    <g id="text_8">
     <!-- Day -->
     <defs>
      <path d="M 19.671875 64.796875 
L 19.671875 8.109375 
L 31.59375 8.109375 
Q 46.6875 8.109375 53.6875 14.9375 
Q 60.6875 21.78125 60.6875 36.53125 
Q 60.6875 51.171875 53.6875 57.984375 
Q 46.6875 64.796875 31.59375 64.796875 
z
M 9.8125 72.90625 
L 30.078125 72.90625 
Q 51.265625 72.90625 61.171875 64.09375 
Q 71.09375 55.28125 71.09375 36.53125 
Q 71.09375 17.671875 61.125 8.828125 
Q 51.171875 0 30.078125 0 
L 9.8125 0 
z
" id="DejaVuSans-68"/>
      <path d="M 34.28125 27.484375 
Q 23.390625 27.484375 19.1875 25 
Q 14.984375 22.515625 14.984375 16.5 
Q 14.984375 11.71875 18.140625 8.90625 
Q 21.296875 6.109375 26.703125 6.109375 
Q 34.1875 6.109375 38.703125 11.40625 
Q 43.21875 16.703125 43.21875 25.484375 
L 43.21875 27.484375 
z
M 52.203125 31.203125 
L 52.203125 0 
L 43.21875 0 
L 43.21875 8.296875 
Q 40.140625 3.328125 35.546875 0.953125 
Q 30.953125 -1.421875 24.3125 -1.421875 
Q 15.921875 -1.421875 10.953125 3.296875 
Q 6 8.015625 6 15.921875 
Q 6 25.140625 12.171875 29.828125 
Q 18.359375 34.515625 30.609375 34.515625 
L 43.21875 34.515625 
L 43.21875 35.40625 
Q 43.21875 41.609375 39.140625 45 
Q 35.0625 48.390625 27.6875 48.390625 
Q 23 48.390625 18.546875 47.265625 
Q 14.109375 46.140625 10.015625 43.890625 
L 10.015625 52.203125 
Q 14.9375 54.109375 19.578125 55.046875 
Q 24.21875 56 28.609375 56 
Q 40.484375 56 46.34375 49.84375 
Q 52.203125 43.703125 52.203125 31.203125 
z
" id="DejaVuSans-97"/>
      <path d="M 32.171875 -5.078125 
Q 28.375 -14.84375 24.75 -17.8125 
Q 21.140625 -20.796875 15.09375 -20.796875 
L 7.90625 -20.796875 
L 7.90625 -13.28125 
L 13.1875 -13.28125 
Q 16.890625 -13.28125 18.9375 -11.515625 
Q 21 -9.765625 23.484375 -3.21875 
L 25.09375 0.875 
L 2.984375 54.6875 
L 12.5 54.6875 
L 29.59375 11.921875 
L 46.6875 54.6875 
L 56.203125 54.6875 
z
" id="DejaVuSans-121"/>
     </defs>
     <g transform="translate(215.652188 316.706687)scale(0.1 -0.1)">
      <use xlink:href="#DejaVuSans-68"/>
      <use x="77.001953" xlink:href="#DejaVuSans-97"/>
      <use x="138.28125" xlink:href="#DejaVuSans-121"/>
     </g>
    </g>
   </g>
   <g id="matplotlib.axis_2">
    <g id="ytick_1">
     <g id="line2d_15">
      <path clip-path="url(#pb91c8c3718)" d="M 46.965625 267.234861 
L 404.085625 267.234861 
" style="fill:none;stroke:#b0b0b0;stroke-dasharray:2.96,1.28;stroke-dashoffset:0;stroke-width:0.8;"/>
     </g>
     <g id="line2d_16">
      <defs>
       <path d="M 0 0 
L -3.5 0 
" id="m3ea9fa2dda" style="stroke:#000000;stroke-width:0.8;"/>
      </defs>
      <g>
       <use style="stroke:#000000;stroke-width:0.8;" x="46.965625" xlink:href="#m3ea9fa2dda" y="267.234861"/>
      </g>
     </g>
     <g id="text_9">
      <!-- 60 -->
      <g transform="translate(27.240625 271.034079)scale(0.1 -0.1)">
       <use xlink:href="#DejaVuSans-54"/>
       <use x="63.623047" xlink:href="#DejaVuSans-48"/>
      </g>
     </g>
    </g>
    <g id="ytick_2">
     <g id="line2d_17">
      <path clip-path="url(#pb91c8c3718)" d="M 46.965625 224.729053 
L 404.085625 224.729053 
" style="fill:none;stroke:#b0b0b0;stroke-dasharray:2.96,1.28;stroke-dashoffset:0;stroke-width:0.8;"/>
     </g>
     <g id="line2d_18">
      <g>
       <use style="stroke:#000000;stroke-width:0.8;" x="46.965625" xlink:href="#m3ea9fa2dda" y="224.729053"/>
      </g>
     </g>
     <g id="text_10">
      <!-- 80 -->
      <g transform="translate(27.240625 228.528272)scale(0.1 -0.1)">
       <use xlink:href="#DejaVuSans-56"/>
       <use x="63.623047" xlink:href="#DejaVuSans-48"/>
      </g>
     </g>
    </g>
    <g id="ytick_3">
     <g id="line2d_19">
      <path clip-path="url(#pb91c8c3718)" d="M 46.965625 182.223245 
L 404.085625 182.223245 
" style="fill:none;stroke:#b0b0b0;stroke-dasharray:2.96,1.28;stroke-dashoffset:0;stroke-width:0.8;"/>
     </g>
     <g id="line2d_20">
      <g>
       <use style="stroke:#000000;stroke-width:0.8;" x="46.965625" xlink:href="#m3ea9fa2dda" y="182.223245"/>
      </g>
     </g>
     <g id="text_11">
      <!-- 100 -->
      <g transform="translate(20.878125 186.022464)scale(0.1 -0.1)">
       <use xlink:href="#DejaVuSans-49"/>
       <use x="63.623047" xlink:href="#DejaVuSans-48"/>
       <use x="127.246094" xlink:href="#DejaVuSans-48"/>
      </g>
     </g>
    </g>
    <g id="ytick_4">
     <g id="line2d_21">
      <path clip-path="url(#pb91c8c3718)" d="M 46.965625 139.717438 
L 404.085625 139.717438 
" style="fill:none;stroke:#b0b0b0;stroke-dasharray:2.96,1.28;stroke-dashoffset:0;stroke-width:0.8;"/>
     </g>
     <g id="line2d_22">
      <g>
       <use style="stroke:#000000;stroke-width:0.8;" x="46.965625" xlink:href="#m3ea9fa2dda" y="139.717438"/>
      </g>
     </g>
     <g id="text_12">
      <!-- 120 -->
      <g transform="translate(20.878125 143.516657)scale(0.1 -0.1)">
       <use xlink:href="#DejaVuSans-49"/>
       <use x="63.623047" xlink:href="#DejaVuSans-50"/>
       <use x="127.246094" xlink:href="#DejaVuSans-48"/>
      </g>
     </g>
    </g>
    <g id="ytick_5">
     <g id="line2d_23">
      <path clip-path="url(#pb91c8c3718)" d="M 46.965625 97.21163 
L 404.085625 97.21163 
" style="fill:none;stroke:#b0b0b0;stroke-dasharray:2.96,1.28;stroke-dashoffset:0;stroke-width:0.8;"/>
     </g>
     <g id="line2d_24">
      <g>
       <use style="stroke:#000000;stroke-width:0.8;" x="46.965625" xlink:href="#m3ea9fa2dda" y="97.21163"/>
      </g>
     </g>
     <g id="text_13">
      <!-- 140 -->
      <g transform="translate(20.878125 101.010849)scale(0.1 -0.1)">
       <use xlink:href="#DejaVuSans-49"/>
       <use x="63.623047" xlink:href="#DejaVuSans-52"/>
       <use x="127.246094" xlink:href="#DejaVuSans-48"/>
      </g>
     </g>
    </g>
    <g id="ytick_6">
     <g id="line2d_25">
      <path clip-path="url(#pb91c8c3718)" d="M 46.965625 54.705823 
L 404.085625 54.705823 
" style="fill:none;stroke:#b0b0b0;stroke-dasharray:2.96,1.28;stroke-dashoffset:0;stroke-width:0.8;"/>
     </g>
     <g id="line2d_26">
      <g>
       <use style="stroke:#000000;stroke-width:0.8;" x="46.965625" xlink:href="#m3ea9fa2dda" y="54.705823"/>
      </g>
     </g>
     <g id="text_14">
      <!-- 160 -->
      <g transform="translate(20.878125 58.505041)scale(0.1 -0.1)">
       <use xlink:href="#DejaVuSans-49"/>
       <use x="63.623047" xlink:href="#DejaVuSans-54"/>
       <use x="127.246094" xlink:href="#DejaVuSans-48"/>
      </g>
     </g>
    </g>
    <g id="text_15">
     <!-- Price $ -->
     <defs>
      <path d="M 19.671875 64.796875 
L 19.671875 37.40625 
L 32.078125 37.40625 
Q 38.96875 37.40625 42.71875 40.96875 
Q 46.484375 44.53125 46.484375 51.125 
Q 46.484375 57.671875 42.71875 61.234375 
Q 38.96875 64.796875 32.078125 64.796875 
z
M 9.8125 72.90625 
L 32.078125 72.90625 
Q 44.34375 72.90625 50.609375 67.359375 
Q 56.890625 61.8125 56.890625 51.125 
Q 56.890625 40.328125 50.609375 34.8125 
Q 44.34375 29.296875 32.078125 29.296875 
L 19.671875 29.296875 
L 19.671875 0 
L 9.8125 0 
z
" id="DejaVuSans-80"/>
      <path d="M 41.109375 46.296875 
Q 39.59375 47.171875 37.8125 47.578125 
Q 36.03125 48 33.890625 48 
Q 26.265625 48 22.1875 43.046875 
Q 18.109375 38.09375 18.109375 28.8125 
L 18.109375 0 
L 9.078125 0 
L 9.078125 54.6875 
L 18.109375 54.6875 
L 18.109375 46.1875 
Q 20.953125 51.171875 25.484375 53.578125 
Q 30.03125 56 36.53125 56 
Q 37.453125 56 38.578125 55.875 
Q 39.703125 55.765625 41.0625 55.515625 
z
" id="DejaVuSans-114"/>
      <path d="M 9.421875 54.6875 
L 18.40625 54.6875 
L 18.40625 0 
L 9.421875 0 
z
M 9.421875 75.984375 
L 18.40625 75.984375 
L 18.40625 64.59375 
L 9.421875 64.59375 
z
" id="DejaVuSans-105"/>
      <path d="M 48.78125 52.59375 
L 48.78125 44.1875 
Q 44.96875 46.296875 41.140625 47.34375 
Q 37.3125 48.390625 33.40625 48.390625 
Q 24.65625 48.390625 19.8125 42.84375 
Q 14.984375 37.3125 14.984375 27.296875 
Q 14.984375 17.28125 19.8125 11.734375 
Q 24.65625 6.203125 33.40625 6.203125 
Q 37.3125 6.203125 41.140625 7.25 
Q 44.96875 8.296875 48.78125 10.40625 
L 48.78125 2.09375 
Q 45.015625 0.34375 40.984375 -0.53125 
Q 36.96875 -1.421875 32.421875 -1.421875 
Q 20.0625 -1.421875 12.78125 6.34375 
Q 5.515625 14.109375 5.515625 27.296875 
Q 5.515625 40.671875 12.859375 48.328125 
Q 20.21875 56 33.015625 56 
Q 37.15625 56 41.109375 55.140625 
Q 45.0625 54.296875 48.78125 52.59375 
z
" id="DejaVuSans-99"/>
      <path d="M 56.203125 29.59375 
L 56.203125 25.203125 
L 14.890625 25.203125 
Q 15.484375 15.921875 20.484375 11.0625 
Q 25.484375 6.203125 34.421875 6.203125 
Q 39.59375 6.203125 44.453125 7.46875 
Q 49.3125 8.734375 54.109375 11.28125 
L 54.109375 2.78125 
Q 49.265625 0.734375 44.1875 -0.34375 
Q 39.109375 -1.421875 33.890625 -1.421875 
Q 20.796875 -1.421875 13.15625 6.1875 
Q 5.515625 13.8125 5.515625 26.8125 
Q 5.515625 40.234375 12.765625 48.109375 
Q 20.015625 56 32.328125 56 
Q 43.359375 56 49.78125 48.890625 
Q 56.203125 41.796875 56.203125 29.59375 
z
M 47.21875 32.234375 
Q 47.125 39.59375 43.09375 43.984375 
Q 39.0625 48.390625 32.421875 48.390625 
Q 24.90625 48.390625 20.390625 44.140625 
Q 15.875 39.890625 15.1875 32.171875 
z
" id="DejaVuSans-101"/>
      <path id="DejaVuSans-32"/>
      <path d="M 33.796875 -14.703125 
L 28.90625 -14.703125 
L 28.859375 0 
Q 23.734375 0.09375 18.609375 1.1875 
Q 13.484375 2.296875 8.296875 4.5 
L 8.296875 13.28125 
Q 13.28125 10.15625 18.375 8.5625 
Q 23.484375 6.984375 28.90625 6.9375 
L 28.90625 29.203125 
Q 18.109375 30.953125 13.203125 35.15625 
Q 8.296875 39.359375 8.296875 46.6875 
Q 8.296875 54.640625 13.625 59.21875 
Q 18.953125 63.8125 28.90625 64.5 
L 28.90625 75.984375 
L 33.796875 75.984375 
L 33.796875 64.65625 
Q 38.328125 64.453125 42.578125 63.6875 
Q 46.828125 62.9375 50.875 61.625 
L 50.875 53.078125 
Q 46.828125 55.125 42.546875 56.25 
Q 38.28125 57.375 33.796875 57.5625 
L 33.796875 36.71875 
Q 44.875 35.015625 50.09375 30.609375 
Q 55.328125 26.21875 55.328125 18.609375 
Q 55.328125 10.359375 49.78125 5.59375 
Q 44.234375 0.828125 33.796875 0.09375 
z
M 28.90625 37.59375 
L 28.90625 57.625 
Q 23.25 56.984375 20.265625 54.390625 
Q 17.28125 51.8125 17.28125 47.515625 
Q 17.28125 43.3125 20.03125 40.96875 
Q 22.796875 38.625 28.90625 37.59375 
z
M 33.796875 28.21875 
L 33.796875 7.078125 
Q 39.984375 7.90625 43.140625 10.59375 
Q 46.296875 13.28125 46.296875 17.671875 
Q 46.296875 21.96875 43.28125 24.5 
Q 40.28125 27.046875 33.796875 28.21875 
z
" id="DejaVuSans-36"/>
     </defs>
     <g transform="translate(14.798438 172.342094)rotate(-90)scale(0.1 -0.1)">
      <use xlink:href="#DejaVuSans-80"/>
      <use x="58.552734" xlink:href="#DejaVuSans-114"/>
      <use x="99.666016" xlink:href="#DejaVuSans-105"/>
      <use x="127.449219" xlink:href="#DejaVuSans-99"/>
      <use x="182.429688" xlink:href="#DejaVuSans-101"/>
      <use x="243.953125" xlink:href="#DejaVuSans-32"/>
      <use x="275.740234" xlink:href="#DejaVuSans-36"/>
     </g>
    </g>
   </g>
   <g id="line2d_27">
    <path clip-path="url(#pb91c8c3718)" d="M 63.198352 221.883085 
L 63.443005 213.989017 
L 63.687658 211.303542 
L 63.932311 206.983109 
L 64.176964 210.34399 
L 64.421617 207.869987 
L 64.910923 205.232831 
L 65.400229 207.079797 
L 65.644882 207.0163 
L 65.889535 205.87576 
L 66.134188 203.410026 
L 66.623494 203.631502 
L 67.1128 198.096962 
L 67.357453 192.010977 
L 67.602106 196.368785 
L 67.846759 193.00171 
L 68.091412 194.901211 
L 68.336066 189.338457 
L 68.580719 189.943216 
L 68.825372 190.135863 
L 69.314678 192.573724 
L 69.559331 192.846795 
L 69.803984 190.034862 
L 70.048637 190.702955 
L 70.29329 189.163728 
L 70.537943 188.417285 
L 70.782596 192.947342 
L 71.027249 192.629145 
L 71.761208 183.054864 
L 72.005861 182.594156 
L 72.250514 182.508575 
L 72.495167 182.765999 
L 72.73982 181.952428 
L 72.984473 185.88619 
L 73.229126 186.025004 
L 73.473779 191.521812 
L 73.718432 193.041306 
L 73.963085 188.879014 
L 74.452391 193.756325 
L 74.697044 193.142097 
L 74.941697 191.223171 
L 75.18635 192.923604 
L 75.431003 198.185689 
L 75.675656 200.97283 
L 75.920309 200.831081 
L 76.164962 198.877699 
L 76.409615 203.670385 
L 76.898921 202.251147 
L 77.143574 198.173998 
L 77.63288 203.233772 
L 77.877533 208.879318 
L 78.122186 203.354215 
L 78.366839 206.528255 
L 78.611492 206.534594 
L 79.100798 213.951513 
L 79.345451 213.578073 
L 79.590104 213.959004 
L 79.834757 217.829042 
L 80.07941 215.83882 
L 80.813369 230.777761 
L 81.058022 227.157055 
L 81.302675 231.202618 
L 81.547328 229.585382 
L 81.791981 231.80235 
L 82.036634 235.399625 
L 82.281287 231.41443 
L 82.52594 221.681796 
L 82.770593 223.673672 
L 83.015246 222.83453 
L 83.259899 220.299219 
L 83.504552 216.063345 
L 83.749205 219.432917 
L 83.993858 216.031662 
L 84.238511 216.51828 
L 84.483164 214.868599 
L 84.97247 221.82635 
L 85.217123 233.685653 
L 85.461776 227.246398 
L 85.706429 234.959348 
L 86.195735 228.667047 
L 86.929694 240.408356 
L 87.174347 235.67722 
L 87.419 233.186127 
L 87.663653 233.756673 
L 87.908306 238.463632 
L 88.152959 236.771954 
L 88.397612 236.950738 
L 88.642265 238.560936 
L 88.886918 239.353834 
L 89.131571 239.585282 
L 89.376224 227.215023 
L 89.620877 227.815923 
L 90.110183 235.96589 
L 90.354836 234.225001 
L 90.599489 235.802398 
L 90.844143 234.509877 
L 91.088796 236.144722 
L 91.333449 241.392976 
L 91.822755 244.72433 
L 92.067408 239.726707 
L 92.312061 242.951563 
L 92.801367 240.211672 
L 93.04602 252.839015 
L 93.535326 261.259492 
L 93.779979 255.50787 
L 94.024632 255.14064 
L 94.269285 255.233193 
L 94.513938 254.772307 
L 94.758591 256.230201 
L 95.003244 259.336026 
L 95.247897 255.635771 
L 95.49255 253.858205 
L 95.737203 250.424811 
L 96.226509 248.717487 
L 96.471162 252.511073 
L 96.715815 253.311105 
L 96.960468 252.272393 
L 97.205121 254.422978 
L 97.449774 255.374618 
L 97.694427 258.964661 
L 97.93908 258.249837 
L 98.183733 256.78583 
L 98.428386 259.655844 
L 98.673039 258.329532 
L 99.162345 261.384929 
L 99.651651 266.596659 
L 99.896304 262.777373 
L 100.140957 265.434975 
L 100.38561 263.92028 
L 100.630263 263.92088 
L 100.874916 262.11386 
L 101.119569 264.279492 
L 101.853528 260.238097 
L 102.098181 255.151325 
L 102.342834 255.600423 
L 102.587487 257.632333 
L 102.83214 256.653875 
L 103.076793 253.627129 
L 103.321446 253.293123 
L 104.055405 260.431603 
L 104.300058 264.66978 
L 104.789364 262.972695 
L 105.034017 265.463983 
L 105.27867 265.6502 
L 105.767976 264.586842 
L 106.012629 262.754323 
L 106.257282 262.681601 
L 106.746588 266.535676 
L 106.991241 266.632842 
L 107.480547 276.334125 
L 107.7252 275.452703 
L 107.969853 272.01404 
L 108.214506 274.217988 
L 108.459159 269.86776 
L 108.703812 269.765405 
L 109.437771 259.361905 
L 109.682424 260.293705 
L 109.927077 257.619102 
L 110.17173 256.333829 
L 110.416383 253.529225 
L 110.661036 255.270341 
L 110.905689 254.986195 
L 111.150342 255.850648 
L 111.394995 257.569728 
L 111.639648 256.938475 
L 112.128954 265.964741 
L 112.373607 261.750991 
L 112.61826 263.377178 
L 113.107566 259.955994 
L 113.35222 261.811375 
L 113.596873 260.680896 
L 113.841526 258.11031 
L 114.086179 260.671256 
L 114.575485 257.17315 
L 114.820138 257.62982 
L 115.064791 256.934 
L 115.309444 259.03286 
L 115.554097 259.349954 
L 115.79875 261.912757 
L 116.043403 259.687001 
L 116.288056 262.053606 
L 116.532709 261.176984 
L 116.777362 263.155912 
L 117.022015 262.307722 
L 117.266668 263.589712 
L 117.511321 263.448174 
L 117.755974 263.536819 
L 118.000627 267.006355 
L 118.24528 267.552417 
L 118.489933 270.519249 
L 118.734586 271.468651 
L 118.979239 271.80136 
L 119.223892 273.167341 
L 119.468545 275.411591 
L 120.202504 266.660975 
L 120.447157 266.632866 
L 120.69181 266.9112 
L 120.936463 268.747496 
L 121.181116 267.047046 
L 121.425769 266.205293 
L 121.670422 264.575386 
L 121.915075 265.308541 
L 122.159728 264.932563 
L 122.649034 262.990831 
L 122.893687 262.945365 
L 123.382993 265.096136 
L 123.627646 262.095772 
L 123.872299 260.572209 
L 124.116952 262.441461 
L 124.361605 261.035689 
L 124.850911 256.667544 
L 125.095564 256.452002 
L 125.340217 255.716342 
L 125.829523 252.653227 
L 126.074176 253.932954 
L 126.318829 253.936473 
L 126.563482 255.451216 
L 126.808135 256.134583 
L 127.052788 251.898158 
L 127.297441 243.877373 
L 127.542094 243.780555 
L 127.786747 242.95346 
L 128.276053 240.106357 
L 128.520706 241.958511 
L 128.765359 241.545524 
L 129.010012 242.039601 
L 129.499318 243.503024 
L 129.743971 247.212797 
L 129.988624 245.618878 
L 130.47793 245.230325 
L 130.722583 243.396689 
L 130.967236 242.866274 
L 131.211889 243.634671 
L 131.456542 241.843436 
L 131.701195 241.238369 
L 131.945848 252.071607 
L 132.190501 253.086418 
L 132.435154 252.312589 
L 132.679807 254.595275 
L 132.92446 258.468962 
L 133.413766 251.817377 
L 133.658419 249.509395 
L 133.903072 244.91388 
L 134.147725 244.193608 
L 134.637031 247.634298 
L 134.881684 248.082244 
L 135.126337 250.019363 
L 135.37099 249.893635 
L 135.860297 246.049329 
L 136.10495 247.858952 
L 136.349603 247.176184 
L 136.594256 246.118403 
L 136.838909 247.742336 
L 137.083562 245.782468 
L 137.328215 246.846751 
L 137.572868 246.069678 
L 137.817521 243.917018 
L 138.062174 242.783871 
L 138.306827 242.841952 
L 138.796133 239.448544 
L 139.040786 235.070273 
L 139.285439 237.036448 
L 139.774745 233.47564 
L 140.019398 234.197355 
L 140.264051 232.070022 
L 140.508704 236.941933 
L 140.753357 235.373098 
L 140.99801 235.870483 
L 141.242663 236.642399 
L 141.487316 235.536055 
L 141.731969 235.721908 
L 142.221275 238.622941 
L 142.465928 236.931426 
L 142.710581 237.616918 
L 142.955234 237.440599 
L 143.44454 234.780143 
L 143.689193 235.313023 
L 143.933846 237.058306 
L 144.178499 237.020866 
L 144.423152 237.652428 
L 144.667805 236.88069 
L 144.912458 236.594582 
L 145.157111 235.567998 
L 145.89107 225.293194 
L 146.135723 225.349281 
L 146.625029 221.191253 
L 147.114335 224.494135 
L 147.603641 222.740761 
L 147.848294 224.014586 
L 148.092947 223.876664 
L 148.3376 226.190887 
L 148.582253 225.966655 
L 148.826906 227.746264 
L 149.071559 227.956261 
L 149.316212 229.168713 
L 149.560865 223.027225 
L 149.805518 221.56578 
L 150.050171 222.357754 
L 150.78413 226.648336 
L 151.028783 226.032989 
L 151.273436 227.045044 
L 151.518089 231.377185 
L 151.762742 229.619352 
L 152.007395 231.168551 
L 152.252048 228.905225 
L 152.741354 233.64797 
L 152.986007 231.584538 
L 153.23066 227.083343 
L 153.475313 226.146378 
L 153.719966 227.233102 
L 153.964619 230.47179 
L 154.209272 227.573529 
L 154.453925 227.72478 
L 154.698578 226.439686 
L 154.943231 227.784661 
L 155.187884 238.534977 
L 155.432537 241.97938 
L 155.67719 241.95903 
L 155.921843 243.736759 
L 156.166496 241.812466 
L 156.411149 240.787779 
L 156.655802 240.271293 
L 156.900455 239.343197 
L 157.145108 236.338536 
L 157.389761 236.627044 
L 157.879067 231.350804 
L 158.12372 231.933219 
L 158.368374 229.601418 
L 158.613027 228.698147 
L 158.85768 228.856467 
L 159.102333 232.357249 
L 159.346986 232.695146 
L 159.591639 235.413051 
L 159.836292 233.760467 
L 160.325598 237.326059 
L 160.570251 233.977646 
L 160.814904 235.493087 
L 161.059557 233.42111 
L 161.30421 233.266714 
L 161.548863 232.774663 
L 162.038169 234.035987 
L 162.282822 232.205236 
L 162.527475 232.17318 
L 162.772128 231.446114 
L 163.016781 233.925808 
L 163.506087 234.8947 
L 163.75074 233.125954 
L 163.995393 233.705905 
L 164.240046 233.250969 
L 164.729352 230.292488 
L 164.974005 228.834431 
L 165.218658 230.754412 
L 165.463311 231.313899 
L 165.707964 231.14705 
L 165.952617 231.51394 
L 166.19727 230.15476 
L 166.441923 230.37789 
L 166.686576 230.899857 
L 166.931229 234.249502 
L 167.420535 236.061784 
L 167.665188 233.743507 
L 167.909841 236.9748 
L 168.154494 236.376073 
L 168.399147 236.701923 
L 168.6438 237.415726 
L 168.888453 236.84244 
L 169.377759 234.187237 
L 169.622412 233.949109 
L 169.867065 223.720954 
L 170.356371 221.096495 
L 170.601024 214.797595 
L 170.845677 215.085616 
L 171.09033 215.150021 
L 171.334983 215.006797 
L 171.579636 215.552096 
L 171.824289 212.195982 
L 172.558248 217.168375 
L 172.802901 216.459778 
L 173.047554 214.944613 
L 173.292207 214.800205 
L 173.53686 214.153223 
L 173.781513 215.899658 
L 174.270819 211.239429 
L 174.515472 211.315022 
L 174.760125 210.508942 
L 175.004778 210.306258 
L 175.494084 204.681743 
L 175.738737 204.179753 
L 175.98339 201.043218 
L 176.472696 203.816949 
L 176.962002 198.682669 
L 177.206655 197.473037 
L 177.451308 197.731126 
L 177.695961 193.665134 
L 177.940614 194.619821 
L 178.185267 194.941018 
L 178.42992 198.706731 
L 178.674573 200.295056 
L 178.919226 198.722038 
L 179.163879 198.820818 
L 179.408532 198.718309 
L 179.897838 200.871926 
L 180.387144 203.216698 
L 180.631798 202.948183 
L 180.876451 202.002592 
L 181.365757 196.412484 
L 181.61041 195.501624 
L 181.855063 195.853029 
L 182.099716 194.901049 
L 182.344369 190.534452 
L 182.589022 192.058502 
L 182.833675 195.128444 
L 183.078328 192.450524 
L 183.322981 191.192444 
L 183.567634 189.072991 
L 183.812287 189.014326 
L 184.301593 195.930243 
L 184.546246 193.284478 
L 184.790899 193.962981 
L 185.035552 192.372678 
L 185.280205 188.940565 
L 185.524858 189.264502 
L 185.769511 187.224144 
L 186.014164 184.065217 
L 186.258817 185.695473 
L 186.50347 188.115757 
L 186.748123 192.996375 
L 186.992776 190.216271 
L 187.482082 193.32842 
L 187.726735 193.139421 
L 187.971388 194.452908 
L 188.460694 190.806518 
L 188.705347 190.578345 
L 188.95 188.08289 
L 189.439306 185.619232 
L 189.928612 181.422516 
L 190.173265 181.104692 
L 190.417918 181.537413 
L 190.662571 178.605426 
L 190.907224 179.108471 
L 191.151877 179.988587 
L 191.39653 178.694056 
L 191.641183 176.338874 
L 191.885836 175.698734 
L 192.130489 175.467497 
L 192.375142 184.34025 
L 192.619795 184.76287 
L 192.864448 183.864998 
L 193.109101 184.398299 
L 193.353754 186.457466 
L 193.598407 181.632172 
L 193.84306 180.006812 
L 194.087713 176.720438 
L 194.332366 182.124368 
L 194.821672 178.305179 
L 195.066325 177.49631 
L 195.310978 178.56249 
L 195.555631 180.826951 
L 195.800284 177.863378 
L 196.28959 185.437919 
L 196.534243 184.631028 
L 196.778896 181.067285 
L 197.023549 180.833485 
L 197.268202 183.647608 
L 197.512855 183.268833 
L 197.757508 182.487253 
L 198.002161 183.304781 
L 198.246814 184.785684 
L 198.491467 179.24602 
L 198.73612 180.627235 
L 198.980773 179.506298 
L 199.225426 181.393913 
L 199.714732 191.187936 
L 200.204038 185.891314 
L 200.448691 176.736166 
L 200.693344 176.179127 
L 201.18265 171.591378 
L 201.427303 172.104605 
L 201.671956 171.069573 
L 201.916609 168.29088 
L 202.161262 167.510727 
L 202.405915 165.536557 
L 202.650568 164.773381 
L 202.895221 162.466681 
L 203.384528 163.8567 
L 203.629181 163.735901 
L 203.873834 163.130234 
L 204.118487 163.737036 
L 204.36314 162.328078 
L 204.852446 154.480887 
L 205.097099 152.039913 
L 205.341752 152.639224 
L 205.586405 149.561191 
L 205.831058 150.618712 
L 206.075711 145.427307 
L 206.320364 146.494071 
L 206.565017 142.063329 
L 206.80967 144.30016 
L 207.054323 141.575186 
L 207.298976 142.449822 
L 207.543629 153.050476 
L 207.788282 149.330375 
L 208.277588 148.57696 
L 208.522241 152.170538 
L 208.766894 160.172109 
L 209.011547 152.337582 
L 209.500853 159.648099 
L 209.745506 159.975393 
L 209.990159 168.155601 
L 210.234812 167.532568 
L 210.479465 158.150787 
L 210.724118 156.341537 
L 210.968771 156.836426 
L 211.213424 154.562284 
L 211.70273 156.768178 
L 211.947383 153.262208 
L 212.192036 153.46087 
L 212.436689 155.136203 
L 212.681342 158.20989 
L 213.170648 168.52035 
L 213.415301 167.343327 
L 213.659954 163.32627 
L 213.904607 156.047387 
L 214.14926 156.004677 
L 214.393913 158.622845 
L 214.638566 162.90858 
L 214.883219 161.710169 
L 215.127872 167.548604 
L 215.372525 166.312673 
L 215.861831 161.311985 
L 216.351137 153.949353 
L 216.59579 156.104544 
L 216.840443 147.441527 
L 217.085096 147.866109 
L 217.329749 144.374796 
L 217.574402 145.294185 
L 217.819055 143.858099 
L 218.063708 143.872822 
L 218.308361 140.775478 
L 218.553014 140.509152 
L 218.797667 143.390354 
L 219.04232 140.373322 
L 219.776279 125.294124 
L 220.265585 124.371963 
L 220.510238 122.58183 
L 220.754891 122.207239 
L 220.999544 119.304065 
L 221.244197 113.138985 
L 221.48885 115.679404 
L 221.733503 121.534589 
L 221.978156 119.067915 
L 222.222809 120.794616 
L 222.467462 121.099517 
L 222.712115 120.977485 
L 223.201421 122.76191 
L 223.446074 123.503489 
L 223.93538 130.377702 
L 224.180033 135.284701 
L 224.424686 131.173972 
L 224.669339 132.214322 
L 225.158645 125.583832 
L 225.403298 122.026088 
L 225.647952 122.960492 
L 225.892605 125.335277 
L 226.137258 125.001093 
L 226.381911 126.52237 
L 226.626564 134.166505 
L 226.871217 130.807277 
L 227.11587 131.854032 
L 227.360523 127.405194 
L 227.605176 130.185979 
L 227.849829 129.732406 
L 228.094482 130.630278 
L 228.339135 124.438946 
L 228.583788 127.667013 
L 228.828441 127.749919 
L 229.073094 127.412118 
L 229.317747 122.79241 
L 229.807053 126.478185 
L 230.051706 126.705418 
L 230.296359 128.177062 
L 230.541012 128.350932 
L 230.785665 122.989581 
L 231.030318 125.152878 
L 231.274971 122.415403 
L 232.00893 109.769153 
L 232.498236 124.00496 
L 232.742889 127.390909 
L 232.987542 120.179009 
L 233.476848 126.251796 
L 233.721501 129.81789 
L 234.210807 124.521106 
L 234.45546 128.177289 
L 234.700113 127.29688 
L 234.944766 124.828131 
L 235.189419 121.056969 
L 235.434072 122.437617 
L 235.678725 117.86404 
L 235.923378 118.971891 
L 236.168031 118.862864 
L 236.657337 113.5546 
L 236.90199 118.271742 
L 237.146643 115.052025 
L 237.391296 116.355361 
L 237.635949 116.600819 
L 237.880602 118.971275 
L 238.125255 117.788901 
L 238.369908 119.60942 
L 238.614561 120.023802 
L 238.859214 121.20488 
L 239.103867 125.500116 
L 239.593173 120.621313 
L 239.837826 122.464501 
L 240.082479 126.732512 
L 240.571785 123.543571 
L 240.816438 124.45315 
L 241.061091 123.495981 
L 241.305744 124.156794 
L 241.550397 123.911758 
L 241.79505 124.681745 
L 242.039703 121.348088 
L 242.284356 123.608187 
L 242.529009 127.987966 
L 242.773662 128.40243 
L 243.018315 125.542485 
L 243.262968 126.216367 
L 243.507621 129.236351 
L 243.752274 127.635021 
L 244.486233 135.825947 
L 244.730886 129.747956 
L 244.975539 127.50926 
L 245.220192 128.112608 
L 246.198804 113.23864 
L 246.443457 133.970421 
L 246.68811 127.759501 
L 246.932763 128.129861 
L 247.177416 132.536281 
L 247.666722 132.946756 
L 247.911375 134.71148 
L 248.156029 134.357643 
L 248.400682 136.530978 
L 248.889988 154.158198 
L 249.134641 148.651872 
L 249.379294 151.032689 
L 249.8686 144.065485 
L 250.113253 155.278519 
L 250.357906 148.277621 
L 250.602559 151.449163 
L 250.847212 148.078829 
L 251.091865 147.050494 
L 251.336518 147.747952 
L 251.581171 151.760793 
L 251.825824 159.158497 
L 252.070477 190.077133 
L 252.31513 161.340409 
L 252.559783 166.441547 
L 252.804436 156.000964 
L 253.049089 156.151988 
L 253.293742 156.49822 
L 253.538395 160.059223 
L 253.783048 160.804449 
L 254.027701 155.175426 
L 254.272354 162.462789 
L 254.76166 152.995282 
L 255.006313 159.994494 
L 255.250966 156.9611 
L 255.495619 147.891566 
L 255.740272 148.255585 
L 255.984925 147.649805 
L 256.229578 148.842832 
L 256.474231 155.743491 
L 256.718884 153.227362 
L 257.20819 153.188577 
L 257.452843 153.505249 
L 257.697496 147.625758 
L 258.431455 160.48168 
L 258.920761 165.030124 
L 259.165414 161.39502 
L 259.65472 157.356187 
L 259.899373 160.282596 
L 260.144026 161.049583 
L 260.388679 155.469155 
L 260.633332 159.021662 
L 260.877985 158.192621 
L 261.122638 159.168713 
L 261.367291 157.132668 
L 261.611944 159.222075 
L 261.856597 158.078648 
L 262.10125 152.747051 
L 262.345903 151.883441 
L 262.835209 143.684132 
L 263.079862 149.46794 
L 263.324515 146.634717 
L 263.813821 138.032862 
L 264.058474 139.991888 
L 264.303127 137.985224 
L 264.54778 133.419705 
L 265.037086 137.282674 
L 265.281739 137.601666 
L 265.526392 145.318134 
L 265.771045 147.350255 
L 266.015698 147.365578 
L 266.260351 149.437278 
L 266.505004 157.395962 
L 266.749657 150.792728 
L 266.99431 149.169866 
L 267.483616 141.847966 
L 267.728269 141.467991 
L 267.972922 145.368432 
L 268.217575 141.739538 
L 268.462228 143.487334 
L 268.706881 144.0751 
L 268.951534 142.689605 
L 269.196187 146.011717 
L 269.44084 147.28345 
L 269.685493 149.884252 
L 269.930146 142.427446 
L 270.174799 145.114478 
L 270.419452 144.82177 
L 270.664106 148.309385 
L 270.908759 149.735531 
L 271.153412 156.147026 
L 271.398065 156.785657 
L 271.642718 158.835841 
L 271.887371 156.860375 
L 272.376677 167.011607 
L 272.62133 166.751993 
L 272.865983 167.233326 
L 273.110636 163.722621 
L 273.599942 167.766627 
L 273.844595 164.422025 
L 274.089248 167.54074 
L 274.333901 176.089411 
L 274.578554 170.63883 
L 274.823207 180.424308 
L 275.06786 184.537615 
L 275.312513 185.863181 
L 275.557166 184.654474 
L 275.801819 181.621438 
L 276.046472 181.837806 
L 276.535778 189.897021 
L 276.780431 186.715457 
L 277.025084 192.247079 
L 277.51439 185.861301 
L 277.759043 179.129485 
L 278.003696 182.633509 
L 278.493002 195.722176 
L 278.737655 193.33643 
L 278.982308 189.585731 
L 279.226961 191.690088 
L 279.471614 192.777202 
L 279.96092 189.526596 
L 280.205573 196.225577 
L 280.694879 191.020017 
L 280.939532 194.795864 
L 281.184185 194.367051 
L 281.428838 192.78659 
L 281.918144 184.809503 
L 282.162797 190.302825 
L 282.652103 189.650671 
L 282.896756 194.609671 
L 283.386062 188.189112 
L 283.875368 188.634854 
L 284.120021 187.277896 
L 284.364674 181.081959 
L 284.609327 180.892491 
L 284.85398 177.262154 
L 285.098633 176.805192 
L 285.343286 180.114916 
L 285.587939 179.315678 
L 285.832592 178.98579 
L 286.077245 177.424657 
L 286.321898 177.795309 
L 286.566551 174.119668 
L 287.30051 168.903471 
L 287.545163 169.46265 
L 287.789816 170.797248 
L 288.034469 168.441368 
L 288.279122 170.314261 
L 288.523775 169.414849 
L 288.768428 171.521185 
L 289.013081 164.192085 
L 289.257734 161.61674 
L 289.502387 163.388956 
L 289.74704 160.23126 
L 289.991693 161.619367 
L 290.236346 160.625553 
L 290.480999 160.676029 
L 290.725652 163.192612 
L 290.970305 162.982535 
L 291.214958 162.358707 
L 291.704264 157.519923 
L 291.948917 156.570683 
L 292.19357 162.891684 
L 292.682876 167.89388 
L 292.92753 167.498469 
L 293.172183 171.31208 
L 293.416836 171.519514 
L 293.661489 173.689476 
L 293.906142 188.608667 
L 294.150795 187.667097 
L 294.395448 194.1309 
L 294.640101 194.527414 
L 294.884754 194.278681 
L 295.129407 192.116616 
L 295.618713 196.013927 
L 295.863366 196.885369 
L 296.352672 195.851553 
L 296.597325 197.490436 
L 296.841978 203.023111 
L 297.331284 193.83722 
L 297.575937 194.630766 
L 297.82059 193.486788 
L 298.065243 193.67843 
L 299.043855 182.876016 
L 299.288508 183.156935 
L 299.533161 182.861763 
L 299.777814 183.910934 
L 300.022467 186.763615 
L 300.26712 186.555986 
L 300.511773 186.08589 
L 300.756426 183.602077 
L 301.001079 183.900054 
L 301.245732 184.967693 
L 301.735038 184.775387 
L 301.979691 187.467154 
L 302.224344 186.58861 
L 302.468997 189.270518 
L 302.71365 189.026617 
L 303.202956 192.565681 
L 303.447609 190.222822 
L 303.692262 190.838104 
L 303.936915 196.349571 
L 304.181568 197.176552 
L 304.426221 197.353 
L 304.670874 194.927933 
L 304.915527 193.961992 
L 305.16018 191.757152 
L 305.404833 191.854975 
L 305.649486 193.482994 
L 306.138792 189.670566 
L 306.872751 187.562285 
L 307.117404 187.709514 
L 307.362057 184.414092 
L 307.60671 184.836192 
L 307.851363 182.956684 
L 308.096016 182.117899 
L 308.340669 182.293115 
L 308.585322 183.482283 
L 309.074628 188.543744 
L 309.319281 175.007665 
L 309.563934 175.584924 
L 309.808587 173.646167 
L 310.05324 173.283834 
L 310.297893 169.703276 
L 310.542546 172.198861 
L 311.765811 163.853749 
L 312.010464 164.306106 
L 312.255117 165.653546 
L 312.49977 165.08887 
L 312.744423 162.074594 
L 312.989076 162.953673 
L 313.233729 162.755172 
L 313.478382 163.641029 
L 313.723035 163.464954 
L 313.967688 164.136225 
L 314.212341 164.071691 
L 314.456994 166.465042 
L 314.701647 166.590333 
L 315.190953 169.759962 
L 315.435607 170.292647 
L 315.68026 169.310313 
L 315.924913 166.24128 
L 316.169566 165.535406 
L 316.414219 165.739598 
L 316.658872 166.707598 
L 317.148178 176.382459 
L 317.392831 167.067174 
L 317.637484 163.913257 
L 317.882137 153.613564 
L 318.12679 150.254174 
L 318.371443 150.291241 
L 318.616096 154.378605 
L 319.105402 151.912546 
L 319.350055 151.466854 
L 319.594708 157.11822 
L 320.084014 153.257149 
L 320.328667 153.949094 
L 320.57332 155.748388 
L 321.551932 153.255398 
L 322.041238 150.66233 
L 322.285891 145.275246 
L 322.530544 145.744191 
L 322.775197 146.683069 
L 323.01985 144.946169 
L 323.264503 145.621024 
L 323.509156 144.169697 
L 323.998462 146.708007 
L 324.243115 146.855512 
L 324.487768 146.390054 
L 324.732421 144.550936 
L 324.977074 151.209575 
L 325.221727 150.07852 
L 325.46638 152.629884 
L 325.955686 153.685638 
L 326.200339 157.956082 
L 326.444992 158.859369 
L 326.689645 163.907144 
L 326.934298 161.328621 
L 327.178951 160.384603 
L 327.423604 161.146125 
L 327.668257 158.992735 
L 327.91291 166.76122 
L 328.157563 165.72027 
L 328.402216 168.482327 
L 328.646869 167.787398 
L 328.891522 161.665416 
L 329.136175 161.588186 
L 329.380828 160.658744 
L 329.625481 156.891183 
L 330.114787 158.376512 
L 330.35944 157.669001 
L 330.604093 158.899354 
L 330.848746 157.365024 
L 331.338052 162.212402 
L 331.582705 160.705669 
L 331.827358 161.756089 
L 332.072011 162.021037 
L 332.80597 153.558563 
L 333.050623 152.640958 
L 333.295276 149.864649 
L 333.539929 149.267851 
L 333.784582 147.018794 
L 334.029235 148.202352 
L 334.273888 146.419662 
L 334.518541 146.21406 
L 334.763194 147.013654 
L 335.007847 148.632106 
L 335.497153 144.765781 
L 335.741806 146.796426 
L 335.986459 146.551082 
L 336.231112 148.345495 
L 336.720418 148.202206 
L 337.454377 142.22927 
L 337.69903 142.219184 
L 338.188337 141.479179 
L 338.43299 142.833607 
L 338.677643 139.630592 
L 338.922296 140.630097 
L 339.166949 138.735736 
L 339.656255 140.383456 
L 339.900908 138.865275 
L 340.145561 136.046824 
L 340.390214 135.148612 
L 340.634867 137.31606 
L 340.87952 137.099205 
L 341.124173 126.147908 
L 341.368826 122.353203 
L 341.613479 122.419846 
L 341.858132 120.598321 
L 342.347438 115.683392 
L 342.592091 114.980713 
L 343.081397 112.158191 
L 343.32605 111.156351 
L 343.570703 107.128398 
L 343.815356 106.634564 
L 344.060009 107.751788 
L 344.304662 105.630194 
L 344.549315 104.946454 
L 344.793968 103.130377 
L 345.038621 105.908308 
L 345.283274 103.703566 
L 345.527927 103.630049 
L 345.77258 102.149778 
L 346.017233 97.652183 
L 346.261886 100.09807 
L 346.506539 98.890693 
L 346.751192 99.537399 
L 346.995845 99.627488 
L 347.240498 100.128197 
L 347.485151 99.178438 
L 347.729804 99.802379 
L 347.974457 99.070416 
L 348.21911 98.845973 
L 348.463763 96.083153 
L 348.708416 95.505327 
L 348.953069 96.756646 
L 349.197722 93.304022 
L 349.442375 97.844359 
L 349.687028 94.975107 
L 349.931681 94.567178 
L 350.176334 98.475143 
L 350.420987 95.767875 
L 350.66564 89.724794 
L 350.910293 88.55017 
L 351.154946 89.471034 
L 351.399599 89.628965 
L 351.644252 90.441451 
L 351.888905 88.39639 
L 352.133558 88.309415 
L 352.378211 89.348646 
L 352.622864 89.753786 
L 352.867517 91.037599 
L 353.11217 93.914764 
L 353.356823 93.268415 
L 353.601476 94.196122 
L 353.846129 94.159768 
L 354.090782 93.476644 
L 354.335435 94.699263 
L 354.824741 90.220282 
L 355.314047 88.002341 
L 355.5587 89.204692 
L 355.803353 88.845667 
L 356.048006 86.997291 
L 356.292659 81.792995 
L 356.537312 85.397972 
L 356.781965 83.960768 
L 357.026618 83.294863 
L 357.271271 78.428676 
L 357.515924 68.50526 
L 357.760577 68.57667 
L 358.00523 71.2458 
L 358.494536 63.670594 
L 358.739189 63.969074 
L 359.228495 74.16681 
L 359.473148 69.305065 
L 359.962454 66.150208 
L 360.207107 68.300761 
L 360.451761 68.677168 
L 360.696414 67.922505 
L 360.941067 69.003537 
L 361.18572 67.91644 
L 361.430373 69.529217 
L 361.675026 68.704506 
L 361.919679 66.830089 
L 362.164332 67.9956 
L 362.408985 65.614021 
L 362.653638 65.002371 
L 362.898291 65.318395 
L 363.142944 84.769167 
L 363.63225 81.296469 
L 363.876903 89.749797 
L 364.121556 89.376503 
L 364.366209 89.738252 
L 364.610862 82.709059 
L 364.855515 85.702127 
L 365.100168 85.135846 
L 365.344821 86.520125 
L 365.589474 82.456078 
L 365.834127 86.508256 
L 366.07878 88.141852 
L 366.323433 87.237754 
L 366.568086 88.295924 
L 366.812739 87.233279 
L 367.057392 89.758359 
L 367.302045 91.073888 
L 367.546698 91.629143 
L 367.791351 88.836587 
L 368.036004 87.49453 
L 368.280657 85.220519 
L 368.52531 85.818678 
L 368.769963 80.81298 
L 369.014616 78.821169 
L 369.259269 77.989615 
L 369.748575 73.234823 
L 369.993228 76.286749 
L 370.237881 75.306929 
L 370.727187 69.39149 
L 370.97184 68.388969 
L 371.216493 76.47257 
L 371.461146 76.766996 
L 371.705799 78.217593 
L 371.950452 58.809823 
L 372.195105 60.858612 
L 372.439758 64.630179 
L 372.684411 62.448559 
L 372.929064 58.731376 
L 373.41837 55.67786 
L 373.663023 63.098994 
L 373.907676 57.490337 
L 374.396982 51.892446 
L 374.641635 54.843972 
L 374.886288 60.660372 
L 375.130941 61.31979 
L 375.375594 59.826159 
L 375.8649 55.051033 
L 376.109553 56.509673 
L 376.354206 55.566238 
L 376.598859 55.291464 
L 376.843512 47.906165 
L 377.088165 47.726052 
L 377.332818 45.663383 
L 378.31143 53.794136 
L 378.556083 54.950664 
L 378.800736 50.12576 
L 379.045389 55.627335 
L 379.290042 57.733817 
L 379.534695 58.704914 
L 379.779348 54.9733 
L 380.024001 56.30459 
L 380.268654 59.442811 
L 380.513307 64.178016 
L 380.75796 71.753223 
L 381.002613 75.859525 
L 381.491919 67.698061 
L 381.736572 67.564549 
L 381.981225 69.285478 
L 382.225878 67.105317 
L 382.715184 68.230421 
L 382.959838 67.486946 
L 383.449144 64.034549 
L 383.693797 63.416089 
L 383.93845 63.727508 
L 384.427756 62.311707 
L 384.672409 59.818311 
L 384.917062 55.725369 
L 385.161715 54.46591 
L 385.406368 61.676448 
L 385.651021 62.803887 
L 385.895674 61.596672 
L 386.140327 62.831031 
L 386.38498 61.57916 
L 386.629633 61.068819 
L 386.874286 56.82119 
L 387.363592 38.6147 
L 387.608245 34.414125 
L 387.852898 39.452642 
L 387.852898 39.452642 
" style="fill:none;stroke:#1f77b4;stroke-linecap:square;stroke-width:1.5;"/>
   </g>
   <g id="line2d_28">
    <path clip-path="url(#pb91c8c3718)" d="M 63.198352 217.099261 
L 63.443005 214.102601 
L 63.687658 209.320698 
L 63.932311 210.51086 
L 64.176964 210.21332 
L 64.66627 205.728957 
L 65.155576 206.55782 
L 65.644882 206.005245 
L 65.889535 203.476149 
L 66.134188 202.96608 
L 66.378841 203.221114 
L 66.623494 201.542135 
L 67.1128 192.807192 
L 67.357453 195.570069 
L 67.602106 191.680788 
L 67.846759 193.572296 
L 68.091412 193.38102 
L 68.336066 189.598003 
L 68.825372 190.278096 
L 69.070025 193.189744 
L 69.314678 192.785939 
L 69.559331 189.831785 
L 69.803984 191.25573 
L 70.29329 188.152806 
L 70.537943 193.52979 
L 70.782596 194.18863 
L 71.761208 182.287004 
L 72.005861 181.649417 
L 72.250514 181.585658 
L 72.495167 182.627051 
L 72.73982 182.201993 
L 72.984473 185.028629 
L 73.229126 190.256843 
L 73.473779 192.785939 
L 73.718432 187.897771 
L 73.963085 192.21211 
L 74.207738 194.54993 
L 74.452391 193.976101 
L 74.697044 190.89443 
L 74.941697 192.297122 
L 75.431003 200.98956 
L 75.675656 201.690905 
L 75.920309 200.160696 
L 76.164962 204.049978 
L 76.409615 203.561161 
L 76.654268 202.030952 
L 76.898921 197.461578 
L 77.143574 199.034292 
L 77.388227 202.668539 
L 77.63288 209.596986 
L 77.877533 202.243481 
L 78.122186 208.53434 
L 78.366839 207.471695 
L 79.100798 213.996337 
L 79.345451 213.635037 
L 79.590104 219.628356 
L 79.834757 217.248031 
L 80.07941 217.800606 
L 80.568716 231.487477 
L 80.813369 228.66084 
L 81.058022 229.936015 
L 81.302675 229.914762 
L 81.547328 231.742511 
L 81.791981 235.164229 
L 82.036634 234.547895 
L 82.281287 222.986315 
L 82.52594 224.452765 
L 82.770593 224.218983 
L 83.015246 221.243577 
L 83.259899 215.760328 
L 83.504552 217.205525 
L 83.749205 217.758101 
L 83.993858 215.824086 
L 84.238511 217.056755 
L 84.483164 216.780467 
L 84.727817 219.925897 
L 84.97247 231.168683 
L 85.217123 228.597082 
L 85.461776 232.847662 
L 85.706429 233.889055 
L 85.951082 230.382326 
L 86.195735 231.104924 
L 86.440388 233.93156 
L 86.685041 239.967385 
L 86.929694 237.225761 
L 87.174347 232.656386 
L 87.663653 236.354391 
L 87.908306 237.07699 
L 88.152959 236.821955 
L 88.397612 238.989752 
L 88.642265 238.373417 
L 88.886918 240.031144 
L 89.376224 228.065759 
L 89.620877 230.169796 
L 89.86553 234.739171 
L 90.110183 235.695551 
L 90.354836 235.270493 
L 90.599489 237.757083 
L 90.844143 235.801816 
L 91.088796 236.77945 
L 91.578102 247.214625 
L 91.822755 241.093789 
L 92.312061 242.942792 
L 92.556714 241.497594 
L 92.801367 238.692211 
L 93.04602 257.968595 
L 93.290673 261.199036 
L 93.779979 255.609522 
L 94.513938 257.033467 
L 94.758591 260.455184 
L 95.003244 255.73704 
L 95.247897 255.88581 
L 95.737203 250.551331 
L 95.981856 249.042375 
L 96.226509 252.697875 
L 96.715815 253.080427 
L 96.960468 255.035694 
L 97.205121 255.099453 
L 97.449774 258.478664 
L 97.694427 259.328781 
L 97.93908 257.883583 
L 98.183733 260.306414 
L 98.428386 258.436159 
L 98.917692 260.731472 
L 99.406998 267.213608 
L 99.651651 263.855649 
L 99.896304 265.513376 
L 100.140957 264.025672 
L 100.38561 263.685626 
L 100.630263 261.81537 
L 100.874916 264.684512 
L 101.119569 264.705765 
L 101.364222 263.430591 
L 101.853528 256.39588 
L 102.098181 256.757179 
L 102.342834 257.501031 
L 102.587487 257.288502 
L 102.83214 254.504371 
L 103.076793 253.994302 
L 103.321446 254.738153 
L 103.810752 260.34892 
L 104.055405 264.535742 
L 104.300058 264.259454 
L 104.544711 263.600614 
L 105.034017 266.257227 
L 105.27867 265.343352 
L 105.523323 265.10957 
L 105.767976 262.47421 
L 106.012629 262.878015 
L 106.257282 264.259454 
L 106.501935 267.277367 
L 106.746588 265.343352 
L 106.991241 272.463075 
L 107.235894 275.714769 
L 107.480547 276.182333 
L 107.969853 271.442936 
L 108.214506 271.655465 
L 108.459159 270.762843 
L 108.703812 268.084977 
L 109.193118 260.327667 
L 109.437771 261.369059 
L 110.17173 254.865671 
L 110.416383 255.503258 
L 110.661036 253.930543 
L 110.905689 256.077086 
L 111.150342 257.224743 
L 111.394995 256.69342 
L 111.884301 264.556995 
L 112.128954 262.814257 
L 112.373607 263.218062 
L 112.61826 260.263908 
L 112.862913 261.262795 
L 113.107566 260.752725 
L 113.35222 260.518943 
L 113.596873 259.605068 
L 113.841526 260.731472 
L 114.086179 259.668827 
L 114.330832 257.649801 
L 114.575485 258.202377 
L 114.820138 257.904836 
L 115.064791 258.329894 
L 115.309444 259.605068 
L 115.554097 261.624094 
L 115.79875 260.603955 
L 116.043403 261.496577 
L 116.288056 261.900382 
L 116.532709 263.536855 
L 116.777362 262.389199 
L 117.022015 264.174443 
L 117.266668 263.600614 
L 117.511321 263.664373 
L 118.000627 268.191241 
L 118.24528 269.211381 
L 118.489933 272.526834 
L 118.734586 272.505581 
L 119.223892 275.2047 
L 119.468545 274.354584 
L 119.957851 267.702425 
L 120.202504 267.001079 
L 120.69181 268.743817 
L 120.936463 266.512262 
L 121.181116 267.022332 
L 121.425769 265.024559 
L 121.670422 265.258341 
L 121.915075 264.982053 
L 122.159728 264.131937 
L 122.404381 264.110684 
L 122.649034 263.664373 
L 122.893687 265.725905 
L 123.13834 265.322099 
L 123.382993 267.532401 
L 123.627646 261.00776 
L 123.872299 261.624094 
L 124.116952 260.85899 
L 124.606258 257.118479 
L 124.850911 257.35226 
L 125.340217 254.313095 
L 125.58487 252.230311 
L 125.829523 253.505485 
L 126.074176 253.569244 
L 126.318829 254.780659 
L 126.563482 256.778432 
L 126.808135 252.846645 
L 127.052788 246.109474 
L 127.297441 243.410356 
L 127.542094 243.580379 
L 128.0314 240.604972 
L 128.276053 242.623998 
L 128.520706 242.220193 
L 128.765359 242.05017 
L 129.010012 242.645251 
L 129.254665 242.05017 
L 129.499318 246.407015 
L 129.743971 245.705669 
L 129.988624 245.471887 
L 130.233277 246.832073 
L 130.47793 246.407015 
L 130.722583 243.346597 
L 130.967236 244.387989 
L 131.211889 243.495367 
L 131.456542 241.072536 
L 131.701195 244.579265 
L 131.945848 252.74038 
L 132.190501 251.231424 
L 132.435154 253.611749 
L 132.679807 258.096112 
L 132.92446 256.502144 
L 133.413766 251.358942 
L 133.658419 252.846645 
L 133.903072 245.790681 
L 134.147725 246.258245 
L 134.392378 248.553558 
L 134.637031 247.129614 
L 134.881684 248.192259 
L 135.126337 249.998756 
L 135.37099 246.598291 
L 135.615643 246.109474 
L 135.860297 247.97973 
L 136.10495 248.107247 
L 136.349603 246.66205 
L 136.594256 248.723582 
L 137.083562 246.088221 
L 138.55148 240.243673 
L 138.796133 236.460656 
L 139.040786 236.906967 
L 139.530092 233.251468 
L 139.774745 235.057964 
L 140.019398 233.867802 
L 140.264051 237.884601 
L 140.508704 235.376758 
L 140.99801 236.864461 
L 141.242663 234.824182 
L 141.487316 235.227988 
L 141.731969 236.588173 
L 141.976622 239.159775 
L 142.221275 236.694438 
L 142.465928 237.162002 
L 142.955234 236.673185 
L 143.199887 234.399124 
L 143.44454 235.355505 
L 143.689193 237.289519 
L 143.933846 237.013232 
L 144.178499 238.39467 
L 144.423152 236.524415 
L 144.667805 236.92822 
L 144.912458 235.738057 
L 145.646417 225.919216 
L 145.89107 227.385666 
L 146.135723 222.816292 
L 146.380376 223.220097 
L 146.625029 222.327475 
L 146.869682 224.729053 
L 147.114335 222.773786 
L 147.358988 223.050074 
L 147.603641 224.325248 
L 147.848294 224.55903 
L 148.092947 226.429285 
L 148.3376 225.494158 
L 148.582253 226.259262 
L 148.826906 227.534436 
L 149.071559 229.447198 
L 149.316212 228.065759 
L 149.560865 221.668635 
L 149.805518 222.391234 
L 150.294824 224.7078 
L 150.539477 226.38678 
L 150.78413 224.41026 
L 151.028783 226.811838 
L 151.273436 230.509843 
L 151.518089 229.617221 
L 151.762742 230.786131 
L 152.007395 229.744738 
L 152.252048 231.848776 
L 152.496701 232.953927 
L 152.741354 232.103811 
L 153.23066 225.536663 
L 153.475313 226.471791 
L 153.719966 230.594855 
L 153.964619 228.044506 
L 154.209272 227.300654 
L 154.453925 225.897963 
L 154.698578 228.958381 
L 154.943231 227.619448 
L 155.187884 240.966272 
L 155.432537 242.70901 
L 155.67719 243.00655 
L 156.166496 242.475228 
L 156.411149 240.286179 
L 156.655802 239.117269 
L 156.900455 239.138522 
L 157.634414 232.018799 
L 157.879067 232.040052 
L 158.12372 229.447198 
L 158.368374 229.595968 
L 158.613027 228.979634 
L 159.102333 233.485249 
L 159.346986 235.270493 
L 159.591639 234.5904 
L 160.080945 237.672072 
L 160.325598 234.547895 
L 160.570251 234.972953 
L 160.814904 234.526642 
L 161.059557 233.463997 
L 161.30421 233.12395 
L 161.548863 233.612767 
L 161.793516 233.697779 
L 162.038169 233.549008 
L 162.282822 231.997546 
L 162.527475 231.827523 
L 163.016781 235.440517 
L 163.261434 234.824182 
L 163.506087 233.421491 
L 163.75074 233.463997 
L 163.995393 234.229101 
L 164.240046 232.97518 
L 164.729352 229.277175 
L 164.974005 230.871142 
L 165.218658 231.572488 
L 165.463311 231.763764 
L 165.707964 231.785017 
L 165.952617 230.297314 
L 166.19727 230.021026 
L 166.441923 231.168683 
L 166.931229 235.823069 
L 167.175882 235.823069 
L 167.420535 233.740284 
L 167.909841 236.991979 
L 168.154494 236.354391 
L 168.399147 237.502048 
L 168.6438 237.183255 
L 169.133106 233.485249 
L 169.377759 233.315226 
L 169.622412 235.440517 
L 169.867065 222.369981 
L 170.111718 221.094807 
L 170.356371 214.378889 
L 170.845677 215.590304 
L 171.334983 214.846453 
L 171.579636 212.296104 
L 171.824289 214.272624 
L 172.068942 214.910212 
L 172.558248 216.971743 
L 172.802901 214.761441 
L 173.047554 214.485153 
L 173.292207 214.442648 
L 173.53686 215.972857 
L 174.026166 211.190953 
L 174.270819 211.148448 
L 174.760125 210.383343 
L 175.004778 208.300558 
L 175.249431 204.793829 
L 175.494084 205.303899 
L 175.738737 201.839676 
L 175.98339 202.562274 
L 176.228043 203.879954 
L 176.717349 198.970534 
L 176.962002 198.205429 
L 177.206655 198.758005 
L 177.451308 195.612575 
L 177.695961 194.443665 
L 177.940614 195.272528 
L 178.42992 200.755778 
L 178.674573 198.80051 
L 178.919226 199.055545 
L 179.163879 198.843016 
L 179.408532 199.523109 
L 179.653185 201.542135 
L 179.897838 201.712158 
L 180.142491 202.881068 
L 180.387144 202.711045 
L 180.631798 201.563388 
L 181.121104 197.249048 
L 181.365757 195.995127 
L 181.61041 196.080139 
L 181.855063 194.911229 
L 182.099716 190.788166 
L 182.344369 192.105846 
L 182.589022 192.020834 
L 182.833675 192.785939 
L 183.078328 192.382134 
L 183.322981 189.768026 
L 183.567634 192.169604 
L 183.812287 193.317261 
L 184.05694 196.909002 
L 184.301593 194.061113 
L 184.546246 195.102505 
L 184.790899 193.444779 
L 185.035552 188.195311 
L 185.280205 188.535358 
L 185.524858 187.175172 
L 185.769511 184.30603 
L 186.014164 185.666216 
L 186.258817 186.155033 
L 186.50347 191.574523 
L 186.748123 190.448119 
L 187.237429 192.594663 
L 187.482082 192.934709 
L 187.726735 193.954848 
L 187.971388 193.402273 
L 188.216041 190.74566 
L 188.460694 190.788166 
L 188.705347 188.089047 
L 188.95 187.536471 
L 189.194653 186.516332 
L 189.683959 181.096842 
L 190.173265 180.990577 
L 190.417918 179.417862 
L 190.662571 178.950298 
L 190.907224 180.331737 
L 191.151877 177.696377 
L 191.39653 177.441342 
L 191.641183 176.91002 
L 191.885836 175.209787 
L 192.130489 184.476053 
L 192.375142 186.218791 
L 192.619795 184.412295 
L 193.109101 186.495079 
L 193.353754 180.097955 
L 193.84306 178.695263 
L 194.087713 178.759022 
L 194.332366 180.395496 
L 194.577019 178.865287 
L 194.821672 178.418976 
L 195.066325 180.182967 
L 195.310978 179.970438 
L 195.555631 176.612479 
L 195.800284 178.503987 
L 196.044937 186.750114 
L 196.28959 180.629278 
L 196.534243 181.989464 
L 196.778896 180.629278 
L 197.023549 183.965984 
L 197.268202 182.435775 
L 197.512855 183.030856 
L 197.757508 183.030856 
L 198.002161 184.879858 
L 198.246814 180.523013 
L 198.491467 180.055449 
L 198.73612 180.671784 
L 199.225426 184.879858 
L 199.714732 190.171832 
L 199.959385 187.175172 
L 200.693344 175.868627 
L 200.937997 171.958093 
L 201.18265 171.12923 
L 201.427303 171.363012 
L 201.671956 167.898788 
L 201.916609 166.623614 
L 202.161262 167.388719 
L 202.650568 162.245516 
L 202.895221 163.945748 
L 203.139875 163.393173 
L 203.384528 163.733219 
L 203.629181 163.074379 
L 203.873834 163.456931 
L 204.118487 161.607929 
L 204.852446 152.086628 
L 205.097099 152.490433 
L 205.341752 149.345003 
L 205.586405 151.045236 
L 205.831058 147.559759 
L 206.075711 147.219713 
L 206.320364 142.650339 
L 206.565017 144.818135 
L 206.80967 141.842728 
L 207.054323 141.991499 
L 207.298976 150.195119 
L 207.543629 151.130247 
L 207.788282 148.36737 
L 208.277588 150.34389 
L 208.522241 155.869645 
L 208.766894 152.214145 
L 209.011547 156.826025 
L 209.2562 157.527371 
L 209.990159 167.877535 
L 210.479465 155.338322 
L 210.724118 157.187325 
L 210.968771 154.721988 
L 211.458077 156.698508 
L 211.70273 152.490433 
L 211.947383 152.660456 
L 212.192036 155.61461 
L 212.436689 160.162731 
L 212.681342 162.394286 
L 212.925995 168.940181 
L 213.170648 168.918928 
L 213.415301 165.752245 
L 213.659954 156.953543 
L 213.904607 156.698508 
L 214.14926 162.564309 
L 214.393913 160.502778 
L 214.638566 161.3954 
L 214.883219 167.728765 
L 215.127872 169.492756 
L 215.372525 163.690713 
L 215.617178 161.926722 
L 215.861831 155.869645 
L 216.106484 154.636976 
L 216.351137 154.381942 
L 216.59579 162.798091 
L 217.085096 142.055257 
L 217.329749 145.753263 
L 217.574402 142.629086 
L 217.819055 142.58658 
L 218.063708 140.652566 
L 218.308361 139.844955 
L 218.553014 141.991499 
L 218.797667 140.312519 
L 219.531626 125.988062 
L 220.020932 123.076414 
L 220.265585 121.184906 
L 220.510238 121.758734 
L 220.754891 119.527179 
L 220.999544 112.088663 
L 221.244197 113.852654 
L 221.48885 121.036135 
L 221.733503 117.593165 
L 221.978156 121.737481 
L 222.222809 120.398548 
L 222.467462 119.82472 
L 222.712115 121.567458 
L 222.956768 126.094327 
L 223.201421 125.690521 
L 223.446074 124.542865 
L 223.93538 134.956787 
L 224.180033 130.259896 
L 224.424686 132.087645 
L 224.669339 129.19725 
L 225.158645 121.716228 
L 225.403298 123.77776 
L 225.647952 127.178225 
L 225.892605 124.394094 
L 226.137258 125.499245 
L 226.381911 132.533956 
L 226.626564 130.706207 
L 226.871217 132.810244 
L 227.11587 126.179338 
L 227.360523 130.302401 
L 227.605176 130.684954 
L 227.849829 128.410893 
L 228.094482 124.096554 
L 228.339135 126.944443 
L 228.583788 127.815812 
L 229.073094 124.627876 
L 229.317747 125.159199 
L 229.5624 126.328108 
L 229.807053 125.307969 
L 230.051706 126.604396 
L 230.296359 129.622309 
L 230.541012 123.565231 
L 230.785665 125.031681 
L 231.274971 119.16588 
L 231.519624 117.869453 
L 231.764277 112.832515 
L 232.253583 121.354929 
L 232.498236 128.772192 
L 232.742889 120.696089 
L 232.987542 121.227412 
L 233.232195 127.390754 
L 233.476848 129.069733 
L 233.721501 128.53841 
L 233.966154 123.522725 
L 234.210807 126.285603 
L 234.45546 127.263236 
L 234.700113 126.944443 
L 234.944766 120.696089 
L 235.189419 121.078641 
L 235.434072 118.060729 
L 235.678725 118.315764 
L 235.923378 118.337017 
L 236.412684 113.066297 
L 236.657337 119.272144 
L 236.90199 114.128942 
L 237.146643 114.681517 
L 237.391296 117.869453 
L 237.635949 117.33813 
L 237.880602 118.549546 
L 238.125255 118.209499 
L 239.103867 123.947783 
L 239.34852 120.844859 
L 239.593173 121.461194 
L 239.837826 124.479106 
L 240.082479 125.010428 
L 240.327132 123.565231 
L 240.571785 124.202818 
L 240.816438 122.97015 
L 241.061091 125.690521 
L 241.305744 123.543978 
L 241.550397 124.776647 
L 241.79505 122.481333 
L 242.284356 125.371728 
L 242.529009 130.089872 
L 243.018315 125.690521 
L 243.262968 126.030568 
L 243.752274 127.624536 
L 244.24158 139.568668 
L 244.730886 127.688294 
L 244.975539 127.794559 
L 245.709498 119.272144 
L 245.954151 114.065183 
L 246.198804 116.870566 
L 246.443457 128.623422 
L 246.68811 128.75094 
L 246.932763 130.153631 
L 247.177416 133.830384 
L 247.422069 132.533956 
L 247.666722 133.36282 
L 247.911375 134.6805 
L 248.156029 136.95456 
L 248.645335 151.108994 
L 248.889988 149.493774 
L 249.134641 150.067602 
L 249.379294 149.238739 
L 249.623947 140.312519 
L 249.8686 153.553078 
L 250.113253 149.83382 
L 250.357906 150.025096 
L 250.602559 148.303611 
L 250.847212 145.753263 
L 251.091865 147.155954 
L 251.336518 150.322637 
L 251.581171 155.338322 
L 251.825824 169.981573 
L 252.070477 175.59234 
L 252.31513 174.274659 
L 252.559783 161.629182 
L 252.804436 154.764494 
L 253.049089 153.978136 
L 253.293742 155.10454 
L 253.538395 165.816004 
L 253.783048 155.997162 
L 254.272354 162.521804 
L 254.517007 156.060921 
L 254.76166 160.651548 
L 255.250966 152.022869 
L 255.740272 147.623518 
L 255.984925 147.34723 
L 256.229578 152.639203 
L 256.474231 153.63809 
L 256.718884 149.897579 
L 256.963537 153.744354 
L 257.452843 150.34389 
L 257.697496 150.960224 
L 257.942149 155.784633 
L 258.186802 162.968115 
L 258.431455 160.332755 
L 258.676108 161.862964 
L 258.920761 160.162731 
L 259.410067 158.186211 
L 259.65472 159.312615 
L 259.899373 162.032987 
L 260.144026 156.464726 
L 260.388679 157.569877 
L 260.633332 157.166072 
L 260.877985 160.524031 
L 261.122638 157.017302 
L 261.367291 158.76004 
L 261.611944 157.293589 
L 261.856597 152.957997 
L 262.10125 152.97925 
L 262.345903 149.281245 
L 262.590556 141.672705 
L 262.835209 149.748808 
L 263.079862 151.30027 
L 263.324515 141.2689 
L 263.569168 138.591034 
L 263.813821 140.780083 
L 264.303127 134.255442 
L 264.54778 135.466857 
L 264.792433 137.762171 
L 265.037086 137.46463 
L 265.281739 138.506022 
L 265.526392 146.582126 
L 266.015698 148.813681 
L 266.260351 155.997162 
L 266.505004 152.107881 
L 266.749657 153.12802 
L 266.99431 145.476975 
L 267.238963 142.310292 
L 267.483616 141.205141 
L 267.728269 144.499341 
L 267.972922 142.097763 
L 268.217575 143.90426 
L 268.462228 144.371824 
L 268.706881 143.330432 
L 269.44084 149.918832 
L 269.685493 141.77897 
L 269.930146 143.372937 
L 270.174799 143.479202 
L 270.419452 149.02621 
L 270.664106 147.8573 
L 270.908759 154.211918 
L 271.153412 155.699622 
L 271.398065 159.928949 
L 271.642718 158.122453 
L 272.132024 169.407744 
L 272.376677 166.644867 
L 272.62133 166.857396 
L 272.865983 163.924495 
L 273.110636 165.157164 
L 273.355289 167.728765 
L 273.599942 163.648208 
L 274.089248 171.044218 
L 274.333901 170.852942 
L 275.06786 189.768026 
L 275.312513 188.684128 
L 275.801819 182.308257 
L 276.046472 187.770253 
L 276.291125 183.243385 
L 276.535778 188.322829 
L 276.780431 189.321715 
L 277.025084 189.045428 
L 277.269737 190.08682 
L 277.51439 179.205333 
L 277.759043 183.413408 
L 278.003696 182.244498 
L 278.248349 196.207656 
L 278.493002 194.783712 
L 278.737655 187.876518 
L 278.982308 189.810532 
L 279.226961 193.954848 
L 279.471614 189.980555 
L 279.716267 189.449233 
L 279.96092 194.932482 
L 280.205573 192.828444 
L 280.450226 192.87095 
L 280.939532 195.612575 
L 281.184185 194.996241 
L 281.673491 186.218791 
L 281.918144 190.171832 
L 282.162797 190.639395 
L 282.40745 188.854151 
L 282.652103 193.508537 
L 282.896756 190.511878 
L 283.141409 189.109186 
L 283.386062 188.790393 
L 283.630715 188.705381 
L 283.875368 189.257957 
L 284.120021 181.096842 
L 284.364674 180.629278 
L 284.609327 179.03531 
L 284.85398 175.826121 
L 285.343286 180.034196 
L 285.832592 179.736656 
L 286.077245 177.420089 
L 286.321898 176.867514 
L 286.811204 169.535262 
L 287.055857 169.896561 
L 287.30051 169.641526 
L 287.545163 169.662779 
L 287.789816 167.941294 
L 288.523775 171.192988 
L 289.013081 161.905469 
L 289.257734 163.116885 
L 289.74704 158.590016 
L 289.991693 161.374147 
L 290.236346 158.930063 
L 290.480999 164.073266 
L 290.725652 163.818231 
L 290.970305 163.053126 
L 291.459611 156.634749 
L 291.704264 156.507232 
L 292.19357 166.326073 
L 292.438223 167.537489 
L 292.682876 167.069925 
L 292.92753 169.535262 
L 293.172183 170.151596 
L 293.661489 172.978232 
L 293.906142 186.856379 
L 294.150795 193.210997 
L 294.395448 195.527563 
L 294.640101 195.740092 
L 294.884754 192.467145 
L 295.37406 196.590208 
L 295.618713 197.695359 
L 295.863366 197.546589 
L 296.108019 196.207656 
L 296.352672 198.14167 
L 296.597325 202.753551 
L 296.841978 202.370998 
L 297.086631 195.230023 
L 297.331284 196.058886 
L 297.575937 193.784825 
L 297.82059 194.54993 
L 298.309896 189.810532 
L 299.043855 181.351876 
L 299.288508 181.479394 
L 299.533161 182.520786 
L 299.777814 185.496193 
L 300.022467 187.068908 
L 300.26712 186.643849 
L 300.756426 184.284777 
L 301.001079 184.476053 
L 301.245732 182.967097 
L 301.490385 184.709835 
L 301.735038 187.876518 
L 301.979691 187.621483 
L 302.224344 188.301576 
L 302.468997 187.430207 
L 302.71365 192.148352 
L 302.958303 192.637168 
L 303.202956 190.915683 
L 303.447609 191.680788 
L 303.692262 190.511878 
L 303.936915 196.250162 
L 304.181568 199.140557 
L 304.426221 195.846357 
L 304.670874 194.124872 
L 304.915527 191.574523 
L 305.16018 190.958189 
L 305.404833 192.87095 
L 306.383445 188.641622 
L 306.628098 187.706495 
L 306.872751 188.875404 
L 307.117404 184.794847 
L 307.362057 184.8161 
L 307.60671 182.584545 
L 308.096016 182.308257 
L 308.585322 185.071135 
L 308.829975 187.876518 
L 309.074628 189.300462 
L 309.319281 175.953639 
L 309.563934 172.999485 
L 309.808587 173.275773 
L 310.05324 169.365239 
L 310.297893 172.701945 
L 310.542546 169.917814 
L 310.787199 169.747791 
L 311.276505 164.434565 
L 311.521158 163.499437 
L 311.765811 165.220922 
L 312.010464 165.369693 
L 312.255117 164.83837 
L 312.49977 162.075493 
L 312.989076 162.628068 
L 313.233729 162.925609 
L 313.478382 162.330528 
L 313.723035 164.137024 
L 313.967688 163.414426 
L 314.456994 166.134797 
L 314.701647 167.47373 
L 314.9463 167.728765 
L 315.190953 169.471503 
L 315.435607 169.258974 
L 315.68026 167.920041 
L 315.924913 165.794751 
L 316.169566 165.85851 
L 316.414219 164.455818 
L 316.903525 175.571087 
L 317.392831 165.327187 
L 317.882137 149.132474 
L 318.12679 150.513913 
L 318.371443 153.361802 
L 318.860749 153.425561 
L 319.105402 151.1515 
L 319.350055 155.210805 
L 319.839361 154.403194 
L 320.084014 152.575445 
L 320.328667 156.337209 
L 320.57332 154.488206 
L 320.817973 155.61461 
L 321.062626 154.594471 
L 321.307279 154.488206 
L 321.551932 152.702962 
L 321.796585 152.341663 
L 322.041238 148.112335 
L 322.285891 147.581012 
L 322.530544 145.37071 
L 322.775197 146.135815 
L 323.01985 144.754376 
L 323.509156 145.094423 
L 323.753809 145.838274 
L 323.998462 145.965792 
L 324.243115 146.943425 
L 324.732421 143.436696 
L 324.977074 149.089968 
L 325.46638 153.064261 
L 325.711033 153.446814 
L 325.955686 157.803659 
L 326.200339 157.59113 
L 326.689645 163.435679 
L 326.934298 160.098973 
L 327.178951 158.717534 
L 327.423604 159.100086 
L 327.668257 165.667233 
L 327.91291 164.307048 
L 328.157563 170.087837 
L 328.402216 167.112431 
L 328.646869 160.991595 
L 328.891522 161.076606 
L 329.136175 160.842824 
L 329.380828 157.293589 
L 329.625481 157.144819 
L 329.870134 158.356235 
L 330.114787 157.166072 
L 330.604093 157.867418 
L 331.093399 162.05424 
L 331.338052 161.182871 
L 331.582705 162.86185 
L 332.072011 158.781293 
L 332.316664 156.464726 
L 332.561317 152.575445 
L 332.80597 153.956883 
L 333.050623 149.940085 
L 333.295276 149.940085 
L 333.539929 148.601152 
L 333.784582 148.282358 
L 334.029235 146.858414 
L 334.273888 146.199574 
L 334.518541 145.965792 
L 334.763194 147.602265 
L 335.007847 147.113448 
L 335.2525 145.540734 
L 335.497153 146.603379 
L 335.741806 146.667137 
L 335.986459 148.601152 
L 336.231112 147.899806 
L 336.475765 148.176094 
L 336.720418 146.922172 
L 337.209724 141.863981 
L 337.454377 141.608946 
L 337.69903 140.24876 
L 337.943684 141.311406 
L 338.188337 141.757717 
L 338.43299 139.717438 
L 338.677643 139.738691 
L 338.922296 140.185002 
L 339.166949 139.717438 
L 339.411602 139.547415 
L 339.656255 139.781197 
L 339.900908 135.721892 
L 340.390214 135.573122 
L 340.87952 136.848296 
L 341.124173 121.121147 
L 341.368826 121.588711 
L 341.613479 120.419801 
L 342.102785 115.21284 
L 342.592091 113.321331 
L 342.836744 113.958918 
L 343.081397 111.472329 
L 343.32605 107.795576 
L 343.570703 106.754184 
L 343.815356 107.115483 
L 344.060009 106.307873 
L 344.304662 104.225089 
L 344.549315 103.353719 
L 344.793968 104.586388 
L 345.038621 104.3101 
L 345.283274 103.736272 
L 345.527927 103.608754 
L 345.77258 97.657941 
L 346.017233 99.421932 
L 346.261886 97.679194 
L 346.506539 98.614322 
L 346.751192 98.23177 
L 347.240498 100.017014 
L 347.485151 99.03938 
L 347.729804 98.911863 
L 347.974457 99.358174 
L 348.21911 96.233997 
L 348.463763 95.74518 
L 348.708416 97.232883 
L 348.953069 94.108706 
L 349.197722 97.551677 
L 349.442375 94.193718 
L 349.931681 95.851444 
L 350.176334 95.341375 
L 350.420987 89.135527 
L 350.66564 88.455434 
L 351.154946 89.433067 
L 351.399599 89.348056 
L 351.644252 87.073995 
L 351.888905 88.667963 
L 352.378211 90.11316 
L 352.622864 90.47446 
L 352.867517 93.747407 
L 353.11217 93.386108 
L 353.356823 94.980075 
L 353.601476 93.322349 
L 354.090782 95.766433 
L 354.335435 92.025922 
L 354.580088 92.387221 
L 355.069394 87.584065 
L 355.314047 89.390562 
L 355.5587 89.15678 
L 355.803353 89.45432 
L 356.048006 83.22722 
L 356.292659 81.2507 
L 356.781965 83.333484 
L 357.026618 78.169028 
L 357.271271 69.561602 
L 357.515924 67.478818 
L 357.760577 69.03028 
L 358.00523 67.563829 
L 358.249883 62.994455 
L 358.739189 64.333388 
L 358.983842 75.427404 
L 359.228495 70.560489 
L 359.473148 69.455338 
L 359.717801 67.478818 
L 359.962454 67.882623 
L 360.207107 68.860257 
L 360.451761 67.733853 
L 360.696414 68.286428 
L 360.941067 68.158911 
L 361.18572 70.092925 
L 361.430373 69.200303 
L 361.675026 64.375894 
L 361.919679 67.606335 
L 362.164332 66.501184 
L 362.408985 64.545917 
L 362.653638 65.353527 
L 363.142944 85.692556 
L 363.387597 83.205967 
L 364.121556 92.387221 
L 364.366209 83.737289 
L 364.610862 86.563925 
L 364.855515 84.736176 
L 365.100168 85.246245 
L 365.344821 83.864807 
L 365.589474 84.84244 
L 365.834127 89.284297 
L 366.07878 84.821187 
L 366.323433 89.390562 
L 366.568086 88.667963 
L 366.812739 89.773114 
L 367.057392 88.519193 
L 367.302045 91.409588 
L 367.791351 86.457661 
L 368.036004 85.458774 
L 368.280657 85.012463 
L 368.769963 77.999005 
L 369.259269 75.788703 
L 369.503922 73.79093 
L 369.748575 75.236128 
L 369.993228 75.384898 
L 370.237881 71.51687 
L 370.727187 68.605222 
L 370.97184 74.768564 
L 371.461146 78.657845 
L 371.705799 75.852462 
L 371.950452 60.784153 
L 372.195105 64.120859 
L 372.439758 62.378121 
L 372.684411 57.234918 
L 373.173717 52.453015 
L 373.41837 64.652182 
L 374.152329 51.305358 
L 374.396982 52.686797 
L 374.641635 59.253944 
L 375.130941 60.635383 
L 375.375594 55.173387 
L 375.620247 54.748328 
L 375.8649 56.257285 
L 376.109553 55.003363 
L 376.598859 48.521228 
L 376.843512 47.5861 
L 377.088165 46.204661 
L 377.332818 46.098397 
L 377.577471 50.285219 
L 377.822124 50.646518 
L 378.066777 52.027957 
L 378.31143 57.61747 
L 378.556083 51.517887 
L 378.800736 52.878073 
L 379.290042 58.361322 
L 379.534695 54.960857 
L 379.779348 57.532459 
L 380.024001 57.404941 
L 380.75796 71.941928 
L 381.002613 74.789817 
L 381.247266 69.285315 
L 381.491919 66.968748 
L 381.736572 68.987774 
L 381.981225 67.20253 
L 382.225878 67.86137 
L 382.470531 66.437426 
L 382.715184 68.562716 
L 382.959838 64.503411 
L 383.204491 64.694687 
L 383.449144 63.547031 
L 383.693797 63.419513 
L 383.93845 62.038074 
L 384.183103 63.206984 
L 384.427756 61.102947 
L 384.672409 54.960857 
L 384.917062 53.706936 
L 385.161715 55.215892 
L 385.406368 63.24949 
L 385.651021 62.675662 
L 385.895674 62.845685 
L 386.140327 60.869165 
L 386.38498 62.335615 
L 386.629633 60.210325 
L 387.118939 40.423871 
L 387.363592 35.493198 
L 387.608245 40.062572 
L 387.852898 37.469718 
L 387.852898 37.469718 
" style="fill:none;stroke:#ff7f0e;stroke-linecap:square;stroke-width:1.5;"/>
   </g>
   <g id="patch_3">
    <path d="M 46.965625 288.430125 
L 46.965625 22.318125 
" style="fill:none;stroke:#000000;stroke-linecap:square;stroke-linejoin:miter;stroke-width:0.8;"/>
   </g>
   <g id="patch_4">
    <path d="M 404.085625 288.430125 
L 404.085625 22.318125 
" style="fill:none;stroke:#000000;stroke-linecap:square;stroke-linejoin:miter;stroke-width:0.8;"/>
   </g>
   <g id="patch_5">
    <path d="M 46.965625 288.430125 
L 404.085625 288.430125 
" style="fill:none;stroke:#000000;stroke-linecap:square;stroke-linejoin:miter;stroke-width:0.8;"/>
   </g>
   <g id="patch_6">
    <path d="M 46.965625 22.318125 
L 404.085625 22.318125 
" style="fill:none;stroke:#000000;stroke-linecap:square;stroke-linejoin:miter;stroke-width:0.8;"/>
   </g>
   <g id="text_16">
    <!-- Training: AAPL -->
    <defs>
     <path d="M -0.296875 72.90625 
L 61.375 72.90625 
L 61.375 64.59375 
L 35.5 64.59375 
L 35.5 0 
L 25.59375 0 
L 25.59375 64.59375 
L -0.296875 64.59375 
z
" id="DejaVuSans-84"/>
     <path d="M 54.890625 33.015625 
L 54.890625 0 
L 45.90625 0 
L 45.90625 32.71875 
Q 45.90625 40.484375 42.875 44.328125 
Q 39.84375 48.1875 33.796875 48.1875 
Q 26.515625 48.1875 22.3125 43.546875 
Q 18.109375 38.921875 18.109375 30.90625 
L 18.109375 0 
L 9.078125 0 
L 9.078125 54.6875 
L 18.109375 54.6875 
L 18.109375 46.1875 
Q 21.34375 51.125 25.703125 53.5625 
Q 30.078125 56 35.796875 56 
Q 45.21875 56 50.046875 50.171875 
Q 54.890625 44.34375 54.890625 33.015625 
z
" id="DejaVuSans-110"/>
     <path d="M 45.40625 27.984375 
Q 45.40625 37.75 41.375 43.109375 
Q 37.359375 48.484375 30.078125 48.484375 
Q 22.859375 48.484375 18.828125 43.109375 
Q 14.796875 37.75 14.796875 27.984375 
Q 14.796875 18.265625 18.828125 12.890625 
Q 22.859375 7.515625 30.078125 7.515625 
Q 37.359375 7.515625 41.375 12.890625 
Q 45.40625 18.265625 45.40625 27.984375 
z
M 54.390625 6.78125 
Q 54.390625 -7.171875 48.1875 -13.984375 
Q 42 -20.796875 29.203125 -20.796875 
Q 24.46875 -20.796875 20.265625 -20.09375 
Q 16.0625 -19.390625 12.109375 -17.921875 
L 12.109375 -9.1875 
Q 16.0625 -11.328125 19.921875 -12.34375 
Q 23.78125 -13.375 27.78125 -13.375 
Q 36.625 -13.375 41.015625 -8.765625 
Q 45.40625 -4.15625 45.40625 5.171875 
L 45.40625 9.625 
Q 42.625 4.78125 38.28125 2.390625 
Q 33.9375 0 27.875 0 
Q 17.828125 0 11.671875 7.65625 
Q 5.515625 15.328125 5.515625 27.984375 
Q 5.515625 40.671875 11.671875 48.328125 
Q 17.828125 56 27.875 56 
Q 33.9375 56 38.28125 53.609375 
Q 42.625 51.21875 45.40625 46.390625 
L 45.40625 54.6875 
L 54.390625 54.6875 
z
" id="DejaVuSans-103"/>
     <path d="M 11.71875 12.40625 
L 22.015625 12.40625 
L 22.015625 0 
L 11.71875 0 
z
M 11.71875 51.703125 
L 22.015625 51.703125 
L 22.015625 39.3125 
L 11.71875 39.3125 
z
" id="DejaVuSans-58"/>
     <path d="M 34.1875 63.1875 
L 20.796875 26.90625 
L 47.609375 26.90625 
z
M 28.609375 72.90625 
L 39.796875 72.90625 
L 67.578125 0 
L 57.328125 0 
L 50.6875 18.703125 
L 17.828125 18.703125 
L 11.1875 0 
L 0.78125 0 
z
" id="DejaVuSans-65"/>
     <path d="M 9.8125 72.90625 
L 19.671875 72.90625 
L 19.671875 8.296875 
L 55.171875 8.296875 
L 55.171875 0 
L 9.8125 0 
z
" id="DejaVuSans-76"/>
    </defs>
    <g transform="translate(182.591875 16.318125)scale(0.12 -0.12)">
     <use xlink:href="#DejaVuSans-84"/>
     <use x="46.333984" xlink:href="#DejaVuSans-114"/>
     <use x="87.447266" xlink:href="#DejaVuSans-97"/>
     <use x="148.726562" xlink:href="#DejaVuSans-105"/>
     <use x="176.509766" xlink:href="#DejaVuSans-110"/>
     <use x="239.888672" xlink:href="#DejaVuSans-105"/>
     <use x="267.671875" xlink:href="#DejaVuSans-110"/>
     <use x="331.050781" xlink:href="#DejaVuSans-103"/>
     <use x="394.527344" xlink:href="#DejaVuSans-58"/>
     <use x="428.21875" xlink:href="#DejaVuSans-32"/>
     <use x="460.005859" xlink:href="#DejaVuSans-65"/>
     <use x="531.164062" xlink:href="#DejaVuSans-65"/>
     <use x="599.572266" xlink:href="#DejaVuSans-80"/>
     <use x="659.875" xlink:href="#DejaVuSans-76"/>
    </g>
   </g>
   <g id="legend_1">
    <g id="patch_7">
     <path d="M 53.965625 59.674375 
L 137.69375 59.674375 
Q 139.69375 59.674375 139.69375 57.674375 
L 139.69375 29.318125 
Q 139.69375 27.318125 137.69375 27.318125 
L 53.965625 27.318125 
Q 51.965625 27.318125 51.965625 29.318125 
L 51.965625 57.674375 
Q 51.965625 59.674375 53.965625 59.674375 
z
" style="fill:#ffffff;opacity:0.8;stroke:#cccccc;stroke-linejoin:miter;"/>
    </g>
    <g id="line2d_29">
     <path d="M 55.965625 35.416562 
L 75.965625 35.416562 
" style="fill:none;stroke:#1f77b4;stroke-linecap:square;stroke-width:1.5;"/>
    </g>
    <g id="line2d_30"/>
    <g id="text_17">
     <!-- Predicted -->
     <defs>
      <path d="M 45.40625 46.390625 
L 45.40625 75.984375 
L 54.390625 75.984375 
L 54.390625 0 
L 45.40625 0 
L 45.40625 8.203125 
Q 42.578125 3.328125 38.25 0.953125 
Q 33.9375 -1.421875 27.875 -1.421875 
Q 17.96875 -1.421875 11.734375 6.484375 
Q 5.515625 14.40625 5.515625 27.296875 
Q 5.515625 40.1875 11.734375 48.09375 
Q 17.96875 56 27.875 56 
Q 33.9375 56 38.25 53.625 
Q 42.578125 51.265625 45.40625 46.390625 
z
M 14.796875 27.296875 
Q 14.796875 17.390625 18.875 11.75 
Q 22.953125 6.109375 30.078125 6.109375 
Q 37.203125 6.109375 41.296875 11.75 
Q 45.40625 17.390625 45.40625 27.296875 
Q 45.40625 37.203125 41.296875 42.84375 
Q 37.203125 48.484375 30.078125 48.484375 
Q 22.953125 48.484375 18.875 42.84375 
Q 14.796875 37.203125 14.796875 27.296875 
z
" id="DejaVuSans-100"/>
      <path d="M 18.3125 70.21875 
L 18.3125 54.6875 
L 36.8125 54.6875 
L 36.8125 47.703125 
L 18.3125 47.703125 
L 18.3125 18.015625 
Q 18.3125 11.328125 20.140625 9.421875 
Q 21.96875 7.515625 27.59375 7.515625 
L 36.8125 7.515625 
L 36.8125 0 
L 27.59375 0 
Q 17.1875 0 13.234375 3.875 
Q 9.28125 7.765625 9.28125 18.015625 
L 9.28125 47.703125 
L 2.6875 47.703125 
L 2.6875 54.6875 
L 9.28125 54.6875 
L 9.28125 70.21875 
z
" id="DejaVuSans-116"/>
     </defs>
     <g transform="translate(83.965625 38.916562)scale(0.1 -0.1)">
      <use xlink:href="#DejaVuSans-80"/>
      <use x="58.552734" xlink:href="#DejaVuSans-114"/>
      <use x="97.416016" xlink:href="#DejaVuSans-101"/>
      <use x="158.939453" xlink:href="#DejaVuSans-100"/>
      <use x="222.416016" xlink:href="#DejaVuSans-105"/>
      <use x="250.199219" xlink:href="#DejaVuSans-99"/>
      <use x="305.179688" xlink:href="#DejaVuSans-116"/>
      <use x="344.388672" xlink:href="#DejaVuSans-101"/>
      <use x="405.912109" xlink:href="#DejaVuSans-100"/>
     </g>
    </g>
    <g id="line2d_31">
     <path d="M 55.965625 50.094687 
L 75.965625 50.094687 
" style="fill:none;stroke:#ff7f0e;stroke-linecap:square;stroke-width:1.5;"/>
    </g>
    <g id="line2d_32"/>
    <g id="text_18">
     <!-- True value -->
     <defs>
      <path d="M 8.5 21.578125 
L 8.5 54.6875 
L 17.484375 54.6875 
L 17.484375 21.921875 
Q 17.484375 14.15625 20.5 10.265625 
Q 23.53125 6.390625 29.59375 6.390625 
Q 36.859375 6.390625 41.078125 11.03125 
Q 45.3125 15.671875 45.3125 23.6875 
L 45.3125 54.6875 
L 54.296875 54.6875 
L 54.296875 0 
L 45.3125 0 
L 45.3125 8.40625 
Q 42.046875 3.421875 37.71875 1 
Q 33.40625 -1.421875 27.6875 -1.421875 
Q 18.265625 -1.421875 13.375 4.4375 
Q 8.5 10.296875 8.5 21.578125 
z
M 31.109375 56 
z
" id="DejaVuSans-117"/>
      <path d="M 2.984375 54.6875 
L 12.5 54.6875 
L 29.59375 8.796875 
L 46.6875 54.6875 
L 56.203125 54.6875 
L 35.6875 0 
L 23.484375 0 
z
" id="DejaVuSans-118"/>
      <path d="M 9.421875 75.984375 
L 18.40625 75.984375 
L 18.40625 0 
L 9.421875 0 
z
" id="DejaVuSans-108"/>
     </defs>
     <g transform="translate(83.965625 53.594687)scale(0.1 -0.1)">
      <use xlink:href="#DejaVuSans-84"/>
      <use x="46.333984" xlink:href="#DejaVuSans-114"/>
      <use x="87.447266" xlink:href="#DejaVuSans-117"/>
      <use x="150.826172" xlink:href="#DejaVuSans-101"/>
      <use x="212.349609" xlink:href="#DejaVuSans-32"/>
      <use x="244.136719" xlink:href="#DejaVuSans-118"/>
      <use x="303.316406" xlink:href="#DejaVuSans-97"/>
      <use x="364.595703" xlink:href="#DejaVuSans-108"/>
      <use x="392.378906" xlink:href="#DejaVuSans-117"/>
      <use x="455.757812" xlink:href="#DejaVuSans-101"/>
     </g>
    </g>
   </g>
  </g>
 </g>
 <defs>
  <clipPath id="pb91c8c3718">
   <rect height="266.112" width="357.12" x="46.965625" y="22.318125"/>
  </clipPath>
 </defs>
</svg>
