<?xml version="1.0" encoding="utf-8" standalone="no"?>
<!DOCTYPE svg PUBLIC "-//W3C//DTD SVG 1.1//EN"
  "http://www.w3.org/Graphics/SVG/1.1/DTD/svg11.dtd">
<!-- Created with matplotlib (https://matplotlib.org/) -->
<svg height="325.986375pt" version="1.1" viewBox="0 0 411.285625 325.986375" width="411.285625pt" xmlns="http://www.w3.org/2000/svg" xmlns:xlink="http://www.w3.org/1999/xlink">
 <defs>
  <style type="text/css">
*{stroke-linecap:butt;stroke-linejoin:round;}
  </style>
 </defs>
 <g id="figure_1">
  <g id="patch_1">
   <path d="M 0 325.986375 
L 411.285625 325.986375 
L 411.285625 0 
L 0 0 
z
" style="fill:#ffffff;"/>
  </g>
  <g id="axes_1">
   <g id="patch_2">
    <path d="M 46.965625 288.430125 
L 404.085625 288.430125 
L 404.085625 22.318125 
L 46.965625 22.318125 
z
" style="fill:#ffffff;"/>
   </g>
   <g id="matplotlib.axis_1">
    <g id="xtick_1">
     <g id="line2d_1">
      <path clip-path="url(#p516d0609e4)" d="M 63.198352 288.430125 
L 63.198352 22.318125 
" style="fill:none;stroke:#b0b0b0;stroke-dasharray:2.96,1.28;stroke-dashoffset:0;stroke-width:0.8;"/>
     </g>
     <g id="line2d_2">
      <defs>
       <path d="M 0 0 
L 0 3.5 
" id="m0883468964" style="stroke:#000000;stroke-width:0.8;"/>
      </defs>
      <g>
       <use style="stroke:#000000;stroke-width:0.8;" x="63.198352" xlink:href="#m0883468964" y="288.430125"/>
      </g>
     </g>
     <g id="text_1">
      <!-- 0 -->
      <defs>
       <path d="M 31.78125 66.40625 
Q 24.171875 66.40625 20.328125 58.90625 
Q 16.5 51.421875 16.5 36.375 
Q 16.5 21.390625 20.328125 13.890625 
Q 24.171875 6.390625 31.78125 6.390625 
Q 39.453125 6.390625 43.28125 13.890625 
Q 47.125 21.390625 47.125 36.375 
Q 47.125 51.421875 43.28125 58.90625 
Q 39.453125 66.40625 31.78125 66.40625 
z
M 31.78125 74.21875 
Q 44.046875 74.21875 50.515625 64.515625 
Q 56.984375 54.828125 56.984375 36.375 
Q 56.984375 17.96875 50.515625 8.265625 
Q 44.046875 -1.421875 31.78125 -1.421875 
Q 19.53125 -1.421875 13.0625 8.265625 
Q 6.59375 17.96875 6.59375 36.375 
Q 6.59375 54.828125 13.0625 64.515625 
Q 19.53125 74.21875 31.78125 74.21875 
z
" id="DejaVuSans-48"/>
      </defs>
      <g transform="translate(60.017102 303.028562)scale(0.1 -0.1)">
       <use xlink:href="#DejaVuSans-48"/>
      </g>
     </g>
    </g>
    <g id="xtick_2">
     <g id="line2d_3">
      <path clip-path="url(#p516d0609e4)" d="M 112.128954 288.430125 
L 112.128954 22.318125 
" style="fill:none;stroke:#b0b0b0;stroke-dasharray:2.96,1.28;stroke-dashoffset:0;stroke-width:0.8;"/>
     </g>
     <g id="line2d_4">
      <g>
       <use style="stroke:#000000;stroke-width:0.8;" x="112.128954" xlink:href="#m0883468964" y="288.430125"/>
      </g>
     </g>
     <g id="text_2">
      <!-- 200 -->
      <defs>
       <path d="M 19.1875 8.296875 
L 53.609375 8.296875 
L 53.609375 0 
L 7.328125 0 
L 7.328125 8.296875 
Q 12.9375 14.109375 22.625 23.890625 
Q 32.328125 33.6875 34.8125 36.53125 
Q 39.546875 41.84375 41.421875 45.53125 
Q 43.3125 49.21875 43.3125 52.78125 
Q 43.3125 58.59375 39.234375 62.25 
Q 35.15625 65.921875 28.609375 65.921875 
Q 23.96875 65.921875 18.8125 64.3125 
Q 13.671875 62.703125 7.8125 59.421875 
L 7.8125 69.390625 
Q 13.765625 71.78125 18.9375 73 
Q 24.125 74.21875 28.421875 74.21875 
Q 39.75 74.21875 46.484375 68.546875 
Q 53.21875 62.890625 53.21875 53.421875 
Q 53.21875 48.921875 51.53125 44.890625 
Q 49.859375 40.875 45.40625 35.40625 
Q 44.1875 33.984375 37.640625 27.21875 
Q 31.109375 20.453125 19.1875 8.296875 
z
" id="DejaVuSans-50"/>
      </defs>
      <g transform="translate(102.585204 303.028562)scale(0.1 -0.1)">
       <use xlink:href="#DejaVuSans-50"/>
       <use x="63.623047" xlink:href="#DejaVuSans-48"/>
       <use x="127.246094" xlink:href="#DejaVuSans-48"/>
      </g>
     </g>
    </g>
    <g id="xtick_3">
     <g id="line2d_5">
      <path clip-path="url(#p516d0609e4)" d="M 161.059557 288.430125 
L 161.059557 22.318125 
" style="fill:none;stroke:#b0b0b0;stroke-dasharray:2.96,1.28;stroke-dashoffset:0;stroke-width:0.8;"/>
     </g>
     <g id="line2d_6">
      <g>
       <use style="stroke:#000000;stroke-width:0.8;" x="161.059557" xlink:href="#m0883468964" y="288.430125"/>
      </g>
     </g>
     <g id="text_3">
      <!-- 400 -->
      <defs>
       <path d="M 37.796875 64.3125 
L 12.890625 25.390625 
L 37.796875 25.390625 
z
M 35.203125 72.90625 
L 47.609375 72.90625 
L 47.609375 25.390625 
L 58.015625 25.390625 
L 58.015625 17.1875 
L 47.609375 17.1875 
L 47.609375 0 
L 37.796875 0 
L 37.796875 17.1875 
L 4.890625 17.1875 
L 4.890625 26.703125 
z
" id="DejaVuSans-52"/>
      </defs>
      <g transform="translate(151.515807 303.028562)scale(0.1 -0.1)">
       <use xlink:href="#DejaVuSans-52"/>
       <use x="63.623047" xlink:href="#DejaVuSans-48"/>
       <use x="127.246094" xlink:href="#DejaVuSans-48"/>
      </g>
     </g>
    </g>
    <g id="xtick_4">
     <g id="line2d_7">
      <path clip-path="url(#p516d0609e4)" d="M 209.990159 288.430125 
L 209.990159 22.318125 
" style="fill:none;stroke:#b0b0b0;stroke-dasharray:2.96,1.28;stroke-dashoffset:0;stroke-width:0.8;"/>
     </g>
     <g id="line2d_8">
      <g>
       <use style="stroke:#000000;stroke-width:0.8;" x="209.990159" xlink:href="#m0883468964" y="288.430125"/>
      </g>
     </g>
     <g id="text_4">
      <!-- 600 -->
      <defs>
       <path d="M 33.015625 40.375 
Q 26.375 40.375 22.484375 35.828125 
Q 18.609375 31.296875 18.609375 23.390625 
Q 18.609375 15.53125 22.484375 10.953125 
Q 26.375 6.390625 33.015625 6.390625 
Q 39.65625 6.390625 43.53125 10.953125 
Q 47.40625 15.53125 47.40625 23.390625 
Q 47.40625 31.296875 43.53125 35.828125 
Q 39.65625 40.375 33.015625 40.375 
z
M 52.59375 71.296875 
L 52.59375 62.3125 
Q 48.875 64.0625 45.09375 64.984375 
Q 41.3125 65.921875 37.59375 65.921875 
Q 27.828125 65.921875 22.671875 59.328125 
Q 17.53125 52.734375 16.796875 39.40625 
Q 19.671875 43.65625 24.015625 45.921875 
Q 28.375 48.1875 33.59375 48.1875 
Q 44.578125 48.1875 50.953125 41.515625 
Q 57.328125 34.859375 57.328125 23.390625 
Q 57.328125 12.15625 50.6875 5.359375 
Q 44.046875 -1.421875 33.015625 -1.421875 
Q 20.359375 -1.421875 13.671875 8.265625 
Q 6.984375 17.96875 6.984375 36.375 
Q 6.984375 53.65625 15.1875 63.9375 
Q 23.390625 74.21875 37.203125 74.21875 
Q 40.921875 74.21875 44.703125 73.484375 
Q 48.484375 72.75 52.59375 71.296875 
z
" id="DejaVuSans-54"/>
      </defs>
      <g transform="translate(200.446409 303.028562)scale(0.1 -0.1)">
       <use xlink:href="#DejaVuSans-54"/>
       <use x="63.623047" xlink:href="#DejaVuSans-48"/>
       <use x="127.246094" xlink:href="#DejaVuSans-48"/>
      </g>
     </g>
    </g>
    <g id="xtick_5">
     <g id="line2d_9">
      <path clip-path="url(#p516d0609e4)" d="M 258.920761 288.430125 
L 258.920761 22.318125 
" style="fill:none;stroke:#b0b0b0;stroke-dasharray:2.96,1.28;stroke-dashoffset:0;stroke-width:0.8;"/>
     </g>
     <g id="line2d_10">
      <g>
       <use style="stroke:#000000;stroke-width:0.8;" x="258.920761" xlink:href="#m0883468964" y="288.430125"/>
      </g>
     </g>
     <g id="text_5">
      <!-- 800 -->
      <defs>
       <path d="M 31.78125 34.625 
Q 24.75 34.625 20.71875 30.859375 
Q 16.703125 27.09375 16.703125 20.515625 
Q 16.703125 13.921875 20.71875 10.15625 
Q 24.75 6.390625 31.78125 6.390625 
Q 38.8125 6.390625 42.859375 10.171875 
Q 46.921875 13.96875 46.921875 20.515625 
Q 46.921875 27.09375 42.890625 30.859375 
Q 38.875 34.625 31.78125 34.625 
z
M 21.921875 38.8125 
Q 15.578125 40.375 12.03125 44.71875 
Q 8.5 49.078125 8.5 55.328125 
Q 8.5 64.0625 14.71875 69.140625 
Q 20.953125 74.21875 31.78125 74.21875 
Q 42.671875 74.21875 48.875 69.140625 
Q 55.078125 64.0625 55.078125 55.328125 
Q 55.078125 49.078125 51.53125 44.71875 
Q 48 40.375 41.703125 38.8125 
Q 48.828125 37.15625 52.796875 32.3125 
Q 56.78125 27.484375 56.78125 20.515625 
Q 56.78125 9.90625 50.3125 4.234375 
Q 43.84375 -1.421875 31.78125 -1.421875 
Q 19.734375 -1.421875 13.25 4.234375 
Q 6.78125 9.90625 6.78125 20.515625 
Q 6.78125 27.484375 10.78125 32.3125 
Q 14.796875 37.15625 21.921875 38.8125 
z
M 18.3125 54.390625 
Q 18.3125 48.734375 21.84375 45.5625 
Q 25.390625 42.390625 31.78125 42.390625 
Q 38.140625 42.390625 41.71875 45.5625 
Q 45.3125 48.734375 45.3125 54.390625 
Q 45.3125 60.0625 41.71875 63.234375 
Q 38.140625 66.40625 31.78125 66.40625 
Q 25.390625 66.40625 21.84375 63.234375 
Q 18.3125 60.0625 18.3125 54.390625 
z
" id="DejaVuSans-56"/>
      </defs>
      <g transform="translate(249.377011 303.028562)scale(0.1 -0.1)">
       <use xlink:href="#DejaVuSans-56"/>
       <use x="63.623047" xlink:href="#DejaVuSans-48"/>
       <use x="127.246094" xlink:href="#DejaVuSans-48"/>
      </g>
     </g>
    </g>
    <g id="xtick_6">
     <g id="line2d_11">
      <path clip-path="url(#p516d0609e4)" d="M 307.851363 288.430125 
L 307.851363 22.318125 
" style="fill:none;stroke:#b0b0b0;stroke-dasharray:2.96,1.28;stroke-dashoffset:0;stroke-width:0.8;"/>
     </g>
     <g id="line2d_12">
      <g>
       <use style="stroke:#000000;stroke-width:0.8;" x="307.851363" xlink:href="#m0883468964" y="288.430125"/>
      </g>
     </g>
     <g id="text_6">
      <!-- 1000 -->
      <defs>
       <path d="M 12.40625 8.296875 
L 28.515625 8.296875 
L 28.515625 63.921875 
L 10.984375 60.40625 
L 10.984375 69.390625 
L 28.421875 72.90625 
L 38.28125 72.90625 
L 38.28125 8.296875 
L 54.390625 8.296875 
L 54.390625 0 
L 12.40625 0 
z
" id="DejaVuSans-49"/>
      </defs>
      <g transform="translate(295.126363 303.028562)scale(0.1 -0.1)">
       <use xlink:href="#DejaVuSans-49"/>
       <use x="63.623047" xlink:href="#DejaVuSans-48"/>
       <use x="127.246094" xlink:href="#DejaVuSans-48"/>
       <use x="190.869141" xlink:href="#DejaVuSans-48"/>
      </g>
     </g>
    </g>
    <g id="xtick_7">
     <g id="line2d_13">
      <path clip-path="url(#p516d0609e4)" d="M 356.781965 288.430125 
L 356.781965 22.318125 
" style="fill:none;stroke:#b0b0b0;stroke-dasharray:2.96,1.28;stroke-dashoffset:0;stroke-width:0.8;"/>
     </g>
     <g id="line2d_14">
      <g>
       <use style="stroke:#000000;stroke-width:0.8;" x="356.781965" xlink:href="#m0883468964" y="288.430125"/>
      </g>
     </g>
     <g id="text_7">
      <!-- 1200 -->
      <g transform="translate(344.056965 303.028562)scale(0.1 -0.1)">
       <use xlink:href="#DejaVuSans-49"/>
       <use x="63.623047" xlink:href="#DejaVuSans-50"/>
       <use x="127.246094" xlink:href="#DejaVuSans-48"/>
       <use x="190.869141" xlink:href="#DejaVuSans-48"/>
      </g>
     </g>
    </g>
    <g id="text_8">
     <!-- Day -->
     <defs>
      <path d="M 19.671875 64.796875 
L 19.671875 8.109375 
L 31.59375 8.109375 
Q 46.6875 8.109375 53.6875 14.9375 
Q 60.6875 21.78125 60.6875 36.53125 
Q 60.6875 51.171875 53.6875 57.984375 
Q 46.6875 64.796875 31.59375 64.796875 
z
M 9.8125 72.90625 
L 30.078125 72.90625 
Q 51.265625 72.90625 61.171875 64.09375 
Q 71.09375 55.28125 71.09375 36.53125 
Q 71.09375 17.671875 61.125 8.828125 
Q 51.171875 0 30.078125 0 
L 9.8125 0 
z
" id="DejaVuSans-68"/>
      <path d="M 34.28125 27.484375 
Q 23.390625 27.484375 19.1875 25 
Q 14.984375 22.515625 14.984375 16.5 
Q 14.984375 11.71875 18.140625 8.90625 
Q 21.296875 6.109375 26.703125 6.109375 
Q 34.1875 6.109375 38.703125 11.40625 
Q 43.21875 16.703125 43.21875 25.484375 
L 43.21875 27.484375 
z
M 52.203125 31.203125 
L 52.203125 0 
L 43.21875 0 
L 43.21875 8.296875 
Q 40.140625 3.328125 35.546875 0.953125 
Q 30.953125 -1.421875 24.3125 -1.421875 
Q 15.921875 -1.421875 10.953125 3.296875 
Q 6 8.015625 6 15.921875 
Q 6 25.140625 12.171875 29.828125 
Q 18.359375 34.515625 30.609375 34.515625 
L 43.21875 34.515625 
L 43.21875 35.40625 
Q 43.21875 41.609375 39.140625 45 
Q 35.0625 48.390625 27.6875 48.390625 
Q 23 48.390625 18.546875 47.265625 
Q 14.109375 46.140625 10.015625 43.890625 
L 10.015625 52.203125 
Q 14.9375 54.109375 19.578125 55.046875 
Q 24.21875 56 28.609375 56 
Q 40.484375 56 46.34375 49.84375 
Q 52.203125 43.703125 52.203125 31.203125 
z
" id="DejaVuSans-97"/>
      <path d="M 32.171875 -5.078125 
Q 28.375 -14.84375 24.75 -17.8125 
Q 21.140625 -20.796875 15.09375 -20.796875 
L 7.90625 -20.796875 
L 7.90625 -13.28125 
L 13.1875 -13.28125 
Q 16.890625 -13.28125 18.9375 -11.515625 
Q 21 -9.765625 23.484375 -3.21875 
L 25.09375 0.875 
L 2.984375 54.6875 
L 12.5 54.6875 
L 29.59375 11.921875 
L 46.6875 54.6875 
L 56.203125 54.6875 
z
" id="DejaVuSans-121"/>
     </defs>
     <g transform="translate(215.652188 316.706687)scale(0.1 -0.1)">
      <use xlink:href="#DejaVuSans-68"/>
      <use x="77.001953" xlink:href="#DejaVuSans-97"/>
      <use x="138.28125" xlink:href="#DejaVuSans-121"/>
     </g>
    </g>
   </g>
   <g id="matplotlib.axis_2">
    <g id="ytick_1">
     <g id="line2d_15">
      <path clip-path="url(#p516d0609e4)" d="M 46.965625 259.729392 
L 404.085625 259.729392 
" style="fill:none;stroke:#b0b0b0;stroke-dasharray:2.96,1.28;stroke-dashoffset:0;stroke-width:0.8;"/>
     </g>
     <g id="line2d_16">
      <defs>
       <path d="M 0 0 
L -3.5 0 
" id="m9968a94b11" style="stroke:#000000;stroke-width:0.8;"/>
      </defs>
      <g>
       <use style="stroke:#000000;stroke-width:0.8;" x="46.965625" xlink:href="#m9968a94b11" y="259.729392"/>
      </g>
     </g>
     <g id="text_9">
      <!-- 25 -->
      <defs>
       <path d="M 10.796875 72.90625 
L 49.515625 72.90625 
L 49.515625 64.59375 
L 19.828125 64.59375 
L 19.828125 46.734375 
Q 21.96875 47.46875 24.109375 47.828125 
Q 26.265625 48.1875 28.421875 48.1875 
Q 40.625 48.1875 47.75 41.5 
Q 54.890625 34.8125 54.890625 23.390625 
Q 54.890625 11.625 47.5625 5.09375 
Q 40.234375 -1.421875 26.90625 -1.421875 
Q 22.3125 -1.421875 17.546875 -0.640625 
Q 12.796875 0.140625 7.71875 1.703125 
L 7.71875 11.625 
Q 12.109375 9.234375 16.796875 8.0625 
Q 21.484375 6.890625 26.703125 6.890625 
Q 35.15625 6.890625 40.078125 11.328125 
Q 45.015625 15.765625 45.015625 23.390625 
Q 45.015625 31 40.078125 35.4375 
Q 35.15625 39.890625 26.703125 39.890625 
Q 22.75 39.890625 18.8125 39.015625 
Q 14.890625 38.140625 10.796875 36.28125 
z
" id="DejaVuSans-53"/>
      </defs>
      <g transform="translate(27.240625 263.528611)scale(0.1 -0.1)">
       <use xlink:href="#DejaVuSans-50"/>
       <use x="63.623047" xlink:href="#DejaVuSans-53"/>
      </g>
     </g>
    </g>
    <g id="ytick_2">
     <g id="line2d_17">
      <path clip-path="url(#p516d0609e4)" d="M 46.965625 229.250807 
L 404.085625 229.250807 
" style="fill:none;stroke:#b0b0b0;stroke-dasharray:2.96,1.28;stroke-dashoffset:0;stroke-width:0.8;"/>
     </g>
     <g id="line2d_18">
      <g>
       <use style="stroke:#000000;stroke-width:0.8;" x="46.965625" xlink:href="#m9968a94b11" y="229.250807"/>
      </g>
     </g>
     <g id="text_10">
      <!-- 50 -->
      <g transform="translate(27.240625 233.050025)scale(0.1 -0.1)">
       <use xlink:href="#DejaVuSans-53"/>
       <use x="63.623047" xlink:href="#DejaVuSans-48"/>
      </g>
     </g>
    </g>
    <g id="ytick_3">
     <g id="line2d_19">
      <path clip-path="url(#p516d0609e4)" d="M 46.965625 198.772221 
L 404.085625 198.772221 
" style="fill:none;stroke:#b0b0b0;stroke-dasharray:2.96,1.28;stroke-dashoffset:0;stroke-width:0.8;"/>
     </g>
     <g id="line2d_20">
      <g>
       <use style="stroke:#000000;stroke-width:0.8;" x="46.965625" xlink:href="#m9968a94b11" y="198.772221"/>
      </g>
     </g>
     <g id="text_11">
      <!-- 75 -->
      <defs>
       <path d="M 8.203125 72.90625 
L 55.078125 72.90625 
L 55.078125 68.703125 
L 28.609375 0 
L 18.3125 0 
L 43.21875 64.59375 
L 8.203125 64.59375 
z
" id="DejaVuSans-55"/>
      </defs>
      <g transform="translate(27.240625 202.57144)scale(0.1 -0.1)">
       <use xlink:href="#DejaVuSans-55"/>
       <use x="63.623047" xlink:href="#DejaVuSans-53"/>
      </g>
     </g>
    </g>
    <g id="ytick_4">
     <g id="line2d_21">
      <path clip-path="url(#p516d0609e4)" d="M 46.965625 168.293636 
L 404.085625 168.293636 
" style="fill:none;stroke:#b0b0b0;stroke-dasharray:2.96,1.28;stroke-dashoffset:0;stroke-width:0.8;"/>
     </g>
     <g id="line2d_22">
      <g>
       <use style="stroke:#000000;stroke-width:0.8;" x="46.965625" xlink:href="#m9968a94b11" y="168.293636"/>
      </g>
     </g>
     <g id="text_12">
      <!-- 100 -->
      <g transform="translate(20.878125 172.092855)scale(0.1 -0.1)">
       <use xlink:href="#DejaVuSans-49"/>
       <use x="63.623047" xlink:href="#DejaVuSans-48"/>
       <use x="127.246094" xlink:href="#DejaVuSans-48"/>
      </g>
     </g>
    </g>
    <g id="ytick_5">
     <g id="line2d_23">
      <path clip-path="url(#p516d0609e4)" d="M 46.965625 137.815051 
L 404.085625 137.815051 
" style="fill:none;stroke:#b0b0b0;stroke-dasharray:2.96,1.28;stroke-dashoffset:0;stroke-width:0.8;"/>
     </g>
     <g id="line2d_24">
      <g>
       <use style="stroke:#000000;stroke-width:0.8;" x="46.965625" xlink:href="#m9968a94b11" y="137.815051"/>
      </g>
     </g>
     <g id="text_13">
      <!-- 125 -->
      <g transform="translate(20.878125 141.61427)scale(0.1 -0.1)">
       <use xlink:href="#DejaVuSans-49"/>
       <use x="63.623047" xlink:href="#DejaVuSans-50"/>
       <use x="127.246094" xlink:href="#DejaVuSans-53"/>
      </g>
     </g>
    </g>
    <g id="ytick_6">
     <g id="line2d_25">
      <path clip-path="url(#p516d0609e4)" d="M 46.965625 107.336466 
L 404.085625 107.336466 
" style="fill:none;stroke:#b0b0b0;stroke-dasharray:2.96,1.28;stroke-dashoffset:0;stroke-width:0.8;"/>
     </g>
     <g id="line2d_26">
      <g>
       <use style="stroke:#000000;stroke-width:0.8;" x="46.965625" xlink:href="#m9968a94b11" y="107.336466"/>
      </g>
     </g>
     <g id="text_14">
      <!-- 150 -->
      <g transform="translate(20.878125 111.135684)scale(0.1 -0.1)">
       <use xlink:href="#DejaVuSans-49"/>
       <use x="63.623047" xlink:href="#DejaVuSans-53"/>
       <use x="127.246094" xlink:href="#DejaVuSans-48"/>
      </g>
     </g>
    </g>
    <g id="ytick_7">
     <g id="line2d_27">
      <path clip-path="url(#p516d0609e4)" d="M 46.965625 76.85788 
L 404.085625 76.85788 
" style="fill:none;stroke:#b0b0b0;stroke-dasharray:2.96,1.28;stroke-dashoffset:0;stroke-width:0.8;"/>
     </g>
     <g id="line2d_28">
      <g>
       <use style="stroke:#000000;stroke-width:0.8;" x="46.965625" xlink:href="#m9968a94b11" y="76.85788"/>
      </g>
     </g>
     <g id="text_15">
      <!-- 175 -->
      <g transform="translate(20.878125 80.657099)scale(0.1 -0.1)">
       <use xlink:href="#DejaVuSans-49"/>
       <use x="63.623047" xlink:href="#DejaVuSans-55"/>
       <use x="127.246094" xlink:href="#DejaVuSans-53"/>
      </g>
     </g>
    </g>
    <g id="ytick_8">
     <g id="line2d_29">
      <path clip-path="url(#p516d0609e4)" d="M 46.965625 46.379295 
L 404.085625 46.379295 
" style="fill:none;stroke:#b0b0b0;stroke-dasharray:2.96,1.28;stroke-dashoffset:0;stroke-width:0.8;"/>
     </g>
     <g id="line2d_30">
      <g>
       <use style="stroke:#000000;stroke-width:0.8;" x="46.965625" xlink:href="#m9968a94b11" y="46.379295"/>
      </g>
     </g>
     <g id="text_16">
      <!-- 200 -->
      <g transform="translate(20.878125 50.178514)scale(0.1 -0.1)">
       <use xlink:href="#DejaVuSans-50"/>
       <use x="63.623047" xlink:href="#DejaVuSans-48"/>
       <use x="127.246094" xlink:href="#DejaVuSans-48"/>
      </g>
     </g>
    </g>
    <g id="text_17">
     <!-- Price $ -->
     <defs>
      <path d="M 19.671875 64.796875 
L 19.671875 37.40625 
L 32.078125 37.40625 
Q 38.96875 37.40625 42.71875 40.96875 
Q 46.484375 44.53125 46.484375 51.125 
Q 46.484375 57.671875 42.71875 61.234375 
Q 38.96875 64.796875 32.078125 64.796875 
z
M 9.8125 72.90625 
L 32.078125 72.90625 
Q 44.34375 72.90625 50.609375 67.359375 
Q 56.890625 61.8125 56.890625 51.125 
Q 56.890625 40.328125 50.609375 34.8125 
Q 44.34375 29.296875 32.078125 29.296875 
L 19.671875 29.296875 
L 19.671875 0 
L 9.8125 0 
z
" id="DejaVuSans-80"/>
      <path d="M 41.109375 46.296875 
Q 39.59375 47.171875 37.8125 47.578125 
Q 36.03125 48 33.890625 48 
Q 26.265625 48 22.1875 43.046875 
Q 18.109375 38.09375 18.109375 28.8125 
L 18.109375 0 
L 9.078125 0 
L 9.078125 54.6875 
L 18.109375 54.6875 
L 18.109375 46.1875 
Q 20.953125 51.171875 25.484375 53.578125 
Q 30.03125 56 36.53125 56 
Q 37.453125 56 38.578125 55.875 
Q 39.703125 55.765625 41.0625 55.515625 
z
" id="DejaVuSans-114"/>
      <path d="M 9.421875 54.6875 
L 18.40625 54.6875 
L 18.40625 0 
L 9.421875 0 
z
M 9.421875 75.984375 
L 18.40625 75.984375 
L 18.40625 64.59375 
L 9.421875 64.59375 
z
" id="DejaVuSans-105"/>
      <path d="M 48.78125 52.59375 
L 48.78125 44.1875 
Q 44.96875 46.296875 41.140625 47.34375 
Q 37.3125 48.390625 33.40625 48.390625 
Q 24.65625 48.390625 19.8125 42.84375 
Q 14.984375 37.3125 14.984375 27.296875 
Q 14.984375 17.28125 19.8125 11.734375 
Q 24.65625 6.203125 33.40625 6.203125 
Q 37.3125 6.203125 41.140625 7.25 
Q 44.96875 8.296875 48.78125 10.40625 
L 48.78125 2.09375 
Q 45.015625 0.34375 40.984375 -0.53125 
Q 36.96875 -1.421875 32.421875 -1.421875 
Q 20.0625 -1.421875 12.78125 6.34375 
Q 5.515625 14.109375 5.515625 27.296875 
Q 5.515625 40.671875 12.859375 48.328125 
Q 20.21875 56 33.015625 56 
Q 37.15625 56 41.109375 55.140625 
Q 45.0625 54.296875 48.78125 52.59375 
z
" id="DejaVuSans-99"/>
      <path d="M 56.203125 29.59375 
L 56.203125 25.203125 
L 14.890625 25.203125 
Q 15.484375 15.921875 20.484375 11.0625 
Q 25.484375 6.203125 34.421875 6.203125 
Q 39.59375 6.203125 44.453125 7.46875 
Q 49.3125 8.734375 54.109375 11.28125 
L 54.109375 2.78125 
Q 49.265625 0.734375 44.1875 -0.34375 
Q 39.109375 -1.421875 33.890625 -1.421875 
Q 20.796875 -1.421875 13.15625 6.1875 
Q 5.515625 13.8125 5.515625 26.8125 
Q 5.515625 40.234375 12.765625 48.109375 
Q 20.015625 56 32.328125 56 
Q 43.359375 56 49.78125 48.890625 
Q 56.203125 41.796875 56.203125 29.59375 
z
M 47.21875 32.234375 
Q 47.125 39.59375 43.09375 43.984375 
Q 39.0625 48.390625 32.421875 48.390625 
Q 24.90625 48.390625 20.390625 44.140625 
Q 15.875 39.890625 15.1875 32.171875 
z
" id="DejaVuSans-101"/>
      <path id="DejaVuSans-32"/>
      <path d="M 33.796875 -14.703125 
L 28.90625 -14.703125 
L 28.859375 0 
Q 23.734375 0.09375 18.609375 1.1875 
Q 13.484375 2.296875 8.296875 4.5 
L 8.296875 13.28125 
Q 13.28125 10.15625 18.375 8.5625 
Q 23.484375 6.984375 28.90625 6.9375 
L 28.90625 29.203125 
Q 18.109375 30.953125 13.203125 35.15625 
Q 8.296875 39.359375 8.296875 46.6875 
Q 8.296875 54.640625 13.625 59.21875 
Q 18.953125 63.8125 28.90625 64.5 
L 28.90625 75.984375 
L 33.796875 75.984375 
L 33.796875 64.65625 
Q 38.328125 64.453125 42.578125 63.6875 
Q 46.828125 62.9375 50.875 61.625 
L 50.875 53.078125 
Q 46.828125 55.125 42.546875 56.25 
Q 38.28125 57.375 33.796875 57.5625 
L 33.796875 36.71875 
Q 44.875 35.015625 50.09375 30.609375 
Q 55.328125 26.21875 55.328125 18.609375 
Q 55.328125 10.359375 49.78125 5.59375 
Q 44.234375 0.828125 33.796875 0.09375 
z
M 28.90625 37.59375 
L 28.90625 57.625 
Q 23.25 56.984375 20.265625 54.390625 
Q 17.28125 51.8125 17.28125 47.515625 
Q 17.28125 43.3125 20.03125 40.96875 
Q 22.796875 38.625 28.90625 37.59375 
z
M 33.796875 28.21875 
L 33.796875 7.078125 
Q 39.984375 7.90625 43.140625 10.59375 
Q 46.296875 13.28125 46.296875 17.671875 
Q 46.296875 21.96875 43.28125 24.5 
Q 40.28125 27.046875 33.796875 28.21875 
z
" id="DejaVuSans-36"/>
     </defs>
     <g transform="translate(14.798438 172.342094)rotate(-90)scale(0.1 -0.1)">
      <use xlink:href="#DejaVuSans-80"/>
      <use x="58.552734" xlink:href="#DejaVuSans-114"/>
      <use x="99.666016" xlink:href="#DejaVuSans-105"/>
      <use x="127.449219" xlink:href="#DejaVuSans-99"/>
      <use x="182.429688" xlink:href="#DejaVuSans-101"/>
      <use x="243.953125" xlink:href="#DejaVuSans-32"/>
      <use x="275.740234" xlink:href="#DejaVuSans-36"/>
     </g>
    </g>
   </g>
   <g id="line2d_31">
    <path clip-path="url(#p516d0609e4)" d="M 63.198352 272.663694 
L 63.443005 272.939078 
L 63.932311 274.052694 
L 64.176964 274.058129 
L 65.400229 271.932898 
L 65.644882 272.440762 
L 65.889535 272.073923 
L 66.134188 272.156989 
L 66.378841 272.370415 
L 66.623494 272.173042 
L 67.602106 272.236855 
L 67.846759 272.585447 
L 68.091412 272.341492 
L 68.580719 272.661463 
L 68.825372 272.583802 
L 69.070025 272.855551 
L 69.314678 272.957833 
L 69.559331 273.688286 
L 69.803984 273.623337 
L 70.048637 273.137786 
L 70.29329 273.751028 
L 70.537943 273.801095 
L 71.027249 273.304682 
L 71.516555 272.964496 
L 71.761208 273.67124 
L 72.005861 273.537968 
L 72.250514 273.271689 
L 72.495167 273.464991 
L 72.73982 273.348434 
L 72.984473 273.356784 
L 73.473779 274.003297 
L 73.963085 273.777407 
L 74.207738 273.992454 
L 74.452391 273.917116 
L 74.697044 274.10829 
L 74.941697 273.515045 
L 76.164962 274.422967 
L 76.409615 274.538225 
L 76.654268 274.385096 
L 76.898921 273.93915 
L 77.388227 274.356107 
L 77.63288 275.182725 
L 77.877533 275.406778 
L 78.122186 274.963261 
L 78.611492 274.938921 
L 79.100798 275.381504 
L 79.345451 274.739302 
L 79.590104 274.710802 
L 79.834757 274.14526 
L 80.07941 274.201794 
L 80.324063 274.581347 
L 80.568716 274.348701 
L 81.058022 275.433396 
L 81.302675 275.53203 
L 81.547328 275.780944 
L 81.791981 275.598253 
L 82.036634 275.986522 
L 82.281287 275.598293 
L 82.52594 275.852907 
L 83.015246 275.260081 
L 83.259899 275.021709 
L 83.749205 274.865322 
L 83.993858 275.391956 
L 84.483164 275.653145 
L 84.727817 275.234265 
L 84.97247 275.380234 
L 85.217123 275.215423 
L 85.461776 275.199381 
L 85.951082 274.40563 
L 86.195735 274.534688 
L 86.685041 274.432837 
L 86.929694 274.715756 
L 87.419 274.417396 
L 87.663653 274.534574 
L 87.908306 274.933617 
L 88.642265 275.032959 
L 88.886918 275.027697 
L 89.131571 274.860929 
L 89.376224 274.346956 
L 89.620877 274.219259 
L 89.86553 273.864354 
L 90.110183 274.549009 
L 90.599489 275.189196 
L 90.844143 274.986322 
L 91.578102 275.282324 
L 92.067408 274.965311 
L 92.556714 275.226528 
L 93.04602 275.038637 
L 93.535326 274.481882 
L 93.779979 274.988825 
L 94.269285 275.128792 
L 94.513938 274.870564 
L 94.758591 275.082192 
L 95.003244 274.723575 
L 95.247897 274.934474 
L 95.49255 274.955879 
L 95.981856 274.564575 
L 96.471162 275.046334 
L 96.715815 274.547133 
L 96.960468 274.334649 
L 97.694427 274.999224 
L 97.93908 274.688592 
L 98.183733 274.908386 
L 98.428386 274.76582 
L 98.673039 274.442564 
L 99.162345 274.250239 
L 99.406998 274.553395 
L 99.651651 274.321714 
L 100.140957 274.365975 
L 100.38561 274.26383 
L 100.630263 274.428788 
L 101.364222 274.198876 
L 101.853528 274.67059 
L 102.098181 274.776504 
L 102.342834 274.555337 
L 102.587487 274.749023 
L 102.83214 274.655501 
L 103.076793 274.787629 
L 103.810752 274.250189 
L 104.055405 274.906664 
L 104.544711 275.272127 
L 105.034017 274.860509 
L 105.27867 274.866483 
L 105.767976 274.25105 
L 106.012629 274.811178 
L 106.257282 274.164801 
L 106.501935 274.301955 
L 106.746588 274.112717 
L 107.235894 274.65825 
L 107.7252 274.598006 
L 108.459159 273.469329 
L 108.703812 273.72775 
L 109.193118 273.17002 
L 109.437771 273.348133 
L 109.927077 272.994488 
L 110.17173 273.079403 
L 110.416383 273.349882 
L 110.661036 273.12016 
L 110.905689 273.11106 
L 111.150342 272.37613 
L 111.394995 272.565404 
L 111.884301 272.053144 
L 112.128954 272.14253 
L 112.373607 271.876648 
L 112.61826 271.933871 
L 112.862913 271.851267 
L 113.107566 272.421178 
L 113.35222 272.290713 
L 114.086179 272.432827 
L 114.330832 272.223871 
L 114.575485 272.445176 
L 114.820138 272.46838 
L 115.064791 272.257718 
L 115.309444 272.663153 
L 115.554097 272.588001 
L 115.79875 272.330013 
L 116.043403 272.476117 
L 116.532709 272.949197 
L 116.777362 272.535046 
L 117.022015 272.536936 
L 117.266668 272.248043 
L 117.511321 272.484034 
L 117.755974 271.798723 
L 118.24528 272.528655 
L 118.489933 272.846414 
L 118.734586 272.592464 
L 119.223892 272.972187 
L 119.713198 272.583644 
L 119.957851 272.744341 
L 120.447157 272.478951 
L 120.69181 272.733819 
L 121.670422 271.897707 
L 121.915075 272.202085 
L 122.159728 271.961597 
L 122.649034 272.255764 
L 122.893687 272.605979 
L 123.872299 272.449513 
L 124.116952 272.645979 
L 124.361605 272.677932 
L 124.606258 272.312144 
L 124.850911 272.247027 
L 125.58487 271.768557 
L 125.829523 272.23189 
L 126.074176 272.311471 
L 126.318829 272.043602 
L 126.563482 272.675698 
L 126.808135 272.758546 
L 127.052788 272.412496 
L 127.297441 271.751973 
L 127.786747 271.338277 
L 128.0314 271.749748 
L 128.276053 271.722127 
L 128.520706 271.868268 
L 129.010012 271.645326 
L 129.254665 271.612061 
L 129.499318 272.001651 
L 129.743971 271.927616 
L 130.233277 272.078624 
L 130.967236 271.658052 
L 131.211889 271.833256 
L 131.945848 270.827949 
L 132.190501 270.946868 
L 132.679807 270.598519 
L 133.169113 270.437897 
L 133.903072 271.015613 
L 134.637031 270.954732 
L 135.860297 271.297686 
L 136.10495 271.012463 
L 136.349603 270.999627 
L 136.838909 271.594271 
L 137.083562 271.305606 
L 137.328215 271.590882 
L 137.572868 271.238863 
L 137.817521 271.364571 
L 138.062174 270.990051 
L 138.306827 270.888638 
L 138.796133 270.503476 
L 139.285439 271.231266 
L 140.019398 271.561444 
L 140.264051 271.380492 
L 140.99801 271.261135 
L 141.242663 271.853045 
L 141.487316 272.080481 
L 141.731969 271.81375 
L 141.976622 272.332972 
L 142.221275 271.094834 
L 142.465928 270.67605 
L 142.710581 270.574891 
L 142.955234 270.158032 
L 143.199887 269.990145 
L 143.933846 271.137203 
L 144.178499 271.344317 
L 144.423152 271.200095 
L 144.667805 271.309438 
L 145.157111 270.731823 
L 145.401764 270.569308 
L 145.646417 270.824865 
L 145.89107 270.624544 
L 146.135723 270.76422 
L 146.380376 270.4518 
L 147.114335 271.321391 
L 147.358988 270.963285 
L 148.3376 271.468504 
L 148.582253 271.455857 
L 149.805518 270.37688 
L 150.050171 270.788734 
L 150.78413 270.301565 
L 151.273436 270.875187 
L 152.007395 270.033445 
L 152.252048 270.752018 
L 152.496701 270.808298 
L 152.741354 271.149329 
L 153.23066 270.516867 
L 153.475313 270.382738 
L 153.719966 270.610934 
L 153.964619 270.424989 
L 154.209272 270.591197 
L 154.453925 270.59977 
L 154.698578 270.99422 
L 154.943231 271.157123 
L 155.187884 271.030769 
L 155.432537 271.172124 
L 155.67719 270.86683 
L 156.166496 271.215194 
L 156.411149 270.988556 
L 156.655802 271.250784 
L 157.634414 270.117157 
L 158.368374 268.329098 
L 158.613027 268.33785 
L 158.85768 267.887517 
L 159.102333 267.079746 
L 159.346986 267.212606 
L 159.591639 266.944651 
L 160.814904 267.806117 
L 161.30421 267.239375 
L 161.548863 267.502152 
L 161.793516 267.601376 
L 162.038169 267.892561 
L 162.282822 267.593409 
L 162.527475 267.524108 
L 162.772128 268.253864 
L 163.261434 268.017034 
L 163.75074 267.084278 
L 163.995393 267.037553 
L 164.240046 267.475397 
L 164.484699 267.590663 
L 164.729352 267.385597 
L 165.218658 268.259071 
L 165.707964 268.027595 
L 165.952617 267.166637 
L 166.19727 267.322115 
L 166.441923 267.007396 
L 166.686576 267.648638 
L 166.931229 267.630538 
L 167.175882 267.005756 
L 167.420535 267.019618 
L 167.909841 267.806575 
L 168.888453 267.123346 
L 169.867065 266.345346 
L 170.111718 267.087155 
L 170.356371 267.220759 
L 170.601024 267.189546 
L 170.845677 267.47382 
L 171.09033 267.308277 
L 171.334983 267.428839 
L 171.579636 267.234581 
L 171.824289 267.642946 
L 172.068942 267.664937 
L 172.313595 267.433255 
L 172.558248 268.223095 
L 172.802901 267.506461 
L 173.781513 268.21062 
L 174.026166 267.495476 
L 174.270819 267.726625 
L 174.760125 267.588538 
L 175.004778 267.381081 
L 175.494084 266.783422 
L 175.738737 267.026696 
L 175.98339 266.798893 
L 176.472696 267.104583 
L 177.451308 266.661277 
L 177.695961 266.574972 
L 178.185267 266.174232 
L 178.42992 266.071566 
L 178.674573 266.334989 
L 178.919226 266.088201 
L 179.163879 266.216511 
L 179.408532 266.791177 
L 180.142491 267.579741 
L 180.387144 267.442877 
L 180.631798 267.656361 
L 180.876451 267.628076 
L 181.365757 267.191841 
L 181.61041 267.418403 
L 181.855063 267.092131 
L 182.344369 267.48959 
L 182.589022 266.771228 
L 182.833675 266.980159 
L 183.567634 266.325871 
L 184.05694 266.655013 
L 184.301593 267.560011 
L 184.546246 267.411171 
L 184.790899 267.48491 
L 185.035552 267.874079 
L 185.280205 267.831998 
L 185.524858 268.270637 
L 185.769511 268.477835 
L 186.258817 267.873056 
L 186.50347 268.655077 
L 186.748123 268.367119 
L 186.992776 268.496285 
L 187.237429 268.298266 
L 187.726735 268.646343 
L 187.971388 266.793768 
L 188.705347 266.613259 
L 188.95 266.992839 
L 189.683959 266.161422 
L 190.173265 266.734172 
L 190.662571 266.490821 
L 190.907224 266.130827 
L 191.151877 266.46131 
L 191.641183 266.099679 
L 191.885836 266.026062 
L 192.375142 265.520009 
L 193.109101 266.11891 
L 193.353754 266.073629 
L 194.087713 266.86533 
L 194.332366 266.643084 
L 194.577019 266.583588 
L 194.821672 266.251089 
L 195.066325 266.925765 
L 195.555631 267.091998 
L 195.800284 266.894266 
L 196.044937 267.400391 
L 196.28959 267.299009 
L 197.023549 267.731041 
L 197.268202 267.871545 
L 197.512855 267.577632 
L 198.002161 268.131138 
L 198.246814 267.710246 
L 198.491467 268.16859 
L 198.73612 269.343842 
L 198.980773 269.489494 
L 199.225426 268.829302 
L 199.714732 268.531471 
L 199.959385 268.701737 
L 200.204038 268.377716 
L 200.448691 267.521031 
L 200.693344 268.019689 
L 201.18265 267.193369 
L 201.427303 267.165769 
L 201.671956 266.733576 
L 202.161262 267.205986 
L 202.405915 266.154964 
L 202.650568 265.608369 
L 202.895221 265.358468 
L 203.384528 265.261707 
L 203.629181 265.804823 
L 203.873834 265.494242 
L 204.36314 265.976169 
L 204.607793 266.101144 
L 204.852446 265.909769 
L 205.097099 265.950123 
L 205.341752 265.430019 
L 205.586405 265.601663 
L 206.075711 264.96072 
L 206.320364 264.77471 
L 206.565017 265.013987 
L 206.80967 264.549895 
L 207.054323 264.327147 
L 207.298976 264.881175 
L 207.543629 264.822707 
L 207.788282 264.256633 
L 208.032935 264.520707 
L 208.277588 264.27605 
L 209.011547 265.297196 
L 209.2562 265.350376 
L 209.500853 266.017704 
L 209.745506 266.093564 
L 209.990159 266.299683 
L 210.234812 265.525781 
L 210.968771 264.672221 
L 211.458077 265.024637 
L 211.70273 264.77394 
L 212.192036 265.212544 
L 212.436689 265.514538 
L 212.681342 265.33614 
L 213.415301 266.654087 
L 213.659954 265.736158 
L 213.904607 265.523002 
L 214.14926 265.992575 
L 214.393913 266.06646 
L 214.638566 265.832966 
L 214.883219 266.060372 
L 215.372525 265.372106 
L 216.106484 264.474112 
L 216.351137 264.87898 
L 216.59579 265.966784 
L 216.840443 266.342342 
L 217.085096 265.84127 
L 217.329749 266.421533 
L 217.574402 266.016232 
L 217.819055 265.369067 
L 218.063708 265.160304 
L 218.308361 264.8011 
L 218.797667 265.219093 
L 219.04232 264.461407 
L 219.286973 264.638834 
L 219.531626 262.727463 
L 220.020932 262.563887 
L 220.265585 262.970646 
L 220.754891 262.637919 
L 220.999544 262.947495 
L 221.244197 262.74687 
L 221.48885 263.001935 
L 221.733503 262.856539 
L 221.978156 263.119625 
L 222.222809 262.510639 
L 222.467462 262.917535 
L 222.712115 262.648139 
L 222.956768 262.154254 
L 223.201421 262.543759 
L 223.446074 262.344027 
L 223.690727 261.916675 
L 223.93538 262.097609 
L 224.180033 262.50141 
L 224.424686 262.376705 
L 224.913992 261.629846 
L 225.158645 262.175945 
L 225.647952 261.301951 
L 225.892605 262.352431 
L 226.137258 262.717643 
L 226.381911 264.050609 
L 226.626564 264.527055 
L 227.11587 263.77385 
L 227.360523 264.359171 
L 227.849829 264.123729 
L 228.339135 263.192041 
L 228.583788 262.961475 
L 229.073094 262.043999 
L 229.5624 262.650959 
L 229.807053 262.33686 
L 230.051706 262.506949 
L 230.296359 262.898484 
L 230.785665 263.011744 
L 231.030318 262.774871 
L 231.519624 263.145513 
L 231.764277 262.777576 
L 232.00893 262.701879 
L 232.253583 263.051072 
L 232.498236 262.888759 
L 232.742889 262.203926 
L 232.987542 262.458489 
L 233.232195 263.126264 
L 233.476848 262.926267 
L 233.721501 262.554863 
L 233.966154 264.868274 
L 234.210807 265.048423 
L 234.700113 264.194933 
L 234.944766 263.78733 
L 235.189419 263.71618 
L 235.678725 264.349567 
L 235.923378 264.196151 
L 236.168031 264.447778 
L 236.657337 264.683269 
L 236.90199 263.438426 
L 237.146643 262.860879 
L 237.391296 262.918156 
L 237.635949 262.498173 
L 238.125255 263.393963 
L 238.614561 262.738254 
L 238.859214 263.368966 
L 239.103867 263.148106 
L 239.34852 263.825391 
L 239.593173 263.416014 
L 239.837826 264.059296 
L 240.082479 264.288188 
L 240.816438 263.01516 
L 241.79505 264.277098 
L 242.039703 264.030234 
L 242.529009 265.257056 
L 242.773662 265.374743 
L 243.018315 264.801177 
L 243.262968 264.793313 
L 243.996927 266.088336 
L 244.24158 266.148844 
L 244.486233 265.604514 
L 244.730886 265.431479 
L 244.975539 265.464427 
L 245.220192 265.898631 
L 245.464845 265.245146 
L 245.954151 265.814705 
L 246.198804 265.574157 
L 246.443457 266.222078 
L 246.68811 265.827292 
L 247.177416 266.337947 
L 247.666722 265.442099 
L 247.911375 265.281883 
L 248.156029 265.626695 
L 248.400682 265.142526 
L 248.645335 264.954035 
L 248.889988 264.534313 
L 249.134641 265.214063 
L 249.379294 262.024066 
L 249.623947 260.984131 
L 249.8686 261.081807 
L 250.113253 261.004801 
L 250.357906 261.15838 
L 250.602559 261.146051 
L 251.336518 261.926909 
L 252.070477 264.521337 
L 252.31513 264.703139 
L 252.804436 262.164642 
L 253.049089 261.987854 
L 253.293742 262.495762 
L 253.538395 263.656065 
L 253.783048 262.831858 
L 254.027701 262.47369 
L 254.272354 263.246302 
L 254.517007 262.176499 
L 254.76166 262.621079 
L 255.006313 262.250367 
L 255.495619 261.996211 
L 256.229578 261.204715 
L 256.474231 261.647088 
L 256.718884 261.250282 
L 256.963537 262.02485 
L 257.20819 261.858558 
L 257.697496 261.035312 
L 257.942149 261.521099 
L 258.186802 261.065069 
L 258.431455 260.028339 
L 258.676108 260.580849 
L 259.410067 258.597869 
L 259.65472 258.187916 
L 259.899373 258.090263 
L 260.144026 258.339469 
L 260.388679 257.901674 
L 260.633332 257.793625 
L 260.877985 256.718766 
L 261.122638 256.543074 
L 261.367291 256.045213 
L 261.856597 256.184996 
L 262.10125 256.499213 
L 262.345903 255.559819 
L 262.590556 255.235989 
L 263.079862 255.346909 
L 263.324515 255.098148 
L 263.569168 256.168165 
L 264.058474 255.026997 
L 264.792433 256.252482 
L 265.037086 251.445015 
L 265.281739 251.569013 
L 265.526392 252.56355 
L 265.771045 252.941014 
L 266.015698 253.064673 
L 266.260351 253.644687 
L 266.505004 252.964307 
L 266.749657 252.853598 
L 267.238963 251.945375 
L 267.483616 251.521776 
L 267.728269 252.197562 
L 267.972922 251.784504 
L 268.217575 251.900112 
L 268.706881 251.081656 
L 268.951534 249.939062 
L 269.196187 250.226464 
L 269.44084 250.267664 
L 269.685493 248.831777 
L 269.930146 249.436065 
L 270.174799 249.086238 
L 270.419452 249.899685 
L 270.664106 249.581013 
L 270.908759 250.224571 
L 271.153412 250.117941 
L 271.398065 249.554397 
L 271.642718 249.353558 
L 272.132024 250.633053 
L 272.376677 249.733917 
L 273.110636 249.225934 
L 273.355289 249.582096 
L 273.599942 248.695331 
L 273.844595 248.981514 
L 274.089248 249.507988 
L 274.333901 250.491691 
L 274.578554 249.671952 
L 275.06786 252.999234 
L 275.312513 253.580706 
L 275.557166 253.546249 
L 275.801819 252.872796 
L 276.291125 255.054369 
L 276.535778 256.850499 
L 276.780431 256.134527 
L 277.025084 256.128007 
L 277.269737 255.65855 
L 277.51439 254.772808 
L 277.759043 255.039352 
L 278.003696 254.655825 
L 278.493002 255.524367 
L 278.737655 254.129459 
L 278.982308 253.903336 
L 279.226961 255.321303 
L 279.716267 255.112093 
L 280.205573 258.832416 
L 280.450226 258.509586 
L 280.694879 258.471087 
L 280.939532 258.852214 
L 281.184185 258.374598 
L 281.673491 255.957904 
L 281.918144 252.744545 
L 282.162797 252.503112 
L 282.40745 251.123372 
L 283.141409 250.722267 
L 283.875368 251.558356 
L 284.120021 250.237495 
L 284.364674 249.828312 
L 284.609327 250.071053 
L 284.85398 250.092995 
L 285.098633 250.430061 
L 285.343286 251.10902 
L 285.832592 251.277356 
L 286.077245 250.496877 
L 286.321898 250.412681 
L 286.566551 250.868944 
L 286.811204 249.694665 
L 287.055857 249.963967 
L 287.30051 248.507044 
L 287.545163 248.417956 
L 287.789816 248.684207 
L 288.034469 247.828959 
L 288.279122 247.742736 
L 288.768428 246.678869 
L 289.013081 246.079882 
L 289.257734 246.499925 
L 289.502387 245.950333 
L 289.991693 246.41586 
L 290.236346 246.48129 
L 290.480999 246.785764 
L 290.970305 245.950119 
L 291.214958 246.247961 
L 291.459611 245.114172 
L 291.704264 244.881652 
L 291.948917 244.483039 
L 292.19357 244.836634 
L 292.438223 245.429212 
L 292.682876 245.242232 
L 293.172183 245.517779 
L 293.661489 245.099462 
L 293.906142 244.355555 
L 294.395448 246.429663 
L 294.640101 245.711791 
L 294.884754 246.402722 
L 295.129407 247.492446 
L 295.618713 246.620075 
L 295.863366 246.834824 
L 296.108019 245.920313 
L 296.352672 245.581926 
L 296.597325 246.466682 
L 296.841978 239.732517 
L 297.086631 238.283854 
L 297.331284 238.091633 
L 297.575937 236.720255 
L 297.82059 236.351843 
L 298.065243 235.356313 
L 298.309896 235.340566 
L 298.554549 234.387152 
L 298.799202 234.653356 
L 300.022467 232.305674 
L 300.26712 233.219282 
L 300.756426 233.001706 
L 301.001079 233.263817 
L 301.245732 232.084186 
L 301.490385 233.199373 
L 301.735038 232.36523 
L 301.979691 232.416299 
L 302.224344 231.751975 
L 302.468997 231.709384 
L 302.71365 232.591545 
L 302.958303 231.273915 
L 303.447609 231.969007 
L 303.692262 230.585663 
L 303.936915 234.112758 
L 304.181568 234.776106 
L 304.670874 232.645735 
L 304.915527 232.350264 
L 305.16018 232.78465 
L 305.649486 231.561428 
L 305.894139 230.018491 
L 306.383445 226.078399 
L 306.628098 225.190629 
L 306.872751 225.233475 
L 307.117404 224.544522 
L 307.362057 225.568932 
L 308.096016 223.598893 
L 308.340669 224.685572 
L 309.074628 220.586538 
L 309.319281 221.179306 
L 309.563934 220.995387 
L 309.808587 220.116193 
L 310.05324 220.308693 
L 310.297893 221.057092 
L 310.542546 221.060547 
L 311.276505 217.952188 
L 311.521158 217.652806 
L 311.765811 217.996183 
L 312.010464 216.60471 
L 312.255117 212.632457 
L 312.744423 213.155466 
L 312.989076 214.719396 
L 313.233729 213.921217 
L 313.723035 213.42074 
L 313.967688 212.72242 
L 314.456994 214.484184 
L 314.701647 213.759076 
L 314.9463 213.796202 
L 315.435607 214.730665 
L 315.68026 212.550052 
L 315.924913 213.208856 
L 316.169566 212.479344 
L 316.414219 213.587192 
L 316.658872 213.08886 
L 316.903525 216.558054 
L 317.148178 215.67201 
L 317.392831 216.137774 
L 317.637484 215.544345 
L 317.882137 213.047073 
L 318.12679 212.83498 
L 318.371443 211.291946 
L 318.616096 212.086028 
L 318.860749 210.211662 
L 319.105402 209.887436 
L 319.350055 210.140748 
L 319.594708 211.1296 
L 319.839361 208.478155 
L 320.084014 208.039365 
L 320.328667 207.353997 
L 320.57332 205.707476 
L 320.817973 205.575053 
L 321.307279 205.716442 
L 321.551932 207.387147 
L 321.796585 207.807976 
L 322.041238 207.400875 
L 322.285891 208.770561 
L 322.530544 208.365274 
L 322.775197 209.946258 
L 323.01985 208.479773 
L 323.264503 209.005112 
L 323.509156 207.703308 
L 323.753809 208.374715 
L 323.998462 206.667912 
L 324.243115 207.150521 
L 324.487768 203.173209 
L 324.732421 201.63023 
L 324.977074 201.248067 
L 325.221727 202.759765 
L 325.46638 202.884961 
L 325.711033 202.227813 
L 325.955686 204.763596 
L 326.200339 205.215985 
L 326.444992 206.512487 
L 326.689645 207.148651 
L 326.934298 202.190291 
L 327.178951 202.626086 
L 327.668257 206.204632 
L 327.91291 179.495149 
L 328.157563 186.07819 
L 328.402216 184.285508 
L 328.646869 177.612858 
L 329.136175 175.539778 
L 329.380828 175.795555 
L 329.625481 175.41568 
L 329.870134 174.738571 
L 330.114787 174.574301 
L 330.35944 174.779172 
L 330.848746 176.828124 
L 331.093399 182.207378 
L 331.338052 182.055376 
L 331.582705 177.253148 
L 332.072011 174.015124 
L 332.316664 174.91792 
L 332.561317 176.830142 
L 332.80597 180.450237 
L 333.050623 177.809655 
L 333.295276 171.757236 
L 333.784582 167.153731 
L 334.029235 165.493314 
L 334.273888 159.972065 
L 334.518541 160.343616 
L 335.007847 155.549257 
L 335.2525 146.041757 
L 335.497153 155.07021 
L 335.741806 154.812815 
L 335.986459 157.311328 
L 336.231112 163.462369 
L 336.475765 160.983473 
L 336.720418 163.855741 
L 336.965071 163.262725 
L 337.209724 159.000346 
L 337.454377 159.586004 
L 337.943684 163.269311 
L 338.188337 162.821136 
L 338.43299 165.275114 
L 338.677643 163.655186 
L 338.922296 160.270535 
L 339.166949 161.265852 
L 339.411602 160.0849 
L 339.656255 157.458726 
L 339.900908 156.495797 
L 340.145561 154.799272 
L 340.390214 152.259145 
L 340.634867 154.638815 
L 340.87952 155.591652 
L 341.124173 149.795177 
L 341.368826 148.481635 
L 341.613479 149.201883 
L 342.102785 142.901676 
L 342.592091 146.483198 
L 342.836744 148.400788 
L 343.081397 154.965245 
L 343.32605 155.685391 
L 343.570703 155.438292 
L 343.815356 157.781296 
L 344.060009 158.595915 
L 344.304662 153.512173 
L 344.549315 153.939495 
L 344.793968 165.469865 
L 345.038621 165.69585 
L 345.283274 161.1796 
L 345.527927 164.151737 
L 345.77258 162.866387 
L 346.017233 167.240066 
L 346.506539 170.467282 
L 346.751192 168.380594 
L 346.995845 168.04211 
L 347.240498 168.970149 
L 347.485151 167.652328 
L 347.729804 164.724568 
L 347.974457 164.980057 
L 348.21911 163.892974 
L 348.463763 162.20296 
L 348.708416 159.709451 
L 348.953069 155.74344 
L 349.197722 159.292036 
L 349.442375 157.336293 
L 349.687028 158.055936 
L 349.931681 157.246823 
L 350.176334 157.494852 
L 350.420987 157.384957 
L 350.66564 157.787993 
L 350.910293 155.395134 
L 351.399599 156.782092 
L 351.644252 165.436817 
L 351.888905 166.445649 
L 352.133558 165.458796 
L 352.378211 165.962966 
L 352.622864 168.815022 
L 352.867517 168.869807 
L 353.11217 169.798535 
L 353.356823 172.083852 
L 353.601476 168.003453 
L 353.846129 167.652319 
L 354.090782 166.642734 
L 354.335435 165.149127 
L 354.580088 164.742436 
L 355.069394 160.973902 
L 355.314047 161.816295 
L 355.5587 160.187075 
L 355.803353 161.695052 
L 356.048006 159.088709 
L 356.292659 162.785335 
L 356.537312 161.888343 
L 357.026618 162.172219 
L 357.271271 163.26439 
L 357.515924 162.581636 
L 357.760577 139.178123 
L 358.249883 132.761343 
L 358.494536 124.125099 
L 358.739189 121.533768 
L 358.983842 132.203989 
L 359.473148 121.453311 
L 359.717801 119.533741 
L 359.962454 121.728426 
L 360.207107 119.049904 
L 360.451761 120.102052 
L 360.941067 111.835833 
L 361.18572 112.656991 
L 361.675026 112.835819 
L 361.919679 108.382567 
L 362.164332 108.365732 
L 362.408985 106.432265 
L 362.653638 93.349448 
L 362.898291 104.807528 
L 363.142944 106.112039 
L 363.387597 102.822439 
L 363.876903 104.028765 
L 364.121556 103.397484 
L 364.366209 97.557498 
L 364.610862 96.865051 
L 364.855515 95.388856 
L 365.100168 95.581412 
L 365.344821 99.938916 
L 365.589474 102.225796 
L 365.834127 107.956529 
L 366.07878 103.352149 
L 366.323433 108.731609 
L 366.568086 111.231117 
L 366.812739 116.464359 
L 367.057392 113.020394 
L 367.302045 113.026422 
L 367.546698 108.618281 
L 367.791351 100.73338 
L 368.036004 98.41908 
L 368.280657 89.983186 
L 368.52531 91.485015 
L 368.769963 87.27105 
L 369.014616 87.239369 
L 369.503922 85.912796 
L 369.993228 82.856919 
L 370.482534 86.666594 
L 370.727187 83.034686 
L 370.97184 89.349598 
L 371.216493 87.479678 
L 371.461146 88.276802 
L 371.705799 87.119364 
L 371.950452 86.78872 
L 372.439758 82.42504 
L 372.684411 77.195667 
L 372.929064 78.867376 
L 373.173717 78.234439 
L 373.41837 84.673171 
L 373.663023 97.52991 
L 373.907676 82.343914 
L 374.152329 83.525927 
L 374.396982 86.200969 
L 374.641635 90.253724 
L 374.886288 90.145773 
L 375.130941 92.820816 
L 375.620247 85.881599 
L 375.8649 85.752348 
L 376.109553 87.489928 
L 376.354206 86.771066 
L 376.598859 87.135697 
L 376.843512 85.438242 
L 377.088165 80.885261 
L 377.332818 79.343995 
L 377.577471 85.606224 
L 377.822124 85.488823 
L 378.066777 84.512388 
L 378.31143 87.731168 
L 378.556083 81.76033 
L 378.800736 81.198307 
L 379.045389 80.339515 
L 379.290042 80.801717 
L 379.779348 58.517302 
L 380.024001 60.515729 
L 380.268654 61.422106 
L 380.513307 68.629778 
L 380.75796 69.370703 
L 381.002613 78.233342 
L 381.491919 73.314466 
L 381.736572 74.000532 
L 381.981225 69.580913 
L 382.225878 68.902549 
L 382.470531 68.650093 
L 382.715184 66.627631 
L 382.959838 66.415133 
L 383.204491 66.564772 
L 383.693797 55.741601 
L 383.93845 55.539371 
L 384.183103 54.338235 
L 384.672409 47.052134 
L 384.917062 46.718905 
L 385.161715 47.853481 
L 385.406368 48.260302 
L 385.651021 46.902848 
L 385.895674 47.977672 
L 386.140327 46.334388 
L 386.38498 50.894215 
L 386.629633 48.938574 
L 386.874286 41.504228 
L 387.118939 39.121824 
L 387.363592 35.122012 
L 387.608245 34.414125 
L 387.852898 35.780155 
L 387.852898 35.780155 
" style="fill:none;stroke:#1f77b4;stroke-linecap:square;stroke-width:1.5;"/>
   </g>
   <g id="line2d_32">
    <path clip-path="url(#p516d0609e4)" d="M 63.198352 273.956795 
L 63.443005 273.700775 
L 63.687658 273.883647 
L 63.932311 273.82269 
L 64.66627 272.957098 
L 64.910923 272.859566 
L 65.155576 272.274377 
L 65.400229 272.3841 
L 65.644882 272.152463 
L 66.134188 272.55478 
L 66.378841 272.189037 
L 66.623494 272.347526 
L 67.357453 272.359717 
L 67.602106 272.774226 
L 67.846759 272.408483 
L 68.091412 272.713269 
L 68.580719 272.749843 
L 68.825372 273.079012 
L 69.070025 273.103395 
L 69.314678 274.017753 
L 69.559331 273.968987 
L 69.803984 273.469138 
L 70.048637 273.871455 
L 70.29329 274.017753 
L 71.271902 273.335032 
L 71.516555 273.798307 
L 72.005861 273.493521 
L 72.250514 273.615435 
L 72.73982 273.554478 
L 73.229126 274.139667 
L 73.718432 273.944604 
L 73.963085 274.212815 
L 74.207738 274.151858 
L 74.452391 274.310347 
L 74.697044 273.603244 
L 74.941697 273.99337 
L 75.18635 274.151858 
L 75.675656 274.76143 
L 75.920309 274.67609 
L 76.164962 274.810196 
L 76.409615 274.615133 
L 76.654268 274.16405 
L 77.143574 274.529793 
L 77.388227 275.44415 
L 77.63288 275.61483 
L 77.877533 275.175939 
L 78.122186 275.371002 
L 78.366839 275.35881 
L 78.856145 275.61483 
L 79.100798 274.907727 
L 79.345451 274.980876 
L 79.590104 274.33473 
L 79.834757 274.346921 
L 80.07941 274.834579 
L 80.324063 274.749239 
L 80.813369 275.687979 
L 81.058022 275.78551 
L 81.302675 276.139062 
L 81.547328 276.078105 
L 81.791981 276.334125 
L 82.036634 275.943999 
L 82.281287 276.200019 
L 82.52594 275.797702 
L 82.770593 275.70017 
L 83.015246 275.44415 
L 83.504552 275.261279 
L 83.749205 275.52949 
L 83.993858 275.61483 
L 84.238511 275.883042 
L 84.483164 275.456342 
L 84.727817 275.627022 
L 85.217123 275.627022 
L 85.706429 274.785813 
L 85.951082 274.944302 
L 87.419 274.798004 
L 87.663653 275.151556 
L 88.152959 275.285662 
L 88.642265 275.456342 
L 88.886918 275.261279 
L 89.131571 274.700473 
L 89.376224 274.688281 
L 89.620877 274.176241 
L 90.110183 274.980876 
L 90.354836 275.322236 
L 91.088796 275.334427 
L 91.333449 275.602639 
L 91.822755 275.27347 
L 92.312061 275.44415 
L 92.801367 275.346619 
L 93.290673 274.834579 
L 93.535326 275.163747 
L 94.269285 275.127173 
L 94.513938 275.383193 
L 94.758591 275.041833 
L 95.247897 275.224704 
L 95.737203 274.956493 
L 96.226509 275.127173 
L 96.471162 274.688281 
L 96.715815 274.688281 
L 97.449774 275.224704 
L 97.694427 274.944302 
L 97.93908 275.212513 
L 98.183733 275.127173 
L 98.428386 274.84677 
L 98.917692 274.712664 
L 99.162345 274.785813 
L 99.406998 274.602941 
L 101.364222 274.798004 
L 101.853528 275.005259 
L 102.098181 274.822387 
L 102.342834 275.066216 
L 102.587487 274.993067 
L 102.83214 275.078407 
L 103.321446 274.785813 
L 103.566099 274.566367 
L 103.810752 275.078407 
L 104.300058 275.419767 
L 104.544711 275.285662 
L 104.789364 275.01745 
L 105.034017 275.054024 
L 105.523323 274.566367 
L 105.767976 274.639516 
L 106.012629 274.24939 
L 106.257282 274.578558 
L 106.501935 274.407878 
L 106.991241 274.919919 
L 107.480547 274.858961 
L 108.214506 273.786115 
L 108.459159 273.859264 
L 108.948465 273.420372 
L 109.193118 273.566669 
L 109.682424 273.298458 
L 109.927077 273.347224 
L 110.17173 273.566669 
L 110.416383 273.261884 
L 110.661036 273.249692 
L 110.905689 272.481632 
L 111.150342 272.847375 
L 111.639648 272.286569 
L 111.884301 272.371909 
L 112.128954 272.079314 
L 112.373607 272.115889 
L 112.61826 272.018357 
L 112.862913 272.652312 
L 113.107566 272.371909 
L 113.841526 272.603546 
L 114.086179 272.371909 
L 114.330832 272.566972 
L 114.820138 272.566972 
L 115.064791 272.944906 
L 115.309444 272.835183 
L 115.554097 272.591355 
L 115.79875 272.603546 
L 116.288056 273.079012 
L 116.532709 272.688886 
L 116.777362 272.713269 
L 117.022015 272.542589 
L 117.266668 272.652312 
L 117.511321 272.115889 
L 117.755974 272.603546 
L 118.000627 272.64012 
L 118.24528 272.993672 
L 118.489933 272.871758 
L 119.223892 273.091204 
L 120.202504 272.847375 
L 120.447157 272.944906 
L 120.69181 272.847375 
L 121.181116 272.371909 
L 122.159728 272.396292 
L 122.404381 272.46944 
L 122.649034 272.847375 
L 124.116952 272.932715 
L 124.361605 272.64012 
L 124.606258 272.603546 
L 125.095564 272.21342 
L 125.340217 272.12808 
L 125.58487 272.396292 
L 125.829523 272.408483 
L 126.074176 272.286569 
L 126.563482 272.688886 
L 126.808135 272.627929 
L 127.052788 271.884252 
L 127.542094 271.689189 
L 127.786747 271.981783 
L 129.010012 271.933017 
L 129.254665 272.164655 
L 130.233277 272.21342 
L 130.722583 271.993974 
L 130.967236 272.067123 
L 131.945848 271.067425 
L 132.435154 270.93332 
L 133.169113 270.787022 
L 133.658419 271.140574 
L 134.147725 271.043043 
L 135.615643 271.457551 
L 135.860297 271.201531 
L 136.10495 271.201531 
L 136.349603 271.36002 
L 136.594256 271.652614 
L 136.838909 271.457551 
L 137.083562 271.603849 
L 137.328215 271.323446 
L 137.572868 271.420977 
L 137.817521 271.18934 
L 138.062174 271.152766 
L 138.306827 270.93332 
L 138.55148 270.884554 
L 138.796133 270.982085 
L 139.285439 271.457551 
L 139.774745 271.664806 
L 140.753357 271.603849 
L 140.99801 272.140272 
L 141.242663 272.164655 
L 141.487316 272.04274 
L 141.731969 272.481632 
L 141.976622 271.238106 
L 142.221275 271.079617 
L 142.465928 271.055234 
L 142.710581 270.518811 
L 142.955234 270.433471 
L 143.199887 270.494428 
L 143.689193 271.384403 
L 143.933846 271.664806 
L 144.178499 271.518509 
L 144.423152 271.70138 
L 144.667805 271.299063 
L 145.157111 271.067425 
L 145.401764 271.18934 
L 145.646417 271.006468 
L 145.89107 271.01866 
L 146.135723 270.750448 
L 146.869682 271.664806 
L 147.114335 271.238106 
L 147.358988 271.420977 
L 147.603641 271.78672 
L 147.848294 271.896443 
L 148.3376 271.78672 
L 148.582253 271.5307 
L 148.826906 271.457551 
L 149.071559 271.079617 
L 149.560865 270.921128 
L 149.805518 271.104 
L 150.050171 270.994277 
L 150.294824 270.738257 
L 150.539477 270.6773 
L 151.028783 271.104 
L 151.762742 270.262791 
L 152.007395 271.006468 
L 152.252048 271.030851 
L 152.496701 271.481934 
L 152.741354 270.896745 
L 152.986007 270.689491 
L 153.23066 270.628534 
L 153.475313 270.713874 
L 153.964619 270.665108 
L 154.209272 270.738257 
L 154.453925 271.238106 
L 154.698578 271.36002 
L 154.943231 271.177148 
L 155.187884 271.36002 
L 155.432537 271.043043 
L 155.67719 271.067425 
L 155.921843 271.323446 
L 156.166496 271.213723 
L 156.411149 271.384403 
L 157.389761 270.396897 
L 158.12372 268.373119 
L 158.368374 268.38531 
L 158.613027 268.092716 
L 158.85768 267.312464 
L 159.102333 267.483144 
L 159.346986 267.153975 
L 159.591639 267.36123 
L 159.836292 267.397804 
L 160.325598 267.800121 
L 160.570251 267.909844 
L 161.059557 267.483144 
L 161.30421 267.800121 
L 161.548863 267.824504 
L 161.793516 268.153673 
L 162.038169 267.934227 
L 162.282822 267.87327 
L 162.527475 268.580373 
L 163.016781 268.482841 
L 163.506087 267.592867 
L 163.995393 267.605058 
L 164.484699 267.714781 
L 164.974005 268.519416 
L 165.463311 268.373119 
L 165.707964 267.470952 
L 165.952617 267.61725 
L 166.19727 267.373421 
L 166.441923 268.080524 
L 166.686576 268.007376 
L 166.931229 267.214932 
L 167.175882 267.239315 
L 167.665188 268.117098 
L 168.154494 267.714781 
L 168.6438 267.580675 
L 169.622412 266.727275 
L 169.867065 267.373421 
L 170.111718 267.470952 
L 170.356371 267.422187 
L 170.601024 267.690398 
L 170.845677 267.568484 
L 171.09033 267.739164 
L 171.334983 267.495335 
L 171.579636 267.95861 
L 171.824289 267.934227 
L 172.068942 267.653824 
L 172.313595 268.202438 
L 172.558248 267.556292 
L 173.047554 268.141481 
L 173.53686 268.312161 
L 173.781513 267.605058 
L 174.026166 267.970801 
L 174.515472 267.87327 
L 174.760125 267.666015 
L 175.249431 267.068635 
L 176.472696 267.190549 
L 177.451308 266.861381 
L 177.940614 266.410298 
L 178.919226 266.324958 
L 179.163879 266.873572 
L 179.897838 267.751355 
L 180.142491 267.519718 
L 180.387144 267.824504 
L 180.631798 267.800121 
L 181.121104 267.349038 
L 181.365757 267.434378 
L 181.61041 267.227124 
L 182.099716 267.592867 
L 182.344369 266.910146 
L 182.589022 267.044252 
L 182.833675 266.983295 
L 183.078328 266.690701 
L 183.322981 266.593169 
L 183.812287 266.678509 
L 184.05694 267.726973 
L 184.301593 267.592867 
L 184.546246 267.690398 
L 184.790899 268.165864 
L 185.035552 268.12929 
L 185.280205 268.519416 
L 185.524858 268.604756 
L 185.769511 268.531607 
L 186.014164 268.165864 
L 186.258817 268.872967 
L 186.50347 268.64133 
L 187.482082 268.921733 
L 187.726735 267.044252 
L 188.216041 267.166167 
L 188.460694 267.032061 
L 188.705347 267.288081 
L 189.194653 266.678509 
L 189.439306 266.593169 
L 190.173265 266.946721 
L 190.417918 266.910146 
L 190.662571 266.495638 
L 190.907224 266.763849 
L 191.39653 266.495638 
L 191.641183 266.434681 
L 191.885836 266.215235 
L 192.130489 265.788535 
L 192.375142 265.861683 
L 192.864448 266.385915 
L 193.109101 266.300575 
L 193.598407 266.897955 
L 193.84306 267.214932 
L 194.087713 266.873572 
L 194.332366 266.861381 
L 194.577019 266.507829 
L 195.066325 267.178358 
L 195.310978 267.275889 
L 195.555631 267.141784 
L 195.800284 267.641632 
L 196.28959 267.629441 
L 196.534243 267.714781 
L 197.023549 268.031758 
L 197.268202 267.982993 
L 197.757508 268.348736 
L 198.002161 267.946418 
L 198.246814 268.373119 
L 198.491467 269.677602 
L 198.73612 269.738559 
L 199.225426 268.946116 
L 199.714732 268.970499 
L 199.959385 268.787627 
L 200.204038 267.87327 
L 200.448691 268.397501 
L 200.693344 267.909844 
L 200.937997 267.678207 
L 201.18265 267.666015 
L 201.427303 267.129592 
L 201.916609 267.422187 
L 202.161262 266.385915 
L 202.650568 265.66662 
L 203.139875 265.556897 
L 203.384528 266.081129 
L 203.629181 265.800726 
L 204.118487 266.264 
L 204.36314 266.373723 
L 204.607793 266.081129 
L 204.852446 266.190852 
L 205.097099 265.617854 
L 205.341752 265.812917 
L 205.586405 265.4106 
L 206.320364 265.130197 
L 206.565017 264.715688 
L 206.80967 264.64254 
L 207.054323 265.118006 
L 207.298976 265.081431 
L 207.543629 264.435285 
L 207.788282 264.666923 
L 208.032935 264.520625 
L 208.277588 264.849794 
L 208.522241 264.935134 
L 208.766894 265.49594 
L 209.011547 265.508132 
L 209.2562 266.276192 
L 209.500853 266.34934 
L 209.745506 266.629743 
L 209.990159 265.654429 
L 210.234812 265.556897 
L 210.479465 265.313069 
L 210.724118 264.874177 
L 211.213424 265.130197 
L 211.70273 265.142388 
L 211.947383 265.374026 
L 212.192036 265.764152 
L 212.436689 265.66662 
L 212.681342 266.081129 
L 212.925995 266.812615 
L 213.170648 266.873572 
L 213.415301 265.995789 
L 213.659954 265.898257 
L 213.904607 266.203043 
L 214.14926 266.239618 
L 214.393913 266.142086 
L 214.638566 266.312766 
L 214.883219 265.873875 
L 215.127872 265.800726 
L 215.861831 264.959517 
L 216.106484 265.081431 
L 216.351137 266.276192 
L 216.59579 266.666318 
L 216.840443 266.09332 
L 217.085096 266.800424 
L 217.574402 265.691003 
L 217.819055 265.630046 
L 218.063708 265.23992 
L 218.553014 265.361834 
L 218.797667 264.666923 
L 219.04232 264.837603 
L 219.286973 263.021079 
L 219.776279 262.923547 
L 220.020932 263.240525 
L 220.265585 263.167376 
L 220.510238 262.972313 
L 220.754891 263.191759 
L 220.999544 263.008888 
L 221.244197 263.216142 
L 221.48885 263.142993 
L 221.733503 263.313673 
L 221.978156 262.667527 
L 222.222809 263.167376 
L 222.467462 262.86259 
L 222.712115 262.338359 
L 222.956768 262.716293 
L 223.201421 262.643145 
L 223.446074 262.167679 
L 224.180033 262.533422 
L 224.669339 261.862893 
L 224.913992 262.326167 
L 225.403298 261.594681 
L 225.647952 262.52123 
L 225.892605 262.899165 
L 226.137258 264.5572 
L 226.381911 264.654731 
L 226.626564 264.142691 
L 226.871217 264.032968 
L 227.11587 264.691305 
L 227.605176 264.532817 
L 227.849829 263.801331 
L 228.339135 263.362439 
L 228.583788 262.752867 
L 228.828441 262.460273 
L 229.317747 262.94793 
L 229.5624 262.618762 
L 229.807053 262.789442 
L 230.051706 263.142993 
L 230.541012 263.325865 
L 230.785665 263.008888 
L 231.030318 263.11861 
L 231.274971 263.350248 
L 231.764277 263.021079 
L 232.00893 263.216142 
L 232.253583 263.142993 
L 232.498236 262.472464 
L 232.742889 262.643145 
L 232.987542 263.350248 
L 233.232195 263.264908 
L 233.476848 262.789442 
L 233.721501 264.825411 
L 233.966154 265.057048 
L 234.700113 264.252414 
L 235.189419 264.276797 
L 235.434072 264.5572 
L 235.678725 264.5572 
L 235.923378 264.740071 
L 236.168031 264.776645 
L 236.412684 264.935134 
L 236.657337 263.581885 
L 236.90199 263.216142 
L 237.146643 263.228333 
L 237.391296 262.923547 
L 237.880602 263.752565 
L 238.125255 263.277099 
L 238.369908 263.069845 
L 238.614561 263.691608 
L 238.859214 263.557502 
L 239.103867 264.032968 
L 239.34852 263.752565 
L 239.593173 264.47186 
L 239.837826 264.520625 
L 240.571785 263.459971 
L 241.061091 263.667225 
L 241.305744 264.337754 
L 241.550397 264.593774 
L 241.79505 264.398711 
L 242.284356 265.678812 
L 242.529009 265.691003 
L 242.773662 265.337451 
L 243.018315 265.313069 
L 243.996927 266.544403 
L 244.24158 266.129895 
L 244.486233 265.971406 
L 244.730886 265.959215 
L 244.975539 266.129895 
L 245.220192 265.593472 
L 245.464845 265.739769 
L 245.709498 266.190852 
L 245.954151 266.081129 
L 246.198804 266.544403 
L 246.443457 266.251809 
L 246.932763 266.666318 
L 247.422069 265.861683 
L 247.666722 265.800726 
L 247.911375 265.886066 
L 248.156029 265.471557 
L 248.400682 265.374026 
L 248.645335 265.118006 
L 248.889988 265.276494 
L 249.134641 262.192061 
L 249.379294 261.216747 
L 249.623947 261.363044 
L 249.8686 261.289895 
L 250.113253 261.533724 
L 250.357906 261.509341 
L 250.602559 261.692213 
L 250.847212 262.070147 
L 251.091865 262.17987 
L 251.825824 264.959517 
L 252.070477 265.483749 
L 252.31513 263.618459 
L 252.559783 262.618762 
L 252.804436 262.496847 
L 253.049089 262.801633 
L 253.293742 263.923245 
L 253.538395 263.130802 
L 253.783048 263.057653 
L 254.027701 263.691608 
L 254.272354 262.557804 
L 254.517007 263.106419 
L 254.76166 262.679719 
L 255.250966 262.545613 
L 255.984925 261.789744 
L 256.229578 261.814127 
L 256.474231 261.521533 
L 256.718884 262.301784 
L 256.963537 262.167679 
L 257.20819 261.631255 
L 257.452843 261.424001 
L 257.697496 261.801936 
L 257.942149 261.302087 
L 258.186802 260.156092 
L 258.431455 260.741281 
L 258.920761 259.217352 
L 259.410067 258.485865 
L 259.65472 258.302994 
L 259.899373 258.424908 
L 260.144026 258.083548 
L 260.388679 258.022591 
L 260.633332 256.852213 
L 260.877985 256.766873 
L 261.122638 256.242642 
L 261.611944 256.352365 
L 261.856597 256.791256 
L 262.10125 255.584304 
L 262.345903 255.352667 
L 262.590556 255.511156 
L 262.835209 255.535538 
L 263.079862 255.255135 
L 263.324515 256.462087 
L 263.569168 255.620878 
L 263.813821 255.218561 
L 264.058474 255.46239 
L 264.54778 256.425513 
L 264.792433 251.744002 
L 265.037086 251.914683 
L 265.281739 252.646169 
L 265.526392 253.011912 
L 265.771045 253.146017 
L 266.015698 253.877503 
L 266.260351 253.146017 
L 266.505004 253.146017 
L 266.749657 252.377957 
L 266.99431 252.268234 
L 267.238963 251.939065 
L 267.483616 252.512063 
L 267.728269 252.207277 
L 267.972922 252.256043 
L 268.462228 251.536748 
L 268.706881 250.28103 
L 268.951534 250.585816 
L 269.196187 250.671156 
L 269.44084 249.061887 
L 269.685493 249.842139 
L 269.930146 249.293524 
L 270.174799 250.329796 
L 270.419452 250.000627 
L 270.664106 250.598008 
L 270.908759 250.500476 
L 271.398065 249.76899 
L 271.887371 251.024708 
L 272.132024 250.098159 
L 272.62133 249.915287 
L 272.865983 249.76899 
L 273.110636 249.805564 
L 273.355289 249.147227 
L 273.844595 250.02501 
L 274.089248 250.744305 
L 274.333901 250.11035 
L 274.823207 253.292315 
L 275.06786 254.084758 
L 275.312513 254.023801 
L 275.557166 253.414229 
L 276.291125 257.156999 
L 277.025084 256.31579 
L 277.269737 255.523347 
L 277.51439 255.559921 
L 277.759043 255.218561 
L 278.248349 256.011004 
L 278.493002 254.499267 
L 278.737655 254.487075 
L 278.982308 255.998813 
L 279.226961 255.828133 
L 279.471614 255.815941 
L 279.96092 259.46118 
L 280.205573 259.132011 
L 280.694879 259.363649 
L 280.939532 258.839417 
L 281.184185 257.303296 
L 281.428838 256.48647 
L 281.673491 253.584909 
L 281.918144 253.097252 
L 282.162797 251.780577 
L 282.40745 251.683045 
L 282.652103 251.414834 
L 282.896756 251.329494 
L 283.141409 251.585514 
L 283.386062 251.609897 
L 283.630715 251.97564 
L 283.875368 250.28103 
L 284.120021 250.049393 
L 284.364674 250.402945 
L 284.609327 250.524859 
L 284.85398 250.780879 
L 285.098633 251.500174 
L 285.587939 251.585514 
L 285.832592 250.927176 
L 286.077245 250.829645 
L 286.321898 251.024708 
L 286.566551 249.85433 
L 286.811204 250.19569 
L 287.055857 248.988738 
L 287.30051 248.866824 
L 287.545163 248.939973 
L 287.789816 248.232869 
L 288.034469 248.171912 
L 288.279122 247.745212 
L 288.768428 246.611409 
L 289.013081 246.769897 
L 289.257734 246.135943 
L 289.502387 246.562643 
L 289.74704 246.6236 
L 289.991693 246.562643 
L 290.236346 247.013726 
L 290.725652 246.465111 
L 290.970305 246.513877 
L 291.214958 245.416648 
L 291.459611 245.294734 
L 291.704264 244.941182 
L 291.948917 245.136245 
L 292.19357 245.94088 
L 292.438223 245.7702 
L 292.682876 245.818965 
L 292.92753 245.989646 
L 293.172183 245.7702 
L 293.416836 245.733625 
L 293.661489 244.721736 
L 294.150795 246.891812 
L 294.395448 246.318814 
L 294.640101 246.843046 
L 294.884754 247.830552 
L 295.129407 247.574532 
L 295.37406 247.13564 
L 295.618713 247.196598 
L 295.863366 246.36758 
L 296.108019 246.245666 
L 296.352672 246.843046 
L 296.597325 240.24748 
L 296.841978 238.772317 
L 297.086631 238.662594 
L 297.331284 237.345919 
L 297.575937 237.114282 
L 297.82059 236.16335 
L 298.065243 236.07801 
L 298.309896 234.907632 
L 298.554549 235.139269 
L 299.288508 233.249597 
L 299.533161 233.139874 
L 299.777814 232.737557 
L 300.022467 233.542191 
L 300.26712 233.834786 
L 300.511773 233.725063 
L 300.756426 233.907934 
L 301.001079 232.444962 
L 301.245732 233.883551 
L 301.490385 233.164257 
L 301.735038 233.054534 
L 301.979691 232.469345 
L 302.224344 232.237708 
L 302.468997 233.249597 
L 302.71365 232.225516 
L 302.958303 232.579068 
L 303.202956 232.627834 
L 303.447609 231.091713 
L 303.692262 234.456549 
L 303.936915 235.053929 
L 304.670874 232.896045 
L 304.915527 233.322746 
L 305.16018 232.481537 
L 305.404833 232.115794 
L 305.649486 230.604056 
L 306.138792 226.788137 
L 306.383445 225.837205 
L 306.628098 225.861588 
L 306.872751 225.20325 
L 307.117404 225.959119 
L 307.362057 225.629951 
L 307.851363 224.106021 
L 308.096016 225.325165 
L 308.585322 222.326072 
L 308.829975 221.167886 
L 309.074628 221.862797 
L 309.319281 221.7165 
L 309.563934 220.594888 
L 309.808587 221.045971 
L 310.05324 221.88718 
L 310.297893 221.704309 
L 310.787199 219.253831 
L 311.031852 218.595493 
L 311.276505 218.412622 
L 311.521158 218.875896 
L 311.765811 217.425115 
L 312.010464 213.353176 
L 312.255117 213.426325 
L 312.49977 213.8896 
L 312.744423 215.657357 
L 312.989076 214.499171 
L 313.478382 213.987131 
L 313.723035 213.511665 
L 313.967688 214.694234 
L 314.212341 215.194083 
L 314.456994 214.584511 
L 314.701647 214.633277 
L 315.190953 215.42572 
L 315.435607 213.219071 
L 315.68026 213.97494 
L 315.924913 213.255645 
L 316.169566 214.389448 
L 316.414219 213.840834 
L 316.658872 217.644561 
L 316.903525 216.145015 
L 317.148178 217.217861 
L 317.392831 216.571715 
L 317.637484 213.779877 
L 317.882137 213.597005 
L 318.12679 212.585116 
L 318.371443 213.292219 
L 318.616096 211.134335 
L 318.860749 210.939272 
L 319.105402 211.024613 
L 319.350055 211.76829 
L 319.594708 209.086175 
L 319.839361 208.79358 
L 320.084014 208.037711 
L 320.328667 206.672271 
L 321.062626 207.025822 
L 321.551932 208.70824 
L 321.796585 208.403454 
L 322.041238 209.586023 
L 322.285891 209.22028 
L 322.530544 210.536955 
L 322.775197 209.756703 
L 323.01985 210.219978 
L 323.264503 209.000834 
L 323.509156 209.171515 
L 323.753809 207.635394 
L 323.998462 207.867031 
L 324.243115 204.002346 
L 324.487768 202.58814 
L 324.732421 202.234589 
L 324.977074 204.038921 
L 325.221727 204.185218 
L 325.46638 203.453732 
L 325.711033 206.026125 
L 325.955686 206.379676 
L 326.200339 207.354991 
L 326.444992 207.830457 
L 326.689645 203.319626 
L 326.934298 203.453732 
L 327.178951 204.916704 
L 327.423604 207.586628 
L 327.668257 182.959931 
L 327.91291 188.238822 
L 328.157563 185.130007 
L 328.402216 178.497866 
L 328.891522 176.388748 
L 329.136175 176.852023 
L 329.380828 176.035197 
L 329.870134 175.413434 
L 330.114787 175.474391 
L 330.604093 177.802955 
L 330.848746 183.362249 
L 331.093399 182.374742 
L 331.338052 178.193081 
L 331.827358 174.304013 
L 332.561317 180.984919 
L 332.80597 179.058672 
L 333.050623 172.621595 
L 333.539929 167.793787 
L 333.784582 166.306432 
L 334.029235 161.990665 
L 334.273888 161.18603 
L 334.518541 159.625526 
L 334.763194 156.370413 
L 335.007847 147.178072 
L 335.2525 157.016559 
L 335.497153 154.358827 
L 335.986459 165.843158 
L 336.231112 162.941596 
L 336.475765 166.172326 
L 336.720418 164.514291 
L 336.965071 159.418272 
L 337.209724 160.405778 
L 337.69903 164.099783 
L 337.943684 164.111974 
L 338.188337 166.940387 
L 338.677643 162.002856 
L 338.922296 163.404871 
L 339.166949 162.088196 
L 339.411602 159.357315 
L 339.656255 158.796509 
L 340.145561 153.944318 
L 340.390214 156.077819 
L 340.634867 157.1019 
L 340.87952 151.286585 
L 341.124173 149.531019 
L 341.368826 150.762354 
L 341.858132 144.971423 
L 342.102785 145.605377 
L 342.592091 151.688903 
L 342.836744 158.077214 
L 343.32605 157.321345 
L 343.570703 159.454846 
L 343.815356 159.479229 
L 344.060009 154.797718 
L 344.304662 155.175653 
L 344.549315 167.696256 
L 344.793968 166.513687 
L 345.038621 162.917214 
L 345.283274 166.489304 
L 345.527927 164.892226 
L 345.77258 169.512779 
L 346.261886 171.13424 
L 346.506539 169.829757 
L 346.751192 170.049203 
L 346.995845 170.073585 
L 347.240498 169.366482 
L 347.485151 166.038221 
L 347.729804 166.123561 
L 347.974457 165.18482 
L 348.21911 163.6487 
L 348.463763 160.893436 
L 348.708416 156.772731 
L 348.953069 161.088498 
L 349.197722 158.455149 
L 349.442375 159.649909 
L 349.687028 159.186635 
L 349.931681 158.235703 
L 350.420987 159.345123 
L 350.66564 156.833688 
L 351.154946 158.077214 
L 351.399599 167.342704 
L 351.644252 168.257062 
L 351.888905 167.367087 
L 352.133558 167.891319 
L 352.378211 171.012326 
L 352.622864 170.585626 
L 352.867517 171.573132 
L 353.11217 173.791973 
L 353.356823 169.232376 
L 353.601476 169.159228 
L 353.846129 168.683762 
L 354.090782 166.757515 
L 354.335435 166.245475 
L 354.824741 162.514896 
L 355.069394 163.39268 
L 355.314047 161.417667 
L 355.5587 163.051319 
L 355.803353 160.198524 
L 356.048006 164.051017 
L 356.292659 163.112277 
L 356.537312 163.599934 
L 356.781965 163.587742 
L 357.026618 164.916609 
L 357.271271 164.709354 
L 357.515924 142.338073 
L 357.760577 135.986336 
L 358.00523 134.291726 
L 358.249883 126.464826 
L 358.494536 123.416967 
L 358.739189 134.498981 
L 359.228495 124.404473 
L 359.473148 120.868957 
L 359.717801 123.148756 
L 359.962454 121.271275 
L 360.207107 121.649209 
L 360.696414 113.590671 
L 360.941067 114.224626 
L 361.18572 114.212434 
L 361.430373 115.090218 
L 361.675026 109.762561 
L 361.919679 110.579387 
L 362.164332 108.409312 
L 362.408985 95.21818 
L 362.653638 107.824123 
L 362.898291 107.37304 
L 363.142944 105.629665 
L 363.387597 105.239539 
L 363.63225 104.447096 
L 363.876903 105.361453 
L 364.121556 98.412336 
L 364.366209 98.692739 
L 364.610862 95.791177 
L 364.855515 97.132235 
L 365.100168 102.667146 
L 365.344821 104.715307 
L 365.589474 111.505936 
L 365.834127 105.202965 
L 366.07878 111.384022 
L 366.323433 113.968606 
L 366.568086 120.344726 
L 366.812739 115.809512 
L 367.057392 115.285281 
L 367.302045 111.28649 
L 367.546698 102.825635 
L 367.791351 100.167902 
L 368.036004 92.084981 
L 368.280657 94.376971 
L 368.52531 89.110272 
L 368.769963 89.963672 
L 369.014616 87.878937 
L 369.259269 88.9274 
L 369.503922 86.001456 
L 369.748575 85.26997 
L 369.993228 87.647299 
L 370.237881 88.622614 
L 370.482534 86.29405 
L 370.727187 93.023722 
L 370.97184 89.792992 
L 371.216493 92.084981 
L 371.461146 89.671078 
L 371.705799 89.792992 
L 371.950452 87.244982 
L 372.195105 86.355007 
L 372.439758 80.08861 
L 372.684411 82.587854 
L 372.929064 80.381205 
L 373.41837 100.070371 
L 373.663023 84.904227 
L 374.152329 88.866443 
L 374.396982 93.352891 
L 374.641635 93.316316 
L 374.886288 96.181303 
L 375.375594 88.074 
L 375.620247 88.817677 
L 375.8649 90.500095 
L 376.109553 89.085889 
L 376.354206 89.415057 
L 376.598859 88.220297 
L 376.843512 83.636318 
L 377.088165 82.392791 
L 377.332818 87.939894 
L 377.577471 88.061808 
L 377.822124 87.123068 
L 378.066777 90.646392 
L 378.31143 84.172741 
L 378.800736 82.502514 
L 379.045389 83.685083 
L 379.534695 61.55763 
L 379.779348 61.801459 
L 380.024001 63.642366 
L 380.268654 69.835614 
L 380.513307 71.981307 
L 380.75796 81.734454 
L 381.002613 80.564076 
L 381.247266 75.967906 
L 381.491919 76.028863 
L 381.736572 72.26171 
L 381.981225 71.981307 
L 382.225878 71.530224 
L 382.470531 69.701508 
L 382.715184 69.823423 
L 382.959838 69.177277 
L 383.449144 59.875213 
L 383.693797 57.424734 
L 383.93845 57.315011 
L 384.427756 48.902922 
L 384.917062 49.329622 
L 385.161715 49.061411 
L 385.406368 50.15864 
L 385.651021 50.5 
L 385.895674 47.988564 
L 386.140327 54.108664 
L 386.38498 51.633803 
L 386.629633 44.111688 
L 386.874286 41.697784 
L 387.118939 38.076928 
L 387.363592 37.601462 
L 387.608245 39.137583 
L 387.852898 35.784939 
L 387.852898 35.784939 
" style="fill:none;stroke:#ff7f0e;stroke-linecap:square;stroke-width:1.5;"/>
   </g>
   <g id="patch_3">
    <path d="M 46.965625 288.430125 
L 46.965625 22.318125 
" style="fill:none;stroke:#000000;stroke-linecap:square;stroke-linejoin:miter;stroke-width:0.8;"/>
   </g>
   <g id="patch_4">
    <path d="M 404.085625 288.430125 
L 404.085625 22.318125 
" style="fill:none;stroke:#000000;stroke-linecap:square;stroke-linejoin:miter;stroke-width:0.8;"/>
   </g>
   <g id="patch_5">
    <path d="M 46.965625 288.430125 
L 404.085625 288.430125 
" style="fill:none;stroke:#000000;stroke-linecap:square;stroke-linejoin:miter;stroke-width:0.8;"/>
   </g>
   <g id="patch_6">
    <path d="M 46.965625 22.318125 
L 404.085625 22.318125 
" style="fill:none;stroke:#000000;stroke-linecap:square;stroke-linejoin:miter;stroke-width:0.8;"/>
   </g>
   <g id="text_18">
    <!-- Training: NVDA -->
    <defs>
     <path d="M -0.296875 72.90625 
L 61.375 72.90625 
L 61.375 64.59375 
L 35.5 64.59375 
L 35.5 0 
L 25.59375 0 
L 25.59375 64.59375 
L -0.296875 64.59375 
z
" id="DejaVuSans-84"/>
     <path d="M 54.890625 33.015625 
L 54.890625 0 
L 45.90625 0 
L 45.90625 32.71875 
Q 45.90625 40.484375 42.875 44.328125 
Q 39.84375 48.1875 33.796875 48.1875 
Q 26.515625 48.1875 22.3125 43.546875 
Q 18.109375 38.921875 18.109375 30.90625 
L 18.109375 0 
L 9.078125 0 
L 9.078125 54.6875 
L 18.109375 54.6875 
L 18.109375 46.1875 
Q 21.34375 51.125 25.703125 53.5625 
Q 30.078125 56 35.796875 56 
Q 45.21875 56 50.046875 50.171875 
Q 54.890625 44.34375 54.890625 33.015625 
z
" id="DejaVuSans-110"/>
     <path d="M 45.40625 27.984375 
Q 45.40625 37.75 41.375 43.109375 
Q 37.359375 48.484375 30.078125 48.484375 
Q 22.859375 48.484375 18.828125 43.109375 
Q 14.796875 37.75 14.796875 27.984375 
Q 14.796875 18.265625 18.828125 12.890625 
Q 22.859375 7.515625 30.078125 7.515625 
Q 37.359375 7.515625 41.375 12.890625 
Q 45.40625 18.265625 45.40625 27.984375 
z
M 54.390625 6.78125 
Q 54.390625 -7.171875 48.1875 -13.984375 
Q 42 -20.796875 29.203125 -20.796875 
Q 24.46875 -20.796875 20.265625 -20.09375 
Q 16.0625 -19.390625 12.109375 -17.921875 
L 12.109375 -9.1875 
Q 16.0625 -11.328125 19.921875 -12.34375 
Q 23.78125 -13.375 27.78125 -13.375 
Q 36.625 -13.375 41.015625 -8.765625 
Q 45.40625 -4.15625 45.40625 5.171875 
L 45.40625 9.625 
Q 42.625 4.78125 38.28125 2.390625 
Q 33.9375 0 27.875 0 
Q 17.828125 0 11.671875 7.65625 
Q 5.515625 15.328125 5.515625 27.984375 
Q 5.515625 40.671875 11.671875 48.328125 
Q 17.828125 56 27.875 56 
Q 33.9375 56 38.28125 53.609375 
Q 42.625 51.21875 45.40625 46.390625 
L 45.40625 54.6875 
L 54.390625 54.6875 
z
" id="DejaVuSans-103"/>
     <path d="M 11.71875 12.40625 
L 22.015625 12.40625 
L 22.015625 0 
L 11.71875 0 
z
M 11.71875 51.703125 
L 22.015625 51.703125 
L 22.015625 39.3125 
L 11.71875 39.3125 
z
" id="DejaVuSans-58"/>
     <path d="M 9.8125 72.90625 
L 23.09375 72.90625 
L 55.421875 11.921875 
L 55.421875 72.90625 
L 64.984375 72.90625 
L 64.984375 0 
L 51.703125 0 
L 19.390625 60.984375 
L 19.390625 0 
L 9.8125 0 
z
" id="DejaVuSans-78"/>
     <path d="M 28.609375 0 
L 0.78125 72.90625 
L 11.078125 72.90625 
L 34.1875 11.53125 
L 57.328125 72.90625 
L 67.578125 72.90625 
L 39.796875 0 
z
" id="DejaVuSans-86"/>
     <path d="M 34.1875 63.1875 
L 20.796875 26.90625 
L 47.609375 26.90625 
z
M 28.609375 72.90625 
L 39.796875 72.90625 
L 67.578125 0 
L 57.328125 0 
L 50.6875 18.703125 
L 17.828125 18.703125 
L 11.1875 0 
L 0.78125 0 
z
" id="DejaVuSans-65"/>
    </defs>
    <g transform="translate(180.714063 16.318125)scale(0.12 -0.12)">
     <use xlink:href="#DejaVuSans-84"/>
     <use x="46.333984" xlink:href="#DejaVuSans-114"/>
     <use x="87.447266" xlink:href="#DejaVuSans-97"/>
     <use x="148.726562" xlink:href="#DejaVuSans-105"/>
     <use x="176.509766" xlink:href="#DejaVuSans-110"/>
     <use x="239.888672" xlink:href="#DejaVuSans-105"/>
     <use x="267.671875" xlink:href="#DejaVuSans-110"/>
     <use x="331.050781" xlink:href="#DejaVuSans-103"/>
     <use x="394.527344" xlink:href="#DejaVuSans-58"/>
     <use x="428.21875" xlink:href="#DejaVuSans-32"/>
     <use x="460.005859" xlink:href="#DejaVuSans-78"/>
     <use x="534.810547" xlink:href="#DejaVuSans-86"/>
     <use x="603.21875" xlink:href="#DejaVuSans-68"/>
     <use x="678.470703" xlink:href="#DejaVuSans-65"/>
    </g>
   </g>
   <g id="legend_1">
    <g id="patch_7">
     <path d="M 53.965625 59.674375 
L 137.69375 59.674375 
Q 139.69375 59.674375 139.69375 57.674375 
L 139.69375 29.318125 
Q 139.69375 27.318125 137.69375 27.318125 
L 53.965625 27.318125 
Q 51.965625 27.318125 51.965625 29.318125 
L 51.965625 57.674375 
Q 51.965625 59.674375 53.965625 59.674375 
z
" style="fill:#ffffff;opacity:0.8;stroke:#cccccc;stroke-linejoin:miter;"/>
    </g>
    <g id="line2d_33">
     <path d="M 55.965625 35.416562 
L 75.965625 35.416562 
" style="fill:none;stroke:#1f77b4;stroke-linecap:square;stroke-width:1.5;"/>
    </g>
    <g id="line2d_34"/>
    <g id="text_19">
     <!-- Predicted -->
     <defs>
      <path d="M 45.40625 46.390625 
L 45.40625 75.984375 
L 54.390625 75.984375 
L 54.390625 0 
L 45.40625 0 
L 45.40625 8.203125 
Q 42.578125 3.328125 38.25 0.953125 
Q 33.9375 -1.421875 27.875 -1.421875 
Q 17.96875 -1.421875 11.734375 6.484375 
Q 5.515625 14.40625 5.515625 27.296875 
Q 5.515625 40.1875 11.734375 48.09375 
Q 17.96875 56 27.875 56 
Q 33.9375 56 38.25 53.625 
Q 42.578125 51.265625 45.40625 46.390625 
z
M 14.796875 27.296875 
Q 14.796875 17.390625 18.875 11.75 
Q 22.953125 6.109375 30.078125 6.109375 
Q 37.203125 6.109375 41.296875 11.75 
Q 45.40625 17.390625 45.40625 27.296875 
Q 45.40625 37.203125 41.296875 42.84375 
Q 37.203125 48.484375 30.078125 48.484375 
Q 22.953125 48.484375 18.875 42.84375 
Q 14.796875 37.203125 14.796875 27.296875 
z
" id="DejaVuSans-100"/>
      <path d="M 18.3125 70.21875 
L 18.3125 54.6875 
L 36.8125 54.6875 
L 36.8125 47.703125 
L 18.3125 47.703125 
L 18.3125 18.015625 
Q 18.3125 11.328125 20.140625 9.421875 
Q 21.96875 7.515625 27.59375 7.515625 
L 36.8125 7.515625 
L 36.8125 0 
L 27.59375 0 
Q 17.1875 0 13.234375 3.875 
Q 9.28125 7.765625 9.28125 18.015625 
L 9.28125 47.703125 
L 2.6875 47.703125 
L 2.6875 54.6875 
L 9.28125 54.6875 
L 9.28125 70.21875 
z
" id="DejaVuSans-116"/>
     </defs>
     <g transform="translate(83.965625 38.916562)scale(0.1 -0.1)">
      <use xlink:href="#DejaVuSans-80"/>
      <use x="58.552734" xlink:href="#DejaVuSans-114"/>
      <use x="97.416016" xlink:href="#DejaVuSans-101"/>
      <use x="158.939453" xlink:href="#DejaVuSans-100"/>
      <use x="222.416016" xlink:href="#DejaVuSans-105"/>
      <use x="250.199219" xlink:href="#DejaVuSans-99"/>
      <use x="305.179688" xlink:href="#DejaVuSans-116"/>
      <use x="344.388672" xlink:href="#DejaVuSans-101"/>
      <use x="405.912109" xlink:href="#DejaVuSans-100"/>
     </g>
    </g>
    <g id="line2d_35">
     <path d="M 55.965625 50.094687 
L 75.965625 50.094687 
" style="fill:none;stroke:#ff7f0e;stroke-linecap:square;stroke-width:1.5;"/>
    </g>
    <g id="line2d_36"/>
    <g id="text_20">
     <!-- True value -->
     <defs>
      <path d="M 8.5 21.578125 
L 8.5 54.6875 
L 17.484375 54.6875 
L 17.484375 21.921875 
Q 17.484375 14.15625 20.5 10.265625 
Q 23.53125 6.390625 29.59375 6.390625 
Q 36.859375 6.390625 41.078125 11.03125 
Q 45.3125 15.671875 45.3125 23.6875 
L 45.3125 54.6875 
L 54.296875 54.6875 
L 54.296875 0 
L 45.3125 0 
L 45.3125 8.40625 
Q 42.046875 3.421875 37.71875 1 
Q 33.40625 -1.421875 27.6875 -1.421875 
Q 18.265625 -1.421875 13.375 4.4375 
Q 8.5 10.296875 8.5 21.578125 
z
M 31.109375 56 
z
" id="DejaVuSans-117"/>
      <path d="M 2.984375 54.6875 
L 12.5 54.6875 
L 29.59375 8.796875 
L 46.6875 54.6875 
L 56.203125 54.6875 
L 35.6875 0 
L 23.484375 0 
z
" id="DejaVuSans-118"/>
      <path d="M 9.421875 75.984375 
L 18.40625 75.984375 
L 18.40625 0 
L 9.421875 0 
z
" id="DejaVuSans-108"/>
     </defs>
     <g transform="translate(83.965625 53.594687)scale(0.1 -0.1)">
      <use xlink:href="#DejaVuSans-84"/>
      <use x="46.333984" xlink:href="#DejaVuSans-114"/>
      <use x="87.447266" xlink:href="#DejaVuSans-117"/>
      <use x="150.826172" xlink:href="#DejaVuSans-101"/>
      <use x="212.349609" xlink:href="#DejaVuSans-32"/>
      <use x="244.136719" xlink:href="#DejaVuSans-118"/>
      <use x="303.316406" xlink:href="#DejaVuSans-97"/>
      <use x="364.595703" xlink:href="#DejaVuSans-108"/>
      <use x="392.378906" xlink:href="#DejaVuSans-117"/>
      <use x="455.757812" xlink:href="#DejaVuSans-101"/>
     </g>
    </g>
   </g>
  </g>
 </g>
 <defs>
  <clipPath id="p516d0609e4">
   <rect height="266.112" width="357.12" x="46.965625" y="22.318125"/>
  </clipPath>
 </defs>
</svg>
