<?xml version="1.0" encoding="utf-8" standalone="no"?>
<!DOCTYPE svg PUBLIC "-//W3C//DTD SVG 1.1//EN"
  "http://www.w3.org/Graphics/SVG/1.1/DTD/svg11.dtd">
<!-- Created with matplotlib (https://matplotlib.org/) -->
<svg height="325.986375pt" version="1.1" viewBox="0 0 411.285625 325.986375" width="411.285625pt" xmlns="http://www.w3.org/2000/svg" xmlns:xlink="http://www.w3.org/1999/xlink">
 <defs>
  <style type="text/css">
*{stroke-linecap:butt;stroke-linejoin:round;}
  </style>
 </defs>
 <g id="figure_1">
  <g id="patch_1">
   <path d="M 0 325.986375 
L 411.285625 325.986375 
L 411.285625 0 
L 0 0 
z
" style="fill:#ffffff;"/>
  </g>
  <g id="axes_1">
   <g id="patch_2">
    <path d="M 46.965625 288.430125 
L 404.085625 288.430125 
L 404.085625 22.318125 
L 46.965625 22.318125 
z
" style="fill:#ffffff;"/>
   </g>
   <g id="matplotlib.axis_1">
    <g id="xtick_1">
     <g id="line2d_1">
      <path clip-path="url(#pa29a0db580)" d="M 63.198352 288.430125 
L 63.198352 22.318125 
" style="fill:none;stroke:#b0b0b0;stroke-dasharray:2.96,1.28;stroke-dashoffset:0;stroke-width:0.8;"/>
     </g>
     <g id="line2d_2">
      <defs>
       <path d="M 0 0 
L 0 3.5 
" id="m8ed6fc44bc" style="stroke:#000000;stroke-width:0.8;"/>
      </defs>
      <g>
       <use style="stroke:#000000;stroke-width:0.8;" x="63.198352" xlink:href="#m8ed6fc44bc" y="288.430125"/>
      </g>
     </g>
     <g id="text_1">
      <!-- 0 -->
      <defs>
       <path d="M 31.78125 66.40625 
Q 24.171875 66.40625 20.328125 58.90625 
Q 16.5 51.421875 16.5 36.375 
Q 16.5 21.390625 20.328125 13.890625 
Q 24.171875 6.390625 31.78125 6.390625 
Q 39.453125 6.390625 43.28125 13.890625 
Q 47.125 21.390625 47.125 36.375 
Q 47.125 51.421875 43.28125 58.90625 
Q 39.453125 66.40625 31.78125 66.40625 
z
M 31.78125 74.21875 
Q 44.046875 74.21875 50.515625 64.515625 
Q 56.984375 54.828125 56.984375 36.375 
Q 56.984375 17.96875 50.515625 8.265625 
Q 44.046875 -1.421875 31.78125 -1.421875 
Q 19.53125 -1.421875 13.0625 8.265625 
Q 6.59375 17.96875 6.59375 36.375 
Q 6.59375 54.828125 13.0625 64.515625 
Q 19.53125 74.21875 31.78125 74.21875 
z
" id="DejaVuSans-48"/>
      </defs>
      <g transform="translate(60.017102 303.028562)scale(0.1 -0.1)">
       <use xlink:href="#DejaVuSans-48"/>
      </g>
     </g>
    </g>
    <g id="xtick_2">
     <g id="line2d_3">
      <path clip-path="url(#pa29a0db580)" d="M 112.128954 288.430125 
L 112.128954 22.318125 
" style="fill:none;stroke:#b0b0b0;stroke-dasharray:2.96,1.28;stroke-dashoffset:0;stroke-width:0.8;"/>
     </g>
     <g id="line2d_4">
      <g>
       <use style="stroke:#000000;stroke-width:0.8;" x="112.128954" xlink:href="#m8ed6fc44bc" y="288.430125"/>
      </g>
     </g>
     <g id="text_2">
      <!-- 200 -->
      <defs>
       <path d="M 19.1875 8.296875 
L 53.609375 8.296875 
L 53.609375 0 
L 7.328125 0 
L 7.328125 8.296875 
Q 12.9375 14.109375 22.625 23.890625 
Q 32.328125 33.6875 34.8125 36.53125 
Q 39.546875 41.84375 41.421875 45.53125 
Q 43.3125 49.21875 43.3125 52.78125 
Q 43.3125 58.59375 39.234375 62.25 
Q 35.15625 65.921875 28.609375 65.921875 
Q 23.96875 65.921875 18.8125 64.3125 
Q 13.671875 62.703125 7.8125 59.421875 
L 7.8125 69.390625 
Q 13.765625 71.78125 18.9375 73 
Q 24.125 74.21875 28.421875 74.21875 
Q 39.75 74.21875 46.484375 68.546875 
Q 53.21875 62.890625 53.21875 53.421875 
Q 53.21875 48.921875 51.53125 44.890625 
Q 49.859375 40.875 45.40625 35.40625 
Q 44.1875 33.984375 37.640625 27.21875 
Q 31.109375 20.453125 19.1875 8.296875 
z
" id="DejaVuSans-50"/>
      </defs>
      <g transform="translate(102.585204 303.028562)scale(0.1 -0.1)">
       <use xlink:href="#DejaVuSans-50"/>
       <use x="63.623047" xlink:href="#DejaVuSans-48"/>
       <use x="127.246094" xlink:href="#DejaVuSans-48"/>
      </g>
     </g>
    </g>
    <g id="xtick_3">
     <g id="line2d_5">
      <path clip-path="url(#pa29a0db580)" d="M 161.059557 288.430125 
L 161.059557 22.318125 
" style="fill:none;stroke:#b0b0b0;stroke-dasharray:2.96,1.28;stroke-dashoffset:0;stroke-width:0.8;"/>
     </g>
     <g id="line2d_6">
      <g>
       <use style="stroke:#000000;stroke-width:0.8;" x="161.059557" xlink:href="#m8ed6fc44bc" y="288.430125"/>
      </g>
     </g>
     <g id="text_3">
      <!-- 400 -->
      <defs>
       <path d="M 37.796875 64.3125 
L 12.890625 25.390625 
L 37.796875 25.390625 
z
M 35.203125 72.90625 
L 47.609375 72.90625 
L 47.609375 25.390625 
L 58.015625 25.390625 
L 58.015625 17.1875 
L 47.609375 17.1875 
L 47.609375 0 
L 37.796875 0 
L 37.796875 17.1875 
L 4.890625 17.1875 
L 4.890625 26.703125 
z
" id="DejaVuSans-52"/>
      </defs>
      <g transform="translate(151.515807 303.028562)scale(0.1 -0.1)">
       <use xlink:href="#DejaVuSans-52"/>
       <use x="63.623047" xlink:href="#DejaVuSans-48"/>
       <use x="127.246094" xlink:href="#DejaVuSans-48"/>
      </g>
     </g>
    </g>
    <g id="xtick_4">
     <g id="line2d_7">
      <path clip-path="url(#pa29a0db580)" d="M 209.990159 288.430125 
L 209.990159 22.318125 
" style="fill:none;stroke:#b0b0b0;stroke-dasharray:2.96,1.28;stroke-dashoffset:0;stroke-width:0.8;"/>
     </g>
     <g id="line2d_8">
      <g>
       <use style="stroke:#000000;stroke-width:0.8;" x="209.990159" xlink:href="#m8ed6fc44bc" y="288.430125"/>
      </g>
     </g>
     <g id="text_4">
      <!-- 600 -->
      <defs>
       <path d="M 33.015625 40.375 
Q 26.375 40.375 22.484375 35.828125 
Q 18.609375 31.296875 18.609375 23.390625 
Q 18.609375 15.53125 22.484375 10.953125 
Q 26.375 6.390625 33.015625 6.390625 
Q 39.65625 6.390625 43.53125 10.953125 
Q 47.40625 15.53125 47.40625 23.390625 
Q 47.40625 31.296875 43.53125 35.828125 
Q 39.65625 40.375 33.015625 40.375 
z
M 52.59375 71.296875 
L 52.59375 62.3125 
Q 48.875 64.0625 45.09375 64.984375 
Q 41.3125 65.921875 37.59375 65.921875 
Q 27.828125 65.921875 22.671875 59.328125 
Q 17.53125 52.734375 16.796875 39.40625 
Q 19.671875 43.65625 24.015625 45.921875 
Q 28.375 48.1875 33.59375 48.1875 
Q 44.578125 48.1875 50.953125 41.515625 
Q 57.328125 34.859375 57.328125 23.390625 
Q 57.328125 12.15625 50.6875 5.359375 
Q 44.046875 -1.421875 33.015625 -1.421875 
Q 20.359375 -1.421875 13.671875 8.265625 
Q 6.984375 17.96875 6.984375 36.375 
Q 6.984375 53.65625 15.1875 63.9375 
Q 23.390625 74.21875 37.203125 74.21875 
Q 40.921875 74.21875 44.703125 73.484375 
Q 48.484375 72.75 52.59375 71.296875 
z
" id="DejaVuSans-54"/>
      </defs>
      <g transform="translate(200.446409 303.028562)scale(0.1 -0.1)">
       <use xlink:href="#DejaVuSans-54"/>
       <use x="63.623047" xlink:href="#DejaVuSans-48"/>
       <use x="127.246094" xlink:href="#DejaVuSans-48"/>
      </g>
     </g>
    </g>
    <g id="xtick_5">
     <g id="line2d_9">
      <path clip-path="url(#pa29a0db580)" d="M 258.920761 288.430125 
L 258.920761 22.318125 
" style="fill:none;stroke:#b0b0b0;stroke-dasharray:2.96,1.28;stroke-dashoffset:0;stroke-width:0.8;"/>
     </g>
     <g id="line2d_10">
      <g>
       <use style="stroke:#000000;stroke-width:0.8;" x="258.920761" xlink:href="#m8ed6fc44bc" y="288.430125"/>
      </g>
     </g>
     <g id="text_5">
      <!-- 800 -->
      <defs>
       <path d="M 31.78125 34.625 
Q 24.75 34.625 20.71875 30.859375 
Q 16.703125 27.09375 16.703125 20.515625 
Q 16.703125 13.921875 20.71875 10.15625 
Q 24.75 6.390625 31.78125 6.390625 
Q 38.8125 6.390625 42.859375 10.171875 
Q 46.921875 13.96875 46.921875 20.515625 
Q 46.921875 27.09375 42.890625 30.859375 
Q 38.875 34.625 31.78125 34.625 
z
M 21.921875 38.8125 
Q 15.578125 40.375 12.03125 44.71875 
Q 8.5 49.078125 8.5 55.328125 
Q 8.5 64.0625 14.71875 69.140625 
Q 20.953125 74.21875 31.78125 74.21875 
Q 42.671875 74.21875 48.875 69.140625 
Q 55.078125 64.0625 55.078125 55.328125 
Q 55.078125 49.078125 51.53125 44.71875 
Q 48 40.375 41.703125 38.8125 
Q 48.828125 37.15625 52.796875 32.3125 
Q 56.78125 27.484375 56.78125 20.515625 
Q 56.78125 9.90625 50.3125 4.234375 
Q 43.84375 -1.421875 31.78125 -1.421875 
Q 19.734375 -1.421875 13.25 4.234375 
Q 6.78125 9.90625 6.78125 20.515625 
Q 6.78125 27.484375 10.78125 32.3125 
Q 14.796875 37.15625 21.921875 38.8125 
z
M 18.3125 54.390625 
Q 18.3125 48.734375 21.84375 45.5625 
Q 25.390625 42.390625 31.78125 42.390625 
Q 38.140625 42.390625 41.71875 45.5625 
Q 45.3125 48.734375 45.3125 54.390625 
Q 45.3125 60.0625 41.71875 63.234375 
Q 38.140625 66.40625 31.78125 66.40625 
Q 25.390625 66.40625 21.84375 63.234375 
Q 18.3125 60.0625 18.3125 54.390625 
z
" id="DejaVuSans-56"/>
      </defs>
      <g transform="translate(249.377011 303.028562)scale(0.1 -0.1)">
       <use xlink:href="#DejaVuSans-56"/>
       <use x="63.623047" xlink:href="#DejaVuSans-48"/>
       <use x="127.246094" xlink:href="#DejaVuSans-48"/>
      </g>
     </g>
    </g>
    <g id="xtick_6">
     <g id="line2d_11">
      <path clip-path="url(#pa29a0db580)" d="M 307.851363 288.430125 
L 307.851363 22.318125 
" style="fill:none;stroke:#b0b0b0;stroke-dasharray:2.96,1.28;stroke-dashoffset:0;stroke-width:0.8;"/>
     </g>
     <g id="line2d_12">
      <g>
       <use style="stroke:#000000;stroke-width:0.8;" x="307.851363" xlink:href="#m8ed6fc44bc" y="288.430125"/>
      </g>
     </g>
     <g id="text_6">
      <!-- 1000 -->
      <defs>
       <path d="M 12.40625 8.296875 
L 28.515625 8.296875 
L 28.515625 63.921875 
L 10.984375 60.40625 
L 10.984375 69.390625 
L 28.421875 72.90625 
L 38.28125 72.90625 
L 38.28125 8.296875 
L 54.390625 8.296875 
L 54.390625 0 
L 12.40625 0 
z
" id="DejaVuSans-49"/>
      </defs>
      <g transform="translate(295.126363 303.028562)scale(0.1 -0.1)">
       <use xlink:href="#DejaVuSans-49"/>
       <use x="63.623047" xlink:href="#DejaVuSans-48"/>
       <use x="127.246094" xlink:href="#DejaVuSans-48"/>
       <use x="190.869141" xlink:href="#DejaVuSans-48"/>
      </g>
     </g>
    </g>
    <g id="xtick_7">
     <g id="line2d_13">
      <path clip-path="url(#pa29a0db580)" d="M 356.781965 288.430125 
L 356.781965 22.318125 
" style="fill:none;stroke:#b0b0b0;stroke-dasharray:2.96,1.28;stroke-dashoffset:0;stroke-width:0.8;"/>
     </g>
     <g id="line2d_14">
      <g>
       <use style="stroke:#000000;stroke-width:0.8;" x="356.781965" xlink:href="#m8ed6fc44bc" y="288.430125"/>
      </g>
     </g>
     <g id="text_7">
      <!-- 1200 -->
      <g transform="translate(344.056965 303.028562)scale(0.1 -0.1)">
       <use xlink:href="#DejaVuSans-49"/>
       <use x="63.623047" xlink:href="#DejaVuSans-50"/>
       <use x="127.246094" xlink:href="#DejaVuSans-48"/>
       <use x="190.869141" xlink:href="#DejaVuSans-48"/>
      </g>
     </g>
    </g>
    <g id="text_8">
     <!-- Day -->
     <defs>
      <path d="M 19.671875 64.796875 
L 19.671875 8.109375 
L 31.59375 8.109375 
Q 46.6875 8.109375 53.6875 14.9375 
Q 60.6875 21.78125 60.6875 36.53125 
Q 60.6875 51.171875 53.6875 57.984375 
Q 46.6875 64.796875 31.59375 64.796875 
z
M 9.8125 72.90625 
L 30.078125 72.90625 
Q 51.265625 72.90625 61.171875 64.09375 
Q 71.09375 55.28125 71.09375 36.53125 
Q 71.09375 17.671875 61.125 8.828125 
Q 51.171875 0 30.078125 0 
L 9.8125 0 
z
" id="DejaVuSans-68"/>
      <path d="M 34.28125 27.484375 
Q 23.390625 27.484375 19.1875 25 
Q 14.984375 22.515625 14.984375 16.5 
Q 14.984375 11.71875 18.140625 8.90625 
Q 21.296875 6.109375 26.703125 6.109375 
Q 34.1875 6.109375 38.703125 11.40625 
Q 43.21875 16.703125 43.21875 25.484375 
L 43.21875 27.484375 
z
M 52.203125 31.203125 
L 52.203125 0 
L 43.21875 0 
L 43.21875 8.296875 
Q 40.140625 3.328125 35.546875 0.953125 
Q 30.953125 -1.421875 24.3125 -1.421875 
Q 15.921875 -1.421875 10.953125 3.296875 
Q 6 8.015625 6 15.921875 
Q 6 25.140625 12.171875 29.828125 
Q 18.359375 34.515625 30.609375 34.515625 
L 43.21875 34.515625 
L 43.21875 35.40625 
Q 43.21875 41.609375 39.140625 45 
Q 35.0625 48.390625 27.6875 48.390625 
Q 23 48.390625 18.546875 47.265625 
Q 14.109375 46.140625 10.015625 43.890625 
L 10.015625 52.203125 
Q 14.9375 54.109375 19.578125 55.046875 
Q 24.21875 56 28.609375 56 
Q 40.484375 56 46.34375 49.84375 
Q 52.203125 43.703125 52.203125 31.203125 
z
" id="DejaVuSans-97"/>
      <path d="M 32.171875 -5.078125 
Q 28.375 -14.84375 24.75 -17.8125 
Q 21.140625 -20.796875 15.09375 -20.796875 
L 7.90625 -20.796875 
L 7.90625 -13.28125 
L 13.1875 -13.28125 
Q 16.890625 -13.28125 18.9375 -11.515625 
Q 21 -9.765625 23.484375 -3.21875 
L 25.09375 0.875 
L 2.984375 54.6875 
L 12.5 54.6875 
L 29.59375 11.921875 
L 46.6875 54.6875 
L 56.203125 54.6875 
z
" id="DejaVuSans-121"/>
     </defs>
     <g transform="translate(215.652188 316.706687)scale(0.1 -0.1)">
      <use xlink:href="#DejaVuSans-68"/>
      <use x="77.001953" xlink:href="#DejaVuSans-97"/>
      <use x="138.28125" xlink:href="#DejaVuSans-121"/>
     </g>
    </g>
   </g>
   <g id="matplotlib.axis_2">
    <g id="ytick_1">
     <g id="line2d_15">
      <path clip-path="url(#pa29a0db580)" d="M 46.965625 266.823553 
L 404.085625 266.823553 
" style="fill:none;stroke:#b0b0b0;stroke-dasharray:2.96,1.28;stroke-dashoffset:0;stroke-width:0.8;"/>
     </g>
     <g id="line2d_16">
      <defs>
       <path d="M 0 0 
L -3.5 0 
" id="m6fa7210e87" style="stroke:#000000;stroke-width:0.8;"/>
      </defs>
      <g>
       <use style="stroke:#000000;stroke-width:0.8;" x="46.965625" xlink:href="#m6fa7210e87" y="266.823553"/>
      </g>
     </g>
     <g id="text_9">
      <!-- 50 -->
      <defs>
       <path d="M 10.796875 72.90625 
L 49.515625 72.90625 
L 49.515625 64.59375 
L 19.828125 64.59375 
L 19.828125 46.734375 
Q 21.96875 47.46875 24.109375 47.828125 
Q 26.265625 48.1875 28.421875 48.1875 
Q 40.625 48.1875 47.75 41.5 
Q 54.890625 34.8125 54.890625 23.390625 
Q 54.890625 11.625 47.5625 5.09375 
Q 40.234375 -1.421875 26.90625 -1.421875 
Q 22.3125 -1.421875 17.546875 -0.640625 
Q 12.796875 0.140625 7.71875 1.703125 
L 7.71875 11.625 
Q 12.109375 9.234375 16.796875 8.0625 
Q 21.484375 6.890625 26.703125 6.890625 
Q 35.15625 6.890625 40.078125 11.328125 
Q 45.015625 15.765625 45.015625 23.390625 
Q 45.015625 31 40.078125 35.4375 
Q 35.15625 39.890625 26.703125 39.890625 
Q 22.75 39.890625 18.8125 39.015625 
Q 14.890625 38.140625 10.796875 36.28125 
z
" id="DejaVuSans-53"/>
      </defs>
      <g transform="translate(27.240625 270.622772)scale(0.1 -0.1)">
       <use xlink:href="#DejaVuSans-53"/>
       <use x="63.623047" xlink:href="#DejaVuSans-48"/>
      </g>
     </g>
    </g>
    <g id="ytick_2">
     <g id="line2d_17">
      <path clip-path="url(#pa29a0db580)" d="M 46.965625 234.474669 
L 404.085625 234.474669 
" style="fill:none;stroke:#b0b0b0;stroke-dasharray:2.96,1.28;stroke-dashoffset:0;stroke-width:0.8;"/>
     </g>
     <g id="line2d_18">
      <g>
       <use style="stroke:#000000;stroke-width:0.8;" x="46.965625" xlink:href="#m6fa7210e87" y="234.474669"/>
      </g>
     </g>
     <g id="text_10">
      <!-- 60 -->
      <g transform="translate(27.240625 238.273887)scale(0.1 -0.1)">
       <use xlink:href="#DejaVuSans-54"/>
       <use x="63.623047" xlink:href="#DejaVuSans-48"/>
      </g>
     </g>
    </g>
    <g id="ytick_3">
     <g id="line2d_19">
      <path clip-path="url(#pa29a0db580)" d="M 46.965625 202.125784 
L 404.085625 202.125784 
" style="fill:none;stroke:#b0b0b0;stroke-dasharray:2.96,1.28;stroke-dashoffset:0;stroke-width:0.8;"/>
     </g>
     <g id="line2d_20">
      <g>
       <use style="stroke:#000000;stroke-width:0.8;" x="46.965625" xlink:href="#m6fa7210e87" y="202.125784"/>
      </g>
     </g>
     <g id="text_11">
      <!-- 70 -->
      <defs>
       <path d="M 8.203125 72.90625 
L 55.078125 72.90625 
L 55.078125 68.703125 
L 28.609375 0 
L 18.3125 0 
L 43.21875 64.59375 
L 8.203125 64.59375 
z
" id="DejaVuSans-55"/>
      </defs>
      <g transform="translate(27.240625 205.925003)scale(0.1 -0.1)">
       <use xlink:href="#DejaVuSans-55"/>
       <use x="63.623047" xlink:href="#DejaVuSans-48"/>
      </g>
     </g>
    </g>
    <g id="ytick_4">
     <g id="line2d_21">
      <path clip-path="url(#pa29a0db580)" d="M 46.965625 169.7769 
L 404.085625 169.7769 
" style="fill:none;stroke:#b0b0b0;stroke-dasharray:2.96,1.28;stroke-dashoffset:0;stroke-width:0.8;"/>
     </g>
     <g id="line2d_22">
      <g>
       <use style="stroke:#000000;stroke-width:0.8;" x="46.965625" xlink:href="#m6fa7210e87" y="169.7769"/>
      </g>
     </g>
     <g id="text_12">
      <!-- 80 -->
      <g transform="translate(27.240625 173.576119)scale(0.1 -0.1)">
       <use xlink:href="#DejaVuSans-56"/>
       <use x="63.623047" xlink:href="#DejaVuSans-48"/>
      </g>
     </g>
    </g>
    <g id="ytick_5">
     <g id="line2d_23">
      <path clip-path="url(#pa29a0db580)" d="M 46.965625 137.428016 
L 404.085625 137.428016 
" style="fill:none;stroke:#b0b0b0;stroke-dasharray:2.96,1.28;stroke-dashoffset:0;stroke-width:0.8;"/>
     </g>
     <g id="line2d_24">
      <g>
       <use style="stroke:#000000;stroke-width:0.8;" x="46.965625" xlink:href="#m6fa7210e87" y="137.428016"/>
      </g>
     </g>
     <g id="text_13">
      <!-- 90 -->
      <defs>
       <path d="M 10.984375 1.515625 
L 10.984375 10.5 
Q 14.703125 8.734375 18.5 7.8125 
Q 22.3125 6.890625 25.984375 6.890625 
Q 35.75 6.890625 40.890625 13.453125 
Q 46.046875 20.015625 46.78125 33.40625 
Q 43.953125 29.203125 39.59375 26.953125 
Q 35.25 24.703125 29.984375 24.703125 
Q 19.046875 24.703125 12.671875 31.3125 
Q 6.296875 37.9375 6.296875 49.421875 
Q 6.296875 60.640625 12.9375 67.421875 
Q 19.578125 74.21875 30.609375 74.21875 
Q 43.265625 74.21875 49.921875 64.515625 
Q 56.59375 54.828125 56.59375 36.375 
Q 56.59375 19.140625 48.40625 8.859375 
Q 40.234375 -1.421875 26.421875 -1.421875 
Q 22.703125 -1.421875 18.890625 -0.6875 
Q 15.09375 0.046875 10.984375 1.515625 
z
M 30.609375 32.421875 
Q 37.25 32.421875 41.125 36.953125 
Q 45.015625 41.5 45.015625 49.421875 
Q 45.015625 57.28125 41.125 61.84375 
Q 37.25 66.40625 30.609375 66.40625 
Q 23.96875 66.40625 20.09375 61.84375 
Q 16.21875 57.28125 16.21875 49.421875 
Q 16.21875 41.5 20.09375 36.953125 
Q 23.96875 32.421875 30.609375 32.421875 
z
" id="DejaVuSans-57"/>
      </defs>
      <g transform="translate(27.240625 141.227235)scale(0.1 -0.1)">
       <use xlink:href="#DejaVuSans-57"/>
       <use x="63.623047" xlink:href="#DejaVuSans-48"/>
      </g>
     </g>
    </g>
    <g id="ytick_6">
     <g id="line2d_25">
      <path clip-path="url(#pa29a0db580)" d="M 46.965625 105.079131 
L 404.085625 105.079131 
" style="fill:none;stroke:#b0b0b0;stroke-dasharray:2.96,1.28;stroke-dashoffset:0;stroke-width:0.8;"/>
     </g>
     <g id="line2d_26">
      <g>
       <use style="stroke:#000000;stroke-width:0.8;" x="46.965625" xlink:href="#m6fa7210e87" y="105.079131"/>
      </g>
     </g>
     <g id="text_14">
      <!-- 100 -->
      <g transform="translate(20.878125 108.87835)scale(0.1 -0.1)">
       <use xlink:href="#DejaVuSans-49"/>
       <use x="63.623047" xlink:href="#DejaVuSans-48"/>
       <use x="127.246094" xlink:href="#DejaVuSans-48"/>
      </g>
     </g>
    </g>
    <g id="ytick_7">
     <g id="line2d_27">
      <path clip-path="url(#pa29a0db580)" d="M 46.965625 72.730247 
L 404.085625 72.730247 
" style="fill:none;stroke:#b0b0b0;stroke-dasharray:2.96,1.28;stroke-dashoffset:0;stroke-width:0.8;"/>
     </g>
     <g id="line2d_28">
      <g>
       <use style="stroke:#000000;stroke-width:0.8;" x="46.965625" xlink:href="#m6fa7210e87" y="72.730247"/>
      </g>
     </g>
     <g id="text_15">
      <!-- 110 -->
      <g transform="translate(20.878125 76.529466)scale(0.1 -0.1)">
       <use xlink:href="#DejaVuSans-49"/>
       <use x="63.623047" xlink:href="#DejaVuSans-49"/>
       <use x="127.246094" xlink:href="#DejaVuSans-48"/>
      </g>
     </g>
    </g>
    <g id="ytick_8">
     <g id="line2d_29">
      <path clip-path="url(#pa29a0db580)" d="M 46.965625 40.381363 
L 404.085625 40.381363 
" style="fill:none;stroke:#b0b0b0;stroke-dasharray:2.96,1.28;stroke-dashoffset:0;stroke-width:0.8;"/>
     </g>
     <g id="line2d_30">
      <g>
       <use style="stroke:#000000;stroke-width:0.8;" x="46.965625" xlink:href="#m6fa7210e87" y="40.381363"/>
      </g>
     </g>
     <g id="text_16">
      <!-- 120 -->
      <g transform="translate(20.878125 44.180582)scale(0.1 -0.1)">
       <use xlink:href="#DejaVuSans-49"/>
       <use x="63.623047" xlink:href="#DejaVuSans-50"/>
       <use x="127.246094" xlink:href="#DejaVuSans-48"/>
      </g>
     </g>
    </g>
    <g id="text_17">
     <!-- Price $ -->
     <defs>
      <path d="M 19.671875 64.796875 
L 19.671875 37.40625 
L 32.078125 37.40625 
Q 38.96875 37.40625 42.71875 40.96875 
Q 46.484375 44.53125 46.484375 51.125 
Q 46.484375 57.671875 42.71875 61.234375 
Q 38.96875 64.796875 32.078125 64.796875 
z
M 9.8125 72.90625 
L 32.078125 72.90625 
Q 44.34375 72.90625 50.609375 67.359375 
Q 56.890625 61.8125 56.890625 51.125 
Q 56.890625 40.328125 50.609375 34.8125 
Q 44.34375 29.296875 32.078125 29.296875 
L 19.671875 29.296875 
L 19.671875 0 
L 9.8125 0 
z
" id="DejaVuSans-80"/>
      <path d="M 41.109375 46.296875 
Q 39.59375 47.171875 37.8125 47.578125 
Q 36.03125 48 33.890625 48 
Q 26.265625 48 22.1875 43.046875 
Q 18.109375 38.09375 18.109375 28.8125 
L 18.109375 0 
L 9.078125 0 
L 9.078125 54.6875 
L 18.109375 54.6875 
L 18.109375 46.1875 
Q 20.953125 51.171875 25.484375 53.578125 
Q 30.03125 56 36.53125 56 
Q 37.453125 56 38.578125 55.875 
Q 39.703125 55.765625 41.0625 55.515625 
z
" id="DejaVuSans-114"/>
      <path d="M 9.421875 54.6875 
L 18.40625 54.6875 
L 18.40625 0 
L 9.421875 0 
z
M 9.421875 75.984375 
L 18.40625 75.984375 
L 18.40625 64.59375 
L 9.421875 64.59375 
z
" id="DejaVuSans-105"/>
      <path d="M 48.78125 52.59375 
L 48.78125 44.1875 
Q 44.96875 46.296875 41.140625 47.34375 
Q 37.3125 48.390625 33.40625 48.390625 
Q 24.65625 48.390625 19.8125 42.84375 
Q 14.984375 37.3125 14.984375 27.296875 
Q 14.984375 17.28125 19.8125 11.734375 
Q 24.65625 6.203125 33.40625 6.203125 
Q 37.3125 6.203125 41.140625 7.25 
Q 44.96875 8.296875 48.78125 10.40625 
L 48.78125 2.09375 
Q 45.015625 0.34375 40.984375 -0.53125 
Q 36.96875 -1.421875 32.421875 -1.421875 
Q 20.0625 -1.421875 12.78125 6.34375 
Q 5.515625 14.109375 5.515625 27.296875 
Q 5.515625 40.671875 12.859375 48.328125 
Q 20.21875 56 33.015625 56 
Q 37.15625 56 41.109375 55.140625 
Q 45.0625 54.296875 48.78125 52.59375 
z
" id="DejaVuSans-99"/>
      <path d="M 56.203125 29.59375 
L 56.203125 25.203125 
L 14.890625 25.203125 
Q 15.484375 15.921875 20.484375 11.0625 
Q 25.484375 6.203125 34.421875 6.203125 
Q 39.59375 6.203125 44.453125 7.46875 
Q 49.3125 8.734375 54.109375 11.28125 
L 54.109375 2.78125 
Q 49.265625 0.734375 44.1875 -0.34375 
Q 39.109375 -1.421875 33.890625 -1.421875 
Q 20.796875 -1.421875 13.15625 6.1875 
Q 5.515625 13.8125 5.515625 26.8125 
Q 5.515625 40.234375 12.765625 48.109375 
Q 20.015625 56 32.328125 56 
Q 43.359375 56 49.78125 48.890625 
Q 56.203125 41.796875 56.203125 29.59375 
z
M 47.21875 32.234375 
Q 47.125 39.59375 43.09375 43.984375 
Q 39.0625 48.390625 32.421875 48.390625 
Q 24.90625 48.390625 20.390625 44.140625 
Q 15.875 39.890625 15.1875 32.171875 
z
" id="DejaVuSans-101"/>
      <path id="DejaVuSans-32"/>
      <path d="M 33.796875 -14.703125 
L 28.90625 -14.703125 
L 28.859375 0 
Q 23.734375 0.09375 18.609375 1.1875 
Q 13.484375 2.296875 8.296875 4.5 
L 8.296875 13.28125 
Q 13.28125 10.15625 18.375 8.5625 
Q 23.484375 6.984375 28.90625 6.9375 
L 28.90625 29.203125 
Q 18.109375 30.953125 13.203125 35.15625 
Q 8.296875 39.359375 8.296875 46.6875 
Q 8.296875 54.640625 13.625 59.21875 
Q 18.953125 63.8125 28.90625 64.5 
L 28.90625 75.984375 
L 33.796875 75.984375 
L 33.796875 64.65625 
Q 38.328125 64.453125 42.578125 63.6875 
Q 46.828125 62.9375 50.875 61.625 
L 50.875 53.078125 
Q 46.828125 55.125 42.546875 56.25 
Q 38.28125 57.375 33.796875 57.5625 
L 33.796875 36.71875 
Q 44.875 35.015625 50.09375 30.609375 
Q 55.328125 26.21875 55.328125 18.609375 
Q 55.328125 10.359375 49.78125 5.59375 
Q 44.234375 0.828125 33.796875 0.09375 
z
M 28.90625 37.59375 
L 28.90625 57.625 
Q 23.25 56.984375 20.265625 54.390625 
Q 17.28125 51.8125 17.28125 47.515625 
Q 17.28125 43.3125 20.03125 40.96875 
Q 22.796875 38.625 28.90625 37.59375 
z
M 33.796875 28.21875 
L 33.796875 7.078125 
Q 39.984375 7.90625 43.140625 10.59375 
Q 46.296875 13.28125 46.296875 17.671875 
Q 46.296875 21.96875 43.28125 24.5 
Q 40.28125 27.046875 33.796875 28.21875 
z
" id="DejaVuSans-36"/>
     </defs>
     <g transform="translate(14.798438 172.342094)rotate(-90)scale(0.1 -0.1)">
      <use xlink:href="#DejaVuSans-80"/>
      <use x="58.552734" xlink:href="#DejaVuSans-114"/>
      <use x="99.666016" xlink:href="#DejaVuSans-105"/>
      <use x="127.449219" xlink:href="#DejaVuSans-99"/>
      <use x="182.429688" xlink:href="#DejaVuSans-101"/>
      <use x="243.953125" xlink:href="#DejaVuSans-32"/>
      <use x="275.740234" xlink:href="#DejaVuSans-36"/>
     </g>
    </g>
   </g>
   <g id="line2d_31">
    <path clip-path="url(#pa29a0db580)" d="M 63.198352 268.449055 
L 63.443005 269.040616 
L 63.687658 267.431341 
L 63.932311 267.182959 
L 64.421617 270.236793 
L 64.66627 269.880336 
L 64.910923 267.425208 
L 65.155576 267.456614 
L 65.400229 267.093641 
L 65.644882 265.087409 
L 66.134188 267.794227 
L 66.378841 267.305817 
L 66.623494 267.748161 
L 66.868147 267.197496 
L 67.357453 265.421839 
L 67.602106 265.530543 
L 67.846759 268.184434 
L 68.091412 268.235608 
L 68.336066 269.653895 
L 68.580719 268.336415 
L 68.825372 267.953908 
L 69.070025 267.906263 
L 69.314678 266.616905 
L 69.559331 268.567644 
L 69.803984 268.478894 
L 70.048637 267.839824 
L 70.537943 260.585524 
L 70.782596 261.022857 
L 71.027249 261.89713 
L 71.271902 261.83886 
L 71.516555 261.325376 
L 71.761208 258.309463 
L 72.495167 260.665623 
L 72.73982 258.058711 
L 72.984473 258.1638 
L 73.229126 257.92355 
L 73.473779 257.39311 
L 73.718432 258.643769 
L 73.963085 260.589621 
L 74.207738 258.527155 
L 74.941697 261.531061 
L 75.18635 258.889855 
L 75.431003 258.312436 
L 75.675656 257.211019 
L 76.654268 265.663582 
L 77.143574 264.178177 
L 77.388227 262.716453 
L 77.63288 259.361112 
L 77.877533 258.927357 
L 78.122186 260.680394 
L 78.366839 261.108189 
L 78.611492 264.347199 
L 78.856145 264.672818 
L 79.100798 265.800273 
L 79.345451 266.317793 
L 79.590104 269.346083 
L 79.834757 267.383597 
L 80.07941 267.038172 
L 80.324063 265.586913 
L 80.568716 265.138979 
L 80.813369 266.435037 
L 81.058022 266.6318 
L 81.302675 275.942729 
L 81.547328 275.055511 
L 81.791981 273.171718 
L 82.036634 275.328648 
L 82.281287 274.588179 
L 82.52594 274.78894 
L 83.504552 269.150616 
L 83.749205 269.854299 
L 83.993858 271.264133 
L 84.483164 267.493461 
L 84.727817 267.585987 
L 84.97247 268.825256 
L 85.217123 268.846259 
L 85.461776 267.872068 
L 85.706429 269.510589 
L 85.951082 268.966526 
L 86.195735 268.75725 
L 86.685041 267.669727 
L 87.174347 270.869607 
L 87.419 268.949706 
L 87.663653 265.827668 
L 87.908306 266.679926 
L 88.152959 263.606002 
L 88.397612 266.645497 
L 88.642265 267.112583 
L 88.886918 267.200112 
L 89.376224 269.327956 
L 89.620877 267.30615 
L 89.86553 263.02767 
L 90.110183 262.650322 
L 90.354836 259.596994 
L 90.599489 263.67317 
L 90.844143 264.413392 
L 91.333449 264.106666 
L 91.578102 264.707519 
L 91.822755 264.680963 
L 92.312061 261.665087 
L 92.556714 258.833733 
L 92.801367 259.115223 
L 93.04602 257.898549 
L 93.290673 253.894587 
L 93.535326 253.882469 
L 93.779979 252.46412 
L 94.024632 252.566877 
L 94.269285 253.761474 
L 94.513938 254.381824 
L 94.758591 254.045581 
L 95.003244 251.686767 
L 95.247897 253.986262 
L 95.737203 252.040435 
L 95.981856 252.558325 
L 96.226509 251.589786 
L 96.471162 251.305395 
L 96.715815 250.638745 
L 96.960468 250.60808 
L 97.205121 250.864594 
L 97.449774 248.484999 
L 97.694427 248.093151 
L 97.93908 251.772395 
L 98.183733 253.197494 
L 98.428386 252.957688 
L 98.673039 255.032223 
L 98.917692 254.074383 
L 99.162345 252.220773 
L 99.406998 251.848632 
L 100.140957 245.686704 
L 100.38561 246.074468 
L 100.630263 246.190329 
L 100.874916 242.65027 
L 101.119569 241.752538 
L 101.364222 243.59287 
L 101.608875 242.862483 
L 101.853528 241.531329 
L 102.098181 242.092435 
L 102.587487 246.227288 
L 102.83214 244.160059 
L 103.076793 246.196882 
L 103.321446 244.650023 
L 103.566099 246.536186 
L 103.810752 245.152069 
L 104.055405 245.672624 
L 104.300058 244.567418 
L 104.544711 244.91362 
L 104.789364 242.392497 
L 105.034017 243.068637 
L 105.27867 241.95562 
L 105.523323 241.618451 
L 105.767976 237.95478 
L 106.012629 236.941903 
L 106.257282 233.779254 
L 106.501935 232.42147 
L 106.746588 232.467807 
L 106.991241 237.962135 
L 107.235894 231.750476 
L 107.480547 232.058177 
L 107.7252 234.265701 
L 107.969853 229.131347 
L 108.459159 225.8248 
L 108.703812 227.986814 
L 108.948465 227.66618 
L 109.193118 228.064667 
L 109.437771 224.347515 
L 109.682424 224.941963 
L 109.927077 223.711283 
L 110.905689 214.48133 
L 111.150342 214.763129 
L 111.639648 210.811427 
L 112.128954 209.915559 
L 112.373607 209.273182 
L 112.61826 213.053553 
L 112.862913 212.678142 
L 113.35222 215.136146 
L 113.841526 217.130482 
L 114.086179 216.36184 
L 114.330832 212.613258 
L 114.575485 213.873381 
L 115.064791 223.579984 
L 115.554097 219.845382 
L 115.79875 223.689071 
L 116.043403 223.761223 
L 116.288056 218.435968 
L 116.532709 221.499156 
L 116.777362 221.566496 
L 117.022015 224.08272 
L 117.266668 219.951779 
L 117.511321 221.462975 
L 118.000627 216.744335 
L 118.24528 219.839311 
L 118.489933 227.352556 
L 118.734586 225.086503 
L 118.979239 225.98806 
L 119.223892 225.613845 
L 119.713198 221.989429 
L 119.957851 223.823714 
L 120.202504 221.23103 
L 120.447157 223.37283 
L 120.936463 221.48262 
L 121.181116 218.585678 
L 121.425769 217.898802 
L 121.670422 218.030373 
L 121.915075 212.584851 
L 122.159728 211.401507 
L 122.649034 217.686306 
L 123.13834 215.137084 
L 123.627646 219.760507 
L 123.872299 219.617189 
L 124.116952 219.040214 
L 124.361605 219.339931 
L 124.606258 217.95653 
L 125.095564 220.440941 
L 125.340217 218.918318 
L 125.58487 216.636803 
L 125.829523 212.932669 
L 126.074176 214.507392 
L 126.318829 211.14461 
L 126.563482 214.807923 
L 126.808135 215.273195 
L 127.297441 221.146969 
L 127.542094 221.106296 
L 127.786747 221.261189 
L 128.0314 226.312222 
L 128.276053 227.068474 
L 128.520706 228.186193 
L 128.765359 228.028955 
L 129.010012 230.340877 
L 129.254665 228.75079 
L 129.499318 228.381821 
L 129.743971 229.507955 
L 129.988624 231.571421 
L 130.233277 231.189038 
L 130.47793 230.289764 
L 130.722583 231.074077 
L 130.967236 230.800731 
L 131.945848 228.790982 
L 132.92446 212.285751 
L 133.169113 211.634168 
L 133.413766 211.550082 
L 133.658419 211.118499 
L 133.903072 215.679629 
L 134.147725 217.807115 
L 134.392378 218.597846 
L 134.637031 219.98485 
L 134.881684 219.591694 
L 135.126337 217.124139 
L 135.37099 217.363636 
L 135.615643 219.550281 
L 135.860297 218.369948 
L 136.10495 218.193312 
L 136.349603 220.876918 
L 136.594256 216.801692 
L 137.083562 220.939457 
L 137.328215 222.293847 
L 137.572868 216.066072 
L 138.062174 212.038702 
L 138.306827 213.247688 
L 138.55148 213.459814 
L 138.796133 213.205953 
L 139.285439 209.43775 
L 139.530092 205.008831 
L 139.774745 207.881364 
L 140.019398 204.81055 
L 140.264051 204.153636 
L 140.508704 204.935679 
L 140.753357 205.146152 
L 140.99801 206.56112 
L 141.242663 206.165693 
L 141.487316 204.86154 
L 141.731969 205.519071 
L 141.976622 205.366448 
L 142.221275 204.875163 
L 142.465928 210.66959 
L 142.710581 206.148466 
L 142.955234 206.972391 
L 143.199887 208.743766 
L 143.689193 201.658217 
L 143.933846 201.662462 
L 144.423152 204.256207 
L 144.667805 203.907772 
L 144.912458 201.715352 
L 145.157111 200.944514 
L 145.401764 202.417431 
L 145.646417 197.864914 
L 145.89107 199.169758 
L 146.135723 199.82872 
L 146.380376 198.628298 
L 146.625029 201.806595 
L 146.869682 201.579092 
L 147.114335 200.805564 
L 147.358988 196.952016 
L 147.603641 198.088492 
L 147.848294 196.549408 
L 148.3376 202.545324 
L 148.582253 202.604853 
L 148.826906 199.879117 
L 149.071559 199.475201 
L 149.316212 194.601051 
L 149.560865 192.142825 
L 149.805518 193.850574 
L 150.294824 189.060337 
L 150.539477 186.59789 
L 150.78413 187.462834 
L 151.028783 181.465042 
L 151.273436 180.992983 
L 151.762742 181.782405 
L 152.007395 182.666081 
L 152.252048 181.029041 
L 152.496701 184.596545 
L 152.741354 185.574031 
L 152.986007 184.094574 
L 153.23066 190.79094 
L 153.475313 187.108006 
L 153.719966 187.766574 
L 153.964619 187.994373 
L 154.209272 188.68611 
L 154.453925 187.961721 
L 154.698578 184.464654 
L 154.943231 186.04957 
L 155.187884 192.396192 
L 155.432537 193.887199 
L 155.67719 192.069006 
L 155.921843 197.00039 
L 156.166496 191.273118 
L 156.411149 193.192722 
L 156.655802 201.348456 
L 157.145108 195.856954 
L 157.389761 183.793425 
L 157.634414 183.456812 
L 157.879067 178.804759 
L 158.12372 176.34214 
L 158.368374 175.893873 
L 158.613027 175.911075 
L 158.85768 171.69374 
L 159.102333 170.671189 
L 159.346986 172.972498 
L 159.591639 171.873412 
L 160.080945 166.969794 
L 160.325598 168.593828 
L 160.570251 168.857981 
L 161.059557 166.514814 
L 161.30421 170.790295 
L 161.548863 163.599707 
L 162.038169 158.596184 
L 162.282822 162.000107 
L 162.527475 162.578094 
L 162.772128 165.470396 
L 163.016781 164.553475 
L 163.261434 169.192324 
L 163.506087 168.881772 
L 163.75074 164.908303 
L 163.995393 163.110594 
L 164.240046 167.610592 
L 164.484699 166.569481 
L 164.729352 167.993284 
L 164.974005 170.715169 
L 165.218658 170.597691 
L 165.463311 173.580224 
L 165.707964 174.108677 
L 165.952617 172.576232 
L 166.441923 164.443747 
L 166.931229 163.815487 
L 167.420535 171.786439 
L 167.665188 170.467404 
L 167.909841 167.711312 
L 168.154494 177.207257 
L 168.399147 178.759446 
L 168.6438 176.848801 
L 168.888453 176.828785 
L 169.377759 169.403266 
L 169.622412 172.177053 
L 169.867065 170.895754 
L 170.356371 170.405012 
L 170.601024 174.760211 
L 170.845677 176.187592 
L 171.334983 171.343503 
L 171.579636 170.69113 
L 172.068942 165.295585 
L 172.313595 165.88221 
L 172.558248 168.161973 
L 172.802901 163.916454 
L 173.292207 161.388555 
L 173.53686 162.450447 
L 174.026166 168.480817 
L 174.270819 167.758081 
L 174.515472 165.764115 
L 174.760125 165.719938 
L 175.004778 162.203768 
L 175.249431 161.688223 
L 175.494084 158.520415 
L 175.738737 157.138717 
L 175.98339 157.519089 
L 176.228043 156.095582 
L 176.472696 156.155308 
L 176.717349 155.341773 
L 176.962002 156.580598 
L 177.206655 155.449206 
L 177.451308 153.760732 
L 177.695961 154.313594 
L 177.940614 151.529367 
L 178.42992 155.166889 
L 178.674573 159.917169 
L 178.919226 159.969293 
L 179.163879 158.496081 
L 179.408532 159.043883 
L 179.653185 157.720257 
L 179.897838 157.096686 
L 180.142491 160.058858 
L 180.387144 160.187763 
L 180.631798 160.452804 
L 180.876451 156.637955 
L 181.121104 154.926577 
L 181.365757 152.199312 
L 181.61041 150.729974 
L 181.855063 148.339644 
L 182.099716 148.38471 
L 182.344369 147.077891 
L 182.589022 147.854578 
L 182.833675 150.173978 
L 183.078328 145.835808 
L 183.322981 147.019744 
L 183.567634 146.913767 
L 183.812287 147.277406 
L 184.546246 152.758443 
L 184.790899 150.318382 
L 185.035552 150.624367 
L 185.280205 149.118601 
L 185.524858 149.639157 
L 185.769511 147.179154 
L 186.014164 148.989203 
L 186.258817 146.032683 
L 186.50347 149.052434 
L 186.748123 145.838918 
L 186.992776 150.06188 
L 187.237429 151.65726 
L 187.482082 145.760608 
L 187.726735 147.394538 
L 187.971388 147.885231 
L 188.216041 151.247149 
L 188.460694 146.981292 
L 188.705347 144.952774 
L 188.95 145.909849 
L 189.194653 144.595034 
L 189.683959 139.209608 
L 189.928612 136.983377 
L 190.173265 136.552583 
L 190.417918 137.301974 
L 190.662571 135.543753 
L 190.907224 135.189444 
L 191.151877 135.541409 
L 191.39653 136.662262 
L 191.641183 135.525984 
L 191.885836 135.981408 
L 192.130489 137.101151 
L 192.375142 134.147444 
L 192.619795 133.733606 
L 192.864448 136.28189 
L 193.109101 133.680198 
L 193.353754 134.91379 
L 193.598407 137.980878 
L 193.84306 138.217191 
L 194.087713 136.82683 
L 194.332366 137.837856 
L 194.577019 136.539428 
L 194.821672 135.928691 
L 195.310978 135.684307 
L 195.555631 135.19633 
L 196.044937 142.119952 
L 196.28959 138.519351 
L 196.534243 142.964904 
L 196.778896 140.860075 
L 197.023549 140.55288 
L 197.268202 139.942118 
L 197.512855 144.827004 
L 197.757508 147.021348 
L 198.002161 141.725166 
L 198.246814 141.454671 
L 198.491467 146.106674 
L 198.73612 142.817094 
L 198.980773 150.479642 
L 199.225426 148.705726 
L 199.470079 156.228386 
L 199.714732 155.556911 
L 199.959385 162.146856 
L 200.204038 163.296363 
L 200.937997 144.902575 
L 201.18265 146.274228 
L 201.671956 141.200859 
L 201.916609 141.74728 
L 202.161262 137.00744 
L 202.405915 138.27941 
L 202.650568 136.061718 
L 202.895221 132.264959 
L 203.139875 131.205214 
L 203.384528 135.539114 
L 203.629181 133.337611 
L 203.873834 130.099589 
L 204.118487 136.596662 
L 204.36314 137.182892 
L 204.607793 136.521066 
L 204.852446 136.870563 
L 205.097099 135.019989 
L 205.341752 134.075131 
L 205.586405 135.332022 
L 205.831058 135.717009 
L 206.075711 137.190765 
L 206.320364 140.142645 
L 206.565017 140.003004 
L 207.054323 131.631516 
L 207.298976 130.744335 
L 207.543629 128.766362 
L 207.788282 128.088445 
L 208.032935 125.62901 
L 208.277588 126.736585 
L 208.522241 126.363593 
L 208.766894 124.658879 
L 209.011547 124.529604 
L 209.2562 127.257388 
L 209.500853 131.411097 
L 209.745506 131.026628 
L 209.990159 131.879997 
L 210.479465 136.126627 
L 210.968771 128.366221 
L 211.213424 127.512557 
L 211.458077 123.248231 
L 211.70273 121.64056 
L 211.947383 122.467669 
L 212.436689 118.950858 
L 212.925995 123.10548 
L 213.170648 124.475036 
L 213.415301 128.856322 
L 213.659954 130.425689 
L 214.14926 124.416544 
L 214.393913 122.987755 
L 214.638566 122.278075 
L 214.883219 119.901393 
L 215.127872 122.954733 
L 215.372525 122.559306 
L 215.617178 119.89584 
L 216.106484 123.132727 
L 216.351137 119.976248 
L 216.59579 121.347383 
L 216.840443 120.568499 
L 217.329749 127.880687 
L 217.574402 126.12417 
L 217.819055 133.373028 
L 218.063708 130.314529 
L 218.308361 123.39451 
L 218.553014 100.594954 
L 218.797667 96.40035 
L 219.04232 98.112912 
L 219.286973 98.8258 
L 219.531626 98.223504 
L 219.776279 98.378742 
L 220.020932 92.897804 
L 220.265585 90.845519 
L 220.510238 90.963737 
L 220.754891 91.715004 
L 220.999544 91.564948 
L 221.48885 87.975133 
L 221.733503 88.985542 
L 221.978156 86.075198 
L 222.222809 89.271512 
L 222.467462 90.809288 
L 222.712115 85.009802 
L 222.956768 83.574572 
L 223.690727 91.597575 
L 223.93538 87.10202 
L 224.180033 93.976232 
L 224.424686 94.697586 
L 224.669339 81.163214 
L 224.913992 83.495743 
L 225.158645 80.566791 
L 225.403298 81.732463 
L 225.647952 78.595136 
L 225.892605 80.43337 
L 226.137258 77.126662 
L 226.381911 77.704327 
L 226.626564 81.256085 
L 226.871217 87.968592 
L 227.360523 86.32242 
L 227.605176 84.280279 
L 227.849829 88.219097 
L 228.339135 84.583006 
L 228.583788 85.803617 
L 228.828441 86.409961 
L 229.073094 83.402057 
L 229.317747 82.111206 
L 229.5624 81.541315 
L 229.807053 82.930985 
L 230.051706 82.435554 
L 230.296359 81.409029 
L 230.541012 77.841648 
L 230.785665 82.375976 
L 231.030318 77.456094 
L 231.274971 79.19494 
L 231.519624 78.382787 
L 231.764277 74.973607 
L 232.253583 71.311207 
L 232.498236 72.084069 
L 232.742889 72.421325 
L 232.987542 75.894748 
L 233.232195 70.049751 
L 233.476848 68.448028 
L 233.721501 69.172961 
L 233.966154 72.639843 
L 234.210807 74.051528 
L 234.45546 71.275421 
L 234.700113 76.188788 
L 234.944766 74.003525 
L 235.189419 74.226462 
L 235.434072 71.846571 
L 235.678725 70.732925 
L 235.923378 70.664091 
L 236.168031 69.937678 
L 236.412684 71.12423 
L 236.657337 70.499153 
L 236.90199 70.948087 
L 237.146643 73.582801 
L 237.391296 70.543183 
L 237.635949 70.133047 
L 237.880602 70.650468 
L 238.125255 68.752952 
L 238.369908 69.504589 
L 238.614561 68.124125 
L 238.859214 70.996386 
L 239.103867 70.890607 
L 239.593173 76.549366 
L 239.837826 71.659248 
L 240.082479 69.843868 
L 240.327132 72.027798 
L 240.571785 71.186794 
L 240.816438 68.404714 
L 241.061091 67.108483 
L 241.305744 61.518903 
L 241.550397 63.693306 
L 242.039703 57.920104 
L 242.284356 60.062867 
L 242.773662 56.097271 
L 243.018315 62.454654 
L 243.507621 55.508598 
L 243.752274 56.080167 
L 243.996927 53.61745 
L 244.24158 49.165356 
L 244.486233 55.594608 
L 244.730886 53.804896 
L 244.975539 51.170947 
L 245.220192 45.944486 
L 245.464845 46.840626 
L 245.709498 45.24105 
L 245.954151 42.829963 
L 246.198804 43.586586 
L 246.443457 41.153385 
L 246.68811 42.136794 
L 246.932763 41.949348 
L 247.177416 43.661737 
L 247.422069 43.150288 
L 247.666722 45.306922 
L 247.911375 44.441558 
L 248.156029 40.005458 
L 248.400682 39.631108 
L 248.645335 39.698781 
L 248.889988 36.07012 
L 249.134641 34.414125 
L 249.379294 70.885498 
L 249.623947 75.230306 
L 249.8686 72.610178 
L 250.113253 67.357828 
L 250.357906 77.722714 
L 250.602559 80.272109 
L 250.847212 78.914572 
L 251.091865 80.338129 
L 251.336518 74.273231 
L 251.581171 81.419172 
L 251.825824 82.464899 
L 252.070477 103.141436 
L 252.31513 106.209289 
L 252.559783 117.766527 
L 252.804436 115.725767 
L 253.293742 96.70942 
L 253.538395 95.824683 
L 253.783048 97.501853 
L 254.027701 105.06378 
L 254.272354 97.46123 
L 254.517007 97.525843 
L 254.76166 100.605172 
L 255.006313 90.852256 
L 255.250966 98.114812 
L 255.495619 95.47104 
L 255.740272 89.772175 
L 255.984925 92.185483 
L 256.229578 93.3361 
L 256.474231 91.650465 
L 256.718884 90.946584 
L 256.963537 95.449617 
L 257.20819 93.138264 
L 257.942149 101.983341 
L 258.186802 102.713456 
L 258.431455 108.709422 
L 258.676108 104.947438 
L 258.920761 96.143083 
L 259.410067 94.033638 
L 259.65472 91.492832 
L 259.899373 92.021952 
L 260.144026 93.256655 
L 260.633332 86.43669 
L 260.877985 83.941987 
L 261.122638 83.318638 
L 261.367291 86.208225 
L 261.611944 79.069194 
L 261.856597 78.392116 
L 262.10125 74.28335 
L 262.590556 72.566049 
L 262.835209 62.301241 
L 263.079862 63.344747 
L 263.324515 61.749786 
L 263.569168 61.082136 
L 264.058474 56.869244 
L 264.303127 61.156991 
L 264.54778 56.451802 
L 264.792433 54.987697 
L 265.037086 62.438464 
L 265.281739 62.608091 
L 265.526392 53.657111 
L 265.771045 51.6261 
L 266.015698 48.253496 
L 266.260351 51.396672 
L 266.505004 52.096826 
L 266.749657 56.532976 
L 266.99431 52.610866 
L 267.238963 52.165314 
L 267.483616 45.545432 
L 267.728269 44.137597 
L 267.972922 39.761543 
L 268.217575 42.144198 
L 268.462228 46.75501 
L 268.706881 44.244734 
L 268.951534 55.899483 
L 269.196187 60.643667 
L 269.44084 54.207653 
L 269.930146 65.637418 
L 270.174799 57.724834 
L 270.419452 59.665811 
L 270.908759 66.922913 
L 271.153412 69.120194 
L 271.398065 77.883703 
L 271.642718 73.217608 
L 272.132024 59.699969 
L 272.376677 65.515917 
L 272.62133 79.048808 
L 272.865983 82.347199 
L 273.110636 81.91759 
L 273.355289 85.730909 
L 273.599942 84.548133 
L 273.844595 80.228252 
L 274.089248 81.013429 
L 274.333901 83.333989 
L 274.578554 87.406673 
L 275.06786 100.607886 
L 275.312513 102.128337 
L 275.557166 104.936208 
L 275.801819 105.571576 
L 276.046472 103.452827 
L 276.291125 98.62093 
L 276.535778 108.682052 
L 276.780431 105.920086 
L 277.025084 123.521243 
L 277.269737 122.097811 
L 277.51439 127.465022 
L 277.759043 122.084903 
L 278.003696 113.292 
L 278.248349 119.048937 
L 278.493002 115.27254 
L 278.737655 122.362852 
L 278.982308 124.459734 
L 279.226961 117.210926 
L 279.471614 119.901862 
L 279.716267 126.22489 
L 279.96092 119.399693 
L 280.205573 119.118486 
L 280.694879 129.733482 
L 280.939532 128.888455 
L 281.184185 140.670876 
L 281.428838 134.844266 
L 281.673491 132.906596 
L 282.162797 118.815487 
L 282.40745 120.567537 
L 282.652103 120.875374 
L 282.896756 116.589206 
L 283.141409 120.282061 
L 283.630715 119.141488 
L 283.875368 120.217695 
L 284.120021 119.368398 
L 284.364674 112.28818 
L 284.609327 114.955374 
L 284.85398 108.483795 
L 285.098633 110.241991 
L 285.343286 106.919636 
L 285.587939 112.480982 
L 285.832592 112.531133 
L 286.077245 114.70524 
L 286.566551 108.804762 
L 286.811204 110.751046 
L 287.055857 109.899256 
L 287.30051 106.206303 
L 287.545163 107.75326 
L 288.279122 115.238234 
L 288.523775 113.880253 
L 288.768428 111.127987 
L 289.013081 111.005227 
L 289.257734 108.485103 
L 289.502387 107.347097 
L 289.74704 108.174379 
L 289.991693 109.435811 
L 290.236346 114.943799 
L 290.480999 113.129826 
L 290.725652 117.662278 
L 290.970305 116.479502 
L 291.214958 117.126889 
L 291.459611 113.466291 
L 291.704264 106.668564 
L 291.948917 109.81174 
L 292.19357 109.650529 
L 292.438223 100.267941 
L 292.92753 94.865263 
L 293.172183 96.132668 
L 293.661489 90.702225 
L 294.150795 88.301776 
L 294.640101 94.65484 
L 294.884754 90.828094 
L 295.129407 92.833216 
L 295.37406 92.918067 
L 295.618713 88.711122 
L 295.863366 86.876171 
L 296.108019 87.534442 
L 296.352672 83.336259 
L 296.597325 97.687177 
L 296.841978 98.83276 
L 297.086631 102.899397 
L 297.331284 103.167351 
L 297.575937 104.592955 
L 298.065243 109.424285 
L 298.309896 105.007337 
L 298.554549 107.27123 
L 299.043855 105.052501 
L 299.288508 105.258606 
L 299.533161 103.728431 
L 300.022467 109.459874 
L 300.26712 108.85548 
L 300.756426 108.754143 
L 301.245732 111.186257 
L 301.490385 111.860792 
L 301.735038 113.513603 
L 301.979691 112.685359 
L 302.224344 110.008294 
L 302.468997 110.565475 
L 302.71365 110.117973 
L 303.202956 106.322324 
L 303.447609 108.872435 
L 303.692262 108.78519 
L 303.936915 108.047523 
L 304.181568 118.996492 
L 304.426221 122.758254 
L 304.670874 117.141944 
L 305.16018 111.628083 
L 305.404833 111.082921 
L 305.649486 112.344328 
L 305.894139 109.753964 
L 306.138792 110.108989 
L 306.383445 106.109877 
L 306.872751 104.404892 
L 307.117404 105.491415 
L 307.362057 105.162156 
L 307.60671 105.755493 
L 307.851363 104.575852 
L 308.096016 106.84868 
L 308.340669 110.829282 
L 308.585322 111.379775 
L 309.074628 113.381169 
L 309.319281 115.642077 
L 309.808587 118.115481 
L 310.05324 117.956565 
L 310.542546 121.049048 
L 310.787199 117.494798 
L 311.031852 120.761499 
L 311.276505 118.392418 
L 311.521158 118.848632 
L 312.010464 112.087505 
L 312.255117 112.506304 
L 312.49977 115.513962 
L 312.744423 114.599139 
L 312.989076 115.391202 
L 313.233729 115.376073 
L 313.723035 116.868438 
L 313.967688 118.523371 
L 314.212341 118.104622 
L 314.456994 118.606519 
L 314.9463 120.514006 
L 315.190953 121.582537 
L 315.435607 121.575799 
L 315.68026 122.899622 
L 315.924913 123.502857 
L 316.169566 122.977143 
L 316.414219 125.045618 
L 316.658872 125.273615 
L 316.903525 124.068084 
L 317.148178 129.57965 
L 317.392831 125.44144 
L 317.637484 128.70054 
L 317.882137 130.026856 
L 318.12679 129.249083 
L 318.616096 128.904818 
L 318.860749 127.875331 
L 319.105402 129.724646 
L 319.350055 126.361495 
L 319.594708 126.906311 
L 319.839361 131.13031 
L 320.084014 131.796873 
L 320.328667 130.22953 
L 320.57332 131.570087 
L 320.817973 128.063494 
L 321.062626 129.324876 
L 321.307279 128.930658 
L 321.551932 129.36466 
L 321.796585 128.107424 
L 322.041238 129.222009 
L 322.285891 129.173241 
L 322.775197 132.587974 
L 323.01985 133.485273 
L 323.264503 132.884235 
L 323.509156 134.417495 
L 323.753809 133.278873 
L 323.998462 130.839996 
L 324.243115 130.563775 
L 324.487768 127.314424 
L 324.732421 126.243449 
L 324.977074 128.227296 
L 325.46638 124.091011 
L 325.711033 124.648637 
L 325.955686 128.328214 
L 326.200339 129.226032 
L 326.444992 130.744557 
L 326.689645 126.053066 
L 326.934298 129.063043 
L 327.178951 122.638333 
L 327.423604 122.834466 
L 327.91291 120.901288 
L 328.157563 112.183018 
L 328.402216 111.450977 
L 328.646869 112.114777 
L 328.891522 107.483209 
L 329.136175 106.647808 
L 329.380828 110.253985 
L 329.625481 112.149946 
L 329.870134 111.838679 
L 330.35944 108.264289 
L 330.604093 107.769969 
L 330.848746 105.50025 
L 331.093399 107.250474 
L 331.338052 107.811308 
L 331.582705 109.197918 
L 331.827358 104.551468 
L 332.072011 102.332591 
L 332.80597 88.893929 
L 333.050623 91.360225 
L 333.295276 92.029652 
L 333.539929 91.348058 
L 333.784582 90.25455 
L 334.029235 91.751555 
L 334.273888 87.300548 
L 334.763194 86.409961 
L 335.007847 86.806548 
L 335.2525 87.646096 
L 335.497153 87.554532 
L 335.741806 90.301764 
L 335.986459 89.44183 
L 336.231112 90.488099 
L 336.720418 80.219614 
L 336.965071 80.42404 
L 337.209724 75.303582 
L 337.454377 77.208847 
L 337.69903 77.172147 
L 337.943684 73.746876 
L 338.188337 79.776727 
L 338.43299 78.117376 
L 338.677643 78.296949 
L 338.922296 77.711164 
L 339.166949 80.493071 
L 339.411602 79.255703 
L 339.656255 80.965722 
L 339.900908 78.47171 
L 340.145561 78.028107 
L 340.390214 77.972922 
L 340.87952 68.797895 
L 341.124173 69.741174 
L 341.368826 67.649005 
L 341.613479 69.81129 
L 341.858132 70.797241 
L 342.347438 74.877996 
L 342.592091 74.830486 
L 342.836744 73.24251 
L 343.081397 74.006142 
L 343.32605 72.742266 
L 343.570703 70.587262 
L 343.815356 71.112976 
L 344.060009 69.397946 
L 344.304662 71.506033 
L 344.549315 71.622154 
L 344.793968 71.263624 
L 345.038621 72.520366 
L 345.283274 70.597874 
L 345.77258 71.38088 
L 346.017233 68.331414 
L 346.261886 69.866303 
L 346.506539 67.733807 
L 346.751192 69.642971 
L 346.995845 68.97616 
L 347.240498 69.077053 
L 347.485151 68.453877 
L 347.729804 68.830646 
L 348.21911 64.390251 
L 348.463763 65.883183 
L 348.708416 66.339941 
L 348.953069 66.180185 
L 349.197722 63.096266 
L 349.442375 66.314495 
L 349.687028 65.077201 
L 349.931681 64.637177 
L 350.176334 64.944421 
L 350.420987 64.142906 
L 350.66564 61.992763 
L 350.910293 63.766754 
L 351.154946 61.542793 
L 351.399599 60.985291 
L 351.888905 62.076553 
L 352.133558 62.178186 
L 352.378211 61.998267 
L 352.622864 63.526023 
L 352.867517 63.921721 
L 353.11217 61.822642 
L 353.356823 62.025193 
L 353.601476 61.462212 
L 354.090782 58.379428 
L 354.335435 59.925744 
L 354.580088 56.389584 
L 354.824741 57.73436 
L 355.069394 60.016567 
L 355.314047 55.110333 
L 355.803353 53.205364 
L 356.048006 54.050983 
L 356.292659 56.829731 
L 356.537312 57.850876 
L 356.781965 66.797438 
L 357.026618 67.692146 
L 357.271271 65.000939 
L 357.515924 66.979406 
L 357.760577 64.676961 
L 358.00523 72.810976 
L 358.249883 72.511383 
L 358.494536 72.389857 
L 358.739189 74.185616 
L 359.228495 83.170556 
L 359.473148 81.794806 
L 359.717801 79.310443 
L 359.962454 79.086692 
L 360.207107 81.084237 
L 360.451761 78.834016 
L 360.696414 80.476338 
L 360.941067 76.715736 
L 361.18572 77.208723 
L 361.430373 78.432666 
L 361.675026 77.597956 
L 362.408985 86.354283 
L 362.653638 84.820924 
L 362.898291 90.197119 
L 363.387597 81.30051 
L 363.876903 84.253451 
L 364.121556 84.79538 
L 364.366209 86.311068 
L 364.610862 86.645041 
L 364.855515 91.32745 
L 365.100168 88.132099 
L 365.344821 90.345596 
L 365.589474 89.598821 
L 365.834127 85.767164 
L 366.07878 86.549257 
L 366.323433 81.680783 
L 366.568086 85.886395 
L 366.812739 83.757847 
L 367.057392 80.087476 
L 367.546698 93.335286 
L 367.791351 93.170175 
L 368.280657 91.501396 
L 368.52531 89.77141 
L 368.769963 90.215482 
L 369.014616 87.57709 
L 369.259269 88.825737 
L 369.748575 82.34557 
L 369.993228 80.699743 
L 370.237881 81.658275 
L 370.482534 81.91564 
L 370.727187 83.850151 
L 370.97184 82.023962 
L 371.216493 72.095693 
L 371.461146 72.74471 
L 371.705799 72.654775 
L 371.950452 70.559373 
L 372.195105 77.064295 
L 372.439758 75.135929 
L 372.929064 83.942875 
L 373.173717 81.576484 
L 373.41837 95.500656 
L 373.663023 99.194671 
L 373.907676 97.089126 
L 374.152329 99.160316 
L 374.396982 98.54099 
L 374.641635 96.453313 
L 375.130941 101.370234 
L 375.375594 99.892702 
L 375.620247 94.882169 
L 375.8649 99.290011 
L 376.109553 98.884687 
L 376.354206 96.260018 
L 376.598859 95.916247 
L 376.843512 95.902525 
L 377.088165 95.006903 
L 377.332818 100.551566 
L 377.577471 99.35218 
L 377.822124 99.253361 
L 378.066777 99.535703 
L 378.31143 114.156968 
L 378.556083 113.257645 
L 378.800736 113.589964 
L 379.290042 107.869109 
L 379.534695 111.070457 
L 379.779348 108.748417 
L 380.024001 110.507871 
L 380.268654 109.221907 
L 380.513307 106.829306 
L 381.002613 108.847014 
L 381.247266 105.649097 
L 381.491919 109.014075 
L 381.736572 106.682557 
L 381.981225 110.929089 
L 382.225878 108.827813 
L 382.715184 101.94864 
L 382.959838 102.892783 
L 383.204491 104.28539 
L 383.449144 104.414221 
L 383.693797 106.104151 
L 383.93845 105.931044 
L 384.183103 109.374999 
L 384.427756 114.470802 
L 385.161715 109.736638 
L 385.406368 110.118096 
L 385.651021 107.614039 
L 385.895674 106.574014 
L 386.140327 108.931223 
L 386.629633 111.801659 
L 386.874286 109.225609 
L 387.363592 110.998416 
L 387.608245 111.776633 
L 387.852898 107.745116 
L 387.852898 107.745116 
" style="fill:none;stroke:#1f77b4;stroke-linecap:square;stroke-width:1.5;"/>
   </g>
   <g id="line2d_32">
    <path clip-path="url(#pa29a0db580)" d="M 63.198352 267.761671 
L 63.443005 267.017646 
L 63.687658 267.470531 
L 63.932311 269.605557 
L 64.176964 270.640721 
L 64.421617 270.123139 
L 64.66627 267.567577 
L 64.910923 267.955764 
L 65.155576 267.438182 
L 65.400229 265.238458 
L 65.889535 267.955764 
L 66.134188 267.276437 
L 66.378841 267.826368 
L 66.623494 267.179391 
L 67.1128 265.335504 
L 67.357453 265.367853 
L 67.602106 267.988113 
L 67.846759 267.923415 
L 68.091412 269.50851 
L 68.336066 268.246904 
L 68.580719 268.020462 
L 68.825372 268.020462 
L 69.070025 266.694157 
L 69.314678 268.699788 
L 69.559331 268.538044 
L 69.803984 267.923415 
L 70.29329 260.806661 
L 70.537943 261.194847 
L 70.782596 261.906523 
L 71.027249 261.777127 
L 71.271902 261.324243 
L 71.516555 258.412843 
L 72.250514 260.677265 
L 72.495167 258.089354 
L 72.73982 258.21875 
L 72.984473 257.959959 
L 73.229126 257.377679 
L 73.473779 258.606936 
L 73.718432 260.547869 
L 73.963085 258.477541 
L 74.697044 261.518336 
L 74.941697 258.833379 
L 75.18635 258.315796 
L 75.431003 257.215934 
L 76.409615 265.723691 
L 76.898921 264.267991 
L 77.143574 262.812291 
L 77.388227 259.415659 
L 77.63288 258.995123 
L 77.877533 260.677265 
L 78.122186 261.033103 
L 78.366839 264.365038 
L 78.611492 264.720876 
L 78.856145 265.982482 
L 79.100798 266.564762 
L 79.345451 269.670255 
L 79.590104 267.535228 
L 79.834757 267.276437 
L 80.07941 265.788389 
L 80.324063 265.303155 
L 80.568716 266.564762 
L 80.813369 266.694157 
L 81.058022 276.334125 
L 81.547328 273.422725 
L 81.791981 275.978287 
L 82.036634 275.007821 
L 82.281287 275.169565 
L 83.259899 269.21737 
L 83.504552 269.961395 
L 83.749205 271.352397 
L 84.238511 267.729322 
L 84.483164 267.923415 
L 84.727817 269.120324 
L 84.97247 269.087975 
L 85.217123 268.149857 
L 85.461776 269.864348 
L 85.706429 269.282068 
L 85.951082 269.087975 
L 86.440388 267.988113 
L 86.929694 271.125955 
L 87.174347 269.152673 
L 87.419 266.111878 
L 87.663653 267.017646 
L 87.908306 263.815107 
L 88.152959 266.823553 
L 88.397612 267.21174 
L 88.642265 267.308786 
L 89.131571 269.573208 
L 89.376224 267.50288 
L 89.620877 263.265176 
L 89.86553 262.909338 
L 90.110183 259.739147 
L 90.354836 263.685711 
L 90.599489 264.365038 
L 91.088796 264.267991 
L 91.333449 264.947318 
L 91.578102 264.914969 
L 92.067408 261.874174 
L 92.312061 259.027472 
L 92.556714 259.253914 
L 92.801367 257.992308 
L 93.04602 254.045744 
L 93.290673 254.045744 
L 93.535326 252.654742 
L 93.779979 252.719439 
L 94.269285 254.563326 
L 94.513938 254.272186 
L 94.758591 251.975415 
L 95.003244 254.207488 
L 95.49255 252.201857 
L 95.737203 252.719439 
L 95.981856 251.748973 
L 96.226509 251.457833 
L 96.471162 250.810855 
L 96.715815 250.778506 
L 96.960468 251.037297 
L 97.205121 248.675829 
L 97.449774 248.287642 
L 97.694427 251.943066 
L 97.93908 253.334068 
L 98.183733 253.075277 
L 98.428386 255.210304 
L 98.673039 254.207488 
L 98.917692 252.331253 
L 99.162345 251.975415 
L 99.896304 245.861476 
L 100.140957 246.249663 
L 100.38561 246.379058 
L 100.630263 242.917728 
L 100.874916 242.044308 
L 101.119569 243.823496 
L 101.364222 243.079472 
L 101.608875 241.753168 
L 101.853528 242.303099 
L 102.342834 246.411407 
L 102.587487 244.373427 
L 102.83214 246.411407 
L 103.076793 244.891009 
L 103.321446 246.734896 
L 103.566099 245.376243 
L 103.810752 245.893825 
L 104.055405 244.826312 
L 104.300058 245.182149 
L 104.544711 242.691285 
L 104.789364 243.370612 
L 105.034017 242.27075 
L 105.27867 241.914912 
L 105.523323 238.291837 
L 105.767976 237.256673 
L 106.012629 234.118831 
L 106.257282 232.69548 
L 106.501935 232.69548 
L 106.746588 238.097744 
L 106.991241 232.048502 
L 107.235894 232.274945 
L 107.480547 234.507018 
L 107.7252 229.428243 
L 108.214506 226.096308 
L 108.459159 228.198985 
L 108.703812 228.004892 
L 108.948465 228.425427 
L 109.193118 224.770003 
L 109.437771 225.287586 
L 109.682424 224.090677 
L 110.661036 214.838896 
L 110.905689 215.097687 
L 111.394995 211.183472 
L 111.884301 210.310052 
L 112.128954 209.663074 
L 112.373607 213.544941 
L 112.61826 213.189103 
L 113.107566 215.615269 
L 113.596873 217.556202 
L 113.841526 216.715131 
L 114.086179 212.833265 
L 114.330832 214.224267 
L 114.820138 224.511212 
L 115.309444 220.402904 
L 115.554097 224.381817 
L 115.79875 224.317119 
L 116.043403 218.78546 
L 116.288056 222.085046 
L 116.532709 222.182093 
L 116.777362 224.802352 
L 117.022015 220.564648 
L 117.266668 222.182093 
L 117.755974 217.362109 
L 118.000627 220.467602 
L 118.24528 228.06959 
L 118.489933 225.643423 
L 118.734586 226.581541 
L 118.979239 226.161005 
L 119.468545 222.440884 
L 119.713198 224.28477 
L 119.957851 221.761557 
L 120.202504 223.928932 
L 120.69181 222.117395 
L 120.936463 219.238344 
L 121.181116 218.49432 
L 121.425769 218.591366 
L 121.670422 213.189103 
L 121.915075 211.895147 
L 122.404381 218.20318 
L 122.893687 215.647618 
L 123.382993 220.24116 
L 123.627646 220.079415 
L 123.872299 219.464786 
L 124.116952 219.755926 
L 124.361605 218.364924 
L 124.850911 220.952835 
L 125.095564 219.432437 
L 125.340217 217.135667 
L 125.58487 213.415545 
L 125.829523 215.00064 
L 126.074176 211.668705 
L 126.318829 215.356478 
L 126.563482 215.87406 
L 127.052788 221.761557 
L 127.297441 221.599813 
L 127.542094 221.664511 
L 127.786747 226.775634 
L 128.0314 227.454961 
L 128.276053 228.554823 
L 128.520706 228.393078 
L 128.765359 230.786896 
L 129.010012 229.169452 
L 129.254665 228.878312 
L 129.499318 230.107569 
L 129.743971 232.242596 
L 129.988624 231.854409 
L 130.233277 230.980989 
L 130.47793 231.789711 
L 130.722583 231.466222 
L 131.701195 229.331196 
L 132.679807 212.833265 
L 132.92446 212.024543 
L 133.169113 211.895147 
L 133.413766 211.474612 
L 133.658419 215.971107 
L 133.903072 218.267878 
L 134.147725 219.108949 
L 134.392378 220.499951 
L 134.637031 220.079415 
L 134.881684 217.523853 
L 135.126337 217.685598 
L 135.37099 219.95002 
L 135.615643 218.850158 
L 135.860297 218.688413 
L 136.10495 221.470417 
L 136.349603 217.32976 
L 136.838909 221.535115 
L 137.083562 222.861419 
L 137.328215 216.423991 
L 137.817521 212.380381 
L 138.062174 213.641987 
L 138.306827 213.933127 
L 138.55148 213.706685 
L 139.040786 209.857168 
L 139.285439 205.360673 
L 139.530092 208.207375 
L 139.774745 205.198928 
L 140.019398 204.519602 
L 140.264051 205.360673 
L 140.508704 205.619464 
L 140.753357 207.075164 
L 140.99801 206.686977 
L 141.242663 205.328324 
L 141.487316 205.975302 
L 141.731969 205.845906 
L 141.976622 205.360673 
L 142.221275 211.345216 
L 142.465928 206.719326 
L 142.710581 207.495699 
L 142.955234 209.339586 
L 143.44454 202.061087 
L 143.689193 202.125784 
L 144.178499 204.972486 
L 144.423152 204.616648 
L 144.667805 202.319878 
L 144.912458 201.478807 
L 145.157111 202.966855 
L 145.401764 198.308616 
L 145.89107 200.378945 
L 146.135723 199.182036 
L 146.380376 202.449273 
L 146.625029 202.222831 
L 146.869682 201.38176 
L 147.114335 197.402847 
L 147.358988 198.535058 
L 147.603641 197.04701 
L 148.092947 203.322693 
L 148.3376 203.355042 
L 148.582253 200.475991 
L 148.826906 199.990758 
L 149.071559 195.00903 
L 149.316212 192.518166 
L 149.560865 194.362052 
L 150.050171 189.671464 
L 150.294824 187.1806 
L 150.539477 188.05402 
L 150.78413 181.972429 
L 151.028783 181.422498 
L 151.518089 182.360616 
L 151.762742 183.298734 
L 152.007395 181.616592 
L 152.252048 185.239667 
L 152.496701 186.274831 
L 152.741354 184.689736 
L 152.986007 191.547699 
L 153.23066 187.730531 
L 153.475313 188.280462 
L 153.719966 188.506904 
L 153.964619 189.250928 
L 154.209272 188.539253 
L 154.453925 184.948527 
L 154.698578 186.630669 
L 154.943231 193.326888 
L 155.187884 194.847285 
L 155.432537 192.809306 
L 155.67719 197.823383 
L 155.921843 191.709444 
L 156.166496 193.682726 
L 156.411149 202.158133 
L 156.900455 196.432381 
L 157.145108 184.139805 
L 157.389761 183.783967 
L 157.634414 179.287472 
L 157.879067 176.926004 
L 158.12372 176.537817 
L 158.368374 176.570166 
L 158.613027 172.267764 
L 158.85768 171.135553 
L 159.102333 173.432324 
L 159.346986 172.39716 
L 159.836292 167.415432 
L 160.080945 169.097573 
L 160.325598 169.518109 
L 160.814904 167.15664 
L 161.059557 171.52374 
L 161.30421 164.245241 
L 161.793516 158.972373 
L 162.038169 162.627797 
L 162.282822 163.40417 
L 162.527475 166.380267 
L 162.772128 165.312754 
L 163.016781 170.003342 
L 163.261434 169.550458 
L 163.506087 165.280405 
L 163.75074 163.339472 
L 163.995393 168.094758 
L 164.240046 167.15664 
L 164.484699 168.644689 
L 164.729352 171.426693 
L 164.974005 171.2326 
L 165.218658 174.241046 
L 165.463311 174.69393 
L 165.707964 173.044137 
L 166.19727 164.698125 
L 166.441923 164.374636 
L 166.686576 164.309939 
L 167.175882 172.591253 
L 167.420535 171.167902 
L 167.665188 168.256503 
L 167.909841 177.831772 
L 168.154494 179.449216 
L 168.399147 177.475935 
L 168.6438 177.346539 
L 169.133106 169.809249 
L 169.377759 172.655951 
L 169.622412 171.556089 
L 170.111718 171.103204 
L 170.356371 175.502653 
L 170.601024 176.958352 
L 171.09033 171.911926 
L 171.334983 171.200251 
L 171.824289 165.830336 
L 172.068942 166.444965 
L 172.313595 168.838782 
L 172.558248 164.601079 
L 173.047554 161.94847 
L 173.292207 163.048332 
L 173.781513 169.291667 
L 174.026166 168.515294 
L 174.270819 166.380267 
L 174.515472 166.250872 
L 174.760125 162.692494 
L 175.004778 162.174912 
L 175.249431 159.03707 
L 175.494084 157.678417 
L 175.738737 158.131302 
L 175.98339 156.7403 
L 176.228043 156.804997 
L 176.472696 155.963926 
L 176.717349 157.225533 
L 176.962002 156.060973 
L 177.206655 154.314133 
L 177.451308 154.864064 
L 177.695961 152.049711 
L 178.185267 155.834531 
L 178.42992 160.719212 
L 178.674573 160.719212 
L 178.919226 159.101768 
L 179.163879 159.554653 
L 179.408532 158.195999 
L 179.653185 157.581371 
L 179.897838 160.654515 
L 180.387144 161.107399 
L 180.631798 157.160835 
L 180.876451 155.381647 
L 181.121104 152.631991 
L 181.365757 151.20864 
L 181.61041 148.847172 
L 181.855063 148.944219 
L 182.099716 147.650263 
L 182.344369 148.458985 
L 182.589022 150.820454 
L 182.833675 146.421006 
L 183.078328 147.585565 
L 183.322981 147.488519 
L 183.567634 147.909054 
L 184.301593 153.505411 
L 184.546246 150.982198 
L 184.790899 151.20864 
L 185.035552 149.688243 
L 185.280205 150.238174 
L 185.524858 147.779659 
L 185.769511 149.623545 
L 186.014164 146.647448 
L 186.258817 149.720592 
L 186.50347 146.453354 
L 186.748123 150.755756 
L 186.992776 152.3732 
L 187.237429 146.356308 
L 187.482082 147.941403 
L 187.726735 148.458985 
L 187.971388 151.952665 
L 188.216041 147.617914 
L 188.460694 145.515237 
L 188.705347 146.453354 
L 188.95 145.191748 
L 189.439306 139.757135 
L 189.683959 137.525062 
L 189.928612 137.136876 
L 190.173265 137.945598 
L 190.417918 136.198758 
L 190.662571 135.84292 
L 190.907224 136.198758 
L 191.151877 137.363318 
L 191.39653 136.231107 
L 191.641183 136.683991 
L 191.885836 137.816202 
L 192.130489 134.840105 
L 192.375142 134.387221 
L 192.619795 136.975131 
L 192.864448 134.387221 
L 193.109101 135.616478 
L 193.353754 138.721971 
L 193.598407 138.980762 
L 193.84306 137.525062 
L 194.087713 138.495529 
L 194.332366 137.169225 
L 194.577019 136.554596 
L 194.821672 136.360503 
L 195.066325 136.328154 
L 195.310978 135.84292 
L 195.800284 142.894977 
L 196.044937 139.207204 
L 196.28959 143.67135 
L 196.534243 141.503975 
L 196.778896 141.212835 
L 197.023549 140.565858 
L 197.268202 145.547586 
L 197.512855 147.812008 
L 197.757508 142.442093 
L 198.002161 142.086255 
L 198.246814 146.776843 
L 198.491467 143.541955 
L 198.73612 151.305687 
L 198.980773 149.49415 
L 199.225426 157.128486 
L 199.470079 156.384462 
L 199.714732 163.048332 
L 199.959385 164.148194 
L 200.693344 145.385841 
L 200.937997 146.809192 
L 201.427303 141.924511 
L 201.671956 142.442093 
L 201.916609 137.654458 
L 202.161262 138.948413 
L 202.405915 136.71634 
L 202.650568 132.96387 
L 202.895221 131.896357 
L 203.139875 136.295805 
L 203.384528 134.193127 
L 203.629181 130.958239 
L 203.873834 137.428016 
L 204.118487 138.139691 
L 204.36314 137.492714 
L 204.607793 137.751505 
L 204.852446 135.84292 
L 205.097099 134.840105 
L 205.341752 136.101711 
L 205.586405 136.522247 
L 205.831058 138.010296 
L 206.075711 140.986393 
L 206.320364 140.7923 
L 206.80967 132.09045 
L 207.054323 131.21703 
L 207.298976 129.308446 
L 207.543629 128.693817 
L 207.788282 126.202953 
L 208.032935 127.367513 
L 208.277588 126.979326 
L 208.522241 125.264835 
L 208.766894 125.13544 
L 209.011547 127.917444 
L 209.2562 132.155148 
L 209.500853 131.766961 
L 209.745506 132.608032 
L 210.234812 136.878085 
L 210.724118 128.984957 
L 210.968771 128.079188 
L 211.213424 123.841484 
L 211.458077 122.256389 
L 211.70273 123.129809 
L 212.192036 119.636129 
L 212.681342 123.873833 
L 212.925995 125.297184 
L 213.170648 129.728981 
L 213.415301 131.314077 
L 213.904607 125.167789 
L 214.14926 123.67974 
L 214.393913 123.000413 
L 214.638566 120.638945 
L 214.883219 123.744438 
L 215.127872 123.356251 
L 215.372525 120.671294 
L 215.861831 123.938531 
L 216.106484 120.76834 
L 216.351137 122.159342 
L 216.59579 121.35062 
L 217.085096 128.790864 
L 217.329749 127.011675 
L 217.574402 134.322523 
L 217.819055 131.184681 
L 218.063708 124.164973 
L 218.308361 100.938474 
L 218.553014 96.539026 
L 218.797667 98.544657 
L 219.04232 99.482774 
L 219.286973 98.868146 
L 219.531626 99.02989 
L 219.776279 93.498231 
L 220.020932 91.589647 
L 220.265585 91.751391 
L 220.510238 92.592462 
L 220.754891 92.495415 
L 221.244197 88.937038 
L 221.48885 89.972202 
L 221.733503 87.060803 
L 221.978156 90.32804 
L 222.222809 91.880787 
L 222.467462 86.025639 
L 222.712115 84.53759 
L 223.446074 92.721858 
L 223.690727 88.063618 
L 223.93538 95.083326 
L 224.180033 95.730304 
L 224.424686 81.884981 
L 224.669339 84.24645 
L 224.913992 81.238004 
L 225.158645 82.564308 
L 225.403298 79.297071 
L 225.647952 81.238004 
L 225.892605 77.809022 
L 226.137258 78.488349 
L 226.381911 82.079075 
L 226.626564 88.904689 
L 227.11587 87.351943 
L 227.360523 85.281614 
L 227.605176 89.260527 
L 228.094482 85.669801 
L 228.583788 87.513687 
L 228.828441 84.505241 
L 229.073094 83.178937 
L 229.317747 82.596657 
L 229.5624 84.020008 
L 229.807053 83.534774 
L 230.051706 82.49961 
L 230.296359 78.876535 
L 230.541012 83.437728 
L 230.785665 78.488349 
L 231.030318 80.235188 
L 231.274971 79.394117 
L 231.519624 75.965136 
L 232.00893 72.212665 
L 232.253583 72.989038 
L 232.498236 73.344876 
L 232.742889 76.870904 
L 232.987542 71.048105 
L 233.232195 69.398312 
L 233.476848 70.109987 
L 233.721501 73.636016 
L 233.966154 75.124065 
L 234.210807 72.374409 
L 234.45546 77.259091 
L 234.700113 75.188762 
L 234.944766 75.350507 
L 235.189419 72.956689 
L 235.434072 71.759781 
L 235.678725 71.662734 
L 235.923378 70.91871 
L 236.168031 72.083269 
L 236.412684 71.468641 
L 236.657337 71.889176 
L 236.90199 74.541785 
L 237.146643 71.533338 
L 237.391296 71.015756 
L 237.635949 71.533338 
L 237.880602 69.624754 
L 238.125255 70.304081 
L 238.369908 68.945428 
L 238.614561 71.759781 
L 238.859214 71.759781 
L 239.34852 77.517882 
L 239.593173 72.730247 
L 239.837826 70.724616 
L 240.082479 72.891992 
L 240.327132 72.147967 
L 240.571785 69.301265 
L 240.816438 67.910263 
L 241.061091 62.313906 
L 241.305744 64.254839 
L 241.79505 58.464389 
L 242.039703 60.534718 
L 242.529009 56.588154 
L 242.773662 62.863837 
L 243.262968 56.135269 
L 243.507621 56.652852 
L 243.752274 54.291383 
L 243.996927 49.762539 
L 244.24158 55.941176 
L 244.486233 54.614872 
L 244.730886 51.897566 
L 244.975539 46.689395 
L 245.220192 47.336373 
L 245.464845 45.880673 
L 245.709498 43.389809 
L 245.954151 44.069136 
L 246.198804 41.740016 
L 246.443457 42.613436 
L 246.68811 42.548738 
L 246.932763 44.263229 
L 247.177416 43.907391 
L 247.422069 46.042418 
L 247.666722 45.363091 
L 247.911375 40.898945 
L 248.156029 40.284316 
L 248.400682 40.381363 
L 248.645335 36.758288 
L 248.889988 34.914401 
L 249.134641 71.015756 
L 249.379294 77.420835 
L 249.623947 74.832925 
L 249.8686 69.495359 
L 250.113253 79.200024 
L 250.357906 82.467261 
L 250.602559 80.75277 
L 250.847212 81.91733 
L 251.091865 75.803391 
L 251.336518 82.629006 
L 251.581171 84.214101 
L 251.825824 105.014434 
L 252.070477 108.831602 
L 252.31513 120.089014 
L 252.559783 118.374523 
L 253.049089 98.059424 
L 253.293742 97.056608 
L 253.538395 98.997541 
L 253.783048 106.664227 
L 254.027701 98.965192 
L 254.272354 98.641703 
L 254.517007 101.94129 
L 254.76166 92.107229 
L 255.006313 98.900495 
L 255.250966 96.668422 
L 255.495619 90.586831 
L 255.984925 93.983464 
L 256.229578 92.268973 
L 256.474231 91.4926 
L 256.718884 95.892048 
L 256.963537 94.048162 
L 257.697496 103.073501 
L 257.942149 104.108665 
L 258.186802 109.963813 
L 258.431455 106.955367 
L 258.676108 97.962377 
L 259.165414 95.374466 
L 259.410067 92.624811 
L 259.65472 92.883602 
L 259.899373 94.11286 
L 260.388679 87.093152 
L 260.633332 84.53759 
L 260.877985 83.761217 
L 261.122638 86.543221 
L 261.367291 79.555862 
L 261.611944 78.423651 
L 261.856597 74.444738 
L 262.345903 72.439107 
L 262.590556 62.21686 
L 262.835209 62.734442 
L 263.569168 58.690831 
L 263.813821 56.426409 
L 264.058474 60.631764 
L 264.303127 56.426409 
L 264.54778 54.808965 
L 264.792433 62.21686 
L 265.037086 63.025582 
L 265.281739 54.38843 
L 265.771045 48.727375 
L 266.015698 51.638775 
L 266.260351 52.64159 
L 266.505004 57.073387 
L 266.749657 53.579708 
L 266.99431 52.900381 
L 267.238963 46.398255 
L 267.483616 44.554369 
L 267.728269 40.154921 
L 267.972922 42.257598 
L 268.217575 47.012884 
L 268.462228 44.683764 
L 268.706881 56.135269 
L 268.951534 61.505184 
L 269.196187 55.294198 
L 269.44084 59.790693 
L 269.685493 66.616308 
L 269.930146 59.01432 
L 270.174799 60.340624 
L 270.664106 67.974961 
L 270.908759 70.271732 
L 271.153412 79.070628 
L 271.398065 74.832925 
L 271.887371 60.47002 
L 272.132024 66.228121 
L 272.376677 80.105793 
L 272.62133 83.761217 
L 272.865983 83.275983 
L 273.110636 87.093152 
L 273.355289 86.122685 
L 273.599942 81.62619 
L 273.844595 82.176121 
L 274.089248 84.569939 
L 274.333901 88.645898 
L 274.823207 102.167732 
L 275.06786 103.914572 
L 275.312513 106.696576 
L 275.557166 107.505298 
L 275.801819 105.337923 
L 276.046472 100.356194 
L 276.291125 109.996162 
L 276.535778 107.958182 
L 276.780431 124.811951 
L 277.025084 124.585509 
L 277.269737 129.211399 
L 277.51439 124.423764 
L 277.759043 115.107286 
L 278.003696 120.315456 
L 278.248349 117.145265 
L 278.493002 123.453298 
L 278.737655 126.00886 
L 278.982308 118.600965 
L 279.226961 120.76834 
L 279.471614 127.335164 
L 279.716267 120.800689 
L 279.96092 119.862572 
L 280.450226 130.570052 
L 280.694879 129.923075 
L 280.939532 141.148137 
L 281.673491 128.01449 
L 281.918144 119.636129 
L 282.162797 120.703643 
L 282.40745 121.221225 
L 282.652103 116.821776 
L 282.896756 120.024316 
L 283.141409 119.862572 
L 283.386062 119.150896 
L 283.630715 120.250758 
L 283.875368 119.571432 
L 284.120021 112.681119 
L 284.364674 114.783797 
L 284.609327 108.8963 
L 284.85398 109.996162 
L 285.098633 107.052413 
L 285.343286 112.131188 
L 285.587939 112.64877 
L 285.832592 114.654401 
L 286.321898 108.928649 
L 286.566551 110.772535 
L 286.811204 110.125557 
L 287.055857 106.373087 
L 287.30051 107.667042 
L 288.034469 115.333728 
L 288.279122 114.072121 
L 288.523775 111.257768 
L 288.768428 111.031326 
L 289.013081 108.60516 
L 289.257734 107.311204 
L 289.502387 108.087578 
L 289.74704 109.349184 
L 289.991693 114.783797 
L 290.236346 113.23105 
L 290.480999 117.501103 
L 290.725652 116.660032 
L 290.970305 117.145265 
L 291.214958 113.651586 
L 291.459611 106.761273 
L 291.704264 109.510929 
L 291.948917 109.640324 
L 292.19357 100.291497 
L 292.438223 96.539026 
L 292.682876 94.501046 
L 292.92753 95.665606 
L 293.416836 90.295691 
L 293.906142 87.998921 
L 294.395448 94.533395 
L 294.640101 90.975018 
L 294.884754 92.851253 
L 295.129407 93.207091 
L 295.37406 89.131131 
L 295.618713 87.15785 
L 295.863366 87.804827 
L 296.108019 83.728868 
L 296.352672 97.671237 
L 296.597325 99.547472 
L 296.841978 103.396989 
L 297.086631 103.914572 
L 297.331284 105.273225 
L 297.82059 110.222604 
L 298.065243 105.790807 
L 298.309896 107.73174 
L 298.799202 105.532016 
L 299.043855 105.69376 
L 299.288508 104.141014 
L 299.777814 109.866766 
L 300.022467 109.219789 
L 300.511773 109.025695 
L 301.001079 111.419513 
L 301.245732 112.06649 
L 301.490385 113.683935 
L 301.735038 112.93991 
L 301.979691 110.254953 
L 302.224344 110.675488 
L 302.468997 110.319651 
L 302.958303 106.470133 
L 303.202956 108.8963 
L 303.447609 108.993346 
L 303.692262 108.249322 
L 303.936915 118.924454 
L 304.181568 123.259204 
L 304.670874 114.848495 
L 304.915527 112.131188 
L 305.16018 111.451862 
L 305.404833 112.64877 
L 305.649486 110.093209 
L 305.894139 110.222604 
L 306.138792 106.308389 
L 306.628098 104.432154 
L 306.872751 105.467318 
L 307.117404 105.176178 
L 307.362057 105.726109 
L 307.60671 104.593898 
L 307.851363 106.793622 
L 308.096016 110.837233 
L 308.585322 112.487026 
L 308.829975 113.52219 
L 309.074628 115.786612 
L 309.563934 118.309825 
L 309.808587 118.18043 
L 310.297893 121.221225 
L 310.542546 117.727545 
L 310.787199 120.735991 
L 311.031852 118.568616 
L 311.276505 118.827407 
L 311.765811 112.001793 
L 312.010464 112.292933 
L 312.255117 115.301379 
L 312.49977 114.460308 
L 312.744423 115.171983 
L 312.989076 115.204332 
L 313.478382 116.757079 
L 313.723035 118.439221 
L 313.967688 118.115732 
L 314.212341 118.600965 
L 314.701647 120.574247 
L 314.9463 121.674109 
L 315.190953 121.706458 
L 315.435607 123.000413 
L 315.68026 123.647391 
L 315.924913 123.129809 
L 316.169566 125.13544 
L 316.414219 125.42658 
L 316.658872 124.197322 
L 316.903525 129.599586 
L 317.148178 125.653022 
L 317.392831 128.693817 
L 317.637484 130.117168 
L 317.882137 129.340795 
L 318.371443 128.920259 
L 318.616096 127.885095 
L 318.860749 129.696632 
L 319.105402 126.397046 
L 319.350055 126.849931 
L 319.594708 131.087634 
L 319.839361 131.864008 
L 320.084014 130.311261 
L 320.328667 131.605217 
L 320.57332 128.176235 
L 320.817973 129.373144 
L 321.062626 129.049655 
L 321.307279 129.502539 
L 321.551932 128.273281 
L 321.796585 129.373144 
L 322.041238 129.373144 
L 322.530544 132.866823 
L 322.775197 133.804941 
L 323.01985 133.222661 
L 323.264503 134.743058 
L 323.509156 133.643196 
L 323.753809 131.184681 
L 323.998462 130.861192 
L 324.243115 127.626304 
L 324.487768 126.526442 
L 324.732421 128.532073 
L 325.221727 124.423764 
L 325.46638 124.973695 
L 325.711033 128.726166 
L 325.955686 129.696632 
L 326.200339 131.249379 
L 326.444992 126.526442 
L 326.689645 129.502539 
L 326.934298 123.09746 
L 327.178951 123.259204 
L 327.668257 121.382969 
L 327.91291 112.584073 
L 328.157563 111.807699 
L 328.402216 112.519375 
L 328.646869 107.925833 
L 328.891522 107.117111 
L 329.136175 110.772535 
L 329.380828 112.745817 
L 329.625481 112.487026 
L 330.114787 108.8963 
L 330.35944 108.411067 
L 330.604093 106.146645 
L 330.848746 107.925833 
L 331.093399 108.508113 
L 331.338052 109.931464 
L 331.582705 105.208527 
L 331.827358 102.944105 
L 332.561317 89.357574 
L 332.80597 91.945484 
L 333.050623 92.624811 
L 333.295276 91.977833 
L 333.539929 90.877971 
L 333.784582 92.430718 
L 334.029235 87.934223 
L 334.518541 87.093152 
L 334.763194 87.546036 
L 335.007847 88.419456 
L 335.2525 88.354758 
L 335.497153 91.169111 
L 335.741806 90.32804 
L 335.986459 91.427902 
L 336.475765 81.011562 
L 336.720418 81.205655 
L 336.965071 76.029833 
L 337.209724 78.035464 
L 337.454377 77.970766 
L 337.69903 74.541785 
L 337.943684 80.720422 
L 338.188337 79.005931 
L 338.43299 79.297071 
L 338.677643 78.682442 
L 338.922296 81.529144 
L 339.166949 80.299886 
L 339.411602 82.046726 
L 339.656255 79.523513 
L 339.900908 79.070628 
L 340.145561 79.005931 
L 340.634867 69.689452 
L 340.87952 70.62757 
L 341.124173 68.524892 
L 341.368826 70.756965 
L 341.613479 71.759781 
L 342.102785 75.965136 
L 342.347438 75.965136 
L 342.592091 74.38004 
L 342.836744 75.124065 
L 343.081397 73.862458 
L 343.32605 71.662734 
L 343.570703 72.147967 
L 343.815356 70.433476 
L 344.060009 72.536154 
L 344.304662 72.697898 
L 344.549315 72.342061 
L 344.793968 73.603667 
L 345.038621 71.695083 
L 345.527927 72.439107 
L 345.77258 69.365963 
L 346.017233 70.821663 
L 346.261886 68.718985 
L 346.506539 70.562872 
L 346.751192 69.948243 
L 346.995845 70.012941 
L 347.240498 69.398312 
L 347.485151 69.75415 
L 347.974457 65.257655 
L 348.21911 66.681006 
L 348.463763 67.198588 
L 348.708416 67.036843 
L 348.953069 63.963699 
L 349.197722 67.069192 
L 349.442375 66.001679 
L 349.687028 65.484097 
L 349.931681 65.807586 
L 350.176334 65.031213 
L 350.420987 62.863837 
L 350.66564 64.545979 
L 350.910293 62.443302 
L 351.154946 61.763975 
L 351.644252 62.896186 
L 351.888905 63.025582 
L 352.133558 62.863837 
L 352.378211 64.384235 
L 352.622864 64.869468 
L 352.867517 62.79914 
L 353.11217 62.896186 
L 353.356823 62.378604 
L 353.846129 59.176065 
L 354.090782 60.664113 
L 354.335435 57.235132 
L 354.580088 58.367342 
L 354.824741 60.76116 
L 355.069394 55.973525 
L 355.5587 53.838499 
L 355.803353 54.614872 
L 356.048006 57.429225 
L 356.292659 58.593785 
L 356.537312 67.489728 
L 356.781965 68.945428 
L 357.026618 66.292819 
L 357.271271 68.136706 
L 357.515924 66.034028 
L 357.760577 73.830109 
L 358.00523 74.0889 
L 358.249883 73.733063 
L 358.494536 75.5446 
L 358.983842 84.666985 
L 359.228495 83.470077 
L 359.473148 80.75277 
L 359.717801 80.396933 
L 359.962454 82.370215 
L 360.207107 80.138142 
L 360.451761 81.561493 
L 360.696414 77.87372 
L 360.941067 78.100162 
L 361.18572 79.394117 
L 361.430373 78.520697 
L 362.164332 87.287245 
L 362.408985 85.928592 
L 362.653638 91.104413 
L 363.142944 82.305517 
L 363.63225 85.216916 
L 363.876903 85.734499 
L 364.121556 87.254896 
L 364.366209 87.707781 
L 364.610862 92.333671 
L 364.855515 89.551667 
L 365.100168 91.427902 
L 365.344821 90.975018 
L 365.589474 87.060803 
L 365.834127 87.578385 
L 366.07878 82.887797 
L 366.323433 86.607918 
L 366.568086 84.861079 
L 366.812739 80.946864 
L 367.302045 94.242255 
L 367.546698 94.339302 
L 368.036004 92.65716 
L 368.280657 90.91032 
L 368.52531 91.20146 
L 368.769963 88.613549 
L 369.014616 89.584016 
L 369.748575 81.270353 
L 369.993228 82.143772 
L 370.237881 82.434912 
L 370.482534 84.311148 
L 370.727187 82.629006 
L 370.97184 72.730247 
L 371.461146 72.956689 
L 371.705799 70.756965 
L 371.950452 77.032649 
L 372.195105 75.576949 
L 372.684411 84.53759 
L 372.929064 82.49961 
L 373.173717 95.924397 
L 373.41837 100.712032 
L 373.663023 98.641703 
L 373.907676 100.550288 
L 374.152329 100.19445 
L 374.396982 97.962377 
L 374.886288 102.81471 
L 375.130941 101.294312 
L 375.375594 96.11849 
L 375.620247 100.226799 
L 375.8649 100.162101 
L 376.109553 97.28305 
L 376.354206 96.797817 
L 376.598859 96.765468 
L 376.843512 95.795002 
L 377.088165 101.197265 
L 377.332818 100.226799 
L 377.577471 99.90331 
L 377.822124 100.226799 
L 378.066777 114.589703 
L 378.556083 114.492657 
L 379.045389 108.8963 
L 379.290042 111.872397 
L 379.534695 109.866766 
L 379.779348 111.225419 
L 380.024001 110.157906 
L 380.268654 107.634693 
L 380.75796 109.607975 
L 381.002613 106.470133 
L 381.247266 109.510929 
L 381.491919 107.537647 
L 381.736572 111.387164 
L 381.981225 109.705022 
L 382.470531 102.52357 
L 382.715184 103.299943 
L 382.959838 104.723294 
L 383.204491 104.852689 
L 383.449144 106.470133 
L 383.693797 106.437785 
L 383.93845 109.76972 
L 384.183103 115.010239 
L 384.427756 113.554539 
L 384.672409 111.128373 
L 384.917062 110.384348 
L 385.161715 110.740186 
L 385.406368 108.281671 
L 385.651021 107.020065 
L 386.140327 110.610791 
L 386.38498 112.195886 
L 386.629633 109.737371 
L 387.363592 112.163537 
L 387.608245 108.216973 
L 387.852898 110.416697 
L 387.852898 110.416697 
" style="fill:none;stroke:#ff7f0e;stroke-linecap:square;stroke-width:1.5;"/>
   </g>
   <g id="patch_3">
    <path d="M 46.965625 288.430125 
L 46.965625 22.318125 
" style="fill:none;stroke:#000000;stroke-linecap:square;stroke-linejoin:miter;stroke-width:0.8;"/>
   </g>
   <g id="patch_4">
    <path d="M 404.085625 288.430125 
L 404.085625 22.318125 
" style="fill:none;stroke:#000000;stroke-linecap:square;stroke-linejoin:miter;stroke-width:0.8;"/>
   </g>
   <g id="patch_5">
    <path d="M 46.965625 288.430125 
L 404.085625 288.430125 
" style="fill:none;stroke:#000000;stroke-linecap:square;stroke-linejoin:miter;stroke-width:0.8;"/>
   </g>
   <g id="patch_6">
    <path d="M 46.965625 22.318125 
L 404.085625 22.318125 
" style="fill:none;stroke:#000000;stroke-linecap:square;stroke-linejoin:miter;stroke-width:0.8;"/>
   </g>
   <g id="text_18">
    <!-- Training: DIS -->
    <defs>
     <path d="M -0.296875 72.90625 
L 61.375 72.90625 
L 61.375 64.59375 
L 35.5 64.59375 
L 35.5 0 
L 25.59375 0 
L 25.59375 64.59375 
L -0.296875 64.59375 
z
" id="DejaVuSans-84"/>
     <path d="M 54.890625 33.015625 
L 54.890625 0 
L 45.90625 0 
L 45.90625 32.71875 
Q 45.90625 40.484375 42.875 44.328125 
Q 39.84375 48.1875 33.796875 48.1875 
Q 26.515625 48.1875 22.3125 43.546875 
Q 18.109375 38.921875 18.109375 30.90625 
L 18.109375 0 
L 9.078125 0 
L 9.078125 54.6875 
L 18.109375 54.6875 
L 18.109375 46.1875 
Q 21.34375 51.125 25.703125 53.5625 
Q 30.078125 56 35.796875 56 
Q 45.21875 56 50.046875 50.171875 
Q 54.890625 44.34375 54.890625 33.015625 
z
" id="DejaVuSans-110"/>
     <path d="M 45.40625 27.984375 
Q 45.40625 37.75 41.375 43.109375 
Q 37.359375 48.484375 30.078125 48.484375 
Q 22.859375 48.484375 18.828125 43.109375 
Q 14.796875 37.75 14.796875 27.984375 
Q 14.796875 18.265625 18.828125 12.890625 
Q 22.859375 7.515625 30.078125 7.515625 
Q 37.359375 7.515625 41.375 12.890625 
Q 45.40625 18.265625 45.40625 27.984375 
z
M 54.390625 6.78125 
Q 54.390625 -7.171875 48.1875 -13.984375 
Q 42 -20.796875 29.203125 -20.796875 
Q 24.46875 -20.796875 20.265625 -20.09375 
Q 16.0625 -19.390625 12.109375 -17.921875 
L 12.109375 -9.1875 
Q 16.0625 -11.328125 19.921875 -12.34375 
Q 23.78125 -13.375 27.78125 -13.375 
Q 36.625 -13.375 41.015625 -8.765625 
Q 45.40625 -4.15625 45.40625 5.171875 
L 45.40625 9.625 
Q 42.625 4.78125 38.28125 2.390625 
Q 33.9375 0 27.875 0 
Q 17.828125 0 11.671875 7.65625 
Q 5.515625 15.328125 5.515625 27.984375 
Q 5.515625 40.671875 11.671875 48.328125 
Q 17.828125 56 27.875 56 
Q 33.9375 56 38.28125 53.609375 
Q 42.625 51.21875 45.40625 46.390625 
L 45.40625 54.6875 
L 54.390625 54.6875 
z
" id="DejaVuSans-103"/>
     <path d="M 11.71875 12.40625 
L 22.015625 12.40625 
L 22.015625 0 
L 11.71875 0 
z
M 11.71875 51.703125 
L 22.015625 51.703125 
L 22.015625 39.3125 
L 11.71875 39.3125 
z
" id="DejaVuSans-58"/>
     <path d="M 9.8125 72.90625 
L 19.671875 72.90625 
L 19.671875 0 
L 9.8125 0 
z
" id="DejaVuSans-73"/>
     <path d="M 53.515625 70.515625 
L 53.515625 60.890625 
Q 47.90625 63.578125 42.921875 64.890625 
Q 37.9375 66.21875 33.296875 66.21875 
Q 25.25 66.21875 20.875 63.09375 
Q 16.5 59.96875 16.5 54.203125 
Q 16.5 49.359375 19.40625 46.890625 
Q 22.3125 44.4375 30.421875 42.921875 
L 36.375 41.703125 
Q 47.40625 39.59375 52.65625 34.296875 
Q 57.90625 29 57.90625 20.125 
Q 57.90625 9.515625 50.796875 4.046875 
Q 43.703125 -1.421875 29.984375 -1.421875 
Q 24.8125 -1.421875 18.96875 -0.25 
Q 13.140625 0.921875 6.890625 3.21875 
L 6.890625 13.375 
Q 12.890625 10.015625 18.65625 8.296875 
Q 24.421875 6.59375 29.984375 6.59375 
Q 38.421875 6.59375 43.015625 9.90625 
Q 47.609375 13.234375 47.609375 19.390625 
Q 47.609375 24.75 44.3125 27.78125 
Q 41.015625 30.8125 33.5 32.328125 
L 27.484375 33.5 
Q 16.453125 35.6875 11.515625 40.375 
Q 6.59375 45.0625 6.59375 53.421875 
Q 6.59375 63.09375 13.40625 68.65625 
Q 20.21875 74.21875 32.171875 74.21875 
Q 37.3125 74.21875 42.625 73.28125 
Q 47.953125 72.359375 53.515625 70.515625 
z
" id="DejaVuSans-83"/>
    </defs>
    <g transform="translate(187.7275 16.318125)scale(0.12 -0.12)">
     <use xlink:href="#DejaVuSans-84"/>
     <use x="46.333984" xlink:href="#DejaVuSans-114"/>
     <use x="87.447266" xlink:href="#DejaVuSans-97"/>
     <use x="148.726562" xlink:href="#DejaVuSans-105"/>
     <use x="176.509766" xlink:href="#DejaVuSans-110"/>
     <use x="239.888672" xlink:href="#DejaVuSans-105"/>
     <use x="267.671875" xlink:href="#DejaVuSans-110"/>
     <use x="331.050781" xlink:href="#DejaVuSans-103"/>
     <use x="394.527344" xlink:href="#DejaVuSans-58"/>
     <use x="428.21875" xlink:href="#DejaVuSans-32"/>
     <use x="460.005859" xlink:href="#DejaVuSans-68"/>
     <use x="537.007812" xlink:href="#DejaVuSans-73"/>
     <use x="566.5" xlink:href="#DejaVuSans-83"/>
    </g>
   </g>
   <g id="legend_1">
    <g id="patch_7">
     <path d="M 53.965625 59.674375 
L 137.69375 59.674375 
Q 139.69375 59.674375 139.69375 57.674375 
L 139.69375 29.318125 
Q 139.69375 27.318125 137.69375 27.318125 
L 53.965625 27.318125 
Q 51.965625 27.318125 51.965625 29.318125 
L 51.965625 57.674375 
Q 51.965625 59.674375 53.965625 59.674375 
z
" style="fill:#ffffff;opacity:0.8;stroke:#cccccc;stroke-linejoin:miter;"/>
    </g>
    <g id="line2d_33">
     <path d="M 55.965625 35.416562 
L 75.965625 35.416562 
" style="fill:none;stroke:#1f77b4;stroke-linecap:square;stroke-width:1.5;"/>
    </g>
    <g id="line2d_34"/>
    <g id="text_19">
     <!-- Predicted -->
     <defs>
      <path d="M 45.40625 46.390625 
L 45.40625 75.984375 
L 54.390625 75.984375 
L 54.390625 0 
L 45.40625 0 
L 45.40625 8.203125 
Q 42.578125 3.328125 38.25 0.953125 
Q 33.9375 -1.421875 27.875 -1.421875 
Q 17.96875 -1.421875 11.734375 6.484375 
Q 5.515625 14.40625 5.515625 27.296875 
Q 5.515625 40.1875 11.734375 48.09375 
Q 17.96875 56 27.875 56 
Q 33.9375 56 38.25 53.625 
Q 42.578125 51.265625 45.40625 46.390625 
z
M 14.796875 27.296875 
Q 14.796875 17.390625 18.875 11.75 
Q 22.953125 6.109375 30.078125 6.109375 
Q 37.203125 6.109375 41.296875 11.75 
Q 45.40625 17.390625 45.40625 27.296875 
Q 45.40625 37.203125 41.296875 42.84375 
Q 37.203125 48.484375 30.078125 48.484375 
Q 22.953125 48.484375 18.875 42.84375 
Q 14.796875 37.203125 14.796875 27.296875 
z
" id="DejaVuSans-100"/>
      <path d="M 18.3125 70.21875 
L 18.3125 54.6875 
L 36.8125 54.6875 
L 36.8125 47.703125 
L 18.3125 47.703125 
L 18.3125 18.015625 
Q 18.3125 11.328125 20.140625 9.421875 
Q 21.96875 7.515625 27.59375 7.515625 
L 36.8125 7.515625 
L 36.8125 0 
L 27.59375 0 
Q 17.1875 0 13.234375 3.875 
Q 9.28125 7.765625 9.28125 18.015625 
L 9.28125 47.703125 
L 2.6875 47.703125 
L 2.6875 54.6875 
L 9.28125 54.6875 
L 9.28125 70.21875 
z
" id="DejaVuSans-116"/>
     </defs>
     <g transform="translate(83.965625 38.916562)scale(0.1 -0.1)">
      <use xlink:href="#DejaVuSans-80"/>
      <use x="58.552734" xlink:href="#DejaVuSans-114"/>
      <use x="97.416016" xlink:href="#DejaVuSans-101"/>
      <use x="158.939453" xlink:href="#DejaVuSans-100"/>
      <use x="222.416016" xlink:href="#DejaVuSans-105"/>
      <use x="250.199219" xlink:href="#DejaVuSans-99"/>
      <use x="305.179688" xlink:href="#DejaVuSans-116"/>
      <use x="344.388672" xlink:href="#DejaVuSans-101"/>
      <use x="405.912109" xlink:href="#DejaVuSans-100"/>
     </g>
    </g>
    <g id="line2d_35">
     <path d="M 55.965625 50.094687 
L 75.965625 50.094687 
" style="fill:none;stroke:#ff7f0e;stroke-linecap:square;stroke-width:1.5;"/>
    </g>
    <g id="line2d_36"/>
    <g id="text_20">
     <!-- True value -->
     <defs>
      <path d="M 8.5 21.578125 
L 8.5 54.6875 
L 17.484375 54.6875 
L 17.484375 21.921875 
Q 17.484375 14.15625 20.5 10.265625 
Q 23.53125 6.390625 29.59375 6.390625 
Q 36.859375 6.390625 41.078125 11.03125 
Q 45.3125 15.671875 45.3125 23.6875 
L 45.3125 54.6875 
L 54.296875 54.6875 
L 54.296875 0 
L 45.3125 0 
L 45.3125 8.40625 
Q 42.046875 3.421875 37.71875 1 
Q 33.40625 -1.421875 27.6875 -1.421875 
Q 18.265625 -1.421875 13.375 4.4375 
Q 8.5 10.296875 8.5 21.578125 
z
M 31.109375 56 
z
" id="DejaVuSans-117"/>
      <path d="M 2.984375 54.6875 
L 12.5 54.6875 
L 29.59375 8.796875 
L 46.6875 54.6875 
L 56.203125 54.6875 
L 35.6875 0 
L 23.484375 0 
z
" id="DejaVuSans-118"/>
      <path d="M 9.421875 75.984375 
L 18.40625 75.984375 
L 18.40625 0 
L 9.421875 0 
z
" id="DejaVuSans-108"/>
     </defs>
     <g transform="translate(83.965625 53.594687)scale(0.1 -0.1)">
      <use xlink:href="#DejaVuSans-84"/>
      <use x="46.333984" xlink:href="#DejaVuSans-114"/>
      <use x="87.447266" xlink:href="#DejaVuSans-117"/>
      <use x="150.826172" xlink:href="#DejaVuSans-101"/>
      <use x="212.349609" xlink:href="#DejaVuSans-32"/>
      <use x="244.136719" xlink:href="#DejaVuSans-118"/>
      <use x="303.316406" xlink:href="#DejaVuSans-97"/>
      <use x="364.595703" xlink:href="#DejaVuSans-108"/>
      <use x="392.378906" xlink:href="#DejaVuSans-117"/>
      <use x="455.757812" xlink:href="#DejaVuSans-101"/>
     </g>
    </g>
   </g>
  </g>
 </g>
 <defs>
  <clipPath id="pa29a0db580">
   <rect height="266.112" width="357.12" x="46.965625" y="22.318125"/>
  </clipPath>
 </defs>
</svg>
