<?xml version="1.0" encoding="utf-8" standalone="no"?>
<!DOCTYPE svg PUBLIC "-//W3C//DTD SVG 1.1//EN"
  "http://www.w3.org/Graphics/SVG/1.1/DTD/svg11.dtd">
<!-- Created with matplotlib (https://matplotlib.org/) -->
<svg height="325.986375pt" version="1.1" viewBox="0 0 404.923125 325.986375" width="404.923125pt" xmlns="http://www.w3.org/2000/svg" xmlns:xlink="http://www.w3.org/1999/xlink">
 <defs>
  <style type="text/css">
*{stroke-linecap:butt;stroke-linejoin:round;}
  </style>
 </defs>
 <g id="figure_1">
  <g id="patch_1">
   <path d="M 0 325.986375 
L 404.923125 325.986375 
L 404.923125 0 
L 0 0 
z
" style="fill:#ffffff;"/>
  </g>
  <g id="axes_1">
   <g id="patch_2">
    <path d="M 40.603125 288.430125 
L 397.723125 288.430125 
L 397.723125 22.318125 
L 40.603125 22.318125 
z
" style="fill:#ffffff;"/>
   </g>
   <g id="matplotlib.axis_1">
    <g id="xtick_1">
     <g id="line2d_1">
      <path clip-path="url(#p6414002843)" d="M 56.835852 288.430125 
L 56.835852 22.318125 
" style="fill:none;stroke:#b0b0b0;stroke-dasharray:2.96,1.28;stroke-dashoffset:0;stroke-width:0.8;"/>
     </g>
     <g id="line2d_2">
      <defs>
       <path d="M 0 0 
L 0 3.5 
" id="m218491c007" style="stroke:#000000;stroke-width:0.8;"/>
      </defs>
      <g>
       <use style="stroke:#000000;stroke-width:0.8;" x="56.835852" xlink:href="#m218491c007" y="288.430125"/>
      </g>
     </g>
     <g id="text_1">
      <!-- 0 -->
      <defs>
       <path d="M 31.78125 66.40625 
Q 24.171875 66.40625 20.328125 58.90625 
Q 16.5 51.421875 16.5 36.375 
Q 16.5 21.390625 20.328125 13.890625 
Q 24.171875 6.390625 31.78125 6.390625 
Q 39.453125 6.390625 43.28125 13.890625 
Q 47.125 21.390625 47.125 36.375 
Q 47.125 51.421875 43.28125 58.90625 
Q 39.453125 66.40625 31.78125 66.40625 
z
M 31.78125 74.21875 
Q 44.046875 74.21875 50.515625 64.515625 
Q 56.984375 54.828125 56.984375 36.375 
Q 56.984375 17.96875 50.515625 8.265625 
Q 44.046875 -1.421875 31.78125 -1.421875 
Q 19.53125 -1.421875 13.0625 8.265625 
Q 6.59375 17.96875 6.59375 36.375 
Q 6.59375 54.828125 13.0625 64.515625 
Q 19.53125 74.21875 31.78125 74.21875 
z
" id="DejaVuSans-48"/>
      </defs>
      <g transform="translate(53.654602 303.028562)scale(0.1 -0.1)">
       <use xlink:href="#DejaVuSans-48"/>
      </g>
     </g>
    </g>
    <g id="xtick_2">
     <g id="line2d_3">
      <path clip-path="url(#p6414002843)" d="M 105.766454 288.430125 
L 105.766454 22.318125 
" style="fill:none;stroke:#b0b0b0;stroke-dasharray:2.96,1.28;stroke-dashoffset:0;stroke-width:0.8;"/>
     </g>
     <g id="line2d_4">
      <g>
       <use style="stroke:#000000;stroke-width:0.8;" x="105.766454" xlink:href="#m218491c007" y="288.430125"/>
      </g>
     </g>
     <g id="text_2">
      <!-- 200 -->
      <defs>
       <path d="M 19.1875 8.296875 
L 53.609375 8.296875 
L 53.609375 0 
L 7.328125 0 
L 7.328125 8.296875 
Q 12.9375 14.109375 22.625 23.890625 
Q 32.328125 33.6875 34.8125 36.53125 
Q 39.546875 41.84375 41.421875 45.53125 
Q 43.3125 49.21875 43.3125 52.78125 
Q 43.3125 58.59375 39.234375 62.25 
Q 35.15625 65.921875 28.609375 65.921875 
Q 23.96875 65.921875 18.8125 64.3125 
Q 13.671875 62.703125 7.8125 59.421875 
L 7.8125 69.390625 
Q 13.765625 71.78125 18.9375 73 
Q 24.125 74.21875 28.421875 74.21875 
Q 39.75 74.21875 46.484375 68.546875 
Q 53.21875 62.890625 53.21875 53.421875 
Q 53.21875 48.921875 51.53125 44.890625 
Q 49.859375 40.875 45.40625 35.40625 
Q 44.1875 33.984375 37.640625 27.21875 
Q 31.109375 20.453125 19.1875 8.296875 
z
" id="DejaVuSans-50"/>
      </defs>
      <g transform="translate(96.222704 303.028562)scale(0.1 -0.1)">
       <use xlink:href="#DejaVuSans-50"/>
       <use x="63.623047" xlink:href="#DejaVuSans-48"/>
       <use x="127.246094" xlink:href="#DejaVuSans-48"/>
      </g>
     </g>
    </g>
    <g id="xtick_3">
     <g id="line2d_5">
      <path clip-path="url(#p6414002843)" d="M 154.697057 288.430125 
L 154.697057 22.318125 
" style="fill:none;stroke:#b0b0b0;stroke-dasharray:2.96,1.28;stroke-dashoffset:0;stroke-width:0.8;"/>
     </g>
     <g id="line2d_6">
      <g>
       <use style="stroke:#000000;stroke-width:0.8;" x="154.697057" xlink:href="#m218491c007" y="288.430125"/>
      </g>
     </g>
     <g id="text_3">
      <!-- 400 -->
      <defs>
       <path d="M 37.796875 64.3125 
L 12.890625 25.390625 
L 37.796875 25.390625 
z
M 35.203125 72.90625 
L 47.609375 72.90625 
L 47.609375 25.390625 
L 58.015625 25.390625 
L 58.015625 17.1875 
L 47.609375 17.1875 
L 47.609375 0 
L 37.796875 0 
L 37.796875 17.1875 
L 4.890625 17.1875 
L 4.890625 26.703125 
z
" id="DejaVuSans-52"/>
      </defs>
      <g transform="translate(145.153307 303.028562)scale(0.1 -0.1)">
       <use xlink:href="#DejaVuSans-52"/>
       <use x="63.623047" xlink:href="#DejaVuSans-48"/>
       <use x="127.246094" xlink:href="#DejaVuSans-48"/>
      </g>
     </g>
    </g>
    <g id="xtick_4">
     <g id="line2d_7">
      <path clip-path="url(#p6414002843)" d="M 203.627659 288.430125 
L 203.627659 22.318125 
" style="fill:none;stroke:#b0b0b0;stroke-dasharray:2.96,1.28;stroke-dashoffset:0;stroke-width:0.8;"/>
     </g>
     <g id="line2d_8">
      <g>
       <use style="stroke:#000000;stroke-width:0.8;" x="203.627659" xlink:href="#m218491c007" y="288.430125"/>
      </g>
     </g>
     <g id="text_4">
      <!-- 600 -->
      <defs>
       <path d="M 33.015625 40.375 
Q 26.375 40.375 22.484375 35.828125 
Q 18.609375 31.296875 18.609375 23.390625 
Q 18.609375 15.53125 22.484375 10.953125 
Q 26.375 6.390625 33.015625 6.390625 
Q 39.65625 6.390625 43.53125 10.953125 
Q 47.40625 15.53125 47.40625 23.390625 
Q 47.40625 31.296875 43.53125 35.828125 
Q 39.65625 40.375 33.015625 40.375 
z
M 52.59375 71.296875 
L 52.59375 62.3125 
Q 48.875 64.0625 45.09375 64.984375 
Q 41.3125 65.921875 37.59375 65.921875 
Q 27.828125 65.921875 22.671875 59.328125 
Q 17.53125 52.734375 16.796875 39.40625 
Q 19.671875 43.65625 24.015625 45.921875 
Q 28.375 48.1875 33.59375 48.1875 
Q 44.578125 48.1875 50.953125 41.515625 
Q 57.328125 34.859375 57.328125 23.390625 
Q 57.328125 12.15625 50.6875 5.359375 
Q 44.046875 -1.421875 33.015625 -1.421875 
Q 20.359375 -1.421875 13.671875 8.265625 
Q 6.984375 17.96875 6.984375 36.375 
Q 6.984375 53.65625 15.1875 63.9375 
Q 23.390625 74.21875 37.203125 74.21875 
Q 40.921875 74.21875 44.703125 73.484375 
Q 48.484375 72.75 52.59375 71.296875 
z
" id="DejaVuSans-54"/>
      </defs>
      <g transform="translate(194.083909 303.028562)scale(0.1 -0.1)">
       <use xlink:href="#DejaVuSans-54"/>
       <use x="63.623047" xlink:href="#DejaVuSans-48"/>
       <use x="127.246094" xlink:href="#DejaVuSans-48"/>
      </g>
     </g>
    </g>
    <g id="xtick_5">
     <g id="line2d_9">
      <path clip-path="url(#p6414002843)" d="M 252.558261 288.430125 
L 252.558261 22.318125 
" style="fill:none;stroke:#b0b0b0;stroke-dasharray:2.96,1.28;stroke-dashoffset:0;stroke-width:0.8;"/>
     </g>
     <g id="line2d_10">
      <g>
       <use style="stroke:#000000;stroke-width:0.8;" x="252.558261" xlink:href="#m218491c007" y="288.430125"/>
      </g>
     </g>
     <g id="text_5">
      <!-- 800 -->
      <defs>
       <path d="M 31.78125 34.625 
Q 24.75 34.625 20.71875 30.859375 
Q 16.703125 27.09375 16.703125 20.515625 
Q 16.703125 13.921875 20.71875 10.15625 
Q 24.75 6.390625 31.78125 6.390625 
Q 38.8125 6.390625 42.859375 10.171875 
Q 46.921875 13.96875 46.921875 20.515625 
Q 46.921875 27.09375 42.890625 30.859375 
Q 38.875 34.625 31.78125 34.625 
z
M 21.921875 38.8125 
Q 15.578125 40.375 12.03125 44.71875 
Q 8.5 49.078125 8.5 55.328125 
Q 8.5 64.0625 14.71875 69.140625 
Q 20.953125 74.21875 31.78125 74.21875 
Q 42.671875 74.21875 48.875 69.140625 
Q 55.078125 64.0625 55.078125 55.328125 
Q 55.078125 49.078125 51.53125 44.71875 
Q 48 40.375 41.703125 38.8125 
Q 48.828125 37.15625 52.796875 32.3125 
Q 56.78125 27.484375 56.78125 20.515625 
Q 56.78125 9.90625 50.3125 4.234375 
Q 43.84375 -1.421875 31.78125 -1.421875 
Q 19.734375 -1.421875 13.25 4.234375 
Q 6.78125 9.90625 6.78125 20.515625 
Q 6.78125 27.484375 10.78125 32.3125 
Q 14.796875 37.15625 21.921875 38.8125 
z
M 18.3125 54.390625 
Q 18.3125 48.734375 21.84375 45.5625 
Q 25.390625 42.390625 31.78125 42.390625 
Q 38.140625 42.390625 41.71875 45.5625 
Q 45.3125 48.734375 45.3125 54.390625 
Q 45.3125 60.0625 41.71875 63.234375 
Q 38.140625 66.40625 31.78125 66.40625 
Q 25.390625 66.40625 21.84375 63.234375 
Q 18.3125 60.0625 18.3125 54.390625 
z
" id="DejaVuSans-56"/>
      </defs>
      <g transform="translate(243.014511 303.028562)scale(0.1 -0.1)">
       <use xlink:href="#DejaVuSans-56"/>
       <use x="63.623047" xlink:href="#DejaVuSans-48"/>
       <use x="127.246094" xlink:href="#DejaVuSans-48"/>
      </g>
     </g>
    </g>
    <g id="xtick_6">
     <g id="line2d_11">
      <path clip-path="url(#p6414002843)" d="M 301.488863 288.430125 
L 301.488863 22.318125 
" style="fill:none;stroke:#b0b0b0;stroke-dasharray:2.96,1.28;stroke-dashoffset:0;stroke-width:0.8;"/>
     </g>
     <g id="line2d_12">
      <g>
       <use style="stroke:#000000;stroke-width:0.8;" x="301.488863" xlink:href="#m218491c007" y="288.430125"/>
      </g>
     </g>
     <g id="text_6">
      <!-- 1000 -->
      <defs>
       <path d="M 12.40625 8.296875 
L 28.515625 8.296875 
L 28.515625 63.921875 
L 10.984375 60.40625 
L 10.984375 69.390625 
L 28.421875 72.90625 
L 38.28125 72.90625 
L 38.28125 8.296875 
L 54.390625 8.296875 
L 54.390625 0 
L 12.40625 0 
z
" id="DejaVuSans-49"/>
      </defs>
      <g transform="translate(288.763863 303.028562)scale(0.1 -0.1)">
       <use xlink:href="#DejaVuSans-49"/>
       <use x="63.623047" xlink:href="#DejaVuSans-48"/>
       <use x="127.246094" xlink:href="#DejaVuSans-48"/>
       <use x="190.869141" xlink:href="#DejaVuSans-48"/>
      </g>
     </g>
    </g>
    <g id="xtick_7">
     <g id="line2d_13">
      <path clip-path="url(#p6414002843)" d="M 350.419465 288.430125 
L 350.419465 22.318125 
" style="fill:none;stroke:#b0b0b0;stroke-dasharray:2.96,1.28;stroke-dashoffset:0;stroke-width:0.8;"/>
     </g>
     <g id="line2d_14">
      <g>
       <use style="stroke:#000000;stroke-width:0.8;" x="350.419465" xlink:href="#m218491c007" y="288.430125"/>
      </g>
     </g>
     <g id="text_7">
      <!-- 1200 -->
      <g transform="translate(337.694465 303.028562)scale(0.1 -0.1)">
       <use xlink:href="#DejaVuSans-49"/>
       <use x="63.623047" xlink:href="#DejaVuSans-50"/>
       <use x="127.246094" xlink:href="#DejaVuSans-48"/>
       <use x="190.869141" xlink:href="#DejaVuSans-48"/>
      </g>
     </g>
    </g>
    <g id="text_8">
     <!-- Day -->
     <defs>
      <path d="M 19.671875 64.796875 
L 19.671875 8.109375 
L 31.59375 8.109375 
Q 46.6875 8.109375 53.6875 14.9375 
Q 60.6875 21.78125 60.6875 36.53125 
Q 60.6875 51.171875 53.6875 57.984375 
Q 46.6875 64.796875 31.59375 64.796875 
z
M 9.8125 72.90625 
L 30.078125 72.90625 
Q 51.265625 72.90625 61.171875 64.09375 
Q 71.09375 55.28125 71.09375 36.53125 
Q 71.09375 17.671875 61.125 8.828125 
Q 51.171875 0 30.078125 0 
L 9.8125 0 
z
" id="DejaVuSans-68"/>
      <path d="M 34.28125 27.484375 
Q 23.390625 27.484375 19.1875 25 
Q 14.984375 22.515625 14.984375 16.5 
Q 14.984375 11.71875 18.140625 8.90625 
Q 21.296875 6.109375 26.703125 6.109375 
Q 34.1875 6.109375 38.703125 11.40625 
Q 43.21875 16.703125 43.21875 25.484375 
L 43.21875 27.484375 
z
M 52.203125 31.203125 
L 52.203125 0 
L 43.21875 0 
L 43.21875 8.296875 
Q 40.140625 3.328125 35.546875 0.953125 
Q 30.953125 -1.421875 24.3125 -1.421875 
Q 15.921875 -1.421875 10.953125 3.296875 
Q 6 8.015625 6 15.921875 
Q 6 25.140625 12.171875 29.828125 
Q 18.359375 34.515625 30.609375 34.515625 
L 43.21875 34.515625 
L 43.21875 35.40625 
Q 43.21875 41.609375 39.140625 45 
Q 35.0625 48.390625 27.6875 48.390625 
Q 23 48.390625 18.546875 47.265625 
Q 14.109375 46.140625 10.015625 43.890625 
L 10.015625 52.203125 
Q 14.9375 54.109375 19.578125 55.046875 
Q 24.21875 56 28.609375 56 
Q 40.484375 56 46.34375 49.84375 
Q 52.203125 43.703125 52.203125 31.203125 
z
" id="DejaVuSans-97"/>
      <path d="M 32.171875 -5.078125 
Q 28.375 -14.84375 24.75 -17.8125 
Q 21.140625 -20.796875 15.09375 -20.796875 
L 7.90625 -20.796875 
L 7.90625 -13.28125 
L 13.1875 -13.28125 
Q 16.890625 -13.28125 18.9375 -11.515625 
Q 21 -9.765625 23.484375 -3.21875 
L 25.09375 0.875 
L 2.984375 54.6875 
L 12.5 54.6875 
L 29.59375 11.921875 
L 46.6875 54.6875 
L 56.203125 54.6875 
z
" id="DejaVuSans-121"/>
     </defs>
     <g transform="translate(209.289688 316.706687)scale(0.1 -0.1)">
      <use xlink:href="#DejaVuSans-68"/>
      <use x="77.001953" xlink:href="#DejaVuSans-97"/>
      <use x="138.28125" xlink:href="#DejaVuSans-121"/>
     </g>
    </g>
   </g>
   <g id="matplotlib.axis_2">
    <g id="ytick_1">
     <g id="line2d_15">
      <path clip-path="url(#p6414002843)" d="M 40.603125 269.580589 
L 397.723125 269.580589 
" style="fill:none;stroke:#b0b0b0;stroke-dasharray:2.96,1.28;stroke-dashoffset:0;stroke-width:0.8;"/>
     </g>
     <g id="line2d_16">
      <defs>
       <path d="M 0 0 
L -3.5 0 
" id="m8c99805c02" style="stroke:#000000;stroke-width:0.8;"/>
      </defs>
      <g>
       <use style="stroke:#000000;stroke-width:0.8;" x="40.603125" xlink:href="#m8c99805c02" y="269.580589"/>
      </g>
     </g>
     <g id="text_9">
      <!-- 2 -->
      <g transform="translate(27.240625 273.379808)scale(0.1 -0.1)">
       <use xlink:href="#DejaVuSans-50"/>
      </g>
     </g>
    </g>
    <g id="ytick_2">
     <g id="line2d_17">
      <path clip-path="url(#p6414002843)" d="M 40.603125 234.035665 
L 397.723125 234.035665 
" style="fill:none;stroke:#b0b0b0;stroke-dasharray:2.96,1.28;stroke-dashoffset:0;stroke-width:0.8;"/>
     </g>
     <g id="line2d_18">
      <g>
       <use style="stroke:#000000;stroke-width:0.8;" x="40.603125" xlink:href="#m8c99805c02" y="234.035665"/>
      </g>
     </g>
     <g id="text_10">
      <!-- 4 -->
      <g transform="translate(27.240625 237.834884)scale(0.1 -0.1)">
       <use xlink:href="#DejaVuSans-52"/>
      </g>
     </g>
    </g>
    <g id="ytick_3">
     <g id="line2d_19">
      <path clip-path="url(#p6414002843)" d="M 40.603125 198.49074 
L 397.723125 198.49074 
" style="fill:none;stroke:#b0b0b0;stroke-dasharray:2.96,1.28;stroke-dashoffset:0;stroke-width:0.8;"/>
     </g>
     <g id="line2d_20">
      <g>
       <use style="stroke:#000000;stroke-width:0.8;" x="40.603125" xlink:href="#m8c99805c02" y="198.49074"/>
      </g>
     </g>
     <g id="text_11">
      <!-- 6 -->
      <g transform="translate(27.240625 202.289959)scale(0.1 -0.1)">
       <use xlink:href="#DejaVuSans-54"/>
      </g>
     </g>
    </g>
    <g id="ytick_4">
     <g id="line2d_21">
      <path clip-path="url(#p6414002843)" d="M 40.603125 162.945816 
L 397.723125 162.945816 
" style="fill:none;stroke:#b0b0b0;stroke-dasharray:2.96,1.28;stroke-dashoffset:0;stroke-width:0.8;"/>
     </g>
     <g id="line2d_22">
      <g>
       <use style="stroke:#000000;stroke-width:0.8;" x="40.603125" xlink:href="#m8c99805c02" y="162.945816"/>
      </g>
     </g>
     <g id="text_12">
      <!-- 8 -->
      <g transform="translate(27.240625 166.745034)scale(0.1 -0.1)">
       <use xlink:href="#DejaVuSans-56"/>
      </g>
     </g>
    </g>
    <g id="ytick_5">
     <g id="line2d_23">
      <path clip-path="url(#p6414002843)" d="M 40.603125 127.400891 
L 397.723125 127.400891 
" style="fill:none;stroke:#b0b0b0;stroke-dasharray:2.96,1.28;stroke-dashoffset:0;stroke-width:0.8;"/>
     </g>
     <g id="line2d_24">
      <g>
       <use style="stroke:#000000;stroke-width:0.8;" x="40.603125" xlink:href="#m8c99805c02" y="127.400891"/>
      </g>
     </g>
     <g id="text_13">
      <!-- 10 -->
      <g transform="translate(20.878125 131.20011)scale(0.1 -0.1)">
       <use xlink:href="#DejaVuSans-49"/>
       <use x="63.623047" xlink:href="#DejaVuSans-48"/>
      </g>
     </g>
    </g>
    <g id="ytick_6">
     <g id="line2d_25">
      <path clip-path="url(#p6414002843)" d="M 40.603125 91.855967 
L 397.723125 91.855967 
" style="fill:none;stroke:#b0b0b0;stroke-dasharray:2.96,1.28;stroke-dashoffset:0;stroke-width:0.8;"/>
     </g>
     <g id="line2d_26">
      <g>
       <use style="stroke:#000000;stroke-width:0.8;" x="40.603125" xlink:href="#m8c99805c02" y="91.855967"/>
      </g>
     </g>
     <g id="text_14">
      <!-- 12 -->
      <g transform="translate(20.878125 95.655185)scale(0.1 -0.1)">
       <use xlink:href="#DejaVuSans-49"/>
       <use x="63.623047" xlink:href="#DejaVuSans-50"/>
      </g>
     </g>
    </g>
    <g id="ytick_7">
     <g id="line2d_27">
      <path clip-path="url(#p6414002843)" d="M 40.603125 56.311042 
L 397.723125 56.311042 
" style="fill:none;stroke:#b0b0b0;stroke-dasharray:2.96,1.28;stroke-dashoffset:0;stroke-width:0.8;"/>
     </g>
     <g id="line2d_28">
      <g>
       <use style="stroke:#000000;stroke-width:0.8;" x="40.603125" xlink:href="#m8c99805c02" y="56.311042"/>
      </g>
     </g>
     <g id="text_15">
      <!-- 14 -->
      <g transform="translate(20.878125 60.110261)scale(0.1 -0.1)">
       <use xlink:href="#DejaVuSans-49"/>
       <use x="63.623047" xlink:href="#DejaVuSans-52"/>
      </g>
     </g>
    </g>
    <g id="text_16">
     <!-- Price $ -->
     <defs>
      <path d="M 19.671875 64.796875 
L 19.671875 37.40625 
L 32.078125 37.40625 
Q 38.96875 37.40625 42.71875 40.96875 
Q 46.484375 44.53125 46.484375 51.125 
Q 46.484375 57.671875 42.71875 61.234375 
Q 38.96875 64.796875 32.078125 64.796875 
z
M 9.8125 72.90625 
L 32.078125 72.90625 
Q 44.34375 72.90625 50.609375 67.359375 
Q 56.890625 61.8125 56.890625 51.125 
Q 56.890625 40.328125 50.609375 34.8125 
Q 44.34375 29.296875 32.078125 29.296875 
L 19.671875 29.296875 
L 19.671875 0 
L 9.8125 0 
z
" id="DejaVuSans-80"/>
      <path d="M 41.109375 46.296875 
Q 39.59375 47.171875 37.8125 47.578125 
Q 36.03125 48 33.890625 48 
Q 26.265625 48 22.1875 43.046875 
Q 18.109375 38.09375 18.109375 28.8125 
L 18.109375 0 
L 9.078125 0 
L 9.078125 54.6875 
L 18.109375 54.6875 
L 18.109375 46.1875 
Q 20.953125 51.171875 25.484375 53.578125 
Q 30.03125 56 36.53125 56 
Q 37.453125 56 38.578125 55.875 
Q 39.703125 55.765625 41.0625 55.515625 
z
" id="DejaVuSans-114"/>
      <path d="M 9.421875 54.6875 
L 18.40625 54.6875 
L 18.40625 0 
L 9.421875 0 
z
M 9.421875 75.984375 
L 18.40625 75.984375 
L 18.40625 64.59375 
L 9.421875 64.59375 
z
" id="DejaVuSans-105"/>
      <path d="M 48.78125 52.59375 
L 48.78125 44.1875 
Q 44.96875 46.296875 41.140625 47.34375 
Q 37.3125 48.390625 33.40625 48.390625 
Q 24.65625 48.390625 19.8125 42.84375 
Q 14.984375 37.3125 14.984375 27.296875 
Q 14.984375 17.28125 19.8125 11.734375 
Q 24.65625 6.203125 33.40625 6.203125 
Q 37.3125 6.203125 41.140625 7.25 
Q 44.96875 8.296875 48.78125 10.40625 
L 48.78125 2.09375 
Q 45.015625 0.34375 40.984375 -0.53125 
Q 36.96875 -1.421875 32.421875 -1.421875 
Q 20.0625 -1.421875 12.78125 6.34375 
Q 5.515625 14.109375 5.515625 27.296875 
Q 5.515625 40.671875 12.859375 48.328125 
Q 20.21875 56 33.015625 56 
Q 37.15625 56 41.109375 55.140625 
Q 45.0625 54.296875 48.78125 52.59375 
z
" id="DejaVuSans-99"/>
      <path d="M 56.203125 29.59375 
L 56.203125 25.203125 
L 14.890625 25.203125 
Q 15.484375 15.921875 20.484375 11.0625 
Q 25.484375 6.203125 34.421875 6.203125 
Q 39.59375 6.203125 44.453125 7.46875 
Q 49.3125 8.734375 54.109375 11.28125 
L 54.109375 2.78125 
Q 49.265625 0.734375 44.1875 -0.34375 
Q 39.109375 -1.421875 33.890625 -1.421875 
Q 20.796875 -1.421875 13.15625 6.1875 
Q 5.515625 13.8125 5.515625 26.8125 
Q 5.515625 40.234375 12.765625 48.109375 
Q 20.015625 56 32.328125 56 
Q 43.359375 56 49.78125 48.890625 
Q 56.203125 41.796875 56.203125 29.59375 
z
M 47.21875 32.234375 
Q 47.125 39.59375 43.09375 43.984375 
Q 39.0625 48.390625 32.421875 48.390625 
Q 24.90625 48.390625 20.390625 44.140625 
Q 15.875 39.890625 15.1875 32.171875 
z
" id="DejaVuSans-101"/>
      <path id="DejaVuSans-32"/>
      <path d="M 33.796875 -14.703125 
L 28.90625 -14.703125 
L 28.859375 0 
Q 23.734375 0.09375 18.609375 1.1875 
Q 13.484375 2.296875 8.296875 4.5 
L 8.296875 13.28125 
Q 13.28125 10.15625 18.375 8.5625 
Q 23.484375 6.984375 28.90625 6.9375 
L 28.90625 29.203125 
Q 18.109375 30.953125 13.203125 35.15625 
Q 8.296875 39.359375 8.296875 46.6875 
Q 8.296875 54.640625 13.625 59.21875 
Q 18.953125 63.8125 28.90625 64.5 
L 28.90625 75.984375 
L 33.796875 75.984375 
L 33.796875 64.65625 
Q 38.328125 64.453125 42.578125 63.6875 
Q 46.828125 62.9375 50.875 61.625 
L 50.875 53.078125 
Q 46.828125 55.125 42.546875 56.25 
Q 38.28125 57.375 33.796875 57.5625 
L 33.796875 36.71875 
Q 44.875 35.015625 50.09375 30.609375 
Q 55.328125 26.21875 55.328125 18.609375 
Q 55.328125 10.359375 49.78125 5.59375 
Q 44.234375 0.828125 33.796875 0.09375 
z
M 28.90625 37.59375 
L 28.90625 57.625 
Q 23.25 56.984375 20.265625 54.390625 
Q 17.28125 51.8125 17.28125 47.515625 
Q 17.28125 43.3125 20.03125 40.96875 
Q 22.796875 38.625 28.90625 37.59375 
z
M 33.796875 28.21875 
L 33.796875 7.078125 
Q 39.984375 7.90625 43.140625 10.59375 
Q 46.296875 13.28125 46.296875 17.671875 
Q 46.296875 21.96875 43.28125 24.5 
Q 40.28125 27.046875 33.796875 28.21875 
z
" id="DejaVuSans-36"/>
     </defs>
     <g transform="translate(14.798438 172.342094)rotate(-90)scale(0.1 -0.1)">
      <use xlink:href="#DejaVuSans-80"/>
      <use x="58.552734" xlink:href="#DejaVuSans-114"/>
      <use x="99.666016" xlink:href="#DejaVuSans-105"/>
      <use x="127.449219" xlink:href="#DejaVuSans-99"/>
      <use x="182.429688" xlink:href="#DejaVuSans-101"/>
      <use x="243.953125" xlink:href="#DejaVuSans-32"/>
      <use x="275.740234" xlink:href="#DejaVuSans-36"/>
     </g>
    </g>
   </g>
   <g id="line2d_29">
    <path clip-path="url(#p6414002843)" d="M 56.835852 210.308596 
L 57.325158 204.229389 
L 57.569811 202.884915 
L 57.814464 197.293156 
L 58.548423 204.51455 
L 58.793076 215.838643 
L 59.037729 217.886151 
L 59.282382 218.290659 
L 59.527035 218.200142 
L 59.771688 219.574827 
L 60.260994 218.628421 
L 60.505647 219.143099 
L 60.7503 230.2981 
L 61.239606 232.476412 
L 61.484259 233.193038 
L 61.728912 233.393852 
L 61.973566 234.783787 
L 62.218219 232.683445 
L 62.462872 233.999114 
L 62.707525 233.774089 
L 62.952178 227.062941 
L 63.441484 227.922033 
L 63.686137 229.271321 
L 63.93079 231.674861 
L 64.175443 230.427922 
L 64.420096 230.760752 
L 64.664749 231.984988 
L 64.909402 240.02919 
L 65.154055 242.358057 
L 65.398708 239.806229 
L 65.643361 243.428612 
L 65.888014 243.138904 
L 66.132667 238.279145 
L 66.37732 235.744003 
L 66.621973 235.169054 
L 66.866626 235.498922 
L 67.111279 233.54236 
L 67.355932 240.367364 
L 67.600585 239.70572 
L 67.845238 240.977927 
L 68.089891 240.841728 
L 68.579197 246.543915 
L 68.82385 245.908868 
L 69.068503 243.993675 
L 69.313156 245.014373 
L 69.557809 246.591499 
L 69.802462 246.776376 
L 70.047115 249.379506 
L 70.291768 247.646003 
L 70.536421 247.632634 
L 70.781074 255.481701 
L 71.025727 258.201148 
L 71.27038 265.91163 
L 71.515033 267.443531 
L 71.759686 266.852875 
L 72.004339 267.887531 
L 72.248992 267.240218 
L 72.493645 268.103578 
L 72.738298 268.432857 
L 72.982951 266.837668 
L 73.227604 267.4619 
L 73.472257 267.265078 
L 73.71691 267.960273 
L 73.961563 269.011357 
L 74.206216 269.560568 
L 74.450869 268.707043 
L 74.695522 269.414318 
L 74.940175 267.683942 
L 75.184828 270.49765 
L 75.429481 271.573832 
L 75.674134 271.785929 
L 75.918787 270.726167 
L 76.16344 271.422253 
L 76.408093 271.614673 
L 76.652746 270.231729 
L 76.897399 271.624052 
L 77.142052 271.458109 
L 77.631358 268.650009 
L 78.120664 263.002229 
L 78.365317 264.769944 
L 78.60997 264.25033 
L 78.854623 263.387183 
L 79.099276 263.024916 
L 79.343929 263.751132 
L 79.588582 263.605132 
L 80.077888 262.231963 
L 80.322541 262.594789 
L 80.811847 260.3111 
L 81.0565 260.296939 
L 81.301153 262.409954 
L 81.545806 259.066749 
L 81.790459 260.998761 
L 82.279765 262.603077 
L 82.524418 264.536648 
L 83.013724 260.160007 
L 83.258377 260.838896 
L 83.747683 257.663809 
L 83.992336 257.625165 
L 84.236989 258.315737 
L 84.481643 258.487631 
L 84.726296 257.602898 
L 84.970949 258.12783 
L 85.460255 256.737225 
L 85.704908 256.379759 
L 85.949561 261.302553 
L 86.194214 261.498264 
L 86.438867 256.599653 
L 86.928173 254.413672 
L 87.172826 254.953409 
L 87.906785 258.78558 
L 88.151438 258.795864 
L 88.396091 260.214172 
L 88.640744 258.83883 
L 88.885397 258.847698 
L 89.13005 259.3663 
L 89.374703 259.020902 
L 89.864009 255.813603 
L 90.108662 256.140383 
L 90.353315 256.132196 
L 90.597968 256.833763 
L 90.842621 254.890277 
L 91.331927 258.760881 
L 91.57658 258.621406 
L 92.065886 261.269362 
L 92.310539 260.071367 
L 92.555192 260.765417 
L 92.799845 261.987929 
L 93.044498 262.353395 
L 93.289151 261.821425 
L 93.533804 261.801069 
L 93.778457 259.685884 
L 94.02311 259.490461 
L 94.512416 258.594944 
L 94.757069 258.758686 
L 95.001722 258.228529 
L 95.246375 258.758182 
L 95.491028 257.884953 
L 95.735681 257.541966 
L 95.980334 256.13359 
L 96.46964 259.837223 
L 96.714293 260.385507 
L 96.958946 259.859948 
L 97.203599 259.681948 
L 97.448252 259.687639 
L 97.692905 261.626561 
L 98.182211 263.752695 
L 98.426864 263.580555 
L 98.671517 264.284534 
L 98.91617 259.028609 
L 99.160823 258.284012 
L 99.405476 258.608669 
L 99.650129 260.205642 
L 99.894782 260.898388 
L 100.139435 262.296891 
L 100.384088 261.60298 
L 100.628741 262.322238 
L 100.873394 260.408642 
L 101.118047 261.121091 
L 101.3627 261.295193 
L 102.096659 257.382153 
L 102.341312 258.07433 
L 102.585965 257.365318 
L 102.830618 254.892604 
L 103.075271 247.798867 
L 103.564577 241.048249 
L 103.80923 240.898431 
L 104.053883 242.12268 
L 104.298536 236.945883 
L 104.543189 236.461756 
L 104.787842 234.868656 
L 105.032495 231.000752 
L 105.521801 227.318068 
L 105.766454 237.093387 
L 106.011107 232.75242 
L 106.25576 232.278539 
L 106.745066 234.747868 
L 107.234373 233.167369 
L 107.479026 233.15247 
L 107.723679 234.370698 
L 107.968332 233.307682 
L 108.457638 234.690677 
L 108.702291 233.817953 
L 108.946944 235.568329 
L 109.191597 235.049007 
L 109.43625 235.578032 
L 109.680903 232.943564 
L 110.170209 235.726973 
L 110.414862 234.848859 
L 110.659515 235.00213 
L 110.904168 233.057801 
L 111.148821 232.337183 
L 111.393474 232.668395 
L 111.638127 236.164379 
L 111.88278 233.883733 
L 112.127433 232.990335 
L 112.372086 231.218082 
L 112.616739 231.390167 
L 112.861392 232.435513 
L 113.106045 232.428081 
L 113.350698 232.067692 
L 113.595351 234.344194 
L 113.840004 232.778047 
L 114.084657 232.60731 
L 114.32931 233.834775 
L 114.573963 232.969462 
L 114.818616 234.195402 
L 115.063269 225.935136 
L 115.307922 228.197448 
L 115.552575 226.768763 
L 115.797228 226.235348 
L 116.041881 227.092161 
L 116.286534 222.501097 
L 116.531187 233.247259 
L 116.77584 235.525329 
L 117.020493 239.781284 
L 117.265146 240.367156 
L 117.509799 239.210771 
L 117.754452 237.13429 
L 117.999105 238.340446 
L 118.243758 237.110663 
L 118.488411 237.942459 
L 118.733064 237.205163 
L 118.977717 237.351023 
L 119.22237 236.986336 
L 119.467023 238.738789 
L 119.711676 239.284996 
L 119.956329 238.957191 
L 120.200982 240.019178 
L 120.445635 240.041703 
L 120.690288 239.355195 
L 120.934941 237.070807 
L 121.179594 239.332805 
L 121.424247 239.857741 
L 121.6689 240.908609 
L 121.913553 240.374559 
L 122.158206 240.721554 
L 122.647512 240.028428 
L 122.892165 241.253181 
L 123.136818 244.587496 
L 123.381471 244.092679 
L 123.626124 244.799352 
L 123.870777 246.730876 
L 124.11543 246.769982 
L 124.360083 246.086406 
L 124.604736 244.329247 
L 125.338695 236.169545 
L 125.828001 238.241442 
L 126.072654 236.828078 
L 126.317307 237.00554 
L 126.56196 236.489451 
L 126.806613 235.106414 
L 127.051266 234.770474 
L 127.295919 236.891709 
L 127.540572 237.599162 
L 127.785225 237.429332 
L 128.029878 235.493638 
L 128.519184 236.36618 
L 128.763837 237.245349 
L 129.253143 235.653787 
L 129.497797 235.648842 
L 129.74245 235.47685 
L 129.987103 236.357354 
L 130.231756 238.817598 
L 130.476409 240.062758 
L 130.721062 237.632506 
L 130.965715 236.925277 
L 131.210368 234.466448 
L 131.699674 232.325556 
L 131.944327 232.302742 
L 132.18898 242.113019 
L 132.678286 248.313625 
L 132.922939 249.070709 
L 133.412245 245.665415 
L 133.656898 245.993224 
L 133.901551 245.801852 
L 134.146204 246.288372 
L 134.390857 245.546314 
L 134.63551 246.034521 
L 135.124816 245.676424 
L 135.369469 245.857835 
L 135.614122 246.574156 
L 135.858775 246.768673 
L 136.348081 243.796039 
L 136.592734 242.028049 
L 137.326693 243.231608 
L 137.571346 244.101984 
L 137.815999 244.106755 
L 138.305305 245.539148 
L 138.794611 243.63251 
L 139.283917 240.277449 
L 139.52857 239.910983 
L 140.017876 241.477384 
L 140.262529 240.247317 
L 140.507182 239.900106 
L 140.751835 240.437847 
L 140.996488 238.873661 
L 141.241141 239.585241 
L 141.485794 239.409695 
L 141.730447 239.415292 
L 141.9751 241.168211 
L 142.219753 240.120457 
L 142.709059 240.116004 
L 142.953712 239.417314 
L 143.198365 238.356543 
L 143.687671 237.454955 
L 143.932324 237.797755 
L 144.176977 236.559172 
L 144.42163 236.201265 
L 145.400242 230.722531 
L 145.644895 230.712837 
L 145.889548 232.292141 
L 146.134201 230.875481 
L 146.378854 231.582344 
L 146.86816 225.598781 
L 147.112813 227.184492 
L 147.357466 230.691404 
L 147.602119 230.857303 
L 147.846772 239.614627 
L 148.091425 240.538999 
L 148.336078 243.219141 
L 148.580731 244.318158 
L 148.825384 242.116032 
L 149.070037 243.144235 
L 149.31469 243.14512 
L 149.559343 244.003039 
L 149.803996 245.722474 
L 150.048649 245.023678 
L 150.293302 246.050534 
L 151.271914 239.18428 
L 151.516567 239.342975 
L 151.76122 239.156996 
L 152.005874 239.319733 
L 152.250527 239.135407 
L 152.49518 238.785606 
L 152.739833 239.318627 
L 152.984486 239.326631 
L 153.229139 238.981301 
L 153.473792 239.33161 
L 153.963098 238.97881 
L 154.207751 238.974094 
L 154.452404 239.675068 
L 154.697057 239.151949 
L 154.94171 238.978322 
L 155.186363 238.628687 
L 155.431016 234.765719 
L 155.675669 237.222023 
L 155.920322 236.518777 
L 156.164975 235.474431 
L 156.409628 236.344121 
L 156.654281 236.527811 
L 156.898934 237.420192 
L 157.632893 233.03581 
L 157.877546 233.207242 
L 158.122199 233.020199 
L 158.611505 232.995149 
L 158.856158 235.451969 
L 159.100811 235.986918 
L 159.345464 233.720504 
L 159.590117 232.662513 
L 159.83477 232.836115 
L 160.079423 233.889385 
L 160.324076 233.706979 
L 160.568729 235.977087 
L 160.813382 234.051779 
L 161.058035 234.225576 
L 161.302688 236.504231 
L 161.547341 240.025478 
L 162.036647 237.613582 
L 162.2813 238.128192 
L 162.525953 239.36425 
L 162.770606 231.831209 
L 163.015259 228.596948 
L 163.259912 229.443549 
L 163.504565 228.895355 
L 163.749218 232.922132 
L 163.993871 234.485245 
L 164.72783 230.338591 
L 164.972483 231.760632 
L 165.217136 232.287022 
L 165.461789 233.684046 
L 165.951095 235.074177 
L 166.195748 236.129451 
L 166.685054 233.334699 
L 166.929707 234.202245 
L 167.17436 234.554957 
L 167.663666 232.256971 
L 167.908319 232.950657 
L 168.152972 232.076141 
L 168.397625 233.657326 
L 168.642278 233.486411 
L 168.886931 233.143708 
L 169.131584 233.848038 
L 169.376237 233.331165 
L 170.110196 234.914029 
L 170.354849 233.159504 
L 170.599502 232.4447 
L 170.844155 232.784522 
L 171.088808 232.604471 
L 171.578114 228.710007 
L 171.822767 228.698652 
L 172.06742 228.869618 
L 172.312073 226.04628 
L 172.556726 225.513052 
L 173.046032 227.449991 
L 173.290685 232.021759 
L 173.779991 234.878079 
L 174.024644 234.560817 
L 175.003257 229.981142 
L 175.24791 227.840347 
L 175.492563 229.564863 
L 175.737216 229.198287 
L 175.981869 229.899829 
L 176.226522 229.730575 
L 176.715828 227.301627 
L 176.960481 222.554046 
L 177.205134 224.491137 
L 177.449787 222.179944 
L 177.69444 223.754019 
L 177.939093 236.712375 
L 178.183746 237.622518 
L 178.428399 237.347552 
L 178.917705 238.645937 
L 179.162358 238.156357 
L 179.407011 238.665581 
L 179.651664 237.596328 
L 179.896317 237.030637 
L 180.385623 234.334448 
L 180.630276 233.787572 
L 180.874929 232.37581 
L 181.119582 231.668082 
L 181.364235 232.022946 
L 181.853541 231.340506 
L 182.098194 232.404225 
L 182.342847 231.887658 
L 182.5875 232.421912 
L 182.832153 231.54465 
L 183.321459 229.068634 
L 183.566112 228.878143 
L 183.810765 229.56627 
L 184.055418 229.377753 
L 184.300071 230.601032 
L 184.544724 230.42871 
L 185.03403 231.331429 
L 185.278683 230.821777 
L 185.523336 231.005879 
L 185.767989 230.485854 
L 186.012642 231.189353 
L 186.257295 231.190862 
L 186.501948 231.542751 
L 186.746601 232.420378 
L 187.235907 232.433793 
L 187.48056 234.539376 
L 187.725213 235.431757 
L 187.969866 237.195048 
L 188.214519 237.038468 
L 188.459172 235.997477 
L 189.193131 239.325144 
L 189.437784 239.151725 
L 189.682437 240.369762 
L 189.92709 240.902889 
L 190.171743 241.787634 
L 190.416396 244.241992 
L 190.661049 245.319627 
L 190.905702 244.643687 
L 191.150355 244.46345 
L 191.395008 245.162365 
L 191.639661 246.570186 
L 191.884314 246.581266 
L 192.37362 256.399128 
L 192.618273 256.143887 
L 192.862926 258.234987 
L 193.107579 258.456631 
L 193.352232 257.97158 
L 193.596885 256.565908 
L 193.841538 257.40356 
L 194.086191 255.645896 
L 194.330844 257.880466 
L 194.575497 257.002107 
L 194.82015 257.171395 
L 195.064803 257.511886 
L 195.554109 255.609069 
L 195.798762 255.963167 
L 196.288068 253.87221 
L 197.022028 255.818395 
L 197.266681 255.474362 
L 198.00064 256.746518 
L 198.489946 258.52969 
L 198.734599 257.494805 
L 199.223905 258.200182 
L 199.957864 254.679545 
L 200.202517 254.674032 
L 200.44717 254.498091 
L 200.691823 255.377947 
L 200.936476 257.490649 
L 201.181129 257.336975 
L 201.425782 256.299302 
L 202.159741 259.145825 
L 202.404394 258.975991 
L 202.649047 260.900867 
L 202.8937 260.733405 
L 203.138353 260.214774 
L 203.383006 261.075824 
L 203.627659 260.556968 
L 203.872312 259.67691 
L 204.116965 259.655838 
L 204.361618 259.297897 
L 204.606271 257.711085 
L 204.850924 257.517441 
L 205.095577 257.862169 
L 205.34023 257.869907 
L 205.584883 257.695547 
L 205.829536 258.224407 
L 206.074189 257.530843 
L 206.318842 257.186772 
L 206.808148 258.25058 
L 207.052801 259.135541 
L 207.542107 258.259029 
L 207.78676 258.253932 
L 208.031413 257.730542 
L 208.276066 258.255055 
L 208.765372 262.479641 
L 209.010025 265.130876 
L 209.254678 261.491603 
L 209.499331 261.116532 
L 209.743984 261.455188 
L 210.23329 257.054585 
L 210.477943 258.24514 
L 210.722596 258.592491 
L 210.967249 259.293567 
L 211.701208 254.352909 
L 211.945861 246.225406 
L 212.190514 251.190716 
L 212.435167 250.973462 
L 212.67982 251.003123 
L 212.924473 250.434298 
L 213.413779 249.04787 
L 213.903085 250.309026 
L 214.147738 250.667454 
L 214.637044 250.666636 
L 214.881697 249.787989 
L 215.12635 249.960819 
L 215.371003 250.30787 
L 215.615656 249.780997 
L 215.860309 248.013664 
L 216.838921 253.116842 
L 217.083574 252.954152 
L 217.328227 253.139194 
L 217.817533 255.965264 
L 218.062186 256.153162 
L 218.551492 255.78098 
L 219.040798 256.290649 
L 219.530105 254.504011 
L 219.774758 255.362548 
L 220.019411 258.170915 
L 220.264064 257.843551 
L 220.508717 256.617725 
L 220.998023 257.315572 
L 221.242676 257.155344 
L 221.487329 257.149704 
L 221.731982 256.965683 
L 221.976635 256.960666 
L 222.465941 256.603463 
L 222.710594 255.898073 
L 222.955247 255.542963 
L 223.1999 257.474843 
L 223.444553 256.963056 
L 223.689206 253.981117 
L 223.933859 259.057643 
L 224.178512 260.665922 
L 224.423165 263.17117 
L 224.667818 264.408356 
L 224.912471 263.570873 
L 225.157124 264.100767 
L 225.401777 263.414128 
L 226.135736 264.796368 
L 226.380389 263.906271 
L 226.625042 263.885958 
L 226.869695 264.406233 
L 227.114348 264.243072 
L 227.359001 263.718801 
L 227.603654 263.889801 
L 227.848307 263.71992 
L 228.337613 262.844352 
L 228.582266 263.546 
L 228.826919 263.728394 
L 229.071572 263.206297 
L 229.316225 264.431368 
L 229.560878 263.737712 
L 229.805531 264.448851 
L 230.050184 264.448737 
L 230.294837 265.514418 
L 230.53949 264.468529 
L 230.784143 264.644131 
L 231.028796 264.463784 
L 231.273449 265.000067 
L 231.518102 264.124013 
L 231.762755 264.472216 
L 232.007408 263.590356 
L 232.252061 263.593716 
L 232.741367 264.303678 
L 232.98602 263.7815 
L 233.230673 263.78097 
L 233.475326 263.958487 
L 233.719979 263.791911 
L 233.964632 263.266068 
L 234.209285 261.148489 
L 234.943244 258.474389 
L 235.187897 258.638576 
L 235.43255 258.456194 
L 235.677203 259.162325 
L 236.166509 263.410937 
L 236.411162 262.389971 
L 236.655815 262.048874 
L 236.900468 260.114778 
L 237.145121 261.171197 
L 237.389774 267.83268 
L 237.634427 269.286467 
L 238.123733 270.167532 
L 238.368386 270.188945 
L 238.613039 268.634598 
L 239.346998 273.176803 
L 239.591651 272.995763 
L 239.836304 272.978788 
L 240.080957 273.147104 
L 240.32561 273.683078 
L 240.814916 276.160992 
L 241.304222 270.163644 
L 241.548875 270.645214 
L 241.793529 270.652027 
L 242.038182 265.895384 
L 242.282835 267.08146 
L 242.527488 266.529024 
L 242.772141 267.444947 
L 243.016794 267.793108 
L 243.261447 270.633968 
L 243.5061 271.193527 
L 243.750753 271.236921 
L 243.995406 273.182847 
L 244.240059 272.344104 
L 244.484712 273.063788 
L 244.974018 273.064703 
L 245.218671 274.80663 
L 245.463324 273.412419 
L 245.707977 273.926459 
L 245.95263 275.492467 
L 246.686589 272.161859 
L 246.931242 272.864509 
L 247.175895 274.63112 
L 247.420548 273.594506 
L 247.909854 272.684719 
L 248.154507 271.637876 
L 248.39916 272.163596 
L 248.643813 272.339119 
L 248.888466 269.346068 
L 249.133119 272.669776 
L 249.622425 271.469126 
L 249.867078 271.4408 
L 250.111731 271.802986 
L 250.84569 274.835611 
L 251.090343 274.49388 
L 251.334996 274.668012 
L 251.579649 275.551863 
L 251.824302 275.392551 
L 252.068955 274.512972 
L 252.313608 274.140633 
L 252.558261 272.546835 
L 252.802914 273.061343 
L 253.29222 271.996918 
L 253.536873 270.747563 
L 253.781526 270.213019 
L 254.026179 271.8003 
L 254.515485 270.413983 
L 254.760138 270.048877 
L 255.004791 270.587519 
L 255.249444 269.363013 
L 255.494097 269.185094 
L 255.73875 267.762328 
L 255.983403 267.055066 
L 256.228056 265.807206 
L 256.472709 266.863062 
L 256.717362 266.858845 
L 256.962015 266.337477 
L 257.206668 267.21196 
L 257.451321 267.398015 
L 257.940627 264.595178 
L 258.18528 265.998804 
L 258.429933 266.00563 
L 258.919239 267.584947 
L 259.163892 269.17242 
L 259.408545 268.307768 
L 259.653198 269.539242 
L 259.897851 269.718227 
L 260.142504 269.733757 
L 260.387157 269.898983 
L 260.63181 267.433277 
L 260.876463 267.051561 
L 261.121116 265.618507 
L 261.365769 265.608656 
L 261.610422 263.471017 
L 261.855075 262.748433 
L 262.099728 263.613161 
L 262.344381 263.093242 
L 262.589034 263.452005 
L 263.07834 265.409033 
L 263.812299 262.607293 
L 264.056952 263.309615 
L 264.301606 261.545599 
L 264.546259 263.113717 
L 264.790912 263.448479 
L 265.035565 263.107907 
L 265.280218 259.92721 
L 265.524871 259.561516 
L 265.769524 261.497269 
L 266.014177 260.109401 
L 266.25883 255.869213 
L 266.748136 253.17833 
L 266.992789 251.774267 
L 267.237442 251.761381 
L 267.482095 252.104699 
L 267.971401 255.815556 
L 268.216054 256.18948 
L 268.70536 264.663237 
L 268.950013 267.009311 
L 269.194666 263.567513 
L 269.439319 262.648959 
L 269.683972 265.065385 
L 269.928625 265.797177 
L 270.173278 268.928708 
L 270.417931 270.319589 
L 270.662584 272.94518 
L 270.907237 267.918663 
L 271.15189 269.075496 
L 271.396543 267.321646 
L 271.641196 268.211743 
L 271.885849 267.134506 
L 272.130502 267.989904 
L 272.375155 265.862007 
L 272.619808 266.901078 
L 272.864461 269.53203 
L 273.109114 268.167061 
L 273.353767 267.811108 
L 273.59842 269.728225 
L 274.332379 272.241276 
L 274.577032 271.902433 
L 274.821685 272.432306 
L 275.066338 272.434435 
L 275.310991 271.212908 
L 275.555644 271.020451 
L 275.800297 271.012186 
L 276.04495 269.258407 
L 276.289603 269.947562 
L 276.534256 269.066052 
L 276.778909 268.902895 
L 277.023562 268.195514 
L 277.268215 268.382899 
L 277.512868 266.982536 
L 277.757521 266.28521 
L 278.246827 261.338243 
L 278.49148 262.922886 
L 278.736133 261.153646 
L 278.980786 264.167915 
L 279.225439 264.855402 
L 279.470092 264.887932 
L 279.959398 256.772941 
L 280.204051 260.835498 
L 280.93801 253.014961 
L 281.182663 255.317099 
L 281.427316 255.494006 
L 281.671969 257.450581 
L 281.916622 255.50398 
L 282.161275 255.698595 
L 282.405928 254.292469 
L 282.650581 254.312956 
L 282.895234 254.483057 
L 283.139887 254.831714 
L 283.38454 254.818947 
L 283.629193 256.039205 
L 283.873846 255.333574 
L 284.118499 258.142991 
L 284.363152 256.396988 
L 284.607805 256.048489 
L 284.852458 255.148065 
L 285.097111 255.322557 
L 285.341764 256.717522 
L 285.586417 257.066895 
L 285.83107 256.006353 
L 286.075723 258.445076 
L 286.320376 257.054759 
L 286.56503 258.462932 
L 286.809683 234.255389 
L 287.054336 243.808683 
L 287.298989 239.973538 
L 287.543642 238.809132 
L 287.788295 240.836601 
L 288.032948 241.871867 
L 288.277601 238.526513 
L 288.522254 241.052567 
L 288.766907 241.066448 
L 289.01156 240.050593 
L 289.256213 239.703275 
L 289.500866 240.229042 
L 289.745519 240.397699 
L 289.990172 240.209381 
L 290.234825 241.248423 
L 290.479478 239.833805 
L 290.724131 237.71562 
L 290.968784 237.70009 
L 291.213437 236.814557 
L 291.45809 238.043361 
L 291.702743 236.275646 
L 292.192049 230.44515 
L 292.436702 230.799455 
L 292.681355 227.783881 
L 292.926008 223.352342 
L 293.170661 223.883451 
L 293.90462 231.062463 
L 294.149273 225.626281 
L 294.393926 224.938866 
L 294.638579 225.820704 
L 294.883232 224.75329 
L 295.127885 228.24483 
L 295.372538 226.812568 
L 295.617191 226.977644 
L 295.861844 226.441526 
L 296.106497 220.63842 
L 296.35115 211.611824 
L 296.595803 214.45956 
L 296.840456 208.198327 
L 297.085109 215.826025 
L 297.329762 212.378807 
L 297.574415 218.22254 
L 297.819068 221.034852 
L 298.063721 214.051484 
L 298.553027 213.752501 
L 298.79768 214.962373 
L 299.042333 216.85988 
L 299.286986 215.428788 
L 299.531639 215.762059 
L 299.776292 214.351178 
L 300.020945 215.923796 
L 300.265598 213.63984 
L 300.510251 214.508882 
L 300.754904 213.101934 
L 300.999557 213.622467 
L 301.24421 207.110844 
L 301.488863 208.868318 
L 301.733516 208.856081 
L 301.978169 212.174366 
L 302.712128 181.161032 
L 302.956781 183.521488 
L 303.201434 183.883471 
L 303.446087 183.094742 
L 303.69074 187.024062 
L 303.935393 193.694049 
L 304.180046 192.93688 
L 304.669352 187.61707 
L 304.914005 186.383274 
L 305.403311 189.614077 
L 305.647964 187.983951 
L 305.892617 185.337521 
L 306.13727 181.476286 
L 306.626576 186.215172 
L 306.871229 179.856211 
L 307.115882 169.660836 
L 307.360535 170.495124 
L 307.605188 168.857684 
L 307.849841 173.030156 
L 308.094494 172.272708 
L 308.339147 168.734447 
L 309.31776 174.35163 
L 309.562413 171.536861 
L 309.807066 174.527723 
L 310.541025 199.608867 
L 310.785678 199.101053 
L 311.030331 202.659076 
L 311.274984 197.617444 
L 311.519637 197.901029 
L 311.76429 197.396749 
L 312.008943 195.436853 
L 312.253596 195.215971 
L 312.987555 188.531061 
L 313.232208 192.576058 
L 313.476861 188.72301 
L 313.721514 187.834646 
L 313.966167 186.467638 
L 314.21082 182.220887 
L 314.700126 181.139396 
L 314.944779 184.429521 
L 315.189432 181.202939 
L 315.434085 184.888665 
L 315.678738 183.299115 
L 315.923391 189.234628 
L 316.168044 187.138841 
L 316.412697 189.404247 
L 316.65735 184.894021 
L 316.902003 186.28241 
L 317.391309 184.509843 
L 317.635962 181.178235 
L 317.880615 188.910815 
L 318.369921 171.665988 
L 318.859227 178.618101 
L 319.10388 176.934374 
L 319.348533 176.447696 
L 319.593186 178.959288 
L 319.837839 184.732512 
L 320.082492 185.766952 
L 320.327145 188.240129 
L 320.571798 181.309362 
L 320.816451 180.598193 
L 321.061104 181.65654 
L 321.305757 192.76738 
L 321.55041 186.132283 
L 321.795063 184.170352 
L 322.039716 181.098235 
L 322.529022 154.732635 
L 323.018328 146.316437 
L 323.262981 150.74357 
L 323.507634 148.648944 
L 323.752287 149.19669 
L 323.99694 148.204521 
L 324.241593 146.425403 
L 324.486246 146.808149 
L 324.730899 155.946482 
L 325.220205 150.625129 
L 325.464858 137.137054 
L 325.709511 135.275665 
L 325.954164 121.365217 
L 326.198817 121.426844 
L 326.44347 115.365883 
L 326.688123 117.827542 
L 326.932776 117.647915 
L 327.177429 112.040393 
L 327.422082 115.819492 
L 327.666735 110.583818 
L 327.911388 100.589571 
L 328.156041 101.653078 
L 328.400694 99.214199 
L 328.645347 99.38947 
L 328.89 90.661764 
L 329.134653 100.088469 
L 329.379306 99.126012 
L 329.623959 103.286857 
L 329.868612 101.779926 
L 330.113265 101.712333 
L 330.357918 105.120483 
L 330.602571 103.569569 
L 330.847224 100.545757 
L 331.091877 101.551384 
L 331.33653 105.75172 
L 331.581184 113.367206 
L 331.825837 116.43995 
L 332.07049 129.770144 
L 332.315143 128.80206 
L 332.559796 130.76155 
L 332.804449 131.380719 
L 333.049102 128.593873 
L 333.293755 119.359575 
L 333.538408 121.042404 
L 334.027714 115.313628 
L 334.272367 116.509865 
L 334.51702 120.74498 
L 334.761673 90.730883 
L 335.006326 87.343682 
L 335.250979 88.541782 
L 335.495632 62.913987 
L 335.740285 69.903948 
L 335.984938 65.114799 
L 336.229591 67.074221 
L 336.474244 64.384714 
L 336.718897 65.840612 
L 336.96355 69.849423 
L 337.208203 68.737983 
L 337.452856 74.483657 
L 337.697509 71.437049 
L 337.942162 55.803992 
L 338.186815 51.312995 
L 338.431468 50.74669 
L 338.676121 53.929756 
L 338.920774 34.414125 
L 339.165427 48.390963 
L 339.41008 39.28063 
L 339.899386 73.162996 
L 340.144039 72.003879 
L 340.388692 72.191184 
L 340.877998 67.498712 
L 341.367304 50.875436 
L 341.611957 54.418806 
L 341.85661 56.345381 
L 342.101263 62.079818 
L 342.345916 64.938324 
L 342.590569 48.706234 
L 342.835222 59.667192 
L 343.079875 54.589942 
L 343.324528 59.666752 
L 343.569181 61.547699 
L 343.813834 61.261191 
L 344.058487 61.557615 
L 344.30314 61.205293 
L 345.037099 45.07327 
L 345.281752 53.639213 
L 345.526405 52.962587 
L 345.771058 68.864644 
L 346.015711 64.237325 
L 346.260364 71.505133 
L 346.505017 71.77976 
L 346.994323 85.452276 
L 347.238976 76.812757 
L 347.483629 74.199809 
L 347.728282 76.495011 
L 347.972935 71.493642 
L 348.217588 73.538691 
L 348.462241 71.385574 
L 348.706894 64.972358 
L 348.951547 66.73073 
L 349.1962 63.022936 
L 349.440853 68.703762 
L 349.685506 62.994461 
L 349.930159 121.109726 
L 350.174812 118.973389 
L 350.419465 123.563741 
L 350.664118 123.353962 
L 350.908771 125.825909 
L 351.153424 123.441572 
L 351.398077 112.775545 
L 351.887383 104.66272 
L 352.132036 101.780655 
L 352.376689 78.208891 
L 352.621342 106.45038 
L 352.865995 104.773229 
L 353.110648 101.753655 
L 353.355301 109.082802 
L 353.599954 111.566834 
L 353.844607 111.385292 
L 354.089261 109.91231 
L 354.333914 109.579802 
L 354.82322 106.103872 
L 355.067873 110.657394 
L 355.312526 111.03658 
L 355.557179 104.954924 
L 355.801832 91.119713 
L 356.046485 85.178412 
L 356.291138 76.00852 
L 356.535791 87.139936 
L 357.759056 101.367214 
L 358.248362 80.314195 
L 358.493015 56.678872 
L 358.737668 50.056572 
L 358.982321 54.100332 
L 359.226974 55.125772 
L 359.471627 67.195526 
L 359.71628 69.931067 
L 359.960933 80.846449 
L 360.205586 82.855515 
L 360.450239 88.453783 
L 360.694892 70.158405 
L 360.939545 73.417573 
L 361.918157 50.99008 
L 362.16281 64.685935 
L 362.407463 57.421414 
L 362.652116 59.47382 
L 362.896769 65.625256 
L 363.141422 63.916477 
L 363.386075 59.498328 
L 363.630728 58.366736 
L 363.875381 53.366332 
L 364.120034 54.276789 
L 364.364687 42.670221 
L 364.60934 54.351399 
L 364.853993 57.164041 
L 365.098646 62.619817 
L 365.343299 61.007208 
L 365.587952 67.020374 
L 366.077258 71.162286 
L 366.321911 65.751798 
L 366.811217 76.47213 
L 367.05587 88.697257 
L 367.300523 86.701902 
L 367.545176 77.447621 
L 367.789829 73.342437 
L 368.279135 85.227598 
L 368.523788 84.540243 
L 368.768441 90.425256 
L 369.013094 88.382325 
L 369.257747 82.909498 
L 369.5024 82.848566 
L 369.747053 84.10887 
L 369.991706 87.518851 
L 370.236359 88.889647 
L 370.725665 74.093843 
L 370.970318 70.960506 
L 371.214971 75.667113 
L 371.459624 76.507537 
L 371.704277 80.459178 
L 371.94893 87.193885 
L 372.193583 81.682889 
L 372.438236 86.201225 
L 372.682889 87.671936 
L 372.927542 86.700055 
L 373.172195 82.188872 
L 373.416848 72.360167 
L 373.661501 71.872336 
L 373.906154 60.814581 
L 374.150807 66.827323 
L 374.39546 68.779033 
L 374.640113 80.677144 
L 374.884766 83.364786 
L 375.129419 78.099366 
L 375.374072 78.457417 
L 375.618725 78.314179 
L 375.863378 78.832603 
L 376.108031 66.219425 
L 376.352684 68.471068 
L 376.597338 68.024542 
L 376.841991 69.658084 
L 377.820603 52.782417 
L 378.065256 52.552706 
L 378.309909 51.852452 
L 379.043868 57.076228 
L 379.288521 59.476514 
L 379.533174 54.193332 
L 379.777827 51.628927 
L 380.02248 85.810242 
L 380.511786 92.849491 
L 380.756439 110.210174 
L 381.001092 108.553786 
L 381.245745 111.64297 
L 381.490398 111.184055 
L 381.490398 111.184055 
" style="fill:none;stroke:#1f77b4;stroke-linecap:square;stroke-width:1.5;"/>
   </g>
   <g id="line2d_30">
    <path clip-path="url(#p6414002843)" d="M 56.835852 208.976493 
L 57.080505 203.289305 
L 57.325158 202.933856 
L 57.569811 197.957566 
L 58.30377 205.244276 
L 58.548423 216.440927 
L 58.793076 218.218173 
L 59.037729 218.395898 
L 59.282382 218.040449 
L 59.527035 219.284521 
L 59.771688 218.573623 
L 60.016341 218.218173 
L 60.260994 218.751347 
L 60.505647 230.125723 
L 60.994953 232.969317 
L 61.239606 232.969317 
L 61.484259 233.147042 
L 61.728912 234.568839 
L 61.973566 232.436143 
L 62.218219 233.85794 
L 62.462872 233.680216 
L 62.707525 226.92668 
L 63.196831 227.993028 
L 63.441484 229.414825 
L 63.686137 231.902969 
L 63.93079 230.658897 
L 64.175443 231.014346 
L 64.420096 232.258419 
L 64.664749 232.436143 
L 64.909402 242.744171 
L 65.154055 240.078302 
L 65.398708 243.810519 
L 65.643361 243.45507 
L 65.888014 238.47878 
L 66.132667 235.990636 
L 66.37732 235.457462 
L 66.621973 235.812911 
L 66.866626 233.85794 
L 67.111279 240.7892 
L 67.355932 240.078302 
L 67.600585 241.322374 
L 67.845238 241.14465 
L 68.334544 246.831838 
L 68.579197 246.120939 
L 68.82385 244.165968 
L 69.068503 245.232316 
L 69.313156 246.831838 
L 69.557809 247.009562 
L 69.802462 249.675432 
L 70.047115 247.898185 
L 70.291768 247.898185 
L 70.536421 248.431359 
L 71.025727 266.381546 
L 71.27038 267.803343 
L 71.515033 267.092445 
L 71.759686 268.158792 
L 72.004339 267.447894 
L 72.248992 268.336517 
L 72.493645 268.691966 
L 72.738298 267.092445 
L 72.982951 267.803343 
L 73.227604 267.625618 
L 73.472257 268.336517 
L 73.71691 269.402865 
L 73.961563 269.936039 
L 74.206216 269.047415 
L 74.450869 269.758314 
L 74.695522 267.981068 
L 74.940175 270.824662 
L 75.184828 271.891009 
L 75.429481 272.068734 
L 75.674134 271.002386 
L 75.918787 271.713285 
L 76.16344 271.891009 
L 76.408093 270.469212 
L 76.652746 271.891009 
L 76.897399 271.713285 
L 77.386705 268.869691 
L 77.876011 263.182503 
L 78.120664 264.959749 
L 78.365317 264.426575 
L 78.60997 263.537952 
L 78.854623 263.182503 
L 79.099276 263.893401 
L 79.343929 263.715677 
L 79.833235 262.29388 
L 80.077888 262.649329 
L 80.567194 260.338909 
L 80.811847 260.338909 
L 81.0565 262.471604 
L 81.301153 259.094837 
L 81.545806 261.049807 
L 82.035112 262.649329 
L 82.279765 264.6043 
L 82.769071 260.161184 
L 83.013724 260.872083 
L 83.50303 257.67304 
L 83.747683 257.67304 
L 83.992336 258.383938 
L 84.236989 258.561663 
L 84.481643 257.67304 
L 84.726296 258.206213 
L 85.215602 256.784416 
L 85.460255 256.428967 
L 85.704908 261.405257 
L 85.949561 261.582981 
L 86.194214 256.606692 
L 86.68352 254.473996 
L 86.928173 255.00717 
L 87.662132 258.917112 
L 87.906785 258.917112 
L 88.151438 260.338909 
L 88.396091 258.917112 
L 88.640744 258.917112 
L 88.885397 259.450286 
L 89.13005 259.094837 
L 89.619356 255.895793 
L 89.864009 256.251243 
L 90.108662 256.251243 
L 90.353315 256.962141 
L 90.597968 255.00717 
L 91.087274 258.917112 
L 91.331927 258.739387 
L 91.821233 261.405257 
L 92.065886 260.161184 
L 92.310539 260.872083 
L 92.555192 262.116155 
L 92.799845 262.471604 
L 93.044498 261.938431 
L 93.289151 261.938431 
L 93.533804 259.805735 
L 93.778457 259.62801 
L 94.267763 258.739387 
L 94.512416 258.917112 
L 94.757069 258.383938 
L 95.001722 258.917112 
L 95.246375 258.028489 
L 95.491028 257.67304 
L 95.735681 256.251243 
L 96.224987 259.98346 
L 96.46964 260.516634 
L 96.714293 259.98346 
L 96.958946 259.805735 
L 97.203599 259.805735 
L 97.448252 261.760706 
L 97.937558 263.893401 
L 98.182211 263.715677 
L 98.426864 264.426575 
L 98.671517 259.094837 
L 98.91617 258.383938 
L 99.160823 258.739387 
L 99.405476 260.338909 
L 99.650129 261.049807 
L 99.894782 262.471604 
L 100.139435 261.760706 
L 100.384088 262.471604 
L 100.628741 260.516634 
L 100.873394 261.227532 
L 101.118047 261.405257 
L 101.852006 257.495315 
L 102.096659 258.206213 
L 102.341312 257.495315 
L 102.585965 255.00717 
L 102.830618 247.898185 
L 103.319924 241.14465 
L 103.564577 240.966925 
L 103.80923 242.210997 
L 104.053883 237.056983 
L 104.298536 236.52381 
L 104.543189 234.924288 
L 104.787842 231.014346 
L 105.277148 227.282129 
L 105.521801 237.056983 
L 105.766454 232.791592 
L 106.011107 232.258419 
L 106.500413 234.746563 
L 106.98972 233.147042 
L 107.234373 233.147042 
L 107.479026 234.391114 
L 107.723679 233.324766 
L 108.212985 234.746563 
L 108.457638 233.85794 
L 108.702291 235.635186 
L 108.946944 235.102013 
L 109.191597 235.635186 
L 109.43625 232.969317 
L 109.925556 235.812911 
L 110.170209 234.924288 
L 110.414862 235.102013 
L 110.659515 233.147042 
L 110.904168 232.436143 
L 111.148821 232.791592 
L 111.393474 236.346085 
L 111.638127 234.035665 
L 111.88278 233.147042 
L 112.127433 231.369795 
L 112.372086 231.54752 
L 112.616739 232.613868 
L 112.861392 232.613868 
L 113.106045 232.258419 
L 113.350698 234.568839 
L 113.595351 232.969317 
L 113.840004 232.791592 
L 114.084657 234.035665 
L 114.32931 233.147042 
L 114.573963 234.391114 
L 114.818616 226.038057 
L 115.063269 228.348477 
L 115.307922 226.92668 
L 115.552575 226.393506 
L 115.797228 227.282129 
L 116.041881 222.661289 
L 116.286534 233.502491 
L 116.531187 235.812911 
L 116.77584 240.078302 
L 117.020493 240.611476 
L 117.265146 239.367403 
L 117.509799 237.234708 
L 117.754452 238.47878 
L 117.999105 237.234708 
L 118.243758 238.123331 
L 118.488411 237.412433 
L 118.733064 237.590157 
L 118.977717 237.234708 
L 119.22237 239.011954 
L 119.467023 239.545128 
L 119.711676 239.189679 
L 119.956329 240.256027 
L 120.200982 240.256027 
L 120.445635 239.545128 
L 120.690288 237.234708 
L 120.934941 239.545128 
L 121.179594 240.078302 
L 121.424247 241.14465 
L 121.6689 240.611476 
L 121.913553 240.966925 
L 122.402859 240.256027 
L 122.647512 241.500099 
L 122.892165 244.876867 
L 123.136818 244.343693 
L 123.381471 245.054591 
L 123.626124 247.009562 
L 123.870777 247.009562 
L 124.11543 246.298664 
L 124.360083 244.521418 
L 125.094042 236.346085 
L 125.583348 238.47878 
L 125.828001 237.056983 
L 126.072654 237.234708 
L 126.317307 236.701534 
L 126.56196 235.279737 
L 126.806613 234.924288 
L 127.051266 237.056983 
L 127.295919 237.767882 
L 127.540572 237.590157 
L 127.785225 235.635186 
L 128.274531 236.52381 
L 128.519184 237.412433 
L 129.00849 235.812911 
L 129.253143 235.812911 
L 129.497797 235.635186 
L 129.74245 236.52381 
L 129.987103 239.011954 
L 130.231756 240.256027 
L 130.476409 237.767882 
L 130.721062 237.056983 
L 130.965715 234.568839 
L 131.455021 232.436143 
L 131.699674 232.436143 
L 131.944327 242.388722 
L 132.433633 248.609084 
L 132.678286 249.319982 
L 133.167592 245.76549 
L 133.412245 246.120939 
L 133.656898 245.943215 
L 133.901551 246.476388 
L 134.146204 245.76549 
L 134.390857 246.298664 
L 134.880163 245.943215 
L 135.124816 246.120939 
L 135.369469 246.831838 
L 135.614122 247.009562 
L 136.103428 243.988244 
L 136.348081 242.210997 
L 137.08204 243.45507 
L 137.326693 244.343693 
L 137.571346 244.343693 
L 138.060652 245.76549 
L 138.549958 243.810519 
L 139.039264 240.433751 
L 139.283917 240.078302 
L 139.773223 241.677824 
L 140.017876 240.433751 
L 140.262529 240.078302 
L 140.507182 240.611476 
L 140.751835 239.011954 
L 140.996488 239.722853 
L 141.241141 239.545128 
L 141.485794 239.545128 
L 141.730447 241.322374 
L 141.9751 240.256027 
L 142.464406 240.256027 
L 142.709059 239.545128 
L 142.953712 238.47878 
L 143.443018 237.590157 
L 143.687671 237.945606 
L 143.932324 236.701534 
L 144.176977 236.346085 
L 145.155589 230.836622 
L 145.400242 230.836622 
L 145.644895 232.436143 
L 145.889548 231.014346 
L 146.134201 231.725245 
L 146.623507 225.682608 
L 146.86816 227.282129 
L 147.112813 230.836622 
L 147.357466 231.014346 
L 147.602119 239.900577 
L 147.846772 240.7892 
L 148.091425 243.45507 
L 148.336078 244.521418 
L 148.580731 242.210997 
L 148.825384 243.277345 
L 149.070037 243.277345 
L 149.31469 244.165968 
L 149.559343 245.943215 
L 149.803996 245.232316 
L 150.048649 246.298664 
L 151.027261 239.367403 
L 151.271914 239.545128 
L 151.516567 239.367403 
L 151.76122 239.545128 
L 152.005874 239.367403 
L 152.250527 239.011954 
L 152.49518 239.545128 
L 152.739833 239.545128 
L 152.984486 239.189679 
L 153.229139 239.545128 
L 153.718445 239.189679 
L 153.963098 239.189679 
L 154.207751 239.900577 
L 154.452404 239.367403 
L 154.697057 239.189679 
L 154.94171 238.83423 
L 155.186363 234.924288 
L 155.431016 237.412433 
L 155.675669 236.701534 
L 155.920322 235.635186 
L 156.164975 236.52381 
L 156.409628 236.701534 
L 156.654281 237.590157 
L 157.38824 233.147042 
L 157.632893 233.324766 
L 157.877546 233.147042 
L 158.366852 233.147042 
L 158.611505 235.635186 
L 158.856158 236.16836 
L 159.100811 233.85794 
L 159.345464 232.791592 
L 159.590117 232.969317 
L 159.83477 234.035665 
L 160.079423 233.85794 
L 160.324076 236.16836 
L 160.568729 234.213389 
L 160.813382 234.391114 
L 161.058035 236.701534 
L 161.302688 240.256027 
L 161.791994 237.767882 
L 162.036647 238.301056 
L 162.2813 239.545128 
L 162.525953 231.902969 
L 162.770606 228.703926 
L 163.015259 229.592549 
L 163.259912 229.059375 
L 163.504565 233.147042 
L 163.749218 234.746563 
L 164.483177 230.481172 
L 164.72783 231.902969 
L 164.972483 232.436143 
L 165.217136 233.85794 
L 165.706442 235.279737 
L 165.951095 236.346085 
L 166.440401 233.502491 
L 166.685054 234.391114 
L 166.929707 234.746563 
L 167.419013 232.436143 
L 167.663666 233.147042 
L 167.908319 232.258419 
L 168.152972 233.85794 
L 168.397625 233.680216 
L 168.642278 233.324766 
L 168.886931 234.035665 
L 169.131584 233.502491 
L 169.865543 235.102013 
L 170.110196 233.324766 
L 170.354849 232.613868 
L 170.599502 232.969317 
L 170.844155 232.791592 
L 171.333461 228.881651 
L 171.578114 228.881651 
L 171.822767 229.059375 
L 172.06742 226.215781 
L 172.312073 225.682608 
L 172.801379 227.637578 
L 173.046032 232.258419 
L 173.535338 235.102013 
L 173.779991 234.746563 
L 175.003257 227.993028 
L 175.24791 229.770274 
L 175.492563 229.414825 
L 175.737216 230.125723 
L 175.981869 229.947998 
L 176.471175 227.459854 
L 176.715828 222.661289 
L 176.960481 224.61626 
L 177.205134 222.30584 
L 177.449787 223.905361 
L 177.69444 237.056983 
L 177.939093 237.945606 
L 178.183746 237.590157 
L 178.673052 238.83423 
L 178.917705 238.301056 
L 179.162358 238.83423 
L 179.407011 237.767882 
L 179.651664 237.234708 
L 180.14097 234.568839 
L 180.385623 234.035665 
L 180.630276 232.613868 
L 180.874929 231.902969 
L 181.119582 232.258419 
L 181.608888 231.54752 
L 181.853541 232.613868 
L 182.098194 232.080694 
L 182.342847 232.613868 
L 182.5875 231.725245 
L 183.076806 229.2371 
L 183.321459 229.059375 
L 183.566112 229.770274 
L 183.810765 229.592549 
L 184.055418 230.836622 
L 184.300071 230.658897 
L 184.789377 231.54752 
L 185.03403 231.014346 
L 185.278683 231.192071 
L 185.523336 230.658897 
L 185.767989 231.369795 
L 186.012642 231.369795 
L 186.257295 231.725245 
L 186.501948 232.613868 
L 186.991254 232.613868 
L 187.235907 234.746563 
L 187.48056 235.635186 
L 187.725213 237.412433 
L 187.969866 237.234708 
L 188.214519 236.16836 
L 188.948478 239.545128 
L 189.193131 239.367403 
L 189.437784 240.611476 
L 189.682437 241.14465 
L 189.92709 242.033273 
L 190.171743 244.521418 
L 190.416396 245.587765 
L 190.661049 244.876867 
L 190.905702 244.699142 
L 191.150355 245.410041 
L 191.395008 246.831838 
L 191.639661 246.831838 
L 192.128967 256.784416 
L 192.37362 256.428967 
L 192.618273 258.561663 
L 192.862926 258.739387 
L 193.107579 258.206213 
L 193.352232 256.784416 
L 193.596885 257.67304 
L 193.841538 255.895793 
L 194.086191 258.206213 
L 194.330844 257.31759 
L 194.575497 257.495315 
L 194.82015 257.850764 
L 195.309456 255.895793 
L 195.554109 256.251243 
L 196.043415 254.118547 
L 196.777375 256.073518 
L 197.022028 255.718069 
L 197.755987 256.962141 
L 198.245293 258.739387 
L 198.489946 257.67304 
L 198.979252 258.383938 
L 199.713211 254.829446 
L 199.957864 254.829446 
L 200.202517 254.651721 
L 200.44717 255.540344 
L 200.691823 257.67304 
L 200.936476 257.495315 
L 201.181129 256.428967 
L 201.915088 259.272561 
L 202.159741 259.094837 
L 202.404394 261.049807 
L 202.649047 260.872083 
L 202.8937 260.338909 
L 203.138353 261.227532 
L 203.383006 260.694358 
L 203.627659 259.805735 
L 203.872312 259.805735 
L 204.116965 259.450286 
L 204.361618 257.850764 
L 204.606271 257.67304 
L 204.850924 258.028489 
L 205.095577 258.028489 
L 205.34023 257.850764 
L 205.584883 258.383938 
L 205.829536 257.67304 
L 206.074189 257.31759 
L 206.563495 258.383938 
L 206.808148 259.272561 
L 207.297454 258.383938 
L 207.542107 258.383938 
L 207.78676 257.850764 
L 208.031413 258.383938 
L 208.520719 262.649329 
L 208.765372 265.315198 
L 209.010025 261.582981 
L 209.254678 261.227532 
L 209.499331 261.582981 
L 209.988637 257.139866 
L 210.23329 258.383938 
L 210.477943 258.739387 
L 210.722596 259.450286 
L 211.456555 254.473996 
L 211.701208 246.298664 
L 211.945861 251.274953 
L 212.190514 251.097229 
L 212.435167 251.097229 
L 212.67982 250.564055 
L 213.169126 249.142258 
L 213.658432 250.38633 
L 213.903085 250.741779 
L 214.392391 250.741779 
L 214.637044 249.853156 
L 214.881697 250.030881 
L 215.12635 250.38633 
L 215.371003 249.853156 
L 215.615656 248.07591 
L 216.594268 253.229924 
L 216.838921 253.052199 
L 217.083574 253.229924 
L 217.57288 256.073518 
L 217.817533 256.251243 
L 218.306839 255.895793 
L 218.796145 256.428967 
L 219.285452 254.651721 
L 219.530105 255.540344 
L 219.774758 258.383938 
L 220.019411 258.028489 
L 220.264064 256.784416 
L 220.75337 257.495315 
L 220.998023 257.31759 
L 221.242676 257.31759 
L 221.487329 257.139866 
L 221.731982 257.139866 
L 222.221288 256.784416 
L 222.465941 256.073518 
L 222.710594 255.718069 
L 222.955247 257.67304 
L 223.1999 257.139866 
L 223.444553 254.118547 
L 223.689206 259.272561 
L 223.933859 260.872083 
L 224.178512 263.360228 
L 224.423165 264.6043 
L 224.667818 263.715677 
L 224.912471 264.248851 
L 225.157124 263.537952 
L 225.891083 264.959749 
L 226.135736 264.071126 
L 226.380389 264.071126 
L 226.625042 264.6043 
L 226.869695 264.426575 
L 227.114348 263.893401 
L 227.359001 264.071126 
L 227.603654 263.893401 
L 228.09296 263.004778 
L 228.337613 263.715677 
L 228.582266 263.893401 
L 228.826919 263.360228 
L 229.071572 264.6043 
L 229.316225 263.893401 
L 229.560878 264.6043 
L 229.805531 264.6043 
L 230.050184 265.670648 
L 230.294837 264.6043 
L 230.53949 264.782025 
L 230.784143 264.6043 
L 231.028796 265.137474 
L 231.273449 264.248851 
L 231.518102 264.6043 
L 231.762755 263.715677 
L 232.007408 263.715677 
L 232.496714 264.426575 
L 232.741367 263.893401 
L 232.98602 263.893401 
L 233.230673 264.071126 
L 233.475326 263.893401 
L 233.719979 263.360228 
L 233.964632 261.227532 
L 234.698591 258.561663 
L 234.943244 258.739387 
L 235.187897 258.561663 
L 235.43255 259.272561 
L 235.921856 263.537952 
L 236.166509 262.471604 
L 236.411162 262.116155 
L 236.655815 260.161184 
L 236.900468 261.227532 
L 237.145121 267.981068 
L 237.389774 269.402865 
L 237.87908 270.291488 
L 238.123733 270.291488 
L 238.368386 268.691966 
L 239.102345 273.312806 
L 239.346998 273.135082 
L 239.591651 273.135082 
L 239.836304 273.312806 
L 240.080957 273.84598 
L 240.570263 276.334125 
L 241.059569 270.291488 
L 241.304222 270.824662 
L 241.548875 270.824662 
L 241.793529 266.026097 
L 242.038182 267.270169 
L 242.282835 266.736995 
L 242.527488 267.625618 
L 242.772141 267.981068 
L 243.016794 270.824662 
L 243.261447 271.357836 
L 243.5061 271.357836 
L 243.750753 273.312806 
L 243.995406 272.424183 
L 244.240059 273.135082 
L 244.729365 273.135082 
L 244.974018 274.912328 
L 245.218671 273.490531 
L 245.463324 274.023705 
L 245.707977 275.623227 
L 246.441936 272.246459 
L 246.686589 272.957357 
L 246.931242 274.734603 
L 247.175895 273.668256 
L 247.665201 272.779633 
L 247.909854 271.713285 
L 248.154507 272.246459 
L 248.39916 272.424183 
L 248.643813 269.402865 
L 248.888466 272.779633 
L 249.377772 271.53556 
L 249.622425 271.53556 
L 249.867078 271.891009 
L 250.601037 274.912328 
L 250.84569 274.556879 
L 251.090343 274.734603 
L 251.334996 275.623227 
L 251.579649 275.445502 
L 251.824302 274.556879 
L 252.068955 274.20143 
L 252.313608 272.601908 
L 252.558261 273.135082 
L 253.047567 272.068734 
L 253.29222 270.824662 
L 253.536873 270.291488 
L 253.781526 271.891009 
L 254.270832 270.469212 
L 254.515485 270.113763 
L 254.760138 270.646937 
L 255.004791 269.402865 
L 255.249444 269.22514 
L 255.494097 267.803343 
L 255.73875 267.092445 
L 255.983403 265.848372 
L 256.228056 266.91472 
L 256.472709 266.91472 
L 256.717362 266.381546 
L 256.962015 267.270169 
L 257.206668 267.447894 
L 257.695974 264.6043 
L 257.940627 266.026097 
L 258.18528 266.026097 
L 258.674586 267.625618 
L 258.919239 269.22514 
L 259.163892 268.336517 
L 259.408545 269.580589 
L 259.653198 269.758314 
L 259.897851 269.758314 
L 260.142504 269.936039 
L 260.387157 267.447894 
L 260.63181 267.092445 
L 260.876463 265.670648 
L 261.121116 265.670648 
L 261.365769 263.537952 
L 261.610422 262.827054 
L 261.855075 263.715677 
L 262.099728 263.182503 
L 262.344381 263.537952 
L 262.833687 265.492923 
L 263.567646 262.649329 
L 263.812299 263.360228 
L 264.056952 261.582981 
L 264.301606 263.182503 
L 264.546259 263.537952 
L 264.790912 263.182503 
L 265.035565 259.98346 
L 265.280218 259.62801 
L 265.524871 261.582981 
L 265.769524 260.161184 
L 266.014177 255.895793 
L 266.25883 254.829446 
L 266.748136 251.808127 
L 266.992789 251.808127 
L 267.237442 252.163576 
L 267.726748 255.895793 
L 267.971401 256.251243 
L 268.460707 264.782025 
L 268.70536 267.092445 
L 268.950013 263.537952 
L 269.194666 262.649329 
L 269.439319 265.137474 
L 269.683972 265.848372 
L 269.928625 269.047415 
L 270.173278 270.469212 
L 270.417931 273.135082 
L 270.662584 267.981068 
L 270.907237 269.22514 
L 271.15189 267.447894 
L 271.396543 268.336517 
L 271.641196 267.270169 
L 271.885849 268.158792 
L 272.130502 266.026097 
L 272.375155 267.092445 
L 272.619808 269.758314 
L 272.864461 268.336517 
L 273.109114 267.981068 
L 273.353767 269.936039 
L 274.087726 272.424183 
L 274.332379 272.068734 
L 274.577032 272.601908 
L 274.821685 272.601908 
L 275.066338 271.357836 
L 275.310991 271.180111 
L 275.555644 271.180111 
L 275.800297 269.402865 
L 276.04495 270.113763 
L 276.289603 269.22514 
L 276.534256 269.047415 
L 276.778909 268.336517 
L 277.023562 268.514242 
L 277.268215 267.092445 
L 277.512868 266.381546 
L 278.002174 261.405257 
L 278.246827 263.004778 
L 278.49148 261.227532 
L 278.736133 264.248851 
L 278.980786 264.959749 
L 279.225439 264.959749 
L 279.714745 256.784416 
L 279.959398 260.872083 
L 280.693357 253.052199 
L 280.93801 255.36262 
L 281.182663 255.540344 
L 281.427316 257.495315 
L 281.671969 255.540344 
L 281.916622 255.718069 
L 282.161275 254.296272 
L 282.405928 254.296272 
L 282.650581 254.473996 
L 282.895234 254.829446 
L 283.139887 254.829446 
L 283.38454 256.073518 
L 283.629193 255.36262 
L 283.873846 258.206213 
L 284.118499 256.428967 
L 284.363152 256.073518 
L 284.607805 255.184895 
L 284.852458 255.36262 
L 285.097111 256.784416 
L 285.341764 257.139866 
L 285.586417 256.073518 
L 285.83107 258.561663 
L 286.075723 257.139866 
L 286.320376 258.561663 
L 286.56503 234.213389 
L 286.809683 243.810519 
L 287.054336 240.078302 
L 287.298989 238.83423 
L 287.543642 240.966925 
L 287.788295 242.033273 
L 288.032948 238.656505 
L 288.277601 241.14465 
L 288.522254 241.14465 
L 288.766907 240.078302 
L 289.01156 239.722853 
L 289.256213 240.256027 
L 289.500866 240.433751 
L 289.745519 240.256027 
L 289.990172 241.322374 
L 290.234825 239.900577 
L 290.479478 237.767882 
L 290.724131 237.767882 
L 290.968784 236.879259 
L 291.213437 238.123331 
L 291.45809 236.346085 
L 291.947396 230.481172 
L 292.192049 230.836622 
L 292.436702 227.815303 
L 292.681355 223.372187 
L 292.926008 223.905361 
L 293.659967 231.192071 
L 293.90462 225.682608 
L 294.149273 224.971709 
L 294.393926 225.860332 
L 294.638579 224.793984 
L 294.883232 228.348477 
L 295.127885 226.92668 
L 295.372538 227.104405 
L 295.617191 226.571231 
L 295.861844 220.706318 
L 296.106497 211.642362 
L 296.35115 214.485956 
L 296.595803 208.265594 
L 296.840456 215.907753 
L 297.085109 212.530985 
L 297.329762 218.395898 
L 297.574415 221.239492 
L 297.819068 214.130507 
L 298.308374 213.775058 
L 298.553027 215.01913 
L 298.79768 216.974101 
L 299.042333 215.552304 
L 299.286986 215.907753 
L 299.531639 214.485956 
L 299.776292 216.085478 
L 300.020945 213.775058 
L 300.265598 214.663681 
L 300.510251 213.241884 
L 300.754904 213.775058 
L 300.999557 207.199247 
L 301.24421 208.976493 
L 301.488863 208.976493 
L 301.733516 212.353261 
L 302.467475 181.073727 
L 302.712128 183.384147 
L 302.956781 183.917321 
L 303.201434 183.206423 
L 303.446087 187.116364 
L 303.69074 193.8699 
L 303.935393 193.159002 
L 304.424699 187.649538 
L 304.669352 186.405466 
L 305.158658 189.782234 
L 305.403311 188.182712 
L 305.647964 185.516843 
L 305.892617 181.606901 
L 306.381923 186.405466 
L 306.626576 180.007379 
L 306.871229 169.699351 
L 307.115882 170.41025 
L 307.360535 168.810728 
L 307.605188 173.076119 
L 307.849841 172.365221 
L 308.094494 168.810728 
L 309.073107 174.497916 
L 309.31776 171.654322 
L 309.562413 174.675641 
L 310.296372 200.267986 
L 310.541025 199.557088 
L 310.785678 203.11158 
L 311.030331 197.779842 
L 311.274984 198.135291 
L 311.519637 197.602117 
L 311.76429 195.647146 
L 312.008943 195.469422 
L 312.742902 188.715886 
L 312.987555 192.803552 
L 313.232208 188.893611 
L 313.476861 188.004987 
L 313.721514 186.583191 
L 313.966167 182.3178 
L 314.21082 181.606901 
L 314.455473 181.251452 
L 314.700126 184.62822 
L 314.944779 181.429176 
L 315.189432 185.161394 
L 315.434085 183.561872 
L 315.678738 189.604509 
L 315.923391 187.471814 
L 316.168044 189.782234 
L 316.412697 185.161394 
L 316.65735 186.583191 
L 317.146656 184.805944 
L 317.391309 181.429176 
L 317.635962 189.24906 
L 318.125268 171.832047 
L 318.614574 178.763307 
L 318.859227 177.163786 
L 319.10388 176.630612 
L 319.348533 179.118756 
L 319.593186 184.983669 
L 319.837839 186.050017 
L 320.082492 188.538161 
L 320.327145 181.429176 
L 320.571798 180.718278 
L 320.816451 181.784626 
L 321.061104 193.159002 
L 321.305757 186.405466 
L 321.55041 184.450495 
L 321.795063 181.251452 
L 322.284369 154.770483 
L 322.773675 146.239701 
L 323.018328 150.682817 
L 323.262981 148.727846 
L 323.507634 149.26102 
L 323.752287 148.194672 
L 323.99694 146.417426 
L 324.241593 146.772875 
L 324.486246 156.014555 
L 324.975552 150.860541 
L 325.220205 137.175745 
L 325.464858 135.220775 
L 325.709511 121.358254 
L 325.954164 121.358254 
L 326.198817 115.315617 
L 326.44347 117.803762 
L 326.688123 117.626037 
L 326.932776 112.116574 
L 327.177429 115.671066 
L 327.422082 110.517052 
L 327.666735 100.564473 
L 327.911388 101.275372 
L 328.156041 98.964952 
L 328.400694 99.320401 
L 328.645347 90.611894 
L 328.89 99.853575 
L 329.134653 99.142676 
L 329.379306 103.585792 
L 329.623959 101.98627 
L 329.868612 101.98627 
L 330.113265 105.363038 
L 330.357918 103.941241 
L 330.602571 100.919922 
L 330.847224 101.808545 
L 331.091877 106.073936 
L 331.33653 113.89382 
L 331.581184 117.092863 
L 331.825837 130.599934 
L 332.07049 129.533587 
L 332.315143 131.488557 
L 332.559796 131.844007 
L 332.804449 129.000413 
L 333.049102 119.581008 
L 333.293755 121.180529 
L 333.783061 115.493341 
L 334.027714 116.559689 
L 334.272367 120.82508 
L 334.51702 90.789619 
L 334.761673 86.879677 
L 335.006326 87.590576 
L 335.250979 62.886853 
L 335.495632 68.92949 
L 335.740285 64.130925 
L 335.984938 66.61907 
L 336.229591 63.775476 
L 336.474244 65.374998 
L 336.718897 69.462664 
L 336.96355 68.751766 
L 337.208203 74.616678 
L 337.452856 71.773084 
L 337.697509 56.311042 
L 337.942162 51.334753 
L 338.186815 50.623854 
L 338.431468 54.178347 
L 338.676121 34.984087 
L 338.920774 48.135709 
L 339.165427 39.249478 
L 339.654733 73.55033 
L 340.144039 73.194881 
L 340.633345 68.218592 
L 341.122651 51.334753 
L 341.611957 56.666491 
L 341.85661 62.531404 
L 342.101263 65.374998 
L 342.345916 49.202057 
L 342.590569 59.510085 
L 342.835222 54.533796 
L 343.079875 60.043259 
L 343.324528 61.642781 
L 343.569181 61.642781 
L 343.813834 61.820505 
L 344.058487 61.465056 
L 344.30314 55.422419 
L 344.547793 46.536188 
L 344.792446 44.936666 
L 345.037099 53.467448 
L 345.281752 53.289723 
L 345.526405 69.28494 
L 345.771058 64.841824 
L 346.015711 72.306258 
L 346.260364 72.306258 
L 346.74967 86.346503 
L 346.994323 77.815721 
L 347.238976 74.972127 
L 347.483629 76.927098 
L 347.728282 72.128533 
L 347.972935 74.083504 
L 348.217588 71.773084 
L 348.462241 65.374998 
L 348.706894 66.796795 
L 348.951547 63.064578 
L 349.1962 68.751766 
L 349.440853 63.064578 
L 349.685506 121.713703 
L 349.930159 120.469631 
L 350.174812 125.623645 
L 350.419465 124.024123 
L 350.664118 126.689993 
L 350.908771 124.201848 
L 351.153424 113.360646 
L 351.64273 105.007589 
L 351.887383 102.163995 
L 352.132036 78.52662 
L 352.376689 106.073936 
L 352.621342 104.829864 
L 352.865995 102.341719 
L 353.110648 108.91753 
L 353.355301 111.5834 
L 353.599954 111.5834 
L 353.844607 109.983878 
L 354.089261 109.628429 
L 354.578567 106.251661 
L 354.82322 110.872501 
L 355.067873 111.405675 
L 355.312526 105.363038 
L 355.557179 91.322793 
L 355.801832 85.102431 
L 356.046485 75.860751 
L 356.291138 86.879677 
L 357.26975 100.742198 
L 357.514403 101.808545 
L 358.003709 80.481591 
L 358.248362 56.666491 
L 358.493015 49.557506 
L 358.737668 53.289723 
L 358.982321 54.889245 
L 359.226974 66.974519 
L 359.471627 69.995838 
L 359.71628 81.192489 
L 359.960933 83.325185 
L 360.205586 89.190097 
L 360.450239 70.706736 
L 360.694892 73.728055 
L 361.673504 51.157028 
L 361.918157 64.664099 
L 362.16281 57.732839 
L 362.407463 59.865535 
L 362.652116 65.552722 
L 362.896769 64.30865 
L 363.141422 59.865535 
L 363.386075 58.443738 
L 363.630728 53.467448 
L 363.875381 54.356071 
L 364.120034 42.803971 
L 364.364687 54.178347 
L 364.60934 57.199665 
L 364.853993 63.242302 
L 365.098646 61.465056 
L 365.343299 67.507693 
L 365.832605 71.950809 
L 366.077258 66.441346 
L 366.566564 77.104823 
L 366.811217 89.723271 
L 367.05587 87.7683 
L 367.300523 78.348895 
L 367.545176 73.728055 
L 368.034482 85.813329 
L 368.279135 85.280156 
L 368.523788 90.967343 
L 368.768441 88.834648 
L 369.013094 83.325185 
L 369.257747 82.969735 
L 369.5024 84.213808 
L 369.747053 87.7683 
L 369.991706 89.190097 
L 370.481012 74.083504 
L 370.725665 70.706736 
L 370.970318 75.505301 
L 371.214971 76.571649 
L 371.459624 80.659315 
L 371.704277 87.412851 
L 371.94893 82.081112 
L 372.193583 86.524228 
L 372.438236 87.946025 
L 372.682889 87.235126 
L 372.927542 82.614286 
L 373.172195 72.661707 
L 373.416848 71.950809 
L 373.661501 60.931882 
L 373.906154 66.796795 
L 374.150807 68.751766 
L 374.39546 81.014765 
L 374.640113 83.858359 
L 374.884766 78.704345 
L 375.129419 78.704345 
L 375.374072 78.52662 
L 375.618725 79.237518 
L 375.863378 66.61907 
L 376.108031 68.574041 
L 376.352684 68.040867 
L 376.597338 69.995838 
L 377.57595 52.75655 
L 377.820603 52.4011 
L 378.065256 51.690202 
L 378.799215 57.199665 
L 379.043868 59.68781 
L 379.288521 54.533796 
L 379.533174 51.867926 
L 379.777827 85.991054 
L 380.02248 91.678242 
L 380.267133 94.699561 
L 380.511786 111.5834 
L 380.756439 109.983878 
L 381.001092 113.182921 
L 381.245745 112.294298 
L 381.490398 107.495733 
L 381.490398 107.495733 
" style="fill:none;stroke:#ff7f0e;stroke-linecap:square;stroke-width:1.5;"/>
   </g>
   <g id="patch_3">
    <path d="M 40.603125 288.430125 
L 40.603125 22.318125 
" style="fill:none;stroke:#000000;stroke-linecap:square;stroke-linejoin:miter;stroke-width:0.8;"/>
   </g>
   <g id="patch_4">
    <path d="M 397.723125 288.430125 
L 397.723125 22.318125 
" style="fill:none;stroke:#000000;stroke-linecap:square;stroke-linejoin:miter;stroke-width:0.8;"/>
   </g>
   <g id="patch_5">
    <path d="M 40.603125 288.430125 
L 397.723125 288.430125 
" style="fill:none;stroke:#000000;stroke-linecap:square;stroke-linejoin:miter;stroke-width:0.8;"/>
   </g>
   <g id="patch_6">
    <path d="M 40.603125 22.318125 
L 397.723125 22.318125 
" style="fill:none;stroke:#000000;stroke-linecap:square;stroke-linejoin:miter;stroke-width:0.8;"/>
   </g>
   <g id="text_17">
    <!-- Training: AMD -->
    <defs>
     <path d="M -0.296875 72.90625 
L 61.375 72.90625 
L 61.375 64.59375 
L 35.5 64.59375 
L 35.5 0 
L 25.59375 0 
L 25.59375 64.59375 
L -0.296875 64.59375 
z
" id="DejaVuSans-84"/>
     <path d="M 54.890625 33.015625 
L 54.890625 0 
L 45.90625 0 
L 45.90625 32.71875 
Q 45.90625 40.484375 42.875 44.328125 
Q 39.84375 48.1875 33.796875 48.1875 
Q 26.515625 48.1875 22.3125 43.546875 
Q 18.109375 38.921875 18.109375 30.90625 
L 18.109375 0 
L 9.078125 0 
L 9.078125 54.6875 
L 18.109375 54.6875 
L 18.109375 46.1875 
Q 21.34375 51.125 25.703125 53.5625 
Q 30.078125 56 35.796875 56 
Q 45.21875 56 50.046875 50.171875 
Q 54.890625 44.34375 54.890625 33.015625 
z
" id="DejaVuSans-110"/>
     <path d="M 45.40625 27.984375 
Q 45.40625 37.75 41.375 43.109375 
Q 37.359375 48.484375 30.078125 48.484375 
Q 22.859375 48.484375 18.828125 43.109375 
Q 14.796875 37.75 14.796875 27.984375 
Q 14.796875 18.265625 18.828125 12.890625 
Q 22.859375 7.515625 30.078125 7.515625 
Q 37.359375 7.515625 41.375 12.890625 
Q 45.40625 18.265625 45.40625 27.984375 
z
M 54.390625 6.78125 
Q 54.390625 -7.171875 48.1875 -13.984375 
Q 42 -20.796875 29.203125 -20.796875 
Q 24.46875 -20.796875 20.265625 -20.09375 
Q 16.0625 -19.390625 12.109375 -17.921875 
L 12.109375 -9.1875 
Q 16.0625 -11.328125 19.921875 -12.34375 
Q 23.78125 -13.375 27.78125 -13.375 
Q 36.625 -13.375 41.015625 -8.765625 
Q 45.40625 -4.15625 45.40625 5.171875 
L 45.40625 9.625 
Q 42.625 4.78125 38.28125 2.390625 
Q 33.9375 0 27.875 0 
Q 17.828125 0 11.671875 7.65625 
Q 5.515625 15.328125 5.515625 27.984375 
Q 5.515625 40.671875 11.671875 48.328125 
Q 17.828125 56 27.875 56 
Q 33.9375 56 38.28125 53.609375 
Q 42.625 51.21875 45.40625 46.390625 
L 45.40625 54.6875 
L 54.390625 54.6875 
z
" id="DejaVuSans-103"/>
     <path d="M 11.71875 12.40625 
L 22.015625 12.40625 
L 22.015625 0 
L 11.71875 0 
z
M 11.71875 51.703125 
L 22.015625 51.703125 
L 22.015625 39.3125 
L 11.71875 39.3125 
z
" id="DejaVuSans-58"/>
     <path d="M 34.1875 63.1875 
L 20.796875 26.90625 
L 47.609375 26.90625 
z
M 28.609375 72.90625 
L 39.796875 72.90625 
L 67.578125 0 
L 57.328125 0 
L 50.6875 18.703125 
L 17.828125 18.703125 
L 11.1875 0 
L 0.78125 0 
z
" id="DejaVuSans-65"/>
     <path d="M 9.8125 72.90625 
L 24.515625 72.90625 
L 43.109375 23.296875 
L 61.8125 72.90625 
L 76.515625 72.90625 
L 76.515625 0 
L 66.890625 0 
L 66.890625 64.015625 
L 48.09375 14.015625 
L 38.1875 14.015625 
L 19.390625 64.015625 
L 19.390625 0 
L 9.8125 0 
z
" id="DejaVuSans-77"/>
    </defs>
    <g transform="translate(177.662813 16.318125)scale(0.12 -0.12)">
     <use xlink:href="#DejaVuSans-84"/>
     <use x="46.333984" xlink:href="#DejaVuSans-114"/>
     <use x="87.447266" xlink:href="#DejaVuSans-97"/>
     <use x="148.726562" xlink:href="#DejaVuSans-105"/>
     <use x="176.509766" xlink:href="#DejaVuSans-110"/>
     <use x="239.888672" xlink:href="#DejaVuSans-105"/>
     <use x="267.671875" xlink:href="#DejaVuSans-110"/>
     <use x="331.050781" xlink:href="#DejaVuSans-103"/>
     <use x="394.527344" xlink:href="#DejaVuSans-58"/>
     <use x="428.21875" xlink:href="#DejaVuSans-32"/>
     <use x="460.005859" xlink:href="#DejaVuSans-65"/>
     <use x="528.414062" xlink:href="#DejaVuSans-77"/>
     <use x="614.693359" xlink:href="#DejaVuSans-68"/>
    </g>
   </g>
   <g id="legend_1">
    <g id="patch_7">
     <path d="M 47.603125 59.674375 
L 131.33125 59.674375 
Q 133.33125 59.674375 133.33125 57.674375 
L 133.33125 29.318125 
Q 133.33125 27.318125 131.33125 27.318125 
L 47.603125 27.318125 
Q 45.603125 27.318125 45.603125 29.318125 
L 45.603125 57.674375 
Q 45.603125 59.674375 47.603125 59.674375 
z
" style="fill:#ffffff;opacity:0.8;stroke:#cccccc;stroke-linejoin:miter;"/>
    </g>
    <g id="line2d_31">
     <path d="M 49.603125 35.416562 
L 69.603125 35.416562 
" style="fill:none;stroke:#1f77b4;stroke-linecap:square;stroke-width:1.5;"/>
    </g>
    <g id="line2d_32"/>
    <g id="text_18">
     <!-- Predicted -->
     <defs>
      <path d="M 45.40625 46.390625 
L 45.40625 75.984375 
L 54.390625 75.984375 
L 54.390625 0 
L 45.40625 0 
L 45.40625 8.203125 
Q 42.578125 3.328125 38.25 0.953125 
Q 33.9375 -1.421875 27.875 -1.421875 
Q 17.96875 -1.421875 11.734375 6.484375 
Q 5.515625 14.40625 5.515625 27.296875 
Q 5.515625 40.1875 11.734375 48.09375 
Q 17.96875 56 27.875 56 
Q 33.9375 56 38.25 53.625 
Q 42.578125 51.265625 45.40625 46.390625 
z
M 14.796875 27.296875 
Q 14.796875 17.390625 18.875 11.75 
Q 22.953125 6.109375 30.078125 6.109375 
Q 37.203125 6.109375 41.296875 11.75 
Q 45.40625 17.390625 45.40625 27.296875 
Q 45.40625 37.203125 41.296875 42.84375 
Q 37.203125 48.484375 30.078125 48.484375 
Q 22.953125 48.484375 18.875 42.84375 
Q 14.796875 37.203125 14.796875 27.296875 
z
" id="DejaVuSans-100"/>
      <path d="M 18.3125 70.21875 
L 18.3125 54.6875 
L 36.8125 54.6875 
L 36.8125 47.703125 
L 18.3125 47.703125 
L 18.3125 18.015625 
Q 18.3125 11.328125 20.140625 9.421875 
Q 21.96875 7.515625 27.59375 7.515625 
L 36.8125 7.515625 
L 36.8125 0 
L 27.59375 0 
Q 17.1875 0 13.234375 3.875 
Q 9.28125 7.765625 9.28125 18.015625 
L 9.28125 47.703125 
L 2.6875 47.703125 
L 2.6875 54.6875 
L 9.28125 54.6875 
L 9.28125 70.21875 
z
" id="DejaVuSans-116"/>
     </defs>
     <g transform="translate(77.603125 38.916562)scale(0.1 -0.1)">
      <use xlink:href="#DejaVuSans-80"/>
      <use x="58.552734" xlink:href="#DejaVuSans-114"/>
      <use x="97.416016" xlink:href="#DejaVuSans-101"/>
      <use x="158.939453" xlink:href="#DejaVuSans-100"/>
      <use x="222.416016" xlink:href="#DejaVuSans-105"/>
      <use x="250.199219" xlink:href="#DejaVuSans-99"/>
      <use x="305.179688" xlink:href="#DejaVuSans-116"/>
      <use x="344.388672" xlink:href="#DejaVuSans-101"/>
      <use x="405.912109" xlink:href="#DejaVuSans-100"/>
     </g>
    </g>
    <g id="line2d_33">
     <path d="M 49.603125 50.094687 
L 69.603125 50.094687 
" style="fill:none;stroke:#ff7f0e;stroke-linecap:square;stroke-width:1.5;"/>
    </g>
    <g id="line2d_34"/>
    <g id="text_19">
     <!-- True value -->
     <defs>
      <path d="M 8.5 21.578125 
L 8.5 54.6875 
L 17.484375 54.6875 
L 17.484375 21.921875 
Q 17.484375 14.15625 20.5 10.265625 
Q 23.53125 6.390625 29.59375 6.390625 
Q 36.859375 6.390625 41.078125 11.03125 
Q 45.3125 15.671875 45.3125 23.6875 
L 45.3125 54.6875 
L 54.296875 54.6875 
L 54.296875 0 
L 45.3125 0 
L 45.3125 8.40625 
Q 42.046875 3.421875 37.71875 1 
Q 33.40625 -1.421875 27.6875 -1.421875 
Q 18.265625 -1.421875 13.375 4.4375 
Q 8.5 10.296875 8.5 21.578125 
z
M 31.109375 56 
z
" id="DejaVuSans-117"/>
      <path d="M 2.984375 54.6875 
L 12.5 54.6875 
L 29.59375 8.796875 
L 46.6875 54.6875 
L 56.203125 54.6875 
L 35.6875 0 
L 23.484375 0 
z
" id="DejaVuSans-118"/>
      <path d="M 9.421875 75.984375 
L 18.40625 75.984375 
L 18.40625 0 
L 9.421875 0 
z
" id="DejaVuSans-108"/>
     </defs>
     <g transform="translate(77.603125 53.594687)scale(0.1 -0.1)">
      <use xlink:href="#DejaVuSans-84"/>
      <use x="46.333984" xlink:href="#DejaVuSans-114"/>
      <use x="87.447266" xlink:href="#DejaVuSans-117"/>
      <use x="150.826172" xlink:href="#DejaVuSans-101"/>
      <use x="212.349609" xlink:href="#DejaVuSans-32"/>
      <use x="244.136719" xlink:href="#DejaVuSans-118"/>
      <use x="303.316406" xlink:href="#DejaVuSans-97"/>
      <use x="364.595703" xlink:href="#DejaVuSans-108"/>
      <use x="392.378906" xlink:href="#DejaVuSans-117"/>
      <use x="455.757812" xlink:href="#DejaVuSans-101"/>
     </g>
    </g>
   </g>
  </g>
 </g>
 <defs>
  <clipPath id="p6414002843">
   <rect height="266.112" width="357.12" x="40.603125" y="22.318125"/>
  </clipPath>
 </defs>
</svg>
