<?xml version="1.0" encoding="utf-8" standalone="no"?>
<!DOCTYPE svg PUBLIC "-//W3C//DTD SVG 1.1//EN"
  "http://www.w3.org/Graphics/SVG/1.1/DTD/svg11.dtd">
<!-- Created with matplotlib (https://matplotlib.org/) -->
<svg height="325.986375pt" version="1.1" viewBox="0 0 411.285625 325.986375" width="411.285625pt" xmlns="http://www.w3.org/2000/svg" xmlns:xlink="http://www.w3.org/1999/xlink">
 <defs>
  <style type="text/css">
*{stroke-linecap:butt;stroke-linejoin:round;}
  </style>
 </defs>
 <g id="figure_1">
  <g id="patch_1">
   <path d="M 0 325.986375 
L 411.285625 325.986375 
L 411.285625 0 
L 0 0 
z
" style="fill:#ffffff;"/>
  </g>
  <g id="axes_1">
   <g id="patch_2">
    <path d="M 46.965625 288.430125 
L 404.085625 288.430125 
L 404.085625 22.318125 
L 46.965625 22.318125 
z
" style="fill:#ffffff;"/>
   </g>
   <g id="matplotlib.axis_1">
    <g id="xtick_1">
     <g id="line2d_1">
      <path clip-path="url(#pf8c40dc179)" d="M 63.198352 288.430125 
L 63.198352 22.318125 
" style="fill:none;stroke:#b0b0b0;stroke-dasharray:2.96,1.28;stroke-dashoffset:0;stroke-width:0.8;"/>
     </g>
     <g id="line2d_2">
      <defs>
       <path d="M 0 0 
L 0 3.5 
" id="m616933229e" style="stroke:#000000;stroke-width:0.8;"/>
      </defs>
      <g>
       <use style="stroke:#000000;stroke-width:0.8;" x="63.198352" xlink:href="#m616933229e" y="288.430125"/>
      </g>
     </g>
     <g id="text_1">
      <!-- 0 -->
      <defs>
       <path d="M 31.78125 66.40625 
Q 24.171875 66.40625 20.328125 58.90625 
Q 16.5 51.421875 16.5 36.375 
Q 16.5 21.390625 20.328125 13.890625 
Q 24.171875 6.390625 31.78125 6.390625 
Q 39.453125 6.390625 43.28125 13.890625 
Q 47.125 21.390625 47.125 36.375 
Q 47.125 51.421875 43.28125 58.90625 
Q 39.453125 66.40625 31.78125 66.40625 
z
M 31.78125 74.21875 
Q 44.046875 74.21875 50.515625 64.515625 
Q 56.984375 54.828125 56.984375 36.375 
Q 56.984375 17.96875 50.515625 8.265625 
Q 44.046875 -1.421875 31.78125 -1.421875 
Q 19.53125 -1.421875 13.0625 8.265625 
Q 6.59375 17.96875 6.59375 36.375 
Q 6.59375 54.828125 13.0625 64.515625 
Q 19.53125 74.21875 31.78125 74.21875 
z
" id="DejaVuSans-48"/>
      </defs>
      <g transform="translate(60.017102 303.028562)scale(0.1 -0.1)">
       <use xlink:href="#DejaVuSans-48"/>
      </g>
     </g>
    </g>
    <g id="xtick_2">
     <g id="line2d_3">
      <path clip-path="url(#pf8c40dc179)" d="M 112.128954 288.430125 
L 112.128954 22.318125 
" style="fill:none;stroke:#b0b0b0;stroke-dasharray:2.96,1.28;stroke-dashoffset:0;stroke-width:0.8;"/>
     </g>
     <g id="line2d_4">
      <g>
       <use style="stroke:#000000;stroke-width:0.8;" x="112.128954" xlink:href="#m616933229e" y="288.430125"/>
      </g>
     </g>
     <g id="text_2">
      <!-- 200 -->
      <defs>
       <path d="M 19.1875 8.296875 
L 53.609375 8.296875 
L 53.609375 0 
L 7.328125 0 
L 7.328125 8.296875 
Q 12.9375 14.109375 22.625 23.890625 
Q 32.328125 33.6875 34.8125 36.53125 
Q 39.546875 41.84375 41.421875 45.53125 
Q 43.3125 49.21875 43.3125 52.78125 
Q 43.3125 58.59375 39.234375 62.25 
Q 35.15625 65.921875 28.609375 65.921875 
Q 23.96875 65.921875 18.8125 64.3125 
Q 13.671875 62.703125 7.8125 59.421875 
L 7.8125 69.390625 
Q 13.765625 71.78125 18.9375 73 
Q 24.125 74.21875 28.421875 74.21875 
Q 39.75 74.21875 46.484375 68.546875 
Q 53.21875 62.890625 53.21875 53.421875 
Q 53.21875 48.921875 51.53125 44.890625 
Q 49.859375 40.875 45.40625 35.40625 
Q 44.1875 33.984375 37.640625 27.21875 
Q 31.109375 20.453125 19.1875 8.296875 
z
" id="DejaVuSans-50"/>
      </defs>
      <g transform="translate(102.585204 303.028562)scale(0.1 -0.1)">
       <use xlink:href="#DejaVuSans-50"/>
       <use x="63.623047" xlink:href="#DejaVuSans-48"/>
       <use x="127.246094" xlink:href="#DejaVuSans-48"/>
      </g>
     </g>
    </g>
    <g id="xtick_3">
     <g id="line2d_5">
      <path clip-path="url(#pf8c40dc179)" d="M 161.059557 288.430125 
L 161.059557 22.318125 
" style="fill:none;stroke:#b0b0b0;stroke-dasharray:2.96,1.28;stroke-dashoffset:0;stroke-width:0.8;"/>
     </g>
     <g id="line2d_6">
      <g>
       <use style="stroke:#000000;stroke-width:0.8;" x="161.059557" xlink:href="#m616933229e" y="288.430125"/>
      </g>
     </g>
     <g id="text_3">
      <!-- 400 -->
      <defs>
       <path d="M 37.796875 64.3125 
L 12.890625 25.390625 
L 37.796875 25.390625 
z
M 35.203125 72.90625 
L 47.609375 72.90625 
L 47.609375 25.390625 
L 58.015625 25.390625 
L 58.015625 17.1875 
L 47.609375 17.1875 
L 47.609375 0 
L 37.796875 0 
L 37.796875 17.1875 
L 4.890625 17.1875 
L 4.890625 26.703125 
z
" id="DejaVuSans-52"/>
      </defs>
      <g transform="translate(151.515807 303.028562)scale(0.1 -0.1)">
       <use xlink:href="#DejaVuSans-52"/>
       <use x="63.623047" xlink:href="#DejaVuSans-48"/>
       <use x="127.246094" xlink:href="#DejaVuSans-48"/>
      </g>
     </g>
    </g>
    <g id="xtick_4">
     <g id="line2d_7">
      <path clip-path="url(#pf8c40dc179)" d="M 209.990159 288.430125 
L 209.990159 22.318125 
" style="fill:none;stroke:#b0b0b0;stroke-dasharray:2.96,1.28;stroke-dashoffset:0;stroke-width:0.8;"/>
     </g>
     <g id="line2d_8">
      <g>
       <use style="stroke:#000000;stroke-width:0.8;" x="209.990159" xlink:href="#m616933229e" y="288.430125"/>
      </g>
     </g>
     <g id="text_4">
      <!-- 600 -->
      <defs>
       <path d="M 33.015625 40.375 
Q 26.375 40.375 22.484375 35.828125 
Q 18.609375 31.296875 18.609375 23.390625 
Q 18.609375 15.53125 22.484375 10.953125 
Q 26.375 6.390625 33.015625 6.390625 
Q 39.65625 6.390625 43.53125 10.953125 
Q 47.40625 15.53125 47.40625 23.390625 
Q 47.40625 31.296875 43.53125 35.828125 
Q 39.65625 40.375 33.015625 40.375 
z
M 52.59375 71.296875 
L 52.59375 62.3125 
Q 48.875 64.0625 45.09375 64.984375 
Q 41.3125 65.921875 37.59375 65.921875 
Q 27.828125 65.921875 22.671875 59.328125 
Q 17.53125 52.734375 16.796875 39.40625 
Q 19.671875 43.65625 24.015625 45.921875 
Q 28.375 48.1875 33.59375 48.1875 
Q 44.578125 48.1875 50.953125 41.515625 
Q 57.328125 34.859375 57.328125 23.390625 
Q 57.328125 12.15625 50.6875 5.359375 
Q 44.046875 -1.421875 33.015625 -1.421875 
Q 20.359375 -1.421875 13.671875 8.265625 
Q 6.984375 17.96875 6.984375 36.375 
Q 6.984375 53.65625 15.1875 63.9375 
Q 23.390625 74.21875 37.203125 74.21875 
Q 40.921875 74.21875 44.703125 73.484375 
Q 48.484375 72.75 52.59375 71.296875 
z
" id="DejaVuSans-54"/>
      </defs>
      <g transform="translate(200.446409 303.028562)scale(0.1 -0.1)">
       <use xlink:href="#DejaVuSans-54"/>
       <use x="63.623047" xlink:href="#DejaVuSans-48"/>
       <use x="127.246094" xlink:href="#DejaVuSans-48"/>
      </g>
     </g>
    </g>
    <g id="xtick_5">
     <g id="line2d_9">
      <path clip-path="url(#pf8c40dc179)" d="M 258.920761 288.430125 
L 258.920761 22.318125 
" style="fill:none;stroke:#b0b0b0;stroke-dasharray:2.96,1.28;stroke-dashoffset:0;stroke-width:0.8;"/>
     </g>
     <g id="line2d_10">
      <g>
       <use style="stroke:#000000;stroke-width:0.8;" x="258.920761" xlink:href="#m616933229e" y="288.430125"/>
      </g>
     </g>
     <g id="text_5">
      <!-- 800 -->
      <defs>
       <path d="M 31.78125 34.625 
Q 24.75 34.625 20.71875 30.859375 
Q 16.703125 27.09375 16.703125 20.515625 
Q 16.703125 13.921875 20.71875 10.15625 
Q 24.75 6.390625 31.78125 6.390625 
Q 38.8125 6.390625 42.859375 10.171875 
Q 46.921875 13.96875 46.921875 20.515625 
Q 46.921875 27.09375 42.890625 30.859375 
Q 38.875 34.625 31.78125 34.625 
z
M 21.921875 38.8125 
Q 15.578125 40.375 12.03125 44.71875 
Q 8.5 49.078125 8.5 55.328125 
Q 8.5 64.0625 14.71875 69.140625 
Q 20.953125 74.21875 31.78125 74.21875 
Q 42.671875 74.21875 48.875 69.140625 
Q 55.078125 64.0625 55.078125 55.328125 
Q 55.078125 49.078125 51.53125 44.71875 
Q 48 40.375 41.703125 38.8125 
Q 48.828125 37.15625 52.796875 32.3125 
Q 56.78125 27.484375 56.78125 20.515625 
Q 56.78125 9.90625 50.3125 4.234375 
Q 43.84375 -1.421875 31.78125 -1.421875 
Q 19.734375 -1.421875 13.25 4.234375 
Q 6.78125 9.90625 6.78125 20.515625 
Q 6.78125 27.484375 10.78125 32.3125 
Q 14.796875 37.15625 21.921875 38.8125 
z
M 18.3125 54.390625 
Q 18.3125 48.734375 21.84375 45.5625 
Q 25.390625 42.390625 31.78125 42.390625 
Q 38.140625 42.390625 41.71875 45.5625 
Q 45.3125 48.734375 45.3125 54.390625 
Q 45.3125 60.0625 41.71875 63.234375 
Q 38.140625 66.40625 31.78125 66.40625 
Q 25.390625 66.40625 21.84375 63.234375 
Q 18.3125 60.0625 18.3125 54.390625 
z
" id="DejaVuSans-56"/>
      </defs>
      <g transform="translate(249.377011 303.028562)scale(0.1 -0.1)">
       <use xlink:href="#DejaVuSans-56"/>
       <use x="63.623047" xlink:href="#DejaVuSans-48"/>
       <use x="127.246094" xlink:href="#DejaVuSans-48"/>
      </g>
     </g>
    </g>
    <g id="xtick_6">
     <g id="line2d_11">
      <path clip-path="url(#pf8c40dc179)" d="M 307.851363 288.430125 
L 307.851363 22.318125 
" style="fill:none;stroke:#b0b0b0;stroke-dasharray:2.96,1.28;stroke-dashoffset:0;stroke-width:0.8;"/>
     </g>
     <g id="line2d_12">
      <g>
       <use style="stroke:#000000;stroke-width:0.8;" x="307.851363" xlink:href="#m616933229e" y="288.430125"/>
      </g>
     </g>
     <g id="text_6">
      <!-- 1000 -->
      <defs>
       <path d="M 12.40625 8.296875 
L 28.515625 8.296875 
L 28.515625 63.921875 
L 10.984375 60.40625 
L 10.984375 69.390625 
L 28.421875 72.90625 
L 38.28125 72.90625 
L 38.28125 8.296875 
L 54.390625 8.296875 
L 54.390625 0 
L 12.40625 0 
z
" id="DejaVuSans-49"/>
      </defs>
      <g transform="translate(295.126363 303.028562)scale(0.1 -0.1)">
       <use xlink:href="#DejaVuSans-49"/>
       <use x="63.623047" xlink:href="#DejaVuSans-48"/>
       <use x="127.246094" xlink:href="#DejaVuSans-48"/>
       <use x="190.869141" xlink:href="#DejaVuSans-48"/>
      </g>
     </g>
    </g>
    <g id="xtick_7">
     <g id="line2d_13">
      <path clip-path="url(#pf8c40dc179)" d="M 356.781965 288.430125 
L 356.781965 22.318125 
" style="fill:none;stroke:#b0b0b0;stroke-dasharray:2.96,1.28;stroke-dashoffset:0;stroke-width:0.8;"/>
     </g>
     <g id="line2d_14">
      <g>
       <use style="stroke:#000000;stroke-width:0.8;" x="356.781965" xlink:href="#m616933229e" y="288.430125"/>
      </g>
     </g>
     <g id="text_7">
      <!-- 1200 -->
      <g transform="translate(344.056965 303.028562)scale(0.1 -0.1)">
       <use xlink:href="#DejaVuSans-49"/>
       <use x="63.623047" xlink:href="#DejaVuSans-50"/>
       <use x="127.246094" xlink:href="#DejaVuSans-48"/>
       <use x="190.869141" xlink:href="#DejaVuSans-48"/>
      </g>
     </g>
    </g>
    <g id="text_8">
     <!-- Day -->
     <defs>
      <path d="M 19.671875 64.796875 
L 19.671875 8.109375 
L 31.59375 8.109375 
Q 46.6875 8.109375 53.6875 14.9375 
Q 60.6875 21.78125 60.6875 36.53125 
Q 60.6875 51.171875 53.6875 57.984375 
Q 46.6875 64.796875 31.59375 64.796875 
z
M 9.8125 72.90625 
L 30.078125 72.90625 
Q 51.265625 72.90625 61.171875 64.09375 
Q 71.09375 55.28125 71.09375 36.53125 
Q 71.09375 17.671875 61.125 8.828125 
Q 51.171875 0 30.078125 0 
L 9.8125 0 
z
" id="DejaVuSans-68"/>
      <path d="M 34.28125 27.484375 
Q 23.390625 27.484375 19.1875 25 
Q 14.984375 22.515625 14.984375 16.5 
Q 14.984375 11.71875 18.140625 8.90625 
Q 21.296875 6.109375 26.703125 6.109375 
Q 34.1875 6.109375 38.703125 11.40625 
Q 43.21875 16.703125 43.21875 25.484375 
L 43.21875 27.484375 
z
M 52.203125 31.203125 
L 52.203125 0 
L 43.21875 0 
L 43.21875 8.296875 
Q 40.140625 3.328125 35.546875 0.953125 
Q 30.953125 -1.421875 24.3125 -1.421875 
Q 15.921875 -1.421875 10.953125 3.296875 
Q 6 8.015625 6 15.921875 
Q 6 25.140625 12.171875 29.828125 
Q 18.359375 34.515625 30.609375 34.515625 
L 43.21875 34.515625 
L 43.21875 35.40625 
Q 43.21875 41.609375 39.140625 45 
Q 35.0625 48.390625 27.6875 48.390625 
Q 23 48.390625 18.546875 47.265625 
Q 14.109375 46.140625 10.015625 43.890625 
L 10.015625 52.203125 
Q 14.9375 54.109375 19.578125 55.046875 
Q 24.21875 56 28.609375 56 
Q 40.484375 56 46.34375 49.84375 
Q 52.203125 43.703125 52.203125 31.203125 
z
" id="DejaVuSans-97"/>
      <path d="M 32.171875 -5.078125 
Q 28.375 -14.84375 24.75 -17.8125 
Q 21.140625 -20.796875 15.09375 -20.796875 
L 7.90625 -20.796875 
L 7.90625 -13.28125 
L 13.1875 -13.28125 
Q 16.890625 -13.28125 18.9375 -11.515625 
Q 21 -9.765625 23.484375 -3.21875 
L 25.09375 0.875 
L 2.984375 54.6875 
L 12.5 54.6875 
L 29.59375 11.921875 
L 46.6875 54.6875 
L 56.203125 54.6875 
z
" id="DejaVuSans-121"/>
     </defs>
     <g transform="translate(215.652188 316.706687)scale(0.1 -0.1)">
      <use xlink:href="#DejaVuSans-68"/>
      <use x="77.001953" xlink:href="#DejaVuSans-97"/>
      <use x="138.28125" xlink:href="#DejaVuSans-121"/>
     </g>
    </g>
   </g>
   <g id="matplotlib.axis_2">
    <g id="ytick_1">
     <g id="line2d_15">
      <path clip-path="url(#pf8c40dc179)" d="M 46.965625 287.088126 
L 404.085625 287.088126 
" style="fill:none;stroke:#b0b0b0;stroke-dasharray:2.96,1.28;stroke-dashoffset:0;stroke-width:0.8;"/>
     </g>
     <g id="line2d_16">
      <defs>
       <path d="M 0 0 
L -3.5 0 
" id="m26f739f654" style="stroke:#000000;stroke-width:0.8;"/>
      </defs>
      <g>
       <use style="stroke:#000000;stroke-width:0.8;" x="46.965625" xlink:href="#m26f739f654" y="287.088126"/>
      </g>
     </g>
     <g id="text_9">
      <!-- 75 -->
      <defs>
       <path d="M 8.203125 72.90625 
L 55.078125 72.90625 
L 55.078125 68.703125 
L 28.609375 0 
L 18.3125 0 
L 43.21875 64.59375 
L 8.203125 64.59375 
z
" id="DejaVuSans-55"/>
       <path d="M 10.796875 72.90625 
L 49.515625 72.90625 
L 49.515625 64.59375 
L 19.828125 64.59375 
L 19.828125 46.734375 
Q 21.96875 47.46875 24.109375 47.828125 
Q 26.265625 48.1875 28.421875 48.1875 
Q 40.625 48.1875 47.75 41.5 
Q 54.890625 34.8125 54.890625 23.390625 
Q 54.890625 11.625 47.5625 5.09375 
Q 40.234375 -1.421875 26.90625 -1.421875 
Q 22.3125 -1.421875 17.546875 -0.640625 
Q 12.796875 0.140625 7.71875 1.703125 
L 7.71875 11.625 
Q 12.109375 9.234375 16.796875 8.0625 
Q 21.484375 6.890625 26.703125 6.890625 
Q 35.15625 6.890625 40.078125 11.328125 
Q 45.015625 15.765625 45.015625 23.390625 
Q 45.015625 31 40.078125 35.4375 
Q 35.15625 39.890625 26.703125 39.890625 
Q 22.75 39.890625 18.8125 39.015625 
Q 14.890625 38.140625 10.796875 36.28125 
z
" id="DejaVuSans-53"/>
      </defs>
      <g transform="translate(27.240625 290.887345)scale(0.1 -0.1)">
       <use xlink:href="#DejaVuSans-55"/>
       <use x="63.623047" xlink:href="#DejaVuSans-53"/>
      </g>
     </g>
    </g>
    <g id="ytick_2">
     <g id="line2d_17">
      <path clip-path="url(#pf8c40dc179)" d="M 46.965625 255.155814 
L 404.085625 255.155814 
" style="fill:none;stroke:#b0b0b0;stroke-dasharray:2.96,1.28;stroke-dashoffset:0;stroke-width:0.8;"/>
     </g>
     <g id="line2d_18">
      <g>
       <use style="stroke:#000000;stroke-width:0.8;" x="46.965625" xlink:href="#m26f739f654" y="255.155814"/>
      </g>
     </g>
     <g id="text_10">
      <!-- 100 -->
      <g transform="translate(20.878125 258.955033)scale(0.1 -0.1)">
       <use xlink:href="#DejaVuSans-49"/>
       <use x="63.623047" xlink:href="#DejaVuSans-48"/>
       <use x="127.246094" xlink:href="#DejaVuSans-48"/>
      </g>
     </g>
    </g>
    <g id="ytick_3">
     <g id="line2d_19">
      <path clip-path="url(#pf8c40dc179)" d="M 46.965625 223.223502 
L 404.085625 223.223502 
" style="fill:none;stroke:#b0b0b0;stroke-dasharray:2.96,1.28;stroke-dashoffset:0;stroke-width:0.8;"/>
     </g>
     <g id="line2d_20">
      <g>
       <use style="stroke:#000000;stroke-width:0.8;" x="46.965625" xlink:href="#m26f739f654" y="223.223502"/>
      </g>
     </g>
     <g id="text_11">
      <!-- 125 -->
      <g transform="translate(20.878125 227.02272)scale(0.1 -0.1)">
       <use xlink:href="#DejaVuSans-49"/>
       <use x="63.623047" xlink:href="#DejaVuSans-50"/>
       <use x="127.246094" xlink:href="#DejaVuSans-53"/>
      </g>
     </g>
    </g>
    <g id="ytick_4">
     <g id="line2d_21">
      <path clip-path="url(#pf8c40dc179)" d="M 46.965625 191.291189 
L 404.085625 191.291189 
" style="fill:none;stroke:#b0b0b0;stroke-dasharray:2.96,1.28;stroke-dashoffset:0;stroke-width:0.8;"/>
     </g>
     <g id="line2d_22">
      <g>
       <use style="stroke:#000000;stroke-width:0.8;" x="46.965625" xlink:href="#m26f739f654" y="191.291189"/>
      </g>
     </g>
     <g id="text_12">
      <!-- 150 -->
      <g transform="translate(20.878125 195.090408)scale(0.1 -0.1)">
       <use xlink:href="#DejaVuSans-49"/>
       <use x="63.623047" xlink:href="#DejaVuSans-53"/>
       <use x="127.246094" xlink:href="#DejaVuSans-48"/>
      </g>
     </g>
    </g>
    <g id="ytick_5">
     <g id="line2d_23">
      <path clip-path="url(#pf8c40dc179)" d="M 46.965625 159.358877 
L 404.085625 159.358877 
" style="fill:none;stroke:#b0b0b0;stroke-dasharray:2.96,1.28;stroke-dashoffset:0;stroke-width:0.8;"/>
     </g>
     <g id="line2d_24">
      <g>
       <use style="stroke:#000000;stroke-width:0.8;" x="46.965625" xlink:href="#m26f739f654" y="159.358877"/>
      </g>
     </g>
     <g id="text_13">
      <!-- 175 -->
      <g transform="translate(20.878125 163.158096)scale(0.1 -0.1)">
       <use xlink:href="#DejaVuSans-49"/>
       <use x="63.623047" xlink:href="#DejaVuSans-55"/>
       <use x="127.246094" xlink:href="#DejaVuSans-53"/>
      </g>
     </g>
    </g>
    <g id="ytick_6">
     <g id="line2d_25">
      <path clip-path="url(#pf8c40dc179)" d="M 46.965625 127.426564 
L 404.085625 127.426564 
" style="fill:none;stroke:#b0b0b0;stroke-dasharray:2.96,1.28;stroke-dashoffset:0;stroke-width:0.8;"/>
     </g>
     <g id="line2d_26">
      <g>
       <use style="stroke:#000000;stroke-width:0.8;" x="46.965625" xlink:href="#m26f739f654" y="127.426564"/>
      </g>
     </g>
     <g id="text_14">
      <!-- 200 -->
      <g transform="translate(20.878125 131.225783)scale(0.1 -0.1)">
       <use xlink:href="#DejaVuSans-50"/>
       <use x="63.623047" xlink:href="#DejaVuSans-48"/>
       <use x="127.246094" xlink:href="#DejaVuSans-48"/>
      </g>
     </g>
    </g>
    <g id="ytick_7">
     <g id="line2d_27">
      <path clip-path="url(#pf8c40dc179)" d="M 46.965625 95.494252 
L 404.085625 95.494252 
" style="fill:none;stroke:#b0b0b0;stroke-dasharray:2.96,1.28;stroke-dashoffset:0;stroke-width:0.8;"/>
     </g>
     <g id="line2d_28">
      <g>
       <use style="stroke:#000000;stroke-width:0.8;" x="46.965625" xlink:href="#m26f739f654" y="95.494252"/>
      </g>
     </g>
     <g id="text_15">
      <!-- 225 -->
      <g transform="translate(20.878125 99.293471)scale(0.1 -0.1)">
       <use xlink:href="#DejaVuSans-50"/>
       <use x="63.623047" xlink:href="#DejaVuSans-50"/>
       <use x="127.246094" xlink:href="#DejaVuSans-53"/>
      </g>
     </g>
    </g>
    <g id="ytick_8">
     <g id="line2d_29">
      <path clip-path="url(#pf8c40dc179)" d="M 46.965625 63.56194 
L 404.085625 63.56194 
" style="fill:none;stroke:#b0b0b0;stroke-dasharray:2.96,1.28;stroke-dashoffset:0;stroke-width:0.8;"/>
     </g>
     <g id="line2d_30">
      <g>
       <use style="stroke:#000000;stroke-width:0.8;" x="46.965625" xlink:href="#m26f739f654" y="63.56194"/>
      </g>
     </g>
     <g id="text_16">
      <!-- 250 -->
      <g transform="translate(20.878125 67.361158)scale(0.1 -0.1)">
       <use xlink:href="#DejaVuSans-50"/>
       <use x="63.623047" xlink:href="#DejaVuSans-53"/>
       <use x="127.246094" xlink:href="#DejaVuSans-48"/>
      </g>
     </g>
    </g>
    <g id="ytick_9">
     <g id="line2d_31">
      <path clip-path="url(#pf8c40dc179)" d="M 46.965625 31.629627 
L 404.085625 31.629627 
" style="fill:none;stroke:#b0b0b0;stroke-dasharray:2.96,1.28;stroke-dashoffset:0;stroke-width:0.8;"/>
     </g>
     <g id="line2d_32">
      <g>
       <use style="stroke:#000000;stroke-width:0.8;" x="46.965625" xlink:href="#m26f739f654" y="31.629627"/>
      </g>
     </g>
     <g id="text_17">
      <!-- 275 -->
      <g transform="translate(20.878125 35.428846)scale(0.1 -0.1)">
       <use xlink:href="#DejaVuSans-50"/>
       <use x="63.623047" xlink:href="#DejaVuSans-55"/>
       <use x="127.246094" xlink:href="#DejaVuSans-53"/>
      </g>
     </g>
    </g>
    <g id="text_18">
     <!-- Price $ -->
     <defs>
      <path d="M 19.671875 64.796875 
L 19.671875 37.40625 
L 32.078125 37.40625 
Q 38.96875 37.40625 42.71875 40.96875 
Q 46.484375 44.53125 46.484375 51.125 
Q 46.484375 57.671875 42.71875 61.234375 
Q 38.96875 64.796875 32.078125 64.796875 
z
M 9.8125 72.90625 
L 32.078125 72.90625 
Q 44.34375 72.90625 50.609375 67.359375 
Q 56.890625 61.8125 56.890625 51.125 
Q 56.890625 40.328125 50.609375 34.8125 
Q 44.34375 29.296875 32.078125 29.296875 
L 19.671875 29.296875 
L 19.671875 0 
L 9.8125 0 
z
" id="DejaVuSans-80"/>
      <path d="M 41.109375 46.296875 
Q 39.59375 47.171875 37.8125 47.578125 
Q 36.03125 48 33.890625 48 
Q 26.265625 48 22.1875 43.046875 
Q 18.109375 38.09375 18.109375 28.8125 
L 18.109375 0 
L 9.078125 0 
L 9.078125 54.6875 
L 18.109375 54.6875 
L 18.109375 46.1875 
Q 20.953125 51.171875 25.484375 53.578125 
Q 30.03125 56 36.53125 56 
Q 37.453125 56 38.578125 55.875 
Q 39.703125 55.765625 41.0625 55.515625 
z
" id="DejaVuSans-114"/>
      <path d="M 9.421875 54.6875 
L 18.40625 54.6875 
L 18.40625 0 
L 9.421875 0 
z
M 9.421875 75.984375 
L 18.40625 75.984375 
L 18.40625 64.59375 
L 9.421875 64.59375 
z
" id="DejaVuSans-105"/>
      <path d="M 48.78125 52.59375 
L 48.78125 44.1875 
Q 44.96875 46.296875 41.140625 47.34375 
Q 37.3125 48.390625 33.40625 48.390625 
Q 24.65625 48.390625 19.8125 42.84375 
Q 14.984375 37.3125 14.984375 27.296875 
Q 14.984375 17.28125 19.8125 11.734375 
Q 24.65625 6.203125 33.40625 6.203125 
Q 37.3125 6.203125 41.140625 7.25 
Q 44.96875 8.296875 48.78125 10.40625 
L 48.78125 2.09375 
Q 45.015625 0.34375 40.984375 -0.53125 
Q 36.96875 -1.421875 32.421875 -1.421875 
Q 20.0625 -1.421875 12.78125 6.34375 
Q 5.515625 14.109375 5.515625 27.296875 
Q 5.515625 40.671875 12.859375 48.328125 
Q 20.21875 56 33.015625 56 
Q 37.15625 56 41.109375 55.140625 
Q 45.0625 54.296875 48.78125 52.59375 
z
" id="DejaVuSans-99"/>
      <path d="M 56.203125 29.59375 
L 56.203125 25.203125 
L 14.890625 25.203125 
Q 15.484375 15.921875 20.484375 11.0625 
Q 25.484375 6.203125 34.421875 6.203125 
Q 39.59375 6.203125 44.453125 7.46875 
Q 49.3125 8.734375 54.109375 11.28125 
L 54.109375 2.78125 
Q 49.265625 0.734375 44.1875 -0.34375 
Q 39.109375 -1.421875 33.890625 -1.421875 
Q 20.796875 -1.421875 13.15625 6.1875 
Q 5.515625 13.8125 5.515625 26.8125 
Q 5.515625 40.234375 12.765625 48.109375 
Q 20.015625 56 32.328125 56 
Q 43.359375 56 49.78125 48.890625 
Q 56.203125 41.796875 56.203125 29.59375 
z
M 47.21875 32.234375 
Q 47.125 39.59375 43.09375 43.984375 
Q 39.0625 48.390625 32.421875 48.390625 
Q 24.90625 48.390625 20.390625 44.140625 
Q 15.875 39.890625 15.1875 32.171875 
z
" id="DejaVuSans-101"/>
      <path id="DejaVuSans-32"/>
      <path d="M 33.796875 -14.703125 
L 28.90625 -14.703125 
L 28.859375 0 
Q 23.734375 0.09375 18.609375 1.1875 
Q 13.484375 2.296875 8.296875 4.5 
L 8.296875 13.28125 
Q 13.28125 10.15625 18.375 8.5625 
Q 23.484375 6.984375 28.90625 6.9375 
L 28.90625 29.203125 
Q 18.109375 30.953125 13.203125 35.15625 
Q 8.296875 39.359375 8.296875 46.6875 
Q 8.296875 54.640625 13.625 59.21875 
Q 18.953125 63.8125 28.90625 64.5 
L 28.90625 75.984375 
L 33.796875 75.984375 
L 33.796875 64.65625 
Q 38.328125 64.453125 42.578125 63.6875 
Q 46.828125 62.9375 50.875 61.625 
L 50.875 53.078125 
Q 46.828125 55.125 42.546875 56.25 
Q 38.28125 57.375 33.796875 57.5625 
L 33.796875 36.71875 
Q 44.875 35.015625 50.09375 30.609375 
Q 55.328125 26.21875 55.328125 18.609375 
Q 55.328125 10.359375 49.78125 5.59375 
Q 44.234375 0.828125 33.796875 0.09375 
z
M 28.90625 37.59375 
L 28.90625 57.625 
Q 23.25 56.984375 20.265625 54.390625 
Q 17.28125 51.8125 17.28125 47.515625 
Q 17.28125 43.3125 20.03125 40.96875 
Q 22.796875 38.625 28.90625 37.59375 
z
M 33.796875 28.21875 
L 33.796875 7.078125 
Q 39.984375 7.90625 43.140625 10.59375 
Q 46.296875 13.28125 46.296875 17.671875 
Q 46.296875 21.96875 43.28125 24.5 
Q 40.28125 27.046875 33.796875 28.21875 
z
" id="DejaVuSans-36"/>
     </defs>
     <g transform="translate(14.798438 172.342094)rotate(-90)scale(0.1 -0.1)">
      <use xlink:href="#DejaVuSans-80"/>
      <use x="58.552734" xlink:href="#DejaVuSans-114"/>
      <use x="99.666016" xlink:href="#DejaVuSans-105"/>
      <use x="127.449219" xlink:href="#DejaVuSans-99"/>
      <use x="182.429688" xlink:href="#DejaVuSans-101"/>
      <use x="243.953125" xlink:href="#DejaVuSans-32"/>
      <use x="275.740234" xlink:href="#DejaVuSans-36"/>
     </g>
    </g>
   </g>
   <g id="line2d_33">
    <path clip-path="url(#pf8c40dc179)" d="M 63.198352 232.295512 
L 63.443005 227.050078 
L 63.687658 227.432548 
L 63.932311 225.070894 
L 64.176964 226.188652 
L 64.421617 223.1479 
L 64.66627 217.580444 
L 64.910923 215.442222 
L 65.155576 215.000502 
L 66.378841 217.282988 
L 66.623494 213.171138 
L 66.868147 212.792254 
L 67.1128 216.662058 
L 67.357453 225.372072 
L 67.602106 227.674272 
L 67.846759 236.466894 
L 68.091412 236.049274 
L 68.336066 234.711114 
L 68.580719 230.577094 
L 68.825372 238.804858 
L 69.314678 240.636883 
L 69.559331 237.078654 
L 69.803984 239.743114 
L 70.048637 239.537904 
L 70.537943 243.762777 
L 70.782596 243.085326 
L 71.027249 246.018542 
L 71.271902 243.026817 
L 71.516555 236.14342 
L 72.005861 240.077493 
L 72.250514 237.777885 
L 72.495167 240.783155 
L 72.73982 241.066042 
L 72.984473 239.00348 
L 73.229126 238.756738 
L 73.473779 239.738631 
L 73.963085 234.37501 
L 74.207738 239.245068 
L 74.452391 240.013595 
L 74.697044 239.985919 
L 75.18635 236.80062 
L 75.431003 237.469301 
L 75.675656 247.04534 
L 76.409615 241.562246 
L 76.654268 238.284984 
L 76.898921 238.303168 
L 77.143574 236.677512 
L 77.63288 239.378964 
L 77.877533 237.604941 
L 78.122186 236.753338 
L 78.366839 237.432387 
L 78.611492 237.259482 
L 78.856145 237.975142 
L 79.100798 246.580963 
L 79.345451 246.896076 
L 79.834757 250.187274 
L 80.07941 247.916725 
L 80.324063 250.239283 
L 80.568716 250.704312 
L 80.813369 250.558849 
L 81.058022 249.557924 
L 81.547328 263.235445 
L 81.791981 262.560879 
L 82.036634 264.502925 
L 82.281287 264.535356 
L 82.52594 262.683744 
L 82.770593 264.090488 
L 83.015246 260.065046 
L 83.504552 262.024204 
L 83.749205 260.953027 
L 83.993858 257.203719 
L 84.238511 259.63658 
L 84.483164 260.059414 
L 84.727817 266.787691 
L 84.97247 269.539426 
L 85.217123 269.651864 
L 85.461776 268.855359 
L 85.706429 266.651583 
L 86.195735 260.622176 
L 86.440388 261.121274 
L 86.685041 258.632702 
L 86.929694 259.715699 
L 87.419 255.024637 
L 87.663653 255.648598 
L 88.152959 259.374089 
L 88.397612 254.393124 
L 88.886918 256.706891 
L 89.131571 255.541052 
L 89.376224 250.241943 
L 89.620877 249.283808 
L 89.86553 250.326023 
L 90.110183 253.614287 
L 90.354836 254.106934 
L 90.599489 250.31847 
L 90.844143 242.575878 
L 91.088796 239.360107 
L 91.333449 239.166367 
L 92.067408 244.174346 
L 92.312061 242.675043 
L 92.556714 244.47147 
L 92.801367 244.450508 
L 93.04602 244.899975 
L 93.290673 244.931422 
L 93.535326 241.556223 
L 93.779979 243.34081 
L 94.269285 244.878722 
L 94.513938 244.58381 
L 94.758591 246.264446 
L 95.003244 260.569768 
L 95.247897 257.926942 
L 95.49255 260.120729 
L 95.737203 259.456668 
L 96.226509 261.038179 
L 96.471162 260.613435 
L 96.960468 262.338411 
L 97.205121 265.010228 
L 97.449774 269.155962 
L 97.93908 268.930775 
L 98.183733 270.320983 
L 98.428386 268.487057 
L 98.673039 268.735554 
L 99.162345 265.082594 
L 99.406998 267.694363 
L 99.651651 266.430928 
L 99.896304 267.882441 
L 100.140957 267.499171 
L 100.38561 268.608334 
L 100.630263 268.881875 
L 100.874916 270.816884 
L 101.119569 271.303236 
L 101.364222 272.337567 
L 101.608875 274.078048 
L 101.853528 274.490338 
L 102.098181 275.454028 
L 102.342834 273.482289 
L 102.587487 273.439168 
L 102.83214 272.87204 
L 103.076793 273.99429 
L 103.321446 273.327763 
L 103.566099 271.071355 
L 104.055405 271.817215 
L 104.300058 270.489804 
L 105.034017 276.334125 
L 105.27867 275.902033 
L 105.523323 274.951986 
L 105.767976 268.649896 
L 106.012629 269.570191 
L 106.257282 267.576848 
L 106.501935 269.591883 
L 106.746588 267.849649 
L 106.991241 269.625367 
L 107.235894 272.31759 
L 107.480547 272.609286 
L 107.7252 273.456524 
L 107.969853 271.454517 
L 108.214506 270.443487 
L 108.459159 265.898073 
L 108.703812 275.709999 
L 108.948465 273.772504 
L 109.193118 273.451583 
L 109.437771 274.737042 
L 109.682424 274.473011 
L 109.927077 274.778165 
L 110.905689 263.090781 
L 111.150342 261.437606 
L 111.639648 265.178543 
L 111.884301 263.859113 
L 112.128954 264.43048 
L 112.373607 262.501406 
L 112.61826 256.090308 
L 112.862913 256.876093 
L 113.35222 263.399258 
L 113.841526 258.832639 
L 114.086179 260.17456 
L 114.330832 258.919857 
L 114.820138 260.157419 
L 115.064791 260.351539 
L 115.309444 261.73511 
L 115.79875 252.392638 
L 116.043403 252.209257 
L 116.532709 258.447089 
L 116.777362 256.471044 
L 117.755974 262.1344 
L 118.000627 263.896252 
L 118.24528 263.813936 
L 118.489933 268.86332 
L 118.734586 267.252506 
L 118.979239 263.87415 
L 119.223892 262.725608 
L 119.468545 262.713388 
L 119.713198 264.500712 
L 120.202504 268.73993 
L 120.447157 266.097854 
L 120.69181 266.82592 
L 121.181116 263.568869 
L 121.425769 259.584746 
L 121.670422 259.90711 
L 122.404381 245.033277 
L 122.649034 241.837843 
L 122.893687 241.805802 
L 123.382993 242.922332 
L 123.627646 239.055119 
L 123.872299 220.755296 
L 124.116952 220.264549 
L 124.850911 214.414226 
L 125.095564 211.319808 
L 125.340217 206.099819 
L 125.58487 211.895249 
L 126.074176 211.408721 
L 126.318829 210.614994 
L 126.563482 207.34772 
L 126.808135 209.127541 
L 127.052788 203.22938 
L 127.297441 206.019968 
L 127.542094 210.490375 
L 127.786747 211.114345 
L 128.0314 210.398694 
L 128.276053 210.922331 
L 128.520706 209.964926 
L 128.765359 204.996201 
L 129.010012 206.44633 
L 129.254665 205.461855 
L 129.499318 210.59909 
L 129.743971 206.511758 
L 129.988624 204.800502 
L 130.233277 209.723816 
L 130.47793 208.375717 
L 130.967236 212.944665 
L 131.211889 209.972411 
L 131.456542 209.02711 
L 131.701195 204.189415 
L 131.945848 196.514785 
L 132.435154 200.525736 
L 132.92446 199.878728 
L 133.413766 194.415991 
L 133.658419 196.056674 
L 134.147725 191.074695 
L 134.392378 190.421763 
L 134.637031 186.710119 
L 134.881684 186.83121 
L 135.126337 186.247798 
L 135.37099 181.137692 
L 135.615643 179.24444 
L 135.860297 182.17826 
L 136.10495 179.891623 
L 136.349603 181.338439 
L 136.594256 191.856807 
L 136.838909 195.883837 
L 137.083562 187.117848 
L 137.328215 186.400112 
L 137.572868 188.887651 
L 137.817521 189.465294 
L 138.062174 190.348734 
L 138.306827 186.941679 
L 138.55148 171.901353 
L 139.285439 185.869381 
L 139.530092 177.804465 
L 139.774745 178.838328 
L 140.019398 186.539601 
L 140.264051 180.762628 
L 140.508704 172.144724 
L 140.753357 179.320879 
L 140.99801 178.769197 
L 141.731969 191.335139 
L 141.976622 195.393178 
L 142.221275 190.240448 
L 142.465928 189.645147 
L 142.710581 191.067425 
L 142.955234 188.911117 
L 143.44454 176.332507 
L 143.689193 174.222351 
L 143.933846 174.924047 
L 144.178499 179.166305 
L 144.667805 180.831038 
L 144.912458 182.216148 
L 145.157111 176.264468 
L 145.401764 174.319352 
L 145.646417 170.156848 
L 145.89107 168.615272 
L 146.135723 169.625552 
L 146.625029 168.971548 
L 146.869682 168.046731 
L 147.114335 164.167161 
L 147.358988 154.579633 
L 147.603641 161.150957 
L 147.848294 163.734114 
L 148.092947 164.183162 
L 148.3376 166.539983 
L 148.582253 167.609786 
L 148.826906 164.829098 
L 149.071559 165.953589 
L 149.316212 162.290651 
L 149.560865 163.166178 
L 149.805518 167.689246 
L 150.050171 169.300206 
L 150.294824 161.895161 
L 150.539477 161.661165 
L 150.78413 156.575188 
L 151.028783 154.613935 
L 151.273436 159.061324 
L 151.518089 157.953224 
L 151.762742 155.254667 
L 152.007395 150.736275 
L 152.252048 157.590711 
L 152.496701 153.546354 
L 152.741354 163.482616 
L 152.986007 161.630624 
L 153.23066 164.757122 
L 153.475313 162.032935 
L 153.719966 165.78087 
L 154.209272 160.405097 
L 154.453925 174.359443 
L 154.943231 180.009868 
L 155.187884 172.182105 
L 155.432537 181.002354 
L 155.67719 177.45809 
L 156.166496 189.853631 
L 156.411149 183.974803 
L 156.655802 189.248176 
L 156.900455 184.843606 
L 157.145108 177.582455 
L 157.634414 171.15522 
L 157.879067 169.915699 
L 158.12372 167.070616 
L 158.368374 168.849151 
L 158.613027 161.233185 
L 158.85768 160.618511 
L 159.102333 161.860274 
L 159.346986 162.517494 
L 159.591639 161.843006 
L 159.836292 165.357236 
L 160.080945 161.66785 
L 160.325598 155.831237 
L 160.570251 165.349557 
L 160.814904 167.188491 
L 161.059557 162.18673 
L 161.30421 160.788308 
L 161.548863 148.877442 
L 161.793516 149.841005 
L 162.282822 160.587659 
L 162.527475 161.598251 
L 163.016781 176.823848 
L 163.506087 173.893653 
L 163.995393 181.366972 
L 164.240046 180.229442 
L 164.484699 182.552623 
L 164.729352 183.362215 
L 165.218658 191.207188 
L 165.707964 187.18386 
L 165.952617 180.038421 
L 166.19727 177.950308 
L 166.441923 181.87679 
L 166.931229 199.176447 
L 167.420535 182.978302 
L 167.665188 189.336543 
L 167.909841 191.674439 
L 168.154494 186.528862 
L 168.399147 186.414632 
L 168.6438 182.944721 
L 168.888453 184.595538 
L 169.377759 175.073028 
L 169.622412 179.468379 
L 169.867065 179.611533 
L 170.111718 174.595232 
L 170.356371 189.408422 
L 170.601024 185.176572 
L 170.845677 187.114359 
L 171.09033 180.602791 
L 171.334983 178.861209 
L 171.579636 180.063134 
L 171.824289 180.330906 
L 172.068942 189.125409 
L 172.313595 190.116336 
L 172.558248 188.169661 
L 172.802901 179.444153 
L 173.047554 183.86525 
L 173.292207 183.20842 
L 173.53686 184.957155 
L 173.781513 185.765188 
L 174.026166 182.611638 
L 174.270819 181.106586 
L 174.515472 174.611779 
L 174.760125 174.620024 
L 175.249431 166.988524 
L 175.494084 170.377727 
L 175.738737 169.207005 
L 175.98339 171.149451 
L 176.228043 169.980639 
L 176.472696 173.876405 
L 176.717349 174.911846 
L 176.962002 170.639301 
L 177.206655 163.658981 
L 177.451308 164.102318 
L 177.695961 158.945905 
L 177.940614 158.315912 
L 178.185267 158.120116 
L 178.42992 155.818354 
L 178.674573 157.770544 
L 178.919226 155.67754 
L 179.408532 160.375842 
L 179.653185 159.982126 
L 180.142491 152.212092 
L 180.387144 148.583534 
L 180.631798 148.426796 
L 180.876451 147.03079 
L 181.121104 144.698936 
L 181.365757 139.67293 
L 181.61041 139.975472 
L 181.855063 139.181043 
L 182.099716 142.556154 
L 182.344369 150.44954 
L 182.589022 147.534176 
L 182.833675 150.377037 
L 183.322981 142.275363 
L 183.567634 141.748803 
L 183.812287 140.64347 
L 184.05694 143.821343 
L 184.301593 139.225032 
L 184.546246 130.555752 
L 184.790899 129.967468 
L 185.035552 128.003038 
L 185.280205 122.034498 
L 185.524858 93.084088 
L 185.769511 95.824743 
L 186.014164 102.293083 
L 186.258817 103.455989 
L 186.748123 112.155478 
L 186.992776 103.983055 
L 187.237429 107.337234 
L 187.726735 110.01942 
L 187.971388 108.754114 
L 188.216041 104.636942 
L 188.460694 107.536149 
L 188.705347 103.684586 
L 188.95 102.603577 
L 189.194653 103.699165 
L 189.439306 102.820539 
L 189.683959 104.606986 
L 189.928612 104.226757 
L 190.173265 106.020592 
L 190.417918 109.518782 
L 190.662571 106.130827 
L 191.151877 107.997885 
L 191.39653 110.930087 
L 191.641183 109.678015 
L 191.885836 97.337065 
L 192.130489 92.956623 
L 192.375142 96.624279 
L 192.619795 94.844769 
L 192.864448 94.787274 
L 193.109101 100.385739 
L 193.353754 102.051739 
L 193.598407 102.465764 
L 193.84306 104.866047 
L 194.087713 113.939216 
L 194.577019 103.321274 
L 194.821672 92.520302 
L 195.066325 95.832948 
L 195.310978 109.341404 
L 195.555631 108.702504 
L 195.800284 100.08458 
L 196.044937 105.514399 
L 196.534243 101.732474 
L 196.778896 104.242349 
L 197.023549 112.264855 
L 197.757508 105.614519 
L 198.002161 106.974565 
L 198.246814 106.354727 
L 198.491467 110.040586 
L 198.73612 122.042937 
L 198.980773 126.521413 
L 199.225426 127.839127 
L 199.959385 111.999734 
L 200.204038 107.643577 
L 200.448691 99.395202 
L 200.937997 105.17771 
L 201.18265 100.337248 
L 201.427303 101.949612 
L 201.671956 91.332196 
L 201.916609 97.283467 
L 202.161262 82.887674 
L 202.405915 77.291723 
L 202.650568 82.01624 
L 202.895221 75.931871 
L 203.384528 81.964104 
L 203.629181 81.09421 
L 203.873834 68.300372 
L 204.118487 64.772284 
L 204.36314 64.381199 
L 204.607793 71.026079 
L 204.852446 64.638096 
L 205.097099 72.292184 
L 205.341752 72.925841 
L 205.831058 78.852477 
L 206.075711 69.221038 
L 206.320364 71.985451 
L 206.565017 71.719882 
L 206.80967 68.911382 
L 207.054323 70.519146 
L 207.298976 81.600422 
L 207.543629 82.985416 
L 207.788282 87.213816 
L 208.032935 87.783565 
L 208.277588 86.720311 
L 208.522241 93.484586 
L 208.766894 92.168353 
L 209.011547 94.910782 
L 209.2562 90.03861 
L 209.500853 91.041698 
L 209.745506 94.168391 
L 209.990159 101.630405 
L 210.234812 97.791317 
L 210.479465 86.294632 
L 210.968771 83.592625 
L 211.213424 84.896443 
L 211.458077 87.974918 
L 211.70273 83.107754 
L 211.947383 89.024724 
L 212.192036 89.569955 
L 212.436689 91.409122 
L 212.925995 101.991788 
L 213.170648 101.769895 
L 213.659954 90.246801 
L 213.904607 92.283616 
L 214.14926 100.550585 
L 214.393913 101.749352 
L 214.638566 106.383319 
L 214.883219 106.479774 
L 215.127872 101.484133 
L 215.372525 101.852279 
L 215.617178 92.445052 
L 215.861831 90.566319 
L 216.106484 86.051202 
L 216.59579 93.750312 
L 216.840443 100.987082 
L 217.085096 103.630053 
L 217.329749 104.16476 
L 217.574402 105.670279 
L 218.063708 105.592593 
L 218.308361 106.435415 
L 218.553014 112.419859 
L 218.797667 109.155314 
L 219.04232 103.016179 
L 219.286973 109.071195 
L 219.531626 123.604978 
L 219.776279 111.751919 
L 220.020932 116.874342 
L 220.265585 118.764691 
L 220.510238 118.702732 
L 220.754891 116.022632 
L 220.999544 119.464107 
L 221.244197 117.784893 
L 221.48885 122.46544 
L 221.733503 120.155006 
L 221.978156 122.632313 
L 222.222809 121.534269 
L 222.712115 118.501128 
L 222.956768 110.466344 
L 223.201421 109.955961 
L 223.446074 113.435148 
L 223.690727 114.401089 
L 223.93538 121.612229 
L 224.180033 123.018564 
L 224.669339 120.911527 
L 224.913992 123.215159 
L 225.403298 109.335187 
L 225.647952 110.878536 
L 225.892605 107.122104 
L 226.137258 109.553337 
L 226.381911 118.402509 
L 226.626564 120.828168 
L 226.871217 118.685952 
L 227.11587 114.49542 
L 227.360523 116.635922 
L 227.605176 113.884917 
L 227.849829 116.602516 
L 228.094482 123.735619 
L 228.339135 122.455734 
L 228.828441 104.275813 
L 229.073094 108.778788 
L 229.317747 107.453862 
L 229.807053 113.90088 
L 230.051706 118.471582 
L 230.296359 118.867344 
L 230.541012 112.413817 
L 230.785665 110.49057 
L 231.030318 110.787713 
L 231.274971 111.417686 
L 231.764277 101.068101 
L 232.00893 103.165862 
L 232.253583 103.841383 
L 232.498236 126.700058 
L 232.742889 125.42793 
L 232.987542 121.723458 
L 233.232195 134.565241 
L 233.476848 139.255982 
L 233.721501 135.397559 
L 233.966154 136.302399 
L 234.45546 140.51854 
L 234.700113 141.453881 
L 235.189419 137.336457 
L 235.434072 138.950594 
L 235.923378 133.576166 
L 236.412684 123.223111 
L 236.657337 127.405262 
L 236.90199 126.130367 
L 237.391296 130.344481 
L 237.635949 125.993957 
L 238.125255 122.945711 
L 238.369908 122.990947 
L 238.614561 119.937439 
L 238.859214 123.034273 
L 239.103867 124.137482 
L 239.593173 119.030261 
L 239.837826 117.934517 
L 240.082479 121.264899 
L 240.327132 120.597271 
L 240.571785 114.437652 
L 240.816438 115.018472 
L 241.061091 114.142691 
L 241.305744 114.6139 
L 241.550397 112.57459 
L 241.79505 114.398204 
L 242.039703 117.722778 
L 242.529009 127.453753 
L 242.773662 127.643273 
L 243.262968 131.92913 
L 243.507621 142.00685 
L 243.996927 148.579656 
L 244.24158 141.955084 
L 244.486233 143.464132 
L 244.730886 137.582049 
L 244.975539 139.031087 
L 245.220192 144.892978 
L 245.464845 140.726497 
L 245.709498 129.374194 
L 245.954151 128.844613 
L 246.68811 117.715255 
L 246.932763 119.522869 
L 247.177416 131.750193 
L 247.422069 170.576271 
L 247.911375 161.056294 
L 248.156029 163.546368 
L 248.400682 167.882567 
L 248.645335 166.422127 
L 249.134641 161.055242 
L 249.623947 157.240438 
L 250.113253 177.013115 
L 250.357906 176.505071 
L 250.847212 169.896092 
L 251.091865 171.020817 
L 251.336518 174.527232 
L 251.825824 186.487212 
L 252.070477 212.043177 
L 252.31513 202.969813 
L 252.559783 200.454227 
L 252.804436 188.971263 
L 253.049089 189.756493 
L 253.538395 199.235132 
L 253.783048 194.437664 
L 254.027701 193.001957 
L 254.272354 196.953406 
L 254.517007 192.764024 
L 254.76166 190.586336 
L 255.250966 198.786941 
L 255.495619 202.332453 
L 255.740272 202.275893 
L 255.984925 191.452215 
L 256.229578 194.949509 
L 256.474231 200.752949 
L 256.718884 202.421931 
L 257.20819 212.869648 
L 257.452843 213.641333 
L 257.697496 211.332633 
L 257.942149 213.342532 
L 258.186802 209.138436 
L 258.431455 207.402058 
L 258.676108 207.710993 
L 258.920761 195.475445 
L 259.165414 192.491886 
L 259.410067 190.911155 
L 259.899373 202.397764 
L 260.144026 199.268557 
L 260.388679 199.177909 
L 260.633332 196.673218 
L 260.877985 197.850566 
L 261.122638 191.718935 
L 261.367291 190.912461 
L 261.611944 186.801663 
L 261.856597 187.770508 
L 262.10125 192.086379 
L 262.590556 181.030381 
L 262.835209 168.219353 
L 263.079862 161.765221 
L 263.324515 163.70868 
L 263.569168 166.736422 
L 263.813821 143.359237 
L 264.058474 135.607368 
L 264.303127 136.28667 
L 264.54778 130.771116 
L 264.792433 130.033558 
L 265.037086 128.698224 
L 265.281739 135.110258 
L 265.526392 133.010938 
L 265.771045 128.33881 
L 266.015698 130.19433 
L 266.260351 135.339089 
L 266.505004 130.255451 
L 266.749657 131.617213 
L 267.238963 117.87289 
L 267.483616 119.263731 
L 267.728269 118.718207 
L 268.217575 124.885954 
L 268.462228 122.075057 
L 268.706881 107.553962 
L 268.951534 112.720589 
L 269.196187 113.480248 
L 269.44084 118.288357 
L 269.685493 118.422155 
L 269.930146 117.393262 
L 270.419452 126.554604 
L 270.664106 127.856064 
L 270.908759 135.878648 
L 271.153412 135.08917 
L 271.398065 129.150722 
L 271.642718 129.316718 
L 271.887371 131.288807 
L 272.132024 137.634906 
L 272.376677 130.946876 
L 272.62133 131.739941 
L 272.865983 131.846551 
L 273.355289 137.983386 
L 273.599942 134.175852 
L 274.089248 141.662014 
L 274.333901 149.066046 
L 274.578554 143.07827 
L 274.823207 146.554242 
L 275.06786 161.067326 
L 275.312513 162.786708 
L 275.557166 165.422313 
L 275.801819 162.288195 
L 276.046472 170.455161 
L 276.291125 164.073726 
L 276.535778 175.622527 
L 276.780431 169.725301 
L 277.025084 172.99581 
L 277.269737 166.87406 
L 277.51439 163.893737 
L 277.759043 168.280006 
L 278.003696 170.430584 
L 278.248349 179.542987 
L 278.493002 181.793704 
L 278.737655 174.549684 
L 279.471614 187.072398 
L 279.716267 188.015496 
L 279.96092 196.705572 
L 280.205573 198.114675 
L 280.450226 202.88778 
L 280.694879 197.94367 
L 280.939532 203.050189 
L 281.184185 187.575959 
L 281.673491 175.226765 
L 281.918144 176.961038 
L 282.162797 173.660885 
L 282.40745 167.692949 
L 282.652103 176.898631 
L 282.896756 176.787616 
L 283.141409 181.060298 
L 283.386062 158.524006 
L 283.630715 161.442429 
L 283.875368 162.751432 
L 284.120021 153.49073 
L 284.364674 156.904899 
L 284.609327 156.963466 
L 284.85398 155.396787 
L 285.098633 156.742333 
L 285.343286 161.791338 
L 285.587939 158.684759 
L 285.832592 157.880214 
L 286.077245 149.781931 
L 286.321898 149.504472 
L 286.566551 152.783927 
L 286.811204 150.080692 
L 287.055857 148.909893 
L 287.30051 143.298117 
L 287.545163 144.213871 
L 287.789816 143.102788 
L 288.034469 148.245111 
L 288.279122 147.87601 
L 288.523775 147.193531 
L 288.768428 141.179366 
L 289.013081 140.696502 
L 289.257734 139.439986 
L 289.502387 141.267596 
L 289.74704 141.310884 
L 289.991693 148.314729 
L 290.236346 145.120367 
L 290.480999 149.907407 
L 291.214958 144.146143 
L 291.459611 135.263721 
L 291.704264 133.72772 
L 291.948917 136.515424 
L 292.19357 136.658792 
L 292.438223 135.208779 
L 292.92753 136.676079 
L 293.416836 142.767776 
L 293.661489 142.597531 
L 294.150795 145.033637 
L 294.395448 133.82209 
L 294.640101 156.359707 
L 294.884754 161.262069 
L 295.129407 157.481937 
L 295.618713 161.287367 
L 295.863366 167.841579 
L 296.108019 170.343892 
L 296.352672 175.016254 
L 296.841978 178.93989 
L 297.086631 169.369318 
L 297.331284 165.172355 
L 297.82059 169.044089 
L 298.065243 166.252565 
L 298.309896 166.345805 
L 298.554549 159.085842 
L 298.799202 157.318553 
L 299.043855 156.943781 
L 299.288508 147.73389 
L 299.777814 159.98388 
L 300.022467 158.966993 
L 300.26712 161.459561 
L 300.511773 160.204331 
L 301.001079 166.930912 
L 301.245732 167.422429 
L 301.490385 172.946072 
L 302.224344 176.981814 
L 302.468997 172.609812 
L 302.71365 175.324799 
L 302.958303 168.774875 
L 303.202956 174.177894 
L 303.447609 175.274593 
L 303.692262 173.239103 
L 303.936915 179.545072 
L 304.181568 182.538298 
L 304.670874 172.620629 
L 304.915527 173.003801 
L 305.16018 172.533821 
L 305.404833 176.058206 
L 305.649486 177.331951 
L 305.894139 173.814466 
L 306.138792 180.189838 
L 306.383445 170.538519 
L 306.628098 171.149431 
L 306.872751 173.501555 
L 307.117404 172.241823 
L 307.362057 175.275801 
L 307.60671 173.450998 
L 307.851363 177.282895 
L 308.096016 177.970636 
L 308.340669 176.690576 
L 308.585322 177.590621 
L 308.829975 179.265333 
L 309.074628 174.26252 
L 309.319281 172.367045 
L 309.563934 171.537066 
L 309.808587 180.725071 
L 310.05324 175.498942 
L 310.297893 177.426243 
L 310.542546 175.897647 
L 310.787199 175.399309 
L 311.031852 169.742706 
L 311.276505 170.145076 
L 311.521158 171.476433 
L 311.765811 171.052683 
L 312.010464 168.626712 
L 312.255117 168.962991 
L 312.49977 162.200821 
L 312.744423 162.136446 
L 312.989076 162.236956 
L 313.478382 156.49676 
L 313.723035 160.745099 
L 313.967688 160.959644 
L 314.212341 163.36897 
L 314.456994 162.050574 
L 314.701647 161.477414 
L 314.9463 162.073006 
L 315.190953 158.894081 
L 315.435607 165.035574 
L 315.68026 157.749768 
L 315.924913 155.699973 
L 316.169566 142.228353 
L 316.414219 141.624574 
L 316.658872 143.368573 
L 316.903525 149.889711 
L 317.148178 149.427136 
L 317.392831 150.767323 
L 317.637484 150.019104 
L 317.882137 145.326805 
L 318.12679 147.306612 
L 318.371443 146.756119 
L 318.616096 144.429157 
L 318.860749 133.970213 
L 319.105402 133.869392 
L 319.594708 142.716576 
L 319.839361 139.527398 
L 320.328667 150.266451 
L 320.57332 150.390466 
L 321.062626 147.856462 
L 321.307279 148.398009 
L 321.796585 152.999233 
L 322.041238 150.974871 
L 322.285891 156.740852 
L 322.775197 160.611729 
L 323.01985 158.255922 
L 323.264503 159.614604 
L 323.509156 158.030521 
L 323.753809 158.275782 
L 323.998462 159.703245 
L 324.243115 157.670639 
L 324.487768 152.249357 
L 324.977074 162.24366 
L 325.221727 159.330344 
L 325.46638 151.878776 
L 326.200339 166.904523 
L 326.444992 167.144951 
L 326.689645 168.997508 
L 326.934298 163.303094 
L 327.178951 165.28871 
L 327.91291 175.765291 
L 328.157563 176.497372 
L 328.402216 172.146848 
L 328.646869 170.685278 
L 328.891522 170.846713 
L 329.136175 172.999864 
L 329.380828 171.320338 
L 329.870134 174.595544 
L 330.114787 172.837084 
L 330.604093 167.366045 
L 330.848746 169.29432 
L 331.093399 174.424286 
L 331.338052 176.454865 
L 331.582705 173.309988 
L 331.827358 172.266282 
L 332.072011 167.699654 
L 332.316664 169.046954 
L 332.561317 164.99408 
L 332.80597 168.483481 
L 333.050623 164.176926 
L 333.295276 166.032407 
L 333.539929 171.034051 
L 333.784582 171.922343 
L 334.029235 174.252307 
L 334.273888 171.695383 
L 334.763194 175.044047 
L 335.497153 171.756445 
L 335.741806 170.579682 
L 335.986459 172.875986 
L 336.720418 156.843291 
L 336.965071 158.473527 
L 337.209724 156.110294 
L 337.454377 152.265105 
L 337.943684 156.441506 
L 338.188337 157.451182 
L 338.677643 157.395656 
L 338.922296 158.568307 
L 339.166949 161.327848 
L 339.411602 158.791505 
L 339.900908 157.637175 
L 340.390214 160.703156 
L 340.634867 160.503365 
L 340.87952 159.872008 
L 341.124173 160.976678 
L 341.368826 161.355095 
L 341.858132 156.212597 
L 342.102785 155.837708 
L 342.347438 151.849638 
L 342.592091 151.100952 
L 342.836744 148.498753 
L 343.081397 147.715511 
L 343.32605 149.338769 
L 343.815356 146.864112 
L 344.060009 147.189321 
L 344.549315 145.552518 
L 344.793968 146.647111 
L 345.038621 158.686123 
L 345.283274 161.818838 
L 345.77258 158.932535 
L 346.017233 160.696958 
L 346.261886 160.699609 
L 346.506539 161.529588 
L 346.751192 161.640856 
L 346.995845 161.127121 
L 347.485151 162.311758 
L 347.729804 161.669896 
L 348.21911 163.572367 
L 348.463763 157.674946 
L 348.708416 157.545475 
L 348.953069 158.493504 
L 349.442375 167.206169 
L 349.687028 167.137954 
L 349.931681 168.178424 
L 350.176334 167.910886 
L 350.910293 163.134857 
L 351.154946 162.926919 
L 351.399599 159.664304 
L 351.644252 159.227456 
L 351.888905 161.598212 
L 352.133558 160.911562 
L 352.378211 162.75186 
L 352.622864 160.462202 
L 352.867517 161.744484 
L 353.11217 161.077948 
L 353.356823 162.172503 
L 353.846129 160.700291 
L 354.090782 155.58506 
L 354.335435 154.676692 
L 354.580088 155.081557 
L 354.824741 152.395512 
L 355.069394 144.214767 
L 355.314047 144.848619 
L 355.5587 143.188992 
L 355.803353 154.28399 
L 356.048006 153.775068 
L 356.292659 154.829961 
L 356.537312 156.687255 
L 356.781965 157.657308 
L 357.026618 156.73559 
L 357.271271 156.9079 
L 357.515924 150.139357 
L 357.760577 149.359448 
L 358.00523 145.820036 
L 358.249883 144.997171 
L 358.494536 145.372372 
L 358.739189 139.786576 
L 359.228495 150.563283 
L 359.473148 142.783056 
L 359.717801 138.634506 
L 359.962454 138.556001 
L 360.207107 139.802947 
L 360.451761 138.240147 
L 360.696414 139.602396 
L 360.941067 140.279164 
L 361.18572 145.283712 
L 361.675026 143.325383 
L 361.919679 144.233107 
L 362.164332 145.731611 
L 362.408985 143.673356 
L 362.653638 145.112259 
L 362.898291 152.135302 
L 363.63225 155.677715 
L 364.121556 161.102914 
L 364.366209 156.840719 
L 364.610862 156.457098 
L 364.855515 153.672395 
L 365.344821 155.375075 
L 365.589474 154.577313 
L 365.834127 158.755956 
L 366.323433 153.930637 
L 366.568086 154.559382 
L 366.812739 152.381441 
L 367.057392 147.375431 
L 367.302045 151.291856 
L 367.546698 151.549532 
L 367.791351 149.264123 
L 368.036004 148.062938 
L 368.280657 144.519161 
L 368.52531 144.155206 
L 368.769963 142.172885 
L 369.014616 142.010826 
L 369.259269 141.189695 
L 369.503922 138.844393 
L 369.748575 138.479288 
L 369.993228 136.734627 
L 370.237881 129.768631 
L 370.482534 131.373998 
L 370.727187 126.491418 
L 370.97184 126.17379 
L 371.216493 100.781521 
L 371.461146 93.900131 
L 371.705799 96.121867 
L 371.950452 100.758406 
L 372.195105 94.255667 
L 372.439758 93.914281 
L 372.684411 93.982028 
L 372.929064 89.96829 
L 373.173717 90.744788 
L 373.41837 98.844826 
L 373.663023 99.131074 
L 373.907676 97.799736 
L 374.396982 94.383072 
L 374.641635 100.642402 
L 374.886288 101.144014 
L 375.375594 95.083755 
L 375.620247 96.324582 
L 376.109553 94.613385 
L 376.354206 101.844385 
L 376.598859 102.94508 
L 377.332818 87.21674 
L 377.577471 95.261503 
L 377.822124 93.734603 
L 378.066777 86.568699 
L 378.31143 89.924243 
L 378.800736 80.38197 
L 379.045389 81.233426 
L 379.290042 80.668082 
L 379.534695 81.92489 
L 379.779348 78.530835 
L 380.024001 79.629249 
L 380.268654 79.598026 
L 380.513307 78.667986 
L 380.75796 76.259848 
L 381.002613 83.962466 
L 381.491919 76.552216 
L 381.736572 75.874766 
L 381.981225 67.04216 
L 382.225878 65.731501 
L 382.470531 67.092483 
L 382.715184 71.137366 
L 382.959838 69.929224 
L 383.204491 67.355227 
L 383.449144 61.045419 
L 383.693797 48.49501 
L 384.183103 52.132261 
L 384.427756 48.11367 
L 384.672409 35.679013 
L 385.161715 40.391523 
L 385.406368 47.447582 
L 385.651021 43.869931 
L 385.895674 44.211473 
L 386.38498 47.010228 
L 386.629633 49.133228 
L 386.874286 78.668629 
L 387.118939 78.806559 
L 387.363592 71.053365 
L 387.608245 67.880442 
L 387.852898 74.559098 
L 387.852898 74.559098 
" style="fill:none;stroke:#1f77b4;stroke-linecap:square;stroke-width:1.5;"/>
   </g>
   <g id="line2d_34">
    <path clip-path="url(#pf8c40dc179)" d="M 63.198352 227.962257 
L 63.443005 228.945772 
L 63.687658 225.471536 
L 63.932311 227.01706 
L 64.176964 223.427868 
L 64.421617 218.190969 
L 64.910923 215.214878 
L 65.155576 215.636384 
L 65.400229 215.483109 
L 66.134188 216.70931 
L 66.378841 212.162149 
L 66.623494 211.753415 
L 66.868147 215.674703 
L 67.1128 225.26717 
L 67.357453 226.033545 
L 67.602106 235.88147 
L 67.846759 235.076776 
L 68.091412 233.569571 
L 68.336066 228.818043 
L 68.580719 238.423282 
L 68.825372 239.815531 
L 69.070025 240.543588 
L 69.314678 236.6223 
L 69.559331 239.904942 
L 69.803984 238.883108 
L 70.048637 242.906579 
L 70.29329 243.455815 
L 70.537943 242.625575 
L 70.782596 246.09981 
L 71.027249 242.600029 
L 71.271902 235.204505 
L 71.761208 239.841077 
L 72.005861 237.094898 
L 72.250514 240.760728 
L 72.495167 240.965094 
L 72.73982 238.321099 
L 72.984473 239.164112 
L 73.229126 239.585618 
L 73.718432 233.582344 
L 73.963085 238.844789 
L 74.452391 239.738894 
L 74.941697 237.018261 
L 75.18635 236.903304 
L 75.431003 246.866186 
L 76.164962 240.824592 
L 76.409615 237.503632 
L 76.654268 238.027322 
L 76.898921 236.18802 
L 77.143574 238.321099 
L 77.388227 239.342933 
L 77.877533 236.0092 
L 78.122186 237.286492 
L 78.366839 237.260946 
L 78.611492 237.478086 
L 78.856145 246.559636 
L 79.100798 246.597954 
L 79.590104 250.302103 
L 79.834757 247.568697 
L 80.324063 250.429832 
L 80.568716 250.391513 
L 80.813369 249.280269 
L 81.302675 263.368805 
L 81.547328 263.036709 
L 81.791981 264.505595 
L 82.036634 264.837691 
L 82.281287 262.755704 
L 82.52594 263.790311 
L 82.770593 259.98398 
L 83.259899 262.155377 
L 83.504552 260.50767 
L 83.749205 256.433106 
L 83.993858 259.869023 
L 84.238511 260.392713 
L 84.483164 267.622189 
L 84.727817 270.330049 
L 84.97247 269.180486 
L 85.217123 268.746206 
L 85.951082 260.150028 
L 86.195735 261.222953 
L 86.440388 258.476774 
L 86.685041 259.932888 
L 87.174347 254.414984 
L 87.419 255.360181 
L 87.663653 256.816294 
L 87.908306 259.281469 
L 88.152959 253.30374 
L 88.397612 255.883871 
L 88.642265 256.433106 
L 88.886918 254.785399 
L 89.131571 249.893369 
L 89.376224 248.794897 
L 89.620877 249.216404 
L 89.86553 252.230814 
L 90.110183 253.763565 
L 90.354836 249.612365 
L 90.599489 241.667605 
L 90.844143 238.58933 
L 91.088796 239.010837 
L 91.333449 240.262584 
L 91.822755 244.388238 
L 92.067408 242.587256 
L 92.556714 244.554286 
L 92.801367 245.039657 
L 93.04602 244.924701 
L 93.290673 240.607452 
L 93.535326 243.0854 
L 94.024632 244.554286 
L 94.269285 244.158326 
L 94.513938 245.959308 
L 94.758591 259.792386 
L 95.003244 257.237801 
L 95.247897 259.920115 
L 95.49255 259.166512 
L 95.737203 259.792386 
L 95.981856 260.865311 
L 96.226509 260.37994 
L 96.715815 262.410835 
L 96.960468 265.144241 
L 97.205121 269.908542 
L 97.694427 268.976119 
L 97.93908 270.470551 
L 98.183733 268.273608 
L 98.428386 268.758979 
L 98.917692 264.65887 
L 99.162345 267.596643 
L 99.406998 266.178848 
L 99.651651 268.018149 
L 99.896304 267.392276 
L 100.140957 268.925027 
L 100.38561 268.656796 
L 100.630263 270.802647 
L 100.874916 270.930376 
L 101.364222 274.213018 
L 101.608875 274.098062 
L 101.853528 275.285944 
L 102.098181 272.91018 
L 102.342834 273.140092 
L 102.587487 272.412036 
L 102.83214 273.893695 
L 103.076793 272.948498 
L 103.321446 270.317276 
L 103.566099 270.866512 
L 103.810752 271.696752 
L 104.055405 270.330049 
L 104.300058 273.089001 
L 104.544711 274.110835 
L 104.789364 276.116184 
L 105.034017 275.503083 
L 105.27867 274.481249 
L 105.523323 267.839328 
L 105.767976 269.512582 
L 106.012629 267.136818 
L 106.257282 269.755267 
L 106.501935 267.558324 
L 106.991241 272.437581 
L 107.235894 272.488673 
L 107.480547 273.472188 
L 107.7252 270.674918 
L 107.969853 270.368368 
L 108.214506 264.939875 
L 108.459159 274.289656 
L 108.948465 273.229503 
L 109.193118 274.494022 
L 109.437771 274.315201 
L 109.682424 274.941075 
L 109.927077 270.930376 
L 110.17173 268.822844 
L 110.416383 264.211818 
L 110.905689 260.967495 
L 111.150342 263.918041 
L 111.394995 264.301228 
L 111.639648 263.394351 
L 111.884301 264.492822 
L 112.128954 261.899918 
L 112.373607 254.529941 
L 112.61826 256.394788 
L 112.862913 261.363456 
L 113.107566 262.960071 
L 113.35222 259.690202 
L 113.596873 258.63005 
L 113.841526 259.562473 
L 114.086179 258.004176 
L 114.330832 259.447517 
L 114.820138 260.188346 
L 115.064791 261.606141 
L 115.554097 251.745443 
L 115.79875 251.336709 
L 116.043403 255.883871 
L 116.288056 258.336272 
L 116.532709 255.590093 
L 117.022015 259.294242 
L 117.266668 259.881796 
L 117.755974 263.803084 
L 118.000627 263.573172 
L 118.24528 268.069241 
L 118.489933 266.53649 
L 118.734586 263.177211 
L 119.223892 262.053193 
L 119.957851 268.925027 
L 120.202504 265.987254 
L 120.447157 267.290093 
L 120.69181 264.492822 
L 120.936463 263.547626 
L 121.181116 258.885508 
L 121.425769 259.179285 
L 121.915075 247.88802 
L 122.404381 240.850138 
L 122.649034 241.003413 
L 122.893687 242.370116 
L 123.13834 242.587256 
L 123.382993 238.078413 
L 123.627646 222.137803 
L 124.850911 210.539987 
L 125.095564 204.447302 
L 125.340217 211.868371 
L 126.074176 209.50538 
L 126.318829 206.376014 
L 126.563482 208.240861 
L 126.808135 202.109857 
L 127.297441 210.55276 
L 127.542094 210.910402 
L 127.786747 210.437804 
L 128.0314 210.501668 
L 128.276053 209.186057 
L 128.520706 204.651669 
L 128.765359 205.801232 
L 129.010012 205.315861 
L 129.254665 210.297302 
L 129.499318 205.366953 
L 129.743971 204.370664 
L 129.988624 209.773612 
L 130.233277 208.956144 
L 130.722583 213.017935 
L 130.967236 209.594791 
L 131.211889 208.432455 
L 131.456542 203.297739 
L 131.701195 194.727106 
L 132.190501 200.692062 
L 132.435154 200.755927 
L 132.679807 199.19763 
L 133.169113 194.228962 
L 133.413766 196.081036 
L 133.658419 192.236386 
L 134.147725 190.42263 
L 134.392378 185.824377 
L 134.637031 186.386386 
L 134.881684 184.674814 
L 135.126337 180.255382 
L 135.37099 178.594902 
L 135.615643 182.247958 
L 135.860297 179.795557 
L 136.10495 181.660404 
L 136.349603 192.887805 
L 136.594256 195.710621 
L 136.838909 187.254945 
L 137.083562 185.032456 
L 137.572868 189.375251 
L 137.817521 191.035731 
L 138.062174 186.399159 
L 138.306827 170.969466 
L 138.796133 180.344793 
L 139.040786 184.815316 
L 139.285439 176.806692 
L 139.530092 179.335731 
L 139.774745 186.028744 
L 140.264051 172.221212 
L 140.508704 177.49643 
L 140.753357 178.441627 
L 141.242663 186.871757 
L 141.731969 194.676014 
L 141.976622 189.89894 
L 142.221275 189.247521 
L 142.465928 190.741953 
L 142.710581 187.484858 
L 143.199887 175.542173 
L 143.44454 174.852435 
L 143.689193 174.533112 
L 143.933846 180.102107 
L 144.423152 180.957893 
L 144.667805 182.784421 
L 144.912458 174.648068 
L 145.157111 174.69916 
L 145.646417 167.456911 
L 145.89107 169.513352 
L 146.135723 167.967828 
L 146.380376 169.117392 
L 146.625029 167.393047 
L 146.869682 163.318484 
L 147.114335 153.061825 
L 147.358988 161.606912 
L 147.603641 163.829401 
L 147.848294 164.161497 
L 148.092947 167.009859 
L 148.3376 167.878418 
L 148.582253 163.842174 
L 148.826906 165.247195 
L 149.071559 161.453637 
L 149.316212 162.807567 
L 149.560865 167.559095 
L 149.805518 169.219575 
L 150.050171 160.929947 
L 150.294824 160.648942 
L 150.539477 155.680274 
L 150.78413 152.985187 
L 151.028783 159.001235 
L 151.273436 157.27689 
L 151.762742 150.686061 
L 152.007395 158.694685 
L 152.252048 153.406694 
L 152.496701 164.468047 
L 152.741354 162.07951 
L 152.986007 165.106693 
L 153.23066 161.913462 
L 153.475313 165.566518 
L 153.964619 160.086934 
L 154.209272 173.945557 
L 154.698578 180.20429 
L 154.943231 173.102544 
L 155.187884 180.94512 
L 155.432537 177.483657 
L 155.921843 190.626997 
L 156.166496 183.857347 
L 156.411149 188.608875 
L 156.655802 184.840862 
L 156.900455 177.062151 
L 157.389761 170.484095 
L 157.634414 169.513352 
L 157.879067 165.694248 
L 158.12372 168.964116 
L 158.368374 160.904401 
L 158.613027 161.159859 
L 158.85768 160.763899 
L 159.102333 162.347741 
L 159.346986 162.513789 
L 159.591639 165.553745 
L 159.836292 162.041191 
L 160.080945 154.35189 
L 160.325598 164.557457 
L 160.570251 166.064662 
L 161.059557 159.908113 
L 161.30421 147.045777 
L 161.793516 153.534423 
L 162.038169 161.274816 
L 162.282822 160.406257 
L 162.772128 177.764662 
L 163.016781 176.397959 
L 163.261434 173.294138 
L 163.75074 181.737041 
L 163.995393 180.676889 
L 164.484699 183.56357 
L 164.729352 188.583329 
L 164.974005 190.013897 
L 165.218658 190.448176 
L 165.463311 188.391735 
L 165.707964 179.565644 
L 165.952617 177.917937 
L 166.19727 181.77536 
L 166.686576 199.580818 
L 167.175882 181.481583 
L 167.420535 190.052216 
L 167.665188 191.623285 
L 167.909841 186.501342 
L 168.399147 182.056365 
L 168.6438 183.882893 
L 169.133106 174.673614 
L 169.377759 179.361277 
L 169.622412 178.85036 
L 169.867065 174.801343 
L 170.111718 190.103307 
L 170.356371 184.713133 
L 170.601024 186.373613 
L 170.845677 180.191517 
L 171.09033 178.633221 
L 171.334983 178.863133 
L 171.579636 181.289989 
L 171.824289 189.669028 
L 172.068942 190.805818 
L 172.313595 187.650906 
L 172.558248 178.671539 
L 172.802901 183.486932 
L 173.047554 183.601888 
L 173.53686 185.198504 
L 173.781513 181.519902 
L 174.026166 180.536386 
L 174.270819 173.447413 
L 174.515472 174.009422 
L 174.760125 168.772523 
L 175.004778 166.613898 
L 175.249431 170.63737 
L 175.494084 168.938571 
L 175.738737 171.097195 
L 175.98339 169.257894 
L 176.228043 173.830601 
L 176.472696 174.201016 
L 176.717349 170.318046 
L 176.962002 162.756475 
L 177.206655 163.714444 
L 177.451308 157.902763 
L 177.695961 157.430165 
L 177.940614 158.10713 
L 178.185267 155.463135 
L 178.42992 156.957567 
L 178.674573 155.245995 
L 178.919226 157.213025 
L 179.163879 160.138025 
L 179.408532 159.997523 
L 180.142491 147.27569 
L 180.387144 148.233659 
L 180.631798 146.637044 
L 180.876451 144.274053 
L 181.121104 138.564555 
L 181.365757 140.250581 
L 181.61041 138.666738 
L 181.855063 142.754074 
L 182.099716 150.034642 
L 182.344369 146.662589 
L 182.589022 148.731803 
L 183.078328 142.089882 
L 183.322981 140.365537 
L 183.567634 140.940319 
L 183.812287 144.146323 
L 184.05694 138.705057 
L 184.301593 130.338791 
L 184.546246 129.431914 
L 184.790899 127.273289 
L 185.035552 121.972526 
L 185.280205 93.578313 
L 185.524858 94.472418 
L 185.769511 101.880715 
L 186.014164 102.991959 
L 186.50347 111.613683 
L 186.748123 103.285736 
L 186.992776 107.53912 
L 187.237429 108.088356 
L 187.482082 110.170343 
L 187.726735 108.152221 
L 187.971388 104.460845 
L 188.216041 106.785518 
L 188.460694 103.681697 
L 188.705347 102.417177 
L 188.95 103.349601 
L 189.194653 102.851457 
L 189.439306 104.167068 
L 189.683959 103.132461 
L 190.173265 109.301784 
L 190.417918 105.968051 
L 190.907224 107.679623 
L 191.151877 109.787155 
L 191.39653 108.880277 
L 191.641183 95.749711 
L 191.885836 92.364886 
L 192.130489 96.516086 
L 192.375142 93.322855 
L 192.619795 94.906698 
L 192.864448 100.309645 
L 193.353754 101.855169 
L 193.598407 104.486391 
L 193.84306 113.721216 
L 194.332366 103.055824 
L 194.577019 91.087593 
L 194.821672 95.583663 
L 195.066325 108.445998 
L 195.310978 108.535408 
L 195.555631 99.364448 
L 195.800284 105.010081 
L 196.28959 101.280387 
L 196.534243 104.141522 
L 196.778896 112.060736 
L 197.268202 106.415103 
L 197.512855 105.457134 
L 197.757508 107.462483 
L 198.002161 105.022854 
L 198.246814 110.821762 
L 198.491467 123.147635 
L 198.73612 127.835298 
L 198.980773 128.614447 
L 199.470079 113.095343 
L 199.714732 112.443924 
L 200.204038 98.879077 
L 200.693344 105.674273 
L 200.937997 98.623619 
L 201.18265 101.982898 
L 201.427303 90.436174 
L 201.671956 96.069034 
L 201.916609 80.153969 
L 202.161262 77.905934 
L 202.405915 80.754297 
L 202.650568 73.831371 
L 202.895221 79.272637 
L 203.139875 80.294471 
L 203.384528 80.754297 
L 203.629181 66.652988 
L 203.873834 63.12766 
L 204.118487 63.791852 
L 204.36314 71.110738 
L 204.607793 63.945127 
L 204.852446 71.034101 
L 205.097099 72.82231 
L 205.586405 78.391306 
L 205.831058 69.565214 
L 206.075711 71.340651 
L 206.320364 70.791415 
L 206.565017 68.632791 
L 206.80967 69.8079 
L 207.054323 80.664886 
L 207.298976 83.053423 
L 207.543629 87.460082 
L 207.788282 88.073183 
L 208.032935 85.633554 
L 208.277588 92.083881 
L 208.522241 89.235519 
L 208.766894 95.340977 
L 209.011547 90.091305 
L 209.2562 89.976349 
L 209.500853 94.459645 
L 209.745506 101.931806 
L 209.990159 96.963138 
L 210.234812 86.70648 
L 210.479465 83.704842 
L 210.724118 83.232244 
L 210.968771 85.071545 
L 211.213424 87.856043 
L 211.458077 82.874602 
L 211.70273 88.839558 
L 211.947383 89.095017 
L 212.192036 91.700693 
L 212.681342 102.161719 
L 212.925995 101.650802 
L 213.415301 90.116851 
L 213.659954 93.067396 
L 213.904607 100.743924 
L 214.14926 102.391632 
L 214.393913 105.942505 
L 214.638566 107.028203 
L 214.883219 101.638029 
L 215.127872 101.420889 
L 215.372525 91.304733 
L 215.617178 89.261065 
L 215.861831 84.867179 
L 216.106484 89.797528 
L 216.351137 92.262702 
L 216.59579 101.484754 
L 216.840443 101.382571 
L 217.085096 104.537483 
L 217.574402 105.508225 
L 217.819055 105.406042 
L 218.063708 105.968051 
L 218.308361 112.380059 
L 218.797667 102.595998 
L 219.04232 108.688684 
L 219.286973 121.014556 
L 219.531626 111.933007 
L 219.776279 116.173618 
L 220.020932 118.293923 
L 220.265585 118.178967 
L 220.510238 115.126238 
L 220.754891 119.213574 
L 220.999544 117.131587 
L 221.244197 122.917722 
L 221.48885 119.916085 
L 221.733503 122.636718 
L 222.467462 117.604185 
L 222.712115 109.250692 
L 222.956768 110.425801 
L 223.446074 114.155495 
L 223.690727 121.832023 
L 223.93538 123.096543 
L 224.424686 120.656914 
L 224.669339 123.262591 
L 224.913992 113.440212 
L 225.158645 108.816413 
L 225.403298 111.217723 
L 225.647952 105.993596 
L 225.892605 110.055387 
L 226.137258 117.540321 
L 226.381911 120.478093 
L 226.626564 118.064011 
L 226.871217 113.963902 
L 227.11587 116.697308 
L 227.360523 113.286937 
L 227.605176 116.556805 
L 227.849829 122.828312 
L 228.094482 122.483443 
L 228.583788 103.834972 
L 228.828441 108.535408 
L 229.073094 107.75626 
L 229.317747 109.659426 
L 229.807053 118.613246 
L 230.051706 117.374273 
L 230.296359 112.277876 
L 230.785665 110.349164 
L 231.030318 111.741413 
L 231.519624 101.29316 
L 231.764277 102.915322 
L 232.00893 103.158007 
L 232.253583 127.068923 
L 232.742889 122.700582 
L 232.987542 134.145123 
L 233.232195 140.135625 
L 233.476848 135.562918 
L 233.721501 135.677874 
L 233.966154 139.126564 
L 234.45546 141.246869 
L 234.700113 139.85462 
L 234.944766 136.393158 
L 235.189419 138.513463 
L 235.678725 133.161608 
L 236.168031 122.572853 
L 236.412684 127.183879 
L 236.657337 125.57449 
L 236.90199 127.081696 
L 237.146643 130.747525 
L 237.391296 125.433988 
L 237.635949 123.134862 
L 238.125255 121.908661 
L 238.369908 119.903312 
L 238.614561 123.403093 
L 238.859214 124.156696 
L 239.34852 118.779294 
L 239.593173 117.719142 
L 239.837826 120.107678 
L 240.082479 121.040102 
L 240.327132 115.279513 
L 240.571785 113.759535 
L 240.816438 113.542395 
L 241.061091 115.113465 
L 241.305744 112.1246 
L 241.550397 114.244906 
L 241.79505 117.783006 
L 242.284356 126.787918 
L 242.529009 128.601674 
L 242.773662 129.074272 
L 243.018315 131.220123 
L 243.262968 141.438463 
L 243.507621 143.341629 
L 243.752274 147.122415 
L 243.996927 143.30331 
L 244.24158 143.073398 
L 244.486233 136.022743 
L 244.730886 138.564555 
L 244.975539 144.56783 
L 245.220192 140.07176 
L 245.464845 129.419141 
L 245.709498 127.924709 
L 246.443457 117.680823 
L 246.68811 119.443486 
L 246.932763 130.389883 
L 247.177416 168.261606 
L 247.422069 165.732566 
L 247.666722 160.035842 
L 247.911375 162.347741 
L 248.156029 166.843811 
L 248.400682 165.336606 
L 248.889988 160.048615 
L 249.134641 157.979401 
L 249.379294 156.995886 
L 249.8686 177.470884 
L 250.113253 177.381474 
L 250.602559 169.027981 
L 250.847212 170.714007 
L 251.091865 174.826889 
L 251.581171 187.574268 
L 251.825824 202.684638 
L 252.070477 207.908765 
L 252.31513 200.998612 
L 252.559783 188.659967 
L 252.804436 188.570556 
L 253.293742 199.50418 
L 253.538395 193.65418 
L 253.783048 192.466298 
L 254.027701 196.400359 
L 254.517007 191.150687 
L 255.250966 202.441953 
L 255.495619 202.275905 
L 255.740272 190.844137 
L 256.718884 209.020009 
L 256.963537 213.809856 
L 257.20819 213.528852 
L 257.452843 211.29359 
L 257.697496 212.928524 
L 257.942149 208.304725 
L 258.186802 207.372302 
L 258.431455 207.219027 
L 258.676108 193.194355 
L 258.920761 191.77656 
L 259.165414 191.546648 
L 259.65472 202.454726 
L 259.899373 198.67394 
L 260.144026 198.865534 
L 260.388679 195.761713 
L 260.633332 197.652106 
L 260.877985 190.984639 
L 261.122638 190.013897 
L 261.367291 185.31346 
L 261.611944 187.19108 
L 261.856597 191.763787 
L 262.345903 181.583766 
L 262.835209 160.81499 
L 263.079862 162.501016 
L 263.324515 167.035405 
L 263.569168 143.431039 
L 263.813821 133.570341 
L 264.058474 137.006258 
L 264.303127 130.083333 
L 264.792433 127.043377 
L 265.037086 135.077547 
L 265.526392 128.077984 
L 265.771045 129.802329 
L 266.015698 135.154184 
L 266.260351 129.061499 
L 266.505004 131.475582 
L 266.749657 121.384971 
L 266.99431 117.463683 
L 267.238963 118.881478 
L 267.483616 117.897962 
L 267.728269 120.618595 
L 267.972922 125.127438 
L 268.217575 120.299272 
L 268.462228 104.473618 
L 269.196187 117.872417 
L 269.44084 116.825037 
L 269.685493 116.518487 
L 270.174799 126.83901 
L 270.419452 127.413792 
L 270.664106 135.499053 
L 270.908759 135.230822 
L 271.153412 128.537809 
L 271.398065 128.269578 
L 271.642718 131.33508 
L 271.887371 137.747088 
L 272.132024 130.696433 
L 272.62133 131.858769 
L 272.865983 135.17973 
L 273.110636 136.62307 
L 273.355289 134.221761 
L 273.844595 141.42569 
L 274.089248 147.824926 
L 274.333901 143.558769 
L 274.578554 145.806803 
L 274.823207 160.163571 
L 275.06786 164.033767 
L 275.312513 165.272741 
L 275.557166 162.028418 
L 275.801819 170.803418 
L 276.046472 162.896977 
L 276.291125 173.511278 
L 276.535778 170.816191 
L 276.780431 172.144575 
L 277.025084 166.307348 
L 277.269737 164.250907 
L 277.51439 168.887479 
L 277.759043 169.475033 
L 278.003696 180.72798 
L 278.248349 182.426779 
L 278.493002 174.341518 
L 278.737655 177.113243 
L 278.982308 185.134639 
L 279.226961 187.357128 
L 279.471614 187.983002 
L 279.716267 197.243372 
L 279.96092 197.613787 
L 280.205573 203.195555 
L 280.450226 199.235949 
L 280.694879 202.51859 
L 280.939532 187.804181 
L 281.428838 174.009422 
L 281.673491 177.62416 
L 282.162797 167.444138 
L 282.40745 177.215426 
L 282.652103 175.00571 
L 282.896756 180.791845 
L 283.141409 160.891628 
L 283.386062 160.521213 
L 283.630715 161.376999 
L 283.875368 152.716956 
L 284.120021 156.880929 
L 284.364674 156.421104 
L 284.609327 154.824489 
L 284.85398 156.548833 
L 285.098633 162.156147 
L 285.343286 157.442938 
L 285.587939 157.979401 
L 285.832592 149.166083 
L 286.077245 150.392284 
L 286.321898 152.69141 
L 286.566551 149.076672 
L 286.811204 148.578528 
L 287.055857 142.856258 
L 287.30051 143.878092 
L 287.545163 142.243157 
L 287.789816 148.067611 
L 288.034469 146.764773 
L 288.279122 146.368812 
L 288.523775 140.403856 
L 288.768428 140.339992 
L 289.013081 139.075472 
L 289.257734 139.777983 
L 289.502387 141.515101 
L 289.74704 148.118703 
L 289.991693 144.26128 
L 290.236346 149.740864 
L 290.970305 143.52045 
L 291.214958 135.115865 
L 291.459611 132.893376 
L 291.704264 136.086608 
L 291.948917 136.44425 
L 292.19357 134.426127 
L 292.682876 136.699708 
L 293.172183 142.702983 
L 293.416836 142.434751 
L 293.661489 142.817939 
L 293.906142 145.283114 
L 294.150795 134.707132 
L 294.395448 154.364663 
L 294.640101 160.176344 
L 294.884754 156.44665 
L 295.37406 160.712807 
L 295.863366 170.586278 
L 296.352672 176.88333 
L 296.597325 178.837587 
L 296.841978 168.351016 
L 297.086631 164.416955 
L 297.575937 167.648505 
L 297.82059 165.681475 
L 298.065243 166.039117 
L 298.309896 158.196541 
L 298.799202 155.948506 
L 299.043855 146.573179 
L 299.288508 154.837261 
L 299.533161 157.404619 
L 299.777814 158.54141 
L 300.022467 160.968265 
L 300.26712 159.844248 
L 300.756426 167.393047 
L 301.001079 167.035405 
L 301.245732 173.051452 
L 301.490385 173.983876 
L 301.735038 177.445339 
L 301.979691 177.202653 
L 302.224344 171.46761 
L 302.468997 175.09512 
L 302.71365 170.177544 
L 302.958303 174.941845 
L 303.202956 175.682675 
L 303.447609 173.511278 
L 303.692262 179.642282 
L 303.936915 182.452325 
L 304.426221 172.885404 
L 304.670874 171.940208 
L 304.915527 171.889116 
L 305.16018 176.129727 
L 305.404833 176.525688 
L 305.649486 174.149924 
L 305.894139 178.773723 
L 306.138792 169.538898 
L 306.383445 172.157348 
L 306.628098 173.204728 
L 306.872751 172.323396 
L 307.117404 175.018483 
L 307.362057 172.400033 
L 307.60671 176.998286 
L 307.851363 177.688024 
L 308.096016 176.730055 
L 308.585322 178.198941 
L 308.829975 173.370776 
L 309.074628 171.493156 
L 309.319281 171.327108 
L 309.563934 179.029181 
L 309.808587 174.39261 
L 310.05324 177.560295 
L 310.297893 175.657129 
L 310.542546 175.248396 
L 310.787199 169.091846 
L 311.276505 171.442064 
L 311.521158 171.327108 
L 311.765811 168.657566 
L 312.010464 168.32547 
L 312.255117 161.977326 
L 312.49977 161.530274 
L 312.744423 162.258331 
L 313.233729 156.127327 
L 313.478382 160.827763 
L 313.723035 161.287589 
L 313.967688 163.842174 
L 314.212341 162.105056 
L 314.456994 161.313134 
L 314.701647 161.083222 
L 314.9463 158.784095 
L 315.190953 164.378636 
L 315.435607 157.379074 
L 315.68026 155.808004 
L 315.924913 141.400144 
L 316.169566 141.285188 
L 316.414219 143.392721 
L 316.658872 150.2901 
L 316.903525 147.697196 
L 317.148178 150.545559 
L 317.392831 150.187917 
L 317.637484 144.670013 
L 317.882137 146.573179 
L 318.12679 146.918048 
L 318.371443 144.836061 
L 318.616096 132.497416 
L 318.860749 133.238245 
L 319.350055 141.655603 
L 319.594708 139.139337 
L 319.839361 143.08617 
L 320.084014 150.124052 
L 320.328667 150.328419 
L 320.57332 148.450799 
L 320.817973 147.761061 
L 321.062626 147.722742 
L 321.551932 153.227873 
L 321.796585 151.069249 
L 322.041238 156.7532 
L 322.285891 158.835187 
L 322.530544 159.857021 
L 322.775197 158.707458 
L 323.01985 159.167283 
L 323.509156 157.826126 
L 323.753809 159.141737 
L 323.998462 157.110842 
L 324.243115 151.873943 
L 324.732421 162.143375 
L 324.977074 159.231148 
L 325.221727 153.496104 
L 325.711033 161.287589 
L 325.955686 167.303636 
L 326.200339 167.571868 
L 326.444992 168.683112 
L 326.689645 163.752763 
L 326.934298 164.57023 
L 327.178951 167.456911 
L 327.423604 174.086059 
L 327.668257 174.750251 
L 327.91291 176.308548 
L 328.402216 169.909313 
L 328.646869 170.586278 
L 328.891522 172.923723 
L 329.136175 171.25047 
L 329.625481 173.881693 
L 329.870134 172.847086 
L 330.35944 166.792719 
L 330.604093 169.641081 
L 330.848746 174.584203 
L 331.093399 176.385186 
L 331.338052 173.000361 
L 331.582705 171.914662 
L 331.827358 166.601125 
L 332.072011 168.619247 
L 332.316664 164.69796 
L 332.561317 167.686824 
L 332.80597 163.880492 
L 333.050623 165.962479 
L 333.295276 171.135514 
L 333.784582 173.805055 
L 334.029235 171.77416 
L 334.518541 174.826889 
L 334.763194 173.894465 
L 335.2525 171.442064 
L 335.497153 170.215863 
L 335.741806 172.885404 
L 336.475765 156.203964 
L 336.720418 157.596213 
L 336.965071 156.599925 
L 337.209724 152.576454 
L 337.454377 153.840973 
L 337.943684 157.468484 
L 338.188337 156.855384 
L 338.677643 157.966628 
L 338.922296 161.351453 
L 339.166949 158.119903 
L 339.411602 158.01772 
L 339.656255 157.302436 
L 339.900908 159.422741 
L 340.145561 160.50844 
L 340.634867 159.269466 
L 340.87952 160.866082 
L 341.124173 161.402545 
L 341.368826 159.141737 
L 341.613479 155.769685 
L 341.858132 155.30986 
L 342.102785 151.056476 
L 342.347438 151.056476 
L 342.592091 147.876017 
L 342.836744 147.467284 
L 343.081397 149.434314 
L 343.32605 148.399707 
L 343.570703 146.662589 
L 343.815356 146.368812 
L 344.304662 145.295887 
L 344.549315 147.045777 
L 344.793968 159.141737 
L 345.038621 161.951781 
L 345.527927 158.93737 
L 346.017233 160.904401 
L 346.261886 161.530274 
L 346.506539 160.968265 
L 346.751192 160.802217 
L 347.240498 162.245558 
L 347.485151 161.594139 
L 347.729804 162.117829 
L 347.974457 163.139663 
L 348.21911 157.353528 
L 348.463763 157.289663 
L 348.708416 157.915536 
L 348.953069 163.95713 
L 349.197722 166.307348 
L 349.442375 166.243483 
L 349.687028 167.967828 
L 350.176334 166.013571 
L 350.420987 164.902326 
L 350.66564 162.730929 
L 350.910293 162.526562 
L 351.154946 159.358877 
L 351.399599 159.103418 
L 351.644252 162.015645 
L 351.888905 161.428091 
L 352.133558 162.628746 
L 352.378211 160.355165 
L 352.622864 161.900689 
L 352.867517 161.134313 
L 353.11217 162.411606 
L 353.356823 161.517501 
L 353.601476 160.035842 
L 353.846129 155.769685 
L 354.090782 154.709532 
L 354.335435 155.424816 
L 354.580088 152.934096 
L 354.824741 144.04414 
L 355.069394 144.452873 
L 355.314047 142.932895 
L 355.5587 152.678637 
L 355.803353 152.895777 
L 356.292659 156.293375 
L 356.537312 157.174707 
L 356.781965 155.488681 
L 357.026618 156.203964 
L 357.271271 149.166083 
L 357.515924 148.41248 
L 357.760577 144.542284 
L 358.00523 144.248507 
L 358.249883 145.129838 
L 358.494536 139.382022 
L 358.983842 149.868594 
L 359.228495 141.783332 
L 359.473148 138.040865 
L 359.717801 137.900363 
L 359.962454 139.394795 
L 360.207107 137.708769 
L 360.451761 139.701345 
L 360.696414 140.352765 
L 360.941067 145.18093 
L 361.18572 143.699271 
L 361.430373 143.264991 
L 361.675026 143.635406 
L 361.919679 145.627983 
L 362.164332 143.354402 
L 362.408985 145.627983 
L 362.653638 151.605711 
L 363.387597 155.271541 
L 363.876903 160.789444 
L 364.121556 156.893702 
L 364.366209 155.718593 
L 364.610862 152.755275 
L 365.100168 155.348178 
L 365.344821 154.939445 
L 365.589474 158.592501 
L 366.07878 153.445013 
L 366.323433 154.428528 
L 366.568086 153.010733 
L 366.812739 148.080384 
L 367.057392 150.686061 
L 367.302045 151.184205 
L 367.791351 147.339554 
L 368.036004 144.337917 
L 368.280657 144.13355 
L 368.52531 142.051564 
L 368.769963 142.460297 
L 369.259269 139.037153 
L 369.503922 138.513463 
L 369.748575 136.137699 
L 369.993228 129.150909 
L 370.237881 131.194577 
L 370.482534 125.932132 
L 370.727187 126.149272 
L 370.97184 101.880715 
L 371.216493 93.769907 
L 371.461146 94.727877 
L 371.705799 99.377221 
L 371.950452 92.441523 
L 372.195105 94.153095 
L 372.439758 92.7353 
L 372.684411 89.810301 
L 372.929064 88.724602 
L 373.173717 98.598073 
L 373.41837 97.422964 
L 373.663023 97.167505 
L 373.907676 95.072746 
L 374.152329 94.038139 
L 374.396982 100.539557 
L 374.641635 100.999383 
L 374.886288 98.713029 
L 375.130941 94.076457 
L 375.375594 95.507025 
L 375.620247 95.673073 
L 375.8649 94.791741 
L 376.109553 101.893488 
L 376.354206 100.999383 
L 376.843512 91.59851 
L 377.088165 85.735737 
L 377.332818 95.111064 
L 377.577471 92.977986 
L 377.822124 85.046 
L 378.066777 90.091305 
L 378.556083 79.400367 
L 378.800736 80.920345 
L 379.045389 79.745236 
L 379.290042 82.453096 
L 379.534695 77.522747 
L 379.779348 79.081044 
L 380.024001 78.940541 
L 380.268654 77.714341 
L 380.513307 75.606808 
L 380.75796 83.372746 
L 381.002613 81.201349 
L 381.247266 76.564777 
L 381.491919 74.69993 
L 381.736572 66.512485 
L 381.981225 65.260739 
L 382.225878 67.393817 
L 382.470531 71.264013 
L 382.715184 69.603533 
L 382.959838 66.512485 
L 383.204491 60.72635 
L 383.449144 47.71074 
L 383.693797 50.380281 
L 383.93845 51.644801 
L 384.183103 47.365871 
L 384.427756 34.414125 
L 384.672409 37.607356 
L 384.917062 39.331701 
L 385.161715 45.015653 
L 385.406368 44.530282 
L 385.651021 42.959212 
L 385.895674 45.679845 
L 386.140327 46.906046 
L 386.38498 49.997093 
L 386.629633 77.139559 
L 386.874286 80.907572 
L 387.118939 71.302332 
L 387.363592 69.399166 
L 387.608245 73.665323 
L 387.852898 74.367834 
L 387.852898 74.367834 
" style="fill:none;stroke:#ff7f0e;stroke-linecap:square;stroke-width:1.5;"/>
   </g>
   <g id="patch_3">
    <path d="M 46.965625 288.430125 
L 46.965625 22.318125 
" style="fill:none;stroke:#000000;stroke-linecap:square;stroke-linejoin:miter;stroke-width:0.8;"/>
   </g>
   <g id="patch_4">
    <path d="M 404.085625 288.430125 
L 404.085625 22.318125 
" style="fill:none;stroke:#000000;stroke-linecap:square;stroke-linejoin:miter;stroke-width:0.8;"/>
   </g>
   <g id="patch_5">
    <path d="M 46.965625 288.430125 
L 404.085625 288.430125 
" style="fill:none;stroke:#000000;stroke-linecap:square;stroke-linejoin:miter;stroke-width:0.8;"/>
   </g>
   <g id="patch_6">
    <path d="M 46.965625 22.318125 
L 404.085625 22.318125 
" style="fill:none;stroke:#000000;stroke-linecap:square;stroke-linejoin:miter;stroke-width:0.8;"/>
   </g>
   <g id="text_19">
    <!-- Training: BIDU -->
    <defs>
     <path d="M -0.296875 72.90625 
L 61.375 72.90625 
L 61.375 64.59375 
L 35.5 64.59375 
L 35.5 0 
L 25.59375 0 
L 25.59375 64.59375 
L -0.296875 64.59375 
z
" id="DejaVuSans-84"/>
     <path d="M 54.890625 33.015625 
L 54.890625 0 
L 45.90625 0 
L 45.90625 32.71875 
Q 45.90625 40.484375 42.875 44.328125 
Q 39.84375 48.1875 33.796875 48.1875 
Q 26.515625 48.1875 22.3125 43.546875 
Q 18.109375 38.921875 18.109375 30.90625 
L 18.109375 0 
L 9.078125 0 
L 9.078125 54.6875 
L 18.109375 54.6875 
L 18.109375 46.1875 
Q 21.34375 51.125 25.703125 53.5625 
Q 30.078125 56 35.796875 56 
Q 45.21875 56 50.046875 50.171875 
Q 54.890625 44.34375 54.890625 33.015625 
z
" id="DejaVuSans-110"/>
     <path d="M 45.40625 27.984375 
Q 45.40625 37.75 41.375 43.109375 
Q 37.359375 48.484375 30.078125 48.484375 
Q 22.859375 48.484375 18.828125 43.109375 
Q 14.796875 37.75 14.796875 27.984375 
Q 14.796875 18.265625 18.828125 12.890625 
Q 22.859375 7.515625 30.078125 7.515625 
Q 37.359375 7.515625 41.375 12.890625 
Q 45.40625 18.265625 45.40625 27.984375 
z
M 54.390625 6.78125 
Q 54.390625 -7.171875 48.1875 -13.984375 
Q 42 -20.796875 29.203125 -20.796875 
Q 24.46875 -20.796875 20.265625 -20.09375 
Q 16.0625 -19.390625 12.109375 -17.921875 
L 12.109375 -9.1875 
Q 16.0625 -11.328125 19.921875 -12.34375 
Q 23.78125 -13.375 27.78125 -13.375 
Q 36.625 -13.375 41.015625 -8.765625 
Q 45.40625 -4.15625 45.40625 5.171875 
L 45.40625 9.625 
Q 42.625 4.78125 38.28125 2.390625 
Q 33.9375 0 27.875 0 
Q 17.828125 0 11.671875 7.65625 
Q 5.515625 15.328125 5.515625 27.984375 
Q 5.515625 40.671875 11.671875 48.328125 
Q 17.828125 56 27.875 56 
Q 33.9375 56 38.28125 53.609375 
Q 42.625 51.21875 45.40625 46.390625 
L 45.40625 54.6875 
L 54.390625 54.6875 
z
" id="DejaVuSans-103"/>
     <path d="M 11.71875 12.40625 
L 22.015625 12.40625 
L 22.015625 0 
L 11.71875 0 
z
M 11.71875 51.703125 
L 22.015625 51.703125 
L 22.015625 39.3125 
L 11.71875 39.3125 
z
" id="DejaVuSans-58"/>
     <path d="M 19.671875 34.8125 
L 19.671875 8.109375 
L 35.5 8.109375 
Q 43.453125 8.109375 47.28125 11.40625 
Q 51.125 14.703125 51.125 21.484375 
Q 51.125 28.328125 47.28125 31.5625 
Q 43.453125 34.8125 35.5 34.8125 
z
M 19.671875 64.796875 
L 19.671875 42.828125 
L 34.28125 42.828125 
Q 41.5 42.828125 45.03125 45.53125 
Q 48.578125 48.25 48.578125 53.8125 
Q 48.578125 59.328125 45.03125 62.0625 
Q 41.5 64.796875 34.28125 64.796875 
z
M 9.8125 72.90625 
L 35.015625 72.90625 
Q 46.296875 72.90625 52.390625 68.21875 
Q 58.5 63.53125 58.5 54.890625 
Q 58.5 48.1875 55.375 44.234375 
Q 52.25 40.28125 46.1875 39.3125 
Q 53.46875 37.75 57.5 32.78125 
Q 61.53125 27.828125 61.53125 20.40625 
Q 61.53125 10.640625 54.890625 5.3125 
Q 48.25 0 35.984375 0 
L 9.8125 0 
z
" id="DejaVuSans-66"/>
     <path d="M 9.8125 72.90625 
L 19.671875 72.90625 
L 19.671875 0 
L 9.8125 0 
z
" id="DejaVuSans-73"/>
     <path d="M 8.6875 72.90625 
L 18.609375 72.90625 
L 18.609375 28.609375 
Q 18.609375 16.890625 22.84375 11.734375 
Q 27.09375 6.59375 36.625 6.59375 
Q 46.09375 6.59375 50.34375 11.734375 
Q 54.59375 16.890625 54.59375 28.609375 
L 54.59375 72.90625 
L 64.5 72.90625 
L 64.5 27.390625 
Q 64.5 13.140625 57.4375 5.859375 
Q 50.390625 -1.421875 36.625 -1.421875 
Q 22.796875 -1.421875 15.734375 5.859375 
Q 8.6875 13.140625 8.6875 27.390625 
z
" id="DejaVuSans-85"/>
    </defs>
    <g transform="translate(183.02875 16.318125)scale(0.12 -0.12)">
     <use xlink:href="#DejaVuSans-84"/>
     <use x="46.333984" xlink:href="#DejaVuSans-114"/>
     <use x="87.447266" xlink:href="#DejaVuSans-97"/>
     <use x="148.726562" xlink:href="#DejaVuSans-105"/>
     <use x="176.509766" xlink:href="#DejaVuSans-110"/>
     <use x="239.888672" xlink:href="#DejaVuSans-105"/>
     <use x="267.671875" xlink:href="#DejaVuSans-110"/>
     <use x="331.050781" xlink:href="#DejaVuSans-103"/>
     <use x="394.527344" xlink:href="#DejaVuSans-58"/>
     <use x="428.21875" xlink:href="#DejaVuSans-32"/>
     <use x="460.005859" xlink:href="#DejaVuSans-66"/>
     <use x="528.609375" xlink:href="#DejaVuSans-73"/>
     <use x="558.101562" xlink:href="#DejaVuSans-68"/>
     <use x="635.103516" xlink:href="#DejaVuSans-85"/>
    </g>
   </g>
   <g id="legend_1">
    <g id="patch_7">
     <path d="M 53.965625 59.674375 
L 137.69375 59.674375 
Q 139.69375 59.674375 139.69375 57.674375 
L 139.69375 29.318125 
Q 139.69375 27.318125 137.69375 27.318125 
L 53.965625 27.318125 
Q 51.965625 27.318125 51.965625 29.318125 
L 51.965625 57.674375 
Q 51.965625 59.674375 53.965625 59.674375 
z
" style="fill:#ffffff;opacity:0.8;stroke:#cccccc;stroke-linejoin:miter;"/>
    </g>
    <g id="line2d_35">
     <path d="M 55.965625 35.416562 
L 75.965625 35.416562 
" style="fill:none;stroke:#1f77b4;stroke-linecap:square;stroke-width:1.5;"/>
    </g>
    <g id="line2d_36"/>
    <g id="text_20">
     <!-- Predicted -->
     <defs>
      <path d="M 45.40625 46.390625 
L 45.40625 75.984375 
L 54.390625 75.984375 
L 54.390625 0 
L 45.40625 0 
L 45.40625 8.203125 
Q 42.578125 3.328125 38.25 0.953125 
Q 33.9375 -1.421875 27.875 -1.421875 
Q 17.96875 -1.421875 11.734375 6.484375 
Q 5.515625 14.40625 5.515625 27.296875 
Q 5.515625 40.1875 11.734375 48.09375 
Q 17.96875 56 27.875 56 
Q 33.9375 56 38.25 53.625 
Q 42.578125 51.265625 45.40625 46.390625 
z
M 14.796875 27.296875 
Q 14.796875 17.390625 18.875 11.75 
Q 22.953125 6.109375 30.078125 6.109375 
Q 37.203125 6.109375 41.296875 11.75 
Q 45.40625 17.390625 45.40625 27.296875 
Q 45.40625 37.203125 41.296875 42.84375 
Q 37.203125 48.484375 30.078125 48.484375 
Q 22.953125 48.484375 18.875 42.84375 
Q 14.796875 37.203125 14.796875 27.296875 
z
" id="DejaVuSans-100"/>
      <path d="M 18.3125 70.21875 
L 18.3125 54.6875 
L 36.8125 54.6875 
L 36.8125 47.703125 
L 18.3125 47.703125 
L 18.3125 18.015625 
Q 18.3125 11.328125 20.140625 9.421875 
Q 21.96875 7.515625 27.59375 7.515625 
L 36.8125 7.515625 
L 36.8125 0 
L 27.59375 0 
Q 17.1875 0 13.234375 3.875 
Q 9.28125 7.765625 9.28125 18.015625 
L 9.28125 47.703125 
L 2.6875 47.703125 
L 2.6875 54.6875 
L 9.28125 54.6875 
L 9.28125 70.21875 
z
" id="DejaVuSans-116"/>
     </defs>
     <g transform="translate(83.965625 38.916562)scale(0.1 -0.1)">
      <use xlink:href="#DejaVuSans-80"/>
      <use x="58.552734" xlink:href="#DejaVuSans-114"/>
      <use x="97.416016" xlink:href="#DejaVuSans-101"/>
      <use x="158.939453" xlink:href="#DejaVuSans-100"/>
      <use x="222.416016" xlink:href="#DejaVuSans-105"/>
      <use x="250.199219" xlink:href="#DejaVuSans-99"/>
      <use x="305.179688" xlink:href="#DejaVuSans-116"/>
      <use x="344.388672" xlink:href="#DejaVuSans-101"/>
      <use x="405.912109" xlink:href="#DejaVuSans-100"/>
     </g>
    </g>
    <g id="line2d_37">
     <path d="M 55.965625 50.094687 
L 75.965625 50.094687 
" style="fill:none;stroke:#ff7f0e;stroke-linecap:square;stroke-width:1.5;"/>
    </g>
    <g id="line2d_38"/>
    <g id="text_21">
     <!-- True value -->
     <defs>
      <path d="M 8.5 21.578125 
L 8.5 54.6875 
L 17.484375 54.6875 
L 17.484375 21.921875 
Q 17.484375 14.15625 20.5 10.265625 
Q 23.53125 6.390625 29.59375 6.390625 
Q 36.859375 6.390625 41.078125 11.03125 
Q 45.3125 15.671875 45.3125 23.6875 
L 45.3125 54.6875 
L 54.296875 54.6875 
L 54.296875 0 
L 45.3125 0 
L 45.3125 8.40625 
Q 42.046875 3.421875 37.71875 1 
Q 33.40625 -1.421875 27.6875 -1.421875 
Q 18.265625 -1.421875 13.375 4.4375 
Q 8.5 10.296875 8.5 21.578125 
z
M 31.109375 56 
z
" id="DejaVuSans-117"/>
      <path d="M 2.984375 54.6875 
L 12.5 54.6875 
L 29.59375 8.796875 
L 46.6875 54.6875 
L 56.203125 54.6875 
L 35.6875 0 
L 23.484375 0 
z
" id="DejaVuSans-118"/>
      <path d="M 9.421875 75.984375 
L 18.40625 75.984375 
L 18.40625 0 
L 9.421875 0 
z
" id="DejaVuSans-108"/>
     </defs>
     <g transform="translate(83.965625 53.594687)scale(0.1 -0.1)">
      <use xlink:href="#DejaVuSans-84"/>
      <use x="46.333984" xlink:href="#DejaVuSans-114"/>
      <use x="87.447266" xlink:href="#DejaVuSans-117"/>
      <use x="150.826172" xlink:href="#DejaVuSans-101"/>
      <use x="212.349609" xlink:href="#DejaVuSans-32"/>
      <use x="244.136719" xlink:href="#DejaVuSans-118"/>
      <use x="303.316406" xlink:href="#DejaVuSans-97"/>
      <use x="364.595703" xlink:href="#DejaVuSans-108"/>
      <use x="392.378906" xlink:href="#DejaVuSans-117"/>
      <use x="455.757812" xlink:href="#DejaVuSans-101"/>
     </g>
    </g>
   </g>
  </g>
 </g>
 <defs>
  <clipPath id="pf8c40dc179">
   <rect height="266.112" width="357.12" x="46.965625" y="22.318125"/>
  </clipPath>
 </defs>
</svg>
