<?xml version="1.0" encoding="utf-8" standalone="no"?>
<!DOCTYPE svg PUBLIC "-//W3C//DTD SVG 1.1//EN"
  "http://www.w3.org/Graphics/SVG/1.1/DTD/svg11.dtd">
<!-- Created with matplotlib (https://matplotlib.org/) -->
<svg height="325.986375pt" version="1.1" viewBox="0 0 411.285625 325.986375" width="411.285625pt" xmlns="http://www.w3.org/2000/svg" xmlns:xlink="http://www.w3.org/1999/xlink">
 <defs>
  <style type="text/css">
*{stroke-linecap:butt;stroke-linejoin:round;}
  </style>
 </defs>
 <g id="figure_1">
  <g id="patch_1">
   <path d="M 0 325.986375 
L 411.285625 325.986375 
L 411.285625 0 
L 0 0 
z
" style="fill:#ffffff;"/>
  </g>
  <g id="axes_1">
   <g id="patch_2">
    <path d="M 46.965625 288.430125 
L 404.085625 288.430125 
L 404.085625 22.318125 
L 46.965625 22.318125 
z
" style="fill:#ffffff;"/>
   </g>
   <g id="matplotlib.axis_1">
    <g id="xtick_1">
     <g id="line2d_1">
      <path clip-path="url(#p67783a3663)" d="M 63.198352 288.430125 
L 63.198352 22.318125 
" style="fill:none;stroke:#b0b0b0;stroke-dasharray:2.96,1.28;stroke-dashoffset:0;stroke-width:0.8;"/>
     </g>
     <g id="line2d_2">
      <defs>
       <path d="M 0 0 
L 0 3.5 
" id="me151a6d993" style="stroke:#000000;stroke-width:0.8;"/>
      </defs>
      <g>
       <use style="stroke:#000000;stroke-width:0.8;" x="63.198352" xlink:href="#me151a6d993" y="288.430125"/>
      </g>
     </g>
     <g id="text_1">
      <!-- 0 -->
      <defs>
       <path d="M 31.78125 66.40625 
Q 24.171875 66.40625 20.328125 58.90625 
Q 16.5 51.421875 16.5 36.375 
Q 16.5 21.390625 20.328125 13.890625 
Q 24.171875 6.390625 31.78125 6.390625 
Q 39.453125 6.390625 43.28125 13.890625 
Q 47.125 21.390625 47.125 36.375 
Q 47.125 51.421875 43.28125 58.90625 
Q 39.453125 66.40625 31.78125 66.40625 
z
M 31.78125 74.21875 
Q 44.046875 74.21875 50.515625 64.515625 
Q 56.984375 54.828125 56.984375 36.375 
Q 56.984375 17.96875 50.515625 8.265625 
Q 44.046875 -1.421875 31.78125 -1.421875 
Q 19.53125 -1.421875 13.0625 8.265625 
Q 6.59375 17.96875 6.59375 36.375 
Q 6.59375 54.828125 13.0625 64.515625 
Q 19.53125 74.21875 31.78125 74.21875 
z
" id="DejaVuSans-48"/>
      </defs>
      <g transform="translate(60.017102 303.028562)scale(0.1 -0.1)">
       <use xlink:href="#DejaVuSans-48"/>
      </g>
     </g>
    </g>
    <g id="xtick_2">
     <g id="line2d_3">
      <path clip-path="url(#p67783a3663)" d="M 112.128954 288.430125 
L 112.128954 22.318125 
" style="fill:none;stroke:#b0b0b0;stroke-dasharray:2.96,1.28;stroke-dashoffset:0;stroke-width:0.8;"/>
     </g>
     <g id="line2d_4">
      <g>
       <use style="stroke:#000000;stroke-width:0.8;" x="112.128954" xlink:href="#me151a6d993" y="288.430125"/>
      </g>
     </g>
     <g id="text_2">
      <!-- 200 -->
      <defs>
       <path d="M 19.1875 8.296875 
L 53.609375 8.296875 
L 53.609375 0 
L 7.328125 0 
L 7.328125 8.296875 
Q 12.9375 14.109375 22.625 23.890625 
Q 32.328125 33.6875 34.8125 36.53125 
Q 39.546875 41.84375 41.421875 45.53125 
Q 43.3125 49.21875 43.3125 52.78125 
Q 43.3125 58.59375 39.234375 62.25 
Q 35.15625 65.921875 28.609375 65.921875 
Q 23.96875 65.921875 18.8125 64.3125 
Q 13.671875 62.703125 7.8125 59.421875 
L 7.8125 69.390625 
Q 13.765625 71.78125 18.9375 73 
Q 24.125 74.21875 28.421875 74.21875 
Q 39.75 74.21875 46.484375 68.546875 
Q 53.21875 62.890625 53.21875 53.421875 
Q 53.21875 48.921875 51.53125 44.890625 
Q 49.859375 40.875 45.40625 35.40625 
Q 44.1875 33.984375 37.640625 27.21875 
Q 31.109375 20.453125 19.1875 8.296875 
z
" id="DejaVuSans-50"/>
      </defs>
      <g transform="translate(102.585204 303.028562)scale(0.1 -0.1)">
       <use xlink:href="#DejaVuSans-50"/>
       <use x="63.623047" xlink:href="#DejaVuSans-48"/>
       <use x="127.246094" xlink:href="#DejaVuSans-48"/>
      </g>
     </g>
    </g>
    <g id="xtick_3">
     <g id="line2d_5">
      <path clip-path="url(#p67783a3663)" d="M 161.059557 288.430125 
L 161.059557 22.318125 
" style="fill:none;stroke:#b0b0b0;stroke-dasharray:2.96,1.28;stroke-dashoffset:0;stroke-width:0.8;"/>
     </g>
     <g id="line2d_6">
      <g>
       <use style="stroke:#000000;stroke-width:0.8;" x="161.059557" xlink:href="#me151a6d993" y="288.430125"/>
      </g>
     </g>
     <g id="text_3">
      <!-- 400 -->
      <defs>
       <path d="M 37.796875 64.3125 
L 12.890625 25.390625 
L 37.796875 25.390625 
z
M 35.203125 72.90625 
L 47.609375 72.90625 
L 47.609375 25.390625 
L 58.015625 25.390625 
L 58.015625 17.1875 
L 47.609375 17.1875 
L 47.609375 0 
L 37.796875 0 
L 37.796875 17.1875 
L 4.890625 17.1875 
L 4.890625 26.703125 
z
" id="DejaVuSans-52"/>
      </defs>
      <g transform="translate(151.515807 303.028562)scale(0.1 -0.1)">
       <use xlink:href="#DejaVuSans-52"/>
       <use x="63.623047" xlink:href="#DejaVuSans-48"/>
       <use x="127.246094" xlink:href="#DejaVuSans-48"/>
      </g>
     </g>
    </g>
    <g id="xtick_4">
     <g id="line2d_7">
      <path clip-path="url(#p67783a3663)" d="M 209.990159 288.430125 
L 209.990159 22.318125 
" style="fill:none;stroke:#b0b0b0;stroke-dasharray:2.96,1.28;stroke-dashoffset:0;stroke-width:0.8;"/>
     </g>
     <g id="line2d_8">
      <g>
       <use style="stroke:#000000;stroke-width:0.8;" x="209.990159" xlink:href="#me151a6d993" y="288.430125"/>
      </g>
     </g>
     <g id="text_4">
      <!-- 600 -->
      <defs>
       <path d="M 33.015625 40.375 
Q 26.375 40.375 22.484375 35.828125 
Q 18.609375 31.296875 18.609375 23.390625 
Q 18.609375 15.53125 22.484375 10.953125 
Q 26.375 6.390625 33.015625 6.390625 
Q 39.65625 6.390625 43.53125 10.953125 
Q 47.40625 15.53125 47.40625 23.390625 
Q 47.40625 31.296875 43.53125 35.828125 
Q 39.65625 40.375 33.015625 40.375 
z
M 52.59375 71.296875 
L 52.59375 62.3125 
Q 48.875 64.0625 45.09375 64.984375 
Q 41.3125 65.921875 37.59375 65.921875 
Q 27.828125 65.921875 22.671875 59.328125 
Q 17.53125 52.734375 16.796875 39.40625 
Q 19.671875 43.65625 24.015625 45.921875 
Q 28.375 48.1875 33.59375 48.1875 
Q 44.578125 48.1875 50.953125 41.515625 
Q 57.328125 34.859375 57.328125 23.390625 
Q 57.328125 12.15625 50.6875 5.359375 
Q 44.046875 -1.421875 33.015625 -1.421875 
Q 20.359375 -1.421875 13.671875 8.265625 
Q 6.984375 17.96875 6.984375 36.375 
Q 6.984375 53.65625 15.1875 63.9375 
Q 23.390625 74.21875 37.203125 74.21875 
Q 40.921875 74.21875 44.703125 73.484375 
Q 48.484375 72.75 52.59375 71.296875 
z
" id="DejaVuSans-54"/>
      </defs>
      <g transform="translate(200.446409 303.028562)scale(0.1 -0.1)">
       <use xlink:href="#DejaVuSans-54"/>
       <use x="63.623047" xlink:href="#DejaVuSans-48"/>
       <use x="127.246094" xlink:href="#DejaVuSans-48"/>
      </g>
     </g>
    </g>
    <g id="xtick_5">
     <g id="line2d_9">
      <path clip-path="url(#p67783a3663)" d="M 258.920761 288.430125 
L 258.920761 22.318125 
" style="fill:none;stroke:#b0b0b0;stroke-dasharray:2.96,1.28;stroke-dashoffset:0;stroke-width:0.8;"/>
     </g>
     <g id="line2d_10">
      <g>
       <use style="stroke:#000000;stroke-width:0.8;" x="258.920761" xlink:href="#me151a6d993" y="288.430125"/>
      </g>
     </g>
     <g id="text_5">
      <!-- 800 -->
      <defs>
       <path d="M 31.78125 34.625 
Q 24.75 34.625 20.71875 30.859375 
Q 16.703125 27.09375 16.703125 20.515625 
Q 16.703125 13.921875 20.71875 10.15625 
Q 24.75 6.390625 31.78125 6.390625 
Q 38.8125 6.390625 42.859375 10.171875 
Q 46.921875 13.96875 46.921875 20.515625 
Q 46.921875 27.09375 42.890625 30.859375 
Q 38.875 34.625 31.78125 34.625 
z
M 21.921875 38.8125 
Q 15.578125 40.375 12.03125 44.71875 
Q 8.5 49.078125 8.5 55.328125 
Q 8.5 64.0625 14.71875 69.140625 
Q 20.953125 74.21875 31.78125 74.21875 
Q 42.671875 74.21875 48.875 69.140625 
Q 55.078125 64.0625 55.078125 55.328125 
Q 55.078125 49.078125 51.53125 44.71875 
Q 48 40.375 41.703125 38.8125 
Q 48.828125 37.15625 52.796875 32.3125 
Q 56.78125 27.484375 56.78125 20.515625 
Q 56.78125 9.90625 50.3125 4.234375 
Q 43.84375 -1.421875 31.78125 -1.421875 
Q 19.734375 -1.421875 13.25 4.234375 
Q 6.78125 9.90625 6.78125 20.515625 
Q 6.78125 27.484375 10.78125 32.3125 
Q 14.796875 37.15625 21.921875 38.8125 
z
M 18.3125 54.390625 
Q 18.3125 48.734375 21.84375 45.5625 
Q 25.390625 42.390625 31.78125 42.390625 
Q 38.140625 42.390625 41.71875 45.5625 
Q 45.3125 48.734375 45.3125 54.390625 
Q 45.3125 60.0625 41.71875 63.234375 
Q 38.140625 66.40625 31.78125 66.40625 
Q 25.390625 66.40625 21.84375 63.234375 
Q 18.3125 60.0625 18.3125 54.390625 
z
" id="DejaVuSans-56"/>
      </defs>
      <g transform="translate(249.377011 303.028562)scale(0.1 -0.1)">
       <use xlink:href="#DejaVuSans-56"/>
       <use x="63.623047" xlink:href="#DejaVuSans-48"/>
       <use x="127.246094" xlink:href="#DejaVuSans-48"/>
      </g>
     </g>
    </g>
    <g id="xtick_6">
     <g id="line2d_11">
      <path clip-path="url(#p67783a3663)" d="M 307.851363 288.430125 
L 307.851363 22.318125 
" style="fill:none;stroke:#b0b0b0;stroke-dasharray:2.96,1.28;stroke-dashoffset:0;stroke-width:0.8;"/>
     </g>
     <g id="line2d_12">
      <g>
       <use style="stroke:#000000;stroke-width:0.8;" x="307.851363" xlink:href="#me151a6d993" y="288.430125"/>
      </g>
     </g>
     <g id="text_6">
      <!-- 1000 -->
      <defs>
       <path d="M 12.40625 8.296875 
L 28.515625 8.296875 
L 28.515625 63.921875 
L 10.984375 60.40625 
L 10.984375 69.390625 
L 28.421875 72.90625 
L 38.28125 72.90625 
L 38.28125 8.296875 
L 54.390625 8.296875 
L 54.390625 0 
L 12.40625 0 
z
" id="DejaVuSans-49"/>
      </defs>
      <g transform="translate(295.126363 303.028562)scale(0.1 -0.1)">
       <use xlink:href="#DejaVuSans-49"/>
       <use x="63.623047" xlink:href="#DejaVuSans-48"/>
       <use x="127.246094" xlink:href="#DejaVuSans-48"/>
       <use x="190.869141" xlink:href="#DejaVuSans-48"/>
      </g>
     </g>
    </g>
    <g id="xtick_7">
     <g id="line2d_13">
      <path clip-path="url(#p67783a3663)" d="M 356.781965 288.430125 
L 356.781965 22.318125 
" style="fill:none;stroke:#b0b0b0;stroke-dasharray:2.96,1.28;stroke-dashoffset:0;stroke-width:0.8;"/>
     </g>
     <g id="line2d_14">
      <g>
       <use style="stroke:#000000;stroke-width:0.8;" x="356.781965" xlink:href="#me151a6d993" y="288.430125"/>
      </g>
     </g>
     <g id="text_7">
      <!-- 1200 -->
      <g transform="translate(344.056965 303.028562)scale(0.1 -0.1)">
       <use xlink:href="#DejaVuSans-49"/>
       <use x="63.623047" xlink:href="#DejaVuSans-50"/>
       <use x="127.246094" xlink:href="#DejaVuSans-48"/>
       <use x="190.869141" xlink:href="#DejaVuSans-48"/>
      </g>
     </g>
    </g>
    <g id="text_8">
     <!-- Day -->
     <defs>
      <path d="M 19.671875 64.796875 
L 19.671875 8.109375 
L 31.59375 8.109375 
Q 46.6875 8.109375 53.6875 14.9375 
Q 60.6875 21.78125 60.6875 36.53125 
Q 60.6875 51.171875 53.6875 57.984375 
Q 46.6875 64.796875 31.59375 64.796875 
z
M 9.8125 72.90625 
L 30.078125 72.90625 
Q 51.265625 72.90625 61.171875 64.09375 
Q 71.09375 55.28125 71.09375 36.53125 
Q 71.09375 17.671875 61.125 8.828125 
Q 51.171875 0 30.078125 0 
L 9.8125 0 
z
" id="DejaVuSans-68"/>
      <path d="M 34.28125 27.484375 
Q 23.390625 27.484375 19.1875 25 
Q 14.984375 22.515625 14.984375 16.5 
Q 14.984375 11.71875 18.140625 8.90625 
Q 21.296875 6.109375 26.703125 6.109375 
Q 34.1875 6.109375 38.703125 11.40625 
Q 43.21875 16.703125 43.21875 25.484375 
L 43.21875 27.484375 
z
M 52.203125 31.203125 
L 52.203125 0 
L 43.21875 0 
L 43.21875 8.296875 
Q 40.140625 3.328125 35.546875 0.953125 
Q 30.953125 -1.421875 24.3125 -1.421875 
Q 15.921875 -1.421875 10.953125 3.296875 
Q 6 8.015625 6 15.921875 
Q 6 25.140625 12.171875 29.828125 
Q 18.359375 34.515625 30.609375 34.515625 
L 43.21875 34.515625 
L 43.21875 35.40625 
Q 43.21875 41.609375 39.140625 45 
Q 35.0625 48.390625 27.6875 48.390625 
Q 23 48.390625 18.546875 47.265625 
Q 14.109375 46.140625 10.015625 43.890625 
L 10.015625 52.203125 
Q 14.9375 54.109375 19.578125 55.046875 
Q 24.21875 56 28.609375 56 
Q 40.484375 56 46.34375 49.84375 
Q 52.203125 43.703125 52.203125 31.203125 
z
" id="DejaVuSans-97"/>
      <path d="M 32.171875 -5.078125 
Q 28.375 -14.84375 24.75 -17.8125 
Q 21.140625 -20.796875 15.09375 -20.796875 
L 7.90625 -20.796875 
L 7.90625 -13.28125 
L 13.1875 -13.28125 
Q 16.890625 -13.28125 18.9375 -11.515625 
Q 21 -9.765625 23.484375 -3.21875 
L 25.09375 0.875 
L 2.984375 54.6875 
L 12.5 54.6875 
L 29.59375 11.921875 
L 46.6875 54.6875 
L 56.203125 54.6875 
z
" id="DejaVuSans-121"/>
     </defs>
     <g transform="translate(215.652188 316.706687)scale(0.1 -0.1)">
      <use xlink:href="#DejaVuSans-68"/>
      <use x="77.001953" xlink:href="#DejaVuSans-97"/>
      <use x="138.28125" xlink:href="#DejaVuSans-121"/>
     </g>
    </g>
   </g>
   <g id="matplotlib.axis_2">
    <g id="ytick_1">
     <g id="line2d_15">
      <path clip-path="url(#p67783a3663)" d="M 46.965625 287.16085 
L 404.085625 287.16085 
" style="fill:none;stroke:#b0b0b0;stroke-dasharray:2.96,1.28;stroke-dashoffset:0;stroke-width:0.8;"/>
     </g>
     <g id="line2d_16">
      <defs>
       <path d="M 0 0 
L -3.5 0 
" id="m45080c4e47" style="stroke:#000000;stroke-width:0.8;"/>
      </defs>
      <g>
       <use style="stroke:#000000;stroke-width:0.8;" x="46.965625" xlink:href="#m45080c4e47" y="287.16085"/>
      </g>
     </g>
     <g id="text_9">
      <!-- 75 -->
      <defs>
       <path d="M 8.203125 72.90625 
L 55.078125 72.90625 
L 55.078125 68.703125 
L 28.609375 0 
L 18.3125 0 
L 43.21875 64.59375 
L 8.203125 64.59375 
z
" id="DejaVuSans-55"/>
       <path d="M 10.796875 72.90625 
L 49.515625 72.90625 
L 49.515625 64.59375 
L 19.828125 64.59375 
L 19.828125 46.734375 
Q 21.96875 47.46875 24.109375 47.828125 
Q 26.265625 48.1875 28.421875 48.1875 
Q 40.625 48.1875 47.75 41.5 
Q 54.890625 34.8125 54.890625 23.390625 
Q 54.890625 11.625 47.5625 5.09375 
Q 40.234375 -1.421875 26.90625 -1.421875 
Q 22.3125 -1.421875 17.546875 -0.640625 
Q 12.796875 0.140625 7.71875 1.703125 
L 7.71875 11.625 
Q 12.109375 9.234375 16.796875 8.0625 
Q 21.484375 6.890625 26.703125 6.890625 
Q 35.15625 6.890625 40.078125 11.328125 
Q 45.015625 15.765625 45.015625 23.390625 
Q 45.015625 31 40.078125 35.4375 
Q 35.15625 39.890625 26.703125 39.890625 
Q 22.75 39.890625 18.8125 39.015625 
Q 14.890625 38.140625 10.796875 36.28125 
z
" id="DejaVuSans-53"/>
      </defs>
      <g transform="translate(27.240625 290.960069)scale(0.1 -0.1)">
       <use xlink:href="#DejaVuSans-55"/>
       <use x="63.623047" xlink:href="#DejaVuSans-53"/>
      </g>
     </g>
    </g>
    <g id="ytick_2">
     <g id="line2d_17">
      <path clip-path="url(#p67783a3663)" d="M 46.965625 255.219347 
L 404.085625 255.219347 
" style="fill:none;stroke:#b0b0b0;stroke-dasharray:2.96,1.28;stroke-dashoffset:0;stroke-width:0.8;"/>
     </g>
     <g id="line2d_18">
      <g>
       <use style="stroke:#000000;stroke-width:0.8;" x="46.965625" xlink:href="#m45080c4e47" y="255.219347"/>
      </g>
     </g>
     <g id="text_10">
      <!-- 100 -->
      <g transform="translate(20.878125 259.018566)scale(0.1 -0.1)">
       <use xlink:href="#DejaVuSans-49"/>
       <use x="63.623047" xlink:href="#DejaVuSans-48"/>
       <use x="127.246094" xlink:href="#DejaVuSans-48"/>
      </g>
     </g>
    </g>
    <g id="ytick_3">
     <g id="line2d_19">
      <path clip-path="url(#p67783a3663)" d="M 46.965625 223.277844 
L 404.085625 223.277844 
" style="fill:none;stroke:#b0b0b0;stroke-dasharray:2.96,1.28;stroke-dashoffset:0;stroke-width:0.8;"/>
     </g>
     <g id="line2d_20">
      <g>
       <use style="stroke:#000000;stroke-width:0.8;" x="46.965625" xlink:href="#m45080c4e47" y="223.277844"/>
      </g>
     </g>
     <g id="text_11">
      <!-- 125 -->
      <g transform="translate(20.878125 227.077063)scale(0.1 -0.1)">
       <use xlink:href="#DejaVuSans-49"/>
       <use x="63.623047" xlink:href="#DejaVuSans-50"/>
       <use x="127.246094" xlink:href="#DejaVuSans-53"/>
      </g>
     </g>
    </g>
    <g id="ytick_4">
     <g id="line2d_21">
      <path clip-path="url(#p67783a3663)" d="M 46.965625 191.336341 
L 404.085625 191.336341 
" style="fill:none;stroke:#b0b0b0;stroke-dasharray:2.96,1.28;stroke-dashoffset:0;stroke-width:0.8;"/>
     </g>
     <g id="line2d_22">
      <g>
       <use style="stroke:#000000;stroke-width:0.8;" x="46.965625" xlink:href="#m45080c4e47" y="191.336341"/>
      </g>
     </g>
     <g id="text_12">
      <!-- 150 -->
      <g transform="translate(20.878125 195.13556)scale(0.1 -0.1)">
       <use xlink:href="#DejaVuSans-49"/>
       <use x="63.623047" xlink:href="#DejaVuSans-53"/>
       <use x="127.246094" xlink:href="#DejaVuSans-48"/>
      </g>
     </g>
    </g>
    <g id="ytick_5">
     <g id="line2d_23">
      <path clip-path="url(#p67783a3663)" d="M 46.965625 159.394838 
L 404.085625 159.394838 
" style="fill:none;stroke:#b0b0b0;stroke-dasharray:2.96,1.28;stroke-dashoffset:0;stroke-width:0.8;"/>
     </g>
     <g id="line2d_24">
      <g>
       <use style="stroke:#000000;stroke-width:0.8;" x="46.965625" xlink:href="#m45080c4e47" y="159.394838"/>
      </g>
     </g>
     <g id="text_13">
      <!-- 175 -->
      <g transform="translate(20.878125 163.194057)scale(0.1 -0.1)">
       <use xlink:href="#DejaVuSans-49"/>
       <use x="63.623047" xlink:href="#DejaVuSans-55"/>
       <use x="127.246094" xlink:href="#DejaVuSans-53"/>
      </g>
     </g>
    </g>
    <g id="ytick_6">
     <g id="line2d_25">
      <path clip-path="url(#p67783a3663)" d="M 46.965625 127.453335 
L 404.085625 127.453335 
" style="fill:none;stroke:#b0b0b0;stroke-dasharray:2.96,1.28;stroke-dashoffset:0;stroke-width:0.8;"/>
     </g>
     <g id="line2d_26">
      <g>
       <use style="stroke:#000000;stroke-width:0.8;" x="46.965625" xlink:href="#m45080c4e47" y="127.453335"/>
      </g>
     </g>
     <g id="text_14">
      <!-- 200 -->
      <g transform="translate(20.878125 131.252554)scale(0.1 -0.1)">
       <use xlink:href="#DejaVuSans-50"/>
       <use x="63.623047" xlink:href="#DejaVuSans-48"/>
       <use x="127.246094" xlink:href="#DejaVuSans-48"/>
      </g>
     </g>
    </g>
    <g id="ytick_7">
     <g id="line2d_27">
      <path clip-path="url(#p67783a3663)" d="M 46.965625 95.511832 
L 404.085625 95.511832 
" style="fill:none;stroke:#b0b0b0;stroke-dasharray:2.96,1.28;stroke-dashoffset:0;stroke-width:0.8;"/>
     </g>
     <g id="line2d_28">
      <g>
       <use style="stroke:#000000;stroke-width:0.8;" x="46.965625" xlink:href="#m45080c4e47" y="95.511832"/>
      </g>
     </g>
     <g id="text_15">
      <!-- 225 -->
      <g transform="translate(20.878125 99.311051)scale(0.1 -0.1)">
       <use xlink:href="#DejaVuSans-50"/>
       <use x="63.623047" xlink:href="#DejaVuSans-50"/>
       <use x="127.246094" xlink:href="#DejaVuSans-53"/>
      </g>
     </g>
    </g>
    <g id="ytick_8">
     <g id="line2d_29">
      <path clip-path="url(#p67783a3663)" d="M 46.965625 63.570329 
L 404.085625 63.570329 
" style="fill:none;stroke:#b0b0b0;stroke-dasharray:2.96,1.28;stroke-dashoffset:0;stroke-width:0.8;"/>
     </g>
     <g id="line2d_30">
      <g>
       <use style="stroke:#000000;stroke-width:0.8;" x="46.965625" xlink:href="#m45080c4e47" y="63.570329"/>
      </g>
     </g>
     <g id="text_16">
      <!-- 250 -->
      <g transform="translate(20.878125 67.369548)scale(0.1 -0.1)">
       <use xlink:href="#DejaVuSans-50"/>
       <use x="63.623047" xlink:href="#DejaVuSans-53"/>
       <use x="127.246094" xlink:href="#DejaVuSans-48"/>
      </g>
     </g>
    </g>
    <g id="ytick_9">
     <g id="line2d_31">
      <path clip-path="url(#p67783a3663)" d="M 46.965625 31.628826 
L 404.085625 31.628826 
" style="fill:none;stroke:#b0b0b0;stroke-dasharray:2.96,1.28;stroke-dashoffset:0;stroke-width:0.8;"/>
     </g>
     <g id="line2d_32">
      <g>
       <use style="stroke:#000000;stroke-width:0.8;" x="46.965625" xlink:href="#m45080c4e47" y="31.628826"/>
      </g>
     </g>
     <g id="text_17">
      <!-- 275 -->
      <g transform="translate(20.878125 35.428045)scale(0.1 -0.1)">
       <use xlink:href="#DejaVuSans-50"/>
       <use x="63.623047" xlink:href="#DejaVuSans-55"/>
       <use x="127.246094" xlink:href="#DejaVuSans-53"/>
      </g>
     </g>
    </g>
    <g id="text_18">
     <!-- Price $ -->
     <defs>
      <path d="M 19.671875 64.796875 
L 19.671875 37.40625 
L 32.078125 37.40625 
Q 38.96875 37.40625 42.71875 40.96875 
Q 46.484375 44.53125 46.484375 51.125 
Q 46.484375 57.671875 42.71875 61.234375 
Q 38.96875 64.796875 32.078125 64.796875 
z
M 9.8125 72.90625 
L 32.078125 72.90625 
Q 44.34375 72.90625 50.609375 67.359375 
Q 56.890625 61.8125 56.890625 51.125 
Q 56.890625 40.328125 50.609375 34.8125 
Q 44.34375 29.296875 32.078125 29.296875 
L 19.671875 29.296875 
L 19.671875 0 
L 9.8125 0 
z
" id="DejaVuSans-80"/>
      <path d="M 41.109375 46.296875 
Q 39.59375 47.171875 37.8125 47.578125 
Q 36.03125 48 33.890625 48 
Q 26.265625 48 22.1875 43.046875 
Q 18.109375 38.09375 18.109375 28.8125 
L 18.109375 0 
L 9.078125 0 
L 9.078125 54.6875 
L 18.109375 54.6875 
L 18.109375 46.1875 
Q 20.953125 51.171875 25.484375 53.578125 
Q 30.03125 56 36.53125 56 
Q 37.453125 56 38.578125 55.875 
Q 39.703125 55.765625 41.0625 55.515625 
z
" id="DejaVuSans-114"/>
      <path d="M 9.421875 54.6875 
L 18.40625 54.6875 
L 18.40625 0 
L 9.421875 0 
z
M 9.421875 75.984375 
L 18.40625 75.984375 
L 18.40625 64.59375 
L 9.421875 64.59375 
z
" id="DejaVuSans-105"/>
      <path d="M 48.78125 52.59375 
L 48.78125 44.1875 
Q 44.96875 46.296875 41.140625 47.34375 
Q 37.3125 48.390625 33.40625 48.390625 
Q 24.65625 48.390625 19.8125 42.84375 
Q 14.984375 37.3125 14.984375 27.296875 
Q 14.984375 17.28125 19.8125 11.734375 
Q 24.65625 6.203125 33.40625 6.203125 
Q 37.3125 6.203125 41.140625 7.25 
Q 44.96875 8.296875 48.78125 10.40625 
L 48.78125 2.09375 
Q 45.015625 0.34375 40.984375 -0.53125 
Q 36.96875 -1.421875 32.421875 -1.421875 
Q 20.0625 -1.421875 12.78125 6.34375 
Q 5.515625 14.109375 5.515625 27.296875 
Q 5.515625 40.671875 12.859375 48.328125 
Q 20.21875 56 33.015625 56 
Q 37.15625 56 41.109375 55.140625 
Q 45.0625 54.296875 48.78125 52.59375 
z
" id="DejaVuSans-99"/>
      <path d="M 56.203125 29.59375 
L 56.203125 25.203125 
L 14.890625 25.203125 
Q 15.484375 15.921875 20.484375 11.0625 
Q 25.484375 6.203125 34.421875 6.203125 
Q 39.59375 6.203125 44.453125 7.46875 
Q 49.3125 8.734375 54.109375 11.28125 
L 54.109375 2.78125 
Q 49.265625 0.734375 44.1875 -0.34375 
Q 39.109375 -1.421875 33.890625 -1.421875 
Q 20.796875 -1.421875 13.15625 6.1875 
Q 5.515625 13.8125 5.515625 26.8125 
Q 5.515625 40.234375 12.765625 48.109375 
Q 20.015625 56 32.328125 56 
Q 43.359375 56 49.78125 48.890625 
Q 56.203125 41.796875 56.203125 29.59375 
z
M 47.21875 32.234375 
Q 47.125 39.59375 43.09375 43.984375 
Q 39.0625 48.390625 32.421875 48.390625 
Q 24.90625 48.390625 20.390625 44.140625 
Q 15.875 39.890625 15.1875 32.171875 
z
" id="DejaVuSans-101"/>
      <path id="DejaVuSans-32"/>
      <path d="M 33.796875 -14.703125 
L 28.90625 -14.703125 
L 28.859375 0 
Q 23.734375 0.09375 18.609375 1.1875 
Q 13.484375 2.296875 8.296875 4.5 
L 8.296875 13.28125 
Q 13.28125 10.15625 18.375 8.5625 
Q 23.484375 6.984375 28.90625 6.9375 
L 28.90625 29.203125 
Q 18.109375 30.953125 13.203125 35.15625 
Q 8.296875 39.359375 8.296875 46.6875 
Q 8.296875 54.640625 13.625 59.21875 
Q 18.953125 63.8125 28.90625 64.5 
L 28.90625 75.984375 
L 33.796875 75.984375 
L 33.796875 64.65625 
Q 38.328125 64.453125 42.578125 63.6875 
Q 46.828125 62.9375 50.875 61.625 
L 50.875 53.078125 
Q 46.828125 55.125 42.546875 56.25 
Q 38.28125 57.375 33.796875 57.5625 
L 33.796875 36.71875 
Q 44.875 35.015625 50.09375 30.609375 
Q 55.328125 26.21875 55.328125 18.609375 
Q 55.328125 10.359375 49.78125 5.59375 
Q 44.234375 0.828125 33.796875 0.09375 
z
M 28.90625 37.59375 
L 28.90625 57.625 
Q 23.25 56.984375 20.265625 54.390625 
Q 17.28125 51.8125 17.28125 47.515625 
Q 17.28125 43.3125 20.03125 40.96875 
Q 22.796875 38.625 28.90625 37.59375 
z
M 33.796875 28.21875 
L 33.796875 7.078125 
Q 39.984375 7.90625 43.140625 10.59375 
Q 46.296875 13.28125 46.296875 17.671875 
Q 46.296875 21.96875 43.28125 24.5 
Q 40.28125 27.046875 33.796875 28.21875 
z
" id="DejaVuSans-36"/>
     </defs>
     <g transform="translate(14.798438 172.342094)rotate(-90)scale(0.1 -0.1)">
      <use xlink:href="#DejaVuSans-80"/>
      <use x="58.552734" xlink:href="#DejaVuSans-114"/>
      <use x="99.666016" xlink:href="#DejaVuSans-105"/>
      <use x="127.449219" xlink:href="#DejaVuSans-99"/>
      <use x="182.429688" xlink:href="#DejaVuSans-101"/>
      <use x="243.953125" xlink:href="#DejaVuSans-32"/>
      <use x="275.740234" xlink:href="#DejaVuSans-36"/>
     </g>
    </g>
   </g>
   <g id="line2d_33">
    <path clip-path="url(#p67783a3663)" d="M 63.198352 227.366859 
L 63.443005 225.649945 
L 63.687658 228.535822 
L 63.932311 226.000221 
L 64.176964 226.185429 
L 64.421617 222.979104 
L 64.66627 217.571283 
L 64.910923 215.580164 
L 65.155576 215.127575 
L 65.400229 215.551213 
L 65.644882 215.678051 
L 65.889535 216.200902 
L 66.134188 216.232836 
L 66.378841 216.815655 
L 66.623494 212.723579 
L 66.868147 212.026379 
L 67.1128 215.690489 
L 67.357453 224.864274 
L 67.602106 226.474958 
L 67.846759 235.895859 
L 68.091412 235.197216 
L 68.336066 233.559259 
L 68.580719 229.167643 
L 68.825372 237.920169 
L 69.070025 239.696174 
L 69.314678 240.426351 
L 69.559331 236.804146 
L 69.803984 239.492631 
L 70.048637 239.415604 
L 70.29329 242.197677 
L 70.537943 243.567229 
L 70.782596 242.915503 
L 71.027249 245.79171 
L 71.271902 242.728394 
L 71.516555 235.378496 
L 72.005861 239.949012 
L 72.250514 237.485486 
L 72.495167 240.654955 
L 72.73982 240.965432 
L 72.984473 238.640841 
L 73.229126 238.656896 
L 73.473779 239.491305 
L 73.963085 233.823599 
L 74.207738 238.778918 
L 74.452391 239.561236 
L 74.697044 239.703163 
L 75.18635 236.604025 
L 75.431003 236.942652 
L 75.675656 246.686322 
L 76.409615 240.98174 
L 76.654268 237.675899 
L 76.898921 237.931671 
L 77.143574 236.492013 
L 77.388227 238.277532 
L 77.63288 239.217022 
L 78.122186 236.333651 
L 78.366839 237.060951 
L 78.611492 237.012242 
L 78.856145 237.645087 
L 79.100798 246.410002 
L 79.345451 246.684411 
L 79.834757 250.062599 
L 80.07941 247.6112 
L 80.324063 249.501995 
L 80.568716 250.2396 
L 80.813369 250.285706 
L 81.058022 249.223355 
L 81.547328 263.102157 
L 81.791981 262.746928 
L 82.036634 264.341332 
L 82.281287 264.543492 
L 82.52594 262.774485 
L 82.770593 264.039658 
L 83.015246 260.05357 
L 83.504552 262.052867 
L 83.749205 260.939828 
L 83.993858 256.938337 
L 84.238511 259.601107 
L 84.483164 260.107972 
L 84.727817 267.319726 
L 84.97247 269.971763 
L 85.217123 269.713603 
L 85.461776 268.846695 
L 86.195735 260.247541 
L 86.440388 261.045708 
L 86.685041 258.561693 
L 86.929694 259.871394 
L 87.419 254.66193 
L 87.663653 255.430425 
L 88.152959 259.317993 
L 88.397612 253.865313 
L 88.642265 255.614463 
L 88.886918 256.3705 
L 89.131571 255.15815 
L 89.376224 249.778247 
L 89.620877 248.557134 
L 89.86553 249.639858 
L 90.110183 253.001036 
L 90.354836 253.748164 
L 90.599489 249.917757 
L 90.844143 241.960299 
L 91.088796 238.536277 
L 91.333449 238.743632 
L 92.067408 244.052366 
L 92.312061 242.382612 
L 92.556714 244.031467 
L 92.801367 244.089749 
L 93.04602 244.721063 
L 93.290673 244.68564 
L 93.535326 240.863314 
L 94.024632 243.657347 
L 94.269285 244.394347 
L 94.513938 244.27752 
L 94.758591 245.873016 
L 95.003244 260.045606 
L 95.247897 257.761205 
L 95.49255 259.627261 
L 95.737203 259.269498 
L 96.226509 260.839045 
L 96.471162 260.678899 
L 96.715815 261.211128 
L 96.960468 262.381172 
L 97.205121 265.124303 
L 97.449774 269.597634 
L 97.93908 269.059372 
L 98.183733 270.08783 
L 98.428386 268.377671 
L 98.673039 268.677834 
L 99.162345 264.956261 
L 99.406998 267.616058 
L 99.651651 266.340133 
L 99.896304 267.934664 
L 100.140957 267.544753 
L 100.38561 268.744616 
L 100.630263 268.890618 
L 100.874916 270.833369 
L 101.119569 271.2136 
L 101.853528 274.430863 
L 102.098181 275.36391 
L 102.342834 273.18806 
L 102.587487 273.108879 
L 102.83214 272.655179 
L 103.076793 273.893712 
L 103.321446 273.195927 
L 103.566099 270.803823 
L 103.810752 271.159364 
L 104.055405 271.738752 
L 104.300058 270.457466 
L 104.789364 274.13764 
L 105.034017 276.334125 
L 105.27867 275.778989 
L 105.523323 274.703371 
L 105.767976 268.055244 
L 106.012629 269.171149 
L 106.257282 267.333002 
L 106.501935 269.544996 
L 106.746588 267.655293 
L 106.991241 269.507643 
L 107.235894 272.351965 
L 107.480547 272.455866 
L 107.7252 273.437477 
L 107.969853 271.233106 
L 108.214506 270.258426 
L 108.459159 265.259816 
L 108.703812 274.690231 
L 108.948465 273.656909 
L 109.193118 273.27657 
L 109.437771 274.453204 
L 109.682424 274.400664 
L 109.927077 274.837062 
L 110.661036 264.589998 
L 111.150342 261.11364 
L 111.394995 263.760521 
L 111.639648 264.94936 
L 111.884301 263.456342 
L 112.128954 264.343643 
L 112.373607 262.170884 
L 112.61826 255.207494 
L 112.862913 256.286826 
L 113.107566 261.089368 
L 113.35222 263.180217 
L 113.596873 259.985842 
L 113.841526 258.384693 
L 114.086179 259.579809 
L 114.330832 258.322482 
L 114.820138 259.909537 
L 115.064791 260.146749 
L 115.309444 261.673435 
L 115.79875 251.821741 
L 116.043403 251.522085 
L 116.532709 258.320308 
L 116.777362 256.041338 
L 117.266668 259.134745 
L 117.511321 259.83637 
L 118.000627 263.860738 
L 118.24528 263.709833 
L 118.489933 268.437152 
L 118.734586 266.830641 
L 118.979239 263.412467 
L 119.223892 262.360751 
L 119.468545 262.361345 
L 120.202504 268.8751 
L 120.447157 266.166817 
L 120.69181 266.911635 
L 121.181116 263.503043 
L 121.425769 259.202921 
L 121.670422 259.365933 
L 122.404381 244.547924 
L 122.649034 241.223163 
L 122.893687 241.362907 
L 123.382993 242.63622 
L 123.627646 238.420064 
L 123.872299 220.765043 
L 124.116952 219.648602 
L 124.361605 217.993771 
L 124.606258 215.241994 
L 124.850911 213.926864 
L 125.095564 210.729886 
L 125.340217 205.011472 
L 125.58487 211.841737 
L 126.318829 209.485603 
L 126.563482 206.200915 
L 126.808135 208.223442 
L 127.052788 202.531834 
L 127.297441 205.42509 
L 127.542094 210.234349 
L 127.786747 210.873822 
L 128.0314 210.040368 
L 128.276053 210.118994 
L 128.520706 209.20822 
L 128.765359 204.205176 
L 129.010012 205.56035 
L 129.254665 205.025217 
L 129.499318 210.069338 
L 129.743971 205.871304 
L 129.988624 204.079507 
L 130.233277 209.326734 
L 130.47793 208.330258 
L 130.967236 212.796648 
L 131.211889 209.730896 
L 131.456542 208.455692 
L 131.701195 203.447325 
L 131.945848 195.445203 
L 132.435154 200.52274 
L 132.679807 200.130821 
L 132.92446 199.317038 
L 133.413766 193.990523 
L 133.658419 195.841235 
L 133.903072 192.577193 
L 134.147725 190.803508 
L 134.392378 189.99766 
L 134.637031 186.109838 
L 134.881684 186.49665 
L 135.126337 185.756813 
L 135.37099 180.656895 
L 135.615643 178.721943 
L 135.860297 182.190746 
L 136.10495 179.766144 
L 136.349603 181.32528 
L 136.594256 192.506093 
L 136.838909 195.690359 
L 137.083562 186.898511 
L 137.328215 185.489334 
L 137.817521 189.375908 
L 138.062174 190.451964 
L 138.306827 186.509907 
L 138.55148 171.431349 
L 139.285439 185.139019 
L 139.530092 177.076636 
L 139.774745 178.709738 
L 140.019398 186.007175 
L 140.508704 171.919791 
L 140.753357 178.039248 
L 140.99801 178.53383 
L 141.731969 190.943272 
L 141.976622 195.004369 
L 142.221275 189.904763 
L 142.465928 189.101781 
L 142.710581 190.455532 
L 142.955234 188.207988 
L 143.44454 175.568791 
L 143.689193 174.073873 
L 143.933846 174.577911 
L 144.178499 179.443161 
L 144.667805 180.733766 
L 144.912458 182.378449 
L 145.157111 175.818432 
L 145.401764 174.249294 
L 145.646417 170.149088 
L 145.89107 168.177523 
L 146.135723 169.345482 
L 146.380376 168.646313 
L 146.625029 168.969452 
L 146.869682 167.629386 
L 147.114335 163.685008 
L 147.358988 153.867929 
L 147.603641 161.259041 
L 147.848294 163.674208 
L 148.092947 163.95703 
L 148.3376 166.53516 
L 148.582253 167.420589 
L 148.826906 164.364954 
L 149.071559 165.367435 
L 149.316212 161.810122 
L 149.560865 162.738071 
L 149.805518 167.300087 
L 150.050171 168.916619 
L 150.294824 161.271304 
L 150.539477 160.836865 
L 150.78413 155.838987 
L 151.028783 153.678061 
L 151.273436 158.795213 
L 151.518089 157.417444 
L 151.762742 154.773009 
L 152.007395 150.500736 
L 152.252048 158.035043 
L 152.496701 153.280664 
L 152.741354 163.719398 
L 152.986007 161.528177 
L 153.23066 164.526807 
L 153.475313 161.848157 
L 153.719966 165.426701 
L 154.209272 159.908312 
L 154.453925 173.97583 
L 154.698578 176.320579 
L 154.943231 179.818002 
L 155.187884 172.208383 
L 155.432537 180.563414 
L 155.67719 177.390358 
L 156.166496 190.192693 
L 156.411149 183.798232 
L 156.655802 188.720351 
L 156.900455 184.730899 
L 157.145108 177.186006 
L 157.634414 170.798095 
L 157.879067 169.713304 
L 158.12372 166.565183 
L 158.368374 169.090266 
L 158.613027 161.276158 
L 158.85768 160.888021 
L 159.346986 162.466225 
L 159.591639 162.203581 
L 159.836292 165.538216 
L 160.080945 161.80593 
L 160.325598 155.072383 
L 160.570251 164.535891 
L 160.814904 166.366211 
L 161.059557 162.061517 
L 161.30421 159.92654 
L 161.548863 147.916172 
L 161.793516 149.836854 
L 162.038169 154.234191 
L 162.282822 160.727865 
L 162.527475 160.669847 
L 163.016781 177.024017 
L 163.506087 173.233985 
L 163.995393 181.320913 
L 164.240046 180.241991 
L 164.729352 183.149674 
L 165.218658 190.725253 
L 165.707964 187.420056 
L 165.952617 179.490789 
L 166.19727 177.423695 
L 166.441923 181.631146 
L 166.931229 199.094223 
L 167.420535 182.092508 
L 167.665188 189.492296 
L 167.909841 191.471893 
L 168.154494 186.431729 
L 168.399147 185.591569 
L 168.6438 182.550517 
L 168.888453 184.331279 
L 169.377759 174.987376 
L 169.622412 179.61595 
L 169.867065 179.645037 
L 170.111718 174.518021 
L 170.356371 189.828594 
L 170.601024 184.675064 
L 170.845677 186.56697 
L 171.09033 180.434568 
L 171.334983 178.531354 
L 171.824289 180.769521 
L 172.068942 189.707508 
L 172.313595 190.066888 
L 172.558248 187.888105 
L 172.802901 178.987199 
L 173.047554 183.379312 
L 173.292207 183.276843 
L 173.53686 184.847619 
L 173.781513 185.41299 
L 174.026166 182.057748 
L 174.270819 180.580843 
L 174.515472 173.926428 
L 174.760125 174.264208 
L 175.249431 166.754953 
L 175.494084 170.414637 
L 175.738737 168.876009 
L 175.98339 171.017088 
L 176.228043 169.59368 
L 176.472696 173.739934 
L 176.717349 174.443704 
L 176.962002 170.399138 
L 177.206655 163.101702 
L 177.451308 163.502316 
L 177.695961 158.389219 
L 177.940614 157.55325 
L 178.185267 157.810318 
L 178.42992 155.351091 
L 178.674573 157.330104 
L 178.919226 155.320776 
L 179.408532 160.211565 
L 179.653185 159.944398 
L 180.387144 147.635826 
L 180.631798 148.125067 
L 180.876451 146.735229 
L 181.121104 144.312167 
L 181.365757 139.022304 
L 181.61041 140.04198 
L 181.855063 138.961712 
L 182.099716 142.721603 
L 182.344369 150.534502 
L 182.589022 146.942136 
L 182.833675 149.593452 
L 183.322981 142.010172 
L 183.567634 140.964489 
L 183.812287 140.644996 
L 184.05694 143.968149 
L 184.301593 138.838617 
L 184.546246 130.291087 
L 184.790899 129.36655 
L 185.035552 127.512348 
L 185.280205 122.00778 
L 185.524858 93.577659 
L 185.769511 95.503858 
L 186.014164 102.454976 
L 186.258817 102.677206 
L 186.748123 111.428776 
L 186.992776 102.960866 
L 187.237429 107.299385 
L 187.482082 108.114338 
L 187.726735 109.940739 
L 187.971388 108.095057 
L 188.216041 104.230455 
L 188.460694 107.02054 
L 188.705347 103.463461 
L 188.95 102.172661 
L 189.194653 103.40322 
L 189.439306 102.440101 
L 189.683959 104.250574 
L 189.928612 103.45073 
L 190.417918 109.099818 
L 190.662571 105.628636 
L 191.151877 107.435776 
L 191.39653 110.166771 
L 191.641183 108.767439 
L 191.885836 96.403168 
L 192.130489 92.313802 
L 192.375142 96.295377 
L 192.619795 93.651157 
L 192.864448 94.675668 
L 193.109101 99.987561 
L 193.598407 101.728435 
L 193.84306 104.391059 
L 194.087713 113.630856 
L 194.577019 103.057837 
L 194.821672 91.713866 
L 195.066325 95.73336 
L 195.310978 108.496724 
L 195.555631 107.594645 
L 195.800284 99.137653 
L 196.044937 105.136725 
L 196.534243 101.391611 
L 196.778896 104.062579 
L 197.023549 112.177132 
L 197.512855 105.866073 
L 197.757508 105.276625 
L 198.002161 106.968429 
L 198.246814 105.562039 
L 198.491467 109.95269 
L 198.73612 122.308831 
L 198.980773 126.286137 
L 199.225426 127.605381 
L 199.714732 113.099447 
L 199.959385 111.550389 
L 200.204038 106.433997 
L 200.448691 98.859276 
L 200.937997 105.300799 
L 201.18265 99.235969 
L 201.427303 101.989383 
L 201.671956 90.874992 
L 201.916609 97.283061 
L 202.161262 81.35826 
L 202.405915 77.498162 
L 202.650568 81.569378 
L 202.895221 74.69515 
L 203.139875 79.213809 
L 203.384528 80.940997 
L 203.629181 80.753138 
L 203.873834 67.4709 
L 204.118487 64.304005 
L 204.36314 64.280786 
L 204.607793 71.192113 
L 204.852446 63.74766 
L 205.097099 72.101346 
L 205.341752 72.541731 
L 205.831058 78.304809 
L 206.075711 69.05158 
L 206.320364 71.687982 
L 206.565017 70.787229 
L 206.80967 68.391558 
L 207.054323 69.818223 
L 207.298976 81.055066 
L 207.543629 82.144165 
L 207.788282 86.770809 
L 208.032935 87.200686 
L 208.277588 85.796655 
L 208.522241 92.626238 
L 208.766894 90.161864 
L 209.011547 94.607297 
L 209.2562 89.150435 
L 209.500853 89.852899 
L 209.745506 93.677321 
L 209.990159 101.220401 
L 210.234812 96.611888 
L 210.479465 85.908248 
L 210.724118 84.046521 
L 210.968771 83.112742 
L 211.213424 84.791933 
L 211.458077 87.656355 
L 211.70273 82.512689 
L 211.947383 88.802284 
L 212.192036 88.883853 
L 212.436689 91.330993 
L 212.925995 101.518468 
L 213.170648 101.455868 
L 213.659954 89.904386 
L 213.904607 92.403326 
L 214.14926 100.398936 
L 214.393913 101.394399 
L 214.638566 105.593115 
L 214.883219 106.166557 
L 215.127872 101.241612 
L 215.372525 101.403308 
L 215.617178 91.702597 
L 215.861831 89.95605 
L 216.106484 85.242826 
L 217.085096 102.259124 
L 217.574402 105.41746 
L 217.819055 105.486241 
L 218.063708 105.253366 
L 218.308361 105.807683 
L 218.553014 112.052848 
L 219.04232 102.316304 
L 219.286973 108.453229 
L 219.531626 122.023396 
L 219.776279 110.489714 
L 220.020932 115.781098 
L 220.265585 117.729873 
L 220.510238 117.819474 
L 220.754891 115.132481 
L 220.999544 119.051612 
L 221.244197 117.148223 
L 221.48885 122.497197 
L 221.733503 119.661141 
L 221.978156 122.366401 
L 222.222809 121.100731 
L 222.712115 117.782784 
L 222.956768 109.766702 
L 223.201421 110.009851 
L 223.446074 112.993098 
L 223.690727 114.02182 
L 223.93538 121.543981 
L 224.180033 122.546091 
L 224.669339 120.756439 
L 224.913992 123.117662 
L 225.403298 109.011328 
L 225.647952 110.929514 
L 225.892605 106.36393 
L 226.137258 109.696674 
L 226.381911 117.805866 
L 226.626564 120.068383 
L 226.871217 117.974425 
L 227.11587 114.030573 
L 227.360523 116.44535 
L 227.605176 113.572857 
L 227.849829 116.451803 
L 228.094482 123.204554 
L 228.339135 121.92935 
L 228.828441 103.677658 
L 229.073094 108.407902 
L 229.317747 107.057757 
L 229.807053 113.456917 
L 230.051706 118.051218 
L 230.296359 117.707433 
L 230.541012 111.969251 
L 230.785665 110.324295 
L 231.030318 110.324314 
L 231.274971 111.450201 
L 231.764277 100.891121 
L 232.00893 102.942637 
L 232.253583 103.538538 
L 232.498236 127.206443 
L 232.987542 121.493429 
L 233.232195 134.312589 
L 233.476848 139.497449 
L 233.721501 135.042834 
L 233.966154 135.555996 
L 234.210807 138.466369 
L 234.700113 140.839484 
L 234.944766 139.195639 
L 235.189419 136.464859 
L 235.434072 138.319743 
L 235.923378 133.141005 
L 236.412684 122.813824 
L 236.657337 127.436393 
L 236.90199 125.758802 
L 237.146643 127.586996 
L 237.391296 130.557357 
L 237.635949 125.603656 
L 238.125255 122.750853 
L 238.369908 122.527512 
L 238.614561 119.83003 
L 238.859214 123.328448 
L 239.103867 124.20255 
L 239.593173 118.69654 
L 239.837826 117.615473 
L 240.082479 120.726923 
L 240.327132 120.835006 
L 240.571785 114.757894 
L 241.061091 113.710612 
L 241.305744 114.831762 
L 241.550397 112.45274 
L 241.79505 114.406603 
L 242.039703 117.697159 
L 242.529009 126.719133 
L 242.773662 127.628346 
L 243.018315 128.977165 
L 243.262968 131.165891 
L 243.507621 141.357851 
L 243.996927 147.239462 
L 244.24158 141.870506 
L 244.486233 142.335865 
L 244.730886 136.285597 
L 244.975539 138.298824 
L 245.220192 144.458813 
L 245.464845 139.738531 
L 245.709498 128.932053 
L 245.954151 128.068419 
L 246.68811 117.442567 
L 246.932763 119.490301 
L 247.177416 131.344178 
L 247.422069 170.544321 
L 247.911375 159.55244 
L 248.156029 162.338568 
L 248.400682 167.730724 
L 248.645335 165.849111 
L 249.134641 160.061469 
L 249.623947 156.74785 
L 250.113253 177.482572 
L 250.357906 176.321787 
L 250.847212 169.17743 
L 251.091865 170.761424 
L 251.336518 175.026386 
L 251.825824 186.880322 
L 252.070477 209.656267 
L 252.559783 200.665525 
L 252.804436 188.769421 
L 253.049089 189.172608 
L 253.538395 199.563851 
L 253.783048 194.167231 
L 254.027701 192.637532 
L 254.272354 196.615618 
L 254.76166 190.495225 
L 255.250966 198.860608 
L 255.495619 202.212614 
L 255.740272 202.040332 
L 255.984925 190.984934 
L 256.229578 194.430226 
L 256.474231 200.498799 
L 256.718884 202.404489 
L 257.20819 212.945789 
L 257.452843 213.326732 
L 257.697496 210.987325 
L 257.942149 212.603993 
L 258.186802 208.759413 
L 258.431455 207.038034 
L 258.676108 207.282372 
L 258.920761 194.512828 
L 259.165414 191.962791 
L 259.410067 191.033107 
L 259.899373 202.384116 
L 260.144026 198.650212 
L 260.388679 198.807366 
L 260.633332 196.247737 
L 260.877985 197.65245 
L 261.122638 191.498934 
L 261.367291 190.344817 
L 261.611944 185.969295 
L 261.856597 187.331273 
L 262.10125 192.005662 
L 262.590556 181.134361 
L 263.079862 161.159029 
L 263.324515 163.493406 
L 263.569168 166.942987 
L 263.813821 143.330976 
L 264.058474 134.463875 
L 264.303127 136.752555 
L 264.54778 130.014367 
L 264.792433 129.349589 
L 265.037086 127.694358 
L 265.281739 135.276664 
L 265.771045 127.923977 
L 266.015698 129.941493 
L 266.260351 135.551531 
L 266.505004 129.589969 
L 266.749657 131.28729 
L 266.99431 122.045758 
L 267.238963 117.331345 
L 267.483616 118.823924 
L 267.728269 118.011486 
L 268.217575 124.711403 
L 268.462228 120.818201 
L 268.706881 105.84644 
L 269.44084 117.698933 
L 269.685493 116.792995 
L 269.930146 116.34255 
L 270.419452 126.449392 
L 270.664106 127.279825 
L 270.908759 135.438925 
L 271.153412 134.642142 
L 271.398065 128.282578 
L 271.642718 128.290532 
L 271.887371 130.871548 
L 272.132024 137.489311 
L 272.376677 130.213612 
L 272.62133 131.104597 
L 272.865983 131.488406 
L 273.355289 137.102753 
L 273.599942 133.850428 
L 274.089248 141.350345 
L 274.333901 148.344275 
L 274.578554 142.927769 
L 274.823207 145.844127 
L 275.06786 160.409308 
L 275.557166 164.809161 
L 275.801819 161.980844 
L 276.046472 170.292049 
L 276.291125 163.417334 
L 276.535778 174.442846 
L 276.780431 169.831818 
L 277.025084 172.080804 
L 277.269737 166.343363 
L 277.51439 163.701287 
L 277.759043 168.179258 
L 278.003696 169.937561 
L 278.248349 179.948895 
L 278.493002 181.706243 
L 278.737655 174.289162 
L 278.982308 177.946137 
L 279.226961 184.52949 
L 279.471614 187.015309 
L 279.716267 187.734441 
L 279.96092 196.719061 
L 280.205573 197.567741 
L 280.450226 202.666275 
L 280.694879 198.130968 
L 280.939532 202.100105 
L 281.184185 187.574831 
L 281.673491 174.526638 
L 281.918144 177.027546 
L 282.40745 167.555342 
L 282.652103 177.127909 
L 282.896756 175.889883 
L 283.141409 180.729711 
L 283.386062 159.389496 
L 283.875368 162.209819 
L 284.120021 153.216134 
L 284.364674 156.968383 
L 284.609327 156.449256 
L 284.85398 154.981924 
L 285.098633 156.43401 
L 285.343286 161.992074 
L 285.587939 158.29176 
L 285.832592 157.715316 
L 286.077245 149.596084 
L 286.321898 149.756064 
L 286.566551 152.625614 
L 286.811204 149.534536 
L 287.055857 148.418553 
L 287.30051 142.775431 
L 287.545163 143.942687 
L 287.789816 142.692672 
L 288.034469 148.188895 
L 288.279122 147.096482 
L 288.523775 146.65249 
L 288.768428 140.657259 
L 289.013081 140.349346 
L 289.257734 138.981753 
L 289.502387 140.656128 
L 289.74704 141.33662 
L 289.991693 148.19414 
L 290.236346 144.343418 
L 290.480999 149.473476 
L 291.214958 143.485809 
L 291.459611 135.000178 
L 291.704264 133.102871 
L 291.948917 136.28973 
L 292.19357 136.438481 
L 292.438223 134.741569 
L 292.92753 136.546545 
L 293.416836 142.470657 
L 293.661489 142.178107 
L 293.906142 143.20753 
L 294.150795 144.829988 
L 294.395448 133.900376 
L 294.640101 154.94843 
L 294.884754 159.83996 
L 295.129407 156.34899 
L 295.618713 160.493548 
L 295.863366 166.832486 
L 296.841978 178.364472 
L 297.086631 168.769447 
L 297.331284 164.401665 
L 297.82059 168.105409 
L 298.065243 165.5118 
L 298.309896 165.794095 
L 298.554549 158.507849 
L 298.799202 157.028332 
L 299.043855 156.395877 
L 299.288508 147.184914 
L 299.533161 154.920201 
L 299.777814 157.622771 
L 300.022467 158.155974 
L 300.26712 160.806471 
L 300.511773 159.632859 
L 301.001079 167.008219 
L 301.245732 167.295876 
L 301.490385 172.802724 
L 302.224344 176.569615 
L 302.468997 171.651259 
L 302.71365 174.601715 
L 302.958303 168.988031 
L 303.202956 174.198274 
L 303.447609 175.132735 
L 303.692262 173.116174 
L 303.936915 179.240875 
L 304.181568 182.318208 
L 304.670874 172.4914 
L 304.915527 172.394644 
L 305.16018 172.129738 
L 305.404833 176.034794 
L 305.649486 177.097164 
L 305.894139 173.862912 
L 306.138792 179.625873 
L 306.383445 169.903269 
L 306.872751 173.17429 
L 307.117404 172.155472 
L 307.362057 174.964527 
L 307.60671 172.928549 
L 307.851363 176.983037 
L 308.096016 177.597498 
L 308.340669 176.470889 
L 308.585322 177.207938 
L 308.829975 178.69617 
L 309.074628 173.756447 
L 309.319281 171.748737 
L 309.563934 171.09702 
L 309.808587 179.83816 
L 310.05324 174.677104 
L 310.297893 177.066829 
L 310.542546 175.700679 
L 310.787199 175.146031 
L 311.031852 169.352656 
L 311.276505 170.024473 
L 311.521158 171.496406 
L 311.765811 171.10012 
L 312.010464 168.492513 
L 312.255117 168.502806 
L 312.49977 162.015176 
L 312.744423 161.740094 
L 312.989076 162.231479 
L 313.478382 156.247672 
L 313.723035 160.719131 
L 313.967688 160.968265 
L 314.212341 163.525184 
L 314.456994 161.908438 
L 314.701647 161.112571 
L 314.9463 161.348448 
L 315.190953 158.510676 
L 315.435607 164.603424 
L 315.68026 157.600448 
L 315.924913 155.393708 
L 316.169566 141.89624 
L 316.414219 140.982464 
L 316.658872 143.314424 
L 316.903525 150.11217 
L 317.148178 148.238258 
L 317.392831 150.29615 
L 317.637484 149.764467 
L 317.882137 144.793142 
L 318.12679 146.875968 
L 318.371443 146.86466 
L 318.616096 144.514784 
L 318.860749 133.314164 
L 319.105402 133.41673 
L 319.594708 141.859549 
L 319.839361 138.803856 
L 320.328667 149.915226 
L 320.57332 149.959364 
L 321.062626 147.408216 
L 321.307279 147.687022 
L 321.796585 152.977781 
L 322.041238 150.669333 
L 322.285891 156.448554 
L 322.775197 159.915135 
L 323.01985 158.106962 
L 323.264503 158.943886 
L 323.509156 157.909199 
L 323.753809 157.770001 
L 323.998462 159.195106 
L 324.243115 157.341742 
L 324.487768 151.995693 
L 324.977074 162.065494 
L 325.221727 159.106148 
L 325.46638 152.29031 
L 326.200339 166.774526 
L 326.444992 166.638486 
L 326.689645 168.387705 
L 326.934298 163.251837 
L 327.178951 164.598531 
L 327.423604 168.115586 
L 327.668257 173.819378 
L 328.157563 175.8761 
L 328.646869 170.024473 
L 328.891522 170.312617 
L 329.136175 172.6576 
L 329.380828 170.988995 
L 329.870134 173.972126 
L 330.114787 172.622722 
L 330.604093 166.840986 
L 330.848746 169.17203 
L 331.093399 174.262882 
L 331.338052 175.985509 
L 331.582705 172.886282 
L 331.827358 171.910842 
L 332.072011 167.132659 
L 332.316664 168.700706 
L 332.561317 164.877492 
L 332.80597 168.063805 
L 333.050623 163.895463 
L 333.295276 165.721825 
L 333.539929 170.912027 
L 333.784582 171.711793 
L 334.029235 173.750071 
L 334.273888 171.464843 
L 334.763194 174.606862 
L 335.007847 173.704413 
L 335.497153 171.142484 
L 335.741806 170.033031 
L 335.986459 172.677193 
L 336.720418 156.523514 
L 336.965071 158.145193 
L 337.209724 156.219267 
L 337.454377 152.344059 
L 337.943684 156.341777 
L 338.188337 157.236681 
L 338.43299 157.085707 
L 338.677643 157.169616 
L 338.922296 158.122188 
L 339.166949 161.166067 
L 339.411602 158.309657 
L 339.900908 156.967876 
L 340.390214 160.465143 
L 340.634867 160.01312 
L 340.87952 159.277553 
L 341.124173 160.677859 
L 341.368826 161.180805 
L 341.613479 159.003133 
L 341.858132 155.814559 
L 342.102785 155.358324 
L 342.347438 151.403769 
L 342.592091 150.868792 
L 342.836744 148.226873 
L 343.081397 147.513999 
L 343.32605 149.337963 
L 343.815356 146.667638 
L 344.060009 146.63783 
L 344.304662 146.140908 
L 344.549315 145.172544 
L 344.793968 146.823369 
L 345.038621 159.137653 
L 345.283274 161.403698 
L 345.77258 158.484298 
L 346.017233 160.030744 
L 346.506539 161.475871 
L 346.751192 161.203635 
L 346.995845 160.538174 
L 347.485151 162.153282 
L 347.729804 161.432142 
L 347.974457 162.120237 
L 348.21911 163.263729 
L 348.463763 157.34958 
L 348.708416 157.024569 
L 348.953069 158.031358 
L 349.197722 163.610886 
L 349.442375 166.420994 
L 349.687028 166.396371 
L 349.931681 167.735033 
L 350.176334 167.285621 
L 351.154946 162.504124 
L 351.399599 159.376161 
L 351.644252 159.013564 
L 351.888905 161.737637 
L 352.133558 161.067809 
L 352.378211 162.596728 
L 352.622864 160.387395 
L 352.867517 161.693382 
L 353.11217 161.058783 
L 353.356823 162.115051 
L 353.601476 161.402587 
L 353.846129 160.301634 
L 354.090782 155.405776 
L 354.335435 154.362667 
L 354.580088 155.183059 
L 354.824741 152.706228 
L 355.069394 144.255727 
L 355.314047 144.725083 
L 355.5587 143.133798 
L 355.803353 153.732162 
L 356.048006 152.953081 
L 356.781965 157.239605 
L 357.026618 156.074512 
L 357.271271 156.341523 
L 357.515924 149.594427 
L 357.760577 148.602571 
L 358.00523 144.911207 
L 358.249883 144.26183 
L 358.494536 145.173929 
L 358.739189 139.462085 
L 359.228495 149.955231 
L 359.473148 141.888968 
L 359.717801 138.03 
L 359.962454 137.99173 
L 360.207107 139.556813 
L 360.451761 137.948938 
L 360.696414 139.543069 
L 360.941067 140.19075 
L 361.18572 145.212413 
L 361.430373 143.506806 
L 361.675026 142.993956 
L 361.919679 143.832167 
L 362.164332 145.695415 
L 362.408985 143.465027 
L 362.653638 145.212705 
L 362.898291 151.583557 
L 363.63225 155.173155 
L 364.121556 160.555154 
L 364.366209 156.467952 
L 364.610862 155.726049 
L 364.855515 152.939434 
L 365.344821 155.178673 
L 365.589474 154.375846 
L 365.834127 158.379724 
L 366.323433 153.511686 
L 366.568086 154.280942 
L 366.812739 152.427013 
L 367.057392 147.571471 
L 367.302045 150.737607 
L 367.546698 151.227432 
L 368.280657 144.315267 
L 368.52531 144.082081 
L 368.769963 142.115896 
L 369.014616 142.342142 
L 369.259269 141.090489 
L 369.503922 138.911452 
L 369.748575 138.401332 
L 369.993228 136.514397 
L 370.237881 129.682709 
L 370.482534 131.446335 
L 370.727187 126.442354 
L 370.97184 126.444031 
L 371.216493 101.416448 
L 371.461146 93.78322 
L 371.705799 95.840312 
L 371.950452 100.222112 
L 372.195105 92.915259 
L 372.439758 93.996112 
L 372.684411 93.044573 
L 372.929064 89.737583 
L 373.173717 89.644881 
L 373.41837 98.985802 
L 373.907676 97.216211 
L 374.152329 95.058463 
L 374.396982 93.995137 
L 374.641635 100.701078 
L 374.886288 101.113097 
L 375.375594 94.074484 
L 375.620247 95.557003 
L 375.8649 95.288491 
L 376.109553 94.079962 
L 376.354206 101.353068 
L 376.598859 101.269725 
L 377.332818 86.197406 
L 377.577471 95.204602 
L 377.822124 92.897382 
L 378.066777 85.598132 
L 378.31143 90.007206 
L 378.800736 79.920483 
L 379.045389 81.252029 
L 379.290042 80.073601 
L 379.534695 82.217955 
L 379.779348 77.491611 
L 380.024001 79.345774 
L 380.268654 78.973487 
L 380.513307 78.082346 
L 380.75796 75.680904 
L 381.002613 84.001856 
L 381.491919 76.430878 
L 381.736572 75.196654 
L 381.981225 66.710652 
L 382.225878 65.396067 
L 382.470531 67.326419 
L 382.715184 71.211979 
L 382.959838 69.588838 
L 383.204491 66.773993 
L 383.449144 60.869845 
L 383.693797 48.256304 
L 383.93845 50.867148 
L 384.183103 51.84485 
L 384.427756 47.374599 
L 384.672409 35.11654 
L 385.161715 39.933539 
L 385.406368 46.428246 
L 385.651021 43.775604 
L 385.895674 43.616364 
L 386.629633 49.355892 
L 386.874286 78.176938 
L 387.118939 78.403866 
L 387.363592 70.14259 
L 387.608245 67.68307 
L 387.852898 73.368401 
L 387.852898 73.368401 
" style="fill:none;stroke:#1f77b4;stroke-linecap:square;stroke-width:1.5;"/>
   </g>
   <g id="line2d_34">
    <path clip-path="url(#p67783a3663)" d="M 63.198352 228.017963 
L 63.443005 229.001761 
L 63.687658 225.526526 
L 63.932311 227.072494 
L 64.176964 223.48227 
L 64.421617 218.243863 
L 64.910923 215.266915 
L 65.155576 215.688543 
L 65.400229 215.535224 
L 66.134188 216.761777 
L 66.378841 212.213307 
L 66.623494 211.804456 
L 66.868147 215.726873 
L 67.1128 225.3221 
L 67.357453 226.088696 
L 67.602106 235.939456 
L 67.846759 235.13453 
L 68.091412 233.626891 
L 68.336066 228.873995 
L 68.580719 238.481999 
L 68.825372 239.874649 
L 69.070025 240.602915 
L 69.314678 236.680499 
L 69.559331 239.964085 
L 69.803984 238.941957 
L 70.048637 242.966586 
L 70.29329 243.51598 
L 70.537943 242.685501 
L 70.782596 246.160737 
L 71.027249 242.659948 
L 71.271902 235.262296 
L 71.761208 239.900202 
L 72.005861 237.153233 
L 72.250514 240.820117 
L 72.495167 241.024543 
L 72.73982 238.379787 
L 72.984473 239.223042 
L 73.229126 239.64467 
L 73.718432 233.639667 
L 73.963085 238.903627 
L 74.452391 239.797989 
L 74.941697 237.076573 
L 75.18635 236.961584 
L 75.431003 246.927333 
L 76.164962 240.884 
L 76.409615 237.562084 
L 76.654268 238.085925 
L 76.898921 236.246094 
L 77.143574 238.379787 
L 77.388227 239.401915 
L 77.877533 236.067222 
L 78.122186 237.344882 
L 78.366839 237.319329 
L 78.611492 237.536531 
L 78.856145 246.620694 
L 79.100798 246.659024 
L 79.590104 250.364238 
L 79.834757 247.630046 
L 80.324063 250.492004 
L 80.568716 250.453675 
L 80.813369 249.34211 
L 81.302675 263.434701 
L 81.547328 263.10251 
L 81.791981 264.571819 
L 82.036634 264.904011 
L 82.281287 262.821425 
L 82.52594 263.856329 
L 82.770593 260.048902 
L 83.259899 262.220924 
L 83.504552 260.572743 
L 83.749205 256.497007 
L 83.993858 259.933913 
L 84.238511 260.457753 
L 84.483164 267.68931 
L 84.727817 270.397949 
L 84.97247 269.248055 
L 85.217123 268.813651 
L 85.951082 260.214998 
L 86.195735 261.288232 
L 86.440388 258.541263 
L 86.685041 259.997796 
L 87.174347 254.478304 
L 87.419 255.423773 
L 87.663653 256.880305 
L 87.908306 259.346189 
L 88.152959 253.36674 
L 88.397612 255.947613 
L 88.642265 256.497007 
L 88.886918 254.848825 
L 89.131571 249.955387 
L 89.376224 248.8566 
L 89.620877 249.278227 
L 89.86553 252.293505 
L 90.110183 253.826697 
L 90.354836 249.674302 
L 90.599489 241.727256 
L 90.844143 238.648095 
L 91.088796 239.069723 
L 91.333449 240.32183 
L 91.822755 244.448672 
L 92.067408 242.647171 
L 92.556714 244.614768 
L 92.801367 245.100279 
L 93.04602 244.985289 
L 93.290673 240.666798 
L 93.535326 243.145459 
L 94.024632 244.614768 
L 94.269285 244.218693 
L 94.513938 246.020194 
L 94.758591 259.857253 
L 95.003244 257.301933 
L 95.247897 259.985019 
L 95.49255 259.2312 
L 95.737203 259.857253 
L 95.981856 260.930488 
L 96.226509 260.444977 
L 96.715815 262.476456 
L 96.960468 265.210649 
L 97.205121 269.976321 
L 97.694427 269.043629 
L 97.93908 270.538492 
L 98.183733 268.340916 
L 98.428386 268.826427 
L 98.917692 264.725138 
L 99.162345 267.663756 
L 99.406998 266.245554 
L 99.651651 268.085384 
L 99.896304 267.459331 
L 100.140957 268.992523 
L 100.38561 268.724214 
L 100.630263 270.870683 
L 100.874916 270.998449 
L 101.364222 274.282036 
L 101.608875 274.167046 
L 101.853528 275.35527 
L 102.098181 272.978823 
L 102.342834 273.208801 
L 102.587487 272.480535 
L 102.83214 273.962621 
L 103.076793 273.017152 
L 103.321446 270.385173 
L 103.566099 270.934566 
L 103.810752 271.765045 
L 104.055405 270.397949 
L 104.300058 273.157695 
L 104.544711 274.179823 
L 104.789364 276.185749 
L 105.034017 275.572473 
L 105.27867 274.550345 
L 105.523323 267.906512 
L 105.767976 269.580247 
L 106.012629 267.203799 
L 106.257282 269.823002 
L 106.501935 267.625427 
L 106.991241 272.506088 
L 107.235894 272.557195 
L 107.480547 273.540993 
L 107.7252 270.742917 
L 107.969853 270.436279 
L 108.214506 265.006223 
L 108.459159 274.358695 
L 108.948465 273.298238 
L 109.193118 274.563121 
L 109.437771 274.384249 
L 109.682424 275.010302 
L 109.927077 270.998449 
L 110.17173 268.89031 
L 110.416383 264.277957 
L 110.905689 261.0327 
L 111.150342 263.984095 
L 111.394995 264.367393 
L 111.639648 263.460255 
L 111.884301 264.559042 
L 112.128954 261.965392 
L 112.373607 254.593293 
L 112.61826 256.458677 
L 112.862913 261.428775 
L 113.107566 263.02585 
L 113.35222 259.75504 
L 113.596873 258.694582 
L 113.841526 259.627274 
L 114.086179 258.068529 
L 114.330832 259.512285 
L 114.820138 260.253328 
L 115.064791 261.671531 
L 115.554097 251.807994 
L 115.79875 251.399143 
L 116.043403 255.947613 
L 116.288056 258.400721 
L 116.532709 255.653751 
L 117.022015 259.358966 
L 117.266668 259.946689 
L 117.755974 263.869106 
L 118.000627 263.639127 
L 118.24528 268.136491 
L 118.489933 266.603299 
L 118.734586 263.243052 
L 119.223892 262.118712 
L 119.957851 268.992523 
L 120.202504 266.053905 
L 120.447157 267.357118 
L 120.69181 264.559042 
L 120.936463 263.613574 
L 121.181116 258.950114 
L 121.425769 259.243976 
L 121.915075 247.949461 
L 122.404381 240.909554 
L 122.649034 241.062873 
L 122.893687 242.429969 
L 123.13834 242.647171 
L 123.382993 238.137031 
L 123.627646 222.191833 
L 124.850911 210.590679 
L 125.095564 204.49624 
L 125.340217 211.919445 
L 126.074176 209.555774 
L 126.318829 206.425507 
L 126.563482 208.290891 
L 126.808135 202.158122 
L 127.297441 210.603456 
L 127.542094 210.9612 
L 127.786747 210.488466 
L 128.0314 210.552349 
L 128.276053 209.236359 
L 128.520706 204.700666 
L 128.765359 205.85056 
L 129.010012 205.365049 
L 129.254665 210.347923 
L 129.499318 205.416155 
L 129.743971 204.419581 
L 129.988624 209.824083 
L 130.233277 209.00638 
L 130.722583 213.06934 
L 130.967236 209.64521 
L 131.211889 208.48254 
L 131.456542 203.346346 
L 131.701195 194.773247 
L 132.190501 200.739919 
L 132.435154 200.803802 
L 132.679807 199.245057 
L 133.169113 194.274959 
L 133.413766 196.127566 
L 133.658419 192.281809 
L 134.147725 190.467532 
L 134.392378 185.867956 
L 134.637031 186.430126 
L 134.881684 184.718061 
L 135.126337 180.297357 
L 135.37099 178.636399 
L 135.615643 182.290507 
L 135.860297 179.8374 
L 136.10495 181.702784 
L 136.349603 192.933416 
L 136.594256 195.757045 
L 136.838909 187.298935 
L 137.083562 185.075806 
L 137.572868 189.419851 
L 137.817521 191.080809 
L 138.062174 186.442903 
L 138.306827 171.008768 
L 138.796133 180.386794 
L 139.040786 184.858604 
L 139.285439 176.847675 
L 139.530092 179.377442 
L 139.774745 186.072381 
L 140.264051 172.260875 
L 140.508704 177.537612 
L 140.753357 178.48308 
L 141.242663 186.915637 
L 141.731969 194.72214 
L 141.976622 189.943691 
L 142.221275 189.292085 
L 142.465928 190.786947 
L 142.710581 187.528914 
L 143.199887 175.582792 
L 143.44454 174.892855 
L 143.689193 174.57344 
L 143.933846 180.144038 
L 144.423152 181.000071 
L 144.667805 182.827125 
L 144.912458 174.68843 
L 145.157111 174.739536 
L 145.646417 167.495203 
L 145.89107 169.552236 
L 146.135723 168.006267 
L 146.380376 169.156161 
L 146.625029 167.43132 
L 146.869682 163.355584 
L 147.114335 153.095974 
L 147.358988 161.64352 
L 147.603641 163.866648 
L 147.848294 164.19884 
L 148.092947 167.048022 
L 148.3376 167.916831 
L 148.582253 163.879425 
L 148.826906 165.284851 
L 149.071559 161.490201 
L 149.316212 162.84452 
L 149.560865 167.597416 
L 149.805518 169.258374 
L 150.050171 160.96636 
L 150.294824 160.685275 
L 150.539477 155.715177 
L 150.78413 153.019314 
L 151.028783 159.037093 
L 151.273436 157.312252 
L 151.762742 150.719526 
L 152.007395 158.730455 
L 152.252048 153.440942 
L 152.496701 164.505478 
L 152.741354 162.116254 
L 152.986007 165.144308 
L 153.23066 161.950158 
L 153.475313 165.604266 
L 153.964619 160.123104 
L 154.209272 173.985716 
L 154.698578 180.246251 
L 154.943231 173.142461 
L 155.187884 180.987294 
L 155.432537 177.524835 
L 155.921843 190.671958 
L 156.166496 183.900359 
L 156.411149 188.653255 
L 156.655802 184.884157 
L 156.900455 177.103207 
L 157.389761 170.523258 
L 157.634414 169.552236 
L 157.879067 165.732032 
L 158.12372 169.002842 
L 158.368374 160.940807 
L 158.613027 161.196339 
L 158.85768 160.800264 
L 159.102333 162.384563 
L 159.346986 162.550658 
L 159.591639 165.591489 
L 159.836292 162.077924 
L 160.080945 154.38641 
L 160.325598 164.594915 
L 160.570251 166.102554 
L 161.059557 159.944232 
L 161.30421 147.078194 
L 161.793516 153.568708 
L 162.038169 161.311328 
L 162.282822 160.442519 
L 162.772128 177.80592 
L 163.016781 176.438824 
L 163.261434 173.33411 
L 163.75074 181.779443 
L 163.995393 180.718985 
L 164.484699 183.606497 
L 164.729352 188.627701 
L 164.974005 190.058681 
L 165.218658 190.493085 
L 165.463311 188.436052 
L 165.707964 179.607421 
L 165.952617 177.959239 
L 166.19727 181.817773 
L 166.686576 199.628355 
L 167.175882 181.523911 
L 167.420535 190.097011 
L 167.665188 191.668533 
L 167.909841 186.545115 
L 168.399147 182.098858 
L 168.6438 183.925912 
L 169.133106 174.713983 
L 169.377759 179.402995 
L 169.622412 178.891931 
L 169.867065 174.841749 
L 170.111718 190.148117 
L 170.356371 184.756391 
L 170.601024 186.417349 
L 170.845677 180.233474 
L 171.09033 178.674729 
L 171.334983 178.904708 
L 171.579636 181.332262 
L 171.824289 189.713713 
L 172.068942 190.85083 
L 172.313595 187.69501 
L 172.558248 178.713059 
L 172.802901 183.529838 
L 173.047554 183.644827 
L 173.53686 185.241902 
L 173.781513 181.562241 
L 174.026166 180.578443 
L 174.270819 173.487429 
L 174.515472 174.049599 
L 174.760125 168.811193 
L 175.004778 166.651947 
L 175.249431 170.676577 
L 175.494084 168.977289 
L 175.738737 171.136534 
L 175.98339 169.296704 
L 176.228043 173.870727 
L 176.472696 174.241249 
L 176.717349 170.357162 
L 176.962002 162.793414 
L 177.206655 163.751659 
L 177.451308 157.938305 
L 177.695961 157.465571 
L 177.940614 158.142731 
L 178.185267 155.497975 
L 178.42992 156.992837 
L 178.674573 155.280772 
L 178.919226 157.248369 
L 179.163879 160.174211 
L 179.408532 160.033668 
L 180.142491 147.308173 
L 180.387144 148.266418 
L 180.631798 146.669343 
L 180.876451 144.305672 
L 181.121104 138.594531 
L 181.365757 140.281043 
L 181.61041 138.696744 
L 181.855063 142.785256 
L 182.099716 150.067919 
L 182.344369 146.694896 
L 182.589022 148.764706 
L 183.078328 142.120873 
L 183.322981 140.396032 
L 183.567634 140.970979 
L 183.812287 144.177906 
L 184.05694 138.735074 
L 184.301593 130.3664 
L 184.546246 129.459261 
L 184.790899 127.300016 
L 185.035552 121.997726 
L 185.280205 93.595342 
L 185.524858 94.489704 
L 185.769511 101.900133 
L 186.014164 103.011697 
L 186.50347 111.635903 
L 186.748123 103.305559 
L 186.992776 107.560167 
L 187.237429 108.109561 
L 187.482082 110.192147 
L 187.726735 108.173444 
L 187.971388 104.481006 
L 188.216041 106.806347 
L 188.460694 103.701633 
L 188.705347 102.43675 
L 188.95 103.369442 
L 189.194653 102.871154 
L 189.439306 104.187144 
L 189.683959 103.152239 
L 190.173265 109.323338 
L 190.417918 105.988645 
L 190.907224 107.700709 
L 191.151877 109.808849 
L 191.39653 108.90171 
L 191.641183 95.767364 
L 191.885836 92.381565 
L 192.130489 96.53396 
L 192.375142 93.33981 
L 192.619795 94.924108 
L 192.864448 100.328611 
L 193.353754 101.874579 
L 193.598407 104.506559 
L 193.84306 113.744042 
L 194.332366 103.07558 
L 194.577019 91.103905 
L 194.821672 95.601268 
L 195.066325 108.467306 
L 195.310978 108.556742 
L 195.555631 99.383142 
L 195.800284 105.0304 
L 196.28959 101.299632 
L 196.534243 104.161591 
L 196.778896 112.083084 
L 197.268202 106.435826 
L 197.512855 105.477581 
L 197.757508 107.483507 
L 198.002161 105.043176 
L 198.246814 110.843753 
L 198.491467 123.173174 
L 198.73612 127.862186 
L 198.980773 128.641559 
L 199.470079 113.117988 
L 199.714732 112.466382 
L 200.204038 98.897631 
L 200.693344 105.694783 
L 200.937997 98.642099 
L 201.18265 102.002345 
L 201.427303 90.452298 
L 201.671956 96.086779 
L 201.916609 80.167134 
L 202.161262 77.918452 
L 202.405915 80.767634 
L 202.650568 73.842716 
L 202.895221 79.285548 
L 203.139875 80.307677 
L 203.384528 80.767634 
L 203.629181 66.662266 
L 203.873834 63.135924 
L 204.118487 63.800308 
L 204.36314 71.1213 
L 204.607793 63.953627 
L 204.852446 71.044641 
L 205.097099 72.833365 
L 205.586405 78.403963 
L 205.831058 69.575331 
L 206.075711 71.351279 
L 206.320364 70.801885 
L 206.565017 68.64264 
L 206.80967 69.818087 
L 207.054323 80.678198 
L 207.298976 83.067422 
L 207.543629 87.47535 
L 207.788282 88.088627 
L 208.032935 85.648296 
L 208.277588 92.100479 
L 208.522241 89.251297 
L 208.766894 95.358513 
L 209.011547 90.10733 
L 209.2562 89.99234 
L 209.500853 94.476927 
L 209.745506 101.951239 
L 209.990159 96.981141 
L 210.234812 86.72153 
L 210.479465 83.719029 
L 210.724118 83.246295 
L 210.968771 85.086125 
L 211.213424 87.871424 
L 211.458077 82.88855 
L 211.70273 88.855223 
L 211.947383 89.110755 
L 212.192036 91.717181 
L 212.681342 102.181218 
L 212.925995 101.670154 
L 213.415301 90.132883 
L 213.659954 93.084278 
L 213.904607 100.763015 
L 214.14926 102.411197 
L 214.393913 105.963092 
L 214.638566 107.049103 
L 214.883219 101.657377 
L 215.127872 101.440175 
L 215.372525 91.321107 
L 215.617178 89.276851 
L 215.861831 84.8817 
L 216.106484 89.813468 
L 216.351137 92.279352 
L 216.59579 101.504058 
L 216.840443 101.401845 
L 217.085096 104.557666 
L 217.574402 105.528687 
L 217.819055 105.426474 
L 218.063708 105.988645 
L 218.308361 112.402499 
L 218.797667 102.615622 
L 219.04232 108.710061 
L 219.286973 121.039481 
L 219.531626 111.955318 
L 219.776279 116.197149 
L 220.020932 118.318065 
L 220.265585 118.203076 
L 220.510238 115.149468 
L 220.754891 119.23798 
L 220.999544 117.155394 
L 221.244197 122.943195 
L 221.48885 119.940693 
L 221.733503 122.662109 
L 222.467462 117.628129 
L 222.712115 109.272231 
L 222.956768 110.447679 
L 223.446074 114.178446 
L 223.690727 121.857184 
L 223.93538 123.122067 
L 224.424686 120.681736 
L 224.669339 123.288163 
L 224.913992 113.462957 
L 225.158645 108.837827 
L 225.403298 111.239828 
L 225.647952 106.014198 
L 225.892605 110.077157 
L 226.137258 117.564246 
L 226.381911 120.502864 
L 226.626564 118.088086 
L 226.871217 113.986797 
L 227.11587 116.72099 
L 227.360523 113.309637 
L 227.605176 116.580447 
L 227.849829 122.853758 
L 228.094482 122.50879 
L 228.583788 103.854953 
L 228.828441 108.556742 
L 229.073094 107.777369 
L 229.317747 109.681083 
L 229.807053 118.63748 
L 230.051706 117.39815 
L 230.296359 112.300286 
L 230.785665 110.371019 
L 231.030318 111.763669 
L 231.519624 101.312409 
L 231.764277 102.935037 
L 232.00893 103.177793 
L 232.253583 127.09559 
L 232.742889 122.725992 
L 232.987542 134.173827 
L 233.232195 140.166053 
L 233.476848 135.59203 
L 233.721501 135.707019 
L 233.966154 139.156702 
L 234.45546 141.277617 
L 234.700113 139.884968 
L 234.944766 136.422509 
L 235.189419 138.543425 
L 235.678725 133.190029 
L 236.168031 122.598226 
L 236.412684 127.210579 
L 236.657337 125.600728 
L 236.90199 127.108367 
L 237.146643 130.775251 
L 237.391296 125.460185 
L 237.635949 123.160397 
L 238.125255 121.933843 
L 238.369908 119.927917 
L 238.614561 123.428706 
L 238.859214 124.182525 
L 239.34852 118.803576 
L 239.593173 117.743118 
L 239.837826 120.132342 
L 240.082479 121.065034 
L 240.327132 115.302787 
L 240.571785 113.782372 
L 240.816438 113.565169 
L 241.061091 115.136691 
L 241.305744 112.146967 
L 241.550397 114.267882 
L 241.79505 117.807001 
L 242.284356 126.814505 
L 242.529009 128.628782 
L 242.773662 129.101516 
L 243.018315 131.247985 
L 243.262968 141.469266 
L 243.507621 143.37298 
L 243.752274 147.154854 
L 243.996927 143.33465 
L 244.24158 143.104671 
L 244.486233 136.051988 
L 244.730886 138.594531 
L 244.975539 144.599534 
L 245.220192 140.10217 
L 245.464845 129.446485 
L 245.709498 127.951622 
L 246.443457 117.704788 
L 246.68811 119.467959 
L 246.932763 130.417506 
L 247.177416 168.300129 
L 247.422069 165.770362 
L 247.666722 160.071998 
L 247.911375 162.384563 
L 248.156029 166.881926 
L 248.400682 165.374287 
L 248.889988 160.084774 
L 249.134641 158.014965 
L 249.379294 157.031167 
L 249.8686 177.512058 
L 250.113253 177.422622 
L 250.602559 169.066725 
L 250.847212 170.753236 
L 251.091865 174.867302 
L 251.581171 187.61835 
L 251.825824 202.733069 
L 252.070477 207.958699 
L 252.31513 201.046558 
L 252.559783 188.704361 
L 252.804436 188.614925 
L 253.293742 199.551695 
L 253.538395 193.700012 
L 253.783048 192.511788 
L 254.027701 196.446981 
L 254.517007 191.195798 
L 255.250966 202.490314 
L 255.495619 202.324218 
L 255.740272 190.88916 
L 256.718884 209.070263 
L 256.963537 213.861489 
L 257.20819 213.580404 
L 257.452843 211.344498 
L 257.697496 212.979903 
L 257.942149 208.354774 
L 258.186802 207.422082 
L 258.431455 207.268763 
L 258.676108 193.240054 
L 258.920761 191.821852 
L 259.165414 191.591873 
L 259.65472 202.50309 
L 259.899373 198.721216 
L 260.144026 198.912865 
L 260.388679 195.808151 
L 260.633332 197.699088 
L 260.877985 191.029702 
L 261.122638 190.058681 
L 261.367291 185.356892 
L 261.611944 187.235052 
L 261.856597 191.809075 
L 262.345903 181.626124 
L 262.835209 160.85137 
L 263.079862 162.537882 
L 263.324515 167.073575 
L 263.569168 143.462416 
L 263.813821 133.59888 
L 264.058474 137.035786 
L 264.303127 130.110868 
L 264.792433 127.070037 
L 265.037086 135.106519 
L 265.526392 128.104942 
L 265.771045 129.829783 
L 266.015698 135.183179 
L 266.260351 129.08874 
L 266.505004 131.503518 
L 266.749657 121.410003 
L 266.99431 117.487586 
L 267.238963 118.905789 
L 267.483616 117.92199 
L 267.728269 120.643406 
L 267.972922 125.153547 
L 268.217575 120.323991 
L 268.462228 104.493783 
L 269.196187 117.896437 
L 269.44084 116.848756 
L 269.685493 116.542117 
L 270.174799 126.865611 
L 270.419452 127.440558 
L 270.664106 135.528147 
L 270.908759 135.259838 
L 271.153412 128.564899 
L 271.398065 128.296591 
L 271.642718 131.362975 
L 271.887371 137.776829 
L 272.132024 130.724145 
L 272.62133 131.886816 
L 272.865983 135.208732 
L 273.110636 136.652488 
L 273.355289 134.250487 
L 273.844595 141.45649 
L 274.089248 147.857567 
L 274.333901 143.590182 
L 274.578554 145.838864 
L 274.823207 160.199764 
L 275.06786 164.071074 
L 275.312513 165.310404 
L 275.557166 162.065148 
L 275.801819 170.842673 
L 276.046472 162.933956 
L 276.291125 173.551312 
L 276.535778 170.855449 
L 276.780431 172.184216 
L 277.025084 166.345309 
L 277.269737 164.288276 
L 277.51439 168.926182 
L 277.759043 169.513906 
L 278.003696 180.770092 
L 278.248349 182.46938 
L 278.493002 174.381791 
L 278.737655 177.154314 
L 278.982308 185.178019 
L 279.226961 187.401148 
L 279.471614 188.027201 
L 279.716267 197.290237 
L 279.96092 197.660759 
L 280.205573 203.244133 
L 280.450226 199.283387 
L 280.694879 202.566973 
L 280.939532 187.848329 
L 281.428838 174.049599 
L 281.673491 177.665378 
L 282.162797 167.482426 
L 282.40745 177.256526 
L 282.652103 175.046174 
L 282.896756 180.833975 
L 283.141409 160.92803 
L 283.386062 160.557509 
L 283.630715 161.413541 
L 283.875368 152.751005 
L 284.120021 156.916177 
L 284.364674 156.45622 
L 284.609327 154.859144 
L 284.85398 156.583986 
L 285.098633 162.192914 
L 285.343286 157.478348 
L 285.587939 158.014965 
L 285.832592 149.19911 
L 286.077245 150.425664 
L 286.321898 152.725452 
L 286.566551 149.109674 
L 286.811204 148.611387 
L 287.055857 142.887469 
L 287.30051 143.909597 
L 287.545163 142.274192 
L 287.789816 148.100322 
L 288.034469 146.797109 
L 288.279122 146.401034 
L 288.523775 140.434362 
L 288.768428 140.370479 
L 289.013081 139.105595 
L 289.257734 139.808308 
L 289.502387 141.545926 
L 289.74704 148.151429 
L 289.991693 144.292895 
L 290.236346 149.774057 
L 290.970305 143.551852 
L 291.214958 135.144849 
L 291.459611 132.92172 
L 291.704264 136.115871 
L 291.948917 136.473615 
L 292.19357 134.454912 
L 292.682876 136.729147 
L 293.172183 142.73415 
L 293.416836 142.465841 
L 293.661489 142.849139 
L 293.906142 145.315023 
L 294.150795 134.735998 
L 294.395448 154.399187 
L 294.640101 160.21254 
L 294.884754 156.481773 
L 295.37406 160.749158 
L 295.863366 170.62547 
L 296.352672 176.924335 
L 296.597325 178.879155 
L 296.841978 168.389565 
L 297.086631 164.454372 
L 297.575937 167.686852 
L 297.82059 165.719256 
L 298.065243 166.077 
L 298.309896 158.232167 
L 298.799202 155.983485 
L 299.043855 146.60546 
L 299.288508 154.871921 
L 299.533161 157.440018 
L 299.777814 158.577135 
L 300.022467 161.00469 
L 300.26712 159.880349 
L 300.756426 167.43132 
L 301.001079 167.073575 
L 301.245732 173.091354 
L 301.490385 174.024046 
L 301.735038 177.486505 
L 301.979691 177.24375 
L 302.224344 171.507056 
L 302.468997 175.135611 
L 302.71365 170.216619 
L 302.958303 174.982291 
L 303.202956 175.723334 
L 303.447609 173.551312 
L 303.692262 179.684081 
L 303.936915 182.494933 
L 304.426221 172.925259 
L 304.670874 171.97979 
L 304.915527 171.928684 
L 305.16018 176.170515 
L 305.404833 176.56659 
L 305.649486 174.190142 
L 305.894139 178.815272 
L 306.138792 169.577789 
L 306.383445 172.196992 
L 306.628098 173.244674 
L 306.872751 172.363088 
L 307.117404 175.058951 
L 307.362057 172.439748 
L 307.60671 177.039324 
L 307.851363 177.729261 
L 308.096016 176.771016 
L 308.585322 178.240325 
L 308.829975 173.410769 
L 309.074628 171.532609 
L 309.319281 171.366513 
L 309.563934 179.070804 
L 309.808587 174.432898 
L 310.05324 177.601495 
L 310.297893 175.697781 
L 310.542546 175.28893 
L 310.787199 169.130608 
L 311.276505 171.481503 
L 311.521158 171.366513 
L 311.765811 168.696204 
L 312.010464 168.364012 
L 312.255117 162.014041 
L 312.49977 161.56686 
L 312.744423 162.295126 
L 313.233729 156.162358 
L 313.478382 160.864147 
L 313.723035 161.324105 
L 313.967688 163.879425 
L 314.212341 162.141807 
L 314.456994 161.349658 
L 314.701647 161.119679 
L 314.9463 158.819891 
L 315.190953 164.416042 
L 315.435607 157.414465 
L 315.68026 155.842943 
L 315.924913 141.430937 
L 316.169566 141.315947 
L 316.414219 143.424086 
L 316.658872 150.323451 
L 316.903525 147.729801 
L 317.148178 150.578983 
L 317.392831 150.221238 
L 317.637484 144.701747 
L 317.882137 146.60546 
L 318.12679 146.950428 
L 318.371443 144.867842 
L 318.616096 132.525646 
L 318.860749 133.266688 
L 319.350055 141.686469 
L 319.594708 139.169478 
L 319.839361 143.117448 
L 320.084014 150.157355 
L 320.328667 150.361781 
L 320.57332 148.48362 
L 320.817973 147.793684 
L 321.062626 147.755354 
L 321.551932 153.262069 
L 321.796585 151.102824 
L 322.041238 156.788411 
L 322.285891 158.870997 
L 322.530544 159.893125 
L 322.775197 158.743231 
L 323.01985 159.203189 
L 323.509156 157.861646 
L 323.753809 159.177636 
L 323.998462 157.146156 
L 324.243115 151.90775 
L 324.732421 162.180137 
L 324.977074 159.267072 
L 325.221727 153.530378 
L 325.711033 161.324105 
L 325.955686 167.341884 
L 326.200339 167.610192 
L 326.444992 168.721757 
L 326.689645 163.789989 
L 326.934298 164.607691 
L 327.178951 167.495203 
L 327.423604 174.126259 
L 327.668257 174.790642 
L 327.91291 176.349388 
L 328.402216 169.948311 
L 328.646869 170.62547 
L 328.891522 172.963588 
L 329.136175 171.289854 
L 329.625481 173.921833 
L 329.870134 172.886929 
L 330.35944 166.83082 
L 330.604093 169.680002 
L 330.848746 174.624547 
L 331.093399 176.426047 
L 331.338052 173.040248 
L 331.582705 171.954237 
L 331.827358 166.639171 
L 332.072011 168.657874 
L 332.316664 164.735457 
L 332.561317 167.725182 
L 332.80597 163.917755 
L 333.050623 166.000341 
L 333.295276 171.174864 
L 333.784582 173.845174 
L 334.029235 171.813694 
L 334.518541 174.867302 
L 334.763194 173.93461 
L 335.2525 171.481503 
L 335.497153 170.254949 
L 335.741806 172.925259 
L 336.475765 156.239017 
L 336.720418 157.631667 
L 336.965071 156.635092 
L 337.209724 152.610463 
L 337.454377 153.875346 
L 337.943684 157.503901 
L 338.188337 156.890624 
L 338.677643 158.002188 
L 338.922296 161.387988 
L 339.166949 158.155508 
L 339.411602 158.053295 
L 339.656255 157.337805 
L 339.900908 159.458721 
L 340.145561 160.544732 
L 340.634867 159.305402 
L 340.87952 160.902477 
L 341.124173 161.439094 
L 341.368826 159.177636 
L 341.613479 155.804613 
L 341.858132 155.344655 
L 342.102785 151.090047 
L 342.347438 151.090047 
L 342.592091 147.908673 
L 342.836744 147.499822 
L 343.081397 149.467419 
L 343.32605 148.432514 
L 343.570703 146.694896 
L 343.815356 146.401034 
L 344.304662 145.3278 
L 344.549315 147.078194 
L 344.793968 159.177636 
L 345.038621 161.988488 
L 345.527927 158.97321 
L 346.017233 160.940807 
L 346.261886 161.56686 
L 346.506539 161.00469 
L 346.751192 160.838594 
L 347.240498 162.28235 
L 347.485151 161.630743 
L 347.729804 162.154584 
L 347.974457 163.176712 
L 348.21911 157.388912 
L 348.463763 157.325029 
L 348.708416 157.951082 
L 348.953069 163.994414 
L 349.197722 166.345309 
L 349.442375 166.281426 
L 349.687028 168.006267 
L 350.176334 166.051447 
L 350.420987 164.939883 
L 350.66564 162.767861 
L 350.910293 162.563435 
L 351.154946 159.394838 
L 351.399599 159.139306 
L 351.644252 162.052371 
L 351.888905 161.464647 
L 352.133558 162.665648 
L 352.378211 160.391413 
L 352.622864 161.937382 
L 352.867517 161.170785 
L 353.11217 162.448446 
L 353.356823 161.554084 
L 353.601476 160.071998 
L 353.846129 155.804613 
L 354.090782 154.744155 
L 354.335435 155.459645 
L 354.580088 152.968208 
L 354.824741 144.075693 
L 355.069394 144.484544 
L 355.314047 142.964129 
L 355.5587 152.712675 
L 355.803353 152.929878 
L 356.292659 156.328454 
L 356.537312 157.210039 
L 356.781965 155.523528 
L 357.026618 156.239017 
L 357.271271 149.19911 
L 357.515924 148.445291 
L 357.760577 144.573981 
L 358.00523 144.280119 
L 358.249883 145.161704 
L 358.494536 139.412234 
L 358.983842 149.901823 
L 359.228495 141.814235 
L 359.473148 138.070691 
L 359.717801 137.930148 
L 359.962454 139.42501 
L 360.207107 137.738499 
L 360.451761 139.731649 
L 360.696414 140.383255 
L 360.941067 145.212811 
L 361.18572 143.730725 
L 361.430373 143.29632 
L 361.675026 143.666842 
L 361.919679 145.659992 
L 362.164332 143.385757 
L 362.408985 145.659992 
L 362.653638 151.639441 
L 363.387597 155.306326 
L 363.876903 160.825817 
L 364.121556 156.928954 
L 364.366209 155.753507 
L 364.610862 152.789335 
L 365.100168 155.382985 
L 365.344821 154.974134 
L 365.589474 158.628242 
L 366.07878 153.479272 
L 366.323433 154.46307 
L 366.568086 153.044867 
L 366.812739 148.113099 
L 367.057392 150.719526 
L 367.302045 151.217813 
L 367.791351 147.372056 
L 368.036004 144.369555 
L 368.280657 144.165129 
L 368.52531 142.082543 
L 368.769963 142.491395 
L 369.259269 139.067265 
L 369.503922 138.543425 
L 369.748575 136.166977 
L 369.993228 129.178176 
L 370.237881 131.222432 
L 370.482534 125.958473 
L 370.727187 126.175675 
L 370.97184 101.900133 
L 371.216493 93.786991 
L 371.461146 94.745236 
L 371.705799 99.395919 
L 371.950452 92.458224 
L 372.195105 94.170289 
L 372.439758 92.752086 
L 372.684411 89.826244 
L 372.929064 88.740233 
L 373.173717 98.616546 
L 373.41837 97.441099 
L 373.663023 97.185567 
L 373.907676 95.090204 
L 374.152329 94.055299 
L 374.396982 100.558589 
L 374.641635 101.018547 
L 374.886288 98.731535 
L 375.130941 94.093629 
L 375.375594 95.524609 
L 375.620247 95.690704 
L 375.8649 94.809119 
L 376.109553 101.912909 
L 376.354206 101.018547 
L 376.843512 91.614969 
L 377.088165 85.750509 
L 377.332818 95.128534 
L 377.577471 92.994841 
L 377.822124 85.060572 
L 378.066777 90.10733 
L 378.556083 79.413314 
L 378.800736 80.93373 
L 379.045389 79.758283 
L 379.290042 82.466922 
L 379.534695 77.535154 
L 379.779348 79.093899 
L 380.024001 78.953357 
L 380.268654 77.726803 
L 380.513307 75.618664 
L 380.75796 83.386837 
L 381.002613 81.214815 
L 381.247266 76.576909 
L 381.491919 74.711525 
L 381.736572 66.521724 
L 381.981225 65.269617 
L 382.225878 67.403309 
L 382.470531 71.274619 
L 382.715184 69.613661 
L 382.959838 66.521724 
L 383.204491 60.733923 
L 383.449144 47.714567 
L 383.693797 50.384876 
L 383.93845 51.64976 
L 384.183103 47.369599 
L 384.427756 34.414125 
L 384.672409 37.608275 
L 384.917062 39.333116 
L 385.161715 45.018704 
L 385.406368 44.533193 
L 385.651021 42.961671 
L 385.895674 45.683087 
L 386.140327 46.909641 
L 386.38498 50.001578 
L 386.629633 77.151856 
L 386.874286 80.920953 
L 387.118939 71.312949 
L 387.363592 69.409236 
L 387.608245 73.67662 
L 387.852898 74.379334 
L 387.852898 74.379334 
" style="fill:none;stroke:#ff7f0e;stroke-linecap:square;stroke-width:1.5;"/>
   </g>
   <g id="patch_3">
    <path d="M 46.965625 288.430125 
L 46.965625 22.318125 
" style="fill:none;stroke:#000000;stroke-linecap:square;stroke-linejoin:miter;stroke-width:0.8;"/>
   </g>
   <g id="patch_4">
    <path d="M 404.085625 288.430125 
L 404.085625 22.318125 
" style="fill:none;stroke:#000000;stroke-linecap:square;stroke-linejoin:miter;stroke-width:0.8;"/>
   </g>
   <g id="patch_5">
    <path d="M 46.965625 288.430125 
L 404.085625 288.430125 
" style="fill:none;stroke:#000000;stroke-linecap:square;stroke-linejoin:miter;stroke-width:0.8;"/>
   </g>
   <g id="patch_6">
    <path d="M 46.965625 22.318125 
L 404.085625 22.318125 
" style="fill:none;stroke:#000000;stroke-linecap:square;stroke-linejoin:miter;stroke-width:0.8;"/>
   </g>
   <g id="text_19">
    <!-- Training: BIDU -->
    <defs>
     <path d="M -0.296875 72.90625 
L 61.375 72.90625 
L 61.375 64.59375 
L 35.5 64.59375 
L 35.5 0 
L 25.59375 0 
L 25.59375 64.59375 
L -0.296875 64.59375 
z
" id="DejaVuSans-84"/>
     <path d="M 54.890625 33.015625 
L 54.890625 0 
L 45.90625 0 
L 45.90625 32.71875 
Q 45.90625 40.484375 42.875 44.328125 
Q 39.84375 48.1875 33.796875 48.1875 
Q 26.515625 48.1875 22.3125 43.546875 
Q 18.109375 38.921875 18.109375 30.90625 
L 18.109375 0 
L 9.078125 0 
L 9.078125 54.6875 
L 18.109375 54.6875 
L 18.109375 46.1875 
Q 21.34375 51.125 25.703125 53.5625 
Q 30.078125 56 35.796875 56 
Q 45.21875 56 50.046875 50.171875 
Q 54.890625 44.34375 54.890625 33.015625 
z
" id="DejaVuSans-110"/>
     <path d="M 45.40625 27.984375 
Q 45.40625 37.75 41.375 43.109375 
Q 37.359375 48.484375 30.078125 48.484375 
Q 22.859375 48.484375 18.828125 43.109375 
Q 14.796875 37.75 14.796875 27.984375 
Q 14.796875 18.265625 18.828125 12.890625 
Q 22.859375 7.515625 30.078125 7.515625 
Q 37.359375 7.515625 41.375 12.890625 
Q 45.40625 18.265625 45.40625 27.984375 
z
M 54.390625 6.78125 
Q 54.390625 -7.171875 48.1875 -13.984375 
Q 42 -20.796875 29.203125 -20.796875 
Q 24.46875 -20.796875 20.265625 -20.09375 
Q 16.0625 -19.390625 12.109375 -17.921875 
L 12.109375 -9.1875 
Q 16.0625 -11.328125 19.921875 -12.34375 
Q 23.78125 -13.375 27.78125 -13.375 
Q 36.625 -13.375 41.015625 -8.765625 
Q 45.40625 -4.15625 45.40625 5.171875 
L 45.40625 9.625 
Q 42.625 4.78125 38.28125 2.390625 
Q 33.9375 0 27.875 0 
Q 17.828125 0 11.671875 7.65625 
Q 5.515625 15.328125 5.515625 27.984375 
Q 5.515625 40.671875 11.671875 48.328125 
Q 17.828125 56 27.875 56 
Q 33.9375 56 38.28125 53.609375 
Q 42.625 51.21875 45.40625 46.390625 
L 45.40625 54.6875 
L 54.390625 54.6875 
z
" id="DejaVuSans-103"/>
     <path d="M 11.71875 12.40625 
L 22.015625 12.40625 
L 22.015625 0 
L 11.71875 0 
z
M 11.71875 51.703125 
L 22.015625 51.703125 
L 22.015625 39.3125 
L 11.71875 39.3125 
z
" id="DejaVuSans-58"/>
     <path d="M 19.671875 34.8125 
L 19.671875 8.109375 
L 35.5 8.109375 
Q 43.453125 8.109375 47.28125 11.40625 
Q 51.125 14.703125 51.125 21.484375 
Q 51.125 28.328125 47.28125 31.5625 
Q 43.453125 34.8125 35.5 34.8125 
z
M 19.671875 64.796875 
L 19.671875 42.828125 
L 34.28125 42.828125 
Q 41.5 42.828125 45.03125 45.53125 
Q 48.578125 48.25 48.578125 53.8125 
Q 48.578125 59.328125 45.03125 62.0625 
Q 41.5 64.796875 34.28125 64.796875 
z
M 9.8125 72.90625 
L 35.015625 72.90625 
Q 46.296875 72.90625 52.390625 68.21875 
Q 58.5 63.53125 58.5 54.890625 
Q 58.5 48.1875 55.375 44.234375 
Q 52.25 40.28125 46.1875 39.3125 
Q 53.46875 37.75 57.5 32.78125 
Q 61.53125 27.828125 61.53125 20.40625 
Q 61.53125 10.640625 54.890625 5.3125 
Q 48.25 0 35.984375 0 
L 9.8125 0 
z
" id="DejaVuSans-66"/>
     <path d="M 9.8125 72.90625 
L 19.671875 72.90625 
L 19.671875 0 
L 9.8125 0 
z
" id="DejaVuSans-73"/>
     <path d="M 8.6875 72.90625 
L 18.609375 72.90625 
L 18.609375 28.609375 
Q 18.609375 16.890625 22.84375 11.734375 
Q 27.09375 6.59375 36.625 6.59375 
Q 46.09375 6.59375 50.34375 11.734375 
Q 54.59375 16.890625 54.59375 28.609375 
L 54.59375 72.90625 
L 64.5 72.90625 
L 64.5 27.390625 
Q 64.5 13.140625 57.4375 5.859375 
Q 50.390625 -1.421875 36.625 -1.421875 
Q 22.796875 -1.421875 15.734375 5.859375 
Q 8.6875 13.140625 8.6875 27.390625 
z
" id="DejaVuSans-85"/>
    </defs>
    <g transform="translate(183.02875 16.318125)scale(0.12 -0.12)">
     <use xlink:href="#DejaVuSans-84"/>
     <use x="46.333984" xlink:href="#DejaVuSans-114"/>
     <use x="87.447266" xlink:href="#DejaVuSans-97"/>
     <use x="148.726562" xlink:href="#DejaVuSans-105"/>
     <use x="176.509766" xlink:href="#DejaVuSans-110"/>
     <use x="239.888672" xlink:href="#DejaVuSans-105"/>
     <use x="267.671875" xlink:href="#DejaVuSans-110"/>
     <use x="331.050781" xlink:href="#DejaVuSans-103"/>
     <use x="394.527344" xlink:href="#DejaVuSans-58"/>
     <use x="428.21875" xlink:href="#DejaVuSans-32"/>
     <use x="460.005859" xlink:href="#DejaVuSans-66"/>
     <use x="528.609375" xlink:href="#DejaVuSans-73"/>
     <use x="558.101562" xlink:href="#DejaVuSans-68"/>
     <use x="635.103516" xlink:href="#DejaVuSans-85"/>
    </g>
   </g>
   <g id="legend_1">
    <g id="patch_7">
     <path d="M 53.965625 59.674375 
L 137.69375 59.674375 
Q 139.69375 59.674375 139.69375 57.674375 
L 139.69375 29.318125 
Q 139.69375 27.318125 137.69375 27.318125 
L 53.965625 27.318125 
Q 51.965625 27.318125 51.965625 29.318125 
L 51.965625 57.674375 
Q 51.965625 59.674375 53.965625 59.674375 
z
" style="fill:#ffffff;opacity:0.8;stroke:#cccccc;stroke-linejoin:miter;"/>
    </g>
    <g id="line2d_35">
     <path d="M 55.965625 35.416562 
L 75.965625 35.416562 
" style="fill:none;stroke:#1f77b4;stroke-linecap:square;stroke-width:1.5;"/>
    </g>
    <g id="line2d_36"/>
    <g id="text_20">
     <!-- Predicted -->
     <defs>
      <path d="M 45.40625 46.390625 
L 45.40625 75.984375 
L 54.390625 75.984375 
L 54.390625 0 
L 45.40625 0 
L 45.40625 8.203125 
Q 42.578125 3.328125 38.25 0.953125 
Q 33.9375 -1.421875 27.875 -1.421875 
Q 17.96875 -1.421875 11.734375 6.484375 
Q 5.515625 14.40625 5.515625 27.296875 
Q 5.515625 40.1875 11.734375 48.09375 
Q 17.96875 56 27.875 56 
Q 33.9375 56 38.25 53.625 
Q 42.578125 51.265625 45.40625 46.390625 
z
M 14.796875 27.296875 
Q 14.796875 17.390625 18.875 11.75 
Q 22.953125 6.109375 30.078125 6.109375 
Q 37.203125 6.109375 41.296875 11.75 
Q 45.40625 17.390625 45.40625 27.296875 
Q 45.40625 37.203125 41.296875 42.84375 
Q 37.203125 48.484375 30.078125 48.484375 
Q 22.953125 48.484375 18.875 42.84375 
Q 14.796875 37.203125 14.796875 27.296875 
z
" id="DejaVuSans-100"/>
      <path d="M 18.3125 70.21875 
L 18.3125 54.6875 
L 36.8125 54.6875 
L 36.8125 47.703125 
L 18.3125 47.703125 
L 18.3125 18.015625 
Q 18.3125 11.328125 20.140625 9.421875 
Q 21.96875 7.515625 27.59375 7.515625 
L 36.8125 7.515625 
L 36.8125 0 
L 27.59375 0 
Q 17.1875 0 13.234375 3.875 
Q 9.28125 7.765625 9.28125 18.015625 
L 9.28125 47.703125 
L 2.6875 47.703125 
L 2.6875 54.6875 
L 9.28125 54.6875 
L 9.28125 70.21875 
z
" id="DejaVuSans-116"/>
     </defs>
     <g transform="translate(83.965625 38.916562)scale(0.1 -0.1)">
      <use xlink:href="#DejaVuSans-80"/>
      <use x="58.552734" xlink:href="#DejaVuSans-114"/>
      <use x="97.416016" xlink:href="#DejaVuSans-101"/>
      <use x="158.939453" xlink:href="#DejaVuSans-100"/>
      <use x="222.416016" xlink:href="#DejaVuSans-105"/>
      <use x="250.199219" xlink:href="#DejaVuSans-99"/>
      <use x="305.179688" xlink:href="#DejaVuSans-116"/>
      <use x="344.388672" xlink:href="#DejaVuSans-101"/>
      <use x="405.912109" xlink:href="#DejaVuSans-100"/>
     </g>
    </g>
    <g id="line2d_37">
     <path d="M 55.965625 50.094687 
L 75.965625 50.094687 
" style="fill:none;stroke:#ff7f0e;stroke-linecap:square;stroke-width:1.5;"/>
    </g>
    <g id="line2d_38"/>
    <g id="text_21">
     <!-- True value -->
     <defs>
      <path d="M 8.5 21.578125 
L 8.5 54.6875 
L 17.484375 54.6875 
L 17.484375 21.921875 
Q 17.484375 14.15625 20.5 10.265625 
Q 23.53125 6.390625 29.59375 6.390625 
Q 36.859375 6.390625 41.078125 11.03125 
Q 45.3125 15.671875 45.3125 23.6875 
L 45.3125 54.6875 
L 54.296875 54.6875 
L 54.296875 0 
L 45.3125 0 
L 45.3125 8.40625 
Q 42.046875 3.421875 37.71875 1 
Q 33.40625 -1.421875 27.6875 -1.421875 
Q 18.265625 -1.421875 13.375 4.4375 
Q 8.5 10.296875 8.5 21.578125 
z
M 31.109375 56 
z
" id="DejaVuSans-117"/>
      <path d="M 2.984375 54.6875 
L 12.5 54.6875 
L 29.59375 8.796875 
L 46.6875 54.6875 
L 56.203125 54.6875 
L 35.6875 0 
L 23.484375 0 
z
" id="DejaVuSans-118"/>
      <path d="M 9.421875 75.984375 
L 18.40625 75.984375 
L 18.40625 0 
L 9.421875 0 
z
" id="DejaVuSans-108"/>
     </defs>
     <g transform="translate(83.965625 53.594687)scale(0.1 -0.1)">
      <use xlink:href="#DejaVuSans-84"/>
      <use x="46.333984" xlink:href="#DejaVuSans-114"/>
      <use x="87.447266" xlink:href="#DejaVuSans-117"/>
      <use x="150.826172" xlink:href="#DejaVuSans-101"/>
      <use x="212.349609" xlink:href="#DejaVuSans-32"/>
      <use x="244.136719" xlink:href="#DejaVuSans-118"/>
      <use x="303.316406" xlink:href="#DejaVuSans-97"/>
      <use x="364.595703" xlink:href="#DejaVuSans-108"/>
      <use x="392.378906" xlink:href="#DejaVuSans-117"/>
      <use x="455.757812" xlink:href="#DejaVuSans-101"/>
     </g>
    </g>
   </g>
  </g>
 </g>
 <defs>
  <clipPath id="p67783a3663">
   <rect height="266.112" width="357.12" x="46.965625" y="22.318125"/>
  </clipPath>
 </defs>
</svg>
