<?xml version="1.0" encoding="utf-8" standalone="no"?>
<!DOCTYPE svg PUBLIC "-//W3C//DTD SVG 1.1//EN"
  "http://www.w3.org/Graphics/SVG/1.1/DTD/svg11.dtd">
<!-- Created with matplotlib (https://matplotlib.org/) -->
<svg height="325.986375pt" version="1.1" viewBox="0 0 404.923125 325.986375" width="404.923125pt" xmlns="http://www.w3.org/2000/svg" xmlns:xlink="http://www.w3.org/1999/xlink">
 <defs>
  <style type="text/css">
*{stroke-linecap:butt;stroke-linejoin:round;}
  </style>
 </defs>
 <g id="figure_1">
  <g id="patch_1">
   <path d="M 0 325.986375 
L 404.923125 325.986375 
L 404.923125 0 
L 0 0 
z
" style="fill:#ffffff;"/>
  </g>
  <g id="axes_1">
   <g id="patch_2">
    <path d="M 40.603125 288.430125 
L 397.723125 288.430125 
L 397.723125 22.318125 
L 40.603125 22.318125 
z
" style="fill:#ffffff;"/>
   </g>
   <g id="matplotlib.axis_1">
    <g id="xtick_1">
     <g id="line2d_1">
      <path clip-path="url(#pd9182d1615)" d="M 56.835852 288.430125 
L 56.835852 22.318125 
" style="fill:none;stroke:#b0b0b0;stroke-dasharray:2.96,1.28;stroke-dashoffset:0;stroke-width:0.8;"/>
     </g>
     <g id="line2d_2">
      <defs>
       <path d="M 0 0 
L 0 3.5 
" id="m5008f0d950" style="stroke:#000000;stroke-width:0.8;"/>
      </defs>
      <g>
       <use style="stroke:#000000;stroke-width:0.8;" x="56.835852" xlink:href="#m5008f0d950" y="288.430125"/>
      </g>
     </g>
     <g id="text_1">
      <!-- 0 -->
      <defs>
       <path d="M 31.78125 66.40625 
Q 24.171875 66.40625 20.328125 58.90625 
Q 16.5 51.421875 16.5 36.375 
Q 16.5 21.390625 20.328125 13.890625 
Q 24.171875 6.390625 31.78125 6.390625 
Q 39.453125 6.390625 43.28125 13.890625 
Q 47.125 21.390625 47.125 36.375 
Q 47.125 51.421875 43.28125 58.90625 
Q 39.453125 66.40625 31.78125 66.40625 
z
M 31.78125 74.21875 
Q 44.046875 74.21875 50.515625 64.515625 
Q 56.984375 54.828125 56.984375 36.375 
Q 56.984375 17.96875 50.515625 8.265625 
Q 44.046875 -1.421875 31.78125 -1.421875 
Q 19.53125 -1.421875 13.0625 8.265625 
Q 6.59375 17.96875 6.59375 36.375 
Q 6.59375 54.828125 13.0625 64.515625 
Q 19.53125 74.21875 31.78125 74.21875 
z
" id="DejaVuSans-48"/>
      </defs>
      <g transform="translate(53.654602 303.028562)scale(0.1 -0.1)">
       <use xlink:href="#DejaVuSans-48"/>
      </g>
     </g>
    </g>
    <g id="xtick_2">
     <g id="line2d_3">
      <path clip-path="url(#pd9182d1615)" d="M 105.766454 288.430125 
L 105.766454 22.318125 
" style="fill:none;stroke:#b0b0b0;stroke-dasharray:2.96,1.28;stroke-dashoffset:0;stroke-width:0.8;"/>
     </g>
     <g id="line2d_4">
      <g>
       <use style="stroke:#000000;stroke-width:0.8;" x="105.766454" xlink:href="#m5008f0d950" y="288.430125"/>
      </g>
     </g>
     <g id="text_2">
      <!-- 200 -->
      <defs>
       <path d="M 19.1875 8.296875 
L 53.609375 8.296875 
L 53.609375 0 
L 7.328125 0 
L 7.328125 8.296875 
Q 12.9375 14.109375 22.625 23.890625 
Q 32.328125 33.6875 34.8125 36.53125 
Q 39.546875 41.84375 41.421875 45.53125 
Q 43.3125 49.21875 43.3125 52.78125 
Q 43.3125 58.59375 39.234375 62.25 
Q 35.15625 65.921875 28.609375 65.921875 
Q 23.96875 65.921875 18.8125 64.3125 
Q 13.671875 62.703125 7.8125 59.421875 
L 7.8125 69.390625 
Q 13.765625 71.78125 18.9375 73 
Q 24.125 74.21875 28.421875 74.21875 
Q 39.75 74.21875 46.484375 68.546875 
Q 53.21875 62.890625 53.21875 53.421875 
Q 53.21875 48.921875 51.53125 44.890625 
Q 49.859375 40.875 45.40625 35.40625 
Q 44.1875 33.984375 37.640625 27.21875 
Q 31.109375 20.453125 19.1875 8.296875 
z
" id="DejaVuSans-50"/>
      </defs>
      <g transform="translate(96.222704 303.028562)scale(0.1 -0.1)">
       <use xlink:href="#DejaVuSans-50"/>
       <use x="63.623047" xlink:href="#DejaVuSans-48"/>
       <use x="127.246094" xlink:href="#DejaVuSans-48"/>
      </g>
     </g>
    </g>
    <g id="xtick_3">
     <g id="line2d_5">
      <path clip-path="url(#pd9182d1615)" d="M 154.697057 288.430125 
L 154.697057 22.318125 
" style="fill:none;stroke:#b0b0b0;stroke-dasharray:2.96,1.28;stroke-dashoffset:0;stroke-width:0.8;"/>
     </g>
     <g id="line2d_6">
      <g>
       <use style="stroke:#000000;stroke-width:0.8;" x="154.697057" xlink:href="#m5008f0d950" y="288.430125"/>
      </g>
     </g>
     <g id="text_3">
      <!-- 400 -->
      <defs>
       <path d="M 37.796875 64.3125 
L 12.890625 25.390625 
L 37.796875 25.390625 
z
M 35.203125 72.90625 
L 47.609375 72.90625 
L 47.609375 25.390625 
L 58.015625 25.390625 
L 58.015625 17.1875 
L 47.609375 17.1875 
L 47.609375 0 
L 37.796875 0 
L 37.796875 17.1875 
L 4.890625 17.1875 
L 4.890625 26.703125 
z
" id="DejaVuSans-52"/>
      </defs>
      <g transform="translate(145.153307 303.028562)scale(0.1 -0.1)">
       <use xlink:href="#DejaVuSans-52"/>
       <use x="63.623047" xlink:href="#DejaVuSans-48"/>
       <use x="127.246094" xlink:href="#DejaVuSans-48"/>
      </g>
     </g>
    </g>
    <g id="xtick_4">
     <g id="line2d_7">
      <path clip-path="url(#pd9182d1615)" d="M 203.627659 288.430125 
L 203.627659 22.318125 
" style="fill:none;stroke:#b0b0b0;stroke-dasharray:2.96,1.28;stroke-dashoffset:0;stroke-width:0.8;"/>
     </g>
     <g id="line2d_8">
      <g>
       <use style="stroke:#000000;stroke-width:0.8;" x="203.627659" xlink:href="#m5008f0d950" y="288.430125"/>
      </g>
     </g>
     <g id="text_4">
      <!-- 600 -->
      <defs>
       <path d="M 33.015625 40.375 
Q 26.375 40.375 22.484375 35.828125 
Q 18.609375 31.296875 18.609375 23.390625 
Q 18.609375 15.53125 22.484375 10.953125 
Q 26.375 6.390625 33.015625 6.390625 
Q 39.65625 6.390625 43.53125 10.953125 
Q 47.40625 15.53125 47.40625 23.390625 
Q 47.40625 31.296875 43.53125 35.828125 
Q 39.65625 40.375 33.015625 40.375 
z
M 52.59375 71.296875 
L 52.59375 62.3125 
Q 48.875 64.0625 45.09375 64.984375 
Q 41.3125 65.921875 37.59375 65.921875 
Q 27.828125 65.921875 22.671875 59.328125 
Q 17.53125 52.734375 16.796875 39.40625 
Q 19.671875 43.65625 24.015625 45.921875 
Q 28.375 48.1875 33.59375 48.1875 
Q 44.578125 48.1875 50.953125 41.515625 
Q 57.328125 34.859375 57.328125 23.390625 
Q 57.328125 12.15625 50.6875 5.359375 
Q 44.046875 -1.421875 33.015625 -1.421875 
Q 20.359375 -1.421875 13.671875 8.265625 
Q 6.984375 17.96875 6.984375 36.375 
Q 6.984375 53.65625 15.1875 63.9375 
Q 23.390625 74.21875 37.203125 74.21875 
Q 40.921875 74.21875 44.703125 73.484375 
Q 48.484375 72.75 52.59375 71.296875 
z
" id="DejaVuSans-54"/>
      </defs>
      <g transform="translate(194.083909 303.028562)scale(0.1 -0.1)">
       <use xlink:href="#DejaVuSans-54"/>
       <use x="63.623047" xlink:href="#DejaVuSans-48"/>
       <use x="127.246094" xlink:href="#DejaVuSans-48"/>
      </g>
     </g>
    </g>
    <g id="xtick_5">
     <g id="line2d_9">
      <path clip-path="url(#pd9182d1615)" d="M 252.558261 288.430125 
L 252.558261 22.318125 
" style="fill:none;stroke:#b0b0b0;stroke-dasharray:2.96,1.28;stroke-dashoffset:0;stroke-width:0.8;"/>
     </g>
     <g id="line2d_10">
      <g>
       <use style="stroke:#000000;stroke-width:0.8;" x="252.558261" xlink:href="#m5008f0d950" y="288.430125"/>
      </g>
     </g>
     <g id="text_5">
      <!-- 800 -->
      <defs>
       <path d="M 31.78125 34.625 
Q 24.75 34.625 20.71875 30.859375 
Q 16.703125 27.09375 16.703125 20.515625 
Q 16.703125 13.921875 20.71875 10.15625 
Q 24.75 6.390625 31.78125 6.390625 
Q 38.8125 6.390625 42.859375 10.171875 
Q 46.921875 13.96875 46.921875 20.515625 
Q 46.921875 27.09375 42.890625 30.859375 
Q 38.875 34.625 31.78125 34.625 
z
M 21.921875 38.8125 
Q 15.578125 40.375 12.03125 44.71875 
Q 8.5 49.078125 8.5 55.328125 
Q 8.5 64.0625 14.71875 69.140625 
Q 20.953125 74.21875 31.78125 74.21875 
Q 42.671875 74.21875 48.875 69.140625 
Q 55.078125 64.0625 55.078125 55.328125 
Q 55.078125 49.078125 51.53125 44.71875 
Q 48 40.375 41.703125 38.8125 
Q 48.828125 37.15625 52.796875 32.3125 
Q 56.78125 27.484375 56.78125 20.515625 
Q 56.78125 9.90625 50.3125 4.234375 
Q 43.84375 -1.421875 31.78125 -1.421875 
Q 19.734375 -1.421875 13.25 4.234375 
Q 6.78125 9.90625 6.78125 20.515625 
Q 6.78125 27.484375 10.78125 32.3125 
Q 14.796875 37.15625 21.921875 38.8125 
z
M 18.3125 54.390625 
Q 18.3125 48.734375 21.84375 45.5625 
Q 25.390625 42.390625 31.78125 42.390625 
Q 38.140625 42.390625 41.71875 45.5625 
Q 45.3125 48.734375 45.3125 54.390625 
Q 45.3125 60.0625 41.71875 63.234375 
Q 38.140625 66.40625 31.78125 66.40625 
Q 25.390625 66.40625 21.84375 63.234375 
Q 18.3125 60.0625 18.3125 54.390625 
z
" id="DejaVuSans-56"/>
      </defs>
      <g transform="translate(243.014511 303.028562)scale(0.1 -0.1)">
       <use xlink:href="#DejaVuSans-56"/>
       <use x="63.623047" xlink:href="#DejaVuSans-48"/>
       <use x="127.246094" xlink:href="#DejaVuSans-48"/>
      </g>
     </g>
    </g>
    <g id="xtick_6">
     <g id="line2d_11">
      <path clip-path="url(#pd9182d1615)" d="M 301.488863 288.430125 
L 301.488863 22.318125 
" style="fill:none;stroke:#b0b0b0;stroke-dasharray:2.96,1.28;stroke-dashoffset:0;stroke-width:0.8;"/>
     </g>
     <g id="line2d_12">
      <g>
       <use style="stroke:#000000;stroke-width:0.8;" x="301.488863" xlink:href="#m5008f0d950" y="288.430125"/>
      </g>
     </g>
     <g id="text_6">
      <!-- 1000 -->
      <defs>
       <path d="M 12.40625 8.296875 
L 28.515625 8.296875 
L 28.515625 63.921875 
L 10.984375 60.40625 
L 10.984375 69.390625 
L 28.421875 72.90625 
L 38.28125 72.90625 
L 38.28125 8.296875 
L 54.390625 8.296875 
L 54.390625 0 
L 12.40625 0 
z
" id="DejaVuSans-49"/>
      </defs>
      <g transform="translate(288.763863 303.028562)scale(0.1 -0.1)">
       <use xlink:href="#DejaVuSans-49"/>
       <use x="63.623047" xlink:href="#DejaVuSans-48"/>
       <use x="127.246094" xlink:href="#DejaVuSans-48"/>
       <use x="190.869141" xlink:href="#DejaVuSans-48"/>
      </g>
     </g>
    </g>
    <g id="xtick_7">
     <g id="line2d_13">
      <path clip-path="url(#pd9182d1615)" d="M 350.419465 288.430125 
L 350.419465 22.318125 
" style="fill:none;stroke:#b0b0b0;stroke-dasharray:2.96,1.28;stroke-dashoffset:0;stroke-width:0.8;"/>
     </g>
     <g id="line2d_14">
      <g>
       <use style="stroke:#000000;stroke-width:0.8;" x="350.419465" xlink:href="#m5008f0d950" y="288.430125"/>
      </g>
     </g>
     <g id="text_7">
      <!-- 1200 -->
      <g transform="translate(337.694465 303.028562)scale(0.1 -0.1)">
       <use xlink:href="#DejaVuSans-49"/>
       <use x="63.623047" xlink:href="#DejaVuSans-50"/>
       <use x="127.246094" xlink:href="#DejaVuSans-48"/>
       <use x="190.869141" xlink:href="#DejaVuSans-48"/>
      </g>
     </g>
    </g>
    <g id="text_8">
     <!-- Day -->
     <defs>
      <path d="M 19.671875 64.796875 
L 19.671875 8.109375 
L 31.59375 8.109375 
Q 46.6875 8.109375 53.6875 14.9375 
Q 60.6875 21.78125 60.6875 36.53125 
Q 60.6875 51.171875 53.6875 57.984375 
Q 46.6875 64.796875 31.59375 64.796875 
z
M 9.8125 72.90625 
L 30.078125 72.90625 
Q 51.265625 72.90625 61.171875 64.09375 
Q 71.09375 55.28125 71.09375 36.53125 
Q 71.09375 17.671875 61.125 8.828125 
Q 51.171875 0 30.078125 0 
L 9.8125 0 
z
" id="DejaVuSans-68"/>
      <path d="M 34.28125 27.484375 
Q 23.390625 27.484375 19.1875 25 
Q 14.984375 22.515625 14.984375 16.5 
Q 14.984375 11.71875 18.140625 8.90625 
Q 21.296875 6.109375 26.703125 6.109375 
Q 34.1875 6.109375 38.703125 11.40625 
Q 43.21875 16.703125 43.21875 25.484375 
L 43.21875 27.484375 
z
M 52.203125 31.203125 
L 52.203125 0 
L 43.21875 0 
L 43.21875 8.296875 
Q 40.140625 3.328125 35.546875 0.953125 
Q 30.953125 -1.421875 24.3125 -1.421875 
Q 15.921875 -1.421875 10.953125 3.296875 
Q 6 8.015625 6 15.921875 
Q 6 25.140625 12.171875 29.828125 
Q 18.359375 34.515625 30.609375 34.515625 
L 43.21875 34.515625 
L 43.21875 35.40625 
Q 43.21875 41.609375 39.140625 45 
Q 35.0625 48.390625 27.6875 48.390625 
Q 23 48.390625 18.546875 47.265625 
Q 14.109375 46.140625 10.015625 43.890625 
L 10.015625 52.203125 
Q 14.9375 54.109375 19.578125 55.046875 
Q 24.21875 56 28.609375 56 
Q 40.484375 56 46.34375 49.84375 
Q 52.203125 43.703125 52.203125 31.203125 
z
" id="DejaVuSans-97"/>
      <path d="M 32.171875 -5.078125 
Q 28.375 -14.84375 24.75 -17.8125 
Q 21.140625 -20.796875 15.09375 -20.796875 
L 7.90625 -20.796875 
L 7.90625 -13.28125 
L 13.1875 -13.28125 
Q 16.890625 -13.28125 18.9375 -11.515625 
Q 21 -9.765625 23.484375 -3.21875 
L 25.09375 0.875 
L 2.984375 54.6875 
L 12.5 54.6875 
L 29.59375 11.921875 
L 46.6875 54.6875 
L 56.203125 54.6875 
z
" id="DejaVuSans-121"/>
     </defs>
     <g transform="translate(209.289688 316.706687)scale(0.1 -0.1)">
      <use xlink:href="#DejaVuSans-68"/>
      <use x="77.001953" xlink:href="#DejaVuSans-97"/>
      <use x="138.28125" xlink:href="#DejaVuSans-121"/>
     </g>
    </g>
   </g>
   <g id="matplotlib.axis_2">
    <g id="ytick_1">
     <g id="line2d_15">
      <path clip-path="url(#pd9182d1615)" d="M 40.603125 274.245131 
L 397.723125 274.245131 
" style="fill:none;stroke:#b0b0b0;stroke-dasharray:2.96,1.28;stroke-dashoffset:0;stroke-width:0.8;"/>
     </g>
     <g id="line2d_16">
      <defs>
       <path d="M 0 0 
L -3.5 0 
" id="m4a74f03aa6" style="stroke:#000000;stroke-width:0.8;"/>
      </defs>
      <g>
       <use style="stroke:#000000;stroke-width:0.8;" x="40.603125" xlink:href="#m4a74f03aa6" y="274.245131"/>
      </g>
     </g>
     <g id="text_9">
      <!-- 36 -->
      <defs>
       <path d="M 40.578125 39.3125 
Q 47.65625 37.796875 51.625 33 
Q 55.609375 28.21875 55.609375 21.1875 
Q 55.609375 10.40625 48.1875 4.484375 
Q 40.765625 -1.421875 27.09375 -1.421875 
Q 22.515625 -1.421875 17.65625 -0.515625 
Q 12.796875 0.390625 7.625 2.203125 
L 7.625 11.71875 
Q 11.71875 9.328125 16.59375 8.109375 
Q 21.484375 6.890625 26.8125 6.890625 
Q 36.078125 6.890625 40.9375 10.546875 
Q 45.796875 14.203125 45.796875 21.1875 
Q 45.796875 27.640625 41.28125 31.265625 
Q 36.765625 34.90625 28.71875 34.90625 
L 20.21875 34.90625 
L 20.21875 43.015625 
L 29.109375 43.015625 
Q 36.375 43.015625 40.234375 45.921875 
Q 44.09375 48.828125 44.09375 54.296875 
Q 44.09375 59.90625 40.109375 62.90625 
Q 36.140625 65.921875 28.71875 65.921875 
Q 24.65625 65.921875 20.015625 65.03125 
Q 15.375 64.15625 9.8125 62.3125 
L 9.8125 71.09375 
Q 15.4375 72.65625 20.34375 73.4375 
Q 25.25 74.21875 29.59375 74.21875 
Q 40.828125 74.21875 47.359375 69.109375 
Q 53.90625 64.015625 53.90625 55.328125 
Q 53.90625 49.265625 50.4375 45.09375 
Q 46.96875 40.921875 40.578125 39.3125 
z
" id="DejaVuSans-51"/>
      </defs>
      <g transform="translate(20.878125 278.04435)scale(0.1 -0.1)">
       <use xlink:href="#DejaVuSans-51"/>
       <use x="63.623047" xlink:href="#DejaVuSans-54"/>
      </g>
     </g>
    </g>
    <g id="ytick_2">
     <g id="line2d_17">
      <path clip-path="url(#pd9182d1615)" d="M 40.603125 230.544138 
L 397.723125 230.544138 
" style="fill:none;stroke:#b0b0b0;stroke-dasharray:2.96,1.28;stroke-dashoffset:0;stroke-width:0.8;"/>
     </g>
     <g id="line2d_18">
      <g>
       <use style="stroke:#000000;stroke-width:0.8;" x="40.603125" xlink:href="#m4a74f03aa6" y="230.544138"/>
      </g>
     </g>
     <g id="text_10">
      <!-- 38 -->
      <g transform="translate(20.878125 234.343357)scale(0.1 -0.1)">
       <use xlink:href="#DejaVuSans-51"/>
       <use x="63.623047" xlink:href="#DejaVuSans-56"/>
      </g>
     </g>
    </g>
    <g id="ytick_3">
     <g id="line2d_19">
      <path clip-path="url(#pd9182d1615)" d="M 40.603125 186.843145 
L 397.723125 186.843145 
" style="fill:none;stroke:#b0b0b0;stroke-dasharray:2.96,1.28;stroke-dashoffset:0;stroke-width:0.8;"/>
     </g>
     <g id="line2d_20">
      <g>
       <use style="stroke:#000000;stroke-width:0.8;" x="40.603125" xlink:href="#m4a74f03aa6" y="186.843145"/>
      </g>
     </g>
     <g id="text_11">
      <!-- 40 -->
      <g transform="translate(20.878125 190.642363)scale(0.1 -0.1)">
       <use xlink:href="#DejaVuSans-52"/>
       <use x="63.623047" xlink:href="#DejaVuSans-48"/>
      </g>
     </g>
    </g>
    <g id="ytick_4">
     <g id="line2d_21">
      <path clip-path="url(#pd9182d1615)" d="M 40.603125 143.142151 
L 397.723125 143.142151 
" style="fill:none;stroke:#b0b0b0;stroke-dasharray:2.96,1.28;stroke-dashoffset:0;stroke-width:0.8;"/>
     </g>
     <g id="line2d_22">
      <g>
       <use style="stroke:#000000;stroke-width:0.8;" x="40.603125" xlink:href="#m4a74f03aa6" y="143.142151"/>
      </g>
     </g>
     <g id="text_12">
      <!-- 42 -->
      <g transform="translate(20.878125 146.94137)scale(0.1 -0.1)">
       <use xlink:href="#DejaVuSans-52"/>
       <use x="63.623047" xlink:href="#DejaVuSans-50"/>
      </g>
     </g>
    </g>
    <g id="ytick_5">
     <g id="line2d_23">
      <path clip-path="url(#pd9182d1615)" d="M 40.603125 99.441158 
L 397.723125 99.441158 
" style="fill:none;stroke:#b0b0b0;stroke-dasharray:2.96,1.28;stroke-dashoffset:0;stroke-width:0.8;"/>
     </g>
     <g id="line2d_24">
      <g>
       <use style="stroke:#000000;stroke-width:0.8;" x="40.603125" xlink:href="#m4a74f03aa6" y="99.441158"/>
      </g>
     </g>
     <g id="text_13">
      <!-- 44 -->
      <g transform="translate(20.878125 103.240377)scale(0.1 -0.1)">
       <use xlink:href="#DejaVuSans-52"/>
       <use x="63.623047" xlink:href="#DejaVuSans-52"/>
      </g>
     </g>
    </g>
    <g id="ytick_6">
     <g id="line2d_25">
      <path clip-path="url(#pd9182d1615)" d="M 40.603125 55.740164 
L 397.723125 55.740164 
" style="fill:none;stroke:#b0b0b0;stroke-dasharray:2.96,1.28;stroke-dashoffset:0;stroke-width:0.8;"/>
     </g>
     <g id="line2d_26">
      <g>
       <use style="stroke:#000000;stroke-width:0.8;" x="40.603125" xlink:href="#m4a74f03aa6" y="55.740164"/>
      </g>
     </g>
     <g id="text_14">
      <!-- 46 -->
      <g transform="translate(20.878125 59.539383)scale(0.1 -0.1)">
       <use xlink:href="#DejaVuSans-52"/>
       <use x="63.623047" xlink:href="#DejaVuSans-54"/>
      </g>
     </g>
    </g>
    <g id="text_15">
     <!-- Price $ -->
     <defs>
      <path d="M 19.671875 64.796875 
L 19.671875 37.40625 
L 32.078125 37.40625 
Q 38.96875 37.40625 42.71875 40.96875 
Q 46.484375 44.53125 46.484375 51.125 
Q 46.484375 57.671875 42.71875 61.234375 
Q 38.96875 64.796875 32.078125 64.796875 
z
M 9.8125 72.90625 
L 32.078125 72.90625 
Q 44.34375 72.90625 50.609375 67.359375 
Q 56.890625 61.8125 56.890625 51.125 
Q 56.890625 40.328125 50.609375 34.8125 
Q 44.34375 29.296875 32.078125 29.296875 
L 19.671875 29.296875 
L 19.671875 0 
L 9.8125 0 
z
" id="DejaVuSans-80"/>
      <path d="M 41.109375 46.296875 
Q 39.59375 47.171875 37.8125 47.578125 
Q 36.03125 48 33.890625 48 
Q 26.265625 48 22.1875 43.046875 
Q 18.109375 38.09375 18.109375 28.8125 
L 18.109375 0 
L 9.078125 0 
L 9.078125 54.6875 
L 18.109375 54.6875 
L 18.109375 46.1875 
Q 20.953125 51.171875 25.484375 53.578125 
Q 30.03125 56 36.53125 56 
Q 37.453125 56 38.578125 55.875 
Q 39.703125 55.765625 41.0625 55.515625 
z
" id="DejaVuSans-114"/>
      <path d="M 9.421875 54.6875 
L 18.40625 54.6875 
L 18.40625 0 
L 9.421875 0 
z
M 9.421875 75.984375 
L 18.40625 75.984375 
L 18.40625 64.59375 
L 9.421875 64.59375 
z
" id="DejaVuSans-105"/>
      <path d="M 48.78125 52.59375 
L 48.78125 44.1875 
Q 44.96875 46.296875 41.140625 47.34375 
Q 37.3125 48.390625 33.40625 48.390625 
Q 24.65625 48.390625 19.8125 42.84375 
Q 14.984375 37.3125 14.984375 27.296875 
Q 14.984375 17.28125 19.8125 11.734375 
Q 24.65625 6.203125 33.40625 6.203125 
Q 37.3125 6.203125 41.140625 7.25 
Q 44.96875 8.296875 48.78125 10.40625 
L 48.78125 2.09375 
Q 45.015625 0.34375 40.984375 -0.53125 
Q 36.96875 -1.421875 32.421875 -1.421875 
Q 20.0625 -1.421875 12.78125 6.34375 
Q 5.515625 14.109375 5.515625 27.296875 
Q 5.515625 40.671875 12.859375 48.328125 
Q 20.21875 56 33.015625 56 
Q 37.15625 56 41.109375 55.140625 
Q 45.0625 54.296875 48.78125 52.59375 
z
" id="DejaVuSans-99"/>
      <path d="M 56.203125 29.59375 
L 56.203125 25.203125 
L 14.890625 25.203125 
Q 15.484375 15.921875 20.484375 11.0625 
Q 25.484375 6.203125 34.421875 6.203125 
Q 39.59375 6.203125 44.453125 7.46875 
Q 49.3125 8.734375 54.109375 11.28125 
L 54.109375 2.78125 
Q 49.265625 0.734375 44.1875 -0.34375 
Q 39.109375 -1.421875 33.890625 -1.421875 
Q 20.796875 -1.421875 13.15625 6.1875 
Q 5.515625 13.8125 5.515625 26.8125 
Q 5.515625 40.234375 12.765625 48.109375 
Q 20.015625 56 32.328125 56 
Q 43.359375 56 49.78125 48.890625 
Q 56.203125 41.796875 56.203125 29.59375 
z
M 47.21875 32.234375 
Q 47.125 39.59375 43.09375 43.984375 
Q 39.0625 48.390625 32.421875 48.390625 
Q 24.90625 48.390625 20.390625 44.140625 
Q 15.875 39.890625 15.1875 32.171875 
z
" id="DejaVuSans-101"/>
      <path id="DejaVuSans-32"/>
      <path d="M 33.796875 -14.703125 
L 28.90625 -14.703125 
L 28.859375 0 
Q 23.734375 0.09375 18.609375 1.1875 
Q 13.484375 2.296875 8.296875 4.5 
L 8.296875 13.28125 
Q 13.28125 10.15625 18.375 8.5625 
Q 23.484375 6.984375 28.90625 6.9375 
L 28.90625 29.203125 
Q 18.109375 30.953125 13.203125 35.15625 
Q 8.296875 39.359375 8.296875 46.6875 
Q 8.296875 54.640625 13.625 59.21875 
Q 18.953125 63.8125 28.90625 64.5 
L 28.90625 75.984375 
L 33.796875 75.984375 
L 33.796875 64.65625 
Q 38.328125 64.453125 42.578125 63.6875 
Q 46.828125 62.9375 50.875 61.625 
L 50.875 53.078125 
Q 46.828125 55.125 42.546875 56.25 
Q 38.28125 57.375 33.796875 57.5625 
L 33.796875 36.71875 
Q 44.875 35.015625 50.09375 30.609375 
Q 55.328125 26.21875 55.328125 18.609375 
Q 55.328125 10.359375 49.78125 5.59375 
Q 44.234375 0.828125 33.796875 0.09375 
z
M 28.90625 37.59375 
L 28.90625 57.625 
Q 23.25 56.984375 20.265625 54.390625 
Q 17.28125 51.8125 17.28125 47.515625 
Q 17.28125 43.3125 20.03125 40.96875 
Q 22.796875 38.625 28.90625 37.59375 
z
M 33.796875 28.21875 
L 33.796875 7.078125 
Q 39.984375 7.90625 43.140625 10.59375 
Q 46.296875 13.28125 46.296875 17.671875 
Q 46.296875 21.96875 43.28125 24.5 
Q 40.28125 27.046875 33.796875 28.21875 
z
" id="DejaVuSans-36"/>
     </defs>
     <g transform="translate(14.798438 172.342094)rotate(-90)scale(0.1 -0.1)">
      <use xlink:href="#DejaVuSans-80"/>
      <use x="58.552734" xlink:href="#DejaVuSans-114"/>
      <use x="99.666016" xlink:href="#DejaVuSans-105"/>
      <use x="127.449219" xlink:href="#DejaVuSans-99"/>
      <use x="182.429688" xlink:href="#DejaVuSans-101"/>
      <use x="243.953125" xlink:href="#DejaVuSans-32"/>
      <use x="275.740234" xlink:href="#DejaVuSans-36"/>
     </g>
    </g>
   </g>
   <g id="line2d_27">
    <path clip-path="url(#pd9182d1615)" d="M 56.835852 207.054504 
L 57.080505 186.163984 
L 57.325158 177.250461 
L 57.569811 174.562409 
L 57.814464 175.777113 
L 58.059117 182.15312 
L 58.30377 174.252003 
L 58.548423 175.272744 
L 58.793076 186.889406 
L 59.527035 200.262982 
L 59.771688 196.378148 
L 60.016341 198.919915 
L 60.260994 200.259732 
L 60.505647 195.615217 
L 60.7503 197.34846 
L 60.994953 200.135286 
L 61.484259 212.986239 
L 61.728912 228.134235 
L 61.973566 220.024485 
L 62.218219 227.330629 
L 62.462872 229.96 
L 62.707525 243.530123 
L 62.952178 244.810259 
L 63.196831 242.116956 
L 63.441484 245.344135 
L 63.686137 236.985327 
L 63.93079 223.549485 
L 64.420096 239.010222 
L 64.664749 236.027267 
L 64.909402 237.302318 
L 65.154055 219.60672 
L 65.398708 227.169591 
L 65.888014 216.977932 
L 66.132667 222.110145 
L 66.37732 215.559264 
L 66.621973 233.637952 
L 66.866626 226.929117 
L 67.111279 235.044868 
L 67.600585 226.586453 
L 67.845238 227.696632 
L 68.089891 219.116188 
L 68.334544 223.473801 
L 68.579197 221.354133 
L 69.068503 218.934561 
L 69.313156 219.805684 
L 69.557809 216.953927 
L 69.802462 226.171688 
L 70.047115 225.412092 
L 70.291768 228.488235 
L 70.536421 227.369054 
L 70.781074 229.900403 
L 71.025727 235.979839 
L 71.27038 233.134667 
L 71.759686 253.128892 
L 72.004339 261.798857 
L 72.248992 254.105289 
L 72.493645 250.54003 
L 72.738298 249.601641 
L 72.982951 249.389008 
L 73.227604 240.763219 
L 73.472257 253.033036 
L 73.71691 254.606074 
L 73.961563 245.920688 
L 74.450869 271.884824 
L 74.695522 268.006657 
L 74.940175 272.742443 
L 75.184828 269.44133 
L 75.429481 275.190605 
L 75.918787 255.301905 
L 76.16344 246.012793 
L 76.408093 244.648221 
L 76.652746 240.065555 
L 76.897399 238.385324 
L 77.142052 242.831375 
L 77.386705 249.590722 
L 77.876011 230.549139 
L 78.120664 231.392922 
L 78.365317 244.063333 
L 78.60997 247.066542 
L 79.099276 241.854811 
L 79.343929 236.115455 
L 79.588582 237.604973 
L 79.833235 232.272963 
L 80.322541 239.934774 
L 80.567194 234.833818 
L 81.0565 245.942277 
L 81.301153 258.058056 
L 81.545806 252.181501 
L 81.790459 257.615535 
L 82.035112 258.535586 
L 82.279765 265.892741 
L 82.524418 268.675649 
L 82.769071 276.334125 
L 83.258377 240.552003 
L 83.50303 237.658486 
L 83.747683 240.403301 
L 83.992336 247.936998 
L 84.236989 247.969422 
L 84.481643 249.068765 
L 84.726296 254.650501 
L 85.215602 251.851923 
L 85.704908 242.732268 
L 85.949561 240.975936 
L 86.194214 235.860061 
L 86.438867 249.737673 
L 86.68352 247.762207 
L 86.928173 247.989427 
L 87.172826 250.085506 
L 87.417479 253.952253 
L 87.662132 243.358916 
L 87.906785 240.216424 
L 88.151438 240.400384 
L 88.396091 240.84974 
L 88.640744 240.134154 
L 88.885397 227.107909 
L 89.13005 221.170673 
L 89.374703 211.329764 
L 89.619356 214.712063 
L 90.353315 246.171664 
L 90.597968 252.943848 
L 90.842621 241.51473 
L 91.087274 236.784779 
L 91.331927 238.202448 
L 91.57658 235.951332 
L 91.821233 218.607734 
L 92.065886 231.676072 
L 92.310539 229.214824 
L 92.555192 220.193609 
L 92.799845 218.833537 
L 93.044498 216.674444 
L 93.289151 208.656966 
L 93.533804 212.099863 
L 93.778457 206.869377 
L 94.02311 204.322358 
L 94.267763 203.523086 
L 94.512416 201.882532 
L 94.757069 211.388195 
L 95.001722 212.465949 
L 95.246375 211.49597 
L 95.491028 216.108977 
L 95.735681 210.56425 
L 96.224987 189.578124 
L 96.714293 183.740078 
L 96.958946 182.892294 
L 97.203599 175.537723 
L 97.448252 177.658641 
L 97.937558 176.176874 
L 98.182211 168.927828 
L 98.426864 179.52925 
L 98.671517 180.587083 
L 98.91617 184.685385 
L 99.160823 168.905156 
L 99.405476 168.80955 
L 99.650129 161.410551 
L 99.894782 165.281299 
L 100.139435 166.908351 
L 100.384088 157.933313 
L 100.628741 138.529144 
L 100.873394 132.60066 
L 101.118047 136.761643 
L 101.607353 126.045778 
L 101.852006 128.439427 
L 102.096659 136.949438 
L 102.341312 138.575739 
L 102.585965 138.047031 
L 102.830618 139.234311 
L 103.075271 139.335918 
L 103.319924 148.77865 
L 103.564577 140.007327 
L 103.80923 135.973291 
L 104.053883 137.930836 
L 104.298536 130.797651 
L 104.543189 131.570083 
L 104.787842 139.695087 
L 105.032495 139.557721 
L 105.277148 138.799792 
L 106.011107 119.602839 
L 106.25576 121.69425 
L 106.500413 132.003436 
L 106.745066 136.467657 
L 107.234373 152.006579 
L 107.479026 131.388374 
L 107.723679 133.935059 
L 108.457638 186.797717 
L 108.702291 156.262585 
L 108.946944 155.950761 
L 109.191597 174.382117 
L 109.680903 155.050965 
L 109.925556 167.339869 
L 110.170209 170.243805 
L 110.414862 179.902004 
L 110.659515 179.099315 
L 111.148821 172.175178 
L 111.393474 165.790753 
L 111.88278 195.684651 
L 112.127433 198.793302 
L 112.616739 187.055195 
L 112.861392 174.825555 
L 113.106045 182.218885 
L 113.350698 178.326465 
L 113.595351 177.865023 
L 113.840004 182.644736 
L 114.084657 173.425224 
L 114.32931 173.807398 
L 114.573963 169.899974 
L 115.063269 166.990537 
L 115.307922 165.709984 
L 115.552575 165.498434 
L 115.797228 189.291807 
L 116.286534 168.54357 
L 116.531187 167.73788 
L 116.77584 163.534803 
L 117.020493 166.252612 
L 117.265146 162.891818 
L 117.754452 172.320546 
L 117.999105 173.560756 
L 118.243758 177.605962 
L 118.488411 177.944709 
L 118.733064 178.788491 
L 118.977717 185.050388 
L 119.467023 181.963492 
L 119.711676 180.065126 
L 119.956329 180.465638 
L 120.200982 181.2249 
L 120.934941 195.186366 
L 121.424247 207.677484 
L 121.6689 207.618137 
L 122.158206 216.484316 
L 122.402859 223.448211 
L 122.647512 218.439111 
L 122.892165 217.783206 
L 123.136818 230.461202 
L 123.381471 229.678183 
L 123.626124 221.303038 
L 123.870777 226.985714 
L 124.11543 224.85321 
L 124.360083 232.841097 
L 124.604736 217.400782 
L 124.849389 222.262431 
L 125.094042 219.313734 
L 125.338695 214.188773 
L 126.072654 218.914807 
L 126.317307 209.117158 
L 126.56196 212.52338 
L 126.806613 213.181118 
L 127.051266 195.744665 
L 128.029878 216.344699 
L 128.274531 219.809601 
L 128.519184 217.836218 
L 129.00849 230.793113 
L 129.253143 234.389713 
L 129.74245 247.301014 
L 129.987103 250.747662 
L 130.231756 251.011224 
L 130.965715 232.257209 
L 131.210368 239.9041 
L 131.455021 227.821245 
L 131.699674 231.136861 
L 131.944327 229.324183 
L 132.433633 210.805474 
L 132.678286 212.441444 
L 132.922939 207.862862 
L 133.167592 206.475951 
L 133.412245 212.742265 
L 133.656898 208.994546 
L 134.146204 189.917788 
L 134.390857 196.746401 
L 134.63551 196.059572 
L 134.880163 193.067115 
L 135.124816 199.514222 
L 135.369469 195.118433 
L 135.614122 184.872429 
L 135.858775 191.265023 
L 136.103428 186.120307 
L 136.592734 189.828517 
L 136.837387 184.448495 
L 137.326693 181.045941 
L 137.815999 184.967285 
L 138.794611 175.911728 
L 139.039264 183.836434 
L 139.283917 181.116541 
L 139.52857 184.029646 
L 139.773223 185.414057 
L 140.017876 182.073351 
L 140.262529 180.298348 
L 140.507182 185.384217 
L 140.751835 177.696316 
L 140.996488 180.352027 
L 141.241141 187.313422 
L 141.485794 186.219164 
L 141.730447 197.861498 
L 141.9751 198.535157 
L 142.219753 205.227072 
L 142.464406 203.745555 
L 142.709059 188.329913 
L 142.953712 188.862538 
L 143.198365 184.934444 
L 143.687671 182.092939 
L 143.932324 172.294873 
L 144.176977 169.985078 
L 144.42163 162.246332 
L 144.666283 161.928424 
L 144.910936 171.61763 
L 145.155589 175.934984 
L 145.644895 177.07617 
L 145.889548 187.326009 
L 146.134201 188.395761 
L 146.378854 187.047276 
L 146.623507 194.993737 
L 146.86816 191.750804 
L 147.112813 192.387788 
L 147.357466 193.786452 
L 147.602119 196.160263 
L 147.846772 188.391844 
L 148.091425 195.443344 
L 148.336078 207.056421 
L 148.580731 213.061757 
L 148.825384 214.43083 
L 149.070037 217.916821 
L 149.31469 230.743935 
L 149.559343 231.797851 
L 149.803996 231.443267 
L 150.048649 243.107357 
L 150.293302 242.399273 
L 150.537955 218.198054 
L 150.782608 226.864352 
L 151.027261 230.187054 
L 151.271914 217.738945 
L 151.516567 213.798264 
L 151.76122 227.784319 
L 152.005874 219.099684 
L 152.739833 250.543614 
L 152.984486 240.683451 
L 153.229139 245.250613 
L 153.718445 233.041812 
L 153.963098 233.826747 
L 154.207751 228.952012 
L 154.452404 232.304554 
L 154.697057 223.589578 
L 154.94171 220.754325 
L 155.186363 220.971959 
L 155.431016 217.705271 
L 155.675669 217.728526 
L 155.920322 211.993171 
L 156.164975 222.623516 
L 156.409628 220.589786 
L 156.654281 230.504879 
L 156.898934 226.281714 
L 157.38824 221.926435 
L 157.632893 227.212267 
L 157.877546 214.07483 
L 158.122199 219.133692 
L 158.366852 219.466687 
L 158.611505 215.290533 
L 158.856158 218.672249 
L 159.100811 211.10146 
L 159.345464 208.519267 
L 159.590117 217.9009 
L 160.079423 221.621946 
L 160.324076 225.125191 
L 160.568729 224.494042 
L 160.813382 216.310024 
L 161.302688 209.31012 
L 161.791994 215.087902 
L 162.036647 193.263495 
L 162.525953 177.846685 
L 162.770606 176.787268 
L 163.259912 171.475847 
L 163.504565 170.981813 
L 163.749218 175.541974 
L 163.993871 168.272506 
L 164.238524 164.599722 
L 164.483177 170.284648 
L 164.72783 168.295595 
L 164.972483 168.408788 
L 165.461789 173.86116 
L 165.951095 166.828582 
L 166.195748 168.606085 
L 166.440401 166.55435 
L 166.685054 167.645191 
L 166.929707 163.584732 
L 167.17436 171.592624 
L 167.419013 174.507813 
L 167.663666 172.277953 
L 167.908319 168.79638 
L 168.152972 173.378463 
L 168.397625 169.051357 
L 168.642278 172.178346 
L 168.886931 173.571759 
L 169.131584 170.739506 
L 169.376237 171.36232 
L 169.62089 173.833904 
L 169.865543 169.641246 
L 170.110196 170.016002 
L 170.354849 166.132251 
L 170.599502 169.425862 
L 170.844155 165.414914 
L 171.088808 166.767984 
L 171.333461 167.249598 
L 171.578114 164.161035 
L 171.822767 175.312503 
L 172.06742 177.01849 
L 172.312073 180.610922 
L 172.556726 161.457062 
L 172.801379 167.257516 
L 173.046032 152.458519 
L 173.290685 144.974167 
L 173.535338 152.844527 
L 173.779991 151.924643 
L 174.024644 149.99152 
L 174.269298 143.456892 
L 174.513951 141.263707 
L 174.758604 141.16035 
L 175.003257 132.982834 
L 175.492563 135.358979 
L 175.737216 141.520185 
L 175.981869 141.813587 
L 176.226522 142.663705 
L 176.471175 149.697534 
L 176.715828 138.949994 
L 176.960481 140.986475 
L 177.205134 132.212902 
L 177.449787 135.453168 
L 177.69444 142.134163 
L 177.939093 138.881894 
L 178.183746 138.306175 
L 178.428399 158.356746 
L 178.673052 163.383101 
L 178.917705 163.269574 
L 179.162358 163.982659 
L 179.407011 163.188222 
L 179.896317 175.254906 
L 180.14097 194.643655 
L 180.385623 204.153485 
L 180.630276 199.790621 
L 180.874929 200.538214 
L 181.119582 205.157222 
L 181.364235 188.051013 
L 181.608888 200.43644 
L 181.853541 196.871348 
L 182.098194 195.794176 
L 182.342847 192.781798 
L 182.5875 187.619411 
L 182.832153 168.92491 
L 183.076806 168.28901 
L 183.321459 157.162548 
L 183.566112 161.242845 
L 183.810765 158.459354 
L 184.055418 157.958236 
L 184.300071 157.837457 
L 184.789377 152.678571 
L 185.03403 152.820021 
L 185.278683 150.883814 
L 185.523336 151.97949 
L 186.012642 146.148528 
L 186.257295 144.801627 
L 186.501948 148.54176 
L 186.746601 147.019734 
L 186.991254 144.056701 
L 187.235907 147.844512 
L 187.48056 144.257915 
L 187.725213 153.147849 
L 187.969866 156.747116 
L 188.214519 147.770662 
L 188.459172 147.603622 
L 188.703825 143.075969 
L 188.948478 145.254484 
L 189.193131 142.4299 
L 189.437784 145.57706 
L 189.682437 140.704909 
L 190.171743 143.629183 
L 190.416396 140.1026 
L 190.661049 130.111739 
L 190.905702 128.350906 
L 191.395008 119.065712 
L 191.639661 109.398594 
L 191.884314 106.636275 
L 192.128967 88.194333 
L 192.37362 99.635287 
L 192.618273 91.041923 
L 192.862926 96.565562 
L 193.107579 123.590448 
L 193.352232 126.228154 
L 193.596885 125.319856 
L 193.841538 122.979637 
L 194.086191 160.325712 
L 194.330844 178.283038 
L 194.575497 163.855129 
L 194.82015 161.400549 
L 195.064803 167.218757 
L 195.309456 167.194918 
L 195.554109 169.368432 
L 195.798762 161.547751 
L 196.043415 144.034195 
L 196.288068 143.803641 
L 196.532721 144.690017 
L 196.777375 134.104682 
L 197.022028 131.025955 
L 197.266681 131.74029 
L 197.511334 136.222766 
L 198.00064 131.17649 
L 198.245293 127.867208 
L 198.734599 125.419463 
L 198.979252 120.998502 
L 199.223905 105.706722 
L 199.468558 98.131432 
L 199.713211 85.676572 
L 199.957864 86.116092 
L 200.44717 97.693662 
L 201.425782 87.513089 
L 201.670435 104.713654 
L 201.915088 108.453621 
L 202.159741 108.459289 
L 202.404394 135.685723 
L 202.649047 140.871531 
L 203.138353 154.43707 
L 203.383006 161.202252 
L 203.627659 179.956434 
L 203.872312 177.476431 
L 204.116965 147.75174 
L 204.361618 133.188549 
L 204.606271 139.489621 
L 205.095577 118.255854 
L 205.829536 126.456125 
L 206.074189 122.998808 
L 206.318842 136.55001 
L 206.563495 129.124005 
L 206.808148 134.110934 
L 207.542107 111.790409 
L 208.031413 125.584002 
L 208.276066 140.324985 
L 208.520719 127.269317 
L 208.765372 134.712743 
L 209.254678 123.961535 
L 209.743984 108.161969 
L 209.988637 116.963548 
L 210.23329 130.177338 
L 210.477943 130.820906 
L 210.722596 146.900539 
L 210.967249 146.769008 
L 211.211902 159.934369 
L 211.456555 149.759215 
L 211.701208 148.63895 
L 211.945861 148.143833 
L 212.190514 151.299495 
L 212.435167 156.880314 
L 212.67982 127.811612 
L 212.924473 139.946146 
L 213.169126 136.362299 
L 213.658432 147.911945 
L 214.147738 150.583493 
L 214.392391 143.046295 
L 214.637044 149.013039 
L 214.881697 146.853695 
L 215.12635 139.787108 
L 215.371003 141.96504 
L 215.860309 118.446982 
L 216.104962 118.1695 
L 216.349615 122.015075 
L 216.838921 139.026345 
L 217.328227 161.186248 
L 217.57288 170.006583 
L 217.817533 183.24071 
L 218.062186 177.645138 
L 218.306839 186.636012 
L 218.551492 174.255837 
L 218.796145 176.563549 
L 219.040798 176.819526 
L 219.285452 185.533919 
L 219.530105 173.509077 
L 219.774758 167.70954 
L 220.264064 178.920939 
L 220.508717 176.848616 
L 220.75337 184.228193 
L 221.242676 170.499032 
L 221.487329 171.085254 
L 221.731982 170.633981 
L 221.976635 164.411677 
L 222.221288 165.769165 
L 222.465941 169.228065 
L 222.710594 163.487125 
L 222.955247 165.532192 
L 223.1999 173.157827 
L 223.444553 174.072877 
L 223.689206 177.565619 
L 223.933859 176.398093 
L 224.178512 177.814011 
L 224.423165 172.397148 
L 224.667818 154.970196 
L 225.157124 164.623144 
L 225.64643 166.784988 
L 226.135736 178.419487 
L 226.380389 175.216647 
L 226.869695 163.101034 
L 227.114348 164.994898 
L 227.359001 175.133044 
L 227.603654 167.160827 
L 227.848307 166.228357 
L 228.09296 170.440102 
L 228.337613 171.452508 
L 228.582266 160.160089 
L 228.826919 155.708871 
L 229.071572 154.893261 
L 229.316225 160.052481 
L 229.560878 157.575145 
L 229.805531 159.284632 
L 230.050184 162.271838 
L 230.294837 162.353858 
L 230.53949 165.993884 
L 230.784143 160.982534 
L 231.028796 160.9121 
L 231.273449 157.898388 
L 231.518102 167.672281 
L 231.762755 163.711845 
L 232.496714 184.446828 
L 232.741367 183.558118 
L 232.98602 180.632427 
L 233.964632 195.030163 
L 234.209285 185.741051 
L 234.453938 183.257964 
L 234.698591 174.037452 
L 235.677203 180.191489 
L 235.921856 183.989053 
L 236.655815 199.985584 
L 236.900468 195.380412 
L 237.145121 201.12752 
L 237.389774 198.687277 
L 237.87908 178.44291 
L 238.123733 181.000847 
L 239.102345 156.973503 
L 239.346998 158.144613 
L 239.591651 158.168785 
L 239.836304 157.107868 
L 240.080957 168.310015 
L 240.32561 166.079821 
L 240.570263 169.790448 
L 240.814916 179.82682 
L 241.059569 173.622521 
L 241.304222 175.103287 
L 241.548875 174.983592 
L 241.793529 168.841391 
L 242.038182 167.938427 
L 242.527488 145.092529 
L 242.772141 142.408811 
L 243.016794 146.383334 
L 243.261447 145.091028 
L 243.750753 160.823163 
L 243.995406 158.429014 
L 244.240059 163.284994 
L 244.484712 163.084697 
L 244.729365 158.17487 
L 244.974018 160.434071 
L 245.463324 181.204562 
L 245.707977 223.696853 
L 245.95263 208.807335 
L 246.197283 213.51053 
L 246.441936 207.243715 
L 246.686589 205.75453 
L 246.931242 205.025691 
L 247.175895 214.264374 
L 247.420548 208.357228 
L 247.665201 209.280363 
L 247.909854 213.056422 
L 248.154507 210.91825 
L 248.39916 204.413296 
L 248.643813 221.660372 
L 248.888466 227.871756 
L 249.133119 225.163116 
L 249.377772 227.542595 
L 249.867078 204.344947 
L 250.111731 209.700463 
L 250.356384 207.178283 
L 250.601037 213.244133 
L 250.84569 212.159627 
L 251.090343 216.708452 
L 251.334996 198.441052 
L 251.579649 194.742678 
L 251.824302 195.169195 
L 252.313608 180.107636 
L 252.558261 193.79112 
L 253.047567 162.397535 
L 253.29222 160.252528 
L 253.536873 156.87848 
L 253.781526 145.413855 
L 254.026179 144.594411 
L 254.270832 144.985337 
L 254.515485 150.17673 
L 255.004791 137.852985 
L 255.249444 142.782149 
L 255.494097 141.58345 
L 255.73875 142.136414 
L 255.983403 132.771951 
L 256.228056 113.172819 
L 256.472709 124.372883 
L 256.717362 130.416978 
L 256.962015 126.052279 
L 257.206668 127.408517 
L 257.451321 124.911343 
L 257.695974 134.859027 
L 257.940627 138.400948 
L 258.18528 137.1439 
L 258.429933 142.589271 
L 258.674586 143.138234 
L 259.163892 154.70605 
L 259.408545 144.966499 
L 259.653198 142.497832 
L 259.897851 153.99755 
L 260.142504 155.469481 
L 260.387157 146.382167 
L 260.63181 147.993714 
L 260.876463 136.06873 
L 261.121116 114.777865 
L 261.365769 130.412226 
L 261.610422 127.004254 
L 261.855075 114.467792 
L 262.099728 119.127726 
L 262.344381 117.936862 
L 262.589034 126.086287 
L 262.833687 124.106236 
L 263.07834 126.277583 
L 263.322993 129.642378 
L 263.567646 114.294334 
L 264.301606 126.188895 
L 264.546259 127.8312 
L 264.790912 135.05324 
L 265.524871 103.294902 
L 266.014177 124.95502 
L 266.25883 124.299115 
L 266.503483 113.678939 
L 266.748136 110.583874 
L 266.992789 111.692219 
L 267.237442 109.683495 
L 267.482095 105.115665 
L 267.726748 114.103706 
L 267.971401 134.148526 
L 268.216054 136.327041 
L 268.460707 137.509654 
L 268.70536 148.381806 
L 269.194666 151.099282 
L 269.439319 137.528741 
L 269.683972 138.499721 
L 269.928625 143.235173 
L 270.173278 163.412441 
L 270.417931 149.246594 
L 270.662584 152.851529 
L 270.907237 154.219602 
L 271.15189 150.139555 
L 271.396543 137.276348 
L 271.641196 138.653674 
L 272.130502 138.657425 
L 272.375155 124.659784 
L 272.619808 128.845356 
L 273.109114 125.681192 
L 273.353767 130.223515 
L 273.59842 123.33097 
L 273.843073 137.588422 
L 274.087726 136.726385 
L 274.332379 114.298419 
L 274.577032 139.002506 
L 275.066338 113.455053 
L 275.310991 110.920037 
L 275.555644 106.815734 
L 275.800297 107.626759 
L 276.04495 104.074419 
L 276.289603 104.083838 
L 276.534256 108.045608 
L 276.778909 99.796909 
L 277.023562 97.424265 
L 277.268215 116.260132 
L 278.49148 100.186417 
L 278.736133 99.868259 
L 279.225439 79.898623 
L 279.470092 75.981281 
L 279.714745 75.280949 
L 279.959398 74.158934 
L 280.204051 74.775496 
L 280.448704 74.931783 
L 280.693357 57.862416 
L 280.93801 66.350172 
L 281.182663 64.000783 
L 281.427316 67.120937 
L 281.671969 66.0466 
L 281.916622 63.52017 
L 282.161275 57.080398 
L 282.405928 40.365281 
L 282.650581 41.817374 
L 282.895234 50.940197 
L 283.139887 36.259478 
L 283.38454 40.057959 
L 284.118499 44.71656 
L 284.363152 34.414125 
L 284.607805 45.125906 
L 284.852458 37.767167 
L 285.097111 53.145801 
L 285.341764 58.617928 
L 285.83107 47.85005 
L 286.56503 101.39662 
L 287.054336 77.934492 
L 287.543642 86.847349 
L 287.788295 86.709066 
L 288.032948 85.387587 
L 288.277601 78.941897 
L 288.522254 81.947274 
L 289.256213 69.449487 
L 289.500866 67.338572 
L 289.745519 60.890465 
L 289.990172 65.409699 
L 290.234825 60.85454 
L 290.479478 73.596967 
L 290.724131 67.278391 
L 290.968784 85.835109 
L 291.213437 92.504602 
L 291.45809 87.584689 
L 291.702743 96.235067 
L 291.947396 96.327505 
L 292.192049 87.86959 
L 292.436702 87.256195 
L 292.926008 77.899567 
L 293.170661 85.775178 
L 293.659967 83.191318 
L 294.149273 70.112561 
L 294.393926 72.463283 
L 294.638579 70.480064 
L 294.883232 64.24209 
L 295.127885 66.250815 
L 295.372538 80.059911 
L 295.617191 74.553527 
L 295.861844 79.158865 
L 296.106497 72.966318 
L 296.35115 74.90711 
L 296.840456 71.691851 
L 297.085109 76.647855 
L 297.574415 105.612449 
L 298.063721 89.586162 
L 298.308374 86.945622 
L 298.553027 69.885424 
L 298.79768 73.181536 
L 299.042333 65.873892 
L 299.531639 71.05645 
L 299.776292 70.100641 
L 300.020945 64.230171 
L 300.265598 64.527574 
L 300.754904 59.090206 
L 301.24421 67.99281 
L 301.488863 62.209943 
L 301.733516 69.954023 
L 301.978169 67.143526 
L 302.222822 59.963913 
L 302.467475 65.757948 
L 302.712128 99.479083 
L 302.956781 114.774114 
L 303.201434 105.128835 
L 303.446087 104.994803 
L 303.69074 112.27194 
L 303.935393 106.650111 
L 304.180046 108.203312 
L 304.424699 106.786227 
L 304.669352 111.056903 
L 304.914005 110.015156 
L 305.892617 97.53354 
L 306.13727 94.373544 
L 306.381923 99.865341 
L 306.626576 99.715389 
L 306.871229 99.131001 
L 307.360535 103.318657 
L 307.605188 103.817609 
L 307.849841 103.300153 
L 308.094494 105.932942 
L 308.339147 113.956505 
L 308.5838 111.72381 
L 308.828453 112.566009 
L 309.073107 116.441842 
L 309.562413 105.53143 
L 309.807066 105.68705 
L 310.051719 106.999944 
L 310.296372 111.699221 
L 310.541025 134.937796 
L 310.785678 126.473296 
L 311.030331 137.171657 
L 311.274984 142.533257 
L 311.519637 139.515961 
L 311.76429 139.834203 
L 312.008943 136.840912 
L 312.253596 136.910179 
L 312.498249 128.446679 
L 312.742902 125.208747 
L 312.987555 127.486785 
L 313.232208 138.61058 
L 313.476861 129.541021 
L 313.721514 142.034639 
L 314.21082 136.357715 
L 314.455473 136.333959 
L 314.944779 150.222241 
L 315.434085 145.80353 
L 315.678738 150.71194 
L 315.923391 152.114438 
L 316.168044 151.297662 
L 316.412697 147.493763 
L 316.65735 149.482483 
L 316.902003 148.248525 
L 317.146656 145.287575 
L 317.391309 144.409367 
L 317.635962 146.73375 
L 318.369921 122.59663 
L 319.10388 141.577782 
L 319.348533 136.104071 
L 319.593186 141.547941 
L 319.837839 139.675749 
L 320.082492 146.545455 
L 320.327145 144.199568 
L 320.571798 136.184007 
L 320.816451 146.887536 
L 321.061104 146.392169 
L 321.305757 164.393006 
L 321.55041 161.913254 
L 321.795063 160.729474 
L 322.039716 156.194069 
L 322.284369 158.49878 
L 322.773675 169.71293 
L 323.018328 155.523244 
L 323.262981 158.986145 
L 323.752287 152.920045 
L 323.99694 152.57313 
L 324.486246 178.490171 
L 324.730899 179.755386 
L 324.975552 178.793909 
L 325.220205 170.688744 
L 325.464858 174.280843 
L 326.198817 142.496582 
L 326.44347 148.323376 
L 326.688123 145.287408 
L 326.932776 161.448227 
L 327.177429 151.662498 
L 327.422082 149.170909 
L 327.666735 149.013205 
L 327.911388 150.935243 
L 328.156041 151.895803 
L 328.400694 151.023097 
L 328.89 153.577367 
L 329.134653 156.130971 
L 329.379306 149.909667 
L 329.623959 153.412411 
L 329.868612 145.895135 
L 330.113265 150.040365 
L 330.357918 149.406715 
L 330.602571 158.457187 
L 330.847224 155.636104 
L 331.091877 166.623533 
L 331.33653 164.488362 
L 331.581184 164.632563 
L 331.825837 167.826401 
L 332.07049 159.731571 
L 332.315143 161.228675 
L 333.049102 154.442405 
L 333.293755 144.288422 
L 333.538408 141.742237 
L 333.783061 144.535981 
L 334.027714 156.992674 
L 334.272367 156.132638 
L 334.51702 153.117508 
L 334.761673 155.554001 
L 335.006326 152.164367 
L 335.250979 152.907375 
L 335.495632 149.912918 
L 335.740285 145.083527 
L 335.984938 152.234466 
L 336.229591 163.446116 
L 336.718897 176.975229 
L 336.96355 177.320728 
L 337.208203 174.924995 
L 337.452856 162.301262 
L 337.697509 160.26128 
L 338.186815 149.826314 
L 338.676121 147.781331 
L 338.920774 149.378875 
L 339.165427 142.471576 
L 339.41008 140.570377 
L 339.654733 133.024177 
L 339.899386 134.61547 
L 340.144039 141.794916 
L 340.388692 142.333293 
L 340.633345 140.415257 
L 340.877998 137.544745 
L 341.122651 143.046879 
L 341.367304 142.898594 
L 341.611957 142.517504 
L 341.85661 141.244036 
L 342.101263 136.21143 
L 342.345916 139.72476 
L 342.835222 130.279445 
L 343.079875 137.236172 
L 343.324528 137.598341 
L 343.569181 139.910721 
L 343.813834 137.33753 
L 344.058487 131.856401 
L 344.30314 134.663564 
L 344.547793 130.799985 
L 344.792446 130.296449 
L 345.037099 131.679443 
L 345.281752 128.830603 
L 345.526405 130.374801 
L 346.015711 127.343335 
L 346.260364 128.061421 
L 346.505017 131.01862 
L 346.74967 124.296031 
L 346.994323 125.520821 
L 347.238976 118.827489 
L 347.483629 105.535181 
L 347.728282 116.089925 
L 347.972935 121.385177 
L 348.217588 116.623218 
L 348.462241 123.401403 
L 348.951547 116.932124 
L 349.1962 121.212552 
L 349.440853 117.556188 
L 349.685506 115.904798 
L 350.174812 111.694303 
L 350.419465 103.767764 
L 350.664118 107.531986 
L 350.908771 101.612254 
L 351.153424 109.980732 
L 351.398077 110.023909 
L 351.64273 106.945014 
L 351.887383 110.326147 
L 352.132036 102.20256 
L 352.376689 102.713014 
L 352.621342 101.686105 
L 352.865995 102.240403 
L 353.110648 101.276592 
L 354.089261 69.483579 
L 354.333914 73.190205 
L 354.578567 67.845192 
L 354.82322 67.106767 
L 355.067873 59.09254 
L 355.312526 59.831298 
L 355.557179 57.389638 
L 355.801832 65.25783 
L 356.046485 68.073912 
L 356.291138 74.561695 
L 356.535791 68.569279 
L 356.780444 75.225185 
L 357.025097 72.259151 
L 357.26975 71.387779 
L 357.514403 69.111574 
L 357.759056 68.091 
L 358.003709 68.180938 
L 358.248362 62.543522 
L 358.493015 72.197637 
L 358.737668 75.106991 
L 358.982321 69.613193 
L 359.226974 68.835175 
L 359.71628 73.525367 
L 359.960933 79.518617 
L 360.205586 75.007551 
L 360.450239 81.645619 
L 360.694892 83.512477 
L 360.939545 89.169981 
L 361.184198 89.588496 
L 361.428851 92.328394 
L 361.673504 87.225188 
L 361.918157 88.727043 
L 362.16281 88.683366 
L 362.652116 83.034781 
L 362.896769 85.220381 
L 363.141422 80.569365 
L 363.386075 82.90325 
L 363.630728 77.542483 
L 363.875381 78.040434 
L 364.120034 86.881523 
L 364.364687 61.520447 
L 364.60934 54.852871 
L 364.853993 55.302644 
L 365.098646 56.506846 
L 365.343299 64.500401 
L 365.587952 63.91743 
L 365.832605 62.988544 
L 366.077258 66.058103 
L 366.321911 63.378219 
L 366.566564 64.855818 
L 366.811217 64.782218 
L 367.05587 58.40321 
L 367.300523 62.245368 
L 367.545176 59.631417 
L 367.789829 52.036206 
L 368.034482 52.366867 
L 368.279135 59.349684 
L 368.523788 62.418576 
L 368.768441 61.860777 
L 369.257747 65.317428 
L 369.747053 63.648617 
L 369.991706 68.779579 
L 370.236359 69.694212 
L 370.481012 68.901608 
L 370.725665 63.654535 
L 370.970318 61.060338 
L 371.214971 56.35706 
L 371.459624 55.682317 
L 372.438236 41.256492 
L 372.927542 49.755834 
L 373.172195 52.157068 
L 373.416848 52.818141 
L 373.661501 60.478868 
L 373.906154 61.724829 
L 374.150807 67.015996 
L 374.39546 65.856722 
L 374.640113 61.745167 
L 374.884766 66.181215 
L 375.129419 83.695937 
L 375.618725 75.857752 
L 375.863378 79.688323 
L 376.108031 74.324806 
L 376.352684 65.872225 
L 376.597338 68.044572 
L 376.841991 65.033444 
L 377.086644 64.221835 
L 377.331297 58.185242 
L 377.57595 56.152845 
L 377.820603 50.62804 
L 378.065256 53.109126 
L 378.309909 44.497591 
L 378.554562 46.864984 
L 378.799215 47.745609 
L 379.043868 43.150689 
L 379.533174 49.89545 
L 379.777827 47.819709 
L 380.02248 48.783937 
L 380.511786 55.743332 
L 380.756439 57.257023 
L 381.001092 60.299158 
L 381.245745 59.365521 
L 381.490398 55.638974 
L 381.490398 55.638974 
" style="fill:none;stroke:#1f77b4;stroke-linecap:square;stroke-width:1.5;"/>
   </g>
   <g id="line2d_28">
    <path clip-path="url(#pd9182d1615)" d="M 56.835852 186.62464 
L 57.080505 174.606866 
L 57.325158 178.102946 
L 57.569811 175.699391 
L 57.814464 189.465204 
L 58.059117 177.884441 
L 58.30377 179.850986 
L 58.548423 189.465204 
L 58.793076 191.650254 
L 59.527035 202.138492 
L 59.771688 200.390453 
L 60.016341 201.045967 
L 60.260994 196.675868 
L 60.505647 197.112878 
L 60.7503 198.423908 
L 60.994953 203.012512 
L 61.484259 228.140583 
L 61.728912 220.274405 
L 62.707525 249.335565 
L 62.952178 243.654436 
L 63.196831 246.276496 
L 63.441484 241.250881 
L 63.686137 227.266563 
L 64.175443 237.973307 
L 64.420096 235.569752 
L 64.664749 240.376861 
L 64.909402 222.896464 
L 65.154055 227.922078 
L 65.643361 216.99683 
L 65.888014 219.18188 
L 66.132667 216.55982 
L 66.37732 229.888623 
L 66.621973 227.922078 
L 66.866626 237.536297 
L 67.111279 235.788257 
L 67.355932 223.770484 
L 67.600585 232.073673 
L 67.845238 222.240949 
L 68.089891 223.114969 
L 68.334544 225.300019 
L 68.579197 223.333474 
L 68.82385 217.87085 
L 69.068503 217.87085 
L 69.313156 218.30786 
L 69.557809 228.577593 
L 69.802462 228.140583 
L 70.047115 225.518524 
L 70.291768 227.703573 
L 70.781074 236.225267 
L 71.025727 234.040217 
L 71.27038 243.654436 
L 71.515033 247.36902 
L 71.759686 260.916328 
L 72.248992 250.42809 
L 72.493645 251.520615 
L 72.982951 245.183971 
L 73.472257 257.420249 
L 73.71691 243.217426 
L 73.961563 258.512774 
L 74.206216 266.378953 
L 74.450869 267.908487 
L 74.695522 272.497092 
L 74.940175 270.749052 
L 75.184828 274.026626 
L 75.429481 264.849418 
L 75.674134 262.008853 
L 75.918787 247.150515 
L 76.16344 246.93201 
L 76.408093 243.872941 
L 76.652746 232.073673 
L 76.897399 244.528456 
L 77.142052 243.217426 
L 77.386705 240.158357 
L 77.631358 231.199653 
L 77.876011 232.292178 
L 78.120664 244.091446 
L 78.365317 249.11706 
L 78.60997 245.620981 
L 78.854623 244.091446 
L 79.099276 236.880782 
L 79.343929 238.410317 
L 79.588582 233.603208 
L 79.833235 238.410317 
L 80.077888 239.284337 
L 80.322541 237.973307 
L 80.811847 246.276496 
L 81.0565 257.201744 
L 81.301153 251.30211 
L 81.790459 258.294269 
L 82.035112 265.067923 
L 82.279765 265.067923 
L 82.524418 274.900646 
L 82.769071 268.782507 
L 83.013724 239.284337 
L 83.258377 239.284337 
L 83.50303 237.973307 
L 83.992336 251.520615 
L 84.236989 251.73912 
L 84.726296 254.361179 
L 84.970949 252.61314 
L 85.215602 245.402476 
L 85.460255 245.402476 
L 85.949561 237.099287 
L 86.194214 249.55407 
L 86.438867 249.55407 
L 86.68352 249.99108 
L 87.172826 252.17613 
L 87.417479 243.217426 
L 87.662132 241.469386 
L 87.906785 247.150515 
L 88.151438 240.595366 
L 88.396091 244.746961 
L 88.640744 227.485068 
L 88.885397 223.770484 
L 89.13005 210.660186 
L 89.619356 217.215335 
L 89.864009 240.158357 
L 90.353315 255.890714 
L 90.597968 243.217426 
L 90.842621 237.754802 
L 91.087274 236.443772 
L 91.331927 236.880782 
L 91.57658 219.18188 
L 91.821233 236.662277 
L 92.555192 214.81178 
L 92.799845 215.24879 
L 93.044498 212.626731 
L 93.289151 215.6858 
L 93.533804 208.256631 
L 94.267763 201.919987 
L 94.757069 217.652345 
L 95.001722 208.256631 
L 95.246375 212.408226 
L 95.491028 213.93776 
L 95.980334 189.683709 
L 96.224987 185.31361 
L 96.46964 185.969125 
L 96.714293 184.221085 
L 96.958946 171.766302 
L 97.203599 182.036035 
L 97.448252 177.228926 
L 97.692905 177.010421 
L 97.937558 171.110787 
L 98.182211 183.12856 
L 98.426864 175.043876 
L 98.671517 185.095105 
L 98.91617 168.051717 
L 99.160823 171.329292 
L 99.405476 163.463113 
L 99.650129 161.059558 
L 99.894782 163.244608 
L 100.139435 184.8766 
L 100.384088 135.057467 
L 100.628741 131.124378 
L 100.873394 140.957102 
L 101.118047 128.720823 
L 101.3627 127.409794 
L 101.607353 127.846804 
L 101.852006 139.864577 
L 102.096659 135.494477 
L 102.341312 140.957102 
L 102.830618 135.931487 
L 103.075271 138.553547 
L 103.319924 144.016171 
L 103.564577 137.898032 
L 103.80923 141.394111 
L 104.053883 127.846804 
L 104.543189 140.520092 
L 105.032495 138.990557 
L 105.766454 119.32511 
L 106.011107 121.947169 
L 106.25576 134.838962 
L 106.500413 135.712982 
L 106.745066 137.679527 
L 106.98972 144.671686 
L 107.479026 131.124378 
L 107.968332 170.018262 
L 108.212985 187.06165 
L 108.702291 155.815439 
L 108.946944 172.640322 
L 109.191597 169.581252 
L 109.43625 156.033944 
L 109.680903 161.059558 
L 110.170209 178.321451 
L 110.414862 177.884441 
L 110.659515 179.413976 
L 111.148821 166.522183 
L 111.393474 177.884441 
L 111.638127 205.853077 
L 111.88278 192.087264 
L 112.127433 197.112878 
L 112.372086 192.961284 
L 112.616739 179.632481 
L 112.861392 181.162015 
L 113.106045 184.43959 
L 113.350698 176.791916 
L 113.595351 178.758461 
L 113.840004 176.136401 
L 114.32931 175.043876 
L 114.573963 168.707232 
L 114.818616 171.984807 
L 115.063269 164.337133 
L 115.307922 164.337133 
L 115.552575 164.774143 
L 115.797228 181.81753 
L 116.041881 168.488727 
L 116.286534 169.144242 
L 116.531187 163.026103 
L 116.77584 168.488727 
L 117.020493 165.866668 
L 117.265146 168.051717 
L 117.509799 168.488727 
L 117.754452 172.858827 
L 117.999105 180.725006 
L 118.243758 179.850986 
L 118.488411 185.095105 
L 118.733064 174.388361 
L 118.977717 182.036035 
L 119.467023 178.758461 
L 119.711676 183.56557 
L 119.956329 182.473045 
L 120.200982 183.347065 
L 120.445635 190.557729 
L 120.934941 197.112878 
L 121.179594 206.727097 
L 121.424247 207.601116 
L 121.6689 213.500751 
L 121.913553 216.341315 
L 122.158206 224.425999 
L 122.402859 223.770484 
L 122.647512 219.18188 
L 122.892165 227.922078 
L 123.136818 227.266563 
L 123.381471 222.896464 
L 123.626124 228.359088 
L 123.870777 226.611049 
L 124.11543 232.729188 
L 124.360083 218.74487 
L 124.604736 225.300019 
L 124.849389 222.896464 
L 125.338695 216.778325 
L 125.583348 213.500751 
L 125.828001 220.929919 
L 126.317307 211.752711 
L 126.56196 213.282246 
L 126.806613 195.801848 
L 127.051266 201.919987 
L 127.295919 199.953443 
L 127.540572 216.778325 
L 127.785225 218.963375 
L 128.029878 223.333474 
L 128.274531 214.37477 
L 128.519184 221.803939 
L 128.763837 233.166198 
L 129.00849 231.636663 
L 129.253143 242.998921 
L 129.497797 248.898555 
L 129.74245 248.024535 
L 129.987103 251.30211 
L 130.231756 246.276496 
L 130.476409 250.646595 
L 130.721062 235.351247 
L 130.965715 235.569752 
L 131.210368 232.510683 
L 131.455021 237.973307 
L 131.699674 230.544138 
L 131.944327 218.526365 
L 132.18898 213.500751 
L 132.433633 212.626731 
L 132.678286 206.727097 
L 132.922939 206.727097 
L 133.167592 213.063741 
L 133.412245 208.038126 
L 133.656898 195.364838 
L 133.901551 191.213244 
L 134.146204 195.146333 
L 134.390857 196.238858 
L 134.63551 195.364838 
L 134.880163 197.549888 
L 135.124816 197.768393 
L 135.369469 185.75062 
L 135.614122 190.557729 
L 135.858775 185.75062 
L 136.103428 189.683709 
L 136.348081 189.465204 
L 136.592734 184.221085 
L 136.837387 182.25454 
L 137.08204 182.036035 
L 137.815999 185.532115 
L 138.060652 177.447431 
L 138.305305 177.447431 
L 138.549958 178.758461 
L 138.794611 181.38052 
L 139.039264 182.69155 
L 139.283917 182.69155 
L 139.52857 185.095105 
L 139.773223 179.195471 
L 140.017876 178.758461 
L 140.262529 190.557729 
L 140.507182 176.791916 
L 140.751835 178.102946 
L 140.996488 190.120719 
L 141.241141 184.00258 
L 141.485794 204.105037 
L 141.730447 203.668027 
L 141.9751 202.794007 
L 142.219753 206.508592 
L 142.464406 186.406135 
L 142.709059 189.902214 
L 143.198365 183.347065 
L 143.443018 182.69155 
L 144.42163 158.218994 
L 144.666283 172.421817 
L 145.155589 180.94351 
L 145.400242 178.321451 
L 145.644895 188.154174 
L 145.889548 192.742779 
L 146.134201 184.00258 
L 146.378854 197.112878 
L 146.623507 193.616799 
L 146.86816 192.087264 
L 147.112813 193.179789 
L 147.357466 202.575502 
L 147.602119 188.591184 
L 147.846772 189.028194 
L 148.336078 212.189721 
L 148.580731 214.593275 
L 148.825384 211.534206 
L 149.070037 232.729188 
L 149.31469 226.829554 
L 149.559343 234.477227 
L 149.803996 248.024535 
L 150.048649 241.906396 
L 150.293302 239.065832 
L 150.537955 229.888623 
L 150.782608 231.636663 
L 151.027261 218.089355 
L 151.271914 216.55982 
L 151.516567 219.400385 
L 151.76122 216.341315 
L 152.005874 210.223176 
L 152.250527 242.124901 
L 152.49518 250.209585 
L 152.739833 245.839486 
L 152.984486 248.461545 
L 153.473792 235.569752 
L 153.718445 233.384703 
L 154.207751 226.174039 
L 154.452404 227.922078 
L 154.697057 223.770484 
L 154.94171 222.896464 
L 155.431016 218.526365 
L 155.675669 216.341315 
L 155.920322 213.063741 
L 156.164975 220.274405 
L 156.409628 231.199653 
L 156.654281 226.829554 
L 157.143587 221.803939 
L 157.38824 227.485068 
L 157.632893 220.711414 
L 157.877546 220.929919 
L 158.122199 221.803939 
L 158.366852 216.99683 
L 158.611505 217.215335 
L 159.100811 209.786166 
L 159.590117 221.585434 
L 159.83477 223.333474 
L 160.079423 229.014603 
L 160.324076 225.737029 
L 160.813382 210.878691 
L 161.058035 208.912146 
L 161.302688 211.097196 
L 161.547341 216.778325 
L 161.791994 214.593275 
L 162.036647 182.910055 
L 162.2813 173.951352 
L 162.525953 171.110787 
L 162.770606 170.455272 
L 163.015259 171.329292 
L 163.259912 170.892282 
L 163.504565 171.547797 
L 163.749218 164.774143 
L 163.993871 164.337133 
L 164.238524 174.388361 
L 164.483177 169.581252 
L 164.72783 169.799757 
L 164.972483 166.085173 
L 165.461789 176.136401 
L 165.706442 166.959193 
L 165.951095 170.892282 
L 166.195748 167.833212 
L 166.440401 168.925737 
L 166.685054 162.589093 
L 166.929707 167.396203 
L 167.17436 175.480886 
L 167.419013 167.396203 
L 167.908319 174.169857 
L 168.152972 167.833212 
L 168.397625 174.169857 
L 168.642278 174.169857 
L 168.886931 170.018262 
L 169.131584 174.169857 
L 169.376237 172.421817 
L 169.62089 166.959193 
L 169.865543 168.051717 
L 170.110196 167.614707 
L 170.354849 169.581252 
L 170.844155 165.211153 
L 171.088808 166.959193 
L 171.333461 163.463113 
L 171.578114 168.051717 
L 171.822767 177.665936 
L 172.06742 178.758461 
L 172.556726 166.740688 
L 172.801379 152.75637 
L 173.046032 147.730756 
L 173.290685 149.915805 
L 173.535338 149.041785 
L 174.024644 144.016171 
L 174.269298 142.486636 
L 174.758604 135.275972 
L 175.003257 136.805507 
L 175.24791 136.805507 
L 175.492563 138.116537 
L 175.737216 140.083082 
L 175.981869 144.453181 
L 176.226522 144.234676 
L 176.471175 137.461022 
L 176.715828 143.797666 
L 176.960481 134.838962 
L 177.205134 140.957102 
L 177.449787 140.520092 
L 177.69444 142.705141 
L 177.939093 133.746438 
L 178.183746 134.401953 
L 178.428399 160.841054 
L 178.673052 169.144242 
L 178.917705 165.648163 
L 179.162358 164.992648 
L 179.651664 179.195471 
L 179.896317 195.146333 
L 180.14097 202.356997 
L 180.385623 202.356997 
L 180.630276 199.953443 
L 180.874929 204.760552 
L 181.119582 188.591184 
L 181.364235 201.045967 
L 182.098194 193.835304 
L 182.5875 182.910055 
L 183.076806 157.344974 
L 183.321459 159.311519 
L 183.566112 159.530024 
L 183.810765 156.033944 
L 184.055418 162.370588 
L 184.544724 151.88235 
L 184.789377 151.88235 
L 185.03403 151.226835 
L 185.278683 149.26029 
L 185.523336 151.00833 
L 186.012642 145.982716 
L 186.257295 146.638231 
L 186.501948 147.94926 
L 186.991254 139.427567 
L 187.235907 144.234676 
L 187.48056 154.941419 
L 187.725213 154.0674 
L 187.969866 151.00833 
L 188.214519 151.663845 
L 188.948478 138.335042 
L 189.193131 145.545706 
L 189.437784 137.242517 
L 189.682437 147.94926 
L 189.92709 138.772052 
L 190.171743 137.679527 
L 190.416396 128.720823 
L 190.661049 126.972784 
L 190.905702 128.720823 
L 191.150355 121.291655 
L 191.395008 108.181356 
L 191.639661 101.189198 
L 191.884314 87.423385 
L 192.128967 102.281722 
L 192.37362 89.171424 
L 193.107579 116.26604 
L 193.352232 130.905873 
L 193.841538 114.95501 
L 194.086191 171.984807 
L 194.330844 173.295837 
L 194.82015 164.337133 
L 195.309456 174.606866 
L 196.043415 145.764211 
L 196.288068 147.293746 
L 196.532721 147.075241 
L 196.777375 136.368497 
L 197.022028 136.805507 
L 197.266681 136.149992 
L 197.511334 134.620457 
L 197.755987 131.998398 
L 198.00064 127.628299 
L 198.245293 125.880259 
L 198.489946 127.191289 
L 198.734599 123.039694 
L 199.223905 94.634049 
L 199.468558 93.978534 
L 199.713211 88.515909 
L 199.957864 93.541524 
L 200.202517 90.045444 
L 200.44717 93.104514 
L 200.691823 81.305246 
L 200.936476 87.423385 
L 201.181129 87.64189 
L 201.425782 103.811257 
L 201.670435 110.366406 
L 201.915088 109.710891 
L 202.159741 118.232585 
L 202.404394 142.268131 
L 202.649047 151.88235 
L 202.8937 153.411885 
L 203.383006 174.388361 
L 203.627659 178.321451 
L 204.116965 134.620457 
L 204.361618 144.234676 
L 204.606271 135.494477 
L 204.850924 121.947169 
L 205.095577 122.602684 
L 205.34023 122.165674 
L 205.829536 126.535774 
L 206.074189 138.335042 
L 206.318842 140.083082 
L 206.563495 140.083082 
L 206.808148 133.090923 
L 207.297454 110.147901 
L 207.78676 129.157833 
L 208.031413 129.376338 
L 208.276066 130.905873 
L 208.520719 134.838962 
L 208.765372 131.561388 
L 209.010025 117.795575 
L 209.254678 113.425476 
L 209.499331 104.248267 
L 210.477943 144.890191 
L 210.722596 140.957102 
L 210.967249 161.278063 
L 211.211902 152.100855 
L 211.701208 150.13431 
L 211.945861 147.730756 
L 212.435167 159.967034 
L 212.67982 134.401953 
L 212.924473 135.057467 
L 213.658432 147.293746 
L 213.903085 149.041785 
L 214.147738 140.738597 
L 214.637044 146.419726 
L 214.881697 140.301587 
L 215.12635 142.049626 
L 215.371003 133.090923 
L 215.615656 114.736506 
L 215.860309 116.921555 
L 216.104962 122.384179 
L 216.349615 132.216903 
L 216.594268 134.401953 
L 216.838921 153.63039 
L 217.083574 156.470954 
L 217.57288 184.658095 
L 217.817533 174.388361 
L 218.062186 188.809689 
L 218.551492 175.699391 
L 218.796145 173.732847 
L 219.040798 186.406135 
L 219.285452 172.640322 
L 219.530105 173.295837 
L 219.774758 176.573411 
L 220.019411 177.010421 
L 220.264064 179.195471 
L 220.508717 185.095105 
L 220.75337 175.699391 
L 220.998023 174.825371 
L 221.242676 171.984807 
L 221.487329 171.984807 
L 221.731982 161.278063 
L 222.221288 167.396203 
L 222.465941 163.900123 
L 223.444553 178.102946 
L 223.689206 173.732847 
L 223.933859 180.287996 
L 224.178512 172.421817 
L 224.423165 169.799757 
L 224.667818 158.218994 
L 224.912471 166.085173 
L 225.64643 170.018262 
L 225.891083 176.136401 
L 226.135736 174.606866 
L 226.380389 166.959193 
L 226.625042 165.866668 
L 226.869695 170.455272 
L 227.114348 172.421817 
L 227.359001 171.547797 
L 227.603654 165.429658 
L 227.848307 166.303678 
L 228.09296 171.766302 
L 228.582266 154.0674 
L 228.826919 153.63039 
L 229.071572 158.000489 
L 229.316225 158.218994 
L 229.560878 157.344974 
L 229.805531 159.967034 
L 230.050184 160.404044 
L 230.294837 165.211153 
L 230.53949 162.370588 
L 230.784143 161.933578 
L 231.028796 165.866668 
L 231.273449 166.303678 
L 231.518102 165.211153 
L 231.762755 167.833212 
L 232.007408 173.951352 
L 232.252061 184.658095 
L 232.741367 182.473045 
L 232.98602 179.632481 
L 233.719979 195.801848 
L 233.964632 185.095105 
L 234.209285 180.94351 
L 234.453938 172.640322 
L 234.698591 178.102946 
L 234.943244 176.354906 
L 235.187897 178.539956 
L 235.677203 186.406135 
L 235.921856 186.843145 
L 236.166509 199.953443 
L 236.411162 203.668027 
L 236.655815 197.768393 
L 236.900468 197.986898 
L 237.145121 199.516433 
L 237.389774 181.38052 
L 237.634427 189.902214 
L 237.87908 188.591184 
L 238.613039 161.278063 
L 238.857692 162.152083 
L 239.102345 154.504409 
L 239.346998 159.530024 
L 239.591651 156.689459 
L 239.836304 160.841054 
L 240.080957 167.177698 
L 240.32561 168.488727 
L 240.570263 177.228926 
L 240.814916 175.043876 
L 241.059569 174.825371 
L 241.304222 173.951352 
L 241.548875 174.606866 
L 242.038182 153.19338 
L 242.527488 140.520092 
L 243.016794 148.167765 
L 243.261447 150.13431 
L 243.995406 162.807598 
L 244.484712 157.344974 
L 244.729365 158.437499 
L 244.974018 169.799757 
L 245.218671 174.825371 
L 245.707977 222.240949 
L 245.95263 230.762643 
L 246.441936 202.794007 
L 246.686589 198.860918 
L 246.931242 201.701482 
L 247.175895 214.156265 
L 247.420548 210.878691 
L 247.665201 205.197562 
L 247.909854 219.18188 
L 248.154507 210.878691 
L 248.39916 223.988989 
L 248.643813 221.366929 
L 248.888466 227.703573 
L 249.133119 228.359088 
L 249.377772 219.61889 
L 249.622425 205.416067 
L 249.867078 200.390453 
L 250.111731 209.130651 
L 250.356384 204.542047 
L 250.601037 213.282246 
L 250.84569 213.93776 
L 251.334996 195.146333 
L 251.579649 197.112878 
L 251.824302 194.272313 
L 252.068955 184.221085 
L 252.313608 191.213244 
L 252.802914 164.774143 
L 253.047567 165.866668 
L 253.536873 143.579161 
L 253.781526 142.705141 
L 254.026179 143.142151 
L 254.270832 150.789825 
L 254.515485 150.13431 
L 254.760138 144.890191 
L 255.004791 142.705141 
L 255.249444 143.360656 
L 255.494097 136.805507 
L 255.73875 138.990557 
L 255.983403 116.047535 
L 256.228056 125.880259 
L 256.472709 130.250358 
L 256.717362 129.813348 
L 256.962015 127.191289 
L 257.206668 125.880259 
L 257.451321 135.494477 
L 258.18528 143.797666 
L 258.429933 135.931487 
L 258.919239 153.19338 
L 259.408545 142.268131 
L 259.653198 152.31936 
L 259.897851 156.689459 
L 260.142504 144.016171 
L 260.387157 150.352815 
L 260.876463 118.8881 
L 261.121116 133.746438 
L 261.610422 113.425476 
L 261.855075 113.425476 
L 262.099728 118.01408 
L 262.344381 129.594843 
L 262.589034 123.695209 
L 262.833687 126.317269 
L 263.07834 133.090923 
L 263.322993 114.95501 
L 263.567646 116.921555 
L 263.812299 121.07315 
L 264.056952 128.720823 
L 264.301606 126.535774 
L 264.546259 137.242517 
L 264.790912 133.309428 
L 265.280218 102.937237 
L 265.524871 110.584911 
L 265.769524 132.216903 
L 266.014177 126.098764 
L 266.503483 106.651822 
L 266.748136 109.492386 
L 266.992789 110.584911 
L 267.237442 105.777802 
L 267.482095 108.836871 
L 267.971401 134.401953 
L 268.216054 131.124378 
L 268.460707 136.149992 
L 268.70536 151.44534 
L 268.950013 153.848895 
L 269.194666 152.31936 
L 269.439319 140.520092 
L 269.683972 146.419726 
L 269.928625 145.764211 
L 270.173278 154.0674 
L 270.417931 144.890191 
L 270.662584 156.689459 
L 270.907237 156.470954 
L 271.15189 141.831121 
L 271.396543 139.646072 
L 271.641196 141.394111 
L 271.885849 141.175606 
L 272.375155 123.039694 
L 272.619808 121.291655 
L 272.864461 133.527933 
L 273.109114 127.409794 
L 273.353767 131.561388 
L 273.59842 133.527933 
L 273.843073 128.939328 
L 274.087726 114.736506 
L 274.332379 131.124378 
L 274.577032 134.183448 
L 274.821685 118.8881 
L 275.066338 113.425476 
L 275.800297 104.466772 
L 276.04495 100.752188 
L 276.289603 106.214812 
L 276.778909 95.945078 
L 277.023562 118.232585 
L 277.268215 118.45109 
L 277.512868 106.214812 
L 277.757521 104.466772 
L 278.246827 97.037603 
L 278.49148 99.222653 
L 278.736133 92.448999 
L 279.225439 72.565047 
L 279.470092 73.220562 
L 279.714745 71.254017 
L 279.959398 72.346542 
L 280.204051 76.498136 
L 280.448704 60.765779 
L 280.693357 64.480363 
L 280.93801 62.950828 
L 281.182663 66.665413 
L 281.427316 67.539433 
L 281.671969 64.917373 
L 281.916622 60.110264 
L 282.161275 45.251926 
L 282.405928 43.066876 
L 282.650581 47.218471 
L 282.895234 37.604252 
L 283.139887 36.293222 
L 283.38454 44.159401 
L 283.629193 40.226312 
L 283.873846 47.873986 
L 284.118499 36.730232 
L 284.363152 46.125946 
L 284.607805 41.537342 
L 284.852458 54.866145 
L 285.097111 59.454749 
L 285.341764 53.555115 
L 285.586417 50.933055 
L 285.83107 42.629866 
L 286.075723 91.356474 
L 286.320376 106.870327 
L 286.56503 87.64189 
L 286.809683 83.927305 
L 287.054336 87.860395 
L 287.298989 84.58282 
L 287.543642 85.675345 
L 288.032948 78.027671 
L 288.277601 81.086741 
L 289.01156 70.598502 
L 289.256213 72.346542 
L 289.500866 61.202789 
L 289.745519 67.539433 
L 289.990172 59.454749 
L 290.234825 69.942987 
L 290.479478 64.043353 
L 290.724131 83.053285 
L 291.45809 100.533683 
L 291.702743 100.096673 
L 291.947396 91.356474 
L 292.192049 91.137969 
L 292.436702 84.364315 
L 292.681355 82.39777 
L 292.926008 86.33086 
L 293.170661 84.14581 
L 293.415314 83.7088 
L 293.90462 69.505977 
L 294.149273 70.598502 
L 294.883232 55.958669 
L 295.127885 74.968602 
L 295.372538 76.716641 
L 295.617191 77.372156 
L 295.861844 70.817007 
L 296.106497 82.179265 
L 296.595803 74.750097 
L 296.840456 80.649731 
L 297.085109 75.842621 
L 297.329762 100.970693 
L 297.574415 104.248267 
L 298.063721 89.826939 
L 298.308374 70.379997 
L 298.553027 74.968602 
L 298.79768 68.194948 
L 299.286986 75.624116 
L 299.776292 65.135878 
L 300.020945 64.917373 
L 300.265598 61.421294 
L 300.754904 63.824848 
L 301.24421 63.824848 
L 301.488863 66.446908 
L 301.733516 67.757938 
L 301.978169 59.454749 
L 302.222822 65.135878 
L 302.467475 80.212721 
L 302.712128 112.551456 
L 302.956781 107.088832 
L 303.201434 107.525842 
L 303.446087 111.458931 
L 303.935393 107.307337 
L 304.180046 110.147901 
L 304.669352 111.677436 
L 304.914005 111.021921 
L 305.403311 104.903782 
L 305.892617 94.197039 
L 306.13727 103.155742 
L 306.381923 98.130128 
L 306.626576 97.256108 
L 307.115882 105.122287 
L 307.360535 102.718732 
L 307.605188 102.718732 
L 307.849841 106.651822 
L 308.094494 114.299496 
L 308.339147 109.492386 
L 308.5838 116.047535 
L 308.828453 111.895941 
L 309.073107 113.643981 
L 309.31776 106.870327 
L 309.562413 104.029762 
L 309.807066 107.307337 
L 310.051719 107.525842 
L 310.296372 137.242517 
L 310.541025 117.14006 
L 310.785678 137.024012 
L 311.030331 140.738597 
L 311.274984 135.275972 
L 311.519637 140.083082 
L 311.76429 140.957102 
L 312.253596 131.561388 
L 312.498249 122.165674 
L 312.742902 126.972784 
L 312.987555 142.049626 
L 313.232208 130.250358 
L 313.476861 139.864577 
L 313.721514 142.486636 
L 313.966167 136.149992 
L 314.455473 146.638231 
L 314.700126 147.293746 
L 314.944779 149.478795 
L 315.189432 149.041785 
L 315.434085 149.041785 
L 315.678738 153.19338 
L 315.923391 147.94926 
L 316.168044 148.38627 
L 316.65735 151.88235 
L 316.902003 143.797666 
L 317.146656 142.049626 
L 317.391309 144.671686 
L 317.635962 140.301587 
L 317.880615 130.905873 
L 318.125268 131.342883 
L 318.369921 133.527933 
L 318.614574 140.520092 
L 318.859227 138.116537 
L 319.10388 134.401953 
L 319.348533 140.520092 
L 319.593186 142.049626 
L 319.837839 142.486636 
L 320.082492 149.915805 
L 320.327145 133.090923 
L 320.571798 123.913714 
L 320.816451 137.242517 
L 321.061104 166.303678 
L 321.305757 164.337133 
L 321.55041 161.278063 
L 321.795063 155.378429 
L 322.529022 166.959193 
L 322.773675 157.126469 
L 323.018328 156.907964 
L 323.262981 162.370588 
L 323.507634 153.411885 
L 323.752287 148.604775 
L 324.486246 183.12856 
L 324.975552 173.295837 
L 325.220205 174.388361 
L 325.464858 158.656004 
L 325.709511 165.429658 
L 325.954164 143.142151 
L 326.44347 148.38627 
L 326.688123 160.404044 
L 327.177429 148.82328 
L 327.422082 150.352815 
L 327.666735 150.57132 
L 327.911388 152.537865 
L 328.156041 152.974875 
L 328.400694 151.88235 
L 328.645347 151.663845 
L 328.89 156.470954 
L 329.134653 151.88235 
L 329.379306 154.941419 
L 329.623959 147.512251 
L 329.868612 150.789825 
L 330.113265 148.604775 
L 330.357918 148.82328 
L 330.847224 164.118628 
L 331.091877 163.900123 
L 331.581184 167.614707 
L 331.825837 160.185539 
L 332.07049 158.656004 
L 332.315143 161.933578 
L 332.804449 155.596934 
L 333.049102 145.327201 
L 333.293755 140.520092 
L 333.783061 155.159924 
L 334.027714 156.689459 
L 334.272367 152.537865 
L 334.51702 159.311519 
L 335.006326 153.19338 
L 335.250979 152.75637 
L 335.495632 145.327201 
L 335.740285 142.705141 
L 336.229591 174.169857 
L 336.474244 173.295837 
L 336.96355 177.228926 
L 337.208203 160.622549 
L 337.452856 159.967034 
L 337.942162 151.88235 
L 338.186815 150.57132 
L 338.431468 147.94926 
L 338.676121 150.352815 
L 339.41008 132.872418 
L 339.654733 132.653913 
L 340.144039 143.360656 
L 340.388692 143.360656 
L 340.633345 142.486636 
L 340.877998 136.805507 
L 341.122651 142.486636 
L 341.367304 143.797666 
L 341.85661 137.679527 
L 342.101263 142.486636 
L 342.345916 139.209062 
L 342.590569 132.216903 
L 342.835222 134.838962 
L 343.079875 139.427567 
L 343.324528 140.520092 
L 343.813834 133.746438 
L 344.058487 133.964943 
L 344.30314 130.031853 
L 344.547793 133.527933 
L 344.792446 134.183448 
L 345.037099 128.283813 
L 345.281752 130.687368 
L 345.526405 128.502318 
L 345.771058 129.813348 
L 346.015711 128.065308 
L 346.260364 128.720823 
L 346.505017 122.602684 
L 346.74967 125.880259 
L 346.994323 119.76212 
L 347.238976 110.803416 
L 347.728282 119.32511 
L 347.972935 119.76212 
L 348.217588 115.173515 
L 348.462241 118.8881 
L 348.706894 116.047535 
L 348.951547 121.07315 
L 349.1962 118.01408 
L 349.440853 116.484545 
L 349.685506 112.769961 
L 349.930159 114.299496 
L 350.174812 106.870327 
L 350.419465 106.214812 
L 350.664118 101.844712 
L 350.908771 110.147901 
L 351.153424 108.836871 
L 351.398077 106.651822 
L 351.64273 108.399861 
L 352.132036 102.718732 
L 352.376689 100.970693 
L 352.621342 103.811257 
L 352.865995 101.626207 
L 353.355301 90.919464 
L 353.844607 68.631957 
L 354.089261 69.068967 
L 354.578567 67.320928 
L 354.82322 60.328769 
L 355.312526 55.958669 
L 355.557179 56.177174 
L 356.046485 74.750097 
L 356.291138 70.598502 
L 356.535791 70.379997 
L 356.780444 76.935146 
L 357.025097 71.035512 
L 357.26975 72.128037 
L 357.759056 69.287472 
L 358.003709 64.261858 
L 358.248362 72.783552 
L 358.493015 76.061126 
L 358.982321 68.194948 
L 359.226974 76.498136 
L 359.471627 70.598502 
L 359.71628 81.305246 
L 359.960933 80.868236 
L 360.205586 82.83478 
L 360.450239 81.523751 
L 360.694892 90.700959 
L 361.184198 91.137969 
L 361.428851 92.230494 
L 361.673504 88.297405 
L 361.918157 90.045444 
L 362.16281 84.58282 
L 362.407463 83.490295 
L 362.652116 84.801325 
L 362.896769 81.305246 
L 363.141422 81.523751 
L 363.386075 76.935146 
L 363.630728 81.086741 
L 364.364687 53.118105 
L 364.60934 55.521659 
L 365.098646 62.295313 
L 365.343299 64.698868 
L 365.587952 62.950828 
L 365.832605 66.665413 
L 366.077258 63.606343 
L 366.321911 64.480363 
L 366.566564 64.698868 
L 366.811217 61.421294 
L 367.05587 64.698868 
L 367.300523 60.110264 
L 367.545176 51.58857 
L 367.789829 51.370065 
L 368.279135 62.950828 
L 368.523788 62.732323 
L 369.257747 68.631957 
L 369.5024 65.135878 
L 369.747053 68.413453 
L 369.991706 67.757938 
L 370.236359 69.068967 
L 371.214971 56.614184 
L 371.459624 49.622025 
L 371.704277 49.185015 
L 372.438236 36.730232 
L 372.682889 53.33661 
L 372.927542 51.807075 
L 373.172195 53.33661 
L 373.416848 56.177174 
L 373.661501 60.547274 
L 373.906154 68.850462 
L 374.150807 66.883918 
L 374.39546 62.513818 
L 374.640113 65.135878 
L 374.884766 85.45684 
L 375.129419 79.557206 
L 375.374072 77.372156 
L 375.618725 81.96076 
L 376.108031 66.665413 
L 376.352684 66.228403 
L 376.597338 66.883918 
L 376.841991 68.631957 
L 377.086644 58.580729 
L 377.331297 53.555115 
L 377.57595 53.33661 
L 377.820603 51.807075 
L 378.065256 42.192856 
L 378.554562 46.999966 
L 378.799215 42.848371 
L 379.043868 47.436976 
L 379.288521 48.748005 
L 379.777827 54.64764 
L 380.02248 50.71455 
L 380.511786 58.799234 
L 380.756439 56.177174 
L 381.001092 60.110264 
L 381.490398 56.395679 
L 381.490398 56.395679 
" style="fill:none;stroke:#ff7f0e;stroke-linecap:square;stroke-width:1.5;"/>
   </g>
   <g id="patch_3">
    <path d="M 40.603125 288.430125 
L 40.603125 22.318125 
" style="fill:none;stroke:#000000;stroke-linecap:square;stroke-linejoin:miter;stroke-width:0.8;"/>
   </g>
   <g id="patch_4">
    <path d="M 397.723125 288.430125 
L 397.723125 22.318125 
" style="fill:none;stroke:#000000;stroke-linecap:square;stroke-linejoin:miter;stroke-width:0.8;"/>
   </g>
   <g id="patch_5">
    <path d="M 40.603125 288.430125 
L 397.723125 288.430125 
" style="fill:none;stroke:#000000;stroke-linecap:square;stroke-linejoin:miter;stroke-width:0.8;"/>
   </g>
   <g id="patch_6">
    <path d="M 40.603125 22.318125 
L 397.723125 22.318125 
" style="fill:none;stroke:#000000;stroke-linecap:square;stroke-linejoin:miter;stroke-width:0.8;"/>
   </g>
   <g id="text_16">
    <!-- Training: KO -->
    <defs>
     <path d="M -0.296875 72.90625 
L 61.375 72.90625 
L 61.375 64.59375 
L 35.5 64.59375 
L 35.5 0 
L 25.59375 0 
L 25.59375 64.59375 
L -0.296875 64.59375 
z
" id="DejaVuSans-84"/>
     <path d="M 54.890625 33.015625 
L 54.890625 0 
L 45.90625 0 
L 45.90625 32.71875 
Q 45.90625 40.484375 42.875 44.328125 
Q 39.84375 48.1875 33.796875 48.1875 
Q 26.515625 48.1875 22.3125 43.546875 
Q 18.109375 38.921875 18.109375 30.90625 
L 18.109375 0 
L 9.078125 0 
L 9.078125 54.6875 
L 18.109375 54.6875 
L 18.109375 46.1875 
Q 21.34375 51.125 25.703125 53.5625 
Q 30.078125 56 35.796875 56 
Q 45.21875 56 50.046875 50.171875 
Q 54.890625 44.34375 54.890625 33.015625 
z
" id="DejaVuSans-110"/>
     <path d="M 45.40625 27.984375 
Q 45.40625 37.75 41.375 43.109375 
Q 37.359375 48.484375 30.078125 48.484375 
Q 22.859375 48.484375 18.828125 43.109375 
Q 14.796875 37.75 14.796875 27.984375 
Q 14.796875 18.265625 18.828125 12.890625 
Q 22.859375 7.515625 30.078125 7.515625 
Q 37.359375 7.515625 41.375 12.890625 
Q 45.40625 18.265625 45.40625 27.984375 
z
M 54.390625 6.78125 
Q 54.390625 -7.171875 48.1875 -13.984375 
Q 42 -20.796875 29.203125 -20.796875 
Q 24.46875 -20.796875 20.265625 -20.09375 
Q 16.0625 -19.390625 12.109375 -17.921875 
L 12.109375 -9.1875 
Q 16.0625 -11.328125 19.921875 -12.34375 
Q 23.78125 -13.375 27.78125 -13.375 
Q 36.625 -13.375 41.015625 -8.765625 
Q 45.40625 -4.15625 45.40625 5.171875 
L 45.40625 9.625 
Q 42.625 4.78125 38.28125 2.390625 
Q 33.9375 0 27.875 0 
Q 17.828125 0 11.671875 7.65625 
Q 5.515625 15.328125 5.515625 27.984375 
Q 5.515625 40.671875 11.671875 48.328125 
Q 17.828125 56 27.875 56 
Q 33.9375 56 38.28125 53.609375 
Q 42.625 51.21875 45.40625 46.390625 
L 45.40625 54.6875 
L 54.390625 54.6875 
z
" id="DejaVuSans-103"/>
     <path d="M 11.71875 12.40625 
L 22.015625 12.40625 
L 22.015625 0 
L 11.71875 0 
z
M 11.71875 51.703125 
L 22.015625 51.703125 
L 22.015625 39.3125 
L 11.71875 39.3125 
z
" id="DejaVuSans-58"/>
     <path d="M 9.8125 72.90625 
L 19.671875 72.90625 
L 19.671875 42.09375 
L 52.390625 72.90625 
L 65.09375 72.90625 
L 28.90625 38.921875 
L 67.671875 0 
L 54.6875 0 
L 19.671875 35.109375 
L 19.671875 0 
L 9.8125 0 
z
" id="DejaVuSans-75"/>
     <path d="M 39.40625 66.21875 
Q 28.65625 66.21875 22.328125 58.203125 
Q 16.015625 50.203125 16.015625 36.375 
Q 16.015625 22.609375 22.328125 14.59375 
Q 28.65625 6.59375 39.40625 6.59375 
Q 50.140625 6.59375 56.421875 14.59375 
Q 62.703125 22.609375 62.703125 36.375 
Q 62.703125 50.203125 56.421875 58.203125 
Q 50.140625 66.21875 39.40625 66.21875 
z
M 39.40625 74.21875 
Q 54.734375 74.21875 63.90625 63.9375 
Q 73.09375 53.65625 73.09375 36.375 
Q 73.09375 19.140625 63.90625 8.859375 
Q 54.734375 -1.421875 39.40625 -1.421875 
Q 24.03125 -1.421875 14.8125 8.828125 
Q 5.609375 19.09375 5.609375 36.375 
Q 5.609375 53.65625 14.8125 63.9375 
Q 24.03125 74.21875 39.40625 74.21875 
z
" id="DejaVuSans-79"/>
    </defs>
    <g transform="translate(183.23625 16.318125)scale(0.12 -0.12)">
     <use xlink:href="#DejaVuSans-84"/>
     <use x="46.333984" xlink:href="#DejaVuSans-114"/>
     <use x="87.447266" xlink:href="#DejaVuSans-97"/>
     <use x="148.726562" xlink:href="#DejaVuSans-105"/>
     <use x="176.509766" xlink:href="#DejaVuSans-110"/>
     <use x="239.888672" xlink:href="#DejaVuSans-105"/>
     <use x="267.671875" xlink:href="#DejaVuSans-110"/>
     <use x="331.050781" xlink:href="#DejaVuSans-103"/>
     <use x="394.527344" xlink:href="#DejaVuSans-58"/>
     <use x="428.21875" xlink:href="#DejaVuSans-32"/>
     <use x="460.005859" xlink:href="#DejaVuSans-75"/>
     <use x="520.082031" xlink:href="#DejaVuSans-79"/>
    </g>
   </g>
   <g id="legend_1">
    <g id="patch_7">
     <path d="M 47.603125 59.674375 
L 131.33125 59.674375 
Q 133.33125 59.674375 133.33125 57.674375 
L 133.33125 29.318125 
Q 133.33125 27.318125 131.33125 27.318125 
L 47.603125 27.318125 
Q 45.603125 27.318125 45.603125 29.318125 
L 45.603125 57.674375 
Q 45.603125 59.674375 47.603125 59.674375 
z
" style="fill:#ffffff;opacity:0.8;stroke:#cccccc;stroke-linejoin:miter;"/>
    </g>
    <g id="line2d_29">
     <path d="M 49.603125 35.416562 
L 69.603125 35.416562 
" style="fill:none;stroke:#1f77b4;stroke-linecap:square;stroke-width:1.5;"/>
    </g>
    <g id="line2d_30"/>
    <g id="text_17">
     <!-- Predicted -->
     <defs>
      <path d="M 45.40625 46.390625 
L 45.40625 75.984375 
L 54.390625 75.984375 
L 54.390625 0 
L 45.40625 0 
L 45.40625 8.203125 
Q 42.578125 3.328125 38.25 0.953125 
Q 33.9375 -1.421875 27.875 -1.421875 
Q 17.96875 -1.421875 11.734375 6.484375 
Q 5.515625 14.40625 5.515625 27.296875 
Q 5.515625 40.1875 11.734375 48.09375 
Q 17.96875 56 27.875 56 
Q 33.9375 56 38.25 53.625 
Q 42.578125 51.265625 45.40625 46.390625 
z
M 14.796875 27.296875 
Q 14.796875 17.390625 18.875 11.75 
Q 22.953125 6.109375 30.078125 6.109375 
Q 37.203125 6.109375 41.296875 11.75 
Q 45.40625 17.390625 45.40625 27.296875 
Q 45.40625 37.203125 41.296875 42.84375 
Q 37.203125 48.484375 30.078125 48.484375 
Q 22.953125 48.484375 18.875 42.84375 
Q 14.796875 37.203125 14.796875 27.296875 
z
" id="DejaVuSans-100"/>
      <path d="M 18.3125 70.21875 
L 18.3125 54.6875 
L 36.8125 54.6875 
L 36.8125 47.703125 
L 18.3125 47.703125 
L 18.3125 18.015625 
Q 18.3125 11.328125 20.140625 9.421875 
Q 21.96875 7.515625 27.59375 7.515625 
L 36.8125 7.515625 
L 36.8125 0 
L 27.59375 0 
Q 17.1875 0 13.234375 3.875 
Q 9.28125 7.765625 9.28125 18.015625 
L 9.28125 47.703125 
L 2.6875 47.703125 
L 2.6875 54.6875 
L 9.28125 54.6875 
L 9.28125 70.21875 
z
" id="DejaVuSans-116"/>
     </defs>
     <g transform="translate(77.603125 38.916562)scale(0.1 -0.1)">
      <use xlink:href="#DejaVuSans-80"/>
      <use x="58.552734" xlink:href="#DejaVuSans-114"/>
      <use x="97.416016" xlink:href="#DejaVuSans-101"/>
      <use x="158.939453" xlink:href="#DejaVuSans-100"/>
      <use x="222.416016" xlink:href="#DejaVuSans-105"/>
      <use x="250.199219" xlink:href="#DejaVuSans-99"/>
      <use x="305.179688" xlink:href="#DejaVuSans-116"/>
      <use x="344.388672" xlink:href="#DejaVuSans-101"/>
      <use x="405.912109" xlink:href="#DejaVuSans-100"/>
     </g>
    </g>
    <g id="line2d_31">
     <path d="M 49.603125 50.094687 
L 69.603125 50.094687 
" style="fill:none;stroke:#ff7f0e;stroke-linecap:square;stroke-width:1.5;"/>
    </g>
    <g id="line2d_32"/>
    <g id="text_18">
     <!-- True value -->
     <defs>
      <path d="M 8.5 21.578125 
L 8.5 54.6875 
L 17.484375 54.6875 
L 17.484375 21.921875 
Q 17.484375 14.15625 20.5 10.265625 
Q 23.53125 6.390625 29.59375 6.390625 
Q 36.859375 6.390625 41.078125 11.03125 
Q 45.3125 15.671875 45.3125 23.6875 
L 45.3125 54.6875 
L 54.296875 54.6875 
L 54.296875 0 
L 45.3125 0 
L 45.3125 8.40625 
Q 42.046875 3.421875 37.71875 1 
Q 33.40625 -1.421875 27.6875 -1.421875 
Q 18.265625 -1.421875 13.375 4.4375 
Q 8.5 10.296875 8.5 21.578125 
z
M 31.109375 56 
z
" id="DejaVuSans-117"/>
      <path d="M 2.984375 54.6875 
L 12.5 54.6875 
L 29.59375 8.796875 
L 46.6875 54.6875 
L 56.203125 54.6875 
L 35.6875 0 
L 23.484375 0 
z
" id="DejaVuSans-118"/>
      <path d="M 9.421875 75.984375 
L 18.40625 75.984375 
L 18.40625 0 
L 9.421875 0 
z
" id="DejaVuSans-108"/>
     </defs>
     <g transform="translate(77.603125 53.594687)scale(0.1 -0.1)">
      <use xlink:href="#DejaVuSans-84"/>
      <use x="46.333984" xlink:href="#DejaVuSans-114"/>
      <use x="87.447266" xlink:href="#DejaVuSans-117"/>
      <use x="150.826172" xlink:href="#DejaVuSans-101"/>
      <use x="212.349609" xlink:href="#DejaVuSans-32"/>
      <use x="244.136719" xlink:href="#DejaVuSans-118"/>
      <use x="303.316406" xlink:href="#DejaVuSans-97"/>
      <use x="364.595703" xlink:href="#DejaVuSans-108"/>
      <use x="392.378906" xlink:href="#DejaVuSans-117"/>
      <use x="455.757812" xlink:href="#DejaVuSans-101"/>
     </g>
    </g>
   </g>
  </g>
 </g>
 <defs>
  <clipPath id="pd9182d1615">
   <rect height="266.112" width="357.12" x="40.603125" y="22.318125"/>
  </clipPath>
 </defs>
</svg>
