<?xml version="1.0" encoding="utf-8" standalone="no"?>
<!DOCTYPE svg PUBLIC "-//W3C//DTD SVG 1.1//EN"
  "http://www.w3.org/Graphics/SVG/1.1/DTD/svg11.dtd">
<!-- Created with matplotlib (https://matplotlib.org/) -->
<svg height="325.986375pt" version="1.1" viewBox="0 0 417.648125 325.986375" width="417.648125pt" xmlns="http://www.w3.org/2000/svg" xmlns:xlink="http://www.w3.org/1999/xlink">
 <defs>
  <style type="text/css">
*{stroke-linecap:butt;stroke-linejoin:round;}
  </style>
 </defs>
 <g id="figure_1">
  <g id="patch_1">
   <path d="M 0 325.986375 
L 417.648125 325.986375 
L 417.648125 0 
L 0 0 
z
" style="fill:#ffffff;"/>
  </g>
  <g id="axes_1">
   <g id="patch_2">
    <path d="M 53.328125 288.430125 
L 410.448125 288.430125 
L 410.448125 22.318125 
L 53.328125 22.318125 
z
" style="fill:#ffffff;"/>
   </g>
   <g id="matplotlib.axis_1">
    <g id="xtick_1">
     <g id="line2d_1">
      <path clip-path="url(#pea86a5dad9)" d="M 69.560852 288.430125 
L 69.560852 22.318125 
" style="fill:none;stroke:#b0b0b0;stroke-dasharray:2.96,1.28;stroke-dashoffset:0;stroke-width:0.8;"/>
     </g>
     <g id="line2d_2">
      <defs>
       <path d="M 0 0 
L 0 3.5 
" id="m15727f6480" style="stroke:#000000;stroke-width:0.8;"/>
      </defs>
      <g>
       <use style="stroke:#000000;stroke-width:0.8;" x="69.560852" xlink:href="#m15727f6480" y="288.430125"/>
      </g>
     </g>
     <g id="text_1">
      <!-- 0 -->
      <defs>
       <path d="M 31.78125 66.40625 
Q 24.171875 66.40625 20.328125 58.90625 
Q 16.5 51.421875 16.5 36.375 
Q 16.5 21.390625 20.328125 13.890625 
Q 24.171875 6.390625 31.78125 6.390625 
Q 39.453125 6.390625 43.28125 13.890625 
Q 47.125 21.390625 47.125 36.375 
Q 47.125 51.421875 43.28125 58.90625 
Q 39.453125 66.40625 31.78125 66.40625 
z
M 31.78125 74.21875 
Q 44.046875 74.21875 50.515625 64.515625 
Q 56.984375 54.828125 56.984375 36.375 
Q 56.984375 17.96875 50.515625 8.265625 
Q 44.046875 -1.421875 31.78125 -1.421875 
Q 19.53125 -1.421875 13.0625 8.265625 
Q 6.59375 17.96875 6.59375 36.375 
Q 6.59375 54.828125 13.0625 64.515625 
Q 19.53125 74.21875 31.78125 74.21875 
z
" id="DejaVuSans-48"/>
      </defs>
      <g transform="translate(66.379602 303.028562)scale(0.1 -0.1)">
       <use xlink:href="#DejaVuSans-48"/>
      </g>
     </g>
    </g>
    <g id="xtick_2">
     <g id="line2d_3">
      <path clip-path="url(#pea86a5dad9)" d="M 118.491454 288.430125 
L 118.491454 22.318125 
" style="fill:none;stroke:#b0b0b0;stroke-dasharray:2.96,1.28;stroke-dashoffset:0;stroke-width:0.8;"/>
     </g>
     <g id="line2d_4">
      <g>
       <use style="stroke:#000000;stroke-width:0.8;" x="118.491454" xlink:href="#m15727f6480" y="288.430125"/>
      </g>
     </g>
     <g id="text_2">
      <!-- 200 -->
      <defs>
       <path d="M 19.1875 8.296875 
L 53.609375 8.296875 
L 53.609375 0 
L 7.328125 0 
L 7.328125 8.296875 
Q 12.9375 14.109375 22.625 23.890625 
Q 32.328125 33.6875 34.8125 36.53125 
Q 39.546875 41.84375 41.421875 45.53125 
Q 43.3125 49.21875 43.3125 52.78125 
Q 43.3125 58.59375 39.234375 62.25 
Q 35.15625 65.921875 28.609375 65.921875 
Q 23.96875 65.921875 18.8125 64.3125 
Q 13.671875 62.703125 7.8125 59.421875 
L 7.8125 69.390625 
Q 13.765625 71.78125 18.9375 73 
Q 24.125 74.21875 28.421875 74.21875 
Q 39.75 74.21875 46.484375 68.546875 
Q 53.21875 62.890625 53.21875 53.421875 
Q 53.21875 48.921875 51.53125 44.890625 
Q 49.859375 40.875 45.40625 35.40625 
Q 44.1875 33.984375 37.640625 27.21875 
Q 31.109375 20.453125 19.1875 8.296875 
z
" id="DejaVuSans-50"/>
      </defs>
      <g transform="translate(108.947704 303.028562)scale(0.1 -0.1)">
       <use xlink:href="#DejaVuSans-50"/>
       <use x="63.623047" xlink:href="#DejaVuSans-48"/>
       <use x="127.246094" xlink:href="#DejaVuSans-48"/>
      </g>
     </g>
    </g>
    <g id="xtick_3">
     <g id="line2d_5">
      <path clip-path="url(#pea86a5dad9)" d="M 167.422057 288.430125 
L 167.422057 22.318125 
" style="fill:none;stroke:#b0b0b0;stroke-dasharray:2.96,1.28;stroke-dashoffset:0;stroke-width:0.8;"/>
     </g>
     <g id="line2d_6">
      <g>
       <use style="stroke:#000000;stroke-width:0.8;" x="167.422057" xlink:href="#m15727f6480" y="288.430125"/>
      </g>
     </g>
     <g id="text_3">
      <!-- 400 -->
      <defs>
       <path d="M 37.796875 64.3125 
L 12.890625 25.390625 
L 37.796875 25.390625 
z
M 35.203125 72.90625 
L 47.609375 72.90625 
L 47.609375 25.390625 
L 58.015625 25.390625 
L 58.015625 17.1875 
L 47.609375 17.1875 
L 47.609375 0 
L 37.796875 0 
L 37.796875 17.1875 
L 4.890625 17.1875 
L 4.890625 26.703125 
z
" id="DejaVuSans-52"/>
      </defs>
      <g transform="translate(157.878307 303.028562)scale(0.1 -0.1)">
       <use xlink:href="#DejaVuSans-52"/>
       <use x="63.623047" xlink:href="#DejaVuSans-48"/>
       <use x="127.246094" xlink:href="#DejaVuSans-48"/>
      </g>
     </g>
    </g>
    <g id="xtick_4">
     <g id="line2d_7">
      <path clip-path="url(#pea86a5dad9)" d="M 216.352659 288.430125 
L 216.352659 22.318125 
" style="fill:none;stroke:#b0b0b0;stroke-dasharray:2.96,1.28;stroke-dashoffset:0;stroke-width:0.8;"/>
     </g>
     <g id="line2d_8">
      <g>
       <use style="stroke:#000000;stroke-width:0.8;" x="216.352659" xlink:href="#m15727f6480" y="288.430125"/>
      </g>
     </g>
     <g id="text_4">
      <!-- 600 -->
      <defs>
       <path d="M 33.015625 40.375 
Q 26.375 40.375 22.484375 35.828125 
Q 18.609375 31.296875 18.609375 23.390625 
Q 18.609375 15.53125 22.484375 10.953125 
Q 26.375 6.390625 33.015625 6.390625 
Q 39.65625 6.390625 43.53125 10.953125 
Q 47.40625 15.53125 47.40625 23.390625 
Q 47.40625 31.296875 43.53125 35.828125 
Q 39.65625 40.375 33.015625 40.375 
z
M 52.59375 71.296875 
L 52.59375 62.3125 
Q 48.875 64.0625 45.09375 64.984375 
Q 41.3125 65.921875 37.59375 65.921875 
Q 27.828125 65.921875 22.671875 59.328125 
Q 17.53125 52.734375 16.796875 39.40625 
Q 19.671875 43.65625 24.015625 45.921875 
Q 28.375 48.1875 33.59375 48.1875 
Q 44.578125 48.1875 50.953125 41.515625 
Q 57.328125 34.859375 57.328125 23.390625 
Q 57.328125 12.15625 50.6875 5.359375 
Q 44.046875 -1.421875 33.015625 -1.421875 
Q 20.359375 -1.421875 13.671875 8.265625 
Q 6.984375 17.96875 6.984375 36.375 
Q 6.984375 53.65625 15.1875 63.9375 
Q 23.390625 74.21875 37.203125 74.21875 
Q 40.921875 74.21875 44.703125 73.484375 
Q 48.484375 72.75 52.59375 71.296875 
z
" id="DejaVuSans-54"/>
      </defs>
      <g transform="translate(206.808909 303.028562)scale(0.1 -0.1)">
       <use xlink:href="#DejaVuSans-54"/>
       <use x="63.623047" xlink:href="#DejaVuSans-48"/>
       <use x="127.246094" xlink:href="#DejaVuSans-48"/>
      </g>
     </g>
    </g>
    <g id="xtick_5">
     <g id="line2d_9">
      <path clip-path="url(#pea86a5dad9)" d="M 265.283261 288.430125 
L 265.283261 22.318125 
" style="fill:none;stroke:#b0b0b0;stroke-dasharray:2.96,1.28;stroke-dashoffset:0;stroke-width:0.8;"/>
     </g>
     <g id="line2d_10">
      <g>
       <use style="stroke:#000000;stroke-width:0.8;" x="265.283261" xlink:href="#m15727f6480" y="288.430125"/>
      </g>
     </g>
     <g id="text_5">
      <!-- 800 -->
      <defs>
       <path d="M 31.78125 34.625 
Q 24.75 34.625 20.71875 30.859375 
Q 16.703125 27.09375 16.703125 20.515625 
Q 16.703125 13.921875 20.71875 10.15625 
Q 24.75 6.390625 31.78125 6.390625 
Q 38.8125 6.390625 42.859375 10.171875 
Q 46.921875 13.96875 46.921875 20.515625 
Q 46.921875 27.09375 42.890625 30.859375 
Q 38.875 34.625 31.78125 34.625 
z
M 21.921875 38.8125 
Q 15.578125 40.375 12.03125 44.71875 
Q 8.5 49.078125 8.5 55.328125 
Q 8.5 64.0625 14.71875 69.140625 
Q 20.953125 74.21875 31.78125 74.21875 
Q 42.671875 74.21875 48.875 69.140625 
Q 55.078125 64.0625 55.078125 55.328125 
Q 55.078125 49.078125 51.53125 44.71875 
Q 48 40.375 41.703125 38.8125 
Q 48.828125 37.15625 52.796875 32.3125 
Q 56.78125 27.484375 56.78125 20.515625 
Q 56.78125 9.90625 50.3125 4.234375 
Q 43.84375 -1.421875 31.78125 -1.421875 
Q 19.734375 -1.421875 13.25 4.234375 
Q 6.78125 9.90625 6.78125 20.515625 
Q 6.78125 27.484375 10.78125 32.3125 
Q 14.796875 37.15625 21.921875 38.8125 
z
M 18.3125 54.390625 
Q 18.3125 48.734375 21.84375 45.5625 
Q 25.390625 42.390625 31.78125 42.390625 
Q 38.140625 42.390625 41.71875 45.5625 
Q 45.3125 48.734375 45.3125 54.390625 
Q 45.3125 60.0625 41.71875 63.234375 
Q 38.140625 66.40625 31.78125 66.40625 
Q 25.390625 66.40625 21.84375 63.234375 
Q 18.3125 60.0625 18.3125 54.390625 
z
" id="DejaVuSans-56"/>
      </defs>
      <g transform="translate(255.739511 303.028562)scale(0.1 -0.1)">
       <use xlink:href="#DejaVuSans-56"/>
       <use x="63.623047" xlink:href="#DejaVuSans-48"/>
       <use x="127.246094" xlink:href="#DejaVuSans-48"/>
      </g>
     </g>
    </g>
    <g id="xtick_6">
     <g id="line2d_11">
      <path clip-path="url(#pea86a5dad9)" d="M 314.213863 288.430125 
L 314.213863 22.318125 
" style="fill:none;stroke:#b0b0b0;stroke-dasharray:2.96,1.28;stroke-dashoffset:0;stroke-width:0.8;"/>
     </g>
     <g id="line2d_12">
      <g>
       <use style="stroke:#000000;stroke-width:0.8;" x="314.213863" xlink:href="#m15727f6480" y="288.430125"/>
      </g>
     </g>
     <g id="text_6">
      <!-- 1000 -->
      <defs>
       <path d="M 12.40625 8.296875 
L 28.515625 8.296875 
L 28.515625 63.921875 
L 10.984375 60.40625 
L 10.984375 69.390625 
L 28.421875 72.90625 
L 38.28125 72.90625 
L 38.28125 8.296875 
L 54.390625 8.296875 
L 54.390625 0 
L 12.40625 0 
z
" id="DejaVuSans-49"/>
      </defs>
      <g transform="translate(301.488863 303.028562)scale(0.1 -0.1)">
       <use xlink:href="#DejaVuSans-49"/>
       <use x="63.623047" xlink:href="#DejaVuSans-48"/>
       <use x="127.246094" xlink:href="#DejaVuSans-48"/>
       <use x="190.869141" xlink:href="#DejaVuSans-48"/>
      </g>
     </g>
    </g>
    <g id="xtick_7">
     <g id="line2d_13">
      <path clip-path="url(#pea86a5dad9)" d="M 363.144465 288.430125 
L 363.144465 22.318125 
" style="fill:none;stroke:#b0b0b0;stroke-dasharray:2.96,1.28;stroke-dashoffset:0;stroke-width:0.8;"/>
     </g>
     <g id="line2d_14">
      <g>
       <use style="stroke:#000000;stroke-width:0.8;" x="363.144465" xlink:href="#m15727f6480" y="288.430125"/>
      </g>
     </g>
     <g id="text_7">
      <!-- 1200 -->
      <g transform="translate(350.419465 303.028562)scale(0.1 -0.1)">
       <use xlink:href="#DejaVuSans-49"/>
       <use x="63.623047" xlink:href="#DejaVuSans-50"/>
       <use x="127.246094" xlink:href="#DejaVuSans-48"/>
       <use x="190.869141" xlink:href="#DejaVuSans-48"/>
      </g>
     </g>
    </g>
    <g id="text_8">
     <!-- Day -->
     <defs>
      <path d="M 19.671875 64.796875 
L 19.671875 8.109375 
L 31.59375 8.109375 
Q 46.6875 8.109375 53.6875 14.9375 
Q 60.6875 21.78125 60.6875 36.53125 
Q 60.6875 51.171875 53.6875 57.984375 
Q 46.6875 64.796875 31.59375 64.796875 
z
M 9.8125 72.90625 
L 30.078125 72.90625 
Q 51.265625 72.90625 61.171875 64.09375 
Q 71.09375 55.28125 71.09375 36.53125 
Q 71.09375 17.671875 61.125 8.828125 
Q 51.171875 0 30.078125 0 
L 9.8125 0 
z
" id="DejaVuSans-68"/>
      <path d="M 34.28125 27.484375 
Q 23.390625 27.484375 19.1875 25 
Q 14.984375 22.515625 14.984375 16.5 
Q 14.984375 11.71875 18.140625 8.90625 
Q 21.296875 6.109375 26.703125 6.109375 
Q 34.1875 6.109375 38.703125 11.40625 
Q 43.21875 16.703125 43.21875 25.484375 
L 43.21875 27.484375 
z
M 52.203125 31.203125 
L 52.203125 0 
L 43.21875 0 
L 43.21875 8.296875 
Q 40.140625 3.328125 35.546875 0.953125 
Q 30.953125 -1.421875 24.3125 -1.421875 
Q 15.921875 -1.421875 10.953125 3.296875 
Q 6 8.015625 6 15.921875 
Q 6 25.140625 12.171875 29.828125 
Q 18.359375 34.515625 30.609375 34.515625 
L 43.21875 34.515625 
L 43.21875 35.40625 
Q 43.21875 41.609375 39.140625 45 
Q 35.0625 48.390625 27.6875 48.390625 
Q 23 48.390625 18.546875 47.265625 
Q 14.109375 46.140625 10.015625 43.890625 
L 10.015625 52.203125 
Q 14.9375 54.109375 19.578125 55.046875 
Q 24.21875 56 28.609375 56 
Q 40.484375 56 46.34375 49.84375 
Q 52.203125 43.703125 52.203125 31.203125 
z
" id="DejaVuSans-97"/>
      <path d="M 32.171875 -5.078125 
Q 28.375 -14.84375 24.75 -17.8125 
Q 21.140625 -20.796875 15.09375 -20.796875 
L 7.90625 -20.796875 
L 7.90625 -13.28125 
L 13.1875 -13.28125 
Q 16.890625 -13.28125 18.9375 -11.515625 
Q 21 -9.765625 23.484375 -3.21875 
L 25.09375 0.875 
L 2.984375 54.6875 
L 12.5 54.6875 
L 29.59375 11.921875 
L 46.6875 54.6875 
L 56.203125 54.6875 
z
" id="DejaVuSans-121"/>
     </defs>
     <g transform="translate(222.014688 316.706687)scale(0.1 -0.1)">
      <use xlink:href="#DejaVuSans-68"/>
      <use x="77.001953" xlink:href="#DejaVuSans-97"/>
      <use x="138.28125" xlink:href="#DejaVuSans-121"/>
     </g>
    </g>
   </g>
   <g id="matplotlib.axis_2">
    <g id="ytick_1">
     <g id="line2d_15">
      <path clip-path="url(#pea86a5dad9)" d="M 53.328125 281.772424 
L 410.448125 281.772424 
" style="fill:none;stroke:#b0b0b0;stroke-dasharray:2.96,1.28;stroke-dashoffset:0;stroke-width:0.8;"/>
     </g>
     <g id="line2d_16">
      <defs>
       <path d="M 0 0 
L -3.5 0 
" id="m9a8f575ae4" style="stroke:#000000;stroke-width:0.8;"/>
      </defs>
      <g>
       <use style="stroke:#000000;stroke-width:0.8;" x="53.328125" xlink:href="#m9a8f575ae4" y="281.772424"/>
      </g>
     </g>
     <g id="text_9">
      <!-- 200 -->
      <g transform="translate(27.240625 285.571643)scale(0.1 -0.1)">
       <use xlink:href="#DejaVuSans-50"/>
       <use x="63.623047" xlink:href="#DejaVuSans-48"/>
       <use x="127.246094" xlink:href="#DejaVuSans-48"/>
      </g>
     </g>
    </g>
    <g id="ytick_2">
     <g id="line2d_17">
      <path clip-path="url(#pea86a5dad9)" d="M 53.328125 228.973401 
L 410.448125 228.973401 
" style="fill:none;stroke:#b0b0b0;stroke-dasharray:2.96,1.28;stroke-dashoffset:0;stroke-width:0.8;"/>
     </g>
     <g id="line2d_18">
      <g>
       <use style="stroke:#000000;stroke-width:0.8;" x="53.328125" xlink:href="#m9a8f575ae4" y="228.973401"/>
      </g>
     </g>
     <g id="text_10">
      <!-- 400 -->
      <g transform="translate(27.240625 232.77262)scale(0.1 -0.1)">
       <use xlink:href="#DejaVuSans-52"/>
       <use x="63.623047" xlink:href="#DejaVuSans-48"/>
       <use x="127.246094" xlink:href="#DejaVuSans-48"/>
      </g>
     </g>
    </g>
    <g id="ytick_3">
     <g id="line2d_19">
      <path clip-path="url(#pea86a5dad9)" d="M 53.328125 176.174378 
L 410.448125 176.174378 
" style="fill:none;stroke:#b0b0b0;stroke-dasharray:2.96,1.28;stroke-dashoffset:0;stroke-width:0.8;"/>
     </g>
     <g id="line2d_20">
      <g>
       <use style="stroke:#000000;stroke-width:0.8;" x="53.328125" xlink:href="#m9a8f575ae4" y="176.174378"/>
      </g>
     </g>
     <g id="text_11">
      <!-- 600 -->
      <g transform="translate(27.240625 179.973597)scale(0.1 -0.1)">
       <use xlink:href="#DejaVuSans-54"/>
       <use x="63.623047" xlink:href="#DejaVuSans-48"/>
       <use x="127.246094" xlink:href="#DejaVuSans-48"/>
      </g>
     </g>
    </g>
    <g id="ytick_4">
     <g id="line2d_21">
      <path clip-path="url(#pea86a5dad9)" d="M 53.328125 123.375355 
L 410.448125 123.375355 
" style="fill:none;stroke:#b0b0b0;stroke-dasharray:2.96,1.28;stroke-dashoffset:0;stroke-width:0.8;"/>
     </g>
     <g id="line2d_22">
      <g>
       <use style="stroke:#000000;stroke-width:0.8;" x="53.328125" xlink:href="#m9a8f575ae4" y="123.375355"/>
      </g>
     </g>
     <g id="text_12">
      <!-- 800 -->
      <g transform="translate(27.240625 127.174574)scale(0.1 -0.1)">
       <use xlink:href="#DejaVuSans-56"/>
       <use x="63.623047" xlink:href="#DejaVuSans-48"/>
       <use x="127.246094" xlink:href="#DejaVuSans-48"/>
      </g>
     </g>
    </g>
    <g id="ytick_5">
     <g id="line2d_23">
      <path clip-path="url(#pea86a5dad9)" d="M 53.328125 70.576332 
L 410.448125 70.576332 
" style="fill:none;stroke:#b0b0b0;stroke-dasharray:2.96,1.28;stroke-dashoffset:0;stroke-width:0.8;"/>
     </g>
     <g id="line2d_24">
      <g>
       <use style="stroke:#000000;stroke-width:0.8;" x="53.328125" xlink:href="#m9a8f575ae4" y="70.576332"/>
      </g>
     </g>
     <g id="text_13">
      <!-- 1000 -->
      <g transform="translate(20.878125 74.375551)scale(0.1 -0.1)">
       <use xlink:href="#DejaVuSans-49"/>
       <use x="63.623047" xlink:href="#DejaVuSans-48"/>
       <use x="127.246094" xlink:href="#DejaVuSans-48"/>
       <use x="190.869141" xlink:href="#DejaVuSans-48"/>
      </g>
     </g>
    </g>
    <g id="text_14">
     <!-- Price $ -->
     <defs>
      <path d="M 19.671875 64.796875 
L 19.671875 37.40625 
L 32.078125 37.40625 
Q 38.96875 37.40625 42.71875 40.96875 
Q 46.484375 44.53125 46.484375 51.125 
Q 46.484375 57.671875 42.71875 61.234375 
Q 38.96875 64.796875 32.078125 64.796875 
z
M 9.8125 72.90625 
L 32.078125 72.90625 
Q 44.34375 72.90625 50.609375 67.359375 
Q 56.890625 61.8125 56.890625 51.125 
Q 56.890625 40.328125 50.609375 34.8125 
Q 44.34375 29.296875 32.078125 29.296875 
L 19.671875 29.296875 
L 19.671875 0 
L 9.8125 0 
z
" id="DejaVuSans-80"/>
      <path d="M 41.109375 46.296875 
Q 39.59375 47.171875 37.8125 47.578125 
Q 36.03125 48 33.890625 48 
Q 26.265625 48 22.1875 43.046875 
Q 18.109375 38.09375 18.109375 28.8125 
L 18.109375 0 
L 9.078125 0 
L 9.078125 54.6875 
L 18.109375 54.6875 
L 18.109375 46.1875 
Q 20.953125 51.171875 25.484375 53.578125 
Q 30.03125 56 36.53125 56 
Q 37.453125 56 38.578125 55.875 
Q 39.703125 55.765625 41.0625 55.515625 
z
" id="DejaVuSans-114"/>
      <path d="M 9.421875 54.6875 
L 18.40625 54.6875 
L 18.40625 0 
L 9.421875 0 
z
M 9.421875 75.984375 
L 18.40625 75.984375 
L 18.40625 64.59375 
L 9.421875 64.59375 
z
" id="DejaVuSans-105"/>
      <path d="M 48.78125 52.59375 
L 48.78125 44.1875 
Q 44.96875 46.296875 41.140625 47.34375 
Q 37.3125 48.390625 33.40625 48.390625 
Q 24.65625 48.390625 19.8125 42.84375 
Q 14.984375 37.3125 14.984375 27.296875 
Q 14.984375 17.28125 19.8125 11.734375 
Q 24.65625 6.203125 33.40625 6.203125 
Q 37.3125 6.203125 41.140625 7.25 
Q 44.96875 8.296875 48.78125 10.40625 
L 48.78125 2.09375 
Q 45.015625 0.34375 40.984375 -0.53125 
Q 36.96875 -1.421875 32.421875 -1.421875 
Q 20.0625 -1.421875 12.78125 6.34375 
Q 5.515625 14.109375 5.515625 27.296875 
Q 5.515625 40.671875 12.859375 48.328125 
Q 20.21875 56 33.015625 56 
Q 37.15625 56 41.109375 55.140625 
Q 45.0625 54.296875 48.78125 52.59375 
z
" id="DejaVuSans-99"/>
      <path d="M 56.203125 29.59375 
L 56.203125 25.203125 
L 14.890625 25.203125 
Q 15.484375 15.921875 20.484375 11.0625 
Q 25.484375 6.203125 34.421875 6.203125 
Q 39.59375 6.203125 44.453125 7.46875 
Q 49.3125 8.734375 54.109375 11.28125 
L 54.109375 2.78125 
Q 49.265625 0.734375 44.1875 -0.34375 
Q 39.109375 -1.421875 33.890625 -1.421875 
Q 20.796875 -1.421875 13.15625 6.1875 
Q 5.515625 13.8125 5.515625 26.8125 
Q 5.515625 40.234375 12.765625 48.109375 
Q 20.015625 56 32.328125 56 
Q 43.359375 56 49.78125 48.890625 
Q 56.203125 41.796875 56.203125 29.59375 
z
M 47.21875 32.234375 
Q 47.125 39.59375 43.09375 43.984375 
Q 39.0625 48.390625 32.421875 48.390625 
Q 24.90625 48.390625 20.390625 44.140625 
Q 15.875 39.890625 15.1875 32.171875 
z
" id="DejaVuSans-101"/>
      <path id="DejaVuSans-32"/>
      <path d="M 33.796875 -14.703125 
L 28.90625 -14.703125 
L 28.859375 0 
Q 23.734375 0.09375 18.609375 1.1875 
Q 13.484375 2.296875 8.296875 4.5 
L 8.296875 13.28125 
Q 13.28125 10.15625 18.375 8.5625 
Q 23.484375 6.984375 28.90625 6.9375 
L 28.90625 29.203125 
Q 18.109375 30.953125 13.203125 35.15625 
Q 8.296875 39.359375 8.296875 46.6875 
Q 8.296875 54.640625 13.625 59.21875 
Q 18.953125 63.8125 28.90625 64.5 
L 28.90625 75.984375 
L 33.796875 75.984375 
L 33.796875 64.65625 
Q 38.328125 64.453125 42.578125 63.6875 
Q 46.828125 62.9375 50.875 61.625 
L 50.875 53.078125 
Q 46.828125 55.125 42.546875 56.25 
Q 38.28125 57.375 33.796875 57.5625 
L 33.796875 36.71875 
Q 44.875 35.015625 50.09375 30.609375 
Q 55.328125 26.21875 55.328125 18.609375 
Q 55.328125 10.359375 49.78125 5.59375 
Q 44.234375 0.828125 33.796875 0.09375 
z
M 28.90625 37.59375 
L 28.90625 57.625 
Q 23.25 56.984375 20.265625 54.390625 
Q 17.28125 51.8125 17.28125 47.515625 
Q 17.28125 43.3125 20.03125 40.96875 
Q 22.796875 38.625 28.90625 37.59375 
z
M 33.796875 28.21875 
L 33.796875 7.078125 
Q 39.984375 7.90625 43.140625 10.59375 
Q 46.296875 13.28125 46.296875 17.671875 
Q 46.296875 21.96875 43.28125 24.5 
Q 40.28125 27.046875 33.796875 28.21875 
z
" id="DejaVuSans-36"/>
     </defs>
     <g transform="translate(14.798438 172.342094)rotate(-90)scale(0.1 -0.1)">
      <use xlink:href="#DejaVuSans-80"/>
      <use x="58.552734" xlink:href="#DejaVuSans-114"/>
      <use x="99.666016" xlink:href="#DejaVuSans-105"/>
      <use x="127.449219" xlink:href="#DejaVuSans-99"/>
      <use x="182.429688" xlink:href="#DejaVuSans-101"/>
      <use x="243.953125" xlink:href="#DejaVuSans-32"/>
      <use x="275.740234" xlink:href="#DejaVuSans-36"/>
     </g>
    </g>
   </g>
   <g id="line2d_25">
    <path clip-path="url(#pea86a5dad9)" d="M 69.560852 266.915311 
L 70.050158 258.476435 
L 70.784117 252.801232 
L 71.518076 247.161866 
L 72.252035 239.449056 
L 72.985994 228.140207 
L 74.209259 205.421384 
L 75.921831 166.977442 
L 78.123708 117.776673 
L 79.591626 91.733855 
L 80.814891 74.619949 
L 81.793503 64.152698 
L 82.527462 58.726425 
L 83.750727 50.945111 
L 84.240033 48.808626 
L 86.197257 42.654369 
L 86.931216 41.333717 
L 87.420522 40.869179 
L 88.154481 39.991634 
L 88.399134 39.801211 
L 89.377746 38.526126 
L 89.867052 38.274925 
L 90.356358 38.238606 
L 90.845664 38.155527 
L 91.33497 38.241861 
L 92.068929 38.197099 
L 92.313582 38.322877 
L 94.270806 37.538432 
L 94.515459 37.667916 
L 94.760112 37.623283 
L 95.004765 37.876193 
L 95.494071 37.919827 
L 96.22803 37.296867 
L 96.472683 37.286168 
L 96.717336 37.066354 
L 97.940602 37.33934 
L 99.40852 37.656347 
L 99.653173 37.552322 
L 99.897826 37.22858 
L 100.142479 37.33238 
L 100.387132 37.841904 
L 100.631785 37.573462 
L 100.876438 37.669657 
L 101.121091 37.619739 
L 101.365744 37.699627 
L 101.610397 37.434987 
L 102.833662 37.316976 
L 103.078315 36.989946 
L 103.322968 36.912733 
L 103.567621 37.054495 
L 103.812274 36.993362 
L 104.30158 37.190199 
L 104.546233 37.224036 
L 105.035539 37.4288 
L 106.258804 36.92427 
L 107.482069 37.334378 
L 107.726722 37.291549 
L 108.216028 37.636593 
L 108.705334 37.658216 
L 108.949987 37.498956 
L 109.19464 37.475044 
L 109.439293 37.246175 
L 109.928599 37.02359 
L 110.417905 36.784732 
L 110.662558 36.956013 
L 110.907211 36.981922 
L 111.396517 37.183592 
L 111.64117 37.302635 
L 112.864435 36.862912 
L 113.109088 37.076086 
L 113.353741 37.054688 
L 114.0877 37.545425 
L 114.821659 37.220491 
L 115.066312 36.984661 
L 115.310965 37.467277 
L 115.555618 37.69924 
L 115.800271 37.549035 
L 116.044924 37.582356 
L 116.778883 37.052723 
L 117.268189 36.943025 
L 118.491454 37.002386 
L 118.736107 37.18269 
L 118.98076 37.118528 
L 119.959373 37.485227 
L 120.204026 37.503499 
L 120.448679 37.322325 
L 122.16125 37.301894 
L 122.650556 36.958623 
L 123.139862 37.350877 
L 123.384515 37.321809 
L 123.629168 37.405243 
L 124.363127 37.322454 
L 124.60778 37.486452 
L 125.341739 37.528636 
L 125.831045 37.267186 
L 126.320351 37.162291 
L 126.809657 37.168994 
L 127.788269 37.26477 
L 128.277575 37.064517 
L 130.234799 37.886795 
L 130.479452 37.758117 
L 130.724105 37.437759 
L 131.458064 37.644424 
L 131.94737 37.47398 
L 132.681329 37.545393 
L 133.170635 37.436534 
L 133.659941 37.355969 
L 134.638553 37.314559 
L 134.883206 37.169187 
L 135.127859 37.165288 
L 135.617165 36.912282 
L 136.84043 37.133964 
L 137.329736 36.796591 
L 138.308348 36.932778 
L 139.28696 37.442979 
L 140.020919 37.136542 
L 140.265572 37.095325 
L 140.510225 37.319231 
L 141.73349 37.648259 
L 141.978143 37.473529 
L 142.222797 37.441851 
L 142.46745 37.617579 
L 142.712103 37.509912 
L 143.446062 37.954147 
L 144.180021 37.221909 
L 144.424674 37.280335 
L 144.669327 37.167318 
L 144.91398 37.199673 
L 145.158633 36.750765 
L 145.403286 36.82466 
L 145.647939 36.778447 
L 146.137245 37.238699 
L 146.381898 36.602268 
L 148.094469 38.103773 
L 148.339122 38.143185 
L 148.583775 38.472051 
L 150.051693 37.236282 
L 151.030305 37.51842 
L 152.25357 37.20035 
L 152.498223 37.317137 
L 152.742876 37.670076 
L 153.232182 37.900137 
L 153.966141 37.768429 
L 154.455447 37.857437 
L 155.923365 37.188491 
L 156.168018 37.204152 
L 156.412671 37.407337 
L 156.657324 37.363574 
L 157.14663 37.778806 
L 157.635936 37.640041 
L 158.369895 37.548519 
L 158.859201 37.343949 
L 159.103854 37.397315 
L 159.348507 37.604657 
L 159.59316 37.441207 
L 160.327119 37.302248 
L 160.571772 37.076989 
L 161.061078 37.229643 
L 161.305731 37.601982 
L 161.550384 37.718028 
L 161.795037 37.418358 
L 162.03969 37.61961 
L 162.284343 36.898264 
L 162.528996 37.838778 
L 162.773649 38.240475 
L 163.262955 37.765142 
L 163.752261 36.719152 
L 164.241567 36.33128 
L 164.48622 36.667912 
L 164.975527 36.518771 
L 165.22018 36.612838 
L 165.464833 36.831781 
L 165.709486 36.806677 
L 165.954139 36.893945 
L 166.688098 36.568656 
L 168.645322 37.1242 
L 169.134628 37.333636 
L 169.868587 37.330349 
L 170.11324 37.236701 
L 171.091852 37.920246 
L 171.336505 37.721379 
L 171.581158 37.811483 
L 171.825811 37.779934 
L 173.049076 36.892237 
L 173.538382 37.231351 
L 174.027688 36.577325 
L 174.516994 36.973898 
L 175.740259 36.320098 
L 175.984912 36.402854 
L 176.229565 36.692469 
L 176.474218 36.382874 
L 176.718871 37.267412 
L 176.963524 37.656508 
L 177.208177 37.558477 
L 178.186789 36.671973 
L 178.676095 37.062229 
L 178.920748 37.16561 
L 179.165401 37.039736 
L 179.654707 36.493796 
L 180.144013 36.79904 
L 181.856584 36.784474 
L 182.34589 36.962264 
L 183.324502 37.478331 
L 183.813808 36.878896 
L 184.303114 37.022591 
L 184.547767 37.051401 
L 184.79242 37.426351 
L 185.281726 37.61687 
L 185.526379 37.717738 
L 185.771032 37.471982 
L 186.260338 37.698048 
L 186.504991 37.597954 
L 186.749644 37.633016 
L 187.238951 37.480297 
L 187.728257 37.460542 
L 187.97291 37.23625 
L 188.706869 37.166384 
L 188.951522 37.510235 
L 189.196175 37.422806 
L 189.440828 37.516358 
L 189.930134 36.801296 
L 190.41944 36.997101 
L 190.664093 37.290711 
L 191.398052 37.494508 
L 191.642705 37.657572 
L 191.887358 37.573945 
L 192.132011 38.47653 
L 192.376664 38.634856 
L 192.621317 38.466444 
L 192.86597 38.045057 
L 193.355276 37.810806 
L 193.844582 37.12768 
L 194.089235 36.883311 
L 194.333888 36.829655 
L 194.823194 36.556346 
L 195.3125 36.481002 
L 195.557153 36.383293 
L 196.291112 36.812994 
L 197.269724 37.375788 
L 197.75903 37.175407 
L 198.248336 37.408852 
L 198.492989 37.36612 
L 198.737642 37.495894 
L 199.226948 37.31994 
L 199.471601 37.390676 
L 199.716254 37.753637 
L 200.20556 37.68983 
L 200.450213 37.536241 
L 200.694866 37.618063 
L 200.939519 37.418326 
L 201.428825 37.300476 
L 201.673478 37.02749 
L 202.162784 37.15011 
L 202.407437 36.997552 
L 202.65209 37.128808 
L 203.386049 37.078536 
L 203.875355 37.17444 
L 204.364661 36.981439 
L 204.609314 37.128744 
L 204.853967 36.97899 
L 205.587926 37.35671 
L 206.077232 37.218074 
L 206.566538 37.133835 
L 206.811191 37.02011 
L 207.055844 36.714833 
L 207.54515 36.652444 
L 207.789803 37.391289 
L 208.034456 37.459543 
L 208.523762 37.157973 
L 209.257721 36.65441 
L 209.502375 36.742097 
L 209.991681 37.075442 
L 210.480987 36.934937 
L 210.72564 36.762528 
L 211.214946 36.837872 
L 211.459599 36.647771 
L 211.948905 37.038221 
L 212.438211 37.229579 
L 213.661476 37.491834 
L 213.906129 37.842194 
L 214.150782 37.8556 
L 214.395435 38.069162 
L 214.884741 37.915508 
L 215.129394 37.929559 
L 215.374047 37.587351 
L 215.6187 37.553031 
L 216.352659 37.097194 
L 216.597312 37.309886 
L 217.820577 36.700428 
L 218.06523 36.828849 
L 218.554536 36.717508 
L 219.533148 37.243371 
L 219.777801 37.487838 
L 220.51176 37.264286 
L 220.756413 37.359707 
L 221.245719 37.145791 
L 221.490372 37.255295 
L 222.224331 36.90284 
L 222.468984 36.541909 
L 222.713637 36.479552 
L 223.202943 36.894622 
L 223.447596 37.166416 
L 223.692249 37.229933 
L 223.936902 36.299892 
L 224.181555 36.074922 
L 225.160167 37.439789 
L 225.649473 38.135451 
L 226.138779 38.337379 
L 226.383432 38.249821 
L 226.872738 38.516329 
L 227.606697 38.153336 
L 227.85135 38.182597 
L 228.340656 37.895335 
L 228.585309 37.999554 
L 229.074615 37.811741 
L 229.319268 37.849445 
L 229.563921 37.668786 
L 229.808574 37.809614 
L 230.053227 37.805779 
L 230.542533 38.025625 
L 230.787186 37.691022 
L 231.521145 37.367764 
L 231.765798 37.218976 
L 232.010452 37.23654 
L 232.255105 37.084401 
L 233.47837 37.342724 
L 233.723023 37.18472 
L 234.456982 37.216946 
L 234.701635 37.077053 
L 234.946288 37.158263 
L 235.435594 36.99188 
L 236.414206 37.290808 
L 236.658859 37.248818 
L 236.903512 37.60108 
L 237.148165 37.319554 
L 237.392818 37.227452 
L 237.637471 37.273084 
L 237.882124 37.477268 
L 238.126777 36.206308 
L 238.37143 36.297862 
L 239.105389 37.805618 
L 239.594695 38.147503 
L 240.084001 38.281402 
L 240.81796 37.71516 
L 241.062613 37.738975 
L 241.307266 37.881413 
L 241.551919 37.736687 
L 242.041225 37.847963 
L 242.285878 37.89656 
L 242.530531 37.808003 
L 242.775184 37.503048 
L 243.26449 37.544072 
L 243.509143 37.361866 
L 243.753796 37.454967 
L 244.732408 37.206279 
L 245.466367 37.593636 
L 245.71102 37.552386 
L 246.200326 37.233317 
L 246.444979 37.253845 
L 246.689632 37.437114 
L 247.178938 37.363639 
L 247.423591 37.032485 
L 247.912897 37.167995 
L 248.15755 36.96871 
L 249.136162 37.651449 
L 250.359427 37.337052 
L 250.60408 37.511556 
L 250.848733 37.426512 
L 251.582692 36.622732 
L 251.827345 36.884858 
L 252.071998 36.782572 
L 252.561304 36.919887 
L 253.05061 37.455644 
L 253.295263 37.994849 
L 253.539916 37.072896 
L 253.784569 37.035192 
L 254.273875 37.780449 
L 254.518529 37.899267 
L 255.252488 38.626091 
L 255.497141 38.55861 
L 255.986447 38.883415 
L 256.2311 38.789316 
L 256.965059 38.159362 
L 257.699018 37.706878 
L 257.943671 37.664662 
L 258.432977 38.410113 
L 258.67763 39.160526 
L 258.922283 38.996206 
L 259.411589 36.671264 
L 259.656242 36.327316 
L 259.900895 36.359349 
L 260.145548 36.954143 
L 260.390201 36.769875 
L 260.879507 37.227226 
L 261.12416 36.833103 
L 261.613466 36.812575 
L 261.858119 36.708517 
L 262.347425 37.226485 
L 262.592078 37.275823 
L 262.836731 37.083627 
L 263.081384 37.144567 
L 263.326037 37.037931 
L 263.815343 37.653705 
L 264.304649 37.986889 
L 264.549302 38.463511 
L 264.793955 38.663119 
L 265.772567 36.538428 
L 266.01722 36.705939 
L 266.261873 36.727273 
L 266.506526 37.138379 
L 266.751179 37.206505 
L 266.995832 37.050692 
L 267.240485 37.143987 
L 267.485138 37.438371 
L 267.974444 37.033645 
L 268.219097 37.053947 
L 268.708403 37.923855 
L 268.953056 37.963847 
L 269.197709 37.154686 
L 269.442362 36.882827 
L 270.176321 37.312077 
L 270.91028 38.321652 
L 271.154933 38.201675 
L 271.399586 37.955662 
L 271.644239 37.96085 
L 272.133545 38.421424 
L 272.378198 38.214501 
L 272.622851 38.401605 
L 272.867504 39.159979 
L 273.35681 39.199745 
L 273.601463 38.5162 
L 274.090769 38.076638 
L 274.335422 37.711228 
L 274.580075 37.90062 
L 275.069381 37.956854 
L 275.314034 38.280145 
L 275.558687 37.957402 
L 275.80334 37.926014 
L 276.047993 38.186561 
L 276.292646 38.02411 
L 276.537299 38.044412 
L 276.781952 37.746032 
L 277.026606 37.963428 
L 277.271259 37.913382 
L 277.515912 38.473404 
L 277.760565 37.954405 
L 278.005218 37.727663 
L 278.249871 37.093489 
L 278.494524 37.039284 
L 278.98383 37.279368 
L 279.717789 37.420163 
L 279.962442 37.170605 
L 280.207095 36.662788 
L 280.451748 36.750121 
L 280.696401 37.086238 
L 280.941054 38.295098 
L 281.185707 38.554453 
L 281.43036 38.310534 
L 281.675013 38.615553 
L 281.919666 38.355006 
L 282.408972 36.954015 
L 282.653625 37.571271 
L 282.898278 37.01895 
L 283.142931 37.280012 
L 284.366196 35.482641 
L 284.610849 35.349677 
L 284.855502 36.1202 
L 285.100155 34.960033 
L 285.344808 36.192708 
L 286.078767 38.18988 
L 286.32342 37.725504 
L 286.568073 38.124268 
L 286.812726 38.089496 
L 287.057379 37.757795 
L 288.035991 35.018072 
L 288.280644 34.605998 
L 288.525297 34.989101 
L 288.76995 35.156579 
L 289.014603 34.860874 
L 289.993215 36.585607 
L 290.482521 37.280206 
L 290.727174 36.817892 
L 290.971827 36.838646 
L 291.461133 37.324033 
L 291.705786 37.821956 
L 291.950439 38.036936 
L 292.439745 38.048408 
L 292.929051 37.447942 
L 293.173704 37.272472 
L 293.418357 37.269732 
L 293.907663 37.925821 
L 294.152316 37.874453 
L 294.641622 37.267541 
L 294.886275 36.808031 
L 295.130928 36.893172 
L 295.375581 36.67932 
L 295.620234 36.664368 
L 295.864887 37.0107 
L 296.10954 37.130097 
L 296.598846 37.854698 
L 296.843499 37.542912 
L 297.088152 37.809292 
L 297.577458 37.781448 
L 297.822111 37.622703 
L 298.311417 37.199157 
L 298.800723 37.082822 
L 299.045376 37.459318 
L 299.534683 37.740844 
L 299.779336 38.167387 
L 300.023989 38.094137 
L 300.757948 38.669048 
L 301.247254 36.232443 
L 301.73656 36.930651 
L 301.981213 37.690861 
L 302.470519 37.840358 
L 302.715172 37.47253 
L 302.959825 37.372694 
L 303.204478 37.472917 
L 303.938437 38.887057 
L 304.18309 39.00133 
L 304.427743 38.963271 
L 304.672396 38.716678 
L 304.917049 38.739752 
L 305.651008 37.910288 
L 305.895661 37.94174 
L 306.140314 37.674426 
L 306.384967 37.785122 
L 306.62962 37.627247 
L 307.363579 37.955243 
L 307.852885 37.890372 
L 308.342191 38.208539 
L 308.586844 38.021983 
L 308.831497 38.036034 
L 309.07615 37.806971 
L 309.320803 37.989241 
L 309.810109 37.509429 
L 310.054762 37.572882 
L 310.299415 37.138573 
L 310.788721 37.903649 
L 311.278027 37.069674 
L 311.52268 36.988915 
L 311.767333 36.746898 
L 312.011986 36.756502 
L 312.256639 36.642099 
L 312.501292 36.849892 
L 312.990598 36.846251 
L 313.96921 38.028718 
L 314.213863 38.064908 
L 315.192475 37.578296 
L 315.926434 37.782673 
L 316.41574 37.113823 
L 316.660393 36.870936 
L 317.394352 37.488321 
L 317.883658 37.473078 
L 319.106923 37.686672 
L 319.351576 37.84677 
L 320.330188 37.797433 
L 320.574841 37.592153 
L 321.064147 37.536402 
L 321.553453 37.070963 
L 322.04276 37.196934 
L 322.532066 37.27911 
L 322.776719 36.908898 
L 323.266025 37.092554 
L 323.510678 37.881413 
L 323.755331 37.713323 
L 323.999984 37.916572 
L 324.244637 37.890888 
L 324.733943 37.191037 
L 325.223249 37.103511 
L 325.467902 36.945797 
L 325.712555 36.639392 
L 325.957208 36.695176 
L 326.201861 37.140764 
L 326.691167 36.90632 
L 327.669779 37.854891 
L 327.914432 37.82215 
L 328.403738 38.213631 
L 328.648391 38.208475 
L 328.893044 38.515814 
L 329.38235 38.439503 
L 329.627003 38.44888 
L 329.871656 38.584197 
L 330.360962 38.008996 
L 330.605615 37.997072 
L 330.850268 37.670688 
L 331.094921 36.992589 
L 331.339574 36.863685 
L 331.584227 37.198964 
L 331.82888 37.229998 
L 332.073533 38.430641 
L 332.562839 37.865816 
L 332.807492 38.069387 
L 333.052145 37.707425 
L 333.296798 37.757343 
L 333.541451 36.705875 
L 333.786104 36.180334 
L 334.030757 36.293318 
L 334.27541 37.075184 
L 334.520063 37.144116 
L 334.764716 37.62193 
L 335.254022 36.419934 
L 335.498675 35.963711 
L 335.743328 35.835516 
L 335.987981 35.4237 
L 336.232634 35.398693 
L 337.700552 37.805682 
L 337.945205 37.876225 
L 338.434511 36.872418 
L 338.679164 36.596242 
L 339.16847 36.695885 
L 339.413123 37.070447 
L 339.657776 36.828043 
L 339.902429 36.966808 
L 340.391735 37.449457 
L 341.125694 37.068384 
L 341.370347 37.177502 
L 341.615 37.413299 
L 342.104306 37.097291 
L 342.348959 37.215174 
L 342.593612 37.662245 
L 343.082918 37.5064 
L 343.572224 36.360058 
L 343.816877 36.369081 
L 344.306184 36.89401 
L 344.550837 36.822178 
L 344.79549 36.931908 
L 345.284796 37.720606 
L 345.774102 38.029041 
L 346.752714 37.413299 
L 347.24202 37.883121 
L 347.486673 38.234352 
L 347.731326 38.116083 
L 347.975979 37.758665 
L 348.220632 38.449428 
L 348.465285 38.586711 
L 348.709938 38.358358 
L 349.199244 37.688541 
L 349.68855 37.093456 
L 350.422509 37.090395 
L 350.667162 37.250816 
L 350.911815 37.119592 
L 351.401121 37.471177 
L 351.645774 37.82157 
L 351.890427 37.842871 
L 352.13508 37.980927 
L 352.379733 37.758375 
L 353.113692 37.784607 
L 353.358345 37.784961 
L 353.847651 37.495346 
L 355.070916 37.454258 
L 355.315569 37.49989 
L 355.560222 37.328931 
L 355.804875 37.674072 
L 356.538834 37.510911 
L 356.783487 37.455289 
L 357.02814 37.226904 
L 357.272793 36.724501 
L 358.251405 36.63907 
L 358.496058 36.80932 
L 358.985364 37.895464 
L 359.230017 37.813127 
L 359.719323 38.195552 
L 359.963976 38.603114 
L 360.453282 37.939259 
L 360.697935 37.964718 
L 360.942588 37.840196 
L 361.187241 37.908741 
L 361.431894 37.659376 
L 362.410506 37.322551 
L 362.655159 36.826142 
L 362.899812 36.929942 
L 363.633771 38.065327 
L 364.123077 37.761049 
L 364.612383 38.077283 
L 364.857036 37.786411 
L 365.101689 37.894078 
L 365.346342 37.673556 
L 365.590995 38.301447 
L 365.835648 38.077637 
L 366.080301 38.021596 
L 366.324954 37.714966 
L 366.814261 37.54549 
L 367.058914 37.290969 
L 367.303567 37.329866 
L 367.792873 37.754765 
L 368.037526 37.958401 
L 368.526832 37.775938 
L 368.771485 38.104063 
L 369.260791 37.964299 
L 369.750097 39.24151 
L 370.239403 38.365157 
L 370.484056 38.456292 
L 370.973362 37.132192 
L 371.218015 37.076989 
L 371.462668 36.845477 
L 371.951974 36.962135 
L 372.196627 37.276371 
L 372.44128 37.925241 
L 372.685933 37.631662 
L 373.419892 38.259327 
L 373.664545 37.615227 
L 373.909198 37.506142 
L 374.398504 36.420804 
L 374.643157 36.454093 
L 374.88781 36.264185 
L 375.377116 36.863105 
L 375.621769 36.950953 
L 375.866422 36.796204 
L 376.355728 37.104123 
L 376.600381 37.479975 
L 376.845034 37.397637 
L 377.089687 37.567984 
L 377.33434 37.404469 
L 377.578993 37.607783 
L 377.823646 38.317882 
L 378.068299 39.379856 
L 378.312952 39.172966 
L 379.536217 37.372308 
L 379.78087 37.218429 
L 380.025523 37.748868 
L 380.270176 37.421839 
L 380.514829 36.767942 
L 380.759482 36.511326 
L 381.004135 36.46302 
L 381.248788 36.911218 
L 381.738094 37.145018 
L 381.982747 36.682446 
L 382.472053 36.794625 
L 382.716706 36.94686 
L 382.961359 36.914215 
L 383.450665 36.281813 
L 383.695318 35.910409 
L 383.939971 35.988815 
L 384.184624 36.544906 
L 384.429277 36.802681 
L 384.67393 36.631239 
L 384.918583 37.107765 
L 385.407889 36.979634 
L 385.652542 36.612194 
L 386.141848 37.14882 
L 386.631154 37.905325 
L 386.875807 37.789795 
L 387.365113 37.927078 
L 387.609766 38.16874 
L 387.854419 38.059236 
L 388.343725 37.018724 
L 388.588378 36.662917 
L 388.833031 36.604266 
L 389.077684 36.700493 
L 389.322338 36.608778 
L 389.811644 36.188068 
L 390.056297 36.328186 
L 390.30095 36.728497 
L 391.524215 37.343981 
L 392.013521 38.184918 
L 392.258174 38.271541 
L 392.502827 38.658994 
L 392.992133 38.047957 
L 393.236786 38.029008 
L 393.481439 34.964254 
L 393.726092 34.414125 
L 394.215398 36.10428 
L 394.215398 36.10428 
" style="fill:none;stroke:#1f77b4;stroke-linecap:square;stroke-width:1.5;"/>
   </g>
   <g id="line2d_26">
    <path clip-path="url(#pea86a5dad9)" d="M 69.560852 272.244841 
L 69.805505 272.981387 
L 70.294811 273.638735 
L 70.539464 272.540515 
L 70.784117 272.79923 
L 71.02877 272.120763 
L 71.273423 272.696272 
L 71.518076 272.780751 
L 71.762729 273.126584 
L 72.007382 273.208423 
L 72.252035 273.010426 
L 72.741341 270.803427 
L 73.230647 271.120221 
L 73.4753 271.357817 
L 73.719953 270.394235 
L 73.964606 270.895826 
L 74.209259 269.697288 
L 74.453912 270.177759 
L 74.698566 269.59961 
L 74.943219 269.332975 
L 75.187872 269.57057 
L 75.432525 269.02938 
L 75.677178 269.132338 
L 75.921831 269.57057 
L 76.166484 268.208355 
L 76.411137 266.159753 
L 76.900443 267.075816 
L 77.145096 267.086376 
L 77.389749 265.869359 
L 77.634402 265.597444 
L 77.879055 266.460708 
L 78.123708 266.262711 
L 78.368361 265.489206 
L 78.613014 265.718881 
L 79.10232 267.302852 
L 79.591626 268.659787 
L 79.836279 266.832941 
L 80.570238 268.414272 
L 81.059544 265.80864 
L 81.304197 266.32607 
L 81.54885 266.180873 
L 82.038156 269.895284 
L 82.282809 270.09856 
L 82.527462 270.589591 
L 82.772115 270.10912 
L 83.016768 270.172479 
L 83.261421 269.235296 
L 83.506074 269.932243 
L 83.99538 272.854669 
L 84.240033 272.714752 
L 84.729339 275.721656 
L 84.973992 271.677251 
L 85.218645 273.089625 
L 85.463298 273.287621 
L 85.707951 273.213703 
L 85.952604 272.709472 
L 86.197257 271.856768 
L 86.686563 274.552158 
L 86.931216 274.826713 
L 87.420522 274.750154 
L 87.909828 276.334125 
L 88.88844 271.73269 
L 89.133093 271.244299 
L 89.377746 270.256957 
L 89.622399 270.315036 
L 90.111705 268.237395 
L 90.356358 268.031479 
L 90.601011 268.48555 
L 91.090317 267.527248 
L 91.579623 267.709405 
L 91.824276 269.161378 
L 92.068929 268.390512 
L 92.313582 268.108037 
L 92.558235 268.242675 
L 92.802888 268.786505 
L 93.292194 265.827119 
L 93.536847 266.463348 
L 93.7815 265.536725 
L 94.026153 266.745822 
L 94.270806 266.297031 
L 94.515459 268.934342 
L 94.760112 269.01882 
L 95.004765 269.845125 
L 95.494071 266.642864 
L 95.983377 266.157113 
L 96.22803 263.699319 
L 96.472683 264.248429 
L 96.717336 264.256348 
L 96.961989 264.522984 
L 97.206643 263.836596 
L 97.451296 262.57206 
L 97.695949 262.791176 
L 97.940602 263.575241 
L 98.429908 262.733097 
L 98.919214 263.791717 
L 99.163867 262.337104 
L 99.40852 259.599475 
L 99.653173 261.698236 
L 99.897826 265.840319 
L 100.142479 262.56414 
L 100.387132 264.480744 
L 100.631785 264.612742 
L 100.876438 265.937997 
L 101.121091 264.113791 
L 101.365744 265.346648 
L 101.610397 265.871999 
L 101.85505 265.417927 
L 102.099703 266.669264 
L 102.344356 266.275911 
L 102.589009 263.432684 
L 102.833662 263.493403 
L 103.078315 264.588982 
L 103.322968 263.358765 
L 103.567621 264.240509 
L 104.056927 264.501864 
L 104.30158 265.967037 
L 104.546233 266.101674 
L 104.790886 265.074733 
L 105.280192 264.417385 
L 105.524845 262.471741 
L 105.769498 261.817034 
L 106.014151 262.292225 
L 106.503457 262.186627 
L 106.74811 262.965412 
L 106.992763 262.202466 
L 107.237416 261.946391 
L 107.482069 264.417385 
L 107.971375 266.489747 
L 108.216028 266.88046 
L 108.460681 266.650784 
L 108.705334 267.677725 
L 108.949987 266.526706 
L 109.19464 266.983418 
L 109.683946 264.533543 
L 109.928599 264.219389 
L 110.173252 265.507685 
L 110.417905 265.056254 
L 110.662558 266.188793 
L 110.907211 266.175593 
L 111.151864 267.125975 
L 112.375129 262.5351 
L 112.619782 263.894675 
L 112.864435 262.675018 
L 113.109088 263.979154 
L 113.353741 266.085835 
L 113.598394 265.848239 
L 113.843047 264.995535 
L 114.0877 263.583161 
L 114.332353 263.61484 
L 114.577006 262.051989 
L 114.821659 267.302852 
L 115.066312 268.641307 
L 115.310965 267.566847 
L 115.555618 269.03994 
L 116.044924 266.447508 
L 116.289577 267.062617 
L 116.53423 266.531986 
L 117.023536 265.890478 
L 117.268189 264.974415 
L 117.512842 264.742099 
L 117.757495 263.733638 
L 118.246801 264.845058 
L 118.491454 263.319166 
L 118.736107 263.918435 
L 118.98076 263.593721 
L 119.225413 265.151292 
L 119.470066 265.457526 
L 119.71472 265.473366 
L 119.959373 264.008193 
L 120.204026 264.472824 
L 120.448679 264.129631 
L 120.693332 263.503962 
L 120.937985 264.116431 
L 121.182638 264.427945 
L 121.427291 264.039872 
L 121.671944 263.865636 
L 121.916597 261.47912 
L 122.16125 260.37034 
L 122.405903 262.03087 
L 122.650556 262.851894 
L 122.895209 261.764235 
L 123.139862 262.239426 
L 123.629168 260.188184 
L 124.118474 262.384623 
L 124.363127 262.405743 
L 124.60778 263.131729 
L 124.852433 262.741016 
L 125.097086 261.294323 
L 125.586392 261.262644 
L 125.831045 260.098425 
L 126.075698 259.668113 
L 126.320351 259.588915 
L 126.565004 259.100524 
L 126.809657 257.857107 
L 127.298963 257.397755 
L 127.788269 253.37975 
L 128.032922 253.638465 
L 128.277575 253.559266 
L 128.522228 253.078795 
L 128.766881 254.287893 
L 129.011534 253.992218 
L 129.50084 255.093078 
L 129.745493 255.652748 
L 129.990146 254.475329 
L 130.234799 252.202331 
L 130.724105 254.736685 
L 130.968758 255.050839 
L 131.213411 253.90246 
L 131.458064 254.261493 
L 131.702717 255.111558 
L 131.94737 255.174916 
L 132.192023 256.188658 
L 132.436676 256.497532 
L 132.681329 256.096259 
L 132.925982 256.246737 
L 133.415288 257.659111 
L 133.659941 258.944767 
L 133.904594 259.380359 
L 134.149247 259.182362 
L 134.3939 258.78109 
L 134.638553 259.446357 
L 134.883206 258.084143 
L 135.127859 258.010224 
L 135.617165 260.4073 
L 135.861818 260.235703 
L 136.106471 259.602115 
L 136.351124 260.3941 
L 136.84043 257.051922 
L 137.085083 256.930484 
L 137.329736 256.465853 
L 137.574389 255.449471 
L 137.819042 255.277875 
L 138.553001 255.922023 
L 138.797654 256.413054 
L 139.28696 252.197052 
L 139.531613 252.189132 
L 139.776266 251.059233 
L 140.020919 252.339609 
L 140.265572 251.642662 
L 140.510225 252.033375 
L 140.754878 250.589321 
L 140.999531 251.146351 
L 141.244184 252.036015 
L 141.488837 249.842215 
L 141.73349 249.958373 
L 141.978143 251.476345 
L 142.222797 250.346446 
L 142.712103 254.520209 
L 142.956756 255.840184 
L 143.446062 252.498006 
L 143.690715 252.548165 
L 143.935368 253.683344 
L 144.180021 252.603604 
L 144.424674 252.529685 
L 144.669327 247.735534 
L 144.91398 248.392882 
L 145.158633 246.782512 
L 145.403286 248.308404 
L 145.647939 246.86963 
L 145.892592 238.638262 
L 146.137245 240.018957 
L 146.381898 238.820419 
L 146.626551 239.248091 
L 146.871204 238.469306 
L 147.115857 239.797201 
L 147.605163 239.82624 
L 147.849816 240.541667 
L 148.094469 243.873286 
L 148.583775 241.016858 
L 148.828428 242.297235 
L 149.073081 240.531107 
L 149.317734 237.579642 
L 149.562387 237.112371 
L 149.80704 237.901716 
L 150.051693 238.22907 
L 150.296346 238.854738 
L 150.540999 237.178369 
L 151.030305 235.140327 
L 151.519611 232.481896 
L 151.764264 230.65769 
L 152.008917 231.006164 
L 152.25357 233.023086 
L 152.498223 232.679893 
L 152.742876 233.067966 
L 152.987529 232.418538 
L 153.232182 232.962367 
L 153.476835 232.199422 
L 153.721488 233.675154 
L 153.966141 233.92331 
L 154.210794 233.133964 
L 154.455447 231.885267 
L 154.7001 232.233741 
L 154.944753 230.039942 
L 155.189406 230.243218 
L 155.434059 228.392612 
L 155.678712 228.202536 
L 155.923365 229.184597 
L 156.168018 227.814463 
L 156.657324 230.723689 
L 156.901977 229.292835 
L 157.14663 229.509311 
L 157.391283 229.913224 
L 157.635936 230.65505 
L 158.125242 228.466531 
L 158.369895 228.706766 
L 158.614548 229.59115 
L 158.859201 231.354637 
L 159.103854 229.622829 
L 159.348507 230.063701 
L 159.59316 230.082181 
L 159.837813 229.076359 
L 160.082466 227.112236 
L 160.327119 227.774863 
L 160.571772 229.007721 
L 160.816425 232.246941 
L 161.061078 232.595414 
L 161.305731 230.443854 
L 161.550384 233.144524 
L 161.795037 228.178776 
L 162.03969 239.879039 
L 162.284343 243.189538 
L 162.528996 242.714347 
L 162.773649 243.11034 
L 163.262955 239.248091 
L 163.507608 239.30353 
L 163.752261 239.060655 
L 163.996914 242.371153 
L 164.241567 240.272392 
L 164.48622 240.232793 
L 164.730874 241.209575 
L 164.975527 242.864824 
L 165.22018 242.225956 
L 165.464833 243.028501 
L 166.198792 239.586005 
L 166.443445 239.498887 
L 166.688098 238.978816 
L 166.932751 239.591285 
L 167.177404 238.503625 
L 167.422057 236.267586 
L 167.911363 236.349425 
L 168.400669 237.204769 
L 168.645322 236.724298 
L 168.889975 236.494622 
L 169.623934 234.578018 
L 170.357893 239.369529 
L 170.602546 241.684766 
L 170.847199 240.92974 
L 171.091852 243.912885 
L 171.336505 245.217021 
L 171.581158 245.26454 
L 171.825811 245.77141 
L 172.070464 244.023763 
L 172.315117 244.295678 
L 173.049076 250.68436 
L 173.293729 248.226565 
L 173.538382 246.975228 
L 173.783035 250.855956 
L 174.027688 252.27625 
L 174.272341 251.172751 
L 174.516994 251.127871 
L 174.761647 249.121508 
L 175.0063 248.796794 
L 175.250953 247.223384 
L 175.495606 247.632576 
L 175.740259 248.883913 
L 175.984912 245.565494 
L 176.229565 254.361812 
L 176.474218 256.275776 
L 177.208177 253.289991 
L 177.45283 253.258312 
L 177.697483 252.719762 
L 177.942136 256.06458 
L 178.431442 258.456376 
L 178.676095 257.421515 
L 178.920748 254.617887 
L 179.165401 254.147975 
L 179.410054 256.001221 
L 179.654707 256.642729 
L 179.89936 255.980102 
L 180.144013 256.230897 
L 180.633319 254.050297 
L 180.877972 254.076697 
L 181.122625 252.141613 
L 181.611931 252.690722 
L 181.856584 251.73506 
L 182.101237 252.059774 
L 182.34589 253.039196 
L 182.590543 253.474788 
L 182.835196 253.583026 
L 183.079849 249.150548 
L 183.324502 247.540178 
L 183.569155 248.113047 
L 184.058461 246.080285 
L 184.303114 248.532799 
L 184.547767 248.437761 
L 184.79242 248.081368 
L 185.037073 248.609358 
L 185.281726 246.296761 
L 185.526379 248.245045 
L 185.771032 248.984231 
L 186.015685 248.181686 
L 186.260338 248.994791 
L 186.504991 248.128887 
L 186.994298 248.886553 
L 187.238951 248.831114 
L 187.483604 246.822111 
L 187.728257 246.700673 
L 187.97291 245.475736 
L 188.217563 246.515877 
L 188.462216 249.087189 
L 188.706869 247.460979 
L 188.951522 248.002169 
L 189.196175 243.176338 
L 189.440828 240.768703 
L 189.685481 241.001019 
L 189.930134 240.615586 
L 190.174787 241.526369 
L 190.41944 239.886959 
L 190.908746 239.31145 
L 191.153399 240.024237 
L 191.398052 239.900159 
L 191.642705 249.03439 
L 191.887358 249.984773 
L 192.132011 250.093011 
L 192.376664 249.430383 
L 192.86597 253.509107 
L 193.110623 251.769379 
L 193.355276 252.120493 
L 193.599929 251.706021 
L 193.844582 252.350169 
L 194.089235 250.937795 
L 194.578541 250.272527 
L 195.067847 246.605635 
L 195.3125 246.494757 
L 196.046459 245.927168 
L 196.291112 246.684834 
L 196.535765 247.033307 
L 196.780418 246.391799 
L 197.025071 244.329997 
L 197.269724 243.973604 
L 197.514377 244.807828 
L 197.75903 245.066544 
L 198.003683 244.1848 
L 198.248336 245.077103 
L 198.492989 243.242337 
L 198.737642 243.128819 
L 198.982295 244.19536 
L 199.226948 247.519058 
L 199.471601 247.101946 
L 199.716254 247.315782 
L 199.960907 247.138905 
L 200.20556 249.06607 
L 200.450213 248.044408 
L 200.694866 249.03703 
L 200.939519 248.773035 
L 201.184172 247.104586 
L 201.428825 248.905032 
L 201.673478 249.134708 
L 201.918131 247.925611 
L 202.162784 249.5835 
L 202.407437 249.245586 
L 202.65209 249.612539 
L 202.896743 249.448862 
L 203.141396 250.763558 
L 203.386049 250.512763 
L 203.630702 249.369664 
L 203.875355 249.512221 
L 204.120008 250.890276 
L 204.364661 249.380224 
L 204.853967 252.366008 
L 205.09862 253.670144 
L 205.343273 253.179113 
L 205.832579 254.617887 
L 206.077232 254.411971 
L 206.321885 253.733503 
L 206.566538 251.325868 
L 206.811191 251.948896 
L 207.055844 251.893457 
L 207.300497 258.78901 
L 207.54515 258.020784 
L 207.789803 256.537131 
L 208.034456 256.925204 
L 208.523762 253.931499 
L 208.768415 253.862861 
L 209.013068 254.631087 
L 209.257721 256.291616 
L 209.502375 256.259936 
L 209.747028 255.409872 
L 210.236334 252.202331 
L 210.480987 252.334329 
L 210.72564 251.022273 
L 210.970293 248.028569 
L 211.214946 249.287825 
L 211.704252 248.366482 
L 211.948905 247.310502 
L 212.438211 245.964127 
L 212.682864 246.122524 
L 212.927517 246.510597 
L 213.17217 245.172142 
L 213.416823 248.50904 
L 213.661476 248.427201 
L 213.906129 251.016993 
L 214.150782 250.903476 
L 214.640088 253.619985 
L 214.884741 252.072974 
L 215.129394 253.831181 
L 215.374047 253.429909 
L 215.6187 253.440469 
L 215.863353 253.770462 
L 216.108006 256.677049 
L 216.352659 255.668587 
L 216.597312 255.972182 
L 216.841965 255.399312 
L 217.086618 253.646385 
L 217.331271 253.712384 
L 217.575924 254.573008 
L 217.820577 252.973197 
L 218.06523 252.194412 
L 218.309883 252.653763 
L 218.554536 252.640563 
L 218.799189 253.123674 
L 219.288495 256.61633 
L 219.777801 255.251475 
L 220.022454 256.183378 
L 220.267107 257.640631 
L 220.51176 256.761527 
L 220.756413 257.1496 
L 221.001066 258.818049 
L 221.245719 257.817508 
L 221.490372 258.160701 
L 221.735025 256.098899 
L 221.979678 252.648483 
L 222.224331 252.102013 
L 222.95829 254.340692 
L 223.202943 252.26305 
L 223.447596 240.977259 
L 223.692249 238.353148 
L 223.936902 238.596023 
L 224.181555 238.279229 
L 224.426208 235.866314 
L 224.670861 235.763356 
L 224.915514 236.745417 
L 225.649473 235.00041 
L 225.894126 233.770193 
L 226.138779 235.459761 
L 226.383432 236.003591 
L 226.872738 233.287081 
L 227.117391 234.216344 
L 227.362044 234.625537 
L 227.606697 232.83565 
L 227.85135 232.986127 
L 228.096003 234.211064 
L 228.340656 232.761731 
L 228.585309 233.036286 
L 228.829962 233.535237 
L 229.074615 232.186222 
L 229.319268 234.229544 
L 229.563921 234.633457 
L 229.808574 237.022612 
L 230.053227 237.851557 
L 230.29788 235.773915 
L 230.542533 236.740138 
L 230.787186 236.008871 
L 231.031839 236.386384 
L 231.276492 235.53896 
L 231.521145 236.037911 
L 231.765798 234.651936 
L 232.010452 235.54424 
L 232.255105 235.813515 
L 232.744411 237.592842 
L 233.233717 235.681517 
L 233.723023 236.827256 
L 233.967676 236.299266 
L 234.212329 235.034729 
L 234.456982 235.729036 
L 234.701635 233.936509 
L 234.946288 233.318761 
L 235.190941 233.553717 
L 235.435594 233.630275 
L 235.680247 232.904289 
L 235.9249 233.34252 
L 236.169553 232.658773 
L 236.414206 235.425442 
L 236.658859 231.74271 
L 236.903512 231.301838 
L 237.148165 231.666151 
L 237.392818 231.615992 
L 237.637471 217.067222 
L 238.126777 221.235704 
L 238.37143 221.219865 
L 238.616083 223.223588 
L 238.860736 222.935833 
L 239.105389 222.890954 
L 239.594695 223.931095 
L 240.084001 220.079406 
L 240.328654 220.301162 
L 240.573307 220.784273 
L 240.81796 221.879853 
L 241.062613 220.451639 
L 241.307266 222.109528 
L 241.551919 222.310165 
L 241.796572 223.242067 
L 242.041225 222.674478 
L 242.285878 220.623236 
L 242.775184 222.249446 
L 243.019837 220.678675 
L 243.26449 221.959051 
L 243.753796 220.810672 
L 243.998449 220.792193 
L 244.243102 219.31382 
L 244.732408 221.858733 
L 244.977061 222.769516 
L 245.221714 222.246806 
L 245.466367 220.850272 
L 245.71102 220.269482 
L 245.955673 221.074667 
L 246.200326 222.724637 
L 246.444979 221.776894 
L 246.689632 221.631697 
L 246.934285 218.574634 
L 247.178938 219.754692 
L 247.423591 219.393019 
L 247.668244 216.832266 
L 247.912897 218.191841 
L 248.15755 218.387197 
L 248.402203 218.915187 
L 248.646856 221.090507 
L 249.136162 219.102624 
L 249.380815 219.018145 
L 249.625468 219.459017 
L 249.870121 219.279501 
L 250.114774 221.132746 
L 250.359427 219.894609 
L 251.093386 211.663242 
L 251.338039 212.81954 
L 251.582692 209.04705 
L 252.071998 205.715432 
L 252.561304 205.670552 
L 252.805957 207.278283 
L 253.05061 194.807153 
L 253.295263 194.281803 
L 253.539916 195.702097 
L 253.784569 194.918031 
L 254.029222 192.869429 
L 254.273875 193.030466 
L 254.518529 193.326141 
L 254.763182 194.152446 
L 255.007835 192.80343 
L 255.497141 196.60232 
L 255.741794 196.238007 
L 255.986447 195.324584 
L 256.2311 195.733776 
L 256.475753 194.743795 
L 256.720406 194.252764 
L 256.965059 193.275982 
L 257.209712 193.328781 
L 257.454365 193.88317 
L 257.943671 204.033783 
L 258.188324 212.244031 
L 258.432977 211.452045 
L 258.67763 202.370613 
L 258.922283 197.724299 
L 259.166936 197.819338 
L 259.411589 199.170993 
L 259.656242 203.487313 
L 259.900895 199.788741 
L 260.390201 202.837885 
L 260.634854 197.943415 
L 260.879507 198.115012 
L 261.368813 194.801874 
L 261.613466 196.929674 
L 261.858119 196.668319 
L 262.102772 195.343063 
L 262.347425 192.3124 
L 262.592078 191.945446 
L 262.836731 189.799166 
L 263.081384 192.436477 
L 263.57069 193.664055 
L 263.815343 196.172008 
L 264.059996 201.50207 
L 264.304649 203.611391 
L 264.793955 197.103911 
L 265.283261 191.042583 
L 265.527914 192.679353 
L 265.772567 191.501935 
L 266.01722 193.819812 
L 266.261873 192.066884 
L 266.506526 189.323975 
L 266.751179 189.664529 
L 266.995832 190.738989 
L 267.240485 186.090035 
L 267.485138 183.893595 
L 267.729791 183.262647 
L 267.974444 186.501867 
L 268.219097 187.850882 
L 268.46375 185.701962 
L 268.708403 176.430453 
L 268.953056 173.90138 
L 269.197709 173.267792 
L 269.442362 171.660062 
L 269.687015 169.165308 
L 269.931668 169.336905 
L 270.176321 168.690117 
L 270.420974 169.492662 
L 270.91028 161.48305 
L 271.154933 160.500988 
L 271.399586 161.525289 
L 271.644239 160.41915 
L 271.888892 156.836736 
L 272.133545 158.856299 
L 272.378198 164.994185 
L 272.622851 163.552772 
L 272.867504 164.74339 
L 273.112157 159.400128 
L 273.35681 159.999397 
L 273.601463 158.103912 
L 273.846116 155.321404 
L 274.090769 157.391126 
L 274.335422 156.284986 
L 274.580075 156.834096 
L 274.824728 159.067495 
L 275.069381 155.302924 
L 275.314034 156.108109 
L 275.558687 158.684702 
L 275.80334 156.997773 
L 276.047993 157.739599 
L 276.292646 155.759636 
L 276.537299 159.070135 
L 276.781952 159.722203 
L 277.026606 165.574974 
L 277.271259 160.886421 
L 277.515912 160.693705 
L 277.760565 156.171468 
L 278.249871 159.241731 
L 278.494524 159.144053 
L 278.739177 159.503087 
L 278.98383 159.357889 
L 279.228483 159.598125 
L 279.473136 156.321945 
L 279.717789 151.366757 
L 279.962442 152.660333 
L 280.207095 156.139789 
L 280.451748 166.409199 
L 280.696401 167.253983 
L 280.941054 167.554938 
L 281.185707 174.078257 
L 281.43036 174.313213 
L 281.675013 171.491105 
L 281.919666 171.451506 
L 282.164319 180.976449 
L 282.408972 178.022344 
L 282.653625 184.046712 
L 282.898278 182.911533 
L 283.142931 183.62696 
L 283.387584 182.768976 
L 283.632237 177.13004 
L 283.87689 177.090441 
L 284.121543 175.844384 
L 284.366196 180.569897 
L 284.610849 166.842151 
L 284.855502 179.606315 
L 285.100155 182.824415 
L 285.589461 194.371561 
L 285.834114 193.001427 
L 286.078767 202.01158 
L 286.32342 205.715432 
L 286.568073 207.307322 
L 286.812726 205.087123 
L 287.057379 201.565428 
L 287.302032 200.704804 
L 287.791338 193.571656 
L 288.035991 195.974012 
L 288.280644 193.36046 
L 288.525297 186.86618 
L 288.76995 188.597988 
L 289.259256 188.014559 
L 289.748562 187.95912 
L 289.993215 188.708866 
L 290.237868 181.707716 
L 290.482521 181.398841 
L 290.971827 182.737297 
L 291.21648 185.994996 
L 291.461133 186.665544 
L 291.950439 187.016658 
L 292.195092 184.19719 
L 292.684398 182.240986 
L 292.929051 182.966972 
L 293.173704 186.88202 
L 293.418357 188.825024 
L 293.66301 188.323433 
L 294.152316 184.19191 
L 294.396969 180.675495 
L 294.641622 181.4886 
L 294.886275 177.795308 
L 295.130928 176.520212 
L 295.375581 177.853387 
L 295.620234 176.570371 
L 296.10954 179.83335 
L 296.354193 175.625268 
L 296.598846 178.436816 
L 296.843499 177.599952 
L 297.088152 177.248838 
L 297.332805 175.337514 
L 297.577458 172.261971 
L 298.066764 169.339545 
L 298.311417 166.842151 
L 298.55607 168.808914 
L 298.800723 167.465179 
L 299.045376 167.99053 
L 299.29003 170.762478 
L 299.534683 169.257706 
L 300.268642 175.646388 
L 300.513295 160.442909 
L 300.757948 154.038388 
L 301.002601 157.346247 
L 301.247254 157.457124 
L 301.491907 160.574907 
L 301.73656 156.651939 
L 301.981213 155.120768 
L 302.225866 148.964402 
L 302.470519 146.282211 
L 302.715172 145.041434 
L 302.959825 147.156035 
L 303.204478 146.960679 
L 303.449131 151.023563 
L 303.693784 150.448054 
L 303.938437 150.165579 
L 304.18309 149.03568 
L 304.427743 150.632851 
L 304.917049 147.570507 
L 305.161702 145.838699 
L 305.406355 146.543566 
L 305.651008 143.758418 
L 305.895661 144.642802 
L 306.140314 142.319645 
L 306.384967 143.032431 
L 306.62962 142.718277 
L 306.874273 143.507623 
L 307.118926 142.742037 
L 307.363579 142.475402 
L 307.608232 145.046714 
L 307.852885 145.751581 
L 308.097538 144.679761 
L 308.342191 146.010296 
L 308.586844 145.152312 
L 308.831497 148.087938 
L 309.07615 146.076295 
L 309.320803 145.598464 
L 309.565456 146.976518 
L 309.810109 143.945854 
L 310.054762 150.049422 
L 310.299415 152.055784 
L 310.544068 147.676105 
L 310.788721 145.656543 
L 311.033374 145.651263 
L 311.278027 142.995472 
L 311.52268 142.356604 
L 311.767333 139.84601 
L 312.011986 140.120565 
L 312.501292 135.577209 
L 312.990598 138.520755 
L 313.235251 138.898268 
L 313.479904 140.41888 
L 313.724557 140.252563 
L 313.96921 139.228262 
L 314.213863 137.70501 
L 314.458516 138.045564 
L 314.703169 137.932046 
L 315.192475 140.37928 
L 315.437128 140.094166 
L 315.681781 135.886084 
L 316.171087 131.891837 
L 316.660393 135.350173 
L 317.149699 132.356469 
L 317.394352 132.203352 
L 317.639005 131.74136 
L 317.883658 131.675361 
L 318.128311 130.967855 
L 318.372964 130.619381 
L 318.86227 132.868619 
L 319.106923 132.712862 
L 319.351576 132.757741 
L 319.596229 134.645307 
L 320.085535 133.288372 
L 320.330188 134.661146 
L 320.574841 134.141076 
L 320.819494 131.559204 
L 321.064147 130.954655 
L 321.3088 131.934077 
L 322.04276 130.65106 
L 322.287413 126.313621 
L 322.532066 127.472559 
L 322.776719 127.583437 
L 323.021372 133.8982 
L 323.266025 130.901856 
L 323.510678 133.668525 
L 323.755331 133.647405 
L 324.244637 129.04597 
L 324.48929 129.948833 
L 324.733943 128.597178 
L 324.978596 126.083945 
L 325.223249 122.134578 
L 325.467902 121.857383 
L 325.712555 123.597111 
L 326.201861 115.793415 
L 326.446514 115.706297 
L 326.691167 113.525697 
L 326.93582 113.676174 
L 327.180473 114.391601 
L 327.425126 111.664532 
L 327.914432 112.966028 
L 328.159085 112.364119 
L 328.403738 115.191506 
L 328.648391 114.375762 
L 329.137697 117.314027 
L 329.38235 119.956618 
L 329.627003 118.715841 
L 329.871656 118.705281 
L 330.116309 120.650925 
L 330.360962 118.362088 
L 330.605615 113.319781 
L 330.850268 114.088007 
L 331.094921 117.411705 
L 331.339574 118.528405 
L 331.584227 129.626759 
L 331.82888 126.062825 
L 332.073533 127.227044 
L 332.318186 132.467347 
L 332.562839 132.079274 
L 332.807492 135.241935 
L 333.052145 127.353761 
L 333.296798 126.609295 
L 333.541451 130.798898 
L 333.786104 138.586754 
L 334.030757 139.476417 
L 334.27541 144.74048 
L 334.520063 138.359718 
L 334.764716 137.501734 
L 335.009369 134.885542 
L 335.254022 133.89292 
L 335.498675 128.655257 
L 335.743328 127.248163 
L 335.987981 128.623578 
L 336.232634 128.557579 
L 336.477287 132.147913 
L 336.72194 133.269892 
L 337.211246 138.25148 
L 337.455899 139.125304 
L 337.700552 134.104117 
L 338.189858 131.184331 
L 338.434511 132.000075 
L 338.679164 131.648962 
L 338.923817 133.90348 
L 339.16847 130.14947 
L 339.902429 134.523869 
L 340.391735 130.973134 
L 340.636388 131.136811 
L 341.125694 133.779403 
L 341.370347 130.925615 
L 341.615 130.732899 
L 341.859653 132.575585 
L 342.104306 136.60943 
L 342.593612 134.679626 
L 343.082918 124.433975 
L 343.327571 124.18846 
L 343.572224 124.457735 
L 343.816877 123.63407 
L 344.06153 119.774462 
L 344.306184 118.850479 
L 344.550837 120.809323 
L 344.79549 121.400672 
L 345.040143 120.988839 
L 345.284796 121.176276 
L 345.529449 118.655122 
L 345.774102 117.451305 
L 346.018755 113.734253 
L 346.263408 113.039946 
L 346.508061 113.93225 
L 346.997367 117.17675 
L 347.486673 112.82875 
L 347.731326 120.682605 
L 347.975979 121.358432 
L 348.220632 120.075416 
L 348.465285 118.172011 
L 348.709938 117.736419 
L 348.954591 116.126049 
L 349.199244 113.731613 
L 349.443897 113.768573 
L 349.68855 112.102764 
L 350.177856 111.477095 
L 350.422509 108.475471 
L 350.667162 108.694587 
L 350.911815 109.59745 
L 351.156468 111.432216 
L 351.401121 110.534633 
L 351.645774 111.485015 
L 351.890427 109.362494 
L 352.13508 110.463354 
L 352.379733 110.207279 
L 352.624386 111.070543 
L 352.869039 111.2263 
L 353.358345 109.383614 
L 353.602998 109.526171 
L 353.847651 108.963862 
L 354.092304 109.507692 
L 354.58161 109.272736 
L 354.826263 109.565771 
L 355.070916 108.335553 
L 355.315569 111.970766 
L 355.560222 110.68775 
L 355.804875 110.867266 
L 356.049528 111.334538 
L 356.294181 111.015104 
L 356.538834 108.591629 
L 356.783487 103.755238 
L 357.02814 103.221968 
L 357.272793 100.529218 
L 357.517446 99.217162 
L 357.762099 95.172757 
L 358.006752 94.525969 
L 358.251405 97.429915 
L 358.496058 98.327498 
L 358.740711 95.117318 
L 359.230017 97.971105 
L 359.47467 101.022889 
L 359.719323 96.450493 
L 359.963976 95.977942 
L 360.208629 97.18704 
L 360.453282 96.432014 
L 360.697935 97.363916 
L 360.942588 95.01964 
L 361.187241 94.964201 
L 361.431894 94.523329 
L 361.9212 90.378606 
L 362.165853 84.243359 
L 362.410506 84.583913 
L 362.899812 87.068107 
L 363.144465 87.96041 
L 363.389118 84.029523 
L 363.633771 83.031621 
L 363.878424 84.053283 
L 364.123077 84.404396 
L 364.36773 80.779743 
L 364.612383 81.672047 
L 364.857036 79.533686 
L 365.101689 85.159422 
L 365.346342 81.534769 
L 365.590995 81.178376 
L 365.835648 78.319309 
L 366.080301 78.089633 
L 366.324954 75.763836 
L 366.569607 72.32398 
L 366.814261 71.690391 
L 367.058914 71.447516 
L 367.303567 71.996626 
L 367.54822 71.645512 
L 367.792873 68.799645 
L 368.037526 67.582627 
L 368.282179 69.784347 
L 368.526832 67.917901 
L 368.771485 67.865102 
L 369.016138 76.302386 
L 369.260791 79.839921 
L 369.505444 75.647678 
L 369.750097 76.788137 
L 369.99475 80.035277 
L 370.239403 73.820832 
L 370.484056 71.851428 
L 370.728709 72.532536 
L 370.973362 69.987623 
L 371.218015 70.233138 
L 371.462668 69.58899 
L 371.707321 72.165583 
L 371.951974 76.706298 
L 372.196627 73.129165 
L 372.930586 82.809866 
L 373.175239 78.126592 
L 373.419892 79.779202 
L 373.909198 71.508235 
L 374.153851 72.125983 
L 374.398504 68.857724 
L 374.643157 70.410015 
L 374.88781 70.098501 
L 375.132463 67.925821 
L 375.377116 64.121651 
L 375.866422 62.999672 
L 376.111075 63.799577 
L 376.355728 60.293722 
L 376.600381 60.050847 
L 376.845034 56.63739 
L 377.089687 58.432557 
L 377.578993 73.802352 
L 377.823646 71.582153 
L 378.068299 71.661352 
L 378.312952 74.029388 
L 378.557605 73.855151 
L 378.802258 72.617014 
L 379.046911 73.258522 
L 379.291564 75.325604 
L 379.536217 81.949241 
L 380.025523 74.98505 
L 380.270176 75.132888 
L 380.514829 76.336705 
L 380.759482 80.985659 
L 381.004135 81.540049 
L 381.248788 82.907544 
L 381.493441 79.31457 
L 381.982747 83.1293 
L 382.2274 85.027425 
L 382.472053 84.826788 
L 382.716706 82.704268 
L 383.206012 75.697837 
L 383.450665 76.318226 
L 383.695318 79.744882 
L 383.939971 79.076975 
L 384.184624 75.996152 
L 384.429277 79.578565 
L 384.67393 76.394784 
L 384.918583 75.175127 
L 385.163236 70.68193 
L 386.141848 78.533145 
L 386.386501 77.648761 
L 386.875807 82.429713 
L 387.12046 86.471478 
L 387.365113 86.785632 
L 387.609766 83.546412 
L 388.099072 80.779743 
L 388.588378 81.901722 
L 388.833031 79.697363 
L 389.322338 73.327161 
L 389.566991 72.954928 
L 389.811644 73.955469 
L 390.30095 70.330816 
L 390.545603 69.800186 
L 391.034909 68.166057 
L 391.524215 74.111227 
L 391.768868 75.088008 
L 392.013521 79.472967 
L 392.258174 76.938614 
L 392.502827 77.72796 
L 392.74748 77.854677 
L 392.992133 43.926025 
L 393.236786 41.312473 
L 393.481439 42.782926 
L 393.726092 43.205318 
L 393.970745 45.702712 
L 394.215398 41.114477 
L 394.215398 41.114477 
" style="fill:none;stroke:#ff7f0e;stroke-linecap:square;stroke-width:1.5;"/>
   </g>
   <g id="patch_3">
    <path d="M 53.328125 288.430125 
L 53.328125 22.318125 
" style="fill:none;stroke:#000000;stroke-linecap:square;stroke-linejoin:miter;stroke-width:0.8;"/>
   </g>
   <g id="patch_4">
    <path d="M 410.448125 288.430125 
L 410.448125 22.318125 
" style="fill:none;stroke:#000000;stroke-linecap:square;stroke-linejoin:miter;stroke-width:0.8;"/>
   </g>
   <g id="patch_5">
    <path d="M 53.328125 288.430125 
L 410.448125 288.430125 
" style="fill:none;stroke:#000000;stroke-linecap:square;stroke-linejoin:miter;stroke-width:0.8;"/>
   </g>
   <g id="patch_6">
    <path d="M 53.328125 22.318125 
L 410.448125 22.318125 
" style="fill:none;stroke:#000000;stroke-linecap:square;stroke-linejoin:miter;stroke-width:0.8;"/>
   </g>
   <g id="text_15">
    <!-- Training: AMZN -->
    <defs>
     <path d="M -0.296875 72.90625 
L 61.375 72.90625 
L 61.375 64.59375 
L 35.5 64.59375 
L 35.5 0 
L 25.59375 0 
L 25.59375 64.59375 
L -0.296875 64.59375 
z
" id="DejaVuSans-84"/>
     <path d="M 54.890625 33.015625 
L 54.890625 0 
L 45.90625 0 
L 45.90625 32.71875 
Q 45.90625 40.484375 42.875 44.328125 
Q 39.84375 48.1875 33.796875 48.1875 
Q 26.515625 48.1875 22.3125 43.546875 
Q 18.109375 38.921875 18.109375 30.90625 
L 18.109375 0 
L 9.078125 0 
L 9.078125 54.6875 
L 18.109375 54.6875 
L 18.109375 46.1875 
Q 21.34375 51.125 25.703125 53.5625 
Q 30.078125 56 35.796875 56 
Q 45.21875 56 50.046875 50.171875 
Q 54.890625 44.34375 54.890625 33.015625 
z
" id="DejaVuSans-110"/>
     <path d="M 45.40625 27.984375 
Q 45.40625 37.75 41.375 43.109375 
Q 37.359375 48.484375 30.078125 48.484375 
Q 22.859375 48.484375 18.828125 43.109375 
Q 14.796875 37.75 14.796875 27.984375 
Q 14.796875 18.265625 18.828125 12.890625 
Q 22.859375 7.515625 30.078125 7.515625 
Q 37.359375 7.515625 41.375 12.890625 
Q 45.40625 18.265625 45.40625 27.984375 
z
M 54.390625 6.78125 
Q 54.390625 -7.171875 48.1875 -13.984375 
Q 42 -20.796875 29.203125 -20.796875 
Q 24.46875 -20.796875 20.265625 -20.09375 
Q 16.0625 -19.390625 12.109375 -17.921875 
L 12.109375 -9.1875 
Q 16.0625 -11.328125 19.921875 -12.34375 
Q 23.78125 -13.375 27.78125 -13.375 
Q 36.625 -13.375 41.015625 -8.765625 
Q 45.40625 -4.15625 45.40625 5.171875 
L 45.40625 9.625 
Q 42.625 4.78125 38.28125 2.390625 
Q 33.9375 0 27.875 0 
Q 17.828125 0 11.671875 7.65625 
Q 5.515625 15.328125 5.515625 27.984375 
Q 5.515625 40.671875 11.671875 48.328125 
Q 17.828125 56 27.875 56 
Q 33.9375 56 38.28125 53.609375 
Q 42.625 51.21875 45.40625 46.390625 
L 45.40625 54.6875 
L 54.390625 54.6875 
z
" id="DejaVuSans-103"/>
     <path d="M 11.71875 12.40625 
L 22.015625 12.40625 
L 22.015625 0 
L 11.71875 0 
z
M 11.71875 51.703125 
L 22.015625 51.703125 
L 22.015625 39.3125 
L 11.71875 39.3125 
z
" id="DejaVuSans-58"/>
     <path d="M 34.1875 63.1875 
L 20.796875 26.90625 
L 47.609375 26.90625 
z
M 28.609375 72.90625 
L 39.796875 72.90625 
L 67.578125 0 
L 57.328125 0 
L 50.6875 18.703125 
L 17.828125 18.703125 
L 11.1875 0 
L 0.78125 0 
z
" id="DejaVuSans-65"/>
     <path d="M 9.8125 72.90625 
L 24.515625 72.90625 
L 43.109375 23.296875 
L 61.8125 72.90625 
L 76.515625 72.90625 
L 76.515625 0 
L 66.890625 0 
L 66.890625 64.015625 
L 48.09375 14.015625 
L 38.1875 14.015625 
L 19.390625 64.015625 
L 19.390625 0 
L 9.8125 0 
z
" id="DejaVuSans-77"/>
     <path d="M 5.609375 72.90625 
L 62.890625 72.90625 
L 62.890625 65.375 
L 16.796875 8.296875 
L 64.015625 8.296875 
L 64.015625 0 
L 4.5 0 
L 4.5 7.515625 
L 50.59375 64.59375 
L 5.609375 64.59375 
z
" id="DejaVuSans-90"/>
     <path d="M 9.8125 72.90625 
L 23.09375 72.90625 
L 55.421875 11.921875 
L 55.421875 72.90625 
L 64.984375 72.90625 
L 64.984375 0 
L 51.703125 0 
L 19.390625 60.984375 
L 19.390625 0 
L 9.8125 0 
z
" id="DejaVuSans-78"/>
    </defs>
    <g transform="translate(186.409063 16.318125)scale(0.12 -0.12)">
     <use xlink:href="#DejaVuSans-84"/>
     <use x="46.333984" xlink:href="#DejaVuSans-114"/>
     <use x="87.447266" xlink:href="#DejaVuSans-97"/>
     <use x="148.726562" xlink:href="#DejaVuSans-105"/>
     <use x="176.509766" xlink:href="#DejaVuSans-110"/>
     <use x="239.888672" xlink:href="#DejaVuSans-105"/>
     <use x="267.671875" xlink:href="#DejaVuSans-110"/>
     <use x="331.050781" xlink:href="#DejaVuSans-103"/>
     <use x="394.527344" xlink:href="#DejaVuSans-58"/>
     <use x="428.21875" xlink:href="#DejaVuSans-32"/>
     <use x="460.005859" xlink:href="#DejaVuSans-65"/>
     <use x="528.414062" xlink:href="#DejaVuSans-77"/>
     <use x="614.693359" xlink:href="#DejaVuSans-90"/>
     <use x="683.199219" xlink:href="#DejaVuSans-78"/>
    </g>
   </g>
   <g id="legend_1">
    <g id="patch_7">
     <path d="M 60.328125 59.674375 
L 144.05625 59.674375 
Q 146.05625 59.674375 146.05625 57.674375 
L 146.05625 29.318125 
Q 146.05625 27.318125 144.05625 27.318125 
L 60.328125 27.318125 
Q 58.328125 27.318125 58.328125 29.318125 
L 58.328125 57.674375 
Q 58.328125 59.674375 60.328125 59.674375 
z
" style="fill:#ffffff;opacity:0.8;stroke:#cccccc;stroke-linejoin:miter;"/>
    </g>
    <g id="line2d_27">
     <path d="M 62.328125 35.416562 
L 82.328125 35.416562 
" style="fill:none;stroke:#1f77b4;stroke-linecap:square;stroke-width:1.5;"/>
    </g>
    <g id="line2d_28"/>
    <g id="text_16">
     <!-- Predicted -->
     <defs>
      <path d="M 45.40625 46.390625 
L 45.40625 75.984375 
L 54.390625 75.984375 
L 54.390625 0 
L 45.40625 0 
L 45.40625 8.203125 
Q 42.578125 3.328125 38.25 0.953125 
Q 33.9375 -1.421875 27.875 -1.421875 
Q 17.96875 -1.421875 11.734375 6.484375 
Q 5.515625 14.40625 5.515625 27.296875 
Q 5.515625 40.1875 11.734375 48.09375 
Q 17.96875 56 27.875 56 
Q 33.9375 56 38.25 53.625 
Q 42.578125 51.265625 45.40625 46.390625 
z
M 14.796875 27.296875 
Q 14.796875 17.390625 18.875 11.75 
Q 22.953125 6.109375 30.078125 6.109375 
Q 37.203125 6.109375 41.296875 11.75 
Q 45.40625 17.390625 45.40625 27.296875 
Q 45.40625 37.203125 41.296875 42.84375 
Q 37.203125 48.484375 30.078125 48.484375 
Q 22.953125 48.484375 18.875 42.84375 
Q 14.796875 37.203125 14.796875 27.296875 
z
" id="DejaVuSans-100"/>
      <path d="M 18.3125 70.21875 
L 18.3125 54.6875 
L 36.8125 54.6875 
L 36.8125 47.703125 
L 18.3125 47.703125 
L 18.3125 18.015625 
Q 18.3125 11.328125 20.140625 9.421875 
Q 21.96875 7.515625 27.59375 7.515625 
L 36.8125 7.515625 
L 36.8125 0 
L 27.59375 0 
Q 17.1875 0 13.234375 3.875 
Q 9.28125 7.765625 9.28125 18.015625 
L 9.28125 47.703125 
L 2.6875 47.703125 
L 2.6875 54.6875 
L 9.28125 54.6875 
L 9.28125 70.21875 
z
" id="DejaVuSans-116"/>
     </defs>
     <g transform="translate(90.328125 38.916562)scale(0.1 -0.1)">
      <use xlink:href="#DejaVuSans-80"/>
      <use x="58.552734" xlink:href="#DejaVuSans-114"/>
      <use x="97.416016" xlink:href="#DejaVuSans-101"/>
      <use x="158.939453" xlink:href="#DejaVuSans-100"/>
      <use x="222.416016" xlink:href="#DejaVuSans-105"/>
      <use x="250.199219" xlink:href="#DejaVuSans-99"/>
      <use x="305.179688" xlink:href="#DejaVuSans-116"/>
      <use x="344.388672" xlink:href="#DejaVuSans-101"/>
      <use x="405.912109" xlink:href="#DejaVuSans-100"/>
     </g>
    </g>
    <g id="line2d_29">
     <path d="M 62.328125 50.094687 
L 82.328125 50.094687 
" style="fill:none;stroke:#ff7f0e;stroke-linecap:square;stroke-width:1.5;"/>
    </g>
    <g id="line2d_30"/>
    <g id="text_17">
     <!-- True value -->
     <defs>
      <path d="M 8.5 21.578125 
L 8.5 54.6875 
L 17.484375 54.6875 
L 17.484375 21.921875 
Q 17.484375 14.15625 20.5 10.265625 
Q 23.53125 6.390625 29.59375 6.390625 
Q 36.859375 6.390625 41.078125 11.03125 
Q 45.3125 15.671875 45.3125 23.6875 
L 45.3125 54.6875 
L 54.296875 54.6875 
L 54.296875 0 
L 45.3125 0 
L 45.3125 8.40625 
Q 42.046875 3.421875 37.71875 1 
Q 33.40625 -1.421875 27.6875 -1.421875 
Q 18.265625 -1.421875 13.375 4.4375 
Q 8.5 10.296875 8.5 21.578125 
z
M 31.109375 56 
z
" id="DejaVuSans-117"/>
      <path d="M 2.984375 54.6875 
L 12.5 54.6875 
L 29.59375 8.796875 
L 46.6875 54.6875 
L 56.203125 54.6875 
L 35.6875 0 
L 23.484375 0 
z
" id="DejaVuSans-118"/>
      <path d="M 9.421875 75.984375 
L 18.40625 75.984375 
L 18.40625 0 
L 9.421875 0 
z
" id="DejaVuSans-108"/>
     </defs>
     <g transform="translate(90.328125 53.594687)scale(0.1 -0.1)">
      <use xlink:href="#DejaVuSans-84"/>
      <use x="46.333984" xlink:href="#DejaVuSans-114"/>
      <use x="87.447266" xlink:href="#DejaVuSans-117"/>
      <use x="150.826172" xlink:href="#DejaVuSans-101"/>
      <use x="212.349609" xlink:href="#DejaVuSans-32"/>
      <use x="244.136719" xlink:href="#DejaVuSans-118"/>
      <use x="303.316406" xlink:href="#DejaVuSans-97"/>
      <use x="364.595703" xlink:href="#DejaVuSans-108"/>
      <use x="392.378906" xlink:href="#DejaVuSans-117"/>
      <use x="455.757812" xlink:href="#DejaVuSans-101"/>
     </g>
    </g>
   </g>
  </g>
 </g>
 <defs>
  <clipPath id="pea86a5dad9">
   <rect height="266.112" width="357.12" x="53.328125" y="22.318125"/>
  </clipPath>
 </defs>
</svg>
