<?xml version="1.0" encoding="utf-8" standalone="no"?>
<!DOCTYPE svg PUBLIC "-//W3C//DTD SVG 1.1//EN"
  "http://www.w3.org/Graphics/SVG/1.1/DTD/svg11.dtd">
<!-- Created with matplotlib (https://matplotlib.org/) -->
<svg height="325.986375pt" version="1.1" viewBox="0 0 417.648125 325.986375" width="417.648125pt" xmlns="http://www.w3.org/2000/svg" xmlns:xlink="http://www.w3.org/1999/xlink">
 <defs>
  <style type="text/css">
*{stroke-linecap:butt;stroke-linejoin:round;}
  </style>
 </defs>
 <g id="figure_1">
  <g id="patch_1">
   <path d="M 0 325.986375 
L 417.648125 325.986375 
L 417.648125 0 
L 0 0 
z
" style="fill:#ffffff;"/>
  </g>
  <g id="axes_1">
   <g id="patch_2">
    <path d="M 53.328125 288.430125 
L 410.448125 288.430125 
L 410.448125 22.318125 
L 53.328125 22.318125 
z
" style="fill:#ffffff;"/>
   </g>
   <g id="matplotlib.axis_1">
    <g id="xtick_1">
     <g id="line2d_1">
      <path clip-path="url(#pf9b902719b)" d="M 69.560852 288.430125 
L 69.560852 22.318125 
" style="fill:none;stroke:#b0b0b0;stroke-dasharray:2.96,1.28;stroke-dashoffset:0;stroke-width:0.8;"/>
     </g>
     <g id="line2d_2">
      <defs>
       <path d="M 0 0 
L 0 3.5 
" id="mb9c9b9dde7" style="stroke:#000000;stroke-width:0.8;"/>
      </defs>
      <g>
       <use style="stroke:#000000;stroke-width:0.8;" x="69.560852" xlink:href="#mb9c9b9dde7" y="288.430125"/>
      </g>
     </g>
     <g id="text_1">
      <!-- 0 -->
      <defs>
       <path d="M 31.78125 66.40625 
Q 24.171875 66.40625 20.328125 58.90625 
Q 16.5 51.421875 16.5 36.375 
Q 16.5 21.390625 20.328125 13.890625 
Q 24.171875 6.390625 31.78125 6.390625 
Q 39.453125 6.390625 43.28125 13.890625 
Q 47.125 21.390625 47.125 36.375 
Q 47.125 51.421875 43.28125 58.90625 
Q 39.453125 66.40625 31.78125 66.40625 
z
M 31.78125 74.21875 
Q 44.046875 74.21875 50.515625 64.515625 
Q 56.984375 54.828125 56.984375 36.375 
Q 56.984375 17.96875 50.515625 8.265625 
Q 44.046875 -1.421875 31.78125 -1.421875 
Q 19.53125 -1.421875 13.0625 8.265625 
Q 6.59375 17.96875 6.59375 36.375 
Q 6.59375 54.828125 13.0625 64.515625 
Q 19.53125 74.21875 31.78125 74.21875 
z
" id="DejaVuSans-48"/>
      </defs>
      <g transform="translate(66.379602 303.028562)scale(0.1 -0.1)">
       <use xlink:href="#DejaVuSans-48"/>
      </g>
     </g>
    </g>
    <g id="xtick_2">
     <g id="line2d_3">
      <path clip-path="url(#pf9b902719b)" d="M 118.491454 288.430125 
L 118.491454 22.318125 
" style="fill:none;stroke:#b0b0b0;stroke-dasharray:2.96,1.28;stroke-dashoffset:0;stroke-width:0.8;"/>
     </g>
     <g id="line2d_4">
      <g>
       <use style="stroke:#000000;stroke-width:0.8;" x="118.491454" xlink:href="#mb9c9b9dde7" y="288.430125"/>
      </g>
     </g>
     <g id="text_2">
      <!-- 200 -->
      <defs>
       <path d="M 19.1875 8.296875 
L 53.609375 8.296875 
L 53.609375 0 
L 7.328125 0 
L 7.328125 8.296875 
Q 12.9375 14.109375 22.625 23.890625 
Q 32.328125 33.6875 34.8125 36.53125 
Q 39.546875 41.84375 41.421875 45.53125 
Q 43.3125 49.21875 43.3125 52.78125 
Q 43.3125 58.59375 39.234375 62.25 
Q 35.15625 65.921875 28.609375 65.921875 
Q 23.96875 65.921875 18.8125 64.3125 
Q 13.671875 62.703125 7.8125 59.421875 
L 7.8125 69.390625 
Q 13.765625 71.78125 18.9375 73 
Q 24.125 74.21875 28.421875 74.21875 
Q 39.75 74.21875 46.484375 68.546875 
Q 53.21875 62.890625 53.21875 53.421875 
Q 53.21875 48.921875 51.53125 44.890625 
Q 49.859375 40.875 45.40625 35.40625 
Q 44.1875 33.984375 37.640625 27.21875 
Q 31.109375 20.453125 19.1875 8.296875 
z
" id="DejaVuSans-50"/>
      </defs>
      <g transform="translate(108.947704 303.028562)scale(0.1 -0.1)">
       <use xlink:href="#DejaVuSans-50"/>
       <use x="63.623047" xlink:href="#DejaVuSans-48"/>
       <use x="127.246094" xlink:href="#DejaVuSans-48"/>
      </g>
     </g>
    </g>
    <g id="xtick_3">
     <g id="line2d_5">
      <path clip-path="url(#pf9b902719b)" d="M 167.422057 288.430125 
L 167.422057 22.318125 
" style="fill:none;stroke:#b0b0b0;stroke-dasharray:2.96,1.28;stroke-dashoffset:0;stroke-width:0.8;"/>
     </g>
     <g id="line2d_6">
      <g>
       <use style="stroke:#000000;stroke-width:0.8;" x="167.422057" xlink:href="#mb9c9b9dde7" y="288.430125"/>
      </g>
     </g>
     <g id="text_3">
      <!-- 400 -->
      <defs>
       <path d="M 37.796875 64.3125 
L 12.890625 25.390625 
L 37.796875 25.390625 
z
M 35.203125 72.90625 
L 47.609375 72.90625 
L 47.609375 25.390625 
L 58.015625 25.390625 
L 58.015625 17.1875 
L 47.609375 17.1875 
L 47.609375 0 
L 37.796875 0 
L 37.796875 17.1875 
L 4.890625 17.1875 
L 4.890625 26.703125 
z
" id="DejaVuSans-52"/>
      </defs>
      <g transform="translate(157.878307 303.028562)scale(0.1 -0.1)">
       <use xlink:href="#DejaVuSans-52"/>
       <use x="63.623047" xlink:href="#DejaVuSans-48"/>
       <use x="127.246094" xlink:href="#DejaVuSans-48"/>
      </g>
     </g>
    </g>
    <g id="xtick_4">
     <g id="line2d_7">
      <path clip-path="url(#pf9b902719b)" d="M 216.352659 288.430125 
L 216.352659 22.318125 
" style="fill:none;stroke:#b0b0b0;stroke-dasharray:2.96,1.28;stroke-dashoffset:0;stroke-width:0.8;"/>
     </g>
     <g id="line2d_8">
      <g>
       <use style="stroke:#000000;stroke-width:0.8;" x="216.352659" xlink:href="#mb9c9b9dde7" y="288.430125"/>
      </g>
     </g>
     <g id="text_4">
      <!-- 600 -->
      <defs>
       <path d="M 33.015625 40.375 
Q 26.375 40.375 22.484375 35.828125 
Q 18.609375 31.296875 18.609375 23.390625 
Q 18.609375 15.53125 22.484375 10.953125 
Q 26.375 6.390625 33.015625 6.390625 
Q 39.65625 6.390625 43.53125 10.953125 
Q 47.40625 15.53125 47.40625 23.390625 
Q 47.40625 31.296875 43.53125 35.828125 
Q 39.65625 40.375 33.015625 40.375 
z
M 52.59375 71.296875 
L 52.59375 62.3125 
Q 48.875 64.0625 45.09375 64.984375 
Q 41.3125 65.921875 37.59375 65.921875 
Q 27.828125 65.921875 22.671875 59.328125 
Q 17.53125 52.734375 16.796875 39.40625 
Q 19.671875 43.65625 24.015625 45.921875 
Q 28.375 48.1875 33.59375 48.1875 
Q 44.578125 48.1875 50.953125 41.515625 
Q 57.328125 34.859375 57.328125 23.390625 
Q 57.328125 12.15625 50.6875 5.359375 
Q 44.046875 -1.421875 33.015625 -1.421875 
Q 20.359375 -1.421875 13.671875 8.265625 
Q 6.984375 17.96875 6.984375 36.375 
Q 6.984375 53.65625 15.1875 63.9375 
Q 23.390625 74.21875 37.203125 74.21875 
Q 40.921875 74.21875 44.703125 73.484375 
Q 48.484375 72.75 52.59375 71.296875 
z
" id="DejaVuSans-54"/>
      </defs>
      <g transform="translate(206.808909 303.028562)scale(0.1 -0.1)">
       <use xlink:href="#DejaVuSans-54"/>
       <use x="63.623047" xlink:href="#DejaVuSans-48"/>
       <use x="127.246094" xlink:href="#DejaVuSans-48"/>
      </g>
     </g>
    </g>
    <g id="xtick_5">
     <g id="line2d_9">
      <path clip-path="url(#pf9b902719b)" d="M 265.283261 288.430125 
L 265.283261 22.318125 
" style="fill:none;stroke:#b0b0b0;stroke-dasharray:2.96,1.28;stroke-dashoffset:0;stroke-width:0.8;"/>
     </g>
     <g id="line2d_10">
      <g>
       <use style="stroke:#000000;stroke-width:0.8;" x="265.283261" xlink:href="#mb9c9b9dde7" y="288.430125"/>
      </g>
     </g>
     <g id="text_5">
      <!-- 800 -->
      <defs>
       <path d="M 31.78125 34.625 
Q 24.75 34.625 20.71875 30.859375 
Q 16.703125 27.09375 16.703125 20.515625 
Q 16.703125 13.921875 20.71875 10.15625 
Q 24.75 6.390625 31.78125 6.390625 
Q 38.8125 6.390625 42.859375 10.171875 
Q 46.921875 13.96875 46.921875 20.515625 
Q 46.921875 27.09375 42.890625 30.859375 
Q 38.875 34.625 31.78125 34.625 
z
M 21.921875 38.8125 
Q 15.578125 40.375 12.03125 44.71875 
Q 8.5 49.078125 8.5 55.328125 
Q 8.5 64.0625 14.71875 69.140625 
Q 20.953125 74.21875 31.78125 74.21875 
Q 42.671875 74.21875 48.875 69.140625 
Q 55.078125 64.0625 55.078125 55.328125 
Q 55.078125 49.078125 51.53125 44.71875 
Q 48 40.375 41.703125 38.8125 
Q 48.828125 37.15625 52.796875 32.3125 
Q 56.78125 27.484375 56.78125 20.515625 
Q 56.78125 9.90625 50.3125 4.234375 
Q 43.84375 -1.421875 31.78125 -1.421875 
Q 19.734375 -1.421875 13.25 4.234375 
Q 6.78125 9.90625 6.78125 20.515625 
Q 6.78125 27.484375 10.78125 32.3125 
Q 14.796875 37.15625 21.921875 38.8125 
z
M 18.3125 54.390625 
Q 18.3125 48.734375 21.84375 45.5625 
Q 25.390625 42.390625 31.78125 42.390625 
Q 38.140625 42.390625 41.71875 45.5625 
Q 45.3125 48.734375 45.3125 54.390625 
Q 45.3125 60.0625 41.71875 63.234375 
Q 38.140625 66.40625 31.78125 66.40625 
Q 25.390625 66.40625 21.84375 63.234375 
Q 18.3125 60.0625 18.3125 54.390625 
z
" id="DejaVuSans-56"/>
      </defs>
      <g transform="translate(255.739511 303.028562)scale(0.1 -0.1)">
       <use xlink:href="#DejaVuSans-56"/>
       <use x="63.623047" xlink:href="#DejaVuSans-48"/>
       <use x="127.246094" xlink:href="#DejaVuSans-48"/>
      </g>
     </g>
    </g>
    <g id="xtick_6">
     <g id="line2d_11">
      <path clip-path="url(#pf9b902719b)" d="M 314.213863 288.430125 
L 314.213863 22.318125 
" style="fill:none;stroke:#b0b0b0;stroke-dasharray:2.96,1.28;stroke-dashoffset:0;stroke-width:0.8;"/>
     </g>
     <g id="line2d_12">
      <g>
       <use style="stroke:#000000;stroke-width:0.8;" x="314.213863" xlink:href="#mb9c9b9dde7" y="288.430125"/>
      </g>
     </g>
     <g id="text_6">
      <!-- 1000 -->
      <defs>
       <path d="M 12.40625 8.296875 
L 28.515625 8.296875 
L 28.515625 63.921875 
L 10.984375 60.40625 
L 10.984375 69.390625 
L 28.421875 72.90625 
L 38.28125 72.90625 
L 38.28125 8.296875 
L 54.390625 8.296875 
L 54.390625 0 
L 12.40625 0 
z
" id="DejaVuSans-49"/>
      </defs>
      <g transform="translate(301.488863 303.028562)scale(0.1 -0.1)">
       <use xlink:href="#DejaVuSans-49"/>
       <use x="63.623047" xlink:href="#DejaVuSans-48"/>
       <use x="127.246094" xlink:href="#DejaVuSans-48"/>
       <use x="190.869141" xlink:href="#DejaVuSans-48"/>
      </g>
     </g>
    </g>
    <g id="xtick_7">
     <g id="line2d_13">
      <path clip-path="url(#pf9b902719b)" d="M 363.144465 288.430125 
L 363.144465 22.318125 
" style="fill:none;stroke:#b0b0b0;stroke-dasharray:2.96,1.28;stroke-dashoffset:0;stroke-width:0.8;"/>
     </g>
     <g id="line2d_14">
      <g>
       <use style="stroke:#000000;stroke-width:0.8;" x="363.144465" xlink:href="#mb9c9b9dde7" y="288.430125"/>
      </g>
     </g>
     <g id="text_7">
      <!-- 1200 -->
      <g transform="translate(350.419465 303.028562)scale(0.1 -0.1)">
       <use xlink:href="#DejaVuSans-49"/>
       <use x="63.623047" xlink:href="#DejaVuSans-50"/>
       <use x="127.246094" xlink:href="#DejaVuSans-48"/>
       <use x="190.869141" xlink:href="#DejaVuSans-48"/>
      </g>
     </g>
    </g>
    <g id="text_8">
     <!-- Day -->
     <defs>
      <path d="M 19.671875 64.796875 
L 19.671875 8.109375 
L 31.59375 8.109375 
Q 46.6875 8.109375 53.6875 14.9375 
Q 60.6875 21.78125 60.6875 36.53125 
Q 60.6875 51.171875 53.6875 57.984375 
Q 46.6875 64.796875 31.59375 64.796875 
z
M 9.8125 72.90625 
L 30.078125 72.90625 
Q 51.265625 72.90625 61.171875 64.09375 
Q 71.09375 55.28125 71.09375 36.53125 
Q 71.09375 17.671875 61.125 8.828125 
Q 51.171875 0 30.078125 0 
L 9.8125 0 
z
" id="DejaVuSans-68"/>
      <path d="M 34.28125 27.484375 
Q 23.390625 27.484375 19.1875 25 
Q 14.984375 22.515625 14.984375 16.5 
Q 14.984375 11.71875 18.140625 8.90625 
Q 21.296875 6.109375 26.703125 6.109375 
Q 34.1875 6.109375 38.703125 11.40625 
Q 43.21875 16.703125 43.21875 25.484375 
L 43.21875 27.484375 
z
M 52.203125 31.203125 
L 52.203125 0 
L 43.21875 0 
L 43.21875 8.296875 
Q 40.140625 3.328125 35.546875 0.953125 
Q 30.953125 -1.421875 24.3125 -1.421875 
Q 15.921875 -1.421875 10.953125 3.296875 
Q 6 8.015625 6 15.921875 
Q 6 25.140625 12.171875 29.828125 
Q 18.359375 34.515625 30.609375 34.515625 
L 43.21875 34.515625 
L 43.21875 35.40625 
Q 43.21875 41.609375 39.140625 45 
Q 35.0625 48.390625 27.6875 48.390625 
Q 23 48.390625 18.546875 47.265625 
Q 14.109375 46.140625 10.015625 43.890625 
L 10.015625 52.203125 
Q 14.9375 54.109375 19.578125 55.046875 
Q 24.21875 56 28.609375 56 
Q 40.484375 56 46.34375 49.84375 
Q 52.203125 43.703125 52.203125 31.203125 
z
" id="DejaVuSans-97"/>
      <path d="M 32.171875 -5.078125 
Q 28.375 -14.84375 24.75 -17.8125 
Q 21.140625 -20.796875 15.09375 -20.796875 
L 7.90625 -20.796875 
L 7.90625 -13.28125 
L 13.1875 -13.28125 
Q 16.890625 -13.28125 18.9375 -11.515625 
Q 21 -9.765625 23.484375 -3.21875 
L 25.09375 0.875 
L 2.984375 54.6875 
L 12.5 54.6875 
L 29.59375 11.921875 
L 46.6875 54.6875 
L 56.203125 54.6875 
z
" id="DejaVuSans-121"/>
     </defs>
     <g transform="translate(222.014688 316.706687)scale(0.1 -0.1)">
      <use xlink:href="#DejaVuSans-68"/>
      <use x="77.001953" xlink:href="#DejaVuSans-97"/>
      <use x="138.28125" xlink:href="#DejaVuSans-121"/>
     </g>
    </g>
   </g>
   <g id="matplotlib.axis_2">
    <g id="ytick_1">
     <g id="line2d_15">
      <path clip-path="url(#pf9b902719b)" d="M 53.328125 282.141688 
L 410.448125 282.141688 
" style="fill:none;stroke:#b0b0b0;stroke-dasharray:2.96,1.28;stroke-dashoffset:0;stroke-width:0.8;"/>
     </g>
     <g id="line2d_16">
      <defs>
       <path d="M 0 0 
L -3.5 0 
" id="md8a6c4e78c" style="stroke:#000000;stroke-width:0.8;"/>
      </defs>
      <g>
       <use style="stroke:#000000;stroke-width:0.8;" x="53.328125" xlink:href="#md8a6c4e78c" y="282.141688"/>
      </g>
     </g>
     <g id="text_9">
      <!-- 200 -->
      <g transform="translate(27.240625 285.940906)scale(0.1 -0.1)">
       <use xlink:href="#DejaVuSans-50"/>
       <use x="63.623047" xlink:href="#DejaVuSans-48"/>
       <use x="127.246094" xlink:href="#DejaVuSans-48"/>
      </g>
     </g>
    </g>
    <g id="ytick_2">
     <g id="line2d_17">
      <path clip-path="url(#pf9b902719b)" d="M 53.328125 227.636173 
L 410.448125 227.636173 
" style="fill:none;stroke:#b0b0b0;stroke-dasharray:2.96,1.28;stroke-dashoffset:0;stroke-width:0.8;"/>
     </g>
     <g id="line2d_18">
      <g>
       <use style="stroke:#000000;stroke-width:0.8;" x="53.328125" xlink:href="#md8a6c4e78c" y="227.636173"/>
      </g>
     </g>
     <g id="text_10">
      <!-- 400 -->
      <g transform="translate(27.240625 231.435392)scale(0.1 -0.1)">
       <use xlink:href="#DejaVuSans-52"/>
       <use x="63.623047" xlink:href="#DejaVuSans-48"/>
       <use x="127.246094" xlink:href="#DejaVuSans-48"/>
      </g>
     </g>
    </g>
    <g id="ytick_3">
     <g id="line2d_19">
      <path clip-path="url(#pf9b902719b)" d="M 53.328125 173.130659 
L 410.448125 173.130659 
" style="fill:none;stroke:#b0b0b0;stroke-dasharray:2.96,1.28;stroke-dashoffset:0;stroke-width:0.8;"/>
     </g>
     <g id="line2d_20">
      <g>
       <use style="stroke:#000000;stroke-width:0.8;" x="53.328125" xlink:href="#md8a6c4e78c" y="173.130659"/>
      </g>
     </g>
     <g id="text_11">
      <!-- 600 -->
      <g transform="translate(27.240625 176.929878)scale(0.1 -0.1)">
       <use xlink:href="#DejaVuSans-54"/>
       <use x="63.623047" xlink:href="#DejaVuSans-48"/>
       <use x="127.246094" xlink:href="#DejaVuSans-48"/>
      </g>
     </g>
    </g>
    <g id="ytick_4">
     <g id="line2d_21">
      <path clip-path="url(#pf9b902719b)" d="M 53.328125 118.625145 
L 410.448125 118.625145 
" style="fill:none;stroke:#b0b0b0;stroke-dasharray:2.96,1.28;stroke-dashoffset:0;stroke-width:0.8;"/>
     </g>
     <g id="line2d_22">
      <g>
       <use style="stroke:#000000;stroke-width:0.8;" x="53.328125" xlink:href="#md8a6c4e78c" y="118.625145"/>
      </g>
     </g>
     <g id="text_12">
      <!-- 800 -->
      <g transform="translate(27.240625 122.424363)scale(0.1 -0.1)">
       <use xlink:href="#DejaVuSans-56"/>
       <use x="63.623047" xlink:href="#DejaVuSans-48"/>
       <use x="127.246094" xlink:href="#DejaVuSans-48"/>
      </g>
     </g>
    </g>
    <g id="ytick_5">
     <g id="line2d_23">
      <path clip-path="url(#pf9b902719b)" d="M 53.328125 64.11963 
L 410.448125 64.11963 
" style="fill:none;stroke:#b0b0b0;stroke-dasharray:2.96,1.28;stroke-dashoffset:0;stroke-width:0.8;"/>
     </g>
     <g id="line2d_24">
      <g>
       <use style="stroke:#000000;stroke-width:0.8;" x="53.328125" xlink:href="#md8a6c4e78c" y="64.11963"/>
      </g>
     </g>
     <g id="text_13">
      <!-- 1000 -->
      <g transform="translate(20.878125 67.918849)scale(0.1 -0.1)">
       <use xlink:href="#DejaVuSans-49"/>
       <use x="63.623047" xlink:href="#DejaVuSans-48"/>
       <use x="127.246094" xlink:href="#DejaVuSans-48"/>
       <use x="190.869141" xlink:href="#DejaVuSans-48"/>
      </g>
     </g>
    </g>
    <g id="text_14">
     <!-- Price $ -->
     <defs>
      <path d="M 19.671875 64.796875 
L 19.671875 37.40625 
L 32.078125 37.40625 
Q 38.96875 37.40625 42.71875 40.96875 
Q 46.484375 44.53125 46.484375 51.125 
Q 46.484375 57.671875 42.71875 61.234375 
Q 38.96875 64.796875 32.078125 64.796875 
z
M 9.8125 72.90625 
L 32.078125 72.90625 
Q 44.34375 72.90625 50.609375 67.359375 
Q 56.890625 61.8125 56.890625 51.125 
Q 56.890625 40.328125 50.609375 34.8125 
Q 44.34375 29.296875 32.078125 29.296875 
L 19.671875 29.296875 
L 19.671875 0 
L 9.8125 0 
z
" id="DejaVuSans-80"/>
      <path d="M 41.109375 46.296875 
Q 39.59375 47.171875 37.8125 47.578125 
Q 36.03125 48 33.890625 48 
Q 26.265625 48 22.1875 43.046875 
Q 18.109375 38.09375 18.109375 28.8125 
L 18.109375 0 
L 9.078125 0 
L 9.078125 54.6875 
L 18.109375 54.6875 
L 18.109375 46.1875 
Q 20.953125 51.171875 25.484375 53.578125 
Q 30.03125 56 36.53125 56 
Q 37.453125 56 38.578125 55.875 
Q 39.703125 55.765625 41.0625 55.515625 
z
" id="DejaVuSans-114"/>
      <path d="M 9.421875 54.6875 
L 18.40625 54.6875 
L 18.40625 0 
L 9.421875 0 
z
M 9.421875 75.984375 
L 18.40625 75.984375 
L 18.40625 64.59375 
L 9.421875 64.59375 
z
" id="DejaVuSans-105"/>
      <path d="M 48.78125 52.59375 
L 48.78125 44.1875 
Q 44.96875 46.296875 41.140625 47.34375 
Q 37.3125 48.390625 33.40625 48.390625 
Q 24.65625 48.390625 19.8125 42.84375 
Q 14.984375 37.3125 14.984375 27.296875 
Q 14.984375 17.28125 19.8125 11.734375 
Q 24.65625 6.203125 33.40625 6.203125 
Q 37.3125 6.203125 41.140625 7.25 
Q 44.96875 8.296875 48.78125 10.40625 
L 48.78125 2.09375 
Q 45.015625 0.34375 40.984375 -0.53125 
Q 36.96875 -1.421875 32.421875 -1.421875 
Q 20.0625 -1.421875 12.78125 6.34375 
Q 5.515625 14.109375 5.515625 27.296875 
Q 5.515625 40.671875 12.859375 48.328125 
Q 20.21875 56 33.015625 56 
Q 37.15625 56 41.109375 55.140625 
Q 45.0625 54.296875 48.78125 52.59375 
z
" id="DejaVuSans-99"/>
      <path d="M 56.203125 29.59375 
L 56.203125 25.203125 
L 14.890625 25.203125 
Q 15.484375 15.921875 20.484375 11.0625 
Q 25.484375 6.203125 34.421875 6.203125 
Q 39.59375 6.203125 44.453125 7.46875 
Q 49.3125 8.734375 54.109375 11.28125 
L 54.109375 2.78125 
Q 49.265625 0.734375 44.1875 -0.34375 
Q 39.109375 -1.421875 33.890625 -1.421875 
Q 20.796875 -1.421875 13.15625 6.1875 
Q 5.515625 13.8125 5.515625 26.8125 
Q 5.515625 40.234375 12.765625 48.109375 
Q 20.015625 56 32.328125 56 
Q 43.359375 56 49.78125 48.890625 
Q 56.203125 41.796875 56.203125 29.59375 
z
M 47.21875 32.234375 
Q 47.125 39.59375 43.09375 43.984375 
Q 39.0625 48.390625 32.421875 48.390625 
Q 24.90625 48.390625 20.390625 44.140625 
Q 15.875 39.890625 15.1875 32.171875 
z
" id="DejaVuSans-101"/>
      <path id="DejaVuSans-32"/>
      <path d="M 33.796875 -14.703125 
L 28.90625 -14.703125 
L 28.859375 0 
Q 23.734375 0.09375 18.609375 1.1875 
Q 13.484375 2.296875 8.296875 4.5 
L 8.296875 13.28125 
Q 13.28125 10.15625 18.375 8.5625 
Q 23.484375 6.984375 28.90625 6.9375 
L 28.90625 29.203125 
Q 18.109375 30.953125 13.203125 35.15625 
Q 8.296875 39.359375 8.296875 46.6875 
Q 8.296875 54.640625 13.625 59.21875 
Q 18.953125 63.8125 28.90625 64.5 
L 28.90625 75.984375 
L 33.796875 75.984375 
L 33.796875 64.65625 
Q 38.328125 64.453125 42.578125 63.6875 
Q 46.828125 62.9375 50.875 61.625 
L 50.875 53.078125 
Q 46.828125 55.125 42.546875 56.25 
Q 38.28125 57.375 33.796875 57.5625 
L 33.796875 36.71875 
Q 44.875 35.015625 50.09375 30.609375 
Q 55.328125 26.21875 55.328125 18.609375 
Q 55.328125 10.359375 49.78125 5.59375 
Q 44.234375 0.828125 33.796875 0.09375 
z
M 28.90625 37.59375 
L 28.90625 57.625 
Q 23.25 56.984375 20.265625 54.390625 
Q 17.28125 51.8125 17.28125 47.515625 
Q 17.28125 43.3125 20.03125 40.96875 
Q 22.796875 38.625 28.90625 37.59375 
z
M 33.796875 28.21875 
L 33.796875 7.078125 
Q 39.984375 7.90625 43.140625 10.59375 
Q 46.296875 13.28125 46.296875 17.671875 
Q 46.296875 21.96875 43.28125 24.5 
Q 40.28125 27.046875 33.796875 28.21875 
z
" id="DejaVuSans-36"/>
     </defs>
     <g transform="translate(14.798438 172.342094)rotate(-90)scale(0.1 -0.1)">
      <use xlink:href="#DejaVuSans-80"/>
      <use x="58.552734" xlink:href="#DejaVuSans-114"/>
      <use x="99.666016" xlink:href="#DejaVuSans-105"/>
      <use x="127.449219" xlink:href="#DejaVuSans-99"/>
      <use x="182.429688" xlink:href="#DejaVuSans-101"/>
      <use x="243.953125" xlink:href="#DejaVuSans-32"/>
      <use x="275.740234" xlink:href="#DejaVuSans-36"/>
     </g>
    </g>
   </g>
   <g id="line2d_25">
    <path clip-path="url(#pf9b902719b)" d="M 69.560852 271.431474 
L 69.805505 271.988696 
L 70.050158 272.84966 
L 70.539464 273.300826 
L 70.784117 272.242877 
L 71.02877 272.386243 
L 71.273423 271.924989 
L 71.518076 272.462542 
L 71.762729 272.677916 
L 72.007382 273.091902 
L 72.252035 273.235152 
L 72.496688 273.089802 
L 72.985994 270.882664 
L 73.230647 270.861339 
L 73.719953 271.307003 
L 73.964606 270.404031 
L 74.209259 270.792916 
L 74.453912 269.680271 
L 74.698566 270.004326 
L 75.187872 269.159347 
L 75.432525 269.350228 
L 75.677178 268.876544 
L 75.921831 268.941196 
L 76.166484 269.36371 
L 76.411137 268.07859 
L 76.65579 266.02234 
L 77.145096 266.79749 
L 77.389749 266.840988 
L 77.634402 265.681298 
L 77.879055 265.330775 
L 78.123708 266.124497 
L 78.368361 266.005066 
L 78.613014 265.252713 
L 78.857667 265.405078 
L 79.591626 267.642781 
L 79.836279 268.367763 
L 80.080932 266.70242 
L 80.814891 268.145915 
L 81.304197 265.612343 
L 81.54885 266.021417 
L 81.793503 265.952578 
L 82.282809 269.565041 
L 82.772115 270.327591 
L 83.016768 269.905409 
L 83.261421 269.946744 
L 83.506074 269.067454 
L 83.750727 269.665916 
L 84.240033 272.580684 
L 84.484686 272.586897 
L 84.973992 275.477803 
L 85.218645 271.770341 
L 85.463298 272.806308 
L 85.707951 273.168151 
L 85.952604 273.122816 
L 86.197257 272.614762 
L 86.44191 271.755545 
L 86.931216 274.352263 
L 87.175869 274.697696 
L 87.665175 274.630454 
L 88.154481 276.204732 
L 89.622399 270.175637 
L 89.867052 270.130115 
L 90.601011 267.826031 
L 90.845664 268.229828 
L 91.33497 267.351798 
L 91.824276 267.481729 
L 92.068929 268.857303 
L 92.558235 267.876456 
L 92.802888 268.004557 
L 93.047541 268.546959 
L 93.292194 267.414042 
L 93.536847 265.667725 
L 93.7815 266.165166 
L 94.026153 265.332497 
L 94.270806 266.423813 
L 94.515459 266.068707 
L 94.760112 268.526998 
L 95.004765 268.797987 
L 95.249418 269.577549 
L 95.983377 266.081532 
L 96.22803 265.914171 
L 96.472683 263.567538 
L 96.717336 263.900496 
L 96.961989 263.969518 
L 97.206643 264.20768 
L 97.451296 263.564203 
L 97.695949 262.317619 
L 97.940602 262.418403 
L 98.185255 263.196688 
L 98.674561 262.411009 
L 99.163867 263.426891 
L 99.40852 262.083449 
L 99.653173 259.343419 
L 99.897826 261.143076 
L 100.142479 265.211711 
L 100.387132 262.36673 
L 100.631785 263.944792 
L 100.876438 264.231541 
L 101.121091 265.535113 
L 101.365744 263.916315 
L 101.85505 265.498651 
L 102.099703 265.093137 
L 102.344356 266.233248 
L 102.589009 265.957144 
L 102.833662 263.233183 
L 103.078315 263.095347 
L 103.322968 264.169431 
L 103.567621 263.078796 
L 103.812274 263.802066 
L 104.30158 264.13534 
L 104.546233 265.499574 
L 104.790886 265.752025 
L 105.035539 264.774567 
L 105.524845 264.12007 
L 105.769498 262.266778 
L 106.014151 261.474977 
L 106.258804 261.881149 
L 106.74811 261.778419 
L 106.992763 262.53859 
L 107.237416 261.885532 
L 107.482069 261.574572 
L 107.726722 263.889834 
L 108.216028 266.062062 
L 108.460681 266.503447 
L 108.705334 266.336003 
L 108.949987 267.296046 
L 109.19464 266.29145 
L 109.439293 266.647263 
L 110.173252 263.894416 
L 110.417905 265.10187 
L 110.662558 264.765086 
L 110.907211 265.78096 
L 111.151864 265.872096 
L 111.396517 266.759757 
L 112.130476 264.420808 
L 112.619782 262.229892 
L 112.864435 263.475212 
L 113.109088 262.43818 
L 113.353741 263.551046 
L 113.598394 265.655067 
L 113.843047 265.575366 
L 114.0877 264.734663 
L 114.332353 263.334956 
L 114.577006 263.270817 
L 114.821659 261.761627 
L 115.066312 266.609263 
L 115.310965 268.303029 
L 115.555618 267.368764 
L 115.800271 268.653748 
L 116.044924 267.705049 
L 116.289577 266.25009 
L 116.53423 266.729583 
L 117.023536 265.984432 
L 117.268189 265.596807 
L 117.512842 264.694359 
L 117.757495 264.424152 
L 118.002148 263.42917 
L 118.246801 263.819373 
L 118.491454 264.452737 
L 118.736107 263.057197 
L 118.98076 263.514817 
L 119.225413 263.258158 
L 119.470066 264.687348 
L 119.71472 265.092804 
L 119.959373 265.126953 
L 120.204026 263.740687 
L 120.448679 264.099186 
L 120.693332 263.81934 
L 120.937985 263.175231 
L 121.427291 264.0713 
L 121.916597 263.514476 
L 122.16125 261.202633 
L 122.405903 259.979777 
L 122.895209 262.443603 
L 123.139862 261.462103 
L 123.384515 261.779442 
L 123.873821 259.807817 
L 124.118474 260.656172 
L 124.363127 261.910574 
L 124.60778 261.998176 
L 124.852433 262.664474 
L 125.097086 262.374215 
L 125.341739 260.971265 
L 125.586392 260.851827 
L 125.831045 260.859545 
L 126.075698 259.748609 
L 126.320351 259.263269 
L 126.565004 259.153511 
L 126.809657 258.684397 
L 127.05431 257.452484 
L 127.543616 256.891577 
L 128.032922 252.877002 
L 128.277575 253.059715 
L 128.522228 253.032253 
L 128.766881 252.545283 
L 129.011534 253.641656 
L 129.256187 253.429692 
L 129.50084 253.834208 
L 129.990146 255.035466 
L 130.234799 253.900444 
L 130.479452 251.589765 
L 130.968758 254.094169 
L 131.213411 254.430745 
L 131.458064 253.353434 
L 131.702717 253.631751 
L 131.94737 254.434887 
L 132.192023 254.531388 
L 132.436676 255.4816 
L 132.681329 255.832298 
L 132.925982 255.510542 
L 133.170635 255.618828 
L 133.659941 257.05606 
L 133.904594 258.285312 
L 134.149247 258.776382 
L 134.3939 258.617505 
L 134.638553 258.241116 
L 134.883206 258.818249 
L 135.127859 257.579358 
L 135.372512 257.448085 
L 135.861818 259.800357 
L 136.106471 259.719092 
L 136.351124 259.106629 
L 136.595777 259.849135 
L 137.085083 256.581083 
L 137.329736 256.370799 
L 137.574389 255.934221 
L 137.819042 254.929741 
L 138.063695 254.700062 
L 138.553001 255.069357 
L 139.042307 255.840407 
L 139.531613 251.63525 
L 139.776266 251.517134 
L 140.020919 250.464225 
L 140.265572 251.641454 
L 140.510225 251.061709 
L 140.754878 251.322044 
L 140.999531 249.989497 
L 141.244184 250.426416 
L 141.488837 251.286041 
L 141.73349 249.285465 
L 141.978143 249.240063 
L 142.222797 250.720834 
L 142.46745 249.727416 
L 142.956756 253.772489 
L 143.201409 255.113669 
L 143.690715 251.895227 
L 143.935368 251.869919 
L 144.180021 252.968903 
L 144.424674 252.017161 
L 144.669327 251.876714 
L 144.91398 247.300791 
L 145.158633 247.602028 
L 145.403286 246.139912 
L 145.647939 247.46984 
L 145.892592 246.10538 
L 146.137245 238.063962 
L 146.381898 239.047076 
L 146.626551 238.071223 
L 146.871204 238.379372 
L 147.115857 237.58906 
L 147.36051 238.73817 
L 147.605163 238.878884 
L 147.849816 238.809953 
L 148.094469 239.489792 
L 148.339122 242.789706 
L 148.828428 240.082187 
L 149.073081 241.277439 
L 149.317734 239.641658 
L 149.562387 236.680067 
L 149.80704 236.050753 
L 150.051693 236.856276 
L 150.296346 237.143525 
L 150.540999 237.707767 
L 151.030305 235.209068 
L 151.519611 232.846001 
L 152.008917 229.524538 
L 152.25357 229.679506 
L 152.498223 231.728861 
L 152.742876 231.45284 
L 152.987529 231.849871 
L 153.232182 231.261726 
L 153.476835 231.726 
L 153.721488 231.02171 
L 153.966141 232.367306 
L 154.210794 232.701254 
L 154.455447 231.933972 
L 154.7001 230.678222 
L 154.944753 230.923238 
L 155.189406 228.838694 
L 155.434059 228.927327 
L 155.678712 227.19142 
L 155.923365 226.877765 
L 156.168018 227.833042 
L 156.412671 226.566298 
L 156.901977 229.380764 
L 157.14663 228.016246 
L 157.391283 228.219128 
L 157.635936 228.642142 
L 157.880589 229.364795 
L 158.369895 227.169114 
L 158.614548 227.335659 
L 158.859201 228.243904 
L 159.103854 229.983056 
L 159.348507 228.438561 
L 159.59316 228.737619 
L 159.837813 228.839776 
L 160.082466 227.864106 
L 160.327119 225.934265 
L 160.571772 226.46183 
L 160.816425 227.714169 
L 161.061078 230.895409 
L 161.305731 231.409068 
L 161.550384 229.312615 
L 161.795037 231.797774 
L 162.03969 227.157345 
L 162.284343 238.102029 
L 162.528996 241.894452 
L 162.773649 241.551979 
L 163.018302 242.020544 
L 163.507608 238.240488 
L 163.752261 238.183742 
L 163.996914 237.932123 
L 164.241567 241.103525 
L 164.48622 239.21674 
L 164.730874 239.064042 
L 164.975527 240.061203 
L 165.22018 241.68648 
L 165.464833 241.133016 
L 165.709486 241.904 
L 165.954139 240.698476 
L 166.198792 238.89946 
L 166.443445 238.460154 
L 166.688098 238.446048 
L 166.932751 237.898481 
L 167.177404 238.472454 
L 167.422057 237.404783 
L 167.66671 235.123953 
L 168.156016 235.185024 
L 168.645322 236.053606 
L 169.623934 234.390396 
L 169.868587 233.435318 
L 170.602546 238.164971 
L 170.847199 240.486936 
L 171.091852 239.81341 
L 171.336505 242.665385 
L 171.581158 244.112048 
L 171.825811 244.221449 
L 172.070464 244.71385 
L 172.315117 243.109232 
L 172.55977 243.28328 
L 173.293729 249.691171 
L 173.783035 246.080737 
L 174.027688 249.817787 
L 174.272341 251.403691 
L 174.516994 250.342515 
L 174.761647 250.26185 
L 175.0063 248.294866 
L 175.250953 247.945382 
L 175.495606 246.449516 
L 175.740259 246.773134 
L 175.984912 247.950056 
L 176.229565 244.741586 
L 176.474218 253.03192 
L 176.718871 255.380591 
L 177.45283 252.599226 
L 177.697483 252.515026 
L 177.942136 252.006516 
L 178.186789 255.095829 
L 178.676095 257.646043 
L 178.920748 256.693328 
L 179.165401 253.946337 
L 179.410054 253.347313 
L 179.654707 255.161874 
L 179.89936 255.850703 
L 180.144013 255.222612 
L 180.388666 255.530819 
L 180.877972 253.357011 
L 181.122625 253.316325 
L 181.367278 251.386176 
L 181.611931 251.742721 
L 181.856584 251.891901 
L 182.101237 250.993461 
L 182.34589 251.24587 
L 182.590543 252.277388 
L 182.835196 252.711047 
L 183.079849 252.868336 
L 183.324502 248.534051 
L 183.569155 246.717353 
L 183.813808 247.289555 
L 184.303114 245.295324 
L 184.547767 247.565401 
L 184.79242 247.610162 
L 185.037073 247.278027 
L 185.281726 247.747773 
L 185.526379 245.459724 
L 185.771032 247.244103 
L 186.015685 248.137411 
L 186.260338 247.431665 
L 186.504991 248.143391 
L 186.749644 247.367475 
L 187.238951 248.027137 
L 187.483604 247.990202 
L 187.728257 246.044825 
L 187.97291 245.814955 
L 188.217563 244.650001 
L 188.462216 245.58135 
L 188.706869 248.106289 
L 188.951522 246.732473 
L 189.196175 247.137331 
L 189.685481 239.93126 
L 189.930134 240.055573 
L 190.174787 239.736629 
L 190.41944 240.603855 
L 190.664093 239.038601 
L 191.153399 238.366489 
L 191.398052 239.036838 
L 191.642705 238.916576 
L 191.887358 247.604041 
L 192.132011 249.102876 
L 192.376664 249.205922 
L 192.621317 248.645922 
L 193.110623 252.621183 
L 193.355276 251.075366 
L 193.599929 251.256616 
L 193.844582 250.864142 
L 194.089235 251.432825 
L 194.333888 250.192063 
L 194.578541 249.713244 
L 194.823194 249.503716 
L 195.3125 245.803993 
L 196.291112 245.03286 
L 196.535765 245.811079 
L 196.780418 246.149485 
L 197.025071 245.522167 
L 197.269724 243.449991 
L 197.514377 243.064446 
L 197.75903 243.888158 
L 198.003683 244.175955 
L 198.248336 243.381918 
L 198.492989 244.132824 
L 198.737642 242.38573 
L 198.982295 242.188287 
L 199.226948 243.249505 
L 199.471601 246.445774 
L 199.716254 246.262162 
L 199.960907 246.453309 
L 200.20556 246.333612 
L 200.450213 248.160831 
L 200.694866 247.290852 
L 200.939519 248.147848 
L 201.184172 247.953624 
L 201.428825 246.356742 
L 201.673478 247.973743 
L 201.918131 248.360994 
L 202.162784 247.181202 
L 202.407437 248.643792 
L 202.65209 248.514881 
L 202.896743 248.792556 
L 203.141396 248.697927 
L 203.386049 249.943405 
L 203.630702 249.795597 
L 203.875355 248.679056 
L 204.120008 248.734513 
L 204.364661 250.081706 
L 204.609314 248.727169 
L 205.09862 251.602298 
L 205.343273 252.899724 
L 205.587926 252.526753 
L 205.832579 253.0506 
L 206.077232 253.916363 
L 206.321885 253.787493 
L 206.566538 253.124471 
L 206.811191 250.777555 
L 207.055844 251.222566 
L 207.300497 251.178803 
L 207.54515 257.710058 
L 207.789803 257.457574 
L 208.034456 255.984571 
L 208.279109 256.290949 
L 209.013068 253.158986 
L 209.257721 253.935974 
L 209.502375 255.536949 
L 209.747028 255.546139 
L 209.991681 254.720988 
L 210.480987 251.586746 
L 210.72564 251.631424 
L 210.970293 250.391976 
L 211.214946 247.380608 
L 211.459599 248.416392 
L 211.948905 247.608282 
L 212.193558 246.504142 
L 212.682864 245.148215 
L 212.927517 245.249989 
L 213.17217 245.641257 
L 213.416823 244.382139 
L 213.661476 247.4855 
L 213.906129 247.588937 
L 214.150782 250.015862 
L 214.395435 250.078571 
L 214.640088 251.136661 
L 214.884741 252.795788 
L 215.129394 251.37553 
L 215.374047 252.997472 
L 215.6187 252.734858 
L 215.863353 252.703279 
L 216.108006 253.007386 
L 216.352659 255.798099 
L 216.597312 255.022924 
L 216.841965 255.203101 
L 217.086618 254.716555 
L 217.331271 253.045402 
L 217.575924 252.980223 
L 217.820577 253.844031 
L 218.309883 251.493622 
L 218.554536 251.844511 
L 218.799189 251.917334 
L 219.043842 252.44395 
L 219.533148 255.922968 
L 220.022454 254.604518 
L 220.267107 255.47453 
L 220.51176 256.952939 
L 220.756413 256.208562 
L 221.001066 256.512685 
L 221.245719 258.138852 
L 221.490372 257.335599 
L 221.735025 257.585854 
L 221.979678 255.6796 
L 222.224331 252.238382 
L 222.468984 251.471025 
L 223.202943 253.715319 
L 223.447596 251.735543 
L 223.692249 240.631542 
L 223.936902 237.465895 
L 224.181555 237.698826 
L 224.426208 237.42896 
L 224.670861 235.023053 
L 224.915514 234.810307 
L 225.160167 235.769651 
L 225.894126 233.866956 
L 226.138779 232.673309 
L 226.383432 234.245765 
L 226.628085 234.859019 
L 227.117391 232.166354 
L 227.606697 233.448442 
L 227.85135 231.707994 
L 228.096003 231.752306 
L 228.340656 232.962204 
L 228.585309 231.620151 
L 228.829962 231.788709 
L 229.074615 232.311691 
L 229.319268 231.030384 
L 229.563921 232.899545 
L 229.808574 233.437772 
L 230.053227 235.723783 
L 230.29788 236.647523 
L 230.542533 234.704383 
L 230.787186 235.53346 
L 231.031839 234.901368 
L 231.276492 235.219847 
L 231.521145 234.413226 
L 231.765798 234.837445 
L 232.010452 233.515327 
L 232.255105 234.348304 
L 232.499758 234.680414 
L 232.989064 236.41628 
L 233.47837 234.557341 
L 233.967676 235.728931 
L 234.212329 235.25605 
L 234.456982 234.015379 
L 234.701635 234.58941 
L 234.946288 232.926051 
L 235.190941 232.185715 
L 235.680247 232.488375 
L 235.9249 231.782721 
L 236.169553 232.170105 
L 236.414206 231.536574 
L 236.658859 234.169 
L 236.903512 230.811633 
L 237.148165 230.118039 
L 237.392818 230.498337 
L 237.637471 230.399199 
L 237.882124 216.13964 
L 238.126777 217.272374 
L 238.37143 219.925942 
L 238.616083 219.95476 
L 238.860736 221.804767 
L 239.350042 221.439772 
L 239.839348 222.48671 
L 240.328654 218.666084 
L 240.573307 218.797183 
L 240.81796 219.329846 
L 241.062613 220.405834 
L 241.307266 219.020732 
L 241.551919 220.539237 
L 241.796572 220.851461 
L 242.041225 221.735928 
L 242.285878 221.233929 
L 242.530531 219.183053 
L 243.019837 220.796245 
L 243.26449 219.292345 
L 243.509143 220.435367 
L 243.998449 219.334221 
L 244.243102 219.287105 
L 244.487755 217.85503 
L 244.977061 220.346942 
L 245.221714 221.265234 
L 245.466367 220.81742 
L 245.71102 219.395541 
L 245.955673 218.756056 
L 246.200326 219.572873 
L 246.444979 221.218967 
L 246.689632 220.35308 
L 246.934285 220.162116 
L 247.178938 217.173811 
L 247.423591 218.184079 
L 247.668244 217.90222 
L 247.912897 215.346068 
L 248.15755 216.558711 
L 248.402203 216.865279 
L 248.646856 217.390025 
L 248.891509 219.49393 
L 249.380815 217.60411 
L 249.625468 217.51032 
L 249.870121 217.941526 
L 250.114774 217.756616 
L 250.359427 219.523696 
L 250.60408 218.440447 
L 251.338039 210.112138 
L 251.582692 211.150509 
L 252.071998 205.397855 
L 252.316651 204.050171 
L 252.805957 203.923746 
L 253.05061 205.371549 
L 253.295263 192.976767 
L 253.539916 192.247859 
L 253.784569 193.83823 
L 254.029222 193.016206 
L 254.273875 190.878984 
L 254.518529 190.956813 
L 254.763182 191.202011 
L 255.007835 191.973169 
L 255.252488 190.610332 
L 255.741794 194.411862 
L 255.986447 194.079187 
L 256.2311 193.163448 
L 256.475753 193.560113 
L 257.209712 191.089451 
L 257.454365 191.113387 
L 257.699018 191.667574 
L 258.188324 201.783488 
L 258.432977 209.922779 
L 258.67763 209.402192 
L 258.922283 200.468889 
L 259.166936 195.66806 
L 259.411589 195.808017 
L 259.656242 197.154412 
L 259.900895 201.350586 
L 260.145548 197.77461 
L 260.634854 200.663412 
L 260.879507 195.889123 
L 261.12416 195.876398 
L 261.368813 194.628284 
L 261.613466 192.642379 
L 261.858119 194.750076 
L 262.102772 194.502849 
L 262.347425 193.14926 
L 262.592078 190.125508 
L 262.836731 189.694161 
L 263.081384 187.665008 
L 263.326037 190.131895 
L 263.815343 191.428197 
L 264.059996 193.925025 
L 264.304649 199.237142 
L 264.549302 201.476861 
L 265.038608 195.010212 
L 265.527914 188.931885 
L 265.772567 190.457401 
L 266.01722 189.355098 
L 266.261873 191.512281 
L 266.506526 189.926684 
L 266.751179 187.112351 
L 266.995832 187.406985 
L 267.240485 188.534971 
L 267.485138 183.949724 
L 267.729791 181.582607 
L 267.974444 180.959339 
L 268.219097 184.181432 
L 268.46375 185.597964 
L 268.708403 183.328486 
L 268.953056 173.932988 
L 269.197709 171.410146 
L 269.442362 170.861947 
L 269.687015 169.208151 
L 269.931668 166.609259 
L 270.176321 166.656615 
L 270.420974 165.917943 
L 270.665627 166.657231 
L 271.154933 158.503078 
L 271.399586 157.586674 
L 271.644239 158.639724 
L 271.888892 157.429218 
L 272.133545 153.722484 
L 272.378198 155.784705 
L 272.622851 161.982728 
L 272.867504 160.323892 
L 273.112157 161.547705 
L 273.35681 156.09554 
L 273.601463 156.788918 
L 273.846116 154.886398 
L 274.090769 151.955629 
L 274.335422 154.074405 
L 274.580075 152.849295 
L 274.824728 153.422112 
L 275.069381 155.720116 
L 275.314034 151.876652 
L 275.558687 152.756761 
L 275.80334 155.395408 
L 276.047993 153.572348 
L 276.292646 154.359607 
L 276.537299 152.359015 
L 276.781952 155.691406 
L 277.026606 156.398457 
L 277.271259 162.288722 
L 277.515912 157.653192 
L 277.760565 157.301571 
L 278.005218 152.893108 
L 278.494524 156.001759 
L 278.739177 155.897365 
L 278.98383 156.146639 
L 279.228483 156.134297 
L 279.473136 156.309483 
L 279.717789 152.96984 
L 279.962442 147.900185 
L 280.207095 149.279224 
L 280.451748 152.888268 
L 280.696401 163.247426 
L 280.941054 164.085185 
L 281.185707 164.378505 
L 281.43036 170.937946 
L 281.675013 171.334262 
L 281.919666 168.424535 
L 282.164319 168.438524 
L 282.408972 177.897729 
L 282.653625 175.174499 
L 282.898278 180.924991 
L 283.142931 180.173161 
L 283.387584 180.717917 
L 283.632237 180.005044 
L 283.87689 174.413854 
L 284.121543 174.300744 
L 284.366196 173.102781 
L 284.610849 177.719581 
L 284.855502 163.671271 
L 285.100155 176.859084 
L 285.344808 179.926366 
L 285.834114 191.676307 
L 286.078767 190.262902 
L 286.32342 199.414907 
L 286.568073 203.045866 
L 286.812726 204.619894 
L 287.057379 202.478888 
L 287.302032 198.911345 
L 287.546685 198.192009 
L 288.035991 190.954135 
L 288.280644 193.401377 
L 288.525297 190.772744 
L 288.76995 184.106447 
L 289.014603 186.036895 
L 289.748562 185.355876 
L 289.993215 185.514895 
L 290.237868 186.003362 
L 290.482521 179.014952 
L 290.727174 178.650623 
L 291.21648 180.092987 
L 291.461133 183.426027 
L 291.705786 184.100027 
L 292.195092 184.397206 
L 292.439745 181.601802 
L 292.929051 179.610774 
L 293.173704 180.25658 
L 293.418357 184.187487 
L 293.66301 186.153115 
L 293.907663 185.68554 
L 294.152316 184.048429 
L 294.641622 178.092926 
L 294.886275 178.816578 
L 295.130928 175.165933 
L 295.375581 173.708865 
L 295.620234 175.12508 
L 295.864887 173.884052 
L 296.354193 177.16769 
L 296.598846 172.979192 
L 296.843499 175.629699 
L 297.088152 174.883525 
L 297.332805 174.519761 
L 297.577458 172.664331 
L 297.822111 169.535188 
L 298.311417 166.602406 
L 298.55607 164.030826 
L 298.800723 165.994442 
L 299.045376 164.736863 
L 299.29003 165.211275 
L 299.534683 168.006429 
L 299.779336 166.577489 
L 300.513295 172.813786 
L 300.757948 157.424029 
L 301.002601 150.878277 
L 301.247254 154.532182 
L 301.491907 154.461256 
L 301.73656 157.572601 
L 301.981213 153.478916 
L 302.225866 151.914078 
L 302.470519 145.53009 
L 302.715172 142.817023 
L 302.959825 141.529337 
L 303.204478 143.680765 
L 303.449131 143.366337 
L 303.693784 147.598864 
L 303.938437 146.907465 
L 304.18309 146.577401 
L 304.427743 145.413038 
L 304.672396 147.073736 
L 304.917049 144.923772 
L 305.161702 143.831982 
L 305.406355 142.041408 
L 305.651008 142.825174 
L 305.895661 139.997783 
L 306.140314 140.955539 
L 306.384967 138.584995 
L 306.62962 139.295489 
L 306.874273 139.033907 
L 307.118926 139.798777 
L 307.363579 139.021132 
L 307.608232 138.764556 
L 307.852885 141.377704 
L 308.097538 142.089379 
L 308.342191 141.02239 
L 308.586844 142.422703 
L 308.831497 141.559943 
L 309.07615 144.540081 
L 309.320803 142.581456 
L 309.565456 142.072263 
L 309.810109 143.499324 
L 310.054762 140.487149 
L 310.299415 146.510018 
L 310.544068 148.590436 
L 310.788721 144.081638 
L 311.033374 142.173762 
L 311.278027 142.234026 
L 311.52268 139.532188 
L 311.767333 138.805126 
L 312.011986 136.249864 
L 312.256639 136.458152 
L 312.745945 131.79985 
L 313.235251 134.809929 
L 313.479904 135.222446 
L 313.724557 136.830582 
L 313.96921 136.714079 
L 314.458516 134.098902 
L 314.703169 134.392921 
L 314.947822 134.363279 
L 315.437128 136.788931 
L 315.681781 136.492667 
L 315.926434 132.041771 
L 316.41574 128.068997 
L 316.905046 131.672801 
L 317.394352 128.487985 
L 317.639005 128.33028 
L 317.883658 127.804437 
L 318.128311 127.719788 
L 318.372964 126.930615 
L 318.617617 126.576749 
L 319.106923 128.871892 
L 319.351576 128.722637 
L 319.596229 128.813408 
L 319.840882 130.71987 
L 320.085535 130.181751 
L 320.330188 129.321569 
L 320.574841 130.811122 
L 320.819494 130.308284 
L 321.064147 127.714498 
L 321.3088 127.084261 
L 321.553453 128.147492 
L 322.287413 126.806278 
L 322.532066 122.346284 
L 322.776719 123.576933 
L 323.021372 123.690142 
L 323.266025 130.145473 
L 323.510678 127.013618 
L 323.755331 129.829464 
L 323.999984 129.809354 
L 324.48929 125.0593 
L 324.733943 126.042223 
L 324.978596 124.571598 
L 325.223249 121.950001 
L 325.467902 117.889849 
L 325.712555 117.684755 
L 325.957208 119.497436 
L 326.446514 111.423224 
L 326.691167 111.43718 
L 326.93582 109.086663 
L 327.180473 109.309772 
L 327.425126 110.061668 
L 327.669779 107.165397 
L 328.159085 108.477501 
L 328.403738 107.803485 
L 328.648391 110.674339 
L 328.893044 109.86514 
L 329.38235 112.919015 
L 329.627003 115.632331 
L 329.871656 114.368049 
L 330.116309 114.416836 
L 330.360962 116.466348 
L 330.605615 114.152875 
L 330.850268 108.986628 
L 331.094921 109.84468 
L 331.339574 113.276026 
L 331.584227 114.251513 
L 331.82888 125.706271 
L 332.073533 121.541027 
L 332.318186 123.062484 
L 332.562839 128.620107 
L 332.807492 127.904173 
L 333.052145 131.087559 
L 333.296798 122.880311 
L 333.541451 122.336686 
L 333.786104 126.732125 
L 334.030757 134.367587 
L 334.27541 134.973422 
L 334.520063 140.623263 
L 334.764716 133.920039 
L 335.009369 133.316716 
L 335.254022 130.585103 
L 335.498675 129.534198 
L 335.743328 124.068294 
L 335.987981 122.841421 
L 336.232634 124.325352 
L 336.477287 124.186111 
L 336.72194 127.883514 
L 336.966593 128.913243 
L 337.455899 134.047437 
L 337.700552 134.925085 
L 337.945205 129.651916 
L 338.434511 126.902039 
L 338.679164 127.746036 
L 338.923817 127.349753 
L 339.16847 129.74593 
L 339.413123 125.726148 
L 340.147082 130.308799 
L 340.636388 126.687563 
L 340.881041 126.864413 
L 341.370347 129.559199 
L 341.615 126.514355 
L 341.859653 126.422021 
L 342.104306 128.401689 
L 342.348959 132.466648 
L 342.838265 130.436114 
L 343.327571 120.049294 
L 343.572224 119.923792 
L 343.816877 120.122283 
L 344.06153 119.218554 
L 344.306184 115.186962 
L 344.550837 114.408935 
L 344.79549 116.464169 
L 345.040143 116.951006 
L 345.284796 116.493395 
L 345.529449 116.721494 
L 345.774102 114.056682 
L 346.018755 112.844147 
L 346.263408 108.933832 
L 346.508061 108.345845 
L 346.752714 109.27667 
L 347.24202 112.545321 
L 347.731326 107.955384 
L 347.975979 116.425762 
L 348.220632 116.414085 
L 348.465285 115.284969 
L 348.709938 113.48275 
L 348.954591 113.091225 
L 349.443897 108.790998 
L 349.68855 108.901879 
L 349.933203 107.17225 
L 350.422509 106.601928 
L 350.667162 103.552993 
L 350.911815 103.872294 
L 351.156468 104.837618 
L 351.401121 106.700516 
L 351.645774 105.758363 
L 351.890427 106.731256 
L 352.13508 104.497857 
L 352.379733 105.720621 
L 352.624386 105.480347 
L 352.869039 106.424962 
L 353.113692 106.581552 
L 353.358345 105.306324 
L 353.602998 104.648858 
L 353.847651 104.768621 
L 354.092304 104.140497 
L 354.336957 104.704082 
L 354.826263 104.427729 
L 355.070916 104.740111 
L 355.315569 103.460359 
L 355.560222 107.219141 
L 355.804875 105.789036 
L 356.049528 106.036813 
L 356.294181 106.556368 
L 356.538834 106.241957 
L 356.783487 103.693115 
L 357.02814 98.676655 
L 357.272793 98.310214 
L 357.517446 95.42191 
L 357.762099 94.131762 
L 358.006752 90.039092 
L 358.251405 89.545385 
L 358.496058 92.538314 
L 358.740711 93.236417 
L 358.985364 89.827992 
L 359.47467 92.891166 
L 359.719323 95.950897 
L 359.963976 91.086387 
L 360.208629 90.744845 
L 360.453282 92.042795 
L 360.697935 91.163002 
L 360.942588 92.179873 
L 361.187241 89.772236 
L 361.431894 89.755636 
L 361.676547 89.332938 
L 362.165853 84.976955 
L 362.410506 78.444377 
L 363.389118 82.606261 
L 363.633771 78.278988 
L 363.878424 77.487188 
L 364.123077 78.500616 
L 364.36773 78.685584 
L 364.612383 74.785365 
L 364.857036 76.012521 
L 365.101689 73.575625 
L 365.346342 79.770987 
L 365.590995 75.298633 
L 365.835648 75.382933 
L 366.080301 72.332567 
L 366.324954 72.22701 
L 367.058914 65.648406 
L 367.303567 65.500515 
L 367.54822 65.971268 
L 367.792873 65.495093 
L 368.037526 62.561679 
L 368.282179 61.481499 
L 368.526832 63.826527 
L 368.771485 61.584429 
L 369.016138 61.623817 
L 369.260791 70.516942 
L 369.505444 73.587102 
L 369.750097 69.019089 
L 369.99475 70.808249 
L 370.239403 74.073806 
L 370.484056 67.29766 
L 370.728709 65.147048 
L 370.973362 66.408602 
L 371.218015 63.461332 
L 371.462668 64.017815 
L 371.707321 63.288624 
L 371.951974 66.004685 
L 372.196627 70.614416 
L 372.44128 66.536133 
L 372.685933 70.917034 
L 372.930586 72.881199 
L 373.175239 76.7731 
L 373.419892 71.685797 
L 373.664545 73.754937 
L 374.153851 65.031793 
L 374.398504 65.906612 
L 374.643157 62.35567 
L 374.88781 64.191289 
L 375.132463 63.846604 
L 375.377116 61.586341 
L 375.621769 57.718526 
L 376.111075 56.686567 
L 376.355728 57.523711 
L 376.600381 53.778852 
L 376.845034 53.733642 
L 377.089687 50.107515 
L 377.33434 52.913132 
L 377.823646 67.338929 
L 378.068299 65.377559 
L 378.312952 65.719499 
L 378.557605 68.012846 
L 378.802258 67.415411 
L 379.046911 66.25296 
L 379.291564 67.178762 
L 379.536217 69.287524 
L 379.78087 76.371827 
L 380.270176 68.755759 
L 380.514829 69.264337 
L 380.759482 70.358439 
L 381.004135 75.213851 
L 381.248788 75.456854 
L 381.493441 77.04779 
L 381.738094 73.111676 
L 381.982747 75.950843 
L 382.2274 77.166838 
L 382.472053 79.077924 
L 382.716706 78.791025 
L 382.961359 76.638999 
L 383.450665 69.548292 
L 383.695318 70.378 
L 383.939971 73.917482 
L 384.184624 72.899246 
L 384.429277 69.758127 
L 384.67393 73.878626 
L 384.918583 70.064188 
L 385.163236 69.082081 
L 385.407889 64.293353 
L 385.652542 66.753869 
L 385.897195 67.947575 
L 386.141848 71.43624 
L 386.386501 72.434682 
L 386.631154 71.476561 
L 387.12046 76.48502 
L 387.365113 80.598317 
L 387.609766 80.679706 
L 387.854419 77.329982 
L 388.343725 74.691484 
L 388.833031 75.925227 
L 389.077684 73.555482 
L 389.566991 67.014171 
L 389.811644 66.719637 
L 390.056297 67.701977 
L 390.545603 64.12492 
L 390.790256 63.741562 
L 391.279562 62.231083 
L 391.768868 68.477011 
L 392.013521 69.475968 
L 392.258174 74.059535 
L 392.502827 71.43639 
L 392.74748 72.289503 
L 392.992133 72.485332 
L 393.236786 36.460477 
L 393.481439 35.157754 
L 393.726092 36.483398 
L 393.970745 37.13135 
L 394.215398 39.650101 
L 394.215398 39.650101 
" style="fill:none;stroke:#1f77b4;stroke-linecap:square;stroke-width:1.5;"/>
   </g>
   <g id="line2d_26">
    <path clip-path="url(#pf9b902719b)" d="M 69.560852 272.058167 
L 70.294811 273.813245 
L 70.539464 272.867574 
L 70.784117 272.450607 
L 71.02877 272.840322 
L 71.273423 272.52419 
L 71.762729 273.126475 
L 72.007382 273.358124 
L 72.252035 272.682256 
L 72.496688 273.349948 
L 72.741341 271.861948 
L 72.985994 271.077068 
L 73.230647 270.867222 
L 73.4753 271.00076 
L 73.719953 271.404101 
L 73.964606 270.657376 
L 74.209259 270.782738 
L 74.453912 269.66265 
L 74.698566 270.15865 
L 74.943219 269.392848 
L 75.187872 269.335617 
L 75.432525 269.041287 
L 75.677178 268.986782 
L 75.921831 269.16665 
L 76.166484 268.997683 
L 76.65579 266.062561 
L 77.389749 267.169023 
L 77.634402 265.408495 
L 77.879055 265.449374 
L 78.123708 266.204275 
L 78.857667 265.315835 
L 79.10232 267.092715 
L 79.346973 266.790209 
L 79.591626 267.861243 
L 79.836279 268.368144 
L 80.080932 266.84199 
L 80.325585 267.04366 
L 80.814891 268.185551 
L 81.304197 265.463 
L 81.54885 266.425022 
L 81.793503 266.152495 
L 82.282809 269.060364 
L 82.527462 270.373947 
L 82.772115 270.463881 
L 83.016768 269.913375 
L 83.261421 270.322167 
L 83.506074 269.123045 
L 83.750727 269.834342 
L 84.240033 273.679706 
L 84.484686 272.363398 
L 84.729339 273.715135 
L 84.973992 274.347399 
L 85.218645 272.243486 
L 85.463298 272.813069 
L 85.707951 272.873025 
L 85.952604 273.409904 
L 86.197257 272.491486 
L 86.44191 272.42608 
L 86.686563 273.360849 
L 86.931216 274.985114 
L 87.175869 274.895179 
L 87.420522 275.295795 
L 87.665175 274.919707 
L 87.909828 276.064323 
L 88.154481 276.334125 
L 88.399134 274.423707 
L 88.643787 273.96586 
L 88.88844 272.919355 
L 89.133093 271.270563 
L 89.377746 271.134299 
L 89.622399 270.363046 
L 89.867052 270.572892 
L 90.111705 269.046738 
L 90.601011 267.823089 
L 90.845664 268.531661 
L 91.090317 267.850342 
L 91.33497 267.697726 
L 91.579623 267.387045 
L 91.824276 267.670474 
L 92.068929 268.9241 
L 92.313582 268.223704 
L 92.558235 268.212803 
L 92.802888 268.485331 
L 93.047541 268.567089 
L 93.536847 265.435747 
L 93.7815 266.236978 
L 94.515459 266.566737 
L 94.760112 268.984056 
L 95.249418 270.218606 
L 95.494071 266.858341 
L 95.738724 266.534034 
L 95.983377 266.44955 
L 96.472683 263.863263 
L 96.717336 263.563483 
L 96.961989 263.462648 
L 97.206643 264.400143 
L 97.695949 262.879439 
L 97.940602 262.920318 
L 98.185255 262.655966 
L 98.429908 262.83856 
L 98.674561 262.623263 
L 99.163867 263.23645 
L 99.40852 261.70212 
L 99.653173 259.309328 
L 99.897826 261.606735 
L 100.142479 259.521899 
L 100.387132 262.781329 
L 100.631785 263.356362 
L 100.876438 265.032407 
L 101.121091 265.244978 
L 101.365744 264.383791 
L 101.610397 264.67267 
L 101.85505 265.408495 
L 102.099703 264.917945 
L 102.344356 266.010781 
L 102.589009 265.373066 
L 102.833662 263.781505 
L 103.078315 263.710648 
L 103.322968 264.179395 
L 103.567621 263.010252 
L 103.812274 264.394692 
L 104.056927 263.985901 
L 104.30158 263.898692 
L 104.546233 265.547484 
L 104.790886 265.95355 
L 105.280192 264.898868 
L 105.524845 264.329285 
L 105.769498 261.974647 
L 106.014151 261.494999 
L 106.258804 261.947394 
L 106.503457 261.70212 
L 106.74811 262.129988 
L 106.992763 262.79223 
L 107.237416 261.636713 
L 107.971375 265.980803 
L 108.705334 266.850166 
L 108.949987 267.275309 
L 109.19464 266.177022 
L 109.439293 266.59399 
L 109.683946 266.130693 
L 109.928599 264.203923 
L 110.173252 263.887791 
L 110.417905 265.135967 
L 110.662558 265.212275 
L 111.151864 266.956451 
L 111.396517 266.901946 
L 112.130476 264.498253 
L 112.375129 263.032054 
L 112.619782 262.770428 
L 112.864435 263.252802 
L 113.109088 262.846735 
L 113.353741 263.93412 
L 113.598394 266.291484 
L 113.843047 265.967176 
L 114.332353 263.201021 
L 114.577006 262.64779 
L 114.821659 263.072933 
L 115.066312 267.179924 
L 115.310965 268.687001 
L 115.555618 267.452451 
L 115.800271 268.804188 
L 116.044924 266.84199 
L 116.289577 266.310561 
L 116.53423 266.79566 
L 116.778883 266.643045 
L 118.002148 263.863263 
L 118.246801 264.165769 
L 118.491454 264.201198 
L 118.736107 263.337285 
L 118.98076 263.408142 
L 119.225413 263.776055 
L 119.470066 265.656495 
L 119.71472 265.830912 
L 119.959373 264.024055 
L 120.204026 264.302033 
L 120.693332 264.154868 
L 120.937985 263.348186 
L 121.427291 264.206648 
L 121.916597 263.135615 
L 122.16125 261.244273 
L 122.405903 261.429592 
L 122.650556 261.266076 
L 122.895209 262.655966 
L 123.139862 261.70212 
L 123.384515 261.334207 
L 123.873821 259.996097 
L 124.118474 261.663966 
L 124.363127 261.819307 
L 124.60778 262.713197 
L 124.852433 262.437944 
L 125.097086 261.980098 
L 125.341739 260.562954 
L 125.586392 261.377812 
L 126.075698 260.056053 
L 126.320351 259.794427 
L 126.565004 258.976844 
L 126.809657 258.589855 
L 127.05431 257.341679 
L 127.298963 257.229942 
L 127.788269 255.245942 
L 128.032922 252.907655 
L 128.522228 252.989413 
L 128.766881 253.180183 
L 129.011534 253.692534 
L 129.256187 252.36805 
L 129.50084 254.027743 
L 129.745493 254.065897 
L 129.990146 255.161458 
L 130.234799 255.011568 
L 130.479452 251.87205 
L 130.968758 253.823348 
L 131.213411 254.049545 
L 131.458064 253.627128 
L 131.702717 253.962337 
L 131.94737 254.749941 
L 132.192023 254.848051 
L 132.436676 255.292271 
L 132.681329 256.06625 
L 133.170635 256.011744 
L 133.415288 256.445063 
L 133.659941 257.943964 
L 134.149247 258.925064 
L 134.3939 258.73702 
L 134.883206 259.031349 
L 135.127859 257.284448 
L 135.372512 257.497019 
L 135.617165 259.2848 
L 135.861818 260.241372 
L 136.106471 259.944317 
L 136.351124 259.08858 
L 136.595777 259.050426 
L 136.84043 258.069327 
L 137.085083 256.624931 
L 137.574389 255.646557 
L 137.819042 254.73904 
L 138.063695 255.185985 
L 138.553001 254.850777 
L 138.797654 254.937985 
L 139.042307 255.534821 
L 139.28696 253.782468 
L 139.531613 251.136226 
L 139.776266 251.471435 
L 140.020919 251.070819 
L 140.265572 251.501413 
L 140.510225 250.929105 
L 140.754878 251.100797 
L 140.999531 250.277764 
L 141.244184 251.234336 
L 141.488837 251.013588 
L 141.978143 249.332093 
L 142.222797 250.765588 
L 142.46745 250.73561 
L 142.712103 251.754863 
L 142.956756 253.956886 
L 143.201409 253.627128 
L 143.446062 253.588974 
L 143.690715 252.376226 
L 143.935368 252.199083 
L 144.424674 252.96216 
L 144.91398 246.743081 
L 145.158633 247.334466 
L 145.403286 246.48418 
L 145.647939 246.813938 
L 145.892592 238.918815 
L 146.137245 238.559078 
L 146.381898 238.820705 
L 146.626551 237.823254 
L 146.871204 238.065803 
L 147.115857 237.002946 
L 147.605163 239.414815 
L 147.849816 238.414639 
L 148.094469 239.66554 
L 148.339122 242.366288 
L 148.583775 241.101761 
L 148.828428 240.447694 
L 149.073081 241.971124 
L 149.562387 236.457891 
L 149.80704 235.735693 
L 150.051693 236.951166 
L 150.296346 236.476968 
L 150.540999 237.433539 
L 151.030305 234.770945 
L 151.274958 233.738066 
L 151.764264 230.606724 
L 152.008917 227.908701 
L 152.498223 232.132878 
L 152.987529 230.811119 
L 153.232182 230.876526 
L 153.476835 232.067472 
L 153.721488 231.086372 
L 153.966141 232.74334 
L 154.210794 231.636878 
L 154.455447 231.715911 
L 154.7001 230.184306 
L 154.944753 230.571295 
L 155.189406 229.197756 
L 155.434059 228.576393 
L 155.678712 226.630546 
L 156.168018 227.148349 
L 156.412671 226.36892 
L 156.901977 229.113273 
L 157.14663 227.963206 
L 157.391283 228.102195 
L 157.635936 228.767163 
L 157.880589 228.98791 
L 158.125242 228.05314 
L 158.369895 226.625096 
L 158.614548 226.946678 
L 159.103854 229.780965 
L 159.348507 227.925052 
L 159.59316 229.358547 
L 159.837813 229.200481 
L 160.327119 225.455953 
L 160.571772 227.363646 
L 160.816425 228.137624 
L 161.061078 230.225185 
L 161.305731 231.070021 
L 161.550384 229.772789 
L 161.795037 229.33402 
L 162.284343 238.815254 
L 162.528996 241.374288 
L 162.773649 242.352662 
L 163.018302 241.971124 
L 163.262955 238.815254 
L 163.507608 238.098507 
L 163.752261 238.035825 
L 163.996914 239.5102 
L 164.241567 241.889365 
L 164.48622 238.717144 
L 165.22018 241.589585 
L 165.464833 240.597585 
L 165.709486 242.573409 
L 166.198792 238.57543 
L 166.443445 239.294903 
L 166.688098 238.37376 
L 166.932751 238.880661 
L 167.177404 237.474419 
L 167.422057 237.411737 
L 167.66671 234.708264 
L 167.911363 234.563824 
L 168.400669 235.542198 
L 168.645322 236.7931 
L 168.889975 234.007868 
L 169.134628 235.048923 
L 169.623934 233.817099 
L 169.868587 233.421934 
L 170.11324 235.637583 
L 170.357893 235.539473 
L 170.847199 240.164266 
L 171.091852 239.31943 
L 171.336505 243.129366 
L 171.581158 243.974201 
L 171.825811 243.333761 
L 172.070464 244.508355 
L 172.315117 242.355387 
L 172.55977 243.491827 
L 172.804423 245.309586 
L 173.049076 249.168577 
L 173.293729 248.926027 
L 173.538382 247.13007 
L 173.783035 246.549587 
L 174.027688 251.073544 
L 174.272341 250.073368 
L 174.516994 250.33772 
L 174.761647 249.119522 
L 175.0063 249.503786 
L 175.250953 248.356445 
L 175.495606 246.168048 
L 175.740259 245.879169 
L 175.984912 246.803037 
L 176.474218 253.79882 
L 176.718871 255.859129 
L 176.963524 255.406733 
L 177.45283 252.049193 
L 177.697483 253.15293 
L 177.942136 252.291743 
L 178.186789 256.098953 
L 178.431442 257.390734 
L 178.676095 257.458865 
L 178.920748 256.442338 
L 179.165401 254.180359 
L 179.410054 254.207611 
L 179.89936 256.851129 
L 180.144013 256.044447 
L 180.388666 255.67926 
L 180.877972 253.512666 
L 181.122625 253.40093 
L 181.367278 250.961808 
L 181.611931 252.299918 
L 181.856584 252.049193 
L 182.101237 250.956358 
L 182.34589 251.457808 
L 182.590543 253.321897 
L 183.079849 252.681457 
L 183.324502 248.075741 
L 183.569155 246.285235 
L 183.813808 247.353543 
L 184.058461 245.077938 
L 184.303114 245.200575 
L 184.547767 247.51706 
L 184.79242 248.113895 
L 185.037073 247.383521 
L 185.281726 247.258158 
L 185.526379 245.282333 
L 186.015685 248.530862 
L 186.260338 247.383521 
L 186.504991 248.258335 
L 186.749644 247.12462 
L 186.994298 247.835917 
L 187.238951 248.081192 
L 187.483604 247.841367 
L 187.728257 245.841015 
L 187.97291 245.396795 
L 188.217563 244.669146 
L 188.462216 245.868268 
L 188.706869 248.154774 
L 188.951522 248.255609 
L 189.685481 240.248749 
L 189.930134 239.730947 
L 190.174787 240.325057 
L 190.41944 240.063431 
L 190.664093 239.055078 
L 190.908746 239.831782 
L 191.153399 238.796177 
L 191.398052 238.542727 
L 191.642705 250.174203 
L 191.887358 248.280137 
L 192.132011 248.898774 
L 192.376664 249.043214 
L 192.621317 249.435654 
L 193.110623 252.479787 
L 193.355276 251.264314 
L 193.599929 251.937457 
L 193.844582 250.743786 
L 194.089235 251.634951 
L 194.333888 249.852621 
L 194.578541 249.740885 
L 194.823194 247.367169 
L 195.067847 247.312664 
L 195.3125 245.622993 
L 195.557153 245.219652 
L 196.046459 245.437674 
L 196.291112 244.947125 
L 196.535765 245.898246 
L 196.780418 245.83829 
L 197.269724 243.418245 
L 197.514377 243.987828 
L 197.75903 243.508179 
L 198.003683 243.993278 
L 198.248336 243.295607 
L 198.492989 242.982201 
L 198.737642 242.270904 
L 198.982295 242.750552 
L 199.226948 243.549058 
L 199.716254 246.729455 
L 199.960907 246.833015 
L 200.20556 246.465103 
L 200.450213 249.146774 
L 200.694866 247.323565 
L 200.939519 247.955829 
L 201.184172 247.367169 
L 201.428825 247.12462 
L 201.673478 248.767961 
L 201.918131 248.301939 
L 202.162784 247.260884 
L 202.407437 249.274862 
L 202.65209 249.302115 
L 203.141396 248.882423 
L 203.386049 250.277764 
L 203.875355 248.484532 
L 204.364661 250.370423 
L 204.609314 249.032313 
L 205.09862 252.199083 
L 205.343273 252.70871 
L 205.587926 253.703435 
L 205.832579 256.570426 
L 206.077232 252.940358 
L 206.321885 254.084974 
L 206.811191 250.68383 
L 207.055844 251.237061 
L 207.300497 259.140361 
L 207.54515 258.786075 
L 207.789803 257.679613 
L 208.034456 255.13148 
L 208.279109 256.529546 
L 208.523762 253.485413 
L 208.768415 253.188358 
L 209.013068 253.801545 
L 209.257721 254.068622 
L 209.502375 255.790997 
L 209.747028 255.48304 
L 209.991681 254.88893 
L 210.480987 251.959259 
L 210.72564 251.6186 
L 210.970293 250.223258 
L 211.214946 247.683301 
L 211.459599 248.350994 
L 211.704252 247.462554 
L 211.948905 248.348269 
L 212.193558 245.236004 
L 212.438211 245.410421 
L 212.682864 245.276883 
L 212.927517 245.682949 
L 213.416823 244.500179 
L 213.661476 247.394422 
L 213.906129 247.876796 
L 214.150782 250.656577 
L 214.395435 250.310467 
L 214.640088 251.735786 
L 214.884741 254.074073 
L 215.129394 251.6186 
L 215.6187 253.801545 
L 215.863353 252.471611 
L 216.108006 253.703435 
L 216.352659 255.878205 
L 216.597312 253.796095 
L 216.841965 255.731041 
L 217.331271 252.986688 
L 217.575924 253.150204 
L 217.820577 253.526293 
L 218.309883 252.188182 
L 218.799189 251.460534 
L 219.533148 255.570249 
L 219.777801 254.801722 
L 220.022454 254.48559 
L 220.267107 255.553898 
L 220.51176 255.5757 
L 220.756413 257.088228 
L 221.001066 256.524096 
L 221.245719 258.628009 
L 221.490372 256.90836 
L 221.735025 257.712316 
L 222.224331 252.686908 
L 222.468984 251.667654 
L 222.713637 253.172007 
L 222.95829 252.215435 
L 223.202943 253.599875 
L 223.447596 242.265453 
L 223.692249 241.248925 
L 223.936902 238.458243 
L 224.181555 238.978771 
L 224.670861 234.484791 
L 224.915514 235.539473 
L 225.40482 235.476791 
L 225.894126 233.520044 
L 226.138779 233.708088 
L 226.383432 234.781846 
L 226.628085 234.860879 
L 227.117391 232.14923 
L 227.362044 233.454637 
L 227.606697 233.830725 
L 227.85135 231.977537 
L 228.096003 231.996614 
L 228.340656 232.855076 
L 228.829962 231.530592 
L 229.319268 231.582372 
L 229.563921 233.522769 
L 229.808574 233.78167 
L 230.053227 235.645759 
L 230.29788 236.133583 
L 230.542533 235.397758 
L 230.787186 235.70844 
L 231.031839 235.509495 
L 231.276492 235.820176 
L 231.765798 234.097802 
L 232.010452 233.612703 
L 232.255105 234.724615 
L 232.499758 234.403033 
L 232.744411 235.923737 
L 232.989064 236.599605 
L 233.233717 235.302374 
L 233.47837 234.929011 
L 234.212329 235.784748 
L 234.456982 234.135956 
L 234.701635 234.542022 
L 235.190941 231.912131 
L 235.435594 232.124702 
L 235.680247 232.130153 
L 235.9249 231.819471 
L 236.414206 232.369977 
L 236.658859 233.48189 
L 236.903512 230.004438 
L 237.148165 229.840921 
L 237.392818 230.304218 
L 237.637471 217.007598 
L 237.882124 215.683114 
L 238.126777 217.141136 
L 238.37143 220.346061 
L 238.616083 220.247951 
L 238.860736 221.144566 
L 239.105389 220.877489 
L 239.594695 221.795907 
L 239.839348 221.054632 
L 240.084001 219.25595 
L 240.328654 218.776302 
L 240.81796 219.465797 
L 241.062613 219.610236 
L 241.796572 220.858413 
L 242.041225 222.022105 
L 242.285878 220.005401 
L 242.530531 219.037928 
L 242.775184 220.495951 
L 243.019837 220.155291 
L 243.26449 219.539379 
L 243.509143 220.215247 
L 243.753796 219.351335 
L 243.998449 219.441269 
L 244.243102 218.261225 
L 244.487755 218.261225 
L 244.977061 220.654017 
L 245.221714 221.37894 
L 245.466367 220.425094 
L 245.71102 218.836258 
L 245.955673 219.119687 
L 246.444979 221.054632 
L 246.689632 219.907291 
L 246.934285 219.378588 
L 247.178938 216.664213 
L 247.423591 217.552653 
L 247.668244 217.936917 
L 247.912897 215.380608 
L 248.15755 217.261049 
L 248.402203 216.255422 
L 248.646856 218.103159 
L 248.891509 218.31573 
L 249.136162 216.912213 
L 249.625468 218.035027 
L 249.870121 217.912389 
L 250.114774 218.274851 
L 250.359427 218.124961 
L 250.848733 214.475817 
L 251.093386 210.652255 
L 251.338039 210.456035 
L 251.582692 209.785617 
L 252.071998 202.408296 
L 252.316651 203.681 
L 252.561304 204.201527 
L 252.805957 202.656296 
L 253.05061 178.856463 
L 253.295263 192.820776 
L 253.539916 190.572424 
L 254.029222 192.848029 
L 254.273875 189.730313 
L 254.518529 190.177259 
L 254.763182 192.292072 
L 255.007835 189.809346 
L 255.252488 189.673083 
L 255.497141 192.436512 
L 255.741794 192.61093 
L 255.986447 193.938139 
L 256.2311 193.910886 
L 256.475753 192.924336 
L 256.720406 192.684512 
L 257.209712 190.83405 
L 257.454365 191.188336 
L 257.699018 192.101303 
L 257.943671 198.377613 
L 258.188324 210.30887 
L 258.432977 203.792736 
L 258.67763 204.738407 
L 258.922283 196.647063 
L 259.166936 195.614184 
L 259.411589 195.903063 
L 259.656242 200.61779 
L 259.900895 198.996251 
L 260.145548 196.431766 
L 260.390201 201.023856 
L 260.879507 193.842754 
L 261.12416 196.254623 
L 261.613466 192.360204 
L 261.858119 194.04715 
L 262.102772 194.39326 
L 262.347425 193.030622 
L 262.836731 188.302269 
L 263.081384 189.561346 
L 263.326037 189.94561 
L 263.57069 192.057699 
L 263.815343 188.781917 
L 264.304649 198.748251 
L 264.549302 198.900866 
L 264.793955 197.385613 
L 265.038608 196.843283 
L 265.283261 190.302621 
L 265.527914 187.983412 
L 266.261873 190.986665 
L 266.995832 186.391851 
L 267.240485 187.370225 
L 267.485138 182.595541 
L 267.729791 181.099365 
L 267.974444 180.761431 
L 268.219097 182.97708 
L 268.46375 183.295937 
L 268.708403 168.312371 
L 268.953056 172.503846 
L 269.442362 169.77857 
L 269.687015 168.306921 
L 269.931668 166.042217 
L 270.176321 165.736986 
L 270.420974 165.08292 
L 270.665627 165.565294 
L 270.91028 160.29461 
L 271.154933 158.141642 
L 271.399586 157.146917 
L 271.644239 159.229027 
L 272.133545 153.236146 
L 272.378198 155.806081 
L 272.622851 161.978831 
L 272.867504 159.327137 
L 273.112157 160.455402 
L 273.35681 155.419092 
L 274.090769 152.925465 
L 274.335422 152.691091 
L 274.580075 151.110431 
L 274.824728 152.445816 
L 275.069381 153.031751 
L 275.314034 151.055926 
L 275.558687 151.481069 
L 275.80334 155.143839 
L 276.047993 152.761948 
L 276.292646 155.925993 
L 276.537299 151.873508 
L 277.271259 161.752633 
L 277.515912 155.408191 
L 277.760565 155.808806 
L 278.005218 151.328453 
L 278.249871 154.421641 
L 278.494524 154.46252 
L 278.739177 154.917641 
L 278.98383 155.007575 
L 279.228483 155.866037 
L 279.473136 155.263751 
L 279.962442 148.0881 
L 280.207095 149.671486 
L 280.451748 157.790082 
L 280.696401 160.360017 
L 280.941054 167.135052 
L 281.185707 167.189558 
L 281.43036 167.772767 
L 281.675013 169.729515 
L 281.919666 166.249338 
L 282.164319 167.440283 
L 282.408972 178.513078 
L 282.653625 180.696024 
L 282.898278 179.374266 
L 283.142931 182.843542 
L 283.387584 180.330837 
L 283.87689 173.678439 
L 284.121543 172.190439 
L 284.366196 172.588329 
L 284.610849 170.849603 
L 284.855502 180.766881 
L 285.100155 179.085386 
L 285.344808 181.306486 
L 285.589461 185.803191 
L 285.834114 193.570227 
L 286.078767 192.403809 
L 286.32342 204.070714 
L 286.568073 206.376297 
L 286.812726 202.629043 
L 287.057379 202.789835 
L 287.302032 197.467371 
L 287.791338 192.550974 
L 288.035991 189.158005 
L 288.280644 194.73937 
L 288.76995 185.244509 
L 289.014603 187.91528 
L 289.259256 185.252685 
L 289.503909 183.999058 
L 289.748562 185.320817 
L 289.993215 185.666927 
L 290.237868 185.042839 
L 290.482521 178.104287 
L 290.727174 179.137167 
L 290.971827 178.289606 
L 291.21648 180.341738 
L 291.461133 184.612246 
L 291.705786 184.151674 
L 291.950439 182.194926 
L 292.439745 182.124069 
L 292.929051 179.496903 
L 293.418357 183.775586 
L 293.66301 187.054093 
L 293.907663 188.089697 
L 294.152316 183.759234 
L 294.396969 182.094091 
L 294.641622 177.382089 
L 294.886275 178.540331 
L 295.130928 174.027275 
L 295.375581 173.326879 
L 295.620234 175.722396 
L 295.864887 173.403186 
L 296.10954 175.646088 
L 296.354193 176.531803 
L 296.598846 173.468593 
L 296.843499 174.678616 
L 297.332805 173.566703 
L 297.822111 169.023668 
L 298.066764 167.156855 
L 298.311417 166.222085 
L 298.55607 163.008985 
L 298.800723 164.954832 
L 299.045376 164.682304 
L 299.534683 168.603976 
L 299.779336 165.998612 
L 300.023989 169.914834 
L 300.268642 168.89558 
L 300.513295 155.143839 
L 300.757948 155.710697 
L 301.002601 152.047926 
L 301.247254 156.073158 
L 301.491907 153.151663 
L 301.73656 157.855489 
L 302.470519 144.299967 
L 302.715172 141.141373 
L 302.959825 141.888098 
L 303.204478 143.117197 
L 303.449131 143.179879 
L 303.693784 148.72309 
L 303.938437 148.090826 
L 304.18309 145.591748 
L 304.427743 144.71966 
L 304.672396 146.420232 
L 304.917049 143.697681 
L 305.161702 143.607747 
L 305.406355 141.789988 
L 305.651008 142.517637 
L 305.895661 140.182076 
L 306.140314 140.162999 
L 306.384967 138.590515 
L 306.62962 138.655921 
L 306.874273 137.732053 
L 307.363579 139.582515 
L 307.608232 139.786911 
L 307.852885 142.05979 
L 308.097538 142.517637 
L 308.342191 139.882295 
L 308.586844 142.593945 
L 308.831497 140.920625 
L 309.07615 142.19878 
L 309.320803 141.593768 
L 309.565456 141.359395 
L 309.810109 141.653724 
L 310.054762 147.785595 
L 310.299415 148.055397 
L 310.544068 145.877902 
L 310.788721 141.585593 
L 311.033374 141.190428 
L 311.278027 141.157724 
L 311.52268 139.664273 
L 311.767333 138.871218 
L 312.011986 135.159392 
L 312.256639 134.938645 
L 312.745945 130.381984 
L 312.990598 133.134513 
L 313.235251 132.562205 
L 313.479904 133.191743 
L 313.724557 136.205898 
L 313.96921 137.020756 
L 314.213863 133.886689 
L 314.458516 132.932842 
L 314.703169 132.853809 
L 314.947822 133.191743 
L 315.437128 135.53003 
L 315.681781 133.347084 
L 315.926434 128.16361 
L 316.171087 129.561676 
L 316.41574 128.487917 
L 316.660393 130.327479 
L 316.905046 131.243171 
L 317.149699 128.21539 
L 317.394352 127.670335 
L 317.639005 127.512269 
L 317.883658 126.855477 
L 318.128311 126.817323 
L 318.372964 127.220664 
L 318.617617 126.283169 
L 319.106923 128.324401 
L 319.351576 128.436137 
L 319.596229 129.008445 
L 319.840882 130.207566 
L 320.085535 128.624181 
L 320.330188 128.708665 
L 320.574841 130.616358 
L 320.819494 129.512621 
L 321.064147 127.149807 
L 321.3088 126.514818 
L 321.553453 127.727566 
L 322.04276 125.680883 
L 322.287413 125.69996 
L 322.532066 121.478508 
L 323.021372 124.250114 
L 323.266025 130.248446 
L 323.510678 127.136181 
L 323.755331 128.926687 
L 323.999984 128.981192 
L 324.48929 124.083872 
L 324.733943 125.165806 
L 324.978596 123.189981 
L 325.467902 117.772133 
L 325.712555 118.134595 
L 325.957208 118.120969 
L 326.446514 110.923515 
L 327.180473 107.476042 
L 327.425126 108.269097 
L 327.669779 106.71569 
L 327.914432 106.146107 
L 328.403738 107.446064 
L 328.893044 110.721845 
L 329.137697 109.064877 
L 329.38235 112.765802 
L 329.627003 112.59956 
L 329.871656 113.065582 
L 330.360962 116.074287 
L 330.850268 107.914811 
L 331.094921 109.697141 
L 331.339574 110.111383 
L 331.584227 123.530641 
L 331.82888 123.794993 
L 332.073533 118.897672 
L 332.562839 128.149983 
L 332.807492 128.765896 
L 333.052145 126.354027 
L 333.296798 122.721234 
L 333.541451 128.436137 
L 333.786104 124.400004 
L 334.030757 136.140492 
L 334.27541 133.475172 
L 334.520063 137.702075 
L 335.498675 127.891082 
L 335.743328 121.849146 
L 335.987981 123.604223 
L 336.232634 122.304267 
L 337.211246 131.594732 
L 337.455899 134.050205 
L 337.700552 133.614161 
L 337.945205 128.438862 
L 338.189858 128.286247 
L 338.434511 126.291345 
L 338.679164 126.800972 
L 338.923817 127.782071 
L 339.16847 128.174511 
L 339.413123 124.552619 
L 339.657776 127.814774 
L 339.902429 128.16361 
L 340.147082 129.828753 
L 340.391735 127.168884 
L 340.636388 126.800972 
L 340.881041 127.313324 
L 341.125694 128.286247 
L 341.370347 128.599654 
L 341.615 125.097674 
L 341.859653 126.146906 
L 342.348959 130.093105 
L 342.593612 129.965017 
L 342.838265 129.10383 
L 343.327571 119.1702 
L 343.572224 119.551738 
L 343.816877 120.352969 
L 344.06153 118.540661 
L 344.306184 114.72255 
L 344.550837 114.346462 
L 344.79549 116.036133 
L 345.040143 115.899869 
L 345.284796 114.460923 
L 345.529449 116.771957 
L 345.774102 112.629538 
L 346.018755 111.596659 
L 346.263408 108.94224 
L 346.508061 107.996569 
L 346.752714 109.631735 
L 346.997367 112.152615 
L 347.486673 108.653361 
L 347.731326 116.793759 
L 347.975979 115.954374 
L 348.220632 116.087913 
L 348.465285 115.16677 
L 348.709938 112.738549 
L 348.954591 112.133538 
L 349.443897 108.541624 
L 349.68855 109.359207 
L 349.933203 107.222591 
L 350.177856 107.178987 
L 350.667162 103.104699 
L 350.911815 102.935732 
L 351.156468 106.445887 
L 351.401121 107.075426 
L 351.645774 104.603601 
L 351.890427 104.167557 
L 352.13508 104.159381 
L 352.379733 105.761843 
L 352.624386 106.298723 
L 352.869039 106.230591 
L 353.358345 104.726238 
L 353.602998 103.091073 
L 353.847651 104.516392 
L 354.092304 104.031293 
L 354.58161 103.55437 
L 355.070916 104.587249 
L 355.315569 102.589622 
L 355.560222 107.606855 
L 355.804875 105.489316 
L 356.049528 104.54092 
L 356.294181 108.25002 
L 356.538834 104.521843 
L 356.783487 102.532392 
L 357.02814 98.199203 
L 357.272793 97.640522 
L 357.517446 94.642718 
L 357.762099 93.688872 
L 358.006752 88.423639 
L 358.251405 87.611507 
L 358.496058 91.467772 
L 358.740711 91.473223 
L 358.985364 89.453793 
L 359.230017 90.530277 
L 359.47467 93.702498 
L 359.719323 94.778982 
L 359.963976 91.102585 
L 360.208629 89.235771 
L 360.453282 91.454146 
L 360.697935 90.644739 
L 360.942588 89.006848 
L 361.187241 89.453793 
L 361.676547 87.450716 
L 361.9212 78.064866 
L 362.165853 83.796121 
L 362.410506 78.661702 
L 362.655159 78.836119 
L 362.899812 79.176779 
L 363.144465 80.32957 
L 363.389118 80.212383 
L 363.633771 76.982932 
L 363.878424 76.792162 
L 364.123077 79.078669 
L 364.36773 76.519635 
L 364.857036 74.748206 
L 365.101689 76.465129 
L 365.346342 79.163152 
L 365.590995 74.246755 
L 365.835648 73.930623 
L 366.080301 70.927369 
L 366.324954 70.660292 
L 366.814261 65.482268 
L 367.058914 65.070752 
L 367.303567 64.11963 
L 367.54822 64.503894 
L 367.792873 64.394883 
L 368.282179 60.849299 
L 368.526832 62.498091 
L 368.771485 60.832948 
L 369.016138 60.713036 
L 369.260791 73.11304 
L 369.750097 67.22917 
L 369.99475 75.375019 
L 370.484056 59.486662 
L 370.728709 64.664685 
L 370.973362 64.473916 
L 371.218015 63.511894 
L 371.462668 63.42741 
L 371.707321 61.803146 
L 372.196627 69.965347 
L 372.44128 69.842709 
L 372.685933 69.537478 
L 372.930586 71.535106 
L 373.175239 74.603766 
L 373.419892 73.750755 
L 373.664545 72.418095 
L 373.909198 68.207544 
L 374.398504 63.942487 
L 374.643157 62.860553 
L 374.88781 63.465564 
L 375.377116 62.484465 
L 375.621769 57.306441 
L 375.866422 55.510484 
L 376.111075 58.320244 
L 376.845034 52.346439 
L 377.089687 45.165338 
L 377.33434 60.811146 
L 377.578993 58.92798 
L 377.823646 65.179763 
L 378.068299 63.637256 
L 378.312952 64.26407 
L 378.557605 66.932115 
L 378.802258 66.667763 
L 379.046911 65.659411 
L 379.291564 68.86161 
L 379.536217 70.581259 
L 379.78087 75.020733 
L 380.270176 67.144686 
L 380.514829 69.120511 
L 380.759482 70.158841 
L 381.004135 74.639195 
L 381.493441 76.241657 
L 381.738094 75.1897 
L 382.2274 76.110843 
L 382.716706 80.471285 
L 383.206012 71.014578 
L 383.450665 68.425566 
L 383.939971 72.753304 
L 384.429277 69.815457 
L 384.67393 71.079984 
L 384.918583 68.679017 
L 385.163236 68.488247 
L 385.407889 64.991719 
L 385.897195 66.735895 
L 386.141848 70.319633 
L 386.386501 71.807633 
L 386.631154 71.938446 
L 387.12046 77.934053 
L 387.365113 78.975108 
L 387.609766 78.291064 
L 387.854419 77.239108 
L 388.099072 74.990755 
L 388.343725 73.930623 
L 388.833031 76.598668 
L 389.077684 72.295457 
L 389.322338 70.758402 
L 389.566991 65.961917 
L 389.811644 65.027147 
L 390.056297 66.498796 
L 390.30095 64.988993 
L 390.545603 62.211937 
L 390.790256 61.819498 
L 391.034909 62.596201 
L 391.279562 61.5933 
L 391.524215 66.844906 
L 391.768868 65.882884 
L 392.013521 67.736071 
L 392.258174 72.567985 
L 392.502827 70.115237 
L 392.74748 69.480248 
L 392.992133 48.274877 
L 393.236786 38.226786 
L 393.481439 34.414125 
L 393.726092 35.395224 
L 394.215398 39.278742 
L 394.215398 39.278742 
" style="fill:none;stroke:#ff7f0e;stroke-linecap:square;stroke-width:1.5;"/>
   </g>
   <g id="patch_3">
    <path d="M 53.328125 288.430125 
L 53.328125 22.318125 
" style="fill:none;stroke:#000000;stroke-linecap:square;stroke-linejoin:miter;stroke-width:0.8;"/>
   </g>
   <g id="patch_4">
    <path d="M 410.448125 288.430125 
L 410.448125 22.318125 
" style="fill:none;stroke:#000000;stroke-linecap:square;stroke-linejoin:miter;stroke-width:0.8;"/>
   </g>
   <g id="patch_5">
    <path d="M 53.328125 288.430125 
L 410.448125 288.430125 
" style="fill:none;stroke:#000000;stroke-linecap:square;stroke-linejoin:miter;stroke-width:0.8;"/>
   </g>
   <g id="patch_6">
    <path d="M 53.328125 22.318125 
L 410.448125 22.318125 
" style="fill:none;stroke:#000000;stroke-linecap:square;stroke-linejoin:miter;stroke-width:0.8;"/>
   </g>
   <g id="text_15">
    <!-- Training: AMZN -->
    <defs>
     <path d="M -0.296875 72.90625 
L 61.375 72.90625 
L 61.375 64.59375 
L 35.5 64.59375 
L 35.5 0 
L 25.59375 0 
L 25.59375 64.59375 
L -0.296875 64.59375 
z
" id="DejaVuSans-84"/>
     <path d="M 54.890625 33.015625 
L 54.890625 0 
L 45.90625 0 
L 45.90625 32.71875 
Q 45.90625 40.484375 42.875 44.328125 
Q 39.84375 48.1875 33.796875 48.1875 
Q 26.515625 48.1875 22.3125 43.546875 
Q 18.109375 38.921875 18.109375 30.90625 
L 18.109375 0 
L 9.078125 0 
L 9.078125 54.6875 
L 18.109375 54.6875 
L 18.109375 46.1875 
Q 21.34375 51.125 25.703125 53.5625 
Q 30.078125 56 35.796875 56 
Q 45.21875 56 50.046875 50.171875 
Q 54.890625 44.34375 54.890625 33.015625 
z
" id="DejaVuSans-110"/>
     <path d="M 45.40625 27.984375 
Q 45.40625 37.75 41.375 43.109375 
Q 37.359375 48.484375 30.078125 48.484375 
Q 22.859375 48.484375 18.828125 43.109375 
Q 14.796875 37.75 14.796875 27.984375 
Q 14.796875 18.265625 18.828125 12.890625 
Q 22.859375 7.515625 30.078125 7.515625 
Q 37.359375 7.515625 41.375 12.890625 
Q 45.40625 18.265625 45.40625 27.984375 
z
M 54.390625 6.78125 
Q 54.390625 -7.171875 48.1875 -13.984375 
Q 42 -20.796875 29.203125 -20.796875 
Q 24.46875 -20.796875 20.265625 -20.09375 
Q 16.0625 -19.390625 12.109375 -17.921875 
L 12.109375 -9.1875 
Q 16.0625 -11.328125 19.921875 -12.34375 
Q 23.78125 -13.375 27.78125 -13.375 
Q 36.625 -13.375 41.015625 -8.765625 
Q 45.40625 -4.15625 45.40625 5.171875 
L 45.40625 9.625 
Q 42.625 4.78125 38.28125 2.390625 
Q 33.9375 0 27.875 0 
Q 17.828125 0 11.671875 7.65625 
Q 5.515625 15.328125 5.515625 27.984375 
Q 5.515625 40.671875 11.671875 48.328125 
Q 17.828125 56 27.875 56 
Q 33.9375 56 38.28125 53.609375 
Q 42.625 51.21875 45.40625 46.390625 
L 45.40625 54.6875 
L 54.390625 54.6875 
z
" id="DejaVuSans-103"/>
     <path d="M 11.71875 12.40625 
L 22.015625 12.40625 
L 22.015625 0 
L 11.71875 0 
z
M 11.71875 51.703125 
L 22.015625 51.703125 
L 22.015625 39.3125 
L 11.71875 39.3125 
z
" id="DejaVuSans-58"/>
     <path d="M 34.1875 63.1875 
L 20.796875 26.90625 
L 47.609375 26.90625 
z
M 28.609375 72.90625 
L 39.796875 72.90625 
L 67.578125 0 
L 57.328125 0 
L 50.6875 18.703125 
L 17.828125 18.703125 
L 11.1875 0 
L 0.78125 0 
z
" id="DejaVuSans-65"/>
     <path d="M 9.8125 72.90625 
L 24.515625 72.90625 
L 43.109375 23.296875 
L 61.8125 72.90625 
L 76.515625 72.90625 
L 76.515625 0 
L 66.890625 0 
L 66.890625 64.015625 
L 48.09375 14.015625 
L 38.1875 14.015625 
L 19.390625 64.015625 
L 19.390625 0 
L 9.8125 0 
z
" id="DejaVuSans-77"/>
     <path d="M 5.609375 72.90625 
L 62.890625 72.90625 
L 62.890625 65.375 
L 16.796875 8.296875 
L 64.015625 8.296875 
L 64.015625 0 
L 4.5 0 
L 4.5 7.515625 
L 50.59375 64.59375 
L 5.609375 64.59375 
z
" id="DejaVuSans-90"/>
     <path d="M 9.8125 72.90625 
L 23.09375 72.90625 
L 55.421875 11.921875 
L 55.421875 72.90625 
L 64.984375 72.90625 
L 64.984375 0 
L 51.703125 0 
L 19.390625 60.984375 
L 19.390625 0 
L 9.8125 0 
z
" id="DejaVuSans-78"/>
    </defs>
    <g transform="translate(186.409063 16.318125)scale(0.12 -0.12)">
     <use xlink:href="#DejaVuSans-84"/>
     <use x="46.333984" xlink:href="#DejaVuSans-114"/>
     <use x="87.447266" xlink:href="#DejaVuSans-97"/>
     <use x="148.726562" xlink:href="#DejaVuSans-105"/>
     <use x="176.509766" xlink:href="#DejaVuSans-110"/>
     <use x="239.888672" xlink:href="#DejaVuSans-105"/>
     <use x="267.671875" xlink:href="#DejaVuSans-110"/>
     <use x="331.050781" xlink:href="#DejaVuSans-103"/>
     <use x="394.527344" xlink:href="#DejaVuSans-58"/>
     <use x="428.21875" xlink:href="#DejaVuSans-32"/>
     <use x="460.005859" xlink:href="#DejaVuSans-65"/>
     <use x="528.414062" xlink:href="#DejaVuSans-77"/>
     <use x="614.693359" xlink:href="#DejaVuSans-90"/>
     <use x="683.199219" xlink:href="#DejaVuSans-78"/>
    </g>
   </g>
   <g id="legend_1">
    <g id="patch_7">
     <path d="M 60.328125 59.674375 
L 144.05625 59.674375 
Q 146.05625 59.674375 146.05625 57.674375 
L 146.05625 29.318125 
Q 146.05625 27.318125 144.05625 27.318125 
L 60.328125 27.318125 
Q 58.328125 27.318125 58.328125 29.318125 
L 58.328125 57.674375 
Q 58.328125 59.674375 60.328125 59.674375 
z
" style="fill:#ffffff;opacity:0.8;stroke:#cccccc;stroke-linejoin:miter;"/>
    </g>
    <g id="line2d_27">
     <path d="M 62.328125 35.416562 
L 82.328125 35.416562 
" style="fill:none;stroke:#1f77b4;stroke-linecap:square;stroke-width:1.5;"/>
    </g>
    <g id="line2d_28"/>
    <g id="text_16">
     <!-- Predicted -->
     <defs>
      <path d="M 45.40625 46.390625 
L 45.40625 75.984375 
L 54.390625 75.984375 
L 54.390625 0 
L 45.40625 0 
L 45.40625 8.203125 
Q 42.578125 3.328125 38.25 0.953125 
Q 33.9375 -1.421875 27.875 -1.421875 
Q 17.96875 -1.421875 11.734375 6.484375 
Q 5.515625 14.40625 5.515625 27.296875 
Q 5.515625 40.1875 11.734375 48.09375 
Q 17.96875 56 27.875 56 
Q 33.9375 56 38.25 53.625 
Q 42.578125 51.265625 45.40625 46.390625 
z
M 14.796875 27.296875 
Q 14.796875 17.390625 18.875 11.75 
Q 22.953125 6.109375 30.078125 6.109375 
Q 37.203125 6.109375 41.296875 11.75 
Q 45.40625 17.390625 45.40625 27.296875 
Q 45.40625 37.203125 41.296875 42.84375 
Q 37.203125 48.484375 30.078125 48.484375 
Q 22.953125 48.484375 18.875 42.84375 
Q 14.796875 37.203125 14.796875 27.296875 
z
" id="DejaVuSans-100"/>
      <path d="M 18.3125 70.21875 
L 18.3125 54.6875 
L 36.8125 54.6875 
L 36.8125 47.703125 
L 18.3125 47.703125 
L 18.3125 18.015625 
Q 18.3125 11.328125 20.140625 9.421875 
Q 21.96875 7.515625 27.59375 7.515625 
L 36.8125 7.515625 
L 36.8125 0 
L 27.59375 0 
Q 17.1875 0 13.234375 3.875 
Q 9.28125 7.765625 9.28125 18.015625 
L 9.28125 47.703125 
L 2.6875 47.703125 
L 2.6875 54.6875 
L 9.28125 54.6875 
L 9.28125 70.21875 
z
" id="DejaVuSans-116"/>
     </defs>
     <g transform="translate(90.328125 38.916562)scale(0.1 -0.1)">
      <use xlink:href="#DejaVuSans-80"/>
      <use x="58.552734" xlink:href="#DejaVuSans-114"/>
      <use x="97.416016" xlink:href="#DejaVuSans-101"/>
      <use x="158.939453" xlink:href="#DejaVuSans-100"/>
      <use x="222.416016" xlink:href="#DejaVuSans-105"/>
      <use x="250.199219" xlink:href="#DejaVuSans-99"/>
      <use x="305.179688" xlink:href="#DejaVuSans-116"/>
      <use x="344.388672" xlink:href="#DejaVuSans-101"/>
      <use x="405.912109" xlink:href="#DejaVuSans-100"/>
     </g>
    </g>
    <g id="line2d_29">
     <path d="M 62.328125 50.094687 
L 82.328125 50.094687 
" style="fill:none;stroke:#ff7f0e;stroke-linecap:square;stroke-width:1.5;"/>
    </g>
    <g id="line2d_30"/>
    <g id="text_17">
     <!-- True value -->
     <defs>
      <path d="M 8.5 21.578125 
L 8.5 54.6875 
L 17.484375 54.6875 
L 17.484375 21.921875 
Q 17.484375 14.15625 20.5 10.265625 
Q 23.53125 6.390625 29.59375 6.390625 
Q 36.859375 6.390625 41.078125 11.03125 
Q 45.3125 15.671875 45.3125 23.6875 
L 45.3125 54.6875 
L 54.296875 54.6875 
L 54.296875 0 
L 45.3125 0 
L 45.3125 8.40625 
Q 42.046875 3.421875 37.71875 1 
Q 33.40625 -1.421875 27.6875 -1.421875 
Q 18.265625 -1.421875 13.375 4.4375 
Q 8.5 10.296875 8.5 21.578125 
z
M 31.109375 56 
z
" id="DejaVuSans-117"/>
      <path d="M 2.984375 54.6875 
L 12.5 54.6875 
L 29.59375 8.796875 
L 46.6875 54.6875 
L 56.203125 54.6875 
L 35.6875 0 
L 23.484375 0 
z
" id="DejaVuSans-118"/>
      <path d="M 9.421875 75.984375 
L 18.40625 75.984375 
L 18.40625 0 
L 9.421875 0 
z
" id="DejaVuSans-108"/>
     </defs>
     <g transform="translate(90.328125 53.594687)scale(0.1 -0.1)">
      <use xlink:href="#DejaVuSans-84"/>
      <use x="46.333984" xlink:href="#DejaVuSans-114"/>
      <use x="87.447266" xlink:href="#DejaVuSans-117"/>
      <use x="150.826172" xlink:href="#DejaVuSans-101"/>
      <use x="212.349609" xlink:href="#DejaVuSans-32"/>
      <use x="244.136719" xlink:href="#DejaVuSans-118"/>
      <use x="303.316406" xlink:href="#DejaVuSans-97"/>
      <use x="364.595703" xlink:href="#DejaVuSans-108"/>
      <use x="392.378906" xlink:href="#DejaVuSans-117"/>
      <use x="455.757812" xlink:href="#DejaVuSans-101"/>
     </g>
    </g>
   </g>
  </g>
 </g>
 <defs>
  <clipPath id="pf9b902719b">
   <rect height="266.112" width="357.12" x="53.328125" y="22.318125"/>
  </clipPath>
 </defs>
</svg>
