<?xml version="1.0" encoding="utf-8" standalone="no"?>
<!DOCTYPE svg PUBLIC "-//W3C//DTD SVG 1.1//EN"
  "http://www.w3.org/Graphics/SVG/1.1/DTD/svg11.dtd">
<!-- Created with matplotlib (https://matplotlib.org/) -->
<svg height="325.986375pt" version="1.1" viewBox="0 0 411.285625 325.986375" width="411.285625pt" xmlns="http://www.w3.org/2000/svg" xmlns:xlink="http://www.w3.org/1999/xlink">
 <defs>
  <style type="text/css">
*{stroke-linecap:butt;stroke-linejoin:round;}
  </style>
 </defs>
 <g id="figure_1">
  <g id="patch_1">
   <path d="M 0 325.986375 
L 411.285625 325.986375 
L 411.285625 0 
L 0 0 
z
" style="fill:#ffffff;"/>
  </g>
  <g id="axes_1">
   <g id="patch_2">
    <path d="M 46.965625 288.430125 
L 404.085625 288.430125 
L 404.085625 22.318125 
L 46.965625 22.318125 
z
" style="fill:#ffffff;"/>
   </g>
   <g id="matplotlib.axis_1">
    <g id="xtick_1">
     <g id="line2d_1">
      <path clip-path="url(#pba8dc95ff9)" d="M 63.198352 288.430125 
L 63.198352 22.318125 
" style="fill:none;stroke:#b0b0b0;stroke-dasharray:2.96,1.28;stroke-dashoffset:0;stroke-width:0.8;"/>
     </g>
     <g id="line2d_2">
      <defs>
       <path d="M 0 0 
L 0 3.5 
" id="m01dafa4020" style="stroke:#000000;stroke-width:0.8;"/>
      </defs>
      <g>
       <use style="stroke:#000000;stroke-width:0.8;" x="63.198352" xlink:href="#m01dafa4020" y="288.430125"/>
      </g>
     </g>
     <g id="text_1">
      <!-- 0 -->
      <defs>
       <path d="M 31.78125 66.40625 
Q 24.171875 66.40625 20.328125 58.90625 
Q 16.5 51.421875 16.5 36.375 
Q 16.5 21.390625 20.328125 13.890625 
Q 24.171875 6.390625 31.78125 6.390625 
Q 39.453125 6.390625 43.28125 13.890625 
Q 47.125 21.390625 47.125 36.375 
Q 47.125 51.421875 43.28125 58.90625 
Q 39.453125 66.40625 31.78125 66.40625 
z
M 31.78125 74.21875 
Q 44.046875 74.21875 50.515625 64.515625 
Q 56.984375 54.828125 56.984375 36.375 
Q 56.984375 17.96875 50.515625 8.265625 
Q 44.046875 -1.421875 31.78125 -1.421875 
Q 19.53125 -1.421875 13.0625 8.265625 
Q 6.59375 17.96875 6.59375 36.375 
Q 6.59375 54.828125 13.0625 64.515625 
Q 19.53125 74.21875 31.78125 74.21875 
z
" id="DejaVuSans-48"/>
      </defs>
      <g transform="translate(60.017102 303.028562)scale(0.1 -0.1)">
       <use xlink:href="#DejaVuSans-48"/>
      </g>
     </g>
    </g>
    <g id="xtick_2">
     <g id="line2d_3">
      <path clip-path="url(#pba8dc95ff9)" d="M 112.128954 288.430125 
L 112.128954 22.318125 
" style="fill:none;stroke:#b0b0b0;stroke-dasharray:2.96,1.28;stroke-dashoffset:0;stroke-width:0.8;"/>
     </g>
     <g id="line2d_4">
      <g>
       <use style="stroke:#000000;stroke-width:0.8;" x="112.128954" xlink:href="#m01dafa4020" y="288.430125"/>
      </g>
     </g>
     <g id="text_2">
      <!-- 200 -->
      <defs>
       <path d="M 19.1875 8.296875 
L 53.609375 8.296875 
L 53.609375 0 
L 7.328125 0 
L 7.328125 8.296875 
Q 12.9375 14.109375 22.625 23.890625 
Q 32.328125 33.6875 34.8125 36.53125 
Q 39.546875 41.84375 41.421875 45.53125 
Q 43.3125 49.21875 43.3125 52.78125 
Q 43.3125 58.59375 39.234375 62.25 
Q 35.15625 65.921875 28.609375 65.921875 
Q 23.96875 65.921875 18.8125 64.3125 
Q 13.671875 62.703125 7.8125 59.421875 
L 7.8125 69.390625 
Q 13.765625 71.78125 18.9375 73 
Q 24.125 74.21875 28.421875 74.21875 
Q 39.75 74.21875 46.484375 68.546875 
Q 53.21875 62.890625 53.21875 53.421875 
Q 53.21875 48.921875 51.53125 44.890625 
Q 49.859375 40.875 45.40625 35.40625 
Q 44.1875 33.984375 37.640625 27.21875 
Q 31.109375 20.453125 19.1875 8.296875 
z
" id="DejaVuSans-50"/>
      </defs>
      <g transform="translate(102.585204 303.028562)scale(0.1 -0.1)">
       <use xlink:href="#DejaVuSans-50"/>
       <use x="63.623047" xlink:href="#DejaVuSans-48"/>
       <use x="127.246094" xlink:href="#DejaVuSans-48"/>
      </g>
     </g>
    </g>
    <g id="xtick_3">
     <g id="line2d_5">
      <path clip-path="url(#pba8dc95ff9)" d="M 161.059557 288.430125 
L 161.059557 22.318125 
" style="fill:none;stroke:#b0b0b0;stroke-dasharray:2.96,1.28;stroke-dashoffset:0;stroke-width:0.8;"/>
     </g>
     <g id="line2d_6">
      <g>
       <use style="stroke:#000000;stroke-width:0.8;" x="161.059557" xlink:href="#m01dafa4020" y="288.430125"/>
      </g>
     </g>
     <g id="text_3">
      <!-- 400 -->
      <defs>
       <path d="M 37.796875 64.3125 
L 12.890625 25.390625 
L 37.796875 25.390625 
z
M 35.203125 72.90625 
L 47.609375 72.90625 
L 47.609375 25.390625 
L 58.015625 25.390625 
L 58.015625 17.1875 
L 47.609375 17.1875 
L 47.609375 0 
L 37.796875 0 
L 37.796875 17.1875 
L 4.890625 17.1875 
L 4.890625 26.703125 
z
" id="DejaVuSans-52"/>
      </defs>
      <g transform="translate(151.515807 303.028562)scale(0.1 -0.1)">
       <use xlink:href="#DejaVuSans-52"/>
       <use x="63.623047" xlink:href="#DejaVuSans-48"/>
       <use x="127.246094" xlink:href="#DejaVuSans-48"/>
      </g>
     </g>
    </g>
    <g id="xtick_4">
     <g id="line2d_7">
      <path clip-path="url(#pba8dc95ff9)" d="M 209.990159 288.430125 
L 209.990159 22.318125 
" style="fill:none;stroke:#b0b0b0;stroke-dasharray:2.96,1.28;stroke-dashoffset:0;stroke-width:0.8;"/>
     </g>
     <g id="line2d_8">
      <g>
       <use style="stroke:#000000;stroke-width:0.8;" x="209.990159" xlink:href="#m01dafa4020" y="288.430125"/>
      </g>
     </g>
     <g id="text_4">
      <!-- 600 -->
      <defs>
       <path d="M 33.015625 40.375 
Q 26.375 40.375 22.484375 35.828125 
Q 18.609375 31.296875 18.609375 23.390625 
Q 18.609375 15.53125 22.484375 10.953125 
Q 26.375 6.390625 33.015625 6.390625 
Q 39.65625 6.390625 43.53125 10.953125 
Q 47.40625 15.53125 47.40625 23.390625 
Q 47.40625 31.296875 43.53125 35.828125 
Q 39.65625 40.375 33.015625 40.375 
z
M 52.59375 71.296875 
L 52.59375 62.3125 
Q 48.875 64.0625 45.09375 64.984375 
Q 41.3125 65.921875 37.59375 65.921875 
Q 27.828125 65.921875 22.671875 59.328125 
Q 17.53125 52.734375 16.796875 39.40625 
Q 19.671875 43.65625 24.015625 45.921875 
Q 28.375 48.1875 33.59375 48.1875 
Q 44.578125 48.1875 50.953125 41.515625 
Q 57.328125 34.859375 57.328125 23.390625 
Q 57.328125 12.15625 50.6875 5.359375 
Q 44.046875 -1.421875 33.015625 -1.421875 
Q 20.359375 -1.421875 13.671875 8.265625 
Q 6.984375 17.96875 6.984375 36.375 
Q 6.984375 53.65625 15.1875 63.9375 
Q 23.390625 74.21875 37.203125 74.21875 
Q 40.921875 74.21875 44.703125 73.484375 
Q 48.484375 72.75 52.59375 71.296875 
z
" id="DejaVuSans-54"/>
      </defs>
      <g transform="translate(200.446409 303.028562)scale(0.1 -0.1)">
       <use xlink:href="#DejaVuSans-54"/>
       <use x="63.623047" xlink:href="#DejaVuSans-48"/>
       <use x="127.246094" xlink:href="#DejaVuSans-48"/>
      </g>
     </g>
    </g>
    <g id="xtick_5">
     <g id="line2d_9">
      <path clip-path="url(#pba8dc95ff9)" d="M 258.920761 288.430125 
L 258.920761 22.318125 
" style="fill:none;stroke:#b0b0b0;stroke-dasharray:2.96,1.28;stroke-dashoffset:0;stroke-width:0.8;"/>
     </g>
     <g id="line2d_10">
      <g>
       <use style="stroke:#000000;stroke-width:0.8;" x="258.920761" xlink:href="#m01dafa4020" y="288.430125"/>
      </g>
     </g>
     <g id="text_5">
      <!-- 800 -->
      <defs>
       <path d="M 31.78125 34.625 
Q 24.75 34.625 20.71875 30.859375 
Q 16.703125 27.09375 16.703125 20.515625 
Q 16.703125 13.921875 20.71875 10.15625 
Q 24.75 6.390625 31.78125 6.390625 
Q 38.8125 6.390625 42.859375 10.171875 
Q 46.921875 13.96875 46.921875 20.515625 
Q 46.921875 27.09375 42.890625 30.859375 
Q 38.875 34.625 31.78125 34.625 
z
M 21.921875 38.8125 
Q 15.578125 40.375 12.03125 44.71875 
Q 8.5 49.078125 8.5 55.328125 
Q 8.5 64.0625 14.71875 69.140625 
Q 20.953125 74.21875 31.78125 74.21875 
Q 42.671875 74.21875 48.875 69.140625 
Q 55.078125 64.0625 55.078125 55.328125 
Q 55.078125 49.078125 51.53125 44.71875 
Q 48 40.375 41.703125 38.8125 
Q 48.828125 37.15625 52.796875 32.3125 
Q 56.78125 27.484375 56.78125 20.515625 
Q 56.78125 9.90625 50.3125 4.234375 
Q 43.84375 -1.421875 31.78125 -1.421875 
Q 19.734375 -1.421875 13.25 4.234375 
Q 6.78125 9.90625 6.78125 20.515625 
Q 6.78125 27.484375 10.78125 32.3125 
Q 14.796875 37.15625 21.921875 38.8125 
z
M 18.3125 54.390625 
Q 18.3125 48.734375 21.84375 45.5625 
Q 25.390625 42.390625 31.78125 42.390625 
Q 38.140625 42.390625 41.71875 45.5625 
Q 45.3125 48.734375 45.3125 54.390625 
Q 45.3125 60.0625 41.71875 63.234375 
Q 38.140625 66.40625 31.78125 66.40625 
Q 25.390625 66.40625 21.84375 63.234375 
Q 18.3125 60.0625 18.3125 54.390625 
z
" id="DejaVuSans-56"/>
      </defs>
      <g transform="translate(249.377011 303.028562)scale(0.1 -0.1)">
       <use xlink:href="#DejaVuSans-56"/>
       <use x="63.623047" xlink:href="#DejaVuSans-48"/>
       <use x="127.246094" xlink:href="#DejaVuSans-48"/>
      </g>
     </g>
    </g>
    <g id="xtick_6">
     <g id="line2d_11">
      <path clip-path="url(#pba8dc95ff9)" d="M 307.851363 288.430125 
L 307.851363 22.318125 
" style="fill:none;stroke:#b0b0b0;stroke-dasharray:2.96,1.28;stroke-dashoffset:0;stroke-width:0.8;"/>
     </g>
     <g id="line2d_12">
      <g>
       <use style="stroke:#000000;stroke-width:0.8;" x="307.851363" xlink:href="#m01dafa4020" y="288.430125"/>
      </g>
     </g>
     <g id="text_6">
      <!-- 1000 -->
      <defs>
       <path d="M 12.40625 8.296875 
L 28.515625 8.296875 
L 28.515625 63.921875 
L 10.984375 60.40625 
L 10.984375 69.390625 
L 28.421875 72.90625 
L 38.28125 72.90625 
L 38.28125 8.296875 
L 54.390625 8.296875 
L 54.390625 0 
L 12.40625 0 
z
" id="DejaVuSans-49"/>
      </defs>
      <g transform="translate(295.126363 303.028562)scale(0.1 -0.1)">
       <use xlink:href="#DejaVuSans-49"/>
       <use x="63.623047" xlink:href="#DejaVuSans-48"/>
       <use x="127.246094" xlink:href="#DejaVuSans-48"/>
       <use x="190.869141" xlink:href="#DejaVuSans-48"/>
      </g>
     </g>
    </g>
    <g id="xtick_7">
     <g id="line2d_13">
      <path clip-path="url(#pba8dc95ff9)" d="M 356.781965 288.430125 
L 356.781965 22.318125 
" style="fill:none;stroke:#b0b0b0;stroke-dasharray:2.96,1.28;stroke-dashoffset:0;stroke-width:0.8;"/>
     </g>
     <g id="line2d_14">
      <g>
       <use style="stroke:#000000;stroke-width:0.8;" x="356.781965" xlink:href="#m01dafa4020" y="288.430125"/>
      </g>
     </g>
     <g id="text_7">
      <!-- 1200 -->
      <g transform="translate(344.056965 303.028562)scale(0.1 -0.1)">
       <use xlink:href="#DejaVuSans-49"/>
       <use x="63.623047" xlink:href="#DejaVuSans-50"/>
       <use x="127.246094" xlink:href="#DejaVuSans-48"/>
       <use x="190.869141" xlink:href="#DejaVuSans-48"/>
      </g>
     </g>
    </g>
    <g id="text_8">
     <!-- Day -->
     <defs>
      <path d="M 19.671875 64.796875 
L 19.671875 8.109375 
L 31.59375 8.109375 
Q 46.6875 8.109375 53.6875 14.9375 
Q 60.6875 21.78125 60.6875 36.53125 
Q 60.6875 51.171875 53.6875 57.984375 
Q 46.6875 64.796875 31.59375 64.796875 
z
M 9.8125 72.90625 
L 30.078125 72.90625 
Q 51.265625 72.90625 61.171875 64.09375 
Q 71.09375 55.28125 71.09375 36.53125 
Q 71.09375 17.671875 61.125 8.828125 
Q 51.171875 0 30.078125 0 
L 9.8125 0 
z
" id="DejaVuSans-68"/>
      <path d="M 34.28125 27.484375 
Q 23.390625 27.484375 19.1875 25 
Q 14.984375 22.515625 14.984375 16.5 
Q 14.984375 11.71875 18.140625 8.90625 
Q 21.296875 6.109375 26.703125 6.109375 
Q 34.1875 6.109375 38.703125 11.40625 
Q 43.21875 16.703125 43.21875 25.484375 
L 43.21875 27.484375 
z
M 52.203125 31.203125 
L 52.203125 0 
L 43.21875 0 
L 43.21875 8.296875 
Q 40.140625 3.328125 35.546875 0.953125 
Q 30.953125 -1.421875 24.3125 -1.421875 
Q 15.921875 -1.421875 10.953125 3.296875 
Q 6 8.015625 6 15.921875 
Q 6 25.140625 12.171875 29.828125 
Q 18.359375 34.515625 30.609375 34.515625 
L 43.21875 34.515625 
L 43.21875 35.40625 
Q 43.21875 41.609375 39.140625 45 
Q 35.0625 48.390625 27.6875 48.390625 
Q 23 48.390625 18.546875 47.265625 
Q 14.109375 46.140625 10.015625 43.890625 
L 10.015625 52.203125 
Q 14.9375 54.109375 19.578125 55.046875 
Q 24.21875 56 28.609375 56 
Q 40.484375 56 46.34375 49.84375 
Q 52.203125 43.703125 52.203125 31.203125 
z
" id="DejaVuSans-97"/>
      <path d="M 32.171875 -5.078125 
Q 28.375 -14.84375 24.75 -17.8125 
Q 21.140625 -20.796875 15.09375 -20.796875 
L 7.90625 -20.796875 
L 7.90625 -13.28125 
L 13.1875 -13.28125 
Q 16.890625 -13.28125 18.9375 -11.515625 
Q 21 -9.765625 23.484375 -3.21875 
L 25.09375 0.875 
L 2.984375 54.6875 
L 12.5 54.6875 
L 29.59375 11.921875 
L 46.6875 54.6875 
L 56.203125 54.6875 
z
" id="DejaVuSans-121"/>
     </defs>
     <g transform="translate(215.652188 316.706687)scale(0.1 -0.1)">
      <use xlink:href="#DejaVuSans-68"/>
      <use x="77.001953" xlink:href="#DejaVuSans-97"/>
      <use x="138.28125" xlink:href="#DejaVuSans-121"/>
     </g>
    </g>
   </g>
   <g id="matplotlib.axis_2">
    <g id="ytick_1">
     <g id="line2d_15">
      <path clip-path="url(#pba8dc95ff9)" d="M 46.965625 265.681897 
L 404.085625 265.681897 
" style="fill:none;stroke:#b0b0b0;stroke-dasharray:2.96,1.28;stroke-dashoffset:0;stroke-width:0.8;"/>
     </g>
     <g id="line2d_16">
      <defs>
       <path d="M 0 0 
L -3.5 0 
" id="m725a840504" style="stroke:#000000;stroke-width:0.8;"/>
      </defs>
      <g>
       <use style="stroke:#000000;stroke-width:0.8;" x="46.965625" xlink:href="#m725a840504" y="265.681897"/>
      </g>
     </g>
     <g id="text_9">
      <!-- 25 -->
      <defs>
       <path d="M 10.796875 72.90625 
L 49.515625 72.90625 
L 49.515625 64.59375 
L 19.828125 64.59375 
L 19.828125 46.734375 
Q 21.96875 47.46875 24.109375 47.828125 
Q 26.265625 48.1875 28.421875 48.1875 
Q 40.625 48.1875 47.75 41.5 
Q 54.890625 34.8125 54.890625 23.390625 
Q 54.890625 11.625 47.5625 5.09375 
Q 40.234375 -1.421875 26.90625 -1.421875 
Q 22.3125 -1.421875 17.546875 -0.640625 
Q 12.796875 0.140625 7.71875 1.703125 
L 7.71875 11.625 
Q 12.109375 9.234375 16.796875 8.0625 
Q 21.484375 6.890625 26.703125 6.890625 
Q 35.15625 6.890625 40.078125 11.328125 
Q 45.015625 15.765625 45.015625 23.390625 
Q 45.015625 31 40.078125 35.4375 
Q 35.15625 39.890625 26.703125 39.890625 
Q 22.75 39.890625 18.8125 39.015625 
Q 14.890625 38.140625 10.796875 36.28125 
z
" id="DejaVuSans-53"/>
      </defs>
      <g transform="translate(27.240625 269.481116)scale(0.1 -0.1)">
       <use xlink:href="#DejaVuSans-50"/>
       <use x="63.623047" xlink:href="#DejaVuSans-53"/>
      </g>
     </g>
    </g>
    <g id="ytick_2">
     <g id="line2d_17">
      <path clip-path="url(#pba8dc95ff9)" d="M 46.965625 229.051128 
L 404.085625 229.051128 
" style="fill:none;stroke:#b0b0b0;stroke-dasharray:2.96,1.28;stroke-dashoffset:0;stroke-width:0.8;"/>
     </g>
     <g id="line2d_18">
      <g>
       <use style="stroke:#000000;stroke-width:0.8;" x="46.965625" xlink:href="#m725a840504" y="229.051128"/>
      </g>
     </g>
     <g id="text_10">
      <!-- 50 -->
      <g transform="translate(27.240625 232.850347)scale(0.1 -0.1)">
       <use xlink:href="#DejaVuSans-53"/>
       <use x="63.623047" xlink:href="#DejaVuSans-48"/>
      </g>
     </g>
    </g>
    <g id="ytick_3">
     <g id="line2d_19">
      <path clip-path="url(#pba8dc95ff9)" d="M 46.965625 192.420358 
L 404.085625 192.420358 
" style="fill:none;stroke:#b0b0b0;stroke-dasharray:2.96,1.28;stroke-dashoffset:0;stroke-width:0.8;"/>
     </g>
     <g id="line2d_20">
      <g>
       <use style="stroke:#000000;stroke-width:0.8;" x="46.965625" xlink:href="#m725a840504" y="192.420358"/>
      </g>
     </g>
     <g id="text_11">
      <!-- 75 -->
      <defs>
       <path d="M 8.203125 72.90625 
L 55.078125 72.90625 
L 55.078125 68.703125 
L 28.609375 0 
L 18.3125 0 
L 43.21875 64.59375 
L 8.203125 64.59375 
z
" id="DejaVuSans-55"/>
      </defs>
      <g transform="translate(27.240625 196.219577)scale(0.1 -0.1)">
       <use xlink:href="#DejaVuSans-55"/>
       <use x="63.623047" xlink:href="#DejaVuSans-53"/>
      </g>
     </g>
    </g>
    <g id="ytick_4">
     <g id="line2d_21">
      <path clip-path="url(#pba8dc95ff9)" d="M 46.965625 155.789589 
L 404.085625 155.789589 
" style="fill:none;stroke:#b0b0b0;stroke-dasharray:2.96,1.28;stroke-dashoffset:0;stroke-width:0.8;"/>
     </g>
     <g id="line2d_22">
      <g>
       <use style="stroke:#000000;stroke-width:0.8;" x="46.965625" xlink:href="#m725a840504" y="155.789589"/>
      </g>
     </g>
     <g id="text_12">
      <!-- 100 -->
      <g transform="translate(20.878125 159.588808)scale(0.1 -0.1)">
       <use xlink:href="#DejaVuSans-49"/>
       <use x="63.623047" xlink:href="#DejaVuSans-48"/>
       <use x="127.246094" xlink:href="#DejaVuSans-48"/>
      </g>
     </g>
    </g>
    <g id="ytick_5">
     <g id="line2d_23">
      <path clip-path="url(#pba8dc95ff9)" d="M 46.965625 119.15882 
L 404.085625 119.15882 
" style="fill:none;stroke:#b0b0b0;stroke-dasharray:2.96,1.28;stroke-dashoffset:0;stroke-width:0.8;"/>
     </g>
     <g id="line2d_24">
      <g>
       <use style="stroke:#000000;stroke-width:0.8;" x="46.965625" xlink:href="#m725a840504" y="119.15882"/>
      </g>
     </g>
     <g id="text_13">
      <!-- 125 -->
      <g transform="translate(20.878125 122.958038)scale(0.1 -0.1)">
       <use xlink:href="#DejaVuSans-49"/>
       <use x="63.623047" xlink:href="#DejaVuSans-50"/>
       <use x="127.246094" xlink:href="#DejaVuSans-53"/>
      </g>
     </g>
    </g>
    <g id="ytick_6">
     <g id="line2d_25">
      <path clip-path="url(#pba8dc95ff9)" d="M 46.965625 82.52805 
L 404.085625 82.52805 
" style="fill:none;stroke:#b0b0b0;stroke-dasharray:2.96,1.28;stroke-dashoffset:0;stroke-width:0.8;"/>
     </g>
     <g id="line2d_26">
      <g>
       <use style="stroke:#000000;stroke-width:0.8;" x="46.965625" xlink:href="#m725a840504" y="82.52805"/>
      </g>
     </g>
     <g id="text_14">
      <!-- 150 -->
      <g transform="translate(20.878125 86.327269)scale(0.1 -0.1)">
       <use xlink:href="#DejaVuSans-49"/>
       <use x="63.623047" xlink:href="#DejaVuSans-53"/>
       <use x="127.246094" xlink:href="#DejaVuSans-48"/>
      </g>
     </g>
    </g>
    <g id="ytick_7">
     <g id="line2d_27">
      <path clip-path="url(#pba8dc95ff9)" d="M 46.965625 45.897281 
L 404.085625 45.897281 
" style="fill:none;stroke:#b0b0b0;stroke-dasharray:2.96,1.28;stroke-dashoffset:0;stroke-width:0.8;"/>
     </g>
     <g id="line2d_28">
      <g>
       <use style="stroke:#000000;stroke-width:0.8;" x="46.965625" xlink:href="#m725a840504" y="45.897281"/>
      </g>
     </g>
     <g id="text_15">
      <!-- 175 -->
      <g transform="translate(20.878125 49.6965)scale(0.1 -0.1)">
       <use xlink:href="#DejaVuSans-49"/>
       <use x="63.623047" xlink:href="#DejaVuSans-55"/>
       <use x="127.246094" xlink:href="#DejaVuSans-53"/>
      </g>
     </g>
    </g>
    <g id="text_16">
     <!-- Price $ -->
     <defs>
      <path d="M 19.671875 64.796875 
L 19.671875 37.40625 
L 32.078125 37.40625 
Q 38.96875 37.40625 42.71875 40.96875 
Q 46.484375 44.53125 46.484375 51.125 
Q 46.484375 57.671875 42.71875 61.234375 
Q 38.96875 64.796875 32.078125 64.796875 
z
M 9.8125 72.90625 
L 32.078125 72.90625 
Q 44.34375 72.90625 50.609375 67.359375 
Q 56.890625 61.8125 56.890625 51.125 
Q 56.890625 40.328125 50.609375 34.8125 
Q 44.34375 29.296875 32.078125 29.296875 
L 19.671875 29.296875 
L 19.671875 0 
L 9.8125 0 
z
" id="DejaVuSans-80"/>
      <path d="M 41.109375 46.296875 
Q 39.59375 47.171875 37.8125 47.578125 
Q 36.03125 48 33.890625 48 
Q 26.265625 48 22.1875 43.046875 
Q 18.109375 38.09375 18.109375 28.8125 
L 18.109375 0 
L 9.078125 0 
L 9.078125 54.6875 
L 18.109375 54.6875 
L 18.109375 46.1875 
Q 20.953125 51.171875 25.484375 53.578125 
Q 30.03125 56 36.53125 56 
Q 37.453125 56 38.578125 55.875 
Q 39.703125 55.765625 41.0625 55.515625 
z
" id="DejaVuSans-114"/>
      <path d="M 9.421875 54.6875 
L 18.40625 54.6875 
L 18.40625 0 
L 9.421875 0 
z
M 9.421875 75.984375 
L 18.40625 75.984375 
L 18.40625 64.59375 
L 9.421875 64.59375 
z
" id="DejaVuSans-105"/>
      <path d="M 48.78125 52.59375 
L 48.78125 44.1875 
Q 44.96875 46.296875 41.140625 47.34375 
Q 37.3125 48.390625 33.40625 48.390625 
Q 24.65625 48.390625 19.8125 42.84375 
Q 14.984375 37.3125 14.984375 27.296875 
Q 14.984375 17.28125 19.8125 11.734375 
Q 24.65625 6.203125 33.40625 6.203125 
Q 37.3125 6.203125 41.140625 7.25 
Q 44.96875 8.296875 48.78125 10.40625 
L 48.78125 2.09375 
Q 45.015625 0.34375 40.984375 -0.53125 
Q 36.96875 -1.421875 32.421875 -1.421875 
Q 20.0625 -1.421875 12.78125 6.34375 
Q 5.515625 14.109375 5.515625 27.296875 
Q 5.515625 40.671875 12.859375 48.328125 
Q 20.21875 56 33.015625 56 
Q 37.15625 56 41.109375 55.140625 
Q 45.0625 54.296875 48.78125 52.59375 
z
" id="DejaVuSans-99"/>
      <path d="M 56.203125 29.59375 
L 56.203125 25.203125 
L 14.890625 25.203125 
Q 15.484375 15.921875 20.484375 11.0625 
Q 25.484375 6.203125 34.421875 6.203125 
Q 39.59375 6.203125 44.453125 7.46875 
Q 49.3125 8.734375 54.109375 11.28125 
L 54.109375 2.78125 
Q 49.265625 0.734375 44.1875 -0.34375 
Q 39.109375 -1.421875 33.890625 -1.421875 
Q 20.796875 -1.421875 13.15625 6.1875 
Q 5.515625 13.8125 5.515625 26.8125 
Q 5.515625 40.234375 12.765625 48.109375 
Q 20.015625 56 32.328125 56 
Q 43.359375 56 49.78125 48.890625 
Q 56.203125 41.796875 56.203125 29.59375 
z
M 47.21875 32.234375 
Q 47.125 39.59375 43.09375 43.984375 
Q 39.0625 48.390625 32.421875 48.390625 
Q 24.90625 48.390625 20.390625 44.140625 
Q 15.875 39.890625 15.1875 32.171875 
z
" id="DejaVuSans-101"/>
      <path id="DejaVuSans-32"/>
      <path d="M 33.796875 -14.703125 
L 28.90625 -14.703125 
L 28.859375 0 
Q 23.734375 0.09375 18.609375 1.1875 
Q 13.484375 2.296875 8.296875 4.5 
L 8.296875 13.28125 
Q 13.28125 10.15625 18.375 8.5625 
Q 23.484375 6.984375 28.90625 6.9375 
L 28.90625 29.203125 
Q 18.109375 30.953125 13.203125 35.15625 
Q 8.296875 39.359375 8.296875 46.6875 
Q 8.296875 54.640625 13.625 59.21875 
Q 18.953125 63.8125 28.90625 64.5 
L 28.90625 75.984375 
L 33.796875 75.984375 
L 33.796875 64.65625 
Q 38.328125 64.453125 42.578125 63.6875 
Q 46.828125 62.9375 50.875 61.625 
L 50.875 53.078125 
Q 46.828125 55.125 42.546875 56.25 
Q 38.28125 57.375 33.796875 57.5625 
L 33.796875 36.71875 
Q 44.875 35.015625 50.09375 30.609375 
Q 55.328125 26.21875 55.328125 18.609375 
Q 55.328125 10.359375 49.78125 5.59375 
Q 44.234375 0.828125 33.796875 0.09375 
z
M 28.90625 37.59375 
L 28.90625 57.625 
Q 23.25 56.984375 20.265625 54.390625 
Q 17.28125 51.8125 17.28125 47.515625 
Q 17.28125 43.3125 20.03125 40.96875 
Q 22.796875 38.625 28.90625 37.59375 
z
M 33.796875 28.21875 
L 33.796875 7.078125 
Q 39.984375 7.90625 43.140625 10.59375 
Q 46.296875 13.28125 46.296875 17.671875 
Q 46.296875 21.96875 43.28125 24.5 
Q 40.28125 27.046875 33.796875 28.21875 
z
" id="DejaVuSans-36"/>
     </defs>
     <g transform="translate(14.798438 172.342094)rotate(-90)scale(0.1 -0.1)">
      <use xlink:href="#DejaVuSans-80"/>
      <use x="58.552734" xlink:href="#DejaVuSans-114"/>
      <use x="99.666016" xlink:href="#DejaVuSans-105"/>
      <use x="127.449219" xlink:href="#DejaVuSans-99"/>
      <use x="182.429688" xlink:href="#DejaVuSans-101"/>
      <use x="243.953125" xlink:href="#DejaVuSans-32"/>
      <use x="275.740234" xlink:href="#DejaVuSans-36"/>
     </g>
    </g>
   </g>
   <g id="line2d_29">
    <path clip-path="url(#pba8dc95ff9)" d="M 63.198352 268.176932 
L 63.443005 270.406306 
L 63.687658 271.591686 
L 63.932311 271.428643 
L 64.176964 271.712624 
L 64.66627 269.272636 
L 64.910923 271.123927 
L 65.155576 271.572184 
L 65.400229 271.512568 
L 65.644882 270.690063 
L 65.889535 271.122497 
L 66.134188 272.911103 
L 66.378841 271.911347 
L 66.868147 274.88032 
L 67.1128 273.507742 
L 67.357453 274.617908 
L 67.602106 274.157595 
L 68.091412 274.007885 
L 68.336066 274.273508 
L 68.580719 273.885681 
L 68.825372 274.141833 
L 69.070025 274.066792 
L 69.314678 275.493948 
L 69.559331 275.860711 
L 69.803984 274.545019 
L 70.048637 274.021998 
L 70.29329 274.028762 
L 70.537943 274.28064 
L 70.782596 273.344148 
L 71.027249 271.164604 
L 71.271902 271.624582 
L 71.516555 269.716969 
L 71.761208 270.542254 
L 72.005861 270.001453 
L 72.250514 267.906673 
L 72.495167 269.092945 
L 72.73982 268.66284 
L 72.984473 271.767213 
L 73.229126 272.341874 
L 73.473779 271.778428 
L 73.718432 272.296192 
L 73.963085 270.346108 
L 74.452391 269.684813 
L 74.697044 270.369273 
L 74.941697 270.144241 
L 75.18635 271.69106 
L 75.431003 272.364154 
L 75.675656 272.570065 
L 75.920309 273.451417 
L 76.164962 273.274596 
L 76.409615 273.65635 
L 76.898921 273.752393 
L 77.143574 273.182036 
L 77.388227 274.559035 
L 77.63288 274.46307 
L 77.877533 273.983988 
L 78.122186 273.759408 
L 78.366839 268.268185 
L 78.856145 270.514914 
L 79.100798 271.626771 
L 79.345451 271.333835 
L 79.590104 271.353141 
L 79.834757 271.252235 
L 80.07941 271.38981 
L 80.813369 274.1424 
L 81.058022 272.798482 
L 81.302675 273.191227 
L 81.547328 269.497227 
L 81.791981 270.029152 
L 82.036634 267.956061 
L 82.281287 269.006625 
L 82.52594 268.578174 
L 82.770593 266.783282 
L 83.015246 267.372541 
L 83.259899 264.355502 
L 83.504552 264.236559 
L 83.749205 263.95933 
L 84.238511 261.521639 
L 84.483164 263.010706 
L 84.727817 262.188439 
L 84.97247 261.826771 
L 85.217123 263.035084 
L 85.706429 261.578646 
L 85.951082 261.40019 
L 86.195735 262.113385 
L 86.440388 260.970227 
L 86.685041 263.225404 
L 86.929694 263.118042 
L 87.174347 261.599682 
L 87.419 262.125863 
L 87.663653 262.247712 
L 87.908306 264.005183 
L 88.152959 262.761818 
L 88.642265 264.189865 
L 88.886918 264.297428 
L 89.131571 263.149648 
L 89.376224 261.081618 
L 89.620877 261.617324 
L 90.110183 259.271415 
L 90.354836 259.839757 
L 90.599489 257.41189 
L 90.844143 256.408705 
L 91.088796 256.031848 
L 91.578102 258.429121 
L 91.822755 258.607625 
L 92.067408 258.134112 
L 92.312061 258.845488 
L 92.556714 257.121473 
L 92.801367 257.051876 
L 93.04602 256.788654 
L 93.290673 256.07087 
L 93.535326 254.601022 
L 93.779979 257.385838 
L 94.024632 256.440682 
L 94.269285 256.816154 
L 94.758591 261.081208 
L 95.247897 259.533402 
L 95.49255 260.134409 
L 95.737203 260.283926 
L 95.981856 260.710417 
L 96.226509 262.119106 
L 96.715815 259.992983 
L 96.960468 260.780511 
L 97.205121 259.904455 
L 97.449774 260.515447 
L 97.694427 262.252958 
L 97.93908 262.391078 
L 98.183733 262.157139 
L 98.428386 262.083755 
L 98.673039 262.895819 
L 99.162345 261.518504 
L 99.651651 261.947069 
L 99.896304 261.931897 
L 100.140957 260.234758 
L 100.38561 261.424177 
L 100.630263 261.018578 
L 100.874916 261.39481 
L 101.119569 262.478779 
L 101.364222 262.50499 
L 101.608875 263.135395 
L 101.853528 263.296429 
L 102.098181 263.153077 
L 102.342834 264.248462 
L 102.587487 264.409311 
L 102.83214 264.365909 
L 103.076793 265.29871 
L 103.321446 264.920295 
L 103.566099 263.624608 
L 103.810752 264.582063 
L 104.300058 264.909086 
L 104.789364 262.190387 
L 105.034017 261.919446 
L 105.27867 262.842188 
L 105.523323 263.238011 
L 105.767976 261.68957 
L 106.012629 260.952268 
L 106.501935 263.623907 
L 106.746588 262.920541 
L 106.991241 263.314633 
L 107.235894 264.790677 
L 107.480547 264.69109 
L 107.7252 264.241215 
L 107.969853 264.178793 
L 108.214506 264.000597 
L 108.459159 263.967518 
L 108.703812 262.823807 
L 108.948465 262.731417 
L 109.193118 261.522036 
L 109.437771 262.141961 
L 109.682424 259.803231 
L 110.416383 262.963705 
L 110.661036 262.548453 
L 110.905689 262.670032 
L 111.150342 263.266777 
L 111.639648 262.665812 
L 112.128954 263.996318 
L 112.373607 263.930757 
L 112.61826 264.653996 
L 112.862913 264.617673 
L 113.107566 265.404341 
L 113.35222 265.623206 
L 113.596873 266.740199 
L 113.841526 266.991924 
L 114.086179 267.915728 
L 114.330832 266.180207 
L 114.575485 266.468967 
L 115.309444 268.691446 
L 115.554097 268.548894 
L 115.79875 268.095936 
L 116.043403 266.541661 
L 116.532709 267.442006 
L 117.022015 267.648331 
L 117.266668 267.160227 
L 117.755974 266.8293 
L 118.000627 267.369092 
L 118.24528 266.407691 
L 118.489933 267.257343 
L 118.734586 266.579691 
L 118.979239 266.882433 
L 119.223892 266.17058 
L 119.468545 265.821848 
L 119.713198 265.787546 
L 119.957851 266.750886 
L 120.202504 266.431228 
L 120.447157 266.335763 
L 120.69181 265.915129 
L 120.936463 264.9505 
L 121.181116 264.52732 
L 121.425769 264.567262 
L 121.670422 264.358434 
L 121.915075 263.860378 
L 122.159728 263.802041 
L 122.404381 263.27461 
L 122.893687 264.607051 
L 123.627646 263.496384 
L 123.872299 252.036751 
L 124.116952 252.721415 
L 124.361605 250.751354 
L 124.606258 247.620462 
L 124.850911 248.688917 
L 125.340217 246.896342 
L 125.58487 245.136538 
L 125.829523 246.221359 
L 126.074176 245.734421 
L 126.318829 246.166427 
L 126.563482 246.168288 
L 126.808135 246.473928 
L 127.052788 248.268772 
L 127.297441 248.646678 
L 127.542094 248.715763 
L 128.276053 246.061323 
L 128.520706 246.247831 
L 128.765359 245.896659 
L 129.010012 242.85797 
L 129.254665 241.835052 
L 129.499318 244.525549 
L 129.988624 241.904461 
L 130.233277 241.976542 
L 130.47793 241.119143 
L 130.722583 241.28175 
L 130.967236 239.978534 
L 131.211889 238.055995 
L 131.456542 238.025381 
L 131.701195 238.745448 
L 131.945848 236.500238 
L 132.435154 237.564674 
L 132.679807 240.208924 
L 132.92446 236.20121 
L 133.169113 236.074554 
L 133.413766 235.06894 
L 133.658419 232.725518 
L 133.903072 233.32705 
L 134.637031 228.498637 
L 134.881684 227.279782 
L 135.126337 228.956918 
L 135.37099 228.640071 
L 135.615643 228.726651 
L 135.860297 230.439309 
L 136.10495 227.412161 
L 136.349603 228.367649 
L 136.594256 233.643187 
L 136.838909 233.765221 
L 137.083562 229.997516 
L 137.328215 230.219365 
L 137.572868 229.710902 
L 137.817521 229.72463 
L 138.55148 222.65973 
L 138.796133 223.491603 
L 139.285439 226.445741 
L 139.530092 225.451619 
L 139.774745 226.19927 
L 140.019398 228.882294 
L 140.264051 229.976936 
L 140.508704 230.517806 
L 140.753357 228.525572 
L 140.99801 229.277231 
L 141.242663 231.764083 
L 141.487316 228.798157 
L 141.731969 230.271062 
L 141.976622 232.523064 
L 142.221275 232.43773 
L 142.465928 234.497814 
L 142.710581 233.880816 
L 142.955234 230.553657 
L 143.199887 230.351348 
L 143.44454 230.534289 
L 143.689193 235.348047 
L 143.933846 234.241713 
L 144.178499 234.118517 
L 144.423152 233.691558 
L 144.667805 234.455642 
L 144.912458 236.607202 
L 145.157111 234.82764 
L 145.646417 232.878958 
L 145.89107 232.924165 
L 146.135723 233.674253 
L 146.380376 230.647766 
L 146.869682 231.730938 
L 147.114335 230.22676 
L 147.358988 228.021676 
L 147.603641 229.688628 
L 147.848294 225.783798 
L 148.092947 223.686483 
L 148.3376 223.235496 
L 148.826906 220.713548 
L 149.071559 221.584026 
L 149.316212 221.51233 
L 149.560865 217.375746 
L 149.805518 217.222289 
L 150.050171 217.730775 
L 150.539477 223.684706 
L 150.78413 221.930519 
L 151.028783 221.853055 
L 151.273436 222.101466 
L 151.518089 218.103141 
L 151.762742 217.074192 
L 152.007395 216.764617 
L 152.252048 218.311593 
L 152.496701 217.258799 
L 152.741354 220.513955 
L 152.986007 217.933782 
L 153.23066 217.535609 
L 153.719966 219.827766 
L 153.964619 216.654897 
L 154.453925 219.687756 
L 154.698578 222.620375 
L 154.943231 223.789826 
L 155.187884 221.728417 
L 155.432537 224.025895 
L 155.67719 213.133265 
L 155.921843 210.496013 
L 156.166496 212.458232 
L 156.411149 210.99261 
L 156.655802 211.406428 
L 156.900455 211.41484 
L 157.145108 208.189856 
L 157.389761 209.348859 
L 157.634414 207.473919 
L 157.879067 207.997401 
L 158.12372 203.585924 
L 158.368374 203.958525 
L 158.613027 203.722127 
L 158.85768 202.838609 
L 159.102333 200.625425 
L 159.346986 201.680192 
L 159.591639 198.573898 
L 160.080945 200.887021 
L 160.325598 201.212749 
L 160.570251 201.795501 
L 160.814904 203.309036 
L 161.059557 201.149958 
L 161.30421 196.941086 
L 161.793516 199.737312 
L 162.038169 196.834339 
L 162.282822 199.567103 
L 162.527475 197.937991 
L 163.016781 203.427174 
L 163.261434 201.852189 
L 163.506087 201.01399 
L 163.75074 201.840217 
L 163.995393 203.969939 
L 164.240046 203.785779 
L 164.484699 208.192695 
L 164.729352 207.08275 
L 164.974005 213.390865 
L 165.218658 212.691478 
L 165.463311 213.886456 
L 165.707964 213.495946 
L 165.952617 210.355121 
L 166.19727 210.383007 
L 166.686576 219.152838 
L 166.931229 218.878968 
L 167.175882 216.476013 
L 167.420535 210.864881 
L 167.665188 215.621895 
L 167.909841 216.603748 
L 168.154494 215.83787 
L 168.6438 214.920921 
L 168.888453 215.75409 
L 169.377759 209.653454 
L 169.622412 212.234175 
L 169.867065 212.947334 
L 170.356371 220.104553 
L 171.09033 212.464006 
L 171.334983 213.531751 
L 171.579636 212.385497 
L 171.824289 216.155611 
L 172.313595 218.970199 
L 172.558248 217.857906 
L 172.802901 214.589877 
L 173.047554 214.620647 
L 173.292207 215.402936 
L 173.53686 217.19034 
L 173.781513 216.540543 
L 174.026166 215.40193 
L 174.270819 216.40396 
L 174.515472 213.626934 
L 174.760125 213.412596 
L 175.004778 212.121493 
L 175.249431 208.981953 
L 175.738737 209.042811 
L 176.228043 209.859491 
L 176.472696 210.275768 
L 176.717349 209.415809 
L 176.962002 209.658529 
L 177.206655 210.897629 
L 177.451308 210.32638 
L 177.695961 206.122109 
L 177.940614 205.937826 
L 178.185267 208.053351 
L 178.42992 207.986971 
L 178.674573 208.40336 
L 178.919226 207.824889 
L 179.163879 206.139738 
L 179.408532 207.935683 
L 179.653185 207.800687 
L 180.142491 205.952358 
L 180.387144 203.740561 
L 180.631798 204.119422 
L 180.876451 203.401261 
L 181.121104 203.756379 
L 181.365757 202.660597 
L 181.61041 205.018624 
L 181.855063 205.365257 
L 182.099716 206.82349 
L 182.344369 210.274628 
L 182.589022 207.225626 
L 182.833675 207.339281 
L 183.322981 202.989165 
L 183.567634 204.163321 
L 183.812287 203.283738 
L 184.05694 205.084591 
L 184.301593 201.988705 
L 184.546246 200.659342 
L 184.790899 200.907277 
L 185.035552 197.797552 
L 185.280205 192.424159 
L 185.524858 192.343683 
L 185.769511 192.789617 
L 186.014164 194.646398 
L 186.258817 193.012579 
L 186.50347 196.136725 
L 186.748123 196.386001 
L 186.992776 194.498614 
L 187.237429 195.872111 
L 187.482082 196.146093 
L 187.726735 194.937036 
L 187.971388 195.125354 
L 188.216041 194.437655 
L 188.460694 195.435365 
L 188.705347 193.881319 
L 188.95 193.09253 
L 189.194653 194.219724 
L 189.683959 191.620994 
L 189.928612 192.501506 
L 190.173265 192.897515 
L 190.417918 192.905598 
L 190.662571 192.159802 
L 190.907224 190.812229 
L 191.39653 194.052869 
L 191.641183 192.565829 
L 191.885836 189.730432 
L 192.130489 191.21622 
L 192.375142 191.119222 
L 192.619795 189.075699 
L 192.864448 188.048779 
L 193.109101 190.107572 
L 193.598407 188.074401 
L 193.84306 188.856046 
L 194.087713 193.257932 
L 194.332366 190.67597 
L 194.821672 189.419996 
L 195.066325 188.083277 
L 195.310978 189.803698 
L 195.555631 187.47165 
L 195.800284 187.063723 
L 196.044937 189.197247 
L 196.28959 186.6746 
L 196.534243 186.382564 
L 196.778896 186.593028 
L 197.023549 190.310724 
L 197.512855 188.46718 
L 197.757508 188.384602 
L 198.002161 190.653713 
L 198.246814 188.546382 
L 198.491467 190.840802 
L 198.73612 195.360758 
L 198.980773 194.895987 
L 199.225426 193.825425 
L 199.470079 194.398418 
L 199.714732 195.337182 
L 199.959385 190.05758 
L 200.204038 188.786592 
L 200.448691 186.45422 
L 200.693344 187.099976 
L 200.937997 184.841127 
L 201.18265 183.976646 
L 201.427303 184.613582 
L 201.671956 184.153048 
L 201.916609 191.123615 
L 202.161262 193.853473 
L 202.405915 192.1245 
L 202.650568 193.959873 
L 202.895221 191.110435 
L 203.139875 192.299337 
L 203.629181 190.919814 
L 204.118487 192.702054 
L 204.36314 192.228463 
L 204.607793 193.001758 
L 204.852446 192.222918 
L 205.097099 193.100176 
L 205.341752 193.145395 
L 205.586405 194.544178 
L 206.320364 193.55303 
L 206.80967 188.393657 
L 207.054323 188.175513 
L 207.298976 192.154448 
L 207.543629 191.862703 
L 207.788282 192.552023 
L 208.032935 192.079807 
L 208.277588 190.651231 
L 208.766894 189.92937 
L 209.011547 190.798423 
L 209.2562 188.393634 
L 209.500853 188.305344 
L 209.745506 189.782033 
L 209.990159 192.547506 
L 210.234812 190.6296 
L 210.724118 185.151105 
L 210.968771 182.757596 
L 211.213424 183.92737 
L 211.70273 183.72595 
L 212.436689 188.012369 
L 212.681342 187.438315 
L 213.170648 190.550018 
L 213.415301 190.587289 
L 213.659954 187.939752 
L 213.904607 188.125555 
L 214.14926 189.904732 
L 214.638566 190.213871 
L 214.883219 193.462001 
L 215.372525 190.141522 
L 215.617178 189.466992 
L 215.861831 188.125611 
L 216.106484 187.884193 
L 216.351137 188.387564 
L 216.59579 190.97061 
L 216.840443 190.306041 
L 217.085096 187.705902 
L 217.329749 190.778346 
L 217.574402 192.180036 
L 218.063708 191.206931 
L 218.308361 191.452462 
L 218.553014 192.838011 
L 218.797667 193.085074 
L 219.286973 190.387612 
L 219.531626 190.371861 
L 219.776279 191.474809 
L 220.020932 191.21271 
L 220.265585 189.998165 
L 220.510238 185.939111 
L 220.754891 185.325573 
L 220.999544 186.844674 
L 221.244197 187.338186 
L 221.733503 184.335375 
L 221.978156 186.467736 
L 222.222809 185.526076 
L 222.467462 185.791752 
L 222.712115 183.615515 
L 222.956768 183.195548 
L 223.690727 188.518077 
L 223.93538 188.80345 
L 224.180033 186.871671 
L 224.424686 187.599167 
L 224.669339 187.744905 
L 225.158645 183.690245 
L 225.647952 179.342253 
L 226.137258 177.368486 
L 226.381911 180.729433 
L 226.626564 180.55264 
L 226.871217 180.092989 
L 227.11587 180.248531 
L 227.360523 181.761585 
L 227.605176 182.527547 
L 227.849829 182.568785 
L 228.094482 181.443234 
L 228.339135 181.579448 
L 228.583788 181.546448 
L 229.073094 181.97642 
L 229.317747 180.548392 
L 229.5624 180.032757 
L 229.807053 181.275228 
L 230.051706 181.723074 
L 230.296359 183.888043 
L 230.541012 180.833608 
L 230.785665 180.1021 
L 231.030318 178.725394 
L 231.274971 181.805562 
L 231.519624 182.941543 
L 231.764277 182.402702 
L 232.00893 184.381588 
L 232.253583 184.621273 
L 232.498236 187.08863 
L 232.742889 186.763974 
L 232.987542 187.02329 
L 233.232195 188.884519 
L 233.721501 187.676368 
L 233.966154 187.524861 
L 234.45546 188.979818 
L 234.700113 187.559649 
L 234.944766 183.243215 
L 235.189419 184.666358 
L 235.434072 183.98085 
L 235.678725 184.675312 
L 235.923378 184.756761 
L 236.168031 184.678621 
L 236.412684 184.47416 
L 236.657337 186.306257 
L 236.90199 184.212397 
L 237.146643 185.00142 
L 237.391296 186.506962 
L 237.635949 184.658409 
L 237.880602 184.53675 
L 238.125255 181.410436 
L 238.369908 182.155683 
L 238.614561 182.081053 
L 238.859214 184.249533 
L 239.103867 184.107338 
L 239.34852 181.718926 
L 240.082479 184.106108 
L 240.327132 183.500384 
L 240.816438 180.700614 
L 241.061091 181.538668 
L 241.79505 172.247903 
L 242.039703 173.898221 
L 242.284356 173.637308 
L 242.529009 176.992945 
L 242.773662 176.837615 
L 243.018315 175.021704 
L 243.262968 174.604231 
L 243.507621 174.424375 
L 243.752274 174.86861 
L 243.996927 177.162091 
L 244.24158 176.575539 
L 244.730886 170.204067 
L 244.975539 171.227097 
L 245.220192 171.082645 
L 245.464845 169.244902 
L 245.954151 158.927619 
L 246.198804 158.638501 
L 246.68811 163.07968 
L 246.932763 160.350527 
L 247.177416 164.885798 
L 247.666722 160.382096 
L 248.156029 165.040714 
L 248.400682 164.498608 
L 248.645335 164.605042 
L 248.889988 160.890732 
L 249.134641 163.27342 
L 249.379294 164.42418 
L 249.623947 164.380549 
L 249.8686 165.14499 
L 250.113253 164.249902 
L 250.357906 165.446226 
L 250.602559 163.878787 
L 250.847212 164.886547 
L 251.091865 162.918526 
L 251.336518 162.786638 
L 252.070477 181.962491 
L 252.31513 180.057183 
L 252.559783 173.799244 
L 252.804436 170.739544 
L 253.049089 169.288443 
L 253.538395 174.795467 
L 253.783048 170.278049 
L 254.027701 173.209125 
L 254.272354 173.043399 
L 255.006313 167.569286 
L 255.250966 167.71148 
L 255.495619 167.33889 
L 256.229578 164.184584 
L 256.474231 164.13704 
L 256.718884 162.358389 
L 256.963537 166.562051 
L 257.20819 164.609659 
L 257.452843 163.838208 
L 257.697496 166.601658 
L 258.186802 175.295854 
L 258.431455 169.782011 
L 258.920761 167.226208 
L 259.165414 164.296462 
L 259.410067 166.485465 
L 259.65472 166.922345 
L 259.899373 166.621903 
L 260.388679 163.962025 
L 260.633332 164.465619 
L 260.877985 164.666257 
L 261.367291 159.431326 
L 261.611944 158.124778 
L 261.856597 160.554361 
L 262.10125 160.320065 
L 262.590556 152.476711 
L 262.835209 150.414978 
L 263.079862 150.813258 
L 263.569168 148.734488 
L 263.813821 153.393039 
L 264.058474 150.979364 
L 264.303127 152.162407 
L 264.54778 150.067943 
L 264.792433 142.623092 
L 265.037086 145.939212 
L 265.281739 146.627325 
L 265.771045 142.453923 
L 266.015698 144.347046 
L 266.260351 150.534201 
L 266.505004 149.81699 
L 266.749657 148.02404 
L 266.99431 144.226639 
L 267.238963 147.046139 
L 267.483616 145.242067 
L 267.728269 145.694262 
L 267.972922 147.568246 
L 268.217575 147.966626 
L 268.462228 147.761204 
L 268.706881 149.665796 
L 268.951534 145.195474 
L 269.44084 149.825608 
L 269.685493 146.692385 
L 269.930146 147.632558 
L 270.174799 146.268619 
L 270.419452 149.269909 
L 270.664106 147.883802 
L 270.908759 153.025457 
L 271.153412 148.679891 
L 271.398065 149.095922 
L 271.642718 145.746813 
L 271.887371 146.967675 
L 272.132024 150.302888 
L 272.62133 147.590213 
L 272.865983 149.159596 
L 273.110636 148.532017 
L 273.599942 145.189135 
L 274.089248 149.183407 
L 274.333901 152.778204 
L 274.578554 151.64485 
L 274.823207 151.327193 
L 275.06786 159.277293 
L 275.312513 159.528414 
L 275.557166 159.038625 
L 275.801819 156.250693 
L 276.046472 162.734679 
L 276.291125 157.794399 
L 276.535778 163.13961 
L 276.780431 162.621091 
L 277.025084 163.764405 
L 277.269737 164.07066 
L 277.51439 158.205992 
L 277.759043 160.200429 
L 278.003696 159.809136 
L 278.248349 164.205164 
L 278.493002 141.001783 
L 278.982308 134.11546 
L 279.226961 134.946527 
L 279.716267 141.031206 
L 280.205573 156.648637 
L 280.450226 156.238084 
L 280.694879 154.032468 
L 280.939532 153.005883 
L 281.184185 152.990646 
L 281.428838 153.340465 
L 281.673491 147.537918 
L 281.918144 150.59271 
L 282.162797 148.786414 
L 282.40745 144.742854 
L 282.652103 147.811877 
L 283.141409 143.799518 
L 283.386062 144.323581 
L 283.630715 144.327472 
L 283.875368 145.970613 
L 284.120021 141.366145 
L 284.364674 141.518021 
L 284.609327 142.247573 
L 284.85398 144.024313 
L 285.098633 147.824062 
L 285.343286 147.132373 
L 285.587939 144.767291 
L 285.832592 145.430766 
L 286.077245 142.191914 
L 286.321898 141.512141 
L 286.566551 140.266451 
L 286.811204 138.015595 
L 287.055857 139.966993 
L 287.789816 137.929194 
L 288.034469 137.560181 
L 288.279122 136.876327 
L 288.523775 135.861089 
L 288.768428 132.012723 
L 289.013081 134.729982 
L 289.257734 135.512231 
L 289.502387 132.040625 
L 289.74704 137.816142 
L 289.991693 138.034174 
L 290.236346 135.475565 
L 290.480999 135.738021 
L 290.725652 140.58014 
L 290.970305 142.761196 
L 291.214958 139.710875 
L 291.459611 139.972291 
L 291.704264 139.7334 
L 291.948917 141.778543 
L 292.19357 140.135122 
L 292.438223 137.307696 
L 292.682876 137.433771 
L 292.92753 135.880462 
L 293.172183 140.535112 
L 293.416836 141.039578 
L 293.661489 142.906017 
L 293.906142 142.612126 
L 294.150795 130.472337 
L 294.395448 130.220679 
L 294.640101 129.174017 
L 294.884754 130.799407 
L 295.129407 129.415301 
L 295.37406 129.707057 
L 295.618713 127.33794 
L 295.863366 128.01484 
L 296.108019 126.105944 
L 296.352672 127.533279 
L 296.597325 126.245478 
L 296.841978 126.930338 
L 297.331284 130.482152 
L 297.575937 129.85938 
L 297.82059 131.221709 
L 298.065243 130.216521 
L 298.309896 132.461754 
L 298.554549 129.620377 
L 298.799202 129.465382 
L 299.043855 127.115817 
L 299.288508 127.420418 
L 299.533161 128.367979 
L 299.777814 128.326752 
L 300.022467 128.046309 
L 300.26712 128.831789 
L 300.511773 128.288051 
L 300.756426 129.931986 
L 301.001079 128.897531 
L 301.245732 128.738949 
L 301.735038 135.588885 
L 301.979691 133.748526 
L 302.468997 134.740244 
L 302.71365 136.835223 
L 302.958303 136.094302 
L 303.202956 134.587273 
L 303.447609 135.425909 
L 303.692262 133.621244 
L 304.181568 142.898047 
L 304.426221 136.537553 
L 304.670874 134.824097 
L 304.915527 135.185419 
L 305.404833 135.356443 
L 305.649486 131.008317 
L 305.894139 132.779333 
L 306.138792 130.559811 
L 306.383445 129.703815 
L 306.628098 129.683481 
L 306.872751 131.499011 
L 307.117404 130.488446 
L 307.362057 131.178202 
L 307.60671 127.226934 
L 308.096016 123.763165 
L 308.340669 125.874174 
L 308.829975 123.957419 
L 309.074628 124.785982 
L 309.563934 118.989706 
L 309.808587 121.001917 
L 310.05324 120.175724 
L 310.297893 122.105737 
L 310.542546 122.899567 
L 310.787199 119.819544 
L 311.031852 118.884491 
L 311.276505 118.951095 
L 311.765811 119.402485 
L 312.255117 119.22596 
L 312.744423 121.877566 
L 312.989076 119.990099 
L 313.478382 121.36429 
L 313.723035 120.341517 
L 313.967688 120.04368 
L 314.212341 121.589152 
L 314.456994 120.918858 
L 314.9463 116.914615 
L 315.190953 118.240714 
L 315.435607 117.766151 
L 315.68026 117.679839 
L 315.924913 117.144485 
L 316.169566 112.174537 
L 316.414219 110.557922 
L 316.658872 112.036769 
L 316.903525 116.734077 
L 317.148178 113.65231 
L 317.392831 116.096392 
L 318.12679 113.179535 
L 318.371443 113.954205 
L 318.616096 113.921831 
L 318.860749 111.77704 
L 319.105402 111.622571 
L 319.350055 115.038115 
L 319.594708 115.755024 
L 319.839361 113.436738 
L 320.084014 112.942119 
L 320.328667 114.87439 
L 320.57332 114.446677 
L 320.817973 113.550001 
L 321.062626 114.578207 
L 321.551932 113.705946 
L 321.796585 113.408634 
L 322.041238 111.442637 
L 322.285891 113.746324 
L 322.530544 113.319539 
L 322.775197 115.119028 
L 323.01985 114.889873 
L 323.264503 115.43474 
L 323.509156 113.990514 
L 323.753809 111.61488 
L 323.998462 112.01781 
L 324.243115 108.854448 
L 324.487768 107.153814 
L 325.221727 112.285162 
L 325.46638 109.733372 
L 325.711033 110.541981 
L 326.200339 116.270234 
L 326.444992 126.94771 
L 327.178951 119.980821 
L 327.423604 122.019168 
L 328.157563 133.463008 
L 328.402216 129.937598 
L 328.646869 131.613337 
L 328.891522 129.653522 
L 329.136175 130.909496 
L 329.380828 123.585891 
L 330.114787 126.042214 
L 330.35944 125.988589 
L 330.604093 125.365034 
L 331.093399 134.111279 
L 331.338052 133.054824 
L 331.582705 129.952522 
L 331.827358 130.665977 
L 332.072011 129.806593 
L 332.561317 127.020987 
L 332.80597 130.060241 
L 333.050623 125.916631 
L 333.295276 126.194995 
L 333.539929 125.879238 
L 334.029235 127.844095 
L 334.273888 127.904181 
L 334.518541 128.115539 
L 334.763194 130.675747 
L 335.007847 130.616432 
L 335.2525 129.395313 
L 335.497153 131.271712 
L 335.741806 132.057315 
L 335.986459 133.832233 
L 337.209724 119.437083 
L 337.454377 120.437923 
L 337.69903 117.592443 
L 337.943684 116.982962 
L 338.188337 114.284338 
L 338.43299 115.362748 
L 338.677643 115.261848 
L 339.166949 116.454249 
L 339.411602 113.24207 
L 339.656255 112.913077 
L 340.145561 107.899173 
L 340.390214 108.962794 
L 340.634867 110.686881 
L 340.87952 111.382316 
L 341.124173 106.668116 
L 341.368826 111.012856 
L 341.613479 110.510859 
L 341.858132 108.644599 
L 342.102785 109.215569 
L 342.347438 105.527474 
L 342.592091 105.922936 
L 342.836744 105.845847 
L 343.081397 105.911556 
L 343.32605 106.218772 
L 343.570703 106.85013 
L 343.815356 106.31567 
L 344.060009 106.883175 
L 344.304662 106.509377 
L 344.549315 102.703837 
L 344.793968 104.306836 
L 345.038621 104.183444 
L 345.283274 102.412025 
L 345.527927 103.964563 
L 345.77258 101.05154 
L 346.017233 102.298381 
L 346.506539 101.10616 
L 346.751192 101.373311 
L 347.485151 99.218861 
L 347.729804 98.031335 
L 347.974457 98.510169 
L 348.463763 97.285953 
L 348.708416 97.628696 
L 348.953069 97.448896 
L 349.197722 99.682738 
L 349.442375 97.826941 
L 349.687028 97.972467 
L 349.931681 96.682766 
L 350.176334 96.824872 
L 350.66564 93.305465 
L 351.154946 94.285669 
L 351.399599 93.849538 
L 351.644252 94.793165 
L 351.888905 94.523644 
L 352.133558 95.539486 
L 352.378211 96.040386 
L 352.622864 95.655745 
L 352.867517 97.469755 
L 353.11217 97.827411 
L 353.356823 97.934169 
L 353.601476 94.822163 
L 353.846129 95.824322 
L 354.335435 91.460914 
L 354.580088 91.920118 
L 354.824741 89.10292 
L 355.069394 87.760433 
L 355.314047 87.874233 
L 355.5587 86.0454 
L 356.048006 79.072385 
L 356.292659 78.998605 
L 356.781965 81.615948 
L 357.026618 82.338905 
L 357.271271 81.010525 
L 357.515924 82.143298 
L 358.00523 82.635747 
L 358.249883 82.040162 
L 358.494536 82.20183 
L 358.739189 82.814116 
L 358.983842 90.457056 
L 359.228495 85.217295 
L 359.473148 85.009861 
L 359.962454 85.346724 
L 360.451761 79.459799 
L 360.696414 79.588422 
L 360.941067 79.16005 
L 361.18572 80.569766 
L 361.430373 80.436336 
L 361.675026 77.231278 
L 361.919679 77.560561 
L 362.164332 78.937546 
L 362.408985 78.257851 
L 362.653638 75.691015 
L 362.898291 83.95335 
L 363.142944 84.993115 
L 363.387597 81.053854 
L 363.876903 83.077624 
L 364.121556 81.488397 
L 364.366209 77.995909 
L 364.610862 79.337726 
L 364.855515 76.592945 
L 365.100168 77.436007 
L 365.344821 74.8539 
L 365.589474 77.396367 
L 365.834127 81.988068 
L 366.07878 77.219831 
L 366.323433 81.169756 
L 366.568086 81.205774 
L 366.812739 84.896597 
L 367.057392 81.530184 
L 367.302045 84.256721 
L 367.791351 77.158101 
L 368.036004 74.70312 
L 368.280657 69.120639 
L 368.52531 69.090031 
L 368.769963 68.022945 
L 369.014616 68.425562 
L 369.259269 63.487697 
L 369.503922 62.020811 
L 369.748575 61.762357 
L 369.993228 61.811745 
L 370.237881 59.231762 
L 370.482534 60.507959 
L 370.727187 59.932272 
L 370.97184 52.242292 
L 371.216493 49.858251 
L 371.461146 55.216172 
L 371.705799 53.454658 
L 371.950452 54.088162 
L 372.195105 55.306542 
L 372.439758 53.680313 
L 372.684411 50.152947 
L 372.929064 51.685899 
L 373.173717 51.634522 
L 373.41837 57.29948 
L 373.663023 55.638173 
L 373.907676 51.616032 
L 374.152329 52.004541 
L 374.396982 53.576552 
L 374.641635 58.029524 
L 374.886288 56.791223 
L 375.130941 56.237559 
L 375.375594 53.588714 
L 376.109553 58.561077 
L 376.598859 55.875901 
L 377.088165 50.210943 
L 377.332818 50.482454 
L 377.577471 52.525273 
L 378.066777 48.457589 
L 378.31143 52.411003 
L 378.556083 48.022755 
L 378.800736 49.068669 
L 379.045389 49.019549 
L 379.290042 52.186532 
L 379.534695 50.754614 
L 379.779348 53.215967 
L 380.024001 49.245383 
L 380.268654 50.058755 
L 380.513307 51.776001 
L 380.75796 52.220896 
L 381.002613 63.960829 
L 381.247266 60.765921 
L 381.491919 55.539799 
L 381.736572 55.023158 
L 381.981225 51.868137 
L 382.225878 54.111324 
L 382.470531 53.019511 
L 382.715184 55.325859 
L 382.959838 50.906266 
L 383.204491 49.884141 
L 383.449144 49.835871 
L 383.693797 51.230519 
L 383.93845 49.197762 
L 384.183103 49.572655 
L 384.917062 44.343268 
L 385.161715 44.555129 
L 385.406368 46.843837 
L 385.651021 45.891624 
L 385.895674 51.642593 
L 386.140327 50.254988 
L 386.38498 52.007224 
L 386.629633 52.068148 
L 386.874286 40.698435 
L 387.118939 38.850754 
L 387.363592 39.008309 
L 387.608245 34.414125 
L 387.852898 40.537303 
L 387.852898 40.537303 
" style="fill:none;stroke:#1f77b4;stroke-linecap:square;stroke-width:1.5;"/>
   </g>
   <g id="line2d_30">
    <path clip-path="url(#pba8dc95ff9)" d="M 63.198352 268.392574 
L 63.687658 271.718648 
L 63.932311 272.949442 
L 64.421617 270.194808 
L 64.66627 271.953085 
L 64.910923 271.953085 
L 65.155576 271.528168 
L 65.400229 270.355983 
L 65.644882 270.663682 
L 65.889535 272.451263 
L 66.134188 271.249774 
L 66.623494 274.40002 
L 66.868147 272.993399 
L 67.1128 274.238845 
L 67.357453 273.82858 
L 67.846759 273.872537 
L 68.091412 274.253497 
L 68.336066 273.975103 
L 68.580719 274.326759 
L 68.825372 274.341411 
L 69.070025 275.850599 
L 69.314678 276.334125 
L 69.559331 275.088679 
L 69.803984 274.531891 
L 70.048637 274.502587 
L 70.29329 274.751676 
L 70.537943 273.843233 
L 70.782596 271.645387 
L 71.027249 271.967737 
L 71.271902 270.07759 
L 71.516555 270.7809 
L 71.761208 270.26807 
L 72.005861 268.187442 
L 72.250514 269.213103 
L 72.495167 268.817491 
L 72.73982 271.850519 
L 72.984473 272.597787 
L 73.229126 272.099608 
L 73.473779 272.539177 
L 73.718432 270.575768 
L 74.207738 269.681977 
L 74.452391 270.326679 
L 74.697044 270.150851 
L 74.941697 271.674691 
L 75.18635 272.421959 
L 75.431003 272.671048 
L 75.675656 273.535534 
L 75.920309 273.374359 
L 76.164962 273.711362 
L 76.654268 273.769971 
L 76.898921 273.183879 
L 77.143574 274.502587 
L 77.388227 274.473282 
L 77.877533 273.740667 
L 78.122186 268.275356 
L 78.856145 271.381645 
L 79.100798 271.235122 
L 79.345451 271.279079 
L 79.590104 271.176513 
L 79.834757 271.293731 
L 80.568716 274.165583 
L 80.813369 272.905485 
L 81.058022 273.213183 
L 81.302675 269.550107 
L 81.547328 269.8285 
L 81.791981 267.79183 
L 82.036634 268.729577 
L 82.281287 268.465836 
L 82.52594 266.678254 
L 82.770593 267.147128 
L 83.015246 264.30458 
L 83.504552 263.689183 
L 83.993858 261.286205 
L 84.238511 262.692826 
L 84.727817 261.711122 
L 84.97247 262.795393 
L 85.461776 261.520642 
L 85.706429 261.31551 
L 85.951082 261.901602 
L 86.195735 260.93455 
L 86.440388 263.02983 
L 86.685041 263.117743 
L 86.929694 261.711122 
L 87.174347 262.150691 
L 87.419 262.223953 
L 87.663653 263.835706 
L 87.908306 262.854002 
L 88.397612 264.143405 
L 88.642265 264.348537 
L 88.886918 263.308223 
L 89.131571 261.286205 
L 89.376224 261.623208 
L 89.86553 259.205577 
L 90.110183 259.73306 
L 90.354836 257.491257 
L 90.844143 255.835546 
L 91.333449 258.20922 
L 91.578102 258.575528 
L 91.822755 258.150611 
L 92.067408 258.853922 
L 92.312061 257.286125 
L 92.556714 257.154254 
L 92.801367 256.773294 
L 93.04602 256.099288 
L 93.290673 254.736623 
L 93.535326 257.198211 
L 93.779979 256.538857 
L 94.024632 256.919817 
L 94.513938 261.12503 
L 95.003244 259.747713 
L 95.247897 260.333805 
L 95.49255 260.480328 
L 95.737203 260.905245 
L 95.981856 262.2093 
L 96.471162 260.55359 
L 96.715815 260.817331 
L 96.960468 259.92354 
L 97.205121 260.612199 
L 97.449774 262.341171 
L 97.694427 262.560956 
L 98.183733 262.179996 
L 98.428386 262.941916 
L 98.917692 261.608556 
L 99.162345 261.69647 
L 99.406998 261.989516 
L 99.651651 262.092082 
L 99.896304 260.436371 
L 100.140957 261.344814 
L 100.38561 261.081073 
L 100.630263 261.535294 
L 100.874916 262.634217 
L 101.119569 262.692826 
L 101.364222 263.278919 
L 101.608875 263.498703 
L 101.853528 263.41079 
L 102.098181 264.421799 
L 102.342834 264.597626 
L 102.587487 264.612279 
L 102.83214 265.491417 
L 103.076793 265.388851 
L 103.321446 264.084796 
L 103.566099 264.832063 
L 104.055405 265.0665 
L 104.544711 262.64887 
L 104.789364 262.179996 
L 105.034017 262.97122 
L 105.27867 263.35218 
L 105.523323 261.916254 
L 105.767976 261.2569 
L 106.257282 263.454746 
L 106.501935 262.868654 
L 106.746588 263.308223 
L 106.991241 264.670888 
L 107.235894 264.612279 
L 107.480547 264.260623 
L 107.7252 264.245971 
L 107.969853 264.055491 
L 108.214506 264.011534 
L 108.459159 262.97122 
L 108.703812 262.78074 
L 108.948465 261.623208 
L 109.193118 262.121386 
L 109.437771 259.864931 
L 110.17173 262.912611 
L 110.416383 262.575608 
L 110.661036 262.692826 
L 110.905689 263.22031 
L 111.150342 263.015177 
L 111.394995 262.64887 
L 111.884301 264.026186 
L 112.128954 263.850359 
L 112.373607 264.568322 
L 112.61826 264.714845 
L 112.862913 265.44746 
L 113.107566 265.593983 
L 113.35222 266.692906 
L 113.596873 267.000605 
L 113.841526 268.143485 
L 114.086179 266.341251 
L 114.330832 266.634297 
L 115.064791 268.758882 
L 115.309444 268.656316 
L 115.554097 268.187442 
L 115.79875 266.663602 
L 116.288056 267.484131 
L 116.777362 267.689263 
L 117.022015 267.117823 
L 117.511321 266.692906 
L 117.755974 267.293651 
L 118.000627 266.370556 
L 118.24528 267.249694 
L 118.489933 266.78082 
L 118.734586 266.912691 
L 118.979239 266.180076 
L 119.223892 265.857725 
L 119.468545 265.960291 
L 119.713198 266.546383 
L 119.957851 266.385208 
L 120.202504 266.604993 
L 120.447157 266.106814 
L 120.69181 264.978586 
L 120.936463 264.509713 
L 121.181116 264.49506 
L 121.425769 264.348537 
L 121.670422 263.806402 
L 121.915075 263.747793 
L 122.159728 263.264266 
L 122.649034 264.392494 
L 123.13834 264.026186 
L 123.382993 263.469399 
L 123.627646 251.967337 
L 123.872299 252.480168 
L 124.116952 250.39954 
L 124.361605 247.176033 
L 124.606258 248.392174 
L 125.340217 244.890273 
L 125.58487 245.82802 
L 125.829523 245.359146 
L 126.074176 245.842673 
L 126.318829 245.901282 
L 126.563482 246.311546 
L 126.808135 248.069823 
L 127.052788 248.611959 
L 127.297441 248.74383 
L 127.786747 246.912291 
L 128.0314 246.033153 
L 128.276053 246.165023 
L 128.520706 245.82802 
L 128.765359 242.897559 
L 129.010012 241.740026 
L 129.254665 244.230919 
L 129.743971 241.82794 
L 129.988624 241.813288 
L 130.233277 240.963454 
L 130.47793 241.095325 
L 130.722583 239.805922 
L 130.967236 237.915774 
L 131.211889 237.783903 
L 131.456542 238.428605 
L 131.701195 236.318673 
L 132.190501 237.388291 
L 132.435154 240.025706 
L 132.679807 236.274716 
L 132.92446 236.040279 
L 133.169113 234.941356 
L 133.413766 232.728857 
L 133.658419 233.168426 
L 134.147725 229.842352 
L 134.637031 227.234242 
L 134.881684 228.714125 
L 135.126337 228.435731 
L 135.37099 228.640863 
L 135.615643 230.252617 
L 135.860297 227.527288 
L 136.10495 228.289208 
L 136.349603 233.241688 
L 136.594256 233.783823 
L 136.838909 230.443097 
L 137.083562 230.355183 
L 137.328215 229.769091 
L 137.572868 229.783743 
L 138.306827 222.867854 
L 138.55148 223.409989 
L 139.040786 226.267189 
L 139.285439 225.461312 
L 139.530092 226.193928 
L 139.774745 228.714125 
L 140.019398 229.930266 
L 140.264051 230.501706 
L 140.508704 228.758082 
L 140.753357 229.417436 
L 140.99801 231.659239 
L 141.242663 228.904605 
L 141.487316 230.340531 
L 141.731969 232.626291 
L 141.976622 232.670248 
L 142.221275 234.619005 
L 142.465928 234.032913 
L 142.710581 230.941276 
L 142.955234 230.531011 
L 143.199887 230.501706 
L 143.44454 235.16114 
L 143.689193 234.384568 
L 143.933846 234.282002 
L 144.178499 233.886389 
L 144.423152 234.575048 
L 144.667805 236.641023 
L 145.157111 234.194088 
L 145.401764 233.432168 
L 145.646417 233.358906 
L 145.89107 233.842433 
L 146.135723 231.073146 
L 146.625029 232.069503 
L 146.869682 230.750796 
L 147.114335 228.699472 
L 147.358988 229.959571 
L 147.848294 224.186562 
L 148.092947 223.468599 
L 148.582253 220.889792 
L 148.826906 221.651712 
L 149.071559 221.549146 
L 149.316212 217.666285 
L 149.560865 217.387891 
L 149.805518 217.724894 
L 150.294824 223.615122 
L 150.539477 222.237805 
L 150.78413 222.149891 
L 151.028783 222.369676 
L 151.273436 218.501466 
L 151.518089 217.4465 
L 151.762742 216.992279 
L 152.007395 218.472162 
L 152.252048 217.417196 
L 152.496701 220.391614 
L 152.741354 217.710242 
L 152.986007 217.915374 
L 153.23066 218.516119 
L 153.475313 219.820174 
L 153.719966 216.582014 
L 154.209272 219.336648 
L 154.453925 222.530851 
L 154.698578 223.849559 
L 154.943231 221.519842 
L 155.187884 223.878863 
L 155.432537 212.816371 
L 155.67719 210.633177 
L 155.921843 212.230279 
L 156.166496 210.369435 
L 156.411149 211.189965 
L 156.655802 211.233922 
L 156.900455 208.069023 
L 157.145108 209.197251 
L 157.389761 207.292451 
L 157.634414 207.878543 
L 157.879067 203.658679 
L 158.12372 204.010334 
L 158.368374 203.702635 
L 158.613027 202.58906 
L 158.85768 200.288648 
L 159.102333 201.812488 
L 159.346986 198.603632 
L 159.836292 200.830783 
L 160.325598 202.002968 
L 160.570251 203.54146 
L 160.814904 201.504789 
L 161.059557 197.4461 
L 161.548863 200.039559 
L 161.793516 196.772094 
L 162.038169 199.599989 
L 162.282822 198.457109 
L 162.527475 201.460832 
L 162.772128 203.087239 
L 163.016781 201.592703 
L 163.261434 200.933349 
L 163.75074 204.186162 
L 163.995393 203.790549 
L 164.240046 208.391374 
L 164.484699 207.233842 
L 164.729352 213.842032 
L 164.974005 212.977546 
L 165.218658 214.384168 
L 165.463311 214.047165 
L 165.707964 210.559915 
L 165.952617 210.413392 
L 166.441923 219.16082 
L 166.686576 218.867774 
L 166.931229 217.050888 
L 167.175882 210.867614 
L 167.420535 215.629614 
L 167.665188 216.552709 
L 168.399147 214.809085 
L 168.6438 215.951965 
L 169.133106 209.959171 
L 169.377759 212.406106 
L 169.622412 213.124069 
L 169.867065 217.754199 
L 170.111718 220.054611 
L 170.601024 214.721171 
L 170.845677 212.713805 
L 171.09033 213.724814 
L 171.334983 212.611239 
L 171.579636 216.552709 
L 172.068942 219.146168 
L 172.313595 218.442857 
L 172.558248 214.647909 
L 172.802901 214.647909 
L 173.047554 215.527048 
L 173.292207 217.4465 
L 173.53686 217.299977 
L 173.781513 215.556352 
L 174.026166 216.508752 
L 174.270819 213.680857 
L 174.515472 213.6369 
L 174.760125 212.420759 
L 175.004778 209.299817 
L 175.249431 209.25586 
L 175.494084 208.786986 
L 175.738737 209.563559 
L 176.228043 210.193608 
L 176.472696 209.504949 
L 176.717349 209.724734 
L 176.962002 210.735743 
L 177.206655 210.178955 
L 177.451308 205.944439 
L 177.695961 205.929786 
L 177.940614 208.11298 
L 178.185267 207.805282 
L 178.42992 208.259503 
L 178.674573 207.951805 
L 178.919226 206.193528 
L 179.163879 208.039719 
L 179.408532 207.805282 
L 179.653185 206.530531 
L 179.897838 206.0177 
L 180.142491 203.497503 
L 180.387144 203.951725 
L 180.631798 203.263066 
L 180.876451 203.717288 
L 181.121104 202.58906 
L 181.365757 204.948082 
L 181.61041 205.182519 
L 181.855063 206.647749 
L 182.099716 210.354783 
L 182.344369 207.116623 
L 182.589022 207.263146 
L 183.078328 202.823497 
L 183.322981 203.893115 
L 183.567634 203.175152 
L 183.812287 205.006691 
L 184.05694 202.061577 
L 184.301593 200.625651 
L 184.546246 200.816131 
L 184.790899 197.856365 
L 185.035552 192.449663 
L 185.280205 192.141965 
L 185.524858 192.537577 
L 185.769511 194.310506 
L 186.014164 192.889232 
L 186.258817 195.863651 
L 186.50347 196.288568 
L 186.748123 194.603552 
L 186.992776 195.805042 
L 187.237429 196.127392 
L 187.482082 195.101731 
L 187.726735 195.262906 
L 187.971388 194.706119 
L 188.216041 195.599909 
L 188.705347 193.44602 
L 188.95 194.427725 
L 189.439306 191.995442 
L 189.683959 192.698752 
L 189.928612 193.050408 
L 190.173265 193.050408 
L 190.417918 192.391054 
L 190.662571 191.013737 
L 191.151877 194.090722 
L 191.39653 192.6841 
L 191.641183 189.958771 
L 191.885836 191.204217 
L 192.130489 191.028389 
L 192.375142 189.108937 
L 192.619795 188.185842 
L 192.864448 189.973423 
L 193.353754 188.141885 
L 193.598407 188.786586 
L 193.84306 193.035755 
L 194.087713 190.837909 
L 194.332366 190.325078 
L 194.577019 189.489897 
L 194.821672 188.156537 
L 195.066325 189.782943 
L 195.310978 187.599749 
L 195.555631 187.248094 
L 195.800284 189.167546 
L 196.044937 186.867134 
L 196.28959 186.559435 
L 196.534243 186.500826 
L 196.778896 190.149251 
L 197.268202 188.845195 
L 197.512855 188.669368 
L 197.757508 190.530211 
L 198.002161 188.727977 
L 198.246814 191.086998 
L 198.491467 195.482691 
L 198.73612 195.365472 
L 198.980773 194.486334 
L 199.225426 195.043122 
L 199.470079 195.892955 
L 199.714732 191.028389 
L 199.959385 189.563158 
L 200.204038 187.013657 
L 200.448691 187.482531 
L 200.693344 185.035595 
L 200.937997 184.1125 
L 201.18265 184.68394 
L 201.427303 183.965977 
L 201.671956 191.16026 
L 201.916609 193.724414 
L 202.161262 192.435011 
L 202.405915 194.061417 
L 202.650568 191.306783 
L 202.895221 192.669448 
L 203.384528 191.54122 
L 203.873834 192.991798 
L 204.118487 192.830623 
L 204.36314 193.519282 
L 204.607793 192.596186 
L 204.852446 193.533934 
L 205.097099 193.387411 
L 205.341752 194.867294 
L 206.075711 193.870937 
L 206.565017 188.581454 
L 206.80967 188.464235 
L 207.054323 192.273835 
L 207.298976 191.746352 
L 207.543629 192.596186 
L 207.788282 192.068703 
L 208.032935 190.427645 
L 208.277588 190.193208 
L 208.522241 189.724334 
L 208.766894 190.691386 
L 209.011547 188.420278 
L 209.2562 188.273755 
L 209.500853 189.504549 
L 209.745506 192.87458 
L 209.990159 190.793952 
L 210.479465 185.270032 
L 210.724118 182.96962 
L 210.968771 184.200414 
L 211.213424 183.965977 
L 211.458077 183.951325 
L 211.947383 186.237085 
L 212.192036 187.995362 
L 212.436689 187.365312 
L 212.925995 190.735343 
L 213.170648 190.735343 
L 213.415301 187.775577 
L 213.659954 188.405626 
L 213.904607 189.900162 
L 214.393913 190.544863 
L 214.638566 193.812328 
L 215.127872 190.603472 
L 215.372525 189.870857 
L 215.617178 188.537497 
L 215.861831 188.273755 
L 216.106484 188.757282 
L 216.351137 191.277478 
L 216.59579 190.603472 
L 216.840443 188.024666 
L 217.085096 191.086998 
L 217.329749 192.435011 
L 217.819055 191.497263 
L 218.063708 191.526568 
L 218.308361 193.196931 
L 218.553014 193.240888 
L 218.797667 192.141965 
L 219.04232 190.20786 
L 219.286973 190.618125 
L 219.531626 191.336088 
L 219.776279 191.54122 
L 220.020932 189.914814 
L 220.265585 185.944038 
L 220.510238 185.25538 
L 220.754891 186.793872 
L 220.999544 187.365312 
L 221.48885 184.49346 
L 221.733503 186.603392 
L 221.978156 185.460512 
L 222.222809 185.680297 
L 222.467462 183.790149 
L 222.712115 183.321275 
L 222.956768 185.094205 
L 223.201421 185.914734 
L 223.446074 188.68402 
L 223.690727 188.654715 
L 223.93538 186.662002 
L 224.180033 187.951405 
L 224.424686 187.9221 
L 224.913992 183.760845 
L 225.403298 179.526328 
L 225.892605 177.313829 
L 226.137258 180.815731 
L 226.381911 180.68386 
L 226.626564 180.258943 
L 226.871217 180.420118 
L 227.360523 182.647269 
L 227.605176 182.808445 
L 227.849829 181.519042 
L 228.828441 182.105134 
L 229.073094 180.68386 
L 229.317747 179.936592 
L 229.5624 181.138082 
L 229.807053 181.709522 
L 230.051706 183.951325 
L 230.296359 180.566642 
L 230.541012 179.790069 
L 230.785665 178.310186 
L 231.030318 181.562998 
L 231.274971 182.852402 
L 231.519624 182.295614 
L 231.764277 184.097848 
L 232.00893 184.405546 
L 232.253583 186.896438 
L 232.498236 186.574088 
L 232.742889 186.837829 
L 232.987542 188.669368 
L 233.476848 187.409269 
L 233.721501 187.277398 
L 234.210807 188.815891 
L 234.45546 187.379965 
L 234.700113 183.086838 
L 234.944766 184.478808 
L 235.189419 183.804802 
L 235.434072 184.171109 
L 235.923378 184.390894 
L 236.168031 184.30298 
L 236.412684 186.075909 
L 236.657337 184.288328 
L 236.90199 184.889072 
L 237.146643 186.281042 
L 237.391296 184.669288 
L 237.635949 184.449503 
L 237.880602 181.519042 
L 238.125255 182.090482 
L 238.369908 181.958611 
L 238.614561 184.1125 
L 238.859214 184.1125 
L 239.103867 181.929306 
L 239.593173 182.852402 
L 239.837826 184.053891 
L 240.082479 183.54106 
L 240.327132 182.471442 
L 240.571785 180.830383 
L 240.816438 181.416475 
L 241.550397 172.11226 
L 241.79505 173.401663 
L 242.039703 173.357706 
L 242.284356 176.595866 
L 242.529009 176.639823 
L 242.773662 174.96946 
L 243.262968 174.031712 
L 243.507621 174.515238 
L 243.752274 176.815651 
L 243.996927 176.478648 
L 244.486233 170.295374 
L 244.730886 170.910771 
L 244.975539 170.793552 
L 245.220192 169.196451 
L 245.709498 158.851921 
L 245.954151 158.148611 
L 246.443457 162.471041 
L 246.68811 160.258543 
L 246.932763 164.331885 
L 247.177416 162.690826 
L 247.422069 160.199934 
L 247.911375 164.566321 
L 248.156029 164.375841 
L 248.400682 164.49306 
L 248.645335 161.005811 
L 249.134641 164.141405 
L 249.379294 164.361189 
L 249.623947 165.137761 
L 249.8686 164.30258 
L 250.113253 165.416155 
L 250.357906 163.965577 
L 250.602559 164.68354 
L 250.847212 162.866654 
L 251.091865 162.661521 
L 251.825824 182.031872 
L 252.070477 180.698512 
L 252.559783 170.837509 
L 252.804436 168.962014 
L 253.293742 174.500586 
L 253.538395 170.603072 
L 253.783048 173.152574 
L 254.027701 172.991398 
L 254.76166 167.54074 
L 255.006313 167.438174 
L 255.250966 167.057214 
L 256.229578 163.994881 
L 256.474231 162.309866 
L 256.718884 166.104814 
L 256.963537 164.624931 
L 257.20819 163.980229 
L 257.452843 166.383208 
L 257.942149 175.321115 
L 258.186802 170.58842 
L 258.676108 167.408869 
L 258.920761 164.566321 
L 259.165414 166.339251 
L 259.410067 166.925343 
L 259.65472 166.822777 
L 260.144026 164.200014 
L 260.633332 164.478408 
L 261.122638 159.394057 
L 261.367291 158.031392 
L 261.611944 160.185281 
L 261.856597 160.024106 
L 262.590556 150.265669 
L 262.835209 150.368235 
L 263.324515 148.639263 
L 263.569168 152.903084 
L 263.813821 150.939675 
L 264.058474 152.009294 
L 264.303127 150.01658 
L 264.54778 142.954168 
L 264.792433 145.401103 
L 265.037086 146.280241 
L 265.526392 142.58786 
L 265.771045 144.038438 
L 266.015698 150.001928 
L 266.260351 149.870057 
L 266.505004 148.272955 
L 266.749657 144.404746 
L 266.99431 146.617244 
L 267.238963 145.0641 
L 267.483616 145.606235 
L 267.728269 147.379164 
L 267.972922 147.862691 
L 268.217575 147.804081 
L 268.462228 149.577011 
L 268.706881 145.357146 
L 268.951534 146.895638 
L 269.196187 149.371878 
L 269.44084 146.734463 
L 269.685493 147.569644 
L 269.930146 146.280241 
L 270.174799 149.049528 
L 270.419452 147.848038 
L 270.664106 152.6833 
L 270.908759 148.961614 
L 271.153412 149.122789 
L 271.398065 145.840672 
L 271.642718 146.675854 
L 271.887371 149.870057 
L 272.376677 147.716168 
L 272.62133 149.005571 
L 272.865983 148.434131 
L 273.355289 145.152014 
L 273.599942 146.675854 
L 273.844595 148.961614 
L 274.089248 152.536777 
L 274.333901 151.789509 
L 274.578554 151.437854 
L 274.823207 158.837269 
L 275.06786 159.701755 
L 275.312513 159.438014 
L 275.557166 156.712685 
L 275.801819 162.471041 
L 276.046472 158.177915 
L 276.291125 163.1597 
L 276.535778 162.734783 
L 276.780431 164.068143 
L 277.025084 164.346537 
L 277.269737 158.807965 
L 277.51439 160.170629 
L 277.759043 159.687103 
L 278.003696 163.92162 
L 278.248349 142.441337 
L 278.737655 133.679257 
L 278.982308 134.382567 
L 279.471614 140.419318 
L 279.96092 156.155897 
L 280.205573 156.463595 
L 280.694879 152.990998 
L 280.939532 152.844475 
L 281.184185 153.430568 
L 281.428838 148.170389 
L 281.673491 150.705238 
L 281.918144 149.093484 
L 282.162797 145.298537 
L 282.40745 147.789429 
L 282.896756 143.965177 
L 283.141409 144.184961 
L 283.386062 144.141004 
L 283.630715 145.650192 
L 283.875368 141.401023 
L 284.120021 141.210543 
L 284.364674 141.752678 
L 284.609327 143.496303 
L 284.85398 147.393817 
L 285.098633 147.100771 
L 285.343286 144.785706 
L 285.587939 145.0641 
L 285.832592 142.001768 
L 286.077245 141.298457 
L 286.321898 140.155577 
L 286.566551 137.943078 
L 286.811204 139.642746 
L 288.279122 135.73058 
L 288.523775 132.140764 
L 288.768428 134.250697 
L 289.013081 135.129835 
L 289.257734 132.257983 
L 289.502387 137.400943 
L 289.74704 137.884469 
L 289.991693 135.701275 
L 290.236346 135.803841 
L 290.480999 140.214186 
L 290.725652 142.617164 
L 290.970305 140.243491 
L 291.214958 140.390014 
L 291.459611 139.906488 
L 291.704264 141.664764 
L 291.948917 140.477928 
L 292.19357 137.781903 
L 292.438223 137.591423 
L 292.682876 136.096887 
L 292.92753 140.316752 
L 293.172183 140.990758 
L 293.416836 142.954168 
L 293.661489 142.763688 
L 293.906142 131.276278 
L 294.395448 128.580254 
L 294.640101 130.250617 
L 294.884754 129.327521 
L 295.129407 129.693829 
L 295.37406 127.232241 
L 295.618713 127.598549 
L 295.863366 125.752358 
L 296.108019 127.188284 
L 296.352672 126.074709 
L 296.597325 126.763367 
L 297.086631 130.367835 
L 297.331284 129.928266 
L 297.575937 131.15906 
L 297.82059 130.367835 
L 298.065243 132.389854 
L 298.309896 129.855004 
L 298.554549 129.576611 
L 298.799202 127.261546 
L 299.043855 127.393417 
L 299.288508 128.228598 
L 299.533161 128.272555 
L 299.777814 128.052771 
L 300.022467 128.726777 
L 300.26712 128.257903 
L 300.511773 129.767091 
L 300.756426 128.843995 
L 301.001079 128.594906 
L 301.490385 135.34962 
L 301.735038 133.899041 
L 302.224344 134.704918 
L 302.468997 136.712284 
L 302.71365 136.199454 
L 302.958303 134.719571 
L 303.202956 135.408229 
L 303.447609 133.693909 
L 303.936915 142.646469 
L 304.181568 137.181158 
L 304.426221 135.041921 
L 304.670874 134.866094 
L 304.915527 134.997964 
L 305.16018 135.276358 
L 305.404833 131.320235 
L 305.649486 132.565681 
L 305.894139 130.529011 
L 306.138792 129.605915 
L 306.383445 129.518001 
L 306.628098 131.203017 
L 306.872751 130.455749 
L 307.117404 131.085798 
L 307.362057 127.408069 
L 307.851363 123.671731 
L 308.096016 125.591183 
L 308.340669 125.019743 
L 308.585322 124.096647 
L 308.829975 124.697392 
L 309.319281 119.15882 
L 309.563934 120.711964 
L 309.808587 120.169829 
L 310.05324 121.957411 
L 310.297893 122.807244 
L 310.542546 120.096567 
L 310.787199 118.939035 
L 311.031852 118.77786 
L 311.521158 119.334647 
L 312.010464 119.334647 
L 312.49977 121.649712 
L 312.744423 120.081915 
L 313.233729 121.268752 
L 313.478382 120.404266 
L 313.723035 120.081915 
L 313.967688 121.385971 
L 314.212341 120.785226 
L 314.456994 119.217429 
L 314.701647 116.902364 
L 314.9463 117.928026 
L 315.190953 117.517761 
L 315.435607 117.4445 
L 315.68026 116.946321 
L 315.924913 112.228278 
L 316.169566 110.294174 
L 316.414219 111.437054 
L 316.658872 116.081835 
L 316.903525 113.752118 
L 317.148178 115.92066 
L 317.882137 113.19533 
L 318.12679 113.810727 
L 318.371443 113.82538 
L 318.616096 111.92058 
L 318.860749 111.715447 
L 319.105402 114.821737 
L 319.350055 115.774137 
L 319.594708 113.752118 
L 319.839361 112.960894 
L 320.084014 114.631257 
L 320.328667 114.367515 
L 320.57332 113.6349 
L 320.817973 114.484734 
L 321.551932 113.312549 
L 321.796585 111.48101 
L 322.041238 113.473724 
L 322.285891 113.224635 
L 322.530544 115.026869 
L 322.775197 114.938955 
L 323.01985 115.437134 
L 323.264503 113.927946 
L 323.509156 111.67149 
L 323.753809 111.832666 
L 324.243115 107.026709 
L 324.732421 110.308826 
L 324.977074 112.286887 
L 325.221727 109.942518 
L 325.46638 110.382087 
L 325.711033 112.565281 
L 325.955686 115.979269 
L 326.200339 126.484974 
L 326.444992 125.386051 
L 326.689645 123.334727 
L 326.934298 120.3017 
L 327.178951 121.82554 
L 327.91291 133.693909 
L 328.157563 130.58762 
L 328.402216 131.847718 
L 328.646869 129.723134 
L 328.891522 130.851361 
L 329.136175 123.891515 
L 329.380828 124.331084 
L 329.870134 125.928186 
L 330.114787 125.884229 
L 330.35944 125.210223 
L 330.848746 133.664604 
L 331.093399 133.225035 
L 331.338052 130.250617 
L 331.582705 130.426444 
L 331.827358 129.488697 
L 332.316664 126.953847 
L 332.561317 129.752438 
L 332.80597 126.030752 
L 333.050623 126.177275 
L 333.295276 125.649792 
L 333.784582 127.598549 
L 334.273888 127.891595 
L 334.518541 130.294574 
L 334.763194 130.485054 
L 335.007847 129.400783 
L 335.2525 130.997884 
L 335.497153 131.833066 
L 335.741806 133.737866 
L 336.475765 125.503269 
L 336.720418 121.488537 
L 336.965071 119.305343 
L 337.209724 120.11122 
L 337.454377 117.561718 
L 337.69903 116.785146 
L 337.943684 114.264949 
L 338.188337 114.953607 
L 338.43299 114.880346 
L 338.922296 116.169749 
L 339.166949 113.400463 
L 339.411602 112.755761 
L 339.900908 107.759324 
L 340.145561 108.638463 
L 340.634867 111.363792 
L 340.87952 107.09997 
L 341.124173 110.601872 
L 341.368826 110.39674 
L 341.613479 108.81429 
L 341.858132 109.136641 
L 342.102785 105.678697 
L 342.347438 105.76661 
L 342.592091 105.693349 
L 343.081397 106.191527 
L 343.32605 106.792272 
L 343.570703 106.20618 
L 343.815356 106.660401 
L 344.060009 106.382007 
L 344.304662 102.865454 
L 344.549315 103.979029 
L 344.793968 103.86181 
L 345.038621 102.440537 
L 345.283274 103.715287 
L 345.527927 100.960653 
L 345.77258 101.927706 
L 346.261886 100.960653 
L 346.506539 101.136481 
L 346.995845 99.759164 
L 347.485151 97.76645 
L 347.729804 98.176715 
L 348.21911 97.19501 
L 348.463763 97.414795 
L 348.708416 97.268272 
L 348.953069 99.363552 
L 349.197722 97.781103 
L 349.442375 97.869017 
L 349.687028 96.68218 
L 349.931681 96.711484 
L 350.420987 93.297497 
L 350.910293 94.176635 
L 351.154946 93.839632 
L 351.399599 94.645509 
L 351.644252 94.469681 
L 352.133558 96.037478 
L 352.378211 95.656518 
L 352.622864 97.297577 
L 353.11217 98.074149 
L 353.356823 95.09973 
L 353.601476 95.773737 
L 354.090782 91.612481 
L 354.335435 91.788309 
L 354.824741 87.67101 
L 355.069394 87.568444 
L 355.314047 85.898081 
L 355.803353 78.923583 
L 356.048006 78.454709 
L 356.781965 82.176395 
L 357.026618 80.974906 
L 357.271271 81.82474 
L 357.760577 82.469441 
L 358.00523 82.044524 
L 358.249883 82.249656 
L 358.494536 82.850401 
L 358.739189 90.073989 
L 358.983842 85.95669 
L 359.228495 85.370598 
L 359.473148 85.106857 
L 359.717801 85.355946 
L 360.207107 79.656198 
L 360.696414 79.040801 
L 360.941067 80.388813 
L 361.18572 80.286247 
L 361.430373 77.238567 
L 361.675026 77.209263 
L 361.919679 78.410752 
L 362.164332 77.95653 
L 362.408985 75.626813 
L 362.653638 83.114143 
L 362.898291 84.81381 
L 363.142944 81.531693 
L 363.63225 82.821096 
L 363.876903 81.590303 
L 364.121556 78.322838 
L 364.366209 79.231281 
L 364.610862 76.798998 
L 364.855515 77.546266 
L 365.100168 75.09933 
L 365.344821 77.267872 
L 365.589474 81.678216 
L 365.834127 77.780703 
L 366.07878 81.00421 
L 366.323433 81.092124 
L 366.568086 84.828463 
L 366.812739 82.029872 
L 367.057392 84.257023 
L 367.546698 77.399743 
L 367.791351 74.806284 
L 368.036004 69.487496 
L 368.280657 68.960013 
L 368.52531 67.9197 
L 368.769963 68.271355 
L 369.014616 63.685183 
L 369.259269 61.809687 
L 369.503922 61.238247 
L 369.748575 61.38477 
L 369.993228 59.084358 
L 370.237881 60.139324 
L 370.482534 59.655798 
L 370.727187 52.578733 
L 370.97184 49.633619 
L 371.216493 54.322358 
L 371.461146 53.428567 
L 371.950452 55.28941 
L 372.195105 53.780223 
L 372.439758 50.322278 
L 372.684411 51.421201 
L 372.929064 51.494463 
L 373.173717 57.033035 
L 373.41837 56.036678 
L 373.663023 52.124512 
L 373.907676 51.758204 
L 374.152329 53.223435 
L 374.396982 57.750998 
L 374.886288 56.476247 
L 375.130941 53.750918 
L 375.620247 56.534856 
L 375.8649 58.615484 
L 376.354206 56.080635 
L 376.843512 50.33693 
L 377.088165 50.263669 
L 377.332818 52.168469 
L 377.822124 48.520044 
L 378.066777 51.831466 
L 378.31143 48.080475 
L 378.556083 48.886352 
L 378.800736 48.754481 
L 379.045389 51.816813 
L 379.290042 50.820456 
L 379.534695 53.208783 
L 379.779348 49.531053 
L 380.024001 50.043884 
L 380.268654 51.597029 
L 380.513307 52.43221 
L 380.75796 63.67053 
L 381.002613 61.707121 
L 381.247266 56.62277 
L 381.491919 55.084278 
L 381.736572 51.948684 
L 381.981225 54.000007 
L 382.225878 53.282044 
L 382.470531 55.538499 
L 382.715184 51.406549 
L 382.959838 49.95597 
L 383.204491 49.560358 
L 383.449144 50.893718 
L 383.693797 49.208703 
L 383.93845 49.487096 
L 384.672409 44.270875 
L 384.917062 44.388093 
L 385.161715 46.541983 
L 385.406368 45.926586 
L 385.651021 51.362592 
L 385.895674 50.586019 
L 386.140327 52.344296 
L 386.38498 52.300339 
L 386.629633 41.677416 
L 386.874286 38.761607 
L 387.118939 38.483213 
L 387.363592 34.673613 
L 387.608245 40.153576 
L 387.852898 40.153576 
L 387.852898 40.153576 
" style="fill:none;stroke:#ff7f0e;stroke-linecap:square;stroke-width:1.5;"/>
   </g>
   <g id="patch_3">
    <path d="M 46.965625 288.430125 
L 46.965625 22.318125 
" style="fill:none;stroke:#000000;stroke-linecap:square;stroke-linejoin:miter;stroke-width:0.8;"/>
   </g>
   <g id="patch_4">
    <path d="M 404.085625 288.430125 
L 404.085625 22.318125 
" style="fill:none;stroke:#000000;stroke-linecap:square;stroke-linejoin:miter;stroke-width:0.8;"/>
   </g>
   <g id="patch_5">
    <path d="M 46.965625 288.430125 
L 404.085625 288.430125 
" style="fill:none;stroke:#000000;stroke-linecap:square;stroke-linejoin:miter;stroke-width:0.8;"/>
   </g>
   <g id="patch_6">
    <path d="M 46.965625 22.318125 
L 404.085625 22.318125 
" style="fill:none;stroke:#000000;stroke-linecap:square;stroke-linejoin:miter;stroke-width:0.8;"/>
   </g>
   <g id="text_17">
    <!-- Training: FB -->
    <defs>
     <path d="M -0.296875 72.90625 
L 61.375 72.90625 
L 61.375 64.59375 
L 35.5 64.59375 
L 35.5 0 
L 25.59375 0 
L 25.59375 64.59375 
L -0.296875 64.59375 
z
" id="DejaVuSans-84"/>
     <path d="M 54.890625 33.015625 
L 54.890625 0 
L 45.90625 0 
L 45.90625 32.71875 
Q 45.90625 40.484375 42.875 44.328125 
Q 39.84375 48.1875 33.796875 48.1875 
Q 26.515625 48.1875 22.3125 43.546875 
Q 18.109375 38.921875 18.109375 30.90625 
L 18.109375 0 
L 9.078125 0 
L 9.078125 54.6875 
L 18.109375 54.6875 
L 18.109375 46.1875 
Q 21.34375 51.125 25.703125 53.5625 
Q 30.078125 56 35.796875 56 
Q 45.21875 56 50.046875 50.171875 
Q 54.890625 44.34375 54.890625 33.015625 
z
" id="DejaVuSans-110"/>
     <path d="M 45.40625 27.984375 
Q 45.40625 37.75 41.375 43.109375 
Q 37.359375 48.484375 30.078125 48.484375 
Q 22.859375 48.484375 18.828125 43.109375 
Q 14.796875 37.75 14.796875 27.984375 
Q 14.796875 18.265625 18.828125 12.890625 
Q 22.859375 7.515625 30.078125 7.515625 
Q 37.359375 7.515625 41.375 12.890625 
Q 45.40625 18.265625 45.40625 27.984375 
z
M 54.390625 6.78125 
Q 54.390625 -7.171875 48.1875 -13.984375 
Q 42 -20.796875 29.203125 -20.796875 
Q 24.46875 -20.796875 20.265625 -20.09375 
Q 16.0625 -19.390625 12.109375 -17.921875 
L 12.109375 -9.1875 
Q 16.0625 -11.328125 19.921875 -12.34375 
Q 23.78125 -13.375 27.78125 -13.375 
Q 36.625 -13.375 41.015625 -8.765625 
Q 45.40625 -4.15625 45.40625 5.171875 
L 45.40625 9.625 
Q 42.625 4.78125 38.28125 2.390625 
Q 33.9375 0 27.875 0 
Q 17.828125 0 11.671875 7.65625 
Q 5.515625 15.328125 5.515625 27.984375 
Q 5.515625 40.671875 11.671875 48.328125 
Q 17.828125 56 27.875 56 
Q 33.9375 56 38.28125 53.609375 
Q 42.625 51.21875 45.40625 46.390625 
L 45.40625 54.6875 
L 54.390625 54.6875 
z
" id="DejaVuSans-103"/>
     <path d="M 11.71875 12.40625 
L 22.015625 12.40625 
L 22.015625 0 
L 11.71875 0 
z
M 11.71875 51.703125 
L 22.015625 51.703125 
L 22.015625 39.3125 
L 11.71875 39.3125 
z
" id="DejaVuSans-58"/>
     <path d="M 9.8125 72.90625 
L 51.703125 72.90625 
L 51.703125 64.59375 
L 19.671875 64.59375 
L 19.671875 43.109375 
L 48.578125 43.109375 
L 48.578125 34.8125 
L 19.671875 34.8125 
L 19.671875 0 
L 9.8125 0 
z
" id="DejaVuSans-70"/>
     <path d="M 19.671875 34.8125 
L 19.671875 8.109375 
L 35.5 8.109375 
Q 43.453125 8.109375 47.28125 11.40625 
Q 51.125 14.703125 51.125 21.484375 
Q 51.125 28.328125 47.28125 31.5625 
Q 43.453125 34.8125 35.5 34.8125 
z
M 19.671875 64.796875 
L 19.671875 42.828125 
L 34.28125 42.828125 
Q 41.5 42.828125 45.03125 45.53125 
Q 48.578125 48.25 48.578125 53.8125 
Q 48.578125 59.328125 45.03125 62.0625 
Q 41.5 64.796875 34.28125 64.796875 
z
M 9.8125 72.90625 
L 35.015625 72.90625 
Q 46.296875 72.90625 52.390625 68.21875 
Q 58.5 63.53125 58.5 54.890625 
Q 58.5 48.1875 55.375 44.234375 
Q 52.25 40.28125 46.1875 39.3125 
Q 53.46875 37.75 57.5 32.78125 
Q 61.53125 27.828125 61.53125 20.40625 
Q 61.53125 10.640625 54.890625 5.3125 
Q 48.25 0 35.984375 0 
L 9.8125 0 
z
" id="DejaVuSans-66"/>
    </defs>
    <g transform="translate(190.359063 16.318125)scale(0.12 -0.12)">
     <use xlink:href="#DejaVuSans-84"/>
     <use x="46.333984" xlink:href="#DejaVuSans-114"/>
     <use x="87.447266" xlink:href="#DejaVuSans-97"/>
     <use x="148.726562" xlink:href="#DejaVuSans-105"/>
     <use x="176.509766" xlink:href="#DejaVuSans-110"/>
     <use x="239.888672" xlink:href="#DejaVuSans-105"/>
     <use x="267.671875" xlink:href="#DejaVuSans-110"/>
     <use x="331.050781" xlink:href="#DejaVuSans-103"/>
     <use x="394.527344" xlink:href="#DejaVuSans-58"/>
     <use x="428.21875" xlink:href="#DejaVuSans-32"/>
     <use x="460.005859" xlink:href="#DejaVuSans-70"/>
     <use x="517.525391" xlink:href="#DejaVuSans-66"/>
    </g>
   </g>
   <g id="legend_1">
    <g id="patch_7">
     <path d="M 53.965625 59.674375 
L 137.69375 59.674375 
Q 139.69375 59.674375 139.69375 57.674375 
L 139.69375 29.318125 
Q 139.69375 27.318125 137.69375 27.318125 
L 53.965625 27.318125 
Q 51.965625 27.318125 51.965625 29.318125 
L 51.965625 57.674375 
Q 51.965625 59.674375 53.965625 59.674375 
z
" style="fill:#ffffff;opacity:0.8;stroke:#cccccc;stroke-linejoin:miter;"/>
    </g>
    <g id="line2d_31">
     <path d="M 55.965625 35.416562 
L 75.965625 35.416562 
" style="fill:none;stroke:#1f77b4;stroke-linecap:square;stroke-width:1.5;"/>
    </g>
    <g id="line2d_32"/>
    <g id="text_18">
     <!-- Predicted -->
     <defs>
      <path d="M 45.40625 46.390625 
L 45.40625 75.984375 
L 54.390625 75.984375 
L 54.390625 0 
L 45.40625 0 
L 45.40625 8.203125 
Q 42.578125 3.328125 38.25 0.953125 
Q 33.9375 -1.421875 27.875 -1.421875 
Q 17.96875 -1.421875 11.734375 6.484375 
Q 5.515625 14.40625 5.515625 27.296875 
Q 5.515625 40.1875 11.734375 48.09375 
Q 17.96875 56 27.875 56 
Q 33.9375 56 38.25 53.625 
Q 42.578125 51.265625 45.40625 46.390625 
z
M 14.796875 27.296875 
Q 14.796875 17.390625 18.875 11.75 
Q 22.953125 6.109375 30.078125 6.109375 
Q 37.203125 6.109375 41.296875 11.75 
Q 45.40625 17.390625 45.40625 27.296875 
Q 45.40625 37.203125 41.296875 42.84375 
Q 37.203125 48.484375 30.078125 48.484375 
Q 22.953125 48.484375 18.875 42.84375 
Q 14.796875 37.203125 14.796875 27.296875 
z
" id="DejaVuSans-100"/>
      <path d="M 18.3125 70.21875 
L 18.3125 54.6875 
L 36.8125 54.6875 
L 36.8125 47.703125 
L 18.3125 47.703125 
L 18.3125 18.015625 
Q 18.3125 11.328125 20.140625 9.421875 
Q 21.96875 7.515625 27.59375 7.515625 
L 36.8125 7.515625 
L 36.8125 0 
L 27.59375 0 
Q 17.1875 0 13.234375 3.875 
Q 9.28125 7.765625 9.28125 18.015625 
L 9.28125 47.703125 
L 2.6875 47.703125 
L 2.6875 54.6875 
L 9.28125 54.6875 
L 9.28125 70.21875 
z
" id="DejaVuSans-116"/>
     </defs>
     <g transform="translate(83.965625 38.916562)scale(0.1 -0.1)">
      <use xlink:href="#DejaVuSans-80"/>
      <use x="58.552734" xlink:href="#DejaVuSans-114"/>
      <use x="97.416016" xlink:href="#DejaVuSans-101"/>
      <use x="158.939453" xlink:href="#DejaVuSans-100"/>
      <use x="222.416016" xlink:href="#DejaVuSans-105"/>
      <use x="250.199219" xlink:href="#DejaVuSans-99"/>
      <use x="305.179688" xlink:href="#DejaVuSans-116"/>
      <use x="344.388672" xlink:href="#DejaVuSans-101"/>
      <use x="405.912109" xlink:href="#DejaVuSans-100"/>
     </g>
    </g>
    <g id="line2d_33">
     <path d="M 55.965625 50.094687 
L 75.965625 50.094687 
" style="fill:none;stroke:#ff7f0e;stroke-linecap:square;stroke-width:1.5;"/>
    </g>
    <g id="line2d_34"/>
    <g id="text_19">
     <!-- True value -->
     <defs>
      <path d="M 8.5 21.578125 
L 8.5 54.6875 
L 17.484375 54.6875 
L 17.484375 21.921875 
Q 17.484375 14.15625 20.5 10.265625 
Q 23.53125 6.390625 29.59375 6.390625 
Q 36.859375 6.390625 41.078125 11.03125 
Q 45.3125 15.671875 45.3125 23.6875 
L 45.3125 54.6875 
L 54.296875 54.6875 
L 54.296875 0 
L 45.3125 0 
L 45.3125 8.40625 
Q 42.046875 3.421875 37.71875 1 
Q 33.40625 -1.421875 27.6875 -1.421875 
Q 18.265625 -1.421875 13.375 4.4375 
Q 8.5 10.296875 8.5 21.578125 
z
M 31.109375 56 
z
" id="DejaVuSans-117"/>
      <path d="M 2.984375 54.6875 
L 12.5 54.6875 
L 29.59375 8.796875 
L 46.6875 54.6875 
L 56.203125 54.6875 
L 35.6875 0 
L 23.484375 0 
z
" id="DejaVuSans-118"/>
      <path d="M 9.421875 75.984375 
L 18.40625 75.984375 
L 18.40625 0 
L 9.421875 0 
z
" id="DejaVuSans-108"/>
     </defs>
     <g transform="translate(83.965625 53.594687)scale(0.1 -0.1)">
      <use xlink:href="#DejaVuSans-84"/>
      <use x="46.333984" xlink:href="#DejaVuSans-114"/>
      <use x="87.447266" xlink:href="#DejaVuSans-117"/>
      <use x="150.826172" xlink:href="#DejaVuSans-101"/>
      <use x="212.349609" xlink:href="#DejaVuSans-32"/>
      <use x="244.136719" xlink:href="#DejaVuSans-118"/>
      <use x="303.316406" xlink:href="#DejaVuSans-97"/>
      <use x="364.595703" xlink:href="#DejaVuSans-108"/>
      <use x="392.378906" xlink:href="#DejaVuSans-117"/>
      <use x="455.757812" xlink:href="#DejaVuSans-101"/>
     </g>
    </g>
   </g>
  </g>
 </g>
 <defs>
  <clipPath id="pba8dc95ff9">
   <rect height="266.112" width="357.12" x="46.965625" y="22.318125"/>
  </clipPath>
 </defs>
</svg>
