<?xml version="1.0" encoding="utf-8" standalone="no"?>
<!DOCTYPE svg PUBLIC "-//W3C//DTD SVG 1.1//EN"
  "http://www.w3.org/Graphics/SVG/1.1/DTD/svg11.dtd">
<!-- Created with matplotlib (https://matplotlib.org/) -->
<svg height="325.986375pt" version="1.1" viewBox="0 0 404.923125 325.986375" width="404.923125pt" xmlns="http://www.w3.org/2000/svg" xmlns:xlink="http://www.w3.org/1999/xlink">
 <defs>
  <style type="text/css">
*{stroke-linecap:butt;stroke-linejoin:round;}
  </style>
 </defs>
 <g id="figure_1">
  <g id="patch_1">
   <path d="M 0 325.986375 
L 404.923125 325.986375 
L 404.923125 0 
L 0 0 
z
" style="fill:#ffffff;"/>
  </g>
  <g id="axes_1">
   <g id="patch_2">
    <path d="M 40.603125 288.430125 
L 397.723125 288.430125 
L 397.723125 22.318125 
L 40.603125 22.318125 
z
" style="fill:#ffffff;"/>
   </g>
   <g id="matplotlib.axis_1">
    <g id="xtick_1">
     <g id="line2d_1">
      <path clip-path="url(#paf6ef4486e)" d="M 56.835852 288.430125 
L 56.835852 22.318125 
" style="fill:none;stroke:#b0b0b0;stroke-dasharray:2.96,1.28;stroke-dashoffset:0;stroke-width:0.8;"/>
     </g>
     <g id="line2d_2">
      <defs>
       <path d="M 0 0 
L 0 3.5 
" id="me998cd4cd8" style="stroke:#000000;stroke-width:0.8;"/>
      </defs>
      <g>
       <use style="stroke:#000000;stroke-width:0.8;" x="56.835852" xlink:href="#me998cd4cd8" y="288.430125"/>
      </g>
     </g>
     <g id="text_1">
      <!-- 0 -->
      <defs>
       <path d="M 31.78125 66.40625 
Q 24.171875 66.40625 20.328125 58.90625 
Q 16.5 51.421875 16.5 36.375 
Q 16.5 21.390625 20.328125 13.890625 
Q 24.171875 6.390625 31.78125 6.390625 
Q 39.453125 6.390625 43.28125 13.890625 
Q 47.125 21.390625 47.125 36.375 
Q 47.125 51.421875 43.28125 58.90625 
Q 39.453125 66.40625 31.78125 66.40625 
z
M 31.78125 74.21875 
Q 44.046875 74.21875 50.515625 64.515625 
Q 56.984375 54.828125 56.984375 36.375 
Q 56.984375 17.96875 50.515625 8.265625 
Q 44.046875 -1.421875 31.78125 -1.421875 
Q 19.53125 -1.421875 13.0625 8.265625 
Q 6.59375 17.96875 6.59375 36.375 
Q 6.59375 54.828125 13.0625 64.515625 
Q 19.53125 74.21875 31.78125 74.21875 
z
" id="DejaVuSans-48"/>
      </defs>
      <g transform="translate(53.654602 303.028562)scale(0.1 -0.1)">
       <use xlink:href="#DejaVuSans-48"/>
      </g>
     </g>
    </g>
    <g id="xtick_2">
     <g id="line2d_3">
      <path clip-path="url(#paf6ef4486e)" d="M 105.766454 288.430125 
L 105.766454 22.318125 
" style="fill:none;stroke:#b0b0b0;stroke-dasharray:2.96,1.28;stroke-dashoffset:0;stroke-width:0.8;"/>
     </g>
     <g id="line2d_4">
      <g>
       <use style="stroke:#000000;stroke-width:0.8;" x="105.766454" xlink:href="#me998cd4cd8" y="288.430125"/>
      </g>
     </g>
     <g id="text_2">
      <!-- 200 -->
      <defs>
       <path d="M 19.1875 8.296875 
L 53.609375 8.296875 
L 53.609375 0 
L 7.328125 0 
L 7.328125 8.296875 
Q 12.9375 14.109375 22.625 23.890625 
Q 32.328125 33.6875 34.8125 36.53125 
Q 39.546875 41.84375 41.421875 45.53125 
Q 43.3125 49.21875 43.3125 52.78125 
Q 43.3125 58.59375 39.234375 62.25 
Q 35.15625 65.921875 28.609375 65.921875 
Q 23.96875 65.921875 18.8125 64.3125 
Q 13.671875 62.703125 7.8125 59.421875 
L 7.8125 69.390625 
Q 13.765625 71.78125 18.9375 73 
Q 24.125 74.21875 28.421875 74.21875 
Q 39.75 74.21875 46.484375 68.546875 
Q 53.21875 62.890625 53.21875 53.421875 
Q 53.21875 48.921875 51.53125 44.890625 
Q 49.859375 40.875 45.40625 35.40625 
Q 44.1875 33.984375 37.640625 27.21875 
Q 31.109375 20.453125 19.1875 8.296875 
z
" id="DejaVuSans-50"/>
      </defs>
      <g transform="translate(96.222704 303.028562)scale(0.1 -0.1)">
       <use xlink:href="#DejaVuSans-50"/>
       <use x="63.623047" xlink:href="#DejaVuSans-48"/>
       <use x="127.246094" xlink:href="#DejaVuSans-48"/>
      </g>
     </g>
    </g>
    <g id="xtick_3">
     <g id="line2d_5">
      <path clip-path="url(#paf6ef4486e)" d="M 154.697057 288.430125 
L 154.697057 22.318125 
" style="fill:none;stroke:#b0b0b0;stroke-dasharray:2.96,1.28;stroke-dashoffset:0;stroke-width:0.8;"/>
     </g>
     <g id="line2d_6">
      <g>
       <use style="stroke:#000000;stroke-width:0.8;" x="154.697057" xlink:href="#me998cd4cd8" y="288.430125"/>
      </g>
     </g>
     <g id="text_3">
      <!-- 400 -->
      <defs>
       <path d="M 37.796875 64.3125 
L 12.890625 25.390625 
L 37.796875 25.390625 
z
M 35.203125 72.90625 
L 47.609375 72.90625 
L 47.609375 25.390625 
L 58.015625 25.390625 
L 58.015625 17.1875 
L 47.609375 17.1875 
L 47.609375 0 
L 37.796875 0 
L 37.796875 17.1875 
L 4.890625 17.1875 
L 4.890625 26.703125 
z
" id="DejaVuSans-52"/>
      </defs>
      <g transform="translate(145.153307 303.028562)scale(0.1 -0.1)">
       <use xlink:href="#DejaVuSans-52"/>
       <use x="63.623047" xlink:href="#DejaVuSans-48"/>
       <use x="127.246094" xlink:href="#DejaVuSans-48"/>
      </g>
     </g>
    </g>
    <g id="xtick_4">
     <g id="line2d_7">
      <path clip-path="url(#paf6ef4486e)" d="M 203.627659 288.430125 
L 203.627659 22.318125 
" style="fill:none;stroke:#b0b0b0;stroke-dasharray:2.96,1.28;stroke-dashoffset:0;stroke-width:0.8;"/>
     </g>
     <g id="line2d_8">
      <g>
       <use style="stroke:#000000;stroke-width:0.8;" x="203.627659" xlink:href="#me998cd4cd8" y="288.430125"/>
      </g>
     </g>
     <g id="text_4">
      <!-- 600 -->
      <defs>
       <path d="M 33.015625 40.375 
Q 26.375 40.375 22.484375 35.828125 
Q 18.609375 31.296875 18.609375 23.390625 
Q 18.609375 15.53125 22.484375 10.953125 
Q 26.375 6.390625 33.015625 6.390625 
Q 39.65625 6.390625 43.53125 10.953125 
Q 47.40625 15.53125 47.40625 23.390625 
Q 47.40625 31.296875 43.53125 35.828125 
Q 39.65625 40.375 33.015625 40.375 
z
M 52.59375 71.296875 
L 52.59375 62.3125 
Q 48.875 64.0625 45.09375 64.984375 
Q 41.3125 65.921875 37.59375 65.921875 
Q 27.828125 65.921875 22.671875 59.328125 
Q 17.53125 52.734375 16.796875 39.40625 
Q 19.671875 43.65625 24.015625 45.921875 
Q 28.375 48.1875 33.59375 48.1875 
Q 44.578125 48.1875 50.953125 41.515625 
Q 57.328125 34.859375 57.328125 23.390625 
Q 57.328125 12.15625 50.6875 5.359375 
Q 44.046875 -1.421875 33.015625 -1.421875 
Q 20.359375 -1.421875 13.671875 8.265625 
Q 6.984375 17.96875 6.984375 36.375 
Q 6.984375 53.65625 15.1875 63.9375 
Q 23.390625 74.21875 37.203125 74.21875 
Q 40.921875 74.21875 44.703125 73.484375 
Q 48.484375 72.75 52.59375 71.296875 
z
" id="DejaVuSans-54"/>
      </defs>
      <g transform="translate(194.083909 303.028562)scale(0.1 -0.1)">
       <use xlink:href="#DejaVuSans-54"/>
       <use x="63.623047" xlink:href="#DejaVuSans-48"/>
       <use x="127.246094" xlink:href="#DejaVuSans-48"/>
      </g>
     </g>
    </g>
    <g id="xtick_5">
     <g id="line2d_9">
      <path clip-path="url(#paf6ef4486e)" d="M 252.558261 288.430125 
L 252.558261 22.318125 
" style="fill:none;stroke:#b0b0b0;stroke-dasharray:2.96,1.28;stroke-dashoffset:0;stroke-width:0.8;"/>
     </g>
     <g id="line2d_10">
      <g>
       <use style="stroke:#000000;stroke-width:0.8;" x="252.558261" xlink:href="#me998cd4cd8" y="288.430125"/>
      </g>
     </g>
     <g id="text_5">
      <!-- 800 -->
      <defs>
       <path d="M 31.78125 34.625 
Q 24.75 34.625 20.71875 30.859375 
Q 16.703125 27.09375 16.703125 20.515625 
Q 16.703125 13.921875 20.71875 10.15625 
Q 24.75 6.390625 31.78125 6.390625 
Q 38.8125 6.390625 42.859375 10.171875 
Q 46.921875 13.96875 46.921875 20.515625 
Q 46.921875 27.09375 42.890625 30.859375 
Q 38.875 34.625 31.78125 34.625 
z
M 21.921875 38.8125 
Q 15.578125 40.375 12.03125 44.71875 
Q 8.5 49.078125 8.5 55.328125 
Q 8.5 64.0625 14.71875 69.140625 
Q 20.953125 74.21875 31.78125 74.21875 
Q 42.671875 74.21875 48.875 69.140625 
Q 55.078125 64.0625 55.078125 55.328125 
Q 55.078125 49.078125 51.53125 44.71875 
Q 48 40.375 41.703125 38.8125 
Q 48.828125 37.15625 52.796875 32.3125 
Q 56.78125 27.484375 56.78125 20.515625 
Q 56.78125 9.90625 50.3125 4.234375 
Q 43.84375 -1.421875 31.78125 -1.421875 
Q 19.734375 -1.421875 13.25 4.234375 
Q 6.78125 9.90625 6.78125 20.515625 
Q 6.78125 27.484375 10.78125 32.3125 
Q 14.796875 37.15625 21.921875 38.8125 
z
M 18.3125 54.390625 
Q 18.3125 48.734375 21.84375 45.5625 
Q 25.390625 42.390625 31.78125 42.390625 
Q 38.140625 42.390625 41.71875 45.5625 
Q 45.3125 48.734375 45.3125 54.390625 
Q 45.3125 60.0625 41.71875 63.234375 
Q 38.140625 66.40625 31.78125 66.40625 
Q 25.390625 66.40625 21.84375 63.234375 
Q 18.3125 60.0625 18.3125 54.390625 
z
" id="DejaVuSans-56"/>
      </defs>
      <g transform="translate(243.014511 303.028562)scale(0.1 -0.1)">
       <use xlink:href="#DejaVuSans-56"/>
       <use x="63.623047" xlink:href="#DejaVuSans-48"/>
       <use x="127.246094" xlink:href="#DejaVuSans-48"/>
      </g>
     </g>
    </g>
    <g id="xtick_6">
     <g id="line2d_11">
      <path clip-path="url(#paf6ef4486e)" d="M 301.488863 288.430125 
L 301.488863 22.318125 
" style="fill:none;stroke:#b0b0b0;stroke-dasharray:2.96,1.28;stroke-dashoffset:0;stroke-width:0.8;"/>
     </g>
     <g id="line2d_12">
      <g>
       <use style="stroke:#000000;stroke-width:0.8;" x="301.488863" xlink:href="#me998cd4cd8" y="288.430125"/>
      </g>
     </g>
     <g id="text_6">
      <!-- 1000 -->
      <defs>
       <path d="M 12.40625 8.296875 
L 28.515625 8.296875 
L 28.515625 63.921875 
L 10.984375 60.40625 
L 10.984375 69.390625 
L 28.421875 72.90625 
L 38.28125 72.90625 
L 38.28125 8.296875 
L 54.390625 8.296875 
L 54.390625 0 
L 12.40625 0 
z
" id="DejaVuSans-49"/>
      </defs>
      <g transform="translate(288.763863 303.028562)scale(0.1 -0.1)">
       <use xlink:href="#DejaVuSans-49"/>
       <use x="63.623047" xlink:href="#DejaVuSans-48"/>
       <use x="127.246094" xlink:href="#DejaVuSans-48"/>
       <use x="190.869141" xlink:href="#DejaVuSans-48"/>
      </g>
     </g>
    </g>
    <g id="xtick_7">
     <g id="line2d_13">
      <path clip-path="url(#paf6ef4486e)" d="M 350.419465 288.430125 
L 350.419465 22.318125 
" style="fill:none;stroke:#b0b0b0;stroke-dasharray:2.96,1.28;stroke-dashoffset:0;stroke-width:0.8;"/>
     </g>
     <g id="line2d_14">
      <g>
       <use style="stroke:#000000;stroke-width:0.8;" x="350.419465" xlink:href="#me998cd4cd8" y="288.430125"/>
      </g>
     </g>
     <g id="text_7">
      <!-- 1200 -->
      <g transform="translate(337.694465 303.028562)scale(0.1 -0.1)">
       <use xlink:href="#DejaVuSans-49"/>
       <use x="63.623047" xlink:href="#DejaVuSans-50"/>
       <use x="127.246094" xlink:href="#DejaVuSans-48"/>
       <use x="190.869141" xlink:href="#DejaVuSans-48"/>
      </g>
     </g>
    </g>
    <g id="text_8">
     <!-- Day -->
     <defs>
      <path d="M 19.671875 64.796875 
L 19.671875 8.109375 
L 31.59375 8.109375 
Q 46.6875 8.109375 53.6875 14.9375 
Q 60.6875 21.78125 60.6875 36.53125 
Q 60.6875 51.171875 53.6875 57.984375 
Q 46.6875 64.796875 31.59375 64.796875 
z
M 9.8125 72.90625 
L 30.078125 72.90625 
Q 51.265625 72.90625 61.171875 64.09375 
Q 71.09375 55.28125 71.09375 36.53125 
Q 71.09375 17.671875 61.125 8.828125 
Q 51.171875 0 30.078125 0 
L 9.8125 0 
z
" id="DejaVuSans-68"/>
      <path d="M 34.28125 27.484375 
Q 23.390625 27.484375 19.1875 25 
Q 14.984375 22.515625 14.984375 16.5 
Q 14.984375 11.71875 18.140625 8.90625 
Q 21.296875 6.109375 26.703125 6.109375 
Q 34.1875 6.109375 38.703125 11.40625 
Q 43.21875 16.703125 43.21875 25.484375 
L 43.21875 27.484375 
z
M 52.203125 31.203125 
L 52.203125 0 
L 43.21875 0 
L 43.21875 8.296875 
Q 40.140625 3.328125 35.546875 0.953125 
Q 30.953125 -1.421875 24.3125 -1.421875 
Q 15.921875 -1.421875 10.953125 3.296875 
Q 6 8.015625 6 15.921875 
Q 6 25.140625 12.171875 29.828125 
Q 18.359375 34.515625 30.609375 34.515625 
L 43.21875 34.515625 
L 43.21875 35.40625 
Q 43.21875 41.609375 39.140625 45 
Q 35.0625 48.390625 27.6875 48.390625 
Q 23 48.390625 18.546875 47.265625 
Q 14.109375 46.140625 10.015625 43.890625 
L 10.015625 52.203125 
Q 14.9375 54.109375 19.578125 55.046875 
Q 24.21875 56 28.609375 56 
Q 40.484375 56 46.34375 49.84375 
Q 52.203125 43.703125 52.203125 31.203125 
z
" id="DejaVuSans-97"/>
      <path d="M 32.171875 -5.078125 
Q 28.375 -14.84375 24.75 -17.8125 
Q 21.140625 -20.796875 15.09375 -20.796875 
L 7.90625 -20.796875 
L 7.90625 -13.28125 
L 13.1875 -13.28125 
Q 16.890625 -13.28125 18.9375 -11.515625 
Q 21 -9.765625 23.484375 -3.21875 
L 25.09375 0.875 
L 2.984375 54.6875 
L 12.5 54.6875 
L 29.59375 11.921875 
L 46.6875 54.6875 
L 56.203125 54.6875 
z
" id="DejaVuSans-121"/>
     </defs>
     <g transform="translate(209.289688 316.706687)scale(0.1 -0.1)">
      <use xlink:href="#DejaVuSans-68"/>
      <use x="77.001953" xlink:href="#DejaVuSans-97"/>
      <use x="138.28125" xlink:href="#DejaVuSans-121"/>
     </g>
    </g>
   </g>
   <g id="matplotlib.axis_2">
    <g id="ytick_1">
     <g id="line2d_15">
      <path clip-path="url(#paf6ef4486e)" d="M 40.603125 260.791743 
L 397.723125 260.791743 
" style="fill:none;stroke:#b0b0b0;stroke-dasharray:2.96,1.28;stroke-dashoffset:0;stroke-width:0.8;"/>
     </g>
     <g id="line2d_16">
      <defs>
       <path d="M 0 0 
L -3.5 0 
" id="m82555f9c41" style="stroke:#000000;stroke-width:0.8;"/>
      </defs>
      <g>
       <use style="stroke:#000000;stroke-width:0.8;" x="40.603125" xlink:href="#m82555f9c41" y="260.791743"/>
      </g>
     </g>
     <g id="text_9">
      <!-- 24 -->
      <g transform="translate(20.878125 264.590962)scale(0.1 -0.1)">
       <use xlink:href="#DejaVuSans-50"/>
       <use x="63.623047" xlink:href="#DejaVuSans-52"/>
      </g>
     </g>
    </g>
    <g id="ytick_2">
     <g id="line2d_17">
      <path clip-path="url(#paf6ef4486e)" d="M 40.603125 227.005354 
L 397.723125 227.005354 
" style="fill:none;stroke:#b0b0b0;stroke-dasharray:2.96,1.28;stroke-dashoffset:0;stroke-width:0.8;"/>
     </g>
     <g id="line2d_18">
      <g>
       <use style="stroke:#000000;stroke-width:0.8;" x="40.603125" xlink:href="#m82555f9c41" y="227.005354"/>
      </g>
     </g>
     <g id="text_10">
      <!-- 26 -->
      <g transform="translate(20.878125 230.804573)scale(0.1 -0.1)">
       <use xlink:href="#DejaVuSans-50"/>
       <use x="63.623047" xlink:href="#DejaVuSans-54"/>
      </g>
     </g>
    </g>
    <g id="ytick_3">
     <g id="line2d_19">
      <path clip-path="url(#paf6ef4486e)" d="M 40.603125 193.218965 
L 397.723125 193.218965 
" style="fill:none;stroke:#b0b0b0;stroke-dasharray:2.96,1.28;stroke-dashoffset:0;stroke-width:0.8;"/>
     </g>
     <g id="line2d_20">
      <g>
       <use style="stroke:#000000;stroke-width:0.8;" x="40.603125" xlink:href="#m82555f9c41" y="193.218965"/>
      </g>
     </g>
     <g id="text_11">
      <!-- 28 -->
      <g transform="translate(20.878125 197.018184)scale(0.1 -0.1)">
       <use xlink:href="#DejaVuSans-50"/>
       <use x="63.623047" xlink:href="#DejaVuSans-56"/>
      </g>
     </g>
    </g>
    <g id="ytick_4">
     <g id="line2d_21">
      <path clip-path="url(#paf6ef4486e)" d="M 40.603125 159.432576 
L 397.723125 159.432576 
" style="fill:none;stroke:#b0b0b0;stroke-dasharray:2.96,1.28;stroke-dashoffset:0;stroke-width:0.8;"/>
     </g>
     <g id="line2d_22">
      <g>
       <use style="stroke:#000000;stroke-width:0.8;" x="40.603125" xlink:href="#m82555f9c41" y="159.432576"/>
      </g>
     </g>
     <g id="text_12">
      <!-- 30 -->
      <defs>
       <path d="M 40.578125 39.3125 
Q 47.65625 37.796875 51.625 33 
Q 55.609375 28.21875 55.609375 21.1875 
Q 55.609375 10.40625 48.1875 4.484375 
Q 40.765625 -1.421875 27.09375 -1.421875 
Q 22.515625 -1.421875 17.65625 -0.515625 
Q 12.796875 0.390625 7.625 2.203125 
L 7.625 11.71875 
Q 11.71875 9.328125 16.59375 8.109375 
Q 21.484375 6.890625 26.8125 6.890625 
Q 36.078125 6.890625 40.9375 10.546875 
Q 45.796875 14.203125 45.796875 21.1875 
Q 45.796875 27.640625 41.28125 31.265625 
Q 36.765625 34.90625 28.71875 34.90625 
L 20.21875 34.90625 
L 20.21875 43.015625 
L 29.109375 43.015625 
Q 36.375 43.015625 40.234375 45.921875 
Q 44.09375 48.828125 44.09375 54.296875 
Q 44.09375 59.90625 40.109375 62.90625 
Q 36.140625 65.921875 28.71875 65.921875 
Q 24.65625 65.921875 20.015625 65.03125 
Q 15.375 64.15625 9.8125 62.3125 
L 9.8125 71.09375 
Q 15.4375 72.65625 20.34375 73.4375 
Q 25.25 74.21875 29.59375 74.21875 
Q 40.828125 74.21875 47.359375 69.109375 
Q 53.90625 64.015625 53.90625 55.328125 
Q 53.90625 49.265625 50.4375 45.09375 
Q 46.96875 40.921875 40.578125 39.3125 
z
" id="DejaVuSans-51"/>
      </defs>
      <g transform="translate(20.878125 163.231794)scale(0.1 -0.1)">
       <use xlink:href="#DejaVuSans-51"/>
       <use x="63.623047" xlink:href="#DejaVuSans-48"/>
      </g>
     </g>
    </g>
    <g id="ytick_5">
     <g id="line2d_23">
      <path clip-path="url(#paf6ef4486e)" d="M 40.603125 125.646187 
L 397.723125 125.646187 
" style="fill:none;stroke:#b0b0b0;stroke-dasharray:2.96,1.28;stroke-dashoffset:0;stroke-width:0.8;"/>
     </g>
     <g id="line2d_24">
      <g>
       <use style="stroke:#000000;stroke-width:0.8;" x="40.603125" xlink:href="#m82555f9c41" y="125.646187"/>
      </g>
     </g>
     <g id="text_13">
      <!-- 32 -->
      <g transform="translate(20.878125 129.445405)scale(0.1 -0.1)">
       <use xlink:href="#DejaVuSans-51"/>
       <use x="63.623047" xlink:href="#DejaVuSans-50"/>
      </g>
     </g>
    </g>
    <g id="ytick_6">
     <g id="line2d_25">
      <path clip-path="url(#paf6ef4486e)" d="M 40.603125 91.859797 
L 397.723125 91.859797 
" style="fill:none;stroke:#b0b0b0;stroke-dasharray:2.96,1.28;stroke-dashoffset:0;stroke-width:0.8;"/>
     </g>
     <g id="line2d_26">
      <g>
       <use style="stroke:#000000;stroke-width:0.8;" x="40.603125" xlink:href="#m82555f9c41" y="91.859797"/>
      </g>
     </g>
     <g id="text_14">
      <!-- 34 -->
      <g transform="translate(20.878125 95.659016)scale(0.1 -0.1)">
       <use xlink:href="#DejaVuSans-51"/>
       <use x="63.623047" xlink:href="#DejaVuSans-52"/>
      </g>
     </g>
    </g>
    <g id="ytick_7">
     <g id="line2d_27">
      <path clip-path="url(#paf6ef4486e)" d="M 40.603125 58.073408 
L 397.723125 58.073408 
" style="fill:none;stroke:#b0b0b0;stroke-dasharray:2.96,1.28;stroke-dashoffset:0;stroke-width:0.8;"/>
     </g>
     <g id="line2d_28">
      <g>
       <use style="stroke:#000000;stroke-width:0.8;" x="40.603125" xlink:href="#m82555f9c41" y="58.073408"/>
      </g>
     </g>
     <g id="text_15">
      <!-- 36 -->
      <g transform="translate(20.878125 61.872627)scale(0.1 -0.1)">
       <use xlink:href="#DejaVuSans-51"/>
       <use x="63.623047" xlink:href="#DejaVuSans-54"/>
      </g>
     </g>
    </g>
    <g id="ytick_8">
     <g id="line2d_29">
      <path clip-path="url(#paf6ef4486e)" d="M 40.603125 24.287019 
L 397.723125 24.287019 
" style="fill:none;stroke:#b0b0b0;stroke-dasharray:2.96,1.28;stroke-dashoffset:0;stroke-width:0.8;"/>
     </g>
     <g id="line2d_30">
      <g>
       <use style="stroke:#000000;stroke-width:0.8;" x="40.603125" xlink:href="#m82555f9c41" y="24.287019"/>
      </g>
     </g>
     <g id="text_16">
      <!-- 38 -->
      <g transform="translate(20.878125 28.086238)scale(0.1 -0.1)">
       <use xlink:href="#DejaVuSans-51"/>
       <use x="63.623047" xlink:href="#DejaVuSans-56"/>
      </g>
     </g>
    </g>
    <g id="text_17">
     <!-- Price $ -->
     <defs>
      <path d="M 19.671875 64.796875 
L 19.671875 37.40625 
L 32.078125 37.40625 
Q 38.96875 37.40625 42.71875 40.96875 
Q 46.484375 44.53125 46.484375 51.125 
Q 46.484375 57.671875 42.71875 61.234375 
Q 38.96875 64.796875 32.078125 64.796875 
z
M 9.8125 72.90625 
L 32.078125 72.90625 
Q 44.34375 72.90625 50.609375 67.359375 
Q 56.890625 61.8125 56.890625 51.125 
Q 56.890625 40.328125 50.609375 34.8125 
Q 44.34375 29.296875 32.078125 29.296875 
L 19.671875 29.296875 
L 19.671875 0 
L 9.8125 0 
z
" id="DejaVuSans-80"/>
      <path d="M 41.109375 46.296875 
Q 39.59375 47.171875 37.8125 47.578125 
Q 36.03125 48 33.890625 48 
Q 26.265625 48 22.1875 43.046875 
Q 18.109375 38.09375 18.109375 28.8125 
L 18.109375 0 
L 9.078125 0 
L 9.078125 54.6875 
L 18.109375 54.6875 
L 18.109375 46.1875 
Q 20.953125 51.171875 25.484375 53.578125 
Q 30.03125 56 36.53125 56 
Q 37.453125 56 38.578125 55.875 
Q 39.703125 55.765625 41.0625 55.515625 
z
" id="DejaVuSans-114"/>
      <path d="M 9.421875 54.6875 
L 18.40625 54.6875 
L 18.40625 0 
L 9.421875 0 
z
M 9.421875 75.984375 
L 18.40625 75.984375 
L 18.40625 64.59375 
L 9.421875 64.59375 
z
" id="DejaVuSans-105"/>
      <path d="M 48.78125 52.59375 
L 48.78125 44.1875 
Q 44.96875 46.296875 41.140625 47.34375 
Q 37.3125 48.390625 33.40625 48.390625 
Q 24.65625 48.390625 19.8125 42.84375 
Q 14.984375 37.3125 14.984375 27.296875 
Q 14.984375 17.28125 19.8125 11.734375 
Q 24.65625 6.203125 33.40625 6.203125 
Q 37.3125 6.203125 41.140625 7.25 
Q 44.96875 8.296875 48.78125 10.40625 
L 48.78125 2.09375 
Q 45.015625 0.34375 40.984375 -0.53125 
Q 36.96875 -1.421875 32.421875 -1.421875 
Q 20.0625 -1.421875 12.78125 6.34375 
Q 5.515625 14.109375 5.515625 27.296875 
Q 5.515625 40.671875 12.859375 48.328125 
Q 20.21875 56 33.015625 56 
Q 37.15625 56 41.109375 55.140625 
Q 45.0625 54.296875 48.78125 52.59375 
z
" id="DejaVuSans-99"/>
      <path d="M 56.203125 29.59375 
L 56.203125 25.203125 
L 14.890625 25.203125 
Q 15.484375 15.921875 20.484375 11.0625 
Q 25.484375 6.203125 34.421875 6.203125 
Q 39.59375 6.203125 44.453125 7.46875 
Q 49.3125 8.734375 54.109375 11.28125 
L 54.109375 2.78125 
Q 49.265625 0.734375 44.1875 -0.34375 
Q 39.109375 -1.421875 33.890625 -1.421875 
Q 20.796875 -1.421875 13.15625 6.1875 
Q 5.515625 13.8125 5.515625 26.8125 
Q 5.515625 40.234375 12.765625 48.109375 
Q 20.015625 56 32.328125 56 
Q 43.359375 56 49.78125 48.890625 
Q 56.203125 41.796875 56.203125 29.59375 
z
M 47.21875 32.234375 
Q 47.125 39.59375 43.09375 43.984375 
Q 39.0625 48.390625 32.421875 48.390625 
Q 24.90625 48.390625 20.390625 44.140625 
Q 15.875 39.890625 15.1875 32.171875 
z
" id="DejaVuSans-101"/>
      <path id="DejaVuSans-32"/>
      <path d="M 33.796875 -14.703125 
L 28.90625 -14.703125 
L 28.859375 0 
Q 23.734375 0.09375 18.609375 1.1875 
Q 13.484375 2.296875 8.296875 4.5 
L 8.296875 13.28125 
Q 13.28125 10.15625 18.375 8.5625 
Q 23.484375 6.984375 28.90625 6.9375 
L 28.90625 29.203125 
Q 18.109375 30.953125 13.203125 35.15625 
Q 8.296875 39.359375 8.296875 46.6875 
Q 8.296875 54.640625 13.625 59.21875 
Q 18.953125 63.8125 28.90625 64.5 
L 28.90625 75.984375 
L 33.796875 75.984375 
L 33.796875 64.65625 
Q 38.328125 64.453125 42.578125 63.6875 
Q 46.828125 62.9375 50.875 61.625 
L 50.875 53.078125 
Q 46.828125 55.125 42.546875 56.25 
Q 38.28125 57.375 33.796875 57.5625 
L 33.796875 36.71875 
Q 44.875 35.015625 50.09375 30.609375 
Q 55.328125 26.21875 55.328125 18.609375 
Q 55.328125 10.359375 49.78125 5.59375 
Q 44.234375 0.828125 33.796875 0.09375 
z
M 28.90625 37.59375 
L 28.90625 57.625 
Q 23.25 56.984375 20.265625 54.390625 
Q 17.28125 51.8125 17.28125 47.515625 
Q 17.28125 43.3125 20.03125 40.96875 
Q 22.796875 38.625 28.90625 37.59375 
z
M 33.796875 28.21875 
L 33.796875 7.078125 
Q 39.984375 7.90625 43.140625 10.59375 
Q 46.296875 13.28125 46.296875 17.671875 
Q 46.296875 21.96875 43.28125 24.5 
Q 40.28125 27.046875 33.796875 28.21875 
z
" id="DejaVuSans-36"/>
     </defs>
     <g transform="translate(14.798438 172.342094)rotate(-90)scale(0.1 -0.1)">
      <use xlink:href="#DejaVuSans-80"/>
      <use x="58.552734" xlink:href="#DejaVuSans-114"/>
      <use x="99.666016" xlink:href="#DejaVuSans-105"/>
      <use x="127.449219" xlink:href="#DejaVuSans-99"/>
      <use x="182.429688" xlink:href="#DejaVuSans-101"/>
      <use x="243.953125" xlink:href="#DejaVuSans-32"/>
      <use x="275.740234" xlink:href="#DejaVuSans-36"/>
     </g>
    </g>
   </g>
   <g id="line2d_31">
    <path clip-path="url(#paf6ef4486e)" d="M 56.835852 276.334125 
L 57.080505 262.822577 
L 57.325158 261.071064 
L 57.569811 253.820933 
L 57.814464 255.338465 
L 58.059117 256.057969 
L 58.30377 250.411037 
L 58.548423 251.533498 
L 58.793076 261.385888 
L 59.037729 260.483348 
L 59.282382 260.414666 
L 59.527035 259.715136 
L 59.771688 264.039043 
L 60.016341 259.879202 
L 60.260994 259.135679 
L 60.505647 259.634747 
L 60.7503 263.808911 
L 60.994953 261.872347 
L 61.239606 265.988959 
L 61.484259 265.944964 
L 61.728912 265.261226 
L 61.973566 260.554577 
L 62.218219 262.74412 
L 62.462872 263.509673 
L 62.707525 261.649342 
L 62.952178 263.763706 
L 63.196831 263.409623 
L 63.441484 265.010216 
L 63.686137 262.340252 
L 63.93079 254.973009 
L 64.420096 259.104321 
L 64.664749 257.849245 
L 64.909402 259.627071 
L 65.154055 256.542417 
L 65.398708 264.452894 
L 65.643361 260.51677 
L 65.888014 260.752818 
L 66.132667 258.159447 
L 66.37732 253.799361 
L 66.621973 251.903265 
L 66.866626 247.916994 
L 67.111279 246.352674 
L 67.355932 246.461133 
L 67.600585 244.113624 
L 67.845238 246.019099 
L 68.089891 242.656416 
L 68.334544 241.26238 
L 68.579197 237.688748 
L 68.82385 237.150887 
L 69.068503 234.198915 
L 69.802462 240.724563 
L 70.047115 241.500543 
L 70.291768 241.550987 
L 70.536421 233.648907 
L 70.781074 229.606732 
L 71.025727 228.924945 
L 71.27038 225.422345 
L 72.004339 240.425817 
L 72.248992 238.40709 
L 72.493645 233.232485 
L 72.738298 236.449903 
L 73.227604 252.021376 
L 73.472257 252.169358 
L 73.71691 251.804207 
L 73.961563 249.671972 
L 74.206216 259.273542 
L 74.450869 259.485141 
L 74.695522 259.378525 
L 75.184828 261.50631 
L 75.674134 268.327736 
L 76.408093 257.379043 
L 76.652746 256.047528 
L 76.897399 252.752911 
L 77.142052 253.501005 
L 77.386705 257.409432 
L 77.631358 249.930313 
L 78.120664 243.583745 
L 78.60997 241.001364 
L 78.854623 232.475681 
L 79.099276 232.922705 
L 79.343929 233.694894 
L 79.588582 236.234784 
L 79.833235 232.161929 
L 80.322541 237.635443 
L 80.567194 240.304816 
L 80.811847 237.188898 
L 81.0565 232.361523 
L 81.301153 237.568067 
L 81.545806 236.205574 
L 81.790459 242.431562 
L 82.035112 242.518986 
L 82.279765 239.818202 
L 82.524418 241.622739 
L 82.769071 246.075146 
L 83.013724 242.808405 
L 83.258377 228.269687 
L 83.50303 229.426114 
L 83.747683 227.497281 
L 83.992336 227.105318 
L 84.236989 226.363917 
L 84.726296 213.307661 
L 84.970949 217.473766 
L 85.215602 213.541552 
L 85.460255 215.672641 
L 85.704908 215.835328 
L 85.949561 211.976715 
L 86.194214 217.083933 
L 86.438867 214.650687 
L 86.68352 215.204 
L 87.172826 209.298412 
L 87.417479 212.204049 
L 87.662132 197.195297 
L 88.151438 204.606337 
L 88.396091 198.451931 
L 88.640744 206.628683 
L 88.885397 200.716708 
L 89.13005 204.142267 
L 89.374703 210.50107 
L 89.619356 211.984815 
L 89.864009 207.482156 
L 90.108662 210.19283 
L 90.353315 210.069268 
L 90.597968 209.110679 
L 90.842621 205.109735 
L 91.087274 197.736218 
L 91.57658 203.114847 
L 91.821233 203.654638 
L 92.065886 213.175026 
L 92.310539 209.869373 
L 92.555192 203.242956 
L 92.799845 204.009018 
L 93.044498 203.760385 
L 93.533804 191.85341 
L 93.778457 190.913032 
L 94.02311 188.165853 
L 94.267763 189.475711 
L 94.512416 188.390486 
L 94.757069 193.913109 
L 95.246375 191.000835 
L 95.491028 192.583739 
L 95.735681 192.220502 
L 95.980334 193.122407 
L 96.224987 187.900824 
L 96.46964 191.09867 
L 96.714293 186.342696 
L 96.958946 190.25826 
L 97.203599 182.523835 
L 97.448252 181.837084 
L 97.692905 177.966119 
L 97.937558 178.365001 
L 98.182211 171.541789 
L 98.426864 175.146067 
L 98.671517 172.871035 
L 98.91617 174.044354 
L 99.160823 173.07863 
L 99.405476 173.999768 
L 99.894782 147.17334 
L 100.139435 146.691764 
L 100.384088 150.499654 
L 100.628741 141.884337 
L 100.873394 143.1596 
L 101.118047 148.062158 
L 101.3627 139.851333 
L 101.607353 142.261832 
L 101.852006 139.59481 
L 102.341312 154.033806 
L 102.585965 157.112644 
L 102.830618 151.337802 
L 103.075271 175.380821 
L 103.319924 178.381342 
L 103.564577 172.209659 
L 104.053883 182.229992 
L 104.298536 176.974281 
L 104.543189 182.367192 
L 104.787842 184.771302 
L 105.032495 182.665694 
L 105.277148 171.16471 
L 105.521801 170.5797 
L 105.766454 167.632879 
L 106.500413 182.622336 
L 106.745066 181.291487 
L 106.98972 172.092113 
L 107.234373 175.37079 
L 107.479026 176.543208 
L 107.723679 176.960168 
L 107.968332 189.801761 
L 108.212985 190.295644 
L 108.457638 208.17767 
L 108.702291 198.949689 
L 108.946944 200.674817 
L 109.191597 203.981545 
L 109.43625 192.913985 
L 109.925556 188.232266 
L 110.170209 187.195249 
L 110.414862 186.862308 
L 110.659515 175.301342 
L 110.904168 175.043675 
L 111.148821 173.654795 
L 111.393474 169.300908 
L 111.638127 174.450468 
L 111.88278 182.405404 
L 112.127433 185.49432 
L 112.372086 198.701266 
L 112.616739 193.878669 
L 113.106045 190.787071 
L 113.840004 199.322039 
L 114.084657 200.224858 
L 114.32931 194.600511 
L 115.063269 186.309151 
L 115.307922 180.421552 
L 115.552575 179.675012 
L 115.797228 179.945273 
L 116.041881 181.825124 
L 116.286534 181.728089 
L 116.531187 184.954049 
L 116.77584 174.325092 
L 117.020493 169.807887 
L 117.265146 168.582207 
L 117.754452 172.610351 
L 118.488411 164.22036 
L 118.733064 172.008587 
L 118.977717 174.231391 
L 119.22237 169.756746 
L 119.467023 173.004147 
L 119.711676 170.431075 
L 119.956329 171.876317 
L 120.200982 174.146262 
L 120.445635 172.725629 
L 120.690288 173.092586 
L 120.934941 171.720335 
L 121.424247 180.078801 
L 121.6689 187.694396 
L 122.158206 185.043077 
L 122.402859 190.210708 
L 122.647512 191.626658 
L 122.892165 188.43218 
L 123.136818 194.098398 
L 123.381471 194.525712 
L 123.626124 190.87729 
L 123.870777 192.759909 
L 124.11543 190.708975 
L 124.360083 194.234864 
L 124.604736 187.925532 
L 124.849389 189.724318 
L 125.094042 189.537552 
L 125.338695 189.095075 
L 125.828001 182.378554 
L 126.072654 188.639838 
L 126.56196 181.465627 
L 126.806613 182.676353 
L 127.051266 175.624998 
L 127.295919 179.088471 
L 127.540572 176.703454 
L 127.785225 179.708612 
L 128.029878 181.268121 
L 128.274531 185.117022 
L 128.519184 184.619794 
L 128.763837 178.334381 
L 129.00849 180.963658 
L 129.497797 176.021403 
L 129.74245 180.209081 
L 129.987103 176.102122 
L 130.476409 189.485846 
L 130.721062 188.698901 
L 130.965715 180.387992 
L 131.210368 181.312224 
L 131.455021 170.263462 
L 131.699674 173.687055 
L 132.18898 154.297773 
L 132.433633 149.776564 
L 132.678286 151.626553 
L 132.922939 146.630266 
L 133.167592 148.00141 
L 133.412245 147.779904 
L 133.656898 147.773043 
L 133.901551 145.508014 
L 134.146204 136.585367 
L 134.63551 146.739756 
L 134.880163 138.249953 
L 135.124816 136.76137 
L 135.369469 137.156123 
L 135.614122 141.944509 
L 135.858775 143.019841 
L 136.103428 135.897056 
L 136.348081 137.436467 
L 136.592734 135.023101 
L 136.837387 126.463691 
L 137.08204 124.24674 
L 137.326693 120.771935 
L 137.571346 124.159237 
L 137.815999 130.3645 
L 138.060652 125.959598 
L 138.305305 125.215219 
L 138.549958 122.64223 
L 138.794611 122.339743 
L 139.039264 126.802185 
L 139.283917 127.076228 
L 139.52857 129.813029 
L 139.773223 128.132768 
L 140.017876 138.905356 
L 140.262529 138.086691 
L 140.507182 138.647073 
L 140.751835 133.655016 
L 140.996488 133.015006 
L 141.241141 137.260806 
L 141.730447 156.522822 
L 142.219753 156.719711 
L 142.464406 158.771996 
L 142.709059 147.736456 
L 142.953712 148.802132 
L 143.198365 156.787842 
L 143.443018 154.993582 
L 143.687671 156.081564 
L 143.932324 151.416178 
L 144.42163 148.767269 
L 144.666283 149.707864 
L 144.910936 152.549553 
L 145.155589 151.375656 
L 145.400242 150.834898 
L 145.889548 143.819357 
L 146.134201 144.109013 
L 146.623507 150.894482 
L 146.86816 142.776806 
L 147.112813 139.636639 
L 147.357466 139.814622 
L 147.602119 141.158416 
L 147.846772 138.630194 
L 148.091425 137.87829 
L 148.336078 142.337903 
L 148.580731 158.464069 
L 148.825384 166.060995 
L 149.070037 152.795141 
L 149.31469 158.45181 
L 149.559343 146.038876 
L 149.803996 153.487061 
L 150.048649 149.984919 
L 150.293302 135.263773 
L 150.537955 149.094041 
L 150.782608 145.577108 
L 151.516567 127.424577 
L 151.76122 132.025528 
L 152.005874 130.253482 
L 152.250527 125.962783 
L 152.49518 126.974602 
L 152.739833 133.943827 
L 152.984486 132.728911 
L 153.229139 134.336961 
L 153.473792 125.096242 
L 153.718445 126.957404 
L 153.963098 125.192145 
L 154.207751 121.022918 
L 154.697057 125.463129 
L 154.94171 112.980169 
L 155.186363 112.030912 
L 155.431016 117.151703 
L 155.920322 118.50443 
L 156.164975 118.06385 
L 156.409628 125.838769 
L 156.654281 140.985653 
L 156.898934 139.146599 
L 157.143587 135.98446 
L 157.38824 127.149219 
L 157.632893 131.132323 
L 158.122199 122.886292 
L 158.366852 134.979456 
L 158.856158 122.782989 
L 159.100811 124.175802 
L 159.345464 127.969553 
L 159.590117 123.69632 
L 159.83477 126.794644 
L 160.079423 120.89374 
L 160.324076 118.974077 
L 160.568729 123.162989 
L 160.813382 139.92941 
L 161.058035 145.643719 
L 161.302688 139.486014 
L 161.791994 163.813552 
L 162.2813 163.482677 
L 162.770606 157.222526 
L 163.015259 146.478563 
L 163.259912 143.926444 
L 163.504565 145.228724 
L 163.749218 148.79259 
L 163.993871 147.919332 
L 164.238524 125.12014 
L 164.483177 129.920842 
L 164.72783 138.089442 
L 164.972483 140.28621 
L 165.217136 147.330236 
L 165.706442 170.452472 
L 165.951095 177.727464 
L 166.195748 175.227113 
L 166.440401 177.777151 
L 166.929707 174.964727 
L 167.17436 176.721107 
L 167.419013 177.417515 
L 167.663666 176.374453 
L 167.908319 173.513487 
L 168.152972 173.953814 
L 168.397625 168.19945 
L 168.642278 166.481191 
L 168.886931 169.277103 
L 169.131584 167.026078 
L 169.376237 166.95328 
L 169.62089 167.011926 
L 169.865543 166.350775 
L 170.110196 164.832232 
L 170.354849 166.88052 
L 170.599502 165.904276 
L 170.844155 163.751516 
L 171.088808 169.702967 
L 171.333461 170.946797 
L 171.578114 168.432012 
L 171.822767 169.605843 
L 172.06742 169.183544 
L 172.556726 166.380433 
L 172.801379 168.730825 
L 173.046032 164.658527 
L 173.290685 166.735004 
L 173.535338 163.376732 
L 173.779991 169.175001 
L 174.024644 171.809481 
L 174.269298 163.019906 
L 174.513951 166.696261 
L 174.758604 165.227825 
L 175.003257 165.028675 
L 175.492563 152.908358 
L 175.737216 150.177865 
L 175.981869 150.867009 
L 176.226522 156.780087 
L 176.471175 158.486624 
L 176.715828 159.39929 
L 176.960481 158.209729 
L 177.449787 152.214867 
L 177.69444 142.636038 
L 177.939093 149.826627 
L 178.183746 146.558349 
L 178.428399 153.340051 
L 178.673052 150.954794 
L 178.917705 152.766745 
L 179.162358 153.635182 
L 179.651664 157.889512 
L 180.14097 172.706798 
L 180.385623 182.639038 
L 180.630276 179.944213 
L 180.874929 182.113932 
L 181.119582 188.247571 
L 181.364235 190.591219 
L 181.608888 194.824486 
L 181.853541 189.45974 
L 182.098194 191.068325 
L 182.342847 194.09745 
L 182.5875 191.775946 
L 182.832153 182.534775 
L 183.076806 184.002809 
L 183.321459 180.327984 
L 183.566112 178.429445 
L 183.810765 179.115292 
L 184.055418 180.190041 
L 184.300071 178.31363 
L 184.544724 178.433864 
L 185.03403 168.205737 
L 185.278683 170.055751 
L 185.523336 169.783932 
L 185.767989 171.940838 
L 186.012642 169.375529 
L 186.257295 169.886867 
L 186.501948 164.95773 
L 186.991254 172.382427 
L 187.48056 165.323318 
L 187.725213 168.871218 
L 187.969866 160.268865 
L 188.214519 158.00079 
L 188.703825 148.748618 
L 189.437784 158.095487 
L 189.682437 153.640237 
L 190.171743 164.02151 
L 190.416396 163.185788 
L 190.661049 166.79131 
L 190.905702 174.24301 
L 191.150355 175.898264 
L 191.395008 173.226624 
L 191.639661 174.24915 
L 191.884314 180.974695 
L 192.128967 170.638527 
L 192.37362 177.637137 
L 192.618273 175.227203 
L 192.862926 186.849884 
L 193.107579 186.915969 
L 193.352232 191.637588 
L 193.596885 200.200725 
L 194.086191 196.418043 
L 194.330844 190.253071 
L 194.575497 189.838046 
L 194.82015 184.486374 
L 195.064803 175.434014 
L 195.309456 176.709716 
L 195.554109 175.459133 
L 196.043415 162.214698 
L 196.288068 160.150531 
L 196.532721 155.730823 
L 196.777375 154.009913 
L 197.022028 158.145481 
L 197.266681 158.022782 
L 197.511334 160.040519 
L 197.755987 155.129795 
L 198.245293 151.322069 
L 198.489946 151.421288 
L 198.734599 152.897006 
L 198.979252 153.282495 
L 199.223905 148.586564 
L 199.468558 151.299459 
L 199.713211 151.304675 
L 199.957864 151.116361 
L 200.202517 155.221541 
L 200.44717 150.974115 
L 200.691823 140.028564 
L 200.936476 139.239446 
L 201.181129 137.321605 
L 201.670435 128.729981 
L 201.915088 130.080519 
L 202.159741 124.412462 
L 202.649047 125.295085 
L 202.8937 126.914165 
L 203.138353 130.648794 
L 203.383006 142.988842 
L 203.627659 144.618188 
L 203.872312 148.079856 
L 204.116965 140.308935 
L 204.361618 125.560479 
L 204.606271 126.181705 
L 204.850924 123.535423 
L 205.095577 134.807137 
L 205.34023 135.269339 
L 205.584883 131.343 
L 205.829536 136.090568 
L 206.074189 136.300829 
L 206.318842 140.396981 
L 206.563495 137.217593 
L 206.808148 140.237554 
L 207.052801 135.726336 
L 207.297454 128.255028 
L 207.542107 116.86864 
L 208.031413 112.074108 
L 208.276066 117.763783 
L 208.520719 117.030554 
L 208.765372 118.474193 
L 209.254678 106.220769 
L 209.499331 114.247754 
L 209.743984 111.165777 
L 209.988637 117.523081 
L 210.23329 111.388393 
L 210.477943 114.948912 
L 210.722596 126.424224 
L 210.967249 128.644815 
L 211.211902 139.005483 
L 211.701208 125.832666 
L 211.945861 124.942039 
L 212.190514 108.740059 
L 212.435167 105.70954 
L 212.67982 107.409805 
L 212.924473 88.431161 
L 213.169126 86.71313 
L 213.413779 75.674888 
L 213.658432 79.58239 
L 213.903085 80.505303 
L 214.392391 83.415189 
L 214.637044 80.79082 
L 214.881697 83.905087 
L 215.12635 84.835547 
L 215.371003 79.263665 
L 215.615656 80.595411 
L 215.860309 85.353717 
L 216.104962 77.498828 
L 216.349615 81.276081 
L 216.594268 79.9166 
L 216.838921 83.011298 
L 217.083574 91.985165 
L 217.328227 91.074309 
L 217.817533 98.369859 
L 218.062186 92.004305 
L 218.306839 92.209456 
L 218.551492 84.533315 
L 218.796145 89.305168 
L 219.040798 85.58986 
L 219.285452 89.65626 
L 219.530105 87.867824 
L 219.774758 73.852629 
L 220.019411 83.197467 
L 220.508717 89.572683 
L 220.998023 74.92155 
L 221.242676 78.591917 
L 221.487329 86.531489 
L 221.731982 85.609646 
L 222.465941 81.151776 
L 222.955247 67.089353 
L 223.1999 73.26485 
L 223.444553 74.21379 
L 223.689206 71.016725 
L 223.933859 71.343129 
L 224.178512 73.988512 
L 224.423165 74.553309 
L 224.667818 76.612692 
L 224.912471 75.848541 
L 225.157124 68.370418 
L 225.401777 70.086672 
L 225.64643 82.069098 
L 225.891083 83.989616 
L 226.135736 87.468839 
L 226.380389 93.948128 
L 226.625042 91.400893 
L 226.869695 87.213703 
L 227.114348 90.772794 
L 227.359001 102.44382 
L 227.603654 100.365333 
L 227.848307 92.741514 
L 228.09296 93.842616 
L 228.582266 101.242558 
L 228.826919 93.931936 
L 229.071572 93.043586 
L 229.316225 93.238049 
L 229.560878 89.154387 
L 230.050184 86.514383 
L 230.294837 87.801881 
L 230.53949 90.659435 
L 231.273449 79.195428 
L 231.518102 82.503921 
L 232.007408 84.954151 
L 232.741367 92.593646 
L 232.98602 92.084664 
L 233.230673 86.796079 
L 233.475326 84.144893 
L 233.964632 91.581187 
L 234.209285 91.62696 
L 234.453938 92.729291 
L 234.698591 85.905278 
L 234.943244 89.269455 
L 235.43255 83.664251 
L 235.921856 92.019157 
L 236.166509 93.73737 
L 236.411162 99.60723 
L 236.655815 100.71236 
L 236.900468 97.943358 
L 237.145121 103.666772 
L 237.389774 105.75464 
L 237.634427 97.343258 
L 237.87908 102.291683 
L 238.857692 73.391271 
L 239.102345 75.067846 
L 239.346998 72.842302 
L 239.591651 73.293699 
L 239.836304 70.17139 
L 240.080957 71.884168 
L 240.32561 76.384362 
L 240.570263 78.097048 
L 240.814916 87.259668 
L 241.059569 85.939677 
L 241.304222 68.362355 
L 241.548875 61.218999 
L 241.793529 61.749899 
L 242.038182 56.019576 
L 242.282835 54.434994 
L 242.527488 55.072388 
L 242.772141 60.114349 
L 243.016794 71.531435 
L 243.261447 71.222573 
L 243.5061 68.398325 
L 243.750753 72.793287 
L 243.995406 68.526349 
L 244.240059 68.815989 
L 244.484712 69.550469 
L 244.729365 66.445782 
L 244.974018 66.209923 
L 245.218671 70.647555 
L 245.707977 101.012064 
L 246.197283 139.888883 
L 246.686589 106.839336 
L 247.420548 140.34549 
L 247.665201 129.432122 
L 247.909854 130.843333 
L 248.154507 139.885982 
L 248.39916 119.308088 
L 248.643813 129.262128 
L 248.888466 117.365122 
L 249.133119 111.067889 
L 249.377772 115.394471 
L 249.622425 107.025185 
L 249.867078 106.690671 
L 250.111731 101.217219 
L 250.601037 119.430981 
L 250.84569 122.150109 
L 251.090343 115.779286 
L 251.334996 114.364329 
L 251.824302 147.287634 
L 252.068955 143.780503 
L 252.558261 129.62921 
L 252.802914 107.802666 
L 253.047567 100.808091 
L 253.29222 112.889483 
L 253.536873 103.939024 
L 253.781526 107.46602 
L 254.026179 104.762083 
L 254.270832 105.00937 
L 254.515485 109.044616 
L 254.760138 107.863484 
L 255.004791 89.565654 
L 255.249444 83.742296 
L 255.494097 82.105359 
L 255.983403 100.254754 
L 256.228056 102.511529 
L 256.472709 90.007455 
L 256.717362 88.27696 
L 257.206668 65.654029 
L 257.695974 94.084218 
L 257.940627 72.48283 
L 258.18528 74.373887 
L 258.429933 88.970132 
L 258.674586 88.811338 
L 259.163892 97.732533 
L 259.408545 95.410865 
L 259.653198 96.444911 
L 259.897851 102.671555 
L 260.387157 106.892829 
L 260.63181 112.050973 
L 260.876463 104.409467 
L 261.121116 122.478179 
L 261.365769 124.374869 
L 261.610422 139.294973 
L 262.099728 112.567309 
L 262.344381 114.180722 
L 262.589034 114.476301 
L 262.833687 99.36783 
L 263.322993 120.490329 
L 263.567646 113.174451 
L 264.056952 117.895226 
L 264.301606 122.037783 
L 264.546259 120.689999 
L 264.790912 125.845206 
L 265.280218 122.280954 
L 265.524871 116.584687 
L 266.014177 126.796096 
L 266.25883 118.558043 
L 266.992789 115.621686 
L 267.237442 119.143204 
L 267.482095 111.892593 
L 267.726748 113.292367 
L 268.216054 127.237622 
L 268.460707 123.157979 
L 268.70536 133.24654 
L 268.950013 136.88601 
L 269.194666 143.950569 
L 269.439319 142.876266 
L 269.683972 144.173109 
L 269.928625 155.272512 
L 270.173278 142.206453 
L 270.417931 147.586291 
L 270.662584 149.751557 
L 270.907237 150.179049 
L 271.15189 151.518301 
L 271.396543 149.264782 
L 271.641196 152.941688 
L 271.885849 149.874218 
L 272.130502 152.38335 
L 272.375155 157.843697 
L 272.619808 152.597923 
L 272.864461 158.142518 
L 273.109114 158.573205 
L 273.59842 178.50001 
L 273.843073 177.961633 
L 274.087726 186.221751 
L 274.577032 169.77843 
L 274.821685 176.116866 
L 275.066338 171.951909 
L 275.310991 163.958229 
L 275.555644 167.065773 
L 276.04495 169.281159 
L 276.289603 159.242215 
L 276.534256 160.749203 
L 276.778909 159.569021 
L 277.023562 149.36338 
L 277.268215 155.698578 
L 277.512868 165.458307 
L 277.757521 158.808454 
L 278.002174 159.757208 
L 278.246827 161.31786 
L 278.49148 164.507315 
L 278.736133 163.13694 
L 278.980786 170.640219 
L 279.225439 163.867453 
L 279.470092 166.550008 
L 279.714745 150.566276 
L 280.204051 167.285379 
L 280.448704 176.076659 
L 280.693357 170.796688 
L 280.93801 169.10389 
L 281.182663 158.345343 
L 281.427316 152.914873 
L 281.671969 156.0791 
L 281.916622 157.790307 
L 282.161275 163.13882 
L 282.405928 158.557403 
L 282.650581 158.070769 
L 282.895234 165.47974 
L 283.139887 158.543018 
L 283.629193 135.544387 
L 283.873846 107.970716 
L 284.118499 110.96291 
L 284.363152 115.344459 
L 284.607805 126.103392 
L 284.852458 124.892866 
L 285.097111 114.611378 
L 285.341764 112.600406 
L 285.586417 115.247442 
L 285.83107 113.388984 
L 286.320376 102.555656 
L 286.56503 102.403163 
L 286.809683 101.841875 
L 287.054336 103.144829 
L 287.298989 106.093275 
L 287.543642 107.059893 
L 287.788295 108.738004 
L 288.032948 112.218019 
L 288.277601 110.76124 
L 288.522254 95.20282 
L 288.766907 100.64243 
L 289.01156 97.76019 
L 289.256213 97.736385 
L 289.500866 93.591331 
L 289.745519 93.992632 
L 289.990172 105.242739 
L 290.234825 104.860288 
L 290.479478 104.886054 
L 290.724131 101.559779 
L 290.968784 107.779377 
L 291.213437 105.402952 
L 291.45809 101.825325 
L 291.702743 95.513476 
L 291.947396 96.823018 
L 292.436702 85.038707 
L 292.681355 83.657859 
L 292.926008 80.466878 
L 293.659967 75.889488 
L 293.90462 78.983711 
L 294.149273 74.929351 
L 294.393926 76.591458 
L 294.638579 69.365532 
L 294.883232 68.294908 
L 295.127885 68.56882 
L 295.372538 78.315309 
L 295.617191 73.893516 
L 295.861844 77.580585 
L 296.106497 78.402756 
L 296.35115 87.644281 
L 296.840456 78.58341 
L 297.085109 83.523301 
L 297.329762 81.539873 
L 297.574415 92.411259 
L 297.819068 95.34132 
L 298.308374 74.506074 
L 298.553027 70.884409 
L 299.042333 60.43129 
L 299.286986 59.521492 
L 299.531639 61.057867 
L 299.776292 54.927789 
L 300.020945 54.404122 
L 300.510251 51.441388 
L 300.754904 40.764621 
L 301.24421 45.621206 
L 301.488863 45.696257 
L 302.712128 42.630466 
L 302.956781 42.330846 
L 303.201434 45.630586 
L 303.446087 41.771141 
L 303.69074 34.414125 
L 304.180046 69.73825 
L 304.424699 72.312522 
L 304.669352 67.491703 
L 304.914005 76.615858 
L 305.158658 74.082968 
L 305.403311 73.451402 
L 305.647964 73.131749 
L 305.892617 76.161355 
L 306.13727 74.036025 
L 306.381923 79.7258 
L 306.626576 73.490829 
L 306.871229 72.618387 
L 307.360535 78.468682 
L 307.605188 73.939895 
L 307.849841 78.828834 
L 308.094494 79.751157 
L 308.339147 78.926144 
L 308.5838 73.832356 
L 308.828453 77.914815 
L 309.073107 79.12225 
L 309.31776 81.039106 
L 309.562413 79.463046 
L 309.807066 79.513215 
L 310.051719 78.231374 
L 310.296372 80.285569 
L 310.541025 91.198923 
L 310.785678 81.53847 
L 311.030331 92.220835 
L 311.274984 93.860668 
L 311.519637 90.362586 
L 311.76429 93.782269 
L 312.008943 98.816235 
L 312.253596 96.156686 
L 312.498249 88.045041 
L 312.742902 90.256492 
L 312.987555 88.3154 
L 313.232208 99.320596 
L 313.721514 92.702025 
L 313.966167 104.465749 
L 314.21082 94.697585 
L 314.455473 98.187756 
L 314.700126 97.538981 
L 314.944779 94.331026 
L 315.189432 98.67255 
L 315.434085 100.186472 
L 315.678738 99.21991 
L 315.923391 107.632481 
L 316.168044 108.672429 
L 316.412697 114.050903 
L 316.65735 115.735318 
L 316.902003 118.645971 
L 317.146656 115.391628 
L 317.635962 117.945012 
L 317.880615 124.119265 
L 318.125268 125.006601 
L 318.614574 120.318247 
L 318.859227 118.903555 
L 319.10388 128.459825 
L 319.348533 132.15083 
L 320.082492 163.835496 
L 320.327145 161.986092 
L 320.571798 155.413732 
L 320.816451 162.128236 
L 321.305757 100.677399 
L 321.55041 116.467427 
L 322.773675 134.932172 
L 323.018328 133.202649 
L 323.262981 137.404526 
L 323.507634 135.735375 
L 323.752287 130.964933 
L 323.99694 133.738322 
L 324.486246 123.04226 
L 324.730899 134.986384 
L 324.975552 131.984586 
L 325.464858 133.068632 
L 325.954164 143.722788 
L 326.44347 118.339522 
L 326.688123 111.032051 
L 326.932776 111.099835 
L 327.177429 112.045911 
L 327.422082 110.479796 
L 327.666735 110.666744 
L 327.911388 110.08243 
L 328.156041 117.896153 
L 328.400694 118.922007 
L 328.645347 116.439885 
L 328.89 115.409807 
L 329.134653 118.720309 
L 329.379306 116.435558 
L 329.623959 116.655259 
L 330.113265 102.623152 
L 330.357918 97.058119 
L 330.602571 99.385195 
L 330.847224 99.568149 
L 331.091877 100.149804 
L 331.33653 110.812138 
L 331.581184 114.698133 
L 331.825837 116.10876 
L 332.07049 124.422448 
L 332.315143 125.016289 
L 332.559796 130.902393 
L 332.804449 129.864457 
L 333.293755 140.920008 
L 333.538408 138.481994 
L 333.783061 138.652858 
L 334.027714 136.266328 
L 334.272367 138.35384 
L 334.51702 130.890572 
L 334.761673 131.825073 
L 335.006326 130.836186 
L 335.250979 124.452354 
L 335.495632 122.004569 
L 335.740285 124.619189 
L 335.984938 123.43093 
L 336.229591 119.187078 
L 336.474244 119.504032 
L 336.718897 114.86418 
L 336.96355 112.362628 
L 337.208203 98.915686 
L 337.452856 96.87615 
L 337.697509 96.728185 
L 337.942162 96.759832 
L 338.186815 97.346129 
L 338.431468 89.088399 
L 338.676121 85.569857 
L 338.920774 85.110598 
L 339.165427 87.89341 
L 339.41008 82.57131 
L 339.654733 80.936158 
L 339.899386 80.739276 
L 340.144039 83.674192 
L 340.388692 90.179557 
L 340.633345 91.583152 
L 340.877998 89.260972 
L 341.122651 88.240231 
L 341.367304 88.310933 
L 341.611957 86.544903 
L 341.85661 79.52748 
L 342.345916 85.031697 
L 342.590569 84.041054 
L 342.835222 86.427852 
L 343.079875 82.733968 
L 343.324528 86.051579 
L 343.569181 91.143917 
L 343.813834 87.889544 
L 344.058487 88.283153 
L 344.30314 85.420321 
L 344.547793 85.162456 
L 344.792446 87.762255 
L 345.037099 87.31365 
L 345.281752 85.521466 
L 345.526405 88.298386 
L 345.771058 89.697315 
L 346.015711 89.77055 
L 346.260364 90.845692 
L 346.505017 92.811411 
L 346.74967 93.134534 
L 346.994323 93.889037 
L 347.238976 91.842418 
L 347.728282 98.739252 
L 347.972935 96.341559 
L 348.217588 98.116752 
L 348.462241 96.577506 
L 348.706894 96.272636 
L 348.951547 94.617549 
L 349.1962 94.47083 
L 349.440853 93.480431 
L 350.174812 101.211991 
L 350.419465 101.468165 
L 350.664118 100.950422 
L 350.908771 101.669204 
L 351.153424 102.899243 
L 351.398077 109.041244 
L 351.64273 108.825407 
L 351.887383 109.423016 
L 352.132036 107.568342 
L 352.621342 122.995954 
L 352.865995 123.066653 
L 353.110648 118.943932 
L 353.355301 125.042975 
L 353.599954 124.550869 
L 353.844607 126.087737 
L 354.089261 124.167326 
L 354.578567 124.643097 
L 354.82322 115.527881 
L 355.067873 114.539639 
L 355.557179 120.326202 
L 355.801832 125.042682 
L 356.046485 126.206518 
L 356.291138 130.755633 
L 356.535791 112.921856 
L 356.780444 114.182683 
L 357.025097 116.052554 
L 357.759056 108.71816 
L 358.248362 98.595406 
L 358.737668 89.584853 
L 358.982321 87.653095 
L 359.226974 90.034906 
L 359.471627 94.608077 
L 359.71628 94.766533 
L 359.960933 96.619776 
L 360.205586 97.386802 
L 360.450239 93.634672 
L 360.694892 96.943802 
L 360.939545 104.323211 
L 361.184198 102.100875 
L 361.428851 101.152874 
L 361.673504 105.451235 
L 362.16281 103.592647 
L 362.407463 101.046066 
L 362.652116 104.343679 
L 362.896769 102.535384 
L 363.141422 98.007688 
L 363.630728 100.631087 
L 364.120034 107.396432 
L 364.364687 110.987263 
L 364.853993 106.261743 
L 365.098646 106.159764 
L 365.343299 107.610281 
L 365.587952 110.358335 
L 365.832605 101.47268 
L 366.077258 97.804355 
L 366.321911 103.624168 
L 366.566564 104.202208 
L 366.811217 101.161623 
L 367.05587 101.62854 
L 367.300523 104.500865 
L 367.789829 102.22088 
L 368.034482 102.544553 
L 368.523788 114.454096 
L 368.768441 112.957795 
L 369.013094 106.266846 
L 369.257747 104.749343 
L 369.5024 105.019986 
L 369.747053 102.195631 
L 369.991706 100.763912 
L 370.236359 100.198888 
L 370.481012 100.985465 
L 370.725665 92.62325 
L 370.970318 91.906277 
L 371.214971 94.787046 
L 371.459624 91.65335 
L 371.704277 91.701749 
L 371.94893 89.69608 
L 372.193583 85.783245 
L 372.438236 67.311622 
L 372.682889 72.810199 
L 372.927542 60.92399 
L 373.172195 67.41307 
L 373.416848 64.195792 
L 373.661501 65.953645 
L 373.906154 56.518437 
L 374.150807 56.822374 
L 374.39546 56.942566 
L 374.640113 64.671423 
L 374.884766 68.382313 
L 375.618725 61.828359 
L 375.863378 55.41178 
L 376.108031 54.232857 
L 376.352684 57.521275 
L 376.841991 55.933766 
L 377.086644 54.532401 
L 377.331297 49.913071 
L 377.57595 49.066179 
L 377.820603 50.905554 
L 378.065256 51.117514 
L 378.309909 57.727671 
L 378.554562 53.717202 
L 378.799215 60.171186 
L 379.043868 53.227151 
L 379.288521 50.03269 
L 379.533174 50.195852 
L 380.02248 54.736178 
L 380.267133 62.253899 
L 380.511786 64.746914 
L 380.756439 72.607322 
L 381.001092 74.029599 
L 381.490398 67.227708 
L 381.490398 67.227708 
" style="fill:none;stroke:#1f77b4;stroke-linecap:square;stroke-width:1.5;"/>
   </g>
   <g id="line2d_32">
    <path clip-path="url(#paf6ef4486e)" d="M 56.835852 263.832518 
L 57.080505 265.690769 
L 57.325158 260.116015 
L 57.569811 261.805335 
L 57.814464 262.143199 
L 58.059117 256.061649 
L 58.30377 256.399512 
L 58.548423 265.183974 
L 58.793076 263.663586 
L 59.037729 262.987858 
L 59.282382 261.805335 
L 59.527035 265.521837 
L 59.771688 261.129607 
L 60.016341 260.116015 
L 60.260994 260.453879 
L 60.505647 264.339314 
L 60.7503 262.312131 
L 60.994953 266.028633 
L 61.239606 265.859701 
L 61.484259 265.183974 
L 61.728912 260.622811 
L 61.973566 262.649994 
L 62.218219 263.325722 
L 62.462872 261.467471 
L 62.707525 263.494654 
L 62.952178 263.15679 
L 63.196831 264.677178 
L 63.441484 262.143199 
L 63.686137 255.048057 
L 64.175443 259.102424 
L 64.420096 257.9199 
L 64.664749 259.609219 
L 64.909402 256.568444 
L 65.154055 264.170382 
L 65.398708 260.453879 
L 65.643361 260.622811 
L 65.888014 258.088832 
L 66.132667 253.865533 
L 66.37732 252.007282 
L 66.621973 248.121847 
L 66.866626 246.60146 
L 67.111279 246.770392 
L 67.355932 244.574276 
L 67.600585 246.432528 
L 67.845238 243.222821 
L 68.089891 241.871365 
L 68.334544 238.492726 
L 68.579197 237.98593 
L 68.82385 235.114087 
L 69.557809 241.195637 
L 69.802462 241.871365 
L 70.047115 241.871365 
L 70.291768 234.269428 
L 70.536421 230.383993 
L 70.781074 229.708265 
L 71.025727 226.329626 
L 71.759686 240.688841 
L 72.004339 238.661658 
L 72.248992 233.5937 
L 72.493645 236.634475 
L 72.982951 251.500486 
L 73.227604 251.500486 
L 73.472257 250.99369 
L 73.71691 248.797575 
L 73.961563 257.9199 
L 74.206216 258.088832 
L 74.450869 257.9199 
L 74.940175 259.947083 
L 75.429481 266.535429 
L 76.16344 256.061649 
L 76.408093 254.879125 
L 76.652746 251.83835 
L 76.897399 252.68301 
L 77.142052 256.568444 
L 77.386705 249.473303 
L 77.876011 243.560685 
L 78.365317 241.195637 
L 78.60997 233.086904 
L 78.854623 233.5937 
L 79.099276 234.438359 
L 79.343929 236.972339 
L 79.588582 233.086904 
L 80.077888 238.323794 
L 80.322541 240.857773 
L 80.567194 237.816998 
L 80.811847 233.086904 
L 81.0565 237.98593 
L 81.301153 236.634475 
L 81.545806 242.547093 
L 81.790459 242.547093 
L 82.035112 239.844182 
L 82.279765 241.533501 
L 82.524418 245.7568 
L 82.769071 242.547093 
L 83.013724 228.525741 
L 83.258377 229.539333 
L 83.50303 227.681082 
L 83.747683 227.343218 
L 83.992336 226.66749 
L 84.481643 214.166526 
L 84.726296 218.220893 
L 84.970949 214.50439 
L 85.215602 216.531573 
L 85.460255 216.700505 
L 85.704908 212.984002 
L 85.949561 217.883029 
L 86.194214 215.517982 
L 86.438867 216.024777 
L 86.928173 210.112159 
L 87.172826 212.81507 
L 87.417479 198.286923 
L 87.906785 205.382065 
L 88.151438 199.469447 
L 88.396091 207.240316 
L 88.640744 201.49663 
L 88.885397 204.706337 
L 89.13005 210.787887 
L 89.374703 212.139343 
L 89.619356 207.747112 
L 89.864009 210.281091 
L 90.108662 210.112159 
L 90.353315 209.098568 
L 90.597968 205.213133 
L 90.842621 198.117991 
L 91.331927 203.18595 
L 91.57658 203.692745 
L 91.821233 212.81507 
L 92.065886 209.605363 
L 92.310539 203.18595 
L 92.555192 203.861677 
L 92.799845 203.523813 
L 93.289151 192.036441 
L 93.533804 191.191781 
L 93.778457 188.657802 
L 94.02311 190.009258 
L 94.267763 188.995666 
L 94.512416 194.232556 
L 95.001722 191.360713 
L 95.246375 192.881101 
L 95.491028 192.543237 
L 95.735681 193.387897 
L 95.980334 188.319938 
L 96.224987 191.360713 
L 96.46964 186.799551 
L 96.714293 190.516054 
L 96.958946 183.083048 
L 97.203599 182.40732 
L 97.448252 178.690817 
L 97.692905 179.028681 
L 97.937558 172.440335 
L 98.182211 175.818974 
L 98.426864 173.622859 
L 98.671517 174.636451 
L 98.91617 173.622859 
L 99.160823 174.467519 
L 99.650129 148.620931 
L 99.894782 148.114135 
L 100.139435 151.830638 
L 100.384088 143.552973 
L 100.628741 144.735496 
L 100.873394 149.465591 
L 101.118047 141.525789 
L 101.3627 143.721905 
L 101.607353 141.187926 
L 102.096659 155.040345 
L 102.341312 157.912188 
L 102.585965 152.168502 
L 102.830618 175.143247 
L 103.075271 178.01509 
L 103.319924 171.764608 
L 103.80923 181.055865 
L 104.053883 175.818974 
L 104.298536 180.886933 
L 104.543189 183.083048 
L 104.787842 181.055865 
L 105.032495 170.075288 
L 105.277148 169.568492 
L 105.521801 166.865581 
L 106.25576 181.393729 
L 106.500413 180.042273 
L 106.745066 171.257812 
L 106.98972 174.467519 
L 107.234373 175.650042 
L 107.479026 176.156838 
L 107.723679 188.48887 
L 107.968332 188.995666 
L 108.212985 206.226725 
L 108.457638 197.442263 
L 108.702291 198.962651 
L 108.946944 202.003426 
L 109.191597 191.360713 
L 109.680903 186.968483 
L 109.925556 186.123823 
L 110.170209 185.954891 
L 110.414862 174.974315 
L 110.659515 174.805383 
L 110.904168 173.622859 
L 111.148821 169.568492 
L 111.393474 174.636451 
L 111.638127 182.40732 
L 111.88278 185.448095 
L 112.127433 198.117991 
L 112.372086 193.387897 
L 112.861392 190.17819 
L 113.595351 198.286923 
L 113.840004 199.131583 
L 114.084657 193.725761 
L 114.818616 185.785959 
L 115.063269 180.211205 
L 115.307922 179.535477 
L 115.552575 179.873341 
L 115.797228 181.731592 
L 116.041881 181.731592 
L 116.286534 184.941299 
L 116.531187 174.805383 
L 116.77584 170.413152 
L 117.020493 169.230628 
L 117.509799 173.116063 
L 118.243758 165.00733 
L 118.488411 172.440335 
L 118.733064 174.467519 
L 118.977717 170.075288 
L 119.22237 173.116063 
L 119.467023 170.582084 
L 119.711676 171.93354 
L 119.956329 174.129655 
L 120.200982 172.778199 
L 120.445635 173.116063 
L 120.690288 171.764608 
L 121.179594 179.704409 
L 121.424247 186.968483 
L 121.913553 184.265572 
L 122.158206 189.164598 
L 122.402859 190.516054 
L 122.647512 187.475279 
L 122.892165 192.881101 
L 123.136818 193.218965 
L 123.381471 189.671394 
L 123.626124 191.529645 
L 123.870777 189.671394 
L 124.11543 193.050033 
L 124.360083 186.968483 
L 124.604736 188.657802 
L 124.849389 188.48887 
L 125.094042 188.151006 
L 125.338695 185.617027 
L 125.583348 181.900524 
L 125.828001 187.982074 
L 126.317307 181.224797 
L 126.56196 182.40732 
L 126.806613 175.650042 
L 127.051266 179.028681 
L 127.295919 176.832566 
L 127.540572 179.704409 
L 127.785225 181.224797 
L 128.029878 184.941299 
L 128.274531 184.434504 
L 128.519184 178.352954 
L 128.763837 180.886933 
L 129.253143 176.156838 
L 129.497797 180.211205 
L 129.74245 176.32577 
L 130.231756 189.164598 
L 130.476409 188.319938 
L 130.721062 180.211205 
L 130.965715 181.055865 
L 131.210368 170.413152 
L 131.455021 173.622859 
L 131.944327 155.040345 
L 132.18898 150.817046 
L 132.433633 152.675298 
L 132.678286 147.945203 
L 132.922939 149.296659 
L 133.167592 149.127727 
L 133.412245 149.127727 
L 133.656898 146.931612 
L 133.901551 138.316082 
L 134.390857 147.945203 
L 134.63551 139.667538 
L 134.880163 138.147151 
L 135.124816 138.485014 
L 135.369469 143.046177 
L 135.614122 144.059769 
L 135.858775 137.133559 
L 136.103428 138.485014 
L 136.348081 136.119967 
L 136.592734 127.842302 
L 136.837387 125.646187 
L 137.08204 122.267548 
L 137.326693 125.477255 
L 137.571346 131.389873 
L 137.815999 126.997642 
L 138.060652 126.152982 
L 138.305305 123.619003 
L 138.549958 123.281139 
L 138.794611 127.504438 
L 139.039264 127.67337 
L 139.283917 130.207349 
L 139.52857 128.51803 
L 139.773223 138.822878 
L 140.017876 137.978219 
L 140.262529 138.316082 
L 140.507182 133.417056 
L 140.751835 132.741328 
L 140.996488 136.795695 
L 141.485794 155.209277 
L 141.9751 155.209277 
L 142.219753 157.067528 
L 142.464406 146.424816 
L 142.709059 147.438408 
L 142.953712 155.209277 
L 143.198365 153.519958 
L 143.443018 154.533549 
L 143.687671 150.141319 
L 144.176977 147.776271 
L 144.42163 148.789863 
L 144.666283 151.661706 
L 144.910936 150.648114 
L 145.155589 150.141319 
L 145.644895 143.384041 
L 145.889548 143.721905 
L 146.378854 150.310251 
L 146.623507 142.539381 
L 146.86816 139.498606 
L 147.112813 139.667538 
L 147.357466 141.018994 
L 147.602119 138.653946 
L 147.846772 137.978219 
L 148.091425 142.370449 
L 148.336078 157.912188 
L 148.580731 165.176262 
L 148.825384 152.337434 
L 149.070037 157.574324 
L 149.31469 145.580156 
L 149.559343 152.675298 
L 149.803996 149.296659 
L 150.048649 135.106375 
L 150.293302 148.451999 
L 150.537955 145.242292 
L 151.271914 127.67337 
L 151.516567 132.234532 
L 151.76122 130.714145 
L 152.005874 126.659778 
L 152.250527 127.67337 
L 152.49518 134.430648 
L 152.739833 133.248124 
L 152.984486 134.768512 
L 153.229139 125.815118 
L 153.473792 127.504438 
L 153.718445 125.815118 
L 153.963098 121.760752 
L 154.452404 125.98405 
L 154.697057 113.989882 
L 154.94171 112.976291 
L 155.186363 117.875317 
L 155.675669 119.057841 
L 155.920322 118.551045 
L 156.164975 125.98405 
L 156.409628 140.512198 
L 156.654281 138.653946 
L 156.898934 135.444239 
L 157.143587 126.82871 
L 157.38824 130.545213 
L 157.877546 122.605412 
L 158.122199 134.261716 
L 158.611505 122.605412 
L 158.856158 123.956867 
L 159.100811 127.67337 
L 159.345464 123.619003 
L 159.590117 126.490846 
L 159.83477 120.74716 
L 160.079423 118.888909 
L 160.324076 122.943275 
L 160.568729 139.160742 
L 160.813382 144.735496 
L 161.058035 138.653946 
L 161.547341 161.797623 
L 161.791994 161.628691 
L 162.036647 161.290827 
L 162.525953 155.209277 
L 162.770606 144.904428 
L 163.015259 142.539381 
L 163.259912 143.890837 
L 163.504565 147.438408 
L 163.749218 146.76268 
L 163.993871 124.970459 
L 164.238524 129.700553 
L 164.483177 137.809287 
L 164.72783 140.005402 
L 164.972483 146.76268 
L 165.461789 169.061697 
L 165.706442 175.987906 
L 165.951095 173.453927 
L 166.195748 175.818974 
L 166.685054 172.947131 
L 166.929707 174.636451 
L 167.17436 175.312179 
L 167.419013 174.298587 
L 167.663666 171.595676 
L 167.908319 172.102472 
L 168.152972 166.696649 
L 168.397625 165.176262 
L 168.642278 168.048105 
L 168.886931 166.020922 
L 169.131584 166.020922 
L 169.376237 166.189853 
L 169.62089 165.683058 
L 169.865543 164.331602 
L 170.110196 166.358785 
L 170.354849 165.514126 
L 170.599502 163.486942 
L 170.844155 169.230628 
L 171.088808 170.413152 
L 171.333461 167.879173 
L 171.578114 169.061697 
L 171.822767 168.723833 
L 172.312073 166.020922 
L 172.556726 168.217037 
L 172.801379 164.331602 
L 173.046032 166.358785 
L 173.290685 163.149078 
L 173.535338 168.723833 
L 173.779991 171.257812 
L 174.024644 162.811215 
L 174.269298 166.358785 
L 174.513951 165.00733 
L 174.758604 164.838398 
L 175.24791 153.182094 
L 175.492563 150.479183 
L 175.737216 151.15491 
L 175.981869 156.898596 
L 176.226522 158.587916 
L 176.471175 159.432576 
L 176.715828 158.250052 
L 177.205134 152.506366 
L 177.449787 143.215109 
L 177.69444 150.141319 
L 177.939093 147.100544 
L 178.183746 153.519958 
L 178.428399 151.15491 
L 178.673052 152.84423 
L 178.917705 153.688889 
L 179.407011 157.743256 
L 179.896317 171.93354 
L 180.14097 181.393729 
L 180.385623 178.690817 
L 180.630276 180.549069 
L 180.874929 186.292755 
L 181.119582 188.48887 
L 181.364235 192.543237 
L 181.608888 187.475279 
L 181.853541 188.995666 
L 182.098194 191.867509 
L 182.342847 189.671394 
L 182.5875 180.886933 
L 182.832153 182.40732 
L 183.076806 179.028681 
L 183.321459 177.339362 
L 183.810765 179.366545 
L 184.055418 177.677226 
L 184.300071 177.846158 
L 184.789377 168.048105 
L 185.03403 169.906356 
L 185.278683 169.737424 
L 185.523336 171.93354 
L 185.767989 169.568492 
L 186.012642 170.075288 
L 186.257295 165.345194 
L 186.746601 172.440335 
L 187.235907 165.683058 
L 187.48056 169.061697 
L 187.725213 160.784031 
L 187.969866 158.587916 
L 188.459172 149.634523 
L 189.193131 158.587916 
L 189.437784 154.195685 
L 189.92709 164.16267 
L 190.171743 163.31801 
L 190.416396 166.696649 
L 190.661049 173.791791 
L 190.905702 175.312179 
L 191.150355 172.609267 
L 191.395008 173.453927 
L 191.639661 179.873341 
L 191.884314 169.906356 
L 192.128967 176.494702 
L 192.37362 174.129655 
L 192.618273 185.279163 
L 192.862926 185.448095 
L 193.107579 190.009258 
L 193.352232 198.286923 
L 193.841538 194.401488 
L 194.086191 188.48887 
L 194.330844 188.151006 
L 194.575497 183.083048 
L 194.82015 174.467519 
L 195.064803 175.818974 
L 195.309456 174.805383 
L 195.798762 162.135487 
L 196.043415 160.277235 
L 196.288068 156.222869 
L 196.532721 154.702481 
L 196.777375 158.756848 
L 197.022028 158.756848 
L 197.266681 160.784031 
L 197.511334 156.053937 
L 198.00064 152.337434 
L 198.245293 152.337434 
L 198.489946 153.688889 
L 198.734599 154.026753 
L 198.979252 149.465591 
L 199.223905 151.99957 
L 199.468558 151.99957 
L 199.713211 151.830638 
L 199.957864 155.716073 
L 200.202517 151.492774 
L 200.44717 140.850062 
L 200.691823 140.005402 
L 200.936476 138.147151 
L 201.425782 129.869485 
L 201.670435 131.220941 
L 201.915088 125.815118 
L 202.404394 126.490846 
L 202.649047 128.011234 
L 202.8937 131.558805 
L 203.138353 143.384041 
L 203.383006 144.904428 
L 203.627659 148.114135 
L 203.872312 140.512198 
L 204.116965 126.152982 
L 204.361618 126.659778 
L 204.606271 124.125799 
L 204.850924 134.937444 
L 205.095577 135.444239 
L 205.34023 131.558805 
L 205.584883 135.951035 
L 205.829536 136.119967 
L 206.074189 140.005402 
L 206.318842 136.964627 
L 206.563495 139.83647 
L 206.808148 135.444239 
L 207.052801 128.180166 
L 207.297454 117.199589 
L 207.78676 112.638427 
L 208.031413 118.213181 
L 208.276066 117.537453 
L 208.520719 118.888909 
L 209.010025 107.063673 
L 209.254678 114.834542 
L 209.499331 111.962699 
L 209.743984 118.044249 
L 209.988637 112.131631 
L 210.23329 115.51027 
L 210.477943 126.490846 
L 210.722596 128.51803 
L 210.967249 138.316082 
L 211.456555 125.308323 
L 211.701208 124.463663 
L 211.945861 108.921924 
L 212.190514 105.881149 
L 212.435167 107.570468 
L 212.67982 89.325818 
L 212.924473 87.636499 
L 213.169126 77.162718 
L 213.413779 81.048153 
L 213.658432 82.061745 
L 214.147738 84.933588 
L 214.392391 82.399608 
L 214.637044 85.271452 
L 214.881697 86.116111 
L 215.12635 80.710289 
L 215.371003 81.892813 
L 215.615656 86.453975 
L 215.860309 78.852038 
L 216.104962 82.399608 
L 216.349615 81.048153 
L 216.594268 83.919996 
L 216.838921 92.366593 
L 217.083574 91.353002 
L 217.57288 98.110279 
L 217.817533 91.859797 
L 218.062186 91.859797 
L 218.306839 84.426792 
L 218.551492 88.987954 
L 218.796145 85.440383 
L 219.040798 89.325818 
L 219.285452 87.636499 
L 219.530105 74.121943 
L 219.774758 83.075336 
L 220.264064 89.156886 
L 220.75337 74.966603 
L 220.998023 78.514174 
L 221.242676 86.285043 
L 221.487329 85.440383 
L 222.221288 81.048153 
L 222.710594 67.533597 
L 222.955247 73.446215 
L 223.1999 74.459807 
L 223.444553 71.419032 
L 223.689206 71.756896 
L 223.933859 74.290875 
L 224.178512 74.797671 
L 224.423165 76.824854 
L 224.667818 76.149126 
L 224.912471 68.885053 
L 225.157124 70.40544 
L 225.401777 81.892813 
L 225.64643 83.751064 
L 225.891083 86.960771 
L 226.135736 93.042321 
L 226.380389 90.508342 
L 226.625042 86.453975 
L 226.869695 89.832614 
L 227.114348 100.982122 
L 227.359001 98.954939 
L 227.603654 91.521934 
L 227.848307 92.535525 
L 228.337613 99.799599 
L 228.582266 92.873389 
L 228.826919 92.028729 
L 229.071572 92.197661 
L 229.316225 88.312227 
L 229.805531 85.778247 
L 230.050184 87.129703 
L 230.294837 90.001546 
L 231.028796 79.189902 
L 231.273449 82.399608 
L 231.762755 84.933588 
L 232.252061 90.33941 
L 232.496714 92.197661 
L 232.741367 91.690865 
L 232.98602 86.622907 
L 233.230673 84.088928 
L 233.719979 91.18407 
L 233.964632 91.18407 
L 234.209285 92.197661 
L 234.453938 85.609315 
L 234.698591 88.819022 
L 234.943244 86.622907 
L 235.187897 83.4132 
L 235.677203 91.521934 
L 235.921856 93.211253 
L 236.166509 98.786007 
L 236.411162 99.799599 
L 236.655815 97.096688 
L 236.900468 102.50251 
L 237.145121 104.529693 
L 237.389774 96.42096 
L 237.634427 101.151054 
L 238.613039 73.615147 
L 238.857692 75.304467 
L 239.102345 73.277283 
L 239.346998 73.784079 
L 239.591651 70.912236 
L 239.836304 72.601556 
L 240.080957 76.993786 
L 240.32561 78.683106 
L 240.570263 87.467567 
L 240.814916 86.116111 
L 241.059569 69.053985 
L 241.304222 62.127775 
L 241.548875 62.634571 
L 241.793529 57.059817 
L 242.038182 55.539429 
L 242.282835 56.215157 
L 242.527488 61.114183 
L 242.772141 72.09476 
L 243.016794 71.756896 
L 243.261447 68.885053 
L 243.5061 72.93942 
L 243.750753 68.716121 
L 243.995406 68.885053 
L 244.240059 69.560781 
L 244.484712 66.520006 
L 244.729365 66.182142 
L 244.974018 70.40544 
L 245.463324 99.630667 
L 245.95263 136.795695 
L 246.441936 104.360761 
L 247.175895 136.457831 
L 247.420548 126.152982 
L 247.665201 127.504438 
L 247.909854 136.288899 
L 248.154507 116.692793 
L 248.39916 126.321914 
L 248.643813 115.172406 
L 248.888466 109.259788 
L 249.133119 113.652018 
L 249.377772 105.881149 
L 249.622425 105.712217 
L 249.867078 100.644259 
L 250.356384 118.551045 
L 250.601037 121.253956 
L 250.84569 115.172406 
L 251.090343 113.82095 
L 251.579649 145.580156 
L 251.824302 142.201517 
L 252.313608 128.349098 
L 252.558261 107.401536 
L 252.802914 100.644259 
L 253.047567 112.300563 
L 253.29222 103.853966 
L 253.536873 107.232604 
L 253.781526 104.698625 
L 254.026179 105.036489 
L 254.270832 109.090856 
L 254.515485 108.077264 
L 254.760138 90.508342 
L 255.004791 84.933588 
L 255.249444 83.4132 
L 255.73875 100.982122 
L 255.983403 103.178238 
L 256.228056 91.015138 
L 256.472709 89.156886 
L 256.962015 67.364665 
L 257.451321 94.900572 
L 257.695974 73.953011 
L 257.940627 75.473399 
L 258.18528 89.49475 
L 258.429933 89.325818 
L 258.919239 97.772416 
L 259.163892 95.407368 
L 259.408545 96.252028 
L 259.653198 102.164646 
L 260.142504 106.050081 
L 260.387157 110.949107 
L 260.63181 103.516102 
L 260.876463 120.74716 
L 261.121116 122.605412 
L 261.365769 136.964627 
L 261.855075 110.949107 
L 262.099728 112.300563 
L 262.344381 112.638427 
L 262.589034 98.279211 
L 263.07834 119.057841 
L 263.322993 112.131631 
L 263.812299 116.692793 
L 264.056952 120.74716 
L 264.301606 119.564636 
L 264.546259 124.632595 
L 265.035565 121.253956 
L 265.280218 115.848134 
L 265.769524 125.815118 
L 266.014177 117.875317 
L 266.748136 115.172406 
L 266.992789 118.551045 
L 267.237442 111.624835 
L 267.482095 112.976291 
L 267.971401 126.490846 
L 268.216054 122.605412 
L 268.460707 132.234532 
L 268.70536 135.782103 
L 268.950013 142.539381 
L 269.194666 141.356857 
L 269.439319 142.539381 
L 269.683972 153.182094 
L 269.928625 140.68113 
L 270.173278 145.749088 
L 270.417931 147.776271 
L 270.662584 148.283067 
L 270.907237 149.634523 
L 271.15189 147.438408 
L 271.396543 150.985978 
L 271.641196 148.114135 
L 271.885849 150.648114 
L 272.130502 156.053937 
L 272.375155 151.15491 
L 272.619808 156.560733 
L 272.864461 157.067528 
L 273.353767 176.32577 
L 273.59842 175.818974 
L 273.843073 183.758776 
L 274.332379 168.048105 
L 274.577032 174.129655 
L 274.821685 170.24422 
L 275.066338 162.642283 
L 275.310991 165.683058 
L 275.800297 168.048105 
L 276.04495 158.587916 
L 276.289603 160.108303 
L 276.534256 159.094712 
L 276.778909 149.465591 
L 277.023562 155.547141 
L 277.268215 165.00733 
L 277.512868 158.756848 
L 277.757521 159.77044 
L 278.002174 161.290827 
L 278.246827 164.331602 
L 278.49148 162.980147 
L 278.736133 170.24422 
L 278.980786 163.824806 
L 279.225439 166.358785 
L 279.470092 150.985978 
L 279.959398 167.203445 
L 280.204051 175.650042 
L 280.448704 170.582084 
L 280.693357 168.723833 
L 280.93801 158.250052 
L 281.182663 153.013162 
L 281.916622 163.149078 
L 282.161275 158.587916 
L 282.405928 158.250052 
L 282.650581 165.514126 
L 282.895234 158.756848 
L 283.38454 136.457831 
L 283.629193 109.935516 
L 283.873846 112.807359 
L 284.118499 117.199589 
L 284.363152 127.504438 
L 284.607805 126.321914 
L 284.852458 116.523861 
L 285.097111 114.66561 
L 285.341764 117.199589 
L 285.586417 115.341338 
L 286.075723 104.867557 
L 286.320376 104.698625 
L 286.56503 104.191829 
L 286.809683 105.205421 
L 287.054336 107.908332 
L 287.298989 108.752992 
L 287.543642 110.273379 
L 287.788295 113.652018 
L 288.032948 112.131631 
L 288.277601 96.927756 
L 288.522254 101.995714 
L 288.766907 99.123871 
L 289.01156 98.954939 
L 289.256213 94.900572 
L 289.500866 95.238436 
L 289.745519 106.050081 
L 289.990172 105.543285 
L 290.234825 105.543285 
L 290.479478 102.333578 
L 290.724131 108.246196 
L 290.968784 105.881149 
L 291.213437 102.333578 
L 291.45809 96.252028 
L 291.702743 97.434552 
L 292.192049 85.947179 
L 292.436702 84.595724 
L 292.681355 81.554949 
L 293.415314 77.162718 
L 293.659967 80.203493 
L 293.90462 76.149126 
L 294.149273 77.669514 
L 294.393926 70.743304 
L 294.638579 69.729713 
L 294.883232 70.067576 
L 295.127885 79.358833 
L 295.372538 75.135535 
L 295.617191 78.514174 
L 295.861844 79.189902 
L 296.106497 88.143295 
L 296.595803 79.189902 
L 296.840456 83.919996 
L 297.085109 81.892813 
L 297.329762 92.366593 
L 297.574415 95.238436 
L 298.063721 74.797671 
L 298.308374 71.419032 
L 298.79768 61.283115 
L 299.042333 60.438456 
L 299.286986 61.958843 
L 299.531639 56.046225 
L 299.776292 55.539429 
L 300.265598 52.836518 
L 300.510251 42.531669 
L 300.999557 47.261764 
L 301.24421 47.261764 
L 301.733516 46.07924 
L 302.222822 44.896717 
L 302.467475 44.052057 
L 302.712128 43.714193 
L 302.956781 46.754968 
L 303.201434 43.038465 
L 303.446087 35.943323 
L 303.935393 70.067576 
L 304.180046 72.432624 
L 304.424699 67.533597 
L 304.669352 76.149126 
L 304.914005 73.615147 
L 305.158658 72.770488 
L 305.403311 72.432624 
L 305.647964 75.304467 
L 305.892617 73.108351 
L 306.13727 78.514174 
L 306.381923 72.601556 
L 306.626576 71.756896 
L 307.115882 77.669514 
L 307.360535 73.446215 
L 307.605188 78.007378 
L 307.849841 78.852038 
L 308.094494 78.007378 
L 308.339147 73.108351 
L 308.5838 76.993786 
L 308.828453 78.345242 
L 309.073107 80.372425 
L 309.31776 78.852038 
L 309.562413 78.852038 
L 309.807066 77.669514 
L 310.051719 79.696697 
L 310.296372 90.170478 
L 310.541025 80.879221 
L 310.785678 91.18407 
L 311.030331 92.873389 
L 311.274984 89.49475 
L 311.76429 97.772416 
L 312.008943 95.069504 
L 312.253596 87.129703 
L 312.498249 89.325818 
L 312.742902 87.467567 
L 312.987555 97.941347 
L 313.476861 92.028729 
L 313.721514 103.34717 
L 313.966167 94.055913 
L 314.21082 97.26562 
L 314.455473 96.589892 
L 314.700126 93.549117 
L 314.944779 97.772416 
L 315.189432 99.292803 
L 315.434085 98.448143 
L 315.678738 106.556877 
L 315.923391 107.570468 
L 316.168044 112.807359 
L 316.412697 114.496678 
L 316.65735 117.199589 
L 316.902003 113.989882 
L 317.391309 116.523861 
L 317.635962 122.605412 
L 317.880615 123.450071 
L 318.369921 118.888909 
L 318.614574 117.537453 
L 318.859227 126.82871 
L 319.10388 130.545213 
L 319.837839 161.290827 
L 320.082492 159.432576 
L 320.327145 153.013162 
L 320.571798 159.432576 
L 321.061104 100.475327 
L 321.305757 115.679202 
L 322.529022 134.430648 
L 322.773675 132.91026 
L 323.018328 136.964627 
L 323.262981 135.444239 
L 323.507634 130.883077 
L 323.752287 133.417056 
L 324.241593 123.281139 
L 324.486246 134.768512 
L 324.730899 131.896669 
L 325.220205 133.079192 
L 325.709511 143.552973 
L 326.198817 118.888909 
L 326.44347 111.624835 
L 326.688123 111.793767 
L 326.932776 112.976291 
L 327.177429 111.455903 
L 327.422082 111.624835 
L 327.666735 111.286971 
L 327.911388 118.888909 
L 328.156041 119.9025 
L 328.400694 117.537453 
L 328.645347 116.692793 
L 328.89 119.733568 
L 329.134653 117.368521 
L 329.379306 117.537453 
L 329.868612 103.853966 
L 330.113265 98.448143 
L 330.357918 100.644259 
L 330.602571 100.813191 
L 330.847224 101.319986 
L 331.091877 111.624835 
L 331.33653 115.51027 
L 331.581184 116.861725 
L 331.825837 124.632595 
L 332.07049 125.139391 
L 332.315143 130.714145 
L 332.559796 129.531621 
L 333.049102 140.005402 
L 333.293755 137.640355 
L 333.538408 137.809287 
L 333.783061 135.444239 
L 334.027714 137.302491 
L 334.272367 130.207349 
L 334.51702 131.220941 
L 334.761673 130.207349 
L 335.006326 124.125799 
L 335.250979 121.760752 
L 335.495632 124.294731 
L 335.740285 123.281139 
L 335.984938 119.226773 
L 336.229591 119.733568 
L 336.474244 115.341338 
L 336.718897 112.976291 
L 336.96355 100.137463 
L 337.208203 98.279211 
L 337.697509 98.279211 
L 337.942162 98.786007 
L 338.186815 90.846206 
L 338.431468 87.467567 
L 338.676121 87.129703 
L 338.920774 89.832614 
L 339.165427 84.764656 
L 339.41008 83.244268 
L 339.654733 83.075336 
L 339.899386 85.947179 
L 340.144039 92.028729 
L 340.388692 93.380185 
L 340.633345 91.015138 
L 340.877998 90.001546 
L 341.122651 90.001546 
L 341.367304 88.143295 
L 341.611957 81.217085 
L 342.101263 86.453975 
L 342.345916 85.440383 
L 342.590569 87.636499 
L 342.835222 83.919996 
L 343.079875 86.960771 
L 343.324528 91.859797 
L 343.569181 88.819022 
L 343.813834 89.156886 
L 344.058487 86.285043 
L 344.30314 85.947179 
L 344.547793 88.312227 
L 344.792446 87.805431 
L 345.037099 86.116111 
L 345.281752 88.65009 
L 345.526405 90.001546 
L 345.771058 90.170478 
L 346.015711 91.18407 
L 346.260364 93.042321 
L 346.505017 93.211253 
L 346.74967 93.886981 
L 346.994323 91.859797 
L 347.483629 98.448143 
L 347.728282 96.252028 
L 347.972935 97.941347 
L 348.217588 96.252028 
L 348.462241 95.914164 
L 348.706894 94.393777 
L 348.951547 94.224845 
L 349.1962 93.211253 
L 349.930159 100.813191 
L 350.174812 101.151054 
L 350.419465 100.644259 
L 350.664118 101.151054 
L 350.908771 102.333578 
L 351.153424 108.246196 
L 351.398077 108.077264 
L 351.64273 108.58406 
L 351.887383 106.725809 
L 352.376689 121.760752 
L 352.621342 121.929684 
L 352.865995 117.875317 
L 353.110648 123.619003 
L 353.355301 123.281139 
L 353.599954 124.801527 
L 353.844607 122.943275 
L 354.333914 123.450071 
L 354.578567 114.66561 
L 354.82322 113.652018 
L 355.312526 119.733568 
L 355.557179 124.463663 
L 355.801832 125.646187 
L 356.046485 129.869485 
L 356.291138 112.638427 
L 356.535791 113.82095 
L 356.780444 115.848134 
L 357.26975 111.962699 
L 357.514403 109.259788 
L 358.003709 99.292803 
L 358.493015 90.846206 
L 358.737668 88.987954 
L 358.982321 91.18407 
L 359.226974 95.745232 
L 359.471627 96.083096 
L 359.71628 98.110279 
L 359.960933 98.786007 
L 360.205586 94.900572 
L 360.450239 97.941347 
L 360.694892 105.036489 
L 360.939545 102.840374 
L 361.184198 101.826782 
L 361.428851 105.881149 
L 361.918157 104.022898 
L 362.16281 101.488918 
L 362.407463 104.529693 
L 362.652116 102.671442 
L 362.896769 98.279211 
L 363.386075 100.644259 
L 363.875381 107.063673 
L 364.120034 110.611243 
L 364.60934 106.219013 
L 364.853993 106.050081 
L 365.098646 107.401536 
L 365.343299 110.104448 
L 365.587952 101.488918 
L 365.832605 97.941347 
L 366.077258 103.516102 
L 366.321911 104.022898 
L 366.566564 101.151054 
L 366.811217 101.65785 
L 367.05587 104.529693 
L 367.545176 102.333578 
L 367.789829 102.671442 
L 368.279135 114.327746 
L 368.523788 112.807359 
L 368.768441 106.219013 
L 369.013094 104.698625 
L 369.257747 104.867557 
L 369.5024 102.164646 
L 369.747053 100.813191 
L 369.991706 100.306395 
L 370.236359 101.151054 
L 370.481012 93.211253 
L 370.725665 92.535525 
L 370.970318 95.238436 
L 371.214971 92.028729 
L 371.459624 92.028729 
L 371.704277 90.170478 
L 371.94893 86.453975 
L 372.193583 68.716121 
L 372.438236 73.953011 
L 372.682889 62.634571 
L 372.927542 68.885053 
L 373.172195 65.675346 
L 373.416848 67.364665 
L 373.661501 58.24234 
L 374.150807 58.749136 
L 374.39546 66.351074 
L 374.640113 69.898644 
L 375.374072 63.141367 
L 375.618725 56.890885 
L 375.863378 55.708361 
L 376.108031 58.749136 
L 376.597338 57.228749 
L 376.841991 55.708361 
L 377.086644 51.31613 
L 377.331297 50.471471 
L 377.57595 52.16079 
L 377.820603 52.329722 
L 378.065256 58.411272 
L 378.309909 54.694769 
L 378.554562 60.945251 
L 378.799215 54.019042 
L 379.043868 50.978267 
L 379.288521 51.31613 
L 379.777827 55.370497 
L 380.02248 62.465639 
L 380.267133 64.830686 
L 380.511786 72.432624 
L 380.756439 73.953011 
L 381.245745 67.195733 
L 381.490398 65.675346 
L 381.490398 65.675346 
" style="fill:none;stroke:#ff7f0e;stroke-linecap:square;stroke-width:1.5;"/>
   </g>
   <g id="patch_3">
    <path d="M 40.603125 288.430125 
L 40.603125 22.318125 
" style="fill:none;stroke:#000000;stroke-linecap:square;stroke-linejoin:miter;stroke-width:0.8;"/>
   </g>
   <g id="patch_4">
    <path d="M 397.723125 288.430125 
L 397.723125 22.318125 
" style="fill:none;stroke:#000000;stroke-linecap:square;stroke-linejoin:miter;stroke-width:0.8;"/>
   </g>
   <g id="patch_5">
    <path d="M 40.603125 288.430125 
L 397.723125 288.430125 
" style="fill:none;stroke:#000000;stroke-linecap:square;stroke-linejoin:miter;stroke-width:0.8;"/>
   </g>
   <g id="patch_6">
    <path d="M 40.603125 22.318125 
L 397.723125 22.318125 
" style="fill:none;stroke:#000000;stroke-linecap:square;stroke-linejoin:miter;stroke-width:0.8;"/>
   </g>
   <g id="text_18">
    <!-- Training: PFE -->
    <defs>
     <path d="M -0.296875 72.90625 
L 61.375 72.90625 
L 61.375 64.59375 
L 35.5 64.59375 
L 35.5 0 
L 25.59375 0 
L 25.59375 64.59375 
L -0.296875 64.59375 
z
" id="DejaVuSans-84"/>
     <path d="M 54.890625 33.015625 
L 54.890625 0 
L 45.90625 0 
L 45.90625 32.71875 
Q 45.90625 40.484375 42.875 44.328125 
Q 39.84375 48.1875 33.796875 48.1875 
Q 26.515625 48.1875 22.3125 43.546875 
Q 18.109375 38.921875 18.109375 30.90625 
L 18.109375 0 
L 9.078125 0 
L 9.078125 54.6875 
L 18.109375 54.6875 
L 18.109375 46.1875 
Q 21.34375 51.125 25.703125 53.5625 
Q 30.078125 56 35.796875 56 
Q 45.21875 56 50.046875 50.171875 
Q 54.890625 44.34375 54.890625 33.015625 
z
" id="DejaVuSans-110"/>
     <path d="M 45.40625 27.984375 
Q 45.40625 37.75 41.375 43.109375 
Q 37.359375 48.484375 30.078125 48.484375 
Q 22.859375 48.484375 18.828125 43.109375 
Q 14.796875 37.75 14.796875 27.984375 
Q 14.796875 18.265625 18.828125 12.890625 
Q 22.859375 7.515625 30.078125 7.515625 
Q 37.359375 7.515625 41.375 12.890625 
Q 45.40625 18.265625 45.40625 27.984375 
z
M 54.390625 6.78125 
Q 54.390625 -7.171875 48.1875 -13.984375 
Q 42 -20.796875 29.203125 -20.796875 
Q 24.46875 -20.796875 20.265625 -20.09375 
Q 16.0625 -19.390625 12.109375 -17.921875 
L 12.109375 -9.1875 
Q 16.0625 -11.328125 19.921875 -12.34375 
Q 23.78125 -13.375 27.78125 -13.375 
Q 36.625 -13.375 41.015625 -8.765625 
Q 45.40625 -4.15625 45.40625 5.171875 
L 45.40625 9.625 
Q 42.625 4.78125 38.28125 2.390625 
Q 33.9375 0 27.875 0 
Q 17.828125 0 11.671875 7.65625 
Q 5.515625 15.328125 5.515625 27.984375 
Q 5.515625 40.671875 11.671875 48.328125 
Q 17.828125 56 27.875 56 
Q 33.9375 56 38.28125 53.609375 
Q 42.625 51.21875 45.40625 46.390625 
L 45.40625 54.6875 
L 54.390625 54.6875 
z
" id="DejaVuSans-103"/>
     <path d="M 11.71875 12.40625 
L 22.015625 12.40625 
L 22.015625 0 
L 11.71875 0 
z
M 11.71875 51.703125 
L 22.015625 51.703125 
L 22.015625 39.3125 
L 11.71875 39.3125 
z
" id="DejaVuSans-58"/>
     <path d="M 9.8125 72.90625 
L 51.703125 72.90625 
L 51.703125 64.59375 
L 19.671875 64.59375 
L 19.671875 43.109375 
L 48.578125 43.109375 
L 48.578125 34.8125 
L 19.671875 34.8125 
L 19.671875 0 
L 9.8125 0 
z
" id="DejaVuSans-70"/>
     <path d="M 9.8125 72.90625 
L 55.90625 72.90625 
L 55.90625 64.59375 
L 19.671875 64.59375 
L 19.671875 43.015625 
L 54.390625 43.015625 
L 54.390625 34.71875 
L 19.671875 34.71875 
L 19.671875 8.296875 
L 56.78125 8.296875 
L 56.78125 0 
L 9.8125 0 
z
" id="DejaVuSans-69"/>
    </defs>
    <g transform="translate(180.704063 16.318125)scale(0.12 -0.12)">
     <use xlink:href="#DejaVuSans-84"/>
     <use x="46.333984" xlink:href="#DejaVuSans-114"/>
     <use x="87.447266" xlink:href="#DejaVuSans-97"/>
     <use x="148.726562" xlink:href="#DejaVuSans-105"/>
     <use x="176.509766" xlink:href="#DejaVuSans-110"/>
     <use x="239.888672" xlink:href="#DejaVuSans-105"/>
     <use x="267.671875" xlink:href="#DejaVuSans-110"/>
     <use x="331.050781" xlink:href="#DejaVuSans-103"/>
     <use x="394.527344" xlink:href="#DejaVuSans-58"/>
     <use x="428.21875" xlink:href="#DejaVuSans-32"/>
     <use x="460.005859" xlink:href="#DejaVuSans-80"/>
     <use x="520.308594" xlink:href="#DejaVuSans-70"/>
     <use x="577.828125" xlink:href="#DejaVuSans-69"/>
    </g>
   </g>
   <g id="legend_1">
    <g id="patch_7">
     <path d="M 47.603125 59.674375 
L 131.33125 59.674375 
Q 133.33125 59.674375 133.33125 57.674375 
L 133.33125 29.318125 
Q 133.33125 27.318125 131.33125 27.318125 
L 47.603125 27.318125 
Q 45.603125 27.318125 45.603125 29.318125 
L 45.603125 57.674375 
Q 45.603125 59.674375 47.603125 59.674375 
z
" style="fill:#ffffff;opacity:0.8;stroke:#cccccc;stroke-linejoin:miter;"/>
    </g>
    <g id="line2d_33">
     <path d="M 49.603125 35.416562 
L 69.603125 35.416562 
" style="fill:none;stroke:#1f77b4;stroke-linecap:square;stroke-width:1.5;"/>
    </g>
    <g id="line2d_34"/>
    <g id="text_19">
     <!-- Predicted -->
     <defs>
      <path d="M 45.40625 46.390625 
L 45.40625 75.984375 
L 54.390625 75.984375 
L 54.390625 0 
L 45.40625 0 
L 45.40625 8.203125 
Q 42.578125 3.328125 38.25 0.953125 
Q 33.9375 -1.421875 27.875 -1.421875 
Q 17.96875 -1.421875 11.734375 6.484375 
Q 5.515625 14.40625 5.515625 27.296875 
Q 5.515625 40.1875 11.734375 48.09375 
Q 17.96875 56 27.875 56 
Q 33.9375 56 38.25 53.625 
Q 42.578125 51.265625 45.40625 46.390625 
z
M 14.796875 27.296875 
Q 14.796875 17.390625 18.875 11.75 
Q 22.953125 6.109375 30.078125 6.109375 
Q 37.203125 6.109375 41.296875 11.75 
Q 45.40625 17.390625 45.40625 27.296875 
Q 45.40625 37.203125 41.296875 42.84375 
Q 37.203125 48.484375 30.078125 48.484375 
Q 22.953125 48.484375 18.875 42.84375 
Q 14.796875 37.203125 14.796875 27.296875 
z
" id="DejaVuSans-100"/>
      <path d="M 18.3125 70.21875 
L 18.3125 54.6875 
L 36.8125 54.6875 
L 36.8125 47.703125 
L 18.3125 47.703125 
L 18.3125 18.015625 
Q 18.3125 11.328125 20.140625 9.421875 
Q 21.96875 7.515625 27.59375 7.515625 
L 36.8125 7.515625 
L 36.8125 0 
L 27.59375 0 
Q 17.1875 0 13.234375 3.875 
Q 9.28125 7.765625 9.28125 18.015625 
L 9.28125 47.703125 
L 2.6875 47.703125 
L 2.6875 54.6875 
L 9.28125 54.6875 
L 9.28125 70.21875 
z
" id="DejaVuSans-116"/>
     </defs>
     <g transform="translate(77.603125 38.916562)scale(0.1 -0.1)">
      <use xlink:href="#DejaVuSans-80"/>
      <use x="58.552734" xlink:href="#DejaVuSans-114"/>
      <use x="97.416016" xlink:href="#DejaVuSans-101"/>
      <use x="158.939453" xlink:href="#DejaVuSans-100"/>
      <use x="222.416016" xlink:href="#DejaVuSans-105"/>
      <use x="250.199219" xlink:href="#DejaVuSans-99"/>
      <use x="305.179688" xlink:href="#DejaVuSans-116"/>
      <use x="344.388672" xlink:href="#DejaVuSans-101"/>
      <use x="405.912109" xlink:href="#DejaVuSans-100"/>
     </g>
    </g>
    <g id="line2d_35">
     <path d="M 49.603125 50.094687 
L 69.603125 50.094687 
" style="fill:none;stroke:#ff7f0e;stroke-linecap:square;stroke-width:1.5;"/>
    </g>
    <g id="line2d_36"/>
    <g id="text_20">
     <!-- True value -->
     <defs>
      <path d="M 8.5 21.578125 
L 8.5 54.6875 
L 17.484375 54.6875 
L 17.484375 21.921875 
Q 17.484375 14.15625 20.5 10.265625 
Q 23.53125 6.390625 29.59375 6.390625 
Q 36.859375 6.390625 41.078125 11.03125 
Q 45.3125 15.671875 45.3125 23.6875 
L 45.3125 54.6875 
L 54.296875 54.6875 
L 54.296875 0 
L 45.3125 0 
L 45.3125 8.40625 
Q 42.046875 3.421875 37.71875 1 
Q 33.40625 -1.421875 27.6875 -1.421875 
Q 18.265625 -1.421875 13.375 4.4375 
Q 8.5 10.296875 8.5 21.578125 
z
M 31.109375 56 
z
" id="DejaVuSans-117"/>
      <path d="M 2.984375 54.6875 
L 12.5 54.6875 
L 29.59375 8.796875 
L 46.6875 54.6875 
L 56.203125 54.6875 
L 35.6875 0 
L 23.484375 0 
z
" id="DejaVuSans-118"/>
      <path d="M 9.421875 75.984375 
L 18.40625 75.984375 
L 18.40625 0 
L 9.421875 0 
z
" id="DejaVuSans-108"/>
     </defs>
     <g transform="translate(77.603125 53.594687)scale(0.1 -0.1)">
      <use xlink:href="#DejaVuSans-84"/>
      <use x="46.333984" xlink:href="#DejaVuSans-114"/>
      <use x="87.447266" xlink:href="#DejaVuSans-117"/>
      <use x="150.826172" xlink:href="#DejaVuSans-101"/>
      <use x="212.349609" xlink:href="#DejaVuSans-32"/>
      <use x="244.136719" xlink:href="#DejaVuSans-118"/>
      <use x="303.316406" xlink:href="#DejaVuSans-97"/>
      <use x="364.595703" xlink:href="#DejaVuSans-108"/>
      <use x="392.378906" xlink:href="#DejaVuSans-117"/>
      <use x="455.757812" xlink:href="#DejaVuSans-101"/>
     </g>
    </g>
   </g>
  </g>
 </g>
 <defs>
  <clipPath id="paf6ef4486e">
   <rect height="266.112" width="357.12" x="40.603125" y="22.318125"/>
  </clipPath>
 </defs>
</svg>
