<?xml version="1.0" encoding="utf-8" standalone="no"?>
<!DOCTYPE svg PUBLIC "-//W3C//DTD SVG 1.1//EN"
  "http://www.w3.org/Graphics/SVG/1.1/DTD/svg11.dtd">
<!-- Created with matplotlib (https://matplotlib.org/) -->
<svg height="325.986375pt" version="1.1" viewBox="0 0 413.302812 325.986375" width="413.302812pt" xmlns="http://www.w3.org/2000/svg" xmlns:xlink="http://www.w3.org/1999/xlink">
 <defs>
  <style type="text/css">
*{stroke-linecap:butt;stroke-linejoin:round;}
  </style>
 </defs>
 <g id="figure_1">
  <g id="patch_1">
   <path d="M 0 325.986375 
L 413.302812 325.986375 
L 413.302812 0 
L 0 0 
z
" style="fill:#ffffff;"/>
  </g>
  <g id="axes_1">
   <g id="patch_2">
    <path d="M 48.982813 288.430125 
L 406.102813 288.430125 
L 406.102813 22.318125 
L 48.982813 22.318125 
z
" style="fill:#ffffff;"/>
   </g>
   <g id="matplotlib.axis_1">
    <g id="xtick_1">
     <g id="line2d_1">
      <path clip-path="url(#p8e0d1af832)" d="M 65.21554 288.430125 
L 65.21554 22.318125 
" style="fill:none;stroke:#b0b0b0;stroke-dasharray:2.96,1.28;stroke-dashoffset:0;stroke-width:0.8;"/>
     </g>
     <g id="line2d_2">
      <defs>
       <path d="M 0 0 
L 0 3.5 
" id="m14f37ffec6" style="stroke:#000000;stroke-width:0.8;"/>
      </defs>
      <g>
       <use style="stroke:#000000;stroke-width:0.8;" x="65.21554" xlink:href="#m14f37ffec6" y="288.430125"/>
      </g>
     </g>
     <g id="text_1">
      <!-- 0 -->
      <defs>
       <path d="M 31.78125 66.40625 
Q 24.171875 66.40625 20.328125 58.90625 
Q 16.5 51.421875 16.5 36.375 
Q 16.5 21.390625 20.328125 13.890625 
Q 24.171875 6.390625 31.78125 6.390625 
Q 39.453125 6.390625 43.28125 13.890625 
Q 47.125 21.390625 47.125 36.375 
Q 47.125 51.421875 43.28125 58.90625 
Q 39.453125 66.40625 31.78125 66.40625 
z
M 31.78125 74.21875 
Q 44.046875 74.21875 50.515625 64.515625 
Q 56.984375 54.828125 56.984375 36.375 
Q 56.984375 17.96875 50.515625 8.265625 
Q 44.046875 -1.421875 31.78125 -1.421875 
Q 19.53125 -1.421875 13.0625 8.265625 
Q 6.59375 17.96875 6.59375 36.375 
Q 6.59375 54.828125 13.0625 64.515625 
Q 19.53125 74.21875 31.78125 74.21875 
z
" id="DejaVuSans-48"/>
      </defs>
      <g transform="translate(62.03429 303.028562)scale(0.1 -0.1)">
       <use xlink:href="#DejaVuSans-48"/>
      </g>
     </g>
    </g>
    <g id="xtick_2">
     <g id="line2d_3">
      <path clip-path="url(#p8e0d1af832)" d="M 114.146142 288.430125 
L 114.146142 22.318125 
" style="fill:none;stroke:#b0b0b0;stroke-dasharray:2.96,1.28;stroke-dashoffset:0;stroke-width:0.8;"/>
     </g>
     <g id="line2d_4">
      <g>
       <use style="stroke:#000000;stroke-width:0.8;" x="114.146142" xlink:href="#m14f37ffec6" y="288.430125"/>
      </g>
     </g>
     <g id="text_2">
      <!-- 200 -->
      <defs>
       <path d="M 19.1875 8.296875 
L 53.609375 8.296875 
L 53.609375 0 
L 7.328125 0 
L 7.328125 8.296875 
Q 12.9375 14.109375 22.625 23.890625 
Q 32.328125 33.6875 34.8125 36.53125 
Q 39.546875 41.84375 41.421875 45.53125 
Q 43.3125 49.21875 43.3125 52.78125 
Q 43.3125 58.59375 39.234375 62.25 
Q 35.15625 65.921875 28.609375 65.921875 
Q 23.96875 65.921875 18.8125 64.3125 
Q 13.671875 62.703125 7.8125 59.421875 
L 7.8125 69.390625 
Q 13.765625 71.78125 18.9375 73 
Q 24.125 74.21875 28.421875 74.21875 
Q 39.75 74.21875 46.484375 68.546875 
Q 53.21875 62.890625 53.21875 53.421875 
Q 53.21875 48.921875 51.53125 44.890625 
Q 49.859375 40.875 45.40625 35.40625 
Q 44.1875 33.984375 37.640625 27.21875 
Q 31.109375 20.453125 19.1875 8.296875 
z
" id="DejaVuSans-50"/>
      </defs>
      <g transform="translate(104.602392 303.028562)scale(0.1 -0.1)">
       <use xlink:href="#DejaVuSans-50"/>
       <use x="63.623047" xlink:href="#DejaVuSans-48"/>
       <use x="127.246094" xlink:href="#DejaVuSans-48"/>
      </g>
     </g>
    </g>
    <g id="xtick_3">
     <g id="line2d_5">
      <path clip-path="url(#p8e0d1af832)" d="M 163.076744 288.430125 
L 163.076744 22.318125 
" style="fill:none;stroke:#b0b0b0;stroke-dasharray:2.96,1.28;stroke-dashoffset:0;stroke-width:0.8;"/>
     </g>
     <g id="line2d_6">
      <g>
       <use style="stroke:#000000;stroke-width:0.8;" x="163.076744" xlink:href="#m14f37ffec6" y="288.430125"/>
      </g>
     </g>
     <g id="text_3">
      <!-- 400 -->
      <defs>
       <path d="M 37.796875 64.3125 
L 12.890625 25.390625 
L 37.796875 25.390625 
z
M 35.203125 72.90625 
L 47.609375 72.90625 
L 47.609375 25.390625 
L 58.015625 25.390625 
L 58.015625 17.1875 
L 47.609375 17.1875 
L 47.609375 0 
L 37.796875 0 
L 37.796875 17.1875 
L 4.890625 17.1875 
L 4.890625 26.703125 
z
" id="DejaVuSans-52"/>
      </defs>
      <g transform="translate(153.532994 303.028562)scale(0.1 -0.1)">
       <use xlink:href="#DejaVuSans-52"/>
       <use x="63.623047" xlink:href="#DejaVuSans-48"/>
       <use x="127.246094" xlink:href="#DejaVuSans-48"/>
      </g>
     </g>
    </g>
    <g id="xtick_4">
     <g id="line2d_7">
      <path clip-path="url(#p8e0d1af832)" d="M 212.007346 288.430125 
L 212.007346 22.318125 
" style="fill:none;stroke:#b0b0b0;stroke-dasharray:2.96,1.28;stroke-dashoffset:0;stroke-width:0.8;"/>
     </g>
     <g id="line2d_8">
      <g>
       <use style="stroke:#000000;stroke-width:0.8;" x="212.007346" xlink:href="#m14f37ffec6" y="288.430125"/>
      </g>
     </g>
     <g id="text_4">
      <!-- 600 -->
      <defs>
       <path d="M 33.015625 40.375 
Q 26.375 40.375 22.484375 35.828125 
Q 18.609375 31.296875 18.609375 23.390625 
Q 18.609375 15.53125 22.484375 10.953125 
Q 26.375 6.390625 33.015625 6.390625 
Q 39.65625 6.390625 43.53125 10.953125 
Q 47.40625 15.53125 47.40625 23.390625 
Q 47.40625 31.296875 43.53125 35.828125 
Q 39.65625 40.375 33.015625 40.375 
z
M 52.59375 71.296875 
L 52.59375 62.3125 
Q 48.875 64.0625 45.09375 64.984375 
Q 41.3125 65.921875 37.59375 65.921875 
Q 27.828125 65.921875 22.671875 59.328125 
Q 17.53125 52.734375 16.796875 39.40625 
Q 19.671875 43.65625 24.015625 45.921875 
Q 28.375 48.1875 33.59375 48.1875 
Q 44.578125 48.1875 50.953125 41.515625 
Q 57.328125 34.859375 57.328125 23.390625 
Q 57.328125 12.15625 50.6875 5.359375 
Q 44.046875 -1.421875 33.015625 -1.421875 
Q 20.359375 -1.421875 13.671875 8.265625 
Q 6.984375 17.96875 6.984375 36.375 
Q 6.984375 53.65625 15.1875 63.9375 
Q 23.390625 74.21875 37.203125 74.21875 
Q 40.921875 74.21875 44.703125 73.484375 
Q 48.484375 72.75 52.59375 71.296875 
z
" id="DejaVuSans-54"/>
      </defs>
      <g transform="translate(202.463596 303.028562)scale(0.1 -0.1)">
       <use xlink:href="#DejaVuSans-54"/>
       <use x="63.623047" xlink:href="#DejaVuSans-48"/>
       <use x="127.246094" xlink:href="#DejaVuSans-48"/>
      </g>
     </g>
    </g>
    <g id="xtick_5">
     <g id="line2d_9">
      <path clip-path="url(#p8e0d1af832)" d="M 260.937948 288.430125 
L 260.937948 22.318125 
" style="fill:none;stroke:#b0b0b0;stroke-dasharray:2.96,1.28;stroke-dashoffset:0;stroke-width:0.8;"/>
     </g>
     <g id="line2d_10">
      <g>
       <use style="stroke:#000000;stroke-width:0.8;" x="260.937948" xlink:href="#m14f37ffec6" y="288.430125"/>
      </g>
     </g>
     <g id="text_5">
      <!-- 800 -->
      <defs>
       <path d="M 31.78125 34.625 
Q 24.75 34.625 20.71875 30.859375 
Q 16.703125 27.09375 16.703125 20.515625 
Q 16.703125 13.921875 20.71875 10.15625 
Q 24.75 6.390625 31.78125 6.390625 
Q 38.8125 6.390625 42.859375 10.171875 
Q 46.921875 13.96875 46.921875 20.515625 
Q 46.921875 27.09375 42.890625 30.859375 
Q 38.875 34.625 31.78125 34.625 
z
M 21.921875 38.8125 
Q 15.578125 40.375 12.03125 44.71875 
Q 8.5 49.078125 8.5 55.328125 
Q 8.5 64.0625 14.71875 69.140625 
Q 20.953125 74.21875 31.78125 74.21875 
Q 42.671875 74.21875 48.875 69.140625 
Q 55.078125 64.0625 55.078125 55.328125 
Q 55.078125 49.078125 51.53125 44.71875 
Q 48 40.375 41.703125 38.8125 
Q 48.828125 37.15625 52.796875 32.3125 
Q 56.78125 27.484375 56.78125 20.515625 
Q 56.78125 9.90625 50.3125 4.234375 
Q 43.84375 -1.421875 31.78125 -1.421875 
Q 19.734375 -1.421875 13.25 4.234375 
Q 6.78125 9.90625 6.78125 20.515625 
Q 6.78125 27.484375 10.78125 32.3125 
Q 14.796875 37.15625 21.921875 38.8125 
z
M 18.3125 54.390625 
Q 18.3125 48.734375 21.84375 45.5625 
Q 25.390625 42.390625 31.78125 42.390625 
Q 38.140625 42.390625 41.71875 45.5625 
Q 45.3125 48.734375 45.3125 54.390625 
Q 45.3125 60.0625 41.71875 63.234375 
Q 38.140625 66.40625 31.78125 66.40625 
Q 25.390625 66.40625 21.84375 63.234375 
Q 18.3125 60.0625 18.3125 54.390625 
z
" id="DejaVuSans-56"/>
      </defs>
      <g transform="translate(251.394198 303.028562)scale(0.1 -0.1)">
       <use xlink:href="#DejaVuSans-56"/>
       <use x="63.623047" xlink:href="#DejaVuSans-48"/>
       <use x="127.246094" xlink:href="#DejaVuSans-48"/>
      </g>
     </g>
    </g>
    <g id="xtick_6">
     <g id="line2d_11">
      <path clip-path="url(#p8e0d1af832)" d="M 309.868551 288.430125 
L 309.868551 22.318125 
" style="fill:none;stroke:#b0b0b0;stroke-dasharray:2.96,1.28;stroke-dashoffset:0;stroke-width:0.8;"/>
     </g>
     <g id="line2d_12">
      <g>
       <use style="stroke:#000000;stroke-width:0.8;" x="309.868551" xlink:href="#m14f37ffec6" y="288.430125"/>
      </g>
     </g>
     <g id="text_6">
      <!-- 1000 -->
      <defs>
       <path d="M 12.40625 8.296875 
L 28.515625 8.296875 
L 28.515625 63.921875 
L 10.984375 60.40625 
L 10.984375 69.390625 
L 28.421875 72.90625 
L 38.28125 72.90625 
L 38.28125 8.296875 
L 54.390625 8.296875 
L 54.390625 0 
L 12.40625 0 
z
" id="DejaVuSans-49"/>
      </defs>
      <g transform="translate(297.143551 303.028562)scale(0.1 -0.1)">
       <use xlink:href="#DejaVuSans-49"/>
       <use x="63.623047" xlink:href="#DejaVuSans-48"/>
       <use x="127.246094" xlink:href="#DejaVuSans-48"/>
       <use x="190.869141" xlink:href="#DejaVuSans-48"/>
      </g>
     </g>
    </g>
    <g id="xtick_7">
     <g id="line2d_13">
      <path clip-path="url(#p8e0d1af832)" d="M 358.799153 288.430125 
L 358.799153 22.318125 
" style="fill:none;stroke:#b0b0b0;stroke-dasharray:2.96,1.28;stroke-dashoffset:0;stroke-width:0.8;"/>
     </g>
     <g id="line2d_14">
      <g>
       <use style="stroke:#000000;stroke-width:0.8;" x="358.799153" xlink:href="#m14f37ffec6" y="288.430125"/>
      </g>
     </g>
     <g id="text_7">
      <!-- 1200 -->
      <g transform="translate(346.074153 303.028562)scale(0.1 -0.1)">
       <use xlink:href="#DejaVuSans-49"/>
       <use x="63.623047" xlink:href="#DejaVuSans-50"/>
       <use x="127.246094" xlink:href="#DejaVuSans-48"/>
       <use x="190.869141" xlink:href="#DejaVuSans-48"/>
      </g>
     </g>
    </g>
    <g id="text_8">
     <!-- Day -->
     <defs>
      <path d="M 19.671875 64.796875 
L 19.671875 8.109375 
L 31.59375 8.109375 
Q 46.6875 8.109375 53.6875 14.9375 
Q 60.6875 21.78125 60.6875 36.53125 
Q 60.6875 51.171875 53.6875 57.984375 
Q 46.6875 64.796875 31.59375 64.796875 
z
M 9.8125 72.90625 
L 30.078125 72.90625 
Q 51.265625 72.90625 61.171875 64.09375 
Q 71.09375 55.28125 71.09375 36.53125 
Q 71.09375 17.671875 61.125 8.828125 
Q 51.171875 0 30.078125 0 
L 9.8125 0 
z
" id="DejaVuSans-68"/>
      <path d="M 34.28125 27.484375 
Q 23.390625 27.484375 19.1875 25 
Q 14.984375 22.515625 14.984375 16.5 
Q 14.984375 11.71875 18.140625 8.90625 
Q 21.296875 6.109375 26.703125 6.109375 
Q 34.1875 6.109375 38.703125 11.40625 
Q 43.21875 16.703125 43.21875 25.484375 
L 43.21875 27.484375 
z
M 52.203125 31.203125 
L 52.203125 0 
L 43.21875 0 
L 43.21875 8.296875 
Q 40.140625 3.328125 35.546875 0.953125 
Q 30.953125 -1.421875 24.3125 -1.421875 
Q 15.921875 -1.421875 10.953125 3.296875 
Q 6 8.015625 6 15.921875 
Q 6 25.140625 12.171875 29.828125 
Q 18.359375 34.515625 30.609375 34.515625 
L 43.21875 34.515625 
L 43.21875 35.40625 
Q 43.21875 41.609375 39.140625 45 
Q 35.0625 48.390625 27.6875 48.390625 
Q 23 48.390625 18.546875 47.265625 
Q 14.109375 46.140625 10.015625 43.890625 
L 10.015625 52.203125 
Q 14.9375 54.109375 19.578125 55.046875 
Q 24.21875 56 28.609375 56 
Q 40.484375 56 46.34375 49.84375 
Q 52.203125 43.703125 52.203125 31.203125 
z
" id="DejaVuSans-97"/>
      <path d="M 32.171875 -5.078125 
Q 28.375 -14.84375 24.75 -17.8125 
Q 21.140625 -20.796875 15.09375 -20.796875 
L 7.90625 -20.796875 
L 7.90625 -13.28125 
L 13.1875 -13.28125 
Q 16.890625 -13.28125 18.9375 -11.515625 
Q 21 -9.765625 23.484375 -3.21875 
L 25.09375 0.875 
L 2.984375 54.6875 
L 12.5 54.6875 
L 29.59375 11.921875 
L 46.6875 54.6875 
L 56.203125 54.6875 
z
" id="DejaVuSans-121"/>
     </defs>
     <g transform="translate(217.669375 316.706687)scale(0.1 -0.1)">
      <use xlink:href="#DejaVuSans-68"/>
      <use x="77.001953" xlink:href="#DejaVuSans-97"/>
      <use x="138.28125" xlink:href="#DejaVuSans-121"/>
     </g>
    </g>
   </g>
   <g id="matplotlib.axis_2">
    <g id="ytick_1">
     <g id="line2d_15">
      <path clip-path="url(#p8e0d1af832)" d="M 48.982813 277.966199 
L 406.102813 277.966199 
" style="fill:none;stroke:#b0b0b0;stroke-dasharray:2.96,1.28;stroke-dashoffset:0;stroke-width:0.8;"/>
     </g>
     <g id="line2d_16">
      <defs>
       <path d="M 0 0 
L -3.5 0 
" id="m316ccfef7b" style="stroke:#000000;stroke-width:0.8;"/>
      </defs>
      <g>
       <use style="stroke:#000000;stroke-width:0.8;" x="48.982813" xlink:href="#m316ccfef7b" y="277.966199"/>
      </g>
     </g>
     <g id="text_9">
      <!-- −30 -->
      <defs>
       <path d="M 10.59375 35.5 
L 73.1875 35.5 
L 73.1875 27.203125 
L 10.59375 27.203125 
z
" id="DejaVuSans-8722"/>
       <path d="M 40.578125 39.3125 
Q 47.65625 37.796875 51.625 33 
Q 55.609375 28.21875 55.609375 21.1875 
Q 55.609375 10.40625 48.1875 4.484375 
Q 40.765625 -1.421875 27.09375 -1.421875 
Q 22.515625 -1.421875 17.65625 -0.515625 
Q 12.796875 0.390625 7.625 2.203125 
L 7.625 11.71875 
Q 11.71875 9.328125 16.59375 8.109375 
Q 21.484375 6.890625 26.8125 6.890625 
Q 36.078125 6.890625 40.9375 10.546875 
Q 45.796875 14.203125 45.796875 21.1875 
Q 45.796875 27.640625 41.28125 31.265625 
Q 36.765625 34.90625 28.71875 34.90625 
L 20.21875 34.90625 
L 20.21875 43.015625 
L 29.109375 43.015625 
Q 36.375 43.015625 40.234375 45.921875 
Q 44.09375 48.828125 44.09375 54.296875 
Q 44.09375 59.90625 40.109375 62.90625 
Q 36.140625 65.921875 28.71875 65.921875 
Q 24.65625 65.921875 20.015625 65.03125 
Q 15.375 64.15625 9.8125 62.3125 
L 9.8125 71.09375 
Q 15.4375 72.65625 20.34375 73.4375 
Q 25.25 74.21875 29.59375 74.21875 
Q 40.828125 74.21875 47.359375 69.109375 
Q 53.90625 64.015625 53.90625 55.328125 
Q 53.90625 49.265625 50.4375 45.09375 
Q 46.96875 40.921875 40.578125 39.3125 
z
" id="DejaVuSans-51"/>
      </defs>
      <g transform="translate(20.878125 281.765418)scale(0.1 -0.1)">
       <use xlink:href="#DejaVuSans-8722"/>
       <use x="83.789062" xlink:href="#DejaVuSans-51"/>
       <use x="147.412109" xlink:href="#DejaVuSans-48"/>
      </g>
     </g>
    </g>
    <g id="ytick_2">
     <g id="line2d_17">
      <path clip-path="url(#p8e0d1af832)" d="M 48.982813 231.335513 
L 406.102813 231.335513 
" style="fill:none;stroke:#b0b0b0;stroke-dasharray:2.96,1.28;stroke-dashoffset:0;stroke-width:0.8;"/>
     </g>
     <g id="line2d_18">
      <g>
       <use style="stroke:#000000;stroke-width:0.8;" x="48.982813" xlink:href="#m316ccfef7b" y="231.335513"/>
      </g>
     </g>
     <g id="text_10">
      <!-- −20 -->
      <g transform="translate(20.878125 235.134732)scale(0.1 -0.1)">
       <use xlink:href="#DejaVuSans-8722"/>
       <use x="83.789062" xlink:href="#DejaVuSans-50"/>
       <use x="147.412109" xlink:href="#DejaVuSans-48"/>
      </g>
     </g>
    </g>
    <g id="ytick_3">
     <g id="line2d_19">
      <path clip-path="url(#p8e0d1af832)" d="M 48.982813 184.704827 
L 406.102813 184.704827 
" style="fill:none;stroke:#b0b0b0;stroke-dasharray:2.96,1.28;stroke-dashoffset:0;stroke-width:0.8;"/>
     </g>
     <g id="line2d_20">
      <g>
       <use style="stroke:#000000;stroke-width:0.8;" x="48.982813" xlink:href="#m316ccfef7b" y="184.704827"/>
      </g>
     </g>
     <g id="text_11">
      <!-- −10 -->
      <g transform="translate(20.878125 188.504045)scale(0.1 -0.1)">
       <use xlink:href="#DejaVuSans-8722"/>
       <use x="83.789062" xlink:href="#DejaVuSans-49"/>
       <use x="147.412109" xlink:href="#DejaVuSans-48"/>
      </g>
     </g>
    </g>
    <g id="ytick_4">
     <g id="line2d_21">
      <path clip-path="url(#p8e0d1af832)" d="M 48.982813 138.07414 
L 406.102813 138.07414 
" style="fill:none;stroke:#b0b0b0;stroke-dasharray:2.96,1.28;stroke-dashoffset:0;stroke-width:0.8;"/>
     </g>
     <g id="line2d_22">
      <g>
       <use style="stroke:#000000;stroke-width:0.8;" x="48.982813" xlink:href="#m316ccfef7b" y="138.07414"/>
      </g>
     </g>
     <g id="text_12">
      <!-- 0 -->
      <g transform="translate(35.620313 141.873359)scale(0.1 -0.1)">
       <use xlink:href="#DejaVuSans-48"/>
      </g>
     </g>
    </g>
    <g id="ytick_5">
     <g id="line2d_23">
      <path clip-path="url(#p8e0d1af832)" d="M 48.982813 91.443454 
L 406.102813 91.443454 
" style="fill:none;stroke:#b0b0b0;stroke-dasharray:2.96,1.28;stroke-dashoffset:0;stroke-width:0.8;"/>
     </g>
     <g id="line2d_24">
      <g>
       <use style="stroke:#000000;stroke-width:0.8;" x="48.982813" xlink:href="#m316ccfef7b" y="91.443454"/>
      </g>
     </g>
     <g id="text_13">
      <!-- 10 -->
      <g transform="translate(29.257813 95.242673)scale(0.1 -0.1)">
       <use xlink:href="#DejaVuSans-49"/>
       <use x="63.623047" xlink:href="#DejaVuSans-48"/>
      </g>
     </g>
    </g>
    <g id="ytick_6">
     <g id="line2d_25">
      <path clip-path="url(#p8e0d1af832)" d="M 48.982813 44.812768 
L 406.102813 44.812768 
" style="fill:none;stroke:#b0b0b0;stroke-dasharray:2.96,1.28;stroke-dashoffset:0;stroke-width:0.8;"/>
     </g>
     <g id="line2d_26">
      <g>
       <use style="stroke:#000000;stroke-width:0.8;" x="48.982813" xlink:href="#m316ccfef7b" y="44.812768"/>
      </g>
     </g>
     <g id="text_14">
      <!-- 20 -->
      <g transform="translate(29.257813 48.611987)scale(0.1 -0.1)">
       <use xlink:href="#DejaVuSans-50"/>
       <use x="63.623047" xlink:href="#DejaVuSans-48"/>
      </g>
     </g>
    </g>
    <g id="text_15">
     <!-- Change $ -->
     <defs>
      <path d="M 64.40625 67.28125 
L 64.40625 56.890625 
Q 59.421875 61.53125 53.78125 63.8125 
Q 48.140625 66.109375 41.796875 66.109375 
Q 29.296875 66.109375 22.65625 58.46875 
Q 16.015625 50.828125 16.015625 36.375 
Q 16.015625 21.96875 22.65625 14.328125 
Q 29.296875 6.6875 41.796875 6.6875 
Q 48.140625 6.6875 53.78125 8.984375 
Q 59.421875 11.28125 64.40625 15.921875 
L 64.40625 5.609375 
Q 59.234375 2.09375 53.4375 0.328125 
Q 47.65625 -1.421875 41.21875 -1.421875 
Q 24.65625 -1.421875 15.125 8.703125 
Q 5.609375 18.84375 5.609375 36.375 
Q 5.609375 53.953125 15.125 64.078125 
Q 24.65625 74.21875 41.21875 74.21875 
Q 47.75 74.21875 53.53125 72.484375 
Q 59.328125 70.75 64.40625 67.28125 
z
" id="DejaVuSans-67"/>
      <path d="M 54.890625 33.015625 
L 54.890625 0 
L 45.90625 0 
L 45.90625 32.71875 
Q 45.90625 40.484375 42.875 44.328125 
Q 39.84375 48.1875 33.796875 48.1875 
Q 26.515625 48.1875 22.3125 43.546875 
Q 18.109375 38.921875 18.109375 30.90625 
L 18.109375 0 
L 9.078125 0 
L 9.078125 75.984375 
L 18.109375 75.984375 
L 18.109375 46.1875 
Q 21.34375 51.125 25.703125 53.5625 
Q 30.078125 56 35.796875 56 
Q 45.21875 56 50.046875 50.171875 
Q 54.890625 44.34375 54.890625 33.015625 
z
" id="DejaVuSans-104"/>
      <path d="M 54.890625 33.015625 
L 54.890625 0 
L 45.90625 0 
L 45.90625 32.71875 
Q 45.90625 40.484375 42.875 44.328125 
Q 39.84375 48.1875 33.796875 48.1875 
Q 26.515625 48.1875 22.3125 43.546875 
Q 18.109375 38.921875 18.109375 30.90625 
L 18.109375 0 
L 9.078125 0 
L 9.078125 54.6875 
L 18.109375 54.6875 
L 18.109375 46.1875 
Q 21.34375 51.125 25.703125 53.5625 
Q 30.078125 56 35.796875 56 
Q 45.21875 56 50.046875 50.171875 
Q 54.890625 44.34375 54.890625 33.015625 
z
" id="DejaVuSans-110"/>
      <path d="M 45.40625 27.984375 
Q 45.40625 37.75 41.375 43.109375 
Q 37.359375 48.484375 30.078125 48.484375 
Q 22.859375 48.484375 18.828125 43.109375 
Q 14.796875 37.75 14.796875 27.984375 
Q 14.796875 18.265625 18.828125 12.890625 
Q 22.859375 7.515625 30.078125 7.515625 
Q 37.359375 7.515625 41.375 12.890625 
Q 45.40625 18.265625 45.40625 27.984375 
z
M 54.390625 6.78125 
Q 54.390625 -7.171875 48.1875 -13.984375 
Q 42 -20.796875 29.203125 -20.796875 
Q 24.46875 -20.796875 20.265625 -20.09375 
Q 16.0625 -19.390625 12.109375 -17.921875 
L 12.109375 -9.1875 
Q 16.0625 -11.328125 19.921875 -12.34375 
Q 23.78125 -13.375 27.78125 -13.375 
Q 36.625 -13.375 41.015625 -8.765625 
Q 45.40625 -4.15625 45.40625 5.171875 
L 45.40625 9.625 
Q 42.625 4.78125 38.28125 2.390625 
Q 33.9375 0 27.875 0 
Q 17.828125 0 11.671875 7.65625 
Q 5.515625 15.328125 5.515625 27.984375 
Q 5.515625 40.671875 11.671875 48.328125 
Q 17.828125 56 27.875 56 
Q 33.9375 56 38.28125 53.609375 
Q 42.625 51.21875 45.40625 46.390625 
L 45.40625 54.6875 
L 54.390625 54.6875 
z
" id="DejaVuSans-103"/>
      <path d="M 56.203125 29.59375 
L 56.203125 25.203125 
L 14.890625 25.203125 
Q 15.484375 15.921875 20.484375 11.0625 
Q 25.484375 6.203125 34.421875 6.203125 
Q 39.59375 6.203125 44.453125 7.46875 
Q 49.3125 8.734375 54.109375 11.28125 
L 54.109375 2.78125 
Q 49.265625 0.734375 44.1875 -0.34375 
Q 39.109375 -1.421875 33.890625 -1.421875 
Q 20.796875 -1.421875 13.15625 6.1875 
Q 5.515625 13.8125 5.515625 26.8125 
Q 5.515625 40.234375 12.765625 48.109375 
Q 20.015625 56 32.328125 56 
Q 43.359375 56 49.78125 48.890625 
Q 56.203125 41.796875 56.203125 29.59375 
z
M 47.21875 32.234375 
Q 47.125 39.59375 43.09375 43.984375 
Q 39.0625 48.390625 32.421875 48.390625 
Q 24.90625 48.390625 20.390625 44.140625 
Q 15.875 39.890625 15.1875 32.171875 
z
" id="DejaVuSans-101"/>
      <path id="DejaVuSans-32"/>
      <path d="M 33.796875 -14.703125 
L 28.90625 -14.703125 
L 28.859375 0 
Q 23.734375 0.09375 18.609375 1.1875 
Q 13.484375 2.296875 8.296875 4.5 
L 8.296875 13.28125 
Q 13.28125 10.15625 18.375 8.5625 
Q 23.484375 6.984375 28.90625 6.9375 
L 28.90625 29.203125 
Q 18.109375 30.953125 13.203125 35.15625 
Q 8.296875 39.359375 8.296875 46.6875 
Q 8.296875 54.640625 13.625 59.21875 
Q 18.953125 63.8125 28.90625 64.5 
L 28.90625 75.984375 
L 33.796875 75.984375 
L 33.796875 64.65625 
Q 38.328125 64.453125 42.578125 63.6875 
Q 46.828125 62.9375 50.875 61.625 
L 50.875 53.078125 
Q 46.828125 55.125 42.546875 56.25 
Q 38.28125 57.375 33.796875 57.5625 
L 33.796875 36.71875 
Q 44.875 35.015625 50.09375 30.609375 
Q 55.328125 26.21875 55.328125 18.609375 
Q 55.328125 10.359375 49.78125 5.59375 
Q 44.234375 0.828125 33.796875 0.09375 
z
M 28.90625 37.59375 
L 28.90625 57.625 
Q 23.25 56.984375 20.265625 54.390625 
Q 17.28125 51.8125 17.28125 47.515625 
Q 17.28125 43.3125 20.03125 40.96875 
Q 22.796875 38.625 28.90625 37.59375 
z
M 33.796875 28.21875 
L 33.796875 7.078125 
Q 39.984375 7.90625 43.140625 10.59375 
Q 46.296875 13.28125 46.296875 17.671875 
Q 46.296875 21.96875 43.28125 24.5 
Q 40.28125 27.046875 33.796875 28.21875 
z
" id="DejaVuSans-36"/>
     </defs>
     <g transform="translate(14.798438 179.288187)rotate(-90)scale(0.1 -0.1)">
      <use xlink:href="#DejaVuSans-67"/>
      <use x="69.824219" xlink:href="#DejaVuSans-104"/>
      <use x="133.203125" xlink:href="#DejaVuSans-97"/>
      <use x="194.482422" xlink:href="#DejaVuSans-110"/>
      <use x="257.861328" xlink:href="#DejaVuSans-103"/>
      <use x="321.337891" xlink:href="#DejaVuSans-101"/>
      <use x="382.861328" xlink:href="#DejaVuSans-32"/>
      <use x="414.648438" xlink:href="#DejaVuSans-36"/>
     </g>
    </g>
   </g>
   <g id="line2d_27">
    <path clip-path="url(#p8e0d1af832)" d="M 65.21554 202.767485 
L 65.460193 170.612438 
L 65.704846 154.803283 
L 65.949499 146.538975 
L 66.683458 142.466561 
L 66.928111 141.761127 
L 67.172764 142.452242 
L 67.417417 141.616542 
L 67.66207 141.311006 
L 67.906723 140.604578 
L 68.151376 141.087344 
L 68.396029 140.426972 
L 68.640682 140.105704 
L 68.885335 139.114894 
L 69.129988 138.640375 
L 69.374641 137.645483 
L 69.863947 140.313692 
L 70.1086 140.197254 
L 70.353253 140.311991 
L 70.597906 140.719992 
L 70.842559 140.263584 
L 71.087212 140.521377 
L 71.331865 140.153375 
L 71.576518 141.033473 
L 71.821171 141.096732 
L 72.065824 140.926985 
L 72.310477 141.241576 
L 72.55513 141.843924 
L 72.799783 140.29636 
L 73.044436 141.560046 
L 73.289089 141.578547 
L 73.533742 140.906941 
L 73.778395 141.144806 
L 74.023048 142.260707 
L 74.267701 140.463785 
L 74.512354 141.459109 
L 74.757007 141.7597 
L 75.00166 140.838218 
L 75.246313 140.72103 
L 75.490966 140.912724 
L 75.980272 139.179969 
L 76.224925 139.769008 
L 76.714231 139.536449 
L 77.203537 138.942263 
L 77.44819 139.316594 
L 77.692843 140.123426 
L 78.182149 139.306472 
L 78.426802 139.734992 
L 78.916108 138.862955 
L 79.160761 138.923287 
L 79.405414 138.724902 
L 79.650067 139.25136 
L 79.89472 138.59119 
L 80.139373 138.262063 
L 80.384026 138.398386 
L 80.628679 139.043099 
L 80.873332 138.76186 
L 81.117985 139.509773 
L 81.362638 139.260747 
L 81.607292 139.337733 
L 82.096598 140.544477 
L 82.341251 140.486554 
L 82.585904 140.894223 
L 82.830557 140.083657 
L 83.07521 139.735627 
L 83.564516 141.589087 
L 83.809169 141.252852 
L 84.053822 142.068581 
L 84.298475 142.275386 
L 84.543128 141.872374 
L 84.787781 142.234478 
L 85.032434 141.604314 
L 85.277087 141.70828 
L 85.52174 141.361028 
L 85.766393 141.381878 
L 86.011046 140.314802 
L 86.255699 141.461561 
L 86.745005 140.829754 
L 86.989658 141.155318 
L 87.234311 141.268368 
L 87.478964 140.943841 
L 87.723617 141.60443 
L 87.96827 140.959457 
L 88.212923 140.658839 
L 88.457576 141.594523 
L 88.946882 140.070059 
L 89.191535 139.486341 
L 89.436188 140.590259 
L 89.680841 139.958452 
L 89.925494 140.123267 
L 90.659453 139.107194 
L 91.148759 139.103358 
L 91.393412 138.615415 
L 91.638065 139.305823 
L 91.882718 138.302078 
L 92.127371 138.798759 
L 92.372024 138.637606 
L 93.350636 136.893114 
L 93.595289 136.819935 
L 93.839942 136.954786 
L 94.084595 136.961189 
L 94.818554 137.474885 
L 95.063207 137.252449 
L 95.30786 137.895936 
L 95.552513 137.159472 
L 95.797166 137.317741 
L 96.041819 136.987504 
L 96.286472 137.502831 
L 96.531125 137.489262 
L 96.775778 137.988654 
L 97.020431 139.004353 
L 97.265084 138.249216 
L 97.75439 140.286929 
L 97.999043 139.97192 
L 98.243696 140.495652 
L 98.488349 140.500022 
L 98.733002 140.199042 
L 98.977655 140.311645 
L 99.466961 141.004605 
L 99.711614 140.550331 
L 100.445573 141.395159 
L 101.179532 140.28057 
L 101.668838 139.965993 
L 101.913491 140.865053 
L 102.158144 140.802025 
L 102.402797 140.082301 
L 102.64745 140.97777 
L 103.136756 141.270718 
L 103.381409 141.024317 
L 103.870715 140.931383 
L 104.360022 140.065993 
L 104.604675 140.901332 
L 104.849328 139.515844 
L 105.093981 141.589448 
L 105.338634 140.434528 
L 105.583287 140.560353 
L 106.317246 139.66598 
L 106.561899 139.864552 
L 106.806552 139.578136 
L 107.051205 139.760616 
L 107.295858 139.645129 
L 107.540511 139.954342 
L 107.785164 139.165059 
L 108.27447 138.940273 
L 108.519123 138.933856 
L 108.763776 139.247539 
L 109.008429 139.175672 
L 109.253082 139.444784 
L 109.742388 138.937865 
L 109.987041 139.38849 
L 110.231694 139.090308 
L 110.476347 138.584802 
L 110.721 138.387874 
L 110.965653 139.229673 
L 111.210306 139.285434 
L 111.454959 140.085834 
L 111.699612 140.18977 
L 111.944265 139.558655 
L 112.188918 140.332337 
L 112.433571 139.68722 
L 112.678224 138.312561 
L 112.922877 138.245885 
L 113.16753 138.501327 
L 113.412183 139.654098 
L 113.901489 138.450152 
L 114.146142 139.048823 
L 114.390795 137.931221 
L 114.635448 139.305059 
L 114.880101 138.693352 
L 115.124754 138.411681 
L 115.369407 137.758561 
L 115.61406 137.864891 
L 115.858713 139.164064 
L 116.103366 138.471969 
L 116.348019 138.673425 
L 116.592672 137.562874 
L 116.837325 139.18839 
L 117.081978 138.738212 
L 117.326631 139.14741 
L 117.571284 138.917749 
L 117.815937 137.695159 
L 118.305243 138.304313 
L 118.549896 137.210633 
L 119.039202 137.718143 
L 119.283855 138.851578 
L 119.773161 138.546561 
L 120.017814 138.526331 
L 120.262467 139.10392 
L 120.50712 139.068434 
L 120.751773 139.674574 
L 120.996426 139.048203 
L 121.241079 139.121916 
L 121.485732 138.600894 
L 121.975038 138.585494 
L 122.219691 139.572527 
L 122.464344 139.320617 
L 122.708997 139.366111 
L 122.95365 139.220618 
L 123.932262 137.784805 
L 124.176915 137.231628 
L 124.421568 137.313559 
L 124.666221 137.743435 
L 124.910874 136.651471 
L 125.155527 137.233127 
L 125.40018 137.409579 
L 125.644833 136.887764 
L 125.889486 135.948431 
L 126.134139 135.870392 
L 126.378792 137.446522 
L 126.623446 135.344641 
L 126.868099 135.571965 
L 127.112752 135.294331 
L 127.357405 134.433513 
L 127.602058 135.649514 
L 127.846711 135.469731 
L 128.091364 134.619222 
L 128.336017 135.126257 
L 128.58067 134.495084 
L 128.825323 134.353297 
L 129.069976 135.126949 
L 129.314629 134.60251 
L 129.559282 135.056207 
L 129.803935 135.174606 
L 130.048588 134.989531 
L 130.293241 136.054299 
L 130.537894 135.345333 
L 130.782547 135.1986 
L 131.0272 135.866845 
L 131.516506 135.829398 
L 131.761159 135.392701 
L 132.005812 136.288372 
L 132.495118 136.440931 
L 132.739771 136.173967 
L 133.229077 137.185918 
L 133.47373 136.843222 
L 133.718383 137.195636 
L 133.963036 136.408314 
L 134.207689 136.400585 
L 134.452342 136.952941 
L 134.696995 135.858641 
L 134.941648 137.15604 
L 135.186301 136.406166 
L 135.675607 136.490924 
L 135.92026 136.240341 
L 136.409566 136.37228 
L 136.654219 137.006711 
L 136.898872 136.531847 
L 137.143525 136.871629 
L 137.388178 136.805731 
L 137.632831 135.84213 
L 137.877484 137.157367 
L 138.122137 136.434024 
L 138.36679 136.189454 
L 138.611443 137.088802 
L 139.100749 135.77097 
L 139.345402 137.32635 
L 139.590055 138.076513 
L 139.834708 137.916686 
L 140.079361 137.384244 
L 140.324014 137.261433 
L 140.568667 136.153391 
L 140.81332 136.901679 
L 141.057973 138.261717 
L 141.302626 137.100914 
L 141.547279 137.500495 
L 141.791932 137.481634 
L 142.036585 138.157925 
L 142.281238 138.180708 
L 142.525891 137.467041 
L 142.770544 137.649247 
L 143.015197 139.018009 
L 143.25985 138.084919 
L 143.504503 138.652631 
L 143.749156 138.080146 
L 143.993809 138.911318 
L 144.238462 138.458977 
L 144.483115 139.436954 
L 144.727768 139.918236 
L 144.972421 139.019652 
L 145.217074 138.731521 
L 145.461727 138.785738 
L 145.951033 137.292305 
L 146.195686 138.223967 
L 146.684992 137.010532 
L 146.929645 138.467138 
L 147.174298 138.702307 
L 147.418951 137.94081 
L 147.663604 138.161992 
L 147.908257 138.741052 
L 148.15291 137.115118 
L 148.397563 137.595664 
L 148.642216 136.678753 
L 148.886869 137.858388 
L 149.376176 137.020237 
L 149.865482 137.068009 
L 150.110135 136.519662 
L 150.599441 137.435289 
L 150.844094 137.57924 
L 151.088747 137.24485 
L 151.3334 137.302572 
L 151.578053 136.764174 
L 151.822706 137.617163 
L 152.067359 136.952609 
L 152.312012 136.661435 
L 152.556665 136.605646 
L 152.801318 136.766453 
L 153.290624 137.479716 
L 153.77993 136.258798 
L 154.024583 136.811759 
L 154.269236 136.960266 
L 154.758542 135.965533 
L 155.003195 137.242673 
L 155.247848 137.30782 
L 155.737154 138.031235 
L 155.981807 136.744751 
L 156.22646 138.392373 
L 156.715766 140.185978 
L 156.960419 139.393912 
L 157.205072 139.585014 
L 157.449725 139.319723 
L 157.694378 141.074756 
L 157.939031 141.07937 
L 158.183684 141.597595 
L 158.428337 140.766596 
L 158.67299 141.500306 
L 158.917643 141.714725 
L 159.406949 140.067637 
L 159.651602 141.738705 
L 159.896255 140.368573 
L 160.385561 139.877356 
L 160.630214 140.536287 
L 160.874867 139.404438 
L 161.11952 139.092385 
L 161.608826 139.209717 
L 161.853479 138.983402 
L 162.098132 139.502765 
L 162.342785 138.056441 
L 162.832091 139.357777 
L 163.076744 138.763475 
L 163.321397 139.283271 
L 163.56605 139.521093 
L 163.810703 138.901874 
L 164.300009 138.208019 
L 164.544662 137.738114 
L 164.789315 138.843373 
L 165.033968 138.717058 
L 165.278621 137.322442 
L 165.523274 139.903744 
L 166.01258 139.997702 
L 166.257233 139.683442 
L 166.991192 141.015348 
L 167.235845 141.033444 
L 167.725151 139.975279 
L 167.969804 141.228339 
L 168.214457 140.233577 
L 168.45911 141.04012 
L 168.703763 140.937396 
L 168.948416 140.365127 
L 169.193069 140.268472 
L 169.437722 141.037165 
L 169.682375 142.596957 
L 169.927028 142.138083 
L 170.171681 140.771484 
L 170.416334 140.865557 
L 170.660987 140.748716 
L 170.90564 139.986772 
L 171.150293 139.807652 
L 171.394947 140.11388 
L 171.6396 140.778752 
L 172.128906 138.901715 
L 172.373559 139.843543 
L 172.618212 139.734026 
L 172.862865 139.175759 
L 173.107518 139.969252 
L 173.352171 139.596882 
L 173.596824 140.084508 
L 173.841477 139.286515 
L 174.330783 139.163242 
L 174.575436 138.45765 
L 174.820089 139.602217 
L 175.309395 139.145708 
L 175.554048 138.618789 
L 175.798701 139.444727 
L 176.043354 139.377272 
L 176.288007 138.569431 
L 176.53266 138.993048 
L 176.777313 137.568468 
L 177.021966 139.139839 
L 177.266619 136.62491 
L 177.511272 137.939109 
L 177.755925 138.042973 
L 178.000578 137.34645 
L 178.245231 138.232027 
L 178.489884 137.340567 
L 178.734537 137.193171 
L 178.97919 137.189739 
L 179.223843 136.620267 
L 179.468496 137.186365 
L 179.713149 137.112926 
L 179.957802 136.330261 
L 180.202455 136.695653 
L 180.447108 135.435254 
L 180.936414 137.271296 
L 181.181067 136.244638 
L 181.42572 136.822934 
L 181.670373 136.883813 
L 181.915026 136.742358 
L 182.159679 137.042529 
L 182.404332 135.932555 
L 182.648985 136.782156 
L 182.893638 136.252554 
L 183.138291 136.532582 
L 183.382944 136.046239 
L 183.627597 136.242662 
L 183.87225 136.249367 
L 184.116903 135.662621 
L 184.361556 136.859271 
L 184.606209 135.946326 
L 184.850862 136.527636 
L 185.095515 136.757729 
L 185.340168 136.647044 
L 185.584821 136.28409 
L 185.829474 137.058088 
L 186.074127 136.810086 
L 186.808086 135.502795 
L 187.052739 136.595725 
L 187.297392 135.599608 
L 187.542045 133.154137 
L 187.786698 133.431426 
L 188.031351 136.032209 
L 188.276004 133.611093 
L 188.76531 135.209155 
L 189.009963 134.62127 
L 189.254616 134.487514 
L 189.499269 135.614734 
L 189.743922 133.929953 
L 189.988575 134.878385 
L 190.233228 135.122811 
L 190.477881 135.994257 
L 190.967187 135.367554 
L 191.21184 135.367972 
L 191.456493 134.163218 
L 191.701146 135.811272 
L 191.945799 135.877227 
L 192.190452 136.144826 
L 192.435105 135.761381 
L 192.679758 136.735826 
L 193.169064 136.811644 
L 193.413717 137.495001 
L 193.65837 137.403653 
L 193.903024 135.91727 
L 194.147677 135.226199 
L 194.39233 135.923961 
L 194.636983 135.426141 
L 195.370942 137.463941 
L 196.104901 138.553223 
L 196.349554 137.404489 
L 196.594207 137.013373 
L 196.83886 137.25118 
L 197.083513 137.709924 
L 197.328166 139.094158 
L 197.817472 137.482485 
L 198.062125 139.588403 
L 198.306778 139.889757 
L 198.551431 138.417175 
L 198.796084 139.640126 
L 199.040737 139.955698 
L 199.28539 139.653031 
L 199.530043 139.038081 
L 199.774696 139.749729 
L 200.019349 139.75169 
L 200.264002 139.059739 
L 200.508655 139.171231 
L 200.753308 140.555768 
L 200.997961 140.10445 
L 201.242614 140.681968 
L 201.73192 140.370981 
L 201.976573 140.592235 
L 202.465879 138.807771 
L 202.710532 138.911881 
L 202.955185 139.163444 
L 203.199838 137.901906 
L 203.933797 137.710919 
L 204.17845 136.259346 
L 204.423103 136.373563 
L 204.667756 137.731539 
L 204.912409 136.569871 
L 205.157062 136.260139 
L 205.401715 137.094079 
L 206.135674 135.206473 
L 206.62498 136.134314 
L 206.869633 134.513253 
L 207.114286 134.538689 
L 207.358939 136.334198 
L 207.603592 135.604467 
L 207.848245 136.598479 
L 208.092898 135.69779 
L 208.337551 136.438566 
L 208.582204 136.646972 
L 208.826857 136.284061 
L 209.07151 136.952076 
L 209.316163 137.166163 
L 209.560816 136.434399 
L 209.805469 137.194497 
L 210.050122 137.306869 
L 210.294775 137.601734 
L 210.784081 139.672238 
L 211.028734 138.740562 
L 211.273387 139.365736 
L 211.51804 139.078744 
L 211.762693 140.137874 
L 212.007346 140.541175 
L 212.251999 140.008459 
L 212.496652 139.894588 
L 212.741305 140.726899 
L 212.985958 140.444391 
L 213.475264 139.354734 
L 213.719917 139.259233 
L 213.96457 139.336364 
L 214.209223 140.044854 
L 214.453876 138.756524 
L 214.943182 140.952997 
L 215.432488 140.017298 
L 215.677141 139.757314 
L 215.921794 140.576561 
L 216.655754 140.12122 
L 216.900407 140.657454 
L 217.14506 139.936563 
L 217.389713 140.862457 
L 217.634366 139.747854 
L 217.879019 139.549167 
L 218.123672 138.526864 
L 218.368325 139.108261 
L 218.857631 138.857735 
L 219.346937 139.504741 
L 219.59159 140.237095 
L 219.836243 139.415166 
L 220.080896 139.852338 
L 220.325549 139.788691 
L 220.570202 139.997889 
L 220.814855 139.761207 
L 221.059508 139.12392 
L 221.548814 140.478435 
L 221.793467 138.992472 
L 222.03812 140.836891 
L 222.282773 141.76874 
L 222.527426 140.96361 
L 222.772079 141.177525 
L 223.016732 142.058703 
L 223.261385 141.389838 
L 223.506038 141.605482 
L 223.750691 141.460998 
L 223.995344 141.09007 
L 224.48465 141.127748 
L 224.729303 140.949912 
L 225.218609 139.26653 
L 225.463262 139.787263 
L 225.707915 139.352167 
L 226.441874 140.304997 
L 226.686527 141.062889 
L 226.93118 141.069464 
L 227.175833 140.867865 
L 227.420486 140.283238 
L 227.909792 139.967839 
L 228.154445 139.279565 
L 228.399098 139.820644 
L 228.643751 139.645158 
L 228.888404 138.914822 
L 229.133057 139.798179 
L 229.37771 139.969209 
L 229.622363 139.782447 
L 229.867016 139.881726 
L 230.111669 140.304738 
L 230.356322 139.934227 
L 230.845628 138.018878 
L 231.090281 139.516493 
L 231.579587 138.173729 
L 231.82424 139.338671 
L 232.068893 139.255715 
L 232.313546 139.326933 
L 232.558199 138.681672 
L 232.802852 138.616381 
L 233.047505 139.196335 
L 233.292158 138.295848 
L 233.781464 137.535419 
L 234.026117 138.123693 
L 234.27077 137.779383 
L 234.515423 138.569589 
L 235.004729 139.222579 
L 235.249382 141.488006 
L 235.738688 140.713229 
L 235.983341 141.894263 
L 236.227994 142.064024 
L 236.472647 142.395429 
L 236.7173 142.06512 
L 236.961953 142.115935 
L 237.695912 141.489073 
L 237.940565 140.954843 
L 238.185218 140.125748 
L 238.429871 140.544304 
L 238.919178 140.37623 
L 239.163831 139.996822 
L 239.408484 140.38021 
L 239.89779 138.870309 
L 240.142443 139.135744 
L 240.387096 139.086429 
L 240.631749 138.508176 
L 240.876402 139.474272 
L 241.121055 139.642923 
L 241.365708 138.455314 
L 241.610361 138.420188 
L 241.855014 138.826459 
L 242.588973 137.560682 
L 242.833626 137.579917 
L 243.078279 138.377103 
L 243.322932 138.496093 
L 243.567585 137.883968 
L 243.812238 138.453526 
L 244.056891 138.620649 
L 244.301544 137.677048 
L 244.546197 137.901719 
L 244.79085 138.383779 
L 245.280156 140.131256 
L 245.524809 140.720352 
L 245.769462 140.493288 
L 246.014115 140.93666 
L 246.258768 140.591672 
L 246.503421 141.43549 
L 246.748074 141.537393 
L 246.992727 141.205296 
L 247.23738 141.582973 
L 247.482033 140.688759 
L 247.971339 140.355783 
L 248.215992 140.157759 
L 248.460645 139.078715 
L 248.705298 138.743287 
L 248.949951 138.751016 
L 249.194604 139.013539 
L 249.439257 140.643424 
L 249.68391 138.770281 
L 249.928563 139.32464 
L 250.173216 143.44585 
L 250.417869 144.349365 
L 250.662522 144.263511 
L 250.907175 143.333911 
L 251.151828 143.839129 
L 251.396481 142.867309 
L 251.885787 142.795528 
L 252.13044 142.517894 
L 252.375093 143.607955 
L 252.619746 143.639764 
L 252.864399 143.83972 
L 253.109052 144.903523 
L 253.353705 143.534358 
L 253.598358 144.369322 
L 253.843011 143.449023 
L 254.087664 144.949608 
L 254.332317 144.391643 
L 254.57697 143.168259 
L 254.821623 144.095667 
L 255.066276 146.046388 
L 255.310929 145.960376 
L 255.555582 144.869075 
L 255.800235 144.523943 
L 256.044888 143.768488 
L 256.289541 144.735204 
L 256.534194 144.188212 
L 256.778847 143.295772 
L 257.268153 143.566239 
L 257.512806 142.948433 
L 257.757459 143.25854 
L 258.002112 142.473424 
L 258.246765 142.116872 
L 258.491418 142.229388 
L 258.980724 142.219669 
L 259.225377 142.570569 
L 259.47003 141.874032 
L 259.714683 142.372502 
L 259.959336 142.244355 
L 260.203989 141.455418 
L 260.448642 141.636917 
L 260.693295 140.896098 
L 260.937948 138.92369 
L 261.182601 138.77726 
L 261.427255 139.884509 
L 261.671908 138.701932 
L 261.916561 139.54787 
L 262.161214 139.139565 
L 262.405867 139.538728 
L 262.65052 140.372538 
L 262.895173 139.094461 
L 263.139826 139.440631 
L 263.629132 138.954274 
L 263.873785 138.396252 
L 264.118438 138.826935 
L 264.363091 138.175806 
L 264.607744 138.101156 
L 264.852397 137.538202 
L 265.09705 136.030752 
L 265.341703 137.61389 
L 265.831009 134.819236 
L 266.075662 135.384583 
L 266.320315 136.686395 
L 266.564968 134.747152 
L 266.809621 134.762365 
L 267.054274 134.565899 
L 267.298927 133.576256 
L 267.54358 133.515448 
L 267.788233 133.582211 
L 268.032886 134.012808 
L 268.277539 133.533343 
L 268.766845 133.384374 
L 269.011498 133.712362 
L 269.256151 133.406278 
L 269.500804 134.017768 
L 269.99011 133.053994 
L 270.234763 134.212302 
L 270.479416 133.475766 
L 270.724069 133.38201 
L 271.213375 134.077104 
L 271.458028 133.126596 
L 272.191987 135.024008 
L 272.43664 135.417431 
L 272.681293 134.679914 
L 273.170599 136.267449 
L 273.415252 135.689701 
L 273.659905 137.985756 
L 273.904558 137.375131 
L 274.149211 138.253945 
L 274.638517 138.127731 
L 274.88317 139.012313 
L 275.127823 137.897292 
L 275.372476 138.549633 
L 275.617129 138.249749 
L 275.861782 139.403184 
L 276.106435 139.245982 
L 276.351088 139.322002 
L 276.595741 138.917302 
L 276.840394 139.610133 
L 277.085047 141.367026 
L 277.3297 140.069324 
L 277.574353 140.333663 
L 278.308312 143.348316 
L 278.552965 142.502004 
L 279.286924 143.084727 
L 279.531577 142.202567 
L 279.77623 142.713323 
L 280.020883 141.952994 
L 280.510189 142.988203 
L 280.754842 141.500508 
L 280.999495 143.66161 
L 281.244148 143.222953 
L 281.488801 143.054662 
L 281.733454 142.587353 
L 281.978107 143.534141 
L 282.22276 143.2604 
L 282.467413 143.740096 
L 282.712066 143.129846 
L 282.956719 143.319275 
L 283.201372 143.322563 
L 283.446025 142.656379 
L 283.690678 143.170191 
L 283.935332 141.858358 
L 284.424638 140.603395 
L 284.669291 140.918895 
L 284.913944 140.761016 
L 285.158597 140.36168 
L 285.40325 138.925248 
L 285.647903 138.562581 
L 285.892556 142.0199 
L 286.137209 138.409143 
L 286.381862 138.335978 
L 286.626515 139.547567 
L 286.871168 137.301865 
L 287.115821 138.627152 
L 287.360474 138.455891 
L 287.605127 137.176314 
L 287.84978 137.99001 
L 288.094433 138.12254 
L 288.339086 137.114916 
L 288.583739 137.614395 
L 288.828392 137.284648 
L 289.073045 136.460845 
L 289.317698 137.150878 
L 289.807004 137.146884 
L 290.051657 135.883298 
L 290.540963 136.975695 
L 290.785616 136.21887 
L 291.030269 136.454053 
L 291.274922 136.347291 
L 291.519575 135.961885 
L 291.764228 137.326508 
L 292.008881 136.833561 
L 292.253534 136.829639 
L 292.498187 136.462618 
L 292.74284 137.465642 
L 292.987493 136.98338 
L 293.232146 137.360668 
L 293.476799 136.840324 
L 293.721452 137.176357 
L 293.966105 136.078899 
L 294.210758 137.284691 
L 294.455411 136.46494 
L 294.700064 136.678263 
L 294.944717 137.639066 
L 295.18937 137.476789 
L 295.434023 137.553285 
L 295.678676 137.035983 
L 296.167982 137.650025 
L 296.412635 135.940327 
L 296.901941 139.124194 
L 297.146594 138.038128 
L 297.6359 140.943134 
L 297.880553 140.85183 
L 298.125206 141.048239 
L 298.369859 140.326598 
L 298.614512 142.486287 
L 298.859165 142.926126 
L 299.348471 142.330757 
L 299.593124 142.536005 
L 299.837777 141.834883 
L 300.571736 141.222946 
L 300.816389 140.301277 
L 301.061042 140.698781 
L 301.305695 139.80585 
L 301.550348 140.013852 
L 301.795001 140.484391 
L 302.039654 138.90878 
L 302.52896 139.623659 
L 302.773613 139.335744 
L 303.018266 140.030607 
L 303.262919 138.837173 
L 303.752225 140.822832 
L 303.996878 139.632988 
L 304.486184 139.892007 
L 304.730837 141.338793 
L 304.97549 141.350833 
L 305.220143 140.747447 
L 305.464796 141.120135 
L 305.709449 140.502473 
L 305.954102 140.19972 
L 306.198756 140.431385 
L 306.443409 141.331381 
L 306.688062 140.740929 
L 307.177368 140.497224 
L 307.422021 139.976721 
L 307.666674 140.804649 
L 307.911327 140.371543 
L 308.15598 140.508587 
L 308.400633 139.814732 
L 308.889939 140.06755 
L 309.134592 139.029919 
L 309.379245 138.998759 
L 309.623898 139.751777 
L 309.868551 139.450667 
L 310.357857 139.708532 
L 310.847163 139.579867 
L 311.091816 138.828305 
L 311.336469 138.863878 
L 311.581122 139.475801 
L 311.825775 139.170005 
L 312.070428 138.403981 
L 312.315081 138.512401 
L 312.559734 140.461795 
L 312.804387 138.77974 
L 313.04904 139.666672 
L 313.293693 139.606629 
L 313.538346 138.831506 
L 313.782999 138.550325 
L 314.027652 138.920749 
L 314.272305 138.946646 
L 314.516958 138.048135 
L 314.761611 138.35096 
L 315.006264 137.771798 
L 315.250917 136.887779 
L 315.49557 136.909754 
L 315.740223 137.579009 
L 315.984876 137.552607 
L 316.229529 136.337356 
L 316.474182 137.62955 
L 316.963488 137.703854 
L 317.452794 137.453703 
L 317.697447 136.146729 
L 317.9421 136.235914 
L 318.431406 135.32741 
L 318.676059 135.593479 
L 318.920712 137.15268 
L 319.165365 136.309843 
L 319.410018 137.283812 
L 319.654671 137.268469 
L 319.899324 136.799214 
L 320.143977 137.159458 
L 320.38863 136.992393 
L 320.633283 136.966524 
L 320.877936 135.686644 
L 321.367242 136.246065 
L 321.611895 136.125316 
L 321.856548 136.298639 
L 322.101201 136.861939 
L 322.345854 138.093268 
L 322.590507 137.485671 
L 322.83516 137.549809 
L 323.079813 138.078849 
L 323.324466 138.151119 
L 323.813772 138.050557 
L 324.058425 138.333051 
L 324.303078 138.439683 
L 324.547731 138.720692 
L 324.792384 139.224208 
L 325.28169 139.109486 
L 325.526343 140.202416 
L 325.770996 139.694185 
L 326.015649 139.817818 
L 326.260302 139.480761 
L 326.504955 138.70969 
L 326.749608 138.951621 
L 326.994261 139.375671 
L 327.238914 138.129923 
L 327.483567 138.322409 
L 327.972873 139.972612 
L 328.462179 140.669884 
L 328.706833 141.306176 
L 328.951486 141.330199 
L 329.196139 140.752681 
L 329.440792 141.101173 
L 329.685445 140.796401 
L 329.930098 140.727605 
L 330.174751 141.607285 
L 330.419404 142.042943 
L 330.90871 141.322225 
L 331.153363 141.402859 
L 331.398016 140.660021 
L 331.642669 141.142946 
L 331.887322 140.950445 
L 332.131975 140.615811 
L 332.376628 140.589567 
L 332.621281 140.075582 
L 332.865934 140.209727 
L 333.110587 140.928787 
L 333.35524 140.740107 
L 333.599893 140.139706 
L 333.844546 140.584347 
L 334.089199 139.951689 
L 334.578505 139.554517 
L 334.823158 139.017605 
L 335.067811 139.025622 
L 335.312464 138.745998 
L 335.557117 139.366731 
L 335.80177 139.345534 
L 336.046423 139.812093 
L 336.291076 139.429572 
L 336.535729 139.419997 
L 336.780382 138.424788 
L 337.025035 138.522855 
L 337.269688 139.346947 
L 337.514341 139.194879 
L 337.758994 139.697573 
L 338.2483 138.902378 
L 338.492953 138.752501 
L 338.737606 137.925165 
L 338.982259 138.163333 
L 339.226912 137.936902 
L 339.716218 136.529554 
L 339.960871 137.659023 
L 340.205524 137.108542 
L 340.450177 137.296991 
L 340.69483 138.133268 
L 340.939483 138.512459 
L 341.184136 139.281569 
L 341.428789 138.291912 
L 341.673442 138.175387 
L 341.918095 137.634798 
L 342.162748 137.773774 
L 342.407401 138.829559 
L 342.652054 138.624917 
L 342.896707 138.7077 
L 343.14136 138.447528 
L 343.386013 139.007338 
L 343.630666 138.855457 
L 343.875319 138.523894 
L 344.119972 138.619885 
L 344.364625 138.240304 
L 344.609278 137.502268 
L 345.098584 137.047677 
L 345.343237 138.420246 
L 345.58789 137.816196 
L 345.832543 137.558303 
L 346.077196 137.591554 
L 346.321849 137.495376 
L 346.811155 137.600163 
L 347.055808 137.243581 
L 347.300461 137.43937 
L 347.545114 138.761095 
L 348.03442 139.878957 
L 348.523726 140.642905 
L 348.768379 139.664654 
L 349.013032 140.181133 
L 349.257685 140.020701 
L 349.502338 140.201263 
L 349.746991 139.709441 
L 350.236297 140.424925 
L 350.48095 139.575108 
L 350.725603 139.908878 
L 350.970256 139.844451 
L 351.21491 138.884945 
L 351.459563 140.059461 
L 351.704216 138.779711 
L 351.948869 140.127363 
L 352.438175 139.522246 
L 352.682828 139.616536 
L 352.927481 139.251562 
L 353.416787 139.868171 
L 353.66144 139.253898 
L 353.906093 139.300733 
L 354.150746 138.923344 
L 354.395399 139.146948 
L 354.640052 139.19759 
L 354.884705 138.792818 
L 355.129358 139.323386 
L 355.374011 139.360329 
L 355.863317 138.449388 
L 356.10797 138.379987 
L 356.352623 137.925439 
L 356.597276 139.433335 
L 356.841929 138.100175 
L 357.086582 137.885309 
L 357.331235 137.92479 
L 357.575888 137.239544 
L 357.820541 138.634708 
L 358.065194 137.423581 
L 358.309847 137.386176 
L 358.5545 138.831794 
L 358.799153 138.025828 
L 359.043806 138.083823 
L 359.288459 138.504471 
L 359.533112 138.264702 
L 359.777765 137.860118 
L 360.022418 138.132691 
L 360.267071 137.779109 
L 360.511724 137.751813 
L 360.756377 138.098747 
L 361.00103 137.904833 
L 361.245683 138.275964 
L 361.490336 137.778662 
L 361.734989 136.992825 
L 361.979642 138.634434 
L 362.224295 137.240625 
L 362.468948 136.686972 
L 362.713601 138.349835 
L 362.958254 137.99634 
L 363.202907 138.429662 
L 363.44756 138.118142 
L 363.692213 138.154854 
L 364.181519 138.792357 
L 364.426172 137.647646 
L 364.670825 137.074483 
L 364.915478 137.84081 
L 365.160131 139.156854 
L 365.404784 139.037244 
L 365.649437 139.1171 
L 365.89409 138.9463 
L 366.138743 140.812003 
L 366.383396 139.681467 
L 366.628049 139.711301 
L 366.872702 139.326039 
L 367.117355 140.669898 
L 367.362008 140.499863 
L 367.606661 139.778352 
L 368.095967 140.53036 
L 368.34062 139.923802 
L 368.585273 139.999 
L 368.829926 139.455123 
L 369.074579 140.306987 
L 369.319232 139.366746 
L 369.563885 139.614776 
L 369.808538 138.989069 
L 370.053191 139.290322 
L 370.297844 138.744628 
L 370.542497 138.65912 
L 371.031803 137.737192 
L 371.276456 138.039743 
L 371.521109 137.54433 
L 372.010415 136.967461 
L 372.499721 136.371962 
L 372.989027 135.262983 
L 373.23368 133.005688 
L 373.478333 132.3405 
L 373.722987 136.265676 
L 373.96764 132.447695 
L 374.212293 133.257655 
L 374.456946 135.168896 
L 374.701599 135.371159 
L 374.946252 134.07311 
L 375.190905 134.984873 
L 375.435558 135.455873 
L 375.680211 135.066401 
L 375.924864 133.49405 
L 376.169517 135.500243 
L 376.41417 135.948994 
L 376.658823 134.810613 
L 376.903476 135.252241 
L 377.148129 134.270139 
L 377.392782 135.642895 
L 377.637435 135.539435 
L 377.882088 135.974141 
L 378.126741 134.950627 
L 378.371394 135.880155 
L 378.616047 135.254058 
L 378.8607 135.354749 
L 379.105353 136.013838 
L 379.594659 136.119187 
L 380.083965 134.193066 
L 380.328618 137.264072 
L 380.573271 135.24891 
L 380.817924 136.268372 
L 381.30723 135.446962 
L 381.551883 135.480906 
L 381.796536 134.897015 
L 382.041189 135.528995 
L 382.285842 135.566659 
L 382.775148 135.148579 
L 383.019801 135.834805 
L 383.264454 135.093337 
L 383.509107 133.677366 
L 383.75376 136.035583 
L 383.998413 135.450466 
L 384.243066 134.559929 
L 384.487719 136.926899 
L 384.732372 134.942696 
L 384.977025 135.277763 
L 385.221678 135.342522 
L 385.466331 135.181311 
L 385.710984 134.788176 
L 385.955637 134.773324 
L 386.20029 134.977245 
L 386.444943 133.898965 
L 386.689596 133.80433 
L 386.934249 134.625495 
L 387.178902 133.633746 
L 387.423555 133.706291 
L 387.668208 133.078175 
L 388.157514 134.316065 
L 388.402167 134.37879 
L 388.64682 134.115288 
L 388.891473 134.327673 
L 389.136126 131.96823 
L 389.380779 134.226909 
L 389.625432 138.333123 
L 389.870085 138.952227 
L 389.870085 138.952227 
" style="fill:none;stroke:#1f77b4;stroke-linecap:square;stroke-width:1.5;"/>
   </g>
   <g id="line2d_28">
    <path clip-path="url(#p8e0d1af832)" d="M 65.21554 149.312136 
L 65.460193 141.664703 
L 65.704846 125.390594 
L 65.949499 143.716453 
L 66.194152 124.970918 
L 66.438805 118.955559 
L 66.683458 131.639106 
L 66.928111 133.644225 
L 67.172764 139.612953 
L 67.417417 137.514572 
L 67.66207 139.333169 
L 68.151376 139.752845 
L 68.396029 121.473616 
L 69.129988 173.093786 
L 69.374641 140.871982 
L 69.619294 174.026399 
L 69.863947 135.136407 
L 70.1086 132.571719 
L 70.353253 120.727525 
L 70.597906 173.140416 
L 70.842559 143.156885 
L 71.087212 140.73209 
L 71.331865 123.75852 
L 71.576518 150.058227 
L 71.821171 134.343686 
L 72.065824 152.762807 
L 72.310477 140.07926 
L 72.55513 135.043146 
L 72.799783 150.757687 
L 73.289089 111.074973 
L 73.533742 148.845829 
L 73.778395 144.229391 
L 74.023048 128.048543 
L 74.267701 151.457147 
L 74.757007 128.421588 
L 75.00166 141.151766 
L 75.246313 139.612953 
L 75.490966 126.882776 
L 75.735619 127.349083 
L 75.980272 157.285983 
L 76.224925 140.07926 
L 76.469578 139.333169 
L 76.714231 132.804873 
L 76.958884 133.411072 
L 77.203537 137.654464 
L 77.44819 174.446076 
L 77.692843 130.426708 
L 77.937496 133.830748 
L 78.182149 127.908651 
L 78.426802 125.950162 
L 78.671455 139.985999 
L 78.916108 131.359322 
L 79.160761 145.861465 
L 79.405414 141.804595 
L 79.650067 131.872259 
L 79.89472 132.105413 
L 80.139373 142.737209 
L 80.384026 137.980879 
L 80.628679 138.866862 
L 80.873332 171.228558 
L 81.117985 138.214032 
L 81.362638 145.581681 
L 81.607292 144.089499 
L 81.851945 128.095174 
L 82.096598 144.742329 
L 82.585904 137.934248 
L 82.830557 134.017271 
L 83.07521 166.052552 
L 83.319863 161.529376 
L 83.564516 136.861743 
L 83.809169 143.436669 
L 84.053822 139.286538 
L 84.298475 130.473339 
L 84.543128 141.851226 
L 84.787781 124.178196 
L 85.032434 141.664703 
L 85.277087 142.410794 
L 85.766393 123.198952 
L 86.011046 150.617795 
L 86.255699 139.985999 
L 86.500352 164.467109 
L 86.989658 133.877379 
L 87.234311 136.488697 
L 87.478964 126.929406 
L 87.723617 127.115929 
L 87.96827 128.794634 
L 88.212923 141.991118 
L 88.457576 128.048543 
L 88.702229 143.390039 
L 88.946882 127.395713 
L 89.191535 128.608111 
L 89.436188 141.524811 
L 89.680841 143.390039 
L 89.925494 147.073863 
L 90.170147 116.250979 
L 90.4148 147.493539 
L 90.904106 132.058782 
L 91.148759 120.214588 
L 91.393412 134.063901 
L 91.638065 139.612953 
L 91.882718 149.078982 
L 92.127371 143.669823 
L 92.616677 109.069854 
L 93.105983 139.612953 
L 93.595289 146.141249 
L 93.839942 145.068743 
L 94.084595 131.499214 
L 94.329248 142.410794 
L 95.063207 137.654464 
L 95.30786 122.312968 
L 95.552513 147.120494 
L 95.797166 140.265783 
L 96.041819 141.245027 
L 96.286472 136.628589 
L 96.531125 144.649067 
L 96.775778 188.575174 
L 97.020431 128.748003 
L 97.265084 147.866585 
L 97.509737 135.32293 
L 97.75439 140.359044 
L 97.999043 141.991118 
L 98.243696 136.302174 
L 98.488349 141.478181 
L 98.733002 142.084379 
L 99.222308 155.467386 
L 99.466961 136.581958 
L 99.711614 136.162282 
L 99.956267 143.529931 
L 100.20092 130.053662 
L 100.445573 139.846106 
L 100.690226 131.499214 
L 100.934879 129.680617 
L 101.179532 148.799198 
L 101.424185 132.898134 
L 101.668838 144.788959 
L 101.913491 135.789237 
L 102.158144 143.669823 
L 102.402797 137.094896 
L 102.64745 145.908096 
L 102.892103 138.540447 
L 103.136756 144.229391 
L 103.381409 143.902976 
L 103.626062 137.654464 
L 103.870715 142.410794 
L 104.115369 129.400833 
L 104.360022 138.913493 
L 104.604675 135.416191 
L 104.849328 143.4833 
L 105.338634 128.468219 
L 105.583287 140.07926 
L 105.82794 141.105135 
L 106.072593 133.084657 
L 106.317246 148.146369 
L 106.561899 141.804595 
L 106.806552 145.395158 
L 107.051205 135.835867 
L 107.295858 134.343686 
L 107.540511 113.826184 
L 107.785164 144.18276 
L 108.029817 129.400833 
L 108.27447 147.633431 
L 108.519123 130.053662 
L 108.763776 145.908096 
L 109.008429 148.053107 
L 109.253082 138.260663 
L 109.497735 141.664703 
L 109.742388 127.86202 
L 109.987041 136.955004 
L 110.231694 118.256099 
L 110.476347 172.207803 
L 110.721 135.882498 
L 110.965653 136.395436 
L 111.210306 142.690578 
L 111.454959 137.421311 
L 111.699612 140.359044 
L 111.944265 123.432105 
L 112.188918 130.380077 
L 112.433571 121.240463 
L 112.678224 131.825628 
L 112.922877 132.478458 
L 113.16753 148.845829 
L 113.412183 139.473061 
L 113.656836 134.763362 
L 113.901489 142.084379 
L 114.390795 111.168234 
L 114.635448 144.882221 
L 114.880101 156.213477 
L 115.369407 126.136685 
L 115.858713 141.478181 
L 116.103366 132.385197 
L 116.348019 143.343408 
L 116.592672 139.42643 
L 116.837325 139.42643 
L 117.081978 143.250147 
L 117.326631 119.70165 
L 117.571284 120.447741 
L 118.06059 154.674665 
L 118.305243 147.027232 
L 118.549896 128.048543 
L 118.794549 145.814834 
L 119.039202 143.856346 
L 119.283855 140.219152 
L 119.528508 146.234511 
L 119.773161 144.229391 
L 120.017814 137.234788 
L 120.262467 154.488142 
L 120.50712 132.478458 
L 120.751773 125.81027 
L 120.996426 135.882498 
L 121.241079 136.162282 
L 121.485732 147.866585 
L 121.730385 148.286261 
L 121.975038 143.156885 
L 122.219691 127.349083 
L 122.464344 142.83047 
L 122.708997 127.86202 
L 122.95365 134.62347 
L 123.198303 121.05394 
L 123.442956 139.146646 
L 123.687609 115.971195 
L 123.932262 118.955559 
L 124.176915 124.831026 
L 124.421568 125.623747 
L 124.666221 138.633709 
L 124.910874 143.063624 
L 125.155527 138.866862 
L 125.40018 121.613508 
L 125.644833 79.879044 
L 125.889486 130.100293 
L 126.134139 129.820509 
L 126.378792 127.069298 
L 126.623446 135.183038 
L 127.112752 115.831303 
L 127.357405 165.166569 
L 127.602058 134.949884 
L 127.846711 134.483578 
L 128.091364 136.162282 
L 128.336017 126.649622 
L 128.58067 144.882221 
L 128.825323 115.691411 
L 129.069976 152.156608 
L 129.314629 154.814557 
L 129.559282 139.3798 
L 129.803935 136.348805 
L 130.048588 138.307294 
L 130.293241 133.27118 
L 130.537894 121.520247 
L 130.782547 142.270902 
L 131.0272 136.302174 
L 131.271853 156.260108 
L 131.516506 120.074696 
L 131.761159 134.436947 
L 132.005812 157.798921 
L 132.250465 135.089777 
L 132.495118 145.908096 
L 132.739771 145.068743 
L 132.984424 125.577117 
L 133.229077 133.830748 
L 133.718383 106.78495 
L 133.963036 151.177363 
L 134.207689 146.747448 
L 134.696995 132.385197 
L 134.941648 129.260941 
L 135.186301 128.748003 
L 135.430954 144.83559 
L 135.675607 124.038304 
L 135.92026 134.017271 
L 136.164913 135.509453 
L 136.409566 121.287093 
L 136.654219 140.125891 
L 137.143525 121.939923 
L 137.388178 132.012151 
L 137.632831 151.410517 
L 137.877484 129.121049 
L 138.122137 144.882221 
L 138.36679 179.062514 
L 138.856096 107.204626 
L 139.345402 147.120494 
L 139.590055 144.882221 
L 139.834708 144.13613 
L 140.079361 121.147201 
L 140.324014 81.744271 
L 140.568667 159.990563 
L 140.81332 150.384642 
L 141.057973 154.394881 
L 141.302626 108.8367 
L 141.547279 147.307016 
L 141.791932 162.50862 
L 142.036585 113.406507 
L 142.281238 112.334002 
L 142.525891 157.332614 
L 142.770544 141.524811 
L 143.015197 156.912938 
L 143.25985 150.011596 
L 143.504503 153.788682 
L 143.749156 150.850948 
L 143.993809 120.634264 
L 144.238462 135.695975 
L 144.483115 143.529931 
L 144.972421 110.049098 
L 145.461727 135.556083 
L 145.70638 136.908373 
L 145.951033 158.40512 
L 146.195686 139.752845 
L 146.440339 139.519692 
L 146.684992 144.742329 
L 146.929645 108.370393 
L 147.174298 138.260663 
L 147.418951 121.380355 
L 147.663604 128.328327 
L 147.908257 145.581681 
L 148.15291 132.431827 
L 148.397563 142.270902 
L 148.886869 123.198952 
L 149.131523 100.629699 
L 149.376176 169.270069 
L 149.620829 146.18788 
L 149.865482 139.286538 
L 150.110135 148.472783 
L 150.354788 141.245027 
L 150.599441 123.338844 
L 150.844094 143.203516 
L 151.088747 124.224827 
L 151.578053 155.420756 
L 151.822706 144.13613 
L 152.067359 107.810825 
L 152.312012 137.048265 
L 152.556665 119.934803 
L 152.801318 128.235066 
L 153.045971 160.037194 
L 153.290624 131.778998 
L 153.77993 124.224827 
L 154.024583 167.311581 
L 154.269236 118.769036 
L 154.513889 178.456315 
L 154.758542 129.354202 
L 155.003195 149.125613 
L 155.247848 126.416469 
L 155.492501 151.410517 
L 155.737154 126.136685 
L 155.981807 130.007032 
L 156.22646 188.668435 
L 156.471113 148.379522 
L 156.715766 150.617795 
L 156.960419 112.147479 
L 157.205072 166.705382 
L 157.449725 125.437224 
L 157.694378 158.171966 
L 157.939031 165.959291 
L 158.183684 113.359877 
L 158.428337 155.420756 
L 158.67299 124.318088 
L 158.917643 109.676053 
L 159.162296 123.618628 
L 159.651602 134.530208 
L 159.896255 124.131565 
L 160.140908 150.011596 
L 160.385561 108.650177 
L 160.630214 139.006754 
L 160.874867 136.628589 
L 161.11952 143.856346 
L 161.364173 138.680339 
L 161.608826 149.172244 
L 162.098132 110.002467 
L 162.342785 175.332059 
L 162.832091 125.623747 
L 163.076744 128.048543 
L 163.321397 91.117039 
L 163.56605 150.198119 
L 163.810703 149.638551 
L 164.055356 166.332336 
L 164.300009 134.903254 
L 164.544662 175.798366 
L 164.789315 163.721018 
L 165.033968 133.084657 
L 165.278621 126.742884 
L 165.523274 154.441511 
L 165.767927 152.529653 
L 166.01258 134.203793 
L 166.257233 142.410794 
L 166.501886 144.276022 
L 166.746539 156.4 
L 166.991192 143.296777 
L 167.235845 139.659584 
L 167.480498 130.5666 
L 167.725151 105.852336 
L 168.45911 175.844996 
L 168.703763 165.306461 
L 168.948416 103.334279 
L 169.193069 106.738319 
L 169.437722 169.363331 
L 169.927028 119.375235 
L 170.171681 130.053662 
L 170.416334 129.86714 
L 170.660987 144.742329 
L 170.90564 117.976315 
L 171.150293 124.551241 
L 171.394947 155.187602 
L 171.884253 123.292213 
L 172.128906 193.937702 
L 172.373559 118.395991 
L 172.618212 144.13613 
L 172.862865 115.504888 
L 173.107518 132.385197 
L 173.596824 146.933971 
L 173.841477 168.663871 
L 174.330783 126.556361 
L 174.575436 105.292768 
L 174.820089 155.653909 
L 175.064742 138.493817 
L 175.309395 141.011874 
L 175.554048 140.965243 
L 175.798701 124.644503 
L 176.043354 134.483578 
L 176.288007 112.19411 
L 176.53266 140.125891 
L 176.777313 118.955559 
L 177.021966 130.193554 
L 177.266619 152.762807 
L 177.511272 131.872259 
L 177.755925 145.954726 
L 178.000578 131.359322 
L 178.245231 154.767926 
L 178.97919 110.468774 
L 179.223843 141.571442 
L 179.468496 116.857178 
L 179.713149 136.348805 
L 179.957802 140.545567 
L 180.202455 128.421588 
L 180.447108 143.529931 
L 180.691761 131.825628 
L 180.936414 145.255266 
L 181.181067 148.752568 
L 181.670373 123.898412 
L 181.915026 121.05394 
L 182.159679 122.825906 
L 182.404332 141.571442 
L 182.648985 132.245305 
L 182.893638 129.447463 
L 183.138291 117.230224 
L 183.382944 144.229391 
L 183.627597 132.291935 
L 184.116903 164.653632 
L 184.361556 125.763639 
L 184.606209 145.628312 
L 184.850862 125.11081 
L 185.095515 126.789514 
L 185.340168 131.778998 
L 185.829474 149.778443 
L 186.074127 118.209468 
L 186.31878 107.531041 
L 186.563433 134.763362 
L 186.808086 130.193554 
L 187.052739 118.722406 
L 187.297392 34.414125 
L 187.542045 141.338288 
L 187.786698 165.119938 
L 188.031351 142.13101 
L 188.276004 152.436392 
L 188.520657 155.187602 
L 188.76531 107.670933 
L 189.009963 153.602159 
L 189.254616 140.07926 
L 189.499269 145.674942 
L 189.743922 130.706492 
L 189.988575 124.597872 
L 190.233228 146.560925 
L 190.477881 126.742884 
L 190.967187 141.478181 
L 191.21184 136.255544 
L 191.456493 142.877101 
L 191.701146 134.297055 
L 191.945799 148.23963 
L 192.190452 150.431272 
L 192.435105 125.903531 
L 192.679758 141.43155 
L 192.924411 140.965243 
L 193.169064 145.768204 
L 193.413717 134.763362 
L 193.65837 90.137795 
L 194.147677 153.229113 
L 194.39233 126.416469 
L 194.881636 157.798921 
L 195.126289 140.638828 
L 195.370942 141.151766 
L 195.615595 147.680062 
L 195.860248 171.788127 
L 196.104901 115.504888 
L 196.349554 121.70677 
L 196.594207 94.381187 
L 196.83886 154.488142 
L 197.083513 185.031241 
L 197.572819 104.593308 
L 197.817472 158.684904 
L 198.062125 131.21943 
L 198.306778 131.312691 
L 198.796084 166.985166 
L 199.040737 125.15744 
L 199.530043 134.576839 
L 199.774696 145.395158 
L 200.019349 129.167679 
L 200.508655 183.072753 
L 200.753308 155.187602 
L 200.997961 140.918612 
L 201.242614 107.018103 
L 201.487267 112.473894 
L 201.73192 135.695975 
L 201.976573 115.271735 
L 202.221226 111.354757 
L 202.465879 152.483022 
L 202.710532 148.472783 
L 202.955185 112.334002 
L 203.199838 150.338011 
L 203.444491 95.92 
L 203.689144 158.638273 
L 203.933797 79.972305 
L 204.17845 129.86714 
L 204.423103 148.472783 
L 204.667756 112.800309 
L 204.912409 157.938813 
L 205.157062 141.804595 
L 205.401715 139.752845 
L 205.646368 86.593863 
L 205.891021 125.204071 
L 206.135674 140.498936 
L 206.380327 164.793524 
L 206.62498 111.914325 
L 206.869633 163.954171 
L 207.114286 144.602436 
L 207.358939 148.93909 
L 207.603592 147.54017 
L 207.848245 105.852336 
L 208.092898 144.555806 
L 208.582204 130.193554 
L 208.826857 142.364164 
L 209.07151 177.710224 
L 209.316163 146.794079 
L 209.560816 154.161727 
L 210.050122 129.167679 
L 210.294775 161.622637 
L 210.539428 127.675497 
L 210.784081 160.363608 
L 211.028734 118.908928 
L 211.51804 154.441511 
L 211.762693 165.353092 
L 212.007346 119.934803 
L 212.251999 100.629699 
L 212.496652 127.115929 
L 212.985958 144.788959 
L 213.230611 148.23963 
L 213.475264 119.888173 
L 213.719917 159.850671 
L 213.96457 139.006754 
L 214.209223 147.5868 
L 214.453876 160.876546 
L 214.698529 153.462267 
L 215.187835 118.629144 
L 215.432488 115.411627 
L 215.677141 148.845829 
L 215.921794 166.099183 
L 216.166447 144.089499 
L 216.411101 151.037471 
L 216.655754 142.037749 
L 216.900407 118.395991 
L 217.14506 137.281419 
L 217.389713 101.142637 
L 217.634366 130.613231 
L 217.879019 122.033184 
L 218.123672 156.073585 
L 218.368325 147.073863 
L 218.612978 171.741496 
L 218.857631 137.701095 
L 219.102284 149.59192 
L 219.346937 139.612953 
L 219.59159 140.07926 
L 219.836243 137.701095 
L 220.080896 140.125891 
L 220.325549 161.482745 
L 220.570202 122.919167 
L 220.814855 117.510008 
L 221.059508 160.316978 
L 221.304161 183.072753 
L 221.548814 104.919723 
L 221.793467 153.555528 
L 222.527426 126.929406 
L 222.772079 152.99596 
L 223.016732 130.473339 
L 223.261385 159.197841 
L 223.506038 127.115929 
L 223.750691 148.006477 
L 223.995344 132.058782 
L 224.239997 132.012151 
L 224.48465 131.778998 
L 224.729303 107.577672 
L 224.973956 142.364164 
L 225.218609 145.954726 
L 225.463262 143.809715 
L 225.707915 166.099183 
L 225.952568 142.690578 
L 226.197221 133.177918 
L 226.441874 134.063901 
L 226.686527 147.5868 
L 226.93118 102.215143 
L 227.420486 146.840709 
L 227.665139 119.00219 
L 227.909792 152.902699 
L 228.154445 165.399723 
L 228.888404 123.10569 
L 229.133057 148.053107 
L 229.37771 125.623747 
L 229.622363 150.011596 
L 229.867016 160.969807 
L 230.111669 136.815112 
L 230.356322 96.246415 
L 230.600975 111.821064 
L 230.845628 155.234233 
L 231.090281 135.229669 
L 231.579587 152.716176 
L 231.82424 156.120216 
L 232.313546 119.468497 
L 232.558199 133.504333 
L 232.802852 135.602714 
L 233.047505 143.156885 
L 233.292158 116.530763 
L 233.536811 121.473616 
L 233.781464 143.996238 
L 234.026117 138.960123 
L 234.27077 225.366785 
L 234.515423 127.86202 
L 234.760076 132.338566 
L 235.004729 179.855235 
L 235.249382 159.943932 
L 235.494035 121.380355 
L 235.983341 150.664426 
L 236.227994 142.13101 
L 236.472647 141.757965 
L 236.961953 125.437224 
L 237.206606 145.814834 
L 237.451259 129.587356 
L 237.695912 127.022668 
L 237.940565 116.530763 
L 238.185218 120.960679 
L 238.429871 154.907818 
L 238.674524 132.198674 
L 239.163831 151.457147 
L 239.408484 118.675775 
L 239.653137 129.680617 
L 239.89779 135.649345 
L 240.142443 136.02239 
L 240.387096 130.753123 
L 240.631749 150.850948 
L 241.121055 128.421588 
L 241.365708 128.095174 
L 241.610361 134.203793 
L 241.855014 146.794079 
L 242.099667 141.478181 
L 242.34432 117.043701 
L 242.588973 132.525089 
L 243.078279 143.809715 
L 243.322932 127.16256 
L 243.567585 145.814834 
L 244.056891 157.612398 
L 244.79085 139.799476 
L 245.035503 145.908096 
L 245.280156 175.378689 
L 245.524809 145.022113 
L 245.769462 151.876824 
L 246.014115 124.131565 
L 246.258768 137.234788 
L 246.503421 112.334002 
L 246.748074 147.353647 
L 246.992727 159.990563 
L 247.482033 99.184148 
L 247.726686 132.61835 
L 247.971339 125.064179 
L 248.215992 122.499491 
L 248.460645 129.260941 
L 248.705298 144.509175 
L 248.949951 178.036638 
L 249.194604 276.334125 
L 249.439257 128.841265 
L 249.68391 117.276854 
L 249.928563 146.514295 
L 250.173216 154.488142 
L 250.417869 132.571719 
L 250.662522 126.789514 
L 250.907175 130.053662 
L 251.151828 130.519969 
L 251.396481 134.483578 
L 251.641134 179.622082 
L 251.885787 171.275189 
L 252.13044 137.747726 
L 252.375093 122.452861 
L 252.619746 123.198952 
L 252.864399 144.229391 
L 253.353705 163.674387 
L 253.598358 159.011319 
L 253.843011 193.238242 
L 254.57697 93.028898 
L 254.821623 137.747726 
L 255.066276 160.829915 
L 255.310929 155.234233 
L 255.555582 116.717286 
L 256.044888 152.436392 
L 256.289541 127.908651 
L 256.534194 129.074418 
L 256.778847 153.742051 
L 257.0235 150.757687 
L 257.268153 150.94421 
L 257.512806 137.467941 
L 257.757459 96.339676 
L 258.002112 153.415636 
L 258.246765 159.011319 
L 258.491418 146.141249 
L 258.736071 160.083824 
L 258.980724 155.560648 
L 259.225377 137.048265 
L 259.47003 129.91377 
L 259.714683 144.042868 
L 259.959336 121.193832 
L 260.203989 134.6701 
L 260.448642 137.514572 
L 260.693295 86.873647 
L 260.937948 132.898134 
L 261.182601 137.234788 
L 261.427255 161.529376 
L 261.671908 154.441511 
L 261.916561 124.271457 
L 262.161214 138.773601 
L 262.405867 126.742884 
L 262.65052 144.975482 
L 262.895173 113.732922 
L 263.139826 134.530208 
L 263.384479 120.914048 
L 263.629132 144.928851 
L 263.873785 154.767926 
L 264.118438 120.028065 
L 264.363091 118.955559 
L 264.607744 97.785228 
L 264.852397 102.541558 
L 265.09705 144.229391 
L 265.341703 154.628034 
L 265.586356 51.900632 
L 266.075662 150.617795 
L 266.320315 112.800309 
L 266.564968 133.457702 
L 266.809621 131.592475 
L 267.054274 167.404842 
L 267.298927 124.178196 
L 267.54358 126.416469 
L 268.032886 157.612398 
L 268.277539 115.831303 
L 268.522192 146.88734 
L 268.766845 101.235898 
L 269.256151 143.250147 
L 269.500804 134.483578 
L 269.745457 148.006477 
L 269.99011 154.534773 
L 270.479416 80.29872 
L 270.724069 156.073585 
L 270.968722 150.897579 
L 271.213375 156.166847 
L 271.458028 134.250424 
L 271.702681 136.955004 
L 271.947334 154.488142 
L 272.191987 159.337733 
L 272.43664 140.172521 
L 272.681293 167.591365 
L 273.170599 113.639661 
L 273.415252 137.094896 
L 273.904558 161.482745 
L 274.149211 112.334002 
L 274.393864 139.985999 
L 274.638517 140.405675 
L 274.88317 150.198119 
L 275.127823 143.343408 
L 275.372476 129.307571 
L 275.617129 149.964965 
L 275.861782 152.483022 
L 276.106435 161.436114 
L 276.351088 122.499491 
L 276.595741 146.281141 
L 276.840394 190.487032 
L 277.085047 152.203238 
L 277.3297 142.597317 
L 277.574353 126.229946 
L 277.819006 170.109422 
L 278.063659 109.209746 
L 278.308312 176.824241 
L 278.552965 128.235066 
L 278.797618 142.923732 
L 279.042271 116.763917 
L 279.286924 130.5666 
L 279.531577 155.00108 
L 279.77623 140.219152 
L 280.020883 179.155775 
L 280.510189 108.556916 
L 280.754842 148.192999 
L 280.999495 167.358211 
L 281.244148 146.18788 
L 281.488801 140.359044 
L 281.733454 171.881388 
L 281.978107 139.42643 
L 282.22276 158.45175 
L 282.467413 123.618628 
L 282.712066 150.058227 
L 282.956719 84.35559 
L 283.201372 115.738042 
L 283.446025 110.049098 
L 283.690678 151.270625 
L 283.935332 120.494372 
L 284.179985 118.489252 
L 284.424638 173.746615 
L 284.669291 130.007032 
L 284.913944 159.197841 
L 285.158597 65.423531 
L 285.40325 136.721851 
L 285.647903 141.198396 
L 285.892556 106.458535 
L 286.137209 153.275744 
L 286.381862 136.395436 
L 286.626515 132.245305 
L 287.115821 158.545012 
L 287.360474 120.867417 
L 287.605127 140.032629 
L 287.84978 105.898967 
L 288.094433 142.550686 
L 288.339086 146.467664 
L 288.583739 124.877656 
L 288.828392 136.255544 
L 289.073045 117.183593 
L 289.317698 141.804595 
L 289.562351 132.105413 
L 289.807004 159.337733 
L 290.051657 133.31781 
L 290.29631 136.628589 
L 290.540963 116.29761 
L 290.785616 137.840987 
L 291.030269 133.457702 
L 291.274922 140.638828 
L 291.519575 144.415914 
L 291.764228 162.182205 
L 292.008881 123.991673 
L 292.253534 158.078705 
L 292.498187 131.312691 
L 292.74284 132.991396 
L 292.987493 127.209191 
L 293.232146 107.391149 
L 293.721452 149.731812 
L 294.210758 130.706492 
L 294.455411 142.037749 
L 294.700064 142.410794 
L 295.18937 150.757687 
L 295.434023 137.094896 
L 295.678676 139.473061 
L 295.923329 147.073863 
L 296.167982 99.463932 
L 296.412635 209.838766 
L 296.901941 124.45798 
L 297.146594 147.680062 
L 297.391247 144.042868 
L 297.6359 158.824796 
L 297.880553 153.369005 
L 298.125206 152.809437 
L 298.369859 146.327772 
L 298.614512 145.208635 
L 298.859165 99.790347 
L 299.348471 145.48842 
L 299.593124 142.457425 
L 299.837777 130.893015 
L 300.08243 139.3798 
L 300.327083 109.442899 
L 300.571736 134.343686 
L 300.816389 133.597595 
L 301.061042 103.847217 
L 301.305695 168.244194 
L 301.550348 147.446908 
L 301.795001 142.224271 
L 302.039654 146.933971 
L 302.284307 133.97064 
L 302.52896 155.607278 
L 302.773613 148.099738 
L 303.018266 136.768481 
L 303.262919 160.037194 
L 303.507572 141.478181 
L 303.752225 150.711056 
L 303.996878 137.188157 
L 304.241531 117.136962 
L 304.486184 151.317255 
L 304.730837 120.121326 
L 304.97549 155.467386 
L 305.464796 130.146924 
L 305.709449 160.45687 
L 305.954102 148.332891 
L 306.198756 121.800031 
L 306.443409 119.421866 
L 306.688062 134.62347 
L 306.932715 137.887618 
L 307.177368 153.555528 
L 307.666674 129.400833 
L 307.911327 154.954449 
L 308.15598 104.360154 
L 308.400633 147.633431 
L 308.889939 134.856623 
L 309.134592 147.913215 
L 309.379245 128.51485 
L 309.623898 154.861187 
L 309.868551 140.592197 
L 310.113204 134.576839 
L 310.357857 140.498936 
L 310.60251 141.011874 
L 310.847163 120.447741 
L 311.336469 137.467941 
L 311.581122 166.192444 
L 311.825775 121.147201 
L 312.070428 149.638551 
L 312.315081 131.126168 
L 312.559734 136.581958 
L 312.804387 115.59815 
L 313.04904 142.410794 
L 313.293693 142.317533 
L 313.538346 137.654464 
L 313.782999 128.328327 
L 314.027652 136.861743 
L 314.272305 114.898689 
L 314.516958 136.442066 
L 314.761611 140.73209 
L 315.006264 125.623747 
L 315.250917 128.141804 
L 315.49557 155.234233 
L 315.740223 139.752845 
L 315.984876 147.400278 
L 316.229529 131.732367 
L 316.718835 137.234788 
L 316.963488 129.680617 
L 317.208141 158.498381 
L 317.452794 112.520524 
L 317.697447 132.338566 
L 317.9421 85.474726 
L 318.186753 137.654464 
L 318.431406 145.768204 
L 318.676059 163.254711 
L 318.920712 128.608111 
L 319.165365 148.472783 
L 319.410018 136.768481 
L 319.654671 117.929684 
L 319.899324 145.022113 
L 320.143977 139.333169 
L 320.38863 130.473339 
L 320.633283 93.028898 
L 320.877936 140.77872 
L 321.122589 155.467386 
L 321.367242 151.410517 
L 321.611895 128.887895 
L 321.856548 152.483022 
L 322.101201 163.767649 
L 322.345854 138.820231 
L 322.590507 131.21943 
L 323.079813 137.934248 
L 323.324466 150.151488 
L 323.569119 146.094618 
L 323.813772 130.193554 
L 324.058425 158.824796 
L 324.303078 145.674942 
L 324.547731 141.804595 
L 324.792384 133.877379 
L 325.037037 139.752845 
L 325.28169 135.742606 
L 325.526343 135.509453 
L 325.770996 142.877101 
L 326.260302 118.955559 
L 326.504955 157.565767 
L 326.749608 156.073585 
L 326.994261 127.442344 
L 327.238914 117.136962 
L 327.483567 150.804318 
L 327.72822 153.788682 
L 327.972873 160.037194 
L 328.217526 139.053385 
L 328.462179 142.13101 
L 328.706833 120.074696 
L 328.951486 141.058504 
L 329.196139 148.612676 
L 329.440792 162.275467 
L 329.685445 140.498936 
L 329.930098 143.763084 
L 330.174751 125.437224 
L 330.419404 127.349083 
L 330.664057 140.545567 
L 330.90871 146.607556 
L 331.153363 131.965521 
L 331.398016 143.763084 
L 331.642669 141.991118 
L 332.131975 126.136685 
L 332.376628 127.908651 
L 332.621281 148.472783 
L 332.865934 156.120216 
L 333.110587 144.649067 
L 333.35524 125.717009 
L 333.599893 134.110532 
L 333.844546 118.675775 
L 334.089199 145.441789 
L 334.333852 123.75852 
L 334.578505 148.985721 
L 334.823158 124.178196 
L 335.067811 145.674942 
L 335.312464 156.959568 
L 335.557117 142.037749 
L 335.80177 143.856346 
L 336.046423 130.659861 
L 336.291076 144.415914 
L 336.535729 142.877101 
L 336.780382 134.6701 
L 337.025035 132.711612 
L 337.269688 134.483578 
L 337.514341 133.597595 
L 337.758994 147.819954 
L 338.003647 119.934803 
L 338.2483 121.007309 
L 338.492953 112.380632 
L 338.737606 143.156885 
L 339.226912 123.385474 
L 339.471565 142.690578 
L 339.716218 146.234511 
L 339.960871 143.156885 
L 340.205524 135.835867 
L 340.450177 140.032629 
L 340.69483 140.172521 
L 340.939483 150.431272 
L 341.184136 126.276577 
L 341.428789 137.701095 
L 341.673442 135.462822 
L 341.918095 145.814834 
L 342.162748 142.037749 
L 342.407401 135.183038 
L 342.652054 136.442066 
L 342.896707 143.902976 
L 343.14136 140.032629 
L 343.386013 129.820509 
L 343.630666 125.763639 
L 343.875319 136.395436 
L 344.119972 122.546122 
L 344.364625 138.07414 
L 344.609278 126.4631 
L 345.098584 145.255266 
L 345.343237 134.297055 
L 345.58789 131.732367 
L 345.832543 137.001635 
L 346.077196 135.97576 
L 346.321849 136.255544 
L 346.566502 144.462544 
L 346.811155 182.2334 
L 347.055808 148.332891 
L 347.300461 132.664981 
L 347.545114 132.478458 
L 347.789767 142.037749 
L 348.279073 140.359044 
L 348.523726 136.02239 
L 348.768379 137.467941 
L 349.013032 140.638828 
L 349.257685 140.77872 
L 349.502338 135.695975 
L 349.746991 139.985999 
L 349.991644 141.804595 
L 350.236297 116.95044 
L 350.48095 137.840987 
L 350.725603 140.359044 
L 350.970256 160.130455 
L 351.459563 137.840987 
L 351.704216 144.369283 
L 351.948869 134.949884 
L 352.193522 134.063901 
L 352.438175 134.017271 
L 352.682828 130.146924 
L 352.927481 137.328049 
L 353.172134 126.50973 
L 353.66144 148.705937 
L 353.906093 135.929129 
L 354.150746 142.457425 
L 354.395399 129.773878 
L 354.640052 143.716453 
L 354.884705 135.276299 
L 355.129358 142.737209 
L 355.374011 134.809992 
L 355.618664 132.664981 
L 355.863317 122.499491 
L 356.352623 140.685459 
L 356.597276 128.981157 
L 356.841929 105.619183 
L 357.086582 139.566322 
L 357.331235 132.525089 
L 357.575888 173.653354 
L 357.820541 138.866862 
L 358.065194 144.695698 
L 358.309847 143.856346 
L 358.5545 141.291658 
L 358.799153 131.91889 
L 359.043806 140.685459 
L 359.288459 112.380632 
L 359.533112 135.32293 
L 359.777765 123.945043 
L 360.022418 137.001635 
L 360.267071 141.291658 
L 360.511724 117.090332 
L 360.756377 159.477625 
L 361.00103 154.954449 
L 361.245683 108.556916 
L 361.734989 137.561203 
L 361.979642 143.529931 
L 362.224295 131.91889 
L 362.468948 145.348527 
L 362.713601 140.452305 
L 362.958254 155.70054 
L 363.202907 132.664981 
L 363.936866 145.348527 
L 364.181519 129.773878 
L 364.670825 159.897302 
L 364.915478 142.78384 
L 365.160131 142.13101 
L 365.404784 142.690578 
L 365.89409 149.498659 
L 366.138743 123.851781 
L 366.383396 133.784117 
L 366.628049 127.255821 
L 366.872702 141.991118 
L 367.117355 143.623192 
L 367.362008 136.581958 
L 367.606661 151.410517 
L 367.851314 126.882776 
L 368.095967 130.473339 
L 368.34062 141.664703 
L 368.585273 132.898134 
L 368.829926 120.074696 
L 369.074579 147.5868 
L 369.563885 130.939645 
L 369.808538 131.172799 
L 370.053191 127.115929 
L 370.297844 137.328049 
L 370.542497 130.473339 
L 370.78715 139.566322 
L 371.031803 132.105413 
L 371.276456 131.545844 
L 371.521109 136.162282 
L 371.765762 129.400833 
L 372.010415 112.567155 
L 372.255068 145.53505 
L 372.499721 118.862298 
L 372.744374 138.866862 
L 372.989027 49.475837 
L 373.478333 141.571442 
L 373.722987 155.04771 
L 373.96764 112.753678 
L 374.212293 144.322652 
L 374.456946 132.898134 
L 374.701599 127.395713 
L 374.946252 134.110532 
L 375.190905 174.119661 
L 375.435558 133.784117 
L 375.680211 137.141527 
L 375.924864 130.426708 
L 376.169517 134.297055 
L 376.41417 161.80916 
L 376.658823 139.752845 
L 377.148129 121.147201 
L 377.392782 143.296777 
L 377.882088 134.856623 
L 378.126741 164.000802 
L 378.371394 134.809992 
L 378.616047 123.198952 
L 378.8607 118.629144 
L 379.105353 116.670655 
L 379.350006 172.301064 
L 379.594659 130.286816 
L 379.839312 109.116484 
L 380.083965 156.493261 
L 380.328618 118.162837 
L 380.573271 118.955559 
L 380.817924 143.623192 
L 381.062577 133.784117 
L 381.30723 147.959846 
L 381.551883 120.074696 
L 381.796536 143.763084 
L 382.285842 133.597595 
L 382.530495 130.380077 
L 382.775148 166.425598 
L 383.019801 130.146924 
L 383.264454 121.147201 
L 383.509107 131.26606 
L 383.75376 108.183871 
L 383.998413 133.504333 
L 384.243066 145.861465 
L 384.487719 152.203238 
L 384.732372 132.012151 
L 384.977025 126.789514 
L 385.221678 116.95044 
L 385.466331 90.557471 
L 385.710984 147.819954 
L 385.955637 142.690578 
L 386.20029 122.452861 
L 386.444943 90.790625 
L 386.689596 149.731812 
L 386.934249 144.369283 
L 387.178902 158.824796 
L 387.423555 136.302174 
L 387.668208 132.338566 
L 387.912861 148.006477 
L 388.157514 142.550686 
L 388.402167 149.358766 
L 388.64682 237.164349 
L 389.136126 103.007864 
L 389.625432 153.64879 
L 389.870085 140.638828 
L 389.870085 140.638828 
" style="fill:none;stroke:#ff7f0e;stroke-linecap:square;stroke-width:1.5;"/>
   </g>
   <g id="patch_3">
    <path d="M 48.982813 288.430125 
L 48.982813 22.318125 
" style="fill:none;stroke:#000000;stroke-linecap:square;stroke-linejoin:miter;stroke-width:0.8;"/>
   </g>
   <g id="patch_4">
    <path d="M 406.102813 288.430125 
L 406.102813 22.318125 
" style="fill:none;stroke:#000000;stroke-linecap:square;stroke-linejoin:miter;stroke-width:0.8;"/>
   </g>
   <g id="patch_5">
    <path d="M 48.982813 288.430125 
L 406.102813 288.430125 
" style="fill:none;stroke:#000000;stroke-linecap:square;stroke-linejoin:miter;stroke-width:0.8;"/>
   </g>
   <g id="patch_6">
    <path d="M 48.982813 22.318125 
L 406.102813 22.318125 
" style="fill:none;stroke:#000000;stroke-linecap:square;stroke-linejoin:miter;stroke-width:0.8;"/>
   </g>
   <g id="text_16">
    <!-- Training: BIDU -->
    <defs>
     <path d="M -0.296875 72.90625 
L 61.375 72.90625 
L 61.375 64.59375 
L 35.5 64.59375 
L 35.5 0 
L 25.59375 0 
L 25.59375 64.59375 
L -0.296875 64.59375 
z
" id="DejaVuSans-84"/>
     <path d="M 41.109375 46.296875 
Q 39.59375 47.171875 37.8125 47.578125 
Q 36.03125 48 33.890625 48 
Q 26.265625 48 22.1875 43.046875 
Q 18.109375 38.09375 18.109375 28.8125 
L 18.109375 0 
L 9.078125 0 
L 9.078125 54.6875 
L 18.109375 54.6875 
L 18.109375 46.1875 
Q 20.953125 51.171875 25.484375 53.578125 
Q 30.03125 56 36.53125 56 
Q 37.453125 56 38.578125 55.875 
Q 39.703125 55.765625 41.0625 55.515625 
z
" id="DejaVuSans-114"/>
     <path d="M 9.421875 54.6875 
L 18.40625 54.6875 
L 18.40625 0 
L 9.421875 0 
z
M 9.421875 75.984375 
L 18.40625 75.984375 
L 18.40625 64.59375 
L 9.421875 64.59375 
z
" id="DejaVuSans-105"/>
     <path d="M 11.71875 12.40625 
L 22.015625 12.40625 
L 22.015625 0 
L 11.71875 0 
z
M 11.71875 51.703125 
L 22.015625 51.703125 
L 22.015625 39.3125 
L 11.71875 39.3125 
z
" id="DejaVuSans-58"/>
     <path d="M 19.671875 34.8125 
L 19.671875 8.109375 
L 35.5 8.109375 
Q 43.453125 8.109375 47.28125 11.40625 
Q 51.125 14.703125 51.125 21.484375 
Q 51.125 28.328125 47.28125 31.5625 
Q 43.453125 34.8125 35.5 34.8125 
z
M 19.671875 64.796875 
L 19.671875 42.828125 
L 34.28125 42.828125 
Q 41.5 42.828125 45.03125 45.53125 
Q 48.578125 48.25 48.578125 53.8125 
Q 48.578125 59.328125 45.03125 62.0625 
Q 41.5 64.796875 34.28125 64.796875 
z
M 9.8125 72.90625 
L 35.015625 72.90625 
Q 46.296875 72.90625 52.390625 68.21875 
Q 58.5 63.53125 58.5 54.890625 
Q 58.5 48.1875 55.375 44.234375 
Q 52.25 40.28125 46.1875 39.3125 
Q 53.46875 37.75 57.5 32.78125 
Q 61.53125 27.828125 61.53125 20.40625 
Q 61.53125 10.640625 54.890625 5.3125 
Q 48.25 0 35.984375 0 
L 9.8125 0 
z
" id="DejaVuSans-66"/>
     <path d="M 9.8125 72.90625 
L 19.671875 72.90625 
L 19.671875 0 
L 9.8125 0 
z
" id="DejaVuSans-73"/>
     <path d="M 8.6875 72.90625 
L 18.609375 72.90625 
L 18.609375 28.609375 
Q 18.609375 16.890625 22.84375 11.734375 
Q 27.09375 6.59375 36.625 6.59375 
Q 46.09375 6.59375 50.34375 11.734375 
Q 54.59375 16.890625 54.59375 28.609375 
L 54.59375 72.90625 
L 64.5 72.90625 
L 64.5 27.390625 
Q 64.5 13.140625 57.4375 5.859375 
Q 50.390625 -1.421875 36.625 -1.421875 
Q 22.796875 -1.421875 15.734375 5.859375 
Q 8.6875 13.140625 8.6875 27.390625 
z
" id="DejaVuSans-85"/>
    </defs>
    <g transform="translate(185.045938 16.318125)scale(0.12 -0.12)">
     <use xlink:href="#DejaVuSans-84"/>
     <use x="46.333984" xlink:href="#DejaVuSans-114"/>
     <use x="87.447266" xlink:href="#DejaVuSans-97"/>
     <use x="148.726562" xlink:href="#DejaVuSans-105"/>
     <use x="176.509766" xlink:href="#DejaVuSans-110"/>
     <use x="239.888672" xlink:href="#DejaVuSans-105"/>
     <use x="267.671875" xlink:href="#DejaVuSans-110"/>
     <use x="331.050781" xlink:href="#DejaVuSans-103"/>
     <use x="394.527344" xlink:href="#DejaVuSans-58"/>
     <use x="428.21875" xlink:href="#DejaVuSans-32"/>
     <use x="460.005859" xlink:href="#DejaVuSans-66"/>
     <use x="528.609375" xlink:href="#DejaVuSans-73"/>
     <use x="558.101562" xlink:href="#DejaVuSans-68"/>
     <use x="635.103516" xlink:href="#DejaVuSans-85"/>
    </g>
   </g>
   <g id="legend_1">
    <g id="patch_7">
     <path d="M 55.982813 59.674375 
L 139.710938 59.674375 
Q 141.710938 59.674375 141.710938 57.674375 
L 141.710938 29.318125 
Q 141.710938 27.318125 139.710938 27.318125 
L 55.982813 27.318125 
Q 53.982813 27.318125 53.982813 29.318125 
L 53.982813 57.674375 
Q 53.982813 59.674375 55.982813 59.674375 
z
" style="fill:#ffffff;opacity:0.8;stroke:#cccccc;stroke-linejoin:miter;"/>
    </g>
    <g id="line2d_29">
     <path d="M 57.982813 35.416562 
L 77.982813 35.416562 
" style="fill:none;stroke:#1f77b4;stroke-linecap:square;stroke-width:1.5;"/>
    </g>
    <g id="line2d_30"/>
    <g id="text_17">
     <!-- Predicted -->
     <defs>
      <path d="M 19.671875 64.796875 
L 19.671875 37.40625 
L 32.078125 37.40625 
Q 38.96875 37.40625 42.71875 40.96875 
Q 46.484375 44.53125 46.484375 51.125 
Q 46.484375 57.671875 42.71875 61.234375 
Q 38.96875 64.796875 32.078125 64.796875 
z
M 9.8125 72.90625 
L 32.078125 72.90625 
Q 44.34375 72.90625 50.609375 67.359375 
Q 56.890625 61.8125 56.890625 51.125 
Q 56.890625 40.328125 50.609375 34.8125 
Q 44.34375 29.296875 32.078125 29.296875 
L 19.671875 29.296875 
L 19.671875 0 
L 9.8125 0 
z
" id="DejaVuSans-80"/>
      <path d="M 45.40625 46.390625 
L 45.40625 75.984375 
L 54.390625 75.984375 
L 54.390625 0 
L 45.40625 0 
L 45.40625 8.203125 
Q 42.578125 3.328125 38.25 0.953125 
Q 33.9375 -1.421875 27.875 -1.421875 
Q 17.96875 -1.421875 11.734375 6.484375 
Q 5.515625 14.40625 5.515625 27.296875 
Q 5.515625 40.1875 11.734375 48.09375 
Q 17.96875 56 27.875 56 
Q 33.9375 56 38.25 53.625 
Q 42.578125 51.265625 45.40625 46.390625 
z
M 14.796875 27.296875 
Q 14.796875 17.390625 18.875 11.75 
Q 22.953125 6.109375 30.078125 6.109375 
Q 37.203125 6.109375 41.296875 11.75 
Q 45.40625 17.390625 45.40625 27.296875 
Q 45.40625 37.203125 41.296875 42.84375 
Q 37.203125 48.484375 30.078125 48.484375 
Q 22.953125 48.484375 18.875 42.84375 
Q 14.796875 37.203125 14.796875 27.296875 
z
" id="DejaVuSans-100"/>
      <path d="M 48.78125 52.59375 
L 48.78125 44.1875 
Q 44.96875 46.296875 41.140625 47.34375 
Q 37.3125 48.390625 33.40625 48.390625 
Q 24.65625 48.390625 19.8125 42.84375 
Q 14.984375 37.3125 14.984375 27.296875 
Q 14.984375 17.28125 19.8125 11.734375 
Q 24.65625 6.203125 33.40625 6.203125 
Q 37.3125 6.203125 41.140625 7.25 
Q 44.96875 8.296875 48.78125 10.40625 
L 48.78125 2.09375 
Q 45.015625 0.34375 40.984375 -0.53125 
Q 36.96875 -1.421875 32.421875 -1.421875 
Q 20.0625 -1.421875 12.78125 6.34375 
Q 5.515625 14.109375 5.515625 27.296875 
Q 5.515625 40.671875 12.859375 48.328125 
Q 20.21875 56 33.015625 56 
Q 37.15625 56 41.109375 55.140625 
Q 45.0625 54.296875 48.78125 52.59375 
z
" id="DejaVuSans-99"/>
      <path d="M 18.3125 70.21875 
L 18.3125 54.6875 
L 36.8125 54.6875 
L 36.8125 47.703125 
L 18.3125 47.703125 
L 18.3125 18.015625 
Q 18.3125 11.328125 20.140625 9.421875 
Q 21.96875 7.515625 27.59375 7.515625 
L 36.8125 7.515625 
L 36.8125 0 
L 27.59375 0 
Q 17.1875 0 13.234375 3.875 
Q 9.28125 7.765625 9.28125 18.015625 
L 9.28125 47.703125 
L 2.6875 47.703125 
L 2.6875 54.6875 
L 9.28125 54.6875 
L 9.28125 70.21875 
z
" id="DejaVuSans-116"/>
     </defs>
     <g transform="translate(85.982813 38.916562)scale(0.1 -0.1)">
      <use xlink:href="#DejaVuSans-80"/>
      <use x="58.552734" xlink:href="#DejaVuSans-114"/>
      <use x="97.416016" xlink:href="#DejaVuSans-101"/>
      <use x="158.939453" xlink:href="#DejaVuSans-100"/>
      <use x="222.416016" xlink:href="#DejaVuSans-105"/>
      <use x="250.199219" xlink:href="#DejaVuSans-99"/>
      <use x="305.179688" xlink:href="#DejaVuSans-116"/>
      <use x="344.388672" xlink:href="#DejaVuSans-101"/>
      <use x="405.912109" xlink:href="#DejaVuSans-100"/>
     </g>
    </g>
    <g id="line2d_31">
     <path d="M 57.982813 50.094687 
L 77.982813 50.094687 
" style="fill:none;stroke:#ff7f0e;stroke-linecap:square;stroke-width:1.5;"/>
    </g>
    <g id="line2d_32"/>
    <g id="text_18">
     <!-- True value -->
     <defs>
      <path d="M 8.5 21.578125 
L 8.5 54.6875 
L 17.484375 54.6875 
L 17.484375 21.921875 
Q 17.484375 14.15625 20.5 10.265625 
Q 23.53125 6.390625 29.59375 6.390625 
Q 36.859375 6.390625 41.078125 11.03125 
Q 45.3125 15.671875 45.3125 23.6875 
L 45.3125 54.6875 
L 54.296875 54.6875 
L 54.296875 0 
L 45.3125 0 
L 45.3125 8.40625 
Q 42.046875 3.421875 37.71875 1 
Q 33.40625 -1.421875 27.6875 -1.421875 
Q 18.265625 -1.421875 13.375 4.4375 
Q 8.5 10.296875 8.5 21.578125 
z
M 31.109375 56 
z
" id="DejaVuSans-117"/>
      <path d="M 2.984375 54.6875 
L 12.5 54.6875 
L 29.59375 8.796875 
L 46.6875 54.6875 
L 56.203125 54.6875 
L 35.6875 0 
L 23.484375 0 
z
" id="DejaVuSans-118"/>
      <path d="M 9.421875 75.984375 
L 18.40625 75.984375 
L 18.40625 0 
L 9.421875 0 
z
" id="DejaVuSans-108"/>
     </defs>
     <g transform="translate(85.982813 53.594687)scale(0.1 -0.1)">
      <use xlink:href="#DejaVuSans-84"/>
      <use x="46.333984" xlink:href="#DejaVuSans-114"/>
      <use x="87.447266" xlink:href="#DejaVuSans-117"/>
      <use x="150.826172" xlink:href="#DejaVuSans-101"/>
      <use x="212.349609" xlink:href="#DejaVuSans-32"/>
      <use x="244.136719" xlink:href="#DejaVuSans-118"/>
      <use x="303.316406" xlink:href="#DejaVuSans-97"/>
      <use x="364.595703" xlink:href="#DejaVuSans-108"/>
      <use x="392.378906" xlink:href="#DejaVuSans-117"/>
      <use x="455.757812" xlink:href="#DejaVuSans-101"/>
     </g>
    </g>
   </g>
  </g>
 </g>
 <defs>
  <clipPath id="p8e0d1af832">
   <rect height="266.112" width="357.12" x="48.982813" y="22.318125"/>
  </clipPath>
 </defs>
</svg>
