<?xml version="1.0" encoding="utf-8" standalone="no"?>
<!DOCTYPE svg PUBLIC "-//W3C//DTD SVG 1.1//EN"
  "http://www.w3.org/Graphics/SVG/1.1/DTD/svg11.dtd">
<!-- Created with matplotlib (https://matplotlib.org/) -->
<svg height="325.986375pt" version="1.1" viewBox="0 0 404.923125 325.986375" width="404.923125pt" xmlns="http://www.w3.org/2000/svg" xmlns:xlink="http://www.w3.org/1999/xlink">
 <defs>
  <style type="text/css">
*{stroke-linecap:butt;stroke-linejoin:round;}
  </style>
 </defs>
 <g id="figure_1">
  <g id="patch_1">
   <path d="M 0 325.986375 
L 404.923125 325.986375 
L 404.923125 0 
L 0 0 
z
" style="fill:#ffffff;"/>
  </g>
  <g id="axes_1">
   <g id="patch_2">
    <path d="M 40.603125 288.430125 
L 397.723125 288.430125 
L 397.723125 22.318125 
L 40.603125 22.318125 
z
" style="fill:#ffffff;"/>
   </g>
   <g id="matplotlib.axis_1">
    <g id="xtick_1">
     <g id="line2d_1">
      <path clip-path="url(#pa8e8baa70f)" d="M 56.835852 288.430125 
L 56.835852 22.318125 
" style="fill:none;stroke:#b0b0b0;stroke-dasharray:2.96,1.28;stroke-dashoffset:0;stroke-width:0.8;"/>
     </g>
     <g id="line2d_2">
      <defs>
       <path d="M 0 0 
L 0 3.5 
" id="mdd0c93be97" style="stroke:#000000;stroke-width:0.8;"/>
      </defs>
      <g>
       <use style="stroke:#000000;stroke-width:0.8;" x="56.835852" xlink:href="#mdd0c93be97" y="288.430125"/>
      </g>
     </g>
     <g id="text_1">
      <!-- 0 -->
      <defs>
       <path d="M 31.78125 66.40625 
Q 24.171875 66.40625 20.328125 58.90625 
Q 16.5 51.421875 16.5 36.375 
Q 16.5 21.390625 20.328125 13.890625 
Q 24.171875 6.390625 31.78125 6.390625 
Q 39.453125 6.390625 43.28125 13.890625 
Q 47.125 21.390625 47.125 36.375 
Q 47.125 51.421875 43.28125 58.90625 
Q 39.453125 66.40625 31.78125 66.40625 
z
M 31.78125 74.21875 
Q 44.046875 74.21875 50.515625 64.515625 
Q 56.984375 54.828125 56.984375 36.375 
Q 56.984375 17.96875 50.515625 8.265625 
Q 44.046875 -1.421875 31.78125 -1.421875 
Q 19.53125 -1.421875 13.0625 8.265625 
Q 6.59375 17.96875 6.59375 36.375 
Q 6.59375 54.828125 13.0625 64.515625 
Q 19.53125 74.21875 31.78125 74.21875 
z
" id="DejaVuSans-48"/>
      </defs>
      <g transform="translate(53.654602 303.028562)scale(0.1 -0.1)">
       <use xlink:href="#DejaVuSans-48"/>
      </g>
     </g>
    </g>
    <g id="xtick_2">
     <g id="line2d_3">
      <path clip-path="url(#pa8e8baa70f)" d="M 105.766454 288.430125 
L 105.766454 22.318125 
" style="fill:none;stroke:#b0b0b0;stroke-dasharray:2.96,1.28;stroke-dashoffset:0;stroke-width:0.8;"/>
     </g>
     <g id="line2d_4">
      <g>
       <use style="stroke:#000000;stroke-width:0.8;" x="105.766454" xlink:href="#mdd0c93be97" y="288.430125"/>
      </g>
     </g>
     <g id="text_2">
      <!-- 200 -->
      <defs>
       <path d="M 19.1875 8.296875 
L 53.609375 8.296875 
L 53.609375 0 
L 7.328125 0 
L 7.328125 8.296875 
Q 12.9375 14.109375 22.625 23.890625 
Q 32.328125 33.6875 34.8125 36.53125 
Q 39.546875 41.84375 41.421875 45.53125 
Q 43.3125 49.21875 43.3125 52.78125 
Q 43.3125 58.59375 39.234375 62.25 
Q 35.15625 65.921875 28.609375 65.921875 
Q 23.96875 65.921875 18.8125 64.3125 
Q 13.671875 62.703125 7.8125 59.421875 
L 7.8125 69.390625 
Q 13.765625 71.78125 18.9375 73 
Q 24.125 74.21875 28.421875 74.21875 
Q 39.75 74.21875 46.484375 68.546875 
Q 53.21875 62.890625 53.21875 53.421875 
Q 53.21875 48.921875 51.53125 44.890625 
Q 49.859375 40.875 45.40625 35.40625 
Q 44.1875 33.984375 37.640625 27.21875 
Q 31.109375 20.453125 19.1875 8.296875 
z
" id="DejaVuSans-50"/>
      </defs>
      <g transform="translate(96.222704 303.028562)scale(0.1 -0.1)">
       <use xlink:href="#DejaVuSans-50"/>
       <use x="63.623047" xlink:href="#DejaVuSans-48"/>
       <use x="127.246094" xlink:href="#DejaVuSans-48"/>
      </g>
     </g>
    </g>
    <g id="xtick_3">
     <g id="line2d_5">
      <path clip-path="url(#pa8e8baa70f)" d="M 154.697057 288.430125 
L 154.697057 22.318125 
" style="fill:none;stroke:#b0b0b0;stroke-dasharray:2.96,1.28;stroke-dashoffset:0;stroke-width:0.8;"/>
     </g>
     <g id="line2d_6">
      <g>
       <use style="stroke:#000000;stroke-width:0.8;" x="154.697057" xlink:href="#mdd0c93be97" y="288.430125"/>
      </g>
     </g>
     <g id="text_3">
      <!-- 400 -->
      <defs>
       <path d="M 37.796875 64.3125 
L 12.890625 25.390625 
L 37.796875 25.390625 
z
M 35.203125 72.90625 
L 47.609375 72.90625 
L 47.609375 25.390625 
L 58.015625 25.390625 
L 58.015625 17.1875 
L 47.609375 17.1875 
L 47.609375 0 
L 37.796875 0 
L 37.796875 17.1875 
L 4.890625 17.1875 
L 4.890625 26.703125 
z
" id="DejaVuSans-52"/>
      </defs>
      <g transform="translate(145.153307 303.028562)scale(0.1 -0.1)">
       <use xlink:href="#DejaVuSans-52"/>
       <use x="63.623047" xlink:href="#DejaVuSans-48"/>
       <use x="127.246094" xlink:href="#DejaVuSans-48"/>
      </g>
     </g>
    </g>
    <g id="xtick_4">
     <g id="line2d_7">
      <path clip-path="url(#pa8e8baa70f)" d="M 203.627659 288.430125 
L 203.627659 22.318125 
" style="fill:none;stroke:#b0b0b0;stroke-dasharray:2.96,1.28;stroke-dashoffset:0;stroke-width:0.8;"/>
     </g>
     <g id="line2d_8">
      <g>
       <use style="stroke:#000000;stroke-width:0.8;" x="203.627659" xlink:href="#mdd0c93be97" y="288.430125"/>
      </g>
     </g>
     <g id="text_4">
      <!-- 600 -->
      <defs>
       <path d="M 33.015625 40.375 
Q 26.375 40.375 22.484375 35.828125 
Q 18.609375 31.296875 18.609375 23.390625 
Q 18.609375 15.53125 22.484375 10.953125 
Q 26.375 6.390625 33.015625 6.390625 
Q 39.65625 6.390625 43.53125 10.953125 
Q 47.40625 15.53125 47.40625 23.390625 
Q 47.40625 31.296875 43.53125 35.828125 
Q 39.65625 40.375 33.015625 40.375 
z
M 52.59375 71.296875 
L 52.59375 62.3125 
Q 48.875 64.0625 45.09375 64.984375 
Q 41.3125 65.921875 37.59375 65.921875 
Q 27.828125 65.921875 22.671875 59.328125 
Q 17.53125 52.734375 16.796875 39.40625 
Q 19.671875 43.65625 24.015625 45.921875 
Q 28.375 48.1875 33.59375 48.1875 
Q 44.578125 48.1875 50.953125 41.515625 
Q 57.328125 34.859375 57.328125 23.390625 
Q 57.328125 12.15625 50.6875 5.359375 
Q 44.046875 -1.421875 33.015625 -1.421875 
Q 20.359375 -1.421875 13.671875 8.265625 
Q 6.984375 17.96875 6.984375 36.375 
Q 6.984375 53.65625 15.1875 63.9375 
Q 23.390625 74.21875 37.203125 74.21875 
Q 40.921875 74.21875 44.703125 73.484375 
Q 48.484375 72.75 52.59375 71.296875 
z
" id="DejaVuSans-54"/>
      </defs>
      <g transform="translate(194.083909 303.028562)scale(0.1 -0.1)">
       <use xlink:href="#DejaVuSans-54"/>
       <use x="63.623047" xlink:href="#DejaVuSans-48"/>
       <use x="127.246094" xlink:href="#DejaVuSans-48"/>
      </g>
     </g>
    </g>
    <g id="xtick_5">
     <g id="line2d_9">
      <path clip-path="url(#pa8e8baa70f)" d="M 252.558261 288.430125 
L 252.558261 22.318125 
" style="fill:none;stroke:#b0b0b0;stroke-dasharray:2.96,1.28;stroke-dashoffset:0;stroke-width:0.8;"/>
     </g>
     <g id="line2d_10">
      <g>
       <use style="stroke:#000000;stroke-width:0.8;" x="252.558261" xlink:href="#mdd0c93be97" y="288.430125"/>
      </g>
     </g>
     <g id="text_5">
      <!-- 800 -->
      <defs>
       <path d="M 31.78125 34.625 
Q 24.75 34.625 20.71875 30.859375 
Q 16.703125 27.09375 16.703125 20.515625 
Q 16.703125 13.921875 20.71875 10.15625 
Q 24.75 6.390625 31.78125 6.390625 
Q 38.8125 6.390625 42.859375 10.171875 
Q 46.921875 13.96875 46.921875 20.515625 
Q 46.921875 27.09375 42.890625 30.859375 
Q 38.875 34.625 31.78125 34.625 
z
M 21.921875 38.8125 
Q 15.578125 40.375 12.03125 44.71875 
Q 8.5 49.078125 8.5 55.328125 
Q 8.5 64.0625 14.71875 69.140625 
Q 20.953125 74.21875 31.78125 74.21875 
Q 42.671875 74.21875 48.875 69.140625 
Q 55.078125 64.0625 55.078125 55.328125 
Q 55.078125 49.078125 51.53125 44.71875 
Q 48 40.375 41.703125 38.8125 
Q 48.828125 37.15625 52.796875 32.3125 
Q 56.78125 27.484375 56.78125 20.515625 
Q 56.78125 9.90625 50.3125 4.234375 
Q 43.84375 -1.421875 31.78125 -1.421875 
Q 19.734375 -1.421875 13.25 4.234375 
Q 6.78125 9.90625 6.78125 20.515625 
Q 6.78125 27.484375 10.78125 32.3125 
Q 14.796875 37.15625 21.921875 38.8125 
z
M 18.3125 54.390625 
Q 18.3125 48.734375 21.84375 45.5625 
Q 25.390625 42.390625 31.78125 42.390625 
Q 38.140625 42.390625 41.71875 45.5625 
Q 45.3125 48.734375 45.3125 54.390625 
Q 45.3125 60.0625 41.71875 63.234375 
Q 38.140625 66.40625 31.78125 66.40625 
Q 25.390625 66.40625 21.84375 63.234375 
Q 18.3125 60.0625 18.3125 54.390625 
z
" id="DejaVuSans-56"/>
      </defs>
      <g transform="translate(243.014511 303.028562)scale(0.1 -0.1)">
       <use xlink:href="#DejaVuSans-56"/>
       <use x="63.623047" xlink:href="#DejaVuSans-48"/>
       <use x="127.246094" xlink:href="#DejaVuSans-48"/>
      </g>
     </g>
    </g>
    <g id="xtick_6">
     <g id="line2d_11">
      <path clip-path="url(#pa8e8baa70f)" d="M 301.488863 288.430125 
L 301.488863 22.318125 
" style="fill:none;stroke:#b0b0b0;stroke-dasharray:2.96,1.28;stroke-dashoffset:0;stroke-width:0.8;"/>
     </g>
     <g id="line2d_12">
      <g>
       <use style="stroke:#000000;stroke-width:0.8;" x="301.488863" xlink:href="#mdd0c93be97" y="288.430125"/>
      </g>
     </g>
     <g id="text_6">
      <!-- 1000 -->
      <defs>
       <path d="M 12.40625 8.296875 
L 28.515625 8.296875 
L 28.515625 63.921875 
L 10.984375 60.40625 
L 10.984375 69.390625 
L 28.421875 72.90625 
L 38.28125 72.90625 
L 38.28125 8.296875 
L 54.390625 8.296875 
L 54.390625 0 
L 12.40625 0 
z
" id="DejaVuSans-49"/>
      </defs>
      <g transform="translate(288.763863 303.028562)scale(0.1 -0.1)">
       <use xlink:href="#DejaVuSans-49"/>
       <use x="63.623047" xlink:href="#DejaVuSans-48"/>
       <use x="127.246094" xlink:href="#DejaVuSans-48"/>
       <use x="190.869141" xlink:href="#DejaVuSans-48"/>
      </g>
     </g>
    </g>
    <g id="xtick_7">
     <g id="line2d_13">
      <path clip-path="url(#pa8e8baa70f)" d="M 350.419465 288.430125 
L 350.419465 22.318125 
" style="fill:none;stroke:#b0b0b0;stroke-dasharray:2.96,1.28;stroke-dashoffset:0;stroke-width:0.8;"/>
     </g>
     <g id="line2d_14">
      <g>
       <use style="stroke:#000000;stroke-width:0.8;" x="350.419465" xlink:href="#mdd0c93be97" y="288.430125"/>
      </g>
     </g>
     <g id="text_7">
      <!-- 1200 -->
      <g transform="translate(337.694465 303.028562)scale(0.1 -0.1)">
       <use xlink:href="#DejaVuSans-49"/>
       <use x="63.623047" xlink:href="#DejaVuSans-50"/>
       <use x="127.246094" xlink:href="#DejaVuSans-48"/>
       <use x="190.869141" xlink:href="#DejaVuSans-48"/>
      </g>
     </g>
    </g>
    <g id="text_8">
     <!-- Day -->
     <defs>
      <path d="M 19.671875 64.796875 
L 19.671875 8.109375 
L 31.59375 8.109375 
Q 46.6875 8.109375 53.6875 14.9375 
Q 60.6875 21.78125 60.6875 36.53125 
Q 60.6875 51.171875 53.6875 57.984375 
Q 46.6875 64.796875 31.59375 64.796875 
z
M 9.8125 72.90625 
L 30.078125 72.90625 
Q 51.265625 72.90625 61.171875 64.09375 
Q 71.09375 55.28125 71.09375 36.53125 
Q 71.09375 17.671875 61.125 8.828125 
Q 51.171875 0 30.078125 0 
L 9.8125 0 
z
" id="DejaVuSans-68"/>
      <path d="M 34.28125 27.484375 
Q 23.390625 27.484375 19.1875 25 
Q 14.984375 22.515625 14.984375 16.5 
Q 14.984375 11.71875 18.140625 8.90625 
Q 21.296875 6.109375 26.703125 6.109375 
Q 34.1875 6.109375 38.703125 11.40625 
Q 43.21875 16.703125 43.21875 25.484375 
L 43.21875 27.484375 
z
M 52.203125 31.203125 
L 52.203125 0 
L 43.21875 0 
L 43.21875 8.296875 
Q 40.140625 3.328125 35.546875 0.953125 
Q 30.953125 -1.421875 24.3125 -1.421875 
Q 15.921875 -1.421875 10.953125 3.296875 
Q 6 8.015625 6 15.921875 
Q 6 25.140625 12.171875 29.828125 
Q 18.359375 34.515625 30.609375 34.515625 
L 43.21875 34.515625 
L 43.21875 35.40625 
Q 43.21875 41.609375 39.140625 45 
Q 35.0625 48.390625 27.6875 48.390625 
Q 23 48.390625 18.546875 47.265625 
Q 14.109375 46.140625 10.015625 43.890625 
L 10.015625 52.203125 
Q 14.9375 54.109375 19.578125 55.046875 
Q 24.21875 56 28.609375 56 
Q 40.484375 56 46.34375 49.84375 
Q 52.203125 43.703125 52.203125 31.203125 
z
" id="DejaVuSans-97"/>
      <path d="M 32.171875 -5.078125 
Q 28.375 -14.84375 24.75 -17.8125 
Q 21.140625 -20.796875 15.09375 -20.796875 
L 7.90625 -20.796875 
L 7.90625 -13.28125 
L 13.1875 -13.28125 
Q 16.890625 -13.28125 18.9375 -11.515625 
Q 21 -9.765625 23.484375 -3.21875 
L 25.09375 0.875 
L 2.984375 54.6875 
L 12.5 54.6875 
L 29.59375 11.921875 
L 46.6875 54.6875 
L 56.203125 54.6875 
z
" id="DejaVuSans-121"/>
     </defs>
     <g transform="translate(209.289688 316.706687)scale(0.1 -0.1)">
      <use xlink:href="#DejaVuSans-68"/>
      <use x="77.001953" xlink:href="#DejaVuSans-97"/>
      <use x="138.28125" xlink:href="#DejaVuSans-121"/>
     </g>
    </g>
   </g>
   <g id="matplotlib.axis_2">
    <g id="ytick_1">
     <g id="line2d_15">
      <path clip-path="url(#pa8e8baa70f)" d="M 40.603125 275.669672 
L 397.723125 275.669672 
" style="fill:none;stroke:#b0b0b0;stroke-dasharray:2.96,1.28;stroke-dashoffset:0;stroke-width:0.8;"/>
     </g>
     <g id="line2d_16">
      <defs>
       <path d="M 0 0 
L -3.5 0 
" id="m1bd1983398" style="stroke:#000000;stroke-width:0.8;"/>
      </defs>
      <g>
       <use style="stroke:#000000;stroke-width:0.8;" x="40.603125" xlink:href="#m1bd1983398" y="275.669672"/>
      </g>
     </g>
     <g id="text_9">
      <!-- 36 -->
      <defs>
       <path d="M 40.578125 39.3125 
Q 47.65625 37.796875 51.625 33 
Q 55.609375 28.21875 55.609375 21.1875 
Q 55.609375 10.40625 48.1875 4.484375 
Q 40.765625 -1.421875 27.09375 -1.421875 
Q 22.515625 -1.421875 17.65625 -0.515625 
Q 12.796875 0.390625 7.625 2.203125 
L 7.625 11.71875 
Q 11.71875 9.328125 16.59375 8.109375 
Q 21.484375 6.890625 26.8125 6.890625 
Q 36.078125 6.890625 40.9375 10.546875 
Q 45.796875 14.203125 45.796875 21.1875 
Q 45.796875 27.640625 41.28125 31.265625 
Q 36.765625 34.90625 28.71875 34.90625 
L 20.21875 34.90625 
L 20.21875 43.015625 
L 29.109375 43.015625 
Q 36.375 43.015625 40.234375 45.921875 
Q 44.09375 48.828125 44.09375 54.296875 
Q 44.09375 59.90625 40.109375 62.90625 
Q 36.140625 65.921875 28.71875 65.921875 
Q 24.65625 65.921875 20.015625 65.03125 
Q 15.375 64.15625 9.8125 62.3125 
L 9.8125 71.09375 
Q 15.4375 72.65625 20.34375 73.4375 
Q 25.25 74.21875 29.59375 74.21875 
Q 40.828125 74.21875 47.359375 69.109375 
Q 53.90625 64.015625 53.90625 55.328125 
Q 53.90625 49.265625 50.4375 45.09375 
Q 46.96875 40.921875 40.578125 39.3125 
z
" id="DejaVuSans-51"/>
      </defs>
      <g transform="translate(20.878125 279.468891)scale(0.1 -0.1)">
       <use xlink:href="#DejaVuSans-51"/>
       <use x="63.623047" xlink:href="#DejaVuSans-54"/>
      </g>
     </g>
    </g>
    <g id="ytick_2">
     <g id="line2d_17">
      <path clip-path="url(#pa8e8baa70f)" d="M 40.603125 231.372825 
L 397.723125 231.372825 
" style="fill:none;stroke:#b0b0b0;stroke-dasharray:2.96,1.28;stroke-dashoffset:0;stroke-width:0.8;"/>
     </g>
     <g id="line2d_18">
      <g>
       <use style="stroke:#000000;stroke-width:0.8;" x="40.603125" xlink:href="#m1bd1983398" y="231.372825"/>
      </g>
     </g>
     <g id="text_10">
      <!-- 38 -->
      <g transform="translate(20.878125 235.172044)scale(0.1 -0.1)">
       <use xlink:href="#DejaVuSans-51"/>
       <use x="63.623047" xlink:href="#DejaVuSans-56"/>
      </g>
     </g>
    </g>
    <g id="ytick_3">
     <g id="line2d_19">
      <path clip-path="url(#pa8e8baa70f)" d="M 40.603125 187.075978 
L 397.723125 187.075978 
" style="fill:none;stroke:#b0b0b0;stroke-dasharray:2.96,1.28;stroke-dashoffset:0;stroke-width:0.8;"/>
     </g>
     <g id="line2d_20">
      <g>
       <use style="stroke:#000000;stroke-width:0.8;" x="40.603125" xlink:href="#m1bd1983398" y="187.075978"/>
      </g>
     </g>
     <g id="text_11">
      <!-- 40 -->
      <g transform="translate(20.878125 190.875196)scale(0.1 -0.1)">
       <use xlink:href="#DejaVuSans-52"/>
       <use x="63.623047" xlink:href="#DejaVuSans-48"/>
      </g>
     </g>
    </g>
    <g id="ytick_4">
     <g id="line2d_21">
      <path clip-path="url(#pa8e8baa70f)" d="M 40.603125 142.77913 
L 397.723125 142.77913 
" style="fill:none;stroke:#b0b0b0;stroke-dasharray:2.96,1.28;stroke-dashoffset:0;stroke-width:0.8;"/>
     </g>
     <g id="line2d_22">
      <g>
       <use style="stroke:#000000;stroke-width:0.8;" x="40.603125" xlink:href="#m1bd1983398" y="142.77913"/>
      </g>
     </g>
     <g id="text_12">
      <!-- 42 -->
      <g transform="translate(20.878125 146.578349)scale(0.1 -0.1)">
       <use xlink:href="#DejaVuSans-52"/>
       <use x="63.623047" xlink:href="#DejaVuSans-50"/>
      </g>
     </g>
    </g>
    <g id="ytick_5">
     <g id="line2d_23">
      <path clip-path="url(#pa8e8baa70f)" d="M 40.603125 98.482283 
L 397.723125 98.482283 
" style="fill:none;stroke:#b0b0b0;stroke-dasharray:2.96,1.28;stroke-dashoffset:0;stroke-width:0.8;"/>
     </g>
     <g id="line2d_24">
      <g>
       <use style="stroke:#000000;stroke-width:0.8;" x="40.603125" xlink:href="#m1bd1983398" y="98.482283"/>
      </g>
     </g>
     <g id="text_13">
      <!-- 44 -->
      <g transform="translate(20.878125 102.281502)scale(0.1 -0.1)">
       <use xlink:href="#DejaVuSans-52"/>
       <use x="63.623047" xlink:href="#DejaVuSans-52"/>
      </g>
     </g>
    </g>
    <g id="ytick_6">
     <g id="line2d_25">
      <path clip-path="url(#pa8e8baa70f)" d="M 40.603125 54.185436 
L 397.723125 54.185436 
" style="fill:none;stroke:#b0b0b0;stroke-dasharray:2.96,1.28;stroke-dashoffset:0;stroke-width:0.8;"/>
     </g>
     <g id="line2d_26">
      <g>
       <use style="stroke:#000000;stroke-width:0.8;" x="40.603125" xlink:href="#m1bd1983398" y="54.185436"/>
      </g>
     </g>
     <g id="text_14">
      <!-- 46 -->
      <g transform="translate(20.878125 57.984654)scale(0.1 -0.1)">
       <use xlink:href="#DejaVuSans-52"/>
       <use x="63.623047" xlink:href="#DejaVuSans-54"/>
      </g>
     </g>
    </g>
    <g id="text_15">
     <!-- Price $ -->
     <defs>
      <path d="M 19.671875 64.796875 
L 19.671875 37.40625 
L 32.078125 37.40625 
Q 38.96875 37.40625 42.71875 40.96875 
Q 46.484375 44.53125 46.484375 51.125 
Q 46.484375 57.671875 42.71875 61.234375 
Q 38.96875 64.796875 32.078125 64.796875 
z
M 9.8125 72.90625 
L 32.078125 72.90625 
Q 44.34375 72.90625 50.609375 67.359375 
Q 56.890625 61.8125 56.890625 51.125 
Q 56.890625 40.328125 50.609375 34.8125 
Q 44.34375 29.296875 32.078125 29.296875 
L 19.671875 29.296875 
L 19.671875 0 
L 9.8125 0 
z
" id="DejaVuSans-80"/>
      <path d="M 41.109375 46.296875 
Q 39.59375 47.171875 37.8125 47.578125 
Q 36.03125 48 33.890625 48 
Q 26.265625 48 22.1875 43.046875 
Q 18.109375 38.09375 18.109375 28.8125 
L 18.109375 0 
L 9.078125 0 
L 9.078125 54.6875 
L 18.109375 54.6875 
L 18.109375 46.1875 
Q 20.953125 51.171875 25.484375 53.578125 
Q 30.03125 56 36.53125 56 
Q 37.453125 56 38.578125 55.875 
Q 39.703125 55.765625 41.0625 55.515625 
z
" id="DejaVuSans-114"/>
      <path d="M 9.421875 54.6875 
L 18.40625 54.6875 
L 18.40625 0 
L 9.421875 0 
z
M 9.421875 75.984375 
L 18.40625 75.984375 
L 18.40625 64.59375 
L 9.421875 64.59375 
z
" id="DejaVuSans-105"/>
      <path d="M 48.78125 52.59375 
L 48.78125 44.1875 
Q 44.96875 46.296875 41.140625 47.34375 
Q 37.3125 48.390625 33.40625 48.390625 
Q 24.65625 48.390625 19.8125 42.84375 
Q 14.984375 37.3125 14.984375 27.296875 
Q 14.984375 17.28125 19.8125 11.734375 
Q 24.65625 6.203125 33.40625 6.203125 
Q 37.3125 6.203125 41.140625 7.25 
Q 44.96875 8.296875 48.78125 10.40625 
L 48.78125 2.09375 
Q 45.015625 0.34375 40.984375 -0.53125 
Q 36.96875 -1.421875 32.421875 -1.421875 
Q 20.0625 -1.421875 12.78125 6.34375 
Q 5.515625 14.109375 5.515625 27.296875 
Q 5.515625 40.671875 12.859375 48.328125 
Q 20.21875 56 33.015625 56 
Q 37.15625 56 41.109375 55.140625 
Q 45.0625 54.296875 48.78125 52.59375 
z
" id="DejaVuSans-99"/>
      <path d="M 56.203125 29.59375 
L 56.203125 25.203125 
L 14.890625 25.203125 
Q 15.484375 15.921875 20.484375 11.0625 
Q 25.484375 6.203125 34.421875 6.203125 
Q 39.59375 6.203125 44.453125 7.46875 
Q 49.3125 8.734375 54.109375 11.28125 
L 54.109375 2.78125 
Q 49.265625 0.734375 44.1875 -0.34375 
Q 39.109375 -1.421875 33.890625 -1.421875 
Q 20.796875 -1.421875 13.15625 6.1875 
Q 5.515625 13.8125 5.515625 26.8125 
Q 5.515625 40.234375 12.765625 48.109375 
Q 20.015625 56 32.328125 56 
Q 43.359375 56 49.78125 48.890625 
Q 56.203125 41.796875 56.203125 29.59375 
z
M 47.21875 32.234375 
Q 47.125 39.59375 43.09375 43.984375 
Q 39.0625 48.390625 32.421875 48.390625 
Q 24.90625 48.390625 20.390625 44.140625 
Q 15.875 39.890625 15.1875 32.171875 
z
" id="DejaVuSans-101"/>
      <path id="DejaVuSans-32"/>
      <path d="M 33.796875 -14.703125 
L 28.90625 -14.703125 
L 28.859375 0 
Q 23.734375 0.09375 18.609375 1.1875 
Q 13.484375 2.296875 8.296875 4.5 
L 8.296875 13.28125 
Q 13.28125 10.15625 18.375 8.5625 
Q 23.484375 6.984375 28.90625 6.9375 
L 28.90625 29.203125 
Q 18.109375 30.953125 13.203125 35.15625 
Q 8.296875 39.359375 8.296875 46.6875 
Q 8.296875 54.640625 13.625 59.21875 
Q 18.953125 63.8125 28.90625 64.5 
L 28.90625 75.984375 
L 33.796875 75.984375 
L 33.796875 64.65625 
Q 38.328125 64.453125 42.578125 63.6875 
Q 46.828125 62.9375 50.875 61.625 
L 50.875 53.078125 
Q 46.828125 55.125 42.546875 56.25 
Q 38.28125 57.375 33.796875 57.5625 
L 33.796875 36.71875 
Q 44.875 35.015625 50.09375 30.609375 
Q 55.328125 26.21875 55.328125 18.609375 
Q 55.328125 10.359375 49.78125 5.59375 
Q 44.234375 0.828125 33.796875 0.09375 
z
M 28.90625 37.59375 
L 28.90625 57.625 
Q 23.25 56.984375 20.265625 54.390625 
Q 17.28125 51.8125 17.28125 47.515625 
Q 17.28125 43.3125 20.03125 40.96875 
Q 22.796875 38.625 28.90625 37.59375 
z
M 33.796875 28.21875 
L 33.796875 7.078125 
Q 39.984375 7.90625 43.140625 10.59375 
Q 46.296875 13.28125 46.296875 17.671875 
Q 46.296875 21.96875 43.28125 24.5 
Q 40.28125 27.046875 33.796875 28.21875 
z
" id="DejaVuSans-36"/>
     </defs>
     <g transform="translate(14.798438 172.342094)rotate(-90)scale(0.1 -0.1)">
      <use xlink:href="#DejaVuSans-80"/>
      <use x="58.552734" xlink:href="#DejaVuSans-114"/>
      <use x="99.666016" xlink:href="#DejaVuSans-105"/>
      <use x="127.449219" xlink:href="#DejaVuSans-99"/>
      <use x="182.429688" xlink:href="#DejaVuSans-101"/>
      <use x="243.953125" xlink:href="#DejaVuSans-32"/>
      <use x="275.740234" xlink:href="#DejaVuSans-36"/>
     </g>
    </g>
   </g>
   <g id="line2d_27">
    <path clip-path="url(#pa8e8baa70f)" d="M 56.835852 205.324534 
L 57.080505 185.53886 
L 57.325158 175.737398 
L 57.569811 178.915725 
L 57.814464 176.082115 
L 58.059117 188.935085 
L 58.30377 178.186158 
L 58.548423 179.794247 
L 58.793076 189.622154 
L 59.282382 195.784736 
L 59.527035 200.830113 
L 59.771688 203.336748 
L 60.016341 201.896793 
L 60.260994 202.657453 
L 60.505647 198.50682 
L 60.7503 198.876799 
L 60.994953 200.12378 
L 61.239606 204.532191 
L 61.728912 229.048096 
L 61.973566 222.08261 
L 62.462872 232.229464 
L 62.952178 250.816063 
L 63.196831 245.739087 
L 63.441484 247.96226 
L 63.686137 243.291172 
L 63.93079 229.416977 
L 64.420096 239.519559 
L 64.664749 237.176664 
L 64.909402 241.543252 
L 65.154055 224.6712 
L 65.398708 229.170521 
L 65.888014 218.535148 
L 66.132667 220.527073 
L 66.37732 217.99771 
L 66.621973 230.736027 
L 66.866626 229.201782 
L 67.111279 238.301896 
L 67.355932 237.06235 
L 67.600585 225.640295 
L 67.845238 233.482529 
L 68.089891 224.31043 
L 68.334544 224.883269 
L 68.579197 226.910003 
L 68.82385 225.047009 
L 69.068503 219.710228 
L 69.313156 219.598195 
L 69.557809 220.015489 
L 69.802462 229.711338 
L 70.047115 229.713704 
L 70.291768 227.276012 
L 70.536421 229.377943 
L 71.025727 237.87345 
L 71.27038 236.027438 
L 71.515033 245.05413 
L 71.759686 248.990835 
L 72.004339 261.847016 
L 72.493645 252.77622 
L 72.738298 253.585968 
L 73.227604 247.412825 
L 73.71691 258.805055 
L 73.961563 245.637868 
L 74.450869 267.465485 
L 74.695522 269.508865 
L 74.940175 273.778121 
L 75.184828 272.498273 
L 75.429481 275.498243 
L 75.674134 267.130907 
L 75.918787 263.818241 
L 76.16344 249.482058 
L 76.408093 248.538141 
L 76.652746 245.646233 
L 76.897399 233.815417 
L 77.142052 245.19244 
L 77.386705 244.826684 
L 77.631358 241.492221 
L 77.876011 232.669908 
L 78.120664 233.582902 
L 78.365317 244.974288 
L 78.60997 250.194558 
L 78.854623 247.042338 
L 79.099276 245.457821 
L 79.343929 238.931765 
L 79.588582 240.081668 
L 79.833235 235.562407 
L 80.077888 239.879907 
L 80.322541 240.721845 
L 80.567194 239.695044 
L 80.811847 242.835351 
L 81.0565 247.584338 
L 81.301153 257.7938 
L 81.545806 253.278595 
L 82.035112 259.383048 
L 82.279765 266.17947 
L 82.524418 266.962773 
L 82.769071 275.781705 
L 83.013724 270.59126 
L 83.258377 241.293924 
L 83.50303 239.363845 
L 83.747683 239.252319 
L 84.236989 252.362897 
L 84.481643 252.861216 
L 84.970949 255.075434 
L 85.215602 253.680511 
L 85.460255 246.570717 
L 85.704908 245.755393 
L 86.194214 238.016321 
L 86.438867 250.221257 
L 86.68352 250.782605 
L 86.928173 250.95302 
L 87.172826 251.772991 
L 87.417479 253.039574 
L 87.662132 244.267871 
L 87.906785 241.911035 
L 88.151438 247.768103 
L 88.396091 241.638641 
L 88.640744 245.098656 
L 88.885397 228.538624 
L 89.13005 224.027052 
L 89.374703 211.321938 
L 89.864009 218.080678 
L 90.108662 240.738152 
L 90.597968 256.927698 
L 90.842621 244.954095 
L 91.087274 238.552745 
L 91.331927 237.45717 
L 91.57658 238.183104 
L 91.821233 220.610042 
L 92.065886 237.009375 
L 92.799845 215.096593 
L 93.044498 215.864772 
L 93.289151 213.299754 
L 93.533804 216.383537 
L 93.778457 209.089725 
L 94.512416 202.687531 
L 95.001722 218.558805 
L 95.246375 209.327985 
L 95.491028 212.906709 
L 95.735681 214.758635 
L 96.224987 190.136104 
L 96.46964 185.484364 
L 96.714293 186.304419 
L 96.958946 184.418528 
L 97.203599 171.636614 
L 97.448252 181.8089 
L 97.692905 177.744616 
L 97.937558 177.054505 
L 98.182211 171.05634 
L 98.426864 183.144088 
L 98.671517 175.518824 
L 98.91617 185.264015 
L 99.160823 168.146098 
L 99.405476 171.105006 
L 99.650129 163.616868 
L 99.894782 160.806831 
L 100.139435 163.159611 
L 100.384088 185.023304 
L 100.628741 134.79394 
L 100.873394 130.213425 
L 101.118047 140.747326 
L 101.3627 128.572976 
L 101.607353 126.927627 
L 101.852006 127.500381 
L 102.096659 139.623869 
L 102.341312 135.154795 
L 102.585965 140.513966 
L 103.075271 135.219936 
L 103.319924 137.822468 
L 103.564577 143.310654 
L 103.80923 137.073045 
L 104.053883 140.551902 
L 104.298536 126.964295 
L 104.787842 139.916372 
L 105.032495 139.288614 
L 105.277148 138.287498 
L 106.011107 118.591467 
L 106.25576 121.369568 
L 106.500413 134.531854 
L 106.745066 135.262266 
L 106.98972 137.203159 
L 107.234373 144.289043 
L 107.723679 130.252797 
L 108.212985 169.402289 
L 108.457638 186.287183 
L 108.946944 155.588419 
L 109.191597 172.47061 
L 109.43625 169.465909 
L 109.680903 155.73729 
L 109.925556 160.790862 
L 110.414862 177.986763 
L 110.659515 177.773511 
L 110.904168 179.213551 
L 111.393474 166.27212 
L 111.638127 177.717664 
L 111.88278 205.269784 
L 112.127433 192.710922 
L 112.372086 196.827928 
L 112.616739 193.035362 
L 112.861392 179.184317 
L 113.106045 180.708678 
L 113.350698 184.086062 
L 113.595351 176.495861 
L 113.840004 178.229248 
L 114.084657 175.790289 
L 114.32931 175.063087 
L 114.573963 174.688545 
L 114.818616 168.287534 
L 115.063269 171.577556 
L 115.307922 164.034584 
L 115.552575 163.973667 
L 115.797228 164.592722 
L 116.041881 181.618545 
L 116.286534 168.50822 
L 116.531187 168.661146 
L 116.77584 162.714689 
L 117.020493 168.322935 
L 117.265146 165.803288 
L 117.509799 167.762516 
L 117.754452 168.261004 
L 117.999105 172.594472 
L 118.243758 180.502439 
L 118.488411 179.837422 
L 118.733064 184.974216 
L 118.977717 174.415221 
L 119.22237 181.853933 
L 119.467023 180.750077 
L 119.711676 178.815859 
L 119.956329 183.601346 
L 120.200982 182.612396 
L 120.445635 183.382264 
L 120.934941 194.65452 
L 121.179594 197.306562 
L 121.424247 206.829123 
L 121.6689 208.00885 
L 122.402859 224.636221 
L 122.647512 224.40717 
L 122.892165 219.664097 
L 123.136818 228.014451 
L 123.381471 227.951083 
L 123.626124 223.279404 
L 123.870777 228.214015 
L 124.11543 227.153502 
L 124.360083 232.971282 
L 124.604736 219.419753 
L 124.849389 225.0585 
L 125.094042 223.366681 
L 125.583348 216.998199 
L 125.828001 213.788441 
L 126.072654 221.166574 
L 126.56196 212.008078 
L 126.806613 213.519258 
L 127.051266 196.175838 
L 127.295919 201.906594 
L 127.540572 200.579686 
L 127.785225 217.025573 
L 128.274531 223.755756 
L 128.519184 215.032803 
L 128.763837 222.038844 
L 129.00849 233.798181 
L 129.253143 232.493748 
L 129.74245 249.790275 
L 129.987103 249.092307 
L 130.231756 251.903105 
L 130.476409 247.290822 
L 130.721062 251.138052 
L 130.965715 236.509197 
L 131.210368 235.733076 
L 131.455021 233.051294 
L 131.699674 238.477381 
L 131.944327 231.603397 
L 132.18898 218.987251 
L 132.433633 213.672691 
L 132.678286 213.104583 
L 132.922939 207.430097 
L 133.167592 207.23273 
L 133.412245 213.610253 
L 133.656898 208.887457 
L 133.901551 195.680476 
L 134.146204 191.3525 
L 134.390857 195.621418 
L 134.63551 196.923148 
L 134.880163 195.83788 
L 135.124816 197.927729 
L 135.369469 198.225385 
L 135.614122 186.147607 
L 135.858775 190.796305 
L 136.103428 186.298758 
L 136.348081 189.969575 
L 136.592734 189.910432 
L 136.837387 184.574919 
L 137.08204 182.48676 
L 137.326693 182.328849 
L 137.571346 183.508154 
L 137.815999 184.135657 
L 138.060652 185.831362 
L 138.305305 177.802998 
L 138.549958 177.667984 
L 138.794611 179.121288 
L 139.039264 181.717229 
L 139.283917 183.023775 
L 139.52857 182.971899 
L 139.773223 185.323665 
L 140.017876 179.516699 
L 140.262529 178.948676 
L 140.507182 190.634339 
L 140.751835 177.139164 
L 140.996488 177.977976 
L 141.241141 190.213158 
L 141.485794 184.332687 
L 141.730447 203.771954 
L 141.9751 204.086339 
L 142.219753 202.837753 
L 142.464406 206.440725 
L 142.709059 186.567942 
L 142.953712 189.487816 
L 143.443018 183.277835 
L 143.687671 182.550296 
L 144.666283 157.757688 
L 144.910936 172.267582 
L 145.400242 180.805672 
L 145.644895 178.255017 
L 145.889548 187.917747 
L 146.134201 192.693771 
L 146.378854 183.889877 
L 146.623507 196.725105 
L 147.112813 191.830035 
L 147.357466 193.00427 
L 147.602119 202.425444 
L 147.846772 188.811646 
L 148.091425 188.491515 
L 148.580731 212.467701 
L 148.825384 214.993431 
L 149.070037 211.788997 
L 149.31469 232.281341 
L 149.559343 228.003213 
L 149.803996 234.586469 
L 150.048649 248.18658 
L 150.782608 230.185747 
L 151.027261 231.617591 
L 151.271914 218.583983 
L 151.516567 216.305638 
L 151.76122 219.632582 
L 152.005874 216.850004 
L 152.250527 210.396271 
L 152.49518 241.607042 
L 152.739833 251.605617 
L 152.984486 247.113901 
L 153.229139 248.771332 
L 153.718445 235.923347 
L 153.963098 233.612051 
L 154.452404 226.429934 
L 154.697057 228.130539 
L 154.94171 224.310007 
L 155.186363 223.15588 
L 156.164975 213.514188 
L 156.409628 220.563741 
L 156.654281 231.936032 
L 157.38824 222.168535 
L 157.632893 228.041487 
L 157.877546 221.67782 
L 158.122199 221.420296 
L 158.366852 222.457152 
L 158.611505 217.779473 
L 158.856158 217.781332 
L 159.345464 210.383851 
L 159.83477 222.363791 
L 160.079423 224.120244 
L 160.324076 229.552836 
L 160.568729 226.578382 
L 161.058035 211.117727 
L 161.302688 209.175651 
L 161.547341 211.582335 
L 161.791994 217.197509 
L 162.036647 215.349216 
L 162.2813 183.020311 
L 162.525953 173.347865 
L 162.770606 171.136521 
L 163.015259 170.880179 
L 163.259912 171.754393 
L 163.504565 171.116159 
L 163.749218 171.85654 
L 163.993871 164.886746 
L 164.238524 164.380146 
L 164.483177 174.704176 
L 164.72783 169.840029 
L 164.972483 169.519476 
L 165.217136 166.021947 
L 165.461789 169.983745 
L 165.706442 176.248306 
L 165.951095 166.904694 
L 166.195748 170.493133 
L 166.440401 167.594466 
L 166.685054 168.534328 
L 166.929707 162.332036 
L 167.17436 166.864561 
L 167.419013 175.535553 
L 167.663666 167.44492 
L 168.152972 173.905581 
L 168.397625 167.548926 
L 168.642278 173.750627 
L 168.886931 174.117734 
L 169.131584 169.686596 
L 169.376237 173.666982 
L 169.62089 172.247136 
L 169.865543 166.635003 
L 170.110196 167.565824 
L 170.354849 167.319368 
L 170.599502 169.226888 
L 171.088808 164.696137 
L 171.333461 166.495004 
L 171.578114 163.08433 
L 171.822767 167.531014 
L 172.06742 177.308734 
L 172.312073 178.532481 
L 172.801379 166.051011 
L 173.046032 151.920053 
L 173.290685 146.76729 
L 173.535338 149.32107 
L 173.779991 148.728038 
L 174.269298 143.406888 
L 174.513951 141.944205 
L 175.003257 134.853505 
L 175.24791 136.447654 
L 175.492563 136.483984 
L 175.737216 137.712631 
L 175.981869 139.680392 
L 176.226522 143.94196 
L 176.471175 143.76563 
L 176.715828 136.942931 
L 176.960481 143.51495 
L 177.205134 134.489862 
L 177.449787 140.63656 
L 177.69444 140.089744 
L 177.939093 142.148923 
L 178.183746 133.104403 
L 178.428399 133.796964 
L 178.673052 160.194197 
L 178.917705 168.507122 
L 179.162358 165.000046 
L 179.407011 164.603875 
L 179.896317 178.801664 
L 180.14097 194.419808 
L 180.385623 202.101089 
L 180.630276 202.260098 
L 180.874929 199.702685 
L 181.119582 204.338541 
L 181.364235 188.438371 
L 181.608888 200.24722 
L 181.853541 198.763415 
L 182.342847 193.317557 
L 182.832153 182.000269 
L 183.321459 156.160413 
L 183.566112 158.660459 
L 183.810765 159.060432 
L 184.055418 155.437267 
L 184.300071 161.929021 
L 184.789377 151.217945 
L 185.03403 151.320177 
L 185.278683 150.692842 
L 185.523336 148.698298 
L 185.767989 150.429911 
L 186.257295 145.323617 
L 186.501948 146.019557 
L 186.746601 147.463314 
L 187.235907 138.951839 
L 187.48056 143.854767 
L 187.725213 154.592879 
L 187.969866 153.759474 
L 188.214519 150.675015 
L 188.459172 151.492198 
L 188.703825 147.658908 
L 189.193131 138.194559 
L 189.437784 145.413598 
L 189.682437 136.923921 
L 189.92709 147.618606 
L 190.171743 138.715184 
L 190.416396 137.533682 
L 190.661049 128.44827 
L 190.905702 126.585022 
L 191.150355 128.332603 
L 191.395008 120.60705 
L 191.639661 107.307975 
L 191.884314 100.542729 
L 192.128967 86.427063 
L 192.37362 102.05205 
L 192.618273 87.681648 
L 193.596885 129.640839 
L 194.086191 113.369845 
L 194.330844 170.225301 
L 194.575497 172.1471 
L 195.064803 163.452958 
L 195.554109 173.745726 
L 196.288068 144.706252 
L 196.532721 146.239484 
L 196.777375 146.405843 
L 197.022028 135.562373 
L 197.266681 136.03864 
L 197.511334 135.699415 
L 197.755987 134.161621 
L 198.00064 131.42661 
L 198.245293 126.936414 
L 198.489946 125.247299 
L 198.734599 126.58781 
L 198.979252 122.214463 
L 199.468558 93.606308 
L 199.713211 93.441638 
L 199.957864 87.535819 
L 200.202517 92.746204 
L 200.44717 88.882582 
L 200.691823 92.214681 
L 200.936476 80.122285 
L 201.181129 86.892854 
L 201.425782 86.593085 
L 201.670435 102.807978 
L 201.915088 108.749451 
L 202.159741 108.124904 
L 202.404394 117.192828 
L 202.649047 140.865949 
L 202.8937 149.961078 
L 203.138353 152.026847 
L 203.383006 166.105423 
L 203.872312 177.859099 
L 204.361618 134.322742 
L 204.606271 144.33247 
L 204.850924 134.986323 
L 205.095577 121.039974 
L 205.34023 122.178217 
L 205.584883 121.781032 
L 206.074189 125.930397 
L 206.318842 137.935768 
L 206.563495 139.471196 
L 206.808148 139.481504 
L 207.052801 132.290093 
L 207.542107 109.11284 
L 208.031413 128.172158 
L 208.276066 128.066208 
L 208.520719 129.653513 
L 208.765372 133.698871 
L 209.010025 130.401499 
L 209.254678 116.56355 
L 209.499331 112.494027 
L 209.743984 103.05266 
L 210.722596 143.756505 
L 210.967249 139.934114 
L 211.211902 160.621545 
L 211.456555 151.464232 
L 211.945861 149.57099 
L 212.190514 147.167939 
L 212.67982 159.584436 
L 212.924473 133.548142 
L 213.169126 134.664249 
L 213.903085 146.716427 
L 214.147738 148.745274 
L 214.392391 140.248584 
L 214.881697 146.172652 
L 215.12635 139.743421 
L 215.371003 141.490749 
L 215.615656 132.319664 
L 215.860309 113.511365 
L 216.104962 116.390262 
L 216.349615 121.815588 
L 216.594268 131.693597 
L 216.838921 133.757507 
L 217.083574 152.904018 
L 217.328227 155.600755 
L 217.817533 183.784012 
L 218.062186 174.046425 
L 218.306839 188.362584 
L 218.796145 175.403411 
L 219.040798 173.451196 
L 219.285452 185.944832 
L 219.530105 172.53195 
L 219.774758 172.658262 
L 220.019411 176.275089 
L 220.264064 176.864319 
L 220.508717 178.926878 
L 220.75337 184.948869 
L 220.998023 175.766378 
L 221.242676 174.643512 
L 221.487329 171.922273 
L 221.731982 171.858906 
L 221.976635 161.035966 
L 222.465941 167.353671 
L 222.710594 163.660718 
L 223.689206 177.813306 
L 223.933859 173.437762 
L 224.178512 179.966353 
L 224.423165 172.306616 
L 224.667818 169.433803 
L 224.912471 157.798074 
L 225.157124 165.743047 
L 225.64643 168.478987 
L 225.891083 169.731967 
L 226.135736 175.894971 
L 226.380389 174.633627 
L 226.625042 166.871405 
L 226.869695 165.750735 
L 227.114348 170.559795 
L 227.359001 172.559409 
L 227.603654 171.577472 
L 227.848307 165.406863 
L 228.09296 166.352554 
L 228.337613 171.929624 
L 228.826919 153.901924 
L 229.071572 153.632824 
L 229.316225 157.977952 
L 229.560878 157.974488 
L 229.805531 157.049159 
L 230.050184 159.622456 
L 230.294837 160.146629 
L 230.53949 164.921048 
L 230.784143 161.9994 
L 231.028796 161.642094 
L 231.273449 165.640646 
L 231.518102 165.946498 
L 231.762755 164.724188 
L 232.007408 167.563458 
L 232.252061 173.838242 
L 232.496714 184.429343 
L 232.98602 182.289984 
L 233.230673 179.56131 
L 233.964632 195.756179 
L 234.209285 185.300346 
L 234.453938 180.736559 
L 234.698591 172.494774 
L 234.943244 178.031373 
L 235.187897 176.475668 
L 235.43255 178.411914 
L 235.921856 186.431914 
L 236.166509 186.923052 
L 236.411162 199.912388 
L 236.655815 203.935357 
L 236.900468 198.057589 
L 237.145121 198.14267 
L 237.389774 199.751013 
L 237.634427 181.608745 
L 237.87908 189.908236 
L 238.123733 189.005634 
L 238.857692 161.251414 
L 239.102345 162.177673 
L 239.346998 154.403285 
L 239.591651 159.411824 
L 239.836304 156.524141 
L 240.080957 160.8375 
L 240.32561 167.229133 
L 240.570263 168.338227 
L 240.814916 177.164764 
L 241.059569 175.111584 
L 241.304222 174.792214 
L 241.548875 173.952219 
L 241.793529 174.602788 
L 242.282835 153.071476 
L 242.772141 140.431589 
L 243.261447 148.030662 
L 243.5061 149.921453 
L 244.240059 162.537261 
L 244.729365 157.211717 
L 244.974018 158.36728 
L 245.218671 169.611907 
L 245.463324 174.40973 
L 246.197283 230.945899 
L 246.686589 203.2346 
L 246.931242 199.348842 
L 247.175895 202.202899 
L 247.420548 214.418311 
L 247.665201 211.464641 
L 247.909854 205.34008 
L 248.154507 219.024342 
L 248.39916 211.585546 
L 248.643813 223.84109 
L 248.888466 222.062501 
L 249.133119 227.835924 
L 249.377772 228.796739 
L 249.622425 220.086291 
L 249.867078 205.509904 
L 250.111731 200.299941 
L 250.356384 209.430809 
L 250.601037 205.138657 
L 250.84569 213.396325 
L 251.090343 214.356971 
L 251.579649 195.21891 
L 251.824302 197.348637 
L 252.068955 194.812515 
L 252.313608 184.483247 
L 252.558261 191.372862 
L 253.047567 164.600833 
L 253.29222 165.985278 
L 253.781526 143.248977 
L 254.026179 142.762317 
L 254.270832 143.29308 
L 254.515485 151.021507 
L 254.760138 150.271577 
L 255.249444 141.945134 
L 255.494097 143.918894 
L 255.73875 136.979093 
L 255.983403 138.872165 
L 256.228056 115.210534 
L 256.472709 125.581455 
L 256.717362 130.117191 
L 256.962015 129.417618 
L 257.206668 126.064566 
L 257.451321 125.736409 
L 257.695974 135.66038 
L 258.18528 138.775002 
L 258.429933 142.920397 
L 258.674586 135.218331 
L 259.163892 152.416598 
L 259.653198 141.423242 
L 259.897851 151.57204 
L 260.142504 155.901622 
L 260.387157 142.871224 
L 260.63181 149.645932 
L 260.876463 136.732722 
L 261.121116 117.862745 
L 261.365769 133.13389 
L 261.855075 112.305024 
L 262.099728 112.798358 
L 262.344381 117.665716 
L 262.589034 129.133226 
L 262.833687 122.9796 
L 263.07834 125.606633 
L 263.322993 132.505034 
L 263.567646 114.006812 
L 263.812299 116.159943 
L 264.056952 120.278216 
L 264.301606 127.614104 
L 264.546259 125.377498 
L 264.790912 136.302754 
L 265.035565 132.395367 
L 265.524871 101.708093 
L 265.769524 110.073148 
L 266.014177 131.35547 
L 266.25883 125.148446 
L 266.748136 106.079835 
L 266.992789 109.060119 
L 267.237442 109.796023 
L 267.482095 104.846795 
L 267.726748 108.137155 
L 268.216054 133.416169 
L 268.460707 130.111615 
L 268.70536 135.416713 
L 268.950013 150.678648 
L 269.194666 152.869039 
L 269.439319 151.524135 
L 269.683972 139.806028 
L 269.928625 146.003758 
L 270.173278 145.104789 
L 270.417931 153.388058 
L 270.662584 144.342271 
L 270.907237 156.232229 
L 271.15189 155.884217 
L 271.396543 140.992768 
L 271.641196 139.064464 
L 271.885849 140.817706 
L 272.130502 140.543284 
L 272.619808 122.10488 
L 272.864461 120.319109 
L 273.109114 132.846203 
L 273.353767 126.443333 
L 273.59842 130.741231 
L 273.843073 132.874676 
L 274.087726 127.919534 
L 274.332379 113.260769 
L 274.577032 130.600725 
L 274.821685 133.209086 
L 275.066338 117.457449 
L 275.555644 109.694635 
L 276.289603 99.843071 
L 276.534256 105.552114 
L 277.023562 95.081579 
L 277.268215 117.807151 
L 277.512868 117.132756 
L 277.757521 104.936945 
L 278.002174 103.95636 
L 278.49148 96.072811 
L 278.736133 98.448487 
L 278.980786 91.318416 
L 279.470092 71.535023 
L 279.714745 72.657382 
L 279.959398 70.422042 
L 280.204051 71.540768 
L 280.448704 75.693767 
L 280.693357 59.309895 
L 280.93801 64.419061 
L 281.182663 61.725535 
L 281.427316 65.373962 
L 281.671969 66.384626 
L 281.916622 63.734696 
L 282.161275 58.682729 
L 282.405928 43.332333 
L 282.650581 41.944846 
L 282.895234 45.696941 
L 283.139887 35.536399 
L 283.38454 35.165913 
L 283.629193 43.013216 
L 283.873846 38.25823 
L 284.118499 46.875486 
L 284.363152 34.414125 
L 284.607805 45.473974 
L 284.852458 39.16852 
L 285.097111 53.825341 
L 285.341764 56.67492 
L 285.586417 51.007446 
L 285.83107 49.100349 
L 286.075723 40.543925 
L 286.320376 90.587243 
L 286.56503 101.617858 
L 286.809683 83.909867 
L 287.054336 82.810658 
L 287.298989 86.258338 
L 287.543642 81.895298 
L 287.788295 83.237583 
L 288.277601 75.68743 
L 288.522254 79.223824 
L 288.766907 75.751135 
L 289.01156 74.318108 
L 289.256213 68.550768 
L 289.500866 70.8635 
L 289.745519 58.997959 
L 289.990172 66.57836 
L 290.234825 57.264065 
L 290.479478 69.294699 
L 290.724131 61.955853 
L 290.968784 82.308199 
L 291.45809 90.639289 
L 291.702743 98.936668 
L 291.947396 97.98295 
L 292.192049 89.181253 
L 292.436702 89.537123 
L 292.681355 82.08126 
L 292.926008 80.548028 
L 293.170661 84.61772 
L 293.415314 82.076613 
L 293.659967 82.029214 
L 294.149273 68.051182 
L 294.393926 69.530424 
L 295.127885 54.699048 
L 295.372538 74.742161 
L 295.617191 74.965129 
L 295.861844 76.107427 
L 296.106497 69.375724 
L 296.35115 81.696748 
L 296.595803 76.13269 
L 296.840456 73.339466 
L 297.085109 79.483207 
L 297.329762 73.995189 
L 297.574415 100.277601 
L 297.819068 101.639488 
L 298.308374 88.573266 
L 298.553027 68.620557 
L 298.79768 74.56034 
L 299.042333 66.391047 
L 299.531639 74.128345 
L 299.776292 67.564775 
L 300.020945 64.094875 
L 300.265598 64.02948 
L 300.510251 60.164591 
L 300.999557 62.654328 
L 301.24421 62.480364 
L 301.488863 62.454342 
L 301.733516 65.161555 
L 301.978169 66.287294 
L 302.222822 57.544824 
L 302.467475 64.070288 
L 302.712128 78.700158 
L 302.956781 110.421668 
L 303.201434 103.713875 
L 303.446087 105.937132 
L 303.69074 109.782758 
L 304.180046 105.398512 
L 304.424699 108.566784 
L 304.669352 109.08648 
L 304.914005 110.073824 
L 305.158658 109.405005 
L 305.647964 103.525125 
L 306.13727 93.149473 
L 306.381923 102.334245 
L 306.626576 96.249309 
L 306.871229 96.156793 
L 307.360535 104.061296 
L 307.605188 101.493743 
L 307.849841 101.538945 
L 308.094494 105.608722 
L 308.339147 113.233395 
L 308.5838 107.959389 
L 308.828453 115.142774 
L 309.073107 110.365736 
L 309.31776 112.571166 
L 309.562413 105.562168 
L 309.807066 103.17255 
L 310.051719 106.245688 
L 310.296372 106.22465 
L 310.541025 136.466242 
L 310.785678 115.751436 
L 311.030331 136.484069 
L 311.274984 139.872015 
L 311.519637 134.082454 
L 311.76429 139.207589 
L 312.008943 140.038628 
L 312.498249 130.780772 
L 312.742902 121.333913 
L 312.987555 126.440291 
L 313.232208 141.625679 
L 313.476861 129.60848 
L 313.721514 139.428951 
L 313.966167 142.080317 
L 314.21082 135.537195 
L 314.700126 146.3162 
L 314.944779 146.786131 
L 315.189432 148.99663 
L 315.434085 148.435451 
L 315.678738 148.523658 
L 315.923391 152.755316 
L 316.168044 147.445572 
L 316.412697 147.922431 
L 316.902003 151.348988 
L 317.146656 143.119623 
L 317.391309 141.414117 
L 317.635962 144.223056 
L 317.880615 139.878774 
L 318.125268 130.235984 
L 318.369921 130.756439 
L 318.614574 132.910331 
L 318.859227 139.973824 
L 319.10388 137.59029 
L 319.348533 133.912292 
L 319.593186 140.119569 
L 319.837839 141.515589 
L 320.082492 141.702818 
L 320.327145 149.233962 
L 320.571798 132.349658 
L 320.816451 123.158464 
L 321.061104 136.94479 
L 321.305757 165.466851 
L 321.55041 163.959219 
L 321.795063 160.575498 
L 322.039716 154.847024 
L 322.773675 166.421582 
L 323.018328 156.547882 
L 323.262981 156.338602 
L 323.507634 161.947608 
L 323.752287 152.817078 
L 323.99694 147.861936 
L 324.730899 182.974687 
L 325.220205 172.831719 
L 325.464858 174.05386 
L 325.709511 158.233448 
L 325.954164 165.019817 
L 326.198817 142.6856 
L 326.44347 144.837971 
L 326.688123 148.179194 
L 326.932776 159.972327 
L 327.422082 148.360086 
L 327.666735 150.12803 
L 327.911388 150.287124 
L 328.156041 152.230805 
L 328.400694 152.591998 
L 328.645347 151.470484 
L 328.89 151.243376 
L 329.134653 156.126533 
L 329.379306 151.49431 
L 329.623959 154.612143 
L 329.868612 147.268482 
L 330.113265 150.560532 
L 330.357918 148.221017 
L 330.602571 148.335415 
L 331.091877 164.006787 
L 331.33653 163.674997 
L 331.825837 167.476772 
L 332.07049 160.067463 
L 332.315143 158.560254 
L 332.559796 161.808369 
L 333.049102 155.361903 
L 333.293755 144.920771 
L 333.538408 139.996299 
L 334.027714 154.79295 
L 334.272367 156.239918 
L 334.51702 152.079062 
L 334.761673 158.171264 
L 335.006326 156.123238 
L 335.250979 152.712987 
L 335.495632 152.112013 
L 335.740285 144.351987 
L 335.984938 141.769058 
L 336.474244 173.743023 
L 336.718897 172.844392 
L 337.208203 176.549765 
L 337.452856 160.048791 
L 337.697509 159.321674 
L 338.186815 151.323979 
L 338.431468 149.914947 
L 338.676121 147.273804 
L 338.920774 149.690712 
L 339.654733 132.473689 
L 339.899386 132.146883 
L 340.388692 142.897838 
L 340.633345 142.837259 
L 340.877998 141.948514 
L 341.122651 136.183286 
L 341.367304 141.943106 
L 341.611957 143.208929 
L 342.101263 137.028604 
L 342.345916 141.815105 
L 342.590569 138.46915 
L 342.835222 131.433285 
L 343.079875 134.130782 
L 343.324528 138.804236 
L 343.569181 139.994017 
L 344.058487 132.928496 
L 344.30314 133.293322 
L 344.547793 129.418885 
L 344.792446 133.03039 
L 345.037099 133.588444 
L 345.281752 127.63641 
L 345.526405 130.299182 
L 345.771058 127.982563 
L 346.015711 129.242894 
L 346.260364 127.429579 
L 346.505017 128.098314 
L 346.74967 121.901429 
L 346.994323 125.267577 
L 347.483629 109.823228 
L 347.728282 115.569361 
L 347.972935 118.534014 
L 348.217588 118.884308 
L 348.462241 114.05345 
L 348.706894 117.917663 
L 348.951547 115.164572 
L 349.1962 120.245857 
L 349.440853 116.846083 
L 349.685506 115.411197 
L 349.930159 111.670423 
L 350.174812 113.439465 
L 350.419465 105.718811 
L 350.664118 105.336158 
L 350.908771 100.606772 
L 351.153424 109.099998 
L 351.398077 107.934718 
L 351.64273 105.736808 
L 351.887383 107.425669 
L 352.376689 101.514359 
L 352.621342 99.819499 
L 352.865995 102.805359 
L 353.110648 100.352543 
L 353.599954 89.690471 
L 354.089261 67.60212 
L 354.333914 68.311409 
L 354.578567 66.966167 
L 354.82322 66.365362 
L 355.067873 59.283872 
L 355.557179 54.949728 
L 355.801832 55.221362 
L 356.291138 73.220251 
L 356.535791 68.821811 
L 356.780444 68.518155 
L 357.025097 75.756711 
L 357.26975 69.333902 
L 357.514403 70.610116 
L 358.003709 67.029027 
L 358.248362 62.104217 
L 358.493015 71.296678 
L 358.737668 73.943566 
L 359.226974 66.491758 
L 359.471627 75.180577 
L 359.71628 68.423274 
L 359.960933 80.295827 
L 360.205586 78.75778 
L 360.450239 81.248446 
L 360.694892 79.807646 
L 360.939545 89.245296 
L 361.184198 88.667472 
L 361.428851 89.264137 
L 361.673504 90.444794 
L 361.918157 86.362767 
L 362.16281 88.409864 
L 362.407463 82.582114 
L 362.652116 81.997953 
L 362.896769 83.247215 
L 363.141422 79.517002 
L 363.386075 80.158616 
L 363.630728 75.41191 
L 363.875381 80.001634 
L 364.60934 51.746983 
L 365.587952 63.069932 
L 365.832605 61.244621 
L 366.077258 65.306539 
L 366.321911 61.70737 
L 366.566564 62.967531 
L 366.811217 63.005129 
L 367.05587 59.673453 
L 367.300523 63.312586 
L 367.545176 58.066462 
L 367.789829 49.921925 
L 368.034482 50.304747 
L 368.279135 57.578958 
L 368.523788 61.084428 
L 368.768441 61.025624 
L 369.013094 63.192273 
L 369.257747 64.196347 
L 369.5024 67.069075 
L 369.747053 63.184923 
L 369.991706 67.072539 
L 370.236359 65.923059 
L 370.481012 67.437534 
L 371.214971 55.651498 
L 371.459624 54.665421 
L 371.704277 47.556894 
L 371.94893 47.424499 
L 372.438236 38.308079 
L 372.682889 35.039094 
L 372.927542 52.443177 
L 373.172195 48.881436 
L 373.906154 58.827375 
L 374.150807 66.997344 
L 374.39546 64.30348 
L 374.640113 60.342695 
L 374.884766 63.18205 
L 375.129419 83.33669 
L 375.374072 75.723338 
L 375.618725 75.246902 
L 375.863378 80.030023 
L 376.352684 63.886693 
L 376.597338 64.084821 
L 376.841991 64.58973 
L 377.086644 66.504685 
L 377.331297 56.169419 
L 377.57595 51.876759 
L 377.820603 51.795903 
L 378.065256 50.3257 
L 378.309909 40.61346 
L 378.799215 45.711474 
L 379.043868 41.460552 
L 379.288521 46.867966 
L 379.533174 47.474686 
L 380.02248 53.116305 
L 380.267133 48.76915 
L 380.756439 57.045237 
L 381.001092 54.083203 
L 381.245745 58.588439 
L 381.490398 56.219099 
L 381.490398 56.219099 
" style="fill:none;stroke:#1f77b4;stroke-linecap:square;stroke-width:1.5;"/>
   </g>
   <g id="line2d_28">
    <path clip-path="url(#pa8e8baa70f)" d="M 56.835852 186.854493 
L 57.080505 174.67286 
L 57.325158 178.216608 
L 57.569811 175.780282 
L 57.814464 189.733788 
L 58.059117 177.995124 
L 58.30377 179.988482 
L 58.548423 189.733788 
L 58.793076 191.948631 
L 59.527035 202.579874 
L 59.771688 200.808 
L 60.016341 201.472453 
L 60.260994 197.042768 
L 60.505647 197.485737 
L 60.7503 198.814642 
L 60.994953 203.465811 
L 61.484259 228.936498 
L 61.728912 220.963066 
L 62.707525 250.420469 
L 62.952178 244.661879 
L 63.196831 247.31969 
L 63.441484 242.225553 
L 63.686137 228.050561 
L 64.175443 238.903289 
L 64.420096 236.466962 
L 64.664749 241.339616 
L 64.909402 223.620877 
L 65.154055 228.715014 
L 65.643361 217.640802 
L 65.888014 219.855645 
L 66.132667 217.197834 
L 66.37732 230.708372 
L 66.621973 228.715014 
L 66.866626 238.460321 
L 67.111279 236.688447 
L 67.355932 224.506814 
L 67.600585 232.923215 
L 67.845238 222.956424 
L 68.089891 223.842361 
L 68.334544 226.057203 
L 68.579197 224.063845 
L 68.82385 218.526739 
L 69.068503 218.526739 
L 69.313156 218.969708 
L 69.557809 229.379467 
L 69.802462 228.936498 
L 70.047115 226.278688 
L 70.291768 228.49353 
L 70.781074 237.131415 
L 71.025727 234.916573 
L 71.27038 244.661879 
L 71.515033 248.427111 
L 71.759686 262.159134 
L 72.248992 251.527891 
L 72.493645 252.635312 
L 72.982951 246.212269 
L 73.472257 258.615386 
L 73.71691 244.218911 
L 73.961563 259.722807 
L 74.206216 267.69624 
L 74.450869 269.246629 
L 74.695522 273.897798 
L 74.940175 272.125925 
L 75.184828 275.448188 
L 75.429481 266.14585 
L 75.674134 263.266555 
L 75.918787 248.205627 
L 76.16344 247.984143 
L 76.408093 244.883363 
L 76.652746 232.923215 
L 76.897399 245.547816 
L 77.142052 244.218911 
L 77.386705 241.118131 
L 77.631358 232.037278 
L 77.876011 233.144699 
L 78.120664 245.104848 
L 78.365317 250.198985 
L 78.60997 246.655237 
L 78.854623 245.104848 
L 79.099276 237.795868 
L 79.343929 239.346257 
L 79.588582 234.473604 
L 79.833235 239.346257 
L 80.077888 240.232194 
L 80.322541 238.903289 
L 80.811847 247.31969 
L 81.0565 258.393902 
L 81.301153 252.413827 
L 81.790459 259.501323 
L 82.035112 266.367334 
L 82.279765 266.367334 
L 82.524418 276.334125 
L 82.769071 270.132566 
L 83.013724 240.232194 
L 83.258377 240.232194 
L 83.50303 238.903289 
L 83.992336 252.635312 
L 84.236989 252.856796 
L 84.726296 255.514607 
L 84.970949 253.742733 
L 85.215602 246.433753 
L 85.460255 246.433753 
L 85.949561 238.017352 
L 86.194214 250.641954 
L 86.438867 250.641954 
L 86.68352 251.084922 
L 87.172826 253.299764 
L 87.417479 244.218911 
L 87.662132 242.447037 
L 87.906785 248.205627 
L 88.151438 241.5611 
L 88.396091 245.7693 
L 88.640744 228.272046 
L 88.885397 224.506814 
L 89.13005 211.217759 
L 89.619356 217.862287 
L 89.864009 241.118131 
L 90.353315 257.064996 
L 90.597968 244.218911 
L 90.842621 238.681805 
L 91.087274 237.352899 
L 91.331927 237.795868 
L 91.57658 219.855645 
L 91.821233 237.574384 
L 92.555192 215.42596 
L 92.799845 215.868928 
L 93.044498 213.211118 
L 93.289151 216.311897 
L 93.533804 208.781433 
L 94.267763 202.35839 
L 94.757069 218.305255 
L 95.001722 208.781433 
L 95.246375 212.989633 
L 95.491028 214.540023 
L 95.980334 189.955273 
L 96.224987 185.525588 
L 96.46964 186.190041 
L 96.714293 184.418167 
L 96.958946 171.793565 
L 97.203599 182.203324 
L 97.448252 177.330671 
L 97.692905 177.109187 
L 97.937558 171.129113 
L 98.182211 183.310746 
L 98.426864 175.115829 
L 98.671517 185.304104 
L 98.91617 168.028333 
L 99.160823 171.350597 
L 99.405476 163.377164 
L 99.650129 160.940838 
L 99.894782 163.15568 
L 100.139435 185.08262 
L 100.384088 134.584214 
L 100.628741 130.597497 
L 100.873394 140.564288 
L 101.118047 128.161171 
L 101.3627 126.832265 
L 101.607353 127.275234 
L 101.852006 139.456867 
L 102.096659 135.027182 
L 102.341312 140.564288 
L 102.830618 135.470151 
L 103.075271 138.127961 
L 103.319924 143.665067 
L 103.564577 137.463509 
L 103.80923 141.007256 
L 104.053883 127.275234 
L 104.543189 140.121319 
L 105.032495 138.57093 
L 105.766454 118.637349 
L 106.011107 121.295159 
L 106.25576 134.362729 
L 106.500413 135.248666 
L 106.745066 137.242024 
L 106.98972 144.32952 
L 107.479026 130.597497 
L 107.968332 170.021691 
L 108.212985 187.297462 
L 108.702291 155.625216 
L 108.946944 172.679502 
L 109.191597 169.578723 
L 109.43625 155.8467 
L 109.680903 160.940838 
L 110.170209 178.438092 
L 110.414862 177.995124 
L 110.659515 179.545514 
L 111.148821 166.477944 
L 111.393474 177.995124 
L 111.638127 206.345106 
L 111.88278 192.391599 
L 112.127433 197.485737 
L 112.372086 193.277536 
L 112.616739 179.766998 
L 112.861392 181.317388 
L 113.106045 184.639651 
L 113.350698 176.887703 
L 113.595351 178.881061 
L 113.840004 176.22325 
L 114.32931 175.115829 
L 114.573963 168.692786 
L 114.818616 172.01505 
L 115.063269 164.263101 
L 115.307922 164.263101 
L 115.552575 164.70607 
L 115.797228 181.98184 
L 116.041881 168.471302 
L 116.286534 169.135754 
L 116.531187 162.934196 
L 116.77584 168.471302 
L 117.020493 165.813491 
L 117.265146 168.028333 
L 117.509799 168.471302 
L 117.754452 172.900987 
L 117.999105 180.874419 
L 118.243758 179.988482 
L 118.488411 185.304104 
L 118.733064 174.451376 
L 118.977717 182.203324 
L 119.467023 178.881061 
L 119.711676 183.753714 
L 119.956329 182.646293 
L 120.200982 183.53223 
L 120.445635 190.84121 
L 120.934941 197.485737 
L 121.179594 207.231043 
L 121.424247 208.11698 
L 121.6689 214.097055 
L 121.913553 216.97635 
L 122.158206 225.171266 
L 122.402859 224.506814 
L 122.647512 219.855645 
L 122.892165 228.715014 
L 123.136818 228.050561 
L 123.381471 223.620877 
L 123.626124 229.157983 
L 123.870777 227.386109 
L 124.11543 233.587667 
L 124.360083 219.412676 
L 124.604736 226.057203 
L 124.849389 223.620877 
L 125.338695 217.419318 
L 125.583348 214.097055 
L 125.828001 221.627519 
L 126.317307 212.325181 
L 126.56196 213.87557 
L 126.806613 196.156831 
L 127.051266 202.35839 
L 127.295919 200.365032 
L 127.540572 217.419318 
L 127.785225 219.63416 
L 128.029878 224.063845 
L 128.274531 214.982991 
L 128.519184 222.513456 
L 128.763837 234.030636 
L 129.00849 232.480246 
L 129.253143 243.997426 
L 129.497797 249.977501 
L 129.74245 249.091564 
L 129.987103 252.413827 
L 130.231756 247.31969 
L 130.476409 251.749375 
L 130.721062 236.245478 
L 130.965715 236.466962 
L 131.210368 233.366183 
L 131.455021 238.903289 
L 131.699674 231.372825 
L 131.944327 219.191192 
L 132.18898 214.097055 
L 132.433633 213.211118 
L 132.678286 207.231043 
L 132.922939 207.231043 
L 133.167592 213.654086 
L 133.412245 208.559949 
L 133.656898 195.713863 
L 133.901551 191.505662 
L 134.146204 195.492379 
L 134.390857 196.5998 
L 134.63551 195.713863 
L 134.880163 197.928705 
L 135.124816 198.150189 
L 135.369469 185.968556 
L 135.614122 190.84121 
L 135.858775 185.968556 
L 136.103428 189.955273 
L 136.348081 189.733788 
L 136.592734 184.418167 
L 136.837387 182.424809 
L 137.08204 182.203324 
L 137.815999 185.747072 
L 138.060652 177.552155 
L 138.305305 177.552155 
L 138.549958 178.881061 
L 138.794611 181.538872 
L 139.039264 182.867777 
L 139.283917 182.867777 
L 139.52857 185.304104 
L 139.773223 179.324029 
L 140.017876 178.881061 
L 140.262529 190.84121 
L 140.507182 176.887703 
L 140.751835 178.216608 
L 140.996488 190.398241 
L 141.241141 184.196683 
L 141.485794 204.573232 
L 141.730447 204.130264 
L 141.9751 203.244327 
L 142.219753 207.009559 
L 142.464406 186.633009 
L 142.709059 190.176757 
L 143.198365 183.53223 
L 143.443018 182.867777 
L 144.42163 158.061543 
L 144.666283 172.458018 
L 145.155589 181.095903 
L 145.400242 178.438092 
L 145.644895 188.404883 
L 145.889548 193.056052 
L 146.134201 184.196683 
L 146.378854 197.485737 
L 146.623507 193.941989 
L 146.86816 192.391599 
L 147.112813 193.499021 
L 147.357466 203.022843 
L 147.602119 188.847852 
L 147.846772 189.29082 
L 148.336078 212.768149 
L 148.580731 215.204476 
L 148.825384 212.103696 
L 149.070037 233.587667 
L 149.31469 227.607593 
L 149.559343 235.359541 
L 149.803996 249.091564 
L 150.048649 242.890005 
L 150.293302 240.01071 
L 150.537955 230.708372 
L 150.782608 232.480246 
L 151.027261 218.748223 
L 151.271914 217.197834 
L 151.516567 220.077129 
L 151.76122 216.97635 
L 152.005874 210.774791 
L 152.250527 243.11149 
L 152.49518 251.306406 
L 152.739833 246.876722 
L 152.984486 249.534532 
L 153.473792 236.466962 
L 153.718445 234.25212 
L 154.207751 226.94314 
L 154.452404 228.715014 
L 154.697057 224.506814 
L 154.94171 223.620877 
L 155.431016 219.191192 
L 155.675669 216.97635 
L 155.920322 213.654086 
L 156.164975 220.963066 
L 156.409628 232.037278 
L 156.654281 227.607593 
L 157.143587 222.513456 
L 157.38824 228.272046 
L 157.632893 221.406034 
L 157.877546 221.627519 
L 158.122199 222.513456 
L 158.366852 217.640802 
L 158.611505 217.862287 
L 159.100811 210.331822 
L 159.590117 222.291971 
L 159.83477 224.063845 
L 160.079423 229.822435 
L 160.324076 226.500172 
L 160.813382 211.439244 
L 161.058035 209.445886 
L 161.302688 211.660728 
L 161.547341 217.419318 
L 161.791994 215.204476 
L 162.036647 183.089261 
L 162.2813 174.008408 
L 162.525953 171.129113 
L 162.770606 170.46466 
L 163.015259 171.350597 
L 163.259912 170.907628 
L 163.504565 171.572081 
L 163.749218 164.70607 
L 163.993871 164.263101 
L 164.238524 174.451376 
L 164.483177 169.578723 
L 164.72783 169.800207 
L 164.972483 166.034975 
L 165.461789 176.22325 
L 165.706442 166.920912 
L 165.951095 170.907628 
L 166.195748 167.806849 
L 166.440401 168.91427 
L 166.685054 162.491227 
L 166.929707 167.363881 
L 167.17436 175.558797 
L 167.419013 167.363881 
L 167.908319 174.229892 
L 168.152972 167.806849 
L 168.397625 174.229892 
L 168.642278 174.229892 
L 168.886931 170.021691 
L 169.131584 174.229892 
L 169.376237 172.458018 
L 169.62089 166.920912 
L 169.865543 168.028333 
L 170.110196 167.585365 
L 170.354849 169.578723 
L 170.844155 165.149038 
L 171.088808 166.920912 
L 171.333461 163.377164 
L 171.578114 168.028333 
L 171.822767 177.77364 
L 172.06742 178.881061 
L 172.556726 166.699428 
L 172.801379 152.524437 
L 173.046032 147.430299 
L 173.290685 149.645142 
L 173.535338 148.759205 
L 174.024644 143.665067 
L 174.269298 142.114678 
L 174.758604 134.805698 
L 175.003257 136.356087 
L 175.24791 136.356087 
L 175.492563 137.684993 
L 175.737216 139.678351 
L 175.981869 144.108036 
L 176.226522 143.886552 
L 176.471175 137.02054 
L 176.715828 143.443583 
L 176.960481 134.362729 
L 177.205134 140.564288 
L 177.449787 140.121319 
L 177.69444 142.336162 
L 177.939093 133.255308 
L 178.183746 133.919761 
L 178.428399 160.719353 
L 178.673052 169.135754 
L 178.917705 165.592007 
L 179.162358 164.927554 
L 179.651664 179.324029 
L 179.896317 195.492379 
L 180.14097 202.801358 
L 180.385623 202.801358 
L 180.630276 200.365032 
L 180.874929 205.237685 
L 181.119582 188.847852 
L 181.364235 201.472453 
L 182.098194 194.163473 
L 182.5875 183.089261 
L 183.076806 157.175606 
L 183.321459 159.168964 
L 183.566112 159.390448 
L 183.810765 155.8467 
L 184.055418 162.269743 
L 184.544724 151.6385 
L 184.789377 151.6385 
L 185.03403 150.974047 
L 185.278683 148.980689 
L 185.523336 150.752563 
L 186.012642 145.658425 
L 186.257295 146.322878 
L 186.501948 147.651784 
L 186.991254 139.013898 
L 187.235907 143.886552 
L 187.48056 154.739279 
L 187.725213 153.853342 
L 187.969866 150.752563 
L 188.214519 151.417016 
L 188.948478 137.906477 
L 189.193131 145.215457 
L 189.437784 136.799056 
L 189.682437 147.651784 
L 189.92709 138.349446 
L 190.171743 137.242024 
L 190.416396 128.161171 
L 190.661049 126.389297 
L 190.905702 128.161171 
L 191.150355 120.630707 
L 191.395008 107.341652 
L 191.639661 100.254157 
L 191.884314 86.30065 
L 192.128967 101.361578 
L 192.37362 88.072524 
L 193.107579 115.536569 
L 193.352232 130.376013 
L 193.841538 114.207664 
L 194.086191 172.01505 
L 194.330844 173.343955 
L 194.82015 164.263101 
L 195.309456 174.67286 
L 196.043415 145.436941 
L 196.288068 146.987331 
L 196.532721 146.765847 
L 196.777375 135.913119 
L 197.022028 136.356087 
L 197.266681 135.691635 
L 197.511334 134.141245 
L 197.755987 131.483434 
L 198.00064 127.05375 
L 198.245293 125.281876 
L 198.489946 126.610781 
L 198.734599 122.402581 
L 199.223905 93.60963 
L 199.468558 92.945177 
L 199.713211 87.408071 
L 199.957864 92.502209 
L 200.202517 88.958461 
L 200.44717 92.05924 
L 200.691823 80.099091 
L 200.936476 86.30065 
L 201.181129 86.522134 
L 201.425782 102.911968 
L 201.670435 109.556495 
L 201.915088 108.892042 
L 202.159741 117.529927 
L 202.404394 141.893193 
L 202.649047 151.6385 
L 202.8937 153.188889 
L 203.383006 174.451376 
L 203.627659 178.438092 
L 204.116965 134.141245 
L 204.361618 143.886552 
L 204.606271 135.027182 
L 204.850924 121.295159 
L 205.095577 121.959612 
L 205.34023 121.516644 
L 205.829536 125.946328 
L 206.074189 137.906477 
L 206.318842 139.678351 
L 206.563495 139.678351 
L 206.808148 132.590855 
L 207.297454 109.335011 
L 207.78676 128.604139 
L 208.031413 128.825623 
L 208.276066 130.376013 
L 208.520719 134.362729 
L 208.765372 131.040466 
L 209.010025 117.086959 
L 209.254678 112.657274 
L 209.499331 103.354936 
L 210.477943 144.551004 
L 210.722596 140.564288 
L 210.967249 161.162322 
L 211.211902 151.859984 
L 211.701208 149.866626 
L 211.945861 147.430299 
L 212.435167 159.833417 
L 212.67982 133.919761 
L 212.924473 134.584214 
L 213.658432 146.987331 
L 213.903085 148.759205 
L 214.147738 140.342804 
L 214.637044 146.101394 
L 214.881697 139.899835 
L 215.12635 141.671709 
L 215.371003 132.590855 
L 215.615656 113.98618 
L 215.860309 116.201022 
L 216.104962 121.738128 
L 216.349615 131.704919 
L 216.594268 133.919761 
L 216.838921 153.410374 
L 217.083574 156.289669 
L 217.57288 184.861135 
L 217.817533 174.451376 
L 218.062186 189.069336 
L 218.551492 175.780282 
L 218.796145 173.786923 
L 219.040798 186.633009 
L 219.285452 172.679502 
L 219.530105 173.343955 
L 219.774758 176.666219 
L 220.019411 177.109187 
L 220.264064 179.324029 
L 220.508717 185.304104 
L 220.75337 175.780282 
L 220.998023 174.894345 
L 221.242676 172.01505 
L 221.487329 172.01505 
L 221.731982 161.162322 
L 222.221288 167.363881 
L 222.465941 163.820133 
L 223.444553 178.216608 
L 223.689206 173.786923 
L 223.933859 180.431451 
L 224.178512 172.458018 
L 224.423165 169.800207 
L 224.667818 158.061543 
L 224.912471 166.034975 
L 225.64643 170.021691 
L 225.891083 176.22325 
L 226.135736 174.67286 
L 226.380389 166.920912 
L 226.625042 165.813491 
L 226.869695 170.46466 
L 227.114348 172.458018 
L 227.359001 171.572081 
L 227.603654 165.370522 
L 227.848307 166.256459 
L 228.09296 171.793565 
L 228.582266 153.853342 
L 228.826919 153.410374 
L 229.071572 157.840058 
L 229.316225 158.061543 
L 229.560878 157.175606 
L 229.805531 159.833417 
L 230.050184 160.276385 
L 230.294837 165.149038 
L 230.53949 162.269743 
L 230.784143 161.826775 
L 231.028796 165.813491 
L 231.273449 166.256459 
L 231.518102 165.149038 
L 231.762755 167.806849 
L 232.007408 174.008408 
L 232.252061 184.861135 
L 232.741367 182.646293 
L 232.98602 179.766998 
L 233.719979 196.156831 
L 233.964632 185.304104 
L 234.209285 181.095903 
L 234.453938 172.679502 
L 234.698591 178.216608 
L 234.943244 176.444734 
L 235.187897 178.659577 
L 235.677203 186.633009 
L 235.921856 187.075978 
L 236.166509 200.365032 
L 236.411162 204.130264 
L 236.655815 198.150189 
L 236.900468 198.371674 
L 237.145121 199.922063 
L 237.389774 181.538872 
L 237.634427 190.176757 
L 237.87908 188.847852 
L 238.613039 161.162322 
L 238.857692 162.048259 
L 239.102345 154.296311 
L 239.346998 159.390448 
L 239.591651 156.511153 
L 239.836304 160.719353 
L 240.080957 167.142396 
L 240.32561 168.471302 
L 240.570263 177.330671 
L 240.814916 175.115829 
L 241.059569 174.894345 
L 241.304222 174.008408 
L 241.548875 174.67286 
L 242.038182 152.967405 
L 242.527488 140.121319 
L 243.016794 147.873268 
L 243.261447 149.866626 
L 243.995406 162.712712 
L 244.484712 157.175606 
L 244.729365 158.283027 
L 244.974018 169.800207 
L 245.218671 174.894345 
L 245.707977 222.956424 
L 245.95263 231.594309 
L 246.441936 203.244327 
L 246.686589 199.257611 
L 246.931242 202.136906 
L 247.175895 214.761507 
L 247.420548 211.439244 
L 247.665201 205.680654 
L 247.909854 219.855645 
L 248.154507 211.439244 
L 248.39916 224.728298 
L 248.643813 222.070487 
L 248.888466 228.49353 
L 249.133119 229.157983 
L 249.377772 220.298613 
L 249.622425 205.902138 
L 249.867078 200.808 
L 250.111731 209.66737 
L 250.356384 205.016201 
L 250.601037 213.87557 
L 250.84569 214.540023 
L 251.334996 195.492379 
L 251.579649 197.485737 
L 251.824302 194.606442 
L 252.068955 184.418167 
L 252.313608 191.505662 
L 252.802914 164.70607 
L 253.047567 165.813491 
L 253.536873 143.222099 
L 253.781526 142.336162 
L 254.026179 142.77913 
L 254.270832 150.531079 
L 254.515485 149.866626 
L 254.760138 144.551004 
L 255.004791 142.336162 
L 255.249444 143.000615 
L 255.494097 136.356087 
L 255.73875 138.57093 
L 255.983403 115.315085 
L 256.228056 125.281876 
L 256.472709 129.71156 
L 256.717362 129.268592 
L 256.962015 126.610781 
L 257.206668 125.281876 
L 257.451321 135.027182 
L 258.18528 143.443583 
L 258.429933 135.470151 
L 258.919239 152.967405 
L 259.408545 141.893193 
L 259.653198 152.081468 
L 259.897851 156.511153 
L 260.142504 143.665067 
L 260.387157 150.08811 
L 260.876463 118.19438 
L 261.121116 133.255308 
L 261.610422 112.657274 
L 261.855075 112.657274 
L 262.099728 117.308443 
L 262.344381 129.047108 
L 262.589034 123.067033 
L 262.833687 125.724844 
L 263.07834 132.590855 
L 263.322993 114.207664 
L 263.567646 116.201022 
L 263.812299 120.409222 
L 264.056952 128.161171 
L 264.301606 125.946328 
L 264.546259 136.799056 
L 264.790912 132.81234 
L 265.280218 102.026031 
L 265.524871 109.777979 
L 265.769524 131.704919 
L 266.014177 125.50336 
L 266.503483 105.791263 
L 266.748136 108.670558 
L 266.992789 109.777979 
L 267.237442 104.905326 
L 267.482095 108.006105 
L 267.971401 133.919761 
L 268.216054 130.597497 
L 268.460707 135.691635 
L 268.70536 151.195531 
L 268.950013 153.631858 
L 269.194666 152.081468 
L 269.439319 140.121319 
L 269.683972 146.101394 
L 269.928625 145.436941 
L 270.173278 153.853342 
L 270.417931 144.551004 
L 270.662584 156.511153 
L 270.907237 156.289669 
L 271.15189 141.450225 
L 271.396543 139.235383 
L 271.641196 141.007256 
L 271.885849 140.785772 
L 272.375155 122.402581 
L 272.619808 120.630707 
L 272.864461 133.033824 
L 273.109114 126.832265 
L 273.353767 131.040466 
L 273.59842 133.033824 
L 273.843073 128.382655 
L 274.087726 113.98618 
L 274.332379 130.597497 
L 274.577032 133.698277 
L 274.821685 118.19438 
L 275.066338 112.657274 
L 275.800297 103.57642 
L 276.04495 99.811188 
L 276.289603 105.348294 
L 276.778909 94.938535 
L 277.023562 117.529927 
L 277.268215 117.751412 
L 277.512868 105.348294 
L 277.757521 103.57642 
L 278.246827 96.045956 
L 278.49148 98.260799 
L 278.736133 91.394787 
L 279.225439 71.239722 
L 279.470092 71.904175 
L 279.714745 69.910816 
L 279.959398 71.018238 
L 280.204051 75.226438 
L 280.448704 59.279573 
L 280.693357 63.044805 
L 280.93801 61.494416 
L 281.182663 65.259648 
L 281.427316 66.145584 
L 281.671969 63.487774 
L 281.916622 58.61512 
L 282.161275 43.554192 
L 282.405928 41.33935 
L 282.650581 45.54755 
L 282.895234 35.802244 
L 283.139887 34.473339 
L 283.38454 42.446771 
L 283.629193 38.460055 
L 283.873846 46.212003 
L 284.118499 34.916307 
L 284.363152 44.440129 
L 284.607805 39.78896 
L 284.852458 53.299499 
L 285.097111 57.950668 
L 285.341764 51.970593 
L 285.586417 49.312782 
L 285.83107 40.896382 
L 286.075723 90.287366 
L 286.320376 106.012747 
L 286.56503 86.522134 
L 286.809683 82.756902 
L 287.054336 86.743618 
L 287.298989 83.421355 
L 287.543642 84.528776 
L 288.032948 76.776828 
L 288.277601 79.877607 
L 289.01156 69.246364 
L 289.256213 71.018238 
L 289.500866 59.722542 
L 289.745519 66.145584 
L 289.990172 57.950668 
L 290.234825 68.581911 
L 290.479478 62.601837 
L 290.724131 81.870965 
L 291.45809 99.589704 
L 291.702743 99.146736 
L 291.947396 90.287366 
L 292.192049 90.065882 
L 292.436702 83.199871 
L 292.681355 81.206513 
L 292.926008 85.193229 
L 293.170661 82.978386 
L 293.415314 82.535418 
L 293.90462 68.138943 
L 294.149273 69.246364 
L 294.883232 54.40692 
L 295.127885 73.676049 
L 295.372538 75.447922 
L 295.617191 76.112375 
L 295.861844 69.467848 
L 296.106497 80.985028 
L 296.595803 73.454564 
L 296.840456 79.434639 
L 297.085109 74.561985 
L 297.329762 100.032673 
L 297.574415 103.354936 
L 298.063721 88.736977 
L 298.308374 69.02488 
L 298.553027 73.676049 
L 298.79768 66.810037 
L 299.286986 74.340501 
L 299.776292 63.709258 
L 300.020945 63.487774 
L 300.265598 59.944026 
L 300.754904 62.380352 
L 301.24421 62.380352 
L 301.488863 65.038163 
L 301.733516 66.367069 
L 301.978169 57.950668 
L 302.222822 63.709258 
L 302.467475 78.99167 
L 302.712128 111.771337 
L 302.956781 106.234231 
L 303.201434 106.6772 
L 303.446087 110.663916 
L 303.935393 106.455716 
L 304.180046 109.335011 
L 304.669352 110.8854 
L 304.914005 110.220948 
L 305.403311 104.019389 
L 305.892617 93.166661 
L 306.13727 102.247515 
L 306.381923 97.153378 
L 306.626576 96.267441 
L 307.115882 104.240873 
L 307.360535 101.804547 
L 307.605188 101.804547 
L 307.849841 105.791263 
L 308.094494 113.543211 
L 308.339147 108.670558 
L 308.5838 115.315085 
L 308.828453 111.106885 
L 309.073107 112.878758 
L 309.31776 106.012747 
L 309.562413 103.133452 
L 309.807066 106.455716 
L 310.051719 106.6772 
L 310.296372 136.799056 
L 310.541025 116.422506 
L 310.785678 136.577572 
L 311.030331 140.342804 
L 311.274984 134.805698 
L 311.519637 139.678351 
L 311.76429 140.564288 
L 312.253596 131.040466 
L 312.498249 121.516644 
L 312.742902 126.389297 
L 312.987555 141.671709 
L 313.232208 129.71156 
L 313.476861 139.456867 
L 313.721514 142.114678 
L 313.966167 135.691635 
L 314.455473 146.322878 
L 314.700126 146.987331 
L 314.944779 149.202173 
L 315.189432 148.759205 
L 315.434085 148.759205 
L 315.678738 152.967405 
L 315.923391 147.651784 
L 316.168044 148.094752 
L 316.65735 151.6385 
L 316.902003 143.443583 
L 317.146656 141.671709 
L 317.391309 144.32952 
L 317.635962 139.899835 
L 317.880615 130.376013 
L 318.125268 130.818982 
L 318.369921 133.033824 
L 318.614574 140.121319 
L 318.859227 137.684993 
L 319.10388 133.919761 
L 319.348533 140.121319 
L 319.593186 141.671709 
L 319.837839 142.114678 
L 320.082492 149.645142 
L 320.327145 132.590855 
L 320.571798 123.288518 
L 320.816451 136.799056 
L 321.061104 166.256459 
L 321.305757 164.263101 
L 321.55041 161.162322 
L 321.795063 155.182248 
L 322.529022 166.920912 
L 322.773675 156.954121 
L 323.018328 156.732637 
L 323.262981 162.269743 
L 323.507634 153.188889 
L 323.752287 148.316236 
L 324.486246 183.310746 
L 324.975552 173.343955 
L 325.220205 174.451376 
L 325.464858 158.504511 
L 325.709511 165.370522 
L 325.954164 142.77913 
L 326.44347 148.094752 
L 326.688123 160.276385 
L 327.177429 148.53772 
L 327.422082 150.08811 
L 327.666735 150.309594 
L 327.911388 152.302953 
L 328.156041 152.745921 
L 328.400694 151.6385 
L 328.645347 151.417016 
L 328.89 156.289669 
L 329.134653 151.6385 
L 329.379306 154.739279 
L 329.623959 147.208815 
L 329.868612 150.531079 
L 330.113265 148.316236 
L 330.357918 148.53772 
L 330.847224 164.041617 
L 331.091877 163.820133 
L 331.581184 167.585365 
L 331.825837 160.054901 
L 332.07049 158.504511 
L 332.315143 161.826775 
L 332.804449 155.403732 
L 333.049102 144.993973 
L 333.293755 140.121319 
L 333.783061 154.960763 
L 334.027714 156.511153 
L 334.272367 152.302953 
L 334.51702 159.168964 
L 335.006326 152.967405 
L 335.250979 152.524437 
L 335.495632 144.993973 
L 335.740285 142.336162 
L 336.229591 174.229892 
L 336.474244 173.343955 
L 336.96355 177.330671 
L 337.208203 160.497869 
L 337.452856 159.833417 
L 337.942162 151.6385 
L 338.186815 150.309594 
L 338.431468 147.651784 
L 338.676121 150.08811 
L 339.41008 132.369371 
L 339.654733 132.147887 
L 340.144039 143.000615 
L 340.388692 143.000615 
L 340.633345 142.114678 
L 340.877998 136.356087 
L 341.122651 142.114678 
L 341.367304 143.443583 
L 341.85661 137.242024 
L 342.101263 142.114678 
L 342.345916 138.792414 
L 342.590569 131.704919 
L 342.835222 134.362729 
L 343.079875 139.013898 
L 343.324528 140.121319 
L 343.813834 133.255308 
L 344.058487 133.476792 
L 344.30314 129.490076 
L 344.547793 133.033824 
L 344.792446 133.698277 
L 345.037099 127.718202 
L 345.281752 130.154529 
L 345.526405 127.939686 
L 345.771058 129.268592 
L 346.015711 127.496718 
L 346.260364 128.161171 
L 346.505017 121.959612 
L 346.74967 125.281876 
L 346.994323 119.080317 
L 347.238976 109.999463 
L 347.728282 118.637349 
L 347.972935 119.080317 
L 348.217588 114.429148 
L 348.462241 118.19438 
L 348.706894 115.315085 
L 348.951547 120.409222 
L 349.1962 117.308443 
L 349.440853 115.758053 
L 349.685506 111.992821 
L 349.930159 113.543211 
L 350.174812 106.012747 
L 350.419465 105.348294 
L 350.664118 100.91861 
L 350.908771 109.335011 
L 351.153424 108.006105 
L 351.398077 105.791263 
L 351.64273 107.563137 
L 352.132036 101.804547 
L 352.376689 100.032673 
L 352.621342 102.911968 
L 352.865995 100.697125 
L 353.355301 89.844398 
L 353.844607 67.253006 
L 354.089261 67.695974 
L 354.578567 65.9241 
L 354.82322 58.836605 
L 355.312526 54.40692 
L 355.557179 54.628404 
L 356.046485 73.454564 
L 356.291138 69.246364 
L 356.535791 69.02488 
L 356.780444 75.669407 
L 357.025097 69.689332 
L 357.26975 70.796753 
L 357.759056 67.917458 
L 358.003709 62.823321 
L 358.248362 71.461206 
L 358.493015 74.78347 
L 358.982321 66.810037 
L 359.226974 75.226438 
L 359.471627 69.246364 
L 359.71628 80.099091 
L 359.960933 79.656123 
L 360.205586 81.649481 
L 360.450239 80.320576 
L 360.694892 89.622914 
L 361.184198 90.065882 
L 361.428851 91.173303 
L 361.673504 87.186587 
L 361.918157 88.958461 
L 362.16281 83.421355 
L 362.407463 82.313934 
L 362.652116 83.642839 
L 362.896769 80.099091 
L 363.141422 80.320576 
L 363.386075 75.669407 
L 363.630728 79.877607 
L 364.364687 51.527625 
L 364.60934 53.963951 
L 365.098646 60.829963 
L 365.343299 63.266289 
L 365.587952 61.494416 
L 365.832605 65.259648 
L 366.077258 62.158868 
L 366.321911 63.044805 
L 366.566564 63.266289 
L 366.811217 59.944026 
L 367.05587 63.266289 
L 367.300523 58.61512 
L 367.545176 49.977235 
L 367.789829 49.755751 
L 368.279135 61.494416 
L 368.523788 61.272931 
L 369.257747 67.253006 
L 369.5024 63.709258 
L 369.747053 67.031521 
L 369.991706 66.367069 
L 370.236359 67.695974 
L 371.214971 55.071373 
L 371.459624 47.983877 
L 371.704277 47.540909 
L 372.438236 34.916307 
L 372.682889 51.749109 
L 372.927542 50.198719 
L 373.172195 51.749109 
L 373.416848 54.628404 
L 373.661501 59.058089 
L 373.906154 67.47449 
L 374.150807 65.481132 
L 374.39546 61.051447 
L 374.640113 63.709258 
L 374.884766 84.307292 
L 375.129419 78.327217 
L 375.374072 76.112375 
L 375.618725 80.763544 
L 376.108031 65.259648 
L 376.352684 64.816679 
L 376.597338 65.481132 
L 376.841991 67.253006 
L 377.086644 57.064731 
L 377.331297 51.970593 
L 377.57595 51.749109 
L 377.820603 50.198719 
L 378.065256 40.453413 
L 378.554562 45.326066 
L 378.799215 41.117866 
L 379.043868 45.769035 
L 379.288521 47.09794 
L 379.777827 53.078015 
L 380.02248 49.091298 
L 380.511786 57.286215 
L 380.756439 54.628404 
L 381.001092 58.61512 
L 381.490398 54.849888 
L 381.490398 54.849888 
" style="fill:none;stroke:#ff7f0e;stroke-linecap:square;stroke-width:1.5;"/>
   </g>
   <g id="patch_3">
    <path d="M 40.603125 288.430125 
L 40.603125 22.318125 
" style="fill:none;stroke:#000000;stroke-linecap:square;stroke-linejoin:miter;stroke-width:0.8;"/>
   </g>
   <g id="patch_4">
    <path d="M 397.723125 288.430125 
L 397.723125 22.318125 
" style="fill:none;stroke:#000000;stroke-linecap:square;stroke-linejoin:miter;stroke-width:0.8;"/>
   </g>
   <g id="patch_5">
    <path d="M 40.603125 288.430125 
L 397.723125 288.430125 
" style="fill:none;stroke:#000000;stroke-linecap:square;stroke-linejoin:miter;stroke-width:0.8;"/>
   </g>
   <g id="patch_6">
    <path d="M 40.603125 22.318125 
L 397.723125 22.318125 
" style="fill:none;stroke:#000000;stroke-linecap:square;stroke-linejoin:miter;stroke-width:0.8;"/>
   </g>
   <g id="text_16">
    <!-- Training: KO -->
    <defs>
     <path d="M -0.296875 72.90625 
L 61.375 72.90625 
L 61.375 64.59375 
L 35.5 64.59375 
L 35.5 0 
L 25.59375 0 
L 25.59375 64.59375 
L -0.296875 64.59375 
z
" id="DejaVuSans-84"/>
     <path d="M 54.890625 33.015625 
L 54.890625 0 
L 45.90625 0 
L 45.90625 32.71875 
Q 45.90625 40.484375 42.875 44.328125 
Q 39.84375 48.1875 33.796875 48.1875 
Q 26.515625 48.1875 22.3125 43.546875 
Q 18.109375 38.921875 18.109375 30.90625 
L 18.109375 0 
L 9.078125 0 
L 9.078125 54.6875 
L 18.109375 54.6875 
L 18.109375 46.1875 
Q 21.34375 51.125 25.703125 53.5625 
Q 30.078125 56 35.796875 56 
Q 45.21875 56 50.046875 50.171875 
Q 54.890625 44.34375 54.890625 33.015625 
z
" id="DejaVuSans-110"/>
     <path d="M 45.40625 27.984375 
Q 45.40625 37.75 41.375 43.109375 
Q 37.359375 48.484375 30.078125 48.484375 
Q 22.859375 48.484375 18.828125 43.109375 
Q 14.796875 37.75 14.796875 27.984375 
Q 14.796875 18.265625 18.828125 12.890625 
Q 22.859375 7.515625 30.078125 7.515625 
Q 37.359375 7.515625 41.375 12.890625 
Q 45.40625 18.265625 45.40625 27.984375 
z
M 54.390625 6.78125 
Q 54.390625 -7.171875 48.1875 -13.984375 
Q 42 -20.796875 29.203125 -20.796875 
Q 24.46875 -20.796875 20.265625 -20.09375 
Q 16.0625 -19.390625 12.109375 -17.921875 
L 12.109375 -9.1875 
Q 16.0625 -11.328125 19.921875 -12.34375 
Q 23.78125 -13.375 27.78125 -13.375 
Q 36.625 -13.375 41.015625 -8.765625 
Q 45.40625 -4.15625 45.40625 5.171875 
L 45.40625 9.625 
Q 42.625 4.78125 38.28125 2.390625 
Q 33.9375 0 27.875 0 
Q 17.828125 0 11.671875 7.65625 
Q 5.515625 15.328125 5.515625 27.984375 
Q 5.515625 40.671875 11.671875 48.328125 
Q 17.828125 56 27.875 56 
Q 33.9375 56 38.28125 53.609375 
Q 42.625 51.21875 45.40625 46.390625 
L 45.40625 54.6875 
L 54.390625 54.6875 
z
" id="DejaVuSans-103"/>
     <path d="M 11.71875 12.40625 
L 22.015625 12.40625 
L 22.015625 0 
L 11.71875 0 
z
M 11.71875 51.703125 
L 22.015625 51.703125 
L 22.015625 39.3125 
L 11.71875 39.3125 
z
" id="DejaVuSans-58"/>
     <path d="M 9.8125 72.90625 
L 19.671875 72.90625 
L 19.671875 42.09375 
L 52.390625 72.90625 
L 65.09375 72.90625 
L 28.90625 38.921875 
L 67.671875 0 
L 54.6875 0 
L 19.671875 35.109375 
L 19.671875 0 
L 9.8125 0 
z
" id="DejaVuSans-75"/>
     <path d="M 39.40625 66.21875 
Q 28.65625 66.21875 22.328125 58.203125 
Q 16.015625 50.203125 16.015625 36.375 
Q 16.015625 22.609375 22.328125 14.59375 
Q 28.65625 6.59375 39.40625 6.59375 
Q 50.140625 6.59375 56.421875 14.59375 
Q 62.703125 22.609375 62.703125 36.375 
Q 62.703125 50.203125 56.421875 58.203125 
Q 50.140625 66.21875 39.40625 66.21875 
z
M 39.40625 74.21875 
Q 54.734375 74.21875 63.90625 63.9375 
Q 73.09375 53.65625 73.09375 36.375 
Q 73.09375 19.140625 63.90625 8.859375 
Q 54.734375 -1.421875 39.40625 -1.421875 
Q 24.03125 -1.421875 14.8125 8.828125 
Q 5.609375 19.09375 5.609375 36.375 
Q 5.609375 53.65625 14.8125 63.9375 
Q 24.03125 74.21875 39.40625 74.21875 
z
" id="DejaVuSans-79"/>
    </defs>
    <g transform="translate(183.23625 16.318125)scale(0.12 -0.12)">
     <use xlink:href="#DejaVuSans-84"/>
     <use x="46.333984" xlink:href="#DejaVuSans-114"/>
     <use x="87.447266" xlink:href="#DejaVuSans-97"/>
     <use x="148.726562" xlink:href="#DejaVuSans-105"/>
     <use x="176.509766" xlink:href="#DejaVuSans-110"/>
     <use x="239.888672" xlink:href="#DejaVuSans-105"/>
     <use x="267.671875" xlink:href="#DejaVuSans-110"/>
     <use x="331.050781" xlink:href="#DejaVuSans-103"/>
     <use x="394.527344" xlink:href="#DejaVuSans-58"/>
     <use x="428.21875" xlink:href="#DejaVuSans-32"/>
     <use x="460.005859" xlink:href="#DejaVuSans-75"/>
     <use x="520.082031" xlink:href="#DejaVuSans-79"/>
    </g>
   </g>
   <g id="legend_1">
    <g id="patch_7">
     <path d="M 47.603125 59.674375 
L 131.33125 59.674375 
Q 133.33125 59.674375 133.33125 57.674375 
L 133.33125 29.318125 
Q 133.33125 27.318125 131.33125 27.318125 
L 47.603125 27.318125 
Q 45.603125 27.318125 45.603125 29.318125 
L 45.603125 57.674375 
Q 45.603125 59.674375 47.603125 59.674375 
z
" style="fill:#ffffff;opacity:0.8;stroke:#cccccc;stroke-linejoin:miter;"/>
    </g>
    <g id="line2d_29">
     <path d="M 49.603125 35.416562 
L 69.603125 35.416562 
" style="fill:none;stroke:#1f77b4;stroke-linecap:square;stroke-width:1.5;"/>
    </g>
    <g id="line2d_30"/>
    <g id="text_17">
     <!-- Predicted -->
     <defs>
      <path d="M 45.40625 46.390625 
L 45.40625 75.984375 
L 54.390625 75.984375 
L 54.390625 0 
L 45.40625 0 
L 45.40625 8.203125 
Q 42.578125 3.328125 38.25 0.953125 
Q 33.9375 -1.421875 27.875 -1.421875 
Q 17.96875 -1.421875 11.734375 6.484375 
Q 5.515625 14.40625 5.515625 27.296875 
Q 5.515625 40.1875 11.734375 48.09375 
Q 17.96875 56 27.875 56 
Q 33.9375 56 38.25 53.625 
Q 42.578125 51.265625 45.40625 46.390625 
z
M 14.796875 27.296875 
Q 14.796875 17.390625 18.875 11.75 
Q 22.953125 6.109375 30.078125 6.109375 
Q 37.203125 6.109375 41.296875 11.75 
Q 45.40625 17.390625 45.40625 27.296875 
Q 45.40625 37.203125 41.296875 42.84375 
Q 37.203125 48.484375 30.078125 48.484375 
Q 22.953125 48.484375 18.875 42.84375 
Q 14.796875 37.203125 14.796875 27.296875 
z
" id="DejaVuSans-100"/>
      <path d="M 18.3125 70.21875 
L 18.3125 54.6875 
L 36.8125 54.6875 
L 36.8125 47.703125 
L 18.3125 47.703125 
L 18.3125 18.015625 
Q 18.3125 11.328125 20.140625 9.421875 
Q 21.96875 7.515625 27.59375 7.515625 
L 36.8125 7.515625 
L 36.8125 0 
L 27.59375 0 
Q 17.1875 0 13.234375 3.875 
Q 9.28125 7.765625 9.28125 18.015625 
L 9.28125 47.703125 
L 2.6875 47.703125 
L 2.6875 54.6875 
L 9.28125 54.6875 
L 9.28125 70.21875 
z
" id="DejaVuSans-116"/>
     </defs>
     <g transform="translate(77.603125 38.916562)scale(0.1 -0.1)">
      <use xlink:href="#DejaVuSans-80"/>
      <use x="58.552734" xlink:href="#DejaVuSans-114"/>
      <use x="97.416016" xlink:href="#DejaVuSans-101"/>
      <use x="158.939453" xlink:href="#DejaVuSans-100"/>
      <use x="222.416016" xlink:href="#DejaVuSans-105"/>
      <use x="250.199219" xlink:href="#DejaVuSans-99"/>
      <use x="305.179688" xlink:href="#DejaVuSans-116"/>
      <use x="344.388672" xlink:href="#DejaVuSans-101"/>
      <use x="405.912109" xlink:href="#DejaVuSans-100"/>
     </g>
    </g>
    <g id="line2d_31">
     <path d="M 49.603125 50.094687 
L 69.603125 50.094687 
" style="fill:none;stroke:#ff7f0e;stroke-linecap:square;stroke-width:1.5;"/>
    </g>
    <g id="line2d_32"/>
    <g id="text_18">
     <!-- True value -->
     <defs>
      <path d="M 8.5 21.578125 
L 8.5 54.6875 
L 17.484375 54.6875 
L 17.484375 21.921875 
Q 17.484375 14.15625 20.5 10.265625 
Q 23.53125 6.390625 29.59375 6.390625 
Q 36.859375 6.390625 41.078125 11.03125 
Q 45.3125 15.671875 45.3125 23.6875 
L 45.3125 54.6875 
L 54.296875 54.6875 
L 54.296875 0 
L 45.3125 0 
L 45.3125 8.40625 
Q 42.046875 3.421875 37.71875 1 
Q 33.40625 -1.421875 27.6875 -1.421875 
Q 18.265625 -1.421875 13.375 4.4375 
Q 8.5 10.296875 8.5 21.578125 
z
M 31.109375 56 
z
" id="DejaVuSans-117"/>
      <path d="M 2.984375 54.6875 
L 12.5 54.6875 
L 29.59375 8.796875 
L 46.6875 54.6875 
L 56.203125 54.6875 
L 35.6875 0 
L 23.484375 0 
z
" id="DejaVuSans-118"/>
      <path d="M 9.421875 75.984375 
L 18.40625 75.984375 
L 18.40625 0 
L 9.421875 0 
z
" id="DejaVuSans-108"/>
     </defs>
     <g transform="translate(77.603125 53.594687)scale(0.1 -0.1)">
      <use xlink:href="#DejaVuSans-84"/>
      <use x="46.333984" xlink:href="#DejaVuSans-114"/>
      <use x="87.447266" xlink:href="#DejaVuSans-117"/>
      <use x="150.826172" xlink:href="#DejaVuSans-101"/>
      <use x="212.349609" xlink:href="#DejaVuSans-32"/>
      <use x="244.136719" xlink:href="#DejaVuSans-118"/>
      <use x="303.316406" xlink:href="#DejaVuSans-97"/>
      <use x="364.595703" xlink:href="#DejaVuSans-108"/>
      <use x="392.378906" xlink:href="#DejaVuSans-117"/>
      <use x="455.757812" xlink:href="#DejaVuSans-101"/>
     </g>
    </g>
   </g>
  </g>
 </g>
 <defs>
  <clipPath id="pa8e8baa70f">
   <rect height="266.112" width="357.12" x="40.603125" y="22.318125"/>
  </clipPath>
 </defs>
</svg>
