<?xml version="1.0" encoding="utf-8" standalone="no"?>
<!DOCTYPE svg PUBLIC "-//W3C//DTD SVG 1.1//EN"
  "http://www.w3.org/Graphics/SVG/1.1/DTD/svg11.dtd">
<!-- Created with matplotlib (https://matplotlib.org/) -->
<svg height="325.986375pt" version="1.1" viewBox="0 0 411.285625 325.986375" width="411.285625pt" xmlns="http://www.w3.org/2000/svg" xmlns:xlink="http://www.w3.org/1999/xlink">
 <defs>
  <style type="text/css">
*{stroke-linecap:butt;stroke-linejoin:round;}
  </style>
 </defs>
 <g id="figure_1">
  <g id="patch_1">
   <path d="M 0 325.986375 
L 411.285625 325.986375 
L 411.285625 0 
L 0 0 
z
" style="fill:#ffffff;"/>
  </g>
  <g id="axes_1">
   <g id="patch_2">
    <path d="M 46.965625 288.430125 
L 404.085625 288.430125 
L 404.085625 22.318125 
L 46.965625 22.318125 
z
" style="fill:#ffffff;"/>
   </g>
   <g id="matplotlib.axis_1">
    <g id="xtick_1">
     <g id="line2d_1">
      <path clip-path="url(#p01ea5d09c0)" d="M 63.198352 288.430125 
L 63.198352 22.318125 
" style="fill:none;stroke:#b0b0b0;stroke-dasharray:2.96,1.28;stroke-dashoffset:0;stroke-width:0.8;"/>
     </g>
     <g id="line2d_2">
      <defs>
       <path d="M 0 0 
L 0 3.5 
" id="md36a20772a" style="stroke:#000000;stroke-width:0.8;"/>
      </defs>
      <g>
       <use style="stroke:#000000;stroke-width:0.8;" x="63.198352" xlink:href="#md36a20772a" y="288.430125"/>
      </g>
     </g>
     <g id="text_1">
      <!-- 0 -->
      <defs>
       <path d="M 31.78125 66.40625 
Q 24.171875 66.40625 20.328125 58.90625 
Q 16.5 51.421875 16.5 36.375 
Q 16.5 21.390625 20.328125 13.890625 
Q 24.171875 6.390625 31.78125 6.390625 
Q 39.453125 6.390625 43.28125 13.890625 
Q 47.125 21.390625 47.125 36.375 
Q 47.125 51.421875 43.28125 58.90625 
Q 39.453125 66.40625 31.78125 66.40625 
z
M 31.78125 74.21875 
Q 44.046875 74.21875 50.515625 64.515625 
Q 56.984375 54.828125 56.984375 36.375 
Q 56.984375 17.96875 50.515625 8.265625 
Q 44.046875 -1.421875 31.78125 -1.421875 
Q 19.53125 -1.421875 13.0625 8.265625 
Q 6.59375 17.96875 6.59375 36.375 
Q 6.59375 54.828125 13.0625 64.515625 
Q 19.53125 74.21875 31.78125 74.21875 
z
" id="DejaVuSans-48"/>
      </defs>
      <g transform="translate(60.017102 303.028562)scale(0.1 -0.1)">
       <use xlink:href="#DejaVuSans-48"/>
      </g>
     </g>
    </g>
    <g id="xtick_2">
     <g id="line2d_3">
      <path clip-path="url(#p01ea5d09c0)" d="M 112.128954 288.430125 
L 112.128954 22.318125 
" style="fill:none;stroke:#b0b0b0;stroke-dasharray:2.96,1.28;stroke-dashoffset:0;stroke-width:0.8;"/>
     </g>
     <g id="line2d_4">
      <g>
       <use style="stroke:#000000;stroke-width:0.8;" x="112.128954" xlink:href="#md36a20772a" y="288.430125"/>
      </g>
     </g>
     <g id="text_2">
      <!-- 200 -->
      <defs>
       <path d="M 19.1875 8.296875 
L 53.609375 8.296875 
L 53.609375 0 
L 7.328125 0 
L 7.328125 8.296875 
Q 12.9375 14.109375 22.625 23.890625 
Q 32.328125 33.6875 34.8125 36.53125 
Q 39.546875 41.84375 41.421875 45.53125 
Q 43.3125 49.21875 43.3125 52.78125 
Q 43.3125 58.59375 39.234375 62.25 
Q 35.15625 65.921875 28.609375 65.921875 
Q 23.96875 65.921875 18.8125 64.3125 
Q 13.671875 62.703125 7.8125 59.421875 
L 7.8125 69.390625 
Q 13.765625 71.78125 18.9375 73 
Q 24.125 74.21875 28.421875 74.21875 
Q 39.75 74.21875 46.484375 68.546875 
Q 53.21875 62.890625 53.21875 53.421875 
Q 53.21875 48.921875 51.53125 44.890625 
Q 49.859375 40.875 45.40625 35.40625 
Q 44.1875 33.984375 37.640625 27.21875 
Q 31.109375 20.453125 19.1875 8.296875 
z
" id="DejaVuSans-50"/>
      </defs>
      <g transform="translate(102.585204 303.028562)scale(0.1 -0.1)">
       <use xlink:href="#DejaVuSans-50"/>
       <use x="63.623047" xlink:href="#DejaVuSans-48"/>
       <use x="127.246094" xlink:href="#DejaVuSans-48"/>
      </g>
     </g>
    </g>
    <g id="xtick_3">
     <g id="line2d_5">
      <path clip-path="url(#p01ea5d09c0)" d="M 161.059557 288.430125 
L 161.059557 22.318125 
" style="fill:none;stroke:#b0b0b0;stroke-dasharray:2.96,1.28;stroke-dashoffset:0;stroke-width:0.8;"/>
     </g>
     <g id="line2d_6">
      <g>
       <use style="stroke:#000000;stroke-width:0.8;" x="161.059557" xlink:href="#md36a20772a" y="288.430125"/>
      </g>
     </g>
     <g id="text_3">
      <!-- 400 -->
      <defs>
       <path d="M 37.796875 64.3125 
L 12.890625 25.390625 
L 37.796875 25.390625 
z
M 35.203125 72.90625 
L 47.609375 72.90625 
L 47.609375 25.390625 
L 58.015625 25.390625 
L 58.015625 17.1875 
L 47.609375 17.1875 
L 47.609375 0 
L 37.796875 0 
L 37.796875 17.1875 
L 4.890625 17.1875 
L 4.890625 26.703125 
z
" id="DejaVuSans-52"/>
      </defs>
      <g transform="translate(151.515807 303.028562)scale(0.1 -0.1)">
       <use xlink:href="#DejaVuSans-52"/>
       <use x="63.623047" xlink:href="#DejaVuSans-48"/>
       <use x="127.246094" xlink:href="#DejaVuSans-48"/>
      </g>
     </g>
    </g>
    <g id="xtick_4">
     <g id="line2d_7">
      <path clip-path="url(#p01ea5d09c0)" d="M 209.990159 288.430125 
L 209.990159 22.318125 
" style="fill:none;stroke:#b0b0b0;stroke-dasharray:2.96,1.28;stroke-dashoffset:0;stroke-width:0.8;"/>
     </g>
     <g id="line2d_8">
      <g>
       <use style="stroke:#000000;stroke-width:0.8;" x="209.990159" xlink:href="#md36a20772a" y="288.430125"/>
      </g>
     </g>
     <g id="text_4">
      <!-- 600 -->
      <defs>
       <path d="M 33.015625 40.375 
Q 26.375 40.375 22.484375 35.828125 
Q 18.609375 31.296875 18.609375 23.390625 
Q 18.609375 15.53125 22.484375 10.953125 
Q 26.375 6.390625 33.015625 6.390625 
Q 39.65625 6.390625 43.53125 10.953125 
Q 47.40625 15.53125 47.40625 23.390625 
Q 47.40625 31.296875 43.53125 35.828125 
Q 39.65625 40.375 33.015625 40.375 
z
M 52.59375 71.296875 
L 52.59375 62.3125 
Q 48.875 64.0625 45.09375 64.984375 
Q 41.3125 65.921875 37.59375 65.921875 
Q 27.828125 65.921875 22.671875 59.328125 
Q 17.53125 52.734375 16.796875 39.40625 
Q 19.671875 43.65625 24.015625 45.921875 
Q 28.375 48.1875 33.59375 48.1875 
Q 44.578125 48.1875 50.953125 41.515625 
Q 57.328125 34.859375 57.328125 23.390625 
Q 57.328125 12.15625 50.6875 5.359375 
Q 44.046875 -1.421875 33.015625 -1.421875 
Q 20.359375 -1.421875 13.671875 8.265625 
Q 6.984375 17.96875 6.984375 36.375 
Q 6.984375 53.65625 15.1875 63.9375 
Q 23.390625 74.21875 37.203125 74.21875 
Q 40.921875 74.21875 44.703125 73.484375 
Q 48.484375 72.75 52.59375 71.296875 
z
" id="DejaVuSans-54"/>
      </defs>
      <g transform="translate(200.446409 303.028562)scale(0.1 -0.1)">
       <use xlink:href="#DejaVuSans-54"/>
       <use x="63.623047" xlink:href="#DejaVuSans-48"/>
       <use x="127.246094" xlink:href="#DejaVuSans-48"/>
      </g>
     </g>
    </g>
    <g id="xtick_5">
     <g id="line2d_9">
      <path clip-path="url(#p01ea5d09c0)" d="M 258.920761 288.430125 
L 258.920761 22.318125 
" style="fill:none;stroke:#b0b0b0;stroke-dasharray:2.96,1.28;stroke-dashoffset:0;stroke-width:0.8;"/>
     </g>
     <g id="line2d_10">
      <g>
       <use style="stroke:#000000;stroke-width:0.8;" x="258.920761" xlink:href="#md36a20772a" y="288.430125"/>
      </g>
     </g>
     <g id="text_5">
      <!-- 800 -->
      <defs>
       <path d="M 31.78125 34.625 
Q 24.75 34.625 20.71875 30.859375 
Q 16.703125 27.09375 16.703125 20.515625 
Q 16.703125 13.921875 20.71875 10.15625 
Q 24.75 6.390625 31.78125 6.390625 
Q 38.8125 6.390625 42.859375 10.171875 
Q 46.921875 13.96875 46.921875 20.515625 
Q 46.921875 27.09375 42.890625 30.859375 
Q 38.875 34.625 31.78125 34.625 
z
M 21.921875 38.8125 
Q 15.578125 40.375 12.03125 44.71875 
Q 8.5 49.078125 8.5 55.328125 
Q 8.5 64.0625 14.71875 69.140625 
Q 20.953125 74.21875 31.78125 74.21875 
Q 42.671875 74.21875 48.875 69.140625 
Q 55.078125 64.0625 55.078125 55.328125 
Q 55.078125 49.078125 51.53125 44.71875 
Q 48 40.375 41.703125 38.8125 
Q 48.828125 37.15625 52.796875 32.3125 
Q 56.78125 27.484375 56.78125 20.515625 
Q 56.78125 9.90625 50.3125 4.234375 
Q 43.84375 -1.421875 31.78125 -1.421875 
Q 19.734375 -1.421875 13.25 4.234375 
Q 6.78125 9.90625 6.78125 20.515625 
Q 6.78125 27.484375 10.78125 32.3125 
Q 14.796875 37.15625 21.921875 38.8125 
z
M 18.3125 54.390625 
Q 18.3125 48.734375 21.84375 45.5625 
Q 25.390625 42.390625 31.78125 42.390625 
Q 38.140625 42.390625 41.71875 45.5625 
Q 45.3125 48.734375 45.3125 54.390625 
Q 45.3125 60.0625 41.71875 63.234375 
Q 38.140625 66.40625 31.78125 66.40625 
Q 25.390625 66.40625 21.84375 63.234375 
Q 18.3125 60.0625 18.3125 54.390625 
z
" id="DejaVuSans-56"/>
      </defs>
      <g transform="translate(249.377011 303.028562)scale(0.1 -0.1)">
       <use xlink:href="#DejaVuSans-56"/>
       <use x="63.623047" xlink:href="#DejaVuSans-48"/>
       <use x="127.246094" xlink:href="#DejaVuSans-48"/>
      </g>
     </g>
    </g>
    <g id="xtick_6">
     <g id="line2d_11">
      <path clip-path="url(#p01ea5d09c0)" d="M 307.851363 288.430125 
L 307.851363 22.318125 
" style="fill:none;stroke:#b0b0b0;stroke-dasharray:2.96,1.28;stroke-dashoffset:0;stroke-width:0.8;"/>
     </g>
     <g id="line2d_12">
      <g>
       <use style="stroke:#000000;stroke-width:0.8;" x="307.851363" xlink:href="#md36a20772a" y="288.430125"/>
      </g>
     </g>
     <g id="text_6">
      <!-- 1000 -->
      <defs>
       <path d="M 12.40625 8.296875 
L 28.515625 8.296875 
L 28.515625 63.921875 
L 10.984375 60.40625 
L 10.984375 69.390625 
L 28.421875 72.90625 
L 38.28125 72.90625 
L 38.28125 8.296875 
L 54.390625 8.296875 
L 54.390625 0 
L 12.40625 0 
z
" id="DejaVuSans-49"/>
      </defs>
      <g transform="translate(295.126363 303.028562)scale(0.1 -0.1)">
       <use xlink:href="#DejaVuSans-49"/>
       <use x="63.623047" xlink:href="#DejaVuSans-48"/>
       <use x="127.246094" xlink:href="#DejaVuSans-48"/>
       <use x="190.869141" xlink:href="#DejaVuSans-48"/>
      </g>
     </g>
    </g>
    <g id="xtick_7">
     <g id="line2d_13">
      <path clip-path="url(#p01ea5d09c0)" d="M 356.781965 288.430125 
L 356.781965 22.318125 
" style="fill:none;stroke:#b0b0b0;stroke-dasharray:2.96,1.28;stroke-dashoffset:0;stroke-width:0.8;"/>
     </g>
     <g id="line2d_14">
      <g>
       <use style="stroke:#000000;stroke-width:0.8;" x="356.781965" xlink:href="#md36a20772a" y="288.430125"/>
      </g>
     </g>
     <g id="text_7">
      <!-- 1200 -->
      <g transform="translate(344.056965 303.028562)scale(0.1 -0.1)">
       <use xlink:href="#DejaVuSans-49"/>
       <use x="63.623047" xlink:href="#DejaVuSans-50"/>
       <use x="127.246094" xlink:href="#DejaVuSans-48"/>
       <use x="190.869141" xlink:href="#DejaVuSans-48"/>
      </g>
     </g>
    </g>
    <g id="text_8">
     <!-- Day -->
     <defs>
      <path d="M 19.671875 64.796875 
L 19.671875 8.109375 
L 31.59375 8.109375 
Q 46.6875 8.109375 53.6875 14.9375 
Q 60.6875 21.78125 60.6875 36.53125 
Q 60.6875 51.171875 53.6875 57.984375 
Q 46.6875 64.796875 31.59375 64.796875 
z
M 9.8125 72.90625 
L 30.078125 72.90625 
Q 51.265625 72.90625 61.171875 64.09375 
Q 71.09375 55.28125 71.09375 36.53125 
Q 71.09375 17.671875 61.125 8.828125 
Q 51.171875 0 30.078125 0 
L 9.8125 0 
z
" id="DejaVuSans-68"/>
      <path d="M 34.28125 27.484375 
Q 23.390625 27.484375 19.1875 25 
Q 14.984375 22.515625 14.984375 16.5 
Q 14.984375 11.71875 18.140625 8.90625 
Q 21.296875 6.109375 26.703125 6.109375 
Q 34.1875 6.109375 38.703125 11.40625 
Q 43.21875 16.703125 43.21875 25.484375 
L 43.21875 27.484375 
z
M 52.203125 31.203125 
L 52.203125 0 
L 43.21875 0 
L 43.21875 8.296875 
Q 40.140625 3.328125 35.546875 0.953125 
Q 30.953125 -1.421875 24.3125 -1.421875 
Q 15.921875 -1.421875 10.953125 3.296875 
Q 6 8.015625 6 15.921875 
Q 6 25.140625 12.171875 29.828125 
Q 18.359375 34.515625 30.609375 34.515625 
L 43.21875 34.515625 
L 43.21875 35.40625 
Q 43.21875 41.609375 39.140625 45 
Q 35.0625 48.390625 27.6875 48.390625 
Q 23 48.390625 18.546875 47.265625 
Q 14.109375 46.140625 10.015625 43.890625 
L 10.015625 52.203125 
Q 14.9375 54.109375 19.578125 55.046875 
Q 24.21875 56 28.609375 56 
Q 40.484375 56 46.34375 49.84375 
Q 52.203125 43.703125 52.203125 31.203125 
z
" id="DejaVuSans-97"/>
      <path d="M 32.171875 -5.078125 
Q 28.375 -14.84375 24.75 -17.8125 
Q 21.140625 -20.796875 15.09375 -20.796875 
L 7.90625 -20.796875 
L 7.90625 -13.28125 
L 13.1875 -13.28125 
Q 16.890625 -13.28125 18.9375 -11.515625 
Q 21 -9.765625 23.484375 -3.21875 
L 25.09375 0.875 
L 2.984375 54.6875 
L 12.5 54.6875 
L 29.59375 11.921875 
L 46.6875 54.6875 
L 56.203125 54.6875 
z
" id="DejaVuSans-121"/>
     </defs>
     <g transform="translate(215.652188 316.706687)scale(0.1 -0.1)">
      <use xlink:href="#DejaVuSans-68"/>
      <use x="77.001953" xlink:href="#DejaVuSans-97"/>
      <use x="138.28125" xlink:href="#DejaVuSans-121"/>
     </g>
    </g>
   </g>
   <g id="matplotlib.axis_2">
    <g id="ytick_1">
     <g id="line2d_15">
      <path clip-path="url(#p01ea5d09c0)" d="M 46.965625 285.568216 
L 404.085625 285.568216 
" style="fill:none;stroke:#b0b0b0;stroke-dasharray:2.96,1.28;stroke-dashoffset:0;stroke-width:0.8;"/>
     </g>
     <g id="line2d_16">
      <defs>
       <path d="M 0 0 
L -3.5 0 
" id="m0bd636b63c" style="stroke:#000000;stroke-width:0.8;"/>
      </defs>
      <g>
       <use style="stroke:#000000;stroke-width:0.8;" x="46.965625" xlink:href="#m0bd636b63c" y="285.568216"/>
      </g>
     </g>
     <g id="text_9">
      <!-- 0 -->
      <g transform="translate(33.603125 289.367435)scale(0.1 -0.1)">
       <use xlink:href="#DejaVuSans-48"/>
      </g>
     </g>
    </g>
    <g id="ytick_2">
     <g id="line2d_17">
      <path clip-path="url(#p01ea5d09c0)" d="M 46.965625 254.589075 
L 404.085625 254.589075 
" style="fill:none;stroke:#b0b0b0;stroke-dasharray:2.96,1.28;stroke-dashoffset:0;stroke-width:0.8;"/>
     </g>
     <g id="line2d_18">
      <g>
       <use style="stroke:#000000;stroke-width:0.8;" x="46.965625" xlink:href="#m0bd636b63c" y="254.589075"/>
      </g>
     </g>
     <g id="text_10">
      <!-- 25 -->
      <defs>
       <path d="M 10.796875 72.90625 
L 49.515625 72.90625 
L 49.515625 64.59375 
L 19.828125 64.59375 
L 19.828125 46.734375 
Q 21.96875 47.46875 24.109375 47.828125 
Q 26.265625 48.1875 28.421875 48.1875 
Q 40.625 48.1875 47.75 41.5 
Q 54.890625 34.8125 54.890625 23.390625 
Q 54.890625 11.625 47.5625 5.09375 
Q 40.234375 -1.421875 26.90625 -1.421875 
Q 22.3125 -1.421875 17.546875 -0.640625 
Q 12.796875 0.140625 7.71875 1.703125 
L 7.71875 11.625 
Q 12.109375 9.234375 16.796875 8.0625 
Q 21.484375 6.890625 26.703125 6.890625 
Q 35.15625 6.890625 40.078125 11.328125 
Q 45.015625 15.765625 45.015625 23.390625 
Q 45.015625 31 40.078125 35.4375 
Q 35.15625 39.890625 26.703125 39.890625 
Q 22.75 39.890625 18.8125 39.015625 
Q 14.890625 38.140625 10.796875 36.28125 
z
" id="DejaVuSans-53"/>
      </defs>
      <g transform="translate(27.240625 258.388294)scale(0.1 -0.1)">
       <use xlink:href="#DejaVuSans-50"/>
       <use x="63.623047" xlink:href="#DejaVuSans-53"/>
      </g>
     </g>
    </g>
    <g id="ytick_3">
     <g id="line2d_19">
      <path clip-path="url(#p01ea5d09c0)" d="M 46.965625 223.609934 
L 404.085625 223.609934 
" style="fill:none;stroke:#b0b0b0;stroke-dasharray:2.96,1.28;stroke-dashoffset:0;stroke-width:0.8;"/>
     </g>
     <g id="line2d_20">
      <g>
       <use style="stroke:#000000;stroke-width:0.8;" x="46.965625" xlink:href="#m0bd636b63c" y="223.609934"/>
      </g>
     </g>
     <g id="text_11">
      <!-- 50 -->
      <g transform="translate(27.240625 227.409153)scale(0.1 -0.1)">
       <use xlink:href="#DejaVuSans-53"/>
       <use x="63.623047" xlink:href="#DejaVuSans-48"/>
      </g>
     </g>
    </g>
    <g id="ytick_4">
     <g id="line2d_21">
      <path clip-path="url(#p01ea5d09c0)" d="M 46.965625 192.630793 
L 404.085625 192.630793 
" style="fill:none;stroke:#b0b0b0;stroke-dasharray:2.96,1.28;stroke-dashoffset:0;stroke-width:0.8;"/>
     </g>
     <g id="line2d_22">
      <g>
       <use style="stroke:#000000;stroke-width:0.8;" x="46.965625" xlink:href="#m0bd636b63c" y="192.630793"/>
      </g>
     </g>
     <g id="text_12">
      <!-- 75 -->
      <defs>
       <path d="M 8.203125 72.90625 
L 55.078125 72.90625 
L 55.078125 68.703125 
L 28.609375 0 
L 18.3125 0 
L 43.21875 64.59375 
L 8.203125 64.59375 
z
" id="DejaVuSans-55"/>
      </defs>
      <g transform="translate(27.240625 196.430012)scale(0.1 -0.1)">
       <use xlink:href="#DejaVuSans-55"/>
       <use x="63.623047" xlink:href="#DejaVuSans-53"/>
      </g>
     </g>
    </g>
    <g id="ytick_5">
     <g id="line2d_23">
      <path clip-path="url(#p01ea5d09c0)" d="M 46.965625 161.651653 
L 404.085625 161.651653 
" style="fill:none;stroke:#b0b0b0;stroke-dasharray:2.96,1.28;stroke-dashoffset:0;stroke-width:0.8;"/>
     </g>
     <g id="line2d_24">
      <g>
       <use style="stroke:#000000;stroke-width:0.8;" x="46.965625" xlink:href="#m0bd636b63c" y="161.651653"/>
      </g>
     </g>
     <g id="text_13">
      <!-- 100 -->
      <g transform="translate(20.878125 165.450871)scale(0.1 -0.1)">
       <use xlink:href="#DejaVuSans-49"/>
       <use x="63.623047" xlink:href="#DejaVuSans-48"/>
       <use x="127.246094" xlink:href="#DejaVuSans-48"/>
      </g>
     </g>
    </g>
    <g id="ytick_6">
     <g id="line2d_25">
      <path clip-path="url(#p01ea5d09c0)" d="M 46.965625 130.672512 
L 404.085625 130.672512 
" style="fill:none;stroke:#b0b0b0;stroke-dasharray:2.96,1.28;stroke-dashoffset:0;stroke-width:0.8;"/>
     </g>
     <g id="line2d_26">
      <g>
       <use style="stroke:#000000;stroke-width:0.8;" x="46.965625" xlink:href="#m0bd636b63c" y="130.672512"/>
      </g>
     </g>
     <g id="text_14">
      <!-- 125 -->
      <g transform="translate(20.878125 134.47173)scale(0.1 -0.1)">
       <use xlink:href="#DejaVuSans-49"/>
       <use x="63.623047" xlink:href="#DejaVuSans-50"/>
       <use x="127.246094" xlink:href="#DejaVuSans-53"/>
      </g>
     </g>
    </g>
    <g id="ytick_7">
     <g id="line2d_27">
      <path clip-path="url(#p01ea5d09c0)" d="M 46.965625 99.693371 
L 404.085625 99.693371 
" style="fill:none;stroke:#b0b0b0;stroke-dasharray:2.96,1.28;stroke-dashoffset:0;stroke-width:0.8;"/>
     </g>
     <g id="line2d_28">
      <g>
       <use style="stroke:#000000;stroke-width:0.8;" x="46.965625" xlink:href="#m0bd636b63c" y="99.693371"/>
      </g>
     </g>
     <g id="text_15">
      <!-- 150 -->
      <g transform="translate(20.878125 103.492589)scale(0.1 -0.1)">
       <use xlink:href="#DejaVuSans-49"/>
       <use x="63.623047" xlink:href="#DejaVuSans-53"/>
       <use x="127.246094" xlink:href="#DejaVuSans-48"/>
      </g>
     </g>
    </g>
    <g id="ytick_8">
     <g id="line2d_29">
      <path clip-path="url(#p01ea5d09c0)" d="M 46.965625 68.71423 
L 404.085625 68.71423 
" style="fill:none;stroke:#b0b0b0;stroke-dasharray:2.96,1.28;stroke-dashoffset:0;stroke-width:0.8;"/>
     </g>
     <g id="line2d_30">
      <g>
       <use style="stroke:#000000;stroke-width:0.8;" x="46.965625" xlink:href="#m0bd636b63c" y="68.71423"/>
      </g>
     </g>
     <g id="text_16">
      <!-- 175 -->
      <g transform="translate(20.878125 72.513449)scale(0.1 -0.1)">
       <use xlink:href="#DejaVuSans-49"/>
       <use x="63.623047" xlink:href="#DejaVuSans-55"/>
       <use x="127.246094" xlink:href="#DejaVuSans-53"/>
      </g>
     </g>
    </g>
    <g id="ytick_9">
     <g id="line2d_31">
      <path clip-path="url(#p01ea5d09c0)" d="M 46.965625 37.735089 
L 404.085625 37.735089 
" style="fill:none;stroke:#b0b0b0;stroke-dasharray:2.96,1.28;stroke-dashoffset:0;stroke-width:0.8;"/>
     </g>
     <g id="line2d_32">
      <g>
       <use style="stroke:#000000;stroke-width:0.8;" x="46.965625" xlink:href="#m0bd636b63c" y="37.735089"/>
      </g>
     </g>
     <g id="text_17">
      <!-- 200 -->
      <g transform="translate(20.878125 41.534308)scale(0.1 -0.1)">
       <use xlink:href="#DejaVuSans-50"/>
       <use x="63.623047" xlink:href="#DejaVuSans-48"/>
       <use x="127.246094" xlink:href="#DejaVuSans-48"/>
      </g>
     </g>
    </g>
    <g id="text_18">
     <!-- Price $ -->
     <defs>
      <path d="M 19.671875 64.796875 
L 19.671875 37.40625 
L 32.078125 37.40625 
Q 38.96875 37.40625 42.71875 40.96875 
Q 46.484375 44.53125 46.484375 51.125 
Q 46.484375 57.671875 42.71875 61.234375 
Q 38.96875 64.796875 32.078125 64.796875 
z
M 9.8125 72.90625 
L 32.078125 72.90625 
Q 44.34375 72.90625 50.609375 67.359375 
Q 56.890625 61.8125 56.890625 51.125 
Q 56.890625 40.328125 50.609375 34.8125 
Q 44.34375 29.296875 32.078125 29.296875 
L 19.671875 29.296875 
L 19.671875 0 
L 9.8125 0 
z
" id="DejaVuSans-80"/>
      <path d="M 41.109375 46.296875 
Q 39.59375 47.171875 37.8125 47.578125 
Q 36.03125 48 33.890625 48 
Q 26.265625 48 22.1875 43.046875 
Q 18.109375 38.09375 18.109375 28.8125 
L 18.109375 0 
L 9.078125 0 
L 9.078125 54.6875 
L 18.109375 54.6875 
L 18.109375 46.1875 
Q 20.953125 51.171875 25.484375 53.578125 
Q 30.03125 56 36.53125 56 
Q 37.453125 56 38.578125 55.875 
Q 39.703125 55.765625 41.0625 55.515625 
z
" id="DejaVuSans-114"/>
      <path d="M 9.421875 54.6875 
L 18.40625 54.6875 
L 18.40625 0 
L 9.421875 0 
z
M 9.421875 75.984375 
L 18.40625 75.984375 
L 18.40625 64.59375 
L 9.421875 64.59375 
z
" id="DejaVuSans-105"/>
      <path d="M 48.78125 52.59375 
L 48.78125 44.1875 
Q 44.96875 46.296875 41.140625 47.34375 
Q 37.3125 48.390625 33.40625 48.390625 
Q 24.65625 48.390625 19.8125 42.84375 
Q 14.984375 37.3125 14.984375 27.296875 
Q 14.984375 17.28125 19.8125 11.734375 
Q 24.65625 6.203125 33.40625 6.203125 
Q 37.3125 6.203125 41.140625 7.25 
Q 44.96875 8.296875 48.78125 10.40625 
L 48.78125 2.09375 
Q 45.015625 0.34375 40.984375 -0.53125 
Q 36.96875 -1.421875 32.421875 -1.421875 
Q 20.0625 -1.421875 12.78125 6.34375 
Q 5.515625 14.109375 5.515625 27.296875 
Q 5.515625 40.671875 12.859375 48.328125 
Q 20.21875 56 33.015625 56 
Q 37.15625 56 41.109375 55.140625 
Q 45.0625 54.296875 48.78125 52.59375 
z
" id="DejaVuSans-99"/>
      <path d="M 56.203125 29.59375 
L 56.203125 25.203125 
L 14.890625 25.203125 
Q 15.484375 15.921875 20.484375 11.0625 
Q 25.484375 6.203125 34.421875 6.203125 
Q 39.59375 6.203125 44.453125 7.46875 
Q 49.3125 8.734375 54.109375 11.28125 
L 54.109375 2.78125 
Q 49.265625 0.734375 44.1875 -0.34375 
Q 39.109375 -1.421875 33.890625 -1.421875 
Q 20.796875 -1.421875 13.15625 6.1875 
Q 5.515625 13.8125 5.515625 26.8125 
Q 5.515625 40.234375 12.765625 48.109375 
Q 20.015625 56 32.328125 56 
Q 43.359375 56 49.78125 48.890625 
Q 56.203125 41.796875 56.203125 29.59375 
z
M 47.21875 32.234375 
Q 47.125 39.59375 43.09375 43.984375 
Q 39.0625 48.390625 32.421875 48.390625 
Q 24.90625 48.390625 20.390625 44.140625 
Q 15.875 39.890625 15.1875 32.171875 
z
" id="DejaVuSans-101"/>
      <path id="DejaVuSans-32"/>
      <path d="M 33.796875 -14.703125 
L 28.90625 -14.703125 
L 28.859375 0 
Q 23.734375 0.09375 18.609375 1.1875 
Q 13.484375 2.296875 8.296875 4.5 
L 8.296875 13.28125 
Q 13.28125 10.15625 18.375 8.5625 
Q 23.484375 6.984375 28.90625 6.9375 
L 28.90625 29.203125 
Q 18.109375 30.953125 13.203125 35.15625 
Q 8.296875 39.359375 8.296875 46.6875 
Q 8.296875 54.640625 13.625 59.21875 
Q 18.953125 63.8125 28.90625 64.5 
L 28.90625 75.984375 
L 33.796875 75.984375 
L 33.796875 64.65625 
Q 38.328125 64.453125 42.578125 63.6875 
Q 46.828125 62.9375 50.875 61.625 
L 50.875 53.078125 
Q 46.828125 55.125 42.546875 56.25 
Q 38.28125 57.375 33.796875 57.5625 
L 33.796875 36.71875 
Q 44.875 35.015625 50.09375 30.609375 
Q 55.328125 26.21875 55.328125 18.609375 
Q 55.328125 10.359375 49.78125 5.59375 
Q 44.234375 0.828125 33.796875 0.09375 
z
M 28.90625 37.59375 
L 28.90625 57.625 
Q 23.25 56.984375 20.265625 54.390625 
Q 17.28125 51.8125 17.28125 47.515625 
Q 17.28125 43.3125 20.03125 40.96875 
Q 22.796875 38.625 28.90625 37.59375 
z
M 33.796875 28.21875 
L 33.796875 7.078125 
Q 39.984375 7.90625 43.140625 10.59375 
Q 46.296875 13.28125 46.296875 17.671875 
Q 46.296875 21.96875 43.28125 24.5 
Q 40.28125 27.046875 33.796875 28.21875 
z
" id="DejaVuSans-36"/>
     </defs>
     <g transform="translate(14.798438 172.342094)rotate(-90)scale(0.1 -0.1)">
      <use xlink:href="#DejaVuSans-80"/>
      <use x="58.552734" xlink:href="#DejaVuSans-114"/>
      <use x="99.666016" xlink:href="#DejaVuSans-105"/>
      <use x="127.449219" xlink:href="#DejaVuSans-99"/>
      <use x="182.429688" xlink:href="#DejaVuSans-101"/>
      <use x="243.953125" xlink:href="#DejaVuSans-32"/>
      <use x="275.740234" xlink:href="#DejaVuSans-36"/>
     </g>
    </g>
   </g>
   <g id="line2d_33">
    <path clip-path="url(#p01ea5d09c0)" d="M 63.198352 275.119445 
L 63.932311 276.334125 
L 64.176964 276.290914 
L 64.66627 275.591559 
L 64.910923 275.427215 
L 65.155576 275.562605 
L 65.400229 274.977081 
L 66.134188 274.789593 
L 66.623494 274.2339 
L 66.868147 274.416333 
L 67.1128 274.443718 
L 67.357453 274.230609 
L 67.602106 274.258522 
L 68.336066 274.7201 
L 68.825372 274.663973 
L 69.070025 275.203254 
L 69.314678 275.17375 
L 69.559331 275.932777 
L 70.048637 275.566284 
L 70.29329 275.596972 
L 70.537943 275.95816 
L 71.027249 275.684914 
L 71.271902 275.655614 
L 71.516555 275.280352 
L 71.761208 275.909471 
L 72.005861 276.108646 
L 72.250514 276.006225 
L 72.495167 275.500036 
L 72.73982 275.607897 
L 73.229126 276.290667 
L 73.718432 275.775743 
L 73.963085 276.145485 
L 74.452391 275.739133 
L 74.941697 274.522955 
L 75.18635 274.258626 
L 75.431003 273.046613 
L 75.675656 274.185308 
L 76.164962 273.577473 
L 76.409615 274.266116 
L 76.898921 273.791118 
L 77.143574 273.449983 
L 77.63288 274.276614 
L 77.877533 273.87914 
L 78.122186 273.767185 
L 78.366839 275.446585 
L 78.856145 273.797703 
L 79.100798 271.952395 
L 79.345451 271.853372 
L 79.590104 271.993644 
L 79.834757 271.571808 
L 80.07941 271.892916 
L 80.324063 271.475466 
L 80.568716 271.906953 
L 80.813369 271.569876 
L 81.302675 271.517305 
L 81.547328 271.583381 
L 81.791981 271.354832 
L 82.281287 271.484298 
L 82.770593 271.038022 
L 83.015246 270.959834 
L 83.504552 271.262752 
L 83.749205 271.169726 
L 83.993858 271.212084 
L 84.238511 271.480274 
L 84.483164 272.240043 
L 84.727817 270.976085 
L 84.97247 270.716009 
L 85.217123 270.154043 
L 85.461776 270.257116 
L 85.706429 270.645773 
L 85.951082 270.578884 
L 86.440388 269.414228 
L 87.174347 268.959299 
L 88.152959 270.011474 
L 88.642265 269.733648 
L 88.886918 269.890431 
L 89.131571 269.422438 
L 89.376224 269.401314 
L 89.620877 268.74968 
L 89.86553 268.711531 
L 90.110183 268.262761 
L 90.354836 268.40153 
L 90.599489 268.697468 
L 90.844143 268.411559 
L 91.333449 267.411489 
L 91.578102 267.732487 
L 91.822755 268.470862 
L 92.067408 268.581922 
L 92.312061 268.128756 
L 92.556714 268.434824 
L 92.801367 267.765007 
L 93.04602 259.759653 
L 93.290673 257.120846 
L 93.535326 256.847833 
L 93.779979 255.817399 
L 94.024632 256.248612 
L 94.269285 257.04298 
L 94.513938 256.740035 
L 94.758591 254.680546 
L 95.003244 254.628522 
L 95.247897 252.754073 
L 95.981856 254.281978 
L 96.226509 253.69894 
L 96.471162 252.311688 
L 96.960468 251.988947 
L 97.205121 250.95207 
L 97.449774 252.286916 
L 97.694427 252.390637 
L 97.93908 253.529173 
L 98.183733 253.577406 
L 98.428386 252.980158 
L 98.673039 252.791436 
L 98.917692 252.228802 
L 99.162345 252.100753 
L 99.406998 253.522262 
L 99.651651 253.499556 
L 99.896304 253.361425 
L 100.140957 253.687678 
L 100.38561 253.137233 
L 100.630263 253.753296 
L 100.874916 253.568925 
L 101.119569 251.953092 
L 101.608875 252.880264 
L 101.853528 253.083744 
L 102.098181 253.664714 
L 102.342834 253.49274 
L 102.587487 253.501106 
L 103.076793 253.705648 
L 103.321446 252.176944 
L 103.566099 251.899573 
L 103.810752 252.070486 
L 104.544711 255.492292 
L 105.27867 256.863671 
L 105.523323 255.879052 
L 105.767976 256.438554 
L 106.012629 255.354334 
L 106.257282 255.172182 
L 106.501935 254.539654 
L 106.746588 254.834607 
L 107.235894 256.910031 
L 107.480547 256.872804 
L 107.7252 254.950441 
L 107.969853 246.787946 
L 108.214506 247.007423 
L 108.459159 247.79067 
L 108.703812 247.402799 
L 108.948465 247.624157 
L 109.193118 247.322565 
L 109.437771 247.93964 
L 109.682424 247.785347 
L 109.927077 247.846617 
L 110.416383 249.227107 
L 110.661036 248.778295 
L 110.905689 247.439647 
L 111.150342 247.173042 
L 111.639648 244.434217 
L 111.884301 242.735389 
L 112.128954 243.556996 
L 112.61826 243.200696 
L 112.862913 243.578873 
L 113.107566 244.940961 
L 113.35222 245.657632 
L 113.596873 245.330909 
L 113.841526 247.442542 
L 114.086179 247.44954 
L 114.575485 245.77855 
L 114.820138 246.614674 
L 115.064791 246.004307 
L 115.309444 246.276875 
L 115.554097 247.161983 
L 116.043403 246.750988 
L 116.532709 248.840328 
L 116.777362 247.818904 
L 117.022015 247.891304 
L 117.266668 245.0874 
L 117.511321 245.263132 
L 117.755974 244.636861 
L 118.24528 247.261343 
L 118.734586 248.235402 
L 118.979239 248.115656 
L 119.223892 247.761142 
L 119.468545 248.375863 
L 119.713198 246.220703 
L 119.957851 246.626454 
L 120.202504 246.759456 
L 120.447157 246.154612 
L 120.69181 244.581597 
L 120.936463 242.187223 
L 121.181116 242.836444 
L 121.425769 242.646195 
L 121.670422 240.33877 
L 121.915075 240.227708 
L 122.159728 239.608626 
L 122.404381 238.525689 
L 122.649034 238.673868 
L 123.13834 239.421454 
L 123.627646 242.794676 
L 123.872299 241.825642 
L 124.116952 242.271723 
L 124.606258 242.582432 
L 124.850911 242.354314 
L 125.095564 241.630878 
L 125.340217 242.282837 
L 125.58487 241.077895 
L 125.829523 240.510002 
L 126.074176 241.447937 
L 126.318829 241.215655 
L 127.297441 239.35658 
L 127.542094 240.747148 
L 127.786747 239.982374 
L 128.0314 239.705965 
L 128.276053 237.508345 
L 128.520706 237.981975 
L 128.765359 237.96874 
L 129.254665 235.764482 
L 129.499318 236.825618 
L 129.988624 234.762666 
L 130.233277 235.496681 
L 130.47793 234.521497 
L 130.967236 233.482545 
L 131.211889 234.120876 
L 131.456542 233.680462 
L 131.701195 230.534162 
L 132.190501 232.409805 
L 132.435154 231.741519 
L 132.92446 232.599889 
L 133.169113 231.440284 
L 133.413766 231.625971 
L 133.658419 230.14454 
L 133.903072 232.051807 
L 134.147725 231.405809 
L 134.392378 231.277858 
L 134.637031 230.269764 
L 134.881684 230.498213 
L 135.126337 230.996098 
L 135.37099 228.255983 
L 135.615643 227.169921 
L 135.860297 228.627448 
L 136.10495 227.781946 
L 136.349603 229.21552 
L 136.838909 234.403945 
L 137.083562 231.509577 
L 137.328215 232.218185 
L 137.572868 228.132267 
L 137.817521 228.642234 
L 138.062174 228.388647 
L 138.55148 226.64989 
L 138.796133 223.072474 
L 139.040786 228.286747 
L 139.530092 227.003137 
L 139.774745 227.566364 
L 140.019398 229.645284 
L 140.264051 227.669655 
L 140.508704 228.931591 
L 141.487316 225.146284 
L 141.731969 225.907541 
L 141.976622 227.181224 
L 142.221275 226.187278 
L 142.465928 225.728689 
L 142.710581 226.209216 
L 142.955234 226.069873 
L 143.44454 223.780193 
L 143.689193 224.882478 
L 143.933846 225.438884 
L 144.178499 225.168123 
L 144.423152 223.917528 
L 144.667805 223.971747 
L 144.912458 223.566984 
L 145.157111 222.931731 
L 145.646417 221.072368 
L 146.135723 221.447828 
L 146.380376 222.320771 
L 146.625029 222.408736 
L 146.869682 222.949042 
L 147.114335 222.706015 
L 147.358988 221.709456 
L 147.603641 221.413221 
L 147.848294 219.984331 
L 148.3376 220.875828 
L 148.582253 219.502641 
L 148.826906 219.4494 
L 149.071559 219.180455 
L 149.316212 219.189503 
L 149.560865 218.290623 
L 149.805518 218.68266 
L 150.050171 218.860278 
L 150.294824 220.517267 
L 150.539477 220.894254 
L 150.78413 220.589917 
L 151.028783 221.578578 
L 151.273436 221.314852 
L 151.518089 222.240926 
L 151.762742 225.760805 
L 152.007395 225.280145 
L 152.496701 226.836429 
L 152.741354 225.743291 
L 152.986007 225.722341 
L 153.23066 227.474868 
L 153.475313 227.115868 
L 153.719966 227.207265 
L 153.964619 227.628875 
L 154.209272 226.558507 
L 154.453925 216.077998 
L 154.943231 218.360205 
L 155.187884 213.869463 
L 155.432537 214.60716 
L 155.921843 212.848568 
L 156.166496 213.907818 
L 156.411149 213.750521 
L 156.655802 213.976795 
L 156.900455 213.272173 
L 157.145108 209.443817 
L 157.389761 209.387703 
L 157.634414 208.72717 
L 157.879067 209.357932 
L 158.12372 208.186339 
L 158.368374 208.210991 
L 158.613027 208.083167 
L 158.85768 209.348549 
L 159.102333 208.264737 
L 159.346986 208.725903 
L 159.591639 206.449638 
L 159.836292 205.384295 
L 160.080945 206.019789 
L 160.325598 205.402041 
L 160.570251 206.551582 
L 160.814904 206.824644 
L 161.059557 205.218783 
L 161.30421 205.306592 
L 161.548863 205.585147 
L 161.793516 206.088974 
L 162.038169 207.828762 
L 162.282822 208.047497 
L 162.527475 208.480659 
L 163.016781 210.487463 
L 163.261434 210.814229 
L 163.506087 211.49913 
L 163.75074 211.597254 
L 163.995393 210.893781 
L 164.240046 213.969185 
L 164.484699 218.995609 
L 164.729352 220.015605 
L 164.974005 219.778109 
L 165.707964 223.362398 
L 165.952617 221.366121 
L 166.19727 221.507564 
L 166.441923 223.165422 
L 166.686576 225.992883 
L 166.931229 225.721986 
L 167.175882 223.708314 
L 167.420535 223.214565 
L 167.665188 226.261365 
L 167.909841 227.918548 
L 168.154494 226.890738 
L 168.399147 228.183645 
L 168.6438 226.895176 
L 168.888453 224.285949 
L 169.133106 224.101074 
L 169.377759 219.614747 
L 169.622412 223.193364 
L 169.867065 224.883702 
L 170.356371 230.033975 
L 170.601024 228.493588 
L 170.845677 228.299604 
L 171.09033 225.743267 
L 171.579636 224.576123 
L 171.824289 227.308561 
L 172.068942 228.451682 
L 172.313595 228.210542 
L 172.558248 227.236738 
L 172.802901 224.454052 
L 173.047554 223.998748 
L 173.292207 223.231298 
L 173.53686 224.49989 
L 173.781513 223.749042 
L 174.515472 216.940887 
L 174.760125 216.497169 
L 175.004778 214.840378 
L 175.249431 215.096806 
L 175.494084 214.726116 
L 175.738737 212.519524 
L 176.228043 211.346442 
L 176.472696 211.544255 
L 177.206655 209.615196 
L 177.451308 210.660024 
L 177.695961 209.549869 
L 177.940614 209.69124 
L 178.185267 210.74009 
L 178.42992 210.084766 
L 178.674573 209.787402 
L 178.919226 207.159479 
L 179.163879 206.643636 
L 179.408532 207.507252 
L 180.142491 207.961072 
L 180.387144 207.110923 
L 180.631798 207.930682 
L 180.876451 207.506 
L 181.121104 207.656112 
L 181.365757 201.757076 
L 181.61041 203.053315 
L 181.855063 202.171429 
L 182.099716 204.086959 
L 182.344369 206.904455 
L 182.589022 207.175575 
L 182.833675 208.229005 
L 183.078328 207.724966 
L 183.322981 205.652196 
L 183.567634 206.551374 
L 183.812287 206.969462 
L 184.05694 207.868167 
L 184.301593 207.25029 
L 184.546246 205.447099 
L 184.790899 209.610587 
L 185.035552 209.946288 
L 185.524858 211.036878 
L 185.769511 210.493812 
L 186.014164 210.446962 
L 186.258817 208.764976 
L 186.50347 210.73958 
L 186.748123 210.510895 
L 186.992776 210.63662 
L 187.237429 210.522727 
L 187.482082 209.224587 
L 187.726735 205.961032 
L 187.971388 206.690689 
L 188.216041 205.342839 
L 188.460694 206.382689 
L 188.705347 205.426933 
L 188.95 205.559896 
L 189.439306 202.844891 
L 189.683959 202.663836 
L 189.928612 202.036708 
L 190.173265 201.955139 
L 190.417918 200.708873 
L 190.662571 200.350147 
L 191.39653 201.364306 
L 191.641183 200.944563 
L 191.885836 201.206848 
L 192.130489 200.610484 
L 192.375142 201.704719 
L 193.353754 199.862231 
L 193.84306 201.003699 
L 194.087713 204.313129 
L 194.332366 204.885536 
L 194.577019 205.155242 
L 194.821672 204.342228 
L 195.066325 204.862477 
L 195.310978 207.497241 
L 195.555631 207.136407 
L 195.800284 206.083935 
L 196.044937 207.323318 
L 196.28959 206.267278 
L 196.534243 206.282358 
L 196.778896 205.655249 
L 197.023549 207.915484 
L 197.512855 204.216934 
L 197.757508 203.41414 
L 198.002161 204.693363 
L 198.246814 203.108631 
L 198.491467 203.875915 
L 198.73612 205.367316 
L 198.980773 207.921573 
L 199.225426 205.952259 
L 199.470079 206.607455 
L 199.714732 223.202544 
L 200.693344 219.42334 
L 200.937997 217.865912 
L 201.18265 217.451228 
L 201.427303 218.429697 
L 201.671956 217.006895 
L 201.916609 218.166264 
L 202.161262 217.993273 
L 202.405915 215.627507 
L 203.139875 217.87764 
L 203.384528 217.458408 
L 203.629181 217.386661 
L 203.873834 217.035825 
L 204.118487 217.49699 
L 204.36314 217.432012 
L 204.607793 218.150206 
L 204.852446 217.067401 
L 205.097099 217.782711 
L 205.341752 217.739714 
L 205.586405 220.661201 
L 205.831058 220.161765 
L 206.075711 221.477183 
L 206.320364 222.166022 
L 206.565017 223.754241 
L 206.80967 223.357042 
L 207.298976 225.305179 
L 207.543629 223.531716 
L 207.788282 223.248769 
L 208.032935 223.785544 
L 208.277588 223.660334 
L 208.522241 225.624935 
L 208.766894 225.217072 
L 209.011547 226.47723 
L 209.2562 226.27782 
L 209.500853 226.511946 
L 209.745506 227.648336 
L 209.990159 229.491504 
L 210.234812 226.743637 
L 210.479465 226.260774 
L 210.724118 225.473311 
L 210.968771 226.113021 
L 211.213424 226.1895 
L 211.458077 225.160404 
L 211.70273 225.338453 
L 211.947383 225.203051 
L 212.192036 224.871336 
L 212.436689 225.119387 
L 212.681342 223.804868 
L 212.925995 227.010209 
L 213.170648 228.04891 
L 213.415301 227.597974 
L 213.659954 226.475878 
L 213.904607 227.370116 
L 214.14926 229.051468 
L 214.393913 228.017924 
L 214.638566 228.076611 
L 214.883219 228.376471 
L 215.372525 224.109365 
L 215.617178 212.266381 
L 216.59579 205.362806 
L 216.840443 207.111585 
L 217.085096 207.070275 
L 217.574402 207.558588 
L 217.819055 204.797717 
L 218.063708 206.051035 
L 218.308361 205.81092 
L 218.553014 206.785301 
L 218.797667 207.045595 
L 219.04232 205.149494 
L 219.286973 204.934706 
L 219.531626 204.918001 
L 219.776279 203.228282 
L 220.020932 202.647981 
L 220.265585 201.680904 
L 220.754891 200.814929 
L 220.999544 201.852874 
L 221.48885 200.832599 
L 221.733503 200.064984 
L 221.978156 201.351287 
L 222.222809 200.654871 
L 222.712115 202.428193 
L 222.956768 202.820376 
L 223.446074 206.774079 
L 223.690727 208.611574 
L 224.180033 206.362557 
L 224.669339 211.289675 
L 224.913992 211.683187 
L 225.403298 210.446744 
L 225.647952 209.866878 
L 225.892605 210.63047 
L 226.137258 208.050536 
L 226.381911 210.820998 
L 226.871217 212.34779 
L 227.11587 210.800355 
L 227.605176 212.499146 
L 227.849829 212.179096 
L 228.094482 210.966275 
L 228.339135 210.654342 
L 228.583788 207.558309 
L 228.828441 208.030243 
L 229.317747 201.08628 
L 229.5624 200.881571 
L 229.807053 201.434285 
L 230.051706 185.615901 
L 230.296359 184.927398 
L 230.541012 185.273493 
L 230.785665 186.321195 
L 231.030318 186.687919 
L 231.274971 186.287935 
L 231.519624 186.215555 
L 231.764277 184.748243 
L 232.00893 185.488186 
L 232.253583 185.602892 
L 232.498236 186.605602 
L 232.742889 186.686075 
L 232.987542 186.995592 
L 233.232195 184.666759 
L 233.476848 185.98324 
L 233.721501 185.426054 
L 234.210807 181.056887 
L 234.45546 182.075139 
L 234.700113 182.372073 
L 234.944766 181.684042 
L 235.189419 176.557509 
L 235.434072 176.420292 
L 236.168031 175.238778 
L 236.412684 175.31027 
L 236.657337 176.280391 
L 236.90199 174.330486 
L 237.635949 175.513608 
L 237.880602 175.236726 
L 238.125255 175.501951 
L 238.369908 175.162644 
L 238.614561 173.748795 
L 238.859214 174.707014 
L 239.34852 166.391523 
L 239.593173 167.925978 
L 239.837826 168.666819 
L 240.082479 170.33554 
L 240.327132 167.643613 
L 240.571785 168.863558 
L 240.816438 168.147761 
L 241.061091 168.894842 
L 241.305744 166.282348 
L 241.550397 165.176475 
L 241.79505 164.934422 
L 242.039703 168.623292 
L 242.529009 171.591818 
L 242.773662 169.088764 
L 243.018315 169.401893 
L 243.262968 169.090825 
L 243.507621 168.355373 
L 243.996927 169.920156 
L 244.730886 160.200593 
L 244.975539 161.024346 
L 245.220192 163.711782 
L 245.464845 141.835468 
L 245.709498 143.059441 
L 245.954151 148.393501 
L 246.198804 146.110661 
L 246.443457 146.558255 
L 246.68811 148.557151 
L 246.932763 149.538457 
L 247.177416 153.201772 
L 247.422069 153.351705 
L 247.666722 152.803037 
L 248.156029 143.96657 
L 248.400682 145.798582 
L 248.645335 135.80849 
L 248.889988 130.915444 
L 249.134641 129.182123 
L 249.379294 132.418567 
L 249.623947 132.653246 
L 249.8686 133.770161 
L 250.113253 136.349226 
L 250.357906 132.473354 
L 250.602559 132.252062 
L 250.847212 130.727326 
L 251.091865 131.498279 
L 251.336518 134.479038 
L 252.070477 164.806367 
L 252.804436 139.903791 
L 253.049089 140.3002 
L 253.293742 143.423508 
L 253.538395 154.597507 
L 253.783048 155.538765 
L 254.272354 163.23333 
L 254.517007 166.992633 
L 254.76166 162.189732 
L 255.006313 162.039138 
L 255.495619 166.985495 
L 255.740272 163.59476 
L 255.984925 157.112738 
L 256.229578 156.388252 
L 256.963537 164.101726 
L 257.20819 164.310774 
L 257.452843 158.263366 
L 257.697496 158.676746 
L 257.942149 162.528887 
L 258.186802 163.915641 
L 258.431455 158.056123 
L 258.676108 154.960865 
L 258.920761 155.043664 
L 259.165414 148.175773 
L 259.410067 151.632461 
L 259.65472 151.825759 
L 259.899373 145.473012 
L 260.144026 144.975755 
L 260.388679 144.935887 
L 260.633332 149.403292 
L 260.877985 149.002089 
L 261.122638 160.583927 
L 261.367291 162.387993 
L 261.611944 159.657711 
L 261.856597 162.758338 
L 262.345903 164.801025 
L 262.835209 158.356129 
L 263.079862 158.076912 
L 263.324515 155.078635 
L 263.569168 155.207617 
L 263.813821 151.542477 
L 264.058474 152.415278 
L 264.303127 149.916393 
L 264.54778 144.858468 
L 264.792433 145.118058 
L 265.037086 144.637223 
L 265.281739 149.530033 
L 265.526392 146.690717 
L 265.771045 145.610597 
L 266.260351 156.482897 
L 266.749657 140.240592 
L 266.99431 136.721111 
L 267.238963 136.294609 
L 267.483616 132.751068 
L 267.728269 131.124303 
L 267.972922 133.479126 
L 268.462228 130.176843 
L 268.706881 132.265355 
L 268.951534 130.567165 
L 269.196187 125.68484 
L 269.44084 127.559745 
L 269.685493 123.920027 
L 269.930146 129.739082 
L 270.174799 128.761444 
L 270.664106 132.858371 
L 270.908759 137.569095 
L 271.153412 137.026091 
L 271.398065 137.82116 
L 271.642718 134.062302 
L 271.887371 132.901737 
L 272.132024 139.056951 
L 272.376677 140.887611 
L 272.62133 141.769025 
L 272.865983 139.637866 
L 273.110636 140.115231 
L 273.355289 141.508839 
L 273.599942 138.524109 
L 274.089248 143.880008 
L 274.333901 151.09544 
L 274.578554 152.499343 
L 274.823207 141.54709 
L 275.06786 142.872638 
L 275.312513 147.030941 
L 275.801819 140.848556 
L 276.046472 153.832738 
L 276.291125 153.604015 
L 276.535778 156.744435 
L 276.780431 151.423213 
L 277.51439 161.06566 
L 277.759043 162.689541 
L 278.003696 165.11232 
L 278.248349 172.209878 
L 278.493002 168.989042 
L 278.737655 171.837057 
L 278.982308 168.624956 
L 279.471614 174.18806 
L 279.716267 175.306545 
L 279.96092 182.787476 
L 280.205573 182.529852 
L 280.694879 175.113095 
L 280.939532 179.481733 
L 281.428838 175.459672 
L 281.673491 169.270339 
L 281.918144 173.673824 
L 282.162797 175.650541 
L 282.40745 172.471842 
L 282.652103 175.307169 
L 282.896756 173.00508 
L 283.141409 169.167621 
L 283.386062 167.930573 
L 283.630715 168.141541 
L 283.875368 169.78518 
L 284.120021 164.305092 
L 284.364674 165.06296 
L 284.609327 164.771557 
L 284.85398 159.97984 
L 285.098633 167.000603 
L 285.343286 165.948155 
L 285.587939 164.273743 
L 285.832592 164.978422 
L 286.321898 163.858141 
L 286.566551 164.522508 
L 286.811204 162.358657 
L 287.055857 161.805877 
L 287.30051 160.159127 
L 287.545163 160.549505 
L 287.789816 161.669691 
L 288.034469 162.243034 
L 288.279122 164.145734 
L 288.768428 156.858101 
L 289.013081 159.096611 
L 289.257734 159.009331 
L 289.502387 154.877121 
L 289.74704 156.577693 
L 289.991693 155.820421 
L 290.236346 155.56863 
L 290.480999 156.15139 
L 290.970305 158.504416 
L 291.459611 149.500177 
L 291.704264 149.010125 
L 291.948917 147.769711 
L 292.19357 151.868151 
L 292.438223 168.727325 
L 292.682876 165.876446 
L 292.92753 167.519377 
L 293.172183 166.740634 
L 293.416836 169.912669 
L 293.906142 173.211737 
L 294.395448 174.838653 
L 294.640101 170.810712 
L 295.129407 173.387583 
L 295.37406 174.928192 
L 295.618713 173.69762 
L 295.863366 173.526133 
L 296.108019 170.671586 
L 296.597325 177.347747 
L 296.841978 176.980447 
L 297.086631 175.379672 
L 297.331284 175.511367 
L 297.575937 173.379349 
L 297.82059 174.780501 
L 298.554549 164.243036 
L 299.043855 158.206745 
L 299.288508 158.187818 
L 299.533161 158.698755 
L 299.777814 160.376987 
L 300.022467 160.471584 
L 300.26712 162.712599 
L 300.511773 160.794489 
L 300.756426 161.698819 
L 301.001079 164.223844 
L 301.245732 165.232292 
L 301.490385 169.694572 
L 301.735038 168.675441 
L 301.979691 168.744806 
L 302.224344 168.682116 
L 302.468997 167.602998 
L 302.958303 169.083196 
L 303.202956 172.863411 
L 303.447609 174.161059 
L 303.692262 172.682602 
L 304.181568 179.88061 
L 304.670874 172.781765 
L 304.915527 172.701434 
L 305.16018 165.679603 
L 305.404833 164.931785 
L 305.649486 169.015202 
L 305.894139 168.173372 
L 306.138792 165.509543 
L 306.383445 168.450339 
L 306.628098 166.817818 
L 306.872751 166.365459 
L 307.117404 164.18755 
L 307.60671 163.356536 
L 307.851363 180.478694 
L 308.096016 176.639391 
L 308.340669 179.116436 
L 308.585322 179.254116 
L 308.829975 177.051589 
L 309.074628 171.62537 
L 309.808587 172.28016 
L 310.05324 168.701582 
L 310.297893 169.725222 
L 310.542546 169.85376 
L 310.787199 169.703705 
L 311.031852 165.16149 
L 311.276505 167.89599 
L 311.521158 168.748086 
L 311.765811 169.099097 
L 312.010464 166.623971 
L 312.255117 166.024119 
L 312.49977 167.334871 
L 312.744423 167.702209 
L 312.989076 166.216528 
L 313.478382 166.828822 
L 313.723035 167.79883 
L 313.967688 166.919279 
L 314.212341 167.84802 
L 314.456994 165.066855 
L 314.701647 165.005583 
L 314.9463 165.205386 
L 315.190953 164.814828 
L 315.435607 165.049762 
L 315.924913 165.018668 
L 316.169566 161.841462 
L 316.414219 163.083143 
L 316.658872 162.307785 
L 316.903525 166.15208 
L 317.148178 163.293269 
L 317.392831 166.84063 
L 317.637484 165.004609 
L 317.882137 165.01758 
L 318.12679 162.621348 
L 318.371443 164.098426 
L 318.616096 163.721511 
L 318.860749 168.489101 
L 319.105402 166.958844 
L 319.350055 166.525119 
L 319.594708 168.582952 
L 319.839361 165.041008 
L 320.084014 164.959948 
L 320.328667 165.68312 
L 320.57332 163.13773 
L 320.817973 158.587414 
L 321.062626 158.467139 
L 321.307279 153.596442 
L 321.551932 155.67463 
L 321.796585 155.627359 
L 322.041238 157.614693 
L 322.285891 161.097794 
L 322.530544 162.031338 
L 322.775197 161.697968 
L 323.01985 159.72544 
L 323.264503 162.437438 
L 323.509156 135.346629 
L 323.753809 135.3797 
L 323.998462 133.18224 
L 324.243115 127.954529 
L 324.487768 127.284395 
L 324.732421 128.801208 
L 324.977074 128.208598 
L 325.221727 128.392754 
L 325.46638 128.349171 
L 326.200339 133.867765 
L 326.689645 134.54031 
L 326.934298 131.378788 
L 327.178951 131.776096 
L 327.423604 134.920515 
L 327.668257 142.931338 
L 327.91291 143.652231 
L 328.157563 145.594468 
L 328.402216 144.712979 
L 328.646869 143.350523 
L 328.891522 143.041166 
L 329.136175 143.166206 
L 329.380828 139.358007 
L 329.625481 139.384799 
L 329.870134 139.621322 
L 330.114787 140.233105 
L 330.35944 141.56996 
L 330.604093 140.420787 
L 330.848746 140.722836 
L 331.093399 141.213314 
L 331.338052 136.302418 
L 331.582705 138.133325 
L 331.827358 131.834163 
L 332.072011 130.673599 
L 332.316664 133.160732 
L 332.561317 133.738301 
L 332.80597 133.821572 
L 333.050623 132.552967 
L 333.295276 132.984479 
L 333.539929 130.633296 
L 333.784582 131.344338 
L 334.029235 130.459294 
L 334.273888 130.357265 
L 334.518541 128.777318 
L 334.763194 129.823544 
L 335.007847 130.034796 
L 335.2525 126.502259 
L 335.497153 129.311029 
L 335.986459 132.217309 
L 336.475765 125.510298 
L 336.720418 122.329888 
L 337.209724 123.499018 
L 337.454377 124.9897 
L 337.69903 124.482413 
L 337.943684 125.872541 
L 338.188337 120.107498 
L 338.43299 120.923612 
L 338.677643 121.18462 
L 338.922296 112.429156 
L 339.411602 114.966594 
L 339.656255 112.004724 
L 339.900908 112.324839 
L 340.145561 113.371255 
L 340.390214 109.561675 
L 340.634867 111.201883 
L 340.87952 111.581597 
L 341.124173 111.418949 
L 341.368826 113.053239 
L 341.858132 111.110103 
L 342.102785 107.167372 
L 342.347438 106.448521 
L 342.592091 106.720931 
L 342.836744 106.06045 
L 343.081397 107.828874 
L 343.32605 111.011554 
L 343.570703 109.49215 
L 343.815356 109.697909 
L 344.060009 109.39899 
L 344.304662 108.825751 
L 344.549315 107.433334 
L 344.793968 108.549011 
L 345.283274 107.829895 
L 345.527927 109.205313 
L 345.77258 108.515959 
L 346.017233 112.509515 
L 346.261886 112.941283 
L 346.506539 109.370344 
L 346.995845 111.827573 
L 347.240498 111.657778 
L 347.485151 110.994631 
L 347.729804 107.990029 
L 347.974457 108.179507 
L 348.21911 105.527429 
L 348.463763 106.374137 
L 348.708416 105.998772 
L 348.953069 104.894989 
L 349.197722 108.535378 
L 349.442375 108.681028 
L 349.687028 109.436806 
L 349.931681 109.205597 
L 350.910293 101.990694 
L 351.154946 102.199573 
L 351.399599 103.54729 
L 351.888905 107.998972 
L 352.133558 107.935252 
L 352.378211 108.436413 
L 352.867517 107.136438 
L 353.11217 106.980711 
L 353.356823 108.206981 
L 353.601476 103.097276 
L 354.090782 112.509875 
L 354.824741 106.990675 
L 355.069394 96.650101 
L 355.314047 99.676259 
L 355.5587 96.329608 
L 355.803353 97.149712 
L 356.048006 93.13738 
L 356.292659 91.816871 
L 356.537312 92.753563 
L 356.781965 90.952711 
L 357.026618 91.292056 
L 357.271271 92.044034 
L 357.515924 90.781517 
L 357.760577 87.215058 
L 358.00523 89.092809 
L 358.249883 86.399681 
L 358.494536 86.821352 
L 358.739189 87.866671 
L 358.983842 95.855486 
L 359.473148 90.392368 
L 359.717801 90.508577 
L 359.962454 89.59138 
L 360.207107 89.552788 
L 360.451761 82.713345 
L 360.696414 84.430717 
L 360.941067 83.026994 
L 361.18572 83.773847 
L 361.430373 83.682748 
L 361.675026 81.186435 
L 361.919679 81.328851 
L 362.653638 79.89807 
L 363.142944 97.703986 
L 363.387597 95.016057 
L 363.876903 97.801287 
L 364.366209 94.94553 
L 364.610862 96.926652 
L 364.855515 93.16958 
L 365.100168 93.690841 
L 365.344821 90.210301 
L 365.589474 90.193681 
L 365.834127 98.449629 
L 366.07878 95.696335 
L 366.323433 99.752364 
L 366.568086 100.283003 
L 366.812739 104.210418 
L 367.057392 102.819477 
L 367.302045 104.733607 
L 367.546698 99.385905 
L 368.036004 94.553715 
L 368.280657 88.678758 
L 368.52531 89.443707 
L 368.769963 86.319662 
L 369.014616 85.243787 
L 369.259269 56.47936 
L 369.503922 58.443389 
L 369.748575 58.273405 
L 369.993228 52.24255 
L 370.237881 52.206417 
L 370.482534 54.461669 
L 370.727187 51.491764 
L 370.97184 59.677695 
L 371.216493 57.544117 
L 371.461146 59.655119 
L 371.705799 59.190564 
L 372.195105 63.148857 
L 372.684411 60.642409 
L 373.173717 68.64236 
L 373.41837 75.118785 
L 373.663023 72.362239 
L 373.907676 73.194766 
L 374.152329 76.165693 
L 374.396982 75.183489 
L 374.641635 79.170238 
L 374.886288 78.15451 
L 375.130941 78.546836 
L 375.375594 75.280866 
L 375.8649 76.746835 
L 376.109553 79.679133 
L 376.598859 76.549037 
L 376.843512 68.872226 
L 377.088165 68.736957 
L 377.577471 69.19047 
L 377.822124 63.606737 
L 378.066777 63.726936 
L 378.31143 66.63764 
L 378.800736 56.462815 
L 379.045389 58.214033 
L 379.534695 59.519113 
L 379.779348 56.895018 
L 380.024001 55.499955 
L 380.268654 56.021177 
L 380.513307 51.701455 
L 380.75796 53.051026 
L 381.002613 64.375808 
L 381.247266 62.970931 
L 381.491919 58.72514 
L 381.736572 61.480892 
L 381.981225 59.911136 
L 382.225878 65.372627 
L 382.470531 62.761239 
L 382.715184 55.743908 
L 382.959838 45.032148 
L 383.204491 40.62887 
L 383.449144 41.305064 
L 383.693797 44.472126 
L 383.93845 44.245719 
L 384.183103 42.721872 
L 384.672409 35.169629 
L 384.917062 38.228611 
L 385.161715 43.398974 
L 385.406368 44.577463 
L 385.651021 44.499353 
L 385.895674 47.403326 
L 386.140327 42.923358 
L 386.38498 45.025738 
L 386.629633 43.142352 
L 386.874286 37.716937 
L 387.363592 42.161321 
L 387.852898 38.242319 
L 387.852898 38.242319 
" style="fill:none;stroke:#1f77b4;stroke-linecap:square;stroke-width:1.5;"/>
   </g>
   <g id="line2d_34">
    <path clip-path="url(#p01ea5d09c0)" d="M 63.198352 275.3451 
L 63.443005 275.506191 
L 63.687658 275.915116 
L 64.176964 276.026641 
L 64.421617 275.518583 
L 64.66627 275.320316 
L 65.155576 275.320316 
L 65.400229 274.960958 
L 65.644882 274.960958 
L 66.134188 274.366159 
L 66.378841 274.180284 
L 66.623494 274.291809 
L 66.868147 274.192676 
L 67.1128 273.957234 
L 67.357453 273.994409 
L 67.846759 274.390942 
L 68.091412 274.52725 
L 68.580719 274.341375 
L 68.825372 274.861825 
L 69.070025 274.998133 
L 69.314678 275.667283 
L 69.559331 275.840766 
L 69.803984 275.543366 
L 70.048637 275.543366 
L 70.29329 275.667283 
L 70.537943 275.444233 
L 70.782596 275.444233 
L 71.027249 275.295533 
L 71.271902 274.849433 
L 71.516555 275.469016 
L 71.761208 275.642499 
L 72.250514 275.171616 
L 72.73982 275.580541 
L 72.984473 276.039032 
L 73.229126 275.803591 
L 73.473779 275.729241 
L 73.718432 275.927507 
L 73.963085 275.642499 
L 74.207738 275.568149 
L 74.697044 273.771359 
L 74.941697 273.783751 
L 75.18635 272.556977 
L 75.431003 273.969626 
L 75.920309 273.882884 
L 76.164962 274.180284 
L 76.409615 274.105934 
L 76.654268 273.870493 
L 76.898921 273.436785 
L 77.143574 273.647443 
L 77.388227 274.068759 
L 77.63288 273.548309 
L 77.877533 273.486351 
L 78.122186 274.923783 
L 78.366839 274.67595 
L 78.856145 271.540861 
L 79.345451 271.949786 
L 79.590104 271.714344 
L 79.834757 272.048919 
L 80.07941 271.813478 
L 80.324063 272.123269 
L 80.568716 271.776303 
L 80.813369 271.726736 
L 81.058022 271.478903 
L 81.302675 271.441728 
L 81.547328 271.144328 
L 81.791981 271.243461 
L 82.281287 270.983237 
L 82.52594 270.871712 
L 82.770593 270.884103 
L 83.015246 271.045195 
L 83.259899 270.85932 
L 83.749205 271.15672 
L 83.993858 271.107153 
L 84.238511 272.110877 
L 84.483164 270.227346 
L 84.727817 270.809753 
L 84.97247 270.314087 
L 85.217123 270.351262 
L 85.461776 270.56192 
L 85.706429 270.326479 
L 85.951082 269.508629 
L 86.195735 269.186446 
L 86.685041 268.802305 
L 86.929694 268.641214 
L 87.174347 268.926222 
L 87.419 269.012963 
L 87.908306 269.595371 
L 88.397612 269.545804 
L 88.642265 269.756463 
L 88.886918 269.174055 
L 89.131571 269.28558 
L 89.376224 268.46773 
L 89.620877 268.579255 
L 89.86553 268.009239 
L 90.354836 268.591647 
L 90.599489 268.219897 
L 91.088796 267.253348 
L 91.333449 267.563139 
L 91.578102 268.306639 
L 91.822755 268.269464 
L 92.067408 268.009239 
L 92.312061 268.257072 
L 92.556714 267.290523 
L 92.801367 259.570521 
L 93.04602 255.555624 
L 93.290673 256.86914 
L 93.535326 255.629974 
L 93.779979 255.877807 
L 94.024632 256.311515 
L 94.269285 256.398257 
L 94.513938 254.638642 
L 94.758591 254.7006 
L 95.003244 252.928593 
L 95.247897 253.362301 
L 95.49255 253.535784 
L 95.737203 254.081017 
L 95.981856 254.068626 
L 96.226509 252.594019 
L 96.471162 252.395752 
L 96.715815 252.024002 
L 96.960468 250.797228 
L 97.205121 252.445319 
L 97.449774 252.432927 
L 97.694427 253.734051 
L 97.93908 253.820793 
L 98.183733 252.97816 
L 98.428386 252.940985 
L 98.673039 252.271835 
L 98.917692 252.048786 
L 99.162345 253.486218 
L 99.406998 253.399476 
L 99.651651 253.188818 
L 99.896304 253.42426 
L 100.140957 252.866635 
L 100.38561 253.622526 
L 100.630263 253.325126 
L 100.874916 251.515944 
L 101.364222 252.841852 
L 101.608875 252.717935 
L 101.853528 253.461435 
L 102.098181 253.164035 
L 102.587487 253.473826 
L 102.83214 253.560568 
L 103.076793 251.825736 
L 103.566099 252.061177 
L 104.300058 255.518449 
L 104.789364 256.42304 
L 105.034017 256.708048 
L 105.27867 255.592799 
L 105.523323 256.175207 
L 105.767976 254.936042 
L 106.012629 254.911258 
L 106.257282 254.32885 
L 106.501935 254.440375 
L 106.991241 256.57174 
L 107.235894 256.64609 
L 107.480547 254.7006 
L 107.7252 247.154081 
L 107.969853 247.203648 
L 108.214506 247.724098 
L 108.459159 247.414306 
L 108.703812 247.501048 
L 108.948465 247.315173 
L 109.193118 247.872797 
L 109.437771 247.600181 
L 109.682424 247.786056 
L 109.927077 248.26933 
L 110.17173 249.062396 
L 110.416383 248.64108 
L 110.661036 247.253215 
L 110.905689 247.030165 
L 111.150342 244.960758 
L 111.394995 244.155301 
L 111.639648 242.482427 
L 111.884301 243.610068 
L 112.128954 243.263101 
L 112.373607 243.163968 
L 112.61826 243.597676 
L 112.862913 245.109458 
L 113.107566 245.530774 
L 113.35222 245.072283 
L 113.596873 247.649748 
L 113.841526 247.451481 
L 114.086179 246.150357 
L 114.330832 245.518383 
L 114.575485 246.274274 
L 114.820138 245.679474 
L 115.064791 246.014049 
L 115.309444 247.017773 
L 115.554097 246.584065 
L 115.79875 246.460149 
L 116.288056 248.814563 
L 116.532709 247.43909 
L 116.777362 247.686923 
L 117.022015 244.985542 
L 117.266668 245.059891 
L 117.511321 244.440309 
L 118.000627 247.166473 
L 118.24528 247.401915 
L 118.489933 247.885189 
L 118.734586 248.021497 
L 118.979239 247.513439 
L 119.223892 248.194981 
L 119.468545 245.865349 
L 119.713198 246.361015 
L 119.957851 246.460149 
L 120.202504 245.716649 
L 120.447157 244.304 
L 120.69181 241.776103 
L 120.936463 242.408077 
L 121.181116 242.346119 
L 121.425769 240.028879 
L 121.670422 239.904962 
L 121.915075 239.458863 
L 122.159728 238.145347 
L 122.649034 238.727755 
L 122.893687 239.198638 
L 123.382993 242.854177 
L 123.627646 241.887627 
L 123.872299 241.961977 
L 124.361605 242.420469 
L 124.606258 242.28416 
L 124.850911 241.466311 
L 125.095564 241.986761 
L 125.340217 240.63607 
L 125.58487 240.26432 
L 125.829523 241.453919 
L 126.074176 241.243261 
L 126.318829 240.821945 
L 126.808135 239.681913 
L 127.052788 239.223421 
L 127.297441 240.71042 
L 127.542094 239.743871 
L 127.786747 239.582779 
L 128.0314 237.19119 
L 128.276053 237.711639 
L 128.520706 237.810773 
L 128.765359 236.286599 
L 129.010012 235.518316 
L 129.254665 236.707915 
L 129.743971 234.613725 
L 129.988624 235.307658 
L 130.47793 233.795876 
L 130.722583 233.324993 
L 130.967236 233.956967 
L 131.211889 233.498476 
L 131.456542 230.152729 
L 131.945848 232.209744 
L 132.190501 231.466244 
L 132.679807 232.544319 
L 132.92446 231.230803 
L 133.169113 231.491028 
L 133.413766 230.016421 
L 133.658419 232.098219 
L 133.903072 231.317545 
L 134.147725 231.193628 
L 134.392378 230.065987 
L 134.637031 230.264254 
L 134.881684 230.83427 
L 135.126337 228.108106 
L 135.37099 227.01764 
L 135.615643 228.616164 
L 135.860297 227.637223 
L 136.10495 229.248138 
L 136.594256 234.514592 
L 136.838909 231.751253 
L 137.083562 232.308877 
L 137.328215 228.145281 
L 137.572868 228.616164 
L 137.817521 228.405505 
L 138.062174 227.129165 
L 138.306827 226.534365 
L 138.55148 222.730127 
L 138.796133 228.479855 
L 139.040786 227.104381 
L 139.285439 226.930898 
L 139.530092 227.500914 
L 139.774745 229.979246 
L 140.019398 227.624831 
L 140.264051 229.248138 
L 140.508704 228.479855 
L 141.242663 225.109325 
L 141.487316 226.150224 
L 141.731969 227.711573 
L 141.976622 226.286532 
L 142.221275 225.753691 
L 142.465928 226.484799 
L 142.710581 226.212182 
L 143.199887 223.647109 
L 143.689193 225.865216 
L 143.933846 225.468683 
L 144.178499 223.870159 
L 144.423152 223.994076 
L 144.667805 223.572759 
L 145.401764 220.80942 
L 145.89107 221.317478 
L 146.135723 222.494685 
L 146.380376 222.184894 
L 146.625029 222.82926 
L 146.869682 222.60621 
L 147.114335 221.292695 
L 147.358988 221.131603 
L 147.603641 219.483513 
L 148.092947 220.722678 
L 148.3376 219.210896 
L 148.582253 218.963063 
L 148.826906 218.876322 
L 149.071559 219.062196 
L 149.316212 218.194781 
L 149.805518 218.839147 
L 150.050171 220.51202 
L 150.294824 220.598762 
L 150.539477 220.388104 
L 150.78413 221.342261 
L 151.028783 221.292695 
L 151.273436 221.912277 
L 151.518089 225.468683 
L 151.762742 225.208458 
L 152.252048 226.769807 
L 152.496701 225.939566 
L 152.741354 225.741299 
L 152.986007 227.079598 
L 153.23066 226.856548 
L 153.719966 227.376998 
L 153.964619 226.484799 
L 154.209272 216.757348 
L 154.453925 217.228231 
L 154.698578 218.083256 
L 154.943231 213.560301 
L 155.187884 214.687942 
L 155.67719 213.10181 
L 155.921843 213.981617 
L 156.166496 213.709001 
L 156.411149 213.981617 
L 156.655802 213.362035 
L 156.900455 209.446271 
L 157.145108 209.371921 
L 157.389761 208.739947 
L 157.634414 209.632146 
L 157.879067 208.293847 
L 158.12372 208.46733 
L 158.368374 208.231889 
L 158.613027 209.756063 
L 158.85768 208.566464 
L 159.102333 209.049738 
L 159.346986 206.435099 
L 159.591639 205.369416 
L 159.836292 206.125307 
L 160.080945 205.518116 
L 160.325598 206.682932 
L 160.570251 206.682932 
L 160.814904 205.02245 
L 161.059557 205.282675 
L 161.548863 206.199657 
L 161.793516 207.686656 
L 162.038169 208.120364 
L 162.282822 208.281455 
L 162.772128 210.425212 
L 163.506087 211.205886 
L 163.75074 210.462387 
L 163.995393 213.696609 
L 164.240046 218.49218 
L 164.484699 219.917221 
L 164.729352 219.669388 
L 165.218658 222.036194 
L 165.463311 223.250576 
L 165.707964 221.007686 
L 165.952617 221.32987 
L 166.19727 222.779693 
L 166.441923 225.852824 
L 166.686576 225.728908 
L 166.931229 223.808201 
L 167.175882 223.077093 
L 167.420535 226.311315 
L 167.665188 227.736356 
L 167.909841 226.86894 
L 168.154494 227.810706 
L 168.399147 226.906115 
L 168.6438 224.365825 
L 168.888453 223.882551 
L 169.133106 219.557863 
L 169.377759 222.990352 
L 169.622412 224.663225 
L 169.867065 228.554205 
L 170.111718 229.942071 
L 170.356371 228.938347 
L 170.601024 228.554205 
L 170.845677 226.001524 
L 171.334983 224.601267 
L 171.579636 227.823097 
L 171.824289 228.826822 
L 172.068942 228.628555 
L 172.313595 227.401781 
L 172.558248 224.415392 
L 172.802901 224.117992 
L 173.047554 223.27536 
L 173.292207 224.638442 
L 173.53686 223.634718 
L 173.781513 221.044861 
L 174.026166 219.768521 
L 174.270819 216.422774 
L 174.515472 216.212115 
L 174.760125 214.340975 
L 175.004778 214.97295 
L 175.249431 214.539242 
L 175.494084 212.073302 
L 175.738737 211.602419 
L 175.98339 210.85892 
L 176.228043 211.651986 
L 176.717349 209.743671 
L 176.962002 209.421488 
L 177.206655 210.673045 
L 177.451308 209.756063 
L 177.695961 209.446271 
L 177.940614 210.78457 
L 178.185267 209.855196 
L 178.42992 209.396704 
L 178.674573 207.029898 
L 178.919226 206.137699 
L 179.163879 207.426431 
L 179.653185 207.761006 
L 179.897838 208.31863 
L 180.142491 206.930765 
L 180.387144 207.748614 
L 180.631798 207.314906 
L 180.876451 207.575131 
L 181.121104 201.813011 
L 181.365757 202.940652 
L 181.61041 201.949319 
L 182.099716 206.782065 
L 182.344369 207.141423 
L 182.589022 207.934489 
L 182.833675 207.686656 
L 183.078328 205.456158 
L 183.567634 206.89359 
L 183.812287 207.785789 
L 184.05694 206.943157 
L 184.301593 205.567683 
L 184.546246 209.260396 
L 185.280205 210.883703 
L 185.524858 210.388037 
L 185.769511 210.462387 
L 186.014164 208.677988 
L 186.258817 210.735003 
L 186.50347 210.26412 
L 186.748123 210.735003 
L 186.992776 210.71022 
L 187.237429 209.396704 
L 187.482082 205.964216 
L 187.726735 206.645757 
L 187.971388 205.629641 
L 188.216041 206.546624 
L 188.460694 205.642033 
L 188.705347 205.753558 
L 189.194653 203.07696 
L 189.439306 202.692818 
L 189.683959 201.974102 
L 189.928612 201.998886 
L 190.173265 200.734937 
L 190.417918 200.437537 
L 190.662571 200.710153 
L 190.907224 201.540394 
L 191.151877 201.441261 
L 191.39653 201.019945 
L 191.641183 201.193428 
L 191.885836 201.05712 
L 192.130489 201.899752 
L 192.619795 200.710153 
L 192.864448 200.772112 
L 193.109101 199.817954 
L 193.353754 200.326012 
L 193.598407 201.20582 
L 193.84306 204.539175 
L 194.087713 204.687875 
L 194.332366 205.109191 
L 194.577019 204.316125 
L 194.821672 204.57635 
L 195.066325 207.19099 
L 195.310978 206.992723 
L 195.555631 205.803124 
L 195.800284 207.054681 
L 196.044937 206.125307 
L 196.28959 205.988999 
L 196.534243 205.703991 
L 196.778896 207.884922 
L 197.268202 204.216992 
L 197.512855 203.523059 
L 197.757508 204.7994 
L 198.002161 202.92826 
L 198.246814 203.845242 
L 198.73612 207.934489 
L 198.980773 206.063349 
L 199.225426 206.162482 
L 199.470079 221.540528 
L 199.714732 222.358377 
L 199.959385 221.974236 
L 200.448691 219.248071 
L 200.693344 217.761073 
L 200.937997 217.414106 
L 201.18265 218.405439 
L 201.427303 217.203448 
L 201.671956 218.64088 
L 201.916609 218.479789 
L 202.161262 216.038632 
L 202.895221 218.231955 
L 203.139875 217.711506 
L 203.384528 217.562806 
L 203.629181 217.017573 
L 203.873834 217.847814 
L 204.118487 217.612373 
L 204.36314 218.405439 
L 204.607793 217.228231 
L 204.852446 218.095647 
L 205.097099 218.120431 
L 205.341752 221.292695 
L 205.586405 220.400495 
L 205.831058 221.788361 
L 206.075711 222.469902 
L 206.320364 223.783418 
L 206.565017 223.399276 
L 207.054323 225.059758 
L 207.298976 223.20101 
L 207.543629 222.705343 
L 207.788282 223.498409 
L 208.032935 223.448843 
L 208.277588 225.468683 
L 208.522241 224.712792 
L 208.766894 226.385665 
L 209.2562 226.360882 
L 209.745506 229.545538 
L 209.990159 226.509582 
L 210.234812 226.373274 
L 210.479465 225.357158 
L 210.724118 225.964349 
L 210.968771 226.013916 
L 211.213424 225.010192 
L 211.458077 225.36955 
L 211.947383 224.811925 
L 212.192036 225.096933 
L 212.436689 223.795809 
L 212.681342 226.94329 
L 212.925995 227.947014 
L 213.170648 227.649614 
L 213.415301 226.360882 
L 213.659954 227.277865 
L 213.904607 229.124221 
L 214.14926 228.244414 
L 214.393913 228.170064 
L 214.638566 228.256805 
L 215.127872 223.820592 
L 215.372525 213.114201 
L 215.617178 209.718888 
L 216.351137 205.17115 
L 216.59579 207.240556 
L 216.840443 207.005115 
L 217.085096 207.364473 
L 217.329749 207.488389 
L 217.574402 204.687875 
L 217.819055 206.137699 
L 218.063708 206.100524 
L 218.308361 206.905982 
L 218.553014 207.141423 
L 218.797667 205.208325 
L 219.04232 205.047233 
L 219.286973 204.712658 
L 219.531626 203.052176 
L 220.020932 201.466044 
L 220.265585 201.552786 
L 220.510238 200.920812 
L 220.754891 202.036061 
L 221.244197 200.896028 
L 221.48885 200.065787 
L 221.733503 201.503219 
L 221.978156 200.549062 
L 222.467462 202.40781 
L 222.712115 202.77956 
L 223.201421 206.682932 
L 223.446074 208.554072 
L 223.690727 207.649481 
L 223.93538 206.199657 
L 224.180033 207.959272 
L 224.424686 210.871312 
L 224.669339 211.478503 
L 224.913992 210.660653 
L 225.403298 209.756063 
L 225.647952 210.33847 
L 225.892605 207.984056 
L 226.137258 210.908487 
L 226.626564 212.147652 
L 226.871217 210.759787 
L 227.360523 212.43266 
L 227.605176 212.271569 
L 227.849829 210.809353 
L 228.094482 210.611087 
L 228.339135 207.438823 
L 228.583788 207.761006 
L 229.317747 200.821678 
L 229.5624 201.404086 
L 229.807053 186.075607 
L 230.051706 184.390342 
L 230.296359 185.12145 
L 230.541012 186.360615 
L 230.785665 186.84389 
L 231.030318 186.596057 
L 231.274971 186.719973 
L 231.519624 185.356891 
L 231.764277 185.889732 
L 232.00893 185.926907 
L 232.253583 187.054548 
L 232.498236 186.955415 
L 232.742889 187.339556 
L 232.987542 185.456024 
L 233.232195 186.335832 
L 233.476848 185.505591 
L 233.721501 183.845109 
L 233.966154 181.131336 
L 234.45546 182.87856 
L 234.700113 181.676569 
L 234.944766 177.004915 
L 235.189419 176.187065 
L 235.434072 176.434899 
L 235.678725 175.542699 
L 235.923378 175.282475 
L 236.168031 175.480741 
L 236.412684 176.534032 
L 236.657337 174.216792 
L 237.146643 175.0966 
L 237.391296 175.282475 
L 237.635949 175.121383 
L 237.880602 175.517916 
L 238.125255 174.848767 
L 238.369908 173.473293 
L 238.614561 174.538975 
L 239.103867 166.769407 
L 239.837826 169.792971 
L 240.082479 167.512906 
L 240.327132 168.752072 
L 240.571785 168.169664 
L 240.816438 169.247738 
L 241.061091 166.100257 
L 241.305744 164.985008 
L 241.550397 165.443499 
L 242.039703 170.214287 
L 242.284356 171.27997 
L 242.529009 169.272521 
L 242.773662 169.532746 
L 243.262968 168.380322 
L 243.752274 169.693838 
L 244.486233 160.300962 
L 244.730886 161.193161 
L 244.975539 163.968892 
L 245.220192 142.060444 
L 245.464845 143.349176 
L 245.709498 148.578455 
L 245.954151 146.14969 
L 246.68811 150.077845 
L 246.932763 153.683817 
L 247.177416 153.10141 
L 247.422069 152.87836 
L 247.911375 143.919192 
L 248.156029 146.087732 
L 248.400682 135.443299 
L 248.889988 128.875721 
L 249.134641 132.506477 
L 249.623947 133.473026 
L 249.8686 136.236365 
L 250.113253 132.246252 
L 250.357906 132.667568 
L 250.602559 130.226412 
L 250.847212 131.849719 
L 251.091865 134.315659 
L 251.825824 165.517849 
L 252.070477 159.768121 
L 252.559783 139.767987 
L 252.804436 139.805162 
L 253.049089 143.026993 
L 253.293742 154.476883 
L 253.538395 154.910591 
L 253.783048 160.338137 
L 254.027701 163.151043 
L 254.272354 167.909439 
L 254.517007 162.667768 
L 254.76166 162.296019 
L 255.250966 166.992456 
L 255.740272 156.595857 
L 255.984925 156.434765 
L 256.229578 158.405039 
L 256.718884 163.547576 
L 256.963537 164.043242 
L 257.20819 156.99239 
L 257.452843 158.875921 
L 257.697496 162.30841 
L 257.942149 163.696276 
L 258.431455 154.241442 
L 258.676108 154.08035 
L 258.920761 147.711039 
L 259.165414 151.329403 
L 259.410067 151.614411 
L 259.65472 143.15091 
L 259.899373 145.133575 
L 260.144026 144.984875 
L 260.388679 149.594571 
L 260.633332 148.974988 
L 260.877985 160.300962 
L 261.122638 162.90321 
L 261.367291 159.557463 
L 261.611944 162.90321 
L 262.10125 164.972616 
L 262.590556 157.884589 
L 262.835209 157.847414 
L 263.079862 154.464492 
L 263.324515 155.307124 
L 263.569168 151.267444 
L 263.813821 152.184427 
L 264.058474 149.582179 
L 264.303127 144.241375 
L 264.54778 144.922916 
L 264.792433 144.228984 
L 265.037086 149.433479 
L 265.281739 145.914249 
L 265.526392 145.715982 
L 266.015698 157.128698 
L 266.505004 140.46192 
L 266.749657 136.087665 
L 266.99431 136.595723 
L 267.238963 132.109944 
L 267.483616 130.635337 
L 267.728269 132.766702 
L 267.972922 131.713411 
L 268.217575 130.127279 
L 268.462228 132.741918 
L 268.706881 130.21402 
L 268.951534 125.802591 
L 269.196187 128.429622 
L 269.44084 123.324259 
L 269.685493 130.226412 
L 269.930146 128.218964 
L 270.174799 131.663844 
L 270.419452 133.262368 
L 270.664106 138.21903 
L 270.908759 136.038099 
L 271.153412 138.603172 
L 271.398065 133.596943 
L 271.642718 133.758034 
L 271.887371 139.321888 
L 272.132024 141.044328 
L 272.376677 141.527603 
L 272.62133 139.148405 
L 272.865983 140.176912 
L 273.110636 140.449528 
L 273.355289 137.958806 
L 273.844595 143.832451 
L 274.089248 149.309563 
L 274.333901 152.159644 
L 274.578554 139.743204 
L 275.06786 147.537556 
L 275.312513 143.101343 
L 275.557166 141.106286 
L 275.801819 153.522726 
L 276.046472 152.903143 
L 276.291125 156.645423 
L 276.535778 151.874636 
L 276.780431 152.06051 
L 277.025084 158.739613 
L 277.759043 164.340642 
L 278.003696 172.618268 
L 278.248349 168.578588 
L 278.493002 171.763244 
L 278.737655 168.975121 
L 278.982308 172.196952 
L 279.471614 174.402667 
L 279.716267 182.977693 
L 279.96092 182.320935 
L 280.450226 175.964016 
L 280.694879 178.566263 
L 280.939532 177.26514 
L 281.184185 175.220516 
L 281.428838 168.14488 
L 281.673491 173.436118 
L 281.918144 174.997466 
L 282.162797 171.651719 
L 282.40745 175.133775 
L 282.896756 168.429889 
L 283.386062 167.884656 
L 283.630715 169.817754 
L 283.875368 163.758234 
L 284.120021 164.613258 
L 284.364674 164.216725 
L 284.609327 159.693771 
L 284.85398 167.24029 
L 285.098633 166.323307 
L 285.343286 164.129984 
L 285.587939 164.92305 
L 285.832592 164.5513 
L 286.077245 163.968892 
L 286.321898 164.303467 
L 286.566551 162.45711 
L 286.811204 161.998619 
L 287.055857 160.263787 
L 287.30051 160.338137 
L 287.545163 161.849919 
L 287.789816 162.15971 
L 288.034469 163.683884 
L 288.523775 156.533898 
L 288.768428 158.93788 
L 289.013081 158.888313 
L 289.257734 154.588408 
L 289.502387 156.261282 
L 289.74704 155.530174 
L 289.991693 155.666482 
L 290.236346 156.137365 
L 290.480999 156.930431 
L 290.725652 158.330689 
L 291.214958 149.693704 
L 291.704264 147.388856 
L 291.948917 151.242661 
L 292.19357 168.66533 
L 292.438223 165.654158 
L 292.682876 167.872264 
L 292.92753 166.732232 
L 293.172183 169.631879 
L 293.906142 173.696343 
L 294.150795 174.006134 
L 294.395448 170.189504 
L 294.640101 172.134994 
L 294.884754 173.064368 
L 295.129407 174.823983 
L 295.37406 173.00241 
L 295.618713 173.374159 
L 295.863366 170.46212 
L 296.352672 176.843823 
L 296.597325 176.67034 
L 296.841978 175.133775 
L 297.086631 175.740966 
L 297.331284 173.423726 
L 297.575937 174.600933 
L 298.554549 161.403819 
L 298.799202 158.169597 
L 299.043855 157.562406 
L 299.777814 160.102695 
L 300.022467 162.15971 
L 300.26712 160.73467 
L 300.511773 161.787961 
L 300.756426 164.303467 
L 301.001079 165.257625 
L 301.245732 169.396438 
L 301.490385 169.272521 
L 301.979691 168.727288 
L 302.224344 167.302248 
L 302.71365 169.334479 
L 302.958303 172.816535 
L 303.202956 174.030917 
L 303.447609 171.986294 
L 303.936915 179.830212 
L 304.426221 172.729793 
L 304.670874 172.209344 
L 304.915527 165.778074 
L 305.16018 164.241509 
L 305.404833 168.343147 
L 305.649486 167.723564 
L 305.894139 165.294799 
L 306.138792 168.256405 
L 306.383445 166.64549 
L 306.628098 166.075474 
L 306.872751 164.1052 
L 307.362057 163.12626 
L 307.60671 179.198238 
L 307.851363 176.633165 
L 308.096016 179.012363 
L 308.340669 179.13628 
L 308.585322 176.942956 
L 308.829975 172.296085 
L 309.074628 171.515411 
L 309.563934 172.494352 
L 309.808587 168.628155 
L 310.297893 170.201895 
L 310.542546 169.780579 
L 310.787199 165.331974 
L 311.276505 169.099038 
L 311.521158 169.173388 
L 311.765811 166.744623 
L 312.010464 165.877207 
L 312.255117 167.463339 
L 312.49977 167.698781 
L 312.744423 166.149824 
L 313.233729 166.769407 
L 313.478382 167.525298 
L 313.723035 166.682665 
L 313.967688 167.624431 
L 314.212341 164.972616 
L 314.456994 164.650433 
L 314.701647 164.9974 
L 314.9463 164.811525 
L 315.68026 164.898266 
L 315.924913 161.540128 
L 316.169566 162.704943 
L 316.414219 162.072969 
L 316.658872 165.988732 
L 316.903525 162.82886 
L 317.148178 166.49679 
L 317.392831 165.356758 
L 317.637484 164.947833 
L 317.882137 162.296019 
L 318.12679 164.055634 
L 318.371443 163.820192 
L 318.616096 167.996181 
L 318.860749 166.818973 
L 319.105402 166.682665 
L 319.350055 168.392714 
L 319.594708 165.282408 
L 319.839361 164.77435 
L 320.084014 165.778074 
L 320.328667 163.448443 
L 320.57332 158.392647 
L 320.817973 158.752005 
L 321.062626 153.869692 
L 321.307279 155.369083 
L 321.551932 155.678874 
L 321.796585 157.525231 
L 322.041238 160.920545 
L 322.285891 162.271235 
L 322.530544 161.366644 
L 322.775197 159.830079 
L 323.01985 161.899486 
L 323.264503 138.36773 
L 323.509156 134.5511 
L 323.753809 132.717135 
L 323.998462 127.574598 
L 324.243115 127.785256 
L 324.487768 128.801372 
L 324.732421 128.231355 
L 324.977074 128.850938 
L 325.221727 128.727022 
L 325.711033 132.779093 
L 325.955686 133.968692 
L 326.444992 134.352834 
L 326.689645 131.192961 
L 326.934298 131.490361 
L 327.178951 134.154567 
L 327.423604 142.543718 
L 327.668257 143.336784 
L 327.91291 145.071616 
L 328.157563 144.811392 
L 328.402216 142.828727 
L 328.646869 143.026993 
L 328.891522 142.803943 
L 329.136175 139.396238 
L 329.380828 139.297104 
L 330.114787 140.672578 
L 330.35944 139.953862 
L 330.604093 140.585837 
L 330.848746 140.31322 
L 331.093399 135.864616 
L 331.338052 137.909239 
L 331.582705 131.205353 
L 331.827358 130.189237 
L 332.072011 132.853443 
L 332.316664 133.299543 
L 332.561317 133.361501 
L 332.80597 132.184294 
L 333.050623 132.60561 
L 333.295276 130.672512 
L 333.539929 131.639061 
L 333.784582 130.114887 
L 334.029235 130.523812 
L 334.273888 128.813763 
L 334.518541 129.953796 
L 334.763194 129.941404 
L 335.007847 126.521307 
L 335.2525 129.569654 
L 335.497153 130.263587 
L 335.741806 132.15951 
L 335.986459 127.586989 
L 336.475765 122.233794 
L 336.720418 123.150776 
L 336.965071 123.299476 
L 337.209724 124.612992 
L 337.454377 123.857101 
L 337.69903 125.492799 
L 337.943684 119.891771 
L 338.188337 120.895495 
L 338.43299 120.437003 
L 338.677643 114.0553 
L 338.922296 113.819859 
L 339.166949 115.319249 
L 339.411602 111.948719 
L 339.900908 113.373759 
L 340.145561 109.049071 
L 340.390214 110.573245 
L 340.634867 111.205219 
L 340.87952 111.118478 
L 341.124173 113.07636 
L 341.613479 110.883036 
L 341.858132 107.128365 
L 342.102785 106.211382 
L 342.347438 106.954881 
L 342.592091 106.112249 
L 342.836744 108.119697 
L 343.081397 111.068911 
L 343.32605 109.272121 
L 343.570703 109.594304 
L 343.815356 109.334079 
L 344.060009 108.863196 
L 344.304662 107.301848 
L 344.549315 108.640147 
L 344.793968 108.057739 
L 345.038621 107.859472 
L 345.283274 109.445604 
L 345.527927 108.801238 
L 345.77258 112.667435 
L 346.017233 113.15071 
L 346.261886 109.681046 
L 346.506539 110.31302 
L 346.751192 111.688494 
L 346.995845 111.428269 
L 347.240498 110.98217 
L 347.485151 107.723164 
L 347.729804 108.132089 
L 347.974457 105.579407 
L 348.21911 106.64509 
L 348.708416 104.860691 
L 348.953069 109.086246 
L 349.197722 108.801238 
L 349.442375 109.804962 
L 349.687028 109.581912 
L 350.176334 105.678541 
L 350.66564 102.097352 
L 350.910293 102.407143 
L 351.154946 103.510001 
L 351.644252 107.599247 
L 351.888905 107.450548 
L 352.133558 108.231222 
L 352.622864 106.694657 
L 352.867517 107.339023 
L 353.11217 108.466663 
L 353.356823 103.101076 
L 353.846129 112.382427 
L 354.580088 107.339023 
L 354.824741 97.016773 
L 355.069394 99.482713 
L 355.314047 95.876741 
L 355.5587 96.967206 
L 355.803353 93.063835 
L 356.048006 91.700752 
L 356.292659 92.766435 
L 356.537312 90.70942 
L 356.781965 91.514878 
L 357.026618 91.787494 
L 357.271271 90.449195 
L 357.515924 86.954748 
L 357.760577 89.110896 
L 358.00523 86.29799 
L 358.494536 88.032822 
L 358.739189 95.728041 
L 358.983842 92.630127 
L 359.228495 90.994428 
L 359.473148 90.820945 
L 359.717801 89.842004 
L 359.962454 90.089837 
L 360.207107 83.522259 
L 360.451761 84.290542 
L 360.696414 83.311601 
L 361.18572 83.596609 
L 361.430373 80.882836 
L 361.675026 81.031536 
L 361.919679 80.895228 
L 362.408985 80.01542 
L 362.898291 97.908972 
L 363.142944 96.32284 
L 363.63225 97.512439 
L 363.876903 96.744156 
L 364.121556 95.480208 
L 364.366209 97.153081 
L 364.610862 93.460368 
L 364.855515 93.633851 
L 365.100168 89.755262 
L 365.344821 90.399628 
L 365.589474 98.41703 
L 365.834127 95.467816 
L 366.07878 99.581846 
L 366.323433 100.424478 
L 366.568086 104.439375 
L 366.812739 102.654977 
L 367.057392 104.340242 
L 367.546698 96.384798 
L 367.791351 94.327784 
L 368.036004 88.850671 
L 368.280657 89.519821 
L 368.52531 85.913849 
L 368.769963 85.195133 
L 369.014616 58.057405 
L 369.259269 57.735222 
L 369.503922 58.057405 
L 369.748575 51.935927 
L 369.993228 52.716601 
L 370.237881 53.881417 
L 370.482534 51.266778 
L 370.727187 59.197438 
L 370.97184 57.512172 
L 371.216493 60.461387 
L 371.461146 60.002895 
L 371.950452 63.472559 
L 372.439758 60.870311 
L 372.929064 67.747681 
L 373.173717 75.97574 
L 373.41837 73.175226 
L 373.663023 73.670892 
L 373.907676 76.768806 
L 374.152329 74.934841 
L 374.396982 79.755196 
L 374.641635 79.197571 
L 374.886288 78.924955 
L 375.130941 75.727907 
L 375.375594 76.074874 
L 375.620247 77.227298 
L 375.8649 79.928679 
L 376.354206 76.384665 
L 376.598859 69.098371 
L 377.088165 69.036413 
L 377.332818 69.309029 
L 377.577471 63.447776 
L 377.822124 63.757567 
L 378.066777 66.954615 
L 378.556083 56.136699 
L 379.045389 59.259396 
L 379.290042 59.606362 
L 379.534695 56.793456 
L 379.779348 55.479941 
L 380.024001 55.690599 
L 380.268654 51.638527 
L 380.513307 53.410534 
L 380.75796 64.315192 
L 381.002613 63.286684 
L 381.247266 60.077245 
L 381.491919 61.650986 
L 381.736572 60.845528 
L 381.981225 66.223507 
L 382.225878 63.522126 
L 382.470531 57.004115 
L 382.715184 44.686808 
L 382.959838 40.188637 
L 383.204491 41.613677 
L 383.449144 43.831784 
L 383.693797 43.992875 
L 383.93845 42.865235 
L 384.427756 34.414125 
L 384.917062 43.261768 
L 385.161715 43.769826 
L 385.406368 44.971816 
L 385.651021 47.066006 
L 385.895674 42.666968 
L 386.140327 45.455091 
L 386.38498 43.670692 
L 386.629633 38.305105 
L 386.874286 39.754929 
L 387.118939 42.15891 
L 387.608245 38.577722 
L 387.852898 37.722697 
L 387.852898 37.722697 
" style="fill:none;stroke:#ff7f0e;stroke-linecap:square;stroke-width:1.5;"/>
   </g>
   <g id="patch_3">
    <path d="M 46.965625 288.430125 
L 46.965625 22.318125 
" style="fill:none;stroke:#000000;stroke-linecap:square;stroke-linejoin:miter;stroke-width:0.8;"/>
   </g>
   <g id="patch_4">
    <path d="M 404.085625 288.430125 
L 404.085625 22.318125 
" style="fill:none;stroke:#000000;stroke-linecap:square;stroke-linejoin:miter;stroke-width:0.8;"/>
   </g>
   <g id="patch_5">
    <path d="M 46.965625 288.430125 
L 404.085625 288.430125 
" style="fill:none;stroke:#000000;stroke-linecap:square;stroke-linejoin:miter;stroke-width:0.8;"/>
   </g>
   <g id="patch_6">
    <path d="M 46.965625 22.318125 
L 404.085625 22.318125 
" style="fill:none;stroke:#000000;stroke-linecap:square;stroke-linejoin:miter;stroke-width:0.8;"/>
   </g>
   <g id="text_19">
    <!-- Training: NFLX -->
    <defs>
     <path d="M -0.296875 72.90625 
L 61.375 72.90625 
L 61.375 64.59375 
L 35.5 64.59375 
L 35.5 0 
L 25.59375 0 
L 25.59375 64.59375 
L -0.296875 64.59375 
z
" id="DejaVuSans-84"/>
     <path d="M 54.890625 33.015625 
L 54.890625 0 
L 45.90625 0 
L 45.90625 32.71875 
Q 45.90625 40.484375 42.875 44.328125 
Q 39.84375 48.1875 33.796875 48.1875 
Q 26.515625 48.1875 22.3125 43.546875 
Q 18.109375 38.921875 18.109375 30.90625 
L 18.109375 0 
L 9.078125 0 
L 9.078125 54.6875 
L 18.109375 54.6875 
L 18.109375 46.1875 
Q 21.34375 51.125 25.703125 53.5625 
Q 30.078125 56 35.796875 56 
Q 45.21875 56 50.046875 50.171875 
Q 54.890625 44.34375 54.890625 33.015625 
z
" id="DejaVuSans-110"/>
     <path d="M 45.40625 27.984375 
Q 45.40625 37.75 41.375 43.109375 
Q 37.359375 48.484375 30.078125 48.484375 
Q 22.859375 48.484375 18.828125 43.109375 
Q 14.796875 37.75 14.796875 27.984375 
Q 14.796875 18.265625 18.828125 12.890625 
Q 22.859375 7.515625 30.078125 7.515625 
Q 37.359375 7.515625 41.375 12.890625 
Q 45.40625 18.265625 45.40625 27.984375 
z
M 54.390625 6.78125 
Q 54.390625 -7.171875 48.1875 -13.984375 
Q 42 -20.796875 29.203125 -20.796875 
Q 24.46875 -20.796875 20.265625 -20.09375 
Q 16.0625 -19.390625 12.109375 -17.921875 
L 12.109375 -9.1875 
Q 16.0625 -11.328125 19.921875 -12.34375 
Q 23.78125 -13.375 27.78125 -13.375 
Q 36.625 -13.375 41.015625 -8.765625 
Q 45.40625 -4.15625 45.40625 5.171875 
L 45.40625 9.625 
Q 42.625 4.78125 38.28125 2.390625 
Q 33.9375 0 27.875 0 
Q 17.828125 0 11.671875 7.65625 
Q 5.515625 15.328125 5.515625 27.984375 
Q 5.515625 40.671875 11.671875 48.328125 
Q 17.828125 56 27.875 56 
Q 33.9375 56 38.28125 53.609375 
Q 42.625 51.21875 45.40625 46.390625 
L 45.40625 54.6875 
L 54.390625 54.6875 
z
" id="DejaVuSans-103"/>
     <path d="M 11.71875 12.40625 
L 22.015625 12.40625 
L 22.015625 0 
L 11.71875 0 
z
M 11.71875 51.703125 
L 22.015625 51.703125 
L 22.015625 39.3125 
L 11.71875 39.3125 
z
" id="DejaVuSans-58"/>
     <path d="M 9.8125 72.90625 
L 23.09375 72.90625 
L 55.421875 11.921875 
L 55.421875 72.90625 
L 64.984375 72.90625 
L 64.984375 0 
L 51.703125 0 
L 19.390625 60.984375 
L 19.390625 0 
L 9.8125 0 
z
" id="DejaVuSans-78"/>
     <path d="M 9.8125 72.90625 
L 51.703125 72.90625 
L 51.703125 64.59375 
L 19.671875 64.59375 
L 19.671875 43.109375 
L 48.578125 43.109375 
L 48.578125 34.8125 
L 19.671875 34.8125 
L 19.671875 0 
L 9.8125 0 
z
" id="DejaVuSans-70"/>
     <path d="M 9.8125 72.90625 
L 19.671875 72.90625 
L 19.671875 8.296875 
L 55.171875 8.296875 
L 55.171875 0 
L 9.8125 0 
z
" id="DejaVuSans-76"/>
     <path d="M 6.296875 72.90625 
L 16.890625 72.90625 
L 35.015625 45.796875 
L 53.21875 72.90625 
L 63.8125 72.90625 
L 40.375 37.890625 
L 65.375 0 
L 54.78125 0 
L 34.28125 31 
L 13.625 0 
L 2.984375 0 
L 29 38.921875 
z
" id="DejaVuSans-88"/>
    </defs>
    <g transform="translate(182.53375 16.318125)scale(0.12 -0.12)">
     <use xlink:href="#DejaVuSans-84"/>
     <use x="46.333984" xlink:href="#DejaVuSans-114"/>
     <use x="87.447266" xlink:href="#DejaVuSans-97"/>
     <use x="148.726562" xlink:href="#DejaVuSans-105"/>
     <use x="176.509766" xlink:href="#DejaVuSans-110"/>
     <use x="239.888672" xlink:href="#DejaVuSans-105"/>
     <use x="267.671875" xlink:href="#DejaVuSans-110"/>
     <use x="331.050781" xlink:href="#DejaVuSans-103"/>
     <use x="394.527344" xlink:href="#DejaVuSans-58"/>
     <use x="428.21875" xlink:href="#DejaVuSans-32"/>
     <use x="460.005859" xlink:href="#DejaVuSans-78"/>
     <use x="534.810547" xlink:href="#DejaVuSans-70"/>
     <use x="592.330078" xlink:href="#DejaVuSans-76"/>
     <use x="648.042969" xlink:href="#DejaVuSans-88"/>
    </g>
   </g>
   <g id="legend_1">
    <g id="patch_7">
     <path d="M 53.965625 59.674375 
L 137.69375 59.674375 
Q 139.69375 59.674375 139.69375 57.674375 
L 139.69375 29.318125 
Q 139.69375 27.318125 137.69375 27.318125 
L 53.965625 27.318125 
Q 51.965625 27.318125 51.965625 29.318125 
L 51.965625 57.674375 
Q 51.965625 59.674375 53.965625 59.674375 
z
" style="fill:#ffffff;opacity:0.8;stroke:#cccccc;stroke-linejoin:miter;"/>
    </g>
    <g id="line2d_35">
     <path d="M 55.965625 35.416562 
L 75.965625 35.416562 
" style="fill:none;stroke:#1f77b4;stroke-linecap:square;stroke-width:1.5;"/>
    </g>
    <g id="line2d_36"/>
    <g id="text_20">
     <!-- Predicted -->
     <defs>
      <path d="M 45.40625 46.390625 
L 45.40625 75.984375 
L 54.390625 75.984375 
L 54.390625 0 
L 45.40625 0 
L 45.40625 8.203125 
Q 42.578125 3.328125 38.25 0.953125 
Q 33.9375 -1.421875 27.875 -1.421875 
Q 17.96875 -1.421875 11.734375 6.484375 
Q 5.515625 14.40625 5.515625 27.296875 
Q 5.515625 40.1875 11.734375 48.09375 
Q 17.96875 56 27.875 56 
Q 33.9375 56 38.25 53.625 
Q 42.578125 51.265625 45.40625 46.390625 
z
M 14.796875 27.296875 
Q 14.796875 17.390625 18.875 11.75 
Q 22.953125 6.109375 30.078125 6.109375 
Q 37.203125 6.109375 41.296875 11.75 
Q 45.40625 17.390625 45.40625 27.296875 
Q 45.40625 37.203125 41.296875 42.84375 
Q 37.203125 48.484375 30.078125 48.484375 
Q 22.953125 48.484375 18.875 42.84375 
Q 14.796875 37.203125 14.796875 27.296875 
z
" id="DejaVuSans-100"/>
      <path d="M 18.3125 70.21875 
L 18.3125 54.6875 
L 36.8125 54.6875 
L 36.8125 47.703125 
L 18.3125 47.703125 
L 18.3125 18.015625 
Q 18.3125 11.328125 20.140625 9.421875 
Q 21.96875 7.515625 27.59375 7.515625 
L 36.8125 7.515625 
L 36.8125 0 
L 27.59375 0 
Q 17.1875 0 13.234375 3.875 
Q 9.28125 7.765625 9.28125 18.015625 
L 9.28125 47.703125 
L 2.6875 47.703125 
L 2.6875 54.6875 
L 9.28125 54.6875 
L 9.28125 70.21875 
z
" id="DejaVuSans-116"/>
     </defs>
     <g transform="translate(83.965625 38.916562)scale(0.1 -0.1)">
      <use xlink:href="#DejaVuSans-80"/>
      <use x="58.552734" xlink:href="#DejaVuSans-114"/>
      <use x="97.416016" xlink:href="#DejaVuSans-101"/>
      <use x="158.939453" xlink:href="#DejaVuSans-100"/>
      <use x="222.416016" xlink:href="#DejaVuSans-105"/>
      <use x="250.199219" xlink:href="#DejaVuSans-99"/>
      <use x="305.179688" xlink:href="#DejaVuSans-116"/>
      <use x="344.388672" xlink:href="#DejaVuSans-101"/>
      <use x="405.912109" xlink:href="#DejaVuSans-100"/>
     </g>
    </g>
    <g id="line2d_37">
     <path d="M 55.965625 50.094687 
L 75.965625 50.094687 
" style="fill:none;stroke:#ff7f0e;stroke-linecap:square;stroke-width:1.5;"/>
    </g>
    <g id="line2d_38"/>
    <g id="text_21">
     <!-- True value -->
     <defs>
      <path d="M 8.5 21.578125 
L 8.5 54.6875 
L 17.484375 54.6875 
L 17.484375 21.921875 
Q 17.484375 14.15625 20.5 10.265625 
Q 23.53125 6.390625 29.59375 6.390625 
Q 36.859375 6.390625 41.078125 11.03125 
Q 45.3125 15.671875 45.3125 23.6875 
L 45.3125 54.6875 
L 54.296875 54.6875 
L 54.296875 0 
L 45.3125 0 
L 45.3125 8.40625 
Q 42.046875 3.421875 37.71875 1 
Q 33.40625 -1.421875 27.6875 -1.421875 
Q 18.265625 -1.421875 13.375 4.4375 
Q 8.5 10.296875 8.5 21.578125 
z
M 31.109375 56 
z
" id="DejaVuSans-117"/>
      <path d="M 2.984375 54.6875 
L 12.5 54.6875 
L 29.59375 8.796875 
L 46.6875 54.6875 
L 56.203125 54.6875 
L 35.6875 0 
L 23.484375 0 
z
" id="DejaVuSans-118"/>
      <path d="M 9.421875 75.984375 
L 18.40625 75.984375 
L 18.40625 0 
L 9.421875 0 
z
" id="DejaVuSans-108"/>
     </defs>
     <g transform="translate(83.965625 53.594687)scale(0.1 -0.1)">
      <use xlink:href="#DejaVuSans-84"/>
      <use x="46.333984" xlink:href="#DejaVuSans-114"/>
      <use x="87.447266" xlink:href="#DejaVuSans-117"/>
      <use x="150.826172" xlink:href="#DejaVuSans-101"/>
      <use x="212.349609" xlink:href="#DejaVuSans-32"/>
      <use x="244.136719" xlink:href="#DejaVuSans-118"/>
      <use x="303.316406" xlink:href="#DejaVuSans-97"/>
      <use x="364.595703" xlink:href="#DejaVuSans-108"/>
      <use x="392.378906" xlink:href="#DejaVuSans-117"/>
      <use x="455.757812" xlink:href="#DejaVuSans-101"/>
     </g>
    </g>
   </g>
  </g>
 </g>
 <defs>
  <clipPath id="p01ea5d09c0">
   <rect height="266.112" width="357.12" x="46.965625" y="22.318125"/>
  </clipPath>
 </defs>
</svg>
