<?xml version="1.0" encoding="utf-8" standalone="no"?>
<!DOCTYPE svg PUBLIC "-//W3C//DTD SVG 1.1//EN"
  "http://www.w3.org/Graphics/SVG/1.1/DTD/svg11.dtd">
<!-- Created with matplotlib (https://matplotlib.org/) -->
<svg height="325.986375pt" version="1.1" viewBox="0 0 411.285625 325.986375" width="411.285625pt" xmlns="http://www.w3.org/2000/svg" xmlns:xlink="http://www.w3.org/1999/xlink">
 <defs>
  <style type="text/css">
*{stroke-linecap:butt;stroke-linejoin:round;}
  </style>
 </defs>
 <g id="figure_1">
  <g id="patch_1">
   <path d="M 0 325.986375 
L 411.285625 325.986375 
L 411.285625 0 
L 0 0 
z
" style="fill:#ffffff;"/>
  </g>
  <g id="axes_1">
   <g id="patch_2">
    <path d="M 46.965625 288.430125 
L 404.085625 288.430125 
L 404.085625 22.318125 
L 46.965625 22.318125 
z
" style="fill:#ffffff;"/>
   </g>
   <g id="matplotlib.axis_1">
    <g id="xtick_1">
     <g id="line2d_1">
      <path clip-path="url(#p00e11e6fa2)" d="M 63.198352 288.430125 
L 63.198352 22.318125 
" style="fill:none;stroke:#b0b0b0;stroke-dasharray:2.96,1.28;stroke-dashoffset:0;stroke-width:0.8;"/>
     </g>
     <g id="line2d_2">
      <defs>
       <path d="M 0 0 
L 0 3.5 
" id="m5ae5d95592" style="stroke:#000000;stroke-width:0.8;"/>
      </defs>
      <g>
       <use style="stroke:#000000;stroke-width:0.8;" x="63.198352" xlink:href="#m5ae5d95592" y="288.430125"/>
      </g>
     </g>
     <g id="text_1">
      <!-- 0 -->
      <defs>
       <path d="M 31.78125 66.40625 
Q 24.171875 66.40625 20.328125 58.90625 
Q 16.5 51.421875 16.5 36.375 
Q 16.5 21.390625 20.328125 13.890625 
Q 24.171875 6.390625 31.78125 6.390625 
Q 39.453125 6.390625 43.28125 13.890625 
Q 47.125 21.390625 47.125 36.375 
Q 47.125 51.421875 43.28125 58.90625 
Q 39.453125 66.40625 31.78125 66.40625 
z
M 31.78125 74.21875 
Q 44.046875 74.21875 50.515625 64.515625 
Q 56.984375 54.828125 56.984375 36.375 
Q 56.984375 17.96875 50.515625 8.265625 
Q 44.046875 -1.421875 31.78125 -1.421875 
Q 19.53125 -1.421875 13.0625 8.265625 
Q 6.59375 17.96875 6.59375 36.375 
Q 6.59375 54.828125 13.0625 64.515625 
Q 19.53125 74.21875 31.78125 74.21875 
z
" id="DejaVuSans-48"/>
      </defs>
      <g transform="translate(60.017102 303.028562)scale(0.1 -0.1)">
       <use xlink:href="#DejaVuSans-48"/>
      </g>
     </g>
    </g>
    <g id="xtick_2">
     <g id="line2d_3">
      <path clip-path="url(#p00e11e6fa2)" d="M 112.128954 288.430125 
L 112.128954 22.318125 
" style="fill:none;stroke:#b0b0b0;stroke-dasharray:2.96,1.28;stroke-dashoffset:0;stroke-width:0.8;"/>
     </g>
     <g id="line2d_4">
      <g>
       <use style="stroke:#000000;stroke-width:0.8;" x="112.128954" xlink:href="#m5ae5d95592" y="288.430125"/>
      </g>
     </g>
     <g id="text_2">
      <!-- 200 -->
      <defs>
       <path d="M 19.1875 8.296875 
L 53.609375 8.296875 
L 53.609375 0 
L 7.328125 0 
L 7.328125 8.296875 
Q 12.9375 14.109375 22.625 23.890625 
Q 32.328125 33.6875 34.8125 36.53125 
Q 39.546875 41.84375 41.421875 45.53125 
Q 43.3125 49.21875 43.3125 52.78125 
Q 43.3125 58.59375 39.234375 62.25 
Q 35.15625 65.921875 28.609375 65.921875 
Q 23.96875 65.921875 18.8125 64.3125 
Q 13.671875 62.703125 7.8125 59.421875 
L 7.8125 69.390625 
Q 13.765625 71.78125 18.9375 73 
Q 24.125 74.21875 28.421875 74.21875 
Q 39.75 74.21875 46.484375 68.546875 
Q 53.21875 62.890625 53.21875 53.421875 
Q 53.21875 48.921875 51.53125 44.890625 
Q 49.859375 40.875 45.40625 35.40625 
Q 44.1875 33.984375 37.640625 27.21875 
Q 31.109375 20.453125 19.1875 8.296875 
z
" id="DejaVuSans-50"/>
      </defs>
      <g transform="translate(102.585204 303.028562)scale(0.1 -0.1)">
       <use xlink:href="#DejaVuSans-50"/>
       <use x="63.623047" xlink:href="#DejaVuSans-48"/>
       <use x="127.246094" xlink:href="#DejaVuSans-48"/>
      </g>
     </g>
    </g>
    <g id="xtick_3">
     <g id="line2d_5">
      <path clip-path="url(#p00e11e6fa2)" d="M 161.059557 288.430125 
L 161.059557 22.318125 
" style="fill:none;stroke:#b0b0b0;stroke-dasharray:2.96,1.28;stroke-dashoffset:0;stroke-width:0.8;"/>
     </g>
     <g id="line2d_6">
      <g>
       <use style="stroke:#000000;stroke-width:0.8;" x="161.059557" xlink:href="#m5ae5d95592" y="288.430125"/>
      </g>
     </g>
     <g id="text_3">
      <!-- 400 -->
      <defs>
       <path d="M 37.796875 64.3125 
L 12.890625 25.390625 
L 37.796875 25.390625 
z
M 35.203125 72.90625 
L 47.609375 72.90625 
L 47.609375 25.390625 
L 58.015625 25.390625 
L 58.015625 17.1875 
L 47.609375 17.1875 
L 47.609375 0 
L 37.796875 0 
L 37.796875 17.1875 
L 4.890625 17.1875 
L 4.890625 26.703125 
z
" id="DejaVuSans-52"/>
      </defs>
      <g transform="translate(151.515807 303.028562)scale(0.1 -0.1)">
       <use xlink:href="#DejaVuSans-52"/>
       <use x="63.623047" xlink:href="#DejaVuSans-48"/>
       <use x="127.246094" xlink:href="#DejaVuSans-48"/>
      </g>
     </g>
    </g>
    <g id="xtick_4">
     <g id="line2d_7">
      <path clip-path="url(#p00e11e6fa2)" d="M 209.990159 288.430125 
L 209.990159 22.318125 
" style="fill:none;stroke:#b0b0b0;stroke-dasharray:2.96,1.28;stroke-dashoffset:0;stroke-width:0.8;"/>
     </g>
     <g id="line2d_8">
      <g>
       <use style="stroke:#000000;stroke-width:0.8;" x="209.990159" xlink:href="#m5ae5d95592" y="288.430125"/>
      </g>
     </g>
     <g id="text_4">
      <!-- 600 -->
      <defs>
       <path d="M 33.015625 40.375 
Q 26.375 40.375 22.484375 35.828125 
Q 18.609375 31.296875 18.609375 23.390625 
Q 18.609375 15.53125 22.484375 10.953125 
Q 26.375 6.390625 33.015625 6.390625 
Q 39.65625 6.390625 43.53125 10.953125 
Q 47.40625 15.53125 47.40625 23.390625 
Q 47.40625 31.296875 43.53125 35.828125 
Q 39.65625 40.375 33.015625 40.375 
z
M 52.59375 71.296875 
L 52.59375 62.3125 
Q 48.875 64.0625 45.09375 64.984375 
Q 41.3125 65.921875 37.59375 65.921875 
Q 27.828125 65.921875 22.671875 59.328125 
Q 17.53125 52.734375 16.796875 39.40625 
Q 19.671875 43.65625 24.015625 45.921875 
Q 28.375 48.1875 33.59375 48.1875 
Q 44.578125 48.1875 50.953125 41.515625 
Q 57.328125 34.859375 57.328125 23.390625 
Q 57.328125 12.15625 50.6875 5.359375 
Q 44.046875 -1.421875 33.015625 -1.421875 
Q 20.359375 -1.421875 13.671875 8.265625 
Q 6.984375 17.96875 6.984375 36.375 
Q 6.984375 53.65625 15.1875 63.9375 
Q 23.390625 74.21875 37.203125 74.21875 
Q 40.921875 74.21875 44.703125 73.484375 
Q 48.484375 72.75 52.59375 71.296875 
z
" id="DejaVuSans-54"/>
      </defs>
      <g transform="translate(200.446409 303.028562)scale(0.1 -0.1)">
       <use xlink:href="#DejaVuSans-54"/>
       <use x="63.623047" xlink:href="#DejaVuSans-48"/>
       <use x="127.246094" xlink:href="#DejaVuSans-48"/>
      </g>
     </g>
    </g>
    <g id="xtick_5">
     <g id="line2d_9">
      <path clip-path="url(#p00e11e6fa2)" d="M 258.920761 288.430125 
L 258.920761 22.318125 
" style="fill:none;stroke:#b0b0b0;stroke-dasharray:2.96,1.28;stroke-dashoffset:0;stroke-width:0.8;"/>
     </g>
     <g id="line2d_10">
      <g>
       <use style="stroke:#000000;stroke-width:0.8;" x="258.920761" xlink:href="#m5ae5d95592" y="288.430125"/>
      </g>
     </g>
     <g id="text_5">
      <!-- 800 -->
      <defs>
       <path d="M 31.78125 34.625 
Q 24.75 34.625 20.71875 30.859375 
Q 16.703125 27.09375 16.703125 20.515625 
Q 16.703125 13.921875 20.71875 10.15625 
Q 24.75 6.390625 31.78125 6.390625 
Q 38.8125 6.390625 42.859375 10.171875 
Q 46.921875 13.96875 46.921875 20.515625 
Q 46.921875 27.09375 42.890625 30.859375 
Q 38.875 34.625 31.78125 34.625 
z
M 21.921875 38.8125 
Q 15.578125 40.375 12.03125 44.71875 
Q 8.5 49.078125 8.5 55.328125 
Q 8.5 64.0625 14.71875 69.140625 
Q 20.953125 74.21875 31.78125 74.21875 
Q 42.671875 74.21875 48.875 69.140625 
Q 55.078125 64.0625 55.078125 55.328125 
Q 55.078125 49.078125 51.53125 44.71875 
Q 48 40.375 41.703125 38.8125 
Q 48.828125 37.15625 52.796875 32.3125 
Q 56.78125 27.484375 56.78125 20.515625 
Q 56.78125 9.90625 50.3125 4.234375 
Q 43.84375 -1.421875 31.78125 -1.421875 
Q 19.734375 -1.421875 13.25 4.234375 
Q 6.78125 9.90625 6.78125 20.515625 
Q 6.78125 27.484375 10.78125 32.3125 
Q 14.796875 37.15625 21.921875 38.8125 
z
M 18.3125 54.390625 
Q 18.3125 48.734375 21.84375 45.5625 
Q 25.390625 42.390625 31.78125 42.390625 
Q 38.140625 42.390625 41.71875 45.5625 
Q 45.3125 48.734375 45.3125 54.390625 
Q 45.3125 60.0625 41.71875 63.234375 
Q 38.140625 66.40625 31.78125 66.40625 
Q 25.390625 66.40625 21.84375 63.234375 
Q 18.3125 60.0625 18.3125 54.390625 
z
" id="DejaVuSans-56"/>
      </defs>
      <g transform="translate(249.377011 303.028562)scale(0.1 -0.1)">
       <use xlink:href="#DejaVuSans-56"/>
       <use x="63.623047" xlink:href="#DejaVuSans-48"/>
       <use x="127.246094" xlink:href="#DejaVuSans-48"/>
      </g>
     </g>
    </g>
    <g id="xtick_6">
     <g id="line2d_11">
      <path clip-path="url(#p00e11e6fa2)" d="M 307.851363 288.430125 
L 307.851363 22.318125 
" style="fill:none;stroke:#b0b0b0;stroke-dasharray:2.96,1.28;stroke-dashoffset:0;stroke-width:0.8;"/>
     </g>
     <g id="line2d_12">
      <g>
       <use style="stroke:#000000;stroke-width:0.8;" x="307.851363" xlink:href="#m5ae5d95592" y="288.430125"/>
      </g>
     </g>
     <g id="text_6">
      <!-- 1000 -->
      <defs>
       <path d="M 12.40625 8.296875 
L 28.515625 8.296875 
L 28.515625 63.921875 
L 10.984375 60.40625 
L 10.984375 69.390625 
L 28.421875 72.90625 
L 38.28125 72.90625 
L 38.28125 8.296875 
L 54.390625 8.296875 
L 54.390625 0 
L 12.40625 0 
z
" id="DejaVuSans-49"/>
      </defs>
      <g transform="translate(295.126363 303.028562)scale(0.1 -0.1)">
       <use xlink:href="#DejaVuSans-49"/>
       <use x="63.623047" xlink:href="#DejaVuSans-48"/>
       <use x="127.246094" xlink:href="#DejaVuSans-48"/>
       <use x="190.869141" xlink:href="#DejaVuSans-48"/>
      </g>
     </g>
    </g>
    <g id="xtick_7">
     <g id="line2d_13">
      <path clip-path="url(#p00e11e6fa2)" d="M 356.781965 288.430125 
L 356.781965 22.318125 
" style="fill:none;stroke:#b0b0b0;stroke-dasharray:2.96,1.28;stroke-dashoffset:0;stroke-width:0.8;"/>
     </g>
     <g id="line2d_14">
      <g>
       <use style="stroke:#000000;stroke-width:0.8;" x="356.781965" xlink:href="#m5ae5d95592" y="288.430125"/>
      </g>
     </g>
     <g id="text_7">
      <!-- 1200 -->
      <g transform="translate(344.056965 303.028562)scale(0.1 -0.1)">
       <use xlink:href="#DejaVuSans-49"/>
       <use x="63.623047" xlink:href="#DejaVuSans-50"/>
       <use x="127.246094" xlink:href="#DejaVuSans-48"/>
       <use x="190.869141" xlink:href="#DejaVuSans-48"/>
      </g>
     </g>
    </g>
    <g id="text_8">
     <!-- Day -->
     <defs>
      <path d="M 19.671875 64.796875 
L 19.671875 8.109375 
L 31.59375 8.109375 
Q 46.6875 8.109375 53.6875 14.9375 
Q 60.6875 21.78125 60.6875 36.53125 
Q 60.6875 51.171875 53.6875 57.984375 
Q 46.6875 64.796875 31.59375 64.796875 
z
M 9.8125 72.90625 
L 30.078125 72.90625 
Q 51.265625 72.90625 61.171875 64.09375 
Q 71.09375 55.28125 71.09375 36.53125 
Q 71.09375 17.671875 61.125 8.828125 
Q 51.171875 0 30.078125 0 
L 9.8125 0 
z
" id="DejaVuSans-68"/>
      <path d="M 34.28125 27.484375 
Q 23.390625 27.484375 19.1875 25 
Q 14.984375 22.515625 14.984375 16.5 
Q 14.984375 11.71875 18.140625 8.90625 
Q 21.296875 6.109375 26.703125 6.109375 
Q 34.1875 6.109375 38.703125 11.40625 
Q 43.21875 16.703125 43.21875 25.484375 
L 43.21875 27.484375 
z
M 52.203125 31.203125 
L 52.203125 0 
L 43.21875 0 
L 43.21875 8.296875 
Q 40.140625 3.328125 35.546875 0.953125 
Q 30.953125 -1.421875 24.3125 -1.421875 
Q 15.921875 -1.421875 10.953125 3.296875 
Q 6 8.015625 6 15.921875 
Q 6 25.140625 12.171875 29.828125 
Q 18.359375 34.515625 30.609375 34.515625 
L 43.21875 34.515625 
L 43.21875 35.40625 
Q 43.21875 41.609375 39.140625 45 
Q 35.0625 48.390625 27.6875 48.390625 
Q 23 48.390625 18.546875 47.265625 
Q 14.109375 46.140625 10.015625 43.890625 
L 10.015625 52.203125 
Q 14.9375 54.109375 19.578125 55.046875 
Q 24.21875 56 28.609375 56 
Q 40.484375 56 46.34375 49.84375 
Q 52.203125 43.703125 52.203125 31.203125 
z
" id="DejaVuSans-97"/>
      <path d="M 32.171875 -5.078125 
Q 28.375 -14.84375 24.75 -17.8125 
Q 21.140625 -20.796875 15.09375 -20.796875 
L 7.90625 -20.796875 
L 7.90625 -13.28125 
L 13.1875 -13.28125 
Q 16.890625 -13.28125 18.9375 -11.515625 
Q 21 -9.765625 23.484375 -3.21875 
L 25.09375 0.875 
L 2.984375 54.6875 
L 12.5 54.6875 
L 29.59375 11.921875 
L 46.6875 54.6875 
L 56.203125 54.6875 
z
" id="DejaVuSans-121"/>
     </defs>
     <g transform="translate(215.652188 316.706687)scale(0.1 -0.1)">
      <use xlink:href="#DejaVuSans-68"/>
      <use x="77.001953" xlink:href="#DejaVuSans-97"/>
      <use x="138.28125" xlink:href="#DejaVuSans-121"/>
     </g>
    </g>
   </g>
   <g id="matplotlib.axis_2">
    <g id="ytick_1">
     <g id="line2d_15">
      <path clip-path="url(#p00e11e6fa2)" d="M 46.965625 266.35302 
L 404.085625 266.35302 
" style="fill:none;stroke:#b0b0b0;stroke-dasharray:2.96,1.28;stroke-dashoffset:0;stroke-width:0.8;"/>
     </g>
     <g id="line2d_16">
      <defs>
       <path d="M 0 0 
L -3.5 0 
" id="m06bc6713b9" style="stroke:#000000;stroke-width:0.8;"/>
      </defs>
      <g>
       <use style="stroke:#000000;stroke-width:0.8;" x="46.965625" xlink:href="#m06bc6713b9" y="266.35302"/>
      </g>
     </g>
     <g id="text_9">
      <!-- 50 -->
      <defs>
       <path d="M 10.796875 72.90625 
L 49.515625 72.90625 
L 49.515625 64.59375 
L 19.828125 64.59375 
L 19.828125 46.734375 
Q 21.96875 47.46875 24.109375 47.828125 
Q 26.265625 48.1875 28.421875 48.1875 
Q 40.625 48.1875 47.75 41.5 
Q 54.890625 34.8125 54.890625 23.390625 
Q 54.890625 11.625 47.5625 5.09375 
Q 40.234375 -1.421875 26.90625 -1.421875 
Q 22.3125 -1.421875 17.546875 -0.640625 
Q 12.796875 0.140625 7.71875 1.703125 
L 7.71875 11.625 
Q 12.109375 9.234375 16.796875 8.0625 
Q 21.484375 6.890625 26.703125 6.890625 
Q 35.15625 6.890625 40.078125 11.328125 
Q 45.015625 15.765625 45.015625 23.390625 
Q 45.015625 31 40.078125 35.4375 
Q 35.15625 39.890625 26.703125 39.890625 
Q 22.75 39.890625 18.8125 39.015625 
Q 14.890625 38.140625 10.796875 36.28125 
z
" id="DejaVuSans-53"/>
      </defs>
      <g transform="translate(27.240625 270.152239)scale(0.1 -0.1)">
       <use xlink:href="#DejaVuSans-53"/>
       <use x="63.623047" xlink:href="#DejaVuSans-48"/>
      </g>
     </g>
    </g>
    <g id="ytick_2">
     <g id="line2d_17">
      <path clip-path="url(#p00e11e6fa2)" d="M 46.965625 233.999987 
L 404.085625 233.999987 
" style="fill:none;stroke:#b0b0b0;stroke-dasharray:2.96,1.28;stroke-dashoffset:0;stroke-width:0.8;"/>
     </g>
     <g id="line2d_18">
      <g>
       <use style="stroke:#000000;stroke-width:0.8;" x="46.965625" xlink:href="#m06bc6713b9" y="233.999987"/>
      </g>
     </g>
     <g id="text_10">
      <!-- 60 -->
      <g transform="translate(27.240625 237.799205)scale(0.1 -0.1)">
       <use xlink:href="#DejaVuSans-54"/>
       <use x="63.623047" xlink:href="#DejaVuSans-48"/>
      </g>
     </g>
    </g>
    <g id="ytick_3">
     <g id="line2d_19">
      <path clip-path="url(#p00e11e6fa2)" d="M 46.965625 201.646953 
L 404.085625 201.646953 
" style="fill:none;stroke:#b0b0b0;stroke-dasharray:2.96,1.28;stroke-dashoffset:0;stroke-width:0.8;"/>
     </g>
     <g id="line2d_20">
      <g>
       <use style="stroke:#000000;stroke-width:0.8;" x="46.965625" xlink:href="#m06bc6713b9" y="201.646953"/>
      </g>
     </g>
     <g id="text_11">
      <!-- 70 -->
      <defs>
       <path d="M 8.203125 72.90625 
L 55.078125 72.90625 
L 55.078125 68.703125 
L 28.609375 0 
L 18.3125 0 
L 43.21875 64.59375 
L 8.203125 64.59375 
z
" id="DejaVuSans-55"/>
      </defs>
      <g transform="translate(27.240625 205.446172)scale(0.1 -0.1)">
       <use xlink:href="#DejaVuSans-55"/>
       <use x="63.623047" xlink:href="#DejaVuSans-48"/>
      </g>
     </g>
    </g>
    <g id="ytick_4">
     <g id="line2d_21">
      <path clip-path="url(#p00e11e6fa2)" d="M 46.965625 169.29392 
L 404.085625 169.29392 
" style="fill:none;stroke:#b0b0b0;stroke-dasharray:2.96,1.28;stroke-dashoffset:0;stroke-width:0.8;"/>
     </g>
     <g id="line2d_22">
      <g>
       <use style="stroke:#000000;stroke-width:0.8;" x="46.965625" xlink:href="#m06bc6713b9" y="169.29392"/>
      </g>
     </g>
     <g id="text_12">
      <!-- 80 -->
      <g transform="translate(27.240625 173.093139)scale(0.1 -0.1)">
       <use xlink:href="#DejaVuSans-56"/>
       <use x="63.623047" xlink:href="#DejaVuSans-48"/>
      </g>
     </g>
    </g>
    <g id="ytick_5">
     <g id="line2d_23">
      <path clip-path="url(#p00e11e6fa2)" d="M 46.965625 136.940887 
L 404.085625 136.940887 
" style="fill:none;stroke:#b0b0b0;stroke-dasharray:2.96,1.28;stroke-dashoffset:0;stroke-width:0.8;"/>
     </g>
     <g id="line2d_24">
      <g>
       <use style="stroke:#000000;stroke-width:0.8;" x="46.965625" xlink:href="#m06bc6713b9" y="136.940887"/>
      </g>
     </g>
     <g id="text_13">
      <!-- 90 -->
      <defs>
       <path d="M 10.984375 1.515625 
L 10.984375 10.5 
Q 14.703125 8.734375 18.5 7.8125 
Q 22.3125 6.890625 25.984375 6.890625 
Q 35.75 6.890625 40.890625 13.453125 
Q 46.046875 20.015625 46.78125 33.40625 
Q 43.953125 29.203125 39.59375 26.953125 
Q 35.25 24.703125 29.984375 24.703125 
Q 19.046875 24.703125 12.671875 31.3125 
Q 6.296875 37.9375 6.296875 49.421875 
Q 6.296875 60.640625 12.9375 67.421875 
Q 19.578125 74.21875 30.609375 74.21875 
Q 43.265625 74.21875 49.921875 64.515625 
Q 56.59375 54.828125 56.59375 36.375 
Q 56.59375 19.140625 48.40625 8.859375 
Q 40.234375 -1.421875 26.421875 -1.421875 
Q 22.703125 -1.421875 18.890625 -0.6875 
Q 15.09375 0.046875 10.984375 1.515625 
z
M 30.609375 32.421875 
Q 37.25 32.421875 41.125 36.953125 
Q 45.015625 41.5 45.015625 49.421875 
Q 45.015625 57.28125 41.125 61.84375 
Q 37.25 66.40625 30.609375 66.40625 
Q 23.96875 66.40625 20.09375 61.84375 
Q 16.21875 57.28125 16.21875 49.421875 
Q 16.21875 41.5 20.09375 36.953125 
Q 23.96875 32.421875 30.609375 32.421875 
z
" id="DejaVuSans-57"/>
      </defs>
      <g transform="translate(27.240625 140.740106)scale(0.1 -0.1)">
       <use xlink:href="#DejaVuSans-57"/>
       <use x="63.623047" xlink:href="#DejaVuSans-48"/>
      </g>
     </g>
    </g>
    <g id="ytick_6">
     <g id="line2d_25">
      <path clip-path="url(#p00e11e6fa2)" d="M 46.965625 104.587854 
L 404.085625 104.587854 
" style="fill:none;stroke:#b0b0b0;stroke-dasharray:2.96,1.28;stroke-dashoffset:0;stroke-width:0.8;"/>
     </g>
     <g id="line2d_26">
      <g>
       <use style="stroke:#000000;stroke-width:0.8;" x="46.965625" xlink:href="#m06bc6713b9" y="104.587854"/>
      </g>
     </g>
     <g id="text_14">
      <!-- 100 -->
      <g transform="translate(20.878125 108.387073)scale(0.1 -0.1)">
       <use xlink:href="#DejaVuSans-49"/>
       <use x="63.623047" xlink:href="#DejaVuSans-48"/>
       <use x="127.246094" xlink:href="#DejaVuSans-48"/>
      </g>
     </g>
    </g>
    <g id="ytick_7">
     <g id="line2d_27">
      <path clip-path="url(#p00e11e6fa2)" d="M 46.965625 72.234821 
L 404.085625 72.234821 
" style="fill:none;stroke:#b0b0b0;stroke-dasharray:2.96,1.28;stroke-dashoffset:0;stroke-width:0.8;"/>
     </g>
     <g id="line2d_28">
      <g>
       <use style="stroke:#000000;stroke-width:0.8;" x="46.965625" xlink:href="#m06bc6713b9" y="72.234821"/>
      </g>
     </g>
     <g id="text_15">
      <!-- 110 -->
      <g transform="translate(20.878125 76.03404)scale(0.1 -0.1)">
       <use xlink:href="#DejaVuSans-49"/>
       <use x="63.623047" xlink:href="#DejaVuSans-49"/>
       <use x="127.246094" xlink:href="#DejaVuSans-48"/>
      </g>
     </g>
    </g>
    <g id="ytick_8">
     <g id="line2d_29">
      <path clip-path="url(#p00e11e6fa2)" d="M 46.965625 39.881788 
L 404.085625 39.881788 
" style="fill:none;stroke:#b0b0b0;stroke-dasharray:2.96,1.28;stroke-dashoffset:0;stroke-width:0.8;"/>
     </g>
     <g id="line2d_30">
      <g>
       <use style="stroke:#000000;stroke-width:0.8;" x="46.965625" xlink:href="#m06bc6713b9" y="39.881788"/>
      </g>
     </g>
     <g id="text_16">
      <!-- 120 -->
      <g transform="translate(20.878125 43.681006)scale(0.1 -0.1)">
       <use xlink:href="#DejaVuSans-49"/>
       <use x="63.623047" xlink:href="#DejaVuSans-50"/>
       <use x="127.246094" xlink:href="#DejaVuSans-48"/>
      </g>
     </g>
    </g>
    <g id="text_17">
     <!-- Price $ -->
     <defs>
      <path d="M 19.671875 64.796875 
L 19.671875 37.40625 
L 32.078125 37.40625 
Q 38.96875 37.40625 42.71875 40.96875 
Q 46.484375 44.53125 46.484375 51.125 
Q 46.484375 57.671875 42.71875 61.234375 
Q 38.96875 64.796875 32.078125 64.796875 
z
M 9.8125 72.90625 
L 32.078125 72.90625 
Q 44.34375 72.90625 50.609375 67.359375 
Q 56.890625 61.8125 56.890625 51.125 
Q 56.890625 40.328125 50.609375 34.8125 
Q 44.34375 29.296875 32.078125 29.296875 
L 19.671875 29.296875 
L 19.671875 0 
L 9.8125 0 
z
" id="DejaVuSans-80"/>
      <path d="M 41.109375 46.296875 
Q 39.59375 47.171875 37.8125 47.578125 
Q 36.03125 48 33.890625 48 
Q 26.265625 48 22.1875 43.046875 
Q 18.109375 38.09375 18.109375 28.8125 
L 18.109375 0 
L 9.078125 0 
L 9.078125 54.6875 
L 18.109375 54.6875 
L 18.109375 46.1875 
Q 20.953125 51.171875 25.484375 53.578125 
Q 30.03125 56 36.53125 56 
Q 37.453125 56 38.578125 55.875 
Q 39.703125 55.765625 41.0625 55.515625 
z
" id="DejaVuSans-114"/>
      <path d="M 9.421875 54.6875 
L 18.40625 54.6875 
L 18.40625 0 
L 9.421875 0 
z
M 9.421875 75.984375 
L 18.40625 75.984375 
L 18.40625 64.59375 
L 9.421875 64.59375 
z
" id="DejaVuSans-105"/>
      <path d="M 48.78125 52.59375 
L 48.78125 44.1875 
Q 44.96875 46.296875 41.140625 47.34375 
Q 37.3125 48.390625 33.40625 48.390625 
Q 24.65625 48.390625 19.8125 42.84375 
Q 14.984375 37.3125 14.984375 27.296875 
Q 14.984375 17.28125 19.8125 11.734375 
Q 24.65625 6.203125 33.40625 6.203125 
Q 37.3125 6.203125 41.140625 7.25 
Q 44.96875 8.296875 48.78125 10.40625 
L 48.78125 2.09375 
Q 45.015625 0.34375 40.984375 -0.53125 
Q 36.96875 -1.421875 32.421875 -1.421875 
Q 20.0625 -1.421875 12.78125 6.34375 
Q 5.515625 14.109375 5.515625 27.296875 
Q 5.515625 40.671875 12.859375 48.328125 
Q 20.21875 56 33.015625 56 
Q 37.15625 56 41.109375 55.140625 
Q 45.0625 54.296875 48.78125 52.59375 
z
" id="DejaVuSans-99"/>
      <path d="M 56.203125 29.59375 
L 56.203125 25.203125 
L 14.890625 25.203125 
Q 15.484375 15.921875 20.484375 11.0625 
Q 25.484375 6.203125 34.421875 6.203125 
Q 39.59375 6.203125 44.453125 7.46875 
Q 49.3125 8.734375 54.109375 11.28125 
L 54.109375 2.78125 
Q 49.265625 0.734375 44.1875 -0.34375 
Q 39.109375 -1.421875 33.890625 -1.421875 
Q 20.796875 -1.421875 13.15625 6.1875 
Q 5.515625 13.8125 5.515625 26.8125 
Q 5.515625 40.234375 12.765625 48.109375 
Q 20.015625 56 32.328125 56 
Q 43.359375 56 49.78125 48.890625 
Q 56.203125 41.796875 56.203125 29.59375 
z
M 47.21875 32.234375 
Q 47.125 39.59375 43.09375 43.984375 
Q 39.0625 48.390625 32.421875 48.390625 
Q 24.90625 48.390625 20.390625 44.140625 
Q 15.875 39.890625 15.1875 32.171875 
z
" id="DejaVuSans-101"/>
      <path id="DejaVuSans-32"/>
      <path d="M 33.796875 -14.703125 
L 28.90625 -14.703125 
L 28.859375 0 
Q 23.734375 0.09375 18.609375 1.1875 
Q 13.484375 2.296875 8.296875 4.5 
L 8.296875 13.28125 
Q 13.28125 10.15625 18.375 8.5625 
Q 23.484375 6.984375 28.90625 6.9375 
L 28.90625 29.203125 
Q 18.109375 30.953125 13.203125 35.15625 
Q 8.296875 39.359375 8.296875 46.6875 
Q 8.296875 54.640625 13.625 59.21875 
Q 18.953125 63.8125 28.90625 64.5 
L 28.90625 75.984375 
L 33.796875 75.984375 
L 33.796875 64.65625 
Q 38.328125 64.453125 42.578125 63.6875 
Q 46.828125 62.9375 50.875 61.625 
L 50.875 53.078125 
Q 46.828125 55.125 42.546875 56.25 
Q 38.28125 57.375 33.796875 57.5625 
L 33.796875 36.71875 
Q 44.875 35.015625 50.09375 30.609375 
Q 55.328125 26.21875 55.328125 18.609375 
Q 55.328125 10.359375 49.78125 5.59375 
Q 44.234375 0.828125 33.796875 0.09375 
z
M 28.90625 37.59375 
L 28.90625 57.625 
Q 23.25 56.984375 20.265625 54.390625 
Q 17.28125 51.8125 17.28125 47.515625 
Q 17.28125 43.3125 20.03125 40.96875 
Q 22.796875 38.625 28.90625 37.59375 
z
M 33.796875 28.21875 
L 33.796875 7.078125 
Q 39.984375 7.90625 43.140625 10.59375 
Q 46.296875 13.28125 46.296875 17.671875 
Q 46.296875 21.96875 43.28125 24.5 
Q 40.28125 27.046875 33.796875 28.21875 
z
" id="DejaVuSans-36"/>
     </defs>
     <g transform="translate(14.798438 172.342094)rotate(-90)scale(0.1 -0.1)">
      <use xlink:href="#DejaVuSans-80"/>
      <use x="58.552734" xlink:href="#DejaVuSans-114"/>
      <use x="99.666016" xlink:href="#DejaVuSans-105"/>
      <use x="127.449219" xlink:href="#DejaVuSans-99"/>
      <use x="182.429688" xlink:href="#DejaVuSans-101"/>
      <use x="243.953125" xlink:href="#DejaVuSans-32"/>
      <use x="275.740234" xlink:href="#DejaVuSans-36"/>
     </g>
    </g>
   </g>
   <g id="line2d_31">
    <path clip-path="url(#p00e11e6fa2)" d="M 63.198352 268.667175 
L 63.443005 266.336766 
L 63.932311 267.088252 
L 64.176964 268.307501 
L 64.421617 268.939668 
L 64.66627 269.122374 
L 64.910923 266.102261 
L 65.155576 266.597015 
L 65.400229 266.216126 
L 65.644882 265.143261 
L 66.134188 267.738968 
L 66.378841 267.154527 
L 66.623494 267.466982 
L 66.868147 267.001724 
L 67.1128 265.824351 
L 67.357453 265.21045 
L 67.602106 265.523411 
L 67.846759 267.842787 
L 68.091412 267.676902 
L 68.336066 269.298836 
L 68.825372 267.727096 
L 69.070025 267.968191 
L 69.314678 266.649504 
L 69.559331 268.710063 
L 70.048637 267.687244 
L 70.537943 260.792034 
L 70.782596 260.849842 
L 71.027249 261.58874 
L 71.271902 261.55696 
L 71.516555 261.14276 
L 71.761208 258.289013 
L 72.495167 260.419388 
L 72.73982 257.903643 
L 72.984473 257.711656 
L 73.229126 257.093201 
L 73.473779 257.05915 
L 73.718432 258.043191 
L 73.963085 260.108562 
L 74.207738 258.13974 
L 74.452391 258.976384 
L 74.697044 259.400531 
L 74.941697 260.743617 
L 75.18635 258.273216 
L 75.675656 256.64337 
L 76.164962 261.402035 
L 76.409615 262.336166 
L 76.654268 264.669402 
L 77.143574 263.777146 
L 77.388227 262.108017 
L 77.63288 258.973027 
L 77.877533 258.447752 
L 78.122186 260.094715 
L 78.366839 260.733867 
L 78.611492 263.828895 
L 78.856145 264.065115 
L 79.590104 267.815043 
L 79.834757 266.303776 
L 80.324063 265.045108 
L 80.568716 265.073716 
L 80.813369 266.30643 
L 81.058022 265.935438 
L 81.302675 276.334125 
L 81.791981 273.036076 
L 82.036634 275.176609 
L 82.281287 274.732295 
L 82.52594 274.698874 
L 83.504552 268.741041 
L 83.749205 269.351399 
L 83.993858 270.662187 
L 84.238511 269.677517 
L 84.483164 267.149442 
L 84.727817 267.397498 
L 85.217123 268.835516 
L 85.461776 267.727799 
L 85.706429 270.117387 
L 85.951082 269.163707 
L 86.195735 268.690082 
L 86.685041 267.552769 
L 87.174347 270.745962 
L 87.419 268.8524 
L 87.663653 265.72068 
L 87.908306 266.341838 
L 88.152959 263.644658 
L 88.397612 266.340727 
L 89.376224 269.02042 
L 89.620877 267.338579 
L 89.86553 262.103759 
L 90.110183 262.638932 
L 90.354836 259.572698 
L 90.599489 263.559525 
L 90.844143 264.071212 
L 91.088796 263.56456 
L 91.333449 263.490757 
L 91.578102 264.246155 
L 91.822755 264.590588 
L 92.312061 261.538731 
L 92.556714 258.307785 
L 92.801367 258.981864 
L 93.04602 257.824459 
L 93.290673 253.651754 
L 93.779979 252.381373 
L 94.024632 252.272976 
L 94.269285 253.713709 
L 94.513938 254.184903 
L 94.758591 253.735023 
L 95.003244 251.202074 
L 95.247897 253.815936 
L 95.737203 251.063316 
L 95.981856 253.020945 
L 96.226509 251.709762 
L 96.715815 250.495894 
L 97.205121 250.467335 
L 97.449774 248.411257 
L 97.694427 247.731229 
L 97.93908 251.048296 
L 98.183733 252.653273 
L 98.428386 252.525339 
L 98.673039 254.065608 
L 98.917692 253.669514 
L 99.162345 251.941601 
L 99.406998 251.496954 
L 100.140957 245.529494 
L 100.38561 245.537158 
L 100.630263 245.897573 
L 100.874916 242.37846 
L 101.119569 241.376857 
L 101.364222 243.533224 
L 101.608875 242.877139 
L 101.853528 241.420991 
L 102.098181 241.981835 
L 102.587487 246.15001 
L 102.83214 243.825228 
L 103.076793 246.015547 
L 103.321446 244.373447 
L 103.566099 246.175015 
L 103.810752 245.007983 
L 104.055405 245.775612 
L 104.300058 244.414409 
L 104.544711 244.751967 
L 104.789364 242.17128 
L 105.034017 242.631502 
L 105.27867 241.881102 
L 105.523323 242.266805 
L 105.767976 238.028022 
L 106.012629 236.987752 
L 106.257282 233.669081 
L 106.501935 232.292956 
L 106.746588 232.361354 
L 106.991241 237.126708 
L 107.235894 232.026289 
L 107.480547 231.990992 
L 107.7252 233.789425 
L 107.969853 229.050643 
L 108.459159 226.036491 
L 108.703812 227.708532 
L 109.193118 227.877206 
L 109.437771 223.786055 
L 109.682424 224.701797 
L 109.927077 223.578628 
L 110.905689 214.845491 
L 111.150342 215.56758 
L 111.639648 210.832537 
L 112.373607 209.489464 
L 112.61826 212.718917 
L 112.862913 213.122787 
L 113.35222 214.666685 
L 113.596873 215.261407 
L 113.841526 217.38376 
L 114.086179 216.622351 
L 114.330832 212.266668 
L 114.575485 214.461788 
L 115.064791 223.267124 
L 115.309444 222.006937 
L 115.554097 219.654855 
L 115.79875 224.055993 
L 116.043403 224.444658 
L 116.288056 218.537857 
L 116.532709 221.249996 
L 116.777362 221.7204 
L 117.022015 223.425517 
L 117.266668 220.402713 
L 117.511321 221.348421 
L 118.000627 216.647651 
L 118.24528 219.600206 
L 118.489933 227.616698 
L 118.734586 225.206684 
L 118.979239 226.189725 
L 119.223892 225.170412 
L 119.713198 221.734333 
L 119.957851 223.162108 
L 120.202504 220.431148 
L 120.447157 222.932515 
L 120.69181 222.588281 
L 120.936463 221.590479 
L 121.181116 218.477556 
L 121.425769 217.576907 
L 121.670422 217.88545 
L 121.915075 212.138684 
L 122.159728 211.600043 
L 122.649034 217.260787 
L 122.893687 216.542154 
L 123.13834 214.57738 
L 123.627646 219.563058 
L 123.872299 219.255996 
L 124.116952 218.651475 
L 124.361605 219.583175 
L 124.606258 218.165533 
L 125.095564 220.17881 
L 125.58487 215.977324 
L 125.829523 213.099461 
L 126.074176 214.704796 
L 126.318829 211.265706 
L 126.563482 216.385069 
L 126.808135 215.609048 
L 127.297441 221.475738 
L 127.542094 221.426112 
L 127.786747 221.521377 
L 128.0314 226.668213 
L 128.520706 228.001129 
L 128.765359 227.661782 
L 129.010012 230.20806 
L 129.254665 228.833244 
L 129.499318 228.317287 
L 129.743971 229.345301 
L 129.988624 231.524907 
L 130.233277 231.202419 
L 130.47793 230.177317 
L 130.722583 231.070375 
L 130.967236 230.267843 
L 131.211889 230.354741 
L 131.456542 229.771695 
L 131.701195 229.549828 
L 131.945848 228.672691 
L 132.92446 212.560302 
L 133.169113 210.884693 
L 133.413766 211.199876 
L 133.658419 211.265632 
L 133.903072 215.565284 
L 134.147725 217.414861 
L 134.392378 218.249111 
L 134.637031 219.542447 
L 134.881684 219.262661 
L 135.126337 217.525048 
L 135.37099 217.895817 
L 135.615643 219.54299 
L 135.860297 218.285124 
L 136.10495 218.465831 
L 136.349603 221.246145 
L 136.594256 217.068158 
L 137.328215 222.137352 
L 137.572868 215.499256 
L 138.062174 212.385913 
L 138.306827 213.379544 
L 138.55148 213.138436 
L 138.796133 213.360982 
L 139.285439 209.643957 
L 139.530092 204.995011 
L 139.774745 207.413343 
L 140.019398 204.870162 
L 140.264051 203.612641 
L 140.508704 204.506477 
L 140.753357 204.700661 
L 140.99801 206.27645 
L 141.242663 205.693896 
L 141.487316 204.663562 
L 141.731969 205.375036 
L 141.976622 205.633891 
L 142.221275 204.588277 
L 142.465928 210.409266 
L 142.710581 206.222442 
L 142.955234 206.743558 
L 143.199887 208.49803 
L 143.689193 201.376078 
L 143.933846 201.766915 
L 144.423152 204.194232 
L 144.667805 203.707179 
L 144.912458 201.748921 
L 145.157111 201.163085 
L 145.401764 202.187026 
L 145.646417 197.49871 
L 145.89107 198.879573 
L 146.135723 199.446576 
L 146.380376 198.087039 
L 146.625029 202.21245 
L 146.869682 201.969862 
L 147.114335 200.33666 
L 147.358988 196.587522 
L 147.603641 197.988675 
L 147.848294 196.697758 
L 148.092947 199.33165 
L 148.3376 203.434452 
L 148.582253 202.622911 
L 148.826906 199.4038 
L 149.071559 199.609709 
L 149.560865 192.233073 
L 149.805518 193.328053 
L 150.539477 186.589385 
L 150.78413 187.354916 
L 151.028783 180.932664 
L 151.273436 180.796708 
L 151.518089 181.186903 
L 151.762742 181.220275 
L 152.007395 182.005454 
L 152.252048 180.626047 
L 152.496701 184.609554 
L 152.741354 185.971781 
L 152.986007 184.169967 
L 153.23066 191.103733 
L 153.475313 187.361235 
L 153.719966 187.232585 
L 153.964619 188.084286 
L 154.209272 188.474086 
L 154.453925 188.058615 
L 154.698578 184.610146 
L 154.943231 186.701053 
L 155.187884 192.736565 
L 155.432537 194.320474 
L 155.67719 192.203724 
L 155.921843 197.434409 
L 156.166496 190.898071 
L 156.411149 193.433328 
L 156.655802 201.091108 
L 157.145108 196.19313 
L 157.389761 181.610446 
L 157.634414 184.413024 
L 158.12372 176.395361 
L 158.368374 175.919884 
L 158.613027 176.081561 
L 158.85768 171.913768 
L 159.102333 169.874301 
L 159.346986 172.299125 
L 159.591639 171.230185 
L 160.080945 166.088089 
L 160.325598 167.85895 
L 160.570251 168.098997 
L 161.059557 166.118326 
L 161.30421 171.20565 
L 161.548863 162.486657 
L 161.793516 159.822824 
L 162.038169 158.467828 
L 162.282822 161.651568 
L 162.527475 162.229406 
L 162.772128 164.915059 
L 163.016781 165.179592 
L 163.261434 168.972049 
L 163.506087 168.863022 
L 163.75074 164.665732 
L 163.995393 163.177989 
L 164.240046 167.511359 
L 164.484699 166.788209 
L 164.729352 167.194029 
L 164.974005 169.990239 
L 165.218658 170.405735 
L 165.707964 174.464847 
L 165.952617 172.055747 
L 166.441923 164.461107 
L 166.686576 164.096163 
L 166.931229 163.934955 
L 167.175882 166.684662 
L 167.420535 171.360761 
L 167.665188 170.810691 
L 167.909841 167.753799 
L 168.154494 176.241238 
L 168.399147 178.005928 
L 168.6438 176.229315 
L 168.888453 177.136282 
L 169.377759 169.617224 
L 169.622412 172.091809 
L 169.867065 170.241097 
L 170.111718 170.5819 
L 170.356371 170.392628 
L 170.601024 174.470796 
L 170.845677 175.720887 
L 171.334983 171.37799 
L 171.579636 170.521377 
L 172.068942 165.744767 
L 172.313595 165.506523 
L 172.558248 166.942406 
L 172.802901 163.633917 
L 173.047554 163.200822 
L 173.292207 161.032064 
L 173.53686 162.212004 
L 174.026166 168.669307 
L 174.270819 168.205728 
L 174.515472 166.069774 
L 174.760125 166.034008 
L 175.004778 162.212153 
L 175.249431 161.641744 
L 175.738737 157.031032 
L 175.98339 157.342758 
L 176.228043 155.853732 
L 176.472696 155.997908 
L 176.717349 154.963772 
L 176.962002 156.415748 
L 177.206655 155.530157 
L 177.451308 153.927464 
L 177.695961 154.320769 
L 177.940614 151.149643 
L 178.42992 154.942026 
L 178.674573 159.693038 
L 178.919226 160.602794 
L 179.163879 158.765436 
L 179.408532 159.294056 
L 179.653185 157.571796 
L 179.897838 157.183328 
L 180.142491 159.638389 
L 180.387144 160.275196 
L 180.631798 159.761288 
L 180.876451 156.42535 
L 181.61041 151.09566 
L 181.855063 148.141945 
L 182.099716 148.058268 
L 182.344369 146.786086 
L 182.589022 147.67723 
L 182.833675 150.003321 
L 183.078328 145.716776 
L 183.322981 146.789813 
L 183.567634 146.551914 
L 183.812287 146.573709 
L 184.05694 149.200937 
L 184.546246 152.11543 
L 184.790899 149.889974 
L 185.035552 150.380927 
L 185.280205 149.018082 
L 185.524858 149.374955 
L 185.769511 146.835749 
L 186.014164 148.770162 
L 186.258817 146.313571 
L 186.50347 148.448636 
L 186.748123 145.859125 
L 186.992776 149.931442 
L 187.237429 151.465664 
L 187.482082 145.163522 
L 187.726735 147.526711 
L 187.971388 147.764091 
L 188.216041 151.059499 
L 188.705347 144.548658 
L 188.95 146.070785 
L 189.194653 144.302441 
L 189.683959 139.361589 
L 189.928612 136.803228 
L 190.173265 136.603267 
L 190.417918 137.096911 
L 190.662571 135.143713 
L 190.907224 134.945505 
L 191.151877 134.934472 
L 191.39653 135.851682 
L 191.641183 134.912824 
L 192.130489 136.825862 
L 192.375142 133.40104 
L 192.619795 133.598853 
L 192.864448 136.163829 
L 193.109101 133.473338 
L 193.353754 134.909616 
L 193.598407 137.651399 
L 193.84306 138.321134 
L 194.087713 136.992574 
L 194.332366 137.788466 
L 194.577019 136.367566 
L 194.821672 136.265993 
L 195.066325 135.735745 
L 195.310978 135.894977 
L 195.555631 134.798022 
L 196.044937 141.57569 
L 196.28959 138.406489 
L 196.534243 142.501219 
L 196.778896 140.572581 
L 197.023549 141.162835 
L 197.268202 139.665984 
L 197.757508 147.723907 
L 198.002161 140.747068 
L 198.246814 141.283241 
L 198.491467 146.097517 
L 198.73612 143.00834 
L 198.980773 149.983673 
L 199.225426 148.036473 
L 199.470079 155.827543 
L 199.714732 154.085018 
L 199.959385 164.365804 
L 200.204038 164.102408 
L 200.448691 155.062777 
L 200.693344 151.461863 
L 200.937997 145.016236 
L 201.18265 145.823112 
L 201.427303 142.291336 
L 201.671956 141.584107 
L 201.916609 141.523435 
L 202.161262 136.524379 
L 202.405915 137.996769 
L 202.650568 136.066946 
L 202.895221 131.446287 
L 203.139875 131.573925 
L 203.384528 135.33338 
L 203.629181 133.357375 
L 203.873834 130.248994 
L 204.118487 138.468296 
L 204.36314 137.350187 
L 204.607793 136.771855 
L 204.852446 137.523193 
L 205.097099 135.00129 
L 205.341752 134.548448 
L 205.586405 135.733474 
L 205.831058 135.201448 
L 206.075711 137.04473 
L 206.320364 140.12322 
L 206.565017 139.601956 
L 207.054323 131.609395 
L 207.298976 130.665131 
L 207.543629 128.39838 
L 207.788282 128.195285 
L 208.032935 125.831207 
L 208.277588 126.522145 
L 208.522241 126.012902 
L 208.766894 124.378021 
L 209.011547 124.233796 
L 209.500853 130.459617 
L 209.745506 130.520906 
L 210.234812 132.842923 
L 210.479465 134.66093 
L 210.968771 128.023291 
L 211.213424 128.071498 
L 211.458077 123.299949 
L 211.70273 121.357636 
L 211.947383 121.958504 
L 212.192036 119.735196 
L 212.436689 118.852567 
L 212.681342 121.000763 
L 212.925995 121.635547 
L 213.170648 123.470733 
L 213.415301 128.432641 
L 213.659954 129.844211 
L 214.14926 123.760072 
L 214.393913 122.803763 
L 214.638566 122.871593 
L 214.883219 119.39454 
L 215.127872 123.734895 
L 215.617178 120.405622 
L 216.106484 122.731046 
L 216.351137 119.785007 
L 216.59579 121.211313 
L 216.840443 120.810701 
L 217.329749 127.013616 
L 217.574402 126.468928 
L 217.819055 133.285842 
L 218.063708 130.745846 
L 218.308361 123.513756 
L 218.553014 98.30257 
L 218.797667 98.562511 
L 219.04232 98.131342 
L 219.286973 98.594205 
L 219.531626 98.376349 
L 219.776279 98.685188 
L 220.020932 93.044339 
L 220.265585 90.689468 
L 220.510238 90.904682 
L 220.754891 91.346836 
L 220.999544 91.223913 
L 221.244197 90.550179 
L 221.48885 88.266347 
L 221.733503 89.083911 
L 221.978156 85.848237 
L 222.222809 89.371917 
L 222.467462 90.26316 
L 222.712115 84.988119 
L 222.956768 84.181243 
L 223.201421 86.600908 
L 223.446074 87.189435 
L 223.690727 91.383688 
L 223.93538 87.441625 
L 224.180033 94.235288 
L 224.424686 94.084547 
L 224.669339 80.59704 
L 224.913992 83.744717 
L 225.158645 80.986964 
L 225.403298 82.09283 
L 225.647952 79.674572 
L 225.892605 79.955617 
L 226.137258 77.157383 
L 226.381911 77.554712 
L 226.626564 81.540218 
L 226.871217 87.632798 
L 227.11587 87.832561 
L 227.605176 83.495218 
L 227.849829 87.692063 
L 228.339135 85.171764 
L 228.583788 85.752466 
L 228.828441 85.670961 
L 229.317747 82.364323 
L 229.5624 81.815956 
L 229.807053 82.208052 
L 230.051706 82.116551 
L 230.296359 81.218149 
L 230.541012 78.31422 
L 230.785665 82.833135 
L 231.030318 76.976207 
L 231.274971 79.053809 
L 231.519624 78.523511 
L 232.00893 72.673099 
L 232.253583 70.072629 
L 232.498236 72.128287 
L 232.742889 71.508314 
L 232.987542 75.185228 
L 233.232195 69.370312 
L 233.476848 68.235689 
L 233.721501 67.791586 
L 233.966154 71.413999 
L 234.210807 73.288234 
L 234.45546 70.509056 
L 234.700113 76.113991 
L 234.944766 74.414217 
L 235.189419 73.839489 
L 235.434072 71.919959 
L 235.678725 70.982335 
L 235.923378 71.053596 
L 236.168031 69.96765 
L 236.412684 70.993665 
L 236.657337 70.768281 
L 236.90199 70.819524 
L 237.146643 73.492292 
L 237.391296 70.836037 
L 237.635949 70.750632 
L 237.880602 70.983372 
L 238.125255 68.091662 
L 238.369908 69.780846 
L 238.614561 68.127798 
L 238.859214 70.720988 
L 239.103867 71.096101 
L 239.593173 76.612546 
L 239.837826 71.623635 
L 240.082479 69.574986 
L 240.327132 71.862274 
L 240.571785 71.496244 
L 240.816438 68.352936 
L 241.061091 66.857615 
L 241.305744 61.488999 
L 241.550397 62.993773 
L 242.039703 57.923456 
L 242.284356 59.522744 
L 242.529009 56.469999 
L 242.773662 55.867896 
L 243.018315 61.566233 
L 243.262968 57.118925 
L 243.507621 55.296179 
L 243.752274 55.759191 
L 244.24158 49.576368 
L 244.486233 54.697755 
L 244.730886 51.624893 
L 244.975539 50.629905 
L 245.220192 45.686313 
L 245.464845 46.467024 
L 245.709498 43.866084 
L 245.954151 42.574179 
L 246.198804 43.870725 
L 246.443457 39.854488 
L 246.68811 41.88492 
L 246.932763 41.145825 
L 247.177416 43.152314 
L 247.422069 42.202571 
L 247.666722 45.141772 
L 247.911375 44.065477 
L 248.156029 40.590078 
L 248.400682 40.372666 
L 248.645335 39.024755 
L 248.889988 35.676723 
L 249.134641 34.938565 
L 249.379294 73.171038 
L 249.623947 76.0119 
L 250.113253 72.014793 
L 250.357906 80.408459 
L 250.602559 82.765156 
L 250.847212 79.219533 
L 251.091865 82.107072 
L 251.336518 75.09506 
L 251.581171 81.210423 
L 251.825824 82.548165 
L 252.070477 100.412014 
L 252.31513 106.707838 
L 252.559783 118.028758 
L 253.293742 97.777974 
L 253.538395 96.437023 
L 253.783048 99.008837 
L 254.027701 105.378686 
L 254.272354 99.332905 
L 254.517007 97.251502 
L 254.76166 101.425441 
L 255.006313 91.9656 
L 255.250966 96.794735 
L 255.495619 97.695655 
L 255.740272 90.519621 
L 255.984925 91.845342 
L 256.229578 94.80002 
L 256.474231 93.041105 
L 256.718884 89.840605 
L 256.963537 94.764747 
L 257.20819 94.597641 
L 257.697496 99.370054 
L 257.942149 102.862459 
L 258.186802 102.722554 
L 258.431455 108.24628 
L 258.676108 105.483788 
L 258.920761 94.91697 
L 259.165414 95.40069 
L 259.410067 96.137564 
L 259.65472 91.472252 
L 259.899373 91.529666 
L 260.144026 93.097901 
L 260.877985 83.51568 
L 261.122638 83.074069 
L 261.367291 85.37787 
L 261.611944 78.509268 
L 261.856597 77.888456 
L 262.10125 74.190956 
L 262.590556 71.048462 
L 262.835209 62.853695 
L 263.079862 62.935323 
L 263.324515 60.70456 
L 263.813821 58.735713 
L 264.058474 55.735445 
L 264.303127 59.39439 
L 264.54778 54.500831 
L 264.792433 54.077732 
L 265.037086 61.515682 
L 265.281739 60.793297 
L 265.526392 50.76364 
L 265.771045 51.935213 
L 266.015698 49.130956 
L 266.260351 50.563655 
L 266.505004 51.052584 
L 266.749657 54.755193 
L 266.99431 53.598381 
L 267.238963 51.866371 
L 267.483616 46.778331 
L 267.728269 44.524637 
L 267.972922 40.131312 
L 268.217575 41.968301 
L 268.462228 46.88094 
L 268.706881 44.70105 
L 268.951534 57.260509 
L 269.196187 60.074985 
L 269.44084 55.460793 
L 269.685493 59.170536 
L 269.930146 65.611646 
L 270.174799 58.409522 
L 270.419452 59.614122 
L 270.908759 66.639809 
L 271.153412 68.949065 
L 271.398065 77.287958 
L 271.642718 72.78299 
L 271.887371 61.207855 
L 272.132024 59.168043 
L 272.376677 64.23952 
L 272.62133 77.740997 
L 272.865983 81.918738 
L 273.110636 82.413023 
L 273.355289 85.515332 
L 273.599942 84.918142 
L 273.844595 79.2143 
L 274.089248 80.54244 
L 274.333901 82.964672 
L 274.578554 86.745035 
L 275.06786 100.570358 
L 275.801819 105.01194 
L 276.046472 104.105836 
L 276.291125 98.68852 
L 276.535778 108.624603 
L 276.780431 107.794105 
L 277.025084 124.112749 
L 277.269737 123.544561 
L 277.51439 129.302879 
L 277.759043 123.378565 
L 278.003696 113.536823 
L 278.248349 119.650285 
L 278.493002 116.691683 
L 278.982308 125.089397 
L 279.226961 117.900429 
L 279.471614 119.566435 
L 279.716267 126.520565 
L 279.96092 120.522843 
L 280.205573 118.497693 
L 280.694879 131.656318 
L 280.939532 130.499432 
L 281.184185 142.498973 
L 282.162797 119.56762 
L 282.40745 120.31881 
L 282.652103 120.308394 
L 282.896756 115.195103 
L 283.141409 118.481871 
L 283.386062 119.828006 
L 283.630715 118.360182 
L 283.875368 118.657839 
L 284.120021 117.826996 
L 284.364674 112.421207 
L 284.609327 114.008226 
L 284.85398 108.282318 
L 285.098633 109.003394 
L 285.343286 106.085816 
L 285.587939 111.155837 
L 285.832592 111.71968 
L 286.077245 113.602308 
L 286.566551 108.278764 
L 286.811204 110.745031 
L 287.055857 109.492447 
L 287.30051 105.879142 
L 287.545163 106.477072 
L 288.034469 111.970562 
L 288.279122 114.229414 
L 288.523775 113.740806 
L 288.768428 110.255756 
L 289.013081 110.880469 
L 289.257734 107.786922 
L 289.502387 106.239914 
L 289.74704 107.455202 
L 289.991693 108.020526 
L 290.236346 114.514211 
L 290.480999 112.464477 
L 290.725652 116.4116 
L 290.970305 115.590408 
L 291.214958 115.470619 
L 291.459611 112.804441 
L 291.704264 105.693177 
L 291.948917 108.597204 
L 292.19357 108.541321 
L 292.438223 98.886061 
L 292.682876 95.069859 
L 292.92753 94.380871 
L 293.172183 94.246099 
L 293.661489 89.934155 
L 294.150795 87.255364 
L 294.640101 93.204509 
L 294.884754 90.005194 
L 295.129407 92.175285 
L 295.37406 91.604926 
L 295.618713 87.826193 
L 295.863366 86.638032 
L 296.108019 86.394209 
L 296.352672 82.298295 
L 296.597325 99.325673 
L 296.841978 98.054774 
L 297.331284 103.656574 
L 297.575937 104.131013 
L 298.065243 109.828141 
L 298.309896 104.527725 
L 298.554549 106.344597 
L 299.043855 103.876922 
L 299.288508 104.335664 
L 299.533161 103.135087 
L 300.022467 109.621911 
L 300.26712 108.927592 
L 300.756426 108.496644 
L 301.001079 109.286167 
L 301.735038 113.260294 
L 301.979691 111.818833 
L 302.224344 109.477019 
L 302.468997 109.139795 
L 302.71365 110.414446 
L 303.202956 104.919031 
L 303.447609 107.89659 
L 303.936915 106.970395 
L 304.181568 118.449042 
L 304.426221 121.993629 
L 304.670874 115.690351 
L 305.16018 111.438141 
L 305.404833 110.293621 
L 305.649486 111.681198 
L 305.894139 109.404475 
L 306.138792 109.537839 
L 306.383445 104.762662 
L 306.628098 104.158856 
L 306.872751 103.21479 
L 307.117404 104.117734 
L 307.362057 103.2608 
L 307.60671 104.549249 
L 307.851363 102.88581 
L 308.096016 105.691252 
L 308.340669 110.116567 
L 308.585322 109.682509 
L 309.074628 112.232749 
L 309.319281 115.032143 
L 309.808587 117.245554 
L 310.05324 117.148548 
L 310.542546 120.533087 
L 310.787199 116.833785 
L 311.031852 119.932441 
L 311.276505 117.977984 
L 311.521158 117.557305 
L 311.765811 115.768153 
L 312.010464 111.62339 
L 312.255117 112.524334 
L 312.49977 114.942641 
L 312.744423 114.255974 
L 312.989076 114.999092 
L 313.233729 114.984233 
L 313.478382 115.240644 
L 313.723035 116.213417 
L 313.967688 117.749762 
L 314.212341 117.089332 
L 314.456994 117.488685 
L 315.190953 120.953594 
L 315.435607 120.740304 
L 315.68026 122.285485 
L 315.924913 122.915159 
L 316.169566 122.157601 
L 316.658872 125.046744 
L 316.903525 124.077821 
L 317.148178 128.617371 
L 317.392831 125.754244 
L 317.882137 129.755103 
L 318.12679 129.605571 
L 318.860749 127.174182 
L 319.105402 129.5117 
L 319.350055 126.08984 
L 319.594708 126.479739 
L 319.839361 130.911521 
L 320.084014 131.298335 
L 320.328667 129.60177 
L 320.57332 130.581899 
L 320.817973 126.793588 
L 321.062626 128.951733 
L 321.307279 128.117557 
L 321.551932 128.297869 
L 321.796585 126.955931 
L 322.041238 128.452017 
L 322.285891 127.88578 
L 322.530544 130.357008 
L 322.775197 131.463738 
L 323.01985 133.090597 
L 323.264503 131.617516 
L 323.509156 133.78894 
L 323.998462 130.401537 
L 324.243115 130.431997 
L 324.732421 125.758268 
L 324.977074 127.573016 
L 325.46638 123.748273 
L 325.711033 124.219726 
L 325.955686 127.569289 
L 326.444992 130.090255 
L 326.689645 125.098159 
L 326.934298 128.38315 
L 327.178951 122.122526 
L 327.423604 122.496158 
L 327.668257 123.143332 
L 327.91291 120.10167 
L 328.157563 111.699735 
L 328.402216 112.118317 
L 328.646869 112.130165 
L 328.891522 107.321418 
L 329.136175 107.39685 
L 329.625481 111.724493 
L 329.870134 111.333088 
L 330.114787 110.082726 
L 330.35944 108.10793 
L 330.604093 107.933072 
L 330.848746 105.682119 
L 331.093399 106.943144 
L 331.338052 107.050739 
L 331.582705 108.500692 
L 331.827358 103.892004 
L 332.072011 102.384687 
L 332.80597 89.043084 
L 333.050623 91.334198 
L 333.539929 90.833322 
L 333.784582 89.904165 
L 334.029235 91.212632 
L 334.273888 85.528636 
L 334.518541 86.631935 
L 334.763194 87.221647 
L 335.007847 86.973949 
L 335.2525 87.013738 
L 335.497153 87.17892 
L 335.741806 90.194541 
L 335.986459 89.453569 
L 336.231112 90.086773 
L 336.475765 83.549472 
L 336.720418 80.601286 
L 336.965071 80.710362 
L 337.209724 75.019529 
L 337.454377 77.40903 
L 337.69903 78.002839 
L 337.943684 74.303414 
L 338.188337 79.956827 
L 338.677643 77.844618 
L 338.922296 78.860266 
L 339.166949 80.44467 
L 339.411602 79.495543 
L 339.656255 81.138323 
L 339.900908 78.680991 
L 340.145561 77.92595 
L 340.390214 78.098833 
L 340.87952 69.522658 
L 341.124173 70.564865 
L 341.368826 67.336942 
L 341.613479 69.898833 
L 341.858132 70.22764 
L 342.102785 72.822508 
L 342.347438 74.228598 
L 342.592091 72.839564 
L 342.836744 73.113106 
L 343.081397 73.749296 
L 343.570703 70.728318 
L 343.815356 70.828558 
L 344.060009 68.983325 
L 344.304662 71.533022 
L 344.549315 71.133003 
L 344.793968 71.212187 
L 345.038621 72.019779 
L 345.527927 70.622476 
L 345.77258 71.061619 
L 346.017233 67.624133 
L 346.261886 69.609987 
L 346.506539 68.325488 
L 346.751192 69.57116 
L 346.995845 69.635313 
L 347.240498 68.537123 
L 347.485151 69.014648 
L 347.974457 67.415213 
L 348.21911 63.947738 
L 348.463763 65.957732 
L 348.953069 66.520143 
L 349.197722 62.967041 
L 349.442375 65.80314 
L 349.687028 65.568475 
L 349.931681 64.414032 
L 350.176334 64.845498 
L 350.420987 64.428299 
L 350.66564 62.126176 
L 350.910293 63.533945 
L 351.154946 61.318437 
L 351.399599 60.688689 
L 351.644252 61.458317 
L 351.888905 61.111787 
L 352.133558 61.105221 
L 352.378211 61.732945 
L 352.622864 62.72307 
L 352.867517 63.243397 
L 353.11217 60.767775 
L 353.356823 61.645813 
L 354.090782 58.502159 
L 354.335435 58.846566 
L 354.580088 56.191397 
L 354.824741 57.102634 
L 355.069394 59.09809 
L 355.314047 55.293711 
L 355.803353 53.012323 
L 356.048006 53.431447 
L 356.537312 57.800928 
L 356.781965 66.266225 
L 357.026618 69.026101 
L 357.271271 64.844041 
L 357.515924 66.66617 
L 357.760577 65.612954 
L 358.00523 74.263994 
L 358.249883 73.270339 
L 358.494536 72.785557 
L 358.739189 74.293047 
L 358.983842 78.025597 
L 359.228495 84.504942 
L 359.717801 79.200033 
L 359.962454 79.125934 
L 360.207107 80.967365 
L 360.451761 79.494136 
L 360.696414 80.404781 
L 360.941067 77.345076 
L 361.18572 77.203269 
L 361.430373 78.414213 
L 361.675026 78.508627 
L 361.919679 80.273465 
L 362.408985 86.765473 
L 362.653638 84.93579 
L 362.898291 89.803333 
L 363.142944 86.293748 
L 363.387597 81.037886 
L 363.876903 84.190278 
L 364.366209 86.283801 
L 364.610862 86.48418 
L 364.855515 90.931069 
L 365.100168 88.462481 
L 365.344821 89.636227 
L 365.589474 90.067421 
L 365.834127 86.269237 
L 366.07878 86.301918 
L 366.323433 82.990936 
L 366.568086 85.572499 
L 366.812739 84.509804 
L 367.057392 79.320217 
L 367.546698 93.617018 
L 367.791351 93.280386 
L 368.280657 91.654441 
L 368.52531 90.028693 
L 368.769963 89.777934 
L 369.014616 87.495237 
L 369.259269 88.392603 
L 369.503922 86.045853 
L 369.748575 82.034947 
L 369.993228 80.591635 
L 370.237881 81.444347 
L 370.482534 81.061631 
L 370.727187 82.9177 
L 370.97184 81.900003 
L 371.216493 71.861237 
L 371.461146 72.123745 
L 371.705799 72.025999 
L 371.950452 70.00702 
L 372.195105 77.097279 
L 372.439758 75.279247 
L 372.929064 83.396089 
L 373.173717 81.537972 
L 373.41837 97.895097 
L 373.663023 98.857972 
L 373.907676 97.18187 
L 374.152329 99.40814 
L 374.396982 98.949819 
L 374.641635 97.039224 
L 375.130941 100.98346 
L 375.375594 99.863598 
L 375.620247 95.387485 
L 375.8649 98.844914 
L 376.109553 98.479674 
L 376.354206 96.45403 
L 376.598859 96.226079 
L 376.843512 96.499546 
L 377.088165 95.077165 
L 377.332818 100.183964 
L 377.577471 98.956952 
L 377.822124 99.124849 
L 378.066777 99.865474 
L 378.31143 112.021286 
L 378.556083 112.925168 
L 378.800736 112.610282 
L 379.045389 111.081984 
L 379.290042 108.29071 
L 379.534695 111.089463 
L 379.779348 107.776901 
L 380.024001 110.622231 
L 380.513307 106.695397 
L 380.75796 107.724251 
L 381.002613 107.624357 
L 381.247266 104.944801 
L 381.491919 107.951388 
L 381.736572 106.423337 
L 381.981225 109.978463 
L 382.225878 108.735431 
L 382.470531 104.255418 
L 382.715184 102.199858 
L 382.959838 102.376789 
L 383.693797 104.90121 
L 383.93845 106.079299 
L 384.183103 108.802126 
L 384.427756 114.094519 
L 384.672409 112.714717 
L 384.917062 110.300631 
L 385.161715 110.118072 
L 385.406368 110.171314 
L 385.895674 106.330774 
L 386.38498 109.52841 
L 386.629633 111.271232 
L 386.874286 108.888246 
L 387.118939 110.145594 
L 387.363592 110.381617 
L 387.608245 111.308972 
L 387.852898 107.228583 
L 387.852898 107.228583 
" style="fill:none;stroke:#1f77b4;stroke-linecap:square;stroke-width:1.5;"/>
   </g>
   <g id="line2d_32">
    <path clip-path="url(#p00e11e6fa2)" d="M 63.198352 267.291258 
L 63.443005 266.547138 
L 63.687658 267.00008 
L 63.932311 269.135381 
L 64.176964 270.170678 
L 64.421617 269.653029 
L 64.66627 267.09714 
L 64.910923 267.485376 
L 65.155576 266.967727 
L 65.400229 264.767721 
L 65.889535 267.485376 
L 66.134188 266.805962 
L 66.378841 267.355964 
L 66.623494 266.708903 
L 67.1128 264.86478 
L 67.357453 264.897133 
L 67.602106 267.517729 
L 67.846759 267.453023 
L 68.091412 269.038322 
L 68.336066 267.776553 
L 68.580719 267.550082 
L 68.825372 267.550082 
L 69.070025 266.223608 
L 69.314678 268.229496 
L 69.559331 268.067731 
L 69.803984 267.453023 
L 70.29329 260.335356 
L 70.537943 260.723592 
L 70.782596 261.435359 
L 71.027249 261.305947 
L 71.271902 260.853004 
L 71.516555 257.941231 
L 72.250514 260.205943 
L 72.495167 257.617701 
L 72.73982 257.747113 
L 72.984473 257.488289 
L 73.229126 256.905934 
L 73.473779 258.135349 
L 73.718432 260.076531 
L 73.963085 258.005937 
L 74.697044 261.047122 
L 74.941697 258.361821 
L 75.18635 257.844172 
L 75.431003 256.744169 
L 76.409615 265.253017 
L 76.898921 263.79713 
L 77.143574 262.341244 
L 77.388227 258.944175 
L 77.63288 258.523586 
L 77.877533 260.205943 
L 78.122186 260.561827 
L 78.366839 263.894189 
L 78.611492 264.250073 
L 78.856145 265.511841 
L 79.100798 266.094195 
L 79.345451 269.200087 
L 79.590104 267.064786 
L 79.834757 266.805962 
L 80.07941 265.317723 
L 80.324063 264.832427 
L 80.568716 266.094195 
L 80.813369 266.223608 
L 81.058022 275.864812 
L 81.547328 272.953039 
L 81.791981 275.508928 
L 82.036634 274.538337 
L 82.281287 274.700102 
L 83.259899 268.747144 
L 83.504552 269.491264 
L 83.749205 270.882444 
L 84.238511 267.258905 
L 84.483164 267.453023 
L 84.727817 268.650085 
L 84.97247 268.617732 
L 85.217123 267.679494 
L 85.461776 269.394205 
L 85.706429 268.81185 
L 85.951082 268.617732 
L 86.440388 267.517729 
L 86.929694 270.655973 
L 87.174347 268.682438 
L 87.419 265.641253 
L 87.663653 266.547138 
L 87.908306 263.344188 
L 88.152959 266.35302 
L 88.397612 266.741256 
L 88.642265 266.838315 
L 89.131571 269.103028 
L 89.376224 267.032433 
L 89.620877 262.794186 
L 89.86553 262.438303 
L 90.110183 259.267705 
L 90.354836 263.214776 
L 90.599489 263.894189 
L 91.088796 263.79713 
L 91.333449 264.476544 
L 91.578102 264.444191 
L 92.067408 261.403006 
L 92.312061 258.555939 
L 92.556714 258.78241 
L 92.801367 257.520642 
L 93.04602 253.573572 
L 93.290673 253.573572 
L 93.535326 252.182391 
L 93.779979 252.247097 
L 94.269285 254.09122 
L 94.513938 253.800043 
L 94.758591 251.502978 
L 95.003244 253.735337 
L 95.49255 251.729449 
L 95.737203 252.247097 
L 95.981856 251.276506 
L 96.226509 250.985329 
L 96.471162 250.338268 
L 96.715815 250.305915 
L 96.960468 250.56474 
L 97.205121 248.202968 
L 97.449774 247.814732 
L 97.694427 251.470625 
L 97.93908 252.861805 
L 98.183733 252.602981 
L 98.428386 254.738281 
L 98.673039 253.735337 
L 98.917692 251.858861 
L 99.162345 251.502978 
L 99.896304 245.388254 
L 100.140957 245.776491 
L 100.38561 245.905903 
L 100.630263 242.444128 
L 100.874916 241.570596 
L 101.119569 243.350013 
L 101.364222 242.605893 
L 101.608875 241.279419 
L 101.853528 241.829421 
L 102.342834 245.938256 
L 102.587487 243.900015 
L 102.83214 245.938256 
L 103.076793 244.417663 
L 103.321446 246.261786 
L 103.566099 244.902959 
L 103.810752 245.420607 
L 104.055405 244.352957 
L 104.300058 244.708841 
L 104.544711 242.217657 
L 104.789364 242.897071 
L 105.034017 241.797068 
L 105.27867 241.441184 
L 105.523323 237.817645 
L 105.767976 236.782347 
L 106.012629 233.644103 
L 106.257282 232.22057 
L 106.501935 232.22057 
L 106.746588 237.623526 
L 106.991241 231.573509 
L 107.235894 231.79998 
L 107.480547 234.03234 
L 107.7252 228.952913 
L 108.214506 225.620551 
L 108.459159 227.723498 
L 108.703812 227.52938 
L 108.948465 227.949969 
L 109.193118 224.294077 
L 109.437771 224.811725 
L 109.682424 223.614663 
L 110.661036 214.361695 
L 110.905689 214.62052 
L 111.394995 210.705803 
L 111.884301 209.832271 
L 112.128954 209.18521 
L 112.373607 213.067574 
L 112.61826 212.711691 
L 113.107566 215.138168 
L 113.596873 217.07935 
L 113.841526 216.238171 
L 114.086179 212.355807 
L 114.330832 213.746988 
L 114.820138 224.035252 
L 115.309444 219.926417 
L 115.554097 223.90584 
L 115.79875 223.841134 
L 116.043403 218.308766 
L 116.288056 221.608775 
L 116.532709 221.705834 
L 116.777362 224.32643 
L 117.022015 220.088182 
L 117.266668 221.705834 
L 117.755974 216.885232 
L 118.000627 219.991123 
L 118.24528 227.594086 
L 118.489933 225.167609 
L 118.734586 226.105847 
L 118.979239 225.685257 
L 119.468545 221.964658 
L 119.713198 223.808781 
L 119.957851 221.285245 
L 120.202504 223.452898 
L 120.69181 221.641128 
L 120.936463 218.761708 
L 121.181116 218.017588 
L 121.425769 218.114647 
L 121.670422 212.711691 
L 121.915075 211.417569 
L 122.404381 217.726411 
L 122.893687 215.170521 
L 123.382993 219.764652 
L 123.627646 219.602887 
L 123.872299 218.988179 
L 124.116952 219.279357 
L 124.361605 217.888176 
L 124.850911 220.476419 
L 125.095564 218.955826 
L 125.340217 216.658761 
L 125.58487 212.938162 
L 125.829523 214.523461 
L 126.074176 211.191098 
L 126.318829 214.879344 
L 126.563482 215.396993 
L 127.052788 221.285245 
L 127.297441 221.123479 
L 127.542094 221.188185 
L 127.786747 226.299965 
L 128.0314 226.979378 
L 128.276053 228.079382 
L 128.520706 227.917616 
L 128.765359 230.311741 
L 129.010012 228.694089 
L 129.254665 228.402912 
L 129.499318 229.632327 
L 129.743971 231.767627 
L 129.988624 231.379391 
L 130.233277 230.505859 
L 130.47793 231.314685 
L 130.722583 230.991155 
L 131.701195 228.855854 
L 132.679807 212.355807 
L 132.92446 211.546982 
L 133.169113 211.417569 
L 133.413766 210.99698 
L 133.658419 215.494052 
L 133.903072 217.791117 
L 134.147725 218.632296 
L 134.392378 220.023476 
L 134.637031 219.602887 
L 134.881684 217.046997 
L 135.126337 217.208762 
L 135.37099 219.473475 
L 135.615643 218.373472 
L 135.860297 218.211706 
L 136.10495 220.994067 
L 136.349603 216.852879 
L 136.838909 221.058773 
L 137.083562 222.385248 
L 137.328215 215.946994 
L 137.817521 211.902865 
L 138.062174 213.164633 
L 138.306827 213.455811 
L 138.55148 213.229339 
L 139.040786 209.379328 
L 139.285439 204.882257 
L 139.530092 207.729324 
L 139.774745 204.720492 
L 140.019398 204.041078 
L 140.264051 204.882257 
L 140.508704 205.141081 
L 140.753357 206.596968 
L 140.99801 206.208731 
L 141.242663 204.849904 
L 141.487316 205.496964 
L 141.731969 205.367552 
L 141.976622 204.882257 
L 142.221275 210.867568 
L 142.465928 206.241084 
L 142.710581 207.017557 
L 142.955234 208.86168 
L 143.44454 201.582247 
L 143.689193 201.646953 
L 144.178499 204.49402 
L 144.423152 204.138137 
L 144.667805 201.841072 
L 144.912458 200.999893 
L 145.157111 202.488132 
L 145.401764 197.829296 
L 145.89107 199.89989 
L 146.135723 198.702827 
L 146.380376 201.970484 
L 146.625029 201.744013 
L 146.869682 200.902834 
L 147.114335 196.923411 
L 147.358988 198.055767 
L 147.603641 196.567527 
L 148.092947 202.844016 
L 148.3376 202.876369 
L 148.582253 199.996949 
L 148.826906 199.511653 
L 149.071559 194.529286 
L 149.316212 192.038103 
L 149.560865 193.882225 
L 150.050171 189.191036 
L 150.294824 186.699852 
L 150.539477 187.573384 
L 150.78413 181.491014 
L 151.028783 180.941012 
L 151.518089 181.87925 
L 151.762742 182.817488 
L 152.007395 181.13513 
L 152.252048 184.75867 
L 152.496701 185.793967 
L 152.741354 184.208669 
L 152.986007 191.067512 
L 153.23066 187.249854 
L 153.475313 187.799855 
L 153.719966 188.026326 
L 153.964619 188.770446 
L 154.209272 188.05868 
L 154.453925 184.467493 
L 154.698578 186.149851 
L 154.943231 192.846928 
L 155.187884 194.367521 
L 155.432537 192.32928 
L 155.67719 197.344 
L 155.921843 191.229277 
L 156.166496 193.202812 
L 156.411149 201.679306 
L 156.900455 195.95282 
L 157.145108 183.658667 
L 157.389761 183.302784 
L 157.634414 178.805712 
L 157.879067 176.443941 
L 158.12372 176.055704 
L 158.368374 176.088057 
L 158.613027 171.785104 
L 158.85768 170.652748 
L 159.102333 172.949813 
L 159.346986 171.914516 
L 159.836292 166.932149 
L 160.080945 168.614507 
L 160.325598 169.035096 
L 160.814904 166.673325 
L 161.059557 171.040984 
L 161.30421 163.761552 
L 161.793516 158.488007 
L 162.038169 162.1439 
L 162.282822 162.920373 
L 162.527475 165.896852 
L 162.772128 164.829202 
L 163.016781 169.520391 
L 163.261434 169.067449 
L 163.506087 164.796849 
L 163.75074 162.855667 
L 163.995393 167.611563 
L 164.240046 166.673325 
L 164.484699 168.161564 
L 164.729352 170.943925 
L 164.974005 170.749807 
L 165.218658 173.758639 
L 165.463311 174.211581 
L 165.707964 172.561577 
L 166.19727 164.214494 
L 166.441923 163.890964 
L 166.686576 163.826258 
L 167.175882 172.108634 
L 167.420535 170.685101 
L 167.665188 167.773328 
L 167.909841 177.349826 
L 168.154494 178.967477 
L 168.399147 176.993942 
L 168.6438 176.86453 
L 169.133106 169.326273 
L 169.377759 172.17334 
L 169.622412 171.073337 
L 170.111718 170.620395 
L 170.356371 175.020407 
L 170.601024 176.476294 
L 171.09033 171.42922 
L 171.334983 170.717454 
L 171.824289 165.34685 
L 172.068942 165.961558 
L 172.313595 168.355682 
L 172.558248 164.117435 
L 173.047554 161.464486 
L 173.292207 162.564489 
L 173.781513 168.808625 
L 174.026166 168.032152 
L 174.270819 165.896852 
L 174.515472 165.76744 
L 174.760125 162.208606 
L 175.004778 161.690957 
L 175.249431 158.552713 
L 175.494084 157.193886 
L 175.738737 157.646828 
L 175.98339 156.255648 
L 176.228043 156.320354 
L 176.472696 155.479175 
L 176.717349 156.740943 
L 176.962002 155.576234 
L 177.206655 153.82917 
L 177.451308 154.379172 
L 177.695961 151.564458 
L 178.185267 155.349763 
L 178.42992 160.235071 
L 178.674573 160.235071 
L 178.919226 158.617419 
L 179.163879 159.070362 
L 179.408532 157.711534 
L 179.653185 157.096827 
L 179.897838 160.170365 
L 180.387144 160.623307 
L 180.631798 156.676237 
L 180.876451 154.896821 
L 181.121104 152.146813 
L 181.365757 150.723279 
L 181.61041 148.361508 
L 181.855063 148.458567 
L 182.099716 147.164446 
L 182.344369 147.973271 
L 182.589022 150.335043 
L 182.833675 145.93503 
L 183.078328 147.09974 
L 183.322981 147.00268 
L 183.567634 147.42327 
L 184.301593 153.020345 
L 184.546246 150.496808 
L 184.790899 150.723279 
L 185.035552 149.202687 
L 185.280205 149.752688 
L 185.524858 147.293858 
L 185.769511 149.137981 
L 186.014164 146.161502 
L 186.258817 149.23504 
L 186.50347 145.967383 
L 186.748123 150.270337 
L 186.992776 151.887988 
L 187.237429 145.870324 
L 187.482082 147.455623 
L 187.726735 147.973271 
L 187.971388 151.467399 
L 188.216041 147.132093 
L 188.460694 145.029145 
L 188.705347 145.967383 
L 188.95 144.705615 
L 189.439306 139.270305 
L 189.683959 137.037946 
L 189.928612 136.64971 
L 190.173265 137.458536 
L 190.417918 135.711472 
L 190.662571 135.355588 
L 190.907224 135.711472 
L 191.151877 136.876181 
L 191.39653 135.743825 
L 191.641183 136.196767 
L 191.885836 137.329123 
L 192.130489 134.352644 
L 192.375142 133.899702 
L 192.619795 136.487945 
L 192.864448 133.899702 
L 193.109101 135.129117 
L 193.353754 138.235008 
L 193.598407 138.493833 
L 193.84306 137.037946 
L 194.087713 138.008537 
L 194.332366 136.682063 
L 194.577019 136.067355 
L 194.821672 135.873237 
L 195.066325 135.840884 
L 195.310978 135.355588 
L 195.800284 142.40855 
L 196.044937 138.720304 
L 196.28959 143.185023 
L 196.534243 141.017369 
L 196.778896 140.726192 
L 197.023549 140.079131 
L 197.268202 145.061498 
L 197.512855 147.326211 
L 197.757508 141.955607 
L 198.002161 141.599724 
L 198.246814 146.290914 
L 198.491467 143.05561 
L 198.73612 150.820338 
L 198.980773 149.008568 
L 199.225426 156.643884 
L 199.470079 155.899765 
L 199.714732 162.564489 
L 199.959385 163.664492 
L 200.693344 144.899733 
L 200.937997 146.323267 
L 201.427303 141.437959 
L 201.671956 141.955607 
L 201.916609 137.167358 
L 202.161262 138.46148 
L 202.405915 136.22912 
L 202.650568 132.476169 
L 202.895221 131.408518 
L 203.139875 135.808531 
L 203.384528 133.705584 
L 203.629181 130.47028 
L 203.873834 136.940887 
L 204.118487 137.652654 
L 204.36314 137.005593 
L 204.607793 137.264417 
L 204.852446 135.355588 
L 205.097099 134.352644 
L 205.341752 135.614413 
L 205.586405 136.035002 
L 205.831058 137.523242 
L 206.075711 140.499721 
L 206.320364 140.305603 
L 206.80967 131.602637 
L 207.054323 130.729105 
L 207.298976 128.820276 
L 207.543629 128.205568 
L 207.788282 125.714385 
L 208.032935 126.879094 
L 208.277588 126.490857 
L 208.522241 124.776147 
L 208.766894 124.646734 
L 209.011547 127.429095 
L 209.2562 131.667343 
L 209.500853 131.279106 
L 209.745506 132.120285 
L 210.234812 136.390886 
L 210.724118 128.496745 
L 210.968771 127.590861 
L 211.213424 123.352613 
L 211.458077 121.767315 
L 211.70273 122.640846 
L 212.192036 119.146719 
L 212.681342 123.384966 
L 212.925995 124.8085 
L 213.170648 129.240865 
L 213.415301 130.826164 
L 213.904607 124.679088 
L 214.14926 123.190848 
L 214.393913 122.511434 
L 214.638566 120.149663 
L 214.883219 123.255554 
L 215.127872 122.867318 
L 215.372525 120.182016 
L 215.861831 123.449672 
L 216.106484 120.279075 
L 216.351137 121.670255 
L 216.59579 120.86143 
L 217.085096 128.302627 
L 217.329749 126.52321 
L 217.574402 133.834996 
L 217.819055 130.696752 
L 218.063708 123.676144 
L 218.308361 100.446666 
L 218.553014 96.046653 
L 218.797667 98.052541 
L 219.04232 98.990779 
L 219.286973 98.376072 
L 219.531626 98.537837 
L 219.776279 93.005468 
L 220.020932 91.096639 
L 220.265585 91.258404 
L 220.510238 92.099583 
L 220.754891 92.002524 
L 221.244197 88.44369 
L 221.48885 89.478987 
L 221.733503 86.567214 
L 221.978156 89.834871 
L 222.222809 91.387816 
L 222.467462 85.531917 
L 222.712115 84.043678 
L 223.446074 92.228995 
L 223.690727 87.570158 
L 223.93538 94.590767 
L 224.180033 95.237827 
L 224.424686 81.390729 
L 224.669339 83.752501 
L 224.913992 80.743668 
L 225.158645 82.070143 
L 225.403298 78.802487 
L 225.647952 80.743668 
L 225.892605 77.314247 
L 226.137258 77.993661 
L 226.381911 81.584847 
L 226.626564 88.411337 
L 227.11587 86.858392 
L 227.360523 84.787798 
L 227.605176 88.767221 
L 228.094482 85.176034 
L 228.583788 87.020157 
L 228.828441 84.011325 
L 229.073094 82.68485 
L 229.317747 82.102496 
L 229.5624 83.526029 
L 229.807053 83.040734 
L 230.051706 82.005437 
L 230.296359 78.381897 
L 230.541012 82.943675 
L 230.785665 77.993661 
L 231.030318 79.740724 
L 231.274971 78.899546 
L 231.519624 75.470124 
L 232.00893 71.717172 
L 232.253583 72.493645 
L 232.498236 72.849528 
L 232.742889 76.376009 
L 232.987542 70.552463 
L 233.232195 68.902458 
L 233.476848 69.614225 
L 233.721501 73.140706 
L 233.966154 74.628945 
L 234.210807 71.878937 
L 234.45546 76.764245 
L 234.700113 74.693651 
L 234.944766 74.855416 
L 235.189419 72.461292 
L 235.434072 71.26423 
L 235.678725 71.167171 
L 235.923378 70.423051 
L 236.168031 71.58776 
L 236.412684 70.973052 
L 236.657337 71.393642 
L 236.90199 74.046591 
L 237.146643 71.037759 
L 237.391296 70.52011 
L 237.635949 71.037759 
L 237.880602 69.12893 
L 238.125255 69.808343 
L 238.369908 68.449516 
L 238.614561 71.26423 
L 238.859214 71.26423 
L 239.34852 77.02307 
L 239.593173 72.234821 
L 239.837826 70.228933 
L 240.082479 72.396586 
L 240.327132 71.652466 
L 240.571785 68.805399 
L 240.816438 67.414219 
L 241.061091 61.817144 
L 241.305744 63.758326 
L 241.79505 57.967133 
L 242.039703 60.037727 
L 242.529009 56.090657 
L 242.773662 62.367146 
L 243.262968 55.637715 
L 243.507621 56.155363 
L 243.752274 53.793592 
L 243.996927 49.264167 
L 244.24158 55.443597 
L 244.486233 54.117122 
L 244.730886 51.399467 
L 244.975539 46.190629 
L 245.220192 46.83769 
L 245.464845 45.381803 
L 245.709498 42.89062 
L 245.954151 43.570033 
L 246.198804 41.240615 
L 246.443457 42.114147 
L 246.68811 42.049441 
L 246.932763 43.764152 
L 247.177416 43.408268 
L 247.422069 45.543568 
L 247.666722 44.864155 
L 247.911375 40.399436 
L 248.156029 39.784729 
L 248.400682 39.881788 
L 248.645335 36.258248 
L 248.889988 34.414125 
L 249.134641 70.52011 
L 249.379294 76.926011 
L 249.623947 74.337768 
L 249.8686 68.999517 
L 250.113253 78.705427 
L 250.357906 81.973084 
L 250.602559 80.258373 
L 250.847212 81.423082 
L 251.091865 75.308359 
L 251.336518 82.134849 
L 251.581171 83.720148 
L 251.825824 104.523148 
L 252.070477 108.340806 
L 252.31513 119.599661 
L 252.559783 117.884951 
L 253.049089 97.567246 
L 253.293742 96.564302 
L 253.538395 98.505484 
L 253.783048 106.173153 
L 254.027701 98.473131 
L 254.272354 98.1496 
L 254.517007 101.44961 
L 254.76166 91.614288 
L 255.006313 98.408425 
L 255.250966 96.176065 
L 255.495619 90.093695 
L 255.984925 93.490764 
L 256.229578 91.776053 
L 256.474231 90.99958 
L 256.718884 95.399593 
L 256.963537 93.55547 
L 257.697496 102.581966 
L 257.942149 103.617263 
L 258.186802 109.473162 
L 258.431455 106.46433 
L 258.676108 97.470187 
L 259.165414 94.881944 
L 259.410067 92.131936 
L 259.65472 92.39076 
L 259.899373 93.620176 
L 260.388679 86.599567 
L 260.633332 84.043678 
L 260.877985 83.267205 
L 261.122638 86.049566 
L 261.367291 79.061311 
L 261.611944 77.928955 
L 261.856597 73.949532 
L 262.345903 71.943643 
L 262.590556 61.720085 
L 262.835209 62.237734 
L 263.569168 58.193604 
L 263.813821 55.928892 
L 264.058474 60.134786 
L 264.303127 55.928892 
L 264.54778 54.31124 
L 264.792433 61.720085 
L 265.037086 62.528911 
L 265.281739 53.890651 
L 265.771045 48.22887 
L 266.015698 51.140643 
L 266.260351 52.143587 
L 266.505004 56.575953 
L 266.749657 53.081825 
L 266.99431 52.402411 
L 267.238963 45.899452 
L 267.483616 44.055329 
L 267.728269 39.655316 
L 267.972922 41.758264 
L 268.217575 46.514159 
L 268.462228 44.184741 
L 268.706881 55.637715 
L 268.951534 61.008318 
L 269.196187 54.796536 
L 269.44084 59.293608 
L 269.685493 66.120098 
L 269.930146 58.517135 
L 270.174799 59.843609 
L 270.664106 67.478925 
L 270.908759 69.77599 
L 271.153412 78.576015 
L 271.398065 74.337768 
L 271.887371 59.973021 
L 272.132024 65.731861 
L 272.376677 79.611312 
L 272.62133 83.267205 
L 272.865983 82.78191 
L 273.110636 86.599567 
L 273.355289 85.628977 
L 273.599942 81.131905 
L 273.844595 81.681906 
L 274.089248 84.076031 
L 274.333901 88.152513 
L 274.823207 101.676081 
L 275.06786 103.423145 
L 275.312513 106.205506 
L 275.557166 107.014331 
L 275.801819 104.846678 
L 276.046472 99.864311 
L 276.291125 109.505515 
L 276.535778 107.467274 
L 276.780431 124.323204 
L 277.025084 124.096733 
L 277.269737 128.723217 
L 277.51439 123.934968 
L 277.759043 114.617294 
L 278.003696 119.826133 
L 278.248349 116.655535 
L 278.493002 122.964377 
L 278.737655 125.520266 
L 278.982308 118.111422 
L 279.226961 120.279075 
L 279.471614 126.846741 
L 279.716267 120.311428 
L 279.96092 119.37319 
L 280.450226 130.082044 
L 280.694879 129.434983 
L 280.939532 140.661486 
L 281.673491 127.526154 
L 281.918144 119.146719 
L 282.162797 120.214369 
L 282.40745 120.732017 
L 282.652103 116.332005 
L 282.896756 119.534955 
L 283.141409 119.37319 
L 283.386062 118.661423 
L 283.630715 119.761426 
L 283.875368 119.082013 
L 284.120021 112.190817 
L 284.364674 114.293764 
L 284.609327 108.405512 
L 284.85398 109.505515 
L 285.098633 106.561389 
L 285.343286 111.640815 
L 285.587939 112.158464 
L 285.832592 114.164352 
L 286.321898 108.437865 
L 286.566551 110.281988 
L 286.811204 109.634927 
L 287.055857 105.881975 
L 287.30051 107.176097 
L 288.034469 114.843765 
L 288.279122 113.581997 
L 288.523775 110.767283 
L 288.768428 110.540812 
L 289.013081 108.114335 
L 289.257734 106.820213 
L 289.502387 107.596686 
L 289.74704 108.858454 
L 289.991693 114.293764 
L 290.236346 112.740818 
L 290.480999 117.011419 
L 290.725652 116.17024 
L 290.970305 116.655535 
L 291.214958 113.161408 
L 291.459611 106.270212 
L 291.704264 109.020219 
L 291.948917 109.149632 
L 292.19357 99.799605 
L 292.438223 96.046653 
L 292.682876 94.008412 
L 292.92753 95.173121 
L 293.416836 89.802518 
L 293.906142 87.505452 
L 294.395448 94.040765 
L 294.640101 90.481931 
L 294.884754 92.358407 
L 295.129407 92.714291 
L 295.37406 88.637809 
L 295.618713 86.664274 
L 295.863366 87.311334 
L 296.108019 83.234852 
L 296.352672 97.179009 
L 296.597325 99.055485 
L 296.841978 102.905496 
L 297.086631 103.423145 
L 297.331284 104.781972 
L 297.82059 109.731986 
L 298.065243 105.299621 
L 298.309896 107.240803 
L 298.799202 105.040796 
L 299.043855 105.202562 
L 299.288508 103.649616 
L 299.777814 109.376103 
L 300.022467 108.729042 
L 300.511773 108.534924 
L 301.001079 110.929048 
L 301.245732 111.576109 
L 301.490385 113.193761 
L 301.735038 112.449641 
L 301.979691 109.764339 
L 302.224344 110.184929 
L 302.468997 109.829045 
L 302.958303 105.979034 
L 303.202956 108.405512 
L 303.447609 108.502571 
L 303.692262 107.758451 
L 303.936915 118.434952 
L 304.181568 122.770259 
L 304.670874 114.35847 
L 304.915527 111.640815 
L 305.16018 110.961401 
L 305.404833 112.158464 
L 305.649486 109.602574 
L 305.894139 109.731986 
L 306.138792 105.817269 
L 306.628098 103.940793 
L 306.872751 104.97609 
L 307.117404 104.684913 
L 307.362057 105.234915 
L 307.60671 104.102558 
L 307.851363 106.302565 
L 308.096016 110.346694 
L 308.585322 111.996699 
L 308.829975 113.031996 
L 309.074628 115.296708 
L 309.563934 117.820245 
L 309.808587 117.690832 
L 310.297893 120.732017 
L 310.542546 117.23789 
L 310.787199 120.246722 
L 311.031852 118.079069 
L 311.276505 118.337893 
L 311.765811 111.511403 
L 312.010464 111.80258 
L 312.255117 114.811412 
L 312.49977 113.970234 
L 312.744423 114.682 
L 312.989076 114.714353 
L 313.478382 116.267299 
L 313.723035 117.949657 
L 313.967688 117.626126 
L 314.212341 118.111422 
L 314.701647 120.084957 
L 314.9463 121.18496 
L 315.190953 121.217313 
L 315.435607 122.511434 
L 315.68026 123.158495 
L 315.924913 122.640846 
L 316.169566 124.646734 
L 316.414219 124.937912 
L 316.658872 123.708497 
L 316.903525 129.111453 
L 317.148178 125.164383 
L 317.392831 128.205568 
L 317.637484 129.629102 
L 317.882137 128.852629 
L 318.371443 128.432039 
L 318.616096 127.396742 
L 318.860749 129.208512 
L 319.105402 125.908503 
L 319.350055 126.361445 
L 319.594708 130.599693 
L 319.839361 131.376165 
L 320.084014 129.82322 
L 320.328667 131.117341 
L 320.57332 127.68792 
L 320.817973 128.884982 
L 321.062626 128.561452 
L 321.307279 129.014394 
L 321.551932 127.784979 
L 321.796585 128.884982 
L 322.041238 128.884982 
L 322.530544 132.379109 
L 322.775197 133.317347 
L 323.01985 132.734993 
L 323.264503 134.255585 
L 323.509156 133.155582 
L 323.753809 130.696752 
L 323.998462 130.373221 
L 324.243115 127.137918 
L 324.487768 126.037915 
L 324.732421 128.043803 
L 325.221727 123.934968 
L 325.46638 124.484969 
L 325.711033 128.237921 
L 325.955686 129.208512 
L 326.200339 130.761458 
L 326.444992 126.037915 
L 326.689645 129.014394 
L 326.934298 122.608493 
L 327.178951 122.770259 
L 327.668257 120.893783 
L 327.91291 112.093758 
L 328.157563 111.317285 
L 328.402216 112.029052 
L 328.646869 107.434921 
L 328.891522 106.626095 
L 329.136175 110.281988 
L 329.380828 112.255523 
L 329.625481 111.996699 
L 330.114787 108.405512 
L 330.35944 107.920216 
L 330.604093 105.655504 
L 330.848746 107.434921 
L 331.093399 108.017275 
L 331.338052 109.440809 
L 331.582705 104.717266 
L 331.827358 102.452554 
L 332.561317 88.86428 
L 332.80597 91.452522 
L 333.050623 92.131936 
L 333.295276 91.484876 
L 333.539929 90.384872 
L 333.784582 91.937818 
L 334.029235 87.440746 
L 334.518541 86.599567 
L 334.763194 87.05251 
L 335.007847 87.926042 
L 335.2525 87.861336 
L 335.497153 90.67605 
L 335.741806 89.834871 
L 335.986459 90.934874 
L 336.475765 80.517197 
L 336.720418 80.711315 
L 336.965071 75.53483 
L 337.209724 77.540718 
L 337.454377 77.476012 
L 337.69903 74.046591 
L 337.943684 80.22602 
L 338.188337 78.511309 
L 338.43299 78.802487 
L 338.677643 78.187779 
L 338.922296 81.034846 
L 339.166949 79.805431 
L 339.411602 81.552494 
L 339.656255 79.028958 
L 339.900908 78.576015 
L 340.145561 78.511309 
L 340.634867 69.193636 
L 340.87952 70.131874 
L 341.124173 68.028926 
L 341.368826 70.261286 
L 341.613479 71.26423 
L 342.102785 75.470124 
L 342.347438 75.470124 
L 342.592091 73.884825 
L 342.836744 74.628945 
L 343.081397 73.367177 
L 343.32605 71.167171 
L 343.570703 71.652466 
L 343.815356 69.937755 
L 344.060009 72.040703 
L 344.304662 72.202468 
L 344.549315 71.846584 
L 344.793968 73.108353 
L 345.038621 71.199524 
L 345.527927 71.943643 
L 345.77258 68.870105 
L 346.017233 70.325992 
L 346.261886 68.223045 
L 346.506539 70.067168 
L 346.751192 69.45246 
L 346.995845 69.517166 
L 347.240498 68.902458 
L 347.485151 69.258342 
L 347.974457 64.76127 
L 348.21911 66.184804 
L 348.463763 66.702452 
L 348.708416 66.540687 
L 348.953069 63.467149 
L 349.197722 66.57304 
L 349.442375 65.50539 
L 349.687028 64.987741 
L 349.931681 65.311272 
L 350.176334 64.534799 
L 350.420987 62.367146 
L 350.66564 64.049503 
L 350.910293 61.946556 
L 351.154946 61.267143 
L 351.644252 62.399499 
L 351.888905 62.528911 
L 352.133558 62.367146 
L 352.378211 63.887738 
L 352.622864 64.373034 
L 352.867517 62.30244 
L 353.11217 62.399499 
L 353.356823 61.88185 
L 353.846129 58.6789 
L 354.090782 60.167139 
L 354.335435 56.737718 
L 354.580088 57.870074 
L 354.824741 60.264198 
L 355.069394 55.47595 
L 355.5587 53.340649 
L 355.803353 54.117122 
L 356.048006 56.931836 
L 356.292659 58.096545 
L 356.537312 66.993629 
L 356.781965 68.449516 
L 357.026618 65.796567 
L 357.271271 67.64069 
L 357.515924 65.537743 
L 357.760577 73.334824 
L 358.00523 73.593648 
L 358.249883 73.237765 
L 358.494536 75.049535 
L 358.983842 84.17309 
L 359.228495 82.976028 
L 359.473148 80.258373 
L 359.717801 79.90249 
L 359.962454 81.876025 
L 360.207107 79.643665 
L 360.451761 81.067199 
L 360.696414 77.378953 
L 360.941067 77.605424 
L 361.18572 78.899546 
L 361.430373 78.026014 
L 362.164332 86.793686 
L 362.408985 85.434858 
L 362.653638 90.611344 
L 363.142944 81.811319 
L 363.63225 84.723092 
L 363.876903 85.24074 
L 364.121556 86.761333 
L 364.366209 87.214275 
L 364.610862 91.840759 
L 364.855515 89.058398 
L 365.100168 90.934874 
L 365.344821 90.481931 
L 365.589474 86.567214 
L 365.834127 87.084863 
L 366.07878 82.393673 
L 366.323433 86.114272 
L 366.568086 84.367208 
L 366.812739 80.452491 
L 367.302045 93.749588 
L 367.546698 93.846647 
L 368.036004 92.164289 
L 368.280657 90.417225 
L 368.52531 90.708403 
L 368.769963 88.12016 
L 369.014616 89.090751 
L 369.748575 80.776022 
L 369.993228 81.649553 
L 370.237881 81.940731 
L 370.482534 83.817207 
L 370.727187 82.134849 
L 370.97184 72.234821 
L 371.461146 72.461292 
L 371.705799 70.261286 
L 371.950452 76.537774 
L 372.195105 75.081888 
L 372.684411 84.043678 
L 372.929064 82.005437 
L 373.173717 95.431946 
L 373.41837 100.220194 
L 373.663023 98.1496 
L 373.907676 100.058429 
L 374.152329 99.702546 
L 374.396982 97.470187 
L 374.886288 102.323142 
L 375.130941 100.802549 
L 375.375594 95.626064 
L 375.620247 99.734899 
L 375.8649 99.670193 
L 376.109553 96.790773 
L 376.354206 96.305477 
L 376.598859 96.273124 
L 376.843512 95.302533 
L 377.088165 100.70549 
L 377.332818 99.734899 
L 377.577471 99.411369 
L 377.822124 99.734899 
L 378.066777 114.099646 
L 378.556083 114.002587 
L 379.045389 108.405512 
L 379.290042 111.381991 
L 379.534695 109.376103 
L 379.779348 110.73493 
L 380.024001 109.66728 
L 380.268654 107.143744 
L 380.75796 109.117279 
L 381.002613 105.979034 
L 381.247266 109.020219 
L 381.491919 107.046684 
L 381.736572 110.896695 
L 381.981225 109.214338 
L 382.470531 102.031964 
L 382.715184 102.808437 
L 382.959838 104.231971 
L 383.204491 104.361383 
L 383.449144 105.979034 
L 383.693797 105.946681 
L 383.93845 109.279044 
L 384.183103 114.520235 
L 384.427756 113.064349 
L 384.672409 110.637871 
L 384.917062 109.893751 
L 385.161715 110.249635 
L 385.406368 107.790804 
L 385.651021 106.529036 
L 386.140327 110.120223 
L 386.38498 111.705521 
L 386.629633 109.246691 
L 387.363592 111.673168 
L 387.608245 107.726098 
L 387.852898 109.926104 
L 387.852898 109.926104 
" style="fill:none;stroke:#ff7f0e;stroke-linecap:square;stroke-width:1.5;"/>
   </g>
   <g id="patch_3">
    <path d="M 46.965625 288.430125 
L 46.965625 22.318125 
" style="fill:none;stroke:#000000;stroke-linecap:square;stroke-linejoin:miter;stroke-width:0.8;"/>
   </g>
   <g id="patch_4">
    <path d="M 404.085625 288.430125 
L 404.085625 22.318125 
" style="fill:none;stroke:#000000;stroke-linecap:square;stroke-linejoin:miter;stroke-width:0.8;"/>
   </g>
   <g id="patch_5">
    <path d="M 46.965625 288.430125 
L 404.085625 288.430125 
" style="fill:none;stroke:#000000;stroke-linecap:square;stroke-linejoin:miter;stroke-width:0.8;"/>
   </g>
   <g id="patch_6">
    <path d="M 46.965625 22.318125 
L 404.085625 22.318125 
" style="fill:none;stroke:#000000;stroke-linecap:square;stroke-linejoin:miter;stroke-width:0.8;"/>
   </g>
   <g id="text_18">
    <!-- Training: DIS -->
    <defs>
     <path d="M -0.296875 72.90625 
L 61.375 72.90625 
L 61.375 64.59375 
L 35.5 64.59375 
L 35.5 0 
L 25.59375 0 
L 25.59375 64.59375 
L -0.296875 64.59375 
z
" id="DejaVuSans-84"/>
     <path d="M 54.890625 33.015625 
L 54.890625 0 
L 45.90625 0 
L 45.90625 32.71875 
Q 45.90625 40.484375 42.875 44.328125 
Q 39.84375 48.1875 33.796875 48.1875 
Q 26.515625 48.1875 22.3125 43.546875 
Q 18.109375 38.921875 18.109375 30.90625 
L 18.109375 0 
L 9.078125 0 
L 9.078125 54.6875 
L 18.109375 54.6875 
L 18.109375 46.1875 
Q 21.34375 51.125 25.703125 53.5625 
Q 30.078125 56 35.796875 56 
Q 45.21875 56 50.046875 50.171875 
Q 54.890625 44.34375 54.890625 33.015625 
z
" id="DejaVuSans-110"/>
     <path d="M 45.40625 27.984375 
Q 45.40625 37.75 41.375 43.109375 
Q 37.359375 48.484375 30.078125 48.484375 
Q 22.859375 48.484375 18.828125 43.109375 
Q 14.796875 37.75 14.796875 27.984375 
Q 14.796875 18.265625 18.828125 12.890625 
Q 22.859375 7.515625 30.078125 7.515625 
Q 37.359375 7.515625 41.375 12.890625 
Q 45.40625 18.265625 45.40625 27.984375 
z
M 54.390625 6.78125 
Q 54.390625 -7.171875 48.1875 -13.984375 
Q 42 -20.796875 29.203125 -20.796875 
Q 24.46875 -20.796875 20.265625 -20.09375 
Q 16.0625 -19.390625 12.109375 -17.921875 
L 12.109375 -9.1875 
Q 16.0625 -11.328125 19.921875 -12.34375 
Q 23.78125 -13.375 27.78125 -13.375 
Q 36.625 -13.375 41.015625 -8.765625 
Q 45.40625 -4.15625 45.40625 5.171875 
L 45.40625 9.625 
Q 42.625 4.78125 38.28125 2.390625 
Q 33.9375 0 27.875 0 
Q 17.828125 0 11.671875 7.65625 
Q 5.515625 15.328125 5.515625 27.984375 
Q 5.515625 40.671875 11.671875 48.328125 
Q 17.828125 56 27.875 56 
Q 33.9375 56 38.28125 53.609375 
Q 42.625 51.21875 45.40625 46.390625 
L 45.40625 54.6875 
L 54.390625 54.6875 
z
" id="DejaVuSans-103"/>
     <path d="M 11.71875 12.40625 
L 22.015625 12.40625 
L 22.015625 0 
L 11.71875 0 
z
M 11.71875 51.703125 
L 22.015625 51.703125 
L 22.015625 39.3125 
L 11.71875 39.3125 
z
" id="DejaVuSans-58"/>
     <path d="M 9.8125 72.90625 
L 19.671875 72.90625 
L 19.671875 0 
L 9.8125 0 
z
" id="DejaVuSans-73"/>
     <path d="M 53.515625 70.515625 
L 53.515625 60.890625 
Q 47.90625 63.578125 42.921875 64.890625 
Q 37.9375 66.21875 33.296875 66.21875 
Q 25.25 66.21875 20.875 63.09375 
Q 16.5 59.96875 16.5 54.203125 
Q 16.5 49.359375 19.40625 46.890625 
Q 22.3125 44.4375 30.421875 42.921875 
L 36.375 41.703125 
Q 47.40625 39.59375 52.65625 34.296875 
Q 57.90625 29 57.90625 20.125 
Q 57.90625 9.515625 50.796875 4.046875 
Q 43.703125 -1.421875 29.984375 -1.421875 
Q 24.8125 -1.421875 18.96875 -0.25 
Q 13.140625 0.921875 6.890625 3.21875 
L 6.890625 13.375 
Q 12.890625 10.015625 18.65625 8.296875 
Q 24.421875 6.59375 29.984375 6.59375 
Q 38.421875 6.59375 43.015625 9.90625 
Q 47.609375 13.234375 47.609375 19.390625 
Q 47.609375 24.75 44.3125 27.78125 
Q 41.015625 30.8125 33.5 32.328125 
L 27.484375 33.5 
Q 16.453125 35.6875 11.515625 40.375 
Q 6.59375 45.0625 6.59375 53.421875 
Q 6.59375 63.09375 13.40625 68.65625 
Q 20.21875 74.21875 32.171875 74.21875 
Q 37.3125 74.21875 42.625 73.28125 
Q 47.953125 72.359375 53.515625 70.515625 
z
" id="DejaVuSans-83"/>
    </defs>
    <g transform="translate(187.7275 16.318125)scale(0.12 -0.12)">
     <use xlink:href="#DejaVuSans-84"/>
     <use x="46.333984" xlink:href="#DejaVuSans-114"/>
     <use x="87.447266" xlink:href="#DejaVuSans-97"/>
     <use x="148.726562" xlink:href="#DejaVuSans-105"/>
     <use x="176.509766" xlink:href="#DejaVuSans-110"/>
     <use x="239.888672" xlink:href="#DejaVuSans-105"/>
     <use x="267.671875" xlink:href="#DejaVuSans-110"/>
     <use x="331.050781" xlink:href="#DejaVuSans-103"/>
     <use x="394.527344" xlink:href="#DejaVuSans-58"/>
     <use x="428.21875" xlink:href="#DejaVuSans-32"/>
     <use x="460.005859" xlink:href="#DejaVuSans-68"/>
     <use x="537.007812" xlink:href="#DejaVuSans-73"/>
     <use x="566.5" xlink:href="#DejaVuSans-83"/>
    </g>
   </g>
   <g id="legend_1">
    <g id="patch_7">
     <path d="M 53.965625 59.674375 
L 137.69375 59.674375 
Q 139.69375 59.674375 139.69375 57.674375 
L 139.69375 29.318125 
Q 139.69375 27.318125 137.69375 27.318125 
L 53.965625 27.318125 
Q 51.965625 27.318125 51.965625 29.318125 
L 51.965625 57.674375 
Q 51.965625 59.674375 53.965625 59.674375 
z
" style="fill:#ffffff;opacity:0.8;stroke:#cccccc;stroke-linejoin:miter;"/>
    </g>
    <g id="line2d_33">
     <path d="M 55.965625 35.416562 
L 75.965625 35.416562 
" style="fill:none;stroke:#1f77b4;stroke-linecap:square;stroke-width:1.5;"/>
    </g>
    <g id="line2d_34"/>
    <g id="text_19">
     <!-- Predicted -->
     <defs>
      <path d="M 45.40625 46.390625 
L 45.40625 75.984375 
L 54.390625 75.984375 
L 54.390625 0 
L 45.40625 0 
L 45.40625 8.203125 
Q 42.578125 3.328125 38.25 0.953125 
Q 33.9375 -1.421875 27.875 -1.421875 
Q 17.96875 -1.421875 11.734375 6.484375 
Q 5.515625 14.40625 5.515625 27.296875 
Q 5.515625 40.1875 11.734375 48.09375 
Q 17.96875 56 27.875 56 
Q 33.9375 56 38.25 53.625 
Q 42.578125 51.265625 45.40625 46.390625 
z
M 14.796875 27.296875 
Q 14.796875 17.390625 18.875 11.75 
Q 22.953125 6.109375 30.078125 6.109375 
Q 37.203125 6.109375 41.296875 11.75 
Q 45.40625 17.390625 45.40625 27.296875 
Q 45.40625 37.203125 41.296875 42.84375 
Q 37.203125 48.484375 30.078125 48.484375 
Q 22.953125 48.484375 18.875 42.84375 
Q 14.796875 37.203125 14.796875 27.296875 
z
" id="DejaVuSans-100"/>
      <path d="M 18.3125 70.21875 
L 18.3125 54.6875 
L 36.8125 54.6875 
L 36.8125 47.703125 
L 18.3125 47.703125 
L 18.3125 18.015625 
Q 18.3125 11.328125 20.140625 9.421875 
Q 21.96875 7.515625 27.59375 7.515625 
L 36.8125 7.515625 
L 36.8125 0 
L 27.59375 0 
Q 17.1875 0 13.234375 3.875 
Q 9.28125 7.765625 9.28125 18.015625 
L 9.28125 47.703125 
L 2.6875 47.703125 
L 2.6875 54.6875 
L 9.28125 54.6875 
L 9.28125 70.21875 
z
" id="DejaVuSans-116"/>
     </defs>
     <g transform="translate(83.965625 38.916562)scale(0.1 -0.1)">
      <use xlink:href="#DejaVuSans-80"/>
      <use x="58.552734" xlink:href="#DejaVuSans-114"/>
      <use x="97.416016" xlink:href="#DejaVuSans-101"/>
      <use x="158.939453" xlink:href="#DejaVuSans-100"/>
      <use x="222.416016" xlink:href="#DejaVuSans-105"/>
      <use x="250.199219" xlink:href="#DejaVuSans-99"/>
      <use x="305.179688" xlink:href="#DejaVuSans-116"/>
      <use x="344.388672" xlink:href="#DejaVuSans-101"/>
      <use x="405.912109" xlink:href="#DejaVuSans-100"/>
     </g>
    </g>
    <g id="line2d_35">
     <path d="M 55.965625 50.094687 
L 75.965625 50.094687 
" style="fill:none;stroke:#ff7f0e;stroke-linecap:square;stroke-width:1.5;"/>
    </g>
    <g id="line2d_36"/>
    <g id="text_20">
     <!-- True value -->
     <defs>
      <path d="M 8.5 21.578125 
L 8.5 54.6875 
L 17.484375 54.6875 
L 17.484375 21.921875 
Q 17.484375 14.15625 20.5 10.265625 
Q 23.53125 6.390625 29.59375 6.390625 
Q 36.859375 6.390625 41.078125 11.03125 
Q 45.3125 15.671875 45.3125 23.6875 
L 45.3125 54.6875 
L 54.296875 54.6875 
L 54.296875 0 
L 45.3125 0 
L 45.3125 8.40625 
Q 42.046875 3.421875 37.71875 1 
Q 33.40625 -1.421875 27.6875 -1.421875 
Q 18.265625 -1.421875 13.375 4.4375 
Q 8.5 10.296875 8.5 21.578125 
z
M 31.109375 56 
z
" id="DejaVuSans-117"/>
      <path d="M 2.984375 54.6875 
L 12.5 54.6875 
L 29.59375 8.796875 
L 46.6875 54.6875 
L 56.203125 54.6875 
L 35.6875 0 
L 23.484375 0 
z
" id="DejaVuSans-118"/>
      <path d="M 9.421875 75.984375 
L 18.40625 75.984375 
L 18.40625 0 
L 9.421875 0 
z
" id="DejaVuSans-108"/>
     </defs>
     <g transform="translate(83.965625 53.594687)scale(0.1 -0.1)">
      <use xlink:href="#DejaVuSans-84"/>
      <use x="46.333984" xlink:href="#DejaVuSans-114"/>
      <use x="87.447266" xlink:href="#DejaVuSans-117"/>
      <use x="150.826172" xlink:href="#DejaVuSans-101"/>
      <use x="212.349609" xlink:href="#DejaVuSans-32"/>
      <use x="244.136719" xlink:href="#DejaVuSans-118"/>
      <use x="303.316406" xlink:href="#DejaVuSans-97"/>
      <use x="364.595703" xlink:href="#DejaVuSans-108"/>
      <use x="392.378906" xlink:href="#DejaVuSans-117"/>
      <use x="455.757812" xlink:href="#DejaVuSans-101"/>
     </g>
    </g>
   </g>
  </g>
 </g>
 <defs>
  <clipPath id="p00e11e6fa2">
   <rect height="266.112" width="357.12" x="46.965625" y="22.318125"/>
  </clipPath>
 </defs>
</svg>
