<?xml version="1.0" encoding="utf-8" standalone="no"?>
<!DOCTYPE svg PUBLIC "-//W3C//DTD SVG 1.1//EN"
  "http://www.w3.org/Graphics/SVG/1.1/DTD/svg11.dtd">
<!-- Created with matplotlib (https://matplotlib.org/) -->
<svg height="325.986375pt" version="1.1" viewBox="0 0 411.285625 325.986375" width="411.285625pt" xmlns="http://www.w3.org/2000/svg" xmlns:xlink="http://www.w3.org/1999/xlink">
 <defs>
  <style type="text/css">
*{stroke-linecap:butt;stroke-linejoin:round;}
  </style>
 </defs>
 <g id="figure_1">
  <g id="patch_1">
   <path d="M 0 325.986375 
L 411.285625 325.986375 
L 411.285625 0 
L 0 0 
z
" style="fill:#ffffff;"/>
  </g>
  <g id="axes_1">
   <g id="patch_2">
    <path d="M 46.965625 288.430125 
L 404.085625 288.430125 
L 404.085625 22.318125 
L 46.965625 22.318125 
z
" style="fill:#ffffff;"/>
   </g>
   <g id="matplotlib.axis_1">
    <g id="xtick_1">
     <g id="line2d_1">
      <path clip-path="url(#pfdb284fd48)" d="M 63.198352 288.430125 
L 63.198352 22.318125 
" style="fill:none;stroke:#b0b0b0;stroke-dasharray:2.96,1.28;stroke-dashoffset:0;stroke-width:0.8;"/>
     </g>
     <g id="line2d_2">
      <defs>
       <path d="M 0 0 
L 0 3.5 
" id="m7831b3b377" style="stroke:#000000;stroke-width:0.8;"/>
      </defs>
      <g>
       <use style="stroke:#000000;stroke-width:0.8;" x="63.198352" xlink:href="#m7831b3b377" y="288.430125"/>
      </g>
     </g>
     <g id="text_1">
      <!-- 0 -->
      <defs>
       <path d="M 31.78125 66.40625 
Q 24.171875 66.40625 20.328125 58.90625 
Q 16.5 51.421875 16.5 36.375 
Q 16.5 21.390625 20.328125 13.890625 
Q 24.171875 6.390625 31.78125 6.390625 
Q 39.453125 6.390625 43.28125 13.890625 
Q 47.125 21.390625 47.125 36.375 
Q 47.125 51.421875 43.28125 58.90625 
Q 39.453125 66.40625 31.78125 66.40625 
z
M 31.78125 74.21875 
Q 44.046875 74.21875 50.515625 64.515625 
Q 56.984375 54.828125 56.984375 36.375 
Q 56.984375 17.96875 50.515625 8.265625 
Q 44.046875 -1.421875 31.78125 -1.421875 
Q 19.53125 -1.421875 13.0625 8.265625 
Q 6.59375 17.96875 6.59375 36.375 
Q 6.59375 54.828125 13.0625 64.515625 
Q 19.53125 74.21875 31.78125 74.21875 
z
" id="DejaVuSans-48"/>
      </defs>
      <g transform="translate(60.017102 303.028562)scale(0.1 -0.1)">
       <use xlink:href="#DejaVuSans-48"/>
      </g>
     </g>
    </g>
    <g id="xtick_2">
     <g id="line2d_3">
      <path clip-path="url(#pfdb284fd48)" d="M 112.128954 288.430125 
L 112.128954 22.318125 
" style="fill:none;stroke:#b0b0b0;stroke-dasharray:2.96,1.28;stroke-dashoffset:0;stroke-width:0.8;"/>
     </g>
     <g id="line2d_4">
      <g>
       <use style="stroke:#000000;stroke-width:0.8;" x="112.128954" xlink:href="#m7831b3b377" y="288.430125"/>
      </g>
     </g>
     <g id="text_2">
      <!-- 200 -->
      <defs>
       <path d="M 19.1875 8.296875 
L 53.609375 8.296875 
L 53.609375 0 
L 7.328125 0 
L 7.328125 8.296875 
Q 12.9375 14.109375 22.625 23.890625 
Q 32.328125 33.6875 34.8125 36.53125 
Q 39.546875 41.84375 41.421875 45.53125 
Q 43.3125 49.21875 43.3125 52.78125 
Q 43.3125 58.59375 39.234375 62.25 
Q 35.15625 65.921875 28.609375 65.921875 
Q 23.96875 65.921875 18.8125 64.3125 
Q 13.671875 62.703125 7.8125 59.421875 
L 7.8125 69.390625 
Q 13.765625 71.78125 18.9375 73 
Q 24.125 74.21875 28.421875 74.21875 
Q 39.75 74.21875 46.484375 68.546875 
Q 53.21875 62.890625 53.21875 53.421875 
Q 53.21875 48.921875 51.53125 44.890625 
Q 49.859375 40.875 45.40625 35.40625 
Q 44.1875 33.984375 37.640625 27.21875 
Q 31.109375 20.453125 19.1875 8.296875 
z
" id="DejaVuSans-50"/>
      </defs>
      <g transform="translate(102.585204 303.028562)scale(0.1 -0.1)">
       <use xlink:href="#DejaVuSans-50"/>
       <use x="63.623047" xlink:href="#DejaVuSans-48"/>
       <use x="127.246094" xlink:href="#DejaVuSans-48"/>
      </g>
     </g>
    </g>
    <g id="xtick_3">
     <g id="line2d_5">
      <path clip-path="url(#pfdb284fd48)" d="M 161.059557 288.430125 
L 161.059557 22.318125 
" style="fill:none;stroke:#b0b0b0;stroke-dasharray:2.96,1.28;stroke-dashoffset:0;stroke-width:0.8;"/>
     </g>
     <g id="line2d_6">
      <g>
       <use style="stroke:#000000;stroke-width:0.8;" x="161.059557" xlink:href="#m7831b3b377" y="288.430125"/>
      </g>
     </g>
     <g id="text_3">
      <!-- 400 -->
      <defs>
       <path d="M 37.796875 64.3125 
L 12.890625 25.390625 
L 37.796875 25.390625 
z
M 35.203125 72.90625 
L 47.609375 72.90625 
L 47.609375 25.390625 
L 58.015625 25.390625 
L 58.015625 17.1875 
L 47.609375 17.1875 
L 47.609375 0 
L 37.796875 0 
L 37.796875 17.1875 
L 4.890625 17.1875 
L 4.890625 26.703125 
z
" id="DejaVuSans-52"/>
      </defs>
      <g transform="translate(151.515807 303.028562)scale(0.1 -0.1)">
       <use xlink:href="#DejaVuSans-52"/>
       <use x="63.623047" xlink:href="#DejaVuSans-48"/>
       <use x="127.246094" xlink:href="#DejaVuSans-48"/>
      </g>
     </g>
    </g>
    <g id="xtick_4">
     <g id="line2d_7">
      <path clip-path="url(#pfdb284fd48)" d="M 209.990159 288.430125 
L 209.990159 22.318125 
" style="fill:none;stroke:#b0b0b0;stroke-dasharray:2.96,1.28;stroke-dashoffset:0;stroke-width:0.8;"/>
     </g>
     <g id="line2d_8">
      <g>
       <use style="stroke:#000000;stroke-width:0.8;" x="209.990159" xlink:href="#m7831b3b377" y="288.430125"/>
      </g>
     </g>
     <g id="text_4">
      <!-- 600 -->
      <defs>
       <path d="M 33.015625 40.375 
Q 26.375 40.375 22.484375 35.828125 
Q 18.609375 31.296875 18.609375 23.390625 
Q 18.609375 15.53125 22.484375 10.953125 
Q 26.375 6.390625 33.015625 6.390625 
Q 39.65625 6.390625 43.53125 10.953125 
Q 47.40625 15.53125 47.40625 23.390625 
Q 47.40625 31.296875 43.53125 35.828125 
Q 39.65625 40.375 33.015625 40.375 
z
M 52.59375 71.296875 
L 52.59375 62.3125 
Q 48.875 64.0625 45.09375 64.984375 
Q 41.3125 65.921875 37.59375 65.921875 
Q 27.828125 65.921875 22.671875 59.328125 
Q 17.53125 52.734375 16.796875 39.40625 
Q 19.671875 43.65625 24.015625 45.921875 
Q 28.375 48.1875 33.59375 48.1875 
Q 44.578125 48.1875 50.953125 41.515625 
Q 57.328125 34.859375 57.328125 23.390625 
Q 57.328125 12.15625 50.6875 5.359375 
Q 44.046875 -1.421875 33.015625 -1.421875 
Q 20.359375 -1.421875 13.671875 8.265625 
Q 6.984375 17.96875 6.984375 36.375 
Q 6.984375 53.65625 15.1875 63.9375 
Q 23.390625 74.21875 37.203125 74.21875 
Q 40.921875 74.21875 44.703125 73.484375 
Q 48.484375 72.75 52.59375 71.296875 
z
" id="DejaVuSans-54"/>
      </defs>
      <g transform="translate(200.446409 303.028562)scale(0.1 -0.1)">
       <use xlink:href="#DejaVuSans-54"/>
       <use x="63.623047" xlink:href="#DejaVuSans-48"/>
       <use x="127.246094" xlink:href="#DejaVuSans-48"/>
      </g>
     </g>
    </g>
    <g id="xtick_5">
     <g id="line2d_9">
      <path clip-path="url(#pfdb284fd48)" d="M 258.920761 288.430125 
L 258.920761 22.318125 
" style="fill:none;stroke:#b0b0b0;stroke-dasharray:2.96,1.28;stroke-dashoffset:0;stroke-width:0.8;"/>
     </g>
     <g id="line2d_10">
      <g>
       <use style="stroke:#000000;stroke-width:0.8;" x="258.920761" xlink:href="#m7831b3b377" y="288.430125"/>
      </g>
     </g>
     <g id="text_5">
      <!-- 800 -->
      <defs>
       <path d="M 31.78125 34.625 
Q 24.75 34.625 20.71875 30.859375 
Q 16.703125 27.09375 16.703125 20.515625 
Q 16.703125 13.921875 20.71875 10.15625 
Q 24.75 6.390625 31.78125 6.390625 
Q 38.8125 6.390625 42.859375 10.171875 
Q 46.921875 13.96875 46.921875 20.515625 
Q 46.921875 27.09375 42.890625 30.859375 
Q 38.875 34.625 31.78125 34.625 
z
M 21.921875 38.8125 
Q 15.578125 40.375 12.03125 44.71875 
Q 8.5 49.078125 8.5 55.328125 
Q 8.5 64.0625 14.71875 69.140625 
Q 20.953125 74.21875 31.78125 74.21875 
Q 42.671875 74.21875 48.875 69.140625 
Q 55.078125 64.0625 55.078125 55.328125 
Q 55.078125 49.078125 51.53125 44.71875 
Q 48 40.375 41.703125 38.8125 
Q 48.828125 37.15625 52.796875 32.3125 
Q 56.78125 27.484375 56.78125 20.515625 
Q 56.78125 9.90625 50.3125 4.234375 
Q 43.84375 -1.421875 31.78125 -1.421875 
Q 19.734375 -1.421875 13.25 4.234375 
Q 6.78125 9.90625 6.78125 20.515625 
Q 6.78125 27.484375 10.78125 32.3125 
Q 14.796875 37.15625 21.921875 38.8125 
z
M 18.3125 54.390625 
Q 18.3125 48.734375 21.84375 45.5625 
Q 25.390625 42.390625 31.78125 42.390625 
Q 38.140625 42.390625 41.71875 45.5625 
Q 45.3125 48.734375 45.3125 54.390625 
Q 45.3125 60.0625 41.71875 63.234375 
Q 38.140625 66.40625 31.78125 66.40625 
Q 25.390625 66.40625 21.84375 63.234375 
Q 18.3125 60.0625 18.3125 54.390625 
z
" id="DejaVuSans-56"/>
      </defs>
      <g transform="translate(249.377011 303.028562)scale(0.1 -0.1)">
       <use xlink:href="#DejaVuSans-56"/>
       <use x="63.623047" xlink:href="#DejaVuSans-48"/>
       <use x="127.246094" xlink:href="#DejaVuSans-48"/>
      </g>
     </g>
    </g>
    <g id="xtick_6">
     <g id="line2d_11">
      <path clip-path="url(#pfdb284fd48)" d="M 307.851363 288.430125 
L 307.851363 22.318125 
" style="fill:none;stroke:#b0b0b0;stroke-dasharray:2.96,1.28;stroke-dashoffset:0;stroke-width:0.8;"/>
     </g>
     <g id="line2d_12">
      <g>
       <use style="stroke:#000000;stroke-width:0.8;" x="307.851363" xlink:href="#m7831b3b377" y="288.430125"/>
      </g>
     </g>
     <g id="text_6">
      <!-- 1000 -->
      <defs>
       <path d="M 12.40625 8.296875 
L 28.515625 8.296875 
L 28.515625 63.921875 
L 10.984375 60.40625 
L 10.984375 69.390625 
L 28.421875 72.90625 
L 38.28125 72.90625 
L 38.28125 8.296875 
L 54.390625 8.296875 
L 54.390625 0 
L 12.40625 0 
z
" id="DejaVuSans-49"/>
      </defs>
      <g transform="translate(295.126363 303.028562)scale(0.1 -0.1)">
       <use xlink:href="#DejaVuSans-49"/>
       <use x="63.623047" xlink:href="#DejaVuSans-48"/>
       <use x="127.246094" xlink:href="#DejaVuSans-48"/>
       <use x="190.869141" xlink:href="#DejaVuSans-48"/>
      </g>
     </g>
    </g>
    <g id="xtick_7">
     <g id="line2d_13">
      <path clip-path="url(#pfdb284fd48)" d="M 356.781965 288.430125 
L 356.781965 22.318125 
" style="fill:none;stroke:#b0b0b0;stroke-dasharray:2.96,1.28;stroke-dashoffset:0;stroke-width:0.8;"/>
     </g>
     <g id="line2d_14">
      <g>
       <use style="stroke:#000000;stroke-width:0.8;" x="356.781965" xlink:href="#m7831b3b377" y="288.430125"/>
      </g>
     </g>
     <g id="text_7">
      <!-- 1200 -->
      <g transform="translate(344.056965 303.028562)scale(0.1 -0.1)">
       <use xlink:href="#DejaVuSans-49"/>
       <use x="63.623047" xlink:href="#DejaVuSans-50"/>
       <use x="127.246094" xlink:href="#DejaVuSans-48"/>
       <use x="190.869141" xlink:href="#DejaVuSans-48"/>
      </g>
     </g>
    </g>
    <g id="text_8">
     <!-- Day -->
     <defs>
      <path d="M 19.671875 64.796875 
L 19.671875 8.109375 
L 31.59375 8.109375 
Q 46.6875 8.109375 53.6875 14.9375 
Q 60.6875 21.78125 60.6875 36.53125 
Q 60.6875 51.171875 53.6875 57.984375 
Q 46.6875 64.796875 31.59375 64.796875 
z
M 9.8125 72.90625 
L 30.078125 72.90625 
Q 51.265625 72.90625 61.171875 64.09375 
Q 71.09375 55.28125 71.09375 36.53125 
Q 71.09375 17.671875 61.125 8.828125 
Q 51.171875 0 30.078125 0 
L 9.8125 0 
z
" id="DejaVuSans-68"/>
      <path d="M 34.28125 27.484375 
Q 23.390625 27.484375 19.1875 25 
Q 14.984375 22.515625 14.984375 16.5 
Q 14.984375 11.71875 18.140625 8.90625 
Q 21.296875 6.109375 26.703125 6.109375 
Q 34.1875 6.109375 38.703125 11.40625 
Q 43.21875 16.703125 43.21875 25.484375 
L 43.21875 27.484375 
z
M 52.203125 31.203125 
L 52.203125 0 
L 43.21875 0 
L 43.21875 8.296875 
Q 40.140625 3.328125 35.546875 0.953125 
Q 30.953125 -1.421875 24.3125 -1.421875 
Q 15.921875 -1.421875 10.953125 3.296875 
Q 6 8.015625 6 15.921875 
Q 6 25.140625 12.171875 29.828125 
Q 18.359375 34.515625 30.609375 34.515625 
L 43.21875 34.515625 
L 43.21875 35.40625 
Q 43.21875 41.609375 39.140625 45 
Q 35.0625 48.390625 27.6875 48.390625 
Q 23 48.390625 18.546875 47.265625 
Q 14.109375 46.140625 10.015625 43.890625 
L 10.015625 52.203125 
Q 14.9375 54.109375 19.578125 55.046875 
Q 24.21875 56 28.609375 56 
Q 40.484375 56 46.34375 49.84375 
Q 52.203125 43.703125 52.203125 31.203125 
z
" id="DejaVuSans-97"/>
      <path d="M 32.171875 -5.078125 
Q 28.375 -14.84375 24.75 -17.8125 
Q 21.140625 -20.796875 15.09375 -20.796875 
L 7.90625 -20.796875 
L 7.90625 -13.28125 
L 13.1875 -13.28125 
Q 16.890625 -13.28125 18.9375 -11.515625 
Q 21 -9.765625 23.484375 -3.21875 
L 25.09375 0.875 
L 2.984375 54.6875 
L 12.5 54.6875 
L 29.59375 11.921875 
L 46.6875 54.6875 
L 56.203125 54.6875 
z
" id="DejaVuSans-121"/>
     </defs>
     <g transform="translate(215.652188 316.706687)scale(0.1 -0.1)">
      <use xlink:href="#DejaVuSans-68"/>
      <use x="77.001953" xlink:href="#DejaVuSans-97"/>
      <use x="138.28125" xlink:href="#DejaVuSans-121"/>
     </g>
    </g>
   </g>
   <g id="matplotlib.axis_2">
    <g id="ytick_1">
     <g id="line2d_15">
      <path clip-path="url(#pfdb284fd48)" d="M 46.965625 266.803845 
L 404.085625 266.803845 
" style="fill:none;stroke:#b0b0b0;stroke-dasharray:2.96,1.28;stroke-dashoffset:0;stroke-width:0.8;"/>
     </g>
     <g id="line2d_16">
      <defs>
       <path d="M 0 0 
L -3.5 0 
" id="mf1c07bb1ae" style="stroke:#000000;stroke-width:0.8;"/>
      </defs>
      <g>
       <use style="stroke:#000000;stroke-width:0.8;" x="46.965625" xlink:href="#mf1c07bb1ae" y="266.803845"/>
      </g>
     </g>
     <g id="text_9">
      <!-- 50 -->
      <defs>
       <path d="M 10.796875 72.90625 
L 49.515625 72.90625 
L 49.515625 64.59375 
L 19.828125 64.59375 
L 19.828125 46.734375 
Q 21.96875 47.46875 24.109375 47.828125 
Q 26.265625 48.1875 28.421875 48.1875 
Q 40.625 48.1875 47.75 41.5 
Q 54.890625 34.8125 54.890625 23.390625 
Q 54.890625 11.625 47.5625 5.09375 
Q 40.234375 -1.421875 26.90625 -1.421875 
Q 22.3125 -1.421875 17.546875 -0.640625 
Q 12.796875 0.140625 7.71875 1.703125 
L 7.71875 11.625 
Q 12.109375 9.234375 16.796875 8.0625 
Q 21.484375 6.890625 26.703125 6.890625 
Q 35.15625 6.890625 40.078125 11.328125 
Q 45.015625 15.765625 45.015625 23.390625 
Q 45.015625 31 40.078125 35.4375 
Q 35.15625 39.890625 26.703125 39.890625 
Q 22.75 39.890625 18.8125 39.015625 
Q 14.890625 38.140625 10.796875 36.28125 
z
" id="DejaVuSans-53"/>
      </defs>
      <g transform="translate(27.240625 270.603064)scale(0.1 -0.1)">
       <use xlink:href="#DejaVuSans-53"/>
       <use x="63.623047" xlink:href="#DejaVuSans-48"/>
      </g>
     </g>
    </g>
    <g id="ytick_2">
     <g id="line2d_17">
      <path clip-path="url(#pfdb284fd48)" d="M 46.965625 234.387926 
L 404.085625 234.387926 
" style="fill:none;stroke:#b0b0b0;stroke-dasharray:2.96,1.28;stroke-dashoffset:0;stroke-width:0.8;"/>
     </g>
     <g id="line2d_18">
      <g>
       <use style="stroke:#000000;stroke-width:0.8;" x="46.965625" xlink:href="#mf1c07bb1ae" y="234.387926"/>
      </g>
     </g>
     <g id="text_10">
      <!-- 60 -->
      <g transform="translate(27.240625 238.187145)scale(0.1 -0.1)">
       <use xlink:href="#DejaVuSans-54"/>
       <use x="63.623047" xlink:href="#DejaVuSans-48"/>
      </g>
     </g>
    </g>
    <g id="ytick_3">
     <g id="line2d_19">
      <path clip-path="url(#pfdb284fd48)" d="M 46.965625 201.972008 
L 404.085625 201.972008 
" style="fill:none;stroke:#b0b0b0;stroke-dasharray:2.96,1.28;stroke-dashoffset:0;stroke-width:0.8;"/>
     </g>
     <g id="line2d_20">
      <g>
       <use style="stroke:#000000;stroke-width:0.8;" x="46.965625" xlink:href="#mf1c07bb1ae" y="201.972008"/>
      </g>
     </g>
     <g id="text_11">
      <!-- 70 -->
      <defs>
       <path d="M 8.203125 72.90625 
L 55.078125 72.90625 
L 55.078125 68.703125 
L 28.609375 0 
L 18.3125 0 
L 43.21875 64.59375 
L 8.203125 64.59375 
z
" id="DejaVuSans-55"/>
      </defs>
      <g transform="translate(27.240625 205.771227)scale(0.1 -0.1)">
       <use xlink:href="#DejaVuSans-55"/>
       <use x="63.623047" xlink:href="#DejaVuSans-48"/>
      </g>
     </g>
    </g>
    <g id="ytick_4">
     <g id="line2d_21">
      <path clip-path="url(#pfdb284fd48)" d="M 46.965625 169.556089 
L 404.085625 169.556089 
" style="fill:none;stroke:#b0b0b0;stroke-dasharray:2.96,1.28;stroke-dashoffset:0;stroke-width:0.8;"/>
     </g>
     <g id="line2d_22">
      <g>
       <use style="stroke:#000000;stroke-width:0.8;" x="46.965625" xlink:href="#mf1c07bb1ae" y="169.556089"/>
      </g>
     </g>
     <g id="text_12">
      <!-- 80 -->
      <g transform="translate(27.240625 173.355308)scale(0.1 -0.1)">
       <use xlink:href="#DejaVuSans-56"/>
       <use x="63.623047" xlink:href="#DejaVuSans-48"/>
      </g>
     </g>
    </g>
    <g id="ytick_5">
     <g id="line2d_23">
      <path clip-path="url(#pfdb284fd48)" d="M 46.965625 137.140171 
L 404.085625 137.140171 
" style="fill:none;stroke:#b0b0b0;stroke-dasharray:2.96,1.28;stroke-dashoffset:0;stroke-width:0.8;"/>
     </g>
     <g id="line2d_24">
      <g>
       <use style="stroke:#000000;stroke-width:0.8;" x="46.965625" xlink:href="#mf1c07bb1ae" y="137.140171"/>
      </g>
     </g>
     <g id="text_13">
      <!-- 90 -->
      <defs>
       <path d="M 10.984375 1.515625 
L 10.984375 10.5 
Q 14.703125 8.734375 18.5 7.8125 
Q 22.3125 6.890625 25.984375 6.890625 
Q 35.75 6.890625 40.890625 13.453125 
Q 46.046875 20.015625 46.78125 33.40625 
Q 43.953125 29.203125 39.59375 26.953125 
Q 35.25 24.703125 29.984375 24.703125 
Q 19.046875 24.703125 12.671875 31.3125 
Q 6.296875 37.9375 6.296875 49.421875 
Q 6.296875 60.640625 12.9375 67.421875 
Q 19.578125 74.21875 30.609375 74.21875 
Q 43.265625 74.21875 49.921875 64.515625 
Q 56.59375 54.828125 56.59375 36.375 
Q 56.59375 19.140625 48.40625 8.859375 
Q 40.234375 -1.421875 26.421875 -1.421875 
Q 22.703125 -1.421875 18.890625 -0.6875 
Q 15.09375 0.046875 10.984375 1.515625 
z
M 30.609375 32.421875 
Q 37.25 32.421875 41.125 36.953125 
Q 45.015625 41.5 45.015625 49.421875 
Q 45.015625 57.28125 41.125 61.84375 
Q 37.25 66.40625 30.609375 66.40625 
Q 23.96875 66.40625 20.09375 61.84375 
Q 16.21875 57.28125 16.21875 49.421875 
Q 16.21875 41.5 20.09375 36.953125 
Q 23.96875 32.421875 30.609375 32.421875 
z
" id="DejaVuSans-57"/>
      </defs>
      <g transform="translate(27.240625 140.93939)scale(0.1 -0.1)">
       <use xlink:href="#DejaVuSans-57"/>
       <use x="63.623047" xlink:href="#DejaVuSans-48"/>
      </g>
     </g>
    </g>
    <g id="ytick_6">
     <g id="line2d_25">
      <path clip-path="url(#pfdb284fd48)" d="M 46.965625 104.724252 
L 404.085625 104.724252 
" style="fill:none;stroke:#b0b0b0;stroke-dasharray:2.96,1.28;stroke-dashoffset:0;stroke-width:0.8;"/>
     </g>
     <g id="line2d_26">
      <g>
       <use style="stroke:#000000;stroke-width:0.8;" x="46.965625" xlink:href="#mf1c07bb1ae" y="104.724252"/>
      </g>
     </g>
     <g id="text_14">
      <!-- 100 -->
      <g transform="translate(20.878125 108.523471)scale(0.1 -0.1)">
       <use xlink:href="#DejaVuSans-49"/>
       <use x="63.623047" xlink:href="#DejaVuSans-48"/>
       <use x="127.246094" xlink:href="#DejaVuSans-48"/>
      </g>
     </g>
    </g>
    <g id="ytick_7">
     <g id="line2d_27">
      <path clip-path="url(#pfdb284fd48)" d="M 46.965625 72.308334 
L 404.085625 72.308334 
" style="fill:none;stroke:#b0b0b0;stroke-dasharray:2.96,1.28;stroke-dashoffset:0;stroke-width:0.8;"/>
     </g>
     <g id="line2d_28">
      <g>
       <use style="stroke:#000000;stroke-width:0.8;" x="46.965625" xlink:href="#mf1c07bb1ae" y="72.308334"/>
      </g>
     </g>
     <g id="text_15">
      <!-- 110 -->
      <g transform="translate(20.878125 76.107553)scale(0.1 -0.1)">
       <use xlink:href="#DejaVuSans-49"/>
       <use x="63.623047" xlink:href="#DejaVuSans-49"/>
       <use x="127.246094" xlink:href="#DejaVuSans-48"/>
      </g>
     </g>
    </g>
    <g id="ytick_8">
     <g id="line2d_29">
      <path clip-path="url(#pfdb284fd48)" d="M 46.965625 39.892415 
L 404.085625 39.892415 
" style="fill:none;stroke:#b0b0b0;stroke-dasharray:2.96,1.28;stroke-dashoffset:0;stroke-width:0.8;"/>
     </g>
     <g id="line2d_30">
      <g>
       <use style="stroke:#000000;stroke-width:0.8;" x="46.965625" xlink:href="#mf1c07bb1ae" y="39.892415"/>
      </g>
     </g>
     <g id="text_16">
      <!-- 120 -->
      <g transform="translate(20.878125 43.691634)scale(0.1 -0.1)">
       <use xlink:href="#DejaVuSans-49"/>
       <use x="63.623047" xlink:href="#DejaVuSans-50"/>
       <use x="127.246094" xlink:href="#DejaVuSans-48"/>
      </g>
     </g>
    </g>
    <g id="text_17">
     <!-- Price $ -->
     <defs>
      <path d="M 19.671875 64.796875 
L 19.671875 37.40625 
L 32.078125 37.40625 
Q 38.96875 37.40625 42.71875 40.96875 
Q 46.484375 44.53125 46.484375 51.125 
Q 46.484375 57.671875 42.71875 61.234375 
Q 38.96875 64.796875 32.078125 64.796875 
z
M 9.8125 72.90625 
L 32.078125 72.90625 
Q 44.34375 72.90625 50.609375 67.359375 
Q 56.890625 61.8125 56.890625 51.125 
Q 56.890625 40.328125 50.609375 34.8125 
Q 44.34375 29.296875 32.078125 29.296875 
L 19.671875 29.296875 
L 19.671875 0 
L 9.8125 0 
z
" id="DejaVuSans-80"/>
      <path d="M 41.109375 46.296875 
Q 39.59375 47.171875 37.8125 47.578125 
Q 36.03125 48 33.890625 48 
Q 26.265625 48 22.1875 43.046875 
Q 18.109375 38.09375 18.109375 28.8125 
L 18.109375 0 
L 9.078125 0 
L 9.078125 54.6875 
L 18.109375 54.6875 
L 18.109375 46.1875 
Q 20.953125 51.171875 25.484375 53.578125 
Q 30.03125 56 36.53125 56 
Q 37.453125 56 38.578125 55.875 
Q 39.703125 55.765625 41.0625 55.515625 
z
" id="DejaVuSans-114"/>
      <path d="M 9.421875 54.6875 
L 18.40625 54.6875 
L 18.40625 0 
L 9.421875 0 
z
M 9.421875 75.984375 
L 18.40625 75.984375 
L 18.40625 64.59375 
L 9.421875 64.59375 
z
" id="DejaVuSans-105"/>
      <path d="M 48.78125 52.59375 
L 48.78125 44.1875 
Q 44.96875 46.296875 41.140625 47.34375 
Q 37.3125 48.390625 33.40625 48.390625 
Q 24.65625 48.390625 19.8125 42.84375 
Q 14.984375 37.3125 14.984375 27.296875 
Q 14.984375 17.28125 19.8125 11.734375 
Q 24.65625 6.203125 33.40625 6.203125 
Q 37.3125 6.203125 41.140625 7.25 
Q 44.96875 8.296875 48.78125 10.40625 
L 48.78125 2.09375 
Q 45.015625 0.34375 40.984375 -0.53125 
Q 36.96875 -1.421875 32.421875 -1.421875 
Q 20.0625 -1.421875 12.78125 6.34375 
Q 5.515625 14.109375 5.515625 27.296875 
Q 5.515625 40.671875 12.859375 48.328125 
Q 20.21875 56 33.015625 56 
Q 37.15625 56 41.109375 55.140625 
Q 45.0625 54.296875 48.78125 52.59375 
z
" id="DejaVuSans-99"/>
      <path d="M 56.203125 29.59375 
L 56.203125 25.203125 
L 14.890625 25.203125 
Q 15.484375 15.921875 20.484375 11.0625 
Q 25.484375 6.203125 34.421875 6.203125 
Q 39.59375 6.203125 44.453125 7.46875 
Q 49.3125 8.734375 54.109375 11.28125 
L 54.109375 2.78125 
Q 49.265625 0.734375 44.1875 -0.34375 
Q 39.109375 -1.421875 33.890625 -1.421875 
Q 20.796875 -1.421875 13.15625 6.1875 
Q 5.515625 13.8125 5.515625 26.8125 
Q 5.515625 40.234375 12.765625 48.109375 
Q 20.015625 56 32.328125 56 
Q 43.359375 56 49.78125 48.890625 
Q 56.203125 41.796875 56.203125 29.59375 
z
M 47.21875 32.234375 
Q 47.125 39.59375 43.09375 43.984375 
Q 39.0625 48.390625 32.421875 48.390625 
Q 24.90625 48.390625 20.390625 44.140625 
Q 15.875 39.890625 15.1875 32.171875 
z
" id="DejaVuSans-101"/>
      <path id="DejaVuSans-32"/>
      <path d="M 33.796875 -14.703125 
L 28.90625 -14.703125 
L 28.859375 0 
Q 23.734375 0.09375 18.609375 1.1875 
Q 13.484375 2.296875 8.296875 4.5 
L 8.296875 13.28125 
Q 13.28125 10.15625 18.375 8.5625 
Q 23.484375 6.984375 28.90625 6.9375 
L 28.90625 29.203125 
Q 18.109375 30.953125 13.203125 35.15625 
Q 8.296875 39.359375 8.296875 46.6875 
Q 8.296875 54.640625 13.625 59.21875 
Q 18.953125 63.8125 28.90625 64.5 
L 28.90625 75.984375 
L 33.796875 75.984375 
L 33.796875 64.65625 
Q 38.328125 64.453125 42.578125 63.6875 
Q 46.828125 62.9375 50.875 61.625 
L 50.875 53.078125 
Q 46.828125 55.125 42.546875 56.25 
Q 38.28125 57.375 33.796875 57.5625 
L 33.796875 36.71875 
Q 44.875 35.015625 50.09375 30.609375 
Q 55.328125 26.21875 55.328125 18.609375 
Q 55.328125 10.359375 49.78125 5.59375 
Q 44.234375 0.828125 33.796875 0.09375 
z
M 28.90625 37.59375 
L 28.90625 57.625 
Q 23.25 56.984375 20.265625 54.390625 
Q 17.28125 51.8125 17.28125 47.515625 
Q 17.28125 43.3125 20.03125 40.96875 
Q 22.796875 38.625 28.90625 37.59375 
z
M 33.796875 28.21875 
L 33.796875 7.078125 
Q 39.984375 7.90625 43.140625 10.59375 
Q 46.296875 13.28125 46.296875 17.671875 
Q 46.296875 21.96875 43.28125 24.5 
Q 40.28125 27.046875 33.796875 28.21875 
z
" id="DejaVuSans-36"/>
     </defs>
     <g transform="translate(14.798438 172.342094)rotate(-90)scale(0.1 -0.1)">
      <use xlink:href="#DejaVuSans-80"/>
      <use x="58.552734" xlink:href="#DejaVuSans-114"/>
      <use x="99.666016" xlink:href="#DejaVuSans-105"/>
      <use x="127.449219" xlink:href="#DejaVuSans-99"/>
      <use x="182.429688" xlink:href="#DejaVuSans-101"/>
      <use x="243.953125" xlink:href="#DejaVuSans-32"/>
      <use x="275.740234" xlink:href="#DejaVuSans-36"/>
     </g>
    </g>
   </g>
   <g id="line2d_31">
    <path clip-path="url(#pfdb284fd48)" d="M 63.198352 265.247066 
L 63.443005 265.837763 
L 63.687658 266.837789 
L 63.932311 269.185749 
L 64.176964 270.430146 
L 64.421617 269.093415 
L 64.66627 268.662421 
L 64.910923 266.227183 
L 65.155576 266.891011 
L 65.400229 266.734523 
L 65.644882 264.991801 
L 65.889535 266.461748 
L 66.134188 267.252163 
L 66.378841 267.113828 
L 66.623494 267.247217 
L 66.868147 266.777815 
L 67.1128 265.407795 
L 67.357453 265.107495 
L 67.602106 265.849411 
L 67.846759 267.538614 
L 68.091412 267.071265 
L 68.336066 268.14828 
L 68.580719 267.762619 
L 68.825372 266.781995 
L 69.070025 267.230325 
L 69.314678 266.274457 
L 69.559331 268.6091 
L 69.803984 268.422786 
L 70.048637 267.327915 
L 70.537943 261.464958 
L 71.027249 261.488935 
L 71.271902 260.260168 
L 71.516555 260.505627 
L 71.761208 258.049912 
L 72.250514 260.714706 
L 72.495167 260.199626 
L 72.73982 257.317579 
L 72.984473 257.781107 
L 73.229126 257.114819 
L 73.473779 257.18853 
L 73.718432 258.141814 
L 73.963085 260.116862 
L 74.207738 258.00981 
L 74.941697 261.152328 
L 75.431003 257.618214 
L 75.675656 257.422292 
L 76.164962 262.011793 
L 76.654268 265.403591 
L 76.898921 263.944501 
L 77.143574 263.564627 
L 77.388227 262.41719 
L 77.63288 259.469691 
L 77.877533 258.354442 
L 78.122186 260.062218 
L 78.366839 260.388475 
L 78.611492 263.846874 
L 78.856145 263.110547 
L 79.345451 265.424032 
L 79.590104 267.769346 
L 79.834757 265.999519 
L 80.07941 265.378019 
L 80.568716 265.156488 
L 80.813369 266.392884 
L 81.058022 266.302676 
L 81.302675 275.389542 
L 81.547328 274.43475 
L 81.791981 272.272671 
L 82.036634 274.683066 
L 82.281287 275.750175 
L 83.015246 270.852273 
L 83.259899 270.013966 
L 83.504552 269.788775 
L 83.749205 269.983312 
L 83.993858 269.944619 
L 84.238511 268.041787 
L 84.483164 267.446811 
L 84.727817 267.216303 
L 84.97247 268.625855 
L 85.217123 268.290016 
L 85.461776 266.420533 
L 85.706429 269.529614 
L 85.951082 268.474054 
L 86.195735 268.402333 
L 86.685041 267.651872 
L 86.929694 269.777114 
L 87.174347 270.691198 
L 87.663653 265.949586 
L 87.908306 265.409947 
L 88.152959 263.60191 
L 88.397612 266.238275 
L 88.642265 265.407561 
L 89.131571 266.895462 
L 89.376224 268.636354 
L 89.620877 267.043121 
L 89.86553 262.309188 
L 90.110183 262.968453 
L 90.354836 260.258474 
L 90.599489 263.974463 
L 90.844143 263.895026 
L 91.088796 262.599361 
L 91.333449 262.780717 
L 91.822755 264.788188 
L 92.067408 262.405727 
L 92.312061 261.486919 
L 92.556714 258.166249 
L 92.801367 259.570398 
L 93.04602 257.516778 
L 93.290673 254.178288 
L 93.535326 253.66902 
L 93.779979 251.904757 
L 94.513938 254.174752 
L 94.758591 253.70582 
L 95.003244 251.376173 
L 95.247897 253.623254 
L 95.737203 251.832047 
L 95.981856 253.327133 
L 96.226509 251.388947 
L 96.471162 250.953761 
L 96.715815 249.95444 
L 96.960468 249.641588 
L 97.205121 250.764368 
L 97.694427 247.70109 
L 97.93908 250.911186 
L 98.183733 252.250687 
L 98.428386 252.4647 
L 98.673039 254.082046 
L 98.917692 253.350368 
L 99.162345 251.629521 
L 99.406998 251.301336 
L 99.896304 248.506047 
L 100.140957 245.648818 
L 100.38561 246.38428 
L 100.630263 246.238674 
L 100.874916 242.474644 
L 101.119569 242.037962 
L 101.364222 243.817125 
L 101.853528 241.19749 
L 102.098181 242.211551 
L 102.587487 245.818747 
L 102.83214 243.341454 
L 103.076793 245.421734 
L 103.321446 243.859255 
L 103.566099 246.582056 
L 103.810752 245.055784 
L 104.055405 245.51005 
L 104.300058 243.770494 
L 104.544711 244.747581 
L 104.789364 242.183617 
L 105.034017 242.798278 
L 105.27867 241.155892 
L 105.523323 241.862455 
L 105.767976 238.034989 
L 106.012629 236.611958 
L 106.257282 233.319753 
L 106.501935 231.969172 
L 106.746588 231.696039 
L 106.991241 237.03181 
L 107.235894 231.802396 
L 107.480547 232.281839 
L 107.7252 233.479703 
L 107.969853 229.094619 
L 108.459159 225.703761 
L 108.703812 227.45912 
L 108.948465 227.369655 
L 109.193118 227.898078 
L 109.437771 223.459709 
L 109.682424 225.292058 
L 110.905689 214.624831 
L 111.150342 215.635256 
L 111.394995 212.15926 
L 111.639648 210.501986 
L 112.128954 209.65266 
L 112.373607 208.881932 
L 112.61826 212.421685 
L 112.862913 212.478419 
L 113.107566 213.856872 
L 113.35222 214.156715 
L 113.596873 215.269158 
L 113.841526 217.678786 
L 114.086179 216.61687 
L 114.330832 212.22695 
L 114.575485 214.185923 
L 115.064791 223.003403 
L 115.309444 222.020244 
L 115.554097 220.529201 
L 115.79875 225.668333 
L 116.043403 225.293405 
L 116.288056 219.115728 
L 116.532709 221.808556 
L 116.777362 221.764917 
L 117.022015 223.512696 
L 117.266668 220.171709 
L 117.511321 221.82635 
L 118.000627 217.097944 
L 118.24528 220.077013 
L 118.489933 227.771354 
L 118.734586 225.576196 
L 118.979239 226.615941 
L 119.713198 221.208795 
L 119.957851 223.543734 
L 120.202504 220.373171 
L 120.447157 223.300773 
L 120.69181 221.83942 
L 120.936463 221.619509 
L 121.425769 216.855255 
L 121.670422 217.083303 
L 121.915075 212.991644 
L 122.159728 211.301947 
L 122.649034 217.295598 
L 122.893687 216.636976 
L 123.13834 214.347295 
L 123.627646 219.700205 
L 124.116952 218.514978 
L 124.361605 219.589433 
L 124.606258 217.819755 
L 125.095564 220.298433 
L 125.829523 213.186528 
L 126.074176 214.888591 
L 126.318829 210.974701 
L 126.563482 216.371831 
L 126.808135 215.305537 
L 127.297441 221.058206 
L 127.542094 220.907196 
L 127.786747 221.371701 
L 128.0314 226.220016 
L 128.276053 227.334808 
L 128.520706 227.727827 
L 128.765359 227.310893 
L 129.010012 230.005488 
L 129.254665 228.071135 
L 129.499318 228.238245 
L 129.743971 229.298863 
L 129.988624 231.796325 
L 130.233277 231.29962 
L 130.47793 230.162063 
L 130.722583 231.336259 
L 130.967236 229.986964 
L 131.211889 230.639712 
L 131.456542 229.120772 
L 131.701195 229.168615 
L 131.945848 228.295165 
L 132.92446 212.674069 
L 133.169113 210.992854 
L 133.413766 211.149725 
L 133.658419 210.932361 
L 133.903072 215.753101 
L 134.147725 218.127364 
L 134.392378 218.282825 
L 134.637031 219.404096 
L 134.881684 219.209436 
L 135.126337 217.124506 
L 135.37099 217.430755 
L 135.615643 219.306482 
L 135.860297 218.174205 
L 136.10495 218.204377 
L 136.349603 220.982206 
L 136.594256 216.518909 
L 136.838909 219.16074 
L 137.328215 222.53279 
L 137.572868 215.566503 
L 138.062174 212.43598 
L 138.306827 213.80595 
L 138.796133 213.097371 
L 139.285439 209.243257 
L 139.530092 204.368207 
L 139.774745 207.046171 
L 140.019398 204.316271 
L 140.264051 203.125158 
L 140.508704 204.366278 
L 140.753357 204.395955 
L 140.99801 206.197958 
L 141.487316 204.369196 
L 141.731969 205.281042 
L 141.976622 205.179025 
L 142.221275 204.251326 
L 142.465928 209.929058 
L 142.710581 205.993652 
L 142.955234 206.776772 
L 143.199887 208.401104 
L 143.689193 201.548161 
L 143.933846 201.371258 
L 144.423152 204.098684 
L 144.667805 203.153006 
L 144.912458 201.478172 
L 145.157111 200.588831 
L 145.401764 202.180617 
L 145.646417 197.165933 
L 145.89107 199.214014 
L 146.135723 199.297259 
L 146.380376 197.657519 
L 146.625029 202.118962 
L 147.114335 200.115423 
L 147.358988 196.413432 
L 147.603641 198.088093 
L 147.848294 195.945044 
L 148.3376 202.727749 
L 148.582253 203.108613 
L 148.826906 199.280516 
L 149.071559 199.574721 
L 149.560865 191.996506 
L 149.805518 193.785871 
L 150.050171 190.606355 
L 150.294824 188.970868 
L 150.539477 186.402885 
L 150.78413 187.639182 
L 151.028783 180.832858 
L 151.273436 180.711897 
L 151.518089 181.076017 
L 151.762742 181.117145 
L 152.007395 182.295621 
L 152.252048 180.292923 
L 152.496701 184.633725 
L 152.741354 186.038493 
L 152.986007 183.836361 
L 153.23066 190.503274 
L 153.475313 186.696076 
L 153.719966 186.877035 
L 153.964619 188.03622 
L 154.209272 188.626805 
L 154.453925 187.421595 
L 154.698578 184.03896 
L 154.943231 186.47745 
L 155.187884 192.444935 
L 155.432537 194.176107 
L 155.67719 191.760445 
L 155.921843 197.264068 
L 156.166496 190.619759 
L 156.411149 193.763934 
L 156.655802 200.841363 
L 157.145108 196.449836 
L 157.389761 182.018876 
L 157.634414 184.062604 
L 158.12372 176.567659 
L 158.368374 175.867588 
L 158.613027 176.437102 
L 158.85768 171.58567 
L 159.102333 169.880911 
L 159.346986 172.408434 
L 159.591639 171.049964 
L 160.080945 165.72087 
L 160.325598 167.818908 
L 160.570251 168.142839 
L 161.059557 166.022791 
L 161.30421 170.888245 
L 161.548863 162.041434 
L 162.038169 157.269019 
L 162.282822 160.864665 
L 162.527475 162.0722 
L 162.772128 164.851661 
L 163.016781 164.590498 
L 163.261434 168.75959 
L 163.506087 168.626041 
L 163.75074 164.330645 
L 163.995393 162.215666 
L 164.240046 166.814937 
L 164.484699 166.20103 
L 164.729352 167.161473 
L 164.974005 169.534128 
L 165.218658 169.875001 
L 165.707964 174.511393 
L 166.19727 167.810721 
L 166.441923 163.869454 
L 166.686576 163.606708 
L 166.931229 162.987558 
L 167.175882 165.892061 
L 167.420535 171.112485 
L 167.665188 170.170219 
L 167.909841 167.384303 
L 168.154494 175.479726 
L 168.399147 177.363169 
L 168.6438 176.377747 
L 168.888453 176.286537 
L 169.377759 168.471049 
L 169.622412 171.515631 
L 169.867065 169.854375 
L 170.111718 170.181274 
L 170.356371 169.722309 
L 170.601024 174.038875 
L 170.845677 175.152876 
L 172.068942 165.149674 
L 172.313595 164.754071 
L 172.558248 166.124659 
L 172.802901 163.460521 
L 173.047554 163.059229 
L 173.292207 160.394546 
L 173.53686 161.132308 
L 174.026166 168.643946 
L 174.270819 167.953422 
L 174.515472 165.341985 
L 174.760125 164.915987 
L 175.004778 161.156545 
L 175.249431 160.737175 
L 175.738737 156.059654 
L 175.98339 156.379678 
L 176.228043 155.500181 
L 176.472696 155.919254 
L 176.717349 154.847915 
L 176.962002 156.018823 
L 177.206655 155.036715 
L 177.451308 153.12535 
L 177.695961 153.450889 
L 177.940614 150.448895 
L 178.42992 154.411431 
L 178.674573 159.465314 
L 178.919226 160.069873 
L 179.163879 157.621045 
L 179.408532 158.499356 
L 179.653185 156.98216 
L 179.897838 156.640446 
L 180.142491 159.159931 
L 180.387144 159.575938 
L 180.631798 159.406453 
L 180.876451 156.115745 
L 181.121104 154.68778 
L 181.855063 147.695031 
L 182.099716 148.056084 
L 182.344369 146.659651 
L 182.833675 150.295684 
L 183.078328 145.342853 
L 183.322981 147.269206 
L 183.567634 146.554345 
L 183.812287 147.262132 
L 184.301593 150.968328 
L 184.546246 152.673013 
L 184.790899 150.214936 
L 185.035552 150.792908 
L 185.280205 149.043954 
L 185.524858 149.167438 
L 185.769511 146.258038 
L 186.014164 148.654658 
L 186.258817 146.005803 
L 186.50347 147.906855 
L 186.748123 145.124203 
L 186.992776 149.062453 
L 187.237429 150.66339 
L 187.482082 144.804352 
L 187.726735 146.761915 
L 187.971388 146.775889 
L 188.216041 150.664973 
L 188.705347 143.833373 
L 188.95 145.165233 
L 189.194653 143.6767 
L 189.439306 140.664591 
L 189.683959 139.098451 
L 189.928612 136.039426 
L 190.173265 136.236239 
L 190.417918 136.817599 
L 190.662571 135.341705 
L 191.151877 134.922879 
L 191.39653 135.924277 
L 191.885836 135.330155 
L 192.130489 136.690233 
L 192.375142 133.399228 
L 192.619795 132.499945 
L 192.864448 134.693075 
L 193.109101 132.641953 
L 193.353754 134.353785 
L 193.598407 137.196163 
L 193.84306 137.912285 
L 194.087713 136.638791 
L 194.332366 137.172866 
L 194.577019 135.837841 
L 195.066325 134.928072 
L 195.310978 135.124143 
L 195.555631 134.207177 
L 196.044937 141.011176 
L 196.28959 138.071777 
L 196.534243 142.200434 
L 196.778896 140.557751 
L 197.023549 140.594453 
L 197.268202 138.930649 
L 197.757508 147.791211 
L 198.002161 140.943041 
L 198.246814 140.579292 
L 198.491467 145.29893 
L 198.73612 142.560696 
L 198.980773 149.297649 
L 199.225426 147.918479 
L 199.470079 155.151073 
L 199.714732 153.921255 
L 199.959385 163.804658 
L 200.204038 163.361348 
L 200.448691 155.081083 
L 200.693344 150.861637 
L 200.937997 144.342914 
L 201.18265 145.129916 
L 201.427303 141.881869 
L 201.671956 141.171856 
L 201.916609 141.210759 
L 202.161262 136.210073 
L 202.405915 137.960733 
L 202.650568 135.618647 
L 202.895221 131.165069 
L 203.139875 130.856396 
L 203.384528 135.072652 
L 203.629181 133.211492 
L 203.873834 130.038455 
L 204.118487 138.059535 
L 204.607793 136.484591 
L 204.852446 136.848736 
L 205.097099 134.219963 
L 205.341752 133.687497 
L 205.586405 134.686842 
L 205.831058 134.990371 
L 206.075711 136.744691 
L 206.320364 139.483766 
L 206.565017 138.46236 
L 207.054323 130.854121 
L 207.298976 129.800465 
L 207.543629 127.773407 
L 207.788282 127.892835 
L 208.032935 125.117306 
L 208.277588 126.114203 
L 208.522241 125.731683 
L 208.766894 124.108216 
L 209.011547 123.719562 
L 209.500853 130.49606 
L 209.745506 130.693466 
L 209.990159 131.40207 
L 210.479465 134.59499 
L 210.968771 127.330418 
L 211.213424 127.353864 
L 211.458077 122.805094 
L 211.70273 120.814119 
L 211.947383 121.237496 
L 212.192036 119.194782 
L 212.436689 118.289762 
L 212.681342 120.8366 
L 212.925995 121.796277 
L 213.170648 123.518422 
L 213.415301 128.44432 
L 213.659954 129.680691 
L 214.14926 123.146239 
L 214.393913 121.751661 
L 214.638566 122.07307 
L 214.883219 118.100938 
L 215.127872 122.63059 
L 215.372525 121.675266 
L 215.617178 119.566866 
L 216.106484 122.653788 
L 216.351137 119.735905 
L 216.59579 120.62166 
L 216.840443 120.58852 
L 217.329749 126.583803 
L 217.574402 126.256705 
L 217.819055 132.710706 
L 218.063708 130.319008 
L 218.308361 123.314363 
L 218.553014 99.272738 
L 218.797667 97.435295 
L 219.04232 98.280911 
L 219.531626 98.526988 
L 219.776279 98.791466 
L 220.020932 92.28271 
L 220.265585 90.22862 
L 220.754891 91.058135 
L 220.999544 90.773526 
L 221.244197 89.944679 
L 221.48885 87.805612 
L 221.733503 88.888451 
L 221.978156 86.110548 
L 222.222809 89.511113 
L 222.467462 90.485282 
L 222.712115 85.328987 
L 222.956768 83.573454 
L 223.201421 86.524155 
L 223.446074 86.884516 
L 223.690727 91.45176 
L 223.93538 86.716689 
L 224.180033 93.418993 
L 224.424686 94.15166 
L 224.669339 81.024069 
L 224.913992 84.236873 
L 225.158645 79.825314 
L 225.403298 82.626885 
L 225.647952 79.667676 
L 225.892605 80.079429 
L 226.137258 77.253844 
L 226.381911 77.279144 
L 226.626564 81.203495 
L 226.871217 87.436941 
L 227.11587 87.610086 
L 227.605176 83.07618 
L 227.849829 87.146669 
L 228.094482 86.386797 
L 228.339135 84.637819 
L 228.828441 85.192123 
L 229.073094 82.954329 
L 229.5624 81.909873 
L 229.807053 82.2319 
L 230.051706 82.251883 
L 230.296359 80.761446 
L 230.541012 77.381383 
L 230.785665 82.378013 
L 231.030318 76.576377 
L 231.274971 78.597623 
L 231.519624 77.960568 
L 232.00893 72.736929 
L 232.253583 70.752285 
L 232.498236 71.896037 
L 232.742889 71.626316 
L 232.987542 75.778419 
L 233.232195 69.466698 
L 233.476848 68.510855 
L 233.721501 68.346539 
L 234.210807 74.426824 
L 234.45546 70.2261 
L 234.700113 75.608465 
L 234.944766 74.188043 
L 235.189419 73.825184 
L 235.434072 71.576829 
L 235.678725 70.552257 
L 235.923378 70.518524 
L 236.168031 69.805221 
L 236.412684 70.68368 
L 236.657337 70.870377 
L 236.90199 70.720727 
L 237.146643 73.323433 
L 237.391296 70.031488 
L 237.635949 70.06913 
L 237.880602 71.037685 
L 238.125255 68.663991 
L 238.369908 69.512575 
L 238.614561 68.939153 
L 238.859214 70.451724 
L 239.103867 70.690481 
L 239.593173 76.73676 
L 239.837826 71.569682 
L 240.082479 69.355456 
L 240.327132 71.936448 
L 240.571785 72.090055 
L 240.816438 68.610473 
L 241.061091 67.302553 
L 241.305744 61.649454 
L 241.550397 64.350665 
L 241.79505 60.346852 
L 242.039703 58.36295 
L 242.284356 59.826108 
L 242.529009 57.861694 
L 242.773662 57.568058 
L 243.018315 62.527665 
L 243.507621 55.563011 
L 243.752274 55.791949 
L 243.996927 54.695681 
L 244.24158 50.533068 
L 244.486233 55.76383 
L 244.975539 50.884155 
L 245.220192 46.535339 
L 245.709498 46.438713 
L 245.954151 43.899246 
L 246.198804 44.462354 
L 246.443457 42.331152 
L 246.68811 41.911312 
L 246.932763 41.989463 
L 247.422069 44.062324 
L 247.666722 45.338884 
L 247.911375 45.607442 
L 248.156029 40.905363 
L 248.645335 39.1504 
L 248.889988 36.644789 
L 249.134641 37.733464 
L 249.379294 73.84257 
L 249.623947 79.038609 
L 250.113253 69.936891 
L 250.602559 82.310744 
L 250.847212 78.714331 
L 251.091865 80.044681 
L 251.336518 74.921551 
L 251.581171 80.652158 
L 251.825824 82.688639 
L 252.070477 102.941812 
L 252.31513 107.305318 
L 252.559783 117.23806 
L 252.804436 113.098274 
L 253.293742 96.076751 
L 253.538395 95.501252 
L 253.783048 97.778765 
L 254.027701 104.53988 
L 254.272354 98.337348 
L 254.517007 97.738403 
L 254.76166 101.17609 
L 255.006313 90.834415 
L 255.250966 97.088685 
L 255.495619 95.251638 
L 255.740272 90.503163 
L 256.229578 93.479783 
L 256.718884 89.688932 
L 256.963537 94.327624 
L 257.20819 93.835197 
L 257.697496 98.413446 
L 257.942149 102.712453 
L 258.186802 102.109552 
L 258.431455 107.763962 
L 258.676108 105.395932 
L 258.920761 95.651495 
L 259.165414 96.049002 
L 259.410067 96.138011 
L 259.65472 92.153983 
L 259.899373 91.855549 
L 260.144026 93.819073 
L 260.633332 86.316362 
L 260.877985 84.678576 
L 261.122638 84.206454 
L 261.367291 86.25906 
L 261.611944 79.873342 
L 261.856597 78.423688 
L 262.10125 73.802406 
L 262.590556 69.544651 
L 262.835209 62.327737 
L 263.079862 62.968082 
L 263.324515 62.14282 
L 263.813821 59.891992 
L 264.058474 56.944011 
L 264.303127 60.095705 
L 264.54778 56.489721 
L 264.792433 55.327865 
L 265.037086 61.743433 
L 265.281739 61.936165 
L 265.526392 53.138247 
L 265.771045 51.956409 
L 266.015698 49.397601 
L 266.505004 52.491027 
L 266.749657 56.2131 
L 267.238963 52.164771 
L 267.483616 46.661469 
L 267.728269 44.455479 
L 267.972922 41.091887 
L 268.217575 41.33376 
L 268.462228 46.884645 
L 268.706881 45.06397 
L 268.951534 57.42563 
L 269.196187 59.363606 
L 269.44084 55.737367 
L 269.685493 59.098882 
L 269.930146 65.210081 
L 270.174799 58.315911 
L 270.419452 59.320153 
L 270.908759 67.13621 
L 271.153412 69.430788 
L 271.398065 78.307549 
L 271.642718 73.792588 
L 271.887371 64.037887 
L 272.132024 60.770649 
L 272.376677 65.837615 
L 272.62133 79.752233 
L 273.110636 82.545519 
L 273.355289 86.102485 
L 273.599942 84.899872 
L 273.844595 79.862708 
L 274.089248 80.201157 
L 274.578554 87.317959 
L 275.06786 100.853247 
L 275.557166 104.980024 
L 275.801819 104.761349 
L 276.046472 104.136363 
L 276.291125 98.407016 
L 276.535778 108.334391 
L 276.780431 107.370683 
L 277.025084 122.903773 
L 277.269737 123.586928 
L 277.51439 127.556117 
L 277.759043 122.17249 
L 278.003696 113.368093 
L 278.248349 118.645795 
L 278.493002 116.434859 
L 278.737655 122.008571 
L 278.982308 124.52123 
L 279.226961 117.688097 
L 279.471614 119.258713 
L 279.716267 126.769238 
L 279.96092 120.632121 
L 280.205573 118.20847 
L 280.694879 131.415894 
L 280.939532 130.348562 
L 281.184185 142.090899 
L 281.428838 135.450127 
L 281.673491 133.452573 
L 282.162797 119.04585 
L 282.40745 120.06555 
L 282.652103 119.450826 
L 282.896756 114.725673 
L 283.141409 118.430286 
L 283.386062 119.677861 
L 283.630715 118.938615 
L 283.875368 119.238582 
L 284.120021 118.305986 
L 284.364674 112.327669 
L 284.609327 114.041009 
L 284.85398 108.467174 
L 285.098633 108.866858 
L 285.343286 106.105871 
L 285.587939 111.264219 
L 286.077245 114.19192 
L 286.566551 107.96666 
L 286.811204 110.575129 
L 287.055857 108.788633 
L 287.30051 105.24324 
L 287.545163 106.153405 
L 288.279122 114.269082 
L 288.523775 113.012332 
L 288.768428 109.186313 
L 289.013081 110.665003 
L 289.257734 106.937587 
L 289.502387 105.125197 
L 289.991693 107.759881 
L 290.236346 114.760544 
L 290.480999 112.060669 
L 290.725652 116.299183 
L 291.214958 114.833205 
L 291.459611 112.332219 
L 291.704264 105.111966 
L 291.948917 108.135848 
L 292.19357 108.45236 
L 292.438223 98.995895 
L 292.682876 94.883363 
L 292.92753 94.746351 
L 293.172183 94.355002 
L 294.150795 87.281653 
L 294.640101 93.8511 
L 294.884754 90.026416 
L 295.129407 91.878648 
L 295.37406 91.624459 
L 295.863366 86.269323 
L 296.108019 86.640294 
L 296.352672 83.697902 
L 296.597325 99.023817 
L 296.841978 97.661192 
L 297.086631 101.581215 
L 297.331284 103.009131 
L 297.575937 103.431147 
L 298.065243 109.178152 
L 298.309896 103.870154 
L 298.554549 105.710416 
L 298.799202 105.240372 
L 299.043855 103.671882 
L 299.288508 103.881159 
L 299.533161 103.333211 
L 300.022467 109.521597 
L 300.26712 108.72161 
L 300.511773 108.465665 
L 300.756426 107.927337 
L 301.001079 108.376163 
L 301.490385 111.674414 
L 301.735038 112.780995 
L 301.979691 111.454824 
L 302.224344 109.2566 
L 302.468997 109.769479 
L 302.71365 109.938939 
L 303.202956 104.900785 
L 303.447609 107.618393 
L 303.692262 106.881521 
L 303.936915 107.39314 
L 304.181568 118.701787 
L 304.426221 121.53583 
L 304.915527 113.820999 
L 305.16018 110.581781 
L 305.404833 109.000111 
L 305.649486 112.006235 
L 305.894139 109.48079 
L 306.138792 109.588322 
L 306.383445 105.52038 
L 306.628098 105.283651 
L 306.872751 103.880962 
L 307.117404 103.988691 
L 307.362057 104.448448 
L 307.851363 103.452787 
L 308.096016 105.823439 
L 308.340669 111.192844 
L 308.585322 110.047015 
L 309.074628 111.836973 
L 309.319281 115.223343 
L 309.563934 115.8234 
L 309.808587 117.017283 
L 310.05324 116.214255 
L 310.542546 119.834385 
L 310.787199 116.239778 
L 311.031852 119.375346 
L 311.276505 117.050052 
L 311.521158 117.653671 
L 311.765811 115.64249 
L 312.010464 111.505152 
L 312.255117 111.021308 
L 312.49977 114.438839 
L 312.744423 112.32574 
L 312.989076 114.0764 
L 313.478382 115.185133 
L 313.723035 115.895715 
L 313.967688 117.125186 
L 314.212341 116.55718 
L 315.190953 120.930629 
L 315.435607 119.739565 
L 315.924913 122.813652 
L 316.169566 121.332167 
L 316.414219 124.478791 
L 316.658872 125.078032 
L 316.903525 123.975482 
L 317.148178 128.503378 
L 317.392831 124.767975 
L 317.637484 128.191516 
L 317.882137 128.818951 
L 318.12679 129.080287 
L 318.371443 128.16305 
L 318.616096 128.06954 
L 318.860749 126.746337 
L 319.105402 129.185247 
L 319.350055 124.888343 
L 319.594708 126.044213 
L 319.839361 130.844649 
L 320.084014 130.73086 
L 320.328667 129.186607 
L 320.57332 130.493315 
L 320.817973 127.154751 
L 321.062626 128.225101 
L 321.307279 127.803999 
L 321.551932 128.233806 
L 321.796585 126.643925 
L 322.041238 127.529456 
L 322.285891 127.398355 
L 322.530544 130.939246 
L 322.775197 131.630217 
L 323.01985 133.552884 
L 323.264503 131.816592 
L 323.509156 134.047536 
L 323.998462 130.170175 
L 324.243115 130.153753 
L 324.732421 125.853361 
L 324.977074 127.731339 
L 325.46638 123.762026 
L 325.711033 123.924857 
L 325.955686 127.256645 
L 326.444992 129.931814 
L 326.689645 124.821543 
L 326.934298 128.515175 
L 327.178951 121.637551 
L 327.423604 122.163142 
L 327.668257 122.207139 
L 327.91291 120.183568 
L 328.157563 111.867566 
L 328.402216 111.160347 
L 328.646869 112.282311 
L 328.891522 107.452 
L 329.136175 107.519591 
L 329.625481 111.167717 
L 329.870134 111.238919 
L 330.114787 109.85411 
L 330.35944 107.62967 
L 330.604093 106.912732 
L 330.848746 105.146912 
L 331.338052 106.671428 
L 331.582705 107.967402 
L 331.827358 104.081558 
L 332.072011 102.143087 
L 332.561317 93.114253 
L 332.80597 88.473063 
L 333.050623 90.685384 
L 333.295276 91.013396 
L 333.784582 89.114446 
L 334.029235 92.225209 
L 334.273888 85.035079 
L 334.518541 86.422336 
L 334.763194 86.26314 
L 335.007847 86.342825 
L 335.2525 86.949461 
L 335.497153 86.642149 
L 335.741806 89.725658 
L 335.986459 88.741126 
L 336.231112 89.731593 
L 336.475765 82.159017 
L 336.720418 80.286851 
L 336.965071 80.644121 
L 337.209724 74.897141 
L 337.454377 77.586778 
L 337.69903 77.378243 
L 337.943684 74.052515 
L 338.188337 79.110082 
L 338.43299 77.810597 
L 338.677643 77.211355 
L 338.922296 77.35502 
L 339.166949 80.147242 
L 339.411602 79.360043 
L 339.656255 80.618994 
L 339.900908 78.507329 
L 340.145561 77.412941 
L 340.390214 77.78777 
L 340.87952 70.022363 
L 341.368826 68.117774 
L 341.858132 69.828444 
L 342.347438 75.77466 
L 342.592091 73.567408 
L 342.836744 73.870665 
L 343.32605 73.700414 
L 343.570703 71.159017 
L 343.815356 70.831648 
L 344.060009 69.406032 
L 344.304662 71.140097 
L 344.549315 71.668137 
L 345.038621 71.740749 
L 345.283274 70.929386 
L 345.77258 71.633093 
L 346.017233 68.083274 
L 346.261886 69.834256 
L 346.506539 68.766627 
L 346.751192 70.21455 
L 346.995845 70.53868 
L 347.240498 68.297077 
L 347.485151 69.651293 
L 348.21911 65.221086 
L 348.463763 66.122891 
L 348.953069 66.837875 
L 349.197722 63.716775 
L 349.442375 66.034872 
L 349.687028 65.93612 
L 349.931681 64.641185 
L 350.176334 65.751203 
L 350.420987 65.756595 
L 350.66564 63.454078 
L 350.910293 63.62381 
L 351.399599 61.568953 
L 351.888905 62.339237 
L 352.133558 62.22159 
L 352.378211 63.246755 
L 352.622864 63.617379 
L 352.867517 64.445584 
L 353.11217 62.087076 
L 354.090782 60.037883 
L 354.335435 60.271866 
L 354.580088 58.355654 
L 354.824741 57.643539 
L 355.069394 59.761534 
L 355.314047 56.039708 
L 355.5587 54.847977 
L 355.803353 55.102142 
L 356.048006 54.918734 
L 356.292659 57.35799 
L 356.537312 58.398143 
L 356.781965 66.792419 
L 357.026618 69.438702 
L 357.271271 65.089119 
L 357.760577 67.376871 
L 358.00523 75.612719 
L 358.249883 74.449527 
L 358.494536 74.285707 
L 358.739189 73.944587 
L 359.228495 84.413035 
L 359.473148 82.965235 
L 359.717801 80.370987 
L 359.962454 79.854274 
L 360.207107 81.21502 
L 360.451761 80.012259 
L 360.696414 79.57434 
L 360.941067 76.76159 
L 361.18572 77.119132 
L 361.430373 78.552785 
L 361.675026 79.1154 
L 361.919679 80.728974 
L 362.408985 87.113603 
L 362.653638 85.181563 
L 362.898291 90.229881 
L 363.142944 86.59004 
L 363.387597 81.136621 
L 363.876903 84.895816 
L 364.121556 85.2104 
L 364.366209 86.151355 
L 364.610862 86.268631 
L 364.855515 92.186208 
L 365.100168 89.187305 
L 365.589474 91.505823 
L 365.834127 86.832927 
L 366.07878 86.898836 
L 366.323433 83.148618 
L 366.568086 85.633405 
L 366.812739 84.760288 
L 367.057392 79.940661 
L 367.546698 93.507729 
L 367.791351 93.589813 
L 368.036004 93.157285 
L 368.52531 90.102663 
L 368.769963 89.982419 
L 369.014616 87.965055 
L 369.259269 88.818313 
L 369.503922 86.64205 
L 369.748575 82.301816 
L 369.993228 80.794463 
L 370.237881 81.195556 
L 370.482534 80.66764 
L 370.727187 82.945722 
L 370.97184 82.236451 
L 371.216493 73.078271 
L 371.461146 72.615819 
L 371.705799 72.747637 
L 371.950452 70.88346 
L 372.195105 77.163129 
L 372.439758 74.418341 
L 372.929064 83.731859 
L 373.173717 81.841095 
L 373.41837 97.232152 
L 373.663023 98.536584 
L 373.907676 96.542171 
L 374.152329 98.067182 
L 374.396982 97.607698 
L 374.641635 96.265476 
L 375.130941 101.460353 
L 375.375594 99.757646 
L 375.620247 94.375875 
L 375.8649 98.503642 
L 376.109553 99.033957 
L 376.354206 95.688666 
L 376.598859 95.770304 
L 376.843512 95.991997 
L 377.088165 94.70735 
L 377.332818 99.88897 
L 377.577471 98.161335 
L 378.066777 99.65234 
L 378.31143 113.023907 
L 378.800736 112.497648 
L 379.045389 111.056673 
L 379.290042 108.197825 
L 379.534695 111.455343 
L 379.779348 108.886371 
L 380.024001 110.748298 
L 380.513307 106.78356 
L 380.75796 108.007442 
L 381.002613 108.396096 
L 381.247266 105.25521 
L 381.491919 108.712979 
L 381.736572 106.450058 
L 381.981225 109.876319 
L 382.225878 108.51127 
L 382.715184 101.447245 
L 383.204491 103.427289 
L 383.693797 104.813805 
L 383.93845 105.323543 
L 384.427756 114.26327 
L 384.917062 110.061186 
L 385.161715 109.484648 
L 385.406368 110.249688 
L 385.651021 106.903508 
L 385.895674 105.898399 
L 386.140327 108.382692 
L 386.629633 110.838567 
L 386.874286 107.946109 
L 387.118939 110.086263 
L 387.363592 110.580223 
L 387.608245 110.786805 
L 387.852898 106.060514 
L 387.852898 106.060514 
" style="fill:none;stroke:#1f77b4;stroke-linecap:square;stroke-width:1.5;"/>
   </g>
   <g id="line2d_32">
    <path clip-path="url(#pfdb284fd48)" d="M 63.198352 267.743907 
L 63.443005 266.99834 
L 63.687658 267.452163 
L 63.932311 269.591614 
L 64.176964 270.628923 
L 64.421617 270.110269 
L 64.66627 267.549411 
L 64.910923 267.938402 
L 65.155576 267.419747 
L 65.400229 265.215465 
L 65.889535 267.938402 
L 66.134188 267.257668 
L 66.378841 267.808738 
L 66.623494 267.16042 
L 67.1128 265.312713 
L 67.357453 265.345129 
L 67.602106 267.970818 
L 67.846759 267.905986 
L 68.091412 269.494366 
L 68.336066 268.230145 
L 68.580719 268.003234 
L 68.825372 268.003234 
L 69.070025 266.674181 
L 69.314678 268.683968 
L 69.559331 268.521889 
L 69.803984 267.905986 
L 70.29329 260.774484 
L 70.537943 261.163475 
L 70.782596 261.876625 
L 71.027249 261.746962 
L 71.271902 261.293139 
L 71.516555 258.375706 
L 72.250514 260.64482 
L 72.495167 258.051547 
L 72.73982 258.181211 
L 72.984473 257.921883 
L 73.229126 257.338397 
L 73.473779 258.570202 
L 73.718432 260.515157 
L 73.963085 258.440538 
L 74.697044 261.487634 
L 74.941697 258.797113 
L 75.18635 258.278458 
L 75.431003 257.176317 
L 76.409615 265.701704 
L 76.898921 264.242987 
L 77.143574 262.784271 
L 77.388227 259.3806 
L 77.63288 258.959193 
L 77.877533 260.64482 
L 78.122186 261.001396 
L 78.366839 264.340235 
L 78.611492 264.69681 
L 78.856145 265.961031 
L 79.100798 266.544518 
L 79.345451 269.656446 
L 79.590104 267.516995 
L 79.834757 267.257668 
L 80.07941 265.766536 
L 80.324063 265.280297 
L 80.568716 266.544518 
L 80.813369 266.674181 
L 81.058022 276.334125 
L 81.547328 273.416692 
L 81.791981 275.97755 
L 82.036634 275.005072 
L 82.281287 275.167152 
L 83.259899 269.202623 
L 83.504552 269.948189 
L 83.749205 271.342074 
L 84.238511 267.711491 
L 84.483164 267.905986 
L 84.727817 269.105375 
L 84.97247 269.072959 
L 85.217123 268.132898 
L 85.461776 269.850941 
L 85.706429 269.267455 
L 85.951082 269.072959 
L 86.440388 267.970818 
L 86.929694 271.115162 
L 87.174347 269.137791 
L 87.419 266.090695 
L 87.663653 266.99834 
L 87.908306 263.789165 
L 88.152959 266.803845 
L 88.397612 267.192836 
L 88.642265 267.290084 
L 89.131571 269.559198 
L 89.376224 267.484579 
L 89.620877 263.238094 
L 89.86553 262.881519 
L 90.110183 259.704759 
L 90.354836 263.659501 
L 90.599489 264.340235 
L 91.088796 264.242987 
L 91.333449 264.923722 
L 91.578102 264.891306 
L 92.067408 261.844209 
L 92.312061 258.991609 
L 92.556714 259.21852 
L 92.801367 257.954299 
L 93.04602 253.999557 
L 93.290673 253.999557 
L 93.535326 252.605673 
L 93.779979 252.670504 
L 94.269285 254.518212 
L 94.513938 254.226469 
L 94.758591 251.924938 
L 95.003244 254.161637 
L 95.49255 252.15185 
L 95.737203 252.670504 
L 95.981856 251.698027 
L 96.226509 251.406284 
L 96.471162 250.757965 
L 96.715815 250.725549 
L 96.960468 250.984877 
L 97.205121 248.618515 
L 97.449774 248.229524 
L 97.694427 251.892522 
L 97.93908 253.286407 
L 98.183733 253.02708 
L 98.428386 255.16653 
L 98.673039 254.161637 
L 98.917692 252.281513 
L 99.162345 251.924938 
L 99.896304 245.79833 
L 100.140957 246.187321 
L 100.38561 246.316984 
L 100.630263 242.848481 
L 100.874916 241.973251 
L 101.119569 243.756127 
L 101.364222 243.010561 
L 101.608875 241.681508 
L 101.853528 242.232579 
L 102.342834 246.3494 
L 102.587487 244.307197 
L 102.83214 246.3494 
L 103.076793 244.825852 
L 103.321446 246.67356 
L 103.566099 245.312091 
L 103.810752 245.830746 
L 104.055405 244.76102 
L 104.300058 245.117595 
L 104.544711 242.62157 
L 104.789364 243.302304 
L 105.034017 242.200163 
L 105.27867 241.843588 
L 105.523323 238.213005 
L 105.767976 237.175695 
L 106.012629 234.031351 
L 106.257282 232.605051 
L 106.501935 232.605051 
L 106.746588 238.018509 
L 106.991241 231.956733 
L 107.235894 232.183644 
L 107.480547 234.420342 
L 107.7252 229.331043 
L 108.214506 225.992204 
L 108.459159 228.099238 
L 108.703812 227.904743 
L 108.948465 228.32615 
L 109.193118 224.663151 
L 109.437771 225.181806 
L 109.682424 223.982417 
L 110.661036 214.711464 
L 110.905689 214.970791 
L 111.394995 211.048465 
L 111.884301 210.173235 
L 112.128954 209.524917 
L 112.373607 213.414827 
L 112.61826 213.058252 
L 113.107566 215.489446 
L 113.596873 217.434401 
L 113.841526 216.591587 
L 114.086179 212.701677 
L 114.330832 214.095561 
L 114.820138 224.403824 
L 115.309444 220.287002 
L 115.554097 224.27416 
L 115.79875 224.209328 
L 116.043403 218.666206 
L 116.288056 221.97263 
L 116.532709 222.069877 
L 116.777362 224.695567 
L 117.022015 220.449081 
L 117.266668 222.069877 
L 117.755974 217.239906 
L 118.000627 220.351834 
L 118.24528 227.969575 
L 118.489933 225.538381 
L 118.734586 226.478442 
L 118.979239 226.057035 
L 119.468545 222.329205 
L 119.713198 224.176912 
L 119.957851 221.64847 
L 120.202504 223.820337 
L 120.69181 222.005046 
L 120.936463 219.120029 
L 121.181116 218.374463 
L 121.425769 218.47171 
L 121.670422 213.058252 
L 121.915075 211.761615 
L 122.404381 218.082719 
L 122.893687 215.521862 
L 123.382993 220.124922 
L 123.627646 219.962843 
L 123.872299 219.34694 
L 124.116952 219.638683 
L 124.361605 218.244799 
L 124.850911 220.838072 
L 125.095564 219.314524 
L 125.340217 217.012994 
L 125.58487 213.285163 
L 125.829523 214.873543 
L 126.074176 211.534704 
L 126.318829 215.230119 
L 126.563482 215.748773 
L 127.052788 221.64847 
L 127.297441 221.486391 
L 127.542094 221.551223 
L 127.786747 226.672938 
L 128.0314 227.353672 
L 128.276053 228.455813 
L 128.520706 228.293734 
L 128.765359 230.692512 
L 129.010012 229.071716 
L 129.254665 228.779973 
L 129.499318 230.011777 
L 129.743971 232.151228 
L 129.988624 231.762237 
L 130.233277 230.887007 
L 130.47793 231.697405 
L 130.722583 231.373246 
L 131.701195 229.233795 
L 132.679807 212.701677 
L 132.92446 211.891279 
L 133.169113 211.761615 
L 133.413766 211.340208 
L 133.658419 215.846021 
L 133.903072 218.147551 
L 134.147725 218.990365 
L 134.392378 220.38425 
L 134.637031 219.962843 
L 134.881684 217.401985 
L 135.126337 217.564065 
L 135.37099 219.833179 
L 135.615643 218.731038 
L 135.860297 218.568958 
L 136.10495 221.356727 
L 136.349603 217.20749 
L 136.838909 221.421559 
L 137.083562 222.750612 
L 137.328215 216.299844 
L 137.817521 212.247854 
L 138.062174 213.512075 
L 138.306827 213.803818 
L 138.55148 213.576907 
L 139.040786 209.719412 
L 139.285439 205.2136 
L 139.530092 208.066201 
L 139.774745 205.05152 
L 140.019398 204.370786 
L 140.264051 205.2136 
L 140.508704 205.472927 
L 140.753357 206.931643 
L 140.99801 206.542652 
L 141.242663 205.181184 
L 141.487316 205.829502 
L 141.731969 205.699839 
L 141.976622 205.2136 
L 142.221275 211.210545 
L 142.465928 206.575068 
L 142.710581 207.35305 
L 142.955234 209.200758 
L 143.44454 201.907176 
L 143.689193 201.972008 
L 144.178499 204.824609 
L 144.423152 204.468034 
L 144.667805 202.166503 
L 144.912458 201.32369 
L 145.157111 202.814822 
L 145.401764 198.14693 
L 145.89107 200.221548 
L 146.135723 199.022159 
L 146.380376 202.296167 
L 146.625029 202.069256 
L 146.869682 201.226442 
L 147.114335 197.239284 
L 147.358988 198.373841 
L 147.603641 196.882709 
L 148.092947 203.171397 
L 148.3376 203.203813 
L 148.582253 200.318796 
L 148.826906 199.832557 
L 149.071559 194.840506 
L 149.316212 192.34448 
L 149.560865 194.192187 
L 150.050171 189.491879 
L 150.294824 186.995854 
L 150.539477 187.871083 
L 150.78413 181.776891 
L 151.028783 181.22582 
L 151.518089 182.165882 
L 151.762742 183.105943 
L 152.007395 181.420316 
L 152.252048 185.050898 
L 152.496701 186.088208 
L 152.741354 184.499828 
L 152.986007 191.372003 
L 153.23066 187.546924 
L 153.475313 188.097995 
L 153.719966 188.324906 
L 153.964619 189.070472 
L 154.209272 188.357322 
L 154.453925 184.759155 
L 154.698578 186.444783 
L 154.943231 193.154878 
L 155.187884 194.678426 
L 155.432537 192.636223 
L 155.67719 197.660691 
L 155.921843 191.534082 
L 156.166496 193.511453 
L 156.411149 202.004424 
L 156.900455 196.266806 
L 157.145108 183.948757 
L 157.389761 183.592182 
L 157.634414 179.086369 
L 157.879067 176.720007 
L 158.12372 176.331016 
L 158.368374 176.363432 
L 158.613027 172.052115 
L 158.85768 170.917558 
L 159.102333 173.219088 
L 159.346986 172.181779 
L 159.836292 167.189727 
L 160.080945 168.875355 
L 160.325598 169.296762 
L 160.814904 166.9304 
L 161.059557 171.306549 
L 161.30421 164.012967 
L 161.793516 158.729173 
L 162.038169 162.392171 
L 162.282822 163.170153 
L 162.527475 166.152418 
L 162.772128 165.082693 
L 163.016781 169.783001 
L 163.261434 169.329178 
L 163.506087 165.050277 
L 163.75074 163.105322 
L 163.995393 167.870462 
L 164.240046 166.9304 
L 164.484699 168.421532 
L 164.729352 171.209301 
L 164.974005 171.014806 
L 165.218658 174.029486 
L 165.463311 174.483309 
L 165.707964 172.830097 
L 166.19727 164.46679 
L 166.441923 164.142631 
L 166.686576 164.077799 
L 167.175882 172.376274 
L 167.420535 170.949974 
L 167.665188 168.032541 
L 167.909841 177.627653 
L 168.154494 179.248449 
L 168.399147 177.271078 
L 168.6438 177.141414 
L 169.133106 169.588505 
L 169.377759 172.441106 
L 169.622412 171.338965 
L 170.111718 170.885142 
L 170.356371 175.293707 
L 170.601024 176.752423 
L 171.09033 171.69554 
L 171.334983 170.98239 
L 171.824289 165.601347 
L 172.068942 166.21725 
L 172.313595 168.616028 
L 172.558248 164.369542 
L 173.047554 161.711437 
L 173.292207 162.813578 
L 173.781513 169.069851 
L 174.026166 168.291869 
L 174.270819 166.152418 
L 174.515472 166.022754 
L 174.760125 162.457003 
L 175.004778 161.938349 
L 175.249431 158.794004 
L 175.494084 157.432536 
L 175.738737 157.886359 
L 175.98339 156.492474 
L 176.228043 156.557306 
L 176.472696 155.714492 
L 176.717349 156.978713 
L 176.962002 155.81174 
L 177.206655 154.06128 
L 177.451308 154.612351 
L 177.695961 151.792166 
L 178.185267 155.584828 
L 178.42992 160.479632 
L 178.674573 160.479632 
L 178.919226 158.858836 
L 179.163879 159.312659 
L 179.408532 157.951191 
L 179.653185 157.335288 
L 179.897838 160.4148 
L 180.387144 160.868623 
L 180.631798 156.913881 
L 180.876451 155.131006 
L 181.121104 152.375653 
L 181.365757 150.949352 
L 181.61041 148.58299 
L 181.855063 148.680238 
L 182.099716 147.383601 
L 182.344369 148.193999 
L 182.589022 150.560361 
L 182.833675 146.151796 
L 183.078328 147.318769 
L 183.322981 147.221521 
L 183.567634 147.642928 
L 184.301593 153.250882 
L 184.546246 150.722441 
L 184.790899 150.949352 
L 185.035552 149.425804 
L 185.280205 149.976875 
L 185.524858 147.513265 
L 185.769511 149.360972 
L 186.014164 146.378708 
L 186.258817 149.45822 
L 186.50347 146.184212 
L 186.748123 150.495529 
L 186.992776 152.116325 
L 187.237429 146.086964 
L 187.482082 147.675344 
L 187.726735 148.193999 
L 187.971388 151.694918 
L 188.216041 147.351185 
L 188.460694 145.24415 
L 188.705347 146.184212 
L 188.95 144.919991 
L 189.439306 139.474117 
L 189.683959 137.237419 
L 189.928612 136.848428 
L 190.173265 137.658826 
L 190.417918 135.908366 
L 190.662571 135.551791 
L 190.907224 135.908366 
L 191.151877 137.075339 
L 191.39653 135.940782 
L 191.641183 136.394605 
L 191.885836 137.529162 
L 192.130489 134.546897 
L 192.375142 134.093074 
L 192.619795 136.686348 
L 192.864448 134.093074 
L 193.109101 135.324879 
L 193.353754 138.436808 
L 193.598407 138.696135 
L 193.84306 137.237419 
L 194.087713 138.209896 
L 194.332366 136.880843 
L 194.577019 136.264941 
L 194.821672 136.070446 
L 195.066325 136.03803 
L 195.310978 135.551791 
L 195.800284 142.618461 
L 196.044937 138.923046 
L 196.28959 143.396443 
L 196.534243 141.224577 
L 196.778896 140.932833 
L 197.023549 140.284515 
L 197.268202 145.276566 
L 197.512855 147.545681 
L 197.757508 142.164638 
L 198.002161 141.808063 
L 198.246814 146.508371 
L 198.491467 143.266779 
L 198.73612 151.0466 
L 198.980773 149.231308 
L 199.225426 156.881465 
L 199.470079 156.135899 
L 199.714732 162.813578 
L 199.959385 163.91572 
L 200.693344 145.114487 
L 200.937997 146.540787 
L 201.427303 141.645984 
L 201.671956 142.164638 
L 201.916609 137.367082 
L 202.161262 138.663719 
L 202.405915 136.427021 
L 202.650568 132.666774 
L 202.895221 131.597049 
L 203.139875 136.005614 
L 203.384528 133.898579 
L 203.629181 130.656987 
L 203.873834 137.140171 
L 204.118487 137.853321 
L 204.36314 137.205003 
L 204.607793 137.46433 
L 204.852446 135.551791 
L 205.097099 134.546897 
L 205.341752 135.811118 
L 205.586405 136.232525 
L 205.831058 137.723657 
L 206.075711 140.705922 
L 206.320364 140.511426 
L 206.80967 131.791544 
L 207.054323 130.916314 
L 207.298976 129.003775 
L 207.543629 128.387873 
L 207.788282 125.891847 
L 208.032935 127.05882 
L 208.277588 126.669829 
L 208.522241 124.951785 
L 208.766894 124.822122 
L 209.011547 127.609891 
L 209.2562 131.856376 
L 209.500853 131.467385 
L 209.745506 132.310199 
L 210.234812 136.5891 
L 210.724118 128.679616 
L 210.968771 127.77197 
L 211.213424 123.525485 
L 211.458077 121.937105 
L 211.70273 122.812335 
L 212.192036 119.311416 
L 212.681342 123.557901 
L 212.925995 124.984201 
L 213.170648 129.425182 
L 213.415301 131.013562 
L 213.904607 124.854538 
L 214.14926 123.363405 
L 214.393913 122.682671 
L 214.638566 120.316309 
L 214.883219 123.428237 
L 215.127872 123.039246 
L 215.372525 120.348725 
L 215.861831 123.622733 
L 216.106484 120.445973 
L 216.351137 121.839857 
L 216.59579 121.029459 
L 217.085096 128.485121 
L 217.329749 126.702245 
L 217.574402 134.028243 
L 217.819055 130.883899 
L 218.063708 123.849644 
L 218.308361 100.575015 
L 218.553014 96.16645 
L 218.797667 98.176237 
L 219.04232 99.116298 
L 219.286973 98.500396 
L 219.531626 98.662476 
L 219.776279 93.119353 
L 220.020932 91.206814 
L 220.265585 91.368894 
L 220.510238 92.211708 
L 220.754891 92.11446 
L 221.244197 88.548709 
L 221.48885 89.586018 
L 221.733503 86.668586 
L 221.978156 89.942593 
L 222.222809 91.498558 
L 222.467462 85.631276 
L 222.712115 84.140144 
L 223.446074 92.341371 
L 223.690727 87.673479 
L 223.93538 94.707733 
L 224.180033 95.356052 
L 224.424686 81.482039 
L 224.669339 83.848401 
L 224.913992 80.83372 
L 225.158645 82.162773 
L 225.403298 78.888765 
L 225.647952 80.83372 
L 225.892605 77.397633 
L 226.137258 78.078367 
L 226.381911 81.676534 
L 226.626564 88.516293 
L 227.11587 86.960329 
L 227.360523 84.88571 
L 227.605176 88.872868 
L 228.094482 85.274701 
L 228.583788 87.122409 
L 228.828441 84.107728 
L 229.073094 82.778675 
L 229.317747 82.195189 
L 229.5624 83.621489 
L 229.807053 83.135251 
L 230.051706 82.097941 
L 230.296359 78.467358 
L 230.541012 83.038003 
L 230.785665 78.078367 
L 231.030318 79.828827 
L 231.274971 78.986013 
L 231.519624 75.549926 
L 232.00893 71.789679 
L 232.253583 72.567661 
L 232.498236 72.924236 
L 232.742889 76.457571 
L 232.987542 70.622706 
L 233.232195 68.969494 
L 233.476848 69.682644 
L 233.721501 73.215979 
L 233.966154 74.707112 
L 234.210807 71.951759 
L 234.45546 76.846562 
L 234.700113 74.771944 
L 234.944766 74.934023 
L 235.189419 72.535245 
L 235.434072 71.335856 
L 235.678725 71.238608 
L 235.923378 70.493042 
L 236.168031 71.660015 
L 236.412684 71.044113 
L 236.657337 71.46552 
L 236.90199 74.123625 
L 237.146643 71.108945 
L 237.391296 70.59029 
L 237.635949 71.108945 
L 237.880602 69.196406 
L 238.125255 69.87714 
L 238.369908 68.515671 
L 238.614561 71.335856 
L 238.859214 71.335856 
L 239.34852 77.10589 
L 239.593173 72.308334 
L 239.837826 70.298547 
L 240.082479 72.470413 
L 240.327132 71.724847 
L 240.571785 68.872246 
L 240.816438 67.478362 
L 241.061091 61.870408 
L 241.305744 63.815363 
L 241.79505 58.012914 
L 242.039703 60.087532 
L 242.529009 56.13279 
L 242.773662 62.421479 
L 243.262968 55.678968 
L 243.507621 56.197622 
L 243.752274 53.83126 
L 243.996927 49.293032 
L 244.24158 55.484472 
L 244.486233 54.155419 
L 244.730886 51.432482 
L 244.975539 46.213519 
L 245.220192 46.861838 
L 245.464845 45.403121 
L 245.709498 42.907096 
L 245.954151 43.58783 
L 246.198804 41.253884 
L 246.443457 42.129114 
L 246.68811 42.064282 
L 246.932763 43.782325 
L 247.177416 43.42575 
L 247.422069 45.565201 
L 247.666722 44.884467 
L 247.911375 40.41107 
L 248.156029 39.795167 
L 248.400682 39.892415 
L 248.645335 36.261832 
L 248.889988 34.414125 
L 249.134641 70.59029 
L 249.379294 77.008642 
L 249.623947 74.415368 
L 249.8686 69.066742 
L 250.113253 78.791517 
L 250.357906 82.065525 
L 250.602559 80.347482 
L 250.847212 81.514455 
L 251.091865 75.387846 
L 251.336518 82.227605 
L 251.581171 83.815985 
L 251.825824 104.65942 
L 252.070477 108.484499 
L 252.31513 119.765238 
L 252.559783 118.047195 
L 253.049089 97.689998 
L 253.293742 96.685104 
L 253.538395 98.63006 
L 253.783048 106.312632 
L 254.027701 98.597644 
L 254.272354 98.273485 
L 254.517007 101.579908 
L 254.76166 91.725469 
L 255.006313 98.532812 
L 255.250966 96.296113 
L 255.495619 90.201921 
L 255.984925 93.605592 
L 256.229578 91.887549 
L 256.474231 91.109567 
L 256.718884 95.518131 
L 256.963537 93.670424 
L 257.697496 102.714465 
L 257.942149 103.751775 
L 258.186802 109.619056 
L 258.431455 106.604376 
L 258.676108 97.59275 
L 259.165414 94.999477 
L 259.410067 92.244124 
L 259.65472 92.503451 
L 259.899373 93.735256 
L 260.388679 86.701002 
L 260.633332 84.140144 
L 260.877985 83.362162 
L 261.122638 86.149931 
L 261.367291 79.148093 
L 261.611944 78.013535 
L 261.856597 74.026377 
L 262.345903 72.01659 
L 262.590556 61.77316 
L 262.835209 62.291815 
L 263.569168 58.239825 
L 263.813821 55.970711 
L 264.058474 60.18478 
L 264.303127 55.970711 
L 264.54778 54.349915 
L 264.792433 61.77316 
L 265.037086 62.583558 
L 265.281739 53.928508 
L 265.771045 48.255722 
L 266.015698 51.173155 
L 266.260351 52.178048 
L 266.505004 56.619029 
L 266.749657 53.11811 
L 266.99431 52.437376 
L 267.238963 45.921776 
L 267.483616 44.074069 
L 267.728269 39.665504 
L 267.972922 41.772539 
L 268.217575 46.537679 
L 268.462228 44.203732 
L 268.706881 55.678968 
L 268.951534 61.06001 
L 269.196187 54.836154 
L 269.44084 59.341966 
L 269.685493 66.181725 
L 269.930146 58.563984 
L 270.174799 59.893037 
L 270.664106 67.543194 
L 270.908759 69.844724 
L 271.153412 78.661854 
L 271.398065 74.415368 
L 271.887371 60.022701 
L 272.132024 65.792734 
L 272.376677 79.699163 
L 272.62133 83.362162 
L 272.865983 82.875923 
L 273.110636 86.701002 
L 273.355289 85.728524 
L 273.599942 81.222711 
L 273.844595 81.773782 
L 274.089248 84.17256 
L 274.333901 88.256966 
L 274.823207 101.80682 
L 275.06786 103.557279 
L 275.312513 106.345048 
L 275.557166 107.155446 
L 275.801819 104.98358 
L 276.046472 99.991528 
L 276.291125 109.651472 
L 276.535778 107.609269 
L 276.780431 124.497963 
L 277.025084 124.271051 
L 277.269737 128.906528 
L 277.51439 124.108972 
L 277.759043 114.773187 
L 278.003696 119.99215 
L 278.248349 116.81539 
L 278.493002 123.136494 
L 278.737655 125.697352 
L 278.982308 118.274106 
L 279.226961 120.445973 
L 279.471614 127.026404 
L 279.716267 120.478389 
L 279.96092 119.538327 
L 280.450226 130.267996 
L 280.694879 129.619678 
L 280.939532 140.868001 
L 281.673491 127.707139 
L 281.918144 119.311416 
L 282.162797 120.381141 
L 282.40745 120.899796 
L 282.652103 116.491231 
L 282.896756 119.700407 
L 283.141409 119.538327 
L 283.386062 118.825177 
L 283.630715 119.927318 
L 283.875368 119.246584 
L 284.120021 112.341993 
L 284.364674 114.449028 
L 284.609327 108.549331 
L 284.85398 109.651472 
L 285.098633 106.701623 
L 285.343286 111.790923 
L 285.587939 112.309577 
L 285.832592 114.319364 
L 286.321898 108.581747 
L 286.566551 110.429454 
L 286.811204 109.781136 
L 287.055857 106.020889 
L 287.30051 107.317526 
L 288.034469 115.000098 
L 288.279122 113.735878 
L 288.523775 110.915693 
L 288.768428 110.688781 
L 289.013081 108.257587 
L 289.257734 106.960951 
L 289.502387 107.738933 
L 289.74704 109.003154 
L 289.991693 114.449028 
L 290.236346 112.893064 
L 290.480999 117.171965 
L 290.725652 116.329151 
L 290.970305 116.81539 
L 291.214958 113.314471 
L 291.459611 106.40988 
L 291.704264 109.165233 
L 291.948917 109.294897 
L 292.19357 99.926696 
L 292.438223 96.16645 
L 292.682876 94.124247 
L 292.92753 95.29122 
L 293.416836 89.910178 
L 293.906142 87.608647 
L 294.395448 94.156663 
L 294.640101 90.590912 
L 294.884754 92.471035 
L 295.129407 92.82761 
L 295.37406 88.743204 
L 295.618713 86.765833 
L 295.863366 87.414152 
L 296.108019 83.329746 
L 296.352672 97.301007 
L 296.597325 99.18113 
L 296.841978 103.038625 
L 297.086631 103.557279 
L 297.331284 104.918748 
L 297.82059 109.878383 
L 298.065243 105.437403 
L 298.309896 107.382358 
L 298.799202 105.178075 
L 299.043855 105.340155 
L 299.288508 103.784191 
L 299.777814 109.521808 
L 300.022467 108.87349 
L 300.511773 108.678994 
L 301.001079 111.077772 
L 301.245732 111.726091 
L 301.490385 113.346887 
L 301.735038 112.60132 
L 301.979691 109.910799 
L 302.224344 110.332206 
L 302.468997 109.975631 
L 302.958303 106.118137 
L 303.202956 108.549331 
L 303.447609 108.646578 
L 303.692262 107.901012 
L 303.936915 118.598265 
L 304.181568 122.941999 
L 304.670874 114.51386 
L 304.915527 111.790923 
L 305.16018 111.110188 
L 305.404833 112.309577 
L 305.649486 109.74872 
L 305.894139 109.878383 
L 306.138792 105.956057 
L 306.628098 104.075934 
L 306.872751 105.113243 
L 307.117404 104.8215 
L 307.362057 105.372571 
L 307.60671 104.238014 
L 307.851363 106.442296 
L 308.096016 110.494286 
L 308.585322 112.147498 
L 308.829975 113.184807 
L 309.074628 115.453921 
L 309.563934 117.982363 
L 309.808587 117.852699 
L 310.297893 120.899796 
L 310.542546 117.398876 
L 310.787199 120.413557 
L 311.031852 118.24169 
L 311.276505 118.501018 
L 311.765811 111.661259 
L 312.010464 111.953002 
L 312.255117 114.967683 
L 312.49977 114.124869 
L 312.744423 114.838019 
L 312.989076 114.870435 
L 313.478382 116.426399 
L 313.723035 118.112027 
L 313.967688 117.787867 
L 314.212341 118.274106 
L 314.701647 120.251477 
L 314.9463 121.353619 
L 315.190953 121.386034 
L 315.435607 122.682671 
L 315.68026 123.33099 
L 315.924913 122.812335 
L 316.169566 124.822122 
L 316.414219 125.113865 
L 316.658872 123.88206 
L 316.903525 129.295519 
L 317.148178 125.340776 
L 317.392831 128.387873 
L 317.637484 129.814173 
L 317.882137 129.036191 
L 318.371443 128.614784 
L 318.616096 127.577475 
L 318.860749 129.392766 
L 319.105402 126.086343 
L 319.350055 126.540165 
L 319.594708 130.786651 
L 319.839361 131.564633 
L 320.084014 130.008669 
L 320.328667 131.305305 
L 320.57332 127.869218 
L 320.817973 129.068607 
L 321.062626 128.744448 
L 321.307279 129.198271 
L 321.551932 127.966466 
L 321.796585 129.068607 
L 322.041238 129.068607 
L 322.530544 132.569526 
L 322.775197 133.509588 
L 323.01985 132.926101 
L 323.264503 134.44965 
L 323.509156 133.347508 
L 323.753809 130.883899 
L 323.998462 130.559739 
L 324.243115 127.318148 
L 324.487768 126.216006 
L 324.732421 128.225793 
L 325.221727 124.108972 
L 325.46638 124.660042 
L 325.711033 128.420289 
L 325.955686 129.392766 
L 326.200339 130.94873 
L 326.444992 126.216006 
L 326.689645 129.198271 
L 326.934298 122.779919 
L 327.178951 122.941999 
L 327.668257 121.061875 
L 327.91291 112.244745 
L 328.157563 111.466763 
L 328.402216 112.179914 
L 328.646869 107.576853 
L 328.891522 106.766455 
L 329.136175 110.429454 
L 329.380828 112.406825 
L 329.625481 112.147498 
L 330.114787 108.549331 
L 330.35944 108.063092 
L 330.604093 105.793978 
L 330.848746 107.576853 
L 331.093399 108.16034 
L 331.338052 109.58664 
L 331.582705 104.853916 
L 331.827358 102.584802 
L 332.561317 88.970116 
L 332.80597 91.563389 
L 333.050623 92.244124 
L 333.295276 91.595805 
L 333.539929 90.493664 
L 333.784582 92.049628 
L 334.029235 87.543815 
L 334.518541 86.701002 
L 334.763194 87.154824 
L 335.007847 88.030054 
L 335.2525 87.965222 
L 335.497153 90.785407 
L 335.741806 89.942593 
L 335.986459 91.044735 
L 336.475765 80.606809 
L 336.720418 80.801304 
L 336.965071 75.614757 
L 337.209724 77.624544 
L 337.454377 77.559713 
L 337.69903 74.123625 
L 337.943684 80.315066 
L 338.188337 78.597022 
L 338.43299 78.888765 
L 338.677643 78.272863 
L 338.922296 81.125464 
L 339.166949 79.893659 
L 339.411602 81.644118 
L 339.656255 79.115677 
L 339.900908 78.661854 
L 340.145561 78.597022 
L 340.634867 69.261237 
L 340.87952 70.201299 
L 341.124173 68.094264 
L 341.368826 70.330963 
L 341.613479 71.335856 
L 342.102785 75.549926 
L 342.347438 75.549926 
L 342.592091 73.961546 
L 342.836744 74.707112 
L 343.081397 73.442891 
L 343.32605 71.238608 
L 343.570703 71.724847 
L 343.815356 70.006804 
L 344.060009 72.113838 
L 344.304662 72.275918 
L 344.549315 71.919343 
L 344.793968 73.183564 
L 345.038621 71.271024 
L 345.527927 72.01659 
L 345.77258 68.937078 
L 346.017233 70.395795 
L 346.261886 68.28876 
L 346.506539 70.136467 
L 346.751192 69.520565 
L 346.995845 69.585397 
L 347.240498 68.969494 
L 347.485151 69.326069 
L 347.974457 64.820257 
L 348.21911 66.246557 
L 348.463763 66.765212 
L 348.708416 66.603132 
L 348.953069 63.52362 
L 349.197722 66.635548 
L 349.442375 65.565823 
L 349.687028 65.047168 
L 349.931681 65.371327 
L 350.176334 64.593345 
L 350.420987 62.421479 
L 350.66564 64.107106 
L 350.910293 62.000072 
L 351.154946 61.319337 
L 351.644252 62.453895 
L 351.888905 62.583558 
L 352.133558 62.421479 
L 352.378211 63.945027 
L 352.622864 64.431266 
L 352.867517 62.356647 
L 353.11217 62.453895 
L 353.356823 61.93524 
L 353.846129 58.726064 
L 354.090782 60.217196 
L 354.335435 56.781109 
L 354.580088 57.915666 
L 354.824741 60.314444 
L 355.069394 55.516888 
L 355.5587 53.377437 
L 355.803353 54.155419 
L 356.048006 56.975604 
L 356.292659 58.142577 
L 356.537312 67.056955 
L 356.781965 68.515671 
L 357.026618 65.857566 
L 357.271271 67.705273 
L 357.515924 65.598239 
L 357.760577 73.410475 
L 358.00523 73.669802 
L 358.249883 73.313227 
L 358.494536 75.128519 
L 358.983842 84.269808 
L 359.228495 83.070419 
L 359.473148 80.347482 
L 359.717801 79.990906 
L 359.962454 81.968277 
L 360.207107 79.731579 
L 360.451761 81.15788 
L 360.696414 77.462465 
L 360.941067 77.689376 
L 361.18572 78.986013 
L 361.430373 78.110783 
L 362.164332 86.895497 
L 362.408985 85.534029 
L 362.653638 90.720575 
L 363.142944 81.903446 
L 363.63225 84.820878 
L 363.876903 85.339533 
L 364.121556 86.863081 
L 364.366209 87.316904 
L 364.610862 91.95238 
L 364.855515 89.164611 
L 365.100168 91.044735 
L 365.344821 90.590912 
L 365.589474 86.668586 
L 365.834127 87.18724 
L 366.07878 82.486932 
L 366.323433 86.214763 
L 366.568086 84.464303 
L 366.812739 80.541977 
L 367.302045 93.86492 
L 367.546698 93.962167 
L 368.036004 92.27654 
L 368.280657 90.52608 
L 368.52531 90.817823 
L 368.769963 88.22455 
L 369.014616 89.197027 
L 369.748575 80.866136 
L 369.993228 81.741366 
L 370.237881 82.033109 
L 370.482534 83.913233 
L 370.727187 82.227605 
L 370.97184 72.308334 
L 371.461146 72.535245 
L 371.705799 70.330963 
L 371.950452 76.619651 
L 372.195105 75.160935 
L 372.684411 84.140144 
L 372.929064 82.097941 
L 373.173717 95.550547 
L 373.41837 100.348103 
L 373.663023 98.273485 
L 373.907676 100.186024 
L 374.152329 99.829449 
L 374.396982 97.59275 
L 374.886288 102.455138 
L 375.130941 100.93159 
L 375.375594 95.745043 
L 375.620247 99.861865 
L 375.8649 99.797033 
L 376.109553 96.912016 
L 376.354206 96.425777 
L 376.598859 96.393361 
L 376.843512 95.420884 
L 377.088165 100.834342 
L 377.332818 99.861865 
L 377.577471 99.537705 
L 377.822124 99.861865 
L 378.066777 114.254532 
L 378.556083 114.157285 
L 379.045389 108.549331 
L 379.290042 111.531595 
L 379.534695 109.521808 
L 379.779348 110.883277 
L 380.024001 109.813552 
L 380.268654 107.28511 
L 380.75796 109.262481 
L 381.002613 106.118137 
L 381.247266 109.165233 
L 381.491919 107.187862 
L 381.736572 111.045356 
L 381.981225 109.359729 
L 382.470531 102.163395 
L 382.715184 102.941377 
L 382.959838 104.367677 
L 383.204491 104.497341 
L 383.449144 106.118137 
L 383.693797 106.085721 
L 383.93845 109.42456 
L 384.183103 114.675939 
L 384.427756 113.217223 
L 384.672409 110.786029 
L 384.917062 110.040463 
L 385.161715 110.397038 
L 385.406368 107.933428 
L 385.651021 106.669207 
L 386.140327 110.267374 
L 386.38498 111.855754 
L 386.629633 109.392145 
L 387.363592 111.823338 
L 387.608245 107.868596 
L 387.852898 110.072879 
L 387.852898 110.072879 
" style="fill:none;stroke:#ff7f0e;stroke-linecap:square;stroke-width:1.5;"/>
   </g>
   <g id="patch_3">
    <path d="M 46.965625 288.430125 
L 46.965625 22.318125 
" style="fill:none;stroke:#000000;stroke-linecap:square;stroke-linejoin:miter;stroke-width:0.8;"/>
   </g>
   <g id="patch_4">
    <path d="M 404.085625 288.430125 
L 404.085625 22.318125 
" style="fill:none;stroke:#000000;stroke-linecap:square;stroke-linejoin:miter;stroke-width:0.8;"/>
   </g>
   <g id="patch_5">
    <path d="M 46.965625 288.430125 
L 404.085625 288.430125 
" style="fill:none;stroke:#000000;stroke-linecap:square;stroke-linejoin:miter;stroke-width:0.8;"/>
   </g>
   <g id="patch_6">
    <path d="M 46.965625 22.318125 
L 404.085625 22.318125 
" style="fill:none;stroke:#000000;stroke-linecap:square;stroke-linejoin:miter;stroke-width:0.8;"/>
   </g>
   <g id="text_18">
    <!-- Training: DIS -->
    <defs>
     <path d="M -0.296875 72.90625 
L 61.375 72.90625 
L 61.375 64.59375 
L 35.5 64.59375 
L 35.5 0 
L 25.59375 0 
L 25.59375 64.59375 
L -0.296875 64.59375 
z
" id="DejaVuSans-84"/>
     <path d="M 54.890625 33.015625 
L 54.890625 0 
L 45.90625 0 
L 45.90625 32.71875 
Q 45.90625 40.484375 42.875 44.328125 
Q 39.84375 48.1875 33.796875 48.1875 
Q 26.515625 48.1875 22.3125 43.546875 
Q 18.109375 38.921875 18.109375 30.90625 
L 18.109375 0 
L 9.078125 0 
L 9.078125 54.6875 
L 18.109375 54.6875 
L 18.109375 46.1875 
Q 21.34375 51.125 25.703125 53.5625 
Q 30.078125 56 35.796875 56 
Q 45.21875 56 50.046875 50.171875 
Q 54.890625 44.34375 54.890625 33.015625 
z
" id="DejaVuSans-110"/>
     <path d="M 45.40625 27.984375 
Q 45.40625 37.75 41.375 43.109375 
Q 37.359375 48.484375 30.078125 48.484375 
Q 22.859375 48.484375 18.828125 43.109375 
Q 14.796875 37.75 14.796875 27.984375 
Q 14.796875 18.265625 18.828125 12.890625 
Q 22.859375 7.515625 30.078125 7.515625 
Q 37.359375 7.515625 41.375 12.890625 
Q 45.40625 18.265625 45.40625 27.984375 
z
M 54.390625 6.78125 
Q 54.390625 -7.171875 48.1875 -13.984375 
Q 42 -20.796875 29.203125 -20.796875 
Q 24.46875 -20.796875 20.265625 -20.09375 
Q 16.0625 -19.390625 12.109375 -17.921875 
L 12.109375 -9.1875 
Q 16.0625 -11.328125 19.921875 -12.34375 
Q 23.78125 -13.375 27.78125 -13.375 
Q 36.625 -13.375 41.015625 -8.765625 
Q 45.40625 -4.15625 45.40625 5.171875 
L 45.40625 9.625 
Q 42.625 4.78125 38.28125 2.390625 
Q 33.9375 0 27.875 0 
Q 17.828125 0 11.671875 7.65625 
Q 5.515625 15.328125 5.515625 27.984375 
Q 5.515625 40.671875 11.671875 48.328125 
Q 17.828125 56 27.875 56 
Q 33.9375 56 38.28125 53.609375 
Q 42.625 51.21875 45.40625 46.390625 
L 45.40625 54.6875 
L 54.390625 54.6875 
z
" id="DejaVuSans-103"/>
     <path d="M 11.71875 12.40625 
L 22.015625 12.40625 
L 22.015625 0 
L 11.71875 0 
z
M 11.71875 51.703125 
L 22.015625 51.703125 
L 22.015625 39.3125 
L 11.71875 39.3125 
z
" id="DejaVuSans-58"/>
     <path d="M 9.8125 72.90625 
L 19.671875 72.90625 
L 19.671875 0 
L 9.8125 0 
z
" id="DejaVuSans-73"/>
     <path d="M 53.515625 70.515625 
L 53.515625 60.890625 
Q 47.90625 63.578125 42.921875 64.890625 
Q 37.9375 66.21875 33.296875 66.21875 
Q 25.25 66.21875 20.875 63.09375 
Q 16.5 59.96875 16.5 54.203125 
Q 16.5 49.359375 19.40625 46.890625 
Q 22.3125 44.4375 30.421875 42.921875 
L 36.375 41.703125 
Q 47.40625 39.59375 52.65625 34.296875 
Q 57.90625 29 57.90625 20.125 
Q 57.90625 9.515625 50.796875 4.046875 
Q 43.703125 -1.421875 29.984375 -1.421875 
Q 24.8125 -1.421875 18.96875 -0.25 
Q 13.140625 0.921875 6.890625 3.21875 
L 6.890625 13.375 
Q 12.890625 10.015625 18.65625 8.296875 
Q 24.421875 6.59375 29.984375 6.59375 
Q 38.421875 6.59375 43.015625 9.90625 
Q 47.609375 13.234375 47.609375 19.390625 
Q 47.609375 24.75 44.3125 27.78125 
Q 41.015625 30.8125 33.5 32.328125 
L 27.484375 33.5 
Q 16.453125 35.6875 11.515625 40.375 
Q 6.59375 45.0625 6.59375 53.421875 
Q 6.59375 63.09375 13.40625 68.65625 
Q 20.21875 74.21875 32.171875 74.21875 
Q 37.3125 74.21875 42.625 73.28125 
Q 47.953125 72.359375 53.515625 70.515625 
z
" id="DejaVuSans-83"/>
    </defs>
    <g transform="translate(187.7275 16.318125)scale(0.12 -0.12)">
     <use xlink:href="#DejaVuSans-84"/>
     <use x="46.333984" xlink:href="#DejaVuSans-114"/>
     <use x="87.447266" xlink:href="#DejaVuSans-97"/>
     <use x="148.726562" xlink:href="#DejaVuSans-105"/>
     <use x="176.509766" xlink:href="#DejaVuSans-110"/>
     <use x="239.888672" xlink:href="#DejaVuSans-105"/>
     <use x="267.671875" xlink:href="#DejaVuSans-110"/>
     <use x="331.050781" xlink:href="#DejaVuSans-103"/>
     <use x="394.527344" xlink:href="#DejaVuSans-58"/>
     <use x="428.21875" xlink:href="#DejaVuSans-32"/>
     <use x="460.005859" xlink:href="#DejaVuSans-68"/>
     <use x="537.007812" xlink:href="#DejaVuSans-73"/>
     <use x="566.5" xlink:href="#DejaVuSans-83"/>
    </g>
   </g>
   <g id="legend_1">
    <g id="patch_7">
     <path d="M 53.965625 59.674375 
L 137.69375 59.674375 
Q 139.69375 59.674375 139.69375 57.674375 
L 139.69375 29.318125 
Q 139.69375 27.318125 137.69375 27.318125 
L 53.965625 27.318125 
Q 51.965625 27.318125 51.965625 29.318125 
L 51.965625 57.674375 
Q 51.965625 59.674375 53.965625 59.674375 
z
" style="fill:#ffffff;opacity:0.8;stroke:#cccccc;stroke-linejoin:miter;"/>
    </g>
    <g id="line2d_33">
     <path d="M 55.965625 35.416562 
L 75.965625 35.416562 
" style="fill:none;stroke:#1f77b4;stroke-linecap:square;stroke-width:1.5;"/>
    </g>
    <g id="line2d_34"/>
    <g id="text_19">
     <!-- Predicted -->
     <defs>
      <path d="M 45.40625 46.390625 
L 45.40625 75.984375 
L 54.390625 75.984375 
L 54.390625 0 
L 45.40625 0 
L 45.40625 8.203125 
Q 42.578125 3.328125 38.25 0.953125 
Q 33.9375 -1.421875 27.875 -1.421875 
Q 17.96875 -1.421875 11.734375 6.484375 
Q 5.515625 14.40625 5.515625 27.296875 
Q 5.515625 40.1875 11.734375 48.09375 
Q 17.96875 56 27.875 56 
Q 33.9375 56 38.25 53.625 
Q 42.578125 51.265625 45.40625 46.390625 
z
M 14.796875 27.296875 
Q 14.796875 17.390625 18.875 11.75 
Q 22.953125 6.109375 30.078125 6.109375 
Q 37.203125 6.109375 41.296875 11.75 
Q 45.40625 17.390625 45.40625 27.296875 
Q 45.40625 37.203125 41.296875 42.84375 
Q 37.203125 48.484375 30.078125 48.484375 
Q 22.953125 48.484375 18.875 42.84375 
Q 14.796875 37.203125 14.796875 27.296875 
z
" id="DejaVuSans-100"/>
      <path d="M 18.3125 70.21875 
L 18.3125 54.6875 
L 36.8125 54.6875 
L 36.8125 47.703125 
L 18.3125 47.703125 
L 18.3125 18.015625 
Q 18.3125 11.328125 20.140625 9.421875 
Q 21.96875 7.515625 27.59375 7.515625 
L 36.8125 7.515625 
L 36.8125 0 
L 27.59375 0 
Q 17.1875 0 13.234375 3.875 
Q 9.28125 7.765625 9.28125 18.015625 
L 9.28125 47.703125 
L 2.6875 47.703125 
L 2.6875 54.6875 
L 9.28125 54.6875 
L 9.28125 70.21875 
z
" id="DejaVuSans-116"/>
     </defs>
     <g transform="translate(83.965625 38.916562)scale(0.1 -0.1)">
      <use xlink:href="#DejaVuSans-80"/>
      <use x="58.552734" xlink:href="#DejaVuSans-114"/>
      <use x="97.416016" xlink:href="#DejaVuSans-101"/>
      <use x="158.939453" xlink:href="#DejaVuSans-100"/>
      <use x="222.416016" xlink:href="#DejaVuSans-105"/>
      <use x="250.199219" xlink:href="#DejaVuSans-99"/>
      <use x="305.179688" xlink:href="#DejaVuSans-116"/>
      <use x="344.388672" xlink:href="#DejaVuSans-101"/>
      <use x="405.912109" xlink:href="#DejaVuSans-100"/>
     </g>
    </g>
    <g id="line2d_35">
     <path d="M 55.965625 50.094687 
L 75.965625 50.094687 
" style="fill:none;stroke:#ff7f0e;stroke-linecap:square;stroke-width:1.5;"/>
    </g>
    <g id="line2d_36"/>
    <g id="text_20">
     <!-- True value -->
     <defs>
      <path d="M 8.5 21.578125 
L 8.5 54.6875 
L 17.484375 54.6875 
L 17.484375 21.921875 
Q 17.484375 14.15625 20.5 10.265625 
Q 23.53125 6.390625 29.59375 6.390625 
Q 36.859375 6.390625 41.078125 11.03125 
Q 45.3125 15.671875 45.3125 23.6875 
L 45.3125 54.6875 
L 54.296875 54.6875 
L 54.296875 0 
L 45.3125 0 
L 45.3125 8.40625 
Q 42.046875 3.421875 37.71875 1 
Q 33.40625 -1.421875 27.6875 -1.421875 
Q 18.265625 -1.421875 13.375 4.4375 
Q 8.5 10.296875 8.5 21.578125 
z
M 31.109375 56 
z
" id="DejaVuSans-117"/>
      <path d="M 2.984375 54.6875 
L 12.5 54.6875 
L 29.59375 8.796875 
L 46.6875 54.6875 
L 56.203125 54.6875 
L 35.6875 0 
L 23.484375 0 
z
" id="DejaVuSans-118"/>
      <path d="M 9.421875 75.984375 
L 18.40625 75.984375 
L 18.40625 0 
L 9.421875 0 
z
" id="DejaVuSans-108"/>
     </defs>
     <g transform="translate(83.965625 53.594687)scale(0.1 -0.1)">
      <use xlink:href="#DejaVuSans-84"/>
      <use x="46.333984" xlink:href="#DejaVuSans-114"/>
      <use x="87.447266" xlink:href="#DejaVuSans-117"/>
      <use x="150.826172" xlink:href="#DejaVuSans-101"/>
      <use x="212.349609" xlink:href="#DejaVuSans-32"/>
      <use x="244.136719" xlink:href="#DejaVuSans-118"/>
      <use x="303.316406" xlink:href="#DejaVuSans-97"/>
      <use x="364.595703" xlink:href="#DejaVuSans-108"/>
      <use x="392.378906" xlink:href="#DejaVuSans-117"/>
      <use x="455.757812" xlink:href="#DejaVuSans-101"/>
     </g>
    </g>
   </g>
  </g>
 </g>
 <defs>
  <clipPath id="pfdb284fd48">
   <rect height="266.112" width="357.12" x="46.965625" y="22.318125"/>
  </clipPath>
 </defs>
</svg>
